<?xml version="1.0" encoding="UTF-8"?>
<svg xmlns="http://www.w3.org/2000/svg"
     xmlns:xlink="http://www.w3.org/1999/xlink"
     xmlns:gadfly="http://www.gadflyjl.org/ns"
     version="1.2"
     width="203.2mm" height="152.4mm" viewBox="0 0 203.2 152.4"
     stroke="none"
     fill="#000000"
     stroke-width="0.3"
     font-size="3.88"
>
<g class="plotroot xscalable yscalable" id="img-356a73f5-1">
  <g font-size="3.88" font-family="'PT Sans','Helvetica Neue','Helvetica',sans-serif" fill="#000000" stroke="#000000" stroke-opacity="0.000" id="img-356a73f5-2">
    <text x="96" y="140.79" text-anchor="middle" dy="0.6em">number of A_type individuals (bin size = 50)</text>
  </g>
  <g class="guide xlabels" font-size="2.82" font-family="'PT Sans Caption','Helvetica Neue','Helvetica',sans-serif" fill="#000000" id="img-356a73f5-3">
    <text x="19.96" y="134.11" text-anchor="middle" dy="0.6em">0</text>
    <text x="96" y="134.11" text-anchor="middle" dy="0.6em">50</text>
    <text x="172.03" y="134.11" text-anchor="middle" dy="0.6em">100</text>
  </g>
  <g class="guide colorkey" id="img-356a73f5-4">
    <g fill="#4C404B" font-size="2.82" font-family="'PT Sans','Helvetica Neue','Helvetica',sans-serif" id="img-356a73f5-5">
      <text x="177.85" y="109.96" dy="0.35em">histogram</text>
      <text x="177.85" y="113.59" dy="0.35em">theoretical curve</text>
    </g>
    <g stroke="#000000" stroke-opacity="0.000" id="img-356a73f5-6">
      <rect x="175.03" y="109.06" width="1.81" height="1.81" fill="#00BFFF"/>
      <rect x="175.03" y="112.68" width="1.81" height="1.81" fill="#FFA500"/>
    </g>
    <g fill="#362A35" font-size="3.88" font-family="'PT Sans','Helvetica Neue','Helvetica',sans-serif" stroke="#000000" stroke-opacity="0.000" id="img-356a73f5-7">
      <text x="175.03" y="106.14">Legend</text>
    </g>
  </g>
<g clip-path="url(#img-356a73f5-8)">
  <g id="img-356a73f5-9">
    <g pointer-events="visible" opacity="1" fill="#FFFFFF" stroke="#000000" stroke-opacity="0.000" class="guide background" id="img-356a73f5-10">
      <rect x="17.96" y="86.81" width="156.07" height="46.3"/>
    </g>
    <g class="guide ygridlines xfixed" stroke-dasharray="0.5,0.5" stroke-width="0.2" stroke="#808080" id="img-356a73f5-11">
      <path fill="none" d="M17.96,131.11 L 174.03 131.11"/>
      <path fill="none" d="M17.96,124.06 L 174.03 124.06"/>
      <path fill="none" d="M17.96,117.01 L 174.03 117.01"/>
      <path fill="none" d="M17.96,109.96 L 174.03 109.96"/>
      <path fill="none" d="M17.96,102.91 L 174.03 102.91"/>
      <path fill="none" d="M17.96,95.86 L 174.03 95.86"/>
      <path fill="none" d="M17.96,88.81 L 174.03 88.81"/>
    </g>
    <g class="guide xgridlines yfixed" stroke-dasharray="0.5,0.5" stroke-width="0.2" stroke="#808080" id="img-356a73f5-12">
      <path fill="none" d="M19.96,86.81 L 19.96 133.11"/>
      <path fill="none" d="M96,86.81 L 96 133.11"/>
      <path fill="none" d="M172.03,86.81 L 172.03 133.11"/>
    </g>
    <g class="plotpanel" id="img-356a73f5-13">
      <g stroke-width="0.71" fill="#000000" fill-opacity="0.000" class="geometry" stroke-dasharray="none" stroke="#FFA500" id="img-356a73f5-14">
        <path fill="none" d="M20.57,129.35 L 21.18 130.23 21.79 130.52 22.4 130.67 23.01 130.76 23.62 130.82 24.23 130.86 24.84 130.89 25.46 130.91 26.07 130.93 26.68 130.95 27.29 130.96 27.9 130.97 28.51 130.98 29.12 130.99 29.73 131 30.34 131 30.95 131.01 31.56 131.01 32.17 131.02 32.78 131.02 33.39 131.03 34.01 131.03 34.62 131.03 35.23 131.04 35.84 131.04 36.45 131.04 37.06 131.04 37.67 131.05 38.28 131.05 38.89 131.05 39.5 131.05 40.11 131.05 40.72 131.06 41.33 131.06 41.95 131.06 42.56 131.06 43.17 131.06 43.78 131.06 44.39 131.06 45 131.06 45.61 131.06 46.22 131.07 46.83 131.07 47.44 131.07 48.05 131.07 48.66 131.07 49.27 131.07 49.88 131.07 50.5 131.07 51.11 131.07 51.72 131.07 52.33 131.07 52.94 131.07 53.55 131.07 54.16 131.07 54.77 131.08 55.38 131.08 55.99 131.08 56.6 131.08 57.21 131.08 57.82 131.08 58.44 131.08 59.05 131.08 59.66 131.08 60.27 131.08 60.88 131.08 61.49 131.08 62.1 131.08 62.71 131.08 63.32 131.08 63.93 131.08 64.54 131.08 65.15 131.08 65.76 131.08 66.37 131.08 66.99 131.08 67.6 131.08 68.21 131.08 68.82 131.08 69.43 131.08 70.04 131.08 70.65 131.08 71.26 131.08 71.87 131.08 72.48 131.08 73.09 131.08 73.7 131.08 74.31 131.08 74.93 131.08 75.54 131.08 76.15 131.08 76.76 131.08 77.37 131.08 77.98 131.09 78.59 131.09 79.2 131.09 79.81 131.09 80.42 131.09 81.03 131.09 81.64 131.09 82.25 131.09 82.86 131.09 83.48 131.09 84.09 131.09 84.7 131.09 85.31 131.09 85.92 131.09 86.53 131.09 87.14 131.09 87.75 131.09 88.36 131.09 88.97 131.09 89.58 131.09 90.19 131.09 90.8 131.09 91.42 131.09 92.03 131.09 92.64 131.09 93.25 131.09 93.86 131.09 94.47 131.09 95.08 131.09 95.69 131.09 96.3 131.09 96.91 131.09 97.52 131.09 98.13 131.09 98.74 131.09 99.35 131.09 99.97 131.09 100.58 131.09 101.19 131.09 101.8 131.09 102.41 131.09 103.02 131.09 103.63 131.09 104.24 131.09 104.85 131.09 105.46 131.09 106.07 131.09 106.68 131.09 107.29 131.09 107.91 131.09 108.52 131.09 109.13 131.09 109.74 131.09 110.35 131.09 110.96 131.09 111.57 131.09 112.18 131.09 112.79 131.09 113.4 131.09 114.01 131.09 114.62 131.08 115.23 131.08 115.84 131.08 116.46 131.08 117.07 131.08 117.68 131.08 118.29 131.08 118.9 131.08 119.51 131.08 120.12 131.08 120.73 131.08 121.34 131.08 121.95 131.08 122.56 131.08 123.17 131.08 123.78 131.08 124.4 131.08 125.01 131.08 125.62 131.08 126.23 131.08 126.84 131.08 127.45 131.08 128.06 131.08 128.67 131.08 129.28 131.08 129.89 131.08 130.5 131.08 131.11 131.08 131.72 131.08 132.34 131.08 132.95 131.08 133.56 131.08 134.17 131.08 134.78 131.08 135.39 131.08 136 131.08 136.61 131.08 137.22 131.08 137.83 131.07 138.44 131.07 139.05 131.07 139.66 131.07 140.27 131.07 140.89 131.07 141.5 131.07 142.11 131.07 142.72 131.07 143.33 131.07 143.94 131.07 144.55 131.07 145.16 131.07 145.77 131.07 146.38 131.06 146.99 131.06 147.6 131.06 148.21 131.06 148.83 131.06 149.44 131.06 150.05 131.06 150.66 131.06 151.27 131.06 151.88 131.05 152.49 131.05 153.1 131.05 153.71 131.05 154.32 131.05 154.93 131.04 155.54 131.04 156.15 131.04 156.76 131.04 157.38 131.03 157.99 131.03 158.6 131.03 159.21 131.02 159.82 131.02 160.43 131.01 161.04 131.01 161.65 131 162.26 131 162.87 130.99 163.48 130.98 164.09 130.97 164.7 130.96 165.32 130.95 165.93 130.93 166.54 130.91 167.15 130.89 167.76 130.86 168.37 130.82 168.98 130.76 169.59 130.67 170.2 130.52 170.81 130.23 171.42 129.35"/>
      </g>
      <g stroke-width="0.71" fill="#000000" fill-opacity="0.000" class="geometry" stroke-dasharray="none" stroke="#FFA500" id="img-356a73f5-15">
        <path fill="none" d="M20.57,129.35 L 21.18 130.23 21.79 130.52 22.4 130.67 23.01 130.76 23.62 130.82 24.23 130.86 24.84 130.89 25.46 130.91 26.07 130.93 26.68 130.95 27.29 130.96 27.9 130.97 28.51 130.98 29.12 130.99 29.73 131 30.34 131 30.95 131.01 31.56 131.01 32.17 131.02 32.78 131.02 33.39 131.03 34.01 131.03 34.62 131.03 35.23 131.04 35.84 131.04 36.45 131.04 37.06 131.04 37.67 131.05 38.28 131.05 38.89 131.05 39.5 131.05 40.11 131.05 40.72 131.06 41.33 131.06 41.95 131.06 42.56 131.06 43.17 131.06 43.78 131.06 44.39 131.06 45 131.06 45.61 131.06 46.22 131.07 46.83 131.07 47.44 131.07 48.05 131.07 48.66 131.07 49.27 131.07 49.88 131.07 50.5 131.07 51.11 131.07 51.72 131.07 52.33 131.07 52.94 131.07 53.55 131.07 54.16 131.07 54.77 131.08 55.38 131.08 55.99 131.08 56.6 131.08 57.21 131.08 57.82 131.08 58.44 131.08 59.05 131.08 59.66 131.08 60.27 131.08 60.88 131.08 61.49 131.08 62.1 131.08 62.71 131.08 63.32 131.08 63.93 131.08 64.54 131.08 65.15 131.08 65.76 131.08 66.37 131.08 66.99 131.08 67.6 131.08 68.21 131.08 68.82 131.08 69.43 131.08 70.04 131.08 70.65 131.08 71.26 131.08 71.87 131.08 72.48 131.08 73.09 131.08 73.7 131.08 74.31 131.08 74.93 131.08 75.54 131.08 76.15 131.08 76.76 131.08 77.37 131.08 77.98 131.09 78.59 131.09 79.2 131.09 79.81 131.09 80.42 131.09 81.03 131.09 81.64 131.09 82.25 131.09 82.86 131.09 83.48 131.09 84.09 131.09 84.7 131.09 85.31 131.09 85.92 131.09 86.53 131.09 87.14 131.09 87.75 131.09 88.36 131.09 88.97 131.09 89.58 131.09 90.19 131.09 90.8 131.09 91.42 131.09 92.03 131.09 92.64 131.09 93.25 131.09 93.86 131.09 94.47 131.09 95.08 131.09 95.69 131.09 96.3 131.09 96.91 131.09 97.52 131.09 98.13 131.09 98.74 131.09 99.35 131.09 99.97 131.09 100.58 131.09 101.19 131.09 101.8 131.09 102.41 131.09 103.02 131.09 103.63 131.09 104.24 131.09 104.85 131.09 105.46 131.09 106.07 131.09 106.68 131.09 107.29 131.09 107.91 131.09 108.52 131.09 109.13 131.09 109.74 131.09 110.35 131.09 110.96 131.09 111.57 131.09 112.18 131.09 112.79 131.09 113.4 131.09 114.01 131.09 114.62 131.08 115.23 131.08 115.84 131.08 116.46 131.08 117.07 131.08 117.68 131.08 118.29 131.08 118.9 131.08 119.51 131.08 120.12 131.08 120.73 131.08 121.34 131.08 121.95 131.08 122.56 131.08 123.17 131.08 123.78 131.08 124.4 131.08 125.01 131.08 125.62 131.08 126.23 131.08 126.84 131.08 127.45 131.08 128.06 131.08 128.67 131.08 129.28 131.08 129.89 131.08 130.5 131.08 131.11 131.08 131.72 131.08 132.34 131.08 132.95 131.08 133.56 131.08 134.17 131.08 134.78 131.08 135.39 131.08 136 131.08 136.61 131.08 137.22 131.08 137.83 131.07 138.44 131.07 139.05 131.07 139.66 131.07 140.27 131.07 140.89 131.07 141.5 131.07 142.11 131.07 142.72 131.07 143.33 131.07 143.94 131.07 144.55 131.07 145.16 131.07 145.77 131.07 146.38 131.06 146.99 131.06 147.6 131.06 148.21 131.06 148.83 131.06 149.44 131.06 150.05 131.06 150.66 131.06 151.27 131.06 151.88 131.05 152.49 131.05 153.1 131.05 153.71 131.05 154.32 131.05 154.93 131.04 155.54 131.04 156.15 131.04 156.76 131.04 157.38 131.03 157.99 131.03 158.6 131.03 159.21 131.02 159.82 131.02 160.43 131.01 161.04 131.01 161.65 131 162.26 131 162.87 130.99 163.48 130.98 164.09 130.97 164.7 130.96 165.32 130.95 165.93 130.93 166.54 130.91 167.15 130.89 167.76 130.86 168.37 130.82 168.98 130.76 169.59 130.67 170.2 130.52 170.81 130.23 171.42 129.35"/>
      </g>
      <g shape-rendering="crispEdges" stroke-width="0.3" id="img-356a73f5-16">
        <g stroke="#000000" stroke-opacity="0.000" fill="#00BFFF" class="geometry" id="img-356a73f5-17">
          <rect x="19.93" y="99.39" width="3.09" height="31.73"/>
          <rect x="22.97" y="131.11" width="3.09" height="0.01"/>
          <rect x="26.02" y="131.11" width="3.09" height="0.01"/>
          <rect x="29.06" y="131.11" width="3.09" height="0.01"/>
          <rect x="32.1" y="131.11" width="3.09" height="0.01"/>
          <rect x="35.14" y="131.11" width="3.09" height="0.01"/>
          <rect x="38.18" y="131.11" width="3.09" height="0.01"/>
          <rect x="41.22" y="130.41" width="3.09" height="0.71"/>
          <rect x="44.27" y="131.11" width="3.09" height="0.01"/>
          <rect x="47.31" y="131.11" width="3.09" height="0.01"/>
          <rect x="50.35" y="131.11" width="3.09" height="0.01"/>
          <rect x="53.39" y="131.11" width="3.09" height="0.01"/>
          <rect x="56.43" y="131.11" width="3.09" height="0.01"/>
          <rect x="59.47" y="131.11" width="3.09" height="0.01"/>
          <rect x="62.51" y="131.11" width="3.09" height="0.01"/>
          <rect x="65.56" y="131.11" width="3.09" height="0.01"/>
          <rect x="68.6" y="131.11" width="3.09" height="0.01"/>
          <rect x="71.64" y="131.11" width="3.09" height="0.01"/>
          <rect x="74.68" y="131.11" width="3.09" height="0.01"/>
          <rect x="77.72" y="131.11" width="3.09" height="0.01"/>
          <rect x="80.76" y="131.11" width="3.09" height="0.01"/>
          <rect x="83.8" y="131.11" width="3.09" height="0.01"/>
          <rect x="86.85" y="131.11" width="3.09" height="0.01"/>
          <rect x="89.89" y="131.11" width="3.09" height="0.01"/>
          <rect x="92.93" y="131.11" width="3.09" height="0.01"/>
          <rect x="95.97" y="131.11" width="3.09" height="0.01"/>
          <rect x="99.01" y="131.11" width="3.09" height="0.01"/>
          <rect x="102.05" y="131.11" width="3.09" height="0.01"/>
          <rect x="105.1" y="131.11" width="3.09" height="0.01"/>
          <rect x="108.14" y="131.11" width="3.09" height="0.01"/>
          <rect x="111.18" y="131.11" width="3.09" height="0.01"/>
          <rect x="114.22" y="131.11" width="3.09" height="0.01"/>
          <rect x="117.26" y="131.11" width="3.09" height="0.01"/>
          <rect x="120.3" y="131.11" width="3.09" height="0.01"/>
          <rect x="123.34" y="131.11" width="3.09" height="0.01"/>
          <rect x="126.39" y="131.11" width="3.09" height="0.01"/>
          <rect x="129.43" y="131.11" width="3.09" height="0.01"/>
          <rect x="132.47" y="131.11" width="3.09" height="0.01"/>
          <rect x="135.51" y="131.11" width="3.09" height="0.01"/>
          <rect x="138.55" y="131.11" width="3.09" height="0.01"/>
          <rect x="141.59" y="131.11" width="3.09" height="0.01"/>
          <rect x="144.63" y="131.11" width="3.09" height="0.01"/>
          <rect x="147.68" y="131.11" width="3.09" height="0.01"/>
          <rect x="150.72" y="131.11" width="3.09" height="0.01"/>
          <rect x="153.76" y="130.41" width="3.09" height="0.71"/>
          <rect x="156.8" y="131.11" width="3.09" height="0.01"/>
          <rect x="159.84" y="131.11" width="3.09" height="0.01"/>
          <rect x="162.88" y="131.11" width="3.09" height="0.01"/>
          <rect x="165.93" y="129.7" width="3.09" height="1.41"/>
          <rect x="168.97" y="95.16" width="3.09" height="35.96"/>
        </g>
      </g>
    </g>
  </g>
</g>
  <g class="guide ylabels" font-size="2.82" font-family="'PT Sans Caption','Helvetica Neue','Helvetica',sans-serif" fill="#000000" id="img-356a73f5-18">
    <text x="16.96" y="131.11" text-anchor="end" dy="0.35em">0</text>
    <text x="16.96" y="124.06" text-anchor="end" dy="0.35em">10</text>
    <text x="16.96" y="117.01" text-anchor="end" dy="0.35em">20</text>
    <text x="16.96" y="109.96" text-anchor="end" dy="0.35em">30</text>
    <text x="16.96" y="102.91" text-anchor="end" dy="0.35em">40</text>
    <text x="16.96" y="95.86" text-anchor="end" dy="0.35em">50</text>
    <text x="16.96" y="88.81" text-anchor="end" dy="0.35em">60</text>
  </g>
  <g font-size="3.88" font-family="'PT Sans','Helvetica Neue','Helvetica',sans-serif" fill="#000000" stroke="#000000" stroke-opacity="0.000" id="img-356a73f5-19">
    <text x="8.81" y="107.96" text-anchor="middle" dy="0.35em" transform="rotate(-90, 8.81, 109.96)">density</text>
  </g>
  <g font-size="3.88" font-family="'PT Sans','Helvetica Neue','Helvetica',sans-serif" fill="#000000" stroke="#000000" stroke-opacity="0.000" id="img-356a73f5-20">
    <text x="96" y="81.2" text-anchor="middle" dy="0.6em">Histogram of population in generation 500</text>
  </g>
</g>
<g class="plotroot xscalable yscalable" id="img-356a73f5-21">
  <g font-size="3.88" font-family="'PT Sans','Helvetica Neue','Helvetica',sans-serif" fill="#000000" stroke="#000000" stroke-opacity="0.000" id="img-356a73f5-22">
    <text x="108.92" y="64.59" text-anchor="middle" dy="0.6em">generation number</text>
  </g>
  <g class="guide xlabels" font-size="2.82" font-family="'PT Sans Caption','Helvetica Neue','Helvetica',sans-serif" fill="#000000" id="img-356a73f5-23">
    <text x="21.63" y="57.91" text-anchor="middle" dy="0.6em">0</text>
    <text x="56.55" y="57.91" text-anchor="middle" dy="0.6em">100</text>
    <text x="91.46" y="57.91" text-anchor="middle" dy="0.6em">200</text>
    <text x="126.37" y="57.91" text-anchor="middle" dy="0.6em">300</text>
    <text x="161.29" y="57.91" text-anchor="middle" dy="0.6em">400</text>
    <text x="196.2" y="57.91" text-anchor="middle" dy="0.6em">500</text>
  </g>
<g clip-path="url(#img-356a73f5-24)">
  <g id="img-356a73f5-25">
    <g pointer-events="visible" opacity="1" fill="#FFFFFF" stroke="#000000" stroke-opacity="0.000" class="guide background" id="img-356a73f5-26">
      <rect x="19.63" y="10.61" width="178.57" height="46.3"/>
    </g>
    <g class="guide ygridlines xfixed" stroke-dasharray="0.5,0.5" stroke-width="0.2" stroke="#808080" id="img-356a73f5-27">
      <path fill="none" d="M19.63,54.91 L 198.2 54.91"/>
      <path fill="none" d="M19.63,33.76 L 198.2 33.76"/>
      <path fill="none" d="M19.63,12.61 L 198.2 12.61"/>
    </g>
    <g class="guide xgridlines yfixed" stroke-dasharray="0.5,0.5" stroke-width="0.2" stroke="#808080" id="img-356a73f5-28">
      <path fill="none" d="M21.63,10.61 L 21.63 56.91"/>
      <path fill="none" d="M56.55,10.61 L 56.55 56.91"/>
      <path fill="none" d="M91.46,10.61 L 91.46 56.91"/>
      <path fill="none" d="M126.37,10.61 L 126.37 56.91"/>
      <path fill="none" d="M161.29,10.61 L 161.29 56.91"/>
      <path fill="none" d="M196.2,10.61 L 196.2 56.91"/>
    </g>
    <g class="plotpanel" id="img-356a73f5-29">
      <g stroke-width="0.3" fill="#000000" fill-opacity="0.000" class="geometry" stroke-dasharray="none" stroke="#3288BD" id="img-356a73f5-30">
        <path fill="none" d="M21.98,33.76 L 22.33 37.15 22.68 40.11 23.03 44.34 23.38 42.65 23.73 43.92 24.08 43.07 24.42 45.19 24.77 43.49 25.12 45.61 25.47 43.07 25.82 43.07 26.17 43.07 26.52 44.34 26.87 47.72 27.22 47.72 27.57 45.19 27.92 46.45 28.27 42.65 28.61 43.92 28.96 44.34 29.31 45.61 29.66 45.61 30.01 43.07 30.36 46.88 30.71 46.88 31.06 48.57 31.41 47.72 31.76 47.3 32.11 45.19 32.45 43.07 32.8 44.34 33.15 46.03 33.5 46.03 33.85 48.15 34.2 45.19 34.55 46.03 34.9 44.76 35.25 44.34 35.6 47.3 35.95 50.26 36.3 50.26 36.64 51.11 36.99 51.53 37.34 52.38 37.69 51.53 38.04 51.95 38.39 52.38 38.74 54.07 39.09 54.91 39.44 54.91 39.79 54.91 40.14 54.91 40.49 54.91 40.83 54.91 41.18 54.91 41.53 54.91 41.88 54.91 42.23 54.91 42.58 54.91 42.93 54.91 43.28 54.91 43.63 54.91 43.98 54.91 44.33 54.91 44.67 54.91 45.02 54.91 45.37 54.91 45.72 54.91 46.07 54.91 46.42 54.91 46.77 54.91 47.12 54.91 47.47 54.91 47.82 54.91 48.17 54.91 48.52 54.91 48.86 54.91 49.21 54.91 49.56 54.91 49.91 54.91 50.26 54.91 50.61 54.91 50.96 54.91 51.31 54.91 51.66 54.91 52.01 54.91 52.36 54.91 52.7 54.91 53.05 54.91 53.4 54.91 53.75 54.91 54.1 54.91 54.45 54.91 54.8 54.91 55.15 54.91 55.5 54.49 55.85 54.07 56.2 54.07 56.55 54.07 56.89 54.07 57.24 53.65 57.59 54.07 57.94 54.07 58.29 54.07 58.64 53.65 58.99 53.22 59.34 54.49 59.69 54.49 60.04 54.91 60.39 54.91 60.73 54.91 61.08 54.91 61.43 54.91 61.78 54.91 62.13 54.91 62.48 54.91 62.83 54.91 63.18 54.91 63.53 54.91 63.88 54.91 64.23 54.91 64.58 54.91 64.92 54.91 65.27 54.91 65.62 54.91 65.97 54.91 66.32 54.91 66.67 54.91 67.02 54.91 67.37 54.91 67.72 54.91 68.07 54.91 68.42 54.91 68.77 54.91 69.11 54.91 69.46 54.91 69.81 54.91 70.16 54.91 70.51 54.91 70.86 54.91 71.21 54.91 71.56 54.91 71.91 54.91 72.26 54.91 72.61 54.91 72.95 54.91 73.3 54.91 73.65 54.91 74 54.91 74.35 54.91 74.7 54.91 75.05 54.91 75.4 54.91 75.75 54.91 76.1 54.91 76.45 54.91 76.8 54.91 77.14 54.91 77.49 54.91 77.84 54.91 78.19 54.91 78.54 54.91 78.89 54.91 79.24 54.91 79.59 54.91 79.94 54.91 80.29 54.91 80.64 54.91 80.98 54.91 81.33 54.91 81.68 54.91 82.03 54.91 82.38 54.91 82.73 54.91 83.08 54.91 83.43 54.91 83.78 54.91 84.13 54.91 84.48 54.91 84.83 54.91 85.17 54.91 85.52 54.91 85.87 54.91 86.22 54.91 86.57 54.91 86.92 54.91 87.27 54.91 87.62 54.91 87.97 54.91 88.32 54.91 88.67 54.91 89.02 54.91 89.36 54.91 89.71 54.91 90.06 54.91 90.41 54.91 90.76 54.91 91.11 54.91 91.46 54.91 91.81 54.91 92.16 54.91 92.51 54.91 92.86 54.91 93.2 54.91 93.55 54.91 93.9 54.91 94.25 54.91 94.6 54.91 94.95 54.91 95.3 54.91 95.65 54.91 96 54.91 96.35 54.91 96.7 54.91 97.05 54.91 97.39 54.91 97.74 54.91 98.09 54.91 98.44 54.91 98.79 54.91 99.14 54.91 99.49 54.91 99.84 54.91 100.19 54.91 100.54 54.91 100.89 54.91 101.23 54.91 101.58 54.91 101.93 54.91 102.28 54.91 102.63 54.91 102.98 54.91 103.33 54.91 103.68 54.91 104.03 54.91 104.38 54.91 104.73 54.91 105.08 54.91 105.42 54.91 105.77 54.91 106.12 54.91 106.47 54.91 106.82 54.91 107.17 54.91 107.52 54.91 107.87 54.91 108.22 54.91 108.57 54.91 108.92 54.91 109.26 54.91 109.61 54.91 109.96 54.91 110.31 54.91 110.66 54.91 111.01 54.91 111.36 54.91 111.71 54.91 112.06 54.91 112.41 54.91 112.76 54.91 113.11 54.91 113.45 54.91 113.8 54.91 114.15 54.91 114.5 54.91 114.85 54.91 115.2 54.91 115.55 54.91 115.9 54.91 116.25 54.91 116.6 54.91 116.95 54.91 117.3 54.91 117.64 54.91 117.99 54.91 118.34 54.91 118.69 54.91 119.04 54.91 119.39 54.91 119.74 54.91 120.09 54.91 120.44 54.91 120.79 54.91 121.14 54.91 121.48 54.91 121.83 54.91 122.18 54.91 122.53 54.91 122.88 54.91 123.23 54.91 123.58 54.91 123.93 54.91 124.28 54.91 124.63 54.91 124.98 54.91 125.33 54.91 125.67 54.91 126.02 54.91 126.37 54.91 126.72 54.91 127.07 54.91 127.42 54.91 127.77 54.91 128.12 54.91 128.47 54.91 128.82 54.91 129.17 54.91 129.51 54.91 129.86 54.91 130.21 54.91 130.56 54.91 130.91 54.91 131.26 54.91 131.61 54.91 131.96 54.91 132.31 54.91 132.66 54.91 133.01 54.91 133.36 54.91 133.7 54.91 134.05 54.91 134.4 54.91 134.75 54.91 135.1 54.91 135.45 54.91 135.8 54.91 136.15 54.91 136.5 54.91 136.85 54.91 137.2 54.91 137.55 54.91 137.89 54.91 138.24 54.91 138.59 54.91 138.94 54.91 139.29 54.91 139.64 54.91 139.99 54.91 140.34 54.91 140.69 54.91 141.04 54.91 141.39 54.91 141.73 54.91 142.08 54.91 142.43 54.91 142.78 54.91 143.13 54.91 143.48 54.91 143.83 54.91 144.18 54.91 144.53 54.91 144.88 54.91 145.23 54.91 145.58 54.91 145.92 54.91 146.27 54.91 146.62 54.91 146.97 54.91 147.32 54.91 147.67 54.91 148.02 54.91 148.37 54.91 148.72 54.91 149.07 54.91 149.42 54.91 149.76 54.91 150.11 54.07 150.46 54.49 150.81 54.91 151.16 54.91 151.51 54.91 151.86 54.91 152.21 54.91 152.56 54.91 152.91 54.91 153.26 54.91 153.61 54.91 153.95 54.91 154.3 54.91 154.65 54.91 155 54.91 155.35 54.91 155.7 54.91 156.05 54.91 156.4 54.91 156.75 54.91 157.1 54.91 157.45 54.91 157.79 54.91 158.14 54.91 158.49 54.91 158.84 54.91 159.19 54.91 159.54 54.91 159.89 54.91 160.24 54.91 160.59 54.91 160.94 54.91 161.29 54.91 161.64 54.91 161.98 54.91 162.33 54.91 162.68 54.91 163.03 54.91 163.38 54.91 163.73 54.91 164.08 54.91 164.43 54.91 164.78 54.91 165.13 54.91 165.48 54.91 165.83 54.91 166.17 54.91 166.52 54.91 166.87 54.91 167.22 54.91 167.57 54.91 167.92 54.91 168.27 54.91 168.62 54.91 168.97 54.91 169.32 54.91 169.67 54.91 170.01 54.91 170.36 54.91 170.71 54.91 171.06 54.91 171.41 54.91 171.76 54.91 172.11 54.91 172.46 54.91 172.81 54.91 173.16 54.91 173.51 54.91 173.86 54.91 174.2 54.91 174.55 54.91 174.9 54.91 175.25 54.91 175.6 54.91 175.95 54.91 176.3 54.91 176.65 54.91 177 54.91 177.35 54.91 177.7 54.91 178.04 54.91 178.39 54.91 178.74 54.91 179.09 54.91 179.44 54.91 179.79 54.91 180.14 54.91 180.49 54.91 180.84 54.91 181.19 54.91 181.54 54.91 181.89 54.91 182.23 54.91 182.58 54.91 182.93 54.91 183.28 54.91 183.63 54.91 183.98 54.91 184.33 54.91 184.68 54.91 185.03 54.91 185.38 54.91 185.73 54.91 186.08 54.91 186.42 54.91 186.77 54.91 187.12 54.91 187.47 54.91 187.82 54.91 188.17 54.91 188.52 54.91 188.87 54.91 189.22 54.91 189.57 54.91 189.92 54.91 190.26 54.91 190.61 54.91 190.96 54.91 191.31 54.91 191.66 54.91 192.01 54.91 192.36 54.91 192.71 54.91 193.06 54.91 193.41 54.91 193.76 54.91 194.11 54.91 194.45 54.91 194.8 54.91 195.15 54.91 195.5 54.91 195.85 54.91 196.2 54.91"/>
      </g>
      <g stroke-width="0.3" fill="#000000" fill-opacity="0.000" class="geometry" stroke-dasharray="none" stroke="#66C2A5" id="img-356a73f5-31">
        <path fill="none" d="M21.98,33.76 L 22.33 36.72 22.68 34.61 23.03 37.99 23.38 36.72 23.73 38.42 24.08 39.69 24.42 41.8 24.77 40.11 25.12 43.49 25.47 42.22 25.82 39.26 26.17 41.38 26.52 40.11 26.87 37.15 27.22 37.57 27.57 36.72 27.92 35.88 28.27 34.19 28.61 34.19 28.96 33.34 29.31 36.3 29.66 35.88 30.01 33.76 30.36 34.61 30.71 34.61 31.06 33.34 31.41 34.19 31.76 34.19 32.11 33.34 32.45 35.46 32.8 35.88 33.15 37.99 33.5 35.46 33.85 35.88 34.2 40.11 34.55 39.69 34.9 40.95 35.25 42.22 35.6 42.22 35.95 41.8 36.3 44.34 36.64 44.76 36.99 44.76 37.34 46.45 37.69 47.3 38.04 47.72 38.39 45.19 38.74 41.8 39.09 43.07 39.44 40.95 39.79 39.69 40.14 39.69 40.49 39.26 40.83 40.53 41.18 36.72 41.53 37.99 41.88 37.57 42.23 36.3 42.58 31.65 42.93 35.46 43.28 36.72 43.63 36.72 43.98 35.46 44.33 34.19 44.67 35.88 45.02 32.07 45.37 33.34 45.72 31.23 46.07 32.92 46.42 35.46 46.77 35.88 47.12 35.88 47.47 35.03 47.82 33.34 48.17 35.46 48.52 35.46 48.86 35.46 49.21 33.76 49.56 34.19 49.91 32.07 50.26 30.38 50.61 26.99 50.96 27.84 51.31 27.42 51.66 30.8 52.01 31.65 52.36 31.23 52.7 34.61 53.05 37.57 53.4 40.11 53.75 37.57 54.1 38.84 54.45 38.84 54.8 38.84 55.15 38.84 55.5 35.03 55.85 36.3 56.2 38.84 56.55 37.15 56.89 38.84 57.24 41.38 57.59 40.11 57.94 45.61 58.29 48.57 58.64 48.57 58.99 47.3 59.34 47.3 59.69 46.45 60.04 44.76 60.39 43.92 60.73 45.61 61.08 43.07 61.43 44.76 61.78 41.8 62.13 42.65 62.48 44.34 62.83 39.69 63.18 41.38 63.53 43.07 63.88 43.49 64.23 44.34 64.58 44.76 64.92 44.76 65.27 45.61 65.62 43.07 65.97 43.92 66.32 43.49 66.67 43.92 67.02 46.45 67.37 42.65 67.72 46.03 68.07 47.3 68.42 47.3 68.77 46.88 69.11 46.45 69.46 48.99 69.81 46.88 70.16 46.88 70.51 49.42 70.86 49.42 71.21 50.26 71.56 49.84 71.91 48.57 72.26 50.68 72.61 49.42 72.95 50.26 73.3 52.38 73.65 53.22 74 51.53 74.35 51.53 74.7 51.11 75.05 50.26 75.4 50.68 75.75 48.99 76.1 46.88 76.45 46.03 76.8 40.53 77.14 42.22 77.49 40.95 77.84 40.11 78.19 36.72 78.54 37.57 78.89 38.42 79.24 41.38 79.59 39.69 79.94 40.53 80.29 41.8 80.64 42.22 80.98 44.76 81.33 48.57 81.68 50.68 82.03 49.84 82.38 49.84 82.73 49.84 83.08 49.84 83.43 49.84 83.78 46.03 84.13 45.19 84.48 44.34 84.83 45.61 85.17 47.3 85.52 43.92 85.87 45.61 86.22 44.76 86.57 43.49 86.92 43.92 87.27 40.53 87.62 37.57 87.97 35.46 88.32 34.19 88.67 31.65 89.02 30.38 89.36 28.69 89.71 30.8 90.06 33.76 90.41 33.34 90.76 37.15 91.11 37.15 91.46 37.15 91.81 39.26 92.16 37.57 92.51 38.84 92.86 36.72 93.2 38.84 93.55 37.15 93.9 39.69 94.25 42.22 94.6 42.22 94.95 44.76 95.3 43.92 95.65 43.49 96 42.22 96.35 40.53 96.7 41.38 97.05 42.65 97.39 39.69 97.74 37.15 98.09 33.34 98.44 35.46 98.79 35.46 99.14 36.3 99.49 33.34 99.84 34.61 100.19 35.03 100.54 35.03 100.89 35.46 101.23 33.76 101.58 36.72 101.93 37.57 102.28 36.72 102.63 37.57 102.98 35.46 103.33 33.34 103.68 33.34 104.03 36.72 104.38 37.99 104.73 39.69 105.08 43.49 105.42 45.19 105.77 45.61 106.12 42.65 106.47 43.92 106.82 44.76 107.17 46.45 107.52 43.92 107.87 47.3 108.22 43.92 108.57 43.49 108.92 44.34 109.26 43.92 109.61 41.38 109.96 43.07 110.31 45.19 110.66 45.61 111.01 46.45 111.36 44.34 111.71 43.92 112.06 45.19 112.41 46.03 112.76 48.15 113.11 49.84 113.45 48.57 113.8 50.68 114.15 50.68 114.5 51.53 114.85 51.11 115.2 51.11 115.55 51.53 115.9 51.53 116.25 51.95 116.6 51.95 116.95 51.11 117.3 52.38 117.64 51.95 117.99 52.38 118.34 51.53 118.69 51.53 119.04 52.38 119.39 52.8 119.74 53.65 120.09 54.07 120.44 53.22 120.79 52.8 121.14 52.8 121.48 51.53 121.83 51.53 122.18 52.38 122.53 53.65 122.88 54.07 123.23 54.07 123.58 54.07 123.93 54.49 124.28 54.91 124.63 54.91 124.98 54.91 125.33 54.91 125.67 54.91 126.02 54.91 126.37 54.91 126.72 54.91 127.07 54.91 127.42 54.91 127.77 54.91 128.12 54.91 128.47 54.91 128.82 54.91 129.17 54.91 129.51 54.91 129.86 54.91 130.21 54.91 130.56 54.91 130.91 54.91 131.26 54.91 131.61 54.91 131.96 54.91 132.31 54.91 132.66 54.91 133.01 54.91 133.36 54.91 133.7 54.91 134.05 54.91 134.4 54.91 134.75 54.91 135.1 54.91 135.45 54.91 135.8 54.91 136.15 54.91 136.5 54.91 136.85 54.91 137.2 54.91 137.55 54.91 137.89 54.91 138.24 54.91 138.59 54.91 138.94 54.91 139.29 54.91 139.64 54.91 139.99 54.91 140.34 54.91 140.69 54.91 141.04 54.91 141.39 54.91 141.73 54.91 142.08 54.91 142.43 54.91 142.78 54.91 143.13 54.91 143.48 54.91 143.83 54.91 144.18 54.91 144.53 54.91 144.88 54.91 145.23 54.91 145.58 54.91 145.92 54.91 146.27 54.91 146.62 54.91 146.97 54.91 147.32 54.91 147.67 54.91 148.02 54.91 148.37 54.91 148.72 54.91 149.07 54.91 149.42 54.91 149.76 54.91 150.11 54.91 150.46 54.91 150.81 54.91 151.16 54.91 151.51 54.91 151.86 54.91 152.21 54.91 152.56 54.91 152.91 54.91 153.26 54.91 153.61 54.91 153.95 54.91 154.3 54.91 154.65 54.91 155 54.91 155.35 54.91 155.7 54.91 156.05 54.91 156.4 54.91 156.75 54.91 157.1 54.91 157.45 54.91 157.79 54.91 158.14 54.91 158.49 54.91 158.84 54.91 159.19 54.91 159.54 54.91 159.89 54.91 160.24 54.91 160.59 54.91 160.94 54.91 161.29 54.91 161.64 54.91 161.98 54.91 162.33 54.91 162.68 54.91 163.03 54.91 163.38 54.91 163.73 54.91 164.08 54.91 164.43 54.91 164.78 54.91 165.13 54.91 165.48 54.91 165.83 54.91 166.17 54.91 166.52 54.91 166.87 54.91 167.22 54.91 167.57 54.91 167.92 54.91 168.27 54.91 168.62 54.91 168.97 54.91 169.32 54.91 169.67 54.91 170.01 54.91 170.36 54.91 170.71 54.91 171.06 54.91 171.41 54.91 171.76 54.91 172.11 54.91 172.46 54.91 172.81 54.91 173.16 54.91 173.51 54.91 173.86 54.91 174.2 54.91 174.55 54.91 174.9 54.91 175.25 54.91 175.6 54.91 175.95 54.91 176.3 54.91 176.65 54.91 177 54.91 177.35 54.91 177.7 54.91 178.04 54.91 178.39 54.91 178.74 54.91 179.09 54.91 179.44 54.91 179.79 54.91 180.14 54.91 180.49 54.91 180.84 54.91 181.19 54.91 181.54 54.91 181.89 54.91 182.23 54.91 182.58 54.91 182.93 54.91 183.28 54.91 183.63 54.91 183.98 54.91 184.33 54.91 184.68 54.91 185.03 54.91 185.38 54.91 185.73 54.91 186.08 54.91 186.42 54.91 186.77 54.91 187.12 54.91 187.47 54.91 187.82 54.91 188.17 54.91 188.52 54.91 188.87 54.91 189.22 54.91 189.57 54.91 189.92 54.91 190.26 54.91 190.61 54.91 190.96 54.91 191.31 54.91 191.66 54.91 192.01 54.91 192.36 54.91 192.71 54.91 193.06 54.91 193.41 54.91 193.76 54.91 194.11 54.91 194.45 54.91 194.8 54.91 195.15 54.91 195.5 54.91 195.85 54.91 196.2 54.91"/>
      </g>
      <g stroke-width="0.3" fill="#000000" fill-opacity="0.000" class="geometry" stroke-dasharray="none" stroke="#ABDDA4" id="img-356a73f5-32">
        <path fill="none" d="M21.98,33.76 L 22.33 35.46 22.68 34.61 23.03 33.76 23.38 34.19 23.73 34.61 24.08 33.76 24.42 33.34 24.77 32.49 25.12 31.65 25.47 31.65 25.82 29.96 26.17 27.84 26.52 30.38 26.87 28.26 27.22 26.15 27.57 26.99 27.92 27.84 28.27 26.57 28.61 27.84 28.96 29.53 29.31 28.26 29.66 30.38 30.01 28.26 30.36 30.8 30.71 32.07 31.06 36.3 31.41 33.76 31.76 33.34 32.11 31.65 32.45 30.8 32.8 32.49 33.15 32.49 33.5 29.11 33.85 29.96 34.2 26.57 34.55 28.69 34.9 28.69 35.25 26.99 35.6 27.42 35.95 30.38 36.3 32.92 36.64 34.19 36.99 35.46 37.34 35.88 37.69 36.72 38.04 40.95 38.39 38.84 38.74 39.69 39.09 37.99 39.44 37.99 39.79 36.3 40.14 36.72 40.49 35.03 40.83 33.76 41.18 32.07 41.53 26.99 41.88 25.73 42.23 28.69 42.58 26.57 42.93 26.57 43.28 29.53 43.63 28.26 43.98 27.84 44.33 29.53 44.67 32.07 45.02 34.19 45.37 34.19 45.72 32.49 46.07 30.8 46.42 31.23 46.77 26.15 47.12 31.65 47.47 30.8 47.82 26.15 48.17 25.3 48.52 24.03 48.86 27.84 49.21 28.26 49.56 33.34 49.91 32.07 50.26 32.07 50.61 33.34 50.96 32.07 51.31 32.92 51.66 33.76 52.01 34.19 52.36 32.49 52.7 31.23 53.05 29.96 53.4 29.53 53.75 28.26 54.1 24.88 54.45 25.3 54.8 27.84 55.15 27.84 55.5 27.42 55.85 28.26 56.2 27.84 56.55 24.03 56.89 24.88 57.24 25.73 57.59 24.88 57.94 21.5 58.29 21.5 58.64 19.8 58.99 19.38 59.34 19.38 59.69 18.53 60.04 18.96 60.39 20.23 60.73 21.5 61.08 19.8 61.43 18.11 61.78 16.84 62.13 16.42 62.48 17.69 62.83 16.84 63.18 17.27 63.53 17.27 63.88 15.57 64.23 15.57 64.58 16.42 64.92 14.73 65.27 13.46 65.62 13.03 65.97 13.03 66.32 13.03 66.67 12.61 67.02 12.61 67.37 12.61 67.72 12.61 68.07 12.61 68.42 12.61 68.77 12.61 69.11 12.61 69.46 12.61 69.81 12.61 70.16 12.61 70.51 12.61 70.86 12.61 71.21 12.61 71.56 12.61 71.91 12.61 72.26 12.61 72.61 12.61 72.95 12.61 73.3 12.61 73.65 12.61 74 12.61 74.35 12.61 74.7 12.61 75.05 12.61 75.4 12.61 75.75 12.61 76.1 12.61 76.45 12.61 76.8 12.61 77.14 12.61 77.49 12.61 77.84 12.61 78.19 12.61 78.54 12.61 78.89 12.61 79.24 12.61 79.59 12.61 79.94 12.61 80.29 12.61 80.64 12.61 80.98 12.61 81.33 12.61 81.68 12.61 82.03 12.61 82.38 12.61 82.73 12.61 83.08 12.61 83.43 12.61 83.78 12.61 84.13 12.61 84.48 12.61 84.83 12.61 85.17 12.61 85.52 12.61 85.87 12.61 86.22 12.61 86.57 12.61 86.92 12.61 87.27 12.61 87.62 12.61 87.97 12.61 88.32 12.61 88.67 12.61 89.02 12.61 89.36 12.61 89.71 12.61 90.06 12.61 90.41 12.61 90.76 12.61 91.11 12.61 91.46 12.61 91.81 12.61 92.16 12.61 92.51 12.61 92.86 12.61 93.2 12.61 93.55 12.61 93.9 12.61 94.25 12.61 94.6 12.61 94.95 12.61 95.3 13.03 95.65 12.61 96 12.61 96.35 12.61 96.7 12.61 97.05 12.61 97.39 12.61 97.74 12.61 98.09 12.61 98.44 12.61 98.79 12.61 99.14 12.61 99.49 12.61 99.84 12.61 100.19 12.61 100.54 12.61 100.89 12.61 101.23 12.61 101.58 12.61 101.93 12.61 102.28 12.61 102.63 12.61 102.98 12.61 103.33 12.61 103.68 12.61 104.03 12.61 104.38 12.61 104.73 12.61 105.08 12.61 105.42 12.61 105.77 12.61 106.12 12.61 106.47 12.61 106.82 12.61 107.17 12.61 107.52 12.61 107.87 12.61 108.22 12.61 108.57 12.61 108.92 12.61 109.26 12.61 109.61 12.61 109.96 12.61 110.31 12.61 110.66 12.61 111.01 12.61 111.36 12.61 111.71 12.61 112.06 12.61 112.41 12.61 112.76 12.61 113.11 12.61 113.45 12.61 113.8 12.61 114.15 12.61 114.5 12.61 114.85 12.61 115.2 12.61 115.55 12.61 115.9 12.61 116.25 12.61 116.6 12.61 116.95 12.61 117.3 12.61 117.64 12.61 117.99 12.61 118.34 12.61 118.69 12.61 119.04 12.61 119.39 12.61 119.74 12.61 120.09 12.61 120.44 12.61 120.79 12.61 121.14 12.61 121.48 12.61 121.83 12.61 122.18 12.61 122.53 12.61 122.88 12.61 123.23 12.61 123.58 12.61 123.93 12.61 124.28 12.61 124.63 12.61 124.98 12.61 125.33 12.61 125.67 12.61 126.02 12.61 126.37 12.61 126.72 12.61 127.07 12.61 127.42 12.61 127.77 12.61 128.12 12.61 128.47 12.61 128.82 12.61 129.17 12.61 129.51 12.61 129.86 12.61 130.21 12.61 130.56 12.61 130.91 12.61 131.26 12.61 131.61 12.61 131.96 12.61 132.31 12.61 132.66 12.61 133.01 12.61 133.36 12.61 133.7 12.61 134.05 12.61 134.4 12.61 134.75 12.61 135.1 12.61 135.45 12.61 135.8 12.61 136.15 12.61 136.5 12.61 136.85 12.61 137.2 12.61 137.55 12.61 137.89 12.61 138.24 12.61 138.59 12.61 138.94 12.61 139.29 12.61 139.64 12.61 139.99 12.61 140.34 12.61 140.69 12.61 141.04 12.61 141.39 12.61 141.73 12.61 142.08 12.61 142.43 12.61 142.78 12.61 143.13 12.61 143.48 12.61 143.83 12.61 144.18 12.61 144.53 12.61 144.88 12.61 145.23 12.61 145.58 12.61 145.92 12.61 146.27 12.61 146.62 12.61 146.97 12.61 147.32 12.61 147.67 12.61 148.02 12.61 148.37 12.61 148.72 12.61 149.07 12.61 149.42 12.61 149.76 12.61 150.11 12.61 150.46 12.61 150.81 12.61 151.16 12.61 151.51 12.61 151.86 12.61 152.21 12.61 152.56 12.61 152.91 12.61 153.26 12.61 153.61 12.61 153.95 12.61 154.3 12.61 154.65 12.61 155 12.61 155.35 12.61 155.7 12.61 156.05 12.61 156.4 12.61 156.75 12.61 157.1 12.61 157.45 12.61 157.79 12.61 158.14 12.61 158.49 12.61 158.84 12.61 159.19 12.61 159.54 12.61 159.89 12.61 160.24 12.61 160.59 12.61 160.94 12.61 161.29 12.61 161.64 12.61 161.98 12.61 162.33 12.61 162.68 12.61 163.03 12.61 163.38 12.61 163.73 13.46 164.08 15.15 164.43 16 164.78 16.42 165.13 16.42 165.48 16.42 165.83 17.27 166.17 15.57 166.52 14.3 166.87 14.3 167.22 14.73 167.57 14.3 167.92 15.15 168.27 14.3 168.62 14.73 168.97 13.88 169.32 13.88 169.67 13.46 170.01 13.46 170.36 12.61 170.71 12.61 171.06 12.61 171.41 12.61 171.76 12.61 172.11 12.61 172.46 12.61 172.81 12.61 173.16 12.61 173.51 12.61 173.86 12.61 174.2 12.61 174.55 12.61 174.9 12.61 175.25 12.61 175.6 12.61 175.95 12.61 176.3 12.61 176.65 12.61 177 12.61 177.35 12.61 177.7 12.61 178.04 12.61 178.39 12.61 178.74 12.61 179.09 12.61 179.44 12.61 179.79 12.61 180.14 12.61 180.49 12.61 180.84 12.61 181.19 12.61 181.54 12.61 181.89 12.61 182.23 12.61 182.58 12.61 182.93 12.61 183.28 12.61 183.63 12.61 183.98 12.61 184.33 12.61 184.68 12.61 185.03 12.61 185.38 12.61 185.73 12.61 186.08 12.61 186.42 12.61 186.77 12.61 187.12 12.61 187.47 12.61 187.82 12.61 188.17 12.61 188.52 12.61 188.87 12.61 189.22 12.61 189.57 12.61 189.92 12.61 190.26 12.61 190.61 12.61 190.96 12.61 191.31 12.61 191.66 12.61 192.01 12.61 192.36 12.61 192.71 12.61 193.06 12.61 193.41 12.61 193.76 12.61 194.11 12.61 194.45 12.61 194.8 12.61 195.15 12.61 195.5 12.61 195.85 12.61 196.2 12.61"/>
      </g>
      <g stroke-width="0.3" fill="#000000" fill-opacity="0.000" class="geometry" stroke-dasharray="none" stroke="#E6F598" id="img-356a73f5-33">
        <path fill="none" d="M21.98,33.76 L 22.33 32.07 22.68 30.8 23.03 28.69 23.38 28.69 23.73 29.11 24.08 29.96 24.42 35.46 24.77 36.72 25.12 37.99 25.47 35.88 25.82 31.65 26.17 30.38 26.52 28.26 26.87 28.26 27.22 33.76 27.57 34.19 27.92 30.8 28.27 28.26 28.61 29.53 28.96 29.11 29.31 30.38 29.66 28.26 30.01 26.15 30.36 24.88 30.71 26.57 31.06 25.3 31.41 18.11 31.76 16.84 32.11 17.27 32.45 14.73 32.8 13.88 33.15 14.73 33.5 16 33.85 16.84 34.2 17.27 34.55 17.27 34.9 17.69 35.25 17.27 35.6 18.11 35.95 15.15 36.3 13.46 36.64 13.03 36.99 13.46 37.34 13.03 37.69 12.61 38.04 12.61 38.39 12.61 38.74 12.61 39.09 12.61 39.44 12.61 39.79 12.61 40.14 12.61 40.49 12.61 40.83 12.61 41.18 12.61 41.53 12.61 41.88 12.61 42.23 12.61 42.58 12.61 42.93 12.61 43.28 12.61 43.63 12.61 43.98 12.61 44.33 12.61 44.67 12.61 45.02 12.61 45.37 12.61 45.72 12.61 46.07 12.61 46.42 12.61 46.77 12.61 47.12 12.61 47.47 12.61 47.82 12.61 48.17 12.61 48.52 12.61 48.86 12.61 49.21 12.61 49.56 12.61 49.91 12.61 50.26 12.61 50.61 12.61 50.96 12.61 51.31 12.61 51.66 12.61 52.01 12.61 52.36 12.61 52.7 12.61 53.05 12.61 53.4 12.61 53.75 12.61 54.1 12.61 54.45 12.61 54.8 12.61 55.15 12.61 55.5 12.61 55.85 12.61 56.2 12.61 56.55 12.61 56.89 12.61 57.24 12.61 57.59 12.61 57.94 12.61 58.29 12.61 58.64 12.61 58.99 12.61 59.34 12.61 59.69 12.61 60.04 12.61 60.39 12.61 60.73 12.61 61.08 12.61 61.43 12.61 61.78 12.61 62.13 12.61 62.48 12.61 62.83 12.61 63.18 12.61 63.53 12.61 63.88 12.61 64.23 12.61 64.58 12.61 64.92 12.61 65.27 12.61 65.62 12.61 65.97 12.61 66.32 12.61 66.67 12.61 67.02 12.61 67.37 12.61 67.72 12.61 68.07 12.61 68.42 12.61 68.77 12.61 69.11 12.61 69.46 12.61 69.81 12.61 70.16 12.61 70.51 12.61 70.86 12.61 71.21 12.61 71.56 12.61 71.91 12.61 72.26 12.61 72.61 12.61 72.95 12.61 73.3 12.61 73.65 12.61 74 12.61 74.35 12.61 74.7 12.61 75.05 12.61 75.4 12.61 75.75 12.61 76.1 12.61 76.45 12.61 76.8 12.61 77.14 12.61 77.49 12.61 77.84 12.61 78.19 12.61 78.54 12.61 78.89 12.61 79.24 12.61 79.59 12.61 79.94 12.61 80.29 12.61 80.64 12.61 80.98 12.61 81.33 12.61 81.68 12.61 82.03 12.61 82.38 12.61 82.73 12.61 83.08 12.61 83.43 12.61 83.78 12.61 84.13 12.61 84.48 12.61 84.83 12.61 85.17 13.03 85.52 13.03 85.87 12.61 86.22 12.61 86.57 12.61 86.92 12.61 87.27 12.61 87.62 12.61 87.97 12.61 88.32 12.61 88.67 12.61 89.02 12.61 89.36 12.61 89.71 12.61 90.06 12.61 90.41 12.61 90.76 12.61 91.11 12.61 91.46 12.61 91.81 12.61 92.16 12.61 92.51 12.61 92.86 12.61 93.2 12.61 93.55 12.61 93.9 12.61 94.25 12.61 94.6 12.61 94.95 12.61 95.3 12.61 95.65 12.61 96 12.61 96.35 12.61 96.7 12.61 97.05 12.61 97.39 12.61 97.74 12.61 98.09 12.61 98.44 12.61 98.79 12.61 99.14 12.61 99.49 12.61 99.84 12.61 100.19 12.61 100.54 12.61 100.89 12.61 101.23 12.61 101.58 12.61 101.93 12.61 102.28 12.61 102.63 12.61 102.98 12.61 103.33 12.61 103.68 12.61 104.03 12.61 104.38 12.61 104.73 12.61 105.08 12.61 105.42 12.61 105.77 12.61 106.12 12.61 106.47 12.61 106.82 12.61 107.17 12.61 107.52 12.61 107.87 12.61 108.22 12.61 108.57 12.61 108.92 12.61 109.26 12.61 109.61 12.61 109.96 12.61 110.31 12.61 110.66 12.61 111.01 12.61 111.36 12.61 111.71 12.61 112.06 12.61 112.41 12.61 112.76 12.61 113.11 12.61 113.45 12.61 113.8 12.61 114.15 12.61 114.5 12.61 114.85 12.61 115.2 12.61 115.55 12.61 115.9 12.61 116.25 12.61 116.6 12.61 116.95 12.61 117.3 12.61 117.64 12.61 117.99 12.61 118.34 12.61 118.69 12.61 119.04 12.61 119.39 12.61 119.74 12.61 120.09 12.61 120.44 12.61 120.79 12.61 121.14 12.61 121.48 12.61 121.83 12.61 122.18 12.61 122.53 12.61 122.88 12.61 123.23 12.61 123.58 12.61 123.93 12.61 124.28 12.61 124.63 12.61 124.98 12.61 125.33 12.61 125.67 12.61 126.02 12.61 126.37 12.61 126.72 12.61 127.07 12.61 127.42 12.61 127.77 12.61 128.12 12.61 128.47 12.61 128.82 13.03 129.17 13.03 129.51 13.03 129.86 12.61 130.21 12.61 130.56 12.61 130.91 12.61 131.26 12.61 131.61 12.61 131.96 12.61 132.31 12.61 132.66 12.61 133.01 12.61 133.36 12.61 133.7 12.61 134.05 12.61 134.4 12.61 134.75 12.61 135.1 13.46 135.45 13.03 135.8 12.61 136.15 12.61 136.5 12.61 136.85 12.61 137.2 12.61 137.55 12.61 137.89 12.61 138.24 12.61 138.59 12.61 138.94 12.61 139.29 12.61 139.64 12.61 139.99 12.61 140.34 12.61 140.69 12.61 141.04 12.61 141.39 12.61 141.73 12.61 142.08 12.61 142.43 12.61 142.78 12.61 143.13 12.61 143.48 12.61 143.83 12.61 144.18 12.61 144.53 12.61 144.88 12.61 145.23 12.61 145.58 12.61 145.92 12.61 146.27 12.61 146.62 12.61 146.97 12.61 147.32 12.61 147.67 12.61 148.02 12.61 148.37 12.61 148.72 12.61 149.07 12.61 149.42 12.61 149.76 12.61 150.11 12.61 150.46 12.61 150.81 12.61 151.16 12.61 151.51 12.61 151.86 12.61 152.21 12.61 152.56 12.61 152.91 12.61 153.26 12.61 153.61 12.61 153.95 12.61 154.3 12.61 154.65 12.61 155 12.61 155.35 12.61 155.7 12.61 156.05 12.61 156.4 12.61 156.75 12.61 157.1 12.61 157.45 12.61 157.79 12.61 158.14 12.61 158.49 12.61 158.84 12.61 159.19 12.61 159.54 12.61 159.89 12.61 160.24 12.61 160.59 12.61 160.94 12.61 161.29 12.61 161.64 12.61 161.98 12.61 162.33 12.61 162.68 12.61 163.03 12.61 163.38 12.61 163.73 12.61 164.08 12.61 164.43 12.61 164.78 12.61 165.13 12.61 165.48 12.61 165.83 12.61 166.17 12.61 166.52 12.61 166.87 12.61 167.22 12.61 167.57 12.61 167.92 12.61 168.27 12.61 168.62 12.61 168.97 12.61 169.32 12.61 169.67 13.46 170.01 13.03 170.36 13.03 170.71 12.61 171.06 12.61 171.41 12.61 171.76 12.61 172.11 12.61 172.46 12.61 172.81 12.61 173.16 12.61 173.51 12.61 173.86 12.61 174.2 12.61 174.55 12.61 174.9 12.61 175.25 12.61 175.6 12.61 175.95 12.61 176.3 12.61 176.65 12.61 177 12.61 177.35 12.61 177.7 12.61 178.04 12.61 178.39 12.61 178.74 12.61 179.09 12.61 179.44 12.61 179.79 12.61 180.14 12.61 180.49 12.61 180.84 12.61 181.19 12.61 181.54 12.61 181.89 12.61 182.23 12.61 182.58 12.61 182.93 12.61 183.28 12.61 183.63 12.61 183.98 12.61 184.33 12.61 184.68 12.61 185.03 12.61 185.38 12.61 185.73 12.61 186.08 12.61 186.42 12.61 186.77 12.61 187.12 12.61 187.47 12.61 187.82 12.61 188.17 12.61 188.52 12.61 188.87 12.61 189.22 12.61 189.57 12.61 189.92 12.61 190.26 12.61 190.61 12.61 190.96 12.61 191.31 12.61 191.66 12.61 192.01 12.61 192.36 12.61 192.71 12.61 193.06 12.61 193.41 12.61 193.76 12.61 194.11 12.61 194.45 12.61 194.8 12.61 195.15 12.61 195.5 12.61 195.85 12.61 196.2 12.61"/>
      </g>
      <g stroke-width="0.3" fill="#000000" fill-opacity="0.000" class="geometry" stroke-dasharray="none" stroke="#FFFFBF" id="img-356a73f5-34">
        <path fill="none" d="M21.98,33.76 L 22.33 35.03 22.68 35.03 23.03 29.96 23.38 29.96 23.73 29.53 24.08 25.73 24.42 24.88 24.77 26.15 25.12 24.88 25.47 26.15 25.82 24.03 26.17 23.61 26.52 26.15 26.87 23.19 27.22 20.23 27.57 18.53 27.92 19.8 28.27 20.23 28.61 23.19 28.96 22.34 29.31 21.5 29.66 23.19 30.01 24.46 30.36 21.5 30.71 22.76 31.06 23.19 31.41 24.03 31.76 19.38 32.11 21.92 32.45 21.07 32.8 24.03 33.15 25.3 33.5 25.73 33.85 25.3 34.2 24.88 34.55 27.42 34.9 27.84 35.25 23.61 35.6 21.92 35.95 20.23 36.3 21.07 36.64 20.65 36.99 21.5 37.34 22.34 37.69 21.07 38.04 21.5 38.39 24.03 38.74 26.15 39.09 26.99 39.44 29.11 39.79 29.11 40.14 24.88 40.49 22.34 40.83 17.27 41.18 17.69 41.53 15.15 41.88 14.73 42.23 14.73 42.58 14.73 42.93 14.3 43.28 15.57 43.63 16.84 43.98 16.84 44.33 17.27 44.67 17.27 45.02 16.84 45.37 17.27 45.72 18.53 46.07 16 46.42 16.84 46.77 17.27 47.12 17.27 47.47 18.96 47.82 17.27 48.17 16.42 48.52 17.27 48.86 14.73 49.21 13.88 49.56 14.3 49.91 16 50.26 16.84 50.61 17.69 50.96 17.69 51.31 18.11 51.66 18.11 52.01 20.65 52.36 18.53 52.7 18.53 53.05 17.69 53.4 17.69 53.75 18.11 54.1 16.84 54.45 19.38 54.8 21.92 55.15 22.34 55.5 23.61 55.85 19.8 56.2 19.38 56.55 18.11 56.89 18.96 57.24 18.53 57.59 21.5 57.94 21.07 58.29 23.19 58.64 22.34 58.99 22.34 59.34 22.76 59.69 24.03 60.04 24.46 60.39 26.15 60.73 24.46 61.08 23.19 61.43 20.65 61.78 19.38 62.13 20.23 62.48 20.23 62.83 19.8 63.18 20.23 63.53 18.53 63.88 18.53 64.23 18.11 64.58 17.69 64.92 18.11 65.27 15.57 65.62 16.42 65.97 14.73 66.32 14.3 66.67 13.03 67.02 12.61 67.37 12.61 67.72 12.61 68.07 12.61 68.42 12.61 68.77 12.61 69.11 12.61 69.46 12.61 69.81 12.61 70.16 12.61 70.51 12.61 70.86 12.61 71.21 12.61 71.56 12.61 71.91 12.61 72.26 12.61 72.61 12.61 72.95 12.61 73.3 12.61 73.65 12.61 74 12.61 74.35 12.61 74.7 12.61 75.05 12.61 75.4 12.61 75.75 12.61 76.1 12.61 76.45 12.61 76.8 12.61 77.14 12.61 77.49 12.61 77.84 12.61 78.19 12.61 78.54 12.61 78.89 12.61 79.24 12.61 79.59 12.61 79.94 12.61 80.29 12.61 80.64 12.61 80.98 12.61 81.33 12.61 81.68 12.61 82.03 12.61 82.38 12.61 82.73 12.61 83.08 12.61 83.43 12.61 83.78 12.61 84.13 12.61 84.48 12.61 84.83 12.61 85.17 12.61 85.52 12.61 85.87 12.61 86.22 12.61 86.57 12.61 86.92 12.61 87.27 12.61 87.62 12.61 87.97 12.61 88.32 13.88 88.67 13.88 89.02 13.46 89.36 13.46 89.71 13.88 90.06 13.88 90.41 13.46 90.76 12.61 91.11 12.61 91.46 12.61 91.81 12.61 92.16 12.61 92.51 12.61 92.86 12.61 93.2 12.61 93.55 12.61 93.9 12.61 94.25 12.61 94.6 12.61 94.95 12.61 95.3 12.61 95.65 12.61 96 12.61 96.35 12.61 96.7 12.61 97.05 12.61 97.39 12.61 97.74 12.61 98.09 12.61 98.44 12.61 98.79 12.61 99.14 12.61 99.49 12.61 99.84 12.61 100.19 12.61 100.54 12.61 100.89 12.61 101.23 12.61 101.58 12.61 101.93 12.61 102.28 12.61 102.63 12.61 102.98 12.61 103.33 12.61 103.68 12.61 104.03 12.61 104.38 12.61 104.73 12.61 105.08 12.61 105.42 12.61 105.77 12.61 106.12 12.61 106.47 12.61 106.82 12.61 107.17 12.61 107.52 12.61 107.87 12.61 108.22 12.61 108.57 12.61 108.92 12.61 109.26 12.61 109.61 12.61 109.96 12.61 110.31 12.61 110.66 12.61 111.01 12.61 111.36 12.61 111.71 12.61 112.06 12.61 112.41 12.61 112.76 12.61 113.11 12.61 113.45 12.61 113.8 12.61 114.15 12.61 114.5 12.61 114.85 12.61 115.2 12.61 115.55 12.61 115.9 12.61 116.25 12.61 116.6 12.61 116.95 12.61 117.3 12.61 117.64 12.61 117.99 12.61 118.34 12.61 118.69 12.61 119.04 12.61 119.39 12.61 119.74 12.61 120.09 12.61 120.44 12.61 120.79 12.61 121.14 12.61 121.48 12.61 121.83 12.61 122.18 12.61 122.53 12.61 122.88 12.61 123.23 12.61 123.58 12.61 123.93 12.61 124.28 12.61 124.63 12.61 124.98 12.61 125.33 12.61 125.67 12.61 126.02 12.61 126.37 12.61 126.72 12.61 127.07 12.61 127.42 12.61 127.77 12.61 128.12 12.61 128.47 12.61 128.82 12.61 129.17 12.61 129.51 12.61 129.86 12.61 130.21 12.61 130.56 12.61 130.91 12.61 131.26 12.61 131.61 12.61 131.96 12.61 132.31 12.61 132.66 12.61 133.01 12.61 133.36 12.61 133.7 12.61 134.05 12.61 134.4 12.61 134.75 12.61 135.1 12.61 135.45 12.61 135.8 12.61 136.15 12.61 136.5 12.61 136.85 12.61 137.2 12.61 137.55 12.61 137.89 12.61 138.24 12.61 138.59 12.61 138.94 12.61 139.29 12.61 139.64 12.61 139.99 12.61 140.34 12.61 140.69 12.61 141.04 12.61 141.39 12.61 141.73 12.61 142.08 12.61 142.43 12.61 142.78 12.61 143.13 12.61 143.48 12.61 143.83 12.61 144.18 12.61 144.53 12.61 144.88 12.61 145.23 12.61 145.58 12.61 145.92 12.61 146.27 12.61 146.62 12.61 146.97 12.61 147.32 12.61 147.67 12.61 148.02 12.61 148.37 12.61 148.72 12.61 149.07 12.61 149.42 12.61 149.76 12.61 150.11 12.61 150.46 12.61 150.81 12.61 151.16 12.61 151.51 12.61 151.86 12.61 152.21 12.61 152.56 12.61 152.91 12.61 153.26 12.61 153.61 12.61 153.95 12.61 154.3 12.61 154.65 12.61 155 12.61 155.35 12.61 155.7 12.61 156.05 12.61 156.4 12.61 156.75 12.61 157.1 12.61 157.45 12.61 157.79 12.61 158.14 12.61 158.49 12.61 158.84 12.61 159.19 12.61 159.54 12.61 159.89 12.61 160.24 12.61 160.59 12.61 160.94 12.61 161.29 12.61 161.64 12.61 161.98 12.61 162.33 12.61 162.68 12.61 163.03 12.61 163.38 12.61 163.73 12.61 164.08 12.61 164.43 12.61 164.78 12.61 165.13 12.61 165.48 12.61 165.83 12.61 166.17 12.61 166.52 12.61 166.87 12.61 167.22 12.61 167.57 12.61 167.92 12.61 168.27 12.61 168.62 12.61 168.97 12.61 169.32 12.61 169.67 12.61 170.01 12.61 170.36 12.61 170.71 12.61 171.06 12.61 171.41 12.61 171.76 12.61 172.11 12.61 172.46 12.61 172.81 12.61 173.16 12.61 173.51 12.61 173.86 12.61 174.2 12.61 174.55 12.61 174.9 12.61 175.25 12.61 175.6 12.61 175.95 12.61 176.3 12.61 176.65 12.61 177 12.61 177.35 12.61 177.7 12.61 178.04 12.61 178.39 12.61 178.74 12.61 179.09 12.61 179.44 12.61 179.79 12.61 180.14 12.61 180.49 12.61 180.84 12.61 181.19 12.61 181.54 12.61 181.89 12.61 182.23 12.61 182.58 12.61 182.93 12.61 183.28 12.61 183.63 12.61 183.98 12.61 184.33 12.61 184.68 12.61 185.03 12.61 185.38 12.61 185.73 12.61 186.08 12.61 186.42 12.61 186.77 12.61 187.12 12.61 187.47 12.61 187.82 12.61 188.17 12.61 188.52 12.61 188.87 12.61 189.22 12.61 189.57 12.61 189.92 12.61 190.26 12.61 190.61 12.61 190.96 12.61 191.31 12.61 191.66 12.61 192.01 12.61 192.36 12.61 192.71 12.61 193.06 12.61 193.41 12.61 193.76 12.61 194.11 12.61 194.45 12.61 194.8 12.61 195.15 12.61 195.5 12.61 195.85 12.61 196.2 12.61"/>
      </g>
      <g stroke-width="0.3" fill="#000000" fill-opacity="0.000" class="geometry" stroke-dasharray="none" stroke="#FEE08B" id="img-356a73f5-35">
        <path fill="none" d="M21.98,33.76 L 22.33 32.07 22.68 31.65 23.03 31.65 23.38 29.53 23.73 33.76 24.08 34.61 24.42 31.65 24.77 30.8 25.12 29.53 25.47 32.07 25.82 31.23 26.17 30.8 26.52 30.8 26.87 32.07 27.22 32.49 27.57 35.46 27.92 35.88 28.27 32.92 28.61 33.34 28.96 32.07 29.31 31.65 29.66 31.23 30.01 31.65 30.36 27.84 30.71 28.69 31.06 24.46 31.41 21.5 31.76 19.38 32.11 21.5 32.45 25.73 32.8 22.34 33.15 19.8 33.5 18.53 33.85 20.65 34.2 20.23 34.55 22.34 34.9 20.23 35.25 20.23 35.6 21.92 35.95 23.19 36.3 21.07 36.64 20.65 36.99 20.23 37.34 19.8 37.69 25.3 38.04 28.69 38.39 29.96 38.74 31.65 39.09 30.8 39.44 32.07 39.79 34.19 40.14 35.03 40.49 34.61 40.83 32.49 41.18 29.53 41.53 27.42 41.88 28.69 42.23 28.26 42.58 28.69 42.93 28.69 43.28 27.84 43.63 27.84 43.98 25.73 44.33 29.11 44.67 32.49 45.02 33.34 45.37 39.26 45.72 39.69 46.07 42.22 46.42 46.03 46.77 48.15 47.12 46.88 47.47 43.49 47.82 41.8 48.17 39.26 48.52 35.46 48.86 35.46 49.21 32.49 49.56 29.53 49.91 29.11 50.26 26.57 50.61 25.3 50.96 26.15 51.31 26.15 51.66 28.69 52.01 30.8 52.36 29.53 52.7 31.65 53.05 32.07 53.4 32.49 53.75 36.3 54.1 37.57 54.45 36.3 54.8 32.92 55.15 30.8 55.5 29.96 55.85 29.53 56.2 27.84 56.55 27.84 56.89 24.46 57.24 26.99 57.59 24.46 57.94 24.46 58.29 24.88 58.64 24.03 58.99 25.3 59.34 24.03 59.69 24.88 60.04 23.19 60.39 20.65 60.73 24.88 61.08 26.99 61.43 26.99 61.78 27.42 62.13 29.96 62.48 29.96 62.83 25.73 63.18 25.73 63.53 28.26 63.88 27.84 64.23 31.23 64.58 36.3 64.92 40.11 65.27 41.38 65.62 41.38 65.97 41.38 66.32 43.07 66.67 40.95 67.02 38.84 67.37 41.38 67.72 40.95 68.07 43.92 68.42 45.19 68.77 44.76 69.11 47.72 69.46 48.57 69.81 48.15 70.16 46.88 70.51 47.72 70.86 46.88 71.21 45.19 71.56 46.03 71.91 42.22 72.26 42.65 72.61 43.07 72.95 41.8 73.3 42.22 73.65 40.95 74 40.95 74.35 41.38 74.7 42.65 75.05 41.8 75.4 41.38 75.75 45.19 76.1 46.03 76.45 46.45 76.8 49.84 77.14 50.26 77.49 49.84 77.84 51.53 78.19 52.38 78.54 53.65 78.89 53.65 79.24 53.65 79.59 54.91 79.94 54.91 80.29 54.91 80.64 54.91 80.98 54.91 81.33 54.91 81.68 54.91 82.03 54.91 82.38 54.91 82.73 54.91 83.08 54.91 83.43 54.91 83.78 54.91 84.13 54.91 84.48 54.91 84.83 54.91 85.17 54.91 85.52 54.91 85.87 54.91 86.22 54.91 86.57 54.91 86.92 54.91 87.27 54.91 87.62 54.91 87.97 54.91 88.32 54.91 88.67 54.91 89.02 54.91 89.36 54.91 89.71 54.91 90.06 54.91 90.41 54.91 90.76 54.91 91.11 54.91 91.46 54.91 91.81 54.91 92.16 54.91 92.51 54.91 92.86 54.91 93.2 54.91 93.55 54.91 93.9 54.91 94.25 54.91 94.6 54.91 94.95 54.91 95.3 54.91 95.65 54.91 96 54.91 96.35 54.91 96.7 54.91 97.05 54.91 97.39 54.91 97.74 54.91 98.09 54.91 98.44 54.91 98.79 54.91 99.14 54.91 99.49 54.91 99.84 54.91 100.19 54.91 100.54 54.91 100.89 54.91 101.23 54.91 101.58 54.91 101.93 54.49 102.28 54.07 102.63 53.65 102.98 53.65 103.33 54.49 103.68 54.07 104.03 54.49 104.38 54.07 104.73 53.22 105.08 54.49 105.42 54.91 105.77 54.91 106.12 54.91 106.47 54.91 106.82 54.91 107.17 54.91 107.52 54.91 107.87 54.91 108.22 54.91 108.57 54.91 108.92 54.91 109.26 54.91 109.61 54.91 109.96 54.91 110.31 54.91 110.66 54.91 111.01 54.91 111.36 54.91 111.71 54.91 112.06 54.91 112.41 54.91 112.76 54.91 113.11 54.91 113.45 54.91 113.8 54.91 114.15 54.91 114.5 54.91 114.85 54.91 115.2 54.91 115.55 54.91 115.9 54.91 116.25 54.91 116.6 54.91 116.95 54.91 117.3 54.91 117.64 54.91 117.99 54.91 118.34 54.91 118.69 54.91 119.04 54.91 119.39 54.91 119.74 54.91 120.09 54.91 120.44 54.91 120.79 54.91 121.14 54.91 121.48 54.91 121.83 54.91 122.18 54.91 122.53 54.91 122.88 54.91 123.23 54.91 123.58 54.91 123.93 54.91 124.28 54.91 124.63 54.91 124.98 54.91 125.33 54.91 125.67 54.91 126.02 54.91 126.37 54.91 126.72 54.91 127.07 54.91 127.42 54.91 127.77 54.91 128.12 54.91 128.47 54.91 128.82 54.91 129.17 54.91 129.51 54.91 129.86 54.91 130.21 54.91 130.56 54.91 130.91 54.91 131.26 54.91 131.61 54.91 131.96 54.91 132.31 54.91 132.66 54.91 133.01 54.91 133.36 54.91 133.7 54.91 134.05 54.91 134.4 54.91 134.75 54.91 135.1 54.91 135.45 54.91 135.8 54.91 136.15 54.91 136.5 54.91 136.85 54.91 137.2 54.91 137.55 54.91 137.89 54.91 138.24 54.91 138.59 54.91 138.94 54.91 139.29 54.91 139.64 54.91 139.99 54.91 140.34 54.91 140.69 54.91 141.04 54.91 141.39 54.91 141.73 54.91 142.08 54.91 142.43 54.91 142.78 54.91 143.13 54.91 143.48 54.91 143.83 54.91 144.18 54.91 144.53 54.91 144.88 54.91 145.23 54.91 145.58 54.91 145.92 54.91 146.27 54.91 146.62 54.91 146.97 54.91 147.32 54.91 147.67 54.91 148.02 54.91 148.37 54.91 148.72 54.91 149.07 54.91 149.42 54.91 149.76 54.91 150.11 54.91 150.46 54.91 150.81 54.91 151.16 54.91 151.51 54.91 151.86 54.91 152.21 54.91 152.56 54.91 152.91 54.91 153.26 54.91 153.61 54.91 153.95 54.91 154.3 54.91 154.65 54.91 155 54.91 155.35 54.91 155.7 54.91 156.05 54.91 156.4 54.91 156.75 54.91 157.1 54.91 157.45 54.91 157.79 54.91 158.14 54.91 158.49 54.91 158.84 54.91 159.19 54.91 159.54 54.91 159.89 54.91 160.24 54.91 160.59 54.91 160.94 54.91 161.29 54.91 161.64 54.91 161.98 54.91 162.33 54.91 162.68 54.91 163.03 54.91 163.38 54.91 163.73 54.49 164.08 54.49 164.43 54.91 164.78 54.91 165.13 54.91 165.48 54.91 165.83 54.91 166.17 54.91 166.52 54.91 166.87 54.91 167.22 54.91 167.57 54.91 167.92 54.91 168.27 54.91 168.62 54.91 168.97 54.91 169.32 54.91 169.67 54.91 170.01 54.91 170.36 54.91 170.71 54.91 171.06 54.91 171.41 54.91 171.76 54.91 172.11 54.91 172.46 54.91 172.81 54.91 173.16 54.91 173.51 54.91 173.86 54.91 174.2 54.91 174.55 54.91 174.9 54.91 175.25 54.91 175.6 54.91 175.95 54.91 176.3 54.91 176.65 54.91 177 54.91 177.35 54.91 177.7 54.91 178.04 54.91 178.39 54.91 178.74 54.91 179.09 54.91 179.44 54.91 179.79 54.91 180.14 54.91 180.49 54.91 180.84 54.91 181.19 54.91 181.54 54.91 181.89 54.91 182.23 54.91 182.58 54.91 182.93 54.91 183.28 54.91 183.63 54.91 183.98 54.91 184.33 54.91 184.68 54.91 185.03 54.91 185.38 54.91 185.73 54.91 186.08 54.91 186.42 54.91 186.77 54.91 187.12 54.91 187.47 54.91 187.82 54.91 188.17 54.91 188.52 54.91 188.87 54.91 189.22 54.91 189.57 54.91 189.92 54.91 190.26 54.91 190.61 54.91 190.96 54.91 191.31 54.91 191.66 54.91 192.01 54.91 192.36 54.91 192.71 54.91 193.06 54.91 193.41 54.91 193.76 54.91 194.11 54.91 194.45 54.91 194.8 54.91 195.15 54.91 195.5 54.91 195.85 54.91 196.2 54.91"/>
      </g>
      <g stroke-width="0.3" fill="#000000" fill-opacity="0.000" class="geometry" stroke-dasharray="none" stroke="#FDAE61" id="img-356a73f5-36">
        <path fill="none" d="M21.98,33.76 L 22.33 32.92 22.68 34.19 23.03 32.07 23.38 31.23 23.73 31.23 24.08 30.8 24.42 29.53 24.77 30.8 25.12 28.26 25.47 27.84 25.82 30.38 26.17 30.8 26.52 28.26 26.87 29.96 27.22 29.96 27.57 29.11 27.92 28.69 28.27 29.53 28.61 31.23 28.96 28.26 29.31 26.57 29.66 25.73 30.01 23.61 30.36 20.65 30.71 18.53 31.06 18.96 31.41 18.53 31.76 19.8 32.11 18.96 32.45 19.38 32.8 19.8 33.15 19.38 33.5 21.5 33.85 21.92 34.2 22.76 34.55 20.65 34.9 22.34 35.25 22.76 35.6 20.23 35.95 18.11 36.3 18.96 36.64 18.96 36.99 21.07 37.34 19.8 37.69 21.92 38.04 23.61 38.39 22.34 38.74 21.92 39.09 23.61 39.44 21.92 39.79 18.53 40.14 18.11 40.49 18.53 40.83 17.27 41.18 19.38 41.53 21.07 41.88 20.23 42.23 20.65 42.58 22.76 42.93 25.3 43.28 24.88 43.63 26.15 43.98 26.57 44.33 24.03 44.67 24.46 45.02 21.92 45.37 21.07 45.72 21.5 46.07 18.96 46.42 18.53 46.77 16.42 47.12 16 47.47 14.73 47.82 13.46 48.17 13.46 48.52 13.03 48.86 12.61 49.21 12.61 49.56 12.61 49.91 12.61 50.26 12.61 50.61 12.61 50.96 12.61 51.31 12.61 51.66 12.61 52.01 12.61 52.36 12.61 52.7 13.46 53.05 13.88 53.4 14.3 53.75 13.46 54.1 13.46 54.45 13.03 54.8 13.03 55.15 12.61 55.5 12.61 55.85 12.61 56.2 12.61 56.55 12.61 56.89 12.61 57.24 12.61 57.59 12.61 57.94 12.61 58.29 12.61 58.64 12.61 58.99 12.61 59.34 12.61 59.69 12.61 60.04 12.61 60.39 12.61 60.73 12.61 61.08 12.61 61.43 12.61 61.78 12.61 62.13 12.61 62.48 12.61 62.83 12.61 63.18 12.61 63.53 12.61 63.88 12.61 64.23 12.61 64.58 12.61 64.92 12.61 65.27 12.61 65.62 12.61 65.97 12.61 66.32 12.61 66.67 12.61 67.02 12.61 67.37 12.61 67.72 12.61 68.07 12.61 68.42 12.61 68.77 12.61 69.11 12.61 69.46 12.61 69.81 12.61 70.16 12.61 70.51 12.61 70.86 12.61 71.21 12.61 71.56 12.61 71.91 12.61 72.26 12.61 72.61 12.61 72.95 12.61 73.3 12.61 73.65 12.61 74 12.61 74.35 12.61 74.7 12.61 75.05 12.61 75.4 12.61 75.75 12.61 76.1 12.61 76.45 12.61 76.8 12.61 77.14 12.61 77.49 12.61 77.84 12.61 78.19 12.61 78.54 12.61 78.89 12.61 79.24 12.61 79.59 12.61 79.94 12.61 80.29 12.61 80.64 12.61 80.98 12.61 81.33 12.61 81.68 12.61 82.03 12.61 82.38 12.61 82.73 12.61 83.08 12.61 83.43 12.61 83.78 12.61 84.13 12.61 84.48 12.61 84.83 12.61 85.17 12.61 85.52 12.61 85.87 12.61 86.22 12.61 86.57 12.61 86.92 12.61 87.27 12.61 87.62 12.61 87.97 12.61 88.32 12.61 88.67 12.61 89.02 12.61 89.36 12.61 89.71 12.61 90.06 12.61 90.41 12.61 90.76 12.61 91.11 12.61 91.46 12.61 91.81 12.61 92.16 12.61 92.51 12.61 92.86 12.61 93.2 13.03 93.55 12.61 93.9 12.61 94.25 12.61 94.6 12.61 94.95 12.61 95.3 12.61 95.65 12.61 96 12.61 96.35 12.61 96.7 12.61 97.05 12.61 97.39 12.61 97.74 12.61 98.09 12.61 98.44 12.61 98.79 12.61 99.14 12.61 99.49 12.61 99.84 12.61 100.19 12.61 100.54 12.61 100.89 12.61 101.23 12.61 101.58 12.61 101.93 12.61 102.28 12.61 102.63 12.61 102.98 12.61 103.33 12.61 103.68 12.61 104.03 12.61 104.38 12.61 104.73 12.61 105.08 12.61 105.42 12.61 105.77 12.61 106.12 12.61 106.47 12.61 106.82 12.61 107.17 12.61 107.52 12.61 107.87 12.61 108.22 12.61 108.57 12.61 108.92 12.61 109.26 12.61 109.61 12.61 109.96 12.61 110.31 12.61 110.66 12.61 111.01 12.61 111.36 12.61 111.71 12.61 112.06 12.61 112.41 12.61 112.76 12.61 113.11 12.61 113.45 12.61 113.8 12.61 114.15 12.61 114.5 12.61 114.85 12.61 115.2 12.61 115.55 12.61 115.9 12.61 116.25 13.03 116.6 12.61 116.95 12.61 117.3 12.61 117.64 12.61 117.99 12.61 118.34 12.61 118.69 12.61 119.04 12.61 119.39 12.61 119.74 12.61 120.09 12.61 120.44 12.61 120.79 12.61 121.14 12.61 121.48 12.61 121.83 12.61 122.18 12.61 122.53 12.61 122.88 12.61 123.23 12.61 123.58 12.61 123.93 12.61 124.28 12.61 124.63 12.61 124.98 12.61 125.33 12.61 125.67 12.61 126.02 12.61 126.37 12.61 126.72 12.61 127.07 12.61 127.42 12.61 127.77 12.61 128.12 12.61 128.47 12.61 128.82 12.61 129.17 12.61 129.51 12.61 129.86 12.61 130.21 12.61 130.56 12.61 130.91 12.61 131.26 12.61 131.61 12.61 131.96 12.61 132.31 12.61 132.66 12.61 133.01 12.61 133.36 12.61 133.7 12.61 134.05 12.61 134.4 12.61 134.75 12.61 135.1 12.61 135.45 12.61 135.8 12.61 136.15 12.61 136.5 12.61 136.85 12.61 137.2 12.61 137.55 12.61 137.89 12.61 138.24 12.61 138.59 12.61 138.94 12.61 139.29 12.61 139.64 12.61 139.99 12.61 140.34 12.61 140.69 12.61 141.04 12.61 141.39 12.61 141.73 12.61 142.08 12.61 142.43 12.61 142.78 12.61 143.13 12.61 143.48 12.61 143.83 12.61 144.18 12.61 144.53 12.61 144.88 12.61 145.23 12.61 145.58 12.61 145.92 12.61 146.27 12.61 146.62 12.61 146.97 12.61 147.32 12.61 147.67 12.61 148.02 12.61 148.37 12.61 148.72 12.61 149.07 12.61 149.42 12.61 149.76 12.61 150.11 12.61 150.46 12.61 150.81 12.61 151.16 12.61 151.51 12.61 151.86 12.61 152.21 12.61 152.56 12.61 152.91 12.61 153.26 12.61 153.61 12.61 153.95 12.61 154.3 12.61 154.65 12.61 155 12.61 155.35 12.61 155.7 12.61 156.05 12.61 156.4 12.61 156.75 12.61 157.1 12.61 157.45 12.61 157.79 13.03 158.14 12.61 158.49 12.61 158.84 12.61 159.19 12.61 159.54 12.61 159.89 12.61 160.24 12.61 160.59 12.61 160.94 12.61 161.29 12.61 161.64 12.61 161.98 12.61 162.33 12.61 162.68 12.61 163.03 12.61 163.38 12.61 163.73 12.61 164.08 12.61 164.43 12.61 164.78 12.61 165.13 12.61 165.48 12.61 165.83 12.61 166.17 12.61 166.52 12.61 166.87 12.61 167.22 12.61 167.57 12.61 167.92 12.61 168.27 12.61 168.62 12.61 168.97 12.61 169.32 12.61 169.67 12.61 170.01 12.61 170.36 12.61 170.71 12.61 171.06 12.61 171.41 12.61 171.76 12.61 172.11 12.61 172.46 12.61 172.81 12.61 173.16 12.61 173.51 12.61 173.86 12.61 174.2 12.61 174.55 12.61 174.9 12.61 175.25 12.61 175.6 12.61 175.95 12.61 176.3 12.61 176.65 12.61 177 12.61 177.35 12.61 177.7 12.61 178.04 12.61 178.39 12.61 178.74 12.61 179.09 12.61 179.44 12.61 179.79 12.61 180.14 12.61 180.49 12.61 180.84 12.61 181.19 12.61 181.54 12.61 181.89 12.61 182.23 12.61 182.58 12.61 182.93 12.61 183.28 12.61 183.63 12.61 183.98 12.61 184.33 12.61 184.68 12.61 185.03 12.61 185.38 12.61 185.73 12.61 186.08 12.61 186.42 12.61 186.77 12.61 187.12 12.61 187.47 12.61 187.82 12.61 188.17 12.61 188.52 12.61 188.87 12.61 189.22 12.61 189.57 12.61 189.92 12.61 190.26 12.61 190.61 12.61 190.96 12.61 191.31 12.61 191.66 12.61 192.01 12.61 192.36 12.61 192.71 12.61 193.06 12.61 193.41 12.61 193.76 12.61 194.11 12.61 194.45 12.61 194.8 12.61 195.15 12.61 195.5 12.61 195.85 12.61 196.2 12.61"/>
      </g>
      <g stroke-width="0.3" fill="#000000" fill-opacity="0.000" class="geometry" stroke-dasharray="none" stroke="#F46D43" id="img-356a73f5-37">
        <path fill="none" d="M21.98,33.76 L 22.33 32.49 22.68 31.65 23.03 32.92 23.38 31.23 23.73 32.07 24.08 35.46 24.42 37.57 24.77 40.11 25.12 38.42 25.47 41.38 25.82 40.95 26.17 40.95 26.52 38.84 26.87 41.8 27.22 43.49 27.57 43.49 27.92 43.07 28.27 40.11 28.61 38.42 28.96 40.95 29.31 38.84 29.66 39.26 30.01 38.42 30.36 37.99 30.71 37.57 31.06 37.99 31.41 40.53 31.76 38.42 32.11 38.42 32.45 39.26 32.8 42.22 33.15 40.95 33.5 40.11 33.85 38.84 34.2 39.26 34.55 40.95 34.9 40.53 35.25 43.07 35.6 40.11 35.95 39.26 36.3 39.26 36.64 40.95 36.99 43.07 37.34 40.53 37.69 40.53 38.04 42.22 38.39 43.07 38.74 43.92 39.09 42.65 39.44 44.34 39.79 43.07 40.14 42.22 40.49 41.8 40.83 40.95 41.18 43.07 41.53 44.34 41.88 44.76 42.23 47.3 42.58 46.03 42.93 45.61 43.28 46.03 43.63 43.92 43.98 43.49 44.33 43.07 44.67 40.53 45.02 37.99 45.37 35.46 45.72 35.88 46.07 37.15 46.42 37.99 46.77 38.84 47.12 43.07 47.47 43.92 47.82 43.07 48.17 46.03 48.52 47.3 48.86 48.15 49.21 45.61 49.56 47.3 49.91 44.76 50.26 44.76 50.61 45.19 50.96 44.76 51.31 43.92 51.66 45.19 52.01 43.07 52.36 43.07 52.7 44.76 53.05 41.38 53.4 45.19 53.75 46.03 54.1 46.88 54.45 44.34 54.8 43.92 55.15 46.88 55.5 46.45 55.85 51.11 56.2 48.99 56.55 48.57 56.89 45.61 57.24 42.65 57.59 43.07 57.94 45.19 58.29 43.92 58.64 45.19 58.99 48.15 59.34 47.72 59.69 43.92 60.04 45.61 60.39 45.19 60.73 42.22 61.08 40.95 61.43 40.95 61.78 39.69 62.13 40.53 62.48 44.34 62.83 46.03 63.18 44.76 63.53 44.76 63.88 45.19 64.23 42.65 64.58 41.8 64.92 42.65 65.27 41.8 65.62 43.07 65.97 42.22 66.32 39.69 66.67 40.53 67.02 41.38 67.37 43.07 67.72 42.65 68.07 45.19 68.42 46.45 68.77 46.03 69.11 46.45 69.46 44.76 69.81 45.61 70.16 44.76 70.51 45.61 70.86 43.92 71.21 42.65 71.56 44.76 71.91 46.45 72.26 43.92 72.61 46.45 72.95 51.11 73.3 52.38 73.65 52.38 74 54.07 74.35 54.49 74.7 54.91 75.05 54.91 75.4 54.91 75.75 54.91 76.1 54.91 76.45 54.91 76.8 54.91 77.14 54.91 77.49 54.91 77.84 54.91 78.19 54.91 78.54 54.91 78.89 54.91 79.24 54.91 79.59 54.91 79.94 54.91 80.29 54.91 80.64 54.91 80.98 54.91 81.33 54.91 81.68 54.91 82.03 54.91 82.38 54.91 82.73 54.91 83.08 54.91 83.43 54.91 83.78 54.91 84.13 54.91 84.48 54.91 84.83 54.91 85.17 54.91 85.52 54.91 85.87 54.91 86.22 54.91 86.57 54.91 86.92 54.91 87.27 54.91 87.62 54.91 87.97 54.91 88.32 54.91 88.67 54.91 89.02 54.91 89.36 54.91 89.71 54.91 90.06 54.91 90.41 54.91 90.76 54.91 91.11 54.91 91.46 54.91 91.81 54.91 92.16 54.91 92.51 54.91 92.86 54.91 93.2 54.91 93.55 54.91 93.9 54.91 94.25 54.91 94.6 54.91 94.95 54.91 95.3 54.91 95.65 54.91 96 54.91 96.35 54.91 96.7 54.91 97.05 54.91 97.39 54.91 97.74 54.91 98.09 54.91 98.44 54.91 98.79 54.91 99.14 54.91 99.49 54.91 99.84 54.91 100.19 54.91 100.54 54.91 100.89 54.91 101.23 54.91 101.58 54.91 101.93 54.91 102.28 54.91 102.63 54.91 102.98 54.91 103.33 54.91 103.68 54.91 104.03 54.91 104.38 54.91 104.73 54.91 105.08 54.91 105.42 54.91 105.77 54.91 106.12 54.91 106.47 54.91 106.82 54.91 107.17 54.91 107.52 54.91 107.87 54.91 108.22 54.91 108.57 54.91 108.92 54.91 109.26 54.91 109.61 54.91 109.96 54.91 110.31 54.91 110.66 54.91 111.01 54.91 111.36 54.91 111.71 54.91 112.06 54.91 112.41 54.91 112.76 54.91 113.11 54.91 113.45 54.91 113.8 54.91 114.15 54.91 114.5 54.91 114.85 54.91 115.2 54.91 115.55 54.91 115.9 54.91 116.25 54.91 116.6 54.91 116.95 54.91 117.3 54.91 117.64 54.91 117.99 54.91 118.34 54.91 118.69 54.91 119.04 54.91 119.39 54.91 119.74 54.91 120.09 54.91 120.44 54.91 120.79 54.91 121.14 54.91 121.48 54.91 121.83 54.91 122.18 54.91 122.53 54.91 122.88 54.91 123.23 54.91 123.58 54.91 123.93 54.91 124.28 54.91 124.63 54.91 124.98 54.91 125.33 54.91 125.67 54.91 126.02 54.91 126.37 54.91 126.72 54.91 127.07 54.91 127.42 54.91 127.77 54.91 128.12 54.91 128.47 54.91 128.82 54.91 129.17 54.91 129.51 54.91 129.86 54.91 130.21 54.91 130.56 54.91 130.91 54.91 131.26 54.91 131.61 54.91 131.96 54.91 132.31 54.91 132.66 54.91 133.01 54.91 133.36 54.91 133.7 54.91 134.05 54.91 134.4 54.91 134.75 54.91 135.1 54.07 135.45 54.07 135.8 53.65 136.15 53.22 136.5 53.65 136.85 52.8 137.2 51.53 137.55 49.42 137.89 49.42 138.24 49.84 138.59 51.53 138.94 52.38 139.29 52.38 139.64 53.22 139.99 53.65 140.34 52.8 140.69 52.8 141.04 53.65 141.39 53.22 141.73 54.07 142.08 54.49 142.43 54.91 142.78 54.91 143.13 54.91 143.48 54.91 143.83 54.91 144.18 54.91 144.53 54.91 144.88 54.91 145.23 54.91 145.58 54.91 145.92 54.91 146.27 54.91 146.62 54.91 146.97 54.91 147.32 54.91 147.67 54.91 148.02 54.91 148.37 54.91 148.72 54.91 149.07 54.91 149.42 54.91 149.76 54.91 150.11 54.91 150.46 54.91 150.81 54.91 151.16 54.91 151.51 54.91 151.86 54.91 152.21 54.91 152.56 54.91 152.91 54.91 153.26 54.91 153.61 54.91 153.95 54.91 154.3 54.91 154.65 54.91 155 54.91 155.35 54.91 155.7 54.91 156.05 54.91 156.4 54.91 156.75 54.91 157.1 54.91 157.45 54.91 157.79 54.91 158.14 54.91 158.49 54.91 158.84 54.91 159.19 54.91 159.54 54.91 159.89 54.91 160.24 54.91 160.59 54.91 160.94 54.91 161.29 54.91 161.64 54.91 161.98 54.91 162.33 54.91 162.68 54.91 163.03 54.91 163.38 54.91 163.73 54.91 164.08 54.91 164.43 54.91 164.78 54.91 165.13 54.91 165.48 54.91 165.83 54.91 166.17 54.91 166.52 54.91 166.87 54.91 167.22 54.91 167.57 54.91 167.92 54.91 168.27 54.91 168.62 54.91 168.97 54.91 169.32 54.91 169.67 54.91 170.01 54.91 170.36 54.91 170.71 54.91 171.06 54.91 171.41 54.91 171.76 54.91 172.11 54.91 172.46 54.91 172.81 54.91 173.16 54.91 173.51 54.91 173.86 54.91 174.2 54.91 174.55 54.91 174.9 54.91 175.25 54.91 175.6 54.91 175.95 54.91 176.3 54.91 176.65 54.91 177 54.91 177.35 54.91 177.7 54.91 178.04 54.91 178.39 54.91 178.74 54.91 179.09 54.91 179.44 54.91 179.79 54.91 180.14 54.91 180.49 54.91 180.84 54.91 181.19 54.91 181.54 54.91 181.89 54.91 182.23 54.91 182.58 54.91 182.93 54.91 183.28 54.91 183.63 54.91 183.98 54.91 184.33 54.91 184.68 54.91 185.03 54.91 185.38 54.91 185.73 54.91 186.08 54.91 186.42 54.91 186.77 54.91 187.12 54.91 187.47 54.91 187.82 54.91 188.17 54.91 188.52 54.91 188.87 54.91 189.22 54.91 189.57 54.91 189.92 54.91 190.26 54.91 190.61 54.91 190.96 54.91 191.31 54.91 191.66 54.91 192.01 54.91 192.36 54.91 192.71 54.91 193.06 54.91 193.41 54.91 193.76 54.91 194.11 54.91 194.45 54.91 194.8 54.91 195.15 54.91 195.5 54.91 195.85 54.91 196.2 54.91"/>
      </g>
      <g stroke-width="0.3" fill="#000000" fill-opacity="0.000" class="geometry" stroke-dasharray="none" stroke="#D53E4F" id="img-356a73f5-38">
        <path fill="none" d="M21.98,33.76 L 22.33 34.19 22.68 32.07 23.03 28.26 23.38 24.03 23.73 25.73 24.08 26.57 24.42 29.96 24.77 29.53 25.12 29.96 25.47 33.34 25.82 29.96 26.17 31.23 26.52 30.8 26.87 35.03 27.22 36.72 27.57 34.61 27.92 35.03 28.27 35.46 28.61 37.57 28.96 35.46 29.31 33.76 29.66 35.46 30.01 32.92 30.36 34.19 30.71 35.88 31.06 35.46 31.41 37.99 31.76 37.15 32.11 40.95 32.45 39.26 32.8 41.38 33.15 40.53 33.5 43.49 33.85 48.15 34.2 49.84 34.55 50.68 34.9 52.38 35.25 53.65 35.6 54.91 35.95 54.91 36.3 54.91 36.64 54.91 36.99 54.91 37.34 54.91 37.69 54.91 38.04 54.91 38.39 54.91 38.74 54.91 39.09 54.91 39.44 54.91 39.79 54.91 40.14 54.91 40.49 54.91 40.83 54.91 41.18 54.91 41.53 54.91 41.88 54.91 42.23 54.91 42.58 54.91 42.93 54.91 43.28 54.91 43.63 54.91 43.98 54.91 44.33 54.91 44.67 54.91 45.02 54.91 45.37 54.91 45.72 54.91 46.07 54.91 46.42 54.91 46.77 54.91 47.12 54.91 47.47 54.91 47.82 54.91 48.17 54.91 48.52 54.91 48.86 54.91 49.21 54.91 49.56 54.91 49.91 54.91 50.26 54.91 50.61 54.91 50.96 54.91 51.31 54.91 51.66 54.91 52.01 54.91 52.36 54.91 52.7 54.91 53.05 54.91 53.4 54.91 53.75 54.91 54.1 54.91 54.45 54.91 54.8 54.91 55.15 54.91 55.5 54.91 55.85 54.91 56.2 54.91 56.55 54.91 56.89 54.91 57.24 54.91 57.59 54.91 57.94 54.91 58.29 54.91 58.64 54.91 58.99 54.91 59.34 54.91 59.69 54.91 60.04 54.91 60.39 54.91 60.73 54.91 61.08 54.91 61.43 54.91 61.78 54.91 62.13 54.91 62.48 54.91 62.83 54.91 63.18 54.91 63.53 54.91 63.88 54.91 64.23 54.91 64.58 54.91 64.92 54.91 65.27 54.91 65.62 54.91 65.97 54.91 66.32 54.91 66.67 54.91 67.02 54.91 67.37 54.91 67.72 54.91 68.07 54.91 68.42 54.91 68.77 54.91 69.11 54.91 69.46 54.91 69.81 54.91 70.16 54.91 70.51 54.91 70.86 54.91 71.21 54.91 71.56 54.91 71.91 54.91 72.26 54.91 72.61 54.91 72.95 54.91 73.3 54.91 73.65 54.91 74 54.91 74.35 53.22 74.7 51.95 75.05 52.8 75.4 54.49 75.75 54.07 76.1 54.91 76.45 54.91 76.8 54.91 77.14 54.91 77.49 54.91 77.84 54.91 78.19 54.91 78.54 54.91 78.89 54.91 79.24 54.91 79.59 54.91 79.94 54.91 80.29 54.91 80.64 54.91 80.98 54.91 81.33 54.91 81.68 54.91 82.03 54.91 82.38 54.91 82.73 54.91 83.08 54.91 83.43 54.91 83.78 54.91 84.13 54.91 84.48 54.91 84.83 54.91 85.17 54.91 85.52 54.91 85.87 54.91 86.22 54.91 86.57 54.91 86.92 54.91 87.27 54.91 87.62 54.91 87.97 54.91 88.32 54.91 88.67 54.91 89.02 54.91 89.36 54.91 89.71 54.91 90.06 54.91 90.41 54.91 90.76 54.91 91.11 54.91 91.46 54.91 91.81 54.91 92.16 54.91 92.51 54.91 92.86 54.91 93.2 54.91 93.55 54.91 93.9 54.91 94.25 54.91 94.6 54.91 94.95 54.91 95.3 54.91 95.65 54.91 96 54.91 96.35 54.91 96.7 54.91 97.05 54.91 97.39 54.91 97.74 54.91 98.09 54.91 98.44 54.91 98.79 54.91 99.14 54.91 99.49 54.91 99.84 54.91 100.19 54.91 100.54 54.91 100.89 54.91 101.23 54.91 101.58 54.91 101.93 54.91 102.28 54.91 102.63 54.91 102.98 54.91 103.33 54.91 103.68 54.49 104.03 54.49 104.38 54.49 104.73 54.49 105.08 54.07 105.42 54.07 105.77 54.07 106.12 54.49 106.47 54.49 106.82 54.49 107.17 54.07 107.52 53.65 107.87 53.65 108.22 52.38 108.57 53.22 108.92 54.07 109.26 54.07 109.61 54.07 109.96 54.07 110.31 54.49 110.66 54.49 111.01 54.07 111.36 54.91 111.71 54.91 112.06 54.91 112.41 54.91 112.76 54.91 113.11 54.91 113.45 54.91 113.8 54.91 114.15 54.91 114.5 54.91 114.85 54.91 115.2 54.91 115.55 54.91 115.9 54.91 116.25 54.91 116.6 54.91 116.95 54.91 117.3 54.91 117.64 54.91 117.99 54.91 118.34 54.91 118.69 54.91 119.04 54.91 119.39 54.91 119.74 54.91 120.09 54.91 120.44 54.91 120.79 54.91 121.14 54.91 121.48 54.91 121.83 54.91 122.18 54.91 122.53 54.91 122.88 54.91 123.23 54.91 123.58 54.91 123.93 54.91 124.28 54.91 124.63 54.91 124.98 54.91 125.33 54.91 125.67 54.91 126.02 54.91 126.37 54.91 126.72 54.91 127.07 54.91 127.42 54.91 127.77 54.91 128.12 54.91 128.47 54.91 128.82 54.91 129.17 54.91 129.51 54.91 129.86 54.91 130.21 54.91 130.56 54.91 130.91 54.91 131.26 54.91 131.61 54.91 131.96 54.91 132.31 54.91 132.66 54.91 133.01 54.91 133.36 54.91 133.7 54.91 134.05 54.91 134.4 54.91 134.75 54.91 135.1 54.91 135.45 54.91 135.8 54.91 136.15 54.91 136.5 54.91 136.85 54.91 137.2 54.91 137.55 54.91 137.89 54.91 138.24 54.91 138.59 54.91 138.94 54.91 139.29 54.91 139.64 54.91 139.99 54.91 140.34 54.91 140.69 54.91 141.04 54.91 141.39 54.91 141.73 54.91 142.08 54.91 142.43 54.91 142.78 54.91 143.13 54.91 143.48 54.91 143.83 54.91 144.18 54.91 144.53 54.91 144.88 54.91 145.23 54.91 145.58 54.91 145.92 54.91 146.27 54.91 146.62 54.91 146.97 54.91 147.32 54.91 147.67 54.91 148.02 54.91 148.37 54.91 148.72 54.91 149.07 54.91 149.42 54.91 149.76 54.91 150.11 54.91 150.46 54.91 150.81 54.91 151.16 54.91 151.51 54.91 151.86 54.91 152.21 54.91 152.56 54.91 152.91 54.91 153.26 54.91 153.61 54.91 153.95 54.91 154.3 54.91 154.65 54.91 155 54.91 155.35 54.91 155.7 54.91 156.05 54.91 156.4 54.91 156.75 54.91 157.1 54.91 157.45 54.91 157.79 54.91 158.14 54.91 158.49 54.91 158.84 54.91 159.19 54.91 159.54 54.91 159.89 54.91 160.24 54.91 160.59 54.91 160.94 54.91 161.29 54.91 161.64 54.91 161.98 54.91 162.33 54.91 162.68 54.91 163.03 54.91 163.38 54.91 163.73 54.91 164.08 54.91 164.43 54.91 164.78 54.91 165.13 54.91 165.48 54.91 165.83 54.91 166.17 54.91 166.52 54.91 166.87 54.91 167.22 54.91 167.57 54.91 167.92 54.91 168.27 54.91 168.62 54.91 168.97 54.91 169.32 54.91 169.67 54.91 170.01 54.91 170.36 54.91 170.71 54.91 171.06 54.91 171.41 54.91 171.76 54.91 172.11 54.91 172.46 54.91 172.81 54.91 173.16 54.91 173.51 54.91 173.86 54.91 174.2 54.91 174.55 54.91 174.9 54.91 175.25 54.91 175.6 54.91 175.95 54.91 176.3 54.91 176.65 54.91 177 54.91 177.35 54.91 177.7 54.91 178.04 54.91 178.39 54.91 178.74 54.91 179.09 54.91 179.44 54.91 179.79 54.91 180.14 54.91 180.49 54.91 180.84 54.91 181.19 54.91 181.54 54.91 181.89 54.91 182.23 54.91 182.58 54.91 182.93 54.91 183.28 54.91 183.63 54.91 183.98 54.91 184.33 54.91 184.68 54.91 185.03 54.49 185.38 54.91 185.73 54.91 186.08 54.91 186.42 54.91 186.77 54.91 187.12 54.91 187.47 54.91 187.82 54.91 188.17 54.91 188.52 54.91 188.87 54.91 189.22 54.49 189.57 54.49 189.92 54.91 190.26 54.91 190.61 54.91 190.96 54.91 191.31 54.91 191.66 54.91 192.01 54.91 192.36 54.91 192.71 54.91 193.06 54.91 193.41 54.91 193.76 54.91 194.11 54.91 194.45 54.91 194.8 54.91 195.15 54.91 195.5 54.91 195.85 54.91 196.2 54.91"/>
      </g>
      <g stroke-width="0.3" fill="#000000" fill-opacity="0.000" class="geometry" stroke-dasharray="none" stroke="#9E0142" id="img-356a73f5-39">
        <path fill="none" d="M21.98,33.76 L 22.33 34.19 22.68 37.57 23.03 36.3 23.38 32.92 23.73 30.8 24.08 30.8 24.42 31.23 24.77 32.49 25.12 31.65 25.47 35.03 25.82 32.07 26.17 37.15 26.52 39.26 26.87 41.38 27.22 40.11 27.57 42.22 27.92 41.38 28.27 40.11 28.61 40.95 28.96 40.95 29.31 43.49 29.66 42.22 30.01 46.88 30.36 48.15 30.71 48.99 31.06 49.84 31.41 49.84 31.76 50.68 32.11 50.68 32.45 52.8 32.8 53.22 33.15 54.49 33.5 54.91 33.85 54.91 34.2 54.91 34.55 54.91 34.9 54.91 35.25 54.91 35.6 54.91 35.95 54.91 36.3 54.91 36.64 54.91 36.99 54.91 37.34 54.91 37.69 54.91 38.04 54.91 38.39 54.91 38.74 54.91 39.09 54.91 39.44 54.91 39.79 54.91 40.14 54.91 40.49 54.91 40.83 54.91 41.18 54.91 41.53 54.91 41.88 54.91 42.23 54.91 42.58 54.91 42.93 54.91 43.28 54.91 43.63 54.91 43.98 54.91 44.33 54.91 44.67 54.91 45.02 54.91 45.37 54.91 45.72 54.91 46.07 54.91 46.42 54.91 46.77 54.91 47.12 54.91 47.47 54.91 47.82 54.91 48.17 54.91 48.52 54.91 48.86 54.91 49.21 54.91 49.56 54.91 49.91 54.91 50.26 54.91 50.61 54.91 50.96 54.91 51.31 54.91 51.66 54.91 52.01 54.91 52.36 54.91 52.7 54.91 53.05 54.91 53.4 54.91 53.75 54.91 54.1 54.91 54.45 54.91 54.8 54.91 55.15 54.91 55.5 54.91 55.85 54.91 56.2 54.91 56.55 54.91 56.89 54.91 57.24 54.91 57.59 54.91 57.94 54.91 58.29 54.91 58.64 54.91 58.99 54.91 59.34 54.91 59.69 54.91 60.04 54.91 60.39 54.91 60.73 54.91 61.08 54.91 61.43 54.91 61.78 54.91 62.13 54.91 62.48 54.91 62.83 54.91 63.18 54.91 63.53 54.91 63.88 54.91 64.23 54.91 64.58 54.91 64.92 54.91 65.27 54.91 65.62 54.91 65.97 54.91 66.32 54.91 66.67 54.91 67.02 54.91 67.37 54.91 67.72 54.91 68.07 54.91 68.42 54.91 68.77 54.91 69.11 54.91 69.46 54.91 69.81 54.91 70.16 54.91 70.51 54.91 70.86 54.91 71.21 54.91 71.56 54.91 71.91 54.91 72.26 54.91 72.61 54.91 72.95 54.91 73.3 54.91 73.65 54.91 74 54.91 74.35 54.91 74.7 54.91 75.05 54.91 75.4 54.91 75.75 54.91 76.1 54.91 76.45 54.91 76.8 54.91 77.14 54.91 77.49 54.91 77.84 54.91 78.19 54.91 78.54 54.91 78.89 54.91 79.24 54.91 79.59 54.91 79.94 54.91 80.29 54.91 80.64 54.91 80.98 54.91 81.33 54.91 81.68 54.91 82.03 54.91 82.38 54.91 82.73 54.91 83.08 54.91 83.43 54.91 83.78 54.91 84.13 54.91 84.48 54.91 84.83 54.91 85.17 54.91 85.52 54.91 85.87 54.91 86.22 54.91 86.57 54.91 86.92 54.91 87.27 54.91 87.62 54.91 87.97 54.91 88.32 54.91 88.67 54.91 89.02 54.91 89.36 54.91 89.71 54.91 90.06 54.91 90.41 54.91 90.76 54.91 91.11 54.91 91.46 54.91 91.81 54.91 92.16 54.91 92.51 54.91 92.86 54.91 93.2 54.91 93.55 54.91 93.9 54.91 94.25 54.91 94.6 54.91 94.95 54.91 95.3 54.91 95.65 54.91 96 54.91 96.35 54.91 96.7 54.91 97.05 54.91 97.39 54.91 97.74 54.91 98.09 54.91 98.44 54.91 98.79 54.91 99.14 54.07 99.49 53.65 99.84 54.07 100.19 54.07 100.54 54.49 100.89 54.49 101.23 54.91 101.58 54.91 101.93 54.91 102.28 53.65 102.63 53.22 102.98 51.53 103.33 51.53 103.68 52.38 104.03 51.95 104.38 52.8 104.73 52.8 105.08 51.11 105.42 50.68 105.77 51.11 106.12 51.53 106.47 51.95 106.82 51.11 107.17 50.26 107.52 48.57 107.87 48.15 108.22 46.88 108.57 46.88 108.92 46.88 109.26 45.61 109.61 45.19 109.96 42.65 110.31 40.53 110.66 39.26 111.01 41.38 111.36 43.49 111.71 45.19 112.06 46.45 112.41 46.88 112.76 47.3 113.11 47.72 113.45 47.72 113.8 49.84 114.15 50.26 114.5 50.68 114.85 51.95 115.2 51.53 115.55 51.53 115.9 52.38 116.25 53.22 116.6 54.91 116.95 54.91 117.3 54.91 117.64 54.91 117.99 54.91 118.34 54.91 118.69 54.91 119.04 54.91 119.39 54.91 119.74 54.91 120.09 54.91 120.44 52.8 120.79 52.8 121.14 53.22 121.48 53.22 121.83 54.49 122.18 54.49 122.53 54.07 122.88 54.07 123.23 54.49 123.58 54.49 123.93 54.91 124.28 54.91 124.63 54.91 124.98 54.91 125.33 54.91 125.67 54.91 126.02 54.91 126.37 54.91 126.72 54.91 127.07 54.91 127.42 54.91 127.77 54.91 128.12 54.91 128.47 54.91 128.82 54.91 129.17 54.91 129.51 54.91 129.86 54.91 130.21 54.91 130.56 54.91 130.91 54.91 131.26 54.91 131.61 54.91 131.96 54.91 132.31 54.91 132.66 54.91 133.01 54.91 133.36 54.91 133.7 54.91 134.05 54.91 134.4 54.91 134.75 54.91 135.1 54.91 135.45 54.91 135.8 54.91 136.15 54.91 136.5 54.91 136.85 54.91 137.2 54.91 137.55 54.91 137.89 54.91 138.24 54.91 138.59 54.91 138.94 54.91 139.29 54.91 139.64 54.91 139.99 54.91 140.34 54.91 140.69 54.91 141.04 54.91 141.39 54.91 141.73 54.91 142.08 54.91 142.43 54.91 142.78 54.91 143.13 54.91 143.48 54.91 143.83 54.91 144.18 54.91 144.53 54.91 144.88 54.91 145.23 54.91 145.58 54.91 145.92 54.91 146.27 54.91 146.62 54.91 146.97 54.91 147.32 54.91 147.67 54.91 148.02 54.91 148.37 54.91 148.72 54.91 149.07 54.91 149.42 54.91 149.76 54.91 150.11 54.91 150.46 54.91 150.81 54.91 151.16 54.91 151.51 54.91 151.86 54.91 152.21 54.91 152.56 54.91 152.91 54.91 153.26 54.91 153.61 54.91 153.95 54.91 154.3 54.91 154.65 54.91 155 54.91 155.35 54.91 155.7 54.91 156.05 54.91 156.4 54.91 156.75 54.91 157.1 54.91 157.45 54.91 157.79 54.91 158.14 54.91 158.49 54.91 158.84 54.91 159.19 54.91 159.54 54.91 159.89 54.91 160.24 54.91 160.59 54.91 160.94 54.91 161.29 54.91 161.64 54.91 161.98 54.91 162.33 54.91 162.68 54.91 163.03 54.91 163.38 54.91 163.73 54.91 164.08 54.91 164.43 54.91 164.78 54.91 165.13 54.91 165.48 54.91 165.83 54.91 166.17 54.91 166.52 54.91 166.87 54.91 167.22 54.91 167.57 54.91 167.92 54.91 168.27 54.91 168.62 54.91 168.97 54.91 169.32 54.91 169.67 54.91 170.01 54.91 170.36 54.91 170.71 54.91 171.06 54.91 171.41 54.91 171.76 54.91 172.11 54.91 172.46 54.91 172.81 54.91 173.16 54.91 173.51 54.91 173.86 54.91 174.2 54.91 174.55 54.91 174.9 54.91 175.25 54.91 175.6 54.91 175.95 54.91 176.3 54.91 176.65 54.91 177 54.91 177.35 54.91 177.7 54.91 178.04 54.91 178.39 54.91 178.74 54.91 179.09 54.91 179.44 54.91 179.79 54.91 180.14 54.91 180.49 54.91 180.84 54.91 181.19 54.91 181.54 54.91 181.89 54.91 182.23 54.91 182.58 54.91 182.93 54.91 183.28 54.91 183.63 54.91 183.98 54.91 184.33 54.91 184.68 54.91 185.03 54.91 185.38 54.91 185.73 54.91 186.08 54.91 186.42 54.91 186.77 54.91 187.12 54.91 187.47 54.91 187.82 54.91 188.17 54.91 188.52 54.91 188.87 54.91 189.22 54.91 189.57 54.91 189.92 54.91 190.26 54.91 190.61 54.91 190.96 54.91 191.31 54.91 191.66 54.91 192.01 54.91 192.36 54.91 192.71 54.91 193.06 54.91 193.41 54.91 193.76 54.91 194.11 54.91 194.45 54.91 194.8 54.91 195.15 54.91 195.5 54.91 195.85 54.91 196.2 54.91"/>
      </g>
    </g>
  </g>
</g>
  <g class="guide ylabels" font-size="2.82" font-family="'PT Sans Caption','Helvetica Neue','Helvetica',sans-serif" fill="#000000" id="img-356a73f5-40">
    <text x="18.63" y="54.91" text-anchor="end" dy="0.35em">0</text>
    <text x="18.63" y="33.76" text-anchor="end" dy="0.35em">50</text>
    <text x="18.63" y="12.61" text-anchor="end" dy="0.35em">100</text>
  </g>
  <g font-size="3.88" font-family="'PT Sans','Helvetica Neue','Helvetica',sans-serif" fill="#000000" stroke="#000000" stroke-opacity="0.000" id="img-356a73f5-41">
    <text x="8.81" y="31.76" text-anchor="middle" dy="0.35em" transform="rotate(-90, 8.81, 33.76)">population size</text>
  </g>
  <g font-size="3.88" font-family="'PT Sans','Helvetica Neue','Helvetica',sans-serif" fill="#000000" stroke="#000000" stroke-opacity="0.000" id="img-356a73f5-42">
    <text x="108.92" y="5" text-anchor="middle" dy="0.6em">genetic drift with mutationrate  = 0.0001 </text>
  </g>
</g>
<defs>
  <clipPath id="img-356a73f5-8">
  <path d="M17.96,86.81 L 174.03 86.81 174.03 133.11 17.96 133.11" />
</clipPath>
  <clipPath id="img-356a73f5-24">
  <path d="M19.63,10.61 L 198.2 10.61 198.2 56.91 19.63 56.91" />
</clipPath>
</defs>
</svg>
