<?xml version="1.0" encoding="UTF-8"?>
<svg xmlns="http://www.w3.org/2000/svg"
     xmlns:xlink="http://www.w3.org/1999/xlink"
     xmlns:gadfly="http://www.gadflyjl.org/ns"
     version="1.2"
     width="203.2mm" height="152.4mm" viewBox="0 0 203.2 152.4"
     stroke="none"
     fill="#000000"
     stroke-width="0.3"
     font-size="3.88"
>
<g class="plotroot xscalable yscalable" id="img-ae213feb-1">
  <g font-size="3.88" font-family="'PT Sans','Helvetica Neue','Helvetica',sans-serif" fill="#000000" stroke="#000000" stroke-opacity="0.000" id="img-ae213feb-2">
    <text x="108.92" y="140.79" text-anchor="middle" dy="0.6em">generation number</text>
  </g>
  <g class="guide xlabels" font-size="2.82" font-family="'PT Sans Caption','Helvetica Neue','Helvetica',sans-serif" fill="#000000" id="img-ae213feb-3">
    <text x="21.63" y="134.11" text-anchor="middle" dy="0.6em">0</text>
    <text x="56.55" y="134.11" text-anchor="middle" dy="0.6em">100</text>
    <text x="91.46" y="134.11" text-anchor="middle" dy="0.6em">200</text>
    <text x="126.37" y="134.11" text-anchor="middle" dy="0.6em">300</text>
    <text x="161.29" y="134.11" text-anchor="middle" dy="0.6em">400</text>
    <text x="196.2" y="134.11" text-anchor="middle" dy="0.6em">500</text>
  </g>
<g clip-path="url(#img-ae213feb-4)">
  <g id="img-ae213feb-5">
    <g pointer-events="visible" opacity="1" fill="#FFFFFF" stroke="#000000" stroke-opacity="0.000" class="guide background" id="img-ae213feb-6">
      <rect x="19.63" y="10.61" width="178.57" height="122.5"/>
    </g>
    <g class="guide ygridlines xfixed" stroke-dasharray="0.5,0.5" stroke-width="0.2" stroke="#808080" id="img-ae213feb-7">
      <path fill="none" d="M19.63,131.11 L 198.2 131.11"/>
      <path fill="none" d="M19.63,71.86 L 198.2 71.86"/>
      <path fill="none" d="M19.63,12.61 L 198.2 12.61"/>
    </g>
    <g class="guide xgridlines yfixed" stroke-dasharray="0.5,0.5" stroke-width="0.2" stroke="#808080" id="img-ae213feb-8">
      <path fill="none" d="M21.63,10.61 L 21.63 133.11"/>
      <path fill="none" d="M56.55,10.61 L 56.55 133.11"/>
      <path fill="none" d="M91.46,10.61 L 91.46 133.11"/>
      <path fill="none" d="M126.37,10.61 L 126.37 133.11"/>
      <path fill="none" d="M161.29,10.61 L 161.29 133.11"/>
      <path fill="none" d="M196.2,10.61 L 196.2 133.11"/>
    </g>
    <g class="plotpanel" id="img-ae213feb-9">
      <g stroke-width="0.3" fill="#000000" fill-opacity="0.000" class="geometry" stroke-dasharray="none" stroke="#3288BD" id="img-ae213feb-10">
        <path fill="none" d="M21.98,71.86 L 22.33 67.12 22.68 70.68 23.03 69.49 23.38 70.68 23.73 65.94 24.08 71.86 24.42 70.68 24.77 67.12 25.12 67.12 25.47 61.2 25.82 75.42 26.17 76.6 26.52 67.12 26.87 61.2 27.22 54.09 27.57 45.79 27.92 38.68 28.27 32.76 28.61 38.68 28.96 35.13 29.31 37.5 29.66 41.05 30.01 39.87 30.36 48.16 30.71 52.9 31.06 33.94 31.41 36.31 31.76 38.68 32.11 39.87 32.45 41.05 32.8 32.76 33.15 32.76 33.5 33.94 33.85 25.65 34.2 24.46 34.55 33.94 34.9 33.94 35.25 38.68 35.6 42.24 35.95 39.87 36.3 36.31 36.64 48.16 36.99 55.27 37.34 39.87 37.69 39.87 38.04 32.76 38.39 29.2 38.74 37.5 39.09 37.5 39.44 46.98 39.79 50.53 40.14 50.53 40.49 48.16 40.83 41.05 41.18 42.24 41.53 46.98 41.88 48.16 42.23 43.42 42.58 42.24 42.93 41.05 43.28 38.68 43.63 45.79 43.98 44.61 44.33 48.16 44.67 52.9 45.02 50.53 45.37 56.46 45.72 65.94 46.07 69.49 46.42 64.75 46.77 61.2 47.12 55.27 47.47 64.75 47.82 65.94 48.17 64.75 48.52 60.01 48.86 56.46 49.21 57.64 49.56 55.27 49.91 60.01 50.26 70.68 50.61 71.86 50.96 75.42 51.31 65.94 51.66 58.83 52.01 57.64 52.36 58.83 52.7 61.2 53.05 58.83 53.4 56.46 53.75 65.94 54.1 57.64 54.45 49.35 54.8 48.16 55.15 52.9 55.5 55.27 55.85 58.83 56.2 55.27 56.55 52.9 56.89 60.01 57.24 56.46 57.59 57.64 57.94 60.01 58.29 63.57 58.64 58.83 58.99 63.57 59.34 57.64 59.69 49.35 60.04 50.53 60.39 43.42 60.73 46.98 61.08 46.98 61.43 45.79 61.78 44.61 62.13 42.24 62.48 33.94 62.83 35.13 63.18 31.57 63.53 33.94 63.88 38.68 64.23 35.13 64.58 38.68 64.92 36.31 65.27 32.76 65.62 28.02 65.97 26.83 66.32 23.28 66.67 25.65 67.02 26.83 67.37 29.2 67.72 33.94 68.07 31.57 68.42 31.57 68.77 32.76 69.11 29.2 69.46 28.02 69.81 29.2 70.16 30.39 70.51 25.65 70.86 19.72 71.21 22.09 71.56 25.65 71.91 24.46 72.26 33.94 72.61 42.24 72.95 45.79 73.3 42.24 73.65 43.42 74 38.68 74.35 43.42 74.7 49.35 75.05 60.01 75.4 55.27 75.75 60.01 76.1 56.46 76.45 55.27 76.8 54.09 77.14 52.9 77.49 48.16 77.84 52.9 78.19 48.16 78.54 35.13 78.89 33.94 79.24 31.57 79.59 35.13 79.94 45.79 80.29 41.05 80.64 38.68 80.98 37.5 81.33 39.87 81.68 38.68 82.03 30.39 82.38 33.94 82.73 39.87 83.08 32.76 83.43 31.57 83.78 26.83 84.13 29.2 84.48 25.65 84.83 25.65 85.17 22.09 85.52 24.46 85.87 22.09 86.22 19.72 86.57 20.91 86.92 26.83 87.27 18.54 87.62 17.35 87.97 13.8 88.32 13.8 88.67 13.8 89.02 12.61 89.36 12.61 89.71 12.61 90.06 12.61 90.41 12.61 90.76 12.61 91.11 16.17 91.46 13.8 91.81 16.17 92.16 14.98 92.51 12.61 92.86 12.61 93.2 12.61 93.55 12.61 93.9 12.61 94.25 12.61 94.6 12.61 94.95 12.61 95.3 12.61 95.65 12.61 96 12.61 96.35 12.61 96.7 12.61 97.05 12.61 97.39 12.61 97.74 12.61 98.09 12.61 98.44 13.8 98.79 13.8 99.14 16.17 99.49 14.98 99.84 14.98 100.19 14.98 100.54 14.98 100.89 14.98 101.23 16.17 101.58 17.35 101.93 18.54 102.28 23.28 102.63 23.28 102.98 31.57 103.33 32.76 103.68 33.94 104.03 35.13 104.38 35.13 104.73 32.76 105.08 32.76 105.42 38.68 105.77 42.24 106.12 48.16 106.47 42.24 106.82 44.61 107.17 51.72 107.52 52.9 107.87 55.27 108.22 50.53 108.57 36.31 108.92 41.05 109.26 43.42 109.61 55.27 109.96 55.27 110.31 60.01 110.66 65.94 111.01 51.72 111.36 55.27 111.71 54.09 112.06 56.46 112.41 63.57 112.76 64.75 113.11 68.31 113.45 67.12 113.8 64.75 114.15 63.57 114.5 55.27 114.85 57.64 115.2 50.53 115.55 57.64 115.9 65.94 116.25 56.46 116.6 50.53 116.95 61.2 117.3 61.2 117.64 58.83 117.99 51.72 118.34 55.27 118.69 62.38 119.04 55.27 119.39 50.53 119.74 45.79 120.09 39.87 120.44 37.5 120.79 39.87 121.14 37.5 121.48 36.31 121.83 39.87 122.18 36.31 122.53 41.05 122.88 44.61 123.23 42.24 123.58 44.61 123.93 48.16 124.28 42.24 124.63 50.53 124.98 49.35 125.33 54.09 125.67 56.46 126.02 56.46 126.37 51.72 126.72 62.38 127.07 62.38 127.42 67.12 127.77 62.38 128.12 63.57 128.47 63.57 128.82 64.75 129.17 65.94 129.51 63.57 129.86 63.57 130.21 68.31 130.56 69.49 130.91 63.57 131.26 63.57 131.61 57.64 131.96 55.27 132.31 61.2 132.66 54.09 133.01 52.9 133.36 39.87 133.7 35.13 134.05 38.68 134.4 36.31 134.75 36.31 135.1 36.31 135.45 35.13 135.8 24.46 136.15 25.65 136.5 25.65 136.85 28.02 137.2 26.83 137.55 25.65 137.89 29.2 138.24 31.57 138.59 35.13 138.94 46.98 139.29 48.16 139.64 48.16 139.99 62.38 140.34 55.27 140.69 51.72 141.04 48.16 141.39 41.05 141.73 45.79 142.08 52.9 142.43 44.61 142.78 36.31 143.13 33.94 143.48 30.39 143.83 31.57 144.18 33.94 144.53 33.94 144.88 32.76 145.23 31.57 145.58 29.2 145.92 23.28 146.27 29.2 146.62 32.76 146.97 32.76 147.32 31.57 147.67 31.57 148.02 35.13 148.37 44.61 148.72 48.16 149.07 52.9 149.42 60.01 149.76 57.64 150.11 60.01 150.46 57.64 150.81 51.72 151.16 51.72 151.51 51.72 151.86 55.27 152.21 60.01 152.56 69.49 152.91 64.75 153.26 52.9 153.61 54.09 153.95 51.72 154.3 55.27 154.65 54.09 155 49.35 155.35 52.9 155.7 54.09 156.05 50.53 156.4 57.64 156.75 62.38 157.1 71.86 157.45 78.97 157.79 92.01 158.14 87.27 158.49 90.82 158.84 88.45 159.19 86.08 159.54 86.08 159.89 95.56 160.24 94.38 160.59 95.56 160.94 84.9 161.29 86.08 161.64 86.08 161.98 84.9 162.33 82.53 162.68 82.53 163.03 77.79 163.38 75.42 163.73 74.23 164.08 89.64 164.43 84.9 164.78 84.9 165.13 84.9 165.48 83.71 165.83 82.53 166.17 80.16 166.52 77.79 166.87 77.79 167.22 73.05 167.57 69.49 167.92 80.16 168.27 81.34 168.62 78.97 168.97 77.79 169.32 87.27 169.67 93.19 170.01 92.01 170.36 95.56 170.71 99.12 171.06 97.93 171.41 94.38 171.76 97.93 172.11 103.86 172.46 105.04 172.81 94.38 173.16 106.23 173.51 109.78 173.86 102.67 174.2 97.93 174.55 97.93 174.9 105.04 175.25 100.3 175.6 96.75 175.95 94.38 176.3 95.56 176.65 87.27 177 93.19 177.35 94.38 177.7 103.86 178.04 95.56 178.39 96.75 178.74 97.93 179.09 95.56 179.44 95.56 179.79 92.01 180.14 87.27 180.49 77.79 180.84 84.9 181.19 74.23 181.54 73.05 181.89 71.86 182.23 76.6 182.58 74.23 182.93 80.16 183.28 77.79 183.63 70.68 183.98 76.6 184.33 68.31 184.68 68.31 185.03 71.86 185.38 78.97 185.73 74.23 186.08 82.53 186.42 90.82 186.77 101.49 187.12 103.86 187.47 99.12 187.82 96.75 188.17 96.75 188.52 92.01 188.87 95.56 189.22 95.56 189.57 92.01 189.92 102.67 190.26 101.49 190.61 107.41 190.96 107.41 191.31 102.67 191.66 103.86 192.01 95.56 192.36 102.67 192.71 100.3 193.06 89.64 193.41 94.38 193.76 87.27 194.11 88.45 194.45 84.9 194.8 82.53 195.15 81.34 195.5 69.49 195.85 73.05 196.2 68.31"/>
      </g>
      <g stroke-width="0.3" fill="#000000" fill-opacity="0.000" class="geometry" stroke-dasharray="none" stroke="#66C2A5" id="img-ae213feb-11">
        <path fill="none" d="M21.98,71.86 L 22.33 76.6 22.68 71.86 23.03 67.12 23.38 73.05 23.73 75.42 24.08 77.79 24.42 70.68 24.77 67.12 25.12 70.68 25.47 70.68 25.82 64.75 26.17 54.09 26.52 58.83 26.87 55.27 27.22 51.72 27.57 52.9 27.92 50.53 28.27 41.05 28.61 37.5 28.96 26.83 29.31 23.28 29.66 19.72 30.01 16.17 30.36 18.54 30.71 20.91 31.06 17.35 31.41 14.98 31.76 12.61 32.11 12.61 32.45 12.61 32.8 12.61 33.15 14.98 33.5 13.8 33.85 13.8 34.2 12.61 34.55 12.61 34.9 12.61 35.25 12.61 35.6 12.61 35.95 12.61 36.3 12.61 36.64 12.61 36.99 12.61 37.34 12.61 37.69 12.61 38.04 12.61 38.39 12.61 38.74 12.61 39.09 12.61 39.44 12.61 39.79 12.61 40.14 12.61 40.49 12.61 40.83 12.61 41.18 12.61 41.53 13.8 41.88 14.98 42.23 16.17 42.58 17.35 42.93 19.72 43.28 19.72 43.63 19.72 43.98 20.91 44.33 23.28 44.67 22.09 45.02 24.46 45.37 20.91 45.72 17.35 46.07 14.98 46.42 14.98 46.77 13.8 47.12 14.98 47.47 14.98 47.82 17.35 48.17 16.17 48.52 19.72 48.86 20.91 49.21 20.91 49.56 22.09 49.91 24.46 50.26 23.28 50.61 24.46 50.96 20.91 51.31 24.46 51.66 28.02 52.01 30.39 52.36 37.5 52.7 39.87 53.05 41.05 53.4 36.31 53.75 28.02 54.1 24.46 54.45 28.02 54.8 26.83 55.15 24.46 55.5 17.35 55.85 14.98 56.2 14.98 56.55 12.61 56.89 12.61 57.24 12.61 57.59 12.61 57.94 12.61 58.29 12.61 58.64 16.17 58.99 16.17 59.34 16.17 59.69 17.35 60.04 16.17 60.39 16.17 60.73 14.98 61.08 13.8 61.43 13.8 61.78 13.8 62.13 14.98 62.48 14.98 62.83 13.8 63.18 13.8 63.53 14.98 63.88 14.98 64.23 14.98 64.58 17.35 64.92 24.46 65.27 26.83 65.62 22.09 65.97 20.91 66.32 18.54 66.67 18.54 67.02 24.46 67.37 24.46 67.72 19.72 68.07 22.09 68.42 23.28 68.77 23.28 69.11 18.54 69.46 19.72 69.81 25.65 70.16 23.28 70.51 23.28 70.86 23.28 71.21 17.35 71.56 16.17 71.91 18.54 72.26 20.91 72.61 16.17 72.95 16.17 73.3 13.8 73.65 13.8 74 13.8 74.35 16.17 74.7 16.17 75.05 16.17 75.4 18.54 75.75 19.72 76.1 20.91 76.45 18.54 76.8 19.72 77.14 14.98 77.49 13.8 77.84 13.8 78.19 13.8 78.54 13.8 78.89 12.61 79.24 13.8 79.59 13.8 79.94 14.98 80.29 17.35 80.64 16.17 80.98 17.35 81.33 16.17 81.68 12.61 82.03 12.61 82.38 12.61 82.73 12.61 83.08 12.61 83.43 12.61 83.78 12.61 84.13 12.61 84.48 12.61 84.83 12.61 85.17 16.17 85.52 14.98 85.87 12.61 86.22 12.61 86.57 12.61 86.92 12.61 87.27 12.61 87.62 12.61 87.97 12.61 88.32 12.61 88.67 12.61 89.02 12.61 89.36 12.61 89.71 12.61 90.06 12.61 90.41 12.61 90.76 12.61 91.11 12.61 91.46 12.61 91.81 12.61 92.16 12.61 92.51 12.61 92.86 12.61 93.2 12.61 93.55 12.61 93.9 12.61 94.25 12.61 94.6 12.61 94.95 13.8 95.3 16.17 95.65 13.8 96 13.8 96.35 19.72 96.7 24.46 97.05 28.02 97.39 25.65 97.74 23.28 98.09 19.72 98.44 20.91 98.79 14.98 99.14 14.98 99.49 14.98 99.84 14.98 100.19 14.98 100.54 16.17 100.89 16.17 101.23 16.17 101.58 13.8 101.93 14.98 102.28 16.17 102.63 13.8 102.98 12.61 103.33 12.61 103.68 12.61 104.03 12.61 104.38 12.61 104.73 12.61 105.08 12.61 105.42 13.8 105.77 14.98 106.12 13.8 106.47 16.17 106.82 14.98 107.17 13.8 107.52 12.61 107.87 12.61 108.22 12.61 108.57 12.61 108.92 12.61 109.26 12.61 109.61 14.98 109.96 20.91 110.31 20.91 110.66 17.35 111.01 13.8 111.36 12.61 111.71 12.61 112.06 14.98 112.41 16.17 112.76 14.98 113.11 14.98 113.45 13.8 113.8 12.61 114.15 12.61 114.5 12.61 114.85 12.61 115.2 13.8 115.55 12.61 115.9 12.61 116.25 12.61 116.6 12.61 116.95 12.61 117.3 12.61 117.64 12.61 117.99 12.61 118.34 12.61 118.69 12.61 119.04 12.61 119.39 12.61 119.74 12.61 120.09 12.61 120.44 12.61 120.79 12.61 121.14 12.61 121.48 14.98 121.83 14.98 122.18 16.17 122.53 16.17 122.88 13.8 123.23 12.61 123.58 12.61 123.93 12.61 124.28 12.61 124.63 12.61 124.98 12.61 125.33 12.61 125.67 12.61 126.02 12.61 126.37 12.61 126.72 12.61 127.07 12.61 127.42 12.61 127.77 12.61 128.12 12.61 128.47 12.61 128.82 12.61 129.17 12.61 129.51 12.61 129.86 12.61 130.21 12.61 130.56 12.61 130.91 12.61 131.26 12.61 131.61 12.61 131.96 12.61 132.31 12.61 132.66 12.61 133.01 12.61 133.36 12.61 133.7 12.61 134.05 12.61 134.4 12.61 134.75 12.61 135.1 12.61 135.45 12.61 135.8 12.61 136.15 12.61 136.5 12.61 136.85 12.61 137.2 12.61 137.55 12.61 137.89 12.61 138.24 12.61 138.59 12.61 138.94 12.61 139.29 12.61 139.64 12.61 139.99 12.61 140.34 12.61 140.69 12.61 141.04 12.61 141.39 12.61 141.73 12.61 142.08 12.61 142.43 12.61 142.78 12.61 143.13 12.61 143.48 12.61 143.83 17.35 144.18 18.54 144.53 20.91 144.88 24.46 145.23 31.57 145.58 29.2 145.92 33.94 146.27 28.02 146.62 31.57 146.97 30.39 147.32 33.94 147.67 39.87 148.02 35.13 148.37 31.57 148.72 26.83 149.07 24.46 149.42 26.83 149.76 26.83 150.11 25.65 150.46 20.91 150.81 17.35 151.16 20.91 151.51 18.54 151.86 16.17 152.21 12.61 152.56 12.61 152.91 12.61 153.26 12.61 153.61 12.61 153.95 12.61 154.3 12.61 154.65 14.98 155 12.61 155.35 12.61 155.7 14.98 156.05 17.35 156.4 18.54 156.75 18.54 157.1 22.09 157.45 19.72 157.79 22.09 158.14 19.72 158.49 20.91 158.84 23.28 159.19 20.91 159.54 24.46 159.89 25.65 160.24 22.09 160.59 24.46 160.94 26.83 161.29 31.57 161.64 26.83 161.98 28.02 162.33 31.57 162.68 35.13 163.03 35.13 163.38 31.57 163.73 36.31 164.08 33.94 164.43 28.02 164.78 23.28 165.13 28.02 165.48 29.2 165.83 29.2 166.17 28.02 166.52 26.83 166.87 26.83 167.22 19.72 167.57 18.54 167.92 16.17 168.27 16.17 168.62 14.98 168.97 16.17 169.32 17.35 169.67 18.54 170.01 23.28 170.36 26.83 170.71 23.28 171.06 25.65 171.41 23.28 171.76 22.09 172.11 19.72 172.46 23.28 172.81 28.02 173.16 30.39 173.51 26.83 173.86 31.57 174.2 24.46 174.55 24.46 174.9 19.72 175.25 17.35 175.6 19.72 175.95 25.65 176.3 23.28 176.65 28.02 177 23.28 177.35 23.28 177.7 24.46 178.04 25.65 178.39 30.39 178.74 26.83 179.09 29.2 179.44 31.57 179.79 35.13 180.14 26.83 180.49 28.02 180.84 30.39 181.19 31.57 181.54 26.83 181.89 30.39 182.23 32.76 182.58 25.65 182.93 22.09 183.28 18.54 183.63 19.72 183.98 23.28 184.33 20.91 184.68 20.91 185.03 16.17 185.38 17.35 185.73 12.61 186.08 12.61 186.42 12.61 186.77 12.61 187.12 12.61 187.47 12.61 187.82 12.61 188.17 12.61 188.52 12.61 188.87 12.61 189.22 12.61 189.57 12.61 189.92 12.61 190.26 12.61 190.61 12.61 190.96 12.61 191.31 12.61 191.66 12.61 192.01 12.61 192.36 12.61 192.71 12.61 193.06 12.61 193.41 12.61 193.76 12.61 194.11 12.61 194.45 12.61 194.8 12.61 195.15 12.61 195.5 12.61 195.85 12.61 196.2 13.8"/>
      </g>
      <g stroke-width="0.3" fill="#000000" fill-opacity="0.000" class="geometry" stroke-dasharray="none" stroke="#ABDDA4" id="img-ae213feb-12">
        <path fill="none" d="M21.98,71.86 L 22.33 69.49 22.68 65.94 23.03 64.75 23.38 64.75 23.73 70.68 24.08 77.79 24.42 74.23 24.77 81.34 25.12 87.27 25.47 88.45 25.82 92.01 26.17 87.27 26.52 87.27 26.87 83.71 27.22 81.34 27.57 80.16 27.92 83.71 28.27 71.86 28.61 75.42 28.96 75.42 29.31 68.31 29.66 65.94 30.01 68.31 30.36 67.12 30.71 76.6 31.06 71.86 31.41 67.12 31.76 67.12 32.11 63.57 32.45 73.05 32.8 70.68 33.15 62.38 33.5 65.94 33.85 58.83 34.2 61.2 34.55 60.01 34.9 62.38 35.25 61.2 35.6 62.38 35.95 65.94 36.3 65.94 36.64 67.12 36.99 68.31 37.34 65.94 37.69 57.64 38.04 61.2 38.39 65.94 38.74 64.75 39.09 68.31 39.44 75.42 39.79 84.9 40.14 81.34 40.49 75.42 40.83 80.16 41.18 84.9 41.53 90.82 41.88 93.19 42.23 87.27 42.58 94.38 42.93 95.56 43.28 94.38 43.63 99.12 43.98 103.86 44.33 99.12 44.67 100.3 45.02 100.3 45.37 107.41 45.72 106.23 46.07 105.04 46.42 108.6 46.77 110.97 47.12 116.89 47.47 114.52 47.82 110.97 48.17 105.04 48.52 102.67 48.86 106.23 49.21 105.04 49.56 101.49 49.91 92.01 50.26 88.45 50.61 77.79 50.96 77.79 51.31 80.16 51.66 80.16 52.01 84.9 52.36 95.56 52.7 99.12 53.05 101.49 53.4 101.49 53.75 94.38 54.1 100.3 54.45 97.93 54.8 94.38 55.15 82.53 55.5 84.9 55.85 92.01 56.2 87.27 56.55 81.34 56.89 77.79 57.24 74.23 57.59 77.79 57.94 75.42 58.29 77.79 58.64 75.42 58.99 70.68 59.34 70.68 59.69 65.94 60.04 65.94 60.39 60.01 60.73 63.57 61.08 65.94 61.43 70.68 61.78 68.31 62.13 84.9 62.48 84.9 62.83 97.93 63.18 90.82 63.53 83.71 63.88 84.9 64.23 81.34 64.58 84.9 64.92 80.16 65.27 70.68 65.62 68.31 65.97 74.23 66.32 74.23 66.67 75.42 67.02 73.05 67.37 80.16 67.72 64.75 68.07 76.6 68.42 77.79 68.77 83.71 69.11 70.68 69.46 77.79 69.81 80.16 70.16 78.97 70.51 70.68 70.86 60.01 71.21 63.57 71.56 68.31 71.91 64.75 72.26 67.12 72.61 70.68 72.95 74.23 73.3 77.79 73.65 78.97 74 78.97 74.35 75.42 74.7 78.97 75.05 74.23 75.4 76.6 75.75 75.42 76.1 69.49 76.45 58.83 76.8 43.42 77.14 42.24 77.49 44.61 77.84 42.24 78.19 42.24 78.54 38.68 78.89 30.39 79.24 36.31 79.59 42.24 79.94 48.16 80.29 43.42 80.64 44.61 80.98 45.79 81.33 45.79 81.68 48.16 82.03 48.16 82.38 61.2 82.73 62.38 83.08 64.75 83.43 49.35 83.78 43.42 84.13 45.79 84.48 50.53 84.83 48.16 85.17 44.61 85.52 35.13 85.87 25.65 86.22 19.72 86.57 20.91 86.92 20.91 87.27 19.72 87.62 19.72 87.97 19.72 88.32 19.72 88.67 17.35 89.02 18.54 89.36 17.35 89.71 13.8 90.06 13.8 90.41 13.8 90.76 13.8 91.11 14.98 91.46 16.17 91.81 17.35 92.16 19.72 92.51 19.72 92.86 18.54 93.2 19.72 93.55 22.09 93.9 17.35 94.25 13.8 94.6 12.61 94.95 12.61 95.3 12.61 95.65 12.61 96 12.61 96.35 12.61 96.7 12.61 97.05 12.61 97.39 12.61 97.74 12.61 98.09 12.61 98.44 12.61 98.79 12.61 99.14 12.61 99.49 12.61 99.84 12.61 100.19 12.61 100.54 12.61 100.89 12.61 101.23 12.61 101.58 12.61 101.93 12.61 102.28 12.61 102.63 12.61 102.98 12.61 103.33 12.61 103.68 12.61 104.03 12.61 104.38 12.61 104.73 12.61 105.08 12.61 105.42 12.61 105.77 12.61 106.12 12.61 106.47 12.61 106.82 12.61 107.17 12.61 107.52 12.61 107.87 12.61 108.22 12.61 108.57 13.8 108.92 14.98 109.26 16.17 109.61 16.17 109.96 14.98 110.31 13.8 110.66 13.8 111.01 12.61 111.36 14.98 111.71 14.98 112.06 14.98 112.41 12.61 112.76 12.61 113.11 12.61 113.45 12.61 113.8 12.61 114.15 12.61 114.5 12.61 114.85 12.61 115.2 12.61 115.55 12.61 115.9 12.61 116.25 12.61 116.6 12.61 116.95 12.61 117.3 12.61 117.64 12.61 117.99 12.61 118.34 12.61 118.69 12.61 119.04 12.61 119.39 12.61 119.74 14.98 120.09 14.98 120.44 14.98 120.79 13.8 121.14 13.8 121.48 12.61 121.83 12.61 122.18 12.61 122.53 12.61 122.88 12.61 123.23 12.61 123.58 12.61 123.93 12.61 124.28 12.61 124.63 12.61 124.98 12.61 125.33 12.61 125.67 12.61 126.02 12.61 126.37 12.61 126.72 12.61 127.07 12.61 127.42 12.61 127.77 12.61 128.12 12.61 128.47 12.61 128.82 12.61 129.17 12.61 129.51 12.61 129.86 12.61 130.21 14.98 130.56 13.8 130.91 14.98 131.26 18.54 131.61 17.35 131.96 16.17 132.31 16.17 132.66 14.98 133.01 13.8 133.36 16.17 133.7 17.35 134.05 16.17 134.4 17.35 134.75 18.54 135.1 14.98 135.45 14.98 135.8 16.17 136.15 16.17 136.5 17.35 136.85 16.17 137.2 14.98 137.55 14.98 137.89 19.72 138.24 16.17 138.59 17.35 138.94 17.35 139.29 22.09 139.64 23.28 139.99 22.09 140.34 22.09 140.69 22.09 141.04 24.46 141.39 23.28 141.73 23.28 142.08 19.72 142.43 24.46 142.78 24.46 143.13 20.91 143.48 26.83 143.83 28.02 144.18 31.57 144.53 41.05 144.88 46.98 145.23 42.24 145.58 36.31 145.92 29.2 146.27 30.39 146.62 26.83 146.97 30.39 147.32 23.28 147.67 19.72 148.02 22.09 148.37 22.09 148.72 18.54 149.07 20.91 149.42 19.72 149.76 20.91 150.11 20.91 150.46 22.09 150.81 22.09 151.16 23.28 151.51 19.72 151.86 23.28 152.21 22.09 152.56 23.28 152.91 20.91 153.26 17.35 153.61 16.17 153.95 16.17 154.3 20.91 154.65 17.35 155 19.72 155.35 19.72 155.7 19.72 156.05 23.28 156.4 23.28 156.75 16.17 157.1 13.8 157.45 12.61 157.79 12.61 158.14 12.61 158.49 12.61 158.84 12.61 159.19 12.61 159.54 12.61 159.89 12.61 160.24 12.61 160.59 12.61 160.94 12.61 161.29 12.61 161.64 12.61 161.98 12.61 162.33 12.61 162.68 12.61 163.03 12.61 163.38 12.61 163.73 12.61 164.08 12.61 164.43 12.61 164.78 12.61 165.13 12.61 165.48 12.61 165.83 12.61 166.17 12.61 166.52 12.61 166.87 12.61 167.22 12.61 167.57 12.61 167.92 12.61 168.27 12.61 168.62 12.61 168.97 12.61 169.32 12.61 169.67 12.61 170.01 12.61 170.36 12.61 170.71 12.61 171.06 12.61 171.41 12.61 171.76 12.61 172.11 12.61 172.46 12.61 172.81 12.61 173.16 12.61 173.51 12.61 173.86 14.98 174.2 13.8 174.55 13.8 174.9 14.98 175.25 16.17 175.6 14.98 175.95 13.8 176.3 12.61 176.65 12.61 177 12.61 177.35 12.61 177.7 12.61 178.04 13.8 178.39 16.17 178.74 13.8 179.09 16.17 179.44 14.98 179.79 16.17 180.14 16.17 180.49 12.61 180.84 12.61 181.19 12.61 181.54 12.61 181.89 12.61 182.23 12.61 182.58 12.61 182.93 12.61 183.28 12.61 183.63 12.61 183.98 12.61 184.33 12.61 184.68 12.61 185.03 12.61 185.38 12.61 185.73 12.61 186.08 12.61 186.42 12.61 186.77 12.61 187.12 12.61 187.47 12.61 187.82 12.61 188.17 12.61 188.52 12.61 188.87 12.61 189.22 12.61 189.57 12.61 189.92 12.61 190.26 12.61 190.61 12.61 190.96 12.61 191.31 12.61 191.66 12.61 192.01 12.61 192.36 12.61 192.71 12.61 193.06 12.61 193.41 12.61 193.76 12.61 194.11 13.8 194.45 13.8 194.8 13.8 195.15 13.8 195.5 13.8 195.85 14.98 196.2 14.98"/>
      </g>
      <g stroke-width="0.3" fill="#000000" fill-opacity="0.000" class="geometry" stroke-dasharray="none" stroke="#E6F598" id="img-ae213feb-13">
        <path fill="none" d="M21.98,71.86 L 22.33 74.23 22.68 74.23 23.03 73.05 23.38 73.05 23.73 77.79 24.08 75.42 24.42 74.23 24.77 80.16 25.12 83.71 25.47 87.27 25.82 88.45 26.17 96.75 26.52 97.93 26.87 95.56 27.22 93.19 27.57 89.64 27.92 86.08 28.27 76.6 28.61 76.6 28.96 81.34 29.31 84.9 29.66 84.9 30.01 84.9 30.36 89.64 30.71 100.3 31.06 100.3 31.41 101.49 31.76 103.86 32.11 108.6 32.45 113.34 32.8 108.6 33.15 108.6 33.5 109.78 33.85 118.08 34.2 116.89 34.55 120.45 34.9 116.89 35.25 119.26 35.6 121.63 35.95 128.74 36.3 131.11 36.64 131.11 36.99 131.11 37.34 131.11 37.69 131.11 38.04 131.11 38.39 131.11 38.74 129.93 39.09 129.93 39.44 128.74 39.79 129.93 40.14 127.56 40.49 126.37 40.83 128.74 41.18 128.74 41.53 131.11 41.88 129.93 42.23 129.93 42.58 131.11 42.93 131.11 43.28 131.11 43.63 131.11 43.98 131.11 44.33 131.11 44.67 131.11 45.02 131.11 45.37 131.11 45.72 131.11 46.07 131.11 46.42 131.11 46.77 129.93 47.12 129.93 47.47 131.11 47.82 131.11 48.17 131.11 48.52 131.11 48.86 131.11 49.21 131.11 49.56 128.74 49.91 128.74 50.26 126.37 50.61 129.93 50.96 131.11 51.31 131.11 51.66 131.11 52.01 131.11 52.36 131.11 52.7 131.11 53.05 131.11 53.4 131.11 53.75 131.11 54.1 131.11 54.45 131.11 54.8 131.11 55.15 131.11 55.5 131.11 55.85 131.11 56.2 131.11 56.55 131.11 56.89 131.11 57.24 131.11 57.59 129.93 57.94 131.11 58.29 131.11 58.64 131.11 58.99 131.11 59.34 131.11 59.69 131.11 60.04 131.11 60.39 131.11 60.73 131.11 61.08 131.11 61.43 131.11 61.78 131.11 62.13 131.11 62.48 131.11 62.83 131.11 63.18 131.11 63.53 131.11 63.88 131.11 64.23 131.11 64.58 131.11 64.92 131.11 65.27 131.11 65.62 131.11 65.97 131.11 66.32 131.11 66.67 131.11 67.02 131.11 67.37 131.11 67.72 131.11 68.07 131.11 68.42 131.11 68.77 131.11 69.11 131.11 69.46 131.11 69.81 131.11 70.16 131.11 70.51 131.11 70.86 131.11 71.21 131.11 71.56 131.11 71.91 131.11 72.26 131.11 72.61 131.11 72.95 131.11 73.3 131.11 73.65 131.11 74 131.11 74.35 131.11 74.7 131.11 75.05 131.11 75.4 131.11 75.75 131.11 76.1 131.11 76.45 131.11 76.8 131.11 77.14 131.11 77.49 131.11 77.84 131.11 78.19 131.11 78.54 131.11 78.89 129.93 79.24 129.93 79.59 128.74 79.94 131.11 80.29 131.11 80.64 131.11 80.98 131.11 81.33 131.11 81.68 131.11 82.03 131.11 82.38 131.11 82.73 131.11 83.08 131.11 83.43 129.93 83.78 131.11 84.13 131.11 84.48 131.11 84.83 131.11 85.17 131.11 85.52 131.11 85.87 131.11 86.22 131.11 86.57 131.11 86.92 131.11 87.27 131.11 87.62 131.11 87.97 131.11 88.32 131.11 88.67 131.11 89.02 131.11 89.36 131.11 89.71 131.11 90.06 129.93 90.41 129.93 90.76 131.11 91.11 131.11 91.46 131.11 91.81 131.11 92.16 131.11 92.51 131.11 92.86 131.11 93.2 131.11 93.55 131.11 93.9 131.11 94.25 131.11 94.6 131.11 94.95 131.11 95.3 131.11 95.65 131.11 96 131.11 96.35 131.11 96.7 131.11 97.05 131.11 97.39 131.11 97.74 131.11 98.09 131.11 98.44 131.11 98.79 131.11 99.14 131.11 99.49 131.11 99.84 131.11 100.19 131.11 100.54 131.11 100.89 131.11 101.23 131.11 101.58 131.11 101.93 131.11 102.28 129.93 102.63 127.56 102.98 126.37 103.33 121.63 103.68 119.26 104.03 122.82 104.38 116.89 104.73 113.34 105.08 107.41 105.42 107.41 105.77 115.71 106.12 119.26 106.47 122.82 106.82 124 107.17 122.82 107.52 124 107.87 116.89 108.22 118.08 108.57 122.82 108.92 124 109.26 126.37 109.61 124 109.96 124 110.31 121.63 110.66 127.56 111.01 127.56 111.36 129.93 111.71 129.93 112.06 127.56 112.41 126.37 112.76 124 113.11 126.37 113.45 122.82 113.8 124 114.15 124 114.5 125.19 114.85 127.56 115.2 124 115.55 125.19 115.9 125.19 116.25 119.26 116.6 118.08 116.95 119.26 117.3 118.08 117.64 115.71 117.99 118.08 118.34 116.89 118.69 124 119.04 126.37 119.39 125.19 119.74 119.26 120.09 124 120.44 121.63 120.79 122.82 121.14 120.45 121.48 122.82 121.83 125.19 122.18 128.74 122.53 128.74 122.88 128.74 123.23 128.74 123.58 129.93 123.93 131.11 124.28 131.11 124.63 131.11 124.98 131.11 125.33 131.11 125.67 129.93 126.02 131.11 126.37 131.11 126.72 131.11 127.07 131.11 127.42 131.11 127.77 131.11 128.12 131.11 128.47 131.11 128.82 131.11 129.17 131.11 129.51 131.11 129.86 131.11 130.21 131.11 130.56 131.11 130.91 131.11 131.26 131.11 131.61 131.11 131.96 131.11 132.31 131.11 132.66 131.11 133.01 131.11 133.36 131.11 133.7 131.11 134.05 131.11 134.4 131.11 134.75 131.11 135.1 131.11 135.45 131.11 135.8 131.11 136.15 131.11 136.5 131.11 136.85 131.11 137.2 131.11 137.55 131.11 137.89 131.11 138.24 131.11 138.59 131.11 138.94 131.11 139.29 131.11 139.64 131.11 139.99 131.11 140.34 131.11 140.69 131.11 141.04 131.11 141.39 131.11 141.73 131.11 142.08 131.11 142.43 131.11 142.78 131.11 143.13 131.11 143.48 131.11 143.83 131.11 144.18 131.11 144.53 131.11 144.88 131.11 145.23 131.11 145.58 131.11 145.92 131.11 146.27 131.11 146.62 129.93 146.97 127.56 147.32 126.37 147.67 125.19 148.02 126.37 148.37 122.82 148.72 118.08 149.07 120.45 149.42 120.45 149.76 120.45 150.11 118.08 150.46 116.89 150.81 115.71 151.16 118.08 151.51 124 151.86 121.63 152.21 116.89 152.56 116.89 152.91 118.08 153.26 118.08 153.61 115.71 153.95 115.71 154.3 110.97 154.65 106.23 155 113.34 155.35 107.41 155.7 114.52 156.05 114.52 156.4 110.97 156.75 114.52 157.1 112.15 157.45 109.78 157.79 113.34 158.14 112.15 158.49 114.52 158.84 113.34 159.19 109.78 159.54 108.6 159.89 108.6 160.24 110.97 160.59 113.34 160.94 116.89 161.29 119.26 161.64 114.52 161.98 120.45 162.33 116.89 162.68 119.26 163.03 114.52 163.38 107.41 163.73 110.97 164.08 121.63 164.43 124 164.78 121.63 165.13 119.26 165.48 120.45 165.83 119.26 166.17 109.78 166.52 113.34 166.87 107.41 167.22 112.15 167.57 106.23 167.92 99.12 168.27 101.49 168.62 96.75 168.97 97.93 169.32 95.56 169.67 94.38 170.01 94.38 170.36 94.38 170.71 89.64 171.06 89.64 171.41 87.27 171.76 90.82 172.11 78.97 172.46 80.16 172.81 67.12 173.16 62.38 173.51 58.83 173.86 62.38 174.2 58.83 174.55 54.09 174.9 51.72 175.25 48.16 175.6 50.53 175.95 45.79 176.3 43.42 176.65 46.98 177 51.72 177.35 50.53 177.7 61.2 178.04 57.64 178.39 49.35 178.74 50.53 179.09 55.27 179.44 52.9 179.79 48.16 180.14 45.79 180.49 42.24 180.84 35.13 181.19 32.76 181.54 30.39 181.89 25.65 182.23 24.46 182.58 23.28 182.93 22.09 183.28 17.35 183.63 14.98 183.98 14.98 184.33 13.8 184.68 12.61 185.03 12.61 185.38 12.61 185.73 12.61 186.08 13.8 186.42 12.61 186.77 12.61 187.12 12.61 187.47 12.61 187.82 12.61 188.17 12.61 188.52 12.61 188.87 12.61 189.22 13.8 189.57 12.61 189.92 12.61 190.26 12.61 190.61 12.61 190.96 12.61 191.31 12.61 191.66 12.61 192.01 12.61 192.36 13.8 192.71 13.8 193.06 12.61 193.41 12.61 193.76 12.61 194.11 12.61 194.45 12.61 194.8 12.61 195.15 12.61 195.5 12.61 195.85 12.61 196.2 12.61"/>
      </g>
      <g stroke-width="0.3" fill="#000000" fill-opacity="0.000" class="geometry" stroke-dasharray="none" stroke="#FFFFBF" id="img-ae213feb-14">
        <path fill="none" d="M21.98,71.86 L 22.33 69.49 22.68 70.68 23.03 75.42 23.38 68.31 23.73 80.16 24.08 86.08 24.42 88.45 24.77 95.56 25.12 106.23 25.47 101.49 25.82 96.75 26.17 93.19 26.52 94.38 26.87 87.27 27.22 71.86 27.57 68.31 27.92 62.38 28.27 80.16 28.61 82.53 28.96 80.16 29.31 88.45 29.66 90.82 30.01 95.56 30.36 102.67 30.71 101.49 31.06 102.67 31.41 99.12 31.76 97.93 32.11 100.3 32.45 95.56 32.8 89.64 33.15 101.49 33.5 110.97 33.85 112.15 34.2 114.52 34.55 110.97 34.9 114.52 35.25 108.6 35.6 107.41 35.95 105.04 36.3 99.12 36.64 102.67 36.99 96.75 37.34 95.56 37.69 89.64 38.04 80.16 38.39 80.16 38.74 82.53 39.09 77.79 39.44 80.16 39.79 78.97 40.14 67.12 40.49 67.12 40.83 67.12 41.18 64.75 41.53 63.57 41.88 65.94 42.23 54.09 42.58 41.05 42.93 35.13 43.28 28.02 43.63 30.39 43.98 22.09 44.33 14.98 44.67 17.35 45.02 16.17 45.37 14.98 45.72 14.98 46.07 12.61 46.42 12.61 46.77 14.98 47.12 16.17 47.47 20.91 47.82 14.98 48.17 16.17 48.52 14.98 48.86 17.35 49.21 20.91 49.56 26.83 49.91 28.02 50.26 28.02 50.61 30.39 50.96 30.39 51.31 30.39 51.66 30.39 52.01 38.68 52.36 36.31 52.7 33.94 53.05 36.31 53.4 42.24 53.75 49.35 54.1 54.09 54.45 48.16 54.8 55.27 55.15 52.9 55.5 56.46 55.85 43.42 56.2 48.16 56.55 44.61 56.89 46.98 57.24 55.27 57.59 48.16 57.94 39.87 58.29 42.24 58.64 44.61 58.99 49.35 59.34 49.35 59.69 56.46 60.04 60.01 60.39 51.72 60.73 37.5 61.08 36.31 61.43 33.94 61.78 26.83 62.13 26.83 62.48 28.02 62.83 22.09 63.18 20.91 63.53 16.17 63.88 18.54 64.23 18.54 64.58 17.35 64.92 18.54 65.27 19.72 65.62 20.91 65.97 18.54 66.32 16.17 66.67 17.35 67.02 16.17 67.37 19.72 67.72 14.98 68.07 14.98 68.42 19.72 68.77 17.35 69.11 20.91 69.46 20.91 69.81 19.72 70.16 18.54 70.51 25.65 70.86 25.65 71.21 26.83 71.56 26.83 71.91 26.83 72.26 35.13 72.61 45.79 72.95 49.35 73.3 49.35 73.65 54.09 74 48.16 74.35 52.9 74.7 52.9 75.05 50.53 75.4 52.9 75.75 50.53 76.1 52.9 76.45 49.35 76.8 51.72 77.14 58.83 77.49 64.75 77.84 73.05 78.19 60.01 78.54 58.83 78.89 57.64 79.24 63.57 79.59 63.57 79.94 61.2 80.29 63.57 80.64 57.64 80.98 54.09 81.33 49.35 81.68 54.09 82.03 56.46 82.38 48.16 82.73 42.24 83.08 36.31 83.43 36.31 83.78 30.39 84.13 26.83 84.48 23.28 84.83 25.65 85.17 22.09 85.52 28.02 85.87 25.65 86.22 31.57 86.57 39.87 86.92 31.57 87.27 29.2 87.62 36.31 87.97 36.31 88.32 35.13 88.67 35.13 89.02 35.13 89.36 37.5 89.71 36.31 90.06 42.24 90.41 36.31 90.76 41.05 91.11 39.87 91.46 46.98 91.81 41.05 92.16 44.61 92.51 41.05 92.86 43.42 93.2 39.87 93.55 42.24 93.9 37.5 94.25 36.31 94.6 36.31 94.95 35.13 95.3 33.94 95.65 38.68 96 37.5 96.35 32.76 96.7 41.05 97.05 45.79 97.39 49.35 97.74 50.53 98.09 48.16 98.44 54.09 98.79 61.2 99.14 64.75 99.49 70.68 99.84 63.57 100.19 67.12 100.54 63.57 100.89 63.57 101.23 55.27 101.58 57.64 101.93 62.38 102.28 62.38 102.63 58.83 102.98 67.12 103.33 68.31 103.68 68.31 104.03 69.49 104.38 78.97 104.73 82.53 105.08 88.45 105.42 84.9 105.77 82.53 106.12 87.27 106.47 88.45 106.82 93.19 107.17 99.12 107.52 106.23 107.87 102.67 108.22 103.86 108.57 102.67 108.92 109.78 109.26 105.04 109.61 103.86 109.96 96.75 110.31 93.19 110.66 97.93 111.01 107.41 111.36 103.86 111.71 106.23 112.06 107.41 112.41 114.52 112.76 116.89 113.11 120.45 113.45 116.89 113.8 114.52 114.15 107.41 114.5 108.6 114.85 106.23 115.2 108.6 115.55 101.49 115.9 101.49 116.25 109.78 116.6 112.15 116.95 115.71 117.3 124 117.64 118.08 117.99 114.52 118.34 112.15 118.69 114.52 119.04 112.15 119.39 112.15 119.74 107.41 120.09 105.04 120.44 106.23 120.79 107.41 121.14 103.86 121.48 105.04 121.83 109.78 122.18 109.78 122.53 103.86 122.88 106.23 123.23 99.12 123.58 101.49 123.93 101.49 124.28 103.86 124.63 102.67 124.98 95.56 125.33 101.49 125.67 97.93 126.02 100.3 126.37 94.38 126.72 95.56 127.07 95.56 127.42 89.64 127.77 92.01 128.12 86.08 128.47 81.34 128.82 82.53 129.17 97.93 129.51 95.56 129.86 89.64 130.21 87.27 130.56 75.42 130.91 81.34 131.26 80.16 131.61 90.82 131.96 99.12 132.31 94.38 132.66 96.75 133.01 103.86 133.36 103.86 133.7 108.6 134.05 108.6 134.4 109.78 134.75 114.52 135.1 124 135.45 127.56 135.8 127.56 136.15 128.74 136.5 129.93 136.85 129.93 137.2 129.93 137.55 127.56 137.89 128.74 138.24 127.56 138.59 124 138.94 126.37 139.29 128.74 139.64 129.93 139.99 128.74 140.34 127.56 140.69 125.19 141.04 122.82 141.39 126.37 141.73 122.82 142.08 122.82 142.43 116.89 142.78 119.26 143.13 118.08 143.48 121.63 143.83 122.82 144.18 125.19 144.53 126.37 144.88 126.37 145.23 124 145.58 125.19 145.92 126.37 146.27 126.37 146.62 126.37 146.97 127.56 147.32 128.74 147.67 128.74 148.02 128.74 148.37 126.37 148.72 128.74 149.07 129.93 149.42 129.93 149.76 129.93 150.11 131.11 150.46 131.11 150.81 131.11 151.16 128.74 151.51 128.74 151.86 129.93 152.21 131.11 152.56 131.11 152.91 131.11 153.26 131.11 153.61 131.11 153.95 131.11 154.3 131.11 154.65 131.11 155 131.11 155.35 131.11 155.7 131.11 156.05 131.11 156.4 131.11 156.75 129.93 157.1 131.11 157.45 131.11 157.79 131.11 158.14 131.11 158.49 131.11 158.84 129.93 159.19 129.93 159.54 127.56 159.89 128.74 160.24 127.56 160.59 118.08 160.94 119.26 161.29 118.08 161.64 122.82 161.98 124 162.33 125.19 162.68 124 163.03 126.37 163.38 125.19 163.73 122.82 164.08 122.82 164.43 118.08 164.78 116.89 165.13 118.08 165.48 118.08 165.83 115.71 166.17 120.45 166.52 122.82 166.87 115.71 167.22 112.15 167.57 110.97 167.92 97.93 168.27 90.82 168.62 93.19 168.97 103.86 169.32 101.49 169.67 93.19 170.01 97.93 170.36 101.49 170.71 99.12 171.06 99.12 171.41 92.01 171.76 89.64 172.11 82.53 172.46 77.79 172.81 74.23 173.16 89.64 173.51 89.64 173.86 82.53 174.2 83.71 174.55 83.71 174.9 89.64 175.25 89.64 175.6 95.56 175.95 95.56 176.3 88.45 176.65 87.27 177 80.16 177.35 82.53 177.7 82.53 178.04 73.05 178.39 75.42 178.74 74.23 179.09 69.49 179.44 70.68 179.79 77.79 180.14 67.12 180.49 69.49 180.84 81.34 181.19 74.23 181.54 78.97 181.89 82.53 182.23 75.42 182.58 74.23 182.93 76.6 183.28 86.08 183.63 93.19 183.98 94.38 184.33 99.12 184.68 103.86 185.03 112.15 185.38 110.97 185.73 106.23 186.08 110.97 186.42 110.97 186.77 110.97 187.12 118.08 187.47 118.08 187.82 118.08 188.17 116.89 188.52 115.71 188.87 116.89 189.22 116.89 189.57 118.08 189.92 112.15 190.26 115.71 190.61 116.89 190.96 121.63 191.31 121.63 191.66 129.93 192.01 127.56 192.36 127.56 192.71 125.19 193.06 127.56 193.41 126.37 193.76 126.37 194.11 126.37 194.45 121.63 194.8 125.19 195.15 122.82 195.5 124 195.85 121.63 196.2 118.08"/>
      </g>
      <g stroke-width="0.3" fill="#000000" fill-opacity="0.000" class="geometry" stroke-dasharray="none" stroke="#FEE08B" id="img-ae213feb-15">
        <path fill="none" d="M21.98,71.86 L 22.33 62.38 22.68 63.57 23.03 62.38 23.38 64.75 23.73 71.86 24.08 80.16 24.42 83.71 24.77 86.08 25.12 89.64 25.47 89.64 25.82 86.08 26.17 88.45 26.52 93.19 26.87 95.56 27.22 100.3 27.57 93.19 27.92 95.56 28.27 93.19 28.61 88.45 28.96 88.45 29.31 94.38 29.66 89.64 30.01 80.16 30.36 86.08 30.71 83.71 31.06 90.82 31.41 93.19 31.76 88.45 32.11 92.01 32.45 90.82 32.8 95.56 33.15 92.01 33.5 93.19 33.85 95.56 34.2 99.12 34.55 103.86 34.9 100.3 35.25 105.04 35.6 101.49 35.95 110.97 36.3 116.89 36.64 115.71 36.99 115.71 37.34 110.97 37.69 105.04 38.04 101.49 38.39 99.12 38.74 94.38 39.09 84.9 39.44 89.64 39.79 87.27 40.14 89.64 40.49 86.08 40.83 86.08 41.18 78.97 41.53 70.68 41.88 61.2 42.23 55.27 42.58 60.01 42.93 67.12 43.28 68.31 43.63 69.49 43.98 70.68 44.33 74.23 44.67 78.97 45.02 77.79 45.37 80.16 45.72 81.34 46.07 77.79 46.42 75.42 46.77 76.6 47.12 83.71 47.47 84.9 47.82 83.71 48.17 94.38 48.52 102.67 48.86 100.3 49.21 100.3 49.56 97.93 49.91 87.27 50.26 94.38 50.61 94.38 50.96 94.38 51.31 97.93 51.66 90.82 52.01 89.64 52.36 88.45 52.7 99.12 53.05 96.75 53.4 101.49 53.75 105.04 54.1 113.34 54.45 108.6 54.8 108.6 55.15 109.78 55.5 114.52 55.85 121.63 56.2 121.63 56.55 121.63 56.89 124 57.24 122.82 57.59 125.19 57.94 126.37 58.29 126.37 58.64 122.82 58.99 122.82 59.34 119.26 59.69 121.63 60.04 120.45 60.39 120.45 60.73 119.26 61.08 122.82 61.43 122.82 61.78 125.19 62.13 126.37 62.48 122.82 62.83 126.37 63.18 129.93 63.53 127.56 63.88 122.82 64.23 120.45 64.58 121.63 64.92 128.74 65.27 129.93 65.62 129.93 65.97 131.11 66.32 131.11 66.67 128.74 67.02 126.37 67.37 127.56 67.72 127.56 68.07 128.74 68.42 127.56 68.77 124 69.11 120.45 69.46 121.63 69.81 120.45 70.16 121.63 70.51 122.82 70.86 124 71.21 124 71.56 122.82 71.91 125.19 72.26 124 72.61 124 72.95 128.74 73.3 126.37 73.65 125.19 74 128.74 74.35 127.56 74.7 127.56 75.05 126.37 75.4 127.56 75.75 127.56 76.1 128.74 76.45 131.11 76.8 131.11 77.14 131.11 77.49 131.11 77.84 131.11 78.19 131.11 78.54 131.11 78.89 131.11 79.24 131.11 79.59 131.11 79.94 131.11 80.29 131.11 80.64 131.11 80.98 131.11 81.33 131.11 81.68 131.11 82.03 131.11 82.38 131.11 82.73 131.11 83.08 131.11 83.43 131.11 83.78 131.11 84.13 131.11 84.48 131.11 84.83 131.11 85.17 131.11 85.52 131.11 85.87 131.11 86.22 131.11 86.57 131.11 86.92 131.11 87.27 131.11 87.62 131.11 87.97 129.93 88.32 128.74 88.67 127.56 89.02 125.19 89.36 127.56 89.71 131.11 90.06 131.11 90.41 131.11 90.76 131.11 91.11 131.11 91.46 131.11 91.81 131.11 92.16 131.11 92.51 131.11 92.86 131.11 93.2 131.11 93.55 131.11 93.9 131.11 94.25 131.11 94.6 131.11 94.95 131.11 95.3 131.11 95.65 131.11 96 128.74 96.35 128.74 96.7 129.93 97.05 129.93 97.39 129.93 97.74 128.74 98.09 129.93 98.44 131.11 98.79 131.11 99.14 131.11 99.49 131.11 99.84 131.11 100.19 131.11 100.54 131.11 100.89 131.11 101.23 131.11 101.58 131.11 101.93 131.11 102.28 131.11 102.63 131.11 102.98 131.11 103.33 131.11 103.68 131.11 104.03 131.11 104.38 131.11 104.73 131.11 105.08 131.11 105.42 131.11 105.77 131.11 106.12 131.11 106.47 131.11 106.82 131.11 107.17 131.11 107.52 131.11 107.87 131.11 108.22 128.74 108.57 128.74 108.92 128.74 109.26 129.93 109.61 129.93 109.96 129.93 110.31 128.74 110.66 127.56 111.01 125.19 111.36 126.37 111.71 127.56 112.06 126.37 112.41 128.74 112.76 126.37 113.11 125.19 113.45 128.74 113.8 126.37 114.15 122.82 114.5 122.82 114.85 124 115.2 124 115.55 126.37 115.9 127.56 116.25 116.89 116.6 118.08 116.95 119.26 117.3 118.08 117.64 116.89 117.99 115.71 118.34 115.71 118.69 115.71 119.04 119.26 119.39 120.45 119.74 125.19 120.09 122.82 120.44 126.37 120.79 128.74 121.14 129.93 121.48 127.56 121.83 129.93 122.18 131.11 122.53 131.11 122.88 131.11 123.23 128.74 123.58 129.93 123.93 131.11 124.28 131.11 124.63 131.11 124.98 131.11 125.33 131.11 125.67 131.11 126.02 131.11 126.37 131.11 126.72 131.11 127.07 131.11 127.42 129.93 127.77 131.11 128.12 129.93 128.47 129.93 128.82 131.11 129.17 131.11 129.51 131.11 129.86 131.11 130.21 131.11 130.56 131.11 130.91 131.11 131.26 131.11 131.61 131.11 131.96 131.11 132.31 131.11 132.66 131.11 133.01 131.11 133.36 131.11 133.7 131.11 134.05 131.11 134.4 131.11 134.75 131.11 135.1 131.11 135.45 131.11 135.8 131.11 136.15 131.11 136.5 131.11 136.85 129.93 137.2 131.11 137.55 131.11 137.89 131.11 138.24 131.11 138.59 131.11 138.94 131.11 139.29 131.11 139.64 131.11 139.99 131.11 140.34 131.11 140.69 131.11 141.04 129.93 141.39 125.19 141.73 126.37 142.08 128.74 142.43 129.93 142.78 129.93 143.13 129.93 143.48 129.93 143.83 131.11 144.18 131.11 144.53 131.11 144.88 131.11 145.23 131.11 145.58 131.11 145.92 131.11 146.27 131.11 146.62 131.11 146.97 131.11 147.32 131.11 147.67 131.11 148.02 131.11 148.37 131.11 148.72 131.11 149.07 131.11 149.42 131.11 149.76 131.11 150.11 131.11 150.46 131.11 150.81 131.11 151.16 131.11 151.51 131.11 151.86 131.11 152.21 131.11 152.56 131.11 152.91 131.11 153.26 131.11 153.61 129.93 153.95 128.74 154.3 129.93 154.65 128.74 155 127.56 155.35 129.93 155.7 127.56 156.05 126.37 156.4 128.74 156.75 127.56 157.1 126.37 157.45 126.37 157.79 127.56 158.14 128.74 158.49 126.37 158.84 127.56 159.19 129.93 159.54 128.74 159.89 127.56 160.24 126.37 160.59 120.45 160.94 118.08 161.29 112.15 161.64 113.34 161.98 110.97 162.33 112.15 162.68 116.89 163.03 112.15 163.38 114.52 163.73 119.26 164.08 119.26 164.43 125.19 164.78 125.19 165.13 121.63 165.48 120.45 165.83 119.26 166.17 115.71 166.52 119.26 166.87 114.52 167.22 109.78 167.57 115.71 167.92 114.52 168.27 110.97 168.62 115.71 168.97 119.26 169.32 120.45 169.67 122.82 170.01 129.93 170.36 128.74 170.71 129.93 171.06 129.93 171.41 131.11 171.76 131.11 172.11 131.11 172.46 131.11 172.81 131.11 173.16 131.11 173.51 131.11 173.86 131.11 174.2 131.11 174.55 131.11 174.9 131.11 175.25 131.11 175.6 131.11 175.95 131.11 176.3 131.11 176.65 131.11 177 131.11 177.35 131.11 177.7 131.11 178.04 131.11 178.39 131.11 178.74 131.11 179.09 129.93 179.44 129.93 179.79 129.93 180.14 129.93 180.49 131.11 180.84 131.11 181.19 131.11 181.54 131.11 181.89 131.11 182.23 131.11 182.58 131.11 182.93 131.11 183.28 131.11 183.63 131.11 183.98 131.11 184.33 131.11 184.68 131.11 185.03 131.11 185.38 131.11 185.73 131.11 186.08 131.11 186.42 131.11 186.77 131.11 187.12 131.11 187.47 131.11 187.82 131.11 188.17 128.74 188.52 128.74 188.87 131.11 189.22 131.11 189.57 131.11 189.92 128.74 190.26 125.19 190.61 128.74 190.96 129.93 191.31 129.93 191.66 131.11 192.01 131.11 192.36 131.11 192.71 131.11 193.06 131.11 193.41 131.11 193.76 131.11 194.11 131.11 194.45 131.11 194.8 131.11 195.15 129.93 195.5 131.11 195.85 131.11 196.2 131.11"/>
      </g>
      <g stroke-width="0.3" fill="#000000" fill-opacity="0.000" class="geometry" stroke-dasharray="none" stroke="#FDAE61" id="img-ae213feb-16">
        <path fill="none" d="M21.98,71.86 L 22.33 74.23 22.68 67.12 23.03 64.75 23.38 69.49 23.73 63.57 24.08 63.57 24.42 70.68 24.77 75.42 25.12 67.12 25.47 69.49 25.82 52.9 26.17 56.46 26.52 60.01 26.87 51.72 27.22 58.83 27.57 54.09 27.92 58.83 28.27 44.61 28.61 50.53 28.96 56.46 29.31 54.09 29.66 51.72 30.01 56.46 30.36 57.64 30.71 60.01 31.06 68.31 31.41 78.97 31.76 71.86 32.11 73.05 32.45 63.57 32.8 61.2 33.15 69.49 33.5 64.75 33.85 64.75 34.2 74.23 34.55 74.23 34.9 67.12 35.25 57.64 35.6 60.01 35.95 67.12 36.3 63.57 36.64 57.64 36.99 62.38 37.34 65.94 37.69 64.75 38.04 58.83 38.39 60.01 38.74 61.2 39.09 56.46 39.44 69.49 39.79 67.12 40.14 64.75 40.49 68.31 40.83 69.49 41.18 71.86 41.53 75.42 41.88 86.08 42.23 95.56 42.58 95.56 42.93 96.75 43.28 84.9 43.63 87.27 43.98 94.38 44.33 100.3 44.67 101.49 45.02 102.67 45.37 107.41 45.72 107.41 46.07 103.86 46.42 105.04 46.77 99.12 47.12 110.97 47.47 115.71 47.82 113.34 48.17 118.08 48.52 110.97 48.86 112.15 49.21 114.52 49.56 113.34 49.91 116.89 50.26 116.89 50.61 112.15 50.96 113.34 51.31 108.6 51.66 110.97 52.01 112.15 52.36 110.97 52.7 113.34 53.05 110.97 53.4 109.78 53.75 110.97 54.1 118.08 54.45 113.34 54.8 113.34 55.15 114.52 55.5 121.63 55.85 118.08 56.2 114.52 56.55 107.41 56.89 110.97 57.24 114.52 57.59 120.45 57.94 126.37 58.29 122.82 58.64 114.52 58.99 114.52 59.34 118.08 59.69 118.08 60.04 116.89 60.39 112.15 60.73 113.34 61.08 118.08 61.43 119.26 61.78 118.08 62.13 113.34 62.48 116.89 62.83 109.78 63.18 112.15 63.53 108.6 63.88 101.49 64.23 105.04 64.58 109.78 64.92 105.04 65.27 109.78 65.62 114.52 65.97 115.71 66.32 118.08 66.67 118.08 67.02 120.45 67.37 115.71 67.72 121.63 68.07 122.82 68.42 124 68.77 126.37 69.11 128.74 69.46 125.19 69.81 129.93 70.16 131.11 70.51 131.11 70.86 131.11 71.21 131.11 71.56 131.11 71.91 131.11 72.26 131.11 72.61 131.11 72.95 129.93 73.3 126.37 73.65 128.74 74 129.93 74.35 129.93 74.7 131.11 75.05 131.11 75.4 131.11 75.75 131.11 76.1 131.11 76.45 129.93 76.8 129.93 77.14 128.74 77.49 131.11 77.84 131.11 78.19 131.11 78.54 131.11 78.89 131.11 79.24 131.11 79.59 131.11 79.94 131.11 80.29 131.11 80.64 129.93 80.98 128.74 81.33 129.93 81.68 128.74 82.03 127.56 82.38 124 82.73 125.19 83.08 126.37 83.43 129.93 83.78 129.93 84.13 131.11 84.48 131.11 84.83 131.11 85.17 131.11 85.52 131.11 85.87 131.11 86.22 131.11 86.57 131.11 86.92 128.74 87.27 129.93 87.62 129.93 87.97 128.74 88.32 129.93 88.67 128.74 89.02 128.74 89.36 124 89.71 122.82 90.06 124 90.41 124 90.76 125.19 91.11 126.37 91.46 122.82 91.81 125.19 92.16 122.82 92.51 121.63 92.86 122.82 93.2 122.82 93.55 122.82 93.9 122.82 94.25 120.45 94.6 120.45 94.95 122.82 95.3 119.26 95.65 121.63 96 120.45 96.35 119.26 96.7 124 97.05 124 97.39 126.37 97.74 126.37 98.09 128.74 98.44 127.56 98.79 128.74 99.14 127.56 99.49 127.56 99.84 125.19 100.19 124 100.54 126.37 100.89 128.74 101.23 131.11 101.58 131.11 101.93 131.11 102.28 131.11 102.63 128.74 102.98 128.74 103.33 125.19 103.68 121.63 104.03 115.71 104.38 114.52 104.73 118.08 105.08 121.63 105.42 120.45 105.77 114.52 106.12 112.15 106.47 108.6 106.82 99.12 107.17 96.75 107.52 95.56 107.87 90.82 108.22 92.01 108.57 86.08 108.92 89.64 109.26 102.67 109.61 107.41 109.96 107.41 110.31 97.93 110.66 100.3 111.01 100.3 111.36 99.12 111.71 102.67 112.06 102.67 112.41 105.04 112.76 99.12 113.11 106.23 113.45 115.71 113.8 119.26 114.15 121.63 114.5 126.37 114.85 126.37 115.2 126.37 115.55 126.37 115.9 124 116.25 125.19 116.6 126.37 116.95 119.26 117.3 121.63 117.64 124 117.99 121.63 118.34 119.26 118.69 114.52 119.04 120.45 119.39 119.26 119.74 116.89 120.09 113.34 120.44 109.78 120.79 113.34 121.14 110.97 121.48 115.71 121.83 109.78 122.18 101.49 122.53 94.38 122.88 90.82 123.23 82.53 123.58 78.97 123.93 83.71 124.28 80.16 124.63 92.01 124.98 99.12 125.33 103.86 125.67 106.23 126.02 108.6 126.37 107.41 126.72 107.41 127.07 113.34 127.42 115.71 127.77 115.71 128.12 122.82 128.47 122.82 128.82 125.19 129.17 124 129.51 124 129.86 125.19 130.21 125.19 130.56 120.45 130.91 125.19 131.26 122.82 131.61 122.82 131.96 121.63 132.31 125.19 132.66 124 133.01 122.82 133.36 121.63 133.7 124 134.05 124 134.4 122.82 134.75 122.82 135.1 126.37 135.45 128.74 135.8 129.93 136.15 131.11 136.5 131.11 136.85 131.11 137.2 131.11 137.55 131.11 137.89 131.11 138.24 131.11 138.59 131.11 138.94 131.11 139.29 131.11 139.64 131.11 139.99 131.11 140.34 131.11 140.69 128.74 141.04 126.37 141.39 122.82 141.73 122.82 142.08 126.37 142.43 127.56 142.78 126.37 143.13 128.74 143.48 127.56 143.83 129.93 144.18 131.11 144.53 131.11 144.88 131.11 145.23 131.11 145.58 131.11 145.92 131.11 146.27 131.11 146.62 131.11 146.97 131.11 147.32 131.11 147.67 131.11 148.02 131.11 148.37 131.11 148.72 131.11 149.07 131.11 149.42 131.11 149.76 131.11 150.11 131.11 150.46 131.11 150.81 131.11 151.16 131.11 151.51 131.11 151.86 131.11 152.21 131.11 152.56 131.11 152.91 131.11 153.26 131.11 153.61 131.11 153.95 131.11 154.3 131.11 154.65 131.11 155 131.11 155.35 131.11 155.7 131.11 156.05 131.11 156.4 131.11 156.75 131.11 157.1 131.11 157.45 131.11 157.79 131.11 158.14 131.11 158.49 131.11 158.84 131.11 159.19 131.11 159.54 131.11 159.89 131.11 160.24 131.11 160.59 131.11 160.94 131.11 161.29 131.11 161.64 131.11 161.98 131.11 162.33 129.93 162.68 129.93 163.03 129.93 163.38 131.11 163.73 131.11 164.08 131.11 164.43 131.11 164.78 131.11 165.13 131.11 165.48 131.11 165.83 131.11 166.17 131.11 166.52 131.11 166.87 128.74 167.22 126.37 167.57 128.74 167.92 126.37 168.27 126.37 168.62 129.93 168.97 128.74 169.32 125.19 169.67 124 170.01 120.45 170.36 115.71 170.71 110.97 171.06 103.86 171.41 97.93 171.76 96.75 172.11 97.93 172.46 95.56 172.81 84.9 173.16 81.34 173.51 82.53 173.86 86.08 174.2 87.27 174.55 93.19 174.9 93.19 175.25 89.64 175.6 76.6 175.95 75.42 176.3 77.79 176.65 77.79 177 81.34 177.35 78.97 177.7 69.49 178.04 67.12 178.39 74.23 178.74 69.49 179.09 70.68 179.44 68.31 179.79 64.75 180.14 71.86 180.49 74.23 180.84 61.2 181.19 63.57 181.54 60.01 181.89 62.38 182.23 51.72 182.58 51.72 182.93 43.42 183.28 50.53 183.63 50.53 183.98 60.01 184.33 67.12 184.68 67.12 185.03 64.75 185.38 62.38 185.73 64.75 186.08 65.94 186.42 64.75 186.77 64.75 187.12 67.12 187.47 63.57 187.82 77.79 188.17 83.71 188.52 89.64 188.87 87.27 189.22 84.9 189.57 87.27 189.92 86.08 190.26 97.93 190.61 102.67 190.96 106.23 191.31 106.23 191.66 107.41 192.01 108.6 192.36 108.6 192.71 112.15 193.06 115.71 193.41 115.71 193.76 115.71 194.11 118.08 194.45 119.26 194.8 118.08 195.15 114.52 195.5 119.26 195.85 120.45 196.2 121.63"/>
      </g>
      <g stroke-width="0.3" fill="#000000" fill-opacity="0.000" class="geometry" stroke-dasharray="none" stroke="#F46D43" id="img-ae213feb-17">
        <path fill="none" d="M21.98,71.86 L 22.33 64.75 22.68 64.75 23.03 68.31 23.38 58.83 23.73 61.2 24.08 56.46 24.42 68.31 24.77 71.86 25.12 75.42 25.47 86.08 25.82 93.19 26.17 99.12 26.52 94.38 26.87 95.56 27.22 100.3 27.57 97.93 27.92 96.75 28.27 90.82 28.61 90.82 28.96 99.12 29.31 102.67 29.66 101.49 30.01 95.56 30.36 103.86 30.71 114.52 31.06 118.08 31.41 113.34 31.76 115.71 32.11 114.52 32.45 115.71 32.8 112.15 33.15 115.71 33.5 122.82 33.85 119.26 34.2 120.45 34.55 124 34.9 116.89 35.25 119.26 35.6 121.63 35.95 121.63 36.3 126.37 36.64 129.93 36.99 131.11 37.34 131.11 37.69 131.11 38.04 131.11 38.39 131.11 38.74 131.11 39.09 131.11 39.44 131.11 39.79 131.11 40.14 131.11 40.49 131.11 40.83 131.11 41.18 131.11 41.53 131.11 41.88 131.11 42.23 131.11 42.58 131.11 42.93 131.11 43.28 131.11 43.63 131.11 43.98 131.11 44.33 129.93 44.67 129.93 45.02 129.93 45.37 128.74 45.72 126.37 46.07 127.56 46.42 128.74 46.77 128.74 47.12 131.11 47.47 131.11 47.82 131.11 48.17 131.11 48.52 131.11 48.86 131.11 49.21 131.11 49.56 131.11 49.91 131.11 50.26 131.11 50.61 131.11 50.96 131.11 51.31 131.11 51.66 131.11 52.01 131.11 52.36 131.11 52.7 131.11 53.05 129.93 53.4 129.93 53.75 128.74 54.1 129.93 54.45 129.93 54.8 129.93 55.15 131.11 55.5 131.11 55.85 131.11 56.2 131.11 56.55 131.11 56.89 131.11 57.24 131.11 57.59 131.11 57.94 131.11 58.29 131.11 58.64 131.11 58.99 131.11 59.34 131.11 59.69 131.11 60.04 131.11 60.39 131.11 60.73 131.11 61.08 131.11 61.43 131.11 61.78 131.11 62.13 131.11 62.48 131.11 62.83 131.11 63.18 131.11 63.53 131.11 63.88 131.11 64.23 131.11 64.58 131.11 64.92 131.11 65.27 131.11 65.62 131.11 65.97 131.11 66.32 131.11 66.67 131.11 67.02 131.11 67.37 131.11 67.72 131.11 68.07 131.11 68.42 131.11 68.77 131.11 69.11 131.11 69.46 131.11 69.81 131.11 70.16 131.11 70.51 131.11 70.86 131.11 71.21 131.11 71.56 131.11 71.91 131.11 72.26 131.11 72.61 131.11 72.95 131.11 73.3 131.11 73.65 128.74 74 128.74 74.35 131.11 74.7 131.11 75.05 131.11 75.4 128.74 75.75 127.56 76.1 127.56 76.45 124 76.8 119.26 77.14 114.52 77.49 118.08 77.84 116.89 78.19 118.08 78.54 115.71 78.89 122.82 79.24 125.19 79.59 126.37 79.94 121.63 80.29 119.26 80.64 115.71 80.98 115.71 81.33 116.89 81.68 119.26 82.03 125.19 82.38 124 82.73 124 83.08 116.89 83.43 114.52 83.78 105.04 84.13 112.15 84.48 114.52 84.83 108.6 85.17 102.67 85.52 100.3 85.87 95.56 86.22 95.56 86.57 99.12 86.92 97.93 87.27 105.04 87.62 105.04 87.97 106.23 88.32 115.71 88.67 126.37 89.02 129.93 89.36 129.93 89.71 127.56 90.06 127.56 90.41 127.56 90.76 128.74 91.11 128.74 91.46 126.37 91.81 128.74 92.16 125.19 92.51 126.37 92.86 126.37 93.2 126.37 93.55 126.37 93.9 125.19 94.25 124 94.6 120.45 94.95 122.82 95.3 122.82 95.65 119.26 96 119.26 96.35 121.63 96.7 124 97.05 125.19 97.39 128.74 97.74 128.74 98.09 129.93 98.44 131.11 98.79 131.11 99.14 131.11 99.49 131.11 99.84 131.11 100.19 131.11 100.54 131.11 100.89 131.11 101.23 131.11 101.58 131.11 101.93 131.11 102.28 131.11 102.63 131.11 102.98 131.11 103.33 131.11 103.68 131.11 104.03 131.11 104.38 131.11 104.73 131.11 105.08 131.11 105.42 131.11 105.77 131.11 106.12 129.93 106.47 126.37 106.82 126.37 107.17 125.19 107.52 125.19 107.87 122.82 108.22 125.19 108.57 124 108.92 129.93 109.26 128.74 109.61 129.93 109.96 131.11 110.31 131.11 110.66 131.11 111.01 131.11 111.36 131.11 111.71 131.11 112.06 131.11 112.41 131.11 112.76 131.11 113.11 131.11 113.45 131.11 113.8 131.11 114.15 131.11 114.5 129.93 114.85 127.56 115.2 128.74 115.55 128.74 115.9 126.37 116.25 122.82 116.6 124 116.95 126.37 117.3 124 117.64 124 117.99 122.82 118.34 128.74 118.69 129.93 119.04 131.11 119.39 131.11 119.74 131.11 120.09 131.11 120.44 131.11 120.79 131.11 121.14 131.11 121.48 131.11 121.83 131.11 122.18 131.11 122.53 131.11 122.88 131.11 123.23 131.11 123.58 131.11 123.93 131.11 124.28 129.93 124.63 131.11 124.98 131.11 125.33 131.11 125.67 131.11 126.02 131.11 126.37 131.11 126.72 131.11 127.07 128.74 127.42 125.19 127.77 125.19 128.12 126.37 128.47 128.74 128.82 128.74 129.17 128.74 129.51 129.93 129.86 131.11 130.21 131.11 130.56 131.11 130.91 129.93 131.26 129.93 131.61 131.11 131.96 131.11 132.31 131.11 132.66 131.11 133.01 131.11 133.36 131.11 133.7 131.11 134.05 129.93 134.4 129.93 134.75 127.56 135.1 127.56 135.45 122.82 135.8 120.45 136.15 113.34 136.5 119.26 136.85 126.37 137.2 125.19 137.55 126.37 137.89 126.37 138.24 128.74 138.59 129.93 138.94 129.93 139.29 131.11 139.64 131.11 139.99 131.11 140.34 131.11 140.69 131.11 141.04 131.11 141.39 131.11 141.73 131.11 142.08 131.11 142.43 131.11 142.78 131.11 143.13 131.11 143.48 129.93 143.83 129.93 144.18 131.11 144.53 131.11 144.88 131.11 145.23 131.11 145.58 131.11 145.92 131.11 146.27 131.11 146.62 131.11 146.97 131.11 147.32 131.11 147.67 131.11 148.02 131.11 148.37 131.11 148.72 131.11 149.07 131.11 149.42 131.11 149.76 131.11 150.11 131.11 150.46 131.11 150.81 131.11 151.16 131.11 151.51 131.11 151.86 131.11 152.21 131.11 152.56 131.11 152.91 131.11 153.26 131.11 153.61 131.11 153.95 131.11 154.3 131.11 154.65 131.11 155 131.11 155.35 128.74 155.7 128.74 156.05 128.74 156.4 127.56 156.75 127.56 157.1 129.93 157.45 131.11 157.79 131.11 158.14 131.11 158.49 131.11 158.84 131.11 159.19 131.11 159.54 131.11 159.89 131.11 160.24 131.11 160.59 131.11 160.94 131.11 161.29 131.11 161.64 129.93 161.98 131.11 162.33 131.11 162.68 131.11 163.03 131.11 163.38 131.11 163.73 131.11 164.08 131.11 164.43 131.11 164.78 131.11 165.13 131.11 165.48 131.11 165.83 131.11 166.17 131.11 166.52 131.11 166.87 131.11 167.22 131.11 167.57 131.11 167.92 131.11 168.27 131.11 168.62 129.93 168.97 131.11 169.32 131.11 169.67 131.11 170.01 131.11 170.36 129.93 170.71 129.93 171.06 129.93 171.41 129.93 171.76 131.11 172.11 131.11 172.46 131.11 172.81 131.11 173.16 131.11 173.51 131.11 173.86 131.11 174.2 131.11 174.55 131.11 174.9 131.11 175.25 129.93 175.6 131.11 175.95 131.11 176.3 131.11 176.65 131.11 177 129.93 177.35 129.93 177.7 131.11 178.04 131.11 178.39 131.11 178.74 131.11 179.09 129.93 179.44 131.11 179.79 131.11 180.14 131.11 180.49 126.37 180.84 126.37 181.19 126.37 181.54 125.19 181.89 121.63 182.23 122.82 182.58 121.63 182.93 124 183.28 129.93 183.63 128.74 183.98 128.74 184.33 129.93 184.68 129.93 185.03 125.19 185.38 122.82 185.73 122.82 186.08 126.37 186.42 127.56 186.77 126.37 187.12 124 187.47 127.56 187.82 128.74 188.17 129.93 188.52 129.93 188.87 129.93 189.22 129.93 189.57 131.11 189.92 131.11 190.26 131.11 190.61 131.11 190.96 131.11 191.31 131.11 191.66 131.11 192.01 131.11 192.36 131.11 192.71 131.11 193.06 131.11 193.41 131.11 193.76 131.11 194.11 131.11 194.45 131.11 194.8 131.11 195.15 131.11 195.5 131.11 195.85 131.11 196.2 131.11"/>
      </g>
      <g stroke-width="0.3" fill="#000000" fill-opacity="0.000" class="geometry" stroke-dasharray="none" stroke="#D53E4F" id="img-ae213feb-18">
        <path fill="none" d="M21.98,71.86 L 22.33 64.75 22.68 63.57 23.03 61.2 23.38 65.94 23.73 63.57 24.08 62.38 24.42 58.83 24.77 58.83 25.12 60.01 25.47 60.01 25.82 44.61 26.17 55.27 26.52 55.27 26.87 62.38 27.22 58.83 27.57 57.64 27.92 65.94 28.27 57.64 28.61 56.46 28.96 56.46 29.31 48.16 29.66 41.05 30.01 43.42 30.36 33.94 30.71 30.39 31.06 32.76 31.41 33.94 31.76 28.02 32.11 24.46 32.45 26.83 32.8 25.65 33.15 25.65 33.5 20.91 33.85 22.09 34.2 19.72 34.55 23.28 34.9 24.46 35.25 24.46 35.6 24.46 35.95 24.46 36.3 26.83 36.64 30.39 36.99 29.2 37.34 37.5 37.69 31.57 38.04 31.57 38.39 35.13 38.74 39.87 39.09 45.79 39.44 45.79 39.79 41.05 40.14 31.57 40.49 26.83 40.83 28.02 41.18 35.13 41.53 25.65 41.88 25.65 42.23 26.83 42.58 24.46 42.93 22.09 43.28 20.91 43.63 23.28 43.98 24.46 44.33 22.09 44.67 17.35 45.02 20.91 45.37 17.35 45.72 19.72 46.07 19.72 46.42 18.54 46.77 19.72 47.12 17.35 47.47 18.54 47.82 20.91 48.17 19.72 48.52 17.35 48.86 16.17 49.21 16.17 49.56 16.17 49.91 13.8 50.26 12.61 50.61 12.61 50.96 12.61 51.31 12.61 51.66 12.61 52.01 12.61 52.36 12.61 52.7 12.61 53.05 12.61 53.4 12.61 53.75 12.61 54.1 12.61 54.45 12.61 54.8 12.61 55.15 12.61 55.5 12.61 55.85 12.61 56.2 12.61 56.55 12.61 56.89 12.61 57.24 12.61 57.59 12.61 57.94 12.61 58.29 12.61 58.64 12.61 58.99 12.61 59.34 12.61 59.69 13.8 60.04 12.61 60.39 12.61 60.73 12.61 61.08 12.61 61.43 12.61 61.78 12.61 62.13 12.61 62.48 12.61 62.83 12.61 63.18 12.61 63.53 12.61 63.88 12.61 64.23 12.61 64.58 12.61 64.92 12.61 65.27 12.61 65.62 12.61 65.97 12.61 66.32 14.98 66.67 14.98 67.02 14.98 67.37 14.98 67.72 14.98 68.07 13.8 68.42 12.61 68.77 13.8 69.11 13.8 69.46 17.35 69.81 18.54 70.16 14.98 70.51 16.17 70.86 16.17 71.21 14.98 71.56 16.17 71.91 18.54 72.26 18.54 72.61 22.09 72.95 22.09 73.3 24.46 73.65 18.54 74 23.28 74.35 17.35 74.7 18.54 75.05 23.28 75.4 18.54 75.75 18.54 76.1 19.72 76.45 22.09 76.8 19.72 77.14 22.09 77.49 29.2 77.84 28.02 78.19 30.39 78.54 24.46 78.89 22.09 79.24 20.91 79.59 19.72 79.94 17.35 80.29 16.17 80.64 18.54 80.98 17.35 81.33 20.91 81.68 19.72 82.03 18.54 82.38 23.28 82.73 24.46 83.08 25.65 83.43 29.2 83.78 28.02 84.13 31.57 84.48 31.57 84.83 33.94 85.17 29.2 85.52 28.02 85.87 29.2 86.22 31.57 86.57 32.76 86.92 32.76 87.27 32.76 87.62 48.16 87.97 36.31 88.32 42.24 88.67 38.68 89.02 33.94 89.36 25.65 89.71 28.02 90.06 26.83 90.41 30.39 90.76 32.76 91.11 33.94 91.46 29.2 91.81 26.83 92.16 29.2 92.51 33.94 92.86 26.83 93.2 31.57 93.55 23.28 93.9 19.72 94.25 26.83 94.6 24.46 94.95 28.02 95.3 23.28 95.65 25.65 96 20.91 96.35 16.17 96.7 20.91 97.05 20.91 97.39 20.91 97.74 19.72 98.09 19.72 98.44 17.35 98.79 16.17 99.14 16.17 99.49 18.54 99.84 16.17 100.19 16.17 100.54 16.17 100.89 16.17 101.23 17.35 101.58 16.17 101.93 14.98 102.28 13.8 102.63 13.8 102.98 14.98 103.33 16.17 103.68 16.17 104.03 14.98 104.38 16.17 104.73 18.54 105.08 18.54 105.42 23.28 105.77 25.65 106.12 19.72 106.47 20.91 106.82 19.72 107.17 17.35 107.52 14.98 107.87 13.8 108.22 13.8 108.57 14.98 108.92 17.35 109.26 19.72 109.61 20.91 109.96 16.17 110.31 17.35 110.66 16.17 111.01 16.17 111.36 18.54 111.71 18.54 112.06 18.54 112.41 18.54 112.76 17.35 113.11 18.54 113.45 20.91 113.8 19.72 114.15 19.72 114.5 28.02 114.85 24.46 115.2 22.09 115.55 17.35 115.9 16.17 116.25 20.91 116.6 23.28 116.95 25.65 117.3 29.2 117.64 30.39 117.99 28.02 118.34 31.57 118.69 37.5 119.04 33.94 119.39 30.39 119.74 32.76 120.09 35.13 120.44 45.79 120.79 42.24 121.14 37.5 121.48 31.57 121.83 32.76 122.18 36.31 122.53 50.53 122.88 48.16 123.23 64.75 123.58 68.31 123.93 69.49 124.28 70.68 124.63 71.86 124.98 58.83 125.33 58.83 125.67 60.01 126.02 60.01 126.37 63.57 126.72 57.64 127.07 60.01 127.42 51.72 127.77 56.46 128.12 58.83 128.47 61.2 128.82 54.09 129.17 48.16 129.51 42.24 129.86 52.9 130.21 43.42 130.56 42.24 130.91 42.24 131.26 43.42 131.61 42.24 131.96 42.24 132.31 44.61 132.66 46.98 133.01 43.42 133.36 42.24 133.7 39.87 134.05 38.68 134.4 30.39 134.75 35.13 135.1 38.68 135.45 45.79 135.8 45.79 136.15 41.05 136.5 43.42 136.85 50.53 137.2 54.09 137.55 55.27 137.89 57.64 138.24 61.2 138.59 57.64 138.94 51.72 139.29 56.46 139.64 52.9 139.99 50.53 140.34 56.46 140.69 61.2 141.04 52.9 141.39 58.83 141.73 71.86 142.08 65.94 142.43 69.49 142.78 67.12 143.13 63.57 143.48 63.57 143.83 60.01 144.18 63.57 144.53 77.79 144.88 78.97 145.23 81.34 145.58 89.64 145.92 95.56 146.27 97.93 146.62 90.82 146.97 89.64 147.32 82.53 147.67 78.97 148.02 86.08 148.37 77.79 148.72 89.64 149.07 86.08 149.42 81.34 149.76 77.79 150.11 83.71 150.46 84.9 150.81 89.64 151.16 89.64 151.51 84.9 151.86 89.64 152.21 82.53 152.56 88.45 152.91 88.45 153.26 89.64 153.61 87.27 153.95 87.27 154.3 97.93 154.65 90.82 155 96.75 155.35 100.3 155.7 102.67 156.05 103.86 156.4 107.41 156.75 108.6 157.1 110.97 157.45 106.23 157.79 113.34 158.14 110.97 158.49 110.97 158.84 113.34 159.19 110.97 159.54 105.04 159.89 100.3 160.24 106.23 160.59 107.41 160.94 106.23 161.29 109.78 161.64 105.04 161.98 103.86 162.33 101.49 162.68 103.86 163.03 106.23 163.38 105.04 163.73 99.12 164.08 93.19 164.43 90.82 164.78 93.19 165.13 103.86 165.48 99.12 165.83 96.75 166.17 94.38 166.52 87.27 166.87 92.01 167.22 95.56 167.57 96.75 167.92 96.75 168.27 100.3 168.62 100.3 168.97 100.3 169.32 95.56 169.67 96.75 170.01 96.75 170.36 93.19 170.71 77.79 171.06 90.82 171.41 78.97 171.76 83.71 172.11 83.71 172.46 84.9 172.81 74.23 173.16 71.86 173.51 69.49 173.86 73.05 174.2 71.86 174.55 74.23 174.9 69.49 175.25 69.49 175.6 68.31 175.95 71.86 176.3 78.97 176.65 92.01 177 88.45 177.35 87.27 177.7 88.45 178.04 86.08 178.39 81.34 178.74 82.53 179.09 82.53 179.44 84.9 179.79 81.34 180.14 65.94 180.49 68.31 180.84 73.05 181.19 74.23 181.54 64.75 181.89 58.83 182.23 57.64 182.58 49.35 182.93 55.27 183.28 57.64 183.63 51.72 183.98 42.24 184.33 33.94 184.68 36.31 185.03 39.87 185.38 36.31 185.73 36.31 186.08 30.39 186.42 37.5 186.77 39.87 187.12 44.61 187.47 48.16 187.82 44.61 188.17 36.31 188.52 31.57 188.87 31.57 189.22 28.02 189.57 23.28 189.92 25.65 190.26 22.09 190.61 17.35 190.96 16.17 191.31 19.72 191.66 20.91 192.01 19.72 192.36 13.8 192.71 12.61 193.06 12.61 193.41 12.61 193.76 12.61 194.11 12.61 194.45 12.61 194.8 12.61 195.15 12.61 195.5 12.61 195.85 13.8 196.2 12.61"/>
      </g>
      <g stroke-width="0.3" fill="#000000" fill-opacity="0.000" class="geometry" stroke-dasharray="none" stroke="#9E0142" id="img-ae213feb-19">
        <path fill="none" d="M21.98,71.86 L 22.33 63.57 22.68 60.01 23.03 52.9 23.38 56.46 23.73 57.64 24.08 52.9 24.42 55.27 24.77 52.9 25.12 51.72 25.47 44.61 25.82 51.72 26.17 48.16 26.52 45.79 26.87 48.16 27.22 51.72 27.57 58.83 27.92 60.01 28.27 63.57 28.61 76.6 28.96 71.86 29.31 69.49 29.66 69.49 30.01 71.86 30.36 60.01 30.71 56.46 31.06 56.46 31.41 49.35 31.76 35.13 32.11 29.2 32.45 22.09 32.8 18.54 33.15 14.98 33.5 14.98 33.85 16.17 34.2 13.8 34.55 14.98 34.9 14.98 35.25 16.17 35.6 13.8 35.95 14.98 36.3 16.17 36.64 16.17 36.99 13.8 37.34 12.61 37.69 12.61 38.04 12.61 38.39 12.61 38.74 12.61 39.09 12.61 39.44 12.61 39.79 12.61 40.14 14.98 40.49 13.8 40.83 14.98 41.18 16.17 41.53 13.8 41.88 17.35 42.23 17.35 42.58 17.35 42.93 17.35 43.28 16.17 43.63 14.98 43.98 17.35 44.33 17.35 44.67 17.35 45.02 16.17 45.37 17.35 45.72 14.98 46.07 18.54 46.42 17.35 46.77 14.98 47.12 14.98 47.47 13.8 47.82 13.8 48.17 13.8 48.52 12.61 48.86 12.61 49.21 12.61 49.56 12.61 49.91 12.61 50.26 12.61 50.61 12.61 50.96 12.61 51.31 12.61 51.66 12.61 52.01 12.61 52.36 12.61 52.7 12.61 53.05 12.61 53.4 12.61 53.75 12.61 54.1 12.61 54.45 12.61 54.8 12.61 55.15 12.61 55.5 12.61 55.85 12.61 56.2 12.61 56.55 12.61 56.89 12.61 57.24 12.61 57.59 12.61 57.94 12.61 58.29 12.61 58.64 12.61 58.99 12.61 59.34 12.61 59.69 12.61 60.04 14.98 60.39 13.8 60.73 12.61 61.08 12.61 61.43 16.17 61.78 16.17 62.13 12.61 62.48 12.61 62.83 13.8 63.18 13.8 63.53 13.8 63.88 13.8 64.23 12.61 64.58 12.61 64.92 12.61 65.27 12.61 65.62 12.61 65.97 12.61 66.32 12.61 66.67 12.61 67.02 12.61 67.37 12.61 67.72 12.61 68.07 13.8 68.42 13.8 68.77 14.98 69.11 17.35 69.46 16.17 69.81 18.54 70.16 22.09 70.51 24.46 70.86 26.83 71.21 23.28 71.56 26.83 71.91 24.46 72.26 28.02 72.61 32.76 72.95 29.2 73.3 19.72 73.65 19.72 74 17.35 74.35 13.8 74.7 13.8 75.05 14.98 75.4 16.17 75.75 14.98 76.1 13.8 76.45 14.98 76.8 13.8 77.14 12.61 77.49 12.61 77.84 12.61 78.19 12.61 78.54 12.61 78.89 12.61 79.24 12.61 79.59 12.61 79.94 12.61 80.29 12.61 80.64 12.61 80.98 12.61 81.33 12.61 81.68 12.61 82.03 12.61 82.38 12.61 82.73 12.61 83.08 12.61 83.43 12.61 83.78 12.61 84.13 12.61 84.48 12.61 84.83 13.8 85.17 12.61 85.52 12.61 85.87 12.61 86.22 12.61 86.57 12.61 86.92 12.61 87.27 13.8 87.62 12.61 87.97 12.61 88.32 12.61 88.67 12.61 89.02 12.61 89.36 12.61 89.71 12.61 90.06 12.61 90.41 12.61 90.76 12.61 91.11 12.61 91.46 12.61 91.81 12.61 92.16 12.61 92.51 12.61 92.86 12.61 93.2 12.61 93.55 12.61 93.9 16.17 94.25 14.98 94.6 14.98 94.95 22.09 95.3 32.76 95.65 30.39 96 32.76 96.35 28.02 96.7 31.57 97.05 30.39 97.39 22.09 97.74 19.72 98.09 19.72 98.44 18.54 98.79 16.17 99.14 17.35 99.49 14.98 99.84 14.98 100.19 13.8 100.54 13.8 100.89 13.8 101.23 13.8 101.58 13.8 101.93 13.8 102.28 14.98 102.63 13.8 102.98 13.8 103.33 12.61 103.68 12.61 104.03 12.61 104.38 12.61 104.73 12.61 105.08 12.61 105.42 12.61 105.77 12.61 106.12 12.61 106.47 12.61 106.82 12.61 107.17 12.61 107.52 13.8 107.87 12.61 108.22 12.61 108.57 12.61 108.92 12.61 109.26 12.61 109.61 12.61 109.96 12.61 110.31 16.17 110.66 19.72 111.01 19.72 111.36 17.35 111.71 17.35 112.06 16.17 112.41 20.91 112.76 23.28 113.11 25.65 113.45 30.39 113.8 26.83 114.15 26.83 114.5 30.39 114.85 23.28 115.2 19.72 115.55 16.17 115.9 14.98 116.25 16.17 116.6 17.35 116.95 17.35 117.3 19.72 117.64 18.54 117.99 20.91 118.34 23.28 118.69 24.46 119.04 29.2 119.39 28.02 119.74 25.65 120.09 26.83 120.44 29.2 120.79 30.39 121.14 28.02 121.48 26.83 121.83 24.46 122.18 26.83 122.53 20.91 122.88 23.28 123.23 23.28 123.58 22.09 123.93 18.54 124.28 19.72 124.63 22.09 124.98 23.28 125.33 23.28 125.67 18.54 126.02 24.46 126.37 22.09 126.72 24.46 127.07 23.28 127.42 20.91 127.77 17.35 128.12 19.72 128.47 17.35 128.82 16.17 129.17 18.54 129.51 14.98 129.86 12.61 130.21 13.8 130.56 14.98 130.91 12.61 131.26 12.61 131.61 12.61 131.96 12.61 132.31 12.61 132.66 12.61 133.01 12.61 133.36 12.61 133.7 12.61 134.05 12.61 134.4 12.61 134.75 12.61 135.1 12.61 135.45 12.61 135.8 12.61 136.15 12.61 136.5 12.61 136.85 12.61 137.2 12.61 137.55 12.61 137.89 12.61 138.24 12.61 138.59 12.61 138.94 12.61 139.29 12.61 139.64 14.98 139.99 16.17 140.34 12.61 140.69 12.61 141.04 12.61 141.39 12.61 141.73 12.61 142.08 12.61 142.43 12.61 142.78 12.61 143.13 12.61 143.48 12.61 143.83 12.61 144.18 12.61 144.53 12.61 144.88 12.61 145.23 12.61 145.58 14.98 145.92 14.98 146.27 13.8 146.62 14.98 146.97 14.98 147.32 16.17 147.67 19.72 148.02 16.17 148.37 13.8 148.72 13.8 149.07 13.8 149.42 17.35 149.76 17.35 150.11 19.72 150.46 16.17 150.81 14.98 151.16 13.8 151.51 13.8 151.86 12.61 152.21 12.61 152.56 12.61 152.91 12.61 153.26 12.61 153.61 12.61 153.95 12.61 154.3 12.61 154.65 12.61 155 12.61 155.35 12.61 155.7 12.61 156.05 12.61 156.4 12.61 156.75 12.61 157.1 12.61 157.45 12.61 157.79 12.61 158.14 12.61 158.49 12.61 158.84 12.61 159.19 12.61 159.54 12.61 159.89 12.61 160.24 12.61 160.59 12.61 160.94 12.61 161.29 12.61 161.64 12.61 161.98 12.61 162.33 14.98 162.68 14.98 163.03 16.17 163.38 18.54 163.73 14.98 164.08 13.8 164.43 12.61 164.78 12.61 165.13 12.61 165.48 12.61 165.83 12.61 166.17 12.61 166.52 12.61 166.87 12.61 167.22 12.61 167.57 12.61 167.92 12.61 168.27 12.61 168.62 12.61 168.97 12.61 169.32 12.61 169.67 12.61 170.01 12.61 170.36 12.61 170.71 12.61 171.06 14.98 171.41 14.98 171.76 13.8 172.11 13.8 172.46 13.8 172.81 12.61 173.16 12.61 173.51 12.61 173.86 12.61 174.2 12.61 174.55 12.61 174.9 12.61 175.25 12.61 175.6 14.98 175.95 12.61 176.3 12.61 176.65 12.61 177 12.61 177.35 12.61 177.7 12.61 178.04 13.8 178.39 14.98 178.74 17.35 179.09 16.17 179.44 17.35 179.79 14.98 180.14 13.8 180.49 14.98 180.84 16.17 181.19 17.35 181.54 18.54 181.89 18.54 182.23 16.17 182.58 16.17 182.93 17.35 183.28 18.54 183.63 25.65 183.98 22.09 184.33 20.91 184.68 29.2 185.03 30.39 185.38 24.46 185.73 23.28 186.08 24.46 186.42 24.46 186.77 30.39 187.12 31.57 187.47 37.5 187.82 42.24 188.17 49.35 188.52 52.9 188.87 55.27 189.22 51.72 189.57 50.53 189.92 50.53 190.26 54.09 190.61 42.24 190.96 41.05 191.31 42.24 191.66 36.31 192.01 43.42 192.36 39.87 192.71 37.5 193.06 36.31 193.41 42.24 193.76 38.68 194.11 41.05 194.45 42.24 194.8 41.05 195.15 46.98 195.5 44.61 195.85 63.57 196.2 58.83"/>
      </g>
    </g>
  </g>
</g>
  <g class="guide ylabels" font-size="2.82" font-family="'PT Sans Caption','Helvetica Neue','Helvetica',sans-serif" fill="#000000" id="img-ae213feb-20">
    <text x="18.63" y="131.11" text-anchor="end" dy="0.35em">0</text>
    <text x="18.63" y="71.86" text-anchor="end" dy="0.35em">50</text>
    <text x="18.63" y="12.61" text-anchor="end" dy="0.35em">100</text>
  </g>
  <g font-size="3.88" font-family="'PT Sans','Helvetica Neue','Helvetica',sans-serif" fill="#000000" stroke="#000000" stroke-opacity="0.000" id="img-ae213feb-21">
    <text x="8.81" y="69.86" text-anchor="middle" dy="0.35em" transform="rotate(-90, 8.81, 71.86)">population size</text>
  </g>
  <g font-size="3.88" font-family="'PT Sans','Helvetica Neue','Helvetica',sans-serif" fill="#000000" stroke="#000000" stroke-opacity="0.000" id="img-ae213feb-22">
    <text x="108.92" y="5" text-anchor="middle" dy="0.6em">genetic drift with mutationrate  = 0.001 </text>
  </g>
</g>
<defs>
  <clipPath id="img-ae213feb-4">
  <path d="M19.63,10.61 L 198.2 10.61 198.2 133.11 19.63 133.11" />
</clipPath>
</defs>
</svg>
