<?xml version="1.0" encoding="UTF-8"?>
<svg xmlns="http://www.w3.org/2000/svg"
     xmlns:xlink="http://www.w3.org/1999/xlink"
     xmlns:gadfly="http://www.gadflyjl.org/ns"
     version="1.2"
     width="203.2mm" height="152.4mm" viewBox="0 0 203.2 152.4"
     stroke="none"
     fill="#000000"
     stroke-width="0.3"
     font-size="3.88"
>
<g class="plotroot xscalable yscalable" id="img-20abc5f8-1">
  <g font-size="3.88" font-family="'PT Sans','Helvetica Neue','Helvetica',sans-serif" fill="#000000" stroke="#000000" stroke-opacity="0.000" id="img-20abc5f8-2">
    <text x="96" y="140.79" text-anchor="middle" dy="0.6em">number of A_type individuals (bin size = 50)</text>
  </g>
  <g class="guide xlabels" font-size="2.82" font-family="'PT Sans Caption','Helvetica Neue','Helvetica',sans-serif" fill="#000000" id="img-20abc5f8-3">
    <text x="19.96" y="134.11" text-anchor="middle" dy="0.6em">0</text>
    <text x="96" y="134.11" text-anchor="middle" dy="0.6em">50</text>
    <text x="172.03" y="134.11" text-anchor="middle" dy="0.6em">100</text>
  </g>
  <g class="guide colorkey" id="img-20abc5f8-4">
    <g fill="#4C404B" font-size="2.82" font-family="'PT Sans','Helvetica Neue','Helvetica',sans-serif" id="img-20abc5f8-5">
      <text x="177.85" y="109.96" dy="0.35em">histogram</text>
      <text x="177.85" y="113.59" dy="0.35em">theoretical curve</text>
    </g>
    <g stroke="#000000" stroke-opacity="0.000" id="img-20abc5f8-6">
      <rect x="175.03" y="109.06" width="1.81" height="1.81" fill="#00BFFF"/>
      <rect x="175.03" y="112.68" width="1.81" height="1.81" fill="#FFA500"/>
    </g>
    <g fill="#362A35" font-size="3.88" font-family="'PT Sans','Helvetica Neue','Helvetica',sans-serif" stroke="#000000" stroke-opacity="0.000" id="img-20abc5f8-7">
      <text x="175.03" y="106.14">Legend</text>
    </g>
  </g>
<g clip-path="url(#img-20abc5f8-8)">
  <g id="img-20abc5f8-9">
    <g pointer-events="visible" opacity="1" fill="#FFFFFF" stroke="#000000" stroke-opacity="0.000" class="guide background" id="img-20abc5f8-10">
      <rect x="17.96" y="86.81" width="156.07" height="46.3"/>
    </g>
    <g class="guide ygridlines xfixed" stroke-dasharray="0.5,0.5" stroke-width="0.2" stroke="#808080" id="img-20abc5f8-11">
      <path fill="none" d="M17.96,131.11 L 174.03 131.11"/>
      <path fill="none" d="M17.96,117.01 L 174.03 117.01"/>
      <path fill="none" d="M17.96,102.91 L 174.03 102.91"/>
      <path fill="none" d="M17.96,88.81 L 174.03 88.81"/>
    </g>
    <g class="guide xgridlines yfixed" stroke-dasharray="0.5,0.5" stroke-width="0.2" stroke="#808080" id="img-20abc5f8-12">
      <path fill="none" d="M19.96,86.81 L 19.96 133.11"/>
      <path fill="none" d="M96,86.81 L 96 133.11"/>
      <path fill="none" d="M172.03,86.81 L 172.03 133.11"/>
    </g>
    <g class="plotpanel" id="img-20abc5f8-13">
      <g stroke-width="0.71" fill="#000000" fill-opacity="0.000" class="geometry" stroke-dasharray="none" stroke="#FFA500" id="img-20abc5f8-14">
        <path fill="none" d="M20.57,127.59 L 21.18 129.35 21.79 129.93 22.4 130.22 23.01 130.4 23.62 130.52 24.23 130.6 24.84 130.66 25.46 130.71 26.07 130.75 26.68 130.78 27.29 130.81 27.9 130.83 28.51 130.85 29.12 130.87 29.73 130.88 30.34 130.89 30.95 130.9 31.56 130.91 32.17 130.92 32.78 130.93 33.39 130.94 34.01 130.95 34.62 130.95 35.23 130.96 35.84 130.96 36.45 130.97 37.06 130.97 37.67 130.98 38.28 130.98 38.89 130.99 39.5 130.99 40.11 130.99 40.72 131 41.33 131 41.95 131 42.56 131 43.17 131.01 43.78 131.01 44.39 131.01 45 131.01 45.61 131.01 46.22 131.02 46.83 131.02 47.44 131.02 48.05 131.02 48.66 131.02 49.27 131.02 49.88 131.03 50.5 131.03 51.11 131.03 51.72 131.03 52.33 131.03 52.94 131.03 53.55 131.03 54.16 131.03 54.77 131.04 55.38 131.04 55.99 131.04 56.6 131.04 57.21 131.04 57.82 131.04 58.44 131.04 59.05 131.04 59.66 131.04 60.27 131.04 60.88 131.04 61.49 131.04 62.1 131.04 62.71 131.05 63.32 131.05 63.93 131.05 64.54 131.05 65.15 131.05 65.76 131.05 66.37 131.05 66.99 131.05 67.6 131.05 68.21 131.05 68.82 131.05 69.43 131.05 70.04 131.05 70.65 131.05 71.26 131.05 71.87 131.05 72.48 131.05 73.09 131.05 73.7 131.05 74.31 131.05 74.93 131.05 75.54 131.05 76.15 131.05 76.76 131.05 77.37 131.05 77.98 131.06 78.59 131.06 79.2 131.06 79.81 131.06 80.42 131.06 81.03 131.06 81.64 131.06 82.25 131.06 82.86 131.06 83.48 131.06 84.09 131.06 84.7 131.06 85.31 131.06 85.92 131.06 86.53 131.06 87.14 131.06 87.75 131.06 88.36 131.06 88.97 131.06 89.58 131.06 90.19 131.06 90.8 131.06 91.42 131.06 92.03 131.06 92.64 131.06 93.25 131.06 93.86 131.06 94.47 131.06 95.08 131.06 95.69 131.06 96.3 131.06 96.91 131.06 97.52 131.06 98.13 131.06 98.74 131.06 99.35 131.06 99.97 131.06 100.58 131.06 101.19 131.06 101.8 131.06 102.41 131.06 103.02 131.06 103.63 131.06 104.24 131.06 104.85 131.06 105.46 131.06 106.07 131.06 106.68 131.06 107.29 131.06 107.91 131.06 108.52 131.06 109.13 131.06 109.74 131.06 110.35 131.06 110.96 131.06 111.57 131.06 112.18 131.06 112.79 131.06 113.4 131.06 114.01 131.06 114.62 131.05 115.23 131.05 115.84 131.05 116.46 131.05 117.07 131.05 117.68 131.05 118.29 131.05 118.9 131.05 119.51 131.05 120.12 131.05 120.73 131.05 121.34 131.05 121.95 131.05 122.56 131.05 123.17 131.05 123.78 131.05 124.4 131.05 125.01 131.05 125.62 131.05 126.23 131.05 126.84 131.05 127.45 131.05 128.06 131.05 128.67 131.05 129.28 131.05 129.89 131.04 130.5 131.04 131.11 131.04 131.72 131.04 132.34 131.04 132.95 131.04 133.56 131.04 134.17 131.04 134.78 131.04 135.39 131.04 136 131.04 136.61 131.04 137.22 131.04 137.83 131.03 138.44 131.03 139.05 131.03 139.66 131.03 140.27 131.03 140.89 131.03 141.5 131.03 142.11 131.03 142.72 131.02 143.33 131.02 143.94 131.02 144.55 131.02 145.16 131.02 145.77 131.02 146.38 131.01 146.99 131.01 147.6 131.01 148.21 131.01 148.83 131.01 149.44 131 150.05 131 150.66 131 151.27 131 151.88 130.99 152.49 130.99 153.1 130.99 153.71 130.98 154.32 130.98 154.93 130.97 155.54 130.97 156.15 130.96 156.76 130.96 157.38 130.95 157.99 130.95 158.6 130.94 159.21 130.93 159.82 130.92 160.43 130.91 161.04 130.9 161.65 130.89 162.26 130.88 162.87 130.87 163.48 130.85 164.09 130.83 164.7 130.81 165.32 130.78 165.93 130.75 166.54 130.71 167.15 130.66 167.76 130.6 168.37 130.52 168.98 130.4 169.59 130.22 170.2 129.93 170.81 129.35 171.42 127.59"/>
      </g>
      <g stroke-width="0.71" fill="#000000" fill-opacity="0.000" class="geometry" stroke-dasharray="none" stroke="#FFA500" id="img-20abc5f8-15">
        <path fill="none" d="M20.57,127.59 L 21.18 129.35 21.79 129.93 22.4 130.22 23.01 130.4 23.62 130.52 24.23 130.6 24.84 130.66 25.46 130.71 26.07 130.75 26.68 130.78 27.29 130.81 27.9 130.83 28.51 130.85 29.12 130.87 29.73 130.88 30.34 130.89 30.95 130.9 31.56 130.91 32.17 130.92 32.78 130.93 33.39 130.94 34.01 130.95 34.62 130.95 35.23 130.96 35.84 130.96 36.45 130.97 37.06 130.97 37.67 130.98 38.28 130.98 38.89 130.99 39.5 130.99 40.11 130.99 40.72 131 41.33 131 41.95 131 42.56 131 43.17 131.01 43.78 131.01 44.39 131.01 45 131.01 45.61 131.01 46.22 131.02 46.83 131.02 47.44 131.02 48.05 131.02 48.66 131.02 49.27 131.02 49.88 131.03 50.5 131.03 51.11 131.03 51.72 131.03 52.33 131.03 52.94 131.03 53.55 131.03 54.16 131.03 54.77 131.04 55.38 131.04 55.99 131.04 56.6 131.04 57.21 131.04 57.82 131.04 58.44 131.04 59.05 131.04 59.66 131.04 60.27 131.04 60.88 131.04 61.49 131.04 62.1 131.04 62.71 131.05 63.32 131.05 63.93 131.05 64.54 131.05 65.15 131.05 65.76 131.05 66.37 131.05 66.99 131.05 67.6 131.05 68.21 131.05 68.82 131.05 69.43 131.05 70.04 131.05 70.65 131.05 71.26 131.05 71.87 131.05 72.48 131.05 73.09 131.05 73.7 131.05 74.31 131.05 74.93 131.05 75.54 131.05 76.15 131.05 76.76 131.05 77.37 131.05 77.98 131.06 78.59 131.06 79.2 131.06 79.81 131.06 80.42 131.06 81.03 131.06 81.64 131.06 82.25 131.06 82.86 131.06 83.48 131.06 84.09 131.06 84.7 131.06 85.31 131.06 85.92 131.06 86.53 131.06 87.14 131.06 87.75 131.06 88.36 131.06 88.97 131.06 89.58 131.06 90.19 131.06 90.8 131.06 91.42 131.06 92.03 131.06 92.64 131.06 93.25 131.06 93.86 131.06 94.47 131.06 95.08 131.06 95.69 131.06 96.3 131.06 96.91 131.06 97.52 131.06 98.13 131.06 98.74 131.06 99.35 131.06 99.97 131.06 100.58 131.06 101.19 131.06 101.8 131.06 102.41 131.06 103.02 131.06 103.63 131.06 104.24 131.06 104.85 131.06 105.46 131.06 106.07 131.06 106.68 131.06 107.29 131.06 107.91 131.06 108.52 131.06 109.13 131.06 109.74 131.06 110.35 131.06 110.96 131.06 111.57 131.06 112.18 131.06 112.79 131.06 113.4 131.06 114.01 131.06 114.62 131.05 115.23 131.05 115.84 131.05 116.46 131.05 117.07 131.05 117.68 131.05 118.29 131.05 118.9 131.05 119.51 131.05 120.12 131.05 120.73 131.05 121.34 131.05 121.95 131.05 122.56 131.05 123.17 131.05 123.78 131.05 124.4 131.05 125.01 131.05 125.62 131.05 126.23 131.05 126.84 131.05 127.45 131.05 128.06 131.05 128.67 131.05 129.28 131.05 129.89 131.04 130.5 131.04 131.11 131.04 131.72 131.04 132.34 131.04 132.95 131.04 133.56 131.04 134.17 131.04 134.78 131.04 135.39 131.04 136 131.04 136.61 131.04 137.22 131.04 137.83 131.03 138.44 131.03 139.05 131.03 139.66 131.03 140.27 131.03 140.89 131.03 141.5 131.03 142.11 131.03 142.72 131.02 143.33 131.02 143.94 131.02 144.55 131.02 145.16 131.02 145.77 131.02 146.38 131.01 146.99 131.01 147.6 131.01 148.21 131.01 148.83 131.01 149.44 131 150.05 131 150.66 131 151.27 131 151.88 130.99 152.49 130.99 153.1 130.99 153.71 130.98 154.32 130.98 154.93 130.97 155.54 130.97 156.15 130.96 156.76 130.96 157.38 130.95 157.99 130.95 158.6 130.94 159.21 130.93 159.82 130.92 160.43 130.91 161.04 130.9 161.65 130.89 162.26 130.88 162.87 130.87 163.48 130.85 164.09 130.83 164.7 130.81 165.32 130.78 165.93 130.75 166.54 130.71 167.15 130.66 167.76 130.6 168.37 130.52 168.98 130.4 169.59 130.22 170.2 129.93 170.81 129.35 171.42 127.59"/>
      </g>
      <g shape-rendering="crispEdges" stroke-width="0.3" id="img-20abc5f8-16">
        <g stroke="#000000" stroke-opacity="0.000" fill="#00BFFF" class="geometry" id="img-20abc5f8-17">
          <rect x="19.93" y="100.09" width="3.09" height="31.02"/>
          <rect x="22.97" y="119.83" width="3.09" height="11.28"/>
          <rect x="26.02" y="121.24" width="3.09" height="9.87"/>
          <rect x="29.06" y="128.29" width="3.09" height="2.82"/>
          <rect x="32.1" y="128.29" width="3.09" height="2.82"/>
          <rect x="35.14" y="129.7" width="3.09" height="1.41"/>
          <rect x="38.18" y="128.29" width="3.09" height="2.82"/>
          <rect x="41.22" y="129.7" width="3.09" height="1.41"/>
          <rect x="44.27" y="129.7" width="3.09" height="1.41"/>
          <rect x="47.31" y="131.11" width="3.09" height="0.01"/>
          <rect x="50.35" y="128.29" width="3.09" height="2.82"/>
          <rect x="53.39" y="128.29" width="3.09" height="2.82"/>
          <rect x="56.43" y="129.7" width="3.09" height="1.41"/>
          <rect x="59.47" y="131.11" width="3.09" height="0.01"/>
          <rect x="62.51" y="128.29" width="3.09" height="2.82"/>
          <rect x="65.56" y="129.7" width="3.09" height="1.41"/>
          <rect x="68.6" y="126.88" width="3.09" height="4.23"/>
          <rect x="71.64" y="131.11" width="3.09" height="0.01"/>
          <rect x="74.68" y="128.29" width="3.09" height="2.82"/>
          <rect x="77.72" y="128.29" width="3.09" height="2.82"/>
          <rect x="80.76" y="131.11" width="3.09" height="0.01"/>
          <rect x="83.8" y="131.11" width="3.09" height="0.01"/>
          <rect x="86.85" y="131.11" width="3.09" height="0.01"/>
          <rect x="89.89" y="131.11" width="3.09" height="0.01"/>
          <rect x="92.93" y="131.11" width="3.09" height="0.01"/>
          <rect x="95.97" y="128.29" width="3.09" height="2.82"/>
          <rect x="99.01" y="131.11" width="3.09" height="0.01"/>
          <rect x="102.05" y="131.11" width="3.09" height="0.01"/>
          <rect x="105.1" y="131.11" width="3.09" height="0.01"/>
          <rect x="108.14" y="131.11" width="3.09" height="0.01"/>
          <rect x="111.18" y="131.11" width="3.09" height="0.01"/>
          <rect x="114.22" y="131.11" width="3.09" height="0.01"/>
          <rect x="117.26" y="131.11" width="3.09" height="0.01"/>
          <rect x="120.3" y="129.7" width="3.09" height="1.41"/>
          <rect x="123.34" y="131.11" width="3.09" height="0.01"/>
          <rect x="126.39" y="131.11" width="3.09" height="0.01"/>
          <rect x="129.43" y="129.7" width="3.09" height="1.41"/>
          <rect x="132.47" y="131.11" width="3.09" height="0.01"/>
          <rect x="135.51" y="129.7" width="3.09" height="1.41"/>
          <rect x="138.55" y="131.11" width="3.09" height="0.01"/>
          <rect x="141.59" y="129.7" width="3.09" height="1.41"/>
          <rect x="144.63" y="131.11" width="3.09" height="0.01"/>
          <rect x="147.68" y="131.11" width="3.09" height="0.01"/>
          <rect x="150.72" y="131.11" width="3.09" height="0.01"/>
          <rect x="153.76" y="128.29" width="3.09" height="2.82"/>
          <rect x="156.8" y="131.11" width="3.09" height="0.01"/>
          <rect x="159.84" y="128.29" width="3.09" height="2.82"/>
          <rect x="162.88" y="128.29" width="3.09" height="2.82"/>
          <rect x="165.93" y="129.7" width="3.09" height="1.41"/>
          <rect x="168.97" y="94.45" width="3.09" height="36.66"/>
        </g>
      </g>
    </g>
  </g>
</g>
  <g class="guide ylabels" font-size="2.82" font-family="'PT Sans Caption','Helvetica Neue','Helvetica',sans-serif" fill="#000000" id="img-20abc5f8-18">
    <text x="16.96" y="131.11" text-anchor="end" dy="0.35em">0</text>
    <text x="16.96" y="117.01" text-anchor="end" dy="0.35em">10</text>
    <text x="16.96" y="102.91" text-anchor="end" dy="0.35em">20</text>
    <text x="16.96" y="88.81" text-anchor="end" dy="0.35em">30</text>
  </g>
  <g font-size="3.88" font-family="'PT Sans','Helvetica Neue','Helvetica',sans-serif" fill="#000000" stroke="#000000" stroke-opacity="0.000" id="img-20abc5f8-19">
    <text x="8.81" y="107.96" text-anchor="middle" dy="0.35em" transform="rotate(-90, 8.81, 109.96)">density</text>
  </g>
  <g font-size="3.88" font-family="'PT Sans','Helvetica Neue','Helvetica',sans-serif" fill="#000000" stroke="#000000" stroke-opacity="0.000" id="img-20abc5f8-20">
    <text x="96" y="81.2" text-anchor="middle" dy="0.6em">Histogram of population in generation 500</text>
  </g>
</g>
<g class="plotroot xscalable yscalable" id="img-20abc5f8-21">
  <g font-size="3.88" font-family="'PT Sans','Helvetica Neue','Helvetica',sans-serif" fill="#000000" stroke="#000000" stroke-opacity="0.000" id="img-20abc5f8-22">
    <text x="108.92" y="64.59" text-anchor="middle" dy="0.6em">generation number</text>
  </g>
  <g class="guide xlabels" font-size="2.82" font-family="'PT Sans Caption','Helvetica Neue','Helvetica',sans-serif" fill="#000000" id="img-20abc5f8-23">
    <text x="21.63" y="57.91" text-anchor="middle" dy="0.6em">0</text>
    <text x="56.55" y="57.91" text-anchor="middle" dy="0.6em">100</text>
    <text x="91.46" y="57.91" text-anchor="middle" dy="0.6em">200</text>
    <text x="126.37" y="57.91" text-anchor="middle" dy="0.6em">300</text>
    <text x="161.29" y="57.91" text-anchor="middle" dy="0.6em">400</text>
    <text x="196.2" y="57.91" text-anchor="middle" dy="0.6em">500</text>
  </g>
<g clip-path="url(#img-20abc5f8-24)">
  <g id="img-20abc5f8-25">
    <g pointer-events="visible" opacity="1" fill="#FFFFFF" stroke="#000000" stroke-opacity="0.000" class="guide background" id="img-20abc5f8-26">
      <rect x="19.63" y="10.61" width="178.57" height="46.3"/>
    </g>
    <g class="guide ygridlines xfixed" stroke-dasharray="0.5,0.5" stroke-width="0.2" stroke="#808080" id="img-20abc5f8-27">
      <path fill="none" d="M19.63,54.91 L 198.2 54.91"/>
      <path fill="none" d="M19.63,33.76 L 198.2 33.76"/>
      <path fill="none" d="M19.63,12.61 L 198.2 12.61"/>
    </g>
    <g class="guide xgridlines yfixed" stroke-dasharray="0.5,0.5" stroke-width="0.2" stroke="#808080" id="img-20abc5f8-28">
      <path fill="none" d="M21.63,10.61 L 21.63 56.91"/>
      <path fill="none" d="M56.55,10.61 L 56.55 56.91"/>
      <path fill="none" d="M91.46,10.61 L 91.46 56.91"/>
      <path fill="none" d="M126.37,10.61 L 126.37 56.91"/>
      <path fill="none" d="M161.29,10.61 L 161.29 56.91"/>
      <path fill="none" d="M196.2,10.61 L 196.2 56.91"/>
    </g>
    <g class="plotpanel" id="img-20abc5f8-29">
      <g stroke-width="0.3" fill="#000000" fill-opacity="0.000" class="geometry" stroke-dasharray="none" stroke="#3288BD" id="img-20abc5f8-30">
        <path fill="none" d="M21.98,33.76 L 22.33 34.19 22.68 37.15 23.03 36.72 23.38 39.69 23.73 42.22 24.08 41.38 24.42 40.11 24.77 37.57 25.12 36.72 25.47 37.15 25.82 34.61 26.17 33.76 26.52 35.88 26.87 35.03 27.22 34.19 27.57 35.46 27.92 36.3 28.27 37.57 28.61 38.84 28.96 37.57 29.31 34.61 29.66 31.65 30.01 32.92 30.36 31.23 30.71 30.38 31.06 32.07 31.41 35.03 31.76 36.3 32.11 35.46 32.45 38.42 32.8 37.57 33.15 37.99 33.5 38.42 33.85 36.3 34.2 32.92 34.55 32.07 34.9 34.19 35.25 32.49 35.6 35.03 35.95 33.34 36.3 35.03 36.64 37.99 36.99 36.72 37.34 37.99 37.69 42.65 38.04 42.65 38.39 42.65 38.74 42.65 39.09 41.8 39.44 44.34 39.79 44.76 40.14 45.61 40.49 44.34 40.83 46.45 41.18 46.88 41.53 45.61 41.88 47.3 42.23 46.03 42.58 46.45 42.93 43.49 43.28 42.22 43.63 39.26 43.98 40.11 44.33 39.26 44.67 39.26 45.02 39.26 45.37 42.22 45.72 43.49 46.07 43.92 46.42 45.61 46.77 46.45 47.12 47.3 47.47 47.72 47.82 46.45 48.17 47.3 48.52 49.42 48.86 48.99 49.21 48.15 49.56 46.03 49.91 46.45 50.26 48.99 50.61 51.11 50.96 49.42 51.31 49.84 51.66 51.95 52.01 52.38 52.36 51.11 52.7 52.38 53.05 52.8 53.4 52.38 53.75 52.38 54.1 53.22 54.45 54.07 54.8 54.07 55.15 54.49 55.5 54.49 55.85 54.49 56.2 54.07 56.55 52.38 56.89 52.38 57.24 51.95 57.59 53.22 57.94 53.65 58.29 52.38 58.64 53.22 58.99 54.07 59.34 54.91 59.69 54.91 60.04 54.91 60.39 54.91 60.73 54.91 61.08 54.91 61.43 54.91 61.78 54.91 62.13 54.91 62.48 54.91 62.83 54.91 63.18 54.91 63.53 54.91 63.88 54.91 64.23 54.49 64.58 54.91 64.92 54.91 65.27 53.65 65.62 53.22 65.97 53.65 66.32 53.65 66.67 54.07 67.02 54.07 67.37 52.8 67.72 53.22 68.07 53.65 68.42 52.8 68.77 52.38 69.11 51.53 69.46 51.53 69.81 51.11 70.16 49.84 70.51 48.15 70.86 49.84 71.21 50.68 71.56 51.95 71.91 52.38 72.26 52.38 72.61 53.22 72.95 53.22 73.3 51.53 73.65 51.95 74 52.38 74.35 51.53 74.7 51.11 75.05 50.26 75.4 51.95 75.75 50.26 76.1 49.42 76.45 51.11 76.8 50.26 77.14 50.26 77.49 52.8 77.84 53.65 78.19 52.8 78.54 52.38 78.89 52.8 79.24 52.8 79.59 53.65 79.94 53.22 80.29 54.49 80.64 54.07 80.98 52.8 81.33 53.22 81.68 52.8 82.03 53.22 82.38 54.07 82.73 54.49 83.08 54.07 83.43 51.95 83.78 48.57 84.13 50.68 84.48 51.11 84.83 51.53 85.17 52.38 85.52 52.38 85.87 52.8 86.22 51.95 86.57 50.26 86.92 49.84 87.27 49.42 87.62 46.03 87.97 44.76 88.32 47.72 88.67 48.15 89.02 45.61 89.36 46.45 89.71 45.61 90.06 47.3 90.41 47.3 90.76 46.45 91.11 46.88 91.46 48.15 91.81 46.88 92.16 46.88 92.51 48.99 92.86 51.95 93.2 52.8 93.55 53.65 93.9 51.53 94.25 51.95 94.6 53.22 94.95 53.22 95.3 54.07 95.65 54.49 96 54.07 96.35 53.22 96.7 53.65 97.05 51.95 97.39 51.53 97.74 51.11 98.09 51.53 98.44 51.95 98.79 52.38 99.14 51.95 99.49 52.8 99.84 52.8 100.19 53.65 100.54 54.91 100.89 54.91 101.23 54.91 101.58 54.91 101.93 53.65 102.28 53.65 102.63 53.22 102.98 53.65 103.33 54.07 103.68 53.22 104.03 53.22 104.38 54.07 104.73 54.07 105.08 54.07 105.42 52.8 105.77 52.8 106.12 54.07 106.47 54.49 106.82 54.91 107.17 54.91 107.52 54.91 107.87 54.91 108.22 54.91 108.57 54.91 108.92 54.91 109.26 54.91 109.61 54.91 109.96 54.91 110.31 54.91 110.66 54.91 111.01 54.91 111.36 54.91 111.71 54.91 112.06 54.91 112.41 54.91 112.76 54.91 113.11 54.91 113.45 54.91 113.8 54.91 114.15 54.91 114.5 54.91 114.85 54.91 115.2 54.91 115.55 54.91 115.9 54.91 116.25 54.91 116.6 54.91 116.95 54.91 117.3 54.07 117.64 54.49 117.99 54.91 118.34 54.91 118.69 54.91 119.04 54.91 119.39 54.91 119.74 54.91 120.09 54.91 120.44 54.91 120.79 54.91 121.14 54.91 121.48 54.91 121.83 54.91 122.18 54.91 122.53 54.91 122.88 54.91 123.23 54.91 123.58 54.91 123.93 54.91 124.28 54.91 124.63 54.91 124.98 54.91 125.33 54.91 125.67 54.91 126.02 54.91 126.37 54.91 126.72 54.91 127.07 54.91 127.42 54.91 127.77 54.91 128.12 54.91 128.47 54.91 128.82 54.91 129.17 54.91 129.51 54.91 129.86 54.91 130.21 54.91 130.56 54.49 130.91 54.49 131.26 54.91 131.61 54.91 131.96 54.91 132.31 54.91 132.66 54.91 133.01 54.91 133.36 54.91 133.7 54.91 134.05 54.91 134.4 54.91 134.75 54.91 135.1 54.91 135.45 54.91 135.8 54.91 136.15 54.91 136.5 54.91 136.85 54.91 137.2 54.91 137.55 54.91 137.89 54.91 138.24 54.91 138.59 54.49 138.94 54.91 139.29 54.91 139.64 54.91 139.99 54.91 140.34 54.91 140.69 54.91 141.04 54.91 141.39 54.91 141.73 54.91 142.08 54.91 142.43 54.91 142.78 54.91 143.13 54.91 143.48 54.91 143.83 54.91 144.18 54.91 144.53 54.91 144.88 54.91 145.23 54.91 145.58 54.91 145.92 54.91 146.27 54.91 146.62 54.91 146.97 54.91 147.32 54.91 147.67 54.91 148.02 54.91 148.37 54.91 148.72 54.91 149.07 54.91 149.42 54.91 149.76 54.91 150.11 54.91 150.46 54.91 150.81 54.91 151.16 54.91 151.51 54.91 151.86 54.91 152.21 54.91 152.56 54.49 152.91 54.49 153.26 54.91 153.61 54.49 153.95 53.65 154.3 54.07 154.65 54.49 155 54.49 155.35 54.49 155.7 54.07 156.05 54.91 156.4 54.91 156.75 54.91 157.1 54.91 157.45 54.91 157.79 54.91 158.14 54.91 158.49 54.91 158.84 54.91 159.19 54.91 159.54 53.65 159.89 51.95 160.24 50.68 160.59 51.53 160.94 53.22 161.29 53.65 161.64 53.22 161.98 53.65 162.33 51.95 162.68 50.68 163.03 46.45 163.38 48.57 163.73 50.26 164.08 48.57 164.43 48.15 164.78 48.99 165.13 49.84 165.48 51.53 165.83 50.68 166.17 49.84 166.52 50.68 166.87 51.11 167.22 51.95 167.57 52.38 167.92 51.95 168.27 51.95 168.62 50.68 168.97 50.26 169.32 50.68 169.67 49.84 170.01 49.42 170.36 48.57 170.71 48.57 171.06 46.88 171.41 48.15 171.76 50.68 172.11 49.84 172.46 49.42 172.81 50.26 173.16 51.11 173.51 51.53 173.86 52.38 174.2 53.22 174.55 53.65 174.9 52.38 175.25 51.95 175.6 51.95 175.95 52.8 176.3 54.91 176.65 54.91 177 54.91 177.35 54.49 177.7 54.49 178.04 54.49 178.39 53.65 178.74 52.38 179.09 52.8 179.44 53.22 179.79 51.53 180.14 52.38 180.49 52.38 180.84 48.99 181.19 51.53 181.54 53.22 181.89 52.38 182.23 54.07 182.58 52.8 182.93 51.95 183.28 51.11 183.63 51.53 183.98 49.84 184.33 49.84 184.68 51.11 185.03 50.68 185.38 50.26 185.73 51.95 186.08 52.38 186.42 54.49 186.77 54.49 187.12 54.07 187.47 54.49 187.82 54.91 188.17 54.91 188.52 54.91 188.87 54.91 189.22 54.91 189.57 54.91 189.92 54.91 190.26 54.91 190.61 54.91 190.96 54.91 191.31 54.91 191.66 54.91 192.01 54.91 192.36 54.91 192.71 54.91 193.06 54.91 193.41 54.91 193.76 54.91 194.11 54.91 194.45 54.91 194.8 54.07 195.15 53.22 195.5 54.07 195.85 54.07 196.2 53.65"/>
      </g>
      <g stroke-width="0.3" fill="#000000" fill-opacity="0.000" class="geometry" stroke-dasharray="none" stroke="#66C2A5" id="img-20abc5f8-31">
        <path fill="none" d="M21.98,33.76 L 22.33 36.72 22.68 40.53 23.03 37.99 23.38 36.3 23.73 36.72 24.08 37.99 24.42 37.99 24.77 35.46 25.12 34.19 25.47 34.19 25.82 32.92 26.17 34.61 26.52 32.92 26.87 31.23 27.22 30.8 27.57 30.38 27.92 29.53 28.27 29.11 28.61 27.84 28.96 28.26 29.31 26.99 29.66 29.11 30.01 28.26 30.36 27.42 30.71 28.69 31.06 30.38 31.41 29.53 31.76 29.11 32.11 30.8 32.45 26.57 32.8 25.3 33.15 20.65 33.5 18.53 33.85 16.42 34.2 15.57 34.55 16.84 34.9 17.27 35.25 19.38 35.6 18.11 35.95 17.27 36.3 17.69 36.64 18.96 36.99 18.11 37.34 17.27 37.69 17.69 38.04 18.53 38.39 17.69 38.74 17.27 39.09 16.84 39.44 16 39.79 16.84 40.14 13.88 40.49 13.88 40.83 15.15 41.18 14.3 41.53 16 41.88 15.57 42.23 15.57 42.58 15.57 42.93 15.57 43.28 14.3 43.63 14.3 43.98 12.61 44.33 12.61 44.67 12.61 45.02 12.61 45.37 12.61 45.72 12.61 46.07 12.61 46.42 12.61 46.77 12.61 47.12 12.61 47.47 12.61 47.82 12.61 48.17 12.61 48.52 12.61 48.86 12.61 49.21 12.61 49.56 12.61 49.91 12.61 50.26 12.61 50.61 12.61 50.96 12.61 51.31 12.61 51.66 12.61 52.01 12.61 52.36 12.61 52.7 12.61 53.05 12.61 53.4 12.61 53.75 12.61 54.1 12.61 54.45 12.61 54.8 12.61 55.15 12.61 55.5 12.61 55.85 12.61 56.2 12.61 56.55 12.61 56.89 12.61 57.24 12.61 57.59 12.61 57.94 12.61 58.29 12.61 58.64 12.61 58.99 12.61 59.34 13.88 59.69 13.88 60.04 14.3 60.39 14.3 60.73 15.15 61.08 14.3 61.43 13.46 61.78 15.15 62.13 14.73 62.48 13.46 62.83 14.3 63.18 14.3 63.53 15.15 63.88 16.42 64.23 15.57 64.58 16 64.92 17.27 65.27 16.84 65.62 18.96 65.97 17.69 66.32 16.84 66.67 14.3 67.02 15.57 67.37 14.73 67.72 14.73 68.07 15.15 68.42 13.88 68.77 14.3 69.11 13.03 69.46 13.46 69.81 12.61 70.16 12.61 70.51 12.61 70.86 12.61 71.21 12.61 71.56 12.61 71.91 12.61 72.26 12.61 72.61 12.61 72.95 12.61 73.3 13.88 73.65 13.46 74 13.03 74.35 13.03 74.7 13.03 75.05 13.46 75.4 13.03 75.75 12.61 76.1 12.61 76.45 12.61 76.8 12.61 77.14 12.61 77.49 12.61 77.84 12.61 78.19 12.61 78.54 12.61 78.89 12.61 79.24 12.61 79.59 12.61 79.94 12.61 80.29 12.61 80.64 12.61 80.98 13.03 81.33 13.03 81.68 13.88 82.03 13.88 82.38 13.46 82.73 13.03 83.08 12.61 83.43 12.61 83.78 12.61 84.13 12.61 84.48 12.61 84.83 12.61 85.17 12.61 85.52 12.61 85.87 12.61 86.22 12.61 86.57 12.61 86.92 12.61 87.27 12.61 87.62 12.61 87.97 12.61 88.32 12.61 88.67 12.61 89.02 12.61 89.36 12.61 89.71 12.61 90.06 12.61 90.41 12.61 90.76 12.61 91.11 12.61 91.46 12.61 91.81 12.61 92.16 13.03 92.51 13.46 92.86 13.03 93.2 12.61 93.55 12.61 93.9 12.61 94.25 12.61 94.6 12.61 94.95 12.61 95.3 12.61 95.65 12.61 96 13.03 96.35 12.61 96.7 12.61 97.05 12.61 97.39 12.61 97.74 12.61 98.09 13.03 98.44 13.03 98.79 13.46 99.14 13.88 99.49 12.61 99.84 12.61 100.19 12.61 100.54 12.61 100.89 12.61 101.23 12.61 101.58 12.61 101.93 12.61 102.28 12.61 102.63 12.61 102.98 13.03 103.33 13.03 103.68 13.03 104.03 13.03 104.38 13.03 104.73 13.03 105.08 12.61 105.42 12.61 105.77 12.61 106.12 12.61 106.47 12.61 106.82 12.61 107.17 12.61 107.52 13.03 107.87 13.03 108.22 14.3 108.57 15.57 108.92 15.15 109.26 16 109.61 17.27 109.96 17.69 110.31 15.57 110.66 14.3 111.01 14.73 111.36 16 111.71 15.57 112.06 16.84 112.41 15.15 112.76 15.15 113.11 15.57 113.45 15.15 113.8 15.15 114.15 15.57 114.5 15.15 114.85 13.88 115.2 14.73 115.55 13.46 115.9 13.46 116.25 13.46 116.6 15.15 116.95 15.57 117.3 14.3 117.64 14.73 117.99 15.15 118.34 15.57 118.69 13.88 119.04 12.61 119.39 12.61 119.74 12.61 120.09 12.61 120.44 12.61 120.79 12.61 121.14 12.61 121.48 12.61 121.83 12.61 122.18 12.61 122.53 12.61 122.88 12.61 123.23 12.61 123.58 12.61 123.93 12.61 124.28 12.61 124.63 12.61 124.98 12.61 125.33 12.61 125.67 12.61 126.02 12.61 126.37 12.61 126.72 12.61 127.07 12.61 127.42 12.61 127.77 12.61 128.12 12.61 128.47 12.61 128.82 12.61 129.17 12.61 129.51 13.88 129.86 13.46 130.21 12.61 130.56 12.61 130.91 12.61 131.26 12.61 131.61 12.61 131.96 12.61 132.31 12.61 132.66 12.61 133.01 12.61 133.36 12.61 133.7 12.61 134.05 12.61 134.4 12.61 134.75 12.61 135.1 12.61 135.45 12.61 135.8 12.61 136.15 12.61 136.5 12.61 136.85 12.61 137.2 12.61 137.55 12.61 137.89 12.61 138.24 13.03 138.59 13.46 138.94 13.88 139.29 14.3 139.64 15.15 139.99 16.42 140.34 18.11 140.69 21.07 141.04 20.23 141.39 20.23 141.73 19.8 142.08 16 142.43 17.27 142.78 16.42 143.13 16.42 143.48 16 143.83 16 144.18 15.57 144.53 14.3 144.88 13.03 145.23 13.03 145.58 13.88 145.92 14.3 146.27 15.15 146.62 14.3 146.97 13.46 147.32 13.46 147.67 14.3 148.02 13.88 148.37 15.57 148.72 15.57 149.07 13.88 149.42 15.15 149.76 15.15 150.11 16 150.46 16 150.81 15.57 151.16 15.15 151.51 15.57 151.86 16 152.21 16.42 152.56 17.69 152.91 18.53 153.26 18.53 153.61 19.8 153.95 16.42 154.3 17.69 154.65 16.42 155 14.73 155.35 13.88 155.7 14.73 156.05 14.3 156.4 14.3 156.75 13.46 157.1 13.46 157.45 13.03 157.79 13.03 158.14 13.03 158.49 13.46 158.84 13.88 159.19 14.73 159.54 14.73 159.89 13.46 160.24 14.3 160.59 15.15 160.94 13.88 161.29 13.88 161.64 13.46 161.98 13.88 162.33 13.46 162.68 14.3 163.03 14.73 163.38 15.57 163.73 16 164.08 16 164.43 16.42 164.78 16.84 165.13 18.53 165.48 17.69 165.83 16.84 166.17 16.84 166.52 16.42 166.87 16 167.22 16.84 167.57 16.84 167.92 17.27 168.27 17.27 168.62 18.96 168.97 15.57 169.32 16.84 169.67 18.53 170.01 18.96 170.36 20.23 170.71 19.8 171.06 21.07 171.41 19.38 171.76 19.8 172.11 20.23 172.46 19.8 172.81 21.07 173.16 19.8 173.51 20.65 173.86 19.8 174.2 21.07 174.55 21.5 174.9 23.19 175.25 22.34 175.6 21.92 175.95 22.34 176.3 22.34 176.65 22.34 177 20.65 177.35 17.69 177.7 18.53 178.04 21.5 178.39 21.92 178.74 21.5 179.09 24.03 179.44 21.92 179.79 21.5 180.14 18.11 180.49 16 180.84 16.84 181.19 16.42 181.54 16 181.89 16 182.23 15.57 182.58 16.84 182.93 16.42 183.28 15.15 183.63 15.57 183.98 16 184.33 15.57 184.68 16.42 185.03 14.73 185.38 15.15 185.73 15.57 186.08 14.3 186.42 14.73 186.77 14.73 187.12 15.15 187.47 13.88 187.82 14.3 188.17 14.73 188.52 14.73 188.87 14.73 189.22 13.88 189.57 13.46 189.92 14.73 190.26 15.15 190.61 13.46 190.96 13.46 191.31 13.46 191.66 14.3 192.01 14.3 192.36 13.88 192.71 13.88 193.06 13.88 193.41 13.46 193.76 14.3 194.11 13.88 194.45 13.03 194.8 12.61 195.15 12.61 195.5 12.61 195.85 12.61 196.2 12.61"/>
      </g>
      <g stroke-width="0.3" fill="#000000" fill-opacity="0.000" class="geometry" stroke-dasharray="none" stroke="#ABDDA4" id="img-20abc5f8-32">
        <path fill="none" d="M21.98,33.76 L 22.33 32.92 22.68 36.3 23.03 32.07 23.38 30.38 23.73 30.8 24.08 32.07 24.42 26.15 24.77 21.07 25.12 22.34 25.47 24.46 25.82 24.46 26.17 22.76 26.52 24.46 26.87 24.03 27.22 20.65 27.57 19.38 27.92 20.65 28.27 21.07 28.61 20.23 28.96 19.38 29.31 19.38 29.66 18.96 30.01 16 30.36 14.73 30.71 16.42 31.06 14.3 31.41 13.46 31.76 13.88 32.11 12.61 32.45 12.61 32.8 12.61 33.15 12.61 33.5 13.03 33.85 12.61 34.2 12.61 34.55 12.61 34.9 12.61 35.25 12.61 35.6 12.61 35.95 12.61 36.3 12.61 36.64 12.61 36.99 12.61 37.34 12.61 37.69 12.61 38.04 12.61 38.39 12.61 38.74 12.61 39.09 12.61 39.44 12.61 39.79 12.61 40.14 12.61 40.49 12.61 40.83 12.61 41.18 12.61 41.53 12.61 41.88 12.61 42.23 12.61 42.58 12.61 42.93 12.61 43.28 12.61 43.63 12.61 43.98 12.61 44.33 12.61 44.67 12.61 45.02 12.61 45.37 12.61 45.72 12.61 46.07 12.61 46.42 12.61 46.77 12.61 47.12 12.61 47.47 12.61 47.82 12.61 48.17 12.61 48.52 12.61 48.86 12.61 49.21 12.61 49.56 12.61 49.91 13.03 50.26 13.03 50.61 13.88 50.96 14.3 51.31 13.88 51.66 14.73 52.01 13.88 52.36 13.46 52.7 12.61 53.05 12.61 53.4 12.61 53.75 13.03 54.1 13.03 54.45 12.61 54.8 12.61 55.15 12.61 55.5 12.61 55.85 13.46 56.2 13.46 56.55 13.88 56.89 13.46 57.24 13.46 57.59 13.03 57.94 12.61 58.29 12.61 58.64 12.61 58.99 12.61 59.34 12.61 59.69 12.61 60.04 12.61 60.39 12.61 60.73 12.61 61.08 12.61 61.43 12.61 61.78 12.61 62.13 12.61 62.48 12.61 62.83 12.61 63.18 12.61 63.53 12.61 63.88 12.61 64.23 12.61 64.58 12.61 64.92 12.61 65.27 12.61 65.62 12.61 65.97 12.61 66.32 12.61 66.67 12.61 67.02 12.61 67.37 13.03 67.72 13.03 68.07 13.03 68.42 13.46 68.77 12.61 69.11 12.61 69.46 12.61 69.81 12.61 70.16 12.61 70.51 12.61 70.86 12.61 71.21 12.61 71.56 12.61 71.91 12.61 72.26 12.61 72.61 12.61 72.95 12.61 73.3 12.61 73.65 12.61 74 12.61 74.35 12.61 74.7 12.61 75.05 12.61 75.4 12.61 75.75 12.61 76.1 12.61 76.45 13.46 76.8 13.88 77.14 13.88 77.49 13.88 77.84 13.46 78.19 13.03 78.54 13.46 78.89 14.3 79.24 14.3 79.59 14.73 79.94 14.73 80.29 16 80.64 15.15 80.98 14.3 81.33 14.3 81.68 13.46 82.03 13.46 82.38 13.46 82.73 13.46 83.08 13.46 83.43 13.03 83.78 13.03 84.13 12.61 84.48 12.61 84.83 13.03 85.17 12.61 85.52 12.61 85.87 12.61 86.22 12.61 86.57 12.61 86.92 12.61 87.27 12.61 87.62 12.61 87.97 12.61 88.32 12.61 88.67 12.61 89.02 12.61 89.36 12.61 89.71 13.46 90.06 12.61 90.41 13.46 90.76 13.46 91.11 13.46 91.46 13.46 91.81 14.3 92.16 13.46 92.51 12.61 92.86 12.61 93.2 12.61 93.55 12.61 93.9 12.61 94.25 12.61 94.6 12.61 94.95 12.61 95.3 12.61 95.65 12.61 96 12.61 96.35 12.61 96.7 12.61 97.05 12.61 97.39 12.61 97.74 12.61 98.09 12.61 98.44 13.88 98.79 15.57 99.14 16 99.49 16.42 99.84 18.11 100.19 20.23 100.54 20.23 100.89 20.23 101.23 18.53 101.58 21.07 101.93 20.65 102.28 19.8 102.63 18.96 102.98 19.8 103.33 18.11 103.68 17.27 104.03 15.57 104.38 16 104.73 13.46 105.08 14.3 105.42 15.57 105.77 14.73 106.12 14.3 106.47 16 106.82 18.11 107.17 17.69 107.52 18.53 107.87 19.38 108.22 20.23 108.57 21.07 108.92 20.65 109.26 22.34 109.61 23.61 109.96 28.26 110.31 24.03 110.66 21.07 111.01 18.53 111.36 16.84 111.71 16 112.06 14.3 112.41 14.3 112.76 14.73 113.11 16.42 113.45 15.57 113.8 15.57 114.15 15.57 114.5 13.88 114.85 13.46 115.2 13.46 115.55 14.73 115.9 15.15 116.25 15.15 116.6 15.57 116.95 16 117.3 16.84 117.64 16.42 117.99 17.27 118.34 17.27 118.69 17.69 119.04 16.84 119.39 16.84 119.74 16.84 120.09 16.42 120.44 17.27 120.79 17.27 121.14 15.57 121.48 15.57 121.83 16.84 122.18 18.96 122.53 16.84 122.88 14.73 123.23 15.15 123.58 15.15 123.93 14.3 124.28 14.3 124.63 14.3 124.98 14.3 125.33 14.3 125.67 15.57 126.02 15.15 126.37 16.42 126.72 16.42 127.07 14.73 127.42 13.03 127.77 12.61 128.12 12.61 128.47 13.46 128.82 13.88 129.17 13.88 129.51 13.88 129.86 13.03 130.21 13.03 130.56 13.03 130.91 13.03 131.26 13.46 131.61 13.46 131.96 14.3 132.31 13.46 132.66 13.46 133.01 13.46 133.36 13.88 133.7 13.88 134.05 13.88 134.4 12.61 134.75 12.61 135.1 12.61 135.45 12.61 135.8 12.61 136.15 12.61 136.5 12.61 136.85 12.61 137.2 13.03 137.55 13.03 137.89 12.61 138.24 12.61 138.59 12.61 138.94 12.61 139.29 12.61 139.64 12.61 139.99 12.61 140.34 12.61 140.69 12.61 141.04 12.61 141.39 12.61 141.73 12.61 142.08 12.61 142.43 12.61 142.78 12.61 143.13 12.61 143.48 12.61 143.83 12.61 144.18 12.61 144.53 12.61 144.88 13.46 145.23 13.46 145.58 13.88 145.92 14.73 146.27 15.57 146.62 16 146.97 16 147.32 17.69 147.67 19.8 148.02 21.07 148.37 21.07 148.72 19.8 149.07 19.38 149.42 21.92 149.76 20.23 150.11 21.07 150.46 20.65 150.81 18.96 151.16 20.65 151.51 24.03 151.86 26.15 152.21 24.88 152.56 23.61 152.91 24.88 153.26 27.42 153.61 24.88 153.95 23.19 154.3 24.88 154.65 26.57 155 26.57 155.35 26.99 155.7 26.57 156.05 25.3 156.4 22.76 156.75 22.76 157.1 25.3 157.45 24.88 157.79 23.61 158.14 21.92 158.49 21.92 158.84 21.07 159.19 21.5 159.54 21.07 159.89 21.07 160.24 21.92 160.59 20.23 160.94 21.07 161.29 22.76 161.64 23.19 161.98 21.5 162.33 23.19 162.68 28.26 163.03 30.38 163.38 26.99 163.73 27.84 164.08 27.84 164.43 24.88 164.78 26.15 165.13 29.53 165.48 30.38 165.83 28.69 166.17 25.73 166.52 26.15 166.87 26.57 167.22 28.26 167.57 24.88 167.92 25.3 168.27 23.61 168.62 21.07 168.97 18.53 169.32 16 169.67 16 170.01 13.88 170.36 13.46 170.71 14.3 171.06 13.88 171.41 13.88 171.76 14.3 172.11 14.73 172.46 15.15 172.81 16.84 173.16 17.69 173.51 18.11 173.86 18.53 174.2 19.38 174.55 20.23 174.9 21.5 175.25 21.07 175.6 22.76 175.95 21.5 176.3 21.5 176.65 21.92 177 18.96 177.35 21.07 177.7 21.92 178.04 21.07 178.39 21.07 178.74 24.46 179.09 25.3 179.44 26.57 179.79 27.84 180.14 30.8 180.49 28.26 180.84 26.99 181.19 26.15 181.54 25.3 181.89 23.19 182.23 19.8 182.58 19.8 182.93 19.38 183.28 18.96 183.63 17.27 183.98 18.53 184.33 17.69 184.68 19.38 185.03 16.42 185.38 14.3 185.73 13.46 186.08 12.61 186.42 12.61 186.77 12.61 187.12 12.61 187.47 12.61 187.82 12.61 188.17 12.61 188.52 12.61 188.87 12.61 189.22 12.61 189.57 12.61 189.92 12.61 190.26 12.61 190.61 12.61 190.96 12.61 191.31 12.61 191.66 12.61 192.01 12.61 192.36 12.61 192.71 12.61 193.06 12.61 193.41 13.03 193.76 12.61 194.11 12.61 194.45 12.61 194.8 12.61 195.15 12.61 195.5 12.61 195.85 12.61 196.2 12.61"/>
      </g>
      <g stroke-width="0.3" fill="#000000" fill-opacity="0.000" class="geometry" stroke-dasharray="none" stroke="#E6F598" id="img-20abc5f8-33">
        <path fill="none" d="M21.98,33.76 L 22.33 31.65 22.68 36.3 23.03 37.99 23.38 37.57 23.73 42.22 24.08 37.15 24.42 38.84 24.77 38.84 25.12 39.26 25.47 39.69 25.82 37.57 26.17 35.46 26.52 34.61 26.87 36.72 27.22 36.3 27.57 37.15 27.92 35.03 28.27 32.92 28.61 30.38 28.96 26.99 29.31 28.69 29.66 27.84 30.01 27.42 30.36 28.69 30.71 28.69 31.06 30.38 31.41 35.88 31.76 37.15 32.11 38.84 32.45 39.69 32.8 40.11 33.15 40.11 33.5 37.15 33.85 35.88 34.2 36.72 34.55 34.19 34.9 33.34 35.25 30.38 35.6 33.34 35.95 30.38 36.3 30.38 36.64 30.38 36.99 32.92 37.34 34.19 37.69 31.23 38.04 32.49 38.39 31.23 38.74 35.03 39.09 34.61 39.44 33.34 39.79 34.61 40.14 32.49 40.49 32.07 40.83 28.69 41.18 27.42 41.53 26.15 41.88 27.84 42.23 26.99 42.58 26.15 42.93 26.99 43.28 26.57 43.63 28.26 43.98 29.53 44.33 29.11 44.67 32.92 45.02 31.65 45.37 29.53 45.72 29.53 46.07 36.72 46.42 35.46 46.77 37.99 47.12 37.15 47.47 36.72 47.82 34.61 48.17 35.88 48.52 39.26 48.86 38.84 49.21 38.42 49.56 40.11 49.91 40.53 50.26 40.11 50.61 40.11 50.96 42.65 51.31 44.34 51.66 48.15 52.01 48.15 52.36 45.19 52.7 44.34 53.05 43.49 53.4 42.65 53.75 43.92 54.1 42.22 54.45 44.34 54.8 45.19 55.15 46.88 55.5 47.72 55.85 47.72 56.2 44.76 56.55 42.65 56.89 45.61 57.24 43.49 57.59 42.22 57.94 46.45 58.29 44.34 58.64 43.49 58.99 43.92 59.34 44.34 59.69 48.15 60.04 48.15 60.39 50.26 60.73 50.68 61.08 48.15 61.43 49.42 61.78 50.68 62.13 51.11 62.48 50.26 62.83 48.99 63.18 47.3 63.53 48.99 63.88 47.3 64.23 45.19 64.58 44.34 64.92 42.65 65.27 41.38 65.62 43.92 65.97 42.65 66.32 44.34 66.67 41.38 67.02 43.49 67.37 44.34 67.72 45.61 68.07 43.49 68.42 40.95 68.77 45.61 69.11 45.19 69.46 48.57 69.81 47.3 70.16 46.45 70.51 46.88 70.86 46.88 71.21 46.03 71.56 43.92 71.91 45.19 72.26 46.45 72.61 45.19 72.95 48.15 73.3 48.57 73.65 49.42 74 49.42 74.35 49.84 74.7 48.15 75.05 46.03 75.4 47.72 75.75 45.61 76.1 44.34 76.45 43.92 76.8 46.03 77.14 47.72 77.49 47.3 77.84 45.19 78.19 43.92 78.54 43.92 78.89 44.76 79.24 44.76 79.59 45.19 79.94 45.61 80.29 45.19 80.64 41.38 80.98 40.95 81.33 43.07 81.68 43.07 82.03 43.49 82.38 45.19 82.73 45.19 83.08 43.49 83.43 42.22 83.78 44.76 84.13 46.88 84.48 47.3 84.83 46.45 85.17 45.19 85.52 44.34 85.87 42.65 86.22 41.8 86.57 45.61 86.92 46.88 87.27 48.99 87.62 51.11 87.97 50.26 88.32 49.84 88.67 48.99 89.02 50.68 89.36 50.26 89.71 50.26 90.06 52.8 90.41 53.65 90.76 54.07 91.11 52.8 91.46 52.38 91.81 52.8 92.16 54.07 92.51 54.07 92.86 53.65 93.2 53.22 93.55 53.22 93.9 51.95 94.25 52.8 94.6 51.53 94.95 49.42 95.3 50.26 95.65 50.26 96 51.95 96.35 52.8 96.7 52.8 97.05 52.8 97.39 54.07 97.74 54.07 98.09 53.22 98.44 54.07 98.79 53.65 99.14 52.8 99.49 53.22 99.84 53.65 100.19 54.49 100.54 54.07 100.89 54.49 101.23 54.49 101.58 54.07 101.93 54.07 102.28 54.49 102.63 54.91 102.98 54.91 103.33 54.91 103.68 54.91 104.03 54.91 104.38 54.91 104.73 54.91 105.08 54.91 105.42 54.91 105.77 54.91 106.12 54.91 106.47 54.91 106.82 54.91 107.17 54.91 107.52 54.91 107.87 54.91 108.22 54.91 108.57 54.91 108.92 54.91 109.26 54.91 109.61 54.91 109.96 54.91 110.31 54.91 110.66 54.91 111.01 54.91 111.36 54.91 111.71 54.07 112.06 52.8 112.41 52.38 112.76 54.07 113.11 54.91 113.45 54.49 113.8 54.49 114.15 54.91 114.5 54.91 114.85 54.91 115.2 54.91 115.55 54.91 115.9 54.91 116.25 54.91 116.6 54.91 116.95 54.91 117.3 54.91 117.64 54.91 117.99 54.91 118.34 54.91 118.69 54.91 119.04 54.91 119.39 54.91 119.74 54.91 120.09 54.91 120.44 54.91 120.79 54.91 121.14 54.91 121.48 54.91 121.83 54.91 122.18 54.91 122.53 54.91 122.88 54.91 123.23 54.91 123.58 54.91 123.93 54.91 124.28 54.91 124.63 54.91 124.98 54.91 125.33 54.91 125.67 54.91 126.02 54.91 126.37 54.91 126.72 54.91 127.07 54.91 127.42 54.91 127.77 54.91 128.12 54.91 128.47 54.91 128.82 54.91 129.17 54.91 129.51 54.49 129.86 54.91 130.21 54.91 130.56 54.91 130.91 54.91 131.26 54.91 131.61 54.91 131.96 54.91 132.31 54.91 132.66 54.91 133.01 54.91 133.36 54.91 133.7 54.91 134.05 54.91 134.4 54.91 134.75 54.91 135.1 54.91 135.45 54.91 135.8 54.49 136.15 54.91 136.5 54.91 136.85 54.91 137.2 54.91 137.55 54.91 137.89 54.91 138.24 54.91 138.59 54.91 138.94 54.91 139.29 54.91 139.64 54.91 139.99 54.91 140.34 54.91 140.69 54.91 141.04 54.91 141.39 54.91 141.73 54.91 142.08 54.91 142.43 54.91 142.78 54.91 143.13 54.91 143.48 54.91 143.83 54.91 144.18 54.91 144.53 54.07 144.88 54.91 145.23 54.91 145.58 54.91 145.92 54.91 146.27 54.91 146.62 54.91 146.97 54.91 147.32 54.91 147.67 54.91 148.02 54.91 148.37 54.91 148.72 54.91 149.07 54.91 149.42 54.91 149.76 54.91 150.11 54.07 150.46 54.07 150.81 53.65 151.16 54.49 151.51 54.91 151.86 54.91 152.21 54.91 152.56 54.91 152.91 54.91 153.26 54.91 153.61 54.91 153.95 54.91 154.3 54.91 154.65 54.49 155 54.91 155.35 54.91 155.7 54.91 156.05 54.91 156.4 54.91 156.75 54.91 157.1 54.91 157.45 54.91 157.79 54.91 158.14 54.91 158.49 54.91 158.84 54.91 159.19 54.91 159.54 54.91 159.89 54.91 160.24 54.91 160.59 54.91 160.94 54.07 161.29 54.91 161.64 54.49 161.98 54.49 162.33 54.07 162.68 54.49 163.03 54.07 163.38 54.91 163.73 54.91 164.08 54.91 164.43 54.91 164.78 54.91 165.13 54.91 165.48 54.91 165.83 54.91 166.17 54.91 166.52 54.91 166.87 54.91 167.22 54.91 167.57 54.91 167.92 54.91 168.27 54.91 168.62 54.91 168.97 54.91 169.32 54.91 169.67 54.91 170.01 54.91 170.36 54.91 170.71 54.91 171.06 54.91 171.41 54.91 171.76 54.91 172.11 54.91 172.46 54.91 172.81 54.91 173.16 54.91 173.51 54.91 173.86 54.91 174.2 54.91 174.55 54.91 174.9 54.91 175.25 54.91 175.6 54.07 175.95 54.49 176.3 54.91 176.65 54.91 177 54.91 177.35 54.91 177.7 54.91 178.04 54.91 178.39 54.91 178.74 54.91 179.09 54.91 179.44 54.91 179.79 54.91 180.14 54.91 180.49 54.49 180.84 54.91 181.19 54.91 181.54 54.91 181.89 54.91 182.23 54.91 182.58 54.91 182.93 54.91 183.28 54.91 183.63 53.65 183.98 53.65 184.33 53.65 184.68 52.38 185.03 53.22 185.38 52.8 185.73 53.22 186.08 54.07 186.42 54.49 186.77 53.65 187.12 54.07 187.47 54.07 187.82 54.49 188.17 54.91 188.52 54.91 188.87 54.91 189.22 54.91 189.57 54.07 189.92 54.07 190.26 54.49 190.61 54.49 190.96 54.49 191.31 54.49 191.66 54.91 192.01 54.91 192.36 54.91 192.71 54.91 193.06 54.91 193.41 54.91 193.76 54.91 194.11 54.91 194.45 54.91 194.8 53.65 195.15 53.22 195.5 54.49 195.85 54.91 196.2 54.91"/>
      </g>
      <g stroke-width="0.3" fill="#000000" fill-opacity="0.000" class="geometry" stroke-dasharray="none" stroke="#FFFFBF" id="img-20abc5f8-34">
        <path fill="none" d="M21.98,33.76 L 22.33 33.34 22.68 32.92 23.03 35.88 23.38 33.34 23.73 34.61 24.08 38.42 24.42 38.42 24.77 39.26 25.12 40.11 25.47 40.11 25.82 40.53 26.17 37.99 26.52 38.42 26.87 42.22 27.22 41.8 27.57 39.26 27.92 41.8 28.27 40.53 28.61 41.8 28.96 40.11 29.31 40.95 29.66 39.26 30.01 36.3 30.36 35.03 30.71 33.76 31.06 32.07 31.41 32.92 31.76 33.76 32.11 32.49 32.45 36.3 32.8 33.76 33.15 32.92 33.5 33.34 33.85 33.76 34.2 35.88 34.55 37.15 34.9 39.26 35.25 42.22 35.6 40.53 35.95 40.11 36.3 40.53 36.64 38.42 36.99 42.22 37.34 42.65 37.69 42.65 38.04 43.07 38.39 42.65 38.74 45.61 39.09 48.15 39.44 49.84 39.79 48.15 40.14 43.07 40.49 44.76 40.83 47.3 41.18 50.26 41.53 51.95 41.88 52.38 42.23 52.38 42.58 52.38 42.93 52.38 43.28 51.95 43.63 52.8 43.98 51.11 44.33 51.11 44.67 52.38 45.02 53.65 45.37 54.07 45.72 54.07 46.07 54.07 46.42 53.65 46.77 52.8 47.12 50.68 47.47 50.68 47.82 52.38 48.17 50.68 48.52 53.22 48.86 53.65 49.21 54.07 49.56 53.22 49.91 52.8 50.26 53.22 50.61 52.8 50.96 53.22 51.31 52.38 51.66 53.22 52.01 51.53 52.36 51.11 52.7 50.68 53.05 52.38 53.4 52.38 53.75 49.42 54.1 49.84 54.45 49.42 54.8 50.68 55.15 50.26 55.5 48.15 55.85 47.72 56.2 45.19 56.55 43.49 56.89 44.34 57.24 45.61 57.59 46.45 57.94 46.03 58.29 45.19 58.64 45.61 58.99 47.3 59.34 49.84 59.69 48.57 60.04 49.42 60.39 51.53 60.73 48.99 61.08 48.15 61.43 47.72 61.78 46.88 62.13 43.49 62.48 44.76 62.83 47.3 63.18 47.3 63.53 46.88 63.88 45.61 64.23 45.19 64.58 46.45 64.92 43.92 65.27 44.34 65.62 43.92 65.97 45.61 66.32 46.03 66.67 46.03 67.02 48.15 67.37 48.99 67.72 48.99 68.07 50.68 68.42 49.84 68.77 49.84 69.11 48.99 69.46 48.57 69.81 48.99 70.16 47.3 70.51 46.03 70.86 49.84 71.21 48.57 71.56 48.15 71.91 48.57 72.26 49.42 72.61 46.45 72.95 49.84 73.3 49.42 73.65 51.53 74 49.84 74.35 51.53 74.7 49.84 75.05 51.11 75.4 51.53 75.75 51.11 76.1 53.22 76.45 52.8 76.8 51.95 77.14 50.68 77.49 49.42 77.84 48.57 78.19 46.45 78.54 47.72 78.89 44.76 79.24 43.07 79.59 46.03 79.94 44.34 80.29 47.3 80.64 47.72 80.98 47.72 81.33 46.45 81.68 46.03 82.03 44.76 82.38 41.38 82.73 43.49 83.08 43.49 83.43 43.07 83.78 45.19 84.13 45.19 84.48 45.61 84.83 45.19 85.17 43.07 85.52 43.07 85.87 44.34 86.22 45.61 86.57 43.92 86.92 42.65 87.27 41.38 87.62 39.69 87.97 43.49 88.32 46.45 88.67 46.45 89.02 47.72 89.36 46.45 89.71 46.45 90.06 43.92 90.41 42.65 90.76 41.38 91.11 43.49 91.46 39.26 91.81 39.26 92.16 39.69 92.51 41.38 92.86 42.65 93.2 42.22 93.55 41.8 93.9 39.69 94.25 38.42 94.6 37.15 94.95 40.53 95.3 40.95 95.65 39.69 96 36.3 96.35 39.69 96.7 38.84 97.05 37.99 97.39 37.57 97.74 35.88 98.09 36.72 98.44 37.57 98.79 39.26 99.14 40.53 99.49 42.22 99.84 43.07 100.19 45.61 100.54 45.19 100.89 47.72 101.23 47.3 101.58 48.99 101.93 49.84 102.28 48.99 102.63 48.99 102.98 48.57 103.33 48.15 103.68 48.15 104.03 51.11 104.38 51.95 104.73 51.11 105.08 50.68 105.42 51.11 105.77 52.38 106.12 51.95 106.47 53.22 106.82 52.38 107.17 53.22 107.52 53.22 107.87 54.07 108.22 51.95 108.57 53.22 108.92 53.65 109.26 53.65 109.61 54.07 109.96 54.49 110.31 54.07 110.66 53.65 111.01 53.65 111.36 54.07 111.71 54.07 112.06 54.49 112.41 54.49 112.76 54.07 113.11 54.07 113.45 54.91 113.8 54.91 114.15 54.91 114.5 54.91 114.85 54.91 115.2 54.91 115.55 54.91 115.9 54.91 116.25 54.91 116.6 54.91 116.95 54.91 117.3 54.91 117.64 54.91 117.99 54.91 118.34 54.91 118.69 54.91 119.04 54.91 119.39 54.91 119.74 54.91 120.09 54.91 120.44 54.91 120.79 54.91 121.14 54.91 121.48 54.91 121.83 54.91 122.18 54.91 122.53 54.91 122.88 54.91 123.23 54.91 123.58 54.91 123.93 54.91 124.28 54.91 124.63 54.91 124.98 54.91 125.33 54.07 125.67 54.07 126.02 53.65 126.37 54.07 126.72 54.91 127.07 54.91 127.42 54.49 127.77 54.07 128.12 54.49 128.47 54.07 128.82 54.49 129.17 54.91 129.51 54.91 129.86 54.91 130.21 54.91 130.56 54.91 130.91 54.91 131.26 54.91 131.61 54.91 131.96 54.91 132.31 54.91 132.66 54.91 133.01 54.91 133.36 54.91 133.7 54.91 134.05 54.91 134.4 54.91 134.75 54.91 135.1 54.91 135.45 54.49 135.8 54.91 136.15 54.91 136.5 54.91 136.85 54.91 137.2 54.91 137.55 54.91 137.89 54.91 138.24 54.91 138.59 54.91 138.94 54.91 139.29 54.91 139.64 54.91 139.99 54.91 140.34 54.91 140.69 54.91 141.04 54.91 141.39 54.91 141.73 54.91 142.08 54.91 142.43 54.91 142.78 54.91 143.13 54.91 143.48 54.91 143.83 54.91 144.18 54.91 144.53 54.91 144.88 54.91 145.23 54.91 145.58 54.91 145.92 54.91 146.27 54.91 146.62 54.91 146.97 54.91 147.32 54.91 147.67 54.91 148.02 54.91 148.37 54.91 148.72 54.91 149.07 54.91 149.42 54.91 149.76 54.91 150.11 54.91 150.46 54.91 150.81 54.91 151.16 54.91 151.51 54.91 151.86 54.49 152.21 54.49 152.56 54.91 152.91 54.91 153.26 54.91 153.61 54.91 153.95 54.91 154.3 54.91 154.65 54.91 155 54.91 155.35 54.91 155.7 54.91 156.05 54.91 156.4 54.91 156.75 54.49 157.1 54.49 157.45 53.65 157.79 53.22 158.14 53.22 158.49 51.95 158.84 52.8 159.19 53.22 159.54 53.22 159.89 51.53 160.24 51.53 160.59 50.26 160.94 51.53 161.29 52.38 161.64 50.26 161.98 51.53 162.33 52.8 162.68 51.95 163.03 51.11 163.38 49.42 163.73 48.99 164.08 48.15 164.43 47.72 164.78 47.72 165.13 50.26 165.48 49.42 165.83 50.26 166.17 48.99 166.52 51.11 166.87 52.38 167.22 52.38 167.57 52.8 167.92 54.07 168.27 53.22 168.62 54.07 168.97 54.49 169.32 53.65 169.67 52.8 170.01 53.22 170.36 53.22 170.71 53.65 171.06 53.22 171.41 51.95 171.76 53.22 172.11 53.65 172.46 53.65 172.81 54.49 173.16 54.07 173.51 54.07 173.86 54.91 174.2 54.91 174.55 54.91 174.9 54.91 175.25 54.91 175.6 54.91 175.95 54.91 176.3 54.91 176.65 54.91 177 54.91 177.35 54.91 177.7 54.91 178.04 54.91 178.39 54.91 178.74 54.91 179.09 54.91 179.44 54.91 179.79 54.91 180.14 54.91 180.49 54.91 180.84 54.91 181.19 54.91 181.54 54.91 181.89 54.91 182.23 54.91 182.58 54.91 182.93 54.91 183.28 54.91 183.63 54.91 183.98 54.91 184.33 54.91 184.68 54.91 185.03 54.91 185.38 54.91 185.73 54.91 186.08 54.91 186.42 54.91 186.77 54.91 187.12 54.91 187.47 54.91 187.82 54.91 188.17 54.91 188.52 54.91 188.87 54.91 189.22 54.91 189.57 54.91 189.92 54.91 190.26 54.91 190.61 54.91 190.96 54.91 191.31 54.91 191.66 54.91 192.01 54.91 192.36 54.91 192.71 54.91 193.06 54.91 193.41 54.07 193.76 54.49 194.11 54.07 194.45 53.22 194.8 54.07 195.15 53.22 195.5 54.07 195.85 54.49 196.2 53.65"/>
      </g>
      <g stroke-width="0.3" fill="#000000" fill-opacity="0.000" class="geometry" stroke-dasharray="none" stroke="#FEE08B" id="img-20abc5f8-35">
        <path fill="none" d="M21.98,33.76 L 22.33 35.46 22.68 32.92 23.03 35.88 23.38 38.42 23.73 40.95 24.08 41.8 24.42 40.95 24.77 37.57 25.12 38.84 25.47 40.95 25.82 40.11 26.17 42.22 26.52 40.95 26.87 41.8 27.22 42.65 27.57 41.38 27.92 43.49 28.27 43.49 28.61 43.92 28.96 42.65 29.31 40.95 29.66 38.84 30.01 36.3 30.36 38.84 30.71 40.53 31.06 39.26 31.41 41.8 31.76 43.07 32.11 40.95 32.45 40.11 32.8 38.84 33.15 41.8 33.5 42.22 33.85 43.07 34.2 43.92 34.55 48.57 34.9 46.03 35.25 47.3 35.6 48.57 35.95 46.45 36.3 48.15 36.64 48.99 36.99 48.99 37.34 50.68 37.69 51.53 38.04 49.42 38.39 50.68 38.74 51.11 39.09 48.57 39.44 47.3 39.79 49.84 40.14 48.99 40.49 51.53 40.83 52.38 41.18 51.53 41.53 53.65 41.88 54.49 42.23 54.91 42.58 54.91 42.93 54.91 43.28 54.91 43.63 54.91 43.98 54.91 44.33 54.91 44.67 54.91 45.02 54.91 45.37 54.91 45.72 54.91 46.07 54.91 46.42 54.91 46.77 54.91 47.12 54.07 47.47 54.49 47.82 54.49 48.17 54.49 48.52 54.91 48.86 54.91 49.21 54.91 49.56 54.91 49.91 54.91 50.26 54.91 50.61 54.91 50.96 54.91 51.31 54.91 51.66 54.91 52.01 54.91 52.36 54.91 52.7 54.91 53.05 54.07 53.4 54.49 53.75 54.49 54.1 54.49 54.45 54.91 54.8 54.07 55.15 54.91 55.5 54.91 55.85 54.91 56.2 54.91 56.55 54.91 56.89 54.91 57.24 54.91 57.59 54.91 57.94 54.91 58.29 54.91 58.64 54.91 58.99 54.07 59.34 54.07 59.69 54.07 60.04 54.07 60.39 54.07 60.73 54.49 61.08 54.07 61.43 54.49 61.78 54.07 62.13 53.65 62.48 54.49 62.83 54.49 63.18 54.49 63.53 54.49 63.88 52.8 64.23 51.95 64.58 52.8 64.92 51.95 65.27 52.8 65.62 49.42 65.97 50.68 66.32 48.99 66.67 50.26 67.02 46.03 67.37 45.19 67.72 46.03 68.07 42.65 68.42 44.76 68.77 46.88 69.11 47.72 69.46 47.3 69.81 47.3 70.16 45.61 70.51 45.19 70.86 45.19 71.21 46.45 71.56 45.19 71.91 46.45 72.26 43.92 72.61 42.65 72.95 45.61 73.3 46.88 73.65 48.57 74 49.84 74.35 48.15 74.7 47.72 75.05 49.42 75.4 50.26 75.75 49.84 76.1 49.42 76.45 47.72 76.8 47.72 77.14 48.57 77.49 49.84 77.84 48.15 78.19 49.84 78.54 49.84 78.89 51.11 79.24 51.95 79.59 52.38 79.94 54.49 80.29 54.91 80.64 54.91 80.98 54.91 81.33 54.91 81.68 54.91 82.03 54.91 82.38 54.91 82.73 54.91 83.08 54.91 83.43 54.91 83.78 54.91 84.13 54.91 84.48 54.91 84.83 54.91 85.17 54.91 85.52 54.91 85.87 54.91 86.22 54.91 86.57 54.91 86.92 54.91 87.27 54.91 87.62 54.91 87.97 54.91 88.32 54.91 88.67 54.91 89.02 54.91 89.36 54.91 89.71 54.07 90.06 54.49 90.41 54.91 90.76 54.91 91.11 54.91 91.46 54.91 91.81 54.91 92.16 54.91 92.51 54.91 92.86 54.91 93.2 54.91 93.55 54.91 93.9 54.91 94.25 54.49 94.6 54.49 94.95 54.91 95.3 54.91 95.65 54.91 96 54.49 96.35 54.07 96.7 53.22 97.05 54.07 97.39 54.49 97.74 54.91 98.09 54.91 98.44 54.91 98.79 54.91 99.14 54.07 99.49 53.22 99.84 54.91 100.19 54.91 100.54 54.91 100.89 54.91 101.23 54.91 101.58 54.91 101.93 54.91 102.28 54.91 102.63 54.91 102.98 54.91 103.33 54.91 103.68 54.91 104.03 54.91 104.38 54.07 104.73 53.65 105.08 53.65 105.42 53.22 105.77 53.22 106.12 54.49 106.47 54.91 106.82 54.91 107.17 54.91 107.52 54.91 107.87 54.91 108.22 54.49 108.57 54.07 108.92 54.49 109.26 54.91 109.61 54.91 109.96 54.91 110.31 54.91 110.66 54.91 111.01 54.91 111.36 54.91 111.71 54.91 112.06 54.91 112.41 54.91 112.76 54.91 113.11 54.91 113.45 54.91 113.8 54.91 114.15 54.91 114.5 54.91 114.85 54.91 115.2 54.91 115.55 54.91 115.9 54.91 116.25 54.91 116.6 54.91 116.95 54.91 117.3 54.91 117.64 54.91 117.99 54.91 118.34 54.91 118.69 54.91 119.04 54.91 119.39 54.91 119.74 54.91 120.09 53.22 120.44 53.65 120.79 53.22 121.14 53.22 121.48 52.38 121.83 53.22 122.18 54.07 122.53 53.22 122.88 52.8 123.23 51.11 123.58 51.11 123.93 53.22 124.28 52.8 124.63 53.65 124.98 52.8 125.33 53.22 125.67 53.22 126.02 54.07 126.37 54.49 126.72 54.49 127.07 53.65 127.42 53.65 127.77 53.22 128.12 52.38 128.47 51.53 128.82 52.38 129.17 53.22 129.51 54.49 129.86 54.49 130.21 54.49 130.56 53.65 130.91 53.65 131.26 54.91 131.61 54.91 131.96 54.91 132.31 54.91 132.66 54.91 133.01 54.91 133.36 54.91 133.7 54.91 134.05 54.91 134.4 54.91 134.75 54.91 135.1 54.49 135.45 54.91 135.8 54.91 136.15 54.91 136.5 54.91 136.85 54.91 137.2 54.91 137.55 54.91 137.89 54.91 138.24 54.91 138.59 54.91 138.94 54.91 139.29 54.91 139.64 54.91 139.99 54.91 140.34 54.91 140.69 54.91 141.04 54.91 141.39 54.91 141.73 54.91 142.08 54.91 142.43 54.91 142.78 54.91 143.13 54.91 143.48 54.91 143.83 54.91 144.18 54.91 144.53 54.91 144.88 54.91 145.23 54.49 145.58 54.91 145.92 54.91 146.27 54.91 146.62 54.91 146.97 54.49 147.32 54.91 147.67 54.91 148.02 54.91 148.37 54.49 148.72 54.91 149.07 54.91 149.42 54.91 149.76 54.91 150.11 54.91 150.46 54.91 150.81 54.91 151.16 54.49 151.51 54.91 151.86 54.91 152.21 54.91 152.56 54.91 152.91 54.91 153.26 54.91 153.61 54.91 153.95 54.91 154.3 54.91 154.65 54.91 155 54.91 155.35 54.91 155.7 54.91 156.05 54.91 156.4 54.91 156.75 54.91 157.1 54.91 157.45 54.91 157.79 54.91 158.14 54.91 158.49 54.91 158.84 54.07 159.19 53.65 159.54 53.22 159.89 51.95 160.24 48.99 160.59 47.3 160.94 48.99 161.29 50.26 161.64 51.95 161.98 52.8 162.33 53.65 162.68 54.49 163.03 54.91 163.38 54.91 163.73 54.49 164.08 54.91 164.43 54.91 164.78 54.91 165.13 54.91 165.48 54.91 165.83 54.91 166.17 54.91 166.52 54.91 166.87 54.91 167.22 54.91 167.57 54.91 167.92 53.65 168.27 54.07 168.62 54.91 168.97 54.91 169.32 54.91 169.67 54.91 170.01 54.91 170.36 54.91 170.71 54.91 171.06 54.91 171.41 54.49 171.76 54.49 172.11 54.49 172.46 54.49 172.81 54.07 173.16 54.49 173.51 54.91 173.86 54.91 174.2 54.91 174.55 54.91 174.9 54.91 175.25 54.91 175.6 54.91 175.95 54.91 176.3 54.91 176.65 54.91 177 54.91 177.35 54.91 177.7 54.91 178.04 54.91 178.39 54.91 178.74 54.91 179.09 54.91 179.44 54.91 179.79 54.91 180.14 54.91 180.49 54.91 180.84 54.91 181.19 54.91 181.54 54.91 181.89 54.91 182.23 54.91 182.58 54.91 182.93 54.91 183.28 54.91 183.63 54.91 183.98 54.91 184.33 54.91 184.68 54.91 185.03 54.91 185.38 54.91 185.73 54.91 186.08 54.49 186.42 53.65 186.77 54.49 187.12 54.91 187.47 54.91 187.82 54.91 188.17 54.91 188.52 54.91 188.87 54.91 189.22 54.91 189.57 54.91 189.92 54.91 190.26 54.91 190.61 54.91 190.96 54.91 191.31 54.91 191.66 54.91 192.01 54.91 192.36 54.91 192.71 54.91 193.06 54.91 193.41 54.91 193.76 54.91 194.11 54.91 194.45 54.91 194.8 54.91 195.15 54.91 195.5 54.91 195.85 54.91 196.2 54.91"/>
      </g>
      <g stroke-width="0.3" fill="#000000" fill-opacity="0.000" class="geometry" stroke-dasharray="none" stroke="#FDAE61" id="img-20abc5f8-36">
        <path fill="none" d="M21.98,33.76 L 22.33 36.3 22.68 35.88 23.03 36.72 23.38 33.76 23.73 29.53 24.08 31.23 24.42 30.8 24.77 29.11 25.12 30.38 25.47 31.65 25.82 35.46 26.17 40.11 26.52 40.53 26.87 41.38 27.22 38.84 27.57 41.38 27.92 43.07 28.27 43.92 28.61 41.8 28.96 42.22 29.31 45.19 29.66 43.92 30.01 41.38 30.36 43.49 30.71 41.8 31.06 42.65 31.41 42.22 31.76 42.22 32.11 41.8 32.45 42.65 32.8 43.07 33.15 41.8 33.5 42.22 33.85 40.95 34.2 39.26 34.55 38.42 34.9 37.99 35.25 41.38 35.6 39.26 35.95 35.46 36.3 36.72 36.64 38.84 36.99 41.8 37.34 41.38 37.69 41.8 38.04 40.53 38.39 37.99 38.74 40.11 39.09 42.65 39.44 39.69 39.79 38.42 40.14 39.69 40.49 37.57 40.83 40.11 41.18 38.84 41.53 40.95 41.88 42.22 42.23 40.95 42.58 40.95 42.93 41.38 43.28 40.95 43.63 40.11 43.98 37.15 44.33 38.42 44.67 36.72 45.02 34.19 45.37 32.92 45.72 33.76 46.07 30.8 46.42 35.88 46.77 33.76 47.12 35.88 47.47 32.92 47.82 32.49 48.17 32.49 48.52 34.19 48.86 33.76 49.21 32.07 49.56 31.23 49.91 28.26 50.26 27.84 50.61 29.96 50.96 29.11 51.31 28.69 51.66 28.26 52.01 26.15 52.36 24.88 52.7 27.42 53.05 26.15 53.4 24.03 53.75 21.07 54.1 21.07 54.45 22.34 54.8 24.46 55.15 25.3 55.5 24.03 55.85 24.03 56.2 23.61 56.55 22.34 56.89 21.92 57.24 22.76 57.59 24.03 57.94 27.84 58.29 26.99 58.64 26.57 58.99 23.61 59.34 22.34 59.69 19.38 60.04 18.53 60.39 18.11 60.73 16.84 61.08 15.57 61.43 16.42 61.78 16.42 62.13 17.27 62.48 16.84 62.83 17.27 63.18 17.27 63.53 14.73 63.88 16 64.23 18.96 64.58 18.53 64.92 16.42 65.27 15.57 65.62 16.42 65.97 16.42 66.32 17.69 66.67 17.27 67.02 18.53 67.37 16.84 67.72 16 68.07 16.42 68.42 16.42 68.77 14.73 69.11 13.88 69.46 12.61 69.81 12.61 70.16 12.61 70.51 12.61 70.86 12.61 71.21 12.61 71.56 12.61 71.91 12.61 72.26 12.61 72.61 12.61 72.95 12.61 73.3 13.46 73.65 13.88 74 15.15 74.35 15.15 74.7 16 75.05 15.57 75.4 13.03 75.75 13.03 76.1 13.03 76.45 13.03 76.8 12.61 77.14 12.61 77.49 12.61 77.84 12.61 78.19 12.61 78.54 12.61 78.89 12.61 79.24 12.61 79.59 12.61 79.94 12.61 80.29 13.03 80.64 13.88 80.98 13.46 81.33 13.46 81.68 13.03 82.03 13.03 82.38 13.88 82.73 13.46 83.08 13.03 83.43 13.88 83.78 14.3 84.13 13.88 84.48 13.46 84.83 13.88 85.17 14.73 85.52 15.15 85.87 14.3 86.22 14.73 86.57 13.88 86.92 13.03 87.27 13.46 87.62 13.88 87.97 13.88 88.32 14.73 88.67 13.46 89.02 12.61 89.36 12.61 89.71 12.61 90.06 12.61 90.41 12.61 90.76 12.61 91.11 13.03 91.46 12.61 91.81 12.61 92.16 12.61 92.51 12.61 92.86 12.61 93.2 12.61 93.55 12.61 93.9 12.61 94.25 12.61 94.6 12.61 94.95 12.61 95.3 12.61 95.65 12.61 96 12.61 96.35 12.61 96.7 12.61 97.05 12.61 97.39 12.61 97.74 12.61 98.09 12.61 98.44 12.61 98.79 12.61 99.14 12.61 99.49 12.61 99.84 12.61 100.19 12.61 100.54 12.61 100.89 12.61 101.23 12.61 101.58 12.61 101.93 12.61 102.28 12.61 102.63 12.61 102.98 12.61 103.33 12.61 103.68 12.61 104.03 12.61 104.38 12.61 104.73 13.03 105.08 13.46 105.42 13.03 105.77 12.61 106.12 12.61 106.47 12.61 106.82 12.61 107.17 12.61 107.52 12.61 107.87 12.61 108.22 12.61 108.57 12.61 108.92 12.61 109.26 12.61 109.61 12.61 109.96 12.61 110.31 12.61 110.66 12.61 111.01 12.61 111.36 12.61 111.71 12.61 112.06 12.61 112.41 12.61 112.76 12.61 113.11 12.61 113.45 12.61 113.8 12.61 114.15 12.61 114.5 12.61 114.85 12.61 115.2 12.61 115.55 12.61 115.9 12.61 116.25 12.61 116.6 12.61 116.95 12.61 117.3 12.61 117.64 12.61 117.99 12.61 118.34 12.61 118.69 12.61 119.04 12.61 119.39 12.61 119.74 12.61 120.09 12.61 120.44 12.61 120.79 12.61 121.14 12.61 121.48 12.61 121.83 12.61 122.18 12.61 122.53 12.61 122.88 12.61 123.23 12.61 123.58 12.61 123.93 12.61 124.28 13.46 124.63 13.03 124.98 13.03 125.33 12.61 125.67 12.61 126.02 12.61 126.37 12.61 126.72 13.88 127.07 13.88 127.42 13.03 127.77 13.03 128.12 13.03 128.47 12.61 128.82 12.61 129.17 12.61 129.51 12.61 129.86 12.61 130.21 12.61 130.56 12.61 130.91 12.61 131.26 13.46 131.61 13.88 131.96 13.03 132.31 12.61 132.66 12.61 133.01 12.61 133.36 12.61 133.7 12.61 134.05 12.61 134.4 12.61 134.75 12.61 135.1 12.61 135.45 12.61 135.8 12.61 136.15 12.61 136.5 12.61 136.85 12.61 137.2 13.46 137.55 13.03 137.89 13.46 138.24 13.46 138.59 12.61 138.94 12.61 139.29 12.61 139.64 12.61 139.99 12.61 140.34 12.61 140.69 12.61 141.04 12.61 141.39 13.46 141.73 13.03 142.08 13.03 142.43 13.03 142.78 12.61 143.13 12.61 143.48 12.61 143.83 12.61 144.18 12.61 144.53 12.61 144.88 12.61 145.23 12.61 145.58 12.61 145.92 12.61 146.27 12.61 146.62 12.61 146.97 12.61 147.32 12.61 147.67 12.61 148.02 12.61 148.37 12.61 148.72 12.61 149.07 12.61 149.42 12.61 149.76 12.61 150.11 12.61 150.46 12.61 150.81 12.61 151.16 12.61 151.51 12.61 151.86 13.46 152.21 14.3 152.56 15.15 152.91 16.84 153.26 16 153.61 16.42 153.95 17.27 154.3 17.69 154.65 18.11 155 17.69 155.35 21.07 155.7 23.61 156.05 25.73 156.4 27.42 156.75 28.69 157.1 28.69 157.45 28.69 157.79 29.11 158.14 32.49 158.49 31.65 158.84 31.65 159.19 32.07 159.54 35.03 159.89 35.03 160.24 33.76 160.59 34.19 160.94 35.46 161.29 33.76 161.64 32.07 161.98 29.53 162.33 30.8 162.68 30.38 163.03 33.34 163.38 32.49 163.73 29.53 164.08 27.42 164.43 26.57 164.78 29.11 165.13 25.3 165.48 28.69 165.83 29.53 166.17 29.11 166.52 30.8 166.87 30.8 167.22 32.49 167.57 34.61 167.92 36.3 168.27 35.03 168.62 33.34 168.97 35.46 169.32 33.76 169.67 29.96 170.01 28.69 170.36 30.8 170.71 35.88 171.06 36.72 171.41 36.72 171.76 38.42 172.11 40.95 172.46 42.22 172.81 40.11 173.16 40.11 173.51 37.57 173.86 35.88 174.2 33.34 174.55 30.38 174.9 35.88 175.25 35.46 175.6 34.19 175.95 34.19 176.3 30.38 176.65 33.34 177 34.19 177.35 33.34 177.7 33.76 178.04 33.76 178.39 33.76 178.74 34.19 179.09 29.96 179.44 28.26 179.79 32.07 180.14 34.19 180.49 35.88 180.84 35.88 181.19 36.3 181.54 40.95 181.89 41.38 182.23 39.69 182.58 39.69 182.93 42.22 183.28 43.49 183.63 43.92 183.98 44.34 184.33 46.03 184.68 44.34 185.03 45.61 185.38 44.34 185.73 43.92 186.08 43.92 186.42 47.72 186.77 48.99 187.12 46.88 187.47 46.88 187.82 48.99 188.17 49.84 188.52 48.57 188.87 48.57 189.22 43.92 189.57 42.65 189.92 48.15 190.26 47.72 190.61 45.19 190.96 43.49 191.31 44.34 191.66 41.8 192.01 46.45 192.36 47.72 192.71 47.72 193.06 46.45 193.41 47.3 193.76 48.57 194.11 50.68 194.45 49.84 194.8 52.38 195.15 51.95 195.5 51.11 195.85 52.38 196.2 53.22"/>
      </g>
      <g stroke-width="0.3" fill="#000000" fill-opacity="0.000" class="geometry" stroke-dasharray="none" stroke="#F46D43" id="img-20abc5f8-37">
        <path fill="none" d="M21.98,33.76 L 22.33 35.46 22.68 37.57 23.03 39.69 23.38 35.88 23.73 38.84 24.08 41.8 24.42 41.8 24.77 39.69 25.12 37.99 25.47 34.19 25.82 33.34 26.17 33.76 26.52 31.23 26.87 27.84 27.22 29.96 27.57 26.99 27.92 27.42 28.27 25.3 28.61 24.03 28.96 20.23 29.31 21.5 29.66 22.34 30.01 19.38 30.36 21.92 30.71 19.38 31.06 22.34 31.41 20.65 31.76 21.92 32.11 23.19 32.45 21.5 32.8 20.65 33.15 24.03 33.5 24.03 33.85 24.46 34.2 26.99 34.55 24.46 34.9 21.5 35.25 21.07 35.6 21.92 35.95 18.96 36.3 19.38 36.64 21.07 36.99 19.8 37.34 20.23 37.69 21.92 38.04 21.07 38.39 21.5 38.74 23.61 39.09 19.38 39.44 17.27 39.79 18.53 40.14 19.38 40.49 24.46 40.83 24.03 41.18 27.42 41.53 26.99 41.88 26.57 42.23 27.84 42.58 26.15 42.93 24.46 43.28 24.46 43.63 24.46 43.98 26.57 44.33 26.15 44.67 26.15 45.02 29.11 45.37 29.96 45.72 29.11 46.07 32.07 46.42 32.92 46.77 35.03 47.12 36.72 47.47 35.88 47.82 35.03 48.17 36.3 48.52 35.03 48.86 36.72 49.21 36.72 49.56 32.07 49.91 35.03 50.26 35.46 50.61 35.88 50.96 37.15 51.31 34.61 51.66 38.84 52.01 40.95 52.36 39.26 52.7 39.69 53.05 41.8 53.4 45.61 53.75 47.72 54.1 46.45 54.45 47.72 54.8 45.61 55.15 46.88 55.5 47.72 55.85 47.3 56.2 46.88 56.55 44.76 56.89 45.19 57.24 46.88 57.59 46.45 57.94 46.45 58.29 48.99 58.64 51.53 58.99 51.11 59.34 50.26 59.69 49.84 60.04 49.84 60.39 52.38 60.73 52.38 61.08 49.42 61.43 48.15 61.78 48.15 62.13 48.57 62.48 48.15 62.83 47.72 63.18 49.42 63.53 48.15 63.88 48.15 64.23 49.42 64.58 48.57 64.92 48.15 65.27 48.99 65.62 48.99 65.97 49.42 66.32 49.84 66.67 50.26 67.02 50.26 67.37 49.84 67.72 51.11 68.07 51.95 68.42 51.11 68.77 50.68 69.11 51.95 69.46 51.53 69.81 52.38 70.16 52.38 70.51 51.11 70.86 51.53 71.21 53.22 71.56 54.07 71.91 54.91 72.26 54.91 72.61 54.91 72.95 54.91 73.3 54.91 73.65 54.91 74 54.91 74.35 54.91 74.7 54.91 75.05 54.91 75.4 54.49 75.75 54.07 76.1 54.49 76.45 54.49 76.8 54.49 77.14 54.49 77.49 54.49 77.84 54.49 78.19 54.49 78.54 54.07 78.89 54.07 79.24 54.07 79.59 54.07 79.94 54.07 80.29 54.07 80.64 54.07 80.98 54.07 81.33 54.91 81.68 54.91 82.03 54.91 82.38 54.91 82.73 54.91 83.08 54.91 83.43 54.91 83.78 54.91 84.13 54.91 84.48 54.91 84.83 54.91 85.17 54.91 85.52 54.91 85.87 54.07 86.22 54.07 86.57 52.8 86.92 52.8 87.27 53.22 87.62 54.07 87.97 54.49 88.32 54.07 88.67 54.91 89.02 54.91 89.36 54.91 89.71 54.91 90.06 54.91 90.41 54.91 90.76 54.91 91.11 54.91 91.46 54.91 91.81 54.91 92.16 54.91 92.51 54.91 92.86 54.91 93.2 54.91 93.55 54.49 93.9 54.49 94.25 53.22 94.6 53.22 94.95 52.38 95.3 53.22 95.65 51.53 96 50.26 96.35 49.84 96.7 50.68 97.05 51.95 97.39 51.95 97.74 51.53 98.09 52.8 98.44 52.8 98.79 52.8 99.14 52.8 99.49 51.95 99.84 52.38 100.19 53.65 100.54 53.22 100.89 53.22 101.23 52.38 101.58 53.22 101.93 52.38 102.28 51.53 102.63 51.95 102.98 51.95 103.33 49.84 103.68 50.68 104.03 51.11 104.38 48.99 104.73 47.72 105.08 46.45 105.42 45.61 105.77 43.07 106.12 42.22 106.47 44.76 106.82 44.34 107.17 42.65 107.52 44.34 107.87 43.92 108.22 41.8 108.57 43.07 108.92 43.07 109.26 41.8 109.61 40.95 109.96 39.26 110.31 39.69 110.66 35.88 111.01 34.61 111.36 34.19 111.71 32.07 112.06 30.8 112.41 32.07 112.76 34.19 113.11 36.72 113.45 35.03 113.8 34.61 114.15 34.61 114.5 36.72 114.85 36.3 115.2 37.15 115.55 34.61 115.9 38.42 116.25 35.46 116.6 37.99 116.95 37.57 117.3 37.57 117.64 39.69 117.99 38.42 118.34 36.3 118.69 34.61 119.04 37.57 119.39 35.03 119.74 38.84 120.09 37.57 120.44 38.42 120.79 36.72 121.14 40.53 121.48 42.65 121.83 40.95 122.18 42.22 122.53 42.65 122.88 37.57 123.23 36.72 123.58 36.3 123.93 35.46 124.28 35.46 124.63 35.03 124.98 35.88 125.33 33.76 125.67 37.15 126.02 40.53 126.37 43.49 126.72 43.07 127.07 46.88 127.42 48.57 127.77 46.88 128.12 44.76 128.47 43.92 128.82 46.03 129.17 43.92 129.51 43.92 129.86 37.57 130.21 39.69 130.56 40.11 130.91 41.38 131.26 43.49 131.61 46.45 131.96 48.15 132.31 49.84 132.66 50.68 133.01 49.42 133.36 45.61 133.7 42.65 134.05 39.69 134.4 43.49 134.75 39.26 135.1 38.42 135.45 39.26 135.8 37.99 136.15 37.99 136.5 37.57 136.85 35.88 137.2 37.57 137.55 39.26 137.89 38.84 138.24 35.88 138.59 39.26 138.94 37.15 139.29 37.15 139.64 33.76 139.99 34.61 140.34 33.34 140.69 34.19 141.04 33.76 141.39 35.88 141.73 36.3 142.08 36.3 142.43 39.69 142.78 38.42 143.13 41.38 143.48 45.19 143.83 43.49 144.18 42.22 144.53 44.34 144.88 41.38 145.23 40.53 145.58 39.69 145.92 39.69 146.27 38.84 146.62 41.38 146.97 43.92 147.32 42.65 147.67 39.69 148.02 40.53 148.37 37.57 148.72 35.88 149.07 34.19 149.42 33.34 149.76 32.07 150.11 34.19 150.46 36.3 150.81 36.3 151.16 37.57 151.51 37.15 151.86 37.57 152.21 39.69 152.56 40.11 152.91 40.95 153.26 43.49 153.61 46.45 153.95 47.3 154.3 48.57 154.65 50.26 155 48.99 155.35 49.84 155.7 50.26 156.05 48.15 156.4 48.15 156.75 46.45 157.1 48.15 157.45 48.99 157.79 49.42 158.14 48.57 158.49 48.99 158.84 48.99 159.19 51.53 159.54 51.53 159.89 51.53 160.24 49.84 160.59 51.11 160.94 51.53 161.29 50.26 161.64 49.84 161.98 48.15 162.33 48.15 162.68 48.99 163.03 47.72 163.38 47.3 163.73 44.76 164.08 44.76 164.43 44.76 164.78 43.49 165.13 45.19 165.48 44.76 165.83 44.76 166.17 46.03 166.52 46.88 166.87 46.88 167.22 48.15 167.57 51.11 167.92 50.68 168.27 51.53 168.62 51.11 168.97 49.84 169.32 49.42 169.67 47.72 170.01 46.88 170.36 45.19 170.71 45.61 171.06 45.19 171.41 44.34 171.76 44.34 172.11 45.19 172.46 45.61 172.81 47.72 173.16 47.72 173.51 47.72 173.86 46.03 174.2 47.3 174.55 45.61 174.9 46.03 175.25 47.3 175.6 48.15 175.95 48.15 176.3 48.99 176.65 50.26 177 51.53 177.35 53.22 177.7 53.65 178.04 53.22 178.39 54.49 178.74 53.65 179.09 54.49 179.44 54.07 179.79 54.91 180.14 54.91 180.49 54.91 180.84 54.91 181.19 54.91 181.54 54.91 181.89 54.91 182.23 54.91 182.58 54.49 182.93 53.22 183.28 53.22 183.63 50.68 183.98 51.95 184.33 49.84 184.68 49.42 185.03 47.72 185.38 46.88 185.73 46.45 186.08 47.72 186.42 51.11 186.77 52.38 187.12 51.95 187.47 51.11 187.82 50.68 188.17 49.84 188.52 51.95 188.87 51.11 189.22 51.53 189.57 53.22 189.92 53.22 190.26 53.65 190.61 52.38 190.96 52.8 191.31 51.53 191.66 51.53 192.01 53.65 192.36 53.65 192.71 52.38 193.06 52.38 193.41 51.53 193.76 51.53 194.11 51.53 194.45 50.26 194.8 51.95 195.15 51.53 195.5 49.84 195.85 48.57 196.2 49.84"/>
      </g>
      <g stroke-width="0.3" fill="#000000" fill-opacity="0.000" class="geometry" stroke-dasharray="none" stroke="#D53E4F" id="img-20abc5f8-38">
        <path fill="none" d="M21.98,33.76 L 22.33 32.92 22.68 33.76 23.03 32.92 23.38 27.42 23.73 26.57 24.08 24.46 24.42 21.5 24.77 19.38 25.12 17.69 25.47 18.53 25.82 16.42 26.17 18.53 26.52 18.11 26.87 18.53 27.22 20.23 27.57 19.8 27.92 20.23 28.27 18.53 28.61 18.11 28.96 17.69 29.31 19.38 29.66 19.38 30.01 17.27 30.36 17.69 30.71 17.27 31.06 18.53 31.41 18.53 31.76 16.84 32.11 15.15 32.45 16.42 32.8 16 33.15 15.15 33.5 14.3 33.85 13.46 34.2 13.46 34.55 12.61 34.9 12.61 35.25 12.61 35.6 12.61 35.95 12.61 36.3 12.61 36.64 12.61 36.99 12.61 37.34 12.61 37.69 12.61 38.04 12.61 38.39 12.61 38.74 12.61 39.09 12.61 39.44 12.61 39.79 12.61 40.14 12.61 40.49 12.61 40.83 12.61 41.18 12.61 41.53 12.61 41.88 12.61 42.23 12.61 42.58 12.61 42.93 12.61 43.28 12.61 43.63 12.61 43.98 12.61 44.33 12.61 44.67 12.61 45.02 12.61 45.37 12.61 45.72 12.61 46.07 12.61 46.42 12.61 46.77 12.61 47.12 12.61 47.47 12.61 47.82 12.61 48.17 12.61 48.52 12.61 48.86 12.61 49.21 12.61 49.56 12.61 49.91 12.61 50.26 12.61 50.61 12.61 50.96 12.61 51.31 12.61 51.66 12.61 52.01 12.61 52.36 12.61 52.7 12.61 53.05 12.61 53.4 12.61 53.75 12.61 54.1 12.61 54.45 12.61 54.8 12.61 55.15 12.61 55.5 12.61 55.85 12.61 56.2 12.61 56.55 12.61 56.89 12.61 57.24 12.61 57.59 12.61 57.94 12.61 58.29 12.61 58.64 12.61 58.99 12.61 59.34 13.46 59.69 13.46 60.04 13.88 60.39 14.73 60.73 14.73 61.08 14.73 61.43 15.15 61.78 15.57 62.13 14.3 62.48 13.88 62.83 14.73 63.18 15.15 63.53 16.84 63.88 16.42 64.23 14.73 64.58 15.57 64.92 14.3 65.27 13.46 65.62 13.46 65.97 13.03 66.32 12.61 66.67 12.61 67.02 12.61 67.37 12.61 67.72 12.61 68.07 12.61 68.42 12.61 68.77 12.61 69.11 12.61 69.46 12.61 69.81 12.61 70.16 12.61 70.51 12.61 70.86 12.61 71.21 12.61 71.56 12.61 71.91 12.61 72.26 12.61 72.61 12.61 72.95 12.61 73.3 12.61 73.65 12.61 74 12.61 74.35 12.61 74.7 12.61 75.05 12.61 75.4 12.61 75.75 12.61 76.1 12.61 76.45 12.61 76.8 12.61 77.14 12.61 77.49 12.61 77.84 12.61 78.19 12.61 78.54 12.61 78.89 12.61 79.24 12.61 79.59 12.61 79.94 12.61 80.29 12.61 80.64 12.61 80.98 12.61 81.33 12.61 81.68 12.61 82.03 12.61 82.38 12.61 82.73 12.61 83.08 12.61 83.43 12.61 83.78 12.61 84.13 12.61 84.48 13.03 84.83 12.61 85.17 12.61 85.52 12.61 85.87 12.61 86.22 12.61 86.57 12.61 86.92 12.61 87.27 12.61 87.62 13.46 87.97 13.88 88.32 14.73 88.67 15.15 89.02 15.15 89.36 13.88 89.71 15.15 90.06 16.42 90.41 15.15 90.76 17.27 91.11 19.38 91.46 18.96 91.81 16.84 92.16 17.69 92.51 18.11 92.86 16.42 93.2 17.27 93.55 16 93.9 15.15 94.25 15.15 94.6 15.15 94.95 15.57 95.3 13.88 95.65 12.61 96 12.61 96.35 12.61 96.7 13.46 97.05 12.61 97.39 12.61 97.74 12.61 98.09 12.61 98.44 12.61 98.79 12.61 99.14 12.61 99.49 12.61 99.84 12.61 100.19 12.61 100.54 12.61 100.89 12.61 101.23 13.88 101.58 15.57 101.93 16.84 102.28 16.84 102.63 16.42 102.98 16.84 103.33 17.27 103.68 16.42 104.03 14.3 104.38 13.46 104.73 15.15 105.08 15.15 105.42 17.69 105.77 18.11 106.12 18.53 106.47 16.84 106.82 18.53 107.17 17.27 107.52 17.69 107.87 18.53 108.22 16.42 108.57 16.42 108.92 18.53 109.26 18.96 109.61 17.69 109.96 18.53 110.31 18.11 110.66 18.11 111.01 18.11 111.36 16.84 111.71 18.11 112.06 18.96 112.41 17.69 112.76 16.84 113.11 18.53 113.45 18.53 113.8 18.96 114.15 18.53 114.5 18.53 114.85 18.96 115.2 16.84 115.55 16.84 115.9 17.69 116.25 16.84 116.6 18.11 116.95 18.96 117.3 21.07 117.64 21.07 117.99 21.07 118.34 20.65 118.69 21.07 119.04 20.65 119.39 20.65 119.74 21.07 120.09 18.96 120.44 19.38 120.79 19.38 121.14 17.27 121.48 15.15 121.83 14.73 122.18 15.15 122.53 13.46 122.88 13.46 123.23 13.88 123.58 13.03 123.93 13.88 124.28 15.15 124.63 15.57 124.98 14.73 125.33 13.46 125.67 13.46 126.02 13.88 126.37 14.3 126.72 13.46 127.07 13.88 127.42 13.03 127.77 13.88 128.12 14.73 128.47 13.88 128.82 14.3 129.17 15.57 129.51 14.73 129.86 13.88 130.21 13.88 130.56 13.46 130.91 14.73 131.26 13.88 131.61 14.3 131.96 15.15 132.31 14.73 132.66 16.42 133.01 16.42 133.36 15.57 133.7 15.15 134.05 13.88 134.4 15.57 134.75 16.42 135.1 17.27 135.45 18.96 135.8 20.65 136.15 18.11 136.5 16.42 136.85 16 137.2 17.27 137.55 16.42 137.89 13.46 138.24 13.88 138.59 14.3 138.94 14.73 139.29 14.73 139.64 13.88 139.99 13.88 140.34 12.61 140.69 12.61 141.04 12.61 141.39 12.61 141.73 12.61 142.08 12.61 142.43 12.61 142.78 12.61 143.13 12.61 143.48 12.61 143.83 12.61 144.18 12.61 144.53 12.61 144.88 12.61 145.23 12.61 145.58 12.61 145.92 13.46 146.27 14.73 146.62 13.03 146.97 13.46 147.32 13.88 147.67 13.46 148.02 13.88 148.37 15.57 148.72 13.88 149.07 13.46 149.42 13.03 149.76 13.03 150.11 13.03 150.46 13.88 150.81 14.73 151.16 16 151.51 15.57 151.86 16 152.21 16 152.56 15.15 152.91 13.46 153.26 13.46 153.61 13.88 153.95 13.03 154.3 13.03 154.65 13.46 155 14.3 155.35 15.15 155.7 13.88 156.05 13.03 156.4 13.03 156.75 13.03 157.1 13.03 157.45 12.61 157.79 12.61 158.14 12.61 158.49 12.61 158.84 12.61 159.19 12.61 159.54 12.61 159.89 12.61 160.24 12.61 160.59 13.46 160.94 13.03 161.29 13.46 161.64 13.03 161.98 12.61 162.33 12.61 162.68 12.61 163.03 12.61 163.38 12.61 163.73 12.61 164.08 12.61 164.43 12.61 164.78 12.61 165.13 12.61 165.48 12.61 165.83 12.61 166.17 12.61 166.52 12.61 166.87 12.61 167.22 12.61 167.57 12.61 167.92 12.61 168.27 12.61 168.62 12.61 168.97 12.61 169.32 12.61 169.67 12.61 170.01 12.61 170.36 12.61 170.71 12.61 171.06 12.61 171.41 12.61 171.76 12.61 172.11 12.61 172.46 12.61 172.81 12.61 173.16 12.61 173.51 12.61 173.86 12.61 174.2 12.61 174.55 12.61 174.9 12.61 175.25 12.61 175.6 12.61 175.95 12.61 176.3 12.61 176.65 12.61 177 12.61 177.35 12.61 177.7 12.61 178.04 13.88 178.39 13.03 178.74 15.15 179.09 16 179.44 15.57 179.79 15.15 180.14 15.57 180.49 15.15 180.84 16 181.19 15.57 181.54 18.11 181.89 16.42 182.23 17.27 182.58 17.27 182.93 18.11 183.28 18.96 183.63 19.8 183.98 20.23 184.33 20.65 184.68 20.23 185.03 18.53 185.38 18.11 185.73 18.53 186.08 18.53 186.42 21.5 186.77 20.23 187.12 21.5 187.47 22.34 187.82 24.88 188.17 23.19 188.52 23.19 188.87 23.19 189.22 24.03 189.57 22.34 189.92 22.76 190.26 21.92 190.61 20.65 190.96 21.5 191.31 21.07 191.66 21.5 192.01 23.61 192.36 24.03 192.71 21.07 193.06 20.23 193.41 17.69 193.76 18.53 194.11 21.92 194.45 19.8 194.8 20.23 195.15 22.34 195.5 24.03 195.85 25.3 196.2 24.03"/>
      </g>
      <g stroke-width="0.3" fill="#000000" fill-opacity="0.000" class="geometry" stroke-dasharray="none" stroke="#9E0142" id="img-20abc5f8-39">
        <path fill="none" d="M21.98,33.76 L 22.33 32.07 22.68 32.07 23.03 33.34 23.38 33.34 23.73 33.76 24.08 34.19 24.42 29.96 24.77 29.53 25.12 29.53 25.47 27.42 25.82 30.8 26.17 32.07 26.52 33.34 26.87 36.72 27.22 36.72 27.57 36.72 27.92 36.3 28.27 37.57 28.61 36.72 28.96 38.84 29.31 39.26 29.66 40.11 30.01 36.72 30.36 41.38 30.71 40.53 31.06 38.42 31.41 43.07 31.76 45.61 32.11 43.49 32.45 42.22 32.8 42.65 33.15 43.92 33.5 42.65 33.85 40.53 34.2 41.8 34.55 44.76 34.9 45.61 35.25 45.19 35.6 46.88 35.95 47.72 36.3 47.72 36.64 48.99 36.99 48.99 37.34 46.88 37.69 47.72 38.04 45.19 38.39 45.19 38.74 43.49 39.09 45.61 39.44 43.92 39.79 46.88 40.14 48.99 40.49 46.88 40.83 46.45 41.18 47.3 41.53 46.45 41.88 46.03 42.23 46.45 42.58 45.19 42.93 45.19 43.28 44.76 43.63 44.76 43.98 46.03 44.33 42.65 44.67 40.95 45.02 41.38 45.37 41.8 45.72 40.53 46.07 42.65 46.42 38.42 46.77 39.26 47.12 38.84 47.47 36.72 47.82 35.46 48.17 33.76 48.52 34.61 48.86 35.88 49.21 35.46 49.56 37.99 49.91 36.3 50.26 37.15 50.61 35.46 50.96 35.88 51.31 33.34 51.66 33.34 52.01 32.07 52.36 33.76 52.7 30.8 53.05 31.65 53.4 32.49 53.75 31.65 54.1 35.03 54.45 34.61 54.8 41.38 55.15 38.42 55.5 35.03 55.85 33.34 56.2 36.3 56.55 35.03 56.89 35.46 57.24 35.46 57.59 35.03 57.94 34.61 58.29 35.03 58.64 34.19 58.99 35.03 59.34 33.76 59.69 30.38 60.04 29.96 60.39 31.65 60.73 32.49 61.08 30.38 61.43 26.57 61.78 26.57 62.13 28.26 62.48 31.23 62.83 30.38 63.18 29.11 63.53 29.11 63.88 31.23 64.23 29.96 64.58 31.65 64.92 29.96 65.27 30.8 65.62 31.23 65.97 33.34 66.32 33.34 66.67 34.61 67.02 38.42 67.37 39.26 67.72 42.22 68.07 43.92 68.42 46.03 68.77 46.45 69.11 47.3 69.46 47.72 69.81 48.99 70.16 49.42 70.51 48.99 70.86 49.42 71.21 49.84 71.56 51.11 71.91 49.84 72.26 48.57 72.61 46.88 72.95 46.88 73.3 46.03 73.65 49.42 74 48.57 74.35 49.84 74.7 48.15 75.05 51.53 75.4 51.95 75.75 53.22 76.1 53.65 76.45 53.22 76.8 53.22 77.14 52.38 77.49 52.38 77.84 51.11 78.19 51.11 78.54 52.8 78.89 53.22 79.24 54.07 79.59 54.49 79.94 54.91 80.29 54.91 80.64 54.91 80.98 54.91 81.33 54.91 81.68 54.91 82.03 54.91 82.38 54.91 82.73 54.91 83.08 54.91 83.43 54.91 83.78 54.91 84.13 54.91 84.48 54.91 84.83 54.91 85.17 54.91 85.52 54.91 85.87 54.91 86.22 54.91 86.57 54.91 86.92 54.91 87.27 54.91 87.62 54.91 87.97 54.91 88.32 54.91 88.67 54.91 89.02 54.91 89.36 54.91 89.71 54.91 90.06 54.91 90.41 54.91 90.76 54.91 91.11 54.91 91.46 54.49 91.81 54.49 92.16 54.07 92.51 54.91 92.86 54.91 93.2 54.91 93.55 54.91 93.9 54.91 94.25 54.91 94.6 54.91 94.95 54.91 95.3 54.91 95.65 54.91 96 54.91 96.35 54.91 96.7 54.91 97.05 54.91 97.39 54.91 97.74 54.49 98.09 54.91 98.44 54.91 98.79 54.91 99.14 54.91 99.49 54.91 99.84 54.91 100.19 54.91 100.54 54.91 100.89 54.91 101.23 54.91 101.58 54.91 101.93 54.91 102.28 54.91 102.63 54.91 102.98 54.91 103.33 54.91 103.68 54.91 104.03 54.91 104.38 54.91 104.73 54.91 105.08 54.91 105.42 54.91 105.77 54.91 106.12 54.91 106.47 54.91 106.82 54.91 107.17 54.91 107.52 54.91 107.87 54.91 108.22 54.91 108.57 54.91 108.92 54.91 109.26 54.91 109.61 54.91 109.96 54.91 110.31 54.91 110.66 54.91 111.01 54.91 111.36 54.91 111.71 54.91 112.06 54.91 112.41 54.91 112.76 54.91 113.11 54.91 113.45 54.91 113.8 53.65 114.15 54.49 114.5 54.49 114.85 54.49 115.2 54.91 115.55 54.91 115.9 54.49 116.25 54.49 116.6 54.07 116.95 52.8 117.3 52.38 117.64 52.38 117.99 53.65 118.34 53.22 118.69 53.22 119.04 54.07 119.39 54.91 119.74 54.91 120.09 54.91 120.44 54.91 120.79 54.91 121.14 54.91 121.48 54.91 121.83 54.91 122.18 54.91 122.53 54.91 122.88 54.91 123.23 54.91 123.58 54.91 123.93 54.91 124.28 54.91 124.63 54.91 124.98 54.91 125.33 54.91 125.67 54.91 126.02 54.91 126.37 54.91 126.72 54.91 127.07 54.91 127.42 54.91 127.77 54.91 128.12 54.91 128.47 54.91 128.82 54.91 129.17 54.91 129.51 54.91 129.86 54.91 130.21 54.91 130.56 54.07 130.91 54.07 131.26 52.8 131.61 53.22 131.96 53.22 132.31 53.22 132.66 54.07 133.01 54.91 133.36 54.91 133.7 54.91 134.05 54.91 134.4 54.91 134.75 54.49 135.1 54.07 135.45 54.49 135.8 54.91 136.15 54.91 136.5 54.49 136.85 54.91 137.2 54.91 137.55 54.49 137.89 54.49 138.24 54.49 138.59 54.91 138.94 54.91 139.29 54.49 139.64 53.65 139.99 52.38 140.34 52.8 140.69 53.22 141.04 53.22 141.39 53.65 141.73 53.22 142.08 53.22 142.43 53.22 142.78 54.49 143.13 54.91 143.48 54.91 143.83 54.91 144.18 54.91 144.53 54.91 144.88 54.91 145.23 54.91 145.58 54.91 145.92 54.91 146.27 54.91 146.62 54.91 146.97 54.91 147.32 54.91 147.67 54.91 148.02 54.49 148.37 54.49 148.72 54.49 149.07 54.07 149.42 54.91 149.76 54.91 150.11 54.91 150.46 54.91 150.81 54.91 151.16 54.91 151.51 54.91 151.86 54.91 152.21 54.91 152.56 54.91 152.91 54.91 153.26 54.91 153.61 54.91 153.95 54.91 154.3 54.91 154.65 54.91 155 54.91 155.35 54.91 155.7 54.91 156.05 54.91 156.4 54.91 156.75 54.91 157.1 54.91 157.45 54.91 157.79 54.91 158.14 54.91 158.49 54.91 158.84 54.91 159.19 54.91 159.54 54.91 159.89 54.91 160.24 53.65 160.59 53.65 160.94 53.65 161.29 54.07 161.64 53.65 161.98 53.65 162.33 53.65 162.68 54.07 163.03 54.91 163.38 54.91 163.73 54.91 164.08 54.49 164.43 54.49 164.78 54.91 165.13 54.91 165.48 54.91 165.83 54.91 166.17 54.91 166.52 54.91 166.87 54.91 167.22 54.91 167.57 54.91 167.92 54.91 168.27 54.91 168.62 54.07 168.97 54.07 169.32 54.49 169.67 54.49 170.01 54.91 170.36 54.91 170.71 54.91 171.06 54.91 171.41 54.91 171.76 54.91 172.11 54.91 172.46 54.91 172.81 54.91 173.16 54.91 173.51 54.91 173.86 54.91 174.2 54.91 174.55 54.91 174.9 54.91 175.25 54.91 175.6 54.91 175.95 54.91 176.3 54.91 176.65 54.91 177 54.91 177.35 54.91 177.7 54.91 178.04 54.91 178.39 54.91 178.74 54.91 179.09 53.22 179.44 54.49 179.79 53.22 180.14 52.8 180.49 52.38 180.84 52.8 181.19 51.95 181.54 51.95 181.89 52.8 182.23 53.22 182.58 51.95 182.93 53.22 183.28 53.22 183.63 54.49 183.98 54.91 184.33 54.91 184.68 54.91 185.03 54.91 185.38 54.91 185.73 54.91 186.08 54.91 186.42 54.49 186.77 53.22 187.12 53.65 187.47 54.07 187.82 54.91 188.17 54.91 188.52 54.91 188.87 54.91 189.22 54.91 189.57 54.91 189.92 53.65 190.26 53.65 190.61 53.22 190.96 53.65 191.31 53.65 191.66 52.8 192.01 54.07 192.36 54.07 192.71 53.65 193.06 53.65 193.41 53.22 193.76 52.38 194.11 53.65 194.45 53.65 194.8 52.8 195.15 53.65 195.5 53.65 195.85 53.22 196.2 52.38"/>
      </g>
    </g>
  </g>
</g>
  <g class="guide ylabels" font-size="2.82" font-family="'PT Sans Caption','Helvetica Neue','Helvetica',sans-serif" fill="#000000" id="img-20abc5f8-40">
    <text x="18.63" y="54.91" text-anchor="end" dy="0.35em">0</text>
    <text x="18.63" y="33.76" text-anchor="end" dy="0.35em">50</text>
    <text x="18.63" y="12.61" text-anchor="end" dy="0.35em">100</text>
  </g>
  <g font-size="3.88" font-family="'PT Sans','Helvetica Neue','Helvetica',sans-serif" fill="#000000" stroke="#000000" stroke-opacity="0.000" id="img-20abc5f8-41">
    <text x="8.81" y="31.76" text-anchor="middle" dy="0.35em" transform="rotate(-90, 8.81, 33.76)">population size</text>
  </g>
  <g font-size="3.88" font-family="'PT Sans','Helvetica Neue','Helvetica',sans-serif" fill="#000000" stroke="#000000" stroke-opacity="0.000" id="img-20abc5f8-42">
    <text x="108.92" y="5" text-anchor="middle" dy="0.6em">genetic drift with mutationrate  = 0.001 </text>
  </g>
</g>
<defs>
  <clipPath id="img-20abc5f8-24">
  <path d="M19.63,10.61 L 198.2 10.61 198.2 56.91 19.63 56.91" />
</clipPath>
  <clipPath id="img-20abc5f8-8">
  <path d="M17.96,86.81 L 174.03 86.81 174.03 133.11 17.96 133.11" />
</clipPath>
</defs>
</svg>
