<?xml version="1.0" encoding="UTF-8"?>
<svg xmlns="http://www.w3.org/2000/svg"
     xmlns:xlink="http://www.w3.org/1999/xlink"
     xmlns:gadfly="http://www.gadflyjl.org/ns"
     version="1.2"
     width="203.2mm" height="152.4mm" viewBox="0 0 203.2 152.4"
     stroke="none"
     fill="#000000"
     stroke-width="0.3"
     font-size="3.88"
>
<g class="plotroot xscalable yscalable" id="img-f4323f47-1">
  <g font-size="3.88" font-family="'PT Sans','Helvetica Neue','Helvetica',sans-serif" fill="#000000" stroke="#000000" stroke-opacity="0.000" id="img-f4323f47-2">
    <text x="109.75" y="140.79" text-anchor="middle" dy="0.6em">generation number</text>
  </g>
  <g class="guide xlabels" font-size="2.82" font-family="'PT Sans Caption','Helvetica Neue','Helvetica',sans-serif" fill="#000000" id="img-f4323f47-3">
    <text x="23.31" y="134.11" text-anchor="middle" dy="0.6em">0</text>
    <text x="57.88" y="134.11" text-anchor="middle" dy="0.6em">100</text>
    <text x="92.46" y="134.11" text-anchor="middle" dy="0.6em">200</text>
    <text x="127.04" y="134.11" text-anchor="middle" dy="0.6em">300</text>
    <text x="161.62" y="134.11" text-anchor="middle" dy="0.6em">400</text>
    <text x="196.2" y="134.11" text-anchor="middle" dy="0.6em">500</text>
  </g>
<g clip-path="url(#img-f4323f47-4)">
  <g id="img-f4323f47-5">
    <g pointer-events="visible" opacity="1" fill="#FFFFFF" stroke="#000000" stroke-opacity="0.000" class="guide background" id="img-f4323f47-6">
      <rect x="21.31" y="10.61" width="176.89" height="122.5"/>
    </g>
    <g class="guide ygridlines xfixed" stroke-dasharray="0.5,0.5" stroke-width="0.2" stroke="#808080" id="img-f4323f47-7">
      <path fill="none" d="M21.31,131.11 L 198.2 131.11"/>
      <path fill="none" d="M21.31,71.86 L 198.2 71.86"/>
      <path fill="none" d="M21.31,12.61 L 198.2 12.61"/>
    </g>
    <g class="guide xgridlines yfixed" stroke-dasharray="0.5,0.5" stroke-width="0.2" stroke="#808080" id="img-f4323f47-8">
      <path fill="none" d="M23.31,10.61 L 23.31 133.11"/>
      <path fill="none" d="M57.88,10.61 L 57.88 133.11"/>
      <path fill="none" d="M92.46,10.61 L 92.46 133.11"/>
      <path fill="none" d="M127.04,10.61 L 127.04 133.11"/>
      <path fill="none" d="M161.62,10.61 L 161.62 133.11"/>
      <path fill="none" d="M196.2,10.61 L 196.2 133.11"/>
    </g>
    <g class="plotpanel" id="img-f4323f47-9">
      <g stroke-width="0.3" fill="#000000" fill-opacity="0.000" class="geometry" stroke-dasharray="none" stroke="#3288BD" id="img-f4323f47-10">
        <path fill="none" d="M23.65,71.86 L 24 73.88 24.34 73.52 24.69 76.72 25.03 75.54 25.38 73.52 25.73 73.76 26.07 75.42 26.42 77.31 26.76 79.68 27.11 76.01 27.45 77.08 27.8 80.75 28.15 79.57 28.49 80.28 28.84 78.86 29.18 78.38 29.53 80.87 29.88 81.94 30.22 82.77 30.57 83.83 30.91 82.41 31.26 80.87 31.6 80.75 31.95 81.11 32.3 79.68 32.64 79.57 32.99 81.58 33.33 79.8 33.68 82.41 34.02 83 34.37 82.41 34.72 79.8 35.06 77.79 35.41 76.25 35.75 74 36.1 73.52 36.45 73.76 36.79 73.52 37.14 75.18 37.48 77.08 37.83 75.3 38.17 72.46 38.52 70.92 38.87 67.36 39.21 64.87 39.56 65.82 39.9 64.4 40.25 64.52 40.59 63.09 40.94 62.62 41.29 64.87 41.63 65.7 41.98 67.24 42.32 68.66 42.67 67.83 43.02 69.14 43.36 69.61 43.71 71.63 44.05 74.59 44.4 74.59 44.74 74 45.09 72.46 45.44 74 45.78 77.2 46.13 81.23 46.47 80.04 46.82 77.67 47.16 76.37 47.51 78.5 47.86 79.92 48.2 78.86 48.55 79.8 48.89 77.31 49.24 79.57 49.59 79.92 49.93 81.11 50.28 83.24 50.62 81.82 50.97 82.17 51.31 85.73 51.66 86.2 52.01 84.78 52.35 88.45 52.7 87.03 53.04 88.69 53.39 87.74 53.73 83.83 54.08 84.66 54.43 86.68 54.77 85.73 55.12 86.44 55.46 84.42 55.81 85.25 56.16 85.73 56.5 84.42 56.85 83.83 57.19 80.87 57.54 81.82 57.88 80.4 58.23 82.53 58.58 83.12 58.92 81.94 59.27 80.4 59.61 80.04 59.96 81.7 60.3 83 60.65 82.65 61 81.58 61.34 79.45 61.69 79.8 62.03 81.58 62.38 79.68 62.73 77.67 63.07 77.79 63.42 79.57 63.76 79.33 64.11 79.09 64.45 80.04 64.8 80.99 65.15 80.04 65.49 81.34 65.84 79.45 66.18 78.26 66.53 77.79 66.87 78.5 67.22 79.57 67.57 80.75 67.91 78.74 68.26 78.03 68.6 75.66 68.95 75.3 69.3 78.26 69.64 77.31 69.99 76.72 70.33 76.01 70.68 76.6 71.02 77.79 71.37 76.13 71.72 74.35 72.06 75.66 72.41 74.83 72.75 74.71 73.1 73.52 73.44 72.69 73.79 72.81 74.14 70.2 74.48 70.2 74.83 71.98 75.17 73.17 75.52 71.98 75.87 72.46 76.21 74.47 76.56 74.94 76.9 76.72 77.25 79.33 77.59 80.75 77.94 80.87 78.29 80.75 78.63 80.51 78.98 80.28 79.32 81.46 79.67 81.11 80.01 82.88 80.36 82.41 80.71 82.17 81.05 83.71 81.4 83.6 81.74 84.07 82.09 82.88 82.44 81.34 82.78 82.65 83.13 80.04 83.47 80.28 83.82 79.57 84.16 77.08 84.51 72.57 84.86 71.15 85.2 71.51 85.55 71.86 85.89 74.11 86.24 75.18 86.58 75.77 86.93 75.3 87.28 75.77 87.62 77.67 87.97 76.72 88.31 77.55 88.66 80.28 89.01 83 89.35 82.88 89.7 82.05 90.04 83.24 90.39 82.65 90.73 87.98 91.08 88.81 91.43 89.28 91.77 85.85 92.12 83.95 92.46 82.29 92.81 84.54 93.15 83 93.5 81.46 93.85 77.31 94.19 76.72 94.54 77.31 94.88 79.09 95.23 78.74 95.58 80.16 95.92 82.17 96.27 83.6 96.61 83.71 96.96 86.08 97.3 84.42 97.65 85.14 98 86.68 98.34 87.62 98.69 85.97 99.03 88.57 99.38 90.94 99.72 88.93 100.07 88.34 100.42 86.91 100.76 88.1 101.11 86.08 101.45 85.25 101.8 83.36 102.15 84.78 102.49 78.97 102.84 78.5 103.18 78.5 103.53 78.5 103.87 78.14 104.22 78.03 104.57 77.2 104.91 80.51 105.26 79.8 105.6 76.72 105.95 75.18 106.29 71.63 106.64 70.68 106.99 70.2 107.33 67.72 107.68 67.12 108.02 66.41 108.37 68.31 108.72 69.37 109.06 70.32 109.41 67.72 109.75 66.89 110.1 64.4 110.44 62.86 110.79 62.86 111.14 62.74 111.48 60.13 111.83 60.84 112.17 59.3 112.52 56.69 112.86 52.67 113.21 53.85 113.56 53.61 113.9 52.67 114.25 52.19 114.59 52.78 114.94 54.56 115.29 51.24 115.63 47.81 115.98 49.47 116.32 50.77 116.67 50.3 117.01 52.19 117.36 52.9 117.71 55.15 118.05 55.51 118.4 52.9 118.74 51.84 119.09 53.14 119.43 53.73 119.78 55.51 120.13 55.04 120.47 51.24 120.82 53.02 121.16 53.73 121.51 52.67 121.86 53.61 122.2 55.98 122.55 55.98 122.89 55.27 123.24 56.93 123.58 60.96 123.93 58.95 124.28 60.01 124.62 58.47 124.97 59.42 125.31 60.72 125.66 60.84 126 57.29 126.35 53.38 126.7 55.27 127.04 57.29 127.39 59.18 127.73 58 128.08 59.54 128.43 63.33 128.77 60.61 129.12 56.93 129.46 57.76 129.81 57.76 130.15 58.83 130.5 59.3 130.85 59.3 131.19 61.08 131.54 61.79 131.88 60.25 132.23 61.32 132.57 62.38 132.92 62.38 133.27 63.21 133.61 62.74 133.96 64.04 134.3 66.89 134.65 69.49 135 68.19 135.34 67.95 135.69 67 136.03 65.46 136.38 64.04 136.72 61.91 137.07 63.69 137.42 65.35 137.76 65.82 138.11 66.65 138.45 67.36 138.8 65.7 139.14 66.65 139.49 69.85 139.84 68.55 140.18 68.19 140.53 69.26 140.87 67.6 141.22 69.26 141.57 70.2 141.91 70.8 142.26 70.44 142.6 69.49 142.95 71.03 143.29 71.39 143.64 71.98 143.99 72.69 144.33 73.4 144.68 77.31 145.02 77.55 145.37 77.08 145.71 76.96 146.06 76.37 146.41 77.91 146.75 77.91 147.1 76.37 147.44 76.96 147.79 82.05 148.14 84.19 148.48 81.82 148.83 80.16 149.17 78.97 149.52 80.28 149.86 79.92 150.21 80.51 150.56 81.46 150.9 80.4 151.25 79.09 151.59 79.45 151.94 77.08 152.28 76.01 152.63 75.66 152.98 74.47 153.32 77.91 153.67 76.48 154.01 77.2 154.36 76.6 154.71 79.57 155.05 77.67 155.4 76.48 155.74 73.4 156.09 70.8 156.43 70.32 156.78 68.9 157.13 68.9 157.47 70.44 157.82 70.09 158.16 71.15 158.51 67.83 158.85 64.52 159.2 68.78 159.55 67.48 159.89 64.4 160.24 64.16 160.58 67.6 160.93 65.58 161.28 66.18 161.62 64.87 161.97 63.69 162.31 66.89 162.66 65.11 163 69.26 163.35 72.22 163.7 69.14 164.04 67.48 164.39 67.12 164.73 65.82 165.08 65.46 165.42 68.07 165.77 67.48 166.12 69.85 166.46 67.95 166.81 68.66 167.15 66.77 167.5 69.97 167.85 69.49 168.19 69.61 168.54 65.94 168.88 65.82 169.23 66.06 169.57 62.98 169.92 62.26 170.27 63.09 170.61 61.67 170.96 62.26 171.3 60.84 171.65 62.62 171.99 63.09 172.34 63.09 172.69 64.28 173.03 64.04 173.38 65.82 173.72 65.94 174.07 67.48 174.42 66.65 174.76 62.74 175.11 58.35 175.45 59.3 175.8 59.06 176.14 59.42 176.49 60.61 176.84 62.5 177.18 61.67 177.53 61.67 177.87 66.41 178.22 67.12 178.56 66.06 178.91 65.23 179.26 65.94 179.6 64.87 179.95 60.61 180.29 62.26 180.64 59.42 180.99 60.84 181.33 61.32 181.68 61.67 182.02 64.04 182.37 65.23 182.71 68.9 183.06 71.74 183.41 72.22 183.75 70.2 184.1 70.09 184.44 68.31 184.79 67.24 185.13 68.9 185.48 68.9 185.83 71.27 186.17 72.57 186.52 76.48 186.86 74.94 187.21 73.52 187.56 75.18 187.9 77.79 188.25 82.88 188.59 83 188.94 83.12 189.28 87.03 189.63 84.42 189.98 83.95 190.32 87.03 190.67 83.71 191.01 87.62 191.36 86.79 191.7 83.24 192.05 84.66 192.4 84.66 192.74 82.88 193.09 82.88 193.43 82.88 193.78 80.63 194.13 80.63 194.47 81.11 194.82 78.26 195.16 81.46 195.51 83.95 195.85 83.48 196.2 82.88"/>
      </g>
      <g stroke-width="0.3" fill="#000000" fill-opacity="0.000" class="geometry" stroke-dasharray="none" stroke="#66C2A5" id="img-f4323f47-11">
        <path fill="none" d="M23.65,71.86 L 24 70.68 24.34 70.09 24.69 70.68 25.03 68.66 25.38 68.55 25.73 71.98 26.07 71.27 26.42 69.37 26.76 70.32 27.11 74.23 27.45 73.88 27.8 73.29 28.15 71.03 28.49 70.09 28.84 67.95 29.18 69.02 29.53 68.78 29.88 71.27 30.22 72.46 30.57 74.11 30.91 75.89 31.26 79.21 31.6 78.26 31.95 77.55 32.3 75.54 32.64 75.66 32.99 76.84 33.33 75.42 33.68 77.79 34.02 79.33 34.37 77.55 34.72 75.77 35.06 77.08 35.41 78.86 35.75 78.97 36.1 81.94 36.45 80.87 36.79 81.82 37.14 79.09 37.48 79.33 37.83 80.87 38.17 82.17 38.52 80.4 38.87 82.65 39.21 84.19 39.56 81.82 39.9 84.31 40.25 85.02 40.59 86.2 40.94 85.49 41.29 80.51 41.63 78.38 41.98 82.88 42.32 83.95 42.67 85.61 43.02 88.45 43.36 93.19 43.71 88.45 44.05 89.4 44.4 89.52 44.74 90.47 45.09 87.74 45.44 88.34 45.78 87.51 46.13 88.22 46.47 93.31 46.82 91.18 47.16 89.88 47.51 90.11 47.86 89.99 48.2 88.93 48.55 90.47 48.89 89.4 49.24 88.93 49.59 91.65 49.93 90.23 50.28 92.13 50.62 91.53 50.97 90.11 51.31 87.98 51.66 89.52 52.01 89.99 52.35 87.74 52.7 88.93 53.04 91.42 53.39 93.67 53.73 94.02 54.08 91.53 54.43 91.42 54.77 90.59 55.12 90.71 55.46 92.84 55.81 92.6 56.16 90.94 56.5 91.65 56.85 89.76 57.19 90.35 57.54 91.18 57.88 90.35 58.23 89.76 58.58 90.35 58.92 94.26 59.27 93.67 59.61 91.65 59.96 94.62 60.3 94.62 60.65 95.68 61 96.16 61.34 92.48 61.69 94.02 62.03 92.72 62.38 90.35 62.73 92.6 63.07 90.35 63.42 87.74 63.76 87.62 64.11 88.93 64.45 87.86 64.8 89.28 65.15 88.69 65.49 88.34 65.84 87.27 66.18 84.31 66.53 85.49 66.87 83.6 67.22 84.42 67.57 80.75 67.91 80.04 68.26 80.51 68.6 79.92 68.95 78.62 69.3 77.79 69.64 79.33 69.99 77.79 70.33 76.84 70.68 74.35 71.02 72.1 71.37 70.56 71.72 70.92 72.06 71.63 72.41 73.05 72.75 74.59 73.1 74.71 73.44 71.98 73.79 70.32 74.14 71.27 74.48 72.93 74.83 71.98 75.17 77.2 75.52 75.77 75.87 72.57 76.21 73.76 76.56 67.36 76.9 67 77.25 67.36 77.59 67.6 77.94 68.31 78.29 70.32 78.63 71.51 78.98 70.92 79.32 69.97 79.67 69.37 80.01 68.07 80.36 68.9 80.71 70.09 81.05 69.49 81.4 71.51 81.74 72.46 82.09 70.32 82.44 69.97 82.78 70.2 83.13 69.26 83.47 66.06 83.82 64.04 84.16 65.23 84.51 65.35 84.86 64.63 85.2 66.29 85.55 66.77 85.89 66.77 86.24 62.74 86.58 62.86 86.93 62.38 87.28 63.45 87.62 65.94 87.97 64.52 88.31 67 88.66 66.89 89.01 67.36 89.35 68.19 89.7 70.32 90.04 71.98 90.39 71.51 90.73 71.51 91.08 71.86 91.43 73.52 91.77 73.17 92.12 74.35 92.46 75.18 92.81 74.83 93.15 75.3 93.5 73.17 93.85 71.51 94.19 67.36 94.54 67.95 94.88 69.37 95.23 64.75 95.58 62.03 95.92 63.81 96.27 61.67 96.61 61.55 96.96 58.47 97.3 57.76 97.65 58.71 98 60.25 98.34 60.13 98.69 63.33 99.03 62.26 99.38 66.53 99.72 65.7 100.07 64.4 100.42 60.72 100.76 61.79 101.11 60.84 101.45 58.59 101.8 58 102.15 58.59 102.49 60.01 102.84 60.72 103.18 59.54 103.53 60.72 103.87 63.09 104.22 62.74 104.57 59.3 104.91 62.38 105.26 63.21 105.6 63.09 105.95 61.79 106.29 61.32 106.64 64.87 106.99 65.35 107.33 65.82 107.68 60.49 108.02 60.37 108.37 61.32 108.72 57.64 109.06 56.58 109.41 56.93 109.75 57.05 110.1 57.52 110.44 58.59 110.79 57.29 111.14 58.12 111.48 56.81 111.83 55.04 112.17 56.1 112.52 53.26 112.86 52.43 113.21 51.36 113.56 51.72 113.9 50.53 114.25 49.82 114.59 48.52 114.94 50.06 115.29 49.94 115.63 48.28 115.98 47.57 116.32 50.3 116.67 49.11 117.01 50.53 117.36 51.13 117.71 50.65 118.05 51.95 118.4 52.78 118.74 54.56 119.09 56.93 119.43 55.39 119.78 55.98 120.13 54.8 120.47 53.97 120.82 53.26 121.16 51.36 121.51 54.92 121.86 57.64 122.2 57.05 122.55 57.41 122.89 59.42 123.24 61.67 123.58 60.13 123.93 58.47 124.28 55.75 124.62 56.58 124.97 57.64 125.31 58.83 125.66 59.66 126 59.06 126.35 59.06 126.7 58.24 127.04 58.95 127.39 56.69 127.73 54.44 128.08 52.67 128.43 51.48 128.77 51.24 129.12 51.84 129.46 51.95 129.81 54.92 130.15 52.67 130.5 52.19 130.85 52.9 131.19 53.73 131.54 48.4 131.88 49.58 132.23 49.23 132.57 51.6 132.92 52.07 133.27 49.11 133.61 45.56 133.96 46.27 134.3 48.64 134.65 46.98 135 47.33 135.34 48.04 135.69 47.69 136.03 51.36 136.38 50.18 136.72 51.48 137.07 49.7 137.42 51.24 137.76 47.81 138.11 48.28 138.45 47.69 138.8 46.15 139.14 46.62 139.49 47.81 139.84 46.15 140.18 44.84 140.53 45.91 140.87 44.25 141.22 46.27 141.57 44.61 141.91 45.56 142.26 43.07 142.6 44.84 142.95 46.15 143.29 43.42 143.64 44.37 143.99 46.03 144.33 43.42 144.68 43.9 145.02 44.49 145.37 41.64 145.71 42.59 146.06 42.12 146.41 41.29 146.75 44.02 147.1 42.24 147.44 41.41 147.79 41.05 148.14 39.99 148.48 41.41 148.83 41.88 149.17 41.88 149.52 41.88 149.86 43.54 150.21 43.54 150.56 42.59 150.9 42.47 151.25 43.07 151.59 46.5 151.94 48.4 152.28 48.52 152.63 44.96 152.98 45.2 153.32 45.56 153.67 46.74 154.01 46.03 154.36 44.13 154.71 44.73 155.05 44.02 155.4 42.83 155.74 44.49 156.09 42.71 156.43 42.36 156.78 44.02 157.13 43.54 157.47 41.64 157.82 40.58 158.16 40.1 158.51 39.27 158.85 41.53 159.2 40.93 159.55 39.16 159.89 41.88 160.24 41.76 160.58 42.12 160.93 42.36 161.28 43.3 161.62 43.42 161.97 43.78 162.31 48.04 162.66 46.15 163 46.62 163.35 46.15 163.7 46.74 164.04 46.98 164.39 49.35 164.73 50.65 165.08 54.8 165.42 55.39 165.77 57.41 166.12 56.34 166.46 58.35 166.81 59.42 167.15 57.41 167.5 57.88 167.85 54.92 168.19 57.17 168.54 55.75 168.88 56.93 169.23 57.41 169.57 57.88 169.92 57.64 170.27 55.63 170.61 55.39 170.96 57.41 171.3 55.87 171.65 56.58 171.99 58.83 172.34 57.76 172.69 54.56 173.03 54.68 173.38 53.38 173.72 51.84 174.07 50.65 174.42 48.87 174.76 46.62 175.11 46.98 175.45 48.52 175.8 49.58 176.14 51.13 176.49 51.36 176.84 53.73 177.18 53.85 177.53 55.63 177.87 57.64 178.22 56.69 178.56 56.22 178.91 53.26 179.26 54.56 179.6 52.31 179.95 54.21 180.29 53.73 180.64 56.1 180.99 56.69 181.33 57.17 181.68 56.34 182.02 55.87 182.37 55.75 182.71 56.93 183.06 55.15 183.41 56.1 183.75 54.8 184.1 53.02 184.44 55.27 184.79 55.98 185.13 58.35 185.48 56.93 185.83 51.84 186.17 51.01 186.52 48.87 186.86 49.82 187.21 48.16 187.56 48.52 187.9 49.23 188.25 48.4 188.59 49.23 188.94 47.57 189.28 47.45 189.63 48.87 189.98 48.4 190.32 48.99 190.67 50.06 191.01 51.6 191.36 52.19 191.7 53.5 192.05 53.26 192.4 55.87 192.74 58.59 193.09 59.66 193.43 59.18 193.78 62.38 194.13 61.2 194.47 59.54 194.82 59.89 195.16 58.71 195.51 59.18 195.85 59.78 196.2 59.66"/>
      </g>
      <g stroke-width="0.3" fill="#000000" fill-opacity="0.000" class="geometry" stroke-dasharray="none" stroke="#ABDDA4" id="img-f4323f47-12">
        <path fill="none" d="M23.65,71.86 L 24 72.22 24.34 74.71 24.69 76.01 25.03 76.96 25.38 79.8 25.73 77.91 26.07 74.71 26.42 76.96 26.76 76.48 27.11 76.25 27.45 76.96 27.8 75.42 28.15 76.48 28.49 77.55 28.84 76.48 29.18 74.47 29.53 73.76 29.88 74.59 30.22 74.94 30.57 71.74 30.91 69.85 31.26 71.51 31.6 70.68 31.95 66.06 32.3 66.29 32.64 68.31 32.99 67.24 33.33 67.36 33.68 70.68 34.02 70.8 34.37 71.74 34.72 72.22 35.06 71.63 35.41 70.2 35.75 70.09 36.1 72.57 36.45 74.83 36.79 74 37.14 73.76 37.48 75.89 37.83 74.59 38.17 72.46 38.52 71.15 38.87 69.14 39.21 68.31 39.56 72.1 39.9 70.56 40.25 71.27 40.59 73.64 40.94 70.68 41.29 71.74 41.63 74.94 41.98 76.01 42.32 76.96 42.67 74.94 43.02 73.64 43.36 74.94 43.71 76.6 44.05 75.77 44.4 75.42 44.74 73.76 45.09 74.47 45.44 74.83 45.78 72.81 46.13 70.56 46.47 68.66 46.82 66.18 47.16 66.53 47.51 66.18 47.86 65.35 48.2 66.41 48.55 65.7 48.89 63.92 49.24 62.98 49.59 59.54 49.93 61.55 50.28 63.81 50.62 64.75 50.97 68.55 51.31 69.14 51.66 68.43 52.01 68.43 52.35 67.36 52.7 67.83 53.04 72.1 53.39 73.05 53.73 73.4 54.08 75.3 54.43 75.77 54.77 74.11 55.12 75.3 55.46 73.76 55.81 76.25 56.16 80.4 56.5 83.24 56.85 82.05 57.19 84.42 57.54 83.83 57.88 84.66 58.23 82.17 58.58 83.83 58.92 84.07 59.27 84.07 59.61 82.29 59.96 81.58 60.3 77.79 60.65 78.03 61 77.55 61.34 76.84 61.69 77.08 62.03 75.77 62.38 78.97 62.73 76.37 63.07 73.64 63.42 70.92 63.76 70.44 64.11 68.55 64.45 69.97 64.8 71.63 65.15 70.09 65.49 69.49 65.84 69.49 66.18 65.7 66.53 69.85 66.87 72.1 67.22 75.18 67.57 75.42 67.91 75.06 68.26 75.54 68.6 80.04 68.95 79.8 69.3 79.45 69.64 85.25 69.99 85.85 70.33 84.78 70.68 83.36 71.02 85.25 71.37 84.42 71.72 85.85 72.06 83.24 72.41 84.54 72.75 86.56 73.1 88.57 73.44 88.93 73.79 87.98 74.14 91.06 74.48 90.71 74.83 90.82 75.17 87.39 75.52 84.07 75.87 81.7 76.21 81.34 76.56 79.09 76.9 78.5 77.25 77.2 77.59 78.26 77.94 81.58 78.29 81.34 78.63 77.43 78.98 83.24 79.32 81.23 79.67 84.54 80.01 82.29 80.36 81.58 80.71 81.11 81.05 84.66 81.4 86.68 81.74 88.1 82.09 86.32 82.44 84.78 82.78 80.04 83.13 78.26 83.47 80.99 83.82 80.63 84.16 78.5 84.51 78.86 84.86 83.83 85.2 80.75 85.55 79.8 85.89 78.86 86.24 77.79 86.58 76.72 86.93 73.4 87.28 76.25 87.62 76.84 87.97 75.42 88.31 76.72 88.66 75.77 89.01 77.43 89.35 77.31 89.7 78.74 90.04 80.04 90.39 78.03 90.73 76.96 91.08 75.89 91.43 74.47 91.77 71.98 92.12 70.32 92.46 67.48 92.81 67.72 93.15 68.55 93.5 65.82 93.85 66.77 94.19 68.55 94.54 68.66 94.88 68.55 95.23 69.49 95.58 69.02 95.92 69.02 96.27 69.14 96.61 69.14 96.96 67 97.3 68.19 97.65 65.82 98 66.29 98.34 65.94 98.69 64.04 99.03 61.67 99.38 62.38 99.72 63.21 100.07 62.86 100.42 62.62 100.76 66.29 101.11 69.02 101.45 70.68 101.8 70.92 102.15 71.15 102.49 72.22 102.84 75.06 103.18 74.47 103.53 75.77 103.87 76.72 104.22 75.18 104.57 74 104.91 74.94 105.26 77.31 105.6 80.63 105.95 82.88 106.29 85.02 106.64 84.19 106.99 85.14 107.33 84.31 107.68 80.63 108.02 79.8 108.37 80.04 108.72 83.95 109.06 82.53 109.41 82.41 109.75 83.83 110.1 82.17 110.44 82.53 110.79 82.29 111.14 84.19 111.48 82.29 111.83 81.94 112.17 82.41 112.52 84.9 112.86 85.49 113.21 83.83 113.56 83.12 113.9 82.41 114.25 83.12 114.59 81.82 114.94 80.63 115.29 81.34 115.63 85.73 115.98 86.91 116.32 85.97 116.67 84.31 117.01 82.53 117.36 83.6 117.71 85.02 118.05 84.9 118.4 83.12 118.74 83 119.09 80.51 119.43 79.09 119.78 74.47 120.13 76.84 120.47 76.13 120.82 77.08 121.16 77.2 121.51 80.4 121.86 77.55 122.2 78.38 122.55 82.17 122.89 80.99 123.24 81.82 123.58 80.28 123.93 78.14 124.28 77.79 124.62 78.26 124.97 78.62 125.31 79.33 125.66 81.94 126 79.8 126.35 82.29 126.7 79.45 127.04 79.09 127.39 77.79 127.73 78.62 128.08 76.84 128.43 77.08 128.77 78.14 129.12 78.5 129.46 78.62 129.81 79.92 130.15 80.75 130.5 80.99 130.85 81.94 131.19 82.41 131.54 84.42 131.88 88.45 132.23 84.66 132.57 86.44 132.92 86.44 133.27 85.02 133.61 83.48 133.96 83.12 134.3 81.11 134.65 80.63 135 78.74 135.34 75.89 135.69 77.43 136.03 78.86 136.38 75.77 136.72 76.25 137.07 77.43 137.42 75.3 137.76 76.84 138.11 76.6 138.45 77.55 138.8 76.6 139.14 77.91 139.49 79.45 139.84 78.97 140.18 81.58 140.53 80.63 140.87 78.62 141.22 76.37 141.57 76.72 141.91 78.14 142.26 77.67 142.6 78.14 142.95 76.01 143.29 77.08 143.64 75.06 143.99 74.23 144.33 74 144.68 74.71 145.02 76.6 145.37 75.89 145.71 77.79 146.06 81.82 146.41 78.38 146.75 79.45 147.1 80.87 147.44 80.51 147.79 79.33 148.14 81.82 148.48 85.73 148.83 88.57 149.17 87.15 149.52 86.56 149.86 87.51 150.21 86.79 150.56 87.98 150.9 88.93 151.25 89.05 151.59 85.73 151.94 84.31 152.28 84.31 152.63 83.48 152.98 86.2 153.32 85.14 153.67 85.25 154.01 86.91 154.36 85.02 154.71 85.85 155.05 86.79 155.4 86.2 155.74 85.97 156.09 87.15 156.43 87.62 156.78 88.57 157.13 88.1 157.47 88.1 157.82 87.74 158.16 89.52 158.51 89.76 158.85 93.55 159.2 92.6 159.55 93.67 159.89 92.72 160.24 91.53 160.58 95.33 160.93 95.68 161.28 98.41 161.62 98.53 161.97 98.65 162.31 94.26 162.66 91.53 163 93.08 163.35 91.53 163.7 92.84 164.04 92.96 164.39 93.55 164.73 94.85 165.08 96.39 165.42 95.09 165.77 94.5 166.12 96.16 166.46 93.31 166.81 93.67 167.15 92.01 167.5 92.84 167.85 92.72 168.19 91.77 168.54 91.77 168.88 94.5 169.23 94.73 169.57 95.68 169.92 91.77 170.27 92.48 170.61 90.11 170.96 89.88 171.3 92.25 171.65 91.53 171.99 90.94 172.34 90.11 172.69 89.88 173.03 90.82 173.38 89.52 173.72 93.19 174.07 92.25 174.42 92.01 174.76 94.26 175.11 93.43 175.45 93.9 175.8 97.93 176.14 99 176.49 98.29 176.84 99 177.18 101.02 177.53 98.29 177.87 98.29 178.22 98.41 178.56 96.63 178.91 98.88 179.26 97.93 179.6 97.82 179.95 98.53 180.29 97.58 180.64 94.14 180.99 92.6 181.33 96.04 181.68 96.87 182.02 97.7 182.37 100.66 182.71 100.54 183.06 100.54 183.41 101.25 183.75 102.56 184.1 100.9 184.44 99.36 184.79 98.05 185.13 96.87 185.48 97.46 185.83 96.51 186.17 100.07 186.52 100.9 186.86 100.9 187.21 100.07 187.56 99.71 187.9 100.3 188.25 102.2 188.59 103.98 188.94 104.57 189.28 106.82 189.63 106.94 189.98 108.95 190.32 108.84 190.67 107.53 191.01 109.07 191.36 108.36 191.7 105.4 192.05 105.76 192.4 103.27 192.74 105.76 193.09 105.64 193.43 105.28 193.78 104.33 194.13 105.16 194.47 105.87 194.82 108.13 195.16 105.16 195.51 105.87 195.85 104.81 196.2 103.03"/>
      </g>
      <g stroke-width="0.3" fill="#000000" fill-opacity="0.000" class="geometry" stroke-dasharray="none" stroke="#E6F598" id="img-f4323f47-13">
        <path fill="none" d="M23.65,71.86 L 24 71.98 24.34 71.27 24.69 71.98 25.03 71.27 25.38 71.51 25.73 72.69 26.07 71.74 26.42 71.63 26.76 70.44 27.11 67.12 27.45 64.99 27.8 62.98 28.15 64.16 28.49 60.61 28.84 62.03 29.18 60.72 29.53 59.66 29.88 58.24 30.22 60.25 30.57 61.44 30.91 62.74 31.26 61.91 31.6 60.72 31.95 58.59 32.3 59.18 32.64 59.3 32.99 59.06 33.33 57.05 33.68 55.87 34.02 54.32 34.37 56.34 34.72 57.88 35.06 62.38 35.41 63.09 35.75 63.09 36.1 63.81 36.45 66.53 36.79 66.65 37.14 67.83 37.48 70.68 37.83 67.83 38.17 70.09 38.52 69.14 38.87 66.41 39.21 66.29 39.56 66.41 39.9 68.07 40.25 70.09 40.59 69.49 40.94 70.8 41.29 67.24 41.63 66.65 41.98 65.35 42.32 66.77 42.67 65.7 43.02 65.82 43.36 63.45 43.71 60.01 44.05 62.98 44.4 66.77 44.74 67.36 45.09 67.72 45.44 68.66 45.78 66.29 46.13 66.29 46.47 62.86 46.82 60.13 47.16 61.2 47.51 64.04 47.86 65.23 48.2 64.52 48.55 62.86 48.89 64.87 49.24 60.49 49.59 61.79 49.93 63.45 50.28 64.28 50.62 62.03 50.97 61.79 51.31 62.5 51.66 61.67 52.01 63.57 52.35 65.35 52.7 65.35 53.04 64.4 53.39 64.04 53.73 60.49 54.08 60.72 54.43 61.08 54.77 61.79 55.12 63.21 55.46 65.94 55.81 67 56.16 63.09 56.5 63.45 56.85 64.63 57.19 64.16 57.54 67 57.88 68.07 58.23 70.2 58.58 68.19 58.92 67.12 59.27 69.26 59.61 67.83 59.96 66.29 60.3 68.9 60.65 69.37 61 69.73 61.34 69.85 61.69 70.68 62.03 68.43 62.38 67.95 62.73 67.72 63.07 70.56 63.42 71.74 63.76 68.78 64.11 67.83 64.45 65.46 64.8 64.87 65.15 64.87 65.49 61.91 65.84 62.74 66.18 63.81 66.53 64.87 66.87 63.45 67.22 61.32 67.57 61.55 67.91 66.06 68.26 63.21 68.6 61.32 68.95 58.12 69.3 55.87 69.64 55.27 69.99 52.67 70.33 49.23 70.68 48.76 71.02 48.52 71.37 45.56 71.72 45.08 72.06 43.19 72.41 45.67 72.75 45.67 73.1 46.39 73.44 46.86 73.79 44.84 74.14 44.02 74.48 49.11 74.83 45.67 75.17 43.42 75.52 46.5 75.87 45.2 76.21 47.21 76.56 47.57 76.9 48.4 77.25 48.52 77.59 45.56 77.94 48.4 78.29 48.99 78.63 50.06 78.98 47.45 79.32 44.96 79.67 47.1 80.01 46.27 80.36 42.12 80.71 44.73 81.05 46.27 81.4 44.25 81.74 42 82.09 44.37 82.44 43.66 82.78 43.19 83.13 44.61 83.47 46.39 83.82 47.69 84.16 46.15 84.51 43.54 84.86 45.79 85.2 46.15 85.55 46.03 85.89 49.23 86.24 46.86 86.58 45.91 86.93 46.62 87.28 46.27 87.62 48.87 87.97 46.86 88.31 48.4 88.66 46.03 89.01 44.96 89.35 48.04 89.7 46.03 90.04 44.96 90.39 47.45 90.73 48.16 91.08 48.64 91.43 51.95 91.77 51.72 92.12 49.58 92.46 51.6 92.81 50.41 93.15 50.77 93.5 49.58 93.85 48.99 94.19 47.21 94.54 47.21 94.88 49.11 95.23 48.64 95.58 48.76 95.92 47.33 96.27 48.4 96.61 49.47 96.96 49.23 97.3 48.16 97.65 48.64 98 49.58 98.34 47.33 98.69 47.21 99.03 46.86 99.38 49.23 99.72 50.18 100.07 48.28 100.42 48.64 100.76 51.95 101.11 50.41 101.45 52.78 101.8 51.72 102.15 51.95 102.49 48.4 102.84 48.28 103.18 48.28 103.53 46.15 103.87 45.44 104.22 44.61 104.57 46.98 104.91 45.08 105.26 42.83 105.6 43.3 105.95 42.47 106.29 42.36 106.64 43.9 106.99 46.5 107.33 47.45 107.68 47.81 108.02 44.13 108.37 46.03 108.72 46.98 109.06 46.5 109.41 47.45 109.75 49.23 110.1 50.3 110.44 48.87 110.79 46.98 111.14 43.42 111.48 45.2 111.83 45.67 112.17 45.2 112.52 44.96 112.86 44.96 113.21 46.27 113.56 49.47 113.9 50.65 114.25 49.47 114.59 51.48 114.94 53.97 115.29 52.67 115.63 49.11 115.98 47.81 116.32 45.32 116.67 47.93 117.01 47.33 117.36 52.31 117.71 52.19 118.05 49.82 118.4 48.4 118.74 46.62 119.09 43.3 119.43 43.66 119.78 42.59 120.13 43.42 120.47 43.66 120.82 44.02 121.16 42.83 121.51 41.29 121.86 40.93 122.2 45.32 122.55 42.59 122.89 41.88 123.24 42.36 123.58 44.02 123.93 41.41 124.28 42.95 124.62 45.08 124.97 42.36 125.31 43.54 125.66 42.36 126 44.96 126.35 46.5 126.7 47.93 127.04 48.99 127.39 49.11 127.73 51.01 128.08 48.52 128.43 48.28 128.77 48.04 129.12 48.4 129.46 49.35 129.81 51.6 130.15 53.38 130.5 55.27 130.85 55.75 131.19 57.17 131.54 54.56 131.88 53.85 132.23 55.39 132.57 53.5 132.92 53.5 133.27 52.43 133.61 55.04 133.96 56.69 134.3 53.73 134.65 55.15 135 55.51 135.34 53.61 135.69 53.26 136.03 55.15 136.38 54.32 136.72 54.68 137.07 57.41 137.42 56.58 137.76 55.15 138.11 56.34 138.45 59.42 138.8 63.09 139.14 62.38 139.49 61.32 139.84 60.25 140.18 60.01 140.53 62.15 140.87 62.38 141.22 64.28 141.57 66.06 141.91 61.32 142.26 62.03 142.6 57.88 142.95 56.69 143.29 57.29 143.64 55.87 143.99 56.1 144.33 53.5 144.68 52.9 145.02 49.23 145.37 49.7 145.71 52.19 146.06 53.61 146.41 52.31 146.75 49.58 147.1 48.28 147.44 46.27 147.79 47.45 148.14 46.98 148.48 46.27 148.83 42.47 149.17 39.87 149.52 38.33 149.86 37.85 150.21 41.88 150.56 44.84 150.9 42.24 151.25 41.29 151.59 40.46 151.94 37.97 152.28 39.75 152.63 39.51 152.98 38.45 153.32 39.04 153.67 40.1 154.01 41.41 154.36 40.58 154.71 39.39 155.05 38.45 155.4 40.58 155.74 42.47 156.09 45.32 156.43 44.84 156.78 44.84 157.13 45.44 157.47 47.69 157.82 47.45 158.16 48.87 158.51 51.13 158.85 52.55 159.2 49.94 159.55 51.72 159.89 52.67 160.24 54.09 160.58 53.02 160.93 51.84 161.28 50.06 161.62 52.07 161.97 52.67 162.31 50.53 162.66 50.18 163 48.4 163.35 49.47 163.7 46.98 164.04 48.16 164.39 44.13 164.73 43.3 165.08 41.88 165.42 45.56 165.77 44.49 166.12 46.62 166.46 46.27 166.81 47.45 167.15 46.62 167.5 44.84 167.85 45.91 168.19 46.62 168.54 44.49 168.88 44.25 169.23 43.9 169.57 41.64 169.92 41.53 170.27 42.95 170.61 44.37 170.96 48.16 171.3 51.72 171.65 49.82 171.99 49.35 172.34 51.24 172.69 50.06 173.03 48.52 173.38 46.27 173.72 44.96 174.07 47.69 174.42 49.35 174.76 47.21 175.11 48.16 175.45 51.6 175.8 52.19 176.14 53.5 176.49 52.9 176.84 51.72 177.18 54.8 177.53 53.85 177.87 52.9 178.22 54.21 178.56 52.67 178.91 51.72 179.26 53.26 179.6 53.38 179.95 53.26 180.29 51.6 180.64 50.3 180.99 51.72 181.33 48.52 181.68 50.41 182.02 51.13 182.37 50.06 182.71 53.85 183.06 51.72 183.41 52.55 183.75 50.06 184.1 51.36 184.44 52.07 184.79 52.9 185.13 54.44 185.48 56.93 185.83 59.18 186.17 58.24 186.52 55.98 186.86 55.15 187.21 53.02 187.56 51.95 187.9 49.35 188.25 48.16 188.59 47.1 188.94 47.57 189.28 46.5 189.63 46.27 189.98 45.79 190.32 46.5 190.67 48.4 191.01 49.94 191.36 50.89 191.7 52.43 192.05 52.31 192.4 51.13 192.74 56.58 193.09 56.58 193.43 57.52 193.78 60.13 194.13 58.71 194.47 57.76 194.82 54.68 195.16 58 195.51 59.54 195.85 63.45 196.2 64.16"/>
      </g>
      <g stroke-width="0.3" fill="#000000" fill-opacity="0.000" class="geometry" stroke-dasharray="none" stroke="#FFFFBF" id="img-f4323f47-14">
        <path fill="none" d="M23.65,71.86 L 24 71.98 24.34 71.39 24.69 71.27 25.03 69.37 25.38 68.66 25.73 69.14 26.07 63.92 26.42 62.15 26.76 63.33 27.11 64.99 27.45 65.11 27.8 66.06 28.15 66.77 28.49 67.83 28.84 65.94 29.18 64.99 29.53 65.82 29.88 66.89 30.22 68.66 30.57 70.8 30.91 70.68 31.26 71.63 31.6 71.03 31.95 69.49 32.3 69.49 32.64 67.24 32.99 63.92 33.33 65.82 33.68 62.38 34.02 61.55 34.37 63.21 34.72 65.7 35.06 67 35.41 64.4 35.75 61.67 36.1 63.21 36.45 59.89 36.79 58.59 37.14 59.89 37.48 58.47 37.83 60.25 38.17 60.61 38.52 61.32 38.87 61.55 39.21 65.35 39.56 66.65 39.9 64.75 40.25 64.63 40.59 62.74 40.94 62.38 41.29 60.84 41.63 61.08 41.98 60.13 42.32 58.95 42.67 57.41 43.02 59.54 43.36 59.89 43.71 60.25 44.05 58.71 44.4 59.78 44.74 55.51 45.09 55.04 45.44 53.38 45.78 52.43 46.13 53.61 46.47 53.26 46.82 54.92 47.16 54.44 47.51 54.32 47.86 57.52 48.2 58.59 48.55 60.72 48.89 63.21 49.24 63.57 49.59 62.74 49.93 64.04 50.28 66.41 50.62 66.41 50.97 64.75 51.31 65.94 51.66 64.04 52.01 62.98 52.35 62.15 52.7 60.37 53.04 61.44 53.39 62.15 53.73 62.26 54.08 62.74 54.43 61.2 54.77 60.96 55.12 62.38 55.46 63.92 55.81 65.11 56.16 64.04 56.5 65.82 56.85 65.23 57.19 66.06 57.54 63.21 57.88 64.75 58.23 63.81 58.58 63.57 58.92 63.57 59.27 62.38 59.61 65.82 59.96 64.75 60.3 64.4 60.65 63.33 61 63.45 61.34 64.4 61.69 64.16 62.03 65.58 62.38 67.83 62.73 69.49 63.07 71.86 63.42 74.11 63.76 73.76 64.11 75.66 64.45 77.91 64.8 78.03 65.15 83.24 65.49 85.02 65.84 86.2 66.18 87.86 66.53 87.39 66.87 83.12 67.22 86.32 67.57 84.66 67.91 86.91 68.26 88.34 68.6 88.1 68.95 87.74 69.3 90.82 69.64 91.42 69.99 90.94 70.33 90.23 70.68 89.52 71.02 87.86 71.37 89.52 71.72 88.45 72.06 90.71 72.41 90.47 72.75 91.89 73.1 90.35 73.44 88.81 73.79 88.69 74.14 87.86 74.48 90.94 74.83 91.3 75.17 93.19 75.52 91.3 75.87 91.06 76.21 92.01 76.56 93.31 76.9 94.85 77.25 98.05 77.59 98.17 77.94 98.41 78.29 96.99 78.63 97.93 78.98 102.08 79.32 102.67 79.67 103.15 80.01 103.03 80.36 103.5 80.71 102.91 81.05 103.5 81.4 105.64 81.74 105.64 82.09 107.18 82.44 105.99 82.78 103.62 83.13 101.25 83.47 102.56 83.82 103.03 84.16 101.96 84.51 103.03 84.86 101.61 85.2 100.78 85.55 103.98 85.89 105.28 86.24 107.89 86.58 106.7 86.93 105.99 87.28 107.53 87.62 104.69 87.97 104.57 88.31 105.16 88.66 105.87 89.01 105.4 89.35 105.52 89.7 107.53 90.04 108.36 90.39 106.7 90.73 104.33 91.08 102.44 91.43 103.86 91.77 103.5 92.12 103.86 92.46 104.45 92.81 105.04 93.15 105.16 93.5 104.57 93.85 104.33 94.19 103.39 94.54 104.33 94.88 105.04 95.23 103.74 95.58 101.13 95.92 99.24 96.27 98.53 96.61 95.56 96.96 95.92 97.3 97.93 97.65 96.87 98 97.46 98.34 99.83 98.69 97.1 99.03 94.26 99.38 92.72 99.72 95.09 100.07 93.79 100.42 92.84 100.76 90.47 101.11 89.05 101.45 89.99 101.8 89.28 102.15 92.6 102.49 92.25 102.84 89.64 103.18 91.3 103.53 90.35 103.87 89.4 104.22 92.6 104.57 90.59 104.91 93.43 105.26 95.09 105.6 93.43 105.95 94.02 106.29 94.85 106.64 95.8 106.99 95.09 107.33 93.9 107.68 94.5 108.02 93.79 108.37 93.31 108.72 91.06 109.06 90.59 109.41 90.35 109.75 90.23 110.1 93.55 110.44 94.26 110.79 92.96 111.14 94.38 111.48 94.5 111.83 95.33 112.17 95.33 112.52 94.62 112.86 93.79 113.21 95.09 113.56 93.19 113.9 90.82 114.25 91.3 114.59 90.82 114.94 90.47 115.29 89.88 115.63 88.81 115.98 89.99 116.32 91.89 116.67 91.06 117.01 88.22 117.36 89.52 117.71 89.16 118.05 82.53 118.4 79.8 118.74 81.46 119.09 82.88 119.43 82.41 119.78 81.7 120.13 82.65 120.47 80.16 120.82 83.36 121.16 81.34 121.51 84.54 121.86 84.31 122.2 79.45 122.55 76.72 122.89 77.2 123.24 76.37 123.58 72.81 123.93 73.29 124.28 74.71 124.62 77.31 124.97 79.33 125.31 78.5 125.66 79.09 126 79.21 126.35 79.45 126.7 80.16 127.04 80.4 127.39 79.21 127.73 77.79 128.08 78.14 128.43 74.71 128.77 73.76 129.12 75.54 129.46 76.6 129.81 75.06 130.15 76.25 130.5 77.2 130.85 73.88 131.19 72.81 131.54 73.17 131.88 76.37 132.23 75.66 132.57 76.6 132.92 78.14 133.27 80.04 133.61 79.09 133.96 78.62 134.3 80.16 134.65 82.65 135 80.28 135.34 82.41 135.69 81.58 136.03 80.16 136.38 77.43 136.72 77.31 137.07 79.92 137.42 76.6 137.76 77.08 138.11 80.16 138.45 78.97 138.8 78.86 139.14 75.66 139.49 73.29 139.84 70.2 140.18 69.02 140.53 69.49 140.87 69.73 141.22 67.6 141.57 68.43 141.91 69.26 142.26 71.27 142.6 67.95 142.95 69.14 143.29 69.02 143.64 68.66 143.99 71.03 144.33 69.37 144.68 69.61 145.02 73.05 145.37 74.59 145.71 76.01 146.06 75.77 146.41 74.59 146.75 74.35 147.1 74.35 147.44 75.18 147.79 75.77 148.14 74 148.48 72.34 148.83 71.27 149.17 72.57 149.52 76.72 149.86 77.2 150.21 76.01 150.56 77.2 150.9 76.6 151.25 76.25 151.59 78.03 151.94 78.62 152.28 80.16 152.63 78.5 152.98 78.03 153.32 80.28 153.67 76.13 154.01 76.13 154.36 73.88 154.71 70.92 155.05 69.02 155.4 68.55 155.74 69.14 156.09 69.14 156.43 67.83 156.78 65.46 157.13 63.57 157.47 65.11 157.82 66.89 158.16 65.58 158.51 65.94 158.85 67.36 159.2 65.11 159.55 64.99 159.89 65.35 160.24 63.92 160.58 63.69 160.93 64.99 161.28 67 161.62 68.55 161.97 68.66 162.31 70.92 162.66 70.92 163 67.72 163.35 68.43 163.7 68.55 164.04 68.9 164.39 66.77 164.73 65.82 165.08 64.04 165.42 65.11 165.77 64.87 166.12 65.23 166.46 65.35 166.81 68.43 167.15 71.39 167.5 73.52 167.85 73.05 168.19 73.17 168.54 68.9 168.88 71.74 169.23 72.81 169.57 73.76 169.92 75.3 170.27 75.3 170.61 75.3 170.96 77.31 171.3 77.79 171.65 80.99 171.99 80.87 172.34 80.63 172.69 81.23 173.03 80.75 173.38 77.91 173.72 76.6 174.07 74.35 174.42 71.51 174.76 71.51 175.11 71.74 175.45 70.44 175.8 72.69 176.14 69.73 176.49 69.85 176.84 69.85 177.18 67.83 177.53 67.36 177.87 66.89 178.22 66.18 178.56 67.36 178.91 63.92 179.26 63.09 179.6 61.91 179.95 64.4 180.29 63.92 180.64 61.79 180.99 62.98 181.33 61.55 181.68 59.3 182.02 58.59 182.37 58.24 182.71 59.66 183.06 61.2 183.41 57.41 183.75 56.81 184.1 56.22 184.44 57.41 184.79 58.35 185.13 58.59 185.48 61.44 185.83 63.81 186.17 62.38 186.52 67.83 186.86 68.55 187.21 69.49 187.56 65.7 187.9 67.6 188.25 65.82 188.59 65.82 188.94 67.72 189.28 69.97 189.63 69.49 189.98 69.85 190.32 68.9 190.67 67.12 191.01 67.72 191.36 66.29 191.7 65.46 192.05 62.62 192.4 62.74 192.74 60.13 193.09 60.37 193.43 66.06 193.78 69.37 194.13 66.77 194.47 66.65 194.82 65.46 195.16 68.9 195.51 68.78 195.85 68.78 196.2 68.31"/>
      </g>
      <g stroke-width="0.3" fill="#000000" fill-opacity="0.000" class="geometry" stroke-dasharray="none" stroke="#FEE08B" id="img-f4323f47-15">
        <path fill="none" d="M23.65,71.86 L 24 71.51 24.34 74.11 24.69 73.64 25.03 73.88 25.38 73.05 25.73 73.52 26.07 76.6 26.42 79.68 26.76 82.41 27.11 80.99 27.45 79.33 27.8 80.04 28.15 78.14 28.49 79.45 28.84 78.26 29.18 77.2 29.53 76.96 29.88 75.77 30.22 78.03 30.57 81.82 30.91 80.75 31.26 76.72 31.6 75.3 31.95 72.57 32.3 73.64 32.64 71.39 32.99 68.66 33.33 70.2 33.68 69.37 34.02 69.02 34.37 67.24 34.72 69.37 35.06 75.42 35.41 78.5 35.75 78.38 36.1 75.54 36.45 74.83 36.79 74.71 37.14 73.88 37.48 72.46 37.83 69.26 38.17 72.1 38.52 72.34 38.87 70.68 39.21 72.69 39.56 71.15 39.9 68.66 40.25 67.36 40.59 68.31 40.94 67 41.29 66.06 41.63 67.12 41.98 68.31 42.32 67.48 42.67 67.36 43.02 68.19 43.36 70.09 43.71 70.32 44.05 70.44 44.4 71.98 44.74 70.56 45.09 67.72 45.44 67.72 45.78 67.95 46.13 68.78 46.47 66.41 46.82 66.77 47.16 64.04 47.51 66.65 47.86 68.19 48.2 66.18 48.55 62.62 48.89 64.28 49.24 65.11 49.59 63.57 49.93 62.15 50.28 61.44 50.62 61.91 50.97 62.74 51.31 61.32 51.66 62.74 52.01 61.32 52.35 59.66 52.7 56.93 53.04 55.51 53.39 56.58 53.73 58.59 54.08 58.83 54.43 58.83 54.77 59.89 55.12 59.3 55.46 59.89 55.81 61.32 56.16 61.55 56.5 63.21 56.85 62.98 57.19 60.61 57.54 59.18 57.88 59.18 58.23 59.78 58.58 60.61 58.92 59.06 59.27 58 59.61 58.24 59.96 58.83 60.3 60.13 60.65 58.71 61 59.54 61.34 60.01 61.69 61.2 62.03 58.95 62.38 62.15 62.73 60.13 63.07 60.84 63.42 60.72 63.76 58.47 64.11 55.63 64.45 55.75 64.8 56.69 65.15 57.64 65.49 58.24 65.84 55.98 66.18 55.15 66.53 52.78 66.87 54.09 67.22 56.81 67.57 57.29 67.91 58.95 68.26 59.42 68.6 60.61 68.95 61.91 69.3 59.66 69.64 57.76 69.99 58.71 70.33 60.37 70.68 61.79 71.02 62.5 71.37 58.95 71.72 57.41 72.06 57.05 72.41 57.76 72.75 60.72 73.1 57.17 73.44 54.56 73.79 52.9 74.14 52.31 74.48 53.02 74.83 54.44 75.17 52.43 75.52 50.65 75.87 50.89 76.21 50.3 76.56 52.19 76.9 50.41 77.25 52.55 77.59 53.5 77.94 54.92 78.29 52.78 78.63 49.7 78.98 47.69 79.32 48.16 79.67 48.76 80.01 47.21 80.36 46.98 80.71 49.35 81.05 47.33 81.4 50.3 81.74 50.3 82.09 52.67 82.44 50.53 82.78 52.67 83.13 52.9 83.47 52.43 83.82 52.67 84.16 54.68 84.51 54.44 84.86 53.14 85.2 53.61 85.55 51.48 85.89 46.86 86.24 47.45 86.58 44.73 86.93 45.56 87.28 45.08 87.62 46.15 87.97 46.5 88.31 43.78 88.66 43.3 89.01 44.61 89.35 45.2 89.7 42.47 90.04 43.54 90.39 42.95 90.73 43.42 91.08 44.96 91.43 44.02 91.77 45.44 92.12 45.67 92.46 44.84 92.81 42.71 93.15 41.05 93.5 38.92 93.85 40.34 94.19 40.46 94.54 40.46 94.88 39.99 95.23 43.19 95.58 43.9 95.92 44.96 96.27 45.32 96.61 48.4 96.96 47.33 97.3 48.04 97.65 49.7 98 52.31 98.34 50.41 98.69 49.58 99.03 50.3 99.38 50.41 99.72 49.58 100.07 50.77 100.42 52.07 100.76 52.07 101.11 52.9 101.45 51.84 101.8 50.65 102.15 49.58 102.49 48.04 102.84 44.73 103.18 41.88 103.53 40.58 103.87 38.56 104.22 39.27 104.57 37.73 104.91 36.43 105.26 35.25 105.6 34.42 105.95 35.25 106.29 36.31 106.64 35.01 106.99 33.23 107.33 32.64 107.68 32.28 108.02 32.28 108.37 32.52 108.72 34.06 109.06 33.35 109.41 32.16 109.75 34.42 110.1 34.77 110.44 36.55 110.79 36.9 111.14 36.31 111.48 36.55 111.83 36.43 112.17 36.79 112.52 37.62 112.86 36.31 113.21 38.33 113.56 38.8 113.9 36.9 114.25 35.01 114.59 35.13 114.94 36.55 115.29 36.19 115.63 33.35 115.98 36.43 116.32 37.73 116.67 37.73 117.01 37.97 117.36 37.73 117.71 36.79 118.05 37.73 118.4 39.63 118.74 42.24 119.09 41.29 119.43 43.3 119.78 42.47 120.13 43.07 120.47 44.61 120.82 44.61 121.16 45.91 121.51 43.66 121.86 45.56 122.2 45.2 122.55 44.84 122.89 44.96 123.24 44.13 123.58 45.2 123.93 45.67 124.28 44.13 124.62 45.56 124.97 46.03 125.31 47.21 125.66 49.58 126 48.87 126.35 50.41 126.7 48.16 127.04 48.87 127.39 47.45 127.73 46.62 128.08 45.32 128.43 47.1 128.77 48.64 129.12 51.24 129.46 53.02 129.81 57.52 130.15 58.24 130.5 56.81 130.85 53.61 131.19 55.04 131.54 55.75 131.88 57.64 132.23 58.35 132.57 56.46 132.92 54.8 133.27 55.75 133.61 57.17 133.96 55.98 134.3 51.95 134.65 51.72 135 49.82 135.34 49.11 135.69 49.94 136.03 49.7 136.38 47.57 136.72 51.01 137.07 51.01 137.42 49.11 137.76 50.89 138.11 52.19 138.45 52.9 138.8 52.78 139.14 54.92 139.49 55.75 139.84 56.22 140.18 53.61 140.53 51.48 140.87 53.38 141.22 55.27 141.57 57.41 141.91 56.69 142.26 56.22 142.6 54.56 142.95 51.48 143.29 46.5 143.64 47.21 143.99 48.52 144.33 48.28 144.68 47.1 145.02 48.28 145.37 47.57 145.71 47.1 146.06 47.81 146.41 46.5 146.75 46.03 147.1 45.2 147.44 44.96 147.79 45.2 148.14 41.53 148.48 42.95 148.83 42.83 149.17 42 149.52 42.47 149.86 43.42 150.21 42.36 150.56 43.9 150.9 43.54 151.25 43.42 151.59 45.2 151.94 47.57 152.28 45.08 152.63 44.13 152.98 43.9 153.32 41.88 153.67 39.87 154.01 39.04 154.36 37.5 154.71 39.99 155.05 40.7 155.4 42.36 155.74 40.34 156.09 40.7 156.43 39.87 156.78 39.99 157.13 38.56 157.47 37.5 157.82 40.1 158.16 38.8 158.51 39.99 158.85 39.99 159.2 37.97 159.55 38.45 159.89 37.26 160.24 40.34 160.58 38.92 160.93 36.43 161.28 37.14 161.62 36.19 161.97 34.65 162.31 36.31 162.66 37.5 163 37.5 163.35 36.67 163.7 37.85 164.04 37.26 164.39 35.6 164.73 35.96 165.08 33.71 165.42 34.18 165.77 35.13 166.12 34.06 166.46 35.36 166.81 34.65 167.15 34.65 167.5 36.43 167.85 32.88 168.19 32.05 168.54 31.34 168.88 31.22 169.23 29.91 169.57 30.62 169.92 29.32 170.27 28.14 170.61 28.49 170.96 29.79 171.3 28.25 171.65 28.97 171.99 26.12 172.34 25.05 172.69 27.07 173.03 28.73 173.38 30.15 173.72 30.15 174.07 30.27 174.42 28.85 174.76 28.25 175.11 29.91 175.45 31.57 175.8 32.88 176.14 34.06 176.49 34.06 176.84 33.35 177.18 33.11 177.53 32.05 177.87 32.4 178.22 35.01 178.56 36.55 178.91 36.9 179.26 36.19 179.6 36.31 179.95 34.06 180.29 35.25 180.64 34.06 180.99 34.77 181.33 35.72 181.68 33.59 182.02 32.52 182.37 36.79 182.71 36.9 183.06 35.96 183.41 33.94 183.75 34.42 184.1 34.65 184.44 32.88 184.79 32.76 185.13 31.1 185.48 29.79 185.83 29.2 186.17 29.91 186.52 29.91 186.86 30.51 187.21 30.39 187.56 32.52 187.9 33.71 188.25 33.59 188.59 33.82 188.94 34.3 189.28 34.42 189.63 34.06 189.98 31.57 190.32 32.76 190.67 31.93 191.01 32.05 191.36 33.47 191.7 33.35 192.05 31.22 192.4 31.22 192.74 29.56 193.09 30.39 193.43 34.06 193.78 33.82 194.13 35.25 194.47 35.01 194.82 34.06 195.16 34.53 195.51 34.77 195.85 33.11 196.2 34.53"/>
      </g>
      <g stroke-width="0.3" fill="#000000" fill-opacity="0.000" class="geometry" stroke-dasharray="none" stroke="#FDAE61" id="img-f4323f47-16">
        <path fill="none" d="M23.65,71.86 L 24 71.39 24.34 68.19 24.69 69.14 25.03 68.66 25.38 70.56 25.73 69.49 26.07 68.78 26.42 68.31 26.76 69.14 27.11 70.32 27.45 70.2 27.8 71.03 28.15 72.1 28.49 71.74 28.84 68.9 29.18 68.9 29.53 67.12 29.88 68.78 30.22 67.83 30.57 68.19 30.91 68.66 31.26 67.48 31.6 67.48 31.95 67.6 32.3 69.26 32.64 69.97 32.99 67.6 33.33 66.29 33.68 67.72 34.02 69.02 34.37 68.19 34.72 64.87 35.06 67.72 35.41 69.37 35.75 69.26 36.1 71.03 36.45 69.14 36.79 71.86 37.14 75.77 37.48 78.62 37.83 77.08 38.17 78.74 38.52 78.5 38.87 79.09 39.21 77.2 39.56 77.08 39.9 74.83 40.25 77.91 40.59 76.37 40.94 74.23 41.29 73.76 41.63 73.05 41.98 71.98 42.32 70.2 42.67 70.09 43.02 72.57 43.36 71.15 43.71 68.78 44.05 68.55 44.4 69.26 44.74 70.2 45.09 68.66 45.44 70.09 45.78 69.49 46.13 71.86 46.47 69.37 46.82 67.12 47.16 69.37 47.51 65.46 47.86 68.43 48.2 69.85 48.55 67.95 48.89 67.72 49.24 70.92 49.59 71.63 49.93 72.46 50.28 72.46 50.62 73.88 50.97 73.05 51.31 72.81 51.66 69.26 52.01 72.34 52.35 72.1 52.7 71.39 53.04 71.15 53.39 68.9 53.73 66.65 54.08 65.82 54.43 69.02 54.77 71.74 55.12 71.03 55.46 69.14 55.81 70.2 56.16 70.92 56.5 69.61 56.85 70.44 57.19 70.09 57.54 70.44 57.88 73.88 58.23 75.3 58.58 74.83 58.92 76.25 59.27 71.63 59.61 70.56 59.96 68.43 60.3 68.19 60.65 68.19 61 67.95 61.34 70.32 61.69 73.52 62.03 75.77 62.38 74 62.73 72.46 63.07 72.69 63.42 71.98 63.76 72.46 64.11 73.17 64.45 75.06 64.8 74.35 65.15 70.44 65.49 72.57 65.84 72.93 66.18 74.59 66.53 77.08 66.87 77.55 67.22 77.2 67.57 81.11 67.91 79.8 68.26 81.7 68.6 84.42 68.95 82.05 69.3 79.09 69.64 79.45 69.99 81.34 70.33 80.87 70.68 80.04 71.02 80.04 71.37 83 71.72 85.14 72.06 84.78 72.41 89.05 72.75 91.77 73.1 92.13 73.44 91.53 73.79 91.65 74.14 91.18 74.48 90.47 74.83 91.53 75.17 92.84 75.52 92.48 75.87 91.77 76.21 88.57 76.56 92.48 76.9 92.13 77.25 89.88 77.59 90.47 77.94 88.45 78.29 83.95 78.63 85.73 78.98 87.15 79.32 84.9 79.67 87.39 80.01 86.79 80.36 85.97 80.71 86.32 81.05 83.48 81.4 86.08 81.74 87.98 82.09 90.82 82.44 89.16 82.78 88.22 83.13 85.49 83.47 85.85 83.82 87.86 84.16 89.28 84.51 90.23 84.86 89.76 85.2 91.89 85.55 93.19 85.89 95.68 86.24 95.33 86.58 93.79 86.93 94.26 87.28 95.45 87.62 92.36 87.97 91.77 88.31 86.44 88.66 86.2 89.01 86.32 89.35 85.14 89.7 87.98 90.04 86.79 90.39 87.62 90.73 86.79 91.08 88.57 91.43 90.23 91.77 91.77 92.12 90.71 92.46 89.05 92.81 89.52 93.15 91.65 93.5 89.99 93.85 92.01 94.19 91.42 94.54 92.36 94.88 93.9 95.23 93.67 95.58 94.62 95.92 95.68 96.27 95.09 96.61 95.68 96.96 95.45 97.3 98.65 97.65 99.95 98 101.25 98.34 101.13 98.69 102.79 99.03 105.28 99.38 106.58 99.72 103.62 100.07 103.27 100.42 102.44 100.76 101.49 101.11 98.29 101.45 98.05 101.8 99 102.15 100.9 102.49 102.44 102.84 103.62 103.18 103.74 103.53 104.1 103.87 104.1 104.22 104.57 104.57 105.52 104.91 102.67 105.26 103.39 105.6 103.86 105.95 102.44 106.29 98.76 106.64 96.63 106.99 99.71 107.33 102.56 107.68 102.44 108.02 104.1 108.37 104.1 108.72 104.21 109.06 101.25 109.41 104.69 109.75 103.62 110.1 104.81 110.44 105.99 110.79 104.21 111.14 104.21 111.48 104.45 111.83 106.23 112.17 106.35 112.52 102.2 112.86 105.64 113.21 105.99 113.56 105.52 113.9 105.04 114.25 105.28 114.59 106.94 114.94 105.87 115.29 106.82 115.63 106.35 115.98 108.13 116.32 109.43 116.67 109.55 117.01 113.1 117.36 112.98 117.71 115.24 118.05 114.41 118.4 116.07 118.74 115 119.09 116.89 119.43 115.35 119.78 115.24 120.13 116.66 120.47 116.89 120.82 119.26 121.16 120.33 121.51 121.16 121.86 120.57 122.2 120.33 122.55 120.57 122.89 122.46 123.24 123.41 123.58 123.29 123.93 124.24 124.28 124.83 124.62 125.43 124.97 125.9 125.31 125.78 125.66 125.78 126 125.9 126.35 125.78 126.7 126.37 127.04 126.37 127.39 127.8 127.73 127.56 128.08 127.32 128.43 126.73 128.77 127.68 129.12 127.44 129.46 127.56 129.81 128.27 130.15 128.74 130.5 129.57 130.85 128.98 131.19 128.86 131.54 128.63 131.88 128.63 132.23 127.92 132.57 128.03 132.92 128.15 133.27 128.98 133.61 128.27 133.96 126.97 134.3 127.09 134.65 127.09 135 127.92 135.34 127.92 135.69 127.8 136.03 126.97 136.38 127.2 136.72 127.2 137.07 127.8 137.42 127.8 137.76 127.92 138.11 127.8 138.45 128.15 138.8 127.8 139.14 126.37 139.49 125.66 139.84 126.14 140.18 126.37 140.53 126.61 140.87 125.66 141.22 126.73 141.57 126.61 141.91 126.37 142.26 125.19 142.6 124.6 142.95 125.31 143.29 125.66 143.64 126.26 143.99 126.61 144.33 124.48 144.68 124.12 145.02 124.12 145.37 123.89 145.71 124.6 146.06 123.89 146.41 120.33 146.75 118.2 147.1 117.72 147.44 119.38 147.79 118.55 148.14 117.13 148.48 115.95 148.83 113.34 149.17 112.39 149.52 113.34 149.86 112.87 150.21 110.73 150.56 111.56 150.9 111.32 151.25 112.87 151.59 111.09 151.94 111.8 152.28 112.39 152.63 113.93 152.98 113.22 153.32 114.05 153.67 112.27 154.01 112.75 154.36 114.05 154.71 112.27 155.05 111.8 155.4 108.95 155.74 110.02 156.09 110.85 156.43 108.6 156.78 108.95 157.13 111.32 157.47 111.56 157.82 112.87 158.16 111.68 158.51 112.87 158.85 112.98 159.2 111.92 159.55 109.43 159.89 105.52 160.24 108.01 160.58 112.75 160.93 116.3 161.28 116.78 161.62 115.35 161.97 115.35 162.31 113.58 162.66 114.41 163 115.47 163.35 115.59 163.7 117.01 164.04 116.3 164.39 115.12 164.73 117.13 165.08 116.66 165.42 116.78 165.77 116.78 166.12 114.88 166.46 114.41 166.81 113.34 167.15 112.75 167.5 114.17 167.85 112.15 168.19 111.32 168.54 111.68 168.88 110.85 169.23 110.26 169.57 110.85 169.92 108.6 170.27 109.78 170.61 108.6 170.96 108.01 171.3 107.89 171.65 106.47 171.99 109.31 172.34 108.72 172.69 107.65 173.03 106.58 173.38 103.98 173.72 103.98 174.07 101.37 174.42 102.56 174.76 105.04 175.11 104.33 175.45 102.67 175.8 101.49 176.14 101.96 176.49 101.84 176.84 101.37 177.18 102.08 177.53 102.32 177.87 103.62 178.22 103.98 178.56 106.82 178.91 107.18 179.26 105.28 179.6 104.33 179.95 105.52 180.29 105.16 180.64 105.64 180.99 105.52 181.33 105.64 181.68 105.64 182.02 107.18 182.37 105.76 182.71 104.45 183.06 105.87 183.41 104.45 183.75 104.81 184.1 105.64 184.44 105.99 184.79 105.4 185.13 104.69 185.48 102.91 185.83 102.08 186.17 103.27 186.52 104.33 186.86 104.21 187.21 103.98 187.56 105.04 187.9 106.94 188.25 106.7 188.59 107.06 188.94 106.11 189.28 105.76 189.63 106.58 189.98 105.28 190.32 102.79 190.67 100.3 191.01 102.2 191.36 103.5 191.7 102.2 192.05 101.96 192.4 100.9 192.74 101.37 193.09 99.95 193.43 102.2 193.78 102.56 194.13 104.33 194.47 104.45 194.82 103.03 195.16 102.32 195.51 102.08 195.85 102.2 196.2 101.25"/>
      </g>
      <g stroke-width="0.3" fill="#000000" fill-opacity="0.000" class="geometry" stroke-dasharray="none" stroke="#F46D43" id="img-f4323f47-17">
        <path fill="none" d="M23.65,71.86 L 24 70.68 24.34 68.66 24.69 67.72 25.03 69.49 25.38 68.07 25.73 69.37 26.07 73.64 26.42 74.83 26.76 76.01 27.11 75.18 27.45 76.6 27.8 76.01 28.15 76.25 28.49 77.67 28.84 72.93 29.18 70.8 29.53 68.43 29.88 68.78 30.22 69.61 30.57 74.71 30.91 71.86 31.26 73.17 31.6 74.47 31.95 72.46 32.3 75.06 32.64 71.51 32.99 71.15 33.33 71.63 33.68 69.61 34.02 69.49 34.37 71.27 34.72 71.51 35.06 75.89 35.41 78.03 35.75 76.01 36.1 76.37 36.45 75.3 36.79 78.14 37.14 74.71 37.48 75.54 37.83 72.57 38.17 71.15 38.52 72.57 38.87 71.27 39.21 70.09 39.56 71.03 39.9 71.74 40.25 71.51 40.59 73.64 40.94 75.18 41.29 75.18 41.63 77.91 41.98 77.43 42.32 76.6 42.67 76.37 43.02 74.83 43.36 73.4 43.71 74 44.05 74.35 44.4 75.3 44.74 73.4 45.09 75.42 45.44 77.31 45.78 77.79 46.13 78.74 46.47 80.87 46.82 81.94 47.16 82.77 47.51 85.25 47.86 84.42 48.2 82.53 48.55 83 48.89 80.51 49.24 79.8 49.59 83.6 49.93 79.57 50.28 76.72 50.62 78.14 50.97 79.57 51.31 78.03 51.66 78.5 52.01 80.63 52.35 82.88 52.7 83.95 53.04 83.12 53.39 85.02 53.73 83.48 54.08 85.02 54.43 81.11 54.77 83.36 55.12 82.53 55.46 78.74 55.81 77.08 56.16 76.37 56.5 77.91 56.85 77.55 57.19 76.48 57.54 74.47 57.88 73.76 58.23 74.59 58.58 74.11 58.92 76.13 59.27 73.76 59.61 75.06 59.96 71.74 60.3 69.97 60.65 68.78 61 68.9 61.34 71.03 61.69 71.27 62.03 70.2 62.38 71.03 62.73 71.15 63.07 70.56 63.42 71.39 63.76 74.11 64.11 74.94 64.45 76.37 64.8 77.08 65.15 76.25 65.49 77.91 65.84 78.26 66.18 78.26 66.53 77.91 66.87 78.5 67.22 77.67 67.57 78.97 67.91 80.75 68.26 82.65 68.6 80.28 68.95 79.09 69.3 77.55 69.64 76.48 69.99 74.71 70.33 74.35 70.68 75.66 71.02 76.01 71.37 73.4 71.72 74.23 72.06 74.23 72.41 73.17 72.75 73.29 73.1 72.46 73.44 71.03 73.79 70.32 74.14 66.18 74.48 67.48 74.83 69.14 75.17 66.53 75.52 65.11 75.87 64.52 76.21 66.89 76.56 67.24 76.9 69.85 77.25 68.66 77.59 68.07 77.94 71.15 78.29 73.64 78.63 72.46 78.98 71.27 79.32 73.17 79.67 70.68 80.01 69.26 80.36 68.9 80.71 70.92 81.05 67.72 81.4 65.11 81.74 70.32 82.09 69.85 82.44 69.49 82.78 70.8 83.13 67.83 83.47 67 83.82 68.9 84.16 67.95 84.51 70.32 84.86 67 85.2 67.95 85.55 67.83 85.89 67.6 86.24 67.72 86.58 67.24 86.93 69.14 87.28 70.09 87.62 72.69 87.97 69.73 88.31 69.85 88.66 66.77 89.01 65.35 89.35 69.26 89.7 69.02 90.04 69.61 90.39 72.69 90.73 71.51 91.08 71.86 91.43 72.93 91.77 72.46 92.12 71.27 92.46 72.34 92.81 70.68 93.15 69.61 93.5 66.65 93.85 65.82 94.19 64.4 94.54 64.04 94.88 62.74 95.23 60.25 95.58 60.37 95.92 60.84 96.27 60.49 96.61 61.79 96.96 61.44 97.3 62.15 97.65 60.25 98 63.21 98.34 64.04 98.69 67.12 99.03 64.16 99.38 65.46 99.72 64.87 100.07 64.04 100.42 64.4 100.76 68.55 101.11 70.32 101.45 68.19 101.8 67.83 102.15 66.53 102.49 64.99 102.84 64.63 103.18 66.77 103.53 68.31 103.87 70.44 104.22 67.83 104.57 65.46 104.91 65.58 105.26 67.24 105.6 67.36 105.95 66.89 106.29 68.07 106.64 70.09 106.99 71.15 107.33 70.32 107.68 67.83 108.02 69.97 108.37 68.07 108.72 67.24 109.06 66.89 109.41 65.58 109.75 66.53 110.1 62.38 110.44 63.21 110.79 62.74 111.14 61.91 111.48 64.16 111.83 61.91 112.17 61.91 112.52 60.96 112.86 61.79 113.21 61.2 113.56 59.3 113.9 55.87 114.25 58.12 114.59 55.98 114.94 54.56 115.29 56.22 115.63 56.93 115.98 57.88 116.32 56.93 116.67 54.44 117.01 51.95 117.36 47.81 117.71 48.04 118.05 49.23 118.4 50.06 118.74 50.89 119.09 48.99 119.43 48.4 119.78 48.76 120.13 48.4 120.47 45.56 120.82 50.06 121.16 48.64 121.51 50.18 121.86 48.76 122.2 47.69 122.55 46.5 122.89 47.69 123.24 47.21 123.58 45.56 123.93 44.84 124.28 45.91 124.62 45.56 124.97 43.9 125.31 42 125.66 42 126 44.61 126.35 42.36 126.7 41.29 127.04 40.1 127.39 41.88 127.73 41.64 128.08 42.95 128.43 42.83 128.77 42.59 129.12 43.9 129.46 47.33 129.81 46.15 130.15 46.03 130.5 44.02 130.85 43.66 131.19 45.08 131.54 44.02 131.88 44.02 132.23 43.19 132.57 44.96 132.92 41.53 133.27 40.7 133.61 40.46 133.96 39.99 134.3 40.82 134.65 41.41 135 42.36 135.34 41.64 135.69 43.3 136.03 45.32 136.38 44.84 136.72 44.25 137.07 44.13 137.42 40.22 137.76 38.33 138.11 38.33 138.45 36.55 138.8 36.67 139.14 36.79 139.49 37.62 139.84 38.33 140.18 39.04 140.53 38.68 140.87 37.38 141.22 35.6 141.57 35.84 141.91 34.77 142.26 35.6 142.6 35.13 142.95 34.89 143.29 34.42 143.64 35.6 143.99 33.11 144.33 35.84 144.68 35.36 145.02 34.89 145.37 37.38 145.71 36.79 146.06 35.01 146.41 37.26 146.75 40.82 147.1 41.76 147.44 40.34 147.79 37.38 148.14 37.73 148.48 40.7 148.83 41.53 149.17 40.46 149.52 37.73 149.86 39.27 150.21 40.58 150.56 40.1 150.9 41.05 151.25 38.56 151.59 37.97 151.94 39.16 152.28 39.39 152.63 37.26 152.98 37.73 153.32 38.45 153.67 41.64 154.01 40.93 154.36 41.64 154.71 41.53 155.05 43.3 155.4 41.76 155.74 41.05 156.09 37.62 156.43 35.96 156.78 33.94 157.13 33.71 157.47 34.3 157.82 34.89 158.16 35.84 158.51 34.18 158.85 35.13 159.2 34.53 159.55 36.19 159.89 37.85 160.24 39.63 160.58 39.51 160.93 40.46 161.28 41.76 161.62 39.87 161.97 42.36 162.31 41.88 162.66 42.47 163 42.59 163.35 42.24 163.7 44.37 164.04 43.9 164.39 44.25 164.73 44.61 165.08 45.67 165.42 46.86 165.77 47.1 166.12 48.04 166.46 45.91 166.81 46.03 167.15 45.08 167.5 45.44 167.85 42.24 168.19 41.05 168.54 40.22 168.88 42.24 169.23 43.78 169.57 45.2 169.92 43.54 170.27 44.25 170.61 42.59 170.96 40.46 171.3 41.53 171.65 40.46 171.99 43.19 172.34 44.25 172.69 43.42 173.03 43.42 173.38 43.19 173.72 42.71 174.07 41.64 174.42 42.36 174.76 43.3 175.11 42.95 175.45 42.12 175.8 44.25 176.14 44.96 176.49 45.08 176.84 43.9 177.18 45.44 177.53 46.03 177.87 47.33 178.22 47.21 178.56 48.04 178.91 51.48 179.26 54.56 179.6 53.97 179.95 54.8 180.29 54.92 180.64 55.39 180.99 56.34 181.33 61.91 181.68 60.84 182.02 57.88 182.37 57.76 182.71 55.51 183.06 53.5 183.41 53.85 183.75 54.92 184.1 56.93 184.44 58 184.79 57.88 185.13 56.69 185.48 54.32 185.83 51.95 186.17 51.24 186.52 51.36 186.86 50.77 187.21 52.78 187.56 53.38 187.9 52.67 188.25 53.61 188.59 53.26 188.94 54.44 189.28 54.68 189.63 55.27 189.98 54.44 190.32 54.92 190.67 57.29 191.01 56.69 191.36 57.76 191.7 60.96 192.05 62.15 192.4 61.44 192.74 62.03 193.09 62.62 193.43 67.12 193.78 69.85 194.13 68.43 194.47 69.73 194.82 69.97 195.16 67.48 195.51 70.56 195.85 71.15 196.2 70.32"/>
      </g>
      <g stroke-width="0.3" fill="#000000" fill-opacity="0.000" class="geometry" stroke-dasharray="none" stroke="#D53E4F" id="img-f4323f47-18">
        <path fill="none" d="M23.65,71.86 L 24 68.19 24.34 71.39 24.69 73.76 25.03 72.1 25.38 74.59 25.73 72.1 26.07 73.4 26.42 75.66 26.76 76.6 27.11 76.72 27.45 77.67 27.8 77.67 28.15 74 28.49 71.63 28.84 69.49 29.18 70.8 29.53 69.37 29.88 70.92 30.22 71.51 30.57 73.88 30.91 75.06 31.26 72.93 31.6 73.29 31.95 72.81 32.3 70.2 32.64 68.9 32.99 72.81 33.33 72.34 33.68 74.71 34.02 76.25 34.37 75.42 34.72 75.89 35.06 74 35.41 76.72 35.75 74.59 36.1 77.2 36.45 78.86 36.79 77.79 37.14 75.89 37.48 76.6 37.83 75.06 38.17 76.6 38.52 78.97 38.87 79.09 39.21 83.36 39.56 86.32 39.9 83.83 40.25 81.11 40.59 81.46 40.94 80.4 41.29 81.23 41.63 82.53 41.98 80.16 42.32 81.11 42.67 78.5 43.02 76.72 43.36 76.84 43.71 75.66 44.05 76.48 44.4 78.03 44.74 75.66 45.09 74.59 45.44 75.77 45.78 75.77 46.13 76.84 46.47 78.86 46.82 74.71 47.16 73.76 47.51 76.6 47.86 75.66 48.2 78.38 48.55 77.55 48.89 76.48 49.24 77.67 49.59 74.11 49.93 72.81 50.28 71.39 50.62 71.74 50.97 71.74 51.31 74.83 51.66 72.22 52.01 70.92 52.35 75.77 52.7 77.31 53.04 75.89 53.39 75.66 53.73 74.35 54.08 71.63 54.43 66.41 54.77 64.87 55.12 65.11 55.46 66.18 55.81 67.12 56.16 69.85 56.5 67.12 56.85 68.55 57.19 67 57.54 65.35 57.88 67.48 58.23 71.39 58.58 71.86 58.92 75.3 59.27 76.48 59.61 75.89 59.96 79.8 60.3 78.86 60.65 77.67 61 75.89 61.34 75.66 61.69 74.11 62.03 74.47 62.38 74 62.73 71.86 63.07 72.93 63.42 73.17 63.76 74.71 64.11 76.96 64.45 75.18 64.8 76.25 65.15 75.54 65.49 72.69 65.84 74.94 66.18 72.69 66.53 71.86 66.87 70.56 67.22 67.95 67.57 70.56 67.91 71.63 68.26 71.74 68.6 74 68.95 74.59 69.3 75.77 69.64 74.94 69.99 76.6 70.33 76.96 70.68 77.2 71.02 76.84 71.37 77.79 71.72 77.2 72.06 79.09 72.41 73.76 72.75 69.73 73.1 71.39 73.44 69.26 73.79 69.37 74.14 68.43 74.48 65.7 74.83 66.53 75.17 69.37 75.52 70.8 75.87 70.32 76.21 70.44 76.56 70.09 76.9 68.55 77.25 67.24 77.59 68.78 77.94 68.66 78.29 68.9 78.63 67.95 78.98 65.94 79.32 65.94 79.67 62.74 80.01 64.28 80.36 66.29 80.71 66.53 81.05 64.52 81.4 65.11 81.74 64.63 82.09 65.58 82.44 65.7 82.78 63.57 83.13 66.77 83.47 69.37 83.82 71.74 84.16 71.63 84.51 70.8 84.86 71.51 85.2 71.74 85.55 66.89 85.89 64.4 86.24 65.11 86.58 69.73 86.93 66.53 87.28 69.37 87.62 65.7 87.97 66.06 88.31 67 88.66 68.19 89.01 70.68 89.35 70.44 89.7 70.56 90.04 71.51 90.39 72.57 90.73 72.93 91.08 76.72 91.43 77.43 91.77 80.4 92.12 77.55 92.46 77.08 92.81 75.18 93.15 71.51 93.5 72.34 93.85 70.68 94.19 69.97 94.54 68.55 94.88 67.72 95.23 64.16 95.58 68.66 95.92 67.48 96.27 70.2 96.61 70.68 96.96 73.05 97.3 77.43 97.65 78.97 98 76.25 98.34 76.84 98.69 77.31 99.03 76.84 99.38 76.01 99.72 76.84 100.07 76.72 100.42 74.83 100.76 75.54 101.11 75.66 101.45 74.47 101.8 74.71 102.15 75.54 102.49 72.81 102.84 72.46 103.18 73.88 103.53 70.44 103.87 72.46 104.22 71.63 104.57 70.2 104.91 70.92 105.26 71.98 105.6 69.37 105.95 73.52 106.29 75.77 106.64 77.2 106.99 76.48 107.33 76.6 107.68 78.03 108.02 77.08 108.37 78.38 108.72 83 109.06 80.87 109.41 80.16 109.75 76.72 110.1 75.77 110.44 77.79 110.79 78.38 111.14 78.62 111.48 78.03 111.83 78.62 112.17 76.72 112.52 80.16 112.86 81.82 113.21 80.4 113.56 79.92 113.9 79.45 114.25 76.96 114.59 78.38 114.94 76.84 115.29 77.91 115.63 77.67 115.98 79.8 116.32 78.14 116.67 74.83 117.01 76.6 117.36 77.91 117.71 78.62 118.05 76.13 118.4 75.06 118.74 76.25 119.09 75.18 119.43 74.23 119.78 75.66 120.13 77.08 120.47 78.86 120.82 73.64 121.16 73.17 121.51 71.15 121.86 70.68 122.2 71.51 122.55 69.85 122.89 69.61 123.24 68.43 123.58 68.9 123.93 69.37 124.28 70.2 124.62 70.2 124.97 69.14 125.31 69.26 125.66 67.95 126 68.31 126.35 64.04 126.7 60.37 127.04 61.44 127.39 64.87 127.73 66.18 128.08 62.86 128.43 65.23 128.77 67.6 129.12 67.72 129.46 68.66 129.81 70.2 130.15 65.94 130.5 66.18 130.85 63.21 131.19 61.08 131.54 62.38 131.88 63.92 132.23 64.87 132.57 62.74 132.92 62.38 133.27 63.45 133.61 64.75 133.96 61.91 134.3 62.62 134.65 59.54 135 57.05 135.34 56.1 135.69 56.22 136.03 55.15 136.38 55.51 136.72 55.15 137.07 52.9 137.42 52.31 137.76 51.24 138.11 50.53 138.45 50.77 138.8 50.53 139.14 49.94 139.49 49.47 139.84 52.55 140.18 54.92 140.53 56.81 140.87 58 141.22 57.41 141.57 58.47 141.91 56.46 142.26 57.64 142.6 55.27 142.95 55.39 143.29 57.64 143.64 57.88 143.99 58.12 144.33 56.58 144.68 58.47 145.02 56.69 145.37 57.05 145.71 60.01 146.06 57.88 146.41 55.39 146.75 53.97 147.1 52.31 147.44 54.92 147.79 53.5 148.14 53.02 148.48 52.78 148.83 55.04 149.17 55.15 149.52 54.56 149.86 52.31 150.21 52.07 150.56 50.3 150.9 53.73 151.25 53.73 151.59 48.52 151.94 46.27 152.28 44.73 152.63 44.13 152.98 46.86 153.32 49.23 153.67 50.65 154.01 48.99 154.36 46.03 154.71 46.74 155.05 47.1 155.4 47.33 155.74 46.15 156.09 47.81 156.43 49.35 156.78 47.81 157.13 49.58 157.47 51.24 157.82 52.31 158.16 49.35 158.51 51.95 158.85 49.7 159.2 49.82 159.55 52.07 159.89 52.19 160.24 52.43 160.58 50.65 160.93 48.4 161.28 47.1 161.62 44.25 161.97 42.12 162.31 42.47 162.66 42.95 163 43.07 163.35 41.17 163.7 41.41 164.04 46.15 164.39 46.62 164.73 46.03 165.08 45.56 165.42 46.62 165.77 48.76 166.12 45.67 166.46 47.21 166.81 45.08 167.15 46.62 167.5 47.93 167.85 49.82 168.19 47.57 168.54 50.06 168.88 50.06 169.23 50.89 169.57 47.69 169.92 45.56 170.27 46.62 170.61 44.13 170.96 42.95 171.3 42.59 171.65 43.9 171.99 42 172.34 38.8 172.69 38.45 173.03 39.39 173.38 41.05 173.72 41.88 174.07 38.68 174.42 39.27 174.76 40.7 175.11 39.27 175.45 41.64 175.8 42.71 176.14 44.96 176.49 43.66 176.84 43.78 177.18 41.64 177.53 40.7 177.87 42.95 178.22 43.19 178.56 42.24 178.91 42 179.26 41.41 179.6 41.53 179.95 41.29 180.29 40.93 180.64 45.32 180.99 46.86 181.33 47.69 181.68 45.67 182.02 42.12 182.37 39.99 182.71 41.88 183.06 41.29 183.41 42.47 183.75 42.47 184.1 44.73 184.44 43.9 184.79 43.42 185.13 43.42 185.48 41.17 185.83 43.3 186.17 42.95 186.52 42 186.86 41.76 187.21 41.29 187.56 40.82 187.9 43.07 188.25 42.95 188.59 44.61 188.94 41.88 189.28 40.58 189.63 43.07 189.98 44.84 190.32 42.36 190.67 44.25 191.01 44.02 191.36 44.73 191.7 45.44 192.05 45.67 192.4 46.74 192.74 44.37 193.09 45.2 193.43 44.37 193.78 45.32 194.13 44.37 194.47 43.54 194.82 42.59 195.16 39.39 195.51 39.87 195.85 39.16 196.2 37.5"/>
      </g>
      <g stroke-width="0.3" fill="#000000" fill-opacity="0.000" class="geometry" stroke-dasharray="none" stroke="#9E0142" id="img-f4323f47-19">
        <path fill="none" d="M23.65,71.86 L 24 70.92 24.34 68.31 24.69 64.99 25.03 64.75 25.38 66.41 25.73 66.89 26.07 65.46 26.42 64.87 26.76 66.77 27.11 65.82 27.45 63.81 27.8 66.29 28.15 67.83 28.49 66.77 28.84 69.02 29.18 67.36 29.53 69.61 29.88 69.02 30.22 70.8 30.57 72.93 30.91 72.1 31.26 71.51 31.6 73.88 31.95 69.85 32.3 64.63 32.64 64.63 32.99 60.96 33.33 61.55 33.68 62.15 34.02 61.2 34.37 61.32 34.72 62.15 35.06 60.72 35.41 58.83 35.75 56.81 36.1 59.3 36.45 59.42 36.79 59.89 37.14 60.01 37.48 61.2 37.83 57.76 38.17 55.98 38.52 53.5 38.87 51.84 39.21 53.14 39.56 51.13 39.9 48.52 40.25 47.93 40.59 44.61 40.94 44.13 41.29 43.07 41.63 43.07 41.98 41.05 42.32 40.22 42.67 40.22 43.02 38.92 43.36 39.04 43.71 37.62 44.05 36.67 44.4 36.79 44.74 37.02 45.09 37.85 45.44 37.02 45.78 37.02 46.13 36.31 46.47 35.72 46.82 35.96 47.16 36.9 47.51 34.89 47.86 35.01 48.2 32.28 48.55 35.48 48.89 33.71 49.24 32.99 49.59 32.28 49.93 34.77 50.28 34.65 50.62 34.89 50.97 34.89 51.31 36.9 51.66 39.75 52.01 41.64 52.35 43.3 52.7 43.3 53.04 42.59 53.39 42.24 53.73 42.59 54.08 39.16 54.43 40.1 54.77 41.17 55.12 42.47 55.46 42.47 55.81 45.08 56.16 43.66 56.5 41.29 56.85 39.04 57.19 38.56 57.54 39.04 57.88 40.82 58.23 40.58 58.58 41.88 58.92 38.09 59.27 39.04 59.61 38.68 59.96 36.55 60.3 35.6 60.65 38.68 61 39.39 61.34 41.41 61.69 41.64 62.03 41.64 62.38 43.9 62.73 42.83 63.07 43.19 63.42 42.47 63.76 37.73 64.11 36.43 64.45 37.5 64.8 34.18 65.15 36.43 65.49 35.6 65.84 35.96 66.18 37.62 66.53 34.77 66.87 34.53 67.22 36.67 67.57 37.02 67.91 37.38 68.26 40.46 68.6 42.12 68.95 42.71 69.3 44.49 69.64 46.03 69.99 45.56 70.33 44.37 70.68 43.54 71.02 44.73 71.37 44.02 71.72 46.86 72.06 45.67 72.41 44.37 72.75 45.91 73.1 45.56 73.44 45.79 73.79 44.37 74.14 45.79 74.48 44.13 74.83 45.2 75.17 43.66 75.52 44.84 75.87 48.52 76.21 47.57 76.56 47.1 76.9 47.33 77.25 48.28 77.59 48.87 77.94 47.33 78.29 47.21 78.63 51.36 78.98 51.24 79.32 51.72 79.67 52.43 80.01 53.73 80.36 52.78 80.71 48.28 81.05 46.86 81.4 45.44 81.74 45.67 82.09 46.27 82.44 47.45 82.78 46.5 83.13 46.62 83.47 44.49 83.82 46.98 84.16 46.74 84.51 47.21 84.86 43.54 85.2 43.19 85.55 44.02 85.89 41.88 86.24 41.76 86.58 39.75 86.93 39.63 87.28 40.22 87.62 39.04 87.97 39.39 88.31 40.82 88.66 40.58 89.01 40.22 89.35 41.29 89.7 39.87 90.04 42.12 90.39 41.53 90.73 42.95 91.08 42.59 91.43 43.07 91.77 42.47 92.12 43.3 92.46 42.95 92.81 43.54 93.15 41.76 93.5 41.05 93.85 39.04 94.19 40.1 94.54 42.83 94.88 43.42 95.23 44.13 95.58 43.66 95.92 43.3 96.27 44.84 96.61 43.42 96.96 42.83 97.3 42.47 97.65 41.64 98 39.51 98.34 39.16 98.69 39.16 99.03 41.05 99.38 40.7 99.72 42.12 100.07 40.7 100.42 41.64 100.76 42.47 101.11 42.24 101.45 44.25 101.8 43.9 102.15 44.13 102.49 46.27 102.84 46.39 103.18 45.91 103.53 44.96 103.87 44.25 104.22 43.78 104.57 42.12 104.91 41.76 105.26 40.22 105.6 37.5 105.95 39.04 106.29 41.88 106.64 41.88 106.99 42.12 107.33 42.36 107.68 41.05 108.02 39.51 108.37 43.54 108.72 41.64 109.06 42.12 109.41 41.53 109.75 43.19 110.1 42.83 110.44 41.29 110.79 42.47 111.14 42.71 111.48 41.53 111.83 43.3 112.17 42.36 112.52 41.17 112.86 42.95 113.21 45.32 113.56 45.79 113.9 47.21 114.25 51.13 114.59 55.27 114.94 54.32 115.29 53.73 115.63 54.56 115.98 55.51 116.32 57.41 116.67 59.06 117.01 58.59 117.36 59.18 117.71 57.76 118.05 58.47 118.4 57.64 118.74 55.27 119.09 57.29 119.43 56.1 119.78 56.22 120.13 58.71 120.47 62.86 120.82 64.52 121.16 67.12 121.51 69.14 121.86 68.19 122.2 64.04 122.55 61.91 122.89 63.09 123.24 61.44 123.58 58.47 123.93 60.61 124.28 58.83 124.62 60.61 124.97 60.72 125.31 64.63 125.66 62.15 126 59.3 126.35 61.32 126.7 61.08 127.04 59.78 127.39 60.84 127.73 59.78 128.08 59.06 128.43 57.05 128.77 58.35 129.12 59.78 129.46 61.44 129.81 67.24 130.15 67.24 130.5 67.12 130.85 68.19 131.19 71.39 131.54 72.46 131.88 73.76 132.23 70.44 132.57 68.66 132.92 66.89 133.27 66.41 133.61 62.26 133.96 63.69 134.3 62.86 134.65 61.08 135 60.72 135.34 59.54 135.69 59.54 136.03 58.83 136.38 58.59 136.72 54.44 137.07 55.27 137.42 57.17 137.76 57.41 138.11 54.92 138.45 55.87 138.8 55.39 139.14 57.76 139.49 58.35 139.84 61.44 140.18 58.47 140.53 58.71 140.87 59.06 141.22 59.42 141.57 60.37 141.91 62.03 142.26 61.67 142.6 62.26 142.95 60.84 143.29 61.91 143.64 64.75 143.99 62.86 144.33 64.04 144.68 62.98 145.02 62.74 145.37 62.5 145.71 64.75 146.06 60.61 146.41 61.44 146.75 59.42 147.1 58.12 147.44 57.41 147.79 60.37 148.14 58.47 148.48 58.35 148.83 62.26 149.17 61.32 149.52 62.74 149.86 61.91 150.21 61.79 150.56 59.54 150.9 63.21 151.25 64.63 151.59 67.12 151.94 70.2 152.28 67.24 152.63 65.46 152.98 65.7 153.32 67 153.67 65.11 154.01 64.16 154.36 64.04 154.71 66.18 155.05 69.85 155.4 70.2 155.74 66.89 156.09 67.6 156.43 67.48 156.78 67.95 157.13 64.87 157.47 64.63 157.82 63.69 158.16 62.98 158.51 63.92 158.85 63.33 159.2 64.63 159.55 62.5 159.89 58.83 160.24 56.69 160.58 56.34 160.93 56.22 161.28 58.24 161.62 58 161.97 59.66 162.31 57.52 162.66 58.12 163 58.35 163.35 58 163.7 58.47 164.04 59.78 164.39 59.18 164.73 59.54 165.08 58.95 165.42 58.71 165.77 59.54 166.12 58.59 166.46 60.37 166.81 59.06 167.15 55.87 167.5 53.85 167.85 53.38 168.19 54.09 168.54 53.73 168.88 54.32 169.23 55.04 169.57 54.68 169.92 55.04 170.27 54.32 170.61 58.47 170.96 60.13 171.3 59.89 171.65 61.44 171.99 60.96 172.34 58.95 172.69 60.49 173.03 58.35 173.38 54.8 173.72 54.8 174.07 55.63 174.42 58.35 174.76 58.35 175.11 59.3 175.45 56.69 175.8 56.69 176.14 56.34 176.49 55.98 176.84 53.14 177.18 55.63 177.53 55.39 177.87 53.14 178.22 56.69 178.56 59.18 178.91 58.24 179.26 62.26 179.6 63.45 179.95 65.82 180.29 66.89 180.64 68.31 180.99 70.09 181.33 72.46 181.68 72.34 182.02 75.3 182.37 77.31 182.71 76.37 183.06 76.96 183.41 74.83 183.75 75.89 184.1 76.6 184.44 74 184.79 73.76 185.13 74.35 185.48 74 185.83 79.33 186.17 80.63 186.52 82.05 186.86 83 187.21 81.58 187.56 82.05 187.9 80.63 188.25 79.21 188.59 81.11 188.94 83.24 189.28 83.83 189.63 83 189.98 84.54 190.32 81.34 190.67 82.29 191.01 80.87 191.36 79.68 191.7 79.33 192.05 80.87 192.4 79.45 192.74 83.24 193.09 82.05 193.43 80.16 193.78 79.92 194.13 80.04 194.47 82.05 194.82 79.57 195.16 80.51 195.51 80.16 195.85 78.14 196.2 75.18"/>
      </g>
    </g>
  </g>
</g>
  <g class="guide ylabels" font-size="2.82" font-family="'PT Sans Caption','Helvetica Neue','Helvetica',sans-serif" fill="#000000" id="img-f4323f47-20">
    <text x="20.3" y="131.11" text-anchor="end" dy="0.35em">0</text>
    <text x="20.3" y="71.86" text-anchor="end" dy="0.35em">500</text>
    <text x="20.3" y="12.61" text-anchor="end" dy="0.35em">1000</text>
  </g>
  <g font-size="3.88" font-family="'PT Sans','Helvetica Neue','Helvetica',sans-serif" fill="#000000" stroke="#000000" stroke-opacity="0.000" id="img-f4323f47-21">
    <text x="8.81" y="69.86" text-anchor="middle" dy="0.35em" transform="rotate(-90, 8.81, 71.86)">population size</text>
  </g>
  <g font-size="3.88" font-family="'PT Sans','Helvetica Neue','Helvetica',sans-serif" fill="#000000" stroke="#000000" stroke-opacity="0.000" id="img-f4323f47-22">
    <text x="109.75" y="5" text-anchor="middle" dy="0.6em">genetic drift with mutationrate  = 0.001 </text>
  </g>
</g>
<defs>
  <clipPath id="img-f4323f47-4">
  <path d="M21.31,10.61 L 198.2 10.61 198.2 133.11 21.31 133.11" />
</clipPath>
</defs>
</svg>
