<?xml version="1.0" encoding="UTF-8"?>
<svg xmlns="http://www.w3.org/2000/svg"
     xmlns:xlink="http://www.w3.org/1999/xlink"
     xmlns:gadfly="http://www.gadflyjl.org/ns"
     version="1.2"
     width="203.2mm" height="152.4mm" viewBox="0 0 203.2 152.4"
     stroke="none"
     fill="#000000"
     stroke-width="0.3"
     font-size="3.88"
>
<g class="plotroot xscalable yscalable" id="img-b0a9be78-1">
  <g font-size="3.88" font-family="'PT Sans','Helvetica Neue','Helvetica',sans-serif" fill="#000000" stroke="#000000" stroke-opacity="0.000" id="img-b0a9be78-2">
    <text x="109.75" y="140.79" text-anchor="middle" dy="0.6em">generation number</text>
  </g>
  <g class="guide xlabels" font-size="2.82" font-family="'PT Sans Caption','Helvetica Neue','Helvetica',sans-serif" fill="#000000" id="img-b0a9be78-3">
    <text x="23.31" y="134.11" text-anchor="middle" dy="0.6em">0</text>
    <text x="57.88" y="134.11" text-anchor="middle" dy="0.6em">100</text>
    <text x="92.46" y="134.11" text-anchor="middle" dy="0.6em">200</text>
    <text x="127.04" y="134.11" text-anchor="middle" dy="0.6em">300</text>
    <text x="161.62" y="134.11" text-anchor="middle" dy="0.6em">400</text>
    <text x="196.2" y="134.11" text-anchor="middle" dy="0.6em">500</text>
  </g>
<g clip-path="url(#img-b0a9be78-4)">
  <g id="img-b0a9be78-5">
    <g pointer-events="visible" opacity="1" fill="#FFFFFF" stroke="#000000" stroke-opacity="0.000" class="guide background" id="img-b0a9be78-6">
      <rect x="21.31" y="10.61" width="176.89" height="122.5"/>
    </g>
    <g class="guide ygridlines xfixed" stroke-dasharray="0.5,0.5" stroke-width="0.2" stroke="#808080" id="img-b0a9be78-7">
      <path fill="none" d="M21.31,131.11 L 198.2 131.11"/>
      <path fill="none" d="M21.31,107.41 L 198.2 107.41"/>
      <path fill="none" d="M21.31,83.71 L 198.2 83.71"/>
      <path fill="none" d="M21.31,60.01 L 198.2 60.01"/>
      <path fill="none" d="M21.31,36.31 L 198.2 36.31"/>
      <path fill="none" d="M21.31,12.61 L 198.2 12.61"/>
    </g>
    <g class="guide xgridlines yfixed" stroke-dasharray="0.5,0.5" stroke-width="0.2" stroke="#808080" id="img-b0a9be78-8">
      <path fill="none" d="M23.31,10.61 L 23.31 133.11"/>
      <path fill="none" d="M57.88,10.61 L 57.88 133.11"/>
      <path fill="none" d="M92.46,10.61 L 92.46 133.11"/>
      <path fill="none" d="M127.04,10.61 L 127.04 133.11"/>
      <path fill="none" d="M161.62,10.61 L 161.62 133.11"/>
      <path fill="none" d="M196.2,10.61 L 196.2 133.11"/>
    </g>
    <g class="plotpanel" id="img-b0a9be78-9">
      <g stroke-width="0.3" fill="#000000" fill-opacity="0.000" class="geometry" stroke-dasharray="none" stroke="#3288BD" id="img-b0a9be78-10">
        <path fill="none" d="M23.65,71.86 L 24 71.86 24.34 71.63 24.69 71.39 25.03 74.83 25.38 72.46 25.73 75.66 26.07 74.71 26.42 69.85 26.76 70.09 27.11 68.78 27.45 68.31 27.8 67.95 28.15 65.46 28.49 65.58 28.84 68.43 29.18 70.8 29.53 69.14 29.88 70.44 30.22 73.29 30.57 72.1 30.91 72.46 31.26 72.69 31.6 72.57 31.95 69.02 32.3 67.24 32.64 63.57 32.99 62.38 33.33 63.81 33.68 60.49 34.02 57.17 34.37 56.22 34.72 54.56 35.06 56.22 35.41 56.81 35.75 53.97 36.1 53.61 36.45 52.67 36.79 51.95 37.14 52.55 37.48 53.02 37.83 55.04 38.17 54.32 38.52 55.51 38.87 50.89 39.21 54.56 39.56 57.41 39.9 59.18 40.25 60.25 40.59 64.4 40.94 61.2 41.29 57.17 41.63 55.39 41.98 55.15 42.32 55.87 42.67 58 43.02 58.47 43.36 58.83 43.71 56.93 44.05 56.22 44.4 57.52 44.74 56.34 45.09 55.39 45.44 57.52 45.78 55.75 46.13 55.04 46.47 55.75 46.82 56.34 47.16 57.64 47.51 59.06 47.86 57.41 48.2 55.98 48.55 55.87 48.89 55.27 49.24 55.87 49.59 52.9 49.93 51.24 50.28 51.36 50.62 51.95 50.97 48.64 51.31 46.27 51.66 44.96 52.01 44.37 52.35 44.61 52.7 46.15 53.04 46.03 53.39 45.44 53.73 45.44 54.08 44.96 54.43 45.2 54.77 47.33 55.12 47.21 55.46 47.1 55.81 47.21 56.16 45.44 56.5 46.98 56.85 48.99 57.19 48.99 57.54 46.98 57.88 46.86 58.23 47.33 58.58 49.47 58.92 47.69 59.27 49.23 59.61 48.64 59.96 51.36 60.3 51.48 60.65 54.21 61 55.04 61.34 53.73 61.69 56.46 62.03 58.12 62.38 58.47 62.73 59.06 63.07 56.22 63.42 57.76 63.76 59.06 64.11 60.37 64.45 56.93 64.8 58.83 65.15 56.46 65.49 56.46 65.84 56.1 66.18 56.22 66.53 55.98 66.87 55.63 67.22 55.98 67.57 54.32 67.91 56.22 68.26 57.88 68.6 58.12 68.95 56.34 69.3 54.21 69.64 54.56 69.99 56.34 70.33 55.27 70.68 54.68 71.02 53.97 71.37 53.5 71.72 55.04 72.06 55.27 72.41 53.97 72.75 52.67 73.1 51.72 73.44 53.14 73.79 52.9 74.14 52.19 74.48 54.56 74.83 54.32 75.17 53.73 75.52 54.92 75.87 58.83 76.21 59.54 76.56 59.18 76.9 59.06 77.25 58.83 77.59 54.92 77.94 53.5 78.29 53.02 78.63 52.67 78.98 52.07 79.32 51.6 79.67 53.73 80.01 53.73 80.36 52.19 80.71 55.27 81.05 56.93 81.4 58.47 81.74 57.29 82.09 56.22 82.44 56.81 82.78 52.55 83.13 53.61 83.47 53.5 83.82 51.6 84.16 49.35 84.51 49.11 84.86 47.45 85.2 48.76 85.55 48.04 85.89 49.23 86.24 51.36 86.58 50.18 86.93 53.14 87.28 53.5 87.62 53.73 87.97 57.41 88.31 58.71 88.66 58.12 89.01 57.76 89.35 59.42 89.7 60.01 90.04 57.17 90.39 60.96 90.73 60.49 91.08 60.37 91.43 62.15 91.77 60.84 92.12 61.55 92.46 62.38 92.81 62.62 93.15 63.81 93.5 63.81 93.85 64.4 94.19 60.72 94.54 62.38 94.88 63.69 95.23 62.86 95.58 60.84 95.92 63.92 96.27 63.33 96.61 60.84 96.96 62.5 97.3 62.74 97.65 62.15 98 61.79 98.34 62.86 98.69 62.98 99.03 63.09 99.38 66.06 99.72 67.24 100.07 67.6 100.42 68.19 100.76 69.73 101.11 70.32 101.45 70.09 101.8 72.69 102.15 74 102.49 76.37 102.84 74.83 103.18 77.31 103.53 74.23 103.87 74.83 104.22 76.6 104.57 75.89 104.91 75.3 105.26 74.47 105.6 75.18 105.95 76.96 106.29 77.2 106.64 78.86 106.99 78.14 107.33 80.87 107.68 80.75 108.02 82.41 108.37 83.36 108.72 84.42 109.06 84.54 109.41 84.78 109.75 84.78 110.1 88.1 110.44 90.35 110.79 92.25 111.14 91.77 111.48 89.76 111.83 94.38 112.17 97.93 112.52 97.58 112.86 99.59 113.21 100.19 113.56 98.17 113.9 98.65 114.25 97.58 114.59 98.41 114.94 96.99 115.29 94.85 115.63 94.14 115.98 92.6 116.32 94.97 116.67 94.14 117.01 94.62 117.36 92.96 117.71 91.53 118.05 91.89 118.4 88.34 118.74 89.28 119.09 88.34 119.43 85.73 119.78 89.64 120.13 88.69 120.47 87.39 120.82 86.08 121.16 87.74 121.51 88.81 121.86 87.39 122.2 87.27 122.55 89.28 122.89 89.16 123.24 85.14 123.58 85.14 123.93 85.25 124.28 84.54 124.62 85.49 124.97 83.6 125.31 81.82 125.66 80.4 126 78.14 126.35 80.87 126.7 80.4 127.04 76.6 127.39 76.6 127.73 77.43 128.08 77.2 128.43 77.31 128.77 77.67 129.12 75.89 129.46 80.16 129.81 80.28 130.15 80.16 130.5 83.24 130.85 81.34 131.19 81.23 131.54 83 131.88 83.48 132.23 82.65 132.57 82.65 132.92 84.66 133.27 83.83 133.61 83.95 133.96 84.66 134.3 83 134.65 84.31 135 84.31 135.34 85.02 135.69 82.65 136.03 80.99 136.38 80.75 136.72 80.99 137.07 81.23 137.42 79.09 137.76 80.16 138.11 78.38 138.45 78.26 138.8 77.31 139.14 76.96 139.49 80.28 139.84 82.29 140.18 83.24 140.53 80.63 140.87 81.34 141.22 84.78 141.57 85.37 141.91 85.73 142.26 83.83 142.6 82.41 142.95 81.46 143.29 80.63 143.64 80.75 143.99 80.75 144.33 82.41 144.68 83.24 145.02 85.37 145.37 84.07 145.71 83.36 146.06 83.95 146.41 83 146.75 81.11 147.1 79.09 147.44 78.5 147.79 75.3 148.14 76.13 148.48 77.2 148.83 79.21 149.17 80.4 149.52 83.6 149.86 80.4 150.21 76.72 150.56 74.11 150.9 75.54 151.25 78.14 151.59 76.25 151.94 72.81 152.28 75.06 152.63 74.83 152.98 75.18 153.32 75.54 153.67 77.08 154.01 80.04 154.36 80.99 154.71 78.26 155.05 78.5 155.4 80.28 155.74 82.77 156.09 83 156.43 82.65 156.78 82.29 157.13 79.68 157.47 79.57 157.82 76.13 158.16 73.88 158.51 74 158.85 73.88 159.2 73.29 159.55 72.81 159.89 72.34 160.24 72.1 160.58 72.81 160.93 73.17 161.28 72.22 161.62 70.68 161.97 71.86 162.31 74.71 162.66 74.35 163 75.54 163.35 78.03 163.7 79.45 164.04 79.45 164.39 75.66 164.73 74.83 165.08 75.89 165.42 74.47 165.77 75.77 166.12 76.01 166.46 77.67 166.81 75.18 167.15 78.03 167.5 78.62 167.85 77.08 168.19 77.79 168.54 74.94 168.88 75.3 169.23 73.4 169.57 74.35 169.92 75.18 170.27 74.23 170.61 68.78 170.96 65.94 171.3 66.06 171.65 65.46 171.99 67 172.34 65.35 172.69 66.65 173.03 66.65 173.38 66.06 173.72 67.24 174.07 65.82 174.42 61.55 174.76 61.2 175.11 58.95 175.45 58.59 175.8 59.06 176.14 58.95 176.49 57.76 176.84 57.52 177.18 56.1 177.53 58.59 177.87 59.78 178.22 58.71 178.56 62.15 178.91 57.17 179.26 62.74 179.6 60.72 179.95 60.72 180.29 62.5 180.64 64.04 180.99 65.11 181.33 64.99 181.68 64.16 182.02 62.98 182.37 62.26 182.71 62.5 183.06 62.86 183.41 62.74 183.75 58.95 184.1 59.3 184.44 58.71 184.79 59.89 185.13 61.91 185.48 62.38 185.83 62.5 186.17 61.67 186.52 64.16 186.86 61.32 187.21 60.01 187.56 62.5 187.9 62.98 188.25 59.89 188.59 63.09 188.94 62.74 189.28 63.33 189.63 60.61 189.98 60.72 190.32 61.44 190.67 60.25 191.01 61.91 191.36 61.55 191.7 64.99 192.05 61.91 192.4 60.37 192.74 60.84 193.09 59.42 193.43 59.66 193.78 59.42 194.13 59.06 194.47 58.71 194.82 57.05 195.16 56.46 195.51 59.78 195.85 58.59 196.2 59.42"/>
      </g>
      <g stroke-width="0.3" fill="#000000" fill-opacity="0.000" class="geometry" stroke-dasharray="none" stroke="#66C2A5" id="img-b0a9be78-11">
        <path fill="none" d="M23.65,71.86 L 24 73.4 24.34 72.93 24.69 72.57 25.03 73.29 25.38 73.29 25.73 77.43 26.07 80.28 26.42 80.16 26.76 80.75 27.11 79.8 27.45 80.63 27.8 83.71 28.15 84.9 28.49 84.07 28.84 84.31 29.18 81.82 29.53 81.23 29.88 81.23 30.22 84.31 30.57 80.75 30.91 80.51 31.26 81.46 31.6 83 31.95 83 32.3 81.34 32.64 82.29 32.99 82.65 33.33 82.53 33.68 81.23 34.02 79.33 34.37 80.75 34.72 79.92 35.06 83.48 35.41 83.24 35.75 82.77 36.1 83.12 36.45 82.05 36.79 81.11 37.14 80.99 37.48 81.7 37.83 79.09 38.17 80.87 38.52 82.05 38.87 79.68 39.21 82.53 39.56 82.53 39.9 78.86 40.25 78.97 40.59 80.63 40.94 80.28 41.29 79.09 41.63 81.7 41.98 83.83 42.32 79.09 42.67 78.26 43.02 78.14 43.36 77.79 43.71 77.2 44.05 77.2 44.4 75.3 44.74 74.11 45.09 75.66 45.44 78.03 45.78 79.92 46.13 83.24 46.47 84.42 46.82 86.44 47.16 86.68 47.51 90.82 47.86 92.48 48.2 92.25 48.55 92.25 48.89 91.89 49.24 89.64 49.59 89.88 49.93 86.68 50.28 85.37 50.62 86.79 50.97 87.86 51.31 87.86 51.66 89.52 52.01 90.35 52.35 89.52 52.7 90.47 53.04 85.37 53.39 86.44 53.73 90.59 54.08 91.06 54.43 89.88 54.77 91.42 55.12 91.65 55.46 92.6 55.81 92.13 56.16 94.38 56.5 93.55 56.85 91.65 57.19 92.01 57.54 90.59 57.88 88.69 58.23 89.05 58.58 89.28 58.92 92.25 59.27 92.72 59.61 93.79 59.96 91.77 60.3 94.14 60.65 94.97 61 96.28 61.34 97.22 61.69 95.8 62.03 93.19 62.38 93.67 62.73 92.48 63.07 93.79 63.42 93.08 63.76 91.42 64.11 93.67 64.45 90.59 64.8 89.05 65.15 89.16 65.49 85.61 65.84 87.39 66.18 88.69 66.53 87.15 66.87 87.98 67.22 83.83 67.57 85.14 67.91 85.02 68.26 84.9 68.6 86.2 68.95 86.2 69.3 86.32 69.64 85.37 69.99 85.49 70.33 84.9 70.68 83.71 71.02 82.05 71.37 80.99 71.72 80.4 72.06 80.4 72.41 80.4 72.75 82.53 73.1 81.94 73.44 81.23 73.79 81.34 74.14 77.08 74.48 77.43 74.83 79.57 75.17 81.11 75.52 79.92 75.87 80.28 76.21 77.43 76.56 78.86 76.9 77.79 77.25 76.84 77.59 75.89 77.94 75.89 78.29 77.08 78.63 75.3 78.98 72.22 79.32 72.1 79.67 71.03 80.01 72.1 80.36 69.73 80.71 68.66 81.05 70.09 81.4 69.02 81.74 70.2 82.09 71.27 82.44 72.57 82.78 73.76 83.13 72.22 83.47 77.43 83.82 75.54 84.16 76.96 84.51 74.59 84.86 74.59 85.2 72.57 85.55 72.81 85.89 72.34 86.24 70.56 86.58 70.68 86.93 68.43 87.28 69.26 87.62 70.2 87.97 70.09 88.31 71.03 88.66 70.09 89.01 71.27 89.35 69.49 89.7 68.55 90.04 65.46 90.39 65.11 90.73 65.35 91.08 65.35 91.43 64.4 91.77 65.82 92.12 66.65 92.46 65.35 92.81 66.06 93.15 64.75 93.5 63.57 93.85 63.21 94.19 63.21 94.54 60.96 94.88 57.41 95.23 60.37 95.58 59.42 95.92 61.79 96.27 63.45 96.61 61.79 96.96 60.84 97.3 63.69 97.65 63.21 98 61.79 98.34 63.09 98.69 64.63 99.03 62.98 99.38 66.89 99.72 66.06 100.07 65.94 100.42 67 100.76 66.65 101.11 68.07 101.45 67 101.8 68.66 102.15 68.31 102.49 68.43 102.84 68.43 103.18 66.77 103.53 64.63 103.87 66.29 104.22 64.63 104.57 65.82 104.91 65.46 105.26 64.63 105.6 67.36 105.95 68.31 106.29 73.4 106.64 71.51 106.99 75.54 107.33 75.06 107.68 74.71 108.02 76.84 108.37 72.69 108.72 70.44 109.06 68.19 109.41 69.73 109.75 73.52 110.1 77.91 110.44 78.38 110.79 80.16 111.14 81.11 111.48 80.16 111.83 83 112.17 80.4 112.52 80.75 112.86 78.26 113.21 77.08 113.56 73.76 113.9 74.59 114.25 76.6 114.59 77.31 114.94 76.96 115.29 78.26 115.63 76.84 115.98 76.72 116.32 75.54 116.67 75.3 117.01 74.71 117.36 75.42 117.71 74 118.05 74.71 118.4 75.18 118.74 75.54 119.09 76.72 119.43 76.48 119.78 77.67 120.13 77.31 120.47 76.48 120.82 77.79 121.16 78.97 121.51 82.65 121.86 81.94 122.2 80.51 122.55 78.97 122.89 78.26 123.24 78.86 123.58 79.68 123.93 83.12 124.28 84.07 124.62 83 124.97 82.29 125.31 81.7 125.66 82.29 126 84.42 126.35 82.65 126.7 84.07 127.04 81.82 127.39 83 127.73 82.41 128.08 82.53 128.43 79.68 128.77 78.74 129.12 75.89 129.46 74.11 129.81 77.31 130.15 77.2 130.5 74.35 130.85 72.81 131.19 72.93 131.54 73.29 131.88 74 132.23 74.11 132.57 75.89 132.92 77.43 133.27 77.79 133.61 79.8 133.96 78.74 134.3 79.33 134.65 76.72 135 80.51 135.34 80.75 135.69 82.41 136.03 80.63 136.38 78.97 136.72 81.46 137.07 81.94 137.42 84.54 137.76 85.73 138.11 86.2 138.45 86.56 138.8 85.85 139.14 84.54 139.49 85.25 139.84 85.37 140.18 85.85 140.53 87.62 140.87 86.79 141.22 87.86 141.57 86.79 141.91 86.56 142.26 84.31 142.6 83.36 142.95 82.41 143.29 85.61 143.64 84.19 143.99 86.2 144.33 85.25 144.68 85.97 145.02 86.2 145.37 85.73 145.71 83.71 146.06 87.39 146.41 85.73 146.75 83.71 147.1 79.92 147.44 81.58 147.79 78.86 148.14 78.74 148.48 78.74 148.83 78.38 149.17 80.51 149.52 79.45 149.86 78.97 150.21 79.21 150.56 77.91 150.9 74.94 151.25 73.4 151.59 69.37 151.94 70.09 152.28 67.48 152.63 65.7 152.98 66.53 153.32 66.18 153.67 68.66 154.01 70.8 154.36 71.74 154.71 72.69 155.05 73.17 155.4 76.37 155.74 71.86 156.09 69.97 156.43 68.07 156.78 66.53 157.13 64.52 157.47 63.81 157.82 62.38 158.16 60.61 158.51 60.37 158.85 60.25 159.2 59.66 159.55 59.66 159.89 58 160.24 58.35 160.58 56.58 160.93 57.88 161.28 58.12 161.62 59.54 161.97 58.83 162.31 59.54 162.66 59.78 163 62.62 163.35 62.03 163.7 66.29 164.04 64.87 164.39 64.75 164.73 66.53 165.08 68.66 165.42 65.35 165.77 64.04 166.12 63.33 166.46 62.74 166.81 64.63 167.15 63.69 167.5 62.5 167.85 59.06 168.19 57.05 168.54 58.59 168.88 57.29 169.23 55.75 169.57 57.64 169.92 57.88 170.27 58.12 170.61 58.24 170.96 56.58 171.3 60.01 171.65 59.42 171.99 56.1 172.34 56.58 172.69 57.41 173.03 54.32 173.38 52.9 173.72 55.63 174.07 56.22 174.42 55.39 174.76 59.18 175.11 57.88 175.45 58.47 175.8 62.5 176.14 64.04 176.49 64.16 176.84 64.63 177.18 64.4 177.53 60.01 177.87 58.35 178.22 58.24 178.56 58.12 178.91 56.58 179.26 56.46 179.6 56.46 179.95 56.1 180.29 54.68 180.64 52.67 180.99 50.41 181.33 50.18 181.68 49.58 182.02 48.64 182.37 49.11 182.71 47.81 183.06 47.69 183.41 47.93 183.75 46.86 184.1 45.32 184.44 42.83 184.79 46.39 185.13 42.12 185.48 42.36 185.83 41.41 186.17 40.93 186.52 39.87 186.86 39.63 187.21 39.63 187.56 40.82 187.9 41.88 188.25 42.83 188.59 44.37 188.94 43.9 189.28 45.79 189.63 44.37 189.98 44.61 190.32 46.03 190.67 47.1 191.01 46.62 191.36 46.86 191.7 47.45 192.05 45.56 192.4 44.49 192.74 45.79 193.09 47.81 193.43 46.15 193.78 49.35 194.13 50.18 194.47 50.3 194.82 52.43 195.16 55.15 195.51 53.73 195.85 55.15 196.2 55.27"/>
      </g>
      <g stroke-width="0.3" fill="#000000" fill-opacity="0.000" class="geometry" stroke-dasharray="none" stroke="#ABDDA4" id="img-b0a9be78-12">
        <path fill="none" d="M23.65,71.86 L 24 70.44 24.34 67.36 24.69 67.12 25.03 68.43 25.38 69.85 25.73 68.78 26.07 67.48 26.42 69.49 26.76 68.78 27.11 67.83 27.45 69.73 27.8 67.48 28.15 67.72 28.49 67.6 28.84 67.95 29.18 67.72 29.53 71.74 29.88 72.81 30.22 72.46 30.57 69.14 30.91 67.36 31.26 65.94 31.6 66.18 31.95 64.4 32.3 64.04 32.64 65.7 32.99 63.92 33.33 61.2 33.68 59.18 34.02 57.52 34.37 53.61 34.72 54.44 35.06 55.75 35.41 56.93 35.75 58.95 36.1 56.58 36.45 59.06 36.79 58.95 37.14 60.37 37.48 58.35 37.83 56.81 38.17 60.49 38.52 58.59 38.87 55.39 39.21 54.92 39.56 57.17 39.9 56.93 40.25 58.35 40.59 57.52 40.94 59.66 41.29 59.06 41.63 59.06 41.98 58.71 42.32 60.13 42.67 58.83 43.02 58.12 43.36 57.41 43.71 57.64 44.05 56.46 44.4 56.22 44.74 55.98 45.09 55.27 45.44 53.85 45.78 53.14 46.13 54.32 46.47 54.8 46.82 55.04 47.16 55.75 47.51 58.24 47.86 58.59 48.2 60.01 48.55 63.33 48.89 62.62 49.24 62.03 49.59 60.96 49.93 58.35 50.28 60.13 50.62 58.95 50.97 60.96 51.31 59.3 51.66 59.66 52.01 60.96 52.35 62.15 52.7 63.69 53.04 60.37 53.39 63.57 53.73 64.52 54.08 64.16 54.43 62.38 54.77 66.29 55.12 64.75 55.46 61.44 55.81 59.89 56.16 60.37 56.5 60.61 56.85 62.74 57.19 59.54 57.54 59.3 57.88 60.72 58.23 56.58 58.58 58.95 58.92 61.44 59.27 59.06 59.61 58.83 59.96 58.24 60.3 58.47 60.65 61.55 61 62.5 61.34 63.33 61.69 66.18 62.03 67.72 62.38 67.12 62.73 66.89 63.07 67.36 63.42 69.26 63.76 68.78 64.11 67 64.45 66.06 64.8 67 65.15 66.29 65.49 63.69 65.84 62.15 66.18 66.18 66.53 62.98 66.87 62.38 67.22 66.06 67.57 66.06 67.91 65.46 68.26 62.15 68.6 61.91 68.95 61.08 69.3 61.55 69.64 58.71 69.99 56.58 70.33 56.58 70.68 56.93 71.02 58.95 71.37 58.83 71.72 55.87 72.06 53.85 72.41 53.5 72.75 55.51 73.1 55.75 73.44 56.69 73.79 53.73 74.14 54.68 74.48 55.98 74.83 52.55 75.17 52.19 75.52 53.02 75.87 51.72 76.21 49.94 76.56 51.01 76.9 53.14 77.25 52.78 77.59 50.53 77.94 50.3 78.29 50.3 78.63 50.65 78.98 50.18 79.32 50.89 79.67 54.92 80.01 54.56 80.36 50.89 80.71 49.7 81.05 47.1 81.4 46.15 81.74 44.73 82.09 47.21 82.44 46.62 82.78 46.15 83.13 48.04 83.47 47.57 83.82 47.33 84.16 47.21 84.51 45.79 84.86 45.08 85.2 46.74 85.55 45.67 85.89 47.93 86.24 47.93 86.58 44.49 86.93 44.61 87.28 44.49 87.62 42.71 87.97 40.93 88.31 43.66 88.66 41.88 89.01 42.47 89.35 38.68 89.7 37.5 90.04 37.38 90.39 38.45 90.73 40.34 91.08 41.41 91.43 42.71 91.77 45.08 92.12 44.37 92.46 43.54 92.81 46.27 93.15 46.5 93.5 46.27 93.85 46.74 94.19 46.39 94.54 46.74 94.88 49.47 95.23 49.47 95.58 46.98 95.92 50.3 96.27 51.95 96.61 51.95 96.96 50.89 97.3 51.36 97.65 52.9 98 54.21 98.34 53.26 98.69 56.34 99.03 59.18 99.38 57.05 99.72 56.1 100.07 54.92 100.42 53.38 100.76 56.1 101.11 58.12 101.45 60.96 101.8 64.75 102.15 63.09 102.49 63.33 102.84 62.38 103.18 66.18 103.53 66.77 103.87 69.85 104.22 68.07 104.57 67.72 104.91 72.46 105.26 72.34 105.6 71.51 105.95 71.27 106.29 71.63 106.64 72.81 106.99 71.86 107.33 73.64 107.68 72.46 108.02 71.15 108.37 70.44 108.72 69.02 109.06 67.36 109.41 67.6 109.75 68.66 110.1 70.56 110.44 73.29 110.79 71.27 111.14 69.02 111.48 71.27 111.83 70.44 112.17 71.03 112.52 69.37 112.86 69.37 113.21 67.36 113.56 68.78 113.9 68.19 114.25 66.65 114.59 66.29 114.94 64.99 115.29 62.26 115.63 61.08 115.98 58.59 116.32 60.25 116.67 61.32 117.01 62.26 117.36 61.2 117.71 60.37 118.05 59.78 118.4 60.37 118.74 61.32 119.09 61.79 119.43 58.59 119.78 56.93 120.13 60.37 120.47 59.06 120.82 56.93 121.16 57.17 121.51 58.59 121.86 61.32 122.2 61.44 122.55 61.79 122.89 59.06 123.24 58.83 123.58 58.47 123.93 60.72 124.28 59.42 124.62 61.08 124.97 62.5 125.31 63.57 125.66 64.99 126 62.62 126.35 60.13 126.7 60.72 127.04 60.72 127.39 64.4 127.73 62.38 128.08 65.35 128.43 64.87 128.77 65.35 129.12 68.19 129.46 70.92 129.81 69.73 130.15 66.41 130.5 65.82 130.85 68.55 131.19 67.95 131.54 66.89 131.88 68.78 132.23 69.73 132.57 66.65 132.92 64.52 133.27 62.26 133.61 66.41 133.96 65.94 134.3 65.58 134.65 65.82 135 64.63 135.34 63.09 135.69 61.44 136.03 62.03 136.38 63.45 136.72 66.53 137.07 66.29 137.42 67.24 137.76 68.19 138.11 69.26 138.45 69.73 138.8 69.49 139.14 68.43 139.49 68.19 139.84 70.2 140.18 68.9 140.53 68.55 140.87 68.66 141.22 69.61 141.57 69.37 141.91 72.34 142.26 72.93 142.6 73.76 142.95 72.22 143.29 71.63 143.64 71.98 143.99 71.86 144.33 75.3 144.68 77.31 145.02 76.84 145.37 75.89 145.71 75.54 146.06 76.25 146.41 74.23 146.75 72.69 147.1 74.71 147.44 73.05 147.79 75.3 148.14 77.55 148.48 81.34 148.83 83.95 149.17 83.36 149.52 83.24 149.86 81.7 150.21 80.75 150.56 78.97 150.9 79.68 151.25 80.04 151.59 80.99 151.94 76.25 152.28 75.3 152.63 71.98 152.98 70.2 153.32 69.02 153.67 72.34 154.01 70.09 154.36 72.57 154.71 75.06 155.05 71.27 155.4 66.89 155.74 67.83 156.09 68.43 156.43 66.06 156.78 65.58 157.13 66.53 157.47 69.14 157.82 67.95 158.16 67.48 158.51 68.78 158.85 69.73 159.2 70.44 159.55 68.78 159.89 66.65 160.24 65.94 160.58 66.06 160.93 66.65 161.28 68.31 161.62 69.49 161.97 68.78 162.31 68.43 162.66 70.68 163 74.23 163.35 76.37 163.7 78.5 164.04 72.34 164.39 72.57 164.73 72.57 165.08 69.49 165.42 71.39 165.77 72.1 166.12 74.83 166.46 74.35 166.81 75.89 167.15 74.59 167.5 78.03 167.85 78.86 168.19 82.65 168.54 81.11 168.88 82.17 169.23 80.87 169.57 81.7 169.92 76.72 170.27 79.33 170.61 75.77 170.96 75.89 171.3 77.31 171.65 77.67 171.99 74.11 172.34 73.64 172.69 72.81 173.03 69.97 173.38 70.92 173.72 71.15 174.07 70.32 174.42 73.64 174.76 73.17 175.11 72.46 175.45 72.57 175.8 73.64 176.14 77.31 176.49 76.48 176.84 72.81 177.18 74.11 177.53 73.17 177.87 73.05 178.22 73.4 178.56 75.06 178.91 77.31 179.26 77.08 179.6 79.68 179.95 81.58 180.29 81.58 180.64 82.29 180.99 80.16 181.33 80.04 181.68 82.88 182.02 81.94 182.37 83.95 182.71 80.99 183.06 80.75 183.41 78.14 183.75 74.47 184.1 77.08 184.44 79.57 184.79 81.58 185.13 82.17 185.48 83 185.83 82.77 186.17 82.17 186.52 82.05 186.86 81.23 187.21 82.77 187.56 86.2 187.9 86.32 188.25 86.2 188.59 85.97 188.94 84.54 189.28 83.12 189.63 82.77 189.98 83.48 190.32 83.12 190.67 83.95 191.01 82.05 191.36 80.99 191.7 81.23 192.05 76.6 192.4 75.89 192.74 74.71 193.09 72.69 193.43 72.93 193.78 77.55 194.13 77.55 194.47 77.79 194.82 76.96 195.16 74 195.51 74.23 195.85 76.13 196.2 78.74"/>
      </g>
      <g stroke-width="0.3" fill="#000000" fill-opacity="0.000" class="geometry" stroke-dasharray="none" stroke="#E6F598" id="img-b0a9be78-13">
        <path fill="none" d="M23.65,71.86 L 24 71.98 24.34 72.1 24.69 72.22 25.03 73.05 25.38 74 25.73 75.3 26.07 76.37 26.42 77.55 26.76 79.57 27.11 77.2 27.45 80.63 27.8 80.99 28.15 82.29 28.49 85.49 28.84 85.49 29.18 86.2 29.53 85.61 29.88 85.85 30.22 85.02 30.57 84.78 30.91 87.39 31.26 88.57 31.6 85.25 31.95 84.78 32.3 83.36 32.64 83.36 32.99 83 33.33 85.25 33.68 85.61 34.02 84.66 34.37 83.95 34.72 81.7 35.06 80.16 35.41 84.78 35.75 88.22 36.1 87.62 36.45 88.34 36.79 88.57 37.14 86.91 37.48 87.27 37.83 91.77 38.17 91.89 38.52 91.42 38.87 91.3 39.21 94.02 39.56 91.3 39.9 91.77 40.25 91.65 40.59 92.6 40.94 95.45 41.29 94.73 41.63 95.56 41.98 93.79 42.32 92.96 42.67 93.79 43.02 92.48 43.36 91.18 43.71 91.3 44.05 90.71 44.4 94.62 44.74 96.16 45.09 95.68 45.44 93.43 45.78 94.97 46.13 95.21 46.47 97.46 46.82 100.07 47.16 99.95 47.51 99.83 47.86 100.19 48.2 101.61 48.55 102.79 48.89 102.44 49.24 100.54 49.59 100.66 49.93 101.96 50.28 101.25 50.62 102.2 50.97 104.1 51.31 104.93 51.66 104.57 52.01 105.4 52.35 103.86 52.7 105.28 53.04 104.21 53.39 103.5 53.73 101.49 54.08 102.32 54.43 102.79 54.77 104.69 55.12 103.27 55.46 102.44 55.81 105.4 56.16 104.69 56.5 104.93 56.85 106.58 57.19 108.36 57.54 108.01 57.88 108.01 58.23 106.58 58.58 104.81 58.92 105.87 59.27 103.74 59.61 99.71 59.96 99.95 60.3 101.37 60.65 102.32 61 102.44 61.34 101.37 61.69 98.41 62.03 95.68 62.38 95.56 62.73 94.97 63.07 97.93 63.42 100.78 63.76 101.25 64.11 101.73 64.45 101.13 64.8 100.07 65.15 101.84 65.49 103.86 65.84 106.11 66.18 103.39 66.53 103.15 66.87 105.04 67.22 105.64 67.57 103.15 67.91 103.15 68.26 101.13 68.6 101.84 68.95 101.49 69.3 101.73 69.64 102.67 69.99 102.67 70.33 102.32 70.68 103.86 71.02 102.56 71.37 100.07 71.72 98.65 72.06 97.46 72.41 97.58 72.75 96.16 73.1 95.68 73.44 93.08 73.79 92.96 74.14 91.53 74.48 91.53 74.83 89.76 75.17 89.52 75.52 88.69 75.87 89.52 76.21 86.56 76.56 82.29 76.9 82.41 77.25 81.82 77.59 82.53 77.94 84.42 78.29 84.07 78.63 83.83 78.98 83.71 79.32 85.02 79.67 84.54 80.01 85.14 80.36 83 80.71 82.29 81.05 82.53 81.4 79.8 81.74 78.97 82.09 79.68 82.44 79.57 82.78 79.8 83.13 82.77 83.47 84.66 83.82 82.65 84.16 82.53 84.51 81.94 84.86 83.12 85.2 84.07 85.55 87.74 85.89 86.56 86.24 87.74 86.58 87.03 86.93 87.74 87.28 88.93 87.62 89.64 87.97 88.22 88.31 87.51 88.66 83.95 89.01 82.29 89.35 81.23 89.7 83.36 90.04 83.36 90.39 85.61 90.73 83.48 91.08 83.24 91.43 83.71 91.77 84.42 92.12 84.42 92.46 81.23 92.81 82.29 93.15 82.53 93.5 83.71 93.85 82.53 94.19 84.19 94.54 82.88 94.88 83.48 95.23 81.82 95.58 80.75 95.92 79.57 96.27 75.77 96.61 75.18 96.96 72.81 97.3 74.71 97.65 74.23 98 74.35 98.34 76.84 98.69 78.5 99.03 75.3 99.38 74.71 99.72 70.09 100.07 71.86 100.42 75.54 100.76 76.25 101.11 77.91 101.45 79.68 101.8 85.61 102.15 84.42 102.49 84.54 102.84 84.9 103.18 87.51 103.53 86.44 103.87 88.93 104.22 86.91 104.57 82.65 104.91 83 105.26 85.61 105.6 84.66 105.95 86.32 106.29 87.98 106.64 89.05 106.99 91.18 107.33 92.48 107.68 93.31 108.02 93.79 108.37 97.58 108.72 99.83 109.06 101.84 109.41 102.44 109.75 102.67 110.1 104.45 110.44 104.21 110.79 105.4 111.14 101.61 111.48 103.27 111.83 102.67 112.17 103.03 112.52 102.08 112.86 104.93 113.21 105.52 113.56 105.4 113.9 104.33 114.25 105.87 114.59 107.53 114.94 110.02 115.29 108.24 115.63 105.52 115.98 103.62 116.32 105.76 116.67 105.4 117.01 102.44 117.36 103.27 117.71 104.33 118.05 104.21 118.4 102.08 118.74 100.07 119.09 101.96 119.43 102.91 119.78 103.03 120.13 103.62 120.47 98.76 120.82 99.12 121.16 97.7 121.51 100.66 121.86 102.67 122.2 100.3 122.55 100.54 122.89 99.71 123.24 99.47 123.58 100.19 123.93 99.95 124.28 98.65 124.62 97.46 124.97 99.47 125.31 100.19 125.66 99.59 126 99.47 126.35 100.78 126.7 101.84 127.04 102.08 127.39 102.91 127.73 103.62 128.08 104.33 128.43 102.91 128.77 100.78 129.12 98.88 129.46 98.88 129.81 102.08 130.15 102.67 130.5 99.83 130.85 102.91 131.19 102.56 131.54 102.08 131.88 99.59 132.23 99.95 132.57 98.88 132.92 102.56 133.27 101.61 133.61 101.37 133.96 101.49 134.3 101.61 134.65 103.39 135 105.99 135.34 104.69 135.69 104.45 136.03 103.15 136.38 101.49 136.72 101.49 137.07 100.19 137.42 99.47 137.76 99.95 138.11 100.54 138.45 101.73 138.8 104.1 139.14 101.73 139.49 97.93 139.84 96.63 140.18 95.45 140.53 96.16 140.87 96.99 141.22 99.24 141.57 99.47 141.91 102.08 142.26 100.07 142.6 102.32 142.95 99.47 143.29 96.39 143.64 94.26 143.99 96.16 144.33 95.68 144.68 96.16 145.02 97.34 145.37 97.22 145.71 93.55 146.06 91.06 146.41 90.59 146.75 92.25 147.1 90.35 147.44 90.35 147.79 92.6 148.14 91.18 148.48 92.96 148.83 95.21 149.17 94.14 149.52 94.14 149.86 93.43 150.21 92.96 150.56 92.36 150.9 89.4 151.25 90.11 151.59 90.59 151.94 90.59 152.28 90.94 152.63 91.53 152.98 92.6 153.32 90.82 153.67 90.82 154.01 90.47 154.36 91.53 154.71 91.06 155.05 92.25 155.4 89.52 155.74 86.32 156.09 83.95 156.43 83.12 156.78 83.6 157.13 82.53 157.47 84.66 157.82 86.32 158.16 81.23 158.51 84.66 158.85 82.77 159.2 84.42 159.55 85.02 159.89 86.56 160.24 85.49 160.58 88.93 160.93 87.03 161.28 85.14 161.62 84.78 161.97 84.31 162.31 81.82 162.66 79.33 163 78.03 163.35 77.91 163.7 78.14 164.04 77.55 164.39 77.79 164.73 78.03 165.08 77.67 165.42 77.67 165.77 77.91 166.12 77.91 166.46 78.38 166.81 78.86 167.15 81.46 167.5 82.65 167.85 84.66 168.19 84.78 168.54 85.49 168.88 87.39 169.23 84.07 169.57 83.36 169.92 85.61 170.27 86.79 170.61 83.71 170.96 85.37 171.3 82.88 171.65 83.24 171.99 81.23 172.34 80.63 172.69 79.92 173.03 76.96 173.38 75.66 173.72 75.06 174.07 72.46 174.42 70.32 174.76 72.46 175.11 73.17 175.45 73.52 175.8 73.52 176.14 72.46 176.49 73.88 176.84 75.42 177.18 71.63 177.53 71.86 177.87 71.86 178.22 73.52 178.56 74.83 178.91 74.94 179.26 73.05 179.6 71.15 179.95 74.83 180.29 74.35 180.64 73.76 180.99 74.23 181.33 68.9 181.68 68.43 182.02 68.19 182.37 70.2 182.71 69.14 183.06 68.9 183.41 71.03 183.75 72.34 184.1 74 184.44 75.18 184.79 74.23 185.13 73.88 185.48 72.57 185.83 72.34 186.17 74 186.52 75.54 186.86 74.23 187.21 74.47 187.56 76.25 187.9 74.35 188.25 74.83 188.59 75.06 188.94 73.88 189.28 73.29 189.63 74.94 189.98 77.2 190.32 77.79 190.67 79.21 191.01 77.67 191.36 81.23 191.7 81.82 192.05 81.7 192.4 79.8 192.74 79.33 193.09 81.7 193.43 82.29 193.78 78.97 194.13 81.82 194.47 79.33 194.82 79.21 195.16 78.38 195.51 77.67 195.85 75.66 196.2 75.18"/>
      </g>
      <g stroke-width="0.3" fill="#000000" fill-opacity="0.000" class="geometry" stroke-dasharray="none" stroke="#FFFFBF" id="img-b0a9be78-14">
        <path fill="none" d="M23.65,71.86 L 24 72.46 24.34 73.64 24.69 76.01 25.03 75.42 25.38 73.64 25.73 72.22 26.07 75.77 26.42 75.54 26.76 75.77 27.11 77.2 27.45 73.64 27.8 71.51 28.15 71.51 28.49 70.8 28.84 69.02 29.18 69.37 29.53 66.65 29.88 66.65 30.22 64.4 30.57 65.94 30.91 64.99 31.26 64.28 31.6 64.52 31.95 64.28 32.3 64.87 32.64 64.75 32.99 66.77 33.33 67.12 33.68 68.66 34.02 69.73 34.37 70.92 34.72 69.26 35.06 67 35.41 64.16 35.75 64.52 36.1 62.5 36.45 62.98 36.79 65.11 37.14 66.06 37.48 67 37.83 70.44 38.17 72.46 38.52 67.36 38.87 66.29 39.21 68.19 39.56 65.11 39.9 64.63 40.25 63.21 40.59 62.38 40.94 62.03 41.29 61.55 41.63 65.82 41.98 64.87 42.32 66.89 42.67 68.31 43.02 63.92 43.36 59.42 43.71 63.81 44.05 65.58 44.4 67.6 44.74 69.85 45.09 70.09 45.44 72.46 45.78 72.22 46.13 72.69 46.47 70.56 46.82 67 47.16 67 47.51 68.19 47.86 64.75 48.2 64.28 48.55 65.58 48.89 65.46 49.24 63.57 49.59 64.63 49.93 66.89 50.28 65.94 50.62 67.36 50.97 68.9 51.31 71.51 51.66 69.49 52.01 69.85 52.35 67.83 52.7 66.41 53.04 66.89 53.39 65.11 53.73 62.74 54.08 63.09 54.43 66.06 54.77 65.94 55.12 69.14 55.46 67.72 55.81 65.94 56.16 65.11 56.5 66.77 56.85 65.94 57.19 67.36 57.54 66.41 57.88 70.56 58.23 72.57 58.58 72.34 58.92 73.4 59.27 74.94 59.61 74.23 59.96 73.29 60.3 71.86 60.65 73.64 61 71.51 61.34 72.22 61.69 73.88 62.03 72.81 62.38 70.56 62.73 69.26 63.07 66.06 63.42 66.53 63.76 67.72 64.11 66.18 64.45 65.23 64.8 65.11 65.15 63.45 65.49 64.99 65.84 65.46 66.18 63.45 66.53 61.32 66.87 63.81 67.22 63.92 67.57 64.52 67.91 60.13 68.26 57.29 68.6 55.27 68.95 56.58 69.3 55.15 69.64 54.32 69.99 54.56 70.33 54.68 70.68 54.21 71.02 55.63 71.37 52.67 71.72 54.44 72.06 54.44 72.41 58 72.75 56.22 73.1 56.46 73.44 56.93 73.79 57.64 74.14 56.69 74.48 57.29 74.83 55.51 75.17 53.26 75.52 51.72 75.87 52.67 76.21 53.73 76.56 53.26 76.9 54.09 77.25 53.02 77.59 54.92 77.94 54.32 78.29 54.09 78.63 52.43 78.98 52.07 79.32 51.24 79.67 47.81 80.01 50.3 80.36 49.23 80.71 48.64 81.05 49.94 81.4 49.94 81.74 49.82 82.09 50.3 82.44 49.94 82.78 48.4 83.13 47.57 83.47 48.4 83.82 49.35 84.16 49.47 84.51 53.26 84.86 54.8 85.2 52.07 85.55 53.02 85.89 51.95 86.24 51.48 86.58 53.61 86.93 53.5 87.28 55.63 87.62 52.78 87.97 53.26 88.31 53.38 88.66 54.68 89.01 51.72 89.35 51.6 89.7 53.38 90.04 51.72 90.39 50.53 90.73 50.41 91.08 48.4 91.43 50.65 91.77 49.47 92.12 46.74 92.46 47.21 92.81 46.86 93.15 44.37 93.5 44.73 93.85 43.54 94.19 42 94.54 42.95 94.88 42.36 95.23 41.76 95.58 41.76 95.92 42.36 96.27 39.63 96.61 39.75 96.96 37.73 97.3 38.09 97.65 38.56 98 36.08 98.34 35.48 98.69 34.42 99.03 33.59 99.38 31.93 99.72 32.05 100.07 33.94 100.42 35.25 100.76 34.3 101.11 31.45 101.45 31.57 101.8 30.51 102.15 29.32 102.49 27.66 102.84 26.36 103.18 26.36 103.53 27.42 103.87 29.79 104.22 31.34 104.57 31.69 104.91 31.34 105.26 28.61 105.6 28.25 105.95 28.25 106.29 30.39 106.64 30.74 106.99 29.32 107.33 26.95 107.68 28.25 108.02 27.42 108.37 27.9 108.72 28.37 109.06 27.9 109.41 27.07 109.75 29.56 110.1 30.62 110.44 30.51 110.79 29.32 111.14 27.66 111.48 28.25 111.83 28.61 112.17 28.14 112.52 28.37 112.86 27.78 113.21 27.54 113.56 26.95 113.9 27.66 114.25 30.15 114.59 32.4 114.94 32.4 115.29 30.03 115.63 29.56 115.98 29.08 116.32 28.25 116.67 25.17 117.01 26.6 117.36 27.19 117.71 26.71 118.05 28.37 118.4 28.49 118.74 27.19 119.09 26.95 119.43 28.97 119.78 27.78 120.13 27.78 120.47 26.48 120.82 26.95 121.16 27.9 121.51 28.85 121.86 27.42 122.2 28.37 122.55 29.56 122.89 29.32 123.24 30.74 123.58 32.64 123.93 33.11 124.28 30.98 124.62 30.03 124.97 31.45 125.31 31.22 125.66 32.76 126 34.18 126.35 34.06 126.7 33.35 127.04 35.36 127.39 35.96 127.73 35.25 128.08 36.08 128.43 36.79 128.77 35.13 129.12 36.67 129.46 38.45 129.81 37.02 130.15 37.5 130.5 38.56 130.85 36.9 131.19 35.48 131.54 35.13 131.88 33.59 132.23 32.28 132.57 30.27 132.92 31.57 133.27 28.97 133.61 31.1 133.96 30.86 134.3 30.15 134.65 29.91 135 31.45 135.34 33.82 135.69 32.4 136.03 29.68 136.38 29.2 136.72 26.83 137.07 25.65 137.42 26.36 137.76 26 138.11 25.53 138.45 25.53 138.8 27.31 139.14 28.85 139.49 26.95 139.84 25.29 140.18 25.41 140.53 26.71 140.87 24.7 141.22 24.34 141.57 26.71 141.91 26.83 142.26 28.25 142.6 28.37 142.95 28.02 143.29 29.2 143.64 28.02 143.99 25.53 144.33 25.41 144.68 26.36 145.02 26.36 145.37 23.51 145.71 23.28 146.06 23.04 146.41 23.99 146.75 22.8 147.1 21.97 147.44 22.21 147.79 20.91 148.14 21.03 148.48 22.33 148.83 22.68 149.17 21.14 149.52 21.74 149.86 21.03 150.21 19.37 150.56 19.13 150.9 19.01 151.25 18.54 151.59 17 151.94 16.4 152.28 14.74 152.63 14.51 152.98 15.1 153.32 15.34 153.67 16.05 154.01 16.17 154.36 16.29 154.71 17 155.05 17.94 155.4 17.94 155.74 18.89 156.09 20.2 156.43 20.43 156.78 19.25 157.13 19.13 157.47 18.66 157.82 18.42 158.16 18.18 158.51 17.59 158.85 17.71 159.2 19.37 159.55 20.55 159.89 20.79 160.24 19.96 160.58 18.66 160.93 18.3 161.28 17.59 161.62 17.71 161.97 17.59 162.31 18.89 162.66 19.6 163 19.84 163.35 19.72 163.7 19.48 164.04 20.08 164.39 20.67 164.73 19.96 165.08 20.2 165.42 22.09 165.77 22.8 166.12 21.97 166.46 19.84 166.81 19.96 167.15 21.38 167.5 21.74 167.85 21.85 168.19 23.75 168.54 24.34 168.88 25.17 169.23 23.28 169.57 24.34 169.92 26.6 170.27 26.6 170.61 25.77 170.96 25.53 171.3 25.53 171.65 25.88 171.99 27.07 172.34 28.14 172.69 29.56 173.03 30.03 173.38 33.23 173.72 31.81 174.07 30.39 174.42 29.79 174.76 30.51 175.11 30.51 175.45 28.49 175.8 27.9 176.14 30.74 176.49 31.22 176.84 31.81 177.18 32.99 177.53 31.81 177.87 29.08 178.22 28.25 178.56 28.73 178.91 27.42 179.26 27.31 179.6 26.6 179.95 27.31 180.29 26 180.64 24.22 180.99 24.11 181.33 24.94 181.68 25.41 182.02 26.24 182.37 28.37 182.71 28.61 183.06 28.97 183.41 31.22 183.75 31.69 184.1 32.28 184.44 34.42 184.79 32.99 185.13 35.36 185.48 35.6 185.83 37.26 186.17 38.68 186.52 37.26 186.86 36.08 187.21 34.65 187.56 32.99 187.9 33.11 188.25 33.71 188.59 33.94 188.94 35.6 189.28 34.77 189.63 34.53 189.98 33.47 190.32 33.82 190.67 33.94 191.01 35.25 191.36 34.65 191.7 35.01 192.05 35.01 192.4 37.02 192.74 36.19 193.09 38.09 193.43 36.79 193.78 37.14 194.13 36.67 194.47 39.27 194.82 40.46 195.16 40.82 195.51 41.05 195.85 41.17 196.2 37.97"/>
      </g>
      <g stroke-width="0.3" fill="#000000" fill-opacity="0.000" class="geometry" stroke-dasharray="none" stroke="#FEE08B" id="img-b0a9be78-15">
        <path fill="none" d="M23.65,71.86 L 24 71.86 24.34 70.92 24.69 68.66 25.03 72.57 25.38 74.11 25.73 72.34 26.07 72.22 26.42 71.63 26.76 72.22 27.11 69.37 27.45 67.48 27.8 67.95 28.15 69.61 28.49 71.03 28.84 70.44 29.18 69.97 29.53 70.09 29.88 71.27 30.22 72.34 30.57 68.55 30.91 68.31 31.26 67.12 31.6 67.24 31.95 65.23 32.3 64.63 32.64 68.19 32.99 67.72 33.33 66.41 33.68 62.62 34.02 64.4 34.37 62.38 34.72 64.52 35.06 65.82 35.41 67.48 35.75 66.41 36.1 66.29 36.45 65.7 36.79 65.82 37.14 66.18 37.48 66.29 37.83 65.23 38.17 64.52 38.52 65.11 38.87 61.91 39.21 60.01 39.56 65.58 39.9 64.63 40.25 66.89 40.59 65.58 40.94 66.29 41.29 67.72 41.63 67.12 41.98 66.89 42.32 66.77 42.67 67.36 43.02 66.77 43.36 68.55 43.71 69.97 44.05 67.72 44.4 66.53 44.74 64.87 45.09 65.7 45.44 67.12 45.78 66.65 46.13 66.29 46.47 64.52 46.82 64.28 47.16 64.28 47.51 67.72 47.86 66.29 48.2 66.06 48.55 68.55 48.89 67.6 49.24 66.53 49.59 67.72 49.93 70.09 50.28 69.02 50.62 68.9 50.97 69.26 51.31 68.07 51.66 67.36 52.01 68.55 52.35 71.15 52.7 69.61 53.04 72.57 53.39 69.85 53.73 68.07 54.08 63.21 54.43 64.63 54.77 62.38 55.12 64.16 55.46 65.58 55.81 65.35 56.16 64.52 56.5 63.33 56.85 65.7 57.19 67.24 57.54 69.26 57.88 70.09 58.23 71.39 58.58 71.98 58.92 73.52 59.27 76.6 59.61 74.59 59.96 76.01 60.3 75.66 60.65 76.48 61 76.01 61.34 75.54 61.69 74.59 62.03 76.48 62.38 77.67 62.73 76.6 63.07 77.2 63.42 77.31 63.76 79.68 64.11 78.5 64.45 77.79 64.8 76.01 65.15 74.47 65.49 75.42 65.84 75.18 66.18 76.72 66.53 77.2 66.87 78.62 67.22 76.6 67.57 77.43 67.91 74.59 68.26 70.68 68.6 72.57 68.95 71.63 69.3 72.34 69.64 70.32 69.99 69.97 70.33 69.85 70.68 68.9 71.02 69.14 71.37 66.77 71.72 69.02 72.06 67 72.41 65.7 72.75 65.23 73.1 64.04 73.44 63.09 73.79 63.69 74.14 64.52 74.48 66.18 74.83 64.99 75.17 66.65 75.52 68.55 75.87 72.46 76.21 71.39 76.56 72.69 76.9 75.42 77.25 76.01 77.59 75.3 77.94 78.38 78.29 80.16 78.63 77.79 78.98 75.66 79.32 74.11 79.67 75.89 80.01 76.01 80.36 79.09 80.71 73.76 81.05 70.09 81.4 70.2 81.74 69.61 82.09 69.73 82.44 72.22 82.78 70.44 83.13 70.44 83.47 71.63 83.82 72.34 84.16 73.88 84.51 74.71 84.86 76.01 85.2 74.35 85.55 72.46 85.89 71.15 86.24 67.72 86.58 65.82 86.93 64.99 87.28 63.21 87.62 61.2 87.97 60.72 88.31 58.12 88.66 58.59 89.01 56.81 89.35 58.95 89.7 56.46 90.04 54.32 90.39 50.41 90.73 52.19 91.08 52.07 91.43 51.95 91.77 51.36 92.12 49.7 92.46 48.76 92.81 45.79 93.15 45.44 93.5 46.15 93.85 44.37 94.19 44.37 94.54 45.32 94.88 45.32 95.23 44.96 95.58 46.39 95.92 43.3 96.27 39.39 96.61 38.33 96.96 37.97 97.3 37.14 97.65 36.67 98 39.51 98.34 40.58 98.69 41.64 99.03 42.59 99.38 43.54 99.72 44.13 100.07 44.37 100.42 43.07 100.76 41.53 101.11 42.36 101.45 42 101.8 41.53 102.15 40.93 102.49 40.82 102.84 40.58 103.18 39.75 103.53 39.99 103.87 41.29 104.22 41.53 104.57 42.12 104.91 41.05 105.26 40.34 105.6 40.34 105.95 38.8 106.29 41.05 106.64 42.12 106.99 39.51 107.33 38.09 107.68 36.9 108.02 35.13 108.37 32.76 108.72 32.05 109.06 33.11 109.41 33.23 109.75 35.13 110.1 35.84 110.44 37.85 110.79 38.56 111.14 35.84 111.48 32.76 111.83 29.68 112.17 27.78 112.52 31.93 112.86 32.4 113.21 32.64 113.56 33.59 113.9 33.71 114.25 35.25 114.59 35.48 114.94 37.14 115.29 39.87 115.63 39.87 115.98 38.21 116.32 37.5 116.67 35.6 117.01 35.72 117.36 39.87 117.71 39.39 118.05 38.92 118.4 38.8 118.74 38.33 119.09 38.92 119.43 36.08 119.78 37.73 120.13 39.99 120.47 41.88 120.82 44.37 121.16 46.15 121.51 45.32 121.86 44.96 122.2 42.71 122.55 43.9 122.89 42.12 123.24 43.07 123.58 43.07 123.93 44.02 124.28 44.25 124.62 44.96 124.97 44.37 125.31 42.95 125.66 42.59 126 42.71 126.35 40.7 126.7 40.1 127.04 40.22 127.39 43.54 127.73 44.61 128.08 45.32 128.43 45.32 128.77 47.1 129.12 46.27 129.46 45.32 129.81 42.24 130.15 42.12 130.5 42.24 130.85 41.41 131.19 42 131.54 43.9 131.88 42.59 132.23 42.71 132.57 42.24 132.92 44.73 133.27 45.2 133.61 45.44 133.96 44.02 134.3 42.36 134.65 42.83 135 42.12 135.34 43.07 135.69 42.83 136.03 39.04 136.38 38.8 136.72 40.22 137.07 39.75 137.42 39.75 137.76 40.34 138.11 39.63 138.45 39.04 138.8 39.39 139.14 37.14 139.49 37.26 139.84 39.39 140.18 38.56 140.53 36.55 140.87 37.73 141.22 39.04 141.57 36.67 141.91 36.55 142.26 37.26 142.6 36.79 142.95 35.13 143.29 37.73 143.64 35.01 143.99 35.72 144.33 37.97 144.68 37.02 145.02 35.48 145.37 33.11 145.71 32.88 146.06 30.86 146.41 32.05 146.75 33.94 147.1 33.35 147.44 32.28 147.79 28.97 148.14 28.25 148.48 29.2 148.83 30.15 149.17 29.44 149.52 29.32 149.86 29.32 150.21 28.61 150.56 30.74 150.9 30.62 151.25 30.51 151.59 29.91 151.94 28.25 152.28 27.66 152.63 30.03 152.98 30.51 153.32 28.85 153.67 28.85 154.01 28.85 154.36 30.74 154.71 29.79 155.05 31.1 155.4 32.16 155.74 29.79 156.09 27.54 156.43 28.97 156.78 29.79 157.13 29.44 157.47 29.56 157.82 28.49 158.16 26.71 158.51 27.54 158.85 28.25 159.2 27.78 159.55 28.97 159.89 30.27 160.24 29.44 160.58 29.91 160.93 28.73 161.28 31.57 161.62 32.99 161.97 32.76 162.31 33.11 162.66 34.89 163 33.59 163.35 32.99 163.7 31.69 164.04 29.79 164.39 29.68 164.73 30.03 165.08 30.86 165.42 32.52 165.77 31.45 166.12 31.69 166.46 34.42 166.81 35.36 167.15 35.01 167.5 31.69 167.85 29.32 168.19 27.78 168.54 27.54 168.88 27.42 169.23 25.53 169.57 24.22 169.92 23.28 170.27 23.51 170.61 23.63 170.96 23.63 171.3 24.94 171.65 24.94 171.99 25.41 172.34 25.77 172.69 26.24 173.03 24.22 173.38 24.11 173.72 24.82 174.07 24.58 174.42 22.09 174.76 22.45 175.11 21.74 175.45 23.63 175.8 24.46 176.14 26.48 176.49 27.31 176.84 29.2 177.18 28.73 177.53 28.14 177.87 29.44 178.22 28.49 178.56 28.14 178.91 27.07 179.26 27.78 179.6 29.08 179.95 28.49 180.29 25.41 180.64 26.71 180.99 27.9 181.33 25.41 181.68 25.41 182.02 25.65 182.37 27.31 182.71 27.42 183.06 26.12 183.41 24.82 183.75 24.94 184.1 24.7 184.44 23.63 184.79 24.94 185.13 23.99 185.48 25.05 185.83 25.53 186.17 23.99 186.52 24.7 186.86 24.46 187.21 22.09 187.56 23.04 187.9 23.28 188.25 21.14 188.59 21.26 188.94 22.8 189.28 23.28 189.63 21.5 189.98 21.38 190.32 21.03 190.67 21.38 191.01 20.91 191.36 21.03 191.7 18.06 192.05 18.42 192.4 19.48 192.74 18.77 193.09 18.89 193.43 17.94 193.78 16.4 194.13 15.69 194.47 14.98 194.82 13.8 195.16 13.56 195.51 14.15 195.85 14.03 196.2 14.27"/>
      </g>
      <g stroke-width="0.3" fill="#000000" fill-opacity="0.000" class="geometry" stroke-dasharray="none" stroke="#FDAE61" id="img-b0a9be78-16">
        <path fill="none" d="M23.65,71.86 L 24 74.83 24.34 74.83 24.69 75.89 25.03 75.66 25.38 74.23 25.73 73.76 26.07 72.93 26.42 75.54 26.76 74 27.11 74.23 27.45 77.91 27.8 78.5 28.15 76.37 28.49 79.68 28.84 79.8 29.18 78.38 29.53 81.82 29.88 81.34 30.22 82.65 30.57 82.41 30.91 82.88 31.26 81.82 31.6 85.73 31.95 83.36 32.3 85.73 32.64 84.78 32.99 81.23 33.33 84.19 33.68 84.42 34.02 83.36 34.37 83.6 34.72 79.8 35.06 78.38 35.41 78.97 35.75 79.57 36.1 79.21 36.45 75.18 36.79 72.57 37.14 72.69 37.48 69.85 37.83 71.98 38.17 70.2 38.52 71.15 38.87 72.1 39.21 69.49 39.56 69.37 39.9 65.7 40.25 66.89 40.59 69.02 40.94 74.11 41.29 78.03 41.63 80.63 41.98 81.7 42.32 83 42.67 78.26 43.02 73.17 43.36 73.52 43.71 71.39 44.05 71.27 44.4 76.72 44.74 78.26 45.09 82.17 45.44 80.63 45.78 78.74 46.13 78.62 46.47 76.96 46.82 78.38 47.16 77.79 47.51 77.67 47.86 74.94 48.2 75.66 48.55 78.26 48.89 75.89 49.24 78.97 49.59 79.09 49.93 80.99 50.28 80.16 50.62 79.33 50.97 79.21 51.31 82.41 51.66 82.17 52.01 83.48 52.35 83.12 52.7 85.25 53.04 82.53 53.39 82.17 53.73 82.88 54.08 84.9 54.43 86.91 54.77 85.73 55.12 86.91 55.46 89.52 55.81 92.84 56.16 94.5 56.5 93.19 56.85 90.59 57.19 90.11 57.54 90.47 57.88 88.57 58.23 87.74 58.58 82.77 58.92 83.71 59.27 82.65 59.61 81.46 59.96 78.26 60.3 78.5 60.65 80.99 61 80.4 61.34 79.92 61.69 81.58 62.03 85.61 62.38 85.85 62.73 87.03 63.07 89.76 63.42 90.11 63.76 86.91 64.11 85.37 64.45 86.56 64.8 83.95 65.15 83.6 65.49 84.42 65.84 86.08 66.18 86.68 66.53 83.48 66.87 82.41 67.22 79.8 67.57 81.94 67.91 83.48 68.26 82.65 68.6 80.51 68.95 79.21 69.3 77.2 69.64 80.87 69.99 79.09 70.33 78.26 70.68 79.57 71.02 77.55 71.37 79.33 71.72 78.5 72.06 77.67 72.41 77.79 72.75 75.18 73.1 76.72 73.44 77.67 73.79 76.72 74.14 77.2 74.48 79.45 74.83 80.4 75.17 77.79 75.52 75.06 75.87 77.08 76.21 77.08 76.56 79.8 76.9 77.08 77.25 78.62 77.59 76.96 77.94 76.72 78.29 76.6 78.63 79.57 78.98 81.46 79.32 81.46 79.67 82.17 80.01 83.83 80.36 83.95 80.71 85.14 81.05 86.68 81.4 88.81 81.74 86.44 82.09 85.85 82.44 84.66 82.78 83.36 83.13 82.88 83.47 81.58 83.82 79.8 84.16 83.12 84.51 82.05 84.86 81.94 85.2 82.17 85.55 84.42 85.89 85.14 86.24 87.39 86.58 88.34 86.93 88.93 87.28 88.45 87.62 87.74 87.97 88.81 88.31 91.42 88.66 91.65 89.01 95.09 89.35 94.38 89.7 94.97 90.04 93.31 90.39 91.77 90.73 91.65 91.08 90.71 91.43 89.76 91.77 90.35 92.12 92.72 92.46 91.89 92.81 90.47 93.15 88.45 93.5 91.53 93.85 89.64 94.19 88.1 94.54 86.32 94.88 85.02 95.23 85.49 95.58 84.78 95.92 83.24 96.27 81.58 96.61 82.41 96.96 81.23 97.3 82.65 97.65 83.6 98 84.78 98.34 84.54 98.69 85.61 99.03 85.85 99.38 87.03 99.72 86.2 100.07 86.32 100.42 86.2 100.76 83.71 101.11 84.54 101.45 85.14 101.8 86.32 102.15 88.93 102.49 88.22 102.84 88.93 103.18 85.73 103.53 84.31 103.87 84.42 104.22 86.79 104.57 84.07 104.91 87.51 105.26 87.39 105.6 87.51 105.95 89.76 106.29 87.86 106.64 88.57 106.99 89.76 107.33 93.19 107.68 96.28 108.02 98.88 108.37 99.47 108.72 99.36 109.06 101.61 109.41 99.47 109.75 96.75 110.1 96.28 110.44 95.56 110.79 95.92 111.14 95.68 111.48 95.8 111.83 94.62 112.17 92.25 112.52 93.31 112.86 93.08 113.21 91.65 113.56 90.47 113.9 89.05 114.25 87.74 114.59 84.42 114.94 85.73 115.29 81.34 115.63 77.91 115.98 78.86 116.32 80.04 116.67 80.28 117.01 82.17 117.36 83.12 117.71 81.82 118.05 80.16 118.4 77.79 118.74 76.96 119.09 81.46 119.43 82.05 119.78 80.4 120.13 83.83 120.47 79.33 120.82 82.65 121.16 84.78 121.51 83.71 121.86 84.66 122.2 82.65 122.55 81.58 122.89 85.02 123.24 85.61 123.58 86.08 123.93 84.54 124.28 82.88 124.62 84.19 124.97 87.03 125.31 90.11 125.66 89.28 126 89.76 126.35 89.52 126.7 90.82 127.04 89.28 127.39 87.51 127.73 87.51 128.08 90.59 128.43 92.25 128.77 94.14 129.12 92.6 129.46 91.89 129.81 91.53 130.15 90.94 130.5 89.88 130.85 90.82 131.19 90.94 131.54 92.6 131.88 92.01 132.23 89.64 132.57 87.51 132.92 85.85 133.27 84.9 133.61 82.05 133.96 81.11 134.3 79.21 134.65 81.94 135 82.41 135.34 82.41 135.69 81.11 136.03 82.65 136.38 81.94 136.72 79.68 137.07 79.33 137.42 79.09 137.76 77.31 138.11 79.09 138.45 81.23 138.8 80.75 139.14 81.11 139.49 80.99 139.84 80.87 140.18 81.94 140.53 80.16 140.87 80.28 141.22 80.4 141.57 79.45 141.91 80.99 142.26 80.87 142.6 80.87 142.95 81.11 143.29 80.99 143.64 79.92 143.99 82.17 144.33 85.49 144.68 85.97 145.02 85.02 145.37 84.42 145.71 81.23 146.06 79.09 146.41 77.08 146.75 78.38 147.1 74.47 147.44 73.64 147.79 75.54 148.14 72.1 148.48 72.57 148.83 72.34 149.17 73.29 149.52 71.15 149.86 71.63 150.21 71.98 150.56 71.74 150.9 72.57 151.25 72.22 151.59 74.35 151.94 74.71 152.28 75.89 152.63 75.06 152.98 74.59 153.32 76.25 153.67 78.14 154.01 79.57 154.36 79.45 154.71 77.43 155.05 78.14 155.4 79.09 155.74 81.34 156.09 83.12 156.43 81.46 156.78 81.94 157.13 82.65 157.47 85.61 157.82 87.62 158.16 87.62 158.51 89.28 158.85 88.45 159.2 88.22 159.55 86.56 159.89 86.08 160.24 86.2 160.58 84.42 160.93 86.32 161.28 86.56 161.62 89.28 161.97 87.74 162.31 88.22 162.66 89.64 163 88.45 163.35 89.64 163.7 90.47 164.04 91.77 164.39 93.31 164.73 92.96 165.08 93.19 165.42 93.08 165.77 88.81 166.12 88.57 166.46 86.44 166.81 88.1 167.15 84.19 167.5 83.48 167.85 82.05 168.19 82.17 168.54 83.6 168.88 83.83 169.23 85.61 169.57 85.73 169.92 85.61 170.27 85.49 170.61 86.68 170.96 85.97 171.3 88.22 171.65 90.11 171.99 92.36 172.34 91.77 172.69 92.96 173.03 93.55 173.38 91.06 173.72 89.88 174.07 92.6 174.42 92.72 174.76 90.23 175.11 90.59 175.45 93.43 175.8 92.01 176.14 92.48 176.49 92.48 176.84 93.55 177.18 92.36 177.53 94.14 177.87 94.85 178.22 93.08 178.56 92.96 178.91 90.35 179.26 89.16 179.6 87.03 179.95 87.98 180.29 90.11 180.64 91.89 180.99 92.13 181.33 92.48 181.68 91.65 182.02 89.16 182.37 86.2 182.71 82.41 183.06 80.63 183.41 78.5 183.75 78.5 184.1 78.62 184.44 80.75 184.79 78.62 185.13 77.79 185.48 76.25 185.83 77.08 186.17 75.89 186.52 71.27 186.86 74.23 187.21 74.35 187.56 75.3 187.9 74 188.25 75.89 188.59 74.59 188.94 75.18 189.28 74.83 189.63 76.84 189.98 76.6 190.32 76.96 190.67 74.23 191.01 73.4 191.36 72.1 191.7 70.8 192.05 70.68 192.4 67.72 192.74 68.78 193.09 66.53 193.43 66.53 193.78 69.37 194.13 68.43 194.47 69.14 194.82 68.19 195.16 69.85 195.51 67.36 195.85 67.72 196.2 70.92"/>
      </g>
      <g stroke-width="0.3" fill="#000000" fill-opacity="0.000" class="geometry" stroke-dasharray="none" stroke="#F46D43" id="img-b0a9be78-17">
        <path fill="none" d="M23.65,71.86 L 24 73.29 24.34 73.17 24.69 69.14 25.03 70.92 25.38 69.85 25.73 69.37 26.07 69.73 26.42 73.76 26.76 72.22 27.11 69.49 27.45 72.81 27.8 74.23 28.15 74.11 28.49 76.01 28.84 77.31 29.18 77.08 29.53 75.89 29.88 73.52 30.22 71.39 30.57 70.56 30.91 71.74 31.26 73.29 31.6 72.34 31.95 75.3 32.3 75.18 32.64 72.46 32.99 69.14 33.33 67.24 33.68 70.32 34.02 67.6 34.37 67.24 34.72 67.48 35.06 67.48 35.41 68.31 35.75 65.23 36.1 66.65 36.45 67.72 36.79 70.09 37.14 70.92 37.48 70.32 37.83 68.43 38.17 67.83 38.52 70.09 38.87 69.02 39.21 65.7 39.56 65.94 39.9 67.6 40.25 68.31 40.59 65.46 40.94 65.35 41.29 62.86 41.63 62.38 41.98 65.11 42.32 65.46 42.67 63.69 43.02 68.07 43.36 68.9 43.71 68.9 44.05 66.29 44.4 70.68 44.74 71.98 45.09 72.22 45.44 70.2 45.78 71.74 46.13 71.27 46.47 73.76 46.82 72.69 47.16 70.56 47.51 74.94 47.86 72.1 48.2 70.8 48.55 69.02 48.89 70.2 49.24 70.32 49.59 72.1 49.93 75.18 50.28 76.48 50.62 80.04 50.97 80.04 51.31 80.51 51.66 78.97 52.01 81.23 52.35 83.12 52.7 87.74 53.04 84.66 53.39 85.97 53.73 86.68 54.08 90.11 54.43 88.1 54.77 86.2 55.12 85.49 55.46 84.31 55.81 84.07 56.16 84.66 56.5 83.83 56.85 84.42 57.19 83.36 57.54 83.95 57.88 83.95 58.23 87.74 58.58 86.2 58.92 89.16 59.27 87.15 59.61 87.62 59.96 84.66 60.3 84.42 60.65 85.25 61 84.9 61.34 83.24 61.69 83.83 62.03 80.28 62.38 77.43 62.73 73.64 63.07 74.94 63.42 75.06 63.76 78.38 64.11 76.37 64.45 72.69 64.8 73.05 65.15 72.1 65.49 69.14 65.84 69.97 66.18 70.56 66.53 72.34 66.87 72.69 67.22 72.1 67.57 73.88 67.91 74.23 68.26 76.25 68.6 76.96 68.95 78.74 69.3 79.92 69.64 81.34 69.99 83.24 70.33 85.73 70.68 85.25 71.02 83.6 71.37 82.05 71.72 83.12 72.06 83 72.41 83.95 72.75 83.12 73.1 80.63 73.44 82.17 73.79 83.24 74.14 82.29 74.48 79.21 74.83 83 75.17 82.05 75.52 82.05 75.87 80.87 76.21 81.11 76.56 76.6 76.9 76.6 77.25 74.11 77.59 73.29 77.94 72.46 78.29 71.39 78.63 73.29 78.98 74.47 79.32 77.55 79.67 79.92 80.01 80.51 80.36 78.74 80.71 75.89 81.05 76.13 81.4 76.01 81.74 74.59 82.09 74.59 82.44 74.59 82.78 73.64 83.13 77.67 83.47 77.55 83.82 76.01 84.16 76.96 84.51 80.87 84.86 78.62 85.2 79.8 85.55 79.68 85.89 79.33 86.24 79.33 86.58 78.74 86.93 77.79 87.28 77.2 87.62 74 87.97 71.63 88.31 73.29 88.66 76.37 89.01 76.84 89.35 76.25 89.7 74.71 90.04 74.23 90.39 74.35 90.73 76.25 91.08 79.45 91.43 79.92 91.77 79.09 92.12 77.31 92.46 75.06 92.81 73.17 93.15 73.29 93.5 71.98 93.85 70.92 94.19 70.56 94.54 68.55 94.88 71.27 95.23 71.63 95.58 70.8 95.92 67.24 96.27 67.36 96.61 71.15 96.96 70.09 97.3 70.8 97.65 73.64 98 75.77 98.34 78.03 98.69 77.43 99.03 79.92 99.38 81.58 99.72 82.65 100.07 83.48 100.42 84.19 100.76 81.34 101.11 78.74 101.45 78.74 101.8 80.75 102.15 78.86 102.49 78.03 102.84 78.26 103.18 76.48 103.53 77.55 103.87 79.68 104.22 80.63 104.57 80.63 104.91 83.6 105.26 80.4 105.6 81.34 105.95 81.82 106.29 80.87 106.64 80.04 106.99 78.5 107.33 75.42 107.68 78.38 108.02 77.08 108.37 74.47 108.72 76.01 109.06 73.88 109.41 75.06 109.75 73.64 110.1 78.26 110.44 77.55 110.79 78.26 111.14 77.43 111.48 75.54 111.83 75.42 112.17 75.42 112.52 77.08 112.86 75.3 113.21 74 113.56 73.52 113.9 71.86 114.25 68.78 114.59 71.98 114.94 73.76 115.29 73.4 115.63 74.47 115.98 74.23 116.32 74.83 116.67 72.22 117.01 71.15 117.36 72.81 117.71 75.54 118.05 73.05 118.4 73.05 118.74 74.11 119.09 69.37 119.43 72.1 119.78 69.85 120.13 70.68 120.47 67.36 120.82 67.95 121.16 68.9 121.51 67.95 121.86 67.6 122.2 69.85 122.55 70.32 122.89 68.43 123.24 69.49 123.58 70.92 123.93 70.2 124.28 68.43 124.62 67.95 124.97 66.41 125.31 67.12 125.66 66.53 126 67.48 126.35 68.9 126.7 71.74 127.04 69.02 127.39 74.23 127.73 73.76 128.08 71.39 128.43 71.51 128.77 73.76 129.12 77.91 129.46 78.62 129.81 78.38 130.15 76.37 130.5 79.33 130.85 82.05 131.19 81.34 131.54 81.82 131.88 83.24 132.23 85.02 132.57 84.66 132.92 87.74 133.27 87.86 133.61 88.93 133.96 86.68 134.3 86.2 134.65 88.1 135 92.13 135.34 90.47 135.69 90.47 136.03 90.11 136.38 92.13 136.72 92.72 137.07 94.14 137.42 92.25 137.76 91.42 138.11 88.93 138.45 88.69 138.8 87.51 139.14 88.34 139.49 88.81 139.84 88.34 140.18 87.86 140.53 91.53 140.87 92.96 141.22 94.26 141.57 95.21 141.91 93.08 142.26 91.42 142.6 90.94 142.95 88.69 143.29 87.39 143.64 83.12 143.99 81.82 144.33 80.63 144.68 81.11 145.02 79.33 145.37 77.67 145.71 76.13 146.06 75.3 146.41 77.67 146.75 81.46 147.1 80.87 147.44 85.02 147.79 84.07 148.14 80.63 148.48 84.31 148.83 84.31 149.17 84.31 149.52 83.36 149.86 85.85 150.21 86.44 150.56 89.76 150.9 91.53 151.25 91.77 151.59 90.47 151.94 89.52 152.28 91.53 152.63 94.97 152.98 95.68 153.32 93.43 153.67 92.25 154.01 94.02 154.36 92.01 154.71 89.88 155.05 91.3 155.4 90.47 155.74 90.35 156.09 93.55 156.43 90.47 156.78 89.28 157.13 87.51 157.47 87.39 157.82 86.56 158.16 87.98 158.51 88.45 158.85 88.69 159.2 90.59 159.55 88.69 159.89 88.1 160.24 87.86 160.58 86.44 160.93 86.68 161.28 87.74 161.62 87.39 161.97 90.59 162.31 90.23 162.66 88.57 163 90.11 163.35 91.89 163.7 93.08 164.04 92.36 164.39 94.73 164.73 94.14 165.08 95.68 165.42 95.68 165.77 94.02 166.12 95.68 166.46 98.41 166.81 94.97 167.15 94.5 167.5 97.46 167.85 98.29 168.19 99 168.54 99.36 168.88 98.29 169.23 97.22 169.57 94.73 169.92 96.63 170.27 96.39 170.61 96.87 170.96 96.28 171.3 93.55 171.65 93.43 171.99 95.45 172.34 97.82 172.69 97.34 173.03 98.76 173.38 98.17 173.72 97.22 174.07 95.8 174.42 95.09 174.76 97.22 175.11 93.55 175.45 91.77 175.8 90.94 176.14 90.35 176.49 90.35 176.84 87.74 177.18 84.31 177.53 85.02 177.87 83.95 178.22 86.2 178.56 87.03 178.91 86.2 179.26 82.05 179.6 78.62 179.95 77.91 180.29 78.26 180.64 78.03 180.99 76.72 181.33 77.43 181.68 76.37 182.02 77.67 182.37 75.18 182.71 76.96 183.06 74.47 183.41 77.43 183.75 75.18 184.1 79.33 184.44 77.08 184.79 79.21 185.13 80.28 185.48 81.46 185.83 80.28 186.17 79.33 186.52 81.58 186.86 77.67 187.21 78.86 187.56 80.04 187.9 79.68 188.25 80.04 188.59 79.09 188.94 80.28 189.28 78.86 189.63 77.79 189.98 78.74 190.32 76.13 190.67 75.42 191.01 77.2 191.36 73.05 191.7 71.39 192.05 70.09 192.4 68.43 192.74 68.07 193.09 69.02 193.43 69.61 193.78 71.74 194.13 74 194.47 76.6 194.82 79.09 195.16 77.43 195.51 76.72 195.85 75.66 196.2 75.89"/>
      </g>
      <g stroke-width="0.3" fill="#000000" fill-opacity="0.000" class="geometry" stroke-dasharray="none" stroke="#D53E4F" id="img-b0a9be78-18">
        <path fill="none" d="M23.65,71.86 L 24 70.2 24.34 72.81 24.69 75.66 25.03 74.59 25.38 73.64 25.73 74.83 26.07 72.1 26.42 72.93 26.76 69.97 27.11 67 27.45 67.36 27.8 64.28 28.15 67.24 28.49 66.89 28.84 68.07 29.18 66.18 29.53 67.83 29.88 68.9 30.22 65.82 30.57 67.72 30.91 67.24 31.26 66.89 31.6 69.14 31.95 69.02 32.3 71.15 32.64 71.39 32.99 72.46 33.33 72.93 33.68 72.93 34.02 70.68 34.37 70.8 34.72 69.26 35.06 68.19 35.41 68.55 35.75 69.49 36.1 66.53 36.45 65.35 36.79 62.15 37.14 62.38 37.48 64.28 37.83 65.82 38.17 69.14 38.52 64.99 38.87 64.99 39.21 67.24 39.56 69.61 39.9 68.9 40.25 64.04 40.59 66.77 40.94 66.18 41.29 68.19 41.63 68.43 41.98 68.07 42.32 71.27 42.67 70.32 43.02 71.86 43.36 71.15 43.71 72.46 44.05 74.59 44.4 77.67 44.74 78.03 45.09 77.2 45.44 77.79 45.78 77.55 46.13 76.96 46.47 76.6 46.82 78.38 47.16 78.5 47.51 76.96 47.86 75.42 48.2 77.2 48.55 78.03 48.89 77.31 49.24 77.67 49.59 77.55 49.93 81.58 50.28 82.77 50.62 83.36 50.97 82.17 51.31 82.29 51.66 80.75 52.01 79.92 52.35 80.16 52.7 79.68 53.04 76.48 53.39 77.31 53.73 76.37 54.08 78.38 54.43 78.14 54.77 77.2 55.12 73.17 55.46 73.4 55.81 78.26 56.16 78.86 56.5 77.67 56.85 77.31 57.19 78.62 57.54 78.74 57.88 79.8 58.23 79.8 58.58 76.6 58.92 75.42 59.27 75.89 59.61 75.18 59.96 75.77 60.3 78.5 60.65 79.09 61 78.74 61.34 77.55 61.69 77.31 62.03 76.48 62.38 77.2 62.73 76.01 63.07 77.55 63.42 80.87 63.76 80.16 64.11 82.29 64.45 84.31 64.8 84.9 65.15 85.85 65.49 87.86 65.84 88.69 66.18 90.71 66.53 93.43 66.87 91.53 67.22 92.01 67.57 92.36 67.91 90.35 68.26 90.35 68.6 93.08 68.95 88.93 69.3 89.64 69.64 90.94 69.99 92.25 70.33 93.9 70.68 95.09 71.02 97.34 71.37 99.24 71.72 101.73 72.06 99.12 72.41 99 72.75 98.29 73.1 95.56 73.44 94.02 73.79 92.72 74.14 93.55 74.48 91.53 74.83 90.59 75.17 90.94 75.52 94.26 75.87 94.73 76.21 96.28 76.56 96.28 76.9 95.92 77.25 95.92 77.59 94.62 77.94 95.21 78.29 97.46 78.63 97.34 78.98 97.46 79.32 96.63 79.67 96.04 80.01 94.73 80.36 96.87 80.71 95.68 81.05 96.28 81.4 96.28 81.74 99.12 82.09 99.59 82.44 96.04 82.78 96.51 83.13 95.21 83.47 91.42 83.82 90.82 84.16 89.16 84.51 92.48 84.86 94.26 85.2 99.47 85.55 98.53 85.89 98.29 86.24 96.63 86.58 96.04 86.93 96.51 87.28 94.62 87.62 93.9 87.97 93.31 88.31 96.04 88.66 96.99 89.01 95.09 89.35 93.79 89.7 96.75 90.04 98.76 90.39 98.88 90.73 101.13 91.08 102.08 91.43 104.1 91.77 104.69 92.12 105.04 92.46 104.81 92.81 102.08 93.15 102.32 93.5 102.79 93.85 100.66 94.19 102.08 94.54 101.96 94.88 103.74 95.23 104.81 95.58 100.19 95.92 100.42 96.27 101.25 96.61 100.42 96.96 97.22 97.3 95.09 97.65 93.79 98 93.55 98.34 94.14 98.69 93.43 99.03 92.84 99.38 92.36 99.72 90.23 100.07 88.45 100.42 87.15 100.76 87.51 101.11 84.42 101.45 86.79 101.8 88.57 102.15 88.81 102.49 86.56 102.84 87.27 103.18 85.73 103.53 85.49 103.87 85.02 104.22 83.12 104.57 83 104.91 81.58 105.26 80.99 105.6 78.86 105.95 80.63 106.29 83 106.64 81.7 106.99 80.87 107.33 79.57 107.68 80.28 108.02 83.12 108.37 83.24 108.72 81.23 109.06 79.45 109.41 78.86 109.75 81.11 110.1 79.68 110.44 79.45 110.79 78.74 111.14 78.62 111.48 79.68 111.83 79.33 112.17 77.79 112.52 78.86 112.86 79.21 113.21 78.62 113.56 78.97 113.9 80.16 114.25 77.31 114.59 77.31 114.94 78.5 115.29 80.4 115.63 80.75 115.98 78.5 116.32 79.21 116.67 79.09 117.01 78.62 117.36 77.67 117.71 78.14 118.05 75.42 118.4 74 118.74 68.19 119.09 68.43 119.43 67.83 119.78 68.19 120.13 67.6 120.47 65.82 120.82 67.36 121.16 64.52 121.51 61.91 121.86 60.72 122.2 61.08 122.55 63.69 122.89 58 123.24 55.87 123.58 56.93 123.93 58 124.28 56.1 124.62 56.34 124.97 57.17 125.31 56.58 125.66 55.04 126 54.56 126.35 55.87 126.7 54.09 127.04 54.09 127.39 55.63 127.73 53.97 128.08 51.72 128.43 50.53 128.77 50.06 129.12 53.02 129.46 51.95 129.81 55.75 130.15 55.27 130.5 55.27 130.85 54.8 131.19 54.21 131.54 53.38 131.88 54.8 132.23 54.21 132.57 53.5 132.92 58.24 133.27 55.75 133.61 56.81 133.96 58.24 134.3 59.66 134.65 60.13 135 59.66 135.34 62.15 135.69 60.13 136.03 58.83 136.38 56.46 136.72 56.93 137.07 60.01 137.42 59.54 137.76 59.54 138.11 59.78 138.45 60.61 138.8 61.2 139.14 62.15 139.49 64.63 139.84 66.18 140.18 63.33 140.53 60.84 140.87 62.62 141.22 62.98 141.57 62.38 141.91 62.62 142.26 60.13 142.6 59.66 142.95 60.37 143.29 58.95 143.64 59.18 143.99 56.22 144.33 55.15 144.68 55.75 145.02 55.87 145.37 57.88 145.71 58.95 146.06 60.49 146.41 60.96 146.75 63.21 147.1 62.03 147.44 64.52 147.79 63.81 148.14 65.82 148.48 64.75 148.83 63.92 149.17 67.24 149.52 64.52 149.86 65.46 150.21 63.81 150.56 64.63 150.9 66.29 151.25 67.48 151.59 68.78 151.94 67.48 152.28 71.15 152.63 74.47 152.98 74.71 153.32 73.4 153.67 73.4 154.01 74.23 154.36 75.66 154.71 73.52 155.05 72.22 155.4 72.93 155.74 72.69 156.09 71.51 156.43 72.57 156.78 73.88 157.13 71.86 157.47 67.83 157.82 68.07 158.16 67.95 158.51 65.35 158.85 66.06 159.2 65.7 159.55 64.4 159.89 66.06 160.24 62.74 160.58 63.81 160.93 63.45 161.28 62.86 161.62 62.03 161.97 58.12 162.31 55.27 162.66 52.67 163 50.77 163.35 51.13 163.7 51.48 164.04 54.8 164.39 56.81 164.73 58.24 165.08 56.81 165.42 59.54 165.77 58 166.12 56.93 166.46 57.76 166.81 59.78 167.15 58.83 167.5 63.09 167.85 60.01 168.19 58.71 168.54 59.89 168.88 61.08 169.23 62.26 169.57 60.96 169.92 62.98 170.27 63.69 170.61 64.16 170.96 62.03 171.3 58.59 171.65 59.06 171.99 58.59 172.34 59.06 172.69 53.61 173.03 51.72 173.38 50.65 173.72 52.31 174.07 51.24 174.42 53.61 174.76 53.38 175.11 52.07 175.45 53.73 175.8 53.73 176.14 50.89 176.49 51.48 176.84 53.5 177.18 56.22 177.53 58.83 177.87 58.24 178.22 61.2 178.56 59.42 178.91 58.35 179.26 55.87 179.6 57.64 179.95 58.24 180.29 57.88 180.64 56.46 180.99 56.46 181.33 59.42 181.68 58.24 182.02 59.42 182.37 58.59 182.71 58.12 183.06 60.84 183.41 60.25 183.75 59.89 184.1 57.29 184.44 56.81 184.79 59.18 185.13 62.26 185.48 64.04 185.83 62.74 186.17 61.44 186.52 61.2 186.86 58.83 187.21 60.01 187.56 60.25 187.9 60.37 188.25 59.06 188.59 58.24 188.94 56.58 189.28 57.41 189.63 55.39 189.98 57.88 190.32 60.25 190.67 62.74 191.01 61.79 191.36 64.28 191.7 63.81 192.05 63.33 192.4 60.84 192.74 63.81 193.09 62.98 193.43 60.96 193.78 60.13 194.13 64.04 194.47 63.69 194.82 63.45 195.16 66.77 195.51 66.41 195.85 65.7 196.2 66.18"/>
      </g>
      <g stroke-width="0.3" fill="#000000" fill-opacity="0.000" class="geometry" stroke-dasharray="none" stroke="#9E0142" id="img-b0a9be78-19">
        <path fill="none" d="M23.65,71.86 L 24 72.1 24.34 72.69 24.69 73.4 25.03 72.57 25.38 69.14 25.73 68.66 26.07 66.06 26.42 66.29 26.76 67.95 27.11 68.43 27.45 66.41 27.8 69.37 28.15 66.77 28.49 66.41 28.84 63.09 29.18 66.89 29.53 65.58 29.88 62.03 30.22 61.2 30.57 58.95 30.91 58.59 31.26 57.64 31.6 56.69 31.95 54.21 32.3 57.76 32.64 59.89 32.99 59.78 33.33 61.08 33.68 60.13 34.02 60.37 34.37 60.96 34.72 60.49 35.06 60.13 35.41 61.79 35.75 61.44 36.1 60.49 36.45 61.55 36.79 61.2 37.14 61.08 37.48 59.18 37.83 57.76 38.17 58.24 38.52 56.69 38.87 54.32 39.21 53.38 39.56 53.02 39.9 50.06 40.25 50.77 40.59 52.07 40.94 52.9 41.29 51.95 41.63 50.89 41.98 51.84 42.32 54.32 42.67 57.52 43.02 58 43.36 58.12 43.71 55.75 44.05 54.44 44.4 53.14 44.74 55.15 45.09 57.17 45.44 56.81 45.78 58.47 46.13 57.76 46.47 59.66 46.82 57.64 47.16 58.71 47.51 60.25 47.86 60.72 48.2 59.89 48.55 60.61 48.89 57.88 49.24 56.93 49.59 58.24 49.93 58.24 50.28 55.04 50.62 55.15 50.97 56.34 51.31 57.52 51.66 56.58 52.01 55.98 52.35 52.07 52.7 53.97 53.04 52.67 53.39 52.67 53.73 54.21 54.08 52.55 54.43 55.15 54.77 55.27 55.12 54.44 55.46 54.68 55.81 53.97 56.16 49.7 56.5 50.77 56.85 49.35 57.19 50.3 57.54 49.82 57.88 48.16 58.23 46.03 58.58 46.15 58.92 46.5 59.27 46.03 59.61 44.37 59.96 43.07 60.3 42.83 60.65 44.96 61 46.62 61.34 46.98 61.69 47.45 62.03 48.99 62.38 48.64 62.73 49.94 63.07 51.72 63.42 52.31 63.76 52.67 64.11 51.01 64.45 54.8 64.8 51.6 65.15 52.19 65.49 51.36 65.84 51.36 66.18 53.02 66.53 52.31 66.87 52.67 67.22 50.65 67.57 48.64 67.91 47.69 68.26 48.04 68.6 47.69 68.95 50.3 69.3 50.53 69.64 47.81 69.99 47.45 70.33 46.5 70.68 45.08 71.02 45.67 71.37 44.96 71.72 48.76 72.06 50.65 72.41 53.38 72.75 51.24 73.1 51.48 73.44 49.11 73.79 44.73 74.14 44.02 74.48 42.36 74.83 42.95 75.17 43.42 75.52 44.61 75.87 45.32 76.21 46.15 76.56 46.5 76.9 47.69 77.25 42.71 77.59 43.3 77.94 42.24 78.29 40.34 78.63 39.04 78.98 41.29 79.32 42.24 79.67 41.76 80.01 43.19 80.36 42.95 80.71 41.05 81.05 41.17 81.4 41.29 81.74 42.36 82.09 43.54 82.44 42.71 82.78 43.3 83.13 42.12 83.47 42.24 83.82 41.05 84.16 40.46 84.51 42.24 84.86 41.41 85.2 42.24 85.55 44.84 85.89 44.13 86.24 44.61 86.58 45.91 86.93 46.98 87.28 46.27 87.62 45.08 87.97 41.64 88.31 40.58 88.66 40.93 89.01 41.76 89.35 41.53 89.7 42.83 90.04 42.12 90.39 43.07 90.73 44.37 91.08 43.42 91.43 45.67 91.77 46.03 92.12 42.12 92.46 41.41 92.81 43.78 93.15 43.78 93.5 44.25 93.85 45.44 94.19 46.27 94.54 47.45 94.88 46.5 95.23 46.03 95.58 46.62 95.92 46.74 96.27 48.99 96.61 47.1 96.96 47.21 97.3 46.5 97.65 46.86 98 44.37 98.34 45.32 98.69 45.91 99.03 47.33 99.38 46.03 99.72 46.74 100.07 46.39 100.42 45.32 100.76 44.84 101.11 44.49 101.45 44.25 101.8 44.13 102.15 45.56 102.49 43.19 102.84 44.02 103.18 43.3 103.53 46.03 103.87 44.73 104.22 43.78 104.57 42 104.91 42.24 105.26 42.71 105.6 43.66 105.95 41.76 106.29 40.7 106.64 42 106.99 38.92 107.33 39.75 107.68 39.51 108.02 39.16 108.37 42.83 108.72 42.12 109.06 42.95 109.41 44.84 109.75 44.13 110.1 44.37 110.44 43.42 110.79 46.86 111.14 44.13 111.48 45.08 111.83 48.64 112.17 48.64 112.52 49.82 112.86 49.7 113.21 45.08 113.56 43.07 113.9 42.83 114.25 42.12 114.59 39.39 114.94 39.16 115.29 37.85 115.63 38.09 115.98 35.96 116.32 35.13 116.67 33.71 117.01 34.3 117.36 37.5 117.71 36.55 118.05 37.14 118.4 36.08 118.74 36.19 119.09 35.48 119.43 36.79 119.78 37.26 120.13 35.6 120.47 37.38 120.82 37.26 121.16 40.34 121.51 40.46 121.86 42.24 122.2 42.24 122.55 42.12 122.89 41.41 123.24 42.36 123.58 42.36 123.93 41.53 124.28 41.76 124.62 40.82 124.97 40.7 125.31 42.83 125.66 43.3 126 45.67 126.35 47.1 126.7 44.37 127.04 43.42 127.39 44.25 127.73 44.13 128.08 41.17 128.43 40.82 128.77 41.17 129.12 39.27 129.46 39.99 129.81 41.29 130.15 40.34 130.5 41.64 130.85 41.53 131.19 39.87 131.54 42.24 131.88 42.12 132.23 42.24 132.57 41.64 132.92 44.13 133.27 42.59 133.61 44.25 133.96 43.54 134.3 43.54 134.65 43.07 135 43.07 135.34 43.19 135.69 44.84 136.03 45.56 136.38 41.29 136.72 40.93 137.07 40.46 137.42 37.97 137.76 38.21 138.11 38.09 138.45 36.55 138.8 34.89 139.14 36.79 139.49 35.72 139.84 32.88 140.18 34.65 140.53 34.18 140.87 34.65 141.22 37.38 141.57 36.31 141.91 36.67 142.26 36.19 142.6 34.42 142.95 35.13 143.29 34.06 143.64 36.79 143.99 39.63 144.33 39.87 144.68 42.47 145.02 41.17 145.37 40.34 145.71 39.75 146.06 38.8 146.41 40.58 146.75 39.39 147.1 39.16 147.44 42.24 147.79 39.63 148.14 38.21 148.48 39.99 148.83 38.09 149.17 39.75 149.52 42.83 149.86 44.37 150.21 43.07 150.56 43.78 150.9 41.88 151.25 44.02 151.59 40.46 151.94 41.29 152.28 41.41 152.63 42.36 152.98 44.37 153.32 44.84 153.67 46.5 154.01 46.98 154.36 46.27 154.71 46.98 155.05 46.39 155.4 42.47 155.74 43.19 156.09 46.39 156.43 49.7 156.78 52.78 157.13 51.48 157.47 52.67 157.82 53.14 158.16 52.19 158.51 51.36 158.85 50.41 159.2 47.69 159.55 49.47 159.89 49.82 160.24 49.35 160.58 49.58 160.93 49.35 161.28 49.47 161.62 48.28 161.97 49.82 162.31 49.94 162.66 51.84 163 50.3 163.35 47.57 163.7 47.1 164.04 48.16 164.39 48.04 164.73 46.5 165.08 43.66 165.42 42.36 165.77 39.99 166.12 37.62 166.46 37.62 166.81 37.38 167.15 40.22 167.5 39.63 167.85 40.22 168.19 42.36 168.54 41.88 168.88 38.8 169.23 42.12 169.57 41.64 169.92 43.3 170.27 40.46 170.61 39.63 170.96 40.82 171.3 41.17 171.65 39.99 171.99 40.34 172.34 40.82 172.69 40.22 173.03 39.63 173.38 37.02 173.72 34.3 174.07 33.23 174.42 34.53 174.76 33.59 175.11 34.42 175.45 32.28 175.8 34.53 176.14 32.64 176.49 31.93 176.84 32.4 177.18 33.47 177.53 37.85 177.87 35.01 178.22 36.67 178.56 35.6 178.91 33.47 179.26 33.47 179.6 31.45 179.95 31.22 180.29 31.81 180.64 31.81 180.99 34.65 181.33 35.6 181.68 39.51 182.02 43.07 182.37 49.11 182.71 49.94 183.06 51.95 183.41 53.02 183.75 50.65 184.1 53.73 184.44 55.75 184.79 58.71 185.13 58.35 185.48 54.8 185.83 53.97 186.17 51.95 186.52 52.19 186.86 50.41 187.21 48.99 187.56 47.93 187.9 49.7 188.25 49.35 188.59 47.81 188.94 50.53 189.28 50.18 189.63 48.64 189.98 49.82 190.32 51.36 190.67 53.97 191.01 56.69 191.36 56.46 191.7 58.35 192.05 57.88 192.4 57.64 192.74 55.87 193.09 56.46 193.43 56.46 193.78 57.88 194.13 57.88 194.47 57.52 194.82 60.37 195.16 59.18 195.51 59.78 195.85 58.59 196.2 56.46"/>
      </g>
    </g>
  </g>
</g>
  <g class="guide ylabels" font-size="2.82" font-family="'PT Sans Caption','Helvetica Neue','Helvetica',sans-serif" fill="#000000" id="img-b0a9be78-20">
    <text x="20.3" y="131.11" text-anchor="end" dy="0.35em">0</text>
    <text x="20.3" y="107.41" text-anchor="end" dy="0.35em">200</text>
    <text x="20.3" y="83.71" text-anchor="end" dy="0.35em">400</text>
    <text x="20.3" y="60.01" text-anchor="end" dy="0.35em">600</text>
    <text x="20.3" y="36.31" text-anchor="end" dy="0.35em">800</text>
    <text x="20.3" y="12.61" text-anchor="end" dy="0.35em">1000</text>
  </g>
  <g font-size="3.88" font-family="'PT Sans','Helvetica Neue','Helvetica',sans-serif" fill="#000000" stroke="#000000" stroke-opacity="0.000" id="img-b0a9be78-21">
    <text x="8.81" y="69.86" text-anchor="middle" dy="0.35em" transform="rotate(-90, 8.81, 71.86)">population size</text>
  </g>
  <g font-size="3.88" font-family="'PT Sans','Helvetica Neue','Helvetica',sans-serif" fill="#000000" stroke="#000000" stroke-opacity="0.000" id="img-b0a9be78-22">
    <text x="109.75" y="5" text-anchor="middle" dy="0.6em">genetic drift with mutationrate  = 0.001 </text>
  </g>
</g>
<defs>
  <clipPath id="img-b0a9be78-4">
  <path d="M21.31,10.61 L 198.2 10.61 198.2 133.11 21.31 133.11" />
</clipPath>
</defs>
</svg>
