<?xml version="1.0" encoding="UTF-8"?>
<svg xmlns="http://www.w3.org/2000/svg"
     xmlns:xlink="http://www.w3.org/1999/xlink"
     xmlns:gadfly="http://www.gadflyjl.org/ns"
     version="1.2"
     width="203.2mm" height="152.4mm" viewBox="0 0 203.2 152.4"
     stroke="none"
     fill="#000000"
     stroke-width="0.3"
     font-size="3.88"
>
<g class="plotroot xscalable yscalable" id="img-b083b1a9-1">
  <g font-size="3.88" font-family="'PT Sans','Helvetica Neue','Helvetica',sans-serif" fill="#000000" stroke="#000000" stroke-opacity="0.000" id="img-b083b1a9-2">
    <text x="108.92" y="140.79" text-anchor="middle" dy="0.6em">generation number</text>
  </g>
  <g class="guide xlabels" font-size="2.82" font-family="'PT Sans Caption','Helvetica Neue','Helvetica',sans-serif" fill="#000000" id="img-b083b1a9-3">
    <text x="21.63" y="134.11" text-anchor="middle" dy="0.6em">0</text>
    <text x="56.55" y="134.11" text-anchor="middle" dy="0.6em">100</text>
    <text x="91.46" y="134.11" text-anchor="middle" dy="0.6em">200</text>
    <text x="126.37" y="134.11" text-anchor="middle" dy="0.6em">300</text>
    <text x="161.29" y="134.11" text-anchor="middle" dy="0.6em">400</text>
    <text x="196.2" y="134.11" text-anchor="middle" dy="0.6em">500</text>
  </g>
<g clip-path="url(#img-b083b1a9-4)">
  <g id="img-b083b1a9-5">
    <g pointer-events="visible" opacity="1" fill="#FFFFFF" stroke="#000000" stroke-opacity="0.000" class="guide background" id="img-b083b1a9-6">
      <rect x="19.63" y="10.61" width="178.57" height="122.5"/>
    </g>
    <g class="guide ygridlines xfixed" stroke-dasharray="0.5,0.5" stroke-width="0.2" stroke="#808080" id="img-b083b1a9-7">
      <path fill="none" d="M19.63,131.11 L 198.2 131.11"/>
      <path fill="none" d="M19.63,101.49 L 198.2 101.49"/>
      <path fill="none" d="M19.63,71.86 L 198.2 71.86"/>
      <path fill="none" d="M19.63,42.24 L 198.2 42.24"/>
      <path fill="none" d="M19.63,12.61 L 198.2 12.61"/>
    </g>
    <g class="guide xgridlines yfixed" stroke-dasharray="0.5,0.5" stroke-width="0.2" stroke="#808080" id="img-b083b1a9-8">
      <path fill="none" d="M21.63,10.61 L 21.63 133.11"/>
      <path fill="none" d="M56.55,10.61 L 56.55 133.11"/>
      <path fill="none" d="M91.46,10.61 L 91.46 133.11"/>
      <path fill="none" d="M126.37,10.61 L 126.37 133.11"/>
      <path fill="none" d="M161.29,10.61 L 161.29 133.11"/>
      <path fill="none" d="M196.2,10.61 L 196.2 133.11"/>
    </g>
    <g class="plotpanel" id="img-b083b1a9-9">
      <g stroke-width="0.3" fill="#000000" fill-opacity="0.000" class="geometry" stroke-dasharray="none" stroke="#3288BD" id="img-b083b1a9-10">
        <path fill="none" d="M21.98,71.86 L 22.33 73.64 22.68 69.49 23.03 65.35 23.38 63.57 23.73 58.24 24.08 58.24 24.42 58.83 24.77 62.38 25.12 63.57 25.47 60.01 25.82 57.05 26.17 57.05 26.52 61.79 26.87 64.16 27.22 66.53 27.57 70.09 27.92 70.68 28.27 62.98 28.61 62.98 28.96 61.79 29.31 57.05 29.66 56.46 30.01 61.79 30.36 64.75 30.71 65.35 31.06 60.01 31.41 56.46 31.76 52.31 32.11 54.68 32.45 57.05 32.8 60.01 33.15 60.61 33.5 51.13 33.85 49.35 34.2 45.79 34.55 46.98 34.9 51.72 35.25 59.42 35.6 61.2 35.95 55.87 36.3 49.94 36.64 46.98 36.99 38.68 37.34 40.46 37.69 34.53 38.04 38.68 38.39 39.27 38.74 38.68 39.09 30.39 39.44 33.94 39.79 35.13 40.14 36.31 40.49 31.57 40.83 27.42 41.18 25.05 41.53 22.09 41.88 22.68 42.23 25.65 42.58 30.39 42.93 32.16 43.28 28.02 43.63 29.79 43.98 30.39 44.33 26.83 44.67 26.24 45.02 28.61 45.37 25.05 45.72 25.05 46.07 23.87 46.42 26.83 46.77 25.05 47.12 25.05 47.47 23.28 47.82 17.35 48.17 20.31 48.52 21.5 48.86 23.87 49.21 27.42 49.56 30.39 49.91 29.79 50.26 32.16 50.61 32.76 50.96 32.16 51.31 33.94 51.66 36.9 52.01 35.72 52.36 38.09 52.7 43.42 53.05 41.64 53.4 38.68 53.75 45.2 54.1 41.05 54.45 46.98 54.8 45.79 55.15 48.76 55.5 42.24 55.85 45.2 56.2 44.02 56.55 46.39 56.89 44.02 57.24 40.46 57.59 41.64 57.94 40.46 58.29 37.5 58.64 31.57 58.99 30.98 59.34 30.39 59.69 26.83 60.04 24.46 60.39 26.83 60.73 25.05 61.08 23.87 61.43 22.68 61.78 24.46 62.13 26.24 62.48 25.05 62.83 26.24 63.18 24.46 63.53 27.42 63.88 24.46 64.23 25.65 64.58 23.87 64.92 24.46 65.27 26.24 65.62 32.76 65.97 36.31 66.32 39.27 66.67 41.05 67.02 36.9 67.37 39.27 67.72 41.64 68.07 42.24 68.42 42.24 68.77 41.64 69.11 38.09 69.46 42.24 69.81 44.02 70.16 45.79 70.51 46.39 70.86 44.02 71.21 46.39 71.56 45.2 71.91 42.24 72.26 40.46 72.61 36.31 72.95 34.53 73.3 32.16 73.65 38.68 74 40.46 74.35 42.83 74.7 39.27 75.05 35.72 75.4 39.87 75.75 34.53 76.1 39.27 76.45 38.09 76.8 39.87 77.14 35.72 77.49 37.5 77.84 35.72 78.19 36.31 78.54 35.72 78.89 38.09 79.24 44.02 79.59 38.68 79.94 38.09 80.29 39.87 80.64 41.64 80.98 38.68 81.33 34.53 81.68 37.5 82.03 32.16 82.38 36.9 82.73 38.68 83.08 40.46 83.43 37.5 83.78 39.27 84.13 37.5 84.48 44.02 84.83 34.53 85.17 35.72 85.52 34.53 85.87 35.13 86.22 41.64 86.57 45.79 86.92 57.05 87.27 56.46 87.62 57.64 87.97 58.83 88.32 52.31 88.67 67.12 89.02 75.42 89.36 77.79 89.71 71.27 90.06 75.42 90.41 67.72 90.76 64.75 91.11 63.57 91.46 60.01 91.81 60.61 92.16 60.01 92.51 60.61 92.86 61.79 93.2 64.16 93.55 65.94 93.9 59.42 94.25 68.31 94.6 61.79 94.95 60.61 95.3 57.64 95.65 62.38 96 65.94 96.35 64.16 96.7 63.57 97.05 67.12 97.39 69.49 97.74 70.09 98.09 68.31 98.44 75.42 98.79 81.34 99.14 86.68 99.49 85.49 99.84 85.49 100.19 83.12 100.54 80.16 100.89 77.79 101.23 78.97 101.58 74.83 101.93 74.23 102.28 65.94 102.63 62.98 102.98 64.75 103.33 72.46 103.68 71.86 104.03 75.42 104.38 74.23 104.73 71.86 105.08 74.23 105.42 67.12 105.77 66.53 106.12 76.01 106.47 73.64 106.82 77.79 107.17 78.38 107.52 79.57 107.87 78.38 108.22 74.83 108.57 68.31 108.92 72.46 109.26 73.05 109.61 65.35 109.96 71.27 110.31 68.9 110.66 69.49 111.01 64.75 111.36 64.75 111.71 60.01 112.06 61.79 112.41 68.31 112.76 67.12 113.11 62.38 113.45 62.98 113.8 68.31 114.15 74.23 114.5 71.27 114.85 71.86 115.2 70.68 115.55 75.42 115.9 78.38 116.25 78.97 116.6 85.49 116.95 84.9 117.3 81.34 117.64 81.94 117.99 84.31 118.34 83.71 118.69 81.34 119.04 76.6 119.39 74.83 119.74 73.64 120.09 70.68 120.44 68.31 120.79 68.9 121.14 65.35 121.48 64.75 121.83 67.12 122.18 67.72 122.53 72.46 122.88 70.68 123.23 73.05 123.58 72.46 123.93 71.86 124.28 68.9 124.63 75.42 124.98 76.6 125.33 76.01 125.67 76.6 126.02 73.64 126.37 68.31 126.72 64.75 127.07 69.49 127.42 71.86 127.77 60.61 128.12 66.53 128.47 67.72 128.82 74.83 129.17 85.49 129.51 95.56 129.86 94.97 130.21 93.79 130.56 93.19 130.91 89.64 131.26 77.2 131.61 80.16 131.96 79.57 132.31 73.05 132.66 74.83 133.01 69.49 133.36 66.53 133.7 58.83 134.05 61.2 134.4 61.2 134.75 53.5 135.1 45.2 135.45 48.76 135.8 54.68 136.15 56.46 136.5 57.64 136.85 58.24 137.2 68.31 137.55 70.68 137.89 64.75 138.24 68.31 138.59 72.46 138.94 70.68 139.29 67.72 139.64 71.27 139.99 73.64 140.34 65.94 140.69 74.83 141.04 74.23 141.39 75.42 141.73 78.38 142.08 77.79 142.43 82.53 142.78 84.9 143.13 91.42 143.48 96.75 143.83 98.53 144.18 92.6 144.53 94.97 144.88 94.38 145.23 91.42 145.58 94.38 145.92 96.75 146.27 102.08 146.62 101.49 146.97 102.67 147.32 106.23 147.67 106.82 148.02 101.49 148.37 100.3 148.72 103.86 149.07 104.45 149.42 106.23 149.76 111.56 150.11 108.01 150.46 107.41 150.81 108.6 151.16 103.86 151.51 106.82 151.86 108.6 152.21 112.15 152.56 110.38 152.91 114.52 153.26 115.12 153.61 116.3 153.95 115.12 154.3 117.49 154.65 120.45 155 119.86 155.35 119.86 155.7 121.63 156.05 122.82 156.4 121.04 156.75 119.86 157.1 119.86 157.45 119.26 157.79 115.12 158.14 118.08 158.49 118.08 158.84 118.67 159.19 115.12 159.54 119.86 159.89 116.3 160.24 115.71 160.59 122.82 160.94 124 161.29 119.86 161.64 124 161.98 125.19 162.33 122.82 162.68 125.19 163.03 124.6 163.38 124.6 163.73 124 164.08 121.63 164.43 122.23 164.78 122.23 165.13 118.67 165.48 117.49 165.83 119.26 166.17 119.86 166.52 117.49 166.87 119.86 167.22 116.89 167.57 116.89 167.92 118.67 168.27 121.04 168.62 116.89 168.97 112.75 169.32 107.41 169.67 112.15 170.01 110.38 170.36 112.75 170.71 112.15 171.06 108.01 171.41 109.78 171.76 113.34 172.11 109.78 172.46 106.82 172.81 102.67 173.16 99.12 173.51 93.79 173.86 91.42 174.2 85.49 174.55 79.57 174.9 76.6 175.25 86.68 175.6 84.9 175.95 80.16 176.3 83.71 176.65 84.31 177 84.9 177.35 89.64 177.7 84.31 178.04 83.12 178.39 83.71 178.74 86.68 179.09 87.27 179.44 91.42 179.79 92.6 180.14 95.56 180.49 99.12 180.84 93.79 181.19 94.97 181.54 99.71 181.89 100.3 182.23 99.12 182.58 94.97 182.93 99.71 183.28 98.53 183.63 105.04 183.98 111.56 184.33 113.93 184.68 111.56 185.03 113.93 185.38 112.15 185.73 105.64 186.08 110.97 186.42 105.64 186.77 106.82 187.12 106.23 187.47 101.49 187.82 94.38 188.17 94.38 188.52 97.34 188.87 97.93 189.22 101.49 189.57 103.27 189.92 105.64 190.26 109.78 190.61 109.78 190.96 107.41 191.31 105.04 191.66 102.67 192.01 106.23 192.36 97.34 192.71 91.42 193.06 80.16 193.41 80.75 193.76 74.23 194.11 80.16 194.45 76.6 194.8 78.38 195.15 74.83 195.5 74.23 195.85 74.83 196.2 71.27"/>
      </g>
      <g stroke-width="0.3" fill="#000000" fill-opacity="0.000" class="geometry" stroke-dasharray="none" stroke="#66C2A5" id="img-b083b1a9-11">
        <path fill="none" d="M21.98,71.86 L 22.33 70.68 22.68 70.68 23.03 73.05 23.38 76.6 23.73 73.64 24.08 74.83 24.42 73.05 24.77 67.72 25.12 72.46 25.47 81.94 25.82 81.34 26.17 87.27 26.52 88.45 26.87 93.79 27.22 96.16 27.57 94.38 27.92 90.23 28.27 85.49 28.61 76.01 28.96 67.72 29.31 71.86 29.66 74.83 30.01 77.79 30.36 78.97 30.71 81.34 31.06 80.75 31.41 93.79 31.76 98.53 32.11 97.93 32.45 90.82 32.8 93.79 33.15 94.38 33.5 93.19 33.85 95.56 34.2 94.38 34.55 90.23 34.9 85.49 35.25 80.75 35.6 73.05 35.95 67.72 36.3 69.49 36.64 75.42 36.99 73.64 37.34 71.27 37.69 68.31 38.04 63.57 38.39 61.79 38.74 67.12 39.09 67.12 39.44 68.31 39.79 70.09 40.14 70.09 40.49 72.46 40.83 66.53 41.18 72.46 41.53 74.83 41.88 76.6 42.23 73.05 42.58 70.68 42.93 78.97 43.28 84.9 43.63 81.34 43.98 79.57 44.33 81.94 44.67 76.01 45.02 72.46 45.37 76.6 45.72 76.6 46.07 74.83 46.42 77.79 46.77 76.6 47.12 78.97 47.47 77.2 47.82 84.31 48.17 80.16 48.52 80.16 48.86 78.38 49.21 74.83 49.56 77.79 49.91 73.64 50.26 78.97 50.61 80.75 50.96 80.16 51.31 73.05 51.66 76.6 52.01 78.97 52.36 77.79 52.7 73.64 53.05 75.42 53.4 72.46 53.75 77.79 54.1 72.46 54.45 77.79 54.8 82.53 55.15 90.23 55.5 91.42 55.85 93.79 56.2 86.08 56.55 81.94 56.89 86.68 57.24 85.49 57.59 87.86 57.94 88.45 58.29 90.82 58.64 85.49 58.99 89.64 59.34 91.42 59.69 90.82 60.04 92.6 60.39 87.86 60.73 96.16 61.08 95.56 61.43 88.45 61.78 90.23 62.13 94.38 62.48 92.6 62.83 84.31 63.18 85.49 63.53 86.68 63.88 81.34 64.23 78.38 64.58 78.97 64.92 83.12 65.27 83.12 65.62 77.2 65.97 79.57 66.32 81.34 66.67 83.71 67.02 80.16 67.37 86.68 67.72 90.82 68.07 83.71 68.42 90.23 68.77 92.6 69.11 92.6 69.46 95.56 69.81 94.97 70.16 93.79 70.51 89.64 70.86 91.42 71.21 89.64 71.56 89.64 71.91 90.23 72.26 93.19 72.61 93.19 72.95 93.19 73.3 89.64 73.65 94.38 74 101.49 74.35 99.12 74.7 101.49 75.05 98.53 75.4 99.71 75.75 96.16 76.1 94.97 76.45 87.27 76.8 85.49 77.14 80.16 77.49 78.97 77.84 85.49 78.19 90.23 78.54 93.19 78.89 96.75 79.24 92.6 79.59 84.31 79.94 92.01 80.29 90.82 80.64 95.56 80.98 97.93 81.33 93.19 81.68 90.23 82.03 86.68 82.38 88.45 82.73 87.27 83.08 86.08 83.43 90.82 83.78 89.64 84.13 93.19 84.48 89.05 84.83 87.86 85.17 80.75 85.52 75.42 85.87 74.23 86.22 78.97 86.57 78.97 86.92 81.94 87.27 82.53 87.62 76.01 87.97 87.86 88.32 88.45 88.67 84.9 89.02 86.08 89.36 83.71 89.71 83.12 90.06 88.45 90.41 88.45 90.76 84.9 91.11 83.12 91.46 85.49 91.81 79.57 92.16 76.6 92.51 78.38 92.86 74.23 93.2 71.86 93.55 76.6 93.9 80.75 94.25 78.97 94.6 78.97 94.95 79.57 95.3 83.71 95.65 77.2 96 78.38 96.35 70.68 96.7 68.31 97.05 68.9 97.39 79.57 97.74 78.38 98.09 82.53 98.44 90.23 98.79 87.27 99.14 83.71 99.49 86.68 99.84 89.05 100.19 86.68 100.54 84.9 100.89 78.38 101.23 71.86 101.58 81.94 101.93 74.83 102.28 73.64 102.63 76.01 102.98 77.2 103.33 76.01 103.68 71.27 104.03 71.27 104.38 79.57 104.73 81.34 105.08 79.57 105.42 78.38 105.77 82.53 106.12 78.97 106.47 78.97 106.82 80.75 107.17 78.38 107.52 75.42 107.87 73.05 108.22 81.34 108.57 88.45 108.92 77.79 109.26 75.42 109.61 76.01 109.96 77.2 110.31 73.64 110.66 71.86 111.01 74.23 111.36 72.46 111.71 68.9 112.06 62.38 112.41 58.24 112.76 62.98 113.11 64.75 113.45 60.61 113.8 52.9 114.15 46.39 114.5 46.98 114.85 42.83 115.2 49.35 115.55 49.35 115.9 47.57 116.25 46.39 116.6 44.02 116.95 44.61 117.3 46.98 117.64 42.83 117.99 41.05 118.34 39.87 118.69 38.68 119.04 42.83 119.39 49.94 119.74 48.76 120.09 54.09 120.44 46.98 120.79 45.2 121.14 46.39 121.48 52.31 121.83 45.2 122.18 48.76 122.53 49.35 122.88 51.72 123.23 55.87 123.58 47.57 123.93 38.68 124.28 40.46 124.63 41.64 124.98 40.46 125.33 35.72 125.67 31.57 126.02 35.13 126.37 30.98 126.72 29.2 127.07 25.65 127.42 25.05 127.77 27.42 128.12 25.05 128.47 25.05 128.82 23.28 129.17 25.05 129.51 22.09 129.86 19.13 130.21 18.54 130.56 20.31 130.91 23.28 131.26 23.28 131.61 19.13 131.96 19.13 132.31 15.57 132.66 16.17 133.01 17.35 133.36 17.35 133.7 17.94 134.05 16.76 134.4 14.39 134.75 13.2 135.1 12.61 135.45 14.39 135.8 14.98 136.15 14.98 136.5 15.57 136.85 13.8 137.2 14.39 137.55 15.57 137.89 13.8 138.24 13.8 138.59 14.39 138.94 13.8 139.29 13.2 139.64 13.8 139.99 14.39 140.34 16.17 140.69 19.13 141.04 23.28 141.39 23.87 141.73 24.46 142.08 27.42 142.43 30.98 142.78 32.76 143.13 28.61 143.48 30.98 143.83 30.39 144.18 25.65 144.53 26.83 144.88 26.83 145.23 28.02 145.58 27.42 145.92 26.83 146.27 31.57 146.62 29.79 146.97 29.79 147.32 31.57 147.67 29.79 148.02 30.39 148.37 32.76 148.72 30.39 149.07 26.24 149.42 21.5 149.76 23.87 150.11 21.5 150.46 22.09 150.81 23.28 151.16 21.5 151.51 24.46 151.86 29.79 152.21 30.39 152.56 27.42 152.91 29.2 153.26 31.57 153.61 36.9 153.95 39.27 154.3 40.46 154.65 40.46 155 46.39 155.35 50.53 155.7 51.13 156.05 51.72 156.4 54.68 156.75 55.87 157.1 61.2 157.45 64.16 157.79 58.83 158.14 57.64 158.49 58.83 158.84 54.68 159.19 53.5 159.54 50.53 159.89 48.76 160.24 53.5 160.59 51.72 160.94 47.57 161.29 45.2 161.64 37.5 161.98 31.57 162.33 26.24 162.68 27.42 163.03 28.61 163.38 28.61 163.73 29.79 164.08 23.87 164.43 19.72 164.78 24.46 165.13 20.91 165.48 25.65 165.83 19.13 166.17 19.13 166.52 19.13 166.87 21.5 167.22 26.24 167.57 28.02 167.92 32.76 168.27 34.53 168.62 38.68 168.97 32.16 169.32 33.94 169.67 35.13 170.01 37.5 170.36 34.53 170.71 33.94 171.06 35.13 171.41 40.46 171.76 38.68 172.11 33.94 172.46 30.98 172.81 32.16 173.16 30.39 173.51 29.79 173.86 32.16 174.2 30.98 174.55 32.76 174.9 26.83 175.25 23.28 175.6 23.87 175.95 26.24 176.3 22.68 176.65 21.5 177 23.87 177.35 23.28 177.7 27.42 178.04 23.87 178.39 23.28 178.74 23.28 179.09 26.24 179.44 29.2 179.79 27.42 180.14 26.83 180.49 32.16 180.84 33.35 181.19 32.16 181.54 32.76 181.89 34.53 182.23 37.5 182.58 36.9 182.93 28.61 183.28 30.98 183.63 29.79 183.98 29.2 184.33 33.94 184.68 35.13 185.03 37.5 185.38 39.27 185.73 32.76 186.08 31.57 186.42 36.31 186.77 39.27 187.12 38.68 187.47 40.46 187.82 39.27 188.17 32.76 188.52 32.16 188.87 35.13 189.22 38.09 189.57 33.94 189.92 25.05 190.26 25.05 190.61 22.68 190.96 17.35 191.31 16.76 191.66 15.57 192.01 16.17 192.36 16.17 192.71 16.17 193.06 20.31 193.41 19.13 193.76 19.13 194.11 20.91 194.45 17.94 194.8 16.17 195.15 14.98 195.5 15.57 195.85 14.98 196.2 14.39"/>
      </g>
      <g stroke-width="0.3" fill="#000000" fill-opacity="0.000" class="geometry" stroke-dasharray="none" stroke="#ABDDA4" id="img-b083b1a9-12">
        <path fill="none" d="M21.98,71.86 L 22.33 73.05 22.68 71.27 23.03 70.68 23.38 73.05 23.73 78.38 24.08 75.42 24.42 78.38 24.77 74.83 25.12 75.42 25.47 67.72 25.82 64.75 26.17 67.72 26.52 60.61 26.87 64.75 27.22 62.98 27.57 57.64 27.92 51.72 28.27 42.83 28.61 46.98 28.96 49.35 29.31 49.35 29.66 56.46 30.01 57.05 30.36 54.68 30.71 49.94 31.06 49.94 31.41 50.53 31.76 51.13 32.11 50.53 32.45 53.5 32.8 54.09 33.15 54.68 33.5 60.61 33.85 60.01 34.2 60.61 34.55 58.83 34.9 58.24 35.25 64.16 35.6 57.05 35.95 55.27 36.3 54.68 36.64 51.72 36.99 53.5 37.34 43.42 37.69 43.42 38.04 41.05 38.39 42.24 38.74 37.5 39.09 35.13 39.44 36.9 39.79 37.5 40.14 33.94 40.49 33.35 40.83 32.16 41.18 29.79 41.53 30.98 41.88 31.57 42.23 27.42 42.58 25.05 42.93 25.65 43.28 23.28 43.63 22.68 43.98 22.09 44.33 18.54 44.67 20.31 45.02 22.68 45.37 23.87 45.72 25.05 46.07 25.05 46.42 25.65 46.77 25.65 47.12 23.87 47.47 19.72 47.82 19.13 48.17 19.72 48.52 23.28 48.86 19.13 49.21 18.54 49.56 19.72 49.91 19.72 50.26 17.94 50.61 18.54 50.96 16.76 51.31 17.94 51.66 19.13 52.01 23.28 52.36 25.05 52.7 23.87 53.05 26.83 53.4 27.42 53.75 30.98 54.1 26.83 54.45 28.61 54.8 27.42 55.15 25.65 55.5 22.68 55.85 17.35 56.2 17.35 56.55 16.76 56.89 14.98 57.24 14.98 57.59 14.98 57.94 13.8 58.29 13.2 58.64 12.61 58.99 13.2 59.34 13.8 59.69 14.39 60.04 15.57 60.39 14.98 60.73 16.17 61.08 17.35 61.43 19.13 61.78 19.13 62.13 17.94 62.48 19.13 62.83 16.76 63.18 17.94 63.53 17.94 63.88 16.17 64.23 15.57 64.58 14.39 64.92 12.61 65.27 12.61 65.62 12.61 65.97 12.61 66.32 12.61 66.67 13.2 67.02 13.2 67.37 12.61 67.72 12.61 68.07 12.61 68.42 12.61 68.77 12.61 69.11 12.61 69.46 12.61 69.81 12.61 70.16 12.61 70.51 12.61 70.86 12.61 71.21 13.8 71.56 12.61 71.91 12.61 72.26 12.61 72.61 12.61 72.95 12.61 73.3 12.61 73.65 12.61 74 12.61 74.35 12.61 74.7 12.61 75.05 12.61 75.4 12.61 75.75 12.61 76.1 12.61 76.45 12.61 76.8 12.61 77.14 12.61 77.49 12.61 77.84 12.61 78.19 13.2 78.54 13.8 78.89 15.57 79.24 15.57 79.59 14.39 79.94 14.39 80.29 13.2 80.64 13.8 80.98 13.8 81.33 13.8 81.68 13.8 82.03 13.8 82.38 13.8 82.73 17.35 83.08 14.98 83.43 18.54 83.78 19.13 84.13 17.94 84.48 17.35 84.83 17.35 85.17 18.54 85.52 20.31 85.87 20.31 86.22 18.54 86.57 19.72 86.92 15.57 87.27 14.98 87.62 14.39 87.97 16.76 88.32 17.94 88.67 16.76 89.02 15.57 89.36 14.98 89.71 15.57 90.06 16.17 90.41 15.57 90.76 13.8 91.11 12.61 91.46 12.61 91.81 12.61 92.16 12.61 92.51 12.61 92.86 12.61 93.2 12.61 93.55 12.61 93.9 12.61 94.25 13.2 94.6 12.61 94.95 12.61 95.3 12.61 95.65 12.61 96 13.8 96.35 13.8 96.7 13.8 97.05 13.2 97.39 13.2 97.74 12.61 98.09 12.61 98.44 12.61 98.79 14.39 99.14 17.35 99.49 16.17 99.84 17.35 100.19 17.35 100.54 18.54 100.89 19.13 101.23 21.5 101.58 22.09 101.93 27.42 102.28 26.24 102.63 26.24 102.98 28.61 103.33 36.31 103.68 35.72 104.03 38.09 104.38 38.09 104.73 41.05 105.08 44.61 105.42 45.2 105.77 45.2 106.12 42.24 106.47 44.02 106.82 46.98 107.17 44.61 107.52 44.02 107.87 45.79 108.22 42.83 108.57 39.27 108.92 46.39 109.26 49.94 109.61 48.16 109.96 49.35 110.31 58.24 110.66 55.87 111.01 55.27 111.36 54.09 111.71 49.35 112.06 47.57 112.41 48.76 112.76 52.9 113.11 44.02 113.45 48.76 113.8 48.76 114.15 46.39 114.5 44.61 114.85 44.61 115.2 41.64 115.55 42.83 115.9 51.72 116.25 51.13 116.6 52.31 116.95 49.94 117.3 47.57 117.64 51.72 117.99 48.76 118.34 49.94 118.69 48.76 119.04 52.31 119.39 57.05 119.74 49.94 120.09 51.72 120.44 53.5 120.79 59.42 121.14 55.87 121.48 54.68 121.83 55.87 122.18 49.94 122.53 45.2 122.88 41.64 123.23 41.05 123.58 36.9 123.93 38.09 124.28 41.05 124.63 38.09 124.98 39.87 125.33 42.83 125.67 45.79 126.02 47.57 126.37 48.16 126.72 46.39 127.07 46.39 127.42 45.79 127.77 42.24 128.12 41.64 128.47 39.87 128.82 39.27 129.17 40.46 129.51 38.68 129.86 37.5 130.21 38.09 130.56 29.2 130.91 29.79 131.26 33.35 131.61 32.16 131.96 28.61 132.31 26.24 132.66 26.83 133.01 30.98 133.36 34.53 133.7 30.98 134.05 28.61 134.4 25.65 134.75 23.28 135.1 25.05 135.45 31.57 135.8 32.16 136.15 30.39 136.5 31.57 136.85 32.16 137.2 28.61 137.55 28.02 137.89 28.02 138.24 30.39 138.59 30.39 138.94 36.31 139.29 35.72 139.64 38.09 139.99 38.68 140.34 36.9 140.69 30.98 141.04 33.35 141.39 35.13 141.73 42.24 142.08 38.68 142.43 43.42 142.78 44.61 143.13 36.9 143.48 35.13 143.83 36.9 144.18 36.9 144.53 40.46 144.88 39.27 145.23 45.79 145.58 51.13 145.92 58.24 146.27 53.5 146.62 57.05 146.97 51.72 147.32 49.94 147.67 51.72 148.02 48.76 148.37 52.31 148.72 55.27 149.07 57.05 149.42 60.01 149.76 60.61 150.11 59.42 150.46 58.83 150.81 54.09 151.16 55.87 151.51 52.9 151.86 52.9 152.21 52.9 152.56 55.27 152.91 54.68 153.26 58.83 153.61 62.98 153.95 61.79 154.3 61.79 154.65 62.38 155 64.75 155.35 66.53 155.7 73.64 156.05 72.46 156.4 65.94 156.75 65.35 157.1 69.49 157.45 62.98 157.79 64.75 158.14 68.31 158.49 75.42 158.84 65.94 159.19 70.68 159.54 73.64 159.89 80.16 160.24 73.64 160.59 69.49 160.94 58.83 161.29 59.42 161.64 57.64 161.98 59.42 162.33 60.01 162.68 65.94 163.03 58.83 163.38 58.24 163.73 59.42 164.08 59.42 164.43 57.64 164.78 56.46 165.13 58.24 165.48 53.5 165.83 46.39 166.17 42.24 166.52 37.5 166.87 29.2 167.22 30.39 167.57 26.83 167.92 29.2 168.27 30.98 168.62 30.39 168.97 30.39 169.32 34.53 169.67 35.13 170.01 33.94 170.36 29.79 170.71 25.65 171.06 23.87 171.41 20.31 171.76 18.54 172.11 19.72 172.46 19.72 172.81 16.17 173.16 13.8 173.51 16.76 173.86 17.94 174.2 22.68 174.55 18.54 174.9 19.13 175.25 20.31 175.6 19.13 175.95 19.72 176.3 19.13 176.65 17.35 177 14.39 177.35 14.39 177.7 13.8 178.04 13.2 178.39 13.2 178.74 12.61 179.09 12.61 179.44 12.61 179.79 14.98 180.14 14.39 180.49 13.2 180.84 13.8 181.19 13.8 181.54 13.2 181.89 12.61 182.23 12.61 182.58 12.61 182.93 12.61 183.28 12.61 183.63 12.61 183.98 12.61 184.33 13.8 184.68 13.8 185.03 13.2 185.38 13.2 185.73 13.8 186.08 13.8 186.42 13.8 186.77 14.39 187.12 14.98 187.47 16.17 187.82 19.72 188.17 19.72 188.52 22.68 188.87 28.02 189.22 25.65 189.57 25.05 189.92 24.46 190.26 22.09 190.61 25.65 190.96 23.87 191.31 26.83 191.66 25.65 192.01 25.65 192.36 23.28 192.71 24.46 193.06 23.28 193.41 21.5 193.76 19.13 194.11 20.91 194.45 22.09 194.8 19.13 195.15 19.13 195.5 15.57 195.85 14.98 196.2 13.2"/>
      </g>
      <g stroke-width="0.3" fill="#000000" fill-opacity="0.000" class="geometry" stroke-dasharray="none" stroke="#E6F598" id="img-b083b1a9-13">
        <path fill="none" d="M21.98,71.86 L 22.33 73.64 22.68 83.71 23.03 86.08 23.38 87.86 23.73 90.23 24.08 86.08 24.42 95.56 24.77 92.6 25.12 90.82 25.47 94.38 25.82 95.56 26.17 99.71 26.52 98.53 26.87 105.04 27.22 107.41 27.57 105.64 27.92 109.19 28.27 112.15 28.61 112.75 28.96 112.75 29.31 111.56 29.66 113.34 30.01 113.93 30.36 113.34 30.71 108.6 31.06 110.38 31.41 109.19 31.76 111.56 32.11 102.67 32.45 107.41 32.8 105.04 33.15 111.56 33.5 109.19 33.85 113.34 34.2 113.93 34.55 113.93 34.9 110.38 35.25 109.19 35.6 105.64 35.95 105.04 36.3 103.86 36.64 106.82 36.99 109.78 37.34 110.38 37.69 110.97 38.04 113.93 38.39 114.52 38.74 119.26 39.09 117.49 39.44 122.23 39.79 120.45 40.14 122.23 40.49 124 40.83 125.78 41.18 126.97 41.53 128.74 41.88 127.56 42.23 125.78 42.58 127.56 42.93 128.15 43.28 128.74 43.63 125.19 43.98 122.82 44.33 122.23 44.67 123.41 45.02 121.04 45.37 119.86 45.72 120.45 46.07 124 46.42 123.41 46.77 121.04 47.12 118.08 47.47 121.04 47.82 125.19 48.17 123.41 48.52 123.41 48.86 122.82 49.21 122.82 49.56 122.23 49.91 121.63 50.26 121.04 50.61 125.19 50.96 124.6 51.31 121.04 51.66 121.63 52.01 119.26 52.36 120.45 52.7 119.86 53.05 122.82 53.4 124 53.75 123.41 54.1 125.78 54.45 126.97 54.8 128.15 55.15 125.19 55.5 128.15 55.85 126.97 56.2 126.37 56.55 126.97 56.89 128.15 57.24 128.15 57.59 128.15 57.94 128.15 58.29 128.74 58.64 127.56 58.99 130.52 59.34 129.93 59.69 130.52 60.04 130.52 60.39 130.52 60.73 130.52 61.08 130.52 61.43 131.11 61.78 131.11 62.13 131.11 62.48 131.11 62.83 131.11 63.18 130.52 63.53 129.93 63.88 129.34 64.23 130.52 64.58 129.93 64.92 130.52 65.27 129.93 65.62 129.93 65.97 131.11 66.32 131.11 66.67 131.11 67.02 131.11 67.37 131.11 67.72 131.11 68.07 131.11 68.42 131.11 68.77 131.11 69.11 131.11 69.46 131.11 69.81 131.11 70.16 131.11 70.51 131.11 70.86 131.11 71.21 131.11 71.56 131.11 71.91 131.11 72.26 131.11 72.61 131.11 72.95 131.11 73.3 131.11 73.65 131.11 74 131.11 74.35 131.11 74.7 131.11 75.05 131.11 75.4 131.11 75.75 129.93 76.1 129.34 76.45 127.56 76.8 126.97 77.14 127.56 77.49 126.97 77.84 128.74 78.19 131.11 78.54 131.11 78.89 131.11 79.24 131.11 79.59 131.11 79.94 131.11 80.29 131.11 80.64 131.11 80.98 131.11 81.33 131.11 81.68 131.11 82.03 131.11 82.38 131.11 82.73 131.11 83.08 131.11 83.43 131.11 83.78 131.11 84.13 131.11 84.48 131.11 84.83 131.11 85.17 130.52 85.52 129.93 85.87 129.93 86.22 127.56 86.57 128.74 86.92 131.11 87.27 131.11 87.62 131.11 87.97 131.11 88.32 131.11 88.67 131.11 89.02 131.11 89.36 131.11 89.71 131.11 90.06 131.11 90.41 131.11 90.76 131.11 91.11 131.11 91.46 131.11 91.81 131.11 92.16 131.11 92.51 131.11 92.86 131.11 93.2 131.11 93.55 131.11 93.9 131.11 94.25 130.52 94.6 130.52 94.95 129.34 95.3 129.34 95.65 127.56 96 127.56 96.35 128.74 96.7 128.15 97.05 126.37 97.39 125.19 97.74 126.97 98.09 124.6 98.44 122.82 98.79 121.04 99.14 120.45 99.49 117.49 99.84 114.52 100.19 115.12 100.54 113.93 100.89 118.08 101.23 116.3 101.58 116.3 101.93 117.49 102.28 115.71 102.63 115.12 102.98 118.67 103.33 122.82 103.68 125.19 104.03 127.56 104.38 129.34 104.73 128.74 105.08 129.34 105.42 129.34 105.77 128.74 106.12 128.74 106.47 128.74 106.82 130.52 107.17 129.93 107.52 131.11 107.87 131.11 108.22 131.11 108.57 131.11 108.92 131.11 109.26 131.11 109.61 131.11 109.96 131.11 110.31 131.11 110.66 131.11 111.01 131.11 111.36 130.52 111.71 130.52 112.06 131.11 112.41 131.11 112.76 131.11 113.11 129.93 113.45 129.93 113.8 129.93 114.15 131.11 114.5 131.11 114.85 131.11 115.2 131.11 115.55 131.11 115.9 131.11 116.25 131.11 116.6 129.93 116.95 130.52 117.3 129.93 117.64 130.52 117.99 130.52 118.34 130.52 118.69 130.52 119.04 129.93 119.39 128.74 119.74 129.34 120.09 128.15 120.44 126.97 120.79 126.97 121.14 125.78 121.48 125.78 121.83 128.74 122.18 129.93 122.53 129.34 122.88 129.34 123.23 129.34 123.58 131.11 123.93 131.11 124.28 131.11 124.63 131.11 124.98 131.11 125.33 130.52 125.67 131.11 126.02 130.52 126.37 130.52 126.72 131.11 127.07 131.11 127.42 131.11 127.77 131.11 128.12 131.11 128.47 131.11 128.82 131.11 129.17 131.11 129.51 131.11 129.86 131.11 130.21 131.11 130.56 131.11 130.91 129.93 131.26 129.93 131.61 129.93 131.96 130.52 132.31 129.93 132.66 130.52 133.01 130.52 133.36 130.52 133.7 129.34 134.05 128.15 134.4 129.34 134.75 127.56 135.1 127.56 135.45 128.15 135.8 130.52 136.15 128.15 136.5 129.34 136.85 128.74 137.2 128.15 137.55 129.34 137.89 128.15 138.24 128.74 138.59 129.34 138.94 128.74 139.29 129.93 139.64 129.93 139.99 130.52 140.34 130.52 140.69 129.34 141.04 129.93 141.39 130.52 141.73 129.93 142.08 129.34 142.43 129.34 142.78 128.74 143.13 129.34 143.48 127.56 143.83 129.34 144.18 130.52 144.53 130.52 144.88 130.52 145.23 130.52 145.58 130.52 145.92 131.11 146.27 131.11 146.62 131.11 146.97 131.11 147.32 131.11 147.67 131.11 148.02 131.11 148.37 131.11 148.72 131.11 149.07 131.11 149.42 131.11 149.76 131.11 150.11 131.11 150.46 131.11 150.81 131.11 151.16 131.11 151.51 131.11 151.86 130.52 152.21 130.52 152.56 128.74 152.91 128.15 153.26 128.15 153.61 128.15 153.95 128.74 154.3 129.34 154.65 128.74 155 128.74 155.35 128.15 155.7 128.74 156.05 127.56 156.4 129.34 156.75 129.34 157.1 127.56 157.45 127.56 157.79 127.56 158.14 128.74 158.49 128.15 158.84 129.34 159.19 128.15 159.54 127.56 159.89 129.34 160.24 129.34 160.59 126.97 160.94 128.74 161.29 129.34 161.64 129.93 161.98 130.52 162.33 130.52 162.68 129.34 163.03 129.34 163.38 128.15 163.73 128.15 164.08 126.37 164.43 126.37 164.78 126.37 165.13 128.74 165.48 128.74 165.83 128.74 166.17 129.34 166.52 128.74 166.87 128.74 167.22 126.37 167.57 126.97 167.92 127.56 168.27 126.37 168.62 126.97 168.97 126.97 169.32 126.37 169.67 122.82 170.01 120.45 170.36 125.19 170.71 124.6 171.06 126.97 171.41 126.97 171.76 129.93 172.11 130.52 172.46 130.52 172.81 131.11 173.16 131.11 173.51 131.11 173.86 131.11 174.2 131.11 174.55 131.11 174.9 131.11 175.25 131.11 175.6 131.11 175.95 131.11 176.3 131.11 176.65 131.11 177 131.11 177.35 131.11 177.7 131.11 178.04 131.11 178.39 131.11 178.74 131.11 179.09 131.11 179.44 131.11 179.79 131.11 180.14 131.11 180.49 131.11 180.84 131.11 181.19 131.11 181.54 131.11 181.89 131.11 182.23 130.52 182.58 130.52 182.93 130.52 183.28 129.34 183.63 129.93 183.98 129.93 184.33 128.74 184.68 128.15 185.03 130.52 185.38 129.93 185.73 126.97 186.08 126.97 186.42 126.37 186.77 128.74 187.12 129.93 187.47 129.93 187.82 129.93 188.17 130.52 188.52 130.52 188.87 129.93 189.22 131.11 189.57 131.11 189.92 131.11 190.26 131.11 190.61 131.11 190.96 131.11 191.31 131.11 191.66 131.11 192.01 131.11 192.36 130.52 192.71 130.52 193.06 131.11 193.41 129.93 193.76 129.93 194.11 129.34 194.45 130.52 194.8 130.52 195.15 131.11 195.5 131.11 195.85 130.52 196.2 129.93"/>
      </g>
      <g stroke-width="0.3" fill="#000000" fill-opacity="0.000" class="geometry" stroke-dasharray="none" stroke="#FFFFBF" id="img-b083b1a9-14">
        <path fill="none" d="M21.98,71.86 L 22.33 76.6 22.68 80.16 23.03 74.23 23.38 80.75 23.73 86.68 24.08 89.64 24.42 100.9 24.77 96.75 25.12 94.38 25.47 92.01 25.82 97.93 26.17 100.9 26.52 102.08 26.87 106.23 27.22 105.64 27.57 106.23 27.92 108.6 28.27 110.97 28.61 106.82 28.96 106.82 29.31 102.67 29.66 98.53 30.01 104.45 30.36 102.67 30.71 104.45 31.06 108.01 31.41 107.41 31.76 111.56 32.11 110.38 32.45 116.3 32.8 116.3 33.15 115.71 33.5 116.3 33.85 115.71 34.2 114.52 34.55 109.78 34.9 108.01 35.25 109.78 35.6 113.93 35.95 109.78 36.3 113.93 36.64 114.52 36.99 115.12 37.34 110.97 37.69 111.56 38.04 110.97 38.39 116.3 38.74 118.08 39.09 119.86 39.44 121.04 39.79 122.23 40.14 126.97 40.49 126.97 40.83 125.78 41.18 126.37 41.53 125.78 41.88 126.37 42.23 126.37 42.58 128.74 42.93 130.52 43.28 129.93 43.63 130.52 43.98 130.52 44.33 131.11 44.67 131.11 45.02 131.11 45.37 131.11 45.72 131.11 46.07 131.11 46.42 131.11 46.77 131.11 47.12 131.11 47.47 131.11 47.82 131.11 48.17 131.11 48.52 131.11 48.86 131.11 49.21 131.11 49.56 131.11 49.91 130.52 50.26 131.11 50.61 131.11 50.96 131.11 51.31 131.11 51.66 131.11 52.01 131.11 52.36 131.11 52.7 131.11 53.05 129.93 53.4 130.52 53.75 130.52 54.1 129.93 54.45 130.52 54.8 129.34 55.15 129.34 55.5 128.15 55.85 128.15 56.2 130.52 56.55 129.93 56.89 130.52 57.24 129.93 57.59 129.34 57.94 129.34 58.29 130.52 58.64 130.52 58.99 131.11 59.34 131.11 59.69 131.11 60.04 131.11 60.39 131.11 60.73 130.52 61.08 131.11 61.43 131.11 61.78 131.11 62.13 131.11 62.48 130.52 62.83 130.52 63.18 130.52 63.53 130.52 63.88 131.11 64.23 131.11 64.58 131.11 64.92 131.11 65.27 131.11 65.62 131.11 65.97 129.34 66.32 128.15 66.67 130.52 67.02 130.52 67.37 130.52 67.72 130.52 68.07 128.74 68.42 129.34 68.77 126.97 69.11 124.6 69.46 125.19 69.81 127.56 70.16 128.74 70.51 126.97 70.86 124.6 71.21 124 71.56 122.82 71.91 122.82 72.26 119.26 72.61 118.67 72.95 116.3 73.3 118.08 73.65 115.71 74 118.67 74.35 119.86 74.7 121.04 75.05 121.04 75.4 116.89 75.75 116.3 76.1 113.93 76.45 119.26 76.8 115.71 77.14 113.34 77.49 114.52 77.84 118.08 78.19 113.34 78.54 110.97 78.89 110.97 79.24 110.38 79.59 113.93 79.94 114.52 80.29 115.71 80.64 115.71 80.98 118.08 81.33 113.34 81.68 115.71 82.03 118.67 82.38 115.12 82.73 112.75 83.08 113.34 83.43 114.52 83.78 109.19 84.13 108.6 84.48 104.45 84.83 103.27 85.17 105.64 85.52 110.97 85.87 105.04 86.22 100.3 86.57 100.9 86.92 102.08 87.27 93.79 87.62 93.19 87.97 94.97 88.32 96.16 88.67 99.12 89.02 97.34 89.36 95.56 89.71 93.79 90.06 83.71 90.41 87.27 90.76 87.86 91.11 88.45 91.46 88.45 91.81 88.45 92.16 83.71 92.51 84.9 92.86 86.68 93.2 80.16 93.55 83.71 93.9 90.23 94.25 87.27 94.6 89.64 94.95 90.23 95.3 89.05 95.65 84.9 96 87.27 96.35 86.08 96.7 81.94 97.05 78.97 97.39 70.68 97.74 71.27 98.09 73.05 98.44 73.64 98.79 61.79 99.14 57.05 99.49 58.24 99.84 54.09 100.19 51.72 100.54 50.53 100.89 52.31 101.23 58.24 101.58 55.27 101.93 57.64 102.28 65.94 102.63 56.46 102.98 56.46 103.33 59.42 103.68 51.72 104.03 50.53 104.38 54.09 104.73 52.31 105.08 53.5 105.42 55.87 105.77 57.64 106.12 56.46 106.47 55.27 106.82 48.76 107.17 48.76 107.52 42.24 107.87 41.64 108.22 42.24 108.57 42.83 108.92 41.64 109.26 38.09 109.61 38.68 109.96 44.61 110.31 49.35 110.66 40.46 111.01 37.5 111.36 38.68 111.71 39.27 112.06 35.72 112.41 32.16 112.76 29.2 113.11 26.83 113.45 28.61 113.8 32.16 114.15 26.24 114.5 29.79 114.85 29.2 115.2 34.53 115.55 36.31 115.9 37.5 116.25 35.13 116.6 36.31 116.95 41.64 117.3 44.02 117.64 46.98 117.99 51.13 118.34 53.5 118.69 55.27 119.04 51.72 119.39 55.87 119.74 58.83 120.09 61.2 120.44 60.61 120.79 60.01 121.14 60.61 121.48 58.83 121.83 64.75 122.18 65.35 122.53 61.2 122.88 56.46 123.23 56.46 123.58 57.05 123.93 56.46 124.28 58.24 124.63 57.64 124.98 57.05 125.33 52.31 125.67 57.05 126.02 62.38 126.37 62.38 126.72 63.57 127.07 53.5 127.42 46.98 127.77 50.53 128.12 53.5 128.47 42.24 128.82 47.57 129.17 45.2 129.51 46.39 129.86 45.2 130.21 44.02 130.56 46.39 130.91 48.76 131.26 48.16 131.61 47.57 131.96 46.39 132.31 42.83 132.66 36.31 133.01 35.72 133.36 30.98 133.7 32.76 134.05 32.76 134.4 33.94 134.75 37.5 135.1 33.94 135.45 35.13 135.8 32.16 136.15 30.98 136.5 27.42 136.85 29.2 137.2 29.79 137.55 30.39 137.89 29.79 138.24 26.83 138.59 23.87 138.94 23.87 139.29 23.87 139.64 24.46 139.99 20.91 140.34 23.28 140.69 22.68 141.04 19.72 141.39 23.87 141.73 25.65 142.08 22.09 142.43 21.5 142.78 20.91 143.13 16.76 143.48 19.13 143.83 15.57 144.18 16.76 144.53 14.98 144.88 14.98 145.23 13.8 145.58 14.39 145.92 16.17 146.27 16.76 146.62 17.35 146.97 16.17 147.32 14.39 147.67 14.98 148.02 15.57 148.37 17.94 148.72 18.54 149.07 16.17 149.42 16.17 149.76 14.98 150.11 13.8 150.46 13.2 150.81 14.39 151.16 15.57 151.51 16.76 151.86 17.94 152.21 20.31 152.56 21.5 152.91 18.54 153.26 18.54 153.61 20.91 153.95 22.09 154.3 23.28 154.65 25.05 155 23.87 155.35 26.24 155.7 28.02 156.05 28.02 156.4 25.05 156.75 26.83 157.1 28.61 157.45 32.16 157.79 34.53 158.14 36.9 158.49 36.31 158.84 38.68 159.19 36.31 159.54 34.53 159.89 31.57 160.24 28.61 160.59 30.39 160.94 32.76 161.29 28.61 161.64 28.02 161.98 28.61 162.33 28.61 162.68 26.24 163.03 30.39 163.38 26.24 163.73 31.57 164.08 28.02 164.43 28.02 164.78 35.13 165.13 36.9 165.48 31.57 165.83 31.57 166.17 35.13 166.52 33.35 166.87 33.35 167.22 33.94 167.57 35.13 167.92 32.16 168.27 31.57 168.62 35.13 168.97 33.94 169.32 34.53 169.67 39.27 170.01 45.2 170.36 45.79 170.71 50.53 171.06 48.76 171.41 44.61 171.76 47.57 172.11 56.46 172.46 54.09 172.81 61.79 173.16 61.79 173.51 65.94 173.86 61.79 174.2 64.16 174.55 67.12 174.9 63.57 175.25 65.35 175.6 62.38 175.95 58.83 176.3 57.05 176.65 57.05 177 57.64 177.35 55.87 177.7 57.05 178.04 54.09 178.39 56.46 178.74 53.5 179.09 51.13 179.44 50.53 179.79 56.46 180.14 55.27 180.49 54.68 180.84 57.64 181.19 54.09 181.54 57.05 181.89 57.64 182.23 65.94 182.58 74.83 182.93 72.46 183.28 80.75 183.63 76.01 183.98 81.34 184.33 77.79 184.68 70.09 185.03 67.12 185.38 62.38 185.73 60.61 186.08 68.31 186.42 70.68 186.77 73.64 187.12 78.38 187.47 80.16 187.82 78.97 188.17 78.97 188.52 76.6 188.87 76.01 189.22 78.38 189.57 77.2 189.92 71.27 190.26 68.9 190.61 73.05 190.96 76.6 191.31 73.64 191.66 67.12 192.01 68.31 192.36 73.64 192.71 74.23 193.06 75.42 193.41 77.2 193.76 77.79 194.11 80.16 194.45 81.94 194.8 89.05 195.15 92.01 195.5 87.86 195.85 91.42 196.2 90.23"/>
      </g>
      <g stroke-width="0.3" fill="#000000" fill-opacity="0.000" class="geometry" stroke-dasharray="none" stroke="#FEE08B" id="img-b083b1a9-15">
        <path fill="none" d="M21.98,71.86 L 22.33 71.86 22.68 72.46 23.03 73.05 23.38 72.46 23.73 73.64 24.08 68.9 24.42 74.83 24.77 78.38 25.12 80.16 25.47 84.9 25.82 92.01 26.17 93.19 26.52 91.42 26.87 90.82 27.22 92.6 27.57 86.08 27.92 84.31 28.27 86.08 28.61 82.53 28.96 76.6 29.31 74.23 29.66 74.83 30.01 80.16 30.36 76.6 30.71 75.42 31.06 74.83 31.41 78.38 31.76 83.71 32.11 82.53 32.45 78.97 32.8 77.2 33.15 67.12 33.5 65.94 33.85 70.09 34.2 71.27 34.55 73.64 34.9 76.6 35.25 75.42 35.6 77.79 35.95 79.57 36.3 81.34 36.64 74.83 36.99 71.86 37.34 72.46 37.69 74.23 38.04 76.6 38.39 79.57 38.74 69.49 39.09 65.94 39.44 67.72 39.79 69.49 40.14 68.31 40.49 66.53 40.83 68.9 41.18 72.46 41.53 68.9 41.88 67.12 42.23 68.31 42.58 68.31 42.93 70.09 43.28 65.35 43.63 62.38 43.98 62.38 44.33 53.5 44.67 52.9 45.02 55.27 45.37 60.61 45.72 67.72 46.07 67.12 46.42 67.12 46.77 62.38 47.12 57.64 47.47 55.87 47.82 55.87 48.17 54.68 48.52 49.35 48.86 48.76 49.21 52.31 49.56 49.35 49.91 51.72 50.26 52.9 50.61 44.02 50.96 45.79 51.31 45.79 51.66 42.83 52.01 35.72 52.36 32.16 52.7 33.94 53.05 30.98 53.4 32.16 53.75 34.53 54.1 39.27 54.45 46.98 54.8 50.53 55.15 44.61 55.5 41.05 55.85 44.61 56.2 45.79 56.55 44.61 56.89 45.2 57.24 45.2 57.59 46.98 57.94 47.57 58.29 41.64 58.64 41.05 58.99 51.13 59.34 56.46 59.69 58.83 60.04 57.05 60.39 51.13 60.73 46.39 61.08 48.76 61.43 45.79 61.78 41.05 62.13 38.09 62.48 39.27 62.83 40.46 63.18 36.9 63.53 39.87 63.88 41.64 64.23 36.9 64.58 38.68 64.92 38.09 65.27 38.68 65.62 36.9 65.97 31.57 66.32 30.39 66.67 27.42 67.02 28.02 67.37 29.79 67.72 32.16 68.07 33.94 68.42 31.57 68.77 35.13 69.11 34.53 69.46 29.2 69.81 33.35 70.16 33.35 70.51 33.94 70.86 35.72 71.21 32.16 71.56 33.94 71.91 33.35 72.26 41.05 72.61 46.98 72.95 45.2 73.3 41.05 73.65 36.31 74 33.35 74.35 30.98 74.7 33.35 75.05 34.53 75.4 37.5 75.75 36.9 76.1 37.5 76.45 38.09 76.8 39.27 77.14 36.31 77.49 37.5 77.84 44.61 78.19 46.39 78.54 59.42 78.89 57.64 79.24 52.31 79.59 54.09 79.94 55.87 80.29 49.94 80.64 45.79 80.98 50.53 81.33 49.35 81.68 44.61 82.03 45.79 82.38 46.98 82.73 42.83 83.08 39.87 83.43 39.87 83.78 47.57 84.13 46.39 84.48 42.24 84.83 38.09 85.17 33.35 85.52 33.94 85.87 35.13 86.22 37.5 86.57 40.46 86.92 47.57 87.27 53.5 87.62 51.13 87.97 53.5 88.32 58.83 88.67 64.16 89.02 54.68 89.36 54.09 89.71 55.27 90.06 56.46 90.41 53.5 90.76 55.27 91.11 63.57 91.46 65.35 91.81 68.9 92.16 62.98 92.51 68.9 92.86 71.27 93.2 68.9 93.55 71.27 93.9 69.49 94.25 74.83 94.6 78.97 94.95 80.75 95.3 82.53 95.65 81.34 96 78.38 96.35 87.27 96.7 89.64 97.05 91.42 97.39 89.64 97.74 87.86 98.09 89.64 98.44 90.82 98.79 87.86 99.14 96.75 99.49 99.71 99.84 101.49 100.19 99.71 100.54 95.56 100.89 91.42 101.23 92.6 101.58 91.42 101.93 92.01 102.28 91.42 102.63 92.01 102.98 94.38 103.33 94.38 103.68 93.79 104.03 98.53 104.38 99.12 104.73 100.3 105.08 96.75 105.42 97.34 105.77 98.53 106.12 98.53 106.47 95.56 106.82 102.08 107.17 105.04 107.52 103.86 107.87 108.6 108.22 105.64 108.57 101.49 108.92 95.56 109.26 90.82 109.61 87.27 109.96 87.27 110.31 89.64 110.66 83.12 111.01 79.57 111.36 73.05 111.71 69.49 112.06 65.94 112.41 59.42 112.76 58.24 113.11 62.38 113.45 62.38 113.8 58.24 114.15 62.38 114.5 66.53 114.85 69.49 115.2 71.86 115.55 71.27 115.9 74.83 116.25 74.83 116.6 70.09 116.95 71.27 117.3 70.09 117.64 76.01 117.99 74.83 118.34 80.75 118.69 82.53 119.04 83.71 119.39 76.6 119.74 72.46 120.09 68.9 120.44 64.75 120.79 69.49 121.14 73.05 121.48 65.94 121.83 70.68 122.18 65.35 122.53 57.64 122.88 59.42 123.23 62.98 123.58 58.24 123.93 52.31 124.28 43.42 124.63 45.79 124.98 46.39 125.33 42.24 125.67 48.76 126.02 48.16 126.37 51.13 126.72 55.87 127.07 50.53 127.42 56.46 127.77 54.68 128.12 63.57 128.47 64.75 128.82 67.12 129.17 70.68 129.51 74.23 129.86 76.01 130.21 73.05 130.56 74.83 130.91 78.38 131.26 73.05 131.61 67.12 131.96 59.42 132.31 60.61 132.66 60.01 133.01 62.38 133.36 63.57 133.7 70.09 134.05 65.35 134.4 64.16 134.75 60.01 135.1 58.24 135.45 60.01 135.8 63.57 136.15 65.35 136.5 60.01 136.85 63.57 137.2 64.16 137.55 60.01 137.89 57.05 138.24 55.27 138.59 54.68 138.94 54.68 139.29 55.27 139.64 54.68 139.99 54.09 140.34 54.68 140.69 50.53 141.04 56.46 141.39 61.2 141.73 60.61 142.08 57.64 142.43 55.27 142.78 51.13 143.13 46.39 143.48 54.68 143.83 60.01 144.18 57.05 144.53 55.27 144.88 60.01 145.23 62.98 145.58 67.12 145.92 68.9 146.27 60.01 146.62 63.57 146.97 64.16 147.32 65.94 147.67 64.16 148.02 65.35 148.37 58.83 148.72 60.61 149.07 58.24 149.42 56.46 149.76 55.27 150.11 60.61 150.46 60.61 150.81 56.46 151.16 54.09 151.51 58.24 151.86 55.27 152.21 49.94 152.56 44.02 152.91 39.87 153.26 44.02 153.61 39.27 153.95 44.02 154.3 44.02 154.65 42.24 155 43.42 155.35 44.61 155.7 47.57 156.05 42.83 156.4 44.02 156.75 46.39 157.1 43.42 157.45 48.76 157.79 49.35 158.14 45.2 158.49 48.76 158.84 48.76 159.19 47.57 159.54 49.35 159.89 48.76 160.24 46.98 160.59 41.64 160.94 37.5 161.29 41.05 161.64 45.79 161.98 45.79 162.33 49.35 162.68 51.72 163.03 54.09 163.38 52.9 163.73 52.9 164.08 52.31 164.43 55.27 164.78 61.2 165.13 55.87 165.48 57.05 165.83 58.24 166.17 52.31 166.52 51.72 166.87 55.87 167.22 54.68 167.57 51.72 167.92 55.27 168.27 57.64 168.62 54.09 168.97 52.9 169.32 57.64 169.67 61.2 170.01 61.79 170.36 61.2 170.71 57.64 171.06 55.27 171.41 49.94 171.76 54.09 172.11 58.24 172.46 54.09 172.81 57.05 173.16 58.24 173.51 52.9 173.86 51.72 174.2 49.94 174.55 46.98 174.9 41.64 175.25 42.24 175.6 38.68 175.95 33.35 176.3 32.16 176.65 29.79 177 28.61 177.35 27.42 177.7 32.16 178.04 30.98 178.39 29.79 178.74 29.2 179.09 33.35 179.44 32.76 179.79 28.02 180.14 30.98 180.49 28.02 180.84 28.02 181.19 28.02 181.54 28.61 181.89 26.83 182.23 23.87 182.58 22.09 182.93 20.91 183.28 22.68 183.63 20.91 183.98 19.72 184.33 22.09 184.68 22.09 185.03 22.09 185.38 23.28 185.73 22.09 186.08 19.72 186.42 15.57 186.77 15.57 187.12 14.98 187.47 16.76 187.82 16.17 188.17 15.57 188.52 15.57 188.87 14.39 189.22 15.57 189.57 13.8 189.92 13.8 190.26 13.8 190.61 14.39 190.96 13.8 191.31 16.76 191.66 17.35 192.01 16.17 192.36 15.57 192.71 14.98 193.06 15.57 193.41 16.17 193.76 14.98 194.11 17.35 194.45 17.35 194.8 17.94 195.15 14.39 195.5 12.61 195.85 12.61 196.2 12.61"/>
      </g>
      <g stroke-width="0.3" fill="#000000" fill-opacity="0.000" class="geometry" stroke-dasharray="none" stroke="#FDAE61" id="img-b083b1a9-16">
        <path fill="none" d="M21.98,71.86 L 22.33 71.27 22.68 70.09 23.03 65.35 23.38 64.16 23.73 67.12 24.08 62.98 24.42 68.31 24.77 75.42 25.12 76.6 25.47 75.42 25.82 78.97 26.17 83.12 26.52 81.34 26.87 78.38 27.22 75.42 27.57 74.23 27.92 75.42 28.27 80.75 28.61 80.16 28.96 79.57 29.31 83.71 29.66 82.53 30.01 89.05 30.36 94.97 30.71 100.9 31.06 104.45 31.41 101.49 31.76 96.16 32.11 94.97 32.45 98.53 32.8 100.3 33.15 105.64 33.5 101.49 33.85 105.04 34.2 103.86 34.55 107.41 34.9 113.93 35.25 114.52 35.6 114.52 35.95 112.15 36.3 113.34 36.64 114.52 36.99 109.19 37.34 112.75 37.69 114.52 38.04 113.34 38.39 112.75 38.74 113.93 39.09 116.3 39.44 120.45 39.79 113.93 40.14 115.71 40.49 116.89 40.83 111.56 41.18 111.56 41.53 109.78 41.88 109.78 42.23 105.64 42.58 110.38 42.93 116.3 43.28 115.71 43.63 111.56 43.98 110.97 44.33 113.34 44.67 116.3 45.02 117.49 45.37 116.89 45.72 115.71 46.07 114.52 46.42 116.3 46.77 116.3 47.12 118.67 47.47 120.45 47.82 125.19 48.17 125.78 48.52 119.86 48.86 121.04 49.21 124.6 49.56 124 49.91 124.6 50.26 126.97 50.61 127.56 50.96 125.19 51.31 127.56 51.66 129.93 52.01 130.52 52.36 129.34 52.7 129.34 53.05 129.34 53.4 128.74 53.75 129.93 54.1 130.52 54.45 131.11 54.8 131.11 55.15 131.11 55.5 131.11 55.85 131.11 56.2 131.11 56.55 131.11 56.89 131.11 57.24 131.11 57.59 131.11 57.94 131.11 58.29 131.11 58.64 131.11 58.99 131.11 59.34 131.11 59.69 131.11 60.04 131.11 60.39 131.11 60.73 131.11 61.08 131.11 61.43 131.11 61.78 131.11 62.13 130.52 62.48 129.93 62.83 129.34 63.18 129.34 63.53 129.93 63.88 129.93 64.23 129.93 64.58 129.34 64.92 128.15 65.27 127.56 65.62 128.15 65.97 129.34 66.32 129.34 66.67 129.34 67.02 128.74 67.37 127.56 67.72 127.56 68.07 128.74 68.42 128.74 68.77 129.93 69.11 130.52 69.46 129.93 69.81 129.93 70.16 130.52 70.51 131.11 70.86 131.11 71.21 131.11 71.56 131.11 71.91 131.11 72.26 131.11 72.61 131.11 72.95 130.52 73.3 131.11 73.65 131.11 74 131.11 74.35 131.11 74.7 130.52 75.05 129.93 75.4 129.93 75.75 129.93 76.1 130.52 76.45 129.93 76.8 131.11 77.14 131.11 77.49 131.11 77.84 131.11 78.19 131.11 78.54 131.11 78.89 131.11 79.24 131.11 79.59 131.11 79.94 131.11 80.29 131.11 80.64 131.11 80.98 129.34 81.33 128.74 81.68 128.15 82.03 129.93 82.38 129.93 82.73 128.15 83.08 128.74 83.43 126.97 83.78 126.37 84.13 124.6 84.48 125.78 84.83 126.97 85.17 122.82 85.52 123.41 85.87 122.82 86.22 123.41 86.57 122.82 86.92 123.41 87.27 123.41 87.62 122.23 87.97 119.86 88.32 116.89 88.67 115.12 89.02 113.93 89.36 111.56 89.71 113.93 90.06 119.26 90.41 119.86 90.76 117.49 91.11 118.08 91.46 119.86 91.81 118.67 92.16 121.04 92.51 122.23 92.86 120.45 93.2 123.41 93.55 119.86 93.9 121.04 94.25 121.63 94.6 122.23 94.95 122.23 95.3 121.04 95.65 125.19 96 122.82 96.35 123.41 96.7 125.78 97.05 124.6 97.39 122.23 97.74 119.86 98.09 117.49 98.44 114.52 98.79 118.67 99.14 118.08 99.49 116.89 99.84 110.97 100.19 113.34 100.54 112.75 100.89 111.56 101.23 110.97 101.58 110.38 101.93 113.34 102.28 109.19 102.63 108.6 102.98 112.75 103.33 111.56 103.68 112.75 104.03 118.08 104.38 113.34 104.73 113.34 105.08 113.93 105.42 110.38 105.77 115.71 106.12 115.12 106.47 117.49 106.82 119.26 107.17 118.08 107.52 118.08 107.87 121.63 108.22 125.78 108.57 126.37 108.92 125.78 109.26 124 109.61 126.97 109.96 129.34 110.31 130.52 110.66 131.11 111.01 131.11 111.36 131.11 111.71 130.52 112.06 129.34 112.41 129.34 112.76 129.34 113.11 129.93 113.45 129.34 113.8 129.93 114.15 130.52 114.5 129.93 114.85 130.52 115.2 131.11 115.55 131.11 115.9 131.11 116.25 131.11 116.6 131.11 116.95 131.11 117.3 131.11 117.64 129.34 117.99 129.93 118.34 129.93 118.69 128.74 119.04 127.56 119.39 128.15 119.74 128.74 120.09 128.74 120.44 129.93 120.79 130.52 121.14 130.52 121.48 129.93 121.83 131.11 122.18 131.11 122.53 131.11 122.88 131.11 123.23 131.11 123.58 131.11 123.93 131.11 124.28 131.11 124.63 131.11 124.98 131.11 125.33 131.11 125.67 131.11 126.02 131.11 126.37 131.11 126.72 131.11 127.07 131.11 127.42 131.11 127.77 131.11 128.12 131.11 128.47 130.52 128.82 131.11 129.17 131.11 129.51 131.11 129.86 131.11 130.21 131.11 130.56 131.11 130.91 131.11 131.26 131.11 131.61 131.11 131.96 131.11 132.31 131.11 132.66 131.11 133.01 131.11 133.36 131.11 133.7 130.52 134.05 129.93 134.4 131.11 134.75 131.11 135.1 129.93 135.45 130.52 135.8 129.34 136.15 128.15 136.5 126.37 136.85 124 137.2 124.6 137.55 125.19 137.89 126.97 138.24 126.37 138.59 129.93 138.94 129.93 139.29 129.34 139.64 129.93 139.99 129.93 140.34 129.93 140.69 129.93 141.04 127.56 141.39 129.34 141.73 128.74 142.08 128.15 142.43 128.74 142.78 130.52 143.13 129.93 143.48 131.11 143.83 131.11 144.18 131.11 144.53 131.11 144.88 131.11 145.23 131.11 145.58 131.11 145.92 131.11 146.27 131.11 146.62 131.11 146.97 131.11 147.32 131.11 147.67 131.11 148.02 131.11 148.37 131.11 148.72 129.93 149.07 131.11 149.42 131.11 149.76 131.11 150.11 131.11 150.46 131.11 150.81 131.11 151.16 130.52 151.51 131.11 151.86 131.11 152.21 131.11 152.56 131.11 152.91 130.52 153.26 130.52 153.61 130.52 153.95 129.93 154.3 130.52 154.65 130.52 155 130.52 155.35 131.11 155.7 131.11 156.05 131.11 156.4 131.11 156.75 131.11 157.1 131.11 157.45 131.11 157.79 131.11 158.14 131.11 158.49 129.93 158.84 129.93 159.19 128.74 159.54 129.93 159.89 129.93 160.24 129.93 160.59 129.93 160.94 129.34 161.29 129.34 161.64 131.11 161.98 131.11 162.33 131.11 162.68 131.11 163.03 131.11 163.38 129.93 163.73 129.93 164.08 128.74 164.43 128.74 164.78 129.93 165.13 131.11 165.48 131.11 165.83 131.11 166.17 131.11 166.52 131.11 166.87 131.11 167.22 131.11 167.57 130.52 167.92 129.93 168.27 129.93 168.62 129.34 168.97 128.15 169.32 128.15 169.67 127.56 170.01 125.78 170.36 126.97 170.71 126.97 171.06 129.93 171.41 129.93 171.76 130.52 172.11 128.74 172.46 127.56 172.81 126.97 173.16 126.97 173.51 127.56 173.86 129.34 174.2 129.34 174.55 130.52 174.9 130.52 175.25 130.52 175.6 131.11 175.95 129.93 176.3 131.11 176.65 131.11 177 131.11 177.35 131.11 177.7 131.11 178.04 131.11 178.39 131.11 178.74 131.11 179.09 131.11 179.44 131.11 179.79 129.93 180.14 129.93 180.49 130.52 180.84 130.52 181.19 129.93 181.54 130.52 181.89 131.11 182.23 131.11 182.58 128.74 182.93 125.19 183.28 126.97 183.63 124.6 183.98 125.19 184.33 126.37 184.68 127.56 185.03 129.93 185.38 129.34 185.73 129.93 186.08 130.52 186.42 131.11 186.77 131.11 187.12 131.11 187.47 131.11 187.82 131.11 188.17 131.11 188.52 131.11 188.87 131.11 189.22 131.11 189.57 131.11 189.92 130.52 190.26 131.11 190.61 131.11 190.96 131.11 191.31 131.11 191.66 131.11 192.01 131.11 192.36 131.11 192.71 131.11 193.06 131.11 193.41 131.11 193.76 131.11 194.11 131.11 194.45 131.11 194.8 131.11 195.15 131.11 195.5 131.11 195.85 131.11 196.2 131.11"/>
      </g>
      <g stroke-width="0.3" fill="#000000" fill-opacity="0.000" class="geometry" stroke-dasharray="none" stroke="#F46D43" id="img-b083b1a9-17">
        <path fill="none" d="M21.98,71.86 L 22.33 74.83 22.68 77.79 23.03 83.71 23.38 89.64 23.73 86.68 24.08 90.23 24.42 95.56 24.77 93.79 25.12 92.01 25.47 90.82 25.82 94.97 26.17 96.16 26.52 84.9 26.87 83.12 27.22 89.64 27.57 90.82 27.92 86.68 28.27 92.6 28.61 90.82 28.96 86.08 29.31 84.9 29.66 87.86 30.01 85.49 30.36 92.01 30.71 92.01 31.06 87.86 31.41 84.9 31.76 88.45 32.11 94.97 32.45 94.97 32.8 100.3 33.15 102.08 33.5 100.3 33.85 96.16 34.2 96.16 34.55 89.64 34.9 87.86 35.25 89.05 35.6 94.38 35.95 98.53 36.3 97.93 36.64 100.9 36.99 99.71 37.34 99.71 37.69 93.79 38.04 93.19 38.39 88.45 38.74 92.01 39.09 92.01 39.44 93.19 39.79 89.05 40.14 88.45 40.49 84.9 40.83 85.49 41.18 84.31 41.53 87.27 41.88 83.12 42.23 81.94 42.58 88.45 42.93 84.31 43.28 78.97 43.63 83.71 43.98 92.6 44.33 86.08 44.67 84.9 45.02 84.9 45.37 84.31 45.72 89.64 46.07 80.16 46.42 79.57 46.77 78.38 47.12 74.23 47.47 76.01 47.82 77.2 48.17 73.05 48.52 75.42 48.86 78.38 49.21 83.71 49.56 88.45 49.91 91.42 50.26 87.86 50.61 82.53 50.96 77.79 51.31 76.01 51.66 76.01 52.01 75.42 52.36 79.57 52.7 81.34 53.05 83.71 53.4 81.94 53.75 73.05 54.1 76.6 54.45 76.6 54.8 74.83 55.15 80.75 55.5 81.94 55.85 79.57 56.2 71.27 56.55 73.05 56.89 64.16 57.24 61.79 57.59 60.01 57.94 54.68 58.29 51.72 58.64 52.31 58.99 41.64 59.34 37.5 59.69 36.9 60.04 35.72 60.39 37.5 60.73 30.98 61.08 32.16 61.43 26.83 61.78 25.05 62.13 28.61 62.48 25.65 62.83 26.83 63.18 30.39 63.53 32.76 63.88 37.5 64.23 39.87 64.58 43.42 64.92 42.24 65.27 44.61 65.62 45.79 65.97 45.2 66.32 50.53 66.67 48.76 67.02 52.9 67.37 51.72 67.72 57.64 68.07 58.83 68.42 54.09 68.77 48.16 69.11 42.83 69.46 37.5 69.81 40.46 70.16 44.02 70.51 46.39 70.86 48.16 71.21 46.39 71.56 53.5 71.91 48.76 72.26 56.46 72.61 61.2 72.95 65.35 73.3 64.16 73.65 67.12 74 65.94 74.35 65.94 74.7 68.9 75.05 70.09 75.4 62.98 75.75 70.09 76.1 68.9 76.45 69.49 76.8 78.38 77.14 78.97 77.49 82.53 77.84 77.79 78.19 76.01 78.54 71.27 78.89 73.64 79.24 76.01 79.59 78.97 79.94 73.05 80.29 75.42 80.64 81.34 80.98 83.71 81.33 87.27 81.68 92.6 82.03 89.64 82.38 83.71 82.73 78.97 83.08 78.97 83.43 77.79 83.78 81.34 84.13 78.97 84.48 77.79 84.83 76.6 85.17 74.83 85.52 73.05 85.87 69.49 86.22 75.42 86.57 73.05 86.92 73.64 87.27 77.79 87.62 76.01 87.97 73.05 88.32 68.31 88.67 65.35 89.02 60.61 89.36 64.16 89.71 61.79 90.06 57.64 90.41 61.79 90.76 67.72 91.11 68.31 91.46 75.42 91.81 71.27 92.16 61.2 92.51 60.01 92.86 62.38 93.2 60.61 93.55 58.24 93.9 54.68 94.25 52.31 94.6 46.39 94.95 45.2 95.3 45.79 95.65 42.83 96 40.46 96.35 45.79 96.7 45.79 97.05 42.24 97.39 42.24 97.74 36.9 98.09 37.5 98.44 28.61 98.79 31.57 99.14 32.76 99.49 30.39 99.84 33.94 100.19 42.24 100.54 45.2 100.89 43.42 101.23 46.98 101.58 46.39 101.93 54.09 102.28 48.76 102.63 52.31 102.98 46.98 103.33 49.35 103.68 48.16 104.03 51.72 104.38 53.5 104.73 52.9 105.08 51.13 105.42 48.76 105.77 44.61 106.12 47.57 106.47 45.79 106.82 39.87 107.17 41.64 107.52 41.64 107.87 47.57 108.22 48.16 108.57 51.13 108.92 53.5 109.26 49.94 109.61 57.64 109.96 61.79 110.31 60.61 110.66 64.75 111.01 72.46 111.36 70.09 111.71 76.01 112.06 78.38 112.41 80.16 112.76 78.97 113.11 76.6 113.45 71.27 113.8 65.94 114.15 62.38 114.5 63.57 114.85 54.68 115.2 55.87 115.55 55.27 115.9 55.87 116.25 49.94 116.6 46.39 116.95 45.2 117.3 48.76 117.64 50.53 117.99 52.31 118.34 51.72 118.69 48.76 119.04 47.57 119.39 49.35 119.74 45.2 120.09 51.72 120.44 56.46 120.79 52.31 121.14 53.5 121.48 55.87 121.83 55.87 122.18 50.53 122.53 52.9 122.88 47.57 123.23 47.57 123.58 48.16 123.93 51.13 124.28 48.76 124.63 48.16 124.98 40.46 125.33 42.83 125.67 38.09 126.02 36.31 126.37 32.16 126.72 34.53 127.07 33.94 127.42 38.09 127.77 35.13 128.12 31.57 128.47 32.76 128.82 32.16 129.17 33.94 129.51 33.35 129.86 33.94 130.21 36.9 130.56 41.64 130.91 40.46 131.26 44.02 131.61 41.05 131.96 36.9 132.31 36.31 132.66 39.27 133.01 35.72 133.36 32.16 133.7 30.39 134.05 32.16 134.4 30.39 134.75 33.35 135.1 33.35 135.45 32.16 135.8 31.57 136.15 30.39 136.5 31.57 136.85 29.2 137.2 31.57 137.55 32.16 137.89 39.87 138.24 39.27 138.59 40.46 138.94 40.46 139.29 41.05 139.64 44.61 139.99 39.87 140.34 39.27 140.69 37.5 141.04 35.72 141.39 35.13 141.73 39.87 142.08 33.35 142.43 36.9 142.78 32.76 143.13 35.72 143.48 38.09 143.83 41.64 144.18 38.09 144.53 39.27 144.88 42.24 145.23 36.31 145.58 30.39 145.92 29.2 146.27 35.72 146.62 38.68 146.97 33.94 147.32 39.27 147.67 34.53 148.02 33.35 148.37 35.13 148.72 34.53 149.07 37.5 149.42 36.9 149.76 35.13 150.11 35.72 150.46 39.27 150.81 37.5 151.16 36.31 151.51 35.13 151.86 36.9 152.21 32.16 152.56 30.39 152.91 35.72 153.26 39.27 153.61 42.83 153.95 36.9 154.3 34.53 154.65 30.39 155 28.61 155.35 34.53 155.7 38.09 156.05 41.64 156.4 38.68 156.75 43.42 157.1 43.42 157.45 39.87 157.79 32.16 158.14 32.76 158.49 35.13 158.84 38.09 159.19 36.9 159.54 31.57 159.89 34.53 160.24 28.02 160.59 30.98 160.94 33.94 161.29 36.9 161.64 36.31 161.98 41.64 162.33 41.05 162.68 46.39 163.03 47.57 163.38 50.53 163.73 48.76 164.08 48.16 164.43 58.83 164.78 58.83 165.13 58.83 165.48 62.98 165.83 60.01 166.17 62.98 166.52 64.75 166.87 60.01 167.22 67.12 167.57 70.09 167.92 73.05 168.27 71.27 168.62 68.31 168.97 66.53 169.32 64.75 169.67 69.49 170.01 67.12 170.36 65.94 170.71 61.2 171.06 59.42 171.41 51.13 171.76 47.57 172.11 55.87 172.46 57.05 172.81 57.64 173.16 57.05 173.51 53.5 173.86 58.83 174.2 56.46 174.55 54.68 174.9 54.68 175.25 56.46 175.6 58.83 175.95 62.98 176.3 67.12 176.65 65.94 177 67.12 177.35 65.35 177.7 57.64 178.04 57.64 178.39 59.42 178.74 70.68 179.09 74.23 179.44 71.27 179.79 78.97 180.14 87.86 180.49 92.01 180.84 93.79 181.19 94.38 181.54 89.64 181.89 92.01 182.23 78.97 182.58 78.97 182.93 75.42 183.28 78.97 183.63 83.12 183.98 78.38 184.33 80.75 184.68 79.57 185.03 80.16 185.38 78.38 185.73 71.86 186.08 70.68 186.42 67.12 186.77 69.49 187.12 63.57 187.47 68.31 187.82 64.75 188.17 64.16 188.52 62.38 188.87 57.64 189.22 60.01 189.57 62.38 189.92 61.2 190.26 61.2 190.61 62.98 190.96 63.57 191.31 70.09 191.66 78.38 192.01 79.57 192.36 81.34 192.71 76.6 193.06 77.2 193.41 74.23 193.76 73.05 194.11 76.01 194.45 78.38 194.8 80.16 195.15 82.53 195.5 80.75 195.85 80.16 196.2 84.9"/>
      </g>
      <g stroke-width="0.3" fill="#000000" fill-opacity="0.000" class="geometry" stroke-dasharray="none" stroke="#D53E4F" id="img-b083b1a9-18">
        <path fill="none" d="M21.98,71.86 L 22.33 68.9 22.68 76.01 23.03 70.68 23.38 71.27 23.73 70.09 24.08 74.23 24.42 74.83 24.77 68.9 25.12 68.9 25.47 56.46 25.82 53.5 26.17 54.09 26.52 48.76 26.87 45.2 27.22 45.79 27.57 44.02 27.92 42.24 28.27 43.42 28.61 46.39 28.96 49.94 29.31 57.05 29.66 52.9 30.01 52.31 30.36 53.5 30.71 51.72 31.06 50.53 31.41 51.72 31.76 52.31 32.11 52.31 32.45 54.09 32.8 52.31 33.15 49.35 33.5 48.16 33.85 45.2 34.2 44.61 34.55 54.68 34.9 51.13 35.25 49.94 35.6 52.9 35.95 51.13 36.3 51.72 36.64 55.27 36.99 55.87 37.34 55.27 37.69 55.27 38.04 53.5 38.39 52.31 38.74 51.72 39.09 43.42 39.44 45.2 39.79 44.61 40.14 43.42 40.49 41.64 40.83 37.5 41.18 33.94 41.53 34.53 41.88 41.05 42.23 36.9 42.58 33.94 42.93 40.46 43.28 40.46 43.63 34.53 43.98 35.13 44.33 36.31 44.67 33.35 45.02 31.57 45.37 26.24 45.72 26.83 46.07 30.39 46.42 30.39 46.77 30.98 47.12 30.39 47.47 36.31 47.82 36.9 48.17 36.9 48.52 39.87 48.86 37.5 49.21 35.72 49.56 33.94 49.91 35.72 50.26 35.13 50.61 32.16 50.96 32.76 51.31 32.76 51.66 35.13 52.01 31.57 52.36 35.13 52.7 35.13 53.05 30.39 53.4 29.79 53.75 32.76 54.1 25.05 54.45 25.05 54.8 22.68 55.15 23.28 55.5 19.13 55.85 22.09 56.2 23.28 56.55 26.83 56.89 28.02 57.24 32.16 57.59 32.76 57.94 32.76 58.29 38.09 58.64 35.72 58.99 33.94 59.34 33.35 59.69 30.39 60.04 25.65 60.39 25.05 60.73 22.68 61.08 23.28 61.43 25.65 61.78 25.05 62.13 26.24 62.48 25.65 62.83 22.68 63.18 19.72 63.53 17.94 63.88 15.57 64.23 15.57 64.58 16.76 64.92 16.17 65.27 14.98 65.62 14.98 65.97 14.39 66.32 13.8 66.67 13.2 67.02 12.61 67.37 12.61 67.72 12.61 68.07 12.61 68.42 12.61 68.77 13.2 69.11 14.39 69.46 14.39 69.81 14.39 70.16 14.39 70.51 17.94 70.86 18.54 71.21 18.54 71.56 16.17 71.91 13.8 72.26 14.39 72.61 13.8 72.95 13.2 73.3 12.61 73.65 13.8 74 15.57 74.35 13.8 74.7 13.8 75.05 13.8 75.4 14.39 75.75 14.39 76.1 13.2 76.45 12.61 76.8 12.61 77.14 13.2 77.49 13.8 77.84 13.8 78.19 14.98 78.54 13.2 78.89 12.61 79.24 12.61 79.59 12.61 79.94 12.61 80.29 12.61 80.64 12.61 80.98 12.61 81.33 12.61 81.68 12.61 82.03 12.61 82.38 12.61 82.73 12.61 83.08 12.61 83.43 12.61 83.78 12.61 84.13 12.61 84.48 12.61 84.83 12.61 85.17 12.61 85.52 13.8 85.87 13.2 86.22 13.2 86.57 12.61 86.92 12.61 87.27 12.61 87.62 12.61 87.97 12.61 88.32 12.61 88.67 13.2 89.02 14.39 89.36 13.8 89.71 13.8 90.06 13.2 90.41 13.2 90.76 14.39 91.11 14.39 91.46 14.98 91.81 14.98 92.16 14.39 92.51 15.57 92.86 14.39 93.2 15.57 93.55 16.17 93.9 14.98 94.25 15.57 94.6 17.35 94.95 18.54 95.3 16.76 95.65 19.13 96 18.54 96.35 16.17 96.7 16.17 97.05 17.94 97.39 21.5 97.74 20.91 98.09 19.13 98.44 22.09 98.79 24.46 99.14 23.87 99.49 19.13 99.84 18.54 100.19 19.72 100.54 17.94 100.89 19.13 101.23 20.91 101.58 21.5 101.93 22.68 102.28 22.68 102.63 25.05 102.98 26.24 103.33 23.28 103.68 22.68 104.03 20.91 104.38 24.46 104.73 29.2 105.08 27.42 105.42 24.46 105.77 23.28 106.12 21.5 106.47 19.72 106.82 20.91 107.17 19.13 107.52 17.94 107.87 19.72 108.22 20.91 108.57 20.91 108.92 22.09 109.26 26.24 109.61 25.65 109.96 25.05 110.31 18.54 110.66 17.94 111.01 20.31 111.36 18.54 111.71 17.35 112.06 17.35 112.41 18.54 112.76 19.72 113.11 20.91 113.45 19.72 113.8 21.5 114.15 19.13 114.5 19.72 114.85 20.31 115.2 19.72 115.55 19.13 115.9 14.98 116.25 13.8 116.6 13.2 116.95 13.2 117.3 12.61 117.64 12.61 117.99 13.2 118.34 13.2 118.69 13.2 119.04 13.2 119.39 13.2 119.74 12.61 120.09 13.8 120.44 12.61 120.79 12.61 121.14 12.61 121.48 12.61 121.83 12.61 122.18 12.61 122.53 12.61 122.88 12.61 123.23 12.61 123.58 12.61 123.93 12.61 124.28 12.61 124.63 12.61 124.98 12.61 125.33 12.61 125.67 12.61 126.02 12.61 126.37 13.8 126.72 13.2 127.07 13.2 127.42 14.39 127.77 14.98 128.12 17.35 128.47 16.17 128.82 16.17 129.17 16.76 129.51 17.35 129.86 18.54 130.21 16.76 130.56 16.17 130.91 16.17 131.26 16.17 131.61 16.17 131.96 13.8 132.31 14.39 132.66 14.98 133.01 15.57 133.36 14.98 133.7 13.8 134.05 13.8 134.4 12.61 134.75 12.61 135.1 12.61 135.45 12.61 135.8 12.61 136.15 12.61 136.5 12.61 136.85 12.61 137.2 12.61 137.55 12.61 137.89 12.61 138.24 12.61 138.59 12.61 138.94 12.61 139.29 13.2 139.64 14.39 139.99 13.8 140.34 13.2 140.69 13.2 141.04 12.61 141.39 13.8 141.73 13.2 142.08 13.8 142.43 12.61 142.78 12.61 143.13 12.61 143.48 12.61 143.83 12.61 144.18 12.61 144.53 12.61 144.88 12.61 145.23 12.61 145.58 13.2 145.92 13.2 146.27 12.61 146.62 12.61 146.97 12.61 147.32 12.61 147.67 12.61 148.02 12.61 148.37 12.61 148.72 12.61 149.07 12.61 149.42 12.61 149.76 12.61 150.11 12.61 150.46 12.61 150.81 12.61 151.16 12.61 151.51 12.61 151.86 12.61 152.21 12.61 152.56 12.61 152.91 12.61 153.26 12.61 153.61 12.61 153.95 12.61 154.3 12.61 154.65 12.61 155 12.61 155.35 13.2 155.7 13.2 156.05 13.8 156.4 13.8 156.75 14.98 157.1 14.39 157.45 15.57 157.79 14.98 158.14 15.57 158.49 16.76 158.84 17.94 159.19 20.31 159.54 21.5 159.89 23.28 160.24 17.94 160.59 17.35 160.94 19.72 161.29 21.5 161.64 22.68 161.98 26.83 162.33 28.61 162.68 29.79 163.03 29.2 163.38 31.57 163.73 30.39 164.08 29.2 164.43 25.05 164.78 26.24 165.13 28.02 165.48 28.61 165.83 26.83 166.17 25.05 166.52 32.16 166.87 29.79 167.22 33.35 167.57 36.31 167.92 35.72 168.27 36.31 168.62 35.13 168.97 33.94 169.32 31.57 169.67 35.13 170.01 35.13 170.36 36.31 170.71 38.68 171.06 35.72 171.41 38.68 171.76 40.46 172.11 39.27 172.46 36.9 172.81 35.13 173.16 35.72 173.51 33.35 173.86 33.94 174.2 34.53 174.55 32.16 174.9 34.53 175.25 30.98 175.6 30.39 175.95 29.2 176.3 28.61 176.65 29.79 177 36.9 177.35 38.09 177.7 37.5 178.04 37.5 178.39 42.24 178.74 48.76 179.09 54.68 179.44 52.31 179.79 58.24 180.14 58.24 180.49 61.79 180.84 64.75 181.19 64.75 181.54 67.72 181.89 64.16 182.23 58.83 182.58 59.42 182.93 66.53 183.28 60.61 183.63 62.38 183.98 62.38 184.33 65.94 184.68 68.31 185.03 67.12 185.38 62.38 185.73 62.98 186.08 66.53 186.42 68.31 186.77 70.09 187.12 78.38 187.47 78.97 187.82 83.12 188.17 82.53 188.52 74.83 188.87 75.42 189.22 76.01 189.57 78.97 189.92 88.45 190.26 86.68 190.61 85.49 190.96 90.82 191.31 93.19 191.66 96.75 192.01 99.71 192.36 96.75 192.71 93.79 193.06 92.01 193.41 86.68 193.76 86.68 194.11 83.12 194.45 84.31 194.8 84.9 195.15 86.08 195.5 83.12 195.85 84.31 196.2 84.9"/>
      </g>
      <g stroke-width="0.3" fill="#000000" fill-opacity="0.000" class="geometry" stroke-dasharray="none" stroke="#9E0142" id="img-b083b1a9-19">
        <path fill="none" d="M21.98,71.86 L 22.33 73.64 22.68 71.86 23.03 75.42 23.38 73.05 23.73 71.86 24.08 72.46 24.42 69.49 24.77 73.05 25.12 74.23 25.47 71.86 25.82 73.05 26.17 80.16 26.52 81.94 26.87 86.68 27.22 78.97 27.57 81.34 27.92 75.42 28.27 77.79 28.61 79.57 28.96 74.23 29.31 68.31 29.66 66.53 30.01 62.98 30.36 62.98 30.71 61.79 31.06 61.79 31.41 57.64 31.76 49.94 32.11 54.68 32.45 53.5 32.8 57.64 33.15 59.42 33.5 68.31 33.85 74.23 34.2 78.38 34.55 74.23 34.9 68.9 35.25 63.57 35.6 74.23 35.95 65.35 36.3 70.68 36.64 72.46 36.99 76.01 37.34 70.09 37.69 72.46 38.04 70.09 38.39 73.64 38.74 74.23 39.09 81.94 39.44 83.12 39.79 81.94 40.14 84.31 40.49 78.97 40.83 79.57 41.18 79.57 41.53 77.2 41.88 71.27 42.23 70.09 42.58 65.94 42.93 66.53 43.28 67.12 43.63 68.9 43.98 65.35 44.33 60.61 44.67 62.98 45.02 61.79 45.37 62.38 45.72 65.35 46.07 70.09 46.42 71.86 46.77 67.72 47.12 69.49 47.47 70.09 47.82 71.27 48.17 68.9 48.52 62.98 48.86 64.16 49.21 61.79 49.56 59.42 49.91 54.09 50.26 47.57 50.61 45.2 50.96 38.09 51.31 32.16 51.66 29.79 52.01 29.2 52.36 25.05 52.7 23.87 53.05 26.83 53.4 29.2 53.75 31.57 54.1 30.98 54.45 30.39 54.8 27.42 55.15 30.39 55.5 32.76 55.85 31.57 56.2 30.39 56.55 32.16 56.89 35.72 57.24 38.09 57.59 37.5 57.94 36.9 58.29 37.5 58.64 37.5 58.99 32.76 59.34 30.39 59.69 31.57 60.04 26.83 60.39 27.42 60.73 30.39 61.08 34.53 61.43 33.94 61.78 39.27 62.13 42.24 62.48 38.09 62.83 44.02 63.18 38.09 63.53 42.83 63.88 40.46 64.23 45.2 64.58 48.16 64.92 41.05 65.27 41.05 65.62 48.16 65.97 49.94 66.32 51.13 66.67 51.13 67.02 59.42 67.37 59.42 67.72 55.27 68.07 58.24 68.42 48.16 68.77 51.13 69.11 51.13 69.46 55.27 69.81 53.5 70.16 53.5 70.51 52.31 70.86 42.24 71.21 41.05 71.56 44.02 71.91 49.35 72.26 48.16 72.61 51.72 72.95 55.27 73.3 59.42 73.65 61.79 74 60.61 74.35 64.16 74.7 65.35 75.05 78.97 75.4 71.27 75.75 76.01 76.1 78.97 76.45 81.34 76.8 86.08 77.14 89.05 77.49 93.19 77.84 83.71 78.19 91.42 78.54 94.38 78.89 97.93 79.24 94.97 79.59 89.64 79.94 89.64 80.29 91.42 80.64 86.68 80.98 84.31 81.33 81.34 81.68 81.34 82.03 79.57 82.38 76.6 82.73 82.53 83.08 79.57 83.43 80.16 83.78 80.16 84.13 79.57 84.48 81.94 84.83 84.9 85.17 94.97 85.52 94.38 85.87 92.6 86.22 93.19 86.57 97.93 86.92 92.01 87.27 96.75 87.62 97.93 87.97 90.82 88.32 92.6 88.67 98.53 89.02 94.97 89.36 97.93 89.71 94.97 90.06 94.38 90.41 97.93 90.76 94.38 91.11 93.79 91.46 95.56 91.81 92.6 92.16 93.19 92.51 94.38 92.86 96.75 93.2 96.75 93.55 96.16 93.9 97.34 94.25 93.19 94.6 92.01 94.95 95.56 95.3 106.23 95.65 110.38 96 110.97 96.35 111.56 96.7 109.19 97.05 109.19 97.39 106.82 97.74 110.38 98.09 113.34 98.44 112.15 98.79 115.12 99.14 118.67 99.49 114.52 99.84 109.78 100.19 106.82 100.54 110.38 100.89 116.3 101.23 113.93 101.58 110.38 101.93 113.34 102.28 113.34 102.63 113.93 102.98 112.15 103.33 112.75 103.68 113.34 104.03 116.89 104.38 119.26 104.73 115.71 105.08 116.89 105.42 121.63 105.77 124 106.12 123.41 106.47 123.41 106.82 121.04 107.17 121.63 107.52 121.63 107.87 120.45 108.22 117.49 108.57 113.34 108.92 113.34 109.26 111.56 109.61 111.56 109.96 110.97 110.31 109.19 110.66 108.6 111.01 110.97 111.36 110.97 111.71 105.64 112.06 105.64 112.41 110.97 112.76 113.93 113.11 111.56 113.45 115.71 113.8 112.15 114.15 110.38 114.5 110.97 114.85 110.38 115.2 110.97 115.55 121.63 115.9 120.45 116.25 119.86 116.6 123.41 116.95 126.37 117.3 125.19 117.64 121.63 117.99 125.78 118.34 127.56 118.69 127.56 119.04 127.56 119.39 128.15 119.74 127.56 120.09 126.37 120.44 126.97 120.79 127.56 121.14 127.56 121.48 126.37 121.83 123.41 122.18 123.41 122.53 124 122.88 125.78 123.23 128.74 123.58 129.34 123.93 129.34 124.28 129.93 124.63 130.52 124.98 131.11 125.33 131.11 125.67 131.11 126.02 131.11 126.37 131.11 126.72 131.11 127.07 131.11 127.42 131.11 127.77 131.11 128.12 131.11 128.47 129.93 128.82 129.93 129.17 129.93 129.51 129.93 129.86 129.93 130.21 131.11 130.56 131.11 130.91 131.11 131.26 131.11 131.61 131.11 131.96 131.11 132.31 131.11 132.66 131.11 133.01 131.11 133.36 131.11 133.7 131.11 134.05 131.11 134.4 131.11 134.75 131.11 135.1 131.11 135.45 131.11 135.8 131.11 136.15 131.11 136.5 131.11 136.85 131.11 137.2 131.11 137.55 131.11 137.89 131.11 138.24 131.11 138.59 131.11 138.94 130.52 139.29 131.11 139.64 131.11 139.99 131.11 140.34 131.11 140.69 131.11 141.04 131.11 141.39 131.11 141.73 130.52 142.08 129.34 142.43 128.74 142.78 128.15 143.13 125.78 143.48 125.19 143.83 126.37 144.18 128.74 144.53 129.34 144.88 128.15 145.23 126.97 145.58 127.56 145.92 128.74 146.27 129.93 146.62 130.52 146.97 129.93 147.32 128.74 147.67 128.74 148.02 126.97 148.37 125.78 148.72 124 149.07 122.82 149.42 119.26 149.76 116.89 150.11 119.86 150.46 122.82 150.81 126.37 151.16 124.6 151.51 121.63 151.86 122.82 152.21 122.82 152.56 122.23 152.91 123.41 153.26 123.41 153.61 120.45 153.95 121.63 154.3 119.86 154.65 120.45 155 122.23 155.35 122.23 155.7 120.45 156.05 122.82 156.4 121.63 156.75 121.63 157.1 122.23 157.45 121.04 157.79 125.19 158.14 126.37 158.49 125.78 158.84 124.6 159.19 125.78 159.54 124 159.89 121.63 160.24 120.45 160.59 122.23 160.94 125.78 161.29 125.78 161.64 124 161.98 126.37 162.33 126.37 162.68 125.78 163.03 121.63 163.38 122.82 163.73 122.82 164.08 124.6 164.43 125.19 164.78 126.97 165.13 126.37 165.48 124 165.83 130.52 166.17 128.74 166.52 128.74 166.87 126.97 167.22 124.6 167.57 127.56 167.92 125.19 168.27 125.19 168.62 124.6 168.97 126.37 169.32 125.19 169.67 125.78 170.01 124 170.36 125.78 170.71 124.6 171.06 120.45 171.41 117.49 171.76 116.89 172.11 118.67 172.46 119.86 172.81 121.04 173.16 118.67 173.51 115.71 173.86 113.93 174.2 107.41 174.55 109.19 174.9 100.9 175.25 99.12 175.6 102.08 175.95 92.6 176.3 92.01 176.65 91.42 177 87.27 177.35 84.31 177.7 86.68 178.04 88.45 178.39 87.27 178.74 90.82 179.09 90.82 179.44 94.38 179.79 94.38 180.14 93.19 180.49 98.53 180.84 106.23 181.19 107.41 181.54 110.97 181.89 112.15 182.23 110.97 182.58 110.38 182.93 110.97 183.28 112.75 183.63 118.67 183.98 111.56 184.33 118.08 184.68 122.23 185.03 124 185.38 121.63 185.73 124 186.08 126.97 186.42 128.15 186.77 128.15 187.12 126.97 187.47 126.97 187.82 126.37 188.17 125.19 188.52 127.56 188.87 127.56 189.22 129.34 189.57 129.34 189.92 129.34 190.26 128.74 190.61 130.52 190.96 131.11 191.31 131.11 191.66 131.11 192.01 131.11 192.36 131.11 192.71 131.11 193.06 131.11 193.41 131.11 193.76 131.11 194.11 129.93 194.45 128.74 194.8 129.34 195.15 130.52 195.5 130.52 195.85 130.52 196.2 129.93"/>
      </g>
    </g>
  </g>
</g>
  <g class="guide ylabels" font-size="2.82" font-family="'PT Sans Caption','Helvetica Neue','Helvetica',sans-serif" fill="#000000" id="img-b083b1a9-20">
    <text x="18.63" y="131.11" text-anchor="end" dy="0.35em">0</text>
    <text x="18.63" y="101.49" text-anchor="end" dy="0.35em">50</text>
    <text x="18.63" y="71.86" text-anchor="end" dy="0.35em">100</text>
    <text x="18.63" y="42.24" text-anchor="end" dy="0.35em">150</text>
    <text x="18.63" y="12.61" text-anchor="end" dy="0.35em">200</text>
  </g>
  <g font-size="3.88" font-family="'PT Sans','Helvetica Neue','Helvetica',sans-serif" fill="#000000" stroke="#000000" stroke-opacity="0.000" id="img-b083b1a9-21">
    <text x="8.81" y="69.86" text-anchor="middle" dy="0.35em" transform="rotate(-90, 8.81, 71.86)">population size</text>
  </g>
  <g font-size="3.88" font-family="'PT Sans','Helvetica Neue','Helvetica',sans-serif" fill="#000000" stroke="#000000" stroke-opacity="0.000" id="img-b083b1a9-22">
    <text x="108.92" y="5" text-anchor="middle" dy="0.6em">genetic drift with mutationrate  = 0.001 </text>
  </g>
</g>
<defs>
  <clipPath id="img-b083b1a9-4">
  <path d="M19.63,10.61 L 198.2 10.61 198.2 133.11 19.63 133.11" />
</clipPath>
</defs>
</svg>
