<?xml version="1.0" encoding="UTF-8"?>
<svg xmlns="http://www.w3.org/2000/svg"
     xmlns:xlink="http://www.w3.org/1999/xlink"
     xmlns:gadfly="http://www.gadflyjl.org/ns"
     version="1.2"
     width="203.2mm" height="152.4mm" viewBox="0 0 203.2 152.4"
     stroke="none"
     fill="#000000"
     stroke-width="0.3"
     font-size="3.88"
>
<g class="plotroot xscalable yscalable" id="img-9c4ad01f-1">
  <g font-size="3.88" font-family="'PT Sans','Helvetica Neue','Helvetica',sans-serif" fill="#000000" stroke="#000000" stroke-opacity="0.000" id="img-9c4ad01f-2">
    <text x="96.33" y="140.79" text-anchor="middle" dy="0.6em">number of A_type individuals (bin count = 50)</text>
  </g>
  <g class="guide xlabels" font-size="2.82" font-family="'PT Sans Caption','Helvetica Neue','Helvetica',sans-serif" fill="#000000" id="img-9c4ad01f-3">
    <text x="20.63" y="134.11" text-anchor="middle" dy="0.6em">0</text>
    <text x="58.48" y="134.11" text-anchor="middle" dy="0.6em">50</text>
    <text x="96.33" y="134.11" text-anchor="middle" dy="0.6em">100</text>
    <text x="134.18" y="134.11" text-anchor="middle" dy="0.6em">150</text>
    <text x="172.03" y="134.11" text-anchor="middle" dy="0.6em">200</text>
  </g>
  <g class="guide colorkey" id="img-9c4ad01f-4">
    <g fill="#4C404B" font-size="2.82" font-family="'PT Sans','Helvetica Neue','Helvetica',sans-serif" id="img-9c4ad01f-5">
      <text x="177.85" y="109.96" dy="0.35em">histogram</text>
      <text x="177.85" y="113.59" dy="0.35em">theoretical curve</text>
    </g>
    <g stroke="#000000" stroke-opacity="0.000" id="img-9c4ad01f-6">
      <rect x="175.03" y="109.06" width="1.81" height="1.81" fill="#00BFFF"/>
      <rect x="175.03" y="112.68" width="1.81" height="1.81" fill="#FFA500"/>
    </g>
    <g fill="#362A35" font-size="3.88" font-family="'PT Sans','Helvetica Neue','Helvetica',sans-serif" stroke="#000000" stroke-opacity="0.000" id="img-9c4ad01f-7">
      <text x="175.03" y="106.14">Legend</text>
    </g>
  </g>
<g clip-path="url(#img-9c4ad01f-8)">
  <g id="img-9c4ad01f-9">
    <g pointer-events="visible" opacity="1" fill="#FFFFFF" stroke="#000000" stroke-opacity="0.000" class="guide background" id="img-9c4ad01f-10">
      <rect x="18.63" y="86.81" width="155.4" height="46.3"/>
    </g>
    <g class="guide ygridlines xfixed" stroke-dasharray="0.5,0.5" stroke-width="0.2" stroke="#808080" id="img-9c4ad01f-11">
      <path fill="none" d="M18.63,131.11 L 174.03 131.11"/>
      <path fill="none" d="M18.63,117.01 L 174.03 117.01"/>
      <path fill="none" d="M18.63,102.91 L 174.03 102.91"/>
      <path fill="none" d="M18.63,88.81 L 174.03 88.81"/>
    </g>
    <g class="guide xgridlines yfixed" stroke-dasharray="0.5,0.5" stroke-width="0.2" stroke="#808080" id="img-9c4ad01f-12">
      <path fill="none" d="M20.63,86.81 L 20.63 133.11"/>
      <path fill="none" d="M58.48,86.81 L 58.48 133.11"/>
      <path fill="none" d="M96.33,86.81 L 96.33 133.11"/>
      <path fill="none" d="M134.18,86.81 L 134.18 133.11"/>
      <path fill="none" d="M172.03,86.81 L 172.03 133.11"/>
    </g>
    <g class="plotpanel" id="img-9c4ad01f-13">
      <g stroke-width="0.3" fill="#000000" fill-opacity="0.000" class="geometry" stroke-dasharray="none" stroke="#FFA500" id="img-9c4ad01f-14">
        <path fill="none" d="M21.24,95.86 L 21.85 113.42 22.46 119.27 23.06 122.19 23.67 123.95 24.28 125.12 24.89 125.95 25.5 126.58 26.1 127.07 26.71 127.46 27.32 127.78 27.93 128.04 28.54 128.27 29.14 128.46 29.75 128.62 30.36 128.77 30.97 128.9 31.58 129.01 32.18 129.11 32.79 129.21 33.4 129.29 34.01 129.36 34.62 129.43 35.22 129.5 35.83 129.55 36.44 129.61 37.05 129.66 37.66 129.7 38.26 129.74 38.87 129.78 39.48 129.82 40.09 129.86 40.7 129.89 41.3 129.92 41.91 129.95 42.52 129.97 43.13 130 43.74 130.02 44.35 130.05 44.95 130.07 45.56 130.09 46.17 130.11 46.78 130.13 47.39 130.15 47.99 130.16 48.6 130.18 49.21 130.19 49.82 130.21 50.43 130.22 51.03 130.24 51.64 130.25 52.25 130.26 52.86 130.27 53.47 130.28 54.07 130.3 54.68 130.31 55.29 130.32 55.9 130.33 56.51 130.34 57.11 130.34 57.72 130.35 58.33 130.36 58.94 130.37 59.55 130.38 60.15 130.38 60.76 130.39 61.37 130.4 61.98 130.4 62.59 130.41 63.19 130.42 63.8 130.42 64.41 130.43 65.02 130.43 65.63 130.44 66.23 130.45 66.84 130.45 67.45 130.45 68.06 130.46 68.67 130.46 69.27 130.47 69.88 130.47 70.49 130.48 71.1 130.48 71.71 130.48 72.31 130.49 72.92 130.49 73.53 130.49 74.14 130.5 74.75 130.5 75.36 130.5 75.96 130.51 76.57 130.51 77.18 130.51 77.79 130.51 78.4 130.52 79 130.52 79.61 130.52 80.22 130.52 80.83 130.53 81.44 130.53 82.04 130.53 82.65 130.53 83.26 130.53 83.87 130.54 84.48 130.54 85.08 130.54 85.69 130.54 86.3 130.54 86.91 130.54 87.52 130.54 88.12 130.54 88.73 130.55 89.34 130.55 89.95 130.55 90.56 130.55 91.16 130.55 91.77 130.55 92.38 130.55 92.99 130.55 93.6 130.55 94.2 130.55 94.81 130.55 95.42 130.55 96.03 130.55 96.64 130.55 97.24 130.55 97.85 130.55 98.46 130.55 99.07 130.55 99.68 130.55 100.28 130.55 100.89 130.55 101.5 130.55 102.11 130.55 102.72 130.55 103.32 130.55 103.93 130.55 104.54 130.54 105.15 130.54 105.76 130.54 106.37 130.54 106.97 130.54 107.58 130.54 108.19 130.54 108.8 130.54 109.41 130.53 110.01 130.53 110.62 130.53 111.23 130.53 111.84 130.53 112.45 130.52 113.05 130.52 113.66 130.52 114.27 130.52 114.88 130.51 115.49 130.51 116.09 130.51 116.7 130.51 117.31 130.5 117.92 130.5 118.53 130.5 119.13 130.49 119.74 130.49 120.35 130.49 120.96 130.48 121.57 130.48 122.17 130.48 122.78 130.47 123.39 130.47 124 130.46 124.61 130.46 125.21 130.45 125.82 130.45 126.43 130.45 127.04 130.44 127.65 130.43 128.25 130.43 128.86 130.42 129.47 130.42 130.08 130.41 130.69 130.4 131.29 130.4 131.9 130.39 132.51 130.38 133.12 130.38 133.73 130.37 134.33 130.36 134.94 130.35 135.55 130.34 136.16 130.34 136.77 130.33 137.38 130.32 137.98 130.31 138.59 130.3 139.2 130.28 139.81 130.27 140.42 130.26 141.02 130.25 141.63 130.24 142.24 130.22 142.85 130.21 143.46 130.19 144.06 130.18 144.67 130.16 145.28 130.15 145.89 130.13 146.5 130.11 147.1 130.09 147.71 130.07 148.32 130.05 148.93 130.02 149.54 130 150.14 129.97 150.75 129.95 151.36 129.92 151.97 129.89 152.58 129.86 153.18 129.82 153.79 129.78 154.4 129.74 155.01 129.7 155.62 129.66 156.22 129.61 156.83 129.55 157.44 129.5 158.05 129.43 158.66 129.36 159.26 129.29 159.87 129.21 160.48 129.11 161.09 129.01 161.7 128.9 162.3 128.77 162.91 128.62 163.52 128.46 164.13 128.27 164.74 128.04 165.34 127.78 165.95 127.46 166.56 127.07 167.17 126.58 167.78 125.95 168.39 125.12 168.99 123.95 169.6 122.19 170.21 119.27 170.82 113.42 171.43 95.86"/>
      </g>
      <g shape-rendering="crispEdges" stroke-width="0.3" id="img-9c4ad01f-15">
        <g stroke="#000000" stroke-opacity="0.000" fill="#00BFFF" class="geometry" id="img-9c4ad01f-16">
          <rect x="20.61" y="123.22" width="3.08" height="7.9"/>
          <rect x="23.63" y="128.86" width="3.08" height="2.26"/>
          <rect x="26.66" y="128.86" width="3.08" height="2.26"/>
          <rect x="29.69" y="126.6" width="3.08" height="4.51"/>
          <rect x="32.72" y="124.35" width="3.08" height="6.77"/>
          <rect x="35.75" y="127.73" width="3.08" height="3.38"/>
          <rect x="38.77" y="128.86" width="3.08" height="2.26"/>
          <rect x="41.8" y="128.86" width="3.08" height="2.26"/>
          <rect x="44.83" y="128.86" width="3.08" height="2.26"/>
          <rect x="47.86" y="128.86" width="3.08" height="2.26"/>
          <rect x="50.89" y="128.86" width="3.08" height="2.26"/>
          <rect x="53.92" y="129.99" width="3.08" height="1.13"/>
          <rect x="56.94" y="129.99" width="3.08" height="1.13"/>
          <rect x="59.97" y="127.73" width="3.08" height="3.38"/>
          <rect x="63" y="131.11" width="3.08" height="0.01"/>
          <rect x="66.03" y="131.11" width="3.08" height="0.01"/>
          <rect x="69.06" y="131.11" width="3.08" height="0.01"/>
          <rect x="72.08" y="128.86" width="3.08" height="2.26"/>
          <rect x="75.11" y="131.11" width="3.08" height="0.01"/>
          <rect x="78.14" y="129.99" width="3.08" height="1.13"/>
          <rect x="81.17" y="128.86" width="3.08" height="2.26"/>
          <rect x="84.2" y="128.86" width="3.08" height="2.26"/>
          <rect x="87.22" y="129.99" width="3.08" height="1.13"/>
          <rect x="90.25" y="128.86" width="3.08" height="2.26"/>
          <rect x="93.28" y="129.99" width="3.08" height="1.13"/>
          <rect x="96.31" y="131.11" width="3.08" height="0.01"/>
          <rect x="99.34" y="128.86" width="3.08" height="2.26"/>
          <rect x="102.36" y="128.86" width="3.08" height="2.26"/>
          <rect x="105.39" y="127.73" width="3.08" height="3.38"/>
          <rect x="108.42" y="131.11" width="3.08" height="0.01"/>
          <rect x="111.45" y="131.11" width="3.08" height="0.01"/>
          <rect x="114.48" y="131.11" width="3.08" height="0.01"/>
          <rect x="117.5" y="128.86" width="3.08" height="2.26"/>
          <rect x="120.53" y="126.6" width="3.08" height="4.51"/>
          <rect x="123.56" y="131.11" width="3.08" height="0.01"/>
          <rect x="126.59" y="131.11" width="3.08" height="0.01"/>
          <rect x="129.62" y="129.99" width="3.08" height="1.13"/>
          <rect x="132.64" y="127.73" width="3.08" height="3.38"/>
          <rect x="135.67" y="129.99" width="3.08" height="1.13"/>
          <rect x="138.7" y="129.99" width="3.08" height="1.13"/>
          <rect x="141.73" y="131.11" width="3.08" height="0.01"/>
          <rect x="144.76" y="129.99" width="3.08" height="1.13"/>
          <rect x="147.78" y="131.11" width="3.08" height="0.01"/>
          <rect x="150.81" y="129.99" width="3.08" height="1.13"/>
          <rect x="153.84" y="126.6" width="3.08" height="4.51"/>
          <rect x="156.87" y="126.6" width="3.08" height="4.51"/>
          <rect x="159.9" y="128.86" width="3.08" height="2.26"/>
          <rect x="162.92" y="123.22" width="3.08" height="7.9"/>
          <rect x="165.95" y="129.99" width="3.08" height="1.13"/>
          <rect x="168.98" y="118.71" width="3.08" height="12.41"/>
        </g>
      </g>
      <g stroke-width="0.3" fill="#000000" fill-opacity="0.000" class="geometry" stroke-dasharray="none" stroke="#FFA500" id="img-9c4ad01f-17">
        <path fill="none" d="M21.24,95.86 L 21.85 113.42 22.46 119.27 23.06 122.19 23.67 123.95 24.28 125.12 24.89 125.95 25.5 126.58 26.1 127.07 26.71 127.46 27.32 127.78 27.93 128.04 28.54 128.27 29.14 128.46 29.75 128.62 30.36 128.77 30.97 128.9 31.58 129.01 32.18 129.11 32.79 129.21 33.4 129.29 34.01 129.36 34.62 129.43 35.22 129.5 35.83 129.55 36.44 129.61 37.05 129.66 37.66 129.7 38.26 129.74 38.87 129.78 39.48 129.82 40.09 129.86 40.7 129.89 41.3 129.92 41.91 129.95 42.52 129.97 43.13 130 43.74 130.02 44.35 130.05 44.95 130.07 45.56 130.09 46.17 130.11 46.78 130.13 47.39 130.15 47.99 130.16 48.6 130.18 49.21 130.19 49.82 130.21 50.43 130.22 51.03 130.24 51.64 130.25 52.25 130.26 52.86 130.27 53.47 130.28 54.07 130.3 54.68 130.31 55.29 130.32 55.9 130.33 56.51 130.34 57.11 130.34 57.72 130.35 58.33 130.36 58.94 130.37 59.55 130.38 60.15 130.38 60.76 130.39 61.37 130.4 61.98 130.4 62.59 130.41 63.19 130.42 63.8 130.42 64.41 130.43 65.02 130.43 65.63 130.44 66.23 130.45 66.84 130.45 67.45 130.45 68.06 130.46 68.67 130.46 69.27 130.47 69.88 130.47 70.49 130.48 71.1 130.48 71.71 130.48 72.31 130.49 72.92 130.49 73.53 130.49 74.14 130.5 74.75 130.5 75.36 130.5 75.96 130.51 76.57 130.51 77.18 130.51 77.79 130.51 78.4 130.52 79 130.52 79.61 130.52 80.22 130.52 80.83 130.53 81.44 130.53 82.04 130.53 82.65 130.53 83.26 130.53 83.87 130.54 84.48 130.54 85.08 130.54 85.69 130.54 86.3 130.54 86.91 130.54 87.52 130.54 88.12 130.54 88.73 130.55 89.34 130.55 89.95 130.55 90.56 130.55 91.16 130.55 91.77 130.55 92.38 130.55 92.99 130.55 93.6 130.55 94.2 130.55 94.81 130.55 95.42 130.55 96.03 130.55 96.64 130.55 97.24 130.55 97.85 130.55 98.46 130.55 99.07 130.55 99.68 130.55 100.28 130.55 100.89 130.55 101.5 130.55 102.11 130.55 102.72 130.55 103.32 130.55 103.93 130.55 104.54 130.54 105.15 130.54 105.76 130.54 106.37 130.54 106.97 130.54 107.58 130.54 108.19 130.54 108.8 130.54 109.41 130.53 110.01 130.53 110.62 130.53 111.23 130.53 111.84 130.53 112.45 130.52 113.05 130.52 113.66 130.52 114.27 130.52 114.88 130.51 115.49 130.51 116.09 130.51 116.7 130.51 117.31 130.5 117.92 130.5 118.53 130.5 119.13 130.49 119.74 130.49 120.35 130.49 120.96 130.48 121.57 130.48 122.17 130.48 122.78 130.47 123.39 130.47 124 130.46 124.61 130.46 125.21 130.45 125.82 130.45 126.43 130.45 127.04 130.44 127.65 130.43 128.25 130.43 128.86 130.42 129.47 130.42 130.08 130.41 130.69 130.4 131.29 130.4 131.9 130.39 132.51 130.38 133.12 130.38 133.73 130.37 134.33 130.36 134.94 130.35 135.55 130.34 136.16 130.34 136.77 130.33 137.38 130.32 137.98 130.31 138.59 130.3 139.2 130.28 139.81 130.27 140.42 130.26 141.02 130.25 141.63 130.24 142.24 130.22 142.85 130.21 143.46 130.19 144.06 130.18 144.67 130.16 145.28 130.15 145.89 130.13 146.5 130.11 147.1 130.09 147.71 130.07 148.32 130.05 148.93 130.02 149.54 130 150.14 129.97 150.75 129.95 151.36 129.92 151.97 129.89 152.58 129.86 153.18 129.82 153.79 129.78 154.4 129.74 155.01 129.7 155.62 129.66 156.22 129.61 156.83 129.55 157.44 129.5 158.05 129.43 158.66 129.36 159.26 129.29 159.87 129.21 160.48 129.11 161.09 129.01 161.7 128.9 162.3 128.77 162.91 128.62 163.52 128.46 164.13 128.27 164.74 128.04 165.34 127.78 165.95 127.46 166.56 127.07 167.17 126.58 167.78 125.95 168.39 125.12 168.99 123.95 169.6 122.19 170.21 119.27 170.82 113.42 171.43 95.86"/>
      </g>
    </g>
  </g>
</g>
  <g class="guide ylabels" font-size="2.82" font-family="'PT Sans Caption','Helvetica Neue','Helvetica',sans-serif" fill="#000000" id="img-9c4ad01f-18">
    <text x="17.63" y="131.11" text-anchor="end" dy="0.35em">0.0</text>
    <text x="17.63" y="117.01" text-anchor="end" dy="0.35em">0.5</text>
    <text x="17.63" y="102.91" text-anchor="end" dy="0.35em">1.0</text>
    <text x="17.63" y="88.81" text-anchor="end" dy="0.35em">1.5</text>
  </g>
  <g font-size="3.88" font-family="'PT Sans','Helvetica Neue','Helvetica',sans-serif" fill="#000000" stroke="#000000" stroke-opacity="0.000" id="img-9c4ad01f-19">
    <text x="8.81" y="107.96" text-anchor="middle" dy="0.35em" transform="rotate(-90, 8.81, 109.96)">density</text>
  </g>
  <g font-size="3.88" font-family="'PT Sans','Helvetica Neue','Helvetica',sans-serif" fill="#000000" stroke="#000000" stroke-opacity="0.000" id="img-9c4ad01f-20">
    <text x="96.33" y="81.2" text-anchor="middle" dy="0.6em">Histogram of population in generation 500</text>
  </g>
</g>
<g class="plotroot xscalable yscalable" id="img-9c4ad01f-21">
  <g font-size="3.88" font-family="'PT Sans','Helvetica Neue','Helvetica',sans-serif" fill="#000000" stroke="#000000" stroke-opacity="0.000" id="img-9c4ad01f-22">
    <text x="108.92" y="64.59" text-anchor="middle" dy="0.6em">generation number</text>
  </g>
  <g class="guide xlabels" font-size="2.82" font-family="'PT Sans Caption','Helvetica Neue','Helvetica',sans-serif" fill="#000000" id="img-9c4ad01f-23">
    <text x="21.63" y="57.91" text-anchor="middle" dy="0.6em">0</text>
    <text x="56.55" y="57.91" text-anchor="middle" dy="0.6em">100</text>
    <text x="91.46" y="57.91" text-anchor="middle" dy="0.6em">200</text>
    <text x="126.37" y="57.91" text-anchor="middle" dy="0.6em">300</text>
    <text x="161.29" y="57.91" text-anchor="middle" dy="0.6em">400</text>
    <text x="196.2" y="57.91" text-anchor="middle" dy="0.6em">500</text>
  </g>
<g clip-path="url(#img-9c4ad01f-24)">
  <g id="img-9c4ad01f-25">
    <g pointer-events="visible" opacity="1" fill="#FFFFFF" stroke="#000000" stroke-opacity="0.000" class="guide background" id="img-9c4ad01f-26">
      <rect x="19.63" y="10.61" width="178.57" height="46.3"/>
    </g>
    <g class="guide ygridlines xfixed" stroke-dasharray="0.5,0.5" stroke-width="0.2" stroke="#808080" id="img-9c4ad01f-27">
      <path fill="none" d="M19.63,54.91 L 198.2 54.91"/>
      <path fill="none" d="M19.63,44.34 L 198.2 44.34"/>
      <path fill="none" d="M19.63,33.76 L 198.2 33.76"/>
      <path fill="none" d="M19.63,23.19 L 198.2 23.19"/>
      <path fill="none" d="M19.63,12.61 L 198.2 12.61"/>
    </g>
    <g class="guide xgridlines yfixed" stroke-dasharray="0.5,0.5" stroke-width="0.2" stroke="#808080" id="img-9c4ad01f-28">
      <path fill="none" d="M21.63,10.61 L 21.63 56.91"/>
      <path fill="none" d="M56.55,10.61 L 56.55 56.91"/>
      <path fill="none" d="M91.46,10.61 L 91.46 56.91"/>
      <path fill="none" d="M126.37,10.61 L 126.37 56.91"/>
      <path fill="none" d="M161.29,10.61 L 161.29 56.91"/>
      <path fill="none" d="M196.2,10.61 L 196.2 56.91"/>
    </g>
    <g class="plotpanel" id="img-9c4ad01f-29">
      <g stroke-width="0.3" fill="#000000" fill-opacity="0.000" class="geometry" stroke-dasharray="none" stroke="#3288BD" id="img-9c4ad01f-30">
        <path fill="none" d="M21.98,33.76 L 22.33 33.34 22.68 33.97 23.03 36.72 23.38 36.72 23.73 37.78 24.08 35.24 24.42 33.34 24.77 33.97 25.12 33.76 25.47 33.97 25.82 34.82 26.17 35.24 26.52 36.51 26.87 36.94 27.22 35.67 27.57 35.46 27.92 36.09 28.27 34.82 28.61 35.24 28.96 36.09 29.31 38.63 29.66 38.84 30.01 38.42 30.36 37.99 30.71 37.99 31.06 37.78 31.41 36.51 31.76 37.36 32.11 36.09 32.45 34.82 32.8 35.24 33.15 33.55 33.5 33.97 33.85 35.88 34.2 37.36 34.55 37.78 34.9 37.57 35.25 38.63 35.6 39.47 35.95 39.26 36.3 40.11 36.64 38.84 36.99 41.8 37.34 43.49 37.69 42.44 38.04 41.17 38.39 40.74 38.74 38.21 39.09 37.36 39.44 38.84 39.79 40.11 40.14 38.63 40.49 39.69 40.83 41.17 41.18 39.69 41.53 40.53 41.88 41.8 42.23 43.49 42.58 43.92 42.93 43.28 43.28 43.07 43.63 38.63 43.98 37.99 44.33 36.09 44.67 34.61 45.02 33.34 45.37 34.19 45.72 33.55 46.07 34.61 46.42 36.3 46.77 35.03 47.12 33.34 47.47 31.86 47.82 32.92 48.17 33.55 48.52 32.71 48.86 33.97 49.21 33.76 49.56 34.19 49.91 35.03 50.26 33.13 50.61 33.13 50.96 33.34 51.31 33.13 51.66 34.61 52.01 32.92 52.36 33.97 52.7 32.28 53.05 29.32 53.4 30.38 53.75 29.96 54.1 28.9 54.45 27.21 54.8 27.42 55.15 27.42 55.5 28.48 55.85 28.05 56.2 27.84 56.55 24.46 56.89 23.19 57.24 20.44 57.59 20.01 57.94 21.28 58.29 21.71 58.64 20.65 58.99 22.13 59.34 24.46 59.69 24.67 60.04 23.4 60.39 23.4 60.73 22.76 61.08 21.5 61.43 20.65 61.78 22.55 62.13 24.46 62.48 22.98 62.83 22.76 63.18 22.76 63.53 22.76 63.88 21.71 64.23 22.34 64.58 24.03 64.92 25.94 65.27 24.67 65.62 24.46 65.97 25.09 66.32 26.15 66.67 25.73 67.02 25.51 67.37 23.82 67.72 25.51 68.07 21.71 68.42 21.28 68.77 20.01 69.11 20.44 69.46 21.28 69.81 22.13 70.16 21.5 70.51 23.19 70.86 22.34 71.21 21.92 71.56 20.44 71.91 20.44 72.26 21.07 72.61 22.13 72.95 19.8 73.3 19.17 73.65 21.07 74 23.4 74.35 22.55 74.7 25.73 75.05 24.25 75.4 25.3 75.75 26.78 76.1 26.36 76.45 26.15 76.8 27.84 77.14 28.69 77.49 26.36 77.84 27.42 78.19 28.69 78.54 28.26 78.89 29.96 79.24 29.96 79.59 27.42 79.94 26.36 80.29 25.09 80.64 24.88 80.98 23.19 81.33 22.76 81.68 24.25 82.03 24.88 82.38 24.88 82.73 24.03 83.08 23.61 83.43 24.25 83.78 25.3 84.13 24.88 84.48 26.15 84.83 25.94 85.17 27.84 85.52 26.78 85.87 29.11 86.22 27.84 86.57 27.42 86.92 28.48 87.27 29.11 87.62 28.69 87.97 28.05 88.32 28.26 88.67 28.26 89.02 27.63 89.36 27.21 89.71 26.99 90.06 25.94 90.41 26.57 90.76 28.26 91.11 27.84 91.46 27.42 91.81 26.57 92.16 29.11 92.51 29.74 92.86 29.32 93.2 30.17 93.55 26.78 93.9 27.42 94.25 27.63 94.6 28.05 94.95 29.53 95.3 28.9 95.65 27.84 96 29.74 96.35 29.32 96.7 28.9 97.05 25.09 97.39 25.3 97.74 26.57 98.09 26.57 98.44 24.46 98.79 24.03 99.14 25.09 99.49 26.15 99.84 25.73 100.19 24.03 100.54 26.36 100.89 22.76 101.23 22.76 101.58 21.28 101.93 21.92 102.28 21.28 102.63 22.76 102.98 26.15 103.33 25.3 103.68 25.51 104.03 23.61 104.38 23.61 104.73 24.46 105.08 24.46 105.42 25.51 105.77 27.63 106.12 26.15 106.47 25.51 106.82 26.57 107.17 26.57 107.52 28.48 107.87 28.05 108.22 26.36 108.57 25.51 108.92 23.82 109.26 24.25 109.61 22.55 109.96 23.4 110.31 24.25 110.66 26.36 111.01 26.78 111.36 29.74 111.71 29.74 112.06 27.21 112.41 25.3 112.76 22.13 113.11 24.46 113.45 25.51 113.8 24.25 114.15 23.19 114.5 26.15 114.85 26.78 115.2 27.21 115.55 29.32 115.9 28.05 116.25 30.17 116.6 30.59 116.95 31.44 117.3 29.53 117.64 29.96 117.99 28.69 118.34 26.57 118.69 24.88 119.04 24.25 119.39 24.03 119.74 24.88 120.09 25.09 120.44 24.67 120.79 27.42 121.14 28.26 121.48 28.05 121.83 26.57 122.18 25.51 122.53 25.73 122.88 26.15 123.23 29.11 123.58 28.9 123.93 27.42 124.28 30.59 124.63 31.01 124.98 30.8 125.33 29.11 125.67 27.42 126.02 30.17 126.37 30.59 126.72 30.38 127.07 29.96 127.42 31.23 127.77 28.69 128.12 28.9 128.47 29.32 128.82 29.96 129.17 29.53 129.51 30.59 129.86 29.53 130.21 29.53 130.56 29.53 130.91 30.38 131.26 30.8 131.61 32.49 131.96 34.19 132.31 37.57 132.66 35.24 133.01 34.82 133.36 32.28 133.7 33.76 134.05 34.19 134.4 32.71 134.75 32.49 135.1 31.86 135.45 31.01 135.8 31.01 136.15 28.9 136.5 30.59 136.85 32.49 137.2 32.92 137.55 33.34 137.89 32.49 138.24 32.71 138.59 31.23 138.94 25.94 139.29 27.21 139.64 28.26 139.99 28.05 140.34 26.57 140.69 25.73 141.04 27.21 141.39 28.05 141.73 29.96 142.08 27.63 142.43 26.36 142.78 24.25 143.13 23.61 143.48 24.88 143.83 25.51 144.18 25.3 144.53 25.3 144.88 24.88 145.23 23.19 145.58 23.19 145.92 22.55 146.27 19.17 146.62 17.9 146.97 17.9 147.32 19.38 147.67 19.8 148.02 18.11 148.37 17.9 148.72 17.48 149.07 16.42 149.42 16.42 149.76 16.42 150.11 15.57 150.46 16.42 150.81 17.27 151.16 17.9 151.51 17.48 151.86 16 152.21 17.27 152.56 16.63 152.91 15.78 153.26 15.78 153.61 15.57 153.95 16.42 154.3 16.21 154.65 16.84 155 17.69 155.35 19.38 155.7 21.28 156.05 24.67 156.4 25.73 156.75 24.46 157.1 23.19 157.45 22.98 157.79 25.3 158.14 27.63 158.49 26.15 158.84 26.57 159.19 27.21 159.54 28.05 159.89 26.15 160.24 25.51 160.59 24.88 160.94 24.46 161.29 24.03 161.64 23.82 161.98 23.4 162.33 22.98 162.68 24.88 163.03 24.67 163.38 26.99 163.73 25.73 164.08 26.78 164.43 28.26 164.78 26.99 165.13 27.21 165.48 25.94 165.83 25.3 166.17 26.57 166.52 28.69 166.87 27.42 167.22 27.63 167.57 28.9 167.92 29.32 168.27 31.86 168.62 33.13 168.97 31.65 169.32 30.17 169.67 28.9 170.01 28.48 170.36 28.69 170.71 28.05 171.06 28.9 171.41 26.15 171.76 26.15 172.11 26.78 172.46 26.36 172.81 26.36 173.16 24.88 173.51 26.15 173.86 23.82 174.2 23.19 174.55 23.4 174.9 24.25 175.25 24.88 175.6 22.98 175.95 21.71 176.3 21.5 176.65 21.5 177 19.59 177.35 20.86 177.7 21.92 178.04 21.92 178.39 20.65 178.74 19.38 179.09 20.01 179.44 19.38 179.79 18.75 180.14 18.11 180.49 18.75 180.84 19.8 181.19 20.23 181.54 21.28 181.89 23.4 182.23 22.76 182.58 21.92 182.93 21.92 183.28 23.61 183.63 21.5 183.98 22.55 184.33 20.86 184.68 22.34 185.03 21.92 185.38 23.19 185.73 24.88 186.08 25.09 186.42 23.4 186.77 23.19 187.12 22.98 187.47 23.82 187.82 26.78 188.17 28.05 188.52 26.57 188.87 25.3 189.22 27.42 189.57 28.48 189.92 27.42 190.26 26.99 190.61 26.15 190.96 27.63 191.31 24.88 191.66 22.98 192.01 21.07 192.36 22.55 192.71 20.44 193.06 20.23 193.41 21.07 193.76 20.01 194.11 19.8 194.45 18.32 194.8 16.42 195.15 16.84 195.5 17.69 195.85 17.27 196.2 17.48"/>
      </g>
      <g stroke-width="0.3" fill="#000000" fill-opacity="0.000" class="geometry" stroke-dasharray="none" stroke="#66C2A5" id="img-9c4ad01f-31">
        <path fill="none" d="M21.98,33.76 L 22.33 31.44 22.68 31.44 23.03 31.44 23.38 31.23 23.73 30.17 24.08 29.74 24.42 29.74 24.77 31.23 25.12 31.23 25.47 32.71 25.82 33.97 26.17 29.96 26.52 32.07 26.87 30.59 27.22 30.8 27.57 29.96 27.92 31.65 28.27 31.86 28.61 32.92 28.96 35.67 29.31 36.94 29.66 37.78 30.01 38.42 30.36 37.99 30.71 36.3 31.06 34.19 31.41 33.97 31.76 32.92 32.11 33.55 32.45 35.03 32.8 33.34 33.15 30.38 33.5 32.71 33.85 29.96 34.2 28.48 34.55 25.94 34.9 24.03 35.25 23.61 35.6 24.46 35.95 23.61 36.3 25.3 36.64 25.09 36.99 26.78 37.34 27.42 37.69 28.9 38.04 27.42 38.39 27.21 38.74 25.73 39.09 26.99 39.44 25.51 39.79 31.86 40.14 32.71 40.49 33.34 40.83 32.07 41.18 31.86 41.53 30.8 41.88 29.53 42.23 30.17 42.58 32.71 42.93 33.13 43.28 33.34 43.63 33.97 43.98 36.3 44.33 34.61 44.67 35.67 45.02 35.03 45.37 32.28 45.72 32.07 46.07 31.01 46.42 30.38 46.77 30.17 47.12 31.86 47.47 33.55 47.82 31.86 48.17 32.49 48.52 33.34 48.86 32.07 49.21 31.65 49.56 29.96 49.91 29.74 50.26 29.32 50.61 31.23 50.96 33.13 51.31 32.71 51.66 32.49 52.01 30.17 52.36 28.48 52.7 29.53 53.05 28.48 53.4 29.32 53.75 28.48 54.1 27.84 54.45 29.32 54.8 31.86 55.15 31.44 55.5 29.53 55.85 28.48 56.2 27.21 56.55 27.63 56.89 28.9 57.24 27.63 57.59 28.9 57.94 30.17 58.29 29.96 58.64 27.21 58.99 26.78 59.34 26.78 59.69 25.73 60.04 24.67 60.39 23.82 60.73 23.19 61.08 23.82 61.43 22.34 61.78 21.07 62.13 22.34 62.48 21.5 62.83 21.07 63.18 19.38 63.53 20.86 63.88 22.13 64.23 22.98 64.58 20.65 64.92 21.92 65.27 21.28 65.62 22.13 65.97 20.44 66.32 19.8 66.67 19.59 67.02 17.48 67.37 17.27 67.72 16.42 68.07 16 68.42 15.57 68.77 16.84 69.11 15.78 69.46 15.78 69.81 16.42 70.16 16.21 70.51 15.78 70.86 16.21 71.21 16.21 71.56 16.21 71.91 15.57 72.26 16.63 72.61 16.84 72.95 18.75 73.3 18.96 73.65 19.17 74 21.5 74.35 22.76 74.7 21.92 75.05 21.28 75.4 22.55 75.75 23.4 76.1 23.82 76.45 24.03 76.8 25.3 77.14 24.88 77.49 25.73 77.84 25.09 78.19 25.73 78.54 25.73 78.89 25.3 79.24 26.36 79.59 24.88 79.94 22.98 80.29 23.4 80.64 23.4 80.98 26.57 81.33 24.67 81.68 25.09 82.03 23.61 82.38 25.51 82.73 27.42 83.08 27.63 83.43 26.15 83.78 26.36 84.13 27.42 84.48 25.09 84.83 24.46 85.17 24.67 85.52 24.88 85.87 24.88 86.22 26.99 86.57 28.05 86.92 30.8 87.27 28.9 87.62 30.38 87.97 29.74 88.32 31.44 88.67 31.86 89.02 31.65 89.36 30.17 89.71 32.07 90.06 31.86 90.41 32.49 90.76 33.76 91.11 32.49 91.46 30.17 91.81 28.26 92.16 27.42 92.51 28.69 92.86 27.21 93.2 28.48 93.55 31.65 93.9 32.28 94.25 32.92 94.6 35.67 94.95 36.51 95.3 36.72 95.65 37.99 96 37.57 96.35 37.36 96.7 35.46 97.05 35.88 97.39 36.09 97.74 34.82 98.09 36.51 98.44 34.61 98.79 32.92 99.14 32.92 99.49 33.13 99.84 32.92 100.19 33.76 100.54 34.61 100.89 33.34 101.23 31.01 101.58 32.28 101.93 31.65 102.28 33.55 102.63 33.34 102.98 33.13 103.33 33.34 103.68 34.4 104.03 36.3 104.38 34.61 104.73 33.76 105.08 35.03 105.42 36.09 105.77 36.09 106.12 37.15 106.47 35.67 106.82 35.67 107.17 36.51 107.52 36.94 107.87 37.15 108.22 37.15 108.57 37.15 108.92 37.99 109.26 39.9 109.61 39.47 109.96 40.11 110.31 41.17 110.66 41.8 111.01 40.32 111.36 38.42 111.71 38.84 112.06 38.84 112.41 41.8 112.76 42.22 113.11 41.8 113.45 39.69 113.8 38.42 114.15 39.69 114.5 40.53 114.85 39.69 115.2 38.84 115.55 43.49 115.9 44.13 116.25 46.03 116.6 46.67 116.95 48.57 117.3 47.09 117.64 47.3 117.99 48.57 118.34 48.99 118.69 48.57 119.04 47.72 119.39 49.2 119.74 46.88 120.09 48.36 120.44 46.88 120.79 47.72 121.14 46.67 121.48 45.19 121.83 43.49 122.18 43.49 122.53 47.09 122.88 47.51 123.23 46.24 123.58 46.24 123.93 44.55 124.28 44.55 124.63 44.13 124.98 47.93 125.33 47.93 125.67 46.67 126.02 46.45 126.37 47.51 126.72 48.99 127.07 48.36 127.42 50.26 127.77 50.05 128.12 50.68 128.47 50.9 128.82 49.63 129.17 50.26 129.51 50.26 129.86 49.42 130.21 49.2 130.56 48.57 130.91 49.63 131.26 50.68 131.61 49.63 131.96 48.99 132.31 49.42 132.66 49.2 133.01 49.63 133.36 50.05 133.7 48.99 134.05 48.57 134.4 47.3 134.75 48.15 135.1 48.15 135.45 47.3 135.8 47.3 136.15 44.55 136.5 43.49 136.85 42.44 137.2 44.34 137.55 43.49 137.89 44.55 138.24 43.49 138.59 44.55 138.94 42.22 139.29 42.44 139.64 40.53 139.99 40.74 140.34 40.74 140.69 40.53 141.04 41.59 141.39 41.17 141.73 42.44 142.08 41.59 142.43 44.13 142.78 44.34 143.13 45.19 143.48 45.61 143.83 46.88 144.18 45.82 144.53 46.45 144.88 47.93 145.23 48.57 145.58 48.57 145.92 48.99 146.27 47.72 146.62 46.24 146.97 47.51 147.32 47.09 147.67 48.36 148.02 46.67 148.37 47.51 148.72 46.88 149.07 46.88 149.42 46.03 149.76 44.97 150.11 42.44 150.46 44.55 150.81 44.55 151.16 44.97 151.51 47.09 151.86 46.45 152.21 46.88 152.56 47.3 152.91 48.99 153.26 48.15 153.61 48.78 153.95 46.45 154.3 46.03 154.65 47.93 155 47.93 155.35 46.45 155.7 46.67 156.05 47.72 156.4 48.15 156.75 47.72 157.1 47.93 157.45 48.36 157.79 50.05 158.14 48.99 158.49 49.2 158.84 49.63 159.19 47.3 159.54 47.93 159.89 47.93 160.24 48.15 160.59 47.51 160.94 47.51 161.29 46.88 161.64 47.51 161.98 47.72 162.33 47.51 162.68 47.09 163.03 47.09 163.38 47.3 163.73 47.93 164.08 47.93 164.43 48.99 164.78 51.53 165.13 51.74 165.48 51.95 165.83 52.59 166.17 52.38 166.52 53.01 166.87 52.38 167.22 51.74 167.57 51.74 167.92 52.17 168.27 53.01 168.62 52.38 168.97 52.59 169.32 52.8 169.67 52.38 170.01 51.95 170.36 52.17 170.71 52.8 171.06 52.38 171.41 52.17 171.76 51.95 172.11 51.11 172.46 51.11 172.81 51.11 173.16 50.26 173.51 49.63 173.86 49.42 174.2 48.57 174.55 50.68 174.9 51.32 175.25 52.38 175.6 52.8 175.95 53.22 176.3 53.01 176.65 53.43 177 54.07 177.35 53.43 177.7 53.01 178.04 52.8 178.39 53.01 178.74 53.22 179.09 53.22 179.44 52.8 179.79 53.65 180.14 53.43 180.49 53.43 180.84 53.22 181.19 53.43 181.54 53.43 181.89 53.86 182.23 54.28 182.58 53.86 182.93 54.07 183.28 53.43 183.63 53.65 183.98 53.65 184.33 53.43 184.68 51.95 185.03 51.53 185.38 51.95 185.73 52.59 186.08 52.17 186.42 51.95 186.77 52.17 187.12 52.59 187.47 52.8 187.82 52.59 188.17 53.86 188.52 53.65 188.87 53.22 189.22 53.01 189.57 52.8 189.92 51.95 190.26 52.38 190.61 52.38 190.96 51.53 191.31 51.11 191.66 50.47 192.01 49.63 192.36 50.26 192.71 51.11 193.06 51.53 193.41 51.32 193.76 51.32 194.11 51.53 194.45 50.68 194.8 50.26 195.15 50.05 195.5 51.32 195.85 52.38 196.2 52.38"/>
      </g>
      <g stroke-width="0.3" fill="#000000" fill-opacity="0.000" class="geometry" stroke-dasharray="none" stroke="#ABDDA4" id="img-9c4ad01f-32">
        <path fill="none" d="M21.98,33.76 L 22.33 36.51 22.68 34.19 23.03 35.24 23.38 35.46 23.73 33.76 24.08 33.13 24.42 37.78 24.77 39.26 25.12 38.63 25.47 38.63 25.82 38.84 26.17 38.63 26.52 35.46 26.87 35.46 27.22 33.55 27.57 34.19 27.92 36.3 28.27 37.57 28.61 38.63 28.96 41.8 29.31 40.11 29.66 40.74 30.01 37.78 30.36 39.05 30.71 38.84 31.06 40.11 31.41 37.57 31.76 37.15 32.11 37.57 32.45 35.88 32.8 33.76 33.15 34.82 33.5 39.26 33.85 34.61 34.2 32.92 34.55 33.13 34.9 35.03 35.25 37.36 35.6 34.61 35.95 36.09 36.3 33.55 36.64 32.07 36.99 31.23 37.34 31.23 37.69 28.48 38.04 28.05 38.39 26.78 38.74 26.99 39.09 27.84 39.44 27.84 39.79 28.05 40.14 25.51 40.49 25.51 40.83 25.73 41.18 24.67 41.53 23.19 41.88 20.44 42.23 20.23 42.58 21.07 42.93 22.55 43.28 23.61 43.63 20.23 43.98 21.28 44.33 22.55 44.67 21.71 45.02 22.55 45.37 22.13 45.72 23.61 46.07 24.03 46.42 24.67 46.77 26.99 47.12 29.11 47.47 27.84 47.82 27.42 48.17 29.74 48.52 29.96 48.86 28.9 49.21 26.36 49.56 26.36 49.91 26.57 50.26 29.53 50.61 29.96 50.96 30.38 51.31 29.53 51.66 31.01 52.01 32.71 52.36 32.28 52.7 29.53 53.05 31.86 53.4 28.9 53.75 28.9 54.1 27.84 54.45 30.59 54.8 31.44 55.15 35.24 55.5 35.88 55.85 35.46 56.2 35.03 56.55 35.24 56.89 34.4 57.24 36.72 57.59 38.63 57.94 37.15 58.29 37.78 58.64 37.78 58.99 36.72 59.34 36.94 59.69 36.72 60.04 36.09 60.39 37.36 60.73 34.19 61.08 34.82 61.43 33.34 61.78 32.28 62.13 32.49 62.48 34.82 62.83 36.94 63.18 36.94 63.53 35.88 63.88 33.76 64.23 33.55 64.58 33.97 64.92 33.97 65.27 32.28 65.62 31.44 65.97 34.4 66.32 36.94 66.67 37.15 67.02 34.82 67.37 35.88 67.72 35.67 68.07 34.61 68.42 34.82 68.77 33.76 69.11 35.03 69.46 34.4 69.81 35.88 70.16 37.78 70.51 35.67 70.86 37.57 71.21 37.78 71.56 39.47 71.91 38.63 72.26 36.94 72.61 37.36 72.95 40.53 73.3 42.44 73.65 42.44 74 43.7 74.35 43.07 74.7 42.22 75.05 41.8 75.4 42.01 75.75 40.74 76.1 40.11 76.45 39.9 76.8 39.9 77.14 42.44 77.49 41.38 77.84 41.17 78.19 40.74 78.54 41.8 78.89 40.53 79.24 40.74 79.59 42.01 79.94 42.44 80.29 43.49 80.64 43.49 80.98 43.49 81.33 42.65 81.68 43.49 82.03 44.34 82.38 44.55 82.73 45.19 83.08 43.7 83.43 44.55 83.78 43.92 84.13 45.61 84.48 45.61 84.83 44.34 85.17 42.01 85.52 44.97 85.87 46.03 86.22 46.45 86.57 46.88 86.92 46.67 87.27 47.51 87.62 47.51 87.97 47.09 88.32 46.67 88.67 46.03 89.02 46.45 89.36 48.78 89.71 48.15 90.06 48.36 90.41 48.15 90.76 49.42 91.11 48.99 91.46 48.57 91.81 48.78 92.16 48.99 92.51 49.42 92.86 50.47 93.2 50.26 93.55 49.84 93.9 49.63 94.25 48.57 94.6 48.57 94.95 50.05 95.3 50.05 95.65 50.47 96 49.42 96.35 48.99 96.7 47.93 97.05 47.72 97.39 45.61 97.74 44.76 98.09 46.67 98.44 48.57 98.79 48.36 99.14 45.4 99.49 45.82 99.84 45.4 100.19 45.19 100.54 46.03 100.89 46.88 101.23 48.15 101.58 48.57 101.93 46.67 102.28 46.88 102.63 46.03 102.98 46.03 103.33 46.45 103.68 46.24 104.03 46.67 104.38 46.03 104.73 45.19 105.08 46.24 105.42 47.93 105.77 47.72 106.12 48.57 106.47 48.99 106.82 50.9 107.17 50.05 107.52 49.63 107.87 49.63 108.22 50.05 108.57 50.9 108.92 51.11 109.26 50.9 109.61 50.68 109.96 50.68 110.31 51.11 110.66 50.47 111.01 50.9 111.36 52.8 111.71 53.01 112.06 53.01 112.41 51.74 112.76 51.53 113.11 50.47 113.45 50.05 113.8 50.47 114.15 50.9 114.5 51.32 114.85 49.63 115.2 48.36 115.55 48.36 115.9 46.03 116.25 46.88 116.6 47.72 116.95 46.67 117.3 47.72 117.64 48.15 117.99 48.78 118.34 47.51 118.69 46.03 119.04 46.67 119.39 44.55 119.74 44.97 120.09 45.19 120.44 44.55 120.79 45.19 121.14 45.82 121.48 47.3 121.83 46.45 122.18 46.45 122.53 47.51 122.88 47.72 123.23 44.55 123.58 44.55 123.93 43.28 124.28 41.17 124.63 40.53 124.98 42.01 125.33 43.49 125.67 43.49 126.02 42.65 126.37 41.38 126.72 41.8 127.07 41.38 127.42 40.95 127.77 40.53 128.12 42.86 128.47 42.65 128.82 43.07 129.17 43.49 129.51 40.32 129.86 42.01 130.21 39.69 130.56 37.36 130.91 36.3 131.26 36.51 131.61 34.4 131.96 33.13 132.31 33.55 132.66 29.32 133.01 29.96 133.36 27.84 133.7 28.9 134.05 29.32 134.4 29.11 134.75 28.69 135.1 28.48 135.45 27.21 135.8 30.17 136.15 29.53 136.5 29.96 136.85 29.53 137.2 29.53 137.55 28.9 137.89 29.53 138.24 27.21 138.59 28.48 138.94 29.32 139.29 29.74 139.64 30.59 139.99 30.38 140.34 29.53 140.69 27.63 141.04 24.67 141.39 26.57 141.73 25.3 142.08 25.73 142.43 25.94 142.78 27.42 143.13 25.94 143.48 25.09 143.83 24.46 144.18 24.25 144.53 23.19 144.88 22.76 145.23 20.65 145.58 22.76 145.92 24.46 146.27 24.25 146.62 24.67 146.97 23.4 147.32 24.25 147.67 24.46 148.02 22.34 148.37 21.71 148.72 22.55 149.07 20.23 149.42 20.44 149.76 20.01 150.11 17.48 150.46 17.05 150.81 17.05 151.16 18.32 151.51 18.11 151.86 18.11 152.21 17.05 152.56 16.21 152.91 17.27 153.26 16.84 153.61 16.63 153.95 16.63 154.3 16 154.65 14.52 155 14.52 155.35 13.88 155.7 13.46 156.05 13.25 156.4 12.61 156.75 12.61 157.1 12.61 157.45 12.61 157.79 12.61 158.14 12.61 158.49 12.61 158.84 12.61 159.19 12.61 159.54 12.61 159.89 12.61 160.24 12.61 160.59 12.61 160.94 12.61 161.29 12.61 161.64 12.61 161.98 12.82 162.33 13.46 162.68 12.82 163.03 12.61 163.38 12.61 163.73 12.61 164.08 12.61 164.43 12.61 164.78 12.61 165.13 13.25 165.48 12.61 165.83 12.61 166.17 12.61 166.52 12.61 166.87 12.61 167.22 12.61 167.57 12.61 167.92 12.61 168.27 12.61 168.62 12.61 168.97 12.82 169.32 13.25 169.67 13.25 170.01 13.03 170.36 12.82 170.71 13.03 171.06 12.82 171.41 12.82 171.76 12.82 172.11 12.82 172.46 13.03 172.81 12.82 173.16 12.82 173.51 13.03 173.86 12.61 174.2 12.61 174.55 12.61 174.9 12.61 175.25 12.61 175.6 12.61 175.95 12.61 176.3 12.82 176.65 13.25 177 13.03 177.35 12.82 177.7 12.82 178.04 12.61 178.39 12.61 178.74 12.61 179.09 12.82 179.44 12.61 179.79 12.61 180.14 12.61 180.49 12.61 180.84 12.61 181.19 12.61 181.54 12.61 181.89 12.61 182.23 13.03 182.58 13.03 182.93 13.67 183.28 13.46 183.63 14.09 183.98 13.67 184.33 13.88 184.68 13.46 185.03 13.46 185.38 13.25 185.73 13.25 186.08 13.03 186.42 13.03 186.77 13.25 187.12 13.03 187.47 13.03 187.82 13.03 188.17 13.25 188.52 12.82 188.87 13.25 189.22 13.88 189.57 13.67 189.92 14.09 190.26 13.88 190.61 13.25 190.96 13.46 191.31 13.46 191.66 14.3 192.01 15.15 192.36 15.15 192.71 15.78 193.06 16.42 193.41 16.42 193.76 17.27 194.11 17.48 194.45 17.69 194.8 18.11 195.15 18.75 195.5 17.48 195.85 18.32 196.2 16.63"/>
      </g>
      <g stroke-width="0.3" fill="#000000" fill-opacity="0.000" class="geometry" stroke-dasharray="none" stroke="#E6F598" id="img-9c4ad01f-33">
        <path fill="none" d="M21.98,33.76 L 22.33 32.49 22.68 32.92 23.03 34.61 23.38 32.07 23.73 31.01 24.08 33.97 24.42 34.4 24.77 33.97 25.12 35.03 25.47 37.15 25.82 38.63 26.17 38.21 26.52 38.84 26.87 39.26 27.22 38.84 27.57 38.21 27.92 36.09 28.27 35.88 28.61 36.72 28.96 36.09 29.31 37.78 29.66 37.57 30.01 40.53 30.36 40.74 30.71 39.26 31.06 39.47 31.41 41.38 31.76 40.95 32.11 40.74 32.45 40.53 32.8 38.84 33.15 37.78 33.5 38.84 33.85 38.63 34.2 38.84 34.55 39.05 34.9 38.63 35.25 39.26 35.6 42.86 35.95 42.65 36.3 40.53 36.64 39.9 36.99 40.11 37.34 39.47 37.69 39.69 38.04 40.95 38.39 40.74 38.74 41.59 39.09 42.44 39.44 42.65 39.79 44.55 40.14 43.92 40.49 44.76 40.83 44.55 41.18 44.13 41.53 44.97 41.88 44.55 42.23 43.92 42.58 42.65 42.93 44.97 43.28 43.28 43.63 40.53 43.98 40.74 44.33 42.22 44.67 43.49 45.02 43.92 45.37 40.95 45.72 39.9 46.07 41.17 46.42 39.69 46.77 42.86 47.12 43.92 47.47 44.76 47.82 44.97 48.17 46.67 48.52 47.93 48.86 46.24 49.21 46.67 49.56 47.09 49.91 48.15 50.26 47.72 50.61 48.57 50.96 47.72 51.31 49.2 51.66 50.47 52.01 51.53 52.36 50.47 52.7 50.68 53.05 50.68 53.4 49.42 53.75 50.68 54.1 50.68 54.45 48.57 54.8 49.42 55.15 50.47 55.5 50.47 55.85 49.63 56.2 50.05 56.55 50.05 56.89 50.05 57.24 49.84 57.59 49.84 57.94 51.11 58.29 48.78 58.64 50.47 58.99 50.9 59.34 52.38 59.69 52.59 60.04 52.8 60.39 51.95 60.73 52.59 61.08 52.17 61.43 52.8 61.78 51.74 62.13 50.05 62.48 49.84 62.83 49.42 63.18 48.78 63.53 48.15 63.88 49.84 64.23 49.84 64.58 48.78 64.92 48.78 65.27 48.78 65.62 48.57 65.97 48.15 66.32 47.3 66.67 45.4 67.02 44.97 67.37 44.76 67.72 44.55 68.07 46.03 68.42 46.03 68.77 44.13 69.11 46.24 69.46 47.51 69.81 47.51 70.16 46.88 70.51 46.24 70.86 45.4 71.21 46.88 71.56 46.67 71.91 46.67 72.26 46.88 72.61 47.51 72.95 46.45 73.3 48.57 73.65 48.15 74 47.3 74.35 49.2 74.7 47.09 75.05 47.51 75.4 48.99 75.75 49.84 76.1 49.84 76.45 50.26 76.8 50.9 77.14 50.9 77.49 50.47 77.84 49.84 78.19 49.63 78.54 48.57 78.89 47.09 79.24 47.3 79.59 48.99 79.94 49.84 80.29 48.99 80.64 48.99 80.98 48.57 81.33 48.99 81.68 48.36 82.03 48.15 82.38 46.45 82.73 47.3 83.08 47.72 83.43 47.93 83.78 48.36 84.13 48.36 84.48 46.24 84.83 46.88 85.17 48.36 85.52 50.9 85.87 52.38 86.22 52.17 86.57 52.8 86.92 52.59 87.27 53.86 87.62 53.65 87.97 53.22 88.32 52.8 88.67 52.59 89.02 53.43 89.36 53.86 89.71 54.49 90.06 54.49 90.41 53.86 90.76 53.01 91.11 53.86 91.46 53.86 91.81 53.65 92.16 52.17 92.51 52.59 92.86 52.8 93.2 53.86 93.55 53.65 93.9 53.22 94.25 52.59 94.6 52.17 94.95 52.38 95.3 51.95 95.65 52.17 96 52.59 96.35 51.74 96.7 51.74 97.05 52.8 97.39 53.86 97.74 53.86 98.09 54.49 98.44 54.49 98.79 54.07 99.14 54.07 99.49 54.28 99.84 54.28 100.19 53.86 100.54 54.28 100.89 54.28 101.23 53.86 101.58 53.86 101.93 54.91 102.28 54.91 102.63 54.91 102.98 54.91 103.33 54.91 103.68 54.91 104.03 54.91 104.38 54.91 104.73 54.91 105.08 54.7 105.42 54.7 105.77 54.49 106.12 54.28 106.47 54.49 106.82 54.7 107.17 54.91 107.52 54.91 107.87 54.91 108.22 54.91 108.57 54.91 108.92 54.91 109.26 54.91 109.61 54.91 109.96 54.91 110.31 54.7 110.66 54.7 111.01 54.91 111.36 54.91 111.71 54.91 112.06 54.91 112.41 54.91 112.76 54.91 113.11 54.7 113.45 54.91 113.8 54.91 114.15 54.91 114.5 54.91 114.85 54.91 115.2 54.91 115.55 54.91 115.9 54.91 116.25 54.91 116.6 54.91 116.95 54.7 117.3 54.7 117.64 54.28 117.99 54.28 118.34 54.28 118.69 54.91 119.04 54.91 119.39 54.91 119.74 54.91 120.09 54.91 120.44 54.7 120.79 54.49 121.14 54.49 121.48 54.49 121.83 54.7 122.18 54.91 122.53 54.91 122.88 54.91 123.23 54.91 123.58 54.91 123.93 54.91 124.28 54.91 124.63 54.91 124.98 54.91 125.33 54.91 125.67 54.91 126.02 54.91 126.37 54.91 126.72 54.91 127.07 54.91 127.42 54.91 127.77 54.91 128.12 54.91 128.47 54.49 128.82 54.07 129.17 53.43 129.51 53.01 129.86 53.01 130.21 52.59 130.56 51.53 130.91 52.17 131.26 52.8 131.61 52.17 131.96 52.59 132.31 52.8 132.66 52.17 133.01 53.86 133.36 53.22 133.7 52.8 134.05 52.59 134.4 52.17 134.75 53.01 135.1 53.22 135.45 52.8 135.8 51.95 136.15 51.32 136.5 51.95 136.85 52.59 137.2 53.86 137.55 52.8 137.89 52.17 138.24 52.38 138.59 52.17 138.94 51.95 139.29 51.11 139.64 51.11 139.99 50.68 140.34 51.32 140.69 51.95 141.04 50.9 141.39 51.74 141.73 51.95 142.08 52.59 142.43 52.8 142.78 53.01 143.13 52.38 143.48 52.59 143.83 52.38 144.18 51.74 144.53 51.95 144.88 53.01 145.23 53.65 145.58 53.43 145.92 54.07 146.27 53.22 146.62 52.38 146.97 53.65 147.32 53.22 147.67 53.43 148.02 54.07 148.37 54.07 148.72 54.49 149.07 54.28 149.42 53.43 149.76 53.65 150.11 53.01 150.46 52.59 150.81 52.59 151.16 53.22 151.51 53.86 151.86 53.86 152.21 54.07 152.56 54.49 152.91 54.07 153.26 53.65 153.61 54.07 153.95 54.49 154.3 54.91 154.65 54.91 155 54.91 155.35 54.7 155.7 54.91 156.05 54.91 156.4 54.91 156.75 54.28 157.1 54.07 157.45 54.49 157.79 54.28 158.14 54.7 158.49 54.28 158.84 53.86 159.19 53.65 159.54 54.49 159.89 54.91 160.24 54.91 160.59 54.91 160.94 54.91 161.29 54.91 161.64 54.91 161.98 54.91 162.33 54.7 162.68 54.7 163.03 54.91 163.38 54.49 163.73 54.07 164.08 53.65 164.43 54.28 164.78 54.49 165.13 54.28 165.48 54.28 165.83 54.28 166.17 53.86 166.52 53.86 166.87 53.22 167.22 54.28 167.57 54.49 167.92 54.7 168.27 54.91 168.62 54.91 168.97 54.91 169.32 54.91 169.67 54.91 170.01 54.91 170.36 54.91 170.71 54.91 171.06 54.91 171.41 54.7 171.76 54.91 172.11 54.91 172.46 54.7 172.81 54.91 173.16 54.91 173.51 54.91 173.86 54.91 174.2 54.91 174.55 54.91 174.9 54.91 175.25 54.91 175.6 54.91 175.95 54.7 176.3 54.49 176.65 53.86 177 53.43 177.35 54.28 177.7 54.49 178.04 54.7 178.39 53.86 178.74 54.07 179.09 54.07 179.44 53.65 179.79 53.01 180.14 53.86 180.49 52.38 180.84 52.17 181.19 51.53 181.54 50.05 181.89 48.36 182.23 50.47 182.58 51.11 182.93 51.11 183.28 50.05 183.63 49.2 183.98 49.63 184.33 48.78 184.68 50.26 185.03 50.68 185.38 47.93 185.73 46.03 186.08 45.82 186.42 45.19 186.77 46.45 187.12 46.88 187.47 46.67 187.82 47.51 188.17 46.67 188.52 46.24 188.87 44.97 189.22 44.76 189.57 42.44 189.92 41.38 190.26 40.74 190.61 40.32 190.96 40.74 191.31 39.47 191.66 40.95 192.01 42.22 192.36 42.65 192.71 43.49 193.06 42.86 193.41 43.07 193.76 43.07 194.11 41.38 194.45 41.17 194.8 42.44 195.15 40.74 195.5 40.53 195.85 39.9 196.2 37.36"/>
      </g>
      <g stroke-width="0.3" fill="#000000" fill-opacity="0.000" class="geometry" stroke-dasharray="none" stroke="#FFFFBF" id="img-9c4ad01f-34">
        <path fill="none" d="M21.98,33.76 L 22.33 32.71 22.68 28.9 23.03 25.09 23.38 24.88 23.73 24.88 24.08 24.03 24.42 24.25 24.77 23.4 25.12 25.09 25.47 26.57 25.82 28.48 26.17 26.99 26.52 29.74 26.87 32.49 27.22 33.13 27.57 35.88 27.92 36.09 28.27 35.24 28.61 37.36 28.96 36.94 29.31 37.78 29.66 36.72 30.01 36.3 30.36 35.24 30.71 34.82 31.06 35.24 31.41 32.07 31.76 31.44 32.11 34.19 32.45 33.13 32.8 31.65 33.15 28.69 33.5 28.05 33.85 28.9 34.2 26.78 34.55 29.11 34.9 29.74 35.25 29.96 35.6 27.21 35.95 25.73 36.3 25.51 36.64 25.09 36.99 24.03 37.34 23.4 37.69 22.98 38.04 22.55 38.39 25.09 38.74 22.34 39.09 22.76 39.44 23.61 39.79 23.82 40.14 23.61 40.49 22.13 40.83 22.34 41.18 20.01 41.53 21.71 41.88 21.92 42.23 23.19 42.58 22.76 42.93 21.07 43.28 19.59 43.63 19.38 43.98 17.9 44.33 17.27 44.67 16.84 45.02 18.96 45.37 18.11 45.72 18.53 46.07 18.11 46.42 18.96 46.77 17.9 47.12 20.65 47.47 18.96 47.82 18.32 48.17 18.96 48.52 20.23 48.86 21.07 49.21 21.28 49.56 20.86 49.91 21.92 50.26 19.38 50.61 20.01 50.96 19.38 51.31 18.32 51.66 18.75 52.01 19.38 52.36 20.23 52.7 18.11 53.05 19.17 53.4 18.32 53.75 16.63 54.1 17.9 54.45 16.84 54.8 16.63 55.15 17.05 55.5 18.53 55.85 18.32 56.2 17.05 56.55 16.84 56.89 16.63 57.24 15.15 57.59 15.78 57.94 15.15 58.29 14.73 58.64 15.36 58.99 17.27 59.34 16.42 59.69 15.36 60.04 15.57 60.39 14.3 60.73 14.52 61.08 13.88 61.43 14.52 61.78 15.57 62.13 15.78 62.48 19.17 62.83 17.48 63.18 18.75 63.53 19.38 63.88 19.38 64.23 19.17 64.58 19.59 64.92 20.65 65.27 22.13 65.62 22.13 65.97 24.67 66.32 24.67 66.67 26.57 67.02 28.9 67.37 31.23 67.72 31.86 68.07 31.01 68.42 32.07 68.77 30.38 69.11 29.74 69.46 32.92 69.81 30.59 70.16 28.9 70.51 28.9 70.86 30.8 71.21 30.17 71.56 30.59 71.91 27.84 72.26 25.09 72.61 26.15 72.95 27.42 73.3 26.78 73.65 25.73 74 25.73 74.35 24.88 74.7 25.09 75.05 26.15 75.4 26.57 75.75 26.57 76.1 27.42 76.45 26.57 76.8 26.78 77.14 25.73 77.49 27.63 77.84 28.05 78.19 30.17 78.54 32.28 78.89 32.07 79.24 30.8 79.59 34.19 79.94 34.61 80.29 36.09 80.64 36.94 80.98 37.15 81.33 37.57 81.68 40.32 82.03 38.21 82.38 39.47 82.73 39.9 83.08 40.32 83.43 40.95 83.78 41.17 84.13 38.21 84.48 38.42 84.83 38.21 85.17 39.47 85.52 39.47 85.87 41.17 86.22 40.53 86.57 43.07 86.92 42.65 87.27 43.7 87.62 43.28 87.97 43.28 88.32 43.7 88.67 43.92 89.02 44.97 89.36 45.61 89.71 47.51 90.06 48.36 90.41 50.68 90.76 51.11 91.11 50.26 91.46 50.47 91.81 50.05 92.16 49.42 92.51 48.99 92.86 50.05 93.2 51.95 93.55 52.17 93.9 51.53 94.25 52.38 94.6 53.65 94.95 53.22 95.3 53.22 95.65 53.86 96 53.22 96.35 52.8 96.7 52.8 97.05 53.22 97.39 52.59 97.74 52.8 98.09 52.8 98.44 52.38 98.79 53.65 99.14 53.65 99.49 53.65 99.84 53.65 100.19 53.86 100.54 54.07 100.89 54.28 101.23 54.7 101.58 54.91 101.93 54.91 102.28 54.91 102.63 54.91 102.98 54.91 103.33 54.49 103.68 54.7 104.03 54.91 104.38 54.49 104.73 54.7 105.08 54.7 105.42 54.91 105.77 54.7 106.12 54.91 106.47 54.91 106.82 54.91 107.17 54.91 107.52 54.91 107.87 54.91 108.22 54.91 108.57 54.91 108.92 54.91 109.26 54.91 109.61 54.91 109.96 54.91 110.31 54.91 110.66 54.91 111.01 54.91 111.36 54.91 111.71 54.91 112.06 54.07 112.41 53.22 112.76 53.65 113.11 53.43 113.45 52.59 113.8 52.17 114.15 53.22 114.5 53.22 114.85 53.01 115.2 52.38 115.55 53.43 115.9 53.86 116.25 53.65 116.6 54.28 116.95 54.07 117.3 53.86 117.64 53.43 117.99 53.22 118.34 52.17 118.69 52.38 119.04 52.8 119.39 53.22 119.74 52.59 120.09 52.59 120.44 53.01 120.79 52.38 121.14 51.74 121.48 51.95 121.83 51.95 122.18 52.8 122.53 53.86 122.88 54.28 123.23 54.28 123.58 53.86 123.93 53.86 124.28 54.07 124.63 54.28 124.98 53.65 125.33 53.22 125.67 51.95 126.02 53.22 126.37 52.17 126.72 51.95 127.07 51.11 127.42 51.32 127.77 53.43 128.12 53.22 128.47 53.22 128.82 52.59 129.17 53.86 129.51 53.86 129.86 54.49 130.21 54.28 130.56 54.28 130.91 54.7 131.26 54.91 131.61 54.91 131.96 54.91 132.31 54.91 132.66 54.91 133.01 54.91 133.36 54.91 133.7 54.91 134.05 54.49 134.4 54.07 134.75 54.28 135.1 54.28 135.45 54.28 135.8 53.86 136.15 53.22 136.5 53.43 136.85 52.8 137.2 51.53 137.55 51.74 137.89 52.59 138.24 52.17 138.59 51.53 138.94 52.59 139.29 53.22 139.64 53.86 139.99 54.07 140.34 54.28 140.69 54.7 141.04 54.91 141.39 54.91 141.73 54.91 142.08 54.91 142.43 54.91 142.78 54.91 143.13 54.91 143.48 54.91 143.83 54.91 144.18 54.91 144.53 54.91 144.88 54.91 145.23 54.49 145.58 54.49 145.92 54.7 146.27 54.91 146.62 54.91 146.97 54.7 147.32 54.91 147.67 54.91 148.02 54.91 148.37 54.91 148.72 54.91 149.07 54.91 149.42 54.91 149.76 54.91 150.11 54.7 150.46 54.28 150.81 54.07 151.16 54.49 151.51 54.28 151.86 54.49 152.21 54.7 152.56 54.49 152.91 54.49 153.26 54.7 153.61 54.7 153.95 54.7 154.3 54.91 154.65 54.91 155 54.91 155.35 54.91 155.7 54.91 156.05 54.91 156.4 54.91 156.75 54.7 157.1 54.7 157.45 54.28 157.79 54.07 158.14 54.28 158.49 53.86 158.84 54.49 159.19 54.28 159.54 53.65 159.89 52.59 160.24 52.59 160.59 52.8 160.94 53.01 161.29 53.22 161.64 53.65 161.98 53.22 162.33 53.86 162.68 53.65 163.03 54.07 163.38 54.7 163.73 54.91 164.08 54.91 164.43 54.91 164.78 54.91 165.13 54.91 165.48 54.91 165.83 54.91 166.17 54.91 166.52 54.91 166.87 54.91 167.22 54.91 167.57 54.91 167.92 54.91 168.27 54.91 168.62 54.49 168.97 54.28 169.32 54.07 169.67 54.28 170.01 54.07 170.36 54.28 170.71 54.49 171.06 54.49 171.41 54.49 171.76 54.07 172.11 54.28 172.46 54.7 172.81 54.91 173.16 54.91 173.51 54.91 173.86 54.91 174.2 54.91 174.55 54.7 174.9 54.7 175.25 54.7 175.6 54.49 175.95 54.7 176.3 54.7 176.65 54.49 177 54.28 177.35 54.07 177.7 53.65 178.04 54.28 178.39 54.7 178.74 54.91 179.09 54.91 179.44 54.91 179.79 54.7 180.14 54.07 180.49 54.07 180.84 54.28 181.19 54.7 181.54 54.91 181.89 54.49 182.23 54.91 182.58 54.91 182.93 54.91 183.28 54.91 183.63 54.91 183.98 54.7 184.33 54.91 184.68 54.28 185.03 54.49 185.38 54.49 185.73 54.28 186.08 54.07 186.42 54.49 186.77 54.49 187.12 54.91 187.47 54.7 187.82 53.86 188.17 54.28 188.52 53.86 188.87 54.49 189.22 54.7 189.57 54.49 189.92 54.28 190.26 53.65 190.61 53.86 190.96 54.07 191.31 54.28 191.66 53.86 192.01 54.49 192.36 54.49 192.71 54.49 193.06 54.28 193.41 54.49 193.76 54.7 194.11 54.91 194.45 54.91 194.8 54.49 195.15 54.49 195.5 54.07 195.85 54.07 196.2 54.07"/>
      </g>
      <g stroke-width="0.3" fill="#000000" fill-opacity="0.000" class="geometry" stroke-dasharray="none" stroke="#FEE08B" id="img-9c4ad01f-35">
        <path fill="none" d="M21.98,33.76 L 22.33 34.82 22.68 32.71 23.03 33.13 23.38 34.61 23.73 32.07 24.08 33.76 24.42 32.92 24.77 28.9 25.12 28.9 25.47 28.9 25.82 29.53 26.17 30.8 26.52 31.65 26.87 33.76 27.22 33.13 27.57 31.23 27.92 32.07 28.27 33.76 28.61 33.13 28.96 32.28 29.31 33.55 29.66 34.61 30.01 34.4 30.36 33.34 30.71 34.4 31.06 36.51 31.41 36.94 31.76 37.99 32.11 37.57 32.45 35.88 32.8 34.4 33.15 33.97 33.5 34.82 33.85 32.07 34.2 33.34 34.55 34.4 34.9 35.24 35.25 35.46 35.6 33.13 35.95 31.01 36.3 31.86 36.64 31.65 36.99 32.92 37.34 30.38 37.69 29.96 38.04 26.99 38.39 25.94 38.74 23.61 39.09 21.92 39.44 20.65 39.79 20.65 40.14 18.96 40.49 19.17 40.83 19.38 41.18 17.69 41.53 16.63 41.88 16.21 42.23 16.42 42.58 14.73 42.93 16.21 43.28 15.36 43.63 16.42 43.98 16.42 44.33 16.84 44.67 17.27 45.02 16.21 45.37 15.57 45.72 17.48 46.07 18.32 46.42 18.11 46.77 17.69 47.12 19.38 47.47 18.53 47.82 17.9 48.17 19.17 48.52 17.69 48.86 17.27 49.21 17.9 49.56 17.48 49.91 16.84 50.26 17.05 50.61 18.75 50.96 19.8 51.31 18.96 51.66 17.27 52.01 17.48 52.36 15.36 52.7 17.27 53.05 17.9 53.4 18.32 53.75 19.17 54.1 17.9 54.45 18.32 54.8 18.32 55.15 18.96 55.5 20.44 55.85 21.07 56.2 22.98 56.55 21.28 56.89 23.19 57.24 24.67 57.59 26.57 57.94 25.09 58.29 24.67 58.64 25.73 58.99 28.26 59.34 28.69 59.69 29.74 60.04 28.26 60.39 29.74 60.73 27.63 61.08 30.38 61.43 28.26 61.78 30.59 62.13 30.17 62.48 30.38 62.83 29.96 63.18 29.53 63.53 28.69 63.88 26.57 64.23 27.63 64.58 26.78 64.92 28.69 65.27 27.42 65.62 26.57 65.97 25.51 66.32 25.3 66.67 24.67 67.02 25.94 67.37 25.51 67.72 25.94 68.07 23.82 68.42 24.03 68.77 23.19 69.11 20.44 69.46 19.8 69.81 18.96 70.16 18.32 70.51 18.53 70.86 18.96 71.21 19.17 71.56 19.38 71.91 21.07 72.26 20.01 72.61 19.59 72.95 18.96 73.3 18.32 73.65 19.59 74 19.8 74.35 19.59 74.7 16.63 75.05 15.15 75.4 14.52 75.75 14.09 76.1 14.3 76.45 13.67 76.8 14.09 77.14 14.3 77.49 14.09 77.84 14.09 78.19 15.15 78.54 14.73 78.89 15.57 79.24 15.36 79.59 15.15 79.94 14.94 80.29 14.52 80.64 14.52 80.98 14.3 81.33 14.52 81.68 14.73 82.03 14.73 82.38 15.36 82.73 14.09 83.08 13.25 83.43 12.82 83.78 12.82 84.13 12.82 84.48 12.61 84.83 12.61 85.17 12.61 85.52 12.61 85.87 12.61 86.22 12.61 86.57 12.82 86.92 13.03 87.27 13.67 87.62 13.25 87.97 13.25 88.32 13.67 88.67 13.25 89.02 13.25 89.36 13.25 89.71 13.03 90.06 13.03 90.41 12.82 90.76 12.61 91.11 12.61 91.46 12.61 91.81 12.61 92.16 12.61 92.51 12.61 92.86 12.61 93.2 12.61 93.55 12.61 93.9 13.03 94.25 13.25 94.6 12.61 94.95 12.61 95.3 12.61 95.65 12.61 96 12.61 96.35 12.61 96.7 12.61 97.05 12.61 97.39 12.61 97.74 12.61 98.09 12.61 98.44 12.61 98.79 12.61 99.14 12.61 99.49 12.61 99.84 12.61 100.19 12.61 100.54 12.61 100.89 12.61 101.23 12.61 101.58 12.61 101.93 12.61 102.28 12.61 102.63 12.82 102.98 12.82 103.33 13.03 103.68 12.61 104.03 12.61 104.38 12.61 104.73 12.61 105.08 12.61 105.42 12.61 105.77 12.61 106.12 13.25 106.47 13.25 106.82 13.88 107.17 14.09 107.52 14.73 107.87 14.52 108.22 14.3 108.57 14.3 108.92 14.52 109.26 13.46 109.61 13.25 109.96 13.46 110.31 13.25 110.66 12.82 111.01 12.82 111.36 12.61 111.71 12.61 112.06 13.03 112.41 14.09 112.76 14.3 113.11 14.94 113.45 15.15 113.8 15.78 114.15 16.42 114.5 16.84 114.85 16.42 115.2 17.69 115.55 19.17 115.9 18.32 116.25 17.9 116.6 17.27 116.95 16.42 117.3 16 117.64 16 117.99 15.57 118.34 15.78 118.69 15.78 119.04 16 119.39 15.57 119.74 15.57 120.09 15.57 120.44 16.63 120.79 17.48 121.14 16.21 121.48 15.57 121.83 15.57 122.18 15.15 122.53 14.73 122.88 15.36 123.23 15.15 123.58 13.88 123.93 14.52 124.28 14.52 124.63 15.36 124.98 15.36 125.33 14.94 125.67 14.52 126.02 15.78 126.37 16.63 126.72 17.9 127.07 17.9 127.42 17.27 127.77 16.63 128.12 16.84 128.47 16.21 128.82 15.57 129.17 16.63 129.51 17.48 129.86 18.32 130.21 20.01 130.56 20.23 130.91 18.96 131.26 19.38 131.61 20.23 131.96 20.65 132.31 20.65 132.66 20.23 133.01 20.23 133.36 19.8 133.7 19.17 134.05 17.48 134.4 17.69 134.75 17.27 135.1 16.84 135.45 15.78 135.8 15.78 136.15 14.94 136.5 14.73 136.85 14.52 137.2 14.3 137.55 15.57 137.89 14.52 138.24 13.88 138.59 13.25 138.94 13.46 139.29 13.88 139.64 13.88 139.99 13.03 140.34 12.82 140.69 12.61 141.04 12.61 141.39 12.82 141.73 13.46 142.08 14.09 142.43 14.52 142.78 13.67 143.13 13.46 143.48 13.46 143.83 13.67 144.18 14.94 144.53 14.52 144.88 14.09 145.23 13.25 145.58 12.61 145.92 12.61 146.27 12.61 146.62 12.61 146.97 12.61 147.32 12.61 147.67 12.61 148.02 12.61 148.37 12.61 148.72 12.61 149.07 12.61 149.42 12.61 149.76 12.82 150.11 12.61 150.46 12.61 150.81 12.61 151.16 12.61 151.51 12.61 151.86 12.61 152.21 12.61 152.56 12.61 152.91 12.61 153.26 12.61 153.61 12.61 153.95 12.61 154.3 12.61 154.65 12.61 155 12.61 155.35 12.61 155.7 12.61 156.05 12.61 156.4 12.61 156.75 13.46 157.1 13.03 157.45 12.82 157.79 12.61 158.14 12.61 158.49 12.61 158.84 12.61 159.19 12.61 159.54 12.61 159.89 12.61 160.24 13.25 160.59 13.46 160.94 14.09 161.29 14.94 161.64 15.57 161.98 16.21 162.33 14.52 162.68 14.73 163.03 15.15 163.38 16 163.73 17.27 164.08 17.9 164.43 17.05 164.78 16.84 165.13 19.17 165.48 20.44 165.83 20.23 166.17 19.59 166.52 19.8 166.87 19.17 167.22 19.17 167.57 20.01 167.92 17.48 168.27 17.69 168.62 16.84 168.97 17.27 169.32 17.9 169.67 16.21 170.01 16.63 170.36 16.63 170.71 17.69 171.06 16.84 171.41 18.11 171.76 19.38 172.11 20.01 172.46 20.44 172.81 20.44 173.16 18.75 173.51 20.23 173.86 19.38 174.2 21.5 174.55 18.75 174.9 19.38 175.25 20.23 175.6 20.44 175.95 18.53 176.3 16.42 176.65 17.9 177 17.48 177.35 16.21 177.7 16 178.04 16 178.39 16.63 178.74 15.36 179.09 14.94 179.44 14.73 179.79 13.88 180.14 13.88 180.49 14.3 180.84 14.73 181.19 14.3 181.54 13.88 181.89 14.09 182.23 13.67 182.58 13.46 182.93 13.25 183.28 13.03 183.63 13.03 183.98 12.82 184.33 12.82 184.68 13.46 185.03 13.03 185.38 13.03 185.73 13.25 186.08 13.67 186.42 13.88 186.77 13.67 187.12 13.67 187.47 13.03 187.82 12.61 188.17 12.61 188.52 12.61 188.87 12.61 189.22 12.61 189.57 12.61 189.92 12.61 190.26 12.61 190.61 12.61 190.96 12.61 191.31 12.61 191.66 13.03 192.01 12.61 192.36 12.61 192.71 12.61 193.06 12.61 193.41 12.61 193.76 12.61 194.11 12.61 194.45 12.61 194.8 12.61 195.15 12.61 195.5 12.61 195.85 12.61 196.2 12.61"/>
      </g>
      <g stroke-width="0.3" fill="#000000" fill-opacity="0.000" class="geometry" stroke-dasharray="none" stroke="#FDAE61" id="img-9c4ad01f-36">
        <path fill="none" d="M21.98,33.76 L 22.33 33.13 22.68 34.82 23.03 36.72 23.38 35.46 23.73 32.71 24.08 32.28 24.42 31.86 24.77 31.44 25.12 30.8 25.47 31.01 25.82 31.86 26.17 28.26 26.52 27.84 26.87 28.48 27.22 29.74 27.57 31.86 27.92 29.74 28.27 32.07 28.61 31.44 28.96 31.65 29.31 33.55 29.66 34.19 30.01 35.67 30.36 35.46 30.71 36.09 31.06 35.67 31.41 39.9 31.76 40.11 32.11 39.26 32.45 40.95 32.8 42.01 33.15 40.74 33.5 40.74 33.85 40.11 34.2 39.9 34.55 39.69 34.9 38.63 35.25 38.63 35.6 36.3 35.95 35.24 36.3 33.97 36.64 33.34 36.99 33.55 37.34 32.07 37.69 35.03 38.04 33.55 38.39 35.24 38.74 34.19 39.09 33.55 39.44 33.97 39.79 32.28 40.14 34.61 40.49 31.44 40.83 31.01 41.18 32.07 41.53 32.49 41.88 32.71 42.23 33.34 42.58 32.49 42.93 32.28 43.28 31.01 43.63 31.44 43.98 32.07 44.33 35.67 44.67 36.51 45.02 35.67 45.37 35.24 45.72 33.13 46.07 34.19 46.42 31.86 46.77 29.53 47.12 29.11 47.47 31.65 47.82 29.53 48.17 32.49 48.52 32.49 48.86 32.49 49.21 30.59 49.56 30.38 49.91 29.96 50.26 28.48 50.61 29.32 50.96 27.84 51.31 27.84 51.66 26.15 52.01 22.76 52.36 25.73 52.7 25.94 53.05 24.88 53.4 25.94 53.75 24.46 54.1 24.88 54.45 23.19 54.8 23.4 55.15 24.67 55.5 22.98 55.85 21.28 56.2 21.07 56.55 22.76 56.89 24.03 57.24 23.4 57.59 24.88 57.94 24.67 58.29 24.25 58.64 21.92 58.99 20.65 59.34 20.65 59.69 20.01 60.04 20.65 60.39 21.07 60.73 20.23 61.08 18.96 61.43 17.9 61.78 17.05 62.13 16.63 62.48 16.63 62.83 16.21 63.18 17.05 63.53 16.84 63.88 16.63 64.23 16.63 64.58 16.21 64.92 16.84 65.27 16.42 65.62 16.21 65.97 17.9 66.32 17.69 66.67 17.05 67.02 16.21 67.37 17.48 67.72 17.69 68.07 16.42 68.42 17.27 68.77 17.48 69.11 16.84 69.46 18.96 69.81 18.11 70.16 19.38 70.51 19.17 70.86 19.8 71.21 19.59 71.56 20.23 71.91 21.5 72.26 22.13 72.61 23.61 72.95 22.13 73.3 20.86 73.65 20.65 74 21.28 74.35 23.19 74.7 23.19 75.05 24.67 75.4 24.46 75.75 23.4 76.1 20.86 76.45 19.8 76.8 17.9 77.14 16.84 77.49 17.9 77.84 19.38 78.19 20.23 78.54 18.96 78.89 20.65 79.24 20.86 79.59 19.8 79.94 19.17 80.29 21.5 80.64 20.01 80.98 22.13 81.33 21.92 81.68 22.13 82.03 22.55 82.38 23.4 82.73 22.98 83.08 24.03 83.43 25.51 83.78 24.46 84.13 27.84 84.48 29.74 84.83 29.53 85.17 28.05 85.52 28.05 85.87 28.05 86.22 30.17 86.57 29.32 86.92 28.48 87.27 30.17 87.62 27.63 87.97 25.94 88.32 26.15 88.67 26.36 89.02 26.99 89.36 26.15 89.71 24.67 90.06 22.76 90.41 24.03 90.76 24.46 91.11 25.09 91.46 25.09 91.81 22.55 92.16 23.4 92.51 25.3 92.86 26.36 93.2 29.53 93.55 28.69 93.9 28.48 94.25 28.69 94.6 28.48 94.95 26.57 95.3 28.26 95.65 27.84 96 28.9 96.35 25.73 96.7 25.73 97.05 26.78 97.39 25.3 97.74 26.15 98.09 27.42 98.44 28.69 98.79 29.32 99.14 30.17 99.49 29.32 99.84 29.53 100.19 29.32 100.54 28.05 100.89 25.3 101.23 23.19 101.58 24.46 101.93 25.09 102.28 22.76 102.63 22.98 102.98 24.25 103.33 26.15 103.68 24.88 104.03 24.67 104.38 25.94 104.73 29.74 105.08 28.9 105.42 26.99 105.77 27.63 106.12 28.9 106.47 28.69 106.82 29.53 107.17 28.69 107.52 28.26 107.87 27.21 108.22 27.42 108.57 29.53 108.92 31.65 109.26 30.17 109.61 29.53 109.96 27.63 110.31 27.21 110.66 27.84 111.01 27.63 111.36 27.84 111.71 31.44 112.06 31.65 112.41 28.26 112.76 29.32 113.11 28.69 113.45 27.21 113.8 28.48 114.15 29.32 114.5 29.53 114.85 31.01 115.2 32.28 115.55 33.13 115.9 32.71 116.25 32.49 116.6 29.53 116.95 29.11 117.3 27.42 117.64 28.26 117.99 27.84 118.34 25.73 118.69 26.57 119.04 26.99 119.39 28.26 119.74 29.96 120.09 29.96 120.44 32.92 120.79 32.28 121.14 30.59 121.48 32.71 121.83 31.23 122.18 31.44 122.53 31.01 122.88 32.07 123.23 32.49 123.58 34.4 123.93 33.13 124.28 32.71 124.63 35.03 124.98 32.28 125.33 31.86 125.67 31.23 126.02 30.8 126.37 31.23 126.72 31.65 127.07 31.65 127.42 33.76 127.77 30.38 128.12 31.86 128.47 31.86 128.82 33.76 129.17 32.49 129.51 31.44 129.86 33.34 130.21 35.46 130.56 34.82 130.91 36.51 131.26 37.36 131.61 35.67 131.96 36.3 132.31 37.15 132.66 34.19 133.01 35.67 133.36 36.3 133.7 38.21 134.05 36.94 134.4 33.76 134.75 35.03 135.1 35.03 135.45 35.88 135.8 37.78 136.15 38.42 136.5 39.47 136.85 39.69 137.2 39.26 137.55 40.11 137.89 38.63 138.24 38.84 138.59 39.26 138.94 37.78 139.29 37.78 139.64 36.72 139.99 37.36 140.34 35.24 140.69 32.07 141.04 32.49 141.39 33.76 141.73 33.34 142.08 32.07 142.43 33.34 142.78 32.92 143.13 32.07 143.48 33.76 143.83 31.86 144.18 31.86 144.53 32.28 144.88 31.86 145.23 33.55 145.58 31.65 145.92 32.49 146.27 35.24 146.62 36.3 146.97 36.3 147.32 36.94 147.67 35.88 148.02 35.67 148.37 33.97 148.72 33.13 149.07 33.13 149.42 33.76 149.76 33.34 150.11 32.07 150.46 32.49 150.81 32.49 151.16 33.13 151.51 34.82 151.86 32.28 152.21 32.49 152.56 30.8 152.91 31.23 153.26 31.01 153.61 31.65 153.95 32.49 154.3 33.76 154.65 33.97 155 34.61 155.35 36.09 155.7 35.24 156.05 34.19 156.4 34.82 156.75 36.51 157.1 37.36 157.45 37.36 157.79 38.63 158.14 37.15 158.49 35.03 158.84 38.63 159.19 39.05 159.54 37.99 159.89 38.21 160.24 36.09 160.59 35.67 160.94 35.67 161.29 36.3 161.64 33.34 161.98 33.97 162.33 31.44 162.68 29.32 163.03 29.32 163.38 31.65 163.73 32.07 164.08 29.74 164.43 29.11 164.78 25.51 165.13 27.21 165.48 27.42 165.83 27.42 166.17 31.23 166.52 31.44 166.87 30.38 167.22 29.96 167.57 27.63 167.92 27.21 168.27 26.57 168.62 26.15 168.97 26.15 169.32 26.15 169.67 28.26 170.01 28.9 170.36 28.69 170.71 29.32 171.06 29.96 171.41 27.63 171.76 26.57 172.11 28.69 172.46 31.23 172.81 31.44 173.16 30.38 173.51 29.11 173.86 29.11 174.2 28.9 174.55 30.17 174.9 31.86 175.25 32.71 175.6 30.8 175.95 32.07 176.3 34.82 176.65 37.36 177 37.36 177.35 40.32 177.7 40.11 178.04 40.74 178.39 42.44 178.74 40.32 179.09 39.05 179.44 38.42 179.79 39.69 180.14 39.05 180.49 39.05 180.84 42.01 181.19 42.01 181.54 41.38 181.89 39.69 182.23 37.99 182.58 37.57 182.93 36.72 183.28 38.84 183.63 39.9 183.98 40.74 184.33 41.38 184.68 40.11 185.03 40.11 185.38 38.42 185.73 36.94 186.08 37.78 186.42 37.78 186.77 39.9 187.12 39.69 187.47 38.84 187.82 36.94 188.17 36.72 188.52 38.21 188.87 38.21 189.22 37.15 189.57 37.15 189.92 39.26 190.26 37.78 190.61 37.36 190.96 39.47 191.31 39.9 191.66 39.69 192.01 39.26 192.36 39.26 192.71 39.69 193.06 42.01 193.41 42.86 193.76 44.97 194.11 46.24 194.45 47.3 194.8 47.09 195.15 47.93 195.5 48.57 195.85 49.42 196.2 47.93"/>
      </g>
      <g stroke-width="0.3" fill="#000000" fill-opacity="0.000" class="geometry" stroke-dasharray="none" stroke="#F46D43" id="img-9c4ad01f-37">
        <path fill="none" d="M21.98,33.76 L 22.33 33.55 22.68 35.88 23.03 34.82 23.38 35.46 23.73 37.78 24.08 39.05 24.42 38.42 24.77 39.69 25.12 37.78 25.47 37.99 25.82 36.72 26.17 39.47 26.52 38.21 26.87 37.36 27.22 35.24 27.57 38.21 27.92 37.15 28.27 36.3 28.61 36.3 28.96 38.63 29.31 36.3 29.66 38.63 30.01 39.69 30.36 40.32 30.71 40.11 31.06 40.32 31.41 39.05 31.76 40.32 32.11 38.63 32.45 39.9 32.8 38.84 33.15 40.74 33.5 43.07 33.85 45.4 34.2 47.09 34.55 47.93 34.9 46.24 35.25 45.19 35.6 45.82 35.95 45.61 36.3 45.82 36.64 44.97 36.99 45.61 37.34 44.97 37.69 45.61 38.04 45.61 38.39 45.82 38.74 44.55 39.09 44.76 39.44 44.76 39.79 44.13 40.14 43.28 40.49 39.47 40.83 39.26 41.18 39.47 41.53 40.53 41.88 39.05 42.23 40.11 42.58 38.84 42.93 38.21 43.28 36.3 43.63 36.09 43.98 37.57 44.33 37.78 44.67 38.21 45.02 40.11 45.37 40.32 45.72 42.01 46.07 41.59 46.42 39.9 46.77 38.42 47.12 39.26 47.47 36.09 47.82 34.19 48.17 34.61 48.52 33.34 48.86 32.71 49.21 36.3 49.56 36.94 49.91 35.03 50.26 35.24 50.61 35.67 50.96 32.71 51.31 31.23 51.66 31.65 52.01 31.23 52.36 31.23 52.7 28.69 53.05 28.9 53.4 26.99 53.75 29.32 54.1 28.26 54.45 29.74 54.8 29.32 55.15 28.26 55.5 28.48 55.85 29.53 56.2 30.17 56.55 30.38 56.89 31.86 57.24 31.23 57.59 32.49 57.94 31.86 58.29 34.82 58.64 32.92 58.99 31.44 59.34 30.17 59.69 29.11 60.04 28.48 60.39 28.69 60.73 28.48 61.08 28.9 61.43 29.32 61.78 27.63 62.13 29.32 62.48 31.65 62.83 31.44 63.18 29.53 63.53 29.32 63.88 30.17 64.23 28.48 64.58 27.42 64.92 29.53 65.27 30.38 65.62 29.11 65.97 28.69 66.32 29.32 66.67 28.9 67.02 30.38 67.37 33.76 67.72 31.44 68.07 32.07 68.42 32.49 68.77 33.55 69.11 36.09 69.46 38.21 69.81 36.09 70.16 37.57 70.51 41.59 70.86 40.74 71.21 41.59 71.56 41.8 71.91 41.38 72.26 40.32 72.61 39.05 72.95 39.05 73.3 39.69 73.65 40.74 74 37.99 74.35 38.84 74.7 36.51 75.05 34.82 75.4 34.19 75.75 33.34 76.1 33.55 76.45 33.34 76.8 33.97 77.14 35.67 77.49 36.09 77.84 35.24 78.19 36.09 78.54 35.03 78.89 34.82 79.24 34.61 79.59 34.61 79.94 35.24 80.29 33.34 80.64 34.82 80.98 33.76 81.33 36.09 81.68 37.99 82.03 38.63 82.38 40.74 82.73 42.44 83.08 44.13 83.43 43.7 83.78 41.17 84.13 42.86 84.48 42.86 84.83 42.44 85.17 43.28 85.52 43.28 85.87 42.86 86.22 42.65 86.57 42.86 86.92 44.76 87.27 44.13 87.62 45.4 87.97 46.45 88.32 46.67 88.67 45.61 89.02 44.97 89.36 43.49 89.71 43.28 90.06 41.8 90.41 42.44 90.76 43.07 91.11 43.92 91.46 42.86 91.81 41.38 92.16 41.59 92.51 43.49 92.86 42.01 93.2 38.84 93.55 41.38 93.9 42.65 94.25 44.34 94.6 44.13 94.95 45.19 95.3 47.72 95.65 46.67 96 46.24 96.35 43.92 96.7 45.61 97.05 46.67 97.39 46.67 97.74 47.09 98.09 48.78 98.44 46.67 98.79 46.88 99.14 46.67 99.49 48.36 99.84 50.26 100.19 49.84 100.54 49.42 100.89 50.68 101.23 51.74 101.58 52.38 101.93 53.01 102.28 51.95 102.63 52.38 102.98 51.95 103.33 51.53 103.68 52.8 104.03 52.38 104.38 53.43 104.73 53.43 105.08 53.22 105.42 53.43 105.77 54.07 106.12 53.86 106.47 53.86 106.82 53.43 107.17 53.65 107.52 54.28 107.87 54.28 108.22 54.7 108.57 54.28 108.92 54.49 109.26 54.7 109.61 54.7 109.96 54.49 110.31 54.49 110.66 54.07 111.01 53.65 111.36 53.22 111.71 54.07 112.06 54.07 112.41 54.07 112.76 54.28 113.11 54.49 113.45 54.91 113.8 54.91 114.15 54.91 114.5 54.91 114.85 54.91 115.2 54.91 115.55 54.91 115.9 54.91 116.25 54.91 116.6 54.91 116.95 54.91 117.3 54.91 117.64 54.91 117.99 54.91 118.34 54.91 118.69 54.91 119.04 54.91 119.39 54.91 119.74 54.91 120.09 54.91 120.44 54.91 120.79 54.91 121.14 54.91 121.48 54.91 121.83 54.91 122.18 54.91 122.53 54.91 122.88 54.91 123.23 54.91 123.58 54.7 123.93 54.91 124.28 54.91 124.63 54.91 124.98 54.91 125.33 54.91 125.67 54.91 126.02 54.91 126.37 54.91 126.72 54.91 127.07 54.91 127.42 54.7 127.77 54.49 128.12 54.7 128.47 54.49 128.82 53.65 129.17 53.65 129.51 53.43 129.86 53.65 130.21 53.86 130.56 54.28 130.91 54.07 131.26 53.65 131.61 54.28 131.96 54.49 132.31 54.49 132.66 54.91 133.01 54.91 133.36 54.91 133.7 54.91 134.05 54.91 134.4 54.91 134.75 54.91 135.1 54.91 135.45 54.91 135.8 54.91 136.15 54.91 136.5 54.91 136.85 54.91 137.2 54.91 137.55 54.91 137.89 54.91 138.24 54.91 138.59 54.91 138.94 54.91 139.29 54.91 139.64 54.91 139.99 54.91 140.34 54.91 140.69 54.91 141.04 54.91 141.39 54.91 141.73 54.91 142.08 54.91 142.43 54.91 142.78 54.91 143.13 54.91 143.48 54.91 143.83 54.91 144.18 54.91 144.53 54.91 144.88 54.7 145.23 54.7 145.58 54.7 145.92 54.7 146.27 54.7 146.62 54.91 146.97 54.91 147.32 54.91 147.67 54.91 148.02 54.91 148.37 54.91 148.72 54.91 149.07 54.91 149.42 54.91 149.76 54.91 150.11 54.91 150.46 54.91 150.81 54.91 151.16 54.91 151.51 54.91 151.86 54.91 152.21 54.91 152.56 54.91 152.91 54.91 153.26 54.91 153.61 54.91 153.95 54.91 154.3 54.91 154.65 54.91 155 54.91 155.35 54.91 155.7 54.91 156.05 54.7 156.4 54.49 156.75 54.49 157.1 53.65 157.45 53.43 157.79 53.43 158.14 53.43 158.49 53.22 158.84 53.22 159.19 53.65 159.54 54.49 159.89 54.28 160.24 54.07 160.59 53.86 160.94 54.7 161.29 54.49 161.64 53.65 161.98 53.43 162.33 52.8 162.68 52.17 163.03 51.11 163.38 51.53 163.73 51.74 164.08 52.17 164.43 52.38 164.78 53.43 165.13 52.59 165.48 52.38 165.83 52.17 166.17 53.65 166.52 54.07 166.87 54.49 167.22 54.49 167.57 54.49 167.92 54.28 168.27 54.28 168.62 53.86 168.97 53.43 169.32 53.65 169.67 54.07 170.01 54.28 170.36 53.86 170.71 54.07 171.06 53.01 171.41 53.22 171.76 53.22 172.11 51.32 172.46 50.68 172.81 48.99 173.16 48.78 173.51 48.36 173.86 49.42 174.2 49.63 174.55 49.42 174.9 50.47 175.25 51.95 175.6 51.74 175.95 50.68 176.3 49.84 176.65 49.42 177 49.42 177.35 50.47 177.7 51.74 178.04 52.17 178.39 52.17 178.74 51.95 179.09 51.53 179.44 50.68 179.79 52.38 180.14 51.95 180.49 50.05 180.84 48.36 181.19 49.2 181.54 48.36 181.89 50.05 182.23 48.57 182.58 48.15 182.93 47.09 183.28 46.88 183.63 47.3 183.98 46.45 184.33 47.51 184.68 47.93 185.03 45.4 185.38 43.7 185.73 46.03 186.08 44.34 186.42 44.34 186.77 46.03 187.12 47.3 187.47 48.15 187.82 45.82 188.17 46.24 188.52 47.93 188.87 48.57 189.22 49.2 189.57 50.47 189.92 51.53 190.26 50.68 190.61 51.32 190.96 52.17 191.31 51.53 191.66 50.47 192.01 50.05 192.36 48.36 192.71 49.2 193.06 49.2 193.41 48.99 193.76 47.72 194.11 47.51 194.45 48.57 194.8 48.15 195.15 48.36 195.5 47.72 195.85 48.78 196.2 46.88"/>
      </g>
      <g stroke-width="0.3" fill="#000000" fill-opacity="0.000" class="geometry" stroke-dasharray="none" stroke="#D53E4F" id="img-9c4ad01f-38">
        <path fill="none" d="M21.98,33.76 L 22.33 35.88 22.68 37.78 23.03 35.03 23.38 36.72 23.73 37.36 24.08 39.26 24.42 39.26 24.77 40.74 25.12 40.74 25.47 40.11 25.82 40.11 26.17 41.8 26.52 39.26 26.87 38.63 27.22 37.78 27.57 38.42 27.92 38.63 28.27 36.94 28.61 38.63 28.96 38.63 29.31 35.03 29.66 33.97 30.01 34.61 30.36 34.19 30.71 31.23 31.06 31.86 31.41 32.49 31.76 32.28 32.11 32.71 32.45 31.44 32.8 31.44 33.15 31.23 33.5 30.38 33.85 28.69 34.2 28.69 34.55 30.38 34.9 26.99 35.25 28.69 35.6 27.42 35.95 26.78 36.3 28.26 36.64 29.74 36.99 29.96 37.34 31.44 37.69 31.01 38.04 31.44 38.39 32.07 38.74 32.71 39.09 32.28 39.44 31.23 39.79 32.07 40.14 32.28 40.49 33.13 40.83 34.4 41.18 35.67 41.53 37.15 41.88 34.82 42.23 35.67 42.58 35.24 42.93 35.03 43.28 35.88 43.63 35.67 43.98 35.24 44.33 34.4 44.67 34.61 45.02 34.4 45.37 32.71 45.72 30.38 46.07 30.38 46.42 29.32 46.77 24.88 47.12 24.88 47.47 23.82 47.82 22.98 48.17 23.4 48.52 21.71 48.86 22.98 49.21 22.76 49.56 23.4 49.91 23.82 50.26 24.46 50.61 25.09 50.96 25.09 51.31 24.88 51.66 28.48 52.01 29.11 52.36 30.59 52.7 32.71 53.05 30.59 53.4 30.38 53.75 27.63 54.1 26.57 54.45 25.09 54.8 23.82 55.15 25.09 55.5 24.88 55.85 24.88 56.2 26.36 56.55 23.61 56.89 24.03 57.24 22.34 57.59 22.98 57.94 20.65 58.29 22.13 58.64 21.92 58.99 21.71 59.34 20.01 59.69 19.59 60.04 20.01 60.39 19.38 60.73 18.96 61.08 19.59 61.43 18.53 61.78 16.84 62.13 16.84 62.48 15.57 62.83 16.21 63.18 17.27 63.53 15.57 63.88 14.52 64.23 14.3 64.58 14.52 64.92 14.3 65.27 14.09 65.62 13.46 65.97 13.03 66.32 13.25 66.67 13.46 67.02 13.25 67.37 13.25 67.72 13.88 68.07 14.94 68.42 16.21 68.77 16.21 69.11 16.21 69.46 16 69.81 17.9 70.16 17.27 70.51 16.63 70.86 15.57 71.21 16.21 71.56 17.27 71.91 18.96 72.26 17.9 72.61 18.53 72.95 17.27 73.3 17.27 73.65 16 74 15.15 74.35 15.15 74.7 14.09 75.05 13.67 75.4 14.3 75.75 14.09 76.1 13.25 76.45 13.25 76.8 13.03 77.14 12.82 77.49 12.61 77.84 13.25 78.19 13.03 78.54 12.61 78.89 12.61 79.24 12.61 79.59 12.61 79.94 13.03 80.29 12.82 80.64 13.03 80.98 13.03 81.33 13.03 81.68 13.03 82.03 12.82 82.38 12.82 82.73 13.03 83.08 12.61 83.43 12.61 83.78 12.61 84.13 12.61 84.48 12.61 84.83 12.61 85.17 12.61 85.52 12.61 85.87 12.61 86.22 12.61 86.57 12.61 86.92 12.61 87.27 12.61 87.62 13.03 87.97 13.03 88.32 13.46 88.67 12.82 89.02 12.61 89.36 13.03 89.71 12.82 90.06 13.25 90.41 13.25 90.76 12.82 91.11 13.25 91.46 12.82 91.81 12.61 92.16 12.61 92.51 12.82 92.86 12.82 93.2 12.82 93.55 13.46 93.9 13.03 94.25 12.82 94.6 12.61 94.95 12.61 95.3 12.61 95.65 13.03 96 12.82 96.35 13.25 96.7 13.46 97.05 14.09 97.39 13.88 97.74 14.09 98.09 13.88 98.44 14.52 98.79 15.15 99.14 15.36 99.49 14.73 99.84 15.36 100.19 15.15 100.54 14.73 100.89 15.57 101.23 16.21 101.58 16.21 101.93 17.05 102.28 16.63 102.63 17.27 102.98 16 103.33 14.94 103.68 14.94 104.03 15.57 104.38 14.73 104.73 14.94 105.08 16 105.42 17.27 105.77 17.9 106.12 18.11 106.47 19.8 106.82 20.65 107.17 21.5 107.52 22.76 107.87 24.88 108.22 23.82 108.57 22.76 108.92 21.07 109.26 21.92 109.61 21.28 109.96 21.07 110.31 21.07 110.66 18.96 111.01 18.32 111.36 18.96 111.71 19.17 112.06 23.19 112.41 22.76 112.76 21.71 113.11 21.71 113.45 24.03 113.8 24.67 114.15 26.57 114.5 27.84 114.85 29.32 115.2 28.9 115.55 28.69 115.9 28.48 116.25 30.8 116.6 30.59 116.95 30.59 117.3 31.65 117.64 32.07 117.99 30.59 118.34 31.44 118.69 31.65 119.04 32.92 119.39 34.82 119.74 36.3 120.09 37.36 120.44 36.72 120.79 35.03 121.14 33.97 121.48 32.28 121.83 32.71 122.18 32.71 122.53 31.23 122.88 31.01 123.23 28.9 123.58 30.59 123.93 27.63 124.28 25.73 124.63 26.36 124.98 26.78 125.33 25.94 125.67 24.88 126.02 25.09 126.37 25.09 126.72 26.36 127.07 26.36 127.42 26.57 127.77 27.63 128.12 28.05 128.47 28.69 128.82 28.9 129.17 28.26 129.51 29.32 129.86 29.96 130.21 30.38 130.56 32.28 130.91 32.71 131.26 31.01 131.61 31.44 131.96 31.86 132.31 31.01 132.66 31.01 133.01 29.74 133.36 30.38 133.7 31.44 134.05 29.74 134.4 30.59 134.75 33.34 135.1 33.76 135.45 35.88 135.8 36.72 136.15 37.57 136.5 36.3 136.85 35.88 137.2 35.88 137.55 35.03 137.89 35.88 138.24 33.97 138.59 32.92 138.94 34.82 139.29 33.76 139.64 35.46 139.99 32.71 140.34 32.71 140.69 32.07 141.04 29.74 141.39 29.74 141.73 28.9 142.08 28.9 142.43 25.94 142.78 29.74 143.13 29.11 143.48 30.38 143.83 31.65 144.18 31.44 144.53 30.38 144.88 28.9 145.23 27.84 145.58 28.05 145.92 27.21 146.27 27.84 146.62 26.78 146.97 25.94 147.32 25.3 147.67 26.15 148.02 27.84 148.37 24.67 148.72 27.42 149.07 26.57 149.42 27.63 149.76 26.15 150.11 23.82 150.46 25.94 150.81 24.88 151.16 25.51 151.51 25.3 151.86 23.61 152.21 24.03 152.56 26.57 152.91 24.25 153.26 26.15 153.61 27.42 153.95 29.11 154.3 28.48 154.65 26.99 155 26.99 155.35 26.15 155.7 25.73 156.05 25.09 156.4 26.15 156.75 25.09 157.1 25.3 157.45 25.51 157.79 24.03 158.14 27.42 158.49 27.63 158.84 26.57 159.19 29.96 159.54 29.74 159.89 31.23 160.24 30.17 160.59 31.01 160.94 32.28 161.29 35.46 161.64 35.67 161.98 35.67 162.33 35.88 162.68 36.09 163.03 37.78 163.38 36.3 163.73 35.46 164.08 34.61 164.43 35.67 164.78 35.03 165.13 34.61 165.48 36.94 165.83 37.36 166.17 37.36 166.52 37.99 166.87 39.05 167.22 39.26 167.57 38.42 167.92 39.05 168.27 38.84 168.62 35.46 168.97 37.15 169.32 39.47 169.67 39.9 170.01 39.47 170.36 37.99 170.71 39.05 171.06 39.9 171.41 39.47 171.76 39.69 172.11 39.26 172.46 39.47 172.81 38.63 173.16 39.9 173.51 37.99 173.86 38.21 174.2 37.99 174.55 37.36 174.9 37.99 175.25 36.94 175.6 36.3 175.95 34.82 176.3 33.97 176.65 35.03 177 36.09 177.35 36.3 177.7 33.34 178.04 35.03 178.39 35.88 178.74 38.21 179.09 36.09 179.44 36.3 179.79 36.72 180.14 36.94 180.49 38.21 180.84 35.24 181.19 36.09 181.54 37.57 181.89 37.57 182.23 36.72 182.58 38.63 182.93 39.47 183.28 39.47 183.63 39.26 183.98 38.63 184.33 40.53 184.68 40.95 185.03 38.63 185.38 39.47 185.73 39.05 186.08 38.84 186.42 40.11 186.77 38.21 187.12 39.47 187.47 39.47 187.82 40.74 188.17 39.05 188.52 38.84 188.87 38.42 189.22 38.84 189.57 39.05 189.92 41.8 190.26 42.22 190.61 41.59 190.96 43.49 191.31 43.92 191.66 42.22 192.01 42.86 192.36 43.49 192.71 43.07 193.06 42.86 193.41 44.13 193.76 43.92 194.11 42.65 194.45 41.17 194.8 43.28 195.15 44.97 195.5 46.03 195.85 45.82 196.2 46.45"/>
      </g>
      <g stroke-width="0.3" fill="#000000" fill-opacity="0.000" class="geometry" stroke-dasharray="none" stroke="#9E0142" id="img-9c4ad01f-39">
        <path fill="none" d="M21.98,33.76 L 22.33 34.4 22.68 33.97 23.03 33.76 23.38 35.03 23.73 35.03 24.08 33.76 24.42 31.65 24.77 30.17 25.12 30.8 25.47 29.74 25.82 30.17 26.17 31.86 26.52 31.65 26.87 32.28 27.22 31.23 27.57 29.74 27.92 27.42 28.27 28.05 28.61 27.63 28.96 25.51 29.31 25.73 29.66 23.82 30.01 24.46 30.36 22.76 30.71 24.67 31.06 23.82 31.41 22.76 31.76 25.3 32.11 23.82 32.45 22.98 32.8 23.61 33.15 20.86 33.5 18.32 33.85 19.38 34.2 18.96 34.55 17.48 34.9 16.21 35.25 16.21 35.6 16 35.95 15.15 36.3 14.3 36.64 13.67 36.99 13.67 37.34 14.3 37.69 14.3 38.04 13.88 38.39 13.88 38.74 13.46 39.09 12.82 39.44 12.82 39.79 12.61 40.14 12.61 40.49 12.61 40.83 12.61 41.18 12.82 41.53 12.61 41.88 12.82 42.23 12.82 42.58 12.82 42.93 12.82 43.28 13.46 43.63 13.03 43.98 12.82 44.33 12.61 44.67 12.61 45.02 12.61 45.37 12.61 45.72 12.61 46.07 12.61 46.42 12.61 46.77 12.61 47.12 12.61 47.47 12.61 47.82 12.61 48.17 12.61 48.52 12.61 48.86 12.61 49.21 12.61 49.56 13.03 49.91 12.61 50.26 12.61 50.61 12.61 50.96 12.61 51.31 12.61 51.66 12.61 52.01 12.61 52.36 12.82 52.7 12.61 53.05 13.25 53.4 13.67 53.75 13.25 54.1 12.61 54.45 12.61 54.8 12.61 55.15 12.61 55.5 12.61 55.85 12.61 56.2 12.61 56.55 12.61 56.89 12.61 57.24 12.61 57.59 12.61 57.94 12.61 58.29 12.61 58.64 12.61 58.99 12.82 59.34 12.61 59.69 12.61 60.04 12.61 60.39 12.61 60.73 12.61 61.08 12.61 61.43 12.61 61.78 12.61 62.13 13.03 62.48 12.82 62.83 12.61 63.18 12.61 63.53 12.61 63.88 12.61 64.23 12.61 64.58 12.61 64.92 12.61 65.27 13.25 65.62 13.46 65.97 13.03 66.32 12.82 66.67 13.03 67.02 13.46 67.37 13.46 67.72 13.67 68.07 13.25 68.42 13.46 68.77 13.46 69.11 13.46 69.46 13.67 69.81 13.67 70.16 13.67 70.51 13.67 70.86 14.09 71.21 13.88 71.56 13.88 71.91 14.3 72.26 13.67 72.61 13.25 72.95 13.03 73.3 13.03 73.65 12.61 74 12.61 74.35 12.61 74.7 12.61 75.05 12.61 75.4 12.61 75.75 12.61 76.1 12.61 76.45 12.61 76.8 12.61 77.14 12.61 77.49 12.61 77.84 12.61 78.19 12.61 78.54 12.61 78.89 12.61 79.24 12.61 79.59 12.61 79.94 12.61 80.29 12.61 80.64 12.61 80.98 12.61 81.33 12.61 81.68 12.61 82.03 12.61 82.38 12.61 82.73 12.82 83.08 13.03 83.43 12.61 83.78 12.61 84.13 12.61 84.48 12.61 84.83 12.61 85.17 12.61 85.52 12.61 85.87 12.61 86.22 12.61 86.57 12.61 86.92 12.61 87.27 12.61 87.62 12.61 87.97 12.61 88.32 12.82 88.67 12.61 89.02 12.61 89.36 13.03 89.71 12.61 90.06 13.03 90.41 13.46 90.76 13.46 91.11 13.46 91.46 13.88 91.81 14.09 92.16 13.88 92.51 14.09 92.86 13.67 93.2 13.25 93.55 13.25 93.9 12.61 94.25 12.61 94.6 12.61 94.95 12.61 95.3 13.03 95.65 13.46 96 14.09 96.35 13.25 96.7 13.03 97.05 13.46 97.39 13.46 97.74 13.46 98.09 13.46 98.44 12.82 98.79 13.03 99.14 12.82 99.49 12.61 99.84 12.61 100.19 12.61 100.54 12.61 100.89 12.61 101.23 13.03 101.58 12.61 101.93 12.61 102.28 12.61 102.63 12.61 102.98 12.61 103.33 12.61 103.68 12.61 104.03 12.61 104.38 12.82 104.73 12.61 105.08 12.61 105.42 12.82 105.77 12.82 106.12 12.61 106.47 12.82 106.82 12.82 107.17 12.82 107.52 12.82 107.87 12.82 108.22 12.82 108.57 12.82 108.92 12.82 109.26 12.61 109.61 12.61 109.96 12.61 110.31 12.61 110.66 12.61 111.01 12.61 111.36 12.61 111.71 12.61 112.06 12.61 112.41 12.61 112.76 12.61 113.11 12.61 113.45 12.61 113.8 12.61 114.15 12.61 114.5 12.61 114.85 12.61 115.2 12.61 115.55 12.61 115.9 13.03 116.25 12.82 116.6 12.61 116.95 12.61 117.3 12.61 117.64 12.61 117.99 12.61 118.34 12.61 118.69 13.25 119.04 13.03 119.39 13.25 119.74 13.03 120.09 13.46 120.44 13.88 120.79 13.88 121.14 13.67 121.48 13.67 121.83 14.52 122.18 14.3 122.53 14.52 122.88 13.67 123.23 13.03 123.58 12.82 123.93 13.03 124.28 13.67 124.63 13.25 124.98 13.25 125.33 13.67 125.67 13.67 126.02 12.82 126.37 12.61 126.72 13.03 127.07 13.25 127.42 12.61 127.77 13.03 128.12 13.03 128.47 12.82 128.82 13.46 129.17 13.88 129.51 13.25 129.86 13.46 130.21 13.67 130.56 14.09 130.91 13.88 131.26 13.88 131.61 13.46 131.96 13.46 132.31 13.03 132.66 12.82 133.01 12.82 133.36 12.82 133.7 12.61 134.05 12.61 134.4 12.61 134.75 12.61 135.1 12.61 135.45 12.82 135.8 12.61 136.15 12.61 136.5 12.61 136.85 12.61 137.2 12.61 137.55 12.61 137.89 12.61 138.24 12.61 138.59 12.61 138.94 12.61 139.29 12.61 139.64 12.61 139.99 12.61 140.34 13.25 140.69 13.67 141.04 14.09 141.39 15.15 141.73 13.88 142.08 13.03 142.43 13.25 142.78 13.67 143.13 13.88 143.48 13.67 143.83 14.52 144.18 14.52 144.53 14.94 144.88 16 145.23 15.57 145.58 15.57 145.92 16 146.27 15.78 146.62 15.36 146.97 15.15 147.32 14.73 147.67 14.3 148.02 14.52 148.37 14.73 148.72 15.36 149.07 15.78 149.42 16.21 149.76 17.05 150.11 15.57 150.46 17.48 150.81 16.84 151.16 17.48 151.51 17.9 151.86 16.63 152.21 16.42 152.56 17.05 152.91 17.27 153.26 18.96 153.61 19.17 153.95 21.07 154.3 22.13 154.65 22.34 155 20.65 155.35 20.01 155.7 23.19 156.05 24.25 156.4 22.13 156.75 20.65 157.1 22.34 157.45 22.34 157.79 21.5 158.14 21.07 158.49 22.13 158.84 22.13 159.19 22.13 159.54 19.38 159.89 19.59 160.24 18.11 160.59 18.96 160.94 18.75 161.29 18.53 161.64 18.96 161.98 20.23 162.33 19.17 162.68 17.48 163.03 16.84 163.38 16.21 163.73 15.78 164.08 15.57 164.43 15.57 164.78 16 165.13 16.21 165.48 16 165.83 15.78 166.17 16.42 166.52 17.69 166.87 18.96 167.22 17.9 167.57 17.05 167.92 15.78 168.27 14.52 168.62 13.67 168.97 13.25 169.32 13.03 169.67 13.25 170.01 13.25 170.36 13.03 170.71 13.25 171.06 12.82 171.41 13.25 171.76 13.88 172.11 13.88 172.46 13.88 172.81 13.46 173.16 13.67 173.51 13.25 173.86 13.67 174.2 12.61 174.55 12.61 174.9 12.61 175.25 12.61 175.6 12.61 175.95 12.61 176.3 12.61 176.65 12.61 177 12.61 177.35 12.61 177.7 12.61 178.04 12.61 178.39 12.61 178.74 12.61 179.09 12.61 179.44 12.61 179.79 12.61 180.14 12.61 180.49 12.61 180.84 12.61 181.19 12.61 181.54 12.82 181.89 12.61 182.23 12.61 182.58 12.61 182.93 12.61 183.28 12.61 183.63 12.61 183.98 12.61 184.33 12.61 184.68 12.82 185.03 12.61 185.38 12.61 185.73 12.61 186.08 12.61 186.42 12.61 186.77 12.61 187.12 12.61 187.47 12.61 187.82 12.61 188.17 13.03 188.52 13.03 188.87 13.25 189.22 13.03 189.57 13.25 189.92 13.46 190.26 13.46 190.61 13.03 190.96 13.03 191.31 13.67 191.66 13.67 192.01 13.03 192.36 13.25 192.71 13.03 193.06 13.25 193.41 13.03 193.76 13.03 194.11 13.67 194.45 13.46 194.8 13.25 195.15 12.82 195.5 12.61 195.85 12.61 196.2 12.82"/>
      </g>
    </g>
  </g>
</g>
  <g class="guide ylabels" font-size="2.82" font-family="'PT Sans Caption','Helvetica Neue','Helvetica',sans-serif" fill="#000000" id="img-9c4ad01f-40">
    <text x="18.63" y="54.91" text-anchor="end" dy="0.35em">0</text>
    <text x="18.63" y="44.34" text-anchor="end" dy="0.35em">50</text>
    <text x="18.63" y="33.76" text-anchor="end" dy="0.35em">100</text>
    <text x="18.63" y="23.19" text-anchor="end" dy="0.35em">150</text>
    <text x="18.63" y="12.61" text-anchor="end" dy="0.35em">200</text>
  </g>
  <g font-size="3.88" font-family="'PT Sans','Helvetica Neue','Helvetica',sans-serif" fill="#000000" stroke="#000000" stroke-opacity="0.000" id="img-9c4ad01f-41">
    <text x="8.81" y="31.76" text-anchor="middle" dy="0.35em" transform="rotate(-90, 8.81, 33.76)">population size</text>
  </g>
  <g font-size="3.88" font-family="'PT Sans','Helvetica Neue','Helvetica',sans-serif" fill="#000000" stroke="#000000" stroke-opacity="0.000" id="img-9c4ad01f-42">
    <text x="108.92" y="5" text-anchor="middle" dy="0.6em">genetic drift with mutationrate  = 0.001 </text>
  </g>
</g>
<defs>
  <clipPath id="img-9c4ad01f-24">
  <path d="M19.63,10.61 L 198.2 10.61 198.2 56.91 19.63 56.91" />
</clipPath>
  <clipPath id="img-9c4ad01f-8">
  <path d="M18.63,86.81 L 174.03 86.81 174.03 133.11 18.63 133.11" />
</clipPath>
</defs>
</svg>
