<?xml version="1.0" encoding="UTF-8"?>
<svg xmlns="http://www.w3.org/2000/svg"
     xmlns:xlink="http://www.w3.org/1999/xlink"
     xmlns:gadfly="http://www.gadflyjl.org/ns"
     version="1.2"
     width="203.2mm" height="152.4mm" viewBox="0 0 203.2 152.4"
     stroke="none"
     fill="#000000"
     stroke-width="0.3"
     font-size="3.88"
>
<g class="plotroot xscalable yscalable" id="img-1930cdce-1">
  <g font-size="3.88" font-family="'PT Sans','Helvetica Neue','Helvetica',sans-serif" fill="#000000" stroke="#000000" stroke-opacity="0.000" id="img-1930cdce-2">
    <text x="108.92" y="140.79" text-anchor="middle" dy="0.6em">generation number</text>
  </g>
  <g class="guide xlabels" font-size="2.82" font-family="'PT Sans Caption','Helvetica Neue','Helvetica',sans-serif" fill="#000000" id="img-1930cdce-3">
    <text x="21.63" y="134.11" text-anchor="middle" dy="0.6em">0</text>
    <text x="56.55" y="134.11" text-anchor="middle" dy="0.6em">100</text>
    <text x="91.46" y="134.11" text-anchor="middle" dy="0.6em">200</text>
    <text x="126.37" y="134.11" text-anchor="middle" dy="0.6em">300</text>
    <text x="161.29" y="134.11" text-anchor="middle" dy="0.6em">400</text>
    <text x="196.2" y="134.11" text-anchor="middle" dy="0.6em">500</text>
  </g>
<g clip-path="url(#img-1930cdce-4)">
  <g id="img-1930cdce-5">
    <g pointer-events="visible" opacity="1" fill="#FFFFFF" stroke="#000000" stroke-opacity="0.000" class="guide background" id="img-1930cdce-6">
      <rect x="19.63" y="10.61" width="178.57" height="122.5"/>
    </g>
    <g class="guide ygridlines xfixed" stroke-dasharray="0.5,0.5" stroke-width="0.2" stroke="#808080" id="img-1930cdce-7">
      <path fill="none" d="M19.63,131.11 L 198.2 131.11"/>
      <path fill="none" d="M19.63,101.49 L 198.2 101.49"/>
      <path fill="none" d="M19.63,71.86 L 198.2 71.86"/>
      <path fill="none" d="M19.63,42.24 L 198.2 42.24"/>
      <path fill="none" d="M19.63,12.61 L 198.2 12.61"/>
    </g>
    <g class="guide xgridlines yfixed" stroke-dasharray="0.5,0.5" stroke-width="0.2" stroke="#808080" id="img-1930cdce-8">
      <path fill="none" d="M21.63,10.61 L 21.63 133.11"/>
      <path fill="none" d="M56.55,10.61 L 56.55 133.11"/>
      <path fill="none" d="M91.46,10.61 L 91.46 133.11"/>
      <path fill="none" d="M126.37,10.61 L 126.37 133.11"/>
      <path fill="none" d="M161.29,10.61 L 161.29 133.11"/>
      <path fill="none" d="M196.2,10.61 L 196.2 133.11"/>
    </g>
    <g class="plotpanel" id="img-1930cdce-9">
      <g stroke-width="0.3" fill="#000000" fill-opacity="0.000" class="geometry" stroke-dasharray="none" stroke="#3288BD" id="img-1930cdce-10">
        <path fill="none" d="M21.98,71.86 L 22.33 70.09 22.68 68.31 23.03 58.24 23.38 57.64 23.73 54.09 24.08 54.09 24.42 53.5 24.77 48.16 25.12 48.76 25.47 49.94 25.82 46.98 26.17 44.61 26.52 44.61 26.87 48.76 27.22 47.57 27.57 42.83 27.92 42.24 28.27 44.61 28.61 45.2 28.96 46.98 29.31 48.76 29.66 51.13 30.01 55.87 30.36 57.05 30.71 55.27 31.06 54.09 31.41 47.57 31.76 49.94 32.11 54.68 32.45 52.31 32.8 58.83 33.15 60.01 33.5 60.61 33.85 55.27 34.2 55.27 34.55 54.09 34.9 52.9 35.25 48.76 35.6 41.05 35.95 44.61 36.3 49.35 36.64 53.5 36.99 52.9 37.34 60.01 37.69 55.27 38.04 54.09 38.39 61.79 38.74 70.09 39.09 68.9 39.44 62.98 39.79 61.79 40.14 57.64 40.49 61.2 40.83 59.42 41.18 52.31 41.53 50.53 41.88 42.83 42.23 42.83 42.58 40.46 42.93 45.79 43.28 47.57 43.63 52.31 43.98 54.68 44.33 54.09 44.67 52.9 45.02 61.79 45.37 58.24 45.72 57.64 46.07 63.57 46.42 59.42 46.77 55.27 47.12 57.05 47.47 54.09 47.82 48.16 48.17 50.53 48.52 49.94 48.86 58.83 49.21 61.2 49.56 64.16 49.91 64.75 50.26 62.98 50.61 58.83 50.96 55.87 51.31 52.31 51.66 52.31 52.01 55.87 52.36 54.09 52.7 54.09 53.05 54.68 53.4 47.57 53.75 49.35 54.1 49.94 54.45 51.13 54.8 47.57 55.15 51.72 55.5 49.94 55.85 49.94 56.2 56.46 56.55 52.9 56.89 52.9 57.24 56.46 57.59 51.72 57.94 52.31 58.29 52.31 58.64 51.13 58.99 46.39 59.34 47.57 59.69 50.53 60.04 57.64 60.39 55.87 60.73 54.09 61.08 55.27 61.43 54.68 61.78 51.13 62.13 42.83 62.48 44.61 62.83 45.2 63.18 38.09 63.53 38.09 63.88 41.64 64.23 44.61 64.58 42.24 64.92 46.98 65.27 46.39 65.62 39.87 65.97 38.68 66.32 41.05 66.67 46.39 67.02 44.02 67.37 43.42 67.72 45.79 68.07 46.39 68.42 42.83 68.77 46.98 69.11 48.16 69.46 50.53 69.81 41.05 70.16 41.05 70.51 39.27 70.86 37.5 71.21 48.16 71.56 54.68 71.91 52.9 72.26 53.5 72.61 57.05 72.95 52.9 73.3 53.5 73.65 59.42 74 57.05 74.35 58.83 74.7 52.9 75.05 52.9 75.4 52.9 75.75 44.02 76.1 41.05 76.45 36.9 76.8 40.46 77.14 45.79 77.49 41.64 77.84 38.68 78.19 39.27 78.54 36.9 78.89 38.09 79.24 38.68 79.59 41.64 79.94 42.24 80.29 39.27 80.64 40.46 80.98 39.87 81.33 39.27 81.68 41.05 82.03 37.5 82.38 46.39 82.73 47.57 83.08 45.2 83.43 44.02 83.78 35.13 84.13 32.76 84.48 33.35 84.83 30.39 85.17 30.39 85.52 32.16 85.87 30.98 86.22 30.98 86.57 31.57 86.92 29.79 87.27 28.61 87.62 25.65 87.97 25.65 88.32 28.02 88.67 25.65 89.02 23.87 89.36 28.02 89.71 30.39 90.06 30.98 90.41 32.76 90.76 33.35 91.11 36.9 91.46 41.05 91.81 33.94 92.16 33.94 92.51 31.57 92.86 33.94 93.2 38.09 93.55 36.31 93.9 39.27 94.25 36.9 94.6 38.09 94.95 41.05 95.3 42.83 95.65 40.46 96 45.2 96.35 42.83 96.7 43.42 97.05 38.68 97.39 44.02 97.74 42.83 98.09 34.53 98.44 33.94 98.79 35.13 99.14 34.53 99.49 35.13 99.84 32.16 100.19 32.16 100.54 36.31 100.89 30.98 101.23 36.9 101.58 38.09 101.93 38.09 102.28 35.72 102.63 33.94 102.98 32.76 103.33 32.76 103.68 31.57 104.03 27.42 104.38 29.2 104.73 30.39 105.08 33.94 105.42 37.5 105.77 35.72 106.12 42.83 106.47 40.46 106.82 38.09 107.17 46.98 107.52 42.24 107.87 38.68 108.22 36.31 108.57 32.76 108.92 31.57 109.26 37.5 109.61 38.09 109.96 41.05 110.31 39.87 110.66 39.87 111.01 38.09 111.36 39.87 111.71 47.57 112.06 49.94 112.41 57.05 112.76 61.2 113.11 60.01 113.45 65.94 113.8 64.16 114.15 59.42 114.5 58.24 114.85 59.42 115.2 65.35 115.55 69.49 115.9 76.01 116.25 72.46 116.6 71.86 116.95 74.23 117.3 78.38 117.64 75.42 117.99 81.94 118.34 86.68 118.69 82.53 119.04 83.12 119.39 84.9 119.74 81.94 120.09 78.38 120.44 75.42 120.79 81.94 121.14 76.01 121.48 78.38 121.83 73.05 122.18 77.2 122.53 74.83 122.88 66.53 123.23 64.16 123.58 64.16 123.93 69.49 124.28 69.49 124.63 71.27 124.98 76.6 125.33 78.97 125.67 73.64 126.02 76.01 126.37 77.79 126.72 77.2 127.07 77.2 127.42 77.79 127.77 82.53 128.12 86.68 128.47 93.19 128.82 89.05 129.17 86.08 129.51 89.64 129.86 89.64 130.21 86.68 130.56 88.45 130.91 95.56 131.26 94.38 131.61 96.75 131.96 98.53 132.31 100.3 132.66 97.93 133.01 103.86 133.36 99.71 133.7 96.75 134.05 96.16 134.4 99.12 134.75 105.64 135.1 104.45 135.45 102.67 135.8 105.04 136.15 105.04 136.5 102.08 136.85 108.6 137.2 102.08 137.55 104.45 137.89 100.3 138.24 102.08 138.59 98.53 138.94 94.97 139.29 95.56 139.64 86.68 139.99 86.68 140.34 84.9 140.69 78.38 141.04 75.42 141.39 82.53 141.73 81.34 142.08 81.94 142.43 86.08 142.78 83.71 143.13 87.86 143.48 90.82 143.83 82.53 144.18 78.97 144.53 78.38 144.88 85.49 145.23 95.56 145.58 103.27 145.92 107.41 146.27 109.78 146.62 112.15 146.97 112.75 147.32 109.19 147.67 110.97 148.02 115.12 148.37 116.89 148.72 117.49 149.07 116.89 149.42 116.89 149.76 118.67 150.11 115.12 150.46 118.67 150.81 117.49 151.16 119.86 151.51 121.04 151.86 121.04 152.21 120.45 152.56 114.52 152.91 113.34 153.26 107.41 153.61 116.89 153.95 118.67 154.3 121.04 154.65 123.41 155 123.41 155.35 120.45 155.7 114.52 156.05 115.71 156.4 114.52 156.75 116.3 157.1 113.34 157.45 113.34 157.79 113.34 158.14 110.97 158.49 114.52 158.84 119.26 159.19 122.82 159.54 124.6 159.89 124.6 160.24 126.97 160.59 127.56 160.94 128.74 161.29 129.34 161.64 129.34 161.98 129.93 162.33 130.52 162.68 131.11 163.03 131.11 163.38 130.52 163.73 130.52 164.08 129.34 164.43 129.93 164.78 128.15 165.13 128.15 165.48 126.37 165.83 123.41 166.17 122.23 166.52 122.82 166.87 122.82 167.22 127.56 167.57 129.34 167.92 129.34 168.27 128.74 168.62 129.93 168.97 128.15 169.32 127.56 169.67 129.34 170.01 128.74 170.36 129.93 170.71 130.52 171.06 131.11 171.41 131.11 171.76 131.11 172.11 131.11 172.46 131.11 172.81 131.11 173.16 131.11 173.51 131.11 173.86 131.11 174.2 131.11 174.55 131.11 174.9 130.52 175.25 131.11 175.6 131.11 175.95 131.11 176.3 131.11 176.65 131.11 177 131.11 177.35 131.11 177.7 131.11 178.04 131.11 178.39 129.93 178.74 130.52 179.09 130.52 179.44 129.93 179.79 129.34 180.14 128.15 180.49 128.74 180.84 130.52 181.19 128.74 181.54 129.93 181.89 129.34 182.23 129.34 182.58 128.74 182.93 128.74 183.28 128.74 183.63 128.15 183.98 127.56 184.33 127.56 184.68 129.34 185.03 126.97 185.38 126.97 185.73 125.78 186.08 126.97 186.42 128.15 186.77 128.15 187.12 128.74 187.47 128.74 187.82 126.97 188.17 126.97 188.52 125.78 188.87 125.19 189.22 128.15 189.57 128.15 189.92 126.37 190.26 126.37 190.61 125.19 190.96 123.41 191.31 122.23 191.66 119.26 192.01 119.26 192.36 120.45 192.71 120.45 193.06 122.23 193.41 122.82 193.76 124 194.11 123.41 194.45 125.19 194.8 123.41 195.15 122.23 195.5 124.6 195.85 124.6 196.2 121.04"/>
      </g>
      <g stroke-width="0.3" fill="#000000" fill-opacity="0.000" class="geometry" stroke-dasharray="none" stroke="#66C2A5" id="img-1930cdce-11">
        <path fill="none" d="M21.98,71.86 L 22.33 64.16 22.68 60.61 23.03 51.13 23.38 58.24 23.73 50.53 24.08 51.72 24.42 49.35 24.77 46.98 25.12 49.94 25.47 45.79 25.82 49.35 26.17 45.2 26.52 47.57 26.87 45.79 27.22 44.61 27.57 48.16 27.92 54.68 28.27 53.5 28.61 55.87 28.96 52.9 29.31 51.13 29.66 55.27 30.01 54.68 30.36 50.53 30.71 44.61 31.06 42.83 31.41 44.61 31.76 39.87 32.11 43.42 32.45 44.02 32.8 41.64 33.15 44.61 33.5 47.57 33.85 48.76 34.2 52.31 34.55 55.87 34.9 57.64 35.25 54.09 35.6 54.09 35.95 42.83 36.3 43.42 36.64 38.09 36.99 42.83 37.34 42.24 37.69 44.61 38.04 43.42 38.39 46.98 38.74 39.27 39.09 34.53 39.44 31.57 39.79 32.76 40.14 31.57 40.49 28.61 40.83 29.2 41.18 33.35 41.53 31.57 41.88 32.76 42.23 28.02 42.58 33.35 42.93 34.53 43.28 30.39 43.63 33.94 43.98 36.31 44.33 41.64 44.67 42.83 45.02 38.68 45.37 32.76 45.72 31.57 46.07 30.39 46.42 31.57 46.77 28.02 47.12 28.02 47.47 28.61 47.82 20.91 48.17 23.28 48.52 23.87 48.86 19.72 49.21 16.76 49.56 15.57 49.91 15.57 50.26 14.98 50.61 14.98 50.96 14.98 51.31 14.39 51.66 13.8 52.01 13.8 52.36 13.2 52.7 13.2 53.05 13.2 53.4 13.2 53.75 12.61 54.1 12.61 54.45 14.39 54.8 14.39 55.15 13.2 55.5 13.2 55.85 15.57 56.2 13.8 56.55 14.98 56.89 17.35 57.24 19.72 57.59 17.35 57.94 18.54 58.29 17.35 58.64 17.94 58.99 16.17 59.34 14.39 59.69 16.17 60.04 17.94 60.39 19.72 60.73 20.31 61.08 18.54 61.43 21.5 61.78 19.72 62.13 15.57 62.48 16.76 62.83 15.57 63.18 15.57 63.53 14.98 63.88 17.35 64.23 16.17 64.58 14.98 64.92 14.98 65.27 14.39 65.62 16.76 65.97 19.13 66.32 19.72 66.67 22.09 67.02 21.5 67.37 20.91 67.72 23.87 68.07 25.05 68.42 20.31 68.77 20.31 69.11 17.94 69.46 17.35 69.81 19.13 70.16 20.31 70.51 21.5 70.86 20.91 71.21 23.87 71.56 25.65 71.91 25.05 72.26 23.87 72.61 32.76 72.95 36.9 73.3 36.9 73.65 45.2 74 46.39 74.35 45.2 74.7 39.27 75.05 42.83 75.4 44.02 75.75 44.61 76.1 42.24 76.45 38.09 76.8 36.31 77.14 36.9 77.49 38.09 77.84 45.79 78.19 44.61 78.54 45.79 78.89 40.46 79.24 40.46 79.59 40.46 79.94 37.5 80.29 38.68 80.64 37.5 80.98 39.27 81.33 39.87 81.68 44.02 82.03 46.98 82.38 47.57 82.73 53.5 83.08 52.31 83.43 53.5 83.78 54.09 84.13 55.27 84.48 54.09 84.83 49.94 85.17 39.87 85.52 47.57 85.87 54.68 86.22 52.9 86.57 44.02 86.92 49.94 87.27 44.61 87.62 44.61 87.97 42.24 88.32 44.02 88.67 42.83 89.02 45.79 89.36 38.09 89.71 37.5 90.06 42.24 90.41 44.02 90.76 41.64 91.11 40.46 91.46 36.31 91.81 36.9 92.16 39.27 92.51 46.39 92.86 39.27 93.2 41.05 93.55 36.31 93.9 35.13 94.25 33.94 94.6 36.9 94.95 36.31 95.3 38.68 95.65 42.83 96 45.79 96.35 51.72 96.7 60.01 97.05 63.57 97.39 58.24 97.74 54.68 98.09 55.27 98.44 60.01 98.79 62.38 99.14 61.79 99.49 59.42 99.84 52.9 100.19 56.46 100.54 58.24 100.89 61.2 101.23 66.53 101.58 62.98 101.93 57.64 102.28 65.35 102.63 68.31 102.98 61.2 103.33 59.42 103.68 60.01 104.03 61.79 104.38 58.24 104.73 60.61 105.08 59.42 105.42 52.9 105.77 51.72 106.12 49.94 106.47 48.16 106.82 49.35 107.17 44.61 107.52 45.2 107.87 42.24 108.22 39.87 108.57 33.94 108.92 30.39 109.26 32.76 109.61 30.98 109.96 30.39 110.31 25.65 110.66 28.61 111.01 23.87 111.36 25.65 111.71 25.05 112.06 27.42 112.41 27.42 112.76 30.98 113.11 33.94 113.45 33.94 113.8 30.39 114.15 29.79 114.5 33.94 114.85 33.35 115.2 30.39 115.55 39.87 115.9 30.39 116.25 29.79 116.6 31.57 116.95 32.76 117.3 31.57 117.64 25.65 117.99 22.68 118.34 23.28 118.69 24.46 119.04 25.05 119.39 25.65 119.74 23.87 120.09 19.13 120.44 22.68 120.79 23.87 121.14 27.42 121.48 30.39 121.83 26.83 122.18 21.5 122.53 18.54 122.88 19.13 123.23 16.17 123.58 13.8 123.93 13.2 124.28 12.61 124.63 12.61 124.98 12.61 125.33 12.61 125.67 12.61 126.02 12.61 126.37 13.8 126.72 13.2 127.07 13.2 127.42 13.8 127.77 13.2 128.12 14.39 128.47 13.8 128.82 12.61 129.17 12.61 129.51 12.61 129.86 12.61 130.21 12.61 130.56 13.2 130.91 12.61 131.26 12.61 131.61 12.61 131.96 12.61 132.31 12.61 132.66 12.61 133.01 12.61 133.36 14.98 133.7 14.39 134.05 13.2 134.4 13.2 134.75 13.2 135.1 13.8 135.45 13.2 135.8 13.2 136.15 12.61 136.5 13.8 136.85 14.39 137.2 14.39 137.55 14.39 137.89 14.39 138.24 13.8 138.59 16.17 138.94 14.98 139.29 14.39 139.64 17.94 139.99 16.76 140.34 14.39 140.69 13.8 141.04 15.57 141.39 14.98 141.73 14.98 142.08 14.39 142.43 15.57 142.78 14.39 143.13 13.2 143.48 13.2 143.83 12.61 144.18 12.61 144.53 12.61 144.88 12.61 145.23 12.61 145.58 12.61 145.92 12.61 146.27 12.61 146.62 12.61 146.97 12.61 147.32 12.61 147.67 12.61 148.02 12.61 148.37 12.61 148.72 12.61 149.07 12.61 149.42 12.61 149.76 12.61 150.11 12.61 150.46 12.61 150.81 12.61 151.16 12.61 151.51 12.61 151.86 12.61 152.21 12.61 152.56 12.61 152.91 12.61 153.26 12.61 153.61 12.61 153.95 12.61 154.3 12.61 154.65 13.8 155 13.8 155.35 13.2 155.7 12.61 156.05 13.8 156.4 14.39 156.75 14.39 157.1 13.8 157.45 14.39 157.79 13.2 158.14 13.2 158.49 13.8 158.84 14.39 159.19 12.61 159.54 12.61 159.89 12.61 160.24 12.61 160.59 12.61 160.94 12.61 161.29 12.61 161.64 12.61 161.98 12.61 162.33 12.61 162.68 12.61 163.03 14.98 163.38 16.76 163.73 16.17 164.08 14.39 164.43 13.2 164.78 13.2 165.13 12.61 165.48 12.61 165.83 12.61 166.17 12.61 166.52 12.61 166.87 13.8 167.22 13.8 167.57 13.8 167.92 13.2 168.27 12.61 168.62 12.61 168.97 12.61 169.32 12.61 169.67 13.2 170.01 12.61 170.36 12.61 170.71 12.61 171.06 12.61 171.41 12.61 171.76 12.61 172.11 12.61 172.46 13.8 172.81 12.61 173.16 13.2 173.51 13.2 173.86 12.61 174.2 12.61 174.55 12.61 174.9 12.61 175.25 12.61 175.6 12.61 175.95 12.61 176.3 12.61 176.65 12.61 177 12.61 177.35 12.61 177.7 12.61 178.04 12.61 178.39 12.61 178.74 12.61 179.09 12.61 179.44 12.61 179.79 12.61 180.14 14.39 180.49 14.39 180.84 14.39 181.19 13.2 181.54 13.2 181.89 12.61 182.23 12.61 182.58 14.98 182.93 16.17 183.28 14.39 183.63 16.76 183.98 16.76 184.33 16.17 184.68 13.8 185.03 13.2 185.38 13.2 185.73 12.61 186.08 12.61 186.42 12.61 186.77 12.61 187.12 13.2 187.47 13.2 187.82 13.2 188.17 13.8 188.52 13.2 188.87 13.8 189.22 13.8 189.57 12.61 189.92 12.61 190.26 12.61 190.61 12.61 190.96 12.61 191.31 12.61 191.66 12.61 192.01 12.61 192.36 12.61 192.71 13.2 193.06 12.61 193.41 12.61 193.76 12.61 194.11 12.61 194.45 12.61 194.8 12.61 195.15 12.61 195.5 14.98 195.85 15.57 196.2 15.57"/>
      </g>
      <g stroke-width="0.3" fill="#000000" fill-opacity="0.000" class="geometry" stroke-dasharray="none" stroke="#ABDDA4" id="img-1930cdce-12">
        <path fill="none" d="M21.98,71.86 L 22.33 71.86 22.68 61.79 23.03 60.01 23.38 58.83 23.73 63.57 24.08 66.53 24.42 67.72 24.77 67.72 25.12 63.57 25.47 61.2 25.82 62.38 26.17 70.09 26.52 67.72 26.87 64.16 27.22 61.2 27.57 53.5 27.92 51.13 28.27 47.57 28.61 42.83 28.96 43.42 29.31 38.09 29.66 36.31 30.01 33.94 30.36 35.72 30.71 37.5 31.06 34.53 31.41 32.16 31.76 31.57 32.11 40.46 32.45 43.42 32.8 38.09 33.15 41.05 33.5 44.61 33.85 41.05 34.2 36.9 34.55 35.13 34.9 37.5 35.25 34.53 35.6 33.94 35.95 29.79 36.3 26.24 36.64 25.05 36.99 22.68 37.34 23.87 37.69 20.91 38.04 20.31 38.39 16.76 38.74 15.57 39.09 15.57 39.44 14.98 39.79 17.35 40.14 17.94 40.49 16.76 40.83 17.35 41.18 16.17 41.53 17.94 41.88 19.13 42.23 19.13 42.58 20.31 42.93 20.31 43.28 19.13 43.63 17.94 43.98 14.39 44.33 14.98 44.67 14.98 45.02 13.8 45.37 14.39 45.72 13.8 46.07 13.2 46.42 15.57 46.77 13.2 47.12 13.8 47.47 13.2 47.82 12.61 48.17 12.61 48.52 12.61 48.86 12.61 49.21 12.61 49.56 12.61 49.91 12.61 50.26 12.61 50.61 12.61 50.96 12.61 51.31 12.61 51.66 12.61 52.01 13.2 52.36 13.2 52.7 12.61 53.05 12.61 53.4 12.61 53.75 13.8 54.1 15.57 54.45 14.98 54.8 19.72 55.15 17.94 55.5 20.91 55.85 20.91 56.2 20.91 56.55 21.5 56.89 22.09 57.24 22.68 57.59 23.87 57.94 23.28 58.29 20.91 58.64 17.94 58.99 18.54 59.34 19.72 59.69 18.54 60.04 18.54 60.39 18.54 60.73 18.54 61.08 17.94 61.43 17.94 61.78 17.35 62.13 18.54 62.48 18.54 62.83 16.76 63.18 16.17 63.53 17.94 63.88 15.57 64.23 15.57 64.58 17.94 64.92 17.35 65.27 18.54 65.62 19.72 65.97 20.91 66.32 23.28 66.67 23.28 67.02 23.28 67.37 26.83 67.72 23.87 68.07 23.87 68.42 25.05 68.77 23.28 69.11 20.91 69.46 19.72 69.81 23.28 70.16 22.68 70.51 25.05 70.86 25.05 71.21 29.79 71.56 28.02 71.91 29.79 72.26 26.83 72.61 25.05 72.95 25.65 73.3 21.5 73.65 28.61 74 26.24 74.35 28.02 74.7 29.2 75.05 23.28 75.4 24.46 75.75 22.09 76.1 21.5 76.45 23.87 76.8 26.83 77.14 25.05 77.49 25.05 77.84 25.05 78.19 22.09 78.54 22.68 78.89 21.5 79.24 20.91 79.59 21.5 79.94 21.5 80.29 19.72 80.64 21.5 80.98 23.28 81.33 22.68 81.68 25.65 82.03 29.2 82.38 31.57 82.73 35.72 83.08 39.27 83.43 38.09 83.78 31.57 84.13 28.61 84.48 32.16 84.83 32.16 85.17 27.42 85.52 28.61 85.87 27.42 86.22 25.65 86.57 30.39 86.92 29.79 87.27 32.76 87.62 36.31 87.97 42.24 88.32 38.09 88.67 41.64 89.02 41.64 89.36 40.46 89.71 41.64 90.06 45.2 90.41 44.61 90.76 38.68 91.11 38.68 91.46 33.94 91.81 32.16 92.16 38.09 92.51 35.72 92.86 38.09 93.2 43.42 93.55 45.2 93.9 49.35 94.25 52.31 94.6 46.98 94.95 50.53 95.3 47.57 95.65 42.24 96 45.79 96.35 46.39 96.7 49.35 97.05 42.24 97.39 41.05 97.74 38.09 98.09 29.79 98.44 32.76 98.79 33.35 99.14 25.65 99.49 28.61 99.84 30.39 100.19 30.39 100.54 32.76 100.89 26.83 101.23 26.24 101.58 24.46 101.93 28.61 102.28 28.61 102.63 26.83 102.98 26.24 103.33 25.65 103.68 28.61 104.03 28.02 104.38 21.5 104.73 19.13 105.08 18.54 105.42 17.94 105.77 16.76 106.12 16.17 106.47 13.8 106.82 13.2 107.17 13.8 107.52 13.8 107.87 14.39 108.22 13.2 108.57 13.2 108.92 14.98 109.26 16.76 109.61 16.17 109.96 16.17 110.31 15.57 110.66 16.76 111.01 18.54 111.36 16.17 111.71 14.98 112.06 16.76 112.41 16.76 112.76 14.98 113.11 14.98 113.45 16.76 113.8 15.57 114.15 13.8 114.5 15.57 114.85 16.17 115.2 18.54 115.55 22.09 115.9 22.68 116.25 21.5 116.6 22.09 116.95 24.46 117.3 25.65 117.64 25.65 117.99 23.28 118.34 24.46 118.69 20.31 119.04 16.76 119.39 16.17 119.74 15.57 120.09 15.57 120.44 14.98 120.79 16.76 121.14 15.57 121.48 16.76 121.83 20.91 122.18 20.91 122.53 17.35 122.88 16.76 123.23 14.98 123.58 14.98 123.93 16.76 124.28 13.8 124.63 13.8 124.98 13.8 125.33 13.2 125.67 12.61 126.02 12.61 126.37 12.61 126.72 12.61 127.07 12.61 127.42 12.61 127.77 12.61 128.12 12.61 128.47 12.61 128.82 12.61 129.17 12.61 129.51 12.61 129.86 12.61 130.21 12.61 130.56 12.61 130.91 12.61 131.26 13.2 131.61 13.2 131.96 13.8 132.31 14.98 132.66 17.35 133.01 17.35 133.36 17.35 133.7 17.94 134.05 15.57 134.4 15.57 134.75 15.57 135.1 14.98 135.45 13.8 135.8 13.2 136.15 12.61 136.5 12.61 136.85 13.2 137.2 14.39 137.55 14.98 137.89 14.98 138.24 16.17 138.59 16.76 138.94 16.76 139.29 15.57 139.64 13.8 139.99 14.39 140.34 13.8 140.69 14.39 141.04 14.39 141.39 13.8 141.73 14.39 142.08 13.2 142.43 13.8 142.78 14.98 143.13 15.57 143.48 16.76 143.83 16.76 144.18 17.35 144.53 16.17 144.88 17.94 145.23 21.5 145.58 18.54 145.92 23.87 146.27 21.5 146.62 22.68 146.97 24.46 147.32 23.28 147.67 22.68 148.02 23.87 148.37 26.24 148.72 31.57 149.07 29.2 149.42 28.61 149.76 26.24 150.11 25.65 150.46 24.46 150.81 25.05 151.16 22.09 151.51 21.5 151.86 17.94 152.21 20.91 152.56 18.54 152.91 18.54 153.26 16.76 153.61 16.76 153.95 13.8 154.3 14.39 154.65 14.98 155 16.17 155.35 16.17 155.7 17.94 156.05 19.13 156.4 19.13 156.75 18.54 157.1 17.35 157.45 16.17 157.79 17.94 158.14 17.35 158.49 19.13 158.84 18.54 159.19 19.72 159.54 20.91 159.89 25.65 160.24 21.5 160.59 20.31 160.94 19.72 161.29 17.35 161.64 16.76 161.98 20.91 162.33 20.91 162.68 17.35 163.03 17.35 163.38 16.76 163.73 16.17 164.08 14.98 164.43 15.57 164.78 14.39 165.13 13.2 165.48 13.2 165.83 13.2 166.17 12.61 166.52 12.61 166.87 12.61 167.22 13.8 167.57 13.2 167.92 12.61 168.27 12.61 168.62 12.61 168.97 13.8 169.32 12.61 169.67 12.61 170.01 12.61 170.36 12.61 170.71 12.61 171.06 12.61 171.41 12.61 171.76 12.61 172.11 15.57 172.46 14.39 172.81 14.98 173.16 13.2 173.51 13.2 173.86 13.2 174.2 13.2 174.55 14.98 174.9 16.17 175.25 15.57 175.6 15.57 175.95 16.17 176.3 17.35 176.65 16.17 177 14.98 177.35 15.57 177.7 16.17 178.04 15.57 178.39 17.94 178.74 19.72 179.09 18.54 179.44 16.17 179.79 16.76 180.14 17.94 180.49 20.31 180.84 19.72 181.19 19.72 181.54 20.31 181.89 17.94 182.23 17.35 182.58 17.35 182.93 19.13 183.28 18.54 183.63 17.35 183.98 17.35 184.33 16.17 184.68 18.54 185.03 21.5 185.38 18.54 185.73 17.94 186.08 17.94 186.42 16.76 186.77 16.76 187.12 14.98 187.47 15.57 187.82 16.76 188.17 16.76 188.52 17.35 188.87 19.72 189.22 16.17 189.57 18.54 189.92 22.68 190.26 22.68 190.61 19.13 190.96 20.31 191.31 19.13 191.66 17.94 192.01 19.72 192.36 18.54 192.71 15.57 193.06 16.17 193.41 16.76 193.76 16.76 194.11 14.98 194.45 14.98 194.8 16.17 195.15 16.17 195.5 15.57 195.85 15.57 196.2 14.39"/>
      </g>
      <g stroke-width="0.3" fill="#000000" fill-opacity="0.000" class="geometry" stroke-dasharray="none" stroke="#E6F598" id="img-1930cdce-13">
        <path fill="none" d="M21.98,71.86 L 22.33 68.9 22.68 73.64 23.03 68.9 23.38 73.64 23.73 75.42 24.08 68.31 24.42 64.75 24.77 66.53 25.12 57.64 25.47 60.01 25.82 59.42 26.17 64.75 26.52 57.64 26.87 60.61 27.22 56.46 27.57 51.72 27.92 52.31 28.27 52.9 28.61 58.24 28.96 64.75 29.31 62.38 29.66 60.61 30.01 60.61 30.36 55.87 30.71 51.72 31.06 55.27 31.41 54.09 31.76 52.31 32.11 52.31 32.45 48.16 32.8 46.39 33.15 45.79 33.5 36.9 33.85 39.87 34.2 45.2 34.55 46.39 34.9 45.2 35.25 46.39 35.6 46.39 35.95 51.72 36.3 51.72 36.64 58.24 36.99 51.13 37.34 52.9 37.69 47.57 38.04 46.39 38.39 46.98 38.74 42.24 39.09 41.64 39.44 41.05 39.79 42.83 40.14 44.61 40.49 45.79 40.83 38.68 41.18 44.02 41.53 48.76 41.88 45.2 42.23 49.35 42.58 42.83 42.93 48.16 43.28 46.98 43.63 49.94 43.98 54.09 44.33 47.57 44.67 52.9 45.02 56.46 45.37 52.9 45.72 49.94 46.07 52.31 46.42 54.09 46.77 45.79 47.12 52.31 47.47 62.38 47.82 59.42 48.17 54.68 48.52 59.42 48.86 62.38 49.21 65.94 49.56 58.83 49.91 67.12 50.26 71.27 50.61 67.12 50.96 67.72 51.31 60.01 51.66 55.27 52.01 55.27 52.36 55.87 52.7 49.94 53.05 44.61 53.4 43.42 53.75 42.24 54.1 44.02 54.45 50.53 54.8 51.13 55.15 51.72 55.5 53.5 55.85 57.64 56.2 52.31 56.55 49.94 56.89 45.2 57.24 49.35 57.59 51.72 57.94 58.24 58.29 56.46 58.64 57.64 58.99 61.79 59.34 60.01 59.69 62.98 60.04 62.38 60.39 58.83 60.73 61.2 61.08 52.31 61.43 54.09 61.78 46.98 62.13 48.16 62.48 48.76 62.83 42.24 63.18 39.87 63.53 37.5 63.88 38.68 64.23 35.13 64.58 30.39 64.92 26.83 65.27 26.83 65.62 23.87 65.97 26.83 66.32 23.87 66.67 23.28 67.02 25.65 67.37 25.05 67.72 25.65 68.07 25.65 68.42 23.87 68.77 26.83 69.11 30.98 69.46 33.35 69.81 31.57 70.16 31.57 70.51 26.24 70.86 22.09 71.21 22.68 71.56 22.68 71.91 20.91 72.26 20.91 72.61 22.68 72.95 20.91 73.3 20.91 73.65 20.91 74 21.5 74.35 20.91 74.7 25.05 75.05 25.65 75.4 29.2 75.75 33.35 76.1 38.09 76.45 35.72 76.8 34.53 77.14 34.53 77.49 33.35 77.84 38.09 78.19 40.46 78.54 38.68 78.89 36.31 79.24 39.27 79.59 50.53 79.94 51.72 80.29 58.24 80.64 56.46 80.98 51.13 81.33 56.46 81.68 57.05 82.03 60.61 82.38 55.27 82.73 48.16 83.08 41.05 83.43 39.87 83.78 40.46 84.13 34.53 84.48 30.98 84.83 35.13 85.17 35.13 85.52 33.35 85.87 35.72 86.22 35.13 86.57 36.31 86.92 30.98 87.27 31.57 87.62 32.16 87.97 30.98 88.32 32.76 88.67 35.72 89.02 31.57 89.36 29.2 89.71 23.87 90.06 22.68 90.41 23.87 90.76 22.09 91.11 20.31 91.46 19.13 91.81 16.17 92.16 17.94 92.51 15.57 92.86 15.57 93.2 17.94 93.55 20.31 93.9 19.13 94.25 18.54 94.6 17.35 94.95 20.91 95.3 19.13 95.65 18.54 96 17.94 96.35 15.57 96.7 14.98 97.05 16.17 97.39 14.98 97.74 14.98 98.09 16.17 98.44 14.98 98.79 13.8 99.14 13.2 99.49 12.61 99.84 12.61 100.19 12.61 100.54 12.61 100.89 12.61 101.23 12.61 101.58 12.61 101.93 12.61 102.28 13.2 102.63 13.8 102.98 12.61 103.33 12.61 103.68 12.61 104.03 12.61 104.38 13.2 104.73 14.98 105.08 14.98 105.42 16.76 105.77 19.13 106.12 21.5 106.47 22.09 106.82 21.5 107.17 23.87 107.52 24.46 107.87 23.28 108.22 23.87 108.57 22.68 108.92 21.5 109.26 22.09 109.61 20.31 109.96 21.5 110.31 22.68 110.66 20.91 111.01 23.28 111.36 18.54 111.71 18.54 112.06 17.94 112.41 19.13 112.76 18.54 113.11 20.91 113.45 20.91 113.8 20.91 114.15 23.28 114.5 23.87 114.85 26.83 115.2 25.05 115.55 26.24 115.9 24.46 116.25 26.24 116.6 26.83 116.95 25.05 117.3 26.83 117.64 25.05 117.99 25.05 118.34 23.28 118.69 23.28 119.04 25.05 119.39 29.79 119.74 27.42 120.09 26.83 120.44 26.24 120.79 25.05 121.14 28.61 121.48 30.98 121.83 35.13 122.18 39.27 122.53 36.31 122.88 40.46 123.23 46.98 123.58 43.42 123.93 38.68 124.28 42.24 124.63 41.64 124.98 40.46 125.33 39.87 125.67 39.87 126.02 42.83 126.37 42.83 126.72 45.79 127.07 42.83 127.42 43.42 127.77 39.87 128.12 38.09 128.47 37.5 128.82 36.9 129.17 37.5 129.51 42.24 129.86 45.79 130.21 48.76 130.56 46.98 130.91 42.83 131.26 46.39 131.61 52.9 131.96 47.57 132.31 48.16 132.66 48.76 133.01 48.76 133.36 50.53 133.7 49.35 134.05 53.5 134.4 60.01 134.75 62.98 135.1 66.53 135.45 66.53 135.8 62.98 136.15 61.2 136.5 60.61 136.85 54.68 137.2 55.27 137.55 56.46 137.89 57.64 138.24 60.61 138.59 57.64 138.94 60.01 139.29 60.01 139.64 59.42 139.99 60.01 140.34 58.24 140.69 52.31 141.04 47.57 141.39 51.72 141.73 54.09 142.08 49.94 142.43 45.2 142.78 46.98 143.13 49.35 143.48 48.16 143.83 48.16 144.18 50.53 144.53 51.72 144.88 51.72 145.23 57.05 145.58 54.68 145.92 54.09 146.27 56.46 146.62 56.46 146.97 57.05 147.32 55.27 147.67 60.01 148.02 52.31 148.37 48.76 148.72 51.13 149.07 54.68 149.42 55.87 149.76 54.09 150.11 56.46 150.46 55.27 150.81 58.24 151.16 49.35 151.51 52.9 151.86 50.53 152.21 52.31 152.56 49.35 152.91 55.87 153.26 55.27 153.61 62.98 153.95 65.94 154.3 60.61 154.65 64.75 155 64.16 155.35 68.9 155.7 69.49 156.05 67.12 156.4 67.12 156.75 73.64 157.1 67.12 157.45 60.01 157.79 65.94 158.14 65.35 158.49 61.2 158.84 58.83 159.19 54.68 159.54 48.16 159.89 49.94 160.24 50.53 160.59 49.94 160.94 42.83 161.29 40.46 161.64 38.68 161.98 39.87 162.33 30.39 162.68 26.83 163.03 30.39 163.38 32.76 163.73 34.53 164.08 34.53 164.43 36.31 164.78 35.72 165.13 38.68 165.48 38.09 165.83 33.35 166.17 35.13 166.52 31.57 166.87 29.2 167.22 29.79 167.57 32.16 167.92 37.5 168.27 37.5 168.62 39.87 168.97 38.68 169.32 39.27 169.67 39.87 170.01 43.42 170.36 46.39 170.71 47.57 171.06 47.57 171.41 47.57 171.76 44.02 172.11 42.24 172.46 36.9 172.81 32.16 173.16 32.76 173.51 29.2 173.86 24.46 174.2 24.46 174.55 27.42 174.9 29.2 175.25 31.57 175.6 36.9 175.95 39.27 176.3 39.27 176.65 46.39 177 49.94 177.35 55.87 177.7 64.75 178.04 62.38 178.39 56.46 178.74 57.05 179.09 59.42 179.44 56.46 179.79 54.09 180.14 57.05 180.49 58.83 180.84 61.2 181.19 52.31 181.54 50.53 181.89 47.57 182.23 46.98 182.58 42.83 182.93 44.02 183.28 39.27 183.63 33.94 183.98 25.05 184.33 24.46 184.68 23.28 185.03 22.68 185.38 20.31 185.73 22.68 186.08 22.68 186.42 23.87 186.77 25.65 187.12 29.79 187.47 32.76 187.82 32.76 188.17 29.2 188.52 29.79 188.87 27.42 189.22 29.79 189.57 29.79 189.92 26.83 190.26 24.46 190.61 21.5 190.96 19.72 191.31 20.91 191.66 19.13 192.01 16.17 192.36 16.17 192.71 14.39 193.06 13.8 193.41 13.2 193.76 13.8 194.11 14.39 194.45 14.39 194.8 14.39 195.15 14.98 195.5 15.57 195.85 15.57 196.2 16.17"/>
      </g>
      <g stroke-width="0.3" fill="#000000" fill-opacity="0.000" class="geometry" stroke-dasharray="none" stroke="#FFFFBF" id="img-1930cdce-14">
        <path fill="none" d="M21.98,71.86 L 22.33 72.46 22.68 76.01 23.03 78.97 23.38 72.46 23.73 73.64 24.08 73.64 24.42 72.46 24.77 68.9 25.12 61.79 25.47 54.09 25.82 49.94 26.17 52.31 26.52 51.13 26.87 47.57 27.22 46.39 27.57 48.16 27.92 48.16 28.27 48.76 28.61 44.02 28.96 51.13 29.31 52.9 29.66 43.42 30.01 42.83 30.36 38.09 30.71 35.72 31.06 43.42 31.41 47.57 31.76 47.57 32.11 44.61 32.45 54.68 32.8 57.05 33.15 46.98 33.5 48.16 33.85 51.72 34.2 47.57 34.55 46.39 34.9 45.79 35.25 49.35 35.6 47.57 35.95 47.57 36.3 50.53 36.64 49.94 36.99 52.9 37.34 55.27 37.69 61.79 38.04 57.05 38.39 57.64 38.74 62.38 39.09 54.09 39.44 51.13 39.79 45.79 40.14 52.31 40.49 52.9 40.83 52.31 41.18 52.31 41.53 51.72 41.88 54.68 42.23 49.94 42.58 43.42 42.93 38.09 43.28 35.13 43.63 39.87 43.98 38.68 44.33 38.68 44.67 41.64 45.02 38.68 45.37 38.09 45.72 34.53 46.07 31.57 46.42 35.13 46.77 38.68 47.12 44.61 47.47 36.9 47.82 40.46 48.17 40.46 48.52 40.46 48.86 46.39 49.21 49.35 49.56 54.68 49.91 54.09 50.26 57.64 50.61 54.68 50.96 45.2 51.31 46.98 51.66 50.53 52.01 55.27 52.36 55.27 52.7 61.2 53.05 56.46 53.4 58.83 53.75 60.01 54.1 59.42 54.45 59.42 54.8 60.61 55.15 63.57 55.5 60.01 55.85 57.64 56.2 59.42 56.55 61.79 56.89 57.64 57.24 60.01 57.59 55.87 57.94 62.38 58.29 71.27 58.64 68.9 58.99 70.68 59.34 76.6 59.69 73.64 60.04 78.97 60.39 77.2 60.73 68.31 61.08 68.31 61.43 64.75 61.78 73.64 62.13 76.01 62.48 78.97 62.83 76.6 63.18 76.6 63.53 77.2 63.88 71.86 64.23 70.68 64.58 71.27 64.92 67.72 65.27 67.72 65.62 68.31 65.97 69.49 66.32 77.2 66.67 80.16 67.02 86.08 67.37 91.42 67.72 89.64 68.07 87.27 68.42 89.05 68.77 78.97 69.11 76.6 69.46 81.34 69.81 86.08 70.16 89.64 70.51 91.42 70.86 89.05 71.21 89.05 71.56 90.23 71.91 91.42 72.26 95.56 72.61 94.38 72.95 92.6 73.3 90.82 73.65 81.34 74 78.38 74.35 76.6 74.7 81.34 75.05 76.01 75.4 81.94 75.75 86.08 76.1 81.94 76.45 89.05 76.8 84.9 77.14 77.2 77.49 83.12 77.84 83.71 78.19 89.05 78.54 93.79 78.89 96.16 79.24 99.71 79.59 94.97 79.94 96.75 80.29 99.71 80.64 105.64 80.98 104.45 81.33 111.56 81.68 112.15 82.03 109.19 82.38 108.01 82.73 112.75 83.08 112.75 83.43 113.93 83.78 119.26 84.13 119.26 84.48 119.26 84.83 117.49 85.17 118.08 85.52 118.08 85.87 122.82 86.22 121.63 86.57 122.23 86.92 125.78 87.27 125.78 87.62 128.15 87.97 128.74 88.32 128.15 88.67 127.56 89.02 128.74 89.36 126.97 89.71 127.56 90.06 126.37 90.41 124 90.76 123.41 91.11 122.82 91.46 125.19 91.81 126.37 92.16 124.6 92.51 126.97 92.86 125.78 93.2 123.41 93.55 125.19 93.9 125.78 94.25 125.78 94.6 128.15 94.95 126.97 95.3 125.19 95.65 124 96 120.45 96.35 119.26 96.7 118.67 97.05 118.08 97.39 117.49 97.74 118.67 98.09 115.12 98.44 110.38 98.79 108.6 99.14 103.86 99.49 102.67 99.84 101.49 100.19 102.67 100.54 105.64 100.89 102.08 101.23 99.71 101.58 97.93 101.93 101.49 102.28 106.82 102.63 111.56 102.98 114.52 103.33 110.38 103.68 109.19 104.03 110.38 104.38 111.56 104.73 112.75 105.08 118.08 105.42 116.3 105.77 115.12 106.12 116.89 106.47 122.82 106.82 122.82 107.17 120.45 107.52 122.23 107.87 121.63 108.22 120.45 108.57 116.89 108.92 113.93 109.26 115.71 109.61 116.89 109.96 112.75 110.31 112.15 110.66 113.93 111.01 119.26 111.36 121.04 111.71 119.86 112.06 124.6 112.41 124 112.76 123.41 113.11 125.78 113.45 128.15 113.8 129.34 114.15 125.19 114.5 123.41 114.85 121.04 115.2 121.63 115.55 121.63 115.9 125.78 116.25 122.23 116.6 122.82 116.95 121.63 117.3 120.45 117.64 121.04 117.99 117.49 118.34 119.86 118.69 121.04 119.04 121.63 119.39 118.67 119.74 115.12 120.09 112.75 120.44 114.52 120.79 109.78 121.14 103.86 121.48 108.6 121.83 117.49 122.18 119.86 122.53 121.63 122.88 118.08 123.23 116.89 123.58 119.86 123.93 119.26 124.28 114.52 124.63 113.34 124.98 116.89 125.33 115.12 125.67 118.08 126.02 118.08 126.37 119.86 126.72 119.26 127.07 119.26 127.42 121.04 127.77 115.71 128.12 116.89 128.47 113.93 128.82 118.08 129.17 113.34 129.51 109.19 129.86 113.34 130.21 106.82 130.56 103.27 130.91 100.9 131.26 98.53 131.61 102.67 131.96 106.23 132.31 103.86 132.66 106.23 133.01 104.45 133.36 97.93 133.7 96.75 134.05 95.56 134.4 97.34 134.75 102.08 135.1 97.34 135.45 97.34 135.8 96.75 136.15 96.75 136.5 91.42 136.85 93.79 137.2 96.75 137.55 97.34 137.89 95.56 138.24 93.19 138.59 94.97 138.94 95.56 139.29 99.71 139.64 105.04 139.99 111.56 140.34 112.75 140.69 113.34 141.04 110.97 141.39 116.3 141.73 115.12 142.08 112.15 142.43 109.78 142.78 108.01 143.13 105.04 143.48 102.67 143.83 103.27 144.18 103.27 144.53 105.64 144.88 105.04 145.23 104.45 145.58 106.23 145.92 97.93 146.27 100.9 146.62 104.45 146.97 104.45 147.32 99.12 147.67 98.53 148.02 102.67 148.37 93.79 148.72 87.27 149.07 83.71 149.42 78.97 149.76 75.42 150.11 80.16 150.46 80.16 150.81 86.08 151.16 86.68 151.51 82.53 151.86 85.49 152.21 82.53 152.56 78.38 152.91 77.2 153.26 77.79 153.61 80.16 153.95 79.57 154.3 79.57 154.65 71.86 155 60.01 155.35 67.12 155.7 60.61 156.05 62.38 156.4 62.38 156.75 61.79 157.1 57.64 157.45 54.09 157.79 46.98 158.14 47.57 158.49 49.94 158.84 46.39 159.19 46.39 159.54 44.02 159.89 45.79 160.24 47.57 160.59 49.35 160.94 50.53 161.29 55.87 161.64 47.57 161.98 47.57 162.33 55.87 162.68 55.27 163.03 62.38 163.38 61.79 163.73 65.35 164.08 66.53 164.43 70.09 164.78 73.64 165.13 76.6 165.48 78.97 165.83 76.6 166.17 71.86 166.52 70.09 166.87 72.46 167.22 74.83 167.57 74.23 167.92 80.75 168.27 84.9 168.62 86.08 168.97 91.42 169.32 90.82 169.67 89.64 170.01 98.53 170.36 100.9 170.71 97.93 171.06 93.19 171.41 92.6 171.76 96.75 172.11 100.9 172.46 92.6 172.81 86.08 173.16 89.64 173.51 85.49 173.86 77.79 174.2 73.05 174.55 68.31 174.9 61.79 175.25 68.31 175.6 66.53 175.95 63.57 176.3 71.86 176.65 77.2 177 67.12 177.35 67.12 177.7 64.75 178.04 64.16 178.39 61.2 178.74 57.64 179.09 62.98 179.44 65.35 179.79 69.49 180.14 67.72 180.49 76.01 180.84 71.27 181.19 74.83 181.54 73.05 181.89 74.23 182.23 68.9 182.58 60.61 182.93 63.57 183.28 66.53 183.63 64.16 183.98 57.64 184.33 58.24 184.68 61.79 185.03 65.94 185.38 67.72 185.73 62.98 186.08 65.94 186.42 66.53 186.77 63.57 187.12 63.57 187.47 72.46 187.82 74.83 188.17 64.16 188.52 67.72 188.87 67.12 189.22 59.42 189.57 58.24 189.92 61.2 190.26 60.61 190.61 63.57 190.96 64.75 191.31 64.16 191.66 64.75 192.01 61.2 192.36 46.98 192.71 45.79 193.06 46.98 193.41 48.76 193.76 46.98 194.11 44.61 194.45 44.02 194.8 42.83 195.15 42.83 195.5 40.46 195.85 38.09 196.2 30.98"/>
      </g>
      <g stroke-width="0.3" fill="#000000" fill-opacity="0.000" class="geometry" stroke-dasharray="none" stroke="#FEE08B" id="img-1930cdce-15">
        <path fill="none" d="M21.98,71.86 L 22.33 72.46 22.68 71.27 23.03 70.68 23.38 65.35 23.73 68.31 24.08 70.09 24.42 66.53 24.77 68.31 25.12 70.68 25.47 70.09 25.82 78.38 26.17 76.01 26.52 78.97 26.87 77.2 27.22 71.86 27.57 69.49 27.92 76.6 28.27 80.75 28.61 79.57 28.96 77.79 29.31 82.53 29.66 83.12 30.01 86.08 30.36 93.79 30.71 85.49 31.06 83.71 31.41 83.71 31.76 82.53 32.11 85.49 32.45 85.49 32.8 90.82 33.15 90.82 33.5 96.75 33.85 94.97 34.2 93.19 34.55 95.56 34.9 91.42 35.25 96.16 35.6 97.93 35.95 93.79 36.3 90.82 36.64 93.19 36.99 93.79 37.34 94.97 37.69 96.75 38.04 99.12 38.39 102.67 38.74 97.34 39.09 99.12 39.44 103.86 39.79 100.9 40.14 105.64 40.49 111.56 40.83 112.15 41.18 116.89 41.53 120.45 41.88 118.67 42.23 121.04 42.58 125.19 42.93 122.23 43.28 120.45 43.63 121.63 43.98 125.19 44.33 124.6 44.67 125.19 45.02 126.97 45.37 126.97 45.72 128.15 46.07 128.15 46.42 129.93 46.77 129.93 47.12 128.15 47.47 127.56 47.82 125.78 48.17 125.19 48.52 123.41 48.86 124 49.21 123.41 49.56 121.63 49.91 124.6 50.26 123.41 50.61 124.6 50.96 125.78 51.31 126.97 51.66 125.19 52.01 121.04 52.36 121.63 52.7 124 53.05 124 53.4 120.45 53.75 122.23 54.1 117.49 54.45 114.52 54.8 113.34 55.15 113.34 55.5 114.52 55.85 116.3 56.2 115.71 56.55 112.75 56.89 119.26 57.24 123.41 57.59 125.19 57.94 125.19 58.29 127.56 58.64 128.74 58.99 129.34 59.34 128.15 59.69 126.97 60.04 125.78 60.39 124 60.73 121.04 61.08 120.45 61.43 118.67 61.78 118.08 62.13 121.63 62.48 116.89 62.83 121.63 63.18 119.86 63.53 122.23 63.88 124 64.23 126.37 64.58 129.34 64.92 130.52 65.27 130.52 65.62 130.52 65.97 129.34 66.32 131.11 66.67 130.52 67.02 130.52 67.37 131.11 67.72 131.11 68.07 131.11 68.42 131.11 68.77 131.11 69.11 131.11 69.46 131.11 69.81 131.11 70.16 131.11 70.51 131.11 70.86 131.11 71.21 131.11 71.56 131.11 71.91 131.11 72.26 131.11 72.61 131.11 72.95 129.93 73.3 128.15 73.65 128.74 74 130.52 74.35 129.34 74.7 129.93 75.05 130.52 75.4 128.74 75.75 128.74 76.1 128.15 76.45 128.74 76.8 129.93 77.14 129.93 77.49 129.93 77.84 128.74 78.19 129.34 78.54 128.74 78.89 128.74 79.24 126.97 79.59 125.78 79.94 126.97 80.29 126.97 80.64 128.74 80.98 127.56 81.33 126.37 81.68 125.78 82.03 128.15 82.38 128.15 82.73 129.34 83.08 129.93 83.43 128.74 83.78 125.78 84.13 118.67 84.48 115.71 84.83 115.12 85.17 115.71 85.52 120.45 85.87 118.08 86.22 118.08 86.57 120.45 86.92 116.3 87.27 117.49 87.62 119.86 87.97 121.63 88.32 122.82 88.67 124.6 89.02 124 89.36 124 89.71 124.6 90.06 126.37 90.41 125.78 90.76 124 91.11 122.82 91.46 121.04 91.81 120.45 92.16 117.49 92.51 119.86 92.86 120.45 93.2 118.67 93.55 117.49 93.9 118.67 94.25 118.08 94.6 112.75 94.95 116.3 95.3 118.08 95.65 116.3 96 111.56 96.35 112.75 96.7 113.93 97.05 113.93 97.39 116.89 97.74 107.41 98.09 107.41 98.44 110.97 98.79 109.19 99.14 110.38 99.49 107.41 99.84 107.41 100.19 108.6 100.54 108.6 100.89 112.15 101.23 109.78 101.58 110.38 101.93 113.34 102.28 108.01 102.63 113.93 102.98 118.67 103.33 121.63 103.68 123.41 104.03 128.74 104.38 128.74 104.73 128.15 105.08 128.15 105.42 128.15 105.77 129.93 106.12 130.52 106.47 129.34 106.82 128.15 107.17 128.74 107.52 128.74 107.87 129.34 108.22 124 108.57 125.78 108.92 127.56 109.26 129.93 109.61 130.52 109.96 129.34 110.31 130.52 110.66 129.34 111.01 128.74 111.36 128.15 111.71 129.34 112.06 129.34 112.41 125.78 112.76 128.74 113.11 130.52 113.45 130.52 113.8 131.11 114.15 131.11 114.5 131.11 114.85 131.11 115.2 131.11 115.55 130.52 115.9 131.11 116.25 131.11 116.6 131.11 116.95 131.11 117.3 130.52 117.64 131.11 117.99 131.11 118.34 131.11 118.69 130.52 119.04 129.93 119.39 128.74 119.74 129.34 120.09 129.34 120.44 129.93 120.79 131.11 121.14 131.11 121.48 131.11 121.83 131.11 122.18 131.11 122.53 130.52 122.88 131.11 123.23 131.11 123.58 131.11 123.93 131.11 124.28 131.11 124.63 131.11 124.98 131.11 125.33 131.11 125.67 131.11 126.02 131.11 126.37 131.11 126.72 130.52 127.07 130.52 127.42 130.52 127.77 129.93 128.12 129.93 128.47 131.11 128.82 131.11 129.17 131.11 129.51 131.11 129.86 131.11 130.21 131.11 130.56 131.11 130.91 131.11 131.26 130.52 131.61 130.52 131.96 131.11 132.31 131.11 132.66 131.11 133.01 131.11 133.36 131.11 133.7 131.11 134.05 131.11 134.4 131.11 134.75 131.11 135.1 131.11 135.45 131.11 135.8 131.11 136.15 131.11 136.5 131.11 136.85 131.11 137.2 131.11 137.55 130.52 137.89 131.11 138.24 130.52 138.59 129.34 138.94 127.56 139.29 128.15 139.64 126.97 139.99 126.37 140.34 126.97 140.69 126.37 141.04 126.37 141.39 125.19 141.73 124 142.08 124 142.43 124.6 142.78 124.6 143.13 124.6 143.48 125.19 143.83 127.56 144.18 128.15 144.53 128.15 144.88 128.74 145.23 126.97 145.58 126.97 145.92 126.37 146.27 124 146.62 125.78 146.97 127.56 147.32 128.74 147.67 128.74 148.02 126.97 148.37 125.78 148.72 124 149.07 123.41 149.42 119.26 149.76 119.86 150.11 117.49 150.46 118.08 150.81 116.89 151.16 116.89 151.51 109.78 151.86 108.6 152.21 108.6 152.56 108.6 152.91 109.78 153.26 109.19 153.61 108.01 153.95 116.3 154.3 118.08 154.65 115.71 155 115.71 155.35 114.52 155.7 116.89 156.05 115.12 156.4 116.3 156.75 117.49 157.1 115.71 157.45 118.08 157.79 116.3 158.14 118.08 158.49 118.67 158.84 117.49 159.19 118.08 159.54 117.49 159.89 114.52 160.24 113.34 160.59 112.75 160.94 112.15 161.29 104.45 161.64 102.08 161.98 104.45 162.33 103.27 162.68 105.64 163.03 107.41 163.38 108.01 163.73 109.19 164.08 111.56 164.43 110.97 164.78 106.23 165.13 106.23 165.48 106.23 165.83 106.82 166.17 102.08 166.52 106.82 166.87 105.64 167.22 102.08 167.57 103.27 167.92 105.04 168.27 103.86 168.62 105.64 168.97 108.01 169.32 110.97 169.67 113.34 170.01 105.04 170.36 109.19 170.71 108.6 171.06 104.45 171.41 105.64 171.76 101.49 172.11 96.75 172.46 102.67 172.81 102.67 173.16 102.08 173.51 103.27 173.86 106.23 174.2 109.78 174.55 112.75 174.9 115.71 175.25 118.08 175.6 116.3 175.95 120.45 176.3 114.52 176.65 117.49 177 117.49 177.35 118.08 177.7 120.45 178.04 121.63 178.39 120.45 178.74 119.86 179.09 117.49 179.44 113.34 179.79 109.19 180.14 113.93 180.49 105.64 180.84 105.64 181.19 101.49 181.54 102.08 181.89 100.9 182.23 99.12 182.58 95.56 182.93 94.97 183.28 97.93 183.63 111.56 183.98 108.6 184.33 105.64 184.68 102.67 185.03 100.3 185.38 100.3 185.73 95.56 186.08 93.19 186.42 96.75 186.77 97.93 187.12 83.71 187.47 87.86 187.82 84.31 188.17 78.97 188.52 74.83 188.87 76.6 189.22 77.2 189.57 78.38 189.92 76.6 190.26 70.09 190.61 67.72 190.96 68.9 191.31 70.09 191.66 65.35 192.01 73.05 192.36 74.23 192.71 78.38 193.06 72.46 193.41 76.6 193.76 82.53 194.11 83.12 194.45 83.12 194.8 69.49 195.15 77.79 195.5 74.23 195.85 70.68 196.2 74.83"/>
      </g>
      <g stroke-width="0.3" fill="#000000" fill-opacity="0.000" class="geometry" stroke-dasharray="none" stroke="#FDAE61" id="img-1930cdce-16">
        <path fill="none" d="M21.98,71.86 L 22.33 75.42 22.68 75.42 23.03 80.16 23.38 81.34 23.73 78.97 24.08 77.2 24.42 79.57 24.77 78.38 25.12 77.79 25.47 77.2 25.82 80.16 26.17 86.68 26.52 87.27 26.87 86.08 27.22 88.45 27.57 85.49 27.92 87.27 28.27 85.49 28.61 83.71 28.96 84.9 29.31 87.86 29.66 86.68 30.01 81.94 30.36 83.12 30.71 80.16 31.06 81.34 31.41 78.97 31.76 76.6 32.11 67.72 32.45 70.68 32.8 73.05 33.15 74.83 33.5 80.16 33.85 80.75 34.2 78.38 34.55 79.57 34.9 77.79 35.25 76.01 35.6 74.23 35.95 74.83 36.3 77.2 36.64 75.42 36.99 77.2 37.34 76.01 37.69 72.46 38.04 77.2 38.39 72.46 38.74 67.12 39.09 70.68 39.44 71.27 39.79 70.09 40.14 77.2 40.49 72.46 40.83 73.05 41.18 79.57 41.53 80.16 41.88 81.34 42.23 73.05 42.58 76.01 42.93 82.53 43.28 83.12 43.63 87.27 43.98 90.23 44.33 96.16 44.67 97.34 45.02 91.42 45.37 84.9 45.72 79.57 46.07 78.38 46.42 79.57 46.77 74.23 47.12 71.27 47.47 73.05 47.82 74.83 48.17 72.46 48.52 77.2 48.86 76.01 49.21 78.38 49.56 75.42 49.91 76.6 50.26 71.86 50.61 64.16 50.96 64.75 51.31 64.16 51.66 64.16 52.01 64.75 52.36 65.35 52.7 63.57 53.05 58.24 53.4 61.79 53.75 57.64 54.1 51.13 54.45 55.27 54.8 65.94 55.15 63.57 55.5 67.72 55.85 65.94 56.2 61.79 56.55 62.38 56.89 60.01 57.24 58.24 57.59 65.35 57.94 65.94 58.29 76.01 58.64 82.53 58.99 87.27 59.34 89.05 59.69 84.9 60.04 88.45 60.39 81.94 60.73 86.08 61.08 92.6 61.43 96.75 61.78 97.34 62.13 99.12 62.48 100.9 62.83 98.53 63.18 98.53 63.53 100.9 63.88 96.16 64.23 92.6 64.58 93.79 64.92 90.82 65.27 87.27 65.62 87.86 65.97 92.01 66.32 93.19 66.67 92.01 67.02 97.34 67.37 93.19 67.72 93.79 68.07 94.97 68.42 103.86 68.77 106.23 69.11 109.19 69.46 112.15 69.81 112.75 70.16 112.75 70.51 110.97 70.86 110.97 71.21 111.56 71.56 109.19 71.91 113.34 72.26 105.64 72.61 110.38 72.95 115.71 73.3 117.49 73.65 118.67 74 118.67 74.35 119.86 74.7 119.26 75.05 120.45 75.4 119.26 75.75 117.49 76.1 113.93 76.45 112.75 76.8 112.15 77.14 110.38 77.49 115.12 77.84 119.26 78.19 119.26 78.54 122.82 78.89 123.41 79.24 120.45 79.59 121.04 79.94 122.23 80.29 119.26 80.64 118.67 80.98 116.89 81.33 119.86 81.68 119.26 82.03 115.71 82.38 113.34 82.73 115.12 83.08 116.3 83.43 115.12 83.78 121.04 84.13 118.08 84.48 119.86 84.83 121.63 85.17 116.3 85.52 118.67 85.87 119.26 86.22 120.45 86.57 118.08 86.92 118.08 87.27 115.71 87.62 116.3 87.97 115.71 88.32 114.52 88.67 112.75 89.02 115.71 89.36 119.86 89.71 118.67 90.06 115.71 90.41 115.71 90.76 114.52 91.11 118.67 91.46 118.67 91.81 120.45 92.16 119.86 92.51 120.45 92.86 124.6 93.2 125.19 93.55 122.23 93.9 121.04 94.25 121.63 94.6 122.23 94.95 121.04 95.3 122.82 95.65 124 96 126.97 96.35 128.15 96.7 130.52 97.05 131.11 97.39 131.11 97.74 131.11 98.09 131.11 98.44 131.11 98.79 131.11 99.14 131.11 99.49 131.11 99.84 131.11 100.19 131.11 100.54 131.11 100.89 129.93 101.23 131.11 101.58 131.11 101.93 131.11 102.28 131.11 102.63 131.11 102.98 131.11 103.33 131.11 103.68 131.11 104.03 131.11 104.38 131.11 104.73 131.11 105.08 131.11 105.42 131.11 105.77 131.11 106.12 131.11 106.47 131.11 106.82 131.11 107.17 130.52 107.52 131.11 107.87 131.11 108.22 131.11 108.57 131.11 108.92 131.11 109.26 131.11 109.61 131.11 109.96 131.11 110.31 131.11 110.66 131.11 111.01 131.11 111.36 131.11 111.71 131.11 112.06 131.11 112.41 131.11 112.76 131.11 113.11 131.11 113.45 131.11 113.8 130.52 114.15 130.52 114.5 129.93 114.85 129.34 115.2 127.56 115.55 128.15 115.9 129.34 116.25 127.56 116.6 128.74 116.95 129.34 117.3 129.34 117.64 129.34 117.99 129.93 118.34 130.52 118.69 130.52 119.04 129.34 119.39 129.34 119.74 129.93 120.09 130.52 120.44 129.93 120.79 129.34 121.14 129.34 121.48 128.15 121.83 129.34 122.18 128.74 122.53 130.52 122.88 130.52 123.23 129.34 123.58 128.74 123.93 130.52 124.28 129.34 124.63 130.52 124.98 131.11 125.33 131.11 125.67 131.11 126.02 131.11 126.37 131.11 126.72 131.11 127.07 131.11 127.42 131.11 127.77 131.11 128.12 131.11 128.47 131.11 128.82 131.11 129.17 131.11 129.51 129.93 129.86 131.11 130.21 131.11 130.56 131.11 130.91 131.11 131.26 131.11 131.61 131.11 131.96 131.11 132.31 131.11 132.66 129.93 133.01 130.52 133.36 131.11 133.7 131.11 134.05 131.11 134.4 131.11 134.75 131.11 135.1 131.11 135.45 131.11 135.8 129.93 136.15 129.34 136.5 128.74 136.85 129.93 137.2 129.93 137.55 130.52 137.89 131.11 138.24 129.93 138.59 130.52 138.94 131.11 139.29 131.11 139.64 131.11 139.99 131.11 140.34 131.11 140.69 131.11 141.04 131.11 141.39 129.93 141.73 128.15 142.08 128.15 142.43 128.15 142.78 128.15 143.13 129.34 143.48 129.34 143.83 129.93 144.18 129.93 144.53 129.34 144.88 130.52 145.23 129.93 145.58 128.15 145.92 126.37 146.27 128.15 146.62 130.52 146.97 129.34 147.32 129.34 147.67 130.52 148.02 130.52 148.37 129.93 148.72 128.74 149.07 129.34 149.42 129.93 149.76 130.52 150.11 131.11 150.46 131.11 150.81 131.11 151.16 131.11 151.51 131.11 151.86 131.11 152.21 131.11 152.56 131.11 152.91 131.11 153.26 131.11 153.61 131.11 153.95 131.11 154.3 131.11 154.65 129.93 155 129.93 155.35 130.52 155.7 130.52 156.05 131.11 156.4 131.11 156.75 129.93 157.1 129.93 157.45 130.52 157.79 129.34 158.14 128.15 158.49 128.74 158.84 128.15 159.19 127.56 159.54 125.19 159.89 123.41 160.24 121.63 160.59 121.63 160.94 121.04 161.29 124 161.64 125.78 161.98 123.41 162.33 128.15 162.68 128.74 163.03 127.56 163.38 126.97 163.73 124 164.08 124 164.43 125.19 164.78 125.19 165.13 126.37 165.48 125.78 165.83 126.37 166.17 122.23 166.52 122.82 166.87 124 167.22 124.6 167.57 126.37 167.92 127.56 168.27 126.37 168.62 125.78 168.97 127.56 169.32 128.74 169.67 129.34 170.01 128.15 170.36 128.15 170.71 128.74 171.06 128.74 171.41 129.93 171.76 130.52 172.11 130.52 172.46 130.52 172.81 129.93 173.16 130.52 173.51 130.52 173.86 129.93 174.2 130.52 174.55 131.11 174.9 131.11 175.25 131.11 175.6 128.74 175.95 126.97 176.3 128.15 176.65 125.78 177 122.23 177.35 122.82 177.7 124 178.04 124 178.39 124.6 178.74 125.78 179.09 128.74 179.44 127.56 179.79 126.37 180.14 126.97 180.49 122.82 180.84 122.23 181.19 122.82 181.54 122.82 181.89 124 182.23 124.6 182.58 127.56 182.93 129.34 183.28 128.15 183.63 128.74 183.98 129.34 184.33 128.74 184.68 129.93 185.03 130.52 185.38 130.52 185.73 131.11 186.08 131.11 186.42 129.93 186.77 127.56 187.12 126.37 187.47 124.6 187.82 122.82 188.17 123.41 188.52 122.82 188.87 121.63 189.22 122.23 189.57 125.19 189.92 122.82 190.26 125.78 190.61 125.78 190.96 122.23 191.31 125.19 191.66 125.19 192.01 124.6 192.36 124.6 192.71 124.6 193.06 125.19 193.41 124 193.76 123.41 194.11 119.26 194.45 118.08 194.8 120.45 195.15 116.3 195.5 113.34 195.85 115.12 196.2 113.34"/>
      </g>
      <g stroke-width="0.3" fill="#000000" fill-opacity="0.000" class="geometry" stroke-dasharray="none" stroke="#F46D43" id="img-1930cdce-17">
        <path fill="none" d="M21.98,71.86 L 22.33 73.05 22.68 74.23 23.03 74.23 23.38 76.01 23.73 72.46 24.08 68.31 24.42 68.9 24.77 75.42 25.12 69.49 25.47 69.49 25.82 65.35 26.17 76.6 26.52 79.57 26.87 74.23 27.22 71.86 27.57 67.12 27.92 60.01 28.27 57.64 28.61 54.09 28.96 45.2 29.31 48.16 29.66 47.57 30.01 46.98 30.36 45.79 30.71 43.42 31.06 42.83 31.41 45.79 31.76 50.53 32.11 51.72 32.45 55.27 32.8 59.42 33.15 65.94 33.5 70.68 33.85 70.68 34.2 68.31 34.55 73.64 34.9 77.2 35.25 69.49 35.6 72.46 35.95 67.12 36.3 66.53 36.64 71.27 36.99 69.49 37.34 72.46 37.69 79.57 38.04 83.71 38.39 78.97 38.74 74.83 39.09 77.79 39.44 80.75 39.79 89.64 40.14 89.64 40.49 85.49 40.83 87.27 41.18 85.49 41.53 88.45 41.88 96.75 42.23 96.16 42.58 94.38 42.93 94.38 43.28 95.56 43.63 88.45 43.98 89.05 44.33 93.79 44.67 88.45 45.02 86.68 45.37 92.6 45.72 91.42 46.07 92.01 46.42 92.01 46.77 97.93 47.12 98.53 47.47 102.08 47.82 102.08 48.17 99.12 48.52 106.23 48.86 105.64 49.21 106.82 49.56 103.27 49.91 103.27 50.26 99.12 50.61 96.75 50.96 103.86 51.31 100.9 51.66 94.38 52.01 93.79 52.36 96.75 52.7 100.3 53.05 96.16 53.4 97.34 53.75 102.08 54.1 101.49 54.45 104.45 54.8 103.27 55.15 103.86 55.5 107.41 55.85 109.78 56.2 115.71 56.55 115.71 56.89 118.67 57.24 122.23 57.59 119.86 57.94 122.82 58.29 125.78 58.64 125.19 58.99 125.19 59.34 126.37 59.69 125.78 60.04 127.56 60.39 128.74 60.73 129.34 61.08 128.15 61.43 127.56 61.78 128.15 62.13 126.37 62.48 126.97 62.83 126.37 63.18 124.6 63.53 124 63.88 123.41 64.23 125.78 64.58 124.6 64.92 127.56 65.27 128.15 65.62 128.74 65.97 129.34 66.32 127.56 66.67 128.15 67.02 128.15 67.37 129.93 67.72 129.34 68.07 129.93 68.42 129.93 68.77 129.93 69.11 131.11 69.46 131.11 69.81 131.11 70.16 131.11 70.51 131.11 70.86 131.11 71.21 131.11 71.56 131.11 71.91 131.11 72.26 131.11 72.61 131.11 72.95 131.11 73.3 131.11 73.65 131.11 74 131.11 74.35 131.11 74.7 131.11 75.05 131.11 75.4 131.11 75.75 131.11 76.1 131.11 76.45 130.52 76.8 130.52 77.14 130.52 77.49 129.93 77.84 129.34 78.19 128.74 78.54 127.56 78.89 128.74 79.24 130.52 79.59 131.11 79.94 131.11 80.29 131.11 80.64 131.11 80.98 131.11 81.33 131.11 81.68 131.11 82.03 131.11 82.38 131.11 82.73 131.11 83.08 131.11 83.43 131.11 83.78 131.11 84.13 131.11 84.48 131.11 84.83 131.11 85.17 131.11 85.52 131.11 85.87 131.11 86.22 131.11 86.57 131.11 86.92 131.11 87.27 131.11 87.62 131.11 87.97 130.52 88.32 131.11 88.67 131.11 89.02 131.11 89.36 131.11 89.71 131.11 90.06 131.11 90.41 131.11 90.76 130.52 91.11 131.11 91.46 131.11 91.81 131.11 92.16 131.11 92.51 129.93 92.86 128.74 93.2 125.19 93.55 124 93.9 125.78 94.25 124.6 94.6 121.63 94.95 124.6 95.3 123.41 95.65 122.23 96 120.45 96.35 123.41 96.7 121.63 97.05 121.04 97.39 118.08 97.74 119.86 98.09 119.86 98.44 118.67 98.79 116.89 99.14 117.49 99.49 120.45 99.84 119.26 100.19 118.08 100.54 117.49 100.89 118.08 101.23 114.52 101.58 114.52 101.93 118.08 102.28 116.89 102.63 113.34 102.98 115.12 103.33 112.75 103.68 112.15 104.03 110.38 104.38 110.97 104.73 110.38 105.08 112.75 105.42 109.78 105.77 106.82 106.12 109.78 106.47 103.27 106.82 103.27 107.17 105.04 107.52 104.45 107.87 106.23 108.22 112.15 108.57 108.01 108.92 113.34 109.26 109.19 109.61 111.56 109.96 112.15 110.31 112.75 110.66 112.15 111.01 110.38 111.36 109.78 111.71 106.82 112.06 110.38 112.41 114.52 112.76 110.38 113.11 112.75 113.45 111.56 113.8 113.34 114.15 115.12 114.5 114.52 114.85 116.89 115.2 118.67 115.55 118.67 115.9 118.08 116.25 121.04 116.6 120.45 116.95 120.45 117.3 119.86 117.64 120.45 117.99 116.89 118.34 119.86 118.69 119.86 119.04 118.08 119.39 118.67 119.74 118.08 120.09 117.49 120.44 112.75 120.79 109.78 121.14 107.41 121.48 100.9 121.83 94.38 122.18 99.12 122.53 92.6 122.88 93.19 123.23 96.75 123.58 93.19 123.93 97.93 124.28 98.53 124.63 90.82 124.98 87.86 125.33 80.16 125.67 83.12 126.02 84.9 126.37 85.49 126.72 88.45 127.07 87.86 127.42 80.16 127.77 85.49 128.12 87.27 128.47 86.08 128.82 90.82 129.17 86.68 129.51 87.86 129.86 82.53 130.21 78.97 130.56 78.97 130.91 76.6 131.26 70.09 131.61 65.94 131.96 65.35 132.31 61.79 132.66 62.98 133.01 67.72 133.36 72.46 133.7 73.05 134.05 71.86 134.4 72.46 134.75 76.01 135.1 72.46 135.45 64.16 135.8 61.2 136.15 63.57 136.5 62.38 136.85 64.16 137.2 59.42 137.55 60.01 137.89 67.12 138.24 67.12 138.59 71.27 138.94 74.23 139.29 70.09 139.64 71.27 139.99 65.94 140.34 63.57 140.69 62.98 141.04 67.72 141.39 60.01 141.73 61.2 142.08 62.98 142.43 62.98 142.78 61.2 143.13 61.2 143.48 57.05 143.83 61.79 144.18 60.01 144.53 61.2 144.88 62.98 145.23 68.31 145.58 66.53 145.92 74.83 146.27 74.23 146.62 77.2 146.97 81.34 147.32 81.94 147.67 84.31 148.02 80.16 148.37 86.68 148.72 90.82 149.07 87.86 149.42 89.05 149.76 90.23 150.11 92.01 150.46 89.05 150.81 94.38 151.16 90.82 151.51 86.68 151.86 87.86 152.21 90.23 152.56 86.68 152.91 83.12 153.26 79.57 153.61 75.42 153.95 73.64 154.3 70.68 154.65 69.49 155 75.42 155.35 76.01 155.7 74.23 156.05 76.6 156.4 71.86 156.75 68.9 157.1 74.23 157.45 67.12 157.79 67.12 158.14 62.38 158.49 68.9 158.84 77.79 159.19 74.83 159.54 78.38 159.89 81.34 160.24 77.2 160.59 70.68 160.94 67.72 161.29 62.38 161.64 59.42 161.98 56.46 162.33 55.27 162.68 58.24 163.03 57.64 163.38 52.31 163.73 53.5 164.08 57.64 164.43 59.42 164.78 54.68 165.13 51.13 165.48 54.68 165.83 55.87 166.17 52.31 166.52 49.94 166.87 48.76 167.22 49.94 167.57 51.13 167.92 49.35 168.27 52.31 168.62 43.42 168.97 41.64 169.32 42.83 169.67 44.61 170.01 42.83 170.36 44.02 170.71 48.16 171.06 45.2 171.41 49.35 171.76 52.31 172.11 48.16 172.46 41.05 172.81 43.42 173.16 45.2 173.51 49.35 173.86 46.39 174.2 43.42 174.55 44.61 174.9 41.64 175.25 43.42 175.6 43.42 175.95 39.27 176.3 43.42 176.65 49.35 177 49.35 177.35 44.02 177.7 47.57 178.04 46.39 178.39 48.16 178.74 52.31 179.09 45.2 179.44 46.39 179.79 39.87 180.14 46.39 180.49 40.46 180.84 37.5 181.19 38.09 181.54 41.64 181.89 36.9 182.23 36.9 182.58 36.31 182.93 30.98 183.28 29.79 183.63 32.16 183.98 35.72 184.33 35.72 184.68 36.9 185.03 38.68 185.38 36.31 185.73 30.39 186.08 31.57 186.42 32.16 186.77 32.76 187.12 36.31 187.47 33.94 187.82 30.39 188.17 30.39 188.52 29.2 188.87 28.02 189.22 29.2 189.57 32.76 189.92 35.72 190.26 33.94 190.61 36.9 190.96 36.31 191.31 32.16 191.66 31.57 192.01 33.35 192.36 36.31 192.71 40.46 193.06 41.05 193.41 45.79 193.76 43.42 194.11 49.35 194.45 47.57 194.8 48.16 195.15 54.09 195.5 55.87 195.85 49.35 196.2 51.13"/>
      </g>
      <g stroke-width="0.3" fill="#000000" fill-opacity="0.000" class="geometry" stroke-dasharray="none" stroke="#D53E4F" id="img-1930cdce-18">
        <path fill="none" d="M21.98,71.86 L 22.33 79.57 22.68 78.38 23.03 76.6 23.38 74.23 23.73 77.2 24.08 75.42 24.42 77.2 24.77 79.57 25.12 76.6 25.47 85.49 25.82 78.38 26.17 78.38 26.52 71.86 26.87 74.83 27.22 76.6 27.57 70.68 27.92 67.12 28.27 73.64 28.61 74.83 28.96 78.38 29.31 74.83 29.66 76.01 30.01 75.42 30.36 78.38 30.71 85.49 31.06 84.31 31.41 80.16 31.76 73.64 32.11 73.64 32.45 68.31 32.8 68.31 33.15 64.75 33.5 63.57 33.85 66.53 34.2 68.9 34.55 70.09 34.9 64.16 35.25 64.75 35.6 61.79 35.95 61.79 36.3 57.05 36.64 52.9 36.99 57.05 37.34 62.98 37.69 59.42 38.04 54.09 38.39 64.16 38.74 70.09 39.09 74.83 39.44 78.38 39.79 74.23 40.14 72.46 40.49 70.09 40.83 72.46 41.18 76.6 41.53 77.2 41.88 78.38 42.23 74.83 42.58 73.05 42.93 76.01 43.28 77.2 43.63 75.42 43.98 71.27 44.33 62.38 44.67 65.35 45.02 67.12 45.37 67.72 45.72 80.16 46.07 74.23 46.42 76.6 46.77 66.53 47.12 68.9 47.47 71.27 47.82 65.94 48.17 65.94 48.52 67.12 48.86 64.75 49.21 57.05 49.56 53.5 49.91 58.83 50.26 55.27 50.61 55.27 50.96 60.61 51.31 60.01 51.66 62.98 52.01 63.57 52.36 63.57 52.7 58.83 53.05 57.05 53.4 55.27 53.75 57.05 54.1 51.72 54.45 52.31 54.8 54.09 55.15 54.09 55.5 64.16 55.85 68.9 56.2 67.72 56.55 65.35 56.89 63.57 57.24 68.31 57.59 68.31 57.94 59.42 58.29 58.24 58.64 61.79 58.99 61.2 59.34 58.83 59.69 61.2 60.04 67.12 60.39 71.27 60.73 69.49 61.08 69.49 61.43 66.53 61.78 61.79 62.13 57.64 62.48 60.61 62.83 58.24 63.18 61.79 63.53 60.01 63.88 57.64 64.23 60.61 64.58 61.79 64.92 61.79 65.27 61.2 65.62 52.9 65.97 54.09 66.32 51.72 66.67 52.31 67.02 58.83 67.37 55.87 67.72 51.72 68.07 54.68 68.42 58.24 68.77 63.57 69.11 62.98 69.46 65.35 69.81 68.9 70.16 66.53 70.51 67.72 70.86 67.12 71.21 64.16 71.56 61.79 71.91 54.09 72.26 50.53 72.61 44.61 72.95 51.72 73.3 54.68 73.65 53.5 74 58.24 74.35 55.87 74.7 57.05 75.05 54.68 75.4 49.35 75.75 55.27 76.1 57.64 76.45 62.98 76.8 67.12 77.14 66.53 77.49 67.72 77.84 68.9 78.19 70.68 78.54 65.35 78.89 64.75 79.24 67.12 79.59 68.9 79.94 67.72 80.29 63.57 80.64 65.35 80.98 57.05 81.33 51.72 81.68 48.76 82.03 50.53 82.38 50.53 82.73 46.98 83.08 46.98 83.43 53.5 83.78 51.72 84.13 54.09 84.48 54.68 84.83 51.72 85.17 48.76 85.52 57.05 85.87 52.9 86.22 48.76 86.57 46.39 86.92 41.05 87.27 41.05 87.62 41.64 87.97 44.02 88.32 48.16 88.67 45.2 89.02 40.46 89.36 44.02 89.71 48.16 90.06 46.98 90.41 48.16 90.76 48.16 91.11 46.39 91.46 44.02 91.81 46.39 92.16 48.16 92.51 41.64 92.86 36.9 93.2 35.13 93.55 29.2 93.9 27.42 94.25 25.05 94.6 22.09 94.95 22.09 95.3 22.09 95.65 22.09 96 23.28 96.35 25.65 96.7 24.46 97.05 21.5 97.39 22.09 97.74 24.46 98.09 25.65 98.44 23.87 98.79 20.31 99.14 22.09 99.49 23.87 99.84 19.13 100.19 19.72 100.54 19.13 100.89 17.35 101.23 17.35 101.58 14.39 101.93 15.57 102.28 16.17 102.63 17.94 102.98 16.17 103.33 17.94 103.68 17.94 104.03 17.35 104.38 17.94 104.73 17.35 105.08 17.35 105.42 16.76 105.77 16.17 106.12 14.98 106.47 14.39 106.82 14.39 107.17 14.98 107.52 16.17 107.87 18.54 108.22 20.31 108.57 21.5 108.92 21.5 109.26 24.46 109.61 28.61 109.96 32.16 110.31 27.42 110.66 26.83 111.01 23.87 111.36 23.28 111.71 23.28 112.06 23.87 112.41 28.02 112.76 33.94 113.11 38.68 113.45 36.9 113.8 35.13 114.15 36.31 114.5 41.05 114.85 39.27 115.2 41.64 115.55 43.42 115.9 44.61 116.25 51.72 116.6 49.35 116.95 48.16 117.3 47.57 117.64 46.39 117.99 42.24 118.34 38.68 118.69 33.35 119.04 32.76 119.39 38.68 119.74 40.46 120.09 39.27 120.44 45.2 120.79 40.46 121.14 42.24 121.48 46.39 121.83 54.09 122.18 54.09 122.53 62.38 122.88 55.87 123.23 55.87 123.58 50.53 123.93 48.76 124.28 48.76 124.63 47.57 124.98 42.24 125.33 42.83 125.67 41.64 126.02 45.79 126.37 47.57 126.72 48.16 127.07 48.16 127.42 45.79 127.77 46.98 128.12 46.39 128.47 39.27 128.82 42.83 129.17 41.64 129.51 34.53 129.86 33.94 130.21 33.94 130.56 35.13 130.91 32.76 131.26 33.35 131.61 35.72 131.96 33.94 132.31 34.53 132.66 36.9 133.01 37.5 133.36 33.94 133.7 25.05 134.05 28.02 134.4 27.42 134.75 28.02 135.1 32.76 135.45 29.79 135.8 28.02 136.15 25.05 136.5 25.05 136.85 23.87 137.2 25.65 137.55 28.02 137.89 26.83 138.24 26.83 138.59 28.61 138.94 28.61 139.29 28.61 139.64 26.83 139.99 27.42 140.34 30.39 140.69 36.31 141.04 38.09 141.39 41.64 141.73 39.87 142.08 36.9 142.43 38.09 142.78 37.5 143.13 32.76 143.48 38.09 143.83 37.5 144.18 39.27 144.53 41.64 144.88 39.87 145.23 50.53 145.58 48.16 145.92 51.72 146.27 48.76 146.62 50.53 146.97 58.83 147.32 53.5 147.67 60.01 148.02 64.75 148.37 66.53 148.72 67.12 149.07 64.16 149.42 64.16 149.76 61.79 150.11 60.01 150.46 65.35 150.81 63.57 151.16 60.61 151.51 59.42 151.86 55.87 152.21 59.42 152.56 55.87 152.91 55.87 153.26 51.13 153.61 52.31 153.95 48.16 154.3 46.98 154.65 45.2 155 51.72 155.35 53.5 155.7 55.27 156.05 48.76 156.4 48.76 156.75 40.46 157.1 45.79 157.45 42.83 157.79 40.46 158.14 39.27 158.49 37.5 158.84 39.87 159.19 41.64 159.54 38.68 159.89 42.83 160.24 42.83 160.59 35.72 160.94 35.72 161.29 36.31 161.64 36.31 161.98 32.76 162.33 32.16 162.68 30.98 163.03 32.16 163.38 40.46 163.73 48.16 164.08 51.72 164.43 49.94 164.78 52.31 165.13 57.64 165.48 52.9 165.83 51.72 166.17 45.79 166.52 53.5 166.87 53.5 167.22 50.53 167.57 49.35 167.92 47.57 168.27 49.35 168.62 51.13 168.97 44.61 169.32 42.83 169.67 39.27 170.01 47.57 170.36 49.94 170.71 50.53 171.06 52.31 171.41 47.57 171.76 49.94 172.11 48.76 172.46 50.53 172.81 57.05 173.16 60.61 173.51 61.2 173.86 62.38 174.2 68.31 174.55 64.75 174.9 61.2 175.25 64.16 175.6 68.31 175.95 68.31 176.3 60.01 176.65 64.75 177 62.98 177.35 61.79 177.7 66.53 178.04 71.27 178.39 73.64 178.74 73.05 179.09 70.09 179.44 68.9 179.79 78.38 180.14 78.38 180.49 80.16 180.84 81.94 181.19 91.42 181.54 91.42 181.89 90.82 182.23 88.45 182.58 90.82 182.93 92.01 183.28 90.23 183.63 94.38 183.98 89.64 184.33 87.86 184.68 91.42 185.03 86.68 185.38 87.86 185.73 86.68 186.08 87.27 186.42 89.64 186.77 91.42 187.12 93.19 187.47 89.64 187.82 85.49 188.17 87.27 188.52 82.53 188.87 93.79 189.22 96.75 189.57 96.16 189.92 97.34 190.26 98.53 190.61 103.86 190.96 103.27 191.31 100.3 191.66 100.3 192.01 102.08 192.36 101.49 192.71 96.75 193.06 94.97 193.41 92.6 193.76 91.42 194.11 90.23 194.45 94.38 194.8 97.93 195.15 100.3 195.5 94.38 195.85 84.31 196.2 83.71"/>
      </g>
      <g stroke-width="0.3" fill="#000000" fill-opacity="0.000" class="geometry" stroke-dasharray="none" stroke="#9E0142" id="img-1930cdce-19">
        <path fill="none" d="M21.98,71.86 L 22.33 74.23 22.68 68.31 23.03 67.72 23.38 67.72 23.73 64.16 24.08 68.31 24.42 64.75 24.77 61.79 25.12 67.72 25.47 65.94 25.82 63.57 26.17 68.31 26.52 76.01 26.87 78.97 27.22 81.34 27.57 86.08 27.92 86.68 28.27 87.27 28.61 79.57 28.96 82.53 29.31 81.34 29.66 83.12 30.01 76.6 30.36 78.38 30.71 81.34 31.06 80.75 31.41 81.34 31.76 85.49 32.11 81.34 32.45 80.75 32.8 75.42 33.15 86.08 33.5 90.23 33.85 90.82 34.2 94.97 34.55 91.42 34.9 93.19 35.25 97.34 35.6 98.53 35.95 94.97 36.3 90.82 36.64 98.53 36.99 96.75 37.34 99.71 37.69 102.08 38.04 104.45 38.39 108.6 38.74 110.97 39.09 109.78 39.44 106.23 39.79 105.64 40.14 109.19 40.49 106.23 40.83 105.04 41.18 104.45 41.53 108.6 41.88 108.01 42.23 109.78 42.58 108.01 42.93 110.38 43.28 107.41 43.63 109.19 43.98 109.19 44.33 113.93 44.67 112.15 45.02 115.12 45.37 116.89 45.72 117.49 46.07 120.45 46.42 121.04 46.77 119.86 47.12 119.86 47.47 121.04 47.82 115.71 48.17 112.75 48.52 117.49 48.86 119.26 49.21 121.04 49.56 117.49 49.91 118.67 50.26 115.71 50.61 116.89 50.96 118.67 51.31 118.67 51.66 112.75 52.01 115.12 52.36 117.49 52.7 120.45 53.05 116.89 53.4 115.71 53.75 113.34 54.1 112.15 54.45 105.04 54.8 99.71 55.15 95.56 55.5 100.3 55.85 100.9 56.2 102.08 56.55 104.45 56.89 108.01 57.24 101.49 57.59 99.71 57.94 102.08 58.29 101.49 58.64 105.64 58.99 112.15 59.34 112.75 59.69 115.12 60.04 114.52 60.39 113.93 60.73 114.52 61.08 118.67 61.43 120.45 61.78 122.23 62.13 122.23 62.48 120.45 62.83 118.67 63.18 117.49 63.53 115.71 63.88 115.71 64.23 109.19 64.58 102.67 64.92 98.53 65.27 89.64 65.62 82.53 65.97 83.71 66.32 84.9 66.67 86.08 67.02 86.68 67.37 81.34 67.72 74.83 68.07 73.64 68.42 78.97 68.77 79.57 69.11 74.83 69.46 76.01 69.81 71.86 70.16 77.2 70.51 73.64 70.86 70.68 71.21 68.9 71.56 69.49 71.91 72.46 72.26 71.27 72.61 78.38 72.95 78.38 73.3 79.57 73.65 87.86 74 87.86 74.35 83.71 74.7 86.08 75.05 87.86 75.4 86.68 75.75 79.57 76.1 87.86 76.45 87.27 76.8 82.53 77.14 82.53 77.49 87.27 77.84 81.34 78.19 82.53 78.54 88.45 78.89 79.57 79.24 84.31 79.59 80.75 79.94 89.64 80.29 93.19 80.64 94.97 80.98 94.97 81.33 99.71 81.68 91.42 82.03 91.42 82.38 85.49 82.73 84.31 83.08 81.94 83.43 86.68 83.78 89.05 84.13 84.9 84.48 82.53 84.83 86.08 85.17 83.71 85.52 87.27 85.87 91.42 86.22 94.38 86.57 94.97 86.92 90.23 87.27 90.23 87.62 86.68 87.97 86.08 88.32 83.12 88.67 74.83 89.02 77.2 89.36 76.6 89.71 76.6 90.06 83.12 90.41 82.53 90.76 81.94 91.11 87.27 91.46 93.79 91.81 94.97 92.16 90.23 92.51 87.27 92.86 88.45 93.2 86.08 93.55 90.23 93.9 88.45 94.25 92.6 94.6 92.01 94.95 94.38 95.3 90.23 95.65 86.08 96 84.31 96.35 84.31 96.7 83.12 97.05 79.57 97.39 81.94 97.74 75.42 98.09 78.97 98.44 87.27 98.79 81.94 99.14 79.57 99.49 78.38 99.84 79.57 100.19 81.34 100.54 73.05 100.89 74.83 101.23 67.72 101.58 69.49 101.93 67.12 102.28 63.57 102.63 62.38 102.98 58.24 103.33 60.61 103.68 63.57 104.03 70.09 104.38 68.31 104.73 73.64 105.08 81.94 105.42 81.94 105.77 86.08 106.12 81.94 106.47 81.94 106.82 84.31 107.17 87.86 107.52 81.94 107.87 76.01 108.22 78.97 108.57 78.38 108.92 75.42 109.26 68.9 109.61 70.68 109.96 74.23 110.31 77.2 110.66 78.97 111.01 83.71 111.36 85.49 111.71 90.82 112.06 94.97 112.41 95.56 112.76 92.6 113.11 94.97 113.45 97.34 113.8 92.01 114.15 92.6 114.5 93.19 114.85 89.64 115.2 85.49 115.55 83.71 115.9 86.68 116.25 81.34 116.6 81.94 116.95 81.34 117.3 81.94 117.64 82.53 117.99 81.34 118.34 83.12 118.69 86.08 119.04 82.53 119.39 76.6 119.74 81.34 120.09 78.38 120.44 78.38 120.79 80.16 121.14 76.6 121.48 73.05 121.83 77.2 122.18 77.2 122.53 78.38 122.88 70.09 123.23 76.6 123.58 74.23 123.93 71.86 124.28 70.68 124.63 74.83 124.98 72.46 125.33 62.98 125.67 58.24 126.02 62.98 126.37 58.24 126.72 65.94 127.07 69.49 127.42 72.46 127.77 77.79 128.12 79.57 128.47 83.71 128.82 84.9 129.17 83.71 129.51 92.01 129.86 92.6 130.21 94.97 130.56 93.19 130.91 98.53 131.26 99.12 131.61 96.16 131.96 102.67 132.31 105.04 132.66 105.04 133.01 100.3 133.36 99.12 133.7 97.34 134.05 97.34 134.4 94.97 134.75 97.93 135.1 92.01 135.45 93.19 135.8 93.79 136.15 97.93 136.5 95.56 136.85 97.34 137.2 95.56 137.55 100.3 137.89 106.23 138.24 109.19 138.59 106.82 138.94 106.23 139.29 103.86 139.64 106.23 139.99 102.67 140.34 99.71 140.69 105.04 141.04 108.01 141.39 106.23 141.73 109.78 142.08 114.52 142.43 116.3 142.78 119.86 143.13 119.86 143.48 121.63 143.83 119.26 144.18 118.08 144.53 124 144.88 126.97 145.23 127.56 145.58 126.97 145.92 128.74 146.27 129.93 146.62 129.93 146.97 129.93 147.32 128.74 147.67 128.15 148.02 126.37 148.37 126.97 148.72 126.97 149.07 126.97 149.42 125.78 149.76 126.97 150.11 128.74 150.46 129.93 150.81 128.74 151.16 128.15 151.51 128.74 151.86 126.97 152.21 128.74 152.56 126.97 152.91 128.15 153.26 125.19 153.61 125.19 153.95 127.56 154.3 128.15 154.65 125.19 155 125.19 155.35 124 155.7 123.41 156.05 123.41 156.4 122.23 156.75 125.19 157.1 125.78 157.45 126.97 157.79 128.74 158.14 127.56 158.49 126.97 158.84 126.97 159.19 127.56 159.54 124.6 159.89 124 160.24 125.78 160.59 124 160.94 124 161.29 123.41 161.64 124 161.98 125.78 162.33 129.34 162.68 130.52 163.03 131.11 163.38 131.11 163.73 131.11 164.08 131.11 164.43 131.11 164.78 131.11 165.13 131.11 165.48 130.52 165.83 129.93 166.17 130.52 166.52 129.34 166.87 127.56 167.22 127.56 167.57 129.34 167.92 128.15 168.27 128.74 168.62 129.34 168.97 129.34 169.32 129.34 169.67 129.34 170.01 128.74 170.36 128.74 170.71 129.34 171.06 129.34 171.41 128.15 171.76 129.93 172.11 131.11 172.46 131.11 172.81 131.11 173.16 131.11 173.51 131.11 173.86 131.11 174.2 130.52 174.55 131.11 174.9 130.52 175.25 130.52 175.6 131.11 175.95 130.52 176.3 130.52 176.65 128.74 177 128.74 177.35 128.74 177.7 126.97 178.04 126.37 178.39 125.19 178.74 125.19 179.09 126.97 179.44 125.19 179.79 126.37 180.14 128.15 180.49 126.37 180.84 123.41 181.19 127.56 181.54 126.37 181.89 128.15 182.23 128.74 182.58 128.15 182.93 128.15 183.28 128.15 183.63 129.34 183.98 130.52 184.33 129.34 184.68 129.93 185.03 129.93 185.38 130.52 185.73 130.52 186.08 130.52 186.42 131.11 186.77 131.11 187.12 131.11 187.47 131.11 187.82 131.11 188.17 131.11 188.52 131.11 188.87 131.11 189.22 131.11 189.57 131.11 189.92 131.11 190.26 131.11 190.61 131.11 190.96 131.11 191.31 128.74 191.66 129.93 192.01 130.52 192.36 131.11 192.71 131.11 193.06 131.11 193.41 131.11 193.76 130.52 194.11 129.34 194.45 129.93 194.8 130.52 195.15 131.11 195.5 131.11 195.85 131.11 196.2 131.11"/>
      </g>
    </g>
  </g>
</g>
  <g class="guide ylabels" font-size="2.82" font-family="'PT Sans Caption','Helvetica Neue','Helvetica',sans-serif" fill="#000000" id="img-1930cdce-20">
    <text x="18.63" y="131.11" text-anchor="end" dy="0.35em">0</text>
    <text x="18.63" y="101.49" text-anchor="end" dy="0.35em">50</text>
    <text x="18.63" y="71.86" text-anchor="end" dy="0.35em">100</text>
    <text x="18.63" y="42.24" text-anchor="end" dy="0.35em">150</text>
    <text x="18.63" y="12.61" text-anchor="end" dy="0.35em">200</text>
  </g>
  <g font-size="3.88" font-family="'PT Sans','Helvetica Neue','Helvetica',sans-serif" fill="#000000" stroke="#000000" stroke-opacity="0.000" id="img-1930cdce-21">
    <text x="8.81" y="69.86" text-anchor="middle" dy="0.35em" transform="rotate(-90, 8.81, 71.86)">population size</text>
  </g>
  <g font-size="3.88" font-family="'PT Sans','Helvetica Neue','Helvetica',sans-serif" fill="#000000" stroke="#000000" stroke-opacity="0.000" id="img-1930cdce-22">
    <text x="108.92" y="5" text-anchor="middle" dy="0.6em">genetic drift with mutationrate  = 0.001 </text>
  </g>
</g>
<defs>
  <clipPath id="img-1930cdce-4">
  <path d="M19.63,10.61 L 198.2 10.61 198.2 133.11 19.63 133.11" />
</clipPath>
</defs>
</svg>
