<?xml version="1.0" encoding="UTF-8"?>
<svg xmlns="http://www.w3.org/2000/svg"
     xmlns:xlink="http://www.w3.org/1999/xlink"
     xmlns:gadfly="http://www.gadflyjl.org/ns"
     version="1.2"
     width="203.2mm" height="152.4mm" viewBox="0 0 203.2 152.4"
     stroke="none"
     fill="#000000"
     stroke-width="0.3"
     font-size="3.88"
>
<g class="plotroot xscalable yscalable" id="img-b79b781a-1">
  <g font-size="3.88" font-family="'PT Sans','Helvetica Neue','Helvetica',sans-serif" fill="#000000" stroke="#000000" stroke-opacity="0.000" id="img-b79b781a-2">
    <text x="108.92" y="140.79" text-anchor="middle" dy="0.6em">generation number</text>
  </g>
  <g class="guide xlabels" font-size="2.82" font-family="'PT Sans Caption','Helvetica Neue','Helvetica',sans-serif" fill="#000000" id="img-b79b781a-3">
    <text x="21.63" y="134.11" text-anchor="middle" dy="0.6em">0</text>
    <text x="56.55" y="134.11" text-anchor="middle" dy="0.6em">100</text>
    <text x="91.46" y="134.11" text-anchor="middle" dy="0.6em">200</text>
    <text x="126.37" y="134.11" text-anchor="middle" dy="0.6em">300</text>
    <text x="161.29" y="134.11" text-anchor="middle" dy="0.6em">400</text>
    <text x="196.2" y="134.11" text-anchor="middle" dy="0.6em">500</text>
  </g>
<g clip-path="url(#img-b79b781a-4)">
  <g id="img-b79b781a-5">
    <g pointer-events="visible" opacity="1" fill="#FFFFFF" stroke="#000000" stroke-opacity="0.000" class="guide background" id="img-b79b781a-6">
      <rect x="19.63" y="10.61" width="178.57" height="122.5"/>
    </g>
    <g class="guide ygridlines xfixed" stroke-dasharray="0.5,0.5" stroke-width="0.2" stroke="#808080" id="img-b79b781a-7">
      <path fill="none" d="M19.63,131.11 L 198.2 131.11"/>
      <path fill="none" d="M19.63,91.61 L 198.2 91.61"/>
      <path fill="none" d="M19.63,52.11 L 198.2 52.11"/>
      <path fill="none" d="M19.63,12.61 L 198.2 12.61"/>
    </g>
    <g class="guide xgridlines yfixed" stroke-dasharray="0.5,0.5" stroke-width="0.2" stroke="#808080" id="img-b79b781a-8">
      <path fill="none" d="M21.63,10.61 L 21.63 133.11"/>
      <path fill="none" d="M56.55,10.61 L 56.55 133.11"/>
      <path fill="none" d="M91.46,10.61 L 91.46 133.11"/>
      <path fill="none" d="M126.37,10.61 L 126.37 133.11"/>
      <path fill="none" d="M161.29,10.61 L 161.29 133.11"/>
      <path fill="none" d="M196.2,10.61 L 196.2 133.11"/>
    </g>
    <g class="plotpanel" id="img-b79b781a-9">
      <g stroke-width="0.3" fill="#000000" fill-opacity="0.000" class="geometry" stroke-dasharray="none" stroke="#3288BD" id="img-b79b781a-10">
        <path fill="none" d="M21.98,71.86 L 22.33 80.95 22.68 80.16 23.03 82.13 23.38 82.53 23.73 82.53 24.08 80.55 24.42 76.6 24.77 76.21 25.12 80.16 25.47 81.34 25.82 77 26.17 74.23 26.52 73.44 26.87 71.07 27.22 69.1 27.57 67.52 27.92 62.38 28.27 59.22 28.61 58.83 28.96 61.2 29.31 61.99 29.66 61.99 30.01 64.36 30.36 60.8 30.71 59.22 31.06 60.01 31.41 54.48 31.76 56.46 32.11 53.3 32.45 48.95 32.8 46.58 33.15 49.74 33.5 48.16 33.85 49.35 34.2 55.27 34.55 64.75 34.9 63.17 35.25 60.8 35.6 60.8 35.95 57.64 36.3 62.38 36.64 63.17 36.99 61.99 37.34 65.54 37.69 70.28 38.04 64.75 38.39 64.75 38.74 65.15 39.09 66.33 39.44 69.1 39.79 66.73 40.14 68.31 40.49 71.86 40.83 73.05 41.18 71.86 41.53 66.73 41.88 62.78 42.23 60.8 42.58 52.9 42.93 52.9 43.28 51.32 43.63 45.79 43.98 45.4 44.33 46.19 44.67 45.4 45.02 43.82 45.37 37.1 45.72 34.34 46.07 31.97 46.42 32.76 46.77 34.73 47.12 33.94 47.47 35.52 47.82 29.2 48.17 29.99 48.52 27.62 48.86 28.81 49.21 24.07 49.56 23.28 49.91 23.28 50.26 25.65 50.61 29.99 50.96 25.25 51.31 21.3 51.66 20.91 52.01 20.91 52.36 18.54 52.7 19.33 53.05 18.14 53.4 18.14 53.75 18.14 54.1 18.54 54.45 18.93 54.8 16.17 55.15 15.38 55.5 16.96 55.85 19.33 56.2 18.54 56.55 20.51 56.89 22.09 57.24 22.88 57.59 25.65 57.94 23.28 58.29 22.49 58.64 20.51 58.99 19.72 59.34 16.17 59.69 14.98 60.04 15.77 60.39 14.98 60.73 14.59 61.08 14.19 61.43 14.59 61.78 13.8 62.13 13.8 62.48 14.59 62.83 14.98 63.18 14.98 63.53 16.17 63.88 19.33 64.23 20.12 64.58 21.7 64.92 22.49 65.27 20.12 65.62 19.72 65.97 19.33 66.32 20.12 66.67 20.91 67.02 22.09 67.37 25.25 67.72 24.07 68.07 23.67 68.42 23.28 68.77 22.49 69.11 23.28 69.46 24.86 69.81 24.46 70.16 22.49 70.51 21.3 70.86 20.12 71.21 17.35 71.56 13.4 71.91 13.01 72.26 12.61 72.61 12.61 72.95 12.61 73.3 12.61 73.65 12.61 74 12.61 74.35 12.61 74.7 12.61 75.05 12.61 75.4 12.61 75.75 13.8 76.1 13.01 76.45 13.4 76.8 14.59 77.14 14.19 77.49 13.01 77.84 12.61 78.19 12.61 78.54 12.61 78.89 12.61 79.24 12.61 79.59 14.19 79.94 13.4 80.29 13.01 80.64 13.01 80.98 12.61 81.33 12.61 81.68 12.61 82.03 12.61 82.38 12.61 82.73 12.61 83.08 12.61 83.43 12.61 83.78 12.61 84.13 12.61 84.48 12.61 84.83 12.61 85.17 13.4 85.52 13.8 85.87 12.61 86.22 13.01 86.57 13.4 86.92 13.01 87.27 13.01 87.62 12.61 87.97 12.61 88.32 12.61 88.67 12.61 89.02 12.61 89.36 12.61 89.71 12.61 90.06 12.61 90.41 12.61 90.76 12.61 91.11 12.61 91.46 12.61 91.81 12.61 92.16 12.61 92.51 12.61 92.86 12.61 93.2 13.4 93.55 13.01 93.9 13.01 94.25 12.61 94.6 12.61 94.95 12.61 95.3 12.61 95.65 12.61 96 12.61 96.35 12.61 96.7 12.61 97.05 12.61 97.39 12.61 97.74 12.61 98.09 12.61 98.44 13.01 98.79 13.01 99.14 13.4 99.49 14.19 99.84 14.59 100.19 13.4 100.54 13.4 100.89 14.19 101.23 13.8 101.58 13.4 101.93 13.8 102.28 14.19 102.63 15.77 102.98 14.98 103.33 14.19 103.68 13.4 104.03 13.4 104.38 13.8 104.73 14.19 105.08 14.59 105.42 14.19 105.77 13.4 106.12 14.59 106.47 15.77 106.82 17.75 107.17 17.35 107.52 15.38 107.87 16.17 108.22 18.54 108.57 17.35 108.92 17.75 109.26 16.56 109.61 15.38 109.96 14.98 110.31 15.38 110.66 15.77 111.01 14.59 111.36 16.17 111.71 16.17 112.06 18.14 112.41 16.96 112.76 15.77 113.11 15.38 113.45 16.17 113.8 14.98 114.15 14.59 114.5 13.8 114.85 14.98 115.2 17.75 115.55 20.51 115.9 24.07 116.25 25.65 116.6 26.83 116.95 26.04 117.3 28.81 117.64 29.2 117.99 28.41 118.34 24.86 118.69 22.09 119.04 22.09 119.39 19.72 119.74 18.54 120.09 17.75 120.44 17.75 120.79 17.35 121.14 14.98 121.48 13.4 121.83 13.01 122.18 13.8 122.53 13.8 122.88 13.8 123.23 13.8 123.58 14.19 123.93 13.8 124.28 14.59 124.63 14.98 124.98 13.8 125.33 16.17 125.67 16.96 126.02 16.17 126.37 14.98 126.72 14.59 127.07 13.01 127.42 12.61 127.77 12.61 128.12 12.61 128.47 12.61 128.82 12.61 129.17 12.61 129.51 12.61 129.86 12.61 130.21 12.61 130.56 12.61 130.91 12.61 131.26 12.61 131.61 13.01 131.96 12.61 132.31 12.61 132.66 12.61 133.01 12.61 133.36 12.61 133.7 13.01 134.05 12.61 134.4 12.61 134.75 12.61 135.1 13.01 135.45 12.61 135.8 12.61 136.15 12.61 136.5 12.61 136.85 12.61 137.2 12.61 137.55 12.61 137.89 13.4 138.24 12.61 138.59 12.61 138.94 12.61 139.29 12.61 139.64 12.61 139.99 12.61 140.34 12.61 140.69 12.61 141.04 12.61 141.39 12.61 141.73 14.59 142.08 13.4 142.43 13.01 142.78 12.61 143.13 13.01 143.48 13.4 143.83 14.59 144.18 14.19 144.53 13.01 144.88 13.8 145.23 13.4 145.58 14.19 145.92 14.19 146.27 15.38 146.62 15.77 146.97 17.35 147.32 16.96 147.67 15.38 148.02 14.98 148.37 14.19 148.72 13.8 149.07 13.4 149.42 14.19 149.76 13.8 150.11 13.4 150.46 14.19 150.81 15.38 151.16 14.59 151.51 13.8 151.86 13.4 152.21 15.38 152.56 14.98 152.91 14.98 153.26 14.19 153.61 14.59 153.95 12.61 154.3 12.61 154.65 12.61 155 12.61 155.35 12.61 155.7 12.61 156.05 13.4 156.4 13.01 156.75 13.4 157.1 13.8 157.45 13.01 157.79 13.01 158.14 13.4 158.49 14.19 158.84 14.59 159.19 13.8 159.54 14.19 159.89 13.4 160.24 13.8 160.59 13.01 160.94 12.61 161.29 12.61 161.64 12.61 161.98 13.01 162.33 14.19 162.68 14.19 163.03 14.98 163.38 14.98 163.73 14.59 164.08 13.01 164.43 12.61 164.78 12.61 165.13 12.61 165.48 12.61 165.83 12.61 166.17 12.61 166.52 12.61 166.87 12.61 167.22 13.4 167.57 13.4 167.92 13.8 168.27 13.4 168.62 13.8 168.97 13.4 169.32 13.01 169.67 12.61 170.01 14.19 170.36 15.38 170.71 15.38 171.06 16.17 171.41 13.8 171.76 13.01 172.11 12.61 172.46 12.61 172.81 12.61 173.16 12.61 173.51 12.61 173.86 13.01 174.2 13.4 174.55 13.01 174.9 13.01 175.25 12.61 175.6 12.61 175.95 12.61 176.3 12.61 176.65 13.01 177 12.61 177.35 12.61 177.7 12.61 178.04 12.61 178.39 12.61 178.74 12.61 179.09 12.61 179.44 12.61 179.79 12.61 180.14 12.61 180.49 12.61 180.84 12.61 181.19 12.61 181.54 12.61 181.89 12.61 182.23 13.01 182.58 13.01 182.93 13.01 183.28 13.4 183.63 12.61 183.98 12.61 184.33 13.01 184.68 13.8 185.03 12.61 185.38 12.61 185.73 12.61 186.08 13.01 186.42 13.4 186.77 13.4 187.12 13.8 187.47 13.8 187.82 13.8 188.17 13.8 188.52 14.98 188.87 14.59 189.22 13.4 189.57 13.4 189.92 14.59 190.26 14.59 190.61 12.61 190.96 12.61 191.31 12.61 191.66 12.61 192.01 12.61 192.36 13.01 192.71 13.01 193.06 12.61 193.41 13.01 193.76 12.61 194.11 12.61 194.45 13.01 194.8 13.01 195.15 12.61 195.5 12.61 195.85 12.61 196.2 12.61"/>
      </g>
      <g stroke-width="0.3" fill="#000000" fill-opacity="0.000" class="geometry" stroke-dasharray="none" stroke="#66C2A5" id="img-b79b781a-11">
        <path fill="none" d="M21.98,71.86 L 22.33 75.02 22.68 75.81 23.03 73.05 23.38 75.02 23.73 71.47 24.08 64.36 24.42 61.2 24.77 61.59 25.12 64.75 25.47 71.07 25.82 73.05 26.17 71.86 26.52 70.28 26.87 69.1 27.22 62.78 27.57 60.41 27.92 60.41 28.27 60.8 28.61 56.46 28.96 50.14 29.31 52.51 29.66 54.48 30.01 58.83 30.36 62.38 30.71 64.75 31.06 70.68 31.41 67.52 31.76 69.1 32.11 71.07 32.45 70.68 32.8 63.96 33.15 68.7 33.5 73.84 33.85 75.02 34.2 76.6 34.55 75.42 34.9 79.37 35.25 88.45 35.6 88.85 35.95 88.45 36.3 93.59 36.64 93.98 36.99 92.01 37.34 97.93 37.69 97.14 38.04 100.3 38.39 101.49 38.74 105.83 39.09 108.2 39.44 110.97 39.79 112.94 40.14 112.94 40.49 113.34 40.83 114.13 41.18 115.71 41.53 113.73 41.88 116.5 42.23 114.13 42.58 112.94 42.93 111.36 43.28 111.36 43.63 110.18 43.98 110.57 44.33 108.2 44.67 111.36 45.02 110.57 45.37 110.57 45.72 110.97 46.07 111.36 46.42 115.31 46.77 114.13 47.12 116.5 47.47 113.34 47.82 114.92 48.17 111.36 48.52 109.78 48.86 109.39 49.21 107.81 49.56 108.99 49.91 110.18 50.26 107.02 50.61 105.83 50.96 105.83 51.31 108.2 51.66 108.6 52.01 110.18 52.36 110.57 52.7 110.97 53.05 108.6 53.4 110.18 53.75 105.44 54.1 104.25 54.45 105.44 54.8 113.34 55.15 112.55 55.5 108.6 55.85 110.57 56.2 107.81 56.55 106.23 56.89 105.83 57.24 105.44 57.59 105.44 57.94 99.51 58.29 103.86 58.64 99.91 58.99 96.35 59.34 95.96 59.69 101.49 60.04 106.62 60.39 102.67 60.73 103.86 61.08 105.04 61.43 105.44 61.78 101.09 62.13 101.49 62.48 104.65 62.83 101.88 63.18 102.28 63.53 98.72 63.88 99.91 64.23 100.7 64.58 103.86 64.92 100.7 65.27 104.25 65.62 101.88 65.97 104.25 66.32 103.07 66.67 107.81 67.02 107.81 67.37 108.2 67.72 106.23 68.07 110.18 68.42 110.18 68.77 116.5 69.11 120.05 69.46 119.66 69.81 119.66 70.16 120.05 70.51 120.84 70.86 119.66 71.21 119.66 71.56 121.63 71.91 121.24 72.26 123.61 72.61 123.21 72.95 121.63 73.3 122.82 73.65 124.4 74 123.61 74.35 124.4 74.7 123.61 75.05 124 75.4 124 75.75 122.82 76.1 122.82 76.45 122.42 76.8 123.21 77.14 124 77.49 123.61 77.84 121.24 78.19 121.63 78.54 122.03 78.89 120.84 79.24 122.82 79.59 118.87 79.94 122.42 80.29 121.24 80.64 121.24 80.98 122.03 81.33 124.4 81.68 120.84 82.03 124.4 82.38 122.82 82.73 122.82 83.08 120.84 83.43 123.21 83.78 124.79 84.13 125.58 84.48 125.98 84.83 127.16 85.17 127.95 85.52 126.77 85.87 125.19 86.22 123.61 86.57 122.42 86.92 120.05 87.27 117.29 87.62 118.08 87.97 118.47 88.32 116.89 88.67 116.89 89.02 115.31 89.36 114.13 89.71 116.89 90.06 117.29 90.41 118.08 90.76 114.52 91.11 112.94 91.46 117.68 91.81 116.1 92.16 112.15 92.51 113.34 92.86 116.1 93.2 113.73 93.55 114.13 93.9 114.92 94.25 119.26 94.6 119.66 94.95 120.84 95.3 118.87 95.65 122.82 96 121.24 96.35 123.21 96.7 124.4 97.05 126.37 97.39 126.77 97.74 127.16 98.09 127.95 98.44 125.58 98.79 127.16 99.14 128.35 99.49 127.56 99.84 127.95 100.19 127.95 100.54 125.98 100.89 125.98 101.23 124.79 101.58 120.05 101.93 118.08 102.28 118.47 102.63 118.87 102.98 118.87 103.33 117.29 103.68 114.52 104.03 113.73 104.38 114.52 104.73 111.76 105.08 112.55 105.42 114.92 105.77 111.36 106.12 114.52 106.47 109.78 106.82 111.76 107.17 112.55 107.52 112.15 107.87 112.15 108.22 113.34 108.57 110.18 108.92 107.81 109.26 104.25 109.61 102.28 109.96 98.72 110.31 97.14 110.66 97.93 111.01 92.4 111.36 96.35 111.71 93.98 112.06 94.38 112.41 97.14 112.76 99.91 113.11 98.72 113.45 95.17 113.8 99.91 114.15 100.3 114.5 91.22 114.85 95.96 115.2 94.77 115.55 93.59 115.9 92.4 116.25 95.96 116.6 92.8 116.95 96.75 117.3 101.88 117.64 101.88 117.99 98.33 118.34 92.4 118.69 90.43 119.04 93.98 119.39 93.19 119.74 93.59 120.09 90.43 120.44 94.77 120.79 93.98 121.14 94.77 121.48 88.85 121.83 88.45 122.18 85.69 122.53 85.29 122.88 83.71 123.23 80.55 123.58 82.53 123.93 79.76 124.28 77.79 124.63 77.79 124.98 74.23 125.33 74.23 125.67 70.28 126.02 71.86 126.37 67.91 126.72 65.54 127.07 63.57 127.42 60.8 127.77 62.38 128.12 65.54 128.47 67.12 128.82 66.33 129.17 64.36 129.51 64.75 129.86 61.59 130.21 52.51 130.56 55.67 130.91 60.8 131.26 58.04 131.61 58.04 131.96 58.04 132.31 63.96 132.66 65.54 133.01 65.94 133.36 67.91 133.7 66.33 134.05 63.17 134.4 63.17 134.75 60.41 135.1 57.25 135.45 57.25 135.8 54.48 136.15 54.09 136.5 57.64 136.85 56.85 137.2 58.43 137.55 59.22 137.89 66.33 138.24 67.91 138.59 68.7 138.94 63.96 139.29 65.15 139.64 66.73 139.99 67.12 140.34 66.33 140.69 57.64 141.04 56.06 141.39 59.22 141.73 59.62 142.08 65.15 142.43 68.31 142.78 64.75 143.13 60.8 143.48 55.67 143.83 56.46 144.18 57.25 144.53 60.8 144.88 65.54 145.23 63.96 145.58 68.31 145.92 59.62 146.27 59.62 146.62 54.48 146.97 50.53 147.32 48.95 147.67 48.56 148.02 48.95 148.37 46.19 148.72 43.82 149.07 41.84 149.42 38.29 149.76 39.47 150.11 37.1 150.46 34.73 150.81 37.5 151.16 36.31 151.51 32.76 151.86 28.81 152.21 29.2 152.56 30.39 152.91 28.02 153.26 29.2 153.61 29.99 153.95 28.02 154.3 31.57 154.65 30.78 155 32.36 155.35 33.94 155.7 34.73 156.05 35.52 156.4 38.68 156.75 39.08 157.1 39.08 157.45 44.21 157.79 49.35 158.14 47.77 158.49 47.37 158.84 49.35 159.19 45.79 159.54 43.03 159.89 46.98 160.24 41.84 160.59 34.34 160.94 36.71 161.29 35.13 161.64 33.15 161.98 35.13 162.33 32.76 162.68 32.36 163.03 32.76 163.38 29.2 163.73 29.2 164.08 31.18 164.43 32.76 164.78 32.36 165.13 32.36 165.48 35.13 165.83 33.94 166.17 36.31 166.52 35.13 166.87 32.76 167.22 32.36 167.57 28.41 167.92 27.62 168.27 28.41 168.62 29.6 168.97 32.36 169.32 31.57 169.67 31.97 170.01 25.65 170.36 27.23 170.71 28.02 171.06 28.81 171.41 31.18 171.76 33.15 172.11 35.13 172.46 35.52 172.81 36.71 173.16 43.42 173.51 44.61 173.86 48.95 174.2 48.16 174.55 48.95 174.9 51.32 175.25 52.11 175.6 50.53 175.95 45.4 176.3 47.77 176.65 45.79 177 52.51 177.35 54.48 177.7 53.3 178.04 48.16 178.39 48.56 178.74 48.95 179.09 50.93 179.44 55.67 179.79 52.51 180.14 50.93 180.49 50.53 180.84 50.53 181.19 51.32 181.54 53.3 181.89 48.95 182.23 55.67 182.58 56.85 182.93 54.88 183.28 56.85 183.63 56.85 183.98 54.88 184.33 51.32 184.68 58.83 185.03 59.62 185.38 59.22 185.73 57.25 186.08 56.85 186.42 52.11 186.77 50.53 187.12 51.32 187.47 52.9 187.82 50.14 188.17 52.11 188.52 46.19 188.87 50.93 189.22 54.09 189.57 56.06 189.92 61.2 190.26 56.06 190.61 59.62 190.96 59.22 191.31 64.36 191.66 64.75 192.01 62.38 192.36 55.67 192.71 56.85 193.06 57.25 193.41 50.93 193.76 46.19 194.11 51.32 194.45 52.51 194.8 52.11 195.15 54.88 195.5 56.06 195.85 61.2 196.2 63.57"/>
      </g>
      <g stroke-width="0.3" fill="#000000" fill-opacity="0.000" class="geometry" stroke-dasharray="none" stroke="#ABDDA4" id="img-b79b781a-12">
        <path fill="none" d="M21.98,71.86 L 22.33 67.91 22.68 71.07 23.03 73.84 23.38 79.37 23.73 85.29 24.08 82.53 24.42 88.06 24.77 86.87 25.12 88.45 25.47 91.61 25.82 93.59 26.17 90.82 26.52 95.56 26.87 92.4 27.22 98.72 27.57 99.91 27.92 94.77 28.27 93.19 28.61 89.64 28.96 84.11 29.31 82.13 29.66 86.48 30.01 93.98 30.36 90.03 30.71 93.59 31.06 96.35 31.41 92.01 31.76 92.4 32.11 87.27 32.45 83.71 32.8 85.69 33.15 88.06 33.5 87.27 33.85 92.4 34.2 90.82 34.55 87.66 34.9 84.5 35.25 81.74 35.6 82.53 35.95 85.29 36.3 84.11 36.64 82.53 36.99 80.95 37.34 85.29 37.69 86.48 38.04 84.11 38.39 87.66 38.74 91.61 39.09 92.8 39.44 90.43 39.79 92.4 40.14 90.03 40.49 88.85 40.83 88.06 41.18 83.32 41.53 84.9 41.88 82.13 42.23 80.95 42.58 85.69 42.93 85.29 43.28 84.5 43.63 84.5 43.98 81.74 44.33 85.69 44.67 91.22 45.02 93.19 45.37 90.82 45.72 90.82 46.07 91.61 46.42 86.48 46.77 88.85 47.12 84.5 47.47 81.34 47.82 84.5 48.17 86.08 48.52 91.22 48.86 94.38 49.21 92.01 49.56 96.35 49.91 93.19 50.26 100.7 50.61 97.14 50.96 93.98 51.31 93.59 51.66 93.98 52.01 90.82 52.36 91.61 52.7 92.4 53.05 97.14 53.4 93.59 53.75 92.8 54.1 88.85 54.45 89.64 54.8 87.66 55.15 88.45 55.5 89.64 55.85 94.77 56.2 92.4 56.55 92.4 56.89 92.8 57.24 97.14 57.59 97.14 57.94 95.96 58.29 96.35 58.64 96.35 58.99 94.38 59.34 95.56 59.69 94.77 60.04 93.19 60.39 97.93 60.73 96.75 61.08 100.3 61.43 99.91 61.78 97.14 62.13 99.91 62.48 99.51 62.83 97.54 63.18 93.59 63.53 92.4 63.88 88.85 64.23 91.61 64.58 88.06 64.92 83.71 65.27 84.11 65.62 79.37 65.97 77 66.32 81.34 66.67 80.16 67.02 83.32 67.37 85.29 67.72 84.5 68.07 85.69 68.42 83.71 68.77 83.32 69.11 82.92 69.46 79.37 69.81 74.63 70.16 71.86 70.51 67.91 70.86 66.33 71.21 60.01 71.56 58.83 71.91 61.2 72.26 59.62 72.61 60.41 72.95 58.83 73.3 59.62 73.65 57.25 74 50.53 74.35 50.14 74.7 51.32 75.05 45.79 75.4 45.4 75.75 48.95 76.1 47.77 76.45 48.16 76.8 50.53 77.14 44.61 77.49 45 77.84 47.37 78.19 47.37 78.54 47.77 78.89 50.93 79.24 47.37 79.59 50.14 79.94 46.19 80.29 43.03 80.64 45.4 80.98 49.74 81.33 48.56 81.68 44.61 82.03 41.45 82.38 43.82 82.73 47.37 83.08 45.4 83.43 47.77 83.78 49.35 84.13 46.58 84.48 47.37 84.83 44.21 85.17 42.24 85.52 42.63 85.87 44.61 86.22 50.14 86.57 47.77 86.92 49.74 87.27 47.77 87.62 44.21 87.97 36.71 88.32 33.15 88.67 29.99 89.02 31.18 89.36 31.18 89.71 31.97 90.06 33.94 90.41 35.52 90.76 35.13 91.11 32.76 91.46 34.34 91.81 35.13 92.16 38.68 92.51 35.92 92.86 38.68 93.2 42.24 93.55 42.24 93.9 44.21 94.25 44.21 94.6 43.42 94.95 42.24 95.3 40.26 95.65 39.47 96 39.87 96.35 35.52 96.7 39.87 97.05 46.19 97.39 50.93 97.74 53.3 98.09 55.67 98.44 54.88 98.79 61.99 99.14 62.38 99.49 61.59 99.84 60.8 100.19 59.22 100.54 57.25 100.89 61.2 101.23 65.15 101.58 67.12 101.93 63.17 102.28 61.99 102.63 59.62 102.98 58.04 103.33 57.64 103.68 59.62 104.03 56.85 104.38 58.83 104.73 60.41 105.08 61.2 105.42 54.88 105.77 55.67 106.12 51.72 106.47 48.56 106.82 52.9 107.17 53.3 107.52 53.69 107.87 59.22 108.22 56.85 108.57 54.88 108.92 60.41 109.26 63.96 109.61 67.52 109.96 68.7 110.31 66.33 110.66 70.68 111.01 76.6 111.36 77 111.71 75.02 112.06 75.02 112.41 75.81 112.76 75.02 113.11 80.16 113.45 76.6 113.8 71.07 114.15 72.65 114.5 73.05 114.85 72.65 115.2 69.89 115.55 71.47 115.9 74.63 116.25 75.81 116.6 78.18 116.95 81.34 117.3 81.74 117.64 78.18 117.99 73.44 118.34 73.84 118.69 75.42 119.04 78.18 119.39 76.21 119.74 76.6 120.09 71.07 120.44 67.12 120.79 65.94 121.14 71.07 121.48 75.42 121.83 75.81 122.18 75.02 122.53 69.49 122.88 69.1 123.23 71.86 123.58 69.1 123.93 67.91 124.28 71.86 124.63 75.02 124.98 74.63 125.33 75.42 125.67 73.44 126.02 79.76 126.37 79.76 126.72 77.79 127.07 79.76 127.42 79.37 127.77 77.79 128.12 82.13 128.47 77.79 128.82 83.32 129.17 80.95 129.51 90.03 129.86 94.38 130.21 90.43 130.56 89.24 130.91 87.27 131.26 84.11 131.61 87.27 131.96 82.13 132.31 83.71 132.66 86.87 133.01 90.03 133.36 86.48 133.7 84.11 134.05 81.34 134.4 77.39 134.75 78.18 135.1 84.11 135.45 84.5 135.8 84.5 136.15 82.13 136.5 81.34 136.85 76.6 137.2 78.18 137.55 80.16 137.89 79.76 138.24 80.55 138.59 78.97 138.94 75.42 139.29 79.76 139.64 76.21 139.99 65.54 140.34 68.7 140.69 63.57 141.04 61.99 141.39 63.96 141.73 67.91 142.08 65.15 142.43 63.57 142.78 62.38 143.13 61.99 143.48 59.62 143.83 56.46 144.18 57.25 144.53 53.3 144.88 55.27 145.23 54.88 145.58 56.06 145.92 58.04 146.27 62.38 146.62 61.2 146.97 59.62 147.32 59.62 147.67 62.38 148.02 60.01 148.37 58.83 148.72 62.38 149.07 55.67 149.42 53.3 149.76 63.57 150.11 65.54 150.46 63.57 150.81 66.73 151.16 66.33 151.51 65.54 151.86 66.73 152.21 67.52 152.56 70.28 152.91 69.1 153.26 74.23 153.61 76.6 153.95 80.16 154.3 74.23 154.65 73.84 155 74.63 155.35 78.58 155.7 75.42 156.05 73.05 156.4 76.6 156.75 75.02 157.1 68.7 157.45 71.07 157.79 70.28 158.14 68.7 158.49 67.91 158.84 65.94 159.19 66.33 159.54 60.8 159.89 67.52 160.24 67.12 160.59 68.31 160.94 66.33 161.29 66.73 161.64 71.86 161.98 71.47 162.33 76.6 162.68 81.34 163.03 81.34 163.38 77.39 163.73 84.11 164.08 86.48 164.43 86.08 164.78 83.71 165.13 85.29 165.48 89.64 165.83 88.06 166.17 84.9 166.52 87.27 166.87 87.27 167.22 88.85 167.57 85.69 167.92 84.9 168.27 80.16 168.62 76.21 168.97 78.58 169.32 75.42 169.67 73.84 170.01 79.37 170.36 73.84 170.71 75.02 171.06 72.26 171.41 68.31 171.76 71.47 172.11 75.42 172.46 73.84 172.81 72.65 173.16 69.1 173.51 69.49 173.86 69.1 174.2 68.31 174.55 65.54 174.9 66.33 175.25 62.38 175.6 56.46 175.95 56.46 176.3 58.43 176.65 61.59 177 69.89 177.35 76.21 177.7 80.16 178.04 77.39 178.39 84.11 178.74 86.08 179.09 82.92 179.44 77 179.79 75.02 180.14 77.79 180.49 80.95 180.84 80.16 181.19 77.79 181.54 75.81 181.89 73.05 182.23 71.47 182.58 69.49 182.93 67.12 183.28 66.33 183.63 67.52 183.98 70.28 184.33 73.05 184.68 71.47 185.03 73.44 185.38 72.26 185.73 69.89 186.08 71.86 186.42 74.23 186.77 75.02 187.12 71.86 187.47 71.47 187.82 69.89 188.17 69.89 188.52 74.23 188.87 76.6 189.22 76.21 189.57 79.76 189.92 78.97 190.26 75.42 190.61 80.95 190.96 77.39 191.31 75.81 191.66 75.81 192.01 75.81 192.36 73.05 192.71 71.86 193.06 69.49 193.41 70.68 193.76 71.47 194.11 74.63 194.45 75.81 194.8 77 195.15 77 195.5 78.58 195.85 77.79 196.2 76.6"/>
      </g>
      <g stroke-width="0.3" fill="#000000" fill-opacity="0.000" class="geometry" stroke-dasharray="none" stroke="#E6F598" id="img-b79b781a-13">
        <path fill="none" d="M21.98,71.86 L 22.33 75.42 22.68 76.21 23.03 76.6 23.38 81.34 23.73 85.69 24.08 84.5 24.42 86.48 24.77 85.69 25.12 82.92 25.47 84.5 25.82 84.9 26.17 86.08 26.52 84.9 26.87 79.76 27.22 84.11 27.57 86.87 27.92 86.08 28.27 91.22 28.61 94.38 28.96 93.19 29.31 89.24 29.66 92.01 30.01 90.82 30.36 88.45 30.71 92.8 31.06 95.17 31.41 101.49 31.76 105.44 32.11 105.04 32.45 104.25 32.8 104.65 33.15 101.49 33.5 100.3 33.85 98.72 34.2 102.28 34.55 99.91 34.9 103.46 35.25 102.28 35.6 101.09 35.95 102.28 36.3 99.91 36.64 104.65 36.99 105.83 37.34 101.09 37.69 103.46 38.04 107.02 38.39 107.41 38.74 104.65 39.09 104.25 39.44 105.04 39.79 104.65 40.14 106.23 40.49 108.99 40.83 108.99 41.18 110.57 41.53 107.81 41.88 108.2 42.23 107.81 42.58 108.99 42.93 107.02 43.28 107.81 43.63 112.94 43.98 115.31 44.33 115.31 44.67 117.68 45.02 118.08 45.37 118.08 45.72 119.66 46.07 121.24 46.42 122.42 46.77 122.82 47.12 125.58 47.47 123.61 47.82 122.03 48.17 121.63 48.52 118.47 48.86 120.05 49.21 119.26 49.56 117.29 49.91 118.47 50.26 118.08 50.61 121.24 50.96 121.24 51.31 120.05 51.66 119.26 52.01 121.63 52.36 123.61 52.7 124.4 53.05 123.21 53.4 123.21 53.75 122.82 54.1 123.21 54.45 120.84 54.8 121.63 55.15 120.45 55.5 124.79 55.85 121.63 56.2 119.26 56.55 117.29 56.89 118.87 57.24 123.61 57.59 124 57.94 121.24 58.29 119.66 58.64 120.45 58.99 120.05 59.34 121.24 59.69 120.05 60.04 121.63 60.39 119.66 60.73 120.84 61.08 120.45 61.43 116.1 61.78 113.73 62.13 113.34 62.48 104.25 62.83 106.23 63.18 107.41 63.53 105.83 63.88 101.88 64.23 98.72 64.58 100.7 64.92 99.12 65.27 90.82 65.62 89.64 65.97 88.85 66.32 92.4 66.67 92.8 67.02 90.03 67.37 87.66 67.72 84.11 68.07 81.34 68.42 80.55 68.77 87.27 69.11 88.45 69.46 89.64 69.81 87.27 70.16 93.19 70.51 90.43 70.86 94.77 71.21 93.59 71.56 93.98 71.91 97.14 72.26 96.35 72.61 96.75 72.95 96.35 73.3 93.19 73.65 94.38 74 93.98 74.35 98.72 74.7 102.28 75.05 101.88 75.4 101.49 75.75 100.3 76.1 95.56 76.45 94.77 76.8 92.8 77.14 93.19 77.49 94.77 77.84 88.06 78.19 88.45 78.54 88.06 78.89 86.08 79.24 85.29 79.59 80.95 79.94 84.5 80.29 88.06 80.64 89.24 80.98 84.5 81.33 84.5 81.68 85.69 82.03 87.27 82.38 91.61 82.73 91.22 83.08 86.87 83.43 87.66 83.78 88.85 84.13 91.61 84.48 95.96 84.83 95.56 85.17 96.35 85.52 97.54 85.87 98.72 86.22 97.14 86.57 94.77 86.92 91.61 87.27 96.35 87.62 95.17 87.97 95.96 88.32 95.56 88.67 97.93 89.02 97.54 89.36 97.14 89.71 93.59 90.06 95.17 90.41 97.93 90.76 93.19 91.11 95.96 91.46 90.03 91.81 94.77 92.16 93.19 92.51 95.56 92.86 93.98 93.2 93.19 93.55 92.8 93.9 96.75 94.25 99.91 94.6 100.7 94.95 96.35 95.3 97.54 95.65 98.72 96 100.3 96.35 99.12 96.7 96.75 97.05 96.75 97.39 99.12 97.74 101.49 98.09 99.51 98.44 100.3 98.79 99.51 99.14 96.35 99.49 97.14 99.84 99.91 100.19 94.77 100.54 97.14 100.89 98.72 101.23 104.25 101.58 100.7 101.93 106.23 102.28 102.28 102.63 101.49 102.98 105.04 103.33 108.2 103.68 108.99 104.03 111.36 104.38 110.18 104.73 112.55 105.08 114.92 105.42 118.08 105.77 116.5 106.12 110.18 106.47 109.39 106.82 108.99 107.17 108.99 107.52 105.04 107.87 104.25 108.22 103.46 108.57 101.88 108.92 103.07 109.26 104.65 109.61 105.44 109.96 103.46 110.31 103.86 110.66 99.91 111.01 99.12 111.36 98.33 111.71 101.09 112.06 97.93 112.41 95.56 112.76 101.09 113.11 97.93 113.45 95.56 113.8 93.59 114.15 98.33 114.5 106.62 114.85 107.81 115.2 105.83 115.55 107.02 115.9 108.6 116.25 105.44 116.6 103.07 116.95 104.25 117.3 103.46 117.64 101.49 117.99 99.91 118.34 100.3 118.69 101.09 119.04 98.72 119.39 91.61 119.74 90.82 120.09 95.17 120.44 93.59 120.79 96.75 121.14 99.12 121.48 94.77 121.83 101.09 122.18 101.09 122.53 96.35 122.88 101.09 123.23 97.93 123.58 99.51 123.93 98.72 124.28 95.96 124.63 101.49 124.98 106.23 125.33 103.07 125.67 100.7 126.02 103.46 126.37 101.49 126.72 101.88 127.07 100.3 127.42 101.88 127.77 103.46 128.12 100.7 128.47 102.28 128.82 103.86 129.17 102.28 129.51 103.86 129.86 105.04 130.21 105.83 130.56 108.99 130.91 110.18 131.26 112.55 131.61 114.13 131.96 113.73 132.31 109.39 132.66 107.41 133.01 107.02 133.36 106.23 133.7 108.6 134.05 112.15 134.4 113.34 134.75 108.99 135.1 107.41 135.45 109.39 135.8 107.02 136.15 103.07 136.5 102.28 136.85 104.65 137.2 107.81 137.55 110.18 137.89 108.99 138.24 110.18 138.59 111.76 138.94 107.81 139.29 107.02 139.64 108.99 139.99 105.44 140.34 105.04 140.69 105.83 141.04 109.39 141.39 105.83 141.73 105.83 142.08 106.62 142.43 103.07 142.78 108.6 143.13 105.44 143.48 106.62 143.83 104.65 144.18 100.3 144.53 99.91 144.88 105.04 145.23 108.99 145.58 106.62 145.92 112.15 146.27 111.36 146.62 109.78 146.97 106.23 147.32 105.44 147.67 99.91 148.02 99.12 148.37 97.54 148.72 92.8 149.07 92.4 149.42 94.77 149.76 96.35 150.11 94.77 150.46 97.14 150.81 96.75 151.16 99.51 151.51 101.88 151.86 103.86 152.21 104.65 152.56 107.02 152.91 105.04 153.26 104.65 153.61 106.62 153.95 103.86 154.3 99.51 154.65 99.51 155 96.35 155.35 91.61 155.7 91.61 156.05 95.56 156.4 94.77 156.75 97.93 157.1 94.38 157.45 95.17 157.79 94.38 158.14 92.01 158.49 92.01 158.84 86.87 159.19 91.22 159.54 86.87 159.89 90.43 160.24 93.19 160.59 96.35 160.94 102.67 161.29 94.38 161.64 97.93 161.98 97.14 162.33 93.59 162.68 90.43 163.03 92.8 163.38 86.08 163.73 88.45 164.08 93.19 164.43 90.43 164.78 93.98 165.13 89.24 165.48 89.64 165.83 84.11 166.17 76.6 166.52 78.97 166.87 75.02 167.22 70.68 167.57 72.65 167.92 76.21 168.27 76.21 168.62 76.6 168.97 79.37 169.32 80.16 169.67 73.44 170.01 71.07 170.36 78.18 170.71 77.39 171.06 80.55 171.41 79.76 171.76 77.39 172.11 83.32 172.46 79.37 172.81 80.16 173.16 85.29 173.51 87.66 173.86 82.13 174.2 84.9 174.55 85.69 174.9 90.43 175.25 85.69 175.6 84.9 175.95 78.58 176.3 80.55 176.65 77.39 177 77 177.35 76.21 177.7 72.26 178.04 75.42 178.39 77.79 178.74 75.02 179.09 71.47 179.44 69.49 179.79 69.49 180.14 66.73 180.49 60.8 180.84 69.89 181.19 71.07 181.54 65.54 181.89 61.99 182.23 61.99 182.58 61.59 182.93 58.04 183.28 57.25 183.63 59.22 183.98 58.04 184.33 65.54 184.68 63.57 185.03 62.38 185.38 60.41 185.73 62.78 186.08 65.54 186.42 63.17 186.77 61.59 187.12 64.75 187.47 67.91 187.82 71.47 188.17 68.7 188.52 69.49 188.87 72.65 189.22 66.33 189.57 65.94 189.92 58.04 190.26 57.64 190.61 55.67 190.96 54.88 191.31 57.64 191.66 61.2 192.01 57.25 192.36 58.83 192.71 57.64 193.06 54.88 193.41 56.85 193.76 56.85 194.11 57.64 194.45 54.09 194.8 56.46 195.15 60.41 195.5 62.78 195.85 61.2 196.2 65.15"/>
      </g>
      <g stroke-width="0.3" fill="#000000" fill-opacity="0.000" class="geometry" stroke-dasharray="none" stroke="#FFFFBF" id="img-b79b781a-14">
        <path fill="none" d="M21.98,71.86 L 22.33 71.86 22.68 66.73 23.03 67.12 23.38 71.47 23.73 69.49 24.08 71.07 24.42 73.84 24.77 78.58 25.12 73.05 25.47 73.05 25.82 67.91 26.17 65.54 26.52 65.54 26.87 71.86 27.22 67.91 27.57 69.1 27.92 75.81 28.27 77 28.61 73.05 28.96 65.94 29.31 65.54 29.66 67.52 30.01 68.7 30.36 67.91 30.71 69.89 31.06 79.76 31.41 78.97 31.76 73.44 32.11 75.81 32.45 72.65 32.8 68.31 33.15 68.31 33.5 67.91 33.85 69.89 34.2 68.31 34.55 69.89 34.9 69.49 35.25 68.7 35.6 65.54 35.95 59.62 36.3 51.72 36.64 49.74 36.99 51.32 37.34 41.84 37.69 41.84 38.04 43.42 38.39 41.84 38.74 43.42 39.09 43.42 39.44 41.45 39.79 39.87 40.14 37.89 40.49 37.89 40.83 36.71 41.18 37.89 41.53 34.73 41.88 35.52 42.23 34.73 42.58 37.1 42.93 42.24 43.28 40.26 43.63 41.05 43.98 42.63 44.33 39.08 44.67 35.13 45.02 35.92 45.37 36.31 45.72 39.47 46.07 43.42 46.42 45 46.77 45 47.12 43.82 47.47 45.79 47.82 39.47 48.17 38.29 48.52 37.1 48.86 33.94 49.21 33.94 49.56 37.1 49.91 42.24 50.26 38.29 50.61 35.52 50.96 34.73 51.31 30.39 51.66 30.39 52.01 31.18 52.36 31.18 52.7 33.94 53.05 35.13 53.4 35.52 53.75 36.31 54.1 39.08 54.45 39.87 54.8 35.92 55.15 35.92 55.5 36.31 55.85 36.31 56.2 32.36 56.55 30.78 56.89 26.44 57.24 28.02 57.59 33.15 57.94 32.76 58.29 31.97 58.64 35.52 58.99 41.45 59.34 41.45 59.69 43.82 60.04 43.82 60.39 40.66 60.73 37.1 61.08 35.92 61.43 37.1 61.78 38.29 62.13 40.26 62.48 41.84 62.83 37.89 63.18 39.47 63.53 39.87 63.88 37.89 64.23 38.68 64.58 38.68 64.92 37.1 65.27 32.76 65.62 31.18 65.97 33.15 66.32 33.94 66.67 36.31 67.02 37.5 67.37 37.1 67.72 35.92 68.07 34.73 68.42 33.55 68.77 28.02 69.11 28.02 69.46 29.2 69.81 27.23 70.16 29.6 70.51 28.02 70.86 29.99 71.21 31.57 71.56 30.39 71.91 27.23 72.26 25.25 72.61 23.67 72.95 24.07 73.3 26.44 73.65 24.07 74 22.49 74.35 21.3 74.7 21.7 75.05 18.14 75.4 18.54 75.75 21.3 76.1 20.12 76.45 21.7 76.8 24.86 77.14 24.46 77.49 24.86 77.84 26.44 78.19 27.23 78.54 25.65 78.89 26.83 79.24 27.23 79.59 27.62 79.94 29.6 80.29 25.65 80.64 28.41 80.98 29.99 81.33 30.39 81.68 28.81 82.03 25.65 82.38 21.3 82.73 21.3 83.08 20.12 83.43 22.09 83.78 18.93 84.13 21.7 84.48 20.51 84.83 19.72 85.17 20.51 85.52 19.72 85.87 21.7 86.22 21.7 86.57 24.46 86.92 26.04 87.27 27.23 87.62 26.83 87.97 23.28 88.32 22.09 88.67 20.12 89.02 20.51 89.36 23.67 89.71 24.86 90.06 21.7 90.41 23.28 90.76 26.83 91.11 26.04 91.46 23.28 91.81 21.7 92.16 19.33 92.51 19.33 92.86 18.54 93.2 18.93 93.55 16.56 93.9 15.38 94.25 15.77 94.6 14.98 94.95 14.98 95.3 14.98 95.65 16.56 96 16.56 96.35 14.98 96.7 15.38 97.05 14.98 97.39 15.77 97.74 15.77 98.09 16.17 98.44 15.77 98.79 14.98 99.14 13.8 99.49 15.77 99.84 16.17 100.19 16.96 100.54 17.35 100.89 17.35 101.23 16.96 101.58 17.35 101.93 17.75 102.28 20.12 102.63 19.72 102.98 19.72 103.33 18.54 103.68 17.35 104.03 16.56 104.38 18.14 104.73 18.93 105.08 19.72 105.42 17.75 105.77 18.14 106.12 16.96 106.47 18.93 106.82 15.77 107.17 14.98 107.52 14.98 107.87 15.38 108.22 15.38 108.57 16.56 108.92 17.75 109.26 19.33 109.61 20.12 109.96 22.09 110.31 20.51 110.66 20.91 111.01 20.51 111.36 20.51 111.71 20.12 112.06 21.3 112.41 23.28 112.76 24.07 113.11 24.86 113.45 25.25 113.8 26.44 114.15 25.65 114.5 25.65 114.85 24.07 115.2 27.62 115.55 24.46 115.9 23.67 116.25 22.49 116.6 24.07 116.95 22.49 117.3 20.51 117.64 18.54 117.99 20.12 118.34 23.28 118.69 24.07 119.04 25.25 119.39 26.04 119.74 29.99 120.09 28.02 120.44 30.39 120.79 29.99 121.14 32.36 121.48 35.52 121.83 38.29 122.18 36.31 122.53 39.87 122.88 39.47 123.23 36.71 123.58 33.94 123.93 33.15 124.28 33.94 124.63 31.18 124.98 32.76 125.33 31.97 125.67 29.6 126.02 33.55 126.37 30.39 126.72 27.23 127.07 26.04 127.42 28.81 127.77 29.6 128.12 29.2 128.47 27.23 128.82 26.44 129.17 28.81 129.51 27.62 129.86 30.78 130.21 28.41 130.56 28.02 130.91 28.81 131.26 28.81 131.61 26.44 131.96 29.2 132.31 31.97 132.66 33.94 133.01 35.13 133.36 30.78 133.7 30.78 134.05 32.36 134.4 37.5 134.75 39.87 135.1 36.31 135.45 39.08 135.8 37.5 136.15 29.99 136.5 26.83 136.85 24.07 137.2 26.44 137.55 27.23 137.89 27.23 138.24 26.44 138.59 26.44 138.94 28.02 139.29 29.99 139.64 30.39 139.99 29.6 140.34 28.41 140.69 27.62 141.04 28.81 141.39 28.02 141.73 28.02 142.08 29.6 142.43 31.97 142.78 34.34 143.13 33.15 143.48 29.6 143.83 29.2 144.18 26.83 144.53 28.41 144.88 27.62 145.23 28.81 145.58 29.2 145.92 32.36 146.27 35.92 146.62 34.34 146.97 29.99 147.32 29.99 147.67 27.23 148.02 27.62 148.37 27.62 148.72 30.78 149.07 26.83 149.42 28.41 149.76 31.18 150.11 29.2 150.46 32.76 150.81 31.97 151.16 32.36 151.51 28.81 151.86 29.6 152.21 34.73 152.56 32.36 152.91 29.2 153.26 29.6 153.61 28.02 153.95 25.65 154.3 20.91 154.65 22.09 155 22.09 155.35 21.3 155.7 21.3 156.05 20.91 156.4 19.72 156.75 20.12 157.1 20.51 157.45 20.51 157.79 18.93 158.14 16.96 158.49 18.14 158.84 20.51 159.19 19.33 159.54 18.54 159.89 18.93 160.24 18.93 160.59 18.14 160.94 16.96 161.29 16.56 161.64 16.96 161.98 16.96 162.33 18.14 162.68 16.56 163.03 17.75 163.38 16.96 163.73 19.33 164.08 20.12 164.43 23.28 164.78 24.46 165.13 24.46 165.48 26.44 165.83 24.46 166.17 22.88 166.52 26.04 166.87 24.86 167.22 24.46 167.57 26.04 167.92 30.39 168.27 28.41 168.62 31.18 168.97 33.15 169.32 30.78 169.67 30.78 170.01 25.65 170.36 29.6 170.71 23.67 171.06 23.28 171.41 24.07 171.76 25.65 172.11 28.81 172.46 28.41 172.81 22.49 173.16 22.09 173.51 20.51 173.86 17.75 174.2 16.17 174.55 14.98 174.9 14.19 175.25 15.38 175.6 14.98 175.95 14.98 176.3 14.98 176.65 14.19 177 13.8 177.35 13.4 177.7 14.19 178.04 14.98 178.39 15.77 178.74 15.77 179.09 15.38 179.44 14.59 179.79 13.8 180.14 14.98 180.49 15.77 180.84 16.17 181.19 14.59 181.54 13.01 181.89 13.4 182.23 14.19 182.58 14.98 182.93 15.77 183.28 16.96 183.63 18.14 183.98 19.33 184.33 19.72 184.68 20.51 185.03 18.14 185.38 16.56 185.73 18.54 186.08 18.14 186.42 17.35 186.77 16.96 187.12 17.35 187.47 15.38 187.82 14.59 188.17 14.59 188.52 15.77 188.87 13.8 189.22 13.8 189.57 14.98 189.92 14.19 190.26 15.77 190.61 15.38 190.96 15.77 191.31 15.38 191.66 14.59 192.01 17.75 192.36 18.54 192.71 18.93 193.06 18.14 193.41 17.75 193.76 20.12 194.11 20.51 194.45 19.72 194.8 20.51 195.15 21.7 195.5 20.91 195.85 22.09 196.2 22.49"/>
      </g>
      <g stroke-width="0.3" fill="#000000" fill-opacity="0.000" class="geometry" stroke-dasharray="none" stroke="#FEE08B" id="img-b79b781a-15">
        <path fill="none" d="M21.98,71.86 L 22.33 65.15 22.68 60.8 23.03 61.2 23.38 58.04 23.73 56.85 24.08 56.06 24.42 58.83 24.77 60.8 25.12 62.38 25.47 65.15 25.82 65.94 26.17 63.17 26.52 65.15 26.87 63.17 27.22 62.78 27.57 65.94 27.92 68.7 28.27 63.57 28.61 62.38 28.96 58.04 29.31 57.25 29.66 59.22 30.01 55.27 30.36 54.88 30.71 52.11 31.06 48.95 31.41 48.16 31.76 45.79 32.11 39.08 32.45 39.47 32.8 39.47 33.15 41.05 33.5 41.05 33.85 41.45 34.2 39.08 34.55 39.08 34.9 46.19 35.25 44.61 35.6 45.79 35.95 42.24 36.3 47.77 36.64 52.11 36.99 50.53 37.34 46.98 37.69 44.61 38.04 42.63 38.39 41.45 38.74 38.29 39.09 39.08 39.44 40.26 39.79 47.37 40.14 52.9 40.49 50.93 40.83 52.11 41.18 54.88 41.53 54.48 41.88 55.67 42.23 53.69 42.58 52.9 42.93 55.27 43.28 52.51 43.63 51.72 43.98 50.53 44.33 43.42 44.67 46.98 45.02 39.47 45.37 44.61 45.72 45.4 46.07 47.37 46.42 46.19 46.77 49.35 47.12 52.11 47.47 57.25 47.82 58.43 48.17 61.2 48.52 60.41 48.86 56.06 49.21 60.01 49.56 59.22 49.91 64.36 50.26 65.94 50.61 65.54 50.96 64.75 51.31 68.31 51.66 69.1 52.01 65.15 52.36 62.38 52.7 67.52 53.05 63.57 53.4 60.01 53.75 60.01 54.1 58.43 54.45 58.43 54.8 55.27 55.15 55.67 55.5 62.78 55.85 67.91 56.2 65.94 56.55 61.59 56.89 56.06 57.24 54.09 57.59 54.88 57.94 57.25 58.29 61.2 58.64 65.94 58.99 60.01 59.34 61.99 59.69 62.38 60.04 68.7 60.39 73.84 60.73 70.28 61.08 72.65 61.43 72.26 61.78 70.68 62.13 71.07 62.48 65.94 62.83 67.12 63.18 65.15 63.53 61.59 63.88 56.46 64.23 58.83 64.58 56.85 64.92 52.9 65.27 59.22 65.62 54.88 65.97 56.06 66.32 54.88 66.67 59.22 67.02 64.36 67.37 63.96 67.72 69.1 68.07 69.1 68.42 65.15 68.77 66.33 69.11 68.31 69.46 71.07 69.81 71.47 70.16 71.47 70.51 65.94 70.86 71.86 71.21 74.23 71.56 80.16 71.91 83.71 72.26 82.92 72.61 80.55 72.95 75.02 73.3 76.6 73.65 83.32 74 82.13 74.35 84.9 74.7 81.34 75.05 85.69 75.4 86.08 75.75 84.5 76.1 84.5 76.45 79.37 76.8 71.07 77.14 72.65 77.49 72.26 77.84 70.28 78.19 71.07 78.54 67.91 78.89 68.31 79.24 71.47 79.59 72.26 79.94 73.84 80.29 71.47 80.64 69.1 80.98 71.86 81.33 62.38 81.68 63.17 82.03 61.99 82.38 66.33 82.73 61.2 83.08 59.22 83.43 54.88 83.78 53.3 84.13 51.72 84.48 54.09 84.83 51.32 85.17 59.62 85.52 58.04 85.87 60.8 86.22 62.78 86.57 64.75 86.92 62.38 87.27 64.75 87.62 61.59 87.97 61.2 88.32 60.41 88.67 60.8 89.02 62.78 89.36 58.83 89.71 62.78 90.06 58.83 90.41 59.22 90.76 58.83 91.11 56.06 91.46 55.67 91.81 53.69 92.16 53.3 92.51 56.06 92.86 61.59 93.2 61.99 93.55 57.25 93.9 58.43 94.25 59.22 94.6 56.06 94.95 59.62 95.3 60.41 95.65 59.62 96 54.48 96.35 56.06 96.7 46.98 97.05 43.82 97.39 42.63 97.74 45.4 98.09 44.21 98.44 43.42 98.79 37.5 99.14 36.71 99.49 38.29 99.84 38.29 100.19 41.05 100.54 40.26 100.89 40.66 101.23 43.42 101.58 42.24 101.93 42.63 102.28 40.66 102.63 38.29 102.98 40.26 103.33 37.5 103.68 39.87 104.03 41.45 104.38 44.21 104.73 41.84 105.08 39.08 105.42 41.84 105.77 38.68 106.12 40.26 106.47 42.24 106.82 35.52 107.17 34.73 107.52 33.55 107.87 38.29 108.22 36.31 108.57 36.71 108.92 40.66 109.26 45.4 109.61 42.24 109.96 43.42 110.31 41.45 110.66 47.77 111.01 48.95 111.36 52.9 111.71 51.32 112.06 61.99 112.41 61.59 112.76 59.22 113.11 64.36 113.45 61.2 113.8 65.54 114.15 68.31 114.5 68.7 114.85 60.8 115.2 57.64 115.55 56.85 115.9 53.69 116.25 52.11 116.6 47.77 116.95 52.9 117.3 55.27 117.64 56.85 117.99 52.9 118.34 54.09 118.69 54.88 119.04 60.41 119.39 58.83 119.74 63.96 120.09 70.28 120.44 71.47 120.79 74.23 121.14 76.6 121.48 75.42 121.83 71.07 122.18 70.68 122.53 73.44 122.88 68.7 123.23 71.86 123.58 72.65 123.93 77.79 124.28 80.55 124.63 81.74 124.98 85.29 125.33 83.71 125.67 82.53 126.02 80.95 126.37 83.32 126.72 85.29 127.07 84.9 127.42 84.9 127.77 76.6 128.12 78.97 128.47 80.95 128.82 76.21 129.17 76.21 129.51 73.05 129.86 70.28 130.21 71.47 130.56 71.86 130.91 67.52 131.26 68.31 131.61 73.05 131.96 72.65 132.31 78.58 132.66 77.39 133.01 76.6 133.36 80.55 133.7 78.58 134.05 80.16 134.4 81.34 134.75 80.16 135.1 77.39 135.45 77.79 135.8 82.53 136.15 85.29 136.5 82.53 136.85 82.92 137.2 80.55 137.55 78.18 137.89 81.34 138.24 81.34 138.59 83.32 138.94 84.11 139.29 80.16 139.64 78.18 139.99 80.55 140.34 82.53 140.69 81.34 141.04 84.11 141.39 84.5 141.73 90.43 142.08 90.43 142.43 86.87 142.78 83.71 143.13 80.55 143.48 78.18 143.83 78.58 144.18 80.95 144.53 74.63 144.88 75.02 145.23 70.28 145.58 68.31 145.92 69.89 146.27 72.65 146.62 69.1 146.97 68.7 147.32 63.57 147.67 67.91 148.02 71.47 148.37 75.81 148.72 81.34 149.07 80.55 149.42 86.87 149.76 84.9 150.11 85.69 150.46 84.5 150.81 84.9 151.16 86.87 151.51 88.06 151.86 84.5 152.21 77.79 152.56 73.44 152.91 75.02 153.26 76.21 153.61 76.6 153.95 75.81 154.3 77.39 154.65 80.55 155 77 155.35 75.81 155.7 75.81 156.05 75.02 156.4 80.16 156.75 83.32 157.1 82.92 157.45 83.71 157.79 81.74 158.14 85.29 158.49 77.39 158.84 77.79 159.19 73.44 159.54 76.21 159.89 77 160.24 78.97 160.59 81.74 160.94 81.74 161.29 77 161.64 79.37 161.98 72.65 162.33 78.18 162.68 78.97 163.03 82.92 163.38 79.37 163.73 84.9 164.08 85.29 164.43 83.32 164.78 84.11 165.13 79.76 165.48 80.16 165.83 84.11 166.17 85.29 166.52 90.43 166.87 88.45 167.22 88.85 167.57 89.64 167.92 95.96 168.27 98.72 168.62 101.09 168.97 98.72 169.32 97.54 169.67 93.98 170.01 93.19 170.36 95.56 170.71 95.96 171.06 99.91 171.41 101.88 171.76 102.28 172.11 101.49 172.46 97.14 172.81 97.14 173.16 95.96 173.51 95.56 173.86 95.56 174.2 97.54 174.55 95.96 174.9 95.96 175.25 92.4 175.6 88.06 175.95 93.19 176.3 90.82 176.65 93.59 177 93.59 177.35 91.22 177.7 90.82 178.04 88.45 178.39 89.64 178.74 88.85 179.09 91.61 179.44 92.01 179.79 88.85 180.14 85.29 180.49 85.69 180.84 80.95 181.19 76.21 181.54 70.28 181.89 71.86 182.23 70.28 182.58 67.12 182.93 61.99 183.28 62.78 183.63 66.33 183.98 67.91 184.33 67.91 184.68 57.64 185.03 59.62 185.38 63.17 185.73 57.25 186.08 56.06 186.42 61.2 186.77 62.78 187.12 66.33 187.47 65.54 187.82 71.07 188.17 72.65 188.52 75.42 188.87 78.97 189.22 75.42 189.57 71.47 189.92 76.21 190.26 78.18 190.61 72.65 190.96 73.84 191.31 77 191.66 75.81 192.01 78.58 192.36 78.97 192.71 77.39 193.06 73.44 193.41 75.81 193.76 78.58 194.11 79.76 194.45 79.37 194.8 82.13 195.15 82.13 195.5 76.21 195.85 79.76 196.2 85.29"/>
      </g>
      <g stroke-width="0.3" fill="#000000" fill-opacity="0.000" class="geometry" stroke-dasharray="none" stroke="#FDAE61" id="img-b79b781a-16">
        <path fill="none" d="M21.98,71.86 L 22.33 72.65 22.68 69.89 23.03 70.28 23.38 75.02 23.73 76.21 24.08 78.58 24.42 80.55 24.77 78.58 25.12 77.39 25.47 75.42 25.82 75.02 26.17 75.42 26.52 68.31 26.87 67.52 27.22 62.38 27.57 67.12 27.92 63.17 28.27 66.33 28.61 65.15 28.96 67.52 29.31 69.49 29.66 69.49 30.01 65.94 30.36 67.91 30.71 65.15 31.06 63.96 31.41 61.2 31.76 61.99 32.11 63.96 32.45 63.57 32.8 60.01 33.15 57.64 33.5 61.59 33.85 51.72 34.2 49.74 34.55 49.35 34.9 53.3 35.25 51.32 35.6 49.35 35.95 46.98 36.3 53.3 36.64 54.09 36.99 57.64 37.34 61.99 37.69 63.57 38.04 64.36 38.39 63.96 38.74 61.99 39.09 59.22 39.44 61.2 39.79 60.8 40.14 68.7 40.49 72.26 40.83 72.65 41.18 76.21 41.53 76.21 41.88 71.47 42.23 77.39 42.58 80.55 42.93 75.81 43.28 70.68 43.63 78.97 43.98 81.34 44.33 81.34 44.67 84.11 45.02 75.81 45.37 82.53 45.72 77.79 46.07 84.9 46.42 86.08 46.77 86.08 47.12 89.64 47.47 90.43 47.82 92.4 48.17 96.35 48.52 93.59 48.86 92.01 49.21 85.29 49.56 89.24 49.91 90.03 50.26 82.53 50.61 79.76 50.96 80.55 51.31 81.74 51.66 84.9 52.01 82.13 52.36 78.18 52.7 80.16 53.05 75.81 53.4 73.84 53.75 76.6 54.1 75.81 54.45 71.07 54.8 73.05 55.15 74.23 55.5 67.91 55.85 68.31 56.2 68.31 56.55 64.75 56.89 66.73 57.24 63.57 57.59 67.12 57.94 67.91 58.29 68.31 58.64 69.49 58.99 70.68 59.34 72.65 59.69 72.26 60.04 68.7 60.39 69.1 60.73 71.86 61.08 69.49 61.43 73.84 61.78 73.05 62.13 69.89 62.48 72.65 62.83 77.39 63.18 77.39 63.53 78.58 63.88 84.11 64.23 84.11 64.58 88.06 64.92 88.45 65.27 84.5 65.62 85.29 65.97 81.74 66.32 82.53 66.67 86.08 67.02 86.08 67.37 84.9 67.72 80.16 68.07 74.23 68.42 77.39 68.77 72.26 69.11 71.07 69.46 71.86 69.81 68.31 70.16 66.73 70.51 65.15 70.86 67.52 71.21 68.31 71.56 70.28 71.91 64.75 72.26 63.17 72.61 66.33 72.95 66.33 73.3 69.89 73.65 74.63 74 73.05 74.35 74.23 74.7 76.21 75.05 78.58 75.4 83.32 75.75 78.58 76.1 74.63 76.45 75.02 76.8 71.07 77.14 66.73 77.49 69.1 77.84 64.75 78.19 59.62 78.54 60.41 78.89 62.78 79.24 61.59 79.59 68.7 79.94 63.17 80.29 69.49 80.64 67.91 80.98 63.96 81.33 67.12 81.68 60.01 82.03 61.59 82.38 56.85 82.73 57.25 83.08 62.38 83.43 62.38 83.78 56.46 84.13 58.83 84.48 55.27 84.83 54.09 85.17 58.04 85.52 50.93 85.87 52.51 86.22 54.09 86.57 52.11 86.92 50.53 87.27 47.37 87.62 45.79 87.97 52.51 88.32 55.27 88.67 52.51 89.02 53.3 89.36 53.3 89.71 52.11 90.06 47.37 90.41 46.19 90.76 48.16 91.11 49.35 91.46 44.21 91.81 44.61 92.16 51.72 92.51 56.85 92.86 52.11 93.2 49.74 93.55 46.98 93.9 47.77 94.25 49.74 94.6 52.51 94.95 50.14 95.3 46.58 95.65 46.19 96 46.98 96.35 53.3 96.7 54.48 97.05 55.27 97.39 53.69 97.74 56.46 98.09 56.85 98.44 57.64 98.79 63.17 99.14 62.38 99.49 59.62 99.84 55.67 100.19 55.27 100.54 54.09 100.89 49.74 101.23 51.32 101.58 49.74 101.93 52.11 102.28 52.11 102.63 44.21 102.98 47.37 103.33 46.58 103.68 51.32 104.03 51.72 104.38 52.9 104.73 54.09 105.08 52.9 105.42 50.93 105.77 51.32 106.12 50.14 106.47 48.95 106.82 54.88 107.17 55.67 107.52 57.25 107.87 55.27 108.22 54.88 108.57 56.46 108.92 54.09 109.26 48.16 109.61 46.19 109.96 46.19 110.31 49.74 110.66 48.56 111.01 46.98 111.36 49.74 111.71 52.51 112.06 53.3 112.41 51.32 112.76 53.69 113.11 54.09 113.45 53.3 113.8 53.69 114.15 52.11 114.5 52.51 114.85 58.04 115.2 55.67 115.55 57.25 115.9 62.38 116.25 62.78 116.6 61.99 116.95 65.15 117.3 58.43 117.64 61.59 117.99 60.01 118.34 59.22 118.69 54.88 119.04 56.46 119.39 53.69 119.74 54.88 120.09 53.3 120.44 54.88 120.79 56.46 121.14 56.85 121.48 56.46 121.83 58.04 122.18 59.62 122.53 59.22 122.88 62.38 123.23 60.41 123.58 64.36 123.93 65.94 124.28 64.75 124.63 65.15 124.98 61.2 125.33 55.27 125.67 58.04 126.02 63.96 126.37 58.43 126.72 61.2 127.07 58.83 127.42 58.43 127.77 55.67 128.12 59.62 128.47 61.59 128.82 61.2 129.17 61.2 129.51 62.78 129.86 60.8 130.21 59.62 130.56 62.38 130.91 60.8 131.26 60.01 131.61 63.57 131.96 63.17 132.31 62.38 132.66 61.99 133.01 57.64 133.36 59.62 133.7 58.83 134.05 54.09 134.4 50.93 134.75 51.32 135.1 50.53 135.45 49.74 135.8 52.51 136.15 55.67 136.5 57.25 136.85 53.3 137.2 46.19 137.55 48.95 137.89 47.77 138.24 48.95 138.59 49.74 138.94 48.95 139.29 48.16 139.64 44.61 139.99 44.61 140.34 43.82 140.69 47.37 141.04 53.3 141.39 52.9 141.73 52.51 142.08 52.11 142.43 48.56 142.78 43.42 143.13 43.42 143.48 46.58 143.83 49.74 144.18 54.09 144.53 46.58 144.88 42.63 145.23 42.63 145.58 42.63 145.92 47.37 146.27 44.21 146.62 43.82 146.97 43.03 147.32 41.45 147.67 38.68 148.02 42.24 148.37 37.1 148.72 38.29 149.07 39.87 149.42 35.13 149.76 32.36 150.11 28.02 150.46 27.62 150.81 26.83 151.16 30.78 151.51 31.97 151.86 33.94 152.21 29.99 152.56 31.97 152.91 32.36 153.26 33.15 153.61 36.71 153.95 35.52 154.3 35.92 154.65 33.15 155 36.31 155.35 35.13 155.7 37.5 156.05 35.52 156.4 42.24 156.75 45.4 157.1 52.9 157.45 58.43 157.79 60.01 158.14 58.43 158.49 55.67 158.84 52.51 159.19 52.51 159.54 51.32 159.89 52.9 160.24 49.35 160.59 51.72 160.94 53.3 161.29 53.3 161.64 58.04 161.98 60.8 162.33 60.41 162.68 56.06 163.03 55.27 163.38 57.64 163.73 56.46 164.08 57.25 164.43 50.14 164.78 48.56 165.13 47.77 165.48 49.74 165.83 46.98 166.17 45.79 166.52 46.58 166.87 46.19 167.22 46.19 167.57 43.42 167.92 48.56 168.27 52.11 168.62 50.14 168.97 47.37 169.32 53.69 169.67 56.46 170.01 55.27 170.36 53.69 170.71 52.51 171.06 52.9 171.41 56.85 171.76 55.27 172.11 57.25 172.46 51.72 172.81 43.42 173.16 44.61 173.51 50.93 173.86 50.14 174.2 45.4 174.55 45.79 174.9 43.82 175.25 48.16 175.6 52.9 175.95 58.04 176.3 55.27 176.65 58.04 177 58.83 177.35 54.88 177.7 48.56 178.04 48.16 178.39 43.03 178.74 42.24 179.09 41.45 179.44 37.1 179.79 38.68 180.14 35.52 180.49 35.13 180.84 36.31 181.19 37.5 181.54 38.68 181.89 40.26 182.23 41.84 182.58 41.05 182.93 41.05 183.28 38.68 183.63 39.47 183.98 40.66 184.33 39.08 184.68 39.87 185.03 37.89 185.38 41.05 185.73 37.1 186.08 36.71 186.42 34.34 186.77 36.31 187.12 31.57 187.47 32.76 187.82 37.89 188.17 38.68 188.52 37.5 188.87 41.45 189.22 40.26 189.57 42.24 189.92 44.21 190.26 48.16 190.61 42.63 190.96 44.21 191.31 49.74 191.66 49.74 192.01 53.69 192.36 45 192.71 46.98 193.06 43.82 193.41 48.56 193.76 44.61 194.11 41.05 194.45 43.42 194.8 45.4 195.15 44.61 195.5 42.24 195.85 42.63 196.2 41.05"/>
      </g>
      <g stroke-width="0.3" fill="#000000" fill-opacity="0.000" class="geometry" stroke-dasharray="none" stroke="#F46D43" id="img-b79b781a-17">
        <path fill="none" d="M21.98,71.86 L 22.33 71.07 22.68 67.91 23.03 61.59 23.38 58.04 23.73 60.01 24.08 60.8 24.42 56.46 24.77 54.48 25.12 54.88 25.47 50.14 25.82 51.32 26.17 52.9 26.52 52.9 26.87 48.56 27.22 46.98 27.57 45 27.92 45.79 28.27 48.16 28.61 43.82 28.96 39.47 29.31 44.21 29.66 42.63 30.01 38.68 30.36 34.73 30.71 36.31 31.06 30.39 31.41 33.94 31.76 32.36 32.11 32.36 32.45 35.13 32.8 34.73 33.15 35.13 33.5 33.15 33.85 37.5 34.2 36.31 34.55 34.34 34.9 34.34 35.25 34.34 35.6 38.68 35.95 35.92 36.3 31.57 36.64 31.57 36.99 28.81 37.34 25.25 37.69 26.83 38.04 27.23 38.39 29.99 38.74 26.44 39.09 31.57 39.44 31.97 39.79 32.76 40.14 31.18 40.49 31.18 40.83 29.99 41.18 27.62 41.53 24.86 41.88 24.46 42.23 24.46 42.58 24.86 42.93 28.41 43.28 28.02 43.63 28.81 43.98 29.99 44.33 24.86 44.67 22.88 45.02 22.49 45.37 19.72 45.72 19.72 46.07 19.33 46.42 18.93 46.77 17.75 47.12 20.12 47.47 20.12 47.82 20.91 48.17 19.72 48.52 20.12 48.86 18.93 49.21 16.56 49.56 18.54 49.91 16.56 50.26 14.59 50.61 14.19 50.96 14.19 51.31 14.59 51.66 15.38 52.01 14.98 52.36 14.19 52.7 13.4 53.05 13.8 53.4 13.8 53.75 13.4 54.1 13.01 54.45 13.8 54.8 13.8 55.15 13.8 55.5 13.4 55.85 14.98 56.2 14.19 56.55 13.8 56.89 14.59 57.24 14.59 57.59 15.38 57.94 15.38 58.29 15.38 58.64 14.98 58.99 17.75 59.34 18.14 59.69 18.54 60.04 18.93 60.39 19.72 60.73 22.88 61.08 23.67 61.43 24.86 61.78 25.65 62.13 25.65 62.48 27.23 62.83 25.25 63.18 26.04 63.53 25.65 63.88 24.46 64.23 23.28 64.58 24.46 64.92 24.86 65.27 24.46 65.62 25.25 65.97 23.67 66.32 26.04 66.67 25.25 67.02 23.28 67.37 22.09 67.72 20.51 68.07 18.54 68.42 17.35 68.77 17.35 69.11 18.14 69.46 21.3 69.81 21.7 70.16 23.28 70.51 25.25 70.86 24.86 71.21 23.67 71.56 22.09 71.91 23.28 72.26 23.67 72.61 28.02 72.95 27.23 73.3 31.57 73.65 29.6 74 26.44 74.35 24.46 74.7 23.67 75.05 25.65 75.4 26.83 75.75 26.83 76.1 22.88 76.45 23.28 76.8 27.23 77.14 26.83 77.49 24.86 77.84 26.04 78.19 27.62 78.54 26.44 78.89 26.04 79.24 27.62 79.59 29.6 79.94 28.81 80.29 27.62 80.64 31.18 80.98 31.18 81.33 30.39 81.68 26.83 82.03 23.28 82.38 24.46 82.73 23.67 83.08 22.88 83.43 23.67 83.78 23.28 84.13 18.14 84.48 18.14 84.83 20.51 85.17 22.88 85.52 20.12 85.87 18.14 86.22 18.93 86.57 17.35 86.92 19.33 87.27 19.33 87.62 16.96 87.97 16.17 88.32 16.56 88.67 15.77 89.02 14.59 89.36 14.19 89.71 14.19 90.06 14.19 90.41 13.4 90.76 14.59 91.11 14.19 91.46 14.19 91.81 16.17 92.16 18.14 92.51 17.35 92.86 17.35 93.2 15.77 93.55 16.17 93.9 15.38 94.25 14.59 94.6 13.8 94.95 13.4 95.3 15.77 95.65 17.35 96 15.38 96.35 16.17 96.7 15.38 97.05 17.75 97.39 17.35 97.74 18.93 98.09 19.72 98.44 20.12 98.79 20.51 99.14 22.88 99.49 23.28 99.84 20.51 100.19 22.09 100.54 18.54 100.89 21.3 101.23 22.88 101.58 20.51 101.93 19.33 102.28 17.75 102.63 16.56 102.98 15.38 103.33 15.38 103.68 15.38 104.03 14.19 104.38 14.59 104.73 13.8 105.08 14.59 105.42 15.38 105.77 14.59 106.12 13.8 106.47 13.4 106.82 13.01 107.17 12.61 107.52 12.61 107.87 12.61 108.22 12.61 108.57 12.61 108.92 12.61 109.26 12.61 109.61 12.61 109.96 12.61 110.31 12.61 110.66 12.61 111.01 13.01 111.36 13.8 111.71 13.4 112.06 12.61 112.41 12.61 112.76 12.61 113.11 13.4 113.45 14.59 113.8 15.38 114.15 16.56 114.5 16.56 114.85 16.96 115.2 15.38 115.55 14.59 115.9 14.59 116.25 13.8 116.6 13.8 116.95 13.4 117.3 13.8 117.64 12.61 117.99 13.01 118.34 12.61 118.69 12.61 119.04 12.61 119.39 12.61 119.74 12.61 120.09 12.61 120.44 12.61 120.79 12.61 121.14 12.61 121.48 12.61 121.83 13.01 122.18 12.61 122.53 13.4 122.88 13.8 123.23 14.98 123.58 15.77 123.93 16.17 124.28 16.96 124.63 18.14 124.98 16.56 125.33 18.14 125.67 18.54 126.02 16.96 126.37 15.77 126.72 16.56 127.07 15.38 127.42 16.17 127.77 18.14 128.12 20.51 128.47 17.35 128.82 15.77 129.17 16.17 129.51 17.75 129.86 16.96 130.21 17.75 130.56 17.35 130.91 16.96 131.26 18.14 131.61 17.75 131.96 15.38 132.31 14.19 132.66 14.59 133.01 14.98 133.36 14.98 133.7 13.4 134.05 13.4 134.4 13.4 134.75 13.8 135.1 14.59 135.45 14.98 135.8 13.4 136.15 12.61 136.5 12.61 136.85 12.61 137.2 12.61 137.55 12.61 137.89 12.61 138.24 12.61 138.59 12.61 138.94 12.61 139.29 12.61 139.64 13.8 139.99 14.19 140.34 14.19 140.69 13.8 141.04 13.4 141.39 13.01 141.73 13.01 142.08 13.4 142.43 13.01 142.78 13.4 143.13 13.4 143.48 13.4 143.83 13.01 144.18 13.4 144.53 13.01 144.88 12.61 145.23 12.61 145.58 12.61 145.92 12.61 146.27 12.61 146.62 12.61 146.97 13.01 147.32 13.4 147.67 13.01 148.02 13.4 148.37 13.8 148.72 14.19 149.07 16.17 149.42 17.35 149.76 14.59 150.11 14.98 150.46 14.19 150.81 14.98 151.16 13.8 151.51 13.4 151.86 13.4 152.21 13.4 152.56 13.4 152.91 13.4 153.26 14.19 153.61 13.8 153.95 13.01 154.3 12.61 154.65 13.4 155 14.98 155.35 14.98 155.7 16.17 156.05 15.38 156.4 14.98 156.75 13.8 157.1 13.8 157.45 13.4 157.79 14.59 158.14 13.4 158.49 13.4 158.84 14.59 159.19 13.8 159.54 14.19 159.89 14.19 160.24 13.4 160.59 13.4 160.94 12.61 161.29 12.61 161.64 12.61 161.98 12.61 162.33 12.61 162.68 12.61 163.03 12.61 163.38 12.61 163.73 12.61 164.08 12.61 164.43 12.61 164.78 12.61 165.13 12.61 165.48 12.61 165.83 12.61 166.17 12.61 166.52 13.01 166.87 13.01 167.22 12.61 167.57 12.61 167.92 12.61 168.27 12.61 168.62 12.61 168.97 13.01 169.32 12.61 169.67 12.61 170.01 12.61 170.36 12.61 170.71 12.61 171.06 13.01 171.41 13.4 171.76 13.4 172.11 13.4 172.46 13.4 172.81 14.19 173.16 13.8 173.51 13.01 173.86 13.4 174.2 13.4 174.55 13.8 174.9 14.98 175.25 14.59 175.6 14.19 175.95 14.59 176.3 13.8 176.65 13.01 177 13.01 177.35 13.4 177.7 13.4 178.04 13.01 178.39 12.61 178.74 12.61 179.09 12.61 179.44 12.61 179.79 13.8 180.14 13.4 180.49 14.19 180.84 15.77 181.19 14.59 181.54 14.98 181.89 14.59 182.23 14.19 182.58 13.4 182.93 12.61 183.28 12.61 183.63 12.61 183.98 12.61 184.33 12.61 184.68 12.61 185.03 12.61 185.38 13.8 185.73 14.19 186.08 12.61 186.42 12.61 186.77 12.61 187.12 12.61 187.47 12.61 187.82 13.8 188.17 13.4 188.52 13.4 188.87 13.8 189.22 14.98 189.57 14.98 189.92 14.19 190.26 13.8 190.61 15.38 190.96 15.77 191.31 16.17 191.66 15.38 192.01 15.38 192.36 17.35 192.71 17.35 193.06 17.35 193.41 18.93 193.76 18.14 194.11 21.3 194.45 23.28 194.8 22.49 195.15 20.91 195.5 18.93 195.85 18.93 196.2 21.3"/>
      </g>
      <g stroke-width="0.3" fill="#000000" fill-opacity="0.000" class="geometry" stroke-dasharray="none" stroke="#D53E4F" id="img-b79b781a-18">
        <path fill="none" d="M21.98,71.86 L 22.33 67.91 22.68 68.7 23.03 68.7 23.38 64.36 23.73 61.2 24.08 64.75 24.42 65.15 24.77 65.94 25.12 64.36 25.47 65.54 25.82 68.31 26.17 70.28 26.52 67.12 26.87 67.91 27.22 67.91 27.57 69.1 27.92 72.26 28.27 74.23 28.61 70.28 28.96 74.23 29.31 75.02 29.66 73.44 30.01 71.86 30.36 75.42 30.71 75.81 31.06 78.18 31.41 78.58 31.76 80.55 32.11 83.71 32.45 81.74 32.8 90.03 33.15 82.53 33.5 82.53 33.85 86.48 34.2 78.97 34.55 79.37 34.9 86.08 35.25 85.69 35.6 88.06 35.95 85.69 36.3 86.08 36.64 83.71 36.99 76.21 37.34 74.23 37.69 71.47 38.04 67.12 38.39 60.8 38.74 58.43 39.09 54.48 39.44 54.88 39.79 61.2 40.14 68.31 40.49 63.57 40.83 65.94 41.18 62.78 41.53 70.28 41.88 76.21 42.23 77.39 42.58 80.16 42.93 79.76 43.28 78.58 43.63 80.55 43.98 80.16 44.33 76.21 44.67 82.92 45.02 77.39 45.37 82.53 45.72 82.53 46.07 87.66 46.42 87.27 46.77 91.61 47.12 95.56 47.47 94.77 47.82 94.77 48.17 94.77 48.52 94.77 48.86 99.91 49.21 92.01 49.56 93.98 49.91 94.77 50.26 90.43 50.61 94.77 50.96 91.22 51.31 93.59 51.66 94.77 52.01 97.93 52.36 95.56 52.7 93.19 53.05 89.64 53.4 92.8 53.75 93.19 54.1 95.96 54.45 96.35 54.8 95.96 55.15 98.33 55.5 97.54 55.85 99.91 56.2 97.54 56.55 97.14 56.89 96.75 57.24 97.54 57.59 98.33 57.94 97.14 58.29 96.75 58.64 98.72 58.99 99.12 59.34 102.28 59.69 103.86 60.04 104.65 60.39 103.86 60.73 101.49 61.08 101.88 61.43 108.2 61.78 112.15 62.13 112.15 62.48 114.52 62.83 115.71 63.18 117.29 63.53 119.26 63.88 121.24 64.23 123.61 64.58 125.19 64.92 125.19 65.27 124.79 65.62 125.19 65.97 125.58 66.32 123.21 66.67 122.03 67.02 122.03 67.37 122.42 67.72 123.61 68.07 123.61 68.42 123.61 68.77 123.61 69.11 124.4 69.46 125.98 69.81 124.4 70.16 128.35 70.51 129.93 70.86 129.14 71.21 129.14 71.56 128.74 71.91 128.74 72.26 128.35 72.61 127.16 72.95 125.58 73.3 127.16 73.65 125.19 74 124 74.35 119.26 74.7 121.63 75.05 119.26 75.4 116.5 75.75 117.68 76.1 119.66 76.45 116.5 76.8 115.71 77.14 119.66 77.49 122.82 77.84 123.21 78.19 122.03 78.54 121.63 78.89 120.45 79.24 122.03 79.59 123.61 79.94 121.24 80.29 122.82 80.64 124 80.98 124.79 81.33 125.19 81.68 122.03 82.03 124.79 82.38 124.79 82.73 126.37 83.08 124 83.43 124.79 83.78 124.4 84.13 124.4 84.48 121.63 84.83 124.4 85.17 124 85.52 123.61 85.87 123.61 86.22 125.19 86.57 124.4 86.92 125.98 87.27 124 87.62 125.19 87.97 124 88.32 122.03 88.67 120.45 89.02 120.45 89.36 121.24 89.71 122.42 90.06 124.4 90.41 121.24 90.76 122.82 91.11 126.37 91.46 126.37 91.81 125.98 92.16 124.79 92.51 122.42 92.86 121.63 93.2 122.03 93.55 123.61 93.9 123.61 94.25 122.03 94.6 125.19 94.95 125.98 95.3 127.16 95.65 129.14 96 128.35 96.35 127.56 96.7 125.58 97.05 125.19 97.39 128.35 97.74 128.35 98.09 127.56 98.44 127.56 98.79 127.56 99.14 127.95 99.49 129.14 99.84 128.74 100.19 128.74 100.54 129.14 100.89 127.16 101.23 127.95 101.58 126.77 101.93 125.98 102.28 123.61 102.63 124.4 102.98 125.58 103.33 125.58 103.68 127.56 104.03 126.77 104.38 125.98 104.73 125.98 105.08 124.4 105.42 124.79 105.77 125.58 106.12 126.77 106.47 125.58 106.82 123.61 107.17 124.4 107.52 123.61 107.87 121.24 108.22 122.42 108.57 119.26 108.92 115.31 109.26 115.31 109.61 115.71 109.96 120.84 110.31 120.05 110.66 118.47 111.01 118.08 111.36 115.71 111.71 114.92 112.06 110.18 112.41 111.36 112.76 112.15 113.11 115.31 113.45 115.71 113.8 116.5 114.15 114.52 114.5 112.55 114.85 116.1 115.2 115.31 115.55 115.71 115.9 118.87 116.25 122.03 116.6 124.4 116.95 124.4 117.3 124 117.64 123.61 117.99 121.24 118.34 120.05 118.69 119.26 119.04 116.5 119.39 115.31 119.74 114.52 120.09 117.68 120.44 120.84 120.79 121.63 121.14 121.63 121.48 119.66 121.83 120.05 122.18 121.63 122.53 121.63 122.88 119.66 123.23 120.05 123.58 120.45 123.93 118.87 124.28 118.47 124.63 120.05 124.98 121.24 125.33 123.61 125.67 123.61 126.02 123.61 126.37 120.05 126.72 118.87 127.07 118.08 127.42 119.26 127.77 117.68 128.12 118.47 128.47 120.84 128.82 122.03 129.17 120.84 129.51 118.87 129.86 118.47 130.21 119.66 130.56 119.66 130.91 122.82 131.26 124.4 131.61 125.58 131.96 124 132.31 124 132.66 122.03 133.01 121.24 133.36 121.24 133.7 121.63 134.05 120.84 134.4 119.26 134.75 119.26 135.1 117.68 135.45 119.66 135.8 120.45 136.15 119.26 136.5 117.29 136.85 113.34 137.2 114.13 137.55 112.94 137.89 111.76 138.24 109.78 138.59 112.55 138.94 111.76 139.29 112.55 139.64 111.76 139.99 114.13 140.34 115.31 140.69 116.5 141.04 118.47 141.39 117.68 141.73 117.68 142.08 122.03 142.43 122.42 142.78 125.58 143.13 127.16 143.48 127.56 143.83 127.56 144.18 127.56 144.53 127.95 144.88 127.95 145.23 125.98 145.58 125.19 145.92 124 146.27 120.45 146.62 120.45 146.97 118.87 147.32 118.47 147.67 119.66 148.02 122.03 148.37 120.84 148.72 118.08 149.07 120.84 149.42 122.03 149.76 122.82 150.11 122.03 150.46 119.66 150.81 119.26 151.16 118.08 151.51 115.71 151.86 117.29 152.21 116.89 152.56 118.47 152.91 115.71 153.26 114.52 153.61 114.52 153.95 115.71 154.3 115.71 154.65 118.87 155 120.45 155.35 121.63 155.7 121.24 156.05 122.42 156.4 122.03 156.75 123.61 157.1 121.63 157.45 120.45 157.79 120.45 158.14 114.92 158.49 113.73 158.84 113.73 159.19 118.47 159.54 116.89 159.89 117.68 160.24 113.73 160.59 112.55 160.94 109.78 161.29 105.44 161.64 104.25 161.98 106.62 162.33 108.6 162.68 111.36 163.03 110.97 163.38 114.13 163.73 112.15 164.08 108.6 164.43 108.6 164.78 107.81 165.13 110.57 165.48 109.78 165.83 108.99 166.17 103.07 166.52 101.09 166.87 105.04 167.22 103.86 167.57 106.62 167.92 104.25 168.27 103.46 168.62 105.04 168.97 109.78 169.32 108.99 169.67 108.6 170.01 108.99 170.36 112.55 170.71 108.99 171.06 108.2 171.41 108.2 171.76 108.6 172.11 114.52 172.46 116.5 172.81 112.55 173.16 107.41 173.51 108.2 173.86 114.13 174.2 118.08 174.55 119.26 174.9 117.29 175.25 114.13 175.6 116.1 175.95 116.5 176.3 118.87 176.65 120.45 177 119.26 177.35 121.24 177.7 118.87 178.04 118.47 178.39 116.1 178.74 119.66 179.09 116.89 179.44 118.08 179.79 118.47 180.14 122.03 180.49 122.03 180.84 122.42 181.19 124.4 181.54 122.82 181.89 123.21 182.23 124 182.58 125.98 182.93 125.19 183.28 125.58 183.63 125.58 183.98 125.19 184.33 126.37 184.68 125.58 185.03 127.16 185.38 128.35 185.73 127.56 186.08 126.37 186.42 126.77 186.77 128.74 187.12 128.74 187.47 126.37 187.82 128.74 188.17 129.14 188.52 129.53 188.87 127.56 189.22 124.79 189.57 125.98 189.92 125.58 190.26 125.58 190.61 126.37 190.96 125.58 191.31 123.21 191.66 122.42 192.01 123.21 192.36 123.21 192.71 123.61 193.06 125.19 193.41 124 193.76 123.61 194.11 126.77 194.45 125.98 194.8 124.4 195.15 125.58 195.5 125.98 195.85 128.35 196.2 128.35"/>
      </g>
      <g stroke-width="0.3" fill="#000000" fill-opacity="0.000" class="geometry" stroke-dasharray="none" stroke="#9E0142" id="img-b79b781a-19">
        <path fill="none" d="M21.98,71.86 L 22.33 71.47 22.68 71.86 23.03 71.47 23.38 65.15 23.73 61.99 24.08 60.41 24.42 60.8 24.77 65.94 25.12 64.75 25.47 64.36 25.82 63.96 26.17 65.54 26.52 73.84 26.87 75.81 27.22 78.97 27.57 77 27.92 71.47 28.27 75.81 28.61 78.18 28.96 78.18 29.31 86.87 29.66 91.22 30.01 93.98 30.36 90.82 30.71 90.43 31.06 93.59 31.41 95.56 31.76 96.75 32.11 101.09 32.45 101.09 32.8 104.65 33.15 102.67 33.5 105.83 33.85 105.04 34.2 108.2 34.55 110.97 34.9 109.39 35.25 108.6 35.6 109.78 35.95 111.76 36.3 114.92 36.64 116.1 36.99 118.08 37.34 114.92 37.69 111.76 38.04 113.73 38.39 108.99 38.74 109.78 39.09 114.13 39.44 117.29 39.79 116.89 40.14 118.87 40.49 120.45 40.83 118.47 41.18 119.66 41.53 117.68 41.88 114.13 42.23 116.1 42.58 116.5 42.93 113.34 43.28 112.94 43.63 115.31 43.98 115.31 44.33 114.52 44.67 112.94 45.02 114.13 45.37 115.31 45.72 114.13 46.07 110.97 46.42 110.57 46.77 112.15 47.12 110.18 47.47 112.55 47.82 108.6 48.17 108.2 48.52 106.23 48.86 106.62 49.21 107.02 49.56 111.76 49.91 110.18 50.26 112.94 50.61 113.73 50.96 111.36 51.31 114.52 51.66 112.55 52.01 114.52 52.36 111.36 52.7 105.04 53.05 102.67 53.4 103.07 53.75 98.72 54.1 106.62 54.45 104.65 54.8 101.49 55.15 102.67 55.5 102.67 55.85 108.6 56.2 106.62 56.55 106.62 56.89 97.14 57.24 100.7 57.59 98.33 57.94 101.09 58.29 101.88 58.64 103.07 58.99 102.28 59.34 103.86 59.69 107.02 60.04 105.44 60.39 112.55 60.73 112.55 61.08 111.76 61.43 106.62 61.78 106.62 62.13 106.62 62.48 110.57 62.83 108.2 63.18 114.13 63.53 111.36 63.88 115.71 64.23 116.5 64.58 117.68 64.92 116.89 65.27 116.5 65.62 113.34 65.97 110.57 66.32 113.34 66.67 109.39 67.02 111.36 67.37 115.31 67.72 117.68 68.07 118.47 68.42 119.66 68.77 118.87 69.11 116.5 69.46 114.52 69.81 107.02 70.16 104.25 70.51 106.62 70.86 104.25 71.21 107.02 71.56 107.02 71.91 112.15 72.26 110.18 72.61 108.2 72.95 103.86 73.3 100.3 73.65 100.3 74 99.12 74.35 95.56 74.7 100.3 75.05 98.33 75.4 101.09 75.75 103.07 76.1 100.7 76.45 99.51 76.8 99.91 77.14 94.77 77.49 93.59 77.84 91.61 78.19 90.43 78.54 92.01 78.89 93.98 79.24 94.77 79.59 93.98 79.94 92.8 80.29 89.64 80.64 84.9 80.98 87.66 81.33 90.03 81.68 89.24 82.03 88.85 82.38 92.4 82.73 93.59 83.08 91.22 83.43 98.33 83.78 93.59 84.13 97.93 84.48 91.61 84.83 93.19 85.17 94.38 85.52 93.98 85.87 96.75 86.22 98.72 86.57 99.51 86.92 99.51 87.27 99.91 87.62 96.35 87.97 97.54 88.32 90.43 88.67 89.24 89.02 91.22 89.36 94.38 89.71 93.59 90.06 90.43 90.41 86.48 90.76 84.5 91.11 85.69 91.46 86.87 91.81 85.69 92.16 84.5 92.51 80.16 92.86 78.58 93.2 74.63 93.55 74.23 93.9 79.37 94.25 78.18 94.6 78.58 94.95 87.66 95.3 87.66 95.65 94.38 96 93.59 96.35 92.4 96.7 98.33 97.05 95.17 97.39 92.8 97.74 96.35 98.09 94.77 98.44 91.61 98.79 89.24 99.14 83.32 99.49 82.53 99.84 75.02 100.19 71.47 100.54 71.47 100.89 78.58 101.23 76.6 101.58 78.18 101.93 69.89 102.28 67.52 102.63 70.68 102.98 71.86 103.33 65.94 103.68 62.38 104.03 61.99 104.38 61.59 104.73 59.62 105.08 58.83 105.42 56.85 105.77 56.46 106.12 60.01 106.47 60.01 106.82 69.49 107.17 72.26 107.52 69.1 107.87 70.28 108.22 74.23 108.57 75.81 108.92 72.65 109.26 69.89 109.61 70.68 109.96 73.44 110.31 69.1 110.66 69.89 111.01 67.52 111.36 67.52 111.71 71.86 112.06 69.49 112.41 67.91 112.76 71.07 113.11 67.12 113.45 76.21 113.8 80.55 114.15 80.95 114.5 84.11 114.85 83.71 115.2 86.87 115.55 83.71 115.9 84.5 116.25 82.92 116.6 77.79 116.95 72.65 117.3 72.65 117.64 82.13 117.99 78.58 118.34 78.18 118.69 78.18 119.04 78.58 119.39 72.26 119.74 72.26 120.09 75.81 120.44 76.6 120.79 78.97 121.14 80.55 121.48 75.81 121.83 80.16 122.18 84.11 122.53 87.66 122.88 90.43 123.23 82.92 123.58 84.9 123.93 82.53 124.28 80.16 124.63 75.81 124.98 75.42 125.33 67.12 125.67 66.73 126.02 66.33 126.37 58.83 126.72 63.57 127.07 69.89 127.42 72.65 127.77 71.86 128.12 72.26 128.47 75.42 128.82 74.23 129.17 73.05 129.51 74.23 129.86 74.23 130.21 79.76 130.56 81.34 130.91 78.58 131.26 77.39 131.61 78.18 131.96 78.18 132.31 78.58 132.66 81.74 133.01 78.58 133.36 77.79 133.7 73.84 134.05 76.21 134.4 75.02 134.75 78.18 135.1 72.65 135.45 70.68 135.8 64.75 136.15 58.04 136.5 59.62 136.85 56.85 137.2 58.43 137.55 58.83 137.89 58.83 138.24 61.2 138.59 66.73 138.94 62.38 139.29 61.99 139.64 63.96 139.99 70.68 140.34 78.18 140.69 75.81 141.04 78.97 141.39 75.42 141.73 72.26 142.08 77 142.43 76.6 142.78 83.71 143.13 81.74 143.48 82.92 143.83 83.32 144.18 84.5 144.53 84.9 144.88 86.08 145.23 84.11 145.58 77.79 145.92 78.18 146.27 78.18 146.62 79.37 146.97 81.34 147.32 84.11 147.67 84.5 148.02 81.74 148.37 77.39 148.72 78.18 149.07 83.71 149.42 82.92 149.76 84.9 150.11 83.71 150.46 95.17 150.81 96.35 151.16 93.98 151.51 96.35 151.86 94.38 152.21 96.75 152.56 102.67 152.91 98.33 153.26 95.17 153.61 93.59 153.95 90.43 154.3 85.69 154.65 88.06 155 88.06 155.35 92.4 155.7 91.22 156.05 95.96 156.4 100.7 156.75 103.07 157.1 103.46 157.45 107.02 157.79 108.99 158.14 104.25 158.49 103.07 158.84 103.46 159.19 99.12 159.54 100.7 159.89 97.54 160.24 97.14 160.59 102.67 160.94 101.88 161.29 100.7 161.64 101.09 161.98 97.93 162.33 94.77 162.68 95.96 163.03 95.96 163.38 90.82 163.73 88.06 164.08 85.29 164.43 82.53 164.78 83.32 165.13 84.5 165.48 91.61 165.83 95.17 166.17 99.12 166.52 95.56 166.87 93.98 167.22 90.43 167.57 87.66 167.92 83.71 168.27 83.32 168.62 79.76 168.97 84.11 169.32 77 169.67 75.81 170.01 78.58 170.36 74.23 170.71 81.34 171.06 78.97 171.41 76.21 171.76 75.81 172.11 75.81 172.46 78.58 172.81 82.13 173.16 84.11 173.51 86.48 173.86 92.01 174.2 89.64 174.55 92.4 174.9 94.77 175.25 97.93 175.6 92.8 175.95 96.75 176.3 98.72 176.65 103.46 177 105.83 177.35 102.67 177.7 105.83 178.04 107.81 178.39 110.18 178.74 107.41 179.09 108.2 179.44 101.88 179.79 97.14 180.14 93.19 180.49 96.35 180.84 97.54 181.19 99.51 181.54 102.67 181.89 106.62 182.23 100.3 182.58 96.75 182.93 98.72 183.28 99.91 183.63 96.75 183.98 94.38 184.33 93.98 184.68 99.91 185.03 97.93 185.38 98.72 185.73 98.33 186.08 95.17 186.42 90.82 186.77 95.17 187.12 90.03 187.47 95.56 187.82 100.3 188.17 103.07 188.52 103.07 188.87 102.28 189.22 104.65 189.57 108.6 189.92 112.15 190.26 108.99 190.61 103.86 190.96 101.88 191.31 99.91 191.66 101.88 192.01 101.09 192.36 102.28 192.71 105.04 193.06 101.09 193.41 101.09 193.76 100.3 194.11 105.44 194.45 103.07 194.8 102.67 195.15 105.04 195.5 99.51 195.85 98.33 196.2 98.72"/>
      </g>
    </g>
  </g>
</g>
  <g class="guide ylabels" font-size="2.82" font-family="'PT Sans Caption','Helvetica Neue','Helvetica',sans-serif" fill="#000000" id="img-b79b781a-20">
    <text x="18.63" y="131.11" text-anchor="end" dy="0.35em">0</text>
    <text x="18.63" y="91.61" text-anchor="end" dy="0.35em">100</text>
    <text x="18.63" y="52.11" text-anchor="end" dy="0.35em">200</text>
    <text x="18.63" y="12.61" text-anchor="end" dy="0.35em">300</text>
  </g>
  <g font-size="3.88" font-family="'PT Sans','Helvetica Neue','Helvetica',sans-serif" fill="#000000" stroke="#000000" stroke-opacity="0.000" id="img-b79b781a-21">
    <text x="8.81" y="69.86" text-anchor="middle" dy="0.35em" transform="rotate(-90, 8.81, 71.86)">population size</text>
  </g>
  <g font-size="3.88" font-family="'PT Sans','Helvetica Neue','Helvetica',sans-serif" fill="#000000" stroke="#000000" stroke-opacity="0.000" id="img-b79b781a-22">
    <text x="108.92" y="5" text-anchor="middle" dy="0.6em">genetic drift with mutationrate  = 0.001 </text>
  </g>
</g>
<defs>
  <clipPath id="img-b79b781a-4">
  <path d="M19.63,10.61 L 198.2 10.61 198.2 133.11 19.63 133.11" />
</clipPath>
</defs>
</svg>
