<?xml version="1.0" encoding="UTF-8"?>
<svg xmlns="http://www.w3.org/2000/svg"
     xmlns:xlink="http://www.w3.org/1999/xlink"
     xmlns:gadfly="http://www.gadflyjl.org/ns"
     version="1.2"
     width="203.2mm" height="152.4mm" viewBox="0 0 203.2 152.4"
     stroke="none"
     fill="#000000"
     stroke-width="0.3"
     font-size="3.88"
>
<g class="plotroot xscalable yscalable" id="img-b10028d2-1">
  <g font-size="3.88" font-family="'PT Sans','Helvetica Neue','Helvetica',sans-serif" fill="#000000" stroke="#000000" stroke-opacity="0.000" id="img-b10028d2-2">
    <text x="108.92" y="140.79" text-anchor="middle" dy="0.6em">generation number</text>
  </g>
  <g class="guide xlabels" font-size="2.82" font-family="'PT Sans Caption','Helvetica Neue','Helvetica',sans-serif" fill="#000000" id="img-b10028d2-3">
    <text x="21.63" y="134.11" text-anchor="middle" dy="0.6em">0</text>
    <text x="56.55" y="134.11" text-anchor="middle" dy="0.6em">100</text>
    <text x="91.46" y="134.11" text-anchor="middle" dy="0.6em">200</text>
    <text x="126.37" y="134.11" text-anchor="middle" dy="0.6em">300</text>
    <text x="161.29" y="134.11" text-anchor="middle" dy="0.6em">400</text>
    <text x="196.2" y="134.11" text-anchor="middle" dy="0.6em">500</text>
  </g>
<g clip-path="url(#img-b10028d2-4)">
  <g id="img-b10028d2-5">
    <g pointer-events="visible" opacity="1" fill="#FFFFFF" stroke="#000000" stroke-opacity="0.000" class="guide background" id="img-b10028d2-6">
      <rect x="19.63" y="10.61" width="178.57" height="122.5"/>
    </g>
    <g class="guide ygridlines xfixed" stroke-dasharray="0.5,0.5" stroke-width="0.2" stroke="#808080" id="img-b10028d2-7">
      <path fill="none" d="M19.63,131.11 L 198.2 131.11"/>
      <path fill="none" d="M19.63,101.49 L 198.2 101.49"/>
      <path fill="none" d="M19.63,71.86 L 198.2 71.86"/>
      <path fill="none" d="M19.63,42.24 L 198.2 42.24"/>
      <path fill="none" d="M19.63,12.61 L 198.2 12.61"/>
    </g>
    <g class="guide xgridlines yfixed" stroke-dasharray="0.5,0.5" stroke-width="0.2" stroke="#808080" id="img-b10028d2-8">
      <path fill="none" d="M21.63,10.61 L 21.63 133.11"/>
      <path fill="none" d="M56.55,10.61 L 56.55 133.11"/>
      <path fill="none" d="M91.46,10.61 L 91.46 133.11"/>
      <path fill="none" d="M126.37,10.61 L 126.37 133.11"/>
      <path fill="none" d="M161.29,10.61 L 161.29 133.11"/>
      <path fill="none" d="M196.2,10.61 L 196.2 133.11"/>
    </g>
    <g class="plotpanel" id="img-b10028d2-9">
      <g stroke-width="0.3" fill="#000000" fill-opacity="0.000" class="geometry" stroke-dasharray="none" stroke="#3288BD" id="img-b10028d2-10">
        <path fill="none" d="M21.98,71.86 L 22.33 73.05 22.68 73.94 23.03 76.6 23.38 79.57 23.73 78.97 24.08 77.2 24.42 80.45 24.77 81.94 25.12 80.45 25.47 79.57 25.82 80.16 26.17 78.68 26.52 78.08 26.87 78.08 27.22 77.49 27.57 77.2 27.92 77.2 28.27 75.71 28.61 76.9 28.96 78.97 29.31 75.42 29.66 78.97 30.01 77.79 30.36 77.79 30.71 76.9 31.06 74.53 31.41 76.31 31.76 77.79 32.11 81.64 32.45 83.12 32.8 85.49 33.15 94.08 33.5 90.53 33.85 91.42 34.2 86.38 34.55 85.19 34.9 88.75 35.25 85.19 35.6 92.01 35.95 89.94 36.3 93.19 36.64 90.23 36.99 92.31 37.34 94.08 37.69 92.01 38.04 94.08 38.39 93.49 38.74 88.16 39.09 86.97 39.44 85.79 39.79 84.31 40.14 85.49 40.49 85.19 40.83 81.05 41.18 78.68 41.53 74.53 41.88 77.79 42.23 76.01 42.58 76.6 42.93 76.01 43.28 74.83 43.63 77.2 43.98 77.79 44.33 79.27 44.67 78.38 45.02 74.83 45.37 71.86 45.72 70.97 46.07 73.05 46.42 70.68 46.77 71.27 47.12 68.6 47.47 72.46 47.82 74.23 48.17 71.86 48.52 70.97 48.86 68.01 49.21 69.79 49.56 73.64 49.91 78.08 50.26 82.23 50.61 81.94 50.96 88.16 51.31 91.71 51.66 88.75 52.01 89.64 52.36 86.08 52.7 89.94 53.05 90.23 53.4 91.42 53.75 90.82 54.1 91.71 54.45 93.49 54.8 91.71 55.15 93.79 55.5 91.71 55.85 93.49 56.2 94.08 56.55 97.93 56.89 100.6 57.24 100.9 57.59 101.49 57.94 98.82 58.29 97.93 58.64 97.64 58.99 95.27 59.34 93.79 59.69 92.9 60.04 94.38 60.39 99.12 60.73 96.45 61.08 91.12 61.43 96.75 61.78 98.53 62.13 104.75 62.48 105.34 62.83 101.79 63.18 99.42 63.53 101.19 63.88 101.19 64.23 103.27 64.58 104.75 64.92 102.97 65.27 97.05 65.62 96.75 65.97 94.08 66.32 92.01 66.67 90.53 67.02 85.49 67.37 82.82 67.72 81.05 68.07 78.97 68.42 78.08 68.77 74.83 69.11 72.16 69.46 70.38 69.81 71.57 70.16 73.64 70.51 76.01 70.86 78.68 71.21 75.12 71.56 75.12 71.91 74.23 72.26 83.12 72.61 81.94 72.95 89.94 73.3 93.19 73.65 96.75 74 99.42 74.35 97.93 74.7 97.93 75.05 98.82 75.4 96.75 75.75 96.16 76.1 94.97 76.45 103.56 76.8 104.45 77.14 104.75 77.49 108.01 77.84 105.93 78.19 104.75 78.54 101.19 78.89 106.23 79.24 104.45 79.59 107.41 79.94 103.56 80.29 103.27 80.64 101.49 80.98 102.38 81.33 102.97 81.68 99.12 82.03 99.12 82.38 100.9 82.73 100.9 83.08 97.93 83.43 95.27 83.78 97.93 84.13 96.45 84.48 93.49 84.83 92.6 85.17 89.94 85.52 91.42 85.87 92.01 86.22 91.42 86.57 93.19 86.92 95.86 87.27 96.75 87.62 97.34 87.97 92.9 88.32 94.38 88.67 99.12 89.02 93.79 89.36 95.27 89.71 96.45 90.06 96.45 90.41 102.67 90.76 99.42 91.11 99.12 91.46 94.38 91.81 93.49 92.16 93.49 92.51 92.01 92.86 92.6 93.2 94.97 93.55 95.27 93.9 96.75 94.25 97.05 94.6 94.38 94.95 98.82 95.3 100.3 95.65 101.79 96 103.27 96.35 107.12 96.7 105.04 97.05 105.04 97.39 109.19 97.74 110.67 98.09 111.27 98.44 109.78 98.79 108.3 99.14 109.78 99.49 108.6 99.84 106.23 100.19 106.23 100.54 108.01 100.89 105.04 101.23 103.27 101.58 103.27 101.93 105.64 102.28 104.75 102.63 108.6 102.98 107.12 103.33 106.23 103.68 103.56 104.03 102.97 104.38 103.27 104.73 99.12 105.08 98.53 105.42 99.12 105.77 93.79 106.12 92.9 106.47 97.93 106.82 98.23 107.17 98.53 107.52 94.38 107.87 97.05 108.22 95.27 108.57 92.31 108.92 89.94 109.26 92.6 109.61 94.38 109.96 98.23 110.31 94.97 110.66 93.49 111.01 97.34 111.36 95.56 111.71 94.68 112.06 97.34 112.41 95.27 112.76 97.64 113.11 99.12 113.45 97.93 113.8 97.34 114.15 97.64 114.5 96.45 114.85 94.68 115.2 96.16 115.55 95.56 115.9 94.38 116.25 95.56 116.6 95.56 116.95 98.53 117.3 98.53 117.64 100.6 117.99 97.64 118.34 95.27 118.69 95.56 119.04 93.49 119.39 90.53 119.74 88.45 120.09 84.9 120.44 82.53 120.79 80.75 121.14 82.82 121.48 84.6 121.83 82.53 122.18 82.23 122.53 80.45 122.88 75.42 123.23 68.6 123.58 59.72 123.93 57.64 124.28 52.61 124.63 53.2 124.98 50.83 125.33 49.35 125.67 48.46 126.02 52.61 126.37 52.01 126.72 48.16 127.07 46.98 127.42 43.13 127.77 41.35 128.12 38.68 128.47 35.42 128.82 35.42 129.17 38.68 129.51 37.2 129.86 36.02 130.21 39.27 130.56 42.24 130.91 48.16 131.26 48.16 131.61 49.94 131.96 53.5 132.31 51.42 132.66 52.9 133.01 54.09 133.36 54.09 133.7 59.42 134.05 65.64 134.4 66.53 134.75 70.38 135.1 68.9 135.45 71.57 135.8 74.23 136.15 74.23 136.5 68.6 136.85 70.97 137.2 65.64 137.55 71.57 137.89 74.23 138.24 78.38 138.59 76.6 138.94 76.9 139.29 77.2 139.64 75.12 139.99 72.75 140.34 74.23 140.69 77.49 141.04 77.49 141.39 78.68 141.73 76.9 142.08 77.2 142.43 77.49 142.78 76.9 143.13 76.9 143.48 79.57 143.83 78.97 144.18 72.75 144.53 70.38 144.88 73.05 145.23 74.53 145.58 75.12 145.92 74.53 146.27 76.6 146.62 81.05 146.97 86.68 147.32 93.19 147.67 93.19 148.02 90.23 148.37 89.05 148.72 91.71 149.07 92.6 149.42 92.6 149.76 87.57 150.11 92.31 150.46 95.56 150.81 94.97 151.16 91.71 151.51 92.31 151.86 91.42 152.21 89.34 152.56 93.19 152.91 96.45 153.26 98.53 153.61 97.05 153.95 93.19 154.3 95.86 154.65 94.08 155 92.6 155.35 92.01 155.7 88.16 156.05 89.94 156.4 89.05 156.75 86.68 157.1 87.27 157.45 91.71 157.79 92.01 158.14 96.75 158.49 95.27 158.84 95.27 159.19 97.64 159.54 97.34 159.89 98.82 160.24 100.9 160.59 101.19 160.94 102.38 161.29 104.45 161.64 103.27 161.98 102.97 162.33 101.19 162.68 103.56 163.03 102.67 163.38 100.6 163.73 102.08 164.08 94.97 164.43 92.6 164.78 96.75 165.13 97.34 165.48 100.3 165.83 97.93 166.17 106.23 166.52 106.53 166.87 102.97 167.22 99.12 167.57 100.01 167.92 101.19 168.27 104.75 168.62 105.04 168.97 108.9 169.32 108.9 169.67 106.82 170.01 106.82 170.36 106.53 170.71 103.56 171.06 102.08 171.41 103.86 171.76 105.64 172.11 103.86 172.46 102.97 172.81 101.19 173.16 100.3 173.51 96.16 173.86 96.75 174.2 93.79 174.55 94.38 174.9 94.97 175.25 96.75 175.6 94.08 175.95 96.75 176.3 96.45 176.65 95.86 177 94.97 177.35 92.01 177.7 93.79 178.04 92.31 178.39 90.53 178.74 91.71 179.09 94.38 179.44 92.31 179.79 92.6 180.14 93.79 180.49 93.19 180.84 97.05 181.19 97.34 181.54 99.71 181.89 99.71 182.23 98.23 182.58 98.82 182.93 101.19 183.28 101.19 183.63 102.38 183.98 98.53 184.33 99.42 184.68 101.79 185.03 101.19 185.38 97.93 185.73 100.6 186.08 100.6 186.42 100.6 186.77 101.79 187.12 101.79 187.47 107.12 187.82 108.6 188.17 106.82 188.52 108.6 188.87 110.97 189.22 114.52 189.57 112.45 189.92 109.78 190.26 110.08 190.61 104.75 190.96 103.27 191.31 103.27 191.66 106.53 192.01 103.56 192.36 98.23 192.71 100.3 193.06 92.9 193.41 90.23 193.76 95.27 194.11 97.34 194.45 99.71 194.8 99.71 195.15 102.08 195.5 98.53 195.85 99.42 196.2 98.53"/>
      </g>
      <g stroke-width="0.3" fill="#000000" fill-opacity="0.000" class="geometry" stroke-dasharray="none" stroke="#66C2A5" id="img-b10028d2-11">
        <path fill="none" d="M21.98,71.86 L 22.33 73.05 22.68 72.46 23.03 70.38 23.38 70.09 23.73 73.64 24.08 76.01 24.42 80.16 24.77 79.27 25.12 82.82 25.47 82.82 25.82 84.31 26.17 90.53 26.52 93.49 26.87 95.56 27.22 95.86 27.57 97.64 27.92 96.75 28.27 99.42 28.61 96.16 28.96 95.27 29.31 98.53 29.66 99.12 30.01 99.12 30.36 95.27 30.71 94.38 31.06 99.12 31.41 99.42 31.76 95.86 32.11 96.45 32.45 97.05 32.8 95.86 33.15 98.82 33.5 99.12 33.85 97.05 34.2 100.6 34.55 97.34 34.9 100.3 35.25 101.79 35.6 100.6 35.95 103.56 36.3 100.6 36.64 99.71 36.99 100.01 37.34 100.01 37.69 102.38 38.04 104.45 38.39 107.12 38.74 106.53 39.09 105.64 39.44 103.27 39.79 103.86 40.14 105.04 40.49 105.64 40.83 106.53 41.18 105.04 41.53 101.49 41.88 103.56 42.23 104.16 42.58 105.64 42.93 104.16 43.28 105.93 43.63 100.9 43.98 98.23 44.33 97.05 44.67 97.64 45.02 100.6 45.37 98.53 45.72 94.38 46.07 94.97 46.42 95.27 46.77 88.75 47.12 93.19 47.47 89.94 47.82 91.71 48.17 93.19 48.52 95.56 48.86 97.93 49.21 97.34 49.56 95.27 49.91 95.27 50.26 85.49 50.61 85.19 50.96 83.12 51.31 88.16 51.66 89.34 52.01 87.27 52.36 84.31 52.7 82.82 53.05 85.49 53.4 82.82 53.75 86.38 54.1 84.6 54.45 81.94 54.8 81.34 55.15 78.97 55.5 76.9 55.85 76.31 56.2 78.38 56.55 79.27 56.89 78.68 57.24 77.49 57.59 76.9 57.94 78.97 58.29 83.12 58.64 82.82 58.99 83.71 59.34 81.64 59.69 79.86 60.04 76.31 60.39 75.12 60.73 74.23 61.08 77.2 61.43 73.64 61.78 74.83 62.13 74.23 62.48 79.86 62.83 79.86 63.18 82.53 63.53 79.27 63.88 78.08 64.23 79.27 64.58 80.75 64.92 85.79 65.27 86.68 65.62 87.86 65.97 82.82 66.32 84.01 66.67 80.16 67.02 79.27 67.37 73.64 67.72 75.42 68.07 76.31 68.42 74.23 68.77 74.83 69.11 75.12 69.46 72.75 69.81 70.09 70.16 70.68 70.51 67.72 70.86 66.83 71.21 72.16 71.56 71.86 71.91 70.38 72.26 72.46 72.61 72.16 72.95 75.12 73.3 72.75 73.65 69.49 74 69.79 74.35 68.31 74.7 68.6 75.05 69.79 75.4 67.42 75.75 71.57 76.1 73.64 76.45 75.42 76.8 79.57 77.14 76.6 77.49 79.57 77.84 76.9 78.19 77.79 78.54 74.53 78.89 73.64 79.24 71.27 79.59 72.46 79.94 74.83 80.29 73.05 80.64 71.57 80.98 69.79 81.33 65.64 81.68 69.49 82.03 72.46 82.38 79.57 82.73 84.01 83.08 83.12 83.43 84.6 83.78 81.94 84.13 83.42 84.48 82.53 84.83 84.31 85.17 88.16 85.52 84.31 85.87 87.27 86.22 85.49 86.57 81.34 86.92 84.31 87.27 88.75 87.62 86.97 87.97 90.23 88.32 88.16 88.67 89.05 89.02 86.68 89.36 86.97 89.71 89.94 90.06 86.68 90.41 86.38 90.76 89.34 91.11 94.68 91.46 98.23 91.81 98.82 92.16 96.45 92.51 99.42 92.86 100.3 93.2 97.34 93.55 97.93 93.9 96.75 94.25 97.93 94.6 100.01 94.95 94.08 95.3 91.12 95.65 87.57 96 84.01 96.35 84.6 96.7 85.49 97.05 85.49 97.39 79.86 97.74 73.64 98.09 74.53 98.44 73.94 98.79 76.9 99.14 80.75 99.49 81.64 99.84 84.6 100.19 85.19 100.54 84.31 100.89 82.82 101.23 84.31 101.58 82.23 101.93 82.53 102.28 82.23 102.63 83.12 102.98 83.42 103.33 80.16 103.68 76.01 104.03 72.75 104.38 74.23 104.73 74.23 105.08 75.42 105.42 76.9 105.77 73.94 106.12 77.2 106.47 72.75 106.82 71.86 107.17 74.83 107.52 73.34 107.87 70.97 108.22 73.94 108.57 74.53 108.92 71.27 109.26 72.46 109.61 72.46 109.96 70.97 110.31 67.12 110.66 69.2 111.01 67.12 111.36 67.12 111.71 70.68 112.06 64.46 112.41 67.72 112.76 62.09 113.11 65.05 113.45 65.64 113.8 66.83 114.15 62.68 114.5 60.61 114.85 59.72 115.2 55.87 115.55 56.75 115.9 52.31 116.25 47.87 116.6 50.24 116.95 50.53 117.3 50.83 117.64 48.76 117.99 45.79 118.34 44.9 118.69 44.9 119.04 43.42 119.39 44.02 119.74 42.53 120.09 39.57 120.44 36.02 120.79 39.27 121.14 41.94 121.48 41.35 121.83 37.2 122.18 37.2 122.53 35.42 122.88 40.76 123.23 41.64 123.58 41.05 123.93 41.35 124.28 44.9 124.63 41.35 124.98 42.83 125.33 46.39 125.67 44.9 126.02 46.98 126.37 49.35 126.72 47.57 127.07 49.35 127.42 55.27 127.77 58.53 128.12 62.98 128.47 67.12 128.82 66.53 129.17 64.46 129.51 61.79 129.86 66.23 130.21 66.53 130.56 63.86 130.91 65.05 131.26 62.38 131.61 61.2 131.96 68.01 132.31 62.38 132.66 63.27 133.01 62.38 133.36 65.35 133.7 70.09 134.05 72.16 134.4 72.16 134.75 69.2 135.1 74.53 135.45 72.75 135.8 74.83 136.15 73.05 136.5 73.64 136.85 71.86 137.2 73.94 137.55 75.71 137.89 78.08 138.24 74.83 138.59 72.16 138.94 75.42 139.29 77.2 139.64 83.42 139.99 80.75 140.34 78.38 140.69 81.94 141.04 81.34 141.39 79.86 141.73 82.23 142.08 81.94 142.43 82.82 142.78 77.79 143.13 76.01 143.48 76.6 143.83 80.16 144.18 75.71 144.53 68.6 144.88 69.2 145.23 69.79 145.58 65.05 145.92 69.49 146.27 67.72 146.62 73.34 146.97 73.05 147.32 75.12 147.67 71.86 148.02 70.38 148.37 77.49 148.72 76.31 149.07 76.6 149.42 77.49 149.76 79.27 150.11 79.86 150.46 74.23 150.81 75.42 151.16 78.68 151.51 76.9 151.86 82.23 152.21 83.12 152.56 81.34 152.91 84.6 153.26 85.79 153.61 92.6 153.95 90.82 154.3 83.42 154.65 83.12 155 84.31 155.35 83.71 155.7 88.16 156.05 90.23 156.4 93.19 156.75 90.23 157.1 85.49 157.45 84.31 157.79 79.86 158.14 79.86 158.49 85.79 158.84 86.08 159.19 82.82 159.54 76.31 159.89 71.57 160.24 75.71 160.59 74.53 160.94 73.94 161.29 78.68 161.64 79.86 161.98 85.49 162.33 86.38 162.68 84.31 163.03 86.97 163.38 83.71 163.73 80.16 164.08 77.2 164.43 75.12 164.78 77.2 165.13 73.34 165.48 73.34 165.83 70.38 166.17 69.2 166.52 72.46 166.87 70.68 167.22 66.23 167.57 66.53 167.92 65.35 168.27 63.27 168.62 65.05 168.97 61.2 169.32 52.31 169.67 54.38 170.01 57.64 170.36 60.9 170.71 60.01 171.06 59.12 171.41 56.75 171.76 57.94 172.11 57.35 172.46 54.98 172.81 52.61 173.16 53.5 173.51 50.83 173.86 47.27 174.2 48.46 174.55 49.35 174.9 48.46 175.25 50.83 175.6 50.83 175.95 48.16 176.3 48.76 176.65 50.24 177 51.13 177.35 48.16 177.7 49.64 178.04 50.24 178.39 48.76 178.74 48.16 179.09 52.01 179.44 50.83 179.79 53.5 180.14 50.24 180.49 54.38 180.84 52.31 181.19 52.61 181.54 51.42 181.89 47.27 182.23 47.87 182.58 43.72 182.93 41.94 183.28 40.46 183.63 40.76 183.98 39.27 184.33 37.5 184.68 35.72 185.03 34.24 185.38 34.24 185.73 33.05 186.08 33.65 186.42 30.98 186.77 27.72 187.12 29.79 187.47 28.02 187.82 27.42 188.17 27.72 188.52 30.09 188.87 31.87 189.22 32.16 189.57 30.98 189.92 28.02 190.26 27.13 190.61 28.31 190.96 25.94 191.31 24.17 191.66 23.28 192.01 23.57 192.36 23.57 192.71 23.57 193.06 20.61 193.41 18.24 193.76 17.06 194.11 15.87 194.45 15.87 194.8 13.2 195.15 12.91 195.5 13.2 195.85 13.2 196.2 12.61"/>
      </g>
      <g stroke-width="0.3" fill="#000000" fill-opacity="0.000" class="geometry" stroke-dasharray="none" stroke="#ABDDA4" id="img-b10028d2-12">
        <path fill="none" d="M21.98,71.86 L 22.33 72.75 22.68 71.57 23.03 70.68 23.38 70.38 23.73 65.05 24.08 65.94 24.42 59.72 24.77 64.16 25.12 69.2 25.47 75.12 25.82 78.68 26.17 75.71 26.52 72.75 26.87 73.34 27.22 73.05 27.57 78.38 27.92 81.05 28.27 79.27 28.61 76.31 28.96 78.08 29.31 74.83 29.66 73.94 30.01 73.64 30.36 69.79 30.71 75.42 31.06 73.34 31.41 72.75 31.76 78.68 32.11 79.57 32.45 80.45 32.8 81.64 33.15 86.08 33.5 78.97 33.85 82.82 34.2 84.31 34.55 79.86 34.9 78.97 35.25 76.6 35.6 78.08 35.95 71.27 36.3 66.53 36.64 69.79 36.99 70.97 37.34 69.49 37.69 72.46 38.04 72.16 38.39 76.6 38.74 78.68 39.09 77.49 39.44 81.64 39.79 86.97 40.14 88.75 40.49 92.31 40.83 96.75 41.18 95.56 41.53 100.01 41.88 100.6 42.23 98.53 42.58 99.12 42.93 100.3 43.28 103.56 43.63 103.86 43.98 105.93 44.33 105.34 44.67 101.19 45.02 99.42 45.37 103.56 45.72 105.04 46.07 102.97 46.42 108.3 46.77 110.38 47.12 113.34 47.47 113.64 47.82 111.27 48.17 113.64 48.52 115.12 48.86 117.78 49.21 115.41 49.56 116.3 49.91 117.19 50.26 114.82 50.61 118.08 50.96 117.49 51.31 116.89 51.66 116.01 52.01 115.12 52.36 118.08 52.7 118.97 53.05 117.19 53.4 117.49 53.75 115.41 54.1 116.3 54.45 115.12 54.8 118.08 55.15 118.97 55.5 120.15 55.85 123.41 56.2 124.6 56.55 124 56.89 119.86 57.24 118.97 57.59 119.86 57.94 118.08 58.29 116.6 58.64 114.82 58.99 116.01 59.34 118.97 59.69 117.49 60.04 118.38 60.39 119.56 60.73 118.38 61.08 119.86 61.43 119.26 61.78 119.86 62.13 122.23 62.48 119.86 62.83 120.15 63.18 122.82 63.53 121.34 63.88 119.86 64.23 119.26 64.58 118.08 64.92 121.04 65.27 121.34 65.62 119.86 65.97 119.26 66.32 121.93 66.67 124.3 67.02 122.52 67.37 126.67 67.72 125.78 68.07 126.37 68.42 126.67 68.77 125.78 69.11 122.82 69.46 122.52 69.81 124.3 70.16 125.49 70.51 125.49 70.86 125.19 71.21 123.71 71.56 126.37 71.91 123.12 72.26 123.41 72.61 121.93 72.95 123.12 73.3 123.41 73.65 122.82 74 124 74.35 122.52 74.7 126.08 75.05 126.37 75.4 126.67 75.75 125.78 76.1 125.78 76.45 127.56 76.8 127.56 77.14 126.97 77.49 126.37 77.84 127.56 78.19 126.67 78.54 127.86 78.89 128.45 79.24 127.86 79.59 126.97 79.94 128.45 80.29 128.74 80.64 130.52 80.98 129.63 81.33 126.97 81.68 126.97 82.03 126.97 82.38 126.08 82.73 127.56 83.08 128.15 83.43 129.04 83.78 128.15 84.13 128.45 84.48 129.34 84.83 129.04 85.17 129.34 85.52 129.63 85.87 129.63 86.22 129.93 86.57 130.23 86.92 130.52 87.27 131.11 87.62 131.11 87.97 131.11 88.32 131.11 88.67 131.11 89.02 131.11 89.36 131.11 89.71 131.11 90.06 131.11 90.41 130.82 90.76 130.82 91.11 131.11 91.46 131.11 91.81 131.11 92.16 131.11 92.51 130.82 92.86 131.11 93.2 131.11 93.55 130.52 93.9 129.34 94.25 129.04 94.6 130.23 94.95 130.82 95.3 130.52 95.65 131.11 96 131.11 96.35 131.11 96.7 129.93 97.05 130.23 97.39 129.34 97.74 128.45 98.09 129.04 98.44 128.15 98.79 126.97 99.14 128.74 99.49 130.52 99.84 131.11 100.19 131.11 100.54 131.11 100.89 131.11 101.23 131.11 101.58 130.52 101.93 130.82 102.28 130.82 102.63 131.11 102.98 131.11 103.33 131.11 103.68 131.11 104.03 130.82 104.38 130.52 104.73 130.52 105.08 130.52 105.42 130.52 105.77 130.23 106.12 129.63 106.47 129.04 106.82 129.93 107.17 130.52 107.52 131.11 107.87 130.52 108.22 130.82 108.57 130.23 108.92 130.23 109.26 129.93 109.61 129.63 109.96 129.04 110.31 130.23 110.66 130.23 111.01 130.52 111.36 131.11 111.71 131.11 112.06 131.11 112.41 130.52 112.76 130.82 113.11 131.11 113.45 131.11 113.8 131.11 114.15 131.11 114.5 131.11 114.85 131.11 115.2 131.11 115.55 131.11 115.9 130.52 116.25 130.52 116.6 131.11 116.95 130.82 117.3 129.63 117.64 129.34 117.99 130.23 118.34 129.04 118.69 127.26 119.04 128.45 119.39 127.86 119.74 129.04 120.09 128.15 120.44 128.74 120.79 128.74 121.14 128.45 121.48 127.86 121.83 129.04 122.18 128.74 122.53 129.34 122.88 128.74 123.23 128.45 123.58 129.04 123.93 127.56 124.28 126.37 124.63 126.37 124.98 126.97 125.33 127.56 125.67 128.74 126.02 128.74 126.37 130.23 126.72 130.23 127.07 130.23 127.42 130.23 127.77 130.82 128.12 131.11 128.47 131.11 128.82 131.11 129.17 130.52 129.51 129.63 129.86 129.63 130.21 130.23 130.56 130.52 130.91 129.93 131.26 128.15 131.61 127.86 131.96 128.45 132.31 129.63 132.66 130.23 133.01 130.23 133.36 129.93 133.7 130.23 134.05 129.93 134.4 130.23 134.75 130.82 135.1 129.63 135.45 128.15 135.8 128.74 136.15 128.45 136.5 128.45 136.85 127.86 137.2 127.86 137.55 125.49 137.89 126.97 138.24 127.26 138.59 125.49 138.94 125.78 139.29 125.19 139.64 127.56 139.99 127.86 140.34 124.6 140.69 121.63 141.04 123.41 141.39 121.93 141.73 123.12 142.08 122.52 142.43 121.93 142.78 122.52 143.13 124.3 143.48 126.37 143.83 124.89 144.18 124 144.53 126.67 144.88 124.89 145.23 125.19 145.58 126.37 145.92 127.56 146.27 126.97 146.62 125.78 146.97 125.78 147.32 125.78 147.67 123.71 148.02 123.12 148.37 122.23 148.72 120.75 149.07 121.63 149.42 120.45 149.76 119.86 150.11 119.26 150.46 118.67 150.81 119.86 151.16 117.78 151.51 114.82 151.86 116.3 152.21 116.6 152.56 117.49 152.91 118.08 153.26 116.3 153.61 116.6 153.95 120.45 154.3 121.34 154.65 119.26 155 117.49 155.35 119.26 155.7 116.3 156.05 118.67 156.4 119.26 156.75 118.08 157.1 117.19 157.45 116.89 157.79 116.89 158.14 113.93 158.49 114.52 158.84 115.12 159.19 113.34 159.54 114.82 159.89 116.3 160.24 114.82 160.59 111.56 160.94 112.45 161.29 113.64 161.64 113.34 161.98 110.67 162.33 112.75 162.68 112.75 163.03 111.56 163.38 111.56 163.73 110.38 164.08 110.97 164.43 113.34 164.78 114.82 165.13 113.93 165.48 114.23 165.83 116.3 166.17 115.71 166.52 116.89 166.87 117.19 167.22 118.97 167.57 118.97 167.92 118.97 168.27 117.78 168.62 113.04 168.97 111.86 169.32 112.75 169.67 112.75 170.01 112.15 170.36 109.78 170.71 109.19 171.06 109.78 171.41 110.38 171.76 111.27 172.11 106.53 172.46 100.9 172.81 100.9 173.16 95.56 173.51 94.38 173.86 98.23 174.2 95.27 174.55 94.97 174.9 94.08 175.25 88.45 175.6 82.53 175.95 83.12 176.3 83.42 176.65 78.97 177 82.23 177.35 81.94 177.7 85.79 178.04 83.71 178.39 74.23 178.74 77.49 179.09 76.9 179.44 80.75 179.79 78.68 180.14 77.79 180.49 75.71 180.84 76.01 181.19 80.16 181.54 78.38 181.89 79.27 182.23 76.6 182.58 76.01 182.93 80.16 183.28 80.45 183.63 78.68 183.98 73.94 184.33 73.05 184.68 77.49 185.03 71.57 185.38 73.64 185.73 76.31 186.08 75.12 186.42 80.16 186.77 81.64 187.12 80.75 187.47 85.19 187.82 81.34 188.17 76.6 188.52 77.2 188.87 78.68 189.22 76.9 189.57 76.6 189.92 74.83 190.26 75.71 190.61 76.9 190.96 71.57 191.31 75.12 191.66 71.86 192.01 71.57 192.36 68.01 192.71 71.27 193.06 71.27 193.41 69.2 193.76 65.64 194.11 61.49 194.45 61.79 194.8 63.57 195.15 65.94 195.5 72.46 195.85 77.2 196.2 74.53"/>
      </g>
      <g stroke-width="0.3" fill="#000000" fill-opacity="0.000" class="geometry" stroke-dasharray="none" stroke="#E6F598" id="img-b10028d2-13">
        <path fill="none" d="M21.98,71.86 L 22.33 71.86 22.68 74.83 23.03 74.83 23.38 75.71 23.73 70.68 24.08 69.79 24.42 70.09 24.77 73.34 25.12 71.57 25.47 70.97 25.82 71.57 26.17 68.9 26.52 68.6 26.87 65.05 27.22 62.68 27.57 62.98 27.92 65.05 28.27 67.42 28.61 71.57 28.96 72.16 29.31 70.97 29.66 72.46 30.01 72.46 30.36 68.01 30.71 65.94 31.06 62.38 31.41 64.75 31.76 67.12 32.11 62.98 32.45 60.61 32.8 60.31 33.15 60.9 33.5 60.61 33.85 57.05 34.2 54.09 34.55 53.5 34.9 53.2 35.25 51.72 35.6 49.94 35.95 48.76 36.3 45.2 36.64 43.42 36.99 38.39 37.34 38.68 37.69 44.02 38.04 42.83 38.39 42.53 38.74 39.57 39.09 37.2 39.44 36.61 39.79 39.87 40.14 38.09 40.49 37.5 40.83 41.35 41.18 44.31 41.53 40.46 41.88 39.87 42.23 36.9 42.58 34.83 42.93 36.61 43.28 36.02 43.63 35.72 43.98 36.02 44.33 36.31 44.67 40.16 45.02 38.39 45.37 35.42 45.72 33.35 46.07 36.31 46.42 35.13 46.77 33.35 47.12 33.65 47.47 34.53 47.82 29.79 48.17 31.28 48.52 33.65 48.86 35.42 49.21 34.83 49.56 30.98 49.91 31.28 50.26 28.91 50.61 31.57 50.96 33.35 51.31 33.05 51.66 31.87 52.01 34.53 52.36 38.09 52.7 38.09 53.05 41.05 53.4 43.42 53.75 38.39 54.1 38.98 54.45 43.42 54.8 41.35 55.15 43.13 55.5 45.2 55.85 44.31 56.2 46.68 56.55 52.9 56.89 51.72 57.24 52.31 57.59 54.09 57.94 52.01 58.29 49.35 58.64 47.87 58.99 52.9 59.34 57.05 59.69 58.24 60.04 59.42 60.39 63.57 60.73 65.05 61.08 69.79 61.43 61.49 61.78 63.86 62.13 66.53 62.48 66.23 62.83 63.57 63.18 66.53 63.53 66.83 63.88 70.97 64.23 69.49 64.58 67.72 64.92 68.31 65.27 70.97 65.62 68.01 65.97 64.75 66.32 59.72 66.67 54.09 67.02 52.61 67.37 51.13 67.72 51.42 68.07 53.2 68.42 49.05 68.77 51.13 69.11 46.39 69.46 46.68 69.81 47.27 70.16 46.68 70.51 46.98 70.86 49.35 71.21 46.68 71.56 49.64 71.91 52.61 72.26 57.94 72.61 57.94 72.95 56.16 73.3 55.87 73.65 55.87 74 52.9 74.35 55.87 74.7 57.64 75.05 57.94 75.4 55.87 75.75 57.64 76.1 60.01 76.45 60.01 76.8 58.83 77.14 60.9 77.49 60.01 77.84 62.38 78.19 60.01 78.54 57.35 78.89 57.64 79.24 50.53 79.59 50.24 79.94 50.53 80.29 51.42 80.64 48.46 80.98 43.72 81.33 44.9 81.68 47.27 82.03 47.87 82.38 45.2 82.73 46.98 83.08 44.9 83.43 47.57 83.78 44.9 84.13 47.57 84.48 47.57 84.83 44.31 85.17 45.5 85.52 41.94 85.87 42.24 86.22 46.39 86.57 45.79 86.92 40.76 87.27 38.39 87.62 39.87 87.97 42.24 88.32 48.76 88.67 49.35 89.02 47.27 89.36 47.57 89.71 46.98 90.06 41.94 90.41 49.05 90.76 50.24 91.11 54.68 91.46 54.38 91.81 54.09 92.16 53.79 92.51 57.05 92.86 53.5 93.2 54.98 93.55 50.24 93.9 49.94 94.25 47.87 94.6 52.61 94.95 53.79 95.3 49.64 95.65 49.05 96 41.64 96.35 40.16 96.7 36.61 97.05 38.98 97.39 40.46 97.74 38.39 98.09 41.05 98.44 40.16 98.79 40.16 99.14 41.35 99.49 40.16 99.84 36.31 100.19 37.2 100.54 42.24 100.89 42.83 101.23 39.57 101.58 37.5 101.93 35.72 102.28 36.31 102.63 37.2 102.98 38.39 103.33 34.24 103.68 36.31 104.03 36.02 104.38 36.02 104.73 39.27 105.08 37.2 105.42 36.02 105.77 39.57 106.12 40.16 106.47 40.76 106.82 38.39 107.17 39.87 107.52 36.9 107.87 34.53 108.22 34.24 108.57 37.79 108.92 33.05 109.26 29.5 109.61 30.98 109.96 33.35 110.31 31.28 110.66 32.46 111.01 35.13 111.36 29.79 111.71 26.54 112.06 26.24 112.41 28.02 112.76 26.83 113.11 28.61 113.45 28.02 113.8 28.61 114.15 31.28 114.5 29.5 114.85 28.91 115.2 28.02 115.55 30.09 115.9 30.09 116.25 31.57 116.6 28.61 116.95 27.13 117.3 28.91 117.64 29.2 117.99 28.61 118.34 28.02 118.69 27.42 119.04 25.35 119.39 24.46 119.74 26.24 120.09 25.65 120.44 25.35 120.79 25.94 121.14 25.35 121.48 27.42 121.83 29.5 122.18 30.09 122.53 29.2 122.88 24.46 123.23 28.91 123.58 30.09 123.93 27.72 124.28 27.72 124.63 28.31 124.98 26.54 125.33 27.72 125.67 30.39 126.02 31.87 126.37 27.42 126.72 28.31 127.07 29.79 127.42 30.09 127.77 27.72 128.12 28.31 128.47 25.94 128.82 23.57 129.17 24.17 129.51 24.76 129.86 27.72 130.21 26.24 130.56 27.72 130.91 26.54 131.26 29.79 131.61 29.5 131.96 32.76 132.31 33.35 132.66 33.05 133.01 36.61 133.36 39.27 133.7 39.57 134.05 39.87 134.4 40.76 134.75 39.57 135.1 41.94 135.45 42.53 135.8 37.5 136.15 34.53 136.5 34.83 136.85 38.09 137.2 37.5 137.55 41.35 137.89 41.35 138.24 40.46 138.59 46.09 138.94 44.9 139.29 45.2 139.64 45.2 139.99 46.68 140.34 50.83 140.69 48.16 141.04 46.98 141.39 41.35 141.73 39.57 142.08 41.35 142.43 39.87 142.78 42.53 143.13 43.72 143.48 44.02 143.83 43.42 144.18 43.13 144.53 45.2 144.88 49.35 145.23 48.46 145.58 49.05 145.92 47.87 146.27 51.72 146.62 52.31 146.97 50.24 147.32 50.83 147.67 51.72 148.02 51.13 148.37 47.27 148.72 42.83 149.07 44.02 149.42 47.57 149.76 45.5 150.11 44.9 150.46 43.72 150.81 43.72 151.16 43.13 151.51 42.83 151.86 42.83 152.21 48.76 152.56 49.35 152.91 48.16 153.26 50.53 153.61 48.76 153.95 54.68 154.3 53.2 154.65 53.2 155 52.9 155.35 56.46 155.7 54.38 156.05 55.27 156.4 51.72 156.75 52.61 157.1 48.76 157.45 45.2 157.79 47.57 158.14 46.68 158.49 47.57 158.84 47.27 159.19 50.53 159.54 47.57 159.89 42.24 160.24 41.64 160.59 44.61 160.94 46.39 161.29 45.2 161.64 41.94 161.98 43.72 162.33 43.13 162.68 39.87 163.03 37.5 163.38 38.68 163.73 41.64 164.08 38.68 164.43 36.31 164.78 39.87 165.13 41.64 165.48 43.13 165.83 46.98 166.17 43.72 166.52 46.39 166.87 48.76 167.22 49.05 167.57 46.68 167.92 49.35 168.27 52.31 168.62 52.01 168.97 51.42 169.32 47.87 169.67 49.35 170.01 49.35 170.36 51.13 170.71 58.24 171.06 60.61 171.41 59.42 171.76 57.35 172.11 55.57 172.46 57.05 172.81 57.94 173.16 52.9 173.51 52.9 173.86 55.27 174.2 56.16 174.55 55.57 174.9 56.16 175.25 56.75 175.6 58.53 175.95 59.12 176.3 57.35 176.65 58.53 177 52.61 177.35 54.09 177.7 57.64 178.04 58.53 178.39 59.12 178.74 57.64 179.09 55.87 179.44 55.87 179.79 55.57 180.14 56.46 180.49 57.64 180.84 60.01 181.19 58.83 181.54 61.79 181.89 63.86 182.23 65.64 182.58 69.49 182.93 66.53 183.28 64.46 183.63 62.38 183.98 62.68 184.33 67.12 184.68 65.94 185.03 66.83 185.38 65.05 185.73 60.9 186.08 56.75 186.42 55.87 186.77 57.35 187.12 57.05 187.47 52.61 187.82 54.09 188.17 56.46 188.52 58.24 188.87 58.24 189.22 59.72 189.57 60.01 189.92 61.2 190.26 60.9 190.61 61.2 190.96 59.12 191.31 58.24 191.66 57.35 192.01 56.16 192.36 52.61 192.71 49.05 193.06 45.79 193.41 44.02 193.76 46.09 194.11 48.16 194.45 50.83 194.8 51.13 195.15 48.16 195.5 48.16 195.85 44.61 196.2 44.31"/>
      </g>
      <g stroke-width="0.3" fill="#000000" fill-opacity="0.000" class="geometry" stroke-dasharray="none" stroke="#FFFFBF" id="img-b10028d2-14">
        <path fill="none" d="M21.98,71.86 L 22.33 68.6 22.68 68.01 23.03 68.31 23.38 67.72 23.73 68.01 24.08 68.9 24.42 68.6 24.77 70.97 25.12 67.72 25.47 68.01 25.82 67.42 26.17 70.68 26.52 69.2 26.87 67.12 27.22 71.27 27.57 71.86 27.92 68.31 28.27 71.86 28.61 65.94 28.96 68.31 29.31 63.27 29.66 63.86 30.01 65.94 30.36 67.42 30.71 69.49 31.06 67.42 31.41 69.49 31.76 69.49 32.11 71.27 32.45 68.6 32.8 66.23 33.15 62.68 33.5 66.83 33.85 63.57 34.2 68.31 34.55 69.79 34.9 69.2 35.25 71.86 35.6 73.34 35.95 74.23 36.3 72.46 36.64 77.2 36.99 81.94 37.34 86.38 37.69 89.05 38.04 86.08 38.39 88.16 38.74 88.16 39.09 85.19 39.44 88.16 39.79 87.86 40.14 89.64 40.49 82.53 40.83 79.57 41.18 80.16 41.53 76.31 41.88 72.46 42.23 74.53 42.58 75.12 42.93 76.6 43.28 78.08 43.63 76.01 43.98 78.38 44.33 79.57 44.67 76.9 45.02 77.2 45.37 73.94 45.72 73.05 46.07 78.97 46.42 77.49 46.77 82.23 47.12 81.94 47.47 83.71 47.82 83.42 48.17 82.82 48.52 81.34 48.86 77.79 49.21 78.08 49.56 74.53 49.91 75.12 50.26 72.75 50.61 73.64 50.96 67.72 51.31 67.12 51.66 70.97 52.01 67.42 52.36 65.94 52.7 67.72 53.05 72.16 53.4 68.9 53.75 68.6 54.1 72.16 54.45 76.01 54.8 77.2 55.15 80.45 55.5 80.45 55.85 80.45 56.2 84.6 56.55 79.57 56.89 77.2 57.24 75.71 57.59 77.79 57.94 78.38 58.29 77.49 58.64 79.86 58.99 77.79 59.34 74.53 59.69 77.49 60.04 78.08 60.39 79.86 60.73 81.05 61.08 78.68 61.43 76.6 61.78 77.79 62.13 75.42 62.48 79.27 62.83 74.83 63.18 71.86 63.53 74.53 63.88 73.64 64.23 71.27 64.58 75.42 64.92 71.27 65.27 73.34 65.62 76.31 65.97 78.38 66.32 76.6 66.67 78.68 67.02 81.05 67.37 78.97 67.72 74.23 68.07 76.6 68.42 74.83 68.77 78.68 69.11 77.2 69.46 75.12 69.81 77.2 70.16 77.2 70.51 81.64 70.86 84.6 71.21 84.6 71.56 81.34 71.91 81.64 72.26 85.79 72.61 83.71 72.95 85.19 73.3 85.19 73.65 84.31 74 79.57 74.35 79.27 74.7 79.86 75.05 76.31 75.4 80.16 75.75 79.86 76.1 79.27 76.45 78.68 76.8 77.49 77.14 78.97 77.49 73.05 77.84 73.64 78.19 73.34 78.54 71.86 78.89 67.42 79.24 68.9 79.59 68.9 79.94 67.72 80.29 62.38 80.64 68.31 80.98 66.83 81.33 65.05 81.68 62.68 82.03 68.31 82.38 66.23 82.73 62.68 83.08 64.16 83.43 67.12 83.78 67.72 84.13 67.72 84.48 72.46 84.83 74.23 85.17 69.79 85.52 73.05 85.87 76.6 86.22 75.42 86.57 79.57 86.92 85.49 87.27 86.68 87.62 89.94 87.97 84.9 88.32 83.42 88.67 77.2 89.02 75.12 89.36 76.9 89.71 78.08 90.06 76.6 90.41 75.12 90.76 79.27 91.11 80.75 91.46 78.97 91.81 78.08 92.16 75.71 92.51 78.38 92.86 81.64 93.2 80.16 93.55 81.64 93.9 83.71 94.25 90.53 94.6 87.57 94.95 89.94 95.3 89.94 95.65 90.82 96 93.49 96.35 91.12 96.7 97.64 97.05 96.16 97.39 98.23 97.74 99.42 98.09 101.19 98.44 100.9 98.79 100.6 99.14 97.34 99.49 96.75 99.84 97.34 100.19 96.16 100.54 98.23 100.89 94.97 101.23 94.08 101.58 97.64 101.93 95.27 102.28 94.38 102.63 94.38 102.98 98.23 103.33 98.53 103.68 90.82 104.03 87.86 104.38 86.97 104.73 79.27 105.08 84.9 105.42 87.86 105.77 89.64 106.12 90.82 106.47 92.01 106.82 94.38 107.17 95.56 107.52 94.97 107.87 99.12 108.22 97.05 108.57 96.16 108.92 96.16 109.26 90.53 109.61 93.49 109.96 95.56 110.31 93.49 110.66 98.53 111.01 98.53 111.36 99.42 111.71 99.12 112.06 97.64 112.41 91.12 112.76 90.53 113.11 86.68 113.45 89.94 113.8 84.9 114.15 87.57 114.5 86.38 114.85 89.94 115.2 89.34 115.55 86.68 115.9 83.12 116.25 82.53 116.6 87.86 116.95 88.16 117.3 88.75 117.64 86.97 117.99 86.97 118.34 82.53 118.69 84.31 119.04 78.38 119.39 78.68 119.74 84.31 120.09 84.6 120.44 82.53 120.79 80.16 121.14 81.94 121.48 80.45 121.83 81.34 122.18 81.94 122.53 74.23 122.88 75.42 123.23 78.97 123.58 76.31 123.93 75.42 124.28 76.9 124.63 79.86 124.98 83.42 125.33 82.23 125.67 78.97 126.02 80.45 126.37 78.08 126.72 78.38 127.07 77.79 127.42 80.16 127.77 78.68 128.12 77.2 128.47 75.71 128.82 77.49 129.17 75.12 129.51 78.97 129.86 82.53 130.21 80.45 130.56 81.34 130.91 81.34 131.26 78.08 131.61 77.79 131.96 79.57 132.31 81.34 132.66 79.57 133.01 80.16 133.36 81.05 133.7 75.12 134.05 78.08 134.4 80.16 134.75 81.64 135.1 80.75 135.45 80.75 135.8 80.75 136.15 78.08 136.5 76.01 136.85 73.64 137.2 71.86 137.55 72.75 137.89 73.64 138.24 74.23 138.59 71.27 138.94 72.16 139.29 69.49 139.64 73.64 139.99 79.27 140.34 76.01 140.69 74.23 141.04 79.27 141.39 74.83 141.73 75.42 142.08 76.9 142.43 78.97 142.78 75.12 143.13 73.34 143.48 77.49 143.83 76.6 144.18 72.46 144.53 74.83 144.88 80.16 145.23 85.49 145.58 80.16 145.92 82.53 146.27 75.71 146.62 79.27 146.97 77.49 147.32 75.42 147.67 71.86 148.02 76.01 148.37 70.97 148.72 72.75 149.07 68.01 149.42 65.64 149.76 62.98 150.11 70.97 150.46 65.64 150.81 67.42 151.16 68.9 151.51 71.57 151.86 69.49 152.21 67.12 152.56 66.23 152.91 60.31 153.26 54.09 153.61 55.27 153.95 48.46 154.3 48.76 154.65 48.46 155 44.61 155.35 46.39 155.7 50.24 156.05 48.16 156.4 49.05 156.75 49.35 157.1 46.98 157.45 41.35 157.79 43.72 158.14 45.5 158.49 47.27 158.84 49.05 159.19 47.57 159.54 47.87 159.89 49.64 160.24 51.72 160.59 49.35 160.94 49.35 161.29 47.57 161.64 48.76 161.98 46.39 162.33 40.46 162.68 42.53 163.03 45.79 163.38 44.02 163.73 38.09 164.08 36.9 164.43 38.09 164.78 35.13 165.13 36.02 165.48 36.02 165.83 36.31 166.17 37.5 166.52 39.57 166.87 38.68 167.22 39.57 167.57 41.05 167.92 38.39 168.27 34.53 168.62 38.39 168.97 38.09 169.32 34.83 169.67 30.68 170.01 35.42 170.36 38.98 170.71 37.2 171.06 35.42 171.41 33.65 171.76 30.98 172.11 31.57 172.46 32.46 172.81 32.46 173.16 31.57 173.51 32.16 173.86 30.98 174.2 30.09 174.55 29.2 174.9 30.39 175.25 28.61 175.6 30.09 175.95 27.72 176.3 26.24 176.65 26.54 177 27.72 177.35 25.05 177.7 23.87 178.04 23.57 178.39 21.8 178.74 20.31 179.09 20.31 179.44 20.02 179.79 18.24 180.14 18.24 180.49 17.65 180.84 18.54 181.19 18.24 181.54 19.43 181.89 20.02 182.23 22.68 182.58 22.68 182.93 22.68 183.28 23.87 183.63 22.09 183.98 22.09 184.33 21.5 184.68 20.91 185.03 22.09 185.38 20.91 185.73 20.61 186.08 22.39 186.42 22.09 186.77 22.09 187.12 20.91 187.47 20.61 187.82 20.02 188.17 21.2 188.52 24.46 188.87 23.28 189.22 20.61 189.57 17.65 189.92 17.06 190.26 16.76 190.61 17.94 190.96 17.35 191.31 16.46 191.66 17.35 192.01 16.17 192.36 17.06 192.71 17.94 193.06 18.54 193.41 18.83 193.76 15.28 194.11 17.35 194.45 17.35 194.8 17.06 195.15 16.76 195.5 17.06 195.85 16.46 196.2 17.35"/>
      </g>
      <g stroke-width="0.3" fill="#000000" fill-opacity="0.000" class="geometry" stroke-dasharray="none" stroke="#FEE08B" id="img-b10028d2-15">
        <path fill="none" d="M21.98,71.86 L 22.33 74.83 22.68 72.16 23.03 70.38 23.38 67.72 23.73 62.68 24.08 62.98 24.42 57.64 24.77 56.16 25.12 55.27 25.47 56.46 25.82 61.49 26.17 61.49 26.52 54.38 26.87 48.76 27.22 46.98 27.57 46.98 27.92 49.94 28.27 47.27 28.61 45.5 28.96 44.02 29.31 42.53 29.66 43.13 30.01 43.72 30.36 42.53 30.71 41.05 31.06 41.64 31.41 40.46 31.76 43.42 32.11 46.68 32.45 48.46 32.8 50.53 33.15 55.87 33.5 55.27 33.85 53.79 34.2 51.13 34.55 54.09 34.9 53.5 35.25 57.64 35.6 59.72 35.95 58.24 36.3 59.42 36.64 60.01 36.99 64.16 37.34 65.64 37.69 65.35 38.04 65.94 38.39 66.53 38.74 63.27 39.09 62.98 39.44 60.9 39.79 61.79 40.14 59.72 40.49 55.87 40.83 53.5 41.18 51.42 41.53 50.83 41.88 53.2 42.23 55.57 42.58 63.86 42.93 60.61 43.28 62.09 43.63 61.79 43.98 58.53 44.33 56.75 44.67 54.38 45.02 53.79 45.37 51.72 45.72 51.13 46.07 43.13 46.42 43.72 46.77 42.53 47.12 46.98 47.47 43.72 47.82 41.94 48.17 35.13 48.52 35.42 48.86 31.28 49.21 29.2 49.56 28.61 49.91 30.98 50.26 31.57 50.61 31.28 50.96 32.76 51.31 33.65 51.66 35.42 52.01 34.24 52.36 38.39 52.7 37.2 53.05 39.87 53.4 43.13 53.75 40.16 54.1 43.42 54.45 44.02 54.8 46.09 55.15 50.24 55.5 48.16 55.85 44.9 56.2 48.16 56.55 47.57 56.89 46.68 57.24 46.39 57.59 46.39 57.94 44.9 58.29 44.31 58.64 44.31 58.99 39.87 59.34 40.46 59.69 40.16 60.04 40.76 60.39 40.46 60.73 41.35 61.08 40.16 61.43 39.57 61.78 36.61 62.13 36.31 62.48 35.13 62.83 32.46 63.18 32.16 63.53 31.87 63.88 29.2 64.23 29.5 64.58 30.98 64.92 33.35 65.27 36.61 65.62 35.72 65.97 32.46 66.32 33.35 66.67 31.87 67.02 28.02 67.37 24.76 67.72 24.76 68.07 21.2 68.42 20.02 68.77 19.43 69.11 19.13 69.46 18.83 69.81 19.43 70.16 19.43 70.51 20.61 70.86 22.39 71.21 23.57 71.56 22.68 71.91 23.28 72.26 23.57 72.61 22.68 72.95 22.39 73.3 22.68 73.65 22.09 74 21.2 74.35 22.98 74.7 22.98 75.05 20.31 75.4 18.24 75.75 18.54 76.1 20.91 76.45 24.17 76.8 22.39 77.14 23.57 77.49 25.05 77.84 24.17 78.19 26.83 78.54 27.13 78.89 26.83 79.24 25.94 79.59 24.76 79.94 25.05 80.29 21.2 80.64 22.09 80.98 26.24 81.33 28.61 81.68 31.28 82.03 28.91 82.38 28.02 82.73 25.35 83.08 26.24 83.43 26.83 83.78 27.42 84.13 25.94 84.48 30.68 84.83 28.31 85.17 26.54 85.52 27.13 85.87 28.31 86.22 26.83 86.57 32.16 86.92 35.42 87.27 36.02 87.62 34.53 87.97 31.28 88.32 29.2 88.67 31.28 89.02 29.5 89.36 30.09 89.71 27.42 90.06 26.54 90.41 25.35 90.76 23.57 91.11 27.72 91.46 26.24 91.81 25.35 92.16 23.87 92.51 21.2 92.86 20.02 93.2 18.24 93.55 15.87 93.9 16.76 94.25 15.87 94.6 17.06 94.95 15.87 95.3 17.65 95.65 17.35 96 18.54 96.35 17.65 96.7 17.94 97.05 17.35 97.39 17.06 97.74 16.46 98.09 15.87 98.44 15.28 98.79 16.17 99.14 17.06 99.49 16.76 99.84 16.46 100.19 15.87 100.54 15.87 100.89 16.46 101.23 16.17 101.58 16.17 101.93 15.87 102.28 14.98 102.63 15.87 102.98 16.76 103.33 16.76 103.68 18.24 104.03 19.13 104.38 17.65 104.73 17.35 105.08 17.65 105.42 17.65 105.77 19.43 106.12 16.46 106.47 17.35 106.82 17.06 107.17 16.76 107.52 16.17 107.87 17.94 108.22 17.06 108.57 18.24 108.92 17.06 109.26 17.94 109.61 18.83 109.96 18.54 110.31 17.35 110.66 18.24 111.01 17.35 111.36 16.46 111.71 15.87 112.06 16.17 112.41 15.28 112.76 14.39 113.11 13.2 113.45 12.91 113.8 12.61 114.15 12.61 114.5 12.61 114.85 12.61 115.2 12.61 115.55 12.61 115.9 12.61 116.25 12.61 116.6 12.61 116.95 12.91 117.3 12.91 117.64 12.61 117.99 12.61 118.34 14.09 118.69 12.91 119.04 12.91 119.39 13.2 119.74 13.2 120.09 13.8 120.44 13.8 120.79 13.8 121.14 13.8 121.48 14.98 121.83 14.09 122.18 14.98 122.53 14.69 122.88 14.39 123.23 14.39 123.58 14.39 123.93 14.39 124.28 14.39 124.63 15.87 124.98 15.57 125.33 14.39 125.67 14.69 126.02 14.98 126.37 16.17 126.72 14.98 127.07 16.76 127.42 16.76 127.77 16.76 128.12 17.06 128.47 17.35 128.82 18.83 129.17 17.65 129.51 20.02 129.86 19.43 130.21 19.43 130.56 22.09 130.91 24.76 131.26 25.35 131.61 22.98 131.96 25.65 132.31 23.57 132.66 22.09 133.01 22.09 133.36 22.68 133.7 20.31 134.05 19.72 134.4 23.57 134.75 24.76 135.1 24.17 135.45 25.05 135.8 27.72 136.15 28.31 136.5 28.91 136.85 27.72 137.2 27.13 137.55 28.61 137.89 28.31 138.24 27.72 138.59 28.31 138.94 26.83 139.29 27.42 139.64 25.65 139.99 22.39 140.34 21.2 140.69 20.31 141.04 21.2 141.39 21.5 141.73 20.31 142.08 18.83 142.43 20.02 142.78 20.61 143.13 20.02 143.48 19.72 143.83 18.24 144.18 17.06 144.53 17.35 144.88 17.65 145.23 17.06 145.58 15.87 145.92 15.87 146.27 15.28 146.62 14.98 146.97 15.57 147.32 16.46 147.67 15.57 148.02 15.57 148.37 14.69 148.72 15.28 149.07 15.28 149.42 15.87 149.76 16.76 150.11 17.35 150.46 16.76 150.81 14.69 151.16 15.87 151.51 16.46 151.86 18.24 152.21 18.24 152.56 19.72 152.91 20.91 153.26 19.43 153.61 20.91 153.95 19.43 154.3 20.61 154.65 21.2 155 22.68 155.35 24.17 155.7 23.57 156.05 25.65 156.4 22.09 156.75 23.87 157.1 22.39 157.45 24.46 157.79 23.87 158.14 27.72 158.49 25.35 158.84 26.83 159.19 28.31 159.54 26.24 159.89 25.05 160.24 21.2 160.59 20.02 160.94 20.02 161.29 21.5 161.64 20.02 161.98 20.61 162.33 20.91 162.68 22.39 163.03 23.87 163.38 24.17 163.73 26.54 164.08 30.98 164.43 31.87 164.78 31.28 165.13 31.28 165.48 30.98 165.83 32.76 166.17 34.83 166.52 29.79 166.87 29.79 167.22 32.16 167.57 33.94 167.92 37.2 168.27 38.09 168.62 35.42 168.97 35.42 169.32 36.31 169.67 36.02 170.01 40.16 170.36 41.35 170.71 36.02 171.06 37.2 171.41 30.68 171.76 30.39 172.11 32.16 172.46 34.24 172.81 36.31 173.16 38.39 173.51 41.64 173.86 42.83 174.2 44.61 174.55 43.42 174.9 46.68 175.25 49.05 175.6 46.39 175.95 44.9 176.3 45.79 176.65 44.02 177 44.02 177.35 46.68 177.7 46.09 178.04 49.94 178.39 52.31 178.74 52.61 179.09 52.31 179.44 50.53 179.79 52.9 180.14 49.05 180.49 46.98 180.84 44.61 181.19 44.31 181.54 41.94 181.89 43.72 182.23 39.57 182.58 41.94 182.93 44.31 183.28 43.42 183.63 42.24 183.98 43.13 184.33 41.64 184.68 40.16 185.03 38.39 185.38 36.02 185.73 35.72 186.08 37.79 186.42 34.53 186.77 35.72 187.12 39.57 187.47 36.02 187.82 37.2 188.17 34.53 188.52 37.2 188.87 36.02 189.22 37.5 189.57 41.05 189.92 42.83 190.26 46.09 190.61 51.42 190.96 48.46 191.31 52.31 191.66 55.57 192.01 54.98 192.36 57.64 192.71 60.9 193.06 65.05 193.41 64.75 193.76 67.72 194.11 66.23 194.45 68.31 194.8 70.38 195.15 67.12 195.5 66.83 195.85 61.2 196.2 62.38"/>
      </g>
      <g stroke-width="0.3" fill="#000000" fill-opacity="0.000" class="geometry" stroke-dasharray="none" stroke="#FDAE61" id="img-b10028d2-16">
        <path fill="none" d="M21.98,71.86 L 22.33 69.79 22.68 73.64 23.03 68.6 23.38 66.23 23.73 66.23 24.08 60.01 24.42 55.87 24.77 54.68 25.12 49.94 25.47 47.57 25.82 47.87 26.17 44.61 26.52 46.98 26.87 47.57 27.22 48.76 27.57 49.35 27.92 51.42 28.27 52.9 28.61 54.68 28.96 54.09 29.31 54.98 29.66 56.46 30.01 58.83 30.36 56.46 30.71 60.01 31.06 59.42 31.41 58.24 31.76 54.98 32.11 53.5 32.45 57.64 32.8 55.57 33.15 53.79 33.5 52.01 33.85 52.9 34.2 54.38 34.55 50.83 34.9 50.83 35.25 47.57 35.6 47.57 35.95 48.16 36.3 51.42 36.64 49.64 36.99 52.31 37.34 51.42 37.69 52.61 38.04 52.01 38.39 55.87 38.74 54.98 39.09 55.87 39.44 51.72 39.79 50.24 40.14 45.5 40.49 51.13 40.83 55.27 41.18 51.42 41.53 53.5 41.88 53.5 42.23 61.49 42.58 58.24 42.93 55.57 43.28 54.09 43.63 59.12 43.98 66.83 44.33 67.12 44.67 72.75 45.02 71.27 45.37 72.75 45.72 73.64 46.07 67.42 46.42 63.27 46.77 62.38 47.12 65.94 47.47 68.31 47.82 70.68 48.17 71.27 48.52 70.68 48.86 70.68 49.21 70.97 49.56 64.75 49.91 69.2 50.26 70.68 50.61 70.09 50.96 71.57 51.31 70.97 51.66 64.75 52.01 64.16 52.36 65.94 52.7 64.16 53.05 64.16 53.4 64.75 53.75 69.79 54.1 67.72 54.45 64.75 54.8 66.53 55.15 70.97 55.5 68.6 55.85 70.68 56.2 73.05 56.55 70.09 56.89 71.86 57.24 75.42 57.59 76.9 57.94 76.31 58.29 75.42 58.64 72.16 58.99 76.31 59.34 76.01 59.69 78.08 60.04 70.68 60.39 70.68 60.73 71.86 61.08 74.83 61.43 71.57 61.78 70.09 62.13 74.23 62.48 74.23 62.83 73.64 63.18 73.64 63.53 74.83 63.88 73.64 64.23 76.31 64.58 71.86 64.92 66.83 65.27 63.86 65.62 67.42 65.97 64.46 66.32 60.9 66.67 65.94 67.02 67.72 67.37 70.09 67.72 67.42 68.07 68.9 68.42 70.09 68.77 72.46 69.11 76.31 69.46 81.64 69.81 84.31 70.16 85.49 70.51 80.16 70.86 79.57 71.21 81.94 71.56 80.16 71.91 78.08 72.26 72.75 72.61 72.16 72.95 74.83 73.3 74.53 73.65 79.57 74 76.31 74.35 80.75 74.7 83.12 75.05 82.23 75.4 88.16 75.75 87.57 76.1 87.27 76.45 90.82 76.8 88.16 77.14 84.6 77.49 87.27 77.84 88.75 78.19 88.75 78.54 89.34 78.89 93.79 79.24 92.9 79.59 89.05 79.94 92.31 80.29 95.27 80.64 94.38 80.98 92.6 81.33 84.6 81.68 88.16 82.03 86.38 82.38 86.97 82.73 85.19 83.08 87.86 83.43 91.42 83.78 91.71 84.13 90.23 84.48 92.6 84.83 97.34 85.17 95.27 85.52 95.86 85.87 98.23 86.22 99.71 86.57 99.71 86.92 100.3 87.27 96.16 87.62 93.49 87.97 95.27 88.32 89.05 88.67 94.08 89.02 93.49 89.36 92.9 89.71 90.82 90.06 91.71 90.41 89.94 90.76 93.79 91.11 96.45 91.46 94.38 91.81 92.9 92.16 91.12 92.51 89.94 92.86 88.45 93.2 89.34 93.55 92.01 93.9 94.97 94.25 99.42 94.6 96.16 94.95 97.64 95.3 96.45 95.65 96.75 96 96.16 96.35 94.97 96.7 97.64 97.05 98.53 97.39 95.27 97.74 95.27 98.09 96.16 98.44 92.6 98.79 99.42 99.14 99.12 99.49 96.16 99.84 94.97 100.19 92.31 100.54 91.71 100.89 92.01 101.23 84.9 101.58 88.75 101.93 90.23 102.28 89.94 102.63 88.75 102.98 86.68 103.33 85.49 103.68 83.42 104.03 86.08 104.38 86.08 104.73 89.34 105.08 86.97 105.42 84.9 105.77 84.6 106.12 87.27 106.47 84.01 106.82 85.79 107.17 84.01 107.52 86.38 107.87 88.75 108.22 84.6 108.57 90.82 108.92 90.53 109.26 89.34 109.61 87.27 109.96 90.23 110.31 91.71 110.66 94.68 111.01 92.31 111.36 86.97 111.71 92.9 112.06 92.01 112.41 93.49 112.76 93.19 113.11 91.42 113.45 89.34 113.8 87.27 114.15 86.08 114.5 86.68 114.85 88.75 115.2 92.9 115.55 92.31 115.9 92.9 116.25 95.86 116.6 97.34 116.95 100.01 117.3 98.53 117.64 96.75 117.99 100.9 118.34 101.19 118.69 105.64 119.04 102.38 119.39 100.3 119.74 103.86 120.09 106.23 120.44 106.53 120.79 105.93 121.14 106.53 121.48 102.97 121.83 104.16 122.18 102.38 122.53 105.04 122.88 106.82 123.23 110.97 123.58 111.27 123.93 112.75 124.28 115.41 124.63 115.12 124.98 116.3 125.33 116.01 125.67 115.12 126.02 114.23 126.37 116.6 126.72 113.34 127.07 116.01 127.42 113.34 127.77 113.93 128.12 115.41 128.47 116.89 128.82 113.34 129.17 113.64 129.51 108.01 129.86 104.16 130.21 101.79 130.56 104.45 130.91 103.27 131.26 105.34 131.61 105.93 131.96 106.82 132.31 107.41 132.66 107.12 133.01 108.6 133.36 110.38 133.7 108.01 134.05 107.71 134.4 108.9 134.75 109.19 135.1 110.97 135.45 112.15 135.8 109.49 136.15 108.6 136.5 110.38 136.85 108.6 137.2 102.97 137.55 101.79 137.89 101.79 138.24 101.49 138.59 101.79 138.94 103.56 139.29 102.38 139.64 99.42 139.99 104.45 140.34 103.27 140.69 104.16 141.04 104.45 141.39 106.23 141.73 107.71 142.08 108.01 142.43 110.38 142.78 114.52 143.13 118.38 143.48 119.56 143.83 116.89 144.18 119.56 144.53 119.26 144.88 119.56 145.23 118.97 145.58 118.67 145.92 116.01 146.27 119.56 146.62 118.38 146.97 117.78 147.32 113.34 147.67 114.82 148.02 114.23 148.37 115.71 148.72 114.52 149.07 111.56 149.42 112.15 149.76 111.56 150.11 113.34 150.46 112.75 150.81 110.38 151.16 112.15 151.51 113.04 151.86 111.86 152.21 109.49 152.56 111.86 152.91 114.52 153.26 114.82 153.61 117.19 153.95 117.49 154.3 117.49 154.65 115.12 155 114.52 155.35 114.52 155.7 114.23 156.05 114.52 156.4 112.15 156.75 106.82 157.1 111.27 157.45 105.04 157.79 104.16 158.14 101.19 158.49 102.97 158.84 101.79 159.19 99.42 159.54 100.6 159.89 100.6 160.24 97.05 160.59 94.08 160.94 95.86 161.29 95.27 161.64 96.45 161.98 98.23 162.33 98.82 162.68 96.45 163.03 95.56 163.38 94.97 163.73 93.49 164.08 93.19 164.43 91.71 164.78 96.16 165.13 99.12 165.48 96.16 165.83 94.68 166.17 102.08 166.52 102.67 166.87 99.42 167.22 99.12 167.57 98.82 167.92 96.75 168.27 99.71 168.62 102.08 168.97 101.49 169.32 105.04 169.67 106.53 170.01 108.6 170.36 110.08 170.71 108.6 171.06 105.93 171.41 102.38 171.76 97.93 172.11 98.53 172.46 99.12 172.81 99.12 173.16 95.56 173.51 93.79 173.86 89.94 174.2 91.42 174.55 91.71 174.9 89.94 175.25 89.64 175.6 92.31 175.95 95.27 176.3 91.71 176.65 89.64 177 89.05 177.35 88.75 177.7 87.57 178.04 90.53 178.39 86.68 178.74 88.16 179.09 92.01 179.44 90.23 179.79 85.49 180.14 84.31 180.49 85.79 180.84 88.75 181.19 88.16 181.54 90.23 181.89 93.79 182.23 88.75 182.58 82.82 182.93 83.42 183.28 86.97 183.63 85.19 183.98 86.68 184.33 86.97 184.68 91.12 185.03 93.19 185.38 89.34 185.73 88.75 186.08 89.94 186.42 88.16 186.77 89.05 187.12 87.57 187.47 86.97 187.82 87.27 188.17 84.6 188.52 84.31 188.87 82.53 189.22 80.75 189.57 81.34 189.92 78.38 190.26 78.08 190.61 75.71 190.96 74.83 191.31 75.42 191.66 74.83 192.01 75.71 192.36 74.53 192.71 70.68 193.06 70.38 193.41 69.49 193.76 71.27 194.11 73.64 194.45 75.71 194.8 76.6 195.15 74.23 195.5 76.6 195.85 77.79 196.2 80.16"/>
      </g>
      <g stroke-width="0.3" fill="#000000" fill-opacity="0.000" class="geometry" stroke-dasharray="none" stroke="#F46D43" id="img-b10028d2-17">
        <path fill="none" d="M21.98,71.86 L 22.33 74.83 22.68 75.12 23.03 76.31 23.38 65.05 23.73 61.2 24.08 62.98 24.42 63.27 24.77 68.6 25.12 70.97 25.47 74.23 25.82 79.27 26.17 81.34 26.52 80.75 26.87 84.31 27.22 84.6 27.57 87.57 27.92 92.6 28.27 92.31 28.61 89.05 28.96 90.53 29.31 91.42 29.66 94.97 30.01 94.68 30.36 92.9 30.71 94.97 31.06 94.68 31.41 96.45 31.76 99.12 32.11 102.08 32.45 101.49 32.8 105.34 33.15 101.19 33.5 99.42 33.85 99.71 34.2 98.23 34.55 97.05 34.9 93.79 35.25 90.53 35.6 89.94 35.95 87.86 36.3 89.34 36.64 86.38 36.99 88.75 37.34 83.71 37.69 86.08 38.04 86.08 38.39 83.42 38.74 81.34 39.09 79.27 39.44 81.05 39.79 84.9 40.14 80.45 40.49 83.71 40.83 83.12 41.18 87.86 41.53 85.49 41.88 88.16 42.23 88.45 42.58 91.42 42.93 92.9 43.28 95.56 43.63 92.01 43.98 95.27 44.33 96.75 44.67 94.38 45.02 93.49 45.37 90.53 45.72 94.38 46.07 91.42 46.42 94.38 46.77 93.79 47.12 89.94 47.47 89.05 47.82 91.12 48.17 88.45 48.52 86.68 48.86 88.45 49.21 83.42 49.56 85.49 49.91 87.27 50.26 90.23 50.61 87.57 50.96 84.01 51.31 86.97 51.66 86.97 52.01 87.27 52.36 91.71 52.7 93.19 53.05 92.01 53.4 92.01 53.75 91.42 54.1 89.05 54.45 89.64 54.8 88.16 55.15 92.31 55.5 94.38 55.85 95.27 56.2 91.71 56.55 95.27 56.89 92.6 57.24 90.23 57.59 87.27 57.94 82.53 58.29 81.64 58.64 81.34 58.99 81.34 59.34 79.86 59.69 81.34 60.04 83.12 60.39 81.94 60.73 81.34 61.08 79.57 61.43 86.97 61.78 85.19 62.13 84.9 62.48 82.23 62.83 83.42 63.18 78.97 63.53 79.27 63.88 81.64 64.23 73.34 64.58 69.79 64.92 66.53 65.27 62.68 65.62 59.12 65.97 63.86 66.32 65.94 66.67 62.38 67.02 58.83 67.37 60.9 67.72 57.94 68.07 53.5 68.42 53.2 68.77 53.2 69.11 53.5 69.46 50.24 69.81 44.9 70.16 43.72 70.51 42.24 70.86 40.46 71.21 44.02 71.56 41.94 71.91 41.94 72.26 41.05 72.61 41.64 72.95 42.53 73.3 41.94 73.65 41.94 74 42.24 74.35 42.24 74.7 39.87 75.05 36.31 75.4 36.61 75.75 37.79 76.1 39.27 76.45 37.79 76.8 35.13 77.14 34.83 77.49 33.65 77.84 34.53 78.19 35.72 78.54 35.72 78.89 38.98 79.24 36.02 79.59 35.42 79.94 37.2 80.29 37.79 80.64 38.68 80.98 33.65 81.33 34.24 81.68 29.2 82.03 31.28 82.38 30.09 82.73 28.31 83.08 26.24 83.43 25.35 83.78 24.17 84.13 24.17 84.48 22.39 84.83 23.57 85.17 22.68 85.52 25.94 85.87 25.65 86.22 24.46 86.57 23.87 86.92 26.54 87.27 25.65 87.62 27.72 87.97 27.42 88.32 24.46 88.67 23.57 89.02 24.17 89.36 23.28 89.71 24.17 90.06 24.76 90.41 21.8 90.76 22.09 91.11 20.61 91.46 20.91 91.81 22.39 92.16 20.61 92.51 19.43 92.86 19.13 93.2 18.24 93.55 18.24 93.9 18.54 94.25 17.65 94.6 15.57 94.95 16.46 95.3 16.46 95.65 15.87 96 15.87 96.35 16.17 96.7 14.98 97.05 14.69 97.39 14.98 97.74 16.46 98.09 19.13 98.44 20.91 98.79 19.43 99.14 19.13 99.49 19.13 99.84 20.31 100.19 21.8 100.54 20.61 100.89 19.43 101.23 19.43 101.58 18.24 101.93 17.35 102.28 14.69 102.63 14.69 102.98 14.69 103.33 14.98 103.68 13.8 104.03 14.09 104.38 15.28 104.73 14.98 105.08 14.39 105.42 15.28 105.77 16.17 106.12 14.39 106.47 14.98 106.82 15.28 107.17 16.46 107.52 14.69 107.87 13.8 108.22 13.5 108.57 13.8 108.92 13.5 109.26 13.2 109.61 13.8 109.96 12.61 110.31 12.91 110.66 12.91 111.01 12.91 111.36 12.91 111.71 13.2 112.06 13.2 112.41 12.91 112.76 12.91 113.11 12.91 113.45 12.61 113.8 13.8 114.15 12.91 114.5 13.5 114.85 13.5 115.2 13.5 115.55 14.09 115.9 13.8 116.25 13.5 116.6 14.09 116.95 13.8 117.3 14.39 117.64 13.8 117.99 13.5 118.34 14.09 118.69 13.8 119.04 13.8 119.39 14.09 119.74 14.09 120.09 14.39 120.44 14.09 120.79 13.5 121.14 13.8 121.48 12.91 121.83 12.91 122.18 12.91 122.53 12.91 122.88 12.61 123.23 12.61 123.58 12.61 123.93 12.61 124.28 12.61 124.63 12.61 124.98 12.61 125.33 12.61 125.67 12.91 126.02 14.09 126.37 13.5 126.72 14.39 127.07 14.69 127.42 14.69 127.77 14.98 128.12 15.57 128.47 14.39 128.82 14.39 129.17 13.2 129.51 13.2 129.86 13.8 130.21 13.5 130.56 14.39 130.91 13.2 131.26 12.61 131.61 12.61 131.96 13.2 132.31 14.09 132.66 14.98 133.01 15.57 133.36 17.35 133.7 17.94 134.05 17.65 134.4 16.76 134.75 19.13 135.1 20.02 135.45 20.02 135.8 20.31 136.15 18.83 136.5 18.24 136.85 17.65 137.2 19.43 137.55 19.13 137.89 19.43 138.24 22.09 138.59 22.09 138.94 21.2 139.29 19.72 139.64 19.43 139.99 22.09 140.34 22.09 140.69 19.43 141.04 21.5 141.39 22.09 141.73 24.17 142.08 22.98 142.43 20.31 142.78 21.5 143.13 20.61 143.48 20.31 143.83 19.43 144.18 23.28 144.53 19.72 144.88 21.5 145.23 21.5 145.58 20.61 145.92 22.68 146.27 22.68 146.62 24.76 146.97 25.05 147.32 27.42 147.67 27.13 148.02 23.87 148.37 21.8 148.72 24.46 149.07 23.28 149.42 22.39 149.76 22.98 150.11 22.39 150.46 22.39 150.81 22.39 151.16 22.98 151.51 21.8 151.86 21.2 152.21 23.57 152.56 25.35 152.91 27.13 153.26 26.24 153.61 27.13 153.95 25.05 154.3 24.76 154.65 25.65 155 25.05 155.35 26.24 155.7 25.94 156.05 22.09 156.4 23.87 156.75 23.57 157.1 22.98 157.45 23.87 157.79 24.46 158.14 25.94 158.49 29.2 158.84 30.39 159.19 28.61 159.54 27.13 159.89 26.83 160.24 25.05 160.59 27.42 160.94 27.42 161.29 24.17 161.64 23.57 161.98 23.57 162.33 19.72 162.68 18.24 163.03 18.54 163.38 19.43 163.73 19.13 164.08 16.46 164.43 17.65 164.78 18.83 165.13 21.2 165.48 22.39 165.83 24.46 166.17 24.76 166.52 23.28 166.87 21.2 167.22 20.61 167.57 21.5 167.92 22.09 168.27 20.02 168.62 18.83 168.97 17.06 169.32 19.13 169.67 18.24 170.01 18.54 170.36 19.13 170.71 19.43 171.06 19.72 171.41 20.02 171.76 20.31 172.11 21.5 172.46 20.02 172.81 19.43 173.16 20.31 173.51 19.13 173.86 18.54 174.2 17.65 174.55 17.65 174.9 17.35 175.25 16.46 175.6 17.35 175.95 17.35 176.3 17.06 176.65 18.24 177 18.24 177.35 20.61 177.7 19.72 178.04 18.83 178.39 18.83 178.74 20.31 179.09 17.94 179.44 18.83 179.79 20.61 180.14 20.91 180.49 22.68 180.84 19.13 181.19 18.54 181.54 16.76 181.89 17.06 182.23 14.39 182.58 13.2 182.93 13.8 183.28 14.69 183.63 14.69 183.98 15.57 184.33 17.06 184.68 17.65 185.03 18.54 185.38 19.43 185.73 20.91 186.08 20.02 186.42 20.02 186.77 18.54 187.12 17.65 187.47 18.83 187.82 20.02 188.17 20.31 188.52 20.91 188.87 20.61 189.22 22.68 189.57 18.24 189.92 20.91 190.26 24.76 190.61 25.05 190.96 26.24 191.31 23.57 191.66 24.76 192.01 23.87 192.36 22.98 192.71 22.68 193.06 22.09 193.41 18.24 193.76 17.06 194.11 16.76 194.45 20.31 194.8 25.35 195.15 27.42 195.5 32.76 195.85 33.65 196.2 34.83"/>
      </g>
      <g stroke-width="0.3" fill="#000000" fill-opacity="0.000" class="geometry" stroke-dasharray="none" stroke="#D53E4F" id="img-b10028d2-18">
        <path fill="none" d="M21.98,71.86 L 22.33 71.86 22.68 64.46 23.03 63.86 23.38 59.12 23.73 59.42 24.08 58.53 24.42 55.57 24.77 54.98 25.12 54.38 25.47 50.83 25.82 55.57 26.17 52.9 26.52 54.38 26.87 54.09 27.22 53.79 27.57 61.79 27.92 65.35 28.27 63.86 28.61 64.16 28.96 60.9 29.31 63.57 29.66 59.12 30.01 54.68 30.36 54.38 30.71 57.05 31.06 53.2 31.41 54.98 31.76 56.16 32.11 54.98 32.45 55.87 32.8 60.61 33.15 62.09 33.5 61.2 33.85 60.61 34.2 60.01 34.55 57.35 34.9 58.83 35.25 60.31 35.6 64.46 35.95 61.79 36.3 61.79 36.64 61.79 36.99 62.98 37.34 66.23 37.69 62.09 38.04 63.57 38.39 64.46 38.74 65.64 39.09 66.23 39.44 67.42 39.79 64.75 40.14 67.72 40.49 64.16 40.83 65.35 41.18 70.09 41.53 70.97 41.88 68.9 42.23 66.83 42.58 70.38 42.93 73.34 43.28 68.9 43.63 68.01 43.98 65.35 44.33 64.75 44.67 71.27 45.02 73.05 45.37 70.68 45.72 66.83 46.07 61.2 46.42 56.16 46.77 58.24 47.12 59.42 47.47 59.12 47.82 65.05 48.17 64.16 48.52 63.57 48.86 65.64 49.21 64.16 49.56 64.46 49.91 64.46 50.26 67.72 50.61 68.31 50.96 67.42 51.31 72.75 51.66 73.94 52.01 70.97 52.36 76.9 52.7 75.42 53.05 76.6 53.4 76.9 53.75 77.79 54.1 81.94 54.45 78.38 54.8 83.12 55.15 77.79 55.5 76.01 55.85 67.42 56.2 67.12 56.55 65.94 56.89 68.31 57.24 72.16 57.59 71.86 57.94 70.09 58.29 71.86 58.64 71.27 58.99 70.09 59.34 69.49 59.69 66.23 60.04 64.75 60.39 64.75 60.73 66.23 61.08 70.09 61.43 70.97 61.78 72.16 62.13 75.12 62.48 73.05 62.83 73.05 63.18 71.86 63.53 69.79 63.88 71.27 64.23 75.71 64.58 77.49 64.92 75.71 65.27 76.01 65.62 78.97 65.97 79.86 66.32 76.31 66.67 79.27 67.02 79.57 67.37 76.31 67.72 81.64 68.07 77.2 68.42 69.2 68.77 64.46 69.11 68.9 69.46 65.64 69.81 68.6 70.16 70.09 70.51 70.68 70.86 74.83 71.21 71.57 71.56 70.38 71.91 73.05 72.26 73.94 72.61 71.86 72.95 70.97 73.3 71.27 73.65 68.6 74 69.79 74.35 66.53 74.7 65.94 75.05 67.42 75.4 75.12 75.75 74.83 76.1 81.34 76.45 83.71 76.8 84.6 77.14 81.34 77.49 84.6 77.84 83.42 78.19 86.08 78.54 87.57 78.89 88.75 79.24 88.16 79.59 86.08 79.94 80.45 80.29 80.45 80.64 78.08 80.98 77.2 81.33 73.64 81.68 74.53 82.03 74.83 82.38 77.49 82.73 78.38 83.08 73.64 83.43 79.27 83.78 78.08 84.13 84.9 84.48 80.75 84.83 83.42 85.17 81.94 85.52 78.08 85.87 76.9 86.22 76.31 86.57 73.05 86.92 80.16 87.27 81.05 87.62 85.49 87.97 89.94 88.32 88.75 88.67 92.31 89.02 87.57 89.36 87.27 89.71 86.08 90.06 82.53 90.41 81.05 90.76 81.05 91.11 84.6 91.46 84.31 91.81 86.97 92.16 84.9 92.51 89.94 92.86 88.75 93.2 89.64 93.55 88.75 93.9 87.57 94.25 86.97 94.6 89.34 94.95 89.94 95.3 86.08 95.65 86.97 96 83.42 96.35 81.64 96.7 88.16 97.05 86.38 97.39 88.16 97.74 87.27 98.09 94.68 98.44 91.42 98.79 87.57 99.14 88.45 99.49 85.49 99.84 87.57 100.19 89.64 100.54 89.64 100.89 87.86 101.23 87.27 101.58 88.45 101.93 86.97 102.28 91.71 102.63 97.93 102.98 98.82 103.33 99.42 103.68 98.82 104.03 97.93 104.38 99.71 104.73 99.42 105.08 99.12 105.42 99.42 105.77 97.34 106.12 91.12 106.47 92.9 106.82 93.19 107.17 92.31 107.52 93.49 107.87 92.9 108.22 87.86 108.57 87.27 108.92 88.16 109.26 91.42 109.61 91.12 109.96 94.08 110.31 92.01 110.66 97.64 111.01 96.45 111.36 96.16 111.71 94.38 112.06 93.79 112.41 96.16 112.76 92.01 113.11 95.27 113.45 98.53 113.8 101.49 114.15 97.64 114.5 99.42 114.85 100.6 115.2 103.27 115.55 102.67 115.9 102.38 116.25 105.04 116.6 107.12 116.95 110.67 117.3 111.27 117.64 113.64 117.99 112.75 118.34 112.45 118.69 113.04 119.04 113.04 119.39 116.3 119.74 116.3 120.09 116.01 120.44 110.97 120.79 111.86 121.14 110.08 121.48 110.67 121.83 111.56 122.18 114.82 122.53 113.93 122.88 116.89 123.23 118.38 123.58 117.19 123.93 116.3 124.28 115.41 124.63 115.12 124.98 118.08 125.33 117.49 125.67 111.56 126.02 113.04 126.37 114.82 126.72 116.3 127.07 115.71 127.42 116.3 127.77 115.41 128.12 115.12 128.47 118.67 128.82 119.26 129.17 121.34 129.51 121.63 129.86 120.45 130.21 120.15 130.56 117.19 130.91 115.41 131.26 116.89 131.61 119.56 131.96 120.75 132.31 121.34 132.66 120.15 133.01 120.15 133.36 118.67 133.7 122.82 134.05 122.52 134.4 123.12 134.75 123.12 135.1 122.82 135.45 124 135.8 123.71 136.15 122.23 136.5 121.93 136.85 124 137.2 124.3 137.55 125.19 137.89 125.49 138.24 123.12 138.59 121.63 138.94 122.82 139.29 123.71 139.64 124 139.99 123.41 140.34 123.41 140.69 123.71 141.04 125.49 141.39 124.3 141.73 125.19 142.08 124.6 142.43 122.82 142.78 121.04 143.13 119.56 143.48 123.41 143.83 124.89 144.18 124.89 144.53 126.08 144.88 125.49 145.23 126.97 145.58 126.97 145.92 127.86 146.27 127.86 146.62 127.56 146.97 127.26 147.32 126.37 147.67 124.89 148.02 124.89 148.37 123.41 148.72 120.75 149.07 118.67 149.42 118.97 149.76 117.78 150.11 119.26 150.46 119.56 150.81 119.26 151.16 118.08 151.51 118.38 151.86 116.89 152.21 117.49 152.56 117.78 152.91 114.82 153.26 115.12 153.61 115.41 153.95 117.78 154.3 118.38 154.65 119.26 155 121.34 155.35 122.52 155.7 121.63 156.05 121.34 156.4 121.04 156.75 121.63 157.1 120.15 157.45 115.71 157.79 115.71 158.14 114.23 158.49 113.34 158.84 113.93 159.19 113.93 159.54 113.04 159.89 115.12 160.24 115.71 160.59 113.34 160.94 116.3 161.29 113.93 161.64 117.49 161.98 117.78 162.33 119.56 162.68 118.08 163.03 116.3 163.38 118.97 163.73 120.15 164.08 120.15 164.43 120.75 164.78 122.52 165.13 121.63 165.48 122.52 165.83 124 166.17 121.63 166.52 122.23 166.87 121.93 167.22 120.75 167.57 122.82 167.92 122.52 168.27 122.82 168.62 121.63 168.97 123.12 169.32 121.93 169.67 125.19 170.01 125.49 170.36 126.97 170.71 127.86 171.06 126.08 171.41 123.41 171.76 121.04 172.11 122.52 172.46 122.82 172.81 124.3 173.16 125.49 173.51 123.71 173.86 126.97 174.2 125.19 174.55 125.19 174.9 127.26 175.25 125.78 175.6 124.3 175.95 121.93 176.3 123.12 176.65 125.19 177 126.97 177.35 127.26 177.7 127.56 178.04 128.74 178.39 128.74 178.74 129.34 179.09 130.23 179.44 130.23 179.79 129.63 180.14 129.63 180.49 129.04 180.84 128.45 181.19 129.04 181.54 129.63 181.89 129.63 182.23 129.04 182.58 129.04 182.93 128.15 183.28 128.15 183.63 128.45 183.98 127.86 184.33 128.45 184.68 128.15 185.03 126.67 185.38 127.56 185.73 128.45 186.08 129.34 186.42 128.45 186.77 127.56 187.12 127.86 187.47 127.86 187.82 127.86 188.17 127.26 188.52 126.67 188.87 124.89 189.22 125.49 189.57 125.78 189.92 126.08 190.26 126.37 190.61 125.49 190.96 125.49 191.31 123.71 191.66 123.71 192.01 122.82 192.36 123.41 192.71 122.52 193.06 122.23 193.41 121.34 193.76 120.15 194.11 119.26 194.45 122.23 194.8 120.45 195.15 117.78 195.5 116.89 195.85 119.26 196.2 119.86"/>
      </g>
      <g stroke-width="0.3" fill="#000000" fill-opacity="0.000" class="geometry" stroke-dasharray="none" stroke="#9E0142" id="img-b10028d2-19">
        <path fill="none" d="M21.98,71.86 L 22.33 69.49 22.68 72.16 23.03 74.23 23.38 71.57 23.73 64.46 24.08 62.38 24.42 61.49 24.77 55.57 25.12 57.05 25.47 55.27 25.82 56.16 26.17 53.5 26.52 52.9 26.87 48.16 27.22 48.16 27.57 50.83 27.92 44.9 28.27 46.68 28.61 46.98 28.96 49.05 29.31 46.98 29.66 48.46 30.01 51.13 30.36 51.42 30.71 55.87 31.06 51.13 31.41 50.24 31.76 47.57 32.11 47.87 32.45 45.5 32.8 47.57 33.15 42.53 33.5 43.42 33.85 44.61 34.2 42.83 34.55 43.13 34.9 42.83 35.25 44.31 35.6 41.64 35.95 39.87 36.3 44.02 36.64 43.42 36.99 45.2 37.34 48.76 37.69 45.79 38.04 40.46 38.39 41.35 38.74 42.53 39.09 41.35 39.44 43.13 39.79 40.16 40.14 36.02 40.49 32.76 40.83 29.5 41.18 30.68 41.53 30.09 41.88 28.31 42.23 27.72 42.58 27.72 42.93 25.94 43.28 27.42 43.63 28.91 43.98 25.65 44.33 24.46 44.67 24.17 45.02 28.61 45.37 26.24 45.72 28.31 46.07 27.13 46.42 28.02 46.77 31.87 47.12 31.57 47.47 29.79 47.82 30.09 48.17 27.42 48.52 27.13 48.86 24.46 49.21 24.46 49.56 25.94 49.91 28.02 50.26 28.91 50.61 25.05 50.96 25.94 51.31 27.42 51.66 24.76 52.01 24.17 52.36 22.68 52.7 21.5 53.05 23.57 53.4 23.57 53.75 23.87 54.1 22.39 54.45 23.87 54.8 22.68 55.15 22.09 55.5 24.46 55.85 22.68 56.2 20.91 56.55 22.98 56.89 23.87 57.24 24.46 57.59 25.94 57.94 26.54 58.29 26.54 58.64 28.31 58.99 31.28 59.34 30.98 59.69 33.35 60.04 37.79 60.39 30.09 60.73 28.02 61.08 25.35 61.43 24.46 61.78 26.24 62.13 26.83 62.48 26.83 62.83 30.09 63.18 28.61 63.53 28.02 63.88 28.61 64.23 29.5 64.58 32.16 64.92 30.39 65.27 32.16 65.62 30.98 65.97 28.91 66.32 28.91 66.67 31.57 67.02 29.2 67.37 28.31 67.72 26.83 68.07 22.98 68.42 22.68 68.77 22.09 69.11 20.91 69.46 22.98 69.81 24.76 70.16 21.2 70.51 21.8 70.86 18.54 71.21 20.02 71.56 17.06 71.91 17.65 72.26 18.24 72.61 16.76 72.95 17.06 73.3 17.06 73.65 17.94 74 19.43 74.35 19.13 74.7 19.13 75.05 19.72 75.4 16.76 75.75 16.46 76.1 16.46 76.45 17.06 76.8 17.35 77.14 17.06 77.49 17.35 77.84 16.76 78.19 14.98 78.54 14.39 78.89 14.98 79.24 13.5 79.59 13.8 79.94 14.09 80.29 13.2 80.64 13.8 80.98 13.5 81.33 13.5 81.68 13.8 82.03 14.09 82.38 13.5 82.73 14.39 83.08 16.17 83.43 15.87 83.78 16.76 84.13 17.65 84.48 16.46 84.83 15.28 85.17 15.57 85.52 15.28 85.87 14.98 86.22 15.28 86.57 14.69 86.92 14.69 87.27 14.69 87.62 14.39 87.97 14.09 88.32 14.09 88.67 13.5 89.02 13.2 89.36 13.2 89.71 12.61 90.06 12.61 90.41 12.61 90.76 12.61 91.11 12.61 91.46 12.61 91.81 12.61 92.16 12.61 92.51 12.61 92.86 12.91 93.2 12.61 93.55 12.61 93.9 12.61 94.25 12.61 94.6 13.2 94.95 13.5 95.3 14.09 95.65 15.87 96 16.17 96.35 16.76 96.7 15.57 97.05 14.69 97.39 14.39 97.74 15.87 98.09 17.06 98.44 17.94 98.79 18.54 99.14 16.46 99.49 15.28 99.84 16.17 100.19 16.76 100.54 17.06 100.89 18.24 101.23 17.06 101.58 17.35 101.93 19.13 102.28 20.61 102.63 19.72 102.98 19.43 103.33 22.39 103.68 23.28 104.03 23.28 104.38 20.31 104.73 19.13 105.08 17.06 105.42 14.69 105.77 13.8 106.12 15.28 106.47 15.28 106.82 16.76 107.17 14.39 107.52 14.39 107.87 15.87 108.22 14.98 108.57 15.28 108.92 15.57 109.26 16.17 109.61 16.76 109.96 16.46 110.31 17.94 110.66 20.02 111.01 17.35 111.36 19.13 111.71 18.24 112.06 20.61 112.41 21.2 112.76 21.5 113.11 19.43 113.45 19.13 113.8 18.83 114.15 21.5 114.5 20.61 114.85 20.31 115.2 20.61 115.55 20.02 115.9 21.2 116.25 22.68 116.6 21.5 116.95 19.72 117.3 19.43 117.64 18.83 117.99 18.24 118.34 17.35 118.69 19.13 119.04 17.94 119.39 18.83 119.74 21.2 120.09 23.28 120.44 26.83 120.79 26.24 121.14 26.24 121.48 26.54 121.83 28.31 122.18 28.91 122.53 32.46 122.88 31.28 123.23 34.24 123.58 32.76 123.93 30.98 124.28 31.87 124.63 30.68 124.98 30.98 125.33 31.57 125.67 34.53 126.02 36.9 126.37 36.31 126.72 36.02 127.07 36.02 127.42 43.13 127.77 43.72 128.12 38.98 128.47 43.42 128.82 46.09 129.17 46.39 129.51 45.2 129.86 45.79 130.21 43.72 130.56 41.05 130.91 44.31 131.26 45.79 131.61 44.02 131.96 41.35 132.31 41.35 132.66 43.72 133.01 45.5 133.36 41.35 133.7 38.68 134.05 36.9 134.4 33.94 134.75 34.24 135.1 34.83 135.45 40.16 135.8 41.05 136.15 41.05 136.5 42.83 136.85 47.27 137.2 49.94 137.55 50.83 137.89 54.68 138.24 55.27 138.59 52.61 138.94 48.46 139.29 52.31 139.64 54.68 139.99 50.83 140.34 48.76 140.69 46.39 141.04 46.39 141.39 44.61 141.73 46.98 142.08 52.01 142.43 54.38 142.78 51.13 143.13 48.16 143.48 46.39 143.83 45.5 144.18 42.53 144.53 42.24 144.88 44.02 145.23 41.35 145.58 40.76 145.92 42.24 146.27 44.9 146.62 42.83 146.97 44.31 147.32 45.2 147.67 42.53 148.02 43.42 148.37 45.5 148.72 48.76 149.07 48.16 149.42 48.16 149.76 49.64 150.11 52.9 150.46 49.94 150.81 52.31 151.16 48.46 151.51 49.05 151.86 43.42 152.21 39.27 152.56 40.76 152.91 39.57 153.26 36.9 153.61 34.83 153.95 37.5 154.3 39.27 154.65 40.76 155 35.13 155.35 32.16 155.7 32.16 156.05 30.09 156.4 29.2 156.75 28.61 157.1 31.57 157.45 31.57 157.79 33.94 158.14 32.16 158.49 28.91 158.84 32.16 159.19 32.16 159.54 31.57 159.89 31.87 160.24 30.68 160.59 30.98 160.94 36.9 161.29 33.05 161.64 34.53 161.98 34.24 162.33 35.42 162.68 37.79 163.03 37.5 163.38 38.39 163.73 38.09 164.08 37.5 164.43 37.5 164.78 38.68 165.13 37.5 165.48 38.68 165.83 36.02 166.17 35.13 166.52 33.65 166.87 36.31 167.22 40.16 167.57 43.13 167.92 44.9 168.27 41.05 168.62 45.79 168.97 48.76 169.32 51.42 169.67 48.46 170.01 48.76 170.36 46.39 170.71 46.09 171.06 39.57 171.41 41.05 171.76 41.64 172.11 40.46 172.46 41.05 172.81 44.31 173.16 38.98 173.51 38.68 173.86 40.76 174.2 38.39 174.55 38.09 174.9 41.35 175.25 38.98 175.6 41.35 175.95 41.64 176.3 40.76 176.65 39.27 177 38.09 177.35 39.57 177.7 36.02 178.04 38.39 178.39 42.53 178.74 44.61 179.09 47.87 179.44 54.09 179.79 54.68 180.14 49.64 180.49 53.79 180.84 52.01 181.19 50.24 181.54 47.87 181.89 49.64 182.23 46.68 182.58 44.61 182.93 43.13 183.28 48.76 183.63 50.53 183.98 50.24 184.33 47.87 184.68 48.46 185.03 51.42 185.38 54.09 185.73 55.87 186.08 58.24 186.42 57.64 186.77 58.53 187.12 59.42 187.47 64.16 187.82 61.49 188.17 60.9 188.52 64.16 188.87 67.72 189.22 69.49 189.57 72.46 189.92 71.86 190.26 74.23 190.61 73.34 190.96 78.68 191.31 81.34 191.66 80.75 192.01 81.94 192.36 84.31 192.71 81.05 193.06 80.75 193.41 76.9 193.76 77.79 194.11 73.94 194.45 73.94 194.8 72.75 195.15 75.12 195.5 70.38 195.85 70.38 196.2 69.49"/>
      </g>
    </g>
  </g>
</g>
  <g class="guide ylabels" font-size="2.82" font-family="'PT Sans Caption','Helvetica Neue','Helvetica',sans-serif" fill="#000000" id="img-b10028d2-20">
    <text x="18.63" y="131.11" text-anchor="end" dy="0.35em">0</text>
    <text x="18.63" y="101.49" text-anchor="end" dy="0.35em">100</text>
    <text x="18.63" y="71.86" text-anchor="end" dy="0.35em">200</text>
    <text x="18.63" y="42.24" text-anchor="end" dy="0.35em">300</text>
    <text x="18.63" y="12.61" text-anchor="end" dy="0.35em">400</text>
  </g>
  <g font-size="3.88" font-family="'PT Sans','Helvetica Neue','Helvetica',sans-serif" fill="#000000" stroke="#000000" stroke-opacity="0.000" id="img-b10028d2-21">
    <text x="8.81" y="69.86" text-anchor="middle" dy="0.35em" transform="rotate(-90, 8.81, 71.86)">population size</text>
  </g>
  <g font-size="3.88" font-family="'PT Sans','Helvetica Neue','Helvetica',sans-serif" fill="#000000" stroke="#000000" stroke-opacity="0.000" id="img-b10028d2-22">
    <text x="108.92" y="5" text-anchor="middle" dy="0.6em">genetic drift with mutationrate  = 0.001 </text>
  </g>
</g>
<defs>
  <clipPath id="img-b10028d2-4">
  <path d="M19.63,10.61 L 198.2 10.61 198.2 133.11 19.63 133.11" />
</clipPath>
</defs>
</svg>
