<?xml version="1.0" encoding="UTF-8"?>
<svg xmlns="http://www.w3.org/2000/svg"
     xmlns:xlink="http://www.w3.org/1999/xlink"
     xmlns:gadfly="http://www.gadflyjl.org/ns"
     version="1.2"
     width="203.2mm" height="152.4mm" viewBox="0 0 203.2 152.4"
     stroke="none"
     fill="#000000"
     stroke-width="0.3"
     font-size="3.88"
>
<g class="plotroot xscalable yscalable" id="img-ac3abf9d-1">
  <g font-size="3.88" font-family="'PT Sans','Helvetica Neue','Helvetica',sans-serif" fill="#000000" stroke="#000000" stroke-opacity="0.000" id="img-ac3abf9d-2">
    <text x="96.33" y="140.79" text-anchor="middle" dy="0.6em">number of A_type individuals (bin count = 50)</text>
  </g>
  <g class="guide xlabels" font-size="2.82" font-family="'PT Sans Caption','Helvetica Neue','Helvetica',sans-serif" fill="#000000" id="img-ac3abf9d-3">
    <text x="20.63" y="134.11" text-anchor="middle" dy="0.6em">0</text>
    <text x="50.91" y="134.11" text-anchor="middle" dy="0.6em">100</text>
    <text x="81.19" y="134.11" text-anchor="middle" dy="0.6em">200</text>
    <text x="111.47" y="134.11" text-anchor="middle" dy="0.6em">300</text>
    <text x="141.75" y="134.11" text-anchor="middle" dy="0.6em">400</text>
    <text x="172.03" y="134.11" text-anchor="middle" dy="0.6em">500</text>
  </g>
  <g class="guide colorkey" id="img-ac3abf9d-4">
    <g fill="#4C404B" font-size="2.82" font-family="'PT Sans','Helvetica Neue','Helvetica',sans-serif" id="img-ac3abf9d-5">
      <text x="177.85" y="109.96" dy="0.35em">histogram</text>
      <text x="177.85" y="113.59" dy="0.35em">theoretical curve</text>
    </g>
    <g stroke="#000000" stroke-opacity="0.000" id="img-ac3abf9d-6">
      <rect x="175.03" y="109.06" width="1.81" height="1.81" fill="#00BFFF"/>
      <rect x="175.03" y="112.68" width="1.81" height="1.81" fill="#FFA500"/>
    </g>
    <g fill="#362A35" font-size="3.88" font-family="'PT Sans','Helvetica Neue','Helvetica',sans-serif" stroke="#000000" stroke-opacity="0.000" id="img-ac3abf9d-7">
      <text x="175.03" y="106.14">Legend</text>
    </g>
  </g>
<g clip-path="url(#img-ac3abf9d-8)">
  <g id="img-ac3abf9d-9">
    <g pointer-events="visible" opacity="1" fill="#FFFFFF" stroke="#000000" stroke-opacity="0.000" class="guide background" id="img-ac3abf9d-10">
      <rect x="18.63" y="86.81" width="155.4" height="46.3"/>
    </g>
    <g class="guide ygridlines xfixed" stroke-dasharray="0.5,0.5" stroke-width="0.2" stroke="#808080" id="img-ac3abf9d-11">
      <path fill="none" d="M18.63,131.11 L 174.03 131.11"/>
      <path fill="none" d="M18.63,120.54 L 174.03 120.54"/>
      <path fill="none" d="M18.63,109.96 L 174.03 109.96"/>
      <path fill="none" d="M18.63,99.39 L 174.03 99.39"/>
      <path fill="none" d="M18.63,88.81 L 174.03 88.81"/>
    </g>
    <g class="guide xgridlines yfixed" stroke-dasharray="0.5,0.5" stroke-width="0.2" stroke="#808080" id="img-ac3abf9d-12">
      <path fill="none" d="M20.63,86.81 L 20.63 133.11"/>
      <path fill="none" d="M50.91,86.81 L 50.91 133.11"/>
      <path fill="none" d="M81.19,86.81 L 81.19 133.11"/>
      <path fill="none" d="M111.47,86.81 L 111.47 133.11"/>
      <path fill="none" d="M141.75,86.81 L 141.75 133.11"/>
      <path fill="none" d="M172.03,86.81 L 172.03 133.11"/>
    </g>
    <g class="plotpanel" id="img-ac3abf9d-13">
      <g stroke-width="0.3" fill="#000000" fill-opacity="0.000" class="geometry" stroke-dasharray="none" stroke="#FFA500" id="img-ac3abf9d-14">
        <path fill="none" d="M21.12,98.06 L 21.6 114.52 22.09 120.01 22.58 122.75 23.06 124.4 23.55 125.49 24.04 126.28 24.52 126.86 25.01 127.32 25.5 127.69 25.98 127.98 26.47 128.23 26.96 128.44 27.44 128.62 27.93 128.78 28.41 128.92 28.9 129.04 29.39 129.14 29.87 129.24 30.36 129.33 30.85 129.4 31.33 129.47 31.82 129.54 32.31 129.6 32.79 129.65 33.28 129.7 33.77 129.75 34.25 129.79 34.74 129.83 35.22 129.87 35.71 129.9 36.2 129.93 36.68 129.97 37.17 129.99 37.66 130.02 38.14 130.05 38.63 130.07 39.12 130.09 39.6 130.11 40.09 130.13 40.58 130.15 41.06 130.17 41.55 130.19 42.03 130.21 42.52 130.22 43.01 130.24 43.49 130.25 43.98 130.27 44.47 130.28 44.95 130.29 45.44 130.3 45.93 130.31 46.41 130.33 46.9 130.34 47.39 130.35 47.87 130.36 48.36 130.37 48.84 130.38 49.33 130.38 49.82 130.39 50.3 130.4 50.79 130.41 51.28 130.42 51.76 130.42 52.25 130.43 52.74 130.44 53.22 130.44 53.71 130.45 54.2 130.46 54.68 130.46 55.17 130.47 55.65 130.47 56.14 130.48 56.63 130.48 57.11 130.49 57.6 130.49 58.09 130.5 58.57 130.5 59.06 130.5 59.55 130.51 60.03 130.51 60.52 130.52 61.01 130.52 61.49 130.52 61.98 130.53 62.46 130.53 62.95 130.53 63.44 130.54 63.92 130.54 64.41 130.54 64.9 130.54 65.38 130.55 65.87 130.55 66.36 130.55 66.84 130.55 67.33 130.56 67.82 130.56 68.3 130.56 68.79 130.56 69.27 130.56 69.76 130.57 70.25 130.57 70.73 130.57 71.22 130.57 71.71 130.57 72.19 130.57 72.68 130.58 73.17 130.58 73.65 130.58 74.14 130.58 74.63 130.58 75.11 130.58 75.6 130.58 76.08 130.58 76.57 130.58 77.06 130.58 77.54 130.58 78.03 130.58 78.52 130.59 79 130.59 79.49 130.59 79.98 130.59 80.46 130.59 80.95 130.59 81.44 130.59 81.92 130.59 82.41 130.59 82.89 130.59 83.38 130.59 83.87 130.59 84.35 130.58 84.84 130.58 85.33 130.58 85.81 130.58 86.3 130.58 86.79 130.58 87.27 130.58 87.76 130.58 88.25 130.58 88.73 130.58 89.22 130.58 89.7 130.58 90.19 130.57 90.68 130.57 91.16 130.57 91.65 130.57 92.14 130.57 92.62 130.57 93.11 130.56 93.6 130.56 94.08 130.56 94.57 130.56 95.06 130.56 95.54 130.55 96.03 130.55 96.51 130.55 97 130.55 97.49 130.54 97.97 130.54 98.46 130.54 98.95 130.54 99.43 130.53 99.92 130.53 100.41 130.53 100.89 130.52 101.38 130.52 101.87 130.52 102.35 130.51 102.84 130.51 103.32 130.5 103.81 130.5 104.3 130.5 104.78 130.49 105.27 130.49 105.76 130.48 106.24 130.48 106.73 130.47 107.22 130.47 107.7 130.46 108.19 130.46 108.68 130.45 109.16 130.44 109.65 130.44 110.13 130.43 110.62 130.42 111.11 130.42 111.59 130.41 112.08 130.4 112.57 130.39 113.05 130.38 113.54 130.38 114.03 130.37 114.51 130.36 115 130.35 115.49 130.34 115.97 130.33 116.46 130.31 116.95 130.3 117.43 130.29 117.92 130.28 118.4 130.27 118.89 130.25 119.38 130.24 119.86 130.22 120.35 130.21 120.84 130.19 121.32 130.17 121.81 130.15 122.3 130.13 122.78 130.11 123.27 130.09 123.76 130.07 124.24 130.05 124.73 130.02 125.21 129.99 125.7 129.97 126.19 129.93 126.67 129.9 127.16 129.87 127.65 129.83 128.13 129.79 128.62 129.75 129.11 129.7 129.59 129.65 130.08 129.6 130.57 129.54 131.05 129.47 131.54 129.4 132.02 129.33 132.51 129.24 133 129.14 133.48 129.04 133.97 128.92 134.46 128.78 134.94 128.62 135.43 128.44 135.92 128.23 136.4 127.98 136.89 127.69 137.38 127.32 137.86 126.86 138.35 126.28 138.83 125.49 139.32 124.4 139.81 122.75 140.29 120.01 140.78 114.52 141.27 98.06"/>
      </g>
      <g stroke-width="0.3" fill="#000000" fill-opacity="0.000" class="geometry" stroke-dasharray="none" stroke="#FFA500" id="img-ac3abf9d-15">
        <path fill="none" d="M21.12,98.06 L 21.6 114.52 22.09 120.01 22.58 122.75 23.06 124.4 23.55 125.49 24.04 126.28 24.52 126.86 25.01 127.32 25.5 127.69 25.98 127.98 26.47 128.23 26.96 128.44 27.44 128.62 27.93 128.78 28.41 128.92 28.9 129.04 29.39 129.14 29.87 129.24 30.36 129.33 30.85 129.4 31.33 129.47 31.82 129.54 32.31 129.6 32.79 129.65 33.28 129.7 33.77 129.75 34.25 129.79 34.74 129.83 35.22 129.87 35.71 129.9 36.2 129.93 36.68 129.97 37.17 129.99 37.66 130.02 38.14 130.05 38.63 130.07 39.12 130.09 39.6 130.11 40.09 130.13 40.58 130.15 41.06 130.17 41.55 130.19 42.03 130.21 42.52 130.22 43.01 130.24 43.49 130.25 43.98 130.27 44.47 130.28 44.95 130.29 45.44 130.3 45.93 130.31 46.41 130.33 46.9 130.34 47.39 130.35 47.87 130.36 48.36 130.37 48.84 130.38 49.33 130.38 49.82 130.39 50.3 130.4 50.79 130.41 51.28 130.42 51.76 130.42 52.25 130.43 52.74 130.44 53.22 130.44 53.71 130.45 54.2 130.46 54.68 130.46 55.17 130.47 55.65 130.47 56.14 130.48 56.63 130.48 57.11 130.49 57.6 130.49 58.09 130.5 58.57 130.5 59.06 130.5 59.55 130.51 60.03 130.51 60.52 130.52 61.01 130.52 61.49 130.52 61.98 130.53 62.46 130.53 62.95 130.53 63.44 130.54 63.92 130.54 64.41 130.54 64.9 130.54 65.38 130.55 65.87 130.55 66.36 130.55 66.84 130.55 67.33 130.56 67.82 130.56 68.3 130.56 68.79 130.56 69.27 130.56 69.76 130.57 70.25 130.57 70.73 130.57 71.22 130.57 71.71 130.57 72.19 130.57 72.68 130.58 73.17 130.58 73.65 130.58 74.14 130.58 74.63 130.58 75.11 130.58 75.6 130.58 76.08 130.58 76.57 130.58 77.06 130.58 77.54 130.58 78.03 130.58 78.52 130.59 79 130.59 79.49 130.59 79.98 130.59 80.46 130.59 80.95 130.59 81.44 130.59 81.92 130.59 82.41 130.59 82.89 130.59 83.38 130.59 83.87 130.59 84.35 130.58 84.84 130.58 85.33 130.58 85.81 130.58 86.3 130.58 86.79 130.58 87.27 130.58 87.76 130.58 88.25 130.58 88.73 130.58 89.22 130.58 89.7 130.58 90.19 130.57 90.68 130.57 91.16 130.57 91.65 130.57 92.14 130.57 92.62 130.57 93.11 130.56 93.6 130.56 94.08 130.56 94.57 130.56 95.06 130.56 95.54 130.55 96.03 130.55 96.51 130.55 97 130.55 97.49 130.54 97.97 130.54 98.46 130.54 98.95 130.54 99.43 130.53 99.92 130.53 100.41 130.53 100.89 130.52 101.38 130.52 101.87 130.52 102.35 130.51 102.84 130.51 103.32 130.5 103.81 130.5 104.3 130.5 104.78 130.49 105.27 130.49 105.76 130.48 106.24 130.48 106.73 130.47 107.22 130.47 107.7 130.46 108.19 130.46 108.68 130.45 109.16 130.44 109.65 130.44 110.13 130.43 110.62 130.42 111.11 130.42 111.59 130.41 112.08 130.4 112.57 130.39 113.05 130.38 113.54 130.38 114.03 130.37 114.51 130.36 115 130.35 115.49 130.34 115.97 130.33 116.46 130.31 116.95 130.3 117.43 130.29 117.92 130.28 118.4 130.27 118.89 130.25 119.38 130.24 119.86 130.22 120.35 130.21 120.84 130.19 121.32 130.17 121.81 130.15 122.3 130.13 122.78 130.11 123.27 130.09 123.76 130.07 124.24 130.05 124.73 130.02 125.21 129.99 125.7 129.97 126.19 129.93 126.67 129.9 127.16 129.87 127.65 129.83 128.13 129.79 128.62 129.75 129.11 129.7 129.59 129.65 130.08 129.6 130.57 129.54 131.05 129.47 131.54 129.4 132.02 129.33 132.51 129.24 133 129.14 133.48 129.04 133.97 128.92 134.46 128.78 134.94 128.62 135.43 128.44 135.92 128.23 136.4 127.98 136.89 127.69 137.38 127.32 137.86 126.86 138.35 126.28 138.83 125.49 139.32 124.4 139.81 122.75 140.29 120.01 140.78 114.52 141.27 98.06"/>
      </g>
      <g shape-rendering="crispEdges" stroke-width="0.3" id="img-ac3abf9d-16">
        <g stroke="#000000" stroke-opacity="0.000" fill="#00BFFF" class="geometry" id="img-ac3abf9d-17">
          <rect x="23.94" y="122.65" width="2.47" height="8.46"/>
          <rect x="26.36" y="118.42" width="2.47" height="12.69"/>
          <rect x="28.78" y="109.96" width="2.47" height="21.15"/>
          <rect x="31.2" y="122.65" width="2.47" height="8.46"/>
          <rect x="33.63" y="126.88" width="2.47" height="4.23"/>
          <rect x="36.05" y="131.11" width="2.47" height="0.01"/>
          <rect x="38.47" y="126.88" width="2.47" height="4.23"/>
          <rect x="40.89" y="126.88" width="2.47" height="4.23"/>
          <rect x="43.32" y="126.88" width="2.47" height="4.23"/>
          <rect x="45.74" y="126.88" width="2.47" height="4.23"/>
          <rect x="48.16" y="126.88" width="2.47" height="4.23"/>
          <rect x="50.58" y="122.65" width="2.47" height="8.46"/>
          <rect x="53.01" y="122.65" width="2.47" height="8.46"/>
          <rect x="55.43" y="114.19" width="2.47" height="16.92"/>
          <rect x="57.85" y="126.88" width="2.47" height="4.23"/>
          <rect x="60.27" y="131.11" width="2.47" height="0.01"/>
          <rect x="62.7" y="101.5" width="2.47" height="29.61"/>
          <rect x="65.12" y="122.65" width="2.47" height="8.46"/>
          <rect x="67.54" y="131.11" width="2.47" height="0.01"/>
          <rect x="69.96" y="126.88" width="2.47" height="4.23"/>
          <rect x="72.39" y="126.88" width="2.47" height="4.23"/>
          <rect x="74.81" y="105.73" width="2.47" height="25.38"/>
          <rect x="77.23" y="131.11" width="2.47" height="0.01"/>
          <rect x="79.65" y="122.65" width="2.47" height="8.46"/>
          <rect x="82.08" y="122.65" width="2.47" height="8.46"/>
          <rect x="84.5" y="126.88" width="2.47" height="4.23"/>
          <rect x="86.92" y="122.65" width="2.47" height="8.46"/>
          <rect x="89.34" y="131.11" width="2.47" height="0.01"/>
          <rect x="91.77" y="131.11" width="2.47" height="0.01"/>
          <rect x="94.19" y="126.88" width="2.47" height="4.23"/>
          <rect x="96.61" y="118.42" width="2.47" height="12.69"/>
          <rect x="99.03" y="131.11" width="2.47" height="0.01"/>
          <rect x="101.46" y="118.42" width="2.47" height="12.69"/>
          <rect x="103.88" y="122.65" width="2.47" height="8.46"/>
          <rect x="106.3" y="122.65" width="2.47" height="8.46"/>
          <rect x="108.72" y="105.73" width="2.47" height="25.38"/>
          <rect x="111.14" y="109.96" width="2.47" height="21.15"/>
          <rect x="113.57" y="126.88" width="2.47" height="4.23"/>
          <rect x="115.99" y="101.5" width="2.47" height="29.61"/>
          <rect x="118.41" y="131.11" width="2.47" height="0.01"/>
          <rect x="120.83" y="131.11" width="2.47" height="0.01"/>
          <rect x="123.26" y="126.88" width="2.47" height="4.23"/>
          <rect x="125.68" y="109.96" width="2.47" height="21.15"/>
          <rect x="128.1" y="118.42" width="2.47" height="12.69"/>
          <rect x="130.52" y="122.65" width="2.47" height="8.46"/>
          <rect x="132.95" y="122.65" width="2.47" height="8.46"/>
          <rect x="135.37" y="122.65" width="2.47" height="8.46"/>
          <rect x="137.79" y="126.88" width="2.47" height="4.23"/>
          <rect x="140.21" y="118.42" width="2.47" height="12.69"/>
          <rect x="142.64" y="131.11" width="2.47" height="0.01"/>
        </g>
      </g>
    </g>
  </g>
</g>
  <g class="guide ylabels" font-size="2.82" font-family="'PT Sans Caption','Helvetica Neue','Helvetica',sans-serif" fill="#000000" id="img-ac3abf9d-18">
    <text x="17.63" y="131.11" text-anchor="end" dy="0.35em">0.0</text>
    <text x="17.63" y="120.54" text-anchor="end" dy="0.35em">0.2</text>
    <text x="17.63" y="109.96" text-anchor="end" dy="0.35em">0.4</text>
    <text x="17.63" y="99.39" text-anchor="end" dy="0.35em">0.6</text>
    <text x="17.63" y="88.81" text-anchor="end" dy="0.35em">0.8</text>
  </g>
  <g font-size="3.88" font-family="'PT Sans','Helvetica Neue','Helvetica',sans-serif" fill="#000000" stroke="#000000" stroke-opacity="0.000" id="img-ac3abf9d-19">
    <text x="8.81" y="107.96" text-anchor="middle" dy="0.35em" transform="rotate(-90, 8.81, 109.96)">density</text>
  </g>
  <g font-size="3.88" font-family="'PT Sans','Helvetica Neue','Helvetica',sans-serif" fill="#000000" stroke="#000000" stroke-opacity="0.000" id="img-ac3abf9d-20">
    <text x="96.33" y="81.2" text-anchor="middle" dy="0.6em">Histogram of population in generation 500</text>
  </g>
</g>
<g class="plotroot xscalable yscalable" id="img-ac3abf9d-21">
  <g font-size="3.88" font-family="'PT Sans','Helvetica Neue','Helvetica',sans-serif" fill="#000000" stroke="#000000" stroke-opacity="0.000" id="img-ac3abf9d-22">
    <text x="108.92" y="64.59" text-anchor="middle" dy="0.6em">generation number</text>
  </g>
  <g class="guide xlabels" font-size="2.82" font-family="'PT Sans Caption','Helvetica Neue','Helvetica',sans-serif" fill="#000000" id="img-ac3abf9d-23">
    <text x="21.63" y="57.91" text-anchor="middle" dy="0.6em">0</text>
    <text x="56.55" y="57.91" text-anchor="middle" dy="0.6em">100</text>
    <text x="91.46" y="57.91" text-anchor="middle" dy="0.6em">200</text>
    <text x="126.37" y="57.91" text-anchor="middle" dy="0.6em">300</text>
    <text x="161.29" y="57.91" text-anchor="middle" dy="0.6em">400</text>
    <text x="196.2" y="57.91" text-anchor="middle" dy="0.6em">500</text>
  </g>
<g clip-path="url(#img-ac3abf9d-24)">
  <g id="img-ac3abf9d-25">
    <g pointer-events="visible" opacity="1" fill="#FFFFFF" stroke="#000000" stroke-opacity="0.000" class="guide background" id="img-ac3abf9d-26">
      <rect x="19.63" y="10.61" width="178.57" height="46.3"/>
    </g>
    <g class="guide ygridlines xfixed" stroke-dasharray="0.5,0.5" stroke-width="0.2" stroke="#808080" id="img-ac3abf9d-27">
      <path fill="none" d="M19.63,54.91 L 198.2 54.91"/>
      <path fill="none" d="M19.63,44.34 L 198.2 44.34"/>
      <path fill="none" d="M19.63,33.76 L 198.2 33.76"/>
      <path fill="none" d="M19.63,23.19 L 198.2 23.19"/>
      <path fill="none" d="M19.63,12.61 L 198.2 12.61"/>
    </g>
    <g class="guide xgridlines yfixed" stroke-dasharray="0.5,0.5" stroke-width="0.2" stroke="#808080" id="img-ac3abf9d-28">
      <path fill="none" d="M21.63,10.61 L 21.63 56.91"/>
      <path fill="none" d="M56.55,10.61 L 56.55 56.91"/>
      <path fill="none" d="M91.46,10.61 L 91.46 56.91"/>
      <path fill="none" d="M126.37,10.61 L 126.37 56.91"/>
      <path fill="none" d="M161.29,10.61 L 161.29 56.91"/>
      <path fill="none" d="M196.2,10.61 L 196.2 56.91"/>
    </g>
    <g class="plotpanel" id="img-ac3abf9d-29">
      <g stroke-width="0.3" fill="#000000" fill-opacity="0.000" class="geometry" stroke-dasharray="none" stroke="#3288BD" id="img-ac3abf9d-30">
        <path fill="none" d="M21.98,33.76 L 22.33 34.82 22.68 36.3 23.03 34.61 23.38 34.19 23.73 34.72 24.08 32.18 24.42 30.8 24.77 31.01 25.12 30.8 25.47 29.43 25.82 28.05 26.17 29.53 26.52 29.11 26.87 30.17 27.22 32.6 27.57 32.92 27.92 33.13 28.27 32.6 28.61 33.02 28.96 32.81 29.31 30.17 29.66 30.06 30.01 30.38 30.36 31.12 30.71 31.54 31.06 31.33 31.41 31.65 31.76 32.28 32.11 31.97 32.45 32.6 32.8 32.71 33.15 33.13 33.5 32.39 33.85 33.66 34.2 32.39 34.55 32.92 34.9 34.29 35.25 32.28 35.6 31.86 35.95 31.97 36.3 31.54 36.64 31.75 36.99 30.38 37.34 31.97 37.69 31.12 38.04 31.01 38.39 30.17 38.74 29.53 39.09 27.74 39.44 28.69 39.79 29.85 40.14 29.53 40.49 28.05 40.83 29.11 41.18 28.05 41.53 27.21 41.88 28.48 42.23 28.05 42.58 27.1 42.93 27.42 43.28 26.78 43.63 26.68 43.98 28.69 44.33 28.69 44.67 28.16 45.02 28.58 45.37 27.84 45.72 28.69 46.07 29.64 46.42 29.43 46.77 30.17 47.12 31.23 47.47 30.38 47.82 29.64 48.17 32.07 48.52 33.45 48.86 33.76 49.21 32.28 49.56 32.28 49.91 31.65 50.26 33.66 50.61 33.23 50.96 33.23 51.31 32.07 51.66 33.13 52.01 33.45 52.36 31.86 52.7 31.75 53.05 33.45 53.4 33.76 53.75 33.76 54.1 34.72 54.45 34.4 54.8 33.76 55.15 33.66 55.5 35.35 55.85 35.77 56.2 35.14 56.55 33.02 56.89 33.55 57.24 33.13 57.59 34.29 57.94 34.93 58.29 35.46 58.64 36.2 58.99 37.78 59.34 37.57 59.69 37.46 60.04 37.15 60.39 36.72 60.73 36.41 61.08 35.35 61.43 34.82 61.78 34.08 62.13 32.81 62.48 32.92 62.83 32.39 63.18 31.75 63.53 32.39 63.88 31.75 64.23 32.81 64.58 33.45 64.92 32.49 65.27 32.92 65.62 33.23 65.97 32.49 66.32 34.08 66.67 31.75 67.02 32.6 67.37 35.67 67.72 37.15 68.07 38.1 68.42 39.58 68.77 39.16 69.11 38.21 69.46 39.47 69.81 37.57 70.16 38.84 70.51 40 70.86 39.69 71.21 39.9 71.56 40.64 71.91 39.9 72.26 40.53 72.61 42.01 72.95 42.01 73.3 42.96 73.65 43.6 74 44.76 74.35 44.76 74.7 46.67 75.05 46.14 75.4 44.97 75.75 44.87 76.1 45.93 76.45 44.44 76.8 44.34 77.14 41.91 77.49 42.54 77.84 43.07 78.19 42.75 78.54 43.92 78.89 43.7 79.24 43.49 79.59 44.44 79.94 44.55 80.29 45.19 80.64 46.88 80.98 46.88 81.33 46.67 81.68 46.24 82.03 44.13 82.38 44.76 82.73 44.55 83.08 44.66 83.43 46.56 83.78 46.03 84.13 45.08 84.48 45.61 84.83 45.29 85.17 45.5 85.52 44.55 85.87 44.02 86.22 44.66 86.57 44.66 86.92 45.61 87.27 46.35 87.62 45.61 87.97 45.71 88.32 45.71 88.67 45.61 89.02 47.19 89.36 47.41 89.71 46.56 90.06 45.71 90.41 44.66 90.76 44.87 91.11 45.82 91.46 45.4 91.81 46.45 92.16 47.62 92.51 48.25 92.86 48.25 93.2 47.51 93.55 47.83 93.9 48.04 94.25 48.25 94.6 48.04 94.95 47.3 95.3 47.51 95.65 47.93 96 49.31 96.35 48.89 96.7 48.04 97.05 47.72 97.39 46.88 97.74 46.77 98.09 46.03 98.44 46.14 98.79 46.14 99.14 47.51 99.49 48.68 99.84 49.52 100.19 49.63 100.54 50.05 100.89 50.47 101.23 51 101.58 51.32 101.93 51.53 102.28 51.32 102.63 51.42 102.98 50.47 103.33 49.63 103.68 49.2 104.03 49.31 104.38 48.25 104.73 48.25 105.08 48.04 105.42 48.25 105.77 49.31 106.12 48.68 106.47 47.93 106.82 47.83 107.17 48.15 107.52 47.83 107.87 48.89 108.22 49.1 108.57 49.52 108.92 49.73 109.26 49.2 109.61 49.63 109.96 49.52 110.31 50.68 110.66 50.47 111.01 50.47 111.36 50.79 111.71 51.32 112.06 50.9 112.41 50.16 112.76 50.79 113.11 51.11 113.45 51.32 113.8 50.9 114.15 50.47 114.5 51.21 114.85 50.68 115.2 51.42 115.55 51.11 115.9 50.05 116.25 50.16 116.6 49.2 116.95 48.68 117.3 50.68 117.64 51 117.99 50.47 118.34 49.31 118.69 49.63 119.04 48.57 119.39 49.73 119.74 49.31 120.09 48.46 120.44 47.83 120.79 47.72 121.14 48.68 121.48 48.78 121.83 49.84 122.18 50.79 122.53 51.42 122.88 49.94 123.23 49.94 123.58 50.58 123.93 49.73 124.28 49.52 124.63 50.9 124.98 51.11 125.33 52.27 125.67 53.33 126.02 53.22 126.37 53.22 126.72 53.22 127.07 53.33 127.42 53.33 127.77 53.33 128.12 52.91 128.47 52.59 128.82 53.43 129.17 53.43 129.51 53.01 129.86 53.75 130.21 53.86 130.56 53.54 130.91 53.96 131.26 53.86 131.61 53.54 131.96 53.12 132.31 52.27 132.66 52.91 133.01 52.91 133.36 52.91 133.7 52.59 134.05 53.22 134.4 53.01 134.75 53.22 135.1 53.43 135.45 53.54 135.8 53.75 136.15 53.65 136.5 53.75 136.85 53.96 137.2 53.75 137.55 53.65 137.89 53.54 138.24 54.07 138.59 53.86 138.94 53.75 139.29 53.75 139.64 53.75 139.99 53.75 140.34 54.07 140.69 54.17 141.04 53.96 141.39 53.43 141.73 53.43 142.08 53.65 142.43 54.17 142.78 53.86 143.13 52.8 143.48 52.17 143.83 52.48 144.18 52.69 144.53 52.06 144.88 51.85 145.23 51.64 145.58 50.79 145.92 51.11 146.27 52.38 146.62 52.48 146.97 53.12 147.32 52.38 147.67 52.38 148.02 52.59 148.37 53.65 148.72 53.54 149.07 53.12 149.42 53.01 149.76 52.48 150.11 53.01 150.46 53.01 150.81 52.69 151.16 53.12 151.51 53.75 151.86 53.75 152.21 54.17 152.56 53.96 152.91 53.96 153.26 53.96 153.61 53.96 153.95 54.17 154.3 54.28 154.65 53.86 155 53.43 155.35 53.65 155.7 53.22 156.05 53.01 156.4 53.33 156.75 53.22 157.1 53.12 157.45 53.12 157.79 52.17 158.14 53.12 158.49 53.65 158.84 54.07 159.19 54.07 159.54 53.86 159.89 54.07 160.24 54.07 160.59 54.17 160.94 53.86 161.29 53.75 161.64 53.54 161.98 53.65 162.33 54.07 162.68 54.07 163.03 54.17 163.38 53.96 163.73 53.43 164.08 53.43 164.43 54.39 164.78 54.28 165.13 53.75 165.48 53.86 165.83 53.75 166.17 53.96 166.52 54.39 166.87 53.75 167.22 53.65 167.57 54.07 167.92 53.96 168.27 54.39 168.62 54.07 168.97 54.6 169.32 54.7 169.67 54.81 170.01 54.81 170.36 54.7 170.71 54.7 171.06 54.6 171.41 54.6 171.76 54.6 172.11 54.49 172.46 53.96 172.81 54.39 173.16 53.86 173.51 53.96 173.86 53.75 174.2 53.96 174.55 53.75 174.9 53.75 175.25 53.75 175.6 54.07 175.95 53.65 176.3 54.49 176.65 54.49 177 54.7 177.35 54.7 177.7 54.6 178.04 54.7 178.39 54.81 178.74 54.91 179.09 54.91 179.44 54.7 179.79 54.49 180.14 54.7 180.49 54.81 180.84 54.91 181.19 54.91 181.54 54.91 181.89 54.91 182.23 54.91 182.58 54.91 182.93 54.91 183.28 54.91 183.63 54.6 183.98 54.81 184.33 54.6 184.68 54.39 185.03 54.39 185.38 54.6 185.73 54.39 186.08 54.17 186.42 53.75 186.77 54.17 187.12 54.39 187.47 54.49 187.82 54.49 188.17 54.28 188.52 53.96 188.87 54.49 189.22 54.39 189.57 54.49 189.92 54.28 190.26 54.17 190.61 53.96 190.96 53.86 191.31 54.17 191.66 53.43 192.01 53.22 192.36 53.12 192.71 53.12 193.06 53.33 193.41 53.54 193.76 53.33 194.11 54.17 194.45 54.39 194.8 53.96 195.15 53.65 195.5 53.96 195.85 53.96 196.2 53.75"/>
      </g>
      <g stroke-width="0.3" fill="#000000" fill-opacity="0.000" class="geometry" stroke-dasharray="none" stroke="#66C2A5" id="img-ac3abf9d-31">
        <path fill="none" d="M21.98,33.76 L 22.33 32.49 22.68 33.55 23.03 33.13 23.38 32.28 23.73 30.48 24.08 31.86 24.42 30.17 24.77 29.96 25.12 29.64 25.47 30.27 25.82 29.74 26.17 32.28 26.52 32.49 26.87 32.92 27.22 32.39 27.57 30.8 27.92 33.02 28.27 32.28 28.61 31.01 28.96 30.27 29.31 30.38 29.66 30.27 30.01 31.44 30.36 30.06 30.71 30.7 31.06 29.53 31.41 30.17 31.76 31.65 32.11 32.81 32.45 33.13 32.8 34.4 33.15 34.93 33.5 34.08 33.85 35.14 34.2 35.46 34.55 35.77 34.9 36.09 35.25 36.51 35.6 37.15 35.95 39.16 36.3 38.95 36.64 38.1 36.99 37.78 37.34 38.1 37.69 36.94 38.04 35.03 38.39 35.46 38.74 36.2 39.09 35.24 39.44 35.77 39.79 35.03 40.14 32.81 40.49 34.08 40.83 33.66 41.18 33.87 41.53 32.6 41.88 31.23 42.23 31.65 42.58 32.18 42.93 32.18 43.28 29.53 43.63 29.64 43.98 30.59 44.33 31.33 44.67 30.91 45.02 32.39 45.37 33.13 45.72 31.75 46.07 32.81 46.42 31.65 46.77 31.75 47.12 30.91 47.47 30.59 47.82 29.32 48.17 29.11 48.52 28.05 48.86 27.1 49.21 27.1 49.56 26.78 49.91 26.57 50.26 26.47 50.61 27.42 50.96 26.89 51.31 27.1 51.66 27.31 52.01 28.48 52.36 27.95 52.7 27.63 53.05 27.52 53.4 27.84 53.75 26.89 54.1 25.83 54.45 26.36 54.8 27.21 55.15 26.78 55.5 26.68 55.85 27.1 56.2 25.2 56.55 26.25 56.89 25.83 57.24 25.83 57.59 25.3 57.94 22.55 58.29 23.08 58.64 23.5 58.99 23.93 59.34 23.82 59.69 23.19 60.04 23.61 60.39 24.03 60.73 24.25 61.08 23.19 61.43 22.55 61.78 22.66 62.13 21.5 62.48 22.13 62.83 21.92 63.18 21.71 63.53 21.6 63.88 21.39 64.23 21.18 64.58 20.23 64.92 19.91 65.27 18.75 65.62 18.43 65.97 17.58 66.32 18.64 66.67 19.17 67.02 19.38 67.37 19.06 67.72 19.27 68.07 19.38 68.42 19.17 68.77 18.96 69.11 18.53 69.46 19.06 69.81 19.17 70.16 19.7 70.51 21.18 70.86 21.5 71.21 20.86 71.56 20.12 71.91 20.76 72.26 20.33 72.61 19.49 72.95 19.7 73.3 19.27 73.65 19.91 74 20.44 74.35 20.33 74.7 20.86 75.05 20.97 75.4 19.59 75.75 19.49 76.1 19.8 76.45 18.75 76.8 18.32 77.14 19.7 77.49 18.75 77.84 17.58 78.19 16.84 78.54 17.05 78.89 17.58 79.24 17.16 79.59 17.05 79.94 17.27 80.29 16.74 80.64 16.63 80.98 16.74 81.33 17.79 81.68 17.37 82.03 17.69 82.38 17.9 82.73 18.32 83.08 18.64 83.43 19.59 83.78 17.79 84.13 18.64 84.48 17.9 84.83 17.9 85.17 17.37 85.52 17.05 85.87 16.74 86.22 17.48 86.57 17.16 86.92 16.21 87.27 15.26 87.62 14.83 87.97 13.88 88.32 14.3 88.67 14.3 89.02 14.62 89.36 14.3 89.71 14.3 90.06 14.3 90.41 14.2 90.76 13.56 91.11 13.03 91.46 12.61 91.81 12.61 92.16 12.61 92.51 12.61 92.86 12.61 93.2 12.72 93.55 13.03 93.9 13.25 94.25 13.25 94.6 13.14 94.95 13.14 95.3 13.25 95.65 13.14 96 13.25 96.35 13.25 96.7 13.56 97.05 13.46 97.39 14.3 97.74 14.2 98.09 14.94 98.44 14.3 98.79 14.3 99.14 14.94 99.49 15.15 99.84 15.89 100.19 16.42 100.54 17.9 100.89 18.64 101.23 18.01 101.58 17.69 101.93 17.05 102.28 17.16 102.63 18.64 102.98 18.43 103.33 18.75 103.68 18.22 104.03 18.85 104.38 19.91 104.73 19.49 105.08 18.75 105.42 20.65 105.77 20.12 106.12 19.91 106.47 19.8 106.82 20.65 107.17 20.23 107.52 19.59 107.87 20.33 108.22 20.54 108.57 21.18 108.92 21.71 109.26 22.02 109.61 21.92 109.96 22.87 110.31 22.24 110.66 21.6 111.01 20.54 111.36 20.23 111.71 19.17 112.06 18.11 112.41 18.53 112.76 17.48 113.11 17.27 113.45 16.42 113.8 15.89 114.15 15.68 114.5 15.57 114.85 15.26 115.2 15.15 115.55 15.36 115.9 14.94 116.25 15.26 116.6 15.04 116.95 14.41 117.3 14.3 117.64 14.3 117.99 14.62 118.34 14.94 118.69 14.41 119.04 14.3 119.39 13.78 119.74 13.99 120.09 13.88 120.44 13.67 120.79 13.35 121.14 13.35 121.48 12.93 121.83 13.03 122.18 12.72 122.53 13.25 122.88 13.35 123.23 13.67 123.58 13.88 123.93 14.2 124.28 14.2 124.63 13.67 124.98 13.88 125.33 13.88 125.67 13.99 126.02 13.88 126.37 13.78 126.72 13.88 127.07 13.88 127.42 14.2 127.77 14.41 128.12 14.3 128.47 14.62 128.82 15.26 129.17 15.36 129.51 14.62 129.86 15.15 130.21 15.57 130.56 15.15 130.91 15.47 131.26 15.26 131.61 14.83 131.96 14.62 132.31 14.83 132.66 14.2 133.01 14.09 133.36 13.56 133.7 13.35 134.05 13.78 134.4 14.09 134.75 14.09 135.1 13.88 135.45 13.78 135.8 14.09 136.15 14.62 136.5 15.57 136.85 15.68 137.2 14.94 137.55 14.52 137.89 14.41 138.24 13.88 138.59 13.88 138.94 14.3 139.29 14.3 139.64 14.41 139.99 13.88 140.34 14.09 140.69 14.2 141.04 14.83 141.39 14.09 141.73 14.2 142.08 14.41 142.43 13.99 142.78 14.2 143.13 13.99 143.48 13.99 143.83 13.67 144.18 13.88 144.53 13.67 144.88 13.46 145.23 13.78 145.58 13.88 145.92 13.78 146.27 14.2 146.62 13.88 146.97 13.99 147.32 13.99 147.67 13.78 148.02 13.03 148.37 13.03 148.72 13.56 149.07 13.99 149.42 13.78 149.76 13.99 150.11 14.2 150.46 14.73 150.81 15.68 151.16 16 151.51 16.74 151.86 16.42 152.21 16.42 152.56 17.58 152.91 18.01 153.26 17.69 153.61 17.05 153.95 17.69 154.3 16.95 154.65 16.52 155 18.01 155.35 18.01 155.7 17.48 156.05 17.37 156.4 18.22 156.75 17.9 157.1 18.01 157.45 18.22 157.79 19.38 158.14 19.49 158.49 20.23 158.84 19.17 159.19 18.75 159.54 18.32 159.89 19.38 160.24 19.38 160.59 20.12 160.94 20.97 161.29 21.18 161.64 21.5 161.98 21.39 162.33 21.5 162.68 22.13 163.03 22.66 163.38 22.02 163.73 22.98 164.08 20.97 164.43 20.01 164.78 19.49 165.13 19.91 165.48 20.01 165.83 19.7 166.17 19.7 166.52 20.01 166.87 20.65 167.22 20.23 167.57 18.96 167.92 19.91 168.27 19.06 168.62 17.16 168.97 17.05 169.32 16.52 169.67 16.31 170.01 16 170.36 15.36 170.71 15.78 171.06 15.36 171.41 15.57 171.76 15.78 172.11 16.1 172.46 16.42 172.81 16.84 173.16 17.16 173.51 15.78 173.86 16.21 174.2 17.16 174.55 16.52 174.9 15.78 175.25 15.78 175.6 14.52 175.95 14.3 176.3 13.67 176.65 13.78 177 13.67 177.35 12.93 177.7 13.25 178.04 13.03 178.39 13.25 178.74 12.72 179.09 12.61 179.44 12.61 179.79 12.61 180.14 12.61 180.49 12.61 180.84 12.61 181.19 12.61 181.54 12.93 181.89 12.93 182.23 12.82 182.58 12.82 182.93 12.72 183.28 12.82 183.63 12.82 183.98 12.93 184.33 13.14 184.68 13.14 185.03 13.03 185.38 12.82 185.73 12.82 186.08 12.72 186.42 12.82 186.77 12.61 187.12 12.72 187.47 12.61 187.82 12.61 188.17 12.82 188.52 12.82 188.87 12.82 189.22 12.93 189.57 13.14 189.92 13.25 190.26 13.25 190.61 13.14 190.96 13.35 191.31 13.46 191.66 13.14 192.01 12.82 192.36 12.72 192.71 12.72 193.06 13.03 193.41 13.25 193.76 12.82 194.11 12.93 194.45 12.82 194.8 12.61 195.15 12.72 195.5 12.61 195.85 12.61 196.2 12.61"/>
      </g>
      <g stroke-width="0.3" fill="#000000" fill-opacity="0.000" class="geometry" stroke-dasharray="none" stroke="#ABDDA4" id="img-ac3abf9d-32">
        <path fill="none" d="M21.98,33.76 L 22.33 33.76 22.68 33.23 23.03 31.86 23.38 30.8 23.73 30.8 24.08 32.07 24.42 31.23 24.77 30.48 25.12 30.27 25.47 30.8 25.82 31.33 26.17 31.12 26.52 30.27 26.87 31.01 27.22 31.86 27.57 31.54 27.92 29.96 28.27 29.64 28.61 29.74 28.96 29.22 29.31 31.33 29.66 32.28 30.01 31.44 30.36 32.49 30.71 33.76 31.06 35.03 31.41 35.24 31.76 35.77 32.11 35.56 32.45 34.72 32.8 35.46 33.15 37.25 33.5 37.78 33.85 38.63 34.2 39.05 34.55 38.1 34.9 36.83 35.25 35.56 35.6 35.24 35.95 34.08 36.3 33.55 36.64 34.29 36.99 34.72 37.34 35.35 37.69 35.56 38.04 34.5 38.39 35.77 38.74 35.98 39.09 35.14 39.44 37.25 39.79 39.05 40.14 38.84 40.49 37.78 40.83 37.57 41.18 37.57 41.53 37.46 41.88 39.47 42.23 40.85 42.58 40.53 42.93 38.63 43.28 39.16 43.63 39.9 43.98 40.11 44.33 40.21 44.67 39.26 45.02 37.68 45.37 37.99 45.72 38.73 46.07 39.79 46.42 40.43 46.77 41.48 47.12 41.27 47.47 40 47.82 38.73 48.17 37.15 48.52 36.41 48.86 37.57 49.21 36.62 49.56 35.67 49.91 33.45 50.26 33.76 50.61 34.19 50.96 33.87 51.31 33.55 51.66 31.23 52.01 30.38 52.36 28.16 52.7 28.16 53.05 26.99 53.4 25.73 53.75 24.14 54.1 25.41 54.45 25.09 54.8 25.09 55.15 25.51 55.5 27.1 55.85 27.63 56.2 28.58 56.55 28.79 56.89 28.37 57.24 29.32 57.59 28.58 57.94 28.79 58.29 27.63 58.64 27.95 58.99 26.04 59.34 25.83 59.69 27.95 60.04 28.58 60.39 28.48 60.73 28.9 61.08 29.53 61.43 29.64 61.78 27.1 62.13 27.52 62.48 25.94 62.83 25.62 63.18 23.93 63.53 25.83 63.88 26.68 64.23 24.88 64.58 24.46 64.92 25.41 65.27 25.09 65.62 26.36 65.97 25.41 66.32 24.99 66.67 25.51 67.02 26.36 67.37 25.62 67.72 25.2 68.07 24.88 68.42 24.35 68.77 23.61 69.11 24.56 69.46 24.77 69.81 23.93 70.16 23.93 70.51 24.77 70.86 24.67 71.21 25.2 71.56 25.73 71.91 24.77 72.26 24.77 72.61 22.55 72.95 21.5 73.3 20.86 73.65 21.5 74 21.18 74.35 22.02 74.7 21.71 75.05 20.65 75.4 21.5 75.75 22.24 76.1 22.45 76.45 22.45 76.8 24.56 77.14 24.03 77.49 23.82 77.84 23.4 78.19 23.82 78.54 23.5 78.89 22.13 79.24 22.24 79.59 21.81 79.94 21.5 80.29 20.12 80.64 19.06 80.98 19.49 81.33 19.17 81.68 20.76 82.03 20.86 82.38 20.76 82.73 20.33 83.08 18.75 83.43 18.64 83.78 17.9 84.13 18.01 84.48 18.11 84.83 18.64 85.17 18.64 85.52 18.43 85.87 18.22 86.22 16.95 86.57 16.31 86.92 17.9 87.27 17.9 87.62 17.9 87.97 18.32 88.32 19.27 88.67 19.49 89.02 20.12 89.36 20.23 89.71 18.96 90.06 19.17 90.41 18.96 90.76 17.58 91.11 17.37 91.46 17.9 91.81 16.95 92.16 16.95 92.51 16.21 92.86 16.42 93.2 16.95 93.55 18.32 93.9 19.38 94.25 20.54 94.6 20.54 94.95 21.39 95.3 22.13 95.65 23.08 96 24.46 96.35 24.14 96.7 24.25 97.05 24.35 97.39 25.51 97.74 24.88 98.09 24.46 98.44 26.04 98.79 26.04 99.14 25.83 99.49 27.95 99.84 28.58 100.19 28.26 100.54 27.31 100.89 26.78 101.23 26.47 101.58 25.83 101.93 23.29 102.28 21.6 102.63 22.66 102.98 23.4 103.33 23.72 103.68 23.4 104.03 22.45 104.38 21.92 104.73 20.65 105.08 19.27 105.42 18.75 105.77 18.96 106.12 19.91 106.47 20.23 106.82 20.01 107.17 20.65 107.52 22.34 107.87 21.81 108.22 21.92 108.57 22.45 108.92 22.98 109.26 23.19 109.61 22.98 109.96 24.56 110.31 25.83 110.66 26.36 111.01 25.3 111.36 26.15 111.71 24.67 112.06 24.14 112.41 26.04 112.76 25.41 113.11 24.99 113.45 24.77 113.8 26.15 114.15 25.83 114.5 25.62 114.85 25.94 115.2 24.56 115.55 24.14 115.9 26.47 116.25 28.05 116.6 26.89 116.95 27.42 117.3 27.42 117.64 26.47 117.99 27.1 118.34 25.83 118.69 24.77 119.04 24.56 119.39 25.51 119.74 25.51 120.09 24.46 120.44 25.2 120.79 27.31 121.14 25.3 121.48 25.94 121.83 25.73 122.18 24.99 122.53 25.73 122.88 25.83 123.23 28.05 123.58 28.05 123.93 28.69 124.28 27.42 124.63 26.78 124.98 26.78 125.33 28.48 125.67 28.37 126.02 28.05 126.37 28.58 126.72 29.43 127.07 29.64 127.42 29.96 127.77 30.17 128.12 29.43 128.47 28.48 128.82 28.16 129.17 27.95 129.51 30.27 129.86 29.32 130.21 29.43 130.56 30.27 130.91 31.23 131.26 31.23 131.61 33.97 131.96 34.4 132.31 33.97 132.66 34.08 133.01 31.97 133.36 31.44 133.7 31.33 134.05 33.34 134.4 32.71 134.75 32.07 135.1 32.39 135.45 32.07 135.8 30.27 136.15 30.7 136.5 29.96 136.85 29.43 137.2 29.11 137.55 29.11 137.89 30.38 138.24 28.69 138.59 27.95 138.94 26.57 139.29 25.94 139.64 25.73 139.99 25.83 140.34 26.15 140.69 26.04 141.04 27.21 141.39 27.63 141.73 26.99 142.08 26.25 142.43 26.89 142.78 26.15 143.13 26.04 143.48 25.2 143.83 26.99 144.18 28.37 144.53 29.32 144.88 29 145.23 28.58 145.58 29 145.92 29.96 146.27 29.85 146.62 29.85 146.97 29 147.32 29.85 147.67 30.7 148.02 31.86 148.37 31.65 148.72 30.27 149.07 30.59 149.42 29.85 149.76 28.58 150.11 28.79 150.46 28.16 150.81 27.63 151.16 27.95 151.51 27.52 151.86 29 152.21 29.74 152.56 29.85 152.91 27.95 153.26 26.47 153.61 25.3 153.95 26.15 154.3 25.41 154.65 24.14 155 23.5 155.35 22.76 155.7 22.66 156.05 22.76 156.4 23.93 156.75 24.14 157.1 24.67 157.45 23.61 157.79 23.29 158.14 23.61 158.49 24.46 158.84 24.03 159.19 25.2 159.54 24.56 159.89 24.25 160.24 23.29 160.59 21.5 160.94 21.39 161.29 20.01 161.64 20.01 161.98 19.17 162.33 18.53 162.68 20.44 163.03 20.23 163.38 20.23 163.73 20.86 164.08 19.7 164.43 19.59 164.78 18.85 165.13 19.27 165.48 20.76 165.83 20.97 166.17 21.28 166.52 22.45 166.87 24.14 167.22 24.56 167.57 24.99 167.92 24.99 168.27 26.25 168.62 27.31 168.97 27.21 169.32 27.84 169.67 27.63 170.01 26.04 170.36 26.25 170.71 24.88 171.06 26.47 171.41 26.78 171.76 28.58 172.11 28.58 172.46 27.63 172.81 27.84 173.16 29.85 173.51 30.27 173.86 31.23 174.2 33.45 174.55 32.49 174.9 33.55 175.25 35.03 175.6 34.19 175.95 33.45 176.3 32.81 176.65 33.55 177 32.39 177.35 32.07 177.7 30.38 178.04 31.12 178.39 31.44 178.74 31.12 179.09 32.71 179.44 30.8 179.79 31.01 180.14 29.74 180.49 31.33 180.84 30.06 181.19 29.74 181.54 29.96 181.89 30.91 182.23 30.91 182.58 30.7 182.93 28.26 183.28 25.73 183.63 24.46 183.98 24.25 184.33 24.77 184.68 23.72 185.03 22.34 185.38 21.39 185.73 20.33 186.08 20.33 186.42 20.23 186.77 20.86 187.12 21.39 187.47 21.71 187.82 21.07 188.17 21.18 188.52 21.39 188.87 21.5 189.22 22.02 189.57 23.08 189.92 23.4 190.26 22.98 190.61 23.08 190.96 22.55 191.31 20.97 191.66 20.01 192.01 20.86 192.36 21.5 192.71 21.07 193.06 20.65 193.41 19.17 193.76 20.54 194.11 21.6 194.45 20.54 194.8 20.76 195.15 19.8 195.5 20.65 195.85 21.39 196.2 20.97"/>
      </g>
      <g stroke-width="0.3" fill="#000000" fill-opacity="0.000" class="geometry" stroke-dasharray="none" stroke="#E6F598" id="img-ac3abf9d-33">
        <path fill="none" d="M21.98,33.76 L 22.33 33.87 22.68 35.35 23.03 36.41 23.38 36.2 23.73 34.82 24.08 35.24 24.42 34.5 24.77 34.29 25.12 33.87 25.47 34.19 25.82 35.56 26.17 36.51 26.52 35.56 26.87 35.98 27.22 34.72 27.57 35.14 27.92 36.51 28.27 35.24 28.61 36.51 28.96 37.78 29.31 37.15 29.66 36.62 30.01 36.2 30.36 37.68 30.71 37.68 31.06 36.09 31.41 36.51 31.76 36.3 32.11 37.04 32.45 37.15 32.8 37.15 33.15 35.77 33.5 35.77 33.85 34.5 34.2 34.82 34.55 35.14 34.9 35.88 35.25 37.15 35.6 35.88 35.95 33.66 36.3 31.86 36.64 31.97 36.99 32.28 37.34 33.02 37.69 31.01 38.04 31.65 38.39 30.8 38.74 30.59 39.09 32.49 39.44 30.38 39.79 30.8 40.14 31.97 40.49 33.97 40.83 34.61 41.18 34.08 41.53 35.14 41.88 34.72 42.23 34.4 42.58 34.72 42.93 33.66 43.28 34.5 43.63 34.5 43.98 35.03 44.33 35.14 44.67 35.88 45.02 36.2 45.37 35.98 45.72 34.4 46.07 34.61 46.42 33.97 46.77 33.55 47.12 33.13 47.47 32.39 47.82 32.18 48.17 30.8 48.52 30.27 48.86 31.01 49.21 31.44 49.56 31.75 49.91 33.55 50.26 32.71 50.61 31.23 50.96 31.97 51.31 31.54 51.66 31.86 52.01 31.97 52.36 32.28 52.7 34.29 53.05 34.82 53.4 35.67 53.75 35.46 54.1 34.82 54.45 34.61 54.8 34.82 55.15 34.4 55.5 34.82 55.85 33.66 56.2 32.6 56.55 30.91 56.89 30.17 57.24 31.01 57.59 31.44 57.94 31.12 58.29 29.32 58.64 30.38 58.99 30.91 59.34 31.65 59.69 33.45 60.04 35.35 60.39 35.46 60.73 35.03 61.08 36.2 61.43 34.82 61.78 33.76 62.13 33.66 62.48 33.66 62.83 32.39 63.18 33.13 63.53 33.13 63.88 34.19 64.23 34.19 64.58 34.19 64.92 36.3 65.27 35.03 65.62 37.04 65.97 37.68 66.32 38.42 66.67 39.05 67.02 38.21 67.37 39.69 67.72 39.05 68.07 38.52 68.42 36.94 68.77 36.94 69.11 35.24 69.46 36.83 69.81 35.67 70.16 34.29 70.51 35.77 70.86 35.03 71.21 35.77 71.56 38.1 71.91 37.57 72.26 37.25 72.61 37.57 72.95 37.36 73.3 37.15 73.65 37.78 74 37.46 74.35 36.72 74.7 35.56 75.05 35.46 75.4 35.35 75.75 34.82 76.1 33.76 76.45 32.07 76.8 31.97 77.14 33.13 77.49 33.76 77.84 31.44 78.19 29.53 78.54 27.84 78.89 26.89 79.24 29 79.59 29.74 79.94 31.86 80.29 31.97 80.64 31.01 80.98 32.39 81.33 34.29 81.68 34.19 82.03 35.56 82.38 37.15 82.73 37.68 83.08 37.68 83.43 36.41 83.78 34.72 84.13 36.62 84.48 36.62 84.83 38.1 85.17 37.78 85.52 36.83 85.87 35.03 86.22 34.61 86.57 34.72 86.92 35.35 87.27 34.5 87.62 35.24 87.97 35.03 88.32 36.41 88.67 36.83 89.02 38.21 89.36 38.63 89.71 37.68 90.06 35.14 90.41 35.46 90.76 34.72 91.11 33.34 91.46 34.08 91.81 33.34 92.16 33.66 92.51 34.29 92.86 34.5 93.2 33.76 93.55 34.08 93.9 33.66 94.25 35.24 94.6 34.61 94.95 34.82 95.3 34.19 95.65 35.56 96 35.35 96.35 35.24 96.7 36.41 97.05 35.56 97.39 35.24 97.74 34.4 98.09 35.24 98.44 34.4 98.79 34.5 99.14 33.45 99.49 33.66 99.84 32.39 100.19 33.55 100.54 33.34 100.89 33.23 101.23 33.66 101.58 32.39 101.93 32.92 102.28 31.01 102.63 31.01 102.98 29.96 103.33 28.48 103.68 29.64 104.03 30.7 104.38 30.48 104.73 32.28 105.08 31.33 105.42 32.92 105.77 34.61 106.12 33.76 106.47 33.55 106.82 32.49 107.17 31.44 107.52 30.7 107.87 32.28 108.22 31.23 108.57 31.54 108.92 31.23 109.26 31.01 109.61 29.11 109.96 27.42 110.31 27.84 110.66 27.84 111.01 29 111.36 30.48 111.71 29.64 112.06 28.58 112.41 27.31 112.76 28.48 113.11 27.74 113.45 28.58 113.8 28.48 114.15 29.22 114.5 28.79 114.85 28.9 115.2 28.58 115.55 28.9 115.9 30.17 116.25 29.32 116.6 28.48 116.95 29.22 117.3 27.84 117.64 26.47 117.99 26.47 118.34 24.99 118.69 24.56 119.04 24.25 119.39 24.25 119.74 23.29 120.09 22.45 120.44 23.08 120.79 22.24 121.14 22.13 121.48 22.76 121.83 22.55 122.18 22.02 122.53 22.24 122.88 22.66 123.23 22.55 123.58 21.07 123.93 21.71 124.28 21.81 124.63 21.92 124.98 21.81 125.33 21.07 125.67 21.6 126.02 21.07 126.37 19.49 126.72 18.43 127.07 17.69 127.42 16.84 127.77 17.37 128.12 17.16 128.47 16.74 128.82 17.48 129.17 17.79 129.51 17.9 129.86 17.48 130.21 16.63 130.56 15.89 130.91 16.31 131.26 18.22 131.61 18.43 131.96 18.11 132.31 18.85 132.66 18.85 133.01 17.79 133.36 18.64 133.7 17.9 134.05 18.96 134.4 18.43 134.75 17.79 135.1 17.58 135.45 19.06 135.8 19.7 136.15 20.44 136.5 20.23 136.85 19.91 137.2 20.12 137.55 20.76 137.89 20.01 138.24 20.65 138.59 20.12 138.94 19.27 139.29 18.32 139.64 16.84 139.99 16.74 140.34 17.58 140.69 16.74 141.04 17.58 141.39 16.52 141.73 17.16 142.08 17.58 142.43 16.21 142.78 16.74 143.13 18.11 143.48 18.64 143.83 18.85 144.18 17.37 144.53 18.22 144.88 17.79 145.23 17.58 145.58 17.79 145.92 18.11 146.27 18.96 146.62 19.8 146.97 19.91 147.32 20.65 147.67 21.07 148.02 20.23 148.37 19.59 148.72 20.97 149.07 21.07 149.42 20.33 149.76 20.97 150.11 22.66 150.46 23.61 150.81 24.56 151.16 25.09 151.51 25.62 151.86 25.94 152.21 25.41 152.56 26.57 152.91 26.78 153.26 28.69 153.61 28.58 153.95 27.95 154.3 27.31 154.65 27.42 155 28.16 155.35 26.68 155.7 26.78 156.05 27.31 156.4 26.99 156.75 25.83 157.1 25.41 157.45 25.41 157.79 26.47 158.14 25.62 158.49 25.73 158.84 25.94 159.19 27.52 159.54 26.89 159.89 26.57 160.24 26.25 160.59 25.2 160.94 24.25 161.29 24.56 161.64 25.94 161.98 25.51 162.33 24.99 162.68 24.14 163.03 24.77 163.38 23.5 163.73 23.93 164.08 23.4 164.43 23.29 164.78 22.87 165.13 21.92 165.48 23.5 165.83 24.77 166.17 25.41 166.52 25.94 166.87 26.99 167.22 27.1 167.57 26.36 167.92 28.05 168.27 29.32 168.62 29.32 168.97 28.79 169.32 28.16 169.67 27.52 170.01 27.95 170.36 28.37 170.71 26.57 171.06 25.41 171.41 25.2 171.76 25.09 172.11 24.14 172.46 24.03 172.81 23.82 173.16 24.14 173.51 25.09 173.86 24.88 174.2 24.14 174.55 24.88 174.9 24.77 175.25 26.04 175.6 24.99 175.95 26.47 176.3 25.2 176.65 22.02 177 21.5 177.35 19.91 177.7 20.33 178.04 22.24 178.39 22.02 178.74 21.81 179.09 22.34 179.44 22.98 179.79 22.24 180.14 22.66 180.49 20.86 180.84 22.66 181.19 23.08 181.54 22.76 181.89 21.92 182.23 21.92 182.58 22.45 182.93 22.76 183.28 21.39 183.63 21.71 183.98 23.4 184.33 20.97 184.68 22.55 185.03 21.39 185.38 20.76 185.73 19.49 186.08 19.38 186.42 19.91 186.77 18.96 187.12 17.27 187.47 18.11 187.82 19.59 188.17 19.06 188.52 19.27 188.87 18.96 189.22 19.38 189.57 19.27 189.92 19.7 190.26 19.59 190.61 20.01 190.96 19.27 191.31 18.64 191.66 18.85 192.01 17.69 192.36 17.58 192.71 17.37 193.06 17.37 193.41 18.11 193.76 19.06 194.11 18.64 194.45 18.64 194.8 18.53 195.15 16 195.5 16.31 195.85 16.74 196.2 17.16"/>
      </g>
      <g stroke-width="0.3" fill="#000000" fill-opacity="0.000" class="geometry" stroke-dasharray="none" stroke="#FFFFBF" id="img-ac3abf9d-34">
        <path fill="none" d="M21.98,33.76 L 22.33 34.08 22.68 34.72 23.03 35.14 23.38 35.24 23.73 34.61 24.08 34.72 24.42 33.87 24.77 33.55 25.12 32.18 25.47 30.91 25.82 30.59 26.17 32.18 26.52 31.54 26.87 33.45 27.22 33.97 27.57 34.5 27.92 34.4 28.27 34.61 28.61 33.66 28.96 32.92 29.31 31.75 29.66 32.6 30.01 31.12 30.36 31.12 30.71 29.96 31.06 30.59 31.41 29.43 31.76 29.22 32.11 27.21 32.45 27.21 32.8 26.89 33.15 27.74 33.5 26.57 33.85 25.94 34.2 26.25 34.55 27.74 34.9 25.62 35.25 25.62 35.6 25.2 35.95 25.83 36.3 24.77 36.64 25.83 36.99 26.15 37.34 26.47 37.69 27.52 38.04 26.15 38.39 23.4 38.74 23.19 39.09 23.08 39.44 23.08 39.79 24.25 40.14 23.5 40.49 22.66 40.83 22.98 41.18 23.29 41.53 23.19 41.88 22.55 42.23 22.45 42.58 22.45 42.93 23.08 43.28 24.14 43.63 23.29 43.98 22.02 44.33 21.39 44.67 22.02 45.02 20.23 45.37 20.97 45.72 20.65 46.07 21.5 46.42 22.76 46.77 22.76 47.12 22.55 47.47 23.72 47.82 22.87 48.17 25.09 48.52 24.88 48.86 25.62 49.21 23.93 49.56 24.35 49.91 24.46 50.26 25.62 50.61 25.73 50.96 25.09 51.31 25.2 51.66 25.94 52.01 24.77 52.36 27.1 52.7 28.26 53.05 28.58 53.4 30.38 53.75 32.49 54.1 31.97 54.45 33.13 54.8 32.49 55.15 32.18 55.5 30.7 55.85 29.43 56.2 29.22 56.55 29.53 56.89 31.33 57.24 31.23 57.59 31.97 57.94 32.07 58.29 33.02 58.64 32.49 58.99 33.02 59.34 31.01 59.69 30.59 60.04 30.59 60.39 31.01 60.73 30.17 61.08 29.74 61.43 29.11 61.78 28.05 62.13 28.69 62.48 29.22 62.83 28.79 63.18 26.25 63.53 24.99 63.88 24.77 64.23 23.5 64.58 23.19 64.92 22.02 65.27 22.13 65.62 20.97 65.97 22.24 66.32 21.5 66.67 19.8 67.02 18.53 67.37 17.69 67.72 17.9 68.07 17.79 68.42 17.79 68.77 17.9 69.11 18.32 69.46 17.16 69.81 16.42 70.16 16 70.51 16.42 70.86 16.74 71.21 17.27 71.56 18.43 71.91 17.48 72.26 17.48 72.61 16.63 72.95 16 73.3 15.47 73.65 15.68 74 16 74.35 14.94 74.7 14.3 75.05 14.83 75.4 14.83 75.75 13.99 76.1 13.78 76.45 13.35 76.8 13.46 77.14 13.78 77.49 13.35 77.84 13.35 78.19 13.35 78.54 13.14 78.89 13.14 79.24 13.35 79.59 13.25 79.94 13.25 80.29 13.46 80.64 13.25 80.98 13.03 81.33 13.14 81.68 13.14 82.03 13.03 82.38 13.03 82.73 13.14 83.08 13.25 83.43 13.14 83.78 13.14 84.13 13.35 84.48 13.67 84.83 13.25 85.17 13.14 85.52 13.25 85.87 13.03 86.22 12.82 86.57 12.93 86.92 12.82 87.27 12.61 87.62 12.61 87.97 12.93 88.32 12.93 88.67 12.82 89.02 12.72 89.36 12.93 89.71 13.35 90.06 12.93 90.41 13.03 90.76 13.78 91.11 13.88 91.46 14.52 91.81 15.78 92.16 16.31 92.51 17.58 92.86 18.32 93.2 18.64 93.55 19.91 93.9 20.65 94.25 20.01 94.6 20.97 94.95 21.92 95.3 21.6 95.65 21.5 96 20.97 96.35 20.97 96.7 20.12 97.05 21.07 97.39 20.33 97.74 18.85 98.09 19.49 98.44 19.49 98.79 20.12 99.14 19.27 99.49 19.38 99.84 19.38 100.19 19.38 100.54 19.91 100.89 19.17 101.23 18.32 101.58 18.43 101.93 18.85 102.28 17.9 102.63 18.22 102.98 17.58 103.33 16.63 103.68 17.05 104.03 16.95 104.38 15.89 104.73 15.04 105.08 15.15 105.42 15.26 105.77 16.21 106.12 17.16 106.47 17.69 106.82 17.16 107.17 16.52 107.52 16.21 107.87 15.89 108.22 15.68 108.57 16.42 108.92 16.42 109.26 16.31 109.61 17.05 109.96 17.05 110.31 16.42 110.66 15.78 111.01 15.36 111.36 15.57 111.71 15.04 112.06 15.15 112.41 15.26 112.76 15.15 113.11 15.15 113.45 14.83 113.8 14.3 114.15 14.62 114.5 14.94 114.85 15.15 115.2 14.52 115.55 15.47 115.9 15.57 116.25 15.89 116.6 15.68 116.95 16 117.3 15.78 117.64 15.04 117.99 14.94 118.34 14.3 118.69 13.88 119.04 14.09 119.39 14.2 119.74 13.88 120.09 13.88 120.44 13.78 120.79 13.67 121.14 13.78 121.48 13.88 121.83 13.35 122.18 13.35 122.53 13.35 122.88 13.35 123.23 13.14 123.58 13.14 123.93 13.25 124.28 13.35 124.63 13.67 124.98 13.46 125.33 13.03 125.67 12.72 126.02 12.61 126.37 12.61 126.72 12.72 127.07 13.03 127.42 13.25 127.77 13.67 128.12 13.25 128.47 13.56 128.82 12.72 129.17 12.72 129.51 12.82 129.86 12.93 130.21 12.72 130.56 12.61 130.91 12.61 131.26 12.61 131.61 12.61 131.96 12.61 132.31 12.61 132.66 12.72 133.01 12.61 133.36 12.61 133.7 12.82 134.05 12.93 134.4 12.72 134.75 12.93 135.1 13.03 135.45 13.14 135.8 13.46 136.15 13.35 136.5 13.46 136.85 13.46 137.2 13.67 137.55 14.41 137.89 14.73 138.24 14.3 138.59 14.41 138.94 14.09 139.29 14.41 139.64 14.41 139.99 14.41 140.34 14.41 140.69 14.73 141.04 13.56 141.39 13.56 141.73 13.88 142.08 13.88 142.43 14.41 142.78 14.3 143.13 13.99 143.48 14.52 143.83 14.83 144.18 14.73 144.53 14.62 144.88 14.73 145.23 15.15 145.58 14.73 145.92 14.73 146.27 14.83 146.62 14.41 146.97 13.88 147.32 13.78 147.67 14.52 148.02 13.88 148.37 13.46 148.72 13.56 149.07 13.46 149.42 13.35 149.76 13.88 150.11 14.09 150.46 13.78 150.81 13.46 151.16 13.99 151.51 13.99 151.86 13.99 152.21 13.78 152.56 13.78 152.91 13.88 153.26 13.99 153.61 13.56 153.95 13.99 154.3 13.99 154.65 14.2 155 14.52 155.35 15.47 155.7 15.26 156.05 14.83 156.4 14.73 156.75 15.15 157.1 15.68 157.45 16.84 157.79 17.16 158.14 17.37 158.49 17.69 158.84 18.53 159.19 19.8 159.54 18.96 159.89 19.17 160.24 18.85 160.59 18.85 160.94 18.53 161.29 18.75 161.64 20.01 161.98 20.01 162.33 20.12 162.68 20.44 163.03 19.27 163.38 17.58 163.73 18.85 164.08 19.49 164.43 19.59 164.78 20.54 165.13 20.76 165.48 20.54 165.83 19.38 166.17 19.7 166.52 19.7 166.87 21.6 167.22 21.5 167.57 21.07 167.92 20.54 168.27 22.34 168.62 21.81 168.97 21.92 169.32 22.66 169.67 23.5 170.01 26.47 170.36 26.57 170.71 27.74 171.06 27.95 171.41 26.68 171.76 27.63 172.11 27.74 172.46 25.2 172.81 24.77 173.16 23.4 173.51 24.14 173.86 23.5 174.2 23.82 174.55 23.72 174.9 24.25 175.25 26.15 175.6 26.99 175.95 27.74 176.3 26.57 176.65 24.77 177 25.2 177.35 24.67 177.7 23.61 178.04 23.72 178.39 24.46 178.74 24.35 179.09 23.08 179.44 23.4 179.79 24.25 180.14 24.99 180.49 25.62 180.84 24.56 181.19 25.2 181.54 23.29 181.89 24.88 182.23 24.03 182.58 25.83 182.93 26.15 183.28 25.51 183.63 26.15 183.98 25.94 184.33 26.15 184.68 25.62 185.03 24.35 185.38 25.2 185.73 26.89 186.08 27.21 186.42 27.1 186.77 26.68 187.12 26.68 187.47 27.74 187.82 27.74 188.17 29.96 188.52 29.43 188.87 28.16 189.22 27.42 189.57 28.05 189.92 27.52 190.26 26.89 190.61 25.51 190.96 24.99 191.31 25.51 191.66 25.62 192.01 24.77 192.36 26.04 192.71 26.68 193.06 25.09 193.41 24.88 193.76 25.62 194.11 24.88 194.45 24.56 194.8 24.56 195.15 25.3 195.5 24.99 195.85 25.41 196.2 25.83"/>
      </g>
      <g stroke-width="0.3" fill="#000000" fill-opacity="0.000" class="geometry" stroke-dasharray="none" stroke="#FEE08B" id="img-ac3abf9d-35">
        <path fill="none" d="M21.98,33.76 L 22.33 34.82 22.68 36.51 23.03 38.63 23.38 35.98 23.73 35.46 24.08 36.41 24.42 36.83 24.77 37.25 25.12 37.68 25.47 39.69 25.82 38.63 26.17 36.94 26.52 38.42 26.87 38.95 27.22 36.51 27.57 35.88 27.92 36.2 28.27 35.24 28.61 35.98 28.96 36.09 29.31 35.56 29.66 35.46 30.01 35.56 30.36 35.35 30.71 35.03 31.06 35.35 31.41 35.03 31.76 33.34 32.11 33.76 32.45 31.65 32.8 33.23 33.15 30.91 33.5 31.23 33.85 30.91 34.2 31.65 34.55 31.54 34.9 31.75 35.25 31.97 35.6 32.49 35.95 33.45 36.3 34.08 36.64 33.02 36.99 32.6 37.34 34.19 37.69 32.28 38.04 32.07 38.39 31.33 38.74 33.66 39.09 33.66 39.44 33.13 39.79 33.66 40.14 33.45 40.49 33.13 40.83 31.44 41.18 31.54 41.53 30.8 41.88 30.17 42.23 29.64 42.58 29.43 42.93 29.53 43.28 30.06 43.63 28.37 43.98 27.74 44.33 29.11 44.67 29.64 45.02 29.96 45.37 29.32 45.72 28.26 46.07 27.21 46.42 27.84 46.77 26.99 47.12 27.21 47.47 25.41 47.82 26.57 48.17 27.42 48.52 29.11 48.86 26.99 49.21 27.42 49.56 26.89 49.91 27.42 50.26 27.63 50.61 26.15 50.96 24.14 51.31 22.34 51.66 21.07 52.01 20.23 52.36 19.59 52.7 20.23 53.05 19.8 53.4 19.91 53.75 19.49 54.1 18.43 54.45 18.43 54.8 17.48 55.15 17.58 55.5 18.22 55.85 17.16 56.2 16.84 56.55 15.57 56.89 16.21 57.24 16.74 57.59 16.52 57.94 18.01 58.29 17.37 58.64 16.84 58.99 16.84 59.34 16.21 59.69 14.62 60.04 14.62 60.39 14.2 60.73 13.88 61.08 13.25 61.43 13.46 61.78 13.67 62.13 13.56 62.48 13.56 62.83 13.88 63.18 14.41 63.53 14.3 63.88 13.99 64.23 14.62 64.58 14.41 64.92 14.41 65.27 14.2 65.62 14.52 65.97 14.2 66.32 14.41 66.67 15.15 67.02 15.15 67.37 14.94 67.72 14.94 68.07 14.52 68.42 14.52 68.77 14.09 69.11 13.78 69.46 13.78 69.81 13.99 70.16 14.2 70.51 14.73 70.86 15.47 71.21 15.04 71.56 16.1 71.91 16.63 72.26 15.26 72.61 15.04 72.95 14.41 73.3 14.83 73.65 13.99 74 14.09 74.35 13.99 74.7 14.2 75.05 13.56 75.4 13.35 75.75 12.93 76.1 12.72 76.45 12.82 76.8 12.82 77.14 13.03 77.49 13.14 77.84 12.93 78.19 13.25 78.54 13.25 78.89 13.14 79.24 13.35 79.59 13.78 79.94 13.88 80.29 14.2 80.64 14.3 80.98 13.88 81.33 13.67 81.68 13.88 82.03 13.88 82.38 13.99 82.73 13.46 83.08 13.56 83.43 13.88 83.78 13.78 84.13 13.78 84.48 13.99 84.83 13.99 85.17 13.56 85.52 13.67 85.87 13.56 86.22 13.46 86.57 13.14 86.92 12.93 87.27 13.88 87.62 13.56 87.97 13.88 88.32 14.41 88.67 14.41 89.02 14.41 89.36 14.41 89.71 14.52 90.06 13.88 90.41 13.78 90.76 13.99 91.11 14.73 91.46 14.52 91.81 13.99 92.16 14.73 92.51 14.2 92.86 13.78 93.2 14.3 93.55 14.3 93.9 14.94 94.25 14.3 94.6 13.67 94.95 13.78 95.3 13.99 95.65 13.99 96 14.73 96.35 14.73 96.7 15.15 97.05 14.73 97.39 14.94 97.74 14.52 98.09 14.52 98.44 13.88 98.79 13.67 99.14 14.52 99.49 13.99 99.84 14.3 100.19 14.09 100.54 13.78 100.89 12.93 101.23 13.14 101.58 13.25 101.93 13.14 102.28 13.35 102.63 13.56 102.98 13.78 103.33 14.09 103.68 14.09 104.03 14.41 104.38 14.52 104.73 14.83 105.08 13.78 105.42 14.09 105.77 13.67 106.12 13.35 106.47 13.35 106.82 13.67 107.17 14.2 107.52 13.88 107.87 14.3 108.22 14.52 108.57 14.73 108.92 15.68 109.26 15.57 109.61 15.89 109.96 15.78 110.31 15.36 110.66 15.04 111.01 14.52 111.36 14.83 111.71 14.41 112.06 13.88 112.41 15.26 112.76 15.04 113.11 15.15 113.45 14.83 113.8 14.52 114.15 14.09 114.5 14.09 114.85 14.2 115.2 14.2 115.55 13.78 115.9 14.52 116.25 14.09 116.6 14.3 116.95 14.41 117.3 13.78 117.64 13.46 117.99 13.88 118.34 13.88 118.69 14.52 119.04 14.62 119.39 14.52 119.74 14.41 120.09 14.62 120.44 15.57 120.79 14.83 121.14 15.15 121.48 15.36 121.83 15.68 122.18 16.21 122.53 16.42 122.88 16.74 123.23 17.37 123.58 16.95 123.93 16.84 124.28 16.63 124.63 17.05 124.98 17.37 125.33 16 125.67 16.95 126.02 16.74 126.37 16.74 126.72 17.58 127.07 18.43 127.42 20.01 127.77 19.91 128.12 18.32 128.47 18.96 128.82 18.96 129.17 20.01 129.51 20.76 129.86 21.18 130.21 20.54 130.56 18.96 130.91 20.23 131.26 19.8 131.61 19.38 131.96 18.32 132.31 18.32 132.66 18.64 133.01 19.06 133.36 17.9 133.7 16.84 134.05 17.9 134.4 17.27 134.75 17.48 135.1 17.16 135.45 17.27 135.8 17.79 136.15 18.64 136.5 19.7 136.85 18.96 137.2 18.22 137.55 18.01 137.89 17.69 138.24 17.16 138.59 16.84 138.94 16.95 139.29 18.32 139.64 18.75 139.99 18.22 140.34 18.96 140.69 20.12 141.04 20.01 141.39 18.75 141.73 18.43 142.08 17.69 142.43 17.58 142.78 17.27 143.13 17.48 143.48 17.16 143.83 17.05 144.18 17.16 144.53 17.16 144.88 16.95 145.23 17.27 145.58 16.74 145.92 17.79 146.27 17.9 146.62 17.79 146.97 17.9 147.32 17.9 147.67 18.11 148.02 18.22 148.37 17.27 148.72 16.1 149.07 15.78 149.42 15.47 149.76 15.78 150.11 16.52 150.46 17.05 150.81 16.74 151.16 17.27 151.51 17.48 151.86 16.84 152.21 16.1 152.56 15.89 152.91 16.74 153.26 17.27 153.61 17.58 153.95 17.58 154.3 16.63 154.65 16.63 155 17.27 155.35 16.95 155.7 16 156.05 15.78 156.4 15.89 156.75 17.05 157.1 17.48 157.45 15.68 157.79 15.26 158.14 16.42 158.49 15.68 158.84 15.68 159.19 16.21 159.54 15.57 159.89 15.78 160.24 15.68 160.59 15.78 160.94 15.04 161.29 14.73 161.64 14.73 161.98 14.94 162.33 14.52 162.68 14.73 163.03 16 163.38 16.52 163.73 16.95 164.08 16.21 164.43 15.78 164.78 15.04 165.13 15.36 165.48 16.1 165.83 16.74 166.17 17.37 166.52 17.58 166.87 17.79 167.22 18.96 167.57 20.76 167.92 21.81 168.27 23.61 168.62 23.82 168.97 24.35 169.32 22.45 169.67 22.13 170.01 23.4 170.36 22.98 170.71 22.55 171.06 21.92 171.41 20.01 171.76 21.07 172.11 19.8 172.46 19.8 172.81 21.18 173.16 22.24 173.51 22.24 173.86 21.5 174.2 22.55 174.55 22.76 174.9 22.55 175.25 22.24 175.6 21.6 175.95 21.28 176.3 21.18 176.65 22.02 177 21.71 177.35 22.45 177.7 23.29 178.04 23.29 178.39 23.08 178.74 23.61 179.09 23.5 179.44 25.2 179.79 24.46 180.14 24.56 180.49 25.94 180.84 26.04 181.19 27.74 181.54 26.57 181.89 24.56 182.23 26.47 182.58 26.99 182.93 26.04 183.28 26.04 183.63 24.56 183.98 25.41 184.33 26.36 184.68 24.35 185.03 25.83 185.38 26.57 185.73 24.56 186.08 23.08 186.42 23.5 186.77 23.19 187.12 22.24 187.47 21.5 187.82 22.34 188.17 20.76 188.52 20.23 188.87 20.12 189.22 19.49 189.57 20.01 189.92 19.27 190.26 20.54 190.61 20.44 190.96 21.18 191.31 21.92 191.66 20.97 192.01 20.23 192.36 20.33 192.71 19.49 193.06 19.49 193.41 21.6 193.76 22.24 194.11 22.34 194.45 21.5 194.8 23.08 195.15 22.45 195.5 21.39 195.85 22.66 196.2 21.6"/>
      </g>
      <g stroke-width="0.3" fill="#000000" fill-opacity="0.000" class="geometry" stroke-dasharray="none" stroke="#FDAE61" id="img-ac3abf9d-36">
        <path fill="none" d="M21.98,33.76 L 22.33 35.35 22.68 35.77 23.03 36.2 23.38 37.36 23.73 37.25 24.08 36.09 24.42 34.93 24.77 33.87 25.12 33.23 25.47 32.49 25.82 31.86 26.17 32.71 26.52 30.8 26.87 30.27 27.22 29.53 27.57 29.74 27.92 30.06 28.27 29.74 28.61 26.89 28.96 25.73 29.31 25.09 29.66 24.56 30.01 25.2 30.36 27.21 30.71 25.73 31.06 24.25 31.41 24.25 31.76 23.29 32.11 25.51 32.45 26.15 32.8 24.99 33.15 24.88 33.5 23.72 33.85 24.46 34.2 22.87 34.55 23.5 34.9 22.66 35.25 23.82 35.6 21.28 35.95 19.49 36.3 20.33 36.64 19.06 36.99 18.75 37.34 17.37 37.69 17.9 38.04 19.7 38.39 19.27 38.74 17.79 39.09 18.11 39.44 17.79 39.79 18.53 40.14 18.22 40.49 18.85 40.83 18.64 41.18 18.75 41.53 17.58 41.88 17.58 42.23 16.74 42.58 16.52 42.93 15.15 43.28 14.52 43.63 13.88 43.98 14.62 44.33 14.83 44.67 14.83 45.02 15.26 45.37 15.57 45.72 15.15 46.07 14.83 46.42 15.04 46.77 16.1 47.12 16 47.47 15.89 47.82 15.04 48.17 15.78 48.52 15.47 48.86 15.26 49.21 15.26 49.56 14.52 49.91 15.04 50.26 14.94 50.61 15.15 50.96 15.89 51.31 15.36 51.66 15.47 52.01 14.94 52.36 14.41 52.7 14.62 53.05 14.52 53.4 14.52 53.75 14.2 54.1 13.78 54.45 13.56 54.8 14.09 55.15 13.88 55.5 13.67 55.85 13.56 56.2 13.14 56.55 13.03 56.89 13.03 57.24 13.14 57.59 13.14 57.94 13.03 58.29 12.82 58.64 12.72 58.99 12.72 59.34 12.72 59.69 12.72 60.04 12.93 60.39 13.25 60.73 13.14 61.08 12.72 61.43 12.61 61.78 12.61 62.13 12.61 62.48 12.61 62.83 12.61 63.18 12.61 63.53 12.61 63.88 12.61 64.23 12.61 64.58 12.61 64.92 12.61 65.27 12.61 65.62 12.61 65.97 12.72 66.32 12.61 66.67 12.61 67.02 12.61 67.37 12.72 67.72 12.61 68.07 12.61 68.42 12.61 68.77 12.72 69.11 12.61 69.46 12.61 69.81 12.72 70.16 12.61 70.51 12.61 70.86 12.61 71.21 12.61 71.56 13.03 71.91 12.61 72.26 12.61 72.61 12.82 72.95 12.82 73.3 12.93 73.65 13.14 74 13.46 74.35 13.46 74.7 13.03 75.05 13.46 75.4 13.03 75.75 13.35 76.1 13.88 76.45 14.09 76.8 14.2 77.14 13.99 77.49 13.88 77.84 13.56 78.19 13.99 78.54 13.88 78.89 13.46 79.24 13.56 79.59 13.67 79.94 13.35 80.29 13.46 80.64 13.35 80.98 13.78 81.33 13.78 81.68 13.78 82.03 13.88 82.38 14.3 82.73 14.73 83.08 16.1 83.43 16.1 83.78 16.52 84.13 16.74 84.48 17.05 84.83 16.31 85.17 17.27 85.52 17.16 85.87 16.95 86.22 17.16 86.57 17.48 86.92 17.27 87.27 18.96 87.62 19.59 87.97 19.38 88.32 18.75 88.67 19.27 89.02 20.76 89.36 20.44 89.71 20.33 90.06 21.28 90.41 20.33 90.76 19.27 91.11 19.59 91.46 19.91 91.81 19.59 92.16 19.7 92.51 20.86 92.86 21.5 93.2 21.92 93.55 22.13 93.9 21.81 94.25 20.76 94.6 19.8 94.95 20.12 95.3 19.7 95.65 18.22 96 18.75 96.35 19.27 96.7 19.59 97.05 19.59 97.39 20.23 97.74 20.01 98.09 20.33 98.44 20.01 98.79 20.23 99.14 20.01 99.49 20.65 99.84 19.8 100.19 22.02 100.54 21.39 100.89 20.86 101.23 20.86 101.58 21.39 101.93 22.02 102.28 22.34 102.63 22.02 102.98 21.92 103.33 22.66 103.68 22.55 104.03 22.66 104.38 23.29 104.73 22.98 105.08 22.13 105.42 22.02 105.77 21.39 106.12 21.18 106.47 20.44 106.82 20.23 107.17 20.65 107.52 20.44 107.87 20.86 108.22 19.17 108.57 19.06 108.92 18.32 109.26 18.01 109.61 16.1 109.96 15.78 110.31 15.47 110.66 16 111.01 15.89 111.36 15.36 111.71 14.94 112.06 14.94 112.41 14.73 112.76 14.52 113.11 14.73 113.45 14.41 113.8 14.2 114.15 13.56 114.5 13.35 114.85 13.35 115.2 13.67 115.55 13.46 115.9 13.14 116.25 13.35 116.6 13.46 116.95 13.46 117.3 13.46 117.64 13.35 117.99 13.14 118.34 13.03 118.69 12.93 119.04 13.25 119.39 13.14 119.74 13.03 120.09 13.25 120.44 13.25 120.79 13.14 121.14 13.56 121.48 13.56 121.83 13.46 122.18 13.67 122.53 13.56 122.88 13.56 123.23 13.99 123.58 14.3 123.93 14.62 124.28 15.57 124.63 16.1 124.98 16.84 125.33 16.84 125.67 16.1 126.02 16 126.37 16.31 126.72 15.68 127.07 15.57 127.42 15.36 127.77 15.15 128.12 14.94 128.47 15.89 128.82 16.52 129.17 16.31 129.51 16.21 129.86 16.31 130.21 16.74 130.56 17.48 130.91 16.52 131.26 16.84 131.61 17.37 131.96 17.79 132.31 17.58 132.66 18.01 133.01 17.9 133.36 17.48 133.7 18.11 134.05 18.53 134.4 18.85 134.75 19.06 135.1 20.12 135.45 20.54 135.8 19.7 136.15 19.91 136.5 20.12 136.85 19.7 137.2 19.91 137.55 20.01 137.89 18.75 138.24 18.85 138.59 18.11 138.94 17.79 139.29 16.95 139.64 16.42 139.99 16.63 140.34 17.37 140.69 17.27 141.04 18.22 141.39 18.96 141.73 19.27 142.08 20.23 142.43 20.54 142.78 20.97 143.13 20.76 143.48 21.5 143.83 20.01 144.18 20.44 144.53 19.59 144.88 19.91 145.23 21.71 145.58 21.71 145.92 21.5 146.27 22.98 146.62 22.13 146.97 23.19 147.32 24.88 147.67 26.25 148.02 26.15 148.37 26.78 148.72 28.9 149.07 29.64 149.42 28.26 149.76 27.95 150.11 27.52 150.46 27.95 150.81 28.26 151.16 27.63 151.51 28.69 151.86 29.85 152.21 29.85 152.56 28.16 152.91 28.69 153.26 26.68 153.61 26.57 153.95 27.95 154.3 28.9 154.65 28.79 155 29.85 155.35 29.74 155.7 28.69 156.05 28.05 156.4 27.52 156.75 27.21 157.1 29 157.45 28.26 157.79 28.9 158.14 27.95 158.49 27.74 158.84 29.11 159.19 27.84 159.54 27.74 159.89 27.52 160.24 27.21 160.59 25.94 160.94 26.57 161.29 26.36 161.64 25.2 161.98 24.77 162.33 25.3 162.68 24.03 163.03 24.46 163.38 23.72 163.73 22.24 164.08 22.24 164.43 23.5 164.78 24.88 165.13 25.51 165.48 26.89 165.83 26.04 166.17 25.51 166.52 23.93 166.87 24.46 167.22 23.93 167.57 22.76 167.92 25.09 168.27 26.78 168.62 27.31 168.97 26.99 169.32 26.36 169.67 27.95 170.01 28.69 170.36 29.53 170.71 29.74 171.06 30.48 171.41 30.59 171.76 31.44 172.11 31.44 172.46 31.33 172.81 31.23 173.16 31.86 173.51 32.71 173.86 33.34 174.2 34.82 174.55 34.93 174.9 34.72 175.25 34.19 175.6 34.19 175.95 33.76 176.3 33.34 176.65 32.39 177 30.91 177.35 28.79 177.7 27.21 178.04 26.36 178.39 27.74 178.74 26.68 179.09 27.1 179.44 28.69 179.79 28.37 180.14 27.42 180.49 29.22 180.84 29.32 181.19 27.95 181.54 26.89 181.89 26.89 182.23 27.52 182.58 26.04 182.93 25.94 183.28 26.36 183.63 27.1 183.98 26.57 184.33 27.74 184.68 28.58 185.03 28.79 185.38 28.79 185.73 28.26 186.08 28.9 186.42 31.86 186.77 32.49 187.12 31.44 187.47 31.54 187.82 31.75 188.17 32.28 188.52 31.86 188.87 32.81 189.22 33.34 189.57 33.66 189.92 33.87 190.26 33.45 190.61 33.55 190.96 33.02 191.31 34.4 191.66 34.93 192.01 34.5 192.36 35.98 192.71 35.98 193.06 36.3 193.41 37.25 193.76 37.78 194.11 37.46 194.45 39.26 194.8 38.52 195.15 38.31 195.5 36.94 195.85 36.51 196.2 35.88"/>
      </g>
      <g stroke-width="0.3" fill="#000000" fill-opacity="0.000" class="geometry" stroke-dasharray="none" stroke="#F46D43" id="img-ac3abf9d-37">
        <path fill="none" d="M21.98,33.76 L 22.33 33.87 22.68 35.67 23.03 33.34 23.38 33.97 23.73 34.19 24.08 34.5 24.42 33.97 24.77 32.28 25.12 30.7 25.47 32.92 25.82 31.01 26.17 30.7 26.52 31.23 26.87 29.32 27.22 29 27.57 28.69 27.92 29.53 28.27 28.69 28.61 27.74 28.96 29.11 29.31 28.69 29.66 28.79 30.01 28.05 30.36 29.53 30.71 28.69 31.06 29.11 31.41 26.78 31.76 24.46 32.11 24.67 32.45 24.77 32.8 25.2 33.15 24.35 33.5 24.46 33.85 24.14 34.2 25.3 34.55 27.31 34.9 27.95 35.25 26.89 35.6 27.52 35.95 26.68 36.3 26.57 36.64 25.94 36.99 26.25 37.34 26.25 37.69 25.2 38.04 24.88 38.39 23.5 38.74 22.55 39.09 22.76 39.44 21.92 39.79 21.18 40.14 22.66 40.49 24.56 40.83 23.61 41.18 23.93 41.53 23.72 41.88 23.61 42.23 22.76 42.58 23.4 42.93 23.4 43.28 22.45 43.63 23.72 43.98 24.56 44.33 25.2 44.67 24.88 45.02 25.09 45.37 24.14 45.72 24.99 46.07 24.99 46.42 23.82 46.77 24.99 47.12 26.25 47.47 26.04 47.82 26.25 48.17 25.51 48.52 26.15 48.86 25.2 49.21 24.88 49.56 23.08 49.91 24.14 50.26 23.93 50.61 23.19 50.96 22.76 51.31 23.19 51.66 23.93 52.01 23.82 52.36 23.61 52.7 23.29 53.05 24.77 53.4 25.51 53.75 24.67 54.1 24.67 54.45 23.72 54.8 24.56 55.15 24.56 55.5 24.67 55.85 25.83 56.2 25.83 56.55 26.04 56.89 25.94 57.24 26.89 57.59 25.62 57.94 24.25 58.29 24.35 58.64 24.56 58.99 24.77 59.34 22.55 59.69 21.81 60.04 21.71 60.39 20.76 60.73 20.65 61.08 19.8 61.43 19.91 61.78 20.33 62.13 21.18 62.48 20.54 62.83 20.12 63.18 20.33 63.53 21.18 63.88 19.91 64.23 20.33 64.58 20.23 64.92 22.66 65.27 22.76 65.62 21.39 65.97 20.86 66.32 20.76 66.67 21.18 67.02 21.07 67.37 21.39 67.72 20.33 68.07 21.5 68.42 21.28 68.77 21.07 69.11 21.18 69.46 21.6 69.81 20.86 70.16 20.97 70.51 20.33 70.86 20.54 71.21 20.86 71.56 21.39 71.91 20.86 72.26 20.65 72.61 19.17 72.95 18.43 73.3 19.06 73.65 20.12 74 20.23 74.35 20.54 74.7 19.7 75.05 19.27 75.4 19.17 75.75 19.27 76.1 19.06 76.45 18.64 76.8 20.76 77.14 21.5 77.49 22.13 77.84 22.13 78.19 23.4 78.54 22.87 78.89 21.71 79.24 23.61 79.59 22.98 79.94 24.25 80.29 23.5 80.64 23.82 80.98 22.98 81.33 24.77 81.68 25.73 82.03 27.1 82.38 26.47 82.73 25.83 83.08 25.51 83.43 25.51 83.78 25.94 84.13 26.68 84.48 26.57 84.83 27.84 85.17 27.74 85.52 27.74 85.87 28.58 86.22 28.58 86.57 29 86.92 30.06 87.27 29.74 87.62 29.64 87.97 27.1 88.32 28.16 88.67 28.48 89.02 29.32 89.36 30.27 89.71 28.16 90.06 27.42 90.41 26.78 90.76 27.21 91.11 27.84 91.46 27.1 91.81 27.21 92.16 26.99 92.51 26.99 92.86 27.63 93.2 27.74 93.55 26.99 93.9 26.89 94.25 29 94.6 28.58 94.95 29.64 95.3 28.79 95.65 28.79 96 28.05 96.35 27.42 96.7 26.15 97.05 26.25 97.39 26.15 97.74 26.36 98.09 26.89 98.44 28.05 98.79 28.16 99.14 27.42 99.49 28.37 99.84 29.74 100.19 30.06 100.54 29.32 100.89 29.32 101.23 30.91 101.58 30.27 101.93 29.96 102.28 28.48 102.63 27.21 102.98 27.52 103.33 27.42 103.68 27.21 104.03 27.21 104.38 25.3 104.73 24.46 105.08 24.67 105.42 25.2 105.77 27.31 106.12 26.04 106.47 25.94 106.82 25.3 107.17 24.77 107.52 24.88 107.87 26.57 108.22 26.68 108.57 28.05 108.92 27.42 109.26 27.21 109.61 27.95 109.96 28.05 110.31 28.48 110.66 27.42 111.01 25.73 111.36 26.15 111.71 27.31 112.06 27.63 112.41 28.26 112.76 28.05 113.11 29.85 113.45 30.48 113.8 30.06 114.15 30.59 114.5 30.27 114.85 31.86 115.2 31.54 115.55 32.39 115.9 32.81 116.25 32.71 116.6 31.75 116.95 32.92 117.3 30.7 117.64 30.17 117.99 32.28 118.34 32.07 118.69 30.48 119.04 31.65 119.39 33.02 119.74 33.02 120.09 33.76 120.44 32.81 120.79 33.02 121.14 31.54 121.48 30.06 121.83 32.07 122.18 29.85 122.53 28.58 122.88 29.32 123.23 30.7 123.58 30.8 123.93 29.64 124.28 28.69 124.63 27.84 124.98 29 125.33 26.99 125.67 26.68 126.02 28.69 126.37 29.22 126.72 30.27 127.07 31.54 127.42 33.23 127.77 34.72 128.12 35.03 128.47 35.67 128.82 35.03 129.17 35.67 129.51 34.29 129.86 33.87 130.21 32.6 130.56 30.06 130.91 28.48 131.26 27.63 131.61 26.99 131.96 28.05 132.31 27.31 132.66 28.69 133.01 27.31 133.36 27.42 133.7 27.63 134.05 29.11 134.4 29.32 134.75 28.48 135.1 28.26 135.45 27.74 135.8 27.84 136.15 27.63 136.5 28.58 136.85 29.22 137.2 29.74 137.55 31.01 137.89 31.75 138.24 33.66 138.59 34.4 138.94 34.93 139.29 33.97 139.64 34.82 139.99 33.23 140.34 33.13 140.69 33.87 141.04 31.97 141.39 30.7 141.73 30.8 142.08 32.6 142.43 30.8 142.78 31.01 143.13 31.97 143.48 30.8 143.83 29.22 144.18 27.42 144.53 26.99 144.88 26.89 145.23 27.84 145.58 27.52 145.92 27.42 146.27 27.21 146.62 27.84 146.97 26.99 147.32 26.47 147.67 26.36 148.02 26.89 148.37 27.42 148.72 25.09 149.07 26.36 149.42 29.22 149.76 28.58 150.11 28.58 150.46 29.96 150.81 29.32 151.16 29.96 151.51 28.79 151.86 30.17 152.21 30.59 152.56 31.12 152.91 32.71 153.26 33.23 153.61 31.23 153.95 31.75 154.3 31.97 154.65 31.65 155 33.45 155.35 32.18 155.7 32.39 156.05 32.6 156.4 35.35 156.75 35.46 157.1 35.98 157.45 35.24 157.79 35.35 158.14 35.35 158.49 35.67 158.84 36.83 159.19 36.2 159.54 37.89 159.89 37.46 160.24 37.46 160.59 38.21 160.94 38.42 161.29 38.31 161.64 38.95 161.98 39.05 162.33 39.9 162.68 38.1 163.03 37.15 163.38 38.31 163.73 37.57 164.08 38.31 164.43 38.52 164.78 38.31 165.13 36.41 165.48 37.57 165.83 37.46 166.17 38.42 166.52 38.84 166.87 37.99 167.22 36.72 167.57 36.41 167.92 37.57 168.27 36.3 168.62 34.93 168.97 35.77 169.32 35.14 169.67 34.93 170.01 34.29 170.36 34.5 170.71 34.61 171.06 34.93 171.41 34.5 171.76 35.14 172.11 34.5 172.46 33.87 172.81 32.49 173.16 31.86 173.51 32.28 173.86 31.97 174.2 32.39 174.55 30.8 174.9 31.97 175.25 30.48 175.6 31.65 175.95 29.74 176.3 31.12 176.65 31.65 177 32.18 177.35 31.65 177.7 31.33 178.04 31.97 178.39 31.86 178.74 33.13 179.09 32.92 179.44 33.23 179.79 32.71 180.14 33.23 180.49 34.61 180.84 34.93 181.19 35.98 181.54 35.77 181.89 35.03 182.23 35.24 182.58 34.61 182.93 35.14 183.28 36.62 183.63 35.67 183.98 37.04 184.33 37.15 184.68 36.2 185.03 36.83 185.38 36.94 185.73 38.1 186.08 38.21 186.42 37.78 186.77 37.68 187.12 37.78 187.47 37.15 187.82 36.09 188.17 37.15 188.52 38.31 188.87 39.37 189.22 39.9 189.57 40.32 189.92 40.85 190.26 42.01 190.61 41.91 190.96 43.07 191.31 44.13 191.66 43.07 192.01 41.91 192.36 43.28 192.71 44.44 193.06 44.13 193.41 45.4 193.76 43.6 194.11 44.34 194.45 45.71 194.8 45.61 195.15 46.35 195.5 44.55 195.85 43.81 196.2 43.18"/>
      </g>
      <g stroke-width="0.3" fill="#000000" fill-opacity="0.000" class="geometry" stroke-dasharray="none" stroke="#D53E4F" id="img-ac3abf9d-38">
        <path fill="none" d="M21.98,33.76 L 22.33 34.82 22.68 33.55 23.03 34.29 23.38 33.13 23.73 33.23 24.08 33.45 24.42 33.97 24.77 32.81 25.12 32.92 25.47 31.86 25.82 32.28 26.17 33.34 26.52 31.86 26.87 33.02 27.22 31.65 27.57 31.97 27.92 33.34 28.27 33.13 28.61 34.72 28.96 35.03 29.31 35.03 29.66 35.24 30.01 34.5 30.36 33.76 30.71 33.76 31.06 34.61 31.41 32.39 31.76 31.54 32.11 31.86 32.45 31.12 32.8 32.18 33.15 32.92 33.5 32.18 33.85 32.71 34.2 34.19 34.55 32.81 34.9 31.01 35.25 31.33 35.6 32.28 35.95 32.92 36.3 30.38 36.64 30.17 36.99 31.12 37.34 29.32 37.69 31.01 38.04 31.75 38.39 31.86 38.74 33.87 39.09 35.14 39.44 35.46 39.79 37.25 40.14 37.04 40.49 35.56 40.83 35.46 41.18 35.24 41.53 35.98 41.88 36.62 42.23 36.41 42.58 35.46 42.93 34.82 43.28 34.5 43.63 35.14 43.98 34.72 44.33 35.03 44.67 37.99 45.02 35.03 45.37 34.4 45.72 32.71 46.07 32.6 46.42 33.13 46.77 33.23 47.12 33.55 47.47 33.45 47.82 35.46 48.17 37.04 48.52 36.83 48.86 37.36 49.21 37.78 49.56 37.36 49.91 36.72 50.26 38.95 50.61 38.84 50.96 40.21 51.31 41.7 51.66 42.12 52.01 42.65 52.36 43.18 52.7 45.29 53.05 44.97 53.4 46.24 53.75 46.45 54.1 46.14 54.45 46.35 54.8 46.56 55.15 46.45 55.5 45.93 55.85 44.34 56.2 42.65 56.55 42.33 56.89 41.59 57.24 43.18 57.59 44.23 57.94 44.44 58.29 44.23 58.64 45.19 58.99 45.93 59.34 46.77 59.69 46.14 60.04 45.93 60.39 44.55 60.73 44.87 61.08 44.55 61.43 44.87 61.78 45.08 62.13 44.55 62.48 43.92 62.83 44.66 63.18 44.66 63.53 44.23 63.88 44.23 64.23 43.49 64.58 42.54 64.92 42.75 65.27 42.01 65.62 41.06 65.97 40.95 66.32 41.38 66.67 41.38 67.02 42.01 67.37 40.32 67.72 42.22 68.07 41.91 68.42 42.33 68.77 43.81 69.11 45.29 69.46 46.98 69.81 49.42 70.16 49.84 70.51 50.26 70.86 50.47 71.21 49.84 71.56 50.37 71.91 50.47 72.26 50.58 72.61 50.9 72.95 51.42 73.3 51.32 73.65 50.9 74 51.64 74.35 51.42 74.7 51.85 75.05 51.32 75.4 51.11 75.75 51.11 76.1 50.58 76.45 50.9 76.8 50.68 77.14 51.21 77.49 51.21 77.84 50.58 78.19 50.9 78.54 50.26 78.89 49.94 79.24 49.84 79.59 51.53 79.94 51.32 80.29 52.27 80.64 51 80.98 51.32 81.33 52.17 81.68 51.64 82.03 50.68 82.38 50.47 82.73 50.37 83.08 50.68 83.43 50.9 83.78 51.11 84.13 50.68 84.48 50.47 84.83 50.9 85.17 51 85.52 49.31 85.87 49.52 86.22 51 86.57 51 86.92 51.11 87.27 51.42 87.62 50.37 87.97 50.16 88.32 49.73 88.67 47.93 89.02 48.25 89.36 48.46 89.71 48.36 90.06 48.15 90.41 49.2 90.76 47.83 91.11 48.46 91.46 47.19 91.81 47.3 92.16 45.71 92.51 46.14 92.86 46.67 93.2 44.66 93.55 43.81 93.9 44.97 94.25 43.28 94.6 44.13 94.95 43.49 95.3 42.75 95.65 44.34 96 44.23 96.35 43.39 96.7 43.49 97.05 44.97 97.39 44.66 97.74 45.19 98.09 46.45 98.44 45.19 98.79 44.02 99.14 43.18 99.49 43.81 99.84 44.34 100.19 42.96 100.54 43.49 100.89 43.81 101.23 42.54 101.58 42.12 101.93 44.02 102.28 43.92 102.63 43.81 102.98 46.24 103.33 46.35 103.68 45.19 104.03 44.55 104.38 43.07 104.73 42.22 105.08 42.22 105.42 41.27 105.77 40 106.12 42.01 106.47 43.18 106.82 44.97 107.17 44.13 107.52 45.08 107.87 44.97 108.22 44.66 108.57 44.76 108.92 46.88 109.26 46.35 109.61 45.5 109.96 44.44 110.31 45.08 110.66 44.34 111.01 43.81 111.36 44.13 111.71 43.49 112.06 44.87 112.41 46.14 112.76 47.72 113.11 46.88 113.45 45.93 113.8 47.62 114.15 48.15 114.5 48.46 114.85 47.93 115.2 47.83 115.55 46.98 115.9 48.46 116.25 48.04 116.6 48.04 116.95 47.72 117.3 47.62 117.64 49.2 117.99 48.68 118.34 49.1 118.69 49.94 119.04 49.84 119.39 50.58 119.74 50.47 120.09 50.79 120.44 50.9 120.79 50.58 121.14 50.9 121.48 50.58 121.83 51.32 122.18 51.42 122.53 51.64 122.88 51.53 123.23 52.06 123.58 51.53 123.93 52.17 124.28 51.42 124.63 51.32 124.98 49.94 125.33 49.52 125.67 50.47 126.02 50.37 126.37 49.42 126.72 48.36 127.07 48.89 127.42 48.04 127.77 48.36 128.12 48.15 128.47 48.04 128.82 48.78 129.17 48.04 129.51 48.68 129.86 47.41 130.21 45.93 130.56 45.93 130.91 46.88 131.26 48.15 131.61 48.68 131.96 48.78 132.31 48.46 132.66 49.52 133.01 48.68 133.36 47.62 133.7 46.77 134.05 46.03 134.4 45.29 134.75 46.67 135.1 45.93 135.45 46.14 135.8 45.82 136.15 47.09 136.5 46.88 136.85 45.71 137.2 45.61 137.55 46.45 137.89 47.09 138.24 45.93 138.59 45.4 138.94 44.76 139.29 44.34 139.64 45.82 139.99 45.29 140.34 46.56 140.69 45.82 141.04 46.88 141.39 45.29 141.73 45.29 142.08 44.66 142.43 44.23 142.78 43.49 143.13 44.87 143.48 44.97 143.83 44.13 144.18 42.33 144.53 42.33 144.88 42.65 145.23 42.44 145.58 42.65 145.92 40.53 146.27 41.91 146.62 41.7 146.97 42.54 147.32 41.48 147.67 41.48 148.02 39.79 148.37 38.73 148.72 38.52 149.07 38.84 149.42 37.15 149.76 37.89 150.11 37.68 150.46 38.1 150.81 38.1 151.16 39.47 151.51 38.73 151.86 38.95 152.21 36.94 152.56 37.99 152.91 35.98 153.26 35.56 153.61 35.67 153.95 36.2 154.3 35.46 154.65 33.23 155 33.34 155.35 32.28 155.7 31.86 156.05 32.18 156.4 31.65 156.75 32.39 157.1 31.86 157.45 34.19 157.79 34.08 158.14 33.34 158.49 33.97 158.84 34.5 159.19 33.55 159.54 33.76 159.89 32.81 160.24 33.45 160.59 32.07 160.94 31.54 161.29 30.27 161.64 29.85 161.98 28.79 162.33 28.79 162.68 28.05 163.03 28.48 163.38 27.84 163.73 27.52 164.08 27.1 164.43 28.9 164.78 29.64 165.13 29.64 165.48 28.05 165.83 29.53 166.17 29.11 166.52 28.26 166.87 30.38 167.22 29.64 167.57 29.32 167.92 29.64 168.27 31.01 168.62 29.64 168.97 30.91 169.32 30.91 169.67 28.79 170.01 29.53 170.36 29.53 170.71 29.53 171.06 29.53 171.41 29.96 171.76 30.91 172.11 31.33 172.46 30.7 172.81 29.64 173.16 30.7 173.51 29.11 173.86 30.91 174.2 31.33 174.55 30.7 174.9 30.7 175.25 30.8 175.6 29.96 175.95 29.22 176.3 27.95 176.65 27.31 177 29.22 177.35 29.96 177.7 31.54 178.04 29.32 178.39 28.48 178.74 28.79 179.09 28.58 179.44 27.74 179.79 28.16 180.14 28.16 180.49 27.42 180.84 28.37 181.19 29.64 181.54 28.48 181.89 27.63 182.23 26.99 182.58 27.1 182.93 25.51 183.28 25.83 183.63 25.73 183.98 27.84 184.33 29.32 184.68 29 185.03 28.79 185.38 29.32 185.73 30.17 186.08 29.11 186.42 29.43 186.77 28.16 187.12 26.68 187.47 27.84 187.82 27.21 188.17 27.31 188.52 28.48 188.87 27.52 189.22 27.21 189.57 28.58 189.92 26.68 190.26 25.94 190.61 27.84 190.96 28.16 191.31 29.53 191.66 28.37 192.01 29.74 192.36 30.17 192.71 30.7 193.06 30.59 193.41 30.27 193.76 30.38 194.11 30.06 194.45 31.23 194.8 29.64 195.15 27.74 195.5 28.16 195.85 27.31 196.2 26.36"/>
      </g>
      <g stroke-width="0.3" fill="#000000" fill-opacity="0.000" class="geometry" stroke-dasharray="none" stroke="#9E0142" id="img-ac3abf9d-39">
        <path fill="none" d="M21.98,33.76 L 22.33 33.34 22.68 32.81 23.03 33.45 23.38 32.07 23.73 32.92 24.08 31.33 24.42 32.81 24.77 33.23 25.12 33.66 25.47 34.93 25.82 32.71 26.17 33.45 26.52 33.45 26.87 33.55 27.22 32.6 27.57 32.18 27.92 31.65 28.27 31.44 28.61 33.13 28.96 33.66 29.31 33.87 29.66 33.76 30.01 33.34 30.36 32.92 30.71 31.86 31.06 32.28 31.41 32.81 31.76 32.81 32.11 35.67 32.45 34.29 32.8 34.4 33.15 32.28 33.5 32.07 33.85 32.18 34.2 32.71 34.55 32.81 34.9 32.6 35.25 31.86 35.6 32.18 35.95 31.97 36.3 29.96 36.64 30.27 36.99 30.27 37.34 30.38 37.69 29.64 38.04 28.37 38.39 29.96 38.74 29.85 39.09 33.13 39.44 34.82 39.79 33.02 40.14 33.87 40.49 33.66 40.83 32.49 41.18 32.71 41.53 31.97 41.88 32.49 42.23 30.7 42.58 29.53 42.93 30.27 43.28 28.79 43.63 29.64 43.98 30.17 44.33 31.12 44.67 33.13 45.02 33.66 45.37 33.45 45.72 31.86 46.07 33.13 46.42 33.66 46.77 34.5 47.12 33.97 47.47 36.3 47.82 36.62 48.17 37.78 48.52 37.46 48.86 37.78 49.21 36.41 49.56 37.25 49.91 37.57 50.26 38.42 50.61 37.46 50.96 37.89 51.31 35.88 51.66 35.03 52.01 37.04 52.36 37.36 52.7 38.63 53.05 38.73 53.4 37.78 53.75 38.63 54.1 38.52 54.45 38.21 54.8 36.94 55.15 35.03 55.5 34.29 55.85 35.14 56.2 35.03 56.55 34.72 56.89 33.55 57.24 31.65 57.59 31.75 57.94 30.8 58.29 31.33 58.64 31.33 58.99 31.33 59.34 30.06 59.69 28.16 60.04 28.48 60.39 29.32 60.73 28.16 61.08 28.48 61.43 28.05 61.78 28.05 62.13 28.79 62.48 28.37 62.83 26.25 63.18 25.62 63.53 26.47 63.88 26.36 64.23 27.1 64.58 27.1 64.92 26.99 65.27 27.74 65.62 28.48 65.97 27.95 66.32 27.21 66.67 28.16 67.02 28.48 67.37 28.9 67.72 27.74 68.07 25.2 68.42 25.09 68.77 24.46 69.11 25.2 69.46 24.56 69.81 24.14 70.16 23.93 70.51 23.61 70.86 24.67 71.21 23.61 71.56 24.14 71.91 24.67 72.26 24.99 72.61 25.73 72.95 26.68 73.3 24.25 73.65 24.77 74 24.99 74.35 25.73 74.7 24.56 75.05 25.3 75.4 26.15 75.75 27.1 76.1 28.16 76.45 28.69 76.8 29.11 77.14 28.16 77.49 28.58 77.84 28.37 78.19 28.48 78.54 28.37 78.89 28.79 79.24 28.16 79.59 26.68 79.94 27.21 80.29 27.42 80.64 27.95 80.98 29.53 81.33 30.59 81.68 30.59 82.03 31.44 82.38 30.38 82.73 30.59 83.08 31.12 83.43 31.44 83.78 31.65 84.13 33.34 84.48 32.39 84.83 31.65 85.17 32.28 85.52 31.12 85.87 31.75 86.22 32.92 86.57 35.14 86.92 34.72 87.27 34.72 87.62 36.72 87.97 34.5 88.32 33.23 88.67 33.87 89.02 31.97 89.36 33.87 89.71 35.03 90.06 35.46 90.41 36.2 90.76 35.67 91.11 35.98 91.46 34.82 91.81 34.93 92.16 35.88 92.51 36.51 92.86 37.15 93.2 36.94 93.55 37.46 93.9 36.94 94.25 37.57 94.6 36.41 94.95 37.78 95.3 38.21 95.65 39.05 96 37.68 96.35 37.46 96.7 37.25 97.05 37.36 97.39 36.41 97.74 35.67 98.09 35.67 98.44 35.67 98.79 38.84 99.14 37.04 99.49 37.99 99.84 37.04 100.19 36.62 100.54 35.24 100.89 35.77 101.23 34.61 101.58 34.4 101.93 34.4 102.28 34.93 102.63 34.19 102.98 33.45 103.33 35.14 103.68 35.35 104.03 36.72 104.38 37.78 104.73 40.11 105.08 39.79 105.42 38.21 105.77 38.73 106.12 38.63 106.47 39.37 106.82 40 107.17 38.1 107.52 37.99 107.87 37.36 108.22 38.63 108.57 38.95 108.92 39.9 109.26 39.37 109.61 39.69 109.96 40.64 110.31 39.79 110.66 41.7 111.01 42.22 111.36 41.17 111.71 40.85 112.06 40.95 112.41 40.74 112.76 41.06 113.11 40 113.45 40.21 113.8 40.32 114.15 39.69 114.5 39.16 114.85 38.95 115.2 38.63 115.55 40.11 115.9 39.58 116.25 38.21 116.6 39.58 116.95 39.9 117.3 39.05 117.64 37.68 117.99 37.25 118.34 38.42 118.69 38.84 119.04 37.36 119.39 36.2 119.74 36.51 120.09 35.14 120.44 35.77 120.79 34.4 121.14 33.97 121.48 34.5 121.83 33.02 122.18 34.93 122.53 35.35 122.88 36.62 123.23 37.25 123.58 37.04 123.93 37.36 124.28 36.3 124.63 37.25 124.98 38.52 125.33 37.78 125.67 35.67 126.02 36.09 126.37 35.03 126.72 35.56 127.07 36.83 127.42 37.99 127.77 38.21 128.12 38.73 128.47 38.84 128.82 39.69 129.17 40.53 129.51 39.16 129.86 37.57 130.21 37.68 130.56 38.52 130.91 39.69 131.26 40.43 131.61 40.43 131.96 40 132.31 40.74 132.66 40.21 133.01 40.95 133.36 40.32 133.7 39.79 134.05 39.9 134.4 40.11 134.75 39.47 135.1 39.26 135.45 39.79 135.8 40.64 136.15 40.21 136.5 41.38 136.85 40.95 137.2 40.95 137.55 40.85 137.89 40.53 138.24 39.69 138.59 39.37 138.94 39.47 139.29 38.42 139.64 37.57 139.99 37.68 140.34 38.31 140.69 37.57 141.04 38.31 141.39 36.51 141.73 36.41 142.08 35.46 142.43 35.03 142.78 36.2 143.13 35.14 143.48 34.93 143.83 34.72 144.18 36.3 144.53 37.68 144.88 38.52 145.23 36.3 145.58 36.2 145.92 38.42 146.27 37.89 146.62 37.99 146.97 39.05 147.32 41.38 147.67 41.91 148.02 43.6 148.37 43.7 148.72 44.02 149.07 44.02 149.42 44.76 149.76 44.87 150.11 43.6 150.46 43.92 150.81 43.39 151.16 42.54 151.51 43.18 151.86 44.34 152.21 44.97 152.56 42.33 152.91 42.75 153.26 43.49 153.61 44.66 153.95 44.55 154.3 44.55 154.65 44.34 155 44.97 155.35 46.45 155.7 47.62 156.05 46.88 156.4 47.19 156.75 47.41 157.1 46.56 157.45 46.98 157.79 47.19 158.14 47.83 158.49 47.72 158.84 47.09 159.19 46.88 159.54 46.03 159.89 46.56 160.24 45.61 160.59 45.93 160.94 47.09 161.29 46.56 161.64 46.03 161.98 44.23 162.33 43.39 162.68 44.13 163.03 44.55 163.38 43.7 163.73 40.95 164.08 41.17 164.43 42.12 164.78 42.12 165.13 42.44 165.48 42.96 165.83 43.92 166.17 42.96 166.52 43.6 166.87 41.7 167.22 44.76 167.57 44.34 167.92 43.49 168.27 44.34 168.62 44.66 168.97 43.92 169.32 44.13 169.67 43.92 170.01 43.6 170.36 45.08 170.71 44.02 171.06 44.34 171.41 44.23 171.76 44.87 172.11 43.49 172.46 44.87 172.81 44.97 173.16 45.93 173.51 45.19 173.86 43.49 174.2 43.49 174.55 43.49 174.9 43.39 175.25 42.86 175.6 43.49 175.95 44.44 176.3 44.55 176.65 44.02 177 44.87 177.35 44.76 177.7 46.45 178.04 46.56 178.39 45.93 178.74 46.56 179.09 46.14 179.44 45.71 179.79 47.09 180.14 46.56 180.49 46.77 180.84 46.03 181.19 45.61 181.54 45.61 181.89 46.03 182.23 44.34 182.58 44.44 182.93 44.13 183.28 44.97 183.63 45.61 183.98 43.7 184.33 44.02 184.68 44.55 185.03 45.19 185.38 44.87 185.73 45.29 186.08 45.93 186.42 44.02 186.77 43.7 187.12 44.34 187.47 42.86 187.82 44.13 188.17 43.39 188.52 44.13 188.87 44.13 189.22 42.54 189.57 41.27 189.92 41.91 190.26 41.48 190.61 42.01 190.96 42.22 191.31 43.07 191.66 43.49 192.01 43.18 192.36 45.82 192.71 46.56 193.06 46.88 193.41 47.83 193.76 48.46 194.11 49.42 194.45 50.68 194.8 50.37 195.15 50.79 195.5 51 195.85 51.21 196.2 51.42"/>
      </g>
    </g>
  </g>
</g>
  <g class="guide ylabels" font-size="2.82" font-family="'PT Sans Caption','Helvetica Neue','Helvetica',sans-serif" fill="#000000" id="img-ac3abf9d-40">
    <text x="18.63" y="54.91" text-anchor="end" dy="0.35em">0</text>
    <text x="18.63" y="44.34" text-anchor="end" dy="0.35em">100</text>
    <text x="18.63" y="33.76" text-anchor="end" dy="0.35em">200</text>
    <text x="18.63" y="23.19" text-anchor="end" dy="0.35em">300</text>
    <text x="18.63" y="12.61" text-anchor="end" dy="0.35em">400</text>
  </g>
  <g font-size="3.88" font-family="'PT Sans','Helvetica Neue','Helvetica',sans-serif" fill="#000000" stroke="#000000" stroke-opacity="0.000" id="img-ac3abf9d-41">
    <text x="8.81" y="31.76" text-anchor="middle" dy="0.35em" transform="rotate(-90, 8.81, 33.76)">population size</text>
  </g>
  <g font-size="3.88" font-family="'PT Sans','Helvetica Neue','Helvetica',sans-serif" fill="#000000" stroke="#000000" stroke-opacity="0.000" id="img-ac3abf9d-42">
    <text x="108.92" y="5" text-anchor="middle" dy="0.6em">genetic drift with mutationrate  = 0.001 </text>
  </g>
</g>
<defs>
  <clipPath id="img-ac3abf9d-8">
  <path d="M18.63,86.81 L 174.03 86.81 174.03 133.11 18.63 133.11" />
</clipPath>
  <clipPath id="img-ac3abf9d-24">
  <path d="M19.63,10.61 L 198.2 10.61 198.2 56.91 19.63 56.91" />
</clipPath>
</defs>
</svg>
