<?xml version="1.0" encoding="UTF-8"?>
<svg xmlns="http://www.w3.org/2000/svg"
     xmlns:xlink="http://www.w3.org/1999/xlink"
     xmlns:gadfly="http://www.gadflyjl.org/ns"
     version="1.2"
     width="203.2mm" height="152.4mm" viewBox="0 0 203.2 152.4"
     stroke="none"
     fill="#000000"
     stroke-width="0.3"
     font-size="3.88"
>
<g class="plotroot xscalable yscalable" id="img-786bb0d5-1">
  <g font-size="3.88" font-family="'PT Sans','Helvetica Neue','Helvetica',sans-serif" fill="#000000" stroke="#000000" stroke-opacity="0.000" id="img-786bb0d5-2">
    <text x="108.92" y="140.79" text-anchor="middle" dy="0.6em">generation number</text>
  </g>
  <g class="guide xlabels" font-size="2.82" font-family="'PT Sans Caption','Helvetica Neue','Helvetica',sans-serif" fill="#000000" id="img-786bb0d5-3">
    <text x="21.63" y="134.11" text-anchor="middle" dy="0.6em">0</text>
    <text x="56.55" y="134.11" text-anchor="middle" dy="0.6em">100</text>
    <text x="91.46" y="134.11" text-anchor="middle" dy="0.6em">200</text>
    <text x="126.37" y="134.11" text-anchor="middle" dy="0.6em">300</text>
    <text x="161.29" y="134.11" text-anchor="middle" dy="0.6em">400</text>
    <text x="196.2" y="134.11" text-anchor="middle" dy="0.6em">500</text>
  </g>
<g clip-path="url(#img-786bb0d5-4)">
  <g id="img-786bb0d5-5">
    <g pointer-events="visible" opacity="1" fill="#FFFFFF" stroke="#000000" stroke-opacity="0.000" class="guide background" id="img-786bb0d5-6">
      <rect x="19.63" y="10.61" width="178.57" height="122.5"/>
    </g>
    <g class="guide ygridlines xfixed" stroke-dasharray="0.5,0.5" stroke-width="0.2" stroke="#808080" id="img-786bb0d5-7">
      <path fill="none" d="M19.63,131.11 L 198.2 131.11"/>
      <path fill="none" d="M19.63,101.49 L 198.2 101.49"/>
      <path fill="none" d="M19.63,71.86 L 198.2 71.86"/>
      <path fill="none" d="M19.63,42.24 L 198.2 42.24"/>
      <path fill="none" d="M19.63,12.61 L 198.2 12.61"/>
    </g>
    <g class="guide xgridlines yfixed" stroke-dasharray="0.5,0.5" stroke-width="0.2" stroke="#808080" id="img-786bb0d5-8">
      <path fill="none" d="M21.63,10.61 L 21.63 133.11"/>
      <path fill="none" d="M56.55,10.61 L 56.55 133.11"/>
      <path fill="none" d="M91.46,10.61 L 91.46 133.11"/>
      <path fill="none" d="M126.37,10.61 L 126.37 133.11"/>
      <path fill="none" d="M161.29,10.61 L 161.29 133.11"/>
      <path fill="none" d="M196.2,10.61 L 196.2 133.11"/>
    </g>
    <g class="plotpanel" id="img-786bb0d5-9">
      <g stroke-width="0.3" fill="#000000" fill-opacity="0.000" class="geometry" stroke-dasharray="none" stroke="#3288BD" id="img-786bb0d5-10">
        <path fill="none" d="M21.98,71.86 L 22.33 75.71 22.68 68.6 23.03 68.6 23.38 72.46 23.73 71.86 24.08 66.83 24.42 68.31 24.77 70.09 25.12 67.72 25.47 66.53 25.82 71.27 26.17 73.34 26.52 70.68 26.87 69.79 27.22 71.57 27.57 70.68 27.92 66.83 28.27 63.86 28.61 67.72 28.96 68.9 29.31 68.9 29.66 70.38 30.01 73.05 30.36 73.34 30.71 71.86 31.06 73.64 31.41 77.79 31.76 77.79 32.11 77.79 32.45 75.71 32.8 76.01 33.15 76.01 33.5 73.94 33.85 78.97 34.2 70.97 34.55 65.94 34.9 70.38 35.25 70.38 35.6 68.9 35.95 67.12 36.3 72.75 36.64 80.45 36.99 76.6 37.34 73.34 37.69 71.27 38.04 73.05 38.39 70.97 38.74 68.31 39.09 71.57 39.44 75.12 39.79 81.05 40.14 82.23 40.49 84.01 40.83 85.19 41.18 84.01 41.53 83.42 41.88 81.94 42.23 81.34 42.58 75.12 42.93 76.9 43.28 76.6 43.63 76.31 43.98 74.83 44.33 74.23 44.67 79.86 45.02 82.53 45.37 84.01 45.72 84.31 46.07 81.64 46.42 84.9 46.77 83.71 47.12 87.86 47.47 83.71 47.82 82.23 48.17 81.34 48.52 79.86 48.86 81.05 49.21 88.16 49.56 89.94 49.91 93.49 50.26 91.12 50.61 94.68 50.96 98.23 51.31 99.12 51.66 102.38 52.01 99.71 52.36 98.23 52.7 94.97 53.05 96.16 53.4 101.79 53.75 100.9 54.1 99.71 54.45 99.71 54.8 98.82 55.15 103.27 55.5 104.16 55.85 103.86 56.2 104.16 56.55 101.19 56.89 105.04 57.24 101.79 57.59 101.19 57.94 100.9 58.29 100.3 58.64 99.71 58.99 97.34 59.34 97.64 59.69 92.6 60.04 87.27 60.39 91.42 60.73 90.53 61.08 88.16 61.43 92.31 61.78 90.23 62.13 89.05 62.48 90.53 62.83 89.34 63.18 85.79 63.53 82.53 63.88 83.42 64.23 85.49 64.58 90.82 64.92 86.97 65.27 88.45 65.62 90.53 65.97 87.57 66.32 91.71 66.67 91.12 67.02 88.45 67.37 89.34 67.72 88.45 68.07 93.19 68.42 89.94 68.77 91.71 69.11 94.68 69.46 93.79 69.81 102.08 70.16 102.38 70.51 102.97 70.86 102.67 71.21 97.34 71.56 96.75 71.91 93.19 72.26 94.97 72.61 99.12 72.95 93.19 73.3 95.86 73.65 97.34 74 93.79 74.35 90.23 74.7 92.9 75.05 93.49 75.4 93.79 75.75 95.27 76.1 97.05 76.45 92.9 76.8 92.9 77.14 95.56 77.49 94.38 77.84 88.75 78.19 87.27 78.54 80.45 78.89 78.97 79.24 80.45 79.59 78.38 79.94 80.75 80.29 79.86 80.64 79.57 80.98 77.79 81.33 75.71 81.68 73.34 82.03 68.01 82.38 70.09 82.73 72.16 83.08 71.86 83.43 74.23 83.78 65.35 84.13 60.61 84.48 58.83 84.83 60.01 85.17 63.57 85.52 65.05 85.87 66.23 86.22 66.53 86.57 67.72 86.92 69.2 87.27 67.72 87.62 64.75 87.97 59.12 88.32 56.46 88.67 55.27 89.02 53.79 89.36 51.42 89.71 51.13 90.06 51.72 90.41 51.42 90.76 52.61 91.11 54.98 91.46 53.79 91.81 54.38 92.16 54.68 92.51 50.83 92.86 49.35 93.2 45.2 93.55 44.9 93.9 49.05 94.25 54.98 94.6 55.57 94.95 53.2 95.3 53.79 95.65 55.57 96 59.42 96.35 62.98 96.7 60.9 97.05 62.38 97.39 62.98 97.74 64.75 98.09 62.38 98.44 66.23 98.79 68.01 99.14 65.64 99.49 61.49 99.84 59.42 100.19 56.16 100.54 57.05 100.89 60.61 101.23 59.12 101.58 54.09 101.93 53.2 102.28 54.38 102.63 52.9 102.98 52.61 103.33 53.5 103.68 51.13 104.03 54.98 104.38 53.2 104.73 54.38 105.08 57.05 105.42 59.72 105.77 56.16 106.12 51.42 106.47 52.31 106.82 49.64 107.17 47.87 107.52 45.2 107.87 46.98 108.22 46.98 108.57 46.98 108.92 48.46 109.26 48.46 109.61 46.09 109.96 50.24 110.31 50.24 110.66 47.87 111.01 49.35 111.36 49.94 111.71 51.42 112.06 54.98 112.41 59.72 112.76 61.49 113.11 60.61 113.45 62.98 113.8 62.98 114.15 65.64 114.5 64.75 114.85 63.27 115.2 60.01 115.55 64.75 115.9 62.98 116.25 60.61 116.6 60.01 116.95 58.83 117.3 59.42 117.64 60.01 117.99 58.24 118.34 62.38 118.69 65.05 119.04 64.46 119.39 66.53 119.74 67.12 120.09 69.2 120.44 66.53 120.79 70.09 121.14 70.68 121.48 71.57 121.83 73.05 122.18 69.79 122.53 68.31 122.88 66.53 123.23 66.53 123.58 68.9 123.93 68.9 124.28 70.38 124.63 68.9 124.98 62.98 125.33 64.75 125.67 65.64 126.02 67.12 126.37 66.83 126.72 68.9 127.07 70.38 127.42 66.23 127.77 67.42 128.12 64.75 128.47 64.16 128.82 64.46 129.17 71.27 129.51 67.72 129.86 63.57 130.21 63.27 130.56 60.9 130.91 66.53 131.26 63.27 131.61 64.16 131.96 67.72 132.31 64.75 132.66 64.46 133.01 64.46 133.36 57.94 133.7 55.87 134.05 53.79 134.4 50.24 134.75 47.27 135.1 46.68 135.45 48.76 135.8 44.02 136.15 43.72 136.5 44.9 136.85 46.09 137.2 41.05 137.55 42.24 137.89 42.53 138.24 42.83 138.59 39.87 138.94 39.27 139.29 35.13 139.64 32.16 139.99 31.57 140.34 33.05 140.69 32.46 141.04 32.76 141.39 32.76 141.73 32.16 142.08 33.05 142.43 30.09 142.78 28.02 143.13 25.65 143.48 24.46 143.83 21.2 144.18 20.31 144.53 18.54 144.88 17.94 145.23 19.43 145.58 19.13 145.92 17.94 146.27 17.06 146.62 16.46 146.97 16.76 147.32 18.54 147.67 19.43 148.02 18.54 148.37 17.65 148.72 17.94 149.07 17.65 149.42 17.35 149.76 16.76 150.11 17.35 150.46 17.65 150.81 17.35 151.16 17.35 151.51 16.76 151.86 15.87 152.21 17.06 152.56 15.28 152.91 14.98 153.26 16.76 153.61 16.76 153.95 14.98 154.3 14.69 154.65 16.46 155 17.65 155.35 16.76 155.7 15.57 156.05 16.46 156.4 15.57 156.75 14.98 157.1 15.28 157.45 15.28 157.79 14.69 158.14 14.09 158.49 14.09 158.84 12.91 159.19 12.61 159.54 12.61 159.89 12.61 160.24 12.61 160.59 12.91 160.94 12.61 161.29 12.61 161.64 12.61 161.98 12.91 162.33 12.61 162.68 12.61 163.03 12.91 163.38 13.2 163.73 14.39 164.08 14.69 164.43 15.57 164.78 15.87 165.13 17.94 165.48 20.02 165.83 19.72 166.17 18.24 166.52 19.43 166.87 18.83 167.22 16.76 167.57 15.28 167.92 15.28 168.27 14.09 168.62 14.98 168.97 14.39 169.32 13.5 169.67 12.91 170.01 13.8 170.36 14.09 170.71 14.39 171.06 14.69 171.41 15.28 171.76 15.57 172.11 15.28 172.46 14.69 172.81 14.98 173.16 14.98 173.51 14.69 173.86 14.98 174.2 16.17 174.55 14.69 174.9 14.98 175.25 14.69 175.6 14.69 175.95 14.98 176.3 14.39 176.65 15.57 177 15.57 177.35 14.69 177.7 14.98 178.04 14.09 178.39 14.09 178.74 14.98 179.09 14.98 179.44 14.98 179.79 16.46 180.14 15.57 180.49 13.8 180.84 13.5 181.19 15.57 181.54 18.24 181.89 19.72 182.23 19.43 182.58 20.31 182.93 20.31 183.28 20.61 183.63 20.31 183.98 18.83 184.33 20.02 184.68 21.5 185.03 20.31 185.38 20.91 185.73 22.09 186.08 21.8 186.42 19.72 186.77 19.43 187.12 21.2 187.47 21.8 187.82 24.17 188.17 22.39 188.52 22.09 188.87 24.17 189.22 25.35 189.57 25.65 189.92 27.72 190.26 28.02 190.61 29.79 190.96 33.35 191.31 30.39 191.66 33.94 192.01 30.98 192.36 33.94 192.71 36.31 193.06 35.72 193.41 37.2 193.76 34.53 194.11 34.24 194.45 34.83 194.8 38.39 195.15 40.16 195.5 40.46 195.85 40.76 196.2 33.94"/>
      </g>
      <g stroke-width="0.3" fill="#000000" fill-opacity="0.000" class="geometry" stroke-dasharray="none" stroke="#66C2A5" id="img-786bb0d5-11">
        <path fill="none" d="M21.98,71.86 L 22.33 66.23 22.68 71.27 23.03 68.6 23.38 68.31 23.73 65.64 24.08 63.57 24.42 61.49 24.77 64.46 25.12 62.68 25.47 64.46 25.82 63.86 26.17 63.57 26.52 57.64 26.87 59.72 27.22 60.01 27.57 55.57 27.92 57.35 28.27 55.57 28.61 54.38 28.96 55.27 29.31 55.57 29.66 55.87 30.01 51.72 30.36 50.83 30.71 47.27 31.06 48.76 31.41 49.05 31.76 53.2 32.11 54.98 32.45 56.75 32.8 57.94 33.15 55.57 33.5 52.9 33.85 54.09 34.2 59.12 34.55 62.38 34.9 64.75 35.25 67.12 35.6 68.9 35.95 68.01 36.3 63.86 36.64 63.57 36.99 62.38 37.34 63.86 37.69 65.35 38.04 65.05 38.39 63.57 38.74 72.16 39.09 73.34 39.44 71.57 39.79 73.64 40.14 78.08 40.49 79.57 40.83 77.2 41.18 77.49 41.53 76.01 41.88 75.12 42.23 75.12 42.58 79.27 42.93 83.12 43.28 75.71 43.63 76.6 43.98 76.01 44.33 75.12 44.67 71.27 45.02 72.16 45.37 72.75 45.72 71.86 46.07 76.31 46.42 76.01 46.77 74.83 47.12 75.12 47.47 70.68 47.82 68.9 48.17 67.12 48.52 62.98 48.86 67.42 49.21 65.05 49.56 65.05 49.91 68.6 50.26 70.09 50.61 72.75 50.96 70.97 51.31 71.57 51.66 68.31 52.01 68.9 52.36 64.46 52.7 62.68 53.05 61.79 53.4 62.68 53.75 65.05 54.1 64.75 54.45 64.46 54.8 70.09 55.15 72.16 55.5 72.75 55.85 74.53 56.2 72.46 56.55 69.2 56.89 70.09 57.24 74.23 57.59 77.79 57.94 79.86 58.29 79.27 58.64 75.42 58.99 73.94 59.34 73.34 59.69 72.16 60.04 65.64 60.39 65.64 60.73 64.46 61.08 65.35 61.43 64.16 61.78 64.46 62.13 63.57 62.48 57.05 62.83 56.46 63.18 57.94 63.53 63.57 63.88 60.61 64.23 60.61 64.58 61.79 64.92 58.24 65.27 60.9 65.62 64.16 65.97 61.49 66.32 59.42 66.67 59.72 67.02 54.98 67.37 50.53 67.72 48.16 68.07 51.42 68.42 46.98 68.77 47.27 69.11 46.68 69.46 46.09 69.81 48.16 70.16 46.09 70.51 43.13 70.86 45.2 71.21 46.68 71.56 49.64 71.91 44.9 72.26 42.83 72.61 41.35 72.95 43.42 73.3 41.94 73.65 37.5 74 37.5 74.35 42.24 74.7 41.05 75.05 39.27 75.4 39.57 75.75 36.9 76.1 38.39 76.45 36.9 76.8 39.57 77.14 40.16 77.49 39.27 77.84 42.83 78.19 42.83 78.54 36.9 78.89 36.02 79.24 36.31 79.59 34.83 79.94 31.87 80.29 32.46 80.64 35.72 80.98 36.31 81.33 36.02 81.68 38.98 82.03 41.05 82.38 40.76 82.73 46.39 83.08 45.2 83.43 40.76 83.78 37.2 84.13 36.61 84.48 33.65 84.83 33.35 85.17 32.16 85.52 31.28 85.87 34.24 86.22 27.13 86.57 27.42 86.92 24.46 87.27 23.87 87.62 25.94 87.97 27.13 88.32 24.76 88.67 26.54 89.02 25.94 89.36 26.54 89.71 24.76 90.06 23.57 90.41 23.57 90.76 22.09 91.11 21.8 91.46 23.87 91.81 25.05 92.16 20.31 92.51 20.61 92.86 21.8 93.2 22.68 93.55 21.2 93.9 23.57 94.25 25.05 94.6 26.83 94.95 26.83 95.3 27.42 95.65 28.91 96 27.42 96.35 23.87 96.7 21.8 97.05 24.17 97.39 23.87 97.74 25.65 98.09 26.83 98.44 26.83 98.79 27.42 99.14 28.61 99.49 28.91 99.84 33.05 100.19 32.16 100.54 33.05 100.89 33.05 101.23 33.05 101.58 33.94 101.93 35.13 102.28 33.35 102.63 36.02 102.98 34.83 103.33 34.83 103.68 33.65 104.03 34.53 104.38 32.76 104.73 37.5 105.08 33.94 105.42 29.79 105.77 32.46 106.12 31.87 106.47 33.35 106.82 30.09 107.17 30.98 107.52 27.13 107.87 33.05 108.22 30.68 108.57 30.39 108.92 31.57 109.26 33.94 109.61 34.24 109.96 31.28 110.31 31.28 110.66 33.65 111.01 34.53 111.36 31.28 111.71 33.94 112.06 36.02 112.41 37.5 112.76 37.5 113.11 39.27 113.45 38.68 113.8 35.42 114.15 37.79 114.5 39.57 114.85 39.27 115.2 37.79 115.55 40.16 115.9 36.02 116.25 34.53 116.6 34.83 116.95 34.83 117.3 35.13 117.64 36.9 117.99 36.02 118.34 36.9 118.69 33.35 119.04 37.79 119.39 38.98 119.74 37.79 120.09 36.02 120.44 35.13 120.79 35.72 121.14 39.27 121.48 40.76 121.83 41.35 122.18 40.16 122.53 35.72 122.88 37.5 123.23 38.09 123.58 36.9 123.93 38.68 124.28 37.5 124.63 45.79 124.98 46.39 125.33 46.09 125.67 42.24 126.02 40.46 126.37 40.76 126.72 41.05 127.07 41.05 127.42 38.68 127.77 39.57 128.12 35.13 128.47 36.9 128.82 35.42 129.17 36.02 129.51 36.31 129.86 31.28 130.21 35.42 130.56 36.61 130.91 33.65 131.26 35.72 131.61 32.16 131.96 33.35 132.31 37.2 132.66 39.27 133.01 44.61 133.36 46.09 133.7 41.94 134.05 40.16 134.4 41.35 134.75 44.02 135.1 43.72 135.45 41.94 135.8 41.64 136.15 44.61 136.5 42.53 136.85 41.35 137.2 39.57 137.55 38.68 137.89 39.27 138.24 35.42 138.59 35.42 138.94 35.72 139.29 32.16 139.64 34.83 139.99 37.79 140.34 40.16 140.69 39.87 141.04 37.79 141.39 42.53 141.73 41.05 142.08 38.68 142.43 33.94 142.78 32.76 143.13 32.16 143.48 30.39 143.83 28.91 144.18 26.54 144.53 28.61 144.88 27.72 145.23 31.28 145.58 34.83 145.92 39.87 146.27 41.05 146.62 40.16 146.97 37.79 147.32 36.61 147.67 40.76 148.02 41.35 148.37 40.46 148.72 42.83 149.07 44.9 149.42 44.31 149.76 47.57 150.11 47.87 150.46 52.31 150.81 52.9 151.16 51.13 151.51 52.01 151.86 50.53 152.21 49.05 152.56 44.61 152.91 40.16 153.26 40.46 153.61 40.16 153.95 41.05 154.3 39.57 154.65 41.94 155 41.64 155.35 44.61 155.7 41.05 156.05 41.05 156.4 43.42 156.75 46.39 157.1 44.61 157.45 43.72 157.79 44.61 158.14 41.94 158.49 39.57 158.84 39.27 159.19 35.72 159.54 33.05 159.89 32.76 160.24 32.76 160.59 33.65 160.94 30.39 161.29 31.28 161.64 30.39 161.98 32.16 162.33 32.16 162.68 33.94 163.03 36.31 163.38 37.79 163.73 36.31 164.08 37.79 164.43 34.53 164.78 30.98 165.13 30.39 165.48 27.42 165.83 28.02 166.17 30.68 166.52 31.57 166.87 32.76 167.22 33.05 167.57 31.87 167.92 32.16 168.27 28.61 168.62 32.16 168.97 30.39 169.32 30.09 169.67 26.83 170.01 26.24 170.36 26.54 170.71 26.24 171.06 26.54 171.41 28.61 171.76 25.94 172.11 28.61 172.46 26.83 172.81 28.61 173.16 25.35 173.51 25.05 173.86 23.57 174.2 21.5 174.55 20.31 174.9 20.31 175.25 19.13 175.6 19.43 175.95 19.72 176.3 20.61 176.65 20.31 177 20.31 177.35 22.98 177.7 22.98 178.04 22.98 178.39 23.57 178.74 24.17 179.09 25.35 179.44 22.98 179.79 25.05 180.14 23.28 180.49 23.57 180.84 27.13 181.19 27.13 181.54 26.83 181.89 25.05 182.23 23.87 182.58 24.76 182.93 26.83 183.28 26.83 183.63 29.5 183.98 26.54 184.33 24.17 184.68 23.28 185.03 24.17 185.38 22.09 185.73 21.8 186.08 21.5 186.42 22.09 186.77 20.61 187.12 17.65 187.47 16.76 187.82 16.46 188.17 17.06 188.52 18.24 188.87 18.24 189.22 18.24 189.57 17.35 189.92 19.43 190.26 19.72 190.61 17.65 190.96 17.94 191.31 18.83 191.66 18.24 192.01 17.06 192.36 16.46 192.71 17.06 193.06 17.06 193.41 17.35 193.76 18.54 194.11 16.46 194.45 17.65 194.8 18.83 195.15 22.09 195.5 23.87 195.85 26.54 196.2 25.05"/>
      </g>
      <g stroke-width="0.3" fill="#000000" fill-opacity="0.000" class="geometry" stroke-dasharray="none" stroke="#ABDDA4" id="img-786bb0d5-12">
        <path fill="none" d="M21.98,71.86 L 22.33 73.05 22.68 73.94 23.03 73.05 23.38 73.94 23.73 73.64 24.08 70.38 24.42 71.27 24.77 71.57 25.12 74.53 25.47 71.86 25.82 70.68 26.17 66.53 26.52 62.98 26.87 61.2 27.22 55.87 27.57 54.98 27.92 52.9 28.27 55.27 28.61 56.46 28.96 62.98 29.31 63.86 29.66 65.05 30.01 63.57 30.36 63.27 30.71 62.98 31.06 59.42 31.41 53.2 31.76 57.35 32.11 58.24 32.45 57.64 32.8 57.64 33.15 63.27 33.5 65.94 33.85 59.72 34.2 60.61 34.55 54.98 34.9 54.68 35.25 60.61 35.6 57.64 35.95 53.79 36.3 55.27 36.64 54.98 36.99 52.01 37.34 48.46 37.69 49.64 38.04 44.9 38.39 45.79 38.74 47.27 39.09 47.27 39.44 49.64 39.79 48.46 40.14 51.42 40.49 53.79 40.83 50.53 41.18 50.24 41.53 52.9 41.88 54.98 42.23 55.57 42.58 56.46 42.93 49.35 43.28 49.94 43.63 52.9 43.98 50.83 44.33 52.01 44.67 56.46 45.02 47.57 45.37 46.98 45.72 48.76 46.07 49.94 46.42 54.09 46.77 51.42 47.12 50.53 47.47 50.24 47.82 51.42 48.17 54.68 48.52 52.9 48.86 53.2 49.21 47.87 49.56 45.2 49.91 42.53 50.26 43.72 50.61 45.5 50.96 49.64 51.31 50.24 51.66 51.13 52.01 52.31 52.36 55.87 52.7 56.46 53.05 57.05 53.4 55.57 53.75 58.53 54.1 59.12 54.45 53.5 54.8 48.76 55.15 55.27 55.5 57.05 55.85 55.57 56.2 49.64 56.55 50.53 56.89 45.5 57.24 46.39 57.59 44.31 57.94 46.39 58.29 49.94 58.64 48.46 58.99 45.2 59.34 44.02 59.69 44.9 60.04 45.2 60.39 44.02 60.73 44.02 61.08 44.61 61.43 43.42 61.78 46.09 62.13 46.98 62.48 50.53 62.83 52.9 63.18 50.53 63.53 49.05 63.88 46.98 64.23 45.5 64.58 48.46 64.92 44.9 65.27 44.61 65.62 46.68 65.97 45.2 66.32 43.13 66.67 42.53 67.02 39.27 67.37 38.39 67.72 40.16 68.07 38.09 68.42 38.09 68.77 39.27 69.11 42.53 69.46 38.68 69.81 43.42 70.16 40.76 70.51 42.83 70.86 45.79 71.21 42.83 71.56 42.83 71.91 44.9 72.26 45.2 72.61 46.68 72.95 48.16 73.3 39.27 73.65 44.31 74 41.05 74.35 39.57 74.7 38.39 75.05 38.09 75.4 36.61 75.75 32.16 76.1 31.57 76.45 30.68 76.8 33.35 77.14 33.35 77.49 31.57 77.84 32.16 78.19 33.05 78.54 30.68 78.89 31.87 79.24 30.98 79.59 31.28 79.94 32.76 80.29 34.24 80.64 36.31 80.98 33.94 81.33 31.28 81.68 29.2 82.03 26.54 82.38 28.31 82.73 28.61 83.08 30.09 83.43 27.42 83.78 27.72 84.13 25.94 84.48 27.42 84.83 31.57 85.17 31.28 85.52 29.79 85.87 31.28 86.22 28.61 86.57 29.5 86.92 28.31 87.27 26.83 87.62 25.94 87.97 28.31 88.32 30.68 88.67 32.16 89.02 28.31 89.36 27.13 89.71 26.24 90.06 26.54 90.41 26.54 90.76 23.57 91.11 23.57 91.46 23.28 91.81 23.57 92.16 25.65 92.51 26.54 92.86 25.05 93.2 21.8 93.55 22.98 93.9 24.76 94.25 26.24 94.6 28.31 94.95 28.02 95.3 27.42 95.65 27.72 96 29.79 96.35 30.98 96.7 33.05 97.05 33.94 97.39 34.53 97.74 33.65 98.09 34.24 98.44 31.57 98.79 33.65 99.14 32.76 99.49 30.09 99.84 26.83 100.19 26.83 100.54 26.54 100.89 30.39 101.23 31.28 101.58 27.13 101.93 29.79 102.28 30.98 102.63 32.46 102.98 30.68 103.33 29.79 103.68 29.2 104.03 30.09 104.38 29.79 104.73 25.94 105.08 26.24 105.42 26.54 105.77 26.24 106.12 25.94 106.47 27.13 106.82 26.83 107.17 27.13 107.52 25.35 107.87 22.09 108.22 22.09 108.57 24.46 108.92 23.87 109.26 21.8 109.61 21.5 109.96 21.2 110.31 21.5 110.66 24.46 111.01 25.35 111.36 26.24 111.71 29.2 112.06 28.91 112.41 28.91 112.76 26.54 113.11 25.35 113.45 26.54 113.8 27.13 114.15 26.54 114.5 25.35 114.85 25.65 115.2 20.02 115.55 21.8 115.9 22.09 116.25 21.5 116.6 21.5 116.95 22.39 117.3 25.05 117.64 24.46 117.99 26.54 118.34 21.8 118.69 21.2 119.04 22.68 119.39 21.5 119.74 22.09 120.09 22.68 120.44 25.05 120.79 24.76 121.14 27.42 121.48 25.35 121.83 24.46 122.18 25.05 122.53 24.76 122.88 21.2 123.23 19.43 123.58 18.54 123.93 20.02 124.28 21.2 124.63 21.8 124.98 20.31 125.33 20.31 125.67 18.54 126.02 18.54 126.37 17.65 126.72 18.24 127.07 21.2 127.42 20.61 127.77 18.54 128.12 19.72 128.47 20.31 128.82 22.09 129.17 22.68 129.51 23.28 129.86 22.68 130.21 20.91 130.56 17.65 130.91 16.46 131.26 15.28 131.61 15.87 131.96 17.06 132.31 17.94 132.66 18.54 133.01 18.54 133.36 20.61 133.7 16.76 134.05 17.94 134.4 19.13 134.75 17.65 135.1 17.65 135.45 17.94 135.8 18.83 136.15 20.02 136.5 21.8 136.85 23.87 137.2 23.28 137.55 23.57 137.89 21.5 138.24 21.5 138.59 22.09 138.94 25.65 139.29 25.05 139.64 23.87 139.99 20.91 140.34 18.24 140.69 17.35 141.04 16.76 141.39 16.76 141.73 17.35 142.08 18.83 142.43 19.43 142.78 19.43 143.13 17.94 143.48 21.2 143.83 20.91 144.18 19.72 144.53 20.61 144.88 23.28 145.23 23.87 145.58 22.09 145.92 19.13 146.27 18.54 146.62 18.83 146.97 18.24 147.32 18.24 147.67 17.65 148.02 19.43 148.37 19.43 148.72 21.5 149.07 20.31 149.42 20.31 149.76 21.8 150.11 21.8 150.46 22.68 150.81 24.17 151.16 21.2 151.51 21.5 151.86 19.72 152.21 20.31 152.56 21.8 152.91 24.46 153.26 28.61 153.61 26.83 153.95 29.2 154.3 29.5 154.65 32.16 155 32.46 155.35 30.68 155.7 30.68 156.05 33.65 156.4 33.35 156.75 32.16 157.1 32.76 157.45 31.87 157.79 31.57 158.14 33.35 158.49 36.61 158.84 36.9 159.19 38.98 159.54 39.87 159.89 38.39 160.24 42.24 160.59 44.61 160.94 43.72 161.29 46.09 161.64 49.35 161.98 54.09 162.33 53.79 162.68 49.94 163.03 46.98 163.38 43.42 163.73 44.31 164.08 42.53 164.43 40.76 164.78 39.27 165.13 38.98 165.48 43.13 165.83 46.09 166.17 46.68 166.52 50.24 166.87 49.64 167.22 46.09 167.57 48.76 167.92 51.72 168.27 49.94 168.62 53.5 168.97 52.31 169.32 53.2 169.67 54.09 170.01 53.2 170.36 57.64 170.71 58.53 171.06 57.05 171.41 52.61 171.76 51.42 172.11 51.13 172.46 54.38 172.81 51.42 173.16 54.09 173.51 53.5 173.86 50.83 174.2 50.83 174.55 54.98 174.9 51.72 175.25 50.53 175.6 50.24 175.95 49.94 176.3 48.16 176.65 42.24 177 40.46 177.35 37.79 177.7 40.76 178.04 37.5 178.39 38.68 178.74 42.83 179.09 45.2 179.44 38.68 179.79 41.64 180.14 42.24 180.49 46.98 180.84 48.16 181.19 47.57 181.54 43.13 181.89 45.79 182.23 42.24 182.58 41.64 182.93 41.35 183.28 42.53 183.63 41.05 183.98 38.68 184.33 43.13 184.68 41.94 185.03 39.87 185.38 39.57 185.73 42.83 186.08 49.94 186.42 51.72 186.77 44.9 187.12 45.2 187.47 43.72 187.82 44.31 188.17 43.72 188.52 36.9 188.87 37.79 189.22 39.87 189.57 44.31 189.92 49.05 190.26 52.61 190.61 53.79 190.96 54.98 191.31 54.68 191.66 55.57 192.01 53.2 192.36 55.57 192.71 54.68 193.06 51.13 193.41 54.09 193.76 51.13 194.11 51.72 194.45 42.83 194.8 42.83 195.15 42.83 195.5 42.24 195.85 44.02 196.2 44.31"/>
      </g>
      <g stroke-width="0.3" fill="#000000" fill-opacity="0.000" class="geometry" stroke-dasharray="none" stroke="#E6F598" id="img-786bb0d5-13">
        <path fill="none" d="M21.98,71.86 L 22.33 65.35 22.68 62.98 23.03 65.35 23.38 66.83 23.73 69.49 24.08 72.16 24.42 67.72 24.77 62.09 25.12 63.27 25.47 55.87 25.82 55.87 26.17 57.94 26.52 59.12 26.87 58.83 27.22 60.61 27.57 63.86 27.92 62.98 28.27 64.16 28.61 69.79 28.96 71.27 29.31 69.79 29.66 76.01 30.01 70.38 30.36 70.09 30.71 71.57 31.06 70.38 31.41 65.35 31.76 66.53 32.11 62.68 32.45 64.16 32.8 62.38 33.15 63.27 33.5 65.94 33.85 66.23 34.2 70.68 34.55 65.94 34.9 68.31 35.25 70.97 35.6 68.01 35.95 67.72 36.3 63.27 36.64 64.16 36.99 64.75 37.34 68.31 37.69 73.94 38.04 80.16 38.39 82.82 38.74 81.94 39.09 78.68 39.44 80.16 39.79 78.97 40.14 76.6 40.49 78.68 40.83 75.42 41.18 72.75 41.53 69.2 41.88 70.38 42.23 69.2 42.58 65.05 42.93 72.46 43.28 73.94 43.63 75.71 43.98 73.05 44.33 73.94 44.67 76.01 45.02 76.9 45.37 80.75 45.72 79.27 46.07 82.82 46.42 84.9 46.77 89.34 47.12 87.86 47.47 90.82 47.82 91.12 48.17 89.05 48.52 86.38 48.86 88.45 49.21 87.86 49.56 87.86 49.91 86.97 50.26 90.23 50.61 91.12 50.96 90.23 51.31 86.68 51.66 87.57 52.01 91.12 52.36 93.49 52.7 94.08 53.05 92.01 53.4 96.16 53.75 93.19 54.1 89.94 54.45 91.12 54.8 87.57 55.15 83.42 55.5 84.9 55.85 88.16 56.2 83.71 56.55 85.49 56.89 84.9 57.24 85.79 57.59 85.49 57.94 86.68 58.29 86.97 58.64 86.38 58.99 84.9 59.34 92.6 59.69 93.79 60.04 94.97 60.39 92.31 60.73 90.23 61.08 98.23 61.43 101.49 61.78 100.9 62.13 99.71 62.48 105.93 62.83 105.34 63.18 105.64 63.53 106.23 63.88 104.45 64.23 106.82 64.58 106.82 64.92 107.41 65.27 105.34 65.62 105.34 65.97 100.6 66.32 101.19 66.67 102.08 67.02 102.38 67.37 93.79 67.72 94.97 68.07 98.23 68.42 101.49 68.77 96.45 69.11 94.97 69.46 95.56 69.81 94.97 70.16 98.53 70.51 97.64 70.86 100.6 71.21 99.12 71.56 98.23 71.91 99.71 72.26 99.42 72.61 98.82 72.95 100.9 73.3 102.67 73.65 105.34 74 106.82 74.35 104.75 74.7 102.38 75.05 106.82 75.4 106.23 75.75 108.3 76.1 106.82 76.45 105.64 76.8 104.75 77.14 107.41 77.49 114.52 77.84 112.45 78.19 114.82 78.54 115.12 78.89 115.41 79.24 115.71 79.59 117.19 79.94 118.38 80.29 120.15 80.64 119.26 80.98 119.26 81.33 116.6 81.68 114.52 82.03 116.6 82.38 115.71 82.73 114.52 83.08 115.71 83.43 113.04 83.78 113.04 84.13 109.49 84.48 109.78 84.83 107.12 85.17 105.04 85.52 103.86 85.87 105.93 86.22 106.23 86.57 101.79 86.92 102.97 87.27 99.42 87.62 101.79 87.97 102.97 88.32 103.86 88.67 104.45 89.02 108.3 89.36 111.27 89.71 108.3 90.06 106.82 90.41 104.45 90.76 104.75 91.11 105.64 91.46 99.42 91.81 101.79 92.16 104.75 92.51 104.45 92.86 102.38 93.2 107.41 93.55 109.78 93.9 104.75 94.25 104.75 94.6 109.49 94.95 101.19 95.3 104.45 95.65 102.97 96 102.08 96.35 105.04 96.7 103.56 97.05 100.3 97.39 102.67 97.74 100.3 98.09 99.71 98.44 102.97 98.79 102.08 99.14 97.93 99.49 96.45 99.84 96.45 100.19 93.19 100.54 92.6 100.89 91.42 101.23 94.38 101.58 100.9 101.93 98.82 102.28 98.23 102.63 99.71 102.98 97.34 103.33 99.42 103.68 102.38 104.03 100.9 104.38 100.6 104.73 97.34 105.08 102.67 105.42 107.12 105.77 102.67 106.12 102.97 106.47 102.38 106.82 103.86 107.17 101.19 107.52 102.97 107.87 97.05 108.22 98.53 108.57 99.71 108.92 99.12 109.26 98.82 109.61 97.34 109.96 98.53 110.31 97.64 110.66 96.45 111.01 98.23 111.36 97.05 111.71 101.49 112.06 98.82 112.41 97.64 112.76 96.16 113.11 95.86 113.45 100.6 113.8 100.9 114.15 102.97 114.5 105.64 114.85 105.34 115.2 107.12 115.55 106.53 115.9 106.23 116.25 109.49 116.6 107.41 116.95 107.12 117.3 108.6 117.64 106.53 117.99 104.45 118.34 105.04 118.69 105.64 119.04 108.9 119.39 110.08 119.74 109.78 120.09 109.78 120.44 109.19 120.79 108.6 121.14 106.82 121.48 104.45 121.83 104.75 122.18 101.79 122.53 102.67 122.88 97.64 123.23 97.05 123.58 95.56 123.93 97.93 124.28 98.53 124.63 97.34 124.98 96.45 125.33 97.34 125.67 100.9 126.02 104.16 126.37 101.49 126.72 100.6 127.07 100.3 127.42 102.97 127.77 104.16 128.12 105.93 128.47 106.82 128.82 110.67 129.17 115.71 129.51 109.19 129.86 110.97 130.21 112.75 130.56 111.56 130.91 111.86 131.26 109.49 131.61 111.86 131.96 113.04 132.31 114.82 132.66 113.04 133.01 113.34 133.36 113.93 133.7 112.15 134.05 110.67 134.4 113.04 134.75 109.19 135.1 110.08 135.45 112.75 135.8 110.38 136.15 107.41 136.5 107.12 136.85 110.97 137.2 110.97 137.55 108.9 137.89 110.67 138.24 110.08 138.59 102.67 138.94 100.6 139.29 100.9 139.64 102.38 139.99 102.97 140.34 105.64 140.69 107.71 141.04 108.9 141.39 105.64 141.73 101.49 142.08 99.42 142.43 97.34 142.78 101.19 143.13 97.93 143.48 97.93 143.83 92.6 144.18 93.19 144.53 94.97 144.88 96.16 145.23 94.68 145.58 90.82 145.92 83.12 146.27 85.19 146.62 86.68 146.97 85.49 147.32 89.34 147.67 85.49 148.02 88.75 148.37 92.6 148.72 92.9 149.07 92.9 149.42 91.42 149.76 91.42 150.11 91.12 150.46 88.16 150.81 89.05 151.16 88.16 151.51 86.38 151.86 89.05 152.21 89.64 152.56 88.75 152.91 92.31 153.26 94.38 153.61 97.05 153.95 95.27 154.3 92.31 154.65 92.9 155 92.01 155.35 90.82 155.7 90.23 156.05 87.27 156.4 82.53 156.75 80.45 157.1 75.42 157.45 73.94 157.79 76.31 158.14 76.9 158.49 73.64 158.84 70.38 159.19 72.46 159.54 73.94 159.89 72.16 160.24 74.83 160.59 75.12 160.94 77.2 161.29 79.27 161.64 76.9 161.98 75.12 162.33 80.75 162.68 79.86 163.03 80.45 163.38 80.75 163.73 77.49 164.08 78.97 164.43 82.23 164.78 86.08 165.13 83.71 165.48 87.27 165.83 89.05 166.17 91.42 166.52 96.16 166.87 94.97 167.22 94.97 167.57 90.53 167.92 90.53 168.27 90.23 168.62 90.23 168.97 94.08 169.32 91.42 169.67 94.68 170.01 99.12 170.36 97.93 170.71 98.53 171.06 93.19 171.41 95.56 171.76 100.9 172.11 100.9 172.46 100.01 172.81 102.08 173.16 100.3 173.51 98.53 173.86 91.12 174.2 91.12 174.55 91.12 174.9 89.05 175.25 86.38 175.6 84.01 175.95 84.6 176.3 80.45 176.65 84.01 177 79.27 177.35 78.97 177.7 80.75 178.04 85.49 178.39 85.79 178.74 85.79 179.09 89.64 179.44 94.68 179.79 94.68 180.14 96.45 180.49 92.9 180.84 89.94 181.19 88.75 181.54 89.94 181.89 87.86 182.23 84.6 182.58 81.34 182.93 81.94 183.28 87.27 183.63 90.53 183.98 89.34 184.33 92.9 184.68 92.6 185.03 94.68 185.38 92.6 185.73 94.97 186.08 94.08 186.42 95.86 186.77 98.23 187.12 99.12 187.47 98.82 187.82 98.23 188.17 92.01 188.52 92.6 188.87 85.79 189.22 83.71 189.57 85.49 189.92 84.01 190.26 82.23 190.61 79.57 190.96 86.68 191.31 88.45 191.66 86.08 192.01 78.97 192.36 78.08 192.71 80.16 193.06 82.82 193.41 82.53 193.76 79.27 194.11 78.38 194.45 78.38 194.8 80.75 195.15 84.01 195.5 86.97 195.85 84.31 196.2 81.05"/>
      </g>
      <g stroke-width="0.3" fill="#000000" fill-opacity="0.000" class="geometry" stroke-dasharray="none" stroke="#FFFFBF" id="img-786bb0d5-14">
        <path fill="none" d="M21.98,71.86 L 22.33 73.94 22.68 72.75 23.03 71.86 23.38 68.31 23.73 69.2 24.08 65.94 24.42 65.35 24.77 65.94 25.12 67.12 25.47 70.09 25.82 73.94 26.17 71.57 26.52 72.75 26.87 71.86 27.22 71.86 27.57 71.57 27.92 68.6 28.27 71.27 28.61 67.72 28.96 65.64 29.31 66.23 29.66 72.75 30.01 73.34 30.36 69.2 30.71 65.64 31.06 62.98 31.41 66.23 31.76 68.9 32.11 72.75 32.45 72.16 32.8 75.42 33.15 77.2 33.5 76.01 33.85 72.16 34.2 73.34 34.55 73.64 34.9 73.34 35.25 73.34 35.6 74.83 35.95 74.83 36.3 76.01 36.64 74.23 36.99 74.53 37.34 78.97 37.69 80.45 38.04 81.34 38.39 82.23 38.74 84.9 39.09 84.6 39.44 85.79 39.79 83.71 40.14 81.34 40.49 82.53 40.83 78.38 41.18 85.49 41.53 83.42 41.88 82.82 42.23 78.08 42.58 74.53 42.93 74.53 43.28 71.86 43.63 75.42 43.98 75.71 44.33 77.2 44.67 78.38 45.02 80.75 45.37 78.08 45.72 77.2 46.07 71.57 46.42 69.79 46.77 69.2 47.12 63.86 47.47 62.38 47.82 62.38 48.17 60.9 48.52 60.61 48.86 64.16 49.21 71.57 49.56 77.79 49.91 76.6 50.26 77.49 50.61 74.83 50.96 74.83 51.31 77.79 51.66 79.86 52.01 81.05 52.36 80.16 52.7 86.08 53.05 88.16 53.4 89.94 53.75 90.53 54.1 88.16 54.45 86.38 54.8 85.79 55.15 81.94 55.5 82.23 55.85 83.42 56.2 81.64 56.55 84.31 56.89 83.42 57.24 82.23 57.59 82.23 57.94 81.94 58.29 79.86 58.64 80.75 58.99 75.71 59.34 75.42 59.69 77.2 60.04 75.12 60.39 74.83 60.73 71.57 61.08 73.05 61.43 76.6 61.78 76.01 62.13 73.94 62.48 78.08 62.83 79.27 63.18 83.71 63.53 83.42 63.88 81.34 64.23 83.71 64.58 81.05 64.92 82.23 65.27 86.38 65.62 86.38 65.97 88.45 66.32 87.27 66.67 85.19 67.02 85.49 67.37 87.27 67.72 89.64 68.07 89.64 68.42 87.86 68.77 89.05 69.11 88.16 69.46 88.45 69.81 87.86 70.16 86.08 70.51 81.94 70.86 75.12 71.21 75.12 71.56 75.42 71.91 73.64 72.26 77.49 72.61 79.57 72.95 85.19 73.3 84.01 73.65 81.34 74 80.75 74.35 81.64 74.7 81.05 75.05 78.08 75.4 82.53 75.75 82.53 76.1 82.82 76.45 84.01 76.8 84.6 77.14 86.08 77.49 84.9 77.84 83.71 78.19 85.19 78.54 87.27 78.89 83.12 79.24 87.27 79.59 89.94 79.94 87.57 80.29 88.45 80.64 88.75 80.98 88.16 81.33 90.82 81.68 94.68 82.03 92.01 82.38 92.6 82.73 93.49 83.08 92.31 83.43 93.79 83.78 96.75 84.13 89.34 84.48 87.27 84.83 87.27 85.17 88.45 85.52 89.94 85.87 89.05 86.22 86.08 86.57 89.94 86.92 90.82 87.27 92.6 87.62 89.64 87.97 92.01 88.32 90.53 88.67 89.34 89.02 89.94 89.36 92.9 89.71 89.34 90.06 83.71 90.41 82.82 90.76 83.12 91.11 81.34 91.46 81.34 91.81 77.2 92.16 78.68 92.51 76.9 92.86 74.23 93.2 75.42 93.55 75.71 93.9 75.71 94.25 73.34 94.6 68.6 94.95 69.79 95.3 68.31 95.65 72.75 96 73.94 96.35 75.71 96.7 78.97 97.05 78.38 97.39 76.9 97.74 80.75 98.09 82.53 98.44 77.79 98.79 76.6 99.14 76.31 99.49 76.6 99.84 77.79 100.19 83.12 100.54 85.19 100.89 87.86 101.23 90.53 101.58 90.53 101.93 89.94 102.28 86.08 102.63 86.68 102.98 85.79 103.33 80.16 103.68 82.23 104.03 84.01 104.38 83.42 104.73 81.05 105.08 78.68 105.42 81.94 105.77 81.34 106.12 79.86 106.47 80.45 106.82 85.79 107.17 92.01 107.52 88.75 107.87 91.42 108.22 93.79 108.57 94.68 108.92 93.79 109.26 95.86 109.61 94.08 109.96 92.31 110.31 92.6 110.66 89.94 111.01 91.42 111.36 89.94 111.71 87.27 112.06 79.86 112.41 77.79 112.76 80.16 113.11 75.42 113.45 73.34 113.8 77.79 114.15 72.16 114.5 71.27 114.85 68.01 115.2 70.09 115.55 70.97 115.9 69.2 116.25 73.94 116.6 75.12 116.95 72.75 117.3 68.01 117.64 75.71 117.99 75.71 118.34 80.45 118.69 79.27 119.04 75.71 119.39 73.64 119.74 70.68 120.09 70.68 120.44 71.57 120.79 72.16 121.14 78.38 121.48 78.97 121.83 75.71 122.18 73.05 122.53 70.68 122.88 71.86 123.23 68.31 123.58 68.6 123.93 66.53 124.28 60.61 124.63 60.61 124.98 60.01 125.33 58.24 125.67 62.98 126.02 63.57 126.37 61.79 126.72 61.2 127.07 64.75 127.42 65.35 127.77 67.72 128.12 66.23 128.47 64.75 128.82 65.35 129.17 64.75 129.51 61.2 129.86 61.2 130.21 60.31 130.56 57.35 130.91 55.27 131.26 52.61 131.61 57.35 131.96 57.35 132.31 59.42 132.66 59.72 133.01 57.64 133.36 54.98 133.7 56.75 134.05 56.75 134.4 57.94 134.75 57.05 135.1 55.57 135.45 55.27 135.8 55.87 136.15 54.09 136.5 44.9 136.85 49.94 137.2 51.42 137.55 50.83 137.89 53.2 138.24 52.31 138.59 53.2 138.94 54.09 139.29 52.61 139.64 46.09 139.99 44.02 140.34 41.35 140.69 43.42 141.04 44.9 141.39 47.87 141.73 46.98 142.08 50.24 142.43 54.98 142.78 56.46 143.13 58.53 143.48 55.87 143.83 51.72 144.18 53.5 144.53 50.53 144.88 48.16 145.23 44.9 145.58 41.64 145.92 39.87 146.27 36.31 146.62 37.79 146.97 40.46 147.32 43.42 147.67 41.35 148.02 39.57 148.37 40.16 148.72 40.46 149.07 38.68 149.42 39.87 149.76 39.27 150.11 38.09 150.46 44.02 150.81 48.76 151.16 50.83 151.51 50.83 151.86 53.79 152.21 61.2 152.56 61.2 152.91 60.61 153.26 62.98 153.61 66.53 153.95 63.27 154.3 65.94 154.65 64.16 155 68.01 155.35 65.35 155.7 68.01 156.05 69.49 156.4 65.35 156.75 66.83 157.1 70.97 157.45 73.64 157.79 70.38 158.14 74.83 158.49 76.6 158.84 77.79 159.19 80.45 159.54 79.57 159.89 72.16 160.24 70.09 160.59 68.6 160.94 68.6 161.29 70.97 161.64 68.31 161.98 63.27 162.33 64.75 162.68 63.57 163.03 66.83 163.38 64.46 163.73 63.57 164.08 67.72 164.43 71.27 164.78 72.16 165.13 73.64 165.48 74.23 165.83 79.86 166.17 81.64 166.52 79.27 166.87 82.53 167.22 77.2 167.57 77.79 167.92 75.71 168.27 78.68 168.62 84.31 168.97 83.12 169.32 81.05 169.67 80.16 170.01 83.71 170.36 83.42 170.71 85.19 171.06 86.38 171.41 89.34 171.76 91.42 172.11 93.79 172.46 89.64 172.81 89.94 173.16 89.34 173.51 88.45 173.86 93.79 174.2 91.12 174.55 89.05 174.9 86.38 175.25 85.79 175.6 86.68 175.95 85.49 176.3 87.86 176.65 90.23 177 89.34 177.35 90.82 177.7 89.05 178.04 85.19 178.39 86.97 178.74 83.12 179.09 86.38 179.44 88.16 179.79 94.97 180.14 88.16 180.49 90.23 180.84 95.56 181.19 93.49 181.54 99.71 181.89 101.49 182.23 99.42 182.58 95.86 182.93 93.19 183.28 93.49 183.63 95.27 183.98 99.42 184.33 100.01 184.68 99.12 185.03 105.93 185.38 106.53 185.73 105.93 186.08 109.19 186.42 106.23 186.77 105.34 187.12 103.27 187.47 103.27 187.82 104.16 188.17 105.93 188.52 104.75 188.87 105.04 189.22 104.16 189.57 104.75 189.92 105.64 190.26 108.6 190.61 111.56 190.96 110.97 191.31 109.49 191.66 110.67 192.01 111.56 192.36 110.67 192.71 109.19 193.06 110.67 193.41 110.38 193.76 108.3 194.11 112.15 194.45 108.9 194.8 109.78 195.15 110.67 195.5 110.97 195.85 110.97 196.2 110.38"/>
      </g>
      <g stroke-width="0.3" fill="#000000" fill-opacity="0.000" class="geometry" stroke-dasharray="none" stroke="#FEE08B" id="img-786bb0d5-15">
        <path fill="none" d="M21.98,71.86 L 22.33 73.34 22.68 77.2 23.03 87.27 23.38 82.23 23.73 81.05 24.08 76.9 24.42 73.64 24.77 68.01 25.12 68.01 25.47 63.57 25.82 63.86 26.17 63.57 26.52 63.27 26.87 63.86 27.22 62.98 27.57 64.46 27.92 60.61 28.27 55.57 28.61 54.09 28.96 51.72 29.31 49.35 29.66 54.09 30.01 51.13 30.36 53.79 30.71 54.98 31.06 54.68 31.41 55.27 31.76 58.53 32.11 62.38 32.45 55.27 32.8 52.01 33.15 52.9 33.5 56.16 33.85 52.9 34.2 61.79 34.55 62.09 34.9 58.24 35.25 63.27 35.6 61.49 35.95 64.16 36.3 63.86 36.64 62.98 36.99 64.75 37.34 63.57 37.69 69.49 38.04 72.46 38.39 76.01 38.74 76.01 39.09 74.83 39.44 80.45 39.79 75.12 40.14 80.75 40.49 76.01 40.83 76.31 41.18 77.2 41.53 71.57 41.88 76.01 42.23 74.83 42.58 76.6 42.93 74.53 43.28 75.71 43.63 74.53 43.98 75.71 44.33 76.31 44.67 79.27 45.02 79.86 45.37 78.97 45.72 81.94 46.07 79.57 46.42 77.79 46.77 79.27 47.12 80.16 47.47 78.38 47.82 76.6 48.17 72.75 48.52 73.64 48.86 72.16 49.21 75.42 49.56 73.34 49.91 76.6 50.26 77.2 50.61 76.31 50.96 75.12 51.31 73.05 51.66 71.86 52.01 72.16 52.36 72.46 52.7 72.75 53.05 68.31 53.4 70.97 53.75 76.31 54.1 82.82 54.45 81.64 54.8 80.16 55.15 79.86 55.5 77.79 55.85 84.6 56.2 84.6 56.55 79.57 56.89 82.82 57.24 84.9 57.59 88.16 57.94 91.12 58.29 90.23 58.64 92.31 58.99 93.49 59.34 90.82 59.69 92.6 60.04 91.42 60.39 97.34 60.73 97.34 61.08 96.16 61.43 98.53 61.78 99.71 62.13 97.05 62.48 98.53 62.83 97.64 63.18 95.56 63.53 97.93 63.88 100.6 64.23 103.27 64.58 104.75 64.92 103.27 65.27 103.27 65.62 103.56 65.97 103.86 66.32 102.38 66.67 98.23 67.02 99.12 67.37 99.71 67.72 101.49 68.07 103.27 68.42 105.34 68.77 105.34 69.11 106.82 69.46 108.9 69.81 111.56 70.16 110.38 70.51 109.49 70.86 109.78 71.21 108.3 71.56 108.6 71.91 106.82 72.26 104.75 72.61 106.23 72.95 105.93 73.3 104.75 73.65 107.12 74 102.08 74.35 99.71 74.7 98.82 75.05 98.53 75.4 97.05 75.75 95.86 76.1 93.49 76.45 89.05 76.8 90.82 77.14 89.05 77.49 87.86 77.84 85.79 78.19 82.53 78.54 89.05 78.89 86.97 79.24 83.71 79.59 82.53 79.94 80.16 80.29 86.68 80.64 89.64 80.98 86.68 81.33 89.05 81.68 88.75 82.03 88.75 82.38 91.12 82.73 89.05 83.08 90.53 83.43 89.34 83.78 92.01 84.13 93.49 84.48 89.94 84.83 88.75 85.17 87.27 85.52 84.6 85.87 83.42 86.22 84.9 86.57 88.45 86.92 86.68 87.27 84.6 87.62 84.6 87.97 88.75 88.32 81.94 88.67 77.49 89.02 73.05 89.36 74.23 89.71 79.27 90.06 80.75 90.41 84.31 90.76 87.86 91.11 84.9 91.46 86.38 91.81 83.71 92.16 84.9 92.51 84.01 92.86 85.49 93.2 84.01 93.55 79.27 93.9 78.97 94.25 78.08 94.6 80.75 94.95 80.75 95.3 80.16 95.65 80.16 96 81.64 96.35 82.53 96.7 76.31 97.05 71.27 97.39 71.27 97.74 65.94 98.09 65.05 98.44 64.75 98.79 63.27 99.14 59.42 99.49 57.64 99.84 57.35 100.19 57.64 100.54 56.75 100.89 57.35 101.23 56.16 101.58 58.83 101.93 59.42 102.28 61.2 102.63 60.31 102.98 62.68 103.33 61.2 103.68 60.01 104.03 54.98 104.38 57.94 104.73 61.2 105.08 59.72 105.42 59.42 105.77 53.79 106.12 50.53 106.47 49.94 106.82 46.09 107.17 42.24 107.52 40.16 107.87 33.35 108.22 34.24 108.57 34.83 108.92 34.53 109.26 33.35 109.61 38.68 109.96 38.39 110.31 37.5 110.66 40.16 111.01 39.87 111.36 37.79 111.71 39.87 112.06 42.83 112.41 41.05 112.76 42.53 113.11 40.46 113.45 39.57 113.8 37.2 114.15 36.61 114.5 38.09 114.85 39.27 115.2 37.5 115.55 38.98 115.9 40.46 116.25 40.16 116.6 36.61 116.95 37.5 117.3 38.98 117.64 39.87 117.99 44.9 118.34 46.09 118.69 46.98 119.04 49.94 119.39 49.64 119.74 52.01 120.09 49.05 120.44 46.09 120.79 46.09 121.14 49.05 121.48 48.76 121.83 47.87 122.18 53.5 122.53 53.79 122.88 51.13 123.23 53.2 123.58 49.05 123.93 52.01 124.28 54.09 124.63 55.57 124.98 52.9 125.33 52.9 125.67 56.16 126.02 57.64 126.37 59.12 126.72 58.83 127.07 62.98 127.42 64.46 127.77 65.05 128.12 61.2 128.47 61.79 128.82 67.72 129.17 72.16 129.51 77.49 129.86 74.23 130.21 69.79 130.56 65.35 130.91 62.98 131.26 64.46 131.61 66.83 131.96 68.01 132.31 69.79 132.66 68.01 133.01 69.2 133.36 62.68 133.7 61.79 134.05 62.68 134.4 62.38 134.75 60.9 135.1 65.94 135.45 62.38 135.8 64.46 136.15 73.34 136.5 72.46 136.85 69.79 137.2 70.09 137.55 65.94 137.89 67.12 138.24 66.53 138.59 66.23 138.94 68.9 139.29 75.42 139.64 71.27 139.99 74.23 140.34 74.53 140.69 75.42 141.04 74.23 141.39 73.94 141.73 72.75 142.08 75.71 142.43 71.57 142.78 70.09 143.13 68.31 143.48 67.72 143.83 66.23 144.18 68.31 144.53 63.86 144.88 62.68 145.23 60.01 145.58 62.98 145.92 67.12 146.27 66.53 146.62 65.35 146.97 65.94 147.32 66.53 147.67 60.9 148.02 58.53 148.37 60.01 148.72 62.38 149.07 59.42 149.42 60.61 149.76 59.72 150.11 57.64 150.46 54.68 150.81 58.83 151.16 60.01 151.51 64.16 151.86 62.98 152.21 62.38 152.56 65.05 152.91 66.53 153.26 71.57 153.61 70.38 153.95 71.57 154.3 73.64 154.65 77.49 155 82.23 155.35 84.31 155.7 82.53 156.05 81.64 156.4 74.83 156.75 69.49 157.1 69.2 157.45 71.57 157.79 74.83 158.14 77.49 158.49 75.12 158.84 71.57 159.19 67.12 159.54 66.53 159.89 66.53 160.24 65.35 160.59 62.09 160.94 64.16 161.29 67.72 161.64 60.61 161.98 61.79 162.33 62.98 162.68 67.42 163.03 70.97 163.38 74.23 163.73 78.38 164.08 78.38 164.43 81.64 164.78 75.71 165.13 72.16 165.48 74.23 165.83 74.53 166.17 70.97 166.52 70.38 166.87 76.01 167.22 76.9 167.57 80.16 167.92 83.71 168.27 84.01 168.62 84.6 168.97 86.38 169.32 88.16 169.67 86.68 170.01 86.68 170.36 87.27 170.71 83.12 171.06 79.86 171.41 75.42 171.76 79.27 172.11 78.38 172.46 72.75 172.81 70.68 173.16 70.09 173.51 65.05 173.86 66.23 174.2 64.75 174.55 65.05 174.9 61.79 175.25 55.87 175.6 49.94 175.95 53.2 176.3 52.31 176.65 54.98 177 52.01 177.35 57.35 177.7 53.2 178.04 50.53 178.39 47.57 178.74 46.68 179.09 45.2 179.44 40.46 179.79 39.87 180.14 36.31 180.49 33.65 180.84 29.2 181.19 31.28 181.54 29.5 181.89 27.42 182.23 27.42 182.58 27.42 182.93 27.42 183.28 25.94 183.63 26.54 183.98 25.05 184.33 28.91 184.68 30.39 185.03 31.87 185.38 28.31 185.73 24.76 186.08 26.24 186.42 25.94 186.77 27.42 187.12 28.31 187.47 26.83 187.82 25.05 188.17 22.39 188.52 23.28 188.87 22.68 189.22 23.87 189.57 23.28 189.92 22.39 190.26 23.28 190.61 23.87 190.96 24.76 191.31 27.72 191.66 25.35 192.01 25.65 192.36 25.94 192.71 28.31 193.06 28.02 193.41 26.54 193.76 23.28 194.11 25.05 194.45 22.98 194.8 23.28 195.15 22.09 195.5 22.98 195.85 22.68 196.2 20.61"/>
      </g>
      <g stroke-width="0.3" fill="#000000" fill-opacity="0.000" class="geometry" stroke-dasharray="none" stroke="#FDAE61" id="img-786bb0d5-16">
        <path fill="none" d="M21.98,71.86 L 22.33 67.12 22.68 65.94 23.03 65.94 23.38 71.86 23.73 73.34 24.08 73.34 24.42 74.53 24.77 69.79 25.12 68.01 25.47 62.38 25.82 65.64 26.17 65.35 26.52 66.53 26.87 67.12 27.22 65.94 27.57 60.9 27.92 63.86 28.27 61.49 28.61 63.57 28.96 63.57 29.31 66.83 29.66 67.72 30.01 66.53 30.36 70.38 30.71 70.97 31.06 76.01 31.41 71.86 31.76 74.53 32.11 76.9 32.45 75.42 32.8 73.05 33.15 73.94 33.5 76.01 33.85 77.49 34.2 77.2 34.55 75.42 34.9 68.9 35.25 75.71 35.6 70.97 35.95 71.86 36.3 67.42 36.64 71.57 36.99 69.79 37.34 70.38 37.69 69.79 38.04 69.79 38.39 75.12 38.74 76.31 39.09 76.01 39.44 76.01 39.79 75.71 40.14 75.71 40.49 75.42 40.83 78.38 41.18 78.97 41.53 77.79 41.88 77.79 42.23 79.57 42.58 80.75 42.93 86.08 43.28 82.23 43.63 78.08 43.98 74.23 44.33 75.42 44.67 75.42 45.02 73.34 45.37 72.46 45.72 71.27 46.07 73.94 46.42 75.71 46.77 70.38 47.12 67.72 47.47 72.16 47.82 73.34 48.17 73.94 48.52 70.38 48.86 69.79 49.21 67.72 49.56 71.27 49.91 74.23 50.26 73.64 50.61 73.34 50.96 74.83 51.31 75.42 51.66 74.53 52.01 68.31 52.36 69.2 52.7 66.83 53.05 67.72 53.4 69.2 53.75 71.27 54.1 69.79 54.45 70.97 54.8 65.64 55.15 65.64 55.5 63.27 55.85 66.53 56.2 62.09 56.55 65.64 56.89 60.31 57.24 64.16 57.59 65.94 57.94 70.68 58.29 69.2 58.64 71.86 58.99 67.72 59.34 66.23 59.69 65.35 60.04 68.01 60.39 61.79 60.73 64.16 61.08 63.57 61.43 62.09 61.78 57.35 62.13 53.79 62.48 52.01 62.83 52.31 63.18 52.61 63.53 53.2 63.88 48.76 64.23 51.72 64.58 48.76 64.92 46.68 65.27 43.72 65.62 44.9 65.97 49.35 66.32 54.09 66.67 55.87 67.02 52.9 67.37 56.75 67.72 54.68 68.07 50.53 68.42 50.83 68.77 49.64 69.11 42.83 69.46 45.79 69.81 45.5 70.16 46.98 70.51 46.98 70.86 46.68 71.21 43.13 71.56 43.42 71.91 42.53 72.26 44.02 72.61 46.09 72.95 48.16 73.3 49.05 73.65 48.46 74 48.16 74.35 45.2 74.7 46.68 75.05 46.98 75.4 46.39 75.75 40.76 76.1 40.16 76.45 41.94 76.8 43.42 77.14 46.39 77.49 44.9 77.84 47.87 78.19 46.68 78.54 46.68 78.89 46.68 79.24 44.31 79.59 44.31 79.94 43.72 80.29 40.16 80.64 43.72 80.98 42.24 81.33 41.64 81.68 40.16 82.03 38.09 82.38 39.57 82.73 40.76 83.08 41.94 83.43 40.16 83.78 40.46 84.13 41.35 84.48 40.16 84.83 43.42 85.17 46.09 85.52 46.68 85.87 47.87 86.22 47.57 86.57 44.9 86.92 44.02 87.27 46.39 87.62 45.5 87.97 47.87 88.32 51.72 88.67 50.83 89.02 49.64 89.36 44.31 89.71 44.31 90.06 46.39 90.41 44.02 90.76 42.53 91.11 36.31 91.46 36.02 91.81 38.68 92.16 38.39 92.51 37.5 92.86 39.57 93.2 38.68 93.55 41.35 93.9 41.64 94.25 42.53 94.6 47.27 94.95 49.05 95.3 50.53 95.65 53.2 96 54.38 96.35 59.72 96.7 55.87 97.05 53.79 97.39 54.68 97.74 56.16 98.09 56.75 98.44 57.64 98.79 54.68 99.14 48.76 99.49 46.68 99.84 48.16 100.19 45.5 100.54 48.76 100.89 48.46 101.23 45.79 101.58 46.98 101.93 50.83 102.28 53.2 102.63 54.09 102.98 50.83 103.33 51.13 103.68 50.24 104.03 51.13 104.38 56.46 104.73 56.75 105.08 61.2 105.42 64.16 105.77 62.09 106.12 57.64 106.47 57.35 106.82 57.35 107.17 52.31 107.52 49.94 107.87 52.61 108.22 51.13 108.57 49.35 108.92 49.64 109.26 47.57 109.61 47.87 109.96 51.72 110.31 47.27 110.66 52.61 111.01 53.2 111.36 55.27 111.71 58.83 112.06 57.64 112.41 61.2 112.76 58.53 113.11 52.61 113.45 57.05 113.8 58.53 114.15 62.98 114.5 67.42 114.85 67.72 115.2 66.23 115.55 69.79 115.9 74.23 116.25 70.09 116.6 61.49 116.95 68.6 117.3 72.16 117.64 76.31 117.99 81.05 118.34 84.31 118.69 85.19 119.04 89.64 119.39 88.45 119.74 88.45 120.09 92.01 120.44 92.9 120.79 95.86 121.14 94.08 121.48 91.12 121.83 93.49 122.18 93.49 122.53 89.64 122.88 91.42 123.23 93.19 123.58 96.75 123.93 95.86 124.28 96.75 124.63 100.3 124.98 102.67 125.33 98.23 125.67 97.93 126.02 95.56 126.37 93.49 126.72 91.42 127.07 93.79 127.42 91.71 127.77 86.68 128.12 91.12 128.47 89.64 128.82 86.08 129.17 88.75 129.51 90.53 129.86 87.57 130.21 89.34 130.56 89.05 130.91 88.75 131.26 93.49 131.61 87.27 131.96 84.6 132.31 85.49 132.66 86.38 133.01 87.27 133.36 88.16 133.7 91.71 134.05 92.9 134.4 92.01 134.75 91.12 135.1 89.34 135.45 86.38 135.8 86.97 136.15 84.01 136.5 80.16 136.85 83.12 137.2 78.97 137.55 81.94 137.89 82.23 138.24 79.57 138.59 77.79 138.94 73.94 139.29 73.64 139.64 67.42 139.99 67.12 140.34 67.12 140.69 63.57 141.04 67.42 141.39 68.6 141.73 69.49 142.08 73.34 142.43 77.49 142.78 78.38 143.13 80.45 143.48 77.49 143.83 82.23 144.18 76.01 144.53 80.16 144.88 79.86 145.23 75.71 145.58 76.6 145.92 80.45 146.27 75.71 146.62 78.08 146.97 78.97 147.32 83.12 147.67 87.27 148.02 87.86 148.37 84.01 148.72 86.97 149.07 91.42 149.42 97.93 149.76 100.01 150.11 96.45 150.46 94.08 150.81 89.34 151.16 90.82 151.51 86.97 151.86 84.01 152.21 82.82 152.56 79.86 152.91 84.01 153.26 85.49 153.61 86.38 153.95 86.68 154.3 88.45 154.65 89.64 155 90.23 155.35 87.57 155.7 86.08 156.05 84.01 156.4 85.49 156.75 90.53 157.1 90.82 157.45 90.53 157.79 92.31 158.14 87.57 158.49 84.9 158.84 85.19 159.19 87.86 159.54 88.75 159.89 88.16 160.24 92.31 160.59 85.79 160.94 85.19 161.29 85.19 161.64 88.45 161.98 91.12 162.33 93.79 162.68 90.23 163.03 88.16 163.38 85.79 163.73 89.05 164.08 87.57 164.43 84.6 164.78 88.75 165.13 90.53 165.48 86.97 165.83 86.38 166.17 87.86 166.52 88.16 166.87 88.75 167.22 84.6 167.57 83.71 167.92 85.79 168.27 89.94 168.62 87.86 168.97 87.86 169.32 85.79 169.67 84.01 170.01 83.12 170.36 82.53 170.71 80.16 171.06 90.23 171.41 94.97 171.76 96.45 172.11 98.53 172.46 98.82 172.81 100.01 173.16 101.79 173.51 102.67 173.86 102.38 174.2 101.19 174.55 101.79 174.9 100.01 175.25 95.56 175.6 92.9 175.95 93.19 176.3 93.79 176.65 95.27 177 95.86 177.35 96.75 177.7 102.08 178.04 100.9 178.39 96.16 178.74 95.56 179.09 96.45 179.44 95.27 179.79 94.38 180.14 92.6 180.49 90.53 180.84 93.19 181.19 90.53 181.54 94.08 181.89 95.27 182.23 95.56 182.58 94.97 182.93 94.68 183.28 94.97 183.63 91.71 183.98 89.34 184.33 92.31 184.68 95.27 185.03 93.49 185.38 89.05 185.73 90.53 186.08 90.23 186.42 96.45 186.77 95.86 187.12 95.56 187.47 94.08 187.82 93.19 188.17 92.9 188.52 96.16 188.87 96.45 189.22 93.79 189.57 94.68 189.92 97.64 190.26 100.6 190.61 102.38 190.96 105.93 191.31 105.34 191.66 104.45 192.01 103.56 192.36 104.16 192.71 102.67 193.06 101.49 193.41 102.67 193.76 100.6 194.11 99.71 194.45 99.71 194.8 101.49 195.15 102.08 195.5 102.38 195.85 102.38 196.2 102.67"/>
      </g>
      <g stroke-width="0.3" fill="#000000" fill-opacity="0.000" class="geometry" stroke-dasharray="none" stroke="#F46D43" id="img-786bb0d5-17">
        <path fill="none" d="M21.98,71.86 L 22.33 70.97 22.68 64.75 23.03 62.38 23.38 65.94 23.73 64.16 24.08 64.46 24.42 60.61 24.77 62.38 25.12 59.72 25.47 58.24 25.82 59.12 26.17 61.79 26.52 60.61 26.87 65.94 27.22 66.23 27.57 67.42 27.92 70.09 28.27 66.83 28.61 63.57 28.96 66.83 29.31 65.94 29.66 65.94 30.01 63.86 30.36 65.05 30.71 65.64 31.06 66.83 31.41 73.34 31.76 75.71 32.11 79.27 32.45 78.68 32.8 82.23 33.15 84.31 33.5 82.82 33.85 81.34 34.2 83.12 34.55 83.71 34.9 80.45 35.25 83.12 35.6 85.19 35.95 81.94 36.3 79.57 36.64 76.6 36.99 75.71 37.34 73.64 37.69 75.71 38.04 78.97 38.39 86.08 38.74 85.19 39.09 81.94 39.44 81.64 39.79 85.49 40.14 82.82 40.49 81.34 40.83 82.53 41.18 83.42 41.53 80.45 41.88 78.08 42.23 76.9 42.58 79.57 42.93 85.49 43.28 86.97 43.63 85.49 43.98 88.75 44.33 85.79 44.67 85.79 45.02 83.12 45.37 78.68 45.72 74.83 46.07 77.49 46.42 79.57 46.77 81.94 47.12 84.6 47.47 85.49 47.82 82.23 48.17 83.42 48.52 86.38 48.86 88.16 49.21 88.75 49.56 89.34 49.91 88.45 50.26 84.01 50.61 82.53 50.96 78.68 51.31 80.75 51.66 81.94 52.01 80.75 52.36 80.75 52.7 80.16 53.05 78.08 53.4 80.75 53.75 80.16 54.1 80.16 54.45 81.05 54.8 74.83 55.15 75.71 55.5 75.12 55.85 78.68 56.2 80.45 56.55 78.38 56.89 80.45 57.24 81.64 57.59 80.45 57.94 80.75 58.29 81.64 58.64 81.64 58.99 83.42 59.34 83.42 59.69 81.94 60.04 83.42 60.39 87.86 60.73 88.75 61.08 85.79 61.43 84.01 61.78 85.49 62.13 81.34 62.48 82.23 62.83 83.71 63.18 84.31 63.53 86.68 63.88 86.38 64.23 84.01 64.58 85.79 64.92 92.6 65.27 95.27 65.62 94.97 65.97 89.05 66.32 86.68 66.67 84.6 67.02 88.16 67.37 89.05 67.72 88.75 68.07 83.71 68.42 85.19 68.77 84.31 69.11 78.97 69.46 78.97 69.81 80.16 70.16 79.57 70.51 80.75 70.86 81.64 71.21 78.68 71.56 78.68 71.91 76.01 72.26 74.83 72.61 76.6 72.95 75.71 73.3 78.68 73.65 79.57 74 76.6 74.35 79.27 74.7 81.34 75.05 82.23 75.4 79.86 75.75 85.19 76.1 92.6 76.45 93.19 76.8 95.86 77.14 96.75 77.49 95.86 77.84 90.53 78.19 94.08 78.54 94.08 78.89 92.6 79.24 101.49 79.59 101.19 79.94 102.38 80.29 104.16 80.64 106.23 80.98 110.08 81.33 112.75 81.68 111.86 82.03 114.52 82.38 112.15 82.73 109.49 83.08 107.41 83.43 108.6 83.78 111.56 84.13 112.75 84.48 113.64 84.83 115.41 85.17 116.3 85.52 118.38 85.87 117.19 86.22 114.23 86.57 113.93 86.92 115.71 87.27 116.6 87.62 118.08 87.97 116.3 88.32 117.78 88.67 116.01 89.02 117.19 89.36 119.86 89.71 122.52 90.06 123.71 90.41 124.89 90.76 123.71 91.11 123.12 91.46 124 91.81 121.63 92.16 123.41 92.51 123.12 92.86 124 93.2 124.3 93.55 126.37 93.9 124.6 94.25 124.6 94.6 124.6 94.95 125.49 95.3 124.6 95.65 125.78 96 124.89 96.35 124.6 96.7 122.52 97.05 120.45 97.39 123.41 97.74 125.49 98.09 126.37 98.44 128.45 98.79 128.74 99.14 128.15 99.49 128.45 99.84 128.45 100.19 128.74 100.54 129.63 100.89 130.23 101.23 130.52 101.58 130.23 101.93 130.23 102.28 130.23 102.63 130.52 102.98 130.82 103.33 130.52 103.68 130.23 104.03 130.23 104.38 130.52 104.73 130.23 105.08 129.04 105.42 130.23 105.77 129.93 106.12 129.34 106.47 129.93 106.82 130.52 107.17 129.93 107.52 129.34 107.87 129.04 108.22 128.74 108.57 129.04 108.92 128.45 109.26 129.34 109.61 129.34 109.96 129.93 110.31 129.63 110.66 128.74 111.01 129.34 111.36 129.34 111.71 129.93 112.06 129.34 112.41 128.74 112.76 128.15 113.11 128.15 113.45 128.74 113.8 129.04 114.15 129.04 114.5 128.45 114.85 129.34 115.2 128.15 115.55 127.26 115.9 127.26 116.25 126.37 116.6 125.49 116.95 126.37 117.3 124 117.64 123.41 117.99 124.3 118.34 126.37 118.69 127.26 119.04 127.86 119.39 128.74 119.74 128.74 120.09 129.63 120.44 130.52 120.79 130.23 121.14 128.15 121.48 129.34 121.83 129.34 122.18 129.34 122.53 129.63 122.88 130.52 123.23 130.23 123.58 130.23 123.93 129.93 124.28 129.63 124.63 129.34 124.98 128.74 125.33 128.74 125.67 128.74 126.02 128.74 126.37 128.74 126.72 129.63 127.07 129.04 127.42 129.04 127.77 129.63 128.12 129.34 128.47 128.74 128.82 128.74 129.17 127.56 129.51 129.04 129.86 128.45 130.21 128.15 130.56 127.26 130.91 125.78 131.26 126.08 131.61 128.15 131.96 128.45 132.31 127.86 132.66 126.67 133.01 126.97 133.36 126.37 133.7 127.26 134.05 126.97 134.4 126.97 134.75 128.74 135.1 128.15 135.45 127.56 135.8 127.86 136.15 129.34 136.5 130.23 136.85 129.34 137.2 128.15 137.55 128.15 137.89 129.04 138.24 130.23 138.59 129.04 138.94 128.74 139.29 128.74 139.64 126.97 139.99 126.67 140.34 129.04 140.69 128.15 141.04 127.26 141.39 127.26 141.73 126.97 142.08 126.37 142.43 128.74 142.78 129.34 143.13 129.04 143.48 129.63 143.83 129.63 144.18 129.63 144.53 129.93 144.88 129.34 145.23 129.93 145.58 128.74 145.92 128.74 146.27 128.15 146.62 129.04 146.97 129.93 147.32 129.34 147.67 126.67 148.02 124.89 148.37 124.3 148.72 124.89 149.07 126.08 149.42 125.49 149.76 124.89 150.11 124.6 150.46 122.52 150.81 122.52 151.16 124.89 151.51 124.6 151.86 123.41 152.21 123.71 152.56 124.3 152.91 124.6 153.26 127.26 153.61 127.86 153.95 128.15 154.3 129.04 154.65 128.15 155 127.86 155.35 128.15 155.7 128.45 156.05 128.74 156.4 128.15 156.75 128.74 157.1 128.15 157.45 127.26 157.79 128.74 158.14 127.26 158.49 129.04 158.84 128.74 159.19 129.63 159.54 129.93 159.89 130.23 160.24 129.93 160.59 130.23 160.94 130.82 161.29 130.82 161.64 130.23 161.98 129.93 162.33 129.34 162.68 127.56 163.03 128.15 163.38 126.08 163.73 127.56 164.08 127.56 164.43 127.56 164.78 127.86 165.13 126.67 165.48 125.78 165.83 124.6 166.17 123.71 166.52 124.3 166.87 123.41 167.22 125.49 167.57 126.08 167.92 126.08 168.27 125.49 168.62 127.26 168.97 128.15 169.32 129.63 169.67 127.26 170.01 126.67 170.36 127.56 170.71 128.74 171.06 128.74 171.41 128.45 171.76 129.34 172.11 129.34 172.46 128.74 172.81 128.45 173.16 126.67 173.51 126.97 173.86 128.15 174.2 127.56 174.55 127.26 174.9 128.74 175.25 128.45 175.6 128.45 175.95 128.45 176.3 127.86 176.65 129.34 177 129.93 177.35 129.63 177.7 129.93 178.04 128.15 178.39 127.56 178.74 127.86 179.09 126.97 179.44 126.67 179.79 127.26 180.14 126.37 180.49 127.56 180.84 128.15 181.19 128.74 181.54 127.56 181.89 125.49 182.23 125.49 182.58 127.86 182.93 128.74 183.28 128.45 183.63 127.86 183.98 127.26 184.33 125.78 184.68 124.3 185.03 123.71 185.38 124.3 185.73 124.6 186.08 126.08 186.42 124.6 186.77 123.41 187.12 123.71 187.47 124.6 187.82 121.34 188.17 120.45 188.52 119.26 188.87 120.75 189.22 123.41 189.57 127.86 189.92 127.56 190.26 128.15 190.61 126.08 190.96 125.78 191.31 123.12 191.66 124.6 192.01 125.19 192.36 126.97 192.71 126.37 193.06 126.37 193.41 126.37 193.76 125.78 194.11 128.15 194.45 127.56 194.8 126.08 195.15 123.12 195.5 121.93 195.85 123.41 196.2 127.86"/>
      </g>
      <g stroke-width="0.3" fill="#000000" fill-opacity="0.000" class="geometry" stroke-dasharray="none" stroke="#D53E4F" id="img-786bb0d5-18">
        <path fill="none" d="M21.98,71.86 L 22.33 71.57 22.68 69.49 23.03 68.01 23.38 71.86 23.73 73.34 24.08 76.9 24.42 76.6 24.77 75.71 25.12 72.75 25.47 74.53 25.82 73.05 26.17 73.94 26.52 73.34 26.87 71.86 27.22 70.68 27.57 74.83 27.92 79.57 28.27 80.75 28.61 76.6 28.96 79.27 29.31 80.45 29.66 80.45 30.01 81.05 30.36 85.79 30.71 84.31 31.06 81.94 31.41 82.53 31.76 86.97 32.11 89.64 32.45 93.79 32.8 90.23 33.15 88.75 33.5 93.49 33.85 95.56 34.2 98.23 34.55 98.82 34.9 98.23 35.25 93.79 35.6 97.64 35.95 105.04 36.3 103.27 36.64 101.49 36.99 102.97 37.34 104.45 37.69 103.56 38.04 104.16 38.39 97.34 38.74 97.64 39.09 98.23 39.44 99.12 39.79 101.19 40.14 100.9 40.49 105.04 40.83 103.56 41.18 106.23 41.53 108.9 41.88 110.97 42.23 110.08 42.58 108.6 42.93 108.3 43.28 108.6 43.63 106.23 43.98 108.01 44.33 108.3 44.67 107.41 45.02 110.38 45.37 111.27 45.72 108.6 46.07 111.56 46.42 112.45 46.77 113.64 47.12 110.97 47.47 112.15 47.82 113.93 48.17 110.97 48.52 112.15 48.86 113.64 49.21 112.45 49.56 112.15 49.91 109.78 50.26 108.6 50.61 107.71 50.96 105.64 51.31 104.16 51.66 103.86 52.01 108.3 52.36 106.53 52.7 98.82 53.05 99.12 53.4 104.16 53.75 102.38 54.1 100.3 54.45 98.82 54.8 99.71 55.15 100.01 55.5 103.56 55.85 101.49 56.2 103.86 56.55 103.56 56.89 105.93 57.24 103.86 57.59 106.82 57.94 104.16 58.29 102.38 58.64 100.6 58.99 97.05 59.34 95.86 59.69 98.23 60.04 101.19 60.39 104.75 60.73 106.23 61.08 107.71 61.43 112.15 61.78 116.01 62.13 115.12 62.48 114.82 62.83 114.82 63.18 116.3 63.53 110.97 63.88 108.9 64.23 108.01 64.58 106.23 64.92 107.12 65.27 109.78 65.62 110.97 65.97 110.08 66.32 109.19 66.67 110.38 67.02 113.04 67.37 115.41 67.72 118.67 68.07 117.78 68.42 120.75 68.77 118.67 69.11 116.6 69.46 115.71 69.81 112.75 70.16 113.93 70.51 114.52 70.86 113.64 71.21 116.01 71.56 118.38 71.91 117.19 72.26 118.38 72.61 118.08 72.95 117.78 73.3 119.26 73.65 119.56 74 116.6 74.35 113.93 74.7 115.12 75.05 116.3 75.4 117.49 75.75 114.52 76.1 114.52 76.45 116.3 76.8 118.97 77.14 118.97 77.49 118.38 77.84 120.45 78.19 122.23 78.54 123.41 78.89 121.63 79.24 119.56 79.59 117.78 79.94 116.89 80.29 117.19 80.64 121.04 80.98 119.86 81.33 119.86 81.68 120.45 82.03 119.86 82.38 118.38 82.73 118.38 83.08 116.3 83.43 112.45 83.78 113.93 84.13 112.45 84.48 113.34 84.83 112.45 85.17 110.67 85.52 112.45 85.87 109.78 86.22 112.45 86.57 114.23 86.92 112.45 87.27 111.56 87.62 110.67 87.97 112.75 88.32 115.12 88.67 116.6 89.02 118.08 89.36 117.19 89.71 118.97 90.06 121.04 90.41 121.04 90.76 121.04 91.11 124 91.46 123.12 91.81 123.71 92.16 121.04 92.51 123.41 92.86 122.82 93.2 124 93.55 122.82 93.9 120.15 94.25 118.08 94.6 116.3 94.95 116.89 95.3 115.41 95.65 116.3 96 117.78 96.35 118.38 96.7 118.97 97.05 122.82 97.39 123.41 97.74 121.93 98.09 121.93 98.44 122.82 98.79 118.97 99.14 118.97 99.49 120.15 99.84 119.86 100.19 121.93 100.54 124.6 100.89 126.37 101.23 127.86 101.58 127.56 101.93 126.67 102.28 126.97 102.63 125.19 102.98 124 103.33 122.52 103.68 119.86 104.03 120.75 104.38 122.82 104.73 122.52 105.08 119.56 105.42 119.56 105.77 120.75 106.12 118.67 106.47 117.78 106.82 117.49 107.17 117.49 107.52 115.41 107.87 117.78 108.22 118.67 108.57 122.23 108.92 121.04 109.26 119.26 109.61 118.08 109.96 117.49 110.31 113.93 110.66 113.64 111.01 114.23 111.36 113.93 111.71 113.93 112.06 112.75 112.41 114.82 112.76 118.38 113.11 119.86 113.45 120.75 113.8 121.04 114.15 118.38 114.5 116.6 114.85 115.12 115.2 110.08 115.55 108.3 115.9 112.75 116.25 112.75 116.6 112.15 116.95 114.82 117.3 112.45 117.64 113.93 117.99 113.34 118.34 113.34 118.69 116.01 119.04 116.3 119.39 117.19 119.74 116.89 120.09 119.56 120.44 118.97 120.79 118.97 121.14 121.34 121.48 122.82 121.83 121.34 122.18 119.26 122.53 118.38 122.88 116.01 123.23 116.3 123.58 116.01 123.93 117.49 124.28 116.6 124.63 118.08 124.98 117.49 125.33 116.3 125.67 118.38 126.02 121.63 126.37 118.97 126.72 119.56 127.07 120.15 127.42 121.04 127.77 120.75 128.12 120.45 128.47 118.97 128.82 121.63 129.17 121.04 129.51 121.63 129.86 121.63 130.21 120.75 130.56 122.23 130.91 122.23 131.26 123.71 131.61 120.15 131.96 121.04 132.31 118.67 132.66 116.6 133.01 113.93 133.36 113.93 133.7 112.45 134.05 115.12 134.4 113.04 134.75 108.6 135.1 110.67 135.45 109.78 135.8 107.41 136.15 106.23 136.5 105.34 136.85 106.53 137.2 106.23 137.55 105.34 137.89 108.3 138.24 110.08 138.59 109.49 138.94 113.34 139.29 114.82 139.64 113.04 139.99 115.41 140.34 116.89 140.69 115.71 141.04 114.23 141.39 110.67 141.73 115.71 142.08 114.82 142.43 118.38 142.78 120.45 143.13 121.04 143.48 120.15 143.83 118.67 144.18 121.34 144.53 122.23 144.88 119.26 145.23 118.67 145.58 117.49 145.92 118.97 146.27 118.97 146.62 121.04 146.97 119.56 147.32 118.08 147.67 117.49 148.02 116.6 148.37 118.67 148.72 118.08 149.07 113.64 149.42 111.27 149.76 112.45 150.11 112.45 150.46 113.04 150.81 116.89 151.16 116.6 151.51 116.89 151.86 117.49 152.21 116.3 152.56 118.08 152.91 118.38 153.26 121.34 153.61 118.08 153.95 118.38 154.3 118.38 154.65 118.38 155 119.26 155.35 119.56 155.7 117.19 156.05 118.08 156.4 117.78 156.75 116.6 157.1 114.52 157.45 111.56 157.79 113.34 158.14 115.12 158.49 116.3 158.84 116.6 159.19 116.89 159.54 116.6 159.89 120.75 160.24 119.86 160.59 120.75 160.94 119.56 161.29 119.26 161.64 115.71 161.98 114.23 162.33 111.27 162.68 110.67 163.03 110.38 163.38 109.78 163.73 110.38 164.08 105.34 164.43 106.53 164.78 107.12 165.13 110.38 165.48 106.82 165.83 103.86 166.17 103.86 166.52 105.34 166.87 106.23 167.22 107.71 167.57 103.27 167.92 104.45 168.27 104.45 168.62 107.41 168.97 105.34 169.32 103.86 169.67 97.64 170.01 100.3 170.36 102.08 170.71 101.49 171.06 96.16 171.41 95.56 171.76 94.08 172.11 94.08 172.46 96.16 172.81 96.45 173.16 99.12 173.51 103.27 173.86 102.38 174.2 101.79 174.55 103.86 174.9 100.01 175.25 99.12 175.6 96.75 175.95 100.3 176.3 103.56 176.65 107.71 177 105.93 177.35 110.97 177.7 110.67 178.04 113.34 178.39 113.04 178.74 111.56 179.09 111.27 179.44 108.3 179.79 110.38 180.14 108.6 180.49 106.53 180.84 107.12 181.19 109.78 181.54 105.04 181.89 104.16 182.23 104.75 182.58 103.86 182.93 102.67 183.28 98.53 183.63 100.01 183.98 103.86 184.33 100.9 184.68 103.56 185.03 106.53 185.38 106.23 185.73 107.41 186.08 110.08 186.42 109.78 186.77 111.86 187.12 110.97 187.47 110.97 187.82 115.12 188.17 112.15 188.52 114.23 188.87 114.82 189.22 115.71 189.57 116.6 189.92 116.6 190.26 115.71 190.61 115.12 190.96 113.64 191.31 113.04 191.66 111.86 192.01 112.15 192.36 116.6 192.71 118.38 193.06 118.67 193.41 117.19 193.76 118.97 194.11 120.75 194.45 121.93 194.8 122.82 195.15 123.12 195.5 125.49 195.85 124.6 196.2 126.67"/>
      </g>
      <g stroke-width="0.3" fill="#000000" fill-opacity="0.000" class="geometry" stroke-dasharray="none" stroke="#9E0142" id="img-786bb0d5-19">
        <path fill="none" d="M21.98,71.86 L 22.33 72.46 22.68 72.75 23.03 70.97 23.38 67.72 23.73 66.53 24.08 66.53 24.42 67.42 24.77 70.68 25.12 68.01 25.47 69.49 25.82 68.01 26.17 68.01 26.52 69.2 26.87 72.75 27.22 73.34 27.57 74.53 27.92 72.16 28.27 72.46 28.61 72.75 28.96 73.34 29.31 76.31 29.66 76.9 30.01 77.49 30.36 78.38 30.71 81.34 31.06 75.42 31.41 78.08 31.76 75.71 32.11 75.42 32.45 79.27 32.8 81.34 33.15 79.57 33.5 82.82 33.85 86.68 34.2 81.34 34.55 81.34 34.9 79.27 35.25 81.34 35.6 80.75 35.95 80.16 36.3 83.71 36.64 83.42 36.99 80.45 37.34 77.79 37.69 80.16 38.04 85.19 38.39 83.42 38.74 83.42 39.09 80.45 39.44 77.49 39.79 73.05 40.14 76.6 40.49 78.97 40.83 86.97 41.18 82.23 41.53 91.42 41.88 91.71 42.23 92.31 42.58 85.79 42.93 85.79 43.28 81.05 43.63 78.38 43.98 75.42 44.33 79.57 44.67 75.12 45.02 77.2 45.37 77.79 45.72 78.38 46.07 77.79 46.42 78.97 46.77 79.57 47.12 76.6 47.47 76.6 47.82 83.12 48.17 85.49 48.52 86.08 48.86 89.64 49.21 87.57 49.56 87.86 49.91 86.38 50.26 84.9 50.61 88.75 50.96 89.34 51.31 91.71 51.66 93.49 52.01 94.68 52.36 95.86 52.7 96.75 53.05 94.08 53.4 92.9 53.75 92.9 54.1 93.19 54.45 97.93 54.8 100.9 55.15 101.19 55.5 100.3 55.85 100.9 56.2 104.16 56.55 100.9 56.89 104.16 57.24 104.16 57.59 102.67 57.94 102.08 58.29 100.01 58.64 97.34 58.99 97.93 59.34 95.27 59.69 95.86 60.04 91.71 60.39 94.38 60.73 90.23 61.08 95.27 61.43 96.16 61.78 95.27 62.13 97.05 62.48 100.6 62.83 103.27 63.18 105.93 63.53 104.16 63.88 103.56 64.23 95.56 64.58 95.27 64.92 96.75 65.27 97.34 65.62 96.75 65.97 98.53 66.32 102.08 66.67 100.01 67.02 100.9 67.37 95.27 67.72 98.23 68.07 100.01 68.42 102.97 68.77 102.97 69.11 104.16 69.46 99.12 69.81 99.12 70.16 100.9 70.51 102.08 70.86 97.05 71.21 99.12 71.56 98.23 71.91 98.82 72.26 99.12 72.61 99.71 72.95 96.45 73.3 97.05 73.65 101.19 74 97.64 74.35 100.6 74.7 102.67 75.05 104.45 75.4 110.67 75.75 109.49 76.1 110.67 76.45 110.08 76.8 110.38 77.14 110.67 77.49 109.78 77.84 107.71 78.19 102.67 78.54 102.67 78.89 104.16 79.24 103.27 79.59 102.38 79.94 99.42 80.29 99.42 80.64 100.01 80.98 101.49 81.33 102.08 81.68 100.9 82.03 97.64 82.38 94.97 82.73 96.75 83.08 98.53 83.43 96.75 83.78 98.53 84.13 100.6 84.48 97.93 84.83 96.75 85.17 97.34 85.52 97.05 85.87 100.3 86.22 102.38 86.57 104.75 86.92 107.41 87.27 107.41 87.62 108.9 87.97 107.12 88.32 105.64 88.67 103.56 89.02 105.04 89.36 106.23 89.71 102.67 90.06 100.9 90.41 100.6 90.76 102.67 91.11 103.86 91.46 100.9 91.81 99.42 92.16 97.93 92.51 97.34 92.86 98.23 93.2 98.82 93.55 101.79 93.9 95.27 94.25 97.64 94.6 97.05 94.95 93.79 95.3 99.12 95.65 96.75 96 97.34 96.35 95.86 96.7 88.45 97.05 87.27 97.39 89.05 97.74 86.97 98.09 89.34 98.44 84.01 98.79 81.94 99.14 82.53 99.49 77.49 99.84 86.38 100.19 86.08 100.54 85.79 100.89 80.45 101.23 73.94 101.58 76.9 101.93 79.57 102.28 76.01 102.63 76.31 102.98 79.86 103.33 80.45 103.68 79.86 104.03 83.42 104.38 84.31 104.73 83.12 105.08 78.08 105.42 76.9 105.77 76.9 106.12 73.05 106.47 68.6 106.82 67.12 107.17 72.16 107.52 74.53 107.87 79.27 108.22 75.42 108.57 76.01 108.92 73.94 109.26 77.2 109.61 80.16 109.96 76.9 110.31 78.08 110.66 86.97 111.01 89.05 111.36 95.56 111.71 90.53 112.06 94.97 112.41 98.82 112.76 96.75 113.11 97.93 113.45 99.42 113.8 96.16 114.15 91.42 114.5 89.64 114.85 91.42 115.2 93.49 115.55 88.16 115.9 95.56 116.25 97.93 116.6 97.05 116.95 99.71 117.3 97.93 117.64 96.75 117.99 97.05 118.34 98.23 118.69 97.05 119.04 99.12 119.39 98.53 119.74 100.6 120.09 97.64 120.44 98.23 120.79 93.79 121.14 93.19 121.48 94.08 121.83 90.82 122.18 91.42 122.53 89.64 122.88 90.82 123.23 90.53 123.58 90.82 123.93 88.16 124.28 92.6 124.63 91.12 124.98 89.64 125.33 87.57 125.67 89.34 126.02 81.34 126.37 80.45 126.72 80.75 127.07 79.57 127.42 76.6 127.77 74.83 128.12 76.9 128.47 76.01 128.82 74.53 129.17 70.38 129.51 71.57 129.86 68.6 130.21 68.9 130.56 67.12 130.91 69.79 131.26 78.68 131.61 78.38 131.96 81.05 132.31 82.82 132.66 85.49 133.01 85.19 133.36 86.38 133.7 81.94 134.05 85.79 134.4 86.68 134.75 86.38 135.1 84.9 135.45 85.19 135.8 84.6 136.15 85.79 136.5 81.64 136.85 89.34 137.2 87.86 137.55 81.64 137.89 76.9 138.24 75.42 138.59 74.83 138.94 72.75 139.29 73.05 139.64 74.53 139.99 72.16 140.34 71.57 140.69 67.42 141.04 67.12 141.39 65.64 141.73 69.49 142.08 71.57 142.43 69.49 142.78 69.49 143.13 73.64 143.48 76.6 143.83 76.9 144.18 76.01 144.53 74.53 144.88 74.23 145.23 72.16 145.58 72.75 145.92 77.2 146.27 76.31 146.62 79.57 146.97 75.42 147.32 75.42 147.67 76.6 148.02 78.38 148.37 80.75 148.72 87.57 149.07 86.97 149.42 84.01 149.76 84.6 150.11 82.82 150.46 81.34 150.81 82.82 151.16 84.31 151.51 80.75 151.86 79.86 152.21 82.53 152.56 82.53 152.91 83.42 153.26 88.16 153.61 85.49 153.95 84.6 154.3 82.82 154.65 81.64 155 78.08 155.35 83.12 155.7 77.79 156.05 77.49 156.4 76.9 156.75 68.31 157.1 71.57 157.45 73.64 157.79 67.12 158.14 66.83 158.49 62.98 158.84 60.61 159.19 60.9 159.54 59.42 159.89 55.57 160.24 54.98 160.59 61.49 160.94 59.42 161.29 53.79 161.64 56.75 161.98 54.68 162.33 52.61 162.68 52.31 163.03 53.79 163.38 52.9 163.73 56.75 164.08 55.27 164.43 56.16 164.78 54.68 165.13 52.61 165.48 53.5 165.83 54.68 166.17 58.53 166.52 67.72 166.87 62.68 167.22 59.12 167.57 56.75 167.92 54.98 168.27 51.13 168.62 50.53 168.97 47.27 169.32 49.94 169.67 53.79 170.01 52.61 170.36 54.09 170.71 51.13 171.06 52.61 171.41 53.2 171.76 55.87 172.11 57.94 172.46 60.9 172.81 64.46 173.16 62.98 173.51 57.35 173.86 60.01 174.2 53.2 174.55 53.79 174.9 52.31 175.25 53.2 175.6 51.42 175.95 55.87 176.3 54.98 176.65 52.31 177 49.94 177.35 50.53 177.7 52.61 178.04 53.79 178.39 54.98 178.74 54.98 179.09 53.79 179.44 57.94 179.79 58.83 180.14 55.27 180.49 48.76 180.84 51.72 181.19 49.05 181.54 47.57 181.89 50.53 182.23 49.35 182.58 50.53 182.93 49.64 183.28 54.38 183.63 52.9 183.98 53.79 184.33 57.05 184.68 57.05 185.03 53.79 185.38 55.87 185.73 55.57 186.08 51.13 186.42 53.2 186.77 56.16 187.12 52.31 187.47 54.98 187.82 56.16 188.17 57.05 188.52 59.72 188.87 62.68 189.22 69.49 189.57 66.83 189.92 62.09 190.26 65.05 190.61 64.75 190.96 68.31 191.31 70.09 191.66 74.23 192.01 73.34 192.36 74.23 192.71 76.9 193.06 76.6 193.41 76.9 193.76 72.75 194.11 76.31 194.45 76.31 194.8 79.57 195.15 80.75 195.5 79.57 195.85 71.57 196.2 70.09"/>
      </g>
    </g>
  </g>
</g>
  <g class="guide ylabels" font-size="2.82" font-family="'PT Sans Caption','Helvetica Neue','Helvetica',sans-serif" fill="#000000" id="img-786bb0d5-20">
    <text x="18.63" y="131.11" text-anchor="end" dy="0.35em">0</text>
    <text x="18.63" y="101.49" text-anchor="end" dy="0.35em">100</text>
    <text x="18.63" y="71.86" text-anchor="end" dy="0.35em">200</text>
    <text x="18.63" y="42.24" text-anchor="end" dy="0.35em">300</text>
    <text x="18.63" y="12.61" text-anchor="end" dy="0.35em">400</text>
  </g>
  <g font-size="3.88" font-family="'PT Sans','Helvetica Neue','Helvetica',sans-serif" fill="#000000" stroke="#000000" stroke-opacity="0.000" id="img-786bb0d5-21">
    <text x="8.81" y="69.86" text-anchor="middle" dy="0.35em" transform="rotate(-90, 8.81, 71.86)">population size</text>
  </g>
  <g font-size="3.88" font-family="'PT Sans','Helvetica Neue','Helvetica',sans-serif" fill="#000000" stroke="#000000" stroke-opacity="0.000" id="img-786bb0d5-22">
    <text x="108.92" y="5" text-anchor="middle" dy="0.6em">genetic drift with mutationrate  = 0.001 </text>
  </g>
</g>
<defs>
  <clipPath id="img-786bb0d5-4">
  <path d="M19.63,10.61 L 198.2 10.61 198.2 133.11 19.63 133.11" />
</clipPath>
</defs>
</svg>
