<?xml version="1.0" encoding="UTF-8"?>
<svg xmlns="http://www.w3.org/2000/svg"
     xmlns:xlink="http://www.w3.org/1999/xlink"
     xmlns:gadfly="http://www.gadflyjl.org/ns"
     version="1.2"
     width="203.2mm" height="152.4mm" viewBox="0 0 203.2 152.4"
     stroke="none"
     fill="#000000"
     stroke-width="0.3"
     font-size="3.88"
>
<g class="plotroot xscalable yscalable" id="img-7740a5e5-1">
  <g font-size="3.88" font-family="'PT Sans','Helvetica Neue','Helvetica',sans-serif" fill="#000000" stroke="#000000" stroke-opacity="0.000" id="img-7740a5e5-2">
    <text x="96.33" y="140.79" text-anchor="middle" dy="0.6em">number of A_type individuals (bin count = 50)</text>
  </g>
  <g class="guide xlabels" font-size="2.82" font-family="'PT Sans Caption','Helvetica Neue','Helvetica',sans-serif" fill="#000000" id="img-7740a5e5-3">
    <text x="20.63" y="134.11" text-anchor="middle" dy="0.6em">0</text>
    <text x="58.48" y="134.11" text-anchor="middle" dy="0.6em">100</text>
    <text x="96.33" y="134.11" text-anchor="middle" dy="0.6em">200</text>
    <text x="134.18" y="134.11" text-anchor="middle" dy="0.6em">300</text>
    <text x="172.03" y="134.11" text-anchor="middle" dy="0.6em">400</text>
  </g>
  <g class="guide colorkey" id="img-7740a5e5-4">
    <g fill="#4C404B" font-size="2.82" font-family="'PT Sans','Helvetica Neue','Helvetica',sans-serif" id="img-7740a5e5-5">
      <text x="177.85" y="109.96" dy="0.35em">histogram</text>
      <text x="177.85" y="113.59" dy="0.35em">theoretical curve</text>
    </g>
    <g stroke="#000000" stroke-opacity="0.000" id="img-7740a5e5-6">
      <rect x="175.03" y="109.06" width="1.81" height="1.81" fill="#00BFFF"/>
      <rect x="175.03" y="112.68" width="1.81" height="1.81" fill="#FFA500"/>
    </g>
    <g fill="#362A35" font-size="3.88" font-family="'PT Sans','Helvetica Neue','Helvetica',sans-serif" stroke="#000000" stroke-opacity="0.000" id="img-7740a5e5-7">
      <text x="175.03" y="106.14">Legend</text>
    </g>
  </g>
<g clip-path="url(#img-7740a5e5-8)">
  <g id="img-7740a5e5-9">
    <g pointer-events="visible" opacity="1" fill="#FFFFFF" stroke="#000000" stroke-opacity="0.000" class="guide background" id="img-7740a5e5-10">
      <rect x="18.63" y="86.81" width="155.4" height="46.3"/>
    </g>
    <g class="guide ygridlines xfixed" stroke-dasharray="0.5,0.5" stroke-width="0.2" stroke="#808080" id="img-7740a5e5-11">
      <path fill="none" d="M18.63,131.11 L 174.03 131.11"/>
      <path fill="none" d="M18.63,122.65 L 174.03 122.65"/>
      <path fill="none" d="M18.63,114.19 L 174.03 114.19"/>
      <path fill="none" d="M18.63,105.73 L 174.03 105.73"/>
      <path fill="none" d="M18.63,97.27 L 174.03 97.27"/>
      <path fill="none" d="M18.63,88.81 L 174.03 88.81"/>
    </g>
    <g class="guide xgridlines yfixed" stroke-dasharray="0.5,0.5" stroke-width="0.2" stroke="#808080" id="img-7740a5e5-12">
      <path fill="none" d="M20.63,86.81 L 20.63 133.11"/>
      <path fill="none" d="M58.48,86.81 L 58.48 133.11"/>
      <path fill="none" d="M96.33,86.81 L 96.33 133.11"/>
      <path fill="none" d="M134.18,86.81 L 134.18 133.11"/>
      <path fill="none" d="M172.03,86.81 L 172.03 133.11"/>
    </g>
    <g class="plotpanel" id="img-7740a5e5-13">
      <g stroke-width="0.3" fill="#000000" fill-opacity="0.000" class="geometry" stroke-dasharray="none" stroke="#FFA500" id="img-7740a5e5-14">
        <path fill="none" d="M21.24,120.54 L 21.85 125.81 22.46 127.56 23.06 128.44 23.67 128.97 24.28 129.32 24.89 129.57 25.5 129.75 26.1 129.9 26.71 130.02 27.32 130.11 27.93 130.19 28.54 130.26 29.14 130.32 29.75 130.37 30.36 130.41 30.97 130.45 31.58 130.48 32.18 130.51 32.79 130.54 33.4 130.57 34.01 130.59 34.62 130.61 35.22 130.63 35.83 130.65 36.44 130.66 37.05 130.68 37.66 130.69 38.26 130.7 38.87 130.72 39.48 130.73 40.09 130.74 40.7 130.75 41.3 130.76 41.91 130.76 42.52 130.77 43.13 130.78 43.74 130.79 44.35 130.79 44.95 130.8 45.56 130.81 46.17 130.81 46.78 130.82 47.39 130.82 47.99 130.83 48.6 130.83 49.21 130.84 49.82 130.84 50.43 130.85 51.03 130.85 51.64 130.86 52.25 130.86 52.86 130.86 53.47 130.87 54.07 130.87 54.68 130.87 55.29 130.88 55.9 130.88 56.51 130.88 57.11 130.88 57.72 130.89 58.33 130.89 58.94 130.89 59.55 130.89 60.15 130.9 60.76 130.9 61.37 130.9 61.98 130.9 62.59 130.9 63.19 130.91 63.8 130.91 64.41 130.91 65.02 130.91 65.63 130.91 66.23 130.91 66.84 130.92 67.45 130.92 68.06 130.92 68.67 130.92 69.27 130.92 69.88 130.92 70.49 130.92 71.1 130.92 71.71 130.93 72.31 130.93 72.92 130.93 73.53 130.93 74.14 130.93 74.75 130.93 75.36 130.93 75.96 130.93 76.57 130.93 77.18 130.93 77.79 130.93 78.4 130.94 79 130.94 79.61 130.94 80.22 130.94 80.83 130.94 81.44 130.94 82.04 130.94 82.65 130.94 83.26 130.94 83.87 130.94 84.48 130.94 85.08 130.94 85.69 130.94 86.3 130.94 86.91 130.94 87.52 130.94 88.12 130.94 88.73 130.94 89.34 130.94 89.95 130.94 90.56 130.94 91.16 130.94 91.77 130.95 92.38 130.95 92.99 130.95 93.6 130.95 94.2 130.95 94.81 130.95 95.42 130.95 96.03 130.95 96.64 130.95 97.24 130.95 97.85 130.95 98.46 130.95 99.07 130.95 99.68 130.95 100.28 130.95 100.89 130.95 101.5 130.94 102.11 130.94 102.72 130.94 103.32 130.94 103.93 130.94 104.54 130.94 105.15 130.94 105.76 130.94 106.37 130.94 106.97 130.94 107.58 130.94 108.19 130.94 108.8 130.94 109.41 130.94 110.01 130.94 110.62 130.94 111.23 130.94 111.84 130.94 112.45 130.94 113.05 130.94 113.66 130.94 114.27 130.94 114.88 130.93 115.49 130.93 116.09 130.93 116.7 130.93 117.31 130.93 117.92 130.93 118.53 130.93 119.13 130.93 119.74 130.93 120.35 130.93 120.96 130.93 121.57 130.92 122.17 130.92 122.78 130.92 123.39 130.92 124 130.92 124.61 130.92 125.21 130.92 125.82 130.92 126.43 130.91 127.04 130.91 127.65 130.91 128.25 130.91 128.86 130.91 129.47 130.91 130.08 130.9 130.69 130.9 131.29 130.9 131.9 130.9 132.51 130.9 133.12 130.89 133.73 130.89 134.33 130.89 134.94 130.89 135.55 130.88 136.16 130.88 136.77 130.88 137.38 130.88 137.98 130.87 138.59 130.87 139.2 130.87 139.81 130.86 140.42 130.86 141.02 130.86 141.63 130.85 142.24 130.85 142.85 130.84 143.46 130.84 144.06 130.83 144.67 130.83 145.28 130.82 145.89 130.82 146.5 130.81 147.1 130.81 147.71 130.8 148.32 130.79 148.93 130.79 149.54 130.78 150.14 130.77 150.75 130.76 151.36 130.76 151.97 130.75 152.58 130.74 153.18 130.73 153.79 130.72 154.4 130.7 155.01 130.69 155.62 130.68 156.22 130.66 156.83 130.65 157.44 130.63 158.05 130.61 158.66 130.59 159.26 130.57 159.87 130.54 160.48 130.51 161.09 130.48 161.7 130.45 162.3 130.41 162.91 130.37 163.52 130.32 164.13 130.26 164.74 130.19 165.34 130.11 165.95 130.02 166.56 129.9 167.17 129.75 167.78 129.57 168.39 129.32 168.99 128.97 169.6 128.44 170.21 127.56 170.82 125.81 171.43 120.54"/>
      </g>
      <g stroke-width="0.3" fill="#000000" fill-opacity="0.000" class="geometry" stroke-dasharray="none" stroke="#FFA500" id="img-7740a5e5-15">
        <path fill="none" d="M21.24,120.54 L 21.85 125.81 22.46 127.56 23.06 128.44 23.67 128.97 24.28 129.32 24.89 129.57 25.5 129.75 26.1 129.9 26.71 130.02 27.32 130.11 27.93 130.19 28.54 130.26 29.14 130.32 29.75 130.37 30.36 130.41 30.97 130.45 31.58 130.48 32.18 130.51 32.79 130.54 33.4 130.57 34.01 130.59 34.62 130.61 35.22 130.63 35.83 130.65 36.44 130.66 37.05 130.68 37.66 130.69 38.26 130.7 38.87 130.72 39.48 130.73 40.09 130.74 40.7 130.75 41.3 130.76 41.91 130.76 42.52 130.77 43.13 130.78 43.74 130.79 44.35 130.79 44.95 130.8 45.56 130.81 46.17 130.81 46.78 130.82 47.39 130.82 47.99 130.83 48.6 130.83 49.21 130.84 49.82 130.84 50.43 130.85 51.03 130.85 51.64 130.86 52.25 130.86 52.86 130.86 53.47 130.87 54.07 130.87 54.68 130.87 55.29 130.88 55.9 130.88 56.51 130.88 57.11 130.88 57.72 130.89 58.33 130.89 58.94 130.89 59.55 130.89 60.15 130.9 60.76 130.9 61.37 130.9 61.98 130.9 62.59 130.9 63.19 130.91 63.8 130.91 64.41 130.91 65.02 130.91 65.63 130.91 66.23 130.91 66.84 130.92 67.45 130.92 68.06 130.92 68.67 130.92 69.27 130.92 69.88 130.92 70.49 130.92 71.1 130.92 71.71 130.93 72.31 130.93 72.92 130.93 73.53 130.93 74.14 130.93 74.75 130.93 75.36 130.93 75.96 130.93 76.57 130.93 77.18 130.93 77.79 130.93 78.4 130.94 79 130.94 79.61 130.94 80.22 130.94 80.83 130.94 81.44 130.94 82.04 130.94 82.65 130.94 83.26 130.94 83.87 130.94 84.48 130.94 85.08 130.94 85.69 130.94 86.3 130.94 86.91 130.94 87.52 130.94 88.12 130.94 88.73 130.94 89.34 130.94 89.95 130.94 90.56 130.94 91.16 130.94 91.77 130.95 92.38 130.95 92.99 130.95 93.6 130.95 94.2 130.95 94.81 130.95 95.42 130.95 96.03 130.95 96.64 130.95 97.24 130.95 97.85 130.95 98.46 130.95 99.07 130.95 99.68 130.95 100.28 130.95 100.89 130.95 101.5 130.94 102.11 130.94 102.72 130.94 103.32 130.94 103.93 130.94 104.54 130.94 105.15 130.94 105.76 130.94 106.37 130.94 106.97 130.94 107.58 130.94 108.19 130.94 108.8 130.94 109.41 130.94 110.01 130.94 110.62 130.94 111.23 130.94 111.84 130.94 112.45 130.94 113.05 130.94 113.66 130.94 114.27 130.94 114.88 130.93 115.49 130.93 116.09 130.93 116.7 130.93 117.31 130.93 117.92 130.93 118.53 130.93 119.13 130.93 119.74 130.93 120.35 130.93 120.96 130.93 121.57 130.92 122.17 130.92 122.78 130.92 123.39 130.92 124 130.92 124.61 130.92 125.21 130.92 125.82 130.92 126.43 130.91 127.04 130.91 127.65 130.91 128.25 130.91 128.86 130.91 129.47 130.91 130.08 130.9 130.69 130.9 131.29 130.9 131.9 130.9 132.51 130.9 133.12 130.89 133.73 130.89 134.33 130.89 134.94 130.89 135.55 130.88 136.16 130.88 136.77 130.88 137.38 130.88 137.98 130.87 138.59 130.87 139.2 130.87 139.81 130.86 140.42 130.86 141.02 130.86 141.63 130.85 142.24 130.85 142.85 130.84 143.46 130.84 144.06 130.83 144.67 130.83 145.28 130.82 145.89 130.82 146.5 130.81 147.1 130.81 147.71 130.8 148.32 130.79 148.93 130.79 149.54 130.78 150.14 130.77 150.75 130.76 151.36 130.76 151.97 130.75 152.58 130.74 153.18 130.73 153.79 130.72 154.4 130.7 155.01 130.69 155.62 130.68 156.22 130.66 156.83 130.65 157.44 130.63 158.05 130.61 158.66 130.59 159.26 130.57 159.87 130.54 160.48 130.51 161.09 130.48 161.7 130.45 162.3 130.41 162.91 130.37 163.52 130.32 164.13 130.26 164.74 130.19 165.34 130.11 165.95 130.02 166.56 129.9 167.17 129.75 167.78 129.57 168.39 129.32 168.99 128.97 169.6 128.44 170.21 127.56 170.82 125.81 171.43 120.54"/>
      </g>
      <g shape-rendering="crispEdges" stroke-width="0.3" id="img-7740a5e5-16">
        <g stroke="#000000" stroke-opacity="0.000" fill="#00BFFF" class="geometry" id="img-7740a5e5-17">
          <rect x="20.61" y="97.27" width="3.08" height="33.84"/>
          <rect x="23.63" y="129.76" width="3.08" height="1.35"/>
          <rect x="26.66" y="128.41" width="3.08" height="2.71"/>
          <rect x="29.69" y="129.76" width="3.08" height="1.35"/>
          <rect x="32.72" y="129.76" width="3.08" height="1.35"/>
          <rect x="35.75" y="129.76" width="3.08" height="1.35"/>
          <rect x="38.77" y="129.76" width="3.08" height="1.35"/>
          <rect x="41.8" y="125.7" width="3.08" height="5.41"/>
          <rect x="44.83" y="131.11" width="3.08" height="0.01"/>
          <rect x="47.86" y="131.11" width="3.08" height="0.01"/>
          <rect x="50.89" y="131.11" width="3.08" height="0.01"/>
          <rect x="53.92" y="128.41" width="3.08" height="2.71"/>
          <rect x="56.94" y="129.76" width="3.08" height="1.35"/>
          <rect x="59.97" y="127.05" width="3.08" height="4.06"/>
          <rect x="63" y="127.05" width="3.08" height="4.06"/>
          <rect x="66.03" y="131.11" width="3.08" height="0.01"/>
          <rect x="69.06" y="127.05" width="3.08" height="4.06"/>
          <rect x="72.08" y="129.76" width="3.08" height="1.35"/>
          <rect x="75.11" y="129.76" width="3.08" height="1.35"/>
          <rect x="78.14" y="131.11" width="3.08" height="0.01"/>
          <rect x="81.17" y="131.11" width="3.08" height="0.01"/>
          <rect x="84.2" y="131.11" width="3.08" height="0.01"/>
          <rect x="87.22" y="131.11" width="3.08" height="0.01"/>
          <rect x="90.25" y="131.11" width="3.08" height="0.01"/>
          <rect x="93.28" y="131.11" width="3.08" height="0.01"/>
          <rect x="96.31" y="131.11" width="3.08" height="0.01"/>
          <rect x="99.34" y="128.41" width="3.08" height="2.71"/>
          <rect x="102.36" y="129.76" width="3.08" height="1.35"/>
          <rect x="105.39" y="129.76" width="3.08" height="1.35"/>
          <rect x="108.42" y="131.11" width="3.08" height="0.01"/>
          <rect x="111.45" y="128.41" width="3.08" height="2.71"/>
          <rect x="114.48" y="131.11" width="3.08" height="0.01"/>
          <rect x="117.5" y="131.11" width="3.08" height="0.01"/>
          <rect x="120.53" y="131.11" width="3.08" height="0.01"/>
          <rect x="123.56" y="128.41" width="3.08" height="2.71"/>
          <rect x="126.59" y="128.41" width="3.08" height="2.71"/>
          <rect x="129.62" y="131.11" width="3.08" height="0.01"/>
          <rect x="132.64" y="131.11" width="3.08" height="0.01"/>
          <rect x="135.67" y="129.76" width="3.08" height="1.35"/>
          <rect x="138.7" y="131.11" width="3.08" height="0.01"/>
          <rect x="141.73" y="128.41" width="3.08" height="2.71"/>
          <rect x="144.76" y="128.41" width="3.08" height="2.71"/>
          <rect x="147.78" y="131.11" width="3.08" height="0.01"/>
          <rect x="150.81" y="129.76" width="3.08" height="1.35"/>
          <rect x="153.84" y="128.41" width="3.08" height="2.71"/>
          <rect x="156.87" y="127.05" width="3.08" height="4.06"/>
          <rect x="159.9" y="131.11" width="3.08" height="0.01"/>
          <rect x="162.92" y="127.05" width="3.08" height="4.06"/>
          <rect x="165.95" y="131.11" width="3.08" height="0.01"/>
          <rect x="168.98" y="95.92" width="3.08" height="35.2"/>
        </g>
      </g>
    </g>
  </g>
</g>
  <g class="guide ylabels" font-size="2.82" font-family="'PT Sans Caption','Helvetica Neue','Helvetica',sans-serif" fill="#000000" id="img-7740a5e5-18">
    <text x="17.63" y="131.11" text-anchor="end" dy="0.35em">0.0</text>
    <text x="17.63" y="122.65" text-anchor="end" dy="0.35em">0.5</text>
    <text x="17.63" y="114.19" text-anchor="end" dy="0.35em">1.0</text>
    <text x="17.63" y="105.73" text-anchor="end" dy="0.35em">1.5</text>
    <text x="17.63" y="97.27" text-anchor="end" dy="0.35em">2.0</text>
    <text x="17.63" y="88.81" text-anchor="end" dy="0.35em">2.5</text>
  </g>
  <g font-size="3.88" font-family="'PT Sans','Helvetica Neue','Helvetica',sans-serif" fill="#000000" stroke="#000000" stroke-opacity="0.000" id="img-7740a5e5-19">
    <text x="8.81" y="107.96" text-anchor="middle" dy="0.35em" transform="rotate(-90, 8.81, 109.96)">density</text>
  </g>
  <g font-size="3.88" font-family="'PT Sans','Helvetica Neue','Helvetica',sans-serif" fill="#000000" stroke="#000000" stroke-opacity="0.000" id="img-7740a5e5-20">
    <text x="96.33" y="81.2" text-anchor="middle" dy="0.6em">Histogram of population in generation 500</text>
  </g>
</g>
<g class="plotroot xscalable yscalable" id="img-7740a5e5-21">
  <g font-size="3.88" font-family="'PT Sans','Helvetica Neue','Helvetica',sans-serif" fill="#000000" stroke="#000000" stroke-opacity="0.000" id="img-7740a5e5-22">
    <text x="108.92" y="64.59" text-anchor="middle" dy="0.6em">generation number</text>
  </g>
  <g class="guide xlabels" font-size="2.82" font-family="'PT Sans Caption','Helvetica Neue','Helvetica',sans-serif" fill="#000000" id="img-7740a5e5-23">
    <text x="21.63" y="57.91" text-anchor="middle" dy="0.6em">0</text>
    <text x="56.55" y="57.91" text-anchor="middle" dy="0.6em">100</text>
    <text x="91.46" y="57.91" text-anchor="middle" dy="0.6em">200</text>
    <text x="126.37" y="57.91" text-anchor="middle" dy="0.6em">300</text>
    <text x="161.29" y="57.91" text-anchor="middle" dy="0.6em">400</text>
    <text x="196.2" y="57.91" text-anchor="middle" dy="0.6em">500</text>
  </g>
<g clip-path="url(#img-7740a5e5-24)">
  <g id="img-7740a5e5-25">
    <g pointer-events="visible" opacity="1" fill="#FFFFFF" stroke="#000000" stroke-opacity="0.000" class="guide background" id="img-7740a5e5-26">
      <rect x="19.63" y="10.61" width="178.57" height="46.3"/>
    </g>
    <g class="guide ygridlines xfixed" stroke-dasharray="0.5,0.5" stroke-width="0.2" stroke="#808080" id="img-7740a5e5-27">
      <path fill="none" d="M19.63,54.91 L 198.2 54.91"/>
      <path fill="none" d="M19.63,44.34 L 198.2 44.34"/>
      <path fill="none" d="M19.63,33.76 L 198.2 33.76"/>
      <path fill="none" d="M19.63,23.19 L 198.2 23.19"/>
      <path fill="none" d="M19.63,12.61 L 198.2 12.61"/>
    </g>
    <g class="guide xgridlines yfixed" stroke-dasharray="0.5,0.5" stroke-width="0.2" stroke="#808080" id="img-7740a5e5-28">
      <path fill="none" d="M21.63,10.61 L 21.63 56.91"/>
      <path fill="none" d="M56.55,10.61 L 56.55 56.91"/>
      <path fill="none" d="M91.46,10.61 L 91.46 56.91"/>
      <path fill="none" d="M126.37,10.61 L 126.37 56.91"/>
      <path fill="none" d="M161.29,10.61 L 161.29 56.91"/>
      <path fill="none" d="M196.2,10.61 L 196.2 56.91"/>
    </g>
    <g class="plotpanel" id="img-7740a5e5-29">
      <g stroke-width="0.3" fill="#000000" fill-opacity="0.000" class="geometry" stroke-dasharray="none" stroke="#3288BD" id="img-7740a5e5-30">
        <path fill="none" d="M21.98,33.76 L 22.33 32.28 22.68 30.48 23.03 30.7 23.38 31.75 23.73 32.28 24.08 33.87 24.42 33.34 24.77 35.88 25.12 34.93 25.47 34.72 25.82 35.03 26.17 35.24 26.52 34.4 26.87 34.29 27.22 33.45 27.57 33.34 27.92 34.4 28.27 35.24 28.61 36.09 28.96 34.72 29.31 34.19 29.66 34.72 30.01 33.87 30.36 33.13 30.71 34.19 31.06 36.09 31.41 37.46 31.76 37.78 32.11 40.32 32.45 41.06 32.8 40.64 33.15 41.59 33.5 40 33.85 40.32 34.2 38.95 34.55 40.32 34.9 41.38 35.25 41.8 35.6 40.21 35.95 40.32 36.3 41.27 36.64 40.95 36.99 40.85 37.34 40.32 37.69 40.11 38.04 39.16 38.39 38.73 38.74 37.25 39.09 36.09 39.44 34.72 39.79 34.93 40.14 33.34 40.49 35.14 40.83 32.92 41.18 33.66 41.53 33.76 41.88 34.19 42.23 35.67 42.58 35.77 42.93 36.2 43.28 36.3 43.63 36.09 43.98 35.35 44.33 35.98 44.67 34.5 45.02 34.19 45.37 34.08 45.72 33.76 46.07 34.19 46.42 33.76 46.77 34.08 47.12 34.4 47.47 34.61 47.82 35.98 48.17 35.77 48.52 35.03 48.86 33.45 49.21 33.97 49.56 34.08 49.91 35.24 50.26 35.35 50.61 35.67 50.96 35.77 51.31 35.77 51.66 37.36 52.01 38.42 52.36 36.62 52.7 36.94 53.05 36.83 53.4 35.56 53.75 36.3 54.1 37.46 54.45 38.21 54.8 37.25 55.15 37.89 55.5 38.1 55.85 36.62 56.2 36.72 56.55 37.68 56.89 37.46 57.24 37.04 57.59 35.67 57.94 35.56 58.29 34.19 58.64 33.23 58.99 32.39 59.34 31.75 59.69 30.8 60.04 30.38 60.39 28.58 60.73 30.38 61.08 29.43 61.43 29 61.78 28.69 62.13 29 62.48 29.74 62.83 29.11 63.18 29.22 63.53 28.79 63.88 30.06 64.23 29.85 64.58 30.91 64.92 29.96 65.27 30.59 65.62 29.22 65.97 29.96 66.32 30.7 66.67 32.49 67.02 31.75 67.37 33.02 67.72 32.28 68.07 32.92 68.42 31.12 68.77 30.7 69.11 29.53 69.46 30.48 69.81 31.75 70.16 32.39 70.51 32.71 70.86 33.87 71.21 34.4 71.56 34.93 71.91 33.87 72.26 33.97 72.61 32.49 72.95 33.34 73.3 36.51 73.65 36.94 74 34.19 74.35 35.67 74.7 35.98 75.05 34.61 75.4 34.5 75.75 35.56 76.1 34.72 76.45 34.4 76.8 35.14 77.14 34.93 77.49 33.45 77.84 34.19 78.19 35.14 78.54 32.18 78.89 30.8 79.24 31.12 79.59 30.91 79.94 33.55 80.29 34.5 80.64 33.45 80.98 33.97 81.33 34.93 81.68 35.03 82.03 35.14 82.38 34.5 82.73 35.14 83.08 35.24 83.43 36.62 83.78 36.2 84.13 35.56 84.48 37.99 84.83 36.51 85.17 34.82 85.52 33.87 85.87 32.6 86.22 31.86 86.57 30.06 86.92 31.75 87.27 33.34 87.62 33.02 87.97 32.92 88.32 32.18 88.67 34.08 89.02 35.24 89.36 35.46 89.71 36.09 90.06 37.36 90.41 38.1 90.76 37.89 91.11 38.84 91.46 38.21 91.81 38.1 92.16 39.69 92.51 39.79 92.86 39.05 93.2 38.84 93.55 39.9 93.9 40.21 94.25 40.32 94.6 41.27 94.95 40.74 95.3 41.59 95.65 41.59 96 42.01 96.35 42.65 96.7 42.75 97.05 42.01 97.39 42.22 97.74 42.33 98.09 41.7 98.44 42.01 98.79 43.6 99.14 44.02 99.49 45.08 99.84 44.76 100.19 45.08 100.54 45.29 100.89 44.97 101.23 44.87 101.58 43.92 101.93 46.03 102.28 45.82 102.63 46.24 102.98 46.03 103.33 45.93 103.68 46.56 104.03 47.09 104.38 47.93 104.73 46.88 105.08 46.77 105.42 46.14 105.77 45.82 106.12 47.19 106.47 47.09 106.82 46.88 107.17 47.51 107.52 46.45 107.87 47.41 108.22 46.67 108.57 46.98 108.92 46.98 109.26 47.41 109.61 47.09 109.96 47.51 110.31 48.36 110.66 48.25 111.01 48.46 111.36 49.84 111.71 50.16 112.06 50.58 112.41 51.42 112.76 51.74 113.11 52.59 113.45 53.33 113.8 53.96 114.15 53.96 114.5 54.6 114.85 54.91 115.2 54.91 115.55 54.91 115.9 54.91 116.25 54.91 116.6 54.91 116.95 54.91 117.3 54.91 117.64 54.91 117.99 54.91 118.34 54.91 118.69 54.91 119.04 54.91 119.39 54.91 119.74 54.91 120.09 54.91 120.44 54.91 120.79 54.91 121.14 54.91 121.48 54.91 121.83 54.91 122.18 54.91 122.53 54.91 122.88 54.91 123.23 54.91 123.58 54.91 123.93 54.91 124.28 54.91 124.63 54.91 124.98 54.91 125.33 54.91 125.67 54.91 126.02 54.91 126.37 54.91 126.72 54.91 127.07 54.91 127.42 54.91 127.77 54.91 128.12 54.91 128.47 54.91 128.82 54.91 129.17 54.81 129.51 54.7 129.86 54.6 130.21 54.39 130.56 53.96 130.91 54.17 131.26 54.07 131.61 53.96 131.96 54.17 132.31 53.96 132.66 54.07 133.01 53.75 133.36 53.54 133.7 52.38 134.05 51.21 134.4 50.9 134.75 48.99 135.1 49.2 135.45 48.78 135.8 49.42 136.15 48.46 136.5 50.9 136.85 51.42 137.2 51 137.55 50.05 137.89 50.05 138.24 50.58 138.59 49.84 138.94 50.26 139.29 49.73 139.64 50.05 139.99 50.9 140.34 50.47 140.69 50.79 141.04 51.53 141.39 52.17 141.73 52.27 142.08 52.8 142.43 52.8 142.78 53.01 143.13 52.91 143.48 52.91 143.83 53.33 144.18 53.43 144.53 53.43 144.88 53.12 145.23 53.75 145.58 53.86 145.92 53.96 146.27 54.17 146.62 53.75 146.97 53.22 147.32 53.65 147.67 54.7 148.02 54.81 148.37 54.7 148.72 54.81 149.07 54.81 149.42 54.91 149.76 54.91 150.11 54.91 150.46 54.91 150.81 54.91 151.16 54.91 151.51 54.91 151.86 54.91 152.21 54.91 152.56 54.91 152.91 54.91 153.26 54.81 153.61 54.49 153.95 54.28 154.3 54.39 154.65 54.49 155 54.49 155.35 54.49 155.7 54.6 156.05 54.7 156.4 54.17 156.75 54.17 157.1 54.17 157.45 54.28 157.79 54.17 158.14 54.17 158.49 54.17 158.84 53.33 159.19 53.54 159.54 53.54 159.89 53.75 160.24 53.96 160.59 53.86 160.94 53.75 161.29 54.07 161.64 53.75 161.98 53.86 162.33 54.28 162.68 54.07 163.03 53.96 163.38 54.17 163.73 54.17 164.08 54.28 164.43 54.49 164.78 54.39 165.13 54.17 165.48 54.17 165.83 53.86 166.17 53.75 166.52 53.43 166.87 53.12 167.22 53.01 167.57 53.33 167.92 53.43 168.27 53.22 168.62 52.69 168.97 53.22 169.32 53.65 169.67 53.54 170.01 53.22 170.36 53.22 170.71 53.65 171.06 53.22 171.41 53.01 171.76 53.33 172.11 53.54 172.46 53.22 172.81 53.22 173.16 52.69 173.51 52.91 173.86 53.54 174.2 53.01 174.55 53.22 174.9 53.12 175.25 52.8 175.6 52.17 175.95 51.95 176.3 52.69 176.65 52.8 177 52.91 177.35 53.01 177.7 52.48 178.04 52.38 178.39 52.8 178.74 53.33 179.09 53.65 179.44 53.54 179.79 53.33 180.14 53.12 180.49 54.07 180.84 54.39 181.19 54.28 181.54 54.07 181.89 54.07 182.23 54.17 182.58 54.28 182.93 54.7 183.28 54.7 183.63 54.81 183.98 54.91 184.33 54.91 184.68 54.91 185.03 54.91 185.38 54.91 185.73 54.91 186.08 54.91 186.42 54.91 186.77 54.91 187.12 54.91 187.47 54.91 187.82 54.91 188.17 54.91 188.52 54.91 188.87 54.91 189.22 54.91 189.57 54.91 189.92 54.91 190.26 54.91 190.61 54.91 190.96 54.91 191.31 54.91 191.66 54.91 192.01 54.91 192.36 54.91 192.71 54.91 193.06 54.91 193.41 54.91 193.76 54.91 194.11 54.91 194.45 54.91 194.8 54.91 195.15 54.91 195.5 54.91 195.85 54.91 196.2 54.91"/>
      </g>
      <g stroke-width="0.3" fill="#000000" fill-opacity="0.000" class="geometry" stroke-dasharray="none" stroke="#66C2A5" id="img-7740a5e5-31">
        <path fill="none" d="M21.98,33.76 L 22.33 33.66 22.68 34.4 23.03 32.18 23.38 32.18 23.73 29.43 24.08 27.84 24.42 29.64 24.77 30.38 25.12 31.01 25.47 31.86 25.82 33.34 26.17 32.81 26.52 33.02 26.87 31.97 27.22 30.7 27.57 29.43 27.92 29.96 28.27 28.37 28.61 28.48 28.96 26.99 29.31 28.48 29.66 28.48 30.01 28.79 30.36 29.64 30.71 30.06 31.06 31.33 31.41 31.23 31.76 30.48 32.11 30.7 32.45 29.64 32.8 30.91 33.15 31.12 33.5 31.23 33.85 32.39 34.2 31.75 34.55 33.02 34.9 33.34 35.25 33.87 35.6 32.39 35.95 32.07 36.3 32.18 36.64 33.45 36.99 33.55 37.34 34.82 37.69 34.4 38.04 35.14 38.39 35.14 38.74 35.67 39.09 34.61 39.44 34.82 39.79 33.55 40.14 33.13 40.49 32.6 40.83 32.71 41.18 32.81 41.53 34.29 41.88 33.55 42.23 33.02 42.58 33.45 42.93 34.93 43.28 37.68 43.63 35.46 43.98 35.24 44.33 36.94 44.67 37.36 45.02 36.72 45.37 36.09 45.72 37.46 46.07 37.68 46.42 36.94 46.77 36.2 47.12 35.03 47.47 36.62 47.82 36.41 48.17 36.2 48.52 36.94 48.86 36.3 49.21 36.72 49.56 36.09 49.91 36.94 50.26 37.04 50.61 35.03 50.96 33.87 51.31 32.81 51.66 30.27 52.01 30.17 52.36 30.8 52.7 32.81 53.05 32.18 53.4 33.76 53.75 33.66 54.1 33.23 54.45 33.97 54.8 35.88 55.15 35.88 55.5 33.97 55.85 31.86 56.2 31.44 56.55 33.55 56.89 34.61 57.24 35.03 57.59 33.97 57.94 34.29 58.29 32.81 58.64 32.81 58.99 33.66 59.34 33.13 59.69 34.19 60.04 35.56 60.39 36.51 60.73 35.77 61.08 37.15 61.43 36.72 61.78 37.15 62.13 36.72 62.48 36.51 62.83 36.51 63.18 37.46 63.53 37.89 63.88 37.68 64.23 35.46 64.58 34.82 64.92 35.46 65.27 34.93 65.62 35.77 65.97 34.82 66.32 33.87 66.67 33.76 67.02 34.5 67.37 34.5 67.72 33.87 68.07 31.97 68.42 31.54 68.77 32.07 69.11 34.4 69.46 33.97 69.81 34.72 70.16 31.44 70.51 32.39 70.86 32.28 71.21 31.97 71.56 32.49 71.91 32.6 72.26 34.29 72.61 32.81 72.95 31.33 73.3 30.48 73.65 31.12 74 30.17 74.35 30.17 74.7 30.38 75.05 29.43 75.4 31.33 75.75 31.01 76.1 31.01 76.45 29.74 76.8 29.32 77.14 29.32 77.49 30.27 77.84 29.43 78.19 28.69 78.54 28.9 78.89 27.95 79.24 27.52 79.59 26.57 79.94 26.04 80.29 27.42 80.64 27.84 80.98 26.99 81.33 26.04 81.68 24.35 82.03 25.51 82.38 26.25 82.73 27.1 83.08 28.69 83.43 29.64 83.78 28.16 84.13 30.06 84.48 29.11 84.83 28.9 85.17 30.27 85.52 33.76 85.87 33.34 86.22 34.29 86.57 36.62 86.92 38.31 87.27 37.57 87.62 39.58 87.97 39.37 88.32 39.16 88.67 37.57 89.02 39.37 89.36 39.9 89.71 40 90.06 41.48 90.41 41.8 90.76 42.22 91.11 41.7 91.46 43.6 91.81 42.44 92.16 42.33 92.51 42.86 92.86 43.6 93.2 43.92 93.55 42.65 93.9 43.49 94.25 41.8 94.6 39.69 94.95 39.47 95.3 36.94 95.65 36.83 96 35.56 96.35 36.83 96.7 37.57 97.05 39.16 97.39 40.53 97.74 40.74 98.09 42.12 98.44 41.91 98.79 42.33 99.14 39.79 99.49 40.74 99.84 40.32 100.19 39.26 100.54 40.53 100.89 41.38 101.23 42.44 101.58 43.18 101.93 43.49 102.28 41.59 102.63 42.01 102.98 40.53 103.33 39.47 103.68 40.21 104.03 40 104.38 39.9 104.73 38.95 105.08 38.21 105.42 37.04 105.77 36.94 106.12 37.46 106.47 37.68 106.82 39.69 107.17 39.37 107.52 39.47 107.87 41.91 108.22 42.22 108.57 42.44 108.92 42.12 109.26 42.75 109.61 44.87 109.96 44.23 110.31 44.97 110.66 44.55 111.01 44.87 111.36 43.92 111.71 44.23 112.06 46.03 112.41 46.14 112.76 46.77 113.11 46.56 113.45 46.56 113.8 46.67 114.15 46.03 114.5 45.4 114.85 45.5 115.2 45.08 115.55 45.19 115.9 44.34 116.25 44.97 116.6 44.66 116.95 44.66 117.3 44.13 117.64 44.23 117.99 44.76 118.34 46.77 118.69 46.14 119.04 45.61 119.39 44.76 119.74 45.61 120.09 47.51 120.44 47.72 120.79 47.93 121.14 48.25 121.48 49.2 121.83 49.31 122.18 48.78 122.53 48.04 122.88 48.46 123.23 49.52 123.58 49.73 123.93 48.89 124.28 49.52 124.63 49.84 124.98 49.52 125.33 49.84 125.67 49.52 126.02 50.37 126.37 49.94 126.72 49.1 127.07 47.72 127.42 48.89 127.77 48.25 128.12 48.36 128.47 48.36 128.82 48.15 129.17 48.04 129.51 48.15 129.86 48.25 130.21 48.89 130.56 49.1 130.91 49.42 131.26 48.15 131.61 48.36 131.96 48.89 132.31 48.36 132.66 49.42 133.01 47.93 133.36 49.2 133.7 49.2 134.05 48.36 134.4 48.36 134.75 47.83 135.1 46.67 135.45 48.15 135.8 48.46 136.15 48.46 136.5 48.04 136.85 47.3 137.2 46.67 137.55 46.03 137.89 46.45 138.24 45.4 138.59 45.4 138.94 45.5 139.29 45.61 139.64 46.14 139.99 45.19 140.34 45.29 140.69 45.19 141.04 43.07 141.39 42.01 141.73 42.44 142.08 42.12 142.43 41.27 142.78 41.17 143.13 42.86 143.48 43.49 143.83 43.18 144.18 43.92 144.53 43.92 144.88 42.75 145.23 43.49 145.58 43.07 145.92 43.49 146.27 43.81 146.62 43.39 146.97 43.49 147.32 43.18 147.67 41.17 148.02 41.06 148.37 40.95 148.72 41.17 149.07 42.22 149.42 43.7 149.76 43.7 150.11 43.49 150.46 44.13 150.81 43.07 151.16 42.86 151.51 42.44 151.86 42.44 152.21 43.49 152.56 43.28 152.91 42.65 153.26 44.02 153.61 45.93 153.95 45.19 154.3 46.14 154.65 45.82 155 46.56 155.35 46.45 155.7 47.72 156.05 47.93 156.4 48.25 156.75 49.1 157.1 49.94 157.45 48.68 157.79 49.1 158.14 48.68 158.49 48.99 158.84 48.99 159.19 49.52 159.54 50.58 159.89 50.26 160.24 49.84 160.59 49.94 160.94 50.58 161.29 49.94 161.64 50.26 161.98 49.94 162.33 49.84 162.68 48.99 163.03 50.16 163.38 50.26 163.73 49.94 164.08 50.16 164.43 50.26 164.78 49.2 165.13 49.1 165.48 49.1 165.83 48.99 166.17 49.73 166.52 49.84 166.87 50.05 167.22 49.42 167.57 50.26 167.92 49.63 168.27 49.94 168.62 49.52 168.97 50.05 169.32 49.31 169.67 50.37 170.01 50.47 170.36 49.84 170.71 48.57 171.06 48.89 171.41 49.84 171.76 49.2 172.11 49.94 172.46 50.16 172.81 50.47 173.16 49.31 173.51 47.62 173.86 46.88 174.2 47.3 174.55 47.3 174.9 47.3 175.25 49.2 175.6 49.94 175.95 48.99 176.3 48.46 176.65 48.36 177 48.99 177.35 48.78 177.7 48.57 178.04 48.36 178.39 48.89 178.74 48.25 179.09 48.04 179.44 48.15 179.79 47.3 180.14 46.88 180.49 47.41 180.84 48.15 181.19 48.68 181.54 49.63 181.89 49.42 182.23 49.31 182.58 49.2 182.93 49.1 183.28 48.46 183.63 48.89 183.98 49.2 184.33 48.89 184.68 48.78 185.03 49.2 185.38 48.46 185.73 48.57 186.08 47.3 186.42 47.72 186.77 48.57 187.12 47.09 187.47 47.51 187.82 47.19 188.17 46.03 188.52 46.24 188.87 45.08 189.22 45.08 189.57 45.5 189.92 45.82 190.26 44.97 190.61 44.34 190.96 44.34 191.31 44.34 191.66 44.76 192.01 44.44 192.36 45.5 192.71 44.02 193.06 44.97 193.41 46.03 193.76 45.5 194.11 45.29 194.45 45.08 194.8 45.19 195.15 45.08 195.5 44.02 195.85 44.97 196.2 45.08"/>
      </g>
      <g stroke-width="0.3" fill="#000000" fill-opacity="0.000" class="geometry" stroke-dasharray="none" stroke="#ABDDA4" id="img-7740a5e5-32">
        <path fill="none" d="M21.98,33.76 L 22.33 35.24 22.68 36.3 23.03 36.51 23.38 37.15 23.73 37.25 24.08 36.72 24.42 36.72 24.77 36.72 25.12 36.41 25.47 36.62 25.82 36.09 26.17 34.61 26.52 33.76 26.87 30.7 27.22 31.33 27.57 32.81 27.92 32.39 28.27 33.13 28.61 33.55 28.96 33.76 29.31 33.13 29.66 31.86 30.01 31.75 30.36 31.54 30.71 32.92 31.06 31.33 31.41 32.18 31.76 31.33 32.11 28.69 32.45 29.11 32.8 31.23 33.15 30.06 33.5 30.27 33.85 29.32 34.2 30.91 34.55 31.97 34.9 31.23 35.25 30.59 35.6 30.17 35.95 29.53 36.3 29.53 36.64 27.42 36.99 29.96 37.34 27.84 37.69 26.15 38.04 25.2 38.39 25.51 38.74 24.46 39.09 24.88 39.44 24.77 39.79 24.03 40.14 26.36 40.49 26.78 40.83 28.69 41.18 30.06 41.53 27.31 41.88 25.73 42.23 25.94 42.58 27.74 42.93 27.95 43.28 27.42 43.63 28.9 43.98 30.59 44.33 29.85 44.67 28.37 45.02 27.42 45.37 29.64 45.72 30.38 46.07 29.85 46.42 30.91 46.77 29.74 47.12 30.7 47.47 30.91 47.82 29 48.17 31.12 48.52 30.8 48.86 30.17 49.21 30.91 49.56 30.8 49.91 31.54 50.26 29.96 50.61 28.69 50.96 27.63 51.31 27.63 51.66 27.74 52.01 26.89 52.36 26.89 52.7 27.1 53.05 27.31 53.4 26.15 53.75 25.09 54.1 24.77 54.45 24.46 54.8 23.29 55.15 25.3 55.5 25.94 55.85 26.36 56.2 24.88 56.55 25.41 56.89 24.99 57.24 24.14 57.59 23.19 57.94 22.24 58.29 20.86 58.64 19.8 58.99 19.8 59.34 19.17 59.69 19.17 60.04 18.96 60.39 19.17 60.73 18.85 61.08 19.17 61.43 19.38 61.78 19.06 62.13 18.75 62.48 18.32 62.83 18.22 63.18 18.53 63.53 19.49 63.88 21.18 64.23 21.18 64.58 22.24 64.92 22.76 65.27 21.71 65.62 20.76 65.97 19.7 66.32 19.27 66.67 17.69 67.02 17.48 67.37 16.31 67.72 16.74 68.07 16.84 68.42 16.84 68.77 16.74 69.11 16.31 69.46 15.78 69.81 17.05 70.16 17.79 70.51 16.95 70.86 17.16 71.21 16.21 71.56 16.63 71.91 16.63 72.26 16.95 72.61 16.52 72.95 16.31 73.3 16 73.65 15.57 74 16 74.35 16.52 74.7 17.05 75.05 18.11 75.4 18.43 75.75 17.27 76.1 16.31 76.45 16 76.8 15.57 77.14 16.84 77.49 16.84 77.84 17.79 78.19 17.27 78.54 16.95 78.89 17.16 79.24 16.95 79.59 15.47 79.94 14.83 80.29 15.57 80.64 16.21 80.98 15.89 81.33 16.21 81.68 16.52 82.03 16.63 82.38 16.74 82.73 15.89 83.08 16.74 83.43 16.31 83.78 16.63 84.13 16.31 84.48 17.05 84.83 16.52 85.17 15.78 85.52 15.26 85.87 15.47 86.22 16.31 86.57 17.05 86.92 16.74 87.27 17.27 87.62 16.74 87.97 16.84 88.32 15.89 88.67 16.42 89.02 16.31 89.36 17.27 89.71 17.16 90.06 18.22 90.41 19.7 90.76 20.01 91.11 20.76 91.46 21.5 91.81 21.92 92.16 22.66 92.51 22.45 92.86 23.4 93.2 24.03 93.55 23.4 93.9 24.77 94.25 24.99 94.6 26.15 94.95 25.94 95.3 27.21 95.65 26.78 96 28.05 96.35 26.04 96.7 25.51 97.05 25.94 97.39 26.36 97.74 26.78 98.09 27.95 98.44 27.95 98.79 27.42 99.14 26.78 99.49 27.1 99.84 26.47 100.19 28.48 100.54 29.32 100.89 31.12 101.23 32.49 101.58 32.6 101.93 31.54 102.28 31.75 102.63 32.07 102.98 31.97 103.33 31.75 103.68 30.17 104.03 29.96 104.38 29 104.73 29.43 105.08 30.06 105.42 30.7 105.77 30.06 106.12 29.53 106.47 28.79 106.82 28.69 107.17 29.11 107.52 27.63 107.87 27.21 108.22 27.95 108.57 28.58 108.92 30.91 109.26 31.44 109.61 31.75 109.96 30.91 110.31 30.48 110.66 30.91 111.01 30.06 111.36 31.65 111.71 31.23 112.06 32.71 112.41 33.55 112.76 34.5 113.11 34.61 113.45 33.13 113.8 34.19 114.15 34.93 114.5 33.87 114.85 33.23 115.2 32.81 115.55 33.55 115.9 34.29 116.25 33.76 116.6 31.75 116.95 33.66 117.3 32.92 117.64 30.91 117.99 30.38 118.34 30.91 118.69 31.54 119.04 31.75 119.39 32.07 119.74 30.38 120.09 30.06 120.44 30.38 120.79 29.43 121.14 29.22 121.48 27.63 121.83 27.42 122.18 27.52 122.53 28.26 122.88 27.63 123.23 27.52 123.58 27.74 123.93 28.69 124.28 29 124.63 28.26 124.98 27.52 125.33 28.58 125.67 29.85 126.02 28.37 126.37 29.96 126.72 29.64 127.07 30.17 127.42 28.79 127.77 29.32 128.12 31.54 128.47 31.75 128.82 31.75 129.17 31.75 129.51 31.97 129.86 30.91 130.21 29.64 130.56 30.27 130.91 30.7 131.26 30.27 131.61 30.48 131.96 31.97 132.31 32.39 132.66 32.28 133.01 30.06 133.36 28.16 133.7 27.1 134.05 27.42 134.4 29.85 134.75 29.11 135.1 29.96 135.45 28.58 135.8 29.53 136.15 30.48 136.5 29.85 136.85 28.26 137.2 30.06 137.55 29 137.89 29.11 138.24 28.69 138.59 27.52 138.94 26.68 139.29 25.83 139.64 24.67 139.99 24.14 140.34 24.03 140.69 23.93 141.04 23.5 141.39 22.98 141.73 24.25 142.08 23.93 142.43 23.29 142.78 24.03 143.13 24.25 143.48 24.14 143.83 25.41 144.18 25.51 144.53 24.14 144.88 23.19 145.23 22.76 145.58 23.5 145.92 24.56 146.27 25.41 146.62 24.77 146.97 22.76 147.32 21.28 147.67 22.02 148.02 24.03 148.37 25.51 148.72 25.2 149.07 26.78 149.42 26.78 149.76 26.89 150.11 26.68 150.46 27.42 150.81 26.99 151.16 26.25 151.51 25.94 151.86 25.83 152.21 26.25 152.56 27.52 152.91 27.63 153.26 26.99 153.61 28.05 153.95 27.95 154.3 27.42 154.65 27.95 155 27.31 155.35 25.94 155.7 25.62 156.05 25.09 156.4 25.62 156.75 24.88 157.1 24.03 157.45 24.99 157.79 25.41 158.14 24.88 158.49 24.77 158.84 26.36 159.19 25.94 159.54 27.1 159.89 26.89 160.24 25.83 160.59 25.83 160.94 25.09 161.29 26.47 161.64 27.74 161.98 29.11 162.33 28.37 162.68 26.89 163.03 26.57 163.38 26.78 163.73 24.99 164.08 27.63 164.43 28.79 164.78 27.84 165.13 29 165.48 29.53 165.83 29.53 166.17 27.74 166.52 27.95 166.87 27.21 167.22 26.47 167.57 26.04 167.92 25.62 168.27 25.51 168.62 24.67 168.97 24.56 169.32 24.14 169.67 24.25 170.01 24.56 170.36 24.35 170.71 23.61 171.06 22.13 171.41 21.07 171.76 19.8 172.11 19.8 172.46 20.97 172.81 22.76 173.16 22.87 173.51 23.72 173.86 22.98 174.2 23.4 174.55 22.02 174.9 21.39 175.25 20.54 175.6 20.01 175.95 21.28 176.3 21.07 176.65 20.01 177 18.64 177.35 18.53 177.7 18.32 178.04 17.16 178.39 16.31 178.74 18.01 179.09 18.43 179.44 18.32 179.79 18.43 180.14 18.53 180.49 18.96 180.84 18.85 181.19 18.75 181.54 18.64 181.89 18.64 182.23 19.49 182.58 20.23 182.93 19.27 183.28 20.76 183.63 21.92 183.98 21.5 184.33 21.07 184.68 22.13 185.03 23.08 185.38 23.5 185.73 24.46 186.08 24.77 186.42 24.77 186.77 24.14 187.12 22.24 187.47 21.71 187.82 22.45 188.17 22.02 188.52 21.6 188.87 22.24 189.22 21.81 189.57 21.28 189.92 20.97 190.26 19.91 190.61 19.7 190.96 19.06 191.31 20.23 191.66 20.76 192.01 20.86 192.36 20.44 192.71 19.7 193.06 18.43 193.41 19.49 193.76 20.86 194.11 20.65 194.45 21.28 194.8 21.71 195.15 20.65 195.5 20.54 195.85 21.6 196.2 20.12"/>
      </g>
      <g stroke-width="0.3" fill="#000000" fill-opacity="0.000" class="geometry" stroke-dasharray="none" stroke="#E6F598" id="img-7740a5e5-33">
        <path fill="none" d="M21.98,33.76 L 22.33 32.81 22.68 35.03 23.03 34.82 23.38 36.41 23.73 37.46 24.08 37.68 24.42 39.9 24.77 40.21 25.12 39.16 25.47 40 25.82 38.73 26.17 38.63 26.52 38.95 26.87 38.1 27.22 38.21 27.57 39.47 27.92 38.1 28.27 38.63 28.61 39.05 28.96 38.42 29.31 40 29.66 40.43 30.01 40.11 30.36 40.74 30.71 40.85 31.06 40.95 31.41 41.17 31.76 39.05 32.11 40.32 32.45 41.06 32.8 42.33 33.15 40.53 33.5 42.01 33.85 41.8 34.2 42.86 34.55 42.54 34.9 42.96 35.25 42.86 35.6 42.01 35.95 41.91 36.3 41.48 36.64 42.01 36.99 42.01 37.34 42.22 37.69 42.44 38.04 41.27 38.39 40.43 38.74 41.38 39.09 42.86 39.44 43.7 39.79 43.28 40.14 43.39 40.49 44.13 40.83 43.81 41.18 43.28 41.53 42.33 41.88 42.86 42.23 43.6 42.58 44.13 42.93 42.33 43.28 42.22 43.63 41.8 43.98 42.01 44.33 44.13 44.67 44.34 45.02 43.92 45.37 42.96 45.72 44.02 46.07 43.28 46.42 43.81 46.77 44.34 47.12 44.97 47.47 45.29 47.82 44.76 48.17 45.29 48.52 45.29 48.86 44.97 49.21 44.66 49.56 45.19 49.91 45.29 50.26 44.55 50.61 45.4 50.96 44.87 51.31 44.66 51.66 44.34 52.01 43.49 52.36 44.76 52.7 42.96 53.05 40.74 53.4 39.9 53.75 40 54.1 42.65 54.45 42.12 54.8 42.12 55.15 42.86 55.5 42.01 55.85 41.06 56.2 42.54 56.55 42.22 56.89 42.33 57.24 42.22 57.59 41.27 57.94 40.74 58.29 39.05 58.64 40.53 58.99 39.9 59.34 40.53 59.69 39.79 60.04 40.43 60.39 41.7 60.73 42.33 61.08 43.07 61.43 42.33 61.78 41.8 62.13 43.39 62.48 41.38 62.83 40.74 63.18 40.21 63.53 39.37 63.88 39.16 64.23 38.84 64.58 40.11 64.92 40.74 65.27 41.91 65.62 40 65.97 40.53 66.32 41.17 66.67 40.85 67.02 42.22 67.37 41.8 67.72 41.06 68.07 40.11 68.42 41.17 68.77 40.64 69.11 41.17 69.46 41.59 69.81 41.06 70.16 40.74 70.51 40.74 70.86 41.27 71.21 39.79 71.56 38.63 71.91 38.95 72.26 39.69 72.61 41.7 72.95 43.6 73.3 44.13 73.65 45.82 74 46.45 74.35 45.93 74.7 45.29 75.05 45.29 75.4 45.19 75.75 45.29 76.1 44.55 76.45 43.81 76.8 42.75 77.14 43.28 77.49 42.96 77.84 43.39 78.19 44.02 78.54 44.66 78.89 44.34 79.24 43.18 79.59 43.39 79.94 43.7 80.29 43.07 80.64 42.75 80.98 42.65 81.33 42.33 81.68 41.27 82.03 42.12 82.38 43.28 82.73 42.44 83.08 42.22 83.43 41.38 83.78 41.27 84.13 41.38 84.48 40.53 84.83 41.38 85.17 41.06 85.52 40.95 85.87 40.11 86.22 40.11 86.57 40.43 86.92 42.22 87.27 43.07 87.62 43.49 87.97 43.7 88.32 44.23 88.67 45.08 89.02 45.61 89.36 46.14 89.71 45.61 90.06 45.08 90.41 45.82 90.76 46.24 91.11 45.29 91.46 45.61 91.81 43.7 92.16 43.07 92.51 44.44 92.86 43.6 93.2 43.49 93.55 43.18 93.9 41.91 94.25 42.12 94.6 42.65 94.95 42.33 95.3 43.39 95.65 42.96 96 42.86 96.35 42.01 96.7 41.06 97.05 40.74 97.39 39.58 97.74 38.31 98.09 37.57 98.44 37.15 98.79 38.1 99.14 37.68 99.49 37.36 99.84 38.31 100.19 37.99 100.54 37.78 100.89 37.68 101.23 37.04 101.58 36.51 101.93 36.3 102.28 35.14 102.63 35.56 102.98 35.14 103.33 35.35 103.68 37.46 104.03 36.3 104.38 36.3 104.73 36.41 105.08 36.09 105.42 35.03 105.77 36.62 106.12 36.62 106.47 39.26 106.82 37.78 107.17 36.09 107.52 37.36 107.87 36.2 108.22 37.25 108.57 36.51 108.92 34.08 109.26 35.77 109.61 36.51 109.96 35.88 110.31 36.72 110.66 36.09 111.01 36.62 111.36 36.62 111.71 36.72 112.06 34.4 112.41 34.4 112.76 35.56 113.11 36.09 113.45 36.72 113.8 35.67 114.15 34.72 114.5 35.56 114.85 35.24 115.2 34.82 115.55 35.24 115.9 35.14 116.25 34.61 116.6 33.87 116.95 34.72 117.3 36.72 117.64 39.05 117.99 37.15 118.34 35.67 118.69 35.46 119.04 33.66 119.39 32.49 119.74 32.39 120.09 31.12 120.44 32.6 120.79 32.6 121.14 32.71 121.48 33.76 121.83 34.61 122.18 34.5 122.53 33.76 122.88 34.5 123.23 35.46 123.58 36.83 123.93 38.73 124.28 37.57 124.63 36.62 124.98 37.89 125.33 36.83 125.67 38.73 126.02 40.11 126.37 39.69 126.72 40.43 127.07 41.06 127.42 39.47 127.77 40.21 128.12 39.69 128.47 40.64 128.82 40.64 129.17 40.74 129.51 41.8 129.86 41.17 130.21 42.12 130.56 42.33 130.91 43.49 131.26 44.02 131.61 42.54 131.96 42.44 132.31 42.33 132.66 41.27 133.01 40.74 133.36 40 133.7 41.06 134.05 40.21 134.4 40 134.75 40.32 135.1 41.91 135.45 40.95 135.8 39.37 136.15 37.46 136.5 37.57 136.85 36.72 137.2 35.14 137.55 34.08 137.89 35.67 138.24 35.24 138.59 35.35 138.94 36.72 139.29 36.3 139.64 36.94 139.99 38.63 140.34 37.15 140.69 38.84 141.04 38.52 141.39 37.46 141.73 38.31 142.08 37.68 142.43 37.89 142.78 38.63 143.13 36.62 143.48 37.46 143.83 37.36 144.18 35.56 144.53 33.02 144.88 33.34 145.23 33.76 145.58 33.55 145.92 34.4 146.27 33.23 146.62 33.13 146.97 34.29 147.32 33.87 147.67 33.76 148.02 31.54 148.37 31.75 148.72 31.86 149.07 30.8 149.42 30.48 149.76 31.23 150.11 28.9 150.46 28.79 150.81 29.53 151.16 29.96 151.51 30.06 151.86 29.43 152.21 29.32 152.56 31.33 152.91 30.91 153.26 30.91 153.61 31.97 153.95 32.28 154.3 32.07 154.65 32.81 155 32.07 155.35 32.28 155.7 31.33 156.05 34.19 156.4 33.87 156.75 36.2 157.1 38.1 157.45 39.58 157.79 39.16 158.14 39.37 158.49 37.46 158.84 36.41 159.19 35.77 159.54 35.88 159.89 34.72 160.24 35.03 160.59 34.61 160.94 33.87 161.29 32.92 161.64 32.81 161.98 33.13 162.33 32.71 162.68 33.66 163.03 33.02 163.38 32.49 163.73 32.71 164.08 35.24 164.43 35.35 164.78 35.14 165.13 35.56 165.48 35.98 165.83 35.35 166.17 35.67 166.52 36.2 166.87 35.98 167.22 35.56 167.57 37.99 167.92 38.31 168.27 37.46 168.62 36.94 168.97 36.62 169.32 36.51 169.67 37.78 170.01 37.99 170.36 38.21 170.71 39.69 171.06 39.69 171.41 39.26 171.76 38.63 172.11 39.37 172.46 40.95 172.81 39.37 173.16 39.26 173.51 40.32 173.86 40.21 174.2 39.05 174.55 37.89 174.9 38.31 175.25 36.83 175.6 36.72 175.95 36.41 176.3 35.88 176.65 36.62 177 37.99 177.35 38.21 177.7 38.52 178.04 38.31 178.39 37.99 178.74 37.15 179.09 37.04 179.44 35.88 179.79 37.36 180.14 36.09 180.49 36.83 180.84 38.21 181.19 38.21 181.54 39.58 181.89 41.17 182.23 41.38 182.58 41.48 182.93 41.27 183.28 41.91 183.63 40.64 183.98 39.37 184.33 39.69 184.68 38.95 185.03 37.46 185.38 37.57 185.73 37.99 186.08 37.89 186.42 37.57 186.77 37.89 187.12 37.99 187.47 38.52 187.82 38.84 188.17 39.37 188.52 39.58 188.87 39.26 189.22 38.42 189.57 38.31 189.92 36.09 190.26 35.88 190.61 35.98 190.96 33.87 191.31 35.14 191.66 35.67 192.01 36.94 192.36 34.82 192.71 34.5 193.06 35.98 193.41 34.4 193.76 34.4 194.11 31.54 194.45 30.7 194.8 31.54 195.15 32.39 195.5 31.44 195.85 29.96 196.2 30.8"/>
      </g>
      <g stroke-width="0.3" fill="#000000" fill-opacity="0.000" class="geometry" stroke-dasharray="none" stroke="#FFFFBF" id="img-7740a5e5-34">
        <path fill="none" d="M21.98,33.76 L 22.33 31.33 22.68 32.81 23.03 32.28 23.38 33.23 23.73 33.02 24.08 33.97 24.42 32.28 24.77 34.93 25.12 33.76 25.47 33.45 25.82 33.13 26.17 33.02 26.52 33.02 26.87 31.86 27.22 32.18 27.57 33.02 27.92 34.29 28.27 34.08 28.61 32.92 28.96 32.39 29.31 33.97 29.66 32.6 30.01 32.07 30.36 34.5 30.71 34.4 31.06 33.76 31.41 34.29 31.76 32.92 32.11 33.97 32.45 35.56 32.8 37.25 33.15 35.98 33.5 36.62 33.85 36.09 34.2 35.98 34.55 38.1 34.9 39.26 35.25 39.69 35.6 39.69 35.95 41.27 36.3 42.65 36.64 41.91 36.99 41.48 37.34 40.53 37.69 39.26 38.04 39.69 38.39 39.9 38.74 39.37 39.09 42.44 39.44 41.48 39.79 41.48 40.14 41.48 40.49 40.74 40.83 42.44 41.18 44.02 41.53 43.07 41.88 42.96 42.23 41.06 42.58 39.37 42.93 40.21 43.28 39.37 43.63 40.43 43.98 41.38 44.33 42.96 44.67 42.44 45.02 42.54 45.37 44.23 45.72 44.02 46.07 44.02 46.42 41.8 46.77 42.86 47.12 41.7 47.47 40.21 47.82 40.53 48.17 40.21 48.52 39.05 48.86 38.21 49.21 38.84 49.56 37.36 49.91 37.46 50.26 35.98 50.61 37.15 50.96 37.68 51.31 38.63 51.66 37.68 52.01 38.21 52.36 36.94 52.7 36.41 53.05 35.88 53.4 35.14 53.75 35.46 54.1 34.19 54.45 34.19 54.8 35.56 55.15 38.1 55.5 37.89 55.85 37.89 56.2 36.72 56.55 36.3 56.89 36.09 57.24 35.46 57.59 36.72 57.94 35.98 58.29 35.14 58.64 34.61 58.99 35.98 59.34 36.09 59.69 36.41 60.04 36.3 60.39 35.56 60.73 36.09 61.08 36.83 61.43 35.67 61.78 35.14 62.13 35.77 62.48 36.09 62.83 36.41 63.18 35.88 63.53 37.25 63.88 37.68 64.23 38.63 64.58 35.77 64.92 36.41 65.27 35.98 65.62 35.88 65.97 34.93 66.32 37.36 66.67 36.94 67.02 36.3 67.37 33.97 67.72 32.39 68.07 32.81 68.42 31.97 68.77 32.6 69.11 33.23 69.46 35.03 69.81 35.14 70.16 35.98 70.51 36.3 70.86 37.04 71.21 36.83 71.56 37.25 71.91 37.36 72.26 36.94 72.61 37.15 72.95 35.88 73.3 37.04 73.65 38.1 74 38.52 74.35 37.89 74.7 37.57 75.05 36.51 75.4 37.57 75.75 37.57 76.1 38.42 76.45 37.36 76.8 37.15 77.14 37.15 77.49 39.16 77.84 39.9 78.19 40.32 78.54 39.37 78.89 39.79 79.24 38.63 79.59 37.25 79.94 38.31 80.29 38.21 80.64 37.68 80.98 36.09 81.33 35.46 81.68 35.46 82.03 35.77 82.38 35.98 82.73 34.61 83.08 35.24 83.43 36.09 83.78 35.98 84.13 35.35 84.48 34.72 84.83 32.49 85.17 32.39 85.52 32.28 85.87 33.13 86.22 34.19 86.57 34.93 86.92 36.94 87.27 35.88 87.62 35.03 87.97 35.56 88.32 34.29 88.67 33.87 89.02 33.87 89.36 32.6 89.71 35.46 90.06 36.09 90.41 36.41 90.76 36.94 91.11 38.21 91.46 35.35 91.81 34.72 92.16 32.81 92.51 34.29 92.86 34.29 93.2 35.14 93.55 37.25 93.9 35.35 94.25 35.88 94.6 34.72 94.95 33.66 95.3 31.23 95.65 30.91 96 30.06 96.35 29.22 96.7 28.48 97.05 29.53 97.39 29.32 97.74 29.22 98.09 28.69 98.44 26.99 98.79 27.63 99.14 28.05 99.49 26.99 99.84 27.74 100.19 26.15 100.54 27.84 100.89 28.16 101.23 28.58 101.58 28.9 101.93 28.37 102.28 28.48 102.63 26.99 102.98 27.63 103.33 27.84 103.68 28.69 104.03 28.79 104.38 29 104.73 29.53 105.08 31.54 105.42 31.65 105.77 32.39 106.12 32.18 106.47 32.6 106.82 32.18 107.17 33.02 107.52 32.6 107.87 31.97 108.22 31.44 108.57 32.39 108.92 32.6 109.26 32.6 109.61 31.97 109.96 30.59 110.31 29.22 110.66 29.96 111.01 29.85 111.36 31.33 111.71 31.33 112.06 31.54 112.41 30.48 112.76 31.54 113.11 30.8 113.45 31.01 113.8 30.91 114.15 30.06 114.5 28.79 114.85 28.69 115.2 28.26 115.55 28.79 115.9 30.17 116.25 30.17 116.6 32.18 116.95 31.65 117.3 32.18 117.64 32.49 117.99 32.39 118.34 31.33 118.69 31.86 119.04 32.28 119.39 30.06 119.74 29.74 120.09 31.33 120.44 33.97 120.79 33.97 121.14 32.92 121.48 31.65 121.83 33.02 122.18 32.92 122.53 33.76 122.88 33.76 123.23 34.29 123.58 36.2 123.93 36.09 124.28 36.41 124.63 35.35 124.98 35.77 125.33 34.5 125.67 35.46 126.02 34.82 126.37 36.2 126.72 36.51 127.07 35.35 127.42 36.41 127.77 35.67 128.12 36.09 128.47 37.15 128.82 37.68 129.17 37.36 129.51 36.83 129.86 36.83 130.21 36.41 130.56 35.46 130.91 35.35 131.26 34.29 131.61 34.19 131.96 33.55 132.31 31.86 132.66 32.81 133.01 31.75 133.36 30.06 133.7 29.96 134.05 29.85 134.4 30.48 134.75 33.02 135.1 31.54 135.45 30.91 135.8 29.43 136.15 29.32 136.5 30.17 136.85 30.91 137.2 32.07 137.55 30.48 137.89 30.06 138.24 30.06 138.59 31.01 138.94 29.96 139.29 30.06 139.64 29.64 139.99 27.1 140.34 27.42 140.69 27.52 141.04 26.47 141.39 25.41 141.73 26.89 142.08 26.57 142.43 24.14 142.78 23.61 143.13 23.4 143.48 24.77 143.83 23.08 144.18 22.76 144.53 23.61 144.88 24.46 145.23 24.46 145.58 24.14 145.92 23.29 146.27 22.55 146.62 22.66 146.97 22.76 147.32 24.25 147.67 24.67 148.02 23.82 148.37 22.45 148.72 22.45 149.07 23.19 149.42 24.56 149.76 23.29 150.11 22.98 150.46 22.98 150.81 23.4 151.16 22.66 151.51 23.4 151.86 23.5 152.21 22.66 152.56 23.29 152.91 23.61 153.26 23.5 153.61 23.08 153.95 24.77 154.3 23.29 154.65 25.09 155 26.57 155.35 26.78 155.7 26.36 156.05 26.99 156.4 27.31 156.75 27.84 157.1 28.37 157.45 28.48 157.79 27.31 158.14 28.37 158.49 28.79 158.84 28.58 159.19 28.26 159.54 28.9 159.89 26.78 160.24 27.31 160.59 27.84 160.94 27.21 161.29 26.36 161.64 25.83 161.98 25.62 162.33 25.3 162.68 25.41 163.03 26.04 163.38 26.57 163.73 27.84 164.08 28.48 164.43 28.05 164.78 26.99 165.13 27.74 165.48 26.68 165.83 25.83 166.17 25.51 166.52 25.73 166.87 25.73 167.22 25.51 167.57 26.47 167.92 27.52 168.27 26.25 168.62 26.25 168.97 25.83 169.32 25.83 169.67 26.25 170.01 26.47 170.36 26.78 170.71 25.62 171.06 25.51 171.41 24.56 171.76 23.4 172.11 23.93 172.46 23.19 172.81 23.93 173.16 23.82 173.51 23.72 173.86 23.29 174.2 25.73 174.55 24.56 174.9 23.93 175.25 24.03 175.6 22.66 175.95 23.61 176.3 25.09 176.65 24.35 177 23.82 177.35 23.82 177.7 23.72 178.04 24.88 178.39 26.89 178.74 28.05 179.09 29 179.44 30.38 179.79 32.07 180.14 34.19 180.49 33.76 180.84 34.82 181.19 33.66 181.54 32.39 181.89 33.13 182.23 33.45 182.58 33.23 182.93 32.81 183.28 30.48 183.63 30.48 183.98 30.91 184.33 30.7 184.68 28.26 185.03 28.16 185.38 25.09 185.73 25.2 186.08 24.67 186.42 25.62 186.77 26.04 187.12 25.41 187.47 25.09 187.82 24.99 188.17 25.83 188.52 26.15 188.87 26.36 189.22 26.57 189.57 27.1 189.92 26.15 190.26 27.1 190.61 28.79 190.96 28.48 191.31 28.69 191.66 28.48 192.01 28.9 192.36 26.89 192.71 26.57 193.06 25.83 193.41 26.25 193.76 26.89 194.11 26.04 194.45 26.78 194.8 25.41 195.15 26.57 195.5 25.73 195.85 25.73 196.2 24.67"/>
      </g>
      <g stroke-width="0.3" fill="#000000" fill-opacity="0.000" class="geometry" stroke-dasharray="none" stroke="#FEE08B" id="img-7740a5e5-35">
        <path fill="none" d="M21.98,33.76 L 22.33 34.72 22.68 33.97 23.03 34.08 23.38 33.55 23.73 32.92 24.08 33.45 24.42 33.34 24.77 33.45 25.12 32.71 25.47 33.87 25.82 33.23 26.17 33.87 26.52 33.23 26.87 33.76 27.22 32.39 27.57 35.03 27.92 35.03 28.27 33.66 28.61 32.71 28.96 33.76 29.31 34.08 29.66 33.87 30.01 33.87 30.36 31.97 30.71 32.18 31.06 30.17 31.41 28.79 31.76 27.31 32.11 26.57 32.45 26.68 32.8 25.2 33.15 25.41 33.5 24.25 33.85 24.56 34.2 26.68 34.55 27.1 34.9 26.47 35.25 24.77 35.6 25.09 35.95 22.45 36.3 22.66 36.64 21.5 36.99 21.28 37.34 21.6 37.69 20.44 38.04 21.28 38.39 21.92 38.74 23.61 39.09 23.4 39.44 23.29 39.79 22.45 40.14 22.13 40.49 22.02 40.83 21.71 41.18 21.28 41.53 21.6 41.88 21.92 42.23 21.81 42.58 20.76 42.93 20.97 43.28 22.34 43.63 19.91 43.98 20.33 44.33 20.33 44.67 21.28 45.02 21.18 45.37 20.54 45.72 23.72 46.07 24.46 46.42 24.46 46.77 25.83 47.12 25.51 47.47 26.68 47.82 26.15 48.17 27.1 48.52 27.21 48.86 27.95 49.21 28.58 49.56 28.26 49.91 28.58 50.26 29.22 50.61 28.37 50.96 27.74 51.31 25.41 51.66 25.09 52.01 25.3 52.36 23.82 52.7 24.35 53.05 25.83 53.4 26.99 53.75 26.57 54.1 27.21 54.45 26.25 54.8 26.36 55.15 24.03 55.5 24.46 55.85 23.93 56.2 22.66 56.55 21.5 56.89 21.39 57.24 19.8 57.59 20.33 57.94 20.97 58.29 21.07 58.64 20.23 58.99 20.65 59.34 19.27 59.69 18.85 60.04 18.01 60.39 18.11 60.73 18.32 61.08 17.9 61.43 17.9 61.78 18.22 62.13 18.43 62.48 17.48 62.83 17.16 63.18 16.52 63.53 16 63.88 16.42 64.23 16 64.58 14.94 64.92 15.26 65.27 14.94 65.62 14.83 65.97 14.83 66.32 15.04 66.67 14.09 67.02 13.67 67.37 14.2 67.72 14.52 68.07 13.67 68.42 13.56 68.77 13.46 69.11 13.14 69.46 12.93 69.81 13.03 70.16 12.82 70.51 12.82 70.86 12.82 71.21 12.72 71.56 12.61 71.91 12.61 72.26 12.61 72.61 12.61 72.95 12.61 73.3 12.61 73.65 12.61 74 12.61 74.35 12.61 74.7 12.61 75.05 12.61 75.4 12.61 75.75 12.61 76.1 12.61 76.45 12.61 76.8 12.61 77.14 12.72 77.49 12.93 77.84 12.72 78.19 12.61 78.54 12.61 78.89 12.61 79.24 12.61 79.59 12.61 79.94 12.72 80.29 12.72 80.64 12.93 80.98 12.93 81.33 12.93 81.68 12.93 82.03 13.14 82.38 13.25 82.73 12.82 83.08 12.93 83.43 13.03 83.78 13.14 84.13 12.93 84.48 13.14 84.83 13.14 85.17 12.72 85.52 12.61 85.87 12.61 86.22 12.61 86.57 12.61 86.92 12.61 87.27 12.61 87.62 12.61 87.97 12.61 88.32 12.61 88.67 12.61 89.02 12.61 89.36 12.61 89.71 12.61 90.06 12.61 90.41 12.61 90.76 12.61 91.11 12.61 91.46 12.61 91.81 12.61 92.16 12.61 92.51 12.61 92.86 12.61 93.2 12.61 93.55 12.61 93.9 12.61 94.25 12.61 94.6 12.61 94.95 12.61 95.3 12.61 95.65 12.61 96 12.61 96.35 12.61 96.7 12.61 97.05 12.61 97.39 12.61 97.74 12.61 98.09 12.61 98.44 12.61 98.79 12.61 99.14 12.61 99.49 12.61 99.84 12.61 100.19 12.61 100.54 12.61 100.89 12.61 101.23 12.61 101.58 12.61 101.93 12.61 102.28 12.61 102.63 12.61 102.98 12.61 103.33 12.61 103.68 12.61 104.03 12.61 104.38 12.61 104.73 12.61 105.08 12.61 105.42 12.61 105.77 12.61 106.12 12.61 106.47 12.61 106.82 12.61 107.17 12.61 107.52 12.61 107.87 12.61 108.22 12.61 108.57 12.61 108.92 12.61 109.26 12.61 109.61 12.61 109.96 12.61 110.31 12.61 110.66 12.61 111.01 12.61 111.36 12.61 111.71 12.61 112.06 12.72 112.41 12.72 112.76 12.72 113.11 12.82 113.45 12.61 113.8 12.61 114.15 12.61 114.5 12.61 114.85 12.61 115.2 12.61 115.55 12.61 115.9 12.61 116.25 12.61 116.6 12.61 116.95 12.61 117.3 12.61 117.64 12.61 117.99 12.61 118.34 12.61 118.69 12.61 119.04 12.61 119.39 12.61 119.74 12.61 120.09 12.61 120.44 12.61 120.79 12.61 121.14 13.14 121.48 13.14 121.83 13.78 122.18 13.78 122.53 13.78 122.88 14.73 123.23 13.99 123.58 14.52 123.93 14.94 124.28 14.83 124.63 14.52 124.98 15.47 125.33 14.2 125.67 13.56 126.02 14.3 126.37 14.2 126.72 13.46 127.07 13.78 127.42 14.09 127.77 13.56 128.12 14.52 128.47 13.78 128.82 13.67 129.17 14.52 129.51 14.52 129.86 15.04 130.21 15.36 130.56 15.78 130.91 15.04 131.26 15.36 131.61 15.47 131.96 14.62 132.31 15.47 132.66 14.94 133.01 14.62 133.36 14.62 133.7 14.94 134.05 14.62 134.4 14.83 134.75 15.47 135.1 16.42 135.45 16.52 135.8 15.68 136.15 15.36 136.5 15.57 136.85 15.78 137.2 15.15 137.55 14.41 137.89 13.78 138.24 14.09 138.59 15.26 138.94 15.68 139.29 15.68 139.64 14.94 139.99 15.15 140.34 14.62 140.69 15.15 141.04 14.73 141.39 15.26 141.73 15.47 142.08 14.62 142.43 15.36 142.78 15.57 143.13 15.78 143.48 15.36 143.83 15.36 144.18 15.47 144.53 15.04 144.88 15.04 145.23 15.26 145.58 14.52 145.92 14.52 146.27 14.3 146.62 14.73 146.97 14.3 147.32 14.2 147.67 14.41 148.02 13.88 148.37 13.99 148.72 14.09 149.07 14.41 149.42 14.52 149.76 14.52 150.11 15.04 150.46 15.36 150.81 14.83 151.16 14.62 151.51 15.57 151.86 15.78 152.21 15.89 152.56 16 152.91 16.42 153.26 16 153.61 15.57 153.95 15.89 154.3 16.42 154.65 16.31 155 17.48 155.35 16.21 155.7 16.52 156.05 16.42 156.4 16.63 156.75 15.68 157.1 15.57 157.45 15.26 157.79 14.83 158.14 14.83 158.49 14.73 158.84 14.3 159.19 14.41 159.54 13.56 159.89 13.35 160.24 13.67 160.59 13.35 160.94 13.56 161.29 13.78 161.64 14.52 161.98 14.09 162.33 14.09 162.68 14.52 163.03 14.3 163.38 14.73 163.73 15.26 164.08 15.15 164.43 15.57 164.78 15.26 165.13 15.26 165.48 15.57 165.83 14.62 166.17 13.88 166.52 13.99 166.87 13.67 167.22 13.46 167.57 13.03 167.92 12.82 168.27 12.72 168.62 12.72 168.97 12.61 169.32 12.61 169.67 12.93 170.01 12.82 170.36 13.25 170.71 13.56 171.06 13.25 171.41 13.67 171.76 13.88 172.11 14.09 172.46 13.78 172.81 13.78 173.16 13.78 173.51 13.56 173.86 13.99 174.2 14.73 174.55 14.2 174.9 13.88 175.25 13.99 175.6 14.2 175.95 14.3 176.3 14.62 176.65 14.52 177 14.41 177.35 13.99 177.7 14.09 178.04 14.09 178.39 14.2 178.74 14.83 179.09 14.83 179.44 13.99 179.79 13.25 180.14 13.99 180.49 14.41 180.84 14.94 181.19 15.36 181.54 15.57 181.89 16 182.23 16.52 182.58 16.42 182.93 16.52 183.28 16.52 183.63 16.31 183.98 17.16 184.33 18.22 184.68 17.27 185.03 16.95 185.38 16.1 185.73 15.68 186.08 16.1 186.42 15.78 186.77 15.04 187.12 15.36 187.47 15.57 187.82 15.89 188.17 14.94 188.52 14.2 188.87 14.2 189.22 14.73 189.57 14.52 189.92 15.68 190.26 16.42 190.61 16.42 190.96 16.84 191.31 17.27 191.66 18.43 192.01 18.22 192.36 19.17 192.71 19.06 193.06 18.75 193.41 18.85 193.76 18.22 194.11 17.37 194.45 17.05 194.8 16.63 195.15 18.22 195.5 18.96 195.85 20.23 196.2 20.76"/>
      </g>
      <g stroke-width="0.3" fill="#000000" fill-opacity="0.000" class="geometry" stroke-dasharray="none" stroke="#FDAE61" id="img-7740a5e5-36">
        <path fill="none" d="M21.98,33.76 L 22.33 34.08 22.68 33.97 23.03 35.77 23.38 36.41 23.73 37.04 24.08 38.73 24.42 37.78 24.77 39.26 25.12 39.26 25.47 37.78 25.82 37.57 26.17 38.31 26.52 39.37 26.87 40.11 27.22 40.74 27.57 40 27.92 41.48 28.27 42.33 28.61 44.02 28.96 43.7 29.31 44.44 29.66 42.22 30.01 42.22 30.36 43.81 30.71 43.07 31.06 42.33 31.41 43.28 31.76 43.7 32.11 44.13 32.45 44.34 32.8 45.29 33.15 45.82 33.5 46.88 33.85 46.77 34.2 47.09 34.55 47.93 34.9 48.04 35.25 48.25 35.6 48.57 35.95 48.15 36.3 48.25 36.64 48.68 36.99 48.25 37.34 48.46 37.69 48.68 38.04 48.57 38.39 48.15 38.74 48.68 39.09 49.63 39.44 49.31 39.79 50.58 40.14 52.17 40.49 51.85 40.83 52.06 41.18 53.01 41.53 52.38 41.88 52.91 42.23 53.12 42.58 52.48 42.93 53.01 43.28 53.12 43.63 53.43 43.98 53.65 44.33 52.38 44.67 53.12 45.02 53.54 45.37 53.96 45.72 54.07 46.07 54.17 46.42 54.17 46.77 54.07 47.12 54.17 47.47 54.6 47.82 54.17 48.17 54.17 48.52 53.43 48.86 52.59 49.21 51.42 49.56 51.64 49.91 51.95 50.26 51.42 50.61 51.53 50.96 51.42 51.31 52.27 51.66 52.8 52.01 53.12 52.36 53.65 52.7 53.86 53.05 53.33 53.4 53.22 53.75 53.75 54.1 53.65 54.45 53.33 54.8 53.54 55.15 53.54 55.5 53.86 55.85 54.39 56.2 54.81 56.55 54.81 56.89 54.81 57.24 54.91 57.59 54.91 57.94 54.91 58.29 54.91 58.64 54.91 58.99 54.91 59.34 54.91 59.69 54.91 60.04 54.91 60.39 54.91 60.73 54.91 61.08 54.91 61.43 54.91 61.78 54.91 62.13 54.91 62.48 54.91 62.83 54.91 63.18 54.91 63.53 54.91 63.88 54.91 64.23 54.91 64.58 54.91 64.92 54.91 65.27 54.91 65.62 54.91 65.97 54.91 66.32 54.91 66.67 54.91 67.02 54.91 67.37 54.91 67.72 54.91 68.07 54.91 68.42 54.91 68.77 54.91 69.11 54.91 69.46 54.91 69.81 54.91 70.16 54.91 70.51 54.91 70.86 54.91 71.21 54.91 71.56 54.91 71.91 54.91 72.26 54.91 72.61 54.91 72.95 54.91 73.3 54.91 73.65 54.91 74 54.91 74.35 54.91 74.7 54.91 75.05 54.91 75.4 54.91 75.75 54.91 76.1 54.91 76.45 54.91 76.8 54.91 77.14 54.91 77.49 54.91 77.84 54.91 78.19 54.91 78.54 54.91 78.89 54.91 79.24 54.91 79.59 54.91 79.94 54.91 80.29 54.91 80.64 54.91 80.98 54.91 81.33 54.91 81.68 54.91 82.03 54.91 82.38 54.91 82.73 54.91 83.08 54.91 83.43 54.81 83.78 54.81 84.13 54.91 84.48 54.91 84.83 54.91 85.17 54.91 85.52 54.91 85.87 54.91 86.22 54.91 86.57 54.91 86.92 54.91 87.27 54.91 87.62 54.91 87.97 54.91 88.32 54.91 88.67 54.91 89.02 54.91 89.36 54.91 89.71 54.91 90.06 54.91 90.41 54.91 90.76 54.91 91.11 54.91 91.46 54.91 91.81 54.91 92.16 54.91 92.51 54.91 92.86 54.91 93.2 54.91 93.55 54.91 93.9 54.91 94.25 54.91 94.6 54.91 94.95 54.91 95.3 54.91 95.65 54.91 96 54.91 96.35 54.91 96.7 54.91 97.05 54.91 97.39 54.91 97.74 54.81 98.09 54.81 98.44 54.39 98.79 54.39 99.14 54.49 99.49 54.17 99.84 53.86 100.19 53.75 100.54 54.17 100.89 54.07 101.23 54.39 101.58 54.6 101.93 54.6 102.28 54.39 102.63 54.7 102.98 54.81 103.33 54.7 103.68 54.6 104.03 54.81 104.38 54.81 104.73 54.81 105.08 54.91 105.42 54.91 105.77 54.91 106.12 54.91 106.47 54.91 106.82 54.91 107.17 54.91 107.52 54.91 107.87 54.91 108.22 54.91 108.57 54.91 108.92 54.91 109.26 54.91 109.61 54.91 109.96 54.91 110.31 54.91 110.66 54.91 111.01 54.91 111.36 54.91 111.71 54.91 112.06 54.91 112.41 54.91 112.76 54.91 113.11 54.91 113.45 54.91 113.8 54.91 114.15 54.91 114.5 54.91 114.85 54.91 115.2 54.91 115.55 54.91 115.9 54.91 116.25 54.91 116.6 54.91 116.95 54.91 117.3 54.91 117.64 54.91 117.99 54.91 118.34 54.91 118.69 54.91 119.04 54.91 119.39 54.91 119.74 54.91 120.09 54.91 120.44 54.91 120.79 54.91 121.14 54.91 121.48 54.91 121.83 54.91 122.18 54.91 122.53 54.91 122.88 54.91 123.23 54.91 123.58 54.91 123.93 54.91 124.28 54.91 124.63 54.91 124.98 54.91 125.33 54.91 125.67 54.91 126.02 54.91 126.37 54.91 126.72 54.91 127.07 54.91 127.42 54.91 127.77 54.91 128.12 54.91 128.47 54.91 128.82 54.91 129.17 54.91 129.51 54.91 129.86 54.91 130.21 54.91 130.56 54.91 130.91 54.91 131.26 54.91 131.61 54.91 131.96 54.91 132.31 54.91 132.66 54.91 133.01 54.91 133.36 54.91 133.7 54.91 134.05 54.91 134.4 54.91 134.75 54.91 135.1 54.91 135.45 54.91 135.8 54.91 136.15 54.91 136.5 54.91 136.85 54.91 137.2 54.91 137.55 54.91 137.89 54.91 138.24 54.91 138.59 54.91 138.94 54.91 139.29 54.91 139.64 54.91 139.99 54.91 140.34 54.91 140.69 54.91 141.04 54.91 141.39 54.91 141.73 54.91 142.08 54.91 142.43 54.91 142.78 54.91 143.13 54.91 143.48 54.91 143.83 54.91 144.18 54.91 144.53 54.91 144.88 54.91 145.23 54.91 145.58 54.91 145.92 54.91 146.27 54.91 146.62 54.91 146.97 54.91 147.32 54.91 147.67 54.91 148.02 54.91 148.37 54.91 148.72 54.91 149.07 54.91 149.42 54.91 149.76 54.91 150.11 54.91 150.46 54.91 150.81 54.91 151.16 54.91 151.51 54.91 151.86 54.91 152.21 54.91 152.56 54.91 152.91 54.91 153.26 54.91 153.61 54.91 153.95 54.91 154.3 54.91 154.65 54.91 155 54.7 155.35 54.6 155.7 54.17 156.05 54.39 156.4 54.28 156.75 53.43 157.1 53.54 157.45 52.91 157.79 52.48 158.14 52.69 158.49 53.12 158.84 53.01 159.19 53.96 159.54 54.07 159.89 54.39 160.24 54.17 160.59 53.96 160.94 53.75 161.29 53.96 161.64 54.07 161.98 54.07 162.33 53.75 162.68 53.65 163.03 53.22 163.38 52.69 163.73 52.59 164.08 52.8 164.43 52.69 164.78 53.43 165.13 53.43 165.48 53.12 165.83 53.54 166.17 52.91 166.52 53.43 166.87 53.65 167.22 53.96 167.57 53.86 167.92 53.75 168.27 53.33 168.62 53.65 168.97 53.75 169.32 52.91 169.67 53.22 170.01 53.65 170.36 53.75 170.71 53.65 171.06 53.75 171.41 54.28 171.76 54.39 172.11 54.17 172.46 54.49 172.81 54.7 173.16 54.7 173.51 54.7 173.86 54.6 174.2 54.81 174.55 54.81 174.9 54.91 175.25 54.91 175.6 54.91 175.95 54.91 176.3 54.91 176.65 54.91 177 54.91 177.35 54.91 177.7 54.91 178.04 54.91 178.39 54.91 178.74 54.91 179.09 54.91 179.44 54.91 179.79 54.91 180.14 54.81 180.49 54.81 180.84 54.81 181.19 54.91 181.54 54.91 181.89 54.28 182.23 54.7 182.58 54.81 182.93 54.7 183.28 54.7 183.63 54.81 183.98 54.7 184.33 54.6 184.68 54.49 185.03 54.49 185.38 54.28 185.73 54.49 186.08 54.6 186.42 54.39 186.77 54.6 187.12 54.6 187.47 54.6 187.82 54.81 188.17 54.7 188.52 54.91 188.87 54.91 189.22 54.91 189.57 54.91 189.92 54.91 190.26 54.91 190.61 54.91 190.96 54.91 191.31 54.91 191.66 54.91 192.01 54.91 192.36 54.91 192.71 54.91 193.06 54.91 193.41 54.91 193.76 54.91 194.11 54.7 194.45 54.81 194.8 54.91 195.15 54.91 195.5 54.91 195.85 54.91 196.2 54.81"/>
      </g>
      <g stroke-width="0.3" fill="#000000" fill-opacity="0.000" class="geometry" stroke-dasharray="none" stroke="#F46D43" id="img-7740a5e5-37">
        <path fill="none" d="M21.98,33.76 L 22.33 32.71 22.68 32.92 23.03 33.45 23.38 32.71 23.73 33.45 24.08 33.23 24.42 33.87 24.77 33.87 25.12 34.29 25.47 33.87 25.82 34.61 26.17 34.61 26.52 33.76 26.87 33.23 27.22 33.76 27.57 33.97 27.92 32.71 28.27 32.6 28.61 32.07 28.96 33.45 29.31 33.55 29.66 34.5 30.01 33.55 30.36 33.23 30.71 32.6 31.06 31.54 31.41 32.28 31.76 34.29 32.11 33.13 32.45 32.49 32.8 32.6 33.15 32.39 33.5 31.54 33.85 32.28 34.2 31.33 34.55 31.65 34.9 31.86 35.25 30.59 35.6 30.38 35.95 29.96 36.3 29.22 36.64 31.65 36.99 30.91 37.34 31.33 37.69 31.75 38.04 33.02 38.39 32.81 38.74 32.92 39.09 34.4 39.44 32.18 39.79 31.65 40.14 31.23 40.49 29.64 40.83 31.44 41.18 29.22 41.53 28.58 41.88 30.59 42.23 29.53 42.58 29.74 42.93 29.43 43.28 29.64 43.63 28.58 43.98 28.37 44.33 27.42 44.67 28.79 45.02 28.37 45.37 29.85 45.72 29.43 46.07 29 46.42 30.38 46.77 32.07 47.12 31.65 47.47 31.97 47.82 31.23 48.17 31.86 48.52 31.97 48.86 31.33 49.21 33.34 49.56 34.4 49.91 33.23 50.26 33.97 50.61 35.46 50.96 36.94 51.31 37.57 51.66 37.25 52.01 37.57 52.36 37.25 52.7 38.21 53.05 39.05 53.4 40.11 53.75 37.89 54.1 37.46 54.45 38.1 54.8 38.21 55.15 36.94 55.5 35.56 55.85 36.83 56.2 36.51 56.55 36.83 56.89 36.72 57.24 37.99 57.59 38.31 57.94 37.15 58.29 38.42 58.64 38.63 58.99 39.79 59.34 39.26 59.69 39.79 60.04 40 60.39 40 60.73 39.26 61.08 39.69 61.43 40 61.78 39.69 62.13 38.52 62.48 38.31 62.83 39.58 63.18 39.69 63.53 39.16 63.88 39.69 64.23 39.9 64.58 39.16 64.92 38.31 65.27 37.99 65.62 39.69 65.97 39.69 66.32 38.31 66.67 36.51 67.02 38.95 67.37 36.83 67.72 36.2 68.07 36.83 68.42 36.83 68.77 35.98 69.11 34.93 69.46 35.24 69.81 34.82 70.16 32.28 70.51 31.01 70.86 29.32 71.21 29.85 71.56 30.17 71.91 29 72.26 28.05 72.61 28.05 72.95 27.63 73.3 27.31 73.65 26.89 74 26.57 74.35 26.36 74.7 27.42 75.05 27.42 75.4 28.05 75.75 28.58 76.1 28.79 76.45 28.37 76.8 28.26 77.14 27.74 77.49 26.99 77.84 26.47 78.19 28.05 78.54 24.67 78.89 24.77 79.24 24.25 79.59 23.5 79.94 23.4 80.29 23.4 80.64 22.55 80.98 22.24 81.33 22.24 81.68 22.02 82.03 21.81 82.38 22.13 82.73 22.34 83.08 21.5 83.43 21.18 83.78 20.86 84.13 19.91 84.48 20.65 84.83 20.01 85.17 19.17 85.52 19.49 85.87 19.91 86.22 18.43 86.57 18.53 86.92 19.17 87.27 19.27 87.62 19.49 87.97 19.27 88.32 19.06 88.67 18.64 89.02 18.85 89.36 18.22 89.71 18.01 90.06 18.43 90.41 18.96 90.76 19.17 91.11 19.7 91.46 19.7 91.81 20.97 92.16 22.13 92.51 22.55 92.86 21.92 93.2 21.39 93.55 20.76 93.9 21.5 94.25 20.33 94.6 19.27 94.95 19.06 95.3 20.12 95.65 20.12 96 20.76 96.35 19.8 96.7 20.12 97.05 19.8 97.39 20.23 97.74 18.96 98.09 18.96 98.44 20.76 98.79 20.86 99.14 21.71 99.49 19.59 99.84 20.12 100.19 18.43 100.54 17.69 100.89 17.05 101.23 17.37 101.58 16.95 101.93 17.05 102.28 16.63 102.63 17.16 102.98 16.21 103.33 16 103.68 15.57 104.03 15.15 104.38 14.62 104.73 14.41 105.08 13.99 105.42 14.09 105.77 14.3 106.12 14.41 106.47 14.83 106.82 13.88 107.17 13.46 107.52 13.46 107.87 13.56 108.22 13.56 108.57 13.46 108.92 13.14 109.26 13.25 109.61 13.56 109.96 13.03 110.31 13.14 110.66 13.35 111.01 13.46 111.36 13.56 111.71 13.99 112.06 13.88 112.41 13.78 112.76 13.78 113.11 13.78 113.45 13.56 113.8 13.56 114.15 12.93 114.5 12.93 114.85 12.61 115.2 12.61 115.55 12.61 115.9 12.61 116.25 12.61 116.6 12.61 116.95 12.61 117.3 12.61 117.64 12.61 117.99 12.61 118.34 12.61 118.69 12.61 119.04 12.61 119.39 12.61 119.74 12.61 120.09 12.61 120.44 12.61 120.79 12.72 121.14 12.61 121.48 12.61 121.83 12.61 122.18 12.61 122.53 12.61 122.88 12.61 123.23 12.61 123.58 12.61 123.93 12.61 124.28 12.61 124.63 12.61 124.98 12.61 125.33 12.61 125.67 12.61 126.02 12.61 126.37 12.61 126.72 12.61 127.07 12.61 127.42 12.61 127.77 12.61 128.12 12.61 128.47 12.61 128.82 12.61 129.17 12.61 129.51 12.61 129.86 12.61 130.21 12.61 130.56 12.61 130.91 12.61 131.26 12.61 131.61 12.61 131.96 12.61 132.31 12.61 132.66 12.61 133.01 12.61 133.36 12.61 133.7 12.61 134.05 12.61 134.4 12.61 134.75 12.61 135.1 12.61 135.45 12.61 135.8 12.61 136.15 12.61 136.5 12.61 136.85 12.61 137.2 12.61 137.55 12.61 137.89 12.61 138.24 12.61 138.59 12.61 138.94 12.61 139.29 12.61 139.64 12.61 139.99 12.61 140.34 12.61 140.69 12.61 141.04 12.61 141.39 12.61 141.73 12.61 142.08 12.61 142.43 12.61 142.78 12.61 143.13 12.61 143.48 12.61 143.83 12.61 144.18 12.61 144.53 12.61 144.88 12.61 145.23 12.61 145.58 12.61 145.92 12.61 146.27 12.61 146.62 12.61 146.97 12.61 147.32 12.61 147.67 12.61 148.02 12.72 148.37 12.82 148.72 13.14 149.07 13.03 149.42 12.72 149.76 12.61 150.11 12.61 150.46 12.61 150.81 12.61 151.16 12.61 151.51 12.61 151.86 12.61 152.21 12.61 152.56 12.61 152.91 12.61 153.26 12.61 153.61 12.61 153.95 12.61 154.3 12.61 154.65 12.61 155 12.61 155.35 12.61 155.7 12.61 156.05 12.61 156.4 12.61 156.75 12.61 157.1 12.61 157.45 12.61 157.79 12.61 158.14 12.61 158.49 12.61 158.84 12.61 159.19 12.61 159.54 12.61 159.89 12.61 160.24 12.82 160.59 12.72 160.94 12.61 161.29 12.61 161.64 12.61 161.98 12.61 162.33 12.82 162.68 12.72 163.03 12.82 163.38 13.25 163.73 13.35 164.08 13.56 164.43 14.09 164.78 13.88 165.13 13.88 165.48 14.3 165.83 13.99 166.17 13.99 166.52 13.88 166.87 13.46 167.22 12.82 167.57 12.82 167.92 12.93 168.27 12.72 168.62 12.82 168.97 12.82 169.32 12.93 169.67 12.72 170.01 12.82 170.36 12.82 170.71 12.93 171.06 12.82 171.41 12.61 171.76 12.61 172.11 12.61 172.46 12.61 172.81 12.61 173.16 12.61 173.51 12.61 173.86 12.61 174.2 12.61 174.55 12.61 174.9 12.61 175.25 12.61 175.6 12.61 175.95 12.61 176.3 12.61 176.65 12.61 177 12.61 177.35 12.61 177.7 12.61 178.04 12.61 178.39 12.61 178.74 12.61 179.09 12.61 179.44 12.61 179.79 12.61 180.14 12.61 180.49 12.61 180.84 12.61 181.19 12.61 181.54 12.61 181.89 12.61 182.23 12.61 182.58 12.61 182.93 12.61 183.28 12.61 183.63 12.82 183.98 12.72 184.33 12.72 184.68 12.72 185.03 12.72 185.38 12.72 185.73 12.61 186.08 12.61 186.42 12.61 186.77 12.61 187.12 12.61 187.47 12.72 187.82 12.61 188.17 12.61 188.52 12.61 188.87 12.61 189.22 12.61 189.57 12.61 189.92 12.61 190.26 12.61 190.61 12.61 190.96 12.61 191.31 12.61 191.66 12.61 192.01 12.61 192.36 12.61 192.71 12.61 193.06 12.61 193.41 12.61 193.76 12.61 194.11 12.61 194.45 12.61 194.8 12.61 195.15 12.61 195.5 12.61 195.85 12.61 196.2 12.61"/>
      </g>
      <g stroke-width="0.3" fill="#000000" fill-opacity="0.000" class="geometry" stroke-dasharray="none" stroke="#D53E4F" id="img-7740a5e5-38">
        <path fill="none" d="M21.98,33.76 L 22.33 34.93 22.68 33.87 23.03 34.4 23.38 33.23 23.73 33.45 24.08 31.65 24.42 32.28 24.77 32.6 25.12 33.02 25.47 32.39 25.82 34.4 26.17 35.03 26.52 35.24 26.87 36.83 27.22 38.63 27.57 38.73 27.92 38.84 28.27 39.05 28.61 41.06 28.96 40 29.31 39.69 29.66 40.43 30.01 40.95 30.36 41.7 30.71 41.27 31.06 41.38 31.41 41.38 31.76 41.27 32.11 41.8 32.45 41.8 32.8 41.8 33.15 41.38 33.5 42.33 33.85 42.01 34.2 41.7 34.55 41.38 34.9 42.75 35.25 41.27 35.6 41.7 35.95 41.06 36.3 39.69 36.64 41.91 36.99 42.65 37.34 43.39 37.69 42.33 38.04 42.65 38.39 44.34 38.74 43.49 39.09 43.81 39.44 44.44 39.79 44.55 40.14 46.14 40.49 47.19 40.83 48.15 41.18 49.42 41.53 48.89 41.88 48.78 42.23 48.89 42.58 48.89 42.93 49.2 43.28 48.89 43.63 48.68 43.98 48.36 44.33 48.68 44.67 49.94 45.02 49.1 45.37 48.99 45.72 49.31 46.07 49.73 46.42 49.63 46.77 49.84 47.12 50.26 47.47 50.16 47.82 49.73 48.17 49.52 48.52 50.05 48.86 50.47 49.21 50.16 49.56 49.84 49.91 49.94 50.26 49.84 50.61 48.99 50.96 49.63 51.31 48.25 51.66 50.05 52.01 49.84 52.36 49.52 52.7 50.68 53.05 49.94 53.4 49.94 53.75 50.9 54.1 51.42 54.45 50.9 54.8 51 55.15 51.64 55.5 51.64 55.85 51.32 56.2 51.21 56.55 50.9 56.89 51.64 57.24 51.32 57.59 51.95 57.94 51.11 58.29 49.63 58.64 49.2 58.99 48.57 59.34 48.68 59.69 47.93 60.04 48.57 60.39 46.98 60.73 48.99 61.08 49.63 61.43 49.52 61.78 49.63 62.13 50.37 62.48 49.73 62.83 50.58 63.18 51.11 63.53 51.74 63.88 51.85 64.23 51 64.58 51 64.92 51.53 65.27 51.64 65.62 52.06 65.97 52.17 66.32 52.69 66.67 51.95 67.02 51.53 67.37 50.68 67.72 51.42 68.07 51.32 68.42 51.53 68.77 50.58 69.11 50.47 69.46 50.05 69.81 51.11 70.16 51.74 70.51 52.06 70.86 52.27 71.21 51.95 71.56 51.64 71.91 51.42 72.26 51.32 72.61 51.11 72.95 50.16 73.3 50.68 73.65 50.16 74 49.52 74.35 49.31 74.7 49.31 75.05 48.78 75.4 49.84 75.75 48.89 76.1 50.16 76.45 50.05 76.8 49.52 77.14 49.52 77.49 49.73 77.84 50.05 78.19 51 78.54 51.42 78.89 52.69 79.24 52.69 79.59 52.48 79.94 52.06 80.29 52.27 80.64 52.38 80.98 52.17 81.33 51.95 81.68 52.27 82.03 52.91 82.38 53.33 82.73 54.07 83.08 53.65 83.43 53.96 83.78 53.86 84.13 53.65 84.48 53.75 84.83 53.65 85.17 53.65 85.52 53.43 85.87 53.12 86.22 53.75 86.57 53.86 86.92 54.17 87.27 54.07 87.62 54.07 87.97 53.86 88.32 53.86 88.67 53.86 89.02 54.07 89.36 53.96 89.71 53.86 90.06 54.17 90.41 53.96 90.76 53.96 91.11 53.01 91.46 53.75 91.81 53.65 92.16 53.54 92.51 54.28 92.86 54.6 93.2 54.7 93.55 54.7 93.9 54.39 94.25 54.28 94.6 54.28 94.95 54.39 95.3 54.39 95.65 54.7 96 54.39 96.35 54.39 96.7 54.28 97.05 54.49 97.39 54.49 97.74 54.49 98.09 54.39 98.44 54.39 98.79 54.28 99.14 54.07 99.49 53.96 99.84 53.43 100.19 52.91 100.54 53.33 100.89 52.91 101.23 53.12 101.58 53.33 101.93 53.65 102.28 53.43 102.63 53.65 102.98 53.43 103.33 53.75 103.68 53.75 104.03 53.86 104.38 54.39 104.73 54.81 105.08 54.81 105.42 54.7 105.77 54.49 106.12 54.49 106.47 54.17 106.82 54.39 107.17 54.49 107.52 54.07 107.87 53.65 108.22 53.54 108.57 53.54 108.92 53.54 109.26 53.54 109.61 53.22 109.96 53.01 110.31 53.12 110.66 53.22 111.01 54.07 111.36 54.07 111.71 54.49 112.06 54.49 112.41 54.39 112.76 54.7 113.11 54.49 113.45 54.6 113.8 54.81 114.15 54.91 114.5 54.91 114.85 54.91 115.2 54.91 115.55 54.91 115.9 54.91 116.25 54.91 116.6 54.91 116.95 54.91 117.3 54.91 117.64 54.91 117.99 54.91 118.34 54.91 118.69 54.91 119.04 54.91 119.39 54.91 119.74 54.91 120.09 54.91 120.44 54.91 120.79 54.91 121.14 54.91 121.48 54.91 121.83 54.91 122.18 54.91 122.53 54.91 122.88 54.81 123.23 54.7 123.58 54.7 123.93 54.7 124.28 54.7 124.63 54.7 124.98 54.81 125.33 54.91 125.67 54.91 126.02 54.91 126.37 54.91 126.72 54.91 127.07 54.91 127.42 54.91 127.77 54.91 128.12 54.91 128.47 54.91 128.82 54.91 129.17 54.91 129.51 54.91 129.86 54.91 130.21 54.91 130.56 54.91 130.91 54.91 131.26 54.91 131.61 54.91 131.96 54.91 132.31 54.91 132.66 54.91 133.01 54.91 133.36 54.91 133.7 54.91 134.05 54.91 134.4 54.91 134.75 54.91 135.1 54.91 135.45 54.91 135.8 54.91 136.15 54.91 136.5 54.91 136.85 54.91 137.2 54.91 137.55 54.91 137.89 54.91 138.24 54.91 138.59 54.91 138.94 54.91 139.29 54.91 139.64 54.91 139.99 54.91 140.34 54.91 140.69 54.91 141.04 54.91 141.39 54.91 141.73 54.91 142.08 54.91 142.43 54.91 142.78 54.91 143.13 54.91 143.48 54.91 143.83 54.91 144.18 54.91 144.53 54.91 144.88 54.91 145.23 54.91 145.58 54.91 145.92 54.91 146.27 54.91 146.62 54.91 146.97 54.91 147.32 54.91 147.67 54.91 148.02 54.91 148.37 54.91 148.72 54.91 149.07 54.91 149.42 54.91 149.76 54.91 150.11 54.91 150.46 54.91 150.81 54.91 151.16 54.91 151.51 54.91 151.86 54.91 152.21 54.91 152.56 54.91 152.91 54.91 153.26 54.91 153.61 54.91 153.95 54.91 154.3 54.91 154.65 54.91 155 54.91 155.35 54.91 155.7 54.91 156.05 54.91 156.4 54.91 156.75 54.91 157.1 54.91 157.45 54.91 157.79 54.91 158.14 54.91 158.49 54.91 158.84 54.91 159.19 54.91 159.54 54.91 159.89 54.91 160.24 54.91 160.59 54.91 160.94 54.91 161.29 54.91 161.64 54.91 161.98 54.81 162.33 54.81 162.68 54.6 163.03 54.7 163.38 54.81 163.73 54.91 164.08 54.91 164.43 54.91 164.78 54.91 165.13 54.91 165.48 54.91 165.83 54.91 166.17 54.91 166.52 54.91 166.87 54.91 167.22 54.91 167.57 54.91 167.92 54.91 168.27 54.91 168.62 54.91 168.97 54.91 169.32 54.91 169.67 54.91 170.01 54.91 170.36 54.91 170.71 54.91 171.06 54.91 171.41 54.91 171.76 54.91 172.11 54.91 172.46 54.91 172.81 54.91 173.16 54.91 173.51 54.91 173.86 54.91 174.2 54.91 174.55 54.91 174.9 54.91 175.25 54.91 175.6 54.91 175.95 54.91 176.3 54.91 176.65 54.91 177 54.91 177.35 54.91 177.7 54.91 178.04 54.91 178.39 54.91 178.74 54.91 179.09 54.91 179.44 54.91 179.79 54.91 180.14 54.91 180.49 54.91 180.84 54.91 181.19 54.91 181.54 54.91 181.89 54.91 182.23 54.91 182.58 54.91 182.93 54.91 183.28 54.91 183.63 54.91 183.98 54.91 184.33 54.91 184.68 54.91 185.03 54.7 185.38 54.7 185.73 54.81 186.08 54.91 186.42 54.91 186.77 54.91 187.12 54.81 187.47 54.81 187.82 54.91 188.17 54.91 188.52 54.91 188.87 54.91 189.22 54.91 189.57 54.91 189.92 54.91 190.26 54.91 190.61 54.91 190.96 54.91 191.31 54.91 191.66 54.91 192.01 54.91 192.36 54.91 192.71 54.91 193.06 54.91 193.41 54.91 193.76 54.91 194.11 54.91 194.45 54.91 194.8 54.91 195.15 54.91 195.5 54.91 195.85 54.91 196.2 54.91"/>
      </g>
      <g stroke-width="0.3" fill="#000000" fill-opacity="0.000" class="geometry" stroke-dasharray="none" stroke="#9E0142" id="img-7740a5e5-39">
        <path fill="none" d="M21.98,33.76 L 22.33 33.13 22.68 32.18 23.03 31.33 23.38 30.17 23.73 31.23 24.08 30.17 24.42 29.96 24.77 30.38 25.12 29 25.47 29.32 25.82 27.63 26.17 28.05 26.52 29.32 26.87 29.32 27.22 31.33 27.57 30.38 27.92 30.59 28.27 30.17 28.61 29.96 28.96 31.12 29.31 32.28 29.66 33.87 30.01 34.19 30.36 34.82 30.71 34.08 31.06 34.93 31.41 34.93 31.76 33.76 32.11 34.72 32.45 34.93 32.8 34.93 33.15 31.54 33.5 31.12 33.85 31.54 34.2 32.18 34.55 30.91 34.9 29.43 35.25 29.53 35.6 28.48 35.95 28.48 36.3 29.43 36.64 28.05 36.99 27.31 37.34 26.99 37.69 25.94 38.04 25.3 38.39 25.3 38.74 24.35 39.09 25.2 39.44 24.77 39.79 23.61 40.14 23.82 40.49 22.66 40.83 23.08 41.18 22.13 41.53 22.76 41.88 21.28 42.23 21.18 42.58 18.85 42.93 19.8 43.28 19.7 43.63 19.7 43.98 20.65 44.33 19.8 44.67 19.8 45.02 21.71 45.37 21.07 45.72 21.6 46.07 21.81 46.42 23.5 46.77 24.99 47.12 25.51 47.47 26.78 47.82 27.1 48.17 25.73 48.52 24.56 48.86 24.35 49.21 25.51 49.56 26.36 49.91 27.74 50.26 26.89 50.61 25.73 50.96 25.94 51.31 24.46 51.66 24.99 52.01 24.35 52.36 22.76 52.7 22.34 53.05 22.98 53.4 22.76 53.75 24.46 54.1 25.51 54.45 25.83 54.8 24.56 55.15 25.94 55.5 26.04 55.85 25.73 56.2 26.25 56.55 24.03 56.89 23.19 57.24 23.93 57.59 24.35 57.94 24.14 58.29 23.72 58.64 23.93 58.99 23.72 59.34 24.88 59.69 25.41 60.04 25.2 60.39 24.99 60.73 24.35 61.08 24.88 61.43 25.3 61.78 24.25 62.13 24.67 62.48 24.77 62.83 23.61 63.18 22.76 63.53 21.81 63.88 22.34 64.23 20.54 64.58 20.12 64.92 19.49 65.27 18.96 65.62 17.27 65.97 17.37 66.32 16.95 66.67 16.74 67.02 16.31 67.37 15.89 67.72 16.95 68.07 16.84 68.42 17.16 68.77 17.27 69.11 17.27 69.46 16.63 69.81 17.69 70.16 17.37 70.51 16.42 70.86 16.1 71.21 16.31 71.56 15.89 71.91 15.68 72.26 15.47 72.61 15.78 72.95 15.47 73.3 15.89 73.65 15.68 74 15.68 74.35 15.68 74.7 15.78 75.05 14.94 75.4 15.15 75.75 15.36 76.1 15.04 76.45 15.68 76.8 15.68 77.14 15.36 77.49 15.36 77.84 15.89 78.19 15.47 78.54 15.68 78.89 16 79.24 17.48 79.59 16.52 79.94 17.79 80.29 17.79 80.64 19.06 80.98 22.02 81.33 21.6 81.68 20.65 82.03 20.23 82.38 18.32 82.73 18.96 83.08 19.27 83.43 20.44 83.78 21.18 84.13 20.86 84.48 21.07 84.83 22.98 85.17 21.5 85.52 19.49 85.87 19.27 86.22 20.12 86.57 21.6 86.92 21.39 87.27 20.01 87.62 18.96 87.97 19.59 88.32 19.8 88.67 18.64 89.02 19.27 89.36 19.17 89.71 18.22 90.06 16.84 90.41 17.48 90.76 18.32 91.11 18.01 91.46 18.11 91.81 18.75 92.16 18.64 92.51 17.69 92.86 16.21 93.2 16.63 93.55 16.84 93.9 17.05 94.25 17.37 94.6 18.01 94.95 18.32 95.3 18.32 95.65 18.01 96 18.75 96.35 18.22 96.7 17.05 97.05 16.52 97.39 16.1 97.74 16.42 98.09 14.83 98.44 14.94 98.79 14.62 99.14 14.3 99.49 13.99 99.84 13.56 100.19 13.14 100.54 12.93 100.89 12.72 101.23 13.25 101.58 13.03 101.93 13.03 102.28 13.14 102.63 13.03 102.98 13.03 103.33 13.03 103.68 12.72 104.03 12.72 104.38 12.72 104.73 12.61 105.08 12.61 105.42 12.61 105.77 12.61 106.12 12.61 106.47 12.61 106.82 12.61 107.17 12.61 107.52 12.61 107.87 12.61 108.22 12.61 108.57 12.61 108.92 12.61 109.26 12.61 109.61 12.61 109.96 12.61 110.31 12.61 110.66 12.61 111.01 12.61 111.36 12.61 111.71 12.61 112.06 12.61 112.41 12.61 112.76 12.61 113.11 12.61 113.45 12.61 113.8 12.61 114.15 12.61 114.5 12.61 114.85 12.61 115.2 12.82 115.55 12.82 115.9 12.93 116.25 12.93 116.6 12.93 116.95 13.14 117.3 12.93 117.64 13.03 117.99 13.03 118.34 13.03 118.69 12.82 119.04 13.03 119.39 12.93 119.74 12.82 120.09 12.82 120.44 12.72 120.79 12.82 121.14 12.93 121.48 12.72 121.83 12.61 122.18 12.61 122.53 12.61 122.88 12.61 123.23 12.61 123.58 12.61 123.93 12.61 124.28 12.61 124.63 12.61 124.98 12.61 125.33 12.61 125.67 12.61 126.02 12.61 126.37 12.61 126.72 12.61 127.07 12.61 127.42 12.61 127.77 12.61 128.12 12.61 128.47 12.61 128.82 12.61 129.17 12.61 129.51 12.61 129.86 12.61 130.21 12.61 130.56 12.72 130.91 12.72 131.26 12.72 131.61 12.72 131.96 12.61 132.31 12.61 132.66 12.61 133.01 12.61 133.36 12.61 133.7 12.61 134.05 12.61 134.4 12.61 134.75 12.61 135.1 12.61 135.45 12.61 135.8 12.61 136.15 12.61 136.5 12.61 136.85 12.61 137.2 12.61 137.55 12.61 137.89 12.61 138.24 12.61 138.59 12.61 138.94 12.61 139.29 12.61 139.64 12.61 139.99 12.61 140.34 12.61 140.69 12.61 141.04 12.61 141.39 12.61 141.73 12.61 142.08 12.61 142.43 12.61 142.78 12.61 143.13 12.61 143.48 12.61 143.83 12.61 144.18 12.61 144.53 12.61 144.88 12.61 145.23 12.61 145.58 12.61 145.92 12.61 146.27 12.61 146.62 12.61 146.97 12.61 147.32 12.61 147.67 12.61 148.02 12.61 148.37 12.61 148.72 12.61 149.07 12.61 149.42 12.61 149.76 12.61 150.11 12.61 150.46 12.61 150.81 12.61 151.16 12.61 151.51 12.61 151.86 12.61 152.21 12.61 152.56 12.61 152.91 12.61 153.26 12.61 153.61 12.61 153.95 12.61 154.3 12.61 154.65 12.61 155 12.61 155.35 12.61 155.7 12.61 156.05 12.61 156.4 12.61 156.75 12.61 157.1 12.61 157.45 12.61 157.79 12.61 158.14 12.61 158.49 12.61 158.84 12.61 159.19 12.61 159.54 12.61 159.89 12.61 160.24 12.61 160.59 12.61 160.94 12.61 161.29 12.61 161.64 12.61 161.98 12.61 162.33 12.61 162.68 12.61 163.03 12.61 163.38 12.61 163.73 12.61 164.08 12.61 164.43 12.61 164.78 12.61 165.13 12.61 165.48 12.61 165.83 12.61 166.17 12.61 166.52 12.61 166.87 12.61 167.22 12.61 167.57 12.61 167.92 12.61 168.27 12.61 168.62 12.61 168.97 12.61 169.32 12.61 169.67 12.61 170.01 12.61 170.36 12.61 170.71 12.61 171.06 12.61 171.41 12.61 171.76 12.61 172.11 12.61 172.46 12.61 172.81 12.61 173.16 12.61 173.51 12.61 173.86 12.61 174.2 12.61 174.55 12.61 174.9 12.61 175.25 12.61 175.6 12.61 175.95 12.61 176.3 12.61 176.65 12.61 177 12.61 177.35 12.61 177.7 12.61 178.04 12.61 178.39 12.61 178.74 12.72 179.09 12.72 179.44 12.61 179.79 12.61 180.14 12.61 180.49 12.61 180.84 12.61 181.19 12.61 181.54 12.61 181.89 12.61 182.23 12.61 182.58 12.61 182.93 12.61 183.28 12.61 183.63 12.61 183.98 12.61 184.33 12.61 184.68 12.61 185.03 12.61 185.38 12.61 185.73 12.61 186.08 12.61 186.42 12.61 186.77 12.61 187.12 12.61 187.47 12.61 187.82 12.61 188.17 12.61 188.52 12.61 188.87 12.61 189.22 12.61 189.57 12.61 189.92 12.61 190.26 12.61 190.61 12.72 190.96 12.61 191.31 12.61 191.66 12.61 192.01 12.61 192.36 12.61 192.71 12.61 193.06 12.61 193.41 12.61 193.76 12.82 194.11 12.82 194.45 12.93 194.8 12.82 195.15 12.82 195.5 12.93 195.85 12.93 196.2 13.14"/>
      </g>
    </g>
  </g>
</g>
  <g class="guide ylabels" font-size="2.82" font-family="'PT Sans Caption','Helvetica Neue','Helvetica',sans-serif" fill="#000000" id="img-7740a5e5-40">
    <text x="18.63" y="54.91" text-anchor="end" dy="0.35em">0</text>
    <text x="18.63" y="44.34" text-anchor="end" dy="0.35em">100</text>
    <text x="18.63" y="33.76" text-anchor="end" dy="0.35em">200</text>
    <text x="18.63" y="23.19" text-anchor="end" dy="0.35em">300</text>
    <text x="18.63" y="12.61" text-anchor="end" dy="0.35em">400</text>
  </g>
  <g font-size="3.88" font-family="'PT Sans','Helvetica Neue','Helvetica',sans-serif" fill="#000000" stroke="#000000" stroke-opacity="0.000" id="img-7740a5e5-41">
    <text x="8.81" y="31.76" text-anchor="middle" dy="0.35em" transform="rotate(-90, 8.81, 33.76)">population size</text>
  </g>
  <g font-size="3.88" font-family="'PT Sans','Helvetica Neue','Helvetica',sans-serif" fill="#000000" stroke="#000000" stroke-opacity="0.000" id="img-7740a5e5-42">
    <text x="108.92" y="5" text-anchor="middle" dy="0.6em">genetic drift with mutationrate  = 0.0001 </text>
  </g>
</g>
<defs>
  <clipPath id="img-7740a5e5-8">
  <path d="M18.63,86.81 L 174.03 86.81 174.03 133.11 18.63 133.11" />
</clipPath>
  <clipPath id="img-7740a5e5-24">
  <path d="M19.63,10.61 L 198.2 10.61 198.2 56.91 19.63 56.91" />
</clipPath>
</defs>
</svg>
