<?xml version="1.0" encoding="UTF-8"?>
<svg xmlns="http://www.w3.org/2000/svg"
     xmlns:xlink="http://www.w3.org/1999/xlink"
     xmlns:gadfly="http://www.gadflyjl.org/ns"
     version="1.2"
     width="203.2mm" height="152.4mm" viewBox="0 0 203.2 152.4"
     stroke="none"
     fill="#000000"
     stroke-width="0.3"
     font-size="3.88"
>
<g class="plotroot xscalable yscalable" id="img-3116e1ba-1">
  <g font-size="3.88" font-family="'PT Sans','Helvetica Neue','Helvetica',sans-serif" fill="#000000" stroke="#000000" stroke-opacity="0.000" id="img-3116e1ba-2">
    <text x="96.33" y="140.79" text-anchor="middle" dy="0.6em">number of A_type individuals (bin count = 50)</text>
  </g>
  <g class="guide xlabels" font-size="2.82" font-family="'PT Sans Caption','Helvetica Neue','Helvetica',sans-serif" fill="#000000" id="img-3116e1ba-3">
    <text x="20.63" y="134.11" text-anchor="middle" dy="0.6em">0</text>
    <text x="50.91" y="134.11" text-anchor="middle" dy="0.6em">100</text>
    <text x="81.19" y="134.11" text-anchor="middle" dy="0.6em">200</text>
    <text x="111.47" y="134.11" text-anchor="middle" dy="0.6em">300</text>
    <text x="141.75" y="134.11" text-anchor="middle" dy="0.6em">400</text>
    <text x="172.03" y="134.11" text-anchor="middle" dy="0.6em">500</text>
  </g>
  <g class="guide colorkey" id="img-3116e1ba-4">
    <g fill="#4C404B" font-size="2.82" font-family="'PT Sans','Helvetica Neue','Helvetica',sans-serif" id="img-3116e1ba-5">
      <text x="177.85" y="109.96" dy="0.35em">histogram</text>
      <text x="177.85" y="113.59" dy="0.35em">theoretical curve</text>
    </g>
    <g stroke="#000000" stroke-opacity="0.000" id="img-3116e1ba-6">
      <rect x="175.03" y="109.06" width="1.81" height="1.81" fill="#00BFFF"/>
      <rect x="175.03" y="112.68" width="1.81" height="1.81" fill="#FFA500"/>
    </g>
    <g fill="#362A35" font-size="3.88" font-family="'PT Sans','Helvetica Neue','Helvetica',sans-serif" stroke="#000000" stroke-opacity="0.000" id="img-3116e1ba-7">
      <text x="175.03" y="106.14">Legend</text>
    </g>
  </g>
<g clip-path="url(#img-3116e1ba-8)">
  <g id="img-3116e1ba-9">
    <g pointer-events="visible" opacity="1" fill="#FFFFFF" stroke="#000000" stroke-opacity="0.000" class="guide background" id="img-3116e1ba-10">
      <rect x="18.63" y="86.81" width="155.4" height="46.3"/>
    </g>
    <g class="guide ygridlines xfixed" stroke-dasharray="0.5,0.5" stroke-width="0.2" stroke="#808080" id="img-3116e1ba-11">
      <path fill="none" d="M18.63,131.11 L 174.03 131.11"/>
      <path fill="none" d="M18.63,122.65 L 174.03 122.65"/>
      <path fill="none" d="M18.63,114.19 L 174.03 114.19"/>
      <path fill="none" d="M18.63,105.73 L 174.03 105.73"/>
      <path fill="none" d="M18.63,97.27 L 174.03 97.27"/>
      <path fill="none" d="M18.63,88.81 L 174.03 88.81"/>
    </g>
    <g class="guide xgridlines yfixed" stroke-dasharray="0.5,0.5" stroke-width="0.2" stroke="#808080" id="img-3116e1ba-12">
      <path fill="none" d="M20.63,86.81 L 20.63 133.11"/>
      <path fill="none" d="M50.91,86.81 L 50.91 133.11"/>
      <path fill="none" d="M81.19,86.81 L 81.19 133.11"/>
      <path fill="none" d="M111.47,86.81 L 111.47 133.11"/>
      <path fill="none" d="M141.75,86.81 L 141.75 133.11"/>
      <path fill="none" d="M172.03,86.81 L 172.03 133.11"/>
    </g>
    <g class="plotpanel" id="img-3116e1ba-13">
      <g stroke-width="0.3" fill="#000000" fill-opacity="0.000" class="geometry" stroke-dasharray="none" stroke="#FFA500" id="img-3116e1ba-14">
        <path fill="none" d="M21.24,122.65 L 21.85 126.87 22.46 128.27 23.06 128.97 23.67 129.4 24.28 129.68 24.89 129.88 25.5 130.03 26.1 130.14 26.71 130.24 27.32 130.31 27.93 130.38 28.54 130.43 29.14 130.48 29.75 130.52 30.36 130.55 30.97 130.58 31.58 130.61 32.18 130.63 32.79 130.66 33.4 130.68 34.01 130.69 34.62 130.71 35.22 130.73 35.83 130.74 36.44 130.75 37.05 130.76 37.66 130.78 38.26 130.79 38.87 130.8 39.48 130.8 40.09 130.81 40.7 130.82 41.3 130.83 41.91 130.83 42.52 130.84 43.13 130.85 43.74 130.85 44.35 130.86 44.95 130.86 45.56 130.87 46.17 130.87 46.78 130.88 47.39 130.88 47.99 130.89 48.6 130.89 49.21 130.89 49.82 130.9 50.43 130.9 51.03 130.9 51.64 130.91 52.25 130.91 52.86 130.91 53.47 130.92 54.07 130.92 54.68 130.92 55.29 130.92 55.9 130.93 56.51 130.93 57.11 130.93 57.72 130.93 58.33 130.93 58.94 130.94 59.55 130.94 60.15 130.94 60.76 130.94 61.37 130.94 61.98 130.94 62.59 130.95 63.19 130.95 63.8 130.95 64.41 130.95 65.02 130.95 65.63 130.95 66.23 130.95 66.84 130.96 67.45 130.96 68.06 130.96 68.67 130.96 69.27 130.96 69.88 130.96 70.49 130.96 71.1 130.96 71.71 130.96 72.31 130.96 72.92 130.97 73.53 130.97 74.14 130.97 74.75 130.97 75.36 130.97 75.96 130.97 76.57 130.97 77.18 130.97 77.79 130.97 78.4 130.97 79 130.97 79.61 130.97 80.22 130.97 80.83 130.97 81.44 130.97 82.04 130.97 82.65 130.98 83.26 130.98 83.87 130.98 84.48 130.98 85.08 130.98 85.69 130.98 86.3 130.98 86.91 130.98 87.52 130.98 88.12 130.98 88.73 130.98 89.34 130.98 89.95 130.98 90.56 130.98 91.16 130.98 91.77 130.98 92.38 130.98 92.99 130.98 93.6 130.98 94.2 130.98 94.81 130.98 95.42 130.98 96.03 130.98 96.64 130.98 97.24 130.98 97.85 130.98 98.46 130.98 99.07 130.98 99.68 130.98 100.28 130.98 100.89 130.98 101.5 130.98 102.11 130.98 102.72 130.98 103.32 130.98 103.93 130.98 104.54 130.98 105.15 130.98 105.76 130.98 106.37 130.98 106.97 130.98 107.58 130.98 108.19 130.98 108.8 130.98 109.41 130.98 110.01 130.98 110.62 130.97 111.23 130.97 111.84 130.97 112.45 130.97 113.05 130.97 113.66 130.97 114.27 130.97 114.88 130.97 115.49 130.97 116.09 130.97 116.7 130.97 117.31 130.97 117.92 130.97 118.53 130.97 119.13 130.97 119.74 130.97 120.35 130.96 120.96 130.96 121.57 130.96 122.17 130.96 122.78 130.96 123.39 130.96 124 130.96 124.61 130.96 125.21 130.96 125.82 130.96 126.43 130.95 127.04 130.95 127.65 130.95 128.25 130.95 128.86 130.95 129.47 130.95 130.08 130.95 130.69 130.94 131.29 130.94 131.9 130.94 132.51 130.94 133.12 130.94 133.73 130.94 134.33 130.93 134.94 130.93 135.55 130.93 136.16 130.93 136.77 130.93 137.38 130.92 137.98 130.92 138.59 130.92 139.2 130.92 139.81 130.91 140.42 130.91 141.02 130.91 141.63 130.9 142.24 130.9 142.85 130.9 143.46 130.89 144.06 130.89 144.67 130.89 145.28 130.88 145.89 130.88 146.5 130.87 147.1 130.87 147.71 130.86 148.32 130.86 148.93 130.85 149.54 130.85 150.14 130.84 150.75 130.83 151.36 130.83 151.97 130.82 152.58 130.81 153.18 130.8 153.79 130.8 154.4 130.79 155.01 130.78 155.62 130.76 156.22 130.75 156.83 130.74 157.44 130.73 158.05 130.71 158.66 130.69 159.26 130.68 159.87 130.66 160.48 130.63 161.09 130.61 161.7 130.58 162.3 130.55 162.91 130.52 163.52 130.48 164.13 130.43 164.74 130.38 165.34 130.31 165.95 130.24 166.56 130.14 167.17 130.03 167.78 129.88 168.39 129.68 168.99 129.4 169.6 128.97 170.21 128.27 170.82 126.87 171.43 122.65"/>
      </g>
      <g stroke-width="0.3" fill="#000000" fill-opacity="0.000" class="geometry" stroke-dasharray="none" stroke="#FFA500" id="img-3116e1ba-15">
        <path fill="none" d="M21.24,122.65 L 21.85 126.87 22.46 128.27 23.06 128.97 23.67 129.4 24.28 129.68 24.89 129.88 25.5 130.03 26.1 130.14 26.71 130.24 27.32 130.31 27.93 130.38 28.54 130.43 29.14 130.48 29.75 130.52 30.36 130.55 30.97 130.58 31.58 130.61 32.18 130.63 32.79 130.66 33.4 130.68 34.01 130.69 34.62 130.71 35.22 130.73 35.83 130.74 36.44 130.75 37.05 130.76 37.66 130.78 38.26 130.79 38.87 130.8 39.48 130.8 40.09 130.81 40.7 130.82 41.3 130.83 41.91 130.83 42.52 130.84 43.13 130.85 43.74 130.85 44.35 130.86 44.95 130.86 45.56 130.87 46.17 130.87 46.78 130.88 47.39 130.88 47.99 130.89 48.6 130.89 49.21 130.89 49.82 130.9 50.43 130.9 51.03 130.9 51.64 130.91 52.25 130.91 52.86 130.91 53.47 130.92 54.07 130.92 54.68 130.92 55.29 130.92 55.9 130.93 56.51 130.93 57.11 130.93 57.72 130.93 58.33 130.93 58.94 130.94 59.55 130.94 60.15 130.94 60.76 130.94 61.37 130.94 61.98 130.94 62.59 130.95 63.19 130.95 63.8 130.95 64.41 130.95 65.02 130.95 65.63 130.95 66.23 130.95 66.84 130.96 67.45 130.96 68.06 130.96 68.67 130.96 69.27 130.96 69.88 130.96 70.49 130.96 71.1 130.96 71.71 130.96 72.31 130.96 72.92 130.97 73.53 130.97 74.14 130.97 74.75 130.97 75.36 130.97 75.96 130.97 76.57 130.97 77.18 130.97 77.79 130.97 78.4 130.97 79 130.97 79.61 130.97 80.22 130.97 80.83 130.97 81.44 130.97 82.04 130.97 82.65 130.98 83.26 130.98 83.87 130.98 84.48 130.98 85.08 130.98 85.69 130.98 86.3 130.98 86.91 130.98 87.52 130.98 88.12 130.98 88.73 130.98 89.34 130.98 89.95 130.98 90.56 130.98 91.16 130.98 91.77 130.98 92.38 130.98 92.99 130.98 93.6 130.98 94.2 130.98 94.81 130.98 95.42 130.98 96.03 130.98 96.64 130.98 97.24 130.98 97.85 130.98 98.46 130.98 99.07 130.98 99.68 130.98 100.28 130.98 100.89 130.98 101.5 130.98 102.11 130.98 102.72 130.98 103.32 130.98 103.93 130.98 104.54 130.98 105.15 130.98 105.76 130.98 106.37 130.98 106.97 130.98 107.58 130.98 108.19 130.98 108.8 130.98 109.41 130.98 110.01 130.98 110.62 130.97 111.23 130.97 111.84 130.97 112.45 130.97 113.05 130.97 113.66 130.97 114.27 130.97 114.88 130.97 115.49 130.97 116.09 130.97 116.7 130.97 117.31 130.97 117.92 130.97 118.53 130.97 119.13 130.97 119.74 130.97 120.35 130.96 120.96 130.96 121.57 130.96 122.17 130.96 122.78 130.96 123.39 130.96 124 130.96 124.61 130.96 125.21 130.96 125.82 130.96 126.43 130.95 127.04 130.95 127.65 130.95 128.25 130.95 128.86 130.95 129.47 130.95 130.08 130.95 130.69 130.94 131.29 130.94 131.9 130.94 132.51 130.94 133.12 130.94 133.73 130.94 134.33 130.93 134.94 130.93 135.55 130.93 136.16 130.93 136.77 130.93 137.38 130.92 137.98 130.92 138.59 130.92 139.2 130.92 139.81 130.91 140.42 130.91 141.02 130.91 141.63 130.9 142.24 130.9 142.85 130.9 143.46 130.89 144.06 130.89 144.67 130.89 145.28 130.88 145.89 130.88 146.5 130.87 147.1 130.87 147.71 130.86 148.32 130.86 148.93 130.85 149.54 130.85 150.14 130.84 150.75 130.83 151.36 130.83 151.97 130.82 152.58 130.81 153.18 130.8 153.79 130.8 154.4 130.79 155.01 130.78 155.62 130.76 156.22 130.75 156.83 130.74 157.44 130.73 158.05 130.71 158.66 130.69 159.26 130.68 159.87 130.66 160.48 130.63 161.09 130.61 161.7 130.58 162.3 130.55 162.91 130.52 163.52 130.48 164.13 130.43 164.74 130.38 165.34 130.31 165.95 130.24 166.56 130.14 167.17 130.03 167.78 129.88 168.39 129.68 168.99 129.4 169.6 128.97 170.21 128.27 170.82 126.87 171.43 122.65"/>
      </g>
      <g shape-rendering="crispEdges" stroke-width="0.3" id="img-3116e1ba-16">
        <g stroke="#000000" stroke-opacity="0.000" fill="#00BFFF" class="geometry" id="img-3116e1ba-17">
          <rect x="20.61" y="92.2" width="3.08" height="38.92"/>
          <rect x="23.63" y="124.35" width="3.08" height="6.77"/>
          <rect x="26.66" y="127.73" width="3.08" height="3.38"/>
          <rect x="29.69" y="127.73" width="3.08" height="3.38"/>
          <rect x="32.72" y="129.42" width="3.08" height="1.69"/>
          <rect x="35.75" y="131.11" width="3.08" height="0.01"/>
          <rect x="38.77" y="131.11" width="3.08" height="0.01"/>
          <rect x="41.8" y="129.42" width="3.08" height="1.69"/>
          <rect x="44.83" y="129.42" width="3.08" height="1.69"/>
          <rect x="47.86" y="126.04" width="3.08" height="5.08"/>
          <rect x="50.89" y="129.42" width="3.08" height="1.69"/>
          <rect x="53.92" y="126.04" width="3.08" height="5.08"/>
          <rect x="56.94" y="129.42" width="3.08" height="1.69"/>
          <rect x="59.97" y="126.04" width="3.08" height="5.08"/>
          <rect x="63" y="127.73" width="3.08" height="3.38"/>
          <rect x="66.03" y="129.42" width="3.08" height="1.69"/>
          <rect x="69.06" y="129.42" width="3.08" height="1.69"/>
          <rect x="72.08" y="129.42" width="3.08" height="1.69"/>
          <rect x="75.11" y="124.35" width="3.08" height="6.77"/>
          <rect x="78.14" y="126.04" width="3.08" height="5.08"/>
          <rect x="81.17" y="127.73" width="3.08" height="3.38"/>
          <rect x="84.2" y="131.11" width="3.08" height="0.01"/>
          <rect x="87.22" y="131.11" width="3.08" height="0.01"/>
          <rect x="90.25" y="127.73" width="3.08" height="3.38"/>
          <rect x="93.28" y="129.42" width="3.08" height="1.69"/>
          <rect x="96.31" y="131.11" width="3.08" height="0.01"/>
          <rect x="99.34" y="131.11" width="3.08" height="0.01"/>
          <rect x="102.36" y="131.11" width="3.08" height="0.01"/>
          <rect x="105.39" y="131.11" width="3.08" height="0.01"/>
          <rect x="108.42" y="129.42" width="3.08" height="1.69"/>
          <rect x="111.45" y="127.73" width="3.08" height="3.38"/>
          <rect x="114.48" y="129.42" width="3.08" height="1.69"/>
          <rect x="117.5" y="127.73" width="3.08" height="3.38"/>
          <rect x="120.53" y="129.42" width="3.08" height="1.69"/>
          <rect x="123.56" y="129.42" width="3.08" height="1.69"/>
          <rect x="126.59" y="129.42" width="3.08" height="1.69"/>
          <rect x="129.62" y="131.11" width="3.08" height="0.01"/>
          <rect x="132.64" y="127.73" width="3.08" height="3.38"/>
          <rect x="135.67" y="129.42" width="3.08" height="1.69"/>
          <rect x="138.7" y="129.42" width="3.08" height="1.69"/>
          <rect x="141.73" y="131.11" width="3.08" height="0.01"/>
          <rect x="144.76" y="131.11" width="3.08" height="0.01"/>
          <rect x="147.78" y="131.11" width="3.08" height="0.01"/>
          <rect x="150.81" y="127.73" width="3.08" height="3.38"/>
          <rect x="153.84" y="126.04" width="3.08" height="5.08"/>
          <rect x="156.87" y="131.11" width="3.08" height="0.01"/>
          <rect x="159.9" y="127.73" width="3.08" height="3.38"/>
          <rect x="162.92" y="131.11" width="3.08" height="0.01"/>
          <rect x="165.95" y="127.73" width="3.08" height="3.38"/>
          <rect x="168.98" y="104.04" width="3.08" height="27.07"/>
        </g>
      </g>
    </g>
  </g>
</g>
  <g class="guide ylabels" font-size="2.82" font-family="'PT Sans Caption','Helvetica Neue','Helvetica',sans-serif" fill="#000000" id="img-3116e1ba-18">
    <text x="17.63" y="131.11" text-anchor="end" dy="0.35em">0.0</text>
    <text x="17.63" y="122.65" text-anchor="end" dy="0.35em">0.5</text>
    <text x="17.63" y="114.19" text-anchor="end" dy="0.35em">1.0</text>
    <text x="17.63" y="105.73" text-anchor="end" dy="0.35em">1.5</text>
    <text x="17.63" y="97.27" text-anchor="end" dy="0.35em">2.0</text>
    <text x="17.63" y="88.81" text-anchor="end" dy="0.35em">2.5</text>
  </g>
  <g font-size="3.88" font-family="'PT Sans','Helvetica Neue','Helvetica',sans-serif" fill="#000000" stroke="#000000" stroke-opacity="0.000" id="img-3116e1ba-19">
    <text x="8.81" y="107.96" text-anchor="middle" dy="0.35em" transform="rotate(-90, 8.81, 109.96)">density</text>
  </g>
  <g font-size="3.88" font-family="'PT Sans','Helvetica Neue','Helvetica',sans-serif" fill="#000000" stroke="#000000" stroke-opacity="0.000" id="img-3116e1ba-20">
    <text x="96.33" y="81.2" text-anchor="middle" dy="0.6em">Histogram of population in generation 500</text>
  </g>
</g>
<g class="plotroot xscalable yscalable" id="img-3116e1ba-21">
  <g font-size="3.88" font-family="'PT Sans','Helvetica Neue','Helvetica',sans-serif" fill="#000000" stroke="#000000" stroke-opacity="0.000" id="img-3116e1ba-22">
    <text x="108.92" y="64.59" text-anchor="middle" dy="0.6em">generation number</text>
  </g>
  <g class="guide xlabels" font-size="2.82" font-family="'PT Sans Caption','Helvetica Neue','Helvetica',sans-serif" fill="#000000" id="img-3116e1ba-23">
    <text x="21.63" y="57.91" text-anchor="middle" dy="0.6em">0</text>
    <text x="56.55" y="57.91" text-anchor="middle" dy="0.6em">100</text>
    <text x="91.46" y="57.91" text-anchor="middle" dy="0.6em">200</text>
    <text x="126.37" y="57.91" text-anchor="middle" dy="0.6em">300</text>
    <text x="161.29" y="57.91" text-anchor="middle" dy="0.6em">400</text>
    <text x="196.2" y="57.91" text-anchor="middle" dy="0.6em">500</text>
  </g>
<g clip-path="url(#img-3116e1ba-24)">
  <g id="img-3116e1ba-25">
    <g pointer-events="visible" opacity="1" fill="#FFFFFF" stroke="#000000" stroke-opacity="0.000" class="guide background" id="img-3116e1ba-26">
      <rect x="19.63" y="10.61" width="178.57" height="46.3"/>
    </g>
    <g class="guide ygridlines xfixed" stroke-dasharray="0.5,0.5" stroke-width="0.2" stroke="#808080" id="img-3116e1ba-27">
      <path fill="none" d="M19.63,54.91 L 198.2 54.91"/>
      <path fill="none" d="M19.63,46.45 L 198.2 46.45"/>
      <path fill="none" d="M19.63,37.99 L 198.2 37.99"/>
      <path fill="none" d="M19.63,29.53 L 198.2 29.53"/>
      <path fill="none" d="M19.63,21.07 L 198.2 21.07"/>
      <path fill="none" d="M19.63,12.61 L 198.2 12.61"/>
    </g>
    <g class="guide xgridlines yfixed" stroke-dasharray="0.5,0.5" stroke-width="0.2" stroke="#808080" id="img-3116e1ba-28">
      <path fill="none" d="M21.63,10.61 L 21.63 56.91"/>
      <path fill="none" d="M56.55,10.61 L 56.55 56.91"/>
      <path fill="none" d="M91.46,10.61 L 91.46 56.91"/>
      <path fill="none" d="M126.37,10.61 L 126.37 56.91"/>
      <path fill="none" d="M161.29,10.61 L 161.29 56.91"/>
      <path fill="none" d="M196.2,10.61 L 196.2 56.91"/>
    </g>
    <g class="plotpanel" id="img-3116e1ba-29">
      <g stroke-width="0.3" fill="#000000" fill-opacity="0.000" class="geometry" stroke-dasharray="none" stroke="#3288BD" id="img-3116e1ba-30">
        <path fill="none" d="M21.98,33.76 L 22.33 33.85 22.68 33 23.03 31.48 23.38 31.65 23.73 33.85 24.08 33.59 24.42 34.1 24.77 34.02 25.12 34.69 25.47 33.85 25.82 34.36 26.17 34.61 26.52 35.62 26.87 36.05 27.22 36.3 27.57 36.39 27.92 36.56 28.27 35.71 28.61 35.2 28.96 35.03 29.31 34.86 29.66 34.36 30.01 35.46 30.36 35.2 30.71 35.88 31.06 36.13 31.41 36.3 31.76 36.81 32.11 37.06 32.45 36.39 32.8 35.71 33.15 37.32 33.5 36.05 33.85 36.05 34.2 37.15 34.55 37.15 34.9 38.5 35.25 38.59 35.6 38.25 35.95 38.08 36.3 38.84 36.64 38.59 36.99 36.64 37.34 36.64 37.69 35.71 38.04 34.52 38.39 34.69 38.74 33.85 39.09 33.93 39.44 34.52 39.79 36.72 40.14 36.22 40.49 36.64 40.83 36.05 41.18 35.79 41.53 36.64 41.88 37.4 42.23 37.82 42.58 35.62 42.93 35.71 43.28 35.79 43.63 37.66 43.98 37.66 44.33 40.45 44.67 38.76 45.02 39.01 45.37 39.01 45.72 37.74 46.07 38.16 46.42 38.84 46.77 39.52 47.12 39.26 47.47 40.19 47.82 39.43 48.17 39.94 48.52 40.19 48.86 41.04 49.21 39.94 49.56 40.02 49.91 40.19 50.26 39.6 50.61 41.21 50.96 40.95 51.31 41.38 51.66 40.7 52.01 40.95 52.36 40.62 52.7 39.01 53.05 38.33 53.4 38.42 53.75 38.67 54.1 38.42 54.45 37.06 54.8 35.12 55.15 34.86 55.5 35.29 55.85 34.1 56.2 32.07 56.55 32.41 56.89 32.24 57.24 33.76 57.59 31.9 57.94 31.56 58.29 31.06 58.64 30.04 58.99 29.53 59.34 30.46 59.69 30.8 60.04 29.96 60.39 28.6 60.73 27.59 61.08 27.33 61.43 25.39 61.78 25.22 62.13 24.12 62.48 24.96 62.83 24.63 63.18 23.53 63.53 25.05 63.88 25.39 64.23 25.3 64.58 26.32 64.92 25.81 65.27 25.81 65.62 25.56 65.97 24.88 66.32 23.7 66.67 24.2 67.02 25.05 67.37 25.3 67.72 24.71 68.07 24.46 68.42 24.46 68.77 24.71 69.11 24.8 69.46 24.54 69.81 23.53 70.16 22.51 70.51 22.51 70.86 22.43 71.21 22.85 71.56 22.51 71.91 22.34 72.26 21.5 72.61 21.41 72.95 21.92 73.3 21.33 73.65 21.58 74 21.66 74.35 21.33 74.7 22.34 75.05 22.43 75.4 22.76 75.75 23.7 76.1 24.29 76.45 23.78 76.8 24.54 77.14 25.22 77.49 24.88 77.84 24.2 78.19 25.05 78.54 24.54 78.89 23.7 79.24 22.76 79.59 23.36 79.94 23.19 80.29 22.85 80.64 22.34 80.98 22.51 81.33 23.78 81.68 24.2 82.03 23.95 82.38 23.78 82.73 23.86 83.08 26.32 83.43 23.61 83.78 23.61 84.13 24.12 84.48 24.63 84.83 24.2 85.17 24.03 85.52 25.39 85.87 25.13 86.22 25.05 86.57 24.12 86.92 24.54 87.27 23.44 87.62 23.7 87.97 23.44 88.32 23.02 88.67 23.61 89.02 24.63 89.36 24.54 89.71 26.06 90.06 26.74 90.41 26.06 90.76 26.15 91.11 25.05 91.46 24.46 91.81 23.86 92.16 24.37 92.51 24.29 92.86 24.54 93.2 24.71 93.55 25.56 93.9 26.23 94.25 26.66 94.6 25.89 94.95 26.4 95.3 25.81 95.65 25.73 96 26.15 96.35 25.64 96.7 26.4 97.05 26.99 97.39 26.99 97.74 26.74 98.09 26.32 98.44 25.39 98.79 25.13 99.14 23.86 99.49 25.13 99.84 24.96 100.19 24.2 100.54 25.73 100.89 25.05 101.23 26.23 101.58 26.49 101.93 24.12 102.28 22.68 102.63 22.09 102.98 22.43 103.33 24.8 103.68 25.98 104.03 26.49 104.38 27.08 104.73 27.84 105.08 28.09 105.42 29.19 105.77 27.59 106.12 26.91 106.47 27.16 106.82 27.76 107.17 28.69 107.52 29.45 107.87 30.97 108.22 30.46 108.57 29.62 108.92 29.87 109.26 29.19 109.61 29.45 109.96 29.96 110.31 31.31 110.66 31.9 111.01 31.06 111.36 30.8 111.71 28.18 112.06 30.04 112.41 30.13 112.76 30.46 113.11 31.06 113.45 30.63 113.8 31.14 114.15 31.39 114.5 30.13 114.85 30.89 115.2 30.29 115.55 28.77 115.9 27.5 116.25 28.52 116.6 27.59 116.95 27.76 117.3 29.45 117.64 28.52 117.99 29.28 118.34 28.69 118.69 27.93 119.04 28.52 119.39 28.43 119.74 27.67 120.09 26.91 120.44 27.59 120.79 27.16 121.14 25.89 121.48 26.23 121.83 25.64 122.18 26.15 122.53 26.91 122.88 26.32 123.23 25.98 123.58 25.98 123.93 27.08 124.28 26.99 124.63 28.52 124.98 29.11 125.33 30.38 125.67 29.53 126.02 28.52 126.37 26.99 126.72 27.59 127.07 27.84 127.42 28.18 127.77 27.93 128.12 28.6 128.47 28.18 128.82 28.35 129.17 28.77 129.51 29.45 129.86 30.29 130.21 32.49 130.56 33 130.91 32.33 131.26 31.82 131.61 33 131.96 34.44 132.31 33.76 132.66 31.56 133.01 30.72 133.36 29.7 133.7 27.93 134.05 28.18 134.4 28.43 134.75 29.36 135.1 29.45 135.45 29.36 135.8 29.7 136.15 29.03 136.5 28.52 136.85 28.43 137.2 29.28 137.55 29.62 137.89 29.87 138.24 28.26 138.59 28.26 138.94 26.4 139.29 26.57 139.64 27.25 139.99 27.59 140.34 27.84 140.69 27.93 141.04 26.4 141.39 26.23 141.73 24.88 142.08 25.39 142.43 24.8 142.78 25.89 143.13 26.06 143.48 24.71 143.83 25.22 144.18 24.88 144.53 25.3 144.88 25.05 145.23 24.2 145.58 23.44 145.92 23.27 146.27 24.46 146.62 22.68 146.97 22.6 147.32 23.1 147.67 22.76 148.02 24.2 148.37 23.1 148.72 24.71 149.07 24.54 149.42 25.05 149.76 25.13 150.11 24.46 150.46 23.53 150.81 23.95 151.16 25.13 151.51 24.63 151.86 23.27 152.21 22.51 152.56 22.51 152.91 22.34 153.26 22.34 153.61 21.58 153.95 22.85 154.3 23.61 154.65 23.53 155 23.7 155.35 23.36 155.7 23.7 156.05 22.17 156.4 20.48 156.75 20.23 157.1 20.4 157.45 19.55 157.79 20.14 158.14 20.23 158.49 20.48 158.84 19.72 159.19 19.63 159.54 19.21 159.89 18.03 160.24 18.79 160.59 18.62 160.94 18.36 161.29 18.7 161.64 18.87 161.98 20.06 162.33 20.31 162.68 20.99 163.03 20.48 163.38 20.73 163.73 20.99 164.08 20.31 164.43 20.06 164.78 19.8 165.13 18.87 165.48 19.72 165.83 19.38 166.17 18.45 166.52 18.2 166.87 20.06 167.22 20.14 167.57 20.56 167.92 20.99 168.27 21.92 168.62 23.1 168.97 23.95 169.32 24.96 169.67 25.64 170.01 26.57 170.36 26.57 170.71 27.59 171.06 28.43 171.41 28.09 171.76 28.09 172.11 28.86 172.46 30.13 172.81 30.55 173.16 29.79 173.51 30.04 173.86 30.13 174.2 29.36 174.55 30.13 174.9 28.94 175.25 29.03 175.6 29.11 175.95 29.62 176.3 29.62 176.65 30.38 177 28.77 177.35 28.18 177.7 28.86 178.04 30.46 178.39 31.06 178.74 31.23 179.09 30.72 179.44 31.06 179.79 30.21 180.14 30.38 180.49 30.13 180.84 29.11 181.19 30.46 181.54 30.72 181.89 31.39 182.23 30.29 182.58 28.94 182.93 28.69 183.28 28.18 183.63 27.93 183.98 28.52 184.33 28.18 184.68 27.5 185.03 26.74 185.38 26.66 185.73 28.01 186.08 29.28 186.42 29.62 186.77 30.63 187.12 31.06 187.47 32.16 187.82 31.39 188.17 32.33 188.52 31.9 188.87 32.16 189.22 31.99 189.57 32.49 189.92 32.49 190.26 32.66 190.61 31.56 190.96 29.7 191.31 29.87 191.66 27.93 192.01 27.5 192.36 27.42 192.71 27.76 193.06 26.49 193.41 27.25 193.76 27.25 194.11 28.43 194.45 29.28 194.8 29.79 195.15 30.55 195.5 30.21 195.85 30.72 196.2 29.19"/>
      </g>
      <g stroke-width="0.3" fill="#000000" fill-opacity="0.000" class="geometry" stroke-dasharray="none" stroke="#66C2A5" id="img-3116e1ba-31">
        <path fill="none" d="M21.98,33.76 L 22.33 33.85 22.68 34.69 23.03 34.78 23.38 35.96 23.73 35.37 24.08 36.81 24.42 36.39 24.77 35.2 25.12 34.19 25.47 33.68 25.82 34.44 26.17 34.86 26.52 35.88 26.87 35.46 27.22 35.37 27.57 35.71 27.92 35.2 28.27 33.85 28.61 32.66 28.96 33 29.31 32.49 29.66 32.83 30.01 33.34 30.36 33.68 30.71 33.85 31.06 36.13 31.41 35.37 31.76 33.42 32.11 32.92 32.45 31.65 32.8 30.46 33.15 29.62 33.5 28.69 33.85 28.86 34.2 28.09 34.55 28.94 34.9 29.45 35.25 29.87 35.6 30.21 35.95 28.26 36.3 28.52 36.64 28.52 36.99 26.49 37.34 26.49 37.69 26.66 38.04 26.74 38.39 26.99 38.74 27.76 39.09 27.59 39.44 28.26 39.79 29.11 40.14 28.6 40.49 28.77 40.83 29.7 41.18 30.04 41.53 29.79 41.88 28.86 42.23 27.76 42.58 29.28 42.93 28.86 43.28 30.55 43.63 30.72 43.98 30.8 44.33 29.96 44.67 30.29 45.02 29.36 45.37 28.69 45.72 29.45 46.07 29.36 46.42 28.35 46.77 28.86 47.12 29.53 47.47 27.76 47.82 28.77 48.17 28.86 48.52 30.63 48.86 30.13 49.21 28.77 49.56 28.94 49.91 28.69 50.26 27.67 50.61 30.46 50.96 29.62 51.31 28.94 51.66 30.13 52.01 28.86 52.36 26.99 52.7 26.74 53.05 26.66 53.4 26.49 53.75 26.99 54.1 26.49 54.45 25.22 54.8 25.39 55.15 24.54 55.5 24.71 55.85 24.46 56.2 24.03 56.55 24.03 56.89 25.05 57.24 24.2 57.59 25.3 57.94 27.08 58.29 26.83 58.64 25.13 58.99 24.29 59.34 24.2 59.69 23.95 60.04 23.19 60.39 23.95 60.73 23.02 61.08 23.86 61.43 23.78 61.78 24.2 62.13 24.29 62.48 24.03 62.83 24.96 63.18 26.4 63.53 25.81 63.88 25.39 64.23 25.73 64.58 27.16 64.92 27.84 65.27 27.84 65.62 28.01 65.97 27.84 66.32 28.18 66.67 26.66 67.02 26.66 67.37 29.03 67.72 29.79 68.07 30.97 68.42 33 68.77 33.34 69.11 32.66 69.46 32.07 69.81 31.82 70.16 31.73 70.51 31.31 70.86 31.56 71.21 29.45 71.56 30.46 71.91 32.07 72.26 32.58 72.61 31.82 72.95 29.7 73.3 30.72 73.65 31.31 74 31.9 74.35 31.23 74.7 31.48 75.05 31.56 75.4 32.07 75.75 30.89 76.1 30.13 76.45 29.53 76.8 29.53 77.14 29.87 77.49 30.97 77.84 31.39 78.19 31.99 78.54 30.97 78.89 31.82 79.24 32.33 79.59 30.46 79.94 31.14 80.29 31.39 80.64 31.14 80.98 31.06 81.33 32.33 81.68 32.49 82.03 32.16 82.38 32.66 82.73 33.26 83.08 32.07 83.43 32.92 83.78 33.76 84.13 35.03 84.48 34.69 84.83 35.71 85.17 36.89 85.52 37.91 85.87 36.98 86.22 36.89 86.57 35.54 86.92 35.37 87.27 35.37 87.62 35.37 87.97 36.22 88.32 35.79 88.67 36.13 89.02 34.52 89.36 32.92 89.71 32.83 90.06 32.41 90.41 32.66 90.76 31.65 91.11 32.41 91.46 31.56 91.81 31.14 92.16 32.75 92.51 32.41 92.86 31.73 93.2 31.9 93.55 30.89 93.9 31.23 94.25 32.16 94.6 32.83 94.95 33.85 95.3 33.85 95.65 34.95 96 34.36 96.35 35.96 96.7 35.79 97.05 35.88 97.39 36.13 97.74 37.57 98.09 35.79 98.44 36.22 98.79 38.25 99.14 36.47 99.49 35.54 99.84 36.89 100.19 37.66 100.54 36.89 100.89 36.39 101.23 38.08 101.58 37.23 101.93 37.66 102.28 38.08 102.63 38.5 102.98 37.23 103.33 35.79 103.68 35.46 104.03 34.36 104.38 34.78 104.73 33.42 105.08 33.59 105.42 32.07 105.77 31.56 106.12 31.73 106.47 33.17 106.82 31.48 107.17 31.39 107.52 30.13 107.87 31.39 108.22 32.16 108.57 32.07 108.92 31.39 109.26 30.8 109.61 31.06 109.96 31.99 110.31 32.66 110.66 31.06 111.01 30.21 111.36 31.31 111.71 30.46 112.06 31.06 112.41 30.38 112.76 31.82 113.11 34.19 113.45 33.42 113.8 33.85 114.15 33.68 114.5 33.09 114.85 34.61 115.2 33.93 115.55 33.93 115.9 35.12 116.25 33.76 116.6 32.07 116.95 31.56 117.3 31.99 117.64 30.89 117.99 30.13 118.34 30.55 118.69 31.39 119.04 30.89 119.39 32.58 119.74 32.41 120.09 32.75 120.44 33 120.79 30.46 121.14 29.96 121.48 31.14 121.83 32.07 122.18 32.58 122.53 33.51 122.88 34.27 123.23 34.19 123.58 34.02 123.93 34.36 124.28 33 124.63 32.83 124.98 33.42 125.33 32.66 125.67 33.59 126.02 34.27 126.37 36.22 126.72 36.72 127.07 36.89 127.42 37.4 127.77 37.91 128.12 39.18 128.47 39.77 128.82 40.36 129.17 40.28 129.51 42.48 129.86 42.39 130.21 41.29 130.56 42.39 130.91 40.95 131.26 41.97 131.61 40.95 131.96 40.7 132.31 41.38 132.66 40.95 133.01 41.63 133.36 43.15 133.7 42.05 134.05 42.99 134.4 41.8 134.75 40.19 135.1 39.18 135.45 38.92 135.8 39.43 136.15 38.59 136.5 39.6 136.85 39.01 137.2 39.52 137.55 39.52 137.89 39.52 138.24 39.43 138.59 37.74 138.94 37.15 139.29 37.49 139.64 37.74 139.99 39.18 140.34 38.59 140.69 38.08 141.04 37.91 141.39 38.84 141.73 38.92 142.08 40.95 142.43 40.11 142.78 41.38 143.13 40.79 143.48 41.89 143.83 41.63 144.18 40.28 144.53 40.45 144.88 39.77 145.23 39.26 145.58 39.86 145.92 40.11 146.27 40.36 146.62 39.69 146.97 39.69 147.32 39.01 147.67 37.74 148.02 37.74 148.37 38.59 148.72 38.76 149.07 38.92 149.42 38.5 149.76 38.84 150.11 39.86 150.46 40.28 150.81 41.04 151.16 41.55 151.51 43.32 151.86 43.24 152.21 45.61 152.56 45.19 152.91 44.76 153.26 43.92 153.61 43.58 153.95 43.41 154.3 44.59 154.65 45.44 155 44.68 155.35 44.68 155.7 45.1 156.05 44.68 156.4 45.27 156.75 43.83 157.1 44.17 157.45 45.69 157.79 45.19 158.14 46.96 158.49 46.2 158.84 46.03 159.19 45.61 159.54 45.1 159.89 46.54 160.24 47.64 160.59 47.81 160.94 46.29 161.29 45.52 161.64 46.2 161.98 46.96 162.33 46.03 162.68 46.12 163.03 45.35 163.38 45.78 163.73 45.69 164.08 45.69 164.43 45.95 164.78 47.13 165.13 47.64 165.48 47.47 165.83 47.47 166.17 48.06 166.52 48.65 166.87 48.06 167.22 47.81 167.57 48.32 167.92 48.48 168.27 47.89 168.62 47.64 168.97 47.55 169.32 48.99 169.67 48.65 170.01 48.82 170.36 48.4 170.71 48.15 171.06 46.54 171.41 47.47 171.76 46.96 172.11 46.29 172.46 46.79 172.81 46.12 173.16 45.27 173.51 46.29 173.86 46.2 174.2 45.69 174.55 47.39 174.9 47.13 175.25 48.15 175.6 48.57 175.95 48.65 176.3 48.74 176.65 48.65 177 49.33 177.35 50.09 177.7 49.92 178.04 49.5 178.39 49.08 178.74 48.99 179.09 49.92 179.44 50.26 179.79 50.35 180.14 49.92 180.49 49.92 180.84 49.75 181.19 49.25 181.54 47.81 181.89 47.55 182.23 48.23 182.58 47.98 182.93 48.15 183.28 48.48 183.63 49.25 183.98 49.67 184.33 50.18 184.68 51.62 185.03 51.02 185.38 50.26 185.73 50.01 186.08 49.16 186.42 47.98 186.77 48.15 187.12 49.08 187.47 49.5 187.82 49.16 188.17 50.01 188.52 50.35 188.87 50.01 189.22 50.18 189.57 51.36 189.92 52.29 190.26 52.12 190.61 51.78 190.96 51.87 191.31 51.45 191.66 51.53 192.01 51.02 192.36 50.85 192.71 50.26 193.06 49.58 193.41 48.91 193.76 49.08 194.11 49.08 194.45 49.67 194.8 48.06 195.15 48.65 195.5 48.4 195.85 48.15 196.2 48.48"/>
      </g>
      <g stroke-width="0.3" fill="#000000" fill-opacity="0.000" class="geometry" stroke-dasharray="none" stroke="#ABDDA4" id="img-3116e1ba-32">
        <path fill="none" d="M21.98,33.76 L 22.33 33.09 22.68 31.9 23.03 32.66 23.38 32.49 23.73 31.39 24.08 31.48 24.42 32.58 24.77 33.17 25.12 33.17 25.47 33.51 25.82 30.89 26.17 30.21 26.52 30.72 26.87 33.59 27.22 33.76 27.57 35.03 27.92 35.12 28.27 36.64 28.61 37.15 28.96 38.33 29.31 38.5 29.66 39.77 30.01 39.09 30.36 40.45 30.71 40.36 31.06 40.36 31.41 40.62 31.76 39.94 32.11 40.7 32.45 40.11 32.8 41.72 33.15 40.95 33.5 42.99 33.85 41.55 34.2 42.65 34.55 42.56 34.9 43.83 35.25 44.42 35.6 44.76 35.95 46.12 36.3 44.93 36.64 44.85 36.99 44.25 37.34 44.09 37.69 44.59 38.04 44.76 38.39 44.34 38.74 44.17 39.09 44.93 39.44 45.86 39.79 45.35 40.14 45.86 40.49 45.78 40.83 46.54 41.18 47.64 41.53 47.3 41.88 47.72 42.23 47.47 42.58 47.22 42.93 46.37 43.28 46.71 43.63 47.89 43.98 48.4 44.33 47.22 44.67 48.32 45.02 49.08 45.37 49.08 45.72 48.74 46.07 48.74 46.42 47.81 46.77 48.32 47.12 48.06 47.47 47.98 47.82 48.06 48.17 48.65 48.52 48.99 48.86 49.84 49.21 50.43 49.56 50.43 49.91 51.19 50.26 50.68 50.61 51.36 50.96 51.36 51.31 51.78 51.66 51.78 52.01 51.7 52.36 52.46 52.7 52.8 53.05 52.97 53.4 53.05 53.75 52.72 54.1 52.8 54.45 53.14 54.8 53.14 55.15 53.73 55.5 53.65 55.85 53.56 56.2 53.73 56.55 53.73 56.89 53.31 57.24 53.73 57.59 53.73 57.94 53.65 58.29 53.48 58.64 53.73 58.99 53.98 59.34 54.24 59.69 54.15 60.04 53.65 60.39 53.9 60.73 53.82 61.08 53.65 61.43 53.65 61.78 54.07 62.13 53.82 62.48 53.65 62.83 53.82 63.18 53.9 63.53 53.9 63.88 54.15 64.23 54.24 64.58 54.32 64.92 54.58 65.27 54.66 65.62 54.75 65.97 54.58 66.32 54.41 66.67 54.41 67.02 54.41 67.37 54.75 67.72 54.91 68.07 54.91 68.42 54.91 68.77 54.91 69.11 54.91 69.46 54.91 69.81 54.91 70.16 54.91 70.51 54.91 70.86 54.91 71.21 54.91 71.56 54.91 71.91 54.91 72.26 54.91 72.61 54.91 72.95 54.91 73.3 54.91 73.65 54.91 74 54.91 74.35 54.91 74.7 54.91 75.05 54.91 75.4 54.91 75.75 54.75 76.1 54.66 76.45 54.83 76.8 54.75 77.14 54.83 77.49 54.91 77.84 54.91 78.19 54.91 78.54 54.91 78.89 54.91 79.24 54.91 79.59 54.91 79.94 54.91 80.29 54.91 80.64 54.91 80.98 54.91 81.33 54.91 81.68 54.91 82.03 54.91 82.38 54.91 82.73 54.91 83.08 54.91 83.43 54.91 83.78 54.91 84.13 54.83 84.48 54.91 84.83 54.91 85.17 54.91 85.52 54.91 85.87 54.91 86.22 54.91 86.57 54.91 86.92 54.91 87.27 54.91 87.62 54.91 87.97 54.83 88.32 54.91 88.67 54.91 89.02 54.91 89.36 54.91 89.71 54.91 90.06 54.91 90.41 54.66 90.76 54.75 91.11 54.83 91.46 54.83 91.81 54.83 92.16 54.83 92.51 54.83 92.86 54.83 93.2 54.91 93.55 54.91 93.9 54.91 94.25 54.91 94.6 54.91 94.95 54.91 95.3 54.91 95.65 54.91 96 54.91 96.35 54.91 96.7 54.91 97.05 54.91 97.39 54.91 97.74 54.66 98.09 54.75 98.44 54.83 98.79 54.83 99.14 54.83 99.49 54.83 99.84 54.83 100.19 54.66 100.54 54.83 100.89 54.75 101.23 54.83 101.58 54.75 101.93 54.75 102.28 54.49 102.63 54.58 102.98 54.58 103.33 54.41 103.68 54.32 104.03 54.32 104.38 54.24 104.73 54.41 105.08 54.32 105.42 54.49 105.77 54.32 106.12 54.32 106.47 54.58 106.82 54.58 107.17 54.66 107.52 54.66 107.87 54.83 108.22 54.83 108.57 54.83 108.92 54.83 109.26 54.75 109.61 54.83 109.96 54.83 110.31 54.75 110.66 54.75 111.01 54.83 111.36 54.91 111.71 54.91 112.06 54.91 112.41 54.91 112.76 54.91 113.11 54.91 113.45 54.91 113.8 54.91 114.15 54.91 114.5 54.91 114.85 54.91 115.2 54.91 115.55 54.91 115.9 54.75 116.25 54.66 116.6 54.83 116.95 54.58 117.3 54.58 117.64 54.58 117.99 54.49 118.34 54.58 118.69 54.75 119.04 54.49 119.39 54.32 119.74 54.32 120.09 54.41 120.44 54.32 120.79 54.41 121.14 54.49 121.48 54.41 121.83 54.83 122.18 54.91 122.53 54.91 122.88 54.91 123.23 54.91 123.58 54.91 123.93 54.83 124.28 54.83 124.63 54.91 124.98 54.91 125.33 54.91 125.67 54.91 126.02 54.91 126.37 54.91 126.72 54.91 127.07 54.91 127.42 54.91 127.77 54.91 128.12 54.91 128.47 54.91 128.82 54.91 129.17 54.91 129.51 54.91 129.86 54.91 130.21 54.91 130.56 54.91 130.91 54.91 131.26 54.91 131.61 54.91 131.96 54.91 132.31 54.91 132.66 54.91 133.01 54.91 133.36 54.91 133.7 54.91 134.05 54.91 134.4 54.91 134.75 54.91 135.1 54.83 135.45 54.91 135.8 54.91 136.15 54.91 136.5 54.91 136.85 54.91 137.2 54.83 137.55 54.83 137.89 54.75 138.24 54.58 138.59 54.58 138.94 54.58 139.29 54.07 139.64 53.98 139.99 53.73 140.34 53.39 140.69 53.22 141.04 53.82 141.39 53.9 141.73 53.98 142.08 53.73 142.43 53.48 142.78 53.39 143.13 53.14 143.48 53.56 143.83 53.82 144.18 54.24 144.53 54.41 144.88 54.15 145.23 53.9 145.58 53.31 145.92 53.31 146.27 52.46 146.62 52.55 146.97 52.88 147.32 53.22 147.67 53.22 148.02 52.97 148.37 52.72 148.72 52.97 149.07 52.88 149.42 53.05 149.76 53.14 150.11 53.39 150.46 53.22 150.81 52.55 151.16 52.46 151.51 51.95 151.86 52.04 152.21 52.88 152.56 53.05 152.91 53.82 153.26 53.65 153.61 53.82 153.95 53.82 154.3 54.15 154.65 53.73 155 53.65 155.35 53.22 155.7 53.05 156.05 53.31 156.4 53.73 156.75 53.82 157.1 53.56 157.45 53.39 157.79 53.31 158.14 53.56 158.49 53.65 158.84 53.48 159.19 53.73 159.54 53.98 159.89 54.32 160.24 54.41 160.59 54.49 160.94 54.83 161.29 54.91 161.64 54.91 161.98 54.91 162.33 54.91 162.68 54.91 163.03 54.91 163.38 54.91 163.73 54.91 164.08 54.91 164.43 54.91 164.78 54.91 165.13 54.91 165.48 54.91 165.83 54.91 166.17 54.91 166.52 54.91 166.87 54.91 167.22 54.91 167.57 54.91 167.92 54.91 168.27 54.91 168.62 54.91 168.97 54.91 169.32 54.91 169.67 54.91 170.01 54.91 170.36 54.91 170.71 54.91 171.06 54.91 171.41 54.91 171.76 54.91 172.11 54.91 172.46 54.91 172.81 54.91 173.16 54.91 173.51 54.91 173.86 54.91 174.2 54.91 174.55 54.91 174.9 54.91 175.25 54.91 175.6 54.91 175.95 54.91 176.3 54.91 176.65 54.91 177 54.91 177.35 54.91 177.7 54.91 178.04 54.91 178.39 54.91 178.74 54.91 179.09 54.91 179.44 54.91 179.79 54.91 180.14 54.91 180.49 54.91 180.84 54.91 181.19 54.91 181.54 54.91 181.89 54.91 182.23 54.91 182.58 54.91 182.93 54.91 183.28 54.91 183.63 54.91 183.98 54.91 184.33 54.91 184.68 54.91 185.03 54.91 185.38 54.91 185.73 54.91 186.08 54.91 186.42 54.91 186.77 54.91 187.12 54.91 187.47 54.91 187.82 54.91 188.17 54.75 188.52 54.58 188.87 54.75 189.22 54.75 189.57 54.58 189.92 54.58 190.26 54.58 190.61 54.75 190.96 54.66 191.31 54.91 191.66 54.91 192.01 54.91 192.36 54.91 192.71 54.91 193.06 54.91 193.41 54.91 193.76 54.91 194.11 54.91 194.45 54.91 194.8 54.91 195.15 54.91 195.5 54.91 195.85 54.91 196.2 54.91"/>
      </g>
      <g stroke-width="0.3" fill="#000000" fill-opacity="0.000" class="geometry" stroke-dasharray="none" stroke="#E6F598" id="img-3116e1ba-33">
        <path fill="none" d="M21.98,33.76 L 22.33 33.51 22.68 34.78 23.03 35.96 23.38 36.39 23.73 36.89 24.08 36.13 24.42 35.54 24.77 35.2 25.12 35.71 25.47 36.13 25.82 34.61 26.17 34.95 26.52 35.03 26.87 34.78 27.22 34.61 27.57 34.86 27.92 36.05 28.27 36.56 28.61 35.88 28.96 35.46 29.31 37.15 29.66 38.16 30.01 37.74 30.36 38.84 30.71 39.43 31.06 37.23 31.41 35.37 31.76 34.78 32.11 34.36 32.45 34.27 32.8 34.95 33.15 35.03 33.5 36.64 33.85 35.96 34.2 36.22 34.55 34.95 34.9 34.19 35.25 35.46 35.6 35.71 35.95 36.72 36.3 36.81 36.64 36.39 36.99 35.79 37.34 37.4 37.69 36.89 38.04 36.72 38.39 36.56 38.74 35.88 39.09 36.39 39.44 36.3 39.79 36.64 40.14 35.54 40.49 34.86 40.83 33.09 41.18 32.58 41.53 32.92 41.88 31.48 42.23 30.38 42.58 30.72 42.93 29.79 43.28 29.62 43.63 30.46 43.98 30.38 44.33 29.7 44.67 27.42 45.02 26.83 45.37 26.83 45.72 26.49 46.07 27.42 46.42 26.99 46.77 28.77 47.12 28.01 47.47 28.6 47.82 29.45 48.17 27.67 48.52 26.32 48.86 25.89 49.21 25.64 49.56 24.2 49.91 25.13 50.26 25.73 50.61 25.89 50.96 24.8 51.31 24.88 51.66 24.46 52.01 25.47 52.36 26.32 52.7 26.57 53.05 24.63 53.4 25.3 53.75 25.13 54.1 25.05 54.45 25.56 54.8 27.33 55.15 27.42 55.5 28.35 55.85 26.49 56.2 26.49 56.55 24.8 56.89 25.22 57.24 24.96 57.59 26.83 57.94 26.57 58.29 25.98 58.64 24.88 58.99 26.32 59.34 26.74 59.69 26.06 60.04 26.06 60.39 26.99 60.73 27.33 61.08 28.43 61.43 29.03 61.78 29.53 62.13 29.36 62.48 28.18 62.83 27.76 63.18 27.25 63.53 29.19 63.88 29.11 64.23 28.6 64.58 28.52 64.92 28.86 65.27 29.45 65.62 28.52 65.97 29.36 66.32 28.77 66.67 29.28 67.02 29.45 67.37 29.7 67.72 28.52 68.07 28.35 68.42 28.69 68.77 30.63 69.11 32.66 69.46 33.26 69.81 33 70.16 34.86 70.51 34.1 70.86 34.69 71.21 35.29 71.56 33.76 71.91 35.03 72.26 34.19 72.61 35.2 72.95 34.78 73.3 33.68 73.65 32.58 74 30.8 74.35 31.14 74.7 30.38 75.05 29.96 75.4 28.52 75.75 25.89 76.1 23.86 76.45 23.86 76.8 24.03 77.14 24.46 77.49 23.95 77.84 25.05 78.19 24.46 78.54 24.54 78.89 24.63 79.24 25.22 79.59 25.47 79.94 25.3 80.29 24.29 80.64 24.46 80.98 25.22 81.33 25.39 81.68 25.47 82.03 24.96 82.38 24.54 82.73 25.47 83.08 24.54 83.43 25.05 83.78 24.88 84.13 25.22 84.48 25.64 84.83 23.86 85.17 23.95 85.52 24.54 85.87 24.96 86.22 24.96 86.57 24.71 86.92 26.4 87.27 26.49 87.62 25.47 87.97 25.13 88.32 24.54 88.67 25.05 89.02 24.8 89.36 25.3 89.71 24.46 90.06 24.29 90.41 24.63 90.76 24.46 91.11 24.12 91.46 24.88 91.81 25.98 92.16 24.8 92.51 23.78 92.86 22.17 93.2 21.5 93.55 21.07 93.9 20.4 94.25 19.63 94.6 19.3 94.95 18.28 95.3 18.96 95.65 18.36 96 18.45 96.35 17.1 96.7 17.1 97.05 17.52 97.39 18.03 97.74 19.8 98.09 19.97 98.44 19.63 98.79 20.65 99.14 21.07 99.49 20.73 99.84 20.9 100.19 20.4 100.54 19.97 100.89 19.63 101.23 19.04 101.58 20.31 101.93 20.73 102.28 20.82 102.63 21.24 102.98 21.58 103.33 20.4 103.68 19.89 104.03 20.65 104.38 19.72 104.73 20.9 105.08 20.56 105.42 20.14 105.77 20.56 106.12 20.4 106.47 19.46 106.82 19.72 107.17 19.46 107.52 18.62 107.87 18.36 108.22 20.06 108.57 20.56 108.92 20.48 109.26 20.48 109.61 19.04 109.96 18.53 110.31 17.6 110.66 18.45 111.01 18.03 111.36 17.18 111.71 17.52 112.06 16.93 112.41 16.17 112.76 16.76 113.11 16.25 113.45 16.59 113.8 16.42 114.15 16.17 114.5 16.42 114.85 16.25 115.2 15.49 115.55 15.91 115.9 16.33 116.25 16.59 116.6 16.42 116.95 16 117.3 15.83 117.64 15.4 117.99 15.15 118.34 15.23 118.69 15.4 119.04 14.81 119.39 15.74 119.74 16 120.09 16.42 120.44 16.33 120.79 16 121.14 15.91 121.48 16 121.83 15.91 122.18 14.9 122.53 15.66 122.88 15.74 123.23 16.5 123.58 17.1 123.93 17.52 124.28 16.76 124.63 16.42 124.98 16.59 125.33 17.01 125.67 17.01 126.02 16.76 126.37 17.86 126.72 17.77 127.07 17.18 127.42 17.43 127.77 17.18 128.12 16.5 128.47 15.83 128.82 15.74 129.17 15.66 129.51 15.57 129.86 15.74 130.21 15.91 130.56 15.83 130.91 16.42 131.26 16.08 131.61 15.49 131.96 14.56 132.31 14.81 132.66 14.22 133.01 14.98 133.36 14.56 133.7 14.56 134.05 15.32 134.4 15.15 134.75 15.32 135.1 14.9 135.45 14.56 135.8 15.15 136.15 14.47 136.5 14.64 136.85 14.3 137.2 14.22 137.55 14.3 137.89 14.64 138.24 14.47 138.59 15.32 138.94 15.49 139.29 15.57 139.64 14.9 139.99 14.13 140.34 13.88 140.69 14.22 141.04 14.47 141.39 13.88 141.73 13.71 142.08 13.29 142.43 12.95 142.78 13.03 143.13 12.7 143.48 12.61 143.83 12.95 144.18 13.2 144.53 13.63 144.88 13.46 145.23 13.71 145.58 14.64 145.92 14.3 146.27 13.97 146.62 14.13 146.97 13.71 147.32 13.8 147.67 13.37 148.02 13.63 148.37 13.29 148.72 13.71 149.07 13.54 149.42 13.8 149.76 14.22 150.11 14.05 150.46 13.88 150.81 14.05 151.16 13.8 151.51 13.88 151.86 13.97 152.21 14.22 152.56 14.56 152.91 14.81 153.26 14.64 153.61 14.47 153.95 13.8 154.3 13.71 154.65 13.71 155 14.3 155.35 14.22 155.7 14.56 156.05 15.32 156.4 15.83 156.75 15.66 157.1 15.74 157.45 14.81 157.79 14.64 158.14 15.4 158.49 15.4 158.84 14.98 159.19 14.73 159.54 13.97 159.89 13.8 160.24 13.37 160.59 13.46 160.94 13.29 161.29 13.12 161.64 13.54 161.98 13.46 162.33 14.22 162.68 14.13 163.03 13.8 163.38 13.37 163.73 13.54 164.08 13.54 164.43 13.8 164.78 14.22 165.13 13.97 165.48 13.71 165.83 13.29 166.17 13.37 166.52 13.54 166.87 13.63 167.22 13.37 167.57 13.12 167.92 13.03 168.27 12.95 168.62 12.95 168.97 12.78 169.32 12.78 169.67 12.7 170.01 12.7 170.36 12.7 170.71 12.7 171.06 12.61 171.41 12.61 171.76 12.61 172.11 12.61 172.46 12.61 172.81 12.61 173.16 12.61 173.51 12.61 173.86 12.61 174.2 12.61 174.55 12.61 174.9 12.61 175.25 12.61 175.6 12.61 175.95 12.61 176.3 12.61 176.65 12.61 177 12.61 177.35 12.61 177.7 12.61 178.04 12.61 178.39 12.61 178.74 12.61 179.09 12.61 179.44 12.61 179.79 12.61 180.14 12.61 180.49 12.61 180.84 12.61 181.19 12.61 181.54 12.78 181.89 12.95 182.23 13.2 182.58 13.37 182.93 13.12 183.28 13.12 183.63 12.7 183.98 12.61 184.33 12.61 184.68 12.61 185.03 12.61 185.38 12.61 185.73 12.61 186.08 12.61 186.42 12.61 186.77 12.61 187.12 12.61 187.47 12.61 187.82 12.61 188.17 12.61 188.52 12.61 188.87 12.61 189.22 12.61 189.57 12.61 189.92 12.61 190.26 12.61 190.61 12.61 190.96 12.61 191.31 12.61 191.66 12.61 192.01 12.87 192.36 13.03 192.71 12.95 193.06 12.78 193.41 12.7 193.76 12.78 194.11 12.78 194.45 12.7 194.8 12.7 195.15 12.7 195.5 12.61 195.85 12.61 196.2 12.61"/>
      </g>
      <g stroke-width="0.3" fill="#000000" fill-opacity="0.000" class="geometry" stroke-dasharray="none" stroke="#FFFFBF" id="img-3116e1ba-34">
        <path fill="none" d="M21.98,33.76 L 22.33 33.17 22.68 33.59 23.03 34.1 23.38 34.61 23.73 35.03 24.08 34.78 24.42 32.58 24.77 32.33 25.12 33.09 25.47 32.75 25.82 32.83 26.17 31.9 26.52 31.9 26.87 31.39 27.22 32.66 27.57 32.41 27.92 33.68 28.27 32.58 28.61 32.49 28.96 33.42 29.31 31.48 29.66 32.07 30.01 33 30.36 33.34 30.71 34.36 31.06 33.17 31.41 34.36 31.76 35.03 32.11 35.54 32.45 34.19 32.8 34.27 33.15 34.36 33.5 33.09 33.85 32.16 34.2 32.16 34.55 32.66 34.9 34.86 35.25 35.2 35.6 34.36 35.95 33 36.3 31.48 36.64 29.11 36.99 31.39 37.34 31.65 37.69 33.17 38.04 33.59 38.39 33.42 38.74 32.24 39.09 32.83 39.44 30.8 39.79 31.56 40.14 33.42 40.49 33.68 40.83 33.51 41.18 35.12 41.53 35.12 41.88 35.2 42.23 36.13 42.58 35.79 42.93 35.62 43.28 36.13 43.63 35.62 43.98 36.22 44.33 35.46 44.67 36.56 45.02 35.46 45.37 36.3 45.72 37.74 46.07 36.89 46.42 36.81 46.77 35.88 47.12 36.3 47.47 37.91 47.82 39.6 48.17 39.35 48.52 39.26 48.86 37.15 49.21 36.72 49.56 36.98 49.91 36.56 50.26 37.06 50.61 36.47 50.96 36.22 51.31 37.57 51.66 36.56 52.01 37.15 52.36 37.49 52.7 36.98 53.05 36.81 53.4 35.2 53.75 36.47 54.1 36.72 54.45 36.3 54.8 34.95 55.15 35.46 55.5 35.2 55.85 33.68 56.2 32.07 56.55 33.17 56.89 34.86 57.24 34.61 57.59 35.03 57.94 34.19 58.29 33.42 58.64 33.51 58.99 32.58 59.34 32.41 59.69 32.16 60.04 31.65 60.39 32.33 60.73 31.31 61.08 30.63 61.43 31.31 61.78 30.46 62.13 30.97 62.48 30.72 62.83 31.48 63.18 31.06 63.53 28.77 63.88 27.42 64.23 27.16 64.58 27.33 64.92 28.01 65.27 28.43 65.62 28.94 65.97 29.45 66.32 28.43 66.67 29.03 67.02 30.63 67.37 29.36 67.72 29.28 68.07 29.45 68.42 28.26 68.77 27.33 69.11 28.01 69.46 26.49 69.81 26.74 70.16 27.25 70.51 25.73 70.86 25.39 71.21 24.88 71.56 25.64 71.91 26.83 72.26 28.01 72.61 29.11 72.95 30.72 73.3 29.62 73.65 29.45 74 29.36 74.35 29.7 74.7 28.35 75.05 27.42 75.4 26.99 75.75 28.6 76.1 28.77 76.45 27.67 76.8 28.18 77.14 27.67 77.49 28.09 77.84 27.16 78.19 26.99 78.54 27.67 78.89 28.18 79.24 27.25 79.59 26.06 79.94 26.91 80.29 26.57 80.64 26.57 80.98 27.93 81.33 28.26 81.68 28.09 82.03 27.76 82.38 27.84 82.73 26.83 83.08 27.84 83.43 27.76 83.78 27.42 84.13 27.33 84.48 28.18 84.83 28.35 85.17 27.5 85.52 26.83 85.87 25.39 86.22 26.06 86.57 26.49 86.92 25.39 87.27 25.47 87.62 26.06 87.97 27.42 88.32 27.93 88.67 28.01 89.02 29.19 89.36 28.86 89.71 29.19 90.06 30.13 90.41 31.06 90.76 29.62 91.11 29.62 91.46 31.73 91.81 33.17 92.16 33.17 92.51 33.59 92.86 33 93.2 33.85 93.55 34.86 93.9 34.1 94.25 33.85 94.6 34.78 94.95 35.37 95.3 36.05 95.65 37.4 96 37.4 96.35 38.5 96.7 37.49 97.05 37.32 97.39 37.15 97.74 38.5 98.09 40.87 98.44 39.77 98.79 41.12 99.14 40.53 99.49 39.35 99.84 41.89 100.19 41.38 100.54 41.29 100.89 42.65 101.23 42.39 101.58 43.92 101.93 44.42 102.28 44.68 102.63 45.35 102.98 45.78 103.33 45.35 103.68 45.86 104.03 46.37 104.38 46.79 104.73 47.64 105.08 47.55 105.42 47.47 105.77 48.15 106.12 48.06 106.47 48.15 106.82 48.06 107.17 46.96 107.52 46.71 107.87 44.76 108.22 44.17 108.57 44.34 108.92 45.1 109.26 46.37 109.61 46.29 109.96 46.29 110.31 46.62 110.66 46.62 111.01 46.03 111.36 45.1 111.71 43.92 112.06 44.51 112.41 45.69 112.76 46.12 113.11 46.29 113.45 47.3 113.8 47.05 114.15 47.22 114.5 47.05 114.85 46.71 115.2 47.55 115.55 47.72 115.9 46.88 116.25 46.29 116.6 46.71 116.95 47.22 117.3 46.71 117.64 47.81 117.99 46.79 118.34 46.54 118.69 47.64 119.04 48.91 119.39 50.35 119.74 49.75 120.09 49.58 120.44 49.33 120.79 49.84 121.14 49.16 121.48 48.32 121.83 48.4 122.18 49.25 122.53 48.82 122.88 48.74 123.23 48.74 123.58 48.48 123.93 48.65 124.28 47.22 124.63 45.95 124.98 46.03 125.33 45.78 125.67 46.03 126.02 46.79 126.37 46.79 126.72 45.86 127.07 45.95 127.42 45.02 127.77 46.29 128.12 47.72 128.47 47.39 128.82 48.48 129.17 48.4 129.51 47.98 129.86 49.33 130.21 49.84 130.56 50.09 130.91 51.53 131.26 51.19 131.61 51.19 131.96 51.36 132.31 51.28 132.66 51.78 133.01 51.62 133.36 51.95 133.7 51.62 134.05 51.45 134.4 50.77 134.75 49.92 135.1 49.25 135.45 48.32 135.8 49.33 136.15 49.92 136.5 49.75 136.85 50.68 137.2 50.01 137.55 51.19 137.89 51.28 138.24 51.19 138.59 50.85 138.94 51.7 139.29 52.04 139.64 52.21 139.99 51.95 140.34 51.53 140.69 51.45 141.04 51.53 141.39 51.28 141.73 51.36 142.08 51.28 142.43 52.29 142.78 52.21 143.13 51.78 143.48 51.7 143.83 52.12 144.18 52.29 144.53 51.87 144.88 51.62 145.23 51.95 145.58 52.46 145.92 52.29 146.27 51.7 146.62 51.28 146.97 51.53 147.32 51.02 147.67 50.35 148.02 50.09 148.37 49.75 148.72 48.82 149.07 48.91 149.42 48.82 149.76 48.48 150.11 47.89 150.46 48.06 150.81 47.39 151.16 47.22 151.51 48.74 151.86 47.72 152.21 47.47 152.56 48.4 152.91 49.08 153.26 48.48 153.61 48.57 153.95 49.25 154.3 48.65 154.65 48.23 155 48.57 155.35 48.32 155.7 48.99 156.05 48.82 156.4 49.08 156.75 48.65 157.1 47.72 157.45 46.88 157.79 46.71 158.14 46.62 158.49 47.64 158.84 47.47 159.19 46.79 159.54 46.37 159.89 46.71 160.24 46.03 160.59 44.85 160.94 45.78 161.29 47.55 161.64 47.22 161.98 46.37 162.33 46.88 162.68 46.37 163.03 46.54 163.38 47.72 163.73 46.54 164.08 45.95 164.43 45.95 164.78 46.2 165.13 45.86 165.48 45.44 165.83 44.93 166.17 44.93 166.52 46.2 166.87 45.95 167.22 45.86 167.57 46.03 167.92 45.19 168.27 45.27 168.62 45.52 168.97 45.52 169.32 45.19 169.67 45.69 170.01 46.12 170.36 46.2 170.71 46.71 171.06 46.96 171.41 47.47 171.76 48.15 172.11 48.23 172.46 48.91 172.81 48.91 173.16 47.81 173.51 47.81 173.86 48.23 174.2 47.55 174.55 48.4 174.9 48.06 175.25 47.39 175.6 46.79 175.95 47.64 176.3 47.39 176.65 47.39 177 47.05 177.35 46.37 177.7 46.37 178.04 45.86 178.39 47.3 178.74 47.47 179.09 46.45 179.44 46.88 179.79 46.2 180.14 46.29 180.49 44.68 180.84 44 181.19 43.49 181.54 43.83 181.89 43.75 182.23 43.15 182.58 42.65 182.93 42.99 183.28 42.9 183.63 42.56 183.98 42.31 184.33 43.07 184.68 41.55 185.03 40.53 185.38 40.87 185.73 41.8 186.08 40.87 186.42 40.28 186.77 40.7 187.12 39.69 187.47 38.59 187.82 39.09 188.17 40.36 188.52 40.36 188.87 41.63 189.22 43.83 189.57 43.58 189.92 43.15 190.26 42.56 190.61 43.15 190.96 41.8 191.31 41.38 191.66 42.99 192.01 44.34 192.36 43.49 192.71 44 193.06 44.34 193.41 44.25 193.76 44 194.11 44 194.45 45.1 194.8 46.71 195.15 46.54 195.5 46.71 195.85 47.22 196.2 47.3"/>
      </g>
      <g stroke-width="0.3" fill="#000000" fill-opacity="0.000" class="geometry" stroke-dasharray="none" stroke="#FEE08B" id="img-3116e1ba-35">
        <path fill="none" d="M21.98,33.76 L 22.33 33.68 22.68 33.59 23.03 33.76 23.38 34.36 23.73 34.69 24.08 34.86 24.42 35.62 24.77 35.46 25.12 35.12 25.47 35.79 25.82 37.15 26.17 37.4 26.52 36.89 26.87 38.16 27.22 38.92 27.57 38.84 27.92 37.66 28.27 37.57 28.61 36.89 28.96 35.96 29.31 35.88 29.66 38.08 30.01 38.84 30.36 39.43 30.71 40.87 31.06 39.94 31.41 40.36 31.76 41.72 32.11 41.97 32.45 40.95 32.8 40.79 33.15 41.04 33.5 41.89 33.85 41.8 34.2 42.48 34.55 44.59 34.9 44.17 35.25 45.27 35.6 45.35 35.95 45.19 36.3 45.19 36.64 44.51 36.99 45.02 37.34 45.86 37.69 45.78 38.04 45.1 38.39 46.12 38.74 45.95 39.09 47.13 39.44 46.37 39.79 46.12 40.14 46.03 40.49 46.79 40.83 46.37 41.18 47.89 41.53 47.55 41.88 47.72 42.23 47.72 42.58 48.57 42.93 49.08 43.28 48.4 43.63 47.72 43.98 48.74 44.33 48.82 44.67 50.6 45.02 50.35 45.37 50.43 45.72 50.52 46.07 50.01 46.42 50.35 46.77 50.94 47.12 51.78 47.47 52.8 47.82 52.55 48.17 52.21 48.52 52.29 48.86 53.14 49.21 52.72 49.56 51.87 49.91 52.04 50.26 51.53 50.61 51.11 50.96 50.6 51.31 50.26 51.66 50.85 52.01 51.02 52.36 50.6 52.7 50.6 53.05 50.85 53.4 50.94 53.75 50.94 54.1 51.11 54.45 51.02 54.8 50.35 55.15 51.11 55.5 50.68 55.85 50.52 56.2 51.62 56.55 51.53 56.89 50.85 57.24 51.45 57.59 51.7 57.94 51.45 58.29 51.11 58.64 52.04 58.99 51.36 59.34 51.95 59.69 51.11 60.04 51.02 60.39 51.95 60.73 51.7 61.08 50.43 61.43 50.6 61.78 50.52 62.13 50.18 62.48 50.09 62.83 49.92 63.18 49.75 63.53 48.82 63.88 48.06 64.23 48.74 64.58 47.98 64.92 48.06 65.27 47.55 65.62 48.65 65.97 49.16 66.32 49.08 66.67 49.08 67.02 48.74 67.37 48.74 67.72 49.58 68.07 50.77 68.42 51.02 68.77 52.12 69.11 51.53 69.46 51.62 69.81 50.94 70.16 50.6 70.51 50.01 70.86 50.35 71.21 50.52 71.56 51.87 71.91 52.12 72.26 52.12 72.61 51.45 72.95 51.7 73.3 52.12 73.65 52.21 74 51.53 74.35 51.62 74.7 51.7 75.05 52.04 75.4 52.97 75.75 52.8 76.1 53.05 76.45 53.22 76.8 53.31 77.14 53.82 77.49 53.98 77.84 54.49 78.19 54.41 78.54 54.24 78.89 54.58 79.24 54.66 79.59 54.49 79.94 54.58 80.29 54.75 80.64 54.83 80.98 54.91 81.33 54.91 81.68 54.91 82.03 54.91 82.38 54.91 82.73 54.91 83.08 54.91 83.43 54.91 83.78 54.91 84.13 54.91 84.48 54.91 84.83 54.91 85.17 54.91 85.52 54.91 85.87 54.91 86.22 54.91 86.57 54.91 86.92 54.91 87.27 54.91 87.62 54.91 87.97 54.91 88.32 54.91 88.67 54.91 89.02 54.91 89.36 54.91 89.71 54.91 90.06 54.91 90.41 54.91 90.76 54.91 91.11 54.91 91.46 54.91 91.81 54.91 92.16 54.91 92.51 54.91 92.86 54.91 93.2 54.91 93.55 54.91 93.9 54.91 94.25 54.91 94.6 54.91 94.95 54.91 95.3 54.91 95.65 54.91 96 54.91 96.35 54.91 96.7 54.91 97.05 54.91 97.39 54.91 97.74 54.91 98.09 54.91 98.44 54.91 98.79 54.91 99.14 54.91 99.49 54.91 99.84 54.91 100.19 54.91 100.54 54.91 100.89 54.91 101.23 54.91 101.58 54.91 101.93 54.91 102.28 54.91 102.63 54.91 102.98 54.91 103.33 54.91 103.68 54.91 104.03 54.91 104.38 54.75 104.73 54.83 105.08 54.91 105.42 54.91 105.77 54.91 106.12 54.91 106.47 54.91 106.82 54.91 107.17 54.91 107.52 54.75 107.87 54.58 108.22 54.83 108.57 54.91 108.92 54.91 109.26 54.91 109.61 54.91 109.96 54.91 110.31 54.91 110.66 54.91 111.01 54.91 111.36 54.91 111.71 54.91 112.06 54.91 112.41 54.91 112.76 54.91 113.11 54.91 113.45 54.91 113.8 54.91 114.15 54.91 114.5 54.91 114.85 54.91 115.2 54.91 115.55 54.91 115.9 54.91 116.25 54.91 116.6 54.91 116.95 54.91 117.3 54.91 117.64 54.91 117.99 54.91 118.34 54.91 118.69 54.91 119.04 54.75 119.39 54.24 119.74 54.32 120.09 54.24 120.44 54.24 120.79 54.58 121.14 54.24 121.48 54.24 121.83 54.32 122.18 54.07 122.53 53.82 122.88 54.15 123.23 53.65 123.58 53.73 123.93 53.48 124.28 53.73 124.63 53.22 124.98 52.97 125.33 53.22 125.67 53.05 126.02 53.56 126.37 53.56 126.72 53.65 127.07 53.22 127.42 52.8 127.77 53.39 128.12 53.14 128.47 52.46 128.82 52.21 129.17 52.88 129.51 52.46 129.86 51.95 130.21 52.04 130.56 51.87 130.91 51.78 131.26 52.46 131.61 51.95 131.96 52.88 132.31 53.14 132.66 52.8 133.01 53.14 133.36 53.73 133.7 53.31 134.05 53.82 134.4 53.98 134.75 54.15 135.1 54.24 135.45 54.32 135.8 54.58 136.15 54.83 136.5 54.91 136.85 54.91 137.2 54.91 137.55 54.91 137.89 54.91 138.24 54.83 138.59 54.91 138.94 54.91 139.29 54.91 139.64 54.91 139.99 54.91 140.34 54.91 140.69 54.91 141.04 54.91 141.39 54.91 141.73 54.91 142.08 54.91 142.43 54.91 142.78 54.91 143.13 54.91 143.48 54.91 143.83 54.91 144.18 54.91 144.53 54.91 144.88 54.91 145.23 54.91 145.58 54.91 145.92 54.91 146.27 54.91 146.62 54.91 146.97 54.83 147.32 54.83 147.67 54.75 148.02 54.75 148.37 54.83 148.72 54.58 149.07 54.49 149.42 54.58 149.76 54.41 150.11 53.9 150.46 53.65 150.81 53.82 151.16 53.9 151.51 53.73 151.86 53.98 152.21 53.98 152.56 53.98 152.91 54.07 153.26 54.41 153.61 54.24 153.95 54.07 154.3 53.65 154.65 53.14 155 53.39 155.35 53.65 155.7 53.65 156.05 54.07 156.4 54.15 156.75 53.82 157.1 53.48 157.45 53.9 157.79 54.15 158.14 53.31 158.49 52.29 158.84 52.46 159.19 52.72 159.54 52.55 159.89 52.29 160.24 52.21 160.59 52.46 160.94 52.63 161.29 52.38 161.64 52.8 161.98 53.22 162.33 53.14 162.68 53.14 163.03 52.21 163.38 52.97 163.73 52.55 164.08 52.72 164.43 52.12 164.78 52.04 165.13 52.72 165.48 53.05 165.83 52.8 166.17 52.88 166.52 53.39 166.87 53.31 167.22 53.48 167.57 53.48 167.92 52.8 168.27 52.12 168.62 51.7 168.97 51.45 169.32 51.78 169.67 52.29 170.01 52.12 170.36 52.46 170.71 52.72 171.06 52.72 171.41 52.46 171.76 52.88 172.11 53.05 172.46 53.48 172.81 53.31 173.16 53.05 173.51 54.24 173.86 54.07 174.2 54.49 174.55 54.66 174.9 54.66 175.25 54.49 175.6 54.41 175.95 54.32 176.3 54.32 176.65 54.49 177 54.41 177.35 54.58 177.7 54.75 178.04 54.91 178.39 54.91 178.74 54.91 179.09 54.91 179.44 54.91 179.79 54.91 180.14 54.91 180.49 54.91 180.84 54.91 181.19 54.91 181.54 54.91 181.89 54.91 182.23 54.91 182.58 54.91 182.93 54.91 183.28 54.91 183.63 54.91 183.98 54.91 184.33 54.91 184.68 54.91 185.03 54.91 185.38 54.91 185.73 54.91 186.08 54.91 186.42 54.91 186.77 54.91 187.12 54.66 187.47 54.83 187.82 54.91 188.17 54.91 188.52 54.91 188.87 54.91 189.22 54.91 189.57 54.91 189.92 54.91 190.26 54.91 190.61 54.91 190.96 54.91 191.31 54.91 191.66 54.91 192.01 54.91 192.36 54.91 192.71 54.91 193.06 54.75 193.41 54.41 193.76 54.15 194.11 54.32 194.45 54.66 194.8 54.41 195.15 54.58 195.5 54.49 195.85 54.49 196.2 54.58"/>
      </g>
      <g stroke-width="0.3" fill="#000000" fill-opacity="0.000" class="geometry" stroke-dasharray="none" stroke="#FDAE61" id="img-3116e1ba-36">
        <path fill="none" d="M21.98,33.76 L 22.33 32.49 22.68 31.9 23.03 32.75 23.38 32.83 23.73 33.51 24.08 34.86 24.42 35.12 24.77 35.03 25.12 35.03 25.47 37.66 25.82 36.3 26.17 35.88 26.52 35.79 26.87 34.86 27.22 34.02 27.57 34.27 27.92 34.52 28.27 35.37 28.61 35.79 28.96 35.03 29.31 34.69 29.66 35.12 30.01 35.46 30.36 36.47 30.71 35.88 31.06 36.39 31.41 35.2 31.76 34.27 32.11 35.54 32.45 35.2 32.8 34.61 33.15 34.78 33.5 35.03 33.85 33.34 34.2 32.75 34.55 32.49 34.9 31.73 35.25 30.38 35.6 31.31 35.95 31.06 36.3 30.29 36.64 31.06 36.99 33.17 37.34 33.34 37.69 32.83 38.04 31.06 38.39 30.97 38.74 30.89 39.09 29.96 39.44 29.19 39.79 30.04 40.14 30.89 40.49 30.89 40.83 31.39 41.18 33.85 41.53 32.83 41.88 33.76 42.23 33.68 42.58 35.37 42.93 35.79 43.28 35.03 43.63 34.19 43.98 33.76 44.33 33.34 44.67 32.83 45.02 32.41 45.37 31.9 45.72 32.83 46.07 32.83 46.42 33.85 46.77 33.26 47.12 32.49 47.47 31.99 47.82 32.41 48.17 32.83 48.52 31.31 48.86 30.29 49.21 30.29 49.56 30.8 49.91 31.39 50.26 30.63 50.61 31.99 50.96 31.14 51.31 29.96 51.66 28.77 52.01 28.6 52.36 26.74 52.7 26.91 53.05 26.83 53.4 28.01 53.75 27.59 54.1 28.6 54.45 28.69 54.8 27.76 55.15 27.08 55.5 28.01 55.85 27.84 56.2 29.19 56.55 29.53 56.89 29.19 57.24 28.6 57.59 28.26 57.94 29.36 58.29 30.55 58.64 30.97 58.99 31.65 59.34 31.99 59.69 31.56 60.04 31.9 60.39 33 60.73 33.68 61.08 35.96 61.43 35.46 61.78 35.12 62.13 35.71 62.48 36.3 62.83 35.62 63.18 36.56 63.53 35.46 63.88 35.79 64.23 36.56 64.58 37.06 64.92 36.72 65.27 36.64 65.62 37.66 65.97 37.23 66.32 36.98 66.67 37.99 67.02 38.76 67.37 39.77 67.72 41.63 68.07 42.22 68.42 41.38 68.77 41.12 69.11 42.05 69.46 43.49 69.81 42.22 70.16 41.63 70.51 42.48 70.86 41.12 71.21 41.04 71.56 40.19 71.91 38.84 72.26 38.84 72.61 38.16 72.95 38.67 73.3 38.16 73.65 39.43 74 39.86 74.35 40.45 74.7 41.38 75.05 42.9 75.4 41.63 75.75 41.46 76.1 40.79 76.45 41.55 76.8 41.55 77.14 41.97 77.49 40.62 77.84 41.29 78.19 40.19 78.54 41.63 78.89 41.38 79.24 41.8 79.59 41.21 79.94 41.29 80.29 40.45 80.64 40.36 80.98 40.95 81.33 39.94 81.68 40.79 82.03 40.45 82.38 39.86 82.73 39.09 83.08 37.57 83.43 37.91 83.78 37.99 84.13 37.32 84.48 37.74 84.83 36.13 85.17 35.12 85.52 35.96 85.87 35.12 86.22 36.39 86.57 35.79 86.92 36.98 87.27 35.62 87.62 34.44 87.97 33.93 88.32 34.52 88.67 33.42 89.02 33.85 89.36 34.86 89.71 34.86 90.06 33.93 90.41 33.51 90.76 34.86 91.11 34.44 91.46 32.58 91.81 33.34 92.16 33.93 92.51 31.56 92.86 33.09 93.2 34.61 93.55 34.61 93.9 34.36 94.25 33.76 94.6 33.85 94.95 34.27 95.3 34.78 95.65 36.13 96 36.22 96.35 37.23 96.7 36.05 97.05 35.71 97.39 37.82 97.74 37.4 98.09 36.89 98.44 35.62 98.79 36.47 99.14 36.39 99.49 36.05 99.84 37.06 100.19 35.46 100.54 35.54 100.89 36.3 101.23 35.88 101.58 37.06 101.93 37.32 102.28 36.39 102.63 35.2 102.98 36.98 103.33 36.72 103.68 36.56 104.03 36.98 104.38 35.71 104.73 34.95 105.08 34.69 105.42 34.02 105.77 33.93 106.12 33.93 106.47 35.79 106.82 34.69 107.17 36.56 107.52 37.4 107.87 37.66 108.22 39.52 108.57 39.26 108.92 39.94 109.26 38.76 109.61 39.18 109.96 39.43 110.31 39.01 110.66 37.32 111.01 38.59 111.36 37.4 111.71 36.39 112.06 37.32 112.41 37.91 112.76 36.39 113.11 36.72 113.45 37.23 113.8 38.67 114.15 37.82 114.5 37.74 114.85 38.16 115.2 38.25 115.55 39.09 115.9 39.26 116.25 39.77 116.6 40.95 116.95 42.39 117.3 42.48 117.64 42.48 117.99 41.89 118.34 41.38 118.69 41.72 119.04 42.22 119.39 42.39 119.74 42.05 120.09 40.7 120.44 39.52 120.79 40.7 121.14 41.72 121.48 43.15 121.83 44.25 122.18 44.34 122.53 44.17 122.88 44.59 123.23 45.19 123.58 45.86 123.93 44.51 124.28 44.25 124.63 44.25 124.98 45.27 125.33 45.19 125.67 44.09 126.02 44.09 126.37 43.49 126.72 42.73 127.07 43.66 127.42 43.24 127.77 43.24 128.12 42.73 128.47 43.32 128.82 44 129.17 44.09 129.51 43.07 129.86 41.8 130.21 42.31 130.56 41.72 130.91 40.62 131.26 41.12 131.61 41.29 131.96 42.14 132.31 42.65 132.66 42.39 133.01 43.32 133.36 45.1 133.7 44.85 134.05 45.02 134.4 46.12 134.75 44.59 135.1 45.52 135.45 45.52 135.8 45.52 136.15 45.78 136.5 46.12 136.85 45.02 137.2 45.27 137.55 44.51 137.89 45.69 138.24 45.78 138.59 45.86 138.94 46.2 139.29 47.13 139.64 47.81 139.99 47.72 140.34 46.79 140.69 47.3 141.04 47.13 141.39 47.98 141.73 48.48 142.08 48.82 142.43 47.64 142.78 47.55 143.13 47.64 143.48 47.64 143.83 48.4 144.18 47.3 144.53 46.45 144.88 45.78 145.23 45.44 145.58 46.79 145.92 46.45 146.27 47.13 146.62 47.81 146.97 48.23 147.32 48.23 147.67 48.65 148.02 49.92 148.37 50.01 148.72 50.43 149.07 50.01 149.42 50.09 149.76 49.33 150.11 49.84 150.46 49.33 150.81 50.26 151.16 50.18 151.51 50.35 151.86 51.02 152.21 50.52 152.56 50.85 152.91 51.02 153.26 50.35 153.61 50.85 153.95 51.02 154.3 51.36 154.65 52.38 155 52.04 155.35 51.95 155.7 51.02 156.05 51.19 156.4 51.45 156.75 51.11 157.1 51.62 157.45 52.8 157.79 52.97 158.14 53.05 158.49 53.73 158.84 53.82 159.19 53.82 159.54 53.82 159.89 53.48 160.24 54.07 160.59 54.24 160.94 54.07 161.29 54.32 161.64 54.49 161.98 54.24 162.33 53.82 162.68 53.39 163.03 53.82 163.38 53.39 163.73 53.22 164.08 53.65 164.43 53.22 164.78 53.14 165.13 53.39 165.48 53.48 165.83 52.88 166.17 52.21 166.52 52.8 166.87 53.22 167.22 53.65 167.57 53.65 167.92 53.31 168.27 52.8 168.62 52.72 168.97 52.21 169.32 51.45 169.67 51.11 170.01 50.52 170.36 49.92 170.71 49.67 171.06 49.42 171.41 48.91 171.76 47.81 172.11 48.23 172.46 48.06 172.81 48.65 173.16 48.48 173.51 48.48 173.86 48.4 174.2 48.57 174.55 49.5 174.9 49.58 175.25 50.6 175.6 51.11 175.95 50.43 176.3 50.52 176.65 49.92 177 50.18 177.35 50.85 177.7 50.6 178.04 51.11 178.39 50.68 178.74 51.62 179.09 51.95 179.44 51.78 179.79 52.88 180.14 53.14 180.49 53.31 180.84 54.24 181.19 54.32 181.54 54.32 181.89 54.41 182.23 54.32 182.58 54.58 182.93 54.66 183.28 54.66 183.63 54.41 183.98 54.41 184.33 54.15 184.68 54.07 185.03 54.07 185.38 53.98 185.73 54.15 186.08 54.49 186.42 54.41 186.77 54.58 187.12 54.75 187.47 54.75 187.82 54.83 188.17 54.91 188.52 54.91 188.87 54.91 189.22 54.91 189.57 54.91 189.92 54.91 190.26 54.91 190.61 54.91 190.96 54.91 191.31 54.91 191.66 54.83 192.01 54.83 192.36 54.91 192.71 54.91 193.06 54.91 193.41 54.91 193.76 54.91 194.11 54.91 194.45 54.91 194.8 54.91 195.15 54.91 195.5 54.91 195.85 54.91 196.2 54.91"/>
      </g>
      <g stroke-width="0.3" fill="#000000" fill-opacity="0.000" class="geometry" stroke-dasharray="none" stroke="#F46D43" id="img-3116e1ba-37">
        <path fill="none" d="M21.98,33.76 L 22.33 33.26 22.68 34.02 23.03 34.1 23.38 34.19 23.73 36.39 24.08 36.56 24.42 35.88 24.77 36.81 25.12 37.4 25.47 36.64 25.82 37.49 26.17 37.74 26.52 37.74 26.87 36.64 27.22 36.22 27.57 36.89 27.92 37.82 28.27 38.5 28.61 38.16 28.96 37.23 29.31 37.49 29.66 36.39 30.01 37.74 30.36 37.4 30.71 36.56 31.06 34.61 31.41 34.78 31.76 34.36 32.11 35.37 32.45 33.85 32.8 34.02 33.15 35.12 33.5 34.61 33.85 34.95 34.2 35.46 34.55 35.79 34.9 36.05 35.25 37.23 35.6 35.96 35.95 35.71 36.3 35.37 36.64 35.29 36.99 36.47 37.34 36.81 37.69 36.72 38.04 35.54 38.39 35.29 38.74 35.12 39.09 35.96 39.44 37.4 39.79 37.4 40.14 38.08 40.49 40.02 40.83 41.21 41.18 39.43 41.53 41.21 41.88 41.97 42.23 42.39 42.58 42.39 42.93 41.8 43.28 41.63 43.63 40.36 43.98 41.12 44.33 40.36 44.67 39.86 45.02 39.77 45.37 41.38 45.72 40.28 46.07 39.86 46.42 40.28 46.77 41.12 47.12 42.05 47.47 43.32 47.82 43.83 48.17 44.09 48.52 45.1 48.86 46.37 49.21 47.22 49.56 47.81 49.91 49.08 50.26 48.91 50.61 49.42 50.96 49.75 51.31 51.19 51.66 51.62 52.01 52.12 52.36 50.77 52.7 51.11 53.05 51.02 53.4 51.02 53.75 51.36 54.1 52.12 54.45 50.77 54.8 50.68 55.15 50.52 55.5 49.75 55.85 50.85 56.2 50.26 56.55 49.75 56.89 49.67 57.24 50.01 57.59 49.33 57.94 48.91 58.29 49.42 58.64 50.26 58.99 50.6 59.34 49.92 59.69 49.67 60.04 48.57 60.39 47.55 60.73 48.23 61.08 48.74 61.43 48.48 61.78 49.08 62.13 48.91 62.48 49.33 62.83 49.58 63.18 49.33 63.53 49.25 63.88 48.74 64.23 49.08 64.58 48.74 64.92 48.06 65.27 47.55 65.62 47.39 65.97 47.89 66.32 47.89 66.67 46.71 67.02 47.22 67.37 47.55 67.72 47.3 68.07 48.48 68.42 48.4 68.77 47.81 69.11 46.96 69.46 44.51 69.81 44.76 70.16 45.1 70.51 46.45 70.86 46.79 71.21 46.12 71.56 44.93 71.91 45.1 72.26 44.17 72.61 44.59 72.95 43.32 73.3 43.49 73.65 43.32 74 44.51 74.35 44.76 74.7 44.59 75.05 45.27 75.4 44.17 75.75 44.93 76.1 44 76.45 43.83 76.8 43.49 77.14 43.41 77.49 44.09 77.84 45.02 78.19 44.76 78.54 45.19 78.89 45.44 79.24 46.45 79.59 46.37 79.94 46.29 80.29 45.78 80.64 45.61 80.98 45.35 81.33 45.61 81.68 45.52 82.03 45.86 82.38 45.78 82.73 44.93 83.08 45.52 83.43 44.68 83.78 44.09 84.13 45.27 84.48 45.61 84.83 45.02 85.17 45.35 85.52 45.95 85.87 46.12 86.22 45.78 86.57 46.54 86.92 46.12 87.27 46.37 87.62 45.44 87.97 45.69 88.32 46.45 88.67 46.2 89.02 46.2 89.36 46.37 89.71 46.96 90.06 47.3 90.41 47.05 90.76 47.64 91.11 47.13 91.46 47.05 91.81 46.96 92.16 45.52 92.51 45.27 92.86 45.44 93.2 46.12 93.55 46.45 93.9 47.47 94.25 47.05 94.6 47.3 94.95 46.71 95.3 46.29 95.65 47.22 96 46.71 96.35 46.2 96.7 46.03 97.05 45.44 97.39 45.61 97.74 45.52 98.09 44.51 98.44 43.32 98.79 41.38 99.14 41.04 99.49 41.04 99.84 41.8 100.19 42.73 100.54 41.29 100.89 40.7 101.23 39.6 101.58 40.28 101.93 40.19 102.28 38.42 102.63 40.19 102.98 40.28 103.33 40.36 103.68 39.94 104.03 39.09 104.38 39.77 104.73 41.97 105.08 42.22 105.42 42.39 105.77 42.56 106.12 43.66 106.47 43.32 106.82 43.24 107.17 42.82 107.52 41.97 107.87 42.65 108.22 43.83 108.57 44.34 108.92 44.85 109.26 46.12 109.61 46.62 109.96 47.22 110.31 46.71 110.66 46.71 111.01 46.29 111.36 46.37 111.71 45.52 112.06 44.25 112.41 44.34 112.76 44.25 113.11 44.17 113.45 44.34 113.8 44.59 114.15 43.24 114.5 44.76 114.85 45.61 115.2 45.02 115.55 45.44 115.9 44.93 116.25 45.44 116.6 44.85 116.95 45.02 117.3 45.78 117.64 46.03 117.99 46.2 118.34 47.13 118.69 47.47 119.04 47.39 119.39 47.64 119.74 48.57 120.09 48.23 120.44 47.55 120.79 46.88 121.14 46.79 121.48 47.22 121.83 46.37 122.18 45.61 122.53 46.03 122.88 46.03 123.23 45.02 123.58 45.02 123.93 45.61 124.28 44 124.63 43.32 124.98 43.07 125.33 42.65 125.67 41.55 126.02 41.89 126.37 42.48 126.72 41.04 127.07 42.48 127.42 42.39 127.77 39.86 128.12 39.69 128.47 39.86 128.82 40.7 129.17 38.42 129.51 39.43 129.86 39.09 130.21 38.5 130.56 38.5 130.91 38.84 131.26 39.35 131.61 41.12 131.96 41.21 132.31 39.09 132.66 39.94 133.01 39.09 133.36 40.11 133.7 41.46 134.05 41.63 134.4 41.29 134.75 42.99 135.1 42.48 135.45 43.41 135.8 43.49 136.15 44.25 136.5 43.83 136.85 44.76 137.2 44.51 137.55 43.83 137.89 44.25 138.24 43.41 138.59 43.41 138.94 44.25 139.29 45.69 139.64 45.86 139.99 47.05 140.34 47.39 140.69 48.23 141.04 47.22 141.39 47.3 141.73 45.95 142.08 46.37 142.43 46.37 142.78 46.71 143.13 46.79 143.48 46.37 143.83 46.54 144.18 46.62 144.53 46.54 144.88 46.96 145.23 47.47 145.58 46.96 145.92 47.22 146.27 48.15 146.62 48.48 146.97 48.48 147.32 49.58 147.67 49.25 148.02 49.33 148.37 49.08 148.72 49.25 149.07 49.92 149.42 50.52 149.76 50.68 150.11 50.26 150.46 50.85 150.81 51.19 151.16 51.11 151.51 51.78 151.86 51.7 152.21 51.45 152.56 52.12 152.91 52.12 153.26 53.14 153.61 52.72 153.95 52.72 154.3 52.55 154.65 51.53 155 51.36 155.35 52.04 155.7 51.87 156.05 52.21 156.4 52.29 156.75 52.29 157.1 52.12 157.45 52.29 157.79 52.38 158.14 52.46 158.49 52.8 158.84 52.38 159.19 53.05 159.54 52.55 159.89 52.88 160.24 52.63 160.59 52.46 160.94 53.14 161.29 53.22 161.64 53.05 161.98 53.22 162.33 53.48 162.68 53.22 163.03 53.65 163.38 54.15 163.73 54.24 164.08 54.41 164.43 54.75 164.78 54.75 165.13 54.91 165.48 54.91 165.83 54.91 166.17 54.91 166.52 54.91 166.87 54.91 167.22 54.91 167.57 54.91 167.92 54.91 168.27 54.91 168.62 54.91 168.97 54.91 169.32 54.91 169.67 54.91 170.01 54.91 170.36 54.91 170.71 54.91 171.06 54.91 171.41 54.91 171.76 54.91 172.11 54.91 172.46 54.91 172.81 54.91 173.16 54.91 173.51 54.91 173.86 54.91 174.2 54.83 174.55 54.91 174.9 54.91 175.25 54.91 175.6 54.91 175.95 54.91 176.3 54.91 176.65 54.91 177 54.91 177.35 54.91 177.7 54.91 178.04 54.91 178.39 54.91 178.74 54.91 179.09 54.91 179.44 54.91 179.79 54.91 180.14 54.91 180.49 54.91 180.84 54.91 181.19 54.91 181.54 54.91 181.89 54.91 182.23 54.91 182.58 54.91 182.93 54.91 183.28 54.91 183.63 54.91 183.98 54.91 184.33 54.91 184.68 54.91 185.03 54.91 185.38 54.91 185.73 54.91 186.08 54.91 186.42 54.91 186.77 54.91 187.12 54.91 187.47 54.91 187.82 54.91 188.17 54.91 188.52 54.91 188.87 54.91 189.22 54.91 189.57 54.91 189.92 54.91 190.26 54.91 190.61 54.91 190.96 54.91 191.31 54.91 191.66 54.91 192.01 54.91 192.36 54.91 192.71 54.91 193.06 54.91 193.41 54.91 193.76 54.91 194.11 54.91 194.45 54.91 194.8 54.91 195.15 54.91 195.5 54.91 195.85 54.91 196.2 54.91"/>
      </g>
      <g stroke-width="0.3" fill="#000000" fill-opacity="0.000" class="geometry" stroke-dasharray="none" stroke="#D53E4F" id="img-3116e1ba-38">
        <path fill="none" d="M21.98,33.76 L 22.33 33.51 22.68 34.1 23.03 34.95 23.38 35.37 23.73 34.78 24.08 35.12 24.42 35.29 24.77 34.36 25.12 34.1 25.47 34.95 25.82 33.68 26.17 34.44 26.52 35.2 26.87 33.34 27.22 30.8 27.57 31.14 27.92 31.9 28.27 30.46 28.61 32.41 28.96 32.33 29.31 33.42 29.66 32.75 30.01 32.66 30.36 31.48 30.71 30.72 31.06 30.13 31.41 29.79 31.76 29.19 32.11 28.6 32.45 29.19 32.8 31.56 33.15 31.39 33.5 31.65 33.85 31.39 34.2 31.48 34.55 30.97 34.9 31.99 35.25 31.99 35.6 30.55 35.95 32.33 36.3 34.1 36.64 32.75 36.99 32.83 37.34 32.41 37.69 31.9 38.04 32.92 38.39 32.83 38.74 32.33 39.09 31.23 39.44 30.29 39.79 29.96 40.14 30.13 40.49 30.89 40.83 31.99 41.18 33.34 41.53 33.26 41.88 34.27 42.23 33.59 42.58 34.61 42.93 35.96 43.28 35.29 43.63 35.62 43.98 36.22 44.33 37.82 44.67 38.76 45.02 39.6 45.37 39.94 45.72 39.18 46.07 38.67 46.42 38.42 46.77 39.09 47.12 38.5 47.47 37.66 47.82 38.16 48.17 37.91 48.52 39.18 48.86 40.79 49.21 42.05 49.56 43.07 49.91 42.48 50.26 41.8 50.61 42.05 50.96 41.21 51.31 41.12 51.66 41.12 52.01 41.12 52.36 41.29 52.7 42.14 53.05 41.46 53.4 41.38 53.75 41.63 54.1 41.21 54.45 41.38 54.8 39.6 55.15 39.26 55.5 39.77 55.85 38.42 56.2 39.69 56.55 38.5 56.89 38.84 57.24 38.67 57.59 38.16 57.94 36.81 58.29 36.98 58.64 36.64 58.99 37.66 59.34 36.81 59.69 36.98 60.04 38.08 60.39 39.69 60.73 39.86 61.08 40.36 61.43 42.99 61.78 44.09 62.13 44.09 62.48 44.42 62.83 44 63.18 43.92 63.53 44.09 63.88 43.58 64.23 43.49 64.58 43.07 64.92 42.14 65.27 41.72 65.62 41.29 65.97 39.43 66.32 37.4 66.67 37.23 67.02 34.61 67.37 34.36 67.72 35.03 68.07 34.95 68.42 34.36 68.77 35.37 69.11 35.29 69.46 34.69 69.81 34.78 70.16 34.61 70.51 33.42 70.86 33.59 71.21 33.34 71.56 33.68 71.91 33.42 72.26 35.62 72.61 36.39 72.95 35.62 73.3 36.47 73.65 36.64 74 36.47 74.35 36.89 74.7 36.89 75.05 37.74 75.4 38.16 75.75 37.74 76.1 38.33 76.45 38.5 76.8 39.18 77.14 39.18 77.49 38.67 77.84 39.01 78.19 40.19 78.54 40.36 78.89 40.28 79.24 40.11 79.59 41.38 79.94 40.45 80.29 40.62 80.64 41.21 80.98 40.79 81.33 41.8 81.68 41.72 82.03 41.46 82.38 42.14 82.73 41.29 83.08 39.69 83.43 39.52 83.78 40.19 84.13 41.89 84.48 40.28 84.83 39.69 85.17 38.92 85.52 37.32 85.87 37.82 86.22 38.92 86.57 38.84 86.92 38.84 87.27 39.69 87.62 40.19 87.97 40.53 88.32 38.92 88.67 39.01 89.02 38.16 89.36 38.92 89.71 38.42 90.06 39.52 90.41 37.57 90.76 38.92 91.11 39.69 91.46 38.76 91.81 38.16 92.16 36.98 92.51 36.39 92.86 35.79 93.2 33.59 93.55 33.26 93.9 33 94.25 31.99 94.6 31.9 94.95 29.62 95.3 30.55 95.65 31.14 96 30.13 96.35 30.89 96.7 30.29 97.05 31.06 97.39 31.73 97.74 31.48 98.09 31.65 98.44 31.14 98.79 30.55 99.14 30.38 99.49 31.48 99.84 32.33 100.19 32.58 100.54 34.27 100.89 33.09 101.23 33.76 101.58 32.66 101.93 31.73 102.28 32.16 102.63 30.8 102.98 31.48 103.33 33.09 103.68 34.95 104.03 35.62 104.38 36.13 104.73 36.56 105.08 35.46 105.42 36.72 105.77 36.72 106.12 36.89 106.47 38.67 106.82 38.76 107.17 39.43 107.52 39.01 107.87 40.53 108.22 40.19 108.57 39.43 108.92 39.77 109.26 39.6 109.61 38.5 109.96 37.99 110.31 38.67 110.66 39.43 111.01 39.94 111.36 40.7 111.71 41.21 112.06 41.29 112.41 40.28 112.76 39.77 113.11 38.33 113.45 36.98 113.8 36.3 114.15 36.13 114.5 36.3 114.85 36.47 115.2 37.66 115.55 37.49 115.9 38.76 116.25 38.59 116.6 39.35 116.95 38.5 117.3 37.66 117.64 38.33 117.99 37.32 118.34 38.33 118.69 40.02 119.04 40.36 119.39 39.86 119.74 40.53 120.09 40.45 120.44 40.79 120.79 41.21 121.14 42.22 121.48 41.72 121.83 41.55 122.18 41.21 122.53 41.55 122.88 41.72 123.23 41.72 123.58 43.58 123.93 42.99 124.28 42.99 124.63 42.9 124.98 43.66 125.33 43.49 125.67 42.56 126.02 44.93 126.37 44.93 126.72 44.59 127.07 44.25 127.42 44.42 127.77 44 128.12 45.44 128.47 43.58 128.82 43.32 129.17 42.39 129.51 41.46 129.86 43.32 130.21 43.83 130.56 45.86 130.91 44.42 131.26 44 131.61 44.09 131.96 43.58 132.31 44.09 132.66 43.49 133.01 44.09 133.36 42.99 133.7 43.32 134.05 43.66 134.4 41.89 134.75 41.63 135.1 40.19 135.45 41.55 135.8 39.6 136.15 38.5 136.5 37.74 136.85 37.82 137.2 38.33 137.55 39.69 137.89 39.94 138.24 39.86 138.59 42.48 138.94 43.15 139.29 42.82 139.64 41.8 139.99 42.9 140.34 40.62 140.69 41.8 141.04 41.29 141.39 42.56 141.73 42.14 142.08 40.28 142.43 40.19 142.78 39.09 143.13 39.18 143.48 38.42 143.83 37.91 144.18 39.35 144.53 40.02 144.88 40.95 145.23 41.46 145.58 40.53 145.92 41.04 146.27 40.45 146.62 40.62 146.97 40.7 147.32 41.97 147.67 41.46 148.02 41.04 148.37 41.72 148.72 39.35 149.07 39.77 149.42 40.11 149.76 39.52 150.11 39.86 150.46 40.79 150.81 42.31 151.16 40.7 151.51 41.72 151.86 42.82 152.21 42.48 152.56 43.41 152.91 43.32 153.26 42.73 153.61 43.58 153.95 42.22 154.3 41.21 154.65 41.55 155 41.89 155.35 41.63 155.7 42.31 156.05 42.48 156.4 41.55 156.75 41.89 157.1 41.89 157.45 43.15 157.79 44.68 158.14 44.85 158.49 45.86 158.84 45.95 159.19 46.45 159.54 46.62 159.89 47.64 160.24 47.72 160.59 47.22 160.94 45.78 161.29 47.22 161.64 47.72 161.98 48.57 162.33 48.48 162.68 48.32 163.03 47.55 163.38 46.45 163.73 47.55 164.08 47.55 164.43 46.79 164.78 46.29 165.13 46.54 165.48 46.03 165.83 45.78 166.17 44.76 166.52 45.02 166.87 45.35 167.22 46.12 167.57 45.78 167.92 44.76 168.27 42.48 168.62 41.29 168.97 43.83 169.32 44.09 169.67 44.85 170.01 44.25 170.36 43.49 170.71 44.25 171.06 44.09 171.41 45.1 171.76 46.12 172.11 45.61 172.46 45.27 172.81 45.44 173.16 45.61 173.51 45.44 173.86 44.93 174.2 45.35 174.55 46.54 174.9 46.03 175.25 45.44 175.6 45.44 175.95 44.42 176.3 44.42 176.65 45.78 177 46.37 177.35 45.02 177.7 45.02 178.04 44.17 178.39 43.92 178.74 43.92 179.09 42.14 179.44 41.72 179.79 41.72 180.14 41.89 180.49 41.89 180.84 42.14 181.19 41.04 181.54 41.21 181.89 42.31 182.23 43.24 182.58 42.56 182.93 43.07 183.28 43.24 183.63 43.49 183.98 43.66 184.33 43.41 184.68 44 185.03 43.58 185.38 43.07 185.73 43.75 186.08 44.59 186.42 44.09 186.77 44.76 187.12 44.85 187.47 44.51 187.82 43.24 188.17 42.9 188.52 43.24 188.87 44.25 189.22 44.51 189.57 44.59 189.92 42.82 190.26 41.8 190.61 41.8 190.96 41.55 191.31 40.28 191.66 40.19 192.01 40.95 192.36 41.12 192.71 41.04 193.06 39.09 193.41 37.15 193.76 37.15 194.11 37.4 194.45 38.92 194.8 37.23 195.15 39.43 195.5 38.76 195.85 38.59 196.2 37.91"/>
      </g>
      <g stroke-width="0.3" fill="#000000" fill-opacity="0.000" class="geometry" stroke-dasharray="none" stroke="#9E0142" id="img-3116e1ba-39">
        <path fill="none" d="M21.98,33.76 L 22.33 34.19 22.68 34.36 23.03 35.62 23.38 34.1 23.73 34.86 24.08 35.54 24.42 35.2 24.77 35.03 25.12 35.46 25.47 34.52 25.82 34.69 26.17 33.85 26.52 35.12 26.87 35.03 27.22 33.93 27.57 34.78 27.92 35.2 28.27 35.2 28.61 35.54 28.96 35.62 29.31 36.22 29.66 34.27 30.01 34.52 30.36 33.93 30.71 34.52 31.06 36.13 31.41 34.95 31.76 35.88 32.11 35.03 32.45 34.95 32.8 33.85 33.15 35.2 33.5 35.79 33.85 36.98 34.2 36.72 34.55 35.12 34.9 35.29 35.25 35.12 35.6 33.76 35.95 32.24 36.3 32.92 36.64 30.89 36.99 30.63 37.34 29.28 37.69 29.03 38.04 28.26 38.39 28.77 38.74 28.6 39.09 28.6 39.44 30.8 39.79 30.38 40.14 29.62 40.49 29.96 40.83 30.04 41.18 28.77 41.53 28.6 41.88 28.01 42.23 27.76 42.58 27.42 42.93 25.81 43.28 24.29 43.63 23.78 43.98 23.53 44.33 23.61 44.67 24.8 45.02 25.89 45.37 26.99 45.72 26.57 46.07 26.66 46.42 28.26 46.77 29.19 47.12 28.35 47.47 27.67 47.82 27.5 48.17 26.74 48.52 26.49 48.86 25.81 49.21 26.57 49.56 27.08 49.91 27.42 50.26 29.45 50.61 30.29 50.96 30.46 51.31 31.14 51.66 31.82 52.01 31.48 52.36 33.59 52.7 31.9 53.05 32.66 53.4 34.36 53.75 34.95 54.1 34.86 54.45 34.69 54.8 35.03 55.15 33.93 55.5 34.19 55.85 34.61 56.2 32.92 56.55 32.66 56.89 33.09 57.24 34.19 57.59 35.29 57.94 36.13 58.29 36.89 58.64 35.79 58.99 36.56 59.34 37.74 59.69 37.74 60.04 38.84 60.39 38.42 60.73 36.47 61.08 36.89 61.43 37.82 61.78 39.77 62.13 39.18 62.48 40.95 62.83 39.69 63.18 37.49 63.53 36.72 63.88 37.49 64.23 36.64 64.58 36.39 64.92 39.09 65.27 38.42 65.62 37.74 65.97 37.32 66.32 35.71 66.67 35.2 67.02 35.96 67.37 36.56 67.72 36.89 68.07 37.06 68.42 38.59 68.77 38.08 69.11 37.74 69.46 38.5 69.81 39.94 70.16 40.87 70.51 40.62 70.86 40.28 71.21 38.59 71.56 37.49 71.91 38.33 72.26 39.43 72.61 40.79 72.95 41.21 73.3 40.45 73.65 40.87 74 38.59 74.35 39.35 74.7 38.92 75.05 37.82 75.4 36.56 75.75 36.81 76.1 37.49 76.45 36.89 76.8 37.49 77.14 38.33 77.49 36.22 77.84 36.98 78.19 36.56 78.54 36.22 78.89 35.03 79.24 34.44 79.59 34.27 79.94 34.27 80.29 35.71 80.64 36.22 80.98 35.79 81.33 36.64 81.68 36.64 82.03 36.89 82.38 36.39 82.73 36.64 83.08 37.23 83.43 37.06 83.78 36.05 84.13 33.68 84.48 34.78 84.83 34.19 85.17 33.59 85.52 33.68 85.87 34.52 86.22 33.09 86.57 33.42 86.92 34.19 87.27 33.93 87.62 32.41 87.97 31.06 88.32 31.06 88.67 30.46 89.02 31.39 89.36 30.38 89.71 30.89 90.06 30.8 90.41 30.38 90.76 29.53 91.11 28.86 91.46 28.52 91.81 27.42 92.16 28.52 92.51 28.86 92.86 29.28 93.2 27.59 93.55 27.84 93.9 27.76 94.25 27.5 94.6 27.93 94.95 26.57 95.3 27.59 95.65 26.91 96 26.91 96.35 26.74 96.7 25.22 97.05 24.46 97.39 22.6 97.74 21.83 98.09 22.26 98.44 22.93 98.79 23.95 99.14 25.56 99.49 27.16 99.84 25.98 100.19 26.23 100.54 26.23 100.89 26.15 101.23 25.89 101.58 25.64 101.93 25.89 102.28 26.4 102.63 24.96 102.98 24.46 103.33 24.46 103.68 24.96 104.03 25.47 104.38 26.57 104.73 27.93 105.08 28.01 105.42 27.08 105.77 27.67 106.12 28.35 106.47 29.7 106.82 29.36 107.17 28.77 107.52 28.94 107.87 28.52 108.22 28.35 108.57 26.32 108.92 26.23 109.26 26.91 109.61 26.99 109.96 27.5 110.31 28.86 110.66 29.03 111.01 29.79 111.36 30.89 111.71 30.46 112.06 30.13 112.41 31.39 112.76 33.76 113.11 32.92 113.45 32.83 113.8 32.66 114.15 31.14 114.5 31.06 114.85 32.75 115.2 32.33 115.55 32.07 115.9 31.14 116.25 31.65 116.6 33.34 116.95 32.33 117.3 31.48 117.64 31.65 117.99 31.31 118.34 31.06 118.69 31.99 119.04 31.65 119.39 31.48 119.74 30.55 120.09 32.24 120.44 31.14 120.79 30.8 121.14 32.24 121.48 32.16 121.83 30.29 122.18 29.96 122.53 29.96 122.88 31.82 123.23 30.46 123.58 30.04 123.93 27.84 124.28 27.84 124.63 27.67 124.98 25.73 125.33 26.91 125.67 26.15 126.02 25.64 126.37 26.99 126.72 26.32 127.07 26.49 127.42 27.5 127.77 26.66 128.12 27.08 128.47 28.35 128.82 27.93 129.17 28.09 129.51 28.6 129.86 28.01 130.21 26.23 130.56 25.98 130.91 27.25 131.26 28.52 131.61 28.52 131.96 28.69 132.31 27.5 132.66 27.42 133.01 27.16 133.36 27.93 133.7 26.57 134.05 26.15 134.4 25.3 134.75 26.66 135.1 26.32 135.45 25.73 135.8 26.23 136.15 25.13 136.5 26.83 136.85 28.09 137.2 28.6 137.55 29.03 137.89 29.36 138.24 28.35 138.59 27.5 138.94 27.67 139.29 27.59 139.64 26.99 139.99 26.32 140.34 26.23 140.69 25.64 141.04 26.57 141.39 24.03 141.73 24.96 142.08 24.03 142.43 25.98 142.78 23.86 143.13 24.12 143.48 24.12 143.83 23.19 144.18 24.2 144.53 22.93 144.88 22.51 145.23 22.85 145.58 21.75 145.92 21.66 146.27 21.41 146.62 22.34 146.97 22.76 147.32 23.95 147.67 24.2 148.02 22.93 148.37 23.78 148.72 24.29 149.07 25.47 149.42 26.4 149.76 26.49 150.11 26.66 150.46 27.33 150.81 26.4 151.16 26.4 151.51 26.66 151.86 28.18 152.21 28.43 152.56 27.16 152.91 27.25 153.26 27.33 153.61 25.73 153.95 25.3 154.3 26.4 154.65 25.3 155 24.03 155.35 24.2 155.7 25.05 156.05 24.29 156.4 24.03 156.75 22.85 157.1 22.43 157.45 21.16 157.79 21.83 158.14 21.5 158.49 20.82 158.84 20.4 159.19 20.73 159.54 19.97 159.89 19.3 160.24 20.4 160.59 19.97 160.94 19.21 161.29 18.7 161.64 18.87 161.98 18.45 162.33 19.38 162.68 19.46 163.03 19.97 163.38 20.06 163.73 18.79 164.08 18.28 164.43 18.53 164.78 18.36 165.13 18.36 165.48 18.79 165.83 19.46 166.17 19.3 166.52 19.55 166.87 19.97 167.22 19.63 167.57 19.38 167.92 19.97 168.27 19.97 168.62 19.8 168.97 18.45 169.32 17.35 169.67 17.94 170.01 17.27 170.36 16.67 170.71 16.5 171.06 16.17 171.41 16.33 171.76 17.43 172.11 17.94 172.46 18.03 172.81 18.53 173.16 18.79 173.51 17.77 173.86 17.77 174.2 17.35 174.55 17.43 174.9 17.94 175.25 17.27 175.6 17.27 175.95 17.86 176.3 16.25 176.65 16.17 177 15.91 177.35 15.49 177.7 15.66 178.04 15.4 178.39 14.81 178.74 15.23 179.09 16 179.44 16.25 179.79 16.33 180.14 15.91 180.49 15.15 180.84 14.64 181.19 14.3 181.54 14.3 181.89 14.22 182.23 14.64 182.58 14.47 182.93 14.3 183.28 14.13 183.63 14.05 183.98 13.88 184.33 13.88 184.68 13.8 185.03 13.71 185.38 13.54 185.73 13.54 186.08 13.54 186.42 13.46 186.77 12.95 187.12 12.78 187.47 12.61 187.82 12.61 188.17 12.61 188.52 12.61 188.87 12.61 189.22 12.61 189.57 12.61 189.92 12.61 190.26 12.61 190.61 12.61 190.96 12.61 191.31 12.61 191.66 12.61 192.01 12.61 192.36 12.61 192.71 12.61 193.06 12.61 193.41 12.61 193.76 12.61 194.11 12.61 194.45 12.78 194.8 12.7 195.15 12.7 195.5 12.78 195.85 12.7 196.2 12.7"/>
      </g>
    </g>
  </g>
</g>
  <g class="guide ylabels" font-size="2.82" font-family="'PT Sans Caption','Helvetica Neue','Helvetica',sans-serif" fill="#000000" id="img-3116e1ba-40">
    <text x="18.63" y="54.91" text-anchor="end" dy="0.35em">0</text>
    <text x="18.63" y="46.45" text-anchor="end" dy="0.35em">100</text>
    <text x="18.63" y="37.99" text-anchor="end" dy="0.35em">200</text>
    <text x="18.63" y="29.53" text-anchor="end" dy="0.35em">300</text>
    <text x="18.63" y="21.07" text-anchor="end" dy="0.35em">400</text>
    <text x="18.63" y="12.61" text-anchor="end" dy="0.35em">500</text>
  </g>
  <g font-size="3.88" font-family="'PT Sans','Helvetica Neue','Helvetica',sans-serif" fill="#000000" stroke="#000000" stroke-opacity="0.000" id="img-3116e1ba-41">
    <text x="8.81" y="31.76" text-anchor="middle" dy="0.35em" transform="rotate(-90, 8.81, 33.76)">population size</text>
  </g>
  <g font-size="3.88" font-family="'PT Sans','Helvetica Neue','Helvetica',sans-serif" fill="#000000" stroke="#000000" stroke-opacity="0.000" id="img-3116e1ba-42">
    <text x="108.92" y="5" text-anchor="middle" dy="0.6em">genetic drift with mutationrate  = 0.0001 </text>
  </g>
</g>
<defs>
  <clipPath id="img-3116e1ba-8">
  <path d="M18.63,86.81 L 174.03 86.81 174.03 133.11 18.63 133.11" />
</clipPath>
  <clipPath id="img-3116e1ba-24">
  <path d="M19.63,10.61 L 198.2 10.61 198.2 56.91 19.63 56.91" />
</clipPath>
</defs>
</svg>
