<?xml version="1.0" encoding="UTF-8"?>
<svg xmlns="http://www.w3.org/2000/svg"
     xmlns:xlink="http://www.w3.org/1999/xlink"
     xmlns:gadfly="http://www.gadflyjl.org/ns"
     version="1.2"
     width="203.2mm" height="152.4mm" viewBox="0 0 203.2 152.4"
     stroke="none"
     fill="#000000"
     stroke-width="0.3"
     font-size="3.88"
>
<g class="plotroot xscalable yscalable" id="img-ffa2e3f0-1">
  <g font-size="3.88" font-family="'PT Sans','Helvetica Neue','Helvetica',sans-serif" fill="#000000" stroke="#000000" stroke-opacity="0.000" id="img-ffa2e3f0-2">
    <text x="96.33" y="140.79" text-anchor="middle" dy="0.6em">number of A_type individuals (bin count = 50)</text>
  </g>
  <g class="guide xlabels" font-size="2.82" font-family="'PT Sans Caption','Helvetica Neue','Helvetica',sans-serif" fill="#000000" id="img-ffa2e3f0-3">
    <text x="20.63" y="134.11" text-anchor="middle" dy="0.6em">0</text>
    <text x="50.91" y="134.11" text-anchor="middle" dy="0.6em">100</text>
    <text x="81.19" y="134.11" text-anchor="middle" dy="0.6em">200</text>
    <text x="111.47" y="134.11" text-anchor="middle" dy="0.6em">300</text>
    <text x="141.75" y="134.11" text-anchor="middle" dy="0.6em">400</text>
    <text x="172.03" y="134.11" text-anchor="middle" dy="0.6em">500</text>
  </g>
  <g class="guide colorkey" id="img-ffa2e3f0-4">
    <g fill="#4C404B" font-size="2.82" font-family="'PT Sans','Helvetica Neue','Helvetica',sans-serif" id="img-ffa2e3f0-5">
      <text x="177.85" y="109.96" dy="0.35em">histogram</text>
      <text x="177.85" y="113.59" dy="0.35em">theoretical curve</text>
    </g>
    <g stroke="#000000" stroke-opacity="0.000" id="img-ffa2e3f0-6">
      <rect x="175.03" y="109.06" width="1.81" height="1.81" fill="#00BFFF"/>
      <rect x="175.03" y="112.68" width="1.81" height="1.81" fill="#FFA500"/>
    </g>
    <g fill="#362A35" font-size="3.88" font-family="'PT Sans','Helvetica Neue','Helvetica',sans-serif" stroke="#000000" stroke-opacity="0.000" id="img-ffa2e3f0-7">
      <text x="175.03" y="106.14">Legend</text>
    </g>
  </g>
<g clip-path="url(#img-ffa2e3f0-8)">
  <g id="img-ffa2e3f0-9">
    <g pointer-events="visible" opacity="1" fill="#FFFFFF" stroke="#000000" stroke-opacity="0.000" class="guide background" id="img-ffa2e3f0-10">
      <rect x="18.63" y="86.81" width="155.4" height="46.3"/>
    </g>
    <g class="guide ygridlines xfixed" stroke-dasharray="0.5,0.5" stroke-width="0.2" stroke="#808080" id="img-ffa2e3f0-11">
      <path fill="none" d="M18.63,131.11 L 174.03 131.11"/>
      <path fill="none" d="M18.63,124.06 L 174.03 124.06"/>
      <path fill="none" d="M18.63,117.01 L 174.03 117.01"/>
      <path fill="none" d="M18.63,109.96 L 174.03 109.96"/>
      <path fill="none" d="M18.63,102.91 L 174.03 102.91"/>
      <path fill="none" d="M18.63,95.86 L 174.03 95.86"/>
      <path fill="none" d="M18.63,88.81 L 174.03 88.81"/>
    </g>
    <g class="guide xgridlines yfixed" stroke-dasharray="0.5,0.5" stroke-width="0.2" stroke="#808080" id="img-ffa2e3f0-12">
      <path fill="none" d="M20.63,86.81 L 20.63 133.11"/>
      <path fill="none" d="M50.91,86.81 L 50.91 133.11"/>
      <path fill="none" d="M81.19,86.81 L 81.19 133.11"/>
      <path fill="none" d="M111.47,86.81 L 111.47 133.11"/>
      <path fill="none" d="M141.75,86.81 L 141.75 133.11"/>
      <path fill="none" d="M172.03,86.81 L 172.03 133.11"/>
    </g>
    <g class="plotpanel" id="img-ffa2e3f0-13">
      <g stroke-width="0.3" fill="#000000" fill-opacity="0.000" class="geometry" stroke-dasharray="none" stroke="#FFA500" id="img-ffa2e3f0-14">
        <path fill="none" d="M21.24,95.86 L 21.85 113.42 22.46 119.27 23.06 122.19 23.67 123.95 24.28 125.12 24.89 125.95 25.5 126.58 26.1 127.07 26.71 127.46 27.32 127.78 27.93 128.04 28.54 128.27 29.14 128.46 29.75 128.62 30.36 128.77 30.97 128.9 31.58 129.01 32.18 129.11 32.79 129.21 33.4 129.29 34.01 129.36 34.62 129.43 35.22 129.5 35.83 129.55 36.44 129.61 37.05 129.66 37.66 129.7 38.26 129.74 38.87 129.78 39.48 129.82 40.09 129.86 40.7 129.89 41.3 129.92 41.91 129.95 42.52 129.97 43.13 130 43.74 130.02 44.35 130.05 44.95 130.07 45.56 130.09 46.17 130.11 46.78 130.13 47.39 130.15 47.99 130.16 48.6 130.18 49.21 130.19 49.82 130.21 50.43 130.22 51.03 130.24 51.64 130.25 52.25 130.26 52.86 130.27 53.47 130.28 54.07 130.3 54.68 130.31 55.29 130.32 55.9 130.33 56.51 130.34 57.11 130.34 57.72 130.35 58.33 130.36 58.94 130.37 59.55 130.38 60.15 130.38 60.76 130.39 61.37 130.4 61.98 130.4 62.59 130.41 63.19 130.42 63.8 130.42 64.41 130.43 65.02 130.43 65.63 130.44 66.23 130.45 66.84 130.45 67.45 130.45 68.06 130.46 68.67 130.46 69.27 130.47 69.88 130.47 70.49 130.48 71.1 130.48 71.71 130.48 72.31 130.49 72.92 130.49 73.53 130.49 74.14 130.5 74.75 130.5 75.36 130.5 75.96 130.51 76.57 130.51 77.18 130.51 77.79 130.51 78.4 130.52 79 130.52 79.61 130.52 80.22 130.52 80.83 130.53 81.44 130.53 82.04 130.53 82.65 130.53 83.26 130.53 83.87 130.54 84.48 130.54 85.08 130.54 85.69 130.54 86.3 130.54 86.91 130.54 87.52 130.54 88.12 130.54 88.73 130.55 89.34 130.55 89.95 130.55 90.56 130.55 91.16 130.55 91.77 130.55 92.38 130.55 92.99 130.55 93.6 130.55 94.2 130.55 94.81 130.55 95.42 130.55 96.03 130.55 96.64 130.55 97.24 130.55 97.85 130.55 98.46 130.55 99.07 130.55 99.68 130.55 100.28 130.55 100.89 130.55 101.5 130.55 102.11 130.55 102.72 130.55 103.32 130.55 103.93 130.55 104.54 130.54 105.15 130.54 105.76 130.54 106.37 130.54 106.97 130.54 107.58 130.54 108.19 130.54 108.8 130.54 109.41 130.53 110.01 130.53 110.62 130.53 111.23 130.53 111.84 130.53 112.45 130.52 113.05 130.52 113.66 130.52 114.27 130.52 114.88 130.51 115.49 130.51 116.09 130.51 116.7 130.51 117.31 130.5 117.92 130.5 118.53 130.5 119.13 130.49 119.74 130.49 120.35 130.49 120.96 130.48 121.57 130.48 122.17 130.48 122.78 130.47 123.39 130.47 124 130.46 124.61 130.46 125.21 130.45 125.82 130.45 126.43 130.45 127.04 130.44 127.65 130.43 128.25 130.43 128.86 130.42 129.47 130.42 130.08 130.41 130.69 130.4 131.29 130.4 131.9 130.39 132.51 130.38 133.12 130.38 133.73 130.37 134.33 130.36 134.94 130.35 135.55 130.34 136.16 130.34 136.77 130.33 137.38 130.32 137.98 130.31 138.59 130.3 139.2 130.28 139.81 130.27 140.42 130.26 141.02 130.25 141.63 130.24 142.24 130.22 142.85 130.21 143.46 130.19 144.06 130.18 144.67 130.16 145.28 130.15 145.89 130.13 146.5 130.11 147.1 130.09 147.71 130.07 148.32 130.05 148.93 130.02 149.54 130 150.14 129.97 150.75 129.95 151.36 129.92 151.97 129.89 152.58 129.86 153.18 129.82 153.79 129.78 154.4 129.74 155.01 129.7 155.62 129.66 156.22 129.61 156.83 129.55 157.44 129.5 158.05 129.43 158.66 129.36 159.26 129.29 159.87 129.21 160.48 129.11 161.09 129.01 161.7 128.9 162.3 128.77 162.91 128.62 163.52 128.46 164.13 128.27 164.74 128.04 165.34 127.78 165.95 127.46 166.56 127.07 167.17 126.58 167.78 125.95 168.39 125.12 168.99 123.95 169.6 122.19 170.21 119.27 170.82 113.42 171.43 95.86"/>
      </g>
      <g stroke-width="0.3" fill="#000000" fill-opacity="0.000" class="geometry" stroke-dasharray="none" stroke="#FFA500" id="img-ffa2e3f0-15">
        <path fill="none" d="M21.24,95.86 L 21.85 113.42 22.46 119.27 23.06 122.19 23.67 123.95 24.28 125.12 24.89 125.95 25.5 126.58 26.1 127.07 26.71 127.46 27.32 127.78 27.93 128.04 28.54 128.27 29.14 128.46 29.75 128.62 30.36 128.77 30.97 128.9 31.58 129.01 32.18 129.11 32.79 129.21 33.4 129.29 34.01 129.36 34.62 129.43 35.22 129.5 35.83 129.55 36.44 129.61 37.05 129.66 37.66 129.7 38.26 129.74 38.87 129.78 39.48 129.82 40.09 129.86 40.7 129.89 41.3 129.92 41.91 129.95 42.52 129.97 43.13 130 43.74 130.02 44.35 130.05 44.95 130.07 45.56 130.09 46.17 130.11 46.78 130.13 47.39 130.15 47.99 130.16 48.6 130.18 49.21 130.19 49.82 130.21 50.43 130.22 51.03 130.24 51.64 130.25 52.25 130.26 52.86 130.27 53.47 130.28 54.07 130.3 54.68 130.31 55.29 130.32 55.9 130.33 56.51 130.34 57.11 130.34 57.72 130.35 58.33 130.36 58.94 130.37 59.55 130.38 60.15 130.38 60.76 130.39 61.37 130.4 61.98 130.4 62.59 130.41 63.19 130.42 63.8 130.42 64.41 130.43 65.02 130.43 65.63 130.44 66.23 130.45 66.84 130.45 67.45 130.45 68.06 130.46 68.67 130.46 69.27 130.47 69.88 130.47 70.49 130.48 71.1 130.48 71.71 130.48 72.31 130.49 72.92 130.49 73.53 130.49 74.14 130.5 74.75 130.5 75.36 130.5 75.96 130.51 76.57 130.51 77.18 130.51 77.79 130.51 78.4 130.52 79 130.52 79.61 130.52 80.22 130.52 80.83 130.53 81.44 130.53 82.04 130.53 82.65 130.53 83.26 130.53 83.87 130.54 84.48 130.54 85.08 130.54 85.69 130.54 86.3 130.54 86.91 130.54 87.52 130.54 88.12 130.54 88.73 130.55 89.34 130.55 89.95 130.55 90.56 130.55 91.16 130.55 91.77 130.55 92.38 130.55 92.99 130.55 93.6 130.55 94.2 130.55 94.81 130.55 95.42 130.55 96.03 130.55 96.64 130.55 97.24 130.55 97.85 130.55 98.46 130.55 99.07 130.55 99.68 130.55 100.28 130.55 100.89 130.55 101.5 130.55 102.11 130.55 102.72 130.55 103.32 130.55 103.93 130.55 104.54 130.54 105.15 130.54 105.76 130.54 106.37 130.54 106.97 130.54 107.58 130.54 108.19 130.54 108.8 130.54 109.41 130.53 110.01 130.53 110.62 130.53 111.23 130.53 111.84 130.53 112.45 130.52 113.05 130.52 113.66 130.52 114.27 130.52 114.88 130.51 115.49 130.51 116.09 130.51 116.7 130.51 117.31 130.5 117.92 130.5 118.53 130.5 119.13 130.49 119.74 130.49 120.35 130.49 120.96 130.48 121.57 130.48 122.17 130.48 122.78 130.47 123.39 130.47 124 130.46 124.61 130.46 125.21 130.45 125.82 130.45 126.43 130.45 127.04 130.44 127.65 130.43 128.25 130.43 128.86 130.42 129.47 130.42 130.08 130.41 130.69 130.4 131.29 130.4 131.9 130.39 132.51 130.38 133.12 130.38 133.73 130.37 134.33 130.36 134.94 130.35 135.55 130.34 136.16 130.34 136.77 130.33 137.38 130.32 137.98 130.31 138.59 130.3 139.2 130.28 139.81 130.27 140.42 130.26 141.02 130.25 141.63 130.24 142.24 130.22 142.85 130.21 143.46 130.19 144.06 130.18 144.67 130.16 145.28 130.15 145.89 130.13 146.5 130.11 147.1 130.09 147.71 130.07 148.32 130.05 148.93 130.02 149.54 130 150.14 129.97 150.75 129.95 151.36 129.92 151.97 129.89 152.58 129.86 153.18 129.82 153.79 129.78 154.4 129.74 155.01 129.7 155.62 129.66 156.22 129.61 156.83 129.55 157.44 129.5 158.05 129.43 158.66 129.36 159.26 129.29 159.87 129.21 160.48 129.11 161.09 129.01 161.7 128.9 162.3 128.77 162.91 128.62 163.52 128.46 164.13 128.27 164.74 128.04 165.34 127.78 165.95 127.46 166.56 127.07 167.17 126.58 167.78 125.95 168.39 125.12 168.99 123.95 169.6 122.19 170.21 119.27 170.82 113.42 171.43 95.86"/>
      </g>
      <g shape-rendering="crispEdges" stroke-width="0.3" id="img-ffa2e3f0-16">
        <g stroke="#000000" stroke-opacity="0.000" fill="#00BFFF" class="geometry" id="img-ffa2e3f0-17">
          <rect x="21.82" y="117.32" width="3.01" height="13.79"/>
          <rect x="24.78" y="131.11" width="3.01" height="0.01"/>
          <rect x="27.74" y="124.22" width="3.01" height="6.9"/>
          <rect x="30.7" y="131.11" width="3.01" height="0.01"/>
          <rect x="33.66" y="110.43" width="3.01" height="20.69"/>
          <rect x="36.62" y="117.32" width="3.01" height="13.79"/>
          <rect x="39.59" y="117.32" width="3.01" height="13.79"/>
          <rect x="42.55" y="110.43" width="3.01" height="20.69"/>
          <rect x="45.51" y="110.43" width="3.01" height="20.69"/>
          <rect x="48.47" y="117.32" width="3.01" height="13.79"/>
          <rect x="51.43" y="110.43" width="3.01" height="20.69"/>
          <rect x="54.39" y="103.53" width="3.01" height="27.58"/>
          <rect x="57.35" y="131.11" width="3.01" height="0.01"/>
          <rect x="60.32" y="117.32" width="3.01" height="13.79"/>
          <rect x="63.28" y="124.22" width="3.01" height="6.9"/>
          <rect x="66.24" y="110.43" width="3.01" height="20.69"/>
          <rect x="69.2" y="124.22" width="3.01" height="6.9"/>
          <rect x="72.16" y="117.32" width="3.01" height="13.79"/>
          <rect x="75.12" y="131.11" width="3.01" height="0.01"/>
          <rect x="78.08" y="103.53" width="3.01" height="27.58"/>
          <rect x="81.05" y="103.53" width="3.01" height="27.58"/>
          <rect x="84.01" y="103.53" width="3.01" height="27.58"/>
          <rect x="86.97" y="124.22" width="3.01" height="6.9"/>
          <rect x="89.93" y="103.53" width="3.01" height="27.58"/>
          <rect x="92.89" y="96.64" width="3.01" height="34.48"/>
          <rect x="95.85" y="131.11" width="3.01" height="0.01"/>
          <rect x="98.81" y="131.11" width="3.01" height="0.01"/>
          <rect x="101.78" y="124.22" width="3.01" height="6.9"/>
          <rect x="104.74" y="124.22" width="3.01" height="6.9"/>
          <rect x="107.7" y="89.74" width="3.01" height="41.37"/>
          <rect x="110.66" y="124.22" width="3.01" height="6.9"/>
          <rect x="113.62" y="124.22" width="3.01" height="6.9"/>
          <rect x="116.58" y="124.22" width="3.01" height="6.9"/>
          <rect x="119.54" y="110.43" width="3.01" height="20.69"/>
          <rect x="122.51" y="117.32" width="3.01" height="13.79"/>
          <rect x="125.47" y="96.64" width="3.01" height="34.48"/>
          <rect x="128.43" y="117.32" width="3.01" height="13.79"/>
          <rect x="131.39" y="117.32" width="3.01" height="13.79"/>
          <rect x="134.35" y="110.43" width="3.01" height="20.69"/>
          <rect x="137.31" y="96.64" width="3.01" height="34.48"/>
          <rect x="140.27" y="117.32" width="3.01" height="13.79"/>
          <rect x="143.24" y="131.11" width="3.01" height="0.01"/>
          <rect x="146.2" y="131.11" width="3.01" height="0.01"/>
          <rect x="149.16" y="131.11" width="3.01" height="0.01"/>
          <rect x="152.12" y="117.32" width="3.01" height="13.79"/>
          <rect x="155.08" y="131.11" width="3.01" height="0.01"/>
          <rect x="158.04" y="124.22" width="3.01" height="6.9"/>
          <rect x="161" y="124.22" width="3.01" height="6.9"/>
          <rect x="163.97" y="110.43" width="3.01" height="20.69"/>
          <rect x="166.93" y="117.32" width="3.01" height="13.79"/>
        </g>
      </g>
    </g>
  </g>
</g>
  <g class="guide ylabels" font-size="2.82" font-family="'PT Sans Caption','Helvetica Neue','Helvetica',sans-serif" fill="#000000" id="img-ffa2e3f0-18">
    <text x="17.63" y="131.11" text-anchor="end" dy="0.35em">0.0</text>
    <text x="17.63" y="124.06" text-anchor="end" dy="0.35em">0.1</text>
    <text x="17.63" y="117.01" text-anchor="end" dy="0.35em">0.2</text>
    <text x="17.63" y="109.96" text-anchor="end" dy="0.35em">0.3</text>
    <text x="17.63" y="102.91" text-anchor="end" dy="0.35em">0.4</text>
    <text x="17.63" y="95.86" text-anchor="end" dy="0.35em">0.5</text>
    <text x="17.63" y="88.81" text-anchor="end" dy="0.35em">0.6</text>
  </g>
  <g font-size="3.88" font-family="'PT Sans','Helvetica Neue','Helvetica',sans-serif" fill="#000000" stroke="#000000" stroke-opacity="0.000" id="img-ffa2e3f0-19">
    <text x="8.81" y="107.96" text-anchor="middle" dy="0.35em" transform="rotate(-90, 8.81, 109.96)">density</text>
  </g>
  <g font-size="3.88" font-family="'PT Sans','Helvetica Neue','Helvetica',sans-serif" fill="#000000" stroke="#000000" stroke-opacity="0.000" id="img-ffa2e3f0-20">
    <text x="96.33" y="81.2" text-anchor="middle" dy="0.6em">Histogram of population in generation 500</text>
  </g>
</g>
<g class="plotroot xscalable yscalable" id="img-ffa2e3f0-21">
  <g font-size="3.88" font-family="'PT Sans','Helvetica Neue','Helvetica',sans-serif" fill="#000000" stroke="#000000" stroke-opacity="0.000" id="img-ffa2e3f0-22">
    <text x="108.92" y="64.59" text-anchor="middle" dy="0.6em">generation number</text>
  </g>
  <g class="guide xlabels" font-size="2.82" font-family="'PT Sans Caption','Helvetica Neue','Helvetica',sans-serif" fill="#000000" id="img-ffa2e3f0-23">
    <text x="21.63" y="57.91" text-anchor="middle" dy="0.6em">0</text>
    <text x="56.55" y="57.91" text-anchor="middle" dy="0.6em">100</text>
    <text x="91.46" y="57.91" text-anchor="middle" dy="0.6em">200</text>
    <text x="126.37" y="57.91" text-anchor="middle" dy="0.6em">300</text>
    <text x="161.29" y="57.91" text-anchor="middle" dy="0.6em">400</text>
    <text x="196.2" y="57.91" text-anchor="middle" dy="0.6em">500</text>
  </g>
<g clip-path="url(#img-ffa2e3f0-24)">
  <g id="img-ffa2e3f0-25">
    <g pointer-events="visible" opacity="1" fill="#FFFFFF" stroke="#000000" stroke-opacity="0.000" class="guide background" id="img-ffa2e3f0-26">
      <rect x="19.63" y="10.61" width="178.57" height="46.3"/>
    </g>
    <g class="guide ygridlines xfixed" stroke-dasharray="0.5,0.5" stroke-width="0.2" stroke="#808080" id="img-ffa2e3f0-27">
      <path fill="none" d="M19.63,54.91 L 198.2 54.91"/>
      <path fill="none" d="M19.63,46.45 L 198.2 46.45"/>
      <path fill="none" d="M19.63,37.99 L 198.2 37.99"/>
      <path fill="none" d="M19.63,29.53 L 198.2 29.53"/>
      <path fill="none" d="M19.63,21.07 L 198.2 21.07"/>
      <path fill="none" d="M19.63,12.61 L 198.2 12.61"/>
    </g>
    <g class="guide xgridlines yfixed" stroke-dasharray="0.5,0.5" stroke-width="0.2" stroke="#808080" id="img-ffa2e3f0-28">
      <path fill="none" d="M21.63,10.61 L 21.63 56.91"/>
      <path fill="none" d="M56.55,10.61 L 56.55 56.91"/>
      <path fill="none" d="M91.46,10.61 L 91.46 56.91"/>
      <path fill="none" d="M126.37,10.61 L 126.37 56.91"/>
      <path fill="none" d="M161.29,10.61 L 161.29 56.91"/>
      <path fill="none" d="M196.2,10.61 L 196.2 56.91"/>
    </g>
    <g class="plotpanel" id="img-ffa2e3f0-29">
      <g stroke-width="0.3" fill="#000000" fill-opacity="0.000" class="geometry" stroke-dasharray="none" stroke="#3288BD" id="img-ffa2e3f0-30">
        <path fill="none" d="M21.98,33.76 L 22.33 34.1 22.68 33.09 23.03 34.69 23.38 33.68 23.73 33 24.08 33.76 24.42 32.66 24.77 33.85 25.12 33.68 25.47 34.36 25.82 34.27 26.17 34.69 26.52 35.03 26.87 35.96 27.22 36.13 27.57 34.52 27.92 34.78 28.27 34.36 28.61 34.02 28.96 34.78 29.31 33.93 29.66 34.19 30.01 33.34 30.36 33.93 30.71 34.19 31.06 34.78 31.41 35.37 31.76 34.19 32.11 33.85 32.45 32.92 32.8 31.9 33.15 33.34 33.5 33.85 33.85 32.83 34.2 33.59 34.55 34.36 34.9 32.24 35.25 32.41 35.6 32.24 35.95 31.39 36.3 31.31 36.64 30.21 36.99 29.53 37.34 29.03 37.69 29.45 38.04 28.86 38.39 29.03 38.74 29.79 39.09 28.35 39.44 28.6 39.79 28.43 40.14 28.52 40.49 30.29 40.83 30.97 41.18 32.07 41.53 32.66 41.88 32.66 42.23 32.75 42.58 33.42 42.93 33.59 43.28 32.92 43.63 33 43.98 32.58 44.33 30.04 44.67 29.87 45.02 31.23 45.37 32.49 45.72 33.09 46.07 33.42 46.42 34.52 46.77 34.52 47.12 34.95 47.47 33.76 47.82 33.51 48.17 33.85 48.52 34.69 48.86 34.44 49.21 35.79 49.56 35.62 49.91 33.68 50.26 33.34 50.61 32.83 50.96 32.16 51.31 30.97 51.66 31.39 52.01 31.65 52.36 31.99 52.7 31.39 53.05 31.14 53.4 31.73 53.75 31.48 54.1 29.87 54.45 30.46 54.8 31.65 55.15 29.45 55.5 29.7 55.85 30.72 56.2 31.06 56.55 30.8 56.89 30.38 57.24 30.13 57.59 31.23 57.94 31.73 58.29 31.31 58.64 33 58.99 34.44 59.34 34.27 59.69 35.2 60.04 35.54 60.39 35.2 60.73 35.37 61.08 36.72 61.43 36.72 61.78 37.66 62.13 34.27 62.48 34.27 62.83 35.79 63.18 36.39 63.53 36.64 63.88 35.2 64.23 33.59 64.58 33.93 64.92 31.9 65.27 34.19 65.62 36.22 65.97 35.88 66.32 35.29 66.67 34.36 67.02 33 67.37 32.24 67.72 33.93 68.07 34.44 68.42 32.16 68.77 32.33 69.11 32.49 69.46 31.56 69.81 31.73 70.16 31.31 70.51 31.99 70.86 30.97 71.21 31.99 71.56 32.75 71.91 32.66 72.26 31.82 72.61 30.8 72.95 30.46 73.3 31.31 73.65 31.23 74 30.55 74.35 31.39 74.7 31.82 75.05 31.65 75.4 31.06 75.75 31.9 76.1 31.56 76.45 31.73 76.8 31.14 77.14 31.23 77.49 32.92 77.84 31.82 78.19 33.68 78.54 32.75 78.89 32.92 79.24 32.41 79.59 31.06 79.94 31.31 80.29 31.73 80.64 31.99 80.98 33 81.33 33.42 81.68 34.95 82.03 35.12 82.38 36.13 82.73 37.15 83.08 38.16 83.43 39.01 83.78 38.59 84.13 38.59 84.48 38.33 84.83 37.82 85.17 39.35 85.52 38.42 85.87 37.4 86.22 35.62 86.57 34.86 86.92 35.03 87.27 33.51 87.62 34.27 87.97 35.03 88.32 36.05 88.67 35.79 89.02 35.37 89.36 36.13 89.71 35.12 90.06 36.81 90.41 37.4 90.76 37.82 91.11 36.22 91.46 35.29 91.81 34.78 92.16 34.1 92.51 33.51 92.86 33.59 93.2 31.99 93.55 32.92 93.9 34.52 94.25 35.37 94.6 35.37 94.95 36.39 95.3 37.74 95.65 38.42 96 38.33 96.35 37.99 96.7 38.84 97.05 40.19 97.39 41.38 97.74 41.63 98.09 42.48 98.44 41.55 98.79 41.04 99.14 43.07 99.49 40.87 99.84 40.87 100.19 41.55 100.54 41.63 100.89 40.87 101.23 42.56 101.58 42.31 101.93 40.36 102.28 41.55 102.63 41.46 102.98 41.12 103.33 41.38 103.68 40.95 104.03 40.36 104.38 41.46 104.73 43.58 105.08 42.99 105.42 42.31 105.77 41.63 106.12 41.97 106.47 43.15 106.82 42.05 107.17 42.31 107.52 42.56 107.87 44.17 108.22 43.49 108.57 44.51 108.92 44.42 109.26 44.51 109.61 44.59 109.96 44.17 110.31 44.68 110.66 45.69 111.01 45.95 111.36 46.37 111.71 46.88 112.06 46.54 112.41 45.61 112.76 45.52 113.11 44.93 113.45 44.68 113.8 44.17 114.15 42.99 114.5 43.24 114.85 43.41 115.2 43.41 115.55 43.75 115.9 44.09 116.25 42.56 116.6 42.82 116.95 42.99 117.3 42.31 117.64 43.41 117.99 43.41 118.34 44 118.69 43.83 119.04 43.15 119.39 42.22 119.74 41.21 120.09 41.72 120.44 40.7 120.79 41.38 121.14 41.12 121.48 40.11 121.83 39.86 122.18 38.42 122.53 37.57 122.88 37.66 123.23 36.72 123.58 36.64 123.93 36.05 124.28 34.69 124.63 34.19 124.98 34.19 125.33 35.37 125.67 35.46 126.02 35.96 126.37 34.36 126.72 35.96 127.07 35.29 127.42 34.61 127.77 36.13 128.12 38.33 128.47 38.08 128.82 37.66 129.17 37.99 129.51 39.01 129.86 39.18 130.21 38.08 130.56 37.82 130.91 37.66 131.26 37.49 131.61 35.79 131.96 34.95 132.31 33.51 132.66 35.03 133.01 35.2 133.36 36.13 133.7 35.46 134.05 34.19 134.4 33.17 134.75 33 135.1 33.26 135.45 31.06 135.8 30.8 136.15 31.65 136.5 31.9 136.85 31.82 137.2 31.82 137.55 32.83 137.89 32.41 138.24 31.56 138.59 33.34 138.94 32.58 139.29 32.92 139.64 32.58 139.99 33.26 140.34 33.85 140.69 34.02 141.04 33.76 141.39 34.19 141.73 33.85 142.08 31.99 142.43 32.66 142.78 32.66 143.13 31.23 143.48 31.99 143.83 32.49 144.18 32.75 144.53 33.26 144.88 31.56 145.23 31.23 145.58 31.82 145.92 32.07 146.27 32.83 146.62 32.33 146.97 34.1 147.32 34.86 147.67 35.71 148.02 34.78 148.37 35.54 148.72 35.96 149.07 36.3 149.42 35.12 149.76 34.19 150.11 32.66 150.46 31.39 150.81 31.06 151.16 30.72 151.51 29.96 151.86 29.19 152.21 28.35 152.56 29.36 152.91 28.69 153.26 28.09 153.61 28.43 153.95 28.69 154.3 27.59 154.65 27.25 155 26.06 155.35 26.15 155.7 27.08 156.05 26.49 156.4 26.57 156.75 27.08 157.1 26.66 157.45 26.4 157.79 28.09 158.14 29.45 158.49 29.7 158.84 30.63 159.19 29.79 159.54 29.62 159.89 28.94 160.24 28.18 160.59 28.86 160.94 29.03 161.29 28.18 161.64 29.36 161.98 27.33 162.33 27.76 162.68 27.76 163.03 27.08 163.38 26.57 163.73 25.64 164.08 25.05 164.43 25.13 164.78 24.71 165.13 25.39 165.48 27.33 165.83 27.16 166.17 28.6 166.52 30.04 166.87 30.04 167.22 29.19 167.57 30.04 167.92 30.38 168.27 31.14 168.62 30.89 168.97 30.97 169.32 31.06 169.67 30.97 170.01 32.83 170.36 33.09 170.71 33.51 171.06 34.95 171.41 35.46 171.76 35.12 172.11 35.96 172.46 36.22 172.81 36.89 173.16 36.56 173.51 35.29 173.86 35.46 174.2 34.86 174.55 34.36 174.9 34.95 175.25 35.79 175.6 36.3 175.95 35.12 176.3 36.3 176.65 36.39 177 38.33 177.35 37.32 177.7 37.57 178.04 38.76 178.39 38.76 178.74 39.86 179.09 39.69 179.44 39.77 179.79 38.25 180.14 39.43 180.49 39.86 180.84 40.02 181.19 37.66 181.54 39.35 181.89 39.09 182.23 39.18 182.58 38.42 182.93 38.33 183.28 37.99 183.63 38.42 183.98 39.26 184.33 38.59 184.68 39.52 185.03 38.42 185.38 37.91 185.73 39.6 186.08 38.84 186.42 37.49 186.77 37.23 187.12 37.57 187.47 37.32 187.82 36.47 188.17 37.66 188.52 36.98 188.87 35.88 189.22 36.39 189.57 37.06 189.92 35.96 190.26 36.05 190.61 35.37 190.96 36.05 191.31 36.47 191.66 35.54 192.01 35.79 192.36 36.81 192.71 36.3 193.06 34.27 193.41 32.58 193.76 32.92 194.11 32.16 194.45 31.06 194.8 33.26 195.15 34.27 195.5 35.29 195.85 37.23 196.2 36.64"/>
      </g>
      <g stroke-width="0.3" fill="#000000" fill-opacity="0.000" class="geometry" stroke-dasharray="none" stroke="#66C2A5" id="img-ffa2e3f0-31">
        <path fill="none" d="M21.98,33.76 L 22.33 31.9 22.68 32.49 23.03 33.17 23.38 34.27 23.73 36.47 24.08 36.39 24.42 36.39 24.77 36.05 25.12 36.05 25.47 35.46 25.82 34.69 26.17 33.26 26.52 33.42 26.87 31.65 27.22 31.99 27.57 31.82 27.92 31.31 28.27 30.72 28.61 30.97 28.96 30.55 29.31 30.97 29.66 29.11 30.01 29.53 30.36 29.36 30.71 28.69 31.06 27.33 31.41 27.84 31.76 26.83 32.11 26.06 32.45 26.74 32.8 26.49 33.15 25.89 33.5 25.39 33.85 25.3 34.2 25.73 34.55 25.56 34.9 26.57 35.25 25.47 35.6 24.46 35.95 25.13 36.3 24.71 36.64 23.7 36.99 22.85 37.34 23.1 37.69 23.27 38.04 22.6 38.39 22.68 38.74 22 39.09 21.66 39.44 20.9 39.79 20.06 40.14 21.75 40.49 21.83 40.83 21.41 41.18 21.07 41.53 20.99 41.88 20.31 42.23 19.63 42.58 19.63 42.93 19.55 43.28 19.38 43.63 18.45 43.98 18.2 44.33 18.03 44.67 18.28 45.02 19.13 45.37 18.11 45.72 19.21 46.07 19.13 46.42 18.96 46.77 19.21 47.12 19.46 47.47 18.87 47.82 19.55 48.17 19.04 48.52 19.3 48.86 19.46 49.21 18.79 49.56 18.03 49.91 18.28 50.26 16.84 50.61 16.17 50.96 17.1 51.31 18.28 51.66 17.94 52.01 17.01 52.36 17.86 52.7 18.62 53.05 18.28 53.4 17.52 53.75 18.28 54.1 18.79 54.45 18.53 54.8 17.86 55.15 18.36 55.5 18.2 55.85 18.11 56.2 19.04 56.55 19.55 56.89 19.46 57.24 19.72 57.59 19.8 57.94 19.72 58.29 18.62 58.64 19.13 58.99 18.28 59.34 19.55 59.69 19.55 60.04 18.96 60.39 18.36 60.73 18.62 61.08 18.7 61.43 18.11 61.78 17.6 62.13 18.11 62.48 17.69 62.83 18.53 63.18 18.79 63.53 17.52 63.88 18.28 64.23 18.79 64.58 18.28 64.92 18.28 65.27 17.6 65.62 17.6 65.97 17.6 66.32 17.35 66.67 17.94 67.02 17.77 67.37 17.77 67.72 18.11 68.07 18.03 68.42 18.11 68.77 18.2 69.11 18.03 69.46 17.01 69.81 16.93 70.16 16.76 70.51 16.33 70.86 16.67 71.21 16.42 71.56 15.83 71.91 15.15 72.26 14.73 72.61 14.22 72.95 14.05 73.3 14.56 73.65 14.73 74 14.64 74.35 15.07 74.7 15.15 75.05 15.83 75.4 16 75.75 16.93 76.1 16.5 76.45 16.59 76.8 16.84 77.14 17.69 77.49 17.18 77.84 16.84 78.19 16.93 78.54 17.52 78.89 17.01 79.24 17.01 79.59 17.6 79.94 17.27 80.29 17.52 80.64 16.84 80.98 17.43 81.33 17.94 81.68 17.94 82.03 17.1 82.38 16.59 82.73 16.76 83.08 16.17 83.43 15.91 83.78 16.5 84.13 16.17 84.48 16 84.83 15.91 85.17 15.49 85.52 16.08 85.87 16.5 86.22 16.84 86.57 17.6 86.92 17.69 87.27 17.1 87.62 17.27 87.97 16.17 88.32 16.08 88.67 15.91 89.02 15.83 89.36 16.17 89.71 15.83 90.06 16.08 90.41 16.76 90.76 16.76 91.11 17.18 91.46 17.86 91.81 18.28 92.16 20.14 92.51 20.65 92.86 21.5 93.2 21.33 93.55 21.92 93.9 22.09 94.25 21.58 94.6 21.24 94.95 20.73 95.3 20.23 95.65 19.63 96 20.56 96.35 20.14 96.7 19.89 97.05 20.14 97.39 20.48 97.74 20.23 98.09 20.4 98.44 20.82 98.79 19.8 99.14 19.3 99.49 20.82 99.84 20.56 100.19 21.33 100.54 19.8 100.89 20.65 101.23 19.97 101.58 19.21 101.93 20.48 102.28 20.06 102.63 19.72 102.98 18.36 103.33 17.6 103.68 18.62 104.03 19.21 104.38 18.45 104.73 18.7 105.08 18.7 105.42 18.7 105.77 17.94 106.12 17.77 106.47 17.77 106.82 18.28 107.17 18.53 107.52 18.87 107.87 18.7 108.22 18.96 108.57 18.96 108.92 18.7 109.26 18.79 109.61 17.86 109.96 17.18 110.31 17.35 110.66 16.17 111.01 16.42 111.36 16.17 111.71 16.42 112.06 16.08 112.41 15.4 112.76 14.64 113.11 14.47 113.45 14.98 113.8 14.73 114.15 14.56 114.5 14.73 114.85 14.22 115.2 14.3 115.55 13.97 115.9 14.39 116.25 14.3 116.6 14.56 116.95 14.56 117.3 14.39 117.64 14.56 117.99 14.47 118.34 15.23 118.69 15.32 119.04 15.49 119.39 15.57 119.74 16.17 120.09 16 120.44 16.59 120.79 15.23 121.14 15.49 121.48 15.57 121.83 14.81 122.18 14.98 122.53 14.64 122.88 14.56 123.23 15.15 123.58 14.56 123.93 14.05 124.28 13.8 124.63 13.63 124.98 13.63 125.33 13.8 125.67 13.71 126.02 13.37 126.37 13.37 126.72 13.29 127.07 13.97 127.42 14.39 127.77 13.88 128.12 13.97 128.47 13.88 128.82 14.22 129.17 14.05 129.51 14.47 129.86 13.97 130.21 13.97 130.56 14.47 130.91 14.05 131.26 13.37 131.61 13.2 131.96 13.46 132.31 13.8 132.66 13.54 133.01 13.88 133.36 13.54 133.7 13.88 134.05 13.97 134.4 13.37 134.75 13.37 135.1 13.29 135.45 13.8 135.8 13.63 136.15 13.71 136.5 13.8 136.85 13.2 137.2 12.78 137.55 12.87 137.89 12.78 138.24 12.78 138.59 12.61 138.94 12.7 139.29 12.95 139.64 13.03 139.99 12.87 140.34 12.95 140.69 12.78 141.04 12.87 141.39 12.95 141.73 13.29 142.08 13.37 142.43 13.29 142.78 13.37 143.13 13.2 143.48 13.46 143.83 13.29 144.18 13.37 144.53 13.37 144.88 12.95 145.23 12.7 145.58 12.95 145.92 13.03 146.27 12.95 146.62 13.03 146.97 12.87 147.32 12.95 147.67 13.12 148.02 13.29 148.37 13.12 148.72 13.2 149.07 13.29 149.42 13.2 149.76 13.12 150.11 13.2 150.46 12.87 150.81 12.78 151.16 13.2 151.51 13.29 151.86 13.54 152.21 13.8 152.56 13.54 152.91 13.71 153.26 13.37 153.61 13.54 153.95 13.63 154.3 13.29 154.65 12.87 155 12.87 155.35 12.87 155.7 12.87 156.05 13.2 156.4 13.63 156.75 13.63 157.1 13.71 157.45 14.05 157.79 14.47 158.14 14.56 158.49 14.64 158.84 14.98 159.19 15.74 159.54 16 159.89 16.84 160.24 15.83 160.59 16.67 160.94 18.2 161.29 18.45 161.64 18.45 161.98 18.2 162.33 18.36 162.68 18.03 163.03 17.94 163.38 17.6 163.73 16.76 164.08 16.25 164.43 16.5 164.78 15.66 165.13 14.73 165.48 14.73 165.83 15.07 166.17 15.15 166.52 14.81 166.87 14.47 167.22 14.73 167.57 14.9 167.92 14.73 168.27 14.47 168.62 14.64 168.97 15.15 169.32 15.23 169.67 15.4 170.01 15.66 170.36 15.91 170.71 16.08 171.06 15.74 171.41 15.4 171.76 14.73 172.11 14.73 172.46 15.23 172.81 15.23 173.16 15.4 173.51 15.4 173.86 15.91 174.2 15.23 174.55 15.4 174.9 15.74 175.25 15.66 175.6 15.32 175.95 14.81 176.3 14.81 176.65 14.9 177 15.83 177.35 15.91 177.7 16.25 178.04 17.35 178.39 17.35 178.74 17.35 179.09 16.67 179.44 16.67 179.79 17.1 180.14 17.35 180.49 17.52 180.84 17.94 181.19 18.7 181.54 16.59 181.89 17.1 182.23 17.18 182.58 17.1 182.93 16.25 183.28 15.91 183.63 15.57 183.98 16.5 184.33 16.5 184.68 15.74 185.03 16.42 185.38 16.5 185.73 16.25 186.08 16.76 186.42 17.94 186.77 18.7 187.12 18.2 187.47 17.77 187.82 16.93 188.17 16.5 188.52 17.1 188.87 15.74 189.22 16.17 189.57 15.15 189.92 15.23 190.26 16.67 190.61 16.17 190.96 15.66 191.31 15.15 191.66 15.49 192.01 14.56 192.36 14.73 192.71 14.47 193.06 14.98 193.41 15.49 193.76 15.74 194.11 16.42 194.45 16.17 194.8 15.74 195.15 15.23 195.5 15.32 195.85 14.47 196.2 14.22"/>
      </g>
      <g stroke-width="0.3" fill="#000000" fill-opacity="0.000" class="geometry" stroke-dasharray="none" stroke="#ABDDA4" id="img-ffa2e3f0-32">
        <path fill="none" d="M21.98,33.76 L 22.33 33.26 22.68 33.26 23.03 34.1 23.38 34.27 23.73 33.59 24.08 34.02 24.42 32.58 24.77 32.75 25.12 33.09 25.47 33.51 25.82 33.09 26.17 33.17 26.52 32.49 26.87 32.83 27.22 34.86 27.57 35.37 27.92 34.95 28.27 34.86 28.61 34.52 28.96 35.46 29.31 34.69 29.66 35.03 30.01 35.71 30.36 35.71 30.71 34.19 31.06 35.62 31.41 35.03 31.76 35.62 32.11 36.05 32.45 34.69 32.8 35.37 33.15 36.47 33.5 34.52 33.85 33.68 34.2 34.52 34.55 35.88 34.9 36.22 35.25 37.23 35.6 36.47 35.95 35.79 36.3 35.88 36.64 36.56 36.99 36.05 37.34 35.37 37.69 34.02 38.04 34.78 38.39 35.2 38.74 35.71 39.09 36.39 39.44 35.54 39.79 36.64 40.14 36.47 40.49 34.69 40.83 34.1 41.18 34.95 41.53 35.12 41.88 35.62 42.23 36.56 42.58 36.64 42.93 37.57 43.28 36.89 43.63 37.06 43.98 37.57 44.33 37.49 44.67 36.98 45.02 36.39 45.37 37.15 45.72 38.33 46.07 38.92 46.42 38.42 46.77 39.01 47.12 40.45 47.47 39.6 47.82 39.43 48.17 39.01 48.52 38.25 48.86 39.26 49.21 38.5 49.56 36.72 49.91 35.37 50.26 35.2 50.61 35.54 50.96 35.29 51.31 34.95 51.66 35.79 52.01 35.62 52.36 36.47 52.7 35.03 53.05 34.95 53.4 34.78 53.75 35.79 54.1 35.12 54.45 35.37 54.8 35.54 55.15 35.29 55.5 34.36 55.85 33.59 56.2 32.58 56.55 32.66 56.89 33.17 57.24 33.17 57.59 35.2 57.94 34.86 58.29 35.29 58.64 35.2 58.99 35.71 59.34 35.88 59.69 34.36 60.04 33.09 60.39 33.85 60.73 35.71 61.08 34.52 61.43 34.1 61.78 31.56 62.13 31.23 62.48 30.21 62.83 31.39 63.18 30.63 63.53 29.45 63.88 28.52 64.23 28.09 64.58 28.35 64.92 28.35 65.27 28.77 65.62 29.87 65.97 31.06 66.32 31.82 66.67 30.04 67.02 30.97 67.37 32.24 67.72 32.07 68.07 30.89 68.42 28.94 68.77 30.04 69.11 28.35 69.46 28.94 69.81 29.28 70.16 29.19 70.51 28.69 70.86 28.18 71.21 27.42 71.56 27.08 71.91 24.8 72.26 24.2 72.61 24.37 72.95 23.95 73.3 23.78 73.65 25.05 74 25.81 74.35 24.8 74.7 23.95 75.05 23.36 75.4 25.64 75.75 25.89 76.1 23.86 76.45 23.02 76.8 22.51 77.14 23.1 77.49 22.09 77.84 22.51 78.19 22.17 78.54 21.33 78.89 22.76 79.24 22.34 79.59 20.56 79.94 19.63 80.29 19.72 80.64 20.06 80.98 21.33 81.33 22 81.68 22.09 82.03 22.43 82.38 22.09 82.73 21.83 83.08 21.92 83.43 21.58 83.78 21.24 84.13 22.17 84.48 21.66 84.83 21.66 85.17 22 85.52 21.5 85.87 21.24 86.22 20.9 86.57 21.33 86.92 22.09 87.27 22.34 87.62 22.43 87.97 21.41 88.32 21.92 88.67 21.75 89.02 21.75 89.36 20.56 89.71 21.07 90.06 20.65 90.41 21.83 90.76 21.41 91.11 20.56 91.46 20.73 91.81 19.63 92.16 20.14 92.51 20.56 92.86 20.48 93.2 19.63 93.55 18.62 93.9 19.63 94.25 19.04 94.6 19.46 94.95 20.65 95.3 21.33 95.65 22.17 96 21.66 96.35 19.89 96.7 20.23 97.05 21.66 97.39 21.33 97.74 20.65 98.09 20.9 98.44 20.23 98.79 21.16 99.14 22 99.49 22.76 99.84 23.27 100.19 23.36 100.54 22.26 100.89 22.6 101.23 23.19 101.58 22.51 101.93 23.36 102.28 23.61 102.63 23.7 102.98 24.03 103.33 23.44 103.68 22.43 104.03 21.83 104.38 20.65 104.73 20.48 105.08 21.33 105.42 23.19 105.77 23.36 106.12 24.2 106.47 23.61 106.82 23.44 107.17 23.86 107.52 24.29 107.87 23.19 108.22 22 108.57 22.34 108.92 22.09 109.26 21.41 109.61 22.26 109.96 23.7 110.31 23.78 110.66 24.54 111.01 25.22 111.36 25.81 111.71 24.96 112.06 24.46 112.41 24.29 112.76 23.61 113.11 24.71 113.45 23.53 113.8 21.75 114.15 21.66 114.5 21.41 114.85 20.82 115.2 21.24 115.55 21.92 115.9 22.17 116.25 22.09 116.6 23.19 116.95 22.26 117.3 22.68 117.64 22 117.99 21.5 118.34 22.51 118.69 21.24 119.04 20.48 119.39 20.82 119.74 20.06 120.09 19.13 120.44 19.8 120.79 20.06 121.14 20.23 121.48 21.24 121.83 20.99 122.18 20.31 122.53 19.8 122.88 20.82 123.23 20.73 123.58 21.5 123.93 21.33 124.28 20.06 124.63 20.65 124.98 21.07 125.33 20.73 125.67 19.38 126.02 20.82 126.37 20.9 126.72 20.14 127.07 20.06 127.42 19.89 127.77 20.14 128.12 20.4 128.47 20.14 128.82 21.16 129.17 21.75 129.51 22.09 129.86 23.7 130.21 23.02 130.56 22.43 130.91 21.58 131.26 20.82 131.61 20.31 131.96 21.07 132.31 21.41 132.66 22 133.01 22.6 133.36 23.27 133.7 23.1 134.05 22.6 134.4 22.85 134.75 22.85 135.1 22.6 135.45 24.12 135.8 23.1 136.15 22.34 136.5 22.68 136.85 22.76 137.2 21.75 137.55 21.75 137.89 21.83 138.24 23.53 138.59 24.29 138.94 24.8 139.29 25.13 139.64 24.46 139.99 23.27 140.34 22.6 140.69 21.83 141.04 21.66 141.39 21.92 141.73 20.82 142.08 19.63 142.43 18.45 142.78 18.96 143.13 19.55 143.48 19.97 143.83 21.41 144.18 21.83 144.53 22.76 144.88 22 145.23 22.68 145.58 23.53 145.92 23.19 146.27 22.76 146.62 23.44 146.97 21.83 147.32 21.16 147.67 19.72 148.02 20.65 148.37 20.48 148.72 19.63 149.07 19.46 149.42 19.21 149.76 19.38 150.11 19.97 150.46 20.14 150.81 20.14 151.16 19.21 151.51 17.6 151.86 16.67 152.21 16.5 152.56 16.59 152.91 16.59 153.26 16.17 153.61 17.35 153.95 16.84 154.3 17.01 154.65 17.52 155 17.69 155.35 16.84 155.7 17.27 156.05 17.43 156.4 16.84 156.75 16.93 157.1 16.59 157.45 16.33 157.79 15.66 158.14 15.91 158.49 16 158.84 16.76 159.19 16.76 159.54 16.67 159.89 16.08 160.24 16.42 160.59 16.42 160.94 16.67 161.29 17.52 161.64 16.25 161.98 17.18 162.33 18.28 162.68 17.94 163.03 18.53 163.38 18.79 163.73 18.11 164.08 18.79 164.43 19.46 164.78 19.63 165.13 19.72 165.48 19.46 165.83 20.23 166.17 20.56 166.52 20.82 166.87 21.66 167.22 20.31 167.57 20.31 167.92 20.9 168.27 22 168.62 20.4 168.97 20.14 169.32 20.65 169.67 20.82 170.01 20.31 170.36 18.7 170.71 18.79 171.06 18.79 171.41 19.63 171.76 19.21 172.11 20.23 172.46 19.8 172.81 19.89 173.16 20.9 173.51 21.66 173.86 21.83 174.2 21.24 174.55 21.66 174.9 20.73 175.25 20.73 175.6 21.33 175.95 19.72 176.3 18.53 176.65 18.53 177 18.62 177.35 18.28 177.7 18.79 178.04 19.63 178.39 20.14 178.74 20.06 179.09 20.06 179.44 19.55 179.79 19.97 180.14 19.89 180.49 21.58 180.84 21.41 181.19 21.16 181.54 20.73 181.89 20.31 182.23 19.89 182.58 19.63 182.93 18.87 183.28 19.89 183.63 20.73 183.98 20.65 184.33 21.24 184.68 21.41 185.03 21.16 185.38 21.41 185.73 19.89 186.08 20.82 186.42 19.72 186.77 20.06 187.12 20.14 187.47 19.46 187.82 17.86 188.17 17.94 188.52 18.62 188.87 18.11 189.22 18.36 189.57 18.28 189.92 18.79 190.26 18.87 190.61 18.53 190.96 18.87 191.31 19.3 191.66 20.65 192.01 20.4 192.36 20.4 192.71 19.55 193.06 19.38 193.41 19.8 193.76 18.11 194.11 18.36 194.45 18.62 194.8 18.62 195.15 18.03 195.5 18.45 195.85 18.79 196.2 18.11"/>
      </g>
      <g stroke-width="0.3" fill="#000000" fill-opacity="0.000" class="geometry" stroke-dasharray="none" stroke="#E6F598" id="img-ffa2e3f0-33">
        <path fill="none" d="M21.98,33.76 L 22.33 33.09 22.68 32.92 23.03 33.68 23.38 34.1 23.73 33.68 24.08 33.76 24.42 34.61 24.77 34.19 25.12 34.86 25.47 34.27 25.82 34.27 26.17 35.03 26.52 35.46 26.87 36.39 27.22 35.88 27.57 34.95 27.92 34.95 28.27 34.95 28.61 33.68 28.96 33.09 29.31 33.34 29.66 33.51 30.01 35.37 30.36 35.37 30.71 36.13 31.06 35.79 31.41 37.06 31.76 38.84 32.11 37.91 32.45 37.66 32.8 36.22 33.15 36.22 33.5 35.79 33.85 35.71 34.2 34.95 34.55 35.46 34.9 37.23 35.25 37.4 35.6 37.57 35.95 37.82 36.3 38.16 36.64 38.92 36.99 37.49 37.34 38.25 37.69 38.42 38.04 37.32 38.39 38.5 38.74 38.33 39.09 39.09 39.44 37.82 39.79 37.15 40.14 37.74 40.49 36.56 40.83 36.13 41.18 35.54 41.53 36.72 41.88 37.57 42.23 38.25 42.58 37.66 42.93 37.57 43.28 38.16 43.63 37.91 43.98 37.23 44.33 37.4 44.67 35.96 45.02 34.52 45.37 33.26 45.72 33 46.07 33.17 46.42 33 46.77 30.8 47.12 32.41 47.47 33.76 47.82 34.61 48.17 34.36 48.52 33.17 48.86 32.66 49.21 31.65 49.56 32.24 49.91 32.66 50.26 32.16 50.61 30.21 50.96 30.13 51.31 31.23 51.66 30.8 52.01 31.73 52.36 31.73 52.7 33.42 53.05 33.17 53.4 34.27 53.75 34.27 54.1 31.56 54.45 31.65 54.8 32.41 55.15 32.66 55.5 32.41 55.85 31.39 56.2 30.72 56.55 30.04 56.89 30.89 57.24 30.72 57.59 31.65 57.94 30.38 58.29 30.13 58.64 29.96 58.99 31.23 59.34 29.62 59.69 27.76 60.04 28.6 60.39 27.84 60.73 27.84 61.08 28.09 61.43 27.84 61.78 27.76 62.13 27.5 62.48 29.28 62.83 30.46 63.18 30.13 63.53 29.79 63.88 30.29 64.23 30.21 64.58 30.21 64.92 30.29 65.27 29.87 65.62 27.16 65.97 28.01 66.32 28.69 66.67 28.26 67.02 29.36 67.37 28.09 67.72 27.84 68.07 28.35 68.42 27.76 68.77 27.33 69.11 27.5 69.46 26.66 69.81 27.67 70.16 27.08 70.51 28.01 70.86 28.26 71.21 28.26 71.56 29.19 71.91 28.94 72.26 29.28 72.61 27.76 72.95 28.18 73.3 27.67 73.65 27.33 74 27.16 74.35 27.59 74.7 28.35 75.05 28.01 75.4 27.93 75.75 27.84 76.1 28.94 76.45 27.08 76.8 27.25 77.14 27.84 77.49 28.18 77.84 27.67 78.19 27.5 78.54 28.94 78.89 29.36 79.24 29.11 79.59 28.52 79.94 29.53 80.29 28.35 80.64 28.94 80.98 29.19 81.33 29.7 81.68 32.49 82.03 31.23 82.38 32.92 82.73 32.92 83.08 33.93 83.43 33.59 83.78 36.72 84.13 34.86 84.48 36.3 84.83 35.96 85.17 35.54 85.52 34.86 85.87 35.46 86.22 34.61 86.57 33.59 86.92 33.26 87.27 34.27 87.62 32.83 87.97 33 88.32 33.17 88.67 33.85 89.02 34.27 89.36 33.59 89.71 32.33 90.06 31.48 90.41 32.07 90.76 31.73 91.11 33.17 91.46 33.51 91.81 32.33 92.16 32.16 92.51 32.07 92.86 31.56 93.2 30.97 93.55 30.46 93.9 30.63 94.25 31.14 94.6 30.97 94.95 30.89 95.3 31.48 95.65 30.46 96 29.87 96.35 30.89 96.7 29.7 97.05 30.89 97.39 29.96 97.74 30.63 98.09 31.39 98.44 31.14 98.79 32.66 99.14 32.83 99.49 34.19 99.84 35.37 100.19 36.47 100.54 34.86 100.89 34.19 101.23 34.69 101.58 33.51 101.93 32.41 102.28 32.07 102.63 33.26 102.98 34.69 103.33 33.42 103.68 33.26 104.03 33.51 104.38 35.12 104.73 35.71 105.08 35.71 105.42 36.89 105.77 36.3 106.12 36.89 106.47 36.89 106.82 36.98 107.17 36.47 107.52 37.57 107.87 37.32 108.22 39.35 108.57 39.52 108.92 39.43 109.26 39.52 109.61 41.46 109.96 41.63 110.31 41.46 110.66 41.38 111.01 40.62 111.36 42.05 111.71 42.73 112.06 42.82 112.41 41.8 112.76 41.72 113.11 42.22 113.45 40.87 113.8 41.21 114.15 41.29 114.5 43.58 114.85 44.51 115.2 44.51 115.55 43.58 115.9 43.32 116.25 44.42 116.6 43.41 116.95 44.09 117.3 44.93 117.64 45.19 117.99 45.61 118.34 46.45 118.69 46.71 119.04 46.96 119.39 45.69 119.74 45.52 120.09 45.52 120.44 44.34 120.79 43.92 121.14 44.42 121.48 42.9 121.83 43.24 122.18 43.58 122.53 43.66 122.88 43.66 123.23 43.75 123.58 44.09 123.93 43.92 124.28 44.25 124.63 44.59 124.98 44.59 125.33 44.93 125.67 44.09 126.02 44.51 126.37 44.09 126.72 44.17 127.07 44.34 127.42 42.56 127.77 41.12 128.12 42.05 128.47 41.8 128.82 40.53 129.17 39.86 129.51 39.01 129.86 40.11 130.21 39.86 130.56 41.55 130.91 42.48 131.26 43.32 131.61 41.97 131.96 42.56 132.31 42.82 132.66 42.73 133.01 43.15 133.36 43.49 133.7 42.48 134.05 42.48 134.4 42.31 134.75 41.72 135.1 39.52 135.45 40.11 135.8 39.69 136.15 39.09 136.5 40.11 136.85 41.55 137.2 42.14 137.55 43.58 137.89 43.66 138.24 43.07 138.59 41.63 138.94 42.22 139.29 40.95 139.64 40.45 139.99 40.62 140.34 40.36 140.69 41.29 141.04 41.12 141.39 42.65 141.73 41.89 142.08 41.04 142.43 41.38 142.78 40.45 143.13 38.84 143.48 40.02 143.83 40.45 144.18 41.97 144.53 43.41 144.88 44.93 145.23 45.19 145.58 46.45 145.92 45.86 146.27 46.62 146.62 46.29 146.97 45.95 147.32 45.61 147.67 45.86 148.02 45.86 148.37 45.35 148.72 45.61 149.07 45.44 149.42 45.27 149.76 44.93 150.11 46.2 150.46 46.03 150.81 44.51 151.16 44.51 151.51 43.66 151.86 44.09 152.21 44.93 152.56 44.85 152.91 45.02 153.26 45.35 153.61 44.59 153.95 43.83 154.3 44.25 154.65 44.34 155 43.41 155.35 42.56 155.7 43.49 156.05 43.49 156.4 43.92 156.75 44.17 157.1 43.66 157.45 44 157.79 45.02 158.14 44.93 158.49 46.79 158.84 46.88 159.19 46.2 159.54 46.2 159.89 46.79 160.24 46.71 160.59 46.37 160.94 45.02 161.29 45.27 161.64 46.29 161.98 45.44 162.33 45.35 162.68 45.44 163.03 45.19 163.38 44.17 163.73 44.42 164.08 44.42 164.43 44.76 164.78 45.19 165.13 44.42 165.48 44.59 165.83 44.85 166.17 45.27 166.52 44 166.87 41.97 167.22 42.22 167.57 42.39 167.92 42.22 168.27 41.29 168.62 40.79 168.97 42.82 169.32 42.56 169.67 42.82 170.01 42.22 170.36 41.55 170.71 41.29 171.06 43.32 171.41 42.65 171.76 43.83 172.11 44 172.46 44.42 172.81 45.69 173.16 46.29 173.51 47.72 173.86 48.32 174.2 47.89 174.55 49.75 174.9 49.58 175.25 48.74 175.6 48.57 175.95 48.15 176.3 49.16 176.65 49.5 177 48.15 177.35 48.23 177.7 47.98 178.04 48.48 178.39 48.91 178.74 48.82 179.09 49.75 179.44 49.84 179.79 48.82 180.14 47.98 180.49 48.65 180.84 48.74 181.19 48.32 181.54 48.4 181.89 48.91 182.23 48.57 182.58 48.23 182.93 48.15 183.28 48.23 183.63 49.58 183.98 50.68 184.33 50.77 184.68 51.11 185.03 50.94 185.38 51.02 185.73 50.94 186.08 50.18 186.42 50.18 186.77 50.85 187.12 50.43 187.47 50.77 187.82 50.43 188.17 51.02 188.52 51.02 188.87 51.11 189.22 50.43 189.57 49.92 189.92 49.67 190.26 50.43 190.61 49.92 190.96 49.33 191.31 48.65 191.66 48.15 192.01 48.74 192.36 49.33 192.71 48.06 193.06 47.72 193.41 47.22 193.76 47.89 194.11 47.64 194.45 47.39 194.8 47.55 195.15 45.95 195.5 46.12 195.85 44.09 196.2 43.41"/>
      </g>
      <g stroke-width="0.3" fill="#000000" fill-opacity="0.000" class="geometry" stroke-dasharray="none" stroke="#FFFFBF" id="img-ffa2e3f0-34">
        <path fill="none" d="M21.98,33.76 L 22.33 33.93 22.68 33 23.03 32.16 23.38 32.24 23.73 34.36 24.08 35.37 24.42 34.95 24.77 35.37 25.12 35.37 25.47 34.69 25.82 35.29 26.17 34.78 26.52 34.36 26.87 34.52 27.22 35.29 27.57 36.47 27.92 36.64 28.27 37.32 28.61 36.72 28.96 36.22 29.31 36.13 29.66 35.03 30.01 34.19 30.36 33.59 30.71 34.61 31.06 34.69 31.41 35.29 31.76 34.52 32.11 33.85 32.45 35.12 32.8 36.56 33.15 38.42 33.5 38.92 33.85 39.86 34.2 38.67 34.55 39.86 34.9 39.94 35.25 39.35 35.6 38.67 35.95 39.09 36.3 37.91 36.64 36.72 36.99 36.13 37.34 35.96 37.69 35.46 38.04 35.29 38.39 34.61 38.74 35.29 39.09 34.1 39.44 34.95 39.79 35.03 40.14 34.1 40.49 34.44 40.83 34.95 41.18 33.93 41.53 33.26 41.88 34.69 42.23 33.85 42.58 33.85 42.93 33.09 43.28 35.71 43.63 35.88 43.98 34.95 44.33 34.69 44.67 34.86 45.02 35.29 45.37 34.61 45.72 35.62 46.07 36.13 46.42 36.81 46.77 36.72 47.12 36.13 47.47 35.37 47.82 35.29 48.17 35.62 48.52 37.32 48.86 37.15 49.21 38.42 49.56 37.82 49.91 38.84 50.26 39.6 50.61 39.01 50.96 38.33 51.31 38.42 51.66 38.08 52.01 38.5 52.36 38.76 52.7 39.86 53.05 38.67 53.4 39.77 53.75 40.7 54.1 41.04 54.45 41.38 54.8 40.36 55.15 40.11 55.5 39.09 55.85 39.6 56.2 41.38 56.55 42.99 56.89 44.17 57.24 43.83 57.59 42.9 57.94 42.48 58.29 41.63 58.64 43.15 58.99 44.09 59.34 44.17 59.69 44.76 60.04 44.09 60.39 45.52 60.73 44.68 61.08 43.92 61.43 44.59 61.78 45.69 62.13 46.29 62.48 46.03 62.83 45.95 63.18 45.27 63.53 45.52 63.88 45.27 64.23 44.85 64.58 45.35 64.92 45.44 65.27 45.95 65.62 44.68 65.97 46.03 66.32 45.35 66.67 45.02 67.02 46.12 67.37 45.1 67.72 46.45 68.07 46.2 68.42 47.13 68.77 47.39 69.11 47.89 69.46 46.79 69.81 47.98 70.16 48.32 70.51 48.06 70.86 48.48 71.21 47.3 71.56 46.88 71.91 46.2 72.26 46.2 72.61 47.22 72.95 48.06 73.3 49.25 73.65 49.42 74 49.08 74.35 49.25 74.7 50.09 75.05 50.01 75.4 50.85 75.75 51.02 76.1 51.19 76.45 51.36 76.8 51.11 77.14 51.53 77.49 51.87 77.84 51.45 78.19 51.95 78.54 52.29 78.89 51.19 79.24 50.35 79.59 50.26 79.94 50.85 80.29 50.6 80.64 51.02 80.98 50.43 81.33 50.6 81.68 50.01 82.03 49.25 82.38 47.89 82.73 49.08 83.08 48.82 83.43 47.81 83.78 47.13 84.13 47.81 84.48 47.47 84.83 46.62 85.17 46.79 85.52 47.47 85.87 46.54 86.22 46.88 86.57 46.54 86.92 46.2 87.27 46.2 87.62 45.78 87.97 44.93 88.32 46.29 88.67 47.3 89.02 46.2 89.36 47.05 89.71 45.35 90.06 44.76 90.41 45.19 90.76 46.29 91.11 45.19 91.46 44 91.81 44.51 92.16 44.59 92.51 44.42 92.86 44.93 93.2 45.52 93.55 45.02 93.9 44.76 94.25 44 94.6 42.9 94.95 43.75 95.3 44.34 95.65 44.09 96 43.75 96.35 45.19 96.7 45.02 97.05 45.61 97.39 47.55 97.74 47.55 98.09 48.82 98.44 49.42 98.79 48.91 99.14 47.64 99.49 46.37 99.84 45.86 100.19 46.2 100.54 47.39 100.89 48.06 101.23 48.57 101.58 47.89 101.93 47.39 102.28 47.39 102.63 46.79 102.98 48.48 103.33 48.65 103.68 48.4 104.03 47.89 104.38 47.72 104.73 48.32 105.08 48.57 105.42 49.67 105.77 49.5 106.12 49.58 106.47 50.01 106.82 50.68 107.17 51.11 107.52 52.12 107.87 51.7 108.22 50.77 108.57 50.68 108.92 51.28 109.26 50.68 109.61 51.19 109.96 50.6 110.31 50.43 110.66 51.78 111.01 51.78 111.36 51.78 111.71 52.12 112.06 52.12 112.41 51.78 112.76 51.28 113.11 51.53 113.45 51.95 113.8 52.72 114.15 53.05 114.5 52.8 114.85 52.72 115.2 52.29 115.55 52.46 115.9 52.29 116.25 51.95 116.6 52.46 116.95 51.45 117.3 52.04 117.64 52.8 117.99 52.55 118.34 52.63 118.69 53.14 119.04 53.39 119.39 52.8 119.74 52.04 120.09 52.29 120.44 52.46 120.79 53.31 121.14 53.39 121.48 53.65 121.83 53.05 122.18 52.88 122.53 52.8 122.88 52.63 123.23 52.12 123.58 51.45 123.93 51.95 124.28 51.45 124.63 50.18 124.98 51.02 125.33 50.77 125.67 50.68 126.02 50.94 126.37 50.43 126.72 51.28 127.07 51.28 127.42 51.53 127.77 51.19 128.12 50.85 128.47 50.68 128.82 50.68 129.17 50.94 129.51 51.87 129.86 52.12 130.21 52.12 130.56 52.46 130.91 52.38 131.26 52.12 131.61 51.36 131.96 50.85 132.31 49.33 132.66 50.43 133.01 49.33 133.36 48.57 133.7 48.48 134.05 49.08 134.4 48.74 134.75 48.99 135.1 49.33 135.45 49.84 135.8 50.26 136.15 51.28 136.5 52.12 136.85 52.04 137.2 51.62 137.55 52.55 137.89 52.55 138.24 52.04 138.59 52.12 138.94 52.63 139.29 52.21 139.64 52.46 139.99 52.46 140.34 51.78 140.69 51.53 141.04 52.8 141.39 52.38 141.73 52.12 142.08 51.62 142.43 51.36 142.78 51.95 143.13 51.7 143.48 52.29 143.83 53.73 144.18 53.73 144.53 53.9 144.88 53.31 145.23 53.56 145.58 53.98 145.92 53.73 146.27 53.39 146.62 53.56 146.97 53.56 147.32 53.73 147.67 53.73 148.02 53.31 148.37 53.14 148.72 53.39 149.07 53.39 149.42 52.63 149.76 52.29 150.11 52.63 150.46 51.62 150.81 51.87 151.16 52.21 151.51 51.95 151.86 51.53 152.21 50.6 152.56 50.52 152.91 50.52 153.26 50.35 153.61 49.5 153.95 50.18 154.3 49.25 154.65 48.99 155 49.33 155.35 49.33 155.7 49.75 156.05 49.5 156.4 49.5 156.75 49.16 157.1 49.42 157.45 48.82 157.79 47.64 158.14 47.89 158.49 48.48 158.84 48.15 159.19 47.98 159.54 48.06 159.89 48.99 160.24 49.92 160.59 50.35 160.94 51.02 161.29 51.78 161.64 51.36 161.98 51.19 162.33 51.45 162.68 51.45 163.03 51.62 163.38 50.26 163.73 50.52 164.08 51.36 164.43 51.45 164.78 50.6 165.13 51.45 165.48 51.36 165.83 50.43 166.17 50.35 166.52 51.19 166.87 50.6 167.22 50.26 167.57 50.68 167.92 49.75 168.27 49.42 168.62 50.09 168.97 49.58 169.32 49.67 169.67 49.5 170.01 49.5 170.36 49.92 170.71 51.28 171.06 50.52 171.41 50.18 171.76 49.5 172.11 49.25 172.46 49.75 172.81 49.42 173.16 48.99 173.51 48.74 173.86 47.64 174.2 45.78 174.55 45.52 174.9 45.1 175.25 45.44 175.6 45.35 175.95 45.78 176.3 44.76 176.65 45.52 177 45.27 177.35 45.19 177.7 44.51 178.04 43.49 178.39 44 178.74 45.27 179.09 46.12 179.44 47.55 179.79 47.55 180.14 47.05 180.49 46.96 180.84 47.81 181.19 47.64 181.54 47.81 181.89 47.39 182.23 47.55 182.58 48.15 182.93 48.32 183.28 48.23 183.63 48.48 183.98 48.65 184.33 49.25 184.68 48.57 185.03 48.06 185.38 48.65 185.73 49.33 186.08 49.5 186.42 49.33 186.77 49.33 187.12 48.57 187.47 49.33 187.82 48.74 188.17 48.15 188.52 47.81 188.87 46.88 189.22 47.05 189.57 45.61 189.92 45.86 190.26 46.54 190.61 47.13 190.96 47.22 191.31 47.47 191.66 48.23 192.01 48.48 192.36 49.42 192.71 49.08 193.06 48.91 193.41 48.82 193.76 49.33 194.11 49.84 194.45 50.18 194.8 50.68 195.15 49.92 195.5 49.67 195.85 49.25 196.2 48.32"/>
      </g>
      <g stroke-width="0.3" fill="#000000" fill-opacity="0.000" class="geometry" stroke-dasharray="none" stroke="#FEE08B" id="img-ffa2e3f0-35">
        <path fill="none" d="M21.98,33.76 L 22.33 33.26 22.68 33.34 23.03 34.86 23.38 36.64 23.73 37.23 24.08 36.72 24.42 36.47 24.77 36.56 25.12 35.54 25.47 35.54 25.82 34.69 26.17 36.47 26.52 36.22 26.87 36.81 27.22 35.54 27.57 36.3 27.92 36.72 28.27 39.01 28.61 38.76 28.96 39.01 29.31 39.43 29.66 37.82 30.01 37.32 30.36 37.49 30.71 37.66 31.06 36.98 31.41 37.32 31.76 36.89 32.11 37.06 32.45 36.39 32.8 37.23 33.15 38.76 33.5 38.92 33.85 37.06 34.2 36.72 34.55 37.15 34.9 36.72 35.25 35.88 35.6 36.3 35.95 36.56 36.3 36.39 36.64 37.06 36.99 36.05 37.34 38.33 37.69 38.67 38.04 39.69 38.39 37.82 38.74 36.64 39.09 36.81 39.44 35.79 39.79 35.46 40.14 35.03 40.49 36.39 40.83 37.06 41.18 37.4 41.53 36.72 41.88 36.47 42.23 36.3 42.58 36.05 42.93 36.56 43.28 36.72 43.63 36.47 43.98 35.03 44.33 35.88 44.67 35.71 45.02 35.88 45.37 35.29 45.72 35.37 46.07 35.12 46.42 33.68 46.77 32.92 47.12 33.85 47.47 33.51 47.82 33.68 48.17 33.51 48.52 32.49 48.86 33.17 49.21 32.83 49.56 32.07 49.91 31.14 50.26 31.48 50.61 31.48 50.96 33 51.31 34.86 51.66 34.19 52.01 33.51 52.36 33 52.7 34.44 53.05 35.29 53.4 34.95 53.75 34.19 54.1 34.1 54.45 33.68 54.8 34.02 55.15 35.29 55.5 35.03 55.85 34.78 56.2 35.96 56.55 37.4 56.89 37.91 57.24 38.76 57.59 38.76 57.94 40.11 58.29 41.12 58.64 40.36 58.99 40.45 59.34 40.02 59.69 40.45 60.04 40.11 60.39 40.45 60.73 40.45 61.08 41.04 61.43 41.63 61.78 39.09 62.13 38.16 62.48 38.08 62.83 37.91 63.18 36.98 63.53 35.03 63.88 35.88 64.23 35.03 64.58 35.88 64.92 35.03 65.27 35.12 65.62 33.93 65.97 33.34 66.32 33.76 66.67 34.78 67.02 35.88 67.37 34.69 67.72 34.27 68.07 35.37 68.42 37.32 68.77 36.72 69.11 36.89 69.46 36.72 69.81 38.16 70.16 37.74 70.51 38.16 70.86 37.82 71.21 39.86 71.56 39.52 71.91 39.01 72.26 39.18 72.61 37.91 72.95 37.4 73.3 36.98 73.65 37.57 74 38.5 74.35 38.67 74.7 39.26 75.05 38.25 75.4 38.42 75.75 38.25 76.1 37.66 76.45 37.82 76.8 37.99 77.14 39.35 77.49 39.01 77.84 38.67 78.19 39.43 78.54 39.01 78.89 39.01 79.24 37.82 79.59 39.01 79.94 39.94 80.29 39.6 80.64 40.62 80.98 39.69 81.33 39.77 81.68 39.6 82.03 40.36 82.38 41.12 82.73 40.11 83.08 39.6 83.43 38.84 83.78 39.43 84.13 40.19 84.48 38.84 84.83 39.94 85.17 39.09 85.52 38.42 85.87 39.35 86.22 40.7 86.57 40.53 86.92 40.02 87.27 40.62 87.62 39.94 87.97 39.52 88.32 40.62 88.67 39.69 89.02 39.35 89.36 39.6 89.71 39.52 90.06 39.77 90.41 39.26 90.76 39.35 91.11 38.92 91.46 37.99 91.81 37.49 92.16 35.12 92.51 34.44 92.86 33.17 93.2 34.1 93.55 33.93 93.9 33.85 94.25 34.52 94.6 34.44 94.95 35.71 95.3 35.79 95.65 35.79 96 36.39 96.35 36.72 96.7 36.05 97.05 36.47 97.39 37.06 97.74 38.5 98.09 38.84 98.44 39.09 98.79 39.26 99.14 39.26 99.49 38.42 99.84 39.01 100.19 39.43 100.54 39.86 100.89 40.02 101.23 38.67 101.58 36.64 101.93 37.4 102.28 37.91 102.63 39.43 102.98 39.69 103.33 39.86 103.68 39.6 104.03 39.35 104.38 40.19 104.73 38.67 105.08 39.52 105.42 41.29 105.77 42.05 106.12 40.53 106.47 41.72 106.82 41.04 107.17 39.6 107.52 41.89 107.87 42.05 108.22 41.55 108.57 41.89 108.92 41.89 109.26 43.32 109.61 44.42 109.96 43.92 110.31 43.92 110.66 43.75 111.01 42.82 111.36 42.82 111.71 43.58 112.06 44.51 112.41 44.25 112.76 44.25 113.11 44.51 113.45 45.19 113.8 45.35 114.15 45.19 114.5 45.78 114.85 45.69 115.2 46.88 115.55 46.37 115.9 47.3 116.25 47.98 116.6 48.74 116.95 49.58 117.3 49.25 117.64 49.67 117.99 49.42 118.34 50.09 118.69 50.35 119.04 49.84 119.39 50.68 119.74 49.92 120.09 50.6 120.44 49.42 120.79 49.92 121.14 50.09 121.48 49.58 121.83 48.99 122.18 48.65 122.53 48.57 122.88 48.15 123.23 47.3 123.58 45.27 123.93 42.99 124.28 43.58 124.63 43.41 124.98 42.65 125.33 42.82 125.67 42.73 126.02 41.55 126.37 41.97 126.72 41.46 127.07 40.79 127.42 39.35 127.77 39.26 128.12 39.35 128.47 38.76 128.82 39.6 129.17 38.67 129.51 39.69 129.86 40.36 130.21 40.19 130.56 40.11 130.91 39.52 131.26 40.19 131.61 39.77 131.96 40.95 132.31 41.89 132.66 41.29 133.01 40.36 133.36 40.7 133.7 39.94 134.05 38.67 134.4 39.35 134.75 38.92 135.1 40.45 135.45 40.87 135.8 41.55 136.15 41.21 136.5 41.46 136.85 42.48 137.2 43.58 137.55 43.32 137.89 42.99 138.24 43.32 138.59 43.75 138.94 43.75 139.29 42.82 139.64 42.9 139.99 43.58 140.34 40.79 140.69 40.87 141.04 40.7 141.39 40.95 141.73 41.8 142.08 41.12 142.43 40.79 142.78 41.55 143.13 40.95 143.48 39.86 143.83 40.87 144.18 41.8 144.53 41.72 144.88 42.99 145.23 42.05 145.58 41.97 145.92 41.97 146.27 43.24 146.62 42.22 146.97 42.99 147.32 42.48 147.67 40.79 148.02 40.28 148.37 41.97 148.72 41.04 149.07 40.53 149.42 40.45 149.76 40.87 150.11 39.26 150.46 39.6 150.81 40.36 151.16 39.26 151.51 39.94 151.86 41.55 152.21 41.72 152.56 42.22 152.91 41.55 153.26 42.39 153.61 41.46 153.95 41.89 154.3 40.62 154.65 39.35 155 39.01 155.35 38.08 155.7 38.92 156.05 39.52 156.4 39.94 156.75 38.76 157.1 40.19 157.45 41.38 157.79 41.04 158.14 41.97 158.49 42.82 158.84 41.89 159.19 41.72 159.54 41.46 159.89 42.73 160.24 42.99 160.59 41.89 160.94 42.56 161.29 42.05 161.64 41.55 161.98 43.41 162.33 42.56 162.68 42.31 163.03 42.14 163.38 41.63 163.73 43.07 164.08 42.31 164.43 41.38 164.78 41.63 165.13 42.82 165.48 43.58 165.83 43.75 166.17 42.99 166.52 42.65 166.87 42.31 167.22 42.39 167.57 42.22 167.92 42.48 168.27 41.63 168.62 40.62 168.97 42.05 169.32 41.21 169.67 42.39 170.01 42.65 170.36 41.21 170.71 40.53 171.06 40.28 171.41 39.94 171.76 40.95 172.11 41.04 172.46 41.29 172.81 41.29 173.16 41.46 173.51 42.99 173.86 42.48 174.2 42.05 174.55 43.32 174.9 44.76 175.25 44.17 175.6 43.07 175.95 42.22 176.3 42.05 176.65 42.82 177 42.9 177.35 41.97 177.7 40.79 178.04 41.55 178.39 40.79 178.74 40.62 179.09 40.45 179.44 42.48 179.79 43.07 180.14 42.39 180.49 41.63 180.84 41.72 181.19 41.8 181.54 41.55 181.89 39.6 182.23 39.35 182.58 39.01 182.93 40.36 183.28 40.87 183.63 42.22 183.98 42.05 184.33 40.79 184.68 40.7 185.03 42.05 185.38 42.65 185.73 42.82 186.08 41.97 186.42 42.05 186.77 40.62 187.12 40.02 187.47 41.72 187.82 42.48 188.17 43.32 188.52 44 188.87 41.97 189.22 42.73 189.57 42.56 189.92 41.8 190.26 42.39 190.61 42.56 190.96 43.58 191.31 42.39 191.66 41.89 192.01 42.39 192.36 42.22 192.71 41.72 193.06 41.97 193.41 42.39 193.76 41.63 194.11 40.7 194.45 40.28 194.8 39.94 195.15 40.79 195.5 41.29 195.85 40.79 196.2 42.05"/>
      </g>
      <g stroke-width="0.3" fill="#000000" fill-opacity="0.000" class="geometry" stroke-dasharray="none" stroke="#FDAE61" id="img-ffa2e3f0-36">
        <path fill="none" d="M21.98,33.76 L 22.33 34.1 22.68 34.44 23.03 35.62 23.38 35.03 23.73 35.62 24.08 35.03 24.42 34.78 24.77 36.3 25.12 34.95 25.47 33.51 25.82 32.24 26.17 31.31 26.52 30.72 26.87 31.9 27.22 32.49 27.57 32.66 27.92 31.82 28.27 31.82 28.61 30.97 28.96 28.26 29.31 28.86 29.66 28.86 30.01 28.26 30.36 28.26 30.71 28.43 31.06 29.45 31.41 29.53 31.76 29.87 32.11 27.76 32.45 28.69 32.8 29.7 33.15 29.11 33.5 30.13 33.85 30.63 34.2 31.23 34.55 32.16 34.9 33.09 35.25 32.58 35.6 31.14 35.95 29.96 36.3 30.72 36.64 30.13 36.99 30.97 37.34 31.39 37.69 31.56 38.04 31.56 38.39 31.56 38.74 31.56 39.09 31.82 39.44 31.99 39.79 31.39 40.14 31.14 40.49 30.72 40.83 29.96 41.18 28.94 41.53 29.7 41.88 30.13 42.23 30.89 42.58 31.82 42.93 32.07 43.28 32.66 43.63 32.66 43.98 31.56 44.33 31.56 44.67 32.66 45.02 32.75 45.37 32.83 45.72 33 46.07 32.16 46.42 32.66 46.77 31.99 47.12 32.16 47.47 31.48 47.82 31.9 48.17 32.58 48.52 32.83 48.86 33.85 49.21 33.76 49.56 34.44 49.91 36.22 50.26 35.88 50.61 36.64 50.96 37.15 51.31 36.89 51.66 36.39 52.01 37.32 52.36 37.82 52.7 36.89 53.05 37.23 53.4 35.71 53.75 36.81 54.1 36.05 54.45 36.98 54.8 36.13 55.15 36.3 55.5 35.71 55.85 34.95 56.2 36.05 56.55 35.88 56.89 35.37 57.24 37.74 57.59 39.43 57.94 39.52 58.29 39.18 58.64 38.67 58.99 36.47 59.34 37.32 59.69 37.06 60.04 38.76 60.39 38.16 60.73 37.23 61.08 38.16 61.43 39.09 61.78 37.74 62.13 37.4 62.48 38.5 62.83 37.06 63.18 37.82 63.53 35.54 63.88 35.54 64.23 35.62 64.58 35.12 64.92 35.12 65.27 35.54 65.62 36.3 65.97 34.95 66.32 36.3 66.67 36.3 67.02 36.81 67.37 36.72 67.72 35.46 68.07 35.03 68.42 35.79 68.77 36.81 69.11 36.81 69.46 37.66 69.81 37.57 70.16 37.82 70.51 37.49 70.86 36.22 71.21 36.22 71.56 36.3 71.91 36.98 72.26 36.98 72.61 37.82 72.95 37.82 73.3 38.25 73.65 38.84 74 39.01 74.35 37.15 74.7 35.88 75.05 35.71 75.4 35.96 75.75 34.44 76.1 32.24 76.45 31.14 76.8 31.14 77.14 32.33 77.49 32.75 77.84 32.41 78.19 32.16 78.54 33.34 78.89 33.42 79.24 32.92 79.59 31.99 79.94 31.14 80.29 30.29 80.64 29.7 80.98 30.38 81.33 29.45 81.68 28.01 82.03 28.6 82.38 26.99 82.73 26.32 83.08 26.4 83.43 25.13 83.78 25.56 84.13 25.89 84.48 25.22 84.83 24.71 85.17 23.7 85.52 24.12 85.87 24.37 86.22 25.81 86.57 25.64 86.92 24.2 87.27 25.13 87.62 25.39 87.97 26.15 88.32 24.88 88.67 25.22 89.02 25.64 89.36 24.88 89.71 24.88 90.06 25.13 90.41 25.64 90.76 26.06 91.11 25.73 91.46 25.56 91.81 24.88 92.16 24.54 92.51 23.36 92.86 22.43 93.2 20.82 93.55 21.07 93.9 20.31 94.25 20.9 94.6 20.82 94.95 19.89 95.3 19.38 95.65 21.07 96 21.58 96.35 21.58 96.7 21.41 97.05 21.16 97.39 20.31 97.74 19.89 98.09 18.7 98.44 17.94 98.79 17.6 99.14 18.36 99.49 18.03 99.84 19.04 100.19 19.04 100.54 18.36 100.89 19.38 101.23 20.14 101.58 20.56 101.93 21.58 102.28 20.65 102.63 19.8 102.98 19.46 103.33 19.04 103.68 19.04 104.03 18.96 104.38 19.38 104.73 20.23 105.08 20.31 105.42 19.46 105.77 19.89 106.12 20.9 106.47 20.82 106.82 20.4 107.17 20.65 107.52 20.99 107.87 20.9 108.22 20.31 108.57 21.66 108.92 22 109.26 21.07 109.61 21.24 109.96 21.41 110.31 21.75 110.66 21.33 111.01 19.97 111.36 20.06 111.71 19.13 112.06 17.43 112.41 18.87 112.76 18.11 113.11 18.03 113.45 18.2 113.8 16.76 114.15 15.4 114.5 15.32 114.85 15.32 115.2 15.49 115.55 15.4 115.9 15.23 116.25 15.74 116.6 15.57 116.95 16.59 117.3 17.1 117.64 17.35 117.99 17.69 118.34 17.6 118.69 17.1 119.04 17.77 119.39 17.1 119.74 17.86 120.09 18.62 120.44 17.77 120.79 17.01 121.14 16.67 121.48 16.08 121.83 15.83 122.18 14.81 122.53 14.9 122.88 15.4 123.23 15.74 123.58 15.66 123.93 15.66 124.28 15.4 124.63 14.9 124.98 14.81 125.33 14.3 125.67 14.05 126.02 14.05 126.37 13.88 126.72 13.63 127.07 13.97 127.42 14.22 127.77 14.64 128.12 14.81 128.47 14.81 128.82 15.32 129.17 15.23 129.51 15.57 129.86 16 130.21 15.15 130.56 14.56 130.91 14.39 131.26 14.64 131.61 15.07 131.96 15.49 132.31 15.74 132.66 16.84 133.01 17.86 133.36 18.03 133.7 18.53 134.05 18.62 134.4 18.96 134.75 19.13 135.1 19.3 135.45 19.13 135.8 21.33 136.15 21.33 136.5 21.16 136.85 20.9 137.2 20.99 137.55 19.38 137.89 17.86 138.24 17.18 138.59 16.25 138.94 16.08 139.29 16.84 139.64 16.25 139.99 15.23 140.34 15.66 140.69 15.23 141.04 15.57 141.39 16.17 141.73 16.59 142.08 16.5 142.43 16.42 142.78 17.18 143.13 16.84 143.48 16.76 143.83 17.1 144.18 17.43 144.53 18.87 144.88 18.28 145.23 18.45 145.58 19.89 145.92 20.82 146.27 21.07 146.62 20.9 146.97 20.82 147.32 21.16 147.67 21.16 148.02 20.4 148.37 21.33 148.72 21.5 149.07 22 149.42 21.83 149.76 22.68 150.11 21.41 150.46 22 150.81 21.33 151.16 20.14 151.51 20.4 151.86 21.75 152.21 22.6 152.56 23.1 152.91 23.7 153.26 23.27 153.61 22.09 153.95 22 154.3 21.5 154.65 21.58 155 21.24 155.35 21.24 155.7 22.85 156.05 22.34 156.4 22.51 156.75 22.68 157.1 22 157.45 22.76 157.79 23.86 158.14 25.05 158.49 26.06 158.84 26.83 159.19 27.08 159.54 28.35 159.89 27.84 160.24 28.43 160.59 26.49 160.94 25.3 161.29 26.57 161.64 25.89 161.98 25.73 162.33 26.66 162.68 27.5 163.03 28.18 163.38 27.76 163.73 26.49 164.08 26.06 164.43 24.96 164.78 24.71 165.13 23.44 165.48 23.7 165.83 23.44 166.17 23.02 166.52 22.93 166.87 23.02 167.22 23.36 167.57 24.63 167.92 24.88 168.27 24.46 168.62 24.88 168.97 23.95 169.32 24.71 169.67 25.47 170.01 24.88 170.36 24.88 170.71 24.12 171.06 23.02 171.41 22.43 171.76 22.93 172.11 22.85 172.46 22.43 172.81 22.85 173.16 23.1 173.51 21.92 173.86 23.19 174.2 23.36 174.55 22.93 174.9 23.02 175.25 21.92 175.6 21.58 175.95 21.58 176.3 20.73 176.65 20.48 177 21.41 177.35 21.66 177.7 21.83 178.04 21.92 178.39 21.33 178.74 20.73 179.09 22.85 179.44 22.43 179.79 20.31 180.14 19.63 180.49 19.97 180.84 19.63 181.19 19.04 181.54 18.87 181.89 19.46 182.23 20.06 182.58 20.99 182.93 20.48 183.28 20.06 183.63 20.4 183.98 20.4 184.33 19.21 184.68 20.06 185.03 19.21 185.38 19.04 185.73 19.55 186.08 19.13 186.42 19.46 186.77 18.53 187.12 19.63 187.47 20.99 187.82 20.48 188.17 20.56 188.52 19.63 188.87 20.56 189.22 21.16 189.57 20.65 189.92 20.9 190.26 20.73 190.61 21.58 190.96 22.43 191.31 23.02 191.66 22.68 192.01 22.17 192.36 21.24 192.71 22.26 193.06 22.34 193.41 21.41 193.76 21.33 194.11 21.58 194.45 22.85 194.8 22.09 195.15 22.17 195.5 22.34 195.85 20.99 196.2 21.33"/>
      </g>
      <g stroke-width="0.3" fill="#000000" fill-opacity="0.000" class="geometry" stroke-dasharray="none" stroke="#F46D43" id="img-ffa2e3f0-37">
        <path fill="none" d="M21.98,33.76 L 22.33 33.59 22.68 34.95 23.03 35.12 23.38 35.12 23.73 34.78 24.08 34.27 24.42 34.52 24.77 34.44 25.12 34.02 25.47 35.12 25.82 36.3 26.17 37.23 26.52 38.08 26.87 39.43 27.22 39.26 27.57 37.99 27.92 39.77 28.27 40.02 28.61 40.95 28.96 38.42 29.31 36.13 29.66 35.79 30.01 36.13 30.36 35.12 30.71 34.27 31.06 35.37 31.41 36.98 31.76 36.3 32.11 34.95 32.45 35.62 32.8 35.03 33.15 35.46 33.5 35.37 33.85 37.66 34.2 39.35 34.55 38.84 34.9 39.18 35.25 40.45 35.6 39.77 35.95 40.53 36.3 38.42 36.64 37.49 36.99 37.06 37.34 36.47 37.69 36.05 38.04 37.57 38.39 37.32 38.74 36.47 39.09 38.16 39.44 38.42 39.79 38.59 40.14 40.19 40.49 39.52 40.83 39.52 41.18 39.77 41.53 40.19 41.88 40.36 42.23 40.11 42.58 39.86 42.93 40.53 43.28 40.79 43.63 40.62 43.98 40.87 44.33 38.92 44.67 39.43 45.02 40.87 45.37 40.62 45.72 40.79 46.07 40.87 46.42 41.38 46.77 41.46 47.12 39.43 47.47 37.49 47.82 34.69 48.17 33.59 48.52 33.51 48.86 35.12 49.21 35.54 49.56 36.72 49.91 36.56 50.26 36.22 50.61 36.3 50.96 35.37 51.31 34.1 51.66 34.86 52.01 33.85 52.36 35.37 52.7 34.36 53.05 35.29 53.4 36.13 53.75 36.39 54.1 35.62 54.45 35.46 54.8 36.39 55.15 37.32 55.5 37.15 55.85 36.89 56.2 35.88 56.55 36.05 56.89 35.29 57.24 34.69 57.59 32.07 57.94 30.29 58.29 30.38 58.64 29.45 58.99 30.21 59.34 32.33 59.69 34.27 60.04 32.75 60.39 33.76 60.73 32.75 61.08 31.73 61.43 32.41 61.78 32.16 62.13 33 62.48 32.75 62.83 32.33 63.18 31.99 63.53 32.16 63.88 32.75 64.23 32.33 64.58 32.75 64.92 32.07 65.27 30.38 65.62 30.21 65.97 31.14 66.32 31.82 66.67 31.73 67.02 31.73 67.37 30.21 67.72 32.24 68.07 31.82 68.42 31.23 68.77 31.73 69.11 32.07 69.46 31.48 69.81 31.56 70.16 30.89 70.51 30.38 70.86 29.19 71.21 30.29 71.56 29.45 71.91 28.43 72.26 28.01 72.61 28.26 72.95 29.62 73.3 29.62 73.65 29.45 74 30.29 74.35 30.8 74.7 30.04 75.05 29.19 75.4 29.03 75.75 30.21 76.1 30.29 76.45 31.31 76.8 31.14 77.14 30.8 77.49 29.62 77.84 29.36 78.19 28.35 78.54 28.09 78.89 29.53 79.24 27.76 79.59 27.16 79.94 27.16 80.29 25.98 80.64 25.47 80.98 24.71 81.33 24.37 81.68 24.03 82.03 23.78 82.38 25.22 82.73 24.37 83.08 23.95 83.43 22.93 83.78 22.17 84.13 22.6 84.48 22.26 84.83 20.99 85.17 21.83 85.52 22.43 85.87 22.76 86.22 22.76 86.57 21.33 86.92 19.89 87.27 19.13 87.62 20.48 87.97 20.14 88.32 20.73 88.67 21.07 89.02 19.3 89.36 20.06 89.71 20.73 90.06 20.14 90.41 20.23 90.76 19.8 91.11 20.23 91.46 20.48 91.81 20.48 92.16 20.56 92.51 20.73 92.86 21.33 93.2 21.92 93.55 23.61 93.9 21.5 94.25 22.43 94.6 22.09 94.95 20.99 95.3 20.9 95.65 20.82 96 20.48 96.35 20.82 96.7 20.99 97.05 20.82 97.39 19.89 97.74 19.46 98.09 18.79 98.44 18.11 98.79 18.79 99.14 19.46 99.49 19.97 99.84 18.96 100.19 19.21 100.54 20.4 100.89 19.72 101.23 19.72 101.58 20.4 101.93 20.4 102.28 21.83 102.63 23.36 102.98 22 103.33 21.5 103.68 21.07 104.03 20.4 104.38 22 104.73 23.19 105.08 24.03 105.42 24.12 105.77 24.29 106.12 24.71 106.47 24.12 106.82 23.78 107.17 24.12 107.52 23.36 107.87 22.93 108.22 23.78 108.57 25.13 108.92 23.1 109.26 22.51 109.61 22.34 109.96 23.44 110.31 23.02 110.66 24.2 111.01 24.37 111.36 24.46 111.71 25.64 112.06 25.81 112.41 26.4 112.76 26.06 113.11 25.47 113.45 25.64 113.8 25.56 114.15 26.4 114.5 24.03 114.85 25.05 115.2 26.57 115.55 26.66 115.9 26.91 116.25 25.05 116.6 26.32 116.95 26.23 117.3 25.89 117.64 26.23 117.99 25.73 118.34 25.98 118.69 25.13 119.04 25.22 119.39 24.88 119.74 25.81 120.09 26.06 120.44 27.93 120.79 27.76 121.14 28.69 121.48 26.99 121.83 27.33 122.18 26.23 122.53 26.66 122.88 26.74 123.23 26.74 123.58 28.09 123.93 28.18 124.28 29.19 124.63 29.53 124.98 27.93 125.33 28.69 125.67 26.91 126.02 27.76 126.37 27.67 126.72 27.5 127.07 25.89 127.42 25.73 127.77 25.73 128.12 27.42 128.47 27.59 128.82 26.06 129.17 25.39 129.51 26.83 129.86 29.19 130.21 28.35 130.56 28.35 130.91 27.59 131.26 29.62 131.61 27.42 131.96 26.23 132.31 27.42 132.66 26.32 133.01 25.64 133.36 25.73 133.7 25.89 134.05 25.3 134.4 24.63 134.75 24.8 135.1 24.37 135.45 23.1 135.8 22.43 136.15 22.76 136.5 23.1 136.85 23.36 137.2 23.19 137.55 23.19 137.89 23.44 138.24 24.29 138.59 24.03 138.94 23.7 139.29 25.64 139.64 26.57 139.99 27.76 140.34 27.76 140.69 29.96 141.04 32.33 141.39 31.82 141.73 31.56 142.08 33 142.43 32.66 142.78 31.65 143.13 33 143.48 32.07 143.83 31.31 144.18 32.16 144.53 33 144.88 34.44 145.23 35.03 145.58 35.54 145.92 33.76 146.27 34.02 146.62 35.12 146.97 36.72 147.32 38.42 147.67 37.74 148.02 37.49 148.37 36.89 148.72 38.5 149.07 40.11 149.42 40.45 149.76 39.69 150.11 39.18 150.46 38.76 150.81 39.69 151.16 40.11 151.51 37.99 151.86 36.39 152.21 35.71 152.56 36.56 152.91 37.82 153.26 38.59 153.61 38.25 153.95 40.28 154.3 38.84 154.65 37.82 155 37.82 155.35 37.57 155.7 38.76 156.05 38.16 156.4 37.57 156.75 37.23 157.1 36.89 157.45 37.91 157.79 40.53 158.14 40.11 158.49 40.28 158.84 40.28 159.19 39.26 159.54 38.92 159.89 38.25 160.24 37.74 160.59 38.5 160.94 38.84 161.29 37.49 161.64 36.22 161.98 37.66 162.33 37.06 162.68 36.56 163.03 36.98 163.38 36.47 163.73 36.81 164.08 36.64 164.43 36.3 164.78 36.47 165.13 36.3 165.48 36.56 165.83 37.4 166.17 37.82 166.52 37.57 166.87 37.74 167.22 38.33 167.57 39.43 167.92 38.5 168.27 38.84 168.62 36.81 168.97 36.72 169.32 35.96 169.67 33.59 170.01 33.34 170.36 32.92 170.71 32.66 171.06 31.31 171.41 31.56 171.76 32.16 172.11 33.76 172.46 33.93 172.81 33.93 173.16 33.85 173.51 34.27 173.86 32.75 174.2 32.58 174.55 31.9 174.9 32.49 175.25 31.23 175.6 32.07 175.95 31.82 176.3 32.33 176.65 31.39 177 33.59 177.35 33 177.7 34.36 178.04 34.27 178.39 35.2 178.74 33.17 179.09 34.19 179.44 35.71 179.79 35.12 180.14 37.66 180.49 37.57 180.84 35.79 181.19 36.56 181.54 36.56 181.89 37.57 182.23 38.42 182.58 37.66 182.93 39.01 183.28 38.59 183.63 38.76 183.98 39.26 184.33 37.57 184.68 38.25 185.03 38.92 185.38 39.09 185.73 38.84 186.08 38.16 186.42 37.15 186.77 35.37 187.12 35.46 187.47 35.03 187.82 35.54 188.17 37.32 188.52 37.82 188.87 36.72 189.22 36.81 189.57 35.46 189.92 33.68 190.26 32.49 190.61 31.65 190.96 29.53 191.31 29.03 191.66 28.69 192.01 29.03 192.36 27.33 192.71 28.01 193.06 27.33 193.41 27.84 193.76 29.28 194.11 29.28 194.45 27.16 194.8 28.86 195.15 28.69 195.5 28.77 195.85 28.43 196.2 27.93"/>
      </g>
      <g stroke-width="0.3" fill="#000000" fill-opacity="0.000" class="geometry" stroke-dasharray="none" stroke="#D53E4F" id="img-ffa2e3f0-38">
        <path fill="none" d="M21.98,33.76 L 22.33 32.33 22.68 32.49 23.03 33.51 23.38 33.68 23.73 34.19 24.08 35.2 24.42 34.36 24.77 33.26 25.12 33.51 25.47 32.83 25.82 32.66 26.17 33.76 26.52 33.42 26.87 34.36 27.22 34.27 27.57 36.22 27.92 36.05 28.27 34.61 28.61 35.12 28.96 35.2 29.31 35.2 29.66 33.51 30.01 33.68 30.36 33 30.71 33.09 31.06 32.33 31.41 32.07 31.76 31.56 32.11 33 32.45 33.59 32.8 33.34 33.15 34.36 33.5 34.52 33.85 34.78 34.2 35.12 34.55 34.69 34.9 33.85 35.25 34.19 35.6 34.44 35.95 34.95 36.3 34.78 36.64 36.05 36.99 36.05 37.34 36.98 37.69 36.22 38.04 35.29 38.39 38.16 38.74 38.5 39.09 38.76 39.44 38.25 39.79 39.86 40.14 40.19 40.49 40.02 40.83 40.28 41.18 40.53 41.53 39.94 41.88 38.92 42.23 38.33 42.58 38.59 42.93 38.67 43.28 38.33 43.63 39.18 43.98 39.26 44.33 39.09 44.67 38.84 45.02 39.35 45.37 39.52 45.72 38.92 46.07 40.02 46.42 37.82 46.77 39.52 47.12 39.6 47.47 40.79 47.82 40.62 48.17 40.79 48.52 40.28 48.86 40.02 49.21 39.77 49.56 39.01 49.91 39.09 50.26 38.16 50.61 39.35 50.96 38.42 51.31 39.18 51.66 40.02 52.01 40.87 52.36 41.63 52.7 42.48 53.05 42.22 53.4 41.89 53.75 40.79 54.1 40.95 54.45 41.12 54.8 38.5 55.15 38.25 55.5 38.33 55.85 39.18 56.2 40.87 56.55 41.38 56.89 40.53 57.24 42.31 57.59 41.12 57.94 42.31 58.29 42.73 58.64 41.97 58.99 41.97 59.34 41.46 59.69 41.46 60.04 41.72 60.39 41.21 60.73 38.76 61.08 38.67 61.43 37.15 61.78 38.08 62.13 36.81 62.48 37.23 62.83 38.59 63.18 39.77 63.53 38.67 63.88 38.59 64.23 38.59 64.58 38.16 64.92 37.99 65.27 38.76 65.62 38.59 65.97 38.08 66.32 38.59 66.67 39.18 67.02 39.18 67.37 40.19 67.72 39.35 68.07 40.53 68.42 40.02 68.77 41.8 69.11 42.05 69.46 41.12 69.81 41.12 70.16 39.86 70.51 39.52 70.86 38.16 71.21 37.06 71.56 37.23 71.91 38.42 72.26 38.76 72.61 38.59 72.95 36.56 73.3 36.13 73.65 36.13 74 36.39 74.35 36.13 74.7 37.23 75.05 38.5 75.4 37.66 75.75 37.57 76.1 40.19 76.45 42.39 76.8 41.55 77.14 41.89 77.49 42.05 77.84 41.72 78.19 42.14 78.54 42.22 78.89 43.83 79.24 43.24 79.59 42.73 79.94 43.66 80.29 42.9 80.64 43.75 80.98 44.42 81.33 44.59 81.68 45.27 82.03 44.85 82.38 44 82.73 43.32 83.08 42.65 83.43 42.9 83.78 41.63 84.13 41.12 84.48 42.56 84.83 43.66 85.17 44.09 85.52 43.49 85.87 44.25 86.22 44.68 86.57 45.44 86.92 45.35 87.27 45.19 87.62 44.85 87.97 44.17 88.32 43.92 88.67 43.58 89.02 44.68 89.36 43.83 89.71 42.9 90.06 41.38 90.41 42.82 90.76 43.41 91.11 44.76 91.46 45.52 91.81 45.86 92.16 43.58 92.51 42.14 92.86 42.05 93.2 43.41 93.55 43.49 93.9 43.66 94.25 43.15 94.6 44 94.95 43.15 95.3 41.8 95.65 41.63 96 40.79 96.35 39.86 96.7 39.35 97.05 40.79 97.39 39.26 97.74 40.45 98.09 41.21 98.44 42.48 98.79 41.72 99.14 40.87 99.49 39.94 99.84 40.28 100.19 39.86 100.54 39.01 100.89 38.33 101.23 39.43 101.58 39.6 101.93 40.95 102.28 40.19 102.63 40.62 102.98 40.95 103.33 41.38 103.68 41.04 104.03 40.79 104.38 39.6 104.73 39.18 105.08 40.11 105.42 39.01 105.77 39.26 106.12 39.6 106.47 38.84 106.82 37.82 107.17 37.57 107.52 36.81 107.87 37.06 108.22 37.74 108.57 37.49 108.92 37.15 109.26 36.64 109.61 36.89 109.96 36.22 110.31 37.15 110.66 34.86 111.01 35.03 111.36 36.05 111.71 34.78 112.06 34.1 112.41 33.26 112.76 32.58 113.11 34.95 113.45 35.2 113.8 35.29 114.15 35.79 114.5 36.81 114.85 36.3 115.2 36.05 115.55 36.81 115.9 36.05 116.25 36.3 116.6 36.05 116.95 39.01 117.3 38.08 117.64 35.37 117.99 35.88 118.34 34.02 118.69 34.36 119.04 32.92 119.39 34.1 119.74 35.79 120.09 35.46 120.44 35.88 120.79 36.22 121.14 37.49 121.48 37.57 121.83 38.33 122.18 38.25 122.53 37.66 122.88 37.91 123.23 39.01 123.58 39.86 123.93 38.33 124.28 38.59 124.63 37.4 124.98 39.01 125.33 40.79 125.67 40.19 126.02 39.52 126.37 38.5 126.72 39.18 127.07 38.33 127.42 39.01 127.77 38.67 128.12 39.09 128.47 37.23 128.82 37.15 129.17 36.3 129.51 35.29 129.86 36.22 130.21 35.37 130.56 35.62 130.91 35.96 131.26 35.62 131.61 37.57 131.96 37.32 132.31 37.15 132.66 39.01 133.01 39.35 133.36 38.67 133.7 38.92 134.05 39.52 134.4 39.77 134.75 39.77 135.1 39.26 135.45 39.26 135.8 38.5 136.15 38.5 136.5 39.35 136.85 38.92 137.2 39.52 137.55 40.95 137.89 42.39 138.24 42.05 138.59 43.49 138.94 43.41 139.29 45.1 139.64 44.59 139.99 44.17 140.34 44.25 140.69 43.75 141.04 43.07 141.39 42.73 141.73 41.55 142.08 41.12 142.43 41.55 142.78 41.04 143.13 41.89 143.48 40.87 143.83 40.87 144.18 41.63 144.53 41.8 144.88 42.31 145.23 40.7 145.58 39.77 145.92 40.19 146.27 40.11 146.62 39.09 146.97 40.36 147.32 40.87 147.67 40.62 148.02 39.35 148.37 39.43 148.72 39.09 149.07 38.59 149.42 38.33 149.76 38.67 150.11 38.92 150.46 37.91 150.81 36.47 151.16 34.69 151.51 36.72 151.86 35.96 152.21 35.37 152.56 35.37 152.91 34.86 153.26 35.37 153.61 35.37 153.95 36.3 154.3 36.64 154.65 35.96 155 37.57 155.35 36.98 155.7 37.57 156.05 38.33 156.4 38.67 156.75 37.66 157.1 36.72 157.45 35.29 157.79 34.36 158.14 34.95 158.49 34.44 158.84 35.71 159.19 34.69 159.54 36.47 159.89 35.71 160.24 36.39 160.59 36.47 160.94 37.32 161.29 37.91 161.64 37.23 161.98 37.91 162.33 37.82 162.68 38.25 163.03 37.06 163.38 36.98 163.73 38.25 164.08 37.99 164.43 38.59 164.78 38.42 165.13 38.42 165.48 37.06 165.83 37.15 166.17 37.74 166.52 38.59 166.87 40.02 167.22 39.6 167.57 39.26 167.92 39.86 168.27 40.79 168.62 41.89 168.97 41.8 169.32 41.46 169.67 41.97 170.01 41.12 170.36 41.04 170.71 41.21 171.06 41.63 171.41 42.14 171.76 41.72 172.11 41.55 172.46 39.94 172.81 39.86 173.16 39.35 173.51 40.02 173.86 40.19 174.2 40.79 174.55 40.11 174.9 40.62 175.25 39.94 175.6 38.76 175.95 39.01 176.3 39.09 176.65 40.02 177 37.99 177.35 36.98 177.7 36.56 178.04 35.96 178.39 35.62 178.74 35.46 179.09 34.44 179.44 35.12 179.79 34.52 180.14 35.29 180.49 36.3 180.84 37.66 181.19 35.62 181.54 37.06 181.89 37.23 182.23 36.39 182.58 36.72 182.93 35.54 183.28 34.1 183.63 33.34 183.98 34.1 184.33 33.76 184.68 34.27 185.03 35.62 185.38 35.88 185.73 36.81 186.08 34.78 186.42 35.2 186.77 35.37 187.12 34.44 187.47 35.03 187.82 34.19 188.17 33.76 188.52 32.75 188.87 33.59 189.22 32.41 189.57 32.92 189.92 33.09 190.26 34.61 190.61 33.85 190.96 33.68 191.31 34.1 191.66 34.95 192.01 36.3 192.36 38.25 192.71 36.47 193.06 37.99 193.41 36.98 193.76 39.18 194.11 39.6 194.45 39.86 194.8 39.86 195.15 41.38 195.5 41.89 195.85 43.07 196.2 42.05"/>
      </g>
      <g stroke-width="0.3" fill="#000000" fill-opacity="0.000" class="geometry" stroke-dasharray="none" stroke="#9E0142" id="img-ffa2e3f0-39">
        <path fill="none" d="M21.98,33.76 L 22.33 32.75 22.68 32.75 23.03 33 23.38 32.24 23.73 32.16 24.08 33.51 24.42 32.75 24.77 31.56 25.12 29.45 25.47 29.96 25.82 28.77 26.17 27.59 26.52 26.49 26.87 27.5 27.22 26.66 27.57 27.67 27.92 27.84 28.27 28.43 28.61 27.59 28.96 28.26 29.31 28.09 29.66 29.11 30.01 29.62 30.36 30.55 30.71 31.9 31.06 32.58 31.41 32.41 31.76 32.33 32.11 31.48 32.45 30.97 32.8 31.14 33.15 30.46 33.5 29.96 33.85 28.94 34.2 29.62 34.55 29.28 34.9 28.6 35.25 28.18 35.6 28.26 35.95 28.86 36.3 29.79 36.64 28.26 36.99 29.19 37.34 28.09 37.69 26.91 38.04 26.99 38.39 27.5 38.74 26.06 39.09 25.47 39.44 25.47 39.79 24.54 40.14 24.96 40.49 25.56 40.83 25.47 41.18 24.2 41.53 24.12 41.88 25.73 42.23 25.13 42.58 26.4 42.93 25.64 43.28 27.16 43.63 28.43 43.98 28.26 44.33 29.28 44.67 29.87 45.02 31.39 45.37 30.29 45.72 30.29 46.07 30.46 46.42 30.13 46.77 29.79 47.12 29.87 47.47 29.28 47.82 28.18 48.17 28.09 48.52 28.6 48.86 28.69 49.21 30.29 49.56 30.72 49.91 29.7 50.26 29.36 50.61 30.63 50.96 31.48 51.31 30.13 51.66 30.97 52.01 30.63 52.36 31.9 52.7 32.83 53.05 31.9 53.4 29.87 53.75 29.03 54.1 28.35 54.45 28.94 54.8 29.79 55.15 30.55 55.5 31.06 55.85 31.31 56.2 31.65 56.55 33.51 56.89 32.83 57.24 35.54 57.59 35.2 57.94 35.62 58.29 35.12 58.64 34.95 58.99 35.46 59.34 36.22 59.69 37.06 60.04 37.32 60.39 37.66 60.73 37.57 61.08 38.92 61.43 39.35 61.78 39.09 62.13 39.18 62.48 39.26 62.83 38.25 63.18 38.76 63.53 37.49 63.88 36.72 64.23 36.56 64.58 35.79 64.92 36.3 65.27 34.36 65.62 34.36 65.97 36.13 66.32 36.3 66.67 36.89 67.02 37.57 67.37 37.99 67.72 38.59 68.07 38.67 68.42 40.19 68.77 39.35 69.11 40.19 69.46 40.19 69.81 39.77 70.16 40.36 70.51 40.36 70.86 40.19 71.21 37.74 71.56 37.91 71.91 38.76 72.26 39.52 72.61 39.6 72.95 39.86 73.3 38.42 73.65 38.08 74 37.82 74.35 36.3 74.7 37.57 75.05 36.98 75.4 35.88 75.75 37.57 76.1 37.4 76.45 36.64 76.8 37.49 77.14 37.15 77.49 37.82 77.84 37.99 78.19 37.49 78.54 37.15 78.89 38.76 79.24 38.08 79.59 39.35 79.94 38.33 80.29 38.16 80.64 37.57 80.98 37.66 81.33 37.66 81.68 38.67 82.03 39.01 82.38 39.01 82.73 39.69 83.08 39.52 83.43 40.62 83.78 41.97 84.13 42.05 84.48 41.55 84.83 40.95 85.17 40.36 85.52 40.95 85.87 41.46 86.22 41.97 86.57 41.97 86.92 42.9 87.27 43.75 87.62 44.51 87.97 43.49 88.32 43.83 88.67 43.75 89.02 44.09 89.36 44.59 89.71 43.83 90.06 42.9 90.41 42.99 90.76 44.17 91.11 44.76 91.46 44.17 91.81 44.17 92.16 46.03 92.51 44.42 92.86 43.92 93.2 44.93 93.55 44.76 93.9 45.35 94.25 45.69 94.6 46.71 94.95 46.29 95.3 47.64 95.65 47.13 96 46.96 96.35 47.81 96.7 47.13 97.05 47.22 97.39 46.79 97.74 47.3 98.09 47.3 98.44 47.22 98.79 48.23 99.14 48.4 99.49 49.58 99.84 49.92 100.19 49.84 100.54 50.52 100.89 51.19 101.23 51.7 101.58 51.78 101.93 51.45 102.28 52.38 102.63 52.97 102.98 52.8 103.33 52.88 103.68 53.14 104.03 53.14 104.38 53.82 104.73 54.07 105.08 54.24 105.42 54.15 105.77 54.07 106.12 53.98 106.47 53.9 106.82 53.65 107.17 53.82 107.52 54.15 107.87 54.58 108.22 54.49 108.57 54.32 108.92 53.82 109.26 53.98 109.61 54.32 109.96 54.41 110.31 53.9 110.66 53.48 111.01 53.82 111.36 54.15 111.71 54.07 112.06 53.9 112.41 53.39 112.76 52.97 113.11 52.8 113.45 52.97 113.8 52.63 114.15 51.95 114.5 51.95 114.85 51.28 115.2 51.36 115.55 51.53 115.9 51.11 116.25 52.04 116.6 51.78 116.95 51.95 117.3 51.28 117.64 50.94 117.99 49.58 118.34 48.57 118.69 48.06 119.04 48.23 119.39 48.32 119.74 49.08 120.09 48.99 120.44 48.99 120.79 48.74 121.14 49.84 121.48 49.75 121.83 49.92 122.18 49.08 122.53 49.58 122.88 48.32 123.23 48.23 123.58 46.88 123.93 46.37 124.28 46.12 124.63 45.35 124.98 44.59 125.33 44.17 125.67 43.07 126.02 44 126.37 44.25 126.72 43.83 127.07 42.65 127.42 42.14 127.77 42.82 128.12 41.72 128.47 42.39 128.82 42.82 129.17 44.09 129.51 43.75 129.86 43.15 130.21 43.49 130.56 43.07 130.91 41.38 131.26 41.89 131.61 42.22 131.96 42.48 132.31 42.65 132.66 41.97 133.01 40.53 133.36 39.52 133.7 38.67 134.05 37.4 134.4 39.09 134.75 39.26 135.1 40.11 135.45 40.19 135.8 40.53 136.15 40.53 136.5 40.45 136.85 40.7 137.2 41.46 137.55 41.97 137.89 41.12 138.24 40.87 138.59 42.05 138.94 42.48 139.29 43.75 139.64 44.09 139.99 43.66 140.34 44.93 140.69 44 141.04 44.25 141.39 43.58 141.73 44.34 142.08 44.76 142.43 44.68 142.78 44.51 143.13 45.02 143.48 44.25 143.83 44.68 144.18 45.52 144.53 44.42 144.88 45.44 145.23 45.86 145.58 44.34 145.92 44.42 146.27 44.85 146.62 45.35 146.97 44.76 147.32 44.17 147.67 44.17 148.02 43.75 148.37 43.49 148.72 42.99 149.07 42.48 149.42 43.24 149.76 43.75 150.11 43.58 150.46 43.58 150.81 43.49 151.16 42.22 151.51 41.55 151.86 42.22 152.21 41.63 152.56 42.05 152.91 40.45 153.26 40.95 153.61 40.87 153.95 40.95 154.3 40.28 154.65 38.67 155 37.99 155.35 38.92 155.7 38.76 156.05 38.25 156.4 36.81 156.75 37.99 157.1 40.11 157.45 40.79 157.79 41.8 158.14 41.89 158.49 42.73 158.84 43.58 159.19 43.32 159.54 41.63 159.89 41.89 160.24 42.22 160.59 40.11 160.94 40.45 161.29 40.36 161.64 39.52 161.98 40.53 162.33 40.28 162.68 39.94 163.03 41.12 163.38 40.79 163.73 41.72 164.08 42.22 164.43 42.14 164.78 41.29 165.13 43.24 165.48 43.41 165.83 42.99 166.17 43.41 166.52 43.75 166.87 44.25 167.22 45.44 167.57 46.37 167.92 45.27 168.27 45.44 168.62 45.52 168.97 46.03 169.32 45.86 169.67 44.51 170.01 45.1 170.36 44.25 170.71 42.56 171.06 43.66 171.41 44 171.76 43.49 172.11 42.73 172.46 44.25 172.81 45.1 173.16 45.1 173.51 44.25 173.86 44.76 174.2 45.95 174.55 45.35 174.9 46.2 175.25 47.05 175.6 46.96 175.95 47.22 176.3 46.54 176.65 47.05 177 48.65 177.35 48.32 177.7 47.81 178.04 48.48 178.39 48.15 178.74 47.72 179.09 46.79 179.44 47.72 179.79 46.79 180.14 46.71 180.49 46.54 180.84 46.12 181.19 46.03 181.54 44.93 181.89 44.25 182.23 42.9 182.58 43.92 182.93 42.9 183.28 43.58 183.63 44.25 183.98 43.83 184.33 43.75 184.68 44.25 185.03 44 185.38 45.02 185.73 46.45 186.08 46.62 186.42 47.72 186.77 48.48 187.12 49.16 187.47 48.74 187.82 50.09 188.17 49.75 188.52 49.25 188.87 49.67 189.22 49.58 189.57 49.25 189.92 48.65 190.26 49.5 190.61 49.16 190.96 50.09 191.31 50.35 191.66 50.68 192.01 49.84 192.36 49.75 192.71 49.67 193.06 50.6 193.41 51.28 193.76 50.94 194.11 50.35 194.45 50.26 194.8 49.84 195.15 49.58 195.5 49.08 195.85 48.48 196.2 48.23"/>
      </g>
    </g>
  </g>
</g>
  <g class="guide ylabels" font-size="2.82" font-family="'PT Sans Caption','Helvetica Neue','Helvetica',sans-serif" fill="#000000" id="img-ffa2e3f0-40">
    <text x="18.63" y="54.91" text-anchor="end" dy="0.35em">0</text>
    <text x="18.63" y="46.45" text-anchor="end" dy="0.35em">100</text>
    <text x="18.63" y="37.99" text-anchor="end" dy="0.35em">200</text>
    <text x="18.63" y="29.53" text-anchor="end" dy="0.35em">300</text>
    <text x="18.63" y="21.07" text-anchor="end" dy="0.35em">400</text>
    <text x="18.63" y="12.61" text-anchor="end" dy="0.35em">500</text>
  </g>
  <g font-size="3.88" font-family="'PT Sans','Helvetica Neue','Helvetica',sans-serif" fill="#000000" stroke="#000000" stroke-opacity="0.000" id="img-ffa2e3f0-41">
    <text x="8.81" y="31.76" text-anchor="middle" dy="0.35em" transform="rotate(-90, 8.81, 33.76)">population size</text>
  </g>
  <g font-size="3.88" font-family="'PT Sans','Helvetica Neue','Helvetica',sans-serif" fill="#000000" stroke="#000000" stroke-opacity="0.000" id="img-ffa2e3f0-42">
    <text x="108.92" y="5" text-anchor="middle" dy="0.6em">genetic drift with mutationrate  = 0.001 </text>
  </g>
</g>
<defs>
  <clipPath id="img-ffa2e3f0-24">
  <path d="M19.63,10.61 L 198.2 10.61 198.2 56.91 19.63 56.91" />
</clipPath>
  <clipPath id="img-ffa2e3f0-8">
  <path d="M18.63,86.81 L 174.03 86.81 174.03 133.11 18.63 133.11" />
</clipPath>
</defs>
</svg>
