<?xml version="1.0" encoding="UTF-8"?>
<svg xmlns="http://www.w3.org/2000/svg"
     xmlns:xlink="http://www.w3.org/1999/xlink"
     xmlns:gadfly="http://www.gadflyjl.org/ns"
     version="1.2"
     width="203.2mm" height="152.4mm" viewBox="0 0 203.2 152.4"
     stroke="none"
     fill="#000000"
     stroke-width="0.3"
     font-size="3.88"
>
<g class="plotroot xscalable yscalable" id="img-89ac5e8d-1">
  <g font-size="3.88" font-family="'PT Sans','Helvetica Neue','Helvetica',sans-serif" fill="#000000" stroke="#000000" stroke-opacity="0.000" id="img-89ac5e8d-2">
    <text x="108.92" y="140.79" text-anchor="middle" dy="0.6em">generation number</text>
  </g>
  <g class="guide xlabels" font-size="2.82" font-family="'PT Sans Caption','Helvetica Neue','Helvetica',sans-serif" fill="#000000" id="img-89ac5e8d-3">
    <text x="21.63" y="134.11" text-anchor="middle" dy="0.6em">0</text>
    <text x="56.55" y="134.11" text-anchor="middle" dy="0.6em">100</text>
    <text x="91.46" y="134.11" text-anchor="middle" dy="0.6em">200</text>
    <text x="126.37" y="134.11" text-anchor="middle" dy="0.6em">300</text>
    <text x="161.29" y="134.11" text-anchor="middle" dy="0.6em">400</text>
    <text x="196.2" y="134.11" text-anchor="middle" dy="0.6em">500</text>
  </g>
<g clip-path="url(#img-89ac5e8d-4)">
  <g id="img-89ac5e8d-5">
    <g pointer-events="visible" opacity="1" fill="#FFFFFF" stroke="#000000" stroke-opacity="0.000" class="guide background" id="img-89ac5e8d-6">
      <rect x="19.63" y="10.61" width="178.57" height="122.5"/>
    </g>
    <g class="guide ygridlines xfixed" stroke-dasharray="0.5,0.5" stroke-width="0.2" stroke="#808080" id="img-89ac5e8d-7">
      <path fill="none" d="M19.63,131.11 L 198.2 131.11"/>
      <path fill="none" d="M19.63,107.41 L 198.2 107.41"/>
      <path fill="none" d="M19.63,83.71 L 198.2 83.71"/>
      <path fill="none" d="M19.63,60.01 L 198.2 60.01"/>
      <path fill="none" d="M19.63,36.31 L 198.2 36.31"/>
      <path fill="none" d="M19.63,12.61 L 198.2 12.61"/>
    </g>
    <g class="guide xgridlines yfixed" stroke-dasharray="0.5,0.5" stroke-width="0.2" stroke="#808080" id="img-89ac5e8d-8">
      <path fill="none" d="M21.63,10.61 L 21.63 133.11"/>
      <path fill="none" d="M56.55,10.61 L 56.55 133.11"/>
      <path fill="none" d="M91.46,10.61 L 91.46 133.11"/>
      <path fill="none" d="M126.37,10.61 L 126.37 133.11"/>
      <path fill="none" d="M161.29,10.61 L 161.29 133.11"/>
      <path fill="none" d="M196.2,10.61 L 196.2 133.11"/>
    </g>
    <g class="plotpanel" id="img-89ac5e8d-9">
      <g stroke-width="0.3" fill="#000000" fill-opacity="0.000" class="geometry" stroke-dasharray="none" stroke="#3288BD" id="img-89ac5e8d-10">
        <path fill="none" d="M21.98,71.86 L 22.33 68.31 22.68 70.92 23.03 73.76 23.38 71.15 23.73 68.07 24.08 65.94 24.42 64.52 24.77 59.54 25.12 60.01 25.47 58.35 25.82 56.69 26.17 58.83 26.52 58.83 26.87 58.59 27.22 57.17 27.57 54.32 27.92 50.06 28.27 48.4 28.61 50.3 28.96 51.48 29.31 49.35 29.66 46.74 30.01 48.87 30.36 46.5 30.71 45.56 31.06 43.19 31.41 41.53 31.76 41.53 32.11 46.27 32.45 47.21 32.8 50.3 33.15 46.5 33.5 45.08 33.85 45.79 34.2 51.01 34.55 52.67 34.9 53.14 35.25 51.72 35.6 49.82 35.95 45.08 36.3 40.82 36.64 36.79 36.99 35.36 37.34 37.5 37.69 36.55 38.04 37.73 38.39 37.02 38.74 38.45 39.09 37.73 39.44 39.16 39.79 36.79 40.14 38.21 40.49 39.16 40.83 37.02 41.18 42.95 41.53 41.29 41.88 45.32 42.23 46.5 42.58 50.06 42.93 52.43 43.28 52.67 43.63 54.8 43.98 54.56 44.33 57.17 44.67 53.85 45.02 53.61 45.37 52.19 45.72 52.43 46.07 50.53 46.42 47.21 46.77 45.79 47.12 46.98 47.47 48.64 47.82 49.82 48.17 50.06 48.52 51.72 48.86 53.85 49.21 50.3 49.56 54.32 49.91 55.51 50.26 62.15 50.61 62.86 50.96 62.38 51.31 61.67 51.66 59.78 52.01 58.83 52.36 58.59 52.7 59.06 53.05 57.88 53.4 58.35 53.75 56.22 54.1 58.83 54.45 60.25 54.8 60.01 55.15 55.98 55.5 56.93 55.85 55.98 56.2 55.75 56.55 53.61 56.89 50.53 57.24 50.77 57.59 52.67 57.94 51.24 58.29 55.27 58.64 56.93 58.99 61.91 59.34 60.96 59.69 66.65 60.04 61.44 60.39 64.52 60.73 63.33 61.08 62.38 61.43 60.25 61.78 60.72 62.13 58.12 62.48 56.93 62.83 60.01 63.18 66.41 63.53 66.18 63.88 64.75 64.23 61.91 64.58 64.28 64.92 65.7 65.27 68.31 65.62 66.41 65.97 67.36 66.32 65.7 66.67 64.99 67.02 63.33 67.37 62.38 67.72 59.78 68.07 60.49 68.42 58.35 68.77 62.38 69.11 63.57 69.46 64.52 69.81 65.94 70.16 66.18 70.51 64.99 70.86 63.09 71.21 63.33 71.56 59.78 71.91 57.17 72.26 60.25 72.61 63.09 72.95 64.04 73.3 64.52 73.65 67.12 74 66.65 74.35 68.07 74.7 69.26 75.05 68.31 75.4 67.36 75.75 70.2 76.1 69.26 76.45 70.44 76.8 63.81 77.14 62.15 77.49 61.2 77.84 61.2 78.19 60.01 78.54 64.04 78.89 58.35 79.24 61.91 79.59 63.57 79.94 64.28 80.29 62.15 80.64 67.83 80.98 64.52 81.33 61.2 81.68 60.25 82.03 59.54 82.38 55.51 82.73 55.27 83.08 57.41 83.43 51.48 83.78 49.35 84.13 51.72 84.48 52.43 84.83 49.58 85.17 49.58 85.52 50.53 85.87 47.45 86.22 51.48 86.57 49.35 86.92 52.19 87.27 55.98 87.62 57.17 87.97 55.75 88.32 55.51 88.67 51.72 89.02 49.58 89.36 46.98 89.71 46.5 90.06 43.42 90.41 42.47 90.76 42.95 91.11 45.56 91.46 42 91.81 40.82 92.16 40.34 92.51 44.61 92.86 44.37 93.2 45.79 93.55 47.93 93.9 43.9 94.25 43.42 94.6 47.69 94.95 47.93 95.3 51.24 95.65 51.95 96 51.48 96.35 53.38 96.7 53.38 97.05 56.93 97.39 60.72 97.74 58.83 98.09 59.54 98.44 56.93 98.79 55.04 99.14 56.22 99.49 58.59 99.84 58.35 100.19 60.25 100.54 60.96 100.89 57.41 101.23 59.06 101.58 60.01 101.93 60.72 102.28 64.99 102.63 65.23 102.98 63.09 103.33 61.67 103.68 62.15 104.03 63.33 104.38 62.62 104.73 62.62 105.08 57.64 105.42 51.24 105.77 48.4 106.12 49.82 106.47 52.67 106.82 55.98 107.17 56.93 107.52 56.46 107.87 55.98 108.22 52.43 108.57 53.14 108.92 52.9 109.26 51.48 109.61 58.12 109.96 53.61 110.31 55.27 110.66 57.17 111.01 60.25 111.36 61.91 111.71 64.75 112.06 66.18 112.41 63.81 112.76 63.33 113.11 67.12 113.45 64.04 113.8 65.46 114.15 62.62 114.5 63.09 114.85 60.96 115.2 62.62 115.55 62.62 115.9 68.07 116.25 69.49 116.6 67.6 116.95 66.89 117.3 66.89 117.64 69.26 117.99 67.36 118.34 64.28 118.69 62.15 119.04 64.04 119.39 66.41 119.74 67.6 120.09 68.55 120.44 65.23 120.79 64.75 121.14 67.83 121.48 70.2 121.83 68.07 122.18 69.49 122.53 69.97 122.88 71.63 123.23 72.34 123.58 69.26 123.93 70.68 124.28 69.49 124.63 68.07 124.98 68.07 125.33 65.94 125.67 69.26 126.02 74.23 126.37 74.71 126.72 73.29 127.07 78.5 127.42 82.53 127.77 81.34 128.12 81.82 128.47 80.4 128.82 82.29 129.17 84.42 129.51 84.42 129.86 85.37 130.21 85.14 130.56 85.61 130.91 88.45 131.26 86.56 131.61 85.61 131.96 88.69 132.31 87.98 132.66 86.32 133.01 85.14 133.36 78.74 133.7 79.92 134.05 79.45 134.4 75.18 134.75 80.4 135.1 75.18 135.45 75.89 135.8 63.81 136.15 69.26 136.5 68.31 136.85 63.81 137.2 68.55 137.55 66.89 137.89 69.49 138.24 69.02 138.59 66.65 138.94 68.78 139.29 71.15 139.64 70.44 139.99 72.34 140.34 75.42 140.69 74 141.04 78.74 141.39 80.16 141.73 82.29 142.08 79.21 142.43 81.82 142.78 78.03 143.13 82.77 143.48 81.82 143.83 78.26 144.18 78.5 144.53 81.11 144.88 80.87 145.23 79.45 145.58 81.34 145.92 80.63 146.27 87.03 146.62 89.16 146.97 85.61 147.32 82.05 147.67 78.26 148.02 81.82 148.37 80.63 148.72 76.84 149.07 76.13 149.42 75.42 149.76 76.84 150.11 74 150.46 76.13 150.81 80.87 151.16 81.58 151.51 78.5 151.86 78.03 152.21 77.79 152.56 77.55 152.91 76.6 153.26 81.11 153.61 74.47 153.95 72.81 154.3 70.68 154.65 72.34 155 70.2 155.35 67.12 155.7 69.97 156.05 66.65 156.4 67.6 156.75 64.04 157.1 65.7 157.45 65.23 157.79 69.02 158.14 67.6 158.49 66.89 158.84 68.31 159.19 66.65 159.54 66.18 159.89 69.73 160.24 71.86 160.59 71.86 160.94 73.29 161.29 74 161.64 71.15 161.98 64.75 162.33 63.57 162.68 62.62 163.03 60.96 163.38 60.49 163.73 63.57 164.08 63.57 164.43 61.44 164.78 60.72 165.13 63.57 165.48 66.65 165.83 62.15 166.17 57.88 166.52 54.8 166.87 58.35 167.22 57.41 167.57 63.09 167.92 62.38 168.27 60.49 168.62 63.33 168.97 64.04 169.32 64.28 169.67 64.28 170.01 69.02 170.36 66.65 170.71 67.36 171.06 65.23 171.41 66.65 171.76 68.55 172.11 66.65 172.46 65.7 172.81 68.55 173.16 74.47 173.51 70.2 173.86 66.65 174.2 67.12 174.55 64.99 174.9 64.04 175.25 59.54 175.6 55.27 175.95 61.2 176.3 54.56 176.65 61.91 177 61.44 177.35 59.54 177.7 55.98 178.04 60.96 178.39 60.72 178.74 63.09 179.09 64.28 179.44 66.89 179.79 62.62 180.14 64.52 180.49 63.33 180.84 64.04 181.19 60.96 181.54 61.91 181.89 60.49 182.23 63.09 182.58 60.96 182.93 63.09 183.28 64.75 183.63 58.12 183.98 61.67 184.33 61.67 184.68 59.06 185.03 59.06 185.38 58.35 185.73 58.12 186.08 59.78 186.42 60.72 186.77 61.67 187.12 64.04 187.47 63.81 187.82 64.99 188.17 66.65 188.52 66.89 188.87 65.23 189.22 64.99 189.57 66.18 189.92 68.55 190.26 70.92 190.61 73.29 190.96 72.34 191.31 72.34 191.66 69.49 192.01 73.52 192.36 73.05 192.71 72.34 193.06 76.84 193.41 83.95 193.76 84.42 194.11 83.24 194.45 88.45 194.8 94.85 195.15 96.75 195.5 99.36 195.85 101.49 196.2 100.3"/>
      </g>
      <g stroke-width="0.3" fill="#000000" fill-opacity="0.000" class="geometry" stroke-dasharray="none" stroke="#66C2A5" id="img-89ac5e8d-11">
        <path fill="none" d="M21.98,71.86 L 22.33 69.49 22.68 69.02 23.03 70.68 23.38 71.39 23.73 69.02 24.08 75.66 24.42 76.37 24.77 74.23 25.12 70.2 25.47 71.63 25.82 73.29 26.17 74.23 26.52 77.55 26.87 80.16 27.22 81.82 27.57 81.11 27.92 78.03 28.27 78.97 28.61 78.26 28.96 78.5 29.31 79.21 29.66 84.66 30.01 83.48 30.36 84.19 30.71 85.14 31.06 86.56 31.41 87.27 31.76 90.35 32.11 92.48 32.45 96.04 32.8 95.09 33.15 96.51 33.5 101.02 33.85 100.07 34.2 103.15 34.55 103.39 34.9 102.91 35.25 102.44 35.6 108.6 35.95 108.13 36.3 103.39 36.64 103.86 36.99 106.94 37.34 103.62 37.69 102.44 38.04 99.83 38.39 98.65 38.74 98.65 39.09 102.67 39.44 102.91 39.79 106.94 40.14 108.13 40.49 108.13 40.83 109.55 41.18 108.84 41.53 109.07 41.88 109.07 42.23 107.41 42.58 107.89 42.93 107.65 43.28 106.23 43.63 107.41 43.98 105.28 44.33 106.7 44.67 108.13 45.02 104.33 45.37 103.86 45.72 102.67 46.07 105.28 46.42 104.57 46.77 101.25 47.12 101.49 47.47 98.88 47.82 99.83 48.17 99.36 48.52 101.96 48.86 102.91 49.21 103.39 49.56 103.62 49.91 104.33 50.26 105.04 50.61 107.41 50.96 110.02 51.31 112.87 51.66 113.1 52.01 116.66 52.36 115 52.7 115 53.05 115.47 53.4 113.58 53.75 109.78 54.1 110.26 54.45 105.99 54.8 110.02 55.15 113.1 55.5 111.92 55.85 113.81 56.2 113.81 56.55 116.66 56.89 117.13 57.24 118.08 57.59 119.03 57.94 119.26 58.29 119.03 58.64 119.98 58.99 118.79 59.34 118.55 59.69 119.03 60.04 118.55 60.39 119.98 60.73 120.69 61.08 119.5 61.43 118.79 61.78 119.5 62.13 119.03 62.48 116.89 62.83 114.29 63.18 115.24 63.53 116.18 63.88 115.71 64.23 116.42 64.58 115.24 64.92 115.47 65.27 115.47 65.62 115 65.97 117.84 66.32 116.18 66.67 112.15 67.02 111.68 67.37 111.21 67.72 111.44 68.07 111.44 68.42 110.73 68.77 108.6 69.11 108.6 69.46 110.02 69.81 111.21 70.16 113.34 70.51 114.29 70.86 113.58 71.21 115.24 71.56 116.18 71.91 118.08 72.26 119.03 72.61 117.61 72.95 118.32 73.3 119.98 73.65 119.03 74 118.55 74.35 118.08 74.7 117.84 75.05 120.69 75.4 121.87 75.75 121.63 76.1 122.82 76.45 121.87 76.8 119.98 77.14 120.92 77.49 120.21 77.84 118.32 78.19 119.98 78.54 120.69 78.89 120.69 79.24 122.35 79.59 121.87 79.94 121.63 80.29 120.45 80.64 119.26 80.98 120.69 81.33 122.11 81.68 119.26 82.03 120.45 82.38 119.5 82.73 119.98 83.08 119.74 83.43 121.87 83.78 122.11 84.13 123.53 84.48 123.06 84.83 121.87 85.17 120.45 85.52 121.4 85.87 123.06 86.22 123.06 86.57 119.98 86.92 118.79 87.27 118.32 87.62 117.84 87.97 117.84 88.32 115 88.67 112.87 89.02 113.34 89.36 111.68 89.71 109.55 90.06 111.44 90.41 110.02 90.76 111.92 91.11 113.1 91.46 115 91.81 117.84 92.16 117.37 92.51 115.95 92.86 116.18 93.2 117.37 93.55 118.55 93.9 120.21 94.25 120.92 94.6 119.5 94.95 117.61 95.3 116.89 95.65 118.79 96 120.45 96.35 122.35 96.7 122.35 97.05 120.92 97.39 122.11 97.74 123.29 98.09 123.06 98.44 122.58 98.79 122.35 99.14 122.58 99.49 124.24 99.84 124.72 100.19 124.24 100.54 124.95 100.89 125.19 101.23 125.66 101.58 126.61 101.93 127.32 102.28 127.32 102.63 126.85 102.98 126.61 103.33 125.66 103.68 126.14 104.03 125.43 104.38 125.66 104.73 123.53 105.08 122.35 105.42 121.87 105.77 123.77 106.12 123.06 106.47 122.58 106.82 123.53 107.17 122.58 107.52 119.03 107.87 117.84 108.22 115.95 108.57 116.89 108.92 115.71 109.26 116.42 109.61 117.13 109.96 117.13 110.31 117.61 110.66 115.71 111.01 117.84 111.36 118.79 111.71 114.29 112.06 111.21 112.41 110.26 112.76 109.31 113.11 108.13 113.45 108.36 113.8 107.89 114.15 109.07 114.5 111.44 114.85 112.39 115.2 114.76 115.55 117.84 115.9 119.98 116.25 120.21 116.6 122.11 116.95 121.87 117.3 120.92 117.64 120.45 117.99 122.58 118.34 122.35 118.69 124.24 119.04 122.58 119.39 122.82 119.74 123.77 120.09 123.29 120.44 124.95 120.79 124.48 121.14 124.48 121.48 125.66 121.83 126.37 122.18 125.66 122.53 126.37 122.88 128.03 123.23 128.03 123.58 126.61 123.93 127.32 124.28 126.37 124.63 126.61 124.98 126.14 125.33 126.14 125.67 126.37 126.02 126.37 126.37 126.14 126.72 127.09 127.07 126.61 127.42 125.66 127.77 126.14 128.12 126.37 128.47 128.03 128.82 128.27 129.17 128.98 129.51 128.98 129.86 130.4 130.21 130.88 130.56 130.4 130.91 130.64 131.26 129.69 131.61 129.69 131.96 130.17 132.31 129.22 132.66 128.03 133.01 128.27 133.36 128.03 133.7 128.03 134.05 128.74 134.4 128.51 134.75 128.03 135.1 127.56 135.45 128.03 135.8 126.61 136.15 127.32 136.5 126.85 136.85 126.37 137.2 124.24 137.55 122.35 137.89 122.82 138.24 123.53 138.59 123.53 138.94 122.58 139.29 122.35 139.64 122.58 139.99 122.35 140.34 119.98 140.69 120.45 141.04 119.26 141.39 119.03 141.73 119.98 142.08 121.4 142.43 122.11 142.78 122.11 143.13 121.63 143.48 121.4 143.83 119.98 144.18 120.69 144.53 120.45 144.88 118.08 145.23 119.26 145.58 122.58 145.92 123.77 146.27 125.9 146.62 128.27 146.97 128.51 147.32 128.98 147.67 128.51 148.02 127.8 148.37 126.14 148.72 126.37 149.07 126.61 149.42 126.37 149.76 125.9 150.11 127.8 150.46 128.51 150.81 128.98 151.16 129.46 151.51 129.46 151.86 129.46 152.21 128.98 152.56 128.27 152.91 128.27 153.26 129.46 153.61 128.98 153.95 129.22 154.3 128.74 154.65 126.85 155 126.14 155.35 123.53 155.7 121.87 156.05 121.87 156.4 121.87 156.75 120.69 157.1 120.69 157.45 119.26 157.79 122.35 158.14 122.11 158.49 121.63 158.84 122.58 159.19 124.24 159.54 124.48 159.89 124.24 160.24 123.77 160.59 122.11 160.94 120.92 161.29 122.11 161.64 123.77 161.98 122.35 162.33 121.87 162.68 121.16 163.03 119.5 163.38 119.5 163.73 119.5 164.08 119.03 164.43 122.58 164.78 123.06 165.13 123.77 165.48 121.63 165.83 121.63 166.17 122.82 166.52 122.82 166.87 123.06 167.22 119.98 167.57 121.16 167.92 121.63 168.27 121.87 168.62 121.87 168.97 121.16 169.32 122.58 169.67 121.16 170.01 121.16 170.36 118.55 170.71 119.26 171.06 119.74 171.41 121.87 171.76 124 172.11 124.48 172.46 123.06 172.81 122.58 173.16 121.4 173.51 120.92 173.86 121.63 174.2 121.63 174.55 122.11 174.9 123.53 175.25 122.11 175.6 123.29 175.95 125.66 176.3 125.9 176.65 127.09 177 126.14 177.35 124.48 177.7 124.24 178.04 125.19 178.39 126.61 178.74 126.37 179.09 127.09 179.44 126.37 179.79 127.56 180.14 125.43 180.49 124.48 180.84 124.72 181.19 123.29 181.54 124.48 181.89 125.43 182.23 125.19 182.58 124.48 182.93 123.29 183.28 123.77 183.63 122.58 183.98 122.58 184.33 120.69 184.68 119.74 185.03 119.26 185.38 119.03 185.73 119.98 186.08 119.74 186.42 118.79 186.77 120.69 187.12 120.45 187.47 119.5 187.82 116.42 188.17 117.84 188.52 117.61 188.87 118.08 189.22 117.84 189.57 114.05 189.92 111.21 190.26 111.92 190.61 112.39 190.96 111.68 191.31 108.36 191.66 106.94 192.01 107.41 192.36 105.99 192.71 103.15 193.06 101.96 193.41 102.91 193.76 105.99 194.11 107.65 194.45 107.65 194.8 104.1 195.15 104.33 195.5 100.54 195.85 101.25 196.2 101.73"/>
      </g>
      <g stroke-width="0.3" fill="#000000" fill-opacity="0.000" class="geometry" stroke-dasharray="none" stroke="#ABDDA4" id="img-89ac5e8d-12">
        <path fill="none" d="M21.98,71.86 L 22.33 70.68 22.68 74 23.03 77.08 23.38 78.74 23.73 70.92 24.08 72.81 24.42 69.26 24.77 65.46 25.12 66.18 25.47 66.89 25.82 65.46 26.17 68.07 26.52 69.73 26.87 70.92 27.22 70.92 27.57 74.94 27.92 74.71 28.27 67.83 28.61 67.83 28.96 67.6 29.31 66.18 29.66 65.23 30.01 64.28 30.36 66.41 30.71 63.81 31.06 63.33 31.41 61.91 31.76 57.17 32.11 56.69 32.45 57.17 32.8 57.41 33.15 61.91 33.5 66.18 33.85 63.57 34.2 66.65 34.55 65.46 34.9 63.81 35.25 64.99 35.6 64.75 35.95 64.52 36.3 64.28 36.64 67.12 36.99 69.26 37.34 73.52 37.69 72.57 38.04 72.57 38.39 65.94 38.74 65.7 39.09 58.59 39.44 56.93 39.79 60.49 40.14 64.75 40.49 58.12 40.83 56.69 41.18 51.72 41.53 51.48 41.88 50.06 42.23 50.3 42.58 52.19 42.93 54.09 43.28 51.95 43.63 51.24 43.98 49.82 44.33 51.24 44.67 50.06 45.02 55.04 45.37 57.41 45.72 55.51 46.07 60.96 46.42 62.62 46.77 59.54 47.12 58.12 47.47 58.35 47.82 59.3 48.17 62.62 48.52 67.6 48.86 65.94 49.21 70.92 49.56 75.18 49.91 72.34 50.26 74 50.61 74.23 50.96 77.55 51.31 72.57 51.66 72.81 52.01 72.34 52.36 73.52 52.7 70.2 53.05 74.23 53.4 73.76 53.75 78.03 54.1 78.03 54.45 72.1 54.8 70.44 55.15 74 55.5 73.76 55.85 75.89 56.2 73.52 56.55 68.07 56.89 73.29 57.24 72.1 57.59 70.92 57.94 74.47 58.29 75.66 58.64 75.42 58.99 77.79 59.34 77.31 59.69 75.18 60.04 74 60.39 73.29 60.73 69.49 61.08 71.63 61.43 66.89 61.78 67.36 62.13 66.89 62.48 65.46 62.83 65.46 63.18 66.41 63.53 67.36 63.88 66.65 64.23 64.75 64.58 60.25 64.92 61.2 65.27 56.46 65.62 63.57 65.97 63.57 66.32 66.89 66.67 71.39 67.02 78.97 67.37 73.76 67.72 72.1 68.07 73.76 68.42 68.55 68.77 70.2 69.11 70.68 69.46 72.1 69.81 74.94 70.16 71.63 70.51 74.47 70.86 78.5 71.21 82.05 71.56 83 71.91 83.95 72.26 85.14 72.61 86.79 72.95 91.06 73.3 87.51 73.65 88.93 74 87.74 74.35 89.16 74.7 87.03 75.05 85.37 75.4 87.03 75.75 87.51 76.1 84.66 76.45 81.34 76.8 79.68 77.14 76.13 77.49 73.05 77.84 73.29 78.19 70.2 78.54 67.6 78.89 68.07 79.24 65.23 79.59 66.18 79.94 63.81 80.29 61.2 80.64 58.35 80.98 62.15 81.33 62.62 81.68 64.99 82.03 69.02 82.38 71.86 82.73 68.78 83.08 76.6 83.43 76.6 83.78 78.97 84.13 80.87 84.48 75.66 84.83 71.63 85.17 64.04 85.52 65.23 85.87 62.62 86.22 60.25 86.57 60.96 86.92 56.22 87.27 56.93 87.62 62.38 87.97 62.86 88.32 65.94 88.67 59.06 89.02 61.67 89.36 61.44 89.71 59.54 90.06 63.33 90.41 65.46 90.76 69.02 91.11 70.2 91.46 70.68 91.81 68.31 92.16 63.81 92.51 61.44 92.86 61.44 93.2 62.62 93.55 66.89 93.9 66.41 94.25 67.36 94.6 62.15 94.95 62.62 95.3 63.33 95.65 65.46 96 69.02 96.35 69.02 96.7 71.63 97.05 74 97.39 73.76 97.74 71.15 98.09 78.03 98.44 80.63 98.79 79.45 99.14 81.82 99.49 84.42 99.84 81.58 100.19 83.71 100.54 81.34 100.89 81.34 101.23 81.82 101.58 85.37 101.93 82.05 102.28 81.58 102.63 81.11 102.98 78.97 103.33 79.68 103.68 78.26 104.03 82.05 104.38 78.97 104.73 82.29 105.08 81.34 105.42 82.53 105.77 85.37 106.12 88.22 106.47 92.48 106.82 94.85 107.17 97.22 107.52 101.02 107.87 98.65 108.22 100.07 108.57 102.44 108.92 97.7 109.26 98.17 109.61 97.22 109.96 96.99 110.31 93.9 110.66 93.9 111.01 97.46 111.36 95.8 111.71 95.33 112.06 95.8 112.41 98.41 112.76 100.07 113.11 101.73 113.45 102.44 113.8 100.3 114.15 99.36 114.5 96.51 114.85 95.8 115.2 94.38 115.55 95.09 115.9 95.56 116.25 91.77 116.6 93.43 116.95 93.19 117.3 95.33 117.64 98.88 117.99 101.73 118.34 98.41 118.69 91.06 119.04 90.82 119.39 87.03 119.74 85.14 120.09 85.85 120.44 86.79 120.79 84.9 121.14 79.21 121.48 78.74 121.83 78.97 122.18 80.87 122.53 77.79 122.88 74.71 123.23 75.89 123.58 78.97 123.93 78.74 124.28 77.31 124.63 75.66 124.98 71.86 125.33 66.18 125.67 67.36 126.02 66.65 126.37 70.92 126.72 70.68 127.07 71.15 127.42 70.44 127.77 71.15 128.12 67.83 128.47 72.81 128.82 73.05 129.17 75.42 129.51 78.26 129.86 81.11 130.21 82.77 130.56 79.68 130.91 83.24 131.26 86.32 131.61 90.11 131.96 88.69 132.31 92.01 132.66 95.09 133.01 97.7 133.36 97.22 133.7 100.07 134.05 97.93 134.4 100.54 134.75 98.41 135.1 99.36 135.45 99.36 135.8 96.51 136.15 95.8 136.5 91.53 136.85 92.25 137.2 89.88 137.55 91.53 137.89 91.77 138.24 88.22 138.59 88.45 138.94 90.59 139.29 89.88 139.64 87.51 139.99 88.45 140.34 89.4 140.69 93.67 141.04 91.3 141.39 89.4 141.73 90.35 142.08 90.11 142.43 88.69 142.78 91.3 143.13 87.74 143.48 90.59 143.83 89.64 144.18 92.96 144.53 86.08 144.88 82.77 145.23 80.87 145.58 80.4 145.92 83.24 146.27 75.89 146.62 75.66 146.97 79.21 147.32 77.08 147.67 75.66 148.02 75.42 148.37 73.52 148.72 73.52 149.07 73.29 149.42 70.68 149.76 71.63 150.11 72.34 150.46 71.63 150.81 70.2 151.16 69.02 151.51 65.94 151.86 62.62 152.21 60.25 152.56 62.15 152.91 60.49 153.26 56.22 153.61 60.01 153.95 60.49 154.3 55.27 154.65 55.51 155 53.38 155.35 55.75 155.7 52.43 156.05 49.82 156.4 47.21 156.75 48.16 157.1 50.77 157.45 53.14 157.79 51.95 158.14 48.16 158.49 53.14 158.84 55.98 159.19 53.85 159.54 57.88 159.89 57.88 160.24 57.88 160.59 58.59 160.94 60.01 161.29 59.3 161.64 61.2 161.98 62.62 162.33 65.7 162.68 66.18 163.03 62.86 163.38 67.6 163.73 68.55 164.08 68.07 164.43 70.68 164.78 69.02 165.13 65.46 165.48 62.38 165.83 60.49 166.17 60.96 166.52 61.44 166.87 59.3 167.22 60.49 167.57 62.15 167.92 62.86 168.27 61.91 168.62 64.28 168.97 61.67 169.32 64.99 169.67 60.72 170.01 58.83 170.36 61.44 170.71 61.67 171.06 62.62 171.41 58.12 171.76 59.06 172.11 56.93 172.46 59.3 172.81 56.46 173.16 57.41 173.51 58.12 173.86 59.3 174.2 59.78 174.55 59.06 174.9 56.22 175.25 54.56 175.6 54.8 175.95 52.43 176.3 50.3 176.65 49.58 177 49.35 177.35 48.4 177.7 46.98 178.04 51.48 178.39 50.3 178.74 49.35 179.09 50.06 179.44 53.85 179.79 54.09 180.14 54.09 180.49 52.43 180.84 49.58 181.19 49.11 181.54 45.32 181.89 46.03 182.23 46.5 182.58 45.08 182.93 46.5 183.28 48.4 183.63 48.87 183.98 46.74 184.33 50.3 184.68 48.87 185.03 51.24 185.38 53.85 185.73 52.67 186.08 54.8 186.42 55.98 186.77 57.41 187.12 61.44 187.47 58.59 187.82 60.72 188.17 60.96 188.52 59.78 188.87 56.93 189.22 61.2 189.57 57.41 189.92 56.22 190.26 51.95 190.61 54.09 190.96 50.3 191.31 48.16 191.66 51.48 192.01 48.87 192.36 45.32 192.71 44.61 193.06 44.61 193.41 46.74 193.76 48.64 194.11 48.4 194.45 48.16 194.8 46.98 195.15 49.11 195.5 48.64 195.85 50.06 196.2 50.06"/>
      </g>
      <g stroke-width="0.3" fill="#000000" fill-opacity="0.000" class="geometry" stroke-dasharray="none" stroke="#E6F598" id="img-89ac5e8d-13">
        <path fill="none" d="M21.98,71.86 L 22.33 68.07 22.68 67.6 23.03 64.75 23.38 63.57 23.73 67.12 24.08 61.2 24.42 65.7 24.77 66.65 25.12 68.55 25.47 69.97 25.82 69.26 26.17 65.94 26.52 67.6 26.87 67.12 27.22 64.75 27.57 66.89 27.92 64.04 28.27 60.96 28.61 55.75 28.96 54.8 29.31 55.98 29.66 56.93 30.01 60.01 30.36 60.49 30.71 58.83 31.06 61.67 31.41 62.15 31.76 63.81 32.11 55.51 32.45 52.9 32.8 48.16 33.15 46.74 33.5 49.58 33.85 49.82 34.2 46.74 34.55 46.74 34.9 47.21 35.25 46.27 35.6 45.08 35.95 46.74 36.3 45.08 36.64 42 36.99 39.63 37.34 42.71 37.69 43.42 38.04 40.82 38.39 42.95 38.74 42.47 39.09 41.29 39.44 40.1 39.79 38.92 40.14 36.31 40.49 38.21 40.83 37.26 41.18 35.36 41.53 34.89 41.88 35.36 42.23 35.6 42.58 31.81 42.93 33.23 43.28 34.42 43.63 34.18 43.98 32.99 44.33 32.28 44.67 35.6 45.02 38.21 45.37 33.94 45.72 33.71 46.07 34.42 46.42 32.05 46.77 32.99 47.12 36.79 47.47 37.97 47.82 40.58 48.17 40.82 48.52 41.76 48.86 37.97 49.21 38.68 49.56 39.63 49.91 41.05 50.26 41.76 50.61 42.95 50.96 42.71 51.31 39.87 51.66 37.26 52.01 38.68 52.36 42.71 52.7 45.79 53.05 42.47 53.4 44.13 53.75 42.95 54.1 44.37 54.45 45.79 54.8 43.9 55.15 44.84 55.5 42.47 55.85 45.32 56.2 42.24 56.55 39.16 56.89 34.65 57.24 34.42 57.59 37.5 57.94 37.02 58.29 37.73 58.64 39.16 58.99 37.02 59.34 35.13 59.69 33.23 60.04 37.26 60.39 35.13 60.73 35.6 61.08 36.08 61.43 37.73 61.78 39.39 62.13 41.05 62.48 40.58 62.83 39.16 63.18 39.16 63.53 38.92 63.88 37.97 64.23 40.82 64.58 40.58 64.92 41.05 65.27 37.73 65.62 37.97 65.97 39.63 66.32 37.73 66.67 35.36 67.02 31.34 67.37 31.34 67.72 33.94 68.07 32.76 68.42 34.89 68.77 34.89 69.11 30.62 69.46 30.39 69.81 29.68 70.16 25.88 70.51 24.46 70.86 23.28 71.21 23.51 71.56 23.04 71.91 22.09 72.26 23.04 72.61 21.38 72.95 21.14 73.3 21.14 73.65 20.67 74 20.67 74.35 20.67 74.7 19.25 75.05 19.01 75.4 20.2 75.75 18.54 76.1 18.77 76.45 20.43 76.8 21.62 77.14 20.67 77.49 21.62 77.84 23.28 78.19 23.04 78.54 23.51 78.89 24.94 79.24 26.36 79.59 25.41 79.94 27.54 80.29 26.12 80.64 28.73 80.98 26.6 81.33 26.36 81.68 26.36 82.03 26.6 82.38 28.25 82.73 31.1 83.08 30.86 83.43 32.76 83.78 31.34 84.13 31.81 84.48 30.15 84.83 29.2 85.17 30.86 85.52 30.86 85.87 33.71 86.22 36.31 86.57 35.84 86.92 38.92 87.27 40.1 87.62 38.45 87.97 41.53 88.32 44.37 88.67 42.71 89.02 40.34 89.36 37.97 89.71 40.34 90.06 40.82 90.41 40.58 90.76 37.5 91.11 38.68 91.46 37.97 91.81 38.21 92.16 37.26 92.51 42.24 92.86 43.42 93.2 43.42 93.55 46.74 93.9 46.27 94.25 42.95 94.6 39.63 94.95 37.02 95.3 38.45 95.65 41.29 96 37.5 96.35 37.97 96.7 39.16 97.05 42.24 97.39 42.24 97.74 41.29 98.09 42.47 98.44 41.29 98.79 41.76 99.14 43.9 99.49 44.13 99.84 43.9 100.19 44.13 100.54 45.08 100.89 48.16 101.23 46.74 101.58 47.93 101.93 51.24 102.28 52.9 102.63 50.53 102.98 48.87 103.33 53.61 103.68 52.19 104.03 54.8 104.38 55.51 104.73 53.61 105.08 51.24 105.42 48.16 105.77 46.5 106.12 47.45 106.47 45.56 106.82 45.56 107.17 46.5 107.52 46.27 107.87 44.61 108.22 43.9 108.57 46.74 108.92 48.16 109.26 49.82 109.61 47.45 109.96 48.64 110.31 46.74 110.66 48.87 111.01 50.06 111.36 48.87 111.71 45.79 112.06 48.64 112.41 47.21 112.76 45.56 113.11 45.32 113.45 45.32 113.8 44.37 114.15 46.27 114.5 41.05 114.85 43.9 115.2 42.95 115.55 45.32 115.9 45.79 116.25 42 116.6 41.05 116.95 36.08 117.3 36.79 117.64 37.02 117.99 34.18 118.34 38.68 118.69 37.26 119.04 34.89 119.39 35.6 119.74 32.76 120.09 31.57 120.44 30.39 120.79 27.78 121.14 30.86 121.48 28.97 121.83 27.54 122.18 28.97 122.53 29.44 122.88 30.86 123.23 30.86 123.58 31.81 123.93 33.71 124.28 35.84 124.63 37.02 124.98 38.68 125.33 39.63 125.67 40.58 126.02 43.9 126.37 45.32 126.72 43.19 127.07 41.05 127.42 38.21 127.77 37.5 128.12 37.26 128.47 38.45 128.82 42.71 129.17 42 129.51 41.53 129.86 43.66 130.21 43.66 130.56 46.03 130.91 49.82 131.26 52.19 131.61 52.43 131.96 55.75 132.31 53.14 132.66 53.61 133.01 51.48 133.36 45.32 133.7 43.9 134.05 42.95 134.4 44.37 134.75 44.84 135.1 46.74 135.45 52.43 135.8 53.38 136.15 56.93 136.5 57.64 136.85 61.67 137.2 66.18 137.55 66.18 137.89 63.57 138.24 64.75 138.59 62.38 138.94 56.46 139.29 55.04 139.64 57.41 139.99 55.04 140.34 51.72 140.69 55.75 141.04 54.56 141.39 55.04 141.73 54.56 142.08 55.75 142.43 50.77 142.78 54.32 143.13 54.09 143.48 58.59 143.83 60.72 144.18 59.06 144.53 57.41 144.88 60.49 145.23 56.46 145.58 54.32 145.92 53.61 146.27 54.56 146.62 59.3 146.97 55.27 147.32 55.98 147.67 54.8 148.02 55.51 148.37 51.01 148.72 46.98 149.07 43.42 149.42 40.1 149.76 43.19 150.11 46.27 150.46 42.71 150.81 43.42 151.16 42.71 151.51 40.58 151.86 42 152.21 43.66 152.56 46.98 152.91 45.79 153.26 49.58 153.61 52.19 153.95 54.09 154.3 53.85 154.65 51.01 155 49.58 155.35 49.35 155.7 46.27 156.05 42 156.4 38.45 156.75 40.34 157.1 41.76 157.45 41.29 157.79 38.45 158.14 39.16 158.49 38.45 158.84 38.21 159.19 42.47 159.54 39.39 159.89 38.92 160.24 42.95 160.59 38.68 160.94 37.73 161.29 37.97 161.64 39.63 161.98 37.97 162.33 37.5 162.68 38.21 163.03 41.05 163.38 38.45 163.73 41.29 164.08 38.92 164.43 38.92 164.78 39.39 165.13 40.58 165.48 40.58 165.83 38.68 166.17 41.53 166.52 42.47 166.87 42.47 167.22 43.42 167.57 42.71 167.92 43.42 168.27 41.05 168.62 39.39 168.97 37.5 169.32 34.89 169.67 35.6 170.01 32.99 170.36 32.76 170.71 34.42 171.06 36.08 171.41 35.36 171.76 33.71 172.11 35.36 172.46 34.65 172.81 33.47 173.16 31.1 173.51 29.44 173.86 26.83 174.2 24.94 174.55 27.78 174.9 28.73 175.25 28.97 175.6 26.6 175.95 26.12 176.3 23.75 176.65 23.99 177 21.38 177.35 21.62 177.7 19.72 178.04 18.77 178.39 20.67 178.74 21.62 179.09 21.38 179.44 21.38 179.79 21.62 180.14 22.57 180.49 20.91 180.84 20.91 181.19 22.57 181.54 25.17 181.89 26.6 182.23 23.75 182.58 22.8 182.93 23.28 183.28 23.75 183.63 23.75 183.98 26.36 184.33 23.28 184.68 22.8 185.03 22.8 185.38 20.2 185.73 20.43 186.08 21.14 186.42 20.43 186.77 21.14 187.12 20.43 187.47 19.01 187.82 19.48 188.17 19.48 188.52 19.72 188.87 20.43 189.22 20.91 189.57 20.67 189.92 22.33 190.26 22.8 190.61 22.33 190.96 24.46 191.31 25.65 191.66 26.6 192.01 27.78 192.36 26.6 192.71 27.78 193.06 25.88 193.41 22.8 193.76 21.85 194.11 22.09 194.45 20.67 194.8 20.2 195.15 21.38 195.5 21.14 195.85 22.09 196.2 19.48"/>
      </g>
      <g stroke-width="0.3" fill="#000000" fill-opacity="0.000" class="geometry" stroke-dasharray="none" stroke="#FFFFBF" id="img-89ac5e8d-14">
        <path fill="none" d="M21.98,71.86 L 22.33 74.23 22.68 71.63 23.03 69.02 23.38 69.73 23.73 71.39 24.08 72.57 24.42 69.97 24.77 70.44 25.12 71.39 25.47 66.18 25.82 64.28 26.17 63.81 26.52 63.33 26.87 63.81 27.22 63.09 27.57 64.04 27.92 66.41 28.27 68.78 28.61 68.55 28.96 68.07 29.31 65.94 29.66 64.28 30.01 63.09 30.36 65.7 30.71 68.07 31.06 66.18 31.41 72.1 31.76 76.37 32.11 75.66 32.45 73.76 32.8 70.44 33.15 72.34 33.5 75.18 33.85 73.76 34.2 77.31 34.55 74.23 34.9 73.52 35.25 73.05 35.6 71.39 35.95 71.63 36.3 76.6 36.64 78.03 36.99 76.6 37.34 70.44 37.69 69.49 38.04 70.68 38.39 74.47 38.74 70.2 39.09 74 39.44 76.6 39.79 72.1 40.14 70.2 40.49 71.63 40.83 70.44 41.18 71.15 41.53 76.84 41.88 76.6 42.23 77.55 42.58 72.57 42.93 71.15 43.28 72.57 43.63 69.49 43.98 70.44 44.33 67.36 44.67 70.92 45.02 70.68 45.37 69.49 45.72 72.34 46.07 69.49 46.42 69.49 46.77 75.18 47.12 75.89 47.47 74.23 47.82 70.68 48.17 72.57 48.52 69.02 48.86 66.89 49.21 70.2 49.56 72.81 49.91 70.92 50.26 68.78 50.61 69.02 50.96 68.07 51.31 66.41 51.66 62.62 52.01 59.3 52.36 63.81 52.7 62.38 53.05 63.81 53.4 66.65 53.75 67.83 54.1 68.78 54.45 70.68 54.8 68.31 55.15 65.7 55.5 63.81 55.85 63.09 56.2 63.09 56.55 60.01 56.89 60.72 57.24 59.3 57.59 61.67 57.94 60.96 58.29 57.88 58.64 56.69 58.99 59.78 59.34 58.59 59.69 52.19 60.04 54.56 60.39 55.98 60.73 59.78 61.08 59.06 61.43 58.12 61.78 54.56 62.13 53.14 62.48 51.24 62.83 48.4 63.18 50.53 63.53 50.53 63.88 46.74 64.23 48.16 64.58 50.3 64.92 48.87 65.27 46.03 65.62 46.98 65.97 46.5 66.32 51.24 66.67 48.87 67.02 49.58 67.37 51.24 67.72 51.24 68.07 50.53 68.42 49.11 68.77 47.21 69.11 45.56 69.46 44.84 69.81 45.79 70.16 39.87 70.51 41.05 70.86 44.84 71.21 42.71 71.56 41.05 71.91 38.68 72.26 34.18 72.61 31.81 72.95 31.81 73.3 33.23 73.65 34.18 74 34.18 74.35 33.23 74.7 36.79 75.05 34.89 75.4 34.18 75.75 36.08 76.1 37.97 76.45 37.26 76.8 36.08 77.14 33.71 77.49 31.81 77.84 32.28 78.19 34.89 78.54 36.08 78.89 37.97 79.24 35.6 79.59 38.21 79.94 39.16 80.29 41.05 80.64 39.16 80.98 39.16 81.33 37.26 81.68 35.36 82.03 35.36 82.38 33.94 82.73 30.62 83.08 27.54 83.43 28.49 83.78 28.49 84.13 29.2 84.48 28.97 84.83 32.99 85.17 32.28 85.52 32.52 85.87 31.34 86.22 29.68 86.57 26.12 86.92 25.17 87.27 29.68 87.62 30.39 87.97 28.97 88.32 30.15 88.67 25.88 89.02 25.17 89.36 22.09 89.71 23.51 90.06 23.99 90.41 25.17 90.76 24.46 91.11 25.88 91.46 25.41 91.81 23.99 92.16 23.75 92.51 21.14 92.86 19.72 93.2 18.54 93.55 18.3 93.9 17.59 94.25 16.4 94.6 15.46 94.95 14.74 95.3 15.69 95.65 16.88 96 16.17 96.35 15.93 96.7 15.69 97.05 14.98 97.39 14.98 97.74 14.98 98.09 14.98 98.44 14.98 98.79 14.98 99.14 14.27 99.49 15.93 99.84 15.46 100.19 16.88 100.54 17.11 100.89 16.64 101.23 17.59 101.58 18.54 101.93 17.59 102.28 18.77 102.63 18.3 102.98 16.64 103.33 15.22 103.68 14.51 104.03 14.03 104.38 14.51 104.73 14.27 105.08 14.51 105.42 15.46 105.77 15.69 106.12 15.93 106.47 15.93 106.82 17.11 107.17 16.4 107.52 16.4 107.87 16.88 108.22 17.35 108.57 17.11 108.92 16.17 109.26 17.83 109.61 18.77 109.96 19.01 110.31 17.83 110.66 18.06 111.01 15.69 111.36 15.46 111.71 15.93 112.06 16.17 112.41 16.4 112.76 17.35 113.11 17.59 113.45 19.48 113.8 22.33 114.15 21.38 114.5 18.3 114.85 18.77 115.2 17.11 115.55 18.77 115.9 18.54 116.25 19.96 116.6 23.04 116.95 22.57 117.3 22.8 117.64 23.04 117.99 25.65 118.34 24.94 118.69 22.8 119.04 21.85 119.39 22.33 119.74 20.2 120.09 22.57 120.44 21.85 120.79 22.09 121.14 23.28 121.48 25.41 121.83 27.31 122.18 26.6 122.53 28.73 122.88 27.31 123.23 28.97 123.58 29.2 123.93 28.25 124.28 25.65 124.63 28.25 124.98 27.78 125.33 31.57 125.67 30.62 126.02 28.97 126.37 29.2 126.72 26.36 127.07 25.65 127.42 25.41 127.77 27.07 128.12 25.88 128.47 24.46 128.82 22.8 129.17 20.2 129.51 19.96 129.86 23.51 130.21 24.22 130.56 26.12 130.91 27.54 131.26 27.31 131.61 25.17 131.96 24.46 132.31 23.28 132.66 24.46 133.01 24.22 133.36 27.07 133.7 25.41 134.05 23.51 134.4 24.94 134.75 26.6 135.1 26.83 135.45 25.88 135.8 25.88 136.15 26.83 136.5 26.83 136.85 25.65 137.2 25.65 137.55 26.12 137.89 26.83 138.24 26.83 138.59 31.34 138.94 29.68 139.29 29.2 139.64 29.44 139.99 31.1 140.34 31.57 140.69 31.57 141.04 31.57 141.39 34.18 141.73 33.71 142.08 32.52 142.43 32.28 142.78 33.23 143.13 33.23 143.48 34.65 143.83 35.13 144.18 34.42 144.53 32.05 144.88 31.57 145.23 31.1 145.58 28.73 145.92 25.88 146.27 26.83 146.62 26.6 146.97 27.07 147.32 28.49 147.67 26.12 148.02 25.88 148.37 25.17 148.72 23.99 149.07 23.99 149.42 24.46 149.76 25.41 150.11 24.22 150.46 23.04 150.81 22.8 151.16 23.04 151.51 24.22 151.86 23.04 152.21 21.38 152.56 21.38 152.91 22.33 153.26 24.7 153.61 24.46 153.95 23.99 154.3 24.46 154.65 23.99 155 25.17 155.35 23.99 155.7 23.28 156.05 22.33 156.4 24.94 156.75 26.36 157.1 27.78 157.45 27.07 157.79 26.36 158.14 28.25 158.49 28.97 158.84 30.15 159.19 28.73 159.54 26.12 159.89 27.78 160.24 28.73 160.59 32.05 160.94 34.42 161.29 32.28 161.64 35.84 161.98 34.65 162.33 34.42 162.68 35.84 163.03 34.65 163.38 37.26 163.73 41.05 164.08 41.05 164.43 41.29 164.78 42.47 165.13 43.66 165.48 48.64 165.83 46.03 166.17 46.03 166.52 44.61 166.87 42.71 167.22 44.84 167.57 49.35 167.92 51.24 168.27 48.64 168.62 45.79 168.97 42.24 169.32 42.71 169.67 41.05 170.01 42.24 170.36 37.26 170.71 37.02 171.06 34.89 171.41 35.36 171.76 34.42 172.11 36.55 172.46 35.84 172.81 38.45 173.16 39.63 173.51 38.68 173.86 36.08 174.2 33.47 174.55 33.47 174.9 29.68 175.25 29.2 175.6 32.05 175.95 31.57 176.3 34.18 176.65 32.76 177 29.91 177.35 29.91 177.7 29.68 178.04 27.31 178.39 26.12 178.74 28.73 179.09 31.1 179.44 28.25 179.79 29.91 180.14 26.36 180.49 28.25 180.84 30.15 181.19 30.39 181.54 28.02 181.89 30.39 182.23 29.68 182.58 28.97 182.93 29.44 183.28 28.49 183.63 27.07 183.98 26.12 184.33 26.6 184.68 27.54 185.03 28.25 185.38 28.49 185.73 25.17 186.08 23.99 186.42 23.51 186.77 22.33 187.12 25.41 187.47 25.41 187.82 27.31 188.17 27.78 188.52 26.6 188.87 26.6 189.22 27.78 189.57 28.25 189.92 30.62 190.26 29.2 190.61 26.83 190.96 30.39 191.31 26.6 191.66 23.99 192.01 22.57 192.36 22.57 192.71 22.09 193.06 24.46 193.41 23.04 193.76 21.14 194.11 21.62 194.45 24.22 194.8 25.65 195.15 28.97 195.5 32.52 195.85 33.47 196.2 34.65"/>
      </g>
      <g stroke-width="0.3" fill="#000000" fill-opacity="0.000" class="geometry" stroke-dasharray="none" stroke="#FEE08B" id="img-89ac5e8d-15">
        <path fill="none" d="M21.98,71.86 L 22.33 70.68 22.68 68.31 23.03 67.83 23.38 67.83 23.73 71.63 24.08 66.89 24.42 67.6 24.77 65.94 25.12 64.28 25.47 61.67 25.82 64.04 26.17 62.38 26.52 63.57 26.87 65.94 27.22 62.62 27.57 64.52 27.92 65.7 28.27 68.78 28.61 67.6 28.96 65.94 29.31 68.78 29.66 66.41 30.01 64.75 30.36 65.94 30.71 69.26 31.06 69.73 31.41 72.34 31.76 74.23 32.11 71.39 32.45 70.92 32.8 67.6 33.15 66.65 33.5 68.78 33.85 67.83 34.2 66.65 34.55 65.94 34.9 65.94 35.25 65.23 35.6 62.86 35.95 64.04 36.3 60.72 36.64 56.22 36.99 55.04 37.34 54.09 37.69 56.93 38.04 55.98 38.39 55.75 38.74 57.41 39.09 60.25 39.44 61.67 39.79 61.91 40.14 63.81 40.49 62.86 40.83 64.04 41.18 62.15 41.53 61.2 41.88 64.28 42.23 60.25 42.58 64.52 42.93 61.2 43.28 59.78 43.63 66.65 43.98 64.75 44.33 66.18 44.67 70.44 45.02 68.07 45.37 63.81 45.72 63.09 46.07 60.49 46.42 61.91 46.77 65.94 47.12 64.99 47.47 66.89 47.82 67.12 48.17 66.18 48.52 73.29 48.86 73.05 49.21 73.29 49.56 73.76 49.91 75.66 50.26 73.29 50.61 74.23 50.96 77.31 51.31 77.08 51.66 74.23 52.01 74.71 52.36 73.05 52.7 72.34 53.05 76.84 53.4 76.37 53.75 76.6 54.1 75.66 54.45 75.66 54.8 73.29 55.15 72.1 55.5 69.97 55.85 69.02 56.2 66.65 56.55 63.09 56.89 64.04 57.24 61.91 57.59 66.65 57.94 64.52 58.29 67.83 58.64 63.09 58.99 63.81 59.34 64.04 59.69 65.7 60.04 66.41 60.39 63.09 60.73 62.38 61.08 58.12 61.43 59.78 61.78 61.67 62.13 61.44 62.48 61.91 62.83 60.72 63.18 65.46 63.53 64.75 63.88 67.12 64.23 66.41 64.58 69.26 64.92 66.65 65.27 64.28 65.62 66.41 65.97 62.62 66.32 64.04 66.67 62.38 67.02 60.01 67.37 61.2 67.72 66.18 68.07 65.46 68.42 65.23 68.77 62.86 69.11 63.33 69.46 66.89 69.81 67.6 70.16 70.2 70.51 70.44 70.86 70.68 71.21 75.18 71.56 73.76 71.91 76.84 72.26 76.84 72.61 80.16 72.95 83.24 73.3 83 73.65 85.85 74 84.9 74.35 85.85 74.7 86.56 75.05 86.56 75.4 92.48 75.75 93.19 76.1 91.3 76.45 92.48 76.8 92.01 77.14 92.25 77.49 92.96 77.84 96.28 78.19 91.77 78.54 88.93 78.89 92.01 79.24 94.14 79.59 91.53 79.94 95.33 80.29 94.38 80.64 96.75 80.98 95.8 81.33 95.09 81.68 96.28 82.03 96.99 82.38 97.22 82.73 96.04 83.08 97.22 83.43 96.28 83.78 93.19 84.13 92.25 84.48 95.56 84.83 98.41 85.17 97.46 85.52 98.88 85.87 98.17 86.22 97.93 86.57 94.14 86.92 94.14 87.27 94.14 87.62 94.85 87.97 93.67 88.32 95.09 88.67 93.19 89.02 95.09 89.36 97.46 89.71 94.85 90.06 92.96 90.41 92.48 90.76 91.53 91.11 92.25 91.46 95.33 91.81 93.9 92.16 93.19 92.51 95.8 92.86 99.83 93.2 98.41 93.55 96.28 93.9 97.46 94.25 98.65 94.6 100.3 94.95 95.33 95.3 98.17 95.65 99.12 96 102.44 96.35 101.73 96.7 101.96 97.05 101.73 97.39 104.57 97.74 102.44 98.09 102.2 98.44 104.33 98.79 107.18 99.14 108.36 99.49 105.52 99.84 106.23 100.19 108.84 100.54 108.13 100.89 106.23 101.23 104.1 101.58 104.1 101.93 100.3 102.28 99.59 102.63 102.67 102.98 100.07 103.33 100.07 103.68 100.78 104.03 101.49 104.38 99.59 104.73 102.2 105.08 101.96 105.42 100.54 105.77 101.02 106.12 99.83 106.47 102.91 106.82 99.83 107.17 94.38 107.52 90.82 107.87 92.96 108.22 92.72 108.57 90.35 108.92 88.45 109.26 87.03 109.61 91.77 109.96 89.88 110.31 90.59 110.66 92.72 111.01 92.96 111.36 90.11 111.71 86.56 112.06 85.61 112.41 88.93 112.76 88.93 113.11 89.64 113.45 83.95 113.8 87.27 114.15 89.16 114.5 89.4 114.85 87.03 115.2 84.9 115.55 84.66 115.9 85.61 116.25 82.53 116.6 82.53 116.95 81.82 117.3 83.71 117.64 83.95 117.99 84.42 118.34 86.32 118.69 87.51 119.04 83 119.39 82.77 119.74 83.71 120.09 85.14 120.44 83.48 120.79 83.71 121.14 82.05 121.48 77.08 121.83 75.42 122.18 76.6 122.53 73.52 122.88 72.81 123.23 72.81 123.58 73.76 123.93 72.1 124.28 70.2 124.63 69.26 124.98 68.55 125.33 70.92 125.67 70.68 126.02 70.92 126.37 68.31 126.72 72.81 127.07 74 127.42 71.86 127.77 72.57 128.12 76.6 128.47 77.08 128.82 75.18 129.17 73.76 129.51 72.57 129.86 73.52 130.21 69.02 130.56 69.02 130.91 71.86 131.26 74.71 131.61 74.23 131.96 74.71 132.31 70.2 132.66 71.86 133.01 73.05 133.36 74.23 133.7 72.1 134.05 69.49 134.4 71.39 134.75 76.13 135.1 78.97 135.45 81.82 135.8 86.08 136.15 87.74 136.5 86.56 136.85 84.42 137.2 81.58 137.55 80.4 137.89 83.24 138.24 83.95 138.59 83.48 138.94 81.34 139.29 84.19 139.64 82.77 139.99 77.79 140.34 75.42 140.69 74.94 141.04 74.47 141.39 72.34 141.73 71.39 142.08 69.02 142.43 66.89 142.78 67.12 143.13 70.68 143.48 68.78 143.83 70.2 144.18 70.68 144.53 72.57 144.88 74.23 145.23 72.81 145.58 74.23 145.92 74.94 146.27 73.29 146.62 74.47 146.97 74.71 147.32 80.87 147.67 82.05 148.02 79.92 148.37 77.79 148.72 80.4 149.07 83.48 149.42 87.27 149.76 86.79 150.11 87.51 150.46 87.27 150.81 87.98 151.16 88.45 151.51 87.74 151.86 84.66 152.21 82.29 152.56 84.19 152.91 87.74 153.26 84.42 153.61 82.05 153.95 80.63 154.3 83.48 154.65 81.82 155 78.97 155.35 81.11 155.7 81.11 156.05 83.71 156.4 78.74 156.75 79.21 157.1 79.21 157.45 81.82 157.79 86.56 158.14 85.61 158.49 83 158.84 87.74 159.19 81.58 159.54 81.58 159.89 86.56 160.24 91.53 160.59 94.14 160.94 98.41 161.29 96.99 161.64 96.51 161.98 93.19 162.33 97.7 162.68 98.41 163.03 98.88 163.38 100.78 163.73 102.2 164.08 99.12 164.43 96.75 164.78 98.65 165.13 101.02 165.48 102.67 165.83 101.96 166.17 100.07 166.52 101.96 166.87 101.73 167.22 102.91 167.57 102.67 167.92 102.2 168.27 102.67 168.62 105.04 168.97 109.07 169.32 106.94 169.67 110.73 170.01 113.81 170.36 114.29 170.71 117.37 171.06 115 171.41 113.58 171.76 113.81 172.11 116.42 172.46 115.71 172.81 112.87 173.16 107.89 173.51 107.65 173.86 111.68 174.2 113.81 174.55 112.87 174.9 114.52 175.25 111.68 175.6 112.63 175.95 112.87 176.3 110.73 176.65 111.21 177 109.31 177.35 109.31 177.7 105.28 178.04 106.47 178.39 106.94 178.74 107.41 179.09 106.7 179.44 103.15 179.79 106.47 180.14 110.73 180.49 111.44 180.84 112.39 181.19 117.37 181.54 117.37 181.89 116.89 182.23 114.05 182.58 113.1 182.93 112.15 183.28 113.34 183.63 113.1 183.98 112.15 184.33 110.97 184.68 114.05 185.03 111.68 185.38 111.44 185.73 110.02 186.08 109.07 186.42 111.92 186.77 111.92 187.12 109.78 187.47 110.26 187.82 110.02 188.17 111.68 188.52 109.78 188.87 108.36 189.22 107.89 189.57 108.36 189.92 107.41 190.26 106.23 190.61 101.96 190.96 101.96 191.31 95.33 191.66 94.38 192.01 93.9 192.36 93.67 192.71 93.67 193.06 94.85 193.41 91.3 193.76 87.98 194.11 87.51 194.45 90.11 194.8 87.27 195.15 86.08 195.5 86.08 195.85 83.95 196.2 88.45"/>
      </g>
      <g stroke-width="0.3" fill="#000000" fill-opacity="0.000" class="geometry" stroke-dasharray="none" stroke="#FDAE61" id="img-89ac5e8d-16">
        <path fill="none" d="M21.98,71.86 L 22.33 70.68 22.68 69.49 23.03 69.26 23.38 70.2 23.73 66.89 24.08 73.29 24.42 68.78 24.77 68.07 25.12 68.78 25.47 69.73 25.82 67.36 26.17 69.73 26.52 69.02 26.87 70.92 27.22 70.68 27.57 71.86 27.92 74.23 28.27 74.47 28.61 76.37 28.96 75.66 29.31 76.13 29.66 80.16 30.01 80.16 30.36 80.87 30.71 79.92 31.06 81.82 31.41 83 31.76 91.06 32.11 88.45 32.45 85.37 32.8 84.9 33.15 91.3 33.5 91.06 33.85 89.16 34.2 87.98 34.55 87.51 34.9 88.45 35.25 90.82 35.6 90.59 35.95 92.96 36.3 92.25 36.64 90.59 36.99 86.08 37.34 86.79 37.69 84.66 38.04 82.29 38.39 80.63 38.74 84.19 39.09 85.61 39.44 87.03 39.79 83.71 40.14 84.19 40.49 82.53 40.83 84.66 41.18 84.9 41.53 87.74 41.88 87.74 42.23 85.61 42.58 87.03 42.93 89.88 43.28 87.98 43.63 91.06 43.98 91.53 44.33 91.53 44.67 92.96 45.02 92.25 45.37 90.11 45.72 90.11 46.07 88.93 46.42 91.3 46.77 92.96 47.12 92.01 47.47 88.69 47.82 86.32 48.17 85.85 48.52 86.32 48.86 87.51 49.21 87.03 49.56 86.32 49.91 85.37 50.26 83.95 50.61 83.24 50.96 82.05 51.31 83.71 51.66 82.05 52.01 85.61 52.36 87.74 52.7 85.37 53.05 83.71 53.4 78.5 53.75 80.87 54.1 83.24 54.45 84.42 54.8 84.9 55.15 87.27 55.5 90.82 55.85 90.82 56.2 89.16 56.55 85.61 56.89 85.85 57.24 85.61 57.59 88.69 57.94 89.4 58.29 86.08 58.64 83.24 58.99 86.79 59.34 88.45 59.69 86.79 60.04 86.08 60.39 88.45 60.73 87.51 61.08 88.93 61.43 85.61 61.78 84.19 62.13 83.71 62.48 85.61 62.83 91.06 63.18 92.25 63.53 90.35 63.88 87.51 64.23 90.35 64.58 92.96 64.92 92.96 65.27 89.4 65.62 89.88 65.97 88.93 66.32 94.38 66.67 94.85 67.02 94.85 67.37 94.62 67.72 95.8 68.07 91.77 68.42 96.75 68.77 98.65 69.11 99.83 69.46 101.73 69.81 106.23 70.16 107.18 70.51 108.36 70.86 105.28 71.21 106.47 71.56 105.04 71.91 103.86 72.26 105.76 72.61 105.04 72.95 102.67 73.3 101.96 73.65 105.52 74 105.99 74.35 106.23 74.7 103.39 75.05 103.15 75.4 104.81 75.75 106.47 76.1 105.99 76.45 103.86 76.8 103.39 77.14 105.76 77.49 107.18 77.84 103.39 78.19 103.15 78.54 104.33 78.89 104.81 79.24 108.13 79.59 105.28 79.94 101.73 80.29 103.39 80.64 101.49 80.98 101.96 81.33 100.78 81.68 101.49 82.03 96.99 82.38 95.09 82.73 95.33 83.08 98.17 83.43 100.07 83.78 99.12 84.13 99.36 84.48 104.33 84.83 103.62 85.17 105.99 85.52 108.84 85.87 110.02 86.22 110.5 86.57 110.97 86.92 111.21 87.27 112.63 87.62 110.26 87.97 111.92 88.32 107.89 88.67 108.84 89.02 108.6 89.36 106.23 89.71 107.89 90.06 108.84 90.41 109.31 90.76 109.07 91.11 107.65 91.46 108.84 91.81 106.47 92.16 104.81 92.51 103.86 92.86 105.99 93.2 104.1 93.55 104.1 93.9 109.07 94.25 109.07 94.6 107.89 94.95 107.65 95.3 109.07 95.65 107.89 96 110.97 96.35 113.1 96.7 114.29 97.05 114.29 97.39 111.44 97.74 113.34 98.09 112.87 98.44 115.47 98.79 111.92 99.14 116.66 99.49 117.37 99.84 120.45 100.19 120.69 100.54 118.79 100.89 116.89 101.23 116.89 101.58 115.47 101.93 116.89 102.28 115.71 102.63 115.71 102.98 114.05 103.33 111.21 103.68 111.68 104.03 107.65 104.38 107.41 104.73 105.04 105.08 103.62 105.42 102.2 105.77 105.04 106.12 105.76 106.47 108.6 106.82 107.41 107.17 106.94 107.52 106.94 107.87 105.76 108.22 107.18 108.57 105.76 108.92 102.44 109.26 98.41 109.61 98.41 109.96 98.41 110.31 99.12 110.66 95.8 111.01 93.9 111.36 92.01 111.71 91.06 112.06 89.88 112.41 87.74 112.76 87.74 113.11 86.56 113.45 84.19 113.8 81.34 114.15 85.61 114.5 87.03 114.85 87.03 115.2 85.14 115.55 86.32 115.9 85.61 116.25 91.3 116.6 87.98 116.95 88.45 117.3 90.35 117.64 89.4 117.99 89.16 118.34 93.67 118.69 96.28 119.04 98.17 119.39 97.46 119.74 97.93 120.09 100.3 120.44 100.54 120.79 102.44 121.14 102.2 121.48 102.44 121.83 101.49 122.18 96.51 122.53 101.73 122.88 103.39 123.23 100.54 123.58 98.17 123.93 97.7 124.28 95.33 124.63 91.06 124.98 87.98 125.33 81.11 125.67 83.95 126.02 85.61 126.37 85.85 126.72 80.16 127.07 80.87 127.42 78.74 127.77 81.58 128.12 83 128.47 82.29 128.82 77.31 129.17 77.31 129.51 79.45 129.86 77.31 130.21 76.13 130.56 77.79 130.91 82.29 131.26 80.16 131.61 80.63 131.96 78.03 132.31 74 132.66 73.05 133.01 70.68 133.36 73.52 133.7 77.31 134.05 73.05 134.4 72.81 134.75 71.63 135.1 67.83 135.45 67.6 135.8 68.31 136.15 64.99 136.5 66.41 136.85 61.44 137.2 66.41 137.55 67.36 137.89 64.04 138.24 66.41 138.59 69.73 138.94 66.41 139.29 68.07 139.64 67.12 139.99 64.75 140.34 68.07 140.69 75.66 141.04 73.52 141.39 73.05 141.73 71.39 142.08 69.02 142.43 68.55 142.78 70.2 143.13 69.02 143.48 69.73 143.83 74.23 144.18 75.18 144.53 72.1 144.88 69.02 145.23 65.23 145.58 69.49 145.92 71.15 146.27 70.2 146.62 69.97 146.97 71.15 147.32 72.34 147.67 72.57 148.02 75.89 148.37 73.29 148.72 72.57 149.07 72.34 149.42 72.1 149.76 67.6 150.11 68.31 150.46 66.18 150.81 64.28 151.16 62.62 151.51 63.57 151.86 63.09 152.21 62.62 152.56 64.04 152.91 64.52 153.26 66.41 153.61 67.36 153.95 66.65 154.3 63.57 154.65 64.75 155 65.7 155.35 67.36 155.7 69.02 156.05 68.07 156.4 67.83 156.75 66.41 157.1 68.07 157.45 66.41 157.79 64.28 158.14 64.99 158.49 65.46 158.84 64.04 159.19 61.67 159.54 60.25 159.89 58.12 160.24 62.38 160.59 59.54 160.94 60.49 161.29 57.41 161.64 62.86 161.98 58.83 162.33 57.41 162.68 56.46 163.03 58.35 163.38 61.67 163.73 63.81 164.08 67.6 164.43 66.65 164.78 71.15 165.13 67.36 165.48 66.65 165.83 64.28 166.17 63.81 166.52 59.3 166.87 55.51 167.22 54.32 167.57 56.69 167.92 61.91 168.27 62.62 168.62 57.88 168.97 59.3 169.32 54.09 169.67 56.93 170.01 52.67 170.36 55.75 170.71 56.46 171.06 57.41 171.41 60.25 171.76 61.67 172.11 59.78 172.46 55.75 172.81 56.93 173.16 51.95 173.51 51.95 173.86 47.69 174.2 51.95 174.55 52.9 174.9 50.77 175.25 49.58 175.6 50.06 175.95 52.43 176.3 50.06 176.65 42.95 177 46.03 177.35 47.21 177.7 44.84 178.04 49.35 178.39 48.87 178.74 51.01 179.09 48.87 179.44 47.45 179.79 48.16 180.14 47.21 180.49 50.06 180.84 54.8 181.19 56.46 181.54 56.69 181.89 56.69 182.23 58.35 182.58 61.2 182.93 62.15 183.28 58.83 183.63 57.41 183.98 57.41 184.33 62.38 184.68 59.78 185.03 60.49 185.38 61.2 185.73 58.59 186.08 59.54 186.42 60.49 186.77 62.38 187.12 64.75 187.47 61.44 187.82 62.62 188.17 58.59 188.52 57.17 188.87 60.49 189.22 60.01 189.57 59.3 189.92 57.41 190.26 53.38 190.61 52.9 190.96 52.43 191.31 49.11 191.66 46.74 192.01 44.84 192.36 44.37 192.71 42.95 193.06 43.66 193.41 42 193.76 41.29 194.11 41.29 194.45 42.24 194.8 38.45 195.15 34.65 195.5 32.52 195.85 32.05 196.2 29.44"/>
      </g>
      <g stroke-width="0.3" fill="#000000" fill-opacity="0.000" class="geometry" stroke-dasharray="none" stroke="#F46D43" id="img-89ac5e8d-17">
        <path fill="none" d="M21.98,71.86 L 22.33 70.92 22.68 67.6 23.03 68.78 23.38 71.15 23.73 71.86 24.08 70.68 24.42 74 24.77 70.68 25.12 67.36 25.47 74.23 25.82 77.08 26.17 80.16 26.52 77.08 26.87 75.42 27.22 75.66 27.57 75.89 27.92 74.23 28.27 74 28.61 72.57 28.96 72.81 29.31 73.29 29.66 74.94 30.01 72.81 30.36 69.97 30.71 70.68 31.06 66.18 31.41 70.2 31.76 72.1 32.11 75.89 32.45 78.26 32.8 78.26 33.15 78.03 33.5 79.68 33.85 75.89 34.2 74.71 34.55 76.6 34.9 71.15 35.25 72.57 35.6 74.23 35.95 70.68 36.3 70.2 36.64 68.55 36.99 69.02 37.34 65.23 37.69 65.7 38.04 66.18 38.39 65.7 38.74 68.78 39.09 66.89 39.44 68.55 39.79 69.97 40.14 73.05 40.49 82.05 40.83 79.92 41.18 82.77 41.53 83.48 41.88 85.61 42.23 87.27 42.58 90.82 42.93 92.48 43.28 94.85 43.63 91.3 43.98 90.35 44.33 87.98 44.67 86.32 45.02 84.42 45.37 87.98 45.72 90.59 46.07 90.35 46.42 87.27 46.77 94.38 47.12 89.4 47.47 85.37 47.82 83 48.17 83 48.52 82.77 48.86 84.19 49.21 89.4 49.56 89.4 49.91 87.51 50.26 87.03 50.61 87.51 50.96 90.35 51.31 92.96 51.66 93.43 52.01 92.96 52.36 91.53 52.7 93.19 53.05 94.85 53.4 91.77 53.75 91.06 54.1 92.48 54.45 90.35 54.8 91.06 55.15 94.85 55.5 96.99 55.85 101.02 56.2 96.51 56.55 96.99 56.89 100.07 57.24 96.75 57.59 92.96 57.94 92.01 58.29 90.35 58.64 91.3 58.99 92.48 59.34 93.43 59.69 96.28 60.04 96.28 60.39 93.67 60.73 93.67 61.08 95.8 61.43 91.53 61.78 91.3 62.13 88.45 62.48 86.32 62.83 88.45 63.18 88.93 63.53 85.85 63.88 81.58 64.23 82.53 64.58 82.77 64.92 82.29 65.27 83.24 65.62 84.66 65.97 87.51 66.32 88.45 66.67 89.16 67.02 91.3 67.37 91.53 67.72 90.59 68.07 85.37 68.42 84.42 68.77 85.14 69.11 87.27 69.46 92.25 69.81 92.25 70.16 90.11 70.51 89.4 70.86 91.53 71.21 80.4 71.56 78.03 71.91 80.16 72.26 81.11 72.61 83.48 72.95 84.19 73.3 90.11 73.65 89.4 74 86.32 74.35 87.27 74.7 92.25 75.05 95.09 75.4 97.22 75.75 96.04 76.1 94.85 76.45 94.62 76.8 93.9 77.14 93.19 77.49 97.22 77.84 95.8 78.19 98.17 78.54 96.99 78.89 95.56 79.24 96.75 79.59 95.8 79.94 94.14 80.29 97.46 80.64 99.83 80.98 97.22 81.33 97.93 81.68 98.41 82.03 97.22 82.38 95.8 82.73 94.14 83.08 92.48 83.43 93.67 83.78 96.51 84.13 97.22 84.48 95.8 84.83 100.3 85.17 95.56 85.52 93.19 85.87 93.19 86.22 93.9 86.57 94.85 86.92 96.28 87.27 97.46 87.62 98.88 87.97 97.22 88.32 95.09 88.67 93.9 89.02 93.19 89.36 96.04 89.71 98.65 90.06 95.09 90.41 97.46 90.76 98.41 91.11 98.17 91.46 97.7 91.81 94.62 92.16 94.85 92.51 94.62 92.86 97.46 93.2 97.22 93.55 98.17 93.9 96.99 94.25 97.93 94.6 96.75 94.95 97.93 95.3 98.65 95.65 102.67 96 103.62 96.35 106.7 96.7 106.23 97.05 109.55 97.39 108.84 97.74 105.52 98.09 109.55 98.44 110.73 98.79 111.68 99.14 109.07 99.49 110.5 99.84 110.26 100.19 109.78 100.54 107.18 100.89 105.28 101.23 102.2 101.58 101.96 101.93 100.07 102.28 102.91 102.63 103.86 102.98 105.99 103.33 105.99 103.68 105.04 104.03 104.81 104.38 104.57 104.73 107.18 105.08 105.04 105.42 106.7 105.77 103.86 106.12 98.65 106.47 103.15 106.82 101.49 107.17 105.28 107.52 104.1 107.87 105.28 108.22 103.86 108.57 100.3 108.92 101.02 109.26 101.73 109.61 100.3 109.96 98.41 110.31 97.46 110.66 97.46 111.01 96.51 111.36 95.56 111.71 96.51 112.06 96.28 112.41 96.75 112.76 99.59 113.11 97.7 113.45 94.85 113.8 94.14 114.15 96.04 114.5 94.38 114.85 92.96 115.2 93.43 115.55 92.96 115.9 94.62 116.25 98.41 116.6 95.8 116.95 92.48 117.3 92.72 117.64 93.43 117.99 92.48 118.34 97.22 118.69 95.8 119.04 92.48 119.39 91.06 119.74 88.45 120.09 85.61 120.44 85.85 120.79 88.93 121.14 86.79 121.48 88.69 121.83 87.74 122.18 87.98 122.53 84.42 122.88 84.42 123.23 87.98 123.58 92.01 123.93 88.93 124.28 89.4 124.63 89.88 124.98 86.56 125.33 86.32 125.67 85.37 126.02 88.93 126.37 90.35 126.72 93.43 127.07 92.96 127.42 86.79 127.77 88.45 128.12 90.11 128.47 91.3 128.82 88.22 129.17 84.66 129.51 86.56 129.86 85.37 130.21 85.61 130.56 84.19 130.91 77.55 131.26 76.13 131.61 78.5 131.96 77.55 132.31 76.13 132.66 71.39 133.01 71.63 133.36 71.39 133.7 72.34 134.05 68.78 134.4 66.89 134.75 65.7 135.1 61.91 135.45 64.52 135.8 67.6 136.15 66.18 136.5 64.75 136.85 65.46 137.2 62.38 137.55 60.25 137.89 56.69 138.24 54.8 138.59 55.27 138.94 56.69 139.29 54.32 139.64 55.04 139.99 54.56 140.34 56.22 140.69 57.64 141.04 56.46 141.39 52.19 141.73 50.53 142.08 50.77 142.43 52.43 142.78 56.93 143.13 66.18 143.48 68.78 143.83 69.73 144.18 69.73 144.53 72.57 144.88 70.92 145.23 71.63 145.58 72.81 145.92 74.47 146.27 74.23 146.62 75.18 146.97 73.05 147.32 73.76 147.67 77.79 148.02 83.24 148.37 81.11 148.72 75.18 149.07 75.42 149.42 76.13 149.76 78.5 150.11 76.37 150.46 75.18 150.81 76.84 151.16 78.97 151.51 74.23 151.86 73.05 152.21 73.05 152.56 70.2 152.91 72.1 153.26 72.1 153.61 69.49 153.95 71.63 154.3 73.76 154.65 77.55 155 70.68 155.35 72.34 155.7 68.07 156.05 64.28 156.4 65.7 156.75 63.09 157.1 62.15 157.45 58.59 157.79 66.18 158.14 67.36 158.49 66.89 158.84 64.75 159.19 64.28 159.54 62.62 159.89 61.2 160.24 59.78 160.59 56.93 160.94 60.72 161.29 63.57 161.64 65.23 161.98 65.46 162.33 62.38 162.68 60.01 163.03 60.96 163.38 59.06 163.73 55.75 164.08 57.64 164.43 60.01 164.78 58.12 165.13 56.69 165.48 54.8 165.83 54.56 166.17 53.14 166.52 55.51 166.87 60.25 167.22 58.83 167.57 58.59 167.92 52.19 168.27 54.56 168.62 55.27 168.97 57.64 169.32 59.78 169.67 62.15 170.01 62.62 170.36 55.27 170.71 55.04 171.06 56.22 171.41 57.64 171.76 56.69 172.11 60.01 172.46 62.38 172.81 61.2 173.16 64.04 173.51 66.65 173.86 70.92 174.2 74.71 174.55 74 174.9 77.08 175.25 79.92 175.6 78.26 175.95 78.74 176.3 78.74 176.65 82.05 177 83.48 177.35 81.11 177.7 80.87 178.04 83.71 178.39 80.63 178.74 77.55 179.09 75.18 179.44 76.13 179.79 77.31 180.14 76.13 180.49 76.13 180.84 75.42 181.19 74.94 181.54 74.47 181.89 70.92 182.23 70.92 182.58 69.97 182.93 71.86 183.28 72.57 183.63 67.12 183.98 67.83 184.33 66.89 184.68 63.57 185.03 62.86 185.38 61.67 185.73 58.83 186.08 60.96 186.42 60.01 186.77 61.44 187.12 58.12 187.47 55.75 187.82 52.67 188.17 54.56 188.52 52.43 188.87 54.32 189.22 50.53 189.57 51.01 189.92 53.14 190.26 53.85 190.61 55.27 190.96 54.09 191.31 49.35 191.66 46.98 192.01 47.69 192.36 50.06 192.71 50.3 193.06 53.85 193.41 54.56 193.76 53.85 194.11 55.75 194.45 53.38 194.8 53.85 195.15 53.85 195.5 54.32 195.85 54.8 196.2 57.41"/>
      </g>
      <g stroke-width="0.3" fill="#000000" fill-opacity="0.000" class="geometry" stroke-dasharray="none" stroke="#D53E4F" id="img-89ac5e8d-18">
        <path fill="none" d="M21.98,71.86 L 22.33 69.97 22.68 68.78 23.03 71.39 23.38 71.86 23.73 70.92 24.08 68.31 24.42 67.83 24.77 69.02 25.12 73.05 25.47 73.52 25.82 72.34 26.17 71.86 26.52 74 26.87 73.05 27.22 73.29 27.57 75.89 27.92 74.47 28.27 72.81 28.61 75.18 28.96 74.47 29.31 72.81 29.66 70.44 30.01 72.57 30.36 72.1 30.71 67.6 31.06 62.38 31.41 59.54 31.76 62.15 32.11 63.33 32.45 66.65 32.8 68.55 33.15 69.97 33.5 69.02 33.85 73.52 34.2 74.23 34.55 79.92 34.9 80.4 35.25 83.71 35.6 85.14 35.95 83.48 36.3 82.77 36.64 80.87 36.99 76.37 37.34 75.89 37.69 76.84 38.04 75.89 38.39 82.77 38.74 84.42 39.09 84.42 39.44 90.35 39.79 86.32 40.14 87.27 40.49 86.08 40.83 86.79 41.18 85.14 41.53 79.21 41.88 79.68 42.23 81.58 42.58 85.14 42.93 86.08 43.28 88.22 43.63 91.06 43.98 92.72 44.33 97.22 44.67 98.88 45.02 98.65 45.37 100.07 45.72 101.49 46.07 101.25 46.42 101.25 46.77 101.96 47.12 99.83 47.47 101.02 47.82 98.88 48.17 99.12 48.52 97.46 48.86 94.38 49.21 94.38 49.56 93.19 49.91 95.09 50.26 94.14 50.61 96.28 50.96 98.17 51.31 101.96 51.66 102.44 52.01 104.1 52.36 101.96 52.7 103.86 53.05 99.12 53.4 94.14 53.75 93.19 54.1 91.06 54.45 96.28 54.8 97.93 55.15 100.54 55.5 98.88 55.85 99.36 56.2 97.7 56.55 98.41 56.89 98.17 57.24 99.36 57.59 101.02 57.94 99.83 58.29 98.17 58.64 100.07 58.99 99.59 59.34 97.46 59.69 98.17 60.04 97.22 60.39 98.65 60.73 104.1 61.08 107.41 61.43 109.78 61.78 107.89 62.13 105.04 62.48 100.3 62.83 100.54 63.18 100.78 63.53 98.65 63.88 101.02 64.23 103.15 64.58 102.67 64.92 100.78 65.27 102.67 65.62 100.3 65.97 101.96 66.32 99.59 66.67 100.3 67.02 98.65 67.37 102.44 67.72 105.28 68.07 107.89 68.42 108.84 68.77 109.31 69.11 107.18 69.46 109.78 69.81 108.84 70.16 110.73 70.51 110.5 70.86 110.26 71.21 105.99 71.56 109.31 71.91 109.07 72.26 110.26 72.61 112.87 72.95 110.02 73.3 110.97 73.65 111.44 74 109.31 74.35 110.02 74.7 110.97 75.05 111.21 75.4 110.26 75.75 110.73 76.1 113.1 76.45 112.87 76.8 114.76 77.14 110.5 77.49 109.55 77.84 110.97 78.19 115.47 78.54 116.89 78.89 115.24 79.24 114.05 79.59 115.71 79.94 115 80.29 113.1 80.64 110.26 80.98 107.41 81.33 105.99 81.68 102.67 82.03 99.59 82.38 98.88 82.73 99.83 83.08 97.93 83.43 96.99 83.78 100.3 84.13 101.96 84.48 98.17 84.83 95.09 85.17 90.82 85.52 91.53 85.87 94.14 86.22 91.3 86.57 90.82 86.92 88.45 87.27 84.9 87.62 88.69 87.97 88.93 88.32 86.79 88.67 88.45 89.02 87.03 89.36 88.45 89.71 90.11 90.06 90.82 90.41 91.53 90.76 92.25 91.11 92.96 91.46 93.19 91.81 90.82 92.16 93.67 92.51 92.96 92.86 96.75 93.2 95.56 93.55 98.41 93.9 95.8 94.25 96.51 94.6 98.65 94.95 100.54 95.3 100.07 95.65 101.96 96 102.44 96.35 99.59 96.7 100.07 97.05 98.88 97.39 101.73 97.74 104.1 98.09 100.78 98.44 100.3 98.79 99.83 99.14 99.83 99.49 96.75 99.84 97.93 100.19 98.88 100.54 101.02 100.89 99.83 101.23 100.54 101.58 100.3 101.93 101.96 102.28 100.3 102.63 96.28 102.98 98.17 103.33 96.51 103.68 98.65 104.03 97.22 104.38 94.14 104.73 100.07 105.08 104.33 105.42 105.52 105.77 105.28 106.12 102.2 106.47 101.49 106.82 97.93 107.17 101.02 107.52 103.62 107.87 103.86 108.22 105.04 108.57 107.89 108.92 106.7 109.26 106.47 109.61 104.33 109.96 102.91 110.31 105.99 110.66 104.81 111.01 103.15 111.36 101.25 111.71 98.65 112.06 94.62 112.41 95.8 112.76 94.38 113.11 92.72 113.45 94.62 113.8 95.33 114.15 96.75 114.5 91.53 114.85 93.67 115.2 93.67 115.55 94.38 115.9 95.56 116.25 96.28 116.6 97.93 116.95 98.17 117.3 100.07 117.64 97.93 117.99 94.62 118.34 101.02 118.69 99.83 119.04 101.02 119.39 100.78 119.74 100.54 120.09 99.83 120.44 100.78 120.79 101.49 121.14 102.44 121.48 103.86 121.83 104.57 122.18 103.15 122.53 101.49 122.88 105.04 123.23 105.99 123.58 106.47 123.93 105.99 124.28 104.81 124.63 108.36 124.98 108.6 125.33 106.23 125.67 107.89 126.02 106.94 126.37 105.76 126.72 107.89 127.07 104.33 127.42 106.23 127.77 108.84 128.12 113.1 128.47 111.44 128.82 115.24 129.17 114.76 129.51 115 129.86 115.24 130.21 116.42 130.56 112.39 130.91 111.68 131.26 110.73 131.61 113.1 131.96 114.52 132.31 113.81 132.66 110.97 133.01 109.55 133.36 109.78 133.7 109.55 134.05 110.02 134.4 113.58 134.75 111.68 135.1 109.78 135.45 109.07 135.8 109.78 136.15 108.84 136.5 107.18 136.85 108.13 137.2 107.18 137.55 109.78 137.89 111.21 138.24 114.05 138.59 111.92 138.94 112.15 139.29 108.36 139.64 108.84 139.99 109.31 140.34 109.07 140.69 110.5 141.04 109.78 141.39 112.39 141.73 111.92 142.08 111.68 142.43 112.15 142.78 111.68 143.13 111.92 143.48 111.44 143.83 112.15 144.18 113.1 144.53 113.81 144.88 114.52 145.23 112.87 145.58 111.21 145.92 111.44 146.27 110.26 146.62 108.36 146.97 106.7 147.32 108.84 147.67 111.68 148.02 114.05 148.37 112.87 148.72 114.76 149.07 112.15 149.42 112.63 149.76 114.29 150.11 115.71 150.46 115.47 150.81 115.47 151.16 113.34 151.51 112.15 151.86 113.81 152.21 117.37 152.56 119.03 152.91 121.16 153.26 120.92 153.61 122.11 153.95 124.48 154.3 123.77 154.65 125.19 155 125.19 155.35 125.66 155.7 125.9 156.05 125.19 156.4 123.77 156.75 124 157.1 125.43 157.45 124.72 157.79 122.35 158.14 121.87 158.49 121.16 158.84 119.98 159.19 120.45 159.54 121.87 159.89 123.29 160.24 121.63 160.59 120.21 160.94 120.92 161.29 122.35 161.64 121.16 161.98 121.4 162.33 122.35 162.68 120.69 163.03 120.92 163.38 120.21 163.73 121.63 164.08 123.06 164.43 122.11 164.78 120.92 165.13 123.77 165.48 123.29 165.83 121.16 166.17 122.82 166.52 122.11 166.87 122.82 167.22 119.98 167.57 122.35 167.92 122.82 168.27 120.69 168.62 120.21 168.97 120.92 169.32 120.21 169.67 118.08 170.01 118.08 170.36 118.55 170.71 119.26 171.06 120.45 171.41 122.11 171.76 124 172.11 123.53 172.46 124 172.81 123.06 173.16 122.82 173.51 121.4 173.86 120.92 174.2 121.16 174.55 121.16 174.9 121.16 175.25 123.53 175.6 122.58 175.95 118.08 176.3 116.18 176.65 118.08 177 116.89 177.35 118.08 177.7 115.71 178.04 115 178.39 115 178.74 114.76 179.09 118.79 179.44 115.24 179.79 117.37 180.14 116.18 180.49 118.55 180.84 113.81 181.19 115 181.54 115.71 181.89 118.08 182.23 119.26 182.58 119.74 182.93 120.69 183.28 120.69 183.63 118.79 183.98 116.18 184.33 117.13 184.68 117.61 185.03 118.08 185.38 118.08 185.73 115.95 186.08 115.24 186.42 115.95 186.77 114.05 187.12 115 187.47 114.76 187.82 115.95 188.17 116.89 188.52 119.03 188.87 117.37 189.22 115 189.57 113.34 189.92 111.68 190.26 107.89 190.61 109.55 190.96 107.41 191.31 105.28 191.66 102.91 192.01 106.94 192.36 101.73 192.71 103.15 193.06 102.67 193.41 105.99 193.76 107.65 194.11 106.47 194.45 106.7 194.8 108.36 195.15 110.5 195.5 106.7 195.85 105.99 196.2 104.57"/>
      </g>
      <g stroke-width="0.3" fill="#000000" fill-opacity="0.000" class="geometry" stroke-dasharray="none" stroke="#9E0142" id="img-89ac5e8d-19">
        <path fill="none" d="M21.98,71.86 L 22.33 74.71 22.68 76.84 23.03 77.55 23.38 79.45 23.73 79.21 24.08 77.08 24.42 78.97 24.77 80.4 25.12 75.66 25.47 72.1 25.82 71.63 26.17 71.63 26.52 74.47 26.87 78.26 27.22 74.23 27.57 72.57 27.92 69.02 28.27 70.44 28.61 68.31 28.96 64.28 29.31 66.41 29.66 70.92 30.01 73.05 30.36 72.34 30.71 70.92 31.06 74.47 31.41 75.66 31.76 73.29 32.11 78.5 32.45 80.16 32.8 83.24 33.15 84.66 33.5 83.24 33.85 79.45 34.2 83.48 34.55 86.56 34.9 82.05 35.25 83.24 35.6 83.95 35.95 81.82 36.3 76.6 36.64 74.71 36.99 77.08 37.34 78.26 37.69 76.6 38.04 76.6 38.39 77.79 38.74 78.74 39.09 83.24 39.44 77.31 39.79 79.68 40.14 74.23 40.49 78.97 40.83 79.92 41.18 84.19 41.53 82.77 41.88 77.79 42.23 76.84 42.58 79.45 42.93 78.5 43.28 76.37 43.63 77.55 43.98 79.45 44.33 76.6 44.67 80.63 45.02 81.58 45.37 79.21 45.72 78.5 46.07 75.66 46.42 73.76 46.77 73.29 47.12 71.15 47.47 70.44 47.82 69.73 48.17 66.18 48.52 63.33 48.86 63.09 49.21 65.23 49.56 62.15 49.91 63.33 50.26 63.33 50.61 66.65 50.96 66.41 51.31 65.23 51.66 60.72 52.01 57.88 52.36 57.64 52.7 61.2 53.05 65.94 53.4 64.99 53.75 66.41 54.1 59.06 54.45 53.61 54.8 53.61 55.15 54.56 55.5 58.59 55.85 58.83 56.2 56.93 56.55 59.3 56.89 60.01 57.24 58.35 57.59 57.17 57.94 59.54 58.29 61.2 58.64 60.72 58.99 60.49 59.34 59.3 59.69 58.59 60.04 55.04 60.39 54.09 60.73 54.09 61.08 55.27 61.43 57.17 61.78 54.32 62.13 52.9 62.48 51.24 62.83 55.04 63.18 56.93 63.53 59.54 63.88 61.91 64.23 60.01 64.58 61.44 64.92 63.09 65.27 65.94 65.62 61.2 65.97 62.62 66.32 56.22 66.67 55.27 67.02 62.62 67.37 66.18 67.72 64.75 68.07 64.99 68.42 66.41 68.77 70.44 69.11 67.36 69.46 64.75 69.81 70.92 70.16 68.07 70.51 64.04 70.86 58.12 71.21 55.04 71.56 60.01 71.91 57.64 72.26 53.14 72.61 53.61 72.95 52.19 73.3 50.53 73.65 47.21 74 46.98 74.35 43.19 74.7 43.42 75.05 42.24 75.4 45.08 75.75 45.32 76.1 49.11 76.45 49.11 76.8 57.64 77.14 55.75 77.49 54.56 77.84 56.69 78.19 60.72 78.54 63.33 78.89 66.89 79.24 66.41 79.59 63.81 79.94 63.81 80.29 64.75 80.64 64.75 80.98 65.94 81.33 64.99 81.68 63.81 82.03 66.41 82.38 67.83 82.73 66.41 83.08 64.04 83.43 61.2 83.78 61.91 84.13 59.3 84.48 57.17 84.83 60.49 85.17 61.67 85.52 59.06 85.87 60.96 86.22 60.72 86.57 61.2 86.92 62.62 87.27 63.57 87.62 60.72 87.97 60.72 88.32 63.33 88.67 61.67 89.02 56.69 89.36 58.83 89.71 55.98 90.06 59.3 90.41 61.44 90.76 61.67 91.11 60.25 91.46 55.04 91.81 56.69 92.16 54.56 92.51 52.43 92.86 52.9 93.2 55.04 93.55 55.98 93.9 56.69 94.25 54.8 94.6 56.46 94.95 56.69 95.3 60.25 95.65 60.72 96 61.44 96.35 60.25 96.7 61.2 97.05 59.78 97.39 57.41 97.74 57.17 98.09 57.88 98.44 56.93 98.79 53.14 99.14 50.3 99.49 48.64 99.84 48.64 100.19 50.77 100.54 49.35 100.89 49.82 101.23 49.82 101.58 47.45 101.93 43.42 102.28 44.61 102.63 44.13 102.98 47.45 103.33 46.74 103.68 48.64 104.03 51.95 104.38 53.85 104.73 55.27 105.08 51.01 105.42 51.01 105.77 50.77 106.12 49.11 106.47 46.27 106.82 46.5 107.17 49.58 107.52 48.87 107.87 54.56 108.22 51.72 108.57 51.95 108.92 52.9 109.26 54.56 109.61 55.04 109.96 53.38 110.31 54.32 110.66 54.56 111.01 57.88 111.36 56.22 111.71 56.46 112.06 53.85 112.41 51.48 112.76 54.8 113.11 53.38 113.45 52.19 113.8 52.67 114.15 52.43 114.5 51.95 114.85 50.77 115.2 49.58 115.55 54.09 115.9 54.32 116.25 55.04 116.6 58.35 116.95 60.49 117.3 61.2 117.64 60.49 117.99 63.57 118.34 62.38 118.69 60.49 119.04 57.41 119.39 61.2 119.74 58.59 120.09 60.01 120.44 61.2 120.79 64.75 121.14 64.99 121.48 61.2 121.83 58.12 122.18 57.41 122.53 55.51 122.88 56.22 123.23 61.2 123.58 64.52 123.93 67.83 124.28 66.65 124.63 66.18 124.98 61.91 125.33 64.28 125.67 67.36 126.02 64.52 126.37 62.62 126.72 63.81 127.07 65.94 127.42 67.12 127.77 69.02 128.12 66.41 128.47 65.7 128.82 69.02 129.17 70.92 129.51 69.26 129.86 73.29 130.21 75.66 130.56 75.42 130.91 74.71 131.26 70.68 131.61 72.1 131.96 64.28 132.31 63.33 132.66 62.15 133.01 60.72 133.36 64.75 133.7 65.23 134.05 66.41 134.4 63.81 134.75 65.7 135.1 66.65 135.45 69.26 135.8 72.81 136.15 73.76 136.5 75.18 136.85 79.21 137.2 78.5 137.55 78.5 137.89 78.74 138.24 80.87 138.59 81.34 138.94 83 139.29 88.22 139.64 87.74 139.99 88.93 140.34 90.35 140.69 90.59 141.04 88.93 141.39 86.32 141.73 87.98 142.08 86.79 142.43 86.08 142.78 92.01 143.13 92.25 143.48 92.01 143.83 86.79 144.18 86.08 144.53 79.45 144.88 78.03 145.23 76.37 145.58 75.18 145.92 77.31 146.27 77.31 146.62 75.18 146.97 74.94 147.32 79.92 147.67 81.82 148.02 82.53 148.37 82.05 148.72 77.31 149.07 74.23 149.42 74 149.76 73.52 150.11 72.57 150.46 71.86 150.81 71.15 151.16 73.29 151.51 74.23 151.86 75.42 152.21 75.42 152.56 77.08 152.91 76.6 153.26 77.08 153.61 78.74 153.95 79.45 154.3 77.79 154.65 77.31 155 82.77 155.35 84.42 155.7 83.95 156.05 82.53 156.4 84.66 156.75 79.45 157.1 76.13 157.45 75.89 157.79 77.55 158.14 76.13 158.49 78.26 158.84 82.29 159.19 73.52 159.54 76.13 159.89 75.89 160.24 74.47 160.59 78.97 160.94 82.05 161.29 86.32 161.64 84.66 161.98 83.48 162.33 82.05 162.68 81.58 163.03 85.14 163.38 83.95 163.73 87.98 164.08 85.61 164.43 89.64 164.78 88.93 165.13 89.64 165.48 89.16 165.83 89.64 166.17 86.32 166.52 85.85 166.87 86.79 167.22 87.27 167.57 87.98 167.92 89.4 168.27 86.56 168.62 84.42 168.97 90.35 169.32 88.93 169.67 94.14 170.01 96.51 170.36 93.67 170.71 95.33 171.06 96.99 171.41 96.99 171.76 95.33 172.11 97.22 172.46 92.25 172.81 92.96 173.16 95.8 173.51 94.85 173.86 99.12 174.2 101.49 174.55 105.99 174.9 109.55 175.25 107.89 175.6 109.78 175.95 108.84 176.3 107.41 176.65 106.94 177 106.94 177.35 111.44 177.7 109.07 178.04 110.5 178.39 108.36 178.74 108.6 179.09 108.84 179.44 107.89 179.79 107.18 180.14 108.6 180.49 110.97 180.84 113.81 181.19 114.76 181.54 112.87 181.89 112.15 182.23 113.1 182.58 112.87 182.93 116.66 183.28 115.95 183.63 117.84 183.98 118.08 184.33 119.03 184.68 117.61 185.03 118.08 185.38 116.18 185.73 116.89 186.08 117.37 186.42 115.95 186.77 115.24 187.12 114.76 187.47 114.29 187.82 114.29 188.17 117.13 188.52 115.95 188.87 113.34 189.22 115.47 189.57 115 189.92 110.5 190.26 110.73 190.61 112.39 190.96 110.97 191.31 109.55 191.66 111.68 192.01 114.05 192.36 113.81 192.71 113.1 193.06 114.05 193.41 115.71 193.76 114.05 194.11 117.13 194.45 117.37 194.8 115.47 195.15 113.1 195.5 113.34 195.85 113.1 196.2 111.21"/>
      </g>
    </g>
  </g>
</g>
  <g class="guide ylabels" font-size="2.82" font-family="'PT Sans Caption','Helvetica Neue','Helvetica',sans-serif" fill="#000000" id="img-89ac5e8d-20">
    <text x="18.63" y="131.11" text-anchor="end" dy="0.35em">0</text>
    <text x="18.63" y="107.41" text-anchor="end" dy="0.35em">100</text>
    <text x="18.63" y="83.71" text-anchor="end" dy="0.35em">200</text>
    <text x="18.63" y="60.01" text-anchor="end" dy="0.35em">300</text>
    <text x="18.63" y="36.31" text-anchor="end" dy="0.35em">400</text>
    <text x="18.63" y="12.61" text-anchor="end" dy="0.35em">500</text>
  </g>
  <g font-size="3.88" font-family="'PT Sans','Helvetica Neue','Helvetica',sans-serif" fill="#000000" stroke="#000000" stroke-opacity="0.000" id="img-89ac5e8d-21">
    <text x="8.81" y="69.86" text-anchor="middle" dy="0.35em" transform="rotate(-90, 8.81, 71.86)">population size</text>
  </g>
  <g font-size="3.88" font-family="'PT Sans','Helvetica Neue','Helvetica',sans-serif" fill="#000000" stroke="#000000" stroke-opacity="0.000" id="img-89ac5e8d-22">
    <text x="108.92" y="5" text-anchor="middle" dy="0.6em">genetic drift with mutationrate  = 0.001 </text>
  </g>
</g>
<defs>
  <clipPath id="img-89ac5e8d-4">
  <path d="M19.63,10.61 L 198.2 10.61 198.2 133.11 19.63 133.11" />
</clipPath>
</defs>
</svg>
