<?xml version="1.0" encoding="UTF-8"?>
<svg xmlns="http://www.w3.org/2000/svg"
     xmlns:xlink="http://www.w3.org/1999/xlink"
     xmlns:gadfly="http://www.gadflyjl.org/ns"
     version="1.2"
     width="203.2mm" height="152.4mm" viewBox="0 0 203.2 152.4"
     stroke="none"
     fill="#000000"
     stroke-width="0.3"
     font-size="3.88"
>
<g class="plotroot xscalable yscalable" id="img-7bd7ac81-1">
  <g font-size="3.88" font-family="'PT Sans','Helvetica Neue','Helvetica',sans-serif" fill="#000000" stroke="#000000" stroke-opacity="0.000" id="img-7bd7ac81-2">
    <text x="96.33" y="140.79" text-anchor="middle" dy="0.6em">number of A_type individuals (bin count = 50)</text>
  </g>
  <g class="guide xlabels" font-size="2.82" font-family="'PT Sans Caption','Helvetica Neue','Helvetica',sans-serif" fill="#000000" id="img-7bd7ac81-3">
    <text x="20.63" y="134.11" text-anchor="middle" dy="0.6em">0</text>
    <text x="45.87" y="134.11" text-anchor="middle" dy="0.6em">100</text>
    <text x="71.1" y="134.11" text-anchor="middle" dy="0.6em">200</text>
    <text x="96.33" y="134.11" text-anchor="middle" dy="0.6em">300</text>
    <text x="121.57" y="134.11" text-anchor="middle" dy="0.6em">400</text>
    <text x="146.8" y="134.11" text-anchor="middle" dy="0.6em">500</text>
    <text x="172.03" y="134.11" text-anchor="middle" dy="0.6em">600</text>
  </g>
  <g class="guide colorkey" id="img-7bd7ac81-4">
    <g fill="#4C404B" font-size="2.82" font-family="'PT Sans','Helvetica Neue','Helvetica',sans-serif" id="img-7bd7ac81-5">
      <text x="177.85" y="109.96" dy="0.35em">histogram</text>
      <text x="177.85" y="113.59" dy="0.35em">theoretical curve</text>
    </g>
    <g stroke="#000000" stroke-opacity="0.000" id="img-7bd7ac81-6">
      <rect x="175.03" y="109.06" width="1.81" height="1.81" fill="#00BFFF"/>
      <rect x="175.03" y="112.68" width="1.81" height="1.81" fill="#FFA500"/>
    </g>
    <g fill="#362A35" font-size="3.88" font-family="'PT Sans','Helvetica Neue','Helvetica',sans-serif" stroke="#000000" stroke-opacity="0.000" id="img-7bd7ac81-7">
      <text x="175.03" y="106.14">Legend</text>
    </g>
  </g>
<g clip-path="url(#img-7bd7ac81-8)">
  <g id="img-7bd7ac81-9">
    <g pointer-events="visible" opacity="1" fill="#FFFFFF" stroke="#000000" stroke-opacity="0.000" class="guide background" id="img-7bd7ac81-10">
      <rect x="18.63" y="86.81" width="155.4" height="46.3"/>
    </g>
    <g class="guide ygridlines xfixed" stroke-dasharray="0.5,0.5" stroke-width="0.2" stroke="#808080" id="img-7bd7ac81-11">
      <path fill="none" d="M18.63,131.11 L 174.03 131.11"/>
      <path fill="none" d="M18.63,120.54 L 174.03 120.54"/>
      <path fill="none" d="M18.63,109.96 L 174.03 109.96"/>
      <path fill="none" d="M18.63,99.39 L 174.03 99.39"/>
      <path fill="none" d="M18.63,88.81 L 174.03 88.81"/>
    </g>
    <g class="guide xgridlines yfixed" stroke-dasharray="0.5,0.5" stroke-width="0.2" stroke="#808080" id="img-7bd7ac81-12">
      <path fill="none" d="M20.63,86.81 L 20.63 133.11"/>
      <path fill="none" d="M45.87,86.81 L 45.87 133.11"/>
      <path fill="none" d="M71.1,86.81 L 71.1 133.11"/>
      <path fill="none" d="M96.33,86.81 L 96.33 133.11"/>
      <path fill="none" d="M121.57,86.81 L 121.57 133.11"/>
      <path fill="none" d="M146.8,86.81 L 146.8 133.11"/>
      <path fill="none" d="M172.03,86.81 L 172.03 133.11"/>
    </g>
    <g class="plotpanel" id="img-7bd7ac81-13">
      <g stroke-width="0.3" fill="#000000" fill-opacity="0.000" class="geometry" stroke-dasharray="none" stroke="#FFA500" id="img-7bd7ac81-14">
        <path fill="none" d="M21.24,122.3 L 21.85 126.69 22.46 128.15 23.06 128.88 23.67 129.32 24.28 129.62 24.89 129.82 25.5 129.98 26.1 130.1 26.71 130.2 27.32 130.28 27.93 130.35 28.54 130.4 29.14 130.45 29.75 130.49 30.36 130.53 30.97 130.56 31.58 130.59 32.18 130.61 32.79 130.64 33.4 130.66 34.01 130.68 34.62 130.69 35.22 130.71 35.83 130.72 36.44 130.74 37.05 130.75 37.66 130.76 38.26 130.77 38.87 130.78 39.48 130.79 40.09 130.8 40.7 130.81 41.3 130.82 41.91 130.82 42.52 130.83 43.13 130.84 43.74 130.84 44.35 130.85 44.95 130.85 45.56 130.86 46.17 130.86 46.78 130.87 47.39 130.87 47.99 130.88 48.6 130.88 49.21 130.88 49.82 130.89 50.43 130.89 51.03 130.9 51.64 130.9 52.25 130.9 52.86 130.9 53.47 130.91 54.07 130.91 54.68 130.91 55.29 130.92 55.9 130.92 56.51 130.92 57.11 130.92 57.72 130.92 58.33 130.93 58.94 130.93 59.55 130.93 60.15 130.93 60.76 130.93 61.37 130.94 61.98 130.94 62.59 130.94 63.19 130.94 63.8 130.94 64.41 130.94 65.02 130.94 65.63 130.95 66.23 130.95 66.84 130.95 67.45 130.95 68.06 130.95 68.67 130.95 69.27 130.95 69.88 130.95 70.49 130.96 71.1 130.96 71.71 130.96 72.31 130.96 72.92 130.96 73.53 130.96 74.14 130.96 74.75 130.96 75.36 130.96 75.96 130.96 76.57 130.96 77.18 130.96 77.79 130.96 78.4 130.97 79 130.97 79.61 130.97 80.22 130.97 80.83 130.97 81.44 130.97 82.04 130.97 82.65 130.97 83.26 130.97 83.87 130.97 84.48 130.97 85.08 130.97 85.69 130.97 86.3 130.97 86.91 130.97 87.52 130.97 88.12 130.97 88.73 130.97 89.34 130.97 89.95 130.97 90.56 130.97 91.16 130.97 91.77 130.97 92.38 130.97 92.99 130.97 93.6 130.97 94.2 130.97 94.81 130.97 95.42 130.97 96.03 130.97 96.64 130.97 97.24 130.97 97.85 130.97 98.46 130.97 99.07 130.97 99.68 130.97 100.28 130.97 100.89 130.97 101.5 130.97 102.11 130.97 102.72 130.97 103.32 130.97 103.93 130.97 104.54 130.97 105.15 130.97 105.76 130.97 106.37 130.97 106.97 130.97 107.58 130.97 108.19 130.97 108.8 130.97 109.41 130.97 110.01 130.97 110.62 130.97 111.23 130.97 111.84 130.97 112.45 130.97 113.05 130.97 113.66 130.97 114.27 130.97 114.88 130.96 115.49 130.96 116.09 130.96 116.7 130.96 117.31 130.96 117.92 130.96 118.53 130.96 119.13 130.96 119.74 130.96 120.35 130.96 120.96 130.96 121.57 130.96 122.17 130.96 122.78 130.95 123.39 130.95 124 130.95 124.61 130.95 125.21 130.95 125.82 130.95 126.43 130.95 127.04 130.95 127.65 130.94 128.25 130.94 128.86 130.94 129.47 130.94 130.08 130.94 130.69 130.94 131.29 130.94 131.9 130.93 132.51 130.93 133.12 130.93 133.73 130.93 134.33 130.93 134.94 130.92 135.55 130.92 136.16 130.92 136.77 130.92 137.38 130.92 137.98 130.91 138.59 130.91 139.2 130.91 139.81 130.9 140.42 130.9 141.02 130.9 141.63 130.9 142.24 130.89 142.85 130.89 143.46 130.88 144.06 130.88 144.67 130.88 145.28 130.87 145.89 130.87 146.5 130.86 147.1 130.86 147.71 130.85 148.32 130.85 148.93 130.84 149.54 130.84 150.14 130.83 150.75 130.82 151.36 130.82 151.97 130.81 152.58 130.8 153.18 130.79 153.79 130.78 154.4 130.77 155.01 130.76 155.62 130.75 156.22 130.74 156.83 130.72 157.44 130.71 158.05 130.69 158.66 130.68 159.26 130.66 159.87 130.64 160.48 130.61 161.09 130.59 161.7 130.56 162.3 130.53 162.91 130.49 163.52 130.45 164.13 130.4 164.74 130.35 165.34 130.28 165.95 130.2 166.56 130.1 167.17 129.98 167.78 129.82 168.39 129.62 168.99 129.32 169.6 128.88 170.21 128.15 170.82 126.69 171.43 122.3"/>
      </g>
      <g stroke-width="0.3" fill="#000000" fill-opacity="0.000" class="geometry" stroke-dasharray="none" stroke="#FFA500" id="img-7bd7ac81-15">
        <path fill="none" d="M21.24,122.3 L 21.85 126.69 22.46 128.15 23.06 128.88 23.67 129.32 24.28 129.62 24.89 129.82 25.5 129.98 26.1 130.1 26.71 130.2 27.32 130.28 27.93 130.35 28.54 130.4 29.14 130.45 29.75 130.49 30.36 130.53 30.97 130.56 31.58 130.59 32.18 130.61 32.79 130.64 33.4 130.66 34.01 130.68 34.62 130.69 35.22 130.71 35.83 130.72 36.44 130.74 37.05 130.75 37.66 130.76 38.26 130.77 38.87 130.78 39.48 130.79 40.09 130.8 40.7 130.81 41.3 130.82 41.91 130.82 42.52 130.83 43.13 130.84 43.74 130.84 44.35 130.85 44.95 130.85 45.56 130.86 46.17 130.86 46.78 130.87 47.39 130.87 47.99 130.88 48.6 130.88 49.21 130.88 49.82 130.89 50.43 130.89 51.03 130.9 51.64 130.9 52.25 130.9 52.86 130.9 53.47 130.91 54.07 130.91 54.68 130.91 55.29 130.92 55.9 130.92 56.51 130.92 57.11 130.92 57.72 130.92 58.33 130.93 58.94 130.93 59.55 130.93 60.15 130.93 60.76 130.93 61.37 130.94 61.98 130.94 62.59 130.94 63.19 130.94 63.8 130.94 64.41 130.94 65.02 130.94 65.63 130.95 66.23 130.95 66.84 130.95 67.45 130.95 68.06 130.95 68.67 130.95 69.27 130.95 69.88 130.95 70.49 130.96 71.1 130.96 71.71 130.96 72.31 130.96 72.92 130.96 73.53 130.96 74.14 130.96 74.75 130.96 75.36 130.96 75.96 130.96 76.57 130.96 77.18 130.96 77.79 130.96 78.4 130.97 79 130.97 79.61 130.97 80.22 130.97 80.83 130.97 81.44 130.97 82.04 130.97 82.65 130.97 83.26 130.97 83.87 130.97 84.48 130.97 85.08 130.97 85.69 130.97 86.3 130.97 86.91 130.97 87.52 130.97 88.12 130.97 88.73 130.97 89.34 130.97 89.95 130.97 90.56 130.97 91.16 130.97 91.77 130.97 92.38 130.97 92.99 130.97 93.6 130.97 94.2 130.97 94.81 130.97 95.42 130.97 96.03 130.97 96.64 130.97 97.24 130.97 97.85 130.97 98.46 130.97 99.07 130.97 99.68 130.97 100.28 130.97 100.89 130.97 101.5 130.97 102.11 130.97 102.72 130.97 103.32 130.97 103.93 130.97 104.54 130.97 105.15 130.97 105.76 130.97 106.37 130.97 106.97 130.97 107.58 130.97 108.19 130.97 108.8 130.97 109.41 130.97 110.01 130.97 110.62 130.97 111.23 130.97 111.84 130.97 112.45 130.97 113.05 130.97 113.66 130.97 114.27 130.97 114.88 130.96 115.49 130.96 116.09 130.96 116.7 130.96 117.31 130.96 117.92 130.96 118.53 130.96 119.13 130.96 119.74 130.96 120.35 130.96 120.96 130.96 121.57 130.96 122.17 130.96 122.78 130.95 123.39 130.95 124 130.95 124.61 130.95 125.21 130.95 125.82 130.95 126.43 130.95 127.04 130.95 127.65 130.94 128.25 130.94 128.86 130.94 129.47 130.94 130.08 130.94 130.69 130.94 131.29 130.94 131.9 130.93 132.51 130.93 133.12 130.93 133.73 130.93 134.33 130.93 134.94 130.92 135.55 130.92 136.16 130.92 136.77 130.92 137.38 130.92 137.98 130.91 138.59 130.91 139.2 130.91 139.81 130.9 140.42 130.9 141.02 130.9 141.63 130.9 142.24 130.89 142.85 130.89 143.46 130.88 144.06 130.88 144.67 130.88 145.28 130.87 145.89 130.87 146.5 130.86 147.1 130.86 147.71 130.85 148.32 130.85 148.93 130.84 149.54 130.84 150.14 130.83 150.75 130.82 151.36 130.82 151.97 130.81 152.58 130.8 153.18 130.79 153.79 130.78 154.4 130.77 155.01 130.76 155.62 130.75 156.22 130.74 156.83 130.72 157.44 130.71 158.05 130.69 158.66 130.68 159.26 130.66 159.87 130.64 160.48 130.61 161.09 130.59 161.7 130.56 162.3 130.53 162.91 130.49 163.52 130.45 164.13 130.4 164.74 130.35 165.34 130.28 165.95 130.2 166.56 130.1 167.17 129.98 167.78 129.82 168.39 129.62 168.99 129.32 169.6 128.88 170.21 128.15 170.82 126.69 171.43 122.3"/>
      </g>
      <g shape-rendering="crispEdges" stroke-width="0.3" id="img-7bd7ac81-16">
        <g stroke="#000000" stroke-opacity="0.000" fill="#00BFFF" class="geometry" id="img-7bd7ac81-17">
          <rect x="20.61" y="103.19" width="3.08" height="27.92"/>
          <rect x="23.63" y="128.58" width="3.08" height="2.54"/>
          <rect x="26.66" y="126.04" width="3.08" height="5.08"/>
          <rect x="29.69" y="128.58" width="3.08" height="2.54"/>
          <rect x="32.72" y="131.11" width="3.08" height="0.01"/>
          <rect x="35.75" y="123.5" width="3.08" height="7.61"/>
          <rect x="38.77" y="126.04" width="3.08" height="5.08"/>
          <rect x="41.8" y="126.04" width="3.08" height="5.08"/>
          <rect x="44.83" y="128.58" width="3.08" height="2.54"/>
          <rect x="47.86" y="123.5" width="3.08" height="7.61"/>
          <rect x="50.89" y="128.58" width="3.08" height="2.54"/>
          <rect x="53.92" y="126.04" width="3.08" height="5.08"/>
          <rect x="56.94" y="126.04" width="3.08" height="5.08"/>
          <rect x="59.97" y="126.04" width="3.08" height="5.08"/>
          <rect x="63" y="128.58" width="3.08" height="2.54"/>
          <rect x="66.03" y="131.11" width="3.08" height="0.01"/>
          <rect x="69.06" y="128.58" width="3.08" height="2.54"/>
          <rect x="72.08" y="131.11" width="3.08" height="0.01"/>
          <rect x="75.11" y="128.58" width="3.08" height="2.54"/>
          <rect x="78.14" y="128.58" width="3.08" height="2.54"/>
          <rect x="81.17" y="131.11" width="3.08" height="0.01"/>
          <rect x="84.2" y="126.04" width="3.08" height="5.08"/>
          <rect x="87.22" y="123.5" width="3.08" height="7.61"/>
          <rect x="90.25" y="128.58" width="3.08" height="2.54"/>
          <rect x="93.28" y="120.96" width="3.08" height="10.15"/>
          <rect x="96.31" y="126.04" width="3.08" height="5.08"/>
          <rect x="99.34" y="126.04" width="3.08" height="5.08"/>
          <rect x="102.36" y="128.58" width="3.08" height="2.54"/>
          <rect x="105.39" y="131.11" width="3.08" height="0.01"/>
          <rect x="108.42" y="126.04" width="3.08" height="5.08"/>
          <rect x="111.45" y="126.04" width="3.08" height="5.08"/>
          <rect x="114.48" y="126.04" width="3.08" height="5.08"/>
          <rect x="117.5" y="126.04" width="3.08" height="5.08"/>
          <rect x="120.53" y="128.58" width="3.08" height="2.54"/>
          <rect x="123.56" y="128.58" width="3.08" height="2.54"/>
          <rect x="126.59" y="126.04" width="3.08" height="5.08"/>
          <rect x="129.62" y="118.42" width="3.08" height="12.69"/>
          <rect x="132.64" y="131.11" width="3.08" height="0.01"/>
          <rect x="135.67" y="126.04" width="3.08" height="5.08"/>
          <rect x="138.7" y="120.96" width="3.08" height="10.15"/>
          <rect x="141.73" y="126.04" width="3.08" height="5.08"/>
          <rect x="144.76" y="128.58" width="3.08" height="2.54"/>
          <rect x="147.78" y="128.58" width="3.08" height="2.54"/>
          <rect x="150.81" y="131.11" width="3.08" height="0.01"/>
          <rect x="153.84" y="126.04" width="3.08" height="5.08"/>
          <rect x="156.87" y="128.58" width="3.08" height="2.54"/>
          <rect x="159.9" y="131.11" width="3.08" height="0.01"/>
          <rect x="162.92" y="126.04" width="3.08" height="5.08"/>
          <rect x="165.95" y="128.58" width="3.08" height="2.54"/>
          <rect x="168.98" y="93.04" width="3.08" height="38.07"/>
        </g>
      </g>
    </g>
  </g>
</g>
  <g class="guide ylabels" font-size="2.82" font-family="'PT Sans Caption','Helvetica Neue','Helvetica',sans-serif" fill="#000000" id="img-7bd7ac81-18">
    <text x="17.63" y="131.11" text-anchor="end" dy="0.35em">0.0</text>
    <text x="17.63" y="120.54" text-anchor="end" dy="0.35em">0.5</text>
    <text x="17.63" y="109.96" text-anchor="end" dy="0.35em">1.0</text>
    <text x="17.63" y="99.39" text-anchor="end" dy="0.35em">1.5</text>
    <text x="17.63" y="88.81" text-anchor="end" dy="0.35em">2.0</text>
  </g>
  <g font-size="3.88" font-family="'PT Sans','Helvetica Neue','Helvetica',sans-serif" fill="#000000" stroke="#000000" stroke-opacity="0.000" id="img-7bd7ac81-19">
    <text x="8.81" y="107.96" text-anchor="middle" dy="0.35em" transform="rotate(-90, 8.81, 109.96)">density</text>
  </g>
  <g font-size="3.88" font-family="'PT Sans','Helvetica Neue','Helvetica',sans-serif" fill="#000000" stroke="#000000" stroke-opacity="0.000" id="img-7bd7ac81-20">
    <text x="96.33" y="81.2" text-anchor="middle" dy="0.6em">Histogram of population in generation 500</text>
  </g>
</g>
<g class="plotroot xscalable yscalable" id="img-7bd7ac81-21">
  <g font-size="3.88" font-family="'PT Sans','Helvetica Neue','Helvetica',sans-serif" fill="#000000" stroke="#000000" stroke-opacity="0.000" id="img-7bd7ac81-22">
    <text x="108.92" y="64.59" text-anchor="middle" dy="0.6em">generation number</text>
  </g>
  <g class="guide xlabels" font-size="2.82" font-family="'PT Sans Caption','Helvetica Neue','Helvetica',sans-serif" fill="#000000" id="img-7bd7ac81-23">
    <text x="21.63" y="57.91" text-anchor="middle" dy="0.6em">0</text>
    <text x="56.55" y="57.91" text-anchor="middle" dy="0.6em">100</text>
    <text x="91.46" y="57.91" text-anchor="middle" dy="0.6em">200</text>
    <text x="126.37" y="57.91" text-anchor="middle" dy="0.6em">300</text>
    <text x="161.29" y="57.91" text-anchor="middle" dy="0.6em">400</text>
    <text x="196.2" y="57.91" text-anchor="middle" dy="0.6em">500</text>
  </g>
<g clip-path="url(#img-7bd7ac81-24)">
  <g id="img-7bd7ac81-25">
    <g pointer-events="visible" opacity="1" fill="#FFFFFF" stroke="#000000" stroke-opacity="0.000" class="guide background" id="img-7bd7ac81-26">
      <rect x="19.63" y="10.61" width="178.57" height="46.3"/>
    </g>
    <g class="guide ygridlines xfixed" stroke-dasharray="0.5,0.5" stroke-width="0.2" stroke="#808080" id="img-7bd7ac81-27">
      <path fill="none" d="M19.63,54.91 L 198.2 54.91"/>
      <path fill="none" d="M19.63,47.86 L 198.2 47.86"/>
      <path fill="none" d="M19.63,40.81 L 198.2 40.81"/>
      <path fill="none" d="M19.63,33.76 L 198.2 33.76"/>
      <path fill="none" d="M19.63,26.71 L 198.2 26.71"/>
      <path fill="none" d="M19.63,19.66 L 198.2 19.66"/>
      <path fill="none" d="M19.63,12.61 L 198.2 12.61"/>
    </g>
    <g class="guide xgridlines yfixed" stroke-dasharray="0.5,0.5" stroke-width="0.2" stroke="#808080" id="img-7bd7ac81-28">
      <path fill="none" d="M21.63,10.61 L 21.63 56.91"/>
      <path fill="none" d="M56.55,10.61 L 56.55 56.91"/>
      <path fill="none" d="M91.46,10.61 L 91.46 56.91"/>
      <path fill="none" d="M126.37,10.61 L 126.37 56.91"/>
      <path fill="none" d="M161.29,10.61 L 161.29 56.91"/>
      <path fill="none" d="M196.2,10.61 L 196.2 56.91"/>
    </g>
    <g class="plotpanel" id="img-7bd7ac81-29">
      <g stroke-width="0.3" fill="#000000" fill-opacity="0.000" class="geometry" stroke-dasharray="none" stroke="#3288BD" id="img-7bd7ac81-30">
        <path fill="none" d="M21.98,33.76 L 22.33 32.78 22.68 33.83 23.03 34.89 23.38 33.76 23.73 34.26 24.08 34.54 24.42 34.47 24.77 35.24 25.12 36.16 25.47 36.16 25.82 36.37 26.17 36.09 26.52 36.3 26.87 36.23 27.22 36.09 27.57 36.94 27.92 36.37 28.27 35.67 28.61 37.85 28.96 38.49 29.31 38.56 29.66 37.22 30.01 37.5 30.36 37.15 30.71 37.08 31.06 37.92 31.41 39.33 31.76 38.42 32.11 37.57 32.45 37.15 32.8 37.15 33.15 37.57 33.5 37.92 33.85 37.43 34.2 38.06 34.55 36.51 34.9 36.94 35.25 36.87 35.6 37.15 35.95 36.09 36.3 36.3 36.64 36.37 36.99 36.72 37.34 37.08 37.69 37.01 38.04 36.94 38.39 37.22 38.74 36.94 39.09 36.87 39.44 37.92 39.79 36.23 40.14 36.3 40.49 34.75 40.83 34.68 41.18 34.26 41.53 32.71 41.88 31.86 42.23 32.71 42.58 32.99 42.93 32.71 43.28 32.14 43.63 32.07 43.98 32.85 44.33 33.34 44.67 33.48 45.02 33.62 45.37 34.89 45.72 35.67 46.07 36.87 46.42 37.36 46.77 38.21 47.12 35.74 47.47 34.82 47.82 35.67 48.17 35.53 48.52 35.38 48.86 36.37 49.21 36.09 49.56 34.68 49.91 33.41 50.26 32.49 50.61 33.13 50.96 34.61 51.31 33.69 51.66 32.49 52.01 32.56 52.36 31.93 52.7 31.58 53.05 32.64 53.4 31.86 53.75 33.48 54.1 32.71 54.45 32.56 54.8 32.49 55.15 30.45 55.5 29.25 55.85 28.4 56.2 28.83 56.55 28.33 56.89 28.76 57.24 30.66 57.59 31.65 57.94 30.59 58.29 30.31 58.64 30.1 58.99 29.96 59.34 30.1 59.69 29.96 60.04 32.85 60.39 32.42 60.73 32.56 61.08 32.21 61.43 31.65 61.78 30.31 62.13 32.14 62.48 32.35 62.83 32.35 63.18 32.14 63.53 33.06 63.88 32.14 64.23 32.07 64.58 32 64.92 31.3 65.27 31.37 65.62 31.58 65.97 32.14 66.32 31.72 66.67 32.35 67.02 33.34 67.37 31.23 67.72 31.93 68.07 31.58 68.42 31.08 68.77 29.89 69.11 30.38 69.46 31.65 69.81 32.64 70.16 32.92 70.51 33.97 70.86 34.12 71.21 34.89 71.56 35.46 71.91 35.81 72.26 35.31 72.61 35.17 72.95 35.67 73.3 36.37 73.65 37.15 74 36.16 74.35 35.67 74.7 35.95 75.05 36.02 75.4 35.74 75.75 36.87 76.1 36.44 76.45 33.62 76.8 33.83 77.14 32.99 77.49 32.21 77.84 33.27 78.19 33.55 78.54 31.72 78.89 31.37 79.24 30.17 79.59 30.38 79.94 31.15 80.29 31.15 80.64 31.15 80.98 30.66 81.33 31.51 81.68 31.65 82.03 32.49 82.38 31.86 82.73 32 83.08 32.07 83.43 32.49 83.78 32.56 84.13 31.23 84.48 31.3 84.83 30.94 85.17 31.01 85.52 31.08 85.87 30.73 86.22 29.89 86.57 31.3 86.92 31.37 87.27 30.94 87.62 30.8 87.97 30.8 88.32 32.49 88.67 31.79 89.02 30.73 89.36 30.45 89.71 30.8 90.06 30.73 90.41 31.08 90.76 30.24 91.11 30.59 91.46 29.25 91.81 30.17 92.16 29.18 92.51 28.97 92.86 28.55 93.2 29.11 93.55 28.55 93.9 28.69 94.25 29.25 94.6 29.18 94.95 31.01 95.3 32.14 95.65 32.49 96 32.35 96.35 32.92 96.7 33.06 97.05 32.14 97.39 33.9 97.74 32.99 98.09 32.49 98.44 32.85 98.79 32.42 99.14 32.07 99.49 32.14 99.84 32.64 100.19 31.65 100.54 31.51 100.89 31.86 101.23 30.87 101.58 30.94 101.93 31.79 102.28 31.3 102.63 30.94 102.98 32.07 103.33 32.35 103.68 32.07 104.03 30.87 104.38 29.96 104.73 30.73 105.08 31.3 105.42 30.45 105.77 29.18 106.12 28.19 106.47 27.49 106.82 28.97 107.17 29.46 107.52 30.45 107.87 30.17 108.22 31.08 108.57 31.44 108.92 30.59 109.26 29.32 109.61 29.18 109.96 29.82 110.31 29.67 110.66 29.96 111.01 30.17 111.36 29.18 111.71 30.87 112.06 30.59 112.41 30.45 112.76 31.51 113.11 30.03 113.45 30.45 113.8 31.08 114.15 32.49 114.5 33.27 114.85 31.65 115.2 33.13 115.55 33.97 115.9 32.99 116.25 31.72 116.6 32.28 116.95 30.8 117.3 31.79 117.64 32.64 117.99 31.65 118.34 31.01 118.69 31.01 119.04 30.59 119.39 30.03 119.74 30.87 120.09 30.59 120.44 30.94 120.79 32.21 121.14 32.92 121.48 33.55 121.83 34.82 122.18 35.24 122.53 36.72 122.88 37.5 123.23 36.72 123.58 36.51 123.93 37.08 124.28 37.85 124.63 37.78 124.98 37.92 125.33 37.29 125.67 38.28 126.02 37.64 126.37 36.8 126.72 36.3 127.07 36.09 127.42 36.3 127.77 35.95 128.12 36.09 128.47 35.81 128.82 34.33 129.17 34.05 129.51 34.54 129.86 33.69 130.21 33.34 130.56 32.21 130.91 31.86 131.26 32.49 131.61 32.99 131.96 31.44 132.31 32.42 132.66 32 133.01 31.15 133.36 32.49 133.7 32.42 134.05 32.78 134.4 32.14 134.75 29.74 135.1 30.45 135.45 30.31 135.8 28.69 136.15 27.7 136.5 27.42 136.85 26.43 137.2 25.8 137.55 24.88 137.89 25.3 138.24 24.95 138.59 25.23 138.94 25.37 139.29 25.3 139.64 24.74 139.99 24.32 140.34 25.23 140.69 24.6 141.04 23.75 141.39 23.89 141.73 24.1 142.08 23.82 142.43 22.41 142.78 23.61 143.13 24.39 143.48 23.05 143.83 22.91 144.18 21.42 144.53 20.58 144.88 21 145.23 20.16 145.58 20.79 145.92 21.21 146.27 20.86 146.62 22.41 146.97 22.83 147.32 23.33 147.67 23.75 148.02 21.92 148.37 21.78 148.72 21.5 149.07 21.5 149.42 20.72 149.76 20.09 150.11 19.24 150.46 19.31 150.81 19.1 151.16 17.9 151.51 17.69 151.86 17.76 152.21 17.83 152.56 17.55 152.91 17.19 153.26 17.12 153.61 17.05 153.95 18.11 154.3 18.68 154.65 17.97 155 18.46 155.35 17.97 155.7 17.48 156.05 17.69 156.4 16.84 156.75 17.19 157.1 17.55 157.45 16.56 157.79 16.7 158.14 17.34 158.49 17.62 158.84 17.97 159.19 18.89 159.54 19.03 159.89 19.24 160.24 19.17 160.59 18.96 160.94 19.24 161.29 19.1 161.64 19.17 161.98 19.17 162.33 19.31 162.68 20.44 163.03 21.5 163.38 21.07 163.73 22.2 164.08 22.48 164.43 22.48 164.78 22.48 165.13 22.2 165.48 21.85 165.83 21 166.17 20.65 166.52 21.64 166.87 21.14 167.22 21.64 167.57 20.3 167.92 20.79 168.27 22.69 168.62 22.13 168.97 22.2 169.32 21.99 169.67 21.28 170.01 21.57 170.36 21.28 170.71 20.51 171.06 21.78 171.41 22.69 171.76 22.76 172.11 22.27 172.46 23.68 172.81 25.09 173.16 25.94 173.51 24.95 173.86 25.94 174.2 25.8 174.55 25.51 174.9 25.37 175.25 26.43 175.6 27.7 175.95 27.42 176.3 26.5 176.65 25.58 177 24.74 177.35 25.23 177.7 25.66 178.04 26.71 178.39 27.35 178.74 25.87 179.09 26.57 179.44 25.58 179.79 24.88 180.14 26.08 180.49 28.12 180.84 28.05 181.19 26.5 181.54 26.01 181.89 26.85 182.23 26.85 182.58 27.07 182.93 26.99 183.28 26.92 183.63 26.57 183.98 28.26 184.33 26.36 184.68 27.28 185.03 27.84 185.38 28.4 185.73 28.76 186.08 29.04 186.42 28.69 186.77 28.4 187.12 27.63 187.47 28.4 187.82 29.25 188.17 29.89 188.52 29.74 188.87 30.03 189.22 29.04 189.57 28.4 189.92 29.96 190.26 29.74 190.61 30.31 190.96 30.73 191.31 29.53 191.66 29.46 192.01 30.52 192.36 29.18 192.71 28.12 193.06 28.9 193.41 29.46 193.76 29.82 194.11 29.04 194.45 28.55 194.8 28.9 195.15 28.12 195.5 26.78 195.85 26.15 196.2 25.58"/>
      </g>
      <g stroke-width="0.3" fill="#000000" fill-opacity="0.000" class="geometry" stroke-dasharray="none" stroke="#66C2A5" id="img-7bd7ac81-31">
        <path fill="none" d="M21.98,33.76 L 22.33 33.2 22.68 32.99 23.03 32.92 23.38 34.61 23.73 34.12 24.08 35.88 24.42 36.09 24.77 35.74 25.12 34.96 25.47 35.74 25.82 35.31 26.17 36.02 26.52 38.13 26.87 38.13 27.22 37.99 27.57 39.76 27.92 39.12 28.27 38.91 28.61 37.08 28.96 37.15 29.31 36.94 29.66 37.64 30.01 37.08 30.36 36.23 30.71 37.36 31.06 38.06 31.41 37.71 31.76 37.99 32.11 38.21 32.45 37.85 32.8 36.44 33.15 37.08 33.5 37.08 33.85 36.09 34.2 36.09 34.55 36.65 34.9 36.94 35.25 36.72 35.6 35.6 35.95 34.75 36.3 35.88 36.64 35.31 36.99 33.55 37.34 32.99 37.69 32.85 38.04 33.62 38.39 33.41 38.74 33.13 39.09 32.64 39.44 33.2 39.79 31.58 40.14 30.03 40.49 30.87 40.83 30.94 41.18 30.24 41.53 29.04 41.88 29.96 42.23 29.39 42.58 29.89 42.93 29.39 43.28 28.83 43.63 28.4 43.98 29.82 44.33 30.31 44.67 29.82 45.02 30.8 45.37 30.94 45.72 31.08 46.07 31.58 46.42 32.78 46.77 31.72 47.12 31.3 47.47 31.23 47.82 30.1 48.17 29.67 48.52 31.15 48.86 31.65 49.21 29.74 49.56 30.38 49.91 31.23 50.26 30.94 50.61 30.8 50.96 30.31 51.31 32 51.66 31.3 52.01 31.23 52.36 30.1 52.7 29.32 53.05 29.39 53.4 28.9 53.75 27.98 54.1 26.78 54.45 26.64 54.8 25.44 55.15 24.25 55.5 24.17 55.85 23.61 56.2 23.82 56.55 24.32 56.89 23.47 57.24 24.1 57.59 23.96 57.94 23.96 58.29 24.81 58.64 24.67 58.99 24.46 59.34 25.44 59.69 26.08 60.04 26.5 60.39 27.14 60.73 28.05 61.08 27.63 61.43 27.56 61.78 26.64 62.13 27.28 62.48 27.7 62.83 28.12 63.18 27.28 63.53 28.05 63.88 29.39 64.23 30.73 64.58 30.31 64.92 29.32 65.27 30.45 65.62 30.66 65.97 30.59 66.32 29.82 66.67 28.83 67.02 29.11 67.37 29.11 67.72 29.25 68.07 28.4 68.42 28.76 68.77 28.76 69.11 28.12 69.46 28.55 69.81 29.18 70.16 28.83 70.51 29.39 70.86 29.32 71.21 29.04 71.56 27.98 71.91 27.91 72.26 29.25 72.61 29.89 72.95 29.89 73.3 30.45 73.65 29.25 74 29.96 74.35 31.86 74.7 32.21 75.05 33.83 75.4 33.62 75.75 32.28 76.1 31.79 76.45 32.56 76.8 32.49 77.14 32.07 77.49 33.27 77.84 30.87 78.19 31.51 78.54 30.73 78.89 30.24 79.24 31.65 79.59 33.76 79.94 34.05 80.29 34.26 80.64 33.97 80.98 33.06 81.33 32.28 81.68 33.27 82.03 32.92 82.38 33.27 82.73 34.12 83.08 33.41 83.43 35.24 83.78 34.96 84.13 35.24 84.48 35.24 84.83 35.1 85.17 35.38 85.52 34.61 85.87 35.03 86.22 34.26 86.57 33.2 86.92 33.06 87.27 31.08 87.62 31.79 87.97 31.65 88.32 31.15 88.67 32.99 89.02 32.85 89.36 32.56 89.71 32 90.06 30.73 90.41 30.66 90.76 29.6 91.11 30.8 91.46 31.37 91.81 32.07 92.16 32.49 92.51 34.19 92.86 33.55 93.2 34.61 93.55 34.47 93.9 35.67 94.25 35.95 94.6 35.88 94.95 35.81 95.3 34.68 95.65 35.38 96 36.23 96.35 35.1 96.7 34.96 97.05 33.48 97.39 32.49 97.74 32 98.09 32.99 98.44 32.99 98.79 32.78 99.14 33.55 99.49 33.76 99.84 33.55 100.19 34.54 100.54 34.4 100.89 34.4 101.23 34.47 101.58 34.33 101.93 33.27 102.28 33.27 102.63 33.69 102.98 34.19 103.33 36.3 103.68 36.16 104.03 35.74 104.38 36.8 104.73 35.38 105.08 35.24 105.42 34.26 105.77 35.74 106.12 37.5 106.47 37.43 106.82 36.58 107.17 37.29 107.52 37.99 107.87 37.43 108.22 37.29 108.57 36.51 108.92 36.87 109.26 36.65 109.61 35.81 109.96 35.6 110.31 36.16 110.66 36.37 111.01 37.43 111.36 36.09 111.71 35.17 112.06 36.87 112.41 36.65 112.76 36.94 113.11 38.49 113.45 37.57 113.8 36.51 114.15 35.81 114.5 36.09 114.85 35.95 115.2 35.88 115.55 37.08 115.9 37.22 116.25 36.09 116.6 36.72 116.95 37.64 117.3 36.8 117.64 37.85 117.99 37.85 118.34 38.13 118.69 38.35 119.04 38.28 119.39 38.84 119.74 40.18 120.09 40.18 120.44 40.46 120.79 40.32 121.14 39.19 121.48 40.6 121.83 40.11 122.18 41.1 122.53 41.52 122.88 42.58 123.23 41.94 123.58 42.44 123.93 43.21 124.28 42.72 124.63 43.49 124.98 43.92 125.33 43.42 125.67 42.72 126.02 42.37 126.37 42.72 126.72 43.7 127.07 43.49 127.42 43.85 127.77 43.7 128.12 43 128.47 43.56 128.82 43.92 129.17 43.85 129.51 45.4 129.86 45.11 130.21 45.61 130.56 44.83 130.91 43.92 131.26 44.83 131.61 45.47 131.96 45.47 132.31 45.68 132.66 45.96 133.01 46.45 133.36 46.81 133.7 47.09 134.05 46.1 134.4 46.45 134.75 45.82 135.1 45.96 135.45 45.33 135.8 44.76 136.15 44.69 136.5 46.03 136.85 46.74 137.2 46.67 137.55 46.38 137.89 47.44 138.24 47.23 138.59 48.08 138.94 48.08 139.29 47.93 139.64 47.16 139.99 47.51 140.34 47.65 140.69 49.2 141.04 48.43 141.39 48.08 141.73 47.58 142.08 47.02 142.43 46.81 142.78 47.65 143.13 47.65 143.48 46.81 143.83 48.92 144.18 49.42 144.53 48.22 144.88 48.29 145.23 47.37 145.58 47.16 145.92 47.16 146.27 47.09 146.62 48.29 146.97 48.5 147.32 49.35 147.67 48.57 148.02 48.99 148.37 49.42 148.72 48.92 149.07 48.36 149.42 47.58 149.76 47.93 150.11 47.86 150.46 47.58 150.81 47.02 151.16 47.16 151.51 48.01 151.86 48.08 152.21 48.78 152.56 48.5 152.91 48.36 153.26 47.86 153.61 47.51 153.95 47.37 154.3 48.15 154.65 47.79 155 48.01 155.35 48.64 155.7 48.08 156.05 48.08 156.4 47.93 156.75 47.23 157.1 47.65 157.45 47.3 157.79 46.45 158.14 45.89 158.49 46.45 158.84 46.31 159.19 46.17 159.54 45.04 159.89 45.75 160.24 45.54 160.59 45.4 160.94 44.13 161.29 45.54 161.64 45.4 161.98 44.34 162.33 44.13 162.68 43.35 163.03 43.7 163.38 42.72 163.73 44.13 164.08 43.7 164.43 43.42 164.78 44.62 165.13 45.61 165.48 46.1 165.83 46.52 166.17 46.74 166.52 47.51 166.87 47.72 167.22 48.43 167.57 47.58 167.92 47.72 168.27 47.86 168.62 47.16 168.97 48.5 169.32 47.86 169.67 48.01 170.01 48.22 170.36 46.67 170.71 47.51 171.06 48.22 171.41 48.15 171.76 48.57 172.11 48.57 172.46 47.86 172.81 48.29 173.16 49.56 173.51 49.77 173.86 49.27 174.2 48.08 174.55 47.86 174.9 47.93 175.25 47.58 175.6 47.65 175.95 47.16 176.3 46.67 176.65 45.96 177 46.95 177.35 46.38 177.7 46.81 178.04 46.52 178.39 46.6 178.74 46.17 179.09 46.95 179.44 47.72 179.79 47.65 180.14 47.86 180.49 48.01 180.84 47.86 181.19 47.65 181.54 49.06 181.89 49.27 182.23 49.27 182.58 49.77 182.93 50.12 183.28 50.47 183.63 50.83 183.98 50.76 184.33 51.18 184.68 51.46 185.03 51.46 185.38 50.83 185.73 50.76 186.08 50.33 186.42 50.76 186.77 50.83 187.12 50.47 187.47 50.68 187.82 50.19 188.17 49.42 188.52 49.84 188.87 49.84 189.22 49.91 189.57 49.2 189.92 49.56 190.26 48.15 190.61 48.71 190.96 46.6 191.31 46.52 191.66 47.37 192.01 47.23 192.36 47.58 192.71 47.16 193.06 46.81 193.41 47.79 193.76 48.92 194.11 48.78 194.45 49.2 194.8 50.4 195.15 50.4 195.5 50.83 195.85 50.19 196.2 50.05"/>
      </g>
      <g stroke-width="0.3" fill="#000000" fill-opacity="0.000" class="geometry" stroke-dasharray="none" stroke="#ABDDA4" id="img-7bd7ac81-32">
        <path fill="none" d="M21.98,33.76 L 22.33 34.33 22.68 33.27 23.03 31.58 23.38 31.15 23.73 32.42 24.08 32.71 24.42 32.92 24.77 33.34 25.12 34.12 25.47 34.12 25.82 33.83 26.17 34.89 26.52 34.82 26.87 33.83 27.22 34.75 27.57 34.68 27.92 34.26 28.27 35.24 28.61 34.89 28.96 34.68 29.31 34.54 29.66 34.89 30.01 33.9 30.36 34.54 30.71 33.76 31.06 34.96 31.41 34.75 31.76 34.68 32.11 36.09 32.45 37.29 32.8 37.29 33.15 36.51 33.5 37.01 33.85 37.36 34.2 35.67 34.55 35.74 34.9 35.74 35.25 34.47 35.6 35.38 35.95 35.6 36.3 35.38 36.64 34.61 36.99 33.97 37.34 34.12 37.69 34.68 38.04 35.03 38.39 35.53 38.74 35.17 39.09 33.9 39.44 34.96 39.79 35.38 40.14 35.81 40.49 35.74 40.83 36.51 41.18 36.16 41.53 37.5 41.88 36.94 42.23 37.43 42.58 37.71 42.93 38.13 43.28 37.5 43.63 34.96 43.98 33.62 44.33 34.05 44.67 32.28 45.02 30.8 45.37 31.51 45.72 32.49 46.07 32.28 46.42 32.28 46.77 32.85 47.12 32.56 47.47 32.56 47.82 33.48 48.17 35.03 48.52 34.4 48.86 35.74 49.21 34.96 49.56 36.51 49.91 37.29 50.26 37.85 50.61 37.99 50.96 38.42 51.31 38.35 51.66 37.43 52.01 36.44 52.36 36.65 52.7 37.15 53.05 36.72 53.4 36.65 53.75 35.74 54.1 35.53 54.45 35.67 54.8 36.3 55.15 36.8 55.5 37.57 55.85 38.49 56.2 37.92 56.55 38.21 56.89 39.12 57.24 38.84 57.59 38.42 57.94 38.42 58.29 38.77 58.64 38.63 58.99 39.05 59.34 38.13 59.69 38.91 60.04 39.69 60.39 39.97 60.73 39.47 61.08 40.95 61.43 41.17 61.78 40.95 62.13 39.76 62.48 39.76 62.83 40.67 63.18 40.53 63.53 39.4 63.88 40.11 64.23 38.21 64.58 38.63 64.92 38.35 65.27 38.63 65.62 38.7 65.97 38.91 66.32 38.7 66.67 39.05 67.02 40.32 67.37 39.54 67.72 40.6 68.07 41.03 68.42 41.03 68.77 41.17 69.11 41.31 69.46 41.94 69.81 42.65 70.16 41.45 70.51 41.87 70.86 41.52 71.21 40.74 71.56 41.17 71.91 41.31 72.26 41.73 72.61 40.53 72.95 41.73 73.3 42.01 73.65 43.35 74 43.99 74.35 44.48 74.7 44.34 75.05 44.27 75.4 45.33 75.75 44.9 76.1 44.06 76.45 43.49 76.8 43.07 77.14 42.58 77.49 43.49 77.84 42.65 78.19 43.49 78.54 43.42 78.89 43.92 79.24 45.19 79.59 44.9 79.94 43.85 80.29 44.62 80.64 45.04 80.98 45.61 81.33 45.11 81.68 44.97 82.03 45.04 82.38 45.4 82.73 44.41 83.08 44.06 83.43 44.13 83.78 44.34 84.13 43.35 84.48 42.93 84.83 43.07 85.17 42.29 85.52 40.81 85.87 43 86.22 43.14 86.57 43.78 86.92 44.06 87.27 43.78 87.62 42.65 87.97 42.51 88.32 42.37 88.67 43.07 89.02 43.7 89.36 42.51 89.71 42.79 90.06 42.44 90.41 43.21 90.76 43 91.11 44.41 91.46 43.63 91.81 44.34 92.16 43.56 92.51 44.34 92.86 42.79 93.2 43.07 93.55 40.46 93.9 41.31 94.25 41.45 94.6 40.39 94.95 39.4 95.3 40.18 95.65 40.95 96 41.73 96.35 42.93 96.7 41.94 97.05 40.25 97.39 40.25 97.74 39.83 98.09 41.45 98.44 39.54 98.79 40.11 99.14 40.25 99.49 41.03 99.84 41.38 100.19 40.25 100.54 40.18 100.89 40.67 101.23 41.66 101.58 41.73 101.93 43 102.28 43.85 102.63 43 102.98 43.7 103.33 42.51 103.68 43 104.03 42.65 104.38 42.29 104.73 43.14 105.08 43.35 105.42 42.08 105.77 42.72 106.12 42.93 106.47 42.58 106.82 42.93 107.17 42.29 107.52 41.24 107.87 41.17 108.22 41.8 108.57 42.86 108.92 41.94 109.26 41.1 109.61 41.17 109.96 41.1 110.31 40.88 110.66 40.74 111.01 41.17 111.36 42.15 111.71 41.45 112.06 40.04 112.41 40.18 112.76 40.39 113.11 41.87 113.45 42.51 113.8 42.86 114.15 43.56 114.5 42.58 114.85 41.73 115.2 41.45 115.55 40.53 115.9 40.11 116.25 40.46 116.6 40.32 116.95 39.9 117.3 39.83 117.64 40.18 117.99 38.91 118.34 39.19 118.69 40.25 119.04 40.46 119.39 41.03 119.74 39.83 120.09 39.26 120.44 39.83 120.79 40.39 121.14 41.31 121.48 41.45 121.83 41.03 122.18 40.6 122.53 39.69 122.88 40.88 123.23 42.15 123.58 43.14 123.93 43.63 124.28 42.72 124.63 43.85 124.98 42.93 125.33 43.14 125.67 42.86 126.02 42.37 126.37 42.29 126.72 41.94 127.07 41.38 127.42 42.29 127.77 40.88 128.12 40.53 128.47 39.69 128.82 40.95 129.17 41.03 129.51 39.69 129.86 39.33 130.21 38.63 130.56 38.56 130.91 38.7 131.26 37.43 131.61 37.57 131.96 36.87 132.31 35.53 132.66 35.6 133.01 34.89 133.36 34.68 133.7 34.68 134.05 35.6 134.4 36.8 134.75 35.46 135.1 33.62 135.45 31.37 135.8 32.78 136.15 33.62 136.5 33.41 136.85 31.86 137.2 32.56 137.55 31.79 137.89 33.06 138.24 33.27 138.59 32.49 138.94 32.35 139.29 32.28 139.64 30.66 139.99 30.52 140.34 30.24 140.69 31.01 141.04 31.58 141.39 31.79 141.73 33.06 142.08 32.85 142.43 32.78 142.78 32.64 143.13 31.93 143.48 31.01 143.83 30.66 144.18 30.87 144.53 32.14 144.88 32.56 145.23 32.14 145.58 31.3 145.92 31.23 146.27 29.6 146.62 30.38 146.97 31.15 147.32 31.3 147.67 30.87 148.02 32.71 148.37 32.78 148.72 32.56 149.07 34.05 149.42 32.21 149.76 32 150.11 32.49 150.46 33.69 150.81 34.54 151.16 34.82 151.51 34.4 151.86 35.03 152.21 35.03 152.56 36.16 152.91 37.22 153.26 38.13 153.61 39.26 153.95 38.91 154.3 37.92 154.65 37.92 155 38.13 155.35 38.13 155.7 38.13 156.05 38.28 156.4 37.01 156.75 36.65 157.1 36.44 157.45 36.16 157.79 36.72 158.14 38.77 158.49 39.4 158.84 39.97 159.19 39.83 159.54 39.69 159.89 40.04 160.24 40.11 160.59 39.83 160.94 40.18 161.29 39.9 161.64 39.76 161.98 40.53 162.33 40.46 162.68 39.12 163.03 39.69 163.38 38.98 163.73 38.06 164.08 38.84 164.43 39.05 164.78 39.54 165.13 39.05 165.48 40.04 165.83 40.11 166.17 40.53 166.52 40.53 166.87 39.4 167.22 39.54 167.57 38.49 167.92 39.26 168.27 38.91 168.62 37.78 168.97 39.47 169.32 39.05 169.67 37.57 170.01 37.22 170.36 36.23 170.71 37.71 171.06 38.56 171.41 38.98 171.76 37.78 172.11 37.92 172.46 37.36 172.81 37.08 173.16 35.81 173.51 35.31 173.86 35.6 174.2 35.95 174.55 36.16 174.9 36.51 175.25 35.46 175.6 36.44 175.95 36.44 176.3 38.13 176.65 38.06 177 37.57 177.35 37.99 177.7 35.74 178.04 36.51 178.39 36.37 178.74 35.6 179.09 35.38 179.44 36.16 179.79 36.23 180.14 37.78 180.49 37.78 180.84 39.19 181.19 40.74 181.54 40.88 181.89 40.67 182.23 40.46 182.58 41.17 182.93 40.95 183.28 42.15 183.63 42.15 183.98 41.87 184.33 42.15 184.68 43.28 185.03 42.01 185.38 42.29 185.73 43.56 186.08 42.51 186.42 41.03 186.77 41.52 187.12 43.14 187.47 42.79 187.82 42.86 188.17 43.92 188.52 44.62 188.87 45.04 189.22 45.68 189.57 45.33 189.92 44.9 190.26 44.83 190.61 43.35 190.96 42.86 191.31 42.72 191.66 43.92 192.01 42.58 192.36 42.58 192.71 42.79 193.06 43.14 193.41 44.97 193.76 45.04 194.11 44.2 194.45 43.99 194.8 43.21 195.15 43.42 195.5 42.65 195.85 43 196.2 42.72"/>
      </g>
      <g stroke-width="0.3" fill="#000000" fill-opacity="0.000" class="geometry" stroke-dasharray="none" stroke="#E6F598" id="img-7bd7ac81-33">
        <path fill="none" d="M21.98,33.76 L 22.33 33.27 22.68 33.41 23.03 31.01 23.38 32.49 23.73 32.56 24.08 32.14 24.42 31.01 24.77 32.07 25.12 31.79 25.47 31.79 25.82 30.24 26.17 28.76 26.52 29.6 26.87 28.69 27.22 28.55 27.57 26.43 27.92 27.49 28.27 25.87 28.61 23.75 28.96 23.47 29.31 23.54 29.66 23.54 30.01 23.82 30.36 24.1 30.71 23.82 31.06 23.54 31.41 24.17 31.76 24.17 32.11 22.91 32.45 22.62 32.8 22.83 33.15 22.98 33.5 23.82 33.85 23.68 34.2 23.4 34.55 22.27 34.9 22.55 35.25 22.69 35.6 21.92 35.95 21.78 36.3 21.21 36.64 22.2 36.99 20.72 37.34 21.57 37.69 22.13 38.04 23.05 38.39 22.91 38.74 23.4 39.09 22.98 39.44 22.98 39.79 23.61 40.14 24.6 40.49 25.51 40.83 26.64 41.18 26.5 41.53 26.36 41.88 24.32 42.23 25.23 42.58 24.6 42.93 25.66 43.28 26.36 43.63 26.71 43.98 26.99 44.33 27.14 44.67 27.14 45.02 27.35 45.37 26.29 45.72 26.15 46.07 25.87 46.42 24.74 46.77 25.58 47.12 26.36 47.47 26.22 47.82 26.29 48.17 26.5 48.52 26.99 48.86 27.07 49.21 27.98 49.56 27.21 49.91 28.12 50.26 27.49 50.61 26.64 50.96 26.36 51.31 26.57 51.66 26.01 52.01 25.94 52.36 25.87 52.7 25.73 53.05 25.37 53.4 25.66 53.75 24.88 54.1 25.16 54.45 25.09 54.8 25.23 55.15 27.49 55.5 27.98 55.85 27.98 56.2 28.05 56.55 28.62 56.89 28.48 57.24 28.12 57.59 28.55 57.94 30.24 58.29 32.78 58.64 32.92 58.99 33.27 59.34 32.07 59.69 32.85 60.04 32.49 60.39 32.56 60.73 32.64 61.08 33.13 61.43 34.12 61.78 34.4 62.13 33.34 62.48 32.49 62.83 32.71 63.18 32.14 63.53 32.42 63.88 33.41 64.23 34.82 64.58 34.26 64.92 33.41 65.27 32.56 65.62 31.93 65.97 29.04 66.32 28.48 66.67 28.62 67.02 27.28 67.37 27.14 67.72 26.99 68.07 27.77 68.42 29.04 68.77 29.18 69.11 28.83 69.46 28.48 69.81 28.97 70.16 29.46 70.51 29.67 70.86 29.32 71.21 29.32 71.56 29.39 71.91 29.25 72.26 30.31 72.61 30.03 72.95 30.24 73.3 30.45 73.65 30.24 74 31.08 74.35 30.1 74.7 29.18 75.05 30.17 75.4 29.04 75.75 28.12 76.1 27.63 76.45 27.28 76.8 27.07 77.14 27.14 77.49 26.92 77.84 27.77 78.19 26.99 78.54 27.07 78.89 28.55 79.24 28.69 79.59 28.9 79.94 28.9 80.29 30.1 80.64 31.58 80.98 32.85 81.33 31.93 81.68 30.73 82.03 30.8 82.38 30.52 82.73 30.38 83.08 31.65 83.43 32.28 83.78 32.42 84.13 33.13 84.48 32.35 84.83 32.78 85.17 31.79 85.52 32.07 85.87 32.49 86.22 32.49 86.57 32.71 86.92 32.64 87.27 32.56 87.62 32.56 87.97 32.64 88.32 31.01 88.67 30.66 89.02 30.17 89.36 29.18 89.71 28.19 90.06 26.71 90.41 29.18 90.76 28.33 91.11 29.46 91.46 29.74 91.81 30.1 92.16 29.39 92.51 29.89 92.86 29.04 93.2 30.1 93.55 29.32 93.9 30.45 94.25 31.93 94.6 29.96 94.95 30.03 95.3 28.97 95.65 28.83 96 27.63 96.35 25.51 96.7 25.37 97.05 25.94 97.39 25.94 97.74 26.08 98.09 26.01 98.44 26.29 98.79 26.71 99.14 27.14 99.49 27.98 99.84 28.97 100.19 29.74 100.54 30.03 100.89 31.58 101.23 31.93 101.58 32.64 101.93 33.27 102.28 32.85 102.63 33.34 102.98 35.74 103.33 35.67 103.68 35.46 104.03 35.6 104.38 35.95 104.73 33.97 105.08 35.1 105.42 34.47 105.77 34.82 106.12 34.12 106.47 34.26 106.82 35.03 107.17 34.61 107.52 34.05 107.87 34.19 108.22 33.97 108.57 33.62 108.92 33.97 109.26 35.17 109.61 37.15 109.96 37.92 110.31 37.15 110.66 38.35 111.01 37.78 111.36 36.58 111.71 36.23 112.06 36.58 112.41 36.37 112.76 37.01 113.11 37.5 113.45 39.05 113.8 38.7 114.15 38.13 114.5 37.78 114.85 38.13 115.2 39.19 115.55 38.98 115.9 38.56 116.25 37.71 116.6 37.29 116.95 35.81 117.3 36.94 117.64 36.72 117.99 36.3 118.34 35.88 118.69 36.51 119.04 37.71 119.39 38.21 119.74 38.06 120.09 38.42 120.44 37.22 120.79 36.94 121.14 36.09 121.48 35.38 121.83 33.97 122.18 33.62 122.53 31.65 122.88 30.66 123.23 31.01 123.58 29.6 123.93 30.52 124.28 30.24 124.63 30.59 124.98 31.37 125.33 31.37 125.67 30.31 126.02 30.1 126.37 30.87 126.72 30.87 127.07 31.44 127.42 30.31 127.77 30.94 128.12 31.01 128.47 31.72 128.82 31.3 129.17 30.31 129.51 30.66 129.86 28.83 130.21 28.97 130.56 29.74 130.91 28.48 131.26 27.49 131.61 26.5 131.96 26.15 132.31 24.95 132.66 24.81 133.01 25.51 133.36 25.02 133.7 23.82 134.05 23.89 134.4 23.61 134.75 22.98 135.1 22.62 135.45 22.98 135.8 22.2 136.15 21.64 136.5 21.78 136.85 22.62 137.2 23.89 137.55 23.75 137.89 23.96 138.24 25.02 138.59 26.01 138.94 26.29 139.29 28.26 139.64 28.69 139.99 28.83 140.34 29.18 140.69 29.39 141.04 28.4 141.39 27.84 141.73 28.33 142.08 27.28 142.43 26.64 142.78 26.36 143.13 26.57 143.48 26.57 143.83 26.43 144.18 26.22 144.53 25.58 144.88 26.22 145.23 26.15 145.58 26.36 145.92 26.57 146.27 26.29 146.62 26.57 146.97 27.07 147.32 26.36 147.67 26.5 148.02 24.95 148.37 23.75 148.72 23.68 149.07 23.96 149.42 24.46 149.76 24.25 150.11 24.25 150.46 24.1 150.81 24.1 151.16 24.39 151.51 24.39 151.86 23.68 152.21 22.34 152.56 22.41 152.91 21.64 153.26 21.99 153.61 23.19 153.95 22.69 154.3 22.55 154.65 23.82 155 22.76 155.35 22.76 155.7 22.48 156.05 22.13 156.4 22.83 156.75 23.82 157.1 25.16 157.45 24.67 157.79 23.96 158.14 24.81 158.49 23.05 158.84 22.98 159.19 23.61 159.54 24.1 159.89 23.05 160.24 24.25 160.59 23.68 160.94 24.88 161.29 25.09 161.64 25.44 161.98 24.32 162.33 23.68 162.68 23.82 163.03 24.32 163.38 23.89 163.73 23.96 164.08 22.69 164.43 22.2 164.78 22.76 165.13 23.75 165.48 22.76 165.83 24.25 166.17 24.81 166.52 24.39 166.87 25.3 167.22 25.3 167.57 26.71 167.92 27.07 168.27 26.22 168.62 26.15 168.97 26.64 169.32 26.64 169.67 27.91 170.01 28.62 170.36 28.55 170.71 28.83 171.06 28.4 171.41 29.53 171.76 29.53 172.11 29.25 172.46 29.32 172.81 29.25 173.16 28.9 173.51 29.18 173.86 29.82 174.2 29.89 174.55 30.8 174.9 31.44 175.25 30.17 175.6 30.03 175.95 30.8 176.3 30.52 176.65 31.72 177 31.72 177.35 31.23 177.7 32 178.04 32.14 178.39 31.37 178.74 30.38 179.09 32.78 179.44 32.85 179.79 33.48 180.14 34.33 180.49 33.62 180.84 33.62 181.19 33.27 181.54 32.56 181.89 33.06 182.23 34.61 182.58 35.03 182.93 37.5 183.28 37.36 183.63 37.71 183.98 36.72 184.33 37.29 184.68 38.21 185.03 39.47 185.38 39.19 185.73 39.62 186.08 38.98 186.42 39.4 186.77 40.25 187.12 40.32 187.47 39.19 187.82 38.06 188.17 37.92 188.52 38.06 188.87 38.42 189.22 37.15 189.57 39.4 189.92 39.26 190.26 38.84 190.61 39.62 190.96 40.32 191.31 41.38 191.66 42.51 192.01 42.65 192.36 42.37 192.71 42.15 193.06 42.15 193.41 40.04 193.76 41.94 194.11 42.86 194.45 43.78 194.8 43.14 195.15 42.01 195.5 42.37 195.85 43.14 196.2 43.92"/>
      </g>
      <g stroke-width="0.3" fill="#000000" fill-opacity="0.000" class="geometry" stroke-dasharray="none" stroke="#FFFFBF" id="img-7bd7ac81-34">
        <path fill="none" d="M21.98,33.76 L 22.33 34.19 22.68 35.03 23.03 35.03 23.38 35.88 23.73 36.09 24.08 34.61 24.42 34.19 24.77 33.9 25.12 33.62 25.47 33.34 25.82 33.97 26.17 34.89 26.52 35.31 26.87 34.96 27.22 34.05 27.57 33.9 27.92 33.13 28.27 33.34 28.61 34.05 28.96 33.69 29.31 35.24 29.66 34.54 30.01 34.54 30.36 35.31 30.71 34.89 31.06 33.62 31.41 33.41 31.76 34.4 32.11 33.83 32.45 33.2 32.8 32.56 33.15 32.14 33.5 31.23 33.85 31.72 34.2 32.64 34.55 31.58 34.9 31.86 35.25 30.8 35.6 29.53 35.95 29.53 36.3 29.11 36.64 30.8 36.99 30.1 37.34 29.6 37.69 30.24 38.04 31.23 38.39 29.82 38.74 29.67 39.09 31.01 39.44 30.45 39.79 31.51 40.14 31.3 40.49 30.66 40.83 29.04 41.18 28.76 41.53 27.7 41.88 28.26 42.23 28.12 42.58 27.35 42.93 27.63 43.28 27.14 43.63 27.35 43.98 26.99 44.33 26.78 44.67 26.43 45.02 27.28 45.37 26.43 45.72 25.94 46.07 25.16 46.42 24.81 46.77 25.16 47.12 24.95 47.47 24.67 47.82 25.8 48.17 25.51 48.52 24.17 48.86 24.17 49.21 24.03 49.56 24.67 49.91 23.89 50.26 24.67 50.61 24.95 50.96 24.1 51.31 25.09 51.66 25.3 52.01 25.73 52.36 25.66 52.7 25.02 53.05 25.73 53.4 27.49 53.75 28.26 54.1 29.32 54.45 29.6 54.8 26.92 55.15 26.22 55.5 26.99 55.85 26.64 56.2 25.58 56.55 26.08 56.89 25.58 57.24 24.74 57.59 26.64 57.94 25.73 58.29 26.5 58.64 26.22 58.99 28.4 59.34 28.69 59.69 29.25 60.04 29.46 60.39 30.66 60.73 31.37 61.08 31.01 61.43 31.79 61.78 32.78 62.13 32.64 62.48 30.66 62.83 30.73 63.18 30.52 63.53 28.76 63.88 27.84 64.23 28.62 64.58 28.76 64.92 28.55 65.27 30.38 65.62 30.8 65.97 29.11 66.32 29.74 66.67 30.59 67.02 31.58 67.37 32.49 67.72 32.07 68.07 32.14 68.42 33.62 68.77 34.47 69.11 33.62 69.46 32.71 69.81 33.9 70.16 33.41 70.51 32.35 70.86 32.92 71.21 31.51 71.56 32.14 71.91 30.73 72.26 30.59 72.61 29.82 72.95 28.12 73.3 29.89 73.65 30.17 74 28.97 74.35 29.11 74.7 29.82 75.05 30.1 75.4 29.6 75.75 30.03 76.1 29.74 76.45 28.05 76.8 27.91 77.14 28.19 77.49 27.7 77.84 27.14 78.19 26.29 78.54 26.08 78.89 26.99 79.24 28.33 79.59 29.11 79.94 30.1 80.29 31.51 80.64 31.93 80.98 31.72 81.33 30.52 81.68 30.1 82.03 28.97 82.38 30.52 82.73 29.89 83.08 31.23 83.43 30.66 83.78 31.65 84.13 30.73 84.48 30.38 84.83 29.89 85.17 30.94 85.52 30.1 85.87 30.52 86.22 30.31 86.57 31.79 86.92 31.15 87.27 30.31 87.62 30.94 87.97 30.73 88.32 31.79 88.67 32.42 89.02 33.27 89.36 33.97 89.71 33.9 90.06 32.56 90.41 32.56 90.76 33.62 91.11 32.78 91.46 32.99 91.81 33.41 92.16 32.85 92.51 32.99 92.86 32.35 93.2 31.51 93.55 29.74 93.9 28.83 94.25 27.84 94.6 27.35 94.95 26.57 95.3 25.73 95.65 26.43 96 27.49 96.35 27.21 96.7 26.36 97.05 25.94 97.39 26.29 97.74 25.44 98.09 27.07 98.44 27.14 98.79 26.71 99.14 26.71 99.49 27.49 99.84 27.63 100.19 29.11 100.54 28.69 100.89 29.67 101.23 29.82 101.58 29.04 101.93 27.77 102.28 28.9 102.63 28.69 102.98 27.28 103.33 26.36 103.68 25.8 104.03 25.73 104.38 24.67 104.73 23.47 105.08 24.81 105.42 24.88 105.77 25.16 106.12 25.37 106.47 24.46 106.82 23.61 107.17 23.19 107.52 23.26 107.87 24.03 108.22 23.82 108.57 24.25 108.92 23.82 109.26 23.61 109.61 23.54 109.96 23.82 110.31 24.67 110.66 23.75 111.01 23.89 111.36 24.1 111.71 24.03 112.06 24.81 112.41 27.42 112.76 26.5 113.11 26.22 113.45 25.66 113.8 26.85 114.15 26.22 114.5 26.36 114.85 25.94 115.2 25.3 115.55 25.44 115.9 26.85 116.25 25.51 116.6 25.3 116.95 24.74 117.3 25.02 117.64 25.23 117.99 24.1 118.34 24.1 118.69 24.1 119.04 24.1 119.39 23.96 119.74 23.26 120.09 22.83 120.44 24.1 120.79 24.6 121.14 25.8 121.48 24.88 121.83 23.96 122.18 23.75 122.53 24.95 122.88 24.74 123.23 24.25 123.58 24.74 123.93 23.68 124.28 23.4 124.63 24.1 124.98 26.01 125.33 26.99 125.67 26.08 126.02 25.37 126.37 24.32 126.72 24.39 127.07 24.32 127.42 24.39 127.77 24.81 128.12 24.6 128.47 25.3 128.82 25.94 129.17 26.22 129.51 26.99 129.86 26.85 130.21 25.3 130.56 24.39 130.91 25.02 131.26 25.09 131.61 24.95 131.96 25.51 132.31 26.29 132.66 25.44 133.01 26.15 133.36 25.8 133.7 25.8 134.05 26.36 134.4 25.51 134.75 24.6 135.1 25.16 135.45 24.81 135.8 26.5 136.15 27.21 136.5 28.62 136.85 29.82 137.2 30.1 137.55 28.76 137.89 28.48 138.24 27.98 138.59 27.77 138.94 28.33 139.29 28.76 139.64 29.11 139.99 28.48 140.34 28.83 140.69 28.76 141.04 28.9 141.39 29.32 141.73 28.97 142.08 28.12 142.43 27.49 142.78 28.55 143.13 29.82 143.48 29.25 143.83 27.91 144.18 28.83 144.53 28.69 144.88 28.97 145.23 29.46 145.58 29.67 145.92 29.82 146.27 29.18 146.62 29.89 146.97 29.25 147.32 30.31 147.67 31.01 148.02 30.8 148.37 30.03 148.72 32 149.07 31.51 149.42 30.94 149.76 30.73 150.11 31.15 150.46 30.59 150.81 29.96 151.16 30.17 151.51 31.23 151.86 29.46 152.21 27.98 152.56 30.38 152.91 30.94 153.26 31.01 153.61 31.58 153.95 32.64 154.3 31.79 154.65 31.58 155 31.51 155.35 31.44 155.7 30.52 156.05 30.03 156.4 28.76 156.75 28.05 157.1 28.97 157.45 28.55 157.79 30.17 158.14 30.73 158.49 29.67 158.84 29.89 159.19 28.26 159.54 27.28 159.89 27.35 160.24 25.58 160.59 25.66 160.94 24.1 161.29 24.88 161.64 25.16 161.98 25.37 162.33 25.44 162.68 25.16 163.03 26.15 163.38 25.23 163.73 24.17 164.08 23.96 164.43 23.82 164.78 22.76 165.13 22.34 165.48 23.96 165.83 23.82 166.17 23.4 166.52 22.83 166.87 21.07 167.22 21.71 167.57 21.99 167.92 21.92 168.27 22.91 168.62 22.98 168.97 23.26 169.32 24.17 169.67 23.75 170.01 23.19 170.36 23.54 170.71 23.12 171.06 23.05 171.41 22.69 171.76 22.76 172.11 23.05 172.46 23.61 172.81 23.96 173.16 23.68 173.51 22.76 173.86 22.27 174.2 22.27 174.55 22.69 174.9 22.91 175.25 22.76 175.6 23.26 175.95 24.6 176.3 25.58 176.65 24.32 177 25.23 177.35 25.02 177.7 24.74 178.04 24.95 178.39 24.46 178.74 24.25 179.09 25.02 179.44 24.6 179.79 24.6 180.14 24.39 180.49 24.53 180.84 23.54 181.19 23.61 181.54 24.74 181.89 25.3 182.23 25.66 182.58 27.28 182.93 26.36 183.28 27.63 183.63 27.7 183.98 27.35 184.33 27.14 184.68 28.12 185.03 28.4 185.38 28.69 185.73 28.48 186.08 28.83 186.42 28.12 186.77 29.32 187.12 29.74 187.47 28.48 187.82 29.46 188.17 29.74 188.52 29.74 188.87 29.04 189.22 29.04 189.57 29.18 189.92 30.24 190.26 30.17 190.61 30.38 190.96 32.35 191.31 31.58 191.66 31.79 192.01 32.85 192.36 33.13 192.71 32.71 193.06 31.37 193.41 29.18 193.76 28.69 194.11 27.7 194.45 27.84 194.8 27.14 195.15 26.57 195.5 27.07 195.85 26.78 196.2 26.99"/>
      </g>
      <g stroke-width="0.3" fill="#000000" fill-opacity="0.000" class="geometry" stroke-dasharray="none" stroke="#FEE08B" id="img-7bd7ac81-35">
        <path fill="none" d="M21.98,33.76 L 22.33 34.12 22.68 34.96 23.03 34.61 23.38 35.46 23.73 35.1 24.08 36.58 24.42 35.74 24.77 34.68 25.12 35.31 25.47 35.6 25.82 36.51 26.17 35.74 26.52 36.09 26.87 35.38 27.22 34.26 27.57 33.97 27.92 34.05 28.27 34.12 28.61 34.4 28.96 35.46 29.31 34.96 29.66 34.12 30.01 35.38 30.36 34.96 30.71 35.38 31.06 36.02 31.41 36.16 31.76 34.4 32.11 34.96 32.45 33.9 32.8 34.4 33.15 34.05 33.5 34.19 33.85 34.4 34.2 35.31 34.55 34.33 34.9 33.9 35.25 34.4 35.6 33.69 35.95 32.71 36.3 32.78 36.64 33.48 36.99 33.55 37.34 32.21 37.69 31.23 38.04 30.45 38.39 29.46 38.74 29.32 39.09 28.48 39.44 28.12 39.79 28.26 40.14 28.33 40.49 29.82 40.83 29.6 41.18 30.03 41.53 30.03 41.88 28.97 42.23 28.05 42.58 28.48 42.93 28.05 43.28 26.78 43.63 27.14 43.98 26.22 44.33 25.94 44.67 27.56 45.02 26.71 45.37 27.07 45.72 27.07 46.07 28.19 46.42 29.18 46.77 29.04 47.12 28.69 47.47 29.32 47.82 27.84 48.17 28.4 48.52 29.89 48.86 30.8 49.21 30.8 49.56 31.51 49.91 30.17 50.26 29.74 50.61 29.89 50.96 31.01 51.31 32.07 51.66 32.14 52.01 31.93 52.36 30.52 52.7 30.66 53.05 30.66 53.4 32.07 53.75 31.79 54.1 33.06 54.45 33.76 54.8 33.83 55.15 32.85 55.5 33.69 55.85 35.1 56.2 34.26 56.55 34.26 56.89 34.54 57.24 33.62 57.59 34.89 57.94 34.26 58.29 35.03 58.64 34.54 58.99 33.13 59.34 33.69 59.69 34.68 60.04 34.68 60.39 33.34 60.73 32.07 61.08 33.06 61.43 32.99 61.78 32.64 62.13 33.27 62.48 32.49 62.83 32.71 63.18 33.69 63.53 36.09 63.88 36.09 64.23 36.94 64.58 36.8 64.92 36.65 65.27 35.6 65.62 35.67 65.97 35.95 66.32 35.88 66.67 36.72 67.02 36.37 67.37 37.15 67.72 37.43 68.07 38.35 68.42 36.58 68.77 34.05 69.11 34.75 69.46 35.67 69.81 34.89 70.16 34.89 70.51 34.33 70.86 33.48 71.21 33.2 71.56 32.85 71.91 31.3 72.26 30.1 72.61 31.51 72.95 31.86 73.3 32.07 73.65 32.21 74 32.49 74.35 33.41 74.7 33.55 75.05 33.2 75.4 33.27 75.75 32.92 76.1 32.42 76.45 34.05 76.8 33.2 77.14 33.48 77.49 34.12 77.84 36.8 78.19 35.6 78.54 34.82 78.89 33.55 79.24 35.38 79.59 33.69 79.94 33.34 80.29 34.47 80.64 35.38 80.98 35.24 81.33 33.55 81.68 32.78 82.03 33.2 82.38 33.62 82.73 33.55 83.08 33.34 83.43 33.27 83.78 34.05 84.13 32.49 84.48 34.4 84.83 35.24 85.17 35.03 85.52 35.1 85.87 36.8 86.22 37.01 86.57 37.64 86.92 38.35 87.27 36.65 87.62 34.4 87.97 33.9 88.32 33.06 88.67 32.28 89.02 32.92 89.36 32.85 89.71 32.99 90.06 32.85 90.41 33.27 90.76 33.27 91.11 34.54 91.46 34.12 91.81 33.97 92.16 34.96 92.51 34.82 92.86 33.97 93.2 34.68 93.55 35.03 93.9 34.19 94.25 33.06 94.6 34.26 94.95 34.54 95.3 35.53 95.65 36.44 96 34.54 96.35 36.09 96.7 37.22 97.05 37.29 97.39 36.44 97.74 36.23 98.09 36.02 98.44 37.01 98.79 35.95 99.14 35.46 99.49 35.88 99.84 34.68 100.19 33.69 100.54 33.9 100.89 35.03 101.23 35.6 101.58 35.31 101.93 35.88 102.28 34.89 102.63 34.12 102.98 33.34 103.33 35.53 103.68 34.68 104.03 34.82 104.38 34.96 104.73 35.24 105.08 33.06 105.42 32.56 105.77 32.71 106.12 32.71 106.47 33.41 106.82 31.79 107.17 30.38 107.52 30.17 107.87 30.52 108.22 29.89 108.57 30.73 108.92 30.73 109.26 30.8 109.61 29.18 109.96 28.55 110.31 28.76 110.66 29.11 111.01 28.76 111.36 28.83 111.71 29.04 112.06 28.55 112.41 28.83 112.76 29.25 113.11 27.98 113.45 27.84 113.8 27.56 114.15 27.77 114.5 28.05 114.85 27.7 115.2 27.84 115.55 28.33 115.9 29.39 116.25 28.9 116.6 30.1 116.95 29.25 117.3 28.62 117.64 28.55 117.99 27.84 118.34 27.7 118.69 27.21 119.04 26.71 119.39 28.83 119.74 28.83 120.09 28.69 120.44 30.1 120.79 30.45 121.14 30.52 121.48 31.23 121.83 30.87 122.18 32.99 122.53 34.82 122.88 34.82 123.23 34.89 123.58 35.53 123.93 37.57 124.28 35.88 124.63 36.02 124.98 36.65 125.33 36.51 125.67 35.81 126.02 35.24 126.37 34.19 126.72 34.96 127.07 35.24 127.42 36.16 127.77 36.37 128.12 37.36 128.47 36.3 128.82 35.6 129.17 36.51 129.51 36.09 129.86 35.6 130.21 33.27 130.56 33.97 130.91 33.83 131.26 32.99 131.61 30.94 131.96 30.87 132.31 29.74 132.66 29.74 133.01 30.03 133.36 30.31 133.7 30.03 134.05 30.24 134.4 30.73 134.75 31.37 135.1 29.39 135.45 29.18 135.8 29.6 136.15 30.38 136.5 31.15 136.85 31.44 137.2 30.94 137.55 30.8 137.89 31.37 138.24 31.15 138.59 31.01 138.94 30.1 139.29 29.6 139.64 29.96 139.99 28.9 140.34 28.26 140.69 27.7 141.04 27.14 141.39 27.98 141.73 27.49 142.08 28.26 142.43 28.55 142.78 29.82 143.13 29.32 143.48 29.53 143.83 30.24 144.18 29.39 144.53 30.31 144.88 30.17 145.23 31.01 145.58 30.66 145.92 30.94 146.27 30.31 146.62 29.96 146.97 28.83 147.32 28.62 147.67 27.7 148.02 28.05 148.37 27.14 148.72 26.15 149.07 27.28 149.42 28.69 149.76 28.97 150.11 29.04 150.46 28.83 150.81 29.11 151.16 29.89 151.51 29.25 151.86 29.67 152.21 30.1 152.56 29.25 152.91 28.9 153.26 27.7 153.61 27.84 153.95 27.91 154.3 28.12 154.65 26.85 155 25.66 155.35 26.36 155.7 25.23 156.05 23.47 156.4 22.13 156.75 22.48 157.1 21.78 157.45 21.99 157.79 21.5 158.14 21.64 158.49 21.57 158.84 22.48 159.19 21.99 159.54 22.48 159.89 22.69 160.24 23.96 160.59 25.09 160.94 25.3 161.29 25.02 161.64 24.74 161.98 24.53 162.33 24.53 162.68 24.17 163.03 24.74 163.38 25.73 163.73 25.51 164.08 25.44 164.43 25.66 164.78 25.3 165.13 25.02 165.48 26.08 165.83 26.36 166.17 26.08 166.52 26.15 166.87 27.98 167.22 26.36 167.57 26.78 167.92 26.85 168.27 26.99 168.62 26.57 168.97 25.23 169.32 25.66 169.67 26.43 170.01 27.35 170.36 27.56 170.71 27.14 171.06 27.56 171.41 27.42 171.76 26.85 172.11 27.63 172.46 27.49 172.81 28.48 173.16 28.4 173.51 29.39 173.86 30.59 174.2 28.33 174.55 28.19 174.9 29.53 175.25 27.14 175.6 26.36 175.95 25.87 176.3 25.8 176.65 25.58 177 24.17 177.35 24.03 177.7 24.03 178.04 24.74 178.39 23.68 178.74 24.67 179.09 25.16 179.44 24.03 179.79 23.68 180.14 24.74 180.49 24.25 180.84 24.1 181.19 24.39 181.54 25.16 181.89 24.1 182.23 23.96 182.58 23.12 182.93 21.92 183.28 20.51 183.63 22.69 183.98 22.55 184.33 22.62 184.68 22.27 185.03 20.93 185.38 20.72 185.73 20.51 186.08 20.37 186.42 20.01 186.77 20.72 187.12 20.44 187.47 20.65 187.82 21.07 188.17 20.79 188.52 21.28 188.87 20.58 189.22 20.16 189.57 20.23 189.92 18.82 190.26 18.39 190.61 17.69 190.96 17.41 191.31 16.63 191.66 16.77 192.01 16 192.36 16.07 192.71 16.35 193.06 16 193.41 16.14 193.76 16 194.11 16.7 194.45 16.63 194.8 17.55 195.15 17.12 195.5 16.49 195.85 16.35 196.2 16.07"/>
      </g>
      <g stroke-width="0.3" fill="#000000" fill-opacity="0.000" class="geometry" stroke-dasharray="none" stroke="#FDAE61" id="img-7bd7ac81-36">
        <path fill="none" d="M21.98,33.76 L 22.33 33.06 22.68 33.97 23.03 34.54 23.38 35.53 23.73 35.88 24.08 35.81 24.42 37.22 24.77 37.57 25.12 37.5 25.47 36.09 25.82 35.46 26.17 35.74 26.52 37.15 26.87 38.21 27.22 39.9 27.57 39.26 27.92 40.39 28.27 40.53 28.61 40.74 28.96 39.97 29.31 39.69 29.66 40.74 30.01 41.66 30.36 41.87 30.71 42.37 31.06 43.35 31.41 42.29 31.76 41.66 32.11 40.39 32.45 40.39 32.8 41.38 33.15 42.51 33.5 42.08 33.85 41.31 34.2 42.79 34.55 42.93 34.9 43.07 35.25 43.99 35.6 43.92 35.95 44.41 36.3 44.97 36.64 43.85 36.99 43.63 37.34 43.63 37.69 43.99 38.04 43.56 38.39 43.7 38.74 44.2 39.09 43.56 39.44 42.86 39.79 44.55 40.14 42.65 40.49 42.93 40.83 42.29 41.18 42.65 41.53 44.55 41.88 45.68 42.23 46.1 42.58 46.24 42.93 46.81 43.28 47.65 43.63 47.72 43.98 47.93 44.33 47.16 44.67 46.38 45.02 47.58 45.37 47.51 45.72 47.72 46.07 48.08 46.42 47.58 46.77 48.71 47.12 49.98 47.47 50.12 47.82 50.47 48.17 50.12 48.52 49.98 48.86 49.91 49.21 50.05 49.56 50.26 49.91 50.4 50.26 50.33 50.61 49.77 50.96 48.99 51.31 49.13 51.66 50.4 52.01 49.98 52.36 50.68 52.7 50.47 53.05 50.68 53.4 50.76 53.75 51.04 54.1 51.74 54.45 50.47 54.8 51.88 55.15 52.17 55.5 52.31 55.85 52.17 56.2 51.81 56.55 51.46 56.89 51.32 57.24 51.53 57.59 51.04 57.94 50.9 58.29 50.97 58.64 50.83 58.99 50.33 59.34 50.4 59.69 50.61 60.04 50.76 60.39 50.47 60.73 50.19 61.08 49.77 61.43 49.77 61.78 49.7 62.13 50.54 62.48 50.68 62.83 50.83 63.18 50.97 63.53 51.25 63.88 50.61 64.23 49.56 64.58 49.13 64.92 49.13 65.27 49.06 65.62 48.78 65.97 48.43 66.32 48.99 66.67 49.35 67.02 49.27 67.37 49.63 67.72 48.71 68.07 48.64 68.42 49.06 68.77 50.05 69.11 49.42 69.46 49.35 69.81 49.06 70.16 49.06 70.51 48.5 70.86 47.72 71.21 47.23 71.56 45.54 71.91 45.75 72.26 45.26 72.61 44.97 72.95 45.33 73.3 44.69 73.65 44.27 74 43.92 74.35 44.48 74.7 43.07 75.05 42.37 75.4 40.39 75.75 40.74 76.1 41.24 76.45 40.32 76.8 39.83 77.14 40.04 77.49 40.11 77.84 41.31 78.19 41.17 78.54 40.46 78.89 40.6 79.24 40.11 79.59 40.04 79.94 39.97 80.29 39.05 80.64 39.97 80.98 38.77 81.33 38.21 81.68 36.16 82.03 34.68 82.38 35.6 82.73 35.31 83.08 35.88 83.43 36.09 83.78 35.17 84.13 33.9 84.48 33.55 84.83 33.76 85.17 34.05 85.52 34.33 85.87 36.09 86.22 34.75 86.57 32.78 86.92 33.13 87.27 33.13 87.62 34.05 87.97 32.56 88.32 33.83 88.67 34.19 89.02 35.24 89.36 35.6 89.71 34.96 90.06 33.9 90.41 32.71 90.76 32.42 91.11 32.78 91.46 32.99 91.81 32.56 92.16 32.49 92.51 33.48 92.86 32.71 93.2 32.71 93.55 33.2 93.9 33.97 94.25 34.75 94.6 35.38 94.95 35.81 95.3 35.31 95.65 35.38 96 35.03 96.35 35.17 96.7 35.81 97.05 35.31 97.39 33.9 97.74 34.47 98.09 33.27 98.44 34.26 98.79 34.68 99.14 34.26 99.49 34.96 99.84 35.95 100.19 35.1 100.54 34.12 100.89 33.06 101.23 32.14 101.58 32.85 101.93 32.92 102.28 33.9 102.63 34.54 102.98 35.24 103.33 36.02 103.68 35.53 104.03 35.38 104.38 35.6 104.73 35.6 105.08 36.02 105.42 36.65 105.77 36.37 106.12 35.74 106.47 35.31 106.82 35.1 107.17 33.83 107.52 34.19 107.87 35.1 108.22 34.54 108.57 34.33 108.92 36.09 109.26 35.17 109.61 34.19 109.96 33.69 110.31 33.76 110.66 34.33 111.01 33.97 111.36 34.05 111.71 34.33 112.06 33.62 112.41 32.64 112.76 31.93 113.11 31.23 113.45 32.28 113.8 33.34 114.15 33.27 114.5 33.55 114.85 33.97 115.2 34.47 115.55 33.62 115.9 33.9 116.25 32.49 116.6 31.44 116.95 30.66 117.3 31.58 117.64 31.01 117.99 31.65 118.34 30.24 118.69 30.1 119.04 31.23 119.39 30.59 119.74 31.51 120.09 32.56 120.44 32.28 120.79 31.86 121.14 33.55 121.48 34.26 121.83 32.07 122.18 32.71 122.53 32 122.88 31.58 123.23 32.99 123.58 32.28 123.93 33.06 124.28 31.23 124.63 31.65 124.98 32.21 125.33 32 125.67 32.07 126.02 31.86 126.37 31.86 126.72 30.73 127.07 28.83 127.42 28.48 127.77 27.28 128.12 28.26 128.47 28.97 128.82 26.43 129.17 26.64 129.51 26.78 129.86 26.78 130.21 26.64 130.56 27.84 130.91 27.84 131.26 28.26 131.61 28.62 131.96 29.39 132.31 29.67 132.66 29.96 133.01 29.32 133.36 28.83 133.7 27.7 134.05 28.9 134.4 29.46 134.75 31.15 135.1 31.15 135.45 31.79 135.8 30.52 136.15 31.01 136.5 30.59 136.85 30.73 137.2 31.08 137.55 30.94 137.89 32.28 138.24 33.62 138.59 32.14 138.94 32.92 139.29 33.41 139.64 33.97 139.99 33.55 140.34 32.21 140.69 32.35 141.04 31.86 141.39 31.23 141.73 31.44 142.08 29.96 142.43 29.25 142.78 30.38 143.13 28.97 143.48 28.69 143.83 27.63 144.18 26.71 144.53 27.35 144.88 26.5 145.23 25.37 145.58 24.88 145.92 26.5 146.27 26.99 146.62 27.28 146.97 25.94 147.32 25.66 147.67 25.87 148.02 25.51 148.37 26.29 148.72 26.43 149.07 25.58 149.42 25.09 149.76 25.66 150.11 25.44 150.46 25.44 150.81 26.29 151.16 26.99 151.51 26.85 151.86 26.64 152.21 27.49 152.56 27.56 152.91 28.33 153.26 28.4 153.61 27.7 153.95 29.25 154.3 28.55 154.65 27.77 155 28.05 155.35 27.84 155.7 28.26 156.05 27.42 156.4 27.63 156.75 27.28 157.1 27.7 157.45 28.26 157.79 28.69 158.14 28.19 158.49 27.28 158.84 27.28 159.19 28.05 159.54 28.69 159.89 29.46 160.24 30.24 160.59 29.67 160.94 28.33 161.29 28.55 161.64 28.97 161.98 31.08 162.33 29.82 162.68 28.97 163.03 28.62 163.38 29.11 163.73 29.18 164.08 29.89 164.43 29.11 164.78 28.55 165.13 28.26 165.48 28.19 165.83 27.35 166.17 27.28 166.52 26.92 166.87 25.87 167.22 26.43 167.57 26.5 167.92 24.95 168.27 24.1 168.62 24.25 168.97 25.8 169.32 24.32 169.67 24.1 170.01 24.74 170.36 25.58 170.71 25.3 171.06 26.22 171.41 27.14 171.76 26.85 172.11 26.85 172.46 26.22 172.81 25.44 173.16 24.6 173.51 23.47 173.86 23.26 174.2 23.33 174.55 23.75 174.9 24.67 175.25 24.88 175.6 25.09 175.95 25.94 176.3 25.94 176.65 26.29 177 26.64 177.35 26.99 177.7 25.94 178.04 26.78 178.39 27.07 178.74 28.62 179.09 28.69 179.44 29.18 179.79 28.62 180.14 28.19 180.49 29.46 180.84 28.55 181.19 28.4 181.54 27.56 181.89 26.43 182.23 25.8 182.58 26.36 182.93 26.43 183.28 25.87 183.63 25.37 183.98 25.87 184.33 25.44 184.68 25.94 185.03 26.43 185.38 25.44 185.73 26.15 186.08 26.5 186.42 27.77 186.77 28.26 187.12 28.19 187.47 27.21 187.82 27.42 188.17 27.35 188.52 27.28 188.87 27.14 189.22 26.99 189.57 25.51 189.92 25.51 190.26 26.36 190.61 25.66 190.96 26.71 191.31 25.94 191.66 26.99 192.01 27.28 192.36 26.5 192.71 26.71 193.06 25.66 193.41 24.32 193.76 23.96 194.11 23.54 194.45 23.68 194.8 23.54 195.15 24.17 195.5 25.37 195.85 25.23 196.2 25.16"/>
      </g>
      <g stroke-width="0.3" fill="#000000" fill-opacity="0.000" class="geometry" stroke-dasharray="none" stroke="#F46D43" id="img-7bd7ac81-37">
        <path fill="none" d="M21.98,33.76 L 22.33 32.71 22.68 31.44 23.03 31.79 23.38 31.58 23.73 32.14 24.08 31.08 24.42 31.3 24.77 31.15 25.12 31.72 25.47 31.23 25.82 30.03 26.17 31.01 26.52 30.1 26.87 30.38 27.22 30.87 27.57 31.51 27.92 32.21 28.27 32.35 28.61 30.45 28.96 30.52 29.31 31.3 29.66 31.08 30.01 31.44 30.36 30.52 30.71 30.59 31.06 30.17 31.41 30.24 31.76 30.94 32.11 31.15 32.45 32.78 32.8 34.61 33.15 35.81 33.5 35.74 33.85 35.81 34.2 36.16 34.55 33.69 34.9 32.99 35.25 34.33 35.6 34.47 35.95 33.2 36.3 31.65 36.64 32.21 36.99 32.99 37.34 33.97 37.69 33.06 38.04 31.58 38.39 32.14 38.74 31.23 39.09 30.87 39.44 31.86 39.79 32.07 40.14 32.28 40.49 31.15 40.83 30.59 41.18 30.66 41.53 30.52 41.88 31.08 42.23 31.65 42.58 30.59 42.93 30.66 43.28 29.6 43.63 28.33 43.98 29.74 44.33 29.18 44.67 30.45 45.02 31.93 45.37 32.07 45.72 32.85 46.07 32.49 46.42 33.13 46.77 33.69 47.12 33.62 47.47 34.12 47.82 34.89 48.17 34.47 48.52 33.48 48.86 34.05 49.21 33.41 49.56 32.64 49.91 33.34 50.26 32.92 50.61 32.71 50.96 31.72 51.31 32.14 51.66 30.66 52.01 30.87 52.36 30.1 52.7 30.03 53.05 29.67 53.4 28.55 53.75 28.33 54.1 28.26 54.45 27.7 54.8 27.63 55.15 27.63 55.5 27.84 55.85 27.28 56.2 26.57 56.55 25.58 56.89 26.08 57.24 25.3 57.59 24.53 57.94 25.58 58.29 26.22 58.64 26.08 58.99 26.57 59.34 26.29 59.69 25.16 60.04 25.51 60.39 25.58 60.73 27.14 61.08 26.43 61.43 25.94 61.78 25.87 62.13 26.01 62.48 27.7 62.83 26.92 63.18 26.78 63.53 26.15 63.88 26.43 64.23 27.14 64.58 27.35 64.92 26.92 65.27 25.44 65.62 24.6 65.97 25.09 66.32 25.73 66.67 26.15 67.02 27.63 67.37 28.05 67.72 28.12 68.07 27.28 68.42 24.53 68.77 24.25 69.11 23.89 69.46 25.87 69.81 26.22 70.16 26.71 70.51 26.71 70.86 26.85 71.21 27.21 71.56 27.42 71.91 26.43 72.26 26.5 72.61 26.29 72.95 25.02 73.3 24.03 73.65 23.68 74 24.32 74.35 25.3 74.7 24.88 75.05 24.95 75.4 25.8 75.75 26.15 76.1 26.57 76.45 26.85 76.8 27.35 77.14 27.14 77.49 25.94 77.84 24.6 78.19 23.96 78.54 25.16 78.89 24.6 79.24 25.44 79.59 25.51 79.94 24.03 80.29 23.47 80.64 23.75 80.98 24.32 81.33 25.23 81.68 25.09 82.03 25.66 82.38 26.43 82.73 27.35 83.08 28.33 83.43 28.05 83.78 29.67 84.13 29.25 84.48 29.11 84.83 29.11 85.17 28.76 85.52 28.76 85.87 29.6 86.22 29.6 86.57 29.82 86.92 29.74 87.27 30.1 87.62 31.01 87.97 30.87 88.32 30.45 88.67 28.48 89.02 29.82 89.36 28.69 89.71 26.36 90.06 26.08 90.41 27.14 90.76 26.78 91.11 27.42 91.46 27.07 91.81 25.66 92.16 24.67 92.51 25.02 92.86 24.17 93.2 23.33 93.55 23.05 93.9 23.68 94.25 23.19 94.6 22.48 94.95 22.76 95.3 22.41 95.65 22.98 96 21.78 96.35 22.55 96.7 24.03 97.05 23.89 97.39 24.03 97.74 23.54 98.09 24.6 98.44 25.16 98.79 24.81 99.14 24.39 99.49 24.17 99.84 24.32 100.19 23.82 100.54 24.17 100.89 23.47 101.23 23.54 101.58 22.41 101.93 22.98 102.28 21.64 102.63 21.5 102.98 20.65 103.33 20.09 103.68 20.79 104.03 20.3 104.38 19.73 104.73 20.3 105.08 20.16 105.42 19.94 105.77 19.94 106.12 21.28 106.47 22.76 106.82 22.69 107.17 22.98 107.52 23.33 107.87 24.46 108.22 23.96 108.57 22.83 108.92 21.99 109.26 22.55 109.61 23.33 109.96 23.68 110.31 24.32 110.66 24.88 111.01 24.39 111.36 25.02 111.71 23.89 112.06 24.03 112.41 22.91 112.76 22.69 113.11 22.69 113.45 23.12 113.8 22.06 114.15 22.27 114.5 21.71 114.85 21.99 115.2 21.85 115.55 22.06 115.9 21.07 116.25 21.78 116.6 20.86 116.95 21.14 117.3 19.31 117.64 19.38 117.99 19.8 118.34 19.1 118.69 19.03 119.04 19.52 119.39 19.31 119.74 20.01 120.09 20.37 120.44 21.28 120.79 21.57 121.14 21.5 121.48 20.51 121.83 21.14 122.18 21.42 122.53 22.83 122.88 23.26 123.23 24.17 123.58 23.26 123.93 23.4 124.28 24.32 124.63 24.03 124.98 24.03 125.33 23.75 125.67 23.68 126.02 24.32 126.37 23.89 126.72 23.54 127.07 24.1 127.42 23.05 127.77 23.47 128.12 23.47 128.47 23.19 128.82 23.47 129.17 22.55 129.51 22.06 129.86 20.23 130.21 19.8 130.56 20.44 130.91 22.76 131.26 22.55 131.61 21.64 131.96 20.79 132.31 20.09 132.66 20.16 133.01 19.1 133.36 19.8 133.7 19.66 134.05 19.03 134.4 18.89 134.75 18.39 135.1 17.9 135.45 18.04 135.8 18.6 136.15 18.25 136.5 17.9 136.85 18.25 137.2 17.55 137.55 17.97 137.89 17.83 138.24 18.04 138.59 17.62 138.94 18.32 139.29 17.97 139.64 17.27 139.99 16.84 140.34 16.35 140.69 17.48 141.04 17.9 141.39 18.46 141.73 19.17 142.08 18.96 142.43 19.03 142.78 18.96 143.13 18.68 143.48 19.03 143.83 18.75 144.18 18.53 144.53 18.96 144.88 17.97 145.23 17.83 145.58 17.76 145.92 18.32 146.27 18.96 146.62 20.16 146.97 20.86 147.32 20.51 147.67 20.01 148.02 19.87 148.37 19.24 148.72 20.16 149.07 20.93 149.42 20.44 149.76 21.85 150.11 22.2 150.46 22.91 150.81 22.48 151.16 21.78 151.51 21.85 151.86 22.55 152.21 23.61 152.56 22.83 152.91 23.19 153.26 23.12 153.61 23.05 153.95 21.78 154.3 22.48 154.65 23.89 155 24.03 155.35 24.74 155.7 25.3 156.05 26.71 156.4 27.49 156.75 27.14 157.1 27.28 157.45 28.4 157.79 28.9 158.14 28.12 158.49 27.91 158.84 26.29 159.19 27.35 159.54 27.35 159.89 27.28 160.24 28.05 160.59 28.05 160.94 27.56 161.29 28.12 161.64 28.12 161.98 26.71 162.33 27.7 162.68 26.78 163.03 27.28 163.38 27.42 163.73 26.22 164.08 25.58 164.43 23.75 164.78 24.53 165.13 24.46 165.48 24.03 165.83 24.67 166.17 24.25 166.52 24.17 166.87 23.61 167.22 24.17 167.57 23.05 167.92 23.47 168.27 25.37 168.62 25.58 168.97 27.84 169.32 29.18 169.67 30.03 170.01 28.55 170.36 27.07 170.71 26.92 171.06 25.66 171.41 24.6 171.76 24.95 172.11 25.94 172.46 26.5 172.81 26.78 173.16 26.99 173.51 26.01 173.86 26.43 174.2 27.07 174.55 26.64 174.9 26.71 175.25 27.77 175.6 28.12 175.95 28.33 176.3 28.83 176.65 27.28 177 28.48 177.35 29.32 177.7 29.46 178.04 29.53 178.39 30.24 178.74 29.67 179.09 30.03 179.44 30.38 179.79 30.73 180.14 30.87 180.49 31.08 180.84 31.58 181.19 31.58 181.54 31.23 181.89 30.94 182.23 29.96 182.58 30.38 182.93 30.45 183.28 30.24 183.63 30.52 183.98 30.73 184.33 30.66 184.68 29.67 185.03 30.03 185.38 31.44 185.73 32.14 186.08 32.56 186.42 32.42 186.77 30.31 187.12 30.1 187.47 29.67 187.82 30.31 188.17 31.08 188.52 28.83 188.87 26.36 189.22 26.22 189.57 27.42 189.92 27.49 190.26 28.12 190.61 28.19 190.96 29.18 191.31 28.76 191.66 29.11 192.01 29.82 192.36 29.18 192.71 28.33 193.06 27.7 193.41 27.42 193.76 27.91 194.11 27.84 194.45 28.33 194.8 28.19 195.15 28.83 195.5 28.12 195.85 27.98 196.2 29.11"/>
      </g>
      <g stroke-width="0.3" fill="#000000" fill-opacity="0.000" class="geometry" stroke-dasharray="none" stroke="#D53E4F" id="img-7bd7ac81-38">
        <path fill="none" d="M21.98,33.76 L 22.33 34.61 22.68 32.92 23.03 32.64 23.38 33.55 23.73 34.75 24.08 35.31 24.42 36.58 24.77 37.01 25.12 36.8 25.47 36.16 25.82 36.8 26.17 36.37 26.52 36.8 26.87 36.87 27.22 37.71 27.57 37.71 27.92 37.36 28.27 38.21 28.61 36.72 28.96 37.29 29.31 35.74 29.66 36.65 30.01 36.58 30.36 37.57 30.71 35.74 31.06 35.24 31.41 34.82 31.76 35.38 32.11 34.47 32.45 34.12 32.8 34.96 33.15 35.03 33.5 34.33 33.85 35.17 34.2 34.26 34.55 34.26 34.9 34.12 35.25 33.06 35.6 31.72 35.95 33.41 36.3 32.14 36.64 31.93 36.99 31.72 37.34 32.14 37.69 31.15 38.04 31.72 38.39 30.94 38.74 31.65 39.09 32.56 39.44 31.08 39.79 31.01 40.14 32.28 40.49 32.14 40.83 32.71 41.18 32.71 41.53 32.35 41.88 32.56 42.23 33.69 42.58 31.44 42.93 29.6 43.28 28.4 43.63 27.42 43.98 28.19 44.33 27.98 44.67 27.28 45.02 27.35 45.37 27.91 45.72 27.77 46.07 28.76 46.42 27.21 46.77 26.85 47.12 27.63 47.47 25.94 47.82 25.58 48.17 25.3 48.52 26.01 48.86 27.21 49.21 26.99 49.56 28.62 49.91 26.71 50.26 26.99 50.61 26.08 50.96 26.5 51.31 26.71 51.66 27.28 52.01 26.36 52.36 24.32 52.7 24.1 53.05 24.74 53.4 24.25 53.75 23.82 54.1 23.68 54.45 24.67 54.8 24.53 55.15 26.29 55.5 25.8 55.85 24.25 56.2 25.16 56.55 25.87 56.89 25.87 57.24 25.73 57.59 26.57 57.94 26.22 58.29 25.94 58.64 27.42 58.99 27.84 59.34 28.76 59.69 29.11 60.04 28.33 60.39 29.39 60.73 29.53 61.08 28.9 61.43 29.46 61.78 30.1 62.13 29.67 62.48 28.62 62.83 30.03 63.18 30.8 63.53 31.15 63.88 31.15 64.23 32.28 64.58 34.19 64.92 35.03 65.27 35.03 65.62 34.75 65.97 36.58 66.32 36.87 66.67 37.57 67.02 38.84 67.37 38.91 67.72 38.77 68.07 39.4 68.42 40.04 68.77 39.26 69.11 39.47 69.46 40.32 69.81 40.53 70.16 41.45 70.51 42.01 70.86 42.01 71.21 41.17 71.56 42.65 71.91 42.01 72.26 41.8 72.61 40.67 72.95 40.6 73.3 41.38 73.65 41.66 74 41.87 74.35 41.8 74.7 41.45 75.05 41.8 75.4 40.53 75.75 39.76 76.1 40.6 76.45 41.59 76.8 40.81 77.14 40.74 77.49 40.18 77.84 42.08 78.19 41.1 78.54 41.31 78.89 42.29 79.24 42.51 79.59 41.66 79.94 41.38 80.29 43.14 80.64 42.65 80.98 42.08 81.33 41.31 81.68 40.39 82.03 40.18 82.38 41.17 82.73 41.59 83.08 42.08 83.43 41.38 83.78 42.79 84.13 42.93 84.48 42.22 84.83 43.85 85.17 43.49 85.52 44.83 85.87 45.68 86.22 46.1 86.57 45.33 86.92 46.03 87.27 45.26 87.62 46.1 87.97 46.74 88.32 46.24 88.67 45.82 89.02 45.61 89.36 45.26 89.71 44.97 90.06 44.2 90.41 43.99 90.76 44.06 91.11 44.62 91.46 45.4 91.81 45.11 92.16 44.06 92.51 43.28 92.86 42.79 93.2 44.06 93.55 43.21 93.9 42.22 94.25 42.51 94.6 42.08 94.95 41.73 95.3 42.86 95.65 43.85 96 44.97 96.35 45.4 96.7 45.33 97.05 44.76 97.39 44.13 97.74 44.34 98.09 44.2 98.44 43.35 98.79 44.06 99.14 43.21 99.49 42.86 99.84 42.72 100.19 43.7 100.54 43 100.89 42.15 101.23 40.95 101.58 41.17 101.93 41.24 102.28 40.6 102.63 40.46 102.98 39.69 103.33 39.47 103.68 37.64 104.03 37.64 104.38 39.05 104.73 39.12 105.08 41.45 105.42 42.08 105.77 41.94 106.12 42.37 106.47 40.67 106.82 40.39 107.17 40.95 107.52 39.9 107.87 39.54 108.22 39.76 108.57 39.76 108.92 40.04 109.26 40.25 109.61 39.33 109.96 39.33 110.31 40.04 110.66 41.03 111.01 41.59 111.36 42.01 111.71 42.51 112.06 42.58 112.41 43.28 112.76 44.69 113.11 45.33 113.45 44.34 113.8 43.63 114.15 43.7 114.5 43 114.85 42.51 115.2 43.14 115.55 43.07 115.9 42.79 116.25 43.49 116.6 43.92 116.95 43.21 117.3 42.37 117.64 43.78 117.99 44.62 118.34 44.62 118.69 45.75 119.04 45.68 119.39 47.02 119.74 46.03 120.09 45.96 120.44 46.03 120.79 46.52 121.14 45.89 121.48 45.26 121.83 44.48 122.18 44.41 122.53 42.29 122.88 41.24 123.23 39.4 123.58 39.12 123.93 38.42 124.28 39.97 124.63 40.39 124.98 39.4 125.33 39.9 125.67 40.32 126.02 39.4 126.37 40.18 126.72 38.84 127.07 38.84 127.42 37.78 127.77 38.06 128.12 38.98 128.47 40.67 128.82 39.54 129.17 41.03 129.51 40.46 129.86 40.95 130.21 41.52 130.56 41.8 130.91 41.8 131.26 40.81 131.61 40.6 131.96 39.54 132.31 39.97 132.66 39.26 133.01 37.71 133.36 38.77 133.7 38.7 134.05 38.49 134.4 38.84 134.75 40.53 135.1 39.9 135.45 40.04 135.8 39.26 136.15 39.19 136.5 39.26 136.85 40.04 137.2 40.95 137.55 39.33 137.89 38.56 138.24 38.63 138.59 38.56 138.94 39.47 139.29 40.25 139.64 40.95 139.99 40.53 140.34 40.67 140.69 42.01 141.04 41.73 141.39 42.15 141.73 41.1 142.08 40.39 142.43 41.31 142.78 40.67 143.13 41.52 143.48 40.81 143.83 39.47 144.18 40.25 144.53 39.47 144.88 39.26 145.23 38.7 145.58 37.78 145.92 39.05 146.27 39.83 146.62 40.32 146.97 38.28 147.32 37.57 147.67 38.35 148.02 39.12 148.37 39.12 148.72 38.77 149.07 37.85 149.42 37.29 149.76 37.29 150.11 36.3 150.46 35.81 150.81 35.24 151.16 35.6 151.51 35.81 151.86 36.58 152.21 37.57 152.56 38.28 152.91 38.28 153.26 37.64 153.61 37.5 153.95 37.57 154.3 37.43 154.65 37.5 155 38.06 155.35 38.42 155.7 37.43 156.05 36.37 156.4 37.15 156.75 37.64 157.1 36.8 157.45 36.72 157.79 36.09 158.14 37.36 158.49 38.98 158.84 40.25 159.19 40.53 159.54 40.32 159.89 40.25 160.24 40.04 160.59 39.19 160.94 40.32 161.29 39.12 161.64 40.11 161.98 40.18 162.33 39.19 162.68 37.64 163.03 37.85 163.38 37.5 163.73 38.98 164.08 37.57 164.43 37.85 164.78 38.84 165.13 38.35 165.48 38.42 165.83 38.21 166.17 38.77 166.52 37.08 166.87 37.57 167.22 38.56 167.57 39.4 167.92 40.25 168.27 40.46 168.62 39.69 168.97 41.1 169.32 40.95 169.67 41.8 170.01 43.28 170.36 43.21 170.71 43.7 171.06 42.86 171.41 43.07 171.76 42.58 172.11 42.51 172.46 41.52 172.81 41.31 173.16 42.22 173.51 42.15 173.86 42.58 174.2 42.29 174.55 41.45 174.9 41.17 175.25 40.95 175.6 40.6 175.95 40.67 176.3 40.18 176.65 39.9 177 40.88 177.35 39.69 177.7 39.19 178.04 39.47 178.39 39.12 178.74 38.56 179.09 39.19 179.44 38.06 179.79 38.21 180.14 39.19 180.49 40.32 180.84 40.04 181.19 39.12 181.54 38.49 181.89 37.57 182.23 38.77 182.58 38.7 182.93 38.91 183.28 39.47 183.63 39.05 183.98 40.39 184.33 41.66 184.68 42.93 185.03 42.79 185.38 42.08 185.73 41.94 186.08 42.08 186.42 40.88 186.77 41.03 187.12 40.95 187.47 41.8 187.82 43.21 188.17 41.66 188.52 40.95 188.87 41.1 189.22 42.51 189.57 44.41 189.92 43.92 190.26 43.99 190.61 44.48 190.96 45.19 191.31 45.4 191.66 45.47 192.01 44.62 192.36 44.13 192.71 44.83 193.06 44.97 193.41 45.19 193.76 45.19 194.11 45.61 194.45 44.97 194.8 44.34 195.15 44.27 195.5 43.63 195.85 43.85 196.2 44.62"/>
      </g>
      <g stroke-width="0.3" fill="#000000" fill-opacity="0.000" class="geometry" stroke-dasharray="none" stroke="#9E0142" id="img-7bd7ac81-39">
        <path fill="none" d="M21.98,33.76 L 22.33 34.89 22.68 33.83 23.03 32.21 23.38 32.49 23.73 33.41 24.08 32.35 24.42 31.79 24.77 31.15 25.12 31.93 25.47 32 25.82 32.14 26.17 31.08 26.52 31.08 26.87 30.94 27.22 31.58 27.57 30.8 27.92 30.59 28.27 30.59 28.61 30.73 28.96 32.71 29.31 30.94 29.66 30.59 30.01 31.58 30.36 31.23 30.71 30.31 31.06 29.46 31.41 28.83 31.76 28.55 32.11 29.04 32.45 29.25 32.8 28.05 33.15 26.43 33.5 27.49 33.85 25.66 34.2 27.84 34.55 28.55 34.9 28.62 35.25 29.96 35.6 30.03 35.95 30.38 36.3 29.53 36.64 30.1 36.99 31.51 37.34 31.79 37.69 32.92 38.04 32.85 38.39 33.27 38.74 31.86 39.09 32.92 39.44 32.42 39.79 32.64 40.14 33.34 40.49 33.13 40.83 30.24 41.18 31.37 41.53 30.59 41.88 29.82 42.23 30.31 42.58 31.3 42.93 31.37 43.28 30.1 43.63 29.53 43.98 29.39 44.33 29.39 44.67 29.11 45.02 30.1 45.37 29.18 45.72 28.55 46.07 29.89 46.42 29.53 46.77 30.38 47.12 30.52 47.47 30.59 47.82 29.67 48.17 29.67 48.52 27.49 48.86 27.77 49.21 26.85 49.56 27.42 49.91 27.07 50.26 28.19 50.61 27.98 50.96 27.98 51.31 27.63 51.66 25.94 52.01 26.22 52.36 26.15 52.7 25.94 53.05 27.14 53.4 26.99 53.75 27.77 54.1 27.35 54.45 27.42 54.8 27.21 55.15 28.4 55.5 28.12 55.85 27.28 56.2 27.77 56.55 27.49 56.89 26.85 57.24 27.28 57.59 27.7 57.94 27.49 58.29 27.28 58.64 27.84 58.99 27.28 59.34 26.5 59.69 27.77 60.04 27.49 60.39 29.04 60.73 27.63 61.08 28.12 61.43 26.99 61.78 26.92 62.13 28.26 62.48 27.77 62.83 27.63 63.18 27.14 63.53 26.71 63.88 25.66 64.23 25.87 64.58 26.08 64.92 25.94 65.27 25.16 65.62 24.95 65.97 23.75 66.32 23.54 66.67 23.82 67.02 23.05 67.37 23.47 67.72 24.32 68.07 24.95 68.42 25.23 68.77 23.19 69.11 23.4 69.46 23.82 69.81 25.23 70.16 25.09 70.51 25.58 70.86 24.6 71.21 24.6 71.56 25.37 71.91 25.09 72.26 24.81 72.61 25.16 72.95 24.95 73.3 25.51 73.65 24.17 74 23.75 74.35 23.68 74.7 23.54 75.05 24.17 75.4 23.19 75.75 23.54 76.1 23.54 76.45 23.89 76.8 23.82 77.14 22.91 77.49 22.76 77.84 21.92 78.19 22.13 78.54 21.78 78.89 22.41 79.24 21.71 79.59 21.78 79.94 21.28 80.29 21.28 80.64 21.5 80.98 21.5 81.33 22.2 81.68 22.91 82.03 21.85 82.38 22.06 82.73 21.28 83.08 21.14 83.43 21.21 83.78 20.79 84.13 19.94 84.48 20.58 84.83 21.21 85.17 21.57 85.52 21.14 85.87 21.35 86.22 20.01 86.57 20.01 86.92 19.94 87.27 21.78 87.62 21.99 87.97 22.06 88.32 21.71 88.67 22.2 89.02 22.98 89.36 24.6 89.71 24.25 90.06 23.47 90.41 23.26 90.76 22.2 91.11 22.06 91.46 22.13 91.81 22.48 92.16 22.55 92.51 23.61 92.86 22.62 93.2 21.85 93.55 21.78 93.9 21.21 94.25 20.3 94.6 19.66 94.95 18.32 95.3 18.46 95.65 18.68 96 19.1 96.35 19.38 96.7 19.38 97.05 18.32 97.39 19.1 97.74 19.8 98.09 20.3 98.44 19.24 98.79 19.03 99.14 18.89 99.49 18.18 99.84 17.76 100.19 17.62 100.54 17.76 100.89 17.34 101.23 16.77 101.58 16.63 101.93 17.12 102.28 16.56 102.63 17.19 102.98 17.62 103.33 17.41 103.68 17.69 104.03 16.42 104.38 16.28 104.73 16.07 105.08 16.49 105.42 17.12 105.77 17.97 106.12 17.76 106.47 17.97 106.82 17.76 107.17 18.89 107.52 18.39 107.87 18.68 108.22 20.23 108.57 19.8 108.92 20.58 109.26 20.58 109.61 20.93 109.96 19.45 110.31 19.59 110.66 19.73 111.01 20.44 111.36 20.16 111.71 20.09 112.06 20.86 112.41 20.58 112.76 20.3 113.11 20.72 113.45 20.65 113.8 20.72 114.15 21.07 114.5 20.72 114.85 21.28 115.2 22.83 115.55 22.76 115.9 23.89 116.25 23.19 116.6 24.17 116.95 23.61 117.3 25.44 117.64 26.01 117.99 26.92 118.34 27.56 118.69 26.57 119.04 26.57 119.39 27.07 119.74 28.12 120.09 30.87 120.44 31.01 120.79 30.38 121.14 30.8 121.48 30.8 121.83 31.3 122.18 32.28 122.53 31.79 122.88 31.79 123.23 31.86 123.58 31.08 123.93 32.49 124.28 32.64 124.63 33.62 124.98 34.68 125.33 34.19 125.67 32.85 126.02 32.78 126.37 33.41 126.72 32.14 127.07 32.92 127.42 31.44 127.77 31.44 128.12 30.59 128.47 32.56 128.82 32.99 129.17 33.76 129.51 34.4 129.86 33.55 130.21 34.68 130.56 34.61 130.91 34.68 131.26 35.6 131.61 37.15 131.96 38.35 132.31 38.91 132.66 38.63 133.01 38.13 133.36 38.63 133.7 37.78 134.05 38.49 134.4 38.28 134.75 37.15 135.1 37.08 135.45 36.37 135.8 36.65 136.15 37.57 136.5 37.01 136.85 37.5 137.2 38.63 137.55 37.85 137.89 36.65 138.24 36.65 138.59 35.53 138.94 37.15 139.29 36.51 139.64 37.5 139.99 36.23 140.34 37.36 140.69 36.65 141.04 37.78 141.39 37.85 141.73 36.44 142.08 36.44 142.43 37.71 142.78 37.15 143.13 36.65 143.48 36.58 143.83 35.81 144.18 34.61 144.53 33.76 144.88 34.05 145.23 34.75 145.58 34.4 145.92 33.62 146.27 31.86 146.62 30.94 146.97 30.94 147.32 30.59 147.67 31.86 148.02 31.93 148.37 32.07 148.72 32.35 149.07 32.21 149.42 29.96 149.76 31.01 150.11 31.93 150.46 31.23 150.81 30.66 151.16 30.87 151.51 29.89 151.86 31.08 152.21 31.79 152.56 31.72 152.91 31.3 153.26 30.24 153.61 30.45 153.95 29.18 154.3 28.48 154.65 28.19 155 29.53 155.35 27.63 155.7 28.05 156.05 28.19 156.4 28.26 156.75 27.49 157.1 27.35 157.45 27.98 157.79 27.63 158.14 27.84 158.49 27.84 158.84 28.4 159.19 27.63 159.54 28.12 159.89 27.35 160.24 27.14 160.59 27.77 160.94 27.56 161.29 27.7 161.64 27.84 161.98 27.07 162.33 25.73 162.68 24.74 163.03 25.8 163.38 25.09 163.73 23.89 164.08 23.4 164.43 23.54 164.78 25.02 165.13 25.51 165.48 26.01 165.83 26.36 166.17 25.3 166.52 25.16 166.87 25.16 167.22 25.09 167.57 25.94 167.92 26.01 168.27 27.21 168.62 27.14 168.97 27.77 169.32 27.21 169.67 27.77 170.01 27.21 170.36 25.16 170.71 25.37 171.06 24.39 171.41 25.58 171.76 25.94 172.11 25.23 172.46 25.44 172.81 26.5 173.16 26.36 173.51 25.44 173.86 25.09 174.2 25.66 174.55 25.87 174.9 25.02 175.25 25.37 175.6 24.81 175.95 26.01 176.3 25.66 176.65 25.3 177 24.53 177.35 23.47 177.7 22.76 178.04 21.28 178.39 21.57 178.74 22.06 179.09 23.05 179.44 23.4 179.79 24.6 180.14 24.67 180.49 24.81 180.84 24.6 181.19 24.53 181.54 24.03 181.89 24.74 182.23 26.01 182.58 26.01 182.93 25.73 183.28 26.36 183.63 26.08 183.98 27.35 184.33 26.36 184.68 28.55 185.03 27.84 185.38 26.57 185.73 27.56 186.08 27.77 186.42 28.76 186.77 28.69 187.12 28.33 187.47 28.05 187.82 28.33 188.17 28.97 188.52 29.89 188.87 29.39 189.22 28.97 189.57 28.05 189.92 28.55 190.26 28.33 190.61 28.55 190.96 28.26 191.31 29.39 191.66 30.38 192.01 29.82 192.36 30.1 192.71 29.74 193.06 29.39 193.41 29.6 193.76 29.46 194.11 28.76 194.45 27.77 194.8 27.98 195.15 28.12 195.5 29.18 195.85 28.55 196.2 27.77"/>
      </g>
    </g>
  </g>
</g>
  <g class="guide ylabels" font-size="2.82" font-family="'PT Sans Caption','Helvetica Neue','Helvetica',sans-serif" fill="#000000" id="img-7bd7ac81-40">
    <text x="18.63" y="54.91" text-anchor="end" dy="0.35em">0</text>
    <text x="18.63" y="47.86" text-anchor="end" dy="0.35em">100</text>
    <text x="18.63" y="40.81" text-anchor="end" dy="0.35em">200</text>
    <text x="18.63" y="33.76" text-anchor="end" dy="0.35em">300</text>
    <text x="18.63" y="26.71" text-anchor="end" dy="0.35em">400</text>
    <text x="18.63" y="19.66" text-anchor="end" dy="0.35em">500</text>
    <text x="18.63" y="12.61" text-anchor="end" dy="0.35em">600</text>
  </g>
  <g font-size="3.88" font-family="'PT Sans','Helvetica Neue','Helvetica',sans-serif" fill="#000000" stroke="#000000" stroke-opacity="0.000" id="img-7bd7ac81-41">
    <text x="8.81" y="31.76" text-anchor="middle" dy="0.35em" transform="rotate(-90, 8.81, 33.76)">population size</text>
  </g>
  <g font-size="3.88" font-family="'PT Sans','Helvetica Neue','Helvetica',sans-serif" fill="#000000" stroke="#000000" stroke-opacity="0.000" id="img-7bd7ac81-42">
    <text x="108.92" y="5" text-anchor="middle" dy="0.6em">genetic drift with mutationrate  = 0.0001 </text>
  </g>
</g>
<defs>
  <clipPath id="img-7bd7ac81-24">
  <path d="M19.63,10.61 L 198.2 10.61 198.2 56.91 19.63 56.91" />
</clipPath>
  <clipPath id="img-7bd7ac81-8">
  <path d="M18.63,86.81 L 174.03 86.81 174.03 133.11 18.63 133.11" />
</clipPath>
</defs>
</svg>
