<?xml version="1.0" encoding="UTF-8"?>
<svg xmlns="http://www.w3.org/2000/svg"
     xmlns:xlink="http://www.w3.org/1999/xlink"
     xmlns:gadfly="http://www.gadflyjl.org/ns"
     version="1.2"
     width="203.2mm" height="152.4mm" viewBox="0 0 203.2 152.4"
     stroke="none"
     fill="#000000"
     stroke-width="0.3"
     font-size="3.88"
>
<g class="plotroot xscalable yscalable" id="img-44374055-1">
  <g font-size="3.88" font-family="'PT Sans','Helvetica Neue','Helvetica',sans-serif" fill="#000000" stroke="#000000" stroke-opacity="0.000" id="img-44374055-2">
    <text x="108.92" y="140.79" text-anchor="middle" dy="0.6em">generation number</text>
  </g>
  <g class="guide xlabels" font-size="2.82" font-family="'PT Sans Caption','Helvetica Neue','Helvetica',sans-serif" fill="#000000" id="img-44374055-3">
    <text x="21.63" y="134.11" text-anchor="middle" dy="0.6em">0</text>
    <text x="56.55" y="134.11" text-anchor="middle" dy="0.6em">100</text>
    <text x="91.46" y="134.11" text-anchor="middle" dy="0.6em">200</text>
    <text x="126.37" y="134.11" text-anchor="middle" dy="0.6em">300</text>
    <text x="161.29" y="134.11" text-anchor="middle" dy="0.6em">400</text>
    <text x="196.2" y="134.11" text-anchor="middle" dy="0.6em">500</text>
  </g>
<g clip-path="url(#img-44374055-4)">
  <g id="img-44374055-5">
    <g pointer-events="visible" opacity="1" fill="#FFFFFF" stroke="#000000" stroke-opacity="0.000" class="guide background" id="img-44374055-6">
      <rect x="19.63" y="10.61" width="178.57" height="122.5"/>
    </g>
    <g class="guide ygridlines xfixed" stroke-dasharray="0.5,0.5" stroke-width="0.2" stroke="#808080" id="img-44374055-7">
      <path fill="none" d="M19.63,131.11 L 198.2 131.11"/>
      <path fill="none" d="M19.63,101.49 L 198.2 101.49"/>
      <path fill="none" d="M19.63,71.86 L 198.2 71.86"/>
      <path fill="none" d="M19.63,42.24 L 198.2 42.24"/>
      <path fill="none" d="M19.63,12.61 L 198.2 12.61"/>
    </g>
    <g class="guide xgridlines yfixed" stroke-dasharray="0.5,0.5" stroke-width="0.2" stroke="#808080" id="img-44374055-8">
      <path fill="none" d="M21.63,10.61 L 21.63 133.11"/>
      <path fill="none" d="M56.55,10.61 L 56.55 133.11"/>
      <path fill="none" d="M91.46,10.61 L 91.46 133.11"/>
      <path fill="none" d="M126.37,10.61 L 126.37 133.11"/>
      <path fill="none" d="M161.29,10.61 L 161.29 133.11"/>
      <path fill="none" d="M196.2,10.61 L 196.2 133.11"/>
    </g>
    <g class="plotpanel" id="img-44374055-9">
      <g stroke-width="0.3" fill="#000000" fill-opacity="0.000" class="geometry" stroke-dasharray="none" stroke="#3288BD" id="img-44374055-10">
        <path fill="none" d="M21.98,79.27 L 22.33 77.34 22.68 75.42 23.03 74.53 23.38 73.2 23.73 72.9 24.08 72.01 24.42 70.38 24.77 70.38 25.12 72.16 25.47 71.12 25.82 73.94 26.17 73.34 26.52 76.9 26.87 79.71 27.22 77.79 27.57 78.68 27.92 77.2 28.27 79.12 28.61 78.38 28.96 78.38 29.31 77.79 29.66 76.6 30.01 73.49 30.36 74.83 30.71 75.42 31.06 76.31 31.41 73.94 31.76 72.31 32.11 73.94 32.45 77.79 32.8 75.86 33.15 75.71 33.5 74.23 33.85 76.6 34.2 75.42 34.55 75.12 34.9 75.57 35.25 73.05 35.6 73.2 35.95 74.97 36.3 72.75 36.64 70.97 36.99 64.75 37.34 69.64 37.69 66.23 38.04 66.09 38.39 66.83 38.74 64.46 39.09 64.9 39.44 66.23 39.79 65.2 40.14 66.53 40.49 64.46 40.83 63.86 41.18 61.49 41.53 59.57 41.88 59.12 42.23 57.79 42.58 58.98 42.93 60.9 43.28 58.09 43.63 58.09 43.98 58.24 44.33 59.86 44.67 61.35 45.02 61.79 45.37 65.49 45.72 64.01 46.07 62.68 46.42 61.05 46.77 59.12 47.12 59.42 47.47 57.79 47.82 59.57 48.17 58.53 48.52 61.64 48.86 65.64 49.21 64.01 49.56 66.38 49.91 67.57 50.26 66.23 50.61 68.31 50.96 66.98 51.31 64.46 51.66 60.9 52.01 62.38 52.36 59.42 52.7 58.38 53.05 59.72 53.4 58.24 53.75 58.98 54.1 61.79 54.45 65.05 54.8 66.68 55.15 65.94 55.5 66.68 55.85 66.68 56.2 64.75 56.55 65.79 56.89 69.79 57.24 69.2 57.59 69.64 57.94 68.01 58.29 66.23 58.64 68.75 58.99 68.9 59.34 68.6 59.69 68.46 60.04 65.2 60.39 63.42 60.73 64.61 61.08 65.64 61.43 70.38 61.78 69.64 62.13 67.57 62.48 67.86 62.83 70.53 63.18 71.27 63.53 69.64 63.88 70.23 64.23 71.12 64.58 71.12 64.92 68.9 65.27 69.05 65.62 65.35 65.97 66.83 66.32 67.72 66.67 66.98 67.02 66.53 67.37 66.83 67.72 66.09 68.07 69.05 68.42 69.79 68.77 73.34 69.11 68.75 69.46 67.12 69.81 68.46 70.16 69.49 70.51 71.86 70.86 73.64 71.21 72.16 71.56 68.16 71.91 65.35 72.26 64.01 72.61 64.01 72.95 66.83 73.3 67.12 73.65 68.46 74 68.46 74.35 72.01 74.7 72.6 75.05 71.57 75.4 71.42 75.75 75.86 76.1 78.38 76.45 79.86 76.8 79.12 77.14 80.75 77.49 78.83 77.84 82.38 78.19 84.45 78.54 83.27 78.89 85.94 79.24 86.23 79.59 84.75 79.94 82.97 80.29 76.75 80.64 77.79 80.98 79.27 81.33 78.83 81.68 79.57 82.03 82.53 82.38 81.2 82.73 79.27 83.08 81.64 83.43 82.08 83.78 81.79 84.13 81.05 84.48 81.49 84.83 80.75 85.17 80.75 85.52 78.38 85.87 77.49 86.22 78.53 86.57 80.75 86.92 82.97 87.27 78.83 87.62 79.42 87.97 80.9 88.32 82.08 88.67 79.71 89.02 80.01 89.36 81.05 89.71 81.34 90.06 83.27 90.41 82.68 90.76 83.71 91.11 85.49 91.46 81.49 91.81 84.31 92.16 82.82 92.51 83.12 92.86 80.9 93.2 75.86 93.55 76.9 93.9 78.68 94.25 82.82 94.6 79.27 94.95 78.97 95.3 78.53 95.65 77.79 96 77.2 96.35 79.57 96.7 81.64 97.05 81.49 97.39 83.27 97.74 85.19 98.09 88.6 98.44 85.49 98.79 83.42 99.14 82.68 99.49 78.08 99.84 77.64 100.19 79.71 100.54 81.49 100.89 82.08 101.23 77.94 101.58 78.08 101.93 77.49 102.28 77.64 102.63 76.46 102.98 78.23 103.33 79.27 103.68 81.79 104.03 81.49 104.38 79.27 104.73 77.79 105.08 76.01 105.42 78.08 105.77 81.49 106.12 82.23 106.47 82.08 106.82 84.01 107.17 80.45 107.52 80.01 107.87 79.57 108.22 81.2 108.57 81.2 108.92 79.42 109.26 80.9 109.61 80.16 109.96 80.45 110.31 78.83 110.66 77.2 111.01 76.9 111.36 77.34 111.71 77.2 112.06 77.79 112.41 76.31 112.76 75.57 113.11 74.23 113.45 78.08 113.8 73.34 114.15 70.83 114.5 69.2 114.85 70.09 115.2 68.31 115.55 66.83 115.9 67.42 116.25 69.94 116.6 70.09 116.95 66.83 117.3 66.68 117.64 68.75 117.99 66.23 118.34 68.46 118.69 66.68 119.04 66.83 119.39 67.72 119.74 66.83 120.09 65.2 120.44 67.57 120.79 67.72 121.14 66.23 121.48 64.31 121.83 65.79 122.18 69.2 122.53 69.05 122.88 66.98 123.23 67.42 123.58 69.2 123.93 70.23 124.28 70.68 124.63 69.2 124.98 70.38 125.33 74.09 125.67 74.09 126.02 73.79 126.37 73.94 126.72 72.9 127.07 74.38 127.42 76.01 127.77 75.86 128.12 75.71 128.47 72.75 128.82 72.31 129.17 70.97 129.51 70.68 129.86 67.72 130.21 69.05 130.56 67.42 130.91 72.01 131.26 71.42 131.61 70.83 131.96 69.79 132.31 68.9 132.66 69.94 133.01 72.46 133.36 72.16 133.7 73.2 134.05 74.68 134.4 71.57 134.75 70.68 135.1 68.6 135.45 71.27 135.8 72.75 136.15 71.57 136.5 73.34 136.85 72.01 137.2 71.86 137.55 74.09 137.89 73.79 138.24 72.16 138.59 73.79 138.94 75.42 139.29 76.01 139.64 72.01 139.99 74.68 140.34 73.05 140.69 74.68 141.04 75.12 141.39 75.86 141.73 72.16 142.08 72.75 142.43 68.6 142.78 70.68 143.13 73.79 143.48 74.83 143.83 76.46 144.18 77.49 144.53 75.86 144.88 73.05 145.23 72.46 145.58 73.05 145.92 74.23 146.27 72.46 146.62 74.68 146.97 73.64 147.32 76.16 147.67 76.46 148.02 80.01 148.37 78.23 148.72 78.23 149.07 78.38 149.42 76.31 149.76 75.71 150.11 76.6 150.46 75.57 150.81 79.12 151.16 81.05 151.51 80.45 151.86 79.12 152.21 78.68 152.56 73.05 152.91 70.97 153.26 73.34 153.61 73.05 153.95 72.46 154.3 76.01 154.65 78.53 155 80.01 155.35 79.86 155.7 80.31 156.05 76.75 156.4 77.05 156.75 76.16 157.1 79.71 157.45 80.16 157.79 80.16 158.14 79.42 158.49 77.49 158.84 78.68 159.19 81.94 159.54 85.49 159.89 84.01 160.24 81.34 160.59 82.38 160.94 82.23 161.29 83.71 161.64 88.6 161.98 85.79 162.33 85.05 162.68 82.08 163.03 78.53 163.38 79.86 163.73 77.34 164.08 77.05 164.43 81.34 164.78 85.05 165.13 83.86 165.48 83.57 165.83 82.68 166.17 82.08 166.52 82.38 166.87 83.42 167.22 83.71 167.57 85.19 167.92 85.94 168.27 88.6 168.62 90.53 168.97 92.9 169.32 94.23 169.67 94.53 170.01 95.27 170.36 93.64 170.71 97.19 171.06 93.34 171.41 93.19 171.76 92.75 172.11 93.19 172.46 95.27 172.81 97.49 173.16 96.6 173.51 99.42 173.86 100.16 174.2 99.42 174.55 98.97 174.9 99.86 175.25 99.27 175.6 98.38 175.95 99.56 176.3 99.12 176.65 100.16 177 97.49 177.35 98.08 177.7 97.64 178.04 97.05 178.39 100.3 178.74 100.3 179.09 102.97 179.44 105.64 179.79 105.93 180.14 105.64 180.49 108.01 180.84 106.82 181.19 107.27 181.54 106.38 181.89 106.23 182.23 106.23 182.58 103.12 182.93 100.01 183.28 101.19 183.63 101.64 183.98 103.56 184.33 104.3 184.68 103.71 185.03 106.53 185.38 105.49 185.73 108.6 186.08 106.97 186.42 104.01 186.77 105.19 187.12 104.6 187.47 104.45 187.82 106.53 188.17 106.82 188.52 105.19 188.87 106.53 189.22 108.3 189.57 107.86 189.92 110.53 190.26 110.82 190.61 109.78 190.96 111.12 191.31 108.75 191.66 107.27 192.01 111.12 192.36 112.01 192.71 115.71 193.06 116.75 193.41 118.23 193.76 117.64 194.11 116.89 194.45 119.41 194.8 120.75 195.15 120.89 195.5 121.04 195.85 121.63 196.2 121.19"/>
      </g>
      <g stroke-width="0.3" fill="#000000" fill-opacity="0.000" class="geometry" stroke-dasharray="none" stroke="#66C2A5" id="img-44374055-11">
        <path fill="none" d="M21.98,79.27 L 22.33 80.01 22.68 78.08 23.03 78.53 23.38 83.27 23.73 85.05 24.08 81.79 24.42 84.01 24.77 84.45 25.12 84.75 25.47 88.01 25.82 88.31 26.17 85.49 26.52 87.42 26.87 89.64 27.22 85.64 27.57 85.49 27.92 84.9 28.27 83.42 28.61 84.75 28.96 82.23 29.31 81.2 29.66 80.9 30.01 78.53 30.36 80.75 30.71 77.64 31.06 77.49 31.41 77.2 31.76 80.75 32.11 81.49 32.45 81.34 32.8 82.53 33.15 83.42 33.5 84.01 33.85 85.49 34.2 83.57 34.55 82.23 34.9 81.49 35.25 82.82 35.6 84.01 35.95 79.57 36.3 76.9 36.64 76.9 36.99 78.83 37.34 80.01 37.69 78.97 38.04 77.79 38.39 77.34 38.74 81.64 39.09 80.01 39.44 79.71 39.79 77.79 40.14 82.97 40.49 84.31 40.83 82.38 41.18 81.49 41.53 83.42 41.88 84.9 42.23 85.05 42.58 82.68 42.93 84.01 43.28 84.01 43.63 84.31 43.98 80.9 44.33 80.16 44.67 82.38 45.02 83.27 45.37 84.6 45.72 87.27 46.07 90.53 46.42 89.49 46.77 89.94 47.12 90.82 47.47 94.38 47.82 89.94 48.17 92.16 48.52 93.64 48.86 93.34 49.21 94.97 49.56 95.42 49.91 96.16 50.26 94.97 50.61 96.01 50.96 96.3 51.31 97.79 51.66 97.19 52.01 98.53 52.36 98.38 52.7 97.93 53.05 99.56 53.4 98.82 53.75 99.42 54.1 101.93 54.45 99.12 54.8 97.79 55.15 98.82 55.5 100.45 55.85 102.97 56.2 106.53 56.55 107.12 56.89 108.6 57.24 109.34 57.59 111.12 57.94 109.78 58.29 112.3 58.64 111.86 58.99 109.04 59.34 106.23 59.69 107.71 60.04 107.27 60.39 106.53 60.73 106.38 61.08 107.56 61.43 106.82 61.78 107.41 62.13 109.04 62.48 109.04 62.83 106.08 63.18 107.56 63.53 106.67 63.88 108.6 64.23 108.15 64.58 109.78 64.92 110.67 65.27 112.75 65.62 112.6 65.97 112.6 66.32 111.86 66.67 111.27 67.02 113.34 67.37 115.12 67.72 112.3 68.07 112.75 68.42 110.53 68.77 107.12 69.11 107.41 69.46 107.12 69.81 104.9 70.16 104.75 70.51 104.6 70.86 103.12 71.21 104.75 71.56 104.6 71.91 100.75 72.26 100.16 72.61 100.75 72.95 99.86 73.3 96.9 73.65 96.16 74 98.97 74.35 101.19 74.7 98.08 75.05 98.67 75.4 102.53 75.75 102.53 76.1 102.82 76.45 103.12 76.8 100.9 77.14 98.53 77.49 99.12 77.84 97.19 78.19 96.75 78.54 97.64 78.89 99.71 79.24 101.34 79.59 102.38 79.94 103.12 80.29 101.04 80.64 97.79 80.98 97.64 81.33 101.64 81.68 99.56 82.03 100.3 82.38 98.82 82.73 98.82 83.08 96.6 83.43 96.3 83.78 93.93 84.13 96.16 84.48 95.56 84.83 94.08 85.17 92.75 85.52 89.19 85.87 88.01 86.22 87.57 86.57 85.94 86.92 91.12 87.27 92.16 87.62 91.71 87.97 91.71 88.32 90.53 88.67 89.19 89.02 89.05 89.36 89.49 89.71 89.05 90.06 87.42 90.41 86.82 90.76 87.12 91.11 87.12 91.46 89.34 91.81 89.79 92.16 89.19 92.51 88.16 92.86 84.9 93.2 82.82 93.55 79.42 93.9 78.38 94.25 75.12 94.6 77.2 94.95 78.08 95.3 73.49 95.65 72.75 96 71.42 96.35 71.42 96.7 72.9 97.05 70.68 97.39 72.9 97.74 77.34 98.09 75.86 98.44 77.05 98.79 76.31 99.14 76.46 99.49 73.49 99.84 71.72 100.19 69.35 100.54 67.86 100.89 68.6 101.23 67.42 101.58 72.16 101.93 70.97 102.28 73.34 102.63 75.71 102.98 76.16 103.33 73.49 103.68 70.09 104.03 72.6 104.38 71.27 104.73 73.94 105.08 73.94 105.42 69.2 105.77 69.64 106.12 70.38 106.47 65.2 106.82 65.35 107.17 66.38 107.52 64.31 107.87 64.9 108.22 64.75 108.57 65.64 108.92 66.53 109.26 70.09 109.61 70.23 109.96 71.86 110.31 71.12 110.66 76.16 111.01 77.05 111.36 77.49 111.71 77.64 112.06 77.49 112.41 77.34 112.76 75.57 113.11 74.83 113.45 75.57 113.8 72.46 114.15 71.86 114.5 70.09 114.85 72.6 115.2 70.53 115.55 73.64 115.9 69.35 116.25 66.38 116.6 68.75 116.95 69.35 117.3 70.83 117.64 72.6 117.99 74.38 118.34 72.16 118.69 71.42 119.04 69.49 119.39 66.09 119.74 67.42 120.09 67.27 120.44 70.23 120.79 71.27 121.14 74.09 121.48 73.79 121.83 72.31 122.18 76.6 122.53 77.2 122.88 76.6 123.23 77.34 123.58 78.97 123.93 75.71 124.28 77.79 124.63 77.49 124.98 78.68 125.33 77.2 125.67 74.53 126.02 74.23 126.37 75.57 126.72 79.57 127.07 76.16 127.42 75.57 127.77 79.42 128.12 82.23 128.47 78.23 128.82 76.46 129.17 77.05 129.51 78.97 129.86 79.86 130.21 79.42 130.56 77.49 130.91 77.79 131.26 78.23 131.61 82.97 131.96 83.86 132.31 86.08 132.66 84.16 133.01 83.86 133.36 80.16 133.7 85.34 134.05 84.75 134.4 88.75 134.75 86.82 135.1 85.05 135.45 83.86 135.8 82.68 136.15 82.23 136.5 84.16 136.85 86.53 137.2 87.42 137.55 88.75 137.89 90.23 138.24 90.23 138.59 89.19 138.94 93.19 139.29 91.27 139.64 91.71 139.99 92.75 140.34 88.9 140.69 92.75 141.04 92.01 141.39 91.56 141.73 93.79 142.08 97.19 142.43 97.19 142.78 98.38 143.13 95.71 143.48 93.79 143.83 94.38 144.18 94.08 144.53 97.79 144.88 97.79 145.23 97.64 145.58 95.56 145.92 91.56 146.27 93.79 146.62 91.71 146.97 87.57 147.32 88.75 147.67 90.38 148.02 90.68 148.37 90.08 148.72 89.64 149.07 85.19 149.42 82.08 149.76 80.6 150.11 80.16 150.46 82.53 150.81 80.31 151.16 80.75 151.51 81.2 151.86 80.75 152.21 80.16 152.56 80.9 152.91 84.16 153.26 83.12 153.61 83.42 153.95 84.6 154.3 83.71 154.65 82.68 155 82.82 155.35 85.79 155.7 85.64 156.05 86.08 156.4 86.53 156.75 85.94 157.1 86.08 157.45 88.45 157.79 89.34 158.14 88.75 158.49 93.34 158.84 90.68 159.19 89.34 159.54 88.01 159.89 83.42 160.24 84.45 160.59 85.34 160.94 87.71 161.29 88.75 161.64 85.05 161.98 86.08 162.33 86.23 162.68 90.53 163.03 88.6 163.38 89.34 163.73 89.19 164.08 89.94 164.43 90.38 164.78 91.56 165.13 90.68 165.48 90.23 165.83 90.08 166.17 90.38 166.52 91.56 166.87 95.56 167.22 97.79 167.57 94.08 167.92 94.23 168.27 91.42 168.62 91.86 168.97 94.97 169.32 93.19 169.67 89.05 170.01 91.56 170.36 93.64 170.71 94.97 171.06 94.97 171.41 95.71 171.76 96.75 172.11 96.16 172.46 97.05 172.81 93.05 173.16 92.01 173.51 90.82 173.86 88.45 174.2 88.75 174.55 88.75 174.9 85.79 175.25 84.01 175.6 85.64 175.95 85.05 176.3 81.64 176.65 81.49 177 85.19 177.35 81.94 177.7 81.94 178.04 83.71 178.39 80.16 178.74 81.94 179.09 84.16 179.44 84.75 179.79 83.27 180.14 84.31 180.49 85.79 180.84 85.94 181.19 84.75 181.54 84.6 181.89 84.31 182.23 81.05 182.58 77.79 182.93 80.6 183.28 81.64 183.63 80.01 183.98 82.08 184.33 86.68 184.68 87.86 185.03 87.71 185.38 89.34 185.73 88.45 186.08 88.75 186.42 85.79 186.77 84.01 187.12 82.68 187.47 81.79 187.82 83.12 188.17 83.42 188.52 85.19 188.87 83.27 189.22 84.75 189.57 86.53 189.92 86.38 190.26 91.12 190.61 92.16 190.96 93.05 191.31 93.64 191.66 96.9 192.01 96.16 192.36 95.71 192.71 97.93 193.06 101.93 193.41 103.71 193.76 100.6 194.11 100.9 194.45 98.23 194.8 97.19 195.15 99.56 195.5 97.05 195.85 95.27 196.2 95.56"/>
      </g>
      <g stroke-width="0.3" fill="#000000" fill-opacity="0.000" class="geometry" stroke-dasharray="none" stroke="#ABDDA4" id="img-44374055-12">
        <path fill="none" d="M21.98,79.27 L 22.33 81.2 22.68 79.86 23.03 80.9 23.38 82.23 23.73 81.05 24.08 82.08 24.42 86.08 24.77 84.45 25.12 84.31 25.47 81.94 25.82 79.42 26.17 78.38 26.52 78.23 26.87 79.42 27.22 80.6 27.57 79.86 27.92 79.71 28.27 79.57 28.61 79.57 28.96 78.23 29.31 80.16 29.66 79.57 30.01 81.05 30.36 84.31 30.71 84.16 31.06 80.9 31.41 83.27 31.76 81.79 32.11 82.38 32.45 85.79 32.8 85.34 33.15 86.23 33.5 85.79 33.85 84.75 34.2 86.82 34.55 84.6 34.9 84.75 35.25 83.42 35.6 82.82 35.95 80.01 36.3 84.45 36.64 84.45 36.99 83.42 37.34 83.86 37.69 83.71 38.04 85.19 38.39 87.27 38.74 88.75 39.09 88.45 39.44 87.12 39.79 90.08 40.14 89.79 40.49 92.6 40.83 91.42 41.18 91.71 41.53 91.86 41.88 96.16 42.23 97.64 42.58 97.19 42.93 92.75 43.28 90.38 43.63 93.93 43.98 97.64 44.33 98.82 44.67 99.71 45.02 100.01 45.37 100.75 45.72 101.93 46.07 101.79 46.42 100.9 46.77 99.86 47.12 98.08 47.47 102.53 47.82 102.38 48.17 101.64 48.52 102.67 48.86 100.9 49.21 105.49 49.56 103.56 49.91 102.53 50.26 102.67 50.61 104.6 50.96 103.86 51.31 102.97 51.66 103.41 52.01 103.41 52.36 101.79 52.7 100.45 53.05 101.49 53.4 101.49 53.75 99.86 54.1 100.3 54.45 103.41 54.8 103.41 55.15 101.34 55.5 102.67 55.85 100.16 56.2 100.16 56.55 102.67 56.89 99.71 57.24 103.12 57.59 104.16 57.94 101.49 58.29 101.19 58.64 98.82 58.99 101.04 59.34 99.71 59.69 103.12 60.04 103.41 60.39 104.45 60.73 108.15 61.08 103.71 61.43 102.38 61.78 103.41 62.13 101.79 62.48 100.75 62.83 98.08 63.18 100.3 63.53 101.49 63.88 100.75 64.23 100.16 64.58 100.16 64.92 100.75 65.27 97.34 65.62 91.71 65.97 90.23 66.32 91.12 66.67 91.12 67.02 90.53 67.37 88.75 67.72 86.08 68.07 86.97 68.42 88.75 68.77 88.9 69.11 92.01 69.46 91.42 69.81 93.64 70.16 92.9 70.51 90.53 70.86 86.82 71.21 88.75 71.56 88.31 71.91 85.94 72.26 88.01 72.61 87.57 72.95 89.64 73.3 91.86 73.65 91.56 74 92.9 74.35 92.6 74.7 92.31 75.05 91.56 75.4 90.23 75.75 88.16 76.1 85.94 76.45 86.38 76.8 83.71 77.14 86.53 77.49 85.94 77.84 88.9 78.19 91.27 78.54 88.31 78.89 88.31 79.24 88.9 79.59 88.31 79.94 87.71 80.29 86.53 80.64 88.6 80.98 86.38 81.33 90.97 81.68 89.79 82.03 89.05 82.38 90.53 82.73 89.64 83.08 89.19 83.43 88.01 83.78 89.79 84.13 91.71 84.48 90.68 84.83 91.42 85.17 88.01 85.52 89.34 85.87 93.93 86.22 92.9 86.57 92.9 86.92 92.16 87.27 93.49 87.62 93.34 87.97 95.27 88.32 94.82 88.67 95.71 89.02 94.53 89.36 92.31 89.71 92.45 90.06 93.34 90.41 93.05 90.76 95.12 91.11 94.82 91.46 94.82 91.81 92.9 92.16 91.71 92.51 94.68 92.86 95.42 93.2 95.71 93.55 99.27 93.9 98.53 94.25 93.05 94.6 96.45 94.95 96.6 95.3 94.97 95.65 96.01 96 95.56 96.35 95.86 96.7 94.82 97.05 93.49 97.39 93.19 97.74 93.19 98.09 94.23 98.44 96.45 98.79 95.56 99.14 95.71 99.49 97.34 99.84 100.45 100.19 100.3 100.54 100.6 100.89 100.01 101.23 98.67 101.58 101.64 101.93 100.9 102.28 100.75 102.63 100.75 102.98 102.97 103.33 103.12 103.68 103.56 104.03 103.27 104.38 104.3 104.73 102.82 105.08 104.16 105.42 105.93 105.77 103.12 106.12 103.41 106.47 103.86 106.82 100.9 107.17 99.71 107.52 99.71 107.87 100.01 108.22 99.86 108.57 101.04 108.92 100.9 109.26 99.42 109.61 103.71 109.96 104.9 110.31 104.9 110.66 106.82 111.01 108.01 111.36 110.53 111.71 112.9 112.06 112.01 112.41 111.41 112.76 112.9 113.11 113.49 113.45 116.45 113.8 114.82 114.15 112.9 114.5 111.41 114.85 108.6 115.2 109.19 115.55 107.41 115.9 107.56 116.25 108.45 116.6 110.38 116.95 108.9 117.3 107.71 117.64 107.56 117.99 105.04 118.34 103.86 118.69 104.01 119.04 108.45 119.39 107.41 119.74 107.86 120.09 109.78 120.44 107.71 120.79 108.45 121.14 109.78 121.48 104.75 121.83 105.04 122.18 109.93 122.53 108.6 122.88 108.45 123.23 108.3 123.58 108.01 123.93 110.38 124.28 108.3 124.63 105.04 124.98 100.3 125.33 101.64 125.67 106.23 126.02 105.78 126.37 105.64 126.72 104.9 127.07 102.23 127.42 102.53 127.77 102.08 128.12 101.34 128.47 102.97 128.82 105.49 129.17 105.49 129.51 106.23 129.86 105.93 130.21 108.15 130.56 108.3 130.91 107.41 131.26 104.75 131.61 105.78 131.96 109.19 132.31 109.19 132.66 108.6 133.01 108.9 133.36 107.86 133.7 109.93 134.05 110.08 134.4 111.86 134.75 112.9 135.1 113.93 135.45 112.45 135.8 112.6 136.15 110.97 136.5 113.34 136.85 114.67 137.2 115.41 137.55 116.15 137.89 112.01 138.24 114.38 138.59 113.64 138.94 112.01 139.29 110.97 139.64 113.04 139.99 115.12 140.34 114.08 140.69 112.75 141.04 113.78 141.39 114.23 141.73 114.82 142.08 113.78 142.43 113.04 142.78 115.56 143.13 118.08 143.48 118.38 143.83 119.86 144.18 119.26 144.53 119.12 144.88 119.71 145.23 117.93 145.58 117.78 145.92 116.45 146.27 117.34 146.62 117.93 146.97 118.38 147.32 116.45 147.67 116.89 148.02 118.67 148.37 119.86 148.72 118.23 149.07 119.56 149.42 119.12 149.76 118.23 150.11 117.93 150.46 117.93 150.81 118.67 151.16 118.82 151.51 120.75 151.86 120.45 152.21 121.63 152.56 120.6 152.91 121.04 153.26 121.78 153.61 122.38 153.95 122.38 154.3 122.38 154.65 121.93 155 122.67 155.35 123.12 155.7 121.78 156.05 122.38 156.4 123.56 156.75 124.45 157.1 125.63 157.45 124.89 157.79 126.23 158.14 125.34 158.49 125.19 158.84 126.67 159.19 126.67 159.54 126.08 159.89 124.75 160.24 123.12 160.59 122.08 160.94 122.82 161.29 125.19 161.64 125.19 161.98 125.49 162.33 126.37 162.68 126.37 163.03 125.93 163.38 125.78 163.73 125.49 164.08 124 164.43 123.26 164.78 123.86 165.13 124 165.48 123.41 165.83 124 166.17 124.75 166.52 122.67 166.87 122.97 167.22 122.97 167.57 121.34 167.92 121.78 168.27 120.6 168.62 121.04 168.97 120.6 169.32 118.97 169.67 120.3 170.01 119.86 170.36 121.49 170.71 121.34 171.06 120.15 171.41 120.3 171.76 119.12 172.11 118.23 172.46 119.56 172.81 119.86 173.16 118.52 173.51 117.34 173.86 118.97 174.2 121.78 174.55 121.93 174.9 122.52 175.25 121.93 175.6 124 175.95 123.56 176.3 122.67 176.65 121.49 177 120.45 177.35 121.93 177.7 122.52 178.04 124.15 178.39 124.75 178.74 125.34 179.09 124.15 179.44 123.86 179.79 122.97 180.14 123.71 180.49 123.56 180.84 126.23 181.19 125.49 181.54 127.41 181.89 127.41 182.23 127.41 182.58 126.97 182.93 127.56 183.28 126.67 183.63 126.52 183.98 126.97 184.33 127.41 184.68 126.97 185.03 125.93 185.38 126.37 185.73 125.49 186.08 126.08 186.42 126.52 186.77 126.82 187.12 126.82 187.47 126.52 187.82 126.52 188.17 126.82 188.52 126.08 188.87 126.23 189.22 126.37 189.57 125.49 189.92 126.37 190.26 125.34 190.61 125.78 190.96 125.78 191.31 125.63 191.66 126.52 192.01 127.56 192.36 126.52 192.71 126.67 193.06 125.93 193.41 125.04 193.76 124.6 194.11 124.3 194.45 122.82 194.8 123.26 195.15 122.67 195.5 121.78 195.85 120.01 196.2 120.15"/>
      </g>
      <g stroke-width="0.3" fill="#000000" fill-opacity="0.000" class="geometry" stroke-dasharray="none" stroke="#E6F598" id="img-44374055-13">
        <path fill="none" d="M21.98,79.27 L 22.33 76.6 22.68 74.97 23.03 75.86 23.38 76.31 23.73 74.68 24.08 73.94 24.42 73.2 24.77 74.09 25.12 72.46 25.47 72.46 25.82 70.53 26.17 70.68 26.52 71.42 26.87 70.38 27.22 68.01 27.57 68.9 27.92 70.09 28.27 68.75 28.61 72.16 28.96 72.16 29.31 69.49 29.66 69.05 30.01 70.68 30.36 68.9 30.71 66.98 31.06 63.86 31.41 62.68 31.76 62.68 32.11 58.53 32.45 59.42 32.8 58.09 33.15 57.2 33.5 57.05 33.85 58.53 34.2 57.05 34.55 58.68 34.9 61.35 35.25 67.27 35.6 67.86 35.95 65.35 36.3 66.53 36.64 66.38 36.99 67.72 37.34 65.49 37.69 65.05 38.04 65.35 38.39 64.31 38.74 64.16 39.09 63.86 39.44 61.94 39.79 61.64 40.14 60.9 40.49 62.83 40.83 59.27 41.18 60.31 41.53 59.27 41.88 58.68 42.23 57.05 42.58 52.01 42.93 51.87 43.28 48.31 43.63 49.35 43.98 49.5 44.33 49.2 44.67 48.46 45.02 47.57 45.37 48.01 45.72 48.01 46.07 50.38 46.42 51.27 46.77 49.35 47.12 52.75 47.47 50.53 47.82 50.38 48.17 46.98 48.52 45.2 48.86 46.39 49.21 44.31 49.56 42.09 49.91 41.5 50.26 44.9 50.61 44.46 50.96 46.39 51.31 46.09 51.66 46.39 52.01 45.94 52.36 47.72 52.7 48.76 53.05 48.31 53.4 47.42 53.75 47.87 54.1 48.76 54.45 47.57 54.8 48.76 55.15 48.9 55.5 47.27 55.85 47.87 56.2 49.64 56.55 50.09 56.89 48.61 57.24 47.57 57.59 47.87 57.94 48.9 58.29 48.9 58.64 49.05 58.99 50.38 59.34 50.24 59.69 50.09 60.04 49.05 60.39 47.72 60.73 49.79 61.08 50.53 61.43 50.24 61.78 48.31 62.13 48.46 62.48 46.68 62.83 49.05 63.18 46.83 63.53 47.87 63.88 46.98 64.23 47.13 64.58 45.64 64.92 46.39 65.27 46.98 65.62 44.76 65.97 46.53 66.32 46.53 66.67 46.53 67.02 45.2 67.37 46.39 67.72 45.94 68.07 46.09 68.42 46.09 68.77 45.35 69.11 45.05 69.46 45.35 69.81 47.87 70.16 45.5 70.51 45.64 70.86 45.5 71.21 42.98 71.56 42.24 71.91 40.02 72.26 39.87 72.61 38.39 72.95 38.24 73.3 38.24 73.65 39.57 74 40.31 74.35 39.42 74.7 39.42 75.05 40.46 75.4 41.94 75.75 42.53 76.1 41.94 76.45 40.31 76.8 38.39 77.14 37.35 77.49 38.68 77.84 38.24 78.19 40.76 78.54 45.05 78.89 46.68 79.24 47.72 79.59 45.5 79.94 44.76 80.29 47.57 80.64 49.79 80.98 53.2 81.33 52.31 81.68 53.5 82.03 52.9 82.38 49.5 82.73 49.5 83.08 49.2 83.43 49.2 83.78 48.46 84.13 48.01 84.48 50.83 84.83 49.64 85.17 48.31 85.52 48.16 85.87 48.31 86.22 46.98 86.57 46.09 86.92 43.27 87.27 41.2 87.62 38.53 87.97 39.27 88.32 39.42 88.67 36.31 89.02 36.31 89.36 38.53 89.71 36.76 90.06 36.9 90.41 38.09 90.76 40.16 91.11 40.02 91.46 38.98 91.81 38.53 92.16 38.83 92.51 38.68 92.86 38.39 93.2 39.27 93.55 40.02 93.9 37.65 94.25 37.5 94.6 37.5 94.95 37.35 95.3 38.98 95.65 39.27 96 40.76 96.35 41.05 96.7 45.05 97.05 44.46 97.39 44.31 97.74 45.64 98.09 45.35 98.44 45.05 98.79 47.42 99.14 48.46 99.49 49.05 99.84 48.31 100.19 50.83 100.54 52.31 100.89 53.64 101.23 52.16 101.58 52.75 101.93 51.27 102.28 52.61 102.63 52.9 102.98 53.05 103.33 53.2 103.68 54.68 104.03 55.72 104.38 58.24 104.73 58.38 105.08 58.09 105.42 61.79 105.77 60.31 106.12 60.31 106.47 57.79 106.82 58.83 107.17 60.9 107.52 60.9 107.87 61.64 108.22 57.2 108.57 58.68 108.92 59.86 109.26 58.38 109.61 58.09 109.96 59.42 110.31 59.86 110.66 58.98 111.01 58.24 111.36 56.01 111.71 58.24 112.06 56.75 112.41 55.57 112.76 54.24 113.11 53.79 113.45 50.68 113.8 51.42 114.15 51.72 114.5 52.31 114.85 52.16 115.2 53.05 115.55 50.24 115.9 50.38 116.25 48.9 116.6 48.46 116.95 49.35 117.3 49.2 117.64 50.24 117.99 47.27 118.34 47.27 118.69 46.98 119.04 46.24 119.39 46.83 119.74 49.2 120.09 51.57 120.44 51.42 120.79 47.42 121.14 46.98 121.48 50.98 121.83 50.68 122.18 49.05 122.53 49.05 122.88 49.79 123.23 50.53 123.58 52.01 123.93 51.27 124.28 51.27 124.63 53.2 124.98 51.72 125.33 49.2 125.67 48.16 126.02 47.57 126.37 49.79 126.72 49.05 127.07 50.53 127.42 51.72 127.77 48.61 128.12 48.16 128.47 48.16 128.82 48.9 129.17 48.61 129.51 46.24 129.86 48.46 130.21 49.5 130.56 49.94 130.91 50.68 131.26 49.64 131.61 51.57 131.96 50.68 132.31 49.2 132.66 48.16 133.01 50.38 133.36 51.87 133.7 49.64 134.05 49.94 134.4 48.01 134.75 47.87 135.1 46.53 135.45 46.68 135.8 44.61 136.15 44.31 136.5 42.68 136.85 42.24 137.2 42.83 137.55 45.35 137.89 44.61 138.24 44.16 138.59 44.46 138.94 46.09 139.29 48.31 139.64 50.24 139.99 52.46 140.34 50.09 140.69 49.64 141.04 49.05 141.39 45.5 141.73 45.5 142.08 46.24 142.43 48.61 142.78 48.9 143.13 46.98 143.48 47.27 143.83 47.87 144.18 48.9 144.53 52.61 144.88 51.87 145.23 51.27 145.58 49.94 145.92 49.35 146.27 50.68 146.62 52.31 146.97 53.5 147.32 51.13 147.67 49.35 148.02 48.01 148.37 48.16 148.72 51.13 149.07 51.57 149.42 52.75 149.76 53.5 150.11 53.94 150.46 54.38 150.81 52.16 151.16 50.83 151.51 49.79 151.86 53.35 152.21 53.5 152.56 49.79 152.91 50.83 153.26 49.05 153.61 49.64 153.95 47.27 154.3 48.76 154.65 49.79 155 48.46 155.35 45.35 155.7 46.39 156.05 44.02 156.4 44.9 156.75 45.64 157.1 43.57 157.45 44.9 157.79 44.61 158.14 48.76 158.49 49.94 158.84 50.68 159.19 50.24 159.54 50.38 159.89 49.05 160.24 49.94 160.59 50.98 160.94 50.09 161.29 48.76 161.64 48.9 161.98 49.79 162.33 47.57 162.68 49.79 163.03 49.2 163.38 50.68 163.73 53.35 164.08 55.12 164.43 55.87 164.78 53.79 165.13 53.5 165.48 53.5 165.83 54.09 166.17 51.13 166.52 51.42 166.87 53.94 167.22 52.61 167.57 48.9 167.92 52.16 168.27 54.24 168.62 53.2 168.97 54.53 169.32 55.27 169.67 55.42 170.01 57.94 170.36 57.35 170.71 57.05 171.06 56.61 171.41 54.83 171.76 53.05 172.11 54.53 172.46 52.16 172.81 48.46 173.16 47.57 173.51 44.61 173.86 46.39 174.2 47.57 174.55 47.42 174.9 48.31 175.25 47.27 175.6 47.72 175.95 49.2 176.3 48.01 176.65 49.2 177 48.31 177.35 50.38 177.7 50.98 178.04 50.98 178.39 56.01 178.74 55.57 179.09 57.35 179.44 58.53 179.79 59.57 180.14 59.72 180.49 61.2 180.84 59.27 181.19 61.05 181.54 65.79 181.89 69.49 182.23 67.42 182.58 64.75 182.93 64.75 183.28 65.2 183.63 63.72 183.98 62.98 184.33 60.61 184.68 61.05 185.03 62.68 185.38 64.01 185.73 67.72 186.08 73.05 186.42 71.86 186.77 73.49 187.12 72.01 187.47 73.34 187.82 71.86 188.17 72.75 188.52 69.2 188.87 71.42 189.22 69.49 189.57 71.12 189.92 71.42 190.26 69.35 190.61 68.6 190.96 65.49 191.31 64.75 191.66 64.31 192.01 64.31 192.36 67.72 192.71 68.31 193.06 68.6 193.41 67.27 193.76 63.27 194.11 65.64 194.45 63.12 194.8 62.23 195.15 61.35 195.5 59.12 195.85 57.2 196.2 57.2"/>
      </g>
      <g stroke-width="0.3" fill="#000000" fill-opacity="0.000" class="geometry" stroke-dasharray="none" stroke="#FFFFBF" id="img-44374055-14">
        <path fill="none" d="M21.98,79.27 L 22.33 80.6 22.68 82.08 23.03 81.94 23.38 81.64 23.73 83.12 24.08 89.49 24.42 90.23 24.77 93.34 25.12 90.53 25.47 90.23 25.82 89.05 26.17 89.94 26.52 87.42 26.87 87.71 27.22 88.6 27.57 90.82 27.92 89.05 28.27 89.49 28.61 88.31 28.96 87.57 29.31 85.79 29.66 85.49 30.01 82.23 30.36 86.38 30.71 88.75 31.06 90.97 31.41 93.19 31.76 93.49 32.11 93.19 32.45 93.93 32.8 97.34 33.15 98.38 33.5 97.49 33.85 95.71 34.2 98.08 34.55 95.56 34.9 94.97 35.25 96.6 35.6 97.93 35.95 98.08 36.3 98.23 36.64 93.05 36.99 91.71 37.34 90.23 37.69 89.49 38.04 90.97 38.39 89.34 38.74 88.9 39.09 88.31 39.44 88.75 39.79 88.9 40.14 85.34 40.49 87.71 40.83 83.86 41.18 83.42 41.53 84.45 41.88 81.05 42.23 83.12 42.58 80.6 42.93 82.23 43.28 84.45 43.63 83.86 43.98 85.49 44.33 82.68 44.67 82.38 45.02 85.05 45.37 79.27 45.72 81.94 46.07 84.16 46.42 81.64 46.77 79.27 47.12 80.01 47.47 81.94 47.82 77.79 48.17 75.71 48.52 74.97 48.86 76.01 49.21 77.05 49.56 77.2 49.91 78.97 50.26 82.38 50.61 85.19 50.96 82.53 51.31 80.75 51.66 81.2 52.01 81.79 52.36 82.23 52.7 81.94 53.05 82.68 53.4 81.49 53.75 80.75 54.1 76.46 54.45 77.49 54.8 80.45 55.15 77.34 55.5 76.75 55.85 77.2 56.2 76.46 56.55 74.53 56.89 74.53 57.24 75.86 57.59 75.27 57.94 78.08 58.29 79.86 58.64 78.38 58.99 83.42 59.34 83.42 59.69 82.08 60.04 85.05 60.39 85.94 60.73 90.53 61.08 88.31 61.43 88.75 61.78 87.12 62.13 88.01 62.48 86.68 62.83 87.12 63.18 86.23 63.53 86.97 63.88 89.49 64.23 88.01 64.58 88.45 64.92 84.01 65.27 83.57 65.62 81.79 65.97 82.38 66.32 78.97 66.67 82.68 67.02 83.71 67.37 83.71 67.72 85.94 68.07 85.05 68.42 85.49 68.77 84.75 69.11 86.23 69.46 85.79 69.81 85.49 70.16 86.38 70.51 84.31 70.86 84.01 71.21 82.68 71.56 85.94 71.91 87.71 72.26 86.68 72.61 87.12 72.95 86.23 73.3 87.86 73.65 90.08 74 89.94 74.35 87.27 74.7 84.75 75.05 84.31 75.4 82.97 75.75 83.12 76.1 86.38 76.45 85.34 76.8 88.16 77.14 83.12 77.49 83.27 77.84 84.31 78.19 83.27 78.54 85.05 78.89 86.38 79.24 86.23 79.59 83.86 79.94 85.05 80.29 83.42 80.64 83.42 80.98 84.45 81.33 86.38 81.68 85.19 82.03 86.38 82.38 86.53 82.73 83.27 83.08 87.27 83.43 85.05 83.78 81.94 84.13 85.49 84.48 85.05 84.83 84.6 85.17 88.31 85.52 88.16 85.87 85.94 86.22 87.57 86.57 90.23 86.92 90.68 87.27 91.56 87.62 92.6 87.97 91.86 88.32 93.05 88.67 94.38 89.02 93.34 89.36 93.19 89.71 93.49 90.06 92.01 90.41 86.97 90.76 87.86 91.11 88.01 91.46 88.45 91.81 89.94 92.16 89.49 92.51 88.45 92.86 90.53 93.2 91.12 93.55 87.86 93.9 84.9 94.25 85.19 94.6 85.05 94.95 83.71 95.3 84.01 95.65 85.34 96 85.19 96.35 85.49 96.7 85.49 97.05 86.97 97.39 90.97 97.74 90.97 98.09 89.34 98.44 87.57 98.79 86.38 99.14 85.34 99.49 85.49 99.84 82.38 100.19 79.86 100.54 80.6 100.89 80.6 101.23 76.01 101.58 76.16 101.93 73.94 102.28 71.72 102.63 74.83 102.98 75.42 103.33 74.83 103.68 77.05 104.03 76.16 104.38 76.6 104.73 75.57 105.08 73.94 105.42 74.09 105.77 75.86 106.12 76.16 106.47 78.53 106.82 77.49 107.17 77.94 107.52 76.9 107.87 76.01 108.22 77.94 108.57 79.12 108.92 79.86 109.26 82.97 109.61 84.75 109.96 87.71 110.31 84.01 110.66 86.53 111.01 85.94 111.36 84.9 111.71 83.42 112.06 84.16 112.41 81.94 112.76 81.79 113.11 75.86 113.45 76.6 113.8 76.75 114.15 76.46 114.5 79.57 114.85 77.64 115.2 78.97 115.55 80.75 115.9 80.45 116.25 80.45 116.6 79.86 116.95 78.08 117.3 78.83 117.64 75.12 117.99 76.9 118.34 77.94 118.69 80.6 119.04 82.53 119.39 84.9 119.74 82.82 120.09 80.9 120.44 82.68 120.79 82.97 121.14 82.23 121.48 83.27 121.83 82.68 122.18 80.75 122.53 78.08 122.88 77.2 123.23 74.68 123.58 75.12 123.93 74.68 124.28 74.23 124.63 70.97 124.98 69.05 125.33 70.53 125.67 68.9 126.02 71.57 126.37 70.97 126.72 70.53 127.07 72.46 127.42 70.68 127.77 69.64 128.12 69.49 128.47 69.64 128.82 70.97 129.17 70.68 129.51 69.79 129.86 66.09 130.21 65.2 130.56 64.01 130.91 61.94 131.26 62.09 131.61 64.61 131.96 67.42 132.31 65.49 132.66 62.09 133.01 61.35 133.36 64.61 133.7 61.64 134.05 61.35 134.4 61.2 134.75 60.9 135.1 62.83 135.45 66.09 135.8 66.68 136.15 70.09 136.5 73.64 136.85 73.64 137.2 72.6 137.55 70.23 137.89 71.42 138.24 68.01 138.59 68.16 138.94 66.23 139.29 64.75 139.64 66.68 139.99 65.79 140.34 65.94 140.69 67.72 141.04 69.49 141.39 67.72 141.73 65.05 142.08 66.23 142.43 66.68 142.78 63.86 143.13 65.49 143.48 67.27 143.83 64.9 144.18 67.42 144.53 67.42 144.88 67.86 145.23 69.79 145.58 67.72 145.92 64.16 146.27 60.31 146.62 57.35 146.97 55.42 147.32 57.94 147.67 57.2 148.02 59.72 148.37 58.53 148.72 58.24 149.07 57.79 149.42 56.31 149.76 56.46 150.11 57.94 150.46 56.46 150.81 58.24 151.16 58.68 151.51 60.61 151.86 58.09 152.21 61.35 152.56 58.98 152.91 61.64 153.26 60.16 153.61 57.05 153.95 54.83 154.3 57.49 154.65 58.68 155 59.12 155.35 57.35 155.7 55.42 156.05 57.05 156.4 56.75 156.75 60.31 157.1 60.01 157.45 59.27 157.79 59.72 158.14 59.72 158.49 60.01 158.84 61.05 159.19 61.64 159.54 62.98 159.89 63.72 160.24 62.98 160.59 63.42 160.94 64.31 161.29 61.35 161.64 63.42 161.98 62.53 162.33 62.83 162.68 59.57 163.03 60.16 163.38 59.86 163.73 59.42 164.08 60.75 164.43 59.86 164.78 59.72 165.13 59.72 165.48 58.68 165.83 58.53 166.17 60.01 166.52 62.98 166.87 61.35 167.22 60.16 167.57 58.24 167.92 59.12 168.27 59.42 168.62 62.38 168.97 62.53 169.32 64.31 169.67 67.27 170.01 69.2 170.36 68.01 170.71 69.64 171.06 70.68 171.41 73.05 171.76 71.57 172.11 71.27 172.46 70.23 172.81 71.27 173.16 68.9 173.51 70.38 173.86 73.79 174.2 75.57 174.55 75.57 174.9 74.38 175.25 72.31 175.6 70.68 175.95 68.6 176.3 72.31 176.65 71.86 177 72.9 177.35 70.53 177.7 71.42 178.04 72.01 178.39 74.38 178.74 76.6 179.09 75.12 179.44 74.68 179.79 76.6 180.14 76.16 180.49 78.08 180.84 82.97 181.19 81.49 181.54 81.49 181.89 83.12 182.23 82.82 182.58 84.6 182.93 83.86 183.28 80.45 183.63 79.12 183.98 79.86 184.33 77.64 184.68 79.71 185.03 78.38 185.38 78.23 185.73 78.08 186.08 80.6 186.42 80.16 186.77 80.45 187.12 81.05 187.47 80.16 187.82 81.49 188.17 81.34 188.52 81.2 188.87 78.68 189.22 79.42 189.57 77.34 189.92 78.38 190.26 78.97 190.61 78.08 190.96 81.05 191.31 81.2 191.66 84.16 192.01 83.27 192.36 84.01 192.71 82.82 193.06 84.31 193.41 85.94 193.76 85.64 194.11 85.64 194.45 82.68 194.8 80.31 195.15 82.38 195.5 85.64 195.85 83.71 196.2 80.45"/>
      </g>
      <g stroke-width="0.3" fill="#000000" fill-opacity="0.000" class="geometry" stroke-dasharray="none" stroke="#FEE08B" id="img-44374055-15">
        <path fill="none" d="M21.98,79.27 L 22.33 77.2 22.68 77.79 23.03 77.2 23.38 78.23 23.73 80.31 24.08 81.64 24.42 81.79 24.77 84.01 25.12 86.23 25.47 88.16 25.82 86.08 26.17 83.12 26.52 78.23 26.87 78.68 27.22 77.94 27.57 80.6 27.92 81.05 28.27 78.08 28.61 77.94 28.96 77.2 29.31 81.34 29.66 77.94 30.01 79.71 30.36 78.08 30.71 74.97 31.06 75.42 31.41 74.09 31.76 71.12 32.11 72.16 32.45 73.05 32.8 77.79 33.15 76.31 33.5 76.75 33.85 75.71 34.2 79.27 34.55 78.97 34.9 81.05 35.25 80.75 35.6 78.08 35.95 79.27 36.3 80.6 36.64 78.68 36.99 77.05 37.34 77.49 37.69 76.16 38.04 77.64 38.39 81.2 38.74 84.45 39.09 82.82 39.44 78.83 39.79 80.16 40.14 80.9 40.49 84.9 40.83 85.94 41.18 86.38 41.53 83.71 41.88 83.12 42.23 82.53 42.58 87.12 42.93 88.9 43.28 87.12 43.63 86.68 43.98 89.79 44.33 87.71 44.67 87.27 45.02 89.05 45.37 87.57 45.72 86.68 46.07 83.86 46.42 84.31 46.77 83.42 47.12 83.42 47.47 86.23 47.82 83.86 48.17 85.19 48.52 87.42 48.86 90.82 49.21 91.12 49.56 90.08 49.91 89.34 50.26 88.45 50.61 88.16 50.96 86.23 51.31 82.08 51.66 82.08 52.01 85.19 52.36 82.23 52.7 81.2 53.05 82.97 53.4 84.6 53.75 87.12 54.1 86.68 54.45 87.12 54.8 84.75 55.15 86.38 55.5 87.27 55.85 85.34 56.2 88.75 56.55 85.19 56.89 85.19 57.24 88.01 57.59 88.6 57.94 88.01 58.29 89.49 58.64 91.12 58.99 90.97 59.34 91.12 59.69 91.71 60.04 91.12 60.39 91.56 60.73 89.05 61.08 87.42 61.43 84.6 61.78 85.94 62.13 84.75 62.48 85.05 62.83 84.6 63.18 83.27 63.53 84.75 63.88 80.16 64.23 78.83 64.58 75.86 64.92 74.68 65.27 80.01 65.62 82.08 65.97 85.49 66.32 82.68 66.67 84.9 67.02 84.31 67.37 83.12 67.72 81.64 68.07 78.53 68.42 81.49 68.77 79.57 69.11 79.42 69.46 80.9 69.81 81.05 70.16 82.97 70.51 82.38 70.86 84.01 71.21 84.9 71.56 84.75 71.91 86.38 72.26 85.94 72.61 85.94 72.95 87.42 73.3 89.34 73.65 89.49 74 87.86 74.35 87.42 74.7 84.31 75.05 84.9 75.4 81.64 75.75 83.71 76.1 84.45 76.45 84.31 76.8 85.34 77.14 86.08 77.49 87.27 77.84 86.68 78.19 87.86 78.54 90.38 78.89 88.16 79.24 88.16 79.59 89.19 79.94 88.31 80.29 86.97 80.64 85.34 80.98 85.19 81.33 82.23 81.68 82.53 82.03 84.45 82.38 84.6 82.73 86.82 83.08 84.45 83.43 81.79 83.78 80.6 84.13 82.38 84.48 80.75 84.83 83.86 85.17 87.12 85.52 83.86 85.87 82.82 86.22 84.31 86.57 84.9 86.92 82.38 87.27 83.86 87.62 83.86 87.97 84.01 88.32 85.64 88.67 84.75 89.02 85.05 89.36 88.6 89.71 90.53 90.06 89.05 90.41 88.16 90.76 88.6 91.11 88.01 91.46 86.08 91.81 86.53 92.16 86.53 92.51 85.05 92.86 82.23 93.2 82.38 93.55 81.79 93.9 81.49 94.25 84.01 94.6 84.16 94.95 87.71 95.3 89.64 95.65 92.01 96 91.86 96.35 90.68 96.7 87.42 97.05 84.9 97.39 86.68 97.74 87.12 98.09 90.08 98.44 91.56 98.79 90.68 99.14 89.05 99.49 90.53 99.84 90.97 100.19 94.08 100.54 90.68 100.89 92.9 101.23 93.49 101.58 92.16 101.93 92.31 102.28 94.53 102.63 97.05 102.98 93.79 103.33 96.01 103.68 97.64 104.03 98.08 104.38 97.05 104.73 94.68 105.08 94.53 105.42 95.27 105.77 95.71 106.12 96.6 106.47 99.27 106.82 96.75 107.17 93.79 107.52 91.86 107.87 90.53 108.22 85.19 108.57 83.86 108.92 84.9 109.26 84.6 109.61 85.94 109.96 82.53 110.31 82.53 110.66 81.34 111.01 81.34 111.36 79.57 111.71 82.97 112.06 83.27 112.41 82.08 112.76 83.71 113.11 84.6 113.45 83.27 113.8 85.49 114.15 86.23 114.5 82.82 114.85 82.97 115.2 83.27 115.55 79.71 115.9 79.12 116.25 81.94 116.6 81.64 116.95 78.97 117.3 78.68 117.64 80.6 117.99 81.49 118.34 81.49 118.69 81.94 119.04 83.12 119.39 79.86 119.74 79.12 120.09 80.75 120.44 82.23 120.79 83.12 121.14 81.34 121.48 83.71 121.83 86.38 122.18 88.16 122.53 89.49 122.88 89.19 123.23 88.9 123.58 88.75 123.93 87.27 124.28 87.57 124.63 89.64 124.98 88.6 125.33 85.79 125.67 86.68 126.02 86.53 126.37 86.23 126.72 78.83 127.07 75.71 127.42 77.64 127.77 80.01 128.12 77.94 128.47 77.79 128.82 77.79 129.17 77.79 129.51 76.6 129.86 76.75 130.21 78.53 130.56 80.16 130.91 81.05 131.26 79.57 131.61 77.64 131.96 78.83 132.31 79.12 132.66 79.42 133.01 80.01 133.36 78.38 133.7 78.68 134.05 76.46 134.4 74.68 134.75 76.31 135.1 77.05 135.45 80.45 135.8 78.38 136.15 77.2 136.5 78.08 136.85 78.53 137.2 76.9 137.55 76.01 137.89 72.9 138.24 73.34 138.59 76.01 138.94 73.2 139.29 69.2 139.64 68.9 139.99 70.53 140.34 72.01 140.69 72.16 141.04 74.53 141.39 74.68 141.73 74.38 142.08 73.64 142.43 74.83 142.78 71.72 143.13 70.53 143.48 70.09 143.83 70.68 144.18 67.86 144.53 66.09 144.88 65.2 145.23 67.12 145.58 66.68 145.92 68.46 146.27 70.53 146.62 72.01 146.97 72.75 147.32 76.6 147.67 77.94 148.02 76.46 148.37 78.83 148.72 76.31 149.07 76.6 149.42 77.79 149.76 80.9 150.11 81.34 150.46 81.94 150.81 83.57 151.16 83.27 151.51 81.94 151.86 83.71 152.21 80.75 152.56 83.86 152.91 87.71 153.26 84.01 153.61 83.42 153.95 82.82 154.3 84.16 154.65 84.6 155 82.82 155.35 81.2 155.7 82.08 156.05 79.86 156.4 80.75 156.75 81.05 157.1 80.75 157.45 81.2 157.79 85.49 158.14 84.01 158.49 82.23 158.84 80.9 159.19 81.49 159.54 85.05 159.89 83.71 160.24 84.01 160.59 81.49 160.94 80.9 161.29 85.19 161.64 84.75 161.98 87.86 162.33 83.86 162.68 87.71 163.03 87.86 163.38 87.27 163.73 90.68 164.08 89.94 164.43 91.42 164.78 91.12 165.13 91.42 165.48 89.79 165.83 88.16 166.17 88.01 166.52 87.27 166.87 89.94 167.22 89.94 167.57 85.79 167.92 85.05 168.27 87.12 168.62 86.97 168.97 88.31 169.32 88.75 169.67 88.16 170.01 88.31 170.36 85.05 170.71 85.05 171.06 84.45 171.41 81.79 171.76 81.34 172.11 85.34 172.46 84.6 172.81 82.97 173.16 78.68 173.51 76.6 173.86 78.08 174.2 78.83 174.55 75.57 174.9 73.49 175.25 74.83 175.6 76.6 175.95 77.49 176.3 73.34 176.65 71.27 177 70.23 177.35 67.27 177.7 66.53 178.04 63.57 178.39 66.98 178.74 68.46 179.09 67.27 179.44 67.57 179.79 66.98 180.14 67.72 180.49 67.27 180.84 69.49 181.19 68.75 181.54 67.86 181.89 62.83 182.23 61.35 182.58 62.83 182.93 67.42 183.28 65.05 183.63 67.42 183.98 67.42 184.33 68.6 184.68 68.9 185.03 71.72 185.38 72.6 185.73 73.05 186.08 73.79 186.42 73.2 186.77 74.68 187.12 72.6 187.47 68.16 187.82 66.23 188.17 63.12 188.52 64.75 188.87 68.31 189.22 70.97 189.57 71.86 189.92 70.68 190.26 72.01 190.61 71.72 190.96 72.6 191.31 69.94 191.66 69.94 192.01 66.38 192.36 64.46 192.71 63.12 193.06 62.09 193.41 61.49 193.76 61.64 194.11 65.49 194.45 65.2 194.8 66.98 195.15 68.01 195.5 69.35 195.85 69.05 196.2 72.01"/>
      </g>
      <g stroke-width="0.3" fill="#000000" fill-opacity="0.000" class="geometry" stroke-dasharray="none" stroke="#FDAE61" id="img-44374055-16">
        <path fill="none" d="M21.98,79.27 L 22.33 78.68 22.68 79.12 23.03 78.68 23.38 80.9 23.73 79.71 24.08 74.53 24.42 74.68 24.77 74.38 25.12 70.68 25.47 69.05 25.82 68.75 26.17 67.42 26.52 65.79 26.87 65.2 27.22 67.86 27.57 66.09 27.92 66.53 28.27 66.23 28.61 64.75 28.96 65.05 29.31 65.35 29.66 70.53 30.01 69.64 30.36 69.94 30.71 72.6 31.06 70.23 31.41 72.01 31.76 73.79 32.11 73.94 32.45 73.79 32.8 71.57 33.15 74.09 33.5 75.57 33.85 74.83 34.2 75.57 34.55 79.12 34.9 77.49 35.25 75.42 35.6 72.46 35.95 72.9 36.3 71.27 36.64 70.83 36.99 69.49 37.34 71.27 37.69 74.38 38.04 75.71 38.39 74.97 38.74 77.05 39.09 71.57 39.44 70.97 39.79 68.31 40.14 67.27 40.49 65.49 40.83 65.64 41.18 64.31 41.53 68.9 41.88 71.42 42.23 72.75 42.58 71.86 42.93 69.64 43.28 69.79 43.63 68.31 43.98 69.79 44.33 70.83 44.67 69.05 45.02 69.64 45.37 68.46 45.72 68.16 46.07 67.72 46.42 65.2 46.77 66.23 47.12 64.61 47.47 63.27 47.82 63.12 48.17 64.31 48.52 67.42 48.86 65.35 49.21 65.49 49.56 66.83 49.91 66.83 50.26 69.2 50.61 68.16 50.96 68.16 51.31 69.05 51.66 70.83 52.01 69.64 52.36 70.53 52.7 71.57 53.05 73.2 53.4 72.16 53.75 73.34 54.1 73.64 54.45 73.79 54.8 72.16 55.15 73.2 55.5 76.46 55.85 78.08 56.2 79.86 56.55 81.64 56.89 82.82 57.24 81.2 57.59 81.79 57.94 79.42 58.29 79.12 58.64 80.75 58.99 80.45 59.34 81.49 59.69 83.57 60.04 85.34 60.39 84.9 60.73 84.31 61.08 85.79 61.43 85.49 61.78 88.45 62.13 89.34 62.48 88.16 62.83 87.42 63.18 85.19 63.53 83.57 63.88 81.79 64.23 81.05 64.58 80.01 64.92 76.9 65.27 78.97 65.62 79.12 65.97 81.94 66.32 78.97 66.67 83.57 67.02 83.27 67.37 86.68 67.72 88.01 68.07 86.38 68.42 86.68 68.77 86.82 69.11 85.94 69.46 85.64 69.81 85.19 70.16 83.42 70.51 84.31 70.86 84.6 71.21 86.68 71.56 90.38 71.91 92.16 72.26 88.16 72.61 86.68 72.95 86.53 73.3 89.94 73.65 88.31 74 88.75 74.35 89.94 74.7 87.86 75.05 86.97 75.4 88.01 75.75 89.19 76.1 88.9 76.45 87.57 76.8 84.6 77.14 86.68 77.49 85.05 77.84 84.9 78.19 87.27 78.54 84.75 78.89 85.64 79.24 83.57 79.59 84.01 79.94 86.82 80.29 86.68 80.64 86.08 80.98 85.05 81.33 84.75 81.68 87.86 82.03 84.31 82.38 82.38 82.73 83.42 83.08 82.97 83.43 80.01 83.78 80.45 84.13 81.94 84.48 84.31 84.83 86.08 85.17 85.34 85.52 84.16 85.87 81.34 86.22 84.45 86.57 81.79 86.92 85.05 87.27 84.31 87.62 84.9 87.97 84.16 88.32 85.19 88.67 82.38 89.02 84.16 89.36 85.05 89.71 88.45 90.06 88.75 90.41 88.9 90.76 92.16 91.11 91.71 91.46 91.27 91.81 94.08 92.16 93.49 92.51 90.97 92.86 90.53 93.2 90.97 93.55 89.64 93.9 93.49 94.25 95.56 94.6 93.49 94.95 92.16 95.3 91.42 95.65 92.6 96 92.31 96.35 91.71 96.7 91.27 97.05 91.86 97.39 90.08 97.74 92.75 98.09 90.08 98.44 88.31 98.79 90.08 99.14 89.05 99.49 88.6 99.84 88.16 100.19 85.49 100.54 84.45 100.89 88.01 101.23 89.19 101.58 93.05 101.93 97.79 102.28 94.97 102.63 98.67 102.98 97.49 103.33 98.08 103.68 97.64 104.03 95.27 104.38 97.64 104.73 93.79 105.08 93.34 105.42 92.6 105.77 89.34 106.12 91.86 106.47 89.94 106.82 90.23 107.17 88.75 107.52 88.75 107.87 89.49 108.22 90.23 108.57 96.9 108.92 99.42 109.26 99.27 109.61 98.97 109.96 98.23 110.31 101.19 110.66 103.27 111.01 103.41 111.36 101.19 111.71 103.41 112.06 102.23 112.41 106.38 112.76 108.9 113.11 108.45 113.45 106.38 113.8 106.08 114.15 105.34 114.5 105.04 114.85 103.86 115.2 108.01 115.55 108.15 115.9 109.78 116.25 109.19 116.6 109.64 116.95 111.12 117.3 112.15 117.64 110.53 117.99 109.49 118.34 110.53 118.69 108.75 119.04 106.97 119.39 104.9 119.74 104.6 120.09 104.75 120.44 105.78 120.79 104.9 121.14 104.75 121.48 103.86 121.83 103.71 122.18 102.53 122.53 100.45 122.88 102.67 123.23 102.97 123.58 103.12 123.93 102.08 124.28 103.27 124.63 107.71 124.98 107.71 125.33 106.82 125.67 108.6 126.02 106.53 126.37 103.12 126.72 101.04 127.07 102.08 127.42 103.71 127.77 103.56 128.12 102.08 128.47 100.16 128.82 100.45 129.17 101.93 129.51 107.12 129.86 105.64 130.21 104.6 130.56 103.12 130.91 101.04 131.26 98.97 131.61 98.08 131.96 97.93 132.31 98.08 132.66 100.9 133.01 102.53 133.36 103.86 133.7 105.93 134.05 104.6 134.4 104.45 134.75 105.93 135.1 106.82 135.45 107.41 135.8 106.82 136.15 105.64 136.5 106.23 136.85 104.9 137.2 103.27 137.55 104.45 137.89 100.3 138.24 99.42 138.59 99.56 138.94 98.97 139.29 97.49 139.64 98.97 139.99 96.3 140.34 96.6 140.69 96.01 141.04 98.67 141.39 98.82 141.73 96.9 142.08 94.82 142.43 94.38 142.78 90.97 143.13 92.31 143.48 93.64 143.83 95.12 144.18 96.3 144.53 95.86 144.88 95.71 145.23 93.19 145.58 94.53 145.92 94.08 146.27 94.38 146.62 96.16 146.97 94.38 147.32 94.08 147.67 94.38 148.02 93.05 148.37 96.45 148.72 95.56 149.07 97.34 149.42 97.79 149.76 99.27 150.11 101.79 150.46 104.16 150.81 103.27 151.16 101.93 151.51 103.86 151.86 104.16 152.21 104.45 152.56 103.27 152.91 104.01 153.26 105.34 153.61 104.16 153.95 108.9 154.3 107.12 154.65 105.19 155 102.82 155.35 100.6 155.7 98.23 156.05 102.38 156.4 101.49 156.75 98.97 157.1 98.82 157.45 98.38 157.79 98.97 158.14 96.45 158.49 96.01 158.84 96.16 159.19 94.82 159.54 91.56 159.89 91.42 160.24 92.45 160.59 91.71 160.94 90.82 161.29 86.82 161.64 85.05 161.98 84.9 162.33 86.23 162.68 86.53 163.03 83.12 163.38 84.75 163.73 85.79 164.08 87.42 164.43 88.31 164.78 87.42 165.13 87.27 165.48 86.53 165.83 88.45 166.17 86.08 166.52 86.53 166.87 86.38 167.22 85.19 167.57 84.75 167.92 83.71 168.27 80.6 168.62 82.97 168.97 85.19 169.32 85.64 169.67 86.82 170.01 81.94 170.36 83.71 170.71 83.42 171.06 84.16 171.41 85.34 171.76 84.6 172.11 85.64 172.46 86.82 172.81 88.9 173.16 88.45 173.51 85.05 173.86 87.71 174.2 87.86 174.55 90.53 174.9 91.42 175.25 91.42 175.6 91.56 175.95 88.6 176.3 88.01 176.65 85.94 177 85.34 177.35 84.75 177.7 85.64 178.04 87.42 178.39 89.94 178.74 89.64 179.09 89.34 179.44 92.75 179.79 93.05 180.14 94.68 180.49 94.53 180.84 95.42 181.19 91.86 181.54 92.45 181.89 92.9 182.23 92.6 182.58 94.38 182.93 92.16 183.28 91.86 183.63 91.86 183.98 93.05 184.33 94.38 184.68 96.45 185.03 98.08 185.38 100.01 185.73 98.97 186.08 98.38 186.42 99.12 186.77 99.27 187.12 102.38 187.47 102.23 187.82 100.75 188.17 104.45 188.52 105.19 188.87 105.78 189.22 103.86 189.57 104.9 189.92 105.78 190.26 105.04 190.61 107.56 190.96 108.3 191.31 105.78 191.66 105.78 192.01 105.34 192.36 103.12 192.71 104.45 193.06 104.6 193.41 100.75 193.76 98.97 194.11 99.42 194.45 98.82 194.8 96.45 195.15 94.23 195.5 94.08 195.85 91.27 196.2 90.68"/>
      </g>
      <g stroke-width="0.3" fill="#000000" fill-opacity="0.000" class="geometry" stroke-dasharray="none" stroke="#F46D43" id="img-44374055-17">
        <path fill="none" d="M21.98,79.27 L 22.33 82.23 22.68 82.68 23.03 80.6 23.38 82.08 23.73 82.82 24.08 81.64 24.42 83.12 24.77 82.97 25.12 84.45 25.47 82.82 25.82 84.45 26.17 83.57 26.52 84.6 26.87 84.01 27.22 83.57 27.57 82.08 27.92 78.23 28.27 76.9 28.61 77.79 28.96 77.2 29.31 78.97 29.66 82.38 30.01 81.2 30.36 81.34 30.71 80.9 31.06 81.64 31.41 82.53 31.76 77.05 32.11 77.05 32.45 77.05 32.8 81.05 33.15 81.34 33.5 82.23 33.85 84.45 34.2 87.86 34.55 87.12 34.9 87.12 35.25 89.19 35.6 88.16 35.95 86.53 36.3 86.82 36.64 86.82 36.99 88.9 37.34 87.42 37.69 84.75 38.04 85.64 38.39 88.31 38.74 89.79 39.09 89.49 39.44 86.53 39.79 84.45 40.14 82.97 40.49 82.82 40.83 81.64 41.18 81.94 41.53 88.31 41.88 90.82 42.23 94.23 42.58 93.19 42.93 91.56 43.28 93.79 43.63 92.01 43.98 87.71 44.33 88.31 44.67 93.19 45.02 90.97 45.37 91.56 45.72 92.31 46.07 94.97 46.42 95.12 46.77 96.75 47.12 95.56 47.47 98.08 47.82 98.82 48.17 101.93 48.52 103.56 48.86 106.23 49.21 107.56 49.56 107.86 49.91 106.38 50.26 104.01 50.61 103.12 50.96 101.34 51.31 105.19 51.66 103.71 52.01 102.38 52.36 100.01 52.7 99.71 53.05 98.23 53.4 97.19 53.75 94.97 54.1 96.01 54.45 93.64 54.8 92.75 55.15 91.27 55.5 92.9 55.85 90.82 56.2 91.86 56.55 91.27 56.89 92.01 57.24 90.53 57.59 89.64 57.94 90.08 58.29 90.82 58.64 92.45 58.99 91.86 59.34 90.97 59.69 92.01 60.04 92.01 60.39 94.97 60.73 95.86 61.08 94.08 61.43 94.08 61.78 96.75 62.13 99.71 62.48 96.45 62.83 94.97 63.18 95.42 63.53 93.05 63.88 95.42 64.23 96.6 64.58 97.79 64.92 100.6 65.27 98.53 65.62 100.16 65.97 103.56 66.32 103.41 66.67 100.75 67.02 101.19 67.37 103.71 67.72 104.01 68.07 104.45 68.42 101.93 68.77 105.93 69.11 104.75 69.46 106.23 69.81 106.67 70.16 103.86 70.51 101.64 70.86 101.34 71.21 98.97 71.56 97.49 71.91 97.49 72.26 95.86 72.61 94.68 72.95 95.12 73.3 97.34 73.65 95.42 74 97.49 74.35 98.53 74.7 97.19 75.05 96.9 75.4 92.9 75.75 91.71 76.1 93.64 76.45 96.6 76.8 93.79 77.14 91.42 77.49 92.01 77.84 93.49 78.19 96.16 78.54 97.34 78.89 98.67 79.24 98.82 79.59 100.6 79.94 103.27 80.29 105.78 80.64 107.41 80.98 108.15 81.33 107.12 81.68 108.01 82.03 107.71 82.38 107.86 82.73 108.6 83.08 109.78 83.43 111.12 83.78 110.97 84.13 111.71 84.48 110.23 84.83 109.64 85.17 109.49 85.52 108.45 85.87 107.12 86.22 109.78 86.57 112.3 86.92 112.01 87.27 112.3 87.62 112.45 87.97 111.27 88.32 111.12 88.67 110.23 89.02 111.86 89.36 110.08 89.71 113.19 90.06 111.41 90.41 111.12 90.76 109.34 91.11 106.82 91.46 105.19 91.81 108.3 92.16 107.86 92.51 108.15 92.86 107.86 93.2 108.01 93.55 107.71 93.9 106.67 94.25 107.56 94.6 108.01 94.95 109.04 95.3 110.82 95.65 113.04 96 112.15 96.35 111.71 96.7 110.38 97.05 112.15 97.39 113.49 97.74 110.82 98.09 109.49 98.44 109.78 98.79 110.82 99.14 109.93 99.49 109.34 99.84 109.19 100.19 105.04 100.54 104.6 100.89 102.97 101.23 103.41 101.58 101.79 101.93 101.19 102.28 102.38 102.63 104.45 102.98 103.86 103.33 103.41 103.68 104.01 104.03 100.01 104.38 100.9 104.73 99.42 105.08 103.86 105.42 102.53 105.77 102.97 106.12 102.97 106.47 104.45 106.82 102.38 107.17 101.34 107.52 101.79 107.87 102.53 108.22 104.16 108.57 105.19 108.92 105.64 109.26 102.82 109.61 98.82 109.96 98.53 110.31 95.71 110.66 95.56 111.01 93.93 111.36 91.56 111.71 91.71 112.06 90.53 112.41 88.31 112.76 90.53 113.11 87.27 113.45 89.34 113.8 91.86 114.15 90.08 114.5 88.6 114.85 89.49 115.2 85.94 115.55 84.45 115.9 84.16 116.25 86.08 116.6 84.01 116.95 85.94 117.3 83.71 117.64 84.16 117.99 79.86 118.34 81.94 118.69 81.64 119.04 82.23 119.39 85.49 119.74 90.53 120.09 90.23 120.44 86.68 120.79 87.71 121.14 91.27 121.48 92.01 121.83 92.01 122.18 91.86 122.53 91.86 122.88 93.05 123.23 90.82 123.58 91.56 123.93 90.97 124.28 89.94 124.63 92.6 124.98 93.19 125.33 89.94 125.67 89.19 126.02 87.27 126.37 86.23 126.72 87.86 127.07 87.57 127.42 87.71 127.77 88.31 128.12 87.57 128.47 87.42 128.82 87.12 129.17 89.05 129.51 89.49 129.86 87.57 130.21 87.86 130.56 82.82 130.91 84.45 131.26 81.34 131.61 82.68 131.96 80.9 132.31 81.94 132.66 80.45 133.01 81.49 133.36 80.01 133.7 80.6 134.05 77.64 134.4 75.42 134.75 75.57 135.1 74.53 135.45 75.42 135.8 77.64 136.15 76.6 136.5 74.38 136.85 72.75 137.2 69.35 137.55 71.86 137.89 69.94 138.24 68.46 138.59 72.6 138.94 77.05 139.29 80.31 139.64 82.23 139.99 84.01 140.34 82.68 140.69 85.19 141.04 84.01 141.39 84.6 141.73 82.53 142.08 84.45 142.43 86.82 142.78 84.75 143.13 81.79 143.48 84.45 143.83 84.45 144.18 83.12 144.53 84.01 144.88 81.64 145.23 83.27 145.58 81.64 145.92 76.75 146.27 75.86 146.62 80.31 146.97 83.71 147.32 83.86 147.67 84.16 148.02 85.19 148.37 86.23 148.72 86.08 149.07 81.64 149.42 82.08 149.76 84.9 150.11 84.75 150.46 83.27 150.81 80.9 151.16 82.82 151.51 82.68 151.86 81.79 152.21 85.19 152.56 86.08 152.91 86.82 153.26 88.31 153.61 86.23 153.95 84.9 154.3 85.94 154.65 85.19 155 82.08 155.35 84.75 155.7 84.16 156.05 85.79 156.4 83.42 156.75 83.86 157.1 81.79 157.45 80.6 157.79 84.75 158.14 87.12 158.49 84.16 158.84 84.9 159.19 88.01 159.54 90.82 159.89 87.42 160.24 88.01 160.59 87.12 160.94 87.42 161.29 85.64 161.64 82.68 161.98 81.94 162.33 83.42 162.68 82.97 163.03 82.38 163.38 83.57 163.73 82.08 164.08 79.71 164.43 79.71 164.78 81.64 165.13 81.2 165.48 79.57 165.83 78.68 166.17 81.2 166.52 80.6 166.87 78.23 167.22 78.38 167.57 76.01 167.92 75.12 168.27 75.27 168.62 77.05 168.97 74.97 169.32 75.71 169.67 72.46 170.01 73.34 170.36 72.75 170.71 70.68 171.06 70.09 171.41 70.09 171.76 70.97 172.11 71.57 172.46 71.42 172.81 70.53 173.16 65.35 173.51 66.53 173.86 65.94 174.2 69.94 174.55 70.83 174.9 71.57 175.25 71.42 175.6 72.01 175.95 72.31 176.3 73.2 176.65 75.71 177 73.2 177.35 73.79 177.7 74.83 178.04 78.97 178.39 78.68 178.74 79.27 179.09 81.34 179.44 83.57 179.79 84.45 180.14 84.6 180.49 84.6 180.84 84.16 181.19 88.16 181.54 88.01 181.89 89.19 182.23 87.71 182.58 86.38 182.93 85.49 183.28 89.79 183.63 89.64 183.98 86.53 184.33 87.42 184.68 85.05 185.03 85.34 185.38 86.53 185.73 88.45 186.08 93.79 186.42 97.64 186.77 94.08 187.12 94.68 187.47 94.23 187.82 90.82 188.17 91.12 188.52 92.16 188.87 87.86 189.22 84.75 189.57 84.45 189.92 85.49 190.26 88.16 190.61 91.27 190.96 93.19 191.31 96.01 191.66 95.56 192.01 92.9 192.36 91.12 192.71 93.34 193.06 95.86 193.41 95.12 193.76 96.75 194.11 96.45 194.45 96.16 194.8 94.38 195.15 94.53 195.5 94.38 195.85 95.27 196.2 94.38"/>
      </g>
      <g stroke-width="0.3" fill="#000000" fill-opacity="0.000" class="geometry" stroke-dasharray="none" stroke="#D53E4F" id="img-44374055-18">
        <path fill="none" d="M21.98,79.27 L 22.33 81.64 22.68 81.49 23.03 78.53 23.38 76.75 23.73 77.34 24.08 75.57 24.42 76.46 24.77 74.97 25.12 76.75 25.47 74.09 25.82 74.68 26.17 75.86 26.52 76.75 26.87 77.94 27.22 79.57 27.57 82.53 27.92 83.12 28.27 84.75 28.61 84.31 28.96 85.64 29.31 86.38 29.66 86.23 30.01 88.16 30.36 87.42 30.71 87.42 31.06 86.53 31.41 87.12 31.76 86.53 32.11 86.23 32.45 84.6 32.8 86.23 33.15 84.75 33.5 79.42 33.85 81.94 34.2 84.31 34.55 83.27 34.9 84.01 35.25 82.08 35.6 83.42 35.95 82.38 36.3 83.71 36.64 87.71 36.99 87.86 37.34 86.23 37.69 86.08 38.04 85.94 38.39 88.6 38.74 86.68 39.09 87.12 39.44 88.31 39.79 89.79 40.14 90.97 40.49 94.08 40.83 94.68 41.18 94.53 41.53 94.23 41.88 93.79 42.23 93.34 42.58 91.27 42.93 89.19 43.28 87.86 43.63 85.64 43.98 85.19 44.33 84.01 44.67 86.68 45.02 87.42 45.37 90.97 45.72 90.97 46.07 93.49 46.42 90.68 46.77 88.6 47.12 87.42 47.47 86.82 47.82 88.01 48.17 87.42 48.52 86.23 48.86 88.16 49.21 85.64 49.56 87.12 49.91 84.9 50.26 83.86 50.61 87.57 50.96 88.6 51.31 88.01 51.66 89.05 52.01 88.6 52.36 92.6 52.7 92.01 53.05 91.42 53.4 92.75 53.75 95.42 54.1 91.56 54.45 88.75 54.8 87.42 55.15 87.71 55.5 88.9 55.85 89.79 56.2 93.64 56.55 95.12 56.89 94.97 57.24 95.12 57.59 94.82 57.94 95.71 58.29 97.93 58.64 96.16 58.99 96.45 59.34 96.45 59.69 94.53 60.04 94.23 60.39 91.86 60.73 92.75 61.08 92.01 61.43 91.42 61.78 91.27 62.13 95.86 62.48 91.56 62.83 92.6 63.18 93.49 63.53 93.93 63.88 93.49 64.23 87.57 64.58 85.19 64.92 89.34 65.27 90.08 65.62 89.49 65.97 90.53 66.32 89.19 66.67 89.49 67.02 89.49 67.37 91.42 67.72 93.19 68.07 91.12 68.42 91.71 68.77 89.05 69.11 83.71 69.46 83.86 69.81 82.23 70.16 83.27 70.51 82.68 70.86 80.75 71.21 82.08 71.56 78.23 71.91 78.53 72.26 77.64 72.61 75.71 72.95 75.57 73.3 76.9 73.65 76.75 74 79.71 74.35 81.94 74.7 85.64 75.05 85.05 75.4 85.49 75.75 84.01 76.1 88.01 76.45 89.79 76.8 88.01 77.14 90.08 77.49 88.9 77.84 88.9 78.19 90.38 78.54 94.23 78.89 96.75 79.24 94.08 79.59 92.01 79.94 91.56 80.29 89.05 80.64 91.86 80.98 92.45 81.33 92.31 81.68 90.68 82.03 89.79 82.38 90.82 82.73 90.82 83.08 89.05 83.43 85.49 83.78 86.38 84.13 84.16 84.48 84.31 84.83 83.71 85.17 83.86 85.52 85.94 85.87 83.71 86.22 83.86 86.57 85.05 86.92 84.31 87.27 80.6 87.62 79.71 87.97 83.57 88.32 85.79 88.67 88.31 89.02 85.94 89.36 85.49 89.71 83.86 90.06 84.45 90.41 83.12 90.76 82.97 91.11 84.45 91.46 79.27 91.81 78.83 92.16 79.71 92.51 80.45 92.86 81.05 93.2 79.27 93.55 80.31 93.9 76.46 94.25 74.83 94.6 76.75 94.95 74.97 95.3 76.75 95.65 79.12 96 80.75 96.35 79.42 96.7 81.94 97.05 79.57 97.39 78.23 97.74 78.23 98.09 77.64 98.44 77.64 98.79 75.27 99.14 76.6 99.49 74.53 99.84 72.6 100.19 68.75 100.54 68.31 100.89 68.16 101.23 66.98 101.58 67.12 101.93 68.46 102.28 70.83 102.63 68.9 102.98 72.16 103.33 71.42 103.68 72.01 104.03 70.83 104.38 69.05 104.73 69.35 105.08 70.83 105.42 68.75 105.77 71.27 106.12 71.27 106.47 70.97 106.82 72.31 107.17 73.94 107.52 74.38 107.87 72.6 108.22 74.68 108.57 74.83 108.92 75.42 109.26 75.27 109.61 75.57 109.96 75.86 110.31 75.42 110.66 77.94 111.01 79.12 111.36 76.16 111.71 75.71 112.06 75.12 112.41 75.42 112.76 75.27 113.11 69.94 113.45 67.86 113.8 68.01 114.15 67.42 114.5 66.68 114.85 66.09 115.2 69.2 115.55 68.75 115.9 69.94 116.25 66.83 116.6 65.79 116.95 65.94 117.3 63.42 117.64 63.86 117.99 58.83 118.34 57.64 118.69 58.09 119.04 61.64 119.39 60.31 119.74 58.53 120.09 56.46 120.44 56.75 120.79 58.38 121.14 58.24 121.48 58.83 121.83 59.72 122.18 59.86 122.53 58.68 122.88 55.87 123.23 56.75 123.58 54.98 123.93 53.2 124.28 52.61 124.63 50.68 124.98 48.16 125.33 50.83 125.67 45.5 126.02 46.68 126.37 42.39 126.72 42.68 127.07 41.64 127.42 41.79 127.77 41.79 128.12 42.68 128.47 41.35 128.82 41.2 129.17 39.72 129.51 41.64 129.86 40.76 130.21 42.24 130.56 42.83 130.91 42.98 131.26 43.13 131.61 44.46 131.96 44.46 132.31 42.39 132.66 42.39 133.01 41.64 133.36 40.46 133.7 41.05 134.05 41.64 134.4 43.42 134.75 43.42 135.1 44.02 135.45 45.2 135.8 44.46 136.15 42.98 136.5 44.61 136.85 42.98 137.2 42.53 137.55 43.42 137.89 44.9 138.24 41.94 138.59 39.87 138.94 40.76 139.29 39.27 139.64 39.27 139.99 39.87 140.34 40.02 140.69 38.09 141.04 37.94 141.39 38.53 141.73 38.39 142.08 37.94 142.43 37.35 142.78 39.72 143.13 40.9 143.48 40.46 143.83 42.09 144.18 43.57 144.53 42.98 144.88 40.46 145.23 43.72 145.58 43.87 145.92 42.98 146.27 43.42 146.62 43.87 146.97 44.31 147.32 45.05 147.67 45.2 148.02 45.79 148.37 47.57 148.72 48.61 149.07 50.68 149.42 49.35 149.76 50.98 150.11 51.57 150.46 51.72 150.81 52.46 151.16 53.2 151.51 50.24 151.86 50.83 152.21 53.64 152.56 56.75 152.91 54.38 153.26 55.42 153.61 57.64 153.95 58.98 154.3 58.98 154.65 56.75 155 58.98 155.35 60.61 155.7 58.24 156.05 56.75 156.4 54.98 156.75 53.5 157.1 56.31 157.45 57.35 157.79 54.09 158.14 53.79 158.49 52.46 158.84 51.42 159.19 53.94 159.54 52.61 159.89 54.09 160.24 53.79 160.59 52.61 160.94 54.53 161.29 53.94 161.64 53.05 161.98 51.13 162.33 50.24 162.68 52.46 163.03 50.83 163.38 49.5 163.73 48.31 164.08 50.98 164.43 49.94 164.78 51.27 165.13 50.53 165.48 51.42 165.83 53.94 166.17 50.83 166.52 50.98 166.87 49.64 167.22 47.27 167.57 46.98 167.92 46.24 168.27 49.05 168.62 49.79 168.97 51.57 169.32 54.24 169.67 51.27 170.01 52.16 170.36 52.01 170.71 51.57 171.06 48.9 171.41 47.57 171.76 48.01 172.11 47.27 172.46 49.94 172.81 48.61 173.16 45.2 173.51 43.27 173.86 44.46 174.2 45.35 174.55 46.98 174.9 48.61 175.25 45.5 175.6 47.13 175.95 49.2 176.3 49.5 176.65 48.76 177 51.57 177.35 49.64 177.7 46.53 178.04 46.68 178.39 48.46 178.74 49.05 179.09 48.01 179.44 48.46 179.79 48.76 180.14 49.5 180.49 50.38 180.84 49.05 181.19 49.35 181.54 47.13 181.89 46.83 182.23 42.24 182.58 41.79 182.93 42.53 183.28 41.35 183.63 40.46 183.98 42.83 184.33 42.98 184.68 41.35 185.03 39.42 185.38 40.9 185.73 41.05 186.08 42.53 186.42 44.46 186.77 46.39 187.12 46.09 187.47 46.98 187.82 44.61 188.17 44.9 188.52 46.09 188.87 46.39 189.22 45.5 189.57 45.35 189.92 43.13 190.26 41.79 190.61 43.27 190.96 42.39 191.31 39.42 191.66 40.76 192.01 40.9 192.36 42.24 192.71 39.87 193.06 41.05 193.41 39.87 193.76 38.53 194.11 38.68 194.45 39.87 194.8 42.39 195.15 42.24 195.5 41.05 195.85 43.13 196.2 43.27"/>
      </g>
      <g stroke-width="0.3" fill="#000000" fill-opacity="0.000" class="geometry" stroke-dasharray="none" stroke="#9E0142" id="img-44374055-19">
        <path fill="none" d="M21.98,79.27 L 22.33 79.71 22.68 77.34 23.03 79.12 23.38 77.2 23.73 74.97 24.08 73.05 24.42 73.2 24.77 73.64 25.12 74.23 25.47 75.57 25.82 74.68 26.17 72.75 26.52 71.72 26.87 70.83 27.22 71.12 27.57 73.64 27.92 74.68 28.27 74.68 28.61 75.12 28.96 71.27 29.31 72.46 29.66 75.42 30.01 77.49 30.36 77.64 30.71 74.38 31.06 73.94 31.41 71.57 31.76 72.16 32.11 75.42 32.45 75.57 32.8 73.64 33.15 73.2 33.5 71.72 33.85 72.01 34.2 72.46 34.55 74.53 34.9 74.38 35.25 71.86 35.6 70.38 35.95 68.75 36.3 67.12 36.64 69.05 36.99 70.97 37.34 73.34 37.69 72.9 38.04 72.01 38.39 74.68 38.74 72.31 39.09 75.12 39.44 76.01 39.79 78.97 40.14 76.6 40.49 76.31 40.83 73.64 41.18 70.09 41.53 70.38 41.88 73.94 42.23 76.16 42.58 76.75 42.93 77.2 43.28 74.83 43.63 78.83 43.98 80.9 44.33 83.12 44.67 83.71 45.02 82.23 45.37 80.6 45.72 82.08 46.07 81.2 46.42 79.57 46.77 77.94 47.12 74.23 47.47 74.38 47.82 73.49 48.17 74.23 48.52 76.75 48.86 76.75 49.21 75.86 49.56 74.83 49.91 78.23 50.26 74.53 50.61 75.12 50.96 73.2 51.31 74.23 51.66 75.27 52.01 73.64 52.36 72.6 52.7 73.2 53.05 71.27 53.4 72.6 53.75 73.79 54.1 72.9 54.45 75.57 54.8 78.83 55.15 75.27 55.5 75.27 55.85 75.86 56.2 78.68 56.55 80.6 56.89 79.71 57.24 80.75 57.59 81.34 57.94 84.75 58.29 85.64 58.64 83.12 58.99 80.45 59.34 80.6 59.69 80.6 60.04 81.64 60.39 80.01 60.73 77.79 61.08 78.83 61.43 76.46 61.78 73.49 62.13 75.42 62.48 80.01 62.83 79.27 63.18 80.9 63.53 82.97 63.88 83.71 64.23 80.01 64.58 81.64 64.92 78.83 65.27 77.05 65.62 74.09 65.97 76.75 66.32 73.34 66.67 73.94 67.02 73.94 67.37 74.53 67.72 74.38 68.07 72.6 68.42 74.38 68.77 73.2 69.11 74.38 69.46 76.16 69.81 76.9 70.16 75.57 70.51 76.75 70.86 76.75 71.21 73.94 71.56 76.46 71.91 77.64 72.26 75.57 72.61 72.16 72.95 72.31 73.3 71.27 73.65 69.2 74 71.12 74.35 69.05 74.7 66.98 75.05 65.64 75.4 66.09 75.75 68.9 76.1 70.09 76.45 69.64 76.8 68.75 77.14 66.38 77.49 66.53 77.84 62.53 78.19 62.53 78.54 61.79 78.89 64.9 79.24 61.05 79.59 64.16 79.94 62.83 80.29 62.68 80.64 62.23 80.98 62.23 81.33 60.61 81.68 59.72 82.03 58.98 82.38 57.05 82.73 56.46 83.08 57.79 83.43 56.9 83.78 55.87 84.13 54.09 84.48 53.2 84.83 53.79 85.17 52.31 85.52 51.87 85.87 50.98 86.22 49.64 86.57 47.87 86.92 45.2 87.27 45.05 87.62 45.5 87.97 45.64 88.32 44.9 88.67 46.98 89.02 46.98 89.36 47.42 89.71 48.31 90.06 48.46 90.41 47.87 90.76 47.87 91.11 48.9 91.46 51.13 91.81 53.5 92.16 53.64 92.51 54.68 92.86 55.72 93.2 54.38 93.55 52.46 93.9 52.16 94.25 52.9 94.6 53.2 94.95 52.75 95.3 55.57 95.65 57.94 96 60.61 96.35 58.68 96.7 58.53 97.05 58.24 97.39 55.87 97.74 55.87 98.09 58.98 98.44 59.12 98.79 59.12 99.14 56.75 99.49 55.72 99.84 57.79 100.19 54.68 100.54 58.68 100.89 60.46 101.23 62.98 101.58 63.12 101.93 65.49 102.28 61.49 102.63 58.83 102.98 58.38 103.33 59.72 103.68 58.38 104.03 60.31 104.38 63.12 104.73 62.53 105.08 65.35 105.42 63.42 105.77 64.31 106.12 60.9 106.47 60.61 106.82 61.35 107.17 61.49 107.52 64.16 107.87 65.94 108.22 62.53 108.57 61.64 108.92 59.27 109.26 60.46 109.61 58.98 109.96 62.53 110.31 62.38 110.66 58.83 111.01 60.01 111.36 63.12 111.71 61.35 112.06 62.68 112.41 60.61 112.76 61.35 113.11 59.72 113.45 61.05 113.8 61.64 114.15 59.27 114.5 57.79 114.85 56.9 115.2 59.27 115.55 58.68 115.9 56.01 116.25 58.53 116.6 58.68 116.95 56.75 117.3 57.49 117.64 59.72 117.99 57.64 118.34 57.49 118.69 59.72 119.04 57.64 119.39 57.05 119.74 57.64 120.09 59.27 120.44 54.38 120.79 55.87 121.14 56.16 121.48 57.49 121.83 55.87 122.18 54.83 122.53 50.24 122.88 51.87 123.23 50.68 123.58 50.53 123.93 53.2 124.28 53.2 124.63 51.72 124.98 55.87 125.33 56.31 125.67 56.01 126.02 53.79 126.37 54.83 126.72 55.57 127.07 52.75 127.42 54.83 127.77 53.5 128.12 53.5 128.47 56.01 128.82 56.31 129.17 56.61 129.51 58.09 129.86 59.86 130.21 58.68 130.56 57.79 130.91 57.49 131.26 55.57 131.61 53.64 131.96 55.27 132.31 57.2 132.66 59.57 133.01 60.9 133.36 64.31 133.7 63.72 134.05 60.9 134.4 60.61 134.75 62.09 135.1 60.46 135.45 66.83 135.8 69.64 136.15 70.83 136.5 74.23 136.85 77.49 137.2 75.71 137.55 75.71 137.89 76.01 138.24 74.97 138.59 75.71 138.94 73.94 139.29 74.09 139.64 73.79 139.99 74.68 140.34 75.27 140.69 76.75 141.04 78.83 141.39 77.94 141.73 76.46 142.08 75.86 142.43 76.6 142.78 80.9 143.13 78.53 143.48 77.05 143.83 79.86 144.18 80.31 144.53 77.64 144.88 76.16 145.23 75.71 145.58 77.49 145.92 77.94 146.27 69.49 146.62 69.35 146.97 73.94 147.32 74.68 147.67 73.2 148.02 76.01 148.37 78.38 148.72 78.97 149.07 79.42 149.42 79.12 149.76 77.05 150.11 80.75 150.46 81.49 150.81 81.79 151.16 80.9 151.51 82.38 151.86 80.01 152.21 81.49 152.56 78.83 152.91 79.42 153.26 76.9 153.61 77.05 153.95 76.46 154.3 74.83 154.65 73.79 155 72.6 155.35 73.05 155.7 72.31 156.05 69.2 156.4 69.2 156.75 69.64 157.1 68.31 157.45 69.79 157.79 71.27 158.14 73.2 158.49 73.64 158.84 71.86 159.19 72.9 159.54 74.68 159.89 76.01 160.24 75.27 160.59 78.38 160.94 82.53 161.29 78.83 161.64 81.64 161.98 80.75 162.33 78.23 162.68 76.9 163.03 77.79 163.38 74.38 163.73 74.53 164.08 75.42 164.43 73.49 164.78 71.57 165.13 74.68 165.48 74.53 165.83 74.97 166.17 75.27 166.52 75.57 166.87 74.38 167.22 74.23 167.57 74.23 167.92 72.6 168.27 72.6 168.62 69.2 168.97 72.16 169.32 69.79 169.67 69.49 170.01 70.09 170.36 69.49 170.71 69.94 171.06 70.68 171.41 70.09 171.76 68.75 172.11 68.75 172.46 67.72 172.81 67.12 173.16 64.9 173.51 67.12 173.86 67.86 174.2 67.27 174.55 69.05 174.9 64.16 175.25 60.31 175.6 60.01 175.95 61.49 176.3 61.79 176.65 60.46 177 60.01 177.35 61.79 177.7 62.09 178.04 62.83 178.39 64.9 178.74 66.83 179.09 68.46 179.44 67.57 179.79 66.09 180.14 62.83 180.49 59.86 180.84 61.35 181.19 63.57 181.54 63.86 181.89 62.09 182.23 58.38 182.58 59.12 182.93 60.61 183.28 58.24 183.63 63.42 183.98 63.57 184.33 64.31 184.68 62.38 185.03 61.35 185.38 64.46 185.73 64.16 186.08 63.27 186.42 63.27 186.77 66.68 187.12 66.38 187.47 67.57 187.82 68.16 188.17 73.05 188.52 72.75 188.87 71.27 189.22 69.35 189.57 69.49 189.92 69.05 190.26 68.31 190.61 69.64 190.96 70.23 191.31 68.9 191.66 68.6 192.01 65.35 192.36 68.01 192.71 68.31 193.06 71.57 193.41 71.72 193.76 70.97 194.11 66.98 194.45 62.09 194.8 64.9 195.15 64.75 195.5 68.46 195.85 69.64 196.2 73.64"/>
      </g>
    </g>
  </g>
</g>
  <g class="guide ylabels" font-size="2.82" font-family="'PT Sans Caption','Helvetica Neue','Helvetica',sans-serif" fill="#000000" id="img-44374055-20">
    <text x="18.63" y="131.11" text-anchor="end" dy="0.35em">0</text>
    <text x="18.63" y="101.49" text-anchor="end" dy="0.35em">200</text>
    <text x="18.63" y="71.86" text-anchor="end" dy="0.35em">400</text>
    <text x="18.63" y="42.24" text-anchor="end" dy="0.35em">600</text>
    <text x="18.63" y="12.61" text-anchor="end" dy="0.35em">800</text>
  </g>
  <g font-size="3.88" font-family="'PT Sans','Helvetica Neue','Helvetica',sans-serif" fill="#000000" stroke="#000000" stroke-opacity="0.000" id="img-44374055-21">
    <text x="8.81" y="69.86" text-anchor="middle" dy="0.35em" transform="rotate(-90, 8.81, 71.86)">population size</text>
  </g>
  <g font-size="3.88" font-family="'PT Sans','Helvetica Neue','Helvetica',sans-serif" fill="#000000" stroke="#000000" stroke-opacity="0.000" id="img-44374055-22">
    <text x="108.92" y="5" text-anchor="middle" dy="0.6em">genetic drift with mutationrate  = 0.001 </text>
  </g>
</g>
<defs>
  <clipPath id="img-44374055-4">
  <path d="M19.63,10.61 L 198.2 10.61 198.2 133.11 19.63 133.11" />
</clipPath>
</defs>
</svg>
