<?xml version="1.0" encoding="UTF-8"?>
<svg xmlns="http://www.w3.org/2000/svg"
     xmlns:xlink="http://www.w3.org/1999/xlink"
     xmlns:gadfly="http://www.gadflyjl.org/ns"
     version="1.2"
     width="203.2mm" height="152.4mm" viewBox="0 0 203.2 152.4"
     stroke="none"
     fill="#000000"
     stroke-width="0.3"
     font-size="3.88"
>
<g class="plotroot xscalable yscalable" id="img-e317d808-1">
  <g font-size="3.88" font-family="'PT Sans','Helvetica Neue','Helvetica',sans-serif" fill="#000000" stroke="#000000" stroke-opacity="0.000" id="img-e317d808-2">
    <text x="108.92" y="140.79" text-anchor="middle" dy="0.6em">generation number</text>
  </g>
  <g class="guide xlabels" font-size="2.82" font-family="'PT Sans Caption','Helvetica Neue','Helvetica',sans-serif" fill="#000000" id="img-e317d808-3">
    <text x="21.63" y="134.11" text-anchor="middle" dy="0.6em">0</text>
    <text x="56.55" y="134.11" text-anchor="middle" dy="0.6em">100</text>
    <text x="91.46" y="134.11" text-anchor="middle" dy="0.6em">200</text>
    <text x="126.37" y="134.11" text-anchor="middle" dy="0.6em">300</text>
    <text x="161.29" y="134.11" text-anchor="middle" dy="0.6em">400</text>
    <text x="196.2" y="134.11" text-anchor="middle" dy="0.6em">500</text>
  </g>
<g clip-path="url(#img-e317d808-4)">
  <g id="img-e317d808-5">
    <g pointer-events="visible" opacity="1" fill="#FFFFFF" stroke="#000000" stroke-opacity="0.000" class="guide background" id="img-e317d808-6">
      <rect x="19.63" y="10.61" width="178.57" height="122.5"/>
    </g>
    <g class="guide ygridlines xfixed" stroke-dasharray="0.5,0.5" stroke-width="0.2" stroke="#808080" id="img-e317d808-7">
      <path fill="none" d="M19.63,131.11 L 198.2 131.11"/>
      <path fill="none" d="M19.63,101.49 L 198.2 101.49"/>
      <path fill="none" d="M19.63,71.86 L 198.2 71.86"/>
      <path fill="none" d="M19.63,42.24 L 198.2 42.24"/>
      <path fill="none" d="M19.63,12.61 L 198.2 12.61"/>
    </g>
    <g class="guide xgridlines yfixed" stroke-dasharray="0.5,0.5" stroke-width="0.2" stroke="#808080" id="img-e317d808-8">
      <path fill="none" d="M21.63,10.61 L 21.63 133.11"/>
      <path fill="none" d="M56.55,10.61 L 56.55 133.11"/>
      <path fill="none" d="M91.46,10.61 L 91.46 133.11"/>
      <path fill="none" d="M126.37,10.61 L 126.37 133.11"/>
      <path fill="none" d="M161.29,10.61 L 161.29 133.11"/>
      <path fill="none" d="M196.2,10.61 L 196.2 133.11"/>
    </g>
    <g class="plotpanel" id="img-e317d808-9">
      <g stroke-width="0.3" fill="#000000" fill-opacity="0.000" class="geometry" stroke-dasharray="none" stroke="#3288BD" id="img-e317d808-10">
        <path fill="none" d="M21.98,79.27 L 22.33 77.64 22.68 79.71 23.03 81.2 23.38 79.86 23.73 77.94 24.08 78.08 24.42 77.2 24.77 74.97 25.12 73.05 25.47 71.57 25.82 72.16 26.17 73.2 26.52 73.94 26.87 74.23 27.22 73.2 27.57 70.97 27.92 70.09 28.27 70.23 28.61 69.79 28.96 69.79 29.31 71.12 29.66 64.75 30.01 68.31 30.36 71.12 30.71 73.05 31.06 71.86 31.41 71.42 31.76 69.79 32.11 70.68 32.45 68.01 32.8 68.6 33.15 67.12 33.5 63.86 33.85 65.64 34.2 66.68 34.55 65.64 34.9 69.35 35.25 72.31 35.6 76.16 35.95 75.27 36.3 73.34 36.64 71.57 36.99 73.2 37.34 74.38 37.69 77.05 38.04 74.23 38.39 72.16 38.74 72.6 39.09 72.75 39.44 73.64 39.79 73.79 40.14 69.35 40.49 69.64 40.83 70.23 41.18 71.57 41.53 70.97 41.88 71.42 42.23 72.6 42.58 71.57 42.93 72.9 43.28 76.6 43.63 78.83 43.98 79.27 44.33 81.05 44.67 85.05 45.02 87.12 45.37 85.34 45.72 83.12 46.07 83.71 46.42 77.94 46.77 79.86 47.12 77.2 47.47 77.05 47.82 76.46 48.17 75.27 48.52 72.9 48.86 72.75 49.21 70.83 49.56 67.42 49.91 69.2 50.26 69.2 50.61 70.53 50.96 72.75 51.31 70.53 51.66 67.27 52.01 67.72 52.36 66.83 52.7 67.72 53.05 69.64 53.4 69.79 53.75 72.6 54.1 75.12 54.45 76.75 54.8 76.46 55.15 76.31 55.5 76.9 55.85 75.86 56.2 79.42 56.55 77.94 56.89 78.38 57.24 78.08 57.59 75.42 57.94 76.01 58.29 72.9 58.64 71.57 58.99 69.79 59.34 70.09 59.69 69.2 60.04 71.42 60.39 74.53 60.73 72.16 61.08 70.97 61.43 70.68 61.78 68.01 62.13 67.27 62.48 65.49 62.83 63.27 63.18 61.49 63.53 64.61 63.88 64.9 64.23 66.09 64.58 63.57 64.92 61.94 65.27 60.75 65.62 61.64 65.97 61.35 66.32 60.9 66.67 62.68 67.02 63.42 67.37 61.35 67.72 60.75 68.07 60.46 68.42 59.57 68.77 58.53 69.11 58.53 69.46 58.68 69.81 55.12 70.16 56.61 70.51 59.27 70.86 57.2 71.21 57.05 71.56 55.72 71.91 56.01 72.26 56.9 72.61 55.12 72.95 54.83 73.3 54.53 73.65 54.68 74 52.61 74.35 52.75 74.7 52.75 75.05 48.9 75.4 49.05 75.75 49.5 76.1 48.61 76.45 49.5 76.8 48.16 77.14 51.13 77.49 51.13 77.84 47.87 78.19 46.09 78.54 47.42 78.89 47.57 79.24 49.94 79.59 51.13 79.94 53.2 80.29 51.57 80.64 55.27 80.98 56.61 81.33 56.31 81.68 55.42 82.03 56.9 82.38 58.68 82.73 56.75 83.08 59.12 83.43 57.79 83.78 56.61 84.13 58.24 84.48 55.42 84.83 57.94 85.17 56.01 85.52 57.94 85.87 57.94 86.22 55.12 86.57 55.42 86.92 53.35 87.27 51.13 87.62 51.27 87.97 51.87 88.32 54.83 88.67 54.09 89.02 53.79 89.36 55.87 89.71 56.61 90.06 56.16 90.41 54.98 90.76 53.05 91.11 50.98 91.46 50.09 91.81 53.64 92.16 53.35 92.51 51.87 92.86 50.68 93.2 51.27 93.55 52.9 93.9 50.53 94.25 48.46 94.6 46.09 94.95 48.76 95.3 48.01 95.65 49.79 96 47.13 96.35 48.16 96.7 49.94 97.05 48.61 97.39 49.94 97.74 48.9 98.09 49.05 98.44 50.83 98.79 52.9 99.14 50.24 99.49 47.72 99.84 47.27 100.19 49.79 100.54 48.31 100.89 45.5 101.23 46.39 101.58 45.64 101.93 46.09 102.28 46.83 102.63 42.39 102.98 41.64 103.33 43.42 103.68 41.94 104.03 40.16 104.38 38.68 104.73 38.98 105.08 37.94 105.42 39.72 105.77 41.2 106.12 39.42 106.47 41.35 106.82 42.98 107.17 40.61 107.52 40.02 107.87 39.13 108.22 38.68 108.57 39.42 108.92 39.72 109.26 41.35 109.61 39.42 109.96 39.42 110.31 37.79 110.66 37.2 111.01 35.42 111.36 36.46 111.71 37.2 112.06 36.16 112.41 38.68 112.76 38.83 113.11 39.87 113.45 40.9 113.8 43.57 114.15 43.87 114.5 44.02 114.85 44.9 115.2 45.2 115.55 44.16 115.9 41.79 116.25 41.79 116.6 42.83 116.95 42.83 117.3 41.94 117.64 41.05 117.99 40.46 118.34 40.16 118.69 39.72 119.04 39.57 119.39 38.09 119.74 36.9 120.09 38.09 120.44 39.57 120.79 40.61 121.14 41.05 121.48 41.2 121.83 41.79 122.18 41.79 122.53 42.24 122.88 42.68 123.23 40.9 123.58 40.31 123.93 42.83 124.28 41.35 124.63 41.94 124.98 42.83 125.33 42.98 125.67 41.94 126.02 41.05 126.37 42.24 126.72 45.35 127.07 41.05 127.42 38.68 127.77 37.79 128.12 38.39 128.47 37.65 128.82 34.98 129.17 35.42 129.51 34.98 129.86 36.76 130.21 35.28 130.56 35.72 130.91 35.13 131.26 34.83 131.61 36.76 131.96 36.9 132.31 36.61 132.66 36.46 133.01 38.24 133.36 38.09 133.7 36.9 134.05 37.05 134.4 37.35 134.75 37.94 135.1 40.9 135.45 39.72 135.8 41.64 136.15 41.94 136.5 41.79 136.85 42.39 137.2 43.42 137.55 43.87 137.89 45.2 138.24 46.83 138.59 45.94 138.94 43.27 139.29 40.31 139.64 41.94 139.99 41.79 140.34 41.35 140.69 41.94 141.04 43.27 141.39 44.61 141.73 45.35 142.08 45.79 142.43 47.42 142.78 44.76 143.13 45.35 143.48 45.5 143.83 46.53 144.18 45.5 144.53 46.68 144.88 48.16 145.23 48.01 145.58 48.61 145.92 49.05 146.27 51.87 146.62 51.27 146.97 52.16 147.32 52.16 147.67 53.94 148.02 53.79 148.37 57.05 148.72 56.16 149.07 56.61 149.42 55.12 149.76 53.64 150.11 53.64 150.46 52.61 150.81 50.53 151.16 47.27 151.51 48.9 151.86 48.46 152.21 49.94 152.56 46.68 152.91 47.42 153.26 46.53 153.61 46.09 153.95 45.5 154.3 46.68 154.65 48.16 155 46.09 155.35 45.5 155.7 46.24 156.05 46.83 156.4 45.64 156.75 43.57 157.1 44.76 157.45 45.79 157.79 46.09 158.14 48.01 158.49 45.94 158.84 44.76 159.19 44.16 159.54 44.31 159.89 42.98 160.24 42.53 160.59 45.35 160.94 44.46 161.29 46.24 161.64 46.24 161.98 45.94 162.33 46.09 162.68 48.16 163.03 50.83 163.38 52.31 163.73 53.35 164.08 53.64 164.43 54.68 164.78 54.53 165.13 55.42 165.48 55.87 165.83 55.57 166.17 56.16 166.52 56.9 166.87 58.09 167.22 57.49 167.57 57.35 167.92 55.27 168.27 53.64 168.62 53.2 168.97 53.05 169.32 52.31 169.67 52.16 170.01 53.64 170.36 54.68 170.71 57.35 171.06 56.01 171.41 59.12 171.76 59.86 172.11 59.72 172.46 60.16 172.81 59.86 173.16 60.61 173.51 61.49 173.86 64.16 174.2 66.68 174.55 65.64 174.9 65.64 175.25 66.83 175.6 67.12 175.95 65.2 176.3 63.57 176.65 61.79 177 62.38 177.35 61.2 177.7 62.98 178.04 63.57 178.39 67.42 178.74 64.75 179.09 63.57 179.44 66.68 179.79 64.75 180.14 65.2 180.49 66.23 180.84 61.94 181.19 61.2 181.54 62.09 181.89 60.75 182.23 63.57 182.58 63.12 182.93 62.98 183.28 62.83 183.63 61.2 183.98 59.72 184.33 60.75 184.68 63.42 185.03 63.57 185.38 65.94 185.73 65.2 186.08 65.49 186.42 68.01 186.77 66.23 187.12 68.16 187.47 67.12 187.82 64.31 188.17 63.72 188.52 64.9 188.87 67.86 189.22 71.12 189.57 68.6 189.92 68.01 190.26 71.57 190.61 69.79 190.96 66.38 191.31 65.94 191.66 66.98 192.01 70.09 192.36 69.05 192.71 69.64 193.06 68.6 193.41 69.94 193.76 69.2 194.11 71.72 194.45 71.72 194.8 73.05 195.15 72.16 195.5 73.05 195.85 71.12 196.2 69.05"/>
      </g>
      <g stroke-width="0.3" fill="#000000" fill-opacity="0.000" class="geometry" stroke-dasharray="none" stroke="#66C2A5" id="img-e317d808-11">
        <path fill="none" d="M21.98,79.27 L 22.33 79.86 22.68 78.08 23.03 77.49 23.38 77.2 23.73 77.79 24.08 74.68 24.42 74.38 24.77 76.9 25.12 76.75 25.47 77.79 25.82 74.38 26.17 71.12 26.52 74.38 26.87 76.46 27.22 77.49 27.57 80.45 27.92 82.23 28.27 79.71 28.61 77.49 28.96 77.49 29.31 77.79 29.66 81.49 30.01 82.23 30.36 81.79 30.71 81.49 31.06 84.9 31.41 84.16 31.76 84.31 32.11 85.49 32.45 81.94 32.8 82.08 33.15 81.05 33.5 82.08 33.85 82.53 34.2 81.05 34.55 76.01 34.9 76.31 35.25 76.6 35.6 76.31 35.95 78.08 36.3 79.86 36.64 80.75 36.99 78.53 37.34 79.12 37.69 80.45 38.04 81.64 38.39 82.82 38.74 79.42 39.09 78.97 39.44 78.68 39.79 76.46 40.14 79.86 40.49 81.79 40.83 81.94 41.18 85.64 41.53 85.64 41.88 85.49 42.23 83.27 42.58 82.82 42.93 81.64 43.28 81.79 43.63 84.75 43.98 83.57 44.33 85.34 44.67 85.49 45.02 83.42 45.37 82.97 45.72 82.38 46.07 78.83 46.42 79.71 46.77 79.57 47.12 77.79 47.47 77.79 47.82 77.49 48.17 76.75 48.52 78.53 48.86 76.01 49.21 75.42 49.56 78.38 49.91 80.45 50.26 78.83 50.61 79.42 50.96 77.94 51.31 79.71 51.66 79.86 52.01 81.64 52.36 81.05 52.7 81.64 53.05 79.57 53.4 79.42 53.75 81.94 54.1 80.45 54.45 77.79 54.8 78.38 55.15 80.45 55.5 82.68 55.85 82.08 56.2 82.68 56.55 83.71 56.89 82.97 57.24 80.16 57.59 80.01 57.94 80.45 58.29 81.94 58.64 82.08 58.99 81.79 59.34 83.86 59.69 86.08 60.04 88.9 60.39 86.23 60.73 88.31 61.08 90.08 61.43 85.05 61.78 83.12 62.13 80.16 62.48 82.23 62.83 82.68 63.18 80.6 63.53 76.75 63.88 76.6 64.23 73.64 64.58 73.79 64.92 70.83 65.27 66.23 65.62 64.75 65.97 67.42 66.32 65.64 66.67 68.46 67.02 67.12 67.37 68.16 67.72 68.9 68.07 68.9 68.42 70.83 68.77 69.64 69.11 68.01 69.46 69.94 69.81 67.57 70.16 67.12 70.51 63.42 70.86 62.38 71.21 61.35 71.56 61.49 71.91 61.2 72.26 60.16 72.61 60.31 72.95 60.01 73.3 59.12 73.65 58.98 74 57.49 74.35 58.98 74.7 59.27 75.05 58.53 75.4 59.57 75.75 60.16 76.1 58.98 76.45 60.9 76.8 64.01 77.14 61.49 77.49 59.27 77.84 59.42 78.19 59.86 78.54 57.94 78.89 58.53 79.24 58.53 79.59 55.42 79.94 56.31 80.29 57.94 80.64 61.05 80.98 64.31 81.33 63.72 81.68 62.53 82.03 62.98 82.38 64.16 82.73 62.98 83.08 63.12 83.43 60.61 83.78 59.42 84.13 60.75 84.48 62.83 84.83 63.86 85.17 65.35 85.52 62.83 85.87 65.2 86.22 65.05 86.57 67.27 86.92 69.05 87.27 70.53 87.62 71.12 87.97 74.97 88.32 75.27 88.67 75.57 89.02 77.79 89.36 78.97 89.71 80.16 90.06 82.38 90.41 82.08 90.76 81.2 91.11 80.16 91.46 80.45 91.81 80.6 92.16 84.31 92.51 83.71 92.86 81.05 93.2 82.82 93.55 82.08 93.9 82.23 94.25 81.64 94.6 81.49 94.95 82.08 95.3 81.64 95.65 80.45 96 77.79 96.35 79.86 96.7 79.42 97.05 81.49 97.39 81.34 97.74 80.9 98.09 83.27 98.44 84.6 98.79 81.79 99.14 83.27 99.49 81.05 99.84 81.05 100.19 80.75 100.54 80.31 100.89 80.01 101.23 78.23 101.58 77.2 101.93 78.38 102.28 78.97 102.63 79.42 102.98 78.68 103.33 76.9 103.68 74.83 104.03 72.31 104.38 73.2 104.73 69.64 105.08 70.97 105.42 72.16 105.77 74.68 106.12 75.12 106.47 78.08 106.82 78.08 107.17 77.64 107.52 78.23 107.87 76.01 108.22 80.31 108.57 80.9 108.92 81.64 109.26 80.01 109.61 80.9 109.96 81.2 110.31 83.86 110.66 84.31 111.01 86.08 111.36 86.08 111.71 83.27 112.06 84.16 112.41 87.86 112.76 83.86 113.11 82.38 113.45 79.42 113.8 82.08 114.15 83.12 114.5 84.01 114.85 78.97 115.2 83.27 115.55 84.75 115.9 86.97 116.25 87.86 116.6 90.08 116.95 88.9 117.3 93.34 117.64 93.05 117.99 93.93 118.34 93.79 118.69 92.45 119.04 94.23 119.39 96.45 119.74 93.19 120.09 94.68 120.44 94.53 120.79 92.6 121.14 93.64 121.48 93.64 121.83 90.97 122.18 89.34 122.53 91.71 122.88 89.19 123.23 90.38 123.58 92.9 123.93 94.97 124.28 98.53 124.63 98.82 124.98 97.05 125.33 96.9 125.67 97.05 126.02 99.27 126.37 103.27 126.72 104.01 127.07 106.67 127.42 105.04 127.77 103.56 128.12 103.27 128.47 102.53 128.82 103.41 129.17 102.67 129.51 103.56 129.86 104.9 130.21 107.12 130.56 108.9 130.91 109.34 131.26 109.93 131.61 110.53 131.96 111.71 132.31 108.9 132.66 109.49 133.01 109.64 133.36 111.27 133.7 111.71 134.05 111.41 134.4 109.93 134.75 110.08 135.1 108.45 135.45 105.78 135.8 106.38 136.15 106.08 136.5 106.67 136.85 109.34 137.2 106.97 137.55 107.71 137.89 109.04 138.24 109.93 138.59 110.23 138.94 111.41 139.29 110.38 139.64 112.15 139.99 112.3 140.34 113.34 140.69 114.67 141.04 114.23 141.39 113.19 141.73 113.19 142.08 116.89 142.43 118.67 142.78 119.56 143.13 118.52 143.48 118.67 143.83 116.45 144.18 115.27 144.53 113.64 144.88 113.19 145.23 111.12 145.58 109.78 145.92 108.3 146.27 108.15 146.62 108.75 146.97 104.45 147.32 105.04 147.67 105.19 148.02 103.27 148.37 99.56 148.72 100.01 149.07 100.6 149.42 101.04 149.76 103.41 150.11 100.75 150.46 101.19 150.81 99.27 151.16 98.38 151.51 98.53 151.86 100.01 152.21 99.12 152.56 100.16 152.91 99.71 153.26 96.9 153.61 97.34 153.95 97.49 154.3 101.79 154.65 98.08 155 97.79 155.35 98.08 155.7 98.67 156.05 100.6 156.4 99.56 156.75 98.38 157.1 99.56 157.45 99.71 157.79 99.12 158.14 100.45 158.49 101.64 158.84 100.16 159.19 99.86 159.54 99.71 159.89 98.23 160.24 99.86 160.59 94.53 160.94 94.97 161.29 96.45 161.64 98.53 161.98 99.27 162.33 96.45 162.68 95.56 163.03 94.68 163.38 94.23 163.73 95.56 164.08 98.97 164.43 99.42 164.78 101.34 165.13 97.64 165.48 95.12 165.83 91.71 166.17 92.45 166.52 90.82 166.87 88.75 167.22 90.08 167.57 88.31 167.92 88.31 168.27 89.94 168.62 87.42 168.97 86.68 169.32 85.64 169.67 83.12 170.01 83.71 170.36 78.23 170.71 76.16 171.06 76.9 171.41 80.9 171.76 77.49 172.11 78.38 172.46 77.2 172.81 76.31 173.16 77.64 173.51 75.27 173.86 75.86 174.2 78.68 174.55 77.64 174.9 73.94 175.25 77.05 175.6 74.97 175.95 77.94 176.3 77.79 176.65 77.94 177 77.49 177.35 80.6 177.7 82.97 178.04 85.64 178.39 88.9 178.74 89.49 179.09 89.79 179.44 89.79 179.79 89.49 180.14 91.27 180.49 86.97 180.84 92.01 181.19 91.12 181.54 89.49 181.89 89.79 182.23 87.27 182.58 86.08 182.93 87.27 183.28 87.86 183.63 89.19 183.98 88.16 184.33 86.97 184.68 87.12 185.03 87.86 185.38 86.82 185.73 85.19 186.08 85.64 186.42 83.42 186.77 82.23 187.12 77.49 187.47 76.75 187.82 75.86 188.17 73.64 188.52 71.42 188.87 70.53 189.22 69.64 189.57 71.27 189.92 70.38 190.26 72.01 190.61 73.79 190.96 73.2 191.31 71.12 191.66 68.46 192.01 67.57 192.36 68.75 192.71 69.79 193.06 72.01 193.41 72.01 193.76 70.97 194.11 73.79 194.45 74.83 194.8 72.75 195.15 73.49 195.5 71.42 195.85 70.23 196.2 72.01"/>
      </g>
      <g stroke-width="0.3" fill="#000000" fill-opacity="0.000" class="geometry" stroke-dasharray="none" stroke="#ABDDA4" id="img-e317d808-12">
        <path fill="none" d="M21.98,79.27 L 22.33 77.64 22.68 78.38 23.03 79.71 23.38 78.38 23.73 76.6 24.08 75.27 24.42 74.53 24.77 76.16 25.12 78.23 25.47 78.53 25.82 76.16 26.17 78.08 26.52 78.23 26.87 80.31 27.22 80.45 27.57 81.05 27.92 80.31 28.27 79.42 28.61 79.57 28.96 83.71 29.31 82.68 29.66 80.31 30.01 78.68 30.36 81.79 30.71 80.6 31.06 81.79 31.41 85.19 31.76 86.97 32.11 89.05 32.45 92.01 32.8 90.23 33.15 89.64 33.5 91.12 33.85 88.31 34.2 87.71 34.55 88.01 34.9 84.01 35.25 82.68 35.6 81.05 35.95 80.45 36.3 78.83 36.64 79.86 36.99 81.05 37.34 77.05 37.69 74.83 38.04 73.94 38.39 73.94 38.74 76.16 39.09 74.83 39.44 76.75 39.79 74.38 40.14 74.53 40.49 75.86 40.83 75.12 41.18 74.97 41.53 75.12 41.88 75.27 42.23 75.42 42.58 72.9 42.93 75.86 43.28 74.09 43.63 72.16 43.98 71.57 44.33 71.27 44.67 73.49 45.02 77.49 45.37 77.94 45.72 79.42 46.07 81.05 46.42 83.12 46.77 85.19 47.12 85.19 47.47 86.68 47.82 86.97 48.17 88.16 48.52 87.71 48.86 87.71 49.21 90.68 49.56 92.01 49.91 88.31 50.26 89.19 50.61 90.23 50.96 89.79 51.31 90.97 51.66 93.93 52.01 93.93 52.36 94.53 52.7 96.3 53.05 95.12 53.4 94.97 53.75 95.12 54.1 99.27 54.45 100.45 54.8 99.56 55.15 102.23 55.5 101.93 55.85 103.27 56.2 102.67 56.55 101.04 56.89 99.71 57.24 100.01 57.59 98.23 57.94 100.01 58.29 101.04 58.64 101.19 58.99 100.16 59.34 98.82 59.69 97.64 60.04 95.71 60.39 96.6 60.73 97.19 61.08 96.6 61.43 96.45 61.78 97.79 62.13 100.01 62.48 99.71 62.83 98.67 63.18 100.75 63.53 97.34 63.88 98.82 64.23 99.86 64.58 100.01 64.92 102.53 65.27 99.27 65.62 98.67 65.97 95.56 66.32 95.27 66.67 97.19 67.02 99.86 67.37 99.71 67.72 98.67 68.07 95.27 68.42 98.67 68.77 100.3 69.11 101.04 69.46 100.9 69.81 98.38 70.16 97.34 70.51 97.05 70.86 99.27 71.21 99.42 71.56 98.53 71.91 97.34 72.26 98.08 72.61 100.01 72.95 100.75 73.3 100.75 73.65 100.75 74 102.23 74.35 102.53 74.7 103.71 75.05 101.49 75.4 101.19 75.75 103.27 76.1 103.56 76.45 105.49 76.8 104.9 77.14 104.75 77.49 105.93 77.84 106.67 78.19 106.38 78.54 102.53 78.89 101.19 79.24 100.45 79.59 98.97 79.94 101.49 80.29 99.27 80.64 97.93 80.98 95.27 81.33 94.53 81.68 93.19 82.03 96.16 82.38 95.27 82.73 92.75 83.08 92.75 83.43 90.38 83.78 90.08 84.13 88.31 84.48 87.42 84.83 85.34 85.17 84.31 85.52 85.34 85.87 86.23 86.22 85.79 86.57 86.08 86.92 82.82 87.27 83.42 87.62 84.6 87.97 87.42 88.32 87.57 88.67 88.75 89.02 88.75 89.36 90.08 89.71 91.56 90.06 91.42 90.41 94.53 90.76 93.19 91.11 93.05 91.46 91.71 91.81 91.71 92.16 88.01 92.51 90.68 92.86 87.86 93.2 86.53 93.55 85.05 93.9 84.31 94.25 81.34 94.6 79.86 94.95 78.08 95.3 77.64 95.65 77.34 96 73.79 96.35 74.53 96.7 73.79 97.05 73.34 97.39 69.2 97.74 70.23 98.09 68.75 98.44 69.94 98.79 66.38 99.14 65.79 99.49 66.23 99.84 66.53 100.19 66.83 100.54 67.27 100.89 70.97 101.23 73.64 101.58 71.12 101.93 73.94 102.28 74.23 102.63 72.9 102.98 74.97 103.33 70.97 103.68 70.23 104.03 74.68 104.38 76.16 104.73 75.86 105.08 76.46 105.42 77.49 105.77 76.01 106.12 72.9 106.47 74.38 106.82 74.38 107.17 72.01 107.52 68.01 107.87 67.72 108.22 68.6 108.57 69.49 108.92 66.98 109.26 67.12 109.61 66.68 109.96 67.57 110.31 69.05 110.66 69.2 111.01 70.97 111.36 70.09 111.71 70.97 112.06 70.09 112.41 67.42 112.76 68.46 113.11 64.9 113.45 64.01 113.8 62.53 114.15 62.09 114.5 63.12 114.85 63.42 115.2 63.27 115.55 64.75 115.9 67.12 116.25 67.72 116.6 71.27 116.95 68.75 117.3 66.98 117.64 72.16 117.99 72.31 118.34 74.38 118.69 74.23 119.04 74.23 119.39 69.05 119.74 70.83 120.09 70.68 120.44 70.38 120.79 68.6 121.14 70.09 121.48 69.49 121.83 74.23 122.18 73.49 122.53 73.2 122.88 72.75 123.23 71.86 123.58 72.01 123.93 69.79 124.28 69.79 124.63 70.53 124.98 69.2 125.33 68.31 125.67 63.86 126.02 58.53 126.37 60.16 126.72 57.2 127.07 57.94 127.42 60.31 127.77 62.68 128.12 65.35 128.47 67.12 128.82 63.57 129.17 60.16 129.51 61.94 129.86 60.61 130.21 59.57 130.56 60.01 130.91 63.27 131.26 64.9 131.61 66.38 131.96 66.98 132.31 66.09 132.66 63.86 133.01 64.31 133.36 68.46 133.7 69.05 134.05 67.42 134.4 69.2 134.75 70.83 135.1 69.2 135.45 70.38 135.8 72.31 136.15 70.97 136.5 72.6 136.85 77.05 137.2 79.86 137.55 81.79 137.89 85.79 138.24 84.31 138.59 86.53 138.94 82.82 139.29 82.97 139.64 82.82 139.99 82.68 140.34 82.68 140.69 83.27 141.04 81.05 141.39 82.82 141.73 85.19 142.08 84.01 142.43 86.82 142.78 87.27 143.13 90.53 143.48 92.45 143.83 94.08 144.18 94.82 144.53 95.27 144.88 94.53 145.23 95.71 145.58 95.42 145.92 95.27 146.27 94.82 146.62 94.38 146.97 94.68 147.32 97.05 147.67 97.64 148.02 97.64 148.37 98.97 148.72 98.08 149.07 97.93 149.42 99.71 149.76 98.08 150.11 97.05 150.46 97.49 150.81 97.79 151.16 98.53 151.51 99.42 151.86 100.45 152.21 96.6 152.56 97.79 152.91 96.01 153.26 94.53 153.61 95.56 153.95 97.05 154.3 96.01 154.65 95.56 155 91.27 155.35 90.23 155.7 89.64 156.05 89.49 156.4 88.01 156.75 85.49 157.1 89.19 157.45 91.12 157.79 91.27 158.14 91.86 158.49 91.71 158.84 91.86 159.19 90.97 159.54 90.23 159.89 89.19 160.24 88.16 160.59 89.05 160.94 87.27 161.29 86.08 161.64 84.16 161.98 84.6 162.33 83.57 162.68 83.42 163.03 85.94 163.38 90.08 163.73 91.27 164.08 91.12 164.43 89.05 164.78 89.05 165.13 90.23 165.48 90.08 165.83 89.94 166.17 87.42 166.52 86.97 166.87 86.38 167.22 84.75 167.57 86.08 167.92 89.05 168.27 85.34 168.62 84.16 168.97 84.31 169.32 84.9 169.67 83.27 170.01 82.08 170.36 80.75 170.71 78.97 171.06 79.27 171.41 80.31 171.76 79.27 172.11 79.86 172.46 75.42 172.81 74.83 173.16 72.6 173.51 67.72 173.86 68.31 174.2 69.35 174.55 70.97 174.9 72.01 175.25 70.23 175.6 68.9 175.95 68.9 176.3 69.79 176.65 70.97 177 69.35 177.35 68.46 177.7 66.83 178.04 67.57 178.39 69.79 178.74 65.35 179.09 64.16 179.44 64.75 179.79 64.75 180.14 62.83 180.49 64.46 180.84 64.46 181.19 67.12 181.54 66.83 181.89 65.05 182.23 66.53 182.58 68.01 182.93 70.23 183.28 72.31 183.63 72.75 183.98 72.01 184.33 72.75 184.68 73.2 185.03 71.86 185.38 76.6 185.73 78.53 186.08 76.9 186.42 76.9 186.77 71.72 187.12 73.05 187.47 72.6 187.82 70.68 188.17 70.97 188.52 72.46 188.87 71.42 189.22 72.6 189.57 69.05 189.92 68.16 190.26 71.27 190.61 72.01 190.96 70.09 191.31 69.05 191.66 72.01 192.01 73.94 192.36 74.09 192.71 72.31 193.06 73.49 193.41 76.01 193.76 75.71 194.11 76.6 194.45 78.38 194.8 78.23 195.15 77.05 195.5 75.71 195.85 72.9 196.2 72.46"/>
      </g>
      <g stroke-width="0.3" fill="#000000" fill-opacity="0.000" class="geometry" stroke-dasharray="none" stroke="#E6F598" id="img-e317d808-13">
        <path fill="none" d="M21.98,79.27 L 22.33 79.86 22.68 80.45 23.03 80.01 23.38 78.97 23.73 81.49 24.08 85.64 24.42 85.49 24.77 83.42 25.12 81.05 25.47 80.6 25.82 82.53 26.17 83.42 26.52 86.08 26.87 87.12 27.22 89.49 27.57 90.53 27.92 90.53 28.27 90.08 28.61 87.86 28.96 86.82 29.31 85.19 29.66 83.42 30.01 80.45 30.36 83.57 30.71 84.01 31.06 81.49 31.41 79.57 31.76 78.68 32.11 80.16 32.45 78.08 32.8 83.12 33.15 80.75 33.5 78.97 33.85 79.12 34.2 80.31 34.55 79.42 34.9 80.31 35.25 76.9 35.6 78.97 35.95 81.49 36.3 81.79 36.64 83.57 36.99 79.27 37.34 76.75 37.69 76.31 38.04 81.2 38.39 78.38 38.74 77.64 39.09 79.27 39.44 82.68 39.79 84.6 40.14 86.53 40.49 85.19 40.83 83.86 41.18 82.82 41.53 84.45 41.88 84.31 42.23 84.75 42.58 84.6 42.93 84.75 43.28 83.71 43.63 82.23 43.98 82.97 44.33 81.2 44.67 81.2 45.02 80.01 45.37 82.08 45.72 83.71 46.07 82.97 46.42 88.16 46.77 88.16 47.12 89.05 47.47 88.75 47.82 86.38 48.17 89.19 48.52 91.27 48.86 91.42 49.21 93.05 49.56 93.05 49.91 93.19 50.26 92.9 50.61 90.68 50.96 89.19 51.31 88.45 51.66 83.12 52.01 83.42 52.36 85.79 52.7 85.34 53.05 84.9 53.4 83.86 53.75 86.53 54.1 89.49 54.45 88.16 54.8 87.57 55.15 89.19 55.5 92.9 55.85 94.53 56.2 96.6 56.55 96.75 56.89 96.75 57.24 98.08 57.59 97.93 57.94 97.49 58.29 98.08 58.64 97.49 58.99 97.34 59.34 98.38 59.69 95.86 60.04 94.53 60.39 95.56 60.73 94.68 61.08 93.64 61.43 93.93 61.78 94.08 62.13 93.93 62.48 92.16 62.83 91.71 63.18 90.68 63.53 90.53 63.88 87.86 64.23 87.86 64.58 90.68 64.92 88.6 65.27 86.38 65.62 86.23 65.97 85.19 66.32 82.23 66.67 79.42 67.02 81.34 67.37 77.05 67.72 75.71 68.07 77.05 68.42 77.94 68.77 76.16 69.11 77.49 69.46 74.23 69.81 78.23 70.16 79.57 70.51 78.83 70.86 78.23 71.21 79.42 71.56 78.68 71.91 76.6 72.26 75.27 72.61 76.31 72.95 77.79 73.3 77.34 73.65 77.94 74 82.38 74.35 82.23 74.7 82.68 75.05 79.27 75.4 78.83 75.75 78.23 76.1 78.68 76.45 80.45 76.8 81.49 77.14 81.05 77.49 81.05 77.84 79.71 78.19 80.01 78.54 80.6 78.89 81.79 79.24 85.64 79.59 85.05 79.94 82.23 80.29 78.68 80.64 80.9 80.98 83.27 81.33 85.49 81.68 85.79 82.03 89.49 82.38 89.64 82.73 89.79 83.08 92.6 83.43 93.05 83.78 93.93 84.13 95.12 84.48 93.05 84.83 95.56 85.17 95.86 85.52 94.82 85.87 94.82 86.22 95.56 86.57 99.42 86.92 98.97 87.27 97.93 87.62 99.42 87.97 97.93 88.32 96.45 88.67 94.97 89.02 95.27 89.36 93.05 89.71 93.49 90.06 92.75 90.41 94.97 90.76 95.27 91.11 93.05 91.46 92.16 91.81 95.42 92.16 95.27 92.51 97.79 92.86 98.53 93.2 93.64 93.55 89.49 93.9 88.31 94.25 87.57 94.6 88.16 94.95 85.94 95.3 90.23 95.65 90.82 96 92.6 96.35 92.6 96.7 95.12 97.05 97.19 97.39 96.45 97.74 95.27 98.09 97.49 98.44 97.05 98.79 96.01 99.14 94.08 99.49 92.01 99.84 91.71 100.19 92.9 100.54 92.16 100.89 91.71 101.23 90.53 101.58 88.6 101.93 89.79 102.28 88.01 102.63 90.23 102.98 89.94 103.33 88.75 103.68 90.23 104.03 88.75 104.38 88.6 104.73 90.53 105.08 90.53 105.42 90.23 105.77 92.9 106.12 90.68 106.47 87.86 106.82 87.12 107.17 87.27 107.52 88.75 107.87 86.97 108.22 90.38 108.57 88.16 108.92 84.75 109.26 83.57 109.61 81.49 109.96 81.79 110.31 81.34 110.66 83.71 111.01 82.82 111.36 83.86 111.71 82.38 112.06 80.45 112.41 77.79 112.76 78.68 113.11 79.12 113.45 79.57 113.8 78.23 114.15 79.57 114.5 79.42 114.85 80.16 115.2 83.71 115.55 85.05 115.9 85.19 116.25 85.49 116.6 85.64 116.95 86.38 117.3 84.31 117.64 87.12 117.99 82.53 118.34 82.53 118.69 83.12 119.04 81.05 119.39 83.42 119.74 84.45 120.09 85.19 120.44 85.19 120.79 84.01 121.14 85.34 121.48 88.45 121.83 89.34 122.18 89.79 122.53 92.6 122.88 91.42 123.23 93.05 123.58 93.19 123.93 92.75 124.28 92.16 124.63 96.3 124.98 94.68 125.33 95.71 125.67 94.38 126.02 93.93 126.37 89.49 126.72 89.94 127.07 92.01 127.42 92.75 127.77 91.56 128.12 89.49 128.47 86.53 128.82 83.86 129.17 83.42 129.51 82.97 129.86 85.64 130.21 84.75 130.56 84.16 130.91 82.38 131.26 81.05 131.61 80.6 131.96 82.08 132.31 80.75 132.66 81.34 133.01 81.34 133.36 84.6 133.7 82.97 134.05 83.12 134.4 83.27 134.75 83.27 135.1 82.53 135.45 84.16 135.8 85.64 136.15 80.6 136.5 82.82 136.85 81.05 137.2 79.42 137.55 78.23 137.89 76.6 138.24 76.16 138.59 79.27 138.94 78.83 139.29 79.86 139.64 79.12 139.99 81.34 140.34 82.38 140.69 78.68 141.04 80.9 141.39 79.12 141.73 79.27 142.08 81.49 142.43 83.57 142.78 85.19 143.13 85.49 143.48 84.6 143.83 87.57 144.18 89.05 144.53 87.12 144.88 87.71 145.23 86.82 145.58 90.97 145.92 91.86 146.27 89.94 146.62 90.38 146.97 90.68 147.32 90.08 147.67 86.82 148.02 88.31 148.37 88.31 148.72 86.23 149.07 90.23 149.42 88.45 149.76 90.23 150.11 91.71 150.46 92.31 150.81 87.71 151.16 88.01 151.51 85.64 151.86 87.57 152.21 89.05 152.56 89.19 152.91 91.27 153.26 91.71 153.61 92.75 153.95 94.23 154.3 95.12 154.65 94.38 155 93.05 155.35 91.42 155.7 87.86 156.05 90.08 156.4 89.64 156.75 92.45 157.1 90.97 157.45 89.05 157.79 87.42 158.14 89.79 158.49 90.53 158.84 95.12 159.19 95.42 159.54 95.42 159.89 95.86 160.24 95.56 160.59 93.34 160.94 93.19 161.29 94.23 161.64 92.75 161.98 91.42 162.33 92.16 162.68 93.49 163.03 94.53 163.38 97.64 163.73 98.23 164.08 97.79 164.43 97.79 164.78 95.12 165.13 95.71 165.48 97.79 165.83 95.12 166.17 94.23 166.52 94.82 166.87 95.56 167.22 94.53 167.57 92.01 167.92 90.82 168.27 86.68 168.62 86.23 168.97 83.86 169.32 82.68 169.67 82.53 170.01 84.45 170.36 84.31 170.71 84.6 171.06 89.79 171.41 91.86 171.76 90.68 172.11 90.23 172.46 88.16 172.81 85.79 173.16 86.08 173.51 87.42 173.86 88.9 174.2 87.57 174.55 90.23 174.9 92.01 175.25 90.53 175.6 91.71 175.95 91.12 176.3 94.53 176.65 94.53 177 94.23 177.35 92.6 177.7 93.79 178.04 90.53 178.39 92.01 178.74 92.75 179.09 95.27 179.44 92.31 179.79 92.75 180.14 93.49 180.49 95.27 180.84 94.68 181.19 94.53 181.54 93.64 181.89 92.75 182.23 89.64 182.58 87.27 182.93 87.71 183.28 88.01 183.63 83.86 183.98 83.71 184.33 83.27 184.68 82.38 185.03 80.9 185.38 83.27 185.73 84.45 186.08 77.94 186.42 76.16 186.77 77.49 187.12 72.46 187.47 70.53 187.82 63.86 188.17 62.09 188.52 61.2 188.87 62.09 189.22 62.23 189.57 62.83 189.92 64.9 190.26 63.27 190.61 64.31 190.96 64.9 191.31 65.79 191.66 64.9 192.01 63.86 192.36 65.79 192.71 65.05 193.06 62.83 193.41 61.49 193.76 63.27 194.11 63.42 194.45 62.38 194.8 60.16 195.15 57.94 195.5 59.12 195.85 58.38 196.2 60.16"/>
      </g>
      <g stroke-width="0.3" fill="#000000" fill-opacity="0.000" class="geometry" stroke-dasharray="none" stroke="#FFFFBF" id="img-e317d808-14">
        <path fill="none" d="M21.98,79.27 L 22.33 79.57 22.68 81.79 23.03 80.9 23.38 81.79 23.73 81.79 24.08 83.86 24.42 84.16 24.77 83.27 25.12 83.42 25.47 84.31 25.82 85.64 26.17 88.45 26.52 84.45 26.87 86.53 27.22 85.05 27.57 83.42 27.92 81.49 28.27 81.79 28.61 82.23 28.96 82.97 29.31 86.97 29.66 87.12 30.01 88.45 30.36 87.71 30.71 87.27 31.06 86.82 31.41 86.38 31.76 90.38 32.11 89.49 32.45 87.12 32.8 87.57 33.15 90.38 33.5 86.97 33.85 84.75 34.2 79.57 34.55 79.71 34.9 79.57 35.25 78.53 35.6 78.08 35.95 74.97 36.3 75.12 36.64 76.16 36.99 72.75 37.34 73.2 37.69 73.64 38.04 74.23 38.39 68.9 38.74 67.12 39.09 66.09 39.44 68.75 39.79 71.57 40.14 70.83 40.49 70.53 40.83 72.9 41.18 67.86 41.53 65.05 41.88 66.68 42.23 65.79 42.58 65.64 42.93 64.61 43.28 65.49 43.63 64.61 43.98 65.94 44.33 63.86 44.67 64.46 45.02 64.16 45.37 61.79 45.72 64.16 46.07 60.9 46.42 60.61 46.77 58.09 47.12 58.98 47.47 60.9 47.82 61.94 48.17 61.35 48.52 63.57 48.86 63.72 49.21 61.05 49.56 58.24 49.91 60.01 50.26 58.83 50.61 59.27 50.96 58.68 51.31 59.12 51.66 58.68 52.01 59.27 52.36 56.61 52.7 57.79 53.05 57.64 53.4 57.05 53.75 58.09 54.1 59.42 54.45 56.31 54.8 56.01 55.15 54.24 55.5 54.53 55.85 56.61 56.2 59.72 56.55 59.12 56.89 62.83 57.24 61.94 57.59 62.23 57.94 61.79 58.29 61.79 58.64 61.49 58.99 60.75 59.34 59.86 59.69 59.57 60.04 60.9 60.39 59.86 60.73 59.12 61.08 58.98 61.43 57.05 61.78 56.61 62.13 58.09 62.48 59.42 62.83 59.42 63.18 54.98 63.53 56.61 63.88 56.31 64.23 55.87 64.58 54.38 64.92 57.2 65.27 54.68 65.62 50.83 65.97 48.76 66.32 49.2 66.67 46.68 67.02 45.94 67.37 47.42 67.72 47.27 68.07 44.61 68.42 42.98 68.77 41.5 69.11 40.16 69.46 41.5 69.81 41.64 70.16 41.5 70.51 42.24 70.86 42.68 71.21 42.09 71.56 42.24 71.91 43.87 72.26 43.87 72.61 40.31 72.95 42.39 73.3 42.09 73.65 43.57 74 43.57 74.35 44.46 74.7 43.57 75.05 44.31 75.4 47.72 75.75 48.16 76.1 49.64 76.45 47.57 76.8 46.09 77.14 46.53 77.49 46.39 77.84 48.9 78.19 47.72 78.54 47.72 78.89 49.05 79.24 48.9 79.59 49.5 79.94 52.31 80.29 50.68 80.64 48.31 80.98 48.16 81.33 49.94 81.68 49.2 82.03 46.53 82.38 45.5 82.73 42.83 83.08 43.57 83.43 42.68 83.78 44.16 84.13 45.79 84.48 46.09 84.83 46.53 85.17 47.13 85.52 46.39 85.87 44.9 86.22 45.79 86.57 45.94 86.92 45.35 87.27 46.09 87.62 48.31 87.97 48.61 88.32 49.64 88.67 46.24 89.02 45.5 89.36 44.16 89.71 48.01 90.06 47.27 90.41 48.76 90.76 49.05 91.11 49.94 91.46 54.24 91.81 52.75 92.16 51.13 92.51 52.16 92.86 50.98 93.2 51.13 93.55 55.12 93.9 55.42 94.25 54.53 94.6 55.72 94.95 57.2 95.3 54.53 95.65 54.83 96 56.9 96.35 56.75 96.7 55.27 97.05 55.27 97.39 55.12 97.74 57.2 98.09 57.2 98.44 56.31 98.79 56.75 99.14 54.68 99.49 53.94 99.84 54.68 100.19 54.83 100.54 57.2 100.89 61.05 101.23 60.16 101.58 58.68 101.93 57.64 102.28 55.12 102.63 57.79 102.98 54.24 103.33 50.98 103.68 49.35 104.03 52.75 104.38 52.9 104.73 53.35 105.08 55.42 105.42 55.87 105.77 54.24 106.12 53.79 106.47 51.27 106.82 53.94 107.17 54.38 107.52 53.79 107.87 50.09 108.22 50.53 108.57 51.42 108.92 52.31 109.26 53.64 109.61 51.87 109.96 51.13 110.31 54.53 110.66 53.64 111.01 57.05 111.36 58.68 111.71 59.86 112.06 59.57 112.41 57.94 112.76 56.16 113.11 58.68 113.45 60.01 113.8 59.72 114.15 61.64 114.5 61.79 114.85 62.38 115.2 62.09 115.55 66.09 115.9 66.38 116.25 69.2 116.6 70.38 116.95 73.2 117.3 71.86 117.64 70.38 117.99 71.12 118.34 69.49 118.69 71.72 119.04 72.6 119.39 69.35 119.74 68.46 120.09 68.31 120.44 66.23 120.79 62.38 121.14 61.05 121.48 62.83 121.83 63.72 122.18 63.86 122.53 62.68 122.88 65.49 123.23 64.9 123.58 62.38 123.93 62.83 124.28 62.53 124.63 61.49 124.98 59.42 125.33 61.05 125.67 60.46 126.02 61.2 126.37 63.57 126.72 65.94 127.07 69.94 127.42 70.23 127.77 69.94 128.12 67.86 128.47 68.46 128.82 68.75 129.17 65.79 129.51 67.86 129.86 62.98 130.21 64.46 130.56 62.68 130.91 60.46 131.26 65.2 131.61 66.38 131.96 67.42 132.31 68.9 132.66 68.9 133.01 67.86 133.36 68.31 133.7 70.97 134.05 67.57 134.4 67.27 134.75 67.86 135.1 66.38 135.45 64.16 135.8 64.61 136.15 65.35 136.5 64.46 136.85 65.05 137.2 64.75 137.55 65.64 137.89 63.57 138.24 64.46 138.59 64.75 138.94 64.16 139.29 61.35 139.64 65.94 139.99 64.31 140.34 62.53 140.69 62.83 141.04 60.61 141.39 61.35 141.73 59.86 142.08 59.57 142.43 59.42 142.78 60.01 143.13 64.9 143.48 66.68 143.83 66.09 144.18 64.9 144.53 62.09 144.88 62.38 145.23 61.05 145.58 62.23 145.92 62.38 146.27 64.61 146.62 65.05 146.97 62.09 147.32 60.31 147.67 61.64 148.02 61.2 148.37 62.83 148.72 62.98 149.07 64.46 149.42 65.49 149.76 65.35 150.11 64.61 150.46 61.94 150.81 62.83 151.16 64.9 151.51 63.57 151.86 62.83 152.21 64.01 152.56 64.16 152.91 60.9 153.26 58.98 153.61 58.98 153.95 59.12 154.3 60.61 154.65 58.98 155 58.53 155.35 59.72 155.7 61.35 156.05 61.64 156.4 62.98 156.75 62.23 157.1 59.57 157.45 60.31 157.79 57.94 158.14 58.68 158.49 57.94 158.84 60.31 159.19 60.16 159.54 62.53 159.89 60.46 160.24 58.09 160.59 57.49 160.94 60.46 161.29 62.09 161.64 61.64 161.98 57.35 162.33 54.09 162.68 53.2 163.03 52.16 163.38 49.94 163.73 47.42 164.08 46.39 164.43 48.01 164.78 49.94 165.13 48.76 165.48 47.13 165.83 48.9 166.17 48.46 166.52 47.72 166.87 46.53 167.22 48.31 167.57 50.83 167.92 50.83 168.27 50.24 168.62 50.83 168.97 50.24 169.32 51.87 169.67 51.27 170.01 50.98 170.36 49.79 170.71 49.05 171.06 49.05 171.41 50.38 171.76 52.01 172.11 52.9 172.46 53.2 172.81 56.01 173.16 55.27 173.51 53.2 173.86 52.46 174.2 50.53 174.55 49.05 174.9 50.53 175.25 52.61 175.6 51.72 175.95 50.68 176.3 46.09 176.65 46.09 177 46.98 177.35 44.31 177.7 46.24 178.04 45.79 178.39 46.83 178.74 47.42 179.09 48.16 179.44 46.53 179.79 46.39 180.14 49.5 180.49 48.61 180.84 52.01 181.19 51.57 181.54 52.61 181.89 51.87 182.23 53.64 182.58 54.38 182.93 51.87 183.28 51.13 183.63 49.5 183.98 50.38 184.33 50.68 184.68 52.16 185.03 51.57 185.38 50.38 185.73 52.01 186.08 51.72 186.42 52.75 186.77 54.09 187.12 54.09 187.47 56.46 187.82 55.27 188.17 55.12 188.52 57.79 188.87 58.09 189.22 56.75 189.57 56.31 189.92 53.64 190.26 52.75 190.61 56.46 190.96 59.12 191.31 61.05 191.66 64.75 192.01 67.86 192.36 67.27 192.71 70.53 193.06 71.57 193.41 70.38 193.76 71.72 194.11 72.6 194.45 74.68 194.8 73.79 195.15 72.75 195.5 73.79 195.85 71.12 196.2 65.49"/>
      </g>
      <g stroke-width="0.3" fill="#000000" fill-opacity="0.000" class="geometry" stroke-dasharray="none" stroke="#FEE08B" id="img-e317d808-15">
        <path fill="none" d="M21.98,79.27 L 22.33 81.34 22.68 80.01 23.03 78.97 23.38 78.38 23.73 79.27 24.08 78.38 24.42 80.6 24.77 76.75 25.12 78.38 25.47 79.12 25.82 78.97 26.17 80.9 26.52 79.86 26.87 84.45 27.22 86.38 27.57 89.05 27.92 89.94 28.27 89.94 28.61 93.34 28.96 92.9 29.31 92.75 29.66 95.56 30.01 95.56 30.36 95.71 30.71 93.64 31.06 90.08 31.41 88.31 31.76 89.79 32.11 93.19 32.45 92.6 32.8 93.49 33.15 95.86 33.5 97.05 33.85 96.01 34.2 97.49 34.55 94.97 34.9 92.6 35.25 93.79 35.6 93.64 35.95 92.16 36.3 93.19 36.64 92.01 36.99 90.53 37.34 90.97 37.69 91.56 38.04 89.94 38.39 86.82 38.74 91.27 39.09 89.79 39.44 90.23 39.79 88.16 40.14 90.23 40.49 89.19 40.83 92.45 41.18 92.16 41.53 94.23 41.88 92.9 42.23 91.86 42.58 89.79 42.93 90.68 43.28 88.31 43.63 89.79 43.98 89.49 44.33 91.42 44.67 89.05 45.02 93.34 45.37 93.05 45.72 91.56 46.07 91.86 46.42 91.86 46.77 90.38 47.12 89.34 47.47 88.16 47.82 86.68 48.17 86.38 48.52 84.6 48.86 84.9 49.21 89.79 49.56 87.86 49.91 91.86 50.26 90.68 50.61 93.93 50.96 96.45 51.31 97.19 51.66 98.53 52.01 101.04 52.36 101.19 52.7 100.3 53.05 101.19 53.4 101.79 53.75 100.6 54.1 99.12 54.45 98.82 54.8 98.67 55.15 101.04 55.5 101.93 55.85 101.79 56.2 102.23 56.55 102.67 56.89 102.82 57.24 100.9 57.59 101.34 57.94 100.16 58.29 102.67 58.64 100.16 58.99 102.53 59.34 104.01 59.69 103.41 60.04 106.08 60.39 106.82 60.73 106.23 61.08 108.3 61.43 104.75 61.78 105.04 62.13 105.93 62.48 106.53 62.83 106.53 63.18 107.27 63.53 106.97 63.88 107.56 64.23 105.04 64.58 103.86 64.92 104.9 65.27 104.45 65.62 103.71 65.97 107.56 66.32 108.01 66.67 105.04 67.02 102.08 67.37 98.97 67.72 101.93 68.07 100.45 68.42 98.53 68.77 100.75 69.11 103.12 69.46 102.08 69.81 103.27 70.16 102.23 70.51 101.34 70.86 98.97 71.21 99.42 71.56 95.42 71.91 94.53 72.26 94.08 72.61 95.86 72.95 96.6 73.3 95.86 73.65 95.71 74 96.75 74.35 96.01 74.7 95.86 75.05 96.6 75.4 97.64 75.75 96.16 76.1 97.64 76.45 96.9 76.8 97.64 77.14 97.64 77.49 98.38 77.84 100.45 78.19 96.01 78.54 93.19 78.89 93.64 79.24 89.49 79.59 91.27 79.94 88.75 80.29 88.45 80.64 91.86 80.98 91.12 81.33 87.27 81.68 87.42 82.03 87.57 82.38 87.42 82.73 88.31 83.08 89.05 83.43 88.16 83.78 85.79 84.13 85.49 84.48 88.75 84.83 86.82 85.17 90.53 85.52 89.34 85.87 90.08 86.22 91.86 86.57 87.86 86.92 86.53 87.27 88.01 87.62 87.71 87.97 88.01 88.32 87.57 88.67 87.27 89.02 87.71 89.36 87.12 89.71 86.82 90.06 87.86 90.41 89.49 90.76 84.16 91.11 83.12 91.46 81.79 91.81 81.49 92.16 83.12 92.51 79.86 92.86 78.23 93.2 77.34 93.55 80.45 93.9 80.31 94.25 81.79 94.6 85.19 94.95 88.01 95.3 89.79 95.65 89.49 96 90.38 96.35 91.12 96.7 91.27 97.05 92.01 97.39 87.57 97.74 90.68 98.09 87.86 98.44 87.71 98.79 90.08 99.14 87.42 99.49 87.42 99.84 85.79 100.19 86.53 100.54 88.31 100.89 86.08 101.23 84.45 101.58 83.42 101.93 81.49 102.28 85.19 102.63 80.6 102.98 81.79 103.33 82.68 103.68 77.94 104.03 77.64 104.38 76.46 104.73 75.42 105.08 76.9 105.42 76.16 105.77 75.71 106.12 74.83 106.47 74.23 106.82 76.31 107.17 75.27 107.52 75.42 107.87 76.31 108.22 72.16 108.57 72.75 108.92 69.49 109.26 70.83 109.61 69.49 109.96 67.86 110.31 70.97 110.66 70.83 111.01 76.16 111.36 75.86 111.71 74.68 112.06 78.38 112.41 78.38 112.76 76.31 113.11 77.49 113.45 75.27 113.8 72.01 114.15 70.09 114.5 69.64 114.85 69.35 115.2 68.46 115.55 67.12 115.9 66.38 116.25 62.38 116.6 63.27 116.95 60.61 117.3 59.42 117.64 58.53 117.99 60.9 118.34 57.05 118.69 58.98 119.04 59.42 119.39 60.31 119.74 58.98 120.09 57.79 120.44 59.42 120.79 60.61 121.14 60.9 121.48 58.09 121.83 57.94 122.18 59.27 122.53 58.24 122.88 57.49 123.23 60.16 123.58 59.12 123.93 61.35 124.28 59.42 124.63 60.46 124.98 60.9 125.33 63.57 125.67 61.94 126.02 60.46 126.37 58.09 126.72 57.35 127.07 54.83 127.42 52.75 127.77 53.5 128.12 53.64 128.47 54.24 128.82 54.24 129.17 52.61 129.51 53.35 129.86 52.75 130.21 54.24 130.56 50.53 130.91 51.72 131.26 54.98 131.61 57.94 131.96 59.72 132.31 59.57 132.66 60.16 133.01 62.38 133.36 60.16 133.7 58.38 134.05 58.09 134.4 56.75 134.75 55.12 135.1 52.46 135.45 52.16 135.8 50.09 136.15 50.24 136.5 50.09 136.85 48.61 137.2 48.31 137.55 48.31 137.89 46.53 138.24 46.98 138.59 46.83 138.94 48.31 139.29 49.2 139.64 48.46 139.99 49.79 140.34 49.79 140.69 49.94 141.04 50.53 141.39 52.31 141.73 49.94 142.08 50.68 142.43 49.64 142.78 47.13 143.13 50.53 143.48 48.61 143.83 48.61 144.18 46.68 144.53 46.09 144.88 47.42 145.23 49.94 145.58 50.98 145.92 51.72 146.27 50.38 146.62 52.9 146.97 51.87 147.32 49.05 147.67 48.9 148.02 50.38 148.37 50.24 148.72 48.16 149.07 45.94 149.42 48.9 149.76 48.61 150.11 47.42 150.46 49.79 150.81 50.24 151.16 51.57 151.51 50.83 151.86 52.16 152.21 52.61 152.56 52.31 152.91 52.31 153.26 53.35 153.61 53.64 153.95 55.57 154.3 60.16 154.65 59.27 155 62.23 155.35 59.72 155.7 58.38 156.05 60.9 156.4 63.72 156.75 62.23 157.1 62.68 157.45 62.09 157.79 63.42 158.14 63.42 158.49 61.94 158.84 61.2 159.19 63.72 159.54 63.27 159.89 56.75 160.24 57.79 160.59 53.94 160.94 54.38 161.29 54.24 161.64 55.12 161.98 57.35 162.33 56.61 162.68 57.2 163.03 56.01 163.38 54.09 163.73 53.5 164.08 49.05 164.43 47.72 164.78 48.46 165.13 48.01 165.48 47.57 165.83 48.01 166.17 49.35 166.52 53.2 166.87 56.61 167.22 57.35 167.57 58.68 167.92 56.46 168.27 55.87 168.62 57.94 168.97 56.61 169.32 54.53 169.67 54.24 170.01 53.5 170.36 54.24 170.71 56.31 171.06 61.05 171.41 64.16 171.76 66.68 172.11 68.75 172.46 69.2 172.81 65.94 173.16 68.6 173.51 67.57 173.86 66.38 174.2 65.94 174.55 68.9 174.9 73.64 175.25 74.09 175.6 74.68 175.95 74.97 176.3 75.12 176.65 73.94 177 73.49 177.35 75.27 177.7 75.12 178.04 73.79 178.39 75.27 178.74 72.16 179.09 70.53 179.44 74.53 179.79 74.09 180.14 71.86 180.49 71.12 180.84 73.79 181.19 74.53 181.54 74.09 181.89 75.42 182.23 74.83 182.58 77.34 182.93 78.53 183.28 78.83 183.63 75.71 183.98 75.57 184.33 72.6 184.68 74.97 185.03 78.38 185.38 78.68 185.73 77.64 186.08 78.23 186.42 78.08 186.77 77.64 187.12 79.42 187.47 78.53 187.82 78.53 188.17 78.53 188.52 75.57 188.87 77.2 189.22 78.97 189.57 76.75 189.92 77.94 190.26 78.68 190.61 79.27 190.96 79.86 191.31 80.9 191.66 78.97 192.01 82.82 192.36 82.53 192.71 79.71 193.06 79.71 193.41 78.08 193.76 80.31 194.11 79.27 194.45 82.68 194.8 82.68 195.15 83.12 195.5 82.68 195.85 82.38 196.2 82.38"/>
      </g>
      <g stroke-width="0.3" fill="#000000" fill-opacity="0.000" class="geometry" stroke-dasharray="none" stroke="#FDAE61" id="img-e317d808-16">
        <path fill="none" d="M21.98,79.27 L 22.33 81.79 22.68 84.45 23.03 83.42 23.38 80.31 23.73 78.68 24.08 80.31 24.42 83.42 24.77 81.2 25.12 79.27 25.47 79.42 25.82 80.9 26.17 81.05 26.52 80.6 26.87 81.64 27.22 78.83 27.57 77.64 27.92 76.46 28.27 74.97 28.61 76.75 28.96 76.16 29.31 77.05 29.66 77.94 30.01 74.83 30.36 72.01 30.71 73.49 31.06 74.23 31.41 73.2 31.76 71.72 32.11 71.86 32.45 72.75 32.8 72.01 33.15 71.27 33.5 73.64 33.85 75.12 34.2 76.6 34.55 77.49 34.9 75.71 35.25 75.57 35.6 74.68 35.95 73.94 36.3 75.42 36.64 74.68 36.99 76.6 37.34 79.57 37.69 79.27 38.04 82.82 38.39 79.71 38.74 78.23 39.09 75.12 39.44 74.68 39.79 74.68 40.14 74.38 40.49 75.42 40.83 74.97 41.18 74.53 41.53 75.12 41.88 73.49 42.23 70.83 42.58 71.12 42.93 74.83 43.28 73.2 43.63 72.16 43.98 69.94 44.33 66.68 44.67 69.49 45.02 67.42 45.37 67.72 45.72 64.16 46.07 64.01 46.42 65.94 46.77 67.12 47.12 69.49 47.47 70.83 47.82 69.64 48.17 75.12 48.52 75.86 48.86 77.2 49.21 74.23 49.56 75.42 49.91 76.75 50.26 75.27 50.61 74.09 50.96 76.31 51.31 78.08 51.66 78.23 52.01 75.71 52.36 74.38 52.7 71.27 53.05 70.38 53.4 70.53 53.75 70.23 54.1 68.6 54.45 68.16 54.8 65.2 55.15 67.57 55.5 68.31 55.85 68.46 56.2 69.49 56.55 69.35 56.89 70.68 57.24 72.31 57.59 68.9 57.94 70.38 58.29 70.97 58.64 72.01 58.99 73.94 59.34 73.94 59.69 72.9 60.04 71.27 60.39 70.83 60.73 70.68 61.08 69.49 61.43 64.75 61.78 63.72 62.13 64.61 62.48 68.9 62.83 65.49 63.18 64.75 63.53 66.23 63.88 64.16 64.23 63.72 64.58 61.05 64.92 59.86 65.27 61.05 65.62 63.12 65.97 63.27 66.32 65.35 66.67 65.49 67.02 68.75 67.37 70.38 67.72 69.79 68.07 65.94 68.42 65.35 68.77 66.38 69.11 63.57 69.46 60.9 69.81 63.86 70.16 59.86 70.51 62.23 70.86 59.86 71.21 59.86 71.56 56.61 71.91 55.72 72.26 56.01 72.61 56.46 72.95 56.61 73.3 54.09 73.65 54.83 74 54.83 74.35 55.72 74.7 55.27 75.05 54.68 75.4 55.57 75.75 55.57 76.1 55.72 76.45 53.05 76.8 50.53 77.14 50.53 77.49 51.57 77.84 51.57 78.19 53.79 78.54 54.83 78.89 55.42 79.24 56.01 79.59 57.05 79.94 56.61 80.29 59.57 80.64 60.01 80.98 58.83 81.33 58.24 81.68 59.86 82.03 60.75 82.38 61.49 82.73 64.46 83.08 63.72 83.43 62.53 83.78 61.05 84.13 64.31 84.48 64.46 84.83 63.27 85.17 62.83 85.52 61.49 85.87 68.75 86.22 68.01 86.57 70.83 86.92 72.01 87.27 74.53 87.62 73.49 87.97 74.97 88.32 74.23 88.67 78.23 89.02 78.38 89.36 80.16 89.71 77.2 90.06 78.38 90.41 78.83 90.76 77.64 91.11 77.2 91.46 77.2 91.81 78.97 92.16 77.64 92.51 78.97 92.86 77.2 93.2 76.6 93.55 76.46 93.9 76.31 94.25 76.9 94.6 77.2 94.95 76.31 95.3 76.9 95.65 77.49 96 84.9 96.35 86.23 96.7 86.08 97.05 88.6 97.39 89.34 97.74 90.23 98.09 89.79 98.44 90.38 98.79 90.53 99.14 92.31 99.49 94.23 99.84 92.31 100.19 91.56 100.54 93.93 100.89 93.34 101.23 87.27 101.58 88.45 101.93 89.49 102.28 90.53 102.63 86.82 102.98 89.64 103.33 89.19 103.68 90.23 104.03 87.42 104.38 84.45 104.73 86.38 105.08 84.16 105.42 86.53 105.77 85.79 106.12 85.19 106.47 87.27 106.82 87.57 107.17 90.38 107.52 92.31 107.87 91.27 108.22 91.56 108.57 93.79 108.92 93.93 109.26 91.56 109.61 91.86 109.96 93.49 110.31 94.38 110.66 94.82 111.01 93.49 111.36 89.34 111.71 86.38 112.06 85.94 112.41 84.6 112.76 87.71 113.11 90.68 113.45 91.12 113.8 90.53 114.15 91.42 114.5 92.75 114.85 92.6 115.2 93.49 115.55 92.75 115.9 92.01 116.25 93.49 116.6 91.12 116.95 89.79 117.3 86.97 117.64 85.19 117.99 84.45 118.34 83.27 118.69 80.75 119.04 80.75 119.39 80.75 119.74 82.68 120.09 85.19 120.44 84.45 120.79 85.94 121.14 84.31 121.48 89.19 121.83 90.53 122.18 91.86 122.53 92.16 122.88 89.94 123.23 88.16 123.58 88.45 123.93 87.86 124.28 88.16 124.63 85.49 124.98 85.94 125.33 90.08 125.67 87.86 126.02 88.45 126.37 90.23 126.72 89.34 127.07 87.42 127.42 83.71 127.77 83.42 128.12 84.75 128.47 83.57 128.82 82.82 129.17 82.53 129.51 81.94 129.86 82.08 130.21 81.05 130.56 80.31 130.91 83.42 131.26 84.31 131.61 88.31 131.96 90.97 132.31 89.94 132.66 89.94 133.01 89.64 133.36 92.01 133.7 93.34 134.05 94.08 134.4 98.67 134.75 98.53 135.1 95.71 135.45 95.71 135.8 94.97 136.15 93.49 136.5 87.86 136.85 88.9 137.2 87.71 137.55 89.49 137.89 91.42 138.24 93.34 138.59 90.38 138.94 91.42 139.29 91.12 139.64 92.6 139.99 93.19 140.34 91.86 140.69 94.38 141.04 95.27 141.39 97.49 141.73 97.93 142.08 99.12 142.43 97.05 142.78 97.05 143.13 95.56 143.48 92.45 143.83 90.68 144.18 91.27 144.53 90.82 144.88 87.57 145.23 88.01 145.58 86.23 145.92 86.08 146.27 85.34 146.62 83.12 146.97 81.05 147.32 81.49 147.67 79.27 148.02 81.79 148.37 82.38 148.72 82.82 149.07 81.64 149.42 77.79 149.76 77.34 150.11 76.9 150.46 79.71 150.81 86.38 151.16 86.82 151.51 89.19 151.86 84.6 152.21 85.34 152.56 86.23 152.91 85.94 153.26 88.6 153.61 91.56 153.95 91.56 154.3 92.9 154.65 91.27 155 91.42 155.35 92.31 155.7 90.97 156.05 90.53 156.4 88.75 156.75 90.82 157.1 89.94 157.45 92.31 157.79 91.86 158.14 95.56 158.49 95.12 158.84 93.05 159.19 90.08 159.54 91.27 159.89 92.75 160.24 86.68 160.59 84.6 160.94 85.49 161.29 84.6 161.64 84.9 161.98 85.19 162.33 81.2 162.68 83.86 163.03 85.34 163.38 85.05 163.73 82.68 164.08 79.71 164.43 80.9 164.78 84.6 165.13 87.71 165.48 85.19 165.83 83.86 166.17 83.57 166.52 85.49 166.87 87.27 167.22 87.27 167.57 90.08 167.92 86.68 168.27 90.68 168.62 90.38 168.97 90.68 169.32 88.6 169.67 90.53 170.01 90.23 170.36 92.75 170.71 89.49 171.06 92.45 171.41 93.49 171.76 94.38 172.11 94.53 172.46 95.12 172.81 95.12 173.16 94.82 173.51 96.45 173.86 96.3 174.2 99.56 174.55 96.9 174.9 91.71 175.25 88.45 175.6 86.53 175.95 87.12 176.3 90.08 176.65 91.71 177 96.45 177.35 96.45 177.7 96.3 178.04 96.9 178.39 97.34 178.74 97.64 179.09 98.97 179.44 100.3 179.79 98.67 180.14 98.67 180.49 99.71 180.84 101.49 181.19 103.71 181.54 105.04 181.89 105.78 182.23 102.08 182.58 102.82 182.93 104.3 183.28 105.93 183.63 106.23 183.98 107.56 184.33 108.9 184.68 109.78 185.03 112.3 185.38 111.56 185.73 112.01 186.08 112.3 186.42 113.93 186.77 113.93 187.12 113.64 187.47 114.67 187.82 114.23 188.17 111.41 188.52 110.53 188.87 110.67 189.22 111.86 189.57 111.41 189.92 113.49 190.26 115.12 190.61 115.56 190.96 117.04 191.31 115.56 191.66 116.6 192.01 118.08 192.36 117.49 192.71 117.04 193.06 117.04 193.41 119.86 193.76 117.93 194.11 116.75 194.45 116.75 194.8 115.71 195.15 115.86 195.5 114.82 195.85 115.12 196.2 110.82"/>
      </g>
      <g stroke-width="0.3" fill="#000000" fill-opacity="0.000" class="geometry" stroke-dasharray="none" stroke="#F46D43" id="img-e317d808-17">
        <path fill="none" d="M21.98,79.27 L 22.33 79.71 22.68 77.2 23.03 80.31 23.38 78.53 23.73 79.71 24.08 75.27 24.42 72.6 24.77 69.79 25.12 71.86 25.47 75.57 25.82 74.83 26.17 73.34 26.52 71.57 26.87 72.75 27.22 74.68 27.57 78.83 27.92 76.46 28.27 82.23 28.61 82.38 28.96 83.42 29.31 86.38 29.66 83.71 30.01 80.01 30.36 80.16 30.71 78.08 31.06 77.64 31.41 80.6 31.76 80.9 32.11 77.34 32.45 77.05 32.8 79.86 33.15 80.6 33.5 82.97 33.85 82.08 34.2 80.16 34.55 81.05 34.9 78.53 35.25 79.86 35.6 83.12 35.95 85.49 36.3 82.23 36.64 81.79 36.99 80.45 37.34 79.12 37.69 77.05 38.04 79.42 38.39 77.94 38.74 79.12 39.09 78.23 39.44 83.71 39.79 81.05 40.14 80.16 40.49 78.08 40.83 81.05 41.18 82.68 41.53 85.49 41.88 82.38 42.23 83.27 42.58 79.57 42.93 80.45 43.28 80.16 43.63 81.94 43.98 80.45 44.33 80.31 44.67 78.83 45.02 77.64 45.37 80.01 45.72 78.53 46.07 77.94 46.42 79.42 46.77 77.94 47.12 74.83 47.47 76.31 47.82 77.79 48.17 79.12 48.52 78.53 48.86 77.49 49.21 77.2 49.56 76.16 49.91 75.86 50.26 75.42 50.61 75.42 50.96 72.9 51.31 72.6 51.66 69.64 52.01 71.42 52.36 73.49 52.7 75.12 53.05 76.16 53.4 75.86 53.75 78.23 54.1 78.97 54.45 80.01 54.8 78.53 55.15 79.27 55.5 77.34 55.85 78.23 56.2 81.34 56.55 78.97 56.89 77.94 57.24 77.79 57.59 77.05 57.94 75.27 58.29 73.94 58.64 78.68 58.99 80.6 59.34 80.6 59.69 79.71 60.04 77.49 60.39 78.97 60.73 79.86 61.08 79.27 61.43 81.64 61.78 81.64 62.13 82.23 62.48 82.53 62.83 82.38 63.18 83.57 63.53 81.49 63.88 81.2 64.23 86.53 64.58 89.79 64.92 87.42 65.27 86.38 65.62 87.12 65.97 85.79 66.32 85.34 66.67 85.64 67.02 84.45 67.37 82.23 67.72 81.34 68.07 83.42 68.42 82.82 68.77 84.45 69.11 85.34 69.46 84.45 69.81 85.19 70.16 83.57 70.51 79.57 70.86 79.42 71.21 81.79 71.56 79.42 71.91 76.6 72.26 76.31 72.61 75.71 72.95 72.46 73.3 75.71 73.65 78.38 74 80.01 74.35 77.64 74.7 78.23 75.05 77.2 75.4 77.2 75.75 76.01 76.1 74.97 76.45 73.2 76.8 73.34 77.14 71.42 77.49 70.38 77.84 70.83 78.19 69.49 78.54 69.79 78.89 73.2 79.24 71.27 79.59 70.83 79.94 68.31 80.29 68.16 80.64 67.12 80.98 65.2 81.33 62.38 81.68 64.16 82.03 62.68 82.38 62.23 82.73 60.16 83.08 62.23 83.43 62.68 83.78 61.94 84.13 62.23 84.48 60.16 84.83 63.12 85.17 62.53 85.52 65.35 85.87 62.68 86.22 60.31 86.57 60.61 86.92 62.23 87.27 63.12 87.62 62.68 87.97 58.38 88.32 59.42 88.67 58.68 89.02 59.42 89.36 59.12 89.71 60.01 90.06 60.16 90.41 59.57 90.76 57.05 91.11 55.72 91.46 56.16 91.81 58.09 92.16 55.42 92.51 56.31 92.86 52.01 93.2 51.13 93.55 49.94 93.9 50.53 94.25 50.24 94.6 49.64 94.95 51.27 95.3 50.09 95.65 50.24 96 50.09 96.35 50.98 96.7 51.42 97.05 52.75 97.39 52.9 97.74 51.72 98.09 52.01 98.44 50.53 98.79 50.53 99.14 49.94 99.49 50.09 99.84 49.5 100.19 46.39 100.54 48.01 100.89 48.46 101.23 49.35 101.58 48.9 101.93 49.05 102.28 49.5 102.63 48.46 102.98 48.76 103.33 48.31 103.68 46.53 104.03 46.98 104.38 46.09 104.73 46.39 105.08 46.09 105.42 44.9 105.77 45.35 106.12 46.39 106.47 45.79 106.82 44.9 107.17 48.76 107.52 50.98 107.87 51.42 108.22 53.94 108.57 53.5 108.92 52.46 109.26 52.01 109.61 52.75 109.96 52.31 110.31 50.53 110.66 50.09 111.01 50.09 111.36 51.87 111.71 52.16 112.06 53.94 112.41 53.05 112.76 53.35 113.11 51.13 113.45 49.94 113.8 48.61 114.15 50.38 114.5 50.53 114.85 48.16 115.2 47.42 115.55 46.98 115.9 47.72 116.25 46.98 116.6 49.94 116.95 49.5 117.3 47.27 117.64 47.72 117.99 46.39 118.34 47.13 118.69 48.46 119.04 46.83 119.39 48.16 119.74 50.24 120.09 51.42 120.44 51.42 120.79 51.72 121.14 50.38 121.48 49.94 121.83 50.09 122.18 49.35 122.53 49.64 122.88 50.53 123.23 51.27 123.58 49.2 123.93 49.79 124.28 51.42 124.63 53.64 124.98 55.72 125.33 55.57 125.67 51.87 126.02 50.53 126.37 53.2 126.72 55.57 127.07 53.05 127.42 52.16 127.77 53.94 128.12 55.87 128.47 56.16 128.82 57.94 129.17 55.27 129.51 54.68 129.86 53.05 130.21 50.83 130.56 52.46 130.91 50.68 131.26 51.13 131.61 52.16 131.96 50.68 132.31 50.38 132.66 48.46 133.01 48.46 133.36 49.94 133.7 48.76 134.05 50.24 134.4 49.94 134.75 49.35 135.1 48.46 135.45 51.72 135.8 50.53 136.15 51.87 136.5 53.64 136.85 54.98 137.2 53.35 137.55 52.75 137.89 50.83 138.24 50.53 138.59 48.61 138.94 47.87 139.29 48.76 139.64 48.76 139.99 48.31 140.34 44.61 140.69 44.9 141.04 44.46 141.39 43.87 141.73 44.46 142.08 42.24 142.43 40.46 142.78 36.9 143.13 36.46 143.48 37.5 143.83 38.09 144.18 37.65 144.53 37.2 144.88 37.2 145.23 36.16 145.58 34.68 145.92 35.13 146.27 34.83 146.62 33.5 146.97 33.65 147.32 34.09 147.67 32.91 148.02 33.65 148.37 32.46 148.72 32.31 149.07 33.05 149.42 33.65 149.76 33.79 150.11 34.39 150.46 35.72 150.81 35.13 151.16 35.72 151.51 38.53 151.86 39.87 152.21 39.87 152.56 38.09 152.91 40.02 153.26 39.87 153.61 37.79 153.95 38.98 154.3 37.65 154.65 39.42 155 41.64 155.35 40.46 155.7 40.16 156.05 39.57 156.4 39.72 156.75 37.94 157.1 37.05 157.45 38.83 157.79 37.35 158.14 37.5 158.49 37.65 158.84 37.5 159.19 35.87 159.54 34.39 159.89 36.02 160.24 36.61 160.59 35.42 160.94 34.98 161.29 34.53 161.64 32.61 161.98 32.16 162.33 33.05 162.68 32.76 163.03 33.05 163.38 33.2 163.73 33.94 164.08 34.83 164.43 33.79 164.78 33.35 165.13 32.61 165.48 32.31 165.83 33.05 166.17 34.68 166.52 34.39 166.87 35.13 167.22 34.68 167.57 32.31 167.92 32.61 168.27 33.05 168.62 35.28 168.97 34.24 169.32 35.72 169.67 37.35 170.01 38.24 170.36 38.98 170.71 38.24 171.06 40.31 171.41 41.64 171.76 41.64 172.11 40.9 172.46 40.16 172.81 38.53 173.16 39.57 173.51 38.53 173.86 36.31 174.2 35.72 174.55 34.68 174.9 33.5 175.25 33.5 175.6 34.24 175.95 32.61 176.3 32.46 176.65 34.09 177 34.09 177.35 33.2 177.7 32.76 178.04 33.05 178.39 32.91 178.74 34.09 179.09 34.83 179.44 34.83 179.79 34.83 180.14 34.68 180.49 34.09 180.84 34.53 181.19 32.76 181.54 31.28 181.89 30.24 182.23 30.24 182.58 29.94 182.93 29.35 183.28 29.79 183.63 30.09 183.98 30.09 184.33 30.39 184.68 29.2 185.03 29.5 185.38 30.24 185.73 30.83 186.08 31.13 186.42 31.72 186.77 31.42 187.12 32.46 187.47 33.35 187.82 33.94 188.17 34.83 188.52 34.83 188.87 34.53 189.22 35.87 189.57 36.16 189.92 37.35 190.26 35.13 190.61 35.72 190.96 35.87 191.31 36.46 191.66 35.87 192.01 36.76 192.36 36.16 192.71 34.68 193.06 35.72 193.41 34.83 193.76 34.83 194.11 35.28 194.45 35.72 194.8 33.5 195.15 31.87 195.5 32.61 195.85 32.46 196.2 32.02"/>
      </g>
      <g stroke-width="0.3" fill="#000000" fill-opacity="0.000" class="geometry" stroke-dasharray="none" stroke="#D53E4F" id="img-e317d808-18">
        <path fill="none" d="M21.98,79.27 L 22.33 82.23 22.68 83.42 23.03 82.97 23.38 81.34 23.73 81.2 24.08 85.79 24.42 83.42 24.77 84.45 25.12 85.94 25.47 89.05 25.82 88.75 26.17 88.6 26.52 85.94 26.87 85.34 27.22 85.34 27.57 85.34 27.92 82.23 28.27 80.75 28.61 79.86 28.96 78.53 29.31 74.38 29.66 74.09 30.01 78.38 30.36 77.79 30.71 79.12 31.06 81.2 31.41 81.49 31.76 77.05 32.11 74.38 32.45 74.53 32.8 70.09 33.15 70.23 33.5 73.94 33.85 73.94 34.2 72.16 34.55 71.42 34.9 75.12 35.25 76.31 35.6 76.46 35.95 80.16 36.3 82.08 36.64 78.97 36.99 76.9 37.34 75.27 37.69 72.6 38.04 73.05 38.39 74.38 38.74 73.49 39.09 73.2 39.44 70.83 39.79 69.94 40.14 71.12 40.49 70.38 40.83 68.16 41.18 70.83 41.53 71.57 41.88 70.68 42.23 69.79 42.58 71.86 42.93 76.31 43.28 73.64 43.63 74.83 43.98 74.97 44.33 75.12 44.67 73.79 45.02 73.34 45.37 70.97 45.72 73.05 46.07 72.75 46.42 69.64 46.77 72.46 47.12 70.23 47.47 66.83 47.82 66.38 48.17 66.83 48.52 66.23 48.86 65.64 49.21 66.68 49.56 69.49 49.91 69.05 50.26 71.42 50.61 68.9 50.96 72.46 51.31 74.83 51.66 73.49 52.01 72.9 52.36 74.53 52.7 72.75 53.05 72.46 53.4 71.27 53.75 72.01 54.1 71.72 54.45 72.31 54.8 74.68 55.15 76.16 55.5 78.53 55.85 74.53 56.2 76.9 56.55 75.57 56.89 76.16 57.24 74.38 57.59 74.68 57.94 73.34 58.29 76.16 58.64 76.6 58.99 76.46 59.34 73.34 59.69 69.79 60.04 69.64 60.39 67.12 60.73 65.2 61.08 65.05 61.43 65.94 61.78 62.68 62.13 60.31 62.48 59.72 62.83 61.49 63.18 62.68 63.53 63.86 63.88 65.2 64.23 66.53 64.58 67.72 64.92 65.94 65.27 63.86 65.62 65.05 65.97 66.09 66.32 62.83 66.67 64.31 67.02 65.79 67.37 62.38 67.72 61.79 68.07 59.86 68.42 60.01 68.77 61.49 69.11 61.49 69.46 59.72 69.81 58.24 70.16 58.68 70.51 58.83 70.86 56.75 71.21 56.31 71.56 51.42 71.91 54.83 72.26 54.68 72.61 55.42 72.95 52.31 73.3 50.09 73.65 45.79 74 43.87 74.35 44.16 74.7 42.09 75.05 42.53 75.4 43.27 75.75 45.05 76.1 42.24 76.45 42.83 76.8 41.79 77.14 41.94 77.49 40.76 77.84 42.24 78.19 41.05 78.54 39.87 78.89 41.05 79.24 41.05 79.59 41.94 79.94 41.64 80.29 42.24 80.64 40.46 80.98 37.35 81.33 38.09 81.68 36.61 82.03 36.16 82.38 36.02 82.73 38.09 83.08 37.79 83.43 37.79 83.78 37.94 84.13 37.35 84.48 37.65 84.83 39.42 85.17 38.68 85.52 38.39 85.87 39.57 86.22 39.87 86.57 39.27 86.92 38.39 87.27 36.02 87.62 35.42 87.97 33.94 88.32 35.57 88.67 37.2 89.02 38.98 89.36 40.02 89.71 40.46 90.06 38.98 90.41 38.98 90.76 37.35 91.11 36.16 91.46 35.42 91.81 35.87 92.16 36.16 92.51 35.13 92.86 37.5 93.2 36.16 93.55 35.57 93.9 34.53 94.25 33.05 94.6 33.2 94.95 35.28 95.3 33.79 95.65 32.91 96 31.42 96.35 31.13 96.7 32.02 97.05 32.61 97.39 32.61 97.74 33.35 98.09 33.35 98.44 33.05 98.79 33.79 99.14 34.98 99.49 34.98 99.84 34.53 100.19 32.76 100.54 33.2 100.89 34.83 101.23 35.87 101.58 36.02 101.93 36.9 102.28 36.61 102.63 36.02 102.98 34.83 103.33 35.57 103.68 35.57 104.03 36.02 104.38 35.72 104.73 35.13 105.08 36.16 105.42 34.83 105.77 34.53 106.12 33.65 106.47 32.76 106.82 32.91 107.17 33.2 107.52 32.61 107.87 32.02 108.22 32.61 108.57 32.16 108.92 31.72 109.26 32.61 109.61 32.76 109.96 32.46 110.31 31.28 110.66 30.68 111.01 31.13 111.36 31.42 111.71 32.02 112.06 32.76 112.41 33.94 112.76 33.65 113.11 34.98 113.45 36.02 113.8 35.72 114.15 35.13 114.5 34.68 114.85 35.42 115.2 35.57 115.55 35.42 115.9 35.42 116.25 34.53 116.6 34.68 116.95 34.09 117.3 34.53 117.64 32.76 117.99 30.68 118.34 31.57 118.69 31.28 119.04 30.39 119.39 30.54 119.74 30.39 120.09 29.94 120.44 29.2 120.79 28.61 121.14 28.46 121.48 28.91 121.83 29.35 122.18 30.09 122.53 30.39 122.88 30.98 123.23 30.24 123.58 30.98 123.93 32.02 124.28 32.02 124.63 31.57 124.98 30.39 125.33 29.94 125.67 29.65 126.02 30.39 126.37 30.54 126.72 31.87 127.07 31.42 127.42 30.68 127.77 32.02 128.12 32.91 128.47 34.53 128.82 32.76 129.17 31.72 129.51 30.98 129.86 30.98 130.21 29.65 130.56 30.24 130.91 30.68 131.26 31.13 131.61 30.54 131.96 30.54 132.31 30.98 132.66 31.13 133.01 31.57 133.36 30.39 133.7 30.39 134.05 29.94 134.4 30.54 134.75 30.68 135.1 30.54 135.45 30.39 135.8 30.09 136.15 30.09 136.5 30.98 136.85 31.57 137.2 33.05 137.55 32.61 137.89 32.61 138.24 33.35 138.59 33.35 138.94 33.2 139.29 33.05 139.64 30.98 139.99 32.16 140.34 32.76 140.69 32.61 141.04 33.35 141.39 34.53 141.73 33.65 142.08 32.16 142.43 33.79 142.78 34.68 143.13 34.09 143.48 34.09 143.83 33.65 144.18 35.28 144.53 35.72 144.88 37.35 145.23 38.39 145.58 37.94 145.92 37.65 146.27 36.31 146.62 37.2 146.97 37.35 147.32 37.2 147.67 36.61 148.02 34.68 148.37 34.98 148.72 35.13 149.07 35.87 149.42 34.39 149.76 35.87 150.11 36.16 150.46 35.28 150.81 34.83 151.16 36.76 151.51 36.46 151.86 36.46 152.21 36.9 152.56 36.46 152.91 36.02 153.26 36.02 153.61 35.72 153.95 34.39 154.3 32.91 154.65 33.35 155 32.16 155.35 31.72 155.7 31.28 156.05 30.98 156.4 31.42 156.75 31.28 157.1 32.31 157.45 33.35 157.79 34.53 158.14 35.42 158.49 35.72 158.84 34.53 159.19 35.57 159.54 34.68 159.89 36.31 160.24 36.9 160.59 35.57 160.94 34.39 161.29 34.53 161.64 34.53 161.98 35.72 162.33 37.05 162.68 39.87 163.03 40.9 163.38 42.68 163.73 42.98 164.08 44.76 164.43 45.94 164.78 45.35 165.13 43.57 165.48 42.83 165.83 41.79 166.17 42.24 166.52 42.39 166.87 46.09 167.22 45.35 167.57 44.02 167.92 43.42 168.27 43.87 168.62 43.57 168.97 45.64 169.32 46.98 169.67 48.61 170.01 48.16 170.36 48.9 170.71 50.68 171.06 49.94 171.41 51.42 171.76 51.27 172.11 51.57 172.46 50.38 172.81 49.79 173.16 48.01 173.51 50.09 173.86 50.83 174.2 51.72 174.55 53.2 174.9 51.57 175.25 52.01 175.6 49.2 175.95 46.98 176.3 47.13 176.65 47.42 177 46.24 177.35 44.02 177.7 44.9 178.04 44.61 178.39 47.42 178.74 46.83 179.09 44.02 179.44 43.13 179.79 41.2 180.14 41.94 180.49 40.9 180.84 41.64 181.19 42.24 181.54 42.98 181.89 42.98 182.23 45.5 182.58 46.39 182.93 45.94 183.28 46.68 183.63 49.79 183.98 50.83 184.33 50.09 184.68 48.61 185.03 48.01 185.38 46.39 185.73 45.94 186.08 45.2 186.42 46.39 186.77 47.72 187.12 46.24 187.47 44.31 187.82 46.68 188.17 44.76 188.52 42.53 188.87 43.13 189.22 46.39 189.57 46.53 189.92 48.01 190.26 47.42 190.61 47.13 190.96 47.13 191.31 45.94 191.66 47.72 192.01 47.72 192.36 47.57 192.71 48.01 193.06 47.72 193.41 47.87 193.76 51.42 194.11 49.64 194.45 50.09 194.8 51.57 195.15 49.2 195.5 47.57 195.85 49.5 196.2 49.79"/>
      </g>
      <g stroke-width="0.3" fill="#000000" fill-opacity="0.000" class="geometry" stroke-dasharray="none" stroke="#9E0142" id="img-e317d808-19">
        <path fill="none" d="M21.98,79.27 L 22.33 80.01 22.68 81.34 23.03 77.64 23.38 77.94 23.73 80.75 24.08 80.9 24.42 81.2 24.77 83.57 25.12 84.6 25.47 84.9 25.82 85.05 26.17 88.9 26.52 92.6 26.87 89.64 27.22 90.08 27.57 90.23 27.92 89.19 28.27 86.68 28.61 84.16 28.96 86.23 29.31 88.75 29.66 89.94 30.01 90.08 30.36 90.97 30.71 89.05 31.06 89.34 31.41 90.08 31.76 91.27 32.11 91.56 32.45 89.19 32.8 88.75 33.15 86.68 33.5 84.16 33.85 82.68 34.2 83.71 34.55 81.34 34.9 83.86 35.25 82.23 35.6 81.64 35.95 81.64 36.3 79.42 36.64 80.75 36.99 77.49 37.34 78.23 37.69 81.49 38.04 82.97 38.39 80.6 38.74 83.57 39.09 82.82 39.44 82.97 39.79 85.05 40.14 83.57 40.49 82.68 40.83 80.01 41.18 81.34 41.53 82.82 41.88 83.27 42.23 86.08 42.58 86.38 42.93 88.31 43.28 88.01 43.63 90.68 43.98 89.79 44.33 91.27 44.67 92.01 45.02 94.68 45.37 92.6 45.72 93.93 46.07 91.12 46.42 93.19 46.77 95.86 47.12 101.19 47.47 99.56 47.82 97.79 48.17 93.64 48.52 90.23 48.86 93.19 49.21 92.6 49.56 92.01 49.91 89.79 50.26 91.86 50.61 93.05 50.96 95.56 51.31 97.64 51.66 101.34 52.01 103.27 52.36 105.04 52.7 106.08 53.05 104.3 53.4 102.67 53.75 102.08 54.1 102.38 54.45 102.23 54.8 101.79 55.15 104.45 55.5 105.64 55.85 103.27 56.2 100.75 56.55 99.71 56.89 102.38 57.24 101.93 57.59 102.23 57.94 102.08 58.29 105.49 58.64 107.12 58.99 108.15 59.34 106.82 59.69 106.97 60.04 105.78 60.39 105.64 60.73 103.27 61.08 102.23 61.43 100.9 61.78 105.49 62.13 107.27 62.48 105.04 62.83 104.01 63.18 102.67 63.53 105.49 63.88 105.04 64.23 103.86 64.58 104.45 64.92 103.71 65.27 104.01 65.62 102.08 65.97 102.38 66.32 101.49 66.67 102.82 67.02 103.86 67.37 104.9 67.72 101.04 68.07 102.38 68.42 101.34 68.77 101.79 69.11 99.71 69.46 102.23 69.81 101.34 70.16 102.38 70.51 104.16 70.86 105.04 71.21 109.49 71.56 111.86 71.91 110.23 72.26 108.6 72.61 106.97 72.95 104.6 73.3 106.97 73.65 107.86 74 108.15 74.35 110.23 74.7 110.53 75.05 111.12 75.4 110.08 75.75 108.01 76.1 107.12 76.45 107.71 76.8 105.64 77.14 107.27 77.49 107.56 77.84 107.41 78.19 106.82 78.54 104.75 78.89 103.71 79.24 100.6 79.59 97.49 79.94 99.12 80.29 98.53 80.64 99.71 80.98 101.79 81.33 102.82 81.68 100.9 82.03 101.34 82.38 99.27 82.73 102.08 83.08 102.67 83.43 105.78 83.78 106.53 84.13 105.78 84.48 103.27 84.83 103.56 85.17 103.86 85.52 104.16 85.87 103.27 86.22 104.45 86.57 101.19 86.92 104.16 87.27 103.27 87.62 104.6 87.97 106.67 88.32 109.04 88.67 110.97 89.02 108.15 89.36 107.41 89.71 110.97 90.06 108.9 90.41 108.6 90.76 109.64 91.11 111.27 91.46 111.56 91.81 112.01 92.16 109.49 92.51 110.23 92.86 109.19 93.2 108.75 93.55 109.19 93.9 106.53 94.25 105.34 94.6 103.12 94.95 103.27 95.3 102.08 95.65 102.53 96 103.41 96.35 106.53 96.7 106.67 97.05 107.86 97.39 109.34 97.74 105.04 98.09 102.08 98.44 101.93 98.79 100.01 99.14 99.27 99.49 102.67 99.84 106.67 100.19 105.19 100.54 109.19 100.89 110.67 101.23 111.56 101.58 108.15 101.93 106.38 102.28 102.82 102.63 102.38 102.98 101.64 103.33 104.75 103.68 104.75 104.03 102.97 104.38 103.86 104.73 103.41 105.08 101.04 105.42 100.75 105.77 99.12 106.12 96.45 106.47 96.01 106.82 95.27 107.17 95.86 107.52 97.05 107.87 99.86 108.22 99.42 108.57 100.3 108.92 102.23 109.26 102.82 109.61 101.64 109.96 101.49 110.31 102.53 110.66 100.45 111.01 101.79 111.36 104.6 111.71 103.27 112.06 104.3 112.41 103.41 112.76 103.71 113.11 103.27 113.45 102.82 113.8 100.75 114.15 98.38 114.5 99.42 114.85 98.67 115.2 97.34 115.55 98.53 115.9 98.23 116.25 97.34 116.6 99.86 116.95 99.42 117.3 100.9 117.64 100.16 117.99 98.67 118.34 96.45 118.69 92.45 119.04 89.19 119.39 92.01 119.74 90.68 120.09 94.68 120.44 94.23 120.79 93.64 121.14 92.75 121.48 90.53 121.83 89.19 122.18 93.34 122.53 88.45 122.88 88.45 123.23 89.05 123.58 89.49 123.93 88.6 124.28 89.79 124.63 90.23 124.98 89.79 125.33 88.16 125.67 89.79 126.02 92.9 126.37 92.9 126.72 93.79 127.07 93.34 127.42 94.97 127.77 98.67 128.12 96.3 128.47 94.97 128.82 94.38 129.17 97.19 129.51 97.34 129.86 97.64 130.21 99.71 130.56 100.01 130.91 101.04 131.26 101.04 131.61 101.64 131.96 101.49 132.31 100.16 132.66 101.19 133.01 100.01 133.36 100.45 133.7 98.97 134.05 96.45 134.4 97.64 134.75 98.23 135.1 98.67 135.45 98.97 135.8 96.3 136.15 94.53 136.5 94.38 136.85 93.79 137.2 95.12 137.55 93.34 137.89 91.56 138.24 94.82 138.59 97.19 138.94 98.53 139.29 94.97 139.64 97.19 139.99 94.53 140.34 93.34 140.69 93.79 141.04 94.53 141.39 94.23 141.73 95.42 142.08 101.34 142.43 102.08 142.78 102.82 143.13 101.49 143.48 100.6 143.83 103.71 144.18 103.56 144.53 102.82 144.88 105.04 145.23 106.08 145.58 105.49 145.92 104.01 146.27 106.97 146.62 108.9 146.97 105.04 147.32 104.9 147.67 103.27 148.02 102.38 148.37 102.97 148.72 101.93 149.07 100.9 149.42 98.53 149.76 100.3 150.11 98.53 150.46 97.64 150.81 98.67 151.16 100.16 151.51 102.08 151.86 102.82 152.21 100.75 152.56 102.08 152.91 102.67 153.26 102.67 153.61 101.79 153.95 104.01 154.3 103.27 154.65 106.97 155 107.71 155.35 108.6 155.7 106.82 156.05 104.9 156.4 103.71 156.75 103.86 157.1 105.93 157.45 108.45 157.79 108.45 158.14 108.45 158.49 107.41 158.84 108.9 159.19 109.93 159.54 109.64 159.89 109.49 160.24 108.45 160.59 108.01 160.94 106.67 161.29 105.19 161.64 104.16 161.98 108.45 162.33 109.64 162.68 112.9 163.03 116.6 163.38 112.75 163.73 114.67 164.08 112.6 164.43 113.49 164.78 113.93 165.13 113.19 165.48 112.3 165.83 111.27 166.17 110.38 166.52 109.19 166.87 109.49 167.22 111.41 167.57 111.12 167.92 111.41 168.27 110.67 168.62 110.53 168.97 106.23 169.32 105.78 169.67 105.34 170.01 104.6 170.36 103.12 170.71 100.9 171.06 99.71 171.41 99.42 171.76 99.27 172.11 97.93 172.46 98.82 172.81 99.27 173.16 98.53 173.51 96.3 173.86 92.9 174.2 93.49 174.55 92.31 174.9 93.49 175.25 92.45 175.6 93.34 175.95 93.19 176.3 91.56 176.65 89.94 177 88.75 177.35 89.64 177.7 91.71 178.04 89.94 178.39 89.64 178.74 89.49 179.09 88.31 179.44 90.97 179.79 92.6 180.14 92.75 180.49 92.75 180.84 92.45 181.19 93.05 181.54 93.64 181.89 88.01 182.23 86.23 182.58 84.75 182.93 85.94 183.28 89.19 183.63 90.08 183.98 88.31 184.33 92.75 184.68 92.45 185.03 93.19 185.38 90.53 185.73 89.64 186.08 90.68 186.42 88.01 186.77 88.9 187.12 92.6 187.47 91.86 187.82 90.68 188.17 89.64 188.52 90.68 188.87 88.75 189.22 91.71 189.57 85.94 189.92 84.6 190.26 83.27 190.61 86.53 190.96 86.82 191.31 86.97 191.66 88.31 192.01 90.23 192.36 91.86 192.71 90.38 193.06 86.68 193.41 86.97 193.76 87.57 194.11 88.9 194.45 87.71 194.8 89.19 195.15 93.49 195.5 93.19 195.85 93.34 196.2 93.19"/>
      </g>
    </g>
  </g>
</g>
  <g class="guide ylabels" font-size="2.82" font-family="'PT Sans Caption','Helvetica Neue','Helvetica',sans-serif" fill="#000000" id="img-e317d808-20">
    <text x="18.63" y="131.11" text-anchor="end" dy="0.35em">0</text>
    <text x="18.63" y="101.49" text-anchor="end" dy="0.35em">200</text>
    <text x="18.63" y="71.86" text-anchor="end" dy="0.35em">400</text>
    <text x="18.63" y="42.24" text-anchor="end" dy="0.35em">600</text>
    <text x="18.63" y="12.61" text-anchor="end" dy="0.35em">800</text>
  </g>
  <g font-size="3.88" font-family="'PT Sans','Helvetica Neue','Helvetica',sans-serif" fill="#000000" stroke="#000000" stroke-opacity="0.000" id="img-e317d808-21">
    <text x="8.81" y="69.86" text-anchor="middle" dy="0.35em" transform="rotate(-90, 8.81, 71.86)">population size</text>
  </g>
  <g font-size="3.88" font-family="'PT Sans','Helvetica Neue','Helvetica',sans-serif" fill="#000000" stroke="#000000" stroke-opacity="0.000" id="img-e317d808-22">
    <text x="108.92" y="5" text-anchor="middle" dy="0.6em">genetic drift with mutationrate  = 0.001 </text>
  </g>
</g>
<defs>
  <clipPath id="img-e317d808-4">
  <path d="M19.63,10.61 L 198.2 10.61 198.2 133.11 19.63 133.11" />
</clipPath>
</defs>
</svg>
