<?xml version="1.0" encoding="UTF-8"?>
<svg xmlns="http://www.w3.org/2000/svg"
     xmlns:xlink="http://www.w3.org/1999/xlink"
     xmlns:gadfly="http://www.gadflyjl.org/ns"
     version="1.2"
     width="203.2mm" height="152.4mm" viewBox="0 0 203.2 152.4"
     stroke="none"
     fill="#000000"
     stroke-width="0.3"
     font-size="3.88"
>
<g class="plotroot xscalable yscalable" id="img-512c2878-1">
  <g font-size="3.88" font-family="'PT Sans','Helvetica Neue','Helvetica',sans-serif" fill="#000000" stroke="#000000" stroke-opacity="0.000" id="img-512c2878-2">
    <text x="108.92" y="140.79" text-anchor="middle" dy="0.6em">generation number</text>
  </g>
  <g class="guide xlabels" font-size="2.82" font-family="'PT Sans Caption','Helvetica Neue','Helvetica',sans-serif" fill="#000000" id="img-512c2878-3">
    <text x="21.63" y="134.11" text-anchor="middle" dy="0.6em">0</text>
    <text x="56.55" y="134.11" text-anchor="middle" dy="0.6em">100</text>
    <text x="91.46" y="134.11" text-anchor="middle" dy="0.6em">200</text>
    <text x="126.37" y="134.11" text-anchor="middle" dy="0.6em">300</text>
    <text x="161.29" y="134.11" text-anchor="middle" dy="0.6em">400</text>
    <text x="196.2" y="134.11" text-anchor="middle" dy="0.6em">500</text>
  </g>
<g clip-path="url(#img-512c2878-4)">
  <g id="img-512c2878-5">
    <g pointer-events="visible" opacity="1" fill="#FFFFFF" stroke="#000000" stroke-opacity="0.000" class="guide background" id="img-512c2878-6">
      <rect x="19.63" y="10.61" width="178.57" height="122.5"/>
    </g>
    <g class="guide ygridlines xfixed" stroke-dasharray="0.5,0.5" stroke-width="0.2" stroke="#808080" id="img-512c2878-7">
      <path fill="none" d="M19.63,131.11 L 198.2 131.11"/>
      <path fill="none" d="M19.63,101.49 L 198.2 101.49"/>
      <path fill="none" d="M19.63,71.86 L 198.2 71.86"/>
      <path fill="none" d="M19.63,42.24 L 198.2 42.24"/>
      <path fill="none" d="M19.63,12.61 L 198.2 12.61"/>
    </g>
    <g class="guide xgridlines yfixed" stroke-dasharray="0.5,0.5" stroke-width="0.2" stroke="#808080" id="img-512c2878-8">
      <path fill="none" d="M21.63,10.61 L 21.63 133.11"/>
      <path fill="none" d="M56.55,10.61 L 56.55 133.11"/>
      <path fill="none" d="M91.46,10.61 L 91.46 133.11"/>
      <path fill="none" d="M126.37,10.61 L 126.37 133.11"/>
      <path fill="none" d="M161.29,10.61 L 161.29 133.11"/>
      <path fill="none" d="M196.2,10.61 L 196.2 133.11"/>
    </g>
    <g class="plotpanel" id="img-512c2878-9">
      <g stroke-width="0.3" fill="#000000" fill-opacity="0.000" class="geometry" stroke-dasharray="none" stroke="#3288BD" id="img-512c2878-10">
        <path fill="none" d="M21.98,71.86 L 22.33 71.27 22.68 71.57 23.03 75.12 23.38 73.34 23.73 73.79 24.08 71.86 24.42 73.49 24.77 73.05 25.12 71.12 25.47 71.72 25.82 72.46 26.17 73.2 26.52 71.72 26.87 69.35 27.22 68.46 27.57 64.75 27.92 65.79 28.27 60.9 28.61 59.72 28.96 62.09 29.31 64.46 29.66 67.12 30.01 68.01 30.36 63.42 30.71 64.16 31.06 60.01 31.41 56.31 31.76 57.05 32.11 59.12 32.45 58.83 32.8 62.98 33.15 62.53 33.5 58.83 33.85 57.94 34.2 54.09 34.55 53.64 34.9 54.53 35.25 57.2 35.6 56.46 35.95 55.72 36.3 56.61 36.64 59.86 36.99 60.16 37.34 58.98 37.69 58.09 38.04 60.75 38.39 60.46 38.74 57.94 39.09 55.57 39.44 54.98 39.79 58.68 40.14 58.09 40.49 54.53 40.83 50.09 41.18 49.05 41.53 45.79 41.88 43.72 42.23 42.39 42.58 42.53 42.93 43.87 43.28 41.79 43.63 42.83 43.98 43.27 44.33 45.64 44.67 48.01 45.02 45.05 45.37 45.94 45.72 46.09 46.07 44.16 46.42 45.94 46.77 42.24 47.12 40.46 47.47 38.68 47.82 39.57 48.17 38.53 48.52 38.98 48.86 39.42 49.21 41.5 49.56 41.2 49.91 41.94 50.26 40.9 50.61 38.09 50.96 39.27 51.31 39.42 51.66 37.2 52.01 36.16 52.36 36.02 52.7 34.83 53.05 33.05 53.4 31.87 53.75 34.24 54.1 34.83 54.45 33.2 54.8 33.35 55.15 36.31 55.5 33.79 55.85 33.94 56.2 33.35 56.55 34.98 56.89 34.53 57.24 35.13 57.59 33.35 57.94 33.2 58.29 34.98 58.64 37.2 58.99 37.5 59.34 36.76 59.69 37.94 60.04 37.94 60.39 38.39 60.73 39.42 61.08 42.83 61.43 43.42 61.78 44.61 62.13 44.61 62.48 44.02 62.83 43.87 63.18 45.5 63.53 46.68 63.88 45.94 64.23 47.27 64.58 44.76 64.92 44.46 65.27 45.05 65.62 45.64 65.97 46.09 66.32 49.64 66.67 51.27 67.02 53.2 67.37 54.68 67.72 57.35 68.07 54.53 68.42 54.09 68.77 51.13 69.11 49.5 69.46 50.98 69.81 49.79 70.16 48.76 70.51 46.53 70.86 45.35 71.21 45.35 71.56 45.79 71.91 47.13 72.26 46.83 72.61 46.39 72.95 47.87 73.3 46.39 73.65 44.61 74 42.53 74.35 43.57 74.7 43.72 75.05 44.76 75.4 43.72 75.75 44.76 76.1 43.57 76.45 42.68 76.8 44.16 77.14 42.68 77.49 45.2 77.84 45.64 78.19 45.79 78.54 43.27 78.89 44.61 79.24 44.46 79.59 45.05 79.94 43.42 80.29 46.09 80.64 46.53 80.98 51.72 81.33 49.94 81.68 50.53 82.03 50.09 82.38 52.01 82.73 49.05 83.08 51.13 83.43 54.09 83.78 54.09 84.13 51.27 84.48 52.75 84.83 54.24 85.17 55.72 85.52 52.01 85.87 50.68 86.22 47.72 86.57 46.98 86.92 48.61 87.27 46.98 87.62 46.09 87.97 47.72 88.32 45.94 88.67 44.61 89.02 42.98 89.36 44.02 89.71 45.05 90.06 42.98 90.41 40.16 90.76 40.16 91.11 40.02 91.46 39.87 91.81 38.83 92.16 38.68 92.51 38.53 92.86 36.46 93.2 39.57 93.55 40.9 93.9 37.94 94.25 37.94 94.6 39.57 94.95 41.94 95.3 41.79 95.65 44.31 96 43.27 96.35 46.39 96.7 49.64 97.05 49.64 97.39 50.24 97.74 52.16 98.09 55.12 98.44 52.46 98.79 55.27 99.14 58.38 99.49 58.09 99.84 55.27 100.19 56.01 100.54 57.05 100.89 55.27 101.23 56.9 101.58 54.09 101.93 53.64 102.28 52.75 102.63 53.79 102.98 55.12 103.33 54.83 103.68 55.42 104.03 58.38 104.38 63.57 104.73 63.12 105.08 62.98 105.42 63.86 105.77 60.75 106.12 61.79 106.47 58.68 106.82 57.35 107.17 52.46 107.52 49.79 107.87 50.24 108.22 50.68 108.57 49.5 108.92 46.39 109.26 50.24 109.61 47.87 109.96 47.27 110.31 48.01 110.66 47.87 111.01 45.2 111.36 46.68 111.71 48.61 112.06 47.87 112.41 47.57 112.76 45.94 113.11 46.68 113.45 43.72 113.8 43.57 114.15 44.9 114.5 43.13 114.85 46.53 115.2 45.64 115.55 48.61 115.9 46.09 116.25 47.42 116.6 46.24 116.95 48.31 117.3 47.57 117.64 45.5 117.99 42.53 118.34 43.27 118.69 40.46 119.04 37.79 119.39 36.16 119.74 35.72 120.09 35.87 120.44 31.87 120.79 30.98 121.14 29.65 121.48 30.24 121.83 32.61 122.18 31.13 122.53 31.42 122.88 32.02 123.23 32.76 123.58 33.5 123.93 33.05 124.28 31.13 124.63 31.28 124.98 30.83 125.33 29.79 125.67 29.35 126.02 30.39 126.37 28.02 126.72 31.28 127.07 32.31 127.42 30.09 127.77 29.94 128.12 32.76 128.47 32.61 128.82 30.68 129.17 31.13 129.51 29.94 129.86 29.35 130.21 29.2 130.56 29.2 130.91 29.05 131.26 29.2 131.61 28.46 131.96 29.05 132.31 29.65 132.66 30.39 133.01 33.94 133.36 37.65 133.7 35.87 134.05 36.61 134.4 34.24 134.75 34.98 135.1 35.72 135.45 33.65 135.8 32.61 136.15 33.65 136.5 34.09 136.85 35.72 137.2 37.2 137.55 38.98 137.89 37.65 138.24 39.27 138.59 40.31 138.94 40.02 139.29 41.05 139.64 44.46 139.99 45.2 140.34 46.53 140.69 47.13 141.04 47.72 141.39 50.68 141.73 51.87 142.08 52.9 142.43 53.94 142.78 53.94 143.13 56.75 143.48 55.27 143.83 56.01 144.18 54.38 144.53 55.57 144.88 58.68 145.23 56.01 145.58 58.98 145.92 59.57 146.27 62.53 146.62 60.01 146.97 61.79 147.32 60.46 147.67 62.53 148.02 61.49 148.37 59.12 148.72 59.86 149.07 61.94 149.42 61.2 149.76 57.79 150.11 57.35 150.46 58.83 150.81 57.49 151.16 54.68 151.51 54.68 151.86 56.75 152.21 57.05 152.56 59.42 152.91 57.2 153.26 59.72 153.61 59.27 153.95 59.57 154.3 59.86 154.65 61.79 155 59.57 155.35 56.9 155.7 55.72 156.05 54.83 156.4 54.38 156.75 56.46 157.1 54.38 157.45 57.35 157.79 56.9 158.14 56.75 158.49 57.49 158.84 58.24 159.19 57.94 159.54 59.86 159.89 58.68 160.24 55.12 160.59 54.24 160.94 55.87 161.29 55.12 161.64 53.2 161.98 52.75 162.33 55.57 162.68 53.79 163.03 56.31 163.38 55.87 163.73 54.09 164.08 55.42 164.43 54.09 164.78 55.72 165.13 57.05 165.48 58.53 165.83 61.64 166.17 62.09 166.52 62.53 166.87 63.86 167.22 62.38 167.57 65.05 167.92 66.83 168.27 68.46 168.62 66.53 168.97 67.42 169.32 67.86 169.67 66.38 170.01 67.27 170.36 67.12 170.71 68.16 171.06 69.94 171.41 70.83 171.76 71.86 172.11 74.53 172.46 73.49 172.81 76.16 173.16 77.64 173.51 75.86 173.86 74.83 174.2 78.97 174.55 77.2 174.9 78.83 175.25 78.68 175.6 78.68 175.95 76.31 176.3 77.49 176.65 78.08 177 79.12 177.35 77.05 177.7 77.34 178.04 78.23 178.39 77.34 178.74 75.57 179.09 75.57 179.44 76.46 179.79 77.49 180.14 75.71 180.49 76.16 180.84 77.2 181.19 77.49 181.54 77.49 181.89 77.94 182.23 76.16 182.58 78.97 182.93 79.86 183.28 83.12 183.63 80.9 183.98 85.34 184.33 82.08 184.68 80.31 185.03 81.64 185.38 79.12 185.73 76.01 186.08 73.2 186.42 75.27 186.77 75.57 187.12 75.12 187.47 75.42 187.82 76.16 188.17 76.9 188.52 74.53 188.87 75.12 189.22 73.2 189.57 74.97 189.92 78.38 190.26 76.46 190.61 75.71 190.96 71.72 191.31 69.35 191.66 72.75 192.01 69.2 192.36 65.49 192.71 64.9 193.06 66.53 193.41 65.64 193.76 66.23 194.11 68.75 194.45 67.12 194.8 64.46 195.15 60.75 195.5 59.86 195.85 60.01 196.2 56.61"/>
      </g>
      <g stroke-width="0.3" fill="#000000" fill-opacity="0.000" class="geometry" stroke-dasharray="none" stroke="#66C2A5" id="img-512c2878-11">
        <path fill="none" d="M21.98,71.86 L 22.33 68.31 22.68 67.12 23.03 67.57 23.38 66.53 23.73 68.01 24.08 68.46 24.42 66.68 24.77 67.42 25.12 70.53 25.47 70.23 25.82 69.49 26.17 69.35 26.52 67.86 26.87 72.01 27.22 71.27 27.57 73.94 27.92 75.42 28.27 76.31 28.61 74.68 28.96 77.05 29.31 79.71 29.66 79.42 30.01 76.9 30.36 74.83 30.71 78.23 31.06 78.23 31.41 76.6 31.76 78.97 32.11 81.49 32.45 79.71 32.8 76.31 33.15 75.27 33.5 74.68 33.85 72.9 34.2 71.57 34.55 74.09 34.9 72.46 35.25 70.83 35.6 71.57 35.95 69.94 36.3 71.86 36.64 71.57 36.99 70.68 37.34 75.42 37.69 73.79 38.04 68.01 38.39 69.2 38.74 68.01 39.09 64.9 39.44 62.23 39.79 59.42 40.14 61.35 40.49 62.23 40.83 62.98 41.18 58.83 41.53 57.49 41.88 56.01 42.23 58.09 42.58 57.05 42.93 56.01 43.28 55.12 43.63 56.31 43.98 55.27 44.33 52.31 44.67 50.53 45.02 49.2 45.37 46.39 45.72 44.16 46.07 44.31 46.42 45.05 46.77 45.79 47.12 46.39 47.47 44.61 47.82 46.24 48.17 46.53 48.52 48.61 48.86 48.01 49.21 48.76 49.56 48.16 49.91 50.09 50.26 54.24 50.61 52.75 50.96 50.09 51.31 51.42 51.66 54.09 52.01 51.72 52.36 57.05 52.7 54.53 53.05 57.35 53.4 53.79 53.75 52.31 54.1 51.72 54.45 48.46 54.8 49.35 55.15 49.79 55.5 49.64 55.85 52.9 56.2 53.5 56.55 56.31 56.89 54.24 57.24 54.68 57.59 50.98 57.94 50.68 58.29 52.75 58.64 52.46 58.99 53.94 59.34 54.09 59.69 51.72 60.04 54.98 60.39 55.87 60.73 56.16 61.08 51.72 61.43 48.46 61.78 49.94 62.13 49.2 62.48 52.61 62.83 51.13 63.18 49.94 63.53 48.16 63.88 47.72 64.23 47.13 64.58 46.68 64.92 45.2 65.27 47.13 65.62 47.72 65.97 49.64 66.32 52.75 66.67 52.46 67.02 52.01 67.37 53.5 67.72 53.05 68.07 55.57 68.42 52.46 68.77 53.2 69.11 53.79 69.46 52.9 69.81 51.27 70.16 51.13 70.51 48.9 70.86 49.5 71.21 51.13 71.56 49.94 71.91 52.31 72.26 51.13 72.61 54.24 72.95 50.83 73.3 51.72 73.65 53.05 74 50.09 74.35 48.31 74.7 49.05 75.05 47.72 75.4 43.13 75.75 43.13 76.1 42.24 76.45 42.83 76.8 42.53 77.14 44.76 77.49 47.27 77.84 45.05 78.19 46.68 78.54 45.05 78.89 45.05 79.24 45.64 79.59 45.79 79.94 44.46 80.29 41.94 80.64 43.57 80.98 42.39 81.33 40.31 81.68 40.31 82.03 40.31 82.38 38.98 82.73 42.53 83.08 42.24 83.43 42.09 83.78 41.2 84.13 42.68 84.48 41.5 84.83 40.02 85.17 37.94 85.52 39.42 85.87 38.83 86.22 36.61 86.57 37.35 86.92 36.9 87.27 38.24 87.62 38.09 87.97 38.68 88.32 39.13 88.67 38.83 89.02 41.2 89.36 41.05 89.71 41.64 90.06 44.16 90.41 47.13 90.76 47.42 91.11 47.87 91.46 47.57 91.81 48.46 92.16 51.27 92.51 51.27 92.86 46.53 93.2 45.94 93.55 48.76 93.9 46.98 94.25 44.46 94.6 43.42 94.95 43.13 95.3 42.09 95.65 43.87 96 43.42 96.35 42.24 96.7 44.31 97.05 44.76 97.39 45.64 97.74 49.2 98.09 48.76 98.44 49.05 98.79 50.24 99.14 53.5 99.49 52.46 99.84 53.05 100.19 56.31 100.54 56.16 100.89 54.09 101.23 54.53 101.58 52.61 101.93 51.87 102.28 52.75 102.63 50.09 102.98 48.31 103.33 51.42 103.68 51.42 104.03 51.13 104.38 50.38 104.73 51.27 105.08 49.2 105.42 47.27 105.77 48.01 106.12 47.72 106.47 48.76 106.82 51.87 107.17 52.16 107.52 51.27 107.87 48.46 108.22 49.94 108.57 52.46 108.92 54.53 109.26 54.98 109.61 55.42 109.96 56.16 110.31 54.83 110.66 55.42 111.01 57.35 111.36 60.61 111.71 62.53 112.06 62.23 112.41 62.09 112.76 64.31 113.11 63.42 113.45 59.86 113.8 57.94 114.15 60.61 114.5 61.94 114.85 64.61 115.2 65.05 115.55 66.38 115.9 66.98 116.25 66.98 116.6 65.49 116.95 64.46 117.3 60.01 117.64 61.49 117.99 60.31 118.34 63.57 118.69 65.35 119.04 65.64 119.39 62.23 119.74 63.72 120.09 59.27 120.44 58.98 120.79 59.42 121.14 59.12 121.48 59.27 121.83 57.49 122.18 57.49 122.53 60.31 122.88 62.68 123.23 62.98 123.58 60.9 123.93 59.27 124.28 58.09 124.63 61.2 124.98 63.27 125.33 65.79 125.67 65.2 126.02 66.53 126.37 63.86 126.72 61.2 127.07 57.05 127.42 57.2 127.77 55.42 128.12 56.31 128.47 54.53 128.82 53.94 129.17 53.2 129.51 49.2 129.86 52.31 130.21 49.64 130.56 50.98 130.91 52.16 131.26 50.83 131.61 54.98 131.96 55.72 132.31 55.27 132.66 53.2 133.01 54.68 133.36 55.57 133.7 53.64 134.05 49.5 134.4 50.09 134.75 51.57 135.1 53.94 135.45 53.79 135.8 54.68 136.15 55.12 136.5 55.27 136.85 54.53 137.2 53.2 137.55 52.9 137.89 55.27 138.24 58.83 138.59 55.87 138.94 54.53 139.29 54.09 139.64 55.57 139.99 55.72 140.34 53.35 140.69 52.01 141.04 51.42 141.39 50.83 141.73 47.72 142.08 49.79 142.43 48.16 142.78 43.57 143.13 40.61 143.48 39.87 143.83 40.61 144.18 38.39 144.53 38.39 144.88 35.72 145.23 34.39 145.58 37.65 145.92 34.53 146.27 31.87 146.62 33.79 146.97 36.02 147.32 37.2 147.67 37.35 148.02 38.68 148.37 37.65 148.72 35.72 149.07 33.79 149.42 36.16 149.76 34.83 150.11 33.05 150.46 32.91 150.81 32.76 151.16 33.05 151.51 31.28 151.86 31.42 152.21 31.13 152.56 32.61 152.91 30.83 153.26 30.54 153.61 28.91 153.95 27.42 154.3 26.83 154.65 29.94 155 28.91 155.35 27.72 155.7 28.02 156.05 28.61 156.4 29.35 156.75 27.87 157.1 29.2 157.45 30.83 157.79 32.02 158.14 32.16 158.49 33.94 158.84 34.68 159.19 33.35 159.54 33.94 159.89 34.24 160.24 36.9 160.59 34.83 160.94 33.94 161.29 32.91 161.64 33.35 161.98 32.31 162.33 33.65 162.68 34.53 163.03 32.76 163.38 31.28 163.73 32.76 164.08 33.35 164.43 31.87 164.78 33.05 165.13 36.61 165.48 38.09 165.83 38.53 166.17 36.76 166.52 34.39 166.87 33.5 167.22 34.24 167.57 33.5 167.92 33.79 168.27 33.5 168.62 32.91 168.97 33.79 169.32 37.94 169.67 38.09 170.01 38.09 170.36 37.65 170.71 40.02 171.06 41.5 171.41 39.57 171.76 42.09 172.11 43.57 172.46 44.76 172.81 43.42 173.16 43.42 173.51 42.24 173.86 42.83 174.2 42.98 174.55 43.27 174.9 42.24 175.25 39.87 175.6 39.13 175.95 41.2 176.3 42.68 176.65 44.31 177 44.9 177.35 44.61 177.7 40.76 178.04 43.42 178.39 44.16 178.74 43.87 179.09 43.27 179.44 43.13 179.79 43.72 180.14 42.98 180.49 42.39 180.84 42.24 181.19 37.94 181.54 38.09 181.89 37.94 182.23 37.5 182.58 38.83 182.93 38.09 183.28 38.09 183.63 37.65 183.98 36.02 184.33 34.98 184.68 34.39 185.03 35.87 185.38 38.53 185.73 37.94 186.08 38.24 186.42 37.65 186.77 36.9 187.12 38.68 187.47 39.42 187.82 39.87 188.17 39.42 188.52 41.35 188.87 44.61 189.22 44.02 189.57 42.83 189.92 48.46 190.26 48.61 190.61 45.94 190.96 45.64 191.31 45.5 191.66 44.46 192.01 43.27 192.36 43.13 192.71 41.2 193.06 41.2 193.41 41.2 193.76 38.53 194.11 38.24 194.45 37.65 194.8 39.27 195.15 41.5 195.5 42.98 195.85 41.79 196.2 40.76"/>
      </g>
      <g stroke-width="0.3" fill="#000000" fill-opacity="0.000" class="geometry" stroke-dasharray="none" stroke="#ABDDA4" id="img-512c2878-12">
        <path fill="none" d="M21.98,71.86 L 22.33 71.86 22.68 72.9 23.03 73.64 23.38 71.72 23.73 70.09 24.08 68.01 24.42 69.2 24.77 69.64 25.12 72.31 25.47 73.2 25.82 77.49 26.17 80.45 26.52 79.57 26.87 76.9 27.22 79.27 27.57 77.94 27.92 78.97 28.27 76.9 28.61 74.97 28.96 74.09 29.31 74.53 29.66 74.68 30.01 75.12 30.36 77.05 30.71 79.27 31.06 77.49 31.41 79.71 31.76 80.6 32.11 81.49 32.45 82.53 32.8 82.38 33.15 81.49 33.5 82.38 33.85 83.42 34.2 86.97 34.55 83.86 34.9 86.08 35.25 84.45 35.6 84.6 35.95 84.45 36.3 86.08 36.64 79.42 36.99 78.68 37.34 78.23 37.69 76.31 38.04 76.9 38.39 75.27 38.74 72.16 39.09 73.34 39.44 72.16 39.79 72.16 40.14 74.09 40.49 74.09 40.83 75.57 41.18 80.16 41.53 80.31 41.88 80.6 42.23 78.68 42.58 77.94 42.93 80.16 43.28 82.23 43.63 81.49 43.98 80.01 44.33 77.05 44.67 78.08 45.02 77.34 45.37 77.05 45.72 74.68 46.07 74.09 46.42 73.34 46.77 74.23 47.12 75.71 47.47 78.38 47.82 77.34 48.17 77.49 48.52 74.09 48.86 74.23 49.21 71.42 49.56 72.31 49.91 73.64 50.26 76.01 50.61 75.42 50.96 72.9 51.31 74.53 51.66 75.42 52.01 75.71 52.36 73.34 52.7 73.94 53.05 76.6 53.4 74.23 53.75 76.75 54.1 74.97 54.45 75.86 54.8 72.31 55.15 69.79 55.5 68.31 55.85 67.57 56.2 68.16 56.55 66.83 56.89 68.16 57.24 66.83 57.59 70.09 57.94 69.35 58.29 68.31 58.64 65.94 58.99 66.98 59.34 64.9 59.69 67.12 60.04 70.38 60.39 69.79 60.73 72.75 61.08 75.12 61.43 75.57 61.78 77.64 62.13 79.86 62.48 77.64 62.83 77.2 63.18 77.34 63.53 76.46 63.88 76.9 64.23 76.16 64.58 80.75 64.92 82.97 65.27 85.05 65.62 84.16 65.97 84.16 66.32 84.75 66.67 82.38 67.02 87.71 67.37 88.45 67.72 87.57 68.07 85.79 68.42 85.94 68.77 86.23 69.11 84.16 69.46 84.9 69.81 85.34 70.16 87.12 70.51 88.31 70.86 86.68 71.21 85.49 71.56 85.79 71.91 88.45 72.26 88.31 72.61 90.08 72.95 90.23 73.3 88.01 73.65 88.01 74 87.42 74.35 90.23 74.7 88.75 75.05 91.71 75.4 96.16 75.75 98.23 76.1 98.67 76.45 98.53 76.8 101.34 77.14 101.64 77.49 101.04 77.84 101.34 78.19 102.53 78.54 104.01 78.89 104.01 79.24 105.78 79.59 104.9 79.94 103.56 80.29 105.19 80.64 103.12 80.98 105.34 81.33 106.08 81.68 107.71 82.03 103.41 82.38 104.6 82.73 105.93 83.08 108.45 83.43 111.12 83.78 109.64 84.13 108.3 84.48 106.67 84.83 106.97 85.17 109.49 85.52 107.71 85.87 107.27 86.22 105.04 86.57 105.64 86.92 108.01 87.27 109.04 87.62 110.38 87.97 107.12 88.32 107.27 88.67 106.97 89.02 104.9 89.36 105.78 89.71 109.78 90.06 108.6 90.41 109.64 90.76 111.41 91.11 112.9 91.46 111.41 91.81 109.64 92.16 111.41 92.51 112.75 92.86 112.15 93.2 113.04 93.55 113.04 93.9 112.3 94.25 112.75 94.6 113.93 94.95 116.3 95.3 117.34 95.65 117.64 96 118.08 96.35 119.41 96.7 119.71 97.05 118.67 97.39 121.49 97.74 120.75 98.09 118.97 98.44 119.26 98.79 118.38 99.14 117.19 99.49 115.56 99.84 113.78 100.19 114.08 100.54 111.27 100.89 108.6 101.23 109.93 101.58 111.71 101.93 111.27 102.28 109.34 102.63 109.04 102.98 109.04 103.33 110.08 103.68 109.34 104.03 109.93 104.38 106.67 104.73 106.82 105.08 107.27 105.42 105.34 105.77 104.01 106.12 102.53 106.47 105.34 106.82 104.9 107.17 104.3 107.52 100.01 107.87 103.86 108.22 103.12 108.57 108.15 108.92 110.08 109.26 109.19 109.61 108.75 109.96 109.49 110.31 111.27 110.66 107.27 111.01 110.38 111.36 110.67 111.71 112.45 112.06 112.15 112.41 110.82 112.76 108.3 113.11 105.04 113.45 105.34 113.8 107.71 114.15 105.34 114.5 106.08 114.85 107.56 115.2 106.97 115.55 105.93 115.9 106.23 116.25 103.71 116.6 106.08 116.95 107.86 117.3 105.19 117.64 103.41 117.99 100.75 118.34 102.08 118.69 97.49 119.04 97.93 119.39 97.34 119.74 96.75 120.09 95.12 120.44 94.68 120.79 94.97 121.14 94.97 121.48 94.97 121.83 96.6 122.18 96.9 122.53 97.05 122.88 99.12 123.23 99.12 123.58 98.38 123.93 94.38 124.28 91.27 124.63 90.82 124.98 88.6 125.33 91.12 125.67 92.31 126.02 89.94 126.37 87.27 126.72 87.57 127.07 85.64 127.42 85.05 127.77 82.97 128.12 82.68 128.47 85.79 128.82 85.49 129.17 84.31 129.51 85.64 129.86 81.64 130.21 80.16 130.56 82.68 130.91 81.49 131.26 81.05 131.61 79.57 131.96 78.68 132.31 78.38 132.66 77.94 133.01 76.01 133.36 74.97 133.7 76.75 134.05 77.94 134.4 78.68 134.75 79.27 135.1 76.31 135.45 73.2 135.8 73.05 136.15 69.49 136.5 65.79 136.85 67.57 137.2 70.68 137.55 71.12 137.89 70.97 138.24 67.12 138.59 68.75 138.94 69.49 139.29 72.46 139.64 72.46 139.99 71.57 140.34 72.6 140.69 75.57 141.04 77.34 141.39 77.2 141.73 75.27 142.08 73.79 142.43 77.94 142.78 76.46 143.13 74.83 143.48 73.64 143.83 75.86 144.18 76.01 144.53 78.08 144.88 81.34 145.23 80.6 145.58 83.12 145.92 82.68 146.27 83.27 146.62 84.45 146.97 82.53 147.32 83.57 147.67 86.23 148.02 86.23 148.37 89.49 148.72 89.05 149.07 89.64 149.42 92.16 149.76 94.08 150.11 94.82 150.46 94.82 150.81 94.82 151.16 94.68 151.51 93.05 151.86 92.01 152.21 93.93 152.56 91.27 152.91 92.01 153.26 91.42 153.61 90.97 153.95 88.9 154.3 88.45 154.65 87.71 155 84.31 155.35 86.68 155.7 88.9 156.05 88.45 156.4 87.71 156.75 90.23 157.1 93.34 157.45 93.05 157.79 97.34 158.14 96.45 158.49 96.6 158.84 95.42 159.19 93.93 159.54 92.45 159.89 93.79 160.24 94.08 160.59 94.08 160.94 93.64 161.29 93.05 161.64 92.75 161.98 92.9 162.33 94.53 162.68 91.71 163.03 91.27 163.38 90.97 163.73 88.31 164.08 87.42 164.43 90.23 164.78 88.75 165.13 84.75 165.48 85.64 165.83 87.42 166.17 89.79 166.52 90.53 166.87 92.16 167.22 93.64 167.57 93.19 167.92 90.97 168.27 91.86 168.62 94.08 168.97 93.34 169.32 93.49 169.67 95.86 170.01 97.19 170.36 96.75 170.71 100.45 171.06 101.19 171.41 99.12 171.76 99.71 172.11 99.86 172.46 100.3 172.81 96.9 173.16 94.68 173.51 95.12 173.86 94.38 174.2 97.79 174.55 97.05 174.9 97.79 175.25 100.6 175.6 97.05 175.95 96.75 176.3 99.12 176.65 97.79 177 97.79 177.35 100.01 177.7 102.08 178.04 100.6 178.39 101.19 178.74 101.93 179.09 102.67 179.44 102.82 179.79 102.82 180.14 104.9 180.49 103.41 180.84 103.86 181.19 104.45 181.54 103.27 181.89 102.08 182.23 100.01 182.58 99.56 182.93 101.04 183.28 103.86 183.63 102.23 183.98 101.79 184.33 101.04 184.68 102.38 185.03 103.41 185.38 101.49 185.73 104.75 186.08 104.75 186.42 102.67 186.77 103.27 187.12 104.3 187.47 102.82 187.82 101.93 188.17 98.82 188.52 96.3 188.87 98.97 189.22 101.04 189.57 100.6 189.92 99.71 190.26 97.49 190.61 96.45 190.96 95.71 191.31 93.64 191.66 96.3 192.01 96.6 192.36 96.9 192.71 97.19 193.06 97.93 193.41 98.08 193.76 97.79 194.11 99.42 194.45 101.04 194.8 100.6 195.15 100.6 195.5 102.08 195.85 104.6 196.2 106.23"/>
      </g>
      <g stroke-width="0.3" fill="#000000" fill-opacity="0.000" class="geometry" stroke-dasharray="none" stroke="#E6F598" id="img-512c2878-13">
        <path fill="none" d="M21.98,71.86 L 22.33 68.75 22.68 67.42 23.03 69.05 23.38 71.42 23.73 73.64 24.08 72.31 24.42 69.94 24.77 68.6 25.12 67.72 25.47 64.9 25.82 65.35 26.17 58.38 26.52 54.83 26.87 56.61 27.22 53.94 27.57 52.9 27.92 52.46 28.27 54.38 28.61 51.72 28.96 49.5 29.31 48.76 29.66 49.5 30.01 49.64 30.36 48.46 30.71 47.87 31.06 50.38 31.41 50.53 31.76 52.01 32.11 52.46 32.45 53.2 32.8 55.27 33.15 54.68 33.5 56.31 33.85 52.46 34.2 53.35 34.55 52.46 34.9 50.68 35.25 48.31 35.6 49.64 35.95 48.9 36.3 45.5 36.64 46.39 36.99 44.31 37.34 46.09 37.69 46.09 38.04 47.27 38.39 45.5 38.74 47.42 39.09 47.57 39.44 45.79 39.79 42.53 40.14 42.83 40.49 42.83 40.83 44.46 41.18 42.98 41.53 40.02 41.88 40.02 42.23 37.79 42.58 39.13 42.93 42.24 43.28 41.94 43.63 42.98 43.98 40.76 44.33 43.27 44.67 42.39 45.02 45.2 45.37 46.53 45.72 46.53 46.07 44.76 46.42 46.24 46.77 44.9 47.12 44.16 47.47 45.2 47.82 47.13 48.17 46.24 48.52 44.9 48.86 44.9 49.21 43.87 49.56 41.64 49.91 44.46 50.26 42.68 50.61 43.72 50.96 41.35 51.31 45.64 51.66 44.61 52.01 46.83 52.36 46.68 52.7 42.98 53.05 46.53 53.4 46.24 53.75 45.5 54.1 41.35 54.45 43.57 54.8 40.76 55.15 40.46 55.5 37.35 55.85 35.42 56.2 36.76 56.55 37.2 56.89 38.68 57.24 35.57 57.59 34.53 57.94 34.68 58.29 36.61 58.64 34.98 58.99 36.16 59.34 38.39 59.69 36.9 60.04 36.31 60.39 32.46 60.73 30.68 61.08 33.2 61.43 32.46 61.78 36.9 62.13 36.31 62.48 35.42 62.83 35.13 63.18 35.87 63.53 38.53 63.88 39.57 64.23 42.24 64.58 42.24 64.92 41.35 65.27 40.61 65.62 41.05 65.97 40.76 66.32 40.9 66.67 41.35 67.02 41.64 67.37 40.9 67.72 40.46 68.07 41.5 68.42 40.46 68.77 41.64 69.11 40.02 69.46 41.35 69.81 42.68 70.16 40.9 70.51 41.35 70.86 39.72 71.21 32.16 71.56 29.2 71.91 30.24 72.26 30.24 72.61 28.91 72.95 27.72 73.3 26.68 73.65 26.09 74 25.2 74.35 22.83 74.7 24.02 75.05 23.87 75.4 24.17 75.75 23.28 76.1 24.02 76.45 25.94 76.8 27.87 77.14 27.72 77.49 27.42 77.84 29.05 78.19 28.31 78.54 28.91 78.89 28.02 79.24 28.61 79.59 30.09 79.94 32.61 80.29 35.28 80.64 38.68 80.98 39.42 81.33 38.53 81.68 37.79 82.03 36.02 82.38 35.57 82.73 35.57 83.08 32.91 83.43 32.91 83.78 30.83 84.13 32.91 84.48 33.79 84.83 33.65 85.17 34.98 85.52 32.91 85.87 33.94 86.22 31.42 86.57 34.09 86.92 34.83 87.27 33.05 87.62 34.24 87.97 33.35 88.32 34.39 88.67 34.24 89.02 33.65 89.36 34.24 89.71 33.5 90.06 34.98 90.41 35.28 90.76 37.94 91.11 38.09 91.46 40.9 91.81 40.61 92.16 40.46 92.51 39.57 92.86 38.09 93.2 38.68 93.55 40.46 93.9 39.13 94.25 40.02 94.6 41.79 94.95 41.05 95.3 41.64 95.65 45.2 96 45.35 96.35 45.05 96.7 45.5 97.05 45.79 97.39 48.61 97.74 49.94 98.09 48.9 98.44 48.76 98.79 48.31 99.14 48.76 99.49 47.72 99.84 48.01 100.19 50.24 100.54 50.83 100.89 49.2 101.23 51.72 101.58 51.57 101.93 53.64 102.28 51.72 102.63 54.83 102.98 57.35 103.33 59.57 103.68 58.68 104.03 57.2 104.38 57.49 104.73 61.79 105.08 64.01 105.42 62.53 105.77 60.01 106.12 59.57 106.47 59.27 106.82 61.05 107.17 59.12 107.52 57.64 107.87 60.01 108.22 59.86 108.57 61.35 108.92 58.09 109.26 58.09 109.61 55.87 109.96 51.87 110.31 51.42 110.66 53.94 111.01 55.57 111.36 52.61 111.71 52.9 112.06 48.01 112.41 48.61 112.76 47.72 113.11 49.94 113.45 49.35 113.8 49.64 114.15 48.61 114.5 48.76 114.85 47.87 115.2 45.2 115.55 46.39 115.9 44.9 116.25 47.13 116.6 48.76 116.95 49.05 117.3 48.76 117.64 47.13 117.99 48.16 118.34 48.01 118.69 45.94 119.04 46.09 119.39 46.68 119.74 46.83 120.09 47.13 120.44 46.68 120.79 48.46 121.14 50.98 121.48 51.72 121.83 50.38 122.18 49.94 122.53 48.01 122.88 52.75 123.23 53.35 123.58 52.31 123.93 50.09 124.28 50.83 124.63 53.5 124.98 53.5 125.33 55.12 125.67 51.42 126.02 54.24 126.37 58.24 126.72 59.72 127.07 64.16 127.42 63.27 127.77 65.49 128.12 63.86 128.47 61.35 128.82 59.12 129.17 61.79 129.51 62.38 129.86 66.98 130.21 63.86 130.56 67.57 130.91 69.49 131.26 70.53 131.61 69.05 131.96 64.16 132.31 64.31 132.66 63.12 133.01 64.31 133.36 64.61 133.7 66.98 134.05 64.46 134.4 64.46 134.75 64.61 135.1 65.64 135.45 68.46 135.8 69.64 136.15 71.27 136.5 74.23 136.85 73.34 137.2 75.57 137.55 76.9 137.89 75.71 138.24 76.31 138.59 77.79 138.94 74.68 139.29 75.57 139.64 75.71 139.99 76.6 140.34 77.2 140.69 73.79 141.04 72.75 141.39 74.97 141.73 77.64 142.08 79.71 142.43 76.6 142.78 78.83 143.13 73.94 143.48 74.68 143.83 74.09 144.18 73.64 144.53 71.86 144.88 67.72 145.23 68.31 145.58 68.46 145.92 68.75 146.27 67.27 146.62 68.01 146.97 65.79 147.32 67.42 147.67 68.16 148.02 67.72 148.37 65.05 148.72 62.09 149.07 64.01 149.42 62.83 149.76 63.27 150.11 63.42 150.46 66.83 150.81 68.16 151.16 67.57 151.51 66.38 151.86 64.01 152.21 63.72 152.56 60.75 152.91 60.46 153.26 60.61 153.61 58.38 153.95 53.64 154.3 53.2 154.65 47.72 155 45.5 155.35 43.72 155.7 44.16 156.05 40.02 156.4 42.24 156.75 40.61 157.1 38.83 157.45 38.98 157.79 38.39 158.14 39.42 158.49 37.65 158.84 37.79 159.19 40.46 159.54 41.05 159.89 40.16 160.24 39.13 160.59 40.02 160.94 39.57 161.29 42.83 161.64 45.35 161.98 49.2 162.33 51.13 162.68 50.09 163.03 48.61 163.38 44.02 163.73 43.27 164.08 42.09 164.43 46.24 164.78 44.02 165.13 44.16 165.48 45.64 165.83 46.09 166.17 46.68 166.52 45.94 166.87 45.35 167.22 47.42 167.57 46.68 167.92 46.39 168.27 46.53 168.62 46.09 168.97 46.98 169.32 45.05 169.67 45.05 170.01 43.42 170.36 44.46 170.71 43.87 171.06 45.5 171.41 45.05 171.76 47.42 172.11 46.68 172.46 47.27 172.81 49.79 173.16 51.57 173.51 50.09 173.86 48.9 174.2 51.27 174.55 49.64 174.9 50.38 175.25 53.2 175.6 53.5 175.95 50.83 176.3 49.35 176.65 48.76 177 47.42 177.35 46.39 177.7 50.38 178.04 50.68 178.39 54.24 178.74 54.09 179.09 57.49 179.44 57.35 179.79 55.57 180.14 52.9 180.49 52.9 180.84 55.57 181.19 56.16 181.54 54.68 181.89 54.98 182.23 53.2 182.58 56.61 182.93 52.9 183.28 52.61 183.63 52.46 183.98 46.98 184.33 50.98 184.68 51.57 185.03 49.35 185.38 49.05 185.73 45.35 186.08 47.72 186.42 51.27 186.77 52.46 187.12 54.98 187.47 53.94 187.82 52.9 188.17 51.13 188.52 52.16 188.87 54.53 189.22 57.05 189.57 56.75 189.92 55.87 190.26 55.12 190.61 54.53 190.96 52.16 191.31 53.35 191.66 52.9 192.01 52.46 192.36 55.12 192.71 59.27 193.06 62.23 193.41 58.98 193.76 62.38 194.11 62.68 194.45 62.83 194.8 61.49 195.15 63.57 195.5 66.98 195.85 69.64 196.2 69.94"/>
      </g>
      <g stroke-width="0.3" fill="#000000" fill-opacity="0.000" class="geometry" stroke-dasharray="none" stroke="#FFFFBF" id="img-512c2878-14">
        <path fill="none" d="M21.98,71.86 L 22.33 74.83 22.68 74.97 23.03 74.68 23.38 74.68 23.73 76.01 24.08 73.49 24.42 75.27 24.77 72.01 25.12 71.57 25.47 74.23 25.82 71.72 26.17 71.42 26.52 71.12 26.87 68.16 27.22 71.57 27.57 69.94 27.92 70.38 28.27 71.57 28.61 72.01 28.96 76.31 29.31 78.23 29.66 75.12 30.01 78.08 30.36 78.23 30.71 80.01 31.06 80.6 31.41 77.94 31.76 78.38 32.11 74.68 32.45 76.9 32.8 79.27 33.15 81.79 33.5 82.08 33.85 82.08 34.2 78.83 34.55 77.49 34.9 80.6 35.25 85.34 35.6 83.12 35.95 81.2 36.3 76.9 36.64 77.34 36.99 78.68 37.34 77.34 37.69 79.27 38.04 80.6 38.39 81.2 38.74 80.16 39.09 81.64 39.44 81.05 39.79 81.2 40.14 82.68 40.49 82.53 40.83 78.68 41.18 77.64 41.53 78.38 41.88 82.53 42.23 79.27 42.58 76.01 42.93 77.49 43.28 78.23 43.63 81.05 43.98 80.75 44.33 83.42 44.67 82.23 45.02 80.9 45.37 76.46 45.72 77.2 46.07 77.2 46.42 76.31 46.77 75.86 47.12 79.12 47.47 77.2 47.82 78.08 48.17 78.23 48.52 79.71 48.86 78.97 49.21 77.34 49.56 75.57 49.91 72.01 50.26 69.94 50.61 68.46 50.96 64.75 51.31 63.57 51.66 65.05 52.01 66.98 52.36 65.35 52.7 69.05 53.05 67.72 53.4 64.16 53.75 66.23 54.1 68.01 54.45 65.79 54.8 64.16 55.15 62.09 55.5 65.05 55.85 62.83 56.2 63.27 56.55 58.98 56.89 62.98 57.24 60.61 57.59 61.79 57.94 63.57 58.29 64.31 58.64 63.57 58.99 64.61 59.34 60.31 59.69 63.72 60.04 60.01 60.39 58.38 60.73 60.01 61.08 57.35 61.43 59.42 61.78 56.31 62.13 56.46 62.48 53.64 62.83 53.05 63.18 55.42 63.53 52.9 63.88 52.9 64.23 53.94 64.58 55.27 64.92 54.68 65.27 53.94 65.62 55.72 65.97 56.75 66.32 57.94 66.67 58.09 67.02 52.9 67.37 50.98 67.72 55.12 68.07 53.64 68.42 52.31 68.77 52.31 69.11 53.79 69.46 56.01 69.81 59.57 70.16 57.94 70.51 56.75 70.86 56.9 71.21 57.2 71.56 56.46 71.91 56.75 72.26 57.79 72.61 60.16 72.95 62.53 73.3 63.42 73.65 61.64 74 59.86 74.35 61.64 74.7 61.79 75.05 63.57 75.4 67.86 75.75 67.57 76.1 67.57 76.45 68.46 76.8 68.75 77.14 70.97 77.49 70.09 77.84 69.49 78.19 70.97 78.54 71.72 78.89 70.38 79.24 74.83 79.59 77.79 79.94 75.86 80.29 74.53 80.64 71.86 80.98 69.79 81.33 73.05 81.68 74.23 82.03 72.9 82.38 74.09 82.73 73.79 83.08 73.2 83.43 75.12 83.78 77.05 84.13 78.23 84.48 80.01 84.83 80.31 85.17 79.27 85.52 78.68 85.87 80.9 86.22 80.9 86.57 78.83 86.92 81.05 87.27 81.05 87.62 82.82 87.97 84.01 88.32 86.68 88.67 86.38 89.02 84.75 89.36 86.08 89.71 87.12 90.06 86.97 90.41 86.08 90.76 84.6 91.11 84.45 91.46 87.86 91.81 88.75 92.16 87.71 92.51 86.53 92.86 84.75 93.2 84.16 93.55 83.71 93.9 83.71 94.25 82.23 94.6 80.45 94.95 76.16 95.3 76.16 95.65 73.79 96 73.05 96.35 71.86 96.7 70.83 97.05 66.83 97.39 66.38 97.74 64.75 98.09 66.68 98.44 66.23 98.79 65.35 99.14 64.16 99.49 65.64 99.84 65.2 100.19 67.86 100.54 69.35 100.89 75.27 101.23 76.16 101.58 77.05 101.93 75.86 102.28 72.46 102.63 71.12 102.98 71.57 103.33 71.72 103.68 70.68 104.03 70.68 104.38 68.31 104.73 68.9 105.08 67.12 105.42 68.16 105.77 67.57 106.12 67.57 106.47 66.98 106.82 64.31 107.17 65.35 107.52 66.38 107.87 66.53 108.22 64.9 108.57 63.42 108.92 66.98 109.26 69.35 109.61 67.72 109.96 69.35 110.31 66.53 110.66 64.75 111.01 63.86 111.36 62.98 111.71 63.12 112.06 63.12 112.41 65.94 112.76 64.61 113.11 64.31 113.45 62.23 113.8 57.35 114.15 62.23 114.5 60.61 114.85 61.2 115.2 62.83 115.55 59.27 115.9 58.53 116.25 56.61 116.6 55.12 116.95 53.5 117.3 53.79 117.64 50.53 117.99 47.72 118.34 45.79 118.69 44.31 119.04 47.27 119.39 47.13 119.74 43.13 120.09 49.35 120.44 48.46 120.79 51.72 121.14 50.98 121.48 49.05 121.83 45.64 122.18 43.87 122.53 45.79 122.88 46.83 123.23 49.5 123.58 52.31 123.93 52.31 124.28 55.27 124.63 54.83 124.98 53.79 125.33 56.46 125.67 58.09 126.02 59.12 126.37 60.01 126.72 60.61 127.07 63.72 127.42 64.75 127.77 70.68 128.12 65.49 128.47 65.2 128.82 64.9 129.17 61.94 129.51 59.57 129.86 60.01 130.21 59.27 130.56 58.24 130.91 57.94 131.26 60.16 131.61 60.01 131.96 56.61 132.31 57.64 132.66 60.75 133.01 56.75 133.36 56.31 133.7 58.68 134.05 59.57 134.4 56.31 134.75 57.64 135.1 60.46 135.45 60.61 135.8 65.49 136.15 68.31 136.5 68.46 136.85 68.46 137.2 68.9 137.55 66.68 137.89 68.6 138.24 68.31 138.59 65.2 138.94 60.9 139.29 65.2 139.64 62.23 139.99 63.57 140.34 65.2 140.69 65.79 141.04 64.75 141.39 68.31 141.73 65.35 142.08 65.35 142.43 64.9 142.78 61.94 143.13 62.68 143.48 59.86 143.83 59.42 144.18 61.2 144.53 59.27 144.88 55.87 145.23 53.35 145.58 53.94 145.92 54.38 146.27 54.68 146.62 57.35 146.97 56.75 147.32 54.98 147.67 52.46 148.02 54.38 148.37 56.9 148.72 54.68 149.07 53.79 149.42 56.31 149.76 53.5 150.11 52.16 150.46 55.57 150.81 54.53 151.16 51.72 151.51 53.2 151.86 52.31 152.21 54.98 152.56 52.9 152.91 50.83 153.26 51.87 153.61 52.9 153.95 53.2 154.3 52.9 154.65 52.9 155 55.27 155.35 53.05 155.7 50.53 156.05 52.01 156.4 50.38 156.75 52.31 157.1 53.94 157.45 53.2 157.79 54.24 158.14 56.75 158.49 55.72 158.84 54.38 159.19 53.05 159.54 50.98 159.89 54.24 160.24 53.94 160.59 52.01 160.94 54.83 161.29 58.53 161.64 60.01 161.98 60.61 162.33 62.98 162.68 65.64 163.03 67.57 163.38 70.38 163.73 70.09 164.08 70.53 164.43 72.75 164.78 70.97 165.13 71.12 165.48 69.2 165.83 67.27 166.17 66.38 166.52 67.86 166.87 72.16 167.22 73.2 167.57 69.35 167.92 69.2 168.27 71.42 168.62 68.75 168.97 66.68 169.32 65.94 169.67 64.16 170.01 62.98 170.36 66.23 170.71 65.05 171.06 63.86 171.41 68.6 171.76 65.64 172.11 67.57 172.46 67.57 172.81 69.35 173.16 68.16 173.51 68.16 173.86 66.98 174.2 63.12 174.55 65.79 174.9 68.46 175.25 66.98 175.6 65.64 175.95 63.86 176.3 64.16 176.65 59.72 177 58.68 177.35 57.35 177.7 52.46 178.04 53.64 178.39 49.94 178.74 49.35 179.09 52.16 179.44 51.57 179.79 53.94 180.14 53.64 180.49 50.83 180.84 51.72 181.19 53.64 181.54 58.38 181.89 58.53 182.23 58.83 182.58 61.35 182.93 64.61 183.28 60.9 183.63 61.35 183.98 61.49 184.33 62.83 184.68 62.98 185.03 62.98 185.38 60.9 185.73 61.49 186.08 58.98 186.42 56.16 186.77 56.75 187.12 53.94 187.47 51.42 187.82 54.38 188.17 50.68 188.52 49.94 188.87 49.79 189.22 50.38 189.57 49.64 189.92 51.27 190.26 52.01 190.61 53.05 190.96 55.12 191.31 54.98 191.66 54.24 192.01 53.2 192.36 54.38 192.71 50.68 193.06 50.98 193.41 56.16 193.76 56.16 194.11 54.83 194.45 53.94 194.8 54.53 195.15 56.9 195.5 57.79 195.85 60.75 196.2 62.98"/>
      </g>
      <g stroke-width="0.3" fill="#000000" fill-opacity="0.000" class="geometry" stroke-dasharray="none" stroke="#FEE08B" id="img-512c2878-15">
        <path fill="none" d="M21.98,71.86 L 22.33 72.31 22.68 71.57 23.03 69.64 23.38 68.75 23.73 68.9 24.08 67.86 24.42 67.86 24.77 72.01 25.12 70.83 25.47 71.86 25.82 76.6 26.17 80.01 26.52 81.79 26.87 81.34 27.22 82.53 27.57 80.75 27.92 79.12 28.27 79.27 28.61 79.27 28.96 79.57 29.31 78.97 29.66 81.79 30.01 83.42 30.36 81.94 30.71 84.31 31.06 83.42 31.41 83.27 31.76 82.97 32.11 84.16 32.45 83.57 32.8 81.64 33.15 80.16 33.5 82.68 33.85 82.23 34.2 88.01 34.55 84.6 34.9 80.75 35.25 82.38 35.6 85.05 35.95 83.57 36.3 81.94 36.64 80.01 36.99 79.57 37.34 78.23 37.69 78.83 38.04 76.31 38.39 79.12 38.74 80.9 39.09 77.94 39.44 75.12 39.79 75.71 40.14 73.2 40.49 70.97 40.83 70.38 41.18 68.01 41.53 68.31 41.88 67.42 42.23 67.42 42.58 65.49 42.93 65.94 43.28 69.49 43.63 69.05 43.98 68.31 44.33 66.98 44.67 66.68 45.02 68.01 45.37 67.72 45.72 64.9 46.07 68.16 46.42 65.05 46.77 66.09 47.12 62.83 47.47 65.05 47.82 66.98 48.17 68.6 48.52 66.38 48.86 66.68 49.21 68.16 49.56 67.42 49.91 65.79 50.26 65.79 50.61 64.75 50.96 67.57 51.31 68.31 51.66 67.72 52.01 65.64 52.36 67.12 52.7 68.16 53.05 70.23 53.4 68.01 53.75 70.23 54.1 69.79 54.45 68.31 54.8 67.27 55.15 69.2 55.5 65.94 55.85 64.31 56.2 69.64 56.55 68.16 56.89 67.27 57.24 65.2 57.59 66.83 57.94 69.64 58.29 70.97 58.64 71.12 58.99 70.97 59.34 71.86 59.69 69.05 60.04 72.16 60.39 72.31 60.73 74.53 61.08 76.75 61.43 77.2 61.78 79.27 62.13 81.49 62.48 80.75 62.83 80.31 63.18 79.57 63.53 75.57 63.88 73.49 64.23 74.68 64.58 74.09 64.92 74.53 65.27 74.38 65.62 74.97 65.97 76.16 66.32 73.94 66.67 72.46 67.02 72.6 67.37 74.68 67.72 79.12 68.07 78.08 68.42 75.42 68.77 77.2 69.11 76.9 69.46 77.05 69.81 77.2 70.16 76.01 70.51 76.9 70.86 78.23 71.21 77.2 71.56 75.71 71.91 75.27 72.26 75.71 72.61 73.64 72.95 75.86 73.3 71.72 73.65 66.83 74 67.86 74.35 65.05 74.7 64.01 75.05 61.49 75.4 61.94 75.75 61.2 76.1 63.12 76.45 66.53 76.8 65.05 77.14 61.05 77.49 63.12 77.84 61.49 78.19 60.61 78.54 60.61 78.89 62.53 79.24 61.05 79.59 61.35 79.94 60.01 80.29 56.75 80.64 59.72 80.98 58.83 81.33 59.86 81.68 56.75 82.03 56.46 82.38 59.42 82.73 54.83 83.08 55.72 83.43 57.79 83.78 59.12 84.13 57.49 84.48 57.94 84.83 57.94 85.17 56.46 85.52 52.31 85.87 52.16 86.22 50.68 86.57 52.9 86.92 49.94 87.27 51.57 87.62 50.24 87.97 48.61 88.32 50.09 88.67 50.24 89.02 53.94 89.36 56.46 89.71 54.38 90.06 54.24 90.41 54.68 90.76 54.68 91.11 55.87 91.46 54.83 91.81 54.09 92.16 52.75 92.51 52.16 92.86 50.83 93.2 50.68 93.55 53.35 93.9 52.01 94.25 54.24 94.6 57.35 94.95 59.72 95.3 60.9 95.65 60.31 96 62.09 96.35 63.12 96.7 60.31 97.05 60.16 97.39 61.49 97.74 63.12 98.09 63.72 98.44 66.23 98.79 66.83 99.14 66.53 99.49 66.83 99.84 70.68 100.19 73.34 100.54 76.9 100.89 77.2 101.23 76.31 101.58 77.94 101.93 72.46 102.28 73.05 102.63 76.46 102.98 75.42 103.33 76.9 103.68 77.49 104.03 73.2 104.38 77.05 104.73 76.75 105.08 76.6 105.42 77.2 105.77 76.6 106.12 75.42 106.47 73.64 106.82 77.64 107.17 78.38 107.52 76.16 107.87 76.46 108.22 79.57 108.57 84.16 108.92 87.71 109.26 88.6 109.61 87.57 109.96 87.27 110.31 88.6 110.66 86.97 111.01 88.16 111.36 88.31 111.71 87.71 112.06 89.79 112.41 91.71 112.76 91.27 113.11 90.38 113.45 89.94 113.8 92.01 114.15 91.86 114.5 91.86 114.85 91.86 115.2 91.56 115.55 94.38 115.9 91.56 116.25 89.19 116.6 86.38 116.95 86.82 117.3 88.75 117.64 87.71 117.99 88.01 118.34 85.94 118.69 84.45 119.04 88.01 119.39 88.45 119.74 88.75 120.09 86.08 120.44 83.42 120.79 83.27 121.14 85.79 121.48 87.86 121.83 87.86 122.18 87.86 122.53 87.27 122.88 89.19 123.23 88.31 123.58 87.27 123.93 85.05 124.28 83.71 124.63 86.82 124.98 89.64 125.33 89.05 125.67 86.97 126.02 88.31 126.37 89.19 126.72 89.49 127.07 91.86 127.42 92.9 127.77 94.23 128.12 93.93 128.47 89.34 128.82 84.31 129.17 79.86 129.51 80.6 129.86 79.71 130.21 75.71 130.56 76.01 130.91 73.49 131.26 72.01 131.61 72.9 131.96 74.23 132.31 74.09 132.66 79.57 133.01 80.75 133.36 80.6 133.7 81.79 134.05 81.79 134.4 79.86 134.75 79.42 135.1 79.57 135.45 79.12 135.8 78.53 136.15 72.46 136.5 80.16 136.85 78.08 137.2 77.49 137.55 76.9 137.89 79.71 138.24 81.05 138.59 80.75 138.94 82.23 139.29 84.31 139.64 86.97 139.99 89.79 140.34 90.68 140.69 91.42 141.04 90.53 141.39 92.9 141.73 90.08 142.08 89.49 142.43 89.05 142.78 90.38 143.13 88.16 143.48 86.53 143.83 82.08 144.18 81.2 144.53 80.6 144.88 78.83 145.23 81.34 145.58 82.53 145.92 81.79 146.27 76.31 146.62 74.09 146.97 75.12 147.32 78.68 147.67 80.16 148.02 81.34 148.37 79.71 148.72 78.97 149.07 79.27 149.42 79.42 149.76 80.31 150.11 82.23 150.46 80.9 150.81 81.64 151.16 80.9 151.51 80.6 151.86 84.45 152.21 83.86 152.56 82.38 152.91 83.57 153.26 84.01 153.61 86.97 153.95 87.71 154.3 82.53 154.65 84.16 155 86.08 155.35 85.79 155.7 83.57 156.05 81.34 156.4 81.79 156.75 81.94 157.1 83.86 157.45 83.71 157.79 86.82 158.14 90.97 158.49 91.27 158.84 91.12 159.19 91.56 159.54 89.05 159.89 89.64 160.24 90.23 160.59 91.12 160.94 91.86 161.29 93.19 161.64 93.19 161.98 90.97 162.33 89.94 162.68 87.71 163.03 89.34 163.38 90.23 163.73 92.31 164.08 92.6 164.43 91.56 164.78 88.16 165.13 86.38 165.48 87.12 165.83 91.71 166.17 91.42 166.52 91.42 166.87 89.49 167.22 88.01 167.57 87.27 167.92 90.38 168.27 90.97 168.62 90.68 168.97 93.34 169.32 94.38 169.67 94.08 170.01 95.27 170.36 94.23 170.71 92.75 171.06 92.9 171.41 97.05 171.76 96.01 172.11 97.05 172.46 97.79 172.81 98.67 173.16 98.53 173.51 97.79 173.86 99.42 174.2 99.12 174.55 97.05 174.9 99.86 175.25 100.16 175.6 99.42 175.95 98.67 176.3 99.56 176.65 102.08 177 104.01 177.35 104.9 177.7 104.45 178.04 104.01 178.39 103.71 178.74 104.01 179.09 103.86 179.44 103.71 179.79 103.41 180.14 104.6 180.49 103.41 180.84 103.41 181.19 98.82 181.54 98.23 181.89 98.53 182.23 99.56 182.58 99.86 182.93 100.01 183.28 100.16 183.63 101.64 183.98 102.53 184.33 100.6 184.68 101.34 185.03 103.71 185.38 104.01 185.73 104.3 186.08 101.19 186.42 101.49 186.77 99.42 187.12 99.42 187.47 96.75 187.82 96.75 188.17 95.86 188.52 97.05 188.87 96.3 189.22 96.9 189.57 97.19 189.92 100.6 190.26 103.27 190.61 103.12 190.96 103.12 191.31 107.41 191.66 109.78 192.01 110.23 192.36 110.23 192.71 110.53 193.06 106.97 193.41 105.78 193.76 104.75 194.11 103.41 194.45 101.79 194.8 100.9 195.15 103.12 195.5 102.38 195.85 102.53 196.2 104.01"/>
      </g>
      <g stroke-width="0.3" fill="#000000" fill-opacity="0.000" class="geometry" stroke-dasharray="none" stroke="#FDAE61" id="img-512c2878-16">
        <path fill="none" d="M21.98,71.86 L 22.33 70.97 22.68 70.68 23.03 67.42 23.38 65.35 23.73 66.09 24.08 66.83 24.42 69.94 24.77 69.79 25.12 72.75 25.47 73.79 25.82 70.68 26.17 68.6 26.52 69.64 26.87 67.72 27.22 69.35 27.57 72.9 27.92 74.97 28.27 72.16 28.61 68.75 28.96 67.42 29.31 70.68 29.66 71.42 30.01 70.23 30.36 67.72 30.71 69.64 31.06 66.23 31.41 65.79 31.76 67.42 32.11 66.53 32.45 66.23 32.8 67.42 33.15 67.27 33.5 65.79 33.85 68.31 34.2 68.46 34.55 71.42 34.9 70.97 35.25 70.83 35.6 69.79 35.95 73.2 36.3 71.86 36.64 73.64 36.99 70.97 37.34 66.98 37.69 66.98 38.04 67.86 38.39 71.12 38.74 71.57 39.09 72.6 39.44 69.05 39.79 70.53 40.14 70.53 40.49 70.53 40.83 70.53 41.18 71.86 41.53 67.72 41.88 69.2 42.23 67.57 42.58 65.94 42.93 63.86 43.28 62.23 43.63 64.75 43.98 61.94 44.33 58.38 44.67 58.38 45.02 57.49 45.37 55.12 45.72 52.75 46.07 50.24 46.42 47.87 46.77 48.16 47.12 50.68 47.47 47.72 47.82 51.42 48.17 52.75 48.52 50.68 48.86 54.53 49.21 50.24 49.56 49.64 49.91 52.16 50.26 54.38 50.61 55.27 50.96 58.53 51.31 54.53 51.66 51.57 52.01 48.46 52.36 50.24 52.7 46.39 53.05 47.87 53.4 48.01 53.75 46.53 54.1 48.31 54.45 48.9 54.8 53.5 55.15 54.68 55.5 56.75 55.85 59.72 56.2 60.75 56.55 60.31 56.89 64.16 57.24 63.42 57.59 62.53 57.94 61.35 58.29 61.2 58.64 61.79 58.99 62.38 59.34 64.75 59.69 67.86 60.04 66.38 60.39 65.35 60.73 64.61 61.08 62.68 61.43 66.09 61.78 65.94 62.13 62.38 62.48 63.57 62.83 64.01 63.18 65.2 63.53 65.35 63.88 65.79 64.23 66.83 64.58 66.68 64.92 66.23 65.27 67.86 65.62 70.53 65.97 72.01 66.32 72.01 66.67 70.68 67.02 72.75 67.37 68.9 67.72 70.23 68.07 70.97 68.42 71.86 68.77 69.2 69.11 70.83 69.46 71.72 69.81 68.9 70.16 67.12 70.51 67.12 70.86 66.38 71.21 67.72 71.56 70.97 71.91 71.57 72.26 72.01 72.61 69.2 72.95 67.72 73.3 65.94 73.65 65.35 74 66.23 74.35 65.79 74.7 64.31 75.05 61.64 75.4 59.72 75.75 58.68 76.1 60.75 76.45 60.01 76.8 59.57 77.14 58.24 77.49 57.94 77.84 56.31 78.19 60.31 78.54 56.75 78.89 57.2 79.24 59.72 79.59 58.68 79.94 58.24 80.29 57.2 80.64 58.98 80.98 56.31 81.33 58.24 81.68 55.87 82.03 54.53 82.38 55.27 82.73 55.12 83.08 54.38 83.43 56.31 83.78 52.61 84.13 52.31 84.48 54.24 84.83 55.57 85.17 50.98 85.52 53.05 85.87 49.94 86.22 48.61 86.57 46.53 86.92 51.27 87.27 48.46 87.62 47.13 87.97 48.61 88.32 48.16 88.67 49.2 89.02 50.24 89.36 49.5 89.71 49.94 90.06 49.05 90.41 50.38 90.76 48.31 91.11 49.2 91.46 53.2 91.81 53.2 92.16 52.31 92.51 54.38 92.86 55.12 93.2 54.09 93.55 57.2 93.9 58.98 94.25 56.46 94.6 56.46 94.95 59.42 95.3 59.86 95.65 63.27 96 62.38 96.35 62.98 96.7 64.31 97.05 64.31 97.39 66.98 97.74 66.09 98.09 64.61 98.44 67.42 98.79 66.09 99.14 61.64 99.49 62.98 99.84 64.01 100.19 63.57 100.54 65.64 100.89 63.27 101.23 61.49 101.58 62.53 101.93 62.68 102.28 61.94 102.63 61.2 102.98 64.01 103.33 65.35 103.68 69.94 104.03 67.27 104.38 66.68 104.73 68.01 105.08 66.38 105.42 66.68 105.77 66.53 106.12 65.94 106.47 67.57 106.82 66.83 107.17 69.2 107.52 73.94 107.87 73.34 108.22 77.05 108.57 75.57 108.92 73.94 109.26 74.83 109.61 73.79 109.96 72.6 110.31 73.2 110.66 74.38 111.01 75.12 111.36 74.09 111.71 73.49 112.06 78.97 112.41 78.68 112.76 78.08 113.11 77.05 113.45 74.83 113.8 73.2 114.15 74.97 114.5 72.9 114.85 73.05 115.2 73.49 115.55 75.57 115.9 72.75 116.25 72.01 116.6 71.86 116.95 72.01 117.3 69.64 117.64 69.94 117.99 68.16 118.34 65.64 118.69 65.79 119.04 67.42 119.39 66.98 119.74 65.79 120.09 64.75 120.44 63.57 120.79 66.53 121.14 64.46 121.48 63.42 121.83 62.53 122.18 64.61 122.53 63.42 122.88 63.57 123.23 63.72 123.58 63.86 123.93 63.72 124.28 61.79 124.63 63.57 124.98 63.12 125.33 62.38 125.67 66.09 126.02 67.86 126.37 66.98 126.72 67.27 127.07 67.57 127.42 67.86 127.77 68.75 128.12 68.16 128.47 67.72 128.82 66.38 129.17 68.01 129.51 68.46 129.86 68.16 130.21 66.23 130.56 69.35 130.91 68.01 131.26 66.38 131.61 65.2 131.96 65.64 132.31 66.98 132.66 64.01 133.01 63.86 133.36 64.75 133.7 64.01 134.05 67.27 134.4 68.16 134.75 71.27 135.1 71.42 135.45 69.79 135.8 69.79 136.15 71.42 136.5 73.64 136.85 72.6 137.2 71.27 137.55 72.75 137.89 70.83 138.24 70.23 138.59 70.97 138.94 69.2 139.29 69.2 139.64 68.01 139.99 68.01 140.34 66.98 140.69 68.46 141.04 68.31 141.39 69.49 141.73 68.9 142.08 72.9 142.43 68.75 142.78 70.38 143.13 74.97 143.48 74.53 143.83 71.42 144.18 71.86 144.53 78.23 144.88 79.12 145.23 80.16 145.58 78.38 145.92 77.05 146.27 75.86 146.62 74.53 146.97 75.57 147.32 74.97 147.67 75.57 148.02 77.05 148.37 72.01 148.72 71.12 149.07 69.79 149.42 72.75 149.76 72.01 150.11 74.53 150.46 77.79 150.81 78.53 151.16 81.79 151.51 79.12 151.86 82.23 152.21 81.79 152.56 81.49 152.91 83.57 153.26 84.16 153.61 80.9 153.95 80.31 154.3 79.12 154.65 83.57 155 80.45 155.35 81.49 155.7 81.64 156.05 78.83 156.4 79.42 156.75 75.27 157.1 74.68 157.45 73.94 157.79 75.42 158.14 74.53 158.49 76.31 158.84 76.75 159.19 76.6 159.54 78.38 159.89 81.79 160.24 80.6 160.59 79.12 160.94 80.16 161.29 82.08 161.64 80.9 161.98 82.97 162.33 85.64 162.68 82.53 163.03 79.86 163.38 74.97 163.73 74.53 164.08 76.75 164.43 83.27 164.78 84.6 165.13 86.53 165.48 84.16 165.83 86.68 166.17 85.34 166.52 85.19 166.87 84.75 167.22 82.68 167.57 80.6 167.92 79.71 168.27 85.19 168.62 86.23 168.97 86.53 169.32 87.27 169.67 88.01 170.01 91.42 170.36 90.68 170.71 90.23 171.06 88.31 171.41 86.53 171.76 87.42 172.11 88.01 172.46 88.9 172.81 88.31 173.16 90.23 173.51 94.82 173.86 94.82 174.2 96.45 174.55 91.86 174.9 94.82 175.25 97.05 175.6 99.86 175.95 98.38 176.3 103.41 176.65 101.04 177 101.64 177.35 99.56 177.7 98.38 178.04 100.75 178.39 100.6 178.74 98.82 179.09 97.34 179.44 94.53 179.79 94.82 180.14 95.71 180.49 95.71 180.84 94.53 181.19 92.01 181.54 92.9 181.89 92.9 182.23 91.27 182.58 95.12 182.93 93.93 183.28 92.45 183.63 93.49 183.98 97.34 184.33 95.12 184.68 96.6 185.03 97.19 185.38 98.08 185.73 97.34 186.08 98.82 186.42 99.56 186.77 101.49 187.12 99.56 187.47 104.9 187.82 108.01 188.17 109.49 188.52 109.64 188.87 110.97 189.22 113.04 189.57 112.01 189.92 110.53 190.26 110.67 190.61 111.41 190.96 110.97 191.31 110.53 191.66 110.08 192.01 110.53 192.36 110.97 192.71 114.23 193.06 116.3 193.41 117.34 193.76 118.52 194.11 115.86 194.45 116.15 194.8 115.56 195.15 113.19 195.5 114.67 195.85 116.3 196.2 114.38"/>
      </g>
      <g stroke-width="0.3" fill="#000000" fill-opacity="0.000" class="geometry" stroke-dasharray="none" stroke="#F46D43" id="img-512c2878-17">
        <path fill="none" d="M21.98,71.86 L 22.33 72.75 22.68 74.23 23.03 74.38 23.38 75.12 23.73 80.6 24.08 82.68 24.42 80.45 24.77 80.01 25.12 80.16 25.47 82.23 25.82 81.64 26.17 82.97 26.52 82.23 26.87 82.82 27.22 83.57 27.57 86.97 27.92 85.79 28.27 86.97 28.61 90.82 28.96 92.45 29.31 91.56 29.66 89.49 30.01 90.82 30.36 93.79 30.71 94.68 31.06 93.49 31.41 88.01 31.76 87.27 32.11 88.31 32.45 89.19 32.8 90.38 33.15 90.82 33.5 88.45 33.85 89.49 34.2 88.31 34.55 89.49 34.9 90.53 35.25 90.23 35.6 93.64 35.95 93.49 36.3 93.49 36.64 95.86 36.99 97.34 37.34 96.3 37.69 95.12 38.04 95.56 38.39 95.27 38.74 96.01 39.09 94.23 39.44 94.08 39.79 92.45 40.14 87.86 40.49 88.75 40.83 88.6 41.18 89.49 41.53 88.45 41.88 92.75 42.23 95.56 42.58 94.68 42.93 93.49 43.28 95.42 43.63 93.34 43.98 93.64 44.33 90.82 44.67 86.97 45.02 87.27 45.37 89.79 45.72 87.42 46.07 89.05 46.42 85.34 46.77 81.49 47.12 82.23 47.47 80.75 47.82 81.2 48.17 77.94 48.52 75.27 48.86 74.23 49.21 75.71 49.56 76.31 49.91 76.9 50.26 79.57 50.61 80.6 50.96 75.42 51.31 71.42 51.66 74.68 52.01 75.86 52.36 76.6 52.7 79.42 53.05 81.64 53.4 81.05 53.75 81.79 54.1 80.75 54.45 80.01 54.8 82.08 55.15 83.27 55.5 85.94 55.85 83.57 56.2 82.38 56.55 83.27 56.89 85.19 57.24 87.86 57.59 88.16 57.94 87.12 58.29 90.23 58.64 88.45 58.99 89.94 59.34 88.9 59.69 90.68 60.04 90.23 60.39 89.05 60.73 89.79 61.08 89.49 61.43 90.53 61.78 89.94 62.13 90.23 62.48 87.57 62.83 88.31 63.18 89.49 63.53 91.12 63.88 96.16 64.23 102.53 64.58 104.01 64.92 105.64 65.27 106.38 65.62 106.23 65.97 106.38 66.32 105.04 66.67 102.38 67.02 102.38 67.37 101.93 67.72 98.67 68.07 100.45 68.42 98.82 68.77 100.01 69.11 101.93 69.46 101.19 69.81 101.34 70.16 102.08 70.51 98.08 70.86 101.34 71.21 101.34 71.56 104.16 71.91 104.9 72.26 104.45 72.61 103.86 72.95 103.56 73.3 104.75 73.65 105.04 74 106.82 74.35 106.08 74.7 106.08 75.05 106.38 75.4 106.53 75.75 106.97 76.1 105.78 76.45 102.53 76.8 99.71 77.14 103.12 77.49 105.19 77.84 105.64 78.19 105.34 78.54 105.78 78.89 106.97 79.24 105.93 79.59 105.64 79.94 101.19 80.29 102.08 80.64 99.86 80.98 103.12 81.33 100.75 81.68 96.9 82.03 95.12 82.38 90.23 82.73 88.01 83.08 86.08 83.43 89.19 83.78 87.27 84.13 86.82 84.48 86.68 84.83 85.49 85.17 87.12 85.52 86.38 85.87 89.34 86.22 89.79 86.57 89.64 86.92 87.42 87.27 85.49 87.62 86.38 87.97 87.12 88.32 88.9 88.67 85.64 89.02 85.94 89.36 85.79 89.71 85.49 90.06 85.79 90.41 85.34 90.76 86.23 91.11 85.05 91.46 85.05 91.81 85.79 92.16 84.9 92.51 79.57 92.86 79.12 93.2 79.12 93.55 77.05 93.9 74.97 94.25 72.75 94.6 71.42 94.95 70.68 95.3 71.42 95.65 69.64 96 71.86 96.35 68.75 96.7 69.94 97.05 70.09 97.39 67.42 97.74 69.49 98.09 68.16 98.44 71.57 98.79 72.16 99.14 73.34 99.49 75.57 99.84 73.64 100.19 80.9 100.54 79.12 100.89 78.53 101.23 78.68 101.58 76.6 101.93 78.23 102.28 81.94 102.63 81.34 102.98 78.83 103.33 77.94 103.68 75.27 104.03 73.05 104.38 69.94 104.73 67.72 105.08 68.01 105.42 65.64 105.77 65.49 106.12 67.27 106.47 66.23 106.82 62.98 107.17 64.46 107.52 67.86 107.87 70.83 108.22 70.83 108.57 72.75 108.92 74.97 109.26 74.53 109.61 72.9 109.96 71.27 110.31 72.6 110.66 75.12 111.01 75.86 111.36 73.64 111.71 74.09 112.06 76.01 112.41 76.16 112.76 75.57 113.11 72.01 113.45 72.9 113.8 72.6 114.15 71.27 114.5 70.68 114.85 66.68 115.2 64.75 115.55 68.01 115.9 70.97 116.25 71.86 116.6 70.68 116.95 69.94 117.3 73.05 117.64 72.9 117.99 70.97 118.34 73.05 118.69 72.01 119.04 73.2 119.39 74.23 119.74 74.68 120.09 74.23 120.44 75.57 120.79 73.34 121.14 76.75 121.48 77.49 121.83 76.75 122.18 80.31 122.53 81.2 122.88 81.94 123.23 82.82 123.58 81.49 123.93 80.6 124.28 82.53 124.63 83.42 124.98 81.79 125.33 82.08 125.67 80.75 126.02 82.38 126.37 82.53 126.72 81.64 127.07 79.71 127.42 80.9 127.77 83.57 128.12 81.49 128.47 82.38 128.82 81.64 129.17 80.6 129.51 78.23 129.86 79.42 130.21 76.75 130.56 77.2 130.91 78.23 131.26 79.42 131.61 81.2 131.96 78.23 132.31 77.2 132.66 75.27 133.01 72.6 133.36 72.31 133.7 75.86 134.05 81.49 134.4 80.16 134.75 78.83 135.1 79.57 135.45 82.08 135.8 80.9 136.15 82.82 136.5 85.34 136.85 87.57 137.2 87.71 137.55 86.97 137.89 89.34 138.24 88.9 138.59 89.34 138.94 91.27 139.29 92.45 139.64 90.68 139.99 92.75 140.34 90.23 140.69 87.86 141.04 85.49 141.39 85.19 141.73 86.23 142.08 84.45 142.43 85.94 142.78 86.68 143.13 86.08 143.48 88.31 143.83 85.49 144.18 81.79 144.53 81.34 144.88 82.38 145.23 83.86 145.58 83.71 145.92 84.01 146.27 84.01 146.62 87.71 146.97 89.64 147.32 89.05 147.67 89.64 148.02 89.94 148.37 90.08 148.72 89.79 149.07 87.42 149.42 89.64 149.76 87.86 150.11 91.71 150.46 89.49 150.81 87.86 151.16 91.86 151.51 90.68 151.86 92.31 152.21 90.38 152.56 89.34 152.91 87.12 153.26 87.71 153.61 87.27 153.95 87.86 154.3 90.53 154.65 90.53 155 86.08 155.35 87.42 155.7 85.05 156.05 86.82 156.4 85.64 156.75 87.57 157.1 86.08 157.45 86.97 157.79 85.05 158.14 86.23 158.49 91.27 158.84 93.34 159.19 91.71 159.54 90.38 159.89 94.38 160.24 95.27 160.59 93.19 160.94 93.79 161.29 93.19 161.64 95.27 161.98 93.34 162.33 93.19 162.68 92.01 163.03 87.12 163.38 89.34 163.73 89.64 164.08 88.16 164.43 86.68 164.78 89.49 165.13 92.16 165.48 90.97 165.83 92.6 166.17 91.56 166.52 93.34 166.87 93.05 167.22 95.56 167.57 95.12 167.92 93.19 168.27 91.86 168.62 93.05 168.97 93.19 169.32 93.19 169.67 92.31 170.01 90.38 170.36 90.08 170.71 87.57 171.06 83.57 171.41 82.82 171.76 83.86 172.11 84.75 172.46 86.23 172.81 86.08 173.16 86.53 173.51 83.71 173.86 80.16 174.2 80.01 174.55 82.53 174.9 79.71 175.25 83.42 175.6 87.42 175.95 87.86 176.3 89.49 176.65 90.53 177 90.08 177.35 88.9 177.7 83.86 178.04 85.49 178.39 86.68 178.74 90.38 179.09 90.68 179.44 93.64 179.79 91.56 180.14 93.05 180.49 90.08 180.84 91.86 181.19 92.6 181.54 92.75 181.89 94.08 182.23 94.68 182.58 97.49 182.93 94.08 183.28 93.64 183.63 93.49 183.98 94.38 184.33 92.6 184.68 92.01 185.03 90.97 185.38 89.19 185.73 90.38 186.08 88.45 186.42 89.34 186.77 91.42 187.12 90.82 187.47 90.53 187.82 89.34 188.17 86.97 188.52 89.94 188.87 90.08 189.22 95.12 189.57 94.38 189.92 91.12 190.26 91.56 190.61 86.97 190.96 86.82 191.31 86.08 191.66 88.45 192.01 86.97 192.36 87.71 192.71 89.19 193.06 88.75 193.41 88.9 193.76 89.19 194.11 88.9 194.45 88.31 194.8 90.68 195.15 89.05 195.5 88.9 195.85 89.64 196.2 88.31"/>
      </g>
      <g stroke-width="0.3" fill="#000000" fill-opacity="0.000" class="geometry" stroke-dasharray="none" stroke="#D53E4F" id="img-512c2878-18">
        <path fill="none" d="M21.98,71.86 L 22.33 70.68 22.68 69.64 23.03 67.42 23.38 70.09 23.73 69.35 24.08 66.23 24.42 68.75 24.77 63.86 25.12 61.35 25.47 60.01 25.82 59.12 26.17 55.57 26.52 49.79 26.87 51.42 27.22 49.64 27.57 48.01 27.92 48.31 28.27 48.31 28.61 48.16 28.96 42.53 29.31 45.79 29.66 46.83 30.01 46.39 30.36 48.31 30.71 50.38 31.06 54.53 31.41 57.64 31.76 61.49 32.11 61.79 32.45 63.12 32.8 66.68 33.15 68.01 33.5 71.86 33.85 70.53 34.2 69.2 34.55 71.72 34.9 72.75 35.25 73.94 35.6 73.05 35.95 72.01 36.3 72.46 36.64 75.27 36.99 77.2 37.34 73.64 37.69 72.16 38.04 70.38 38.39 67.86 38.74 64.31 39.09 64.75 39.44 64.31 39.79 66.38 40.14 66.09 40.49 68.16 40.83 66.53 41.18 68.6 41.53 70.53 41.88 69.94 42.23 70.68 42.58 69.64 42.93 68.6 43.28 68.75 43.63 70.09 43.98 75.57 44.33 75.42 44.67 78.53 45.02 78.53 45.37 77.94 45.72 81.2 46.07 79.86 46.42 80.01 46.77 79.57 47.12 80.6 47.47 79.71 47.82 80.31 48.17 79.57 48.52 81.64 48.86 87.57 49.21 89.05 49.56 94.23 49.91 92.31 50.26 94.08 50.61 93.64 50.96 91.27 51.31 93.05 51.66 89.79 52.01 89.49 52.36 94.23 52.7 94.38 53.05 89.34 53.4 92.6 53.75 90.23 54.1 86.08 54.45 86.38 54.8 86.53 55.15 87.57 55.5 88.9 55.85 88.6 56.2 85.49 56.55 82.82 56.89 82.23 57.24 76.46 57.59 75.12 57.94 73.79 58.29 74.09 58.64 74.83 58.99 76.01 59.34 77.49 59.69 80.01 60.04 76.16 60.39 77.05 60.73 75.71 61.08 75.12 61.43 76.46 61.78 78.53 62.13 77.79 62.48 78.38 62.83 77.49 63.18 76.46 63.53 76.6 63.88 73.2 64.23 73.49 64.58 74.68 64.92 71.86 65.27 73.2 65.62 72.6 65.97 70.68 66.32 73.64 66.67 73.05 67.02 74.38 67.37 72.16 67.72 72.9 68.07 75.71 68.42 73.05 68.77 73.34 69.11 71.42 69.46 75.12 69.81 74.38 70.16 74.53 70.51 73.94 70.86 73.2 71.21 74.83 71.56 73.2 71.91 74.38 72.26 73.94 72.61 73.2 72.95 72.16 73.3 69.79 73.65 69.2 74 71.86 74.35 71.42 74.7 70.97 75.05 71.72 75.4 68.9 75.75 68.31 76.1 71.42 76.45 69.35 76.8 70.38 77.14 72.31 77.49 71.42 77.84 71.42 78.19 71.27 78.54 69.64 78.89 66.83 79.24 67.72 79.59 68.31 79.94 68.01 80.29 70.53 80.64 67.86 80.98 69.94 81.33 69.79 81.68 68.01 82.03 66.68 82.38 72.46 82.73 71.57 83.08 70.97 83.43 74.23 83.78 72.75 84.13 70.83 84.48 74.09 84.83 72.9 85.17 74.38 85.52 72.75 85.87 69.49 86.22 68.75 86.57 73.05 86.92 71.27 87.27 68.16 87.62 68.6 87.97 69.2 88.32 69.94 88.67 67.42 89.02 67.27 89.36 64.75 89.71 63.42 90.06 65.64 90.41 64.16 90.76 64.16 91.11 64.01 91.46 63.86 91.81 64.16 92.16 65.05 92.51 65.64 92.86 63.42 93.2 64.01 93.55 66.98 93.9 66.23 94.25 68.16 94.6 66.38 94.95 68.01 95.3 70.23 95.65 70.53 96 73.2 96.35 74.68 96.7 73.64 97.05 73.94 97.39 72.6 97.74 73.2 98.09 73.05 98.44 71.86 98.79 71.86 99.14 68.01 99.49 70.97 99.84 70.09 100.19 68.6 100.54 69.2 100.89 71.86 101.23 72.75 101.58 67.42 101.93 64.61 102.28 64.46 102.63 65.49 102.98 66.53 103.33 67.72 103.68 70.83 104.03 71.86 104.38 71.27 104.73 71.86 105.08 71.72 105.42 70.09 105.77 64.31 106.12 62.23 106.47 65.79 106.82 63.12 107.17 66.09 107.52 65.49 107.87 67.42 108.22 68.16 108.57 67.12 108.92 62.98 109.26 62.09 109.61 60.16 109.96 59.86 110.31 60.46 110.66 62.68 111.01 61.64 111.36 62.83 111.71 62.38 112.06 65.79 112.41 65.64 112.76 68.75 113.11 70.38 113.45 69.49 113.8 67.57 114.15 64.31 114.5 63.86 114.85 60.9 115.2 60.31 115.55 61.94 115.9 61.94 116.25 61.35 116.6 63.57 116.95 62.09 117.3 62.83 117.64 60.31 117.99 55.57 118.34 55.27 118.69 57.2 119.04 54.53 119.39 53.2 119.74 52.61 120.09 51.42 120.44 50.38 120.79 53.64 121.14 53.64 121.48 55.57 121.83 57.35 122.18 59.27 122.53 56.01 122.88 52.31 123.23 52.61 123.58 51.87 123.93 54.68 124.28 58.09 124.63 61.05 124.98 60.61 125.33 59.12 125.67 61.05 126.02 63.42 126.37 62.53 126.72 62.53 127.07 62.83 127.42 61.64 127.77 61.49 128.12 64.16 128.47 65.64 128.82 69.64 129.17 65.64 129.51 66.23 129.86 70.23 130.21 67.42 130.56 70.97 130.91 69.2 131.26 64.16 131.61 62.53 131.96 60.9 132.31 61.05 132.66 61.35 133.01 63.42 133.36 62.98 133.7 62.23 134.05 61.79 134.4 59.72 134.75 59.57 135.1 58.38 135.45 57.2 135.8 55.87 136.15 54.24 136.5 54.38 136.85 54.38 137.2 55.87 137.55 55.72 137.89 56.01 138.24 56.61 138.59 55.72 138.94 56.01 139.29 53.94 139.64 51.72 139.99 52.16 140.34 50.83 140.69 53.2 141.04 51.87 141.39 48.16 141.73 45.35 142.08 44.76 142.43 43.13 142.78 43.42 143.13 47.57 143.48 49.35 143.83 49.94 144.18 51.72 144.53 49.64 144.88 45.94 145.23 45.79 145.58 47.27 145.92 47.13 146.27 47.57 146.62 48.01 146.97 48.01 147.32 47.57 147.67 46.24 148.02 46.98 148.37 46.83 148.72 42.39 149.07 43.27 149.42 42.53 149.76 43.42 150.11 40.02 150.46 42.39 150.81 40.76 151.16 43.27 151.51 41.64 151.86 43.42 152.21 46.53 152.56 44.31 152.91 45.35 153.26 43.87 153.61 41.94 153.95 40.16 154.3 37.94 154.65 40.02 155 38.39 155.35 35.42 155.7 38.09 156.05 37.2 156.4 35.87 156.75 35.72 157.1 35.13 157.45 35.57 157.79 34.83 158.14 36.61 158.49 37.2 158.84 36.31 159.19 37.05 159.54 37.65 159.89 38.39 160.24 35.28 160.59 34.53 160.94 34.24 161.29 37.5 161.64 38.09 161.98 36.31 162.33 36.16 162.68 36.9 163.03 38.68 163.38 35.28 163.73 37.79 164.08 37.05 164.43 38.83 164.78 37.5 165.13 39.72 165.48 38.53 165.83 35.57 166.17 36.02 166.52 35.42 166.87 35.28 167.22 32.02 167.57 30.83 167.92 27.42 168.27 27.42 168.62 27.28 168.97 29.05 169.32 29.79 169.67 28.46 170.01 28.61 170.36 28.02 170.71 28.02 171.06 29.94 171.41 32.16 171.76 35.28 172.11 33.79 172.46 32.31 172.81 31.28 173.16 31.28 173.51 33.65 173.86 32.61 174.2 33.5 174.55 31.57 174.9 29.5 175.25 30.39 175.6 30.09 175.95 28.46 176.3 28.91 176.65 30.83 177 29.2 177.35 28.61 177.7 29.05 178.04 28.31 178.39 27.57 178.74 29.35 179.09 28.46 179.44 26.54 179.79 27.28 180.14 26.83 180.49 24.17 180.84 23.57 181.19 25.2 181.54 25.8 181.89 26.83 182.23 27.28 182.58 29.94 182.93 28.31 183.28 29.5 183.63 32.46 183.98 32.61 184.33 31.28 184.68 32.02 185.03 32.46 185.38 33.79 185.73 34.39 186.08 34.09 186.42 34.24 186.77 32.76 187.12 32.46 187.47 30.24 187.82 30.24 188.17 29.65 188.52 31.42 188.87 35.13 189.22 35.57 189.57 36.9 189.92 37.79 190.26 37.79 190.61 37.94 190.96 38.68 191.31 38.39 191.66 38.24 192.01 39.27 192.36 38.83 192.71 40.76 193.06 37.94 193.41 35.72 193.76 35.72 194.11 34.98 194.45 35.87 194.8 33.5 195.15 36.9 195.5 37.65 195.85 37.05 196.2 35.72"/>
      </g>
      <g stroke-width="0.3" fill="#000000" fill-opacity="0.000" class="geometry" stroke-dasharray="none" stroke="#9E0142" id="img-512c2878-19">
        <path fill="none" d="M21.98,71.86 L 22.33 72.16 22.68 74.53 23.03 73.2 23.38 75.57 23.73 74.53 24.08 73.79 24.42 73.49 24.77 73.05 25.12 72.46 25.47 75.12 25.82 78.38 26.17 75.12 26.52 72.16 26.87 72.6 27.22 72.01 27.57 71.57 27.92 71.86 28.27 69.2 28.61 71.72 28.96 70.83 29.31 66.38 29.66 64.16 30.01 64.46 30.36 66.53 30.71 67.42 31.06 65.79 31.41 64.31 31.76 63.42 32.11 61.35 32.45 62.09 32.8 61.94 33.15 61.94 33.5 58.38 33.85 60.46 34.2 60.61 34.55 58.68 34.9 59.42 35.25 58.53 35.6 57.35 35.95 55.42 36.3 52.46 36.64 53.79 36.99 52.61 37.34 53.05 37.69 53.2 38.04 54.68 38.39 51.42 38.74 51.13 39.09 51.42 39.44 51.57 39.79 48.16 40.14 43.87 40.49 44.16 40.83 46.53 41.18 49.5 41.53 49.64 41.88 49.94 42.23 50.83 42.58 52.01 42.93 52.31 43.28 52.01 43.63 50.53 43.98 49.05 44.33 49.94 44.67 50.68 45.02 50.24 45.37 48.16 45.72 45.64 46.07 44.31 46.42 47.13 46.77 50.83 47.12 49.5 47.47 53.05 47.82 50.24 48.17 49.5 48.52 51.13 48.86 54.68 49.21 51.27 49.56 54.53 49.91 52.16 50.26 50.98 50.61 49.5 50.96 47.87 51.31 48.31 51.66 45.05 52.01 46.68 52.36 46.83 52.7 46.53 53.05 47.57 53.4 49.5 53.75 50.09 54.1 49.35 54.45 49.79 54.8 53.35 55.15 51.57 55.5 53.64 55.85 49.64 56.2 48.61 56.55 45.64 56.89 42.83 57.24 43.57 57.59 44.02 57.94 45.05 58.29 46.24 58.64 46.09 58.99 47.13 59.34 44.31 59.69 43.72 60.04 44.9 60.39 43.27 60.73 41.2 61.08 42.09 61.43 41.2 61.78 39.57 62.13 38.24 62.48 39.42 62.83 38.09 63.18 37.65 63.53 37.79 63.88 39.57 64.23 39.27 64.58 38.53 64.92 38.68 65.27 37.05 65.62 34.98 65.97 33.35 66.32 33.5 66.67 35.57 67.02 34.98 67.37 35.87 67.72 34.09 68.07 30.98 68.42 28.31 68.77 29.65 69.11 29.94 69.46 28.31 69.81 28.46 70.16 27.72 70.51 26.98 70.86 26.83 71.21 26.98 71.56 24.91 71.91 21.65 72.26 23.43 72.61 22.83 72.95 24.17 73.3 24.91 73.65 24.91 74 26.39 74.35 26.24 74.7 26.39 75.05 25.35 75.4 24.02 75.75 23.72 76.1 23.57 76.45 23.28 76.8 22.98 77.14 22.09 77.49 20.61 77.84 19.43 78.19 19.87 78.54 21.35 78.89 21.2 79.24 21.8 79.59 22.54 79.94 24.02 80.29 25.65 80.64 23.72 80.98 24.91 81.33 26.24 81.68 24.61 82.03 24.17 82.38 22.39 82.73 20.91 83.08 19.87 83.43 20.76 83.78 18.68 84.13 18.09 84.48 17.35 84.83 17.06 85.17 16.76 85.52 16.17 85.87 17.06 86.22 17.65 86.57 17.06 86.92 17.35 87.27 17.35 87.62 17.06 87.97 17.2 88.32 15.57 88.67 16.76 89.02 18.24 89.36 18.24 89.71 18.83 90.06 18.09 90.41 18.39 90.76 18.98 91.11 20.31 91.46 20.91 91.81 22.24 92.16 22.54 92.51 21.8 92.86 24.76 93.2 25.94 93.55 26.39 93.9 24.91 94.25 24.17 94.6 26.98 94.95 27.87 95.3 27.13 95.65 28.76 96 28.46 96.35 26.98 96.7 25.8 97.05 23.57 97.39 23.87 97.74 23.57 98.09 25.5 98.44 26.39 98.79 25.05 99.14 23.13 99.49 22.68 99.84 23.13 100.19 24.02 100.54 22.09 100.89 22.24 101.23 24.02 101.58 24.46 101.93 24.61 102.28 24.17 102.63 23.57 102.98 24.76 103.33 25.35 103.68 25.65 104.03 25.05 104.38 23.13 104.73 22.54 105.08 22.09 105.42 22.39 105.77 21.5 106.12 20.17 106.47 20.91 106.82 21.35 107.17 21.65 107.52 21.35 107.87 20.02 108.22 21.8 108.57 22.83 108.92 21.94 109.26 20.61 109.61 19.72 109.96 18.83 110.31 17.8 110.66 18.39 111.01 17.94 111.36 16.61 111.71 16.76 112.06 16.02 112.41 15.43 112.76 16.17 113.11 16.17 113.45 15.72 113.8 15.57 114.15 16.91 114.5 17.35 114.85 17.2 115.2 16.17 115.55 15.72 115.9 16.61 116.25 16.17 116.6 15.28 116.95 15.87 117.3 16.02 117.64 16.17 117.99 15.43 118.34 15.13 118.69 14.69 119.04 15.13 119.39 14.39 119.74 13.5 120.09 12.76 120.44 12.76 120.79 13.06 121.14 12.76 121.48 13.06 121.83 12.76 122.18 12.76 122.53 12.76 122.88 12.61 123.23 12.61 123.58 12.61 123.93 12.91 124.28 13.06 124.63 13.35 124.98 13.35 125.33 13.2 125.67 13.06 126.02 13.06 126.37 13.2 126.72 13.06 127.07 13.65 127.42 13.65 127.77 13.94 128.12 14.54 128.47 14.54 128.82 14.98 129.17 15.43 129.51 15.57 129.86 16.17 130.21 15.72 130.56 16.02 130.91 15.43 131.26 14.83 131.61 14.24 131.96 14.09 132.31 14.69 132.66 14.83 133.01 15.57 133.36 15.43 133.7 15.72 134.05 16.46 134.4 17.65 134.75 16.76 135.1 17.2 135.45 17.2 135.8 17.8 136.15 18.83 136.5 18.54 136.85 19.57 137.2 19.13 137.55 20.46 137.89 19.57 138.24 20.61 138.59 21.06 138.94 20.46 139.29 21.65 139.64 21.94 139.99 22.83 140.34 24.31 140.69 24.46 141.04 24.91 141.39 24.76 141.73 23.28 142.08 22.39 142.43 20.46 142.78 20.61 143.13 21.06 143.48 20.46 143.83 19.72 144.18 18.98 144.53 18.54 144.88 19.87 145.23 20.61 145.58 20.76 145.92 21.8 146.27 22.83 146.62 24.46 146.97 22.24 147.32 21.35 147.67 24.17 148.02 22.98 148.37 24.61 148.72 26.09 149.07 25.05 149.42 25.05 149.76 24.61 150.11 23.87 150.46 23.43 150.81 22.83 151.16 25.2 151.51 27.72 151.86 27.42 152.21 29.94 152.56 31.72 152.91 30.24 153.26 32.76 153.61 35.87 153.95 34.24 154.3 34.98 154.65 32.02 155 32.76 155.35 32.91 155.7 34.83 156.05 32.02 156.4 32.76 156.75 32.31 157.1 31.57 157.45 30.54 157.79 29.05 158.14 29.05 158.49 29.65 158.84 30.98 159.19 28.46 159.54 29.05 159.89 29.94 160.24 31.28 160.59 33.65 160.94 34.39 161.29 34.68 161.64 36.9 161.98 34.53 162.33 36.31 162.68 36.02 163.03 35.28 163.38 37.2 163.73 38.09 164.08 37.79 164.43 38.68 164.78 36.76 165.13 40.31 165.48 39.42 165.83 40.02 166.17 41.35 166.52 45.05 166.87 44.02 167.22 41.35 167.57 39.42 167.92 39.27 168.27 38.68 168.62 36.76 168.97 38.53 169.32 36.9 169.67 37.5 170.01 34.39 170.36 33.35 170.71 33.5 171.06 36.02 171.41 36.76 171.76 38.09 172.11 33.79 172.46 34.24 172.81 36.31 173.16 36.9 173.51 38.09 173.86 40.76 174.2 39.13 174.55 37.5 174.9 39.57 175.25 38.98 175.6 37.2 175.95 38.53 176.3 38.68 176.65 38.98 177 41.5 177.35 40.02 177.7 38.68 178.04 37.65 178.39 38.09 178.74 37.65 179.09 40.9 179.44 40.31 179.79 42.24 180.14 42.98 180.49 40.02 180.84 36.16 181.19 38.09 181.54 35.57 181.89 35.13 182.23 35.13 182.58 34.98 182.93 37.2 183.28 36.76 183.63 34.53 183.98 36.46 184.33 36.02 184.68 36.9 185.03 36.16 185.38 36.46 185.73 39.27 186.08 41.94 186.42 42.39 186.77 40.02 187.12 38.98 187.47 35.57 187.82 36.46 188.17 37.79 188.52 35.28 188.87 32.91 189.22 33.05 189.57 32.46 189.92 29.2 190.26 33.2 190.61 33.5 190.96 32.16 191.31 34.68 191.66 34.53 192.01 35.72 192.36 33.94 192.71 35.42 193.06 33.5 193.41 34.09 193.76 34.98 194.11 36.76 194.45 37.2 194.8 37.35 195.15 38.98 195.5 38.98 195.85 39.27 196.2 36.46"/>
      </g>
    </g>
  </g>
</g>
  <g class="guide ylabels" font-size="2.82" font-family="'PT Sans Caption','Helvetica Neue','Helvetica',sans-serif" fill="#000000" id="img-512c2878-20">
    <text x="18.63" y="131.11" text-anchor="end" dy="0.35em">0</text>
    <text x="18.63" y="101.49" text-anchor="end" dy="0.35em">200</text>
    <text x="18.63" y="71.86" text-anchor="end" dy="0.35em">400</text>
    <text x="18.63" y="42.24" text-anchor="end" dy="0.35em">600</text>
    <text x="18.63" y="12.61" text-anchor="end" dy="0.35em">800</text>
  </g>
  <g font-size="3.88" font-family="'PT Sans','Helvetica Neue','Helvetica',sans-serif" fill="#000000" stroke="#000000" stroke-opacity="0.000" id="img-512c2878-21">
    <text x="8.81" y="69.86" text-anchor="middle" dy="0.35em" transform="rotate(-90, 8.81, 71.86)">population size</text>
  </g>
  <g font-size="3.88" font-family="'PT Sans','Helvetica Neue','Helvetica',sans-serif" fill="#000000" stroke="#000000" stroke-opacity="0.000" id="img-512c2878-22">
    <text x="108.92" y="5" text-anchor="middle" dy="0.6em">genetic drift with mutationrate  = 0.001 </text>
  </g>
</g>
<defs>
  <clipPath id="img-512c2878-4">
  <path d="M19.63,10.61 L 198.2 10.61 198.2 133.11 19.63 133.11" />
</clipPath>
</defs>
</svg>
