<?xml version="1.0" encoding="UTF-8"?>
<svg xmlns="http://www.w3.org/2000/svg"
     xmlns:xlink="http://www.w3.org/1999/xlink"
     xmlns:gadfly="http://www.gadflyjl.org/ns"
     version="1.2"
     width="203.2mm" height="152.4mm" viewBox="0 0 203.2 152.4"
     stroke="none"
     fill="#000000"
     stroke-width="0.3"
     font-size="3.88"
>
<g class="plotroot xscalable yscalable" id="img-eaca77a5-1">
  <g font-size="3.88" font-family="'PT Sans','Helvetica Neue','Helvetica',sans-serif" fill="#000000" stroke="#000000" stroke-opacity="0.000" id="img-eaca77a5-2">
    <text x="96.33" y="140.79" text-anchor="middle" dy="0.6em">number of A_type individuals (bin count = 50)</text>
  </g>
  <g class="guide xlabels" font-size="2.82" font-family="'PT Sans Caption','Helvetica Neue','Helvetica',sans-serif" fill="#000000" id="img-eaca77a5-3">
    <text x="20.63" y="134.11" text-anchor="middle" dy="0.6em">0</text>
    <text x="58.48" y="134.11" text-anchor="middle" dy="0.6em">200</text>
    <text x="96.33" y="134.11" text-anchor="middle" dy="0.6em">400</text>
    <text x="134.18" y="134.11" text-anchor="middle" dy="0.6em">600</text>
    <text x="172.03" y="134.11" text-anchor="middle" dy="0.6em">800</text>
  </g>
  <g class="guide colorkey" id="img-eaca77a5-4">
    <g fill="#4C404B" font-size="2.82" font-family="'PT Sans','Helvetica Neue','Helvetica',sans-serif" id="img-eaca77a5-5">
      <text x="177.85" y="109.96" dy="0.35em">histogram</text>
      <text x="177.85" y="113.59" dy="0.35em">theoretical curve</text>
    </g>
    <g stroke="#000000" stroke-opacity="0.000" id="img-eaca77a5-6">
      <rect x="175.03" y="109.06" width="1.81" height="1.81" fill="#00BFFF"/>
      <rect x="175.03" y="112.68" width="1.81" height="1.81" fill="#FFA500"/>
    </g>
    <g fill="#362A35" font-size="3.88" font-family="'PT Sans','Helvetica Neue','Helvetica',sans-serif" stroke="#000000" stroke-opacity="0.000" id="img-eaca77a5-7">
      <text x="175.03" y="106.14">Legend</text>
    </g>
  </g>
<g clip-path="url(#img-eaca77a5-8)">
  <g id="img-eaca77a5-9">
    <g pointer-events="visible" opacity="1" fill="#FFFFFF" stroke="#000000" stroke-opacity="0.000" class="guide background" id="img-eaca77a5-10">
      <rect x="18.63" y="86.81" width="155.4" height="46.3"/>
    </g>
    <g class="guide ygridlines xfixed" stroke-dasharray="0.5,0.5" stroke-width="0.2" stroke="#808080" id="img-eaca77a5-11">
      <path fill="none" d="M18.63,131.11 L 174.03 131.11"/>
      <path fill="none" d="M18.63,109.96 L 174.03 109.96"/>
      <path fill="none" d="M18.63,88.81 L 174.03 88.81"/>
    </g>
    <g class="guide xgridlines yfixed" stroke-dasharray="0.5,0.5" stroke-width="0.2" stroke="#808080" id="img-eaca77a5-12">
      <path fill="none" d="M20.63,86.81 L 20.63 133.11"/>
      <path fill="none" d="M58.48,86.81 L 58.48 133.11"/>
      <path fill="none" d="M96.33,86.81 L 96.33 133.11"/>
      <path fill="none" d="M134.18,86.81 L 134.18 133.11"/>
      <path fill="none" d="M172.03,86.81 L 172.03 133.11"/>
    </g>
    <g class="plotpanel" id="img-eaca77a5-13">
      <g stroke-width="0.3" fill="#000000" fill-opacity="0.000" class="geometry" stroke-dasharray="none" stroke="#FFA500" id="img-eaca77a5-14">
        <path fill="none" d="M21.24,117.89 L 21.85 124.48 22.46 126.67 23.06 127.77 23.67 128.43 24.28 128.87 24.89 129.18 25.5 129.41 26.1 129.6 26.71 129.74 27.32 129.86 27.93 129.96 28.54 130.05 29.14 130.12 29.75 130.18 30.36 130.24 30.97 130.28 31.58 130.33 32.18 130.36 32.79 130.4 33.4 130.43 34.01 130.46 34.62 130.48 35.22 130.51 35.83 130.53 36.44 130.55 37.05 130.57 37.66 130.59 38.26 130.6 38.87 130.62 39.48 130.63 40.09 130.64 40.7 130.66 41.3 130.67 41.91 130.68 42.52 130.69 43.13 130.7 43.74 130.71 44.35 130.71 44.95 130.72 45.56 130.73 46.17 130.74 46.78 130.74 47.39 130.75 47.99 130.76 48.6 130.76 49.21 130.77 49.82 130.78 50.43 130.78 51.03 130.79 51.64 130.79 52.25 130.79 52.86 130.8 53.47 130.8 54.07 130.81 54.68 130.81 55.29 130.82 55.9 130.82 56.51 130.82 57.11 130.83 57.72 130.83 58.33 130.83 58.94 130.84 59.55 130.84 60.15 130.84 60.76 130.84 61.37 130.85 61.98 130.85 62.59 130.85 63.19 130.85 63.8 130.86 64.41 130.86 65.02 130.86 65.63 130.86 66.23 130.86 66.84 130.87 67.45 130.87 68.06 130.87 68.67 130.87 69.27 130.87 69.88 130.87 70.49 130.88 71.1 130.88 71.71 130.88 72.31 130.88 72.92 130.88 73.53 130.88 74.14 130.88 74.75 130.88 75.36 130.89 75.96 130.89 76.57 130.89 77.18 130.89 77.79 130.89 78.4 130.89 79 130.89 79.61 130.89 80.22 130.89 80.83 130.89 81.44 130.89 82.04 130.9 82.65 130.9 83.26 130.9 83.87 130.9 84.48 130.9 85.08 130.9 85.69 130.9 86.3 130.9 86.91 130.9 87.52 130.9 88.12 130.9 88.73 130.9 89.34 130.9 89.95 130.9 90.56 130.9 91.16 130.9 91.77 130.9 92.38 130.9 92.99 130.9 93.6 130.9 94.2 130.9 94.81 130.9 95.42 130.9 96.03 130.9 96.64 130.9 97.24 130.9 97.85 130.9 98.46 130.9 99.07 130.9 99.68 130.9 100.28 130.9 100.89 130.9 101.5 130.9 102.11 130.9 102.72 130.9 103.32 130.9 103.93 130.9 104.54 130.9 105.15 130.9 105.76 130.9 106.37 130.9 106.97 130.9 107.58 130.9 108.19 130.9 108.8 130.9 109.41 130.9 110.01 130.9 110.62 130.9 111.23 130.89 111.84 130.89 112.45 130.89 113.05 130.89 113.66 130.89 114.27 130.89 114.88 130.89 115.49 130.89 116.09 130.89 116.7 130.89 117.31 130.89 117.92 130.88 118.53 130.88 119.13 130.88 119.74 130.88 120.35 130.88 120.96 130.88 121.57 130.88 122.17 130.88 122.78 130.87 123.39 130.87 124 130.87 124.61 130.87 125.21 130.87 125.82 130.87 126.43 130.86 127.04 130.86 127.65 130.86 128.25 130.86 128.86 130.86 129.47 130.85 130.08 130.85 130.69 130.85 131.29 130.85 131.9 130.84 132.51 130.84 133.12 130.84 133.73 130.84 134.33 130.83 134.94 130.83 135.55 130.83 136.16 130.82 136.77 130.82 137.38 130.82 137.98 130.81 138.59 130.81 139.2 130.8 139.81 130.8 140.42 130.79 141.02 130.79 141.63 130.79 142.24 130.78 142.85 130.78 143.46 130.77 144.06 130.76 144.67 130.76 145.28 130.75 145.89 130.74 146.5 130.74 147.1 130.73 147.71 130.72 148.32 130.71 148.93 130.71 149.54 130.7 150.14 130.69 150.75 130.68 151.36 130.67 151.97 130.66 152.58 130.64 153.18 130.63 153.79 130.62 154.4 130.6 155.01 130.59 155.62 130.57 156.22 130.55 156.83 130.53 157.44 130.51 158.05 130.48 158.66 130.46 159.26 130.43 159.87 130.4 160.48 130.36 161.09 130.33 161.7 130.28 162.3 130.24 162.91 130.18 163.52 130.12 164.13 130.05 164.74 129.96 165.34 129.86 165.95 129.74 166.56 129.6 167.17 129.41 167.78 129.18 168.39 128.87 168.99 128.43 169.6 127.77 170.21 126.67 170.82 124.48 171.43 117.89"/>
      </g>
      <g stroke-width="0.3" fill="#000000" fill-opacity="0.000" class="geometry" stroke-dasharray="none" stroke="#FFA500" id="img-eaca77a5-15">
        <path fill="none" d="M21.24,117.89 L 21.85 124.48 22.46 126.67 23.06 127.77 23.67 128.43 24.28 128.87 24.89 129.18 25.5 129.41 26.1 129.6 26.71 129.74 27.32 129.86 27.93 129.96 28.54 130.05 29.14 130.12 29.75 130.18 30.36 130.24 30.97 130.28 31.58 130.33 32.18 130.36 32.79 130.4 33.4 130.43 34.01 130.46 34.62 130.48 35.22 130.51 35.83 130.53 36.44 130.55 37.05 130.57 37.66 130.59 38.26 130.6 38.87 130.62 39.48 130.63 40.09 130.64 40.7 130.66 41.3 130.67 41.91 130.68 42.52 130.69 43.13 130.7 43.74 130.71 44.35 130.71 44.95 130.72 45.56 130.73 46.17 130.74 46.78 130.74 47.39 130.75 47.99 130.76 48.6 130.76 49.21 130.77 49.82 130.78 50.43 130.78 51.03 130.79 51.64 130.79 52.25 130.79 52.86 130.8 53.47 130.8 54.07 130.81 54.68 130.81 55.29 130.82 55.9 130.82 56.51 130.82 57.11 130.83 57.72 130.83 58.33 130.83 58.94 130.84 59.55 130.84 60.15 130.84 60.76 130.84 61.37 130.85 61.98 130.85 62.59 130.85 63.19 130.85 63.8 130.86 64.41 130.86 65.02 130.86 65.63 130.86 66.23 130.86 66.84 130.87 67.45 130.87 68.06 130.87 68.67 130.87 69.27 130.87 69.88 130.87 70.49 130.88 71.1 130.88 71.71 130.88 72.31 130.88 72.92 130.88 73.53 130.88 74.14 130.88 74.75 130.88 75.36 130.89 75.96 130.89 76.57 130.89 77.18 130.89 77.79 130.89 78.4 130.89 79 130.89 79.61 130.89 80.22 130.89 80.83 130.89 81.44 130.89 82.04 130.9 82.65 130.9 83.26 130.9 83.87 130.9 84.48 130.9 85.08 130.9 85.69 130.9 86.3 130.9 86.91 130.9 87.52 130.9 88.12 130.9 88.73 130.9 89.34 130.9 89.95 130.9 90.56 130.9 91.16 130.9 91.77 130.9 92.38 130.9 92.99 130.9 93.6 130.9 94.2 130.9 94.81 130.9 95.42 130.9 96.03 130.9 96.64 130.9 97.24 130.9 97.85 130.9 98.46 130.9 99.07 130.9 99.68 130.9 100.28 130.9 100.89 130.9 101.5 130.9 102.11 130.9 102.72 130.9 103.32 130.9 103.93 130.9 104.54 130.9 105.15 130.9 105.76 130.9 106.37 130.9 106.97 130.9 107.58 130.9 108.19 130.9 108.8 130.9 109.41 130.9 110.01 130.9 110.62 130.9 111.23 130.89 111.84 130.89 112.45 130.89 113.05 130.89 113.66 130.89 114.27 130.89 114.88 130.89 115.49 130.89 116.09 130.89 116.7 130.89 117.31 130.89 117.92 130.88 118.53 130.88 119.13 130.88 119.74 130.88 120.35 130.88 120.96 130.88 121.57 130.88 122.17 130.88 122.78 130.87 123.39 130.87 124 130.87 124.61 130.87 125.21 130.87 125.82 130.87 126.43 130.86 127.04 130.86 127.65 130.86 128.25 130.86 128.86 130.86 129.47 130.85 130.08 130.85 130.69 130.85 131.29 130.85 131.9 130.84 132.51 130.84 133.12 130.84 133.73 130.84 134.33 130.83 134.94 130.83 135.55 130.83 136.16 130.82 136.77 130.82 137.38 130.82 137.98 130.81 138.59 130.81 139.2 130.8 139.81 130.8 140.42 130.79 141.02 130.79 141.63 130.79 142.24 130.78 142.85 130.78 143.46 130.77 144.06 130.76 144.67 130.76 145.28 130.75 145.89 130.74 146.5 130.74 147.1 130.73 147.71 130.72 148.32 130.71 148.93 130.71 149.54 130.7 150.14 130.69 150.75 130.68 151.36 130.67 151.97 130.66 152.58 130.64 153.18 130.63 153.79 130.62 154.4 130.6 155.01 130.59 155.62 130.57 156.22 130.55 156.83 130.53 157.44 130.51 158.05 130.48 158.66 130.46 159.26 130.43 159.87 130.4 160.48 130.36 161.09 130.33 161.7 130.28 162.3 130.24 162.91 130.18 163.52 130.12 164.13 130.05 164.74 129.96 165.34 129.86 165.95 129.74 166.56 129.6 167.17 129.41 167.78 129.18 168.39 128.87 168.99 128.43 169.6 127.77 170.21 126.67 170.82 124.48 171.43 117.89"/>
      </g>
      <g shape-rendering="crispEdges" stroke-width="0.3" id="img-eaca77a5-16">
        <g stroke="#000000" stroke-opacity="0.000" fill="#00BFFF" class="geometry" id="img-eaca77a5-17">
          <rect x="21.55" y="124.59" width="2.97" height="6.52"/>
          <rect x="24.47" y="124.59" width="2.97" height="6.52"/>
          <rect x="27.39" y="124.59" width="2.97" height="6.52"/>
          <rect x="30.31" y="131.11" width="2.97" height="0.01"/>
          <rect x="33.23" y="111.55" width="2.97" height="19.57"/>
          <rect x="36.14" y="131.11" width="2.97" height="0.01"/>
          <rect x="39.06" y="118.07" width="2.97" height="13.05"/>
          <rect x="41.98" y="118.07" width="2.97" height="13.05"/>
          <rect x="44.9" y="124.59" width="2.97" height="6.52"/>
          <rect x="47.82" y="131.11" width="2.97" height="0.01"/>
          <rect x="50.74" y="124.59" width="2.97" height="6.52"/>
          <rect x="53.65" y="111.55" width="2.97" height="19.57"/>
          <rect x="56.57" y="118.07" width="2.97" height="13.05"/>
          <rect x="59.49" y="111.55" width="2.97" height="19.57"/>
          <rect x="62.41" y="131.11" width="2.97" height="0.01"/>
          <rect x="65.33" y="118.07" width="2.97" height="13.05"/>
          <rect x="68.25" y="124.59" width="2.97" height="6.52"/>
          <rect x="71.16" y="111.55" width="2.97" height="19.57"/>
          <rect x="74.08" y="111.55" width="2.97" height="19.57"/>
          <rect x="77" y="118.07" width="2.97" height="13.05"/>
          <rect x="79.92" y="111.55" width="2.97" height="19.57"/>
          <rect x="82.84" y="111.55" width="2.97" height="19.57"/>
          <rect x="85.75" y="98.5" width="2.97" height="32.62"/>
          <rect x="88.67" y="124.59" width="2.97" height="6.52"/>
          <rect x="91.59" y="111.55" width="2.97" height="19.57"/>
          <rect x="94.51" y="124.59" width="2.97" height="6.52"/>
          <rect x="97.43" y="91.98" width="2.97" height="39.14"/>
          <rect x="100.35" y="124.59" width="2.97" height="6.52"/>
          <rect x="103.26" y="111.55" width="2.97" height="19.57"/>
          <rect x="106.18" y="98.5" width="2.97" height="32.62"/>
          <rect x="109.1" y="118.07" width="2.97" height="13.05"/>
          <rect x="112.02" y="118.07" width="2.97" height="13.05"/>
          <rect x="114.94" y="118.07" width="2.97" height="13.05"/>
          <rect x="117.86" y="118.07" width="2.97" height="13.05"/>
          <rect x="120.77" y="111.55" width="2.97" height="19.57"/>
          <rect x="123.69" y="131.11" width="2.97" height="0.01"/>
          <rect x="126.61" y="111.55" width="2.97" height="19.57"/>
          <rect x="129.53" y="131.11" width="2.97" height="0.01"/>
          <rect x="132.45" y="124.59" width="2.97" height="6.52"/>
          <rect x="135.37" y="105.02" width="2.97" height="26.09"/>
          <rect x="138.28" y="91.98" width="2.97" height="39.14"/>
          <rect x="141.2" y="124.59" width="2.97" height="6.52"/>
          <rect x="144.12" y="124.59" width="2.97" height="6.52"/>
          <rect x="147.04" y="118.07" width="2.97" height="13.05"/>
          <rect x="149.96" y="131.11" width="2.97" height="0.01"/>
          <rect x="152.87" y="131.11" width="2.97" height="0.01"/>
          <rect x="155.79" y="118.07" width="2.97" height="13.05"/>
          <rect x="158.71" y="124.59" width="2.97" height="6.52"/>
          <rect x="161.63" y="118.07" width="2.97" height="13.05"/>
          <rect x="164.55" y="105.02" width="2.97" height="26.09"/>
        </g>
      </g>
    </g>
  </g>
</g>
  <g class="guide ylabels" font-size="2.82" font-family="'PT Sans Caption','Helvetica Neue','Helvetica',sans-serif" fill="#000000" id="img-eaca77a5-18">
    <text x="17.63" y="131.11" text-anchor="end" dy="0.35em">0.0</text>
    <text x="17.63" y="109.96" text-anchor="end" dy="0.35em">0.5</text>
    <text x="17.63" y="88.81" text-anchor="end" dy="0.35em">1.0</text>
  </g>
  <g font-size="3.88" font-family="'PT Sans','Helvetica Neue','Helvetica',sans-serif" fill="#000000" stroke="#000000" stroke-opacity="0.000" id="img-eaca77a5-19">
    <text x="8.81" y="107.96" text-anchor="middle" dy="0.35em" transform="rotate(-90, 8.81, 109.96)">density</text>
  </g>
  <g font-size="3.88" font-family="'PT Sans','Helvetica Neue','Helvetica',sans-serif" fill="#000000" stroke="#000000" stroke-opacity="0.000" id="img-eaca77a5-20">
    <text x="96.33" y="81.2" text-anchor="middle" dy="0.6em">Histogram of population in generation 500</text>
  </g>
</g>
<g class="plotroot xscalable yscalable" id="img-eaca77a5-21">
  <g font-size="3.88" font-family="'PT Sans','Helvetica Neue','Helvetica',sans-serif" fill="#000000" stroke="#000000" stroke-opacity="0.000" id="img-eaca77a5-22">
    <text x="108.92" y="64.59" text-anchor="middle" dy="0.6em">generation number</text>
  </g>
  <g class="guide xlabels" font-size="2.82" font-family="'PT Sans Caption','Helvetica Neue','Helvetica',sans-serif" fill="#000000" id="img-eaca77a5-23">
    <text x="21.63" y="57.91" text-anchor="middle" dy="0.6em">0</text>
    <text x="56.55" y="57.91" text-anchor="middle" dy="0.6em">100</text>
    <text x="91.46" y="57.91" text-anchor="middle" dy="0.6em">200</text>
    <text x="126.37" y="57.91" text-anchor="middle" dy="0.6em">300</text>
    <text x="161.29" y="57.91" text-anchor="middle" dy="0.6em">400</text>
    <text x="196.2" y="57.91" text-anchor="middle" dy="0.6em">500</text>
  </g>
<g clip-path="url(#img-eaca77a5-24)">
  <g id="img-eaca77a5-25">
    <g pointer-events="visible" opacity="1" fill="#FFFFFF" stroke="#000000" stroke-opacity="0.000" class="guide background" id="img-eaca77a5-26">
      <rect x="19.63" y="10.61" width="178.57" height="46.3"/>
    </g>
    <g class="guide ygridlines xfixed" stroke-dasharray="0.5,0.5" stroke-width="0.2" stroke="#808080" id="img-eaca77a5-27">
      <path fill="none" d="M19.63,54.91 L 198.2 54.91"/>
      <path fill="none" d="M19.63,44.34 L 198.2 44.34"/>
      <path fill="none" d="M19.63,33.76 L 198.2 33.76"/>
      <path fill="none" d="M19.63,23.19 L 198.2 23.19"/>
      <path fill="none" d="M19.63,12.61 L 198.2 12.61"/>
    </g>
    <g class="guide xgridlines yfixed" stroke-dasharray="0.5,0.5" stroke-width="0.2" stroke="#808080" id="img-eaca77a5-28">
      <path fill="none" d="M21.63,10.61 L 21.63 56.91"/>
      <path fill="none" d="M56.55,10.61 L 56.55 56.91"/>
      <path fill="none" d="M91.46,10.61 L 91.46 56.91"/>
      <path fill="none" d="M126.37,10.61 L 126.37 56.91"/>
      <path fill="none" d="M161.29,10.61 L 161.29 56.91"/>
      <path fill="none" d="M196.2,10.61 L 196.2 56.91"/>
    </g>
    <g class="plotpanel" id="img-eaca77a5-29">
      <g stroke-width="0.3" fill="#000000" fill-opacity="0.000" class="geometry" stroke-dasharray="none" stroke="#3288BD" id="img-eaca77a5-30">
        <path fill="none" d="M21.98,33.76 L 22.33 34.45 22.68 34.77 23.03 33.5 23.38 34.61 23.73 35.09 24.08 34.87 24.42 34.08 24.77 33.08 25.12 32.97 25.47 33.55 25.82 35.4 26.17 35.56 26.52 35.77 26.87 36.83 27.22 36.41 27.57 36.46 27.92 36.14 28.27 36.88 28.61 36.09 28.96 37.68 29.31 37.2 29.66 37.04 30.01 37.99 30.36 38.05 30.71 39.26 31.06 39.16 31.41 39.1 31.76 40.06 32.11 39.9 32.45 39.53 32.8 40.43 33.15 41.06 33.5 40.53 33.85 41.01 34.2 40.21 34.55 39.47 34.9 39.84 35.25 40.37 35.6 40.16 35.95 41.91 36.3 42.75 36.64 42.17 36.99 42.28 37.34 42.54 37.69 42.54 38.04 43.07 38.39 42.59 38.74 43.23 39.09 41.54 39.44 41.8 39.79 41.75 40.14 41.7 40.49 41.96 40.83 42.44 41.18 42.49 41.53 43.07 41.88 42.75 42.23 42.49 42.58 41.85 42.93 42.17 43.28 42.01 43.63 41.27 43.98 41.85 44.33 41.91 44.67 41.85 45.02 42.75 45.37 42.7 45.72 43.49 46.07 44.13 46.42 44.66 46.77 44.18 47.12 44.02 47.47 44.76 47.82 44.02 48.17 43.7 48.52 42.75 48.86 42.07 49.21 43.6 49.56 42.54 49.91 43.23 50.26 42.86 50.61 42.59 50.96 41.06 51.31 41.75 51.66 41.96 52.01 42.75 52.36 42.54 52.7 42.59 53.05 41.75 53.4 41.96 53.75 42.75 54.1 41.96 54.45 42.91 54.8 44.97 55.15 44.76 55.5 44.39 55.85 44.6 56.2 44.39 56.55 44.97 56.89 45.13 57.24 45.45 57.59 45.82 57.94 44.97 58.29 44.13 58.64 44.13 58.99 43.18 59.34 42.7 59.69 41.91 60.04 42.28 60.39 41.85 60.73 41.96 61.08 42.38 61.43 42.28 61.78 42.17 62.13 41.8 62.48 42.33 62.83 42.96 63.18 41.17 63.53 40.48 63.88 39.9 64.23 40.8 64.58 41.43 64.92 40.58 65.27 39.69 65.62 39.63 65.97 41.38 66.32 40.69 66.67 41.06 67.02 41.96 67.37 41.91 67.72 41.01 68.07 41.33 68.42 41.8 68.77 41.06 69.11 40.53 69.46 40.21 69.81 39.32 70.16 39.58 70.51 38.68 70.86 39.21 71.21 40.16 71.56 40.11 71.91 40.21 72.26 40.8 72.61 41.33 72.95 41.43 73.3 41.06 73.65 40.06 74 39.95 74.35 40.9 74.7 42.38 75.05 42.75 75.4 41.75 75.75 42.17 76.1 42.91 76.45 43.39 76.8 43.02 77.14 41.96 77.49 41.06 77.84 40.69 78.19 41.38 78.54 41.06 78.89 41.43 79.24 41.8 79.59 41.43 79.94 40.9 80.29 40.53 80.64 40.53 80.98 41.33 81.33 41.43 81.68 41.96 82.03 43.07 82.38 43.44 82.73 43.23 83.08 43.12 83.43 43.33 83.78 44.5 84.13 44.5 84.48 44.82 84.83 44.5 85.17 44.71 85.52 44.76 85.87 44.39 86.22 43.81 86.57 42.33 86.92 41.43 87.27 41.91 87.62 42.17 87.97 41.59 88.32 41.75 88.67 41.54 89.02 40.8 89.36 41.06 89.71 41.85 90.06 42.7 90.41 42.44 90.76 42.75 91.11 43.02 91.46 42.01 91.81 43.33 92.16 43.18 92.51 42.7 92.86 43.23 93.2 43.65 93.55 43.81 93.9 43.92 94.25 43.97 94.6 44.71 94.95 43.92 95.3 43.49 95.65 42.75 96 42.54 96.35 42.12 96.7 42.65 97.05 41.48 97.39 40.48 97.74 40.43 98.09 39.69 98.44 40.43 98.79 38.89 99.14 39.21 99.49 40.06 99.84 39.37 100.19 39.26 100.54 40.32 100.89 40.43 101.23 40.16 101.58 40.95 101.93 41.7 102.28 42.81 102.63 42.54 102.98 41.64 103.33 41.64 103.68 42.12 104.03 41.75 104.38 42.22 104.73 43.18 105.08 44.07 105.42 43.81 105.77 43.81 106.12 43.76 106.47 44.97 106.82 45.61 107.17 45.66 107.52 45.82 107.87 46.35 108.22 46.35 108.57 46.67 108.92 47.62 109.26 47.51 109.61 47.67 109.96 47.51 110.31 47.56 110.66 47.46 111.01 47.19 111.36 47.04 111.71 46.72 112.06 46.03 112.41 46.35 112.76 45.93 113.11 45.93 113.45 46.14 113.8 45.45 114.15 45.13 114.5 45.03 114.85 45.29 115.2 45.5 115.55 45.13 115.9 45.45 116.25 45.29 116.6 43.97 116.95 44.71 117.3 44.5 117.64 44.76 117.99 44.34 118.34 44.6 118.69 45.03 119.04 44.5 119.39 44.5 119.74 44.23 120.09 44.23 120.44 43.7 120.79 42.81 121.14 43.18 121.48 42.86 121.83 43.44 122.18 43.18 122.53 43.86 122.88 44.13 123.23 43.7 123.58 42.96 123.93 43.12 124.28 42.65 124.63 41.91 124.98 43.49 125.33 43.97 125.67 42.91 126.02 42.86 126.37 42.33 126.72 42.01 127.07 42.81 127.42 43.02 127.77 43.23 128.12 43.76 128.47 44.23 128.82 43.55 129.17 43.86 129.51 43.7 129.86 43.23 130.21 42.86 130.56 42.28 130.91 41.64 131.26 42.07 131.61 42.12 131.96 42.65 132.31 44.44 132.66 44.39 133.01 43.81 133.36 44.6 133.7 45.4 134.05 45.29 134.4 43.44 134.75 42.59 135.1 43.02 135.45 42.7 135.8 42.44 136.15 41.48 136.5 41.85 136.85 41.75 137.2 40.69 137.55 40.69 137.89 41.22 138.24 41.22 138.59 39.9 138.94 39.74 139.29 38.89 139.64 38.89 139.99 37.52 140.34 37.36 140.69 37.2 141.04 38.47 141.39 38.05 141.73 37.62 142.08 38.1 142.43 38.05 142.78 37.09 143.13 36.94 143.48 36.78 143.83 37.2 144.18 37.99 144.53 37.73 144.88 35.67 145.23 34.72 145.58 33.34 145.92 32.18 146.27 31.28 146.62 31.65 146.97 32.12 147.32 31.54 147.67 31.38 148.02 32.76 148.37 33.34 148.72 32.92 149.07 33.08 149.42 33.29 149.76 32.97 150.11 32.55 150.46 33.55 150.81 33.18 151.16 33.13 151.51 33.55 151.86 33.55 152.21 32.28 152.56 32.76 152.91 33.71 153.26 33.6 153.61 32.55 153.95 32.92 154.3 33.02 154.65 32.76 155 32.02 155.35 31.17 155.7 33.39 156.05 33.45 156.4 32.12 156.75 32.76 157.1 32.71 157.45 33.02 157.79 31.23 158.14 30.54 158.49 31.65 158.84 32.02 159.19 32.07 159.54 32.44 159.89 32.44 160.24 32.44 160.59 31.81 160.94 32.81 161.29 31.54 161.64 30.75 161.98 30.33 162.33 30.06 162.68 30.11 163.03 31.28 163.38 32.28 163.73 32.23 164.08 31.23 164.43 30.96 164.78 30.96 165.13 31.75 165.48 31.65 165.83 32.76 166.17 31.7 166.52 31.38 166.87 31.44 167.22 30.96 167.57 32.02 167.92 31.54 168.27 31.54 168.62 30.33 168.97 30.48 169.32 29.11 169.67 28.63 170.01 28.16 170.36 27.89 170.71 27.26 171.06 27.79 171.41 28.05 171.76 25.83 172.11 25.62 172.46 25.3 172.81 25.25 173.16 25.99 173.51 25.83 173.86 24.67 174.2 25.25 174.55 25.67 174.9 26.31 175.25 25.62 175.6 25.67 175.95 25.88 176.3 24.88 176.65 24.19 177 24.51 177.35 24.19 177.7 24.56 178.04 25.57 178.39 26.57 178.74 27.05 179.09 25.57 179.44 25.99 179.79 25.41 180.14 25.2 180.49 24.77 180.84 24.03 181.19 24.67 181.54 24.51 181.89 23.66 182.23 23.5 182.58 24.56 182.93 24.14 183.28 21.55 183.63 20.76 183.98 20.23 184.33 20.33 184.68 20.76 185.03 20.49 185.38 20.23 185.73 19.96 186.08 19.91 186.42 20.65 186.77 21.34 187.12 20.97 187.47 20.07 187.82 19.33 188.17 18.75 188.52 18.59 188.87 19.22 189.22 19.12 189.57 18.48 189.92 18.27 190.26 17.95 190.61 18.06 190.96 18.11 191.31 17.85 191.66 18.11 192.01 18.38 192.36 17.79 192.71 18.59 193.06 18.16 193.41 18.43 193.76 18.06 194.11 18.06 194.45 18.38 194.8 19.06 195.15 19.22 195.5 19.54 195.85 20.01 196.2 19.91"/>
      </g>
      <g stroke-width="0.3" fill="#000000" fill-opacity="0.000" class="geometry" stroke-dasharray="none" stroke="#66C2A5" id="img-eaca77a5-31">
        <path fill="none" d="M21.98,33.76 L 22.33 35.03 22.68 35.24 23.03 35.46 23.38 35.09 23.73 35.51 24.08 35.93 24.42 34.77 24.77 35.14 25.12 36.41 25.47 36.35 25.82 37.04 26.17 36.41 26.52 36.14 26.87 36.46 27.22 36.72 27.57 36.2 27.92 35.14 28.27 34.77 28.61 34.4 28.96 34.93 29.31 35.09 29.66 35.67 30.01 35.77 30.36 36.2 30.71 36.72 31.06 36.09 31.41 37.2 31.76 37.2 32.11 34.35 32.45 34.03 32.8 34.13 33.15 35.77 33.5 35.67 33.85 35.77 34.2 36.04 34.55 36.78 34.9 37.09 35.25 37.2 35.6 37.52 35.95 38.63 36.3 38.63 36.64 37.52 36.99 36.41 37.34 35.46 37.69 35.77 38.04 35.72 38.39 33.82 38.74 34.13 39.09 33.45 39.44 32.76 39.79 33.13 40.14 33.71 40.49 34.77 40.83 35.19 41.18 33.71 41.53 34.66 41.88 35.56 42.23 35.3 42.58 35.14 42.93 35.35 43.28 34.82 43.63 34.29 43.98 34.4 44.33 35.51 44.67 36.35 45.02 36.62 45.37 36.41 45.72 35.61 46.07 35.4 46.42 36.14 46.77 36.14 47.12 35.3 47.47 34.13 47.82 34.4 48.17 34.29 48.52 35.14 48.86 35.09 49.21 35.4 49.56 35.77 49.91 36.14 50.26 36.78 50.61 36.78 50.96 35.14 51.31 35.51 51.66 34.61 52.01 33.66 52.36 34.19 52.7 33.76 53.05 33.66 53.4 34.13 53.75 34.4 54.1 34.29 54.45 33.82 54.8 33.08 55.15 33.29 55.5 32.92 55.85 32.02 56.2 31.01 56.55 30.64 56.89 29.32 57.24 28.32 57.59 28.05 57.94 28.11 58.29 27.47 58.64 28.11 58.99 28 59.34 26.73 59.69 26.68 60.04 26.62 60.39 25.51 60.73 25.57 61.08 24.56 61.43 24.56 61.78 24.62 62.13 24.19 62.48 23.93 62.83 23.98 63.18 24.03 63.53 24.4 63.88 23.03 64.23 23.24 64.58 21.87 64.92 22.29 65.27 21.97 65.62 21.28 65.97 21.81 66.32 21.65 66.67 21.65 67.02 20.86 67.37 21.6 67.72 21.5 68.07 21.34 68.42 21.81 68.77 21.76 69.11 21.81 69.46 21.5 69.81 21.23 70.16 21.6 70.51 22.02 70.86 22.18 71.21 22.66 71.56 21.34 71.91 20.86 72.26 19.75 72.61 20.07 72.95 20.23 73.3 19.54 73.65 19.8 74 19.59 74.35 19.49 74.7 19.54 75.05 19.96 75.4 20.65 75.75 20.91 76.1 21.07 76.45 21.65 76.8 21.81 77.14 21.39 77.49 20.7 77.84 20.91 78.19 20.33 78.54 19.96 78.89 19.17 79.24 18.8 79.59 18.96 79.94 18.75 80.29 18.75 80.64 18.53 80.98 18.8 81.33 19.49 81.68 19.33 82.03 18.96 82.38 18.59 82.73 18.96 83.08 18.27 83.43 18.59 83.78 18.75 84.13 17.74 84.48 17.37 84.83 17.69 85.17 16.52 85.52 16.63 85.87 16.58 86.22 16.95 86.57 16.84 86.92 15.89 87.27 16.26 87.62 17.05 87.97 16.95 88.32 16.89 88.67 17.11 89.02 17.58 89.36 17.58 89.71 17.95 90.06 18.69 90.41 18.16 90.76 17 91.11 17 91.46 16.89 91.81 17 92.16 16.68 92.51 16.47 92.86 16.79 93.2 17 93.55 17.42 93.9 17.42 94.25 17.16 94.6 17.37 94.95 17.05 95.3 16.68 95.65 17.27 96 17.37 96.35 17.64 96.7 17.64 97.05 17.9 97.39 18.01 97.74 18.38 98.09 18.59 98.44 18.38 98.79 18.53 99.14 18.01 99.49 17.95 99.84 17.11 100.19 16.68 100.54 16.58 100.89 17.11 101.23 17.16 101.58 17.48 101.93 17.48 102.28 16.89 102.63 16.37 102.98 16 103.33 15.15 103.68 14.78 104.03 14.52 104.38 14.83 104.73 15.52 105.08 15.68 105.42 16.31 105.77 16.58 106.12 15.63 106.47 15.78 106.82 14.78 107.17 14.52 107.52 14.73 107.87 14.3 108.22 14.67 108.57 14.52 108.92 14.2 109.26 14.2 109.61 14.52 109.96 14.67 110.31 14.36 110.66 15.1 111.01 14.78 111.36 14.78 111.71 14.62 112.06 14.99 112.41 15.26 112.76 15.73 113.11 15.52 113.45 15.31 113.8 15.41 114.15 15.78 114.5 16 114.85 16.37 115.2 16.74 115.55 16.58 115.9 16.84 116.25 17.05 116.6 16.84 116.95 17.42 117.3 17.85 117.64 18.43 117.99 19.12 118.34 18.96 118.69 19.8 119.04 19.06 119.39 19.27 119.74 19.12 120.09 19.8 120.44 20.23 120.79 20.44 121.14 21.02 121.48 20.44 121.83 21.02 122.18 21.13 122.53 20.97 122.88 21.44 123.23 21.07 123.58 21.34 123.93 21.5 124.28 22.13 124.63 21.97 124.98 21.97 125.33 21.34 125.67 22.92 126.02 23.19 126.37 22.5 126.72 22.5 127.07 22.13 127.42 21.71 127.77 21.07 128.12 21.87 128.47 21.34 128.82 20.86 129.17 20.38 129.51 18.85 129.86 18.9 130.21 18.75 130.56 18.9 130.91 18.53 131.26 18.11 131.61 18.32 131.96 18.64 132.31 18.8 132.66 19.49 133.01 19.38 133.36 18.96 133.7 17.85 134.05 18.75 134.4 18.11 134.75 18.38 135.1 17.74 135.45 17.79 135.8 17.27 136.15 17.64 136.5 17.11 136.85 16.68 137.2 17.21 137.55 16.68 137.89 17.32 138.24 17.79 138.59 17.42 138.94 19.01 139.29 18.75 139.64 18.69 139.99 17.95 140.34 18.32 140.69 17.95 141.04 18.64 141.39 19.59 141.73 19.06 142.08 19.54 142.43 19.22 142.78 18.8 143.13 18.16 143.48 19.12 143.83 19.8 144.18 20.38 144.53 20.76 144.88 20.97 145.23 21.28 145.58 22.08 145.92 21.92 146.27 21.39 146.62 22.08 146.97 20.7 147.32 19.12 147.67 18.64 148.02 17.69 148.37 17.74 148.72 18.59 149.07 17.64 149.42 17.16 149.76 17.16 150.11 17.37 150.46 17 150.81 17 151.16 17.42 151.51 16.37 151.86 16.63 152.21 16.58 152.56 16.47 152.91 15.52 153.26 15.68 153.61 15.63 153.95 15.47 154.3 15.68 154.65 16.05 155 16.52 155.35 17.21 155.7 17 156.05 17.85 156.4 18.8 156.75 19.06 157.1 20.17 157.45 20.81 157.79 20.12 158.14 20.65 158.49 20.6 158.84 20.97 159.19 20.33 159.54 20.65 159.89 21.02 160.24 20.38 160.59 21.28 160.94 22.13 161.29 22.61 161.64 22.45 161.98 23.03 162.33 23.13 162.68 23.4 163.03 23.29 163.38 21.44 163.73 20.81 164.08 20.38 164.43 20.81 164.78 19.86 165.13 20.33 165.48 20.01 165.83 19.96 166.17 19.8 166.52 20.17 166.87 19.7 167.22 19.33 167.57 19.43 167.92 18.85 168.27 17.9 168.62 17.32 168.97 17.85 169.32 18.06 169.67 18.16 170.01 17.58 170.36 17.16 170.71 17.37 171.06 16.79 171.41 16.74 171.76 16.42 172.11 15.26 172.46 15.57 172.81 15.73 173.16 16.21 173.51 16.31 173.86 16.74 174.2 16.68 174.55 17 174.9 17.27 175.25 17.9 175.6 18.01 175.95 18.22 176.3 17.85 176.65 18.38 177 18.22 177.35 18.22 177.7 17.79 178.04 17.64 178.39 18.38 178.74 18.16 179.09 18.69 179.44 19.38 179.79 18.9 180.14 18.59 180.49 19.06 180.84 18.27 181.19 18.38 181.54 18.43 181.89 19.12 182.23 20.54 182.58 20.33 182.93 20.6 183.28 21.5 183.63 20.49 183.98 20.65 184.33 20.23 184.68 20.81 185.03 20.54 185.38 20.7 185.73 19.8 186.08 20.23 186.42 19.59 186.77 19.8 187.12 19.54 187.47 19.27 187.82 20.38 188.17 20.07 188.52 20.12 188.87 19.91 189.22 19.43 189.57 19.49 189.92 18.96 190.26 18.8 190.61 19.91 190.96 19.22 191.31 19.96 191.66 19.59 192.01 20.28 192.36 19.7 192.71 19.91 193.06 19.91 193.41 19.01 193.76 19.22 194.11 19.8 194.45 19.91 194.8 20.17 195.15 21.39 195.5 21.76 195.85 20.97 196.2 22.08"/>
      </g>
      <g stroke-width="0.3" fill="#000000" fill-opacity="0.000" class="geometry" stroke-dasharray="none" stroke="#ABDDA4" id="img-eaca77a5-32">
        <path fill="none" d="M21.98,33.76 L 22.33 34.29 22.68 35.46 23.03 35.3 23.38 35.93 23.73 35.4 24.08 35.72 24.42 36.3 24.77 36.57 25.12 36.41 25.47 36.72 25.82 36.78 26.17 36.57 26.52 36.57 26.87 36.78 27.22 37.46 27.57 37.73 27.92 36.51 28.27 36.41 28.61 34.29 28.96 34.98 29.31 35.3 29.66 35.88 30.01 35.03 30.36 34.19 30.71 34.56 31.06 35.09 31.41 35.51 31.76 35.83 32.11 35.35 32.45 35.19 32.8 34.98 33.15 35.3 33.5 35.88 33.85 36.14 34.2 35.35 34.55 35.56 34.9 36.51 35.25 35.56 35.6 35.83 35.95 35.46 36.3 34.4 36.64 34.03 36.99 33.45 37.34 33.92 37.69 34.61 38.04 34.87 38.39 35.77 38.74 36.09 39.09 34.56 39.44 34.45 39.79 35.14 40.14 33.87 40.49 34.19 40.83 34.13 41.18 33.97 41.53 33.76 41.88 34.13 42.23 33.39 42.58 33.45 42.93 33.76 43.28 34.24 43.63 33.6 43.98 33.39 44.33 33.39 44.67 33.13 45.02 34.29 45.37 34.72 45.72 34.87 46.07 33.13 46.42 32.55 46.77 31.91 47.12 31.97 47.47 31.86 47.82 32.55 48.17 32.23 48.52 32.39 48.86 31.91 49.21 33.39 49.56 33.87 49.91 33.66 50.26 34.03 50.61 33.39 50.96 34.13 51.31 35.24 51.66 34.5 52.01 35.03 52.36 35.24 52.7 34.66 53.05 34.82 53.4 35.24 53.75 36.3 54.1 36.46 54.45 36.78 54.8 38.63 55.15 39.58 55.5 40.11 55.85 40.16 56.2 40.58 56.55 41.22 56.89 42.28 57.24 41.64 57.59 42.17 57.94 41.64 58.29 42.17 58.64 41.75 58.99 41.38 59.34 41.17 59.69 41.33 60.04 41.01 60.39 41.48 60.73 42.17 61.08 42.12 61.43 41.11 61.78 41.27 62.13 42.54 62.48 42.44 62.83 43.18 63.18 42.33 63.53 41.59 63.88 41.85 64.23 41.01 64.58 41.38 64.92 41.85 65.27 41.91 65.62 42.75 65.97 43.12 66.32 41.01 66.67 41.38 67.02 41.8 67.37 42.17 67.72 41.48 68.07 42.44 68.42 41.64 68.77 41.17 69.11 41.48 69.46 40.95 69.81 41.11 70.16 40.27 70.51 41.7 70.86 41.43 71.21 41.54 71.56 40.16 71.91 40.16 72.26 39.63 72.61 39.05 72.95 38.95 73.3 39.95 73.65 38.79 74 39.32 74.35 38.63 74.7 38.52 75.05 39.16 75.4 39.42 75.75 39 76.1 38.36 76.45 38.42 76.8 38.26 77.14 38.05 77.49 37.31 77.84 38.47 78.19 37.84 78.54 36.3 78.89 36.3 79.24 36.51 79.59 36.78 79.94 37.15 80.29 36.51 80.64 35.46 80.98 36.14 81.33 37.68 81.68 38.31 82.03 38.26 82.38 37.57 82.73 37.41 83.08 38.84 83.43 38.63 83.78 39.47 84.13 39.37 84.48 38.63 84.83 37.94 85.17 38.52 85.52 37.94 85.87 38.26 86.22 37.78 86.57 37.04 86.92 37.09 87.27 38.36 87.62 38.52 87.97 39 88.32 38.47 88.67 37.99 89.02 37.68 89.36 37.52 89.71 36.3 90.06 35.46 90.41 33.76 90.76 34.56 91.11 34.66 91.46 34.5 91.81 35.03 92.16 35.09 92.51 34.56 92.86 33.87 93.2 34.87 93.55 36.3 93.9 35.19 94.25 34.24 94.6 34.4 94.95 34.72 95.3 34.29 95.65 33.55 96 32.49 96.35 32.92 96.7 33.29 97.05 33.71 97.39 33.87 97.74 33.82 98.09 33.55 98.44 33.97 98.79 34.24 99.14 33.5 99.49 32.71 99.84 32.81 100.19 33.55 100.54 33.76 100.89 33.92 101.23 33.76 101.58 33.55 101.93 34.35 102.28 33.82 102.63 34.29 102.98 34.56 103.33 34.87 103.68 34.5 104.03 35.46 104.38 34.87 104.73 34.45 105.08 33.82 105.42 33.08 105.77 33.71 106.12 33.55 106.47 33.23 106.82 32.92 107.17 33.29 107.52 33.66 107.87 33.87 108.22 33.13 108.57 32.18 108.92 30.96 109.26 31.44 109.61 31.6 109.96 30.85 110.31 31.38 110.66 30.91 111.01 29.74 111.36 30.38 111.71 31.44 112.06 31.81 112.41 31.75 112.76 31.12 113.11 31.86 113.45 32.44 113.8 31.75 114.15 32.23 114.5 32.44 114.85 34.29 115.2 33.6 115.55 32.92 115.9 33.23 116.25 32.92 116.6 32.39 116.95 31.65 117.3 31.81 117.64 31.12 117.99 31.12 118.34 30.96 118.69 30.38 119.04 29.37 119.39 29.22 119.74 28.95 120.09 28.69 120.44 26.47 120.79 26.84 121.14 26.84 121.48 27.21 121.83 27.74 122.18 28.11 122.53 27.89 122.88 26.68 123.23 26.57 123.58 27.89 123.93 27.95 124.28 29.16 124.63 28.74 124.98 27.84 125.33 27.15 125.67 28.42 126.02 28.69 126.37 29.06 126.72 28.9 127.07 30.54 127.42 29.64 127.77 29.64 128.12 31.12 128.47 30.91 128.82 31.81 129.17 30.75 129.51 32.34 129.86 31.75 130.21 31.23 130.56 33.02 130.91 33.39 131.26 33.66 131.61 34.03 131.96 33.82 132.31 34.08 132.66 33.34 133.01 33.23 133.36 33.76 133.7 33.92 134.05 33.76 134.4 34.77 134.75 34.82 135.1 34.5 135.45 34.98 135.8 35.19 136.15 35.67 136.5 36.51 136.85 36.35 137.2 36.78 137.55 36.88 137.89 37.36 138.24 36.88 138.59 36.78 138.94 35.77 139.29 35.72 139.64 35.83 139.99 36.2 140.34 35.93 140.69 36.83 141.04 36.72 141.39 36.35 141.73 35.51 142.08 35.19 142.43 36.78 142.78 36.83 143.13 36.57 143.48 37.36 143.83 37.31 144.18 38.15 144.53 38.68 144.88 38.47 145.23 39.16 145.58 38.58 145.92 38.47 146.27 38.52 146.62 39.79 146.97 40.32 147.32 39.37 147.67 38.36 148.02 38.63 148.37 38.42 148.72 37.04 149.07 38.52 149.42 38.68 149.76 37.46 150.11 38.79 150.46 38.84 150.81 38.36 151.16 38.95 151.51 38.42 151.86 38.05 152.21 38.15 152.56 38.21 152.91 37.15 153.26 37.89 153.61 36.83 153.95 35.98 154.3 37.25 154.65 37.2 155 37.41 155.35 37.36 155.7 37.36 156.05 36.04 156.4 35.93 156.75 37.2 157.1 36.78 157.45 36.99 157.79 37.62 158.14 38.63 158.49 38.15 158.84 38.31 159.19 38.52 159.54 38.79 159.89 38.58 160.24 38.73 160.59 39.58 160.94 39.95 161.29 39.84 161.64 40.37 161.98 40.16 162.33 40.64 162.68 41.27 163.03 41.7 163.38 41.91 163.73 41.8 164.08 41.7 164.43 41.48 164.78 41.33 165.13 40.74 165.48 40.16 165.83 40.85 166.17 42.07 166.52 41.48 166.87 41.48 167.22 40.58 167.57 40.16 167.92 40.37 168.27 41.17 168.62 41.33 168.97 40.11 169.32 40.11 169.67 40.48 170.01 41.27 170.36 41.64 170.71 41.33 171.06 40.69 171.41 40.48 171.76 41.38 172.11 41.38 172.46 40.74 172.81 41.33 173.16 41.43 173.51 42.07 173.86 42.28 174.2 41.64 174.55 40.74 174.9 41.11 175.25 41.33 175.6 41.43 175.95 41.01 176.3 41.96 176.65 43.07 177 42.81 177.35 42.49 177.7 41.7 178.04 41.7 178.39 41.96 178.74 41.38 179.09 40.85 179.44 41.59 179.79 41.7 180.14 41.96 180.49 41.11 180.84 40.74 181.19 39.47 181.54 39.74 181.89 38.84 182.23 37.94 182.58 38.68 182.93 37.73 183.28 37.99 183.63 38.47 183.98 37.57 184.33 37.31 184.68 37.09 185.03 35.93 185.38 35.61 185.73 35.35 186.08 34.29 186.42 34.66 186.77 34.4 187.12 33.92 187.47 33.97 187.82 33.66 188.17 34.24 188.52 34.77 188.87 35.35 189.22 36.14 189.57 35.03 189.92 34.98 190.26 34.82 190.61 34.4 190.96 34.45 191.31 35.61 191.66 35.61 192.01 36.14 192.36 37.68 192.71 38.84 193.06 39.1 193.41 37.09 193.76 36.35 194.11 35.67 194.45 35.14 194.8 36.3 195.15 36.83 195.5 36.62 195.85 35.51 196.2 35.56"/>
      </g>
      <g stroke-width="0.3" fill="#000000" fill-opacity="0.000" class="geometry" stroke-dasharray="none" stroke="#E6F598" id="img-eaca77a5-33">
        <path fill="none" d="M21.98,33.76 L 22.33 34.08 22.68 34.56 23.03 34.82 23.38 34.98 23.73 34.82 24.08 33.92 24.42 32.6 24.77 32.07 25.12 32.28 25.47 32.18 25.82 31.75 26.17 31.38 26.52 31.28 26.87 31.6 27.22 31.12 27.57 31.01 27.92 30.48 28.27 30.96 28.61 30.75 28.96 30.11 29.31 29.22 29.66 28.79 30.01 27.31 30.36 26.47 30.71 25.94 31.06 25.14 31.41 24.99 31.76 25.46 32.11 24.77 32.45 25.67 32.8 25.62 33.15 25.36 33.5 24.93 33.85 24.56 34.2 24.56 34.55 24.51 34.9 24.03 35.25 23.35 35.6 22.82 35.95 23.56 36.3 23.29 36.64 23.29 36.99 23.19 37.34 23.24 37.69 22.55 38.04 23.19 38.39 22.24 38.74 21.71 39.09 20.65 39.44 20.01 39.79 20.07 40.14 21.07 40.49 20.7 40.83 21.02 41.18 20.81 41.53 21.34 41.88 20.91 42.23 21.76 42.58 21.39 42.93 21.87 43.28 22.45 43.63 22.76 43.98 23.56 44.33 23.93 44.67 24.4 45.02 25.57 45.37 25.3 45.72 26.36 46.07 26.15 46.42 26.99 46.77 27.26 47.12 27.36 47.47 28.48 47.82 28.79 48.17 28 48.52 28.11 48.86 27.26 49.21 26.89 49.56 26.73 49.91 27.26 50.26 27.15 50.61 28.37 50.96 29.64 51.31 28.58 51.66 26.68 52.01 26.99 52.36 27.63 52.7 27.84 53.05 27.31 53.4 28.16 53.75 27.31 54.1 26.78 54.45 25.67 54.8 24.67 55.15 23.87 55.5 23.98 55.85 24.19 56.2 23.24 56.55 22.82 56.89 22.76 57.24 23.03 57.59 23.61 57.94 23.77 58.29 22.92 58.64 23.4 58.99 23.82 59.34 23.19 59.69 23.24 60.04 23.4 60.39 23.4 60.73 22.71 61.08 23.87 61.43 24.51 61.78 24.77 62.13 25.57 62.48 26.15 62.83 26.78 63.18 26.62 63.53 27.36 63.88 28.74 64.23 28.79 64.58 28.32 64.92 29 65.27 29.85 65.62 31.23 65.97 30.85 66.32 31.91 66.67 31.7 67.02 31.65 67.37 32.49 67.72 32.81 68.07 32.39 68.42 31.54 68.77 31.44 69.11 31.38 69.46 32.71 69.81 30.7 70.16 29.9 70.51 29.85 70.86 28.26 71.21 27.68 71.56 27.68 71.91 28.32 72.26 28.32 72.61 28.37 72.95 29.37 73.3 29.96 73.65 31.12 74 31.01 74.35 30.38 74.7 30.7 75.05 31.65 75.4 32.86 75.75 34.08 76.1 34.29 76.45 34.77 76.8 34.82 77.14 34.93 77.49 33.45 77.84 33.13 78.19 32.71 78.54 32.6 78.89 32.92 79.24 32.81 79.59 32.65 79.94 33.87 80.29 34.13 80.64 33.02 80.98 32.92 81.33 32.71 81.68 32.71 82.03 31.44 82.38 31.01 82.73 30.48 83.08 30.64 83.43 30.7 83.78 31.54 84.13 31.38 84.48 31.49 84.83 31.75 85.17 30.85 85.52 31.33 85.87 31.49 86.22 31.49 86.57 31.54 86.92 33.02 87.27 32.97 87.62 32.76 87.97 31.81 88.32 31.49 88.67 30.33 89.02 30.54 89.36 30.96 89.71 31.38 90.06 31.7 90.41 31.33 90.76 32.18 91.11 32.23 91.46 31.01 91.81 31.97 92.16 32.55 92.51 31.86 92.86 31.33 93.2 30.85 93.55 29.9 93.9 30.11 94.25 30.11 94.6 30.06 94.95 30.27 95.3 30.85 95.65 31.44 96 32.18 96.35 32.02 96.7 31.91 97.05 31.01 97.39 30.7 97.74 30.7 98.09 31.6 98.44 32.65 98.79 32.81 99.14 34.4 99.49 35.88 99.84 35.3 100.19 34.77 100.54 34.5 100.89 34.5 101.23 35.46 101.58 35.46 101.93 35.35 102.28 34.87 102.63 33.71 102.98 33.02 103.33 31.75 103.68 31.86 104.03 31.91 104.38 33.55 104.73 33.34 105.08 33.5 105.42 34.56 105.77 34.5 106.12 34.35 106.47 33.97 106.82 34.72 107.17 33.92 107.52 33.55 107.87 33.76 108.22 34.45 108.57 35.03 108.92 36.25 109.26 36.41 109.61 36.04 109.96 35.3 110.31 34.87 110.66 34.72 111.01 34.61 111.36 34.35 111.71 34.77 112.06 35.14 112.41 34.87 112.76 36.04 113.11 36.41 113.45 35.98 113.8 34.45 114.15 35.24 114.5 36.41 114.85 36.62 115.2 36.72 115.55 35.98 115.9 37.31 116.25 37.31 116.6 38.15 116.95 38.58 117.3 38.47 117.64 38.58 117.99 37.84 118.34 37.15 118.69 36.78 119.04 37.73 119.39 37.46 119.74 38.31 120.09 37.84 120.44 35.46 120.79 34.29 121.14 33.71 121.48 34.19 121.83 34.5 122.18 34.29 122.53 34.4 122.88 35.24 123.23 35.09 123.58 33.97 123.93 35.03 124.28 35.56 124.63 35.88 124.98 34.98 125.33 35.09 125.67 35.56 126.02 35.09 126.37 35.03 126.72 35.67 127.07 34.4 127.42 33.87 127.77 34.29 128.12 34.56 128.47 34.24 128.82 35.24 129.17 36.2 129.51 37.41 129.86 37.2 130.21 37.62 130.56 37.04 130.91 38.31 131.26 39.69 131.61 39.37 131.96 38.52 132.31 37.41 132.66 36.14 133.01 36.51 133.36 34.82 133.7 32.81 134.05 33.34 134.4 33.87 134.75 33.45 135.1 33.29 135.45 33.29 135.8 32.49 136.15 32.6 136.5 33.18 136.85 33.29 137.2 34.13 137.55 34.4 137.89 35.14 138.24 34.66 138.59 34.19 138.94 34.77 139.29 35.4 139.64 34.82 139.99 35.4 140.34 34.77 140.69 34.93 141.04 34.82 141.39 35.46 141.73 35.03 142.08 36.2 142.43 36.04 142.78 35.98 143.13 35.51 143.48 36.62 143.83 36.04 144.18 36.25 144.53 36.41 144.88 36.09 145.23 35.56 145.58 34.93 145.92 35.19 146.27 33.76 146.62 34.08 146.97 34.82 147.32 34.45 147.67 33.92 148.02 34.5 148.37 34.08 148.72 33.92 149.07 34.08 149.42 33.6 149.76 33.71 150.11 33.08 150.46 32.65 150.81 32.97 151.16 33.55 151.51 33.29 151.86 33.18 152.21 32.71 152.56 32.71 152.91 32.18 153.26 34.08 153.61 34.45 153.95 34.5 154.3 34.98 154.65 33.66 155 34.19 155.35 34.61 155.7 35.19 156.05 33.71 156.4 32.44 156.75 31.17 157.1 31.91 157.45 30.59 157.79 31.23 158.14 31.17 158.49 31.33 158.84 31.44 159.19 30.33 159.54 29.11 159.89 29.16 160.24 30.17 160.59 30.27 160.94 30.27 161.29 30.91 161.64 30.59 161.98 31.01 162.33 30.54 162.68 29.32 163.03 28.79 163.38 28.79 163.73 30.22 164.08 28.69 164.43 29 164.78 28.53 165.13 29.22 165.48 29.64 165.83 29.22 166.17 29.27 166.52 29.11 166.87 30.01 167.22 29.32 167.57 29.22 167.92 28.95 168.27 29.32 168.62 30.48 168.97 29.37 169.32 29.69 169.67 30.54 170.01 30.54 170.36 31.12 170.71 29.16 171.06 28.95 171.41 29.27 171.76 29 172.11 28.21 172.46 28.85 172.81 28.69 173.16 29.85 173.51 30.54 173.86 31.75 174.2 31.75 174.55 31.33 174.9 30.27 175.25 30.48 175.6 30.27 175.95 30.38 176.3 29.85 176.65 29.11 177 28.79 177.35 29.06 177.7 29.32 178.04 28.05 178.39 28.53 178.74 27.52 179.09 27.52 179.44 27.26 179.79 27.58 180.14 28.21 180.49 28.53 180.84 29.74 181.19 29.43 181.54 30.64 181.89 30.7 182.23 30.27 182.58 30.22 182.93 30.06 183.28 29.85 183.63 29.53 183.98 28.63 184.33 27.63 184.68 27.26 185.03 26.62 185.38 27.31 185.73 27.31 186.08 28.69 186.42 30.01 186.77 29.96 187.12 30.01 187.47 29.48 187.82 28.95 188.17 29.43 188.52 30.06 188.87 30.75 189.22 29.8 189.57 29.59 189.92 29.06 190.26 30.54 190.61 30.43 190.96 30.8 191.31 29.96 191.66 30.43 192.01 30.27 192.36 29.96 192.71 29.69 193.06 31.86 193.41 31.44 193.76 31.33 194.11 31.23 194.45 31.12 194.8 31.65 195.15 31.7 195.5 32.44 195.85 33.87 196.2 33.39"/>
      </g>
      <g stroke-width="0.3" fill="#000000" fill-opacity="0.000" class="geometry" stroke-dasharray="none" stroke="#FFFFBF" id="img-eaca77a5-34">
        <path fill="none" d="M21.98,33.76 L 22.33 33.6 22.68 33.76 23.03 32.55 23.38 33.55 23.73 32.39 24.08 31.86 24.42 32.6 24.77 32.65 25.12 33.39 25.47 34.13 25.82 33.66 26.17 33.13 26.52 33.5 26.87 34.45 27.22 34.77 27.57 35.14 27.92 35.24 28.27 35.19 28.61 35.46 28.96 36.09 29.31 34.82 29.66 34.03 30.01 34.98 30.36 34.61 30.71 34.08 31.06 33.5 31.41 33.34 31.76 34.66 32.11 33.29 32.45 33.39 32.8 31.65 33.15 31.38 33.5 31.6 33.85 31.97 34.2 31.86 34.55 30.8 34.9 31.28 35.25 30.38 35.6 30.27 35.95 29.37 36.3 30.38 36.64 30.38 36.99 30.48 37.34 31.23 37.69 32.23 38.04 33.08 38.39 33.02 38.74 32.28 39.09 31.97 39.44 31.49 39.79 31.44 40.14 31.28 40.49 31.38 40.83 33.29 41.18 33.34 41.53 32.81 41.88 31.28 42.23 30.11 42.58 28.85 42.93 28.53 43.28 28.05 43.63 27.63 43.98 26.57 44.33 26.57 44.67 26.84 45.02 25.2 45.37 25.04 45.72 25.67 46.07 26.78 46.42 27.1 46.77 26.47 47.12 25.57 47.47 24.56 47.82 24.51 48.17 24.14 48.52 23.29 48.86 24.03 49.21 24.62 49.56 25.09 49.91 25.41 50.26 24.77 50.61 25.2 50.96 24.46 51.31 24.72 51.66 24.4 52.01 25.25 52.36 24.46 52.7 24.88 53.05 25.57 53.4 24.83 53.75 24.46 54.1 24.62 54.45 24.93 54.8 24.93 55.15 24.88 55.5 24.4 55.85 25.51 56.2 26.15 56.55 25.36 56.89 26.2 57.24 26.52 57.59 25.46 57.94 25.99 58.29 25.62 58.64 25.57 58.99 25.04 59.34 25.99 59.69 25.99 60.04 25.73 60.39 25.51 60.73 26.1 61.08 26.04 61.43 26.31 61.78 26.62 62.13 25.78 62.48 25.41 62.83 26.25 63.18 25.88 63.53 25.09 63.88 25.62 64.23 24.56 64.58 23.4 64.92 23.93 65.27 23.45 65.62 23.56 65.97 23.03 66.32 22.45 66.67 22.18 67.02 21.34 67.37 21.5 67.72 22.76 68.07 22.98 68.42 22.08 68.77 21.55 69.11 21.87 69.46 21.81 69.81 20.97 70.16 20.97 70.51 20.49 70.86 20.54 71.21 20.54 71.56 21.13 71.91 20.49 72.26 20.81 72.61 20.7 72.95 20.81 73.3 21.87 73.65 22.39 74 23.24 74.35 22.18 74.7 22.24 75.05 22.66 75.4 23.24 75.75 22.92 76.1 23.03 76.45 23.35 76.8 21.23 77.14 21.39 77.49 21.23 77.84 20.97 78.19 20.81 78.54 20.7 78.89 21.02 79.24 20.28 79.59 20.23 79.94 20.12 80.29 19.8 80.64 18.8 80.98 19.06 81.33 18.32 81.68 17.85 82.03 17.85 82.38 18.16 82.73 17.58 83.08 17.58 83.43 17.53 83.78 17.58 84.13 16.47 84.48 16.52 84.83 16.37 85.17 16.31 85.52 15.89 85.87 15.89 86.22 15.94 86.57 15.94 86.92 15.47 87.27 14.99 87.62 14.73 87.97 14.73 88.32 14.99 88.67 14.83 89.02 14.83 89.36 14.62 89.71 14.41 90.06 14.15 90.41 13.88 90.76 13.83 91.11 13.46 91.46 13.67 91.81 13.67 92.16 13.56 92.51 13.88 92.86 14.15 93.2 14.52 93.55 15.04 93.9 14.78 94.25 14.25 94.6 13.93 94.95 14.3 95.3 14.04 95.65 14.15 96 13.56 96.35 13.4 96.7 13.46 97.05 13.72 97.39 13.78 97.74 13.56 98.09 13.88 98.44 13.83 98.79 13.93 99.14 14.15 99.49 14.25 99.84 14.62 100.19 14.3 100.54 14.62 100.89 14.52 101.23 13.78 101.58 13.46 101.93 13.72 102.28 13.62 102.63 13.4 102.98 13.67 103.33 14.25 103.68 14.2 104.03 14.2 104.38 14.3 104.73 14.52 105.08 14.41 105.42 14.52 105.77 14.09 106.12 13.99 106.47 14.67 106.82 14.25 107.17 13.78 107.52 13.88 107.87 13.72 108.22 13.35 108.57 13.35 108.92 13.62 109.26 13.4 109.61 13.67 109.96 13.46 110.31 13.67 110.66 14.41 111.01 14.83 111.36 14.73 111.71 14.36 112.06 14.57 112.41 14.52 112.76 14.36 113.11 14.57 113.45 14.41 113.8 14.41 114.15 14.46 114.5 14.3 114.85 14.57 115.2 14.3 115.55 14.09 115.9 13.83 116.25 13.78 116.6 13.99 116.95 14.15 117.3 13.88 117.64 13.67 117.99 13.3 118.34 13.3 118.69 13.35 119.04 13.46 119.39 13.14 119.74 13.09 120.09 13.19 120.44 13.03 120.79 12.93 121.14 13.09 121.48 13.19 121.83 13.4 122.18 13.3 122.53 12.93 122.88 13.25 123.23 13.46 123.58 13.4 123.93 13.51 124.28 13.46 124.63 13.62 124.98 13.09 125.33 13.14 125.67 12.88 126.02 13.14 126.37 12.98 126.72 13.14 127.07 13.3 127.42 13.25 127.77 13.72 128.12 13.72 128.47 13.99 128.82 13.78 129.17 13.78 129.51 13.56 129.86 13.25 130.21 13.19 130.56 13.14 130.91 13.4 131.26 13.46 131.61 13.51 131.96 13.46 132.31 13.4 132.66 13.25 133.01 13.14 133.36 12.98 133.7 13.3 134.05 13.35 134.4 13.09 134.75 13.19 135.1 13.25 135.45 13.14 135.8 13.19 136.15 13.35 136.5 13.67 136.85 13.72 137.2 13.83 137.55 14.15 137.89 14.78 138.24 14.52 138.59 13.99 138.94 13.78 139.29 13.78 139.64 13.83 139.99 14.15 140.34 14.57 140.69 14.57 141.04 13.99 141.39 13.99 141.73 14.2 142.08 14.57 142.43 14.67 142.78 14.73 143.13 14.89 143.48 14.83 143.83 15.04 144.18 14.94 144.53 14.83 144.88 15.04 145.23 15.63 145.58 15.1 145.92 15.15 146.27 14.78 146.62 14.62 146.97 14.52 147.32 14.73 147.67 15.47 148.02 15.26 148.37 15.63 148.72 16 149.07 16.21 149.42 15.2 149.76 14.62 150.11 14.89 150.46 14.57 150.81 14.46 151.16 14.46 151.51 14.78 151.86 14.73 152.21 14.57 152.56 13.99 152.91 13.88 153.26 13.72 153.61 14.09 153.95 13.67 154.3 13.46 154.65 13.19 155 13.19 155.35 13.19 155.7 13.25 156.05 13.56 156.4 13.56 156.75 13.62 157.1 13.56 157.45 13.88 157.79 14.15 158.14 14.2 158.49 14.3 158.84 14.36 159.19 14.46 159.54 14.62 159.89 14.62 160.24 14.89 160.59 14.89 160.94 14.99 161.29 15.1 161.64 16.15 161.98 16.31 162.33 16.15 162.68 15.94 163.03 15.41 163.38 16.21 163.73 15.36 164.08 15.78 164.43 15.89 164.78 15.41 165.13 15.84 165.48 15.78 165.83 16.26 166.17 15.89 166.52 16.37 166.87 16.68 167.22 16.47 167.57 16.68 167.92 16.89 168.27 17.32 168.62 17.64 168.97 17.58 169.32 18.11 169.67 17.32 170.01 17.69 170.36 17.79 170.71 18.38 171.06 19.17 171.41 19.22 171.76 19.75 172.11 18.96 172.46 18.64 172.81 17.79 173.16 16.47 173.51 16.42 173.86 16.26 174.2 16.52 174.55 16.31 174.9 16.89 175.25 16.63 175.6 17.48 175.95 17.74 176.3 18.43 176.65 18.16 177 17.69 177.35 17.85 177.7 17.42 178.04 18.38 178.39 18.16 178.74 17.9 179.09 17.69 179.44 17.37 179.79 17.37 180.14 17 180.49 17.27 180.84 17.79 181.19 16.21 181.54 16.05 181.89 15.84 182.23 16.1 182.58 16 182.93 16.05 183.28 16.31 183.63 16.05 183.98 16 184.33 15.68 184.68 15.63 185.03 15.41 185.38 15.52 185.73 15.68 186.08 16.05 186.42 15.89 186.77 14.89 187.12 14.94 187.47 14.73 187.82 14.52 188.17 14.73 188.52 14.36 188.87 14.09 189.22 14.3 189.57 14.25 189.92 13.88 190.26 13.62 190.61 13.51 190.96 13.67 191.31 13.35 191.66 13.56 192.01 13.51 192.36 13.46 192.71 13.51 193.06 13.83 193.41 13.78 193.76 13.62 194.11 13.3 194.45 13.56 194.8 13.72 195.15 13.93 195.5 13.99 195.85 14.04 196.2 14.41"/>
      </g>
      <g stroke-width="0.3" fill="#000000" fill-opacity="0.000" class="geometry" stroke-dasharray="none" stroke="#FEE08B" id="img-eaca77a5-35">
        <path fill="none" d="M21.98,33.76 L 22.33 33.39 22.68 33.66 23.03 33.76 23.38 33.45 23.73 34.56 24.08 34.35 24.42 35.19 24.77 34.45 25.12 33.97 25.47 34.08 25.82 34.56 26.17 33.92 26.52 33.23 26.87 33.66 27.22 31.86 27.57 31.91 27.92 31.97 28.27 31.17 28.61 30.17 28.96 29.8 29.31 29.11 29.66 29.85 30.01 30.17 30.36 30.64 30.71 29.43 31.06 29.64 31.41 30.64 31.76 29.85 32.11 30.06 32.45 29.96 32.8 29.9 33.15 30.48 33.5 30.54 33.85 29.74 34.2 30.17 34.55 30.27 34.9 31.17 35.25 30.7 35.6 31.01 35.95 31.97 36.3 30.96 36.64 31.97 36.99 32.39 37.34 31.91 37.69 31.07 38.04 30.91 38.39 31.44 38.74 31.23 39.09 32.02 39.44 32.44 39.79 32.34 40.14 32.07 40.49 32.12 40.83 32.34 41.18 32.49 41.53 33.18 41.88 34.08 42.23 33.97 42.58 33.6 42.93 35.19 43.28 35.51 43.63 35.24 43.98 34.82 44.33 35.51 44.67 35.56 45.02 36.04 45.37 36.04 45.72 36.57 46.07 36.2 46.42 36.25 46.77 35.93 47.12 35.98 47.47 35.72 47.82 36.72 48.17 37.94 48.52 37.89 48.86 36.51 49.21 35.19 49.56 34.4 49.91 32.81 50.26 31.75 50.61 30.48 50.96 30.75 51.31 32.28 51.66 31.54 52.01 30.7 52.36 31.23 52.7 30.91 53.05 29.9 53.4 28.63 53.75 28.26 54.1 28.63 54.45 27.31 54.8 26.89 55.15 25.2 55.5 25.25 55.85 25.3 56.2 25.83 56.55 26.2 56.89 26.57 57.24 27.36 57.59 26.62 57.94 27.26 58.29 26.57 58.64 26.15 58.99 26.1 59.34 25.94 59.69 27.26 60.04 26.68 60.39 25.67 60.73 25.99 61.08 25.14 61.43 25.78 61.78 26.1 62.13 25.57 62.48 24.4 62.83 24.35 63.18 24.99 63.53 26.52 63.88 27.1 64.23 27.89 64.58 28.58 64.92 28.48 65.27 28.9 65.62 29.69 65.97 29.43 66.32 29.48 66.67 29.32 67.02 29.69 67.37 29.27 67.72 28.9 68.07 30.54 68.42 29.69 68.77 29.59 69.11 29.59 69.46 29.43 69.81 29.69 70.16 30.54 70.51 30.43 70.86 29.69 71.21 29.59 71.56 29.69 71.91 29.69 72.26 30.91 72.61 31.38 72.95 32.18 73.3 31.54 73.65 32.02 74 33.02 74.35 33.45 74.7 32.86 75.05 32.18 75.4 32.07 75.75 32.44 76.1 33.55 76.45 33.45 76.8 32.44 77.14 31.7 77.49 31.23 77.84 30.7 78.19 29.32 78.54 28.9 78.89 28.53 79.24 26.89 79.59 26.78 79.94 26.62 80.29 27.21 80.64 26.47 80.98 26.1 81.33 25.04 81.68 26.36 82.03 26.04 82.38 26.41 82.73 26.47 83.08 26.62 83.43 25.88 83.78 26.94 84.13 27.52 84.48 26.99 84.83 26.04 85.17 27.05 85.52 27.79 85.87 28.37 86.22 28.16 86.57 27.42 86.92 27.52 87.27 28.63 87.62 28.48 87.97 27.95 88.32 26.47 88.67 25.46 89.02 25.46 89.36 25.57 89.71 25.09 90.06 25.04 90.41 25.62 90.76 25.04 91.11 24.67 91.46 25.09 91.81 24.35 92.16 25.46 92.51 25.83 92.86 26.47 93.2 26.31 93.55 26.2 93.9 26.47 94.25 26.15 94.6 26.89 94.95 27.05 95.3 27.15 95.65 28.11 96 26.89 96.35 26.2 96.7 26.68 97.05 26.73 97.39 26.94 97.74 25.88 98.09 26.25 98.44 26.41 98.79 27.15 99.14 28.37 99.49 28.26 99.84 27.63 100.19 27.79 100.54 26.84 100.89 26.73 101.23 28.21 101.58 28.05 101.93 28.69 102.28 28.63 102.63 28.58 102.98 27.95 103.33 28.85 103.68 27.58 104.03 27.95 104.38 28.26 104.73 27.84 105.08 27.74 105.42 27.52 105.77 27.21 106.12 26.41 106.47 26.04 106.82 25.57 107.17 24.77 107.52 25.25 107.87 24.88 108.22 25.09 108.57 24.88 108.92 24.83 109.26 25.2 109.61 24.72 109.96 25.04 110.31 24.77 110.66 24.56 111.01 25.41 111.36 25.14 111.71 25.83 112.06 24.83 112.41 24.88 112.76 25.78 113.11 25.67 113.45 25.67 113.8 26.1 114.15 26.25 114.5 25.57 114.85 24.4 115.2 24.67 115.55 24.3 115.9 25.14 116.25 25.2 116.6 24.67 116.95 24.62 117.3 25.04 117.64 24.83 117.99 24.51 118.34 25.25 118.69 25.67 119.04 27.21 119.39 27.42 119.74 27.31 120.09 27.63 120.44 27.74 120.79 27.84 121.14 27.84 121.48 28.05 121.83 27.31 122.18 26.47 122.53 26.57 122.88 25.09 123.23 26.52 123.58 26.62 123.93 25.94 124.28 25.62 124.63 25.94 124.98 26.2 125.33 25.88 125.67 25.57 126.02 26.31 126.37 25.62 126.72 25.99 127.07 26.1 127.42 26.1 127.77 24.67 128.12 25.67 128.47 25.99 128.82 25.94 129.17 25.25 129.51 26.36 129.86 26.73 130.21 26.84 130.56 28 130.91 29.06 131.26 27.15 131.61 28.11 131.96 28.16 132.31 27.31 132.66 27.26 133.01 27.31 133.36 25.94 133.7 26.84 134.05 26.47 134.4 26.36 134.75 26.1 135.1 26.04 135.45 25.14 135.8 23.56 136.15 24.19 136.5 24.03 136.85 23.98 137.2 24.09 137.55 22.87 137.89 22.34 138.24 23.08 138.59 23.66 138.94 24.3 139.29 23.93 139.64 23.82 139.99 24.03 140.34 23.03 140.69 21.87 141.04 22.5 141.39 22.55 141.73 23.61 142.08 23.13 142.43 22.92 142.78 23.61 143.13 22.5 143.48 23.19 143.83 23.93 144.18 24.25 144.53 23.87 144.88 23.5 145.23 23.03 145.58 22.29 145.92 23.03 146.27 23.82 146.62 24.4 146.97 23.24 147.32 23.08 147.67 22.66 148.02 22.34 148.37 23.35 148.72 23.35 149.07 23.08 149.42 22.61 149.76 22.98 150.11 23.08 150.46 22.08 150.81 23.08 151.16 23.03 151.51 22.71 151.86 22.39 152.21 22.13 152.56 21.65 152.91 21.71 153.26 21.65 153.61 21.92 153.95 21.97 154.3 21.87 154.65 22.02 155 21.55 155.35 21.39 155.7 20.65 156.05 21.5 156.4 22.02 156.75 21.65 157.1 20.81 157.45 21.34 157.79 20.97 158.14 21.02 158.49 21.44 158.84 21.71 159.19 22.24 159.54 21.76 159.89 21.76 160.24 21.92 160.59 20.91 160.94 19.75 161.29 19.54 161.64 18.96 161.98 18.69 162.33 18.48 162.68 19.54 163.03 20.49 163.38 20.76 163.73 21.6 164.08 21.34 164.43 21.87 164.78 21.65 165.13 22.02 165.48 20.97 165.83 21.02 166.17 20.81 166.52 20.49 166.87 21.18 167.22 21.28 167.57 21.34 167.92 20.91 168.27 21.18 168.62 20.07 168.97 19.17 169.32 19.59 169.67 19.86 170.01 19.59 170.36 19.59 170.71 18.69 171.06 19.12 171.41 18.96 171.76 18.59 172.11 18.48 172.46 18.85 172.81 19.12 173.16 19.86 173.51 20.38 173.86 20.6 174.2 21.13 174.55 21.34 174.9 20.49 175.25 20.28 175.6 20.07 175.95 18.38 176.3 17.64 176.65 17.27 177 16.63 177.35 16.95 177.7 17.37 178.04 17.42 178.39 17.53 178.74 18.32 179.09 18.43 179.44 18.69 179.79 18.8 180.14 19.01 180.49 18.75 180.84 18.96 181.19 18.8 181.54 19.38 181.89 19.96 182.23 19.7 182.58 19.7 182.93 19.7 183.28 20.17 183.63 20.7 183.98 20.23 184.33 20.17 184.68 20.76 185.03 21.18 185.38 21.23 185.73 21.34 186.08 20.33 186.42 19.54 186.77 18.48 187.12 18.85 187.47 18.32 187.82 18.64 188.17 18.9 188.52 18.38 188.87 19.33 189.22 20.07 189.57 20.97 189.92 20.81 190.26 20.6 190.61 21.28 190.96 21.97 191.31 21.5 191.66 20.86 192.01 20.81 192.36 20.38 192.71 19.91 193.06 20.33 193.41 21.07 193.76 22.02 194.11 22.82 194.45 22.87 194.8 24.03 195.15 24.03 195.5 22.98 195.85 23.03 196.2 22.66"/>
      </g>
      <g stroke-width="0.3" fill="#000000" fill-opacity="0.000" class="geometry" stroke-dasharray="none" stroke="#FDAE61" id="img-eaca77a5-36">
        <path fill="none" d="M21.98,33.76 L 22.33 33.13 22.68 32.49 23.03 32.86 23.38 32.55 23.73 32.81 24.08 33.08 24.42 32.39 24.77 31.81 25.12 32.39 25.47 33.08 25.82 32.34 26.17 33.13 26.52 33.08 26.87 32.76 27.22 32.6 27.57 31.6 27.92 32.65 28.27 32.34 28.61 30.91 28.96 31.6 29.31 33.02 29.66 32.49 30.01 32.28 30.36 32.6 30.71 31.81 31.06 32.76 31.41 33.5 31.76 32.6 32.11 32.44 32.45 32.65 32.8 33.39 33.15 33.18 33.5 32.44 33.85 32.65 34.2 32.49 34.55 32.49 34.9 33.87 35.25 33.39 35.6 33.5 35.95 32.71 36.3 33.71 36.64 34.29 36.99 35.56 37.34 37.31 37.69 36.62 38.04 38.26 38.39 38.58 38.74 38.95 39.09 38.26 39.44 37.89 39.79 38.47 40.14 38.95 40.49 40.43 40.83 39.9 41.18 41.11 41.53 41.06 41.88 41.85 42.23 42.28 42.58 42.07 42.93 42.07 43.28 42.96 43.63 42.38 43.98 41.59 44.33 41.7 44.67 42.07 45.02 43.23 45.37 42.65 45.72 42.44 46.07 42.38 46.42 43.33 46.77 43.39 47.12 43.44 47.47 44.6 47.82 45.4 48.17 45.87 48.52 46.3 48.86 44.82 49.21 44.29 49.56 43.44 49.91 43.6 50.26 43.92 50.61 44.13 50.96 43.12 51.31 43.33 51.66 43.65 52.01 43.18 52.36 43.23 52.7 43.23 53.05 43.28 53.4 42.96 53.75 43.07 54.1 43.28 54.45 42.75 54.8 43.23 55.15 43.44 55.5 43.81 55.85 43.97 56.2 42.91 56.55 43.44 56.89 42.44 57.24 42.96 57.59 42.07 57.94 42.54 58.29 43.97 58.64 42.59 58.99 42.01 59.34 42.81 59.69 42.44 60.04 43.02 60.39 42.22 60.73 42.28 61.08 42.22 61.43 42.22 61.78 41.85 62.13 42.17 62.48 43.65 62.83 44.23 63.18 43.55 63.53 43.49 63.88 43.81 64.23 43.6 64.58 43.12 64.92 43.6 65.27 43.07 65.62 42.38 65.97 41.54 66.32 41.7 66.67 40 67.02 40.43 67.37 39.63 67.72 39.69 68.07 38.73 68.42 39.26 68.77 40.11 69.11 39.9 69.46 38.84 69.81 39.84 70.16 40 70.51 40.11 70.86 40.06 71.21 39.58 71.56 41.38 71.91 40.74 72.26 40.64 72.61 40.64 72.95 39.95 73.3 39.74 73.65 40.16 74 39.69 74.35 39.37 74.7 38.47 75.05 36.57 75.4 37.46 75.75 37.25 76.1 38.1 76.45 37.25 76.8 36.88 77.14 37.09 77.49 37.52 77.84 38.36 78.19 38.36 78.54 37.99 78.89 38.05 79.24 37.73 79.59 36.25 79.94 37.2 80.29 36.2 80.64 35.03 80.98 34.5 81.33 33.76 81.68 34.5 82.03 34.82 82.38 35.46 82.73 35.14 83.08 34.61 83.43 33.18 83.78 33.71 84.13 33.39 84.48 32.92 84.83 32.55 85.17 32.23 85.52 32.6 85.87 32.02 86.22 32.23 86.57 31.86 86.92 30.75 87.27 31.01 87.62 31.44 87.97 31.6 88.32 32.6 88.67 32.65 89.02 33.02 89.36 32.44 89.71 31.75 90.06 31.17 90.41 31.23 90.76 31.38 91.11 32.07 91.46 32.23 91.81 32.92 92.16 33.02 92.51 33.18 92.86 32.6 93.2 33.23 93.55 32.44 93.9 34.45 94.25 34.87 94.6 35.4 94.95 35.35 95.3 35.35 95.65 36.51 96 37.04 96.35 35.61 96.7 36.57 97.05 35.93 97.39 36.04 97.74 35.19 98.09 34.87 98.44 35.14 98.79 34.98 99.14 35.51 99.49 36.46 99.84 36.72 100.19 36.72 100.54 35.77 100.89 36.04 101.23 36.14 101.58 37.68 101.93 38.68 102.28 39.69 102.63 39.21 102.98 38.68 103.33 38.31 103.68 38.68 104.03 39 104.38 37.94 104.73 37.99 105.08 38.89 105.42 40.11 105.77 40.85 106.12 40.21 106.47 40.85 106.82 40.95 107.17 42.07 107.52 42.07 107.87 42.01 108.22 43.55 108.57 42.96 108.92 42.59 109.26 41.85 109.61 41.38 109.96 41.33 110.31 41.17 110.66 39.32 111.01 38.73 111.36 39 111.71 38.47 112.06 39.47 112.41 41.43 112.76 41.01 113.11 40.8 113.45 40.37 113.8 40.32 114.15 41.43 114.5 40.53 114.85 40.21 115.2 39.74 115.55 40.95 115.9 39.32 116.25 37.89 116.6 37.31 116.95 36.41 117.3 36.41 117.64 36.83 117.99 36.99 118.34 37.31 118.69 36.83 119.04 36.3 119.39 35.35 119.74 34.98 120.09 34.4 120.44 34.29 120.79 34.77 121.14 34.82 121.48 32.6 121.83 32.02 122.18 32.44 122.53 32.49 122.88 32.28 123.23 32.6 123.58 33.34 123.93 32.49 124.28 32.71 124.63 32.02 124.98 32.49 125.33 31.81 125.67 31.86 126.02 31.49 126.37 31.07 126.72 30.48 127.07 30.59 127.42 30.43 127.77 29.11 128.12 28.53 128.47 29.64 128.82 27.84 129.17 28.69 129.51 29.59 129.86 28.85 130.21 29 130.56 28.9 130.91 30.85 131.26 30.06 131.61 30.48 131.96 29.85 132.31 30.75 132.66 31.01 133.01 30.48 133.36 30.33 133.7 29.96 134.05 29.16 134.4 29 134.75 29.59 135.1 29.11 135.45 28.26 135.8 27.36 136.15 27.68 136.5 28.69 136.85 28.53 137.2 29.43 137.55 28.63 137.89 28.95 138.24 29.32 138.59 28.79 138.94 28.32 139.29 27.95 139.64 28.21 139.99 28.37 140.34 27.95 140.69 27.84 141.04 27.36 141.39 27.68 141.73 27.84 142.08 28.69 142.43 28.37 142.78 28.42 143.13 28.63 143.48 28 143.83 29.48 144.18 29.96 144.53 29.48 144.88 27.58 145.23 28.05 145.58 28.95 145.92 28.16 146.27 27.31 146.62 25.57 146.97 27.05 147.32 25.46 147.67 25.57 148.02 25.83 148.37 25.25 148.72 25.88 149.07 24.99 149.42 25.2 149.76 25.3 150.11 25.04 150.46 25.36 150.81 25.83 151.16 27.1 151.51 27.84 151.86 26.94 152.21 28.26 152.56 27.52 152.91 28.26 153.26 28.21 153.61 27.63 153.95 27.89 154.3 27.21 154.65 27.52 155 25.94 155.35 25.36 155.7 26.41 156.05 25.09 156.4 24.72 156.75 24.19 157.1 23.35 157.45 24.09 157.79 23.03 158.14 22.82 158.49 22.61 158.84 22.66 159.19 22.76 159.54 23.03 159.89 23.03 160.24 23.56 160.59 23.72 160.94 23.4 161.29 24.03 161.64 23.82 161.98 23.98 162.33 24.14 162.68 24.62 163.03 24.19 163.38 24.62 163.73 23.13 164.08 22.87 164.43 23.66 164.78 23.5 165.13 23.61 165.48 23.82 165.83 23.87 166.17 22.45 166.52 22.92 166.87 22.55 167.22 22.45 167.57 23.08 167.92 23.87 168.27 23.87 168.62 24.62 168.97 25.04 169.32 25.36 169.67 24.67 170.01 24.14 170.36 24.3 170.71 25.51 171.06 24.67 171.41 24.83 171.76 23.5 172.11 23.77 172.46 24.4 172.81 24.19 173.16 24.83 173.51 24.72 173.86 25.94 174.2 25.62 174.55 26.25 174.9 27.21 175.25 27.1 175.6 26.25 175.95 26.84 176.3 26.89 176.65 27.68 177 26.99 177.35 27.15 177.7 27.79 178.04 28 178.39 28 178.74 27.68 179.09 28 179.44 28.48 179.79 28.26 180.14 27.52 180.49 27.79 180.84 27.63 181.19 29.22 181.54 29.8 181.89 31.12 182.23 31.44 182.58 31.17 182.93 31.33 183.28 31.33 183.63 32.28 183.98 31.65 184.33 30.96 184.68 30.75 185.03 31.97 185.38 32.07 185.73 32.18 186.08 31.17 186.42 31.91 186.77 31.54 187.12 32.76 187.47 32.81 187.82 32.07 188.17 32.12 188.52 33.13 188.87 33.6 189.22 34.29 189.57 35.83 189.92 35.4 190.26 35.83 190.61 35.14 190.96 35.93 191.31 34.61 191.66 34.19 192.01 34.13 192.36 34.03 192.71 33.34 193.06 32.23 193.41 32.76 193.76 32.76 194.11 33.71 194.45 34.19 194.8 33.82 195.15 34.29 195.5 33.45 195.85 34.35 196.2 33.39"/>
      </g>
      <g stroke-width="0.3" fill="#000000" fill-opacity="0.000" class="geometry" stroke-dasharray="none" stroke="#F46D43" id="img-eaca77a5-37">
        <path fill="none" d="M21.98,33.76 L 22.33 33.29 22.68 32.6 23.03 33.23 23.38 33.02 23.73 33.29 24.08 33.02 24.42 32.86 24.77 33.45 25.12 33.02 25.47 33.92 25.82 33.34 26.17 33.13 26.52 34.45 26.87 34.61 27.22 34.56 27.57 35.51 27.92 35.19 28.27 33.34 28.61 33.92 28.96 33.82 29.31 34.08 29.66 33.71 30.01 35.46 30.36 36.25 30.71 36.2 31.06 35.77 31.41 34.19 31.76 33.39 32.11 33.6 32.45 33.18 32.8 31.97 33.15 31.12 33.5 31.38 33.85 31.28 34.2 30.48 34.55 31.54 34.9 31.54 35.25 32.28 35.6 31.97 35.95 31.38 36.3 31.86 36.64 31.91 36.99 31.75 37.34 32.12 37.69 32.07 38.04 31.44 38.39 31.17 38.74 30.17 39.09 30.64 39.44 29.27 39.79 28.79 40.14 30.38 40.49 31.75 40.83 32.97 41.18 33.08 41.53 32.65 41.88 32.12 42.23 31.65 42.58 32.39 42.93 31.81 43.28 32.28 43.63 31.75 43.98 31.7 44.33 32.76 44.67 33.18 45.02 33.71 45.37 34.56 45.72 33.6 46.07 33.76 46.42 34.35 46.77 35.88 47.12 34.77 47.47 34.45 47.82 34.29 48.17 34.72 48.52 34.56 48.86 33.5 49.21 33.92 49.56 34.77 49.91 33.97 50.26 34.08 50.61 34.13 50.96 33.87 51.31 34.19 51.66 33.82 52.01 34.56 52.36 34.77 52.7 35.98 53.05 37.15 53.4 37.52 53.75 35.56 54.1 35.77 54.45 36.57 54.8 36.35 55.15 35.14 55.5 33.5 55.85 33.55 56.2 33.08 56.55 33.23 56.89 33.34 57.24 35.3 57.59 34.82 57.94 36.14 58.29 35.98 58.64 35.3 58.99 35.98 59.34 36.72 59.69 37.2 60.04 37.94 60.39 35.83 60.73 36.83 61.08 37.84 61.43 38.47 61.78 38.63 62.13 39.32 62.48 39.32 62.83 39.74 63.18 39.47 63.53 39.79 63.88 40.58 64.23 42.01 64.58 41.7 64.92 42.75 65.27 42.59 65.62 42.07 65.97 43.86 66.32 44.13 66.67 44.66 67.02 44.92 67.37 44.82 67.72 44.5 68.07 43.76 68.42 43.18 68.77 42.59 69.11 43.23 69.46 43.55 69.81 43.55 70.16 42.91 70.51 43.49 70.86 43.02 71.21 42.44 71.56 43.33 71.91 43.6 72.26 44.29 72.61 43.18 72.95 42.54 73.3 43.12 73.65 43.44 74 43.81 74.35 43.33 74.7 42.49 75.05 41.22 75.4 41.27 75.75 41.54 76.1 41.43 76.45 40.43 76.8 39.84 77.14 40.8 77.49 41.7 77.84 42.75 78.19 43.12 78.54 43.44 78.89 44.02 79.24 44.02 79.59 44.55 79.94 44.66 80.29 44.5 80.64 45.98 80.98 46.51 81.33 46.61 81.68 46.4 82.03 46.88 82.38 46.35 82.73 46.3 83.08 45.4 83.43 46.03 83.78 46.35 84.13 46.93 84.48 47.04 84.83 46.14 85.17 45.5 85.52 45.24 85.87 46.82 86.22 47.46 86.57 47.3 86.92 46.98 87.27 46.67 87.62 45.98 87.97 46.08 88.32 45.98 88.67 45.24 89.02 46.19 89.36 45.93 89.71 45.34 90.06 44.82 90.41 43.7 90.76 44.13 91.11 44.39 91.46 45.71 91.81 45.93 92.16 45.61 92.51 46.08 92.86 46.98 93.2 46.82 93.55 46.82 93.9 46.19 94.25 45.4 94.6 45.4 94.95 45.93 95.3 45.98 95.65 44.76 96 45.13 96.35 45.03 96.7 45.29 97.05 45.4 97.39 46.3 97.74 45.82 98.09 46.24 98.44 47.09 98.79 47.14 99.14 46.35 99.49 46.98 99.84 47.09 100.19 47.46 100.54 47.56 100.89 47.25 101.23 46.72 101.58 46.72 101.93 46.51 102.28 46.67 102.63 46.4 102.98 46.35 103.33 46.72 103.68 47.04 104.03 47.51 104.38 46.35 104.73 46.3 105.08 46.08 105.42 46.4 105.77 46.56 106.12 46.19 106.47 47.35 106.82 46.56 107.17 46.88 107.52 46.51 107.87 46.51 108.22 46.35 108.57 47.04 108.92 47.67 109.26 48.2 109.61 48.83 109.96 48.31 110.31 49.26 110.66 49.15 111.01 48.68 111.36 47.88 111.71 48.89 112.06 48.83 112.41 49.15 112.76 49.73 113.11 48.99 113.45 49.84 113.8 48.83 114.15 48.36 114.5 48.41 114.85 49.1 115.2 48.99 115.55 49.31 115.9 49.31 116.25 49.42 116.6 49.47 116.95 49.94 117.3 49.73 117.64 50.47 117.99 50.68 118.34 50.21 118.69 49.57 119.04 49.47 119.39 49.2 119.74 49.26 120.09 49.42 120.44 49.94 120.79 50.16 121.14 50.26 121.48 50.53 121.83 50.26 122.18 49.68 122.53 49.73 122.88 50.21 123.23 49.79 123.58 50.63 123.93 50 124.28 49.36 124.63 50.05 124.98 49.68 125.33 49.15 125.67 48.99 126.02 48.83 126.37 49.15 126.72 48.73 127.07 49.1 127.42 48.89 127.77 48.2 128.12 47.41 128.47 47.46 128.82 47.72 129.17 47.46 129.51 48.68 129.86 48.25 130.21 48.78 130.56 50.05 130.91 49.47 131.26 49.68 131.61 48.41 131.96 49.05 132.31 48.99 132.66 48.36 133.01 48.57 133.36 48.15 133.7 47.93 134.05 48.73 134.4 47.88 134.75 47.35 135.1 46.82 135.45 46.56 135.8 46.03 136.15 45.98 136.5 44.55 136.85 44.87 137.2 44.76 137.55 44.97 137.89 43.97 138.24 44.92 138.59 44.76 138.94 44.92 139.29 45.19 139.64 44.55 139.99 44.6 140.34 44.66 140.69 43.7 141.04 43.02 141.39 42.65 141.73 42.07 142.08 42.28 142.43 41.8 142.78 41.54 143.13 42.22 143.48 42.86 143.83 43.33 144.18 43.7 144.53 44.02 144.88 43.39 145.23 43.86 145.58 43.86 145.92 44.23 146.27 43.55 146.62 42.7 146.97 44.07 147.32 44.87 147.67 44.76 148.02 44.82 148.37 46.08 148.72 46.08 149.07 47.3 149.42 47.56 149.76 47.35 150.11 46.61 150.46 46.19 150.81 46.67 151.16 45.87 151.51 45.13 151.86 45.08 152.21 44.39 152.56 44.34 152.91 45.03 153.26 44.92 153.61 44.55 153.95 45.66 154.3 45.29 154.65 45.82 155 45.45 155.35 45.66 155.7 46.08 156.05 45.08 156.4 45.5 156.75 45.34 157.1 45.13 157.45 45.4 157.79 44.71 158.14 44.82 158.49 44.82 158.84 45.29 159.19 45.24 159.54 43.65 159.89 44.44 160.24 45.45 160.59 45.77 160.94 45.34 161.29 44.55 161.64 45.34 161.98 45.34 162.33 44.44 162.68 43.65 163.03 43.49 163.38 43.12 163.73 43.28 164.08 44.07 164.43 45.34 164.78 45.29 165.13 44.82 165.48 44.39 165.83 44.92 166.17 45.19 166.52 45.56 166.87 45.08 167.22 45.29 167.57 45.24 167.92 45.82 168.27 46.08 168.62 47.09 168.97 47.14 169.32 46.19 169.67 47.46 170.01 47.09 170.36 47.83 170.71 47.56 171.06 48.46 171.41 49.15 171.76 48.89 172.11 48.15 172.46 48.2 172.81 48.89 173.16 48.68 173.51 49.1 173.86 47.83 174.2 47.72 174.55 47.41 174.9 47.14 175.25 48.09 175.6 48.78 175.95 49.79 176.3 49.94 176.65 50.53 177 50.58 177.35 50.05 177.7 49.84 178.04 49.52 178.39 49.31 178.74 49.63 179.09 49.47 179.44 49.63 179.79 49.89 180.14 50.1 180.49 49.52 180.84 49.05 181.19 48.73 181.54 48.62 181.89 48.68 182.23 48.68 182.58 48.15 182.93 47.67 183.28 47.72 183.63 47.19 183.98 47.41 184.33 47.25 184.68 47.99 185.03 47.56 185.38 48.09 185.73 48.52 186.08 49.1 186.42 48.94 186.77 49.36 187.12 49.1 187.47 48.62 187.82 48.83 188.17 49.05 188.52 48.94 188.87 48.68 189.22 49.05 189.57 47.93 189.92 47.41 190.26 47.83 190.61 48.78 190.96 47.62 191.31 48.73 191.66 48.94 192.01 47.25 192.36 46.45 192.71 46.03 193.06 46.51 193.41 46.77 193.76 47.67 194.11 47.04 194.45 46.3 194.8 46.45 195.15 46.19 195.5 46.14 195.85 45.82 196.2 45.13"/>
      </g>
      <g stroke-width="0.3" fill="#000000" fill-opacity="0.000" class="geometry" stroke-dasharray="none" stroke="#D53E4F" id="img-eaca77a5-38">
        <path fill="none" d="M21.98,33.76 L 22.33 33.18 22.68 33.71 23.03 32.92 23.38 31.54 23.73 31.28 24.08 31.6 24.42 32.28 24.77 32.28 25.12 32.81 25.47 31.75 25.82 31.44 26.17 32.07 26.52 32.97 26.87 31.81 27.22 32.55 27.57 32.44 27.92 30.96 28.27 30.75 28.61 31.38 28.96 30.59 29.31 30.54 29.66 31.12 30.01 31.65 30.36 31.38 30.71 31.12 31.06 31.33 31.41 30.8 31.76 31.28 32.11 30.64 32.45 30.54 32.8 30.22 33.15 31.01 33.5 30.01 33.85 31.01 34.2 31.07 34.55 31.97 34.9 32.18 35.25 31.81 35.6 31.44 35.95 33.13 36.3 32.44 36.64 33.39 36.99 34.45 37.34 33.66 37.69 34.72 38.04 34.98 38.39 34.5 38.74 34.66 39.09 35.24 39.44 34.08 39.79 33.97 40.14 33.92 40.49 33.76 40.83 34.03 41.18 33.34 41.53 33.13 41.88 32.86 42.23 33.45 42.58 34.29 42.93 35.51 43.28 35.46 43.63 34.77 43.98 34.13 44.33 35.51 44.67 35.61 45.02 36.94 45.37 36.94 45.72 37.57 46.07 37.73 46.42 37.94 46.77 39.21 47.12 39.32 47.47 38.73 47.82 39.69 48.17 40.48 48.52 39.42 48.86 39.58 49.21 39.53 49.56 38.73 49.91 38.36 50.26 37.15 50.61 36.62 50.96 37.36 51.31 36.2 51.66 36.83 52.01 36.25 52.36 36.14 52.7 35.67 53.05 35.67 53.4 35.88 53.75 38.42 54.1 38.15 54.45 37.04 54.8 36.51 55.15 36.41 55.5 35.88 55.85 35.51 56.2 34.5 56.55 34.19 56.89 33.29 57.24 31.49 57.59 31.54 57.94 30.27 58.29 29.96 58.64 29.37 58.99 29.43 59.34 28.48 59.69 27.68 60.04 28.42 60.39 27.36 60.73 26.84 61.08 27.26 61.43 28.32 61.78 28.37 62.13 29.06 62.48 27.89 62.83 27.42 63.18 26.94 63.53 26.31 63.88 27.31 64.23 28 64.58 27.21 64.92 26.57 65.27 27.21 65.62 26.84 65.97 27.26 66.32 27.42 66.67 28.48 67.02 28.42 67.37 28.53 67.72 28.21 68.07 27.63 68.42 28.48 68.77 29.11 69.11 29.43 69.46 30.43 69.81 30.27 70.16 29.27 70.51 29 70.86 29.69 71.21 30.06 71.56 30.75 71.91 30.7 72.26 31.81 72.61 31.91 72.95 31.7 73.3 31.28 73.65 31.33 74 31.01 74.35 30.38 74.7 30.8 75.05 30.17 75.4 30.17 75.75 31.12 76.1 30.33 76.45 29.27 76.8 29.59 77.14 28.85 77.49 28.69 77.84 28.58 78.19 28.95 78.54 29.27 78.89 29.9 79.24 29.32 79.59 29.96 79.94 30.43 80.29 29.59 80.64 29.74 80.98 28.53 81.33 29.37 81.68 28.21 82.03 27.89 82.38 27.42 82.73 27.21 83.08 26.68 83.43 25.62 83.78 25.83 84.13 26.1 84.48 26.52 84.83 25.3 85.17 24.77 85.52 25.73 85.87 25.14 86.22 25.25 86.57 24.99 86.92 24.35 87.27 23.5 87.62 23.66 87.97 23.13 88.32 23.61 88.67 23.56 89.02 23.4 89.36 23.29 89.71 23.45 90.06 23.77 90.41 23.5 90.76 23.45 91.11 23.87 91.46 24.19 91.81 25.83 92.16 26.99 92.51 26.47 92.86 26.36 93.2 26.57 93.55 26.57 93.9 27.21 94.25 26.52 94.6 26.04 94.95 25.78 95.3 26.1 95.65 26.68 96 26.47 96.35 26.41 96.7 26.2 97.05 26.31 97.39 25.73 97.74 24.99 98.09 24.51 98.44 24.67 98.79 24.93 99.14 24.19 99.49 23.98 99.84 23.87 100.19 23.77 100.54 24.77 100.89 25.04 101.23 24.51 101.58 23.82 101.93 23.93 102.28 25.2 102.63 25.14 102.98 25.46 103.33 25.57 103.68 26.25 104.03 26.31 104.38 25.83 104.73 26.1 105.08 26.73 105.42 26.78 105.77 26.84 106.12 26.57 106.47 26.2 106.82 26.68 107.17 27.84 107.52 27.26 107.87 25.3 108.22 25.57 108.57 27.1 108.92 27.31 109.26 27.74 109.61 28.05 109.96 28.58 110.31 27.47 110.66 28.37 111.01 28.42 111.36 28.37 111.71 29.37 112.06 28.95 112.41 29.27 112.76 29.43 113.11 29.06 113.45 27.42 113.8 27.58 114.15 28.32 114.5 27.31 114.85 28.05 115.2 26.52 115.55 26.78 115.9 27.1 116.25 26.57 116.6 27.36 116.95 27.52 117.3 27.89 117.64 26.99 117.99 27.47 118.34 27.58 118.69 27.63 119.04 26.73 119.39 26.47 119.74 25.94 120.09 26.2 120.44 25.83 120.79 26.15 121.14 26.89 121.48 27.05 121.83 27.79 122.18 28.42 122.53 29 122.88 28.05 123.23 26.94 123.58 26.84 123.93 27.68 124.28 27.1 124.63 27.1 124.98 26.89 125.33 28.79 125.67 29.59 126.02 31.12 126.37 31.65 126.72 32.34 127.07 33.82 127.42 33.39 127.77 32.28 128.12 32.34 128.47 32.02 128.82 32.12 129.17 31.07 129.51 30.33 129.86 30.64 130.21 30.17 130.56 29.64 130.91 29.74 131.26 29.85 131.61 30.11 131.96 29.8 132.31 31.23 132.66 30.33 133.01 31.65 133.36 31.91 133.7 31.44 134.05 31.01 134.4 30.11 134.75 29.32 135.1 30.54 135.45 31.12 135.8 32.18 136.15 32.12 136.5 32.12 136.85 32.44 137.2 32.28 137.55 31.75 137.89 30.43 138.24 30.48 138.59 31.23 138.94 30.96 139.29 30.01 139.64 29.8 139.99 29.27 140.34 30.91 140.69 30.85 141.04 30.64 141.39 31.23 141.73 30.27 142.08 29.59 142.43 30.27 142.78 29.48 143.13 28.26 143.48 29.06 143.83 29.11 144.18 28.74 144.53 29.8 144.88 29.16 145.23 28.74 145.58 29.11 145.92 29.74 146.27 28.05 146.62 29.11 146.97 31.33 147.32 30.75 147.67 30.43 148.02 29.96 148.37 30.11 148.72 29.48 149.07 28.42 149.42 27.89 149.76 27.21 150.11 27.79 150.46 27.47 150.81 27.84 151.16 28 151.51 27.31 151.86 27.31 152.21 28.37 152.56 27.63 152.91 27.31 153.26 26.89 153.61 27.26 153.95 26.94 154.3 27.31 154.65 26.36 155 27.1 155.35 26.62 155.7 27.31 156.05 27.36 156.4 28.16 156.75 27.84 157.1 28.69 157.45 29.06 157.79 29.9 158.14 29.53 158.49 29.43 158.84 28.85 159.19 30.27 159.54 29 159.89 29.59 160.24 30.43 160.59 30.7 160.94 30.85 161.29 32.39 161.64 32.6 161.98 33.08 162.33 31.91 162.68 30.96 163.03 29.32 163.38 29.85 163.73 29.96 164.08 29.27 164.43 29.22 164.78 30.22 165.13 31.81 165.48 31.54 165.83 31.65 166.17 31.75 166.52 33.34 166.87 33.92 167.22 33.34 167.57 32.76 167.92 32.76 168.27 32.23 168.62 31.65 168.97 30.48 169.32 30.27 169.67 30.22 170.01 30.48 170.36 30.64 170.71 31.01 171.06 29.85 171.41 30.96 171.76 31.49 172.11 30.8 172.46 31.91 172.81 31.65 173.16 32.02 173.51 31.81 173.86 31.91 174.2 31.7 174.55 30.75 174.9 30.27 175.25 30.06 175.6 29.85 175.95 29.48 176.3 29.27 176.65 30.11 177 30.17 177.35 30.38 177.7 30.64 178.04 30.38 178.39 31.17 178.74 31.86 179.09 31.54 179.44 31.33 179.79 31.44 180.14 31.07 180.49 31.17 180.84 30.59 181.19 29.96 181.54 28.69 181.89 28.74 182.23 29.06 182.58 28.63 182.93 28 183.28 27.21 183.63 27.05 183.98 26.89 184.33 27.36 184.68 26.94 185.03 27.63 185.38 27.74 185.73 27.21 186.08 27.26 186.42 27.89 186.77 27.89 187.12 26.84 187.47 27.21 187.82 27.52 188.17 27.21 188.52 27.05 188.87 27.52 189.22 27.1 189.57 26.73 189.92 28.16 190.26 28.21 190.61 29.06 190.96 28.95 191.31 29.32 191.66 29.85 192.01 29.48 192.36 29.74 192.71 29.69 193.06 29 193.41 29.48 193.76 27.26 194.11 27.05 194.45 27.1 194.8 26.36 195.15 26.52 195.5 26.1 195.85 26.52 196.2 26.62"/>
      </g>
      <g stroke-width="0.3" fill="#000000" fill-opacity="0.000" class="geometry" stroke-dasharray="none" stroke="#9E0142" id="img-eaca77a5-39">
        <path fill="none" d="M21.98,33.76 L 22.33 33.97 22.68 33.34 23.03 34.08 23.38 33.18 23.73 33.92 24.08 32.34 24.42 32.44 24.77 31.33 25.12 30.75 25.47 29.74 25.82 28.74 26.17 29 26.52 28.74 26.87 29.11 27.22 28.9 27.57 28.9 27.92 27.42 28.27 27.36 28.61 26.94 28.96 27.1 29.31 25.62 29.66 25.62 30.01 26.52 30.36 26.15 30.71 24.51 31.06 24.35 31.41 23.03 31.76 23.61 32.11 23.5 32.45 24.03 32.8 23.98 33.15 24.09 33.5 25.25 33.85 24.77 34.2 24.88 34.55 24.72 34.9 24.67 35.25 23.93 35.6 24.09 35.95 24.09 36.3 25.36 36.64 25.51 36.99 25.14 37.34 25.88 37.69 25.25 38.04 25.04 38.39 24.51 38.74 25.04 39.09 25.57 39.44 25.36 39.79 25.67 40.14 25.04 40.49 24.72 40.83 24.25 41.18 24.72 41.53 25.83 41.88 26.15 42.23 26.73 42.58 25.99 42.93 25.83 43.28 25.2 43.63 25.25 43.98 24.56 44.33 24.4 44.67 25.04 45.02 25.41 45.37 26.94 45.72 27.21 46.07 28 46.42 28.21 46.77 27.95 47.12 27.36 47.47 27.21 47.82 27.31 48.17 26.1 48.52 26.62 48.86 26.25 49.21 26.36 49.56 26.25 49.91 25.3 50.26 25.73 50.61 26.52 50.96 27.52 51.31 27.52 51.66 27.15 52.01 27.05 52.36 27.47 52.7 27.47 53.05 27.95 53.4 26.52 53.75 25.78 54.1 26.47 54.45 27.74 54.8 27.89 55.15 28.95 55.5 28.21 55.85 28.16 56.2 29.16 56.55 27.74 56.89 28.37 57.24 28.69 57.59 27.42 57.94 26.36 58.29 27.42 58.64 27.63 58.99 28.16 59.34 28.42 59.69 28.16 60.04 27.58 60.39 27.52 60.73 27.26 61.08 28.42 61.43 29.64 61.78 29.27 62.13 29.37 62.48 29.9 62.83 29.37 63.18 29.59 63.53 29.96 63.88 29.69 64.23 29.8 64.58 29.64 64.92 29.37 65.27 29.32 65.62 29.64 65.97 30.85 66.32 30.75 66.67 29.69 67.02 29.69 67.37 28.42 67.72 29.69 68.07 29.53 68.42 28.42 68.77 26.47 69.11 26.99 69.46 26.36 69.81 26.1 70.16 27.63 70.51 27.26 70.86 27.84 71.21 27.68 71.56 27.68 71.91 27.31 72.26 27.58 72.61 27.36 72.95 26.94 73.3 27.36 73.65 28 74 27.52 74.35 26.68 74.7 26.36 75.05 25.94 75.4 25.94 75.75 25.46 76.1 24.83 76.45 25.09 76.8 25.04 77.14 24.46 77.49 25.2 77.84 24.93 78.19 24.25 78.54 23.82 78.89 23.45 79.24 23.77 79.59 24.77 79.94 27.21 80.29 28.21 80.64 29.16 80.98 29.11 81.33 29.53 81.68 29 82.03 26.89 82.38 26.73 82.73 27.21 83.08 28 83.43 28.58 83.78 28.53 84.13 28.42 84.48 28.69 84.83 28.42 85.17 28.21 85.52 27.26 85.87 25.83 86.22 25.88 86.57 27.1 86.92 26.68 87.27 27.15 87.62 26.99 87.97 27.79 88.32 27.1 88.67 27.36 89.02 27.63 89.36 26.94 89.71 27.15 90.06 26.99 90.41 27.21 90.76 27.47 91.11 28.53 91.46 29.27 91.81 29 92.16 29.43 92.51 28.48 92.86 29.22 93.2 30.54 93.55 29.64 93.9 29.53 94.25 28.74 94.6 29.43 94.95 29.48 95.3 29 95.65 29.59 96 29.85 96.35 30.8 96.7 32.02 97.05 31.38 97.39 30.96 97.74 31.38 98.09 31.86 98.44 32.76 98.79 32.28 99.14 32.55 99.49 32.65 99.84 33.97 100.19 33.66 100.54 33.82 100.89 34.13 101.23 32.92 101.58 32.49 101.93 32.07 102.28 32.44 102.63 33.23 102.98 32.81 103.33 31.49 103.68 30.96 104.03 29.74 104.38 30.17 104.73 29.59 105.08 29.64 105.42 29.16 105.77 27.95 106.12 27.84 106.47 26.52 106.82 27.63 107.17 27.89 107.52 28.32 107.87 28 108.22 28.32 108.57 28.48 108.92 28.85 109.26 29.69 109.61 29.59 109.96 27.52 110.31 27.26 110.66 29 111.01 30.38 111.36 30.17 111.71 31.01 112.06 30.7 112.41 30.64 112.76 30.85 113.11 30.59 113.45 31.12 113.8 30.64 114.15 30.22 114.5 30.33 114.85 30.8 115.2 31.17 115.55 31.75 115.9 31.38 116.25 32.44 116.6 32.44 116.95 33.76 117.3 34.24 117.64 33.34 117.99 33.97 118.34 33.92 118.69 32.71 119.04 33.18 119.39 32.71 119.74 31.6 120.09 30.64 120.44 30.7 120.79 31.23 121.14 31.54 121.48 31.23 121.83 31.49 122.18 30.54 122.53 30.17 122.88 31.28 123.23 30.7 123.58 29.85 123.93 29.96 124.28 30.27 124.63 30.11 124.98 29.22 125.33 29.32 125.67 29 126.02 28.85 126.37 29.37 126.72 29.43 127.07 29.32 127.42 31.44 127.77 32.12 128.12 31.75 128.47 31.33 128.82 31.49 129.17 31.86 129.51 32.12 129.86 31.54 130.21 32.6 130.56 32.23 130.91 31.12 131.26 29.59 131.61 30.43 131.96 29.9 132.31 29.32 132.66 30.11 133.01 30.38 133.36 30.01 133.7 28.79 134.05 29.16 134.4 28.74 134.75 28.74 135.1 28.69 135.45 29.43 135.8 30.48 136.15 30.06 136.5 29.06 136.85 29.48 137.2 28.9 137.55 28.9 137.89 27.58 138.24 26.73 138.59 27.31 138.94 28.69 139.29 29.59 139.64 30.8 139.99 31.23 140.34 32.86 140.69 33.5 141.04 33.45 141.39 33.45 141.73 34.03 142.08 33.55 142.43 33.02 142.78 32.18 143.13 32.23 143.48 33.39 143.83 34.19 144.18 34.08 144.53 35.4 144.88 34.77 145.23 34.98 145.58 34.82 145.92 34.87 146.27 34.98 146.62 35.3 146.97 36.09 147.32 35.61 147.67 36.51 148.02 37.09 148.37 37.04 148.72 35.72 149.07 36.72 149.42 36.94 149.76 36.41 150.11 35.03 150.46 34.35 150.81 34.24 151.16 34.66 151.51 35.51 151.86 35.61 152.21 36.2 152.56 36.57 152.91 37.41 153.26 37.62 153.61 37.62 153.95 36.46 154.3 35.77 154.65 34.93 155 35.19 155.35 35.14 155.7 33.97 156.05 33.39 156.4 32.39 156.75 29.74 157.1 31.01 157.45 31.07 157.79 30.06 158.14 29.96 158.49 28.74 158.84 28.95 159.19 29.32 159.54 28.95 159.89 29.48 160.24 29.8 160.59 28.69 160.94 28.79 161.29 28.53 161.64 27.84 161.98 28.9 162.33 29.22 162.68 30.22 163.03 29.69 163.38 30.33 163.73 30.17 164.08 29.85 164.43 29.27 164.78 28.95 165.13 30.85 165.48 30.54 165.83 32.02 166.17 32.6 166.52 33.18 166.87 33.66 167.22 33.76 167.57 32.97 167.92 32.44 168.27 32.65 168.62 32.49 168.97 33.02 169.32 34.87 169.67 35.24 170.01 34.56 170.36 36.09 170.71 35.46 171.06 33.34 171.41 33.18 171.76 33.45 172.11 34.03 172.46 33.71 172.81 33.92 173.16 33.87 173.51 33.97 173.86 33.39 174.2 32.81 174.55 32.92 174.9 32.39 175.25 32.6 175.6 32.6 175.95 32.55 176.3 32.6 176.65 32.34 177 32.39 177.35 33.45 177.7 33.29 178.04 30.85 178.39 31.17 178.74 31.12 179.09 31.86 179.44 31.97 179.79 31.17 180.14 30.59 180.49 30.06 180.84 29.64 181.19 30.01 181.54 30.06 181.89 30.59 182.23 30.59 182.58 30.75 182.93 30.7 183.28 31.81 183.63 30.27 183.98 29.64 184.33 28.58 184.68 27.89 185.03 29.22 185.38 29.16 185.73 29.32 186.08 29.43 186.42 29.48 186.77 28.69 187.12 28.95 187.47 29.06 187.82 29.06 188.17 30.01 188.52 29.96 188.87 29.8 189.22 30.11 189.57 30.7 189.92 29.96 190.26 29.59 190.61 29.9 190.96 30.01 191.31 32.28 191.66 31.91 192.01 31.86 192.36 32.71 192.71 32.55 193.06 32.34 193.41 32.71 193.76 33.29 194.11 32.97 194.45 34.77 194.8 35.09 195.15 34.87 195.5 34.35 195.85 34.61 196.2 36.25"/>
      </g>
    </g>
  </g>
</g>
  <g class="guide ylabels" font-size="2.82" font-family="'PT Sans Caption','Helvetica Neue','Helvetica',sans-serif" fill="#000000" id="img-eaca77a5-40">
    <text x="18.63" y="54.91" text-anchor="end" dy="0.35em">0</text>
    <text x="18.63" y="44.34" text-anchor="end" dy="0.35em">200</text>
    <text x="18.63" y="33.76" text-anchor="end" dy="0.35em">400</text>
    <text x="18.63" y="23.19" text-anchor="end" dy="0.35em">600</text>
    <text x="18.63" y="12.61" text-anchor="end" dy="0.35em">800</text>
  </g>
  <g font-size="3.88" font-family="'PT Sans','Helvetica Neue','Helvetica',sans-serif" fill="#000000" stroke="#000000" stroke-opacity="0.000" id="img-eaca77a5-41">
    <text x="8.81" y="31.76" text-anchor="middle" dy="0.35em" transform="rotate(-90, 8.81, 33.76)">population size</text>
  </g>
  <g font-size="3.88" font-family="'PT Sans','Helvetica Neue','Helvetica',sans-serif" fill="#000000" stroke="#000000" stroke-opacity="0.000" id="img-eaca77a5-42">
    <text x="108.92" y="5" text-anchor="middle" dy="0.6em">genetic drift with mutationrate  = 0.001 </text>
  </g>
</g>
<defs>
  <clipPath id="img-eaca77a5-8">
  <path d="M18.63,86.81 L 174.03 86.81 174.03 133.11 18.63 133.11" />
</clipPath>
  <clipPath id="img-eaca77a5-24">
  <path d="M19.63,10.61 L 198.2 10.61 198.2 56.91 19.63 56.91" />
</clipPath>
</defs>
</svg>
