<?xml version="1.0" encoding="UTF-8"?>
<svg xmlns="http://www.w3.org/2000/svg"
     xmlns:xlink="http://www.w3.org/1999/xlink"
     xmlns:gadfly="http://www.gadflyjl.org/ns"
     version="1.2"
     width="203.2mm" height="152.4mm" viewBox="0 0 203.2 152.4"
     stroke="none"
     fill="#000000"
     stroke-width="0.3"
     font-size="3.88"
>
<g class="plotroot xscalable yscalable" id="img-85441c21-1">
  <g font-size="3.88" font-family="'PT Sans','Helvetica Neue','Helvetica',sans-serif" fill="#000000" stroke="#000000" stroke-opacity="0.000" id="img-85441c21-2">
    <text x="96.33" y="140.79" text-anchor="middle" dy="0.6em">number of A_type individuals (bin count = 50)</text>
  </g>
  <g class="guide xlabels" font-size="2.82" font-family="'PT Sans Caption','Helvetica Neue','Helvetica',sans-serif" fill="#000000" id="img-85441c21-3">
    <text x="20.63" y="134.11" text-anchor="middle" dy="0.6em">0</text>
    <text x="58.48" y="134.11" text-anchor="middle" dy="0.6em">200</text>
    <text x="96.33" y="134.11" text-anchor="middle" dy="0.6em">400</text>
    <text x="134.18" y="134.11" text-anchor="middle" dy="0.6em">600</text>
    <text x="172.03" y="134.11" text-anchor="middle" dy="0.6em">800</text>
  </g>
  <g class="guide colorkey" id="img-85441c21-4">
    <g fill="#4C404B" font-size="2.82" font-family="'PT Sans','Helvetica Neue','Helvetica',sans-serif" id="img-85441c21-5">
      <text x="177.85" y="109.96" dy="0.35em">histogram</text>
      <text x="177.85" y="113.59" dy="0.35em">theoretical curve</text>
    </g>
    <g stroke="#000000" stroke-opacity="0.000" id="img-85441c21-6">
      <rect x="175.03" y="109.06" width="1.81" height="1.81" fill="#00BFFF"/>
      <rect x="175.03" y="112.68" width="1.81" height="1.81" fill="#FFA500"/>
    </g>
    <g fill="#362A35" font-size="3.88" font-family="'PT Sans','Helvetica Neue','Helvetica',sans-serif" stroke="#000000" stroke-opacity="0.000" id="img-85441c21-7">
      <text x="175.03" y="106.14">Legend</text>
    </g>
  </g>
<g clip-path="url(#img-85441c21-8)">
  <g id="img-85441c21-9">
    <g pointer-events="visible" opacity="1" fill="#FFFFFF" stroke="#000000" stroke-opacity="0.000" class="guide background" id="img-85441c21-10">
      <rect x="18.63" y="86.81" width="155.4" height="46.3"/>
    </g>
    <g class="guide ygridlines xfixed" stroke-dasharray="0.5,0.5" stroke-width="0.2" stroke="#808080" id="img-85441c21-11">
      <path fill="none" d="M18.63,131.11 L 174.03 131.11"/>
      <path fill="none" d="M18.63,117.01 L 174.03 117.01"/>
      <path fill="none" d="M18.63,102.91 L 174.03 102.91"/>
      <path fill="none" d="M18.63,88.81 L 174.03 88.81"/>
    </g>
    <g class="guide xgridlines yfixed" stroke-dasharray="0.5,0.5" stroke-width="0.2" stroke="#808080" id="img-85441c21-12">
      <path fill="none" d="M20.63,86.81 L 20.63 133.11"/>
      <path fill="none" d="M58.48,86.81 L 58.48 133.11"/>
      <path fill="none" d="M96.33,86.81 L 96.33 133.11"/>
      <path fill="none" d="M134.18,86.81 L 134.18 133.11"/>
      <path fill="none" d="M172.03,86.81 L 172.03 133.11"/>
    </g>
    <g class="plotpanel" id="img-85441c21-13">
      <g stroke-width="0.3" fill="#000000" fill-opacity="0.000" class="geometry" stroke-dasharray="none" stroke="#FFA500" id="img-85441c21-14">
        <path fill="none" d="M21.24,122.3 L 21.85 126.69 22.46 128.15 23.06 128.88 23.67 129.32 24.28 129.62 24.89 129.82 25.5 129.98 26.1 130.1 26.71 130.2 27.32 130.28 27.93 130.35 28.54 130.4 29.14 130.45 29.75 130.49 30.36 130.53 30.97 130.56 31.58 130.59 32.18 130.61 32.79 130.64 33.4 130.66 34.01 130.68 34.62 130.69 35.22 130.71 35.83 130.72 36.44 130.74 37.05 130.75 37.66 130.76 38.26 130.77 38.87 130.78 39.48 130.79 40.09 130.8 40.7 130.81 41.3 130.82 41.91 130.82 42.52 130.83 43.13 130.84 43.74 130.84 44.35 130.85 44.95 130.85 45.56 130.86 46.17 130.86 46.78 130.87 47.39 130.87 47.99 130.88 48.6 130.88 49.21 130.88 49.82 130.89 50.43 130.89 51.03 130.9 51.64 130.9 52.25 130.9 52.86 130.9 53.47 130.91 54.07 130.91 54.68 130.91 55.29 130.92 55.9 130.92 56.51 130.92 57.11 130.92 57.72 130.92 58.33 130.93 58.94 130.93 59.55 130.93 60.15 130.93 60.76 130.93 61.37 130.94 61.98 130.94 62.59 130.94 63.19 130.94 63.8 130.94 64.41 130.94 65.02 130.94 65.63 130.95 66.23 130.95 66.84 130.95 67.45 130.95 68.06 130.95 68.67 130.95 69.27 130.95 69.88 130.95 70.49 130.96 71.1 130.96 71.71 130.96 72.31 130.96 72.92 130.96 73.53 130.96 74.14 130.96 74.75 130.96 75.36 130.96 75.96 130.96 76.57 130.96 77.18 130.96 77.79 130.96 78.4 130.97 79 130.97 79.61 130.97 80.22 130.97 80.83 130.97 81.44 130.97 82.04 130.97 82.65 130.97 83.26 130.97 83.87 130.97 84.48 130.97 85.08 130.97 85.69 130.97 86.3 130.97 86.91 130.97 87.52 130.97 88.12 130.97 88.73 130.97 89.34 130.97 89.95 130.97 90.56 130.97 91.16 130.97 91.77 130.97 92.38 130.97 92.99 130.97 93.6 130.97 94.2 130.97 94.81 130.97 95.42 130.97 96.03 130.97 96.64 130.97 97.24 130.97 97.85 130.97 98.46 130.97 99.07 130.97 99.68 130.97 100.28 130.97 100.89 130.97 101.5 130.97 102.11 130.97 102.72 130.97 103.32 130.97 103.93 130.97 104.54 130.97 105.15 130.97 105.76 130.97 106.37 130.97 106.97 130.97 107.58 130.97 108.19 130.97 108.8 130.97 109.41 130.97 110.01 130.97 110.62 130.97 111.23 130.97 111.84 130.97 112.45 130.97 113.05 130.97 113.66 130.97 114.27 130.97 114.88 130.96 115.49 130.96 116.09 130.96 116.7 130.96 117.31 130.96 117.92 130.96 118.53 130.96 119.13 130.96 119.74 130.96 120.35 130.96 120.96 130.96 121.57 130.96 122.17 130.96 122.78 130.95 123.39 130.95 124 130.95 124.61 130.95 125.21 130.95 125.82 130.95 126.43 130.95 127.04 130.95 127.65 130.94 128.25 130.94 128.86 130.94 129.47 130.94 130.08 130.94 130.69 130.94 131.29 130.94 131.9 130.93 132.51 130.93 133.12 130.93 133.73 130.93 134.33 130.93 134.94 130.92 135.55 130.92 136.16 130.92 136.77 130.92 137.38 130.92 137.98 130.91 138.59 130.91 139.2 130.91 139.81 130.9 140.42 130.9 141.02 130.9 141.63 130.9 142.24 130.89 142.85 130.89 143.46 130.88 144.06 130.88 144.67 130.88 145.28 130.87 145.89 130.87 146.5 130.86 147.1 130.86 147.71 130.85 148.32 130.85 148.93 130.84 149.54 130.84 150.14 130.83 150.75 130.82 151.36 130.82 151.97 130.81 152.58 130.8 153.18 130.79 153.79 130.78 154.4 130.77 155.01 130.76 155.62 130.75 156.22 130.74 156.83 130.72 157.44 130.71 158.05 130.69 158.66 130.68 159.26 130.66 159.87 130.64 160.48 130.61 161.09 130.59 161.7 130.56 162.3 130.53 162.91 130.49 163.52 130.45 164.13 130.4 164.74 130.35 165.34 130.28 165.95 130.2 166.56 130.1 167.17 129.98 167.78 129.82 168.39 129.62 168.99 129.32 169.6 128.88 170.21 128.15 170.82 126.69 171.43 122.3"/>
      </g>
      <g stroke-width="0.3" fill="#000000" fill-opacity="0.000" class="geometry" stroke-dasharray="none" stroke="#FFA500" id="img-85441c21-15">
        <path fill="none" d="M21.24,122.3 L 21.85 126.69 22.46 128.15 23.06 128.88 23.67 129.32 24.28 129.62 24.89 129.82 25.5 129.98 26.1 130.1 26.71 130.2 27.32 130.28 27.93 130.35 28.54 130.4 29.14 130.45 29.75 130.49 30.36 130.53 30.97 130.56 31.58 130.59 32.18 130.61 32.79 130.64 33.4 130.66 34.01 130.68 34.62 130.69 35.22 130.71 35.83 130.72 36.44 130.74 37.05 130.75 37.66 130.76 38.26 130.77 38.87 130.78 39.48 130.79 40.09 130.8 40.7 130.81 41.3 130.82 41.91 130.82 42.52 130.83 43.13 130.84 43.74 130.84 44.35 130.85 44.95 130.85 45.56 130.86 46.17 130.86 46.78 130.87 47.39 130.87 47.99 130.88 48.6 130.88 49.21 130.88 49.82 130.89 50.43 130.89 51.03 130.9 51.64 130.9 52.25 130.9 52.86 130.9 53.47 130.91 54.07 130.91 54.68 130.91 55.29 130.92 55.9 130.92 56.51 130.92 57.11 130.92 57.72 130.92 58.33 130.93 58.94 130.93 59.55 130.93 60.15 130.93 60.76 130.93 61.37 130.94 61.98 130.94 62.59 130.94 63.19 130.94 63.8 130.94 64.41 130.94 65.02 130.94 65.63 130.95 66.23 130.95 66.84 130.95 67.45 130.95 68.06 130.95 68.67 130.95 69.27 130.95 69.88 130.95 70.49 130.96 71.1 130.96 71.71 130.96 72.31 130.96 72.92 130.96 73.53 130.96 74.14 130.96 74.75 130.96 75.36 130.96 75.96 130.96 76.57 130.96 77.18 130.96 77.79 130.96 78.4 130.97 79 130.97 79.61 130.97 80.22 130.97 80.83 130.97 81.44 130.97 82.04 130.97 82.65 130.97 83.26 130.97 83.87 130.97 84.48 130.97 85.08 130.97 85.69 130.97 86.3 130.97 86.91 130.97 87.52 130.97 88.12 130.97 88.73 130.97 89.34 130.97 89.95 130.97 90.56 130.97 91.16 130.97 91.77 130.97 92.38 130.97 92.99 130.97 93.6 130.97 94.2 130.97 94.81 130.97 95.42 130.97 96.03 130.97 96.64 130.97 97.24 130.97 97.85 130.97 98.46 130.97 99.07 130.97 99.68 130.97 100.28 130.97 100.89 130.97 101.5 130.97 102.11 130.97 102.72 130.97 103.32 130.97 103.93 130.97 104.54 130.97 105.15 130.97 105.76 130.97 106.37 130.97 106.97 130.97 107.58 130.97 108.19 130.97 108.8 130.97 109.41 130.97 110.01 130.97 110.62 130.97 111.23 130.97 111.84 130.97 112.45 130.97 113.05 130.97 113.66 130.97 114.27 130.97 114.88 130.96 115.49 130.96 116.09 130.96 116.7 130.96 117.31 130.96 117.92 130.96 118.53 130.96 119.13 130.96 119.74 130.96 120.35 130.96 120.96 130.96 121.57 130.96 122.17 130.96 122.78 130.95 123.39 130.95 124 130.95 124.61 130.95 125.21 130.95 125.82 130.95 126.43 130.95 127.04 130.95 127.65 130.94 128.25 130.94 128.86 130.94 129.47 130.94 130.08 130.94 130.69 130.94 131.29 130.94 131.9 130.93 132.51 130.93 133.12 130.93 133.73 130.93 134.33 130.93 134.94 130.92 135.55 130.92 136.16 130.92 136.77 130.92 137.38 130.92 137.98 130.91 138.59 130.91 139.2 130.91 139.81 130.9 140.42 130.9 141.02 130.9 141.63 130.9 142.24 130.89 142.85 130.89 143.46 130.88 144.06 130.88 144.67 130.88 145.28 130.87 145.89 130.87 146.5 130.86 147.1 130.86 147.71 130.85 148.32 130.85 148.93 130.84 149.54 130.84 150.14 130.83 150.75 130.82 151.36 130.82 151.97 130.81 152.58 130.8 153.18 130.79 153.79 130.78 154.4 130.77 155.01 130.76 155.62 130.75 156.22 130.74 156.83 130.72 157.44 130.71 158.05 130.69 158.66 130.68 159.26 130.66 159.87 130.64 160.48 130.61 161.09 130.59 161.7 130.56 162.3 130.53 162.91 130.49 163.52 130.45 164.13 130.4 164.74 130.35 165.34 130.28 165.95 130.2 166.56 130.1 167.17 129.98 167.78 129.82 168.39 129.62 168.99 129.32 169.6 128.88 170.21 128.15 170.82 126.69 171.43 122.3"/>
      </g>
      <g shape-rendering="crispEdges" stroke-width="0.3" id="img-85441c21-16">
        <g stroke="#000000" stroke-opacity="0.000" fill="#00BFFF" class="geometry" id="img-85441c21-17">
          <rect x="20.61" y="117.58" width="3.08" height="13.54"/>
          <rect x="23.63" y="126.6" width="3.08" height="4.51"/>
          <rect x="26.66" y="117.58" width="3.08" height="13.54"/>
          <rect x="29.69" y="131.11" width="3.08" height="0.01"/>
          <rect x="32.72" y="126.6" width="3.08" height="4.51"/>
          <rect x="35.75" y="122.09" width="3.08" height="9.02"/>
          <rect x="38.77" y="122.09" width="3.08" height="9.02"/>
          <rect x="41.8" y="117.58" width="3.08" height="13.54"/>
          <rect x="44.83" y="126.6" width="3.08" height="4.51"/>
          <rect x="47.86" y="131.11" width="3.08" height="0.01"/>
          <rect x="50.89" y="131.11" width="3.08" height="0.01"/>
          <rect x="53.92" y="122.09" width="3.08" height="9.02"/>
          <rect x="56.94" y="113.07" width="3.08" height="18.05"/>
          <rect x="59.97" y="108.55" width="3.08" height="22.56"/>
          <rect x="63" y="122.09" width="3.08" height="9.02"/>
          <rect x="66.03" y="117.58" width="3.08" height="13.54"/>
          <rect x="69.06" y="126.6" width="3.08" height="4.51"/>
          <rect x="72.08" y="113.07" width="3.08" height="18.05"/>
          <rect x="75.11" y="126.6" width="3.08" height="4.51"/>
          <rect x="78.14" y="113.07" width="3.08" height="18.05"/>
          <rect x="81.17" y="126.6" width="3.08" height="4.51"/>
          <rect x="84.2" y="126.6" width="3.08" height="4.51"/>
          <rect x="87.22" y="126.6" width="3.08" height="4.51"/>
          <rect x="90.25" y="122.09" width="3.08" height="9.02"/>
          <rect x="93.28" y="122.09" width="3.08" height="9.02"/>
          <rect x="96.31" y="131.11" width="3.08" height="0.01"/>
          <rect x="99.34" y="126.6" width="3.08" height="4.51"/>
          <rect x="102.36" y="117.58" width="3.08" height="13.54"/>
          <rect x="105.39" y="122.09" width="3.08" height="9.02"/>
          <rect x="108.42" y="122.09" width="3.08" height="9.02"/>
          <rect x="111.45" y="122.09" width="3.08" height="9.02"/>
          <rect x="114.48" y="122.09" width="3.08" height="9.02"/>
          <rect x="117.5" y="117.58" width="3.08" height="13.54"/>
          <rect x="120.53" y="126.6" width="3.08" height="4.51"/>
          <rect x="123.56" y="117.58" width="3.08" height="13.54"/>
          <rect x="126.59" y="126.6" width="3.08" height="4.51"/>
          <rect x="129.62" y="108.55" width="3.08" height="22.56"/>
          <rect x="132.64" y="126.6" width="3.08" height="4.51"/>
          <rect x="135.67" y="131.11" width="3.08" height="0.01"/>
          <rect x="138.7" y="122.09" width="3.08" height="9.02"/>
          <rect x="141.73" y="122.09" width="3.08" height="9.02"/>
          <rect x="144.76" y="126.6" width="3.08" height="4.51"/>
          <rect x="147.78" y="122.09" width="3.08" height="9.02"/>
          <rect x="150.81" y="122.09" width="3.08" height="9.02"/>
          <rect x="153.84" y="126.6" width="3.08" height="4.51"/>
          <rect x="156.87" y="126.6" width="3.08" height="4.51"/>
          <rect x="159.9" y="117.58" width="3.08" height="13.54"/>
          <rect x="162.92" y="126.6" width="3.08" height="4.51"/>
          <rect x="165.95" y="126.6" width="3.08" height="4.51"/>
          <rect x="168.98" y="90.5" width="3.08" height="40.61"/>
        </g>
      </g>
    </g>
  </g>
</g>
  <g class="guide ylabels" font-size="2.82" font-family="'PT Sans Caption','Helvetica Neue','Helvetica',sans-serif" fill="#000000" id="img-85441c21-18">
    <text x="17.63" y="131.11" text-anchor="end" dy="0.35em">0.0</text>
    <text x="17.63" y="117.01" text-anchor="end" dy="0.35em">0.5</text>
    <text x="17.63" y="102.91" text-anchor="end" dy="0.35em">1.0</text>
    <text x="17.63" y="88.81" text-anchor="end" dy="0.35em">1.5</text>
  </g>
  <g font-size="3.88" font-family="'PT Sans','Helvetica Neue','Helvetica',sans-serif" fill="#000000" stroke="#000000" stroke-opacity="0.000" id="img-85441c21-19">
    <text x="8.81" y="107.96" text-anchor="middle" dy="0.35em" transform="rotate(-90, 8.81, 109.96)">density</text>
  </g>
  <g font-size="3.88" font-family="'PT Sans','Helvetica Neue','Helvetica',sans-serif" fill="#000000" stroke="#000000" stroke-opacity="0.000" id="img-85441c21-20">
    <text x="96.33" y="81.2" text-anchor="middle" dy="0.6em">Histogram of population in generation 500</text>
  </g>
</g>
<g class="plotroot xscalable yscalable" id="img-85441c21-21">
  <g font-size="3.88" font-family="'PT Sans','Helvetica Neue','Helvetica',sans-serif" fill="#000000" stroke="#000000" stroke-opacity="0.000" id="img-85441c21-22">
    <text x="108.92" y="64.59" text-anchor="middle" dy="0.6em">generation number</text>
  </g>
  <g class="guide xlabels" font-size="2.82" font-family="'PT Sans Caption','Helvetica Neue','Helvetica',sans-serif" fill="#000000" id="img-85441c21-23">
    <text x="21.63" y="57.91" text-anchor="middle" dy="0.6em">0</text>
    <text x="56.55" y="57.91" text-anchor="middle" dy="0.6em">100</text>
    <text x="91.46" y="57.91" text-anchor="middle" dy="0.6em">200</text>
    <text x="126.37" y="57.91" text-anchor="middle" dy="0.6em">300</text>
    <text x="161.29" y="57.91" text-anchor="middle" dy="0.6em">400</text>
    <text x="196.2" y="57.91" text-anchor="middle" dy="0.6em">500</text>
  </g>
<g clip-path="url(#img-85441c21-24)">
  <g id="img-85441c21-25">
    <g pointer-events="visible" opacity="1" fill="#FFFFFF" stroke="#000000" stroke-opacity="0.000" class="guide background" id="img-85441c21-26">
      <rect x="19.63" y="10.61" width="178.57" height="46.3"/>
    </g>
    <g class="guide ygridlines xfixed" stroke-dasharray="0.5,0.5" stroke-width="0.2" stroke="#808080" id="img-85441c21-27">
      <path fill="none" d="M19.63,54.91 L 198.2 54.91"/>
      <path fill="none" d="M19.63,44.34 L 198.2 44.34"/>
      <path fill="none" d="M19.63,33.76 L 198.2 33.76"/>
      <path fill="none" d="M19.63,23.19 L 198.2 23.19"/>
      <path fill="none" d="M19.63,12.61 L 198.2 12.61"/>
    </g>
    <g class="guide xgridlines yfixed" stroke-dasharray="0.5,0.5" stroke-width="0.2" stroke="#808080" id="img-85441c21-28">
      <path fill="none" d="M21.63,10.61 L 21.63 56.91"/>
      <path fill="none" d="M56.55,10.61 L 56.55 56.91"/>
      <path fill="none" d="M91.46,10.61 L 91.46 56.91"/>
      <path fill="none" d="M126.37,10.61 L 126.37 56.91"/>
      <path fill="none" d="M161.29,10.61 L 161.29 56.91"/>
      <path fill="none" d="M196.2,10.61 L 196.2 56.91"/>
    </g>
    <g class="plotpanel" id="img-85441c21-29">
      <g stroke-width="0.3" fill="#000000" fill-opacity="0.000" class="geometry" stroke-dasharray="none" stroke="#3288BD" id="img-85441c21-30">
        <path fill="none" d="M21.98,33.76 L 22.33 32.81 22.68 31.6 23.03 31.97 23.38 31.54 23.73 32.65 24.08 32.76 24.42 32.55 24.77 32.34 25.12 31.81 25.47 31.23 25.82 32.86 26.17 33.13 26.52 33.02 26.87 33.39 27.22 32.44 27.57 33.87 27.92 33.55 28.27 32.86 28.61 32.71 28.96 33.13 29.31 33.76 29.66 34.24 30.01 34.5 30.36 34.87 30.71 35.72 31.06 36.14 31.41 35.4 31.76 34.93 32.11 35.09 32.45 34.93 32.8 34.29 33.15 34.03 33.5 33.82 33.85 35.19 34.2 35.61 34.55 34.93 34.9 34.56 35.25 34.87 35.6 35.67 35.95 36.09 36.3 36.72 36.64 37.41 36.99 38.84 37.34 38.47 37.69 37.84 38.04 38.05 38.39 37.94 38.74 38.05 39.09 37.2 39.44 36.25 39.79 36.88 40.14 36.72 40.49 38.36 40.83 38.68 41.18 37.84 41.53 36.94 41.88 37.15 42.23 36.35 42.58 37.31 42.93 35.98 43.28 36.14 43.63 35.09 43.98 34.66 44.33 34.93 44.67 34.72 45.02 34.98 45.37 34.56 45.72 35.61 46.07 35.3 46.42 36.14 46.77 37.36 47.12 36.94 47.47 36.88 47.82 37.25 48.17 37.09 48.52 35.93 48.86 35.83 49.21 34.24 49.56 35.09 49.91 34.98 50.26 35.4 50.61 34.77 50.96 33.66 51.31 33.82 51.66 34.4 52.01 33.55 52.36 32.71 52.7 32.39 53.05 33.23 53.4 32.18 53.75 32.34 54.1 31.44 54.45 31.81 54.8 32.28 55.15 33.08 55.5 33.5 55.85 32.92 56.2 33.34 56.55 33.6 56.89 34.56 57.24 34.4 57.59 33.5 57.94 33.76 58.29 33.92 58.64 34.56 58.99 33.6 59.34 32.65 59.69 32.6 60.04 32.12 60.39 31.86 60.73 30.8 61.08 29.96 61.43 29.32 61.78 28.79 62.13 27.05 62.48 27.58 62.83 28.9 63.18 28.79 63.53 28.9 63.88 28.37 64.23 28.26 64.58 28.9 64.92 28.85 65.27 28.74 65.62 29.69 65.97 30.96 66.32 31.86 66.67 31.6 67.02 30.8 67.37 31.12 67.72 31.86 68.07 31.44 68.42 30.75 68.77 30.85 69.11 30.38 69.46 29.37 69.81 29.85 70.16 29.85 70.51 29.9 70.86 30.8 71.21 30.27 71.56 31.23 71.91 32.34 72.26 32.71 72.61 32.97 72.95 32.44 73.3 31.75 73.65 31.75 74 31.75 74.35 33.18 74.7 33.18 75.05 33.23 75.4 31.75 75.75 31.97 76.1 32.28 76.45 31.17 76.8 31.81 77.14 32.92 77.49 33.23 77.84 33.29 78.19 32.71 78.54 32.28 78.89 32.44 79.24 32.12 79.59 33.18 79.94 32.34 80.29 31.7 80.64 31.97 80.98 32.12 81.33 32.97 81.68 33.18 82.03 33.23 82.38 34.35 82.73 33.66 83.08 34.13 83.43 35.19 83.78 35.51 84.13 38.05 84.48 37.2 84.83 36.99 85.17 36.09 85.52 36.04 85.87 35.3 86.22 36.57 86.57 36.78 86.92 36.88 87.27 37.94 87.62 38.21 87.97 39.05 88.32 39.63 88.67 40.32 89.02 39.79 89.36 41.64 89.71 41.22 90.06 41.48 90.41 41.64 90.76 41.64 91.11 42.96 91.46 43.55 91.81 43.6 92.16 43.65 92.51 43.12 92.86 43.49 93.2 43.65 93.55 43.6 93.9 43.44 94.25 43.65 94.6 43.76 94.95 44.07 95.3 43.92 95.65 44.76 96 45.82 96.35 46.93 96.7 47.41 97.05 48.31 97.39 48.09 97.74 48.36 98.09 47.62 98.44 47.09 98.79 47.56 99.14 46.98 99.49 46.03 99.84 46.98 100.19 46.45 100.54 47.67 100.89 48.31 101.23 47.56 101.58 47.62 101.93 48.41 102.28 48.41 102.63 47.19 102.98 47.09 103.33 47.41 103.68 48.25 104.03 48.57 104.38 48.25 104.73 48.62 105.08 48.25 105.42 48.2 105.77 48.25 106.12 48.2 106.47 47.99 106.82 48.62 107.17 47.51 107.52 46.35 107.87 46.08 108.22 46.61 108.57 47.25 108.92 47.3 109.26 45.29 109.61 45.77 109.96 45.5 110.31 45.34 110.66 45.45 111.01 45.13 111.36 44.44 111.71 45.03 112.06 44.18 112.41 45.4 112.76 44.5 113.11 44.55 113.45 43.33 113.8 42.81 114.15 41.59 114.5 42.44 114.85 42.54 115.2 43.18 115.55 43.23 115.9 42.59 116.25 42.75 116.6 41.27 116.95 41.85 117.3 41.38 117.64 41.91 117.99 41.38 118.34 40.64 118.69 40.32 119.04 40.48 119.39 40.27 119.74 38.15 120.09 37.46 120.44 37.41 120.79 36.35 121.14 37.15 121.48 35.56 121.83 35.09 122.18 35.61 122.53 36.09 122.88 35.88 123.23 35.09 123.58 34.56 123.93 35.14 124.28 35.56 124.63 35.51 124.98 36.09 125.33 35.35 125.67 35.93 126.02 35.35 126.37 35.72 126.72 36.57 127.07 35.77 127.42 36.25 127.77 34.19 128.12 34.82 128.47 35.24 128.82 35.3 129.17 36.62 129.51 37.41 129.86 38.47 130.21 38.15 130.56 39.37 130.91 41.06 131.26 42.12 131.61 41.27 131.96 42.01 132.31 41.43 132.66 41.38 133.01 41.75 133.36 41.85 133.7 41.7 134.05 40.32 134.4 41.11 134.75 41.06 135.1 41.01 135.45 41.01 135.8 41.06 136.15 41.59 136.5 42.17 136.85 42.44 137.2 43.18 137.55 44.18 137.89 45.29 138.24 45.08 138.59 45.08 138.94 45.03 139.29 44.92 139.64 44.87 139.99 44.87 140.34 44.66 140.69 44.97 141.04 45.71 141.39 44.92 141.73 44.66 142.08 44.97 142.43 44.71 142.78 44.66 143.13 43.18 143.48 43.02 143.83 43.39 144.18 44.29 144.53 44.02 144.88 43.28 145.23 42.96 145.58 42.12 145.92 42.44 146.27 41.59 146.62 40.27 146.97 40.53 147.32 40.9 147.67 40.16 148.02 40.37 148.37 40.74 148.72 40.8 149.07 40.8 149.42 40 149.76 39.79 150.11 40.37 150.46 41.38 150.81 41.64 151.16 41.59 151.51 41.48 151.86 41.64 152.21 42.54 152.56 42.38 152.91 43.6 153.26 43.55 153.61 43.86 153.95 44.97 154.3 44.76 154.65 45.87 155 45.82 155.35 46.24 155.7 46.61 156.05 45.66 156.4 46.19 156.75 46.93 157.1 46.61 157.45 46.56 157.79 46.98 158.14 46.77 158.49 45.98 158.84 45.61 159.19 46.3 159.54 46.14 159.89 46.61 160.24 46.51 160.59 46.56 160.94 46.35 161.29 46.03 161.64 46.3 161.98 45.24 162.33 44.97 162.68 43.7 163.03 43.6 163.38 43.18 163.73 43.12 164.08 43.07 164.43 42.86 164.78 41.59 165.13 42.65 165.48 42.12 165.83 42.07 166.17 41.17 166.52 40.95 166.87 40.32 167.22 39.79 167.57 38.89 167.92 39.69 168.27 39.53 168.62 40.16 168.97 39.79 169.32 38.26 169.67 40 170.01 40.11 170.36 41.01 170.71 41.38 171.06 41.75 171.41 42.01 171.76 42.54 172.11 43.65 172.46 42.91 172.81 43.23 173.16 43.02 173.51 43.49 173.86 43.97 174.2 44.71 174.55 45.03 174.9 46.98 175.25 47.67 175.6 47.41 175.95 47.41 176.3 47.83 176.65 47.46 177 47.35 177.35 46.98 177.7 46.56 178.04 46.72 178.39 46.14 178.74 46.77 179.09 45.66 179.44 45.87 179.79 45.61 180.14 44.71 180.49 44.97 180.84 46.03 181.19 46.61 181.54 46.08 181.89 45.93 182.23 45.66 182.58 46.08 182.93 46.14 183.28 46.61 183.63 46.51 183.98 47.35 184.33 46.98 184.68 47.62 185.03 47.09 185.38 46.45 185.73 46.51 186.08 46.82 186.42 47.51 186.77 47.25 187.12 47.25 187.47 46.93 187.82 47.35 188.17 46.77 188.52 46.72 188.87 47.62 189.22 47.25 189.57 47.09 189.92 46.88 190.26 47.41 190.61 47.19 190.96 47.56 191.31 47.56 191.66 47.35 192.01 47.78 192.36 47.56 192.71 46.77 193.06 47.04 193.41 47.3 193.76 46.51 194.11 45.5 194.45 44.76 194.8 45.34 195.15 45.24 195.5 45.5 195.85 45.66 196.2 44.55"/>
      </g>
      <g stroke-width="0.3" fill="#000000" fill-opacity="0.000" class="geometry" stroke-dasharray="none" stroke="#66C2A5" id="img-85441c21-31">
        <path fill="none" d="M21.98,33.76 L 22.33 33.5 22.68 32.12 23.03 32.76 23.38 32.34 23.73 32.71 24.08 33.13 24.42 33.18 24.77 33.55 25.12 33.5 25.47 33.6 25.82 33.76 26.17 34.03 26.52 33.97 26.87 32.71 27.22 32.76 27.57 32.81 27.92 33.13 28.27 33.02 28.61 32.76 28.96 33.02 29.31 33.29 29.66 35.3 30.01 35.14 30.36 35.61 30.71 35.67 31.06 35.56 31.41 34.61 31.76 34.03 32.11 33.18 32.45 32.34 32.8 31.33 33.15 32.49 33.5 33.02 33.85 32.86 34.2 34.13 34.55 34.72 34.9 36.3 35.25 37.41 35.6 37.52 35.95 38.05 36.3 38.63 36.64 39 36.99 38.79 37.34 37.73 37.69 36.2 38.04 36.72 38.39 37.46 38.74 37.94 39.09 37.99 39.44 38.84 39.79 38.47 40.14 39.05 40.49 39.1 40.83 38.89 41.18 39 41.53 38.89 41.88 38.1 42.23 37.41 42.58 37.25 42.93 38.42 43.28 39.53 43.63 40.32 43.98 39.79 44.33 40.9 44.67 41.43 45.02 40.85 45.37 40.58 45.72 39.1 46.07 39.58 46.42 39.26 46.77 39.26 47.12 38.52 47.47 39.1 47.82 40.27 48.17 40 48.52 39.05 48.86 38.84 49.21 37.57 49.56 37.84 49.91 37.84 50.26 37.78 50.61 37.68 50.96 38.47 51.31 38.21 51.66 38.21 52.01 38.58 52.36 37.84 52.7 38.68 53.05 38.79 53.4 38.73 53.75 37.2 54.1 36.72 54.45 37.57 54.8 38.31 55.15 37.57 55.5 37.09 55.85 36.51 56.2 36.41 56.55 37.09 56.89 37.04 57.24 36.57 57.59 37.09 57.94 36.78 58.29 36.88 58.64 36.04 58.99 35.51 59.34 35.09 59.69 35.03 60.04 34.66 60.39 34.24 60.73 33.45 61.08 32.76 61.43 33.29 61.78 32.86 62.13 31.81 62.48 30.59 62.83 30.43 63.18 30.64 63.53 30.11 63.88 30.06 64.23 29.32 64.58 29.43 64.92 29.74 65.27 28.63 65.62 28.9 65.97 29 66.32 28.32 66.67 27.68 67.02 28 67.37 28.32 67.72 27.95 68.07 29.06 68.42 28.85 68.77 28.9 69.11 28.48 69.46 28.11 69.81 28.9 70.16 29 70.51 29.53 70.86 29.06 71.21 29.9 71.56 28.53 71.91 28.63 72.26 29.9 72.61 29.27 72.95 28.74 73.3 28.48 73.65 29.48 74 29.22 74.35 28.85 74.7 29.37 75.05 30.85 75.4 30.64 75.75 30.85 76.1 31.33 76.45 31.65 76.8 32.07 77.14 31.6 77.49 32.28 77.84 32.34 78.19 32.34 78.54 32.18 78.89 31.81 79.24 32.28 79.59 32.92 79.94 32.97 80.29 33.55 80.64 33.13 80.98 33.39 81.33 33.55 81.68 32.76 82.03 33.08 82.38 33.97 82.73 34.24 83.08 34.56 83.43 34.29 83.78 33.71 84.13 32.34 84.48 32.71 84.83 32.86 85.17 32.76 85.52 31.97 85.87 33.23 86.22 32.02 86.57 32.6 86.92 32.23 87.27 30.96 87.62 31.07 87.97 30.59 88.32 30.75 88.67 31.17 89.02 31.86 89.36 32.65 89.71 32.28 90.06 32.18 90.41 31.7 90.76 31.97 91.11 30.54 91.46 31.07 91.81 30.64 92.16 31.49 92.51 31.7 92.86 32.76 93.2 33.82 93.55 32.76 93.9 33.39 94.25 32.55 94.6 31.54 94.95 33.02 95.3 32.18 95.65 32.02 96 31.7 96.35 31.86 96.7 32.39 97.05 31.97 97.39 32.12 97.74 31.33 98.09 30.64 98.44 31.17 98.79 31.28 99.14 31.28 99.49 30.59 99.84 29.9 100.19 31.54 100.54 31.91 100.89 33.08 101.23 31.54 101.58 31.07 101.93 30.91 102.28 30.54 102.63 29.64 102.98 29.32 103.33 29.53 103.68 31.49 104.03 31.49 104.38 30.8 104.73 30.91 105.08 30.8 105.42 29.8 105.77 30.33 106.12 30.48 106.47 28.74 106.82 29.27 107.17 29.43 107.52 29.85 107.87 30.17 108.22 30.48 108.57 32.34 108.92 32.07 109.26 31.65 109.61 32.44 109.96 33.18 110.31 33.97 110.66 34.35 111.01 35.3 111.36 35.51 111.71 35.4 112.06 34.77 112.41 33.45 112.76 34.56 113.11 34.66 113.45 33.92 113.8 34.72 114.15 35.14 114.5 34.03 114.85 33.76 115.2 33.13 115.55 32.12 115.9 31.86 116.25 30.38 116.6 32.18 116.95 32.39 117.3 32.55 117.64 31.81 117.99 31.01 118.34 31.44 118.69 30.7 119.04 30.17 119.39 29.37 119.74 29 120.09 27.95 120.44 27.42 120.79 27.36 121.14 26.68 121.48 25.94 121.83 25.57 122.18 27.21 122.53 28 122.88 27.74 123.23 27.74 123.58 28.53 123.93 29 124.28 27.47 124.63 27.74 124.98 28.42 125.33 28.85 125.67 29.96 126.02 29.22 126.37 29.06 126.72 28.74 127.07 29.59 127.42 29.59 127.77 29.9 128.12 28.79 128.47 28.16 128.82 28 129.17 29.37 129.51 30.11 129.86 29.74 130.21 29.53 130.56 29.27 130.91 29.27 131.26 30.27 131.61 31.07 131.96 30.59 132.31 29.74 132.66 30.43 133.01 29.48 133.36 29.06 133.7 28.9 134.05 29.69 134.4 29.9 134.75 29.48 135.1 29.53 135.45 28.32 135.8 27.21 136.15 27.79 136.5 27.58 136.85 26.99 137.2 26.1 137.55 26.47 137.89 26.25 138.24 25.88 138.59 25.41 138.94 24.46 139.29 23.87 139.64 23.82 139.99 22.92 140.34 23.03 140.69 22.24 141.04 21.65 141.39 22.13 141.73 22.76 142.08 23.03 142.43 22.87 142.78 22.02 143.13 22.39 143.48 23.13 143.83 22.82 144.18 21.97 144.53 21.97 144.88 22.92 145.23 23.29 145.58 23.03 145.92 23.13 146.27 21.87 146.62 21.34 146.97 21.81 147.32 23.35 147.67 22.66 148.02 22.08 148.37 21.23 148.72 21.23 149.07 22.13 149.42 21.65 149.76 22.02 150.11 22.87 150.46 23.82 150.81 24.03 151.16 23.4 151.51 22.71 151.86 22.5 152.21 23.4 152.56 24.25 152.91 24.99 153.26 25.14 153.61 25.2 153.95 25.78 154.3 24.77 154.65 24.25 155 25.36 155.35 25.67 155.7 25.83 156.05 25.99 156.4 26.62 156.75 27.15 157.1 25.99 157.45 24.35 157.79 23.61 158.14 24.72 158.49 24.56 158.84 24.51 159.19 24.46 159.54 23.24 159.89 24.03 160.24 23.35 160.59 25.09 160.94 24.51 161.29 24.88 161.64 24.46 161.98 24.88 162.33 24.03 162.68 24.03 163.03 23.24 163.38 23.45 163.73 23.08 164.08 23.4 164.43 23.19 164.78 24.67 165.13 25.57 165.48 26.36 165.83 26.15 166.17 26.36 166.52 26.62 166.87 26.31 167.22 27.95 167.57 28.69 167.92 28.21 168.27 28.9 168.62 28.42 168.97 27.21 169.32 27.79 169.67 27.95 170.01 27.84 170.36 27.21 170.71 27.05 171.06 26.47 171.41 25.78 171.76 25.78 172.11 25.62 172.46 24.83 172.81 23.5 173.16 23.4 173.51 23.5 173.86 23.03 174.2 22.71 174.55 22.98 174.9 22.87 175.25 22.61 175.6 22.18 175.95 22.34 176.3 21.76 176.65 21.71 177 21.65 177.35 21.13 177.7 20.6 178.04 20.49 178.39 19.96 178.74 19.22 179.09 18.22 179.44 17.85 179.79 17.9 180.14 18.69 180.49 18.96 180.84 18.53 181.19 18.69 181.54 18.8 181.89 18.9 182.23 18.9 182.58 18.96 182.93 19.12 183.28 19.75 183.63 19.22 183.98 19.17 184.33 19.64 184.68 19.12 185.03 18.59 185.38 18.53 185.73 18.9 186.08 18.43 186.42 18.32 186.77 18.69 187.12 17.85 187.47 17.95 187.82 18.27 188.17 18.32 188.52 17.58 188.87 17.48 189.22 17.16 189.57 16.95 189.92 17.64 190.26 17.79 190.61 18.9 190.96 18.64 191.31 18.59 191.66 18.01 192.01 18.38 192.36 18.64 192.71 18.43 193.06 19.22 193.41 18.38 193.76 18.01 194.11 18.22 194.45 18.22 194.8 18.06 195.15 18.53 195.5 18.85 195.85 19.22 196.2 19.12"/>
      </g>
      <g stroke-width="0.3" fill="#000000" fill-opacity="0.000" class="geometry" stroke-dasharray="none" stroke="#ABDDA4" id="img-85441c21-32">
        <path fill="none" d="M21.98,33.76 L 22.33 33.66 22.68 32.23 23.03 32.39 23.38 33.13 23.73 34.24 24.08 34.08 24.42 33.76 24.77 33.76 25.12 33.97 25.47 34.29 25.82 34.61 26.17 33.92 26.52 36.2 26.87 36.72 27.22 36.35 27.57 36.72 27.92 37.04 28.27 37.04 28.61 37.09 28.96 37.41 29.31 37.52 29.66 37.94 30.01 38.1 30.36 37.73 30.71 38.1 31.06 38.21 31.41 38.68 31.76 39 32.11 38.05 32.45 38.52 32.8 38.95 33.15 38.58 33.5 40.8 33.85 40.11 34.2 40.16 34.55 38.63 34.9 37.41 35.25 36.67 35.6 36.25 35.95 36.94 36.3 36.99 36.64 37.36 36.99 37.68 37.34 38.05 37.69 37.73 38.04 38.73 38.39 39 38.74 39.63 39.09 39.26 39.44 38.05 39.79 37.94 40.14 38.31 40.49 38.05 40.83 38.63 41.18 39.16 41.53 39.05 41.88 38.63 42.23 40.74 42.58 41.27 42.93 41.17 43.28 41.64 43.63 41.75 43.98 42.59 44.33 43.07 44.67 43.55 45.02 45.08 45.37 45.71 45.72 46.4 46.07 44.92 46.42 44.76 46.77 44.18 47.12 44.87 47.47 45.93 47.82 44.76 48.17 43.86 48.52 44.66 48.86 46.19 49.21 47.19 49.56 47.04 49.91 46.51 50.26 45.61 50.61 45.77 50.96 45.82 51.31 45.4 51.66 45.87 52.01 44.55 52.36 45.13 52.7 43.97 53.05 43.65 53.4 43.49 53.75 43.86 54.1 43.92 54.45 44.5 54.8 43.86 55.15 43.6 55.5 44.18 55.85 43.33 56.2 43.33 56.55 41.91 56.89 41.8 57.24 40.9 57.59 41.48 57.94 42.28 58.29 42.44 58.64 41.7 58.99 42.01 59.34 41.17 59.69 41.17 60.04 40.9 60.39 40.43 60.73 40.69 61.08 39.1 61.43 39.42 61.78 38.95 62.13 38.58 62.48 37.36 62.83 37.2 63.18 36.78 63.53 36.78 63.88 36.04 64.23 36.2 64.58 35.46 64.92 35.83 65.27 36.72 65.62 35.93 65.97 35.77 66.32 35.98 66.67 36.09 67.02 36.51 67.37 37.52 67.72 36.99 68.07 36.57 68.42 36.57 68.77 36.51 69.11 35.77 69.46 34.5 69.81 34.35 70.16 34.98 70.51 35.67 70.86 36.14 71.21 35.35 71.56 35.3 71.91 35.09 72.26 34.66 72.61 34.93 72.95 34.66 73.3 34.98 73.65 34.61 74 36.35 74.35 35.93 74.7 36.67 75.05 35.67 75.4 35.93 75.75 36.62 76.1 36.35 76.45 37.41 76.8 36.78 77.14 36.57 77.49 37.25 77.84 36.51 78.19 37.25 78.54 37.41 78.89 37.46 79.24 36.78 79.59 37.73 79.94 36.51 80.29 35.98 80.64 36.62 80.98 37.2 81.33 37.68 81.68 38.89 82.03 38.52 82.38 37.46 82.73 36.78 83.08 36.83 83.43 36.78 83.78 35.56 84.13 34.35 84.48 34.56 84.83 34.82 85.17 34.4 85.52 33.34 85.87 32.6 86.22 31.17 86.57 31.38 86.92 30.85 87.27 29.69 87.62 29.85 87.97 29.53 88.32 28.79 88.67 29.43 89.02 29.74 89.36 30.54 89.71 29.53 90.06 30.33 90.41 30.64 90.76 31.23 91.11 31.12 91.46 31.23 91.81 32.07 92.16 32.18 92.51 32.44 92.86 31.81 93.2 31.28 93.55 31.81 93.9 30.85 94.25 30.43 94.6 30.54 94.95 29.9 95.3 28.95 95.65 29.16 96 28.48 96.35 28.95 96.7 28.95 97.05 29.16 97.39 28.95 97.74 28.79 98.09 29.32 98.44 29.22 98.79 28.26 99.14 29.06 99.49 29.32 99.84 28.42 100.19 28.37 100.54 27.21 100.89 28.42 101.23 28.58 101.58 28.26 101.93 28 102.28 28.48 102.63 28.9 102.98 28.74 103.33 28.48 103.68 29.37 104.03 29.64 104.38 29.8 104.73 29.96 105.08 29.16 105.42 30.11 105.77 30.48 106.12 30.48 106.47 32.18 106.82 30.96 107.17 32.02 107.52 30.75 107.87 30.59 108.22 29.8 108.57 29.53 108.92 30.33 109.26 30.59 109.61 31.65 109.96 31.07 110.31 30.33 110.66 30.59 111.01 30.75 111.36 30.38 111.71 29.85 112.06 30.22 112.41 31.65 112.76 33.08 113.11 33.66 113.45 34.13 113.8 34.4 114.15 33.55 114.5 33.29 114.85 32.55 115.2 34.45 115.55 35.03 115.9 34.66 116.25 35.35 116.6 36.2 116.95 35.09 117.3 33.71 117.64 33.39 117.99 33.18 118.34 32.71 118.69 33.45 119.04 33.08 119.39 33.6 119.74 33.55 120.09 33.02 120.44 32.6 120.79 32.81 121.14 33.29 121.48 33.92 121.83 33.08 122.18 32.76 122.53 33.18 122.88 31.86 123.23 32.71 123.58 33.66 123.93 34.08 124.28 33.71 124.63 33.71 124.98 33.76 125.33 33.71 125.67 33.45 126.02 33.29 126.37 33.39 126.72 33.34 127.07 32.39 127.42 32.76 127.77 32.65 128.12 32.92 128.47 33.5 128.82 32.44 129.17 32.55 129.51 32.44 129.86 32.18 130.21 32.02 130.56 31.01 130.91 30.27 131.26 29.9 131.61 30.8 131.96 31.6 132.31 32.92 132.66 32.97 133.01 33.71 133.36 33.97 133.7 33.39 134.05 32.44 134.4 32.12 134.75 32.39 135.1 32.71 135.45 32.28 135.8 32.18 136.15 32.07 136.5 30.8 136.85 31.23 137.2 31.91 137.55 32.49 137.89 32.28 138.24 32.49 138.59 32.76 138.94 33.13 139.29 33.39 139.64 32.86 139.99 33.23 140.34 33.55 140.69 32.44 141.04 33.18 141.39 32.97 141.73 32.92 142.08 32.28 142.43 32.07 142.78 32.6 143.13 31.65 143.48 32.71 143.83 32.28 144.18 33.18 144.53 33.66 144.88 33.45 145.23 32.6 145.58 31.7 145.92 31.6 146.27 31.17 146.62 31.54 146.97 30.48 147.32 31.12 147.67 32.86 148.02 32.49 148.37 33.08 148.72 32.49 149.07 32.97 149.42 32.23 149.76 31.38 150.11 32.39 150.46 32.23 150.81 33.08 151.16 31.81 151.51 32.28 151.86 32.44 152.21 32.49 152.56 32.65 152.91 33.87 153.26 35.03 153.61 35.72 153.95 35.61 154.3 35.14 154.65 35.24 155 35.24 155.35 34.98 155.7 35.24 156.05 34.82 156.4 34.13 156.75 32.92 157.1 33.23 157.45 32.6 157.79 32.39 158.14 31.65 158.49 32.02 158.84 31.17 159.19 31.65 159.54 32.49 159.89 33.18 160.24 33.71 160.59 32.76 160.94 32.39 161.29 32.28 161.64 32.34 161.98 33.34 162.33 32.97 162.68 33.55 163.03 33.29 163.38 34.03 163.73 33.87 164.08 34.24 164.43 33.97 164.78 34.77 165.13 34.19 165.48 33.76 165.83 33.45 166.17 33.39 166.52 32.86 166.87 33.18 167.22 33.55 167.57 33.6 167.92 33.39 168.27 32.23 168.62 31.44 168.97 31.54 169.32 32.6 169.67 32.86 170.01 32.65 170.36 33.39 170.71 33.45 171.06 34.19 171.41 34.29 171.76 33.76 172.11 33.02 172.46 33.08 172.81 32.39 173.16 31.28 173.51 30.27 173.86 30.64 174.2 31.17 174.55 31.54 174.9 30.96 175.25 30.48 175.6 30.64 175.95 30.91 176.3 29.9 176.65 30.27 177 29.8 177.35 29 177.7 29.22 178.04 29.22 178.39 28.63 178.74 29.06 179.09 30.01 179.44 30.22 179.79 29.8 180.14 28.26 180.49 28.74 180.84 29.9 181.19 30.27 181.54 30.7 181.89 30.43 182.23 29.69 182.58 29 182.93 29 183.28 30.43 183.63 30.11 183.98 28.85 184.33 28.48 184.68 28.58 185.03 30.27 185.38 30.06 185.73 29.85 186.08 30.48 186.42 30.01 186.77 31.65 187.12 31.44 187.47 32.12 187.82 33.39 188.17 33.34 188.52 33.82 188.87 34.29 189.22 34.03 189.57 33.29 189.92 33.82 190.26 33.97 190.61 34.5 190.96 33.71 191.31 33.66 191.66 33.71 192.01 34.08 192.36 33.6 192.71 35.35 193.06 36.14 193.41 34.98 193.76 36.04 194.11 36.14 194.45 36.67 194.8 36.57 195.15 35.61 195.5 36.04 195.85 36.2 196.2 36.57"/>
      </g>
      <g stroke-width="0.3" fill="#000000" fill-opacity="0.000" class="geometry" stroke-dasharray="none" stroke="#E6F598" id="img-85441c21-33">
        <path fill="none" d="M21.98,33.76 L 22.33 33.97 22.68 34.13 23.03 33.71 23.38 33.97 23.73 34.98 24.08 34.66 24.42 34.08 24.77 33.66 25.12 32.28 25.47 32.23 25.82 31.49 26.17 30.85 26.52 30.48 26.87 31.23 27.22 29.43 27.57 29.9 27.92 30.43 28.27 31.12 28.61 30.48 28.96 30.27 29.31 30.27 29.66 29.9 30.01 29.53 30.36 29.59 30.71 30.75 31.06 30.22 31.41 31.97 31.76 31.75 32.11 31.07 32.45 30.8 32.8 30.85 33.15 30.8 33.5 30.8 33.85 31.44 34.2 32.18 34.55 32.07 34.9 32.39 35.25 32.92 35.6 33.08 35.95 34.13 36.3 34.13 36.64 34.66 36.99 34.98 37.34 33.6 37.69 33.5 38.04 32.71 38.39 32.02 38.74 32.6 39.09 31.81 39.44 30.75 39.79 30.96 40.14 31.12 40.49 29.9 40.83 29.9 41.18 30.06 41.53 30.43 41.88 31.17 42.23 30.38 42.58 30.22 42.93 29.8 43.28 30.8 43.63 31.28 43.98 30.64 44.33 31.7 44.67 30.8 45.02 30.8 45.37 31.54 45.72 32.39 46.07 31.33 46.42 31.6 46.77 32.81 47.12 32.07 47.47 32.12 47.82 30.85 48.17 32.18 48.52 32.02 48.86 31.44 49.21 31.86 49.56 32.02 49.91 32.39 50.26 32.34 50.61 32.07 50.96 32.44 51.31 33.55 51.66 32.65 52.01 32.97 52.36 31.97 52.7 31.97 53.05 32.07 53.4 31.86 53.75 32.18 54.1 31.6 54.45 32.39 54.8 32.23 55.15 31.6 55.5 32.02 55.85 33.08 56.2 33.13 56.55 33.08 56.89 33.55 57.24 34.87 57.59 36.62 57.94 35.61 58.29 36.41 58.64 35.67 58.99 35.98 59.34 36.25 59.69 37.52 60.04 37.68 60.39 39.47 60.73 39.74 61.08 39.63 61.43 39.79 61.78 40.48 62.13 41.59 62.48 40.74 62.83 40.37 63.18 40.37 63.53 39.9 63.88 39.42 64.23 39.63 64.58 39.69 64.92 39.37 65.27 39.42 65.62 39.74 65.97 38.79 66.32 39.21 66.67 40.32 67.02 40.53 67.37 40.37 67.72 39.69 68.07 39.32 68.42 38.79 68.77 38.63 69.11 39.16 69.46 39.74 69.81 39.69 70.16 39.32 70.51 39.84 70.86 40.21 71.21 41.38 71.56 41.33 71.91 41.43 72.26 41.75 72.61 41.48 72.95 40.95 73.3 41.22 73.65 40.85 74 40.27 74.35 41.54 74.7 42.17 75.05 42.12 75.4 42.75 75.75 43.23 76.1 44.23 76.45 44.44 76.8 43.7 77.14 43.6 77.49 43.44 77.84 43.28 78.19 42.59 78.54 42.01 78.89 41.96 79.24 40.95 79.59 39.26 79.94 39.16 80.29 38.52 80.64 38.1 80.98 37.89 81.33 38.15 81.68 39.74 82.03 40.95 82.38 41.11 82.73 41.48 83.08 41.75 83.43 41.54 83.78 42.81 84.13 43.02 84.48 43.44 84.83 41.75 85.17 42.22 85.52 42.54 85.87 42.28 86.22 40.58 86.57 41.17 86.92 41.54 87.27 40.64 87.62 41.54 87.97 42.65 88.32 43.65 88.67 43.49 89.02 43.28 89.36 42.81 89.71 42.33 90.06 42.86 90.41 41.59 90.76 41.06 91.11 40.48 91.46 40.9 91.81 40.69 92.16 40.06 92.51 39.69 92.86 39.58 93.2 39.05 93.55 40.16 93.9 39.26 94.25 38.79 94.6 39.74 94.95 41.38 95.3 41.64 95.65 41.75 96 41.8 96.35 41.22 96.7 41.17 97.05 41.54 97.39 40.69 97.74 40.27 98.09 40.53 98.44 40.16 98.79 41.96 99.14 41.8 99.49 41.96 99.84 41.11 100.19 42.38 100.54 43.28 100.89 43.12 101.23 43.76 101.58 44.76 101.93 44.13 102.28 42.91 102.63 44.02 102.98 43.55 103.33 44.18 103.68 43.44 104.03 43.28 104.38 43.02 104.73 43.18 105.08 43.33 105.42 43.7 105.77 42.49 106.12 42.49 106.47 42.49 106.82 41.91 107.17 40.69 107.52 39.58 107.87 39.42 108.22 39.47 108.57 39.9 108.92 38.84 109.26 38.36 109.61 37.84 109.96 38.79 110.31 39.1 110.66 39.58 111.01 38.31 111.36 37.2 111.71 36.62 112.06 36.88 112.41 36.3 112.76 36.72 113.11 37.09 113.45 36.88 113.8 35.61 114.15 34.87 114.5 34.13 114.85 32.97 115.2 32.28 115.55 33.18 115.9 33.02 116.25 34.35 116.6 34.13 116.95 34.03 117.3 33.13 117.64 33.18 117.99 31.91 118.34 32.81 118.69 33.92 119.04 34.08 119.39 34.5 119.74 35.03 120.09 35.09 120.44 34.45 120.79 34.45 121.14 35.61 121.48 36.78 121.83 36.99 122.18 36.46 122.53 35.67 122.88 35.72 123.23 35.67 123.58 35.88 123.93 35.3 124.28 35.56 124.63 36.2 124.98 37.31 125.33 37.89 125.67 37.57 126.02 36.99 126.37 36.2 126.72 38.31 127.07 39.53 127.42 38.63 127.77 38.63 128.12 38.15 128.47 39.63 128.82 40.06 129.17 40.58 129.51 40.85 129.86 40.32 130.21 40.06 130.56 41.06 130.91 40.85 131.26 40 131.61 41.27 131.96 43.02 132.31 42.07 132.66 41.38 133.01 41.96 133.36 42.33 133.7 43.65 134.05 42.75 134.4 42.81 134.75 42.65 135.1 43.07 135.45 43.23 135.8 43.6 136.15 45.19 136.5 44.6 136.85 45.4 137.2 45.56 137.55 46.51 137.89 45.98 138.24 45.71 138.59 46.03 138.94 46.19 139.29 46.19 139.64 45.98 139.99 46.08 140.34 45.56 140.69 44.97 141.04 44.92 141.39 44.55 141.73 45.03 142.08 45.24 142.43 44.29 142.78 44.07 143.13 43.39 143.48 43.12 143.83 42.38 144.18 41.85 144.53 42.33 144.88 42.33 145.23 41.75 145.58 41.54 145.92 42.33 146.27 41.85 146.62 41.48 146.97 40.21 147.32 39.1 147.67 39.26 148.02 39.63 148.37 39.32 148.72 39.69 149.07 39.42 149.42 39.47 149.76 38.15 150.11 37.09 150.46 34.93 150.81 35.19 151.16 35.24 151.51 35.4 151.86 35.83 152.21 35.46 152.56 37.09 152.91 36.67 153.26 36.14 153.61 36.51 153.95 34.77 154.3 34.45 154.65 34.87 155 34.93 155.35 34.66 155.7 34.29 156.05 34.87 156.4 34.98 156.75 35.35 157.1 35.3 157.45 35.24 157.79 34.66 158.14 32.49 158.49 32.02 158.84 33.08 159.19 33.87 159.54 32.49 159.89 31.91 160.24 31.28 160.59 30.43 160.94 30.59 161.29 29.43 161.64 28.69 161.98 28.16 162.33 28.37 162.68 27.63 163.03 27.79 163.38 28.53 163.73 29.11 164.08 29.06 164.43 29 164.78 27.26 165.13 26.89 165.48 27.79 165.83 28.37 166.17 28.37 166.52 27.26 166.87 26.84 167.22 25.99 167.57 25.94 167.92 25.88 168.27 25.3 168.62 26.04 168.97 25.46 169.32 26.57 169.67 27.42 170.01 27.74 170.36 28.11 170.71 27.1 171.06 26.89 171.41 25.67 171.76 26.41 172.11 25.83 172.46 25.62 172.81 25.73 173.16 25.2 173.51 23.93 173.86 23.82 174.2 23.82 174.55 23.29 174.9 23.4 175.25 23.35 175.6 23.4 175.95 22.87 176.3 22.18 176.65 21.28 177 20.81 177.35 19.33 177.7 19.22 178.04 18.69 178.39 17.58 178.74 17.58 179.09 18.06 179.44 17.21 179.79 16.89 180.14 16.52 180.49 16.58 180.84 17.48 181.19 18.16 181.54 18.8 181.89 18.96 182.23 18.38 182.58 18.69 182.93 18.9 183.28 18.43 183.63 18.27 183.98 18.9 184.33 19.01 184.68 19.27 185.03 20.28 185.38 20.6 185.73 20.65 186.08 20.91 186.42 20.97 186.77 21.44 187.12 21.55 187.47 21.39 187.82 21.55 188.17 22.66 188.52 23.08 188.87 24.25 189.22 23.61 189.57 23.24 189.92 24.51 190.26 24.14 190.61 24.4 190.96 24.25 191.31 24.09 191.66 25.67 192.01 26.25 192.36 25.51 192.71 25.94 193.06 25.62 193.41 25.94 193.76 25.04 194.11 25.94 194.45 26.52 194.8 26.15 195.15 26.62 195.5 26.41 195.85 26.2 196.2 26.47"/>
      </g>
      <g stroke-width="0.3" fill="#000000" fill-opacity="0.000" class="geometry" stroke-dasharray="none" stroke="#FFFFBF" id="img-85441c21-34">
        <path fill="none" d="M21.98,33.76 L 22.33 33.97 22.68 33.92 23.03 34.08 23.38 32.65 23.73 32.34 24.08 32.28 24.42 33.97 24.77 33.5 25.12 33.45 25.47 34.98 25.82 35.77 26.17 35.03 26.52 33.08 26.87 32.97 27.22 31.7 27.57 31.28 27.92 30.06 28.27 29.22 28.61 29.43 28.96 28.69 29.31 27.42 29.66 29.06 30.01 28.69 30.36 28.58 30.71 28.48 31.06 28.42 31.41 27.74 31.76 27.68 32.11 27.1 32.45 27.42 32.8 27.89 33.15 28 33.5 27.63 33.85 26.84 34.2 27.47 34.55 26.1 34.9 25.73 35.25 25.04 35.6 25.94 35.95 26.2 36.3 26.36 36.64 24.93 36.99 24.14 37.34 22.98 37.69 23.77 38.04 23.08 38.39 23.08 38.74 23.98 39.09 24.09 39.44 24.62 39.79 24.51 40.14 23.35 40.49 23.72 40.83 24.3 41.18 23.45 41.53 23.87 41.88 25.14 42.23 24.67 42.58 23.87 42.93 24.19 43.28 23.5 43.63 23.5 43.98 24.03 44.33 24.67 44.67 24.62 45.02 24.62 45.37 24.88 45.72 23.66 46.07 22.87 46.42 22.39 46.77 21.02 47.12 21.76 47.47 21.34 47.82 22.45 48.17 22.39 48.52 21.76 48.86 22.45 49.21 22.82 49.56 22.45 49.91 21.44 50.26 22.08 50.61 21.6 50.96 21.71 51.31 21.39 51.66 20.86 52.01 20.76 52.36 20.07 52.7 19.33 53.05 19.64 53.4 19.96 53.75 19.7 54.1 19.91 54.45 19.38 54.8 20.38 55.15 19.96 55.5 19.01 55.85 19.17 56.2 19.8 56.55 18.43 56.89 17.53 57.24 17.16 57.59 17.53 57.94 16.84 58.29 15.78 58.64 15.68 58.99 15.84 59.34 16 59.69 17.05 60.04 16.42 60.39 16.05 60.73 16.1 61.08 15.47 61.43 15.63 61.78 15.89 62.13 15.63 62.48 15.52 62.83 14.83 63.18 14.62 63.53 14.83 63.88 15.26 64.23 14.99 64.58 14.46 64.92 14.3 65.27 13.78 65.62 13.4 65.97 13.78 66.32 13.88 66.67 13.88 67.02 14.09 67.37 13.62 67.72 13.46 68.07 13.51 68.42 13.56 68.77 13.93 69.11 13.67 69.46 13.99 69.81 13.35 70.16 13.62 70.51 13.56 70.86 13.67 71.21 13.88 71.56 13.78 71.91 13.78 72.26 13.88 72.61 14.46 72.95 14.36 73.3 14.46 73.65 13.93 74 13.99 74.35 14.04 74.7 14.15 75.05 13.99 75.4 13.88 75.75 13.19 76.1 13.51 76.45 13.46 76.8 13.67 77.14 14.15 77.49 14.41 77.84 14.04 78.19 14.15 78.54 13.99 78.89 14.41 79.24 13.93 79.59 14.04 79.94 13.78 80.29 13.51 80.64 13.35 80.98 13.99 81.33 13.46 81.68 13.51 82.03 13.56 82.38 13.4 82.73 12.98 83.08 13.3 83.43 13.09 83.78 12.88 84.13 12.77 84.48 13.03 84.83 12.88 85.17 12.77 85.52 12.82 85.87 12.72 86.22 12.66 86.57 12.61 86.92 12.61 87.27 12.61 87.62 12.61 87.97 12.66 88.32 12.72 88.67 12.93 89.02 12.72 89.36 12.77 89.71 12.88 90.06 12.72 90.41 12.72 90.76 12.82 91.11 12.82 91.46 12.72 91.81 12.72 92.16 12.72 92.51 12.66 92.86 12.66 93.2 12.66 93.55 12.61 93.9 12.61 94.25 12.61 94.6 12.61 94.95 12.61 95.3 12.61 95.65 12.61 96 12.61 96.35 12.61 96.7 12.61 97.05 12.61 97.39 12.61 97.74 12.61 98.09 12.61 98.44 12.61 98.79 12.61 99.14 12.61 99.49 12.61 99.84 12.61 100.19 12.61 100.54 12.61 100.89 12.61 101.23 12.61 101.58 12.61 101.93 12.61 102.28 12.61 102.63 12.61 102.98 12.61 103.33 12.61 103.68 12.61 104.03 12.61 104.38 12.61 104.73 12.61 105.08 12.61 105.42 12.61 105.77 12.61 106.12 12.61 106.47 12.61 106.82 12.61 107.17 12.61 107.52 12.61 107.87 12.61 108.22 12.61 108.57 12.61 108.92 12.61 109.26 12.61 109.61 12.61 109.96 12.61 110.31 12.61 110.66 12.61 111.01 12.61 111.36 12.61 111.71 12.61 112.06 12.61 112.41 12.61 112.76 12.61 113.11 12.61 113.45 12.61 113.8 12.61 114.15 12.61 114.5 12.61 114.85 12.61 115.2 12.61 115.55 12.61 115.9 12.61 116.25 12.61 116.6 12.61 116.95 12.61 117.3 12.61 117.64 12.61 117.99 12.61 118.34 12.66 118.69 12.61 119.04 12.61 119.39 12.61 119.74 12.61 120.09 12.61 120.44 12.61 120.79 12.61 121.14 12.61 121.48 12.61 121.83 12.61 122.18 12.61 122.53 12.61 122.88 12.61 123.23 12.61 123.58 12.61 123.93 12.61 124.28 12.61 124.63 12.61 124.98 12.61 125.33 12.61 125.67 12.61 126.02 12.61 126.37 12.61 126.72 12.61 127.07 12.61 127.42 12.61 127.77 12.61 128.12 12.61 128.47 12.61 128.82 12.61 129.17 12.61 129.51 12.61 129.86 12.61 130.21 12.61 130.56 12.61 130.91 12.61 131.26 12.61 131.61 12.61 131.96 12.66 132.31 12.77 132.66 12.61 133.01 12.61 133.36 12.61 133.7 12.61 134.05 12.61 134.4 12.61 134.75 12.61 135.1 12.61 135.45 12.61 135.8 12.61 136.15 12.61 136.5 12.61 136.85 12.61 137.2 12.61 137.55 12.61 137.89 12.61 138.24 12.61 138.59 12.61 138.94 12.61 139.29 12.61 139.64 12.61 139.99 12.61 140.34 12.72 140.69 12.77 141.04 12.61 141.39 12.61 141.73 12.61 142.08 12.61 142.43 12.61 142.78 12.61 143.13 12.61 143.48 12.61 143.83 12.61 144.18 12.61 144.53 12.61 144.88 12.61 145.23 12.61 145.58 12.61 145.92 12.61 146.27 12.61 146.62 12.61 146.97 12.61 147.32 12.61 147.67 12.61 148.02 12.61 148.37 12.61 148.72 12.61 149.07 12.61 149.42 12.61 149.76 12.61 150.11 12.61 150.46 12.61 150.81 12.61 151.16 12.61 151.51 12.61 151.86 12.61 152.21 12.61 152.56 12.61 152.91 12.61 153.26 12.61 153.61 12.72 153.95 12.66 154.3 12.61 154.65 12.61 155 12.61 155.35 12.61 155.7 12.61 156.05 12.61 156.4 12.61 156.75 12.61 157.1 12.61 157.45 12.61 157.79 12.61 158.14 12.61 158.49 12.61 158.84 12.61 159.19 12.61 159.54 12.61 159.89 12.61 160.24 12.61 160.59 12.66 160.94 12.66 161.29 12.66 161.64 12.66 161.98 12.66 162.33 12.66 162.68 12.61 163.03 12.61 163.38 12.61 163.73 12.61 164.08 12.61 164.43 12.61 164.78 12.61 165.13 12.61 165.48 12.61 165.83 12.77 166.17 12.82 166.52 12.88 166.87 13.03 167.22 12.93 167.57 12.88 167.92 12.98 168.27 13.03 168.62 12.98 168.97 12.77 169.32 12.88 169.67 12.72 170.01 12.77 170.36 12.66 170.71 12.66 171.06 12.61 171.41 12.72 171.76 12.82 172.11 12.72 172.46 12.66 172.81 12.72 173.16 12.66 173.51 12.72 173.86 12.72 174.2 12.66 174.55 12.72 174.9 12.72 175.25 12.72 175.6 12.72 175.95 12.72 176.3 12.66 176.65 12.61 177 12.61 177.35 12.61 177.7 12.61 178.04 12.61 178.39 12.61 178.74 12.61 179.09 12.61 179.44 12.61 179.79 12.61 180.14 12.61 180.49 12.61 180.84 12.61 181.19 12.61 181.54 12.66 181.89 12.66 182.23 12.61 182.58 12.61 182.93 12.61 183.28 12.61 183.63 12.61 183.98 12.61 184.33 12.61 184.68 12.66 185.03 12.66 185.38 12.77 185.73 12.82 186.08 12.77 186.42 12.82 186.77 12.72 187.12 12.72 187.47 12.66 187.82 12.66 188.17 12.61 188.52 12.61 188.87 12.61 189.22 12.61 189.57 12.61 189.92 12.61 190.26 12.61 190.61 12.61 190.96 12.61 191.31 12.61 191.66 12.61 192.01 12.61 192.36 12.61 192.71 12.61 193.06 12.61 193.41 12.61 193.76 12.61 194.11 12.61 194.45 12.61 194.8 12.61 195.15 12.61 195.5 12.61 195.85 12.61 196.2 12.61"/>
      </g>
      <g stroke-width="0.3" fill="#000000" fill-opacity="0.000" class="geometry" stroke-dasharray="none" stroke="#FEE08B" id="img-85441c21-35">
        <path fill="none" d="M21.98,33.76 L 22.33 33.97 22.68 33.92 23.03 35.19 23.38 35.19 23.73 35.09 24.08 35.98 24.42 36.3 24.77 36.25 25.12 35.56 25.47 34.29 25.82 34.61 26.17 35.19 26.52 35.35 26.87 36.67 27.22 36.57 27.57 36.83 27.92 37.25 28.27 36.51 28.61 36.83 28.96 35.77 29.31 34.56 29.66 34.13 30.01 34.45 30.36 34.61 30.71 33.6 31.06 34.13 31.41 33.02 31.76 33.34 32.11 33.76 32.45 35.14 32.8 35.77 33.15 36.3 33.5 36.35 33.85 35.35 34.2 35.67 34.55 36.09 34.9 34.82 35.25 35.24 35.6 35.51 35.95 34.72 36.3 34.19 36.64 34.35 36.99 34.5 37.34 34.5 37.69 33.55 38.04 33.6 38.39 33.76 38.74 34.08 39.09 32.92 39.44 33.76 39.79 33.66 40.14 32.97 40.49 33.02 40.83 32.97 41.18 32.71 41.53 33.18 41.88 32.6 42.23 34.19 42.58 33.92 42.93 33.23 43.28 32.81 43.63 30.7 43.98 30.75 44.33 30.85 44.67 29.69 45.02 29 45.37 29 45.72 29.43 46.07 29.96 46.42 30.7 46.77 30.11 47.12 29.53 47.47 28.11 47.82 28.05 48.17 26.62 48.52 26.31 48.86 26.36 49.21 26.25 49.56 25.78 49.91 25.62 50.26 26.78 50.61 27.95 50.96 27.1 51.31 27.47 51.66 28.85 52.01 29.27 52.36 29.06 52.7 28.16 53.05 28.58 53.4 28.63 53.75 28.53 54.1 27.26 54.45 27.52 54.8 27.95 55.15 28.53 55.5 28 55.85 26.36 56.2 25.46 56.55 26.1 56.89 26.47 57.24 26.15 57.59 26.99 57.94 26.94 58.29 26.78 58.64 26.2 58.99 27.05 59.34 26.25 59.69 24.99 60.04 24.3 60.39 24.99 60.73 25.2 61.08 25.73 61.43 25.41 61.78 26.94 62.13 26.94 62.48 27.52 62.83 26.41 63.18 27.31 63.53 27.05 63.88 26.57 64.23 27.52 64.58 26.78 64.92 26.2 65.27 25.94 65.62 26.47 65.97 26.84 66.32 26.41 66.67 27.31 67.02 27.58 67.37 28.85 67.72 28.53 68.07 27.68 68.42 28.32 68.77 27.89 69.11 26.62 69.46 26.2 69.81 25.36 70.16 26.15 70.51 26.99 70.86 27.36 71.21 26.94 71.56 26.41 71.91 26.62 72.26 25.99 72.61 25.88 72.95 25.51 73.3 25.2 73.65 26.99 74 26.47 74.35 25.73 74.7 26.25 75.05 26.15 75.4 25.88 75.75 26.25 76.1 25.73 76.45 25.88 76.8 25.88 77.14 26.1 77.49 26.15 77.84 26.2 78.19 26.25 78.54 26.99 78.89 27.05 79.24 27.05 79.59 25.73 79.94 25.83 80.29 26.31 80.64 25.94 80.98 25.88 81.33 25.46 81.68 24.67 82.03 23.82 82.38 23.45 82.73 23.24 83.08 22.98 83.43 23.24 83.78 22.29 84.13 21.87 84.48 22.24 84.83 22.66 85.17 22.55 85.52 22.92 85.87 23.24 86.22 22.87 86.57 23.35 86.92 24.03 87.27 24.46 87.62 24.99 87.97 24.09 88.32 24.3 88.67 24.88 89.02 25.2 89.36 24.99 89.71 24.46 90.06 26.2 90.41 26.47 90.76 25.41 91.11 25.04 91.46 25.09 91.81 25.46 92.16 24.83 92.51 24.09 92.86 24.19 93.2 24.72 93.55 25.78 93.9 25.73 94.25 26.2 94.6 25.36 94.95 26.68 95.3 26.94 95.65 27.79 96 27.84 96.35 27.95 96.7 28.16 97.05 29.32 97.39 29.9 97.74 31.38 98.09 31.38 98.44 30.7 98.79 30.11 99.14 30.17 99.49 31.49 99.84 32.86 100.19 34.45 100.54 35.03 100.89 35.14 101.23 35.61 101.58 36.46 101.93 37.09 102.28 37.46 102.63 37.36 102.98 36.78 103.33 35.88 103.68 36.25 104.03 37.94 104.38 37.2 104.73 37.41 105.08 35.67 105.42 35.83 105.77 35.35 106.12 33.92 106.47 33.66 106.82 34.13 107.17 34.08 107.52 34.24 107.87 34.66 108.22 34.93 108.57 34.56 108.92 34.19 109.26 34.5 109.61 33.71 109.96 34.35 110.31 33.82 110.66 34.24 111.01 35.3 111.36 35.56 111.71 36.14 112.06 36.67 112.41 36.67 112.76 37.25 113.11 36.46 113.45 36.72 113.8 36.3 114.15 36.2 114.5 35.72 114.85 35.88 115.2 35.67 115.55 35.83 115.9 36.41 116.25 36.72 116.6 37.09 116.95 38.15 117.3 38.63 117.64 40.37 117.99 40.53 118.34 39.47 118.69 38.79 119.04 38.73 119.39 38.31 119.74 37.89 120.09 39.16 120.44 38.58 120.79 39.16 121.14 38.89 121.48 39.58 121.83 40.16 122.18 39.84 122.53 39.53 122.88 39.95 123.23 40.16 123.58 40.74 123.93 40.32 124.28 40.32 124.63 39.21 124.98 40.11 125.33 41.11 125.67 40.53 126.02 40.16 126.37 40.27 126.72 40.16 127.07 40.58 127.42 40.06 127.77 40.43 128.12 40.11 128.47 41.06 128.82 41.48 129.17 41.06 129.51 42.12 129.86 42.12 130.21 41.06 130.56 41.11 130.91 40.64 131.26 40.95 131.61 40.85 131.96 40.64 132.31 41.01 132.66 40.9 133.01 40 133.36 40 133.7 39.84 134.05 39.53 134.4 39.53 134.75 39.74 135.1 40.74 135.45 40.64 135.8 39.95 136.15 40.27 136.5 39 136.85 39.63 137.2 39.63 137.55 39.9 137.89 41.11 138.24 41.06 138.59 40.8 138.94 41.64 139.29 40.37 139.64 39.58 139.99 39.42 140.34 39.79 140.69 38.73 141.04 39.05 141.39 39.26 141.73 39.79 142.08 39.74 142.43 39.32 142.78 39.16 143.13 38.58 143.48 37.25 143.83 35.61 144.18 37.15 144.53 37.57 144.88 37.15 145.23 36.51 145.58 36.35 145.92 36.51 146.27 35.51 146.62 36.99 146.97 37.09 147.32 36.25 147.67 36.25 148.02 35.61 148.37 35.93 148.72 34.72 149.07 34.98 149.42 35.35 149.76 35.51 150.11 35.67 150.46 35.03 150.81 34.61 151.16 34.93 151.51 35.77 151.86 34.87 152.21 33.97 152.56 33.82 152.91 33.97 153.26 33.6 153.61 33.29 153.95 33.08 154.3 31.65 154.65 31.12 155 30.11 155.35 30.38 155.7 31.49 156.05 31.33 156.4 31.38 156.75 30.17 157.1 29.53 157.45 29.9 157.79 30.8 158.14 30.85 158.49 31.81 158.84 34.08 159.19 34.45 159.54 34.08 159.89 34.03 160.24 33.55 160.59 33.5 160.94 35.09 161.29 35.4 161.64 35.4 161.98 35.35 162.33 35.93 162.68 35.56 163.03 34.82 163.38 35.88 163.73 37.46 164.08 37.04 164.43 38.31 164.78 39.53 165.13 39.74 165.48 39.79 165.83 40.06 166.17 40 166.52 40.11 166.87 39.37 167.22 38.95 167.57 41.27 167.92 41.11 168.27 41.85 168.62 42.81 168.97 43.28 169.32 43.7 169.67 44.07 170.01 44.66 170.36 44.44 170.71 43.49 171.06 43.92 171.41 44.34 171.76 43.33 172.11 43.49 172.46 44.13 172.81 42.96 173.16 43.65 173.51 43.39 173.86 43.33 174.2 43.23 174.55 44.34 174.9 43.97 175.25 43.07 175.6 43.92 175.95 43.28 176.3 43.44 176.65 43.55 177 44.5 177.35 45.4 177.7 45.87 178.04 45.66 178.39 45.4 178.74 45.66 179.09 45.34 179.44 44.66 179.79 45.29 180.14 44.29 180.49 43.92 180.84 45.34 181.19 44.97 181.54 45.13 181.89 46.14 182.23 46.72 182.58 46.61 182.93 46.03 183.28 46.03 183.63 45.29 183.98 45.08 184.33 45.19 184.68 46.67 185.03 46.19 185.38 46.24 185.73 46.03 186.08 45.08 186.42 45.03 186.77 45.29 187.12 46.67 187.47 46.61 187.82 45.87 188.17 46.19 188.52 45.71 188.87 46.08 189.22 46.56 189.57 45.93 189.92 45.08 190.26 44.71 190.61 45.24 190.96 45.24 191.31 45.87 191.66 45.5 192.01 46.3 192.36 45.56 192.71 46.35 193.06 47.09 193.41 47.46 193.76 47.35 194.11 46.4 194.45 46.61 194.8 46.72 195.15 47.09 195.5 46.45 195.85 47.51 196.2 47.72"/>
      </g>
      <g stroke-width="0.3" fill="#000000" fill-opacity="0.000" class="geometry" stroke-dasharray="none" stroke="#FDAE61" id="img-85441c21-36">
        <path fill="none" d="M21.98,33.76 L 22.33 32.49 22.68 32.12 23.03 33.6 23.38 32.71 23.73 33.39 24.08 33.55 24.42 34.13 24.77 34.29 25.12 34.61 25.47 34.29 25.82 34.72 26.17 35.03 26.52 35.14 26.87 35.77 27.22 36.51 27.57 35.93 27.92 35.83 28.27 36.3 28.61 35.83 28.96 36.35 29.31 36.78 29.66 37.84 30.01 38.52 30.36 38.1 30.71 38.95 31.06 38.36 31.41 37.94 31.76 36.94 32.11 37.57 32.45 37.52 32.8 37.46 33.15 36.57 33.5 36.3 33.85 35.61 34.2 36.09 34.55 35.35 34.9 36.83 35.25 38.31 35.6 38.1 35.95 37.25 36.3 36.72 36.64 37.2 36.99 38.36 37.34 37.57 37.69 37.78 38.04 38.21 38.39 38.36 38.74 37.89 39.09 38.31 39.44 39.37 39.79 38.58 40.14 38.31 40.49 38.1 40.83 37.52 41.18 38.84 41.53 39.26 41.88 39.26 42.23 38.79 42.58 39.53 42.93 39.37 43.28 39.1 43.63 37.2 43.98 38.15 44.33 39.32 44.67 40.64 45.02 41.59 45.37 42.75 45.72 43.33 46.07 44.71 46.42 44.82 46.77 44.76 47.12 44.92 47.47 45.24 47.82 45.08 48.17 46.24 48.52 45.77 48.86 46.3 49.21 46.03 49.56 46.14 49.91 46.56 50.26 45.77 50.61 45.71 50.96 45.87 51.31 46.45 51.66 47.14 52.01 46.45 52.36 46.45 52.7 46.14 53.05 46.67 53.4 45.93 53.75 46.03 54.1 45.71 54.45 45.45 54.8 44.97 55.15 44.97 55.5 45.08 55.85 44.55 56.2 46.24 56.55 45.77 56.89 46.19 57.24 47.14 57.59 47.04 57.94 47.25 58.29 46.93 58.64 47.88 58.99 48.25 59.34 48.36 59.69 49.1 60.04 48.94 60.39 49.2 60.73 49.31 61.08 49.2 61.43 50.05 61.78 50 62.13 49.57 62.48 49.47 62.83 48.09 63.18 48.52 63.53 48.09 63.88 48.31 64.23 47.51 64.58 47.78 64.92 47.93 65.27 47.67 65.62 47.83 65.97 47.51 66.32 47.14 66.67 48.15 67.02 47.25 67.37 47.25 67.72 47.46 68.07 47.62 68.42 48.46 68.77 48.73 69.11 48.57 69.46 48.52 69.81 48.52 70.16 48.31 70.51 48.83 70.86 48.94 71.21 49.36 71.56 48.99 71.91 49.57 72.26 49.36 72.61 49.79 72.95 49.79 73.3 49.89 73.65 50.05 74 50.31 74.35 50.1 74.7 50.31 75.05 50 75.4 50.84 75.75 51.37 76.1 50.84 76.45 50.74 76.8 51.37 77.14 51.05 77.49 51.32 77.84 51.16 78.19 51.16 78.54 51.05 78.89 51.42 79.24 51.32 79.59 51.11 79.94 51.42 80.29 51.9 80.64 51.64 80.98 50.63 81.33 50.9 81.68 51.11 82.03 51.37 82.38 49.89 82.73 49.79 83.08 49.1 83.43 49.05 83.78 49.52 84.13 49.47 84.48 50.05 84.83 50.58 85.17 50.21 85.52 50.26 85.87 51 86.22 50.95 86.57 50.9 86.92 50.79 87.27 50.47 87.62 50.16 87.97 50.47 88.32 50.58 88.67 50.58 89.02 50.47 89.36 50.95 89.71 51.64 90.06 51.85 90.41 52.06 90.76 52.22 91.11 51.8 91.46 51.8 91.81 51.37 92.16 52.54 92.51 53.06 92.86 53.38 93.2 53.12 93.55 53.54 93.9 53.75 94.25 53.8 94.6 54.02 94.95 54.07 95.3 54.33 95.65 53.96 96 54.44 96.35 54.76 96.7 54.65 97.05 54.7 97.39 54.76 97.74 54.65 98.09 54.65 98.44 54.44 98.79 54.33 99.14 54.39 99.49 54.39 99.84 54.49 100.19 54.6 100.54 54.49 100.89 54.65 101.23 54.44 101.58 54.49 101.93 54.23 102.28 54.33 102.63 54.17 102.98 54.17 103.33 53.8 103.68 53.86 104.03 53.33 104.38 53.01 104.73 52.91 105.08 53.28 105.42 52.85 105.77 52.85 106.12 52.22 106.47 52.64 106.82 52.54 107.17 53.06 107.52 52.64 107.87 53.12 108.22 52.96 108.57 53.06 108.92 53.12 109.26 53.7 109.61 53.49 109.96 53.75 110.31 54.12 110.66 54.28 111.01 54.33 111.36 54.28 111.71 54.12 112.06 53.86 112.41 53.65 112.76 53.22 113.11 52.75 113.45 52.8 113.8 53.22 114.15 52.96 114.5 53.38 114.85 52.85 115.2 53.17 115.55 53.17 115.9 53.54 116.25 53.65 116.6 53.54 116.95 53.28 117.3 53.38 117.64 53.28 117.99 53.65 118.34 53.65 118.69 53.49 119.04 52.91 119.39 52.48 119.74 52.06 120.09 52.01 120.44 51.48 120.79 51.05 121.14 50.74 121.48 50.53 121.83 50.1 122.18 49.1 122.53 48.25 122.88 47.93 123.23 47.19 123.58 47.25 123.93 46.3 124.28 45.98 124.63 45.56 124.98 45.34 125.33 45.66 125.67 46.51 126.02 46.56 126.37 46.56 126.72 47.46 127.07 47.78 127.42 48.09 127.77 47.62 128.12 47.14 128.47 47.46 128.82 46.67 129.17 46.88 129.51 45.71 129.86 45.34 130.21 44.92 130.56 44.92 130.91 44.82 131.26 44.71 131.61 44.34 131.96 44.97 132.31 45.29 132.66 45.08 133.01 46.03 133.36 44.71 133.7 45.29 134.05 46.67 134.4 46.98 134.75 46.67 135.1 45.98 135.45 45.93 135.8 47.09 136.15 47.35 136.5 47.46 136.85 46.35 137.2 47.51 137.55 47.04 137.89 46.56 138.24 46.56 138.59 45.5 138.94 46.03 139.29 45.93 139.64 45.77 139.99 45.98 140.34 45.66 140.69 45.08 141.04 46.45 141.39 45.77 141.73 45.4 142.08 45.66 142.43 46.77 142.78 45.45 143.13 45.45 143.48 46.14 143.83 45.34 144.18 44.82 144.53 44.55 144.88 44.71 145.23 44.5 145.58 44.6 145.92 44.5 146.27 44.07 146.62 44.66 146.97 43.6 147.32 42.59 147.67 42.91 148.02 43.02 148.37 43.44 148.72 43.44 149.07 43.7 149.42 44.34 149.76 45.34 150.11 46.03 150.46 46.19 150.81 46.14 151.16 45.98 151.51 46.03 151.86 46.35 152.21 45.61 152.56 45.5 152.91 46.4 153.26 47.35 153.61 47.78 153.95 48.62 154.3 49.1 154.65 48.89 155 48.62 155.35 49.15 155.7 48.99 156.05 49.05 156.4 49.57 156.75 50.16 157.1 49.89 157.45 50.21 157.79 50.16 158.14 49.2 158.49 49.63 158.84 49.42 159.19 48.99 159.54 48.25 159.89 48.09 160.24 47.56 160.59 47.3 160.94 47.72 161.29 48.2 161.64 47.93 161.98 47.46 162.33 47.19 162.68 47.3 163.03 48.2 163.38 48.62 163.73 48.36 164.08 48.2 164.43 48.73 164.78 49.1 165.13 48.78 165.48 49.31 165.83 49.26 166.17 48.99 166.52 49.36 166.87 48.83 167.22 49.52 167.57 49.84 167.92 50.05 168.27 50.58 168.62 50.53 168.97 50.21 169.32 50.26 169.67 50.95 170.01 50.95 170.36 50.84 170.71 50.37 171.06 50 171.41 50.05 171.76 50.42 172.11 49.79 172.46 48.68 172.81 48.46 173.16 48.36 173.51 49.05 173.86 48.83 174.2 48.68 174.55 48.83 174.9 49.1 175.25 49.84 175.6 50.21 175.95 49.26 176.3 49.52 176.65 49.15 177 49.05 177.35 49.84 177.7 49.47 178.04 50.47 178.39 50.47 178.74 50.63 179.09 50.37 179.44 50.79 179.79 51.48 180.14 51.27 180.49 51.48 180.84 50.74 181.19 51.11 181.54 51.42 181.89 51.69 182.23 51.74 182.58 51.11 182.93 51.27 183.28 51.05 183.63 50.26 183.98 50.31 184.33 49.31 184.68 49.26 185.03 49.1 185.38 48.83 185.73 49.05 186.08 48.31 186.42 48.31 186.77 47.93 187.12 48.09 187.47 47.67 187.82 47.09 188.17 46.67 188.52 45.98 188.87 45.24 189.22 45.29 189.57 45.13 189.92 45.61 190.26 44.6 190.61 44.92 190.96 44.23 191.31 43.33 191.66 44.13 192.01 43.49 192.36 44.87 192.71 45.61 193.06 46.35 193.41 45.82 193.76 44.76 194.11 42.86 194.45 44.02 194.8 43.02 195.15 43.86 195.5 43.02 195.85 43.81 196.2 44.55"/>
      </g>
      <g stroke-width="0.3" fill="#000000" fill-opacity="0.000" class="geometry" stroke-dasharray="none" stroke="#F46D43" id="img-85441c21-37">
        <path fill="none" d="M21.98,33.76 L 22.33 32.55 22.68 31.28 23.03 31.86 23.38 32.28 23.73 31.12 24.08 31.75 24.42 31.7 24.77 31.65 25.12 31.01 25.47 31.54 25.82 31.23 26.17 31.07 26.52 30.01 26.87 30.8 27.22 30.59 27.57 30.91 27.92 31.65 28.27 32.71 28.61 32.07 28.96 31.6 29.31 31.75 29.66 31.7 30.01 32.28 30.36 31.23 30.71 32.71 31.06 33.66 31.41 32.34 31.76 32.18 32.11 31.97 32.45 32.76 32.8 33.55 33.15 33.13 33.5 33.02 33.85 32.34 34.2 32.97 34.55 33.76 34.9 33.92 35.25 33.34 35.6 34.77 35.95 34.87 36.3 34.82 36.64 34.45 36.99 33.5 37.34 32.28 37.69 33.18 38.04 32.86 38.39 32.28 38.74 32.97 39.09 31.75 39.44 32.39 39.79 31.49 40.14 30.7 40.49 31.44 40.83 31.17 41.18 31.81 41.53 31.86 41.88 32.02 42.23 31.33 42.58 32.07 42.93 30.54 43.28 31.07 43.63 30.75 43.98 31.54 44.33 30.64 44.67 30.54 45.02 29.48 45.37 31.12 45.72 29.37 46.07 28.79 46.42 28.32 46.77 27.89 47.12 29.37 47.47 27.63 47.82 28.63 48.17 29 48.52 28.85 48.86 29.74 49.21 29.74 49.56 30.54 49.91 31.49 50.26 31.6 50.61 32.07 50.96 31.54 51.31 32.12 51.66 33.08 52.01 32.97 52.36 33.23 52.7 32.92 53.05 32.81 53.4 32.28 53.75 31.65 54.1 31.7 54.45 32.44 54.8 31.81 55.15 32.44 55.5 32.18 55.85 32.34 56.2 31.97 56.55 32.28 56.89 31.97 57.24 30.91 57.59 30.33 57.94 31.12 58.29 31.81 58.64 31.07 58.99 30.01 59.34 29.11 59.69 28.69 60.04 28.26 60.39 27.95 60.73 27.68 61.08 27.58 61.43 26.57 61.78 26.78 62.13 24.88 62.48 24.46 62.83 24.14 63.18 23.82 63.53 23.29 63.88 23.98 64.23 23.19 64.58 22.92 64.92 23.35 65.27 22.45 65.62 23.72 65.97 23.98 66.32 25.09 66.67 25.2 67.02 25.09 67.37 25.51 67.72 24.56 68.07 24.51 68.42 25.25 68.77 25.94 69.11 25.25 69.46 25.41 69.81 25.73 70.16 24.35 70.51 24.25 70.86 23.35 71.21 23.4 71.56 22.5 71.91 21.28 72.26 20.76 72.61 21.97 72.95 21.34 73.3 21.23 73.65 20.6 74 19.91 74.35 19.49 74.7 20.12 75.05 20.38 75.4 20.86 75.75 21.34 76.1 22.08 76.45 22.08 76.8 23.08 77.14 22.82 77.49 23.56 77.84 23.82 78.19 24.09 78.54 24.77 78.89 23.35 79.24 23.13 79.59 22.71 79.94 22.82 80.29 21.81 80.64 22.18 80.98 21.55 81.33 21.55 81.68 20.97 82.03 20.81 82.38 21.13 82.73 21.28 83.08 20.54 83.43 20.76 83.78 20.65 84.13 20.38 84.48 21.18 84.83 21.18 85.17 20.91 85.52 20.91 85.87 21.44 86.22 20.49 86.57 21.71 86.92 22.13 87.27 22.45 87.62 22.45 87.97 22.71 88.32 21.92 88.67 22.82 89.02 22.24 89.36 23.35 89.71 23.45 90.06 22.98 90.41 22.24 90.76 21.81 91.11 21.65 91.46 21.39 91.81 21.13 92.16 21.18 92.51 20.86 92.86 21.02 93.2 21.28 93.55 21.23 93.9 20.54 94.25 20.54 94.6 21.07 94.95 21.5 95.3 20.81 95.65 20.33 96 19.8 96.35 20.65 96.7 20.44 97.05 20.28 97.39 20.28 97.74 20.38 98.09 20.07 98.44 20.12 98.79 20.44 99.14 20.23 99.49 19.49 99.84 19.75 100.19 19.64 100.54 19.06 100.89 18.69 101.23 18.48 101.58 18.43 101.93 18.27 102.28 18.48 102.63 19.06 102.98 18.85 103.33 19.7 103.68 19.54 104.03 20.38 104.38 20.07 104.73 19.7 105.08 18.43 105.42 18.01 105.77 18.8 106.12 19.43 106.47 18.85 106.82 18.48 107.17 19.17 107.52 18.11 107.87 18.06 108.22 17.58 108.57 17.32 108.92 16.95 109.26 16.47 109.61 16.26 109.96 16.31 110.31 16.84 110.66 17.11 111.01 17.48 111.36 17.21 111.71 16.84 112.06 17.69 112.41 16.58 112.76 16.26 113.11 16.37 113.45 16.15 113.8 16.05 114.15 16.21 114.5 16.42 114.85 15.68 115.2 16.1 115.55 15.78 115.9 15.73 116.25 16.05 116.6 15.47 116.95 15.63 117.3 15.63 117.64 15.47 117.99 15.2 118.34 15.36 118.69 15.15 119.04 15.1 119.39 15.68 119.74 16.21 120.09 15.84 120.44 16.05 120.79 16.1 121.14 15.57 121.48 16.15 121.83 16.1 122.18 15.63 122.53 16.05 122.88 15.73 123.23 15.89 123.58 15.52 123.93 15.36 124.28 15.2 124.63 14.89 124.98 14.41 125.33 14.3 125.67 14.36 126.02 14.41 126.37 14.46 126.72 14.67 127.07 14.73 127.42 14.99 127.77 15.26 128.12 14.73 128.47 14.36 128.82 13.72 129.17 13.67 129.51 13.35 129.86 13.03 130.21 13.09 130.56 12.88 130.91 13.09 131.26 12.88 131.61 12.88 131.96 12.82 132.31 12.72 132.66 12.77 133.01 12.88 133.36 12.82 133.7 12.88 134.05 12.66 134.4 12.66 134.75 12.77 135.1 12.88 135.45 12.98 135.8 12.93 136.15 12.93 136.5 12.93 136.85 13.03 137.2 13.03 137.55 13.19 137.89 13.09 138.24 13.03 138.59 12.93 138.94 12.98 139.29 13.09 139.64 12.82 139.99 12.93 140.34 12.98 140.69 12.93 141.04 12.88 141.39 12.77 141.73 12.77 142.08 12.66 142.43 12.61 142.78 12.61 143.13 12.61 143.48 12.61 143.83 12.61 144.18 12.61 144.53 12.61 144.88 12.61 145.23 12.61 145.58 12.61 145.92 12.61 146.27 12.61 146.62 12.61 146.97 12.61 147.32 12.61 147.67 12.61 148.02 12.61 148.37 12.61 148.72 12.61 149.07 12.61 149.42 12.61 149.76 12.61 150.11 12.61 150.46 12.61 150.81 12.61 151.16 12.72 151.51 12.72 151.86 12.66 152.21 12.66 152.56 12.61 152.91 12.61 153.26 12.61 153.61 12.61 153.95 12.61 154.3 12.61 154.65 12.61 155 12.61 155.35 12.61 155.7 12.61 156.05 12.61 156.4 12.61 156.75 12.61 157.1 12.61 157.45 12.61 157.79 12.61 158.14 12.61 158.49 12.61 158.84 12.61 159.19 12.61 159.54 12.61 159.89 12.61 160.24 12.61 160.59 12.61 160.94 12.61 161.29 12.61 161.64 12.61 161.98 12.61 162.33 12.61 162.68 12.61 163.03 12.61 163.38 12.61 163.73 12.61 164.08 12.61 164.43 12.61 164.78 12.61 165.13 12.61 165.48 12.61 165.83 12.61 166.17 12.61 166.52 12.61 166.87 12.61 167.22 12.61 167.57 12.61 167.92 12.61 168.27 12.61 168.62 12.61 168.97 12.61 169.32 12.61 169.67 12.61 170.01 12.61 170.36 12.61 170.71 12.61 171.06 12.61 171.41 12.61 171.76 12.61 172.11 12.61 172.46 12.61 172.81 12.61 173.16 12.61 173.51 12.61 173.86 12.61 174.2 12.61 174.55 12.77 174.9 12.61 175.25 12.61 175.6 12.61 175.95 12.66 176.3 12.66 176.65 12.72 177 12.82 177.35 12.93 177.7 12.98 178.04 13.19 178.39 13.09 178.74 12.82 179.09 12.88 179.44 12.88 179.79 13.09 180.14 13.3 180.49 13.3 180.84 13.25 181.19 13.3 181.54 13.3 181.89 13.46 182.23 13.3 182.58 13.14 182.93 13.14 183.28 13.35 183.63 13.56 183.98 13.93 184.33 14.57 184.68 14.83 185.03 14.67 185.38 14.52 185.73 14.99 186.08 14.67 186.42 14.25 186.77 14.99 187.12 15.1 187.47 14.57 187.82 14.52 188.17 13.99 188.52 14.36 188.87 13.99 189.22 13.99 189.57 13.99 189.92 14.15 190.26 14.04 190.61 14.2 190.96 14.52 191.31 14.62 191.66 15.04 192.01 14.89 192.36 14.89 192.71 14.94 193.06 15.15 193.41 15.1 193.76 15.1 194.11 15.47 194.45 15.84 194.8 15.78 195.15 16.21 195.5 16.37 195.85 17.05 196.2 17.37"/>
      </g>
      <g stroke-width="0.3" fill="#000000" fill-opacity="0.000" class="geometry" stroke-dasharray="none" stroke="#D53E4F" id="img-85441c21-38">
        <path fill="none" d="M21.98,33.76 L 22.33 33.6 22.68 32.65 23.03 30.7 23.38 30.17 23.73 29.9 24.08 28.16 24.42 28.05 24.77 27.58 25.12 27.26 25.47 28.85 25.82 29.8 26.17 29.16 26.52 29.06 26.87 28.58 27.22 29.37 27.57 29 27.92 29.06 28.27 28.16 28.61 27.63 28.96 29.11 29.31 30.27 29.66 30.75 30.01 31.17 30.36 31.97 30.71 32.18 31.06 33.45 31.41 32.02 31.76 31.17 32.11 31.01 32.45 31.07 32.8 29.53 33.15 29.53 33.5 29.27 33.85 29.9 34.2 30.17 34.55 30.75 34.9 30.48 35.25 31.86 35.6 30.59 35.95 29.43 36.3 29.06 36.64 29.59 36.99 31.28 37.34 31.01 37.69 30.85 38.04 31.38 38.39 31.86 38.74 31.7 39.09 32.55 39.44 33.39 39.79 34.45 40.14 35.3 40.49 34.82 40.83 34.77 41.18 34.82 41.53 35.56 41.88 35.88 42.23 37.04 42.58 37.78 42.93 37.57 43.28 37.68 43.63 36.99 43.98 36.51 44.33 37.41 44.67 37.31 45.02 38.31 45.37 37.84 45.72 37.68 46.07 39.16 46.42 39.58 46.77 39.32 47.12 38.89 47.47 38.26 47.82 37.99 48.17 37.62 48.52 37.09 48.86 37.46 49.21 37.89 49.56 37.46 49.91 36.62 50.26 36.46 50.61 35.46 50.96 35.09 51.31 34.98 51.66 34.87 52.01 35.24 52.36 35.77 52.7 35.46 53.05 35.61 53.4 35.46 53.75 34.45 54.1 34.93 54.45 34.72 54.8 34.82 55.15 34.93 55.5 33.92 55.85 33.18 56.2 33.13 56.55 33.97 56.89 33.87 57.24 35.14 57.59 36.46 57.94 36.62 58.29 36.35 58.64 37.73 58.99 38.95 59.34 39.05 59.69 40.48 60.04 40.11 60.39 39.63 60.73 38.52 61.08 37.84 61.43 37.31 61.78 38.58 62.13 37.99 62.48 38.26 62.83 38.31 63.18 37.09 63.53 36.3 63.88 36.14 64.23 37.46 64.58 37.2 64.92 37.15 65.27 36.88 65.62 37.2 65.97 37.57 66.32 37.04 66.67 36.72 67.02 36.14 67.37 36.51 67.72 36.14 68.07 37.89 68.42 38.15 68.77 37.31 69.11 35.93 69.46 35.93 69.81 35.4 70.16 33.82 70.51 32.97 70.86 33.55 71.21 33.23 71.56 34.45 71.91 34.29 72.26 34.5 72.61 33.76 72.95 34.08 73.3 33.71 73.65 33.45 74 33.87 74.35 34.03 74.7 34.77 75.05 34.35 75.4 34.61 75.75 34.08 76.1 33.13 76.45 33.29 76.8 32.97 77.14 31.6 77.49 31.33 77.84 30.06 78.19 29.16 78.54 28.85 78.89 29.59 79.24 30.22 79.59 30.17 79.94 31.23 80.29 31.44 80.64 33.5 80.98 33.82 81.33 34.45 81.68 34.45 82.03 33.13 82.38 33.92 82.73 35.46 83.08 35.4 83.43 35.77 83.78 35.46 84.13 33.71 84.48 32.86 84.83 34.19 85.17 34.19 85.52 33.6 85.87 32.28 86.22 32.23 86.57 31.17 86.92 32.92 87.27 33.34 87.62 33.55 87.97 32.55 88.32 31.65 88.67 30.59 89.02 31.6 89.36 31.54 89.71 31.28 90.06 31.6 90.41 31.65 90.76 31.75 91.11 32.44 91.46 32.07 91.81 31.44 92.16 30.11 92.51 30.54 92.86 29.85 93.2 30.96 93.55 30.48 93.9 29 94.25 29.06 94.6 28.48 94.95 29.27 95.3 28.48 95.65 29.27 96 29.74 96.35 30.33 96.7 29.69 97.05 29.11 97.39 30.22 97.74 30.11 98.09 30.7 98.44 30.33 98.79 31.33 99.14 32.55 99.49 33.6 99.84 33.76 100.19 33.45 100.54 34.72 100.89 33.5 101.23 32.18 101.58 30.91 101.93 30.64 102.28 30.17 102.63 30.22 102.98 30.27 103.33 31.01 103.68 31.75 104.03 32.76 104.38 32.39 104.73 32.6 105.08 32.92 105.42 32.39 105.77 31.38 106.12 31.65 106.47 30.43 106.82 30.01 107.17 31.01 107.52 30.33 107.87 30.17 108.22 30.85 108.57 31.91 108.92 31.44 109.26 31.28 109.61 30.75 109.96 30.85 110.31 31.23 110.66 31.12 111.01 30.17 111.36 30.06 111.71 30.75 112.06 32.18 112.41 32.39 112.76 31.6 113.11 33.13 113.45 34.08 113.8 33.39 114.15 33.45 114.5 32.12 114.85 32.65 115.2 33.6 115.55 33.08 115.9 32.76 116.25 31.38 116.6 31.07 116.95 30.64 117.3 30.27 117.64 29.27 117.99 29.64 118.34 29.8 118.69 30.43 119.04 30.96 119.39 30.38 119.74 30.27 120.09 31.12 120.44 30.91 120.79 31.91 121.14 32.81 121.48 33.92 121.83 33.45 122.18 32.6 122.53 33.13 122.88 33.18 123.23 33.55 123.58 32.49 123.93 33.55 124.28 32.76 124.63 32.81 124.98 33.39 125.33 32.18 125.67 31.97 126.02 32.44 126.37 31.54 126.72 32.97 127.07 34.08 127.42 34.56 127.77 33.6 128.12 34.5 128.47 34.77 128.82 34.72 129.17 34.19 129.51 33.92 129.86 33.45 130.21 35.03 130.56 35.24 130.91 34.77 131.26 35.14 131.61 37.04 131.96 37.52 132.31 36.88 132.66 36.35 133.01 36.25 133.36 37.84 133.7 36.46 134.05 35.88 134.4 36.46 134.75 35.88 135.1 34.98 135.45 35.77 135.8 35.67 136.15 35.77 136.5 35.35 136.85 34.29 137.2 35.46 137.55 36.35 137.89 36.57 138.24 36.25 138.59 37.04 138.94 37.84 139.29 38.31 139.64 36.99 139.99 37.78 140.34 38.68 140.69 37.99 141.04 37.36 141.39 37.52 141.73 37.99 142.08 37.52 142.43 36.2 142.78 36.25 143.13 35.83 143.48 34.56 143.83 33.76 144.18 33.02 144.53 33.45 144.88 33.97 145.23 33.71 145.58 34.56 145.92 34.77 146.27 34.35 146.62 33.76 146.97 32.44 147.32 33.08 147.67 33.02 148.02 32.28 148.37 32.86 148.72 32.55 149.07 32.92 149.42 32.86 149.76 33.02 150.11 32.34 150.46 31.12 150.81 31.6 151.16 32.07 151.51 31.54 151.86 32.07 152.21 31.28 152.56 31.91 152.91 31.91 153.26 31.28 153.61 30.7 153.95 31.86 154.3 31.17 154.65 32.18 155 31.75 155.35 30.91 155.7 31.07 156.05 31.12 156.4 31.17 156.75 31.91 157.1 31.81 157.45 32.6 157.79 31.6 158.14 32.44 158.49 32.12 158.84 32.71 159.19 32.65 159.54 31.33 159.89 30.64 160.24 31.91 160.59 31.7 160.94 32.44 161.29 33.02 161.64 33.92 161.98 33.82 162.33 33.82 162.68 32.92 163.03 33.87 163.38 34.5 163.73 34.45 164.08 33.82 164.43 33.39 164.78 33.87 165.13 33.76 165.48 33.34 165.83 32.71 166.17 32.34 166.52 32.71 166.87 32.49 167.22 31.38 167.57 31.33 167.92 30.7 168.27 29.74 168.62 30.59 168.97 31.23 169.32 32.12 169.67 31.54 170.01 31.75 170.36 30.91 170.71 31.28 171.06 30.43 171.41 31.97 171.76 31.12 172.11 31.07 172.46 30.8 172.81 30.8 173.16 31.81 173.51 31.07 173.86 29.59 174.2 27.95 174.55 28.26 174.9 28.74 175.25 29.11 175.6 28.9 175.95 28.53 176.3 29 176.65 28.37 177 29.85 177.35 29.16 177.7 30.17 178.04 31.07 178.39 31.81 178.74 31.28 179.09 31.7 179.44 32.65 179.79 33.76 180.14 34.66 180.49 34.61 180.84 34.61 181.19 37.36 181.54 36.88 181.89 37.89 182.23 38.15 182.58 39.47 182.93 40.43 183.28 40.06 183.63 39.79 183.98 39.42 184.33 39.58 184.68 40.06 185.03 40.9 185.38 42.28 185.73 42.49 186.08 42.86 186.42 43.23 186.77 43.18 187.12 43.76 187.47 43.86 187.82 44.07 188.17 43.76 188.52 44.29 188.87 43.39 189.22 44.07 189.57 44.34 189.92 43.44 190.26 42.81 190.61 43.65 190.96 44.07 191.31 44.29 191.66 44.34 192.01 44.76 192.36 45.71 192.71 45.82 193.06 45.98 193.41 45.77 193.76 44.71 194.11 45.24 194.45 44.66 194.8 44.18 195.15 43.86 195.5 43.86 195.85 44.23 196.2 45.61"/>
      </g>
      <g stroke-width="0.3" fill="#000000" fill-opacity="0.000" class="geometry" stroke-dasharray="none" stroke="#9E0142" id="img-85441c21-39">
        <path fill="none" d="M21.98,33.76 L 22.33 34.5 22.68 34.66 23.03 34.77 23.38 35.09 23.73 33.76 24.08 33.39 24.42 33.76 24.77 34.08 25.12 34.98 25.47 35.4 25.82 35.77 26.17 35.72 26.52 35.67 26.87 36.04 27.22 36.46 27.57 37.31 27.92 38.15 28.27 36.94 28.61 36.94 28.96 37.94 29.31 37.2 29.66 37.04 30.01 35.61 30.36 35.72 30.71 35.3 31.06 35.19 31.41 35.3 31.76 34.87 32.11 34.56 32.45 35.3 32.8 34.93 33.15 35.51 33.5 35.19 33.85 34.87 34.2 34.66 34.55 34.08 34.9 34.45 35.25 35.24 35.6 36.3 35.95 37.62 36.3 37.04 36.64 36.35 36.99 37.31 37.34 36.78 37.69 36.3 38.04 37.04 38.39 36.94 38.74 36.35 39.09 37.04 39.44 37.09 39.79 36.88 40.14 36.41 40.49 36.88 40.83 37.94 41.18 37.84 41.53 37.84 41.88 38.1 42.23 37.78 42.58 37.41 42.93 37.25 43.28 35.98 43.63 36.78 43.98 37.31 44.33 36.41 44.67 36.51 45.02 37.31 45.37 37.41 45.72 37.68 46.07 37.09 46.42 36.78 46.77 35.35 47.12 34.66 47.47 34.19 47.82 32.92 48.17 31.65 48.52 31.49 48.86 32.44 49.21 31.38 49.56 31.38 49.91 31.6 50.26 31.75 50.61 32.34 50.96 32.71 51.31 33.97 51.66 34.5 52.01 33.66 52.36 34.08 52.7 34.93 53.05 35.24 53.4 35.14 53.75 34.24 54.1 33.66 54.45 32.71 54.8 33.97 55.15 33.92 55.5 33.6 55.85 34.35 56.2 34.4 56.55 34.87 56.89 34.24 57.24 34.93 57.59 34.72 57.94 33.92 58.29 34.45 58.64 35.09 58.99 36.2 59.34 36.14 59.69 35.93 60.04 36.51 60.39 34.66 60.73 34.61 61.08 34.98 61.43 35.72 61.78 35.19 62.13 36.04 62.48 35.72 62.83 34.93 63.18 33.76 63.53 33.45 63.88 33.23 64.23 31.81 64.58 30.85 64.92 30.33 65.27 28.95 65.62 29.06 65.97 29.59 66.32 28.42 66.67 28.79 67.02 29.53 67.37 29.11 67.72 28.85 68.07 30.54 68.42 30.85 68.77 30.11 69.11 30.11 69.46 30.96 69.81 31.01 70.16 31.81 70.51 31.17 70.86 30.33 71.21 29.11 71.56 28.85 71.91 29.27 72.26 29.48 72.61 30.27 72.95 30.8 73.3 30.48 73.65 31.07 74 31.6 74.35 32.02 74.7 32.44 75.05 31.44 75.4 30.96 75.75 30.01 76.1 30.11 76.45 29.43 76.8 29.59 77.14 29.96 77.49 29.9 77.84 29.53 78.19 29.16 78.54 29 78.89 27.58 79.24 27.1 79.59 27.05 79.94 27.42 80.29 26.84 80.64 26.15 80.98 27.31 81.33 26.89 81.68 27.42 82.03 27.31 82.38 25.88 82.73 26.15 83.08 25.62 83.43 25.78 83.78 24.62 84.13 23.93 84.48 23.29 84.83 23.4 85.17 23.45 85.52 23.72 85.87 23.61 86.22 23.08 86.57 22.82 86.92 22.66 87.27 22.82 87.62 23.19 87.97 22.18 88.32 21.44 88.67 21.71 89.02 22.34 89.36 21.92 89.71 22.66 90.06 22.5 90.41 22.71 90.76 22.5 91.11 22.5 91.46 22.02 91.81 21.55 92.16 21.18 92.51 20.7 92.86 21.65 93.2 20.91 93.55 20.86 93.9 20.17 94.25 19.22 94.6 19.06 94.95 19.12 95.3 19.43 95.65 18.75 96 18.64 96.35 17.74 96.7 18.27 97.05 18.9 97.39 17.74 97.74 18.01 98.09 18.32 98.44 18.85 98.79 20.01 99.14 19.49 99.49 19.54 99.84 19.01 100.19 18.53 100.54 18.16 100.89 17.74 101.23 18.32 101.58 18.22 101.93 18.96 102.28 19.38 102.63 19.33 102.98 19.27 103.33 19.12 103.68 19.49 104.03 18.53 104.38 18.59 104.73 18.38 105.08 18.85 105.42 18.8 105.77 19.01 106.12 18.43 106.47 18.9 106.82 19.06 107.17 18.96 107.52 19.06 107.87 18.85 108.22 19.22 108.57 19.75 108.92 21.07 109.26 21.97 109.61 22.92 109.96 22.45 110.31 21.97 110.66 21.81 111.01 22.13 111.36 21.6 111.71 21.71 112.06 22.45 112.41 22.24 112.76 21.87 113.11 22.98 113.45 23.03 113.8 22.92 114.15 23.66 114.5 23.87 114.85 24.14 115.2 25.67 115.55 25.73 115.9 25.2 116.25 24.88 116.6 23.29 116.95 23.08 117.3 22.45 117.64 22.29 117.99 21.71 118.34 21.18 118.69 20.54 119.04 19.7 119.39 20.38 119.74 19.86 120.09 20.12 120.44 20.17 120.79 19.38 121.14 20.01 121.48 20.38 121.83 21.23 122.18 22.24 122.53 22.18 122.88 22.71 123.23 22.18 123.58 21.81 123.93 21.81 124.28 22.13 124.63 22.18 124.98 21.65 125.33 20.65 125.67 20.12 126.02 19.8 126.37 19.59 126.72 19.43 127.07 18.53 127.42 18.64 127.77 18.32 128.12 18.38 128.47 17.79 128.82 17.32 129.17 17.32 129.51 17.16 129.86 17.16 130.21 18.16 130.56 17.58 130.91 17.58 131.26 17.32 131.61 16.68 131.96 17.42 132.31 17.79 132.66 17.42 133.01 17.42 133.36 17.74 133.7 17.74 134.05 17.64 134.4 17.11 134.75 17 135.1 16.1 135.45 15.84 135.8 15.84 136.15 15.78 136.5 15.41 136.85 15.94 137.2 16.37 137.55 16.1 137.89 16.52 138.24 15.73 138.59 15.04 138.94 15.2 139.29 15.26 139.64 15.52 139.99 15.84 140.34 16 140.69 16 141.04 16.37 141.39 17.37 141.73 17.69 142.08 18.06 142.43 17.21 142.78 17.58 143.13 17.69 143.48 16.89 143.83 16.47 144.18 16 144.53 15.94 144.88 15.52 145.23 15.36 145.58 14.41 145.92 14.46 146.27 14.25 146.62 14.52 146.97 14.15 147.32 14.04 147.67 14.04 148.02 13.78 148.37 13.62 148.72 13.46 149.07 13.83 149.42 13.51 149.76 13.72 150.11 13.78 150.46 13.46 150.81 13.14 151.16 12.98 151.51 12.88 151.86 12.72 152.21 12.82 152.56 12.72 152.91 12.61 153.26 12.61 153.61 12.61 153.95 12.66 154.3 12.61 154.65 12.61 155 12.61 155.35 12.61 155.7 12.61 156.05 12.61 156.4 12.61 156.75 12.61 157.1 12.61 157.45 12.61 157.79 12.61 158.14 12.61 158.49 12.61 158.84 12.61 159.19 12.61 159.54 12.61 159.89 12.61 160.24 12.61 160.59 12.61 160.94 12.61 161.29 12.61 161.64 12.61 161.98 12.61 162.33 12.61 162.68 12.61 163.03 12.61 163.38 12.61 163.73 12.61 164.08 12.61 164.43 12.61 164.78 12.61 165.13 12.61 165.48 12.61 165.83 12.61 166.17 12.61 166.52 12.61 166.87 12.61 167.22 12.61 167.57 12.61 167.92 12.61 168.27 12.61 168.62 12.61 168.97 12.61 169.32 12.61 169.67 12.61 170.01 12.61 170.36 12.61 170.71 12.61 171.06 12.61 171.41 12.61 171.76 12.61 172.11 12.77 172.46 12.88 172.81 12.77 173.16 13.03 173.51 13.09 173.86 13.4 174.2 13.35 174.55 13.25 174.9 13.25 175.25 13.25 175.6 13.25 175.95 13.03 176.3 12.93 176.65 12.98 177 12.82 177.35 12.82 177.7 12.77 178.04 12.77 178.39 12.72 178.74 12.66 179.09 12.61 179.44 12.61 179.79 12.61 180.14 12.61 180.49 12.61 180.84 12.61 181.19 12.61 181.54 12.61 181.89 12.61 182.23 12.61 182.58 12.61 182.93 12.61 183.28 12.61 183.63 12.61 183.98 12.61 184.33 12.61 184.68 12.61 185.03 12.61 185.38 12.61 185.73 12.61 186.08 12.61 186.42 12.61 186.77 12.61 187.12 12.61 187.47 12.66 187.82 12.66 188.17 12.66 188.52 12.66 188.87 12.61 189.22 12.61 189.57 12.61 189.92 12.61 190.26 12.61 190.61 12.61 190.96 12.61 191.31 12.66 191.66 12.66 192.01 12.66 192.36 12.66 192.71 12.72 193.06 12.77 193.41 12.72 193.76 12.72 194.11 12.82 194.45 13.09 194.8 13.19 195.15 13.25 195.5 13.03 195.85 12.88 196.2 12.82"/>
      </g>
    </g>
  </g>
</g>
  <g class="guide ylabels" font-size="2.82" font-family="'PT Sans Caption','Helvetica Neue','Helvetica',sans-serif" fill="#000000" id="img-85441c21-40">
    <text x="18.63" y="54.91" text-anchor="end" dy="0.35em">0</text>
    <text x="18.63" y="44.34" text-anchor="end" dy="0.35em">200</text>
    <text x="18.63" y="33.76" text-anchor="end" dy="0.35em">400</text>
    <text x="18.63" y="23.19" text-anchor="end" dy="0.35em">600</text>
    <text x="18.63" y="12.61" text-anchor="end" dy="0.35em">800</text>
  </g>
  <g font-size="3.88" font-family="'PT Sans','Helvetica Neue','Helvetica',sans-serif" fill="#000000" stroke="#000000" stroke-opacity="0.000" id="img-85441c21-41">
    <text x="8.81" y="31.76" text-anchor="middle" dy="0.35em" transform="rotate(-90, 8.81, 33.76)">population size</text>
  </g>
  <g font-size="3.88" font-family="'PT Sans','Helvetica Neue','Helvetica',sans-serif" fill="#000000" stroke="#000000" stroke-opacity="0.000" id="img-85441c21-42">
    <text x="108.92" y="5" text-anchor="middle" dy="0.6em">genetic drift with mutationrate  = 0.0001 </text>
  </g>
</g>
<defs>
  <clipPath id="img-85441c21-24">
  <path d="M19.63,10.61 L 198.2 10.61 198.2 56.91 19.63 56.91" />
</clipPath>
  <clipPath id="img-85441c21-8">
  <path d="M18.63,86.81 L 174.03 86.81 174.03 133.11 18.63 133.11" />
</clipPath>
</defs>
</svg>
