<?xml version="1.0" encoding="UTF-8"?>
<svg xmlns="http://www.w3.org/2000/svg"
     xmlns:xlink="http://www.w3.org/1999/xlink"
     xmlns:gadfly="http://www.gadflyjl.org/ns"
     version="1.2"
     width="203.2mm" height="152.4mm" viewBox="0 0 203.2 152.4"
     stroke="none"
     fill="#000000"
     stroke-width="0.3"
     font-size="3.88"
>
<g class="plotroot xscalable yscalable" id="img-7a1a01e5-1">
  <g font-size="3.88" font-family="'PT Sans','Helvetica Neue','Helvetica',sans-serif" fill="#000000" stroke="#000000" stroke-opacity="0.000" id="img-7a1a01e5-2">
    <text x="109.75" y="140.79" text-anchor="middle" dy="0.6em">generation number</text>
  </g>
  <g class="guide xlabels" font-size="2.82" font-family="'PT Sans Caption','Helvetica Neue','Helvetica',sans-serif" fill="#000000" id="img-7a1a01e5-3">
    <text x="23.31" y="134.11" text-anchor="middle" dy="0.6em">0</text>
    <text x="57.88" y="134.11" text-anchor="middle" dy="0.6em">100</text>
    <text x="92.46" y="134.11" text-anchor="middle" dy="0.6em">200</text>
    <text x="127.04" y="134.11" text-anchor="middle" dy="0.6em">300</text>
    <text x="161.62" y="134.11" text-anchor="middle" dy="0.6em">400</text>
    <text x="196.2" y="134.11" text-anchor="middle" dy="0.6em">500</text>
  </g>
<g clip-path="url(#img-7a1a01e5-4)">
  <g id="img-7a1a01e5-5">
    <g pointer-events="visible" opacity="1" fill="#FFFFFF" stroke="#000000" stroke-opacity="0.000" class="guide background" id="img-7a1a01e5-6">
      <rect x="21.31" y="10.61" width="176.89" height="122.5"/>
    </g>
    <g class="guide ygridlines xfixed" stroke-dasharray="0.5,0.5" stroke-width="0.2" stroke="#808080" id="img-7a1a01e5-7">
      <path fill="none" d="M21.31,131.11 L 198.2 131.11"/>
      <path fill="none" d="M21.31,71.86 L 198.2 71.86"/>
      <path fill="none" d="M21.31,12.61 L 198.2 12.61"/>
    </g>
    <g class="guide xgridlines yfixed" stroke-dasharray="0.5,0.5" stroke-width="0.2" stroke="#808080" id="img-7a1a01e5-8">
      <path fill="none" d="M23.31,10.61 L 23.31 133.11"/>
      <path fill="none" d="M57.88,10.61 L 57.88 133.11"/>
      <path fill="none" d="M92.46,10.61 L 92.46 133.11"/>
      <path fill="none" d="M127.04,10.61 L 127.04 133.11"/>
      <path fill="none" d="M161.62,10.61 L 161.62 133.11"/>
      <path fill="none" d="M196.2,10.61 L 196.2 133.11"/>
    </g>
    <g class="plotpanel" id="img-7a1a01e5-9">
      <g stroke-width="0.3" fill="#000000" fill-opacity="0.000" class="geometry" stroke-dasharray="none" stroke="#3288BD" id="img-7a1a01e5-10">
        <path fill="none" d="M23.65,77.79 L 24 77.79 24.34 75.06 24.69 75.18 25.03 74.35 25.38 74.83 25.73 70.68 26.07 69.26 26.42 72.81 26.76 74.83 27.11 73.88 27.45 67.83 27.8 67.83 28.15 68.31 28.49 67.72 28.84 70.44 29.18 70.09 29.53 71.74 29.88 70.56 30.22 67.72 30.57 66.89 30.91 65.82 31.26 64.16 31.6 63.81 31.95 63.21 32.3 62.98 32.64 62.03 32.99 60.13 33.33 62.74 33.68 64.75 34.02 62.86 34.37 60.84 34.72 60.13 35.06 60.01 35.41 61.32 35.75 60.01 36.1 58.47 36.45 59.06 36.79 57.76 37.14 55.15 37.48 57.05 37.83 59.06 38.17 57.76 38.52 57.76 38.87 57.64 39.21 58.71 39.56 55.39 39.9 55.63 40.25 59.3 40.59 58.83 40.94 55.51 41.29 57.41 41.63 59.18 41.98 58.95 42.32 53.97 42.67 53.73 43.02 55.39 43.36 54.56 43.71 57.64 44.05 58.24 44.4 58.95 44.74 58.35 45.09 58.59 45.44 59.78 45.78 59.54 46.13 58.95 46.47 58.35 46.82 56.81 47.16 55.63 47.51 58.35 47.86 58.83 48.2 59.06 48.55 57.52 48.89 57.17 49.24 57.88 49.59 58.59 49.93 58.71 50.28 58.83 50.62 61.44 50.97 59.18 51.31 57.52 51.66 55.98 52.01 54.56 52.35 54.68 52.7 55.63 53.04 57.17 53.39 58 53.73 56.46 54.08 58.83 54.43 58.35 54.77 56.22 55.12 56.1 55.46 57.17 55.81 58.35 56.16 57.05 56.5 58.59 56.85 60.49 57.19 59.54 57.54 59.42 57.88 59.3 58.23 60.01 58.58 62.62 58.92 61.08 59.27 60.61 59.61 62.74 59.96 64.04 60.3 62.98 60.65 66.18 61 67.36 61.34 64.87 61.69 64.87 62.03 65.46 62.38 64.75 62.73 64.16 63.07 64.63 63.42 66.06 63.76 67.6 64.11 69.73 64.45 72.1 64.8 71.98 65.15 72.22 65.49 75.3 65.84 71.27 66.18 74.11 66.53 74.94 66.87 74.83 67.22 76.84 67.57 76.6 67.91 77.91 68.26 77.31 68.6 77.2 68.95 81.58 69.3 80.63 69.64 82.17 69.99 82.29 70.33 82.41 70.68 80.99 71.02 82.29 71.37 83.71 71.72 80.99 72.06 81.11 72.41 76.48 72.75 74.83 73.1 73.52 73.44 73.17 73.79 72.81 74.14 71.63 74.48 71.27 74.83 72.22 75.17 73.05 75.52 70.8 75.87 67.6 76.21 66.18 76.56 67.24 76.9 67.95 77.25 65.23 77.59 65.94 77.94 68.66 78.29 71.39 78.63 70.56 78.98 74.11 79.32 74.11 79.67 74 80.01 74.59 80.36 71.63 80.71 72.34 81.05 74.59 81.4 72.69 81.74 73.88 82.09 75.66 82.44 78.14 82.78 78.03 83.13 75.66 83.47 75.18 83.82 73.17 84.16 74.59 84.51 75.3 84.86 76.84 85.2 77.43 85.55 77.91 85.89 77.31 86.24 78.5 86.58 81.58 86.93 82.53 87.28 82.65 87.62 82.53 87.97 80.16 88.31 79.8 88.66 77.43 89.01 77.43 89.35 76.6 89.7 78.14 90.04 78.38 90.39 79.57 90.73 77.55 91.08 81.11 91.43 77.67 91.77 78.03 92.12 75.54 92.46 73.17 92.81 72.93 93.15 75.77 93.5 72.46 93.85 73.64 94.19 75.54 94.54 75.89 94.88 76.01 95.23 76.6 95.58 77.2 95.92 78.38 96.27 78.5 96.61 77.08 96.96 75.3 97.3 76.25 97.65 74.71 98 73.64 98.34 72.34 98.69 73.4 99.03 74.59 99.38 71.51 99.72 72.46 100.07 71.74 100.42 74.59 100.76 75.77 101.11 75.06 101.45 75.06 101.8 76.13 102.15 76.72 102.49 77.2 102.84 78.38 103.18 79.33 103.53 79.57 103.87 79.33 104.22 80.87 104.57 81.94 104.91 80.63 105.26 83.12 105.6 81.7 105.95 82.53 106.29 83 106.64 83 106.99 83.24 107.33 81.94 107.68 83.71 108.02 82.17 108.37 80.75 108.72 80.04 109.06 81.58 109.41 84.66 109.75 81.46 110.1 80.04 110.44 81.23 110.79 79.45 111.14 80.16 111.48 77.31 111.83 76.37 112.17 78.14 112.52 78.5 112.86 79.92 113.21 79.92 113.56 76.84 113.9 75.89 114.25 74.94 114.59 75.18 114.94 76.84 115.29 76.13 115.63 78.38 115.98 79.09 116.32 82.29 116.67 83.6 117.01 83 117.36 83.36 117.71 81.46 118.05 82.88 118.4 82.05 118.74 79.8 119.09 78.38 119.43 80.04 119.78 78.86 120.13 80.51 120.47 79.21 120.82 81.11 121.16 82.17 121.51 79.33 121.86 77.43 122.2 73.76 122.55 70.44 122.89 69.26 123.24 69.14 123.58 68.9 123.93 69.97 124.28 71.51 124.62 72.46 124.97 70.56 125.31 71.74 125.66 70.68 126 72.1 126.35 71.51 126.7 71.03 127.04 70.32 127.39 69.97 127.73 69.85 128.08 71.03 128.43 70.56 128.77 72.1 129.12 75.06 129.46 73.4 129.81 73.29 130.15 74.83 130.5 76.84 130.85 77.91 131.19 79.68 131.54 80.16 131.88 78.97 132.23 75.42 132.57 76.25 132.92 76.84 133.27 76.13 133.61 73.05 133.96 71.63 134.3 73.05 134.65 74 135 78.03 135.34 77.43 135.69 74.35 136.03 72.69 136.38 72.93 136.72 74.47 137.07 73.17 137.42 72.57 137.76 73.64 138.11 71.51 138.45 68.66 138.8 65.23 139.14 65.35 139.49 66.89 139.84 67.24 140.18 64.28 140.53 67.36 140.87 65.7 141.22 67 141.57 68.9 141.91 66.89 142.26 64.04 142.6 63.69 142.95 65.58 143.29 65.46 143.64 67 143.99 64.75 144.33 66.41 144.68 67.48 145.02 65.23 145.37 61.67 145.71 62.38 146.06 61.44 146.41 58.35 146.75 54.32 147.1 55.87 147.44 56.22 147.79 59.06 148.14 61.2 148.48 61.67 148.83 63.92 149.17 64.75 149.52 65.94 149.86 68.55 150.21 69.97 150.56 71.98 150.9 72.22 151.25 70.8 151.59 72.93 151.94 73.64 152.28 74.23 152.63 76.6 152.98 76.6 153.32 76.25 153.67 78.74 154.01 76.25 154.36 76.13 154.71 73.05 155.05 71.74 155.4 74.35 155.74 73.4 156.09 74.11 156.43 74.47 156.78 70.09 157.13 70.44 157.47 70.92 157.82 71.98 158.16 76.37 158.51 75.89 158.85 75.66 159.2 75.18 159.55 75.06 159.89 76.01 160.24 78.62 160.58 78.03 160.93 80.51 161.28 83.83 161.62 84.31 161.97 84.31 162.31 82.88 162.66 78.38 163 78.14 163.35 75.66 163.7 76.13 164.04 75.18 164.39 75.42 164.73 73.52 165.08 73.88 165.42 77.2 165.77 76.37 166.12 78.03 166.46 75.3 166.81 74.11 167.15 77.67 167.5 78.38 167.85 82.77 168.19 84.42 168.54 83.36 168.88 84.19 169.23 83.83 169.57 82.65 169.92 83.83 170.27 84.9 170.61 84.66 170.96 85.25 171.3 81.94 171.65 81.94 171.99 83.6 172.34 84.42 172.69 81.11 173.03 81.34 173.38 81.58 173.72 85.02 174.07 87.62 174.42 86.79 174.76 85.61 175.11 85.02 175.45 83.83 175.8 84.31 176.14 82.77 176.49 81.46 176.84 80.63 177.18 78.62 177.53 77.43 177.87 74.71 178.22 74.71 178.56 76.48 178.91 74.11 179.26 74.11 179.6 73.76 179.95 75.06 180.29 76.25 180.64 76.6 180.99 78.03 181.33 73.88 181.68 77.79 182.02 77.43 182.37 78.03 182.71 78.26 183.06 78.74 183.41 79.57 183.75 77.79 184.1 79.92 184.44 80.16 184.79 81.46 185.13 81.11 185.48 82.41 185.83 80.75 186.17 79.45 186.52 80.16 186.86 84.07 187.21 84.31 187.56 85.73 187.9 87.03 188.25 88.34 188.59 86.56 188.94 86.44 189.28 86.91 189.63 85.73 189.98 88.34 190.32 86.08 190.67 86.56 191.01 85.02 191.36 85.49 191.7 85.14 192.05 85.25 192.4 87.86 192.74 87.27 193.09 85.85 193.43 85.49 193.78 85.25 194.13 84.07 194.47 83.48 194.82 84.66 195.16 84.42 195.51 82.77 195.85 81.58 196.2 81.82"/>
      </g>
      <g stroke-width="0.3" fill="#000000" fill-opacity="0.000" class="geometry" stroke-dasharray="none" stroke="#66C2A5" id="img-7a1a01e5-11">
        <path fill="none" d="M23.65,77.79 L 24 77.2 24.34 79.57 24.69 76.13 25.03 76.25 25.38 79.33 25.73 78.74 26.07 77.79 26.42 78.26 26.76 80.99 27.11 78.86 27.45 80.51 27.8 81.34 28.15 80.16 28.49 80.28 28.84 81.23 29.18 80.75 29.53 81.46 29.88 79.92 30.22 80.51 30.57 83 30.91 84.42 31.26 85.37 31.6 86.08 31.95 85.25 32.3 83.6 32.64 82.88 32.99 81.94 33.33 82.53 33.68 81.82 34.02 81.34 34.37 82.53 34.72 83 35.06 85.25 35.41 87.62 35.75 94.02 36.1 91.3 36.45 90.71 36.79 92.72 37.14 92.84 37.48 93.31 37.83 92.36 38.17 96.04 38.52 94.38 38.87 93.31 39.21 94.62 39.56 96.04 39.9 92.01 40.25 90.82 40.59 88.45 40.94 87.51 41.29 89.16 41.63 90.11 41.98 88.1 42.32 86.2 42.67 85.85 43.02 85.73 43.36 88.57 43.71 88.57 44.05 87.86 44.4 88.81 44.74 87.86 45.09 86.32 45.44 83.71 45.78 82.77 46.13 82.53 46.47 82.88 46.82 83.6 47.16 83.6 47.51 85.25 47.86 83.95 48.2 84.9 48.55 83.71 48.89 81.7 49.24 82.65 49.59 83.24 49.93 82.53 50.28 84.07 50.62 83.71 50.97 82.53 51.31 84.9 51.66 84.78 52.01 83.71 52.35 82.29 52.7 83.24 53.04 84.42 53.39 83.83 53.73 86.91 54.08 90.59 54.43 88.1 54.77 87.03 55.12 84.78 55.46 88.34 55.81 88.93 56.16 89.88 56.5 87.03 56.85 86.68 57.19 86.2 57.54 85.14 57.88 88.22 58.23 88.69 58.58 90.35 58.92 87.51 59.27 87.03 59.61 89.64 59.96 89.88 60.3 89.64 60.65 90.71 61 92.84 61.34 93.31 61.69 93.43 62.03 92.36 62.38 95.09 62.73 94.5 63.07 93.67 63.42 94.5 63.76 93.67 64.11 93.19 64.45 89.99 64.8 89.4 65.15 88.34 65.49 85.49 65.84 84.07 66.18 84.07 66.53 85.14 66.87 85.85 67.22 87.27 67.57 89.76 67.91 90.11 68.26 91.77 68.6 94.26 68.95 95.09 69.3 95.09 69.64 97.1 69.99 95.21 70.33 94.62 70.68 93.55 71.02 93.19 71.37 92.48 71.72 93.08 72.06 93.43 72.41 91.65 72.75 90.71 73.1 86.79 73.44 85.73 73.79 83.36 74.14 82.88 74.48 82.77 74.83 81.94 75.17 84.66 75.52 87.03 75.87 86.44 76.21 86.2 76.56 87.03 76.9 86.68 77.25 86.91 77.59 91.89 77.94 92.13 78.29 90.71 78.63 93.43 78.98 94.26 79.32 94.62 79.67 94.38 80.01 92.72 80.36 95.56 80.71 95.56 81.05 91.53 81.4 92.36 81.74 92.6 82.09 93.19 82.44 94.14 82.78 94.26 83.13 94.73 83.47 96.63 83.82 96.39 84.16 97.7 84.51 96.63 84.86 95.56 85.2 94.85 85.55 93.43 85.89 95.33 86.24 96.16 86.58 94.85 86.93 96.87 87.28 96.75 87.62 98.53 87.97 101.13 88.31 98.65 88.66 98.88 89.01 96.99 89.35 94.38 89.7 95.68 90.04 96.39 90.39 93.31 90.73 95.21 91.08 92.48 91.43 92.13 91.77 91.89 92.12 91.3 92.46 90.82 92.81 89.64 93.15 95.21 93.5 96.75 93.85 99.36 94.19 101.49 94.54 99.71 94.88 98.65 95.23 96.04 95.58 99.71 95.92 99.24 96.27 97.34 96.61 98.41 96.96 98.53 97.3 98.53 97.65 95.21 98 96.99 98.34 97.22 98.69 96.28 99.03 97.93 99.38 100.19 99.72 98.05 100.07 92.01 100.42 89.76 100.76 90.11 101.11 92.84 101.45 93.9 101.8 93.43 102.15 93.43 102.49 92.36 102.84 94.5 103.18 96.87 103.53 96.16 103.87 99.71 104.22 99.59 104.57 102.67 104.91 102.79 105.26 103.15 105.6 101.73 105.95 102.79 106.29 102.2 106.64 101.25 106.99 101.49 107.33 96.99 107.68 99.12 108.02 100.9 108.37 98.29 108.72 98.88 109.06 97.34 109.41 97.82 109.75 97.22 110.1 98.29 110.44 99.83 110.79 99.36 111.14 99.12 111.48 101.13 111.83 102.08 112.17 100.66 112.52 101.61 112.86 98.65 113.21 100.42 113.56 103.15 113.9 101.02 114.25 101.13 114.59 102.32 114.94 101.84 115.29 98.41 115.63 97.34 115.98 96.87 116.32 94.85 116.67 94.5 117.01 92.48 117.36 91.77 117.71 93.55 118.05 92.6 118.4 93.19 118.74 90.94 119.09 91.3 119.43 90.35 119.78 92.48 120.13 92.96 120.47 94.97 120.82 94.73 121.16 91.65 121.51 93.19 121.86 95.45 122.2 96.99 122.55 96.28 122.89 95.45 123.24 94.97 123.58 95.92 123.93 94.38 124.28 94.97 124.62 93.55 124.97 91.65 125.31 92.36 125.66 93.19 126 95.21 126.35 96.04 126.7 98.53 127.04 97.7 127.39 98.53 127.73 101.13 128.08 101.73 128.43 101.73 128.77 100.19 129.12 98.76 129.46 99.83 129.81 101.02 130.15 101.61 130.5 102.32 130.85 100.54 131.19 98.88 131.54 100.9 131.88 101.25 132.23 98.65 132.57 96.16 132.92 95.92 133.27 96.39 133.61 96.28 133.96 95.56 134.3 97.34 134.65 97.34 135 96.16 135.34 96.87 135.69 95.92 136.03 96.63 136.38 97.58 136.72 97.93 137.07 98.53 137.42 97.7 137.76 94.85 138.11 94.62 138.45 97.22 138.8 96.51 139.14 96.39 139.49 95.45 139.84 96.28 140.18 95.68 140.53 95.45 140.87 99.36 141.22 99.12 141.57 98.76 141.91 96.99 142.26 94.26 142.6 94.02 142.95 92.84 143.29 93.08 143.64 95.68 143.99 97.93 144.33 98.05 144.68 98.41 145.02 96.16 145.37 96.63 145.71 94.26 146.06 94.85 146.41 94.62 146.75 95.45 147.1 97.46 147.44 100.54 147.79 101.02 148.14 104.69 148.48 106.94 148.83 103.62 149.17 103.03 149.52 103.86 149.86 106.94 150.21 106.47 150.56 102.91 150.9 102.32 151.25 103.86 151.59 103.98 151.94 104.69 152.28 103.39 152.63 105.87 152.98 109.19 153.32 107.41 153.67 106.94 154.01 106.7 154.36 108.95 154.71 109.55 155.05 112.27 155.4 110.73 155.74 113.46 156.09 112.15 156.43 112.87 156.78 113.22 157.13 114.29 157.47 112.39 157.82 110.38 158.16 110.14 158.51 112.98 158.85 114.29 159.2 113.34 159.55 112.15 159.89 110.38 160.24 109.31 160.58 110.5 160.93 110.61 161.28 112.27 161.62 112.39 161.97 111.09 162.31 110.97 162.66 111.8 163 114.17 163.35 116.66 163.7 116.07 164.04 116.78 164.39 119.26 164.73 120.57 165.08 119.98 165.42 118.2 165.77 118.2 166.12 117.84 166.46 116.66 166.81 117.25 167.15 115.95 167.5 115.59 167.85 115.12 168.19 115.12 168.54 114.52 168.88 112.15 169.23 114.29 169.57 116.42 169.92 114.76 170.27 116.07 170.61 117.13 170.96 115.59 171.3 115.12 171.65 114.05 171.99 113.81 172.34 112.75 172.69 112.87 173.03 113.7 173.38 114.05 173.72 114.64 174.07 115.59 174.42 117.25 174.76 117.37 175.11 119.38 175.45 118.67 175.8 118.08 176.14 119.38 176.49 118.55 176.84 119.38 177.18 119.86 177.53 118.08 177.87 116.18 178.22 117.13 178.56 115.71 178.91 115.83 179.26 118.08 179.6 119.38 179.95 117.37 180.29 117.37 180.64 117.61 180.99 118.91 181.33 119.26 181.68 119.62 182.02 117.84 182.37 117.61 182.71 116.07 183.06 117.13 183.41 116.66 183.75 118.2 184.1 118.55 184.44 118.08 184.79 118.44 185.13 116.78 185.48 117.01 185.83 116.66 186.17 117.37 186.52 118.79 186.86 118.44 187.21 117.49 187.56 117.96 187.9 118.91 188.25 118.44 188.59 118.2 188.94 119.15 189.28 118.2 189.63 118.55 189.98 118.91 190.32 118.91 190.67 118.91 191.01 120.45 191.36 120.69 191.7 121.16 192.05 120.69 192.4 119.03 192.74 119.62 193.09 118.55 193.43 118.91 193.78 119.74 194.13 119.5 194.47 119.62 194.82 121.04 195.16 123.29 195.51 121.63 195.85 122.46 196.2 121.63"/>
      </g>
      <g stroke-width="0.3" fill="#000000" fill-opacity="0.000" class="geometry" stroke-dasharray="none" stroke="#ABDDA4" id="img-7a1a01e5-12">
        <path fill="none" d="M23.65,77.79 L 24 74.94 24.34 74.71 24.69 75.54 25.03 77.31 25.38 74.11 25.73 73.64 26.07 77.91 26.42 76.48 26.76 76.72 27.11 75.3 27.45 71.03 27.8 71.03 28.15 72.22 28.49 73.52 28.84 69.02 29.18 69.26 29.53 67 29.88 63.69 30.22 64.52 30.57 65.82 30.91 67.24 31.26 66.18 31.6 63.33 31.95 60.37 32.3 61.32 32.64 60.13 32.99 61.32 33.33 61.32 33.68 60.37 34.02 60.01 34.37 60.84 34.72 62.15 35.06 62.5 35.41 64.87 35.75 63.92 36.1 62.62 36.45 63.21 36.79 63.09 37.14 60.72 37.48 61.2 37.83 60.37 38.17 58.12 38.52 54.8 38.87 53.97 39.21 55.75 39.56 54.09 39.9 53.73 40.25 52.07 40.59 52.78 40.94 50.53 41.29 49.7 41.63 48.52 41.98 49.47 42.32 53.61 42.67 52.19 43.02 54.92 43.36 53.61 43.71 55.87 44.05 55.27 44.4 54.32 44.74 53.38 45.09 53.73 45.44 53.61 45.78 52.19 46.13 52.9 46.47 54.44 46.82 55.75 47.16 54.92 47.51 54.8 47.86 52.67 48.2 51.13 48.55 51.95 48.89 49.82 49.24 51.95 49.59 52.78 49.93 53.61 50.28 50.89 50.62 52.07 50.97 49.35 51.31 52.78 51.66 50.06 52.01 51.48 52.35 50.77 52.7 51.48 53.04 51.13 53.39 49.7 53.73 47.93 54.08 49.58 54.43 52.19 54.77 52.43 55.12 52.55 55.46 53.61 55.81 51.48 56.16 52.07 56.5 52.07 56.85 50.53 57.19 51.36 57.54 51.13 57.88 48.87 58.23 49.35 58.58 52.31 58.92 51.95 59.27 53.26 59.61 51.48 59.96 51.95 60.3 50.89 60.65 48.52 61 48.28 61.34 48.64 61.69 47.57 62.03 46.5 62.38 45.91 62.73 46.27 63.07 44.13 63.42 40.82 63.76 40.34 64.11 41.29 64.45 41.64 64.8 41.05 65.15 42.12 65.49 43.07 65.84 44.73 66.18 44.13 66.53 42.95 66.87 42 67.22 42.83 67.57 42.59 67.91 42.95 68.26 42.36 68.6 41.41 68.95 42.47 69.3 44.84 69.64 43.66 69.99 45.2 70.33 41.64 70.68 42.24 71.02 41.29 71.37 39.75 71.72 38.92 72.06 37.26 72.41 39.27 72.75 37.85 73.1 36.31 73.44 36.19 73.79 35.6 74.14 34.18 74.48 36.67 74.83 34.77 75.17 34.89 75.52 35.13 75.87 34.53 76.21 34.3 76.56 32.88 76.9 34.06 77.25 34.18 77.59 34.77 77.94 33.35 78.29 33.47 78.63 32.76 78.98 31.81 79.32 32.05 79.67 31.22 80.01 31.69 80.36 30.98 80.71 32.05 81.05 31.34 81.4 32.16 81.74 32.4 82.09 31.69 82.44 30.39 82.78 30.27 83.13 31.1 83.47 30.51 83.82 30.86 84.16 31.1 84.51 31.69 84.86 32.28 85.2 32.76 85.55 31.45 85.89 33.11 86.24 31.93 86.58 32.76 86.93 33.47 87.28 33.47 87.62 32.4 87.97 35.01 88.31 38.45 88.66 39.51 89.01 41.17 89.35 41.53 89.7 41.53 90.04 39.63 90.39 39.87 90.73 38.45 91.08 37.14 91.43 36.31 91.77 37.02 92.12 38.09 92.46 37.85 92.81 37.73 93.15 37.14 93.5 36.55 93.85 37.85 94.19 38.45 94.54 36.19 94.88 36.31 95.23 35.84 95.58 36.19 95.92 35.36 96.27 35.96 96.61 34.42 96.96 33.35 97.3 35.25 97.65 33.82 98 33.35 98.34 34.18 98.69 33.94 99.03 34.53 99.38 35.36 99.72 34.89 100.07 35.6 100.42 37.62 100.76 38.56 101.11 39.99 101.45 40.1 101.8 40.34 102.15 41.05 102.49 40.7 102.84 39.27 103.18 39.99 103.53 39.99 103.87 39.63 104.22 39.39 104.57 38.56 104.91 39.63 105.26 38.92 105.6 40.58 105.95 38.68 106.29 36.67 106.64 36.19 106.99 35.25 107.33 34.3 107.68 35.84 108.02 35.13 108.37 36.08 108.72 36.19 109.06 35.36 109.41 35.96 109.75 35.6 110.1 35.25 110.44 35.84 110.79 38.56 111.14 39.51 111.48 38.68 111.83 39.27 112.17 38.8 112.52 39.75 112.86 41.17 113.21 42 113.56 44.49 113.9 42.24 114.25 41.76 114.59 43.78 114.94 40.93 115.29 40.93 115.63 39.27 115.98 40.1 116.32 39.63 116.67 39.63 117.01 38.8 117.36 39.04 117.71 38.68 118.05 39.51 118.4 40.1 118.74 40.7 119.09 38.92 119.43 38.8 119.78 38.68 120.13 38.56 120.47 39.51 120.82 40.58 121.16 41.29 121.51 42.83 121.86 42.71 122.2 43.66 122.55 42.59 122.89 43.54 123.24 42.12 123.58 40.82 123.93 42.36 124.28 42 124.62 42.47 124.97 40.93 125.31 41.64 125.66 40.93 126 40.58 126.35 38.8 126.7 37.62 127.04 39.87 127.39 38.8 127.73 39.63 128.08 41.05 128.43 39.16 128.77 40.34 129.12 42.83 129.46 38.09 129.81 38.68 130.15 39.87 130.5 40.93 130.85 39.63 131.19 37.62 131.54 36.9 131.88 36.31 132.23 37.14 132.57 37.97 132.92 39.04 133.27 37.02 133.61 36.31 133.96 35.84 134.3 37.62 134.65 36.43 135 34.42 135.34 34.89 135.69 36.67 136.03 38.21 136.38 36.79 136.72 36.9 137.07 36.79 137.42 37.62 137.76 38.21 138.11 38.92 138.45 38.8 138.8 39.75 139.14 39.87 139.49 38.92 139.84 39.16 140.18 38.92 140.53 38.92 140.87 39.04 141.22 39.27 141.57 39.39 141.91 38.21 142.26 35.36 142.6 35.36 142.95 36.9 143.29 36.55 143.64 37.02 143.99 35.84 144.33 35.6 144.68 33.82 145.02 33.71 145.37 33.47 145.71 33.82 146.06 33.35 146.41 32.05 146.75 31.93 147.1 33.47 147.44 31.69 147.79 30.98 148.14 31.1 148.48 30.39 148.83 30.39 149.17 31.69 149.52 30.62 149.86 31.1 150.21 30.62 150.56 29.68 150.9 27.54 151.25 27.78 151.59 27.9 151.94 28.02 152.28 28.25 152.63 28.25 152.98 27.07 153.32 27.42 153.67 27.54 154.01 26.6 154.36 27.42 154.71 26.83 155.05 26.36 155.4 26.12 155.74 26.36 156.09 26.48 156.43 26.6 156.78 25.17 157.13 25.05 157.47 25.05 157.82 25.05 158.16 25.41 158.51 25.41 158.85 25.53 159.2 25.53 159.55 25.53 159.89 26.36 160.24 26.71 160.58 27.42 160.93 27.54 161.28 26.48 161.62 26 161.97 25.53 162.31 25.77 162.66 25.65 163 25.77 163.35 25.41 163.7 25.65 164.04 25.05 164.39 24.94 164.73 24.7 165.08 24.46 165.42 24.82 165.77 24.94 166.12 24.94 166.46 24.94 166.81 25.05 167.15 25.17 167.5 25.05 167.85 24.94 168.19 24.58 168.54 24.7 168.88 24.82 169.23 24.7 169.57 24.82 169.92 25.29 170.27 25.65 170.61 26.12 170.96 25.88 171.3 26 171.65 26 171.99 25.29 172.34 25.41 172.69 25.41 173.03 25.53 173.38 26.12 173.72 26.48 174.07 26.95 174.42 27.07 174.76 28.14 175.11 28.73 175.45 28.85 175.8 28.85 176.14 28.37 176.49 27.9 176.84 28.61 177.18 29.32 177.53 29.79 177.87 30.15 178.22 30.74 178.56 30.86 178.91 30.51 179.26 31.69 179.6 32.76 179.95 33.71 180.29 32.64 180.64 32.28 180.99 31.93 181.33 31.93 181.68 32.76 182.02 32.52 182.37 33.11 182.71 33.71 183.06 33.94 183.41 32.88 183.75 34.89 184.1 35.25 184.44 37.73 184.79 36.31 185.13 37.73 185.48 38.33 185.83 36.19 186.17 35.48 186.52 36.55 186.86 35.01 187.21 36.55 187.56 37.85 187.9 36.9 188.25 37.02 188.59 35.25 188.94 35.01 189.28 38.09 189.63 37.62 189.98 36.9 190.32 37.26 190.67 37.26 191.01 36.43 191.36 36.9 191.7 37.14 192.05 36.9 192.4 37.85 192.74 37.97 193.09 37.97 193.43 37.26 193.78 38.56 194.13 39.75 194.47 39.75 194.82 40.34 195.16 40.93 195.51 42.12 195.85 43.19 196.2 42.71"/>
      </g>
      <g stroke-width="0.3" fill="#000000" fill-opacity="0.000" class="geometry" stroke-dasharray="none" stroke="#E6F598" id="img-7a1a01e5-13">
        <path fill="none" d="M23.65,77.79 L 24 79.33 24.34 83.48 24.69 86.08 25.03 86.32 25.38 86.32 25.73 86.68 26.07 84.07 26.42 82.53 26.76 81.23 27.11 82.05 27.45 81.23 27.8 82.65 28.15 78.14 28.49 76.6 28.84 77.91 29.18 77.79 29.53 76.72 29.88 75.3 30.22 77.08 30.57 75.66 30.91 75.18 31.26 74.94 31.6 74.71 31.95 73.76 32.3 74.47 32.64 75.18 32.99 74.11 33.33 72.1 33.68 71.51 34.02 71.39 34.37 69.85 34.72 69.85 35.06 71.51 35.41 72.69 35.75 72.46 36.1 72.69 36.45 75.3 36.79 78.26 37.14 79.21 37.48 78.74 37.83 78.62 38.17 79.33 38.52 78.97 38.87 75.77 39.21 77.55 39.56 76.96 39.9 78.26 40.25 78.38 40.59 77.2 40.94 78.14 41.29 77.55 41.63 78.38 41.98 79.68 42.32 80.28 42.67 82.05 43.02 84.31 43.36 84.31 43.71 87.15 44.05 87.39 44.4 87.51 44.74 89.76 45.09 90.11 45.44 91.89 45.78 92.96 46.13 94.26 46.47 92.72 46.82 93.43 47.16 91.65 47.51 91.77 47.86 92.25 48.2 91.06 48.55 89.28 48.89 89.16 49.24 89.52 49.59 87.27 49.93 87.15 50.28 86.32 50.62 86.2 50.97 86.56 51.31 88.34 51.66 85.37 52.01 85.14 52.35 85.14 52.7 84.66 53.04 82.29 53.39 84.54 53.73 83.6 54.08 82.29 54.43 85.37 54.77 88.81 55.12 87.98 55.46 88.69 55.81 89.88 56.16 88.93 56.5 90.35 56.85 91.89 57.19 92.48 57.54 90.47 57.88 90.59 58.23 90.11 58.58 90.82 58.92 88.22 59.27 87.51 59.61 86.91 59.96 85.37 60.3 85.02 60.65 85.14 61 85.02 61.34 82.41 61.69 84.78 62.03 86.68 62.38 85.97 62.73 86.08 63.07 85.37 63.42 83 63.76 84.31 64.11 87.03 64.45 90.35 64.8 87.86 65.15 86.79 65.49 88.93 65.84 88.93 66.18 89.52 66.53 88.34 66.87 89.99 67.22 93.08 67.57 91.42 67.91 91.18 68.26 89.52 68.6 88.69 68.95 89.4 69.3 91.3 69.64 88.22 69.99 92.13 70.33 92.01 70.68 92.13 71.02 91.3 71.37 91.18 71.72 93.43 72.06 93.31 72.41 91.89 72.75 88.81 73.1 88.22 73.44 91.3 73.79 92.13 74.14 92.36 74.48 89.88 74.83 89.05 75.17 90.82 75.52 89.88 75.87 86.32 76.21 84.9 76.56 83.95 76.9 81.58 77.25 80.99 77.59 80.28 77.94 82.17 78.29 80.87 78.63 82.65 78.98 83.83 79.32 86.68 79.67 87.15 80.01 88.1 80.36 83.6 80.71 85.61 81.05 87.39 81.4 87.86 81.74 88.69 82.09 91.65 82.44 90.71 82.78 91.3 83.13 89.28 83.47 90.59 83.82 89.16 84.16 87.51 84.51 87.74 84.86 86.79 85.2 83.83 85.55 83.6 85.89 81.94 86.24 81.34 86.58 84.07 86.93 86.79 87.28 87.15 87.62 86.32 87.97 86.08 88.31 83.95 88.66 83.48 89.01 83.83 89.35 83.36 89.7 86.08 90.04 88.81 90.39 88.57 90.73 88.45 91.08 90.47 91.43 90.35 91.77 87.39 92.12 86.44 92.46 87.03 92.81 86.32 93.15 83.36 93.5 82.65 93.85 82.41 94.19 81.82 94.54 81.34 94.88 82.88 95.23 83 95.58 83.24 95.92 82.53 96.27 81.82 96.61 81.11 96.96 80.04 97.3 76.96 97.65 76.48 98 76.84 98.34 75.06 98.69 76.96 99.03 73.52 99.38 73.52 99.72 73.64 100.07 74.35 100.42 73.76 100.76 77.67 101.11 77.31 101.45 75.42 101.8 77.55 102.15 79.57 102.49 82.65 102.84 81.82 103.18 81.7 103.53 83.48 103.87 80.87 104.22 81.7 104.57 82.05 104.91 85.49 105.26 86.68 105.6 87.15 105.95 85.61 106.29 89.64 106.64 90.35 106.99 87.62 107.33 88.1 107.68 87.51 108.02 84.78 108.37 84.54 108.72 86.44 109.06 88.1 109.41 87.39 109.75 87.51 110.1 87.03 110.44 89.52 110.79 89.28 111.14 91.06 111.48 89.99 111.83 88.45 112.17 87.51 112.52 88.93 112.86 91.3 113.21 92.96 113.56 93.31 113.9 94.85 114.25 97.82 114.59 96.75 114.94 95.8 115.29 94.26 115.63 91.89 115.98 85.85 116.32 87.62 116.67 87.15 117.01 88.57 117.36 90.94 117.71 92.84 118.05 91.3 118.4 92.84 118.74 90.47 119.09 91.89 119.43 87.98 119.78 88.57 120.13 88.22 120.47 92.25 120.82 91.65 121.16 93.31 121.51 93.08 121.86 92.25 122.2 90.11 122.55 90.59 122.89 91.3 123.24 93.55 123.58 93.9 123.93 92.84 124.28 94.62 124.62 93.31 124.97 92.84 125.31 92.72 125.66 92.84 126 94.85 126.35 92.6 126.7 94.14 127.04 94.14 127.39 94.85 127.73 96.39 128.08 97.7 128.43 96.63 128.77 92.96 129.12 93.67 129.46 94.26 129.81 92.01 130.15 91.53 130.5 93.55 130.85 90.94 131.19 91.53 131.54 92.72 131.88 92.25 132.23 94.73 132.57 93.55 132.92 92.72 133.27 93.67 133.61 91.18 133.96 90.23 134.3 91.3 134.65 93.67 135 94.62 135.34 90.71 135.69 91.18 136.03 87.86 136.38 90.47 136.72 89.88 137.07 92.13 137.42 93.31 137.76 93.43 138.11 95.8 138.45 97.22 138.8 96.99 139.14 94.85 139.49 96.28 139.84 95.09 140.18 95.21 140.53 97.22 140.87 98.76 141.22 98.17 141.57 94.02 141.91 90.82 142.26 91.06 142.6 89.64 142.95 91.65 143.29 93.55 143.64 91.06 143.99 90.82 144.33 90.59 144.68 89.16 145.02 91.3 145.37 88.69 145.71 88.57 146.06 93.9 146.41 94.38 146.75 94.97 147.1 96.51 147.44 95.21 147.79 92.84 148.14 92.36 148.48 95.8 148.83 95.92 149.17 91.77 149.52 87.98 149.86 88.81 150.21 90.94 150.56 93.55 150.9 92.13 151.25 91.77 151.59 91.65 151.94 92.01 152.28 93.08 152.63 92.01 152.98 89.64 153.32 89.99 153.67 94.02 154.01 94.97 154.36 93.79 154.71 93.9 155.05 93.31 155.4 94.26 155.74 97.1 156.09 100.54 156.43 99.12 156.78 95.33 157.13 97.22 157.47 94.62 157.82 93.55 158.16 92.6 158.51 94.5 158.85 93.43 159.2 91.18 159.55 91.3 159.89 90.94 160.24 87.15 160.58 88.22 160.93 86.68 161.28 84.78 161.62 88.1 161.97 83.83 162.31 84.66 162.66 83.12 163 85.61 163.35 86.91 163.7 85.49 164.04 84.78 164.39 87.27 164.73 86.08 165.08 87.15 165.42 83.12 165.77 83.12 166.12 83.36 166.46 85.25 166.81 85.49 167.15 85.73 167.5 84.31 167.85 83.48 168.19 83.48 168.54 82.88 168.88 81.34 169.23 82.17 169.57 82.77 169.92 85.02 170.27 86.79 170.61 85.73 170.96 85.37 171.3 87.51 171.65 85.61 171.99 84.42 172.34 82.41 172.69 85.49 173.03 82.88 173.38 87.03 173.72 83.36 174.07 80.28 174.42 81.82 174.76 80.99 175.11 82.29 175.45 82.88 175.8 83.95 176.14 84.78 176.49 84.19 176.84 83.95 177.18 80.75 177.53 78.5 177.87 77.79 178.22 75.18 178.56 78.97 178.91 80.4 179.26 80.51 179.6 82.53 179.95 83.71 180.29 86.08 180.64 85.73 180.99 87.74 181.33 85.49 181.68 84.31 182.02 81.82 182.37 80.87 182.71 80.63 183.06 79.92 183.41 80.63 183.75 82.65 184.1 82.29 184.44 84.78 184.79 89.28 185.13 91.3 185.48 91.3 185.83 92.13 186.17 94.5 186.52 95.68 186.86 95.8 187.21 94.97 187.56 96.16 187.9 92.96 188.25 90.59 188.59 90.47 188.94 89.28 189.28 89.88 189.63 87.86 189.98 89.76 190.32 89.88 190.67 91.89 191.01 92.25 191.36 93.79 191.7 93.08 192.05 92.6 192.4 90.94 192.74 91.18 193.09 92.72 193.43 92.84 193.78 91.65 194.13 92.6 194.47 90.35 194.82 90.82 195.16 89.28 195.51 90.82 195.85 92.96 196.2 94.38"/>
      </g>
      <g stroke-width="0.3" fill="#000000" fill-opacity="0.000" class="geometry" stroke-dasharray="none" stroke="#FFFFBF" id="img-7a1a01e5-14">
        <path fill="none" d="M23.65,77.79 L 24 76.72 24.34 79.68 24.69 80.04 25.03 78.14 25.38 75.42 25.73 72.69 26.07 71.03 26.42 72.22 26.76 70.09 27.11 68.19 27.45 71.27 27.8 68.9 28.15 68.07 28.49 63.92 28.84 64.4 29.18 65.58 29.53 64.4 29.88 63.33 30.22 60.01 30.57 60.37 30.91 63.21 31.26 62.5 31.6 62.03 31.95 61.44 32.3 65.94 32.64 67.24 32.99 64.87 33.33 63.57 33.68 61.32 34.02 63.57 34.37 64.99 34.72 64.87 35.06 64.4 35.41 62.98 35.75 63.09 36.1 62.15 36.45 60.25 36.79 59.54 37.14 59.78 37.48 63.09 37.83 64.52 38.17 63.69 38.52 64.63 38.87 67.95 39.21 69.85 39.56 69.73 39.9 68.66 40.25 71.98 40.59 74.59 40.94 75.06 41.29 76.25 41.63 74 41.98 76.25 42.32 76.37 42.67 76.37 43.02 78.14 43.36 75.3 43.71 77.2 44.05 77.55 44.4 77.43 44.74 79.45 45.09 80.04 45.44 79.09 45.78 75.54 46.13 73.52 46.47 73.64 46.82 76.72 47.16 75.66 47.51 75.89 47.86 77.43 48.2 76.13 48.55 75.06 48.89 76.37 49.24 73.52 49.59 73.52 49.93 74.47 50.28 72.22 50.62 71.63 50.97 70.92 51.31 70.8 51.66 73.17 52.01 71.74 52.35 72.34 52.7 74.23 53.04 73.88 53.39 73.52 53.73 73.64 54.08 71.39 54.43 71.15 54.77 68.78 55.12 69.02 55.46 64.52 55.81 62.62 56.16 62.74 56.5 63.33 56.85 65.23 57.19 66.18 57.54 64.75 57.88 63.33 58.23 62.86 58.58 62.03 58.92 62.86 59.27 62.5 59.61 60.72 59.96 60.49 60.3 60.37 60.65 61.44 61 59.89 61.34 59.66 61.69 61.08 62.03 60.72 62.38 61.67 62.73 59.89 63.07 60.37 63.42 58.24 63.76 56.69 64.11 55.39 64.45 56.34 64.8 58 65.15 58.59 65.49 61.32 65.84 61.2 66.18 64.99 66.53 65.58 66.87 65.94 67.22 64.28 67.57 64.04 67.91 68.19 68.26 68.07 68.6 69.26 68.95 70.2 69.3 70.68 69.64 72.57 69.99 69.85 70.33 67.12 70.68 65.58 71.02 67.6 71.37 68.43 71.72 69.37 72.06 71.15 72.41 71.15 72.75 71.27 73.1 71.86 73.44 71.98 73.79 74.83 74.14 75.77 74.48 73.17 74.83 73.88 75.17 73.64 75.52 74.11 75.87 73.76 76.21 70.68 76.56 69.02 76.9 69.49 77.25 69.49 77.59 70.92 77.94 72.46 78.29 72.46 78.63 66.77 78.98 68.55 79.32 67 79.67 65.82 80.01 63.45 80.36 64.63 80.71 65.23 81.05 63.81 81.4 64.04 81.74 68.31 82.09 67.72 82.44 69.85 82.78 69.73 83.13 70.68 83.47 70.32 83.82 70.56 84.16 68.9 84.51 68.9 84.86 66.89 85.2 64.52 85.55 67.6 85.89 68.31 86.24 72.1 86.58 73.52 86.93 76.6 87.28 76.96 87.62 80.16 87.97 79.09 88.31 76.84 88.66 75.54 89.01 77.08 89.35 72.57 89.7 75.06 90.04 73.76 90.39 73.05 90.73 74.11 91.08 74.94 91.43 74.23 91.77 77.43 92.12 78.03 92.46 81.11 92.81 78.5 93.15 78.14 93.5 75.42 93.85 75.89 94.19 76.6 94.54 77.91 94.88 77.67 95.23 80.04 95.58 79.8 95.92 80.51 96.27 80.16 96.61 81.11 96.96 85.61 97.3 84.78 97.65 84.42 98 83.95 98.34 82.05 98.69 78.86 99.03 79.57 99.38 77.08 99.72 80.16 100.07 80.51 100.42 79.21 100.76 76.37 101.11 76.72 101.45 77.91 101.8 75.42 102.15 76.6 102.49 77.31 102.84 74 103.18 74.47 103.53 73.29 103.87 72.93 104.22 72.46 104.57 71.98 104.91 73.4 105.26 74.23 105.6 72.34 105.95 73.17 106.29 73.17 106.64 73.88 106.99 73.64 107.33 70.92 107.68 71.74 108.02 73.52 108.37 74 108.72 76.48 109.06 76.48 109.41 75.06 109.75 77.91 110.1 80.04 110.44 81.11 110.79 79.92 111.14 80.87 111.48 80.04 111.83 80.87 112.17 79.68 112.52 80.28 112.86 78.86 113.21 76.72 113.56 75.3 113.9 74.59 114.25 73.76 114.59 74.59 114.94 71.27 115.29 72.57 115.63 72.81 115.98 71.03 116.32 72.57 116.67 71.98 117.01 71.86 117.36 71.03 117.71 72.1 118.05 71.51 118.4 71.74 118.74 71.63 119.09 71.86 119.43 72.22 119.78 73.29 120.13 73.05 120.47 75.3 120.82 76.01 121.16 78.03 121.51 80.75 121.86 80.63 122.2 77.91 122.55 79.21 122.89 78.14 123.24 77.31 123.58 80.99 123.93 83.24 124.28 82.41 124.62 81.94 124.97 80.04 125.31 84.07 125.66 84.42 126 85.97 126.35 87.74 126.7 89.88 127.04 91.65 127.39 92.48 127.73 90.47 128.08 91.77 128.43 88.57 128.77 85.25 129.12 82.65 129.46 82.65 129.81 85.49 130.15 87.51 130.5 90.47 130.85 90.71 131.19 88.81 131.54 87.27 131.88 84.54 132.23 81.7 132.57 83.71 132.92 80.28 133.27 81.7 133.61 86.44 133.96 87.15 134.3 87.74 134.65 87.15 135 86.79 135.34 86.91 135.69 87.74 136.03 90.35 136.38 91.65 136.72 90.35 137.07 91.77 137.42 89.28 137.76 92.48 138.11 89.99 138.45 88.69 138.8 89.64 139.14 86.79 139.49 85.37 139.84 83.12 140.18 84.42 140.53 83.95 140.87 84.19 141.22 85.25 141.57 83 141.91 79.57 142.26 76.72 142.6 78.03 142.95 77.91 143.29 76.72 143.64 79.92 143.99 78.74 144.33 77.67 144.68 75.89 145.02 73.17 145.37 73.05 145.71 72.81 146.06 72.1 146.41 74.94 146.75 71.74 147.1 70.44 147.44 71.98 147.79 73.64 148.14 71.39 148.48 72.57 148.83 73.17 149.17 72.57 149.52 76.13 149.86 74.59 150.21 73.52 150.56 75.54 150.9 77.79 151.25 79.45 151.59 80.99 151.94 80.04 152.28 80.51 152.63 78.86 152.98 77.31 153.32 77.55 153.67 77.55 154.01 76.48 154.36 78.14 154.71 77.43 155.05 80.04 155.4 81.94 155.74 81.58 156.09 83 156.43 84.19 156.78 84.19 157.13 85.14 157.47 84.54 157.82 83.12 158.16 84.07 158.51 83.24 158.85 83.12 159.2 82.41 159.55 86.44 159.89 85.14 160.24 85.61 160.58 85.37 160.93 85.49 161.28 87.86 161.62 85.73 161.97 82.29 162.31 83.71 162.66 82.17 163 81.11 163.35 80.28 163.7 78.14 164.04 78.97 164.39 76.72 164.73 79.68 165.08 79.8 165.42 80.75 165.77 81.46 166.12 84.31 166.46 87.15 166.81 86.91 167.15 86.08 167.5 86.91 167.85 86.91 168.19 90.47 168.54 87.86 168.88 88.69 169.23 87.62 169.57 85.97 169.92 84.42 170.27 84.78 170.61 84.42 170.96 85.49 171.3 86.08 171.65 84.66 171.99 83.24 172.34 83.83 172.69 85.02 173.03 81.34 173.38 78.38 173.72 81.94 174.07 83.24 174.42 85.85 174.76 86.08 175.11 86.79 175.45 85.97 175.8 84.42 176.14 85.97 176.49 89.4 176.84 91.65 177.18 90.47 177.53 93.9 177.87 93.19 178.22 94.26 178.56 95.8 178.91 96.75 179.26 100.07 179.6 103.15 179.95 102.08 180.29 104.69 180.64 103.86 180.99 100.9 181.33 103.03 181.68 103.27 182.02 102.56 182.37 104.1 182.71 103.39 183.06 101.13 183.41 100.78 183.75 100.78 184.1 102.32 184.44 101.49 184.79 97.93 185.13 97.46 185.48 97.1 185.83 98.65 186.17 98.76 186.52 103.15 186.86 104.93 187.21 105.99 187.56 105.4 187.9 105.52 188.25 104.93 188.59 107.18 188.94 108.24 189.28 107.53 189.63 108.48 189.98 107.89 190.32 106.58 190.67 103.98 191.01 105.04 191.36 103.98 191.7 101.73 192.05 98.41 192.4 95.09 192.74 96.87 193.09 92.36 193.43 92.01 193.78 94.85 194.13 92.25 194.47 92.13 194.82 93.19 195.16 91.42 195.51 90.59 195.85 90.11 196.2 92.48"/>
      </g>
      <g stroke-width="0.3" fill="#000000" fill-opacity="0.000" class="geometry" stroke-dasharray="none" stroke="#FEE08B" id="img-7a1a01e5-15">
        <path fill="none" d="M23.65,77.79 L 24 78.5 24.34 81.34 24.69 81.7 25.03 84.31 25.38 84.19 25.73 82.53 26.07 81.34 26.42 77.08 26.76 77.08 27.11 77.08 27.45 74.94 27.8 75.66 28.15 77.43 28.49 77.79 28.84 77.08 29.18 80.4 29.53 82.65 29.88 83.83 30.22 84.66 30.57 85.25 30.91 85.73 31.26 87.86 31.6 86.79 31.95 83.95 32.3 86.2 32.64 84.9 32.99 82.17 33.33 82.41 33.68 84.31 34.02 86.32 34.37 83.24 34.72 81.34 35.06 80.99 35.41 81.11 35.75 82.53 36.1 81.7 36.45 80.99 36.79 81.58 37.14 83.95 37.48 81.7 37.83 82.53 38.17 82.41 38.52 80.99 38.87 81.94 39.21 81.23 39.56 82.88 39.9 83.24 40.25 82.77 40.59 84.66 40.94 87.27 41.29 87.39 41.63 87.98 41.98 91.06 42.32 91.89 42.67 91.42 43.02 91.89 43.36 92.36 43.71 91.18 44.05 92.72 44.4 91.53 44.74 90.23 45.09 87.15 45.44 85.85 45.78 86.68 46.13 88.34 46.47 85.73 46.82 82.53 47.16 78.74 47.51 75.89 47.86 76.25 48.2 76.48 48.55 73.88 48.89 73.29 49.24 73.88 49.59 75.06 49.93 76.72 50.28 75.89 50.62 73.4 50.97 71.27 51.31 70.2 51.66 72.57 52.01 74.35 52.35 75.18 52.7 77.79 53.04 76.37 53.39 76.96 53.73 76.37 54.08 75.3 54.43 76.37 54.77 75.77 55.12 74.59 55.46 73.4 55.81 77.67 56.16 77.67 56.5 78.5 56.85 78.14 57.19 77.08 57.54 75.54 57.88 74.23 58.23 75.42 58.58 77.79 58.92 75.77 59.27 71.63 59.61 72.81 59.96 71.86 60.3 73.76 60.65 73.4 61 75.89 61.34 77.31 61.69 78.03 62.03 77.79 62.38 77.67 62.73 78.38 63.07 78.62 63.42 80.16 63.76 81.11 64.11 80.87 64.45 80.63 64.8 79.21 65.15 81.34 65.49 82.65 65.84 78.03 66.18 77.55 66.53 78.14 66.87 76.96 67.22 79.68 67.57 79.8 67.91 80.04 68.26 82.53 68.6 82.41 68.95 79.45 69.3 78.74 69.64 77.79 69.99 76.48 70.33 76.96 70.68 74 71.02 76.01 71.37 76.96 71.72 80.51 72.06 81.58 72.41 83.6 72.75 81.58 73.1 80.04 73.44 80.04 73.79 82.17 74.14 83.83 74.48 82.65 74.83 80.99 75.17 85.14 75.52 86.32 75.87 89.16 76.21 89.64 76.56 87.62 76.9 88.81 77.25 89.76 77.59 89.16 77.94 86.2 78.29 85.02 78.63 85.25 78.98 84.66 79.32 82.17 79.67 82.29 80.01 82.17 80.36 83.95 80.71 83.71 81.05 86.08 81.4 86.91 81.74 89.16 82.09 89.99 82.44 88.81 82.78 88.93 83.13 88.57 83.47 87.74 83.82 87.51 84.16 85.61 84.51 88.69 84.86 88.22 85.2 87.62 85.55 86.79 85.89 84.54 86.24 84.19 86.58 84.31 86.93 85.25 87.28 83.95 87.62 86.2 87.97 84.19 88.31 83.83 88.66 85.14 89.01 82.65 89.35 82.53 89.7 82.29 90.04 82.65 90.39 82.88 90.73 79.57 91.08 76.72 91.43 72.1 91.77 74.23 92.12 72.22 92.46 69.14 92.81 68.9 93.15 67.48 93.5 67.36 93.85 68.78 94.19 70.09 94.54 72.69 94.88 75.3 95.23 75.77 95.58 75.54 95.92 75.54 96.27 75.77 96.61 78.97 96.96 76.25 97.3 77.2 97.65 76.96 98 74.71 98.34 75.06 98.69 75.77 99.03 75.77 99.38 76.37 99.72 77.08 100.07 78.03 100.42 75.3 100.76 74.71 101.11 76.37 101.45 75.3 101.8 78.38 102.15 80.99 102.49 81.82 102.84 82.41 103.18 85.49 103.53 85.02 103.87 87.03 104.22 86.79 104.57 85.14 104.91 85.85 105.26 86.44 105.6 85.85 105.95 83.71 106.29 82.88 106.64 81.46 106.99 80.99 107.33 81.94 107.68 81.46 108.02 79.21 108.37 78.97 108.72 80.75 109.06 77.67 109.41 76.84 109.75 73.88 110.1 72.81 110.44 72.1 110.79 72.22 111.14 72.46 111.48 72.93 111.83 73.52 112.17 73.76 112.52 74 112.86 74.35 113.21 74 113.56 72.69 113.9 75.66 114.25 75.06 114.59 74.47 114.94 73.76 115.29 70.8 115.63 69.37 115.98 66.65 116.32 66.18 116.67 68.55 117.01 65.58 117.36 66.29 117.71 64.75 118.05 67.48 118.4 68.19 118.74 67 119.09 67.24 119.43 68.43 119.78 69.49 120.13 72.69 120.47 69.26 120.82 70.68 121.16 70.32 121.51 71.51 121.86 70.2 122.2 71.74 122.55 70.68 122.89 71.03 123.24 73.29 123.58 74.23 123.93 75.3 124.28 77.43 124.62 75.54 124.97 75.66 125.31 76.6 125.66 74.71 126 75.06 126.35 73.88 126.7 73.64 127.04 74 127.39 72.57 127.73 71.86 128.08 73.88 128.43 73.4 128.77 69.85 129.12 70.09 129.46 71.27 129.81 71.98 130.15 72.57 130.5 74.71 130.85 74.23 131.19 72.69 131.54 74.11 131.88 73.52 132.23 74.47 132.57 71.39 132.92 69.85 133.27 69.49 133.61 71.03 133.96 72.93 134.3 74.94 134.65 76.13 135 75.89 135.34 75.54 135.69 78.03 136.03 82.17 136.38 80.4 136.72 80.99 137.07 82.17 137.42 83.36 137.76 83.83 138.11 82.41 138.45 81.58 138.8 83.24 139.14 82.65 139.49 83 139.84 82.17 140.18 78.97 140.53 80.99 140.87 81.58 141.22 80.87 141.57 81.23 141.91 82.29 142.26 81.34 142.6 80.75 142.95 77.55 143.29 77.55 143.64 78.5 143.99 75.66 144.33 73.76 144.68 75.3 145.02 76.48 145.37 76.48 145.71 74.83 146.06 75.42 146.41 73.76 146.75 73.29 147.1 75.66 147.44 72.93 147.79 75.06 148.14 71.27 148.48 67.72 148.83 69.02 149.17 69.73 149.52 69.97 149.86 71.51 150.21 69.02 150.56 69.37 150.9 68.19 151.25 67.36 151.59 69.97 151.94 68.55 152.28 69.61 152.63 67.72 152.98 69.14 153.32 69.73 153.67 69.02 154.01 71.27 154.36 72.1 154.71 69.85 155.05 70.56 155.4 65.82 155.74 65.46 156.09 63.92 156.43 66.89 156.78 66.65 157.13 64.4 157.47 62.15 157.82 67.24 158.16 70.2 158.51 72.1 158.85 74.11 159.2 74.35 159.55 76.37 159.89 79.09 160.24 77.79 160.58 76.96 160.93 77.31 161.28 75.54 161.62 76.6 161.97 76.72 162.31 78.74 162.66 81.7 163 77.67 163.35 76.84 163.7 74.35 164.04 75.3 164.39 75.06 164.73 75.89 165.08 75.54 165.42 77.2 165.77 78.97 166.12 82.88 166.46 82.05 166.81 83.95 167.15 82.77 167.5 86.2 167.85 85.14 168.19 84.66 168.54 83.6 168.88 86.2 169.23 88.34 169.57 90.35 169.92 87.62 170.27 87.98 170.61 89.88 170.96 90.59 171.3 89.76 171.65 91.06 171.99 91.89 172.34 89.52 172.69 90.11 173.03 90.94 173.38 90.23 173.72 90.35 174.07 93.19 174.42 92.36 174.76 91.53 175.11 90.47 175.45 89.28 175.8 88.22 176.14 88.93 176.49 91.65 176.84 92.48 177.18 90.71 177.53 89.28 177.87 84.66 178.22 86.91 178.56 89.52 178.91 88.34 179.26 87.51 179.6 85.49 179.95 85.25 180.29 84.78 180.64 86.91 180.99 85.14 181.33 83.24 181.68 81.58 182.02 84.19 182.37 84.19 182.71 83.6 183.06 84.19 183.41 84.31 183.75 83.24 184.1 81.46 184.44 83.48 184.79 81.94 185.13 83.36 185.48 82.41 185.83 81.23 186.17 80.4 186.52 81.11 186.86 81.7 187.21 80.63 187.56 82.05 187.9 81.58 188.25 83.24 188.59 84.66 188.94 86.32 189.28 87.98 189.63 88.22 189.98 89.64 190.32 90.35 190.67 89.4 191.01 91.06 191.36 91.42 191.7 93.9 192.05 95.09 192.4 97.1 192.74 99.12 193.09 99.36 193.43 97.58 193.78 97.1 194.13 96.04 194.47 94.97 194.82 94.14 195.16 96.16 195.51 96.28 195.85 96.39 196.2 95.45"/>
      </g>
      <g stroke-width="0.3" fill="#000000" fill-opacity="0.000" class="geometry" stroke-dasharray="none" stroke="#FDAE61" id="img-7a1a01e5-16">
        <path fill="none" d="M23.65,77.79 L 24 80.4 24.34 78.38 24.69 78.62 25.03 76.6 25.38 79.8 25.73 80.4 26.07 80.99 26.42 83.24 26.76 83 27.11 84.31 27.45 84.66 27.8 84.9 28.15 85.97 28.49 86.44 28.84 85.25 29.18 87.62 29.53 85.73 29.88 84.19 30.22 83.83 30.57 83.36 30.91 87.27 31.26 89.4 31.6 89.05 31.95 90.35 32.3 88.81 32.64 86.91 32.99 87.62 33.33 88.34 33.68 86.91 34.02 88.93 34.37 91.42 34.72 92.84 35.06 94.5 35.41 94.38 35.75 93.19 36.1 91.89 36.45 88.93 36.79 88.69 37.14 86.08 37.48 82.05 37.83 82.17 38.17 82.77 38.52 81.7 38.87 81.82 39.21 83.36 39.56 84.31 39.9 81.23 40.25 81.46 40.59 81.46 40.94 83.6 41.29 80.99 41.63 78.5 41.98 76.72 42.32 75.18 42.67 71.51 43.02 72.1 43.36 70.09 43.71 68.43 44.05 69.02 44.4 71.74 44.74 73.76 45.09 71.27 45.44 68.43 45.78 70.44 46.13 71.27 46.47 72.1 46.82 76.96 47.16 73.88 47.51 77.2 47.86 78.86 48.2 77.79 48.55 76.84 48.89 77.91 49.24 78.14 49.59 77.91 49.93 80.16 50.28 81.94 50.62 81.58 50.97 81.7 51.31 82.05 51.66 81.23 52.01 80.16 52.35 78.5 52.7 80.04 53.04 77.91 53.39 77.08 53.73 75.42 54.08 75.89 54.43 74.59 54.77 77.55 55.12 74.83 55.46 75.77 55.81 74.23 56.16 79.09 56.5 79.92 56.85 78.62 57.19 80.28 57.54 79.33 57.88 82.29 58.23 83.6 58.58 84.07 58.92 83.71 59.27 84.31 59.61 85.25 59.96 82.88 60.3 85.61 60.65 85.02 61 84.66 61.34 85.25 61.69 88.22 62.03 89.16 62.38 89.52 62.73 87.39 63.07 89.16 63.42 87.74 63.76 85.14 64.11 82.77 64.45 80.75 64.8 80.63 65.15 79.92 65.49 80.75 65.84 80.4 66.18 79.57 66.53 83.83 66.87 81.94 67.22 84.66 67.57 84.78 67.91 84.07 68.26 83.36 68.6 83.6 68.95 83.36 69.3 81.94 69.64 80.28 69.99 79.57 70.33 80.99 70.68 82.53 71.02 79.92 71.37 80.99 71.72 79.68 72.06 79.57 72.41 81.23 72.75 83.48 73.1 88.22 73.44 86.08 73.79 83.36 74.14 81.82 74.48 80.75 74.83 80.63 75.17 83.6 75.52 85.61 75.87 89.4 76.21 85.73 76.56 87.98 76.9 87.98 77.25 87.62 77.59 89.28 77.94 90.59 78.29 95.45 78.63 97.58 78.98 96.99 79.32 96.75 79.67 96.51 80.01 96.87 80.36 97.46 80.71 99.95 81.05 98.88 81.4 100.3 81.74 100.9 82.09 102.32 82.44 102.56 82.78 103.86 83.13 102.2 83.47 101.84 83.82 104.45 84.16 103.86 84.51 105.04 84.86 103.15 85.2 101.02 85.55 100.42 85.89 100.19 86.24 100.19 86.58 100.07 86.93 98.53 87.28 99.59 87.62 98.76 87.97 97.82 88.31 99.36 88.66 100.54 89.01 99.24 89.35 95.92 89.7 94.5 90.04 94.14 90.39 91.89 90.73 91.53 91.08 89.16 91.43 90.11 91.77 93.43 92.12 95.09 92.46 99.24 92.81 99.59 93.15 99.12 93.5 100.66 93.85 99.59 94.19 97.1 94.54 97.58 94.88 94.62 95.23 94.5 95.58 93.79 95.92 89.88 96.27 88.57 96.61 89.99 96.96 90.11 97.3 89.76 97.65 90.11 98 91.42 98.34 91.89 98.69 88.93 99.03 87.27 99.38 87.03 99.72 88.22 100.07 87.98 100.42 86.08 100.76 87.74 101.11 89.05 101.45 87.62 101.8 87.74 102.15 83 102.49 83.95 102.84 84.9 103.18 86.2 103.53 87.27 103.87 87.86 104.22 88.57 104.57 90.82 104.91 88.69 105.26 89.4 105.6 91.77 105.95 93.08 106.29 93.9 106.64 96.75 106.99 96.51 107.33 95.45 107.68 94.02 108.02 95.33 108.37 96.16 108.72 98.88 109.06 98.65 109.41 101.25 109.75 103.15 110.1 103.39 110.44 104.69 110.79 104.1 111.14 104.57 111.48 105.16 111.83 108.72 112.17 108.13 112.52 108.48 112.86 109.19 113.21 109.78 113.56 109.55 113.9 112.04 114.25 111.56 114.59 110.5 114.94 110.97 115.29 113.7 115.63 113.58 115.98 113.46 116.32 113.34 116.67 113.58 117.01 114.17 117.36 113.1 117.71 111.92 118.05 112.87 118.4 112.63 118.74 114.41 119.09 114.76 119.43 112.98 119.78 110.61 120.13 110.5 120.47 110.14 120.82 111.09 121.16 113.1 121.51 112.15 121.86 112.87 122.2 111.56 122.55 112.75 122.89 109.9 123.24 108.36 123.58 109.55 123.93 110.38 124.28 110.73 124.62 109.78 124.97 112.75 125.31 113.7 125.66 111.32 126 109.78 126.35 111.68 126.7 112.98 127.04 113.1 127.39 112.63 127.73 113.93 128.08 114.29 128.43 112.63 128.77 110.26 129.12 110.38 129.46 108.84 129.81 106.58 130.15 108.01 130.5 108.48 130.85 108.36 131.19 108.84 131.54 110.5 131.88 108.6 132.23 109.55 132.57 110.26 132.92 110.38 133.27 110.14 133.61 108.13 133.96 108.24 134.3 107.41 134.65 106.23 135 104.21 135.34 105.64 135.69 106.82 136.03 108.36 136.38 107.18 136.72 106.35 137.07 108.6 137.42 109.19 137.76 108.24 138.11 108.01 138.45 108.48 138.8 106.94 139.14 108.84 139.49 108.72 139.84 108.84 140.18 109.19 140.53 109.43 140.87 110.85 141.22 112.15 141.57 110.5 141.91 114.29 142.26 114.29 142.6 112.63 142.95 112.04 143.29 109.31 143.64 111.8 143.99 110.97 144.33 109.43 144.68 107.65 145.02 108.95 145.37 108.84 145.71 109.07 146.06 108.13 146.41 108.13 146.75 111.21 147.1 110.26 147.44 109.43 147.79 109.78 148.14 110.5 148.48 110.5 148.83 110.97 149.17 112.15 149.52 110.85 149.86 113.81 150.21 117.01 150.56 113.7 150.9 113.7 151.25 110.97 151.59 111.92 151.94 111.21 152.28 109.78 152.63 109.78 152.98 109.19 153.32 108.95 153.67 112.63 154.01 110.61 154.36 110.73 154.71 109.67 155.05 111.32 155.4 111.56 155.74 111.56 156.09 111.68 156.43 111.32 156.78 108.95 157.13 109.55 157.47 107.3 157.82 106.47 158.16 105.28 158.51 104.69 158.85 104.81 159.2 103.5 159.55 103.62 159.89 100.42 160.24 101.73 160.58 104.21 160.93 105.16 161.28 105.04 161.62 105.4 161.97 105.4 162.31 106.47 162.66 106.82 163 106.82 163.35 104.81 163.7 106.47 164.04 104.81 164.39 102.91 164.73 104.33 165.08 105.04 165.42 107.06 165.77 104.69 166.12 104.57 166.46 101.96 166.81 103.15 167.15 104.33 167.5 104.1 167.85 103.62 168.19 105.99 168.54 104.21 168.88 103.98 169.23 107.3 169.57 107.41 169.92 107.77 170.27 106.23 170.61 105.64 170.96 104.33 171.3 104.21 171.65 105.04 171.99 102.91 172.34 103.86 172.69 105.76 173.03 107.89 173.38 108.84 173.72 111.8 174.07 111.56 174.42 110.26 174.76 110.14 175.11 109.07 175.45 109.31 175.8 109.67 176.14 108.36 176.49 108.95 176.84 109.55 177.18 107.53 177.53 107.77 177.87 106.58 178.22 107.18 178.56 107.65 178.91 109.43 179.26 108.13 179.6 109.19 179.95 108.01 180.29 109.78 180.64 110.85 180.99 110.85 181.33 112.39 181.68 111.09 182.02 111.44 182.37 112.98 182.71 110.85 183.06 110.38 183.41 111.21 183.75 111.44 184.1 113.81 184.44 110.97 184.79 110.5 185.13 109.78 185.48 109.19 185.83 108.24 186.17 106.82 186.52 105.87 186.86 106.23 187.21 109.31 187.56 108.72 187.9 109.67 188.25 108.24 188.59 108.24 188.94 108.13 189.28 107.3 189.63 105.4 189.98 106.58 190.32 107.18 190.67 109.78 191.01 110.14 191.36 111.56 191.7 112.51 192.05 112.87 192.4 111.92 192.74 110.85 193.09 112.04 193.43 111.92 193.78 111.68 194.13 113.58 194.47 112.27 194.82 111.32 195.16 111.8 195.51 109.07 195.85 109.19 196.2 110.26"/>
      </g>
      <g stroke-width="0.3" fill="#000000" fill-opacity="0.000" class="geometry" stroke-dasharray="none" stroke="#F46D43" id="img-7a1a01e5-17">
        <path fill="none" d="M23.65,77.79 L 24 77.55 24.34 76.48 24.69 77.91 25.03 78.14 25.38 78.74 25.73 80.99 26.07 80.51 26.42 82.65 26.76 82.88 27.11 83.95 27.45 83.12 27.8 80.16 28.15 81.11 28.49 82.53 28.84 82.77 29.18 79.21 29.53 81.34 29.88 79.45 30.22 76.48 30.57 77.79 30.91 78.5 31.26 78.03 31.6 77.55 31.95 76.6 32.3 75.18 32.64 76.01 32.99 74.83 33.33 75.42 33.68 74 34.02 74 34.37 73.52 34.72 77.31 35.06 79.33 35.41 81.34 35.75 79.45 36.1 78.86 36.45 81.58 36.79 83.24 37.14 85.14 37.48 86.32 37.83 87.86 38.17 90.23 38.52 89.52 38.87 87.51 39.21 87.03 39.56 88.69 39.9 90.47 40.25 90.82 40.59 89.52 40.94 89.16 41.29 90.71 41.63 88.81 41.98 89.05 42.32 91.06 42.67 90.82 43.02 95.33 43.36 95.45 43.71 94.02 44.05 91.18 44.4 92.48 44.74 92.25 45.09 92.72 45.44 91.77 45.78 93.55 46.13 94.62 46.47 93.9 46.82 92.48 47.16 92.72 47.51 92.48 47.86 90.59 48.2 94.14 48.55 96.99 48.89 94.14 49.24 92.96 49.59 93.31 49.93 95.09 50.28 95.68 50.62 94.62 50.97 93.55 51.31 94.14 51.66 93.08 52.01 92.6 52.35 93.19 52.7 91.06 53.04 94.02 53.39 92.6 53.73 96.39 54.08 96.99 54.43 98.88 54.77 99.59 55.12 98.76 55.46 99 55.81 99 56.16 99.71 56.5 98.88 56.85 99 57.19 98.88 57.54 98.65 57.88 98.17 58.23 96.99 58.58 97.82 58.92 99.83 59.27 101.37 59.61 104.57 59.96 103.03 60.3 100.54 60.65 98.29 61 99.59 61.34 99.83 61.69 98.65 62.03 98.53 62.38 94.85 62.73 96.51 63.07 97.46 63.42 98.17 63.76 96.51 64.11 96.51 64.45 95.92 64.8 96.28 65.15 97.22 65.49 95.92 65.84 95.45 66.18 95.09 66.53 95.56 66.87 95.56 67.22 93.79 67.57 93.79 67.91 94.02 68.26 96.16 68.6 95.45 68.95 96.75 69.3 95.8 69.64 98.65 69.99 98.05 70.33 100.19 70.68 99.83 71.02 101.61 71.37 104.93 71.72 105.76 72.06 105.52 72.41 107.77 72.75 106.94 73.1 106.23 73.44 107.65 73.79 106.7 74.14 105.16 74.48 103.98 74.83 103.74 75.17 104.81 75.52 103.86 75.87 100.78 76.21 103.62 76.56 103.62 76.9 104.57 77.25 108.6 77.59 108.13 77.94 111.32 78.29 114.05 78.63 115.71 78.98 115.47 79.32 115.24 79.67 114.64 80.01 112.87 80.36 113.93 80.71 115.24 81.05 114.17 81.4 112.04 81.74 112.27 82.09 109.31 82.44 109.19 82.78 108.13 83.13 108.72 83.47 110.97 83.82 110.85 84.16 109.43 84.51 110.73 84.86 109.43 85.2 108.72 85.55 108.72 85.89 107.89 86.24 106.47 86.58 106.23 86.93 105.52 87.28 103.62 87.62 102.67 87.97 101.02 88.31 102.67 88.66 99.71 89.01 100.07 89.35 99.36 89.7 98.65 90.04 97.34 90.39 98.53 90.73 97.82 91.08 96.87 91.43 94.62 91.77 91.77 92.12 91.65 92.46 91.42 92.81 89.76 93.15 89.52 93.5 90.11 93.85 89.88 94.19 91.42 94.54 93.9 94.88 93.19 95.23 95.92 95.58 96.99 95.92 99.83 96.27 98.65 96.61 101.02 96.96 102.56 97.3 101.02 97.65 98.05 98 94.62 98.34 95.21 98.69 97.34 99.03 96.04 99.38 94.02 99.72 94.5 100.07 95.45 100.42 96.39 100.76 96.51 101.11 96.16 101.45 98.65 101.8 97.34 102.15 97.46 102.49 95.68 102.84 95.09 103.18 94.85 103.53 94.73 103.87 96.87 104.22 94.14 104.57 91.77 104.91 92.13 105.26 89.76 105.6 88.81 105.95 88.22 106.29 86.32 106.64 83.83 106.99 86.2 107.33 84.54 107.68 80.99 108.02 83.36 108.37 83 108.72 83.36 109.06 84.31 109.41 83.71 109.75 83.71 110.1 85.97 110.44 87.86 110.79 88.81 111.14 90.59 111.48 89.76 111.83 91.18 112.17 89.88 112.52 92.13 112.86 93.31 113.21 91.06 113.56 90.59 113.9 89.05 114.25 88.69 114.59 86.32 114.94 86.79 115.29 84.78 115.63 82.29 115.98 85.85 116.32 84.31 116.67 83.36 117.01 83.36 117.36 87.51 117.71 87.03 118.05 87.15 118.4 87.51 118.74 89.99 119.09 88.93 119.43 87.62 119.78 87.51 120.13 88.69 120.47 90.35 120.82 89.88 121.16 90.11 121.51 87.74 121.86 84.9 122.2 87.27 122.55 87.86 122.89 88.34 123.24 88.22 123.58 88.81 123.93 89.16 124.28 87.03 124.62 85.61 124.97 86.08 125.31 87.39 125.66 87.15 126 89.16 126.35 89.88 126.7 91.42 127.04 94.02 127.39 92.72 127.73 95.21 128.08 96.87 128.43 96.99 128.77 98.17 129.12 96.99 129.46 94.62 129.81 96.16 130.15 98.17 130.5 94.85 130.85 94.97 131.19 99.83 131.54 98.29 131.88 98.17 132.23 97.34 132.57 99.59 132.92 101.13 133.27 99.95 133.61 98.53 133.96 99.12 134.3 99.59 134.65 100.19 135 101.84 135.34 102.67 135.69 103.15 136.03 103.86 136.38 104.45 136.72 106.11 137.07 103.62 137.42 102.79 137.76 102.79 138.11 103.62 138.45 104.1 138.8 100.66 139.14 100.42 139.49 98.88 139.84 97.1 140.18 99 140.53 98.17 140.87 100.19 141.22 99 141.57 99.12 141.91 99.95 142.26 100.54 142.6 95.8 142.95 93.55 143.29 94.26 143.64 94.97 143.99 93.67 144.33 94.02 144.68 93.9 145.02 93.08 145.37 93.31 145.71 93.79 146.06 91.89 146.41 93.67 146.75 95.92 147.1 91.77 147.44 91.77 147.79 93.9 148.14 94.26 148.48 94.62 148.83 95.09 149.17 91.77 149.52 92.25 149.86 93.67 150.21 95.8 150.56 98.17 150.9 99.71 151.25 103.62 151.59 101.84 151.94 100.66 152.28 101.13 152.63 100.9 152.98 99.83 153.32 98.76 153.67 99.36 154.01 100.3 154.36 100.07 154.71 101.37 155.05 101.25 155.4 100.42 155.74 101.25 156.09 101.13 156.43 100.3 156.78 102.2 157.13 101.84 157.47 102.67 157.82 102.56 158.16 101.84 158.51 103.03 158.85 102.2 159.2 104.33 159.55 104.21 159.89 104.81 160.24 106.11 160.58 105.64 160.93 104.93 161.28 103.62 161.62 102.08 161.97 103.74 162.31 102.79 162.66 101.84 163 100.78 163.35 101.02 163.7 100.9 164.04 99.47 164.39 99.12 164.73 98.41 165.08 99 165.42 98.41 165.77 94.97 166.12 94.02 166.46 91.53 166.81 93.79 167.15 96.16 167.5 97.34 167.85 101.61 168.19 99.83 168.54 100.3 168.88 99.36 169.23 102.91 169.57 100.78 169.92 102.56 170.27 100.42 170.61 99.12 170.96 101.37 171.3 100.19 171.65 102.08 171.99 102.67 172.34 101.84 172.69 100.9 173.03 100.66 173.38 103.5 173.72 97.93 174.07 100.42 174.42 100.42 174.76 101.61 175.11 103.03 175.45 102.56 175.8 103.03 176.14 101.73 176.49 100.42 176.84 101.13 177.18 102.91 177.53 103.5 177.87 103.5 178.22 105.16 178.56 104.69 178.91 104.45 179.26 103.86 179.6 102.32 179.95 103.03 180.29 103.74 180.64 103.98 180.99 101.96 181.33 101.02 181.68 103.62 182.02 105.16 182.37 105.04 182.71 102.91 183.06 105.16 183.41 104.45 183.75 106.11 184.1 104.45 184.44 103.03 184.79 102.79 185.13 103.39 185.48 104.93 185.83 105.87 186.17 107.18 186.52 107.53 186.86 107.41 187.21 107.65 187.56 109.43 187.9 110.97 188.25 113.1 188.59 111.44 188.94 111.8 189.28 113.46 189.63 113.93 189.98 113.22 190.32 114.05 190.67 115.83 191.01 115.12 191.36 114.17 191.7 114.76 192.05 115.95 192.4 116.3 192.74 113.7 193.09 112.63 193.43 114.64 193.78 115 194.13 115.12 194.47 114.52 194.82 115.95 195.16 118.79 195.51 120.69 195.85 119.74 196.2 119.03"/>
      </g>
      <g stroke-width="0.3" fill="#000000" fill-opacity="0.000" class="geometry" stroke-dasharray="none" stroke="#D53E4F" id="img-7a1a01e5-18">
        <path fill="none" d="M23.65,77.79 L 24 77.43 24.34 77.2 24.69 76.13 25.03 79.33 25.38 77.91 25.73 76.25 26.07 77.2 26.42 78.74 26.76 78.26 27.11 78.74 27.45 81.23 27.8 82.88 28.15 84.19 28.49 85.37 28.84 84.42 29.18 84.07 29.53 81.46 29.88 81.82 30.22 81.7 30.57 80.63 30.91 79.92 31.26 82.65 31.6 81.11 31.95 81.46 32.3 79.8 32.64 78.62 32.99 76.96 33.33 80.04 33.68 82.77 34.02 79.45 34.37 76.37 34.72 77.08 35.06 78.62 35.41 79.57 35.75 81.46 36.1 82.17 36.45 81.46 36.79 77.91 37.14 79.09 37.48 80.16 37.83 81.7 38.17 82.05 38.52 83.12 38.87 85.37 39.21 85.61 39.56 87.03 39.9 87.98 40.25 86.44 40.59 86.91 40.94 86.91 41.29 89.16 41.63 90.59 41.98 91.3 42.32 95.21 42.67 97.58 43.02 96.04 43.36 97.7 43.71 98.05 44.05 97.34 44.4 96.28 44.74 95.45 45.09 96.16 45.44 100.54 45.78 100.07 46.13 99.47 46.47 97.1 46.82 98.41 47.16 99.36 47.51 98.88 47.86 98.41 48.2 97.46 48.55 99.59 48.89 102.08 49.24 101.13 49.59 102.56 49.93 104.45 50.28 105.28 50.62 103.03 50.97 102.56 51.31 103.15 51.66 102.44 52.01 101.49 52.35 103.27 52.7 105.64 53.04 105.4 53.39 106.23 53.73 104.1 54.08 103.39 54.43 104.57 54.77 105.99 55.12 106.58 55.46 107.18 55.81 107.18 56.16 109.07 56.5 109.31 56.85 110.85 57.19 107.41 57.54 106.23 57.88 107.06 58.23 107.18 58.58 104.93 58.92 103.5 59.27 103.39 59.61 104.33 59.96 106.58 60.3 107.18 60.65 106.47 61 109.78 61.34 108.36 61.69 109.55 62.03 112.39 62.38 112.39 62.73 111.92 63.07 110.61 63.42 112.63 63.76 111.32 64.11 110.38 64.45 110.61 64.8 112.51 65.15 111.92 65.49 111.8 65.84 112.15 66.18 110.97 66.53 111.21 66.87 110.14 67.22 110.85 67.57 109.43 67.91 110.14 68.26 106.35 68.6 105.99 68.95 104.45 69.3 102.2 69.64 101.02 69.99 101.49 70.33 101.96 70.68 101.84 71.02 101.25 71.37 103.39 71.72 101.61 72.06 104.45 72.41 106.94 72.75 105.16 73.1 104.33 73.44 105.64 73.79 104.33 74.14 103.62 74.48 103.86 74.83 105.52 75.17 106.82 75.52 106.35 75.87 104.93 76.21 105.04 76.56 103.62 76.9 102.44 77.25 103.39 77.59 102.56 77.94 102.08 78.29 103.86 78.63 104.1 78.98 104.69 79.32 103.5 79.67 100.19 80.01 98.29 80.36 99.59 80.71 99.95 81.05 101.25 81.4 101.02 81.74 103.03 82.09 102.56 82.44 100.78 82.78 98.76 83.13 95.56 83.47 96.51 83.82 94.5 84.16 95.45 84.51 94.38 84.86 96.28 85.2 96.04 85.55 95.09 85.89 93.19 86.24 95.33 86.58 95.33 86.93 95.56 87.28 95.56 87.62 94.5 87.97 94.85 88.31 90.11 88.66 92.48 89.01 90.82 89.35 93.43 89.7 95.45 90.04 93.43 90.39 90.82 90.73 92.6 91.08 95.68 91.43 90.47 91.77 91.77 92.12 90.23 92.46 89.28 92.81 89.28 93.15 87.27 93.5 88.93 93.85 91.42 94.19 90.47 94.54 90.59 94.88 89.28 95.23 90.59 95.58 92.72 95.92 92.84 96.27 93.19 96.61 93.9 96.96 94.26 97.3 96.28 97.65 94.73 98 93.08 98.34 92.01 98.69 92.96 99.03 93.79 99.38 92.84 99.72 92.48 100.07 94.02 100.42 94.14 100.76 91.3 101.11 87.27 101.45 90.59 101.8 89.88 102.15 89.16 102.49 86.79 102.84 85.49 103.18 83.71 103.53 83.36 103.87 81.94 104.22 83.12 104.57 84.9 104.91 83.48 105.26 84.78 105.6 84.78 105.95 85.37 106.29 85.02 106.64 79.57 106.99 79.68 107.33 79.33 107.68 79.21 108.02 80.51 108.37 80.75 108.72 80.04 109.06 82.41 109.41 81.94 109.75 83.71 110.1 82.77 110.44 80.63 110.79 77.43 111.14 75.66 111.48 73.64 111.83 72.93 112.17 72.69 112.52 73.88 112.86 74 113.21 74.59 113.56 72.46 113.9 70.8 114.25 70.68 114.59 71.86 114.94 72.34 115.29 74.71 115.63 75.66 115.98 76.48 116.32 76.37 116.67 75.77 117.01 77.67 117.36 76.84 117.71 75.54 118.05 73.17 118.4 73.17 118.74 75.06 119.09 74 119.43 75.18 119.78 76.25 120.13 76.96 120.47 76.96 120.82 78.26 121.16 77.43 121.51 77.08 121.86 75.89 122.2 74.59 122.55 76.72 122.89 75.3 123.24 74.71 123.58 74.23 123.93 74.94 124.28 73.52 124.62 70.92 124.97 67.72 125.31 67.72 125.66 65.7 126 64.75 126.35 66.06 126.7 64.87 127.04 67.12 127.39 66.53 127.73 67.72 128.08 65.82 128.43 66.29 128.77 68.07 129.12 67.95 129.46 67.83 129.81 69.97 130.15 67.72 130.5 70.32 130.85 69.49 131.19 67.36 131.54 65.7 131.88 67.48 132.23 68.31 132.57 68.07 132.92 68.55 133.27 73.05 133.61 74.94 133.96 75.18 134.3 76.84 134.65 79.21 135 80.16 135.34 79.21 135.69 80.75 136.03 80.51 136.38 82.53 136.72 81.82 137.07 85.97 137.42 86.08 137.76 86.44 138.11 91.06 138.45 91.65 138.8 91.3 139.14 92.96 139.49 91.3 139.84 89.28 140.18 89.4 140.53 86.91 140.87 84.42 141.22 83.83 141.57 81.23 141.91 81.58 142.26 82.88 142.6 85.97 142.95 86.2 143.29 86.91 143.64 88.34 143.99 91.06 144.33 89.16 144.68 89.76 145.02 89.99 145.37 89.64 145.71 92.25 146.06 89.64 146.41 86.2 146.75 85.49 147.1 85.73 147.44 83 147.79 79.57 148.14 77.08 148.48 78.97 148.83 77.91 149.17 77.91 149.52 75.42 149.86 73.52 150.21 77.31 150.56 79.09 150.9 78.38 151.25 79.92 151.59 77.91 151.94 79.57 152.28 76.37 152.63 76.37 152.98 79.33 153.32 78.74 153.67 76.48 154.01 75.3 154.36 74 154.71 74 155.05 72.93 155.4 72.69 155.74 71.39 156.09 70.09 156.43 71.15 156.78 71.74 157.13 73.17 157.47 72.1 157.82 72.81 158.16 72.69 158.51 72.22 158.85 72.34 159.2 70.56 159.55 68.19 159.89 64.63 160.24 66.06 160.58 64.4 160.93 66.53 161.28 66.29 161.62 65.94 161.97 64.63 162.31 63.69 162.66 62.15 163 63.45 163.35 60.61 163.7 60.37 164.04 60.72 164.39 59.78 164.73 62.03 165.08 59.89 165.42 61.08 165.77 65.35 166.12 64.52 166.46 62.98 166.81 65.23 167.15 66.65 167.5 68.31 167.85 70.68 168.19 73.05 168.54 73.17 168.88 72.69 169.23 74.23 169.57 74.35 169.92 72.34 170.27 69.97 170.61 70.44 170.96 71.51 171.3 69.61 171.65 69.02 171.99 66.89 172.34 68.07 172.69 65.46 173.03 63.45 173.38 62.98 173.72 63.57 174.07 62.98 174.42 62.74 174.76 62.15 175.11 63.57 175.45 63.69 175.8 65.11 176.14 65.58 176.49 62.26 176.84 62.98 177.18 62.74 177.53 59.89 177.87 60.84 178.22 60.49 178.56 63.81 178.91 63.57 179.26 63.69 179.6 63.92 179.95 62.62 180.29 60.37 180.64 59.66 180.99 59.42 181.33 62.15 181.68 62.26 182.02 62.86 182.37 63.69 182.71 63.45 183.06 62.38 183.41 60.96 183.75 63.33 184.1 62.38 184.44 65.11 184.79 67.36 185.13 70.92 185.48 66.77 185.83 66.41 186.17 66.18 186.52 66.06 186.86 63.21 187.21 65.11 187.56 64.99 187.9 65.58 188.25 63.09 188.59 63.57 188.94 62.26 189.28 61.67 189.63 60.37 189.98 60.49 190.32 59.42 190.67 57.76 191.01 60.01 191.36 56.81 191.7 57.29 192.05 55.04 192.4 57.41 192.74 56.58 193.09 53.73 193.43 50.89 193.78 49.47 194.13 51.48 194.47 51.36 194.82 50.3 195.16 48.52 195.51 46.86 195.85 47.21 196.2 47.33"/>
      </g>
      <g stroke-width="0.3" fill="#000000" fill-opacity="0.000" class="geometry" stroke-dasharray="none" stroke="#9E0142" id="img-7a1a01e5-19">
        <path fill="none" d="M23.65,77.79 L 24 76.96 24.34 78.38 24.69 80.63 25.03 83 25.38 84.31 25.73 80.04 26.07 77.31 26.42 78.86 26.76 78.03 27.11 78.62 27.45 78.97 27.8 78.03 28.15 78.26 28.49 75.89 28.84 78.5 29.18 78.03 29.53 75.42 29.88 74.59 30.22 74.59 30.57 73.05 30.91 76.72 31.26 75.42 31.6 75.77 31.95 74.47 32.3 74.23 32.64 73.64 32.99 73.76 33.33 73.4 33.68 69.02 34.02 68.19 34.37 68.55 34.72 68.78 35.06 64.28 35.41 67 35.75 68.78 36.1 71.51 36.45 71.03 36.79 70.92 37.14 72.69 37.48 73.52 37.83 74.71 38.17 75.18 38.52 78.14 38.87 78.38 39.21 79.8 39.56 81.46 39.9 82.17 40.25 79.68 40.59 79.68 40.94 76.72 41.29 76.84 41.63 80.51 41.98 77.67 42.32 75.66 42.67 77.08 43.02 76.84 43.36 78.74 43.71 77.2 44.05 77.31 44.4 76.6 44.74 75.18 45.09 75.18 45.44 74.94 45.78 74 46.13 74.83 46.47 71.27 46.82 66.89 47.16 68.19 47.51 68.07 47.86 67.36 48.2 70.09 48.55 71.86 48.89 71.51 49.24 71.74 49.59 69.02 49.93 67 50.28 65.23 50.62 65.11 50.97 64.75 51.31 65.58 51.66 67.72 52.01 68.78 52.35 67.95 52.7 67.48 53.04 68.9 53.39 66.53 53.73 68.66 54.08 67.72 54.43 67.48 54.77 66.06 55.12 67.48 55.46 67 55.81 67.83 56.16 69.85 56.5 68.55 56.85 70.44 57.19 72.93 57.54 72.34 57.88 77.67 58.23 78.97 58.58 77.43 58.92 78.26 59.27 79.45 59.61 81.34 59.96 80.28 60.3 82.05 60.65 81.82 61 83 61.34 83.12 61.69 84.07 62.03 87.03 62.38 88.81 62.73 89.16 63.07 87.51 63.42 89.4 63.76 86.08 64.11 83.95 64.45 83.83 64.8 84.07 65.15 82.41 65.49 81.58 65.84 79.33 66.18 81.46 66.53 83.12 66.87 80.99 67.22 79.57 67.57 84.42 67.91 87.86 68.26 88.81 68.6 86.56 68.95 87.98 69.3 87.27 69.64 89.52 69.99 89.99 70.33 89.88 70.68 88.93 71.02 86.91 71.37 85.97 71.72 86.08 72.06 82.65 72.41 81.58 72.75 82.41 73.1 80.51 73.44 80.51 73.79 81.11 74.14 79.09 74.48 76.96 74.83 76.84 75.17 81.11 75.52 78.97 75.87 76.37 76.21 75.66 76.56 76.25 76.9 73.76 77.25 75.77 77.59 78.26 77.94 76.37 78.29 74.83 78.63 75.42 78.98 72.57 79.32 75.66 79.67 77.43 80.01 76.37 80.36 74.11 80.71 73.88 81.05 71.74 81.4 71.98 81.74 72.57 82.09 69.37 82.44 69.37 82.78 67 83.13 64.4 83.47 63.09 83.82 62.98 84.16 62.98 84.51 61.08 84.86 60.49 85.2 58.71 85.55 59.42 85.89 61.2 86.24 61.2 86.58 62.74 86.93 60.25 87.28 61.67 87.62 62.15 87.97 62.5 88.31 63.45 88.66 65.11 89.01 60.25 89.35 61.55 89.7 63.45 90.04 63.21 90.39 63.45 90.73 66.41 91.08 64.75 91.43 67.36 91.77 66.89 92.12 66.18 92.46 66.29 92.81 67.24 93.15 66.18 93.5 65.82 93.85 65.7 94.19 66.53 94.54 68.55 94.88 66.77 95.23 68.55 95.58 65.7 95.92 66.53 96.27 65.11 96.61 61.91 96.96 62.5 97.3 63.81 97.65 62.15 98 63.09 98.34 63.09 98.69 63.57 99.03 68.07 99.38 69.37 99.72 71.51 100.07 69.85 100.42 71.27 100.76 70.56 101.11 71.15 101.45 70.2 101.8 70.68 102.15 67.6 102.49 66.65 102.84 64.52 103.18 63.81 103.53 64.52 103.87 67.95 104.22 67.48 104.57 66.29 104.91 64.52 105.26 64.75 105.6 66.65 105.95 65.11 106.29 64.75 106.64 65.11 106.99 65.35 107.33 63.69 107.68 60.84 108.02 58.95 108.37 59.78 108.72 62.98 109.06 60.84 109.41 60.61 109.75 63.92 110.1 65.35 110.44 67.48 110.79 68.19 111.14 69.26 111.48 71.51 111.83 72.1 112.17 69.85 112.52 69.26 112.86 69.37 113.21 69.61 113.56 69.85 113.9 69.37 114.25 66.53 114.59 67.83 114.94 69.14 115.29 66.65 115.63 66.18 115.98 66.77 116.32 65.7 116.67 67.6 117.01 69.85 117.36 70.32 117.71 70.56 118.05 70.32 118.4 71.27 118.74 69.02 119.09 67.72 119.43 66.89 119.78 65.46 120.13 67.24 120.47 70.32 120.82 71.86 121.16 70.56 121.51 69.97 121.86 71.51 122.2 69.73 122.55 72.81 122.89 73.29 123.24 73.29 123.58 71.86 123.93 72.34 124.28 71.39 124.62 73.17 124.97 73.88 125.31 76.13 125.66 74.71 126 75.18 126.35 73.4 126.7 73.4 127.04 69.73 127.39 69.73 127.73 70.32 128.08 69.73 128.43 70.92 128.77 69.61 129.12 70.56 129.46 72.57 129.81 77.31 130.15 76.72 130.5 75.42 130.85 74 131.19 74.59 131.54 77.79 131.88 77.91 132.23 77.91 132.57 77.2 132.92 78.5 133.27 76.01 133.61 76.96 133.96 74.59 134.3 75.18 134.65 78.14 135 77.91 135.34 78.26 135.69 75.54 136.03 77.08 136.38 76.48 136.72 76.72 137.07 75.42 137.42 78.5 137.76 79.57 138.11 80.63 138.45 80.87 138.8 80.51 139.14 81.7 139.49 78.97 139.84 77.55 140.18 76.37 140.53 73.88 140.87 72.57 141.22 73.17 141.57 71.74 141.91 73.76 142.26 69.61 142.6 68.66 142.95 70.09 143.29 70.8 143.64 71.27 143.99 73.29 144.33 74.11 144.68 77.55 145.02 79.8 145.37 80.87 145.71 78.5 146.06 80.28 146.41 79.57 146.75 78.14 147.1 77.91 147.44 75.66 147.79 78.62 148.14 80.99 148.48 79.33 148.83 76.25 149.17 74.47 149.52 74.59 149.86 72.69 150.21 72.81 150.56 71.74 150.9 72.81 151.25 68.9 151.59 69.02 151.94 68.9 152.28 70.68 152.63 71.27 152.98 71.03 153.32 71.03 153.67 73.05 154.01 72.81 154.36 71.98 154.71 70.68 155.05 72.34 155.4 72.34 155.74 73.76 156.09 72.34 156.43 72.69 156.78 71.51 157.13 71.74 157.47 71.03 157.82 72.1 158.16 70.68 158.51 70.56 158.85 71.15 159.2 71.27 159.55 71.74 159.89 70.56 160.24 68.43 160.58 63.69 160.93 63.69 161.28 64.99 161.62 67.24 161.97 66.06 162.31 64.28 162.66 62.74 163 62.98 163.35 61.08 163.7 61.08 164.04 58.83 164.39 60.61 164.73 57.88 165.08 58.83 165.42 60.96 165.77 62.98 166.12 60.84 166.46 64.52 166.81 65.58 167.15 66.29 167.5 68.55 167.85 65.94 168.19 67.95 168.54 70.56 168.88 69.97 169.23 69.85 169.57 68.78 169.92 69.14 170.27 71.27 170.61 73.88 170.96 72.93 171.3 73.64 171.65 75.66 171.99 79.09 172.34 79.45 172.69 82.17 173.03 83.95 173.38 85.61 173.72 83.71 174.07 83.6 174.42 83.48 174.76 79.09 175.11 76.84 175.45 75.77 175.8 78.03 176.14 78.62 176.49 77.55 176.84 81.11 177.18 82.65 177.53 84.78 177.87 82.88 178.22 84.9 178.56 86.2 178.91 81.82 179.26 83 179.6 84.78 179.95 83.95 180.29 85.02 180.64 82.29 180.99 81.7 181.33 82.17 181.68 81.82 182.02 82.41 182.37 81.94 182.71 79.8 183.06 79.92 183.41 81.7 183.75 83.24 184.1 82.41 184.44 82.17 184.79 85.49 185.13 84.78 185.48 83.24 185.83 82.17 186.17 85.85 186.52 84.42 186.86 84.42 187.21 81.82 187.56 84.31 187.9 82.88 188.25 85.49 188.59 84.07 188.94 81.82 189.28 80.28 189.63 80.87 189.98 79.45 190.32 78.86 190.67 78.03 191.01 78.38 191.36 80.51 191.7 82.53 192.05 85.25 192.4 83.12 192.74 83.83 193.09 81.82 193.43 82.05 193.78 80.75 194.13 79.8 194.47 79.68 194.82 80.51 195.16 82.17 195.51 83.71 195.85 83.36 196.2 84.07"/>
      </g>
    </g>
  </g>
</g>
  <g class="guide ylabels" font-size="2.82" font-family="'PT Sans Caption','Helvetica Neue','Helvetica',sans-serif" fill="#000000" id="img-7a1a01e5-20">
    <text x="20.3" y="131.11" text-anchor="end" dy="0.35em">0</text>
    <text x="20.3" y="71.86" text-anchor="end" dy="0.35em">500</text>
    <text x="20.3" y="12.61" text-anchor="end" dy="0.35em">1000</text>
  </g>
  <g font-size="3.88" font-family="'PT Sans','Helvetica Neue','Helvetica',sans-serif" fill="#000000" stroke="#000000" stroke-opacity="0.000" id="img-7a1a01e5-21">
    <text x="8.81" y="69.86" text-anchor="middle" dy="0.35em" transform="rotate(-90, 8.81, 71.86)">population size</text>
  </g>
  <g font-size="3.88" font-family="'PT Sans','Helvetica Neue','Helvetica',sans-serif" fill="#000000" stroke="#000000" stroke-opacity="0.000" id="img-7a1a01e5-22">
    <text x="109.75" y="5" text-anchor="middle" dy="0.6em">genetic drift with mutationrate  = 0.001 </text>
  </g>
</g>
<defs>
  <clipPath id="img-7a1a01e5-4">
  <path d="M21.31,10.61 L 198.2 10.61 198.2 133.11 21.31 133.11" />
</clipPath>
</defs>
</svg>
