<?xml version="1.0" encoding="UTF-8"?>
<svg xmlns="http://www.w3.org/2000/svg"
     xmlns:xlink="http://www.w3.org/1999/xlink"
     xmlns:gadfly="http://www.gadflyjl.org/ns"
     version="1.2"
     width="203.2mm" height="152.4mm" viewBox="0 0 203.2 152.4"
     stroke="none"
     fill="#000000"
     stroke-width="0.3"
     font-size="3.88"
>
<g class="plotroot xscalable yscalable" id="img-612352d0-1">
  <g font-size="3.88" font-family="'PT Sans','Helvetica Neue','Helvetica',sans-serif" fill="#000000" stroke="#000000" stroke-opacity="0.000" id="img-612352d0-2">
    <text x="97.17" y="140.79" text-anchor="middle" dy="0.6em">number of A_type individuals (bin count = 50)</text>
  </g>
  <g class="guide xlabels" font-size="2.82" font-family="'PT Sans Caption','Helvetica Neue','Helvetica',sans-serif" fill="#000000" id="img-612352d0-3">
    <text x="22.31" y="134.11" text-anchor="middle" dy="0.6em">0</text>
    <text x="59.74" y="134.11" text-anchor="middle" dy="0.6em">250</text>
    <text x="97.17" y="134.11" text-anchor="middle" dy="0.6em">500</text>
    <text x="134.6" y="134.11" text-anchor="middle" dy="0.6em">750</text>
    <text x="172.03" y="134.11" text-anchor="middle" dy="0.6em">1000</text>
  </g>
  <g class="guide colorkey" id="img-612352d0-4">
    <g fill="#4C404B" font-size="2.82" font-family="'PT Sans','Helvetica Neue','Helvetica',sans-serif" id="img-612352d0-5">
      <text x="177.85" y="109.96" dy="0.35em">histogram</text>
      <text x="177.85" y="113.59" dy="0.35em">theoretical curve</text>
    </g>
    <g stroke="#000000" stroke-opacity="0.000" id="img-612352d0-6">
      <rect x="175.03" y="109.06" width="1.81" height="1.81" fill="#00BFFF"/>
      <rect x="175.03" y="112.68" width="1.81" height="1.81" fill="#FFA500"/>
    </g>
    <g fill="#362A35" font-size="3.88" font-family="'PT Sans','Helvetica Neue','Helvetica',sans-serif" stroke="#000000" stroke-opacity="0.000" id="img-612352d0-7">
      <text x="175.03" y="106.14">Legend</text>
    </g>
  </g>
<g clip-path="url(#img-612352d0-8)">
  <g id="img-612352d0-9">
    <g pointer-events="visible" opacity="1" fill="#FFFFFF" stroke="#000000" stroke-opacity="0.000" class="guide background" id="img-612352d0-10">
      <rect x="20.31" y="86.81" width="153.73" height="46.3"/>
    </g>
    <g class="guide ygridlines xfixed" stroke-dasharray="0.5,0.5" stroke-width="0.2" stroke="#808080" id="img-612352d0-11">
      <path fill="none" d="M20.31,131.11 L 174.03 131.11"/>
      <path fill="none" d="M20.31,120.54 L 174.03 120.54"/>
      <path fill="none" d="M20.31,109.96 L 174.03 109.96"/>
      <path fill="none" d="M20.31,99.39 L 174.03 99.39"/>
      <path fill="none" d="M20.31,88.81 L 174.03 88.81"/>
    </g>
    <g class="guide xgridlines yfixed" stroke-dasharray="0.5,0.5" stroke-width="0.2" stroke="#808080" id="img-612352d0-12">
      <path fill="none" d="M22.31,86.81 L 22.31 133.11"/>
      <path fill="none" d="M59.74,86.81 L 59.74 133.11"/>
      <path fill="none" d="M97.17,86.81 L 97.17 133.11"/>
      <path fill="none" d="M134.6,86.81 L 134.6 133.11"/>
      <path fill="none" d="M172.03,86.81 L 172.03 133.11"/>
    </g>
    <g class="plotpanel" id="img-612352d0-13">
      <g stroke-width="0.3" fill="#000000" fill-opacity="0.000" class="geometry" stroke-dasharray="none" stroke="#FFA500" id="img-612352d0-14">
        <path fill="none" d="M22.85,119.36 L 23.39 125.22 23.93 127.17 24.47 128.14 25.01 128.73 25.55 129.12 26.09 129.39 26.63 129.6 27.18 129.77 27.72 129.9 28.26 130 28.8 130.09 29.34 130.17 29.88 130.23 30.42 130.28 30.96 130.33 31.51 130.38 32.05 130.41 32.59 130.45 33.13 130.48 33.67 130.51 34.21 130.53 34.75 130.55 35.29 130.58 35.83 130.59 36.38 130.61 36.92 130.63 37.46 130.64 38 130.66 38.54 130.67 39.08 130.68 39.62 130.7 40.16 130.71 40.71 130.72 41.25 130.73 41.79 130.73 42.33 130.74 42.87 130.75 43.41 130.76 43.95 130.77 44.49 130.77 45.03 130.78 45.58 130.79 46.12 130.79 46.66 130.8 47.2 130.8 47.74 130.81 48.28 130.81 48.82 130.82 49.36 130.82 49.91 130.83 50.45 130.83 50.99 130.83 51.53 130.84 52.07 130.84 52.61 130.85 53.15 130.85 53.69 130.85 54.24 130.86 54.78 130.86 55.32 130.86 55.86 130.86 56.4 130.87 56.94 130.87 57.48 130.87 58.02 130.87 58.56 130.88 59.11 130.88 59.65 130.88 60.19 130.88 60.73 130.88 61.27 130.89 61.81 130.89 62.35 130.89 62.89 130.89 63.44 130.89 63.98 130.89 64.52 130.9 65.06 130.9 65.6 130.9 66.14 130.9 66.68 130.9 67.22 130.9 67.76 130.9 68.31 130.91 68.85 130.91 69.39 130.91 69.93 130.91 70.47 130.91 71.01 130.91 71.55 130.91 72.09 130.91 72.64 130.91 73.18 130.91 73.72 130.92 74.26 130.92 74.8 130.92 75.34 130.92 75.88 130.92 76.42 130.92 76.96 130.92 77.51 130.92 78.05 130.92 78.59 130.92 79.13 130.92 79.67 130.92 80.21 130.92 80.75 130.92 81.29 130.92 81.84 130.92 82.38 130.92 82.92 130.93 83.46 130.93 84 130.93 84.54 130.93 85.08 130.93 85.62 130.93 86.17 130.93 86.71 130.93 87.25 130.93 87.79 130.93 88.33 130.93 88.87 130.93 89.41 130.93 89.95 130.93 90.49 130.93 91.04 130.93 91.58 130.93 92.12 130.93 92.66 130.93 93.2 130.93 93.74 130.93 94.28 130.93 94.82 130.93 95.37 130.93 95.91 130.93 96.45 130.93 96.99 130.92 97.53 130.92 98.07 130.92 98.61 130.92 99.15 130.92 99.69 130.92 100.24 130.92 100.78 130.92 101.32 130.92 101.86 130.92 102.4 130.92 102.94 130.92 103.48 130.92 104.02 130.92 104.57 130.92 105.11 130.92 105.65 130.92 106.19 130.91 106.73 130.91 107.27 130.91 107.81 130.91 108.35 130.91 108.89 130.91 109.44 130.91 109.98 130.91 110.52 130.91 111.06 130.91 111.6 130.9 112.14 130.9 112.68 130.9 113.22 130.9 113.77 130.9 114.31 130.9 114.85 130.9 115.39 130.89 115.93 130.89 116.47 130.89 117.01 130.89 117.55 130.89 118.1 130.89 118.64 130.88 119.18 130.88 119.72 130.88 120.26 130.88 120.8 130.88 121.34 130.87 121.88 130.87 122.42 130.87 122.97 130.87 123.51 130.86 124.05 130.86 124.59 130.86 125.13 130.86 125.67 130.85 126.21 130.85 126.75 130.85 127.3 130.84 127.84 130.84 128.38 130.83 128.92 130.83 129.46 130.83 130 130.82 130.54 130.82 131.08 130.81 131.62 130.81 132.17 130.8 132.71 130.8 133.25 130.79 133.79 130.79 134.33 130.78 134.87 130.77 135.41 130.77 135.95 130.76 136.5 130.75 137.04 130.74 137.58 130.73 138.12 130.73 138.66 130.72 139.2 130.71 139.74 130.7 140.28 130.68 140.82 130.67 141.37 130.66 141.91 130.64 142.45 130.63 142.99 130.61 143.53 130.59 144.07 130.58 144.61 130.55 145.15 130.53 145.7 130.51 146.24 130.48 146.78 130.45 147.32 130.41 147.86 130.38 148.4 130.33 148.94 130.28 149.48 130.23 150.03 130.17 150.57 130.09 151.11 130 151.65 129.9 152.19 129.77 152.73 129.6 153.27 129.39 153.81 129.12 154.35 128.73 154.9 128.14 155.44 127.17 155.98 125.22 156.52 119.36"/>
      </g>
      <g stroke-width="0.3" fill="#000000" fill-opacity="0.000" class="geometry" stroke-dasharray="none" stroke="#FFA500" id="img-612352d0-15">
        <path fill="none" d="M22.85,119.36 L 23.39 125.22 23.93 127.17 24.47 128.14 25.01 128.73 25.55 129.12 26.09 129.39 26.63 129.6 27.18 129.77 27.72 129.9 28.26 130 28.8 130.09 29.34 130.17 29.88 130.23 30.42 130.28 30.96 130.33 31.51 130.38 32.05 130.41 32.59 130.45 33.13 130.48 33.67 130.51 34.21 130.53 34.75 130.55 35.29 130.58 35.83 130.59 36.38 130.61 36.92 130.63 37.46 130.64 38 130.66 38.54 130.67 39.08 130.68 39.62 130.7 40.16 130.71 40.71 130.72 41.25 130.73 41.79 130.73 42.33 130.74 42.87 130.75 43.41 130.76 43.95 130.77 44.49 130.77 45.03 130.78 45.58 130.79 46.12 130.79 46.66 130.8 47.2 130.8 47.74 130.81 48.28 130.81 48.82 130.82 49.36 130.82 49.91 130.83 50.45 130.83 50.99 130.83 51.53 130.84 52.07 130.84 52.61 130.85 53.15 130.85 53.69 130.85 54.24 130.86 54.78 130.86 55.32 130.86 55.86 130.86 56.4 130.87 56.94 130.87 57.48 130.87 58.02 130.87 58.56 130.88 59.11 130.88 59.65 130.88 60.19 130.88 60.73 130.88 61.27 130.89 61.81 130.89 62.35 130.89 62.89 130.89 63.44 130.89 63.98 130.89 64.52 130.9 65.06 130.9 65.6 130.9 66.14 130.9 66.68 130.9 67.22 130.9 67.76 130.9 68.31 130.91 68.85 130.91 69.39 130.91 69.93 130.91 70.47 130.91 71.01 130.91 71.55 130.91 72.09 130.91 72.64 130.91 73.18 130.91 73.72 130.92 74.26 130.92 74.8 130.92 75.34 130.92 75.88 130.92 76.42 130.92 76.96 130.92 77.51 130.92 78.05 130.92 78.59 130.92 79.13 130.92 79.67 130.92 80.21 130.92 80.75 130.92 81.29 130.92 81.84 130.92 82.38 130.92 82.92 130.93 83.46 130.93 84 130.93 84.54 130.93 85.08 130.93 85.62 130.93 86.17 130.93 86.71 130.93 87.25 130.93 87.79 130.93 88.33 130.93 88.87 130.93 89.41 130.93 89.95 130.93 90.49 130.93 91.04 130.93 91.58 130.93 92.12 130.93 92.66 130.93 93.2 130.93 93.74 130.93 94.28 130.93 94.82 130.93 95.37 130.93 95.91 130.93 96.45 130.93 96.99 130.92 97.53 130.92 98.07 130.92 98.61 130.92 99.15 130.92 99.69 130.92 100.24 130.92 100.78 130.92 101.32 130.92 101.86 130.92 102.4 130.92 102.94 130.92 103.48 130.92 104.02 130.92 104.57 130.92 105.11 130.92 105.65 130.92 106.19 130.91 106.73 130.91 107.27 130.91 107.81 130.91 108.35 130.91 108.89 130.91 109.44 130.91 109.98 130.91 110.52 130.91 111.06 130.91 111.6 130.9 112.14 130.9 112.68 130.9 113.22 130.9 113.77 130.9 114.31 130.9 114.85 130.9 115.39 130.89 115.93 130.89 116.47 130.89 117.01 130.89 117.55 130.89 118.1 130.89 118.64 130.88 119.18 130.88 119.72 130.88 120.26 130.88 120.8 130.88 121.34 130.87 121.88 130.87 122.42 130.87 122.97 130.87 123.51 130.86 124.05 130.86 124.59 130.86 125.13 130.86 125.67 130.85 126.21 130.85 126.75 130.85 127.3 130.84 127.84 130.84 128.38 130.83 128.92 130.83 129.46 130.83 130 130.82 130.54 130.82 131.08 130.81 131.62 130.81 132.17 130.8 132.71 130.8 133.25 130.79 133.79 130.79 134.33 130.78 134.87 130.77 135.41 130.77 135.95 130.76 136.5 130.75 137.04 130.74 137.58 130.73 138.12 130.73 138.66 130.72 139.2 130.71 139.74 130.7 140.28 130.68 140.82 130.67 141.37 130.66 141.91 130.64 142.45 130.63 142.99 130.61 143.53 130.59 144.07 130.58 144.61 130.55 145.15 130.53 145.7 130.51 146.24 130.48 146.78 130.45 147.32 130.41 147.86 130.38 148.4 130.33 148.94 130.28 149.48 130.23 150.03 130.17 150.57 130.09 151.11 130 151.65 129.9 152.19 129.77 152.73 129.6 153.27 129.39 153.81 129.12 154.35 128.73 154.9 128.14 155.44 127.17 155.98 125.22 156.52 119.36"/>
      </g>
      <g shape-rendering="crispEdges" stroke-width="0.3" id="img-612352d0-16">
        <g stroke="#000000" stroke-opacity="0.000" fill="#00BFFF" class="geometry" id="img-612352d0-17">
          <rect x="22.28" y="93.04" width="2.75" height="38.07"/>
          <rect x="24.98" y="123.5" width="2.75" height="7.61"/>
          <rect x="27.67" y="108.27" width="2.75" height="22.84"/>
          <rect x="30.37" y="100.66" width="2.75" height="30.46"/>
          <rect x="33.06" y="131.11" width="2.75" height="0.01"/>
          <rect x="35.76" y="115.89" width="2.75" height="15.23"/>
          <rect x="38.45" y="115.89" width="2.75" height="15.23"/>
          <rect x="41.15" y="123.5" width="2.75" height="7.61"/>
          <rect x="43.84" y="115.89" width="2.75" height="15.23"/>
          <rect x="46.54" y="108.27" width="2.75" height="22.84"/>
          <rect x="49.23" y="115.89" width="2.75" height="15.23"/>
          <rect x="51.93" y="108.27" width="2.75" height="22.84"/>
          <rect x="54.62" y="93.04" width="2.75" height="38.07"/>
          <rect x="57.32" y="93.04" width="2.75" height="38.07"/>
          <rect x="60.01" y="115.89" width="2.75" height="15.23"/>
          <rect x="62.71" y="131.11" width="2.75" height="0.01"/>
          <rect x="65.4" y="123.5" width="2.75" height="7.61"/>
          <rect x="68.1" y="115.89" width="2.75" height="15.23"/>
          <rect x="70.79" y="93.04" width="2.75" height="38.07"/>
          <rect x="73.49" y="100.66" width="2.75" height="30.46"/>
          <rect x="76.18" y="108.27" width="2.75" height="22.84"/>
          <rect x="78.88" y="100.66" width="2.75" height="30.46"/>
          <rect x="81.57" y="131.11" width="2.75" height="0.01"/>
          <rect x="84.27" y="131.11" width="2.75" height="0.01"/>
          <rect x="86.96" y="108.27" width="2.75" height="22.84"/>
          <rect x="89.66" y="123.5" width="2.75" height="7.61"/>
          <rect x="92.35" y="123.5" width="2.75" height="7.61"/>
          <rect x="95.05" y="108.27" width="2.75" height="22.84"/>
          <rect x="97.74" y="123.5" width="2.75" height="7.61"/>
          <rect x="100.44" y="115.89" width="2.75" height="15.23"/>
          <rect x="103.13" y="131.11" width="2.75" height="0.01"/>
          <rect x="105.83" y="115.89" width="2.75" height="15.23"/>
          <rect x="108.52" y="131.11" width="2.75" height="0.01"/>
          <rect x="111.22" y="131.11" width="2.75" height="0.01"/>
          <rect x="113.91" y="100.66" width="2.75" height="30.46"/>
          <rect x="116.61" y="100.66" width="2.75" height="30.46"/>
          <rect x="119.3" y="123.5" width="2.75" height="7.61"/>
          <rect x="122" y="123.5" width="2.75" height="7.61"/>
          <rect x="124.69" y="131.11" width="2.75" height="0.01"/>
          <rect x="127.39" y="131.11" width="2.75" height="0.01"/>
          <rect x="130.08" y="131.11" width="2.75" height="0.01"/>
          <rect x="132.78" y="123.5" width="2.75" height="7.61"/>
          <rect x="135.47" y="115.89" width="2.75" height="15.23"/>
          <rect x="138.17" y="123.5" width="2.75" height="7.61"/>
          <rect x="140.86" y="123.5" width="2.75" height="7.61"/>
          <rect x="143.56" y="108.27" width="2.75" height="22.84"/>
          <rect x="146.26" y="115.89" width="2.75" height="15.23"/>
          <rect x="148.95" y="115.89" width="2.75" height="15.23"/>
          <rect x="151.65" y="123.5" width="2.75" height="7.61"/>
          <rect x="154.34" y="93.04" width="2.75" height="38.07"/>
        </g>
      </g>
    </g>
  </g>
</g>
  <g class="guide ylabels" font-size="2.82" font-family="'PT Sans Caption','Helvetica Neue','Helvetica',sans-serif" fill="#000000" id="img-612352d0-18">
    <text x="19.3" y="131.11" text-anchor="end" dy="0.35em">0.00</text>
    <text x="19.3" y="120.54" text-anchor="end" dy="0.35em">0.25</text>
    <text x="19.3" y="109.96" text-anchor="end" dy="0.35em">0.50</text>
    <text x="19.3" y="99.39" text-anchor="end" dy="0.35em">0.75</text>
    <text x="19.3" y="88.81" text-anchor="end" dy="0.35em">1.00</text>
  </g>
  <g font-size="3.88" font-family="'PT Sans','Helvetica Neue','Helvetica',sans-serif" fill="#000000" stroke="#000000" stroke-opacity="0.000" id="img-612352d0-19">
    <text x="8.81" y="107.96" text-anchor="middle" dy="0.35em" transform="rotate(-90, 8.81, 109.96)">density</text>
  </g>
  <g font-size="3.88" font-family="'PT Sans','Helvetica Neue','Helvetica',sans-serif" fill="#000000" stroke="#000000" stroke-opacity="0.000" id="img-612352d0-20">
    <text x="97.17" y="81.2" text-anchor="middle" dy="0.6em">Histogram of population in generation 500</text>
  </g>
</g>
<g class="plotroot xscalable yscalable" id="img-612352d0-21">
  <g font-size="3.88" font-family="'PT Sans','Helvetica Neue','Helvetica',sans-serif" fill="#000000" stroke="#000000" stroke-opacity="0.000" id="img-612352d0-22">
    <text x="109.75" y="64.59" text-anchor="middle" dy="0.6em">generation number</text>
  </g>
  <g class="guide xlabels" font-size="2.82" font-family="'PT Sans Caption','Helvetica Neue','Helvetica',sans-serif" fill="#000000" id="img-612352d0-23">
    <text x="23.31" y="57.91" text-anchor="middle" dy="0.6em">0</text>
    <text x="57.88" y="57.91" text-anchor="middle" dy="0.6em">100</text>
    <text x="92.46" y="57.91" text-anchor="middle" dy="0.6em">200</text>
    <text x="127.04" y="57.91" text-anchor="middle" dy="0.6em">300</text>
    <text x="161.62" y="57.91" text-anchor="middle" dy="0.6em">400</text>
    <text x="196.2" y="57.91" text-anchor="middle" dy="0.6em">500</text>
  </g>
<g clip-path="url(#img-612352d0-24)">
  <g id="img-612352d0-25">
    <g pointer-events="visible" opacity="1" fill="#FFFFFF" stroke="#000000" stroke-opacity="0.000" class="guide background" id="img-612352d0-26">
      <rect x="21.31" y="10.61" width="176.89" height="46.3"/>
    </g>
    <g class="guide ygridlines xfixed" stroke-dasharray="0.5,0.5" stroke-width="0.2" stroke="#808080" id="img-612352d0-27">
      <path fill="none" d="M21.31,54.91 L 198.2 54.91"/>
      <path fill="none" d="M21.31,44.34 L 198.2 44.34"/>
      <path fill="none" d="M21.31,33.76 L 198.2 33.76"/>
      <path fill="none" d="M21.31,23.19 L 198.2 23.19"/>
      <path fill="none" d="M21.31,12.61 L 198.2 12.61"/>
    </g>
    <g class="guide xgridlines yfixed" stroke-dasharray="0.5,0.5" stroke-width="0.2" stroke="#808080" id="img-612352d0-28">
      <path fill="none" d="M23.31,10.61 L 23.31 56.91"/>
      <path fill="none" d="M57.88,10.61 L 57.88 56.91"/>
      <path fill="none" d="M92.46,10.61 L 92.46 56.91"/>
      <path fill="none" d="M127.04,10.61 L 127.04 56.91"/>
      <path fill="none" d="M161.62,10.61 L 161.62 56.91"/>
      <path fill="none" d="M196.2,10.61 L 196.2 56.91"/>
    </g>
    <g class="plotpanel" id="img-612352d0-29">
      <g stroke-width="0.3" fill="#000000" fill-opacity="0.000" class="geometry" stroke-dasharray="none" stroke="#3288BD" id="img-612352d0-30">
        <path fill="none" d="M23.65,35.88 L 24 36.6 24.34 35.79 24.69 36.51 25.03 35.54 25.38 34.86 25.73 35.2 26.07 35.24 26.42 35.07 26.76 36.09 27.11 35.88 27.45 37.82 27.8 38.97 28.15 37.57 28.49 36.3 28.84 36.6 29.18 36.51 29.53 36.34 29.88 35.92 30.22 36.13 30.57 36.56 30.91 36.98 31.26 37.19 31.6 36.72 31.95 36.22 32.3 36.89 32.64 36.81 32.99 37.11 33.33 37.15 33.68 37.61 34.02 37.19 34.37 36.64 34.72 37.23 35.06 37.06 35.41 36.6 35.75 37.11 36.1 36.81 36.45 36.6 36.79 36.51 37.14 37.11 37.48 37.06 37.83 38.12 38.17 37.44 38.52 37.06 38.87 37.91 39.21 37.99 39.56 37.95 39.9 37.4 40.25 37.66 40.59 37.36 40.94 37.32 41.29 37.82 41.63 37.99 41.98 38.04 42.32 37.32 42.67 36.64 43.02 37.36 43.36 37.36 43.71 37.02 44.05 37.78 44.4 36.72 44.74 38.29 45.09 37.74 45.44 36.94 45.78 37.32 46.13 37.82 46.47 37.74 46.82 37.74 47.16 39.18 47.51 37.99 47.86 38.88 48.2 37.99 48.55 37.66 48.89 37.57 49.24 36.98 49.59 37.66 49.93 38.46 50.28 38.88 50.62 39.22 50.97 38.76 51.31 39.35 51.66 39.01 52.01 38.63 52.35 38.97 52.7 39.14 53.04 38.76 53.39 37.32 53.73 36.6 54.08 36.47 54.43 35.67 54.77 35.71 55.12 35.67 55.46 35.07 55.81 34.95 56.16 34.74 56.5 34.14 56.85 34.06 57.19 34.99 57.54 35.62 57.88 35.16 58.23 35.16 58.58 35.16 58.92 34.69 59.27 34.19 59.61 34.4 59.96 33.68 60.3 33.55 60.65 31.39 61 31.44 61.34 31.27 61.69 30.51 62.03 31.14 62.38 30.63 62.73 31.1 63.07 30.97 63.42 31.39 63.76 31.69 64.11 30.8 64.45 30.55 64.8 29.58 65.15 30.46 65.49 30.13 65.84 30.34 66.18 30.25 66.53 30.17 66.87 30.68 67.22 30.72 67.57 30.55 67.91 30.84 68.26 29.83 68.6 30.25 68.95 30.72 69.3 30.51 69.64 30.46 69.99 31.1 70.33 30.68 70.68 30.89 71.02 31.1 71.37 30.76 71.72 31.35 72.06 30.93 72.41 31.1 72.75 32.11 73.1 32.83 73.44 33.42 73.79 33.34 74.14 34.06 74.48 34.99 74.83 34.95 75.17 34.19 75.52 34.23 75.87 33.59 76.21 32.79 76.56 33.17 76.9 34.1 77.25 34.86 77.59 34.36 77.94 34.1 78.29 33.17 78.63 33 78.98 33.59 79.32 34.57 79.67 34.65 80.01 35.29 80.36 35.62 80.71 35.46 81.05 35.37 81.4 34.48 81.74 35.24 82.09 34.95 82.44 35.07 82.78 35.03 83.13 34.86 83.47 36.17 83.82 36.81 84.16 36.77 84.51 36.05 84.86 35.5 85.2 36.47 85.55 36.34 85.89 35.84 86.24 35.79 86.58 36.6 86.93 35.5 87.28 35.03 87.62 34.44 87.97 34.48 88.31 34.27 88.66 34.19 89.01 34.44 89.35 34.61 89.7 34.14 90.04 33.47 90.39 33.13 90.73 33.3 91.08 32.45 91.43 32.71 91.77 33.09 92.12 33.21 92.46 33.81 92.81 34.14 93.15 33.42 93.5 33.85 93.85 34.36 94.19 34.48 94.54 35.54 94.88 35.5 95.23 35.33 95.58 35.2 95.92 35.37 96.27 34.36 96.61 34.23 96.96 35.71 97.3 35.54 97.65 35.2 98 35.07 98.34 35.46 98.69 35.07 99.03 35.5 99.38 35.88 99.72 36.05 100.07 36.85 100.42 37.19 100.76 36.43 101.11 36.13 101.45 36.34 101.8 36.43 102.15 36.26 102.49 36.3 102.84 36.39 103.18 36.09 103.53 37.02 103.87 37.44 104.22 37.82 104.57 37.82 104.91 38.37 105.26 38.71 105.6 38.8 105.95 38.16 106.29 38.12 106.64 38.59 106.99 39.22 107.33 38.63 107.68 38.04 108.02 37.11 108.37 37.78 108.72 36.3 109.06 34.61 109.41 35.46 109.75 36.01 110.1 35.5 110.44 34.61 110.79 35.2 111.14 35.75 111.48 34.82 111.83 35.54 112.17 35.84 112.52 35.37 112.86 34.82 113.21 35.07 113.56 35.54 113.9 37.19 114.25 36.89 114.59 37.57 114.94 38.16 115.29 37.91 115.63 36.72 115.98 36.85 116.32 37.19 116.67 36.98 117.01 36.85 117.36 36.13 117.71 35.62 118.05 35.07 118.4 35.54 118.74 36.64 119.09 36.05 119.43 37.02 119.78 35.75 120.13 36.22 120.47 35.92 120.82 35.41 121.16 35.5 121.51 35.29 121.86 35.62 122.2 34.52 122.55 34.91 122.89 35.24 123.24 35.37 123.58 35.12 123.93 35.33 124.28 35.41 124.62 34.91 124.97 35.58 125.31 36.13 125.66 36.72 126 37.4 126.35 38.25 126.7 38.76 127.04 38.63 127.39 38.59 127.73 39.14 128.08 39.43 128.43 40.4 128.77 40.45 129.12 40.19 129.46 40.66 129.81 42.1 130.15 42.82 130.5 42.31 130.85 42.44 131.19 41.72 131.54 41.5 131.88 41.12 132.23 39.77 132.57 40.7 132.92 40.19 133.27 40.24 133.61 39.05 133.96 38.12 134.3 38.84 134.65 39.35 135 40.36 135.34 39.64 135.69 39.39 136.03 39.09 136.38 38.46 136.72 38.71 137.07 39.77 137.42 40.57 137.76 39.39 138.11 39.56 138.45 39.35 138.8 39.01 139.14 40.49 139.49 39.73 139.84 40.24 140.18 40.74 140.53 40.87 140.87 40.53 141.22 41.34 141.57 42.44 141.91 43.24 142.26 43.45 142.6 44.13 142.95 44.42 143.29 45.27 143.64 45.27 143.99 44.85 144.33 44.47 144.68 43.58 145.02 42.6 145.37 42.1 145.71 41.67 146.06 42.48 146.41 42.77 146.75 43.28 147.1 43.92 147.44 43.83 147.79 44.42 148.14 42.82 148.48 43.79 148.83 43.7 149.17 44.21 149.52 44.89 149.86 45.57 150.21 45.61 150.56 45.23 150.9 45.1 151.25 45.02 151.59 45.4 151.94 45.44 152.28 45.86 152.63 46.12 152.98 46.58 153.32 46.2 153.67 46.54 154.01 46.45 154.36 45.99 154.71 46.45 155.05 46.41 155.4 47 155.74 46.71 156.09 45.95 156.43 45.78 156.78 45.61 157.13 45.99 157.47 46.33 157.82 46.12 158.16 46.45 158.51 45.99 158.85 44.59 159.2 44.3 159.55 43.79 159.89 43.66 160.24 43.41 160.58 43.37 160.93 43.79 161.28 44.42 161.62 43.7 161.97 43.87 162.31 42.94 162.66 42.01 163 41.89 163.35 41.76 163.7 41.38 164.04 41.8 164.39 42.48 164.73 42.39 165.08 41.55 165.42 40.87 165.77 40.87 166.12 40.66 166.46 40.95 166.81 40.87 167.15 40.57 167.5 40.87 167.85 41.08 168.19 42.1 168.54 42.9 168.88 42.05 169.23 41.84 169.57 41.76 169.92 42.27 170.27 41.5 170.61 40.87 170.96 41.97 171.3 42.35 171.65 42.05 171.99 42.35 172.34 42.56 172.69 42.44 173.03 42.14 173.38 42.22 173.72 42.22 174.07 41.5 174.42 40.83 174.76 41.46 175.11 40.79 175.45 40.91 175.8 40.02 176.14 41 176.49 40.62 176.84 41.72 177.18 41.84 177.53 42.44 177.87 42.44 178.22 42.86 178.56 42.99 178.91 43.92 179.26 43.15 179.6 43.2 179.95 42.44 180.29 42.94 180.64 42.82 180.99 42.56 181.33 42.18 181.68 41.46 182.02 42.01 182.37 42.22 182.71 42.35 183.06 43.45 183.41 42.01 183.75 41.55 184.1 41.38 184.44 40.24 184.79 40.4 185.13 40.83 185.48 40.7 185.83 40.36 186.17 40.32 186.52 39.43 186.86 39.43 187.21 40.57 187.56 40.49 187.9 41.08 188.25 41.84 188.59 41.38 188.94 40.53 189.28 41.84 189.63 41.97 189.98 42.73 190.32 43.54 190.67 42.86 191.01 43.15 191.36 43.2 191.7 43.45 192.05 43.24 192.4 43.87 192.74 44.34 193.09 43.7 193.43 43.7 193.78 44.34 194.13 44.59 194.47 44.3 194.82 44.72 195.16 43.83 195.51 44.13 195.85 43.7 196.2 43.62"/>
      </g>
      <g stroke-width="0.3" fill="#000000" fill-opacity="0.000" class="geometry" stroke-dasharray="none" stroke="#66C2A5" id="img-612352d0-31">
        <path fill="none" d="M23.65,35.88 L 24 35.62 24.34 35.67 24.69 35.37 25.03 35.12 25.38 34.57 25.73 33.81 26.07 35.03 26.42 35.07 26.76 34.95 27.11 34.36 27.45 34.31 27.8 34.23 28.15 33.68 28.49 32.11 28.84 31.27 29.18 30.93 29.53 31.44 29.88 31.06 30.22 29.24 30.57 28.73 30.91 28.6 31.26 29.07 31.6 29.11 31.95 28.09 32.3 28.09 32.64 27.93 32.99 27.97 33.33 28.43 33.68 27.71 34.02 28.9 34.37 28.52 34.72 29.45 35.06 30.38 35.41 30.93 35.75 30.13 36.1 29.36 36.45 30.08 36.79 30.51 37.14 29.87 37.48 30.8 37.83 30.08 38.17 30.08 38.52 29.45 38.87 29.53 39.21 28.77 39.56 27.8 39.9 27.46 40.25 27.21 40.59 27.54 40.94 26.66 41.29 26.61 41.63 26.66 41.98 26.23 42.32 26.44 42.67 26.87 43.02 27.08 43.36 26.78 43.71 27.54 44.05 27.59 44.4 26.95 44.74 26.91 45.09 27.38 45.44 27.46 45.78 26.95 46.13 27.29 46.47 27.21 46.82 26.83 47.16 27.08 47.51 27.08 47.86 27.04 48.2 26.28 48.55 25.47 48.89 25.6 49.24 25.01 49.59 25.05 49.93 25.3 50.28 24.5 50.62 24.25 50.97 23.57 51.31 23.06 51.66 23.53 52.01 23.36 52.35 23.48 52.7 23.7 53.04 23.65 53.39 23.44 53.73 22.89 54.08 22.64 54.43 22.85 54.77 22.38 55.12 22.21 55.46 22.3 55.81 23.02 56.16 22.76 56.5 22.68 56.85 22.38 57.19 22.34 57.54 21.88 57.88 22.6 58.23 23.02 58.58 23.36 58.92 23.82 59.27 23.82 59.61 23.23 59.96 23.4 60.3 23.06 60.65 24.12 61 24.92 61.34 25.81 61.69 25.47 62.03 25.73 62.38 25.73 62.73 25.51 63.07 26.28 63.42 27.04 63.76 27.93 64.11 28.48 64.45 28.09 64.8 27.93 65.15 27.71 65.49 27.42 65.84 27.29 66.18 27.63 66.53 27.63 66.87 26.91 67.22 26.87 67.57 26.19 67.91 26.49 68.26 26.83 68.6 26.57 68.95 25.89 69.3 25.98 69.64 25.01 69.99 24.71 70.33 24.37 70.68 25.18 71.02 25.13 71.37 25.6 71.72 25.13 72.06 24.75 72.41 24.75 72.75 25.05 73.1 24.84 73.44 25.85 73.79 25.81 74.14 25.13 74.48 25.64 74.83 25.13 75.17 25.56 75.52 25.94 75.87 26.15 76.21 26.06 76.56 25.94 76.9 26.57 77.25 26.44 77.59 26.15 77.94 25.56 78.29 25.98 78.63 25.09 78.98 25.13 79.32 25.73 79.67 24.54 80.01 25.18 80.36 25.64 80.71 26.49 81.05 26.36 81.4 27.12 81.74 28.9 82.09 28.77 82.44 28.69 82.78 28.9 83.13 29.49 83.47 28.94 83.82 29.79 84.16 28.22 84.51 28.77 84.86 28.01 85.2 28.22 85.55 28.64 85.89 28.48 86.24 27.46 86.58 27.29 86.93 27.5 87.28 27.59 87.62 28.73 87.97 27.8 88.31 28.05 88.66 28.94 89.01 29.41 89.35 29.53 89.7 29.07 90.04 27.97 90.39 28.14 90.73 28.52 91.08 27.71 91.43 28.09 91.77 27.59 92.12 27.71 92.46 28.69 92.81 30 93.15 30.68 93.5 31.18 93.85 30.93 94.19 30.93 94.54 30.55 94.88 29.79 95.23 29.91 95.58 31.01 95.92 30.63 96.27 30.04 96.61 28.48 96.96 28.35 97.3 28.14 97.65 29.53 98 30.08 98.34 30 98.69 30.51 99.03 30 99.38 28.94 99.72 28.94 100.07 28.69 100.42 28.81 100.76 28.69 101.11 29.03 101.45 29.32 101.8 28.69 102.15 29.62 102.49 29.41 102.84 29.36 103.18 29.66 103.53 29.83 103.87 30.29 104.22 29.83 104.57 29.79 104.91 29.32 105.26 29.87 105.6 29.28 105.95 29.03 106.29 29.41 106.64 28.05 106.99 28.14 107.33 29.19 107.68 29.32 108.02 30.17 108.37 29.19 108.72 28.9 109.06 29.45 109.41 28.56 109.75 27.93 110.1 27.42 110.44 27.12 110.79 27.84 111.14 28.31 111.48 28.6 111.83 28.56 112.17 29.15 112.52 30.38 112.86 30.25 113.21 30.13 113.56 31.61 113.9 32.37 114.25 32.33 114.59 32.28 114.94 31.9 115.29 31.52 115.63 31.23 115.98 31.1 116.32 31.31 116.67 31.23 117.01 31.01 117.36 31.18 117.71 32.37 118.05 31.39 118.4 31.27 118.74 30.25 119.09 30.13 119.43 29.66 119.78 30.13 120.13 31.06 120.47 31.31 120.82 31.35 121.16 32.24 121.51 31.69 121.86 31.56 122.2 31.18 122.55 30.51 122.89 29.83 123.24 29.58 123.58 28.64 123.93 28.43 124.28 27.97 124.62 26.83 124.97 27.29 125.31 27.54 125.66 27.71 126 28.56 126.35 28.9 126.7 28.73 127.04 28.81 127.39 29.83 127.73 31.18 128.08 30.76 128.43 31.35 128.77 31.69 129.12 32.83 129.46 32.24 129.81 32.62 130.15 33.3 130.5 32.75 130.85 33.13 131.19 32.54 131.54 31.86 131.88 33.81 132.23 33.17 132.57 33.47 132.92 32.96 133.27 33.47 133.61 33.04 133.96 34.36 134.3 33.97 134.65 34.61 135 33.81 135.34 33.68 135.69 33.21 136.03 33.17 136.38 33.89 136.72 34.02 137.07 33 137.42 33.59 137.76 33.55 138.11 33.38 138.45 33.97 138.8 35.29 139.14 35.46 139.49 36.22 139.84 36.56 140.18 36.51 140.53 35.96 140.87 35.75 141.22 36.09 141.57 36.13 141.91 36.05 142.26 35.96 142.6 37.19 142.95 37.36 143.29 37.02 143.64 36.39 143.99 36.56 144.33 36.77 144.68 37.19 145.02 37.44 145.37 37.7 145.71 38.42 146.06 37.44 146.41 37.49 146.75 38.04 147.1 38.92 147.44 38.63 147.79 37.7 148.14 37.66 148.48 38.59 148.83 38.63 149.17 39.01 149.52 39.69 149.86 39.26 150.21 39.98 150.56 39.73 150.9 39.6 151.25 39.09 151.59 39.14 151.94 39.01 152.28 38.97 152.63 39.26 152.98 39.22 153.32 39.98 153.67 40.66 154.01 40.49 154.36 39.77 154.71 40.45 155.05 39.94 155.4 40.02 155.74 39.43 156.09 39.81 156.43 39.05 156.78 39.98 157.13 39.98 157.47 40.07 157.82 39.9 158.16 39.64 158.51 38.84 158.85 38.8 159.2 38.71 159.55 38.63 159.89 38.33 160.24 38.25 160.58 38.12 160.93 38.54 161.28 38.63 161.62 39.22 161.97 38.67 162.31 38.63 162.66 38.46 163 38.29 163.35 38.71 163.7 37.95 164.04 37.4 164.39 37.87 164.73 37.74 165.08 37.82 165.42 37.02 165.77 37.06 166.12 37.4 166.46 37.99 166.81 37.95 167.15 37.44 167.5 36.47 167.85 37.32 168.19 36.98 168.54 36.94 168.88 36.85 169.23 36.77 169.57 37.15 169.92 37.44 170.27 36.51 170.61 37.74 170.96 38.92 171.3 39.01 171.65 39.01 171.99 39.43 172.34 39.6 172.69 38.84 173.03 39.01 173.38 38.92 173.72 39.01 174.07 38.08 174.42 38.12 174.76 37.74 175.11 37.19 175.45 37.95 175.8 38.63 176.14 38.8 176.49 38.8 176.84 39.09 177.18 39.09 177.53 39.14 177.87 39.14 178.22 39.69 178.56 40.32 178.91 40.57 179.26 41.08 179.6 40.49 179.95 41.38 180.29 40.95 180.64 40.45 180.99 40.57 181.33 41.89 181.68 42.1 182.02 42.44 182.37 42.27 182.71 42.77 183.06 42.22 183.41 41.97 183.75 43.58 184.1 43.37 184.44 43.96 184.79 43.41 185.13 43.45 185.48 43.32 185.83 43.49 186.17 42.27 186.52 41.21 186.86 41.5 187.21 41.8 187.56 40.57 187.9 41.29 188.25 41.5 188.59 40.74 188.94 42.05 189.28 42.01 189.63 42.69 189.98 42.22 190.32 42.52 190.67 42.56 191.01 42.77 191.36 42.77 191.7 42.94 192.05 42.86 192.4 42.94 192.74 42.52 193.09 43.15 193.43 42.52 193.78 42.22 194.13 41.34 194.47 41.17 194.82 41.38 195.16 41 195.51 40.15 195.85 40.4 196.2 40.28"/>
      </g>
      <g stroke-width="0.3" fill="#000000" fill-opacity="0.000" class="geometry" stroke-dasharray="none" stroke="#ABDDA4" id="img-612352d0-32">
        <path fill="none" d="M23.65,35.88 L 24 35.71 24.34 35.24 24.69 35.41 25.03 36.05 25.38 36.39 25.73 35.75 26.07 35.46 26.42 34.52 26.76 34.31 27.11 33.55 27.45 32.96 27.8 32.58 28.15 32.45 28.49 32.54 28.84 31.86 29.18 31.56 29.53 31.73 29.88 31.39 30.22 30.93 30.57 31.78 30.91 31.65 31.26 31.65 31.6 30.89 31.95 31.61 32.3 31.73 32.64 31.73 32.99 30.97 33.33 30.8 33.68 31.78 34.02 31.44 34.37 31.9 34.72 32.2 35.06 31.99 35.41 33.09 35.75 34.23 36.1 34.82 36.45 35.24 36.79 35.37 37.14 34.44 37.48 34.95 37.83 34.78 38.17 34.78 38.52 35.07 38.87 34.4 39.21 34.27 39.56 33.72 39.9 33.76 40.25 33.13 40.59 33.38 40.94 33.76 41.29 33.34 41.63 33.17 41.98 33.38 42.32 32.79 42.67 32.62 43.02 32.58 43.36 32.54 43.71 33.47 44.05 33.42 44.4 32.58 44.74 32.66 45.09 33.21 45.44 33.42 45.78 33.17 46.13 33.51 46.47 33.47 46.82 32.66 47.16 32.45 47.51 34.02 47.86 34.27 48.2 33.64 48.55 33.21 48.89 33.85 49.24 34.44 49.59 35.24 49.93 35.37 50.28 36.22 50.62 36.3 50.97 35.41 51.31 35.12 51.66 35.29 52.01 35.67 52.35 35.5 52.7 36.13 53.04 34.91 53.39 36.43 53.73 36.51 54.08 36.81 54.43 37.02 54.77 35.84 55.12 36.77 55.46 37.53 55.81 38.16 56.16 37.91 56.5 37.02 56.85 37.4 57.19 37.32 57.54 36.85 57.88 36.05 58.23 34.91 58.58 35.07 58.92 35.58 59.27 36.77 59.61 36.85 59.96 36.85 60.3 37.4 60.65 36.89 61 37.57 61.34 37.66 61.69 37.02 62.03 36.51 62.38 36.05 62.73 35.41 63.07 34.86 63.42 35.24 63.76 35.92 64.11 34.99 64.45 34.91 64.8 34.65 65.15 35.58 65.49 35.75 65.84 35.84 66.18 36.39 66.53 35.88 66.87 36.39 67.22 35.2 67.57 34.23 67.91 33.85 68.26 34.36 68.6 33.38 68.95 33.59 69.3 33.21 69.64 33.09 69.99 33.34 70.33 33.17 70.68 33.64 71.02 33.85 71.37 34.14 71.72 33.93 72.06 33.51 72.41 33.13 72.75 32.71 73.1 33.47 73.44 32.45 73.79 31.65 74.14 31.39 74.48 30.04 74.83 29.74 75.17 29.36 75.52 30.59 75.87 30.34 76.21 31.48 76.56 31.01 76.9 31.06 77.25 31.31 77.59 30.84 77.94 30.63 78.29 30.17 78.63 29.91 78.98 30.17 79.32 30.72 79.67 31.06 80.01 31.01 80.36 30.46 80.71 30.84 81.05 31.01 81.4 30.46 81.74 29.45 82.09 29.7 82.44 29.62 82.78 28.43 83.13 28.05 83.47 27.54 83.82 26.74 84.16 26.99 84.51 27.21 84.86 27.38 85.2 27.25 85.55 27.16 85.89 27.88 86.24 27.88 86.58 27.29 86.93 27.67 87.28 27.93 87.62 28.81 87.97 29.24 88.31 29.83 88.66 30.46 89.01 30.8 89.35 31.35 89.7 31.82 90.04 32.37 90.39 32.96 90.73 32.75 91.08 32.83 91.43 33.3 91.77 35.41 92.12 35.07 92.46 35.54 92.81 35.71 93.15 36.17 93.5 35.84 93.85 36.05 94.19 35.79 94.54 35.46 94.88 34.52 95.23 34.61 95.58 34.19 95.92 34.1 96.27 35.16 96.61 34.02 96.96 34.44 97.3 33.38 97.65 33.13 98 32.62 98.34 31.86 98.69 31.73 99.03 32.58 99.38 31.82 99.72 31.31 100.07 31.48 100.42 30.51 100.76 30.38 101.11 30.42 101.45 30.21 101.8 29.83 102.15 29.32 102.49 29.45 102.84 28.77 103.18 28.22 103.53 28.77 103.87 28.56 104.22 28.73 104.57 28.22 104.91 27.59 105.26 27.63 105.6 27.67 105.95 29.19 106.29 27.5 106.64 28.14 106.99 27.38 107.33 26.95 107.68 26.99 108.02 25.89 108.37 25.47 108.72 25.56 109.06 25.56 109.41 25.26 109.75 26.32 110.1 25.13 110.44 25.68 110.79 25.51 111.14 25.05 111.48 25.18 111.83 25.51 112.17 26.06 112.52 25.73 112.86 24.96 113.21 24.8 113.56 25.39 113.9 25.09 114.25 25.18 114.59 24.46 114.94 24.71 115.29 25.13 115.63 25.18 115.98 25.77 116.32 25.6 116.67 25.01 117.01 24.84 117.36 25.22 117.71 24.92 118.05 25.43 118.4 25.13 118.74 25.56 119.09 25.85 119.43 25.94 119.78 26.7 120.13 26.49 120.47 26.57 120.82 25.81 121.16 26.06 121.51 26.78 121.86 25.56 122.2 24.58 122.55 24.41 122.89 24.88 123.24 23.95 123.58 23.48 123.93 22.43 124.28 22.72 124.62 22.26 124.97 22.34 125.31 22.43 125.66 22.55 126 22.3 126.35 21.71 126.7 21.58 127.04 22.55 127.39 23.1 127.73 23.74 128.08 23.78 128.43 24.33 128.77 23.82 129.12 23.78 129.46 23.44 129.81 23.15 130.15 23.57 130.5 23.86 130.85 24.37 131.19 24.25 131.54 24.84 131.88 25.13 132.23 24.46 132.57 24.54 132.92 25.22 133.27 25.51 133.61 25.39 133.96 25.64 134.3 25.34 134.65 25.47 135 25.43 135.34 24.92 135.69 25.47 136.03 25.89 136.38 25.6 136.72 25.43 137.07 25.68 137.42 24.96 137.76 25.26 138.11 24.63 138.45 24.84 138.8 24.25 139.14 23.86 139.49 24.08 139.84 24.75 140.18 24.41 140.53 23.57 140.87 23.36 141.22 23.74 141.57 23.31 141.91 22.72 142.26 23.15 142.6 23.53 142.95 23.4 143.29 22.64 143.64 22.21 143.99 22.51 144.33 22.98 144.68 22.3 145.02 21.71 145.37 21.5 145.71 22.13 146.06 22.3 146.41 23.06 146.75 23.27 147.1 22.38 147.44 22.55 147.79 22.43 148.14 22.93 148.48 22.98 148.83 23.7 149.17 23.57 149.52 22.85 149.86 23.57 150.21 23.19 150.56 24.03 150.9 24.33 151.25 24.5 151.59 24.63 151.94 24.29 152.28 24.46 152.63 25.3 152.98 24.84 153.32 24.8 153.67 24.84 154.01 24.5 154.36 24.46 154.71 23.74 155.05 24.67 155.4 24.88 155.74 24.58 156.09 25.3 156.43 25.56 156.78 26.57 157.13 26.53 157.47 27.21 157.82 28.01 158.16 29.41 158.51 28.81 158.85 28.26 159.2 28.39 159.55 27.76 159.89 28.31 160.24 29.45 160.58 28.98 160.93 28.43 161.28 28.18 161.62 29.7 161.97 30.21 162.31 29.49 162.66 29.62 163 30.04 163.35 31.27 163.7 31.61 164.04 32.03 164.39 32.16 164.73 32.2 165.08 32.37 165.42 31.61 165.77 31.44 166.12 32.03 166.46 32.58 166.81 32.79 167.15 33 167.5 32.49 167.85 32.28 168.19 31.99 168.54 32.54 168.88 32.28 169.23 31.56 169.57 30.72 169.92 30.63 170.27 30.89 170.61 31.39 170.96 31.27 171.3 31.73 171.65 32.07 171.99 30.76 172.34 30.63 172.69 31.44 173.03 31.65 173.38 32.24 173.72 31.65 174.07 31.65 174.42 32.66 174.76 32.33 175.11 32.66 175.45 32.96 175.8 33.42 176.14 34.06 176.49 33.93 176.84 33.93 177.18 34.91 177.53 34.65 177.87 34.57 178.22 34.02 178.56 34.1 178.91 35.62 179.26 36.34 179.6 36.17 179.95 36.47 180.29 36.56 180.64 36.56 180.99 36.09 181.33 35.84 181.68 35.71 182.02 35.84 182.37 35.46 182.71 35.58 183.06 36.22 183.41 36.64 183.75 36.64 184.1 37.06 184.44 36.98 184.79 36.43 185.13 36.39 185.48 37.53 185.83 37.32 186.17 36.77 186.52 36.94 186.86 37.11 187.21 38.5 187.56 37.82 187.9 36.6 188.25 36.51 188.59 35.71 188.94 35.41 189.28 35.37 189.63 35.2 189.98 35.54 190.32 35.46 190.67 35.03 191.01 35.54 191.36 35.75 191.7 36.05 192.05 36.39 192.4 36.77 192.74 36.81 193.09 37.4 193.43 37.99 193.78 37.87 194.13 38.16 194.47 37.82 194.82 38.37 195.16 38.8 195.51 39.18 195.85 38.63 196.2 38.42"/>
      </g>
      <g stroke-width="0.3" fill="#000000" fill-opacity="0.000" class="geometry" stroke-dasharray="none" stroke="#E6F598" id="img-612352d0-33">
        <path fill="none" d="M23.65,35.88 L 24 37.15 24.34 37.7 24.69 37.61 25.03 38.12 25.38 38.16 25.73 38.46 26.07 38.67 26.42 38.88 26.76 38.54 27.11 38.08 27.45 37.82 27.8 37.15 28.15 37.44 28.49 37.44 28.84 36.89 29.18 37.44 29.53 37.44 29.88 37.23 30.22 37.27 30.57 38.33 30.91 38.92 31.26 39.86 31.6 40.91 31.95 42.05 32.3 41.38 32.64 42.18 32.99 41.67 33.33 41.67 33.68 41.72 34.02 42.31 34.37 42.22 34.72 43.28 35.06 43.45 35.41 43.75 35.75 44.51 36.1 44.68 36.45 44.55 36.79 44.59 37.14 45.31 37.48 44.25 37.83 45.02 38.17 45.69 38.52 46.71 38.87 46.71 39.21 47.26 39.56 46.5 39.9 47.3 40.25 46.62 40.59 45.86 40.94 45.78 41.29 45.69 41.63 45.74 41.98 45.35 42.32 45.4 42.67 45.82 43.02 45.44 43.36 45.31 43.71 44.68 44.05 44.68 44.4 43.32 44.74 43.92 45.09 45.1 45.44 45.23 45.78 45.99 46.13 46.67 46.47 47.51 46.82 48.53 47.16 49.12 47.51 49.46 47.86 49.8 48.2 49.88 48.55 49.16 48.89 49.29 49.24 47.93 49.59 47.72 49.93 47.6 50.28 47.68 50.62 48.06 50.97 47.85 51.31 48.23 51.66 47.55 52.01 48.02 52.35 47.93 52.7 48.36 53.04 47.77 53.39 47.72 53.73 46.75 54.08 47.26 54.43 47.05 54.77 47.05 55.12 47.85 55.46 47.55 55.81 48.36 56.16 49.12 56.5 48.23 56.85 48.1 57.19 47.64 57.54 47.26 57.88 47.39 58.23 47.93 58.58 47.72 58.92 47.72 59.27 47.22 59.61 47.34 59.96 47.22 60.3 47.3 60.65 47.05 61 47.17 61.34 47.17 61.69 47 62.03 47 62.38 47.17 62.73 47.81 63.07 47.43 63.42 47.13 63.76 46.75 64.11 47.6 64.45 48.02 64.8 48.53 65.15 48.23 65.49 47.85 65.84 47.13 66.18 47.3 66.53 47.55 66.87 47.09 67.22 47.39 67.57 47.22 67.91 47.05 68.26 47.43 68.6 47.85 68.95 47.98 69.3 48.7 69.64 48.02 69.99 48.48 70.33 48.91 70.68 48.82 71.02 48.91 71.37 47.81 71.72 47.81 72.06 47.93 72.41 48.61 72.75 49.25 73.1 48.99 73.44 49.25 73.79 49.8 74.14 50.35 74.48 50.52 74.83 50.39 75.17 50.6 75.52 51.19 75.87 51.19 76.21 51.02 76.56 50.73 76.9 50.85 77.25 51.02 77.59 50.85 77.94 50.56 78.29 50.13 78.63 49.8 78.98 49.37 79.32 48.91 79.67 48.36 80.01 48.61 80.36 48.32 80.71 48.61 81.05 49.25 81.4 48.61 81.74 48.87 82.09 49.03 82.44 48.27 82.78 48.95 83.13 48.74 83.47 49.2 83.82 49.88 84.16 49.92 84.51 50.43 84.86 50.43 85.2 50.13 85.55 49.88 85.89 49.5 86.24 49.5 86.58 49.8 86.93 49.75 87.28 48.7 87.62 48.65 87.97 48.27 88.31 48.91 88.66 48.48 89.01 48.44 89.35 48.32 89.7 48.4 90.04 48.7 90.39 48.91 90.73 48.82 91.08 48.74 91.43 48.48 91.77 48.87 92.12 49.2 92.46 49.25 92.81 49.67 93.15 49.67 93.5 49.84 93.85 49.8 94.19 49.71 94.54 50.09 94.88 50.52 95.23 49.97 95.58 49.75 95.92 49.71 96.27 49.8 96.61 49.88 96.96 49.97 97.3 49.8 97.65 50.22 98 50.6 98.34 50.05 98.69 50.05 99.03 50.18 99.38 50.68 99.72 50.94 100.07 50.98 100.42 49.84 100.76 50.18 101.11 50.39 101.45 49.88 101.8 50.26 102.15 49.75 102.49 50.05 102.84 50.77 103.18 50.9 103.53 51.23 103.87 50.52 104.22 51.02 104.57 51.36 104.91 51.28 105.26 50.47 105.6 50.81 105.95 50.73 106.29 50.6 106.64 49.92 106.99 49.92 107.33 50.35 107.68 50.22 108.02 49.54 108.37 49.58 108.72 49.88 109.06 49.58 109.41 50.13 109.75 49.5 110.1 50.22 110.44 50.39 110.79 49.84 111.14 50.13 111.48 49.84 111.83 48.65 112.17 48.78 112.52 48.78 112.86 48.36 113.21 49.37 113.56 49.08 113.9 48.99 114.25 48.48 114.59 48.91 114.94 49.84 115.29 49.46 115.63 49.16 115.98 48.57 116.32 48.44 116.67 47.85 117.01 47.85 117.36 46.84 117.71 47.26 118.05 46.84 118.4 47.05 118.74 47.17 119.09 46.5 119.43 45.82 119.78 45.78 120.13 45.48 120.47 44.89 120.82 44.34 121.16 44.34 121.51 45.14 121.86 45.86 122.2 45.23 122.55 44.93 122.89 45.82 123.24 44.93 123.58 43.66 123.93 43.07 124.28 43.03 124.62 42.01 124.97 41.93 125.31 42.14 125.66 41.76 126 41.25 126.35 41.46 126.7 40.11 127.04 40.02 127.39 39.98 127.73 40.19 128.08 39.05 128.43 39.81 128.77 39.64 129.12 39.09 129.46 38.84 129.81 38.84 130.15 38.46 130.5 38.5 130.85 37.99 131.19 38.76 131.54 37.23 131.88 37.02 132.23 37.44 132.57 37.82 132.92 37.78 133.27 37.91 133.61 37.27 133.96 37.95 134.3 37.95 134.65 37.87 135 36.85 135.34 36.89 135.69 37.32 136.03 37.87 136.38 37.57 136.72 37.87 137.07 37.95 137.42 38.71 137.76 39.31 138.11 39.73 138.45 38.84 138.8 38.59 139.14 39.64 139.49 39.64 139.84 39.86 140.18 39.09 140.53 38.21 140.87 38.37 141.22 38.33 141.57 39.31 141.91 39.81 142.26 39.69 142.6 39.94 142.95 39.86 143.29 39.98 143.64 39.31 143.99 38.76 144.33 40.11 144.68 40.28 145.02 41.25 145.37 41.17 145.71 42.48 146.06 43.2 146.41 43.58 146.75 44 147.1 43.75 147.44 44.21 147.79 44.59 148.14 43.96 148.48 43.58 148.83 42.99 149.17 42.77 149.52 42.69 149.86 42.18 150.21 42.22 150.56 42.22 150.9 43.11 151.25 42.99 151.59 42.82 151.94 42.94 152.28 43.54 152.63 42.9 152.98 42.1 153.32 41.97 153.67 42.69 154.01 42.82 154.36 42.77 154.71 41.89 155.05 41.25 155.4 41.25 155.74 40.87 156.09 41.21 156.43 41.29 156.78 40.53 157.13 39.98 157.47 40.32 157.82 41.17 158.16 40.83 158.51 41.59 158.85 41.8 159.2 41.59 159.55 41.25 159.89 41.08 160.24 40.87 160.58 41.59 160.93 42.27 161.28 42.35 161.62 42.48 161.97 42.31 162.31 42.27 162.66 42.86 163 41.59 163.35 42.18 163.7 42.44 164.04 42.6 164.39 42.52 164.73 42.94 165.08 43.32 165.42 44.42 165.77 43.83 166.12 43.2 166.46 42.52 166.81 42.27 167.15 43.11 167.5 43.07 167.85 44.13 168.19 42.86 168.54 43.75 168.88 43.28 169.23 43.11 169.57 43.96 169.92 43.45 170.27 43.87 170.61 44.38 170.96 45.31 171.3 45.65 171.65 45.78 171.99 45.06 172.34 44.59 172.69 45.78 173.03 46.03 173.38 45.9 173.72 46.71 174.07 47.64 174.42 48.1 174.76 47.81 175.11 48.27 175.45 48.44 175.8 48.06 176.14 47.77 176.49 48.32 176.84 48.65 177.18 48.87 177.53 49.63 177.87 49.54 178.22 50.43 178.56 50.68 178.91 50.56 179.26 50.52 179.6 50.35 179.95 50.39 180.29 50.47 180.64 50.09 180.99 50.13 181.33 50.77 181.68 50.47 182.02 50.6 182.37 50.35 182.71 50.73 183.06 51.07 183.41 51.36 183.75 51.57 184.1 51.7 184.44 51.74 184.79 51.95 185.13 51.74 185.48 51.78 185.83 51.45 186.17 51.49 186.52 51.78 186.86 51.45 187.21 51.66 187.56 51.91 187.9 52.17 188.25 52.63 188.59 52.04 188.94 52.33 189.28 52.04 189.63 51.91 189.98 51.87 190.32 52 190.67 51.78 191.01 51.91 191.36 51.74 191.7 51.78 192.05 51.62 192.4 51.7 192.74 51.62 193.09 52.04 193.43 52.46 193.78 52.67 194.13 52.93 194.47 52.88 194.82 52.88 195.16 52.84 195.51 52.55 195.85 52.63 196.2 52.72"/>
      </g>
      <g stroke-width="0.3" fill="#000000" fill-opacity="0.000" class="geometry" stroke-dasharray="none" stroke="#FFFFBF" id="img-612352d0-34">
        <path fill="none" d="M23.65,35.88 L 24 35.33 24.34 35.46 24.69 35.33 25.03 34.78 25.38 34.52 25.73 33.76 26.07 32.45 26.42 32.45 26.76 32.33 27.11 32.83 27.45 32.54 27.8 31.94 28.15 31.23 28.49 31.35 28.84 31.69 29.18 31.23 29.53 31.23 29.88 31.99 30.22 32.62 30.57 32.28 30.91 32.49 31.26 31.73 31.6 31.39 31.95 31.56 32.3 31.65 32.64 31.61 32.99 30.97 33.33 31.78 33.68 32.07 34.02 31.86 34.37 32.54 34.72 31.99 35.06 32.41 35.41 32.79 35.75 32.71 36.1 32.58 36.45 31.78 36.79 32.45 37.14 32.37 37.48 32.58 37.83 33.3 38.17 33.17 38.52 34.57 38.87 34.86 39.21 35.84 39.56 35.58 39.9 36.85 40.25 36.56 40.59 36.3 40.94 36.81 41.29 36.64 41.63 36.85 41.98 37.23 42.32 37.78 42.67 38.08 43.02 37.78 43.36 38.16 43.71 37.91 44.05 38.08 44.4 38.92 44.74 38.8 45.09 38.67 45.44 38.5 45.78 38.63 46.13 38.33 46.47 38.54 46.82 39.18 47.16 40.66 47.51 40.62 47.86 41.25 48.2 42.22 48.55 42.27 48.89 41.72 49.24 42.18 49.59 41.55 49.93 41.8 50.28 41.63 50.62 40.87 50.97 41.04 51.31 41.21 51.66 41.63 52.01 40.15 52.35 39.39 52.7 38.25 53.04 38.33 53.39 39.14 53.73 40.15 54.08 40.4 54.43 41.63 54.77 41.76 55.12 41.46 55.46 41.17 55.81 40.36 56.16 40.66 56.5 40.45 56.85 39.98 57.19 39.52 57.54 39.31 57.88 39.47 58.23 38.88 58.58 39.01 58.92 38.92 59.27 38.84 59.61 37.27 59.96 37.44 60.3 38.08 60.65 38.5 61 37.74 61.34 38.33 61.69 39.77 62.03 40.19 62.38 40.83 62.73 41 63.07 41.08 63.42 41.12 63.76 41 64.11 40.95 64.45 39.05 64.8 39.56 65.15 39.6 65.49 39.56 65.84 40.91 66.18 39.9 66.53 39.22 66.87 39.35 67.22 39.52 67.57 39.22 67.91 38.8 68.26 37.44 68.6 36.98 68.95 36.09 69.3 36.56 69.64 36.94 69.99 36.89 70.33 37.61 70.68 37.57 71.02 37.23 71.37 37.53 71.72 36.64 72.06 36.81 72.41 37.19 72.75 36.81 73.1 37.91 73.44 37.53 73.79 37.78 74.14 37.74 74.48 37.36 74.83 36.64 75.17 36.13 75.52 36.13 75.87 35.71 76.21 35.62 76.56 35.41 76.9 34.23 77.25 33.81 77.59 33.55 77.94 34.14 78.29 34.99 78.63 34.95 78.98 35.33 79.32 35.33 79.67 35.96 80.01 35.33 80.36 35.37 80.71 35.12 81.05 35.33 81.4 35.07 81.74 35.54 82.09 35.2 82.44 35.92 82.78 36.47 83.13 35.5 83.47 34.86 83.82 35.92 84.16 37.15 84.51 36.34 84.86 35.84 85.2 36.26 85.55 36.6 85.89 37.11 86.24 37.87 86.58 37.06 86.93 37.87 87.28 38.04 87.62 38.92 87.97 39.56 88.31 38.92 88.66 39.43 89.01 40.32 89.35 40.45 89.7 40.07 90.04 40.49 90.39 40.62 90.73 40.11 91.08 39.98 91.43 40.4 91.77 39.81 92.12 40.11 92.46 41.12 92.81 41.55 93.15 40.32 93.5 41.17 93.85 41.67 94.19 41.89 94.54 40.83 94.88 42.18 95.23 41.29 95.58 41.46 95.92 40.95 96.27 41.63 96.61 40.49 96.96 41.97 97.3 42.1 97.65 42.01 98 41.5 98.34 41.5 98.69 41.12 99.03 42.05 99.38 42.9 99.72 43.24 100.07 43.58 100.42 43.83 100.76 43.49 101.11 44.13 101.45 43.79 101.8 44.21 102.15 43.87 102.49 42.52 102.84 42.39 103.18 41.76 103.53 41.34 103.87 40.91 104.22 40.79 104.57 40.45 104.91 40.11 105.26 40.66 105.6 40.15 105.95 39.94 106.29 40.7 106.64 40.87 106.99 41.21 107.33 41.04 107.68 40.36 108.02 40.66 108.37 40.36 108.72 40.28 109.06 40.83 109.41 41.08 109.75 40.4 110.1 40.28 110.44 40.83 110.79 40.74 111.14 42.01 111.48 42.35 111.83 42.48 112.17 42.6 112.52 41.97 112.86 42.69 113.21 43.62 113.56 43.03 113.9 43.41 114.25 44.38 114.59 44.76 114.94 46.12 115.29 45.95 115.63 45.95 115.98 45.65 116.32 45.82 116.67 46.24 117.01 45.78 117.36 45.78 117.71 46.2 118.05 46.67 118.4 47.09 118.74 47.13 119.09 47.77 119.43 47.26 119.78 47.85 120.13 47.72 120.47 48.27 120.82 48.06 121.16 48.19 121.51 48.36 121.86 48.44 122.2 48.95 122.55 49.03 122.89 49.2 123.24 49.33 123.58 49.25 123.93 49.63 124.28 49.54 124.62 49.46 124.97 49.92 125.31 49.92 125.66 50.01 126 48.95 126.35 49.46 126.7 48.65 127.04 47.89 127.39 47.47 127.73 47.77 128.08 47.47 128.43 46.88 128.77 47.05 129.12 47.22 129.46 46.54 129.81 46.88 130.15 47.05 130.5 46.75 130.85 46.33 131.19 46.16 131.54 46.5 131.88 45.95 132.23 46.03 132.57 46.16 132.92 45.61 133.27 46.5 133.61 47.26 133.96 47.13 134.3 47.3 134.65 46.79 135 46.29 135.34 45.82 135.69 45.86 136.03 46.12 136.38 45.78 136.72 45.27 137.07 45.69 137.42 45.78 137.76 44.72 138.11 44.76 138.45 44.3 138.8 45.14 139.14 44.72 139.49 44.38 139.84 44.17 140.18 44.76 140.53 45.27 140.87 45.27 141.22 45.31 141.57 45.23 141.91 44.85 142.26 44.8 142.6 44.25 142.95 43.7 143.29 44.59 143.64 44.76 143.99 43.66 144.33 44.85 144.68 44.09 145.02 44.3 145.37 45.1 145.71 44.51 146.06 44.51 146.41 44.34 146.75 44.55 147.1 44.76 147.44 44.76 147.79 45.57 148.14 45.31 148.48 45.31 148.83 45.4 149.17 44.72 149.52 45.27 149.86 44.55 150.21 44.76 150.56 45.02 150.9 45.23 151.25 44.51 151.59 44.72 151.94 44.76 152.28 44.97 152.63 45.99 152.98 46.12 153.32 45.69 153.67 46.24 154.01 46.71 154.36 46.5 154.71 46.84 155.05 47.81 155.4 48.15 155.74 47.26 156.09 46.92 156.43 45.9 156.78 45.69 157.13 45.57 157.47 44.85 157.82 44.55 158.16 44.55 158.51 42.99 158.85 44.3 159.2 44.09 159.55 44.68 159.89 44.59 160.24 44.04 160.58 44.34 160.93 45.23 161.28 44.8 161.62 45.31 161.97 45.57 162.31 46.33 162.66 47.09 163 46.92 163.35 47.05 163.7 46.41 164.04 45.69 164.39 45.48 164.73 46.07 165.08 46.2 165.42 46.96 165.77 47.05 166.12 47.3 166.46 48.06 166.81 47.43 167.15 47.72 167.5 47.81 167.85 48.48 168.19 47.68 168.54 48.06 168.88 47.98 169.23 47.93 169.57 48.61 169.92 48.48 170.27 48.91 170.61 49.2 170.96 49.16 171.3 48.87 171.65 49.29 171.99 49.12 172.34 48.65 172.69 48.61 173.03 48.87 173.38 49.37 173.72 49.29 174.07 49.08 174.42 49.33 174.76 49.12 175.11 49.46 175.45 49.16 175.8 49.67 176.14 49.42 176.49 49.46 176.84 50.09 177.18 50.47 177.53 50.39 177.87 49.58 178.22 50.05 178.56 50.22 178.91 50.09 179.26 50.22 179.6 50.43 179.95 50.3 180.29 50.56 180.64 50.68 180.99 50.68 181.33 50.35 181.68 50.81 182.02 50.85 182.37 49.97 182.71 50.26 183.06 50.47 183.41 51.19 183.75 51.4 184.1 51.4 184.44 51.95 184.79 51.87 185.13 51.57 185.48 51.23 185.83 50.64 186.17 50.39 186.52 49.5 186.86 49.2 187.21 50.26 187.56 50.09 187.9 49.67 188.25 50.13 188.59 50.43 188.94 50.94 189.28 50.85 189.63 50.94 189.98 51.02 190.32 51.66 190.67 51.74 191.01 52.08 191.36 52.21 191.7 51.87 192.05 51.83 192.4 52.42 192.74 52.59 193.09 52.59 193.43 52.63 193.78 52.42 194.13 52.25 194.47 52 194.82 52.17 195.16 52.12 195.51 52.17 195.85 52.17 196.2 52.38"/>
      </g>
      <g stroke-width="0.3" fill="#000000" fill-opacity="0.000" class="geometry" stroke-dasharray="none" stroke="#FEE08B" id="img-612352d0-35">
        <path fill="none" d="M23.65,35.88 L 24 35.84 24.34 35.24 24.69 35.2 25.03 35.71 25.38 34.69 25.73 34.78 26.07 34.06 26.42 34.44 26.76 35.67 27.11 34.95 27.45 34.57 27.8 34.52 28.15 34.74 28.49 35.07 28.84 35.24 29.18 35.03 29.53 34.61 29.88 34.48 30.22 35.54 30.57 35.62 30.91 36.26 31.26 36.43 31.6 37.66 31.95 38.04 32.3 37.99 32.64 38.67 32.99 38.71 33.33 38.5 33.68 38.33 34.02 38.59 34.37 38.42 34.72 38.25 35.06 38.67 35.41 38.84 35.75 38.42 36.1 37.7 36.45 37.66 36.79 37.36 37.14 37.66 37.48 37.23 37.83 37.66 38.17 36.98 38.52 36.39 38.87 36.39 39.21 35.92 39.56 36.22 39.9 35.58 40.25 35.16 40.59 35.07 40.94 35.67 41.29 35.16 41.63 35.75 41.98 36.3 42.32 36.3 42.67 36.22 43.02 35.92 43.36 36.26 43.71 35.46 44.05 36.56 44.4 37.7 44.74 37.06 45.09 37.02 45.44 37.06 45.78 37.7 46.13 36.3 46.47 36.6 46.82 36.39 47.16 36.09 47.51 36.22 47.86 35.71 48.2 35.33 48.55 35.92 48.89 36.13 49.24 36.01 49.59 36.64 49.93 36.22 50.28 36.43 50.62 36.39 50.97 35.75 51.31 36.51 51.66 36.47 52.01 36.72 52.35 37.11 52.7 36.39 53.04 36.3 53.39 35.46 53.73 33.97 54.08 34.44 54.43 35.03 54.77 36.22 55.12 37.4 55.46 36.94 55.81 37.49 56.16 37.87 56.5 38.29 56.85 38.42 57.19 38.12 57.54 37.57 57.88 37.57 58.23 38.33 58.58 38.5 58.92 37.4 59.27 38.29 59.61 39.05 59.96 38.76 60.3 38.12 60.65 38.08 61 37.87 61.34 37.99 61.69 38.46 62.03 38.59 62.38 37.7 62.73 37.82 63.07 37.4 63.42 36.81 63.76 36.34 64.11 37.02 64.45 36.68 64.8 35.84 65.15 35.79 65.49 36.13 65.84 36.26 66.18 37.11 66.53 37.23 66.87 37.74 67.22 37.27 67.57 36.85 67.91 36.81 68.26 36.01 68.6 36.13 68.95 35.37 69.3 35.24 69.64 34.61 69.99 34.57 70.33 35.07 70.68 35.67 71.02 37.02 71.37 37.19 71.72 36.85 72.06 37.57 72.41 37.19 72.75 36.34 73.1 36.6 73.44 35.58 73.79 34.57 74.14 33.93 74.48 34.06 74.83 34.06 75.17 33.76 75.52 33.89 75.87 33.3 76.21 33.68 76.56 33.17 76.9 32.37 77.25 31.56 77.59 31.99 77.94 31.65 78.29 31.69 78.63 30.93 78.98 30.17 79.32 29.28 79.67 28.77 80.01 28.73 80.36 28.6 80.71 27.84 81.05 27.08 81.4 26.61 81.74 27.04 82.09 26.49 82.44 26.15 82.78 27.42 83.13 27.76 83.47 27.67 83.82 26.57 84.16 25.94 84.51 27.08 84.86 26.95 85.2 27.12 85.55 27.84 85.89 27.04 86.24 27.59 86.58 27.84 86.93 27.93 87.28 28.14 87.62 27.88 87.97 28.26 88.31 28.05 88.66 27.84 89.01 27.54 89.35 27.93 89.7 28.35 90.04 28.6 90.39 28.52 90.73 27.21 91.08 27.16 91.43 26.87 91.77 26.74 92.12 26.44 92.46 27.08 92.81 26.95 93.15 26.57 93.5 26.4 93.85 27.08 94.19 26.78 94.54 26.49 94.88 26.78 95.23 27.42 95.58 27.97 95.92 27.76 96.27 28.73 96.61 28.77 96.96 29.41 97.3 30.72 97.65 29.96 98 29.7 98.34 30.46 98.69 31.69 99.03 31.86 99.38 30.29 99.72 30.59 100.07 30.17 100.42 29.83 100.76 29.32 101.11 29.19 101.45 29.96 101.8 29.36 102.15 28.01 102.49 28.22 102.84 28.26 103.18 28.94 103.53 29.66 103.87 28.73 104.22 28.81 104.57 28.48 104.91 28.43 105.26 28.31 105.6 28.56 105.95 29.36 106.29 28.86 106.64 28.6 106.99 27.76 107.33 28.35 107.68 28.73 108.02 28.05 108.37 28.69 108.72 28.98 109.06 29.62 109.41 29.49 109.75 29.24 110.1 30.13 110.44 30.29 110.79 29.32 111.14 29.41 111.48 29.49 111.83 30.51 112.17 29.36 112.52 29.62 112.86 29.36 113.21 28.98 113.56 30 113.9 30.51 114.25 30.72 114.59 31.48 114.94 31.56 115.29 33.17 115.63 32.75 115.98 32.83 116.32 33.55 116.67 33.68 117.01 33.68 117.36 33.09 117.71 32.96 118.05 32.92 118.4 32.07 118.74 33.17 119.09 33.17 119.43 33.42 119.78 33.34 120.13 33.34 120.47 33.72 120.82 34.69 121.16 34.65 121.51 32.58 121.86 32.54 122.2 32.62 122.55 33 122.89 32.41 123.24 33.21 123.58 33.09 123.93 33.04 124.28 33.72 124.62 33.76 124.97 34.48 125.31 35.92 125.66 35.29 126 36.3 126.35 33.97 126.7 34.06 127.04 34.52 127.39 33.81 127.73 34.19 128.08 34.52 128.43 34.14 128.77 34.91 129.12 34.06 129.46 34.57 129.81 33.51 130.15 33 130.5 33.09 130.85 31.94 131.19 31.06 131.54 31.44 131.88 31.44 132.23 29.91 132.57 30.51 132.92 30.21 133.27 30 133.61 30.38 133.96 30.63 134.3 30.76 134.65 29.79 135 29.45 135.34 28.31 135.69 28.69 136.03 28.18 136.38 28.69 136.72 28.31 137.07 27.93 137.42 27.63 137.76 26.83 138.11 27.54 138.45 27.46 138.8 27.08 139.14 27.63 139.49 26.91 139.84 27.12 140.18 26.44 140.53 26.23 140.87 26.28 141.22 26.11 141.57 25.01 141.91 24.25 142.26 23.7 142.6 23.31 142.95 23.4 143.29 24.03 143.64 22.68 143.99 22.34 144.33 22.43 144.68 22.38 145.02 21.83 145.37 21.88 145.71 21.45 146.06 21.11 146.41 20.69 146.75 20.73 147.1 20.56 147.44 20.23 147.79 19.51 148.14 18.79 148.48 18.32 148.83 18.53 149.17 18.66 149.52 19 149.86 19.3 150.21 19.51 150.56 19.59 150.9 19.89 151.25 19.85 151.59 19.42 151.94 19.76 152.28 20.52 152.63 20.65 152.98 20.78 153.32 20.52 153.67 20.9 154.01 20.44 154.36 19.51 154.71 19.51 155.05 19.3 155.4 18.96 155.74 18.87 156.09 18.7 156.43 18.49 156.78 18.7 157.13 18.36 157.47 18.2 157.82 18.32 158.16 18.28 158.51 18.15 158.85 18.11 159.2 18.03 159.55 17.94 159.89 17.98 160.24 17.77 160.58 17.86 160.93 17.94 161.28 17.9 161.62 18.2 161.97 18.32 162.31 18.15 162.66 18.03 163 18.28 163.35 18.2 163.7 18.11 164.04 18.58 164.39 18.28 164.73 18.15 165.08 18.32 165.42 17.98 165.77 18.15 166.12 17.98 166.46 17.81 166.81 17.65 167.15 17.39 167.5 17.35 167.85 17.1 168.19 17.14 168.54 17.1 168.88 17.1 169.23 17.1 169.57 17.18 169.92 17.1 170.27 17.05 170.61 17.22 170.96 17.01 171.3 16.93 171.65 16.93 171.99 16.88 172.34 16.93 172.69 16.93 173.03 16.93 173.38 16.88 173.72 17.01 174.07 17.1 174.42 17.39 174.76 17.48 175.11 17.43 175.45 17.31 175.8 17.65 176.14 17.77 176.49 17.81 176.84 17.94 177.18 17.6 177.53 17.43 177.87 17.43 178.22 17.65 178.56 18.07 178.91 17.94 179.26 18.15 179.6 18.24 179.95 18.03 180.29 18.07 180.64 17.86 180.99 17.65 181.33 17.81 181.68 17.56 182.02 17.56 182.37 17.65 182.71 17.35 183.06 17.27 183.41 17.31 183.75 17.27 184.1 17.27 184.44 17.35 184.79 17.48 185.13 17.48 185.48 17.69 185.83 17.81 186.17 17.86 186.52 17.56 186.86 17.52 187.21 17.65 187.56 17.65 187.9 17.81 188.25 17.48 188.59 17.52 188.94 17.6 189.28 17.39 189.63 17.31 189.98 17.65 190.32 17.69 190.67 17.9 191.01 17.94 191.36 17.98 191.7 17.9 192.05 18.28 192.4 18.32 192.74 18.28 193.09 18.36 193.43 18.49 193.78 19.21 194.13 19.34 194.47 19.55 194.82 20.56 195.16 20.73 195.51 20.65 195.85 19.63 196.2 19.55"/>
      </g>
      <g stroke-width="0.3" fill="#000000" fill-opacity="0.000" class="geometry" stroke-dasharray="none" stroke="#FDAE61" id="img-612352d0-36">
        <path fill="none" d="M23.65,35.88 L 24 36.81 24.34 36.51 24.69 37.11 25.03 36.85 25.38 36.64 25.73 36.39 26.07 36.09 26.42 35.29 26.76 35.07 27.11 34.02 27.45 33.97 27.8 34.14 28.15 33.93 28.49 33.55 28.84 34.31 29.18 33.26 29.53 33.38 29.88 33.89 30.22 33.09 30.57 33.34 30.91 33.38 31.26 33.68 31.6 33.04 31.95 32.2 32.3 31.99 32.64 31.9 32.99 31.61 33.33 30.8 33.68 30.21 34.02 30.68 34.37 31.44 34.72 31.44 35.06 31.69 35.41 32.11 35.75 32.54 36.1 32.62 36.45 31.1 36.79 30.89 37.14 29.83 37.48 29.58 37.83 30.04 38.17 30.68 38.52 29.15 38.87 30.08 39.21 29.96 39.56 29.87 39.9 29.83 40.25 29.96 40.59 29.41 40.94 29.45 41.29 29.49 41.63 30.59 41.98 30.29 42.32 29.36 42.67 28.69 43.02 28.39 43.36 27.54 43.71 28.35 44.05 28.56 44.4 29.36 44.74 27.67 45.09 26.74 45.44 26.53 45.78 26.66 46.13 26.44 46.47 26.91 46.82 26.28 47.16 25.94 47.51 26.32 47.86 26.02 48.2 26.19 48.55 25.81 48.89 24.92 49.24 25.89 49.59 26.02 49.93 26.15 50.28 26.32 50.62 26.53 50.97 26.32 51.31 26.61 51.66 27.67 52.01 27.5 52.35 27.84 52.7 28.05 53.04 27.54 53.39 28.05 53.73 28.26 54.08 29.11 54.43 28.98 54.77 28.86 55.12 29.07 55.46 28.9 55.81 28.05 56.16 27.63 56.5 28.14 56.85 28.35 57.19 29.03 57.54 28.14 57.88 28.18 58.23 26.91 58.58 26.91 58.92 26.87 59.27 26.78 59.61 25.89 59.96 25.26 60.3 25.09 60.65 24.29 61 24.33 61.34 23.95 61.69 24.2 62.03 24.37 62.38 23.7 62.73 23.91 63.07 23.61 63.42 24.08 63.76 24.67 64.11 24.54 64.45 24.12 64.8 23.48 65.15 23.4 65.49 24.08 65.84 24.63 66.18 25.09 66.53 25.73 66.87 26.02 67.22 25.98 67.57 26.4 67.91 27.08 68.26 27.16 68.6 27.71 68.95 27.76 69.3 28.26 69.64 28.81 69.99 28.86 70.33 28.48 70.68 29.19 71.02 30.84 71.37 31.65 71.72 32.37 72.06 32.2 72.41 31.82 72.75 32.11 73.1 31.48 73.44 30.8 73.79 32.11 74.14 30.17 74.48 29.49 74.83 28.73 75.17 27.97 75.52 28.56 75.87 28.73 76.21 28.52 76.56 27.42 76.9 27.25 77.25 27.46 77.59 27.42 77.94 27.67 78.29 28.14 78.63 28.01 78.98 28.09 79.32 28.05 79.67 27.42 80.01 26.36 80.36 26.15 80.71 25.68 81.05 25.6 81.4 24.54 81.74 25.81 82.09 25.73 82.44 25.98 82.78 26.19 83.13 26.95 83.47 27.25 83.82 27.59 84.16 27.42 84.51 26.66 84.86 27.63 85.2 27.88 85.55 27.97 85.89 28.56 86.24 28.56 86.58 29.07 86.93 29.15 87.28 29.41 87.62 29.15 87.97 29.49 88.31 28.6 88.66 28.14 89.01 28.14 89.35 27.33 89.7 26.83 90.04 26.87 90.39 25.56 90.73 25.77 91.08 26.28 91.43 26.19 91.77 25.81 92.12 26.15 92.46 26.11 92.81 26.74 93.15 27.25 93.5 27.46 93.85 27.88 94.19 27.84 94.54 27.12 94.88 26.87 95.23 27.29 95.58 27.38 95.92 27.46 96.27 26.66 96.61 26.57 96.96 26.78 97.3 27.46 97.65 27.33 98 27.04 98.34 26.91 98.69 26.4 99.03 25.64 99.38 25.47 99.72 25.39 100.07 25.64 100.42 25.47 100.76 24.5 101.11 23.61 101.45 22.98 101.8 23.31 102.15 23.31 102.49 23.82 102.84 23.78 103.18 23.44 103.53 23.65 103.87 23.82 104.22 23.95 104.57 24.25 104.91 24.41 105.26 24.88 105.6 25.09 105.95 26.02 106.29 25.98 106.64 25.81 106.99 25.47 107.33 24.08 107.68 24.25 108.02 24.54 108.37 25.94 108.72 26.66 109.06 27.54 109.41 27.29 109.75 26.7 110.1 27.84 110.44 28.05 110.79 28.39 111.14 27.97 111.48 27.88 111.83 27.88 112.17 28.31 112.52 28.69 112.86 28.77 113.21 28.18 113.56 29.07 113.9 29.03 114.25 28.39 114.59 28.18 114.94 28.22 115.29 28.48 115.63 27.71 115.98 27.76 116.32 28.26 116.67 28.39 117.01 28.26 117.36 28.09 117.71 28.01 118.05 28.77 118.4 28.26 118.74 29.15 119.09 29.74 119.43 30.42 119.78 29.7 120.13 29.11 120.47 29.87 120.82 29.74 121.16 29.83 121.51 29.03 121.86 28.77 122.2 28.43 122.55 28.43 122.89 28.22 123.24 28.43 123.58 27.93 123.93 28.56 124.28 28.05 124.62 27.97 124.97 28.43 125.31 28.77 125.66 27.93 126 28.05 126.35 27.88 126.7 27.76 127.04 27.29 127.39 27.42 127.73 27.71 128.08 27.71 128.43 27.25 128.77 26.78 129.12 26.87 129.46 28.09 129.81 28.22 130.15 28.09 130.5 27.63 130.85 27.08 131.19 26.23 131.54 26.36 131.88 28.14 132.23 27.38 132.57 28.77 132.92 29.24 133.27 29.15 133.61 28.9 133.96 27.33 134.3 27.12 134.65 27.04 135 28.56 135.34 28.9 135.69 28.09 136.03 28.77 136.38 29.07 136.72 30.21 137.07 30.34 137.42 30.38 137.76 29.7 138.11 28.9 138.45 29.19 138.8 29.32 139.14 30.89 139.49 29.96 139.84 29.28 140.18 29.79 140.53 30.13 140.87 29.74 141.22 28.26 141.57 28.52 141.91 27.8 142.26 27.84 142.6 28.01 142.95 28.18 143.29 27.84 143.64 28.31 143.99 29.24 144.33 29.66 144.68 29.36 145.02 29.03 145.37 28.73 145.71 29.28 146.06 28.98 146.41 29.58 146.75 29.91 147.1 29.7 147.44 30.04 147.79 30.93 148.14 32.11 148.48 32.16 148.83 31.78 149.17 31.39 149.52 31.73 149.86 34.1 150.21 35.62 150.56 35.54 150.9 36.05 151.25 36.94 151.59 36.89 151.94 36.43 152.28 36.09 152.63 36.85 152.98 36.13 153.32 36.09 153.67 36.6 154.01 36.81 154.36 36.56 154.71 36.64 155.05 37.11 155.4 36.77 155.74 36.39 156.09 37.32 156.43 38.54 156.78 38.16 157.13 37.7 157.47 38.16 157.82 38.46 158.16 38.63 158.51 37.87 158.85 38.76 159.2 38.76 159.55 39.77 159.89 39.81 160.24 39.31 160.58 39.47 160.93 39.22 161.28 41.38 161.62 41.04 161.97 41.34 162.31 41.89 162.66 41.63 163 41.59 163.35 41.46 163.7 41.46 164.04 41.67 164.39 41.55 164.73 42.56 165.08 42.39 165.42 42.44 165.77 42.44 166.12 42.86 166.46 42.39 166.81 41.93 167.15 42.69 167.5 42.18 167.85 43.2 168.19 44.55 168.54 44.21 168.88 44.8 169.23 44.42 169.57 45.23 169.92 45.99 170.27 45.61 170.61 45.61 170.96 44.89 171.3 44.42 171.65 44.68 171.99 44.8 172.34 44.47 172.69 43.49 173.03 43.83 173.38 44.34 173.72 44.8 174.07 45.4 174.42 45.86 174.76 46.2 175.11 46.88 175.45 46.96 175.8 47.64 176.14 48.32 176.49 48.23 176.84 47.89 177.18 47.17 177.53 48.06 177.87 48.61 178.22 48.91 178.56 48.82 178.91 49.16 179.26 50.01 179.6 50.01 179.95 49.88 180.29 50.18 180.64 49.42 180.99 49.67 181.33 49.71 181.68 49.08 182.02 49.03 182.37 49.71 182.71 50.18 183.06 50.01 183.41 50.18 183.75 49.97 184.1 49.8 184.44 49.8 184.79 50.3 185.13 50.56 185.48 50.56 185.83 50.43 186.17 50.09 186.52 50.43 186.86 50.18 187.21 50.3 187.56 50.01 187.9 50.22 188.25 49.92 188.59 49.03 188.94 48.99 189.28 48.91 189.63 48.61 189.98 49.25 190.32 49.03 190.67 48.53 191.01 48.4 191.36 48.61 191.7 48.44 192.05 48.57 192.4 49.03 192.74 48.48 193.09 48.06 193.43 47.55 193.78 47.6 194.13 47.26 194.47 47.55 194.82 47.6 195.16 46.5 195.51 47.17 195.85 47.34 196.2 48.65"/>
      </g>
      <g stroke-width="0.3" fill="#000000" fill-opacity="0.000" class="geometry" stroke-dasharray="none" stroke="#F46D43" id="img-612352d0-37">
        <path fill="none" d="M23.65,35.88 L 24 35.12 24.34 34.65 24.69 34.99 25.03 34.82 25.38 35.24 25.73 35.33 26.07 34.86 26.42 34.4 26.76 34.57 27.11 34.27 27.45 33.76 27.8 33.38 28.15 32.92 28.49 33.51 28.84 33.59 29.18 33 29.53 33.13 29.88 33.68 30.22 33 30.57 33.34 30.91 33.13 31.26 34.14 31.6 34.14 31.95 35.33 32.3 35.67 32.64 35.16 32.99 35.41 33.33 35.03 33.68 36.77 34.02 36.77 34.37 37.23 34.72 38.08 35.06 39.47 35.41 40.4 35.75 40.24 36.1 40.07 36.45 40.87 36.79 40.7 37.14 40.45 37.48 40.19 37.83 39.9 38.17 39.77 38.52 40.15 38.87 40.66 39.21 40.19 39.56 39.77 39.9 40.24 40.25 42.18 40.59 42.9 40.94 42.99 41.29 42.69 41.63 42.9 41.98 42.69 42.32 42.22 42.67 41.67 43.02 42.01 43.36 42.69 43.71 42.86 44.05 42.82 44.4 42.05 44.74 41.72 45.09 41.46 45.44 41.42 45.78 42.05 46.13 41.84 46.47 41.67 46.82 41.5 47.16 41.55 47.51 41.34 47.86 40.66 48.2 41.12 48.55 40.7 48.89 40.83 49.24 41.97 49.59 41.93 49.93 42.56 50.28 43.07 50.62 43.41 50.97 43.11 51.31 42.99 51.66 43.37 52.01 43.28 52.35 42.1 52.7 42.48 53.04 42.27 53.39 41.84 53.73 42.05 54.08 42.69 54.43 43.07 54.77 43.75 55.12 44.55 55.46 44.55 55.81 43.49 56.16 44.04 56.5 43.96 56.85 43.79 57.19 43.83 57.54 44.34 57.88 43.49 58.23 43.58 58.58 43.54 58.92 43.58 59.27 44.51 59.61 45.61 59.96 45.9 60.3 46.5 60.65 46.58 61 46.84 61.34 47.13 61.69 47 62.03 46.88 62.38 47.26 62.73 46.92 63.07 47.13 63.42 47.55 63.76 47 64.11 47.68 64.45 47.39 64.8 47.3 65.15 47.39 65.49 47.17 65.84 47.3 66.18 47.6 66.53 47.05 66.87 47.55 67.22 47.3 67.57 47.34 67.91 47.39 68.26 47 68.6 47.39 68.95 47.39 69.3 47.51 69.64 47.09 69.99 46.58 70.33 46.58 70.68 46.07 71.02 46.03 71.37 45.99 71.72 47 72.06 46.29 72.41 45.86 72.75 45.44 73.1 45.65 73.44 45.27 73.79 44.55 74.14 45.02 74.48 44.93 74.83 44.38 75.17 43.07 75.52 43.03 75.87 43.15 76.21 43.11 76.56 42.22 76.9 41.97 77.25 42.6 77.59 42.31 77.94 41.72 78.29 41.46 78.63 41.46 78.98 40.79 79.32 40.62 79.67 40.07 80.01 39.9 80.36 39.9 80.71 39.69 81.05 40.02 81.4 40.07 81.74 40.74 82.09 40.28 82.44 40.36 82.78 40.49 83.13 40.95 83.47 41.17 83.82 41.55 84.16 42.69 84.51 43.07 84.86 42.69 85.2 42.73 85.55 43.45 85.89 43.79 86.24 44 86.58 44.13 86.93 43.7 87.28 44.34 87.62 44.38 87.97 44.21 88.31 44.76 88.66 45.4 89.01 46.45 89.35 46.12 89.7 44.8 90.04 44.09 90.39 44.55 90.73 44.3 91.08 44.76 91.43 43.79 91.77 44.21 92.12 44.47 92.46 44.04 92.81 44.25 93.15 44.13 93.5 44.38 93.85 42.82 94.19 42.01 94.54 42.01 94.88 42.94 95.23 41.93 95.58 41.5 95.92 40.83 96.27 41.55 96.61 40.28 96.96 40.57 97.3 41.12 97.65 41.97 98 42.77 98.34 42.77 98.69 43.07 99.03 42.22 99.38 41.55 99.72 42.39 100.07 41.93 100.42 41.93 100.76 42.56 101.11 42.18 101.45 42.39 101.8 42.77 102.15 43.03 102.49 43.24 102.84 42.6 103.18 42.05 103.53 42.52 103.87 43.11 104.22 43.03 104.57 43.03 104.91 43.37 105.26 44 105.6 42.99 105.95 42.35 106.29 42.73 106.64 41.76 106.99 42.01 107.33 41.59 107.68 42.01 108.02 42.48 108.37 41.76 108.72 42.44 109.06 42.35 109.41 41.89 109.75 42.05 110.1 42.94 110.44 43.54 110.79 42.77 111.14 42.94 111.48 43.41 111.83 43.96 112.17 42.73 112.52 42.82 112.86 43.07 113.21 42.9 113.56 42.01 113.9 41.84 114.25 42.9 114.59 44.25 114.94 43.07 115.29 44.76 115.63 45.14 115.98 45.57 116.32 45.44 116.67 45.06 117.01 44.68 117.36 44.38 117.71 44.25 118.05 44.76 118.4 45.35 118.74 46.71 119.09 47.3 119.43 47.72 119.78 48.15 120.13 48.57 120.47 48.48 120.82 48.91 121.16 49.46 121.51 48.82 121.86 48.99 122.2 48.87 122.55 48.7 122.89 48.57 123.24 48.61 123.58 49.16 123.93 47.72 124.28 47.3 124.62 47.3 124.97 47.17 125.31 47 125.66 46.16 126 45.52 126.35 46.45 126.7 46.16 127.04 46.54 127.39 46.92 127.73 46.96 128.08 46.2 128.43 45.95 128.77 45.74 129.12 45.31 129.46 45.14 129.81 44.76 130.15 43.62 130.5 43.07 130.85 43.03 131.19 43.7 131.54 44.3 131.88 45.35 132.23 45.61 132.57 44.85 132.92 44.85 133.27 45.57 133.61 46.12 133.96 46.07 134.3 45.61 134.65 46.24 135 46.16 135.34 46.75 135.69 46.79 136.03 46.54 136.38 47.09 136.72 47.51 137.07 48.02 137.42 46.92 137.76 46.24 138.11 46.58 138.45 46.79 138.8 48.02 139.14 48.15 139.49 47.89 139.84 48.78 140.18 49.03 140.53 48.78 140.87 48.4 141.22 48.53 141.57 48.87 141.91 48.74 142.26 48.44 142.6 47.89 142.95 48.95 143.29 48.99 143.64 48.78 143.99 47.81 144.33 48.65 144.68 48.19 145.02 48.19 145.37 48.23 145.71 48.19 146.06 48.27 146.41 47.43 146.75 48.02 147.1 48.57 147.44 48.36 147.79 48.53 148.14 48.48 148.48 48.82 148.83 48.91 149.17 48.82 149.52 48.78 149.86 48.74 150.21 48.23 150.56 48.48 150.9 47.93 151.25 49.16 151.59 49.2 151.94 49.88 152.28 50.26 152.63 49.8 152.98 50.3 153.32 49.33 153.67 49.63 154.01 49.8 154.36 50.64 154.71 49.54 155.05 48.4 155.4 47.64 155.74 46.2 156.09 47 156.43 46.84 156.78 46.29 157.13 47.22 157.47 46.88 157.82 47.81 158.16 47.17 158.51 47.26 158.85 46.33 159.2 46.71 159.55 47.26 159.89 47.26 160.24 47.13 160.58 47.72 160.93 46.79 161.28 46.88 161.62 46.41 161.97 46.62 162.31 46.54 162.66 45.99 163 45.61 163.35 46.33 163.7 46.5 164.04 46.29 164.39 46.45 164.73 47.47 165.08 47.64 165.42 48.15 165.77 48.61 166.12 48.74 166.46 48.87 166.81 49.33 167.15 49.46 167.5 49.67 167.85 48.74 168.19 49.33 168.54 49.5 168.88 50.01 169.23 50.26 169.57 49.84 169.92 50.01 170.27 49.42 170.61 49.8 170.96 48.95 171.3 48.27 171.65 47.26 171.99 47.17 172.34 47.26 172.69 46.75 173.03 46.07 173.38 45.27 173.72 44.89 174.07 44.89 174.42 44.97 174.76 45.69 175.11 46.92 175.45 46.45 175.8 47 176.14 45.69 176.49 45.86 176.84 46.41 177.18 46.41 177.53 46.24 177.87 46.07 178.22 46.33 178.56 46.54 178.91 47 179.26 46.12 179.6 45.31 179.95 45.48 180.29 45.27 180.64 45.27 180.99 46.29 181.33 46.5 181.68 46.5 182.02 46.41 182.37 46.37 182.71 46.03 183.06 44.93 183.41 44.25 183.75 45.02 184.1 45.4 184.44 45.48 184.79 45.35 185.13 45.65 185.48 45.57 185.83 46.45 186.17 46.07 186.52 45.44 186.86 45.48 187.21 45.52 187.56 44.38 187.9 44.47 188.25 44.42 188.59 44.04 188.94 44.42 189.28 44.8 189.63 44.38 189.98 44.25 190.32 45.31 190.67 44.85 191.01 44.47 191.36 44.59 191.7 44.34 192.05 44.17 192.4 45.1 192.74 44.85 193.09 44.8 193.43 44.89 193.78 44.3 194.13 44.38 194.47 43.87 194.82 44.04 195.16 44 195.51 43.92 195.85 43.83 196.2 44.51"/>
      </g>
      <g stroke-width="0.3" fill="#000000" fill-opacity="0.000" class="geometry" stroke-dasharray="none" stroke="#D53E4F" id="img-612352d0-38">
        <path fill="none" d="M23.65,35.88 L 24 36.17 24.34 36.17 24.69 36.94 25.03 35.79 25.38 36.72 25.73 35.88 26.07 35.92 26.42 36.05 26.76 37.15 27.11 36.09 27.45 36.89 27.8 36.89 28.15 36.43 28.49 35.96 28.84 36.94 29.18 36.17 29.53 36.05 29.88 36.85 30.22 36.77 30.57 36.68 30.91 36.43 31.26 35.96 31.6 36.22 31.95 36.01 32.3 36.81 32.64 35.75 32.99 35.46 33.33 35.88 33.68 34.52 34.02 33.81 34.37 34.48 34.72 34.36 35.06 34.14 35.41 34.36 35.75 34.31 36.1 34.23 36.45 33.47 36.79 33.97 37.14 34.61 37.48 35.2 37.83 35.07 38.17 34.27 38.52 33.47 38.87 32.87 39.21 32.07 39.56 32.49 39.9 33.51 40.25 34.19 40.59 33.42 40.94 34.14 41.29 34.91 41.63 34.74 41.98 35.92 42.32 35.41 42.67 36.56 43.02 35.96 43.36 36.77 43.71 37.19 44.05 38.08 44.4 37.27 44.74 37.66 45.09 37.4 45.44 36.94 45.78 36.89 46.13 36.17 46.47 36.64 46.82 36.98 47.16 37.11 47.51 37.4 47.86 36.98 48.2 37.11 48.55 37.15 48.89 37.15 49.24 36.94 49.59 37.49 49.93 37.02 50.28 37.27 50.62 36.34 50.97 36.43 51.31 36.09 51.66 36.85 52.01 37.27 52.35 37.19 52.7 37.99 53.04 37.66 53.39 37.23 53.73 37.23 54.08 36.26 54.43 36.43 54.77 36.85 55.12 36.13 55.46 36.05 55.81 36.26 56.16 37.27 56.5 35.92 56.85 35.54 57.19 34.91 57.54 34.99 57.88 33.68 58.23 33.85 58.58 32.83 58.92 32.49 59.27 33.47 59.61 34.95 59.96 35.16 60.3 35.37 60.65 36.51 61 36.09 61.34 36.34 61.69 36.85 62.03 36.94 62.38 36.13 62.73 35.29 63.07 36.13 63.42 35.07 63.76 34.52 64.11 34.27 64.45 34.69 64.8 35.2 65.15 34.06 65.49 35.29 65.84 35.24 66.18 35.24 66.53 35.2 66.87 36.39 67.22 37.57 67.57 38.04 67.91 38.12 68.26 37.53 68.6 37.87 68.95 38.84 69.3 38.33 69.64 38.76 69.99 39.01 70.33 38.16 70.68 36.98 71.02 36.72 71.37 36.09 71.72 36.56 72.06 36.22 72.41 37.02 72.75 37.78 73.1 38.25 73.44 38.33 73.79 37.7 74.14 37.99 74.48 37.82 74.83 38.04 75.17 37.49 75.52 37.87 75.87 38.04 76.21 37.91 76.56 38.25 76.9 37.99 77.25 37.61 77.59 38.46 77.94 38.97 78.29 39.14 78.63 39.9 78.98 39.6 79.32 38.8 79.67 38.46 80.01 38.46 80.36 37.95 80.71 37.66 81.05 37.82 81.4 37.74 81.74 38.42 82.09 38.08 82.44 38.37 82.78 39.69 83.13 39.09 83.47 39.86 83.82 39.98 84.16 40.11 84.51 39.14 84.86 38.88 85.2 37.91 85.55 38.8 85.89 38.54 86.24 38.42 86.58 37.4 86.93 37.19 87.28 37.23 87.62 37.19 87.97 38.16 88.31 36.51 88.66 36.05 89.01 36.89 89.35 36.98 89.7 35.92 90.04 35.71 90.39 35.2 90.73 34.95 91.08 36.68 91.43 36.94 91.77 36.98 92.12 37.19 92.46 37.06 92.81 37.02 93.15 36.85 93.5 36.56 93.85 36.17 94.19 36.81 94.54 36.56 94.88 36.94 95.23 35.84 95.58 35.84 95.92 35.37 96.27 36.51 96.61 37.02 96.96 36.81 97.3 35.62 97.65 36.26 98 35.88 98.34 36.56 98.69 36.68 99.03 36.17 99.38 35.92 99.72 35.84 100.07 35.75 100.42 35.46 100.76 35.92 101.11 36.01 101.45 35.71 101.8 34.61 102.15 34.61 102.49 34.86 102.84 34.74 103.18 34.91 103.53 35.41 103.87 36.05 104.22 37.19 104.57 37.11 104.91 37.19 105.26 37.87 105.6 37.57 105.95 38.33 106.29 37.74 106.64 37.78 106.99 37.99 107.33 37.82 107.68 38.67 108.02 38.84 108.37 39.18 108.72 39.64 109.06 40.87 109.41 40.45 109.75 40.36 110.1 39.35 110.44 39.52 110.79 40.7 111.14 41.76 111.48 40.62 111.83 40.83 112.17 41.34 112.52 41.63 112.86 41.17 113.21 41.5 113.56 41.34 113.9 40.87 114.25 40.7 114.59 40.24 114.94 40.28 115.29 41.12 115.63 40.07 115.98 41.08 116.32 40.62 116.67 41.17 117.01 41.38 117.36 42.18 117.71 41.25 118.05 41.46 118.4 41.21 118.74 42.01 119.09 42.22 119.43 41.72 119.78 41.21 120.13 41.29 120.47 40.74 120.82 41.42 121.16 41.29 121.51 40.95 121.86 40.7 122.2 41.25 122.55 41.72 122.89 41.55 123.24 42.22 123.58 42.44 123.93 42.9 124.28 43.07 124.62 42.6 124.97 43.11 125.31 43.32 125.66 43.15 126 43.28 126.35 43.37 126.7 42.48 127.04 42.35 127.39 41.84 127.73 41.38 128.08 39.86 128.43 39.64 128.77 40.19 129.12 40.74 129.46 40.7 129.81 40.36 130.15 39.77 130.5 39.69 130.85 40.79 131.19 40.32 131.54 40.45 131.88 40.83 132.23 40.36 132.57 40.95 132.92 40.91 133.27 41.67 133.61 42.14 133.96 42.05 134.3 42.18 134.65 42.44 135 42.77 135.34 43.11 135.69 43.7 136.03 42.86 136.38 42.35 136.72 41.76 137.07 41.93 137.42 41.08 137.76 40.28 138.11 39.26 138.45 39.94 138.8 40.45 139.14 40.15 139.49 40.19 139.84 40.53 140.18 40.87 140.53 40.7 140.87 39.73 141.22 39.31 141.57 39.26 141.91 38.84 142.26 38.54 142.6 39.09 142.95 39.35 143.29 39.98 143.64 39.81 143.99 39.14 144.33 39.01 144.68 38.33 145.02 38.21 145.37 38.59 145.71 38.33 146.06 37.66 146.41 38.08 146.75 38.25 147.1 38.12 147.44 37.82 147.79 37.36 148.14 37.27 148.48 38.54 148.83 39.01 149.17 39.77 149.52 40.45 149.86 40.45 150.21 40.11 150.56 40.32 150.9 39.94 151.25 40.53 151.59 40.79 151.94 39.69 152.28 39.77 152.63 40.02 152.98 40.62 153.32 40.11 153.67 39.64 154.01 40.11 154.36 39.47 154.71 39.94 155.05 40.24 155.4 39.31 155.74 39.52 156.09 39.69 156.43 40.28 156.78 39.64 157.13 40.45 157.47 39.86 157.82 38.92 158.16 39.22 158.51 39.81 158.85 40.32 159.2 40.24 159.55 40.62 159.89 41.34 160.24 41.21 160.58 40.91 160.93 41.29 161.28 42.6 161.62 42.56 161.97 41.8 162.31 41.93 162.66 42.05 163 41.67 163.35 41.21 163.7 41.67 164.04 41.63 164.39 41.8 164.73 42.22 165.08 42.31 165.42 42.18 165.77 42.56 166.12 43.45 166.46 42.27 166.81 41.93 167.15 41.67 167.5 40.87 167.85 40.62 168.19 40.79 168.54 40.95 168.88 41.42 169.23 42.05 169.57 41.93 169.92 41.76 170.27 41.97 170.61 42.01 170.96 43.11 171.3 43.54 171.65 43.54 171.99 42.14 172.34 41.59 172.69 42.52 173.03 43.37 173.38 42.77 173.72 41.63 174.07 42.35 174.42 41.93 174.76 42.48 175.11 42.35 175.45 43.28 175.8 43.28 176.14 43.62 176.49 44 176.84 43.92 177.18 44.38 177.53 44 177.87 44.13 178.22 44.59 178.56 44.72 178.91 44.34 179.26 44.59 179.6 44.51 179.95 45.31 180.29 45.14 180.64 45.44 180.99 45.9 181.33 46.41 181.68 46.67 182.02 46.79 182.37 46.24 182.71 46.12 183.06 45.02 183.41 45.82 183.75 43.83 184.1 43.15 184.44 42.73 184.79 42.05 185.13 41.76 185.48 41.63 185.83 41.21 186.17 41.34 186.52 41.42 186.86 41.17 187.21 41.38 187.56 41.59 187.9 42.22 188.25 41.76 188.59 41.34 188.94 41.12 189.28 40.24 189.63 39.39 189.98 39.81 190.32 39.77 190.67 39.31 191.01 39.14 191.36 40.02 191.7 40.53 192.05 40.62 192.4 40.15 192.74 39.77 193.09 40.11 193.43 40.19 193.78 40.57 194.13 40.91 194.47 40.79 194.82 39.56 195.16 39.43 195.51 39.86 195.85 40.02 196.2 39.31"/>
      </g>
      <g stroke-width="0.3" fill="#000000" fill-opacity="0.000" class="geometry" stroke-dasharray="none" stroke="#9E0142" id="img-612352d0-39">
        <path fill="none" d="M23.65,35.88 L 24 36.26 24.34 36.05 24.69 37.06 25.03 36.72 25.38 37.74 25.73 38.71 26.07 39.73 26.42 40.74 26.76 40.7 27.11 41.08 27.45 41.34 27.8 42.39 28.15 41.97 28.49 42.48 28.84 42.65 29.18 42.35 29.53 42.99 29.88 43.66 30.22 44.25 30.57 42.94 30.91 42.6 31.26 43.11 31.6 42.48 31.95 42.52 32.3 42.65 32.64 43.2 32.99 42.99 33.33 43.58 33.68 42.01 34.02 42.73 34.37 41.97 34.72 41.55 35.06 40.57 35.41 40.19 35.75 41.8 36.1 41.72 36.45 41.17 36.79 40.32 37.14 39.26 37.48 38.84 37.83 38.88 38.17 38.37 38.52 39.81 38.87 40.57 39.21 39.98 39.56 39.52 39.9 39.47 40.25 39.47 40.59 39.86 40.94 40.15 41.29 39.81 41.63 39.81 41.98 39.64 42.32 39.14 42.67 39.43 43.02 39.64 43.36 40.15 43.71 39.56 44.05 39.14 44.4 39.01 44.74 40.32 45.09 39.56 45.44 39.14 45.78 38.71 46.13 38.04 46.47 37.74 46.82 38.37 47.16 37.36 47.51 36.6 47.86 36.09 48.2 36.77 48.55 36.34 48.89 35.12 49.24 33.76 49.59 33.76 49.93 33.47 50.28 34.27 50.62 33.55 50.97 33.59 51.31 33.97 51.66 32.71 52.01 33.93 52.35 33.68 52.7 32.83 53.04 32.96 53.39 32.58 53.73 32.24 54.08 32.45 54.43 32.58 54.77 33.34 55.12 33.68 55.46 34.4 55.81 34.91 56.16 35.07 56.5 35.75 56.85 36.85 57.19 36.81 57.54 35.96 57.88 34.69 58.23 34.82 58.58 34.44 58.92 34.1 59.27 32.83 59.61 33.47 59.96 32.33 60.3 32.79 60.65 31.78 61 32.96 61.34 34.4 61.69 34.52 62.03 34.36 62.38 34.36 62.73 34.36 63.07 33.64 63.42 33.47 63.76 34.44 64.11 33.09 64.45 33.76 64.8 33 65.15 32.45 65.49 31.78 65.84 32.16 66.18 32.07 66.53 32.79 66.87 32.79 67.22 33.04 67.57 33.13 67.91 32.07 68.26 32.83 68.6 33.09 68.95 33.17 69.3 33.38 69.64 33.3 69.99 33.55 70.33 33.64 70.68 33.34 71.02 33.55 71.37 32.62 71.72 31.61 72.06 30.38 72.41 31.39 72.75 31.44 73.1 31.78 73.44 30.97 73.79 30 74.14 30.04 74.48 30.55 74.83 29.32 75.17 30.17 75.52 30.29 75.87 30.51 76.21 31.1 76.56 30.08 76.9 30.97 77.25 31.78 77.59 31.56 77.94 30.93 78.29 30.08 78.63 30.21 78.98 30.38 79.32 31.14 79.67 31.27 80.01 31.73 80.36 31.35 80.71 32.2 81.05 31.86 81.4 32.62 81.74 31.99 82.09 32.83 82.44 33.26 82.78 32.92 83.13 33.85 83.47 34.44 83.82 34.95 84.16 34.48 84.51 34.36 84.86 33.85 85.2 33.72 85.55 33.68 85.89 33.64 86.24 33.47 86.58 33.85 86.93 33.72 87.28 33.59 87.62 32.71 87.97 32.75 88.31 32.96 88.66 32.54 89.01 34.02 89.35 32.92 89.7 33.17 90.04 34.57 90.39 34.1 90.73 34.95 91.08 35.33 91.43 34.65 91.77 34.99 92.12 34.44 92.46 33.51 92.81 33.09 93.15 33.93 93.5 33.13 93.85 33.3 94.19 31.78 94.54 32.28 94.88 31.86 95.23 31.78 95.58 32.24 95.92 31.01 96.27 30.55 96.61 31.06 96.96 30.59 97.3 30.59 97.65 31.99 98 32.62 98.34 31.82 98.69 31.86 99.03 32.79 99.38 33.3 99.72 33.68 100.07 33.04 100.42 34.1 100.76 33.55 101.11 33.89 101.45 34.06 101.8 34.57 102.15 35.88 102.49 36.39 102.84 36.34 103.18 36.26 103.53 36.09 103.87 36.34 104.22 35.24 104.57 35.58 104.91 35.75 105.26 35.46 105.6 34.69 105.95 34.78 106.29 35.96 106.64 36.77 106.99 37.19 107.33 38.21 107.68 37.91 108.02 37.66 108.37 37.23 108.72 37.15 109.06 36.64 109.41 36.05 109.75 35.46 110.1 35.2 110.44 34.69 110.79 35.37 111.14 34.86 111.48 35.29 111.83 35.07 112.17 35.07 112.52 35.2 112.86 35.07 113.21 35.33 113.56 36.09 113.9 36.05 114.25 34.74 114.59 35.37 114.94 35.79 115.29 36.56 115.63 37.53 115.98 37.32 116.32 38.5 116.67 38.84 117.01 39.26 117.36 40.07 117.71 41.08 118.05 40.24 118.4 40.7 118.74 40.24 119.09 39.9 119.43 39.86 119.78 40.11 120.13 40.07 120.47 40.32 120.82 40.24 121.16 41.04 121.51 41.17 121.86 40.87 122.2 41.55 122.55 41.25 122.89 41.76 123.24 41.17 123.58 40.49 123.93 39.39 124.28 39.01 124.62 38.84 124.97 39.26 125.31 38.84 125.66 39.14 126 39.43 126.35 39.6 126.7 39.77 127.04 39.52 127.39 40.4 127.73 39.39 128.08 39.26 128.43 39.18 128.77 38.5 129.12 37.82 129.46 38.29 129.81 37.49 130.15 37.91 130.5 38.12 130.85 38.59 131.19 37.7 131.54 38.33 131.88 37.95 132.23 38.16 132.57 37.66 132.92 38.46 133.27 39.22 133.61 39.47 133.96 40.36 134.3 40.07 134.65 40.02 135 39.01 135.34 39.47 135.69 39.18 136.03 40.7 136.38 41.38 136.72 41.72 137.07 42.44 137.42 42.73 137.76 41.89 138.11 40.7 138.45 40.49 138.8 40.66 139.14 41 139.49 41.21 139.84 41.29 140.18 42.52 140.53 42.94 140.87 43.7 141.22 43.03 141.57 44 141.91 43.87 142.26 44.51 142.6 43.7 142.95 44.38 143.29 43.87 143.64 44 143.99 44.17 144.33 44.25 144.68 44.42 145.02 43.66 145.37 44.09 145.71 43.2 146.06 43.41 146.41 44.04 146.75 43.92 147.1 43.66 147.44 42.69 147.79 43.66 148.14 42.77 148.48 42.65 148.83 42.31 149.17 42.48 149.52 43.24 149.86 43.03 150.21 42.82 150.56 41.97 150.9 41.93 151.25 42.14 151.59 41.29 151.94 40.62 152.28 40.57 152.63 41.12 152.98 40.4 153.32 39.81 153.67 39.52 154.01 38.84 154.36 37.53 154.71 38.97 155.05 39.05 155.4 39.69 155.74 39.64 156.09 40.74 156.43 41.29 156.78 42.01 157.13 41.63 157.47 41.21 157.82 41.21 158.16 42.69 158.51 42.22 158.85 41.12 159.2 41.17 159.55 41.97 159.89 42.31 160.24 42.01 160.58 42.14 160.93 41.38 161.28 40.45 161.62 41.29 161.97 41.84 162.31 42.05 162.66 42.82 163 43.41 163.35 43.7 163.7 42.77 164.04 42.82 164.39 42.6 164.73 42.52 165.08 41.76 165.42 41.72 165.77 40.74 166.12 40.49 166.46 40.49 166.81 40.15 167.15 40.07 167.5 38.92 167.85 38.88 168.19 39.22 168.54 39.9 168.88 40.24 169.23 40.32 169.57 39.98 169.92 39.69 170.27 40.32 170.61 40.7 170.96 42.44 171.3 42.69 171.65 42.31 171.99 42.69 172.34 43.07 172.69 43.37 173.03 42.69 173.38 42.56 173.72 42.27 174.07 41.63 174.42 41.5 174.76 42.31 175.11 42.94 175.45 41.89 175.8 42.35 176.14 43.03 176.49 42.01 176.84 41.5 177.18 40.74 177.53 40.95 177.87 41.25 178.22 41.34 178.56 40.91 178.91 39.94 179.26 40.15 179.6 39.81 179.95 39.31 180.29 39.01 180.64 37.74 180.99 38.59 181.33 37.53 181.68 37.27 182.02 38.84 182.37 37.82 182.71 37.99 183.06 38.92 183.41 39.01 183.75 39.98 184.1 39.9 184.44 39.98 184.79 39.9 185.13 40.74 185.48 40.24 185.83 40.15 186.17 40.83 186.52 39.64 186.86 40.66 187.21 41.34 187.56 40.49 187.9 40.24 188.25 39.77 188.59 39.18 188.94 38.21 189.28 36.51 189.63 37.11 189.98 36.17 190.32 36.09 190.67 35.54 191.01 35.24 191.36 35.24 191.7 36.89 192.05 37.78 192.4 38.54 192.74 38.16 193.09 37.74 193.43 38.25 193.78 38.63 194.13 38.25 194.47 37.61 194.82 37.61 195.16 37.02 195.51 37.66 195.85 38.29 196.2 38.67"/>
      </g>
    </g>
  </g>
</g>
  <g class="guide ylabels" font-size="2.82" font-family="'PT Sans Caption','Helvetica Neue','Helvetica',sans-serif" fill="#000000" id="img-612352d0-40">
    <text x="20.3" y="54.91" text-anchor="end" dy="0.35em">0</text>
    <text x="20.3" y="44.34" text-anchor="end" dy="0.35em">250</text>
    <text x="20.3" y="33.76" text-anchor="end" dy="0.35em">500</text>
    <text x="20.3" y="23.19" text-anchor="end" dy="0.35em">750</text>
    <text x="20.3" y="12.61" text-anchor="end" dy="0.35em">1000</text>
  </g>
  <g font-size="3.88" font-family="'PT Sans','Helvetica Neue','Helvetica',sans-serif" fill="#000000" stroke="#000000" stroke-opacity="0.000" id="img-612352d0-41">
    <text x="8.81" y="31.76" text-anchor="middle" dy="0.35em" transform="rotate(-90, 8.81, 33.76)">population size</text>
  </g>
  <g font-size="3.88" font-family="'PT Sans','Helvetica Neue','Helvetica',sans-serif" fill="#000000" stroke="#000000" stroke-opacity="0.000" id="img-612352d0-42">
    <text x="109.75" y="5" text-anchor="middle" dy="0.6em">genetic drift with mutationrate  = 0.0001 </text>
  </g>
</g>
<defs>
  <clipPath id="img-612352d0-24">
  <path d="M21.31,10.61 L 198.2 10.61 198.2 56.91 21.31 56.91" />
</clipPath>
  <clipPath id="img-612352d0-8">
  <path d="M20.31,86.81 L 174.03 86.81 174.03 133.11 20.31 133.11" />
</clipPath>
</defs>
</svg>
