<?xml version="1.0" encoding="UTF-8"?>
<svg xmlns="http://www.w3.org/2000/svg"
     xmlns:xlink="http://www.w3.org/1999/xlink"
     xmlns:gadfly="http://www.gadflyjl.org/ns"
     version="1.2"
     width="203.2mm" height="152.4mm" viewBox="0 0 203.2 152.4"
     stroke="none"
     fill="#000000"
     stroke-width="0.3"
     font-size="3.88"
>
<g class="plotroot xscalable yscalable" id="img-9f860659-1">
  <g font-size="3.88" font-family="'PT Sans','Helvetica Neue','Helvetica',sans-serif" fill="#000000" stroke="#000000" stroke-opacity="0.000" id="img-9f860659-2">
    <text x="108.92" y="140.79" text-anchor="middle" dy="0.6em">generation number</text>
  </g>
  <g class="guide xlabels" font-size="2.82" font-family="'PT Sans Caption','Helvetica Neue','Helvetica',sans-serif" fill="#000000" id="img-9f860659-3">
    <text x="21.63" y="134.11" text-anchor="middle" dy="0.6em">0</text>
    <text x="56.55" y="134.11" text-anchor="middle" dy="0.6em">100</text>
    <text x="91.46" y="134.11" text-anchor="middle" dy="0.6em">200</text>
    <text x="126.37" y="134.11" text-anchor="middle" dy="0.6em">300</text>
    <text x="161.29" y="134.11" text-anchor="middle" dy="0.6em">400</text>
    <text x="196.2" y="134.11" text-anchor="middle" dy="0.6em">500</text>
  </g>
<g clip-path="url(#img-9f860659-4)">
  <g id="img-9f860659-5">
    <g pointer-events="visible" opacity="1" fill="#FFFFFF" stroke="#000000" stroke-opacity="0.000" class="guide background" id="img-9f860659-6">
      <rect x="19.63" y="10.61" width="178.57" height="122.5"/>
    </g>
    <g class="guide ygridlines xfixed" stroke-dasharray="0.5,0.5" stroke-width="0.2" stroke="#808080" id="img-9f860659-7">
      <path fill="none" d="M19.63,131.11 L 198.2 131.11"/>
      <path fill="none" d="M19.63,101.49 L 198.2 101.49"/>
      <path fill="none" d="M19.63,71.86 L 198.2 71.86"/>
      <path fill="none" d="M19.63,42.24 L 198.2 42.24"/>
      <path fill="none" d="M19.63,12.61 L 198.2 12.61"/>
    </g>
    <g class="guide xgridlines yfixed" stroke-dasharray="0.5,0.5" stroke-width="0.2" stroke="#808080" id="img-9f860659-8">
      <path fill="none" d="M21.63,10.61 L 21.63 133.11"/>
      <path fill="none" d="M56.55,10.61 L 56.55 133.11"/>
      <path fill="none" d="M91.46,10.61 L 91.46 133.11"/>
      <path fill="none" d="M126.37,10.61 L 126.37 133.11"/>
      <path fill="none" d="M161.29,10.61 L 161.29 133.11"/>
      <path fill="none" d="M196.2,10.61 L 196.2 133.11"/>
    </g>
    <g class="plotpanel" id="img-9f860659-9">
      <g stroke-width="0.3" fill="#000000" fill-opacity="0.000" class="geometry" stroke-dasharray="none" stroke="#3288BD" id="img-9f860659-10">
        <path fill="none" d="M21.98,64.46 L 22.33 62.98 22.68 61.49 23.03 61.49 23.38 62.23 23.73 61.64 24.08 65.94 24.42 62.53 24.77 60.75 25.12 61.05 25.47 61.49 25.82 58.83 26.17 59.42 26.52 58.68 26.87 56.75 27.22 58.68 27.57 58.68 27.92 60.61 28.27 61.2 28.61 62.09 28.96 60.01 29.31 58.09 29.66 59.72 30.01 63.27 30.36 64.46 30.71 64.01 31.06 62.68 31.41 60.01 31.76 60.46 32.11 57.05 32.45 56.31 32.8 58.98 33.15 57.49 33.5 57.79 33.85 58.09 34.2 59.72 34.55 61.79 34.9 63.86 35.25 66.23 35.6 69.05 35.95 68.9 36.3 69.35 36.64 71.12 36.99 70.83 37.34 70.83 37.69 73.64 38.04 74.09 38.39 71.86 38.74 76.31 39.09 78.68 39.44 78.38 39.79 80.9 40.14 81.64 40.49 84.75 40.83 82.82 41.18 86.82 41.53 87.12 41.88 86.97 42.23 88.16 42.58 88.9 42.93 89.64 43.28 90.08 43.63 89.34 43.98 86.97 44.33 89.05 44.67 91.56 45.02 89.64 45.37 90.23 45.72 91.86 46.07 94.82 46.42 94.08 46.77 94.53 47.12 93.34 47.47 93.93 47.82 94.08 48.17 93.05 48.52 90.23 48.86 88.75 49.21 88.31 49.56 85.94 49.91 82.53 50.26 81.94 50.61 84.01 50.96 84.9 51.31 86.68 51.66 84.45 52.01 82.97 52.36 81.34 52.7 79.86 53.05 81.79 53.4 83.71 53.75 84.31 54.1 85.34 54.45 80.75 54.8 78.08 55.15 77.34 55.5 79.71 55.85 82.97 56.2 82.08 56.55 83.71 56.89 87.27 57.24 85.64 57.59 85.34 57.94 84.75 58.29 86.82 58.64 86.82 58.99 84.45 59.34 80.45 59.69 85.64 60.04 84.45 60.39 85.19 60.73 84.75 61.08 84.75 61.43 85.79 61.78 82.53 62.13 79.57 62.48 79.27 62.83 79.42 63.18 77.94 63.53 77.64 63.88 81.34 64.23 81.2 64.58 80.31 64.92 77.79 65.27 77.2 65.62 78.97 65.97 79.27 66.32 80.31 66.67 77.94 67.02 80.16 67.37 77.05 67.72 77.79 68.07 76.01 68.42 80.16 68.77 80.45 69.11 79.42 69.46 79.27 69.81 84.45 70.16 88.45 70.51 87.27 70.86 88.31 71.21 82.53 71.56 84.75 71.91 87.12 72.26 87.27 72.61 87.71 72.95 85.34 73.3 83.12 73.65 83.12 74 85.79 74.35 84.01 74.7 87.42 75.05 88.6 75.4 87.86 75.75 86.38 76.1 85.49 76.45 88.31 76.8 88.9 77.14 86.08 77.49 84.16 77.84 89.79 78.19 92.16 78.54 91.42 78.89 92.45 79.24 92.16 79.59 86.82 79.94 85.64 80.29 84.45 80.64 86.23 80.98 84.6 81.33 81.49 81.68 79.12 82.03 77.79 82.38 81.2 82.73 77.94 83.08 80.31 83.43 82.23 83.78 81.94 84.13 79.12 84.48 80.16 84.83 83.71 85.17 80.45 85.52 74.38 85.87 71.12 86.22 69.2 86.57 72.31 86.92 72.9 87.27 74.68 87.62 72.01 87.97 74.09 88.32 72.75 88.67 76.16 89.02 75.27 89.36 77.05 89.71 74.53 90.06 75.57 90.41 72.6 90.76 72.01 91.11 73.64 91.46 74.53 91.81 72.75 92.16 68.6 92.51 70.38 92.86 67.12 93.2 66.83 93.55 64.01 93.9 60.75 94.25 59.27 94.6 58.68 94.95 58.53 95.3 57.79 95.65 60.9 96 61.94 96.35 57.94 96.7 56.75 97.05 55.27 97.39 56.16 97.74 57.94 98.09 58.24 98.44 57.64 98.79 58.83 99.14 56.16 99.49 54.98 99.84 56.31 100.19 60.46 100.54 60.16 100.89 62.98 101.23 61.35 101.58 62.09 101.93 61.64 102.28 58.38 102.63 59.72 102.98 60.31 103.33 62.53 103.68 60.9 104.03 56.9 104.38 56.31 104.73 53.5 105.08 53.05 105.42 57.2 105.77 55.87 106.12 55.12 106.47 57.05 106.82 56.16 107.17 58.83 107.52 56.75 107.87 58.24 108.22 57.79 108.57 60.16 108.92 59.12 109.26 55.27 109.61 55.72 109.96 56.61 110.31 59.27 110.66 65.49 111.01 64.9 111.36 63.57 111.71 64.16 112.06 66.09 112.41 67.12 112.76 66.09 113.11 65.64 113.45 66.83 113.8 69.05 114.15 70.09 114.5 67.12 114.85 65.94 115.2 69.05 115.55 68.16 115.9 66.09 116.25 71.42 116.6 70.23 116.95 70.23 117.3 69.94 117.64 71.27 117.99 72.6 118.34 74.83 118.69 76.6 119.04 73.49 119.39 73.2 119.74 73.05 120.09 76.9 120.44 76.9 120.79 75.71 121.14 76.31 121.48 78.08 121.83 77.49 122.18 83.12 122.53 81.2 122.88 80.9 123.23 83.57 123.58 85.19 123.93 83.71 124.28 82.53 124.63 84.6 124.98 81.2 125.33 78.53 125.67 81.2 126.02 82.38 126.37 82.38 126.72 83.86 127.07 81.34 127.42 78.53 127.77 78.38 128.12 78.53 128.47 78.53 128.82 80.75 129.17 77.64 129.51 77.64 129.86 69.05 130.21 66.53 130.56 66.23 130.91 68.16 131.26 70.23 131.61 71.12 131.96 71.57 132.31 74.38 132.66 73.05 133.01 70.83 133.36 73.64 133.7 68.9 134.05 68.16 134.4 64.61 134.75 64.01 135.1 70.23 135.45 72.16 135.8 70.09 136.15 71.72 136.5 69.49 136.85 71.27 137.2 72.46 137.55 68.75 137.89 71.72 138.24 72.75 138.59 75.42 138.94 71.72 139.29 73.94 139.64 75.86 139.99 75.86 140.34 74.38 140.69 76.31 141.04 75.27 141.39 72.9 141.73 70.53 142.08 72.31 142.43 72.9 142.78 75.42 143.13 75.42 143.48 70.68 143.83 68.01 144.18 64.61 144.53 62.38 144.88 61.35 145.23 61.2 145.58 62.98 145.92 61.2 146.27 63.27 146.62 67.42 146.97 66.83 147.32 69.35 147.67 65.64 148.02 63.12 148.37 64.31 148.72 63.42 149.07 64.31 149.42 67.86 149.76 65.94 150.11 65.2 150.46 65.05 150.81 64.61 151.16 61.35 151.51 63.86 151.86 65.35 152.21 63.42 152.56 59.86 152.91 64.31 153.26 66.23 153.61 66.68 153.95 69.79 154.3 71.27 154.65 73.05 155 72.31 155.35 73.79 155.7 76.6 156.05 76.31 156.4 78.23 156.75 75.86 157.1 75.57 157.45 74.68 157.79 75.86 158.14 80.6 158.49 80.45 158.84 78.68 159.19 77.49 159.54 80.45 159.89 83.57 160.24 84.75 160.59 81.79 160.94 83.42 161.29 82.68 161.64 82.08 161.98 84.9 162.33 87.12 162.68 88.01 163.03 90.53 163.38 93.34 163.73 91.42 164.08 95.86 164.43 96.01 164.78 94.68 165.13 94.68 165.48 97.19 165.83 100.45 166.17 99.42 166.52 98.38 166.87 100.75 167.22 103.41 167.57 102.82 167.92 101.04 168.27 100.9 168.62 102.82 168.97 103.41 169.32 104.6 169.67 104.3 170.01 104.9 170.36 103.27 170.71 103.56 171.06 102.97 171.41 103.86 171.76 106.53 172.11 104.45 172.46 105.64 172.81 105.19 173.16 106.23 173.51 105.93 173.86 104.75 174.2 104.9 174.55 107.71 174.9 105.64 175.25 104.9 175.6 103.86 175.95 104.75 176.3 105.64 176.65 104.75 177 109.78 177.35 108.01 177.7 108.6 178.04 107.27 178.39 108.45 178.74 112.01 179.09 109.04 179.44 107.86 179.79 106.53 180.14 108.45 180.49 108.01 180.84 108.45 181.19 108.01 181.54 108.45 181.89 108.6 182.23 108.3 182.58 109.78 182.93 110.82 183.28 109.04 183.63 111.71 183.98 112.01 184.33 110.97 184.68 109.49 185.03 108.9 185.38 109.04 185.73 109.78 186.08 108.3 186.42 108.3 186.77 109.34 187.12 109.93 187.47 107.27 187.82 111.12 188.17 109.49 188.52 110.08 188.87 109.49 189.22 111.12 189.57 112.15 189.92 112.9 190.26 111.56 190.61 109.78 190.96 110.97 191.31 107.41 191.66 108.6 192.01 106.08 192.36 106.82 192.71 104.6 193.06 103.41 193.41 101.34 193.76 102.08 194.11 100.9 194.45 102.23 194.8 102.53 195.15 101.34 195.5 101.19 195.85 100.9 196.2 100.3"/>
      </g>
      <g stroke-width="0.3" fill="#000000" fill-opacity="0.000" class="geometry" stroke-dasharray="none" stroke="#66C2A5" id="img-9f860659-11">
        <path fill="none" d="M21.98,64.46 L 22.33 63.42 22.68 59.12 23.03 58.09 23.38 60.31 23.73 61.49 24.08 65.64 24.42 66.68 24.77 64.9 25.12 66.83 25.47 68.16 25.82 65.35 26.17 68.31 26.52 66.98 26.87 66.53 27.22 67.27 27.57 66.68 27.92 66.38 28.27 69.05 28.61 73.64 28.96 76.9 29.31 79.42 29.66 77.2 30.01 75.27 30.36 69.64 30.71 70.38 31.06 73.94 31.41 72.31 31.76 72.01 32.11 73.34 32.45 75.27 32.8 77.49 33.15 76.9 33.5 80.31 33.85 76.75 34.2 74.97 34.55 74.97 34.9 77.64 35.25 80.31 35.6 83.12 35.95 85.34 36.3 86.38 36.64 87.71 36.99 89.05 37.34 90.53 37.69 90.97 38.04 92.16 38.39 90.53 38.74 92.01 39.09 91.86 39.44 91.71 39.79 91.56 40.14 91.12 40.49 91.27 40.83 95.12 41.18 95.27 41.53 93.64 41.88 94.23 42.23 92.45 42.58 90.53 42.93 90.68 43.28 91.86 43.63 90.97 43.98 91.86 44.33 92.16 44.67 92.45 45.02 92.01 45.37 94.23 45.72 97.49 46.07 96.75 46.42 95.42 46.77 92.9 47.12 92.16 47.47 96.16 47.82 95.86 48.17 97.93 48.52 95.27 48.86 96.75 49.21 99.42 49.56 97.93 49.91 95.86 50.26 94.97 50.61 93.79 50.96 94.97 51.31 94.97 51.66 96.3 52.01 96.45 52.36 97.19 52.7 98.82 53.05 95.56 53.4 93.05 53.75 94.08 54.1 97.05 54.45 96.16 54.8 92.9 55.15 93.93 55.5 91.42 55.85 90.53 56.2 91.71 56.55 89.34 56.89 87.12 57.24 90.08 57.59 93.49 57.94 94.53 58.29 98.67 58.64 98.08 58.99 100.75 59.34 100.3 59.69 99.12 60.04 96.75 60.39 97.19 60.73 93.79 61.08 93.19 61.43 91.12 61.78 90.08 62.13 89.64 62.48 89.05 62.83 87.86 63.18 88.16 63.53 90.68 63.88 92.01 64.23 93.05 64.58 94.08 64.92 93.49 65.27 96.9 65.62 98.38 65.97 98.97 66.32 100.45 66.67 103.27 67.02 102.67 67.37 101.64 67.72 102.82 68.07 104.3 68.42 100.9 68.77 100.9 69.11 101.49 69.46 100.45 69.81 102.53 70.16 104.6 70.51 106.23 70.86 109.49 71.21 109.34 71.56 109.19 71.91 110.23 72.26 106.82 72.61 106.23 72.95 105.34 73.3 107.56 73.65 109.04 74 110.08 74.35 110.23 74.7 111.56 75.05 110.23 75.4 110.82 75.75 110.67 76.1 110.82 76.45 112.3 76.8 112.01 77.14 110.67 77.49 112.9 77.84 113.49 78.19 110.67 78.54 110.53 78.89 110.08 79.24 109.04 79.59 106.82 79.94 104.9 80.29 101.79 80.64 101.19 80.98 105.78 81.33 103.56 81.68 102.53 82.03 104.75 82.38 102.97 82.73 101.19 83.08 100.3 83.43 102.53 83.78 102.53 84.13 104.9 84.48 102.97 84.83 98.82 85.17 98.23 85.52 97.79 85.87 94.68 86.22 100.01 86.57 99.12 86.92 104.16 87.27 106.38 87.62 105.78 87.97 103.41 88.32 103.71 88.67 103.71 89.02 108.3 89.36 105.78 89.71 104.16 90.06 103.86 90.41 104.75 90.76 108.01 91.11 109.49 91.46 110.97 91.81 112.15 92.16 114.82 92.51 114.67 92.86 113.19 93.2 111.86 93.55 111.12 93.9 112.45 94.25 112.3 94.6 111.56 94.95 109.64 95.3 110.53 95.65 109.34 96 107.41 96.35 106.38 96.7 105.19 97.05 105.64 97.39 105.34 97.74 107.56 98.09 108.01 98.44 105.64 98.79 106.23 99.14 105.34 99.49 103.41 99.84 105.04 100.19 104.01 100.54 105.93 100.89 105.34 101.23 107.71 101.58 105.04 101.93 103.12 102.28 105.19 102.63 101.04 102.98 100.75 103.33 99.42 103.68 99.71 104.03 99.12 104.38 101.49 104.73 101.34 105.08 101.79 105.42 101.49 105.77 101.64 106.12 100.3 106.47 100.6 106.82 99.86 107.17 99.12 107.52 97.49 107.87 96.3 108.22 97.49 108.57 101.49 108.92 99.86 109.26 98.67 109.61 99.12 109.96 101.49 110.31 102.08 110.66 103.71 111.01 104.45 111.36 106.97 111.71 109.34 112.06 110.08 112.41 107.12 112.76 106.82 113.11 103.86 113.45 102.53 113.8 104.3 114.15 105.34 114.5 104.45 114.85 107.27 115.2 109.19 115.55 106.38 115.9 108.3 116.25 105.64 116.6 106.23 116.95 103.56 117.3 100.9 117.64 100.45 117.99 98.97 118.34 99.56 118.69 101.49 119.04 101.79 119.39 98.97 119.74 101.34 120.09 101.34 120.44 99.12 120.79 94.68 121.14 94.68 121.48 96.16 121.83 96.6 122.18 97.64 122.53 98.97 122.88 99.27 123.23 101.64 123.58 99.27 123.93 96.75 124.28 98.67 124.63 97.34 124.98 96.9 125.33 98.23 125.67 94.38 126.02 93.64 126.37 94.82 126.72 93.79 127.07 95.12 127.42 98.23 127.77 93.64 128.12 92.31 128.47 91.71 128.82 94.97 129.17 94.82 129.51 95.86 129.86 96.45 130.21 97.64 130.56 98.97 130.91 99.56 131.26 102.82 131.61 105.04 131.96 105.49 132.31 107.12 132.66 105.64 133.01 107.56 133.36 107.71 133.7 110.08 134.05 111.86 134.4 108.9 134.75 108.15 135.1 109.49 135.45 105.49 135.8 106.67 136.15 104.6 136.5 104.6 136.85 103.27 137.2 103.86 137.55 104.6 137.89 106.38 138.24 106.08 138.59 105.34 138.94 105.78 139.29 107.86 139.64 107.12 139.99 104.9 140.34 106.23 140.69 102.97 141.04 103.27 141.39 103.71 141.73 103.56 142.08 106.53 142.43 106.38 142.78 106.82 143.13 107.12 143.48 109.64 143.83 109.64 144.18 110.82 144.53 108.9 144.88 109.49 145.23 107.12 145.58 105.34 145.92 102.67 146.27 106.53 146.62 106.67 146.97 106.23 147.32 106.38 147.67 102.38 148.02 101.19 148.37 104.45 148.72 105.49 149.07 103.41 149.42 104.45 149.76 105.64 150.11 104.6 150.46 104.16 150.81 106.23 151.16 106.08 151.51 107.56 151.86 107.41 152.21 103.86 152.56 100.9 152.91 101.34 153.26 104.01 153.61 101.93 153.95 100.16 154.3 99.27 154.65 101.19 155 99.71 155.35 100.6 155.7 100.45 156.05 101.93 156.4 104.3 156.75 104.6 157.1 102.97 157.45 102.23 157.79 103.86 158.14 105.49 158.49 104.9 158.84 108.01 159.19 105.64 159.54 106.38 159.89 105.93 160.24 107.56 160.59 108.15 160.94 105.93 161.29 107.56 161.64 105.78 161.98 104.45 162.33 104.75 162.68 102.82 163.03 99.71 163.38 97.64 163.73 94.82 164.08 95.71 164.43 96.01 164.78 93.49 165.13 91.56 165.48 97.05 165.83 96.6 166.17 98.82 166.52 98.67 166.87 100.75 167.22 102.08 167.57 99.12 167.92 99.86 168.27 99.86 168.62 99.56 168.97 98.08 169.32 97.79 169.67 96.01 170.01 95.56 170.36 96.16 170.71 94.23 171.06 95.42 171.41 95.71 171.76 93.64 172.11 95.56 172.46 93.34 172.81 93.79 173.16 94.23 173.51 93.64 173.86 93.93 174.2 91.56 174.55 90.08 174.9 89.79 175.25 91.56 175.6 93.49 175.95 95.27 176.3 96.9 176.65 97.19 177 98.38 177.35 96.9 177.7 93.93 178.04 91.86 178.39 93.05 178.74 91.56 179.09 90.53 179.44 87.86 179.79 86.23 180.14 84.31 180.49 84.9 180.84 84.16 181.19 89.05 181.54 90.08 181.89 93.49 182.23 95.27 182.58 93.49 182.93 89.49 183.28 90.97 183.63 92.75 183.98 96.6 184.33 98.67 184.68 101.04 185.03 99.86 185.38 99.71 185.73 98.97 186.08 97.64 186.42 97.19 186.77 94.38 187.12 93.64 187.47 94.68 187.82 94.23 188.17 94.23 188.52 95.56 188.87 94.97 189.22 92.01 189.57 91.42 189.92 90.38 190.26 90.53 190.61 92.16 190.96 91.27 191.31 91.42 191.66 92.9 192.01 94.23 192.36 95.71 192.71 93.34 193.06 89.19 193.41 88.01 193.76 89.19 194.11 94.08 194.45 97.19 194.8 93.93 195.15 94.38 195.5 92.75 195.85 91.56 196.2 89.34"/>
      </g>
      <g stroke-width="0.3" fill="#000000" fill-opacity="0.000" class="geometry" stroke-dasharray="none" stroke="#ABDDA4" id="img-9f860659-12">
        <path fill="none" d="M21.98,64.46 L 22.33 64.01 22.68 64.75 23.03 66.83 23.38 65.2 23.73 60.9 24.08 60.46 24.42 61.94 24.77 65.64 25.12 62.38 25.47 58.68 25.82 59.72 26.17 60.61 26.52 59.57 26.87 62.98 27.22 62.23 27.57 61.94 27.92 60.46 28.27 62.23 28.61 56.9 28.96 56.31 29.31 56.75 29.66 56.9 30.01 60.61 30.36 60.9 30.71 59.86 31.06 56.31 31.41 53.79 31.76 52.31 32.11 49.79 32.45 46.39 32.8 49.2 33.15 48.61 33.5 49.79 33.85 54.09 34.2 51.42 34.55 49.2 34.9 50.09 35.25 52.01 35.6 53.05 35.95 47.72 36.3 50.98 36.64 54.83 36.99 56.16 37.34 51.42 37.69 55.42 38.04 53.2 38.39 58.24 38.74 61.35 39.09 61.64 39.44 59.57 39.79 61.2 40.14 59.12 40.49 63.42 40.83 65.2 41.18 64.61 41.53 67.27 41.88 65.64 42.23 68.6 42.58 65.49 42.93 61.49 43.28 61.35 43.63 64.61 43.98 64.61 44.33 64.9 44.67 68.01 45.02 69.94 45.37 74.09 45.72 72.31 46.07 70.68 46.42 71.12 46.77 74.09 47.12 73.79 47.47 72.01 47.82 71.86 48.17 68.6 48.52 69.64 48.86 68.16 49.21 72.6 49.56 74.23 49.91 77.34 50.26 76.16 50.61 76.31 50.96 70.38 51.31 72.31 51.66 71.57 52.01 70.09 52.36 70.23 52.7 71.57 53.05 69.35 53.4 68.6 53.75 66.98 54.1 65.64 54.45 64.9 54.8 63.12 55.15 64.9 55.5 65.35 55.85 62.23 56.2 61.79 56.55 62.98 56.89 62.38 57.24 58.53 57.59 60.01 57.94 61.35 58.29 63.12 58.64 65.05 58.99 63.42 59.34 64.75 59.69 63.57 60.04 66.68 60.39 67.57 60.73 68.16 61.08 67.42 61.43 67.42 61.78 68.75 62.13 72.31 62.48 71.27 62.83 68.6 63.18 66.09 63.53 69.49 63.88 67.72 64.23 71.27 64.58 67.42 64.92 65.35 65.27 64.75 65.62 66.68 65.97 65.49 66.32 65.79 66.67 68.46 67.02 65.94 67.37 67.42 67.72 66.09 68.07 64.31 68.42 63.27 68.77 65.49 69.11 64.9 69.46 68.75 69.81 65.05 70.16 67.86 70.51 66.09 70.86 67.12 71.21 70.83 71.56 70.97 71.91 70.97 72.26 73.49 72.61 72.46 72.95 72.01 73.3 71.42 73.65 71.86 74 72.9 74.35 70.38 74.7 71.27 75.05 70.53 75.4 69.64 75.75 69.05 76.1 71.86 76.45 72.31 76.8 71.42 77.14 72.31 77.49 66.53 77.84 65.79 78.19 64.61 78.54 63.86 78.89 64.75 79.24 63.72 79.59 66.83 79.94 66.68 80.29 65.35 80.64 64.9 80.98 66.68 81.33 63.12 81.68 67.42 82.03 65.05 82.38 68.6 82.73 67.27 83.08 64.9 83.43 68.16 83.78 71.86 84.13 70.97 84.48 73.05 84.83 78.08 85.17 78.53 85.52 78.68 85.87 78.53 86.22 80.31 86.57 81.05 86.92 82.97 87.27 80.01 87.62 78.38 87.97 79.12 88.32 78.97 88.67 78.68 89.02 79.86 89.36 80.9 89.71 79.27 90.06 81.79 90.41 84.9 90.76 86.68 91.11 92.01 91.46 94.68 91.81 93.79 92.16 95.86 92.51 96.01 92.86 93.93 93.2 93.64 93.55 91.71 93.9 88.75 94.25 92.31 94.6 91.56 94.95 88.45 95.3 85.64 95.65 89.79 96 90.08 96.35 87.12 96.7 84.45 97.05 82.82 97.39 81.79 97.74 81.79 98.09 83.86 98.44 85.05 98.79 87.57 99.14 89.49 99.49 86.53 99.84 86.23 100.19 86.38 100.54 84.16 100.89 79.12 101.23 77.94 101.58 78.68 101.93 75.86 102.28 75.71 102.63 76.16 102.98 73.64 103.33 72.01 103.68 73.34 104.03 72.31 104.38 74.97 104.73 76.31 105.08 75.42 105.42 74.97 105.77 75.27 106.12 72.01 106.47 70.09 106.82 64.16 107.17 66.98 107.52 68.75 107.87 68.46 108.22 72.46 108.57 71.57 108.92 69.49 109.26 68.31 109.61 68.01 109.96 67.86 110.31 69.64 110.66 69.49 111.01 68.01 111.36 66.09 111.71 67.86 112.06 68.75 112.41 69.05 112.76 69.79 113.11 68.16 113.45 66.83 113.8 66.68 114.15 65.05 114.5 64.16 114.85 62.53 115.2 61.64 115.55 60.75 115.9 63.86 116.25 64.16 116.6 63.86 116.95 62.98 117.3 66.23 117.64 64.16 117.99 62.68 118.34 62.83 118.69 62.83 119.04 63.86 119.39 64.46 119.74 67.12 120.09 62.83 120.44 64.46 120.79 64.01 121.14 66.83 121.48 65.94 121.83 62.53 122.18 61.94 122.53 61.05 122.88 57.35 123.23 56.75 123.58 53.64 123.93 55.57 124.28 57.35 124.63 58.98 124.98 63.42 125.33 64.16 125.67 64.46 126.02 63.72 126.37 65.05 126.72 66.83 127.07 64.9 127.42 60.16 127.77 60.75 128.12 57.2 128.47 58.53 128.82 60.61 129.17 62.38 129.51 61.05 129.86 62.09 130.21 62.38 130.56 64.9 130.91 63.12 131.26 63.57 131.61 62.53 131.96 57.64 132.31 59.86 132.66 55.87 133.01 58.98 133.36 59.72 133.7 56.01 134.05 55.42 134.4 57.2 134.75 55.72 135.1 54.68 135.45 57.05 135.8 59.86 136.15 59.86 136.5 59.42 136.85 57.79 137.2 60.31 137.55 57.49 137.89 60.46 138.24 56.9 138.59 58.53 138.94 58.83 139.29 62.98 139.64 62.23 139.99 60.61 140.34 57.35 140.69 58.53 141.04 56.01 141.39 59.57 141.73 60.75 142.08 59.86 142.43 58.24 142.78 53.5 143.13 50.83 143.48 47.87 143.83 49.79 144.18 45.05 144.53 47.27 144.88 44.76 145.23 41.05 145.58 38.24 145.92 38.24 146.27 38.53 146.62 38.83 146.97 39.72 147.32 42.24 147.67 47.27 148.02 48.46 148.37 50.38 148.72 50.53 149.07 48.31 149.42 48.46 149.76 45.5 150.11 44.16 150.46 42.39 150.81 43.72 151.16 42.39 151.51 40.61 151.86 43.13 152.21 46.09 152.56 48.16 152.91 46.83 153.26 43.27 153.61 42.68 153.95 42.68 154.3 41.5 154.65 38.98 155 38.68 155.35 37.05 155.7 36.61 156.05 33.65 156.4 30.98 156.75 31.28 157.1 31.42 157.45 31.13 157.79 30.09 158.14 29.5 158.49 30.68 158.84 34.24 159.19 31.57 159.54 31.42 159.89 32.61 160.24 33.94 160.59 34.09 160.94 32.76 161.29 34.83 161.64 34.09 161.98 33.05 162.33 29.79 162.68 29.2 163.03 30.54 163.38 29.65 163.73 29.2 164.08 28.76 164.43 28.91 164.78 34.98 165.13 32.91 165.48 31.13 165.83 32.91 166.17 29.65 166.52 28.17 166.87 31.42 167.22 34.98 167.57 33.94 167.92 33.2 168.27 33.2 168.62 30.09 168.97 31.87 169.32 34.53 169.67 31.72 170.01 32.02 170.36 35.72 170.71 36.61 171.06 36.46 171.41 32.61 171.76 32.46 172.11 35.72 172.46 31.72 172.81 31.42 173.16 34.98 173.51 32.76 173.86 30.68 174.2 29.5 174.55 27.42 174.9 28.31 175.25 27.42 175.6 29.65 175.95 29.2 176.3 28.76 176.65 30.24 177 29.5 177.35 31.13 177.7 31.57 178.04 30.39 178.39 29.79 178.74 27.28 179.09 26.83 179.44 28.76 179.79 27.72 180.14 26.24 180.49 25.8 180.84 28.61 181.19 29.5 181.54 29.05 181.89 28.02 182.23 25.05 182.58 21.65 182.93 23.72 183.28 27.87 183.63 29.5 183.98 30.24 184.33 31.13 184.68 29.79 185.03 29.65 185.38 29.05 185.73 27.72 186.08 28.17 186.42 28.31 186.77 27.42 187.12 28.46 187.47 29.05 187.82 28.91 188.17 32.76 188.52 31.57 188.87 31.87 189.22 32.31 189.57 33.94 189.92 33.2 190.26 32.46 190.61 29.65 190.96 30.68 191.31 31.87 191.66 30.54 192.01 31.28 192.36 32.02 192.71 30.54 193.06 31.13 193.41 31.28 193.76 30.54 194.11 28.91 194.45 27.87 194.8 24.02 195.15 24.17 195.5 25.65 195.85 28.61 196.2 26.98"/>
      </g>
      <g stroke-width="0.3" fill="#000000" fill-opacity="0.000" class="geometry" stroke-dasharray="none" stroke="#E6F598" id="img-9f860659-13">
        <path fill="none" d="M21.98,64.46 L 22.33 64.61 22.68 60.31 23.03 58.24 23.38 57.49 23.73 55.27 24.08 55.42 24.42 52.9 24.77 53.35 25.12 51.87 25.47 54.38 25.82 49.64 26.17 51.72 26.52 53.79 26.87 53.2 27.22 56.01 27.57 55.27 27.92 53.2 28.27 51.72 28.61 51.42 28.96 49.05 29.31 50.98 29.66 52.46 30.01 54.98 30.36 53.64 30.71 56.31 31.06 55.72 31.41 54.24 31.76 56.16 32.11 57.05 32.45 57.35 32.8 55.87 33.15 56.01 33.5 56.9 33.85 61.05 34.2 63.12 34.55 68.16 34.9 66.68 35.25 67.57 35.6 66.23 35.95 70.68 36.3 70.97 36.64 71.42 36.99 74.38 37.34 73.94 37.69 75.71 38.04 75.27 38.39 77.05 38.74 76.9 39.09 76.6 39.44 76.16 39.79 74.53 40.14 77.49 40.49 78.23 40.83 75.86 41.18 76.16 41.53 72.75 41.88 67.42 42.23 68.16 42.58 67.12 42.93 66.38 43.28 65.94 43.63 63.57 43.98 61.2 44.33 65.64 44.67 66.38 45.02 64.9 45.37 62.98 45.72 65.05 46.07 64.16 46.42 63.42 46.77 61.35 47.12 59.42 47.47 60.9 47.82 62.98 48.17 61.49 48.52 63.42 48.86 60.9 49.21 60.75 49.56 61.64 49.91 60.46 50.26 61.2 50.61 58.83 50.96 58.53 51.31 58.38 51.66 56.16 52.01 56.31 52.36 53.05 52.7 50.09 53.05 51.42 53.4 51.87 53.75 51.42 54.1 49.2 54.45 48.46 54.8 46.83 55.15 42.09 55.5 40.02 55.85 41.94 56.2 42.24 56.55 45.05 56.89 45.64 57.24 45.5 57.59 47.72 57.94 49.35 58.29 49.5 58.64 46.39 58.99 48.01 59.34 50.38 59.69 54.24 60.04 54.98 60.39 54.38 60.73 52.01 61.08 50.53 61.43 46.53 61.78 45.64 62.13 46.83 62.48 47.13 62.83 46.39 63.18 46.98 63.53 43.13 63.88 41.94 64.23 41.79 64.58 47.87 64.92 49.2 65.27 47.27 65.62 43.72 65.97 43.13 66.32 44.31 66.67 45.64 67.02 47.72 67.37 47.72 67.72 47.42 68.07 45.05 68.42 44.16 68.77 43.13 69.11 47.13 69.46 44.76 69.81 47.27 70.16 46.24 70.51 48.31 70.86 52.9 71.21 53.2 71.56 55.72 71.91 56.01 72.26 56.31 72.61 55.27 72.95 56.75 73.3 55.57 73.65 54.09 74 53.2 74.35 50.83 74.7 49.2 75.05 46.98 75.4 46.09 75.75 46.09 76.1 49.35 76.45 49.79 76.8 53.5 77.14 55.27 77.49 54.09 77.84 51.72 78.19 52.16 78.54 53.64 78.89 53.79 79.24 52.9 79.59 51.57 79.94 49.94 80.29 49.79 80.64 48.46 80.98 48.16 81.33 50.38 81.68 48.46 82.03 45.79 82.38 46.68 82.73 45.2 83.08 41.94 83.43 40.61 83.78 43.13 84.13 46.24 84.48 44.61 84.83 42.24 85.17 42.53 85.52 44.31 85.87 42.98 86.22 41.94 86.57 43.57 86.92 45.05 87.27 42.68 87.62 44.31 87.97 45.94 88.32 45.94 88.67 48.16 89.02 46.68 89.36 44.02 89.71 44.61 90.06 41.64 90.41 38.53 90.76 35.13 91.11 38.09 91.46 41.79 91.81 41.64 92.16 40.02 92.51 39.13 92.86 39.57 93.2 39.87 93.55 39.57 93.9 39.42 94.25 41.64 94.6 38.39 94.95 38.09 95.3 39.27 95.65 34.68 96 34.98 96.35 37.65 96.7 36.46 97.05 36.02 97.39 34.83 97.74 35.13 98.09 33.65 98.44 35.13 98.79 36.16 99.14 39.87 99.49 40.02 99.84 41.94 100.19 42.83 100.54 44.9 100.89 48.01 101.23 48.01 101.58 48.01 101.93 50.09 102.28 45.94 102.63 49.5 102.98 48.16 103.33 47.57 103.68 50.38 104.03 51.57 104.38 53.79 104.73 57.35 105.08 58.53 105.42 57.79 105.77 59.86 106.12 58.38 106.47 58.53 106.82 57.49 107.17 60.46 107.52 62.83 107.87 64.46 108.22 68.6 108.57 69.05 108.92 66.68 109.26 66.83 109.61 63.12 109.96 68.75 110.31 67.72 110.66 67.57 111.01 68.16 111.36 71.12 111.71 74.53 112.06 77.94 112.41 77.94 112.76 80.16 113.11 79.71 113.45 80.6 113.8 80.31 114.15 81.34 114.5 80.16 114.85 80.6 115.2 82.23 115.55 80.31 115.9 81.2 116.25 78.83 116.6 81.79 116.95 78.83 117.3 73.64 117.64 73.94 117.99 73.79 118.34 72.01 118.69 70.83 119.04 72.16 119.39 68.75 119.74 69.94 120.09 67.12 120.44 66.38 120.79 64.31 121.14 61.49 121.48 59.12 121.83 54.68 122.18 57.05 122.53 56.16 122.88 60.01 123.23 65.2 123.58 61.94 123.93 61.49 124.28 61.64 124.63 62.38 124.98 61.05 125.33 59.27 125.67 59.57 126.02 58.68 126.37 57.64 126.72 55.42 127.07 57.49 127.42 59.27 127.77 62.83 128.12 63.42 128.47 61.64 128.82 61.35 129.17 62.98 129.51 64.46 129.86 63.57 130.21 61.49 130.56 64.01 130.91 66.38 131.26 64.75 131.61 65.2 131.96 66.38 132.31 64.46 132.66 62.09 133.01 62.98 133.36 62.68 133.7 60.61 134.05 61.64 134.4 62.68 134.75 68.31 135.1 68.6 135.45 67.12 135.8 66.38 136.15 64.31 136.5 63.27 136.85 65.2 137.2 66.53 137.55 64.31 137.89 63.86 138.24 64.9 138.59 66.09 138.94 65.35 139.29 70.83 139.64 67.42 139.99 66.09 140.34 67.57 140.69 64.75 141.04 66.38 141.39 63.27 141.73 65.94 142.08 69.05 142.43 65.35 142.78 65.05 143.13 63.12 143.48 63.72 143.83 62.83 144.18 60.46 144.53 58.83 144.88 56.61 145.23 58.68 145.58 57.2 145.92 55.42 146.27 58.98 146.62 57.35 146.97 59.27 147.32 58.38 147.67 56.9 148.02 54.98 148.37 56.01 148.72 54.98 149.07 57.94 149.42 58.09 149.76 55.72 150.11 52.31 150.46 49.35 150.81 55.57 151.16 55.27 151.51 59.42 151.86 57.64 152.21 57.79 152.56 57.35 152.91 59.12 153.26 59.12 153.61 60.61 153.95 58.09 154.3 62.53 154.65 65.94 155 69.05 155.35 68.46 155.7 69.35 156.05 68.75 156.4 66.38 156.75 65.94 157.1 67.42 157.45 69.2 157.79 70.53 158.14 71.72 158.49 67.86 158.84 67.72 159.19 67.57 159.54 65.94 159.89 68.46 160.24 69.2 160.59 71.12 160.94 72.6 161.29 74.09 161.64 72.75 161.98 70.09 162.33 69.2 162.68 70.83 163.03 70.53 163.38 72.01 163.73 74.23 164.08 71.86 164.43 72.01 164.78 73.34 165.13 70.23 165.48 69.64 165.83 72.75 166.17 79.27 166.52 82.97 166.87 84.01 167.22 83.12 167.57 86.53 167.92 89.34 168.27 88.16 168.62 84.45 168.97 85.34 169.32 86.68 169.67 85.49 170.01 87.42 170.36 89.05 170.71 86.08 171.06 90.68 171.41 89.34 171.76 91.27 172.11 95.12 172.46 93.19 172.81 93.34 173.16 92.31 173.51 93.34 173.86 94.53 174.2 94.82 174.55 95.42 174.9 97.93 175.25 98.82 175.6 99.42 175.95 100.75 176.3 101.49 176.65 99.86 177 98.38 177.35 100.9 177.7 99.86 178.04 100.16 178.39 100.3 178.74 98.38 179.09 98.08 179.44 96.75 179.79 95.42 180.14 95.71 180.49 97.05 180.84 98.23 181.19 94.82 181.54 96.16 181.89 96.3 182.23 95.71 182.58 97.64 182.93 96.3 183.28 92.45 183.63 92.01 183.98 90.08 184.33 89.34 184.68 87.86 185.03 87.12 185.38 86.82 185.73 87.12 186.08 89.49 186.42 89.79 186.77 88.01 187.12 86.68 187.47 82.68 187.82 80.31 188.17 77.64 188.52 77.05 188.87 77.79 189.22 74.53 189.57 71.57 189.92 73.94 190.26 74.38 190.61 74.38 190.96 76.01 191.31 75.12 191.66 76.9 192.01 79.57 192.36 79.12 192.71 76.75 193.06 78.97 193.41 79.86 193.76 78.68 194.11 78.38 194.45 81.49 194.8 79.27 195.15 79.27 195.5 77.05 195.85 80.01 196.2 78.23"/>
      </g>
      <g stroke-width="0.3" fill="#000000" fill-opacity="0.000" class="geometry" stroke-dasharray="none" stroke="#FFFFBF" id="img-9f860659-14">
        <path fill="none" d="M21.98,64.46 L 22.33 63.57 22.68 61.49 23.03 61.2 23.38 61.79 23.73 59.86 24.08 59.42 24.42 58.38 24.77 59.42 25.12 60.31 25.47 59.42 25.82 57.94 26.17 61.2 26.52 59.72 26.87 62.68 27.22 62.98 27.57 60.31 27.92 60.31 28.27 60.46 28.61 61.2 28.96 59.72 29.31 63.86 29.66 61.2 30.01 61.94 30.36 63.72 30.71 61.79 31.06 63.42 31.41 64.31 31.76 64.01 32.11 64.01 32.45 66.53 32.8 68.16 33.15 69.35 33.5 66.68 33.85 62.53 34.2 60.61 34.55 59.86 34.9 62.53 35.25 61.64 35.6 60.16 35.95 59.27 36.3 60.31 36.64 58.68 36.99 58.24 37.34 58.83 37.69 60.46 38.04 62.68 38.39 61.79 38.74 64.75 39.09 63.27 39.44 64.01 39.79 65.64 40.14 70.53 40.49 69.05 40.83 70.53 41.18 70.97 41.53 69.79 41.88 74.97 42.23 76.9 42.58 78.08 42.93 80.45 43.28 79.86 43.63 81.79 43.98 85.05 44.33 85.79 44.67 86.23 45.02 85.64 45.37 85.49 45.72 86.82 46.07 85.19 46.42 84.01 46.77 83.57 47.12 87.57 47.47 90.68 47.82 91.42 48.17 91.27 48.52 88.75 48.86 87.86 49.21 84.75 49.56 86.23 49.91 86.97 50.26 87.57 50.61 89.79 50.96 87.71 51.31 85.34 51.66 86.38 52.01 89.05 52.36 91.56 52.7 92.75 53.05 92.6 53.4 94.53 53.75 93.93 54.1 93.79 54.45 95.71 54.8 98.38 55.15 102.08 55.5 102.23 55.85 104.75 56.2 103.56 56.55 104.45 56.89 104.6 57.24 105.19 57.59 106.23 57.94 106.53 58.29 104.45 58.64 105.93 58.99 107.56 59.34 107.41 59.69 106.38 60.04 106.82 60.39 106.53 60.73 104.75 61.08 103.27 61.43 104.3 61.78 106.08 62.13 106.08 62.48 107.71 62.83 104.75 63.18 104.01 63.53 100.75 63.88 100.9 64.23 100.9 64.58 101.04 64.92 98.67 65.27 98.97 65.62 101.04 65.97 100.3 66.32 97.93 66.67 99.12 67.02 97.79 67.37 94.68 67.72 94.53 68.07 95.42 68.42 95.12 68.77 95.27 69.11 92.9 69.46 93.64 69.81 93.05 70.16 94.08 70.51 92.75 70.86 92.9 71.21 90.82 71.56 91.86 71.91 90.82 72.26 93.64 72.61 94.23 72.95 95.12 73.3 94.82 73.65 97.19 74 98.82 74.35 96.9 74.7 98.97 75.05 97.05 75.4 94.97 75.75 95.12 76.1 94.08 76.45 97.05 76.8 96.9 77.14 97.64 77.49 97.34 77.84 96.16 78.19 94.53 78.54 97.34 78.89 95.12 79.24 92.16 79.59 88.75 79.94 89.19 80.29 88.45 80.64 84.45 80.98 86.97 81.33 85.49 81.68 85.34 82.03 81.79 82.38 81.94 82.73 80.75 83.08 84.01 83.43 85.19 83.78 84.9 84.13 86.38 84.48 85.05 84.83 80.75 85.17 76.16 85.52 72.46 85.87 71.72 86.22 72.46 86.57 69.64 86.92 69.64 87.27 66.09 87.62 68.01 87.97 71.42 88.32 71.27 88.67 69.94 89.02 70.83 89.36 67.42 89.71 62.98 90.06 59.72 90.41 62.38 90.76 59.86 91.11 58.09 91.46 59.27 91.81 59.86 92.16 60.31 92.51 59.42 92.86 59.72 93.2 62.38 93.55 61.35 93.9 60.9 94.25 64.61 94.6 63.57 94.95 63.12 95.3 65.05 95.65 61.79 96 62.09 96.35 63.86 96.7 66.83 97.05 66.23 97.39 67.72 97.74 66.23 98.09 65.94 98.44 70.97 98.79 65.2 99.14 68.46 99.49 66.98 99.84 65.64 100.19 66.68 100.54 64.31 100.89 64.46 101.23 61.05 101.58 62.83 101.93 64.61 102.28 66.83 102.63 67.42 102.98 67.27 103.33 66.68 103.68 67.42 104.03 69.49 104.38 68.01 104.73 65.2 105.08 65.05 105.42 65.94 105.77 66.83 106.12 67.12 106.47 67.42 106.82 66.09 107.17 64.9 107.52 62.68 107.87 62.38 108.22 68.01 108.57 69.05 108.92 73.64 109.26 71.72 109.61 73.05 109.96 72.75 110.31 72.9 110.66 77.05 111.01 75.86 111.36 73.94 111.71 70.68 112.06 65.64 112.41 65.79 112.76 61.64 113.11 60.75 113.45 61.64 113.8 61.64 114.15 61.64 114.5 60.61 114.85 60.31 115.2 57.79 115.55 60.75 115.9 62.53 116.25 57.79 116.6 60.31 116.95 57.35 117.3 58.09 117.64 58.24 117.99 53.64 118.34 52.9 118.69 53.35 119.04 54.98 119.39 58.83 119.74 57.2 120.09 54.53 120.44 55.12 120.79 57.79 121.14 56.75 121.48 53.5 121.83 56.61 122.18 54.38 122.53 50.83 122.88 49.2 123.23 48.9 123.58 47.42 123.93 50.24 124.28 49.05 124.63 49.94 124.98 52.46 125.33 51.42 125.67 49.2 126.02 48.16 126.37 50.09 126.72 47.27 127.07 47.13 127.42 49.94 127.77 50.98 128.12 48.16 128.47 51.57 128.82 52.9 129.17 48.76 129.51 51.42 129.86 55.12 130.21 53.79 130.56 52.9 130.91 51.57 131.26 52.16 131.61 49.35 131.96 48.16 132.31 46.53 132.66 49.94 133.01 50.38 133.36 53.35 133.7 54.98 134.05 51.27 134.4 53.35 134.75 52.9 135.1 50.68 135.45 49.64 135.8 47.42 136.15 49.35 136.5 46.83 136.85 46.53 137.2 46.09 137.55 43.87 137.89 41.94 138.24 43.87 138.59 43.72 138.94 41.05 139.29 37.94 139.64 36.16 139.99 37.65 140.34 34.98 140.69 34.83 141.04 38.53 141.39 39.42 141.73 41.2 142.08 42.24 142.43 46.68 142.78 46.39 143.13 42.98 143.48 42.39 143.83 40.16 144.18 40.16 144.53 41.94 144.88 44.76 145.23 42.83 145.58 44.16 145.92 41.94 146.27 39.42 146.62 41.5 146.97 43.57 147.32 42.09 147.67 41.2 148.02 39.72 148.37 36.76 148.72 35.42 149.07 35.72 149.42 35.57 149.76 36.76 150.11 36.16 150.46 38.83 150.81 38.53 151.16 39.57 151.51 38.24 151.86 33.5 152.21 33.65 152.56 35.13 152.91 34.39 153.26 37.05 153.61 39.27 153.95 42.39 154.3 41.79 154.65 44.76 155 45.94 155.35 47.42 155.7 46.98 156.05 45.2 156.4 45.05 156.75 45.64 157.1 48.01 157.45 55.72 157.79 53.2 158.14 51.42 158.49 53.05 158.84 54.09 159.19 52.61 159.54 48.16 159.89 49.35 160.24 50.09 160.59 50.53 160.94 50.38 161.29 51.57 161.64 52.01 161.98 50.68 162.33 48.9 162.68 47.42 163.03 47.72 163.38 48.61 163.73 50.53 164.08 52.01 164.43 50.98 164.78 53.64 165.13 51.57 165.48 51.42 165.83 50.38 166.17 51.42 166.52 48.31 166.87 50.09 167.22 51.13 167.57 49.94 167.92 51.42 168.27 51.42 168.62 49.79 168.97 49.2 169.32 51.87 169.67 50.83 170.01 50.09 170.36 52.9 170.71 54.83 171.06 55.57 171.41 57.79 171.76 59.12 172.11 59.42 172.46 59.57 172.81 61.2 173.16 61.49 173.51 62.23 173.86 64.46 174.2 66.38 174.55 60.31 174.9 60.01 175.25 60.9 175.6 57.35 175.95 60.01 176.3 55.72 176.65 58.68 177 66.23 177.35 66.53 177.7 66.38 178.04 64.9 178.39 64.46 178.74 65.05 179.09 66.68 179.44 64.61 179.79 67.12 180.14 68.01 180.49 69.05 180.84 70.53 181.19 74.83 181.54 74.97 181.89 74.53 182.23 78.08 182.58 77.49 182.93 76.46 183.28 77.05 183.63 80.75 183.98 81.94 184.33 82.38 184.68 76.16 185.03 75.42 185.38 76.31 185.73 79.12 186.08 80.45 186.42 84.6 186.77 81.34 187.12 84.9 187.47 86.68 187.82 85.94 188.17 85.94 188.52 86.23 188.87 88.16 189.22 87.27 189.57 87.12 189.92 87.71 190.26 86.08 190.61 89.79 190.96 92.31 191.31 93.49 191.66 91.12 192.01 92.16 192.36 91.42 192.71 93.34 193.06 91.27 193.41 89.05 193.76 86.08 194.11 83.86 194.45 86.68 194.8 83.71 195.15 83.42 195.5 84.75 195.85 84.9 196.2 86.38"/>
      </g>
      <g stroke-width="0.3" fill="#000000" fill-opacity="0.000" class="geometry" stroke-dasharray="none" stroke="#FEE08B" id="img-9f860659-15">
        <path fill="none" d="M21.98,64.46 L 22.33 68.75 22.68 66.98 23.03 70.68 23.38 71.72 23.73 74.53 24.08 76.75 24.42 76.9 24.77 78.38 25.12 77.2 25.47 81.05 25.82 79.57 26.17 80.01 26.52 82.82 26.87 83.12 27.22 83.57 27.57 85.19 27.92 84.31 28.27 86.82 28.61 86.68 28.96 89.79 29.31 89.79 29.66 89.79 30.01 88.9 30.36 89.79 30.71 90.53 31.06 86.82 31.41 87.71 31.76 88.31 32.11 89.05 32.45 89.34 32.8 88.31 33.15 89.34 33.5 89.79 33.85 89.49 34.2 93.34 34.55 89.94 34.9 88.01 35.25 90.68 35.6 88.75 35.95 91.27 36.3 92.75 36.64 94.68 36.99 96.9 37.34 100.16 37.69 102.67 38.04 103.56 38.39 108.01 38.74 106.38 39.09 109.34 39.44 110.38 39.79 110.53 40.14 112.15 40.49 110.67 40.83 109.34 41.18 111.27 41.53 108.75 41.88 109.49 42.23 106.23 42.58 103.56 42.93 105.04 43.28 104.01 43.63 102.97 43.98 106.67 44.33 107.12 44.67 107.56 45.02 107.41 45.37 107.41 45.72 106.67 46.07 106.53 46.42 108.6 46.77 106.38 47.12 105.49 47.47 106.38 47.82 105.34 48.17 101.93 48.52 100.3 48.86 100.75 49.21 99.27 49.56 99.56 49.91 98.82 50.26 98.38 50.61 101.93 50.96 102.82 51.31 102.38 51.66 104.6 52.01 105.64 52.36 108.45 52.7 105.78 53.05 103.41 53.4 102.38 53.75 102.38 54.1 103.41 54.45 106.82 54.8 103.71 55.15 100.9 55.5 102.23 55.85 101.93 56.2 104.3 56.55 102.67 56.89 102.53 57.24 103.27 57.59 104.9 57.94 104.3 58.29 106.97 58.64 108.6 58.99 107.86 59.34 107.71 59.69 108.45 60.04 109.34 60.39 109.04 60.73 109.19 61.08 111.56 61.43 113.04 61.78 112.75 62.13 114.23 62.48 115.41 62.83 114.38 63.18 116.75 63.53 114.82 63.88 113.93 64.23 112.6 64.58 110.08 64.92 108.75 65.27 110.38 65.62 110.23 65.97 109.78 66.32 110.97 66.67 109.64 67.02 108.6 67.37 109.93 67.72 109.19 68.07 110.38 68.42 109.64 68.77 109.93 69.11 109.93 69.46 110.82 69.81 110.67 70.16 109.04 70.51 110.53 70.86 109.19 71.21 110.53 71.56 110.08 71.91 109.34 72.26 109.93 72.61 109.93 72.95 106.08 73.3 107.27 73.65 106.23 74 107.41 74.35 108.15 74.7 109.19 75.05 108.9 75.4 108.9 75.75 109.04 76.1 111.12 76.45 113.64 76.8 111.41 77.14 110.08 77.49 108.9 77.84 104.75 78.19 104.75 78.54 100.6 78.89 104.01 79.24 106.08 79.59 107.41 79.94 113.34 80.29 111.56 80.64 111.56 80.98 110.38 81.33 111.71 81.68 110.38 82.03 109.78 82.38 109.04 82.73 107.86 83.08 110.67 83.43 109.64 83.78 110.23 84.13 112.9 84.48 114.82 84.83 116.89 85.17 117.04 85.52 118.82 85.87 119.41 86.22 118.23 86.57 116.75 86.92 114.38 87.27 112.6 87.62 111.56 87.97 113.04 88.32 112.01 88.67 113.04 89.02 113.49 89.36 111.12 89.71 107.12 90.06 109.93 90.41 109.49 90.76 106.82 91.11 105.34 91.46 105.64 91.81 104.75 92.16 106.08 92.51 109.64 92.86 106.38 93.2 104.3 93.55 103.12 93.9 101.19 94.25 103.56 94.6 105.64 94.95 104.01 95.3 106.67 95.65 106.53 96 108.15 96.35 110.38 96.7 105.49 97.05 103.12 97.39 100.01 97.74 101.64 98.09 102.23 98.44 104.16 98.79 106.38 99.14 108.9 99.49 111.41 99.84 111.56 100.19 109.64 100.54 108.3 100.89 105.93 101.23 108.3 101.58 109.34 101.93 105.49 102.28 107.12 102.63 104.45 102.98 105.49 103.33 103.56 103.68 101.64 104.03 100.6 104.38 97.93 104.73 98.53 105.08 96.3 105.42 93.79 105.77 92.01 106.12 90.08 106.47 87.42 106.82 91.42 107.17 93.19 107.52 94.97 107.87 94.53 108.22 97.05 108.57 98.82 108.92 97.49 109.26 100.45 109.61 104.01 109.96 106.82 110.31 106.23 110.66 106.67 111.01 106.08 111.36 106.23 111.71 107.41 112.06 108.15 112.41 104.75 112.76 102.67 113.11 102.08 113.45 105.34 113.8 103.71 114.15 103.71 114.5 101.79 114.85 101.79 115.2 104.3 115.55 103.71 115.9 103.56 116.25 105.04 116.6 104.01 116.95 103.71 117.3 100.9 117.64 101.19 117.99 102.08 118.34 101.64 118.69 98.82 119.04 96.9 119.39 102.67 119.74 100.75 120.09 98.53 120.44 99.56 120.79 100.01 121.14 102.08 121.48 101.93 121.83 105.04 122.18 105.04 122.53 103.27 122.88 102.23 123.23 97.34 123.58 97.64 123.93 97.64 124.28 97.79 124.63 98.23 124.98 96.45 125.33 94.23 125.67 95.71 126.02 92.16 126.37 93.05 126.72 94.82 127.07 93.19 127.42 90.97 127.77 87.57 128.12 84.75 128.47 82.68 128.82 78.53 129.17 79.86 129.51 81.2 129.86 77.34 130.21 78.97 130.56 82.97 130.91 89.94 131.26 89.19 131.61 88.6 131.96 86.68 132.31 83.86 132.66 84.16 133.01 86.68 133.36 88.75 133.7 86.38 134.05 88.31 134.4 90.53 134.75 91.56 135.1 90.82 135.45 89.05 135.8 90.97 136.15 90.97 136.5 91.71 136.85 95.27 137.2 94.53 137.55 91.86 137.89 89.79 138.24 87.42 138.59 86.97 138.94 86.23 139.29 87.57 139.64 87.42 139.99 86.68 140.34 85.34 140.69 85.49 141.04 84.16 141.39 81.05 141.73 79.86 142.08 79.71 142.43 81.49 142.78 80.6 143.13 81.64 143.48 81.49 143.83 79.27 144.18 80.9 144.53 81.2 144.88 79.27 145.23 78.38 145.58 80.75 145.92 81.79 146.27 82.97 146.62 81.49 146.97 87.57 147.32 83.86 147.67 83.71 148.02 84.01 148.37 80.6 148.72 80.01 149.07 78.68 149.42 77.79 149.76 81.05 150.11 80.01 150.46 78.08 150.81 78.83 151.16 82.38 151.51 82.38 151.86 81.79 152.21 81.34 152.56 80.31 152.91 78.53 153.26 81.2 153.61 79.57 153.95 80.31 154.3 81.79 154.65 80.75 155 82.08 155.35 85.49 155.7 89.64 156.05 90.08 156.4 92.01 156.75 90.82 157.1 90.68 157.45 92.31 157.79 89.64 158.14 88.75 158.49 86.08 158.84 87.71 159.19 91.86 159.54 90.68 159.89 92.31 160.24 91.42 160.59 89.94 160.94 89.64 161.29 87.71 161.64 88.31 161.98 88.01 162.33 86.97 162.68 87.27 163.03 89.05 163.38 85.64 163.73 84.01 164.08 85.64 164.43 82.53 164.78 81.34 165.13 76.46 165.48 78.38 165.83 78.08 166.17 73.34 166.52 72.75 166.87 69.05 167.22 71.57 167.57 74.09 167.92 74.09 168.27 73.64 168.62 74.23 168.97 74.53 169.32 78.23 169.67 82.68 170.01 82.82 170.36 82.08 170.71 84.01 171.06 83.27 171.41 82.23 171.76 81.49 172.11 78.53 172.46 77.05 172.81 79.42 173.16 81.94 173.51 77.64 173.86 76.9 174.2 76.75 174.55 75.12 174.9 74.53 175.25 72.31 175.6 69.35 175.95 70.38 176.3 69.35 176.65 69.94 177 71.57 177.35 70.83 177.7 71.12 178.04 74.53 178.39 74.23 178.74 75.57 179.09 73.94 179.44 73.94 179.79 69.49 180.14 67.27 180.49 65.05 180.84 66.23 181.19 62.23 181.54 66.23 181.89 62.83 182.23 61.05 182.58 60.16 182.93 59.72 183.28 57.64 183.63 55.12 183.98 53.79 184.33 50.53 184.68 51.57 185.03 52.01 185.38 53.5 185.73 50.98 186.08 49.05 186.42 48.01 186.77 45.35 187.12 49.5 187.47 46.68 187.82 47.57 188.17 48.61 188.52 51.27 188.87 51.57 189.22 49.64 189.57 51.72 189.92 53.5 190.26 50.83 190.61 54.53 190.96 55.12 191.31 54.68 191.66 58.09 192.01 57.94 192.36 58.38 192.71 55.57 193.06 55.57 193.41 52.61 193.76 53.35 194.11 55.12 194.45 53.05 194.8 50.53 195.15 49.79 195.5 48.76 195.85 49.79 196.2 49.64"/>
      </g>
      <g stroke-width="0.3" fill="#000000" fill-opacity="0.000" class="geometry" stroke-dasharray="none" stroke="#FDAE61" id="img-9f860659-16">
        <path fill="none" d="M21.98,64.46 L 22.33 63.72 22.68 63.12 23.03 64.61 23.38 65.79 23.73 67.57 24.08 65.49 24.42 61.2 24.77 62.83 25.12 62.38 25.47 64.01 25.82 62.98 26.17 65.94 26.52 68.01 26.87 69.79 27.22 68.16 27.57 64.75 27.92 66.53 28.27 67.27 28.61 66.68 28.96 66.98 29.31 62.68 29.66 61.94 30.01 60.75 30.36 60.61 30.71 63.72 31.06 63.12 31.41 65.2 31.76 63.57 32.11 60.9 32.45 59.42 32.8 59.27 33.15 59.42 33.5 59.86 33.85 61.05 34.2 61.2 34.55 65.05 34.9 68.16 35.25 64.9 35.6 64.9 35.95 67.42 36.3 70.09 36.64 72.16 36.99 71.42 37.34 70.68 37.69 71.12 38.04 68.9 38.39 71.72 38.74 72.75 39.09 70.68 39.44 73.94 39.79 76.31 40.14 74.83 40.49 72.01 40.83 74.83 41.18 80.6 41.53 84.31 41.88 81.64 42.23 78.53 42.58 80.01 42.93 77.2 43.28 77.49 43.63 76.46 43.98 74.68 44.33 75.12 44.67 75.57 45.02 75.71 45.37 73.2 45.72 70.97 46.07 70.23 46.42 70.23 46.77 69.05 47.12 68.01 47.47 65.49 47.82 66.53 48.17 65.05 48.52 64.16 48.86 61.35 49.21 58.38 49.56 57.94 49.91 56.01 50.26 50.09 50.61 51.87 50.96 51.13 51.31 52.31 51.66 54.98 52.01 52.01 52.36 48.31 52.7 46.98 53.05 46.83 53.4 47.72 53.75 45.2 54.1 42.98 54.45 40.46 54.8 42.09 55.15 42.09 55.5 41.64 55.85 38.39 56.2 38.09 56.55 39.87 56.89 40.16 57.24 37.79 57.59 39.72 57.94 42.09 58.29 41.94 58.64 40.46 58.99 40.02 59.34 40.46 59.69 41.05 60.04 40.46 60.39 41.5 60.73 41.05 61.08 43.13 61.43 46.53 61.78 44.61 62.13 44.61 62.48 44.31 62.83 44.31 63.18 45.79 63.53 48.16 63.88 47.13 64.23 49.5 64.58 46.39 64.92 48.01 65.27 49.2 65.62 51.42 65.97 51.27 66.32 53.5 66.67 55.87 67.02 58.38 67.37 61.64 67.72 63.27 68.07 60.16 68.42 63.12 68.77 63.57 69.11 66.38 69.46 65.05 69.81 64.31 70.16 60.75 70.51 64.01 70.86 63.57 71.21 64.16 71.56 63.72 71.91 64.16 72.26 69.35 72.61 69.49 72.95 70.23 73.3 68.31 73.65 66.68 74 67.72 74.35 67.86 74.7 67.42 75.05 66.98 75.4 66.53 75.75 69.35 76.1 70.53 76.45 70.83 76.8 71.86 77.14 70.68 77.49 69.94 77.84 75.27 78.19 76.46 78.54 74.83 78.89 70.23 79.24 69.64 79.59 67.27 79.94 71.12 80.29 70.38 80.64 71.42 80.98 72.46 81.33 71.27 81.68 67.72 82.03 64.75 82.38 64.46 82.73 61.35 83.08 62.09 83.43 59.57 83.78 57.79 84.13 59.42 84.48 59.72 84.83 59.72 85.17 59.57 85.52 62.23 85.87 60.01 86.22 59.86 86.57 58.24 86.92 61.35 87.27 62.38 87.62 57.94 87.97 55.42 88.32 55.87 88.67 56.61 89.02 55.27 89.36 56.46 89.71 54.68 90.06 51.57 90.41 49.64 90.76 50.83 91.11 51.27 91.46 51.42 91.81 54.24 92.16 52.31 92.51 50.24 92.86 49.94 93.2 51.13 93.55 49.64 93.9 49.94 94.25 50.09 94.6 49.5 94.95 51.87 95.3 48.9 95.65 48.31 96 48.16 96.35 45.64 96.7 47.42 97.05 47.72 97.39 44.61 97.74 42.68 98.09 43.13 98.44 40.76 98.79 37.94 99.14 38.68 99.49 40.02 99.84 39.72 100.19 39.87 100.54 36.02 100.89 36.9 101.23 39.13 101.58 37.79 101.93 37.65 102.28 36.76 102.63 36.9 102.98 38.39 103.33 41.35 103.68 41.94 104.03 40.46 104.38 39.42 104.73 40.16 105.08 40.76 105.42 39.57 105.77 37.94 106.12 37.5 106.47 37.2 106.82 40.76 107.17 41.64 107.52 42.83 107.87 40.16 108.22 38.98 108.57 37.2 108.92 38.39 109.26 39.72 109.61 41.5 109.96 40.02 110.31 38.53 110.66 34.83 111.01 37.79 111.36 39.42 111.71 40.76 112.06 40.02 112.41 44.9 112.76 45.2 113.11 42.09 113.45 44.76 113.8 48.01 114.15 44.02 114.5 45.5 114.85 42.09 115.2 42.98 115.55 43.87 115.9 41.5 116.25 44.02 116.6 42.98 116.95 44.02 117.3 42.98 117.64 42.24 117.99 42.83 118.34 44.16 118.69 50.68 119.04 49.64 119.39 49.05 119.74 45.35 120.09 48.46 120.44 46.98 120.79 44.76 121.14 42.98 121.48 46.53 121.83 44.31 122.18 46.68 122.53 46.24 122.88 48.61 123.23 48.01 123.58 44.46 123.93 40.16 124.28 40.02 124.63 40.16 124.98 41.05 125.33 43.27 125.67 40.02 126.02 42.98 126.37 44.61 126.72 44.61 127.07 47.27 127.42 50.53 127.77 52.16 128.12 54.83 128.47 53.2 128.82 52.16 129.17 54.09 129.51 51.57 129.86 51.57 130.21 51.42 130.56 53.2 130.91 53.05 131.26 54.98 131.61 56.9 131.96 59.57 132.31 60.75 132.66 58.24 133.01 58.83 133.36 56.75 133.7 59.72 134.05 58.09 134.4 53.79 134.75 55.12 135.1 57.2 135.45 53.64 135.8 52.75 136.15 51.42 136.5 52.46 136.85 50.98 137.2 52.01 137.55 51.72 137.89 50.24 138.24 50.24 138.59 48.46 138.94 48.76 139.29 49.2 139.64 47.42 139.99 48.61 140.34 49.05 140.69 46.39 141.04 42.24 141.39 39.13 141.73 37.79 142.08 39.13 142.43 37.79 142.78 38.09 143.13 40.31 143.48 43.13 143.83 42.98 144.18 41.79 144.53 40.61 144.88 43.13 145.23 42.24 145.58 42.24 145.92 40.9 146.27 37.5 146.62 38.24 146.97 37.94 147.32 37.05 147.67 35.87 148.02 37.94 148.37 35.28 148.72 36.46 149.07 41.5 149.42 42.09 149.76 39.57 150.11 38.53 150.46 40.31 150.81 42.83 151.16 45.79 151.51 48.9 151.86 46.98 152.21 42.39 152.56 40.61 152.91 35.87 153.26 32.91 153.61 33.94 153.95 33.35 154.3 33.2 154.65 32.31 155 28.46 155.35 25.8 155.7 29.65 156.05 30.68 156.4 31.28 156.75 30.68 157.1 31.42 157.45 29.5 157.79 27.28 158.14 28.17 158.49 26.98 158.84 25.2 159.19 23.87 159.54 25.2 159.89 25.8 160.24 26.54 160.59 28.31 160.94 31.72 161.29 37.05 161.64 37.05 161.98 36.16 162.33 32.91 162.68 34.39 163.03 36.61 163.38 38.53 163.73 38.53 164.08 41.94 164.43 41.64 164.78 43.42 165.13 42.83 165.48 37.65 165.83 40.31 166.17 45.79 166.52 44.9 166.87 45.35 167.22 46.68 167.57 41.94 167.92 45.05 168.27 46.09 168.62 49.5 168.97 48.31 169.32 50.09 169.67 48.01 170.01 50.83 170.36 51.42 170.71 54.38 171.06 56.9 171.41 57.49 171.76 61.05 172.11 58.83 172.46 58.83 172.81 58.83 173.16 59.27 173.51 58.53 173.86 61.2 174.2 64.16 174.55 64.75 174.9 66.23 175.25 64.46 175.6 64.75 175.95 67.72 176.3 71.12 176.65 70.68 177 68.9 177.35 71.27 177.7 71.86 178.04 70.83 178.39 73.2 178.74 70.53 179.09 71.86 179.44 68.31 179.79 65.35 180.14 65.64 180.49 65.94 180.84 68.75 181.19 69.79 181.54 71.57 181.89 73.05 182.23 74.53 182.58 72.31 182.93 72.31 183.28 72.31 183.63 74.83 183.98 71.72 184.33 70.38 184.68 70.68 185.03 72.9 185.38 73.49 185.73 74.83 186.08 76.46 186.42 77.2 186.77 80.45 187.12 82.53 187.47 80.9 187.82 82.97 188.17 81.64 188.52 82.08 188.87 82.82 189.22 84.75 189.57 83.42 189.92 84.01 190.26 87.27 190.61 88.01 190.96 81.05 191.31 81.34 191.66 82.38 192.01 80.31 192.36 83.27 192.71 81.79 193.06 82.68 193.41 85.64 193.76 88.75 194.11 89.64 194.45 90.97 194.8 91.42 195.15 88.45 195.5 90.08 195.85 91.42 196.2 90.82"/>
      </g>
      <g stroke-width="0.3" fill="#000000" fill-opacity="0.000" class="geometry" stroke-dasharray="none" stroke="#F46D43" id="img-9f860659-17">
        <path fill="none" d="M21.98,64.46 L 22.33 67.57 22.68 65.49 23.03 64.16 23.38 65.94 23.73 66.83 24.08 67.42 24.42 65.79 24.77 67.86 25.12 68.01 25.47 66.09 25.82 67.86 26.17 66.98 26.52 69.94 26.87 70.38 27.22 72.6 27.57 74.68 27.92 73.94 28.27 72.6 28.61 79.42 28.96 76.16 29.31 78.68 29.66 81.79 30.01 78.38 30.36 79.57 30.71 76.31 31.06 74.68 31.41 72.01 31.76 70.38 32.11 69.49 32.45 69.94 32.8 70.38 33.15 72.16 33.5 74.23 33.85 74.97 34.2 73.34 34.55 71.86 34.9 73.94 35.25 71.72 35.6 68.75 35.95 71.27 36.3 73.94 36.64 71.72 36.99 69.05 37.34 69.2 37.69 71.86 38.04 73.05 38.39 72.16 38.74 74.97 39.09 74.38 39.44 77.49 39.79 82.97 40.14 82.97 40.49 83.27 40.83 84.16 41.18 86.53 41.53 88.45 41.88 86.38 42.23 88.16 42.58 89.94 42.93 90.53 43.28 89.49 43.63 92.6 43.98 93.19 44.33 96.45 44.67 96.01 45.02 96.6 45.37 94.97 45.72 97.05 46.07 97.64 46.42 96.9 46.77 93.93 47.12 96.75 47.47 94.08 47.82 92.16 48.17 93.79 48.52 96.6 48.86 95.42 49.21 95.42 49.56 95.71 49.91 94.08 50.26 93.79 50.61 96.45 50.96 97.64 51.31 96.16 51.66 96.6 52.01 94.97 52.36 95.56 52.7 94.08 53.05 96.3 53.4 95.27 53.75 95.42 54.1 94.82 54.45 96.6 54.8 96.6 55.15 94.82 55.5 95.27 55.85 88.6 56.2 93.79 56.55 96.3 56.89 96.75 57.24 98.53 57.59 97.19 57.94 95.42 58.29 94.38 58.64 97.93 58.99 96.45 59.34 97.49 59.69 93.05 60.04 93.34 60.39 87.71 60.73 89.05 61.08 89.79 61.43 89.79 61.78 88.45 62.13 86.97 62.48 85.34 62.83 85.64 63.18 82.38 63.53 81.34 63.88 82.82 64.23 85.34 64.58 82.23 64.92 81.94 65.27 81.94 65.62 80.6 65.97 79.57 66.32 77.79 66.67 81.79 67.02 81.2 67.37 78.53 67.72 78.08 68.07 77.79 68.42 76.9 68.77 75.12 69.11 76.6 69.46 76.6 69.81 74.97 70.16 74.53 70.51 74.53 70.86 75.42 71.21 75.27 71.56 74.38 71.91 74.83 72.26 73.05 72.61 72.75 72.95 73.64 73.3 75.12 73.65 73.79 74 77.49 74.35 79.42 74.7 75.57 75.05 77.49 75.4 76.75 75.75 76.46 76.1 76.01 76.45 77.64 76.8 80.45 77.14 79.42 77.49 78.08 77.84 81.34 78.19 85.19 78.54 84.31 78.89 86.53 79.24 88.6 79.59 88.16 79.94 84.01 80.29 86.08 80.64 83.57 80.98 80.45 81.33 79.71 81.68 78.97 82.03 81.34 82.38 79.57 82.73 75.86 83.08 76.16 83.43 79.12 83.78 77.34 84.13 76.6 84.48 77.05 84.83 75.57 85.17 77.79 85.52 77.64 85.87 74.68 86.22 77.64 86.57 82.38 86.92 81.49 87.27 81.94 87.62 84.01 87.97 84.6 88.32 84.75 88.67 83.27 89.02 76.01 89.36 75.71 89.71 73.79 90.06 74.83 90.41 72.01 90.76 71.57 91.11 69.64 91.46 72.16 91.81 68.9 92.16 65.64 92.51 67.86 92.86 66.98 93.2 66.98 93.55 68.9 93.9 66.83 94.25 67.57 94.6 69.05 94.95 70.83 95.3 68.16 95.65 68.46 96 67.72 96.35 66.53 96.7 67.27 97.05 63.57 97.39 64.61 97.74 64.31 98.09 66.53 98.44 63.57 98.79 64.31 99.14 62.53 99.49 59.12 99.84 59.57 100.19 58.68 100.54 58.68 100.89 60.9 101.23 58.98 101.58 58.09 101.93 57.35 102.28 60.31 102.63 63.42 102.98 65.79 103.33 65.94 103.68 66.98 104.03 65.94 104.38 65.35 104.73 66.83 105.08 64.9 105.42 63.86 105.77 60.01 106.12 62.38 106.47 63.86 106.82 61.94 107.17 65.49 107.52 68.31 107.87 73.34 108.22 72.75 108.57 71.86 108.92 72.6 109.26 71.86 109.61 68.6 109.96 70.83 110.31 69.35 110.66 66.83 111.01 65.79 111.36 60.75 111.71 57.35 112.06 57.79 112.41 58.38 112.76 58.83 113.11 59.12 113.45 59.72 113.8 61.2 114.15 63.42 114.5 60.9 114.85 57.35 115.2 58.24 115.55 56.61 115.9 56.46 116.25 59.27 116.6 58.38 116.95 60.61 117.3 60.46 117.64 57.79 117.99 56.75 118.34 55.27 118.69 55.42 119.04 50.24 119.39 49.64 119.74 51.27 120.09 50.24 120.44 52.61 120.79 58.24 121.14 59.27 121.48 60.01 121.83 61.2 122.18 62.68 122.53 61.94 122.88 59.72 123.23 60.9 123.58 61.79 123.93 62.68 124.28 62.38 124.63 59.12 124.98 59.42 125.33 60.61 125.67 62.53 126.02 59.86 126.37 60.31 126.72 58.53 127.07 59.12 127.42 59.72 127.77 61.35 128.12 63.12 128.47 60.9 128.82 58.98 129.17 58.24 129.51 59.86 129.86 56.16 130.21 56.61 130.56 59.12 130.91 59.86 131.26 63.42 131.61 66.68 131.96 64.01 132.31 66.53 132.66 69.2 133.01 69.2 133.36 68.46 133.7 69.49 134.05 70.38 134.4 70.09 134.75 70.53 135.1 73.34 135.45 73.79 135.8 77.05 136.15 79.57 136.5 76.46 136.85 74.97 137.2 77.34 137.55 77.64 137.89 73.79 138.24 73.79 138.59 76.9 138.94 77.05 139.29 76.16 139.64 75.57 139.99 70.83 140.34 69.2 140.69 71.12 141.04 72.46 141.39 73.64 141.73 70.68 142.08 69.79 142.43 67.86 142.78 63.86 143.13 65.05 143.48 64.75 143.83 64.16 144.18 60.9 144.53 58.83 144.88 62.53 145.23 64.01 145.58 65.05 145.92 60.16 146.27 61.05 146.62 59.86 146.97 61.79 147.32 59.42 147.67 60.31 148.02 58.38 148.37 56.75 148.72 57.05 149.07 58.38 149.42 60.31 149.76 61.79 150.11 59.72 150.46 57.05 150.81 59.42 151.16 57.94 151.51 54.09 151.86 57.05 152.21 58.09 152.56 57.79 152.91 56.61 153.26 54.83 153.61 53.2 153.95 49.94 154.3 49.35 154.65 50.38 155 49.64 155.35 45.64 155.7 48.61 156.05 49.5 156.4 48.31 156.75 50.09 157.1 49.64 157.45 48.76 157.79 47.27 158.14 45.94 158.49 44.31 158.84 42.98 159.19 44.46 159.54 44.16 159.89 44.76 160.24 47.87 160.59 51.27 160.94 54.24 161.29 54.24 161.64 51.87 161.98 52.61 162.33 50.83 162.68 49.79 163.03 49.79 163.38 50.98 163.73 50.38 164.08 52.16 164.43 52.61 164.78 49.64 165.13 47.13 165.48 44.76 165.83 46.83 166.17 47.13 166.52 46.83 166.87 48.61 167.22 47.72 167.57 45.94 167.92 48.01 168.27 47.13 168.62 44.61 168.97 49.05 169.32 50.53 169.67 45.94 170.01 45.35 170.36 42.83 170.71 45.05 171.06 50.24 171.41 50.98 171.76 53.35 172.11 49.5 172.46 49.94 172.81 46.09 173.16 47.72 173.51 48.31 173.86 47.42 174.2 48.31 174.55 44.9 174.9 45.35 175.25 47.57 175.6 49.64 175.95 50.38 176.3 52.46 176.65 51.13 177 46.09 177.35 42.39 177.7 41.79 178.04 46.83 178.39 49.2 178.74 51.57 179.09 50.38 179.44 54.38 179.79 57.49 180.14 58.38 180.49 59.27 180.84 62.23 181.19 59.42 181.54 60.75 181.89 59.27 182.23 59.12 182.58 55.42 182.93 59.12 183.28 56.31 183.63 58.38 183.98 57.49 184.33 59.12 184.68 60.61 185.03 63.27 185.38 61.94 185.73 63.27 186.08 62.38 186.42 62.23 186.77 58.68 187.12 56.9 187.47 57.49 187.82 57.79 188.17 54.68 188.52 57.94 188.87 59.57 189.22 60.01 189.57 63.12 189.92 61.49 190.26 61.49 190.61 61.64 190.96 58.68 191.31 62.23 191.66 63.42 192.01 63.42 192.36 65.05 192.71 63.86 193.06 65.35 193.41 65.49 193.76 65.05 194.11 66.09 194.45 68.6 194.8 65.49 195.15 61.79 195.5 61.79 195.85 64.61 196.2 63.86"/>
      </g>
      <g stroke-width="0.3" fill="#000000" fill-opacity="0.000" class="geometry" stroke-dasharray="none" stroke="#D53E4F" id="img-9f860659-18">
        <path fill="none" d="M21.98,64.46 L 22.33 65.64 22.68 63.42 23.03 62.38 23.38 61.94 23.73 64.01 24.08 62.53 24.42 63.42 24.77 64.9 25.12 68.01 25.47 69.79 25.82 66.83 26.17 66.83 26.52 67.86 26.87 65.64 27.22 64.75 27.57 66.23 27.92 66.68 28.27 67.12 28.61 66.09 28.96 64.61 29.31 66.23 29.66 68.6 30.01 68.9 30.36 69.79 30.71 69.64 31.06 62.23 31.41 63.57 31.76 66.23 32.11 66.53 32.45 66.23 32.8 65.79 33.15 65.05 33.5 62.53 33.85 65.05 34.2 64.9 34.55 62.09 34.9 64.61 35.25 63.12 35.6 65.35 35.95 64.01 36.3 62.68 36.64 59.86 36.99 57.2 37.34 59.42 37.69 58.38 38.04 60.61 38.39 61.94 38.74 60.31 39.09 61.2 39.44 62.68 39.79 60.75 40.14 64.46 40.49 61.64 40.83 65.94 41.18 68.16 41.53 68.46 41.88 69.79 42.23 69.94 42.58 70.23 42.93 74.53 43.28 78.23 43.63 79.12 43.98 82.97 44.33 82.08 44.67 85.34 45.02 82.97 45.37 85.19 45.72 81.79 46.07 78.08 46.42 80.01 46.77 77.64 47.12 77.05 47.47 77.05 47.82 75.86 48.17 75.27 48.52 76.9 48.86 76.16 49.21 74.83 49.56 74.38 49.91 72.31 50.26 73.79 50.61 72.9 50.96 73.94 51.31 75.27 51.66 78.23 52.01 75.27 52.36 75.42 52.7 75.71 53.05 76.46 53.4 73.34 53.75 74.09 54.1 70.97 54.45 70.83 54.8 72.01 55.15 72.31 55.5 73.34 55.85 75.86 56.2 72.75 56.55 77.2 56.89 81.79 57.24 82.23 57.59 82.08 57.94 81.2 58.29 83.71 58.64 82.68 58.99 82.68 59.34 84.9 59.69 85.19 60.04 86.82 60.39 86.53 60.73 88.9 61.08 91.12 61.43 92.45 61.78 93.93 62.13 92.16 62.48 90.97 62.83 92.45 63.18 94.08 63.53 94.68 63.88 96.9 64.23 95.86 64.58 96.01 64.92 98.67 65.27 96.75 65.62 98.08 65.97 95.71 66.32 94.23 66.67 98.38 67.02 98.97 67.37 99.27 67.72 97.05 68.07 97.34 68.42 100.01 68.77 99.12 69.11 99.86 69.46 96.45 69.81 96.6 70.16 96.01 70.51 93.64 70.86 89.49 71.21 86.38 71.56 85.64 71.91 86.97 72.26 91.71 72.61 90.68 72.95 86.82 73.3 85.64 73.65 85.94 74 88.45 74.35 86.53 74.7 86.53 75.05 87.12 75.4 87.86 75.75 89.79 76.1 86.68 76.45 85.34 76.8 81.79 77.14 82.68 77.49 83.71 77.84 85.49 78.19 87.71 78.54 90.53 78.89 89.05 79.24 85.49 79.59 88.16 79.94 80.45 80.29 73.79 80.64 71.42 80.98 71.86 81.33 69.94 81.68 69.2 82.03 74.53 82.38 73.79 82.73 71.57 83.08 66.98 83.43 67.27 83.78 66.53 84.13 65.94 84.48 66.23 84.83 70.09 85.17 73.94 85.52 74.97 85.87 73.2 86.22 72.75 86.57 75.86 86.92 76.9 87.27 76.9 87.62 78.53 87.97 76.31 88.32 74.68 88.67 72.6 89.02 74.38 89.36 72.75 89.71 75.27 90.06 74.97 90.41 72.01 90.76 74.23 91.11 73.64 91.46 72.01 91.81 73.94 92.16 71.72 92.51 74.09 92.86 73.94 93.2 71.27 93.55 73.2 93.9 71.27 94.25 71.12 94.6 69.79 94.95 68.16 95.3 68.6 95.65 68.9 96 68.31 96.35 71.72 96.7 69.94 97.05 68.01 97.39 71.72 97.74 72.31 98.09 73.64 98.44 72.01 98.79 75.57 99.14 76.01 99.49 80.75 99.84 77.2 100.19 81.49 100.54 80.01 100.89 79.42 101.23 83.27 101.58 87.27 101.93 86.82 102.28 87.27 102.63 89.19 102.98 88.9 103.33 87.86 103.68 86.08 104.03 88.45 104.38 89.05 104.73 87.12 105.08 84.9 105.42 83.12 105.77 81.64 106.12 84.6 106.47 86.68 106.82 87.42 107.17 90.08 107.52 88.75 107.87 85.49 108.22 84.16 108.57 83.57 108.92 85.49 109.26 90.53 109.61 89.34 109.96 90.08 110.31 89.34 110.66 90.08 111.01 89.34 111.36 91.27 111.71 95.71 112.06 96.3 112.41 92.75 112.76 94.38 113.11 93.64 113.45 94.08 113.8 95.56 114.15 95.27 114.5 95.42 114.85 96.75 115.2 95.71 115.55 95.56 115.9 94.68 116.25 93.93 116.6 88.31 116.95 87.71 117.3 85.64 117.64 86.23 117.99 88.6 118.34 89.19 118.69 89.34 119.04 89.34 119.39 89.05 119.74 86.53 120.09 87.71 120.44 88.45 120.79 85.19 121.14 84.45 121.48 82.82 121.83 84.75 122.18 81.05 122.53 79.86 122.88 82.97 123.23 80.45 123.58 82.08 123.93 83.57 124.28 80.31 124.63 77.05 124.98 73.94 125.33 70.97 125.67 69.94 126.02 71.27 126.37 74.23 126.72 72.75 127.07 69.64 127.42 68.16 127.77 64.46 128.12 61.79 128.47 62.68 128.82 61.64 129.17 56.9 129.51 59.72 129.86 60.01 130.21 57.94 130.56 57.05 130.91 62.23 131.26 63.42 131.61 66.38 131.96 66.38 132.31 65.05 132.66 62.09 133.01 59.12 133.36 59.12 133.7 54.68 134.05 53.2 134.4 54.83 134.75 54.09 135.1 50.98 135.45 53.35 135.8 52.61 136.15 56.31 136.5 58.38 136.85 61.35 137.2 55.12 137.55 54.53 137.89 54.24 138.24 53.94 138.59 53.79 138.94 54.53 139.29 54.53 139.64 52.61 139.99 50.09 140.34 52.9 140.69 55.12 141.04 54.83 141.39 53.94 141.73 56.46 142.08 56.9 142.43 58.68 142.78 59.27 143.13 60.31 143.48 59.57 143.83 56.9 144.18 55.42 144.53 56.61 144.88 58.24 145.23 54.68 145.58 58.53 145.92 60.46 146.27 61.79 146.62 59.86 146.97 60.31 147.32 61.64 147.67 61.05 148.02 58.68 148.37 60.75 148.72 61.2 149.07 60.9 149.42 61.49 149.76 57.94 150.11 59.12 150.46 57.05 150.81 55.42 151.16 55.42 151.51 52.9 151.86 50.24 152.21 52.46 152.56 53.79 152.91 56.61 153.26 51.72 153.61 53.05 153.95 55.87 154.3 55.27 154.65 54.24 155 55.12 155.35 55.72 155.7 51.13 156.05 49.2 156.4 46.39 156.75 47.72 157.1 47.72 157.45 44.76 157.79 48.16 158.14 46.98 158.49 47.27 158.84 44.31 159.19 43.72 159.54 46.53 159.89 47.57 160.24 46.24 160.59 44.9 160.94 47.27 161.29 48.61 161.64 47.57 161.98 49.2 162.33 46.53 162.68 44.9 163.03 47.72 163.38 45.64 163.73 46.68 164.08 43.72 164.43 43.42 164.78 42.24 165.13 40.31 165.48 38.68 165.83 40.16 166.17 39.42 166.52 42.98 166.87 45.05 167.22 44.76 167.57 46.83 167.92 44.46 168.27 44.46 168.62 42.98 168.97 44.31 169.32 48.01 169.67 49.05 170.01 48.46 170.36 47.27 170.71 45.2 171.06 46.68 171.41 46.24 171.76 48.76 172.11 49.5 172.46 46.24 172.81 45.2 173.16 45.2 173.51 45.64 173.86 47.27 174.2 48.31 174.55 50.68 174.9 49.79 175.25 50.24 175.6 50.24 175.95 48.76 176.3 45.05 176.65 44.46 177 46.39 177.35 44.31 177.7 42.98 178.04 43.72 178.39 42.09 178.74 43.27 179.09 44.31 179.44 42.68 179.79 42.24 180.14 41.05 180.49 40.9 180.84 40.46 181.19 38.24 181.54 33.05 181.89 34.24 182.23 31.42 182.58 28.91 182.93 27.42 183.28 23.72 183.63 22.83 183.98 22.83 184.33 24.46 184.68 24.31 185.03 26.09 185.38 26.09 185.73 27.13 186.08 28.31 186.42 28.61 186.77 29.94 187.12 32.31 187.47 31.28 187.82 33.35 188.17 36.46 188.52 37.2 188.87 36.76 189.22 39.72 189.57 39.13 189.92 42.09 190.26 41.35 190.61 40.02 190.96 38.09 191.31 35.42 191.66 37.5 192.01 38.39 192.36 32.46 192.71 31.42 193.06 29.65 193.41 28.61 193.76 29.2 194.11 27.13 194.45 30.54 194.8 31.28 195.15 28.61 195.5 30.98 195.85 29.05 196.2 25.8"/>
      </g>
      <g stroke-width="0.3" fill="#000000" fill-opacity="0.000" class="geometry" stroke-dasharray="none" stroke="#9E0142" id="img-9f860659-19">
        <path fill="none" d="M21.98,64.46 L 22.33 67.27 22.68 67.42 23.03 70.09 23.38 70.83 23.73 70.53 24.08 75.12 24.42 76.75 24.77 74.53 25.12 77.34 25.47 76.6 25.82 75.86 26.17 77.79 26.52 77.64 26.87 81.2 27.22 86.08 27.57 85.49 27.92 87.42 28.27 88.01 28.61 90.08 28.96 87.86 29.31 87.71 29.66 89.64 30.01 93.19 30.36 90.08 30.71 89.05 31.06 93.05 31.41 93.49 31.76 92.16 32.11 90.68 32.45 93.05 32.8 92.9 33.15 92.16 33.5 96.01 33.85 96.3 34.2 98.82 34.55 94.53 34.9 90.97 35.25 92.01 35.6 91.56 35.95 92.16 36.3 89.94 36.64 87.86 36.99 89.49 37.34 86.08 37.69 85.05 38.04 86.23 38.39 84.45 38.74 84.31 39.09 81.79 39.44 81.79 39.79 77.79 40.14 78.38 40.49 80.6 40.83 78.83 41.18 76.75 41.53 81.05 41.88 79.86 42.23 80.01 42.58 81.49 42.93 81.05 43.28 83.42 43.63 83.57 43.98 82.68 44.33 86.08 44.67 87.71 45.02 84.75 45.37 82.53 45.72 77.34 46.07 77.94 46.42 75.71 46.77 72.75 47.12 72.16 47.47 67.72 47.82 68.01 48.17 68.31 48.52 72.75 48.86 77.79 49.21 77.79 49.56 76.9 49.91 75.27 50.26 75.12 50.61 75.42 50.96 76.01 51.31 77.05 51.66 79.86 52.01 77.79 52.36 81.34 52.7 83.12 53.05 84.45 53.4 86.82 53.75 85.34 54.1 85.49 54.45 88.16 54.8 88.75 55.15 85.49 55.5 89.64 55.85 89.34 56.2 89.49 56.55 86.82 56.89 89.34 57.24 89.19 57.59 91.56 57.94 93.05 58.29 92.6 58.64 91.12 58.99 89.19 59.34 85.49 59.69 87.12 60.04 91.86 60.39 91.56 60.73 87.57 61.08 86.53 61.43 85.94 61.78 87.57 62.13 84.31 62.48 85.79 62.83 84.01 63.18 81.64 63.53 83.86 63.88 80.75 64.23 81.2 64.58 78.38 64.92 79.42 65.27 76.9 65.62 78.23 65.97 78.23 66.32 79.57 66.67 82.08 67.02 86.53 67.37 83.71 67.72 80.31 68.07 79.27 68.42 80.6 68.77 83.71 69.11 82.68 69.46 81.2 69.81 81.49 70.16 79.12 70.51 78.83 70.86 75.57 71.21 75.12 71.56 78.08 71.91 75.57 72.26 74.09 72.61 73.2 72.95 69.64 73.3 70.09 73.65 68.6 74 71.12 74.35 67.12 74.7 66.38 75.05 63.12 75.4 61.94 75.75 59.86 76.1 58.83 76.45 58.09 76.8 62.38 77.14 60.01 77.49 61.79 77.84 63.12 78.19 65.94 78.54 67.12 78.89 67.57 79.24 69.49 79.59 69.2 79.94 65.49 80.29 67.42 80.64 64.9 80.98 63.42 81.33 67.27 81.68 64.75 82.03 62.09 82.38 62.38 82.73 61.49 83.08 60.9 83.43 59.86 83.78 57.64 84.13 55.27 84.48 57.64 84.83 53.94 85.17 51.42 85.52 53.79 85.87 53.05 86.22 52.31 86.57 52.01 86.92 54.83 87.27 55.12 87.62 54.38 87.97 54.24 88.32 54.83 88.67 56.46 89.02 54.38 89.36 50.98 89.71 52.31 90.06 50.98 90.41 50.38 90.76 50.38 91.11 52.9 91.46 55.27 91.81 57.05 92.16 57.64 92.51 58.09 92.86 61.94 93.2 61.79 93.55 63.27 93.9 64.16 94.25 64.9 94.6 62.98 94.95 60.31 95.3 60.9 95.65 63.57 96 61.49 96.35 61.35 96.7 57.94 97.05 58.83 97.39 57.94 97.74 54.83 98.09 54.24 98.44 52.75 98.79 52.61 99.14 51.57 99.49 53.64 99.84 53.35 100.19 52.75 100.54 50.09 100.89 50.38 101.23 54.38 101.58 54.09 101.93 53.35 102.28 54.38 102.63 51.87 102.98 48.31 103.33 46.68 103.68 44.02 104.03 44.31 104.38 43.72 104.73 44.16 105.08 40.76 105.42 40.46 105.77 36.02 106.12 36.02 106.47 36.76 106.82 34.98 107.17 34.83 107.52 28.46 107.87 27.72 108.22 25.94 108.57 28.02 108.92 29.35 109.26 28.91 109.61 31.42 109.96 28.17 110.31 30.54 110.66 30.98 111.01 34.09 111.36 34.68 111.71 34.24 112.06 34.09 112.41 36.31 112.76 36.16 113.11 36.9 113.45 37.35 113.8 37.35 114.15 38.09 114.5 40.02 114.85 37.35 115.2 35.42 115.55 33.94 115.9 34.53 116.25 33.94 116.6 33.65 116.95 33.5 117.3 31.42 117.64 33.35 117.99 33.35 118.34 33.5 118.69 34.68 119.04 35.13 119.39 36.46 119.74 39.13 120.09 41.05 120.44 42.53 120.79 41.2 121.14 43.87 121.48 44.46 121.83 45.35 122.18 46.68 122.53 44.46 122.88 44.16 123.23 44.9 123.58 43.87 123.93 39.57 124.28 40.9 124.63 39.57 124.98 40.9 125.33 41.05 125.67 40.61 126.02 40.46 126.37 39.87 126.72 39.27 127.07 39.72 127.42 41.64 127.77 41.35 128.12 42.39 128.47 38.53 128.82 40.46 129.17 37.2 129.51 37.35 129.86 35.28 130.21 33.05 130.56 32.16 130.91 32.91 131.26 31.13 131.61 33.05 131.96 31.57 132.31 32.91 132.66 32.31 133.01 30.68 133.36 27.87 133.7 26.54 134.05 26.09 134.4 27.13 134.75 24.17 135.1 23.28 135.45 21.65 135.8 22.24 136.15 23.87 136.5 24.02 136.85 23.72 137.2 24.91 137.55 25.65 137.89 23.87 138.24 25.2 138.59 26.24 138.94 26.83 139.29 26.09 139.64 28.91 139.99 25.5 140.34 26.39 140.69 27.87 141.04 26.68 141.39 26.68 141.73 23.13 142.08 23.13 142.43 24.91 142.78 26.83 143.13 27.28 143.48 28.46 143.83 29.79 144.18 30.98 144.53 31.72 144.88 30.39 145.23 30.54 145.58 30.83 145.92 30.09 146.27 28.17 146.62 28.61 146.97 28.61 147.32 32.61 147.67 33.5 148.02 33.05 148.37 34.39 148.72 33.2 149.07 30.68 149.42 29.65 149.76 29.05 150.11 31.57 150.46 34.24 150.81 32.91 151.16 32.76 151.51 32.61 151.86 26.68 152.21 28.02 152.56 30.54 152.91 28.17 153.26 31.57 153.61 32.46 153.95 31.42 154.3 29.5 154.65 27.42 155 28.76 155.35 26.24 155.7 24.02 156.05 22.98 156.4 20.31 156.75 19.72 157.1 22.54 157.45 25.2 157.79 26.54 158.14 25.5 158.49 27.28 158.84 27.57 159.19 27.57 159.54 27.28 159.89 27.28 160.24 27.13 160.59 29.65 160.94 30.54 161.29 31.42 161.64 32.91 161.98 31.87 162.33 33.94 162.68 33.5 163.03 34.09 163.38 33.05 163.73 31.42 164.08 33.2 164.43 32.46 164.78 35.72 165.13 34.53 165.48 32.76 165.83 30.98 166.17 32.16 166.52 32.46 166.87 30.24 167.22 30.24 167.57 30.98 167.92 33.35 168.27 30.98 168.62 30.24 168.97 30.68 169.32 29.5 169.67 29.79 170.01 28.61 170.36 30.24 170.71 28.31 171.06 27.28 171.41 26.54 171.76 27.72 172.11 26.24 172.46 25.05 172.81 23.13 173.16 23.13 173.51 22.98 173.86 23.72 174.2 23.72 174.55 25.05 174.9 24.31 175.25 25.2 175.6 26.24 175.95 24.91 176.3 24.17 176.65 27.72 177 29.94 177.35 32.02 177.7 34.68 178.04 35.28 178.39 35.72 178.74 35.42 179.09 36.46 179.44 36.76 179.79 40.76 180.14 40.46 180.49 40.16 180.84 38.68 181.19 36.61 181.54 36.02 181.89 34.53 182.23 33.94 182.58 36.46 182.93 41.79 183.28 41.2 183.63 41.35 183.98 41.05 184.33 42.98 184.68 43.13 185.03 46.53 185.38 47.57 185.73 49.64 186.08 51.27 186.42 51.27 186.77 50.09 187.12 50.38 187.47 53.05 187.82 55.42 188.17 58.83 188.52 58.53 188.87 58.09 189.22 54.53 189.57 55.87 189.92 54.09 190.26 48.76 190.61 48.9 190.96 47.72 191.31 48.01 191.66 49.35 192.01 50.09 192.36 47.13 192.71 45.79 193.06 44.16 193.41 44.31 193.76 45.05 194.11 44.61 194.45 42.98 194.8 40.9 195.15 43.72 195.5 41.2 195.85 40.31 196.2 38.68"/>
      </g>
    </g>
  </g>
</g>
  <g class="guide ylabels" font-size="2.82" font-family="'PT Sans Caption','Helvetica Neue','Helvetica',sans-serif" fill="#000000" id="img-9f860659-20">
    <text x="18.63" y="131.11" text-anchor="end" dy="0.35em">0</text>
    <text x="18.63" y="101.49" text-anchor="end" dy="0.35em">200</text>
    <text x="18.63" y="71.86" text-anchor="end" dy="0.35em">400</text>
    <text x="18.63" y="42.24" text-anchor="end" dy="0.35em">600</text>
    <text x="18.63" y="12.61" text-anchor="end" dy="0.35em">800</text>
  </g>
  <g font-size="3.88" font-family="'PT Sans','Helvetica Neue','Helvetica',sans-serif" fill="#000000" stroke="#000000" stroke-opacity="0.000" id="img-9f860659-21">
    <text x="8.81" y="69.86" text-anchor="middle" dy="0.35em" transform="rotate(-90, 8.81, 71.86)">population size</text>
  </g>
  <g font-size="3.88" font-family="'PT Sans','Helvetica Neue','Helvetica',sans-serif" fill="#000000" stroke="#000000" stroke-opacity="0.000" id="img-9f860659-22">
    <text x="108.92" y="5" text-anchor="middle" dy="0.6em">genetic drift with mutationrate  = 0.001 </text>
  </g>
</g>
<defs>
  <clipPath id="img-9f860659-4">
  <path d="M19.63,10.61 L 198.2 10.61 198.2 133.11 19.63 133.11" />
</clipPath>
</defs>
</svg>
