<?xml version="1.0" encoding="UTF-8"?>
<svg xmlns="http://www.w3.org/2000/svg"
     xmlns:xlink="http://www.w3.org/1999/xlink"
     xmlns:gadfly="http://www.gadflyjl.org/ns"
     version="1.2"
     width="203.2mm" height="152.4mm" viewBox="0 0 203.2 152.4"
     stroke="none"
     fill="#000000"
     stroke-width="0.3"
     font-size="3.88"
>
<g class="plotroot xscalable yscalable" id="img-8bda9c17-1">
  <g font-size="3.88" font-family="'PT Sans','Helvetica Neue','Helvetica',sans-serif" fill="#000000" stroke="#000000" stroke-opacity="0.000" id="img-8bda9c17-2">
    <text x="108.92" y="140.79" text-anchor="middle" dy="0.6em">population size</text>
  </g>
  <g class="guide xlabels" font-size="2.82" font-family="'PT Sans Caption','Helvetica Neue','Helvetica',sans-serif" fill="#000000" id="img-8bda9c17-3">
    <text x="21.63" y="134.11" text-anchor="middle" dy="0.6em">0</text>
    <text x="65.27" y="134.11" text-anchor="middle" dy="0.6em">250</text>
    <text x="108.92" y="134.11" text-anchor="middle" dy="0.6em">500</text>
    <text x="152.56" y="134.11" text-anchor="middle" dy="0.6em">750</text>
    <text x="196.2" y="134.11" text-anchor="middle" dy="0.6em">1000</text>
  </g>
<g clip-path="url(#img-8bda9c17-4)">
  <g id="img-8bda9c17-5">
    <g pointer-events="visible" opacity="1" fill="#FFFFFF" stroke="#000000" stroke-opacity="0.000" class="guide background" id="img-8bda9c17-6">
      <rect x="19.63" y="10.61" width="178.57" height="122.5"/>
    </g>
    <g class="guide ygridlines xfixed" stroke-dasharray="0.5,0.5" stroke-width="0.2" stroke="#808080" id="img-8bda9c17-7">
      <path fill="none" d="M19.63,131.12 L 198.2 131.12"/>
      <path fill="none" d="M19.63,107.41 L 198.2 107.41"/>
      <path fill="none" d="M19.63,83.71 L 198.2 83.71"/>
      <path fill="none" d="M19.63,60.01 L 198.2 60.01"/>
      <path fill="none" d="M19.63,36.31 L 198.2 36.31"/>
      <path fill="none" d="M19.63,12.61 L 198.2 12.61"/>
    </g>
    <g class="guide xgridlines yfixed" stroke-dasharray="0.5,0.5" stroke-width="0.2" stroke="#808080" id="img-8bda9c17-8">
      <path fill="none" d="M21.63,10.61 L 21.63 133.11"/>
      <path fill="none" d="M65.27,10.61 L 65.27 133.11"/>
      <path fill="none" d="M108.92,10.61 L 108.92 133.11"/>
      <path fill="none" d="M152.56,10.61 L 152.56 133.11"/>
      <path fill="none" d="M196.2,10.61 L 196.2 133.11"/>
    </g>
    <g class="plotpanel" id="img-8bda9c17-9">
      <g class="geometry color_RGB{Float32}(0.0f0,0.74736935f0,1.0f0)" stroke-width="0.3" stroke="#0096D4" id="img-8bda9c17-10">
        <path fill="none" d="M37.59,96.36 L 40.59 96.36"/>
        <path fill="none" d="M55.05,124.78 L 58.05 124.78"/>
        <path fill="none" d="M72.5,123.34 L 75.5 123.34"/>
        <path fill="none" d="M89.96,123.42 L 92.96 123.42"/>
        <path fill="none" d="M107.42,121.07 L 110.42 121.07"/>
        <path fill="none" d="M124.87,121.38 L 127.87 121.38"/>
        <path fill="none" d="M142.33,121.88 L 145.33 121.88"/>
        <path fill="none" d="M159.79,121.89 L 162.79 121.89"/>
        <path fill="none" d="M177.24,121.89 L 180.24 121.89"/>
        <path fill="none" d="M194.7,121.89 L 197.7 121.89"/>
        <path fill="none" d="M39.09,20.82 L 39.09 96.36"/>
        <path fill="none" d="M56.55,27.48 L 56.55 124.78"/>
        <path fill="none" d="M74,27.97 L 74 123.34"/>
        <path fill="none" d="M91.46,28.84 L 91.46 123.42"/>
        <path fill="none" d="M108.92,30.25 L 108.92 121.07"/>
        <path fill="none" d="M126.37,30.88 L 126.37 121.38"/>
        <path fill="none" d="M143.83,31.33 L 143.83 121.88"/>
        <path fill="none" d="M161.29,31.32 L 161.29 121.89"/>
        <path fill="none" d="M178.74,31.32 L 178.74 121.89"/>
        <path fill="none" d="M196.2,31.32 L 196.2 121.89"/>
        <path fill="none" d="M37.59,20.82 L 40.59 20.82"/>
        <path fill="none" d="M55.05,27.48 L 58.05 27.48"/>
        <path fill="none" d="M72.5,27.97 L 75.5 27.97"/>
        <path fill="none" d="M89.96,28.84 L 92.96 28.84"/>
        <path fill="none" d="M107.42,30.25 L 110.42 30.25"/>
        <path fill="none" d="M124.87,30.88 L 127.87 30.88"/>
        <path fill="none" d="M142.33,31.33 L 145.33 31.33"/>
        <path fill="none" d="M159.79,31.32 L 162.79 31.32"/>
        <path fill="none" d="M177.24,31.32 L 180.24 31.32"/>
        <path fill="none" d="M194.7,31.32 L 197.7 31.32"/>
      </g>
      <g class="geometry" id="img-8bda9c17-11">
        <g class="color_RGBA{Float32}(0.0f0,0.74736935f0,1.0f0,1.0f0)" stroke="#FFFFFF" stroke-width="0.3" fill="#00BFFF" id="img-8bda9c17-12">
          <use xlink:href="#img-8bda9c17-13" x="39.09" y="58.59"/>
          <use xlink:href="#img-8bda9c17-13" x="56.55" y="76.13"/>
          <use xlink:href="#img-8bda9c17-13" x="74" y="75.66"/>
          <use xlink:href="#img-8bda9c17-13" x="91.46" y="76.13"/>
          <use xlink:href="#img-8bda9c17-13" x="108.92" y="75.66"/>
          <use xlink:href="#img-8bda9c17-13" x="126.37" y="76.13"/>
          <use xlink:href="#img-8bda9c17-13" x="143.83" y="76.6"/>
          <use xlink:href="#img-8bda9c17-13" x="161.29" y="76.6"/>
          <use xlink:href="#img-8bda9c17-13" x="178.74" y="76.6"/>
          <use xlink:href="#img-8bda9c17-13" x="196.2" y="76.6"/>
        </g>
      </g>
    </g>
  </g>
</g>
  <g class="guide ylabels" font-size="2.82" font-family="'PT Sans Caption','Helvetica Neue','Helvetica',sans-serif" fill="#000000" id="img-8bda9c17-14">
    <text x="18.63" y="131.12" text-anchor="end" dy="0.35em">300</text>
    <text x="18.63" y="107.41" text-anchor="end" dy="0.35em">350</text>
    <text x="18.63" y="83.71" text-anchor="end" dy="0.35em">400</text>
    <text x="18.63" y="60.01" text-anchor="end" dy="0.35em">450</text>
    <text x="18.63" y="36.31" text-anchor="end" dy="0.35em">500</text>
    <text x="18.63" y="12.61" text-anchor="end" dy="0.35em">550</text>
  </g>
  <g font-size="3.88" font-family="'PT Sans','Helvetica Neue','Helvetica',sans-serif" fill="#000000" stroke="#000000" stroke-opacity="0.000" id="img-8bda9c17-15">
    <text x="8.81" y="69.86" text-anchor="middle" dy="0.35em" transform="rotate(-90, 8.81, 71.86)">generation number</text>
  </g>
  <g font-size="3.88" font-family="'PT Sans','Helvetica Neue','Helvetica',sans-serif" fill="#000000" stroke="#000000" stroke-opacity="0.000" id="img-8bda9c17-16">
    <text x="108.92" y="5" text-anchor="middle" dy="0.6em">meanvalue of generation for extinction/fixation depending on population size</text>
  </g>
</g>
<defs>
  <clipPath id="img-8bda9c17-4">
  <path d="M19.63,10.61 L 198.2 10.61 198.2 133.11 19.63 133.11" />
</clipPath>
  <g id="img-8bda9c17-13">
    <circle cx="0" cy="0" r="0.9"/>
  </g>
</defs>
</svg>
