<?xml version="1.0" encoding="UTF-8"?>
<svg xmlns="http://www.w3.org/2000/svg"
     xmlns:xlink="http://www.w3.org/1999/xlink"
     xmlns:gadfly="http://www.gadflyjl.org/ns"
     version="1.2"
     width="203.2mm" height="152.4mm" viewBox="0 0 203.2 152.4"
     stroke="none"
     fill="#000000"
     stroke-width="0.3"
     font-size="3.88"
>
<g class="plotroot xscalable yscalable" id="img-b464e210-1">
  <g font-size="3.88" font-family="'PT Sans','Helvetica Neue','Helvetica',sans-serif" fill="#000000" stroke="#000000" stroke-opacity="0.000" id="img-b464e210-2">
    <text x="109.47" y="140.79" text-anchor="middle" dy="0.6em">population size</text>
  </g>
  <g class="guide xlabels" font-size="2.82" font-family="'PT Sans Caption','Helvetica Neue','Helvetica',sans-serif" fill="#000000" id="img-b464e210-3">
    <text x="22.75" y="134.11" text-anchor="middle" dy="0.6em">0</text>
    <text x="66.11" y="134.11" text-anchor="middle" dy="0.6em">250</text>
    <text x="109.47" y="134.11" text-anchor="middle" dy="0.6em">500</text>
    <text x="152.84" y="134.11" text-anchor="middle" dy="0.6em">750</text>
    <text x="196.2" y="134.11" text-anchor="middle" dy="0.6em">1000</text>
  </g>
<g clip-path="url(#img-b464e210-4)">
  <g id="img-b464e210-5">
    <g pointer-events="visible" opacity="1" fill="#FFFFFF" stroke="#000000" stroke-opacity="0.000" class="guide background" id="img-b464e210-6">
      <rect x="20.75" y="10.61" width="177.45" height="122.5"/>
    </g>
    <g class="guide ygridlines xfixed" stroke-dasharray="0.5,0.5" stroke-width="0.2" stroke="#808080" id="img-b464e210-7">
      <path fill="none" d="M20.75,131.11 L 198.2 131.11"/>
      <path fill="none" d="M20.75,111.36 L 198.2 111.36"/>
      <path fill="none" d="M20.75,91.61 L 198.2 91.61"/>
      <path fill="none" d="M20.75,71.86 L 198.2 71.86"/>
      <path fill="none" d="M20.75,52.11 L 198.2 52.11"/>
      <path fill="none" d="M20.75,32.36 L 198.2 32.36"/>
      <path fill="none" d="M20.75,12.61 L 198.2 12.61"/>
    </g>
    <g class="guide xgridlines yfixed" stroke-dasharray="0.5,0.5" stroke-width="0.2" stroke="#808080" id="img-b464e210-8">
      <path fill="none" d="M22.75,10.61 L 22.75 133.11"/>
      <path fill="none" d="M66.11,10.61 L 66.11 133.11"/>
      <path fill="none" d="M109.47,10.61 L 109.47 133.11"/>
      <path fill="none" d="M152.84,10.61 L 152.84 133.11"/>
      <path fill="none" d="M196.2,10.61 L 196.2 133.11"/>
    </g>
    <g class="plotpanel" id="img-b464e210-9">
      <g class="geometry color_RGB{Float32}(0.0f0,0.74736935f0,1.0f0)" stroke-width="0.3" stroke="#0096D4" id="img-b464e210-10">
        <path fill="none" d="M38.59,113.63 L 41.59 113.63"/>
        <path fill="none" d="M55.94,93.92 L 58.94 93.92"/>
        <path fill="none" d="M73.28,86.76 L 76.28 86.76"/>
        <path fill="none" d="M90.63,80.19 L 93.63 80.19"/>
        <path fill="none" d="M107.97,75.32 L 110.97 75.32"/>
        <path fill="none" d="M125.32,72.8 L 128.32 72.8"/>
        <path fill="none" d="M142.66,69.96 L 145.66 69.96"/>
        <path fill="none" d="M160.01,69 L 163.01 69"/>
        <path fill="none" d="M177.35,67.41 L 180.35 67.41"/>
        <path fill="none" d="M194.7,66.14 L 197.7 66.14"/>
        <path fill="none" d="M40.09,52.21 L 40.09 113.63"/>
        <path fill="none" d="M57.44,46.25 L 57.44 93.92"/>
        <path fill="none" d="M74.78,38.79 L 74.78 86.76"/>
        <path fill="none" d="M92.13,35.1 L 92.13 80.19"/>
        <path fill="none" d="M109.47,30.09 L 109.47 75.32"/>
        <path fill="none" d="M126.82,29.84 L 126.82 72.8"/>
        <path fill="none" d="M144.16,27.94 L 144.16 69.96"/>
        <path fill="none" d="M161.51,28.9 L 161.51 69"/>
        <path fill="none" d="M178.85,26.94 L 178.85 67.41"/>
        <path fill="none" d="M196.2,25.05 L 196.2 66.14"/>
        <path fill="none" d="M38.59,52.21 L 41.59 52.21"/>
        <path fill="none" d="M55.94,46.25 L 58.94 46.25"/>
        <path fill="none" d="M73.28,38.79 L 76.28 38.79"/>
        <path fill="none" d="M90.63,35.1 L 93.63 35.1"/>
        <path fill="none" d="M107.97,30.09 L 110.97 30.09"/>
        <path fill="none" d="M125.32,29.84 L 128.32 29.84"/>
        <path fill="none" d="M142.66,27.94 L 145.66 27.94"/>
        <path fill="none" d="M160.01,28.9 L 163.01 28.9"/>
        <path fill="none" d="M177.35,26.94 L 180.35 26.94"/>
        <path fill="none" d="M194.7,25.05 L 197.7 25.05"/>
      </g>
      <g class="geometry" id="img-b464e210-11">
        <g class="color_RGBA{Float32}(0.0f0,0.74736935f0,1.0f0,1.0f0)" stroke="#FFFFFF" stroke-width="0.3" fill="#00BFFF" id="img-b464e210-12">
          <use xlink:href="#img-b464e210-13" x="40.09" y="82.92"/>
          <use xlink:href="#img-b464e210-13" x="57.44" y="70.09"/>
          <use xlink:href="#img-b464e210-13" x="74.78" y="62.78"/>
          <use xlink:href="#img-b464e210-13" x="92.13" y="57.64"/>
          <use xlink:href="#img-b464e210-13" x="109.47" y="52.71"/>
          <use xlink:href="#img-b464e210-13" x="126.82" y="51.32"/>
          <use xlink:href="#img-b464e210-13" x="144.16" y="48.95"/>
          <use xlink:href="#img-b464e210-13" x="161.51" y="48.95"/>
          <use xlink:href="#img-b464e210-13" x="178.85" y="47.18"/>
          <use xlink:href="#img-b464e210-13" x="196.2" y="45.6"/>
        </g>
      </g>
    </g>
  </g>
</g>
  <g class="guide ylabels" font-size="2.82" font-family="'PT Sans Caption','Helvetica Neue','Helvetica',sans-serif" fill="#000000" id="img-b464e210-14">
    <text x="19.74" y="131.11" text-anchor="end" dy="0.35em">-100</text>
    <text x="19.74" y="111.36" text-anchor="end" dy="0.35em">0</text>
    <text x="19.74" y="91.61" text-anchor="end" dy="0.35em">100</text>
    <text x="19.74" y="71.86" text-anchor="end" dy="0.35em">200</text>
    <text x="19.74" y="52.11" text-anchor="end" dy="0.35em">300</text>
    <text x="19.74" y="32.36" text-anchor="end" dy="0.35em">400</text>
    <text x="19.74" y="12.61" text-anchor="end" dy="0.35em">500</text>
  </g>
  <g font-size="3.88" font-family="'PT Sans','Helvetica Neue','Helvetica',sans-serif" fill="#000000" stroke="#000000" stroke-opacity="0.000" id="img-b464e210-15">
    <text x="8.81" y="69.86" text-anchor="middle" dy="0.35em" transform="rotate(-90, 8.81, 71.86)">generation number</text>
  </g>
  <g font-size="3.88" font-family="'PT Sans','Helvetica Neue','Helvetica',sans-serif" fill="#000000" stroke="#000000" stroke-opacity="0.000" id="img-b464e210-16">
    <text x="109.47" y="5" text-anchor="middle" dy="0.6em">meanvalue of generation for extinction/fixation depending on population size</text>
  </g>
</g>
<defs>
  <clipPath id="img-b464e210-4">
  <path d="M20.75,10.61 L 198.2 10.61 198.2 133.11 20.75 133.11" />
</clipPath>
  <g id="img-b464e210-13">
    <circle cx="0" cy="0" r="0.9"/>
  </g>
</defs>
</svg>
