<?xml version="1.0" encoding="UTF-8"?>
<svg xmlns="http://www.w3.org/2000/svg"
     xmlns:xlink="http://www.w3.org/1999/xlink"
     xmlns:gadfly="http://www.gadflyjl.org/ns"
     version="1.2"
     width="203.2mm" height="152.4mm" viewBox="0 0 203.2 152.4"
     stroke="none"
     fill="#000000"
     stroke-width="0.3"
     font-size="3.88"
>
<g class="plotroot xscalable yscalable" id="img-65a09b7b-1">
  <g font-size="3.88" font-family="'PT Sans','Helvetica Neue','Helvetica',sans-serif" fill="#000000" stroke="#000000" stroke-opacity="0.000" id="img-65a09b7b-2">
    <text x="108.92" y="140.79" text-anchor="middle" dy="0.6em">generation number</text>
  </g>
  <g class="guide xlabels" font-size="2.82" font-family="'PT Sans Caption','Helvetica Neue','Helvetica',sans-serif" fill="#000000" id="img-65a09b7b-3">
    <text x="21.63" y="134.11" text-anchor="middle" dy="0.6em">0</text>
    <text x="56.55" y="134.11" text-anchor="middle" dy="0.6em">100</text>
    <text x="91.46" y="134.11" text-anchor="middle" dy="0.6em">200</text>
    <text x="126.37" y="134.11" text-anchor="middle" dy="0.6em">300</text>
    <text x="161.29" y="134.11" text-anchor="middle" dy="0.6em">400</text>
    <text x="196.2" y="134.11" text-anchor="middle" dy="0.6em">500</text>
  </g>
<g clip-path="url(#img-65a09b7b-4)">
  <g id="img-65a09b7b-5">
    <g pointer-events="visible" opacity="1" fill="#FFFFFF" stroke="#000000" stroke-opacity="0.000" class="guide background" id="img-65a09b7b-6">
      <rect x="19.63" y="10.61" width="178.57" height="122.5"/>
    </g>
    <g class="guide ygridlines xfixed" stroke-dasharray="0.5,0.5" stroke-width="0.2" stroke="#808080" id="img-65a09b7b-7">
      <path fill="none" d="M19.63,131.11 L 198.2 131.11"/>
      <path fill="none" d="M19.63,71.86 L 198.2 71.86"/>
      <path fill="none" d="M19.63,12.61 L 198.2 12.61"/>
    </g>
    <g class="guide xgridlines yfixed" stroke-dasharray="0.5,0.5" stroke-width="0.2" stroke="#808080" id="img-65a09b7b-8">
      <path fill="none" d="M21.63,10.61 L 21.63 133.11"/>
      <path fill="none" d="M56.55,10.61 L 56.55 133.11"/>
      <path fill="none" d="M91.46,10.61 L 91.46 133.11"/>
      <path fill="none" d="M126.37,10.61 L 126.37 133.11"/>
      <path fill="none" d="M161.29,10.61 L 161.29 133.11"/>
      <path fill="none" d="M196.2,10.61 L 196.2 133.11"/>
    </g>
    <g class="plotpanel" id="img-65a09b7b-9">
      <g stroke-width="0.3" fill="#000000" fill-opacity="0.000" class="geometry" stroke-dasharray="none" stroke="#3288BD" id="img-65a09b7b-10">
        <path fill="none" d="M21.98,71.86 L 22.33 78.97 22.68 80.16 23.03 76.6 23.38 82.53 23.73 92.01 24.08 86.08 24.42 89.64 24.77 89.64 25.12 102.67 25.47 99.12 25.82 97.93 26.17 92.01 26.52 97.93 26.87 96.75 27.22 105.04 27.57 103.86 27.92 103.86 28.27 107.41 28.61 110.97 28.96 113.34 29.31 107.41 29.66 105.04 30.01 95.56 30.36 89.64 30.71 89.64 31.06 94.38 31.41 95.56 31.76 93.19 32.11 92.01 32.45 88.45 32.8 76.6 33.15 81.34 33.5 81.34 33.85 78.97 34.2 69.49 34.55 68.31 34.9 63.57 35.25 68.31 35.6 69.49 35.95 64.75 36.3 65.94 36.64 68.31 36.99 63.57 37.34 65.94 37.69 61.2 38.04 56.46 38.39 67.12 38.74 65.94 39.09 69.49 39.44 71.86 39.79 76.6 40.14 77.79 40.49 71.86 40.83 78.97 41.18 76.6 41.53 76.6 41.88 80.16 42.23 90.82 42.58 84.9 42.93 82.53 43.28 83.71 43.63 86.08 43.98 77.79 44.33 78.97 44.67 73.05 45.02 70.68 45.37 64.75 45.72 65.94 46.07 69.49 46.42 68.31 46.77 71.86 47.12 70.68 47.47 71.86 47.82 77.79 48.17 63.57 48.52 56.46 48.86 55.27 49.21 62.38 49.56 71.86 49.91 71.86 50.26 73.05 50.61 70.68 50.96 71.86 51.31 73.05 51.66 75.42 52.01 71.86 52.36 75.42 52.7 81.34 53.05 88.45 53.4 89.64 53.75 84.9 54.1 87.27 54.45 83.71 54.8 83.71 55.15 86.08 55.5 88.45 55.85 83.71 56.2 78.97 56.55 77.79 56.89 81.34 57.24 75.42 57.59 64.75 57.94 64.75 58.29 63.57 58.64 75.42 58.99 73.05 59.34 69.49 59.69 75.42 60.04 78.97 60.39 77.79 60.73 81.34 61.08 83.71 61.43 73.05 61.78 83.71 62.13 87.27 62.48 92.01 62.83 92.01 63.18 90.82 63.53 92.01 63.88 88.45 64.23 82.53 64.58 80.16 64.92 87.27 65.27 94.38 65.62 87.27 65.97 86.08 66.32 78.97 66.67 83.71 67.02 94.38 67.37 100.3 67.72 99.12 68.07 94.38 68.42 93.19 68.77 84.9 69.11 81.34 69.46 86.08 69.81 89.64 70.16 90.82 70.51 96.75 70.86 106.23 71.21 106.23 71.56 108.6 71.91 105.04 72.26 108.6 72.61 109.78 72.95 109.78 73.3 109.78 73.65 105.04 74 103.86 74.35 106.23 74.7 101.49 75.05 105.04 75.4 108.6 75.75 105.04 76.1 101.49 76.45 105.04 76.8 103.86 77.14 105.04 77.49 107.41 77.84 105.04 78.19 101.49 78.54 109.78 78.89 116.89 79.24 113.34 79.59 114.52 79.94 119.26 80.29 119.26 80.64 119.26 80.98 120.45 81.33 122.82 81.68 128.74 82.03 126.37 82.38 124 82.73 118.08 83.08 118.08 83.43 121.63 83.78 122.82 84.13 122.82 84.48 121.63 84.83 119.26 85.17 120.45 85.52 121.63 85.87 115.71 86.22 119.26 86.57 124 86.92 124 87.27 121.63 87.62 121.63 87.97 121.63 88.32 120.45 88.67 120.45 89.02 126.37 89.36 127.56 89.71 131.11"/>
      </g>
      <g stroke-width="0.3" fill="#000000" fill-opacity="0.000" class="geometry" stroke-dasharray="none" stroke="#66C2A5" id="img-65a09b7b-11">
        <path fill="none" d="M21.98,71.86 L 22.33 74.23 22.68 73.05 23.03 77.79 23.38 76.6 23.73 77.79 24.08 76.6 24.42 73.05 24.77 73.05 25.12 73.05 25.47 68.31 25.82 75.42 26.17 71.86 26.52 74.23 26.87 75.42 27.22 80.16 27.57 80.16 27.92 76.6 28.27 76.6 28.61 74.23 28.96 61.2 29.31 58.83 29.66 52.9 30.01 56.46 30.36 55.27 30.71 61.2 31.06 58.83 31.41 60.01 31.76 60.01 32.11 63.57 32.45 64.75 32.8 64.75 33.15 63.57 33.5 62.38 33.85 49.35 34.2 56.46 34.55 49.35 34.9 48.16 35.25 49.35 35.6 50.53 35.95 44.61 36.3 38.68 36.64 39.87 36.99 44.61 37.34 50.53 37.69 45.79 38.04 39.87 38.39 33.94 38.74 42.24 39.09 41.05 39.44 42.24 39.79 50.53 40.14 44.61 40.49 45.79 40.83 48.16 41.18 50.53 41.53 54.09 41.88 61.2 42.23 56.46 42.58 57.64 42.93 48.16 43.28 44.61 43.63 45.79 43.98 46.98 44.33 42.24 44.67 44.61 45.02 48.16 45.37 43.42 45.72 42.24 46.07 43.42 46.42 41.05 46.77 44.61 47.12 55.27 47.47 54.09 47.82 56.46 48.17 58.83 48.52 62.38 48.86 52.9 49.21 41.05 49.56 41.05 49.91 45.79 50.26 41.05 50.61 48.16 50.96 48.16 51.31 48.16 51.66 42.24 52.01 42.24 52.36 38.68 52.7 37.5 53.05 31.57 53.4 35.13 53.75 41.05 54.1 43.42 54.45 39.87 54.8 37.5 55.15 31.57 55.5 29.2 55.85 25.65 56.2 18.54 56.55 16.17 56.89 16.17 57.24 14.98 57.59 16.17 57.94 20.91 58.29 24.46 58.64 26.83 58.99 25.65 59.34 26.83 59.69 20.91 60.04 18.54 60.39 14.98 60.73 14.98 61.08 14.98 61.43 14.98 61.78 20.91 62.13 19.72 62.48 18.54 62.83 17.35 63.18 18.54 63.53 26.83 63.88 24.46 64.23 28.02 64.58 26.83 64.92 26.83 65.27 23.28 65.62 17.35 65.97 14.98 66.32 13.8 66.67 14.98 67.02 16.17 67.37 16.17 67.72 13.8 68.07 13.8 68.42 13.8 68.77 12.61"/>
      </g>
      <g stroke-width="0.3" fill="#000000" fill-opacity="0.000" class="geometry" stroke-dasharray="none" stroke="#ABDDA4" id="img-65a09b7b-12">
        <path fill="none" d="M21.98,71.86 L 22.33 63.57 22.68 61.2 23.03 63.57 23.38 55.27 23.73 55.27 24.08 46.98 24.42 44.61 24.77 43.42 25.12 38.68 25.47 37.5 25.82 44.61 26.17 37.5 26.52 39.87 26.87 38.68 27.22 38.68 27.57 35.13 27.92 39.87 28.27 36.31 28.61 39.87 28.96 36.31 29.31 33.94 29.66 32.76 30.01 28.02 30.36 29.2 30.71 29.2 31.06 28.02 31.41 29.2 31.76 31.57 32.11 35.13 32.45 36.31 32.8 30.39 33.15 32.76 33.5 33.94 33.85 32.76 34.2 36.31 34.55 38.68 34.9 32.76 35.25 37.5 35.6 45.79 35.95 50.53 36.3 56.46 36.64 52.9 36.99 62.38 37.34 58.83 37.69 65.94 38.04 61.2 38.39 64.75 38.74 74.23 39.09 63.57 39.44 62.38 39.79 67.12 40.14 63.57 40.49 62.38 40.83 69.49 41.18 68.31 41.53 63.57 41.88 61.2 42.23 54.09 42.58 50.53 42.93 44.61 43.28 44.61 43.63 44.61 43.98 44.61 44.33 48.16 44.67 49.35 45.02 45.79 45.37 37.5 45.72 41.05 46.07 36.31 46.42 35.13 46.77 38.68 47.12 35.13 47.47 37.5 47.82 35.13 48.17 33.94 48.52 33.94 48.86 23.28 49.21 22.09 49.56 18.54 49.91 16.17 50.26 17.35 50.61 18.54 50.96 19.72 51.31 16.17 51.66 12.61"/>
      </g>
      <g stroke-width="0.3" fill="#000000" fill-opacity="0.000" class="geometry" stroke-dasharray="none" stroke="#E6F598" id="img-65a09b7b-13">
        <path fill="none" d="M21.98,71.86 L 22.33 62.38 22.68 62.38 23.03 61.2 23.38 61.2 23.73 58.83 24.08 64.75 24.42 67.12 24.77 73.05 25.12 69.49 25.47 65.94 25.82 63.57 26.17 68.31 26.52 67.12 26.87 60.01 27.22 64.75 27.57 68.31 27.92 68.31 28.27 63.57 28.61 61.2 28.96 67.12 29.31 58.83 29.66 56.46 30.01 55.27 30.36 49.35 30.71 45.79 31.06 46.98 31.41 45.79 31.76 50.53 32.11 62.38 32.45 65.94 32.8 64.75 33.15 73.05 33.5 76.6 33.85 73.05 34.2 84.9 34.55 82.53 34.9 87.27 35.25 81.34 35.6 81.34 35.95 81.34 36.3 81.34 36.64 81.34 36.99 82.53 37.34 71.86 37.69 63.57 38.04 57.64 38.39 55.27 38.74 61.2 39.09 63.57 39.44 64.75 39.79 60.01 40.14 51.72 40.49 63.57 40.83 62.38 41.18 60.01 41.53 63.57 41.88 65.94 42.23 62.38 42.58 57.64 42.93 57.64 43.28 64.75 43.63 61.2 43.98 55.27 44.33 52.9 44.67 54.09 45.02 46.98 45.37 33.94 45.72 29.2 46.07 29.2 46.42 28.02 46.77 29.2 47.12 28.02 47.47 22.09 47.82 20.91 48.17 22.09 48.52 29.2 48.86 32.76 49.21 37.5 49.56 37.5 49.91 42.24 50.26 46.98 50.61 44.61 50.96 45.79 51.31 49.35 51.66 49.35 52.01 52.9 52.36 63.57 52.7 68.31 53.05 63.57 53.4 57.64 53.75 58.83 54.1 73.05 54.45 67.12 54.8 70.68 55.15 76.6 55.5 68.31 55.85 69.49 56.2 60.01 56.55 61.2 56.89 74.23 57.24 75.42 57.59 75.42 57.94 78.97 58.29 86.08 58.64 89.64 58.99 82.53 59.34 81.34 59.69 78.97 60.04 77.79 60.39 67.12 60.73 74.23 61.08 74.23 61.43 73.05 61.78 71.86 62.13 65.94 62.48 67.12 62.83 63.57 63.18 49.35 63.53 39.87 63.88 37.5 64.23 33.94 64.58 30.39 64.92 28.02 65.27 33.94 65.62 29.2 65.97 30.39 66.32 25.65 66.67 20.91 67.02 20.91 67.37 20.91 67.72 22.09 68.07 20.91 68.42 20.91 68.77 24.46 69.11 25.65 69.46 25.65 69.81 31.57 70.16 22.09 70.51 24.46 70.86 26.83 71.21 24.46 71.56 20.91 71.91 14.98 72.26 12.61"/>
      </g>
      <g stroke-width="0.3" fill="#000000" fill-opacity="0.000" class="geometry" stroke-dasharray="none" stroke="#FFFFBF" id="img-65a09b7b-14">
        <path fill="none" d="M21.98,71.86 L 22.33 77.79 22.68 78.97 23.03 77.79 23.38 78.97 23.73 82.53 24.08 76.6 24.42 83.71 24.77 77.79 25.12 69.49 25.47 64.75 25.82 67.12 26.17 74.23 26.52 75.42 26.87 75.42 27.22 80.16 27.57 88.45 27.92 80.16 28.27 87.27 28.61 92.01 28.96 93.19 29.31 88.45 29.66 89.64 30.01 93.19 30.36 90.82 30.71 92.01 31.06 95.56 31.41 101.49 31.76 107.41 32.11 106.23 32.45 106.23 32.8 110.97 33.15 113.34 33.5 112.15 33.85 102.67 34.2 100.3 34.55 101.49 34.9 109.78 35.25 115.71 35.6 113.34 35.95 115.71 36.3 119.26 36.64 125.19 36.99 127.56 37.34 124 37.69 128.74 38.04 128.74 38.39 129.93 38.74 129.93 39.09 131.11"/>
      </g>
      <g stroke-width="0.3" fill="#000000" fill-opacity="0.000" class="geometry" stroke-dasharray="none" stroke="#FEE08B" id="img-65a09b7b-15">
        <path fill="none" d="M21.98,71.86 L 22.33 69.49 22.68 70.68 23.03 64.75 23.38 64.75 23.73 62.38 24.08 60.01 24.42 64.75 24.77 58.83 25.12 60.01 25.47 57.64 25.82 56.46 26.17 54.09 26.52 57.64 26.87 58.83 27.22 60.01 27.57 57.64 27.92 52.9 28.27 46.98 28.61 36.31 28.96 33.94 29.31 30.39 29.66 24.46 30.01 28.02 30.36 25.65 30.71 22.09 31.06 23.28 31.41 30.39 31.76 29.2 32.11 31.57 32.45 28.02 32.8 30.39 33.15 26.83 33.5 22.09 33.85 19.72 34.2 18.54 34.55 20.91 34.9 18.54 35.25 17.35 35.6 16.17 35.95 16.17 36.3 13.8 36.64 14.98 36.99 14.98 37.34 13.8 37.69 14.98 38.04 13.8 38.39 14.98 38.74 18.54 39.09 22.09 39.44 26.83 39.79 28.02 40.14 24.46 40.49 22.09 40.83 19.72 41.18 22.09 41.53 25.65 41.88 29.2 42.23 28.02 42.58 30.39 42.93 30.39 43.28 33.94 43.63 41.05 43.98 42.24 44.33 42.24 44.67 45.79 45.02 48.16 45.37 44.61 45.72 42.24 46.07 36.31 46.42 38.68 46.77 33.94 47.12 37.5 47.47 33.94 47.82 35.13 48.17 37.5 48.52 35.13 48.86 33.94 49.21 37.5 49.56 43.42 49.91 37.5 50.26 41.05 50.61 36.31 50.96 41.05 51.31 50.53 51.66 51.72 52.01 54.09 52.36 55.27 52.7 49.35 53.05 48.16 53.4 49.35 53.75 51.72 54.1 57.64 54.45 49.35 54.8 48.16 55.15 56.46 55.5 56.46 55.85 51.72 56.2 52.9 56.55 48.16 56.89 45.79 57.24 52.9 57.59 54.09 57.94 52.9 58.29 46.98 58.64 48.16 58.99 50.53 59.34 35.13 59.69 35.13 60.04 29.2 60.39 31.57 60.73 32.76 61.08 36.31 61.43 42.24 61.78 37.5 62.13 35.13 62.48 38.68 62.83 32.76 63.18 43.42 63.53 48.16 63.88 42.24 64.23 41.05 64.58 42.24 64.92 41.05 65.27 41.05 65.62 37.5 65.97 31.57 66.32 31.57 66.67 26.83 67.02 29.2 67.37 28.02 67.72 19.72 68.07 14.98 68.42 13.8 68.77 13.8 69.11 12.61"/>
      </g>
      <g stroke-width="0.3" fill="#000000" fill-opacity="0.000" class="geometry" stroke-dasharray="none" stroke="#FDAE61" id="img-65a09b7b-16">
        <path fill="none" d="M21.98,71.86 L 22.33 73.05 22.68 76.6 23.03 76.6 23.38 81.34 23.73 81.34 24.08 81.34 24.42 83.71 24.77 95.56 25.12 89.64 25.47 80.16 25.82 76.6 26.17 87.27 26.52 78.97 26.87 80.16 27.22 83.71 27.57 96.75 27.92 86.08 28.27 89.64 28.61 82.53 28.96 74.23 29.31 80.16 29.66 76.6 30.01 75.42 30.36 70.68 30.71 68.31 31.06 77.79 31.41 70.68 31.76 61.2 32.11 60.01 32.45 56.46 32.8 65.94 33.15 62.38 33.5 71.86 33.85 64.75 34.2 68.31 34.55 69.49 34.9 75.42 35.25 82.53 35.6 90.82 35.95 88.45 36.3 90.82 36.64 99.12 36.99 97.93 37.34 103.86 37.69 100.3 38.04 97.93 38.39 92.01 38.74 92.01 39.09 89.64 39.44 88.45 39.79 90.82 40.14 83.71 40.49 90.82 40.83 92.01 41.18 86.08 41.53 82.53 41.88 80.16 42.23 82.53 42.58 87.27 42.93 84.9 43.28 93.19 43.63 89.64 43.98 92.01 44.33 82.53 44.67 77.79 45.02 75.42 45.37 71.86 45.72 71.86 46.07 63.57 46.42 57.64 46.77 54.09 47.12 62.38 47.47 60.01 47.82 60.01 48.17 55.27 48.52 65.94 48.86 62.38 49.21 57.64 49.56 48.16 49.91 49.35 50.26 49.35 50.61 54.09 50.96 54.09 51.31 52.9 51.66 48.16 52.01 44.61 52.36 35.13 52.7 31.57 53.05 30.39 53.4 25.65 53.75 23.28 54.1 22.09 54.45 24.46 54.8 25.65 55.15 23.28 55.5 30.39 55.85 32.76 56.2 28.02 56.55 25.65 56.89 25.65 57.24 25.65 57.59 19.72 57.94 22.09 58.29 18.54 58.64 14.98 58.99 13.8 59.34 14.98 59.69 16.17 60.04 17.35 60.39 13.8 60.73 13.8 61.08 13.8 61.43 12.61"/>
      </g>
      <g stroke-width="0.3" fill="#000000" fill-opacity="0.000" class="geometry" stroke-dasharray="none" stroke="#F46D43" id="img-65a09b7b-17">
        <path fill="none" d="M21.98,71.86 L 22.33 76.6 22.68 76.6 23.03 78.97 23.38 86.08 23.73 81.34 24.08 75.42 24.42 78.97 24.77 82.53 25.12 78.97 25.47 77.79 25.82 83.71 26.17 75.42 26.52 77.79 26.87 80.16 27.22 87.27 27.57 80.16 27.92 88.45 28.27 89.64 28.61 81.34 28.96 86.08 29.31 77.79 29.66 78.97 30.01 87.27 30.36 88.45 30.71 75.42 31.06 74.23 31.41 74.23 31.76 75.42 32.11 70.68 32.45 69.49 32.8 71.86 33.15 67.12 33.5 62.38 33.85 63.57 34.2 52.9 34.55 54.09 34.9 50.53 35.25 55.27 35.6 51.72 35.95 51.72 36.3 48.16 36.64 50.53 36.99 44.61 37.34 55.27 37.69 55.27 38.04 49.35 38.39 50.53 38.74 55.27 39.09 57.64 39.44 54.09 39.79 49.35 40.14 37.5 40.49 42.24 40.83 48.16 41.18 42.24 41.53 49.35 41.88 49.35 42.23 45.79 42.58 46.98 42.93 50.53 43.28 42.24 43.63 41.05 43.98 32.76 44.33 35.13 44.67 41.05 45.02 49.35 45.37 49.35 45.72 50.53 46.07 61.2 46.42 65.94 46.77 68.31 47.12 60.01 47.47 69.49 47.82 62.38 48.17 60.01 48.52 60.01 48.86 61.2 49.21 55.27 49.56 51.72 49.91 49.35 50.26 43.42 50.61 45.79 50.96 39.87 51.31 36.31 51.66 38.68 52.01 29.2 52.36 33.94 52.7 31.57 53.05 30.39 53.4 26.83 53.75 23.28 54.1 26.83 54.45 25.65 54.8 28.02 55.15 24.46 55.5 28.02 55.85 19.72 56.2 23.28 56.55 23.28 56.89 17.35 57.24 19.72 57.59 17.35 57.94 17.35 58.29 16.17 58.64 13.8 58.99 13.8 59.34 16.17 59.69 17.35 60.04 16.17 60.39 14.98 60.73 17.35 61.08 17.35 61.43 18.54 61.78 28.02 62.13 26.83 62.48 26.83 62.83 29.2 63.18 31.57 63.53 28.02 63.88 24.46 64.23 25.65 64.58 22.09 64.92 19.72 65.27 23.28 65.62 18.54 65.97 17.35 66.32 13.8 66.67 14.98 67.02 14.98 67.37 14.98 67.72 14.98 68.07 12.61"/>
      </g>
      <g stroke-width="0.3" fill="#000000" fill-opacity="0.000" class="geometry" stroke-dasharray="none" stroke="#D53E4F" id="img-65a09b7b-18">
        <path fill="none" d="M21.98,71.86 L 22.33 77.79 22.68 73.05 23.03 68.31 23.38 74.23 23.73 67.12 24.08 73.05 24.42 67.12 24.77 69.49 25.12 63.57 25.47 63.57 25.82 48.16 26.17 39.87 26.52 37.5 26.87 38.68 27.22 44.61 27.57 52.9 27.92 64.75 28.27 64.75 28.61 63.57 28.96 69.49 29.31 67.12 29.66 70.68 30.01 68.31 30.36 69.49 30.71 73.05 31.06 70.68 31.41 62.38 31.76 60.01 32.11 62.38 32.45 69.49 32.8 64.75 33.15 62.38 33.5 76.6 33.85 74.23 34.2 67.12 34.55 62.38 34.9 57.64 35.25 60.01 35.6 54.09 35.95 49.35 36.3 37.5 36.64 42.24 36.99 38.68 37.34 41.05 37.69 38.68 38.04 43.42 38.39 41.05 38.74 37.5 39.09 36.31 39.44 43.42 39.79 44.61 40.14 45.79 40.49 39.87 40.83 35.13 41.18 38.68 41.53 39.87 41.88 38.68 42.23 42.24 42.58 42.24 42.93 42.24 43.28 36.31 43.63 36.31 43.98 31.57 44.33 30.39 44.67 37.5 45.02 39.87 45.37 38.68 45.72 36.31 46.07 41.05 46.42 48.16 46.77 49.35 47.12 58.83 47.47 70.68 47.82 68.31 48.17 73.05 48.52 65.94 48.86 69.49 49.21 70.68 49.56 65.94 49.91 67.12 50.26 69.49 50.61 57.64 50.96 58.83 51.31 63.57 51.66 65.94 52.01 69.49 52.36 76.6 52.7 70.68 53.05 60.01 53.4 69.49 53.75 73.05 54.1 73.05 54.45 75.42 54.8 76.6 55.15 90.82 55.5 93.19 55.85 100.3 56.2 107.41 56.55 110.97 56.89 110.97 57.24 113.34 57.59 115.71 57.94 110.97 58.29 112.15 58.64 100.3 58.99 97.93 59.34 95.56 59.69 99.12 60.04 108.6 60.39 102.67 60.73 105.04 61.08 109.78 61.43 112.15 61.78 106.23 62.13 108.6 62.48 105.04 62.83 101.49 63.18 106.23 63.53 112.15 63.88 114.52 64.23 114.52 64.58 118.08 64.92 116.89 65.27 120.45 65.62 118.08 65.97 120.45 66.32 115.71 66.67 120.45 67.02 125.19 67.37 122.82 67.72 129.93 68.07 128.74 68.42 131.11"/>
      </g>
      <g stroke-width="0.3" fill="#000000" fill-opacity="0.000" class="geometry" stroke-dasharray="none" stroke="#9E0142" id="img-65a09b7b-19">
        <path fill="none" d="M21.98,71.86 L 22.33 74.23 22.68 69.49 23.03 67.12 23.38 74.23 23.73 71.86 24.08 74.23 24.42 68.31 24.77 77.79 25.12 84.9 25.47 90.82 25.82 81.34 26.17 84.9 26.52 69.49 26.87 74.23 27.22 70.68 27.57 69.49 27.92 58.83 28.27 58.83 28.61 54.09 28.96 45.79 29.31 41.05 29.66 41.05 30.01 51.72 30.36 54.09 30.71 50.53 31.06 49.35 31.41 55.27 31.76 63.57 32.11 73.05 32.45 73.05 32.8 69.49 33.15 71.86 33.5 75.42 33.85 76.6 34.2 76.6 34.55 76.6 34.9 74.23 35.25 77.79 35.6 76.6 35.95 88.45 36.3 83.71 36.64 81.34 36.99 77.79 37.34 80.16 37.69 86.08 38.04 83.71 38.39 83.71 38.74 86.08 39.09 89.64 39.44 93.19 39.79 94.38 40.14 100.3 40.49 99.12 40.83 96.75 41.18 96.75 41.53 92.01 41.88 84.9 42.23 89.64 42.58 82.53 42.93 89.64 43.28 93.19 43.63 90.82 43.98 89.64 44.33 87.27 44.67 90.82 45.02 90.82 45.37 92.01 45.72 100.3 46.07 95.56 46.42 96.75 46.77 102.67 47.12 97.93 47.47 99.12 47.82 99.12 48.17 93.19 48.52 95.56 48.86 88.45 49.21 82.53 49.56 83.71 49.91 83.71 50.26 83.71 50.61 86.08 50.96 77.79 51.31 81.34 51.66 80.16 52.01 83.71 52.36 84.9 52.7 82.53 53.05 81.34 53.4 81.34 53.75 81.34 54.1 77.79 54.45 71.86 54.8 80.16 55.15 80.16 55.5 77.79 55.85 74.23 56.2 70.68 56.55 71.86 56.89 63.57 57.24 56.46 57.59 57.64 57.94 56.46 58.29 54.09 58.64 67.12 58.99 71.86 59.34 74.23 59.69 82.53 60.04 84.9 60.39 83.71 60.73 92.01 61.08 94.38 61.43 97.93 61.78 92.01 62.13 97.93 62.48 112.15 62.83 119.26 63.18 118.08 63.53 113.34 63.88 112.15 64.23 112.15 64.58 116.89 64.92 120.45 65.27 121.63 65.62 122.82 65.97 122.82 66.32 119.26 66.67 119.26 67.02 121.63 67.37 121.63 67.72 122.82 68.07 125.19 68.42 127.56 68.77 127.56 69.11 127.56 69.46 129.93 69.81 129.93 70.16 129.93 70.51 131.11"/>
      </g>
    </g>
  </g>
</g>
  <g class="guide ylabels" font-size="2.82" font-family="'PT Sans Caption','Helvetica Neue','Helvetica',sans-serif" fill="#000000" id="img-65a09b7b-20">
    <text x="18.63" y="131.11" text-anchor="end" dy="0.35em">0</text>
    <text x="18.63" y="71.86" text-anchor="end" dy="0.35em">50</text>
    <text x="18.63" y="12.61" text-anchor="end" dy="0.35em">100</text>
  </g>
  <g font-size="3.88" font-family="'PT Sans','Helvetica Neue','Helvetica',sans-serif" fill="#000000" stroke="#000000" stroke-opacity="0.000" id="img-65a09b7b-21">
    <text x="8.81" y="69.86" text-anchor="middle" dy="0.35em" transform="rotate(-90, 8.81, 71.86)">population number</text>
  </g>
  <g font-size="3.88" font-family="'PT Sans','Helvetica Neue','Helvetica',sans-serif" fill="#000000" stroke="#000000" stroke-opacity="0.000" id="img-65a09b7b-22">
    <text x="108.92" y="5" text-anchor="middle" dy="0.6em">genetic drift</text>
  </g>
</g>
<defs>
  <clipPath id="img-65a09b7b-4">
  <path d="M19.63,10.61 L 198.2 10.61 198.2 133.11 19.63 133.11" />
</clipPath>
</defs>
</svg>
