<?xml version="1.0" encoding="UTF-8"?>
<svg xmlns="http://www.w3.org/2000/svg"
     xmlns:xlink="http://www.w3.org/1999/xlink"
     xmlns:gadfly="http://www.gadflyjl.org/ns"
     version="1.2"
     width="203.2mm" height="152.4mm" viewBox="0 0 203.2 152.4"
     stroke="none"
     fill="#000000"
     stroke-width="0.3"
     font-size="3.88"
>
<g class="plotroot xscalable yscalable" id="img-34597583-1">
  <g font-size="3.88" font-family="'PT Sans','Helvetica Neue','Helvetica',sans-serif" fill="#000000" stroke="#000000" stroke-opacity="0.000" id="img-34597583-2">
    <text x="109.75" y="140.79" text-anchor="middle" dy="0.6em">generation number</text>
  </g>
  <g class="guide xlabels" font-size="2.82" font-family="'PT Sans Caption','Helvetica Neue','Helvetica',sans-serif" fill="#000000" id="img-34597583-3">
    <text x="23.31" y="134.11" text-anchor="middle" dy="0.6em">0</text>
    <text x="57.88" y="134.11" text-anchor="middle" dy="0.6em">100</text>
    <text x="92.46" y="134.11" text-anchor="middle" dy="0.6em">200</text>
    <text x="127.04" y="134.11" text-anchor="middle" dy="0.6em">300</text>
    <text x="161.62" y="134.11" text-anchor="middle" dy="0.6em">400</text>
    <text x="196.2" y="134.11" text-anchor="middle" dy="0.6em">500</text>
  </g>
<g clip-path="url(#img-34597583-4)">
  <g id="img-34597583-5">
    <g pointer-events="visible" opacity="1" fill="#FFFFFF" stroke="#000000" stroke-opacity="0.000" class="guide background" id="img-34597583-6">
      <rect x="21.31" y="10.61" width="176.89" height="122.5"/>
    </g>
    <g class="guide ygridlines xfixed" stroke-dasharray="0.5,0.5" stroke-width="0.2" stroke="#808080" id="img-34597583-7">
      <path fill="none" d="M21.31,131.11 L 198.2 131.11"/>
      <path fill="none" d="M21.31,71.86 L 198.2 71.86"/>
      <path fill="none" d="M21.31,12.61 L 198.2 12.61"/>
    </g>
    <g class="guide xgridlines yfixed" stroke-dasharray="0.5,0.5" stroke-width="0.2" stroke="#808080" id="img-34597583-8">
      <path fill="none" d="M23.31,10.61 L 23.31 133.11"/>
      <path fill="none" d="M57.88,10.61 L 57.88 133.11"/>
      <path fill="none" d="M92.46,10.61 L 92.46 133.11"/>
      <path fill="none" d="M127.04,10.61 L 127.04 133.11"/>
      <path fill="none" d="M161.62,10.61 L 161.62 133.11"/>
      <path fill="none" d="M196.2,10.61 L 196.2 133.11"/>
    </g>
    <g class="plotpanel" id="img-34597583-9">
      <g stroke-width="0.3" fill="#000000" fill-opacity="0.000" class="geometry" stroke-dasharray="none" stroke="#3288BD" id="img-34597583-10">
        <path fill="none" d="M23.65,71.86 L 24 68.55 24.34 70.56 24.69 70.2 25.03 70.68 25.38 73.4 25.73 72.34 26.07 71.39 26.42 70.2 26.76 69.49 27.11 69.02 27.45 67.95 27.8 69.02 28.15 70.92 28.49 73.05 28.84 74 29.18 74.11 29.53 74.23 29.88 71.63 30.22 71.27 30.57 72.22 30.91 71.27 31.26 72.57 31.6 73.64 31.95 77.31 32.3 77.79 32.64 78.14 32.99 80.16 33.33 79.57 33.68 79.68 34.02 78.5 34.37 79.33 34.72 79.45 35.06 82.88 35.41 85.14 35.75 83.6 36.1 84.78 36.45 86.2 36.79 84.54 37.14 85.73 37.48 85.25 37.83 82.17 38.17 81.34 38.52 80.04 38.87 81.82 39.21 84.9 39.56 80.87 39.9 78.97 40.25 77.31 40.59 76.48 40.94 77.55 41.29 76.96 41.63 80.04 41.98 77.08 42.32 78.86 42.67 78.62 43.02 78.74 43.36 80.51 43.71 82.29 44.05 82.29 44.4 83.83 44.74 84.42 45.09 87.15 45.44 89.05 45.78 92.48 46.13 92.13 46.47 93.19 46.82 96.28 47.16 95.56 47.51 93.31 47.86 94.73 48.2 93.79 48.55 95.8 48.89 95.68 49.24 97.46 49.59 95.8 49.93 94.62 50.28 91.53 50.62 91.18 50.97 91.06 51.31 90.23 51.66 88.81 52.01 87.39 52.35 89.4 52.7 90.35 53.04 88.34 53.39 86.08 53.73 88.1 54.08 86.44 54.43 83.6 54.77 86.44 55.12 89.16 55.46 88.1 55.81 87.39 56.16 86.32 56.5 84.78 56.85 84.42 57.19 85.37 57.54 86.08 57.88 83.83 58.23 85.85 58.58 84.66 58.92 83.36 59.27 82.17 59.61 83.71 59.96 84.07 60.3 81.34 60.65 78.62 61 78.74 61.34 79.09 61.69 82.65 62.03 82.17 62.38 84.42 62.73 84.66 63.07 86.68 63.42 86.32 63.76 88.1 64.11 88.57 64.45 89.16 64.8 90.59 65.15 88.69 65.49 88.45 65.84 90.23 66.18 92.13 66.53 88.93 66.87 89.88 67.22 88.1 67.57 87.74 67.91 88.81 68.26 85.37 68.6 85.14 68.95 87.62 69.3 88.34 69.64 86.56 69.99 86.68 70.33 85.61 70.68 86.91 71.02 88.81 71.37 89.52 71.72 88.45 72.06 91.18 72.41 94.26 72.75 92.48 73.1 91.06 73.44 93.19 73.79 93.67 74.14 92.13 74.48 95.09 74.83 95.21 75.17 97.22 75.52 98.76 75.87 97.22 76.21 96.75 76.56 94.62 76.9 93.08 77.25 90.47 77.59 92.84 77.94 91.77 78.29 90.35 78.63 92.72 78.98 94.38 79.32 93.31 79.67 93.55 80.01 94.02 80.36 91.89 80.71 90.71 81.05 88.69 81.4 88.93 81.74 89.05 82.09 90.47 82.44 93.67 82.78 94.26 83.13 92.84 83.47 93.19 83.82 91.18 84.16 91.06 84.51 92.84 84.86 90.94 85.2 87.74 85.55 88.45 85.89 86.91 86.24 87.86 86.58 85.37 86.93 87.39 87.28 88.69 87.62 89.64 87.97 86.91 88.31 88.69 88.66 87.39 89.01 88.45 89.35 86.68 89.7 89.64 90.04 91.53 90.39 91.3 90.73 93.19 91.08 92.72 91.43 94.85 91.77 94.26 92.12 94.97 92.46 95.92 92.81 94.85 93.15 94.14 93.5 93.43 93.85 92.36 94.19 92.36 94.54 90.59 94.88 91.89 95.23 90.47 95.58 90.11 95.92 94.14 96.27 96.51 96.61 97.82 96.96 96.99 97.3 99.47 97.65 98.88 98 100.07 98.34 98.65 98.69 96.28 99.03 95.56 99.38 97.22 99.72 96.28 100.07 98.17 100.42 96.16 100.76 96.63 101.11 97.58 101.45 97.58 101.8 98.53 102.15 97.1 102.49 98.05 102.84 98.53 103.18 99.24 103.53 101.84 103.87 102.79 104.22 100.9 104.57 100.42 104.91 99.83 105.26 99.24 105.6 102.32 105.95 103.39 106.29 101.96 106.64 101.96 106.99 103.15 107.33 101.02 107.68 100.54 108.02 99.36 108.37 100.19 108.72 100.9 109.06 98.41 109.41 97.46 109.75 98.88 110.1 100.3 110.44 100.54 110.79 99.47 111.14 101.25 111.48 101.49 111.83 100.07 112.17 105.87 112.52 107.3 112.86 107.18 113.21 109.78 113.56 108.48 113.9 109.9 114.25 108.95 114.59 108.48 114.94 108.13 115.29 109.9 115.63 108.36 115.98 107.65 116.32 106.23 116.67 106.82 117.01 106.11 117.36 106.11 117.71 103.98 118.05 102.56 118.4 101.37 118.74 102.2 119.09 103.39 119.43 104.33 119.78 102.44 120.13 105.52 120.47 107.41 120.82 105.4 121.16 103.5 121.51 105.64 121.86 107.3 122.2 107.06 122.55 104.69 122.89 102.44 123.24 102.67 123.58 101.02 123.93 99.71 124.28 99.12 124.62 96.99 124.97 95.92 125.31 100.78 125.66 100.9 126 100.54 126.35 99.71 126.7 102.32 127.04 104.93 127.39 105.04 127.73 106.94 128.08 109.55 128.43 107.18 128.77 105.64 129.12 105.04 129.46 106.58 129.81 106.47 130.15 105.52 130.5 107.89 130.85 107.77 131.19 104.81 131.54 104.33 131.88 105.76 132.23 103.74 132.57 105.16 132.92 107.65 133.27 109.43 133.61 110.73 133.96 110.61 134.3 111.68 134.65 108.24 135 109.55 135.34 108.24 135.69 108.6 136.03 107.77 136.38 108.36 136.72 105.16 137.07 106.7 137.42 105.99 137.76 107.41 138.11 106.94 138.45 107.06 138.8 105.76 139.14 105.99 139.49 103.5 139.84 102.2 140.18 103.62 140.53 101.73 140.87 101.49 141.22 100.54 141.57 99.83 141.91 99.24 142.26 98.76 142.6 98.88 142.95 98.53 143.29 96.28 143.64 94.97 143.99 95.33 144.33 95.09 144.68 97.1 145.02 100.42 145.37 101.25 145.71 102.67 146.06 102.79 146.41 104.45 146.75 104.81 147.1 105.28 147.44 101.49 147.79 101.49 148.14 102.79 148.48 100.66 148.83 101.02 149.17 103.39 149.52 103.27 149.86 99.24 150.21 98.65 150.56 99.24 150.9 99.47 151.25 97.7 151.59 99.83 151.94 103.27 152.28 103.03 152.63 101.13 152.98 99.71 153.32 99.71 153.67 102.91 154.01 105.64 154.36 105.04 154.71 103.5 155.05 103.62 155.4 101.13 155.74 101.25 156.09 98.65 156.43 95.33 156.78 96.39 157.13 96.99 157.47 97.22 157.82 99.83 158.16 100.9 158.51 102.79 158.85 102.79 159.2 103.03 159.55 101.73 159.89 97.58 160.24 100.3 160.58 98.17 160.93 97.34 161.28 99.59 161.62 98.76 161.97 97.22 162.31 98.05 162.66 97.46 163 94.62 163.35 98.29 163.7 98.88 164.04 99.95 164.39 99 164.73 96.39 165.08 97.1 165.42 98.17 165.77 96.63 166.12 94.73 166.46 94.73 166.81 94.62 167.15 96.39 167.5 97.58 167.85 94.5 168.19 92.72 168.54 90.47 168.88 91.06 169.23 90.71 169.57 91.3 169.92 92.72 170.27 94.14 170.61 93.55 170.96 94.38 171.3 93.55 171.65 94.85 171.99 92.96 172.34 94.26 172.69 94.62 173.03 94.73 173.38 94.97 173.72 96.87 174.07 99.12 174.42 99.95 174.76 101.61 175.11 99.71 175.45 99.71 175.8 100.66 176.14 101.13 176.49 101.25 176.84 101.84 177.18 102.67 177.53 103.74 177.87 106.35 178.22 108.48 178.56 109.43 178.91 111.92 179.26 110.14 179.6 109.55 179.95 108.48 180.29 106.47 180.64 104.21 180.99 103.62 181.33 104.81 181.68 102.44 182.02 105.28 182.37 104.21 182.71 102.56 183.06 102.67 183.41 103.15 183.75 101.02 184.1 101.96 184.44 103.15 184.79 102.67 185.13 104.45 185.48 104.81 185.83 103.74 186.17 104.1 186.52 103.15 186.86 103.74 187.21 107.18 187.56 109.31 187.9 108.6 188.25 110.5 188.59 109.55 188.94 111.32 189.28 109.67 189.63 111.21 189.98 110.38 190.32 108.95 190.67 107.53 191.01 106.82 191.36 108.95 191.7 108.84 192.05 106.82 192.4 105.16 192.74 108.13 193.09 108.36 193.43 107.89 193.78 107.65 194.13 106.94 194.47 109.67 194.82 104.81 195.16 102.79 195.51 102.2 195.85 100.3 196.2 100.3"/>
      </g>
      <g stroke-width="0.3" fill="#000000" fill-opacity="0.000" class="geometry" stroke-dasharray="none" stroke="#66C2A5" id="img-34597583-11">
        <path fill="none" d="M23.65,71.86 L 24 71.39 24.34 71.15 24.69 73.4 25.03 71.51 25.38 73.05 25.73 74.35 26.07 72.69 26.42 76.72 26.76 75.3 27.11 78.26 27.45 77.43 27.8 77.08 28.15 75.77 28.49 76.13 28.84 77.2 29.18 79.45 29.53 77.79 29.88 79.57 30.22 78.86 30.57 78.03 30.91 79.09 31.26 76.72 31.6 79.09 31.95 76.01 32.3 73.29 32.64 74.94 32.99 73.52 33.33 73.52 33.68 77.31 34.02 80.63 34.37 81.94 34.72 83.83 35.06 82.29 35.41 78.97 35.75 77.55 36.1 78.97 36.45 79.33 36.79 78.74 37.14 79.8 37.48 82.77 37.83 81.34 38.17 81.94 38.52 84.19 38.87 86.2 39.21 85.14 39.56 85.85 39.9 88.1 40.25 86.08 40.59 85.25 40.94 83.48 41.29 84.31 41.63 82.17 41.98 82.77 42.32 84.31 42.67 83.6 43.02 83.36 43.36 82.41 43.71 81.94 44.05 82.88 44.4 83 44.74 81.58 45.09 80.75 45.44 81.34 45.78 85.14 46.13 87.86 46.47 87.03 46.82 88.69 47.16 90.59 47.51 93.43 47.86 91.53 48.2 95.92 48.55 94.14 48.89 94.73 49.24 92.72 49.59 91.42 49.93 91.65 50.28 95.68 50.62 93.55 50.97 91.18 51.31 89.88 51.66 93.55 52.01 96.16 52.35 97.46 52.7 98.17 53.04 99 53.39 99.95 53.73 100.19 54.08 101.73 54.43 102.44 54.77 102.79 55.12 101.96 55.46 101.02 55.81 101.84 56.16 100.78 56.5 103.03 56.85 101.84 57.19 100.07 57.54 97.34 57.88 101.49 58.23 101.37 58.58 102.32 58.92 103.39 59.27 101.73 59.61 100.54 59.96 96.39 60.3 97.7 60.65 99.12 61 101.25 61.34 101.84 61.69 105.04 62.03 101.61 62.38 100.78 62.73 100.9 63.07 99 63.42 98.05 63.76 99.95 64.11 100.9 64.45 99.47 64.8 96.99 65.15 99.71 65.49 97.46 65.84 97.34 66.18 101.61 66.53 101.37 66.87 102.32 67.22 100.54 67.57 99.71 67.91 99.24 68.26 99.12 68.6 98.53 68.95 99.24 69.3 96.51 69.64 96.51 69.99 96.04 70.33 97.7 70.68 99.12 71.02 99.47 71.37 102.32 71.72 103.86 72.06 103.39 72.41 103.03 72.75 104.81 73.1 105.64 73.44 103.15 73.79 103.39 74.14 99.59 74.48 102.56 74.83 102.79 75.17 105.04 75.52 105.76 75.87 101.13 76.21 101.37 76.56 104.69 76.9 106.94 77.25 107.77 77.59 110.26 77.94 107.18 78.29 107.18 78.63 106.94 78.98 106.11 79.32 105.28 79.67 108.01 80.01 106.82 80.36 105.87 80.71 104.45 81.05 107.53 81.4 108.48 81.74 108.72 82.09 109.55 82.44 111.32 82.78 112.27 83.13 112.15 83.47 111.44 83.82 112.27 84.16 112.98 84.51 114.17 84.86 114.29 85.2 114.88 85.55 115 85.89 115.35 86.24 112.51 86.58 112.15 86.93 115.71 87.28 116.18 87.62 117.37 87.97 119.03 88.31 119.86 88.66 117.72 89.01 117.13 89.35 116.3 89.7 117.61 90.04 117.37 90.39 116.78 90.73 117.13 91.08 116.07 91.43 115.12 91.77 117.13 92.12 116.42 92.46 117.96 92.81 117.49 93.15 118.91 93.5 118.79 93.85 117.01 94.19 117.37 94.54 116.42 94.88 117.49 95.23 116.42 95.58 116.18 95.92 117.01 96.27 117.13 96.61 118.79 96.96 119.38 97.3 121.16 97.65 121.87 98 123.41 98.34 123.29 98.69 121.87 99.03 121.63 99.38 121.75 99.72 123.77 100.07 124.24 100.42 123.89 100.76 124.72 101.11 125.9 101.45 124.48 101.8 125.55 102.15 125.19 102.49 125.31 102.84 124.24 103.18 123.06 103.53 124.6 103.87 123.65 104.22 122.23 104.57 123.29 104.91 124.6 105.26 125.31 105.6 124.6 105.95 124.6 106.29 125.55 106.64 125.55 106.99 125.55 107.33 125.43 107.68 125.31 108.02 124.83 108.37 125.07 108.72 124.6 109.06 124 109.41 124.36 109.75 125.31 110.1 125.55 110.44 126.26 110.79 126.26 111.14 126.26 111.48 126.02 111.83 127.56 112.17 128.63 112.52 128.15 112.86 129.22 113.21 129.81 113.56 129.69 113.9 130.52 114.25 130.05 114.59 129.57 114.94 130.29 115.29 130.4 115.63 130.05 115.98 130.29 116.32 130.29 116.67 130.64 117.01 130.52 117.36 131.11"/>
      </g>
      <g stroke-width="0.3" fill="#000000" fill-opacity="0.000" class="geometry" stroke-dasharray="none" stroke="#ABDDA4" id="img-34597583-12">
        <path fill="none" d="M23.65,71.86 L 24 70.56 24.34 72.69 24.69 70.32 25.03 69.97 25.38 69.14 25.73 67.36 26.07 66.06 26.42 66.53 26.76 63.33 27.11 60.13 27.45 61.08 27.8 58.12 28.15 60.96 28.49 60.84 28.84 61.32 29.18 62.15 29.53 63.81 29.88 63.09 30.22 64.75 30.57 65.46 30.91 66.18 31.26 63.33 31.6 63.57 31.95 63.92 32.3 64.28 32.64 67.12 32.99 64.87 33.33 66.29 33.68 65.35 34.02 66.06 34.37 65.94 34.72 64.16 35.06 63.33 35.41 61.79 35.75 63.45 36.1 63.45 36.45 61.08 36.79 60.96 37.14 61.2 37.48 60.01 37.83 62.15 38.17 65.23 38.52 64.99 38.87 62.38 39.21 65.11 39.56 63.81 39.9 66.41 40.25 68.19 40.59 69.26 40.94 68.66 41.29 66.18 41.63 69.97 41.98 65.23 42.32 65.82 42.67 65.23 43.02 68.19 43.36 65.58 43.71 63.09 44.05 65.35 44.4 65.82 44.74 64.04 45.09 64.16 45.44 66.89 45.78 65.82 46.13 65.11 46.47 67.24 46.82 71.51 47.16 70.68 47.51 72.34 47.86 73.76 48.2 75.42 48.55 75.18 48.89 74.47 49.24 73.52 49.59 74.23 49.93 70.8 50.28 71.03 50.62 70.44 50.97 71.74 51.31 72.81 51.66 73.52 52.01 74.35 52.35 70.2 52.7 72.69 53.04 76.13 53.39 75.77 53.73 77.2 54.08 74.71 54.43 75.89 54.77 74 55.12 74 55.46 71.74 55.81 75.42 56.16 74.23 56.5 76.48 56.85 79.09 57.19 77.2 57.54 78.62 57.88 82.88 58.23 85.14 58.58 87.74 58.92 84.9 59.27 85.14 59.61 85.02 59.96 88.34 60.3 87.74 60.65 85.61 61 86.08 61.34 87.62 61.69 90.71 62.03 91.3 62.38 89.05 62.73 91.42 63.07 89.64 63.42 87.03 63.76 88.69 64.11 87.51 64.45 87.98 64.8 88.34 65.15 87.62 65.49 86.56 65.84 85.85 66.18 87.62 66.53 87.62 66.87 88.57 67.22 87.03 67.57 90.35 67.91 91.06 68.26 89.64 68.6 91.06 68.95 91.06 69.3 88.69 69.64 89.4 69.99 88.22 70.33 88.57 70.68 87.15 71.02 85.02 71.37 86.08 71.72 85.14 72.06 81.94 72.41 82.41 72.75 89.28 73.1 90.35 73.44 90.47 73.79 87.86 74.14 86.44 74.48 86.08 74.83 86.32 75.17 85.25 75.52 86.44 75.87 88.22 76.21 88.81 76.56 90.11 76.9 90.47 77.25 89.88 77.59 89.88 77.94 87.86 78.29 84.78 78.63 80.87 78.98 83.12 79.32 82.29 79.67 83.48 80.01 82.05 80.36 83.83 80.71 82.77 81.05 84.9 81.4 83 81.74 83.71 82.09 87.03 82.44 86.68 82.78 86.56 83.13 87.15 83.47 87.74 83.82 88.57 84.16 89.99 84.51 86.44 84.86 89.4 85.2 89.64 85.55 92.13 85.89 89.16 86.24 88.45 86.58 90.59 86.93 88.57 87.28 89.4 87.62 89.16 87.97 88.57 88.31 84.9 88.66 84.42 89.01 85.02 89.35 83.71 89.7 85.25 90.04 86.91 90.39 88.1 90.73 86.32 91.08 81.94 91.43 81.11 91.77 81.23 92.12 83.12 92.46 83 92.81 83.95 93.15 84.78 93.5 83 93.85 81.82 94.19 80.28 94.54 82.17 94.88 80.04 95.23 81.46 95.58 84.42 95.92 81.94 96.27 81.11 96.61 80.75 96.96 79.92 97.3 80.04 97.65 79.45 98 80.99 98.34 81.11 98.69 78.62 99.03 75.54 99.38 75.66 99.72 76.13 100.07 76.84 100.42 74.94 100.76 76.96 101.11 74.83 101.45 74.94 101.8 76.96 102.15 74 102.49 70.8 102.84 70.2 103.18 68.66 103.53 70.2 103.87 68.43 104.22 64.63 104.57 62.62 104.91 64.75 105.26 65.58 105.6 67 105.95 69.97 106.29 66.77 106.64 66.41 106.99 64.52 107.33 61.44 107.68 60.96 108.02 56.93 108.37 58 108.72 58.47 109.06 59.18 109.41 61.08 109.75 59.78 110.1 58.47 110.44 58 110.79 60.49 111.14 59.06 111.48 60.72 111.83 62.26 112.17 62.15 112.52 64.28 112.86 63.09 113.21 60.84 113.56 61.32 113.9 60.72 114.25 58.47 114.59 58.24 114.94 55.75 115.29 55.75 115.63 56.46 115.98 54.92 116.32 54.92 116.67 54.21 117.01 54.21 117.36 54.68 117.71 53.97 118.05 55.39 118.4 56.22 118.74 58.12 119.09 56.81 119.43 58.35 119.78 55.63 120.13 57.17 120.47 59.66 120.82 61.32 121.16 60.61 121.51 58 121.86 54.44 122.2 54.21 122.55 53.38 122.89 54.68 123.24 54.09 123.58 55.98 123.93 55.39 124.28 55.27 124.62 53.26 124.97 51.6 125.31 52.19 125.66 51.01 126 48.87 126.35 49.82 126.7 49.94 127.04 51.48 127.39 49.35 127.73 47.45 128.08 42.95 128.43 41.05 128.77 38.8 129.12 39.39 129.46 41.41 129.81 39.87 130.15 38.68 130.5 38.45 130.85 38.21 131.19 37.14 131.54 33.82 131.88 35.36 132.23 36.19 132.57 36.9 132.92 36.19 133.27 33.11 133.61 33.11 133.96 32.88 134.3 32.16 134.65 32.99 135 29.91 135.34 32.16 135.69 32.99 136.03 31.34 136.38 33.94 136.72 34.65 137.07 33.35 137.42 32.28 137.76 35.25 138.11 36.79 138.45 38.09 138.8 37.38 139.14 35.48 139.49 35.96 139.84 37.73 140.18 36.08 140.53 34.06 140.87 32.05 141.22 34.3 141.57 32.99 141.91 32.16 142.26 33.71 142.6 34.18 142.95 34.89 143.29 35.96 143.64 36.55 143.99 37.73 144.33 38.92 144.68 38.33 145.02 38.45 145.37 39.16 145.71 37.73 146.06 37.85 146.41 36.08 146.75 35.72 147.1 34.18 147.44 35.48 147.79 35.01 148.14 36.9 148.48 36.19 148.83 34.77 149.17 32.05 149.52 34.42 149.86 32.99 150.21 32.4 150.56 34.77 150.9 34.89 151.25 37.85 151.59 38.09 151.94 38.92 152.28 39.04 152.63 39.63 152.98 39.39 153.32 39.04 153.67 39.63 154.01 40.46 154.36 39.27 154.71 38.33 155.05 38.92 155.4 37.97 155.74 37.38 156.09 37.26 156.43 36.43 156.78 37.73 157.13 40.82 157.47 40.34 157.82 40.7 158.16 41.05 158.51 41.17 158.85 42 159.2 39.75 159.55 41.05 159.89 40.58 160.24 42.12 160.58 45.2 160.93 46.27 161.28 46.15 161.62 45.32 161.97 44.13 162.31 43.66 162.66 44.02 163 45.2 163.35 43.42 163.7 44.02 164.04 46.98 164.39 46.74 164.73 46.74 165.08 47.33 165.42 48.64 165.77 50.77 166.12 51.84 166.46 50.53 166.81 51.01 167.15 49.58 167.5 49.23 167.85 48.52 168.19 51.6 168.54 52.9 168.88 50.89 169.23 51.84 169.57 53.73 169.92 54.44 170.27 56.22 170.61 54.21 170.96 52.55 171.3 52.07 171.65 48.52 171.99 49.94 172.34 54.21 172.69 55.39 173.03 54.56 173.38 55.15 173.72 57.88 174.07 58.35 174.42 57.29 174.76 59.66 175.11 58.59 175.45 61.08 175.8 61.91 176.14 59.54 176.49 60.49 176.84 64.16 177.18 61.67 177.53 62.38 177.87 61.44 178.22 60.72 178.56 58.35 178.91 60.37 179.26 61.08 179.6 60.72 179.95 60.25 180.29 57.76 180.64 60.84 180.99 60.84 181.33 61.08 181.68 61.08 182.02 63.57 182.37 65.35 182.71 64.99 183.06 64.63 183.41 64.04 183.75 67 184.1 66.77 184.44 63.57 184.79 61.08 185.13 65.46 185.48 65.35 185.83 64.4 186.17 65.94 186.52 66.18 186.86 65.35 187.21 62.38 187.56 60.01 187.9 59.54 188.25 60.96 188.59 60.96 188.94 59.66 189.28 59.18 189.63 56.69 189.98 55.27 190.32 56.58 190.67 57.52 191.01 59.54 191.36 57.41 191.7 56.69 192.05 55.15 192.4 52.43 192.74 51.01 193.09 49.23 193.43 49.47 193.78 51.48 194.13 52.31 194.47 50.41 194.82 48.16 195.16 47.21 195.51 47.21 195.85 47.81 196.2 49.7"/>
      </g>
      <g stroke-width="0.3" fill="#000000" fill-opacity="0.000" class="geometry" stroke-dasharray="none" stroke="#E6F598" id="img-34597583-13">
        <path fill="none" d="M23.65,71.86 L 24 70.2 24.34 69.37 24.69 68.9 25.03 70.09 25.38 69.97 25.73 72.57 26.07 74.35 26.42 76.84 26.76 75.89 27.11 76.72 27.45 75.3 27.8 70.92 28.15 70.68 28.49 73.4 28.84 71.98 29.18 72.22 29.53 70.8 29.88 68.43 30.22 69.26 30.57 67.36 30.91 67.6 31.26 66.77 31.6 65.7 31.95 67.72 32.3 67.24 32.64 67.36 32.99 69.61 33.33 71.03 33.68 71.51 34.02 71.15 34.37 71.86 34.72 68.55 35.06 66.29 35.41 67.72 35.75 68.43 36.1 70.44 36.45 70.2 36.79 68.31 37.14 67.6 37.48 70.68 37.83 67.48 38.17 70.44 38.52 70.09 38.87 69.02 39.21 69.37 39.56 69.02 39.9 70.68 40.25 69.49 40.59 69.37 40.94 70.09 41.29 71.39 41.63 71.03 41.98 72.1 42.32 74.47 42.67 76.96 43.02 76.01 43.36 79.45 43.71 79.92 44.05 80.87 44.4 81.58 44.74 80.28 45.09 81.34 45.44 81.7 45.78 83.95 46.13 83.6 46.47 81.94 46.82 79.68 47.16 79.33 47.51 80.51 47.86 80.04 48.2 76.72 48.55 78.26 48.89 75.89 49.24 77.79 49.59 77.2 49.93 74.11 50.28 72.34 50.62 70.44 50.97 72.81 51.31 71.63 51.66 74.94 52.01 71.51 52.35 70.92 52.7 73.52 53.04 73.4 53.39 76.37 53.73 77.43 54.08 76.48 54.43 75.42 54.77 76.72 55.12 77.2 55.46 78.74 55.81 77.79 56.16 77.79 56.5 77.79 56.85 79.45 57.19 76.48 57.54 79.09 57.88 81.94 58.23 80.87 58.58 83.6 58.92 86.32 59.27 87.39 59.61 87.74 59.96 87.15 60.3 86.68 60.65 86.79 61 85.97 61.34 87.74 61.69 88.93 62.03 85.85 62.38 87.62 62.73 86.79 63.07 87.27 63.42 87.51 63.76 87.98 64.11 89.28 64.45 88.81 64.8 88.69 65.15 88.69 65.49 86.56 65.84 87.15 66.18 87.98 66.53 88.93 66.87 91.53 67.22 92.84 67.57 90.35 67.91 91.77 68.26 91.65 68.6 92.01 68.95 93.43 69.3 95.09 69.64 93.19 69.99 92.48 70.33 92.01 70.68 92.13 71.02 93.19 71.37 93.67 71.72 94.5 72.06 92.48 72.41 94.62 72.75 93.43 73.1 93.31 73.44 93.43 73.79 88.57 74.14 88.93 74.48 90.35 74.83 89.05 75.17 87.27 75.52 86.79 75.87 88.57 76.21 87.03 76.56 86.68 76.9 86.79 77.25 86.32 77.59 87.15 77.94 87.74 78.29 87.98 78.63 86.32 78.98 87.51 79.32 86.08 79.67 87.74 80.01 88.34 80.36 87.27 80.71 86.2 81.05 88.69 81.4 85.97 81.74 89.16 82.09 93.55 82.44 93.31 82.78 93.43 83.13 91.18 83.47 92.36 83.82 92.84 84.16 89.99 84.51 92.01 84.86 90.94 85.2 93.9 85.55 92.36 85.89 92.36 86.24 90.23 86.58 89.64 86.93 89.28 87.28 88.22 87.62 92.72 87.97 88.93 88.31 93.67 88.66 93.43 89.01 89.16 89.35 90.35 89.7 90.71 90.04 92.25 90.39 94.26 90.73 91.06 91.08 89.64 91.43 88.93 91.77 90.23 92.12 92.6 92.46 92.96 92.81 93.55 93.15 94.62 93.5 94.5 93.85 93.67 94.19 91.53 94.54 93.67 94.88 94.62 95.23 92.13 95.58 93.19 95.92 92.84 96.27 88.34 96.61 90.23 96.96 90.71 97.3 89.99 97.65 90.35 98 91.89 98.34 92.72 98.69 91.18 99.03 93.67 99.38 91.42 99.72 91.18 100.07 90.23 100.42 90.71 100.76 92.01 101.11 94.97 101.45 96.87 101.8 96.16 102.15 95.92 102.49 93.67 102.84 94.97 103.18 94.62 103.53 93.08 103.87 93.67 104.22 92.96 104.57 95.21 104.91 96.63 105.26 96.16 105.6 94.14 105.95 92.72 106.29 94.02 106.64 94.97 106.99 95.8 107.33 93.19 107.68 93.55 108.02 92.6 108.37 90.11 108.72 88.34 109.06 87.86 109.41 88.45 109.75 89.28 110.1 88.93 110.44 86.32 110.79 88.81 111.14 87.15 111.48 88.34 111.83 88.1 112.17 87.15 112.52 85.85 112.86 86.91 113.21 85.85 113.56 87.62 113.9 89.76 114.25 90.47 114.59 90.82 114.94 89.88 115.29 88.1 115.63 87.03 115.98 90.82 116.32 92.36 116.67 96.39 117.01 97.22 117.36 96.75 117.71 94.73 118.05 94.73 118.4 98.17 118.74 98.53 119.09 99.12 119.43 99.47 119.78 102.67 120.13 101.49 120.47 98.88 120.82 99.24 121.16 99.83 121.51 99.24 121.86 98.65 122.2 99.71 122.55 102.56 122.89 103.27 123.24 102.79 123.58 104.57 123.93 104.69 124.28 104.33 124.62 104.57 124.97 104.93 125.31 102.44 125.66 101.61 126 104.45 126.35 103.5 126.7 103.5 127.04 102.79 127.39 102.67 127.73 105.16 128.08 107.3 128.43 108.48 128.77 109.19 129.12 109.9 129.46 112.51 129.81 112.51 130.15 114.05 130.5 113.34 130.85 112.39 131.19 115.71 131.54 118.67 131.88 117.49 132.23 117.72 132.57 114.88 132.92 115.83 133.27 115.59 133.61 116.66 133.96 115.24 134.3 115.83 134.65 115.71 135 117.72 135.34 118.67 135.69 118.79 136.03 117.37 136.38 115 136.72 113.46 137.07 113.58 137.42 113.22 137.76 111.68 138.11 111.44 138.45 110.5 138.8 110.14 139.14 110.02 139.49 107.53 139.84 108.01 140.18 109.19 140.53 109.67 140.87 110.73 141.22 109.78 141.57 111.21 141.91 110.5 142.26 108.84 142.6 105.16 142.95 106.58 143.29 107.53 143.64 105.16 143.99 102.67 144.33 103.62 144.68 103.74 145.02 103.5 145.37 105.52 145.71 106.82 146.06 105.28 146.41 104.69 146.75 104.1 147.1 105.28 147.44 103.27 147.79 101.37 148.14 99.36 148.48 96.63 148.83 96.75 149.17 98.76 149.52 98.65 149.86 97.82 150.21 95.92 150.56 98.41 150.9 99 151.25 96.28 151.59 99 151.94 99.47 152.28 97.7 152.63 96.39 152.98 94.26 153.32 94.02 153.67 93.08 154.01 89.05 154.36 94.73 154.71 92.96 155.05 92.96 155.4 95.68 155.74 95.33 156.09 94.62 156.43 95.56 156.78 93.55 157.13 94.26 157.47 93.9 157.82 94.62 158.16 94.85 158.51 95.09 158.85 96.51 159.2 94.14 159.55 95.33 159.89 96.99 160.24 93.9 160.58 95.92 160.93 93.43 161.28 93.55 161.62 96.39 161.97 94.62 162.31 94.26 162.66 93.79 163 94.85 163.35 96.75 163.7 94.97 164.04 92.72 164.39 90.82 164.73 90.35 165.08 88.34 165.42 85.37 165.77 83 166.12 82.77 166.46 82.05 166.81 84.54 167.15 86.56 167.5 87.15 167.85 89.4 168.19 87.62 168.54 87.03 168.88 85.97 169.23 83.71 169.57 84.07 169.92 85.37 170.27 84.07 170.61 83.6 170.96 83.83 171.3 82.88 171.65 82.65 171.99 85.02 172.34 84.9 172.69 84.54 173.03 83.95 173.38 82.88 173.72 81.23 174.07 81.46 174.42 81.94 174.76 86.79 175.11 84.66 175.45 83.36 175.8 84.9 176.14 84.07 176.49 87.62 176.84 87.51 177.18 87.27 177.53 86.44 177.87 86.68 178.22 86.08 178.56 89.52 178.91 89.16 179.26 89.16 179.6 90.47 179.95 88.81 180.29 86.91 180.64 88.57 180.99 90.35 181.33 91.18 181.68 93.79 182.02 93.79 182.37 92.36 182.71 96.28 183.06 95.56 183.41 96.04 183.75 95.56 184.1 96.63 184.44 94.62 184.79 96.04 185.13 97.34 185.48 97.34 185.83 96.75 186.17 96.04 186.52 94.97 186.86 96.51 187.21 96.99 187.56 97.82 187.9 97.58 188.25 98.65 188.59 99.36 188.94 97.58 189.28 97.46 189.63 98.41 189.98 98.53 190.32 99.36 190.67 100.42 191.01 99.59 191.36 96.63 191.7 95.8 192.05 96.39 192.4 94.73 192.74 95.8 193.09 93.67 193.43 94.02 193.78 94.02 194.13 95.56 194.47 98.88 194.82 96.63 195.16 97.22 195.51 101.37 195.85 101.84 196.2 102.08"/>
      </g>
      <g stroke-width="0.3" fill="#000000" fill-opacity="0.000" class="geometry" stroke-dasharray="none" stroke="#FFFFBF" id="img-34597583-14">
        <path fill="none" d="M23.65,71.86 L 24 76.25 24.34 75.42 24.69 77.79 25.03 77.08 25.38 79.09 25.73 80.16 26.07 80.16 26.42 81.94 26.76 82.05 27.11 80.63 27.45 82.41 27.8 86.56 28.15 87.86 28.49 83.83 28.84 81.34 29.18 79.21 29.53 78.5 29.88 79.21 30.22 79.45 30.57 78.74 30.91 73.88 31.26 76.96 31.6 76.13 31.95 77.79 32.3 76.25 32.64 74.71 32.99 75.89 33.33 74 33.68 74 34.02 73.29 34.37 72.57 34.72 74.23 35.06 76.25 35.41 74.11 35.75 72.57 36.1 70.09 36.45 69.49 36.79 71.15 37.14 70.44 37.48 70.32 37.83 72.93 38.17 75.42 38.52 73.88 38.87 73.05 39.21 73.4 39.56 71.86 39.9 72.34 40.25 74.35 40.59 77.91 40.94 78.26 41.29 77.2 41.63 74.94 41.98 75.42 42.32 76.6 42.67 75.77 43.02 74.35 43.36 71.39 43.71 71.27 44.05 73.29 44.4 70.56 44.74 70.92 45.09 70.56 45.44 70.92 45.78 73.05 46.13 72.69 46.47 75.66 46.82 78.38 47.16 78.62 47.51 79.21 47.86 77.67 48.2 77.79 48.55 76.96 48.89 75.66 49.24 74.11 49.59 74.23 49.93 79.21 50.28 79.33 50.62 80.87 50.97 81.82 51.31 79.68 51.66 76.84 52.01 75.06 52.35 74.23 52.7 72.69 53.04 71.51 53.39 72.1 53.73 75.06 54.08 75.54 54.43 74.47 54.77 72.1 55.12 69.37 55.46 69.85 55.81 68.55 56.16 70.68 56.5 67.36 56.85 69.26 57.19 68.78 57.54 68.66 57.88 66.89 58.23 68.43 58.58 67.95 58.92 68.43 59.27 69.14 59.61 68.07 59.96 69.14 60.3 69.61 60.65 70.2 61 70.92 61.34 73.4 61.69 72.69 62.03 69.97 62.38 69.37 62.73 70.68 63.07 70.32 63.42 71.51 63.76 70.8 64.11 73.52 64.45 77.31 64.8 76.6 65.15 75.66 65.49 76.01 65.84 74.94 66.18 78.62 66.53 77.43 66.87 76.96 67.22 75.42 67.57 75.18 67.91 73.76 68.26 76.13 68.6 75.42 68.95 72.93 69.3 73.76 69.64 73.05 69.99 71.51 70.33 70.92 70.68 67.83 71.02 65.82 71.37 66.29 71.72 66.77 72.06 65.11 72.41 65.35 72.75 63.33 73.1 62.98 73.44 67.36 73.79 65.11 74.14 63.92 74.48 62.5 74.83 60.61 75.17 58.71 75.52 58.71 75.87 60.84 76.21 61.32 76.56 58.71 76.9 57.41 77.25 58.95 77.59 55.15 77.94 52.07 78.29 56.1 78.63 54.92 78.98 55.63 79.32 56.81 79.67 53.73 80.01 54.56 80.36 54.56 80.71 51.72 81.05 54.56 81.4 54.32 81.74 55.39 82.09 52.78 82.44 54.68 82.78 57.17 83.13 58 83.47 56.69 83.82 53.73 84.16 56.58 84.51 55.87 84.86 54.8 85.2 53.14 85.55 53.26 85.89 52.19 86.24 49.58 86.58 51.72 86.93 52.55 87.28 54.44 87.62 54.68 87.97 50.06 88.31 49.35 88.66 49.94 89.01 47.21 89.35 49.11 89.7 48.52 90.04 47.33 90.39 46.62 90.73 46.27 91.08 45.56 91.43 45.44 91.77 42.83 92.12 41.53 92.46 42.12 92.81 41.17 93.15 41.64 93.5 40.93 93.85 41.64 94.19 42.83 94.54 41.76 94.88 39.51 95.23 41.53 95.58 43.3 95.92 42.59 96.27 39.99 96.61 39.27 96.96 39.87 97.3 37.38 97.65 33.94 98 35.13 98.34 37.26 98.69 37.97 99.03 37.73 99.38 37.97 99.72 36.31 100.07 38.33 100.42 35.01 100.76 34.89 101.11 35.36 101.45 35.25 101.8 37.85 102.15 39.27 102.49 37.73 102.84 34.65 103.18 33.71 103.53 36.19 103.87 35.84 104.22 36.79 104.57 36.19 104.91 36.67 105.26 38.45 105.6 37.73 105.95 37.73 106.29 38.8 106.64 40.7 106.99 39.27 107.33 39.87 107.68 39.63 108.02 39.51 108.37 39.27 108.72 42.83 109.06 39.75 109.41 37.38 109.75 40.1 110.1 39.39 110.44 35.48 110.79 35.36 111.14 37.02 111.48 38.45 111.83 38.33 112.17 38.21 112.52 36.55 112.86 39.51 113.21 42.36 113.56 41.53 113.9 40.7 114.25 39.16 114.59 39.51 114.94 41.17 115.29 39.51 115.63 38.68 115.98 39.75 116.32 37.73 116.67 36.43 117.01 36.67 117.36 35.96 117.71 34.06 118.05 32.64 118.4 31.45 118.74 31.57 119.09 32.64 119.43 33.59 119.78 32.64 120.13 32.88 120.47 30.27 120.82 29.68 121.16 28.37 121.51 28.49 121.86 27.19 122.2 25.29 122.55 24.94 122.89 24.46 123.24 24.82 123.58 24.58 123.93 24.22 124.28 23.28 124.62 23.63 124.97 24.46 125.31 24.7 125.66 24.22 126 25.17 126.35 25.29 126.7 26.71 127.04 28.85 127.39 27.9 127.73 27.31 128.08 24.82 128.43 24.94 128.77 25.53 129.12 25.05 129.46 24.94 129.81 23.75 130.15 23.51 130.5 26 130.85 25.88 131.19 28.73 131.54 27.31 131.88 25.88 132.23 25.53 132.57 24.46 132.92 24.11 133.27 23.99 133.61 23.99 133.96 23.51 134.3 21.14 134.65 20.79 135 21.26 135.34 22.33 135.69 22.21 136.03 23.28 136.38 23.04 136.72 22.68 137.07 22.68 137.42 24.58 137.76 23.75 138.11 25.05 138.45 24.82 138.8 23.28 139.14 22.45 139.49 23.04 139.84 22.57 140.18 22.92 140.53 22.8 140.87 22.45 141.22 21.97 141.57 23.04 141.91 23.87 142.26 23.28 142.6 24.58 142.95 24.82 143.29 24.94 143.64 26.12 143.99 26.6 144.33 26.12 144.68 23.99 145.02 23.63 145.37 23.51 145.71 22.57 146.06 20.55 146.41 21.5 146.75 21.03 147.1 22.09 147.44 22.21 147.79 23.28 148.14 23.51 148.48 23.63 148.83 24.82 149.17 23.63 149.52 24.11 149.86 23.51 150.21 23.4 150.56 23.16 150.9 22.45 151.25 22.8 151.59 21.97 151.94 21.74 152.28 22.45 152.63 23.51 152.98 23.28 153.32 23.51 153.67 23.87 154.01 24.46 154.36 25.53 154.71 27.07 155.05 27.07 155.4 26.48 155.74 26.95 156.09 28.14 156.43 28.14 156.78 28.02 157.13 29.56 157.47 29.56 157.82 30.62 158.16 31.22 158.51 30.86 158.85 29.68 159.2 30.98 159.55 31.69 159.89 30.27 160.24 30.86 160.58 31.1 160.93 30.98 161.28 30.51 161.62 30.15 161.97 31.1 162.31 30.27 162.66 30.27 163 30.03 163.35 29.44 163.7 29.32 164.04 31.34 164.39 29.32 164.73 27.42 165.08 26.6 165.42 26.71 165.77 26.36 166.12 25.77 166.46 26.36 166.81 26.24 167.15 26 167.5 27.66 167.85 29.32 168.19 29.56 168.54 28.02 168.88 29.44 169.23 29.2 169.57 28.02 169.92 30.03 170.27 31.93 170.61 34.65 170.96 35.01 171.3 34.77 171.65 36.08 171.99 34.53 172.34 34.3 172.69 33.47 173.03 31.45 173.38 33.35 173.72 34.42 174.07 36.43 174.42 36.67 174.76 37.97 175.11 38.8 175.45 39.04 175.8 39.16 176.14 39.51 176.49 41.76 176.84 41.41 177.18 40.1 177.53 40.34 177.87 40.22 178.22 40.82 178.56 43.07 178.91 44.25 179.26 42.36 179.6 45.91 179.95 49.82 180.29 52.55 180.64 51.95 180.99 49.23 181.33 49.47 181.68 50.41 182.02 48.28 182.37 50.89 182.71 52.55 183.06 54.44 183.41 51.01 183.75 50.41 184.1 54.44 184.44 54.44 184.79 55.51 185.13 54.44 185.48 55.15 185.83 56.69 186.17 55.51 186.52 60.13 186.86 60.84 187.21 57.76 187.56 57.52 187.9 58.95 188.25 60.25 188.59 61.79 188.94 62.15 189.28 62.5 189.63 60.84 189.98 60.37 190.32 60.13 190.67 60.49 191.01 59.54 191.36 60.13 191.7 60.72 192.05 56.1 192.4 56.46 192.74 57.29 193.09 59.54 193.43 62.38 193.78 59.18 194.13 59.42 194.47 55.04 194.82 53.73 195.16 56.69 195.51 55.63 195.85 54.8 196.2 56.93"/>
      </g>
      <g stroke-width="0.3" fill="#000000" fill-opacity="0.000" class="geometry" stroke-dasharray="none" stroke="#FEE08B" id="img-34597583-15">
        <path fill="none" d="M23.65,71.86 L 24 75.66 24.34 73.52 24.69 73.17 25.03 74.94 25.38 75.3 25.73 71.98 26.07 73.76 26.42 74.83 26.76 75.66 27.11 71.63 27.45 72.57 27.8 71.74 28.15 73.17 28.49 74.71 28.84 73.52 29.18 71.39 29.53 72.57 29.88 71.74 30.22 72.57 30.57 74.94 30.91 70.8 31.26 69.61 31.6 68.43 31.95 65.7 32.3 69.49 32.64 69.26 32.99 67.6 33.33 67.24 33.68 67.72 34.02 68.19 34.37 72.1 34.72 72.57 35.06 74 35.41 75.77 35.75 76.48 36.1 78.14 36.45 81.23 36.79 80.4 37.14 80.4 37.48 79.92 37.83 80.04 38.17 78.38 38.52 80.28 38.87 77.91 39.21 78.38 39.56 77.67 39.9 76.13 40.25 75.77 40.59 75.42 40.94 78.26 41.29 78.86 41.63 79.09 41.98 83 42.32 80.99 42.67 78.86 43.02 79.92 43.36 77.91 43.71 76.13 44.05 78.26 44.4 77.43 44.74 74.83 45.09 75.77 45.44 74.35 45.78 74.59 46.13 75.18 46.47 72.34 46.82 71.98 47.16 72.22 47.51 68.66 47.86 69.49 48.2 71.27 48.55 74.94 48.89 74.35 49.24 74.23 49.59 72.46 49.93 74.23 50.28 72.22 50.62 70.56 50.97 69.37 51.31 67 51.66 63.33 52.01 65.46 52.35 65.82 52.7 64.28 53.04 67.6 53.39 70.92 53.73 69.26 54.08 68.19 54.43 68.31 54.77 69.85 55.12 71.63 55.46 69.97 55.81 69.49 56.16 67.72 56.5 67.72 56.85 65.11 57.19 64.99 57.54 64.75 57.88 63.69 58.23 64.52 58.58 62.74 58.92 66.18 59.27 65.82 59.61 69.49 59.96 69.73 60.3 69.26 60.65 71.86 61 70.44 61.34 71.15 61.69 72.57 62.03 69.97 62.38 67.36 62.73 66.77 63.07 67.83 63.42 66.29 63.76 66.18 64.11 63.33 64.45 61.91 64.8 63.45 65.15 63.81 65.49 61.91 65.84 62.15 66.18 63.21 66.53 65.46 66.87 70.8 67.22 71.03 67.57 68.19 67.91 67.36 68.26 67.12 68.6 67.83 68.95 69.26 69.3 63.92 69.64 64.4 69.99 61.2 70.33 59.78 70.68 59.18 71.02 60.13 71.37 60.49 71.72 60.13 72.06 56.69 72.41 59.06 72.75 59.42 73.1 61.44 73.44 60.96 73.79 59.78 74.14 58.47 74.48 58 74.83 59.89 75.17 62.5 75.52 64.63 75.87 64.75 76.21 63.09 76.56 64.16 76.9 62.98 77.25 65.11 77.59 66.29 77.94 67.24 78.29 67.12 78.63 68.19 78.98 65.46 79.32 64.4 79.67 64.99 80.01 66.53 80.36 72.1 80.71 69.37 81.05 72.1 81.4 72.69 81.74 73.52 82.09 76.6 82.44 76.01 82.78 77.55 83.13 75.06 83.47 74.83 83.82 73.05 84.16 68.43 84.51 69.49 84.86 68.66 85.2 69.14 85.55 70.2 85.89 72.93 86.24 74.23 86.58 71.74 86.93 70.68 87.28 72.46 87.62 71.74 87.97 71.63 88.31 70.09 88.66 68.55 89.01 69.61 89.35 68.9 89.7 69.26 90.04 70.56 90.39 68.19 90.73 69.37 91.08 69.49 91.43 66.18 91.77 65.35 92.12 66.18 92.46 68.07 92.81 66.65 93.15 67.95 93.5 69.14 93.85 68.43 94.19 71.86 94.54 69.14 94.88 69.61 95.23 66.41 95.58 63.57 95.92 64.87 96.27 64.63 96.61 62.62 96.96 64.04 97.3 64.52 97.65 64.87 98 64.04 98.34 63.57 98.69 62.98 99.03 60.49 99.38 60.61 99.72 57.05 100.07 58.35 100.42 57.64 100.76 61.08 101.11 64.52 101.45 64.99 101.8 65.58 102.15 68.31 102.49 68.43 102.84 67 103.18 67.72 103.53 66.89 103.87 68.31 104.22 66.29 104.57 67.36 104.91 66.29 105.26 62.86 105.6 60.84 105.95 57.17 106.29 57.64 106.64 58.83 106.99 59.18 107.33 60.61 107.68 58.59 108.02 60.61 108.37 64.16 108.72 64.04 109.06 63.92 109.41 62.38 109.75 62.74 110.1 61.79 110.44 63.45 110.79 62.62 111.14 64.4 111.48 62.62 111.83 62.5 112.17 64.63 112.52 64.04 112.86 61.44 113.21 64.4 113.56 61.91 113.9 60.37 114.25 60.72 114.59 57.29 114.94 56.46 115.29 56.58 115.63 57.41 115.98 53.97 116.32 51.6 116.67 49.94 117.01 51.13 117.36 50.89 117.71 51.36 118.05 53.14 118.4 52.67 118.74 53.97 119.09 54.92 119.43 54.8 119.78 53.38 120.13 51.36 120.47 51.84 120.82 49.35 121.16 51.36 121.51 50.3 121.86 49.94 122.2 51.01 122.55 52.43 122.89 54.56 123.24 55.75 123.58 57.64 123.93 56.34 124.28 55.75 124.62 53.26 124.97 54.92 125.31 55.39 125.66 53.5 126 55.04 126.35 52.07 126.7 53.5 127.04 53.02 127.39 53.14 127.73 51.01 128.08 51.13 128.43 50.41 128.77 48.64 129.12 48.4 129.46 46.27 129.81 46.98 130.15 47.45 130.5 47.33 130.85 45.67 131.19 45.79 131.54 42.59 131.88 42.36 132.23 43.19 132.57 41.88 132.92 42.36 133.27 43.07 133.61 40.93 133.96 40.1 134.3 43.19 134.65 44.73 135 46.03 135.34 46.86 135.69 46.03 136.03 45.08 136.38 44.49 136.72 44.96 137.07 45.44 137.42 46.39 137.76 45.44 138.11 48.16 138.45 48.76 138.8 49.94 139.14 48.64 139.49 48.76 139.84 51.01 140.18 54.09 140.53 51.6 140.87 53.02 141.22 52.19 141.57 52.07 141.91 53.02 142.26 50.65 142.6 48.76 142.95 49.82 143.29 53.5 143.64 51.01 143.99 54.56 144.33 53.26 144.68 51.48 145.02 50.18 145.37 49.35 145.71 50.3 146.06 47.45 146.41 43.42 146.75 44.02 147.1 43.54 147.44 43.78 147.79 44.73 148.14 45.56 148.48 43.66 148.83 46.39 149.17 46.5 149.52 46.39 149.86 47.57 150.21 48.64 150.56 45.67 150.9 45.56 151.25 48.28 151.59 45.79 151.94 44.96 152.28 47.81 152.63 49.35 152.98 48.28 153.32 48.64 153.67 49.7 154.01 51.84 154.36 53.97 154.71 52.43 155.05 48.76 155.4 49.82 155.74 51.01 156.09 50.53 156.43 49.82 156.78 46.74 157.13 44.61 157.47 44.84 157.82 41.64 158.16 41.53 158.51 42.95 158.85 42.24 159.2 41.64 159.55 44.73 159.89 45.08 160.24 43.54 160.58 42.47 160.93 43.42 161.28 44.02 161.62 45.44 161.97 50.06 162.31 52.67 162.66 54.09 163 56.34 163.35 55.39 163.7 53.61 164.04 53.61 164.39 54.09 164.73 51.48 165.08 51.6 165.42 51.36 165.77 51.84 166.12 51.48 166.46 52.43 166.81 52.67 167.15 53.38 167.5 53.5 167.85 54.68 168.19 54.09 168.54 55.39 168.88 51.84 169.23 51.72 169.57 51.95 169.92 52.78 170.27 54.8 170.61 55.87 170.96 53.97 171.3 55.04 171.65 52.55 171.99 52.19 172.34 48.52 172.69 48.28 173.03 49.58 173.38 47.33 173.72 46.15 174.07 44.49 174.42 44.02 174.76 44.37 175.11 41.05 175.45 41.17 175.8 42.83 176.14 39.75 176.49 41.41 176.84 40.34 177.18 38.56 177.53 38.68 177.87 39.16 178.22 39.27 178.56 39.27 178.91 39.16 179.26 37.73 179.6 37.26 179.95 37.5 180.29 37.5 180.64 38.33 180.99 37.14 181.33 37.02 181.68 35.36 182.02 37.62 182.37 38.33 182.71 37.14 183.06 36.67 183.41 37.02 183.75 38.92 184.1 40.22 184.44 40.1 184.79 41.41 185.13 40.46 185.48 38.21 185.83 39.04 186.17 42.36 186.52 44.02 186.86 44.73 187.21 44.02 187.56 43.66 187.9 42.36 188.25 43.78 188.59 44.13 188.94 42.95 189.28 45.67 189.63 44.25 189.98 44.84 190.32 44.49 190.67 44.73 191.01 44.73 191.36 45.44 191.7 46.5 192.05 44.61 192.4 46.39 192.74 47.69 193.09 47.21 193.43 44.61 193.78 41.88 194.13 39.99 194.47 44.37 194.82 44.61 195.16 44.61 195.51 44.49 195.85 42.47 196.2 43.9"/>
      </g>
      <g stroke-width="0.3" fill="#000000" fill-opacity="0.000" class="geometry" stroke-dasharray="none" stroke="#FDAE61" id="img-34597583-16">
        <path fill="none" d="M23.65,71.86 L 24 71.51 24.34 68.43 24.69 67.12 25.03 67.24 25.38 66.65 25.73 65.11 26.07 65.35 26.42 69.61 26.76 69.14 27.11 72.46 27.45 75.18 27.8 72.93 28.15 72.34 28.49 74.59 28.84 74.59 29.18 73.05 29.53 71.03 29.88 70.68 30.22 68.07 30.57 65.7 30.91 62.62 31.26 65.23 31.6 67.24 31.95 67.12 32.3 65.7 32.64 65.58 32.99 63.45 33.33 64.52 33.68 61.44 34.02 62.62 34.37 64.16 34.72 66.77 35.06 65.82 35.41 66.29 35.75 67 36.1 67.24 36.45 69.37 36.79 69.73 37.14 70.8 37.48 71.03 37.83 70.2 38.17 72.57 38.52 76.01 38.87 77.91 39.21 76.48 39.56 77.31 39.9 81.11 40.25 77.43 40.59 79.33 40.94 78.14 41.29 78.38 41.63 74.83 41.98 74.47 42.32 74.71 42.67 72.93 43.02 74.59 43.36 76.6 43.71 78.86 44.05 79.09 44.4 80.28 44.74 83.71 45.09 84.07 45.44 83.24 45.78 85.02 46.13 83.83 46.47 84.66 46.82 85.37 47.16 88.81 47.51 84.42 47.86 83.95 48.2 83.12 48.55 80.99 48.89 80.63 49.24 80.63 49.59 84.42 49.93 81.34 50.28 80.4 50.62 80.75 50.97 80.28 51.31 79.09 51.66 81.46 52.01 80.75 52.35 81.23 52.7 79.68 53.04 79.09 53.39 81.82 53.73 83.48 54.08 82.05 54.43 82.53 54.77 82.05 55.12 81.94 55.46 82.88 55.81 84.9 56.16 84.31 56.5 86.32 56.85 84.07 57.19 85.49 57.54 88.81 57.88 86.2 58.23 85.73 58.58 86.08 58.92 91.06 59.27 93.08 59.61 95.21 59.96 94.97 60.3 94.02 60.65 91.53 61 91.06 61.34 91.65 61.69 93.55 62.03 95.45 62.38 94.38 62.73 93.55 63.07 93.67 63.42 92.36 63.76 92.96 64.11 91.89 64.45 89.4 64.8 90.59 65.15 89.76 65.49 90.47 65.84 92.13 66.18 93.9 66.53 94.38 66.87 95.8 67.22 97.34 67.57 97.7 67.91 98.05 68.26 98.65 68.6 100.07 68.95 98.41 69.3 98.53 69.64 98.53 69.99 98.88 70.33 99.83 70.68 99.47 71.02 98.41 71.37 94.62 71.72 93.67 72.06 94.26 72.41 94.26 72.75 92.48 73.1 93.08 73.44 90.71 73.79 92.72 74.14 92.6 74.48 87.86 74.83 87.39 75.17 86.79 75.52 84.54 75.87 82.77 76.21 77.79 76.56 77.67 76.9 77.31 77.25 77.43 77.59 78.03 77.94 75.77 78.29 74.59 78.63 75.54 78.98 74.11 79.32 78.03 79.67 80.51 80.01 79.33 80.36 79.45 80.71 78.5 81.05 76.84 81.4 76.01 81.74 75.66 82.09 77.08 82.44 78.26 82.78 80.87 83.13 82.41 83.47 81.94 83.82 80.75 84.16 79.68 84.51 81.23 84.86 82.41 85.2 83.36 85.55 83.71 85.89 86.32 86.24 86.32 86.58 86.2 86.93 84.19 87.28 83 87.62 80.87 87.97 83 88.31 80.51 88.66 82.88 89.01 85.14 89.35 84.66 89.7 84.42 90.04 85.97 90.39 83.6 90.73 85.49 91.08 86.44 91.43 85.37 91.77 85.73 92.12 85.37 92.46 86.79 92.81 86.32 93.15 85.14 93.5 85.85 93.85 84.78 94.19 86.91 94.54 89.88 94.88 89.52 95.23 89.88 95.58 89.05 95.92 85.97 96.27 85.14 96.61 83.95 96.96 84.9 97.3 81.34 97.65 80.51 98 82.17 98.34 85.14 98.69 84.42 99.03 87.03 99.38 85.85 99.72 85.97 100.07 86.79 100.42 84.9 100.76 81.94 101.11 81.82 101.45 81.23 101.8 79.09 102.15 83.6 102.49 81.94 102.84 81.7 103.18 81.11 103.53 80.16 103.87 82.65 104.22 81.23 104.57 80.99 104.91 78.5 105.26 74.71 105.6 76.13 105.95 77.67 106.29 72.93 106.64 73.76 106.99 76.13 107.33 75.77 107.68 74 108.02 71.63 108.37 71.51 108.72 68.19 109.06 69.14 109.41 68.55 109.75 72.1 110.1 68.31 110.44 64.75 110.79 61.79 111.14 63.45 111.48 67.12 111.83 67.6 112.17 70.32 112.52 65.35 112.86 67.48 113.21 65.46 113.56 63.09 113.9 61.32 114.25 60.13 114.59 59.18 114.94 56.58 115.29 56.69 115.63 55.51 115.98 55.39 116.32 54.56 116.67 57.17 117.01 57.88 117.36 55.51 117.71 56.1 118.05 57.64 118.4 58.35 118.74 56.46 119.09 54.21 119.43 55.51 119.78 56.1 120.13 56.46 120.47 54.92 120.82 55.75 121.16 55.15 121.51 53.97 121.86 57.64 122.2 58.95 122.55 56.81 122.89 57.29 123.24 56.69 123.58 58.95 123.93 58 124.28 56.93 124.62 56.58 124.97 53.26 125.31 55.15 125.66 53.97 126 57.41 126.35 56.81 126.7 57.64 127.04 56.46 127.39 55.98 127.73 58.24 128.08 58.95 128.43 61.32 128.77 60.37 129.12 63.33 129.46 65.94 129.81 63.45 130.15 65.46 130.5 69.49 130.85 68.07 131.19 66.77 131.54 68.9 131.88 68.19 132.23 65.11 132.57 67.24 132.92 65.94 133.27 69.02 133.61 69.26 133.96 67.95 134.3 66.65 134.65 64.63 135 62.62 135.34 58.95 135.69 56.58 136.03 51.84 136.38 52.78 136.72 52.07 137.07 51.24 137.42 51.01 137.76 50.89 138.11 51.95 138.45 54.44 138.8 57.64 139.14 54.92 139.49 55.27 139.84 53.61 140.18 54.09 140.53 55.75 140.87 56.69 141.22 55.98 141.57 51.24 141.91 51.24 142.26 48.99 142.6 47.93 142.95 49.35 143.29 50.89 143.64 49.23 143.99 50.06 144.33 51.6 144.68 50.53 145.02 50.65 145.37 50.65 145.71 51.48 146.06 49.58 146.41 53.02 146.75 52.19 147.1 53.97 147.44 55.87 147.79 56.93 148.14 56.22 148.48 58.83 148.83 57.88 149.17 55.98 149.52 58.71 149.86 58.47 150.21 55.04 150.56 53.73 150.9 52.31 151.25 53.38 151.59 53.38 151.94 51.36 152.28 51.6 152.63 53.5 152.98 51.36 153.32 51.84 153.67 53.26 154.01 56.1 154.36 59.42 154.71 58.35 155.05 59.89 155.4 57.76 155.74 56.93 156.09 56.58 156.43 56.34 156.78 52.31 157.13 50.06 157.47 51.13 157.82 45.08 158.16 45.79 158.51 43.78 158.85 42.71 159.2 44.25 159.55 44.84 159.89 45.44 160.24 47.69 160.58 48.99 160.93 48.52 161.28 48.16 161.62 47.45 161.97 49.82 162.31 53.38 162.66 51.01 163 51.84 163.35 52.67 163.7 53.61 164.04 55.51 164.39 53.26 164.73 52.55 165.08 50.77 165.42 50.65 165.77 50.65 166.12 48.04 166.46 50.06 166.81 49.94 167.15 50.41 167.5 48.16 167.85 48.52 168.19 48.87 168.54 49.94 168.88 48.64 169.23 47.69 169.57 46.39 169.92 45.32 170.27 45.56 170.61 42.24 170.96 40.82 171.3 38.56 171.65 36.67 171.99 37.73 172.34 38.8 172.69 36.31 173.03 35.6 173.38 36.79 173.72 36.9 174.07 37.14 174.42 36.19 174.76 36.79 175.11 38.09 175.45 36.55 175.8 36.19 176.14 35.84 176.49 36.31 176.84 35.25 177.18 35.01 177.53 37.02 177.87 35.72 178.22 35.84 178.56 34.77 178.91 33.71 179.26 35.01 179.6 37.02 179.95 35.6 180.29 30.51 180.64 32.64 180.99 32.88 181.33 32.52 181.68 33.35 182.02 33.71 182.37 32.88 182.71 32.88 183.06 32.88 183.41 31.81 183.75 30.15 184.1 31.69 184.44 34.06 184.79 33.47 185.13 33.71 185.48 34.42 185.83 34.65 186.17 34.53 186.52 31.81 186.86 31.69 187.21 32.28 187.56 31.93 187.9 31.1 188.25 33.71 188.59 32.4 188.94 30.39 189.28 28.73 189.63 30.62 189.98 31.45 190.32 30.98 190.67 29.68 191.01 28.49 191.36 26.12 191.7 28.02 192.05 30.27 192.4 30.62 192.74 29.56 193.09 28.97 193.43 28.97 193.78 28.61 194.13 27.9 194.47 29.56 194.82 28.61 195.16 28.14 195.51 28.49 195.85 28.49 196.2 28.02"/>
      </g>
      <g stroke-width="0.3" fill="#000000" fill-opacity="0.000" class="geometry" stroke-dasharray="none" stroke="#F46D43" id="img-34597583-17">
        <path fill="none" d="M23.65,71.86 L 24 70.44 24.34 72.69 24.69 71.74 25.03 70.92 25.38 73.64 25.73 74.94 26.07 69.85 26.42 69.61 26.76 71.51 27.11 70.8 27.45 72.57 27.8 71.98 28.15 70.68 28.49 69.49 28.84 69.02 29.18 69.97 29.53 67.12 29.88 66.41 30.22 66.41 30.57 65.46 30.91 65.7 31.26 66.29 31.6 67.95 31.95 68.07 32.3 67.24 32.64 64.63 32.99 62.03 33.33 62.86 33.68 65.23 34.02 65.7 34.37 64.87 34.72 65.46 35.06 66.29 35.41 63.45 35.75 63.09 36.1 62.03 36.45 64.16 36.79 65.23 37.14 66.06 37.48 68.43 37.83 64.4 38.17 67.12 38.52 66.65 38.87 64.87 39.21 65.46 39.56 68.9 39.9 68.43 40.25 70.09 40.59 68.9 40.94 68.66 41.29 69.49 41.63 71.03 41.98 68.9 42.32 69.26 42.67 67.6 43.02 68.19 43.36 67.12 43.71 67.12 44.05 68.43 44.4 69.14 44.74 70.68 45.09 70.92 45.44 70.68 45.78 68.19 46.13 66.65 46.47 68.9 46.82 71.27 47.16 76.01 47.51 75.54 47.86 72.34 48.2 70.32 48.55 69.37 48.89 69.97 49.24 69.73 49.59 67.95 49.93 66.65 50.28 67.24 50.62 65.23 50.97 69.61 51.31 69.14 51.66 70.68 52.01 68.9 52.35 67.48 52.7 64.75 53.04 66.29 53.39 67.48 53.73 66.77 54.08 63.45 54.43 63.57 54.77 63.81 55.12 66.53 55.46 66.29 55.81 64.04 56.16 62.38 56.5 59.3 56.85 57.64 57.19 60.84 57.54 58.59 57.88 59.78 58.23 59.78 58.58 60.61 58.92 62.15 59.27 62.5 59.61 66.06 59.96 67.95 60.3 69.49 60.65 71.39 61 72.93 61.34 76.96 61.69 77.79 62.03 76.37 62.38 76.84 62.73 78.62 63.07 77.91 63.42 78.26 63.76 80.28 64.11 77.2 64.45 78.74 64.8 77.31 65.15 74.83 65.49 70.09 65.84 69.14 66.18 69.97 66.53 70.09 66.87 72.1 67.22 71.98 67.57 71.63 67.91 71.74 68.26 71.03 68.6 74.59 68.95 77.31 69.3 77.31 69.64 77.79 69.99 78.86 70.33 77.08 70.68 80.75 71.02 80.28 71.37 79.68 71.72 78.38 72.06 76.48 72.41 73.88 72.75 75.42 73.1 77.2 73.44 75.06 73.79 77.55 74.14 80.04 74.48 78.62 74.83 78.86 75.17 79.21 75.52 80.4 75.87 83.48 76.21 86.56 76.56 86.44 76.9 86.2 77.25 84.54 77.59 81.58 77.94 79.92 78.29 78.86 78.63 79.57 78.98 80.63 79.32 80.16 79.67 80.4 80.01 80.75 80.36 81.23 80.71 80.75 81.05 80.28 81.4 82.17 81.74 81.23 82.09 80.51 82.44 81.94 82.78 82.17 83.13 83.71 83.47 81.23 83.82 87.51 84.16 84.07 84.51 82.17 84.86 82.17 85.2 81.58 85.55 82.65 85.89 83.6 86.24 84.19 86.58 86.44 86.93 85.73 87.28 88.81 87.62 88.57 87.97 85.49 88.31 86.32 88.66 84.31 89.01 85.85 89.35 82.77 89.7 79.92 90.04 79.21 90.39 75.89 90.73 72.22 91.08 75.66 91.43 77.2 91.77 78.03 92.12 77.79 92.46 78.97 92.81 74.94 93.15 74.35 93.5 73.17 93.85 71.98 94.19 72.69 94.54 73.4 94.88 71.39 95.23 70.56 95.58 67.95 95.92 66.53 96.27 68.07 96.61 65.7 96.96 62.26 97.3 60.61 97.65 61.91 98 62.38 98.34 62.5 98.69 62.03 99.03 62.74 99.38 61.91 99.72 60.25 100.07 60.01 100.42 57.88 100.76 53.38 101.11 55.04 101.45 55.27 101.8 56.58 102.15 59.66 102.49 57.41 102.84 58.24 103.18 59.06 103.53 57.05 103.87 60.25 104.22 57.29 104.57 56.34 104.91 57.64 105.26 57.76 105.6 57.64 105.95 60.25 106.29 60.84 106.64 58.59 106.99 61.55 107.33 60.37 107.68 58.35 108.02 60.96 108.37 62.5 108.72 60.25 109.06 60.49 109.41 65.94 109.75 66.65 110.1 68.19 110.44 69.61 110.79 67.12 111.14 66.53 111.48 66.65 111.83 67 112.17 64.4 112.52 64.28 112.86 64.28 113.21 63.81 113.56 63.81 113.9 62.03 114.25 62.03 114.59 61.67 114.94 63.33 115.29 64.4 115.63 64.52 115.98 64.75 116.32 64.52 116.67 65.23 117.01 63.69 117.36 65.35 117.71 66.29 118.05 62.15 118.4 62.98 118.74 64.63 119.09 64.99 119.43 66.77 119.78 64.87 120.13 67 120.47 64.04 120.82 63.45 121.16 60.49 121.51 58 121.86 60.37 122.2 63.81 122.55 63.33 122.89 61.08 123.24 58.24 123.58 56.1 123.93 55.87 124.28 56.81 124.62 58.59 124.97 56.81 125.31 59.42 125.66 63.21 126 66.06 126.35 65.46 126.7 64.63 127.04 66.29 127.39 67 127.73 68.07 128.08 70.09 128.43 72.22 128.77 69.85 129.12 69.49 129.46 73.05 129.81 72.93 130.15 71.27 130.5 72.1 130.85 71.39 131.19 71.27 131.54 69.37 131.88 69.61 132.23 63.92 132.57 65.11 132.92 64.75 133.27 65.58 133.61 67.12 133.96 67.95 134.3 66.89 134.65 64.04 135 64.52 135.34 63.57 135.69 62.26 136.03 63.45 136.38 61.79 136.72 60.49 137.07 63.69 137.42 61.79 137.76 61.79 138.11 62.74 138.45 63.45 138.8 64.16 139.14 64.28 139.49 62.74 139.84 64.4 140.18 65.23 140.53 66.77 140.87 66.18 141.22 67.24 141.57 72.22 141.91 75.54 142.26 76.37 142.6 72.81 142.95 74.23 143.29 72.34 143.64 74.35 143.99 73.76 144.33 76.13 144.68 76.84 145.02 74.83 145.37 74.59 145.71 77.67 146.06 76.37 146.41 75.54 146.75 75.54 147.1 74.71 147.44 74.59 147.79 76.6 148.14 76.6 148.48 76.48 148.83 80.16 149.17 80.87 149.52 81.46 149.86 81.58 150.21 80.16 150.56 79.09 150.9 78.86 151.25 79.09 151.59 78.14 151.94 75.89 152.28 76.48 152.63 78.38 152.98 81.23 153.32 80.63 153.67 78.62 154.01 78.62 154.36 80.4 154.71 81.23 155.05 78.14 155.4 80.28 155.74 79.57 156.09 79.21 156.43 78.86 156.78 78.97 157.13 79.92 157.47 81.46 157.82 78.74 158.16 75.89 158.51 73.64 158.85 70.56 159.2 69.14 159.55 70.2 159.89 69.14 160.24 73.05 160.58 74.59 160.93 78.38 161.28 77.67 161.62 76.96 161.97 77.08 162.31 76.01 162.66 78.38 163 76.96 163.35 76.84 163.7 74.83 164.04 75.89 164.39 75.3 164.73 72.93 165.08 73.17 165.42 74.94 165.77 76.13 166.12 77.43 166.46 76.96 166.81 75.06 167.15 73.05 167.5 67.72 167.85 68.78 168.19 66.65 168.54 64.28 168.88 64.99 169.23 63.57 169.57 65.82 169.92 69.73 170.27 67.24 170.61 68.43 170.96 69.37 171.3 67.36 171.65 69.73 171.99 67.95 172.34 67.6 172.69 65.46 173.03 66.65 173.38 65.58 173.72 66.65 174.07 65.7 174.42 63.33 174.76 65.82 175.11 67.24 175.45 67.24 175.8 66.89 176.14 65.46 176.49 65.94 176.84 64.28 177.18 62.98 177.53 59.18 177.87 59.78 178.22 59.66 178.56 58 178.91 57.88 179.26 57.05 179.6 54.56 179.95 57.17 180.29 54.44 180.64 50.77 180.99 53.26 181.33 51.95 181.68 54.09 182.02 55.27 182.37 54.21 182.71 56.93 183.06 61.2 183.41 61.44 183.75 67.48 184.1 65.11 184.44 62.86 184.79 63.21 185.13 64.99 185.48 62.15 185.83 60.61 186.17 63.09 186.52 65.46 186.86 60.01 187.21 58.95 187.56 56.58 187.9 56.69 188.25 57.41 188.59 57.88 188.94 55.98 189.28 58.12 189.63 59.66 189.98 60.96 190.32 61.08 190.67 61.55 191.01 62.03 191.36 61.44 191.7 61.32 192.05 59.54 192.4 57.76 192.74 59.89 193.09 58.35 193.43 55.87 193.78 56.93 194.13 56.22 194.47 56.22 194.82 60.96 195.16 58.59 195.51 58.83 195.85 55.51 196.2 57.52"/>
      </g>
      <g stroke-width="0.3" fill="#000000" fill-opacity="0.000" class="geometry" stroke-dasharray="none" stroke="#D53E4F" id="img-34597583-18">
        <path fill="none" d="M23.65,71.86 L 24 72.22 24.34 72.34 24.69 73.05 25.03 74.11 25.38 72.22 25.73 69.49 26.07 68.55 26.42 70.2 26.76 71.63 27.11 70.2 27.45 69.97 27.8 66.65 28.15 65.23 28.49 67.48 28.84 71.51 29.18 72.69 29.53 75.77 29.88 77.55 30.22 76.84 30.57 78.14 30.91 78.74 31.26 78.38 31.6 77.91 31.95 81.11 32.3 81.82 32.64 81.34 32.99 82.29 33.33 80.04 33.68 78.97 34.02 78.97 34.37 80.75 34.72 80.28 35.06 80.28 35.41 77.79 35.75 77.67 36.1 80.04 36.45 82.41 36.79 81.34 37.14 84.19 37.48 84.19 37.83 86.2 38.17 85.14 38.52 86.68 38.87 86.68 39.21 89.99 39.56 91.06 39.9 95.09 40.25 93.79 40.59 93.19 40.94 91.18 41.29 89.16 41.63 88.34 41.98 87.39 42.32 88.81 42.67 88.45 43.02 88.1 43.36 86.56 43.71 89.64 44.05 88.45 44.4 89.52 44.74 90.94 45.09 90.11 45.44 89.05 45.78 89.52 46.13 88.34 46.47 86.79 46.82 85.73 47.16 84.31 47.51 85.14 47.86 83.36 48.2 83.83 48.55 80.87 48.89 78.74 49.24 81.94 49.59 84.42 49.93 86.08 50.28 87.98 50.62 88.34 50.97 89.05 51.31 89.4 51.66 91.65 52.01 96.04 52.35 96.16 52.7 93.9 53.04 93.08 53.39 92.96 53.73 92.96 54.08 92.6 54.43 90.59 54.77 88.57 55.12 89.28 55.46 91.65 55.81 92.13 56.16 91.3 56.5 90.11 56.85 90.11 57.19 89.64 57.54 89.4 57.88 87.74 58.23 89.64 58.58 86.56 58.92 85.73 59.27 89.28 59.61 90.35 59.96 88.22 60.3 89.16 60.65 91.06 61 87.62 61.34 86.91 61.69 86.79 62.03 86.32 62.38 86.2 62.73 85.49 63.07 87.27 63.42 88.1 63.76 88.81 64.11 88.45 64.45 85.61 64.8 86.08 65.15 86.2 65.49 87.74 65.84 85.49 66.18 86.56 66.53 86.79 66.87 90.47 67.22 90.35 67.57 89.05 67.91 87.86 68.26 86.68 68.6 88.22 68.95 90.11 69.3 89.88 69.64 91.42 69.99 92.13 70.33 95.56 70.68 96.99 71.02 96.99 71.37 97.46 71.72 94.97 72.06 96.04 72.41 94.38 72.75 92.6 73.1 92.84 73.44 94.14 73.79 93.9 74.14 91.65 74.48 93.79 74.83 92.48 75.17 91.3 75.52 94.5 75.87 93.19 76.21 93.19 76.56 92.36 76.9 95.56 77.25 96.16 77.59 97.22 77.94 98.65 78.29 98.17 78.63 95.45 78.98 92.13 79.32 90.59 79.67 90.71 80.01 89.88 80.36 90.23 80.71 90.71 81.05 86.79 81.4 85.49 81.74 85.37 82.09 83.48 82.44 85.49 82.78 88.57 83.13 86.79 83.47 85.61 83.82 82.05 84.16 81.11 84.51 81.58 84.86 80.04 85.2 81.34 85.55 81.34 85.89 81.7 86.24 80.16 86.58 78.03 86.93 78.14 87.28 80.04 87.62 82.05 87.97 83.71 88.31 83 88.66 82.88 89.01 78.86 89.35 79.45 89.7 77.55 90.04 79.68 90.39 80.16 90.73 79.8 91.08 81.23 91.43 82.05 91.77 80.16 92.12 79.92 92.46 82.53 92.81 83.24 93.15 84.66 93.5 87.74 93.85 86.2 94.19 86.08 94.54 85.85 94.88 87.62 95.23 87.15 95.58 88.57 95.92 89.99 96.27 86.32 96.61 86.79 96.96 86.56 97.3 87.62 97.65 87.98 98 88.81 98.34 85.61 98.69 86.56 99.03 86.2 99.38 86.68 99.72 83.95 100.07 84.78 100.42 83.12 100.76 83.71 101.11 83.71 101.45 81.34 101.8 82.17 102.15 84.66 102.49 85.37 102.84 85.97 103.18 87.51 103.53 85.49 103.87 86.91 104.22 87.62 104.57 87.98 104.91 84.42 105.26 87.62 105.6 89.4 105.95 88.34 106.29 89.99 106.64 89.99 106.99 89.05 107.33 87.86 107.68 89.16 108.02 85.97 108.37 87.15 108.72 86.56 109.06 84.9 109.41 88.22 109.75 88.69 110.1 88.1 110.44 88.93 110.79 85.61 111.14 87.27 111.48 88.81 111.83 87.98 112.17 88.69 112.52 93.19 112.86 92.01 113.21 93.67 113.56 97.7 113.9 97.22 114.25 99.47 114.59 101.37 114.94 98.53 115.29 97.58 115.63 102.32 115.98 99.95 116.32 99.12 116.67 96.99 117.01 96.87 117.36 97.1 117.71 96.99 118.05 99.47 118.4 98.53 118.74 97.46 119.09 97.7 119.43 95.56 119.78 96.04 120.13 95.68 120.47 94.73 120.82 95.21 121.16 94.26 121.51 92.96 121.86 92.36 122.2 91.18 122.55 92.01 122.89 91.89 123.24 94.5 123.58 93.67 123.93 92.96 124.28 92.96 124.62 91.89 124.97 91.3 125.31 90.23 125.66 89.88 126 89.05 126.35 92.01 126.7 87.98 127.04 84.9 127.39 83.71 127.73 81.82 128.08 82.53 128.43 84.07 128.77 83.95 129.12 84.66 129.46 84.54 129.81 81.34 130.15 82.65 130.5 82.65 130.85 83.71 131.19 82.88 131.54 83.48 131.88 80.04 132.23 81.46 132.57 82.17 132.92 78.14 133.27 76.25 133.61 76.48 133.96 73.76 134.3 75.54 134.65 76.25 135 72.57 135.34 71.63 135.69 70.09 136.03 70.44 136.38 69.73 136.72 69.14 137.07 66.29 137.42 63.09 137.76 63.45 138.11 64.63 138.45 68.19 138.8 66.65 139.14 64.28 139.49 63.45 139.84 64.52 140.18 62.62 140.53 64.16 140.87 66.18 141.22 69.49 141.57 70.2 141.91 71.98 142.26 73.29 142.6 70.8 142.95 73.05 143.29 74.94 143.64 79.09 143.99 77.79 144.33 78.62 144.68 80.16 145.02 78.5 145.37 81.46 145.71 82.41 146.06 80.28 146.41 81.46 146.75 81.46 147.1 81.7 147.44 82.88 147.79 80.16 148.14 79.68 148.48 78.26 148.83 78.26 149.17 77.55 149.52 78.26 149.86 78.26 150.21 77.91 150.56 76.01 150.9 77.91 151.25 77.43 151.59 77.43 151.94 76.37 152.28 76.84 152.63 75.66 152.98 75.06 153.32 74.94 153.67 74.47 154.01 77.79 154.36 78.5 154.71 77.31 155.05 79.8 155.4 79.92 155.74 80.4 156.09 79.57 156.43 78.62 156.78 79.33 157.13 80.04 157.47 78.14 157.82 79.57 158.16 81.82 158.51 80.28 158.85 79.45 159.2 78.86 159.55 77.91 159.89 77.31 160.24 79.92 160.58 82.05 160.93 81.82 161.28 81.46 161.62 79.45 161.97 78.97 162.31 79.8 162.66 80.28 163 79.33 163.35 77.08 163.7 74.71 164.04 79.8 164.39 78.97 164.73 76.37 165.08 77.55 165.42 81.34 165.77 78.03 166.12 77.08 166.46 76.01 166.81 77.08 167.15 79.09 167.5 78.86 167.85 80.16 168.19 76.84 168.54 75.77 168.88 75.77 169.23 77.79 169.57 80.99 169.92 83.36 170.27 83.95 170.61 85.49 170.96 86.44 171.3 84.54 171.65 82.77 171.99 80.87 172.34 80.75 172.69 80.04 173.03 81.11 173.38 82.53 173.72 83.36 174.07 82.88 174.42 82.65 174.76 85.61 175.11 85.73 175.45 88.34 175.8 93.43 176.14 94.38 176.49 95.8 176.84 94.14 177.18 95.92 177.53 98.17 177.87 97.7 178.22 98.65 178.56 100.54 178.91 98.53 179.26 100.3 179.6 98.76 179.95 102.08 180.29 99.59 180.64 101.49 180.99 102.2 181.33 102.79 181.68 104.33 182.02 102.67 182.37 101.84 182.71 105.04 183.06 105.64 183.41 105.16 183.75 104.57 184.1 103.15 184.44 102.79 184.79 101.02 185.13 103.27 185.48 102.44 185.83 102.67 186.17 100.19 186.52 99.71 186.86 100.9 187.21 99.71 187.56 99.83 187.9 99.12 188.25 96.63 188.59 96.39 188.94 97.1 189.28 98.17 189.63 100.3 189.98 101.25 190.32 103.5 190.67 103.39 191.01 105.99 191.36 108.72 191.7 109.9 192.05 109.55 192.4 106.7 192.74 108.01 193.09 107.41 193.43 109.07 193.78 109.67 194.13 107.41 194.47 104.33 194.82 105.52 195.16 103.39 195.51 101.84 195.85 101.37 196.2 100.66"/>
      </g>
      <g stroke-width="0.3" fill="#000000" fill-opacity="0.000" class="geometry" stroke-dasharray="none" stroke="#9E0142" id="img-34597583-19">
        <path fill="none" d="M23.65,71.86 L 24 69.37 24.34 68.19 24.69 69.14 25.03 67.83 25.38 67.72 25.73 66.41 26.07 67.24 26.42 65.11 26.76 69.14 27.11 70.44 27.45 72.57 27.8 74.83 28.15 74.94 28.49 76.37 28.84 75.77 29.18 74.59 29.53 77.31 29.88 80.63 30.22 79.45 30.57 78.86 30.91 78.03 31.26 78.5 31.6 78.26 31.95 78.97 32.3 80.63 32.64 81.34 32.99 81.11 33.33 83.36 33.68 85.37 34.02 85.02 34.37 83.95 34.72 85.73 35.06 87.86 35.41 89.64 35.75 91.42 36.1 89.4 36.45 89.52 36.79 90.47 37.14 93.55 37.48 93.08 37.83 92.48 38.17 90.23 38.52 88.45 38.87 87.74 39.21 89.28 39.56 88.34 39.9 85.61 40.25 82.65 40.59 84.78 40.94 86.56 41.29 85.61 41.63 89.16 41.98 89.52 42.32 93.08 42.67 94.85 43.02 98.29 43.36 97.34 43.71 100.66 44.05 100.3 44.4 97.93 44.74 98.53 45.09 98.17 45.44 99.24 45.78 101.25 46.13 102.56 46.47 102.91 46.82 103.74 47.16 102.79 47.51 106.47 47.86 107.41 48.2 108.36 48.55 109.19 48.89 110.73 49.24 112.75 49.59 109.55 49.93 111.44 50.28 109.07 50.62 108.13 50.97 108.01 51.31 106.58 51.66 110.26 52.01 108.01 52.35 105.87 52.7 105.87 53.04 104.93 53.39 105.87 53.73 104.1 54.08 103.39 54.43 103.5 54.77 102.67 55.12 104.45 55.46 104.21 55.81 106.23 56.16 106.7 56.5 105.04 56.85 102.56 57.19 103.27 57.54 103.5 57.88 103.98 58.23 101.13 58.58 103.74 58.92 102.79 59.27 102.56 59.61 99.83 59.96 98.88 60.3 100.19 60.65 100.78 61 101.84 61.34 102.08 61.69 106.7 62.03 106.11 62.38 107.18 62.73 110.97 63.07 111.09 63.42 110.73 63.76 111.21 64.11 112.87 64.45 109.9 64.8 111.92 65.15 110.38 65.49 109.07 65.84 109.9 66.18 110.61 66.53 110.73 66.87 110.97 67.22 111.32 67.57 111.44 67.91 111.21 68.26 108.48 68.6 107.89 68.95 106.47 69.3 106.11 69.64 105.52 69.99 103.62 70.33 100.54 70.68 99 71.02 96.87 71.37 97.46 71.72 96.87 72.06 97.46 72.41 98.17 72.75 96.39 73.1 96.99 73.44 99.24 73.79 99.47 74.14 99.47 74.48 96.39 74.83 95.21 75.17 93.31 75.52 88.45 75.87 87.27 76.21 89.76 76.56 88.57 76.9 87.98 77.25 88.22 77.59 86.08 77.94 87.74 78.29 87.51 78.63 90.71 78.98 89.64 79.32 84.78 79.67 84.07 80.01 83 80.36 85.73 80.71 85.85 81.05 85.37 81.4 84.66 81.74 82.88 82.09 84.42 82.44 87.03 82.78 86.79 83.13 87.39 83.47 86.08 83.82 88.93 84.16 89.28 84.51 91.53 84.86 93.67 85.2 95.33 85.55 96.75 85.89 93.19 86.24 93.43 86.58 92.13 86.93 90.94 87.28 91.42 87.62 90.94 87.97 91.06 88.31 94.73 88.66 94.02 89.01 94.62 89.35 94.62 89.7 94.38 90.04 94.97 90.39 96.04 90.73 97.7 91.08 95.21 91.43 96.04 91.77 94.85 92.12 97.22 92.46 98.05 92.81 96.16 93.15 95.33 93.5 93.31 93.85 92.36 94.19 91.53 94.54 88.81 94.88 88.1 95.23 88.34 95.58 89.76 95.92 89.76 96.27 87.51 96.61 86.91 96.96 87.03 97.3 86.79 97.65 87.03 98 86.56 98.34 87.39 98.69 86.08 99.03 85.14 99.38 84.54 99.72 82.88 100.07 82.65 100.42 82.65 100.76 83.95 101.11 85.37 101.45 87.51 101.8 86.08 102.15 88.69 102.49 89.64 102.84 90.71 103.18 91.89 103.53 93.08 103.87 95.09 104.22 91.53 104.57 92.96 104.91 94.85 105.26 93.19 105.6 95.09 105.95 94.5 106.29 95.92 106.64 96.39 106.99 95.8 107.33 96.28 107.68 94.97 108.02 93.55 108.37 95.92 108.72 95.68 109.06 97.34 109.41 97.1 109.75 96.87 110.1 93.08 110.44 91.65 110.79 95.68 111.14 95.8 111.48 91.53 111.83 91.53 112.17 90.59 112.52 87.39 112.86 89.16 113.21 90.23 113.56 93.08 113.9 94.38 114.25 92.84 114.59 94.73 114.94 94.14 115.29 96.04 115.63 96.39 115.98 95.68 116.32 92.13 116.67 93.19 117.01 93.55 117.36 94.73 117.71 96.63 118.05 96.75 118.4 96.63 118.74 95.33 119.09 95.68 119.43 92.84 119.78 92.13 120.13 93.9 120.47 94.26 120.82 94.26 121.16 96.75 121.51 96.39 121.86 96.87 122.2 96.04 122.55 96.39 122.89 97.34 123.24 93.67 123.58 91.89 123.93 92.13 124.28 90.35 124.62 89.16 124.97 86.32 125.31 84.78 125.66 85.25 126 87.51 126.35 86.56 126.7 85.61 127.04 87.62 127.39 88.93 127.73 85.61 128.08 85.25 128.43 86.91 128.77 85.73 129.12 84.42 129.46 81.7 129.81 83 130.15 85.02 130.5 85.85 130.85 85.85 131.19 86.79 131.54 91.77 131.88 94.26 132.23 95.8 132.57 96.04 132.92 94.26 133.27 94.97 133.61 98.76 133.96 99.12 134.3 100.19 134.65 101.25 135 102.32 135.34 104.21 135.69 104.93 136.03 106.23 136.38 108.6 136.72 110.14 137.07 112.75 137.42 111.21 137.76 111.44 138.11 112.75 138.45 112.98 138.8 114.17 139.14 113.7 139.49 114.17 139.84 115.24 140.18 116.66 140.53 116.3 140.87 115.47 141.22 113.81 141.57 111.8 141.91 109.9 142.26 110.85 142.6 111.32 142.95 111.32 143.29 112.04 143.64 112.87 143.99 114.05 144.33 112.98 144.68 113.46 145.02 113.93 145.37 113.46 145.71 110.97 146.06 113.1 146.41 112.04 146.75 111.09 147.1 111.92 147.44 113.93 147.79 112.75 148.14 110.14 148.48 108.72 148.83 110.26 149.17 110.5 149.52 109.19 149.86 106.23 150.21 105.04 150.56 102.2 150.9 100.9 151.25 99.47 151.59 99.24 151.94 99.36 152.28 99.24 152.63 98.17 152.98 94.62 153.32 94.97 153.67 96.16 154.01 94.73 154.36 93.9 154.71 94.02 155.05 97.22 155.4 98.29 155.74 97.1 156.09 97.7 156.43 98.17 156.78 99.24 157.13 100.78 157.47 100.9 157.82 99.71 158.16 100.19 158.51 98.88 158.85 98.65 159.2 100.19 159.55 99.12 159.89 97.82 160.24 98.29 160.58 98.88 160.93 97.34 161.28 94.97 161.62 91.77 161.97 90.82 162.31 87.15 162.66 83.12 163 80.51 163.35 82.05 163.7 82.65 164.04 83.12 164.39 82.17 164.73 82.17 165.08 81.58 165.42 80.99 165.77 78.14 166.12 79.09 166.46 81.46 166.81 80.16 167.15 79.68 167.5 81.11 167.85 82.05 168.19 80.16 168.54 79.8 168.88 81.94 169.23 82.65 169.57 86.44 169.92 79.68 170.27 82.77 170.61 80.75 170.96 80.16 171.3 82.77 171.65 80.4 171.99 84.54 172.34 83.6 172.69 83.83 173.03 85.73 173.38 86.79 173.72 84.42 174.07 85.25 174.42 83.6 174.76 87.39 175.11 88.45 175.45 89.05 175.8 89.64 176.14 89.52 176.49 90.11 176.84 88.45 177.18 87.51 177.53 87.51 177.87 83 178.22 82.05 178.56 83.24 178.91 81.58 179.26 82.41 179.6 85.25 179.95 90.11 180.29 89.64 180.64 89.05 180.99 88.93 181.33 90.94 181.68 89.16 182.02 86.79 182.37 88.69 182.71 88.22 183.06 89.16 183.41 88.57 183.75 89.28 184.1 89.76 184.44 91.65 184.79 93.79 185.13 96.87 185.48 95.45 185.83 93.19 186.17 91.89 186.52 90.71 186.86 91.06 187.21 91.89 187.56 94.5 187.9 96.63 188.25 98.65 188.59 94.97 188.94 96.87 189.28 95.56 189.63 94.85 189.98 93.79 190.32 96.39 190.67 98.29 191.01 98.53 191.36 97.1 191.7 95.33 192.05 94.02 192.4 93.55 192.74 92.13 193.09 91.42 193.43 92.13 193.78 91.53 194.13 90.94 194.47 91.77 194.82 91.89 195.16 89.4 195.51 89.4 195.85 88.1 196.2 87.74"/>
      </g>
    </g>
  </g>
</g>
  <g class="guide ylabels" font-size="2.82" font-family="'PT Sans Caption','Helvetica Neue','Helvetica',sans-serif" fill="#000000" id="img-34597583-20">
    <text x="20.3" y="131.11" text-anchor="end" dy="0.35em">0</text>
    <text x="20.3" y="71.86" text-anchor="end" dy="0.35em">500</text>
    <text x="20.3" y="12.61" text-anchor="end" dy="0.35em">1000</text>
  </g>
  <g font-size="3.88" font-family="'PT Sans','Helvetica Neue','Helvetica',sans-serif" fill="#000000" stroke="#000000" stroke-opacity="0.000" id="img-34597583-21">
    <text x="8.81" y="69.86" text-anchor="middle" dy="0.35em" transform="rotate(-90, 8.81, 71.86)">population number</text>
  </g>
  <g font-size="3.88" font-family="'PT Sans','Helvetica Neue','Helvetica',sans-serif" fill="#000000" stroke="#000000" stroke-opacity="0.000" id="img-34597583-22">
    <text x="109.75" y="5" text-anchor="middle" dy="0.6em">genetic drift</text>
  </g>
</g>
<defs>
  <clipPath id="img-34597583-4">
  <path d="M21.31,10.61 L 198.2 10.61 198.2 133.11 21.31 133.11" />
</clipPath>
</defs>
</svg>
