<?xml version="1.0" encoding="UTF-8"?>
<svg xmlns="http://www.w3.org/2000/svg"
     xmlns:xlink="http://www.w3.org/1999/xlink"
     xmlns:gadfly="http://www.gadflyjl.org/ns"
     version="1.2"
     width="203.2mm" height="152.4mm" viewBox="0 0 203.2 152.4"
     stroke="none"
     fill="#000000"
     stroke-width="0.3"
     font-size="3.88"
>
<g class="plotroot xscalable yscalable" id="img-0878a17c-1">
  <g font-size="3.88" font-family="'PT Sans','Helvetica Neue','Helvetica',sans-serif" fill="#000000" stroke="#000000" stroke-opacity="0.000" id="img-0878a17c-2">
    <text x="108.92" y="140.79" text-anchor="middle" dy="0.6em">generation number</text>
  </g>
  <g class="guide xlabels" font-size="2.82" font-family="'PT Sans Caption','Helvetica Neue','Helvetica',sans-serif" fill="#000000" id="img-0878a17c-3">
    <text x="21.63" y="134.11" text-anchor="middle" dy="0.6em">0</text>
    <text x="56.55" y="134.11" text-anchor="middle" dy="0.6em">100</text>
    <text x="91.46" y="134.11" text-anchor="middle" dy="0.6em">200</text>
    <text x="126.37" y="134.11" text-anchor="middle" dy="0.6em">300</text>
    <text x="161.29" y="134.11" text-anchor="middle" dy="0.6em">400</text>
    <text x="196.2" y="134.11" text-anchor="middle" dy="0.6em">500</text>
  </g>
<g clip-path="url(#img-0878a17c-4)">
  <g id="img-0878a17c-5">
    <g pointer-events="visible" opacity="1" fill="#FFFFFF" stroke="#000000" stroke-opacity="0.000" class="guide background" id="img-0878a17c-6">
      <rect x="19.63" y="10.61" width="178.57" height="122.5"/>
    </g>
    <g class="guide ygridlines xfixed" stroke-dasharray="0.5,0.5" stroke-width="0.2" stroke="#808080" id="img-0878a17c-7">
      <path fill="none" d="M19.63,131.11 L 198.2 131.11"/>
      <path fill="none" d="M19.63,101.49 L 198.2 101.49"/>
      <path fill="none" d="M19.63,71.86 L 198.2 71.86"/>
      <path fill="none" d="M19.63,42.24 L 198.2 42.24"/>
      <path fill="none" d="M19.63,12.61 L 198.2 12.61"/>
    </g>
    <g class="guide xgridlines yfixed" stroke-dasharray="0.5,0.5" stroke-width="0.2" stroke="#808080" id="img-0878a17c-8">
      <path fill="none" d="M21.63,10.61 L 21.63 133.11"/>
      <path fill="none" d="M56.55,10.61 L 56.55 133.11"/>
      <path fill="none" d="M91.46,10.61 L 91.46 133.11"/>
      <path fill="none" d="M126.37,10.61 L 126.37 133.11"/>
      <path fill="none" d="M161.29,10.61 L 161.29 133.11"/>
      <path fill="none" d="M196.2,10.61 L 196.2 133.11"/>
    </g>
    <g class="plotpanel" id="img-0878a17c-9">
      <g stroke-width="0.3" fill="#000000" fill-opacity="0.000" class="geometry" stroke-dasharray="none" stroke="#3288BD" id="img-0878a17c-10">
        <path fill="none" d="M21.98,71.86 L 22.33 67.72 22.68 68.9 23.03 71.27 23.38 70.68 23.73 70.38 24.08 68.9 24.42 62.98 24.77 64.16 25.12 66.83 25.47 62.68 25.82 63.27 26.17 65.64 26.52 63.57 26.87 68.01 27.22 70.09 27.57 72.46 27.92 72.75 28.27 75.42 28.61 78.38 28.96 79.57 29.31 78.38 29.66 74.23 30.01 76.31 30.36 75.42 30.71 74.53 31.06 73.64 31.41 71.86 31.76 73.05 32.11 78.38 32.45 76.6 32.8 81.64 33.15 79.57 33.5 82.23 33.85 84.31 34.2 76.01 34.55 73.05 34.9 73.05 35.25 70.68 35.6 68.31 35.95 71.86 36.3 70.68 36.64 73.05 36.99 70.09 37.34 72.16 37.69 69.2 38.04 72.16 38.39 71.57 38.74 73.34 39.09 69.79 39.44 71.27 39.79 73.05 40.14 65.94 40.49 66.83 40.83 68.01 41.18 68.6 41.53 67.12 41.88 64.75 42.23 63.57 42.58 64.46 42.93 61.49 43.28 61.2 43.63 60.9 43.98 60.61 44.33 58.24 44.67 66.23 45.02 60.31 45.37 57.94 45.72 55.27 46.07 54.38 46.42 52.9 46.77 51.72 47.12 53.5 47.47 52.31 47.82 54.09 48.17 53.79 48.52 50.83 48.86 48.16 49.21 48.16 49.56 49.35 49.91 52.31 50.26 52.9 50.61 50.24 50.96 48.16 51.31 49.64 51.66 47.87 52.01 45.5 52.36 49.94 52.7 51.13 53.05 54.98 53.4 53.2 53.75 52.01 54.1 51.72 54.45 57.35 54.8 60.61 55.15 64.16 55.5 63.57 55.85 67.72 56.2 63.57 56.55 66.83 56.89 66.53 57.24 64.46 57.59 69.79 57.94 70.97 58.29 69.79 58.64 72.75 58.99 74.23 59.34 71.57 59.69 71.27 60.04 73.05 60.39 70.68 60.73 64.75 61.08 68.6 61.43 74.53 61.78 72.16 62.13 69.2 62.48 71.86 62.83 74.53 63.18 72.75 63.53 68.31 63.88 66.83 64.23 65.64 64.58 68.6 64.92 71.27 65.27 75.12 65.62 75.12 65.97 76.01 66.32 78.08 66.67 73.94 67.02 72.46 67.37 74.53 67.72 76.6 68.07 78.38 68.42 77.79 68.77 73.05 69.11 72.75 69.46 69.2 69.81 64.75 70.16 60.9 70.51 52.61 70.86 55.27 71.21 56.46 71.56 55.27 71.91 54.38 72.26 50.83 72.61 48.76 72.95 52.61 73.3 52.61 73.65 52.31 74 54.98 74.35 51.72 74.7 51.13 75.05 50.53 75.4 47.87 75.75 47.27 76.1 47.27 76.45 43.13 76.8 46.39 77.14 45.2 77.49 41.64 77.84 42.53 78.19 44.9 78.54 45.2 78.89 42.53 79.24 47.87 79.59 46.98 79.94 47.87 80.29 44.61 80.64 46.98 80.98 44.31 81.33 42.24 81.68 41.35 82.03 42.24 82.38 45.79 82.73 44.02 83.08 43.13 83.43 44.31 83.78 43.13 84.13 42.83 84.48 36.02 84.83 35.42 85.17 34.24 85.52 33.05 85.87 37.2 86.22 35.72 86.57 33.05 86.92 33.65 87.27 43.13 87.62 45.79 87.97 48.16 88.32 48.76 88.67 52.61 89.02 51.42 89.36 51.72 89.71 51.42 90.06 48.76 90.41 49.64 90.76 50.83 91.11 54.98 91.46 53.5 91.81 52.9 92.16 50.53 92.51 46.68 92.86 42.53 93.2 43.42 93.55 44.61 93.9 46.39 94.25 44.9 94.6 43.72 94.95 46.98 95.3 46.68 95.65 49.05 96 49.35 96.35 51.72 96.7 54.68 97.05 59.72 97.39 55.87 97.74 62.68 98.09 62.68 98.44 64.75 98.79 62.09 99.14 54.98 99.49 51.42 99.84 48.16 100.19 50.83 100.54 50.53 100.89 45.5 101.23 43.72 101.58 40.76 101.93 39.27 102.28 38.98 102.63 40.76 102.98 44.02 103.33 42.24 103.68 45.5 104.03 50.24 104.38 53.2 104.73 52.61 105.08 52.01 105.42 54.68 105.77 53.79 106.12 52.9 106.47 54.68 106.82 54.98 107.17 54.09 107.52 50.83 107.87 50.24 108.22 52.31 108.57 47.27 108.92 54.09 109.26 53.2 109.61 52.9 109.96 52.61 110.31 56.16 110.66 56.75 111.01 54.98 111.36 51.13 111.71 53.79 112.06 52.31 112.41 46.98 112.76 43.42 113.11 40.46 113.45 39.27 113.8 38.98 114.15 38.39 114.5 34.83 114.85 36.31 115.2 35.13 115.55 34.24 115.9 35.72 116.25 35.72 116.6 33.65 116.95 32.46 117.3 28.61 117.64 28.61 117.99 26.24 118.34 22.98 118.69 22.98 119.04 24.76 119.39 27.72 119.74 23.28 120.09 21.5 120.44 19.72 120.79 20.02 121.14 18.83 121.48 18.54 121.83 17.65 122.18 18.24 122.53 17.06 122.88 16.46 123.23 15.87 123.58 16.46 123.93 17.06 124.28 17.94 124.63 15.87 124.98 14.39 125.33 14.39 125.67 13.5 126.02 13.5 126.37 13.8 126.72 14.39 127.07 14.98 127.42 14.69 127.77 14.39 128.12 15.57 128.47 15.87 128.82 16.76 129.17 17.94 129.51 18.83 129.86 18.54 130.21 18.24 130.56 16.17 130.91 17.35 131.26 18.54 131.61 17.65 131.96 20.02 132.31 22.39 132.66 24.17 133.01 24.76 133.36 25.05 133.7 25.05 134.05 24.76 134.4 25.65 134.75 26.54 135.1 28.31 135.45 31.87 135.8 29.5 136.15 25.35 136.5 29.2 136.85 25.65 137.2 27.42 137.55 28.91 137.89 28.02 138.24 24.17 138.59 24.76 138.94 23.87 139.29 22.68 139.64 25.94 139.99 25.94 140.34 27.72 140.69 24.17 141.04 24.46 141.39 25.65 141.73 23.57 142.08 27.13 142.43 29.5 142.78 25.65 143.13 25.65 143.48 30.98 143.83 30.39 144.18 29.79 144.53 33.35 144.88 33.94 145.23 32.76 145.58 31.28 145.92 29.79 146.27 27.42 146.62 26.54 146.97 22.39 147.32 26.54 147.67 28.61 148.02 26.54 148.37 26.24 148.72 27.42 149.07 27.13 149.42 28.02 149.76 27.13 150.11 30.39 150.46 28.02 150.81 27.72 151.16 28.02 151.51 27.13 151.86 27.72 152.21 27.13 152.56 26.54 152.91 30.98 153.26 32.46 153.61 36.02 153.95 33.35 154.3 35.72 154.65 33.94 155 34.83 155.35 36.31 155.7 33.94 156.05 35.13 156.4 37.2 156.75 41.35 157.1 42.83 157.45 39.27 157.79 44.31 158.14 44.9 158.49 46.98 158.84 43.13 159.19 48.16 159.54 45.79 159.89 49.64 160.24 53.5 160.59 49.94 160.94 48.16 161.29 44.9 161.64 51.13 161.98 55.27 162.33 50.53 162.68 45.2 163.03 47.27 163.38 48.76 163.73 48.16 164.08 52.61 164.43 53.2 164.78 50.83 165.13 51.13 165.48 53.79 165.83 50.83 166.17 50.83 166.52 51.72 166.87 49.35 167.22 45.79 167.57 44.61 167.92 44.31 168.27 41.35 168.62 39.57 168.97 39.57 169.32 36.61 169.67 38.68 170.01 37.2 170.36 38.09 170.71 37.5 171.06 40.16 171.41 42.53 171.76 40.16 172.11 46.09 172.46 46.68 172.81 46.39 173.16 48.16 173.51 49.64 173.86 48.46 174.2 53.2 174.55 55.27 174.9 51.42 175.25 57.35 175.6 56.16 175.95 55.87 176.3 48.16 176.65 43.72 177 38.68 177.35 39.87 177.7 38.39 178.04 36.31 178.39 38.09 178.74 40.46 179.09 38.98 179.44 39.27 179.79 38.68 180.14 33.05 180.49 32.76 180.84 32.76 181.19 34.83 181.54 33.35 181.89 32.16 182.23 31.87 182.58 30.39 182.93 28.31 183.28 29.79 183.63 29.79 183.98 32.76 184.33 31.87 184.68 28.31 185.03 26.54 185.38 30.68 185.73 29.79 186.08 28.61 186.42 29.5 186.77 30.98 187.12 29.5 187.47 32.76 187.82 36.61 188.17 35.42 188.52 33.35 188.87 33.05 189.22 33.35 189.57 34.53 189.92 32.76 190.26 33.94 190.61 41.35 190.96 43.13 191.31 41.64 191.66 35.42 192.01 34.53 192.36 34.83 192.71 32.46 193.06 33.05 193.41 37.2 193.76 38.68 194.11 35.72 194.45 37.5 194.8 40.16 195.15 42.24 195.5 41.35 195.85 39.57 196.2 40.16"/>
      </g>
      <g stroke-width="0.3" fill="#000000" fill-opacity="0.000" class="geometry" stroke-dasharray="none" stroke="#66C2A5" id="img-0878a17c-11">
        <path fill="none" d="M21.98,71.86 L 22.33 74.83 22.68 73.94 23.03 67.12 23.38 66.83 23.73 65.05 24.08 62.98 24.42 62.09 24.77 57.35 25.12 60.9 25.47 62.68 25.82 56.75 26.17 54.98 26.52 57.05 26.87 58.83 27.22 66.53 27.57 66.83 27.92 70.38 28.27 71.57 28.61 78.68 28.96 79.27 29.31 75.42 29.66 78.08 30.01 78.97 30.36 79.27 30.71 78.97 31.06 76.31 31.41 75.71 31.76 73.94 32.11 70.97 32.45 70.97 32.8 69.2 33.15 68.01 33.5 70.68 33.85 66.83 34.2 68.9 34.55 62.98 34.9 66.83 35.25 60.61 35.6 56.75 35.95 57.05 36.3 54.09 36.64 48.46 36.99 46.68 37.34 49.35 37.69 51.72 38.04 47.87 38.39 51.13 38.74 50.53 39.09 51.42 39.44 49.35 39.79 51.42 40.14 52.31 40.49 50.24 40.83 52.01 41.18 50.53 41.53 48.46 41.88 49.94 42.23 50.83 42.58 52.31 42.93 53.5 43.28 55.57 43.63 52.01 43.98 55.27 44.33 52.61 44.67 54.38 45.02 52.61 45.37 56.16 45.72 54.98 46.07 52.01 46.42 49.64 46.77 56.46 47.12 54.98 47.47 54.98 47.82 56.75 48.17 57.35 48.52 54.09 48.86 57.05 49.21 61.79 49.56 63.27 49.91 64.16 50.26 63.57 50.61 60.9 50.96 61.49 51.31 60.01 51.66 55.57 52.01 61.2 52.36 62.09 52.7 60.31 53.05 62.09 53.4 63.57 53.75 62.38 54.1 59.12 54.45 62.38 54.8 62.38 55.15 62.68 55.5 60.9 55.85 60.01 56.2 60.01 56.55 58.83 56.89 60.31 57.24 61.79 57.59 56.46 57.94 58.83 58.29 54.68 58.64 52.01 58.99 53.5 59.34 57.64 59.69 54.38 60.04 57.64 60.39 52.9 60.73 50.53 61.08 52.01 61.43 52.9 61.78 53.2 62.13 49.64 62.48 49.64 62.83 49.35 63.18 49.64 63.53 49.64 63.88 46.39 64.23 44.61 64.58 42.83 64.92 40.76 65.27 38.09 65.62 36.9 65.97 37.79 66.32 36.02 66.67 32.46 67.02 31.87 67.37 32.46 67.72 34.83 68.07 29.2 68.42 30.39 68.77 28.02 69.11 29.2 69.46 28.91 69.81 32.46 70.16 31.57 70.51 30.09 70.86 31.28 71.21 28.61 71.56 26.24 71.91 25.35 72.26 24.76 72.61 22.39 72.95 22.68 73.3 23.28 73.65 25.65 74 25.05 74.35 25.94 74.7 27.13 75.05 29.2 75.4 30.39 75.75 31.28 76.1 27.72 76.45 26.83 76.8 27.42 77.14 26.83 77.49 22.68 77.84 22.68 78.19 24.17 78.54 23.87 78.89 25.94 79.24 29.79 79.59 27.72 79.94 24.76 80.29 22.68 80.64 22.68 80.98 19.43 81.33 21.2 81.68 20.02 82.03 17.94 82.38 19.43 82.73 19.43 83.08 21.5 83.43 21.2 83.78 20.91 84.13 23.57 84.48 25.05 84.83 25.35 85.17 28.31 85.52 25.05 85.87 28.02 86.22 26.24 86.57 25.65 86.92 22.09 87.27 20.61 87.62 20.61 87.97 20.31 88.32 23.28 88.67 25.05 89.02 24.76 89.36 26.24 89.71 24.46 90.06 25.05 90.41 25.94 90.76 25.05 91.11 23.28 91.46 23.28 91.81 19.13 92.16 18.83 92.51 18.24 92.86 17.65 93.2 17.06 93.55 16.76 93.9 15.87 94.25 15.87 94.6 16.76 94.95 17.06 95.3 15.28 95.65 16.17 96 15.28 96.35 15.28 96.7 15.28 97.05 14.39 97.39 15.28 97.74 15.28 98.09 14.69 98.44 14.39 98.79 14.39 99.14 14.09 99.49 13.5 99.84 13.5 100.19 12.91 100.54 13.2 100.89 13.8 101.23 15.28 101.58 14.69 101.93 15.28 102.28 15.28 102.63 16.76 102.98 18.83 103.33 18.83 103.68 18.83 104.03 19.13 104.38 20.02 104.73 18.54 105.08 19.43 105.42 17.94 105.77 16.46 106.12 16.76 106.47 17.65 106.82 15.57 107.17 14.98 107.52 14.69 107.87 15.87 108.22 14.69 108.57 14.09 108.92 13.5 109.26 13.8 109.61 13.2 109.96 13.5 110.31 13.2 110.66 13.5 111.01 13.2 111.36 13.2 111.71 13.2 112.06 13.5 112.41 13.8 112.76 13.2 113.11 12.91 113.45 13.5 113.8 14.39 114.15 13.5 114.5 13.5 114.85 13.5 115.2 14.09 115.55 14.69 115.9 15.57 116.25 15.28 116.6 14.09 116.95 13.5 117.3 14.69 117.64 14.39 117.99 14.39 118.34 14.69 118.69 14.98 119.04 14.09 119.39 15.28 119.74 14.09 120.09 13.8 120.44 14.09 120.79 13.8 121.14 12.91 121.48 12.91 121.83 12.61"/>
      </g>
      <g stroke-width="0.3" fill="#000000" fill-opacity="0.000" class="geometry" stroke-dasharray="none" stroke="#ABDDA4" id="img-0878a17c-12">
        <path fill="none" d="M21.98,71.86 L 22.33 64.16 22.68 62.38 23.03 57.05 23.38 57.94 23.73 61.49 24.08 61.79 24.42 62.98 24.77 54.68 25.12 56.46 25.47 58.24 25.82 56.75 26.17 53.79 26.52 58.53 26.87 55.57 27.22 57.64 27.57 58.83 27.92 57.35 28.27 60.61 28.61 58.83 28.96 56.46 29.31 55.87 29.66 54.38 30.01 57.05 30.36 60.31 30.71 57.35 31.06 57.64 31.41 58.53 31.76 55.87 32.11 59.72 32.45 59.12 32.8 57.94 33.15 56.16 33.5 54.38 33.85 52.61 34.2 53.2 34.55 51.42 34.9 55.27 35.25 57.35 35.6 54.68 35.95 54.68 36.3 55.87 36.64 56.75 36.99 60.9 37.34 63.86 37.69 60.01 38.04 56.16 38.39 54.38 38.74 46.98 39.09 39.27 39.44 43.13 39.79 44.31 40.14 44.61 40.49 46.09 40.83 45.2 41.18 41.94 41.53 39.87 41.88 41.05 42.23 39.87 42.58 44.9 42.93 46.98 43.28 48.76 43.63 49.35 43.98 52.01 44.33 52.31 44.67 50.83 45.02 51.42 45.37 49.35 45.72 45.5 46.07 45.79 46.42 46.98 46.77 49.05 47.12 51.13 47.47 51.13 47.82 47.87 48.17 49.94 48.52 49.64 48.86 49.64 49.21 46.98 49.56 44.02 49.91 42.83 50.26 41.35 50.61 39.87 50.96 38.09 51.31 36.61 51.66 37.2 52.01 36.02 52.36 33.94 52.7 35.13 53.05 33.94 53.4 30.09 53.75 30.09 54.1 32.46 54.45 31.57 54.8 29.79 55.15 25.35 55.5 27.72 55.85 27.72 56.2 28.02 56.55 29.5 56.89 26.24 57.24 22.68 57.59 25.65 57.94 26.83 58.29 26.83 58.64 28.61 58.99 29.5 59.34 28.02 59.69 25.65 60.04 28.91 60.39 28.61 60.73 26.54 61.08 28.02 61.43 29.2 61.78 29.2 62.13 28.31 62.48 28.61 62.83 27.72 63.18 29.2 63.53 26.83 63.88 27.13 64.23 28.02 64.58 29.5 64.92 25.35 65.27 27.42 65.62 27.42 65.97 27.13 66.32 29.2 66.67 32.46 67.02 33.35 67.37 30.68 67.72 35.13 68.07 35.42 68.42 33.35 68.77 36.31 69.11 35.13 69.46 38.68 69.81 42.24 70.16 36.02 70.51 36.9 70.86 34.24 71.21 36.9 71.56 33.35 71.91 35.72 72.26 34.83 72.61 32.46 72.95 34.53 73.3 37.2 73.65 34.83 74 30.09 74.35 29.2 74.7 36.31 75.05 33.94 75.4 36.31 75.75 37.79 76.1 40.46 76.45 47.27 76.8 43.13 77.14 43.42 77.49 45.5 77.84 49.05 78.19 45.2 78.54 46.39 78.89 44.31 79.24 42.83 79.59 37.79 79.94 33.05 80.29 31.28 80.64 35.13 80.98 30.68 81.33 30.09 81.68 28.31 82.03 25.94 82.38 28.31 82.73 29.5 83.08 28.31 83.43 27.72 83.78 25.65 84.13 24.46 84.48 25.35 84.83 27.13 85.17 25.35 85.52 26.83 85.87 27.72 86.22 27.42 86.57 30.09 86.92 32.16 87.27 32.76 87.62 31.57 87.97 29.79 88.32 32.76 88.67 34.83 89.02 37.79 89.36 38.39 89.71 40.46 90.06 38.39 90.41 34.53 90.76 33.94 91.11 32.46 91.46 32.46 91.81 31.87 92.16 29.2 92.51 28.31 92.86 28.31 93.2 28.61 93.55 30.09 93.9 31.87 94.25 30.68 94.6 30.98 94.95 33.94 95.3 33.94 95.65 34.24 96 37.79 96.35 38.09 96.7 38.39 97.05 38.09 97.39 32.16 97.74 32.76 98.09 32.76 98.44 30.39 98.79 32.16 99.14 37.2 99.49 41.94 99.84 41.05 100.19 37.2 100.54 36.9 100.89 34.53 101.23 33.94 101.58 33.65 101.93 34.53 102.28 35.72 102.63 34.83 102.98 34.53 103.33 32.46 103.68 32.46 104.03 34.24 104.38 31.57 104.73 34.53 105.08 32.46 105.42 33.05 105.77 39.27 106.12 37.79 106.47 35.13 106.82 37.79 107.17 39.87 107.52 40.16 107.87 38.09 108.22 40.46 108.57 42.24 108.92 47.57 109.26 51.42 109.61 52.01 109.96 51.72 110.31 47.57 110.66 49.94 111.01 46.39 111.36 47.27 111.71 42.53 112.06 39.57 112.41 38.09 112.76 34.53 113.11 37.79 113.45 37.5 113.8 36.31 114.15 33.94 114.5 34.53 114.85 39.57 115.2 39.27 115.55 43.13 115.9 42.53 116.25 38.98 116.6 37.79 116.95 38.39 117.3 42.24 117.64 45.2 117.99 44.61 118.34 49.64 118.69 51.42 119.04 45.5 119.39 42.24 119.74 39.27 120.09 38.09 120.44 33.65 120.79 32.16 121.14 30.98 121.48 31.57 121.83 28.02 122.18 25.65 122.53 25.65 122.88 25.35 123.23 31.28 123.58 31.57 123.93 32.46 124.28 32.46 124.63 33.35 124.98 30.39 125.33 30.98 125.67 29.79 126.02 28.31 126.37 26.83 126.72 22.39 127.07 23.87 127.42 22.09 127.77 20.31 128.12 20.61 128.47 19.43 128.82 19.13 129.17 19.13 129.51 20.02 129.86 22.39 130.21 23.28 130.56 20.91 130.91 19.43 131.26 21.5 131.61 20.02 131.96 18.83 132.31 17.35 132.66 18.24 133.01 16.46 133.36 17.35 133.7 16.17 134.05 15.87 134.4 15.57 134.75 16.46 135.1 14.69 135.45 13.8 135.8 14.39 136.15 15.28 136.5 13.8 136.85 13.2 137.2 13.5 137.55 13.5 137.89 13.5 138.24 12.91 138.59 13.2 138.94 12.91 139.29 12.61"/>
      </g>
      <g stroke-width="0.3" fill="#000000" fill-opacity="0.000" class="geometry" stroke-dasharray="none" stroke="#E6F598" id="img-0878a17c-13">
        <path fill="none" d="M21.98,71.86 L 22.33 71.86 22.68 74.53 23.03 78.08 23.38 74.83 23.73 76.01 24.08 76.9 24.42 76.9 24.77 77.49 25.12 77.79 25.47 81.94 25.82 82.23 26.17 82.82 26.52 79.86 26.87 84.01 27.22 81.05 27.57 78.08 27.92 76.6 28.27 81.94 28.61 84.6 28.96 83.12 29.31 83.12 29.66 88.16 30.01 89.05 30.36 90.23 30.71 90.82 31.06 96.75 31.41 98.82 31.76 98.82 32.11 98.82 32.45 93.49 32.8 90.82 33.15 93.79 33.5 93.49 33.85 93.79 34.2 99.12 34.55 99.12 34.9 97.64 35.25 96.45 35.6 99.12 35.95 103.86 36.3 102.08 36.64 101.79 36.99 103.56 37.34 101.49 37.69 101.79 38.04 97.64 38.39 97.34 38.74 97.05 39.09 97.93 39.44 99.12 39.79 100.9 40.14 101.79 40.49 101.79 40.83 97.34 41.18 97.05 41.53 97.93 41.88 97.64 42.23 102.08 42.58 105.93 42.93 101.19 43.28 99.12 43.63 97.34 43.98 97.34 44.33 91.42 44.67 87.86 45.02 90.23 45.37 87.86 45.72 85.19 46.07 80.16 46.42 79.86 46.77 81.64 47.12 84.31 47.47 89.05 47.82 93.19 48.17 92.9 48.52 93.49 48.86 95.86 49.21 94.68 49.56 92.01 49.91 92.9 50.26 95.56 50.61 96.75 50.96 100.3 51.31 100.6 51.66 101.49 52.01 99.71 52.36 99.12 52.7 98.23 53.05 90.82 53.4 95.27 53.75 97.93 54.1 100.9 54.45 99.71 54.8 94.38 55.15 90.53 55.5 93.49 55.85 96.16 56.2 94.38 56.55 97.93 56.89 96.75 57.24 96.45 57.59 97.34 57.94 97.93 58.29 95.56 58.64 97.05 58.99 96.16 59.34 93.49 59.69 93.79 60.04 92.01 60.39 91.42 60.73 90.53 61.08 88.45 61.43 87.57 61.78 86.68 62.13 86.08 62.48 82.23 62.83 82.23 63.18 81.34 63.53 79.86 63.88 76.9 64.23 78.08 64.58 81.34 64.92 79.27 65.27 83.12 65.62 86.38 65.97 85.49 66.32 79.86 66.67 81.05 67.02 76.01 67.37 78.97 67.72 78.97 68.07 78.97 68.42 80.45 68.77 83.12 69.11 83.42 69.46 84.01 69.81 89.34 70.16 91.12 70.51 97.93 70.86 102.08 71.21 99.12 71.56 101.49 71.91 106.53 72.26 109.19 72.61 110.38 72.95 111.27 73.3 111.56 73.65 108.01 74 108.6 74.35 108.9 74.7 106.82 75.05 106.53 75.4 109.19 75.75 107.12 76.1 108.9 76.45 110.97 76.8 107.71 77.14 108.6 77.49 109.49 77.84 108.9 78.19 105.93 78.54 108.01 78.89 105.34 79.24 108.01 79.59 107.41 79.94 108.6 80.29 107.71 80.64 110.38 80.98 111.27 81.33 111.56 81.68 115.71 82.03 115.41 82.38 114.52 82.73 114.82 83.08 116.3 83.43 116.3 83.78 116.6 84.13 117.19 84.48 114.23 84.83 113.04 85.17 116.6 85.52 119.26 85.87 119.56 86.22 120.75 86.57 119.56 86.92 118.67 87.27 119.86 87.62 120.75 87.97 122.23 88.32 118.97 88.67 119.56 89.02 118.08 89.36 116.01 89.71 116.3 90.06 117.78 90.41 119.26 90.76 119.56 91.11 120.45 91.46 123.41 91.81 123.41 92.16 125.19 92.51 125.19 92.86 125.19 93.2 126.37 93.55 126.67 93.9 126.37 94.25 126.97 94.6 128.15 94.95 128.74 95.3 128.45 95.65 128.45 96 127.26 96.35 127.26 96.7 126.97 97.05 126.97 97.39 126.08 97.74 126.67 98.09 128.74 98.44 128.15 98.79 127.86 99.14 128.15 99.49 126.67 99.84 122.82 100.19 123.12 100.54 123.41 100.89 124.6 101.23 125.49 101.58 124.6 101.93 124.3 102.28 125.78 102.63 126.37 102.98 128.45 103.33 128.15 103.68 126.97 104.03 129.93 104.38 129.63 104.73 130.23 105.08 130.52 105.42 130.52 105.77 129.34 106.12 129.04 106.47 130.23 106.82 130.82 107.17 130.82 107.52 130.82 107.87 131.11"/>
      </g>
      <g stroke-width="0.3" fill="#000000" fill-opacity="0.000" class="geometry" stroke-dasharray="none" stroke="#FFFFBF" id="img-0878a17c-14">
        <path fill="none" d="M21.98,71.86 L 22.33 76.01 22.68 77.79 23.03 77.79 23.38 75.12 23.73 73.34 24.08 73.34 24.42 76.9 24.77 68.01 25.12 69.79 25.47 67.12 25.82 64.16 26.17 67.12 26.52 65.94 26.87 64.75 27.22 61.2 27.57 59.12 27.92 63.86 28.27 63.86 28.61 66.83 28.96 65.35 29.31 65.35 29.66 68.01 30.01 66.53 30.36 70.09 30.71 75.12 31.06 68.31 31.41 70.38 31.76 71.57 32.11 69.49 32.45 66.83 32.8 71.86 33.15 70.97 33.5 75.71 33.85 77.2 34.2 82.53 34.55 86.08 34.9 81.94 35.25 81.94 35.6 83.12 35.95 80.75 36.3 82.82 36.64 84.9 36.99 86.97 37.34 91.12 37.69 93.79 38.04 91.71 38.39 86.68 38.74 89.05 39.09 87.57 39.44 86.38 39.79 87.27 40.14 86.38 40.49 86.38 40.83 87.27 41.18 84.6 41.53 85.49 41.88 87.27 42.23 85.19 42.58 85.19 42.93 90.23 43.28 86.97 43.63 88.75 43.98 87.27 44.33 91.12 44.67 92.01 45.02 88.16 45.37 86.68 45.72 93.49 46.07 93.19 46.42 91.71 46.77 94.97 47.12 93.79 47.47 96.45 47.82 98.53 48.17 104.45 48.52 105.64 48.86 106.82 49.21 105.04 49.56 102.08 49.91 103.56 50.26 102.97 50.61 102.97 50.96 104.16 51.31 101.79 51.66 100.6 52.01 100.9 52.36 104.75 52.7 106.82 53.05 104.75 53.4 106.23 53.75 110.38 54.1 109.19 54.45 114.82 54.8 116.3 55.15 117.49 55.5 116.01 55.85 116.01 56.2 114.23 56.55 117.49 56.89 117.19 57.24 116.6 57.59 113.34 57.94 111.56 58.29 111.27 58.64 109.78 58.99 110.67 59.34 111.86 59.69 108.01 60.04 109.78 60.39 113.34 60.73 110.38 61.08 110.67 61.43 107.41 61.78 105.34 62.13 101.49 62.48 102.97 62.83 97.05 63.18 97.93 63.53 94.08 63.88 91.12 64.23 93.19 64.58 89.94 64.92 91.71 65.27 87.86 65.62 94.97 65.97 94.68 66.32 99.12 66.67 99.12 67.02 100.9 67.37 101.19 67.72 98.53 68.07 97.93 68.42 100.9 68.77 98.53 69.11 100.6 69.46 97.05 69.81 97.93 70.16 99.71 70.51 97.93 70.86 97.34 71.21 98.82 71.56 98.82 71.91 99.12 72.26 95.56 72.61 93.79 72.95 87.57 73.3 89.34 73.65 87.57 74 88.16 74.35 86.68 74.7 85.49 75.05 80.75 75.4 79.57 75.75 84.9 76.1 83.42 76.45 78.38 76.8 72.16 77.14 77.79 77.49 79.57 77.84 84.31 78.19 84.01 78.54 86.97 78.89 93.19 79.24 95.27 79.59 99.12 79.94 102.97 80.29 109.19 80.64 111.27 80.98 113.93 81.33 116.3 81.68 117.78 82.03 115.71 82.38 118.38 82.73 119.56 83.08 119.56 83.43 116.89 83.78 119.26 84.13 119.56 84.48 120.45 84.83 119.86 85.17 119.86 85.52 119.86 85.87 120.75 86.22 121.63 86.57 120.15 86.92 120.75 87.27 118.38 87.62 120.15 87.97 119.86 88.32 118.97 88.67 116.89 89.02 115.41 89.36 115.12 89.71 114.82 90.06 115.12 90.41 117.78 90.76 117.49 91.11 118.38 91.46 120.45 91.81 118.97 92.16 117.78 92.51 119.86 92.86 118.67 93.2 118.67 93.55 116.01 93.9 115.41 94.25 115.12 94.6 113.04 94.95 113.34 95.3 117.19 95.65 113.34 96 113.64 96.35 112.45 96.7 111.86 97.05 110.97 97.39 106.23 97.74 106.23 98.09 109.19 98.44 110.08 98.79 109.78 99.14 108.9 99.49 110.38 99.84 110.97 100.19 112.45 100.54 116.3 100.89 117.49 101.23 117.19 101.58 117.78 101.93 120.15 102.28 120.75 102.63 121.04 102.98 122.82 103.33 119.86 103.68 118.38 104.03 117.19 104.38 118.08 104.73 115.41 105.08 115.12 105.42 113.64 105.77 114.52 106.12 117.49 106.47 114.82 106.82 113.64 107.17 114.23 107.52 111.86 107.87 112.45 108.22 110.38 108.57 108.9 108.92 107.71 109.26 107.71 109.61 111.27 109.96 113.64 110.31 112.75 110.66 108.9 111.01 111.86 111.36 110.08 111.71 105.04 112.06 101.19 112.41 104.75 112.76 102.97 113.11 101.49 113.45 102.38 113.8 99.71 114.15 104.45 114.5 102.67 114.85 100.3 115.2 99.71 115.55 99.71 115.9 102.67 116.25 105.34 116.6 107.41 116.95 110.08 117.3 111.86 117.64 113.64 117.99 116.01 118.34 118.67 118.69 117.78 119.04 118.38 119.39 120.15 119.74 120.45 120.09 119.56 120.44 118.08 120.79 118.97 121.14 118.08 121.48 118.08 121.83 117.78 122.18 119.56 122.53 118.38 122.88 120.75 123.23 120.75 123.58 121.63 123.93 119.56 124.28 115.71 124.63 115.41 124.98 119.26 125.33 118.97 125.67 115.71 126.02 113.04 126.37 108.01 126.72 106.53 127.07 108.9 127.42 110.97 127.77 111.86 128.12 112.15 128.47 113.93 128.82 117.19 129.17 116.3 129.51 115.41 129.86 117.19 130.21 118.08 130.56 117.49 130.91 117.49 131.26 119.26 131.61 118.38 131.96 117.19 132.31 114.82 132.66 114.82 133.01 117.19 133.36 118.38 133.7 119.56 134.05 118.08 134.4 117.49 134.75 115.12 135.1 111.27 135.45 110.97 135.8 107.71 136.15 108.01 136.5 105.04 136.85 108.3 137.2 107.71 137.55 109.49 137.89 108.01 138.24 108.3 138.59 109.19 138.94 111.27 139.29 114.23 139.64 116.89 139.99 114.23 140.34 113.34 140.69 112.45 141.04 110.67 141.39 109.19 141.73 107.41 142.08 112.15 142.43 111.27 142.78 110.08 143.13 113.64 143.48 112.75 143.83 114.82 144.18 115.12 144.53 114.23 144.88 116.3 145.23 114.82 145.58 111.27 145.92 108.9 146.27 106.23 146.62 106.23 146.97 107.12 147.32 108.3 147.67 108.9 148.02 110.38 148.37 110.97 148.72 108.01 149.07 107.12 149.42 107.71 149.76 107.71 150.11 108.01 150.46 113.34 150.81 112.15 151.16 114.23 151.51 113.93 151.86 113.04 152.21 113.64 152.56 115.71 152.91 116.01 153.26 117.19 153.61 117.19 153.95 117.49 154.3 116.6 154.65 115.71 155 113.93 155.35 116.89 155.7 115.12 156.05 113.34 156.4 116.01 156.75 115.71 157.1 116.6 157.45 116.6 157.79 116.89 158.14 116.6 158.49 118.38 158.84 120.15 159.19 120.75 159.54 121.63 159.89 120.75 160.24 119.56 160.59 119.86 160.94 120.15 161.29 121.34 161.64 122.82 161.98 122.23 162.33 122.23 162.68 121.93 163.03 120.75 163.38 122.23 163.73 121.34 164.08 123.71 164.43 124.89 164.78 125.19 165.13 126.67 165.48 124.6 165.83 125.19 166.17 123.71 166.52 122.52 166.87 120.75 167.22 118.67 167.57 122.52 167.92 123.41 168.27 123.12 168.62 123.12 168.97 122.82 169.32 123.41 169.67 123.71 170.01 124.89 170.36 125.19 170.71 124.89 171.06 124.6 171.41 124 171.76 125.49 172.11 124.6 172.46 125.49 172.81 125.78 173.16 124.6 173.51 123.41 173.86 124.6 174.2 123.41 174.55 125.49 174.9 125.78 175.25 126.37 175.6 127.86 175.95 128.15 176.3 126.97 176.65 128.45 177 129.34 177.35 129.04 177.7 128.45 178.04 129.34 178.39 129.34 178.74 130.23 179.09 130.82 179.44 131.11"/>
      </g>
      <g stroke-width="0.3" fill="#000000" fill-opacity="0.000" class="geometry" stroke-dasharray="none" stroke="#FEE08B" id="img-0878a17c-15">
        <path fill="none" d="M21.98,71.86 L 22.33 77.2 22.68 81.34 23.03 80.75 23.38 81.05 23.73 84.01 24.08 86.97 24.42 85.49 24.77 82.53 25.12 78.97 25.47 81.94 25.82 81.05 26.17 75.12 26.52 75.42 26.87 73.94 27.22 66.53 27.57 67.42 27.92 69.2 28.27 73.94 28.61 76.9 28.96 76.31 29.31 76.9 29.66 76.31 30.01 71.86 30.36 71.86 30.71 69.49 31.06 67.12 31.41 64.46 31.76 63.86 32.11 63.57 32.45 60.31 32.8 59.72 33.15 60.61 33.5 60.01 33.85 59.72 34.2 58.83 34.55 63.27 34.9 62.98 35.25 67.12 35.6 67.42 35.95 65.94 36.3 68.6 36.64 71.27 36.99 73.64 37.34 70.38 37.69 68.6 38.04 65.64 38.39 68.31 38.74 69.2 39.09 70.09 39.44 69.2 39.79 64.46 40.14 63.86 40.49 66.53 40.83 69.49 41.18 67.72 41.53 61.49 41.88 59.12 42.23 63.57 42.58 64.46 42.93 68.6 43.28 71.86 43.63 74.53 43.98 66.83 44.33 67.72 44.67 68.6 45.02 69.79 45.37 70.97 45.72 70.68 46.07 71.27 46.42 70.38 46.77 67.72 47.12 70.38 47.47 71.57 47.82 75.12 48.17 73.05 48.52 72.46 48.86 73.64 49.21 72.75 49.56 70.68 49.91 68.31 50.26 71.86 50.61 73.34 50.96 77.2 51.31 77.49 51.66 76.01 52.01 82.23 52.36 86.68 52.7 85.79 53.05 90.23 53.4 92.01 53.75 89.94 54.1 89.05 54.45 83.71 54.8 84.31 55.15 85.19 55.5 88.45 55.85 87.57 56.2 92.6 56.55 95.56 56.89 100.3 57.24 98.23 57.59 97.64 57.94 104.75 58.29 106.23 58.64 106.23 58.99 105.04 59.34 105.64 59.69 102.08 60.04 99.71 60.39 100.9 60.73 100.9 61.08 102.67 61.43 103.56 61.78 105.64 62.13 107.71 62.48 106.53 62.83 105.93 63.18 104.45 63.53 102.08 63.88 102.08 64.23 100.9 64.58 100.01 64.92 97.34 65.27 97.64 65.62 94.97 65.97 92.6 66.32 92.31 66.67 88.16 67.02 91.42 67.37 88.45 67.72 89.34 68.07 87.57 68.42 85.19 68.77 82.53 69.11 81.94 69.46 78.08 69.81 81.94 70.16 78.97 70.51 81.34 70.86 86.68 71.21 86.97 71.56 89.05 71.91 89.94 72.26 89.94 72.61 92.6 72.95 86.68 73.3 81.64 73.65 82.82 74 84.9 74.35 85.19 74.7 82.23 75.05 84.31 75.4 87.86 75.75 90.23 76.1 90.53 76.45 89.34 76.8 87.86 77.14 83.71 77.49 85.79 77.84 85.19 78.19 82.82 78.54 83.71 78.89 84.9 79.24 86.38 79.59 92.6 79.94 88.16 80.29 86.97 80.64 89.05 80.98 88.45 81.33 80.75 81.68 82.23 82.03 88.16 82.38 87.27 82.73 81.34 83.08 82.82 83.43 85.79 83.78 82.82 84.13 85.79 84.48 82.23 84.83 80.45 85.17 82.23 85.52 78.97 85.87 78.68 86.22 78.97 86.57 82.23 86.92 77.49 87.27 75.12 87.62 74.53 87.97 71.57 88.32 70.68 88.67 67.12 89.02 63.86 89.36 64.46 89.71 61.2 90.06 62.98 90.41 65.64 90.76 62.68 91.11 60.9 91.46 62.68 91.81 59.12 92.16 60.61 92.51 59.72 92.86 55.87 93.2 61.79 93.55 61.79 93.9 56.16 94.25 56.46 94.6 64.46 94.95 64.16 95.3 61.79 95.65 63.57 96 63.57 96.35 65.64 96.7 68.01 97.05 67.42 97.39 68.6 97.74 67.72 98.09 73.05 98.44 73.34 98.79 71.57 99.14 68.9 99.49 79.27 99.84 78.68 100.19 76.6 100.54 75.71 100.89 74.53 101.23 76.31 101.58 78.68 101.93 77.49 102.28 76.31 102.63 76.01 102.98 77.49 103.33 77.2 103.68 76.9 104.03 73.05 104.38 73.64 104.73 75.12 105.08 77.79 105.42 75.71 105.77 73.05 106.12 68.6 106.47 67.12 106.82 70.09 107.17 71.57 107.52 72.46 107.87 75.12 108.22 73.64 108.57 75.12 108.92 78.08 109.26 79.86 109.61 76.6 109.96 74.23 110.31 76.6 110.66 73.34 111.01 74.83 111.36 73.64 111.71 71.27 112.06 68.01 112.41 66.53 112.76 64.75 113.11 65.05 113.45 59.72 113.8 60.31 114.15 58.83 114.5 62.98 114.85 66.53 115.2 64.75 115.55 62.68 115.9 61.49 116.25 65.94 116.6 65.94 116.95 69.79 117.3 69.79 117.64 72.16 117.99 72.46 118.34 67.72 118.69 67.72 119.04 66.83 119.39 65.94 119.74 69.2 120.09 73.34 120.44 75.42 120.79 71.86 121.14 64.75 121.48 63.86 121.83 62.38 122.18 64.75 122.53 61.49 122.88 58.24 123.23 59.12 123.58 58.24 123.93 56.46 124.28 56.46 124.63 58.24 124.98 53.2 125.33 58.83 125.67 58.83 126.02 59.42 126.37 57.94 126.72 56.46 127.07 56.75 127.42 56.16 127.77 54.09 128.12 52.61 128.47 54.38 128.82 49.35 129.17 44.61 129.51 45.2 129.86 42.83 130.21 42.83 130.56 42.24 130.91 43.42 131.26 44.31 131.61 46.68 131.96 46.39 132.31 46.09 132.66 51.13 133.01 49.35 133.36 48.46 133.7 48.16 134.05 48.46 134.4 49.94 134.75 46.98 135.1 48.46 135.45 54.98 135.8 51.72 136.15 50.53 136.5 51.72 136.85 52.01 137.2 49.05 137.55 47.27 137.89 44.61 138.24 41.64 138.59 38.39 138.94 42.83 139.29 43.42 139.64 38.68 139.99 37.79 140.34 38.39 140.69 37.2 141.04 38.68 141.39 38.98 141.73 36.9 142.08 36.02 142.43 41.64 142.78 42.24 143.13 41.64 143.48 37.79 143.83 40.16 144.18 41.05 144.53 44.02 144.88 44.31 145.23 44.9 145.58 39.87 145.92 39.57 146.27 36.9 146.62 38.39 146.97 35.72 147.32 34.83 147.67 37.79 148.02 36.9 148.37 38.68 148.72 42.83 149.07 44.31 149.42 42.53 149.76 46.39 150.11 45.2 150.46 42.53 150.81 43.13 151.16 41.05 151.51 39.57 151.86 39.27 152.21 41.05 152.56 42.83 152.91 46.09 153.26 44.61 153.61 38.68 153.95 42.83 154.3 42.83 154.65 42.24 155 42.83 155.35 41.64 155.7 42.53 156.05 44.9 156.4 44.9 156.75 40.76 157.1 44.61 157.45 44.31 157.79 43.42 158.14 40.76 158.49 41.05 158.84 41.94 159.19 37.2 159.54 40.16 159.89 38.68 160.24 36.02 160.59 38.68 160.94 38.98 161.29 33.94 161.64 32.16 161.98 29.79 162.33 31.28 162.68 32.46 163.03 34.24 163.38 37.79 163.73 38.09 164.08 41.35 164.43 41.94 164.78 38.09 165.13 37.2 165.48 38.39 165.83 36.9 166.17 39.87 166.52 38.68 166.87 35.42 167.22 36.9 167.57 38.39 167.92 38.68 168.27 42.24 168.62 39.87 168.97 40.46 169.32 38.98 169.67 34.83 170.01 35.72 170.36 38.98 170.71 37.79 171.06 42.53 171.41 34.24 171.76 38.98 172.11 36.61 172.46 36.02 172.81 34.83 173.16 32.16 173.51 29.2 173.86 24.46 174.2 24.17 174.55 23.28 174.9 24.17 175.25 26.24 175.6 23.57 175.95 25.94 176.3 26.54 176.65 26.24 177 28.02 177.35 28.91 177.7 29.5 178.04 30.39 178.39 30.39 178.74 33.65 179.09 33.65 179.44 32.46 179.79 33.65 180.14 33.35 180.49 32.46 180.84 33.94 181.19 32.16 181.54 34.24 181.89 28.91 182.23 30.98 182.58 31.87 182.93 30.39 183.28 31.57 183.63 33.65 183.98 34.83 184.33 36.61 184.68 40.16 185.03 38.09 185.38 37.2 185.73 40.16 186.08 39.57 186.42 40.46 186.77 42.53 187.12 44.9 187.47 44.9 187.82 47.87 188.17 45.2 188.52 50.53 188.87 54.38 189.22 56.46 189.57 54.68 189.92 54.38 190.26 53.5 190.61 51.13 190.96 53.79 191.31 53.2 191.66 51.72 192.01 51.72 192.36 55.57 192.71 54.09 193.06 56.46 193.41 55.27 193.76 57.94 194.11 57.05 194.45 53.79 194.8 52.61 195.15 54.38 195.5 57.05 195.85 55.87 196.2 59.72"/>
      </g>
      <g stroke-width="0.3" fill="#000000" fill-opacity="0.000" class="geometry" stroke-dasharray="none" stroke="#FDAE61" id="img-0878a17c-16">
        <path fill="none" d="M21.98,71.86 L 22.33 68.6 22.68 64.46 23.03 60.9 23.38 56.75 23.73 51.42 24.08 51.72 24.42 52.31 24.77 53.5 25.12 52.9 25.47 57.94 25.82 58.53 26.17 56.16 26.52 58.53 26.87 58.24 27.22 58.53 27.57 55.27 27.92 54.68 28.27 61.79 28.61 63.86 28.96 63.57 29.31 65.35 29.66 65.64 30.01 66.83 30.36 66.83 30.71 67.12 31.06 63.57 31.41 63.57 31.76 67.12 32.11 68.01 32.45 65.94 32.8 66.23 33.15 62.38 33.5 64.75 33.85 63.57 34.2 61.79 34.55 63.57 34.9 60.31 35.25 65.05 35.6 62.68 35.95 65.35 36.3 66.53 36.64 70.09 36.99 67.42 37.34 69.49 37.69 65.64 38.04 62.09 38.39 55.57 38.74 56.75 39.09 57.05 39.44 54.38 39.79 56.46 40.14 51.42 40.49 52.61 40.83 48.16 41.18 48.16 41.53 50.24 41.88 50.24 42.23 49.94 42.58 45.79 42.93 45.2 43.28 45.5 43.63 46.39 43.98 46.39 44.33 42.83 44.67 41.64 45.02 45.2 45.37 42.53 45.72 44.02 46.07 44.9 46.42 44.9 46.77 43.13 47.12 47.27 47.47 49.64 47.82 49.94 48.17 53.79 48.52 57.05 48.86 60.31 49.21 59.42 49.56 57.64 49.91 54.09 50.26 49.94 50.61 45.79 50.96 43.72 51.31 47.27 51.66 49.94 52.01 49.94 52.36 52.61 52.7 55.87 53.05 52.61 53.4 50.83 53.75 54.68 54.1 56.16 54.45 55.27 54.8 59.42 55.15 58.83 55.5 57.64 55.85 61.49 56.2 57.35 56.55 55.87 56.89 61.2 57.24 59.12 57.59 59.12 57.94 55.87 58.29 56.75 58.64 59.42 58.99 55.57 59.34 51.42 59.69 48.16 60.04 45.2 60.39 44.9 60.73 42.24 61.08 44.02 61.43 41.35 61.78 43.13 62.13 38.39 62.48 38.68 62.83 38.39 63.18 42.53 63.53 45.2 63.88 41.94 64.23 44.02 64.58 41.94 64.92 38.98 65.27 36.61 65.62 30.98 65.97 29.5 66.32 29.79 66.67 28.31 67.02 24.76 67.37 22.98 67.72 22.98 68.07 24.17 68.42 23.87 68.77 22.09 69.11 21.8 69.46 21.2 69.81 20.02 70.16 20.31 70.51 20.02 70.86 20.02 71.21 20.31 71.56 19.72 71.91 20.61 72.26 24.17 72.61 23.87 72.95 24.76 73.3 22.68 73.65 23.28 74 26.83 74.35 25.94 74.7 28.02 75.05 29.79 75.4 29.2 75.75 32.16 76.1 33.35 76.45 34.53 76.8 31.57 77.14 34.24 77.49 33.65 77.84 32.46 78.19 36.02 78.54 32.16 78.89 29.2 79.24 25.94 79.59 28.02 79.94 29.2 80.29 28.02 80.64 29.2 80.98 30.68 81.33 31.28 81.68 29.2 82.03 28.61 82.38 28.91 82.73 25.65 83.08 25.35 83.43 24.17 83.78 24.17 84.13 22.68 84.48 20.61 84.83 23.28 85.17 23.28 85.52 22.39 85.87 21.8 86.22 21.8 86.57 19.13 86.92 19.43 87.27 20.02 87.62 16.76 87.97 17.06 88.32 17.06 88.67 17.35 89.02 16.76 89.36 16.76 89.71 15.87 90.06 14.98 90.41 14.98 90.76 14.98 91.11 13.8 91.46 13.5 91.81 13.5 92.16 13.2 92.51 13.2 92.86 12.61"/>
      </g>
      <g stroke-width="0.3" fill="#000000" fill-opacity="0.000" class="geometry" stroke-dasharray="none" stroke="#F46D43" id="img-0878a17c-17">
        <path fill="none" d="M21.98,71.86 L 22.33 73.94 22.68 71.57 23.03 73.05 23.38 71.27 23.73 67.12 24.08 67.72 24.42 66.23 24.77 67.12 25.12 68.6 25.47 72.46 25.82 74.23 26.17 76.31 26.52 77.2 26.87 83.71 27.22 86.97 27.57 87.86 27.92 86.68 28.27 84.6 28.61 84.01 28.96 84.6 29.31 86.08 29.66 88.75 30.01 88.16 30.36 86.97 30.71 90.23 31.06 93.19 31.41 91.71 31.76 94.08 32.11 95.86 32.45 96.75 32.8 98.23 33.15 103.27 33.5 108.6 33.85 106.23 34.2 107.41 34.55 105.34 34.9 99.42 35.25 102.67 35.6 101.19 35.95 103.27 36.3 101.49 36.64 97.64 36.99 101.49 37.34 103.56 37.69 104.75 38.04 105.34 38.39 101.79 38.74 101.79 39.09 100.3 39.44 100.6 39.79 101.19 40.14 105.93 40.49 102.97 40.83 105.64 41.18 104.45 41.53 104.16 41.88 104.45 42.23 105.93 42.58 105.04 42.93 103.86 43.28 104.45 43.63 100.6 43.98 103.86 44.33 102.08 44.67 105.64 45.02 109.19 45.37 110.38 45.72 109.78 46.07 109.19 46.42 110.08 46.77 107.41 47.12 107.12 47.47 106.23 47.82 108.3 48.17 110.08 48.52 109.49 48.86 110.38 49.21 113.04 49.56 113.64 49.91 113.93 50.26 114.52 50.61 113.64 50.96 114.82 51.31 115.12 51.66 118.38 52.01 121.04 52.36 121.34 52.7 120.75 53.05 119.26 53.4 114.52 53.75 110.08 54.1 110.97 54.45 113.04 54.8 113.93 55.15 113.04 55.5 112.45 55.85 113.04 56.2 111.56 56.55 112.75 56.89 111.27 57.24 109.49 57.59 105.93 57.94 107.41 58.29 105.64 58.64 105.64 58.99 105.04 59.34 100.6 59.69 98.82 60.04 96.45 60.39 95.56 60.73 94.68 61.08 89.94 61.43 90.82 61.78 93.79 62.13 95.27 62.48 95.56 62.83 95.56 63.18 95.27 63.53 97.34 63.88 96.75 64.23 94.97 64.58 93.49 64.92 96.16 65.27 89.05 65.62 90.82 65.97 93.49 66.32 94.08 66.67 92.6 67.02 90.53 67.37 85.49 67.72 92.01 68.07 87.57 68.42 89.34 68.77 90.23 69.11 92.31 69.46 89.64 69.81 87.57 70.16 92.31 70.51 92.9 70.86 93.49 71.21 94.08 71.56 95.86 71.91 99.42 72.26 102.38 72.61 102.67 72.95 103.56 73.3 100.6 73.65 99.71 74 96.45 74.35 99.42 74.7 96.45 75.05 94.68 75.4 97.34 75.75 97.05 76.1 96.16 76.45 93.49 76.8 94.97 77.14 97.64 77.49 96.45 77.84 97.34 78.19 97.34 78.54 94.08 78.89 95.86 79.24 98.82 79.59 94.68 79.94 95.27 80.29 98.23 80.64 97.93 80.98 104.16 81.33 103.86 81.68 106.82 82.03 109.49 82.38 104.45 82.73 102.67 83.08 103.56 83.43 108.3 83.78 108.3 84.13 110.67 84.48 107.41 84.83 104.45 85.17 97.34 85.52 96.45 85.87 96.16 86.22 97.05 86.57 94.68 86.92 94.38 87.27 94.97 87.62 97.64 87.97 97.05 88.32 98.82 88.67 100.3 89.02 101.79 89.36 102.08 89.71 106.23 90.06 104.45 90.41 103.86 90.76 102.67 91.11 98.53 91.46 94.68 91.81 97.05 92.16 97.93 92.51 93.79 92.86 94.08 93.2 101.49 93.55 100.6 93.9 100.3 94.25 104.45 94.6 95.27 94.95 93.19 95.3 94.97 95.65 92.9 96 91.71 96.35 94.08 96.7 93.49 97.05 95.56 97.39 99.42 97.74 98.82 98.09 98.82 98.44 98.53 98.79 95.86 99.14 93.49 99.49 96.16 99.84 97.64 100.19 97.93 100.54 94.97 100.89 95.86 101.23 97.05 101.58 93.79 101.93 97.64 102.28 97.34 102.63 98.53 102.98 97.05 103.33 100.3 103.68 103.86 104.03 102.97 104.38 105.64 104.73 103.27 105.08 101.49 105.42 102.38 105.77 103.27 106.12 107.71 106.47 107.12 106.82 109.49 107.17 109.78 107.52 109.49 107.87 107.12 108.22 108.6 108.57 107.12 108.92 105.34 109.26 101.49 109.61 100.01 109.96 102.38 110.31 103.56 110.66 104.45 111.01 105.34 111.36 107.12 111.71 108.9 112.06 105.64 112.41 104.45 112.76 107.71 113.11 107.41 113.45 106.23 113.8 107.12 114.15 106.53 114.5 105.93 114.85 103.56 115.2 104.16 115.55 102.67 115.9 101.79 116.25 100.6 116.6 102.67 116.95 106.82 117.3 106.23 117.64 104.75 117.99 109.49 118.34 112.15 118.69 109.78 119.04 108.6 119.39 108.6 119.74 111.86 120.09 113.34 120.44 110.08 120.79 108.01 121.14 108.9 121.48 104.16 121.83 103.27 122.18 108.6 122.53 105.93 122.88 105.04 123.23 105.34 123.58 107.71 123.93 112.15 124.28 113.93 124.63 112.15 124.98 111.27 125.33 110.38 125.67 113.04 126.02 118.67 126.37 117.78 126.72 116.3 127.07 117.78 127.42 119.56 127.77 122.52 128.12 122.82 128.47 121.63 128.82 124.89 129.17 125.78 129.51 124.89 129.86 124.6 130.21 123.41 130.56 122.82 130.91 122.52 131.26 123.41 131.61 124.6 131.96 125.78 132.31 125.19 132.66 124.6 133.01 125.78 133.36 124.3 133.7 124 134.05 122.82 134.4 119.56 134.75 120.45 135.1 121.63 135.45 120.75 135.8 121.63 136.15 120.45 136.5 118.38 136.85 121.34 137.2 120.15 137.55 121.34 137.89 120.15 138.24 125.19 138.59 124.6 138.94 123.41 139.29 124.3 139.64 125.19 139.99 125.49 140.34 127.26 140.69 126.97 141.04 128.15 141.39 127.56 141.73 128.45 142.08 129.34 142.43 129.04 142.78 126.97 143.13 127.86 143.48 129.04 143.83 129.63 144.18 129.04 144.53 129.34 144.88 129.63 145.23 129.63 145.58 128.74 145.92 129.34 146.27 127.86 146.62 128.74 146.97 129.34 147.32 129.63 147.67 130.52 148.02 131.11"/>
      </g>
      <g stroke-width="0.3" fill="#000000" fill-opacity="0.000" class="geometry" stroke-dasharray="none" stroke="#D53E4F" id="img-0878a17c-18">
        <path fill="none" d="M21.98,71.86 L 22.33 75.12 22.68 69.49 23.03 70.09 23.38 67.12 23.73 65.05 24.08 69.79 24.42 71.27 24.77 75.42 25.12 75.71 25.47 75.42 25.82 78.97 26.17 81.64 26.52 86.38 26.87 89.94 27.22 87.86 27.57 79.86 27.92 80.45 28.27 83.42 28.61 86.38 28.96 84.01 29.31 85.49 29.66 86.97 30.01 85.79 30.36 87.27 30.71 86.97 31.06 82.53 31.41 78.97 31.76 77.49 32.11 75.12 32.45 73.94 32.8 77.79 33.15 76.31 33.5 75.12 33.85 78.97 34.2 78.68 34.55 78.38 34.9 77.2 35.25 76.9 35.6 81.34 35.95 81.94 36.3 86.97 36.64 86.97 36.99 79.86 37.34 78.08 37.69 80.16 38.04 84.31 38.39 86.68 38.74 85.19 39.09 84.6 39.44 81.94 39.79 81.94 40.14 83.71 40.49 81.34 40.83 74.83 41.18 78.97 41.53 76.6 41.88 82.23 42.23 84.01 42.58 82.53 42.93 79.57 43.28 81.64 43.63 88.45 43.98 86.38 44.33 83.42 44.67 81.05 45.02 86.08 45.37 82.23 45.72 84.01 46.07 86.38 46.42 86.38 46.77 84.6 47.12 88.75 47.47 89.34 47.82 93.79 48.17 94.68 48.52 90.82 48.86 90.82 49.21 94.68 49.56 95.56 49.91 98.23 50.26 94.68 50.61 94.68 50.96 97.93 51.31 99.12 51.66 100.3 52.01 100.3 52.36 98.23 52.7 102.97 53.05 103.27 53.4 102.67 53.75 103.56 54.1 101.79 54.45 103.86 54.8 103.86 55.15 104.45 55.5 103.27 55.85 102.67 56.2 101.79 56.55 103.86 56.89 104.16 57.24 108.6 57.59 109.49 57.94 108.6 58.29 111.56 58.64 108.3 58.99 110.38 59.34 112.15 59.69 113.34 60.04 111.86 60.39 110.97 60.73 112.15 61.08 112.75 61.43 113.04 61.78 115.71 62.13 113.34 62.48 115.12 62.83 116.6 63.18 114.23 63.53 114.82 63.88 113.34 64.23 109.78 64.58 111.56 64.92 114.23 65.27 111.56 65.62 109.19 65.97 108.3 66.32 113.04 66.67 115.71 67.02 115.12 67.37 115.12 67.72 112.75 68.07 116.3 68.42 116.3 68.77 114.52 69.11 113.93 69.46 116.01 69.81 117.19 70.16 118.38 70.51 117.78 70.86 117.78 71.21 119.56 71.56 121.04 71.91 119.86 72.26 119.56 72.61 123.71 72.95 122.23 73.3 122.82 73.65 122.23 74 121.34 74.35 122.82 74.7 124.89 75.05 123.12 75.4 119.86 75.75 121.34 76.1 121.63 76.45 120.15 76.8 120.75 77.14 123.41 77.49 123.41 77.84 123.41 78.19 121.93 78.54 121.34 78.89 121.63 79.24 121.63 79.59 121.93 79.94 123.12 80.29 123.41 80.64 123.71 80.98 125.78 81.33 125.49 81.68 125.78 82.03 125.49 82.38 127.26 82.73 127.56 83.08 126.97 83.43 125.19 83.78 126.97 84.13 127.86 84.48 126.37 84.83 127.56 85.17 127.56 85.52 128.15 85.87 128.74 86.22 127.26 86.57 126.37 86.92 126.97 87.27 126.97 87.62 126.67 87.97 126.97 88.32 128.15 88.67 128.74 89.02 129.04 89.36 128.15 89.71 128.74 90.06 129.34 90.41 129.63 90.76 128.74 91.11 128.45 91.46 128.74 91.81 130.52 92.16 130.52 92.51 130.82 92.86 131.11"/>
      </g>
      <g stroke-width="0.3" fill="#000000" fill-opacity="0.000" class="geometry" stroke-dasharray="none" stroke="#9E0142" id="img-0878a17c-19">
        <path fill="none" d="M21.98,71.86 L 22.33 74.23 22.68 68.01 23.03 69.49 23.38 67.72 23.73 67.72 24.08 67.72 24.42 67.12 24.77 65.35 25.12 65.05 25.47 63.86 25.82 61.2 26.17 62.98 26.52 61.2 26.87 61.2 27.22 57.35 27.57 56.75 27.92 53.79 28.27 56.16 28.61 56.46 28.96 50.83 29.31 52.9 29.66 54.98 30.01 55.27 30.36 58.24 30.71 55.57 31.06 55.27 31.41 57.94 31.76 60.61 32.11 57.05 32.45 56.75 32.8 65.35 33.15 68.01 33.5 66.83 33.85 62.68 34.2 65.64 34.55 64.46 34.9 67.72 35.25 71.27 35.6 72.46 35.95 78.68 36.3 79.86 36.64 83.42 36.99 84.31 37.34 81.64 37.69 79.57 38.04 80.75 38.39 80.16 38.74 84.6 39.09 81.05 39.44 83.71 39.79 84.01 40.14 89.94 40.49 87.57 40.83 83.71 41.18 82.53 41.53 88.16 41.88 88.45 42.23 89.94 42.58 88.45 42.93 88.16 43.28 84.9 43.63 85.49 43.98 87.86 44.33 84.9 44.67 86.38 45.02 89.34 45.37 90.53 45.72 87.57 46.07 88.75 46.42 90.53 46.77 89.64 47.12 83.42 47.47 86.38 47.82 83.71 48.17 83.71 48.52 84.31 48.86 83.12 49.21 83.42 49.56 80.16 49.91 81.64 50.26 80.16 50.61 78.97 50.96 82.82 51.31 81.05 51.66 75.71 52.01 77.2 52.36 73.64 52.7 70.97 53.05 69.79 53.4 72.46 53.75 70.38 54.1 71.27 54.45 67.72 54.8 70.38 55.15 68.31 55.5 66.83 55.85 68.31 56.2 69.49 56.55 67.42 56.89 71.86 57.24 70.97 57.59 75.12 57.94 75.42 58.29 73.94 58.64 74.53 58.99 73.94 59.34 72.75 59.69 78.08 60.04 78.68 60.39 81.05 60.73 83.12 61.08 84.01 61.43 84.01 61.78 87.57 62.13 88.75 62.48 88.75 62.83 90.23 63.18 93.49 63.53 91.12 63.88 92.6 64.23 92.9 64.58 92.31 64.92 88.75 65.27 89.05 65.62 85.79 65.97 81.64 66.32 82.82 66.67 83.42 67.02 83.71 67.37 81.64 67.72 85.49 68.07 82.82 68.42 84.31 68.77 83.12 69.11 81.05 69.46 78.38 69.81 82.23 70.16 81.34 70.51 75.71 70.86 75.71 71.21 78.68 71.56 79.57 71.91 76.01 72.26 79.27 72.61 79.57 72.95 80.75 73.3 79.57 73.65 74.23 74 74.83 74.35 78.68 74.7 78.97 75.05 78.68 75.4 74.23 75.75 67.42 76.1 68.6 76.45 65.05 76.8 65.64 77.14 70.09 77.49 69.2 77.84 67.72 78.19 65.64 78.54 68.6 78.89 68.6 79.24 66.83 79.59 62.68 79.94 61.49 80.29 66.83 80.64 64.75 80.98 63.57 81.33 62.09 81.68 61.79 82.03 57.94 82.38 56.46 82.73 55.87 83.08 55.27 83.43 54.38 83.78 56.75 84.13 53.2 84.48 49.64 84.83 46.39 85.17 46.09 85.52 40.76 85.87 41.35 86.22 41.35 86.57 41.64 86.92 42.53 87.27 42.24 87.62 37.79 87.97 38.09 88.32 41.35 88.67 39.57 89.02 34.53 89.36 38.39 89.71 36.61 90.06 40.16 90.41 38.68 90.76 38.98 91.11 40.46 91.46 40.16 91.81 38.09 92.16 44.61 92.51 47.87 92.86 47.27 93.2 45.79 93.55 44.02 93.9 43.13 94.25 40.46 94.6 46.98 94.95 43.42 95.3 39.27 95.65 41.64 96 41.05 96.35 38.68 96.7 40.46 97.05 36.61 97.39 34.53 97.74 31.87 98.09 29.5 98.44 30.98 98.79 30.09 99.14 26.54 99.49 25.94 99.84 26.54 100.19 29.5 100.54 29.79 100.89 28.02 101.23 26.83 101.58 23.57 101.93 22.98 102.28 24.17 102.63 24.46 102.98 21.5 103.33 22.68 103.68 22.09 104.03 21.2 104.38 22.09 104.73 23.57 105.08 21.5 105.42 22.39 105.77 20.31 106.12 20.91 106.47 22.39 106.82 19.13 107.17 18.54 107.52 19.13 107.87 17.65 108.22 18.83 108.57 19.13 108.92 18.24 109.26 19.43 109.61 19.13 109.96 19.43 110.31 18.83 110.66 19.43 111.01 19.13 111.36 18.54 111.71 20.61 112.06 19.43 112.41 18.83 112.76 20.91 113.11 18.24 113.45 17.06 113.8 17.35 114.15 17.06 114.5 17.35 114.85 15.87 115.2 17.65 115.55 16.46 115.9 16.46 116.25 18.83 116.6 18.83 116.95 17.65 117.3 18.54 117.64 19.43 117.99 20.31 118.34 21.5 118.69 23.28 119.04 24.46 119.39 23.87 119.74 26.24 120.09 28.31 120.44 30.68 120.79 33.94 121.14 34.24 121.48 35.42 121.83 31.57 122.18 32.46 122.53 37.79 122.88 36.02 123.23 36.31 123.58 38.09 123.93 36.9 124.28 33.05 124.63 33.65 124.98 30.98 125.33 29.5 125.67 31.57 126.02 30.68 126.37 30.39 126.72 29.2 127.07 25.94 127.42 24.46 127.77 23.87 128.12 25.35 128.47 22.98 128.82 22.39 129.17 23.57 129.51 20.31 129.86 22.39 130.21 22.98 130.56 23.28 130.91 22.09 131.26 26.24 131.61 30.09 131.96 30.39 132.31 31.87 132.66 32.76 133.01 35.72 133.36 35.72 133.7 34.24 134.05 37.2 134.4 37.79 134.75 41.35 135.1 42.83 135.45 42.53 135.8 41.94 136.15 38.39 136.5 36.02 136.85 36.9 137.2 41.05 137.55 40.76 137.89 41.35 138.24 39.87 138.59 40.46 138.94 37.2 139.29 35.72 139.64 34.83 139.99 32.46 140.34 33.65 140.69 30.98 141.04 29.79 141.39 30.68 141.73 30.98 142.08 28.02 142.43 29.5 142.78 30.09 143.13 29.2 143.48 25.65 143.83 24.17 144.18 23.87 144.53 26.54 144.88 25.65 145.23 28.31 145.58 27.42 145.92 25.94 146.27 28.61 146.62 28.31 146.97 26.54 147.32 28.61 147.67 24.76 148.02 25.35 148.37 25.94 148.72 25.94 149.07 27.42 149.42 26.24 149.76 24.76 150.11 26.54 150.46 30.39 150.81 33.65 151.16 33.05 151.51 32.16 151.86 32.46 152.21 30.09 152.56 31.28 152.91 34.24 153.26 33.35 153.61 35.42 153.95 33.35 154.3 33.65 154.65 32.46 155 32.76 155.35 32.76 155.7 29.79 156.05 27.72 156.4 26.54 156.75 25.65 157.1 24.76 157.45 23.57 157.79 24.46 158.14 26.83 158.49 25.35 158.84 22.39 159.19 22.09 159.54 20.91 159.89 22.39 160.24 22.98 160.59 19.43 160.94 17.65 161.29 18.24 161.64 17.06 161.98 17.65 162.33 17.65 162.68 19.13 163.03 18.54 163.38 17.94 163.73 16.46 164.08 15.57 164.43 15.28 164.78 15.28 165.13 14.39 165.48 14.09 165.83 14.39 166.17 14.39 166.52 14.09 166.87 14.69 167.22 13.8 167.57 13.8 167.92 14.69 168.27 14.09 168.62 14.09 168.97 14.09 169.32 13.8 169.67 12.91 170.01 12.91 170.36 12.91 170.71 13.2 171.06 12.61"/>
      </g>
    </g>
  </g>
</g>
  <g class="guide ylabels" font-size="2.82" font-family="'PT Sans Caption','Helvetica Neue','Helvetica',sans-serif" fill="#000000" id="img-0878a17c-20">
    <text x="18.63" y="131.11" text-anchor="end" dy="0.35em">0</text>
    <text x="18.63" y="101.49" text-anchor="end" dy="0.35em">100</text>
    <text x="18.63" y="71.86" text-anchor="end" dy="0.35em">200</text>
    <text x="18.63" y="42.24" text-anchor="end" dy="0.35em">300</text>
    <text x="18.63" y="12.61" text-anchor="end" dy="0.35em">400</text>
  </g>
  <g font-size="3.88" font-family="'PT Sans','Helvetica Neue','Helvetica',sans-serif" fill="#000000" stroke="#000000" stroke-opacity="0.000" id="img-0878a17c-21">
    <text x="8.81" y="69.86" text-anchor="middle" dy="0.35em" transform="rotate(-90, 8.81, 71.86)">population number</text>
  </g>
  <g font-size="3.88" font-family="'PT Sans','Helvetica Neue','Helvetica',sans-serif" fill="#000000" stroke="#000000" stroke-opacity="0.000" id="img-0878a17c-22">
    <text x="108.92" y="5" text-anchor="middle" dy="0.6em">genetic drift</text>
  </g>
</g>
<defs>
  <clipPath id="img-0878a17c-4">
  <path d="M19.63,10.61 L 198.2 10.61 198.2 133.11 19.63 133.11" />
</clipPath>
</defs>
</svg>
