<?xml version="1.0" encoding="UTF-8"?>
<svg xmlns="http://www.w3.org/2000/svg"
     xmlns:xlink="http://www.w3.org/1999/xlink"
     xmlns:gadfly="http://www.gadflyjl.org/ns"
     version="1.2"
     width="203.2mm" height="152.4mm" viewBox="0 0 203.2 152.4"
     stroke="none"
     fill="#000000"
     stroke-width="0.3"
     font-size="3.88"
>
<g class="plotroot xscalable yscalable" id="img-ec1aff06-1">
  <g font-size="3.88" font-family="'PT Sans','Helvetica Neue','Helvetica',sans-serif" fill="#000000" stroke="#000000" stroke-opacity="0.000" id="img-ec1aff06-2">
    <text x="108.92" y="140.79" text-anchor="middle" dy="0.6em">generation number</text>
  </g>
  <g class="guide xlabels" font-size="2.82" font-family="'PT Sans Caption','Helvetica Neue','Helvetica',sans-serif" fill="#000000" id="img-ec1aff06-3">
    <text x="21.63" y="134.11" text-anchor="middle" dy="0.6em">0</text>
    <text x="56.55" y="134.11" text-anchor="middle" dy="0.6em">100</text>
    <text x="91.46" y="134.11" text-anchor="middle" dy="0.6em">200</text>
    <text x="126.37" y="134.11" text-anchor="middle" dy="0.6em">300</text>
    <text x="161.29" y="134.11" text-anchor="middle" dy="0.6em">400</text>
    <text x="196.2" y="134.11" text-anchor="middle" dy="0.6em">500</text>
  </g>
<g clip-path="url(#img-ec1aff06-4)">
  <g id="img-ec1aff06-5">
    <g pointer-events="visible" opacity="1" fill="#FFFFFF" stroke="#000000" stroke-opacity="0.000" class="guide background" id="img-ec1aff06-6">
      <rect x="19.63" y="10.61" width="178.57" height="122.5"/>
    </g>
    <g class="guide ygridlines xfixed" stroke-dasharray="0.5,0.5" stroke-width="0.2" stroke="#808080" id="img-ec1aff06-7">
      <path fill="none" d="M19.63,131.11 L 198.2 131.11"/>
      <path fill="none" d="M19.63,111.36 L 198.2 111.36"/>
      <path fill="none" d="M19.63,91.61 L 198.2 91.61"/>
      <path fill="none" d="M19.63,71.86 L 198.2 71.86"/>
      <path fill="none" d="M19.63,52.11 L 198.2 52.11"/>
      <path fill="none" d="M19.63,32.36 L 198.2 32.36"/>
      <path fill="none" d="M19.63,12.61 L 198.2 12.61"/>
    </g>
    <g class="guide xgridlines yfixed" stroke-dasharray="0.5,0.5" stroke-width="0.2" stroke="#808080" id="img-ec1aff06-8">
      <path fill="none" d="M21.63,10.61 L 21.63 133.11"/>
      <path fill="none" d="M56.55,10.61 L 56.55 133.11"/>
      <path fill="none" d="M91.46,10.61 L 91.46 133.11"/>
      <path fill="none" d="M126.37,10.61 L 126.37 133.11"/>
      <path fill="none" d="M161.29,10.61 L 161.29 133.11"/>
      <path fill="none" d="M196.2,10.61 L 196.2 133.11"/>
    </g>
    <g class="plotpanel" id="img-ec1aff06-9">
      <g stroke-width="0.3" fill="#000000" fill-opacity="0.000" class="geometry" stroke-dasharray="none" stroke="#3288BD" id="img-ec1aff06-10">
        <path fill="none" d="M21.98,71.86 L 22.33 71.07 22.68 72.06 23.03 71.47 23.38 70.88 23.73 72.06 24.08 74.43 24.42 71.07 24.77 69.1 25.12 67.32 25.47 70.09 25.82 66.73 26.17 62.58 26.52 63.77 26.87 67.52 27.22 64.56 27.57 69.49 27.92 67.72 28.27 67.12 28.61 64.75 28.96 59.42 29.31 59.22 29.66 55.08 30.01 56.06 30.36 56.66 30.71 54.88 31.06 56.66 31.41 55.67 31.76 57.84 32.11 55.67 32.45 59.62 32.8 58.24 33.15 56.46 33.5 52.9 33.85 55.87 34.2 55.67 34.55 52.51 34.9 47.37 35.25 48.76 35.6 47.37 35.95 43.03 36.3 40.26 36.64 42.04 36.99 40.66 37.34 44.02 37.69 46.58 38.04 48.76 38.39 48.36 38.74 47.37 39.09 46.58 39.44 48.16 39.79 47.18 40.14 45.79 40.49 41.45 40.83 41.05 41.18 36.9 41.53 35.52 41.88 35.13 42.23 40.26 42.58 42.04 42.93 41.25 43.28 38.48 43.63 34.34 43.98 35.52 44.33 34.93 44.67 35.32 45.02 32.36 45.37 31.77 45.72 28.61 46.07 28.81 46.42 28.81 46.77 29.6 47.12 31.57 47.47 30.39 47.82 29.4 48.17 30.78 48.52 32.16 48.86 33.55 49.21 32.36 49.56 34.53 49.91 34.53 50.26 32.95 50.61 33.94 50.96 36.71 51.31 35.92 51.66 38.09 52.01 39.47 52.36 41.64 52.7 42.24 53.05 36.9 53.4 33.35 53.75 33.74 54.1 31.97 54.45 32.76 54.8 30.98 55.15 33.74 55.5 32.95 55.85 32.56 56.2 30.78 56.55 29.2 56.89 29 57.24 28.41 57.59 28.41 57.94 29.2 58.29 29.99 58.64 31.97 58.99 31.77 59.34 30.58 59.69 31.97 60.04 33.15 60.39 33.55 60.73 31.57 61.08 29 61.43 27.03 61.78 25.25 62.13 23.28 62.48 24.66 62.83 25.05 63.18 25.45 63.53 26.44 63.88 26.44 64.23 26.83 64.58 26.24 64.92 26.83 65.27 29.4 65.62 29.6 65.97 30.78 66.32 28.21 66.67 31.77 67.02 32.76 67.37 35.32 67.72 32.76 68.07 36.71 68.42 34.93 68.77 32.16 69.11 29.99 69.46 29.99 69.81 29.4 70.16 26.24 70.51 27.62 70.86 27.42 71.21 26.83 71.56 25.45 71.91 28.21 72.26 27.62 72.61 27.03 72.95 27.42 73.3 28.61 73.65 30.98 74 30.98 74.35 28.41 74.7 25.84 75.05 24.86 75.4 25.45 75.75 26.63 76.1 25.84 76.45 24.26 76.8 22.88 77.14 24.07 77.49 22.88 77.84 23.28 78.19 24.26 78.54 23.87 78.89 24.86 79.24 25.05 79.59 25.84 79.94 27.03 80.29 28.21 80.64 27.82 80.98 27.62 81.33 29.6 81.68 30.19 82.03 30.78 82.38 32.56 82.73 33.74 83.08 33.74 83.43 34.73 83.78 32.36 84.13 30.78 84.48 29 84.83 27.62 85.17 28.21 85.52 28.21 85.87 29.6 86.22 26.44 86.57 26.44 86.92 25.45 87.27 25.45 87.62 27.23 87.97 26.83 88.32 29 88.67 29.2 89.02 27.82 89.36 24.66 89.71 22.88 90.06 25.05 90.41 23.87 90.76 22.29 91.11 21.5 91.46 22.09 91.81 22.29 92.16 21.89 92.51 21.3 92.86 21.89 93.2 21.89 93.55 22.88 93.9 23.08 94.25 23.47 94.6 23.67 94.95 24.46 95.3 23.47 95.65 22.09 96 21.5 96.35 21.5 96.7 20.51 97.05 20.51 97.39 23.28 97.74 23.28 98.09 24.26 98.44 24.46 98.79 24.26 99.14 26.63 99.49 27.82 99.84 25.25 100.19 24.26 100.54 24.07 100.89 25.25 101.23 23.47 101.58 24.66 101.93 26.83 102.28 27.42 102.63 28.61 102.98 29.99 103.33 27.03 103.68 25.65 104.03 28.41 104.38 24.66 104.73 26.44 105.08 25.65 105.42 23.87 105.77 24.86 106.12 23.67 106.47 23.67 106.82 22.68 107.17 21.1 107.52 20.12 107.87 21.89 108.22 22.09 108.57 23.28 108.92 25.05 109.26 29 109.61 31.18 109.96 29.79 110.31 29.2 110.66 29.4 111.01 32.36 111.36 33.15 111.71 33.55 112.06 32.56 112.41 30.19 112.76 28.21 113.11 30.78 113.45 30.78 113.8 29.2 114.15 26.83 114.5 25.05 114.85 23.87 115.2 27.23 115.55 26.04 115.9 23.28 116.25 20.91 116.6 20.71 116.95 21.7 117.3 22.29 117.64 25.25 117.99 25.25 118.34 27.62 118.69 26.44 119.04 23.87 119.39 23.28 119.74 22.09 120.09 20.71 120.44 19.92 120.79 21.89 121.14 22.29 121.48 20.12 121.83 18.93 122.18 19.13 122.53 20.31 122.88 18.54 123.23 17.75 123.58 16.96 123.93 16.36 124.28 16.17 124.63 15.97 124.98 15.57 125.33 14.78 125.67 14.39 126.02 13.99 126.37 14.19 126.72 14.59 127.07 14.98 127.42 14.78 127.77 15.18 128.12 13.8 128.47 13.4 128.82 13.4 129.17 13.8 129.51 13.99 129.86 14.39 130.21 14.78 130.56 13.99 130.91 13.99 131.26 13.01 131.61 13.01 131.96 13.2 132.31 13.99 132.66 13.99 133.01 13.6 133.36 14.19 133.7 13.6 134.05 13.6 134.4 13.99 134.75 14.39 135.1 14.59 135.45 13.6 135.8 13.2 136.15 13.4 136.5 12.81 136.85 13.01 137.2 13.01 137.55 12.81 137.89 12.61"/>
      </g>
      <g stroke-width="0.3" fill="#000000" fill-opacity="0.000" class="geometry" stroke-dasharray="none" stroke="#66C2A5" id="img-ec1aff06-11">
        <path fill="none" d="M21.98,71.86 L 22.33 71.07 22.68 75.02 23.03 77.2 23.38 77.79 23.73 78.18 24.08 77.79 24.42 81.74 24.77 81.15 25.12 84.11 25.47 83.91 25.82 81.34 26.17 82.73 26.52 78.97 26.87 75.42 27.22 75.62 27.57 76.8 27.92 76.21 28.27 77 28.61 77.2 28.96 75.42 29.31 77.59 29.66 74.83 30.01 78.58 30.36 80.36 30.71 79.96 31.06 76.8 31.41 78.18 31.76 74.83 32.11 75.81 32.45 75.42 32.8 75.22 33.15 76.01 33.5 78.38 33.85 81.94 34.2 85.49 34.55 82.53 34.9 85.29 35.25 86.08 35.6 84.11 35.95 86.08 36.3 88.45 36.64 86.68 36.99 85.1 37.34 85.1 37.69 88.85 38.04 93.39 38.39 89.84 38.74 90.43 39.09 89.05 39.44 91.22 39.79 87.86 40.14 88.65 40.49 88.45 40.83 89.64 41.18 86.48 41.53 87.86 41.88 87.66 42.23 86.48 42.58 88.85 42.93 88.85 43.28 89.05 43.63 86.28 43.98 88.06 44.33 90.63 44.67 88.06 45.02 85.69 45.37 84.7 45.72 84.7 46.07 85.49 46.42 86.68 46.77 88.26 47.12 88.65 47.47 88.65 47.82 87.27 48.17 91.81 48.52 91.22 48.86 90.63 49.21 86.87 49.56 87.07 49.91 82.33 50.26 81.54 50.61 81.94 50.96 81.34 51.31 80.36 51.66 84.31 52.01 85.1 52.36 87.66 52.7 88.45 53.05 90.23 53.4 88.06 53.75 81.94 54.1 84.31 54.45 90.63 54.8 89.44 55.15 85.1 55.5 85.29 55.85 88.65 56.2 93.39 56.55 94.18 56.89 93.59 57.24 92.8 57.59 96.95 57.94 97.93 58.29 99.91 58.64 99.32 58.99 101.88 59.34 102.28 59.69 102.48 60.04 101.49 60.39 100.5 60.73 101.09 61.08 100.7 61.43 102.87 61.78 110.38 62.13 110.18 62.48 110.77 62.83 110.97 63.18 108.6 63.53 107.81 63.88 109.59 64.23 108.4 64.58 106.62 64.92 103.86 65.27 106.03 65.62 107.81 65.97 105.83 66.32 109.98 66.67 108.01 67.02 107.02 67.37 109.78 67.72 108.99 68.07 111.17 68.42 109.39 68.77 109.39 69.11 109.39 69.46 110.38 69.81 109.59 70.16 109.98 70.51 110.77 70.86 110.57 71.21 110.77 71.56 112.15 71.91 113.93 72.26 112.75 72.61 113.34 72.95 112.94 73.3 113.73 73.65 115.31 74 116.5 74.35 115.51 74.7 117.49 75.05 115.91 75.4 116.89 75.75 118.08 76.1 118.87 76.45 118.47 76.8 121.63 77.14 121.04 77.49 120.05 77.84 120.65 78.19 120.05 78.54 119.46 78.89 115.71 79.24 115.91 79.59 117.29 79.94 118.47 80.29 119.86 80.64 124 80.98 121.83 81.33 119.46 81.68 120.84 82.03 118.28 82.38 119.66 82.73 118.67 83.08 120.05 83.43 122.62 83.78 123.61 84.13 124 84.48 121.63 84.83 121.44 85.17 122.62 85.52 119.86 85.87 118.67 86.22 119.07 86.57 119.86 86.92 118.67 87.27 118.28 87.62 119.26 87.97 118.87 88.32 118.87 88.67 121.04 89.02 120.45 89.36 121.63 89.71 123.02 90.06 123.61 90.41 126.37 90.76 126.37 91.11 126.77 91.46 128.15 91.81 127.76 92.16 128.35 92.51 128.74 92.86 128.35 93.2 127.95 93.55 128.35 93.9 128.94 94.25 129.14 94.6 128.15 94.95 127.95 95.3 127.76 95.65 128.35 96 127.95 96.35 128.35 96.7 128.74 97.05 128.94 97.39 128.94 97.74 129.53 98.09 129.73 98.44 129.14 98.79 128.94 99.14 129.14 99.49 129.73 99.84 130.13 100.19 129.93 100.54 130.13 100.89 130.52 101.23 130.72 101.58 131.11"/>
      </g>
      <g stroke-width="0.3" fill="#000000" fill-opacity="0.000" class="geometry" stroke-dasharray="none" stroke="#ABDDA4" id="img-ec1aff06-12">
        <path fill="none" d="M21.98,71.86 L 22.33 73.05 22.68 70.28 23.03 68.9 23.38 67.32 23.73 72.06 24.08 71.07 24.42 67.32 24.77 63.57 25.12 66.73 25.47 65.54 25.82 67.72 26.17 69.69 26.52 69.89 26.87 70.68 27.22 69.89 27.57 68.7 27.92 68.7 28.27 71.67 28.61 71.07 28.96 73.84 29.31 71.27 29.66 71.27 30.01 71.07 30.36 71.86 30.71 76.21 31.06 81.54 31.41 82.33 31.76 80.75 32.11 80.75 32.45 80.36 32.8 79.57 33.15 78.97 33.5 82.33 33.85 82.73 34.2 82.13 34.55 80.36 34.9 85.49 35.25 82.92 35.6 86.28 35.95 85.29 36.3 84.9 36.64 84.11 36.99 80.55 37.34 79.76 37.69 79.76 38.04 77.99 38.39 75.81 38.74 76.21 39.09 73.25 39.44 78.18 39.79 73.44 40.14 71.47 40.49 71.07 40.83 73.05 41.18 71.86 41.53 70.68 41.88 69.69 42.23 71.27 42.58 73.84 42.93 74.04 43.28 71.27 43.63 72.65 43.98 71.86 44.33 76.8 44.67 78.38 45.02 77.2 45.37 77.2 45.72 78.58 46.07 78.38 46.42 81.94 46.77 83.12 47.12 82.13 47.47 78.58 47.82 78.18 48.17 77.99 48.52 79.37 48.86 79.37 49.21 82.92 49.56 83.52 49.91 86.87 50.26 88.06 50.61 87.86 50.96 87.86 51.31 92.6 51.66 93.79 52.01 96.55 52.36 96.75 52.7 90.82 53.05 88.85 53.4 87.47 53.75 86.28 54.1 84.9 54.45 87.47 54.8 89.05 55.15 86.48 55.5 89.84 55.85 84.9 56.2 81.54 56.55 79.57 56.89 77.99 57.24 78.58 57.59 78.18 57.94 76.41 58.29 81.54 58.64 81.94 58.99 80.95 59.34 81.74 59.69 79.17 60.04 77.99 60.39 78.78 60.73 77.39 61.08 80.95 61.43 82.13 61.78 84.11 62.13 85.49 62.48 83.91 62.83 82.73 63.18 80.95 63.53 81.74 63.88 79.76 64.23 76.01 64.58 78.97 64.92 81.94 65.27 83.32 65.62 84.9 65.97 84.9 66.32 84.9 66.67 84.9 67.02 83.12 67.37 85.69 67.72 83.32 68.07 77.79 68.42 77.99 68.77 75.22 69.11 75.22 69.46 74.83 69.81 77.2 70.16 78.18 70.51 79.37 70.86 77.79 71.21 78.18 71.56 74.23 71.91 76.8 72.26 76.41 72.61 75.81 72.95 73.25 73.3 75.02 73.65 74.63 74 78.58 74.35 80.36 74.7 80.95 75.05 79.96 75.4 75.42 75.75 74.63 76.1 73.84 76.45 74.83 76.8 75.62 77.14 74.83 77.49 76.01 77.84 77.59 78.19 80.16 78.54 80.55 78.89 82.13 79.24 78.18 79.59 77 79.94 75.81 80.29 71.86 80.64 71.47 80.98 69.69 81.33 69.89 81.68 73.25 82.03 72.46 82.38 73.44 82.73 71.47 83.08 73.25 83.43 69.69 83.78 72.06 84.13 69.89 84.48 70.68 84.83 73.64 85.17 70.09 85.52 71.86 85.87 71.07 86.22 72.85 86.57 77.2 86.92 79.17 87.27 78.38 87.62 86.87 87.97 90.03 88.32 93.39 88.67 97.93 89.02 98.13 89.36 97.34 89.71 98.92 90.06 97.34 90.41 98.33 90.76 100.3 91.11 102.48 91.46 101.69 91.81 104.06 92.16 100.9 92.51 101.09 92.86 101.88 93.2 102.67 93.55 102.08 93.9 100.3 94.25 101.69 94.6 101.29 94.95 101.49 95.3 101.29 95.65 101.09 96 100.9 96.35 99.51 96.7 98.72 97.05 96.75 97.39 99.12 97.74 101.49 98.09 102.08 98.44 99.91 98.79 100.5 99.14 100.5 99.49 100.9 99.84 101.69 100.19 104.06 100.54 102.28 100.89 100.9 101.23 99.51 101.58 96.95 101.93 97.54 102.28 95.96 102.63 93 102.98 95.17 103.33 94.38 103.68 95.17 104.03 92.21 104.38 90.23 104.73 90.23 105.08 93.39 105.42 91.02 105.77 88.06 106.12 87.86 106.47 87.27 106.82 87.66 107.17 84.11 107.52 85.1 107.87 85.1 108.22 79.76 108.57 81.74 108.92 82.13 109.26 81.34 109.61 79.57 109.96 75.81 110.31 77 110.66 82.13 111.01 82.13 111.36 85.29 111.71 84.7 112.06 85.69 112.41 84.11 112.76 81.74 113.11 82.33 113.45 82.73 113.8 85.89 114.15 83.32 114.5 86.68 114.85 85.69 115.2 86.87 115.55 85.49 115.9 82.92 116.25 81.34 116.6 81.34 116.95 79.96 117.3 84.5 117.64 87.07 117.99 87.47 118.34 95.37 118.69 94.77 119.04 95.96 119.39 96.35 119.74 97.14 120.09 95.56 120.44 95.76 120.79 95.17 121.14 95.76 121.48 95.56 121.83 94.38 122.18 94.58 122.53 96.35 122.88 96.55 123.23 95.56 123.58 95.37 123.93 94.97 124.28 93.39 124.63 90.43 124.98 93.59 125.33 93.79 125.67 96.95 126.02 96.95 126.37 98.72 126.72 99.12 127.07 101.69 127.42 102.48 127.77 105.24 128.12 105.24 128.47 105.44 128.82 105.24 129.17 104.85 129.51 103.86 129.86 103.07 130.21 102.48 130.56 98.53 130.91 96.55 131.26 99.71 131.61 97.54 131.96 97.74 132.31 100.7 132.66 100.9 133.01 98.72 133.36 96.95 133.7 96.55 134.05 99.12 134.4 97.34 134.75 96.75 135.1 97.14 135.45 98.13 135.8 97.14 136.15 98.53 136.5 98.33 136.85 96.55 137.2 95.17 137.55 95.96 137.89 96.75 138.24 91.61 138.59 93 138.94 93.98 139.29 93.79 139.64 95.37 139.99 97.54 140.34 97.14 140.69 95.76 141.04 94.97 141.39 93.39 141.73 95.56 142.08 94.38 142.43 97.54 142.78 96.55 143.13 97.34 143.48 94.97 143.83 93.59 144.18 97.14 144.53 94.77 144.88 95.17 145.23 97.14 145.58 99.91 145.92 99.32 146.27 102.28 146.62 100.5 146.97 95.76 147.32 96.55 147.67 98.33 148.02 98.53 148.37 99.91 148.72 102.87 149.07 105.64 149.42 104.25 149.76 102.48 150.11 100.5 150.46 95.37 150.81 95.76 151.16 93.79 151.51 90.63 151.86 88.06 152.21 87.47 152.56 87.27 152.91 88.85 153.26 86.28 153.61 85.89 153.95 82.92 154.3 84.11 154.65 80.36 155 79.37 155.35 77.79 155.7 78.78 156.05 76.8 156.4 68.9 156.75 70.88 157.1 76.41 157.45 73.05 157.79 71.27 158.14 70.48 158.49 68.51 158.84 70.68 159.19 74.23 159.54 77 159.89 78.38 160.24 79.57 160.59 76.21 160.94 76.6 161.29 78.58 161.64 78.18 161.98 79.17 162.33 78.58 162.68 77.99 163.03 74.23 163.38 76.21 163.73 77.99 164.08 74.63 164.43 73.44 164.78 69.89 165.13 74.23 165.48 75.42 165.83 79.76 166.17 77.79 166.52 75.62 166.87 76.6 167.22 78.97 167.57 81.34 167.92 77.79 168.27 77.79 168.62 80.75 168.97 78.38 169.32 76.41 169.67 76.21 170.01 72.85 170.36 74.83 170.71 80.16 171.06 78.78 171.41 82.53 171.76 80.75 172.11 82.13 172.46 81.94 172.81 80.95 173.16 78.78 173.51 80.95 173.86 79.17 174.2 76.21 174.55 75.81 174.9 75.02 175.25 75.22 175.6 71.07 175.95 74.04 176.3 73.64 176.65 71.86 177 71.27 177.35 70.68 177.7 66.53 178.04 69.69 178.39 70.88 178.74 67.12 179.09 68.51 179.44 67.52 179.79 69.69 180.14 66.53 180.49 65.94 180.84 69.3 181.19 65.74 181.54 66.14 181.89 66.14 182.23 64.95 182.58 66.14 182.93 68.51 183.28 67.52 183.63 65.94 183.98 66.53 184.33 66.14 184.68 64.95 185.03 66.93 185.38 71.67 185.73 71.86 186.08 73.44 186.42 74.63 186.77 77.2 187.12 79.37 187.47 77.2 187.82 75.62 188.17 77.39 188.52 75.42 188.87 77 189.22 76.8 189.57 73.25 189.92 71.67 190.26 66.93 190.61 62.19 190.96 62.98 191.31 67.72 191.66 70.68 192.01 72.85 192.36 74.23 192.71 72.65 193.06 72.65 193.41 70.88 193.76 68.11 194.11 65.74 194.45 66.73 194.8 69.89 195.15 71.47 195.5 74.23 195.85 76.6 196.2 75.42"/>
      </g>
      <g stroke-width="0.3" fill="#000000" fill-opacity="0.000" class="geometry" stroke-dasharray="none" stroke="#E6F598" id="img-ec1aff06-13">
        <path fill="none" d="M21.98,71.86 L 22.33 72.85 22.68 71.67 23.03 73.05 23.38 70.88 23.73 65.74 24.08 68.9 24.42 70.28 24.77 70.09 25.12 74.04 25.47 67.72 25.82 67.91 26.17 66.93 26.52 68.51 26.87 62.38 27.22 57.25 27.57 54.29 27.92 53.1 28.27 52.11 28.61 53.69 28.96 55.27 29.31 58.63 29.66 56.26 30.01 54.48 30.36 54.09 30.71 57.05 31.06 61.2 31.41 62.58 31.76 61.79 32.11 63.96 32.45 62.98 32.8 64.95 33.15 62.58 33.5 63.17 33.85 63.17 34.2 63.96 34.55 60.01 34.9 58.24 35.25 58.04 35.6 55.27 35.95 55.27 36.3 52.71 36.64 55.27 36.99 53.5 37.34 57.64 37.69 57.05 38.04 60.61 38.39 57.25 38.74 56.26 39.09 55.87 39.44 53.3 39.79 53.69 40.14 50.93 40.49 51.92 40.83 54.68 41.18 56.06 41.53 53.89 41.88 48.95 42.23 44.41 42.58 44.21 42.93 40.85 43.28 39.47 43.63 38.09 43.98 38.29 44.33 37.89 44.67 41.45 45.02 39.47 45.37 39.67 45.72 39.27 46.07 42.63 46.42 45.79 46.77 47.77 47.12 47.57 47.47 49.94 47.82 51.13 48.17 52.11 48.52 51.92 48.86 54.48 49.21 55.08 49.56 57.05 49.91 55.87 50.26 53.3 50.61 55.08 50.96 55.08 51.31 53.3 51.66 55.67 52.01 56.85 52.36 52.9 52.7 51.72 53.05 51.52 53.4 53.3 53.75 52.9 54.1 52.11 54.45 52.51 54.8 52.31 55.15 52.31 55.5 54.09 55.85 49.35 56.2 51.32 56.55 54.09 56.89 54.48 57.24 55.08 57.59 51.52 57.94 53.5 58.29 53.69 58.64 53.5 58.99 50.73 59.34 48.36 59.69 48.76 60.04 49.35 60.39 49.55 60.73 51.52 61.08 50.14 61.43 50.53 61.78 48.76 62.13 49.15 62.48 53.89 62.83 50.53 63.18 48.76 63.53 46.39 63.88 46.58 64.23 45.79 64.58 44.61 64.92 44.61 65.27 42.83 65.62 42.63 65.97 46.58 66.32 47.57 66.67 47.18 67.02 44.41 67.37 42.04 67.72 43.03 68.07 44.81 68.42 45.2 68.77 45.2 69.11 44.41 69.46 48.36 69.81 49.55 70.16 51.72 70.51 55.08 70.86 59.03 71.21 57.25 71.56 53.89 71.91 51.72 72.26 50.73 72.61 52.11 72.95 54.09 73.3 53.5 73.65 55.47 74 57.05 74.35 58.83 74.7 58.04 75.05 56.46 75.4 55.27 75.75 54.88 76.1 52.51 76.45 49.55 76.8 51.92 77.14 52.71 77.49 52.51 77.84 56.06 78.19 52.9 78.54 55.67 78.89 58.04 79.24 61.2 79.59 57.84 79.94 54.09 80.29 52.31 80.64 56.46 80.98 55.27 81.33 52.9 81.68 54.29 82.03 54.88 82.38 54.09 82.73 53.89 83.08 52.71 83.43 55.47 83.78 52.31 84.13 53.1 84.48 51.32 84.83 48.16 85.17 47.18 85.52 47.37 85.87 46.39 86.22 46.58 86.57 46.78 86.92 41.45 87.27 40.26 87.62 39.08 87.97 34.73 88.32 32.16 88.67 33.94 89.02 34.93 89.36 34.93 89.71 37.1 90.06 36.51 90.41 38.48 90.76 37.5 91.11 36.71 91.46 39.67 91.81 40.06 92.16 36.9 92.51 36.71 92.86 35.32 93.2 37.3 93.55 38.48 93.9 40.66 94.25 41.45 94.6 42.63 94.95 40.06 95.3 36.11 95.65 36.11 96 33.74 96.35 34.53 96.7 37.5 97.05 37.5 97.39 36.51 97.74 39.08 98.09 42.04 98.44 37.89 98.79 36.11 99.14 37.5 99.49 38.68 99.84 39.08 100.19 37.5 100.54 36.11 100.89 36.9 101.23 35.32 101.58 32.56 101.93 31.37 102.28 31.57 102.63 32.16 102.98 31.77 103.33 32.56 103.68 31.57 104.03 31.18 104.38 28.21 104.73 30.98 105.08 31.77 105.42 30.58 105.77 30.58 106.12 30.98 106.47 31.97 106.82 32.76 107.17 32.36 107.52 33.35 107.87 36.9 108.22 34.93 108.57 32.36 108.92 34.14 109.26 33.74 109.61 33.35 109.96 36.71 110.31 38.68 110.66 38.68 111.01 37.3 111.36 34.93 111.71 37.5 112.06 37.69 112.41 42.44 112.76 43.42 113.11 45.2 113.45 45.79 113.8 47.37 114.15 48.76 114.5 45.79 114.85 45.6 115.2 42.63 115.55 42.04 115.9 37.5 116.25 40.66 116.6 40.66 116.95 42.44 117.3 41.84 117.64 42.04 117.99 40.66 118.34 42.24 118.69 44.21 119.04 49.35 119.39 49.15 119.74 48.16 120.09 42.44 120.44 46.78 120.79 42.83 121.14 43.03 121.48 37.1 121.83 34.53 122.18 34.93 122.53 38.48 122.88 37.89 123.23 34.73 123.58 35.13 123.93 37.69 124.28 38.09 124.63 37.89 124.98 34.14 125.33 33.94 125.67 31.37 126.02 29.99 126.37 31.18 126.72 34.53 127.07 33.15 127.42 34.73 127.77 37.1 128.12 34.34 128.47 38.09 128.82 36.51 129.17 37.3 129.51 37.89 129.86 36.9 130.21 37.3 130.56 37.3 130.91 35.52 131.26 36.71 131.61 34.93 131.96 39.47 132.31 40.85 132.66 41.05 133.01 39.27 133.36 43.03 133.7 44.02 134.05 45.99 134.4 46.78 134.75 45.2 135.1 46.39 135.45 47.57 135.8 45.4 136.15 43.62 136.5 45.6 136.85 42.63 137.2 41.05 137.55 41.05 137.89 42.04 138.24 40.46 138.59 39.67 138.94 40.06 139.29 39.87 139.64 39.67 139.99 39.47 140.34 40.26 140.69 38.88 141.04 37.1 141.39 34.53 141.73 34.34 142.08 33.35 142.43 33.15 142.78 32.95 143.13 34.34 143.48 36.51 143.83 39.08 144.18 38.88 144.53 38.68 144.88 38.88 145.23 39.87 145.58 41.05 145.92 43.62 146.27 43.42 146.62 43.03 146.97 41.25 147.32 39.87 147.67 42.24 148.02 45.79 148.37 43.23 148.72 43.42 149.07 43.03 149.42 43.03 149.76 40.85 150.11 43.23 150.46 39.87 150.81 39.87 151.16 37.89 151.51 39.27 151.86 38.88 152.21 36.71 152.56 35.92 152.91 34.34 153.26 34.14 153.61 35.72 153.95 33.15 154.3 34.53 154.65 33.74 155 34.93 155.35 37.1 155.7 36.31 156.05 35.72 156.4 34.14 156.75 32.76 157.1 33.94 157.45 36.51 157.79 37.5 158.14 36.71 158.49 36.71 158.84 36.11 159.19 29.99 159.54 31.18 159.89 32.36 160.24 37.69 160.59 39.47 160.94 42.63 161.29 40.85 161.64 42.04 161.98 41.64 162.33 39.27 162.68 34.14 163.03 32.95 163.38 30.58 163.73 29.99 164.08 29.2 164.43 30.39 164.78 29.6 165.13 31.18 165.48 30.39 165.83 28.41 166.17 28.61 166.52 32.36 166.87 31.97 167.22 30.39 167.57 28.61 167.92 29.79 168.27 27.42 168.62 27.42 168.97 27.42 169.32 29.6 169.67 28.21 170.01 25.65 170.36 24.66 170.71 24.66 171.06 27.23 171.41 30.58 171.76 29.4 172.11 29.79 172.46 30.98 172.81 30.58 173.16 32.56 173.51 34.53 173.86 36.31 174.2 37.69 174.55 37.89 174.9 39.47 175.25 38.68 175.6 35.72 175.95 37.69 176.3 41.64 176.65 44.81 177 42.63 177.35 42.24 177.7 40.26 178.04 43.23 178.39 38.88 178.74 40.46 179.09 40.06 179.44 39.47 179.79 39.67 180.14 40.06 180.49 38.09 180.84 39.08 181.19 41.84 181.54 43.62 181.89 43.03 182.23 46.98 182.58 44.81 182.93 43.23 183.28 39.87 183.63 39.27 183.98 42.24 184.33 42.44 184.68 43.03 185.03 45.79 185.38 48.16 185.73 49.55 186.08 48.56 186.42 46.78 186.77 46.19 187.12 45.99 187.47 44.21 187.82 42.63 188.17 39.87 188.52 40.26 188.87 42.24 189.22 44.61 189.57 46.39 189.92 49.15 190.26 51.13 190.61 50.73 190.96 51.32 191.31 48.16 191.66 46.58 192.01 50.53 192.36 50.73 192.71 54.68 193.06 51.72 193.41 51.13 193.76 52.9 194.11 53.5 194.45 52.31 194.8 53.1 195.15 52.9 195.5 52.71 195.85 51.52 196.2 49.15"/>
      </g>
      <g stroke-width="0.3" fill="#000000" fill-opacity="0.000" class="geometry" stroke-dasharray="none" stroke="#FFFFBF" id="img-ec1aff06-14">
        <path fill="none" d="M21.98,71.86 L 22.33 71.86 22.68 75.22 23.03 75.22 23.38 79.37 23.73 79.37 24.08 79.76 24.42 79.76 24.77 79.17 25.12 84.7 25.47 83.12 25.82 84.5 26.17 84.9 26.52 89.24 26.87 93.19 27.22 92.4 27.57 96.16 27.92 100.11 28.27 104.65 28.61 106.43 28.96 104.25 29.31 103.66 29.66 106.43 30.01 104.45 30.36 105.83 30.71 105.83 31.06 106.23 31.41 104.45 31.76 106.03 32.11 106.82 32.45 107.61 32.8 103.66 33.15 105.44 33.5 105.24 33.85 109.78 34.2 105.64 34.55 104.85 34.9 103.46 35.25 103.46 35.6 104.25 35.95 108.01 36.3 110.38 36.64 111.76 36.99 108.4 37.34 105.83 37.69 108.01 38.04 106.82 38.39 108.01 38.74 106.82 39.09 108.99 39.44 107.02 39.79 109.39 40.14 110.38 40.49 113.14 40.83 114.13 41.18 114.92 41.53 117.49 41.88 115.12 42.23 113.34 42.58 112.94 42.93 113.73 43.28 112.35 43.63 111.76 43.98 109.78 44.33 108.6 44.67 110.18 45.02 113.14 45.37 113.73 45.72 114.33 46.07 115.31 46.42 114.52 46.77 114.13 47.12 113.93 47.47 111.36 47.82 110.57 48.17 109.78 48.52 109.59 48.86 108.6 49.21 106.03 49.56 107.61 49.91 109.39 50.26 113.54 50.61 113.93 50.96 114.52 51.31 115.31 51.66 117.68 52.01 116.1 52.36 115.12 52.7 117.29 53.05 117.88 53.4 115.31 53.75 112.75 54.1 110.57 54.45 109.98 54.8 111.36 55.15 110.97 55.5 111.36 55.85 111.76 56.2 109.59 56.55 111.96 56.89 110.18 57.24 108.99 57.59 111.76 57.94 112.35 58.29 110.18 58.64 109.59 58.99 107.02 59.34 108.01 59.69 107.61 60.04 107.22 60.39 106.43 60.73 108.99 61.08 108.01 61.43 112.15 61.78 112.55 62.13 113.93 62.48 111.76 62.83 111.96 63.18 112.15 63.53 109.39 63.88 112.15 64.23 115.51 64.58 117.88 64.92 119.26 65.27 121.44 65.62 121.63 65.97 120.05 66.32 118.47 66.67 118.47 67.02 115.91 67.37 115.51 67.72 118.47 68.07 118.28 68.42 116.89 68.77 118.67 69.11 117.68 69.46 116.89 69.81 117.68 70.16 117.49 70.51 119.26 70.86 120.05 71.21 120.05 71.56 120.45 71.91 119.26 72.26 119.26 72.61 120.05 72.95 119.46 73.3 118.87 73.65 120.05 74 121.44 74.35 123.41 74.7 124.4 75.05 123.41 75.4 123.61 75.75 123.02 76.1 123.41 76.45 125.39 76.8 125.78 77.14 124.99 77.49 125.39 77.84 125.58 78.19 124.6 78.54 124.99 78.89 124.4 79.24 125.19 79.59 124.2 79.94 124.6 80.29 123.21 80.64 123.41 80.98 123.21 81.33 123.61 81.68 124.6 82.03 126.77 82.38 127.56 82.73 127.56 83.08 127.36 83.43 128.15 83.78 127.56 84.13 127.36 84.48 127.95 84.83 128.74 85.17 127.36 85.52 126.77 85.87 127.56 86.22 127.56 86.57 126.57 86.92 128.15 87.27 128.35 87.62 128.35 87.97 128.15 88.32 128.94 88.67 127.95 89.02 128.15 89.36 128.15 89.71 128.55 90.06 130.72 90.41 130.13 90.76 130.32 91.11 130.92 91.46 130.52 91.81 130.92 92.16 130.52 92.51 130.13 92.86 130.32 93.2 130.32 93.55 129.73 93.9 129.73 94.25 130.13 94.6 130.13 94.95 129.53 95.3 128.74 95.65 128.74 96 128.55 96.35 129.73 96.7 129.14 97.05 130.13 97.39 129.93 97.74 130.32 98.09 130.32 98.44 130.92 98.79 131.11"/>
      </g>
      <g stroke-width="0.3" fill="#000000" fill-opacity="0.000" class="geometry" stroke-dasharray="none" stroke="#FEE08B" id="img-ec1aff06-15">
        <path fill="none" d="M21.98,71.86 L 22.33 71.07 22.68 71.47 23.03 71.27 23.38 73.84 23.73 72.06 24.08 69.89 24.42 72.85 24.77 67.52 25.12 67.12 25.47 67.32 25.82 69.49 26.17 66.33 26.52 70.48 26.87 71.47 27.22 72.85 27.57 72.26 27.92 71.67 28.27 69.49 28.61 71.07 28.96 73.44 29.31 71.27 29.66 72.06 30.01 74.63 30.36 74.63 30.71 70.48 31.06 72.26 31.41 67.12 31.76 67.32 32.11 63.96 32.45 68.7 32.8 70.28 33.15 74.43 33.5 71.27 33.85 69.49 34.2 63.77 34.55 62.38 34.9 63.96 35.25 62.78 35.6 62.19 35.95 61.59 36.3 63.57 36.64 65.54 36.99 65.15 37.34 63.77 37.69 63.77 38.04 61 38.39 58.43 38.74 60.61 39.09 59.42 39.44 58.83 39.79 55.67 40.14 54.88 40.49 52.51 40.83 52.51 41.18 53.3 41.53 53.1 41.88 54.88 42.23 53.3 42.58 50.73 42.93 53.1 43.28 53.3 43.63 51.92 43.98 51.32 44.33 52.51 44.67 54.29 45.02 61.79 45.37 63.77 45.72 63.57 46.07 61.2 46.42 67.72 46.77 65.54 47.12 67.52 47.47 71.67 47.82 72.26 48.17 70.28 48.52 67.91 48.86 69.49 49.21 68.9 49.56 70.48 49.91 68.31 50.26 68.31 50.61 65.15 50.96 68.9 51.31 66.73 51.66 67.91 52.01 66.53 52.36 64.16 52.7 61.59 53.05 60.41 53.4 58.43 53.75 54.29 54.1 58.63 54.45 57.84 54.8 61 55.15 59.82 55.5 58.43 55.85 59.82 56.2 56.06 56.55 53.69 56.89 51.52 57.24 50.53 57.59 49.94 57.94 50.93 58.29 45.4 58.64 49.35 58.99 49.35 59.34 50.53 59.69 47.77 60.04 45.6 60.39 45.2 60.73 43.23 61.08 41.05 61.43 41.64 61.78 42.44 62.13 43.03 62.48 42.04 62.83 43.82 63.18 48.16 63.53 48.56 63.88 47.97 64.23 44.02 64.58 45.2 64.92 43.82 65.27 43.62 65.62 41.64 65.97 40.85 66.32 37.5 66.67 37.5 67.02 39.67 67.37 36.31 67.72 35.92 68.07 39.47 68.42 39.47 68.77 38.88 69.11 39.27 69.46 39.08 69.81 41.25 70.16 42.24 70.51 42.24 70.86 43.62 71.21 44.61 71.56 45.79 71.91 46.19 72.26 45.6 72.61 45.99 72.95 44.21 73.3 44.61 73.65 49.15 74 50.93 74.35 48.56 74.7 47.57 75.05 54.09 75.4 57.25 75.75 58.63 76.1 60.01 76.45 56.06 76.8 56.26 77.14 58.24 77.49 57.45 77.84 55.27 78.19 56.26 78.54 55.87 78.89 54.88 79.24 58.24 79.59 58.43 79.94 60.41 80.29 61.79 80.64 59.62 80.98 61.99 81.33 62.78 81.68 65.54 82.03 62.19 82.38 63.77 82.73 68.51 83.08 67.72 83.43 69.1 83.78 73.25 84.13 79.57 84.48 75.81 84.83 72.85 85.17 70.88 85.52 66.53 85.87 67.52 86.22 71.27 86.57 74.04 86.92 74.04 87.27 76.01 87.62 80.16 87.97 79.96 88.32 79.57 88.67 80.55 89.02 84.31 89.36 86.48 89.71 88.06 90.06 87.27 90.41 85.89 90.76 84.31 91.11 83.52 91.46 83.12 91.81 86.08 92.16 89.64 92.51 87.86 92.86 88.26 93.2 88.45 93.55 89.24 93.9 88.65 94.25 89.05 94.6 88.45 94.95 87.07 95.3 87.86 95.65 82.73 96 84.11 96.35 83.71 96.7 82.73 97.05 81.54 97.39 79.96 97.74 80.75 98.09 82.13 98.44 79.76 98.79 76.41 99.14 74.23 99.49 74.43 99.84 74.23 100.19 78.78 100.54 77.79 100.89 80.16 101.23 80.36 101.58 79.37 101.93 79.76 102.28 76.21 102.63 77.39 102.98 73.84 103.33 74.04 103.68 76.6 104.03 72.46 104.38 70.28 104.73 65.15 105.08 60.8 105.42 57.64 105.77 62.19 106.12 61.59 106.47 61.2 106.82 62.58 107.17 62.58 107.52 64.16 107.87 71.27 108.22 69.89 108.57 68.9 108.92 65.15 109.26 63.77 109.61 62.38 109.96 60.61 110.31 59.42 110.66 61.59 111.01 59.82 111.36 62.58 111.71 61.79 112.06 63.77 112.41 69.89 112.76 68.11 113.11 69.1 113.45 65.54 113.8 64.95 114.15 66.14 114.5 67.91 114.85 65.74 115.2 62.98 115.55 65.54 115.9 67.52 116.25 68.31 116.6 67.32 116.95 68.51 117.3 68.51 117.64 68.11 117.99 71.07 118.34 69.89 118.69 73.84 119.04 70.28 119.39 69.1 119.74 69.3 120.09 67.72 120.44 64.95 120.79 65.54 121.14 69.49 121.48 65.74 121.83 65.35 122.18 61 122.53 64.75 122.88 67.12 123.23 67.52 123.58 68.7 123.93 71.47 124.28 72.85 124.63 75.81 124.98 74.43 125.33 75.42 125.67 77.2 126.02 79.17 126.37 81.34 126.72 82.13 127.07 80.95 127.42 75.22 127.77 75.22 128.12 82.53 128.47 81.54 128.82 84.7 129.17 88.26 129.51 89.84 129.86 89.84 130.21 91.02 130.56 89.64 130.91 91.61 131.26 95.37 131.61 93.19 131.96 95.17 132.31 90.63 132.66 90.03 133.01 89.84 133.36 89.24 133.7 89.44 134.05 89.24 134.4 90.43 134.75 90.82 135.1 90.82 135.45 89.44 135.8 89.05 136.15 88.06 136.5 90.43 136.85 88.85 137.2 85.89 137.55 87.66 137.89 88.45 138.24 88.06 138.59 87.86 138.94 86.48 139.29 84.7 139.64 86.68 139.99 86.48 140.34 86.28 140.69 90.43 141.04 88.65 141.39 84.11 141.73 84.31 142.08 82.53 142.43 82.53 142.78 82.33 143.13 81.94 143.48 84.5 143.83 82.73 144.18 83.32 144.53 82.33 144.88 84.11 145.23 80.95 145.58 81.94 145.92 83.12 146.27 82.53 146.62 81.34 146.97 83.52 147.32 77.79 147.67 81.15 148.02 82.33 148.37 85.29 148.72 83.12 149.07 83.52 149.42 84.31 149.76 83.91 150.11 85.89 150.46 88.26 150.81 90.03 151.16 92.01 151.51 94.18 151.86 92.21 152.21 93.98 152.56 87.86 152.91 88.85 153.26 87.07 153.61 84.9 153.95 86.28 154.3 87.07 154.65 91.42 155 92.4 155.35 91.42 155.7 88.85 156.05 92.6 156.4 92.4 156.75 94.58 157.1 97.14 157.45 93.39 157.79 93 158.14 93.98 158.49 95.17 158.84 94.77 159.19 92.4 159.54 90.82 159.89 87.86 160.24 89.24 160.59 90.63 160.94 94.58 161.29 99.71 161.64 99.71 161.98 98.92 162.33 97.14 162.68 98.72 163.03 98.53 163.38 98.72 163.73 96.95 164.08 97.93 164.43 102.08 164.78 104.25 165.13 102.87 165.48 104.06 165.83 105.83 166.17 102.08 166.52 102.48 166.87 105.04 167.22 105.83 167.57 104.85 167.92 105.83 168.27 105.64 168.62 105.83 168.97 106.23 169.32 105.44 169.67 105.64 170.01 106.03 170.36 104.65 170.71 103.46 171.06 102.08 171.41 98.33 171.76 99.51 172.11 97.54 172.46 97.34 172.81 96.55 173.16 93.98 173.51 95.17 173.86 93.59 174.2 94.97 174.55 97.14 174.9 98.13 175.25 99.12 175.6 98.33 175.95 99.51 176.3 101.09 176.65 99.71 177 100.11 177.35 98.72 177.7 95.96 178.04 98.13 178.39 97.93 178.74 95.96 179.09 93 179.44 89.05 179.79 93 180.14 91.81 180.49 90.23 180.84 92.6 181.19 88.45 181.54 90.82 181.89 91.81 182.23 93.59 182.58 93 182.93 95.37 183.28 96.16 183.63 94.77 183.98 93 184.33 92.01 184.68 90.43 185.03 91.02 185.38 92.8 185.73 93.98 186.08 93.19 186.42 91.61 186.77 88.06 187.12 87.86 187.47 87.27 187.82 88.26 188.17 86.87 188.52 88.06 188.87 84.5 189.22 83.12 189.57 79.76 189.92 83.32 190.26 81.34 190.61 86.28 190.96 83.91 191.31 85.1 191.66 82.33 192.01 80.75 192.36 83.91 192.71 86.08 193.06 86.08 193.41 86.28 193.76 85.49 194.11 85.49 194.45 88.85 194.8 85.1 195.15 84.7 195.5 87.47 195.85 87.07 196.2 91.22"/>
      </g>
      <g stroke-width="0.3" fill="#000000" fill-opacity="0.000" class="geometry" stroke-dasharray="none" stroke="#FDAE61" id="img-ec1aff06-16">
        <path fill="none" d="M21.98,71.86 L 22.33 69.1 22.68 70.88 23.03 69.49 23.38 69.69 23.73 70.48 24.08 68.31 24.42 68.11 24.77 66.93 25.12 65.54 25.47 65.54 25.82 63.37 26.17 59.22 26.52 53.5 26.87 55.87 27.22 50.34 27.57 48.36 27.92 46.78 28.27 42.04 28.61 42.44 28.96 41.84 29.31 39.27 29.66 44.21 30.01 45.99 30.36 45 30.71 46.19 31.06 45.4 31.41 49.55 31.76 52.31 32.11 55.27 32.45 54.88 32.8 55.08 33.15 62.58 33.5 57.05 33.85 56.66 34.2 56.06 34.55 53.69 34.9 57.64 35.25 62.58 35.6 61.99 35.95 60.41 36.3 58.63 36.64 59.82 36.99 57.05 37.34 61 37.69 64.16 38.04 65.15 38.39 62.58 38.74 62.98 39.09 62.58 39.44 65.15 39.79 64.36 40.14 63.77 40.49 63.17 40.83 64.75 41.18 65.94 41.53 64.36 41.88 64.36 42.23 68.51 42.58 68.31 42.93 65.35 43.28 58.63 43.63 56.06 43.98 54.48 44.33 58.04 44.67 58.43 45.02 55.67 45.37 54.29 45.72 52.51 46.07 52.9 46.42 56.26 46.77 53.1 47.12 53.89 47.47 50.73 47.82 53.3 48.17 56.06 48.52 56.06 48.86 57.25 49.21 55.08 49.56 53.5 49.91 56.06 50.26 60.21 50.61 62.98 50.96 57.64 51.31 54.88 51.66 56.26 52.01 59.62 52.36 64.16 52.7 66.53 53.05 67.12 53.4 62.19 53.75 62.78 54.1 63.37 54.45 62.78 54.8 65.94 55.15 65.15 55.5 64.95 55.85 60.61 56.2 61.79 56.55 61.59 56.89 61.2 57.24 62.19 57.59 62.78 57.94 68.51 58.29 67.12 58.64 69.89 58.99 71.07 59.34 71.47 59.69 72.85 60.04 70.09 60.39 70.48 60.73 73.25 61.08 75.62 61.43 75.81 61.78 76.6 62.13 77.79 62.48 78.78 62.83 78.97 63.18 77.79 63.53 74.43 63.88 72.26 64.23 70.68 64.58 70.68 64.92 70.48 65.27 73.25 65.62 67.91 65.97 70.68 66.32 68.7 66.67 66.14 67.02 67.91 67.37 69.49 67.72 72.46 68.07 70.48 68.42 72.65 68.77 76.8 69.11 77.59 69.46 80.55 69.81 82.53 70.16 82.33 70.51 85.89 70.86 84.7 71.21 86.48 71.56 87.66 71.91 89.24 72.26 91.02 72.61 93.98 72.95 95.37 73.3 89.64 73.65 92.01 74 91.02 74.35 93.19 74.7 92.01 75.05 91.42 75.4 89.44 75.75 89.84 76.1 89.64 76.45 93 76.8 92.21 77.14 91.61 77.49 89.24 77.84 88.65 78.19 88.06 78.54 89.24 78.89 85.89 79.24 85.89 79.59 84.7 79.94 84.31 80.29 81.15 80.64 83.32 80.98 85.1 81.33 87.47 81.68 87.86 82.03 87.66 82.38 92.21 82.73 93.19 83.08 94.77 83.43 89.64 83.78 87.47 84.13 92.6 84.48 91.42 84.83 89.84 85.17 90.23 85.52 88.45 85.87 89.84 86.22 90.03 86.57 92.4 86.92 94.38 87.27 96.55 87.62 98.72 87.97 101.49 88.32 101.69 88.67 101.69 89.02 100.11 89.36 99.32 89.71 102.08 90.06 107.61 90.41 105.44 90.76 104.85 91.11 102.28 91.46 101.09 91.81 99.32 92.16 99.51 92.51 100.9 92.86 99.71 93.2 97.54 93.55 99.71 93.9 100.11 94.25 105.04 94.6 108.8 94.95 108.6 95.3 110.18 95.65 110.77 96 108.4 96.35 107.81 96.7 105.44 97.05 105.83 97.39 106.82 97.74 106.62 98.09 108.01 98.44 106.62 98.79 108.2 99.14 107.81 99.49 106.23 99.84 106.62 100.19 106.03 100.54 105.44 100.89 108.01 101.23 106.23 101.58 103.86 101.93 105.24 102.28 103.27 102.63 101.09 102.98 101.69 103.33 103.46 103.68 102.48 104.03 99.12 104.38 100.9 104.73 101.29 105.08 100.11 105.42 99.32 105.77 97.93 106.12 99.51 106.47 102.67 106.82 101.49 107.17 102.87 107.52 103.07 107.87 101.09 108.22 102.48 108.57 103.27 108.92 103.66 109.26 104.65 109.61 106.23 109.96 108.2 110.31 106.43 110.66 106.82 111.01 107.61 111.36 111.36 111.71 114.72 112.06 114.72 112.41 113.14 112.76 112.15 113.11 109.19 113.45 109.19 113.8 108.6 114.15 104.06 114.5 102.67 114.85 99.51 115.2 94.97 115.55 93.98 115.9 94.58 116.25 96.95 116.6 90.82 116.95 89.44 117.3 88.26 117.64 87.86 117.99 86.68 118.34 86.08 118.69 85.89 119.04 84.7 119.39 84.5 119.74 85.69 120.09 90.23 120.44 93.79 120.79 92.8 121.14 94.18 121.48 93.19 121.83 93 122.18 95.37 122.53 97.74 122.88 95.56 123.23 98.92 123.58 99.91 123.93 101.09 124.28 99.91 124.63 100.11 124.98 100.5 125.33 99.71 125.67 97.54 126.02 99.12 126.37 95.37 126.72 97.14 127.07 92.6 127.42 91.42 127.77 92.01 128.12 93.39 128.47 93.98 128.82 94.58 129.17 91.81 129.51 91.22 129.86 92.6 130.21 92.8 130.56 89.84 130.91 88.45 131.26 92.8 131.61 94.97 131.96 95.56 132.31 90.23 132.66 91.22 133.01 90.82 133.36 91.22 133.7 93.59 134.05 88.85 134.4 86.48 134.75 91.61 135.1 91.81 135.45 91.42 135.8 89.05 136.15 90.82 136.5 93.79 136.85 93.19 137.2 92.8 137.55 94.58 137.89 95.17 138.24 95.17 138.59 93 138.94 95.56 139.29 92.21 139.64 91.61 139.99 95.56 140.34 94.38 140.69 89.84 141.04 90.03 141.39 88.06 141.73 89.84 142.08 87.86 142.43 89.44 142.78 88.45 143.13 87.47 143.48 90.03 143.83 93 144.18 93.19 144.53 94.97 144.88 94.58 145.23 96.75 145.58 96.55 145.92 94.97 146.27 93.79 146.62 92.4 146.97 90.63 147.32 90.82 147.67 89.84 148.02 92.21 148.37 92.8 148.72 92.6 149.07 92.01 149.42 92.8 149.76 92.8 150.11 91.61 150.46 85.29 150.81 83.12 151.16 83.52 151.51 80.95 151.86 81.74 152.21 80.16 152.56 82.73 152.91 83.91 153.26 83.32 153.61 84.31 153.95 77.59 154.3 79.96 154.65 82.33 155 81.15 155.35 84.11 155.7 79.76 156.05 79.76 156.4 78.58 156.75 80.16 157.1 83.12 157.45 78.97 157.79 76.01 158.14 72.46 158.49 77 158.84 75.62 159.19 71.47 159.54 67.91 159.89 67.52 160.24 69.3 160.59 75.22 160.94 74.23 161.29 76.21 161.64 75.22 161.98 74.23 162.33 74.23 162.68 77.99 163.03 77.2 163.38 72.46 163.73 76.8 164.08 77.2 164.43 78.58 164.78 78.58 165.13 79.76 165.48 76.8 165.83 74.04 166.17 76.41 166.52 74.43 166.87 74.04 167.22 72.06 167.57 73.64 167.92 76.6 168.27 71.07 168.62 72.26 168.97 72.85 169.32 70.28 169.67 67.32 170.01 65.74 170.36 66.33 170.71 66.53 171.06 63.96 171.41 63.96 171.76 61.4 172.11 59.82 172.46 58.63 172.81 59.62 173.16 58.24 173.51 59.62 173.86 61.99 174.2 60.8 174.55 61 174.9 61.2 175.25 61.99 175.6 60.21 175.95 63.37 176.3 65.35 176.65 66.93 177 71.27 177.35 69.3 177.7 70.48 178.04 71.27 178.39 70.68 178.74 67.52 179.09 69.69 179.44 67.72 179.79 66.53 180.14 64.36 180.49 67.32 180.84 65.15 181.19 67.91 181.54 68.31 181.89 67.72 182.23 69.89 182.58 68.31 182.93 69.69 183.28 68.9 183.63 68.31 183.98 68.51 184.33 71.86 184.68 68.7 185.03 66.73 185.38 64.95 185.73 67.52 186.08 66.93 186.42 72.46 186.77 72.26 187.12 71.47 187.47 70.28 187.82 68.51 188.17 66.73 188.52 61.2 188.87 61 189.22 60.61 189.57 59.42 189.92 55.87 190.26 54.88 190.61 58.24 190.96 58.83 191.31 53.69 191.66 52.51 192.01 52.71 192.36 58.63 192.71 61.2 193.06 58.83 193.41 56.85 193.76 55.87 194.11 55.67 194.45 55.67 194.8 54.09 195.15 51.13 195.5 53.89 195.85 53.69 196.2 55.08"/>
      </g>
      <g stroke-width="0.3" fill="#000000" fill-opacity="0.000" class="geometry" stroke-dasharray="none" stroke="#F46D43" id="img-ec1aff06-17">
        <path fill="none" d="M21.98,71.86 L 22.33 72.85 22.68 71.27 23.03 72.46 23.38 72.85 23.73 75.02 24.08 74.04 24.42 74.04 24.77 76.8 25.12 77.2 25.47 77.59 25.82 79.96 26.17 73.84 26.52 77.59 26.87 76.41 27.22 79.96 27.57 81.15 27.92 86.68 28.27 86.48 28.61 86.48 28.96 85.1 29.31 86.08 29.66 86.68 30.01 84.7 30.36 85.29 30.71 85.29 31.06 86.48 31.41 84.5 31.76 81.15 32.11 82.73 32.45 85.29 32.8 85.89 33.15 86.87 33.5 87.66 33.85 84.7 34.2 80.36 34.55 79.76 34.9 78.18 35.25 78.18 35.6 80.95 35.95 83.32 36.3 83.91 36.64 86.28 36.99 86.08 37.34 83.52 37.69 85.1 38.04 87.07 38.39 87.47 38.74 81.54 39.09 78.97 39.44 79.96 39.79 82.53 40.14 82.73 40.49 82.73 40.83 82.73 41.18 78.78 41.53 77.79 41.88 78.97 42.23 77.2 42.58 76.41 42.93 74.63 43.28 74.43 43.63 71.27 43.98 72.26 44.33 73.64 44.67 73.64 45.02 69.89 45.37 69.89 45.72 64.75 46.07 62.98 46.42 59.22 46.77 59.03 47.12 60.21 47.47 57.25 47.82 56.26 48.17 53.5 48.52 58.04 48.86 60.8 49.21 57.64 49.56 59.22 49.91 60.01 50.26 58.63 50.61 63.57 50.96 60.21 51.31 58.63 51.66 59.03 52.01 56.46 52.36 55.47 52.7 54.68 53.05 51.32 53.4 48.56 53.75 47.18 54.1 46.78 54.45 44.41 54.8 42.24 55.15 41.64 55.5 43.03 55.85 43.82 56.2 43.42 56.55 41.25 56.89 40.26 57.24 41.05 57.59 40.66 57.94 40.85 58.29 43.23 58.64 42.24 58.99 45.99 59.34 46.78 59.69 44.41 60.04 44.81 60.39 49.15 60.73 46.39 61.08 46.58 61.43 45.4 61.78 46.39 62.13 44.41 62.48 47.57 62.83 48.16 63.18 48.76 63.53 46.98 63.88 44.02 64.23 45.99 64.58 45.99 64.92 46.78 65.27 46.98 65.62 48.16 65.97 47.57 66.32 45.6 66.67 44.41 67.02 44.61 67.37 42.04 67.72 39.87 68.07 39.27 68.42 36.11 68.77 32.95 69.11 32.76 69.46 32.95 69.81 31.37 70.16 31.57 70.51 32.56 70.86 32.76 71.21 31.77 71.56 33.35 71.91 34.53 72.26 32.76 72.61 32.36 72.95 31.18 73.3 30.98 73.65 29.2 74 30.58 74.35 31.37 74.7 30.98 75.05 28.21 75.4 27.23 75.75 27.23 76.1 29.6 76.45 27.23 76.8 28.61 77.14 28.61 77.49 28.41 77.84 25.65 78.19 27.03 78.54 22.29 78.89 21.89 79.24 21.89 79.59 21.7 79.94 21.5 80.29 21.7 80.64 21.5 80.98 21.7 81.33 21.5 81.68 20.12 82.03 21.3 82.38 21.7 82.73 21.89 83.08 22.09 83.43 21.5 83.78 24.07 84.13 24.46 84.48 24.66 84.83 28.02 85.17 30.19 85.52 32.36 85.87 31.97 86.22 31.97 86.57 32.16 86.92 32.95 87.27 31.77 87.62 31.77 87.97 32.16 88.32 29.79 88.67 29.99 89.02 27.42 89.36 28.02 89.71 26.44 90.06 25.84 90.41 26.04 90.76 25.05 91.11 25.25 91.46 26.04 91.81 25.65 92.16 26.63 92.51 24.66 92.86 24.26 93.2 25.05 93.55 25.84 93.9 24.86 94.25 23.87 94.6 24.07 94.95 23.87 95.3 23.67 95.65 24.46 96 25.05 96.35 24.46 96.7 25.65 97.05 26.24 97.39 26.24 97.74 27.82 98.09 25.84 98.44 25.25 98.79 23.28 99.14 21.1 99.49 20.12 99.84 19.52 100.19 19.13 100.54 19.92 100.89 17.35 101.23 17.55 101.58 18.93 101.93 18.93 102.28 17.94 102.63 18.93 102.98 17.55 103.33 19.52 103.68 20.12 104.03 20.12 104.38 21.1 104.73 20.91 105.08 21.7 105.42 21.3 105.77 22.29 106.12 23.87 106.47 24.66 106.82 26.04 107.17 26.63 107.52 27.42 107.87 26.04 108.22 27.62 108.57 26.83 108.92 26.04 109.26 25.45 109.61 27.62 109.96 28.61 110.31 29.2 110.66 29 111.01 27.62 111.36 28.21 111.71 29.2 112.06 27.62 112.41 28.21 112.76 28.81 113.11 27.82 113.45 27.62 113.8 26.83 114.15 25.65 114.5 26.04 114.85 27.62 115.2 27.42 115.55 28.02 115.9 29.6 116.25 29.99 116.6 32.95 116.95 34.34 117.3 33.94 117.64 35.52 117.99 36.51 118.34 35.72 118.69 34.14 119.04 32.36 119.39 35.72 119.74 35.13 120.09 36.9 120.44 34.34 120.79 31.37 121.14 30.78 121.48 29 121.83 31.57 122.18 29.4 122.53 28.21 122.88 29 123.23 29.2 123.58 26.44 123.93 25.84 124.28 29 124.63 30.19 124.98 30.78 125.33 28.21 125.67 31.97 126.02 30.39 126.37 30.78 126.72 30.98 127.07 30.58 127.42 32.95 127.77 35.32 128.12 37.1 128.47 37.5 128.82 36.71 129.17 36.11 129.51 38.88 129.86 41.25 130.21 42.63 130.56 47.97 130.91 47.57 131.26 50.73 131.61 47.97 131.96 47.57 132.31 48.95 132.66 47.77 133.01 47.97 133.36 52.51 133.7 49.74 134.05 54.09 134.4 52.9 134.75 53.5 135.1 53.89 135.45 53.3 135.8 52.11 136.15 53.69 136.5 58.04 136.85 57.64 137.2 56.26 137.55 58.04 137.89 56.85 138.24 57.45 138.59 55.87 138.94 61.59 139.29 61.99 139.64 66.14 139.99 61 140.34 56.85 140.69 58.63 141.04 57.05 141.39 55.67 141.73 52.31 142.08 55.27 142.43 56.46 142.78 54.88 143.13 52.71 143.48 51.72 143.83 45.79 144.18 44.41 144.53 42.83 144.88 41.25 145.23 41.45 145.58 42.04 145.92 43.42 146.27 42.83 146.62 47.18 146.97 48.56 147.32 47.57 147.67 46.39 148.02 46.39 148.37 43.62 148.72 42.83 149.07 43.03 149.42 43.23 149.76 43.82 150.11 43.62 150.46 39.87 150.81 38.09 151.16 38.48 151.51 38.88 151.86 41.25 152.21 40.66 152.56 38.88 152.91 43.03 153.26 42.44 153.61 44.41 153.95 43.03 154.3 44.21 154.65 43.62 155 39.27 155.35 38.48 155.7 37.89 156.05 39.27 156.4 39.87 156.75 43.03 157.1 41.84 157.45 42.83 157.79 40.26 158.14 41.64 158.49 43.62 158.84 43.03 159.19 46.19 159.54 44.81 159.89 46.19 160.24 45.6 160.59 45.4 160.94 45.6 161.29 49.35 161.64 47.57 161.98 46.58 162.33 44.61 162.68 43.03 163.03 41.05 163.38 35.92 163.73 34.73 164.08 32.36 164.43 31.97 164.78 32.76 165.13 34.73 165.48 33.74 165.83 33.35 166.17 35.13 166.52 36.71 166.87 35.13 167.22 33.35 167.57 35.72 167.92 36.51 168.27 36.31 168.62 34.14 168.97 34.73 169.32 34.34 169.67 33.55 170.01 33.35 170.36 32.16 170.71 30.78 171.06 30.19 171.41 29.6 171.76 28.81 172.11 29.99 172.46 27.03 172.81 27.23 173.16 28.61 173.51 33.15 173.86 33.35 174.2 35.52 174.55 34.34 174.9 33.55 175.25 34.93 175.6 34.53 175.95 33.35 176.3 31.18 176.65 31.37 177 30.98 177.35 31.57 177.7 31.18 178.04 31.37 178.39 29.79 178.74 29.99 179.09 30.58 179.44 32.56 179.79 30.78 180.14 30.98 180.49 30.78 180.84 29.4 181.19 26.63 181.54 29.4 181.89 30.58 182.23 33.15 182.58 34.93 182.93 34.93 183.28 31.37 183.63 31.18 183.98 30.98 184.33 30.58 184.68 31.37 185.03 29.6 185.38 30.39 185.73 32.76 186.08 30.78 186.42 28.02 186.77 28.02 187.12 30.98 187.47 33.15 187.82 34.34 188.17 34.34 188.52 33.74 188.87 33.55 189.22 31.57 189.57 30.98 189.92 28.61 190.26 27.62 190.61 28.61 190.96 29.4 191.31 31.57 191.66 30.58 192.01 29.6 192.36 28.81 192.71 29.99 193.06 28.81 193.41 30.98 193.76 32.76 194.11 30.58 194.45 30.58 194.8 28.61 195.15 31.57 195.5 29.2 195.85 29 196.2 26.83"/>
      </g>
      <g stroke-width="0.3" fill="#000000" fill-opacity="0.000" class="geometry" stroke-dasharray="none" stroke="#D53E4F" id="img-ec1aff06-18">
        <path fill="none" d="M21.98,71.86 L 22.33 76.21 22.68 68.9 23.03 69.69 23.38 72.46 23.73 68.11 24.08 67.91 24.42 67.12 24.77 72.65 25.12 73.05 25.47 76.21 25.82 79.17 26.17 78.18 26.52 74.43 26.87 73.25 27.22 76.21 27.57 72.26 27.92 77.39 28.27 76.8 28.61 82.73 28.96 80.95 29.31 77 29.66 75.81 30.01 74.83 30.36 74.04 30.71 76.6 31.06 77.59 31.41 79.37 31.76 76.21 32.11 78.58 32.45 82.92 32.8 81.94 33.15 81.15 33.5 78.78 33.85 78.58 34.2 77.39 34.55 75.42 34.9 76.41 35.25 80.55 35.6 82.33 35.95 84.7 36.3 85.1 36.64 87.47 36.99 88.65 37.34 90.82 37.69 89.44 38.04 89.24 38.39 89.44 38.74 93.98 39.09 95.56 39.44 97.14 39.79 98.53 40.14 98.72 40.49 99.71 40.83 102.67 41.18 102.28 41.53 98.92 41.88 104.06 42.23 104.06 42.58 102.87 42.93 102.28 43.28 100.11 43.63 99.12 43.98 96.16 44.33 96.95 44.67 99.91 45.02 100.7 45.37 99.12 45.72 96.75 46.07 93.19 46.42 91.02 46.77 92.8 47.12 94.58 47.47 95.37 47.82 93.39 48.17 90.43 48.52 87.66 48.86 84.5 49.21 88.26 49.56 83.91 49.91 85.49 50.26 82.92 50.61 83.32 50.96 82.33 51.31 83.32 51.66 83.71 52.01 82.13 52.36 79.96 52.7 76.8 53.05 79.37 53.4 79.96 53.75 77.59 54.1 79.57 54.45 81.74 54.8 83.12 55.15 82.33 55.5 83.12 55.85 84.9 56.2 82.53 56.55 85.29 56.89 85.29 57.24 85.89 57.59 83.91 57.94 84.11 58.29 84.11 58.64 81.94 58.99 79.96 59.34 80.95 59.69 80.75 60.04 81.94 60.39 83.91 60.73 80.95 61.08 82.13 61.43 80.75 61.78 84.5 62.13 81.34 62.48 80.95 62.83 80.95 63.18 77.39 63.53 77 63.88 72.85 64.23 71.27 64.58 72.85 64.92 72.26 65.27 71.47 65.62 71.27 65.97 68.31 66.32 69.49 66.67 69.89 67.02 67.52 67.37 68.9 67.72 69.69 68.07 69.3 68.42 75.62 68.77 76.41 69.11 74.04 69.46 72.06 69.81 75.42 70.16 74.83 70.51 77 70.86 78.18 71.21 76.41 71.56 80.36 71.91 81.15 72.26 79.76 72.61 77.99 72.95 77.2 73.3 74.63 73.65 69.49 74 72.06 74.35 72.26 74.7 69.3 75.05 73.25 75.4 71.27 75.75 68.9 76.1 67.32 76.45 72.06 76.8 72.85 77.14 72.26 77.49 68.51 77.84 71.27 78.19 69.69 78.54 71.07 78.89 64.16 79.24 65.74 79.59 66.33 79.94 67.72 80.29 67.91 80.64 67.32 80.98 70.28 81.33 71.86 81.68 69.89 82.03 72.26 82.38 72.46 82.73 72.85 83.08 71.27 83.43 73.64 83.78 72.06 84.13 71.07 84.48 70.48 84.83 67.52 85.17 69.1 85.52 66.14 85.87 68.51 86.22 67.72 86.57 65.54 86.92 63.96 87.27 63.96 87.62 62.58 87.97 66.73 88.32 65.94 88.67 67.52 89.02 68.7 89.36 67.52 89.71 65.35 90.06 66.33 90.41 68.11 90.76 69.69 91.11 69.69 91.46 70.88 91.81 75.81 92.16 70.68 92.51 69.49 92.86 71.47 93.2 69.3 93.55 69.3 93.9 67.52 94.25 70.88 94.6 72.06 94.95 75.22 95.3 77 95.65 77.99 96 76.21 96.35 80.16 96.7 81.74 97.05 80.16 97.39 82.53 97.74 81.94 98.09 81.74 98.44 80.95 98.79 80.75 99.14 81.34 99.49 83.12 99.84 80.36 100.19 81.74 100.54 77 100.89 78.58 101.23 79.96 101.58 76.21 101.93 75.42 102.28 75.81 102.63 76.21 102.98 72.26 103.33 74.23 103.68 75.42 104.03 77.99 104.38 78.78 104.73 77.39 105.08 77.39 105.42 78.78 105.77 79.17 106.12 78.18 106.47 83.32 106.82 86.68 107.17 84.11 107.52 80.95 107.87 74.43 108.22 74.04 108.57 73.05 108.92 70.48 109.26 72.26 109.61 68.7 109.96 68.11 110.31 65.15 110.66 65.15 111.01 68.9 111.36 67.32 111.71 68.7 112.06 69.89 112.41 70.09 112.76 73.84 113.11 75.42 113.45 76.21 113.8 73.84 114.15 71.86 114.5 70.68 114.85 69.3 115.2 70.88 115.55 65.54 115.9 70.48 116.25 71.07 116.6 71.67 116.95 69.3 117.3 71.27 117.64 73.05 117.99 71.07 118.34 70.88 118.69 68.51 119.04 69.1 119.39 69.3 119.74 65.94 120.09 66.14 120.44 65.35 120.79 69.1 121.14 70.88 121.48 70.09 121.83 71.07 122.18 72.26 122.53 72.65 122.88 73.44 123.23 79.76 123.58 82.13 123.93 83.32 124.28 82.73 124.63 80.16 124.98 76.01 125.33 78.38 125.67 77.79 126.02 79.96 126.37 77.2 126.72 78.18 127.07 78.58 127.42 78.18 127.77 77.59 128.12 73.84 128.47 76.6 128.82 77 129.17 78.78 129.51 81.34 129.86 83.52 130.21 80.16 130.56 79.96 130.91 82.92 131.26 80.95 131.61 84.31 131.96 85.29 132.31 84.9 132.66 88.85 133.01 94.97 133.36 93.59 133.7 94.58 134.05 92.4 134.4 92.4 134.75 96.75 135.1 94.58 135.45 97.93 135.8 99.91 136.15 101.69 136.5 100.5 136.85 95.76 137.2 96.16 137.55 96.75 137.89 97.93 138.24 96.55 138.59 98.33 138.94 99.91 139.29 99.12 139.64 100.7 139.99 102.08 140.34 100.5 140.69 99.12 141.04 101.09 141.39 100.7 141.73 99.51 142.08 100.3 142.43 99.71 142.78 100.3 143.13 98.13 143.48 99.32 143.83 97.34 144.18 95.17 144.53 91.81 144.88 90.63 145.23 91.22 145.58 89.05 145.92 89.44 146.27 89.64 146.62 91.02 146.97 95.17 147.32 94.58 147.67 95.56 148.02 96.35 148.37 97.14 148.72 100.9 149.07 100.5 149.42 102.28 149.76 105.24 150.11 108.2 150.46 111.76 150.81 112.75 151.16 112.35 151.51 111.76 151.86 113.93 152.21 113.54 152.56 113.73 152.91 115.91 153.26 118.28 153.61 117.68 153.95 117.29 154.3 116.7 154.65 118.67 155 117.88 155.35 118.67 155.7 116.7 156.05 116.5 156.4 117.68 156.75 118.87 157.1 119.07 157.45 118.28 157.79 117.68 158.14 117.49 158.49 121.83 158.84 122.23 159.19 123.61 159.54 123.21 159.89 124.4 160.24 123.61 160.59 121.83 160.94 123.61 161.29 123.41 161.64 124.4 161.98 124.79 162.33 123.61 162.68 123.21 163.03 122.82 163.38 121.24 163.73 120.25 164.08 117.88 164.43 115.71 164.78 115.51 165.13 114.92 165.48 113.73 165.83 111.96 166.17 112.94 166.52 116.3 166.87 113.54 167.22 114.92 167.57 116.5 167.92 116.1 168.27 114.13 168.62 114.72 168.97 114.92 169.32 116.3 169.67 118.08 170.01 118.47 170.36 118.08 170.71 118.28 171.06 116.5 171.41 117.49 171.76 117.29 172.11 115.71 172.46 114.72 172.81 118.08 173.16 119.66 173.51 119.26 173.86 118.67 174.2 118.67 174.55 120.45 174.9 120.45 175.25 122.42 175.6 122.42 175.95 120.45 176.3 120.65 176.65 121.44 177 120.65 177.35 123.61 177.7 124.99 178.04 125.19 178.39 126.18 178.74 124 179.09 124.79 179.44 123.61 179.79 122.82 180.14 122.62 180.49 122.23 180.84 121.04 181.19 121.24 181.54 118.47 181.89 116.5 182.23 118.47 182.58 120.84 182.93 118.47 183.28 117.49 183.63 117.68 183.98 115.71 184.33 114.13 184.68 114.52 185.03 116.3 185.38 116.89 185.73 118.47 186.08 119.46 186.42 118.87 186.77 117.88 187.12 118.08 187.47 120.25 187.82 122.82 188.17 122.23 188.52 119.86 188.87 119.86 189.22 118.47 189.57 118.87 189.92 114.72 190.26 117.09 190.61 117.09 190.96 117.09 191.31 121.04 191.66 119.46 192.01 120.45 192.36 120.05 192.71 120.84 193.06 119.46 193.41 118.28 193.76 116.3 194.11 116.1 194.45 117.68 194.8 115.91 195.15 118.08 195.5 115.91 195.85 118.08 196.2 115.91"/>
      </g>
      <g stroke-width="0.3" fill="#000000" fill-opacity="0.000" class="geometry" stroke-dasharray="none" stroke="#9E0142" id="img-ec1aff06-19">
        <path fill="none" d="M21.98,71.86 L 22.33 71.86 22.68 69.89 23.03 69.3 23.38 73.05 23.73 71.47 24.08 71.47 24.42 71.27 24.77 70.09 25.12 71.47 25.47 68.11 25.82 70.48 26.17 70.09 26.52 68.9 26.87 71.86 27.22 73.84 27.57 71.07 27.92 72.06 28.27 71.86 28.61 71.47 28.96 71.07 29.31 72.46 29.66 73.64 30.01 75.22 30.36 73.25 30.71 74.04 31.06 75.02 31.41 80.55 31.76 83.32 32.11 83.12 32.45 84.31 32.8 84.31 33.15 85.29 33.5 84.7 33.85 81.54 34.2 80.95 34.55 81.74 34.9 79.37 35.25 80.55 35.6 79.76 35.95 84.9 36.3 86.08 36.64 86.08 36.99 90.03 37.34 92.21 37.69 90.23 38.04 88.65 38.39 88.26 38.74 85.69 39.09 86.08 39.44 86.08 39.79 87.27 40.14 83.12 40.49 84.9 40.83 86.08 41.18 83.91 41.53 86.48 41.88 84.7 42.23 79.37 42.58 77.2 42.93 75.62 43.28 75.02 43.63 72.85 43.98 72.65 44.33 69.89 44.67 69.3 45.02 67.91 45.37 69.49 45.72 68.9 46.07 69.1 46.42 71.47 46.77 71.47 47.12 70.68 47.47 73.25 47.82 70.88 48.17 70.88 48.52 67.52 48.86 62.98 49.21 64.16 49.56 67.32 49.91 66.14 50.26 62.58 50.61 63.96 50.96 67.52 51.31 67.72 51.66 67.72 52.01 68.11 52.36 63.17 52.7 62.58 53.05 58.83 53.4 55.27 53.75 52.71 54.1 58.04 54.45 59.42 54.8 60.21 55.15 59.22 55.5 60.21 55.85 59.22 56.2 61.79 56.55 60.01 56.89 60.01 57.24 60.41 57.59 62.19 57.94 62.38 58.29 60.61 58.64 61 58.99 60.01 59.34 60.61 59.69 56.85 60.04 56.26 60.39 55.67 60.73 53.3 61.08 52.11 61.43 48.95 61.78 50.93 62.13 51.92 62.48 54.09 62.83 54.09 63.18 54.09 63.53 55.67 63.88 50.34 64.23 50.34 64.58 49.55 64.92 47.18 65.27 45.79 65.62 42.44 65.97 45.99 66.32 45.79 66.67 46.78 67.02 46.19 67.37 44.81 67.72 42.04 68.07 43.23 68.42 43.62 68.77 42.24 69.11 41.25 69.46 41.64 69.81 44.02 70.16 40.66 70.51 41.45 70.86 37.3 71.21 37.3 71.56 38.29 71.91 36.51 72.26 37.89 72.61 39.47 72.95 38.88 73.3 37.3 73.65 33.74 74 34.73 74.35 32.76 74.7 31.97 75.05 30.19 75.4 29.2 75.75 29.6 76.1 27.62 76.45 27.23 76.8 28.21 77.14 29.6 77.49 29.6 77.84 31.57 78.19 32.95 78.54 33.94 78.89 36.51 79.24 35.92 79.59 35.92 79.94 33.74 80.29 30.58 80.64 29.6 80.98 26.44 81.33 25.84 81.68 26.24 82.03 27.42 82.38 26.63 82.73 25.65 83.08 26.83 83.43 27.23 83.78 28.81 84.13 24.86 84.48 22.49 84.83 23.08 85.17 26.04 85.52 25.84 85.87 24.46 86.22 23.08 86.57 24.46 86.92 25.45 87.27 26.44 87.62 25.05 87.97 29 88.32 30.39 88.67 32.95 89.02 31.97 89.36 32.95 89.71 34.53 90.06 36.31 90.41 34.73 90.76 32.95 91.11 31.18 91.46 31.18 91.81 29.4 92.16 30.78 92.51 33.15 92.86 30.98 93.2 32.16 93.55 30.39 93.9 31.57 94.25 33.55 94.6 36.31 94.95 35.92 95.3 32.16 95.65 32.76 96 34.34 96.35 30.58 96.7 29.79 97.05 27.62 97.39 25.84 97.74 26.63 98.09 23.67 98.44 25.05 98.79 22.49 99.14 23.08 99.49 23.08 99.84 24.07 100.19 22.09 100.54 21.5 100.89 20.31 101.23 19.52 101.58 20.51 101.93 22.09 102.28 20.31 102.63 20.51 102.98 21.7 103.33 22.68 103.68 23.67 104.03 24.26 104.38 21.7 104.73 21.89 105.08 19.13 105.42 19.52 105.77 18.93 106.12 17.75 106.47 19.33 106.82 18.34 107.17 19.72 107.52 20.51 107.87 21.7 108.22 20.51 108.57 19.13 108.92 19.33 109.26 20.71 109.61 20.71 109.96 20.71 110.31 19.72 110.66 18.54 111.01 19.92 111.36 19.92 111.71 20.91 112.06 18.73 112.41 18.93 112.76 19.13 113.11 19.13 113.45 20.12 113.8 19.33 114.15 20.31 114.5 19.92 114.85 19.72 115.2 18.54 115.55 18.73 115.9 17.94 116.25 18.14 116.6 18.54 116.95 18.73 117.3 16.96 117.64 18.54 117.99 18.34 118.34 18.54 118.69 16.96 119.04 18.34 119.39 16.76 119.74 16.56 120.09 18.93 120.44 17.75 120.79 18.14 121.14 17.75 121.48 17.94 121.83 18.34 122.18 17.94 122.53 19.13 122.88 19.13 123.23 20.12 123.58 23.67 123.93 24.86 124.28 25.45 124.63 26.24 124.98 27.03 125.33 26.04 125.67 25.25 126.02 25.84 126.37 23.87 126.72 22.88 127.07 20.12 127.42 19.13 127.77 17.94 128.12 20.12 128.47 19.33 128.82 20.71 129.17 21.7 129.51 21.3 129.86 20.71 130.21 20.31 130.56 20.51 130.91 19.52 131.26 19.92 131.61 20.71 131.96 19.72 132.31 22.29 132.66 21.7 133.01 21.1 133.36 22.88 133.7 23.08 134.05 21.5 134.4 21.1 134.75 20.91 135.1 20.91 135.45 22.29 135.8 23.28 136.15 23.08 136.5 22.09 136.85 20.12 137.2 20.12 137.55 19.13 137.89 19.92 138.24 19.33 138.59 20.71 138.94 22.09 139.29 24.07 139.64 23.08 139.99 20.71 140.34 19.92 140.69 18.93 141.04 18.54 141.39 19.92 141.73 19.13 142.08 19.92 142.43 19.33 142.78 18.34 143.13 19.13 143.48 16.17 143.83 14.98 144.18 14.59 144.53 13.8 144.88 13.01 145.23 12.61"/>
      </g>
    </g>
  </g>
</g>
  <g class="guide ylabels" font-size="2.82" font-family="'PT Sans Caption','Helvetica Neue','Helvetica',sans-serif" fill="#000000" id="img-ec1aff06-20">
    <text x="18.63" y="131.11" text-anchor="end" dy="0.35em">0</text>
    <text x="18.63" y="111.36" text-anchor="end" dy="0.35em">100</text>
    <text x="18.63" y="91.61" text-anchor="end" dy="0.35em">200</text>
    <text x="18.63" y="71.86" text-anchor="end" dy="0.35em">300</text>
    <text x="18.63" y="52.11" text-anchor="end" dy="0.35em">400</text>
    <text x="18.63" y="32.36" text-anchor="end" dy="0.35em">500</text>
    <text x="18.63" y="12.61" text-anchor="end" dy="0.35em">600</text>
  </g>
  <g font-size="3.88" font-family="'PT Sans','Helvetica Neue','Helvetica',sans-serif" fill="#000000" stroke="#000000" stroke-opacity="0.000" id="img-ec1aff06-21">
    <text x="8.81" y="69.86" text-anchor="middle" dy="0.35em" transform="rotate(-90, 8.81, 71.86)">population number</text>
  </g>
  <g font-size="3.88" font-family="'PT Sans','Helvetica Neue','Helvetica',sans-serif" fill="#000000" stroke="#000000" stroke-opacity="0.000" id="img-ec1aff06-22">
    <text x="108.92" y="5" text-anchor="middle" dy="0.6em">genetic drift</text>
  </g>
</g>
<defs>
  <clipPath id="img-ec1aff06-4">
  <path d="M19.63,10.61 L 198.2 10.61 198.2 133.11 19.63 133.11" />
</clipPath>
</defs>
</svg>
