<?xml version="1.0" encoding="UTF-8"?>
<svg xmlns="http://www.w3.org/2000/svg"
     xmlns:xlink="http://www.w3.org/1999/xlink"
     xmlns:gadfly="http://www.gadflyjl.org/ns"
     version="1.2"
     width="203.2mm" height="152.4mm" viewBox="0 0 203.2 152.4"
     stroke="none"
     fill="#000000"
     stroke-width="0.3"
     font-size="3.88"
>
<g class="plotroot xscalable yscalable" id="img-a0d83763-1">
  <g font-size="3.88" font-family="'PT Sans','Helvetica Neue','Helvetica',sans-serif" fill="#000000" stroke="#000000" stroke-opacity="0.000" id="img-a0d83763-2">
    <text x="108.92" y="140.79" text-anchor="middle" dy="0.6em">generation number</text>
  </g>
  <g class="guide xlabels" font-size="2.82" font-family="'PT Sans Caption','Helvetica Neue','Helvetica',sans-serif" fill="#000000" id="img-a0d83763-3">
    <text x="21.63" y="134.11" text-anchor="middle" dy="0.6em">0</text>
    <text x="56.55" y="134.11" text-anchor="middle" dy="0.6em">100</text>
    <text x="91.46" y="134.11" text-anchor="middle" dy="0.6em">200</text>
    <text x="126.37" y="134.11" text-anchor="middle" dy="0.6em">300</text>
    <text x="161.29" y="134.11" text-anchor="middle" dy="0.6em">400</text>
    <text x="196.2" y="134.11" text-anchor="middle" dy="0.6em">500</text>
  </g>
<g clip-path="url(#img-a0d83763-4)">
  <g id="img-a0d83763-5">
    <g pointer-events="visible" opacity="1" fill="#FFFFFF" stroke="#000000" stroke-opacity="0.000" class="guide background" id="img-a0d83763-6">
      <rect x="19.63" y="10.61" width="178.57" height="122.5"/>
    </g>
    <g class="guide ygridlines xfixed" stroke-dasharray="0.5,0.5" stroke-width="0.2" stroke="#808080" id="img-a0d83763-7">
      <path fill="none" d="M19.63,131.11 L 198.2 131.11"/>
      <path fill="none" d="M19.63,107.41 L 198.2 107.41"/>
      <path fill="none" d="M19.63,83.71 L 198.2 83.71"/>
      <path fill="none" d="M19.63,60.01 L 198.2 60.01"/>
      <path fill="none" d="M19.63,36.31 L 198.2 36.31"/>
      <path fill="none" d="M19.63,12.61 L 198.2 12.61"/>
    </g>
    <g class="guide xgridlines yfixed" stroke-dasharray="0.5,0.5" stroke-width="0.2" stroke="#808080" id="img-a0d83763-8">
      <path fill="none" d="M21.63,10.61 L 21.63 133.11"/>
      <path fill="none" d="M56.55,10.61 L 56.55 133.11"/>
      <path fill="none" d="M91.46,10.61 L 91.46 133.11"/>
      <path fill="none" d="M126.37,10.61 L 126.37 133.11"/>
      <path fill="none" d="M161.29,10.61 L 161.29 133.11"/>
      <path fill="none" d="M196.2,10.61 L 196.2 133.11"/>
    </g>
    <g class="plotpanel" id="img-a0d83763-9">
      <g stroke-width="0.3" fill="#000000" fill-opacity="0.000" class="geometry" stroke-dasharray="none" stroke="#3288BD" id="img-a0d83763-10">
        <path fill="none" d="M21.98,71.86 L 22.33 74 22.68 69.26 23.03 68.31 23.38 73.29 23.73 74.71 24.08 70.2 24.42 72.1 24.77 68.55 25.12 75.42 25.47 74.71 25.82 74.71 26.17 76.13 26.52 71.39 26.87 68.78 27.22 70.2 27.57 73.52 27.92 72.1 28.27 68.31 28.61 67.12 28.96 63.09 29.31 64.04 29.66 65.94 30.01 68.55 30.36 67.6 30.71 65.46 31.06 64.99 31.41 66.65 31.76 67.12 32.11 64.04 32.45 64.52 32.8 65.7 33.15 62.15 33.5 61.44 33.85 62.38 34.2 60.96 34.55 60.72 34.9 63.57 35.25 63.57 35.6 66.41 35.95 72.34 36.3 69.49 36.64 74.23 36.99 74.71 37.34 78.5 37.69 79.92 38.04 80.63 38.39 77.08 38.74 81.11 39.09 86.08 39.44 88.45 39.79 88.22 40.14 91.06 40.49 92.01 40.83 92.72 41.18 94.85 41.53 94.38 41.88 99.83 42.23 101.02 42.58 100.3 42.93 100.54 43.28 100.07 43.63 97.22 43.98 97.22 44.33 99.83 44.67 102.2 45.02 101.96 45.37 99.12 45.72 96.28 46.07 97.7 46.42 95.09 46.77 91.77 47.12 92.01 47.47 92.48 47.82 95.56 48.17 96.04 48.52 93.43 48.86 95.33 49.21 99.12 49.56 99.12 49.91 97.7 50.26 97.93 50.61 91.3 50.96 90.59 51.31 90.35 51.66 91.06 52.01 91.3 52.36 92.01 52.7 90.35 53.05 88.69 53.4 84.66 53.75 86.08 54.1 88.93 54.45 87.74 54.8 89.16 55.15 89.4 55.5 90.59 55.85 93.67 56.2 92.01 56.55 90.82 56.89 94.38 57.24 90.11 57.59 91.3 57.94 89.88 58.29 91.3 58.64 89.88 58.99 94.14 59.34 97.22 59.69 95.56 60.04 98.65 60.39 100.54 60.73 98.65 61.08 97.22 61.43 94.62 61.78 95.8 62.13 94.14 62.48 94.62 62.83 89.88 63.18 91.06 63.53 89.64 63.88 86.56 64.23 91.3 64.58 95.56 64.92 91.06 65.27 93.67 65.62 91.77 65.97 92.48 66.32 92.72 66.67 97.93 67.02 101.25 67.37 105.28 67.72 103.15 68.07 104.33 68.42 108.84 68.77 108.13 69.11 106.23 69.46 104.81 69.81 105.52 70.16 106.94 70.51 103.15 70.86 102.91 71.21 102.2 71.56 104.1 71.91 102.67 72.26 103.62 72.61 103.15 72.95 102.2 73.3 101.02 73.65 98.88 74 97.93 74.35 99.59 74.7 100.07 75.05 101.25 75.4 102.91 75.75 102.67 76.1 104.81 76.45 103.86 76.8 105.52 77.14 108.13 77.49 107.65 77.84 104.33 78.19 101.02 78.54 103.62 78.89 101.49 79.24 98.17 79.59 96.28 79.94 93.9 80.29 95.09 80.64 95.33 80.98 95.09 81.33 99.83 81.68 97.93 82.03 101.96 82.38 99.36 82.73 96.28 83.08 101.96 83.43 102.44 83.78 99.83 84.13 105.04 84.48 100.78 84.83 103.62 85.17 104.33 85.52 103.86 85.87 106.23 86.22 108.6 86.57 108.6 86.92 110.26 87.27 109.55 87.62 109.31 87.97 109.07 88.32 111.21 88.67 110.73 89.02 113.81 89.36 112.63 89.71 113.58 90.06 115 90.41 118.32 90.76 118.08 91.11 119.03 91.46 120.92 91.81 121.16 92.16 118.79 92.51 119.26 92.86 120.92 93.2 120.69 93.55 123.77 93.9 125.43 94.25 126.85 94.6 127.09 94.95 128.98 95.3 129.69 95.65 130.17 96 130.4 96.35 130.64 96.7 130.4 97.05 130.88 97.39 131.11"/>
      </g>
      <g stroke-width="0.3" fill="#000000" fill-opacity="0.000" class="geometry" stroke-dasharray="none" stroke="#66C2A5" id="img-a0d83763-11">
        <path fill="none" d="M21.98,71.86 L 22.33 74.47 22.68 73.52 23.03 76.84 23.38 74.23 23.73 72.57 24.08 71.15 24.42 72.57 24.77 73.29 25.12 78.26 25.47 79.92 25.82 79.92 26.17 79.45 26.52 79.21 26.87 82.53 27.22 83 27.57 78.97 27.92 78.03 28.27 74.23 28.61 74 28.96 68.55 29.31 67.6 29.66 69.26 30.01 70.2 30.36 69.97 30.71 67.12 31.06 68.55 31.41 67.12 31.76 69.02 32.11 70.44 32.45 76.37 32.8 72.34 33.15 74 33.5 69.97 33.85 70.92 34.2 72.1 34.55 69.73 34.9 69.02 35.25 66.41 35.6 67.12 35.95 64.52 36.3 64.04 36.64 65.23 36.99 65.23 37.34 60.49 37.69 57.41 38.04 60.49 38.39 60.72 38.74 61.2 39.09 64.52 39.44 62.86 39.79 63.09 40.14 65.23 40.49 68.07 40.83 69.26 41.18 74.94 41.53 78.74 41.88 78.97 42.23 78.74 42.58 76.6 42.93 78.03 43.28 78.5 43.63 78.5 43.98 75.18 44.33 76.84 44.67 75.42 45.02 75.89 45.37 74.47 45.72 69.49 46.07 69.26 46.42 69.97 46.77 67.36 47.12 63.81 47.47 63.81 47.82 64.99 48.17 67.83 48.52 65.23 48.86 71.39 49.21 71.15 49.56 72.81 49.91 74.94 50.26 75.66 50.61 79.21 50.96 77.55 51.31 78.03 51.66 80.4 52.01 82.53 52.36 88.45 52.7 86.79 53.05 87.74 53.4 84.9 53.75 84.9 54.1 86.32 54.45 87.98 54.8 84.9 55.15 84.66 55.5 84.19 55.85 82.77 56.2 78.5 56.55 75.89 56.89 73.76 57.24 73.76 57.59 72.81 57.94 70.2 58.29 74.23 58.64 69.26 58.99 69.49 59.34 69.73 59.69 67.12 60.04 69.73 60.39 69.26 60.73 72.81 61.08 75.18 61.43 73.05 61.78 75.42 62.13 74.23 62.48 73.05 62.83 75.18 63.18 76.13 63.53 78.26 63.88 78.5 64.23 75.42 64.58 78.03 64.92 76.13 65.27 77.79 65.62 76.13 65.97 74.94 66.32 72.57 66.67 72.1 67.02 67.12 67.37 64.28 67.72 66.89 68.07 66.18 68.42 68.78 68.77 69.02 69.11 67.12 69.46 73.29 69.81 71.86 70.16 69.97 70.51 69.02 70.86 69.02 71.21 68.31 71.56 69.02 71.91 69.26 72.26 68.55 72.61 59.78 72.95 59.06 73.3 55.04 73.65 52.67 74 54.56 74.35 58.35 74.7 58.35 75.05 63.81 75.4 65.46 75.75 64.52 76.1 65.7 76.45 63.81 76.8 64.52 77.14 61.44 77.49 57.64 77.84 55.51 78.19 50.77 78.54 49.58 78.89 55.27 79.24 55.27 79.59 58.59 79.94 57.41 80.29 58.83 80.64 59.3 80.98 56.46 81.33 56.93 81.68 58.12 82.03 60.25 82.38 65.7 82.73 68.31 83.08 68.07 83.43 69.73 83.78 73.29 84.13 71.63 84.48 71.86 84.83 72.34 85.17 69.49 85.52 66.41 85.87 63.57 86.22 62.38 86.57 59.3 86.92 60.01 87.27 61.67 87.62 61.44 87.97 63.09 88.32 64.04 88.67 64.99 89.02 63.33 89.36 59.54 89.71 57.17 90.06 53.85 90.41 55.27 90.76 51.01 91.11 51.01 91.46 48.87 91.81 51.72 92.16 50.53 92.51 53.14 92.86 55.27 93.2 58.83 93.55 64.52 93.9 67.6 94.25 64.04 94.6 68.07 94.95 70.44 95.3 70.92 95.65 72.57 96 74.71 96.35 69.02 96.7 66.89 97.05 66.89 97.39 64.04 97.74 61.67 98.09 59.78 98.44 59.3 98.79 60.72 99.14 57.41 99.49 58.59 99.84 59.78 100.19 63.57 100.54 66.41 100.89 69.02 101.23 66.41 101.58 68.55 101.93 69.49 102.28 71.39 102.63 69.02 102.98 70.68 103.33 74.71 103.68 78.03 104.03 75.42 104.38 71.63 104.73 72.81 105.08 73.76 105.42 78.03 105.77 74.47 106.12 70.2 106.47 66.89 106.82 69.73 107.17 72.57 107.52 72.57 107.87 73.29 108.22 75.18 108.57 75.66 108.92 74.47 109.26 74 109.61 74.71 109.96 72.81 110.31 69.26 110.66 66.65 111.01 68.55 111.36 65.7 111.71 65.94 112.06 70.44 112.41 72.57 112.76 69.02 113.11 72.1 113.45 77.31 113.8 78.03 114.15 77.31 114.5 74.71 114.85 68.78 115.2 66.41 115.55 64.28 115.9 64.99 116.25 68.31 116.6 64.99 116.95 66.18 117.3 61.2 117.64 61.44 117.99 66.41 118.34 66.41 118.69 69.73 119.04 72.57 119.39 78.74 119.74 79.92 120.09 78.97 120.44 77.55 120.79 78.26 121.14 81.58 121.48 82.77 121.83 83 122.18 85.61 122.53 84.19 122.88 83.71 123.23 83.24 123.58 80.63 123.93 84.42 124.28 87.03 124.63 94.14 124.98 89.88 125.33 94.62 125.67 96.28 126.02 98.65 126.37 99.83 126.72 98.17 127.07 98.17 127.42 96.99 127.77 96.51 128.12 101.25 128.47 98.65 128.82 99.36 129.17 97.46 129.51 100.07 129.86 98.17 130.21 100.3 130.56 96.99 130.91 97.7 131.26 101.49 131.61 103.86 131.96 102.91 132.31 100.78 132.66 98.17 133.01 98.88 133.36 101.02 133.7 102.67 134.05 100.54 134.4 97.93 134.75 89.88 135.1 91.77 135.45 88.69 135.8 90.11 136.15 91.3 136.5 91.77 136.85 91.06 137.2 91.06 137.55 86.32 137.89 83.24 138.24 86.79 138.59 88.93 138.94 89.4 139.29 91.06 139.64 91.3 139.99 88.93 140.34 89.4 140.69 88.45 141.04 88.93 141.39 88.93 141.73 85.61 142.08 83.71 142.43 82.05 142.78 80.16 143.13 83.24 143.48 87.03 143.83 82.53 144.18 83.24 144.53 86.56 144.88 81.82 145.23 86.56 145.58 87.27 145.92 88.69 146.27 90.35 146.62 89.4 146.97 88.45 147.32 87.98 147.67 90.11 148.02 91.77 148.37 95.09 148.72 96.28 149.07 100.54 149.42 96.99 149.76 96.28 150.11 93.43 150.46 90.59 150.81 91.53 151.16 92.72 151.51 90.82 151.86 94.85 152.21 95.09 152.56 92.25 152.91 96.28 153.26 95.8 153.61 94.62 153.95 93.43 154.3 90.59 154.65 89.64 155 89.4 155.35 91.3 155.7 91.53 156.05 93.19 156.4 92.25 156.75 92.01 157.1 89.4 157.45 89.4 157.79 92.25 158.14 96.75 158.49 96.04 158.84 95.8 159.19 95.09 159.54 97.93 159.89 98.17 160.24 97.22 160.59 97.7 160.94 98.88 161.29 100.3 161.64 99.83 161.98 97.22 162.33 97.7 162.68 97.7 163.03 101.49 163.38 99.36 163.73 101.49 164.08 101.25 164.43 101.73 164.78 104.1 165.13 105.52 165.48 107.18 165.83 112.87 166.17 112.87 166.52 111.68 166.87 110.73 167.22 109.07 167.57 109.55 167.92 108.6 168.27 107.18 168.62 109.55 168.97 112.39 169.32 109.55 169.67 106.7 170.01 105.52 170.36 105.04 170.71 107.41 171.06 108.13 171.41 109.31 171.76 110.73 172.11 115.71 172.46 118.32 172.81 119.74 173.16 119.26 173.51 119.74 173.86 121.87 174.2 116.89 174.55 116.66 174.9 118.79 175.25 119.98 175.6 119.5 175.95 119.03 176.3 120.21 176.65 122.35 177 124.72 177.35 124 177.7 125.19 178.04 126.14 178.39 126.14 178.74 126.14 179.09 126.85 179.44 126.37 179.79 126.37 180.14 127.09 180.49 127.56 180.84 127.09 181.19 124.95 181.54 125.43 181.89 125.19 182.23 128.27 182.58 128.03 182.93 128.03 183.28 127.32 183.63 128.74 183.98 128.27 184.33 127.56 184.68 127.32 185.03 126.61 185.38 125.9 185.73 128.03 186.08 128.27 186.42 128.74 186.77 127.09 187.12 127.32 187.47 126.37 187.82 126.61 188.17 124.95 188.52 124.72 188.87 123.77 189.22 125.19 189.57 124.95 189.92 122.11 190.26 124 190.61 125.66 190.96 125.9 191.31 126.85 191.66 128.03 192.01 127.8 192.36 124.95 192.71 123.77 193.06 123.53 193.41 124.48 193.76 124.72 194.11 124.48 194.45 127.09 194.8 128.74 195.15 130.17 195.5 130.64 195.85 130.88 196.2 130.64"/>
      </g>
      <g stroke-width="0.3" fill="#000000" fill-opacity="0.000" class="geometry" stroke-dasharray="none" stroke="#ABDDA4" id="img-a0d83763-12">
        <path fill="none" d="M21.98,71.86 L 22.33 74.94 22.68 74 23.03 70.2 23.38 67.83 23.73 65.23 24.08 65.7 24.42 64.28 24.77 65.7 25.12 69.49 25.47 69.97 25.82 74.71 26.17 77.31 26.52 74.71 26.87 74.71 27.22 76.37 27.57 77.55 27.92 76.6 28.27 78.5 28.61 80.63 28.96 78.97 29.31 79.68 29.66 77.55 30.01 74.47 30.36 73.52 30.71 75.66 31.06 74.71 31.41 72.34 31.76 68.07 32.11 69.02 32.45 69.02 32.8 70.2 33.15 66.18 33.5 66.65 33.85 66.18 34.2 66.18 34.55 67.36 34.9 68.55 35.25 65.94 35.6 66.41 35.95 64.04 36.3 69.02 36.64 70.68 36.99 67.12 37.34 69.02 37.69 67.12 38.04 66.18 38.39 65.46 38.74 69.73 39.09 64.52 39.44 65.23 39.79 69.49 40.14 71.63 40.49 69.49 40.83 69.97 41.18 73.29 41.53 72.1 41.88 70.2 42.23 70.44 42.58 73.52 42.93 74 43.28 71.63 43.63 74.47 43.98 73.05 44.33 71.86 44.67 71.63 45.02 75.18 45.37 73.76 45.72 75.89 46.07 74.71 46.42 73.29 46.77 70.92 47.12 73.29 47.47 73.29 47.82 74.23 48.17 74.94 48.52 73.76 48.86 76.6 49.21 77.08 49.56 78.5 49.91 81.34 50.26 86.08 50.61 83 50.96 84.66 51.31 86.56 51.66 84.9 52.01 86.79 52.36 79.21 52.7 78.74 53.05 78.26 53.4 75.42 53.75 75.42 54.1 78.26 54.45 79.68 54.8 80.87 55.15 83 55.5 80.63 55.85 83.71 56.2 88.22 56.55 87.27 56.89 86.56 57.24 87.03 57.59 88.45 57.94 86.32 58.29 84.19 58.64 87.03 58.99 81.82 59.34 85.85 59.69 83.95 60.04 82.29 60.39 83.48 60.73 79.45 61.08 76.6 61.43 75.42 61.78 79.92 62.13 81.11 62.48 80.87 62.83 80.63 63.18 83.95 63.53 86.08 63.88 86.08 64.23 84.19 64.58 79.68 64.92 74.71 65.27 69.26 65.62 63.33 65.97 57.88 66.32 57.88 66.67 54.32 67.02 55.75 67.37 52.43 67.72 55.75 68.07 52.43 68.42 55.27 68.77 52.9 69.11 51.48 69.46 55.98 69.81 55.75 70.16 53.85 70.51 55.04 70.86 52.9 71.21 48.64 71.56 49.35 71.91 50.77 72.26 49.35 72.61 51.48 72.95 51.01 73.3 51.01 73.65 49.35 74 47.45 74.35 46.74 74.7 41.29 75.05 42.47 75.4 38.92 75.75 37.5 76.1 36.79 76.45 37.97 76.8 40.34 77.14 42.47 77.49 38.92 77.84 34.42 78.19 35.13 78.54 35.36 78.89 32.28 79.24 33.23 79.59 38.92 79.94 38.45 80.29 37.02 80.64 36.31 80.98 36.31 81.33 36.55 81.68 35.84 82.03 34.89 82.38 35.36 82.73 36.55 83.08 37.73 83.43 38.21 83.78 39.16 84.13 41.05 84.48 43.42 84.83 41.29 85.17 37.73 85.52 35.84 85.87 33.94 86.22 33.71 86.57 36.79 86.92 37.5 87.27 40.58 87.62 40.1 87.97 40.1 88.32 42.95 88.67 41.76 89.02 43.42 89.36 45.56 89.71 44.37 90.06 45.79 90.41 44.84 90.76 47.45 91.11 42.71 91.46 41.76 91.81 46.03 92.16 46.74 92.51 49.11 92.86 46.5 93.2 46.74 93.55 51.24 93.9 49.35 94.25 46.74 94.6 51.24 94.95 53.61 95.3 55.51 95.65 55.27 96 57.88 96.35 54.8 96.7 58.12 97.05 58.83 97.39 58.59 97.74 59.3 98.09 60.25 98.44 63.09 98.79 63.57 99.14 66.65 99.49 69.97 99.84 68.78 100.19 68.78 100.54 67.83 100.89 64.04 101.23 64.99 101.58 60.96 101.93 57.41 102.28 55.75 102.63 58.12 102.98 58.59 103.33 54.32 103.68 57.17 104.03 60.96 104.38 60.72 104.73 56.93 105.08 63.57 105.42 66.41 105.77 62.38 106.12 65.7 106.47 63.09 106.82 66.65 107.17 63.81 107.52 68.07 107.87 64.75 108.22 64.52 108.57 64.04 108.92 64.75 109.26 66.65 109.61 67.12 109.96 64.28 110.31 63.33 110.66 65.94 111.01 60.96 111.36 57.17 111.71 54.09 112.06 51.95 112.41 55.27 112.76 52.43 113.11 49.11 113.45 49.35 113.8 49.58 114.15 50.3 114.5 45.56 114.85 46.03 115.2 48.16 115.55 45.32 115.9 41.29 116.25 41.76 116.6 41.76 116.95 39.39 117.3 38.92 117.64 35.84 117.99 33.23 118.34 32.05 118.69 31.34 119.04 30.39 119.39 25.88 119.74 29.2 120.09 23.75 120.44 25.88 120.79 27.31 121.14 26.36 121.48 25.88 121.83 28.02 122.18 28.73 122.53 27.54 122.88 28.97 123.23 32.05 123.58 34.89 123.93 36.08 124.28 37.97 124.63 37.26 124.98 37.26 125.33 34.89 125.67 36.08 126.02 38.21 126.37 39.63 126.72 38.45 127.07 37.73 127.42 37.97 127.77 39.39 128.12 40.34 128.47 41.29 128.82 41.29 129.17 44.37 129.51 46.98 129.86 48.16 130.21 48.4 130.56 47.69 130.91 48.16 131.26 45.79 131.61 44.61 131.96 45.08 132.31 47.69 132.66 50.77 133.01 49.82 133.36 47.69 133.7 46.03 134.05 44.37 134.4 41.05 134.75 46.03 135.1 46.03 135.45 44.61 135.8 42.71 136.15 38.68 136.5 33.47 136.85 33.71 137.2 35.6 137.55 34.65 137.89 34.18 138.24 36.31 138.59 36.79 138.94 36.31 139.29 36.31 139.64 37.97 139.99 37.02 140.34 35.13 140.69 36.08 141.04 33.23 141.39 35.13 141.73 38.68 142.08 40.1 142.43 39.87 142.78 38.92 143.13 36.08 143.48 39.16 143.83 40.82 144.18 43.19 144.53 41.76 144.88 40.34 145.23 40.1 145.58 39.63 145.92 41.05 146.27 41.29 146.62 42.47 146.97 46.98 147.32 50.3 147.67 51.24 148.02 46.5 148.37 43.19 148.72 42.95 149.07 44.13 149.42 43.9 149.76 46.27 150.11 46.03 150.46 44.84 150.81 46.27 151.16 46.5 151.51 46.98 151.86 47.69 152.21 44.84 152.56 46.74 152.91 46.27 153.26 51.01 153.61 50.77 153.95 51.95 154.3 50.06 154.65 55.51 155 52.67 155.35 52.43 155.7 50.77 156.05 52.9 156.4 57.64 156.75 55.75 157.1 54.56 157.45 54.32 157.79 52.19 158.14 49.58 158.49 51.95 158.84 55.98 159.19 56.22 159.54 55.98 159.89 56.69 160.24 53.61 160.59 54.56 160.94 53.61 161.29 53.85 161.64 56.93 161.98 53.38 162.33 56.69 162.68 57.17 163.03 53.14 163.38 53.14 163.73 52.9 164.08 52.43 164.43 53.61 164.78 54.8 165.13 55.27 165.48 56.22 165.83 51.24 166.17 54.09 166.52 56.22 166.87 60.25 167.22 61.91 167.57 60.25 167.92 59.78 168.27 57.88 168.62 56.69 168.97 59.06 169.32 56.46 169.67 59.3 170.01 56.69 170.36 59.78 170.71 64.75 171.06 64.52 171.41 63.09 171.76 63.33 172.11 60.96 172.46 61.44 172.81 62.38 173.16 57.41 173.51 51.24 173.86 54.32 174.2 55.27 174.55 51.48 174.9 47.21 175.25 46.03 175.6 48.87 175.95 49.58 176.3 52.43 176.65 53.38 177 54.09 177.35 55.27 177.7 58.12 178.04 57.17 178.39 56.93 178.74 57.64 179.09 55.04 179.44 53.14 179.79 52.9 180.14 48.16 180.49 44.84 180.84 42 181.19 45.32 181.54 46.27 181.89 47.21 182.23 51.01 182.58 50.06 182.93 45.79 183.28 50.77 183.63 51.95 183.98 51.72 184.33 52.43 184.68 53.38 185.03 57.17 185.38 56.46 185.73 59.78 186.08 56.22 186.42 53.61 186.77 53.85 187.12 54.09 187.47 55.04 187.82 56.46 188.17 60.25 188.52 60.72 188.87 60.49 189.22 61.91 189.57 60.01 189.92 59.54 190.26 58.83 190.61 60.25 190.96 59.54 191.31 59.78 191.66 61.67 192.01 60.49 192.36 60.01 192.71 63.09 193.06 61.44 193.41 64.99 193.76 66.18 194.11 67.6 194.45 70.44 194.8 70.44 195.15 72.1 195.5 70.92 195.85 70.44 196.2 68.78"/>
      </g>
      <g stroke-width="0.3" fill="#000000" fill-opacity="0.000" class="geometry" stroke-dasharray="none" stroke="#E6F598" id="img-a0d83763-13">
        <path fill="none" d="M21.98,71.86 L 22.33 70.2 22.68 71.39 23.03 76.6 23.38 77.79 23.73 81.58 24.08 78.74 24.42 72.81 24.77 75.18 25.12 73.76 25.47 77.55 25.82 81.34 26.17 84.9 26.52 87.51 26.87 89.88 27.22 91.06 27.57 95.09 27.92 93.67 28.27 95.09 28.61 95.56 28.96 99.59 29.31 100.3 29.66 95.09 30.01 90.82 30.36 88.93 30.71 91.3 31.06 92.72 31.41 91.06 31.76 91.53 32.11 93.19 32.45 91.3 32.8 91.53 33.15 89.16 33.5 95.33 33.85 94.62 34.2 93.67 34.55 93.9 34.9 93.9 35.25 96.04 35.6 98.17 35.95 98.17 36.3 97.22 36.64 96.51 36.99 94.62 37.34 95.09 37.69 94.14 38.04 94.14 38.39 94.85 38.74 93.43 39.09 90.82 39.44 88.45 39.79 85.85 40.14 85.61 40.49 84.66 40.83 85.14 41.18 80.63 41.53 77.55 41.88 74.47 42.23 78.26 42.58 77.31 42.93 81.82 43.28 81.82 43.63 76.84 43.98 79.68 44.33 83.95 44.67 86.32 45.02 87.98 45.37 89.64 45.72 89.16 46.07 88.69 46.42 82.29 46.77 84.66 47.12 86.56 47.47 87.98 47.82 90.82 48.17 89.88 48.52 89.88 48.86 90.82 49.21 93.67 49.56 94.38 49.91 94.38 50.26 90.59 50.61 91.77 50.96 89.4 51.31 89.88 51.66 92.25 52.01 94.85 52.36 95.09 52.7 95.33 53.05 95.8 53.4 96.75 53.75 93.67 54.1 96.04 54.45 93.9 54.8 93.9 55.15 95.09 55.5 98.88 55.85 95.8 56.2 93.9 56.55 97.22 56.89 96.99 57.24 96.99 57.59 97.46 57.94 100.3 58.29 101.02 58.64 100.54 58.99 102.2 59.34 102.91 59.69 105.99 60.04 105.76 60.39 108.6 60.73 110.5 61.08 110.73 61.43 109.07 61.78 110.5 62.13 106.23 62.48 104.81 62.83 104.57 63.18 104.1 63.53 103.15 63.88 101.96 64.23 101.25 64.58 101.02 64.92 104.33 65.27 101.96 65.62 103.39 65.97 103.62 66.32 102.91 66.67 100.3 67.02 101.73 67.37 104.57 67.72 101.02 68.07 101.73 68.42 97.93 68.77 98.65 69.11 92.48 69.46 92.01 69.81 93.9 70.16 97.7 70.51 97.22 70.86 100.78 71.21 100.07 71.56 101.25 71.91 104.33 72.26 106.94 72.61 108.84 72.95 108.6 73.3 107.65 73.65 103.62 74 106.23 74.35 103.86 74.7 101.96 75.05 97.22 75.4 97.22 75.75 91.06 76.1 93.19 76.45 90.82 76.8 89.88 77.14 87.27 77.49 90.59 77.84 88.93 78.19 89.64 78.54 85.61 78.89 85.37 79.24 87.51 79.59 85.61 79.94 88.93 80.29 89.4 80.64 88.69 80.98 84.42 81.33 81.82 81.68 82.53 82.03 84.66 82.38 83.48 82.73 83.71 83.08 80.4 83.43 78.5 83.78 79.68 84.13 76.13 84.48 77.31 84.83 74.71 85.17 77.79 85.52 74.47 85.87 74.23 86.22 75.42 86.57 77.55 86.92 82.05 87.27 88.93 87.62 86.32 87.97 87.27 88.32 86.08 88.67 86.79 89.02 86.08 89.36 91.53 89.71 89.16 90.06 84.42 90.41 87.74 90.76 84.66 91.11 83.71 91.46 82.77 91.81 85.37 92.16 90.35 92.51 87.98 92.86 86.32 93.2 89.64 93.55 87.74 93.9 89.88 94.25 87.74 94.6 87.51 94.95 85.37 95.3 89.88 95.65 87.03 96 89.16 96.35 87.98 96.7 85.14 97.05 88.93 97.39 90.11 97.74 89.64 98.09 90.35 98.44 89.16 98.79 89.16 99.14 85.85 99.49 88.93 99.84 92.01 100.19 96.75 100.54 97.93 100.89 96.99 101.23 94.85 101.58 95.8 101.93 96.75 102.28 94.38 102.63 92.72 102.98 92.25 103.33 90.11 103.68 93.43 104.03 93.9 104.38 92.25 104.73 95.8 105.08 96.51 105.42 95.8 105.77 94.14 106.12 94.62 106.47 95.56 106.82 96.51 107.17 97.22 107.52 98.65 107.87 96.75 108.22 95.09 108.57 92.25 108.92 87.03 109.26 91.53 109.61 90.82 109.96 93.19 110.31 92.72 110.66 89.88 111.01 91.06 111.36 88.45 111.71 88.69 112.06 86.32 112.41 86.32 112.76 90.35 113.11 90.59 113.45 91.06 113.8 95.8 114.15 96.04 114.5 95.33 114.85 96.51 115.2 95.56 115.55 95.33 115.9 96.28 116.25 94.85 116.6 100.07 116.95 98.41 117.3 96.28 117.64 93.67 117.99 90.82 118.34 85.85 118.69 91.77 119.04 92.96 119.39 93.43 119.74 92.25 120.09 94.85 120.44 93.67 120.79 94.62 121.14 93.43 121.48 87.98 121.83 90.82 122.18 94.85 122.53 96.99 122.88 96.99 123.23 96.99 123.58 96.75 123.93 98.41 124.28 102.67 124.63 99.36 124.98 99.36 125.33 100.07 125.67 99.59 126.02 100.3 126.37 97.7 126.72 94.85 127.07 92.48 127.42 92.01 127.77 90.82 128.12 87.98 128.47 84.19 128.82 84.9 129.17 88.45 129.51 88.93 129.86 83 130.21 79.68 130.56 77.79 130.91 77.79 131.26 80.87 131.61 75.42 131.96 72.57 132.31 73.52 132.66 79.92 133.01 78.5 133.36 80.4 133.7 79.92 134.05 79.68 134.4 81.58 134.75 84.66 135.1 83.71 135.45 87.98 135.8 86.79 136.15 82.53 136.5 80.16 136.85 80.16 137.2 79.45 137.55 80.63 137.89 78.26 138.24 78.26 138.59 77.08 138.94 80.63 139.29 81.11 139.64 81.82 139.99 84.66 140.34 83.48 140.69 83 141.04 86.32 141.39 88.22 141.73 89.4 142.08 86.32 142.43 87.98 142.78 87.51 143.13 91.3 143.48 90.59 143.83 92.01 144.18 90.59 144.53 92.48 144.88 92.96 145.23 92.25 145.58 91.3 145.92 87.51 146.27 88.69 146.62 86.56 146.97 91.53 147.32 89.16 147.67 88.22 148.02 90.35 148.37 92.25 148.72 93.43 149.07 92.01 149.42 93.67 149.76 94.62 150.11 92.96 150.46 94.38 150.81 93.67 151.16 95.09 151.51 92.48 151.86 91.53 152.21 90.82 152.56 91.53 152.91 90.82 153.26 86.08 153.61 81.58 153.95 82.77 154.3 82.77 154.65 80.87 155 77.31 155.35 78.26 155.7 79.68 156.05 76.84 156.4 80.4 156.75 79.45 157.1 77.79 157.45 77.55 157.79 74.94 158.14 71.39 158.49 70.2 158.84 71.15 159.19 72.57 159.54 74 159.89 73.76 160.24 75.18 160.59 74.71 160.94 78.03 161.29 79.68 161.64 79.92 161.98 78.97 162.33 78.97 162.68 75.42 163.03 75.18 163.38 73.76 163.73 70.44 164.08 70.92 164.43 67.12 164.78 71.15 165.13 73.29 165.48 73.76 165.83 70.68 166.17 70.92 166.52 70.92 166.87 73.52 167.22 77.08 167.57 76.84 167.92 83.24 168.27 78.5 168.62 75.89 168.97 76.13 169.32 73.52 169.67 73.05 170.01 68.31 170.36 66.65 170.71 64.99 171.06 64.04 171.41 63.81 171.76 59.06 172.11 58.12 172.46 58.83 172.81 57.17 173.16 56.22 173.51 53.14 173.86 51.48 174.2 52.43 174.55 51.24 174.9 52.43 175.25 54.32 175.6 55.75 175.95 60.96 176.3 60.25 176.65 61.67 177 59.06 177.35 57.64 177.7 62.15 178.04 60.25 178.39 64.04 178.74 65.94 179.09 66.18 179.44 68.07 179.79 65.46 180.14 64.99 180.49 64.75 180.84 66.89 181.19 69.02 181.54 68.78 181.89 74 182.23 71.15 182.58 73.76 182.93 73.05 183.28 68.55 183.63 70.92 183.98 70.2 184.33 74.94 184.68 78.74 185.03 81.11 185.38 79.92 185.73 77.31 186.08 74.71 186.42 73.29 186.77 75.89 187.12 74 187.47 72.1 187.82 73.52 188.17 73.05 188.52 72.57 188.87 65.23 189.22 63.09 189.57 63.09 189.92 64.28 190.26 68.31 190.61 66.65 190.96 65.46 191.31 64.04 191.66 64.99 192.01 63.09 192.36 63.33 192.71 63.81 193.06 67.12 193.41 65.7 193.76 72.34 194.11 73.29 194.45 70.44 194.8 72.57 195.15 72.57 195.5 72.1 195.85 72.34 196.2 73.05"/>
      </g>
      <g stroke-width="0.3" fill="#000000" fill-opacity="0.000" class="geometry" stroke-dasharray="none" stroke="#FFFFBF" id="img-a0d83763-14">
        <path fill="none" d="M21.98,71.86 L 22.33 72.57 22.68 74.71 23.03 74 23.38 76.13 23.73 77.08 24.08 82.77 24.42 78.5 24.77 75.18 25.12 76.13 25.47 75.18 25.82 76.6 26.17 72.57 26.52 75.89 26.87 77.79 27.22 78.26 27.57 75.66 27.92 75.89 28.27 72.81 28.61 70.2 28.96 74.94 29.31 72.34 29.66 72.1 30.01 73.52 30.36 77.55 30.71 79.68 31.06 84.42 31.41 86.08 31.76 83.71 32.11 84.42 32.45 85.61 32.8 84.42 33.15 87.03 33.5 81.11 33.85 79.92 34.2 80.4 34.55 78.26 34.9 71.63 35.25 71.15 35.6 67.83 35.95 73.76 36.3 69.73 36.64 68.07 36.99 69.73 37.34 71.63 37.69 71.15 38.04 74.47 38.39 77.08 38.74 76.84 39.09 77.08 39.44 76.37 39.79 77.31 40.14 77.08 40.49 74.94 40.83 72.34 41.18 69.02 41.53 65.7 41.88 59.06 42.23 61.91 42.58 62.86 42.93 61.91 43.28 58.35 43.63 58.12 43.98 60.96 44.33 62.38 44.67 60.25 45.02 61.91 45.37 61.2 45.72 57.64 46.07 59.3 46.42 58.83 46.77 59.78 47.12 60.96 47.47 61.91 47.82 62.86 48.17 62.62 48.52 60.25 48.86 54.56 49.21 52.9 49.56 45.79 49.91 45.32 50.26 44.37 50.61 44.61 50.96 44.13 51.31 44.13 51.66 45.79 52.01 50.53 52.36 48.87 52.7 49.35 53.05 48.4 53.4 51.01 53.75 48.4 54.1 44.61 54.45 46.74 54.8 42.95 55.15 41.29 55.5 41.76 55.85 40.82 56.2 41.76 56.55 42 56.89 43.42 57.24 45.32 57.59 43.66 57.94 42.71 58.29 43.42 58.64 41.05 58.99 41.53 59.34 42.24 59.69 41.76 60.04 41.29 60.39 41.29 60.73 40.1 61.08 40.58 61.43 38.92 61.78 37.26 62.13 42.47 62.48 41.29 62.83 42.95 63.18 45.08 63.53 41.53 63.88 41.53 64.23 40.58 64.58 37.73 64.92 39.87 65.27 42 65.62 41.53 65.97 46.98 66.32 44.61 66.67 41.29 67.02 40.1 67.37 41.29 67.72 41.29 68.07 42.95 68.42 44.61 68.77 43.19 69.11 47.21 69.46 46.98 69.81 45.79 70.16 47.21 70.51 52.19 70.86 53.38 71.21 59.78 71.56 60.49 71.91 59.06 72.26 59.54 72.61 54.09 72.95 55.98 73.3 55.51 73.65 55.51 74 56.46 74.35 55.98 74.7 59.06 75.05 59.54 75.4 63.09 75.75 63.33 76.1 61.91 76.45 60.49 76.8 60.96 77.14 59.54 77.49 66.18 77.84 62.86 78.19 62.86 78.54 62.15 78.89 62.15 79.24 66.65 79.59 63.33 79.94 64.04 80.29 61.44 80.64 59.78 80.98 56.22 81.33 51.95 81.68 55.04 82.03 56.46 82.38 61.67 82.73 62.86 83.08 63.81 83.43 65.94 83.78 67.12 84.13 65.7 84.48 65.23 84.83 66.41 85.17 66.41 85.52 70.44 85.87 71.15 86.22 72.1 86.57 71.39 86.92 72.1 87.27 74 87.62 79.92 87.97 78.74 88.32 78.26 88.67 82.29 89.02 85.85 89.36 89.16 89.71 90.82 90.06 92.25 90.41 89.64 90.76 93.43 91.11 91.53 91.46 89.16 91.81 90.82 92.16 89.64 92.51 92.72 92.86 88.45 93.2 82.77 93.55 82.05 93.9 84.42 94.25 84.9 94.6 82.29 94.95 82.05 95.3 85.37 95.65 87.74 96 88.22 96.35 87.27 96.7 87.74 97.05 89.16 97.39 92.72 97.74 92.25 98.09 90.11 98.44 91.3 98.79 95.56 99.14 92.25 99.49 92.25 99.84 90.82 100.19 93.19 100.54 92.96 100.89 96.99 101.23 98.65 101.58 99.59 101.93 99.83 102.28 98.17 102.63 96.75 102.98 97.46 103.33 97.7 103.68 93.67 104.03 94.62 104.38 98.17 104.73 99.36 105.08 97.22 105.42 96.75 105.77 98.41 106.12 98.17 106.47 97.46 106.82 100.3 107.17 101.73 107.52 100.3 107.87 96.99 108.22 97.46 108.57 101.25 108.92 104.1 109.26 104.81 109.61 106.47 109.96 106.7 110.31 108.13 110.66 106.47 111.01 105.99 111.36 107.65 111.71 104.81 112.06 105.28 112.41 101.96 112.76 99.59 113.11 97.22 113.45 98.41 113.8 99.83 114.15 103.15 114.5 103.86 114.85 103.15 115.2 103.39 115.55 106.23 115.9 108.6 116.25 106.47 116.6 109.07 116.95 108.6 117.3 108.84 117.64 109.78 117.99 111.44 118.34 115.24 118.69 111.44 119.04 109.55 119.39 110.02 119.74 111.92 120.09 112.87 120.44 111.92 120.79 112.39 121.14 112.87 121.48 109.78 121.83 108.13 122.18 109.07 122.53 106.94 122.88 110.97 123.23 112.63 123.58 113.34 123.93 110.26 124.28 110.02 124.63 113.34 124.98 115.71 125.33 114.76 125.67 115.47 126.02 114.76 126.37 113.58 126.72 112.87 127.07 113.1 127.42 112.87 127.77 113.34 128.12 112.87 128.47 114.76 128.82 114.05 129.17 120.21 129.51 120.45 129.86 119.5 130.21 119.5 130.56 116.42 130.91 116.42 131.26 115 131.61 115.71 131.96 117.13 132.31 119.5 132.66 121.63 133.01 123.06 133.36 122.58 133.7 123.06 134.05 121.87 134.4 123.29 134.75 124.72 135.1 123.77 135.45 126.14 135.8 126.37 136.15 125.66 136.5 126.61 136.85 125.9 137.2 127.32 137.55 127.8 137.89 128.74 138.24 129.46 138.59 129.46 138.94 130.17 139.29 131.11"/>
      </g>
      <g stroke-width="0.3" fill="#000000" fill-opacity="0.000" class="geometry" stroke-dasharray="none" stroke="#FEE08B" id="img-a0d83763-15">
        <path fill="none" d="M21.98,71.86 L 22.33 72.1 22.68 78.5 23.03 74.94 23.38 72.57 23.73 70.44 24.08 65.46 24.42 62.15 24.77 64.04 25.12 66.18 25.47 69.49 25.82 73.05 26.17 68.55 26.52 70.2 26.87 70.68 27.22 74.94 27.57 70.92 27.92 76.13 28.27 79.68 28.61 80.16 28.96 79.92 29.31 76.6 29.66 77.55 30.01 78.26 30.36 83.95 30.71 83.71 31.06 84.66 31.41 87.98 31.76 87.74 32.11 91.53 32.45 90.35 32.8 95.09 33.15 92.72 33.5 93.43 33.85 93.9 34.2 94.62 34.55 91.77 34.9 96.99 35.25 105.04 35.6 107.65 35.95 107.18 36.3 106.23 36.64 103.39 36.99 102.44 37.34 104.81 37.69 101.73 38.04 99.36 38.39 99.83 38.74 95.33 39.09 94.85 39.44 97.22 39.79 95.56 40.14 96.75 40.49 98.17 40.83 95.09 41.18 98.17 41.53 96.51 41.88 92.01 42.23 93.19 42.58 96.04 42.93 91.53 43.28 90.35 43.63 83.48 43.98 83.24 44.33 85.85 44.67 86.32 45.02 82.77 45.37 86.56 45.72 87.51 46.07 88.93 46.42 82.29 46.77 81.82 47.12 82.05 47.47 84.9 47.82 88.69 48.17 89.16 48.52 89.64 48.86 91.3 49.21 91.3 49.56 93.9 49.91 94.38 50.26 91.06 50.61 90.59 50.96 89.16 51.31 87.51 51.66 88.69 52.01 88.69 52.36 90.35 52.7 92.72 53.05 91.77 53.4 89.16 53.75 87.98 54.1 88.93 54.45 91.53 54.8 92.48 55.15 93.9 55.5 95.56 55.85 98.41 56.2 99.36 56.55 101.96 56.89 100.78 57.24 97.46 57.59 94.62 57.94 95.09 58.29 96.28 58.64 94.38 58.99 95.56 59.34 97.7 59.69 100.3 60.04 101.49 60.39 100.78 60.73 101.96 61.08 101.73 61.43 98.65 61.78 97.93 62.13 95.8 62.48 95.09 62.83 96.51 63.18 95.56 63.53 90.59 63.88 90.59 64.23 90.59 64.58 94.14 64.92 89.88 65.27 87.98 65.62 91.06 65.97 89.64 66.32 84.66 66.67 83.24 67.02 87.98 67.37 87.03 67.72 88.22 68.07 86.79 68.42 89.4 68.77 90.82 69.11 91.3 69.46 91.06 69.81 89.88 70.16 92.96 70.51 91.06 70.86 89.4 71.21 93.67 71.56 93.19 71.91 90.11 72.26 91.06 72.61 92.01 72.95 95.33 73.3 96.28 73.65 97.46 74 99.12 74.35 99.36 74.7 100.54 75.05 102.91 75.4 101.96 75.75 100.3 76.1 100.07 76.45 101.49 76.8 97.46 77.14 97.22 77.49 95.09 77.84 95.56 78.19 96.04 78.54 98.65 78.89 97.46 79.24 101.02 79.59 99.59 79.94 98.41 80.29 99.59 80.64 98.17 80.98 101.49 81.33 102.44 81.68 102.91 82.03 103.62 82.38 98.65 82.73 101.02 83.08 102.2 83.43 104.81 83.78 105.28 84.13 103.39 84.48 107.89 84.83 110.02 85.17 110.26 85.52 110.97 85.87 115 86.22 112.63 86.57 109.78 86.92 106.23 87.27 110.02 87.62 110.97 87.97 112.15 88.32 110.97 88.67 111.21 89.02 110.5 89.36 110.26 89.71 111.68 90.06 112.15 90.41 112.15 90.76 116.66 91.11 115.47 91.46 115.47 91.81 113.1 92.16 115 92.51 114.05 92.86 116.66 93.2 111.68 93.55 112.15 93.9 106.94 94.25 107.41 94.6 105.28 94.95 104.1 95.3 101.73 95.65 100.54 96 98.17 96.35 98.41 96.7 94.38 97.05 93.19 97.39 89.4 97.74 92.01 98.09 90.59 98.44 92.01 98.79 91.3 99.14 84.9 99.49 87.27 99.84 89.4 100.19 88.22 100.54 84.42 100.89 84.66 101.23 83.48 101.58 84.9 101.93 83.48 102.28 79.92 102.63 78.26 102.98 78.97 103.33 83.48 103.68 81.11 104.03 78.74 104.38 75.89 104.73 76.13 105.08 77.31 105.42 78.26 105.77 81.58 106.12 80.4 106.47 82.29 106.82 81.34 107.17 80.16 107.52 80.63 107.87 79.92 108.22 82.53 108.57 79.68 108.92 85.14 109.26 83.71 109.61 82.53 109.96 83.24 110.31 88.69 110.66 84.66 111.01 83.71 111.36 83.95 111.71 84.66 112.06 84.19 112.41 87.51 112.76 87.51 113.11 88.45 113.45 90.82 113.8 94.14 114.15 94.62 114.5 95.09 114.85 99.12 115.2 98.17 115.55 93.67 115.9 97.22 116.25 96.75 116.6 98.17 116.95 96.75 117.3 96.75 117.64 95.09 117.99 91.53 118.34 96.04 118.69 99.83 119.04 100.54 119.39 100.07 119.74 98.88 120.09 96.51 120.44 93.19 120.79 89.64 121.14 93.67 121.48 99.12 121.83 96.99 122.18 96.99 122.53 97.93 122.88 101.96 123.23 99.12 123.58 98.88 123.93 100.54 124.28 100.54 124.63 98.88 124.98 98.88 125.33 101.02 125.67 99.59 126.02 99.59 126.37 100.3 126.72 102.2 127.07 103.15 127.42 100.07 127.77 98.88 128.12 100.78 128.47 101.25 128.82 100.3 129.17 100.54 129.51 102.44 129.86 103.62 130.21 105.76 130.56 110.02 130.91 111.44 131.26 109.78 131.61 113.34 131.96 111.68 132.31 109.55 132.66 113.81 133.01 114.52 133.36 116.42 133.7 118.32 134.05 115.71 134.4 115.95 134.75 115.47 135.1 114.05 135.45 114.52 135.8 115.95 136.15 119.98 136.5 119.74 136.85 118.32 137.2 119.5 137.55 119.5 137.89 123.06 138.24 124.24 138.59 124.48 138.94 123.53 139.29 124 139.64 125.19 139.99 126.14 140.34 125.43 140.69 124.24 141.04 121.63 141.39 123.06 141.73 123.29 142.08 122.35 142.43 121.16 142.78 118.79 143.13 118.79 143.48 118.79 143.83 117.37 144.18 117.13 144.53 116.42 144.88 116.18 145.23 115.95 145.58 115.24 145.92 115 146.27 117.13 146.62 116.42 146.97 115.47 147.32 113.1 147.67 112.63 148.02 112.87 148.37 114.29 148.72 112.63 149.07 112.15 149.42 108.13 149.76 111.21 150.11 110.02 150.46 111.92 150.81 111.92 151.16 109.31 151.51 110.26 151.86 107.41 152.21 107.41 152.56 105.28 152.91 105.99 153.26 106.94 153.61 105.99 153.95 108.13 154.3 105.99 154.65 107.18 155 107.65 155.35 110.73 155.7 108.6 156.05 105.76 156.4 104.33 156.75 105.52 157.1 102.67 157.45 104.57 157.79 107.41 158.14 105.99 158.49 106.47 158.84 104.1 159.19 105.52 159.54 108.13 159.89 105.99 160.24 106.23 160.59 107.18 160.94 110.02 161.29 105.99 161.64 105.04 161.98 105.04 162.33 104.33 162.68 102.2 163.03 105.28 163.38 110.26 163.73 109.55 164.08 110.97 164.43 109.07 164.78 109.31 165.13 107.89 165.48 108.13 165.83 107.89 166.17 112.39 166.52 112.87 166.87 111.21 167.22 106.94 167.57 107.89 167.92 110.5 168.27 108.13 168.62 111.44 168.97 109.31 169.32 111.21 169.67 112.87 170.01 116.66 170.36 118.79 170.71 116.18 171.06 118.32 171.41 117.84 171.76 118.32 172.11 114.05 172.46 112.39 172.81 113.58 173.16 113.1 173.51 112.15 173.86 112.63 174.2 110.97 174.55 113.58 174.9 112.15 175.25 109.31 175.6 109.31 175.95 108.84 176.3 105.99 176.65 106.94 177 108.36 177.35 109.31 177.7 109.07 178.04 109.31 178.39 110.97 178.74 111.68 179.09 111.44 179.44 115.47 179.79 115 180.14 115.24 180.49 116.18 180.84 116.18 181.19 115 181.54 117.61 181.89 116.66 182.23 119.03 182.58 119.5 182.93 118.08 183.28 117.37 183.63 116.18 183.98 116.89 184.33 118.32 184.68 119.98 185.03 119.5 185.38 118.32 185.73 119.5 186.08 120.21 186.42 120.45 186.77 120.45 187.12 121.4 187.47 122.35 187.82 122.82 188.17 122.82 188.52 124.48 188.87 124.72 189.22 124 189.57 123.77 189.92 126.14 190.26 125.9 190.61 124.72 190.96 124 191.31 124.48 191.66 123.29 192.01 124.48 192.36 125.43 192.71 125.9 193.06 128.27 193.41 128.03 193.76 126.85 194.11 127.56 194.45 126.37 194.8 128.51 195.15 128.03 195.5 126.61 195.85 127.8 196.2 128.51"/>
      </g>
      <g stroke-width="0.3" fill="#000000" fill-opacity="0.000" class="geometry" stroke-dasharray="none" stroke="#FDAE61" id="img-a0d83763-16">
        <path fill="none" d="M21.98,71.86 L 22.33 69.26 22.68 68.78 23.03 70.2 23.38 72.34 23.73 78.26 24.08 79.68 24.42 81.82 24.77 85.61 25.12 83.24 25.47 79.45 25.82 84.42 26.17 85.37 26.52 87.98 26.87 90.82 27.22 92.48 27.57 92.96 27.92 96.04 28.27 95.56 28.61 94.38 28.96 96.51 29.31 99.36 29.66 98.41 30.01 101.49 30.36 104.57 30.71 108.13 31.06 106.7 31.41 106.94 31.76 108.36 32.11 109.31 32.45 110.97 32.8 111.68 33.15 111.21 33.5 110.73 33.85 110.02 34.2 110.97 34.55 109.55 34.9 110.5 35.25 109.31 35.6 109.07 35.95 107.89 36.3 111.44 36.64 110.5 36.99 110.97 37.34 110.73 37.69 110.73 38.04 114.52 38.39 114.05 38.74 111.68 39.09 108.36 39.44 108.6 39.79 110.97 40.14 108.36 40.49 106.7 40.83 107.65 41.18 106.94 41.53 109.07 41.88 107.89 42.23 105.76 42.58 108.36 42.93 107.18 43.28 106.7 43.63 106.7 43.98 109.07 44.33 108.84 44.67 109.55 45.02 110.5 45.37 110.02 45.72 111.21 46.07 111.92 46.42 112.39 46.77 112.63 47.12 112.63 47.47 107.41 47.82 107.18 48.17 109.07 48.52 107.18 48.86 109.31 49.21 110.02 49.56 111.21 49.91 109.78 50.26 110.5 50.61 112.15 50.96 110.97 51.31 112.87 51.66 111.92 52.01 108.13 52.36 110.5 52.7 108.6 53.05 108.6 53.4 106.94 53.75 105.04 54.1 106.23 54.45 105.52 54.8 107.18 55.15 106.23 55.5 105.04 55.85 103.62 56.2 103.15 56.55 108.84 56.89 107.89 57.24 110.97 57.59 111.21 57.94 110.26 58.29 114.29 58.64 114.52 58.99 116.89 59.34 115.95 59.69 117.13 60.04 117.84 60.39 118.79 60.73 117.84 61.08 118.32 61.43 119.74 61.78 120.92 62.13 117.61 62.48 116.89 62.83 115 63.18 116.89 63.53 116.66 63.88 119.5 64.23 118.08 64.58 118.32 64.92 117.84 65.27 118.55 65.62 120.45 65.97 121.87 66.32 121.87 66.67 121.4 67.02 121.16 67.37 123.53 67.72 123.53 68.07 123.29 68.42 124.48 68.77 127.09 69.11 128.27 69.46 128.98 69.81 128.51 70.16 128.74 70.51 128.74 70.86 129.46 71.21 128.74 71.56 128.74 71.91 126.85 72.26 127.56 72.61 127.8 72.95 127.09 73.3 128.03 73.65 126.61 74 128.27 74.35 130.17 74.7 130.64 75.05 131.11"/>
      </g>
      <g stroke-width="0.3" fill="#000000" fill-opacity="0.000" class="geometry" stroke-dasharray="none" stroke="#F46D43" id="img-a0d83763-17">
        <path fill="none" d="M21.98,71.86 L 22.33 69.02 22.68 68.31 23.03 68.07 23.38 69.26 23.73 68.07 24.08 66.41 24.42 66.65 24.77 61.2 25.12 62.86 25.47 62.62 25.82 59.78 26.17 59.78 26.52 62.15 26.87 60.25 27.22 59.3 27.57 64.99 27.92 64.28 28.27 62.38 28.61 63.57 28.96 60.72 29.31 60.72 29.66 63.33 30.01 61.2 30.36 65.46 30.71 64.75 31.06 63.81 31.41 67.6 31.76 67.83 32.11 71.15 32.45 66.89 32.8 66.65 33.15 68.31 33.5 69.02 33.85 69.73 34.2 68.31 34.55 68.31 34.9 67.36 35.25 68.31 35.6 64.52 35.95 65.23 36.3 64.99 36.64 67.36 36.99 64.28 37.34 64.99 37.69 62.15 38.04 67.36 38.39 69.26 38.74 68.31 39.09 68.78 39.44 66.18 39.79 71.86 40.14 72.81 40.49 71.39 40.83 69.73 41.18 65.23 41.53 61.91 41.88 59.3 42.23 61.67 42.58 61.44 42.93 62.86 43.28 62.62 43.63 64.75 43.98 62.86 44.33 62.62 44.67 61.2 45.02 55.04 45.37 55.75 45.72 51.95 46.07 53.61 46.42 50.77 46.77 52.9 47.12 52.9 47.47 51.48 47.82 52.9 48.17 54.8 48.52 58.35 48.86 61.44 49.21 61.91 49.56 62.86 49.91 59.06 50.26 57.64 50.61 54.32 50.96 56.46 51.31 58.35 51.66 62.15 52.01 61.2 52.36 60.72 52.7 59.78 53.05 55.04 53.4 56.22 53.75 56.22 54.1 58.12 54.45 56.22 54.8 57.17 55.15 59.06 55.5 59.54 55.85 60.25 56.2 61.44 56.55 63.81 56.89 59.54 57.24 59.3 57.59 60.72 57.94 58.35 58.29 56.69 58.64 52.43 58.99 54.56 59.34 55.51 59.69 55.98 60.04 53.61 60.39 48.87 60.73 51.24 61.08 48.64 61.43 46.03 61.78 44.61 62.13 44.13 62.48 43.19 62.83 42.24 63.18 45.56 63.53 46.5 63.88 44.84 64.23 42.71 64.58 46.27 64.92 46.74 65.27 45.08 65.62 46.27 65.97 41.53 66.32 41.29 66.67 40.58 67.02 42.47 67.37 42.71 67.72 44.37 68.07 42.47 68.42 39.87 68.77 37.26 69.11 34.89 69.46 31.81 69.81 29.44 70.16 28.97 70.51 28.73 70.86 27.78 71.21 27.54 71.56 24.94 71.91 25.41 72.26 25.17 72.61 26.83 72.95 24.7 73.3 24.46 73.65 22.57 74 22.57 74.35 21.85 74.7 21.62 75.05 20.67 75.4 17.35 75.75 20.91 76.1 20.91 76.45 22.8 76.8 24.94 77.14 25.88 77.49 26.12 77.84 25.88 78.19 24.94 78.54 23.04 78.89 24.94 79.24 24.22 79.59 27.07 79.94 27.07 80.29 26.36 80.64 26.12 80.98 26.36 81.33 27.54 81.68 27.07 82.03 28.73 82.38 28.73 82.73 27.78 83.08 27.78 83.43 28.73 83.78 26.36 84.13 28.25 84.48 24.94 84.83 23.75 85.17 23.28 85.52 23.04 85.87 25.17 86.22 24.7 86.57 23.28 86.92 25.65 87.27 24.7 87.62 22.8 87.97 22.09 88.32 23.75 88.67 23.99 89.02 22.09 89.36 21.38 89.71 20.67 90.06 22.33 90.41 21.85 90.76 21.62 91.11 20.91 91.46 20.67 91.81 23.51 92.16 24.22 92.51 26.6 92.86 24.94 93.2 22.33 93.55 19.25 93.9 19.96 94.25 19.01 94.6 21.85 94.95 20.91 95.3 21.14 95.65 20.91 96 19.01 96.35 18.3 96.7 16.88 97.05 15.69 97.39 14.74 97.74 14.98 98.09 15.46 98.44 15.93 98.79 17.11 99.14 17.35 99.49 16.64 99.84 15.69 100.19 15.22 100.54 15.69 100.89 17.59 101.23 19.25 101.58 18.06 101.93 16.64 102.28 18.06 102.63 15.46 102.98 15.46 103.33 14.98 103.68 14.51 104.03 14.98 104.38 15.46 104.73 14.98 105.08 14.74 105.42 14.51 105.77 14.51 106.12 14.74 106.47 14.74 106.82 13.56 107.17 13.8 107.52 13.09 107.87 12.61"/>
      </g>
      <g stroke-width="0.3" fill="#000000" fill-opacity="0.000" class="geometry" stroke-dasharray="none" stroke="#D53E4F" id="img-a0d83763-18">
        <path fill="none" d="M21.98,71.86 L 22.33 71.15 22.68 73.76 23.03 75.66 23.38 76.84 23.73 69.73 24.08 70.68 24.42 71.15 24.77 67.6 25.12 67.83 25.47 64.04 25.82 64.04 26.17 68.07 26.52 67.36 26.87 66.18 27.22 68.31 27.57 69.97 27.92 74.71 28.27 71.39 28.61 74 28.96 73.76 29.31 79.21 29.66 78.03 30.01 76.6 30.36 81.34 30.71 83 31.06 82.77 31.41 79.92 31.76 78.5 32.11 77.31 32.45 74.47 32.8 72.81 33.15 73.05 33.5 71.15 33.85 69.97 34.2 71.63 34.55 71.15 34.9 69.73 35.25 68.55 35.6 66.89 35.95 62.38 36.3 64.52 36.64 60.72 36.99 59.06 37.34 57.88 37.69 58.12 38.04 58.59 38.39 54.8 38.74 55.27 39.09 57.88 39.44 58.12 39.79 63.09 40.14 65.23 40.49 64.28 40.83 60.96 41.18 59.54 41.53 60.72 41.88 57.88 42.23 57.64 42.58 57.41 42.93 57.64 43.28 57.64 43.63 55.27 43.98 51.01 44.33 48.87 44.67 49.58 45.02 47.93 45.37 49.35 45.72 52.67 46.07 51.48 46.42 55.04 46.77 59.06 47.12 61.91 47.47 61.67 47.82 60.49 48.17 59.54 48.52 63.57 48.86 62.62 49.21 60.72 49.56 59.06 49.91 54.8 50.26 56.22 50.61 51.72 50.96 54.8 51.31 56.22 51.66 55.04 52.01 52.67 52.36 54.56 52.7 52.19 53.05 48.87 53.4 49.82 53.75 48.64 54.1 49.58 54.45 47.93 54.8 49.58 55.15 47.93 55.5 46.5 55.85 42.71 56.2 44.61 56.55 41.76 56.89 39.63 57.24 40.34 57.59 40.1 57.94 42.95 58.29 40.58 58.64 37.02 58.99 34.42 59.34 35.36 59.69 36.55 60.04 37.97 60.39 40.58 60.73 40.1 61.08 41.05 61.43 44.37 61.78 47.93 62.13 44.61 62.48 42.24 62.83 41.05 63.18 39.87 63.53 39.63 63.88 43.9 64.23 42.71 64.58 45.08 64.92 43.66 65.27 40.82 65.62 41.53 65.97 44.37 66.32 44.61 66.67 46.74 67.02 51.01 67.37 49.82 67.72 50.77 68.07 55.98 68.42 55.51 68.77 54.32 69.11 53.61 69.46 54.8 69.81 57.17 70.16 56.22 70.51 57.64 70.86 59.06 71.21 61.67 71.56 64.28 71.91 65.23 72.26 66.89 72.61 64.04 72.95 65.94 73.3 64.28 73.65 60.72 74 63.57 74.35 58.12 74.7 61.67 75.05 61.44 75.4 58.12 75.75 56.93 76.1 53.85 76.45 50.77 76.8 51.24 77.14 52.43 77.49 54.32 77.84 55.04 78.19 52.67 78.54 51.01 78.89 54.8 79.24 55.04 79.59 56.46 79.94 54.56 80.29 52.19 80.64 51.01 80.98 54.09 81.33 54.32 81.68 61.2 82.03 58.35 82.38 58.35 82.73 60.72 83.08 60.49 83.43 61.44 83.78 59.54 84.13 61.2 84.48 61.2 84.83 60.96 85.17 59.3 85.52 59.06 85.87 61.44 86.22 60.49 86.57 61.67 86.92 61.2 87.27 65.46 87.62 64.75 87.97 64.52 88.32 65.23 88.67 65.23 89.02 65.46 89.36 66.65 89.71 68.31 90.06 64.52 90.41 66.65 90.76 66.18 91.11 68.55 91.46 67.83 91.81 72.57 92.16 77.31 92.51 74.47 92.86 70.92 93.2 72.1 93.55 72.34 93.9 74 94.25 72.81 94.6 74.94 94.95 74.47 95.3 72.1 95.65 72.1 96 70.2 96.35 72.81 96.7 71.15 97.05 67.12 97.39 68.07 97.74 69.73 98.09 69.26 98.44 72.57 98.79 70.2 99.14 69.73 99.49 73.76 99.84 74.47 100.19 72.34 100.54 73.29 100.89 69.49 101.23 73.52 101.58 70.92 101.93 72.81 102.28 73.05 102.63 71.39 102.98 72.57 103.33 74.47 103.68 75.89 104.03 75.42 104.38 74.47 104.73 69.97 105.08 67.12 105.42 65.7 105.77 58.35 106.12 60.01 106.47 59.3 106.82 62.62 107.17 63.33 107.52 59.78 107.87 58.59 108.22 58.59 108.57 56.46 108.92 53.85 109.26 53.14 109.61 51.48 109.96 54.56 110.31 56.93 110.66 55.04 111.01 53.61 111.36 54.56 111.71 55.98 112.06 55.98 112.41 56.93 112.76 57.17 113.11 50.06 113.45 50.53 113.8 54.56 114.15 54.56 114.5 56.22 114.85 57.41 115.2 57.88 115.55 59.54 115.9 58.59 116.25 55.98 116.6 57.64 116.95 55.98 117.3 60.25 117.64 62.15 117.99 61.67 118.34 60.01 118.69 59.78 119.04 55.98 119.39 57.88 119.74 61.67 120.09 64.52 120.44 64.52 120.79 63.81 121.14 62.62 121.48 67.83 121.83 61.67 122.18 63.09 122.53 66.18 122.88 64.04 123.23 63.33 123.58 68.07 123.93 69.49 124.28 68.55 124.63 70.2 124.98 72.57 125.33 73.52 125.67 76.37 126.02 76.13 126.37 77.79 126.72 81.11 127.07 83.48 127.42 80.4 127.77 77.31 128.12 75.66 128.47 75.42 128.82 71.63 129.17 70.68 129.51 72.1 129.86 68.78 130.21 65.46 130.56 67.12 130.91 67.12 131.26 66.65 131.61 66.41 131.96 68.78 132.31 66.18 132.66 64.28 133.01 64.04 133.36 66.18 133.7 64.75 134.05 62.38 134.4 62.86 134.75 58.12 135.1 59.3 135.45 61.44 135.8 61.91 136.15 61.67 136.5 60.72 136.85 52.19 137.2 55.51 137.55 55.75 137.89 54.32 138.24 55.98 138.59 55.75 138.94 55.51 139.29 54.8 139.64 59.3 139.99 55.98 140.34 52.43 140.69 53.85 141.04 53.61 141.39 56.46 141.73 53.14 142.08 55.51 142.43 51.01 142.78 50.06 143.13 51.24 143.48 52.19 143.83 54.09 144.18 54.09 144.53 56.46 144.88 56.46 145.23 54.09 145.58 55.04 145.92 56.69 146.27 55.98 146.62 54.32 146.97 58.12 147.32 55.98 147.67 55.75 148.02 57.64 148.37 57.64 148.72 60.49 149.07 65.23 149.42 68.07 149.76 74.47 150.11 73.52 150.46 73.76 150.81 79.68 151.16 78.74 151.51 78.03 151.86 76.6 152.21 80.4 152.56 79.45 152.91 79.68 153.26 87.74 153.61 87.51 153.95 86.56 154.3 87.27 154.65 91.77 155 92.25 155.35 90.82 155.7 88.69 156.05 87.74 156.4 86.56 156.75 89.16 157.1 87.74 157.45 92.25 157.79 92.25 158.14 92.25 158.49 93.67 158.84 92.48 159.19 90.11 159.54 90.11 159.89 90.82 160.24 94.62 160.59 93.9 160.94 92.01 161.29 87.51 161.64 91.53 161.98 91.77 162.33 88.22 162.68 84.42 163.03 79.45 163.38 78.26 163.73 77.55 164.08 80.16 164.43 77.55 164.78 77.31 165.13 80.16 165.48 83 165.83 86.79 166.17 87.51 166.52 86.56 166.87 83 167.22 84.42 167.57 85.85 167.92 84.9 168.27 87.03 168.62 83.24 168.97 84.66 169.32 82.77 169.67 79.68 170.01 82.53 170.36 83.95 170.71 87.27 171.06 85.61 171.41 88.45 171.76 88.69 172.11 93.67 172.46 95.33 172.81 94.62 173.16 93.43 173.51 95.8 173.86 94.62 174.2 91.77 174.55 91.06 174.9 92.01 175.25 87.74 175.6 91.53 175.95 93.43 176.3 93.43 176.65 92.96 177 93.67 177.35 90.82 177.7 87.27 178.04 89.88 178.39 89.64 178.74 90.35 179.09 88.22 179.44 81.58 179.79 81.82 180.14 76.6 180.49 75.66 180.84 71.39 181.19 69.97 181.54 64.28 181.89 61.44 182.23 66.65 182.58 72.81 182.93 74 183.28 72.57 183.63 72.57 183.98 74.47 184.33 80.16 184.68 82.29 185.03 85.37 185.38 87.27 185.73 81.82 186.08 84.9 186.42 84.19 186.77 75.89 187.12 73.76 187.47 75.66 187.82 76.13 188.17 78.26 188.52 73.05 188.87 71.86 189.22 73.29 189.57 70.2 189.92 69.73 190.26 70.68 190.61 71.15 190.96 71.39 191.31 66.65 191.66 66.41 192.01 63.57 192.36 65.46 192.71 64.52 193.06 65.46 193.41 67.12 193.76 67.36 194.11 67.6 194.45 63.81 194.8 64.04 195.15 62.15 195.5 61.67 195.85 66.65 196.2 66.18"/>
      </g>
      <g stroke-width="0.3" fill="#000000" fill-opacity="0.000" class="geometry" stroke-dasharray="none" stroke="#9E0142" id="img-a0d83763-19">
        <path fill="none" d="M21.98,71.86 L 22.33 70.44 22.68 66.89 23.03 67.6 23.38 68.07 23.73 67.6 24.08 69.26 24.42 64.28 24.77 65.94 25.12 67.36 25.47 63.81 25.82 66.41 26.17 66.89 26.52 67.6 26.87 65.46 27.22 65.94 27.57 62.15 27.92 64.52 28.27 60.49 28.61 64.04 28.96 63.57 29.31 65.23 29.66 64.28 30.01 66.89 30.36 73.52 30.71 72.81 31.06 68.55 31.41 69.49 31.76 75.42 32.11 72.81 32.45 69.97 32.8 70.2 33.15 75.18 33.5 73.76 33.85 74.47 34.2 74.94 34.55 75.18 34.9 74 35.25 73.05 35.6 73.76 35.95 71.39 36.3 71.39 36.64 76.37 36.99 75.66 37.34 80.87 37.69 81.34 38.04 80.87 38.39 83.71 38.74 83.24 39.09 84.66 39.44 84.19 39.79 84.19 40.14 81.58 40.49 75.66 40.83 76.37 41.18 79.68 41.53 81.58 41.88 82.29 42.23 81.58 42.58 84.9 42.93 84.66 43.28 83.71 43.63 81.58 43.98 75.89 44.33 78.26 44.67 81.82 45.02 80.16 45.37 78.26 45.72 80.16 46.07 85.14 46.42 84.19 46.77 86.56 47.12 86.08 47.47 85.37 47.82 84.66 48.17 86.56 48.52 85.61 48.86 85.14 49.21 84.42 49.56 80.87 49.91 84.42 50.26 83.95 50.61 78.03 50.96 78.74 51.31 78.03 51.66 77.79 52.01 82.05 52.36 81.58 52.7 82.53 53.05 83.48 53.4 80.4 53.75 87.03 54.1 88.45 54.45 87.98 54.8 88.22 55.15 91.3 55.5 90.59 55.85 88.45 56.2 91.06 56.55 89.88 56.89 88.93 57.24 87.51 57.59 88.45 57.94 88.45 58.29 86.79 58.64 83.95 58.99 85.61 59.34 85.37 59.69 83.95 60.04 89.88 60.39 94.14 60.73 95.56 61.08 94.38 61.43 98.88 61.78 98.41 62.13 95.8 62.48 96.51 62.83 97.93 63.18 98.41 63.53 100.78 63.88 96.75 64.23 96.04 64.58 96.75 64.92 97.7 65.27 102.91 65.62 100.54 65.97 102.2 66.32 105.52 66.67 105.04 67.02 107.89 67.37 106.23 67.72 104.1 68.07 105.52 68.42 100.07 68.77 103.15 69.11 102.91 69.46 103.62 69.81 98.17 70.16 96.04 70.51 96.51 70.86 96.28 71.21 97.93 71.56 101.25 71.91 99.12 72.26 97.7 72.61 94.85 72.95 90.59 73.3 92.48 73.65 90.35 74 94.85 74.35 91.53 74.7 97.7 75.05 96.99 75.4 95.09 75.75 91.53 76.1 92.96 76.45 92.25 76.8 93.67 77.14 93.19 77.49 97.22 77.84 94.62 78.19 94.38 78.54 89.64 78.89 89.64 79.24 94.38 79.59 96.75 79.94 101.25 80.29 102.44 80.64 101.49 80.98 101.49 81.33 101.96 81.68 104.57 82.03 107.18 82.38 107.18 82.73 107.18 83.08 107.41 83.43 107.65 83.78 107.41 84.13 108.6 84.48 105.52 84.83 102.44 85.17 98.17 85.52 100.78 85.87 102.44 86.22 100.54 86.57 99.59 86.92 99.12 87.27 98.88 87.62 98.17 87.97 96.04 88.32 96.51 88.67 94.62 89.02 92.48 89.36 90.35 89.71 87.98 90.06 82.77 90.41 83.71 90.76 78.74 91.11 73.29 91.46 74 91.81 73.05 92.16 71.86 92.51 80.16 92.86 79.92 93.2 81.58 93.55 80.87 93.9 83.71 94.25 84.66 94.6 87.27 94.95 86.56 95.3 92.48 95.65 91.53 96 86.56 96.35 88.22 96.7 86.56 97.05 85.37 97.39 83.95 97.74 84.9 98.09 90.35 98.44 92.72 98.79 93.43 99.14 92.25 99.49 93.9 99.84 96.99 100.19 102.2 100.54 101.96 100.89 103.86 101.23 104.81 101.58 104.81 101.93 104.81 102.28 103.39 102.63 105.28 102.98 110.97 103.33 110.5 103.68 108.6 104.03 110.02 104.38 107.65 104.73 109.31 105.08 108.36 105.42 106.7 105.77 110.5 106.12 111.68 106.47 110.97 106.82 110.5 107.17 108.36 107.52 109.78 107.87 113.58 108.22 113.1 108.57 112.63 108.92 113.34 109.26 111.92 109.61 115.24 109.96 115.95 110.31 117.13 110.66 117.13 111.01 117.13 111.36 118.79 111.71 119.26 112.06 120.21 112.41 120.92 112.76 121.16 113.11 121.63 113.45 118.08 113.8 119.74 114.15 119.03 114.5 119.5 114.85 118.55 115.2 119.03 115.55 119.98 115.9 120.45 116.25 120.21 116.6 119.5 116.95 119.74 117.3 119.26 117.64 116.42 117.99 116.18 118.34 116.18 118.69 118.79 119.04 119.74 119.39 118.55 119.74 119.5 120.09 121.87 120.44 122.35 120.79 123.77 121.14 122.58 121.48 122.11 121.83 121.63 122.18 121.87 122.53 121.4 122.88 122.11 123.23 122.58 123.58 124 123.93 122.58 124.28 122.35 124.63 124.48 124.98 123.77 125.33 125.43 125.67 125.66 126.02 124.48 126.37 123.06 126.72 122.58 127.07 122.35 127.42 118.79 127.77 118.08 128.12 117.37 128.47 118.32 128.82 117.84 129.17 116.42 129.51 118.55 129.86 116.66 130.21 117.37 130.56 114.76 130.91 114.52 131.26 115.95 131.61 115 131.96 112.39 132.31 114.76 132.66 118.32 133.01 120.21 133.36 119.74 133.7 119.26 134.05 119.03 134.4 118.32 134.75 119.5 135.1 119.26 135.45 119.26 135.8 118.55 136.15 119.98 136.5 120.92 136.85 122.11 137.2 123.06 137.55 120.21 137.89 121.63 138.24 124.72 138.59 125.43 138.94 125.9 139.29 124.48 139.64 125.43 139.99 125.43 140.34 127.56 140.69 127.09 141.04 126.61 141.39 128.27 141.73 128.27 142.08 128.74 142.43 128.98 142.78 129.22 143.13 128.74 143.48 128.74 143.83 128.27 144.18 128.27 144.53 129.69 144.88 130.88 145.23 130.88 145.58 131.11"/>
      </g>
    </g>
  </g>
</g>
  <g class="guide ylabels" font-size="2.82" font-family="'PT Sans Caption','Helvetica Neue','Helvetica',sans-serif" fill="#000000" id="img-a0d83763-20">
    <text x="18.63" y="131.11" text-anchor="end" dy="0.35em">0</text>
    <text x="18.63" y="107.41" text-anchor="end" dy="0.35em">100</text>
    <text x="18.63" y="83.71" text-anchor="end" dy="0.35em">200</text>
    <text x="18.63" y="60.01" text-anchor="end" dy="0.35em">300</text>
    <text x="18.63" y="36.31" text-anchor="end" dy="0.35em">400</text>
    <text x="18.63" y="12.61" text-anchor="end" dy="0.35em">500</text>
  </g>
  <g font-size="3.88" font-family="'PT Sans','Helvetica Neue','Helvetica',sans-serif" fill="#000000" stroke="#000000" stroke-opacity="0.000" id="img-a0d83763-21">
    <text x="8.81" y="69.86" text-anchor="middle" dy="0.35em" transform="rotate(-90, 8.81, 71.86)">population number</text>
  </g>
  <g font-size="3.88" font-family="'PT Sans','Helvetica Neue','Helvetica',sans-serif" fill="#000000" stroke="#000000" stroke-opacity="0.000" id="img-a0d83763-22">
    <text x="108.92" y="5" text-anchor="middle" dy="0.6em">genetic drift</text>
  </g>
</g>
<defs>
  <clipPath id="img-a0d83763-4">
  <path d="M19.63,10.61 L 198.2 10.61 198.2 133.11 19.63 133.11" />
</clipPath>
</defs>
</svg>
