<?xml version="1.0" encoding="UTF-8"?>
<svg xmlns="http://www.w3.org/2000/svg"
     xmlns:xlink="http://www.w3.org/1999/xlink"
     xmlns:gadfly="http://www.gadflyjl.org/ns"
     version="1.2"
     width="203.2mm" height="152.4mm" viewBox="0 0 203.2 152.4"
     stroke="none"
     fill="#000000"
     stroke-width="0.3"
     font-size="3.88"
>
<g class="plotroot xscalable yscalable" id="img-6db52877-1">
  <g font-size="3.88" font-family="'PT Sans','Helvetica Neue','Helvetica',sans-serif" fill="#000000" stroke="#000000" stroke-opacity="0.000" id="img-6db52877-2">
    <text x="108.92" y="140.79" text-anchor="middle" dy="0.6em">generation number</text>
  </g>
  <g class="guide xlabels" font-size="2.82" font-family="'PT Sans Caption','Helvetica Neue','Helvetica',sans-serif" fill="#000000" id="img-6db52877-3">
    <text x="21.63" y="134.11" text-anchor="middle" dy="0.6em">0</text>
    <text x="56.55" y="134.11" text-anchor="middle" dy="0.6em">100</text>
    <text x="91.46" y="134.11" text-anchor="middle" dy="0.6em">200</text>
    <text x="126.37" y="134.11" text-anchor="middle" dy="0.6em">300</text>
    <text x="161.29" y="134.11" text-anchor="middle" dy="0.6em">400</text>
    <text x="196.2" y="134.11" text-anchor="middle" dy="0.6em">500</text>
  </g>
<g clip-path="url(#img-6db52877-4)">
  <g id="img-6db52877-5">
    <g pointer-events="visible" opacity="1" fill="#FFFFFF" stroke="#000000" stroke-opacity="0.000" class="guide background" id="img-6db52877-6">
      <rect x="19.63" y="10.61" width="178.57" height="122.5"/>
    </g>
    <g class="guide ygridlines xfixed" stroke-dasharray="0.5,0.5" stroke-width="0.2" stroke="#808080" id="img-6db52877-7">
      <path fill="none" d="M19.63,131.11 L 198.2 131.11"/>
      <path fill="none" d="M19.63,101.49 L 198.2 101.49"/>
      <path fill="none" d="M19.63,71.86 L 198.2 71.86"/>
      <path fill="none" d="M19.63,42.24 L 198.2 42.24"/>
      <path fill="none" d="M19.63,12.61 L 198.2 12.61"/>
    </g>
    <g class="guide xgridlines yfixed" stroke-dasharray="0.5,0.5" stroke-width="0.2" stroke="#808080" id="img-6db52877-8">
      <path fill="none" d="M21.63,10.61 L 21.63 133.11"/>
      <path fill="none" d="M56.55,10.61 L 56.55 133.11"/>
      <path fill="none" d="M91.46,10.61 L 91.46 133.11"/>
      <path fill="none" d="M126.37,10.61 L 126.37 133.11"/>
      <path fill="none" d="M161.29,10.61 L 161.29 133.11"/>
      <path fill="none" d="M196.2,10.61 L 196.2 133.11"/>
    </g>
    <g class="plotpanel" id="img-6db52877-9">
      <g stroke-width="0.3" fill="#000000" fill-opacity="0.000" class="geometry" stroke-dasharray="none" stroke="#3288BD" id="img-6db52877-10">
        <path fill="none" d="M21.98,79.27 L 22.33 81.64 22.68 81.94 23.03 83.86 23.38 87.86 23.73 86.97 24.08 87.71 24.42 90.23 24.77 88.45 25.12 89.49 25.47 89.19 25.82 89.79 26.17 89.94 26.52 91.86 26.87 89.49 27.22 86.68 27.57 84.01 27.92 84.01 28.27 86.08 28.61 85.64 28.96 87.57 29.31 86.97 29.66 82.97 30.01 82.82 30.36 83.27 30.71 84.16 31.06 81.2 31.41 82.38 31.76 84.01 32.11 84.16 32.45 82.23 32.8 81.79 33.15 81.79 33.5 84.75 33.85 84.31 34.2 85.49 34.55 85.49 34.9 85.64 35.25 84.31 35.6 81.79 35.95 81.05 36.3 84.16 36.64 84.75 36.99 85.19 37.34 86.08 37.69 86.38 38.04 84.6 38.39 81.94 38.74 81.2 39.09 84.16 39.44 85.64 39.79 85.34 40.14 88.75 40.49 93.93 40.83 91.12 41.18 90.08 41.53 88.6 41.88 88.6 42.23 89.49 42.58 89.34 42.93 85.79 43.28 84.6 43.63 84.16 43.98 84.45 44.33 86.53 44.67 87.12 45.02 88.45 45.37 86.82 45.72 85.94 46.07 85.64 46.42 83.12 46.77 81.49 47.12 82.23 47.47 80.6 47.82 81.34 48.17 81.49 48.52 82.38 48.86 86.82 49.21 88.01 49.56 90.38 49.91 90.08 50.26 90.68 50.61 87.71 50.96 84.9 51.31 85.05 51.66 85.05 52.01 89.05 52.36 88.16 52.7 88.9 53.05 88.75 53.4 88.16 53.75 90.38 54.1 91.12 54.45 89.34 54.8 89.64 55.15 90.23 55.5 85.64 55.85 86.53 56.2 88.75 56.55 85.94 56.89 85.94 57.24 84.45 57.59 83.27 57.94 83.57 58.29 82.97 58.64 85.19 58.99 86.38 59.34 84.75 59.69 86.97 60.04 85.49 60.39 85.79 60.73 87.12 61.08 86.97 61.43 87.71 61.78 86.53 62.13 87.71 62.48 89.94 62.83 88.6 63.18 93.05 63.53 92.6 63.88 95.56 64.23 93.64 64.58 93.49 64.92 94.53 65.27 95.42 65.62 96.16 65.97 98.38 66.32 97.79 66.67 96.3 67.02 95.42 67.37 94.38 67.72 96.6 68.07 98.82 68.42 100.01 68.77 102.08 69.11 102.08 69.46 104.45 69.81 106.08 70.16 107.12 70.51 107.86 70.86 104.16 71.21 104.9 71.56 107.56 71.91 105.78 72.26 105.04 72.61 104.9 72.95 106.97 73.3 105.49 73.65 105.49 74 104.45 74.35 103.27 74.7 106.67 75.05 106.53 75.4 108.9 75.75 109.78 76.1 110.67 76.45 110.97 76.8 112.01 77.14 111.86 77.49 109.04 77.84 108.01 78.19 106.23 78.54 106.67 78.89 105.78 79.24 107.27 79.59 108.75 79.94 107.12 80.29 108.9 80.64 104.75 80.98 105.49 81.33 105.34 81.68 102.67 82.03 103.27 82.38 105.19 82.73 104.16 83.08 104.3 83.43 104.9 83.78 103.86 84.13 101.49 84.48 100.75 84.83 98.82 85.17 100.6 85.52 98.67 85.87 102.23 86.22 102.23 86.57 102.53 86.92 100.9 87.27 101.34 87.62 102.53 87.97 105.19 88.32 106.38 88.67 108.45 89.02 106.38 89.36 105.93 89.71 105.49 90.06 104.01 90.41 104.01 90.76 104.75 91.11 103.71 91.46 107.27 91.81 105.64 92.16 104.6 92.51 106.38 92.86 105.93 93.2 106.08 93.55 106.38 93.9 108.6 94.25 107.71 94.6 103.86 94.95 103.56 95.3 106.97 95.65 106.53 96 109.49 96.35 110.08 96.7 109.78 97.05 108.01 97.39 105.04 97.74 103.12 98.09 101.79 98.44 103.56 98.79 102.67 99.14 101.93 99.49 99.56 99.84 96.9 100.19 95.42 100.54 92.45 100.89 91.56 101.23 93.19 101.58 91.86 101.93 89.05 102.28 90.82 102.63 93.05 102.98 90.53 103.33 89.94 103.68 88.9 104.03 91.56 104.38 88.45 104.73 90.23 105.08 92.45 105.42 87.71 105.77 88.9 106.12 86.68 106.47 85.64 106.82 88.9 107.17 88.45 107.52 88.16 107.87 86.82 108.22 86.82 108.57 88.31 108.92 89.94 109.26 88.6 109.61 86.97 109.96 82.38 110.31 83.27 110.66 82.68 111.01 83.12 111.36 81.49 111.71 80.6 112.06 82.23 112.41 82.97 112.76 77.79 113.11 76.46 113.45 75.86 113.8 76.75 114.15 77.05 114.5 75.57 114.85 76.6 115.2 71.42 115.55 69.94 115.9 70.23 116.25 67.86 116.6 68.6 116.95 65.49 117.3 67.86 117.64 65.35 117.99 66.38 118.34 65.64 118.69 66.09 119.04 63.12 119.39 60.61 119.74 58.24 120.09 59.57 120.44 60.75 120.79 60.16 121.14 59.86 121.48 59.86 121.83 59.27 122.18 58.53 122.53 58.98 122.88 59.27 123.23 59.86 123.58 61.05 123.93 61.35 124.28 58.98 124.63 57.94 124.98 55.57 125.33 59.42 125.67 59.57 126.02 58.68 126.37 59.72 126.72 60.31 127.07 62.38 127.42 66.23 127.77 65.49 128.12 66.68 128.47 66.53 128.82 65.94 129.17 67.27 129.51 64.01 129.86 62.53 130.21 62.38 130.56 62.09 130.91 61.94 131.26 63.57 131.61 60.16 131.96 57.49 132.31 59.27 132.66 56.75 133.01 55.42 133.36 55.27 133.7 56.9 134.05 56.31 134.4 53.35 134.75 52.75 135.1 49.79 135.45 48.46 135.8 46.83 136.15 46.09 136.5 44.76 136.85 47.87 137.2 48.46 137.55 49.5 137.89 50.68 138.24 49.2 138.59 50.83 138.94 52.01 139.29 50.09 139.64 51.13 139.99 50.68 140.34 49.79 140.69 49.94 141.04 49.94 141.39 50.38 141.73 50.09 142.08 49.05 142.43 47.87 142.78 49.79 143.13 49.79 143.48 47.72 143.83 49.79 144.18 51.72 144.53 49.79 144.88 48.61 145.23 50.53 145.58 53.35 145.92 53.2 146.27 52.16 146.62 56.16 146.97 58.24 147.32 61.64 147.67 65.2 148.02 65.05 148.37 64.75 148.72 62.23 149.07 61.2 149.42 61.05 149.76 63.42 150.11 61.79 150.46 61.94 150.81 62.23 151.16 61.94 151.51 63.42 151.86 64.01 152.21 63.42 152.56 63.86 152.91 61.79 153.26 58.24 153.61 58.98 153.95 58.83 154.3 58.68 154.65 58.68 155 62.23 155.35 61.2 155.7 62.53 156.05 62.83 156.4 62.98 156.75 62.09 157.1 65.49 157.45 64.46 157.79 65.64 158.14 64.75 158.49 67.27 158.84 67.42 159.19 69.35 159.54 67.42 159.89 64.31 160.24 66.68 160.59 69.64 160.94 72.01 161.29 73.2 161.64 73.49 161.98 68.46 162.33 66.09 162.68 64.61 163.03 63.42 163.38 61.49 163.73 59.12 164.08 55.57 164.43 57.05 164.78 58.53 165.13 60.01 165.48 60.01 165.83 60.01 166.17 54.83 166.52 51.42 166.87 51.57 167.22 51.72 167.57 53.64 167.92 54.38 168.27 57.94 168.62 61.35 168.97 62.68 169.32 65.35 169.67 65.64 170.01 65.64 170.36 66.38 170.71 68.6 171.06 69.35 171.41 66.68 171.76 62.53 172.11 63.72 172.46 62.83 172.81 64.16 173.16 64.16 173.51 60.9 173.86 57.64 174.2 57.64 174.55 59.12 174.9 60.01 175.25 61.05 175.6 62.38 175.95 62.98 176.3 60.31 176.65 62.68 177 63.27 177.35 63.72 177.7 63.12 178.04 60.01 178.39 59.57 178.74 57.64 179.09 57.05 179.44 54.98 179.79 55.12 180.14 54.09 180.49 52.46 180.84 50.38 181.19 48.76 181.54 47.57 181.89 48.61 182.23 50.24 182.58 51.72 182.93 52.01 183.28 49.94 183.63 52.61 183.98 54.68 184.33 55.12 184.68 55.72 185.03 55.72 185.38 58.09 185.73 57.49 186.08 57.64 186.42 57.49 186.77 56.01 187.12 56.46 187.47 57.79 187.82 56.46 188.17 57.94 188.52 61.2 188.87 61.49 189.22 60.75 189.57 60.01 189.92 56.01 190.26 54.24 190.61 56.46 190.96 56.9 191.31 54.38 191.66 56.16 192.01 56.9 192.36 58.38 192.71 59.57 193.06 58.24 193.41 59.86 193.76 59.42 194.11 60.16 194.45 62.83 194.8 65.64 195.15 68.01 195.5 68.16 195.85 64.9 196.2 64.46"/>
      </g>
      <g stroke-width="0.3" fill="#000000" fill-opacity="0.000" class="geometry" stroke-dasharray="none" stroke="#66C2A5" id="img-6db52877-11">
        <path fill="none" d="M21.98,79.27 L 22.33 78.53 22.68 78.68 23.03 79.57 23.38 79.86 23.73 80.45 24.08 80.6 24.42 78.83 24.77 78.68 25.12 81.34 25.47 78.97 25.82 81.64 26.17 84.01 26.52 85.34 26.87 84.9 27.22 81.2 27.57 79.12 27.92 77.34 28.27 76.46 28.61 74.53 28.96 74.83 29.31 71.12 29.66 72.75 30.01 70.68 30.36 71.42 30.71 72.01 31.06 70.38 31.41 69.05 31.76 69.2 32.11 72.9 32.45 74.83 32.8 74.53 33.15 79.12 33.5 76.31 33.85 77.79 34.2 79.86 34.55 76.9 34.9 78.68 35.25 77.2 35.6 74.23 35.95 72.75 36.3 75.57 36.64 79.57 36.99 78.68 37.34 79.27 37.69 80.75 38.04 82.97 38.39 80.45 38.74 79.57 39.09 83.12 39.44 85.05 39.79 85.19 40.14 81.94 40.49 87.27 40.83 86.82 41.18 87.12 41.53 88.6 41.88 90.97 42.23 90.53 42.58 89.49 42.93 91.86 43.28 90.53 43.63 87.42 43.98 85.19 44.33 86.38 44.67 89.79 45.02 92.9 45.37 95.12 45.72 98.53 46.07 98.08 46.42 99.27 46.77 99.12 47.12 99.12 47.47 99.71 47.82 104.16 48.17 103.71 48.52 102.23 48.86 103.41 49.21 103.86 49.56 108.45 49.91 107.12 50.26 107.12 50.61 106.38 50.96 107.12 51.31 106.97 51.66 107.56 52.01 108.01 52.36 107.41 52.7 107.27 53.05 106.08 53.4 104.9 53.75 107.86 54.1 107.41 54.45 110.38 54.8 110.53 55.15 110.67 55.5 111.12 55.85 110.38 56.2 109.93 56.55 108.75 56.89 109.04 57.24 108.15 57.59 108.6 57.94 111.41 58.29 112.15 58.64 109.04 58.99 109.04 59.34 107.86 59.69 105.04 60.04 105.04 60.39 104.01 60.73 107.12 61.08 102.53 61.43 101.93 61.78 101.64 62.13 105.64 62.48 105.04 62.83 105.19 63.18 102.08 63.53 103.12 63.88 105.64 64.23 106.53 64.58 106.82 64.92 108.9 65.27 107.12 65.62 108.75 65.97 106.08 66.32 106.67 66.67 106.08 67.02 106.53 67.37 107.41 67.72 108.45 68.07 106.82 68.42 107.12 68.77 105.04 69.11 105.93 69.46 108.3 69.81 108.45 70.16 108.3 70.51 106.23 70.86 106.08 71.21 104.45 71.56 105.34 71.91 104.9 72.26 104.16 72.61 105.64 72.95 105.04 73.3 106.08 73.65 104.16 74 103.86 74.35 103.86 74.7 102.82 75.05 102.67 75.4 100.75 75.75 99.27 76.1 100.45 76.45 100.16 76.8 101.79 77.14 98.67 77.49 98.82 77.84 97.05 78.19 97.34 78.54 97.93 78.89 97.79 79.24 95.12 79.59 96.45 79.94 96.16 80.29 95.86 80.64 97.34 80.98 96.75 81.33 96.6 81.68 96.01 82.03 93.93 82.38 92.01 82.73 93.19 83.08 91.12 83.43 90.82 83.78 88.45 84.13 84.45 84.48 85.34 84.83 87.42 85.17 87.86 85.52 85.49 85.87 87.71 86.22 84.9 86.57 87.27 86.92 86.53 87.27 87.27 87.62 86.38 87.97 86.08 88.32 88.75 88.67 88.01 89.02 87.12 89.36 84.45 89.71 87.86 90.06 89.34 90.41 87.86 90.76 86.08 91.11 84.01 91.46 81.49 91.81 82.23 92.16 81.94 92.51 84.75 92.86 85.49 93.2 87.27 93.55 83.86 93.9 86.53 94.25 87.86 94.6 91.56 94.95 91.42 95.3 89.34 95.65 89.49 96 89.94 96.35 89.05 96.7 87.27 97.05 86.53 97.39 82.68 97.74 80.45 98.09 82.82 98.44 80.45 98.79 76.75 99.14 77.2 99.49 77.79 99.84 81.05 100.19 79.42 100.54 81.49 100.89 82.53 101.23 81.2 101.58 84.75 101.93 85.64 102.28 86.82 102.63 83.71 102.98 84.16 103.33 86.38 103.68 84.9 104.03 82.08 104.38 84.6 104.73 85.19 105.08 84.6 105.42 83.27 105.77 88.16 106.12 89.34 106.47 91.12 106.82 95.12 107.17 98.08 107.52 98.08 107.87 95.86 108.22 97.05 108.57 98.08 108.92 96.45 109.26 96.01 109.61 95.27 109.96 96.75 110.31 93.05 110.66 90.97 111.01 94.23 111.36 89.49 111.71 88.45 112.06 89.94 112.41 88.75 112.76 89.34 113.11 90.97 113.45 91.86 113.8 93.34 114.15 92.6 114.5 92.75 114.85 95.71 115.2 94.08 115.55 91.86 115.9 93.34 116.25 93.64 116.6 94.38 116.95 95.27 117.3 97.64 117.64 98.53 117.99 97.79 118.34 97.34 118.69 96.45 119.04 91.56 119.39 91.12 119.74 93.79 120.09 96.9 120.44 96.9 120.79 96.75 121.14 98.08 121.48 97.49 121.83 98.82 122.18 101.79 122.53 101.34 122.88 100.9 123.23 98.23 123.58 101.04 123.93 101.64 124.28 102.67 124.63 104.45 124.98 103.12 125.33 104.45 125.67 102.67 126.02 102.82 126.37 102.82 126.72 101.19 127.07 103.27 127.42 104.3 127.77 107.56 128.12 107.12 128.47 107.71 128.82 108.15 129.17 107.71 129.51 106.97 129.86 108.15 130.21 107.41 130.56 106.97 130.91 106.53 131.26 104.45 131.61 102.38 131.96 102.53 132.31 98.38 132.66 99.12 133.01 98.97 133.36 100.75 133.7 96.3 134.05 92.31 134.4 89.94 134.75 87.57 135.1 85.79 135.45 88.01 135.8 90.38 136.15 90.23 136.5 90.82 136.85 93.19 137.2 95.56 137.55 96.01 137.89 94.38 138.24 93.64 138.59 95.42 138.94 97.79 139.29 98.23 139.64 98.67 139.99 99.86 140.34 102.97 140.69 102.23 141.04 97.34 141.39 96.75 141.73 98.53 142.08 100.01 142.43 100.3 142.78 100.3 143.13 100.3 143.48 100.6 143.83 100.6 144.18 99.86 144.53 99.56 144.88 100.75 145.23 98.08 145.58 98.82 145.92 98.23 146.27 97.19 146.62 95.71 146.97 91.42 147.32 92.31 147.67 93.79 148.02 93.79 148.37 91.86 148.72 93.34 149.07 94.53 149.42 91.71 149.76 92.45 150.11 87.86 150.46 86.68 150.81 85.64 151.16 87.57 151.51 84.75 151.86 83.42 152.21 82.82 152.56 78.53 152.91 84.01 153.26 82.08 153.61 80.16 153.95 79.71 154.3 78.08 154.65 78.38 155 78.53 155.35 78.38 155.7 80.75 156.05 78.68 156.4 78.38 156.75 77.79 157.1 80.9 157.45 82.08 157.79 83.27 158.14 80.45 158.49 84.01 158.84 82.97 159.19 80.75 159.54 81.05 159.89 82.97 160.24 78.97 160.59 78.23 160.94 78.38 161.29 79.42 161.64 77.79 161.98 78.97 162.33 80.31 162.68 79.12 163.03 77.94 163.38 77.94 163.73 75.71 164.08 77.2 164.43 73.34 164.78 71.72 165.13 71.42 165.48 70.97 165.83 76.9 166.17 77.34 166.52 79.57 166.87 82.38 167.22 84.01 167.57 82.08 167.92 84.45 168.27 87.86 168.62 88.75 168.97 88.45 169.32 91.12 169.67 92.31 170.01 91.86 170.36 91.27 170.71 88.9 171.06 85.79 171.41 88.45 171.76 85.49 172.11 87.71 172.46 90.08 172.81 86.97 173.16 85.05 173.51 84.16 173.86 84.01 174.2 80.45 174.55 76.9 174.9 76.46 175.25 74.97 175.6 73.94 175.95 75.71 176.3 75.27 176.65 76.01 177 75.57 177.35 77.05 177.7 78.97 178.04 78.08 178.39 80.31 178.74 80.16 179.09 78.38 179.44 75.27 179.79 72.75 180.14 69.2 180.49 68.46 180.84 67.27 181.19 65.35 181.54 63.27 181.89 67.27 182.23 69.79 182.58 69.35 182.93 65.94 183.28 62.09 183.63 62.98 183.98 61.94 184.33 61.49 184.68 61.79 185.03 62.98 185.38 62.98 185.73 60.9 186.08 57.79 186.42 58.09 186.77 55.27 187.12 54.53 187.47 56.31 187.82 56.61 188.17 56.61 188.52 58.53 188.87 58.98 189.22 61.05 189.57 64.01 189.92 64.75 190.26 64.61 190.61 65.05 190.96 64.16 191.31 64.31 191.66 65.05 192.01 68.31 192.36 67.57 192.71 67.72 193.06 66.68 193.41 66.98 193.76 69.35 194.11 68.6 194.45 68.6 194.8 69.05 195.15 69.94 195.5 68.46 195.85 67.72 196.2 70.68"/>
      </g>
      <g stroke-width="0.3" fill="#000000" fill-opacity="0.000" class="geometry" stroke-dasharray="none" stroke="#ABDDA4" id="img-6db52877-12">
        <path fill="none" d="M21.98,79.27 L 22.33 78.83 22.68 76.9 23.03 76.9 23.38 74.97 23.73 76.9 24.08 73.34 24.42 68.75 24.77 67.57 25.12 65.79 25.47 66.53 25.82 65.94 26.17 63.42 26.52 64.46 26.87 66.83 27.22 62.68 27.57 61.35 27.92 61.94 28.27 61.35 28.61 61.64 28.96 60.61 29.31 60.01 29.66 62.38 30.01 61.79 30.36 62.23 30.71 64.61 31.06 65.2 31.41 64.46 31.76 64.16 32.11 62.38 32.45 64.31 32.8 63.12 33.15 64.31 33.5 65.05 33.85 63.57 34.2 65.64 34.55 66.38 34.9 65.2 35.25 61.94 35.6 59.86 35.95 59.86 36.3 60.61 36.64 60.46 36.99 57.49 37.34 56.16 37.69 56.46 38.04 60.9 38.39 60.46 38.74 61.35 39.09 62.38 39.44 60.75 39.79 59.57 40.14 58.83 40.49 55.12 40.83 53.5 41.18 56.46 41.53 53.94 41.88 53.79 42.23 54.24 42.58 54.09 42.93 53.35 43.28 57.35 43.63 56.16 43.98 56.75 44.33 56.61 44.67 56.9 45.02 58.24 45.37 59.72 45.72 61.64 46.07 62.38 46.42 61.94 46.77 60.31 47.12 59.27 47.47 60.16 47.82 63.27 48.17 64.75 48.52 65.49 48.86 65.2 49.21 66.83 49.56 65.94 49.91 66.68 50.26 68.9 50.61 65.64 50.96 65.49 51.31 64.61 51.66 64.31 52.01 62.53 52.36 61.64 52.7 60.61 53.05 61.2 53.4 62.83 53.75 62.98 54.1 64.75 54.45 63.27 54.8 66.38 55.15 63.42 55.5 65.64 55.85 67.12 56.2 66.83 56.55 67.42 56.89 69.05 57.24 67.86 57.59 68.31 57.94 67.72 58.29 68.16 58.64 68.6 58.99 69.49 59.34 71.72 59.69 71.12 60.04 71.12 60.39 72.16 60.73 71.42 61.08 72.6 61.43 71.27 61.78 71.12 62.13 70.09 62.48 71.42 62.83 68.46 63.18 72.16 63.53 69.94 63.88 68.6 64.23 66.53 64.58 65.49 64.92 64.16 65.27 62.38 65.62 63.12 65.97 63.27 66.32 66.09 66.67 66.23 67.02 68.16 67.37 69.94 67.72 69.49 68.07 68.6 68.42 65.94 68.77 67.42 69.11 69.94 69.46 68.46 69.81 66.09 70.16 66.09 70.51 66.53 70.86 65.35 71.21 66.98 71.56 65.49 71.91 63.27 72.26 62.09 72.61 62.09 72.95 63.72 73.3 61.05 73.65 60.01 74 60.16 74.35 62.23 74.7 65.05 75.05 68.75 75.4 68.75 75.75 66.98 76.1 71.42 76.45 72.46 76.8 72.6 77.14 73.34 77.49 71.57 77.84 69.79 78.19 71.72 78.54 71.27 78.89 71.57 79.24 70.23 79.59 70.97 79.94 72.16 80.29 72.31 80.64 73.79 80.98 72.16 81.33 69.05 81.68 66.83 82.03 65.79 82.38 64.31 82.73 64.9 83.08 63.27 83.43 63.57 83.78 65.79 84.13 66.53 84.48 67.27 84.83 66.98 85.17 63.72 85.52 62.23 85.87 62.23 86.22 61.2 86.57 61.79 86.92 60.16 87.27 62.53 87.62 60.75 87.97 61.79 88.32 64.46 88.67 65.35 89.02 64.16 89.36 65.35 89.71 64.75 90.06 66.23 90.41 66.23 90.76 67.42 91.11 68.31 91.46 64.75 91.81 65.2 92.16 66.38 92.51 69.05 92.86 71.72 93.2 74.68 93.55 70.97 93.9 68.9 94.25 66.68 94.6 63.57 94.95 65.49 95.3 65.79 95.65 67.42 96 66.98 96.35 64.16 96.7 63.86 97.05 64.16 97.39 64.01 97.74 65.94 98.09 65.94 98.44 67.42 98.79 67.27 99.14 69.05 99.49 68.6 99.84 70.97 100.19 70.83 100.54 71.57 100.89 74.68 101.23 70.97 101.58 68.31 101.93 69.79 102.28 68.75 102.63 68.6 102.98 67.12 103.33 66.98 103.68 68.75 104.03 68.9 104.38 68.75 104.73 69.35 105.08 66.68 105.42 66.83 105.77 63.72 106.12 64.46 106.47 65.79 106.82 66.98 107.17 63.57 107.52 62.38 107.87 63.12 108.22 59.86 108.57 60.46 108.92 62.09 109.26 61.2 109.61 60.9 109.96 58.83 110.31 58.53 110.66 58.24 111.01 59.12 111.36 60.01 111.71 59.72 112.06 62.09 112.41 62.38 112.76 62.68 113.11 63.12 113.45 67.12 113.8 69.05 114.15 68.6 114.5 68.75 114.85 67.57 115.2 67.57 115.55 66.98 115.9 67.72 116.25 69.05 116.6 67.72 116.95 69.35 117.3 70.97 117.64 70.68 117.99 71.42 118.34 71.27 118.69 70.38 119.04 69.94 119.39 69.94 119.74 72.01 120.09 74.09 120.44 76.75 120.79 77.79 121.14 76.01 121.48 77.64 121.83 73.2 122.18 72.46 122.53 68.01 122.88 69.2 123.23 69.94 123.58 67.86 123.93 67.57 124.28 65.2 124.63 65.49 124.98 64.46 125.33 64.75 125.67 62.68 126.02 62.09 126.37 62.53 126.72 63.12 127.07 66.98 127.42 66.68 127.77 66.68 128.12 70.68 128.47 68.9 128.82 68.16 129.17 69.64 129.51 72.46 129.86 71.57 130.21 73.34 130.56 76.75 130.91 77.49 131.26 78.23 131.61 78.53 131.96 76.6 132.31 74.53 132.66 74.97 133.01 74.97 133.36 70.38 133.7 70.68 134.05 73.79 134.4 78.23 134.75 79.42 135.1 80.31 135.45 79.71 135.8 77.94 136.15 80.01 136.5 79.27 136.85 79.42 137.2 81.64 137.55 81.64 137.89 84.16 138.24 86.68 138.59 84.45 138.94 78.83 139.29 78.53 139.64 79.12 139.99 80.01 140.34 80.9 140.69 82.08 141.04 81.34 141.39 82.08 141.73 82.08 142.08 84.31 142.43 86.38 142.78 87.42 143.13 86.97 143.48 84.31 143.83 79.57 144.18 78.53 144.53 81.79 144.88 81.34 145.23 77.34 145.58 76.16 145.92 75.42 146.27 75.57 146.62 76.75 146.97 73.2 147.32 76.16 147.67 76.31 148.02 77.34 148.37 78.38 148.72 79.27 149.07 77.49 149.42 80.01 149.76 82.82 150.11 84.75 150.46 85.94 150.81 84.31 151.16 82.97 151.51 85.34 151.86 86.53 152.21 88.6 152.56 89.64 152.91 89.49 153.26 90.82 153.61 90.82 153.95 91.86 154.3 93.93 154.65 96.3 155 95.71 155.35 93.93 155.7 93.49 156.05 91.56 156.4 92.16 156.75 92.31 157.1 90.82 157.45 92.01 157.79 91.56 158.14 92.9 158.49 95.56 158.84 97.79 159.19 101.93 159.54 101.93 159.89 103.41 160.24 106.38 160.59 107.27 160.94 103.71 161.29 100.16 161.64 99.27 161.98 100.9 162.33 102.82 162.68 103.86 163.03 109.04 163.38 110.82 163.73 111.71 164.08 112.45 164.43 114.67 164.78 113.64 165.13 113.64 165.48 112.9 165.83 114.08 166.17 114.38 166.52 115.56 166.87 117.49 167.22 116.45 167.57 117.49 167.92 117.49 168.27 119.56 168.62 121.93 168.97 122.97 169.32 121.93 169.67 122.23 170.01 122.08 170.36 122.08 170.71 122.08 171.06 122.67 171.41 125.04 171.76 125.93 172.11 125.49 172.46 125.34 172.81 126.97 173.16 126.67 173.51 125.04 173.86 124.3 174.2 124.3 174.55 121.78 174.9 123.56 175.25 124.15 175.6 123.71 175.95 121.34 176.3 120.89 176.65 120.01 177 120.45 177.35 121.49 177.7 120.6 178.04 121.19 178.39 122.23 178.74 121.04 179.09 121.49 179.44 119.86 179.79 121.49 180.14 120.45 180.49 119.12 180.84 120.45 181.19 120.3 181.54 121.19 181.89 120.3 182.23 120.6 182.58 120.3 182.93 119.86 183.28 118.23 183.63 116.89 183.98 118.08 184.33 117.93 184.68 116.6 185.03 113.78 185.38 116.01 185.73 115.86 186.08 115.27 186.42 115.56 186.77 116.15 187.12 112.75 187.47 112.9 187.82 113.34 188.17 112.75 188.52 113.04 188.87 110.67 189.22 112.01 189.57 113.34 189.92 112.45 190.26 114.38 190.61 114.52 190.96 112.3 191.31 113.78 191.66 114.23 192.01 114.23 192.36 114.23 192.71 113.78 193.06 117.19 193.41 118.82 193.76 120.01 194.11 119.56 194.45 122.38 194.8 119.71 195.15 121.19 195.5 118.38 195.85 117.64 196.2 119.41"/>
      </g>
      <g stroke-width="0.3" fill="#000000" fill-opacity="0.000" class="geometry" stroke-dasharray="none" stroke="#E6F598" id="img-6db52877-13">
        <path fill="none" d="M21.98,79.27 L 22.33 77.34 22.68 74.23 23.03 73.49 23.38 71.72 23.73 74.68 24.08 73.05 24.42 72.75 24.77 73.05 25.12 73.34 25.47 72.46 25.82 72.46 26.17 73.05 26.52 70.23 26.87 68.31 27.22 69.49 27.57 68.9 27.92 70.97 28.27 73.79 28.61 72.9 28.96 76.01 29.31 72.46 29.66 73.05 30.01 73.49 30.36 74.53 30.71 73.79 31.06 70.83 31.41 73.05 31.76 75.42 32.11 74.09 32.45 70.83 32.8 68.9 33.15 69.79 33.5 68.75 33.85 68.31 34.2 65.2 34.55 68.01 34.9 69.35 35.25 68.31 35.6 67.27 35.95 72.46 36.3 76.31 36.64 76.46 36.99 75.71 37.34 73.05 37.69 73.64 38.04 73.2 38.39 73.79 38.74 74.09 39.09 74.68 39.44 74.97 39.79 76.6 40.14 79.71 40.49 84.6 40.83 82.82 41.18 85.49 41.53 85.34 41.88 86.82 42.23 89.64 42.58 88.45 42.93 89.19 43.28 90.23 43.63 88.16 43.98 89.64 44.33 89.94 44.67 94.23 45.02 92.9 45.37 92.75 45.72 94.23 46.07 94.23 46.42 94.68 46.77 96.6 47.12 96.75 47.47 100.16 47.82 99.71 48.17 94.68 48.52 96.9 48.86 97.49 49.21 93.79 49.56 90.08 49.91 87.86 50.26 84.45 50.61 84.6 50.96 84.75 51.31 82.38 51.66 83.57 52.01 83.57 52.36 82.82 52.7 87.27 53.05 88.31 53.4 87.86 53.75 84.6 54.1 82.38 54.45 82.68 54.8 87.27 55.15 87.12 55.5 84.16 55.85 81.34 56.2 84.6 56.55 85.64 56.89 82.53 57.24 82.68 57.59 85.34 57.94 85.94 58.29 80.31 58.64 78.83 58.99 78.53 59.34 78.97 59.69 80.31 60.04 79.12 60.39 81.79 60.73 79.86 61.08 77.64 61.43 78.53 61.78 77.94 62.13 77.05 62.48 76.75 62.83 80.6 63.18 80.6 63.53 83.12 63.88 86.23 64.23 87.57 64.58 87.86 64.92 88.31 65.27 87.71 65.62 87.42 65.97 85.79 66.32 87.71 66.67 87.57 67.02 93.34 67.37 94.82 67.72 95.12 68.07 97.49 68.42 98.23 68.77 94.38 69.11 91.27 69.46 93.19 69.81 90.82 70.16 90.53 70.51 90.53 70.86 89.79 71.21 90.53 71.56 90.08 71.91 90.82 72.26 88.9 72.61 88.31 72.95 88.6 73.3 86.53 73.65 88.6 74 84.9 74.35 81.94 74.7 80.16 75.05 78.38 75.4 74.38 75.75 71.72 76.1 71.57 76.45 70.38 76.8 69.64 77.14 69.35 77.49 70.23 77.84 67.72 78.19 69.35 78.54 69.35 78.89 70.23 79.24 71.12 79.59 69.94 79.94 69.35 80.29 70.38 80.64 72.01 80.98 68.9 81.33 66.09 81.68 65.2 82.03 63.86 82.38 66.23 82.73 64.31 83.08 60.9 83.43 59.57 83.78 58.68 84.13 62.09 84.48 60.16 84.83 61.64 85.17 60.16 85.52 63.42 85.87 64.75 86.22 65.49 86.57 65.64 86.92 69.2 87.27 67.57 87.62 69.94 87.97 72.75 88.32 71.57 88.67 69.79 89.02 70.53 89.36 69.64 89.71 69.49 90.06 71.72 90.41 70.97 90.76 72.6 91.11 70.83 91.46 71.42 91.81 70.53 92.16 71.12 92.51 70.53 92.86 72.9 93.2 74.09 93.55 74.53 93.9 75.27 94.25 77.2 94.6 76.46 94.95 74.83 95.3 76.9 95.65 80.75 96 83.42 96.35 82.82 96.7 85.34 97.05 83.42 97.39 82.38 97.74 82.82 98.09 79.42 98.44 74.83 98.79 76.31 99.14 74.68 99.49 76.46 99.84 76.75 100.19 75.86 100.54 75.86 100.89 72.9 101.23 71.86 101.58 70.23 101.93 68.75 102.28 67.27 102.63 65.49 102.98 63.86 103.33 62.83 103.68 62.53 104.03 61.35 104.38 61.05 104.73 64.31 105.08 64.01 105.42 63.42 105.77 64.61 106.12 67.27 106.47 65.49 106.82 65.05 107.17 62.53 107.52 60.9 107.87 63.57 108.22 62.23 108.57 62.23 108.92 62.83 109.26 62.98 109.61 60.75 109.96 56.9 110.31 57.94 110.66 54.09 111.01 53.5 111.36 53.64 111.71 55.12 112.06 58.53 112.41 57.49 112.76 58.09 113.11 56.61 113.45 59.12 113.8 58.09 114.15 56.01 114.5 56.01 114.85 55.57 115.2 58.24 115.55 53.94 115.9 54.98 116.25 55.72 116.6 54.83 116.95 51.42 117.3 57.05 117.64 57.35 117.99 56.01 118.34 57.2 118.69 57.79 119.04 56.61 119.39 55.12 119.74 54.83 120.09 54.98 120.44 54.98 120.79 56.61 121.14 57.64 121.48 56.31 121.83 58.83 122.18 58.83 122.53 60.75 122.88 60.31 123.23 59.86 123.58 57.79 123.93 57.94 124.28 57.64 124.63 54.09 124.98 52.75 125.33 52.9 125.67 53.94 126.02 53.94 126.37 52.9 126.72 57.05 127.07 54.68 127.42 53.5 127.77 54.53 128.12 55.42 128.47 56.61 128.82 56.61 129.17 56.31 129.51 58.24 129.86 59.12 130.21 58.53 130.56 59.12 130.91 60.16 131.26 59.86 131.61 59.86 131.96 61.2 132.31 59.42 132.66 60.75 133.01 61.64 133.36 62.38 133.7 62.68 134.05 63.42 134.4 57.94 134.75 57.49 135.1 57.49 135.45 56.16 135.8 56.31 136.15 53.05 136.5 51.87 136.85 52.31 137.2 54.09 137.55 53.64 137.89 54.24 138.24 54.38 138.59 53.35 138.94 51.13 139.29 50.38 139.64 50.09 139.99 52.46 140.34 50.98 140.69 51.13 141.04 49.64 141.39 49.79 141.73 48.76 142.08 50.38 142.43 49.64 142.78 47.42 143.13 45.05 143.48 46.53 143.83 45.79 144.18 46.68 144.53 44.46 144.88 43.57 145.23 41.5 145.58 41.2 145.92 42.53 146.27 43.57 146.62 44.02 146.97 44.46 147.32 45.5 147.67 45.94 148.02 45.5 148.37 46.24 148.72 46.24 149.07 48.61 149.42 48.46 149.76 50.09 150.11 51.57 150.46 53.35 150.81 52.46 151.16 52.61 151.51 55.57 151.86 54.98 152.21 56.61 152.56 56.75 152.91 57.64 153.26 56.16 153.61 56.9 153.95 55.72 154.3 52.46 154.65 51.42 155 50.38 155.35 50.38 155.7 52.46 156.05 55.42 156.4 54.09 156.75 56.61 157.1 58.83 157.45 56.75 157.79 55.27 158.14 55.27 158.49 55.57 158.84 56.75 159.19 58.09 159.54 59.27 159.89 58.09 160.24 59.27 160.59 61.35 160.94 59.86 161.29 57.2 161.64 57.05 161.98 55.57 162.33 54.98 162.68 54.68 163.03 54.09 163.38 53.35 163.73 52.61 164.08 51.57 164.43 51.42 164.78 48.31 165.13 49.2 165.48 49.79 165.83 50.98 166.17 48.76 166.52 47.87 166.87 48.01 167.22 50.09 167.57 50.09 167.92 47.72 168.27 47.72 168.62 48.01 168.97 47.72 169.32 51.13 169.67 52.46 170.01 53.79 170.36 54.98 170.71 52.75 171.06 53.64 171.41 53.79 171.76 50.68 172.11 48.9 172.46 48.9 172.81 48.61 173.16 48.76 173.51 48.9 173.86 50.68 174.2 49.05 174.55 49.2 174.9 49.79 175.25 50.38 175.6 51.42 175.95 50.38 176.3 49.79 176.65 49.2 177 49.05 177.35 50.53 177.7 49.79 178.04 47.72 178.39 47.27 178.74 47.42 179.09 47.87 179.44 47.87 179.79 49.5 180.14 51.87 180.49 51.57 180.84 52.31 181.19 52.01 181.54 52.9 181.89 52.31 182.23 52.16 182.58 51.27 182.93 49.35 183.28 48.9 183.63 49.94 183.98 48.9 184.33 50.53 184.68 47.87 185.03 46.83 185.38 49.64 185.73 48.61 186.08 45.94 186.42 49.05 186.77 48.9 187.12 48.76 187.47 48.31 187.82 49.5 188.17 51.27 188.52 52.46 188.87 52.01 189.22 54.53 189.57 56.46 189.92 57.2 190.26 56.01 190.61 53.94 190.96 50.68 191.31 51.87 191.66 55.12 192.01 56.16 192.36 57.64 192.71 55.27 193.06 54.24 193.41 57.64 193.76 58.24 194.11 57.79 194.45 58.68 194.8 55.57 195.15 56.46 195.5 56.61 195.85 55.42 196.2 55.42"/>
      </g>
      <g stroke-width="0.3" fill="#000000" fill-opacity="0.000" class="geometry" stroke-dasharray="none" stroke="#FFFFBF" id="img-6db52877-14">
        <path fill="none" d="M21.98,79.27 L 22.33 77.34 22.68 75.57 23.03 74.23 23.38 73.2 23.73 69.35 24.08 67.57 24.42 66.53 24.77 66.09 25.12 69.35 25.47 71.12 25.82 66.83 26.17 68.9 26.52 69.64 26.87 69.94 27.22 69.94 27.57 69.64 27.92 68.16 28.27 69.94 28.61 69.05 28.96 68.46 29.31 67.86 29.66 68.01 30.01 65.94 30.36 69.64 30.71 72.01 31.06 71.57 31.41 70.97 31.76 69.05 32.11 69.05 32.45 68.6 32.8 69.79 33.15 71.27 33.5 73.2 33.85 73.94 34.2 75.57 34.55 73.49 34.9 70.38 35.25 70.53 35.6 73.05 35.95 76.16 36.3 76.31 36.64 75.42 36.99 73.64 37.34 76.6 37.69 80.16 38.04 84.01 38.39 84.16 38.74 82.68 39.09 82.23 39.44 81.34 39.79 79.57 40.14 78.38 40.49 78.38 40.83 77.64 41.18 77.64 41.53 75.71 41.88 74.68 42.23 76.9 42.58 75.57 42.93 76.6 43.28 75.27 43.63 80.9 43.98 84.45 44.33 83.42 44.67 85.94 45.02 82.82 45.37 81.94 45.72 80.01 46.07 83.86 46.42 84.31 46.77 81.94 47.12 78.23 47.47 77.34 47.82 76.46 48.17 75.86 48.52 76.9 48.86 81.2 49.21 78.53 49.56 78.83 49.91 76.9 50.26 78.53 50.61 77.49 50.96 78.68 51.31 76.9 51.66 78.38 52.01 73.2 52.36 71.72 52.7 69.05 53.05 68.46 53.4 69.79 53.75 70.68 54.1 69.79 54.45 70.53 54.8 66.68 55.15 68.46 55.5 67.72 55.85 64.46 56.2 62.68 56.55 60.46 56.89 61.64 57.24 63.57 57.59 65.05 57.94 62.98 58.29 61.2 58.64 61.79 58.99 60.9 59.34 61.49 59.69 60.01 60.04 61.49 60.39 59.86 60.73 60.01 61.08 61.64 61.43 65.79 61.78 67.27 62.13 70.09 62.48 72.75 62.83 70.83 63.18 70.09 63.53 68.75 63.88 68.46 64.23 69.49 64.58 71.42 64.92 71.57 65.27 72.31 65.62 75.57 65.97 74.38 66.32 74.68 66.67 76.46 67.02 77.05 67.37 74.68 67.72 74.53 68.07 77.79 68.42 80.16 68.77 80.01 69.11 81.79 69.46 84.16 69.81 80.01 70.16 74.97 70.51 74.97 70.86 73.64 71.21 73.49 71.56 74.83 71.91 74.68 72.26 73.34 72.61 73.79 72.95 75.42 73.3 77.64 73.65 78.23 74 81.79 74.35 80.6 74.7 80.16 75.05 83.71 75.4 83.86 75.75 81.64 76.1 80.31 76.45 81.49 76.8 80.45 77.14 80.16 77.49 81.05 77.84 83.42 78.19 83.71 78.54 84.16 78.89 81.94 79.24 81.2 79.59 81.94 79.94 84.45 80.29 85.34 80.64 82.53 80.98 84.75 81.33 87.42 81.68 88.45 82.03 91.12 82.38 92.6 82.73 92.31 83.08 95.12 83.43 97.34 83.78 100.01 84.13 101.34 84.48 105.49 84.83 105.19 85.17 104.16 85.52 105.34 85.87 104.3 86.22 106.23 86.57 105.19 86.92 107.12 87.27 108.9 87.62 108.15 87.97 108.6 88.32 110.08 88.67 112.9 89.02 111.56 89.36 111.41 89.71 109.64 90.06 109.64 90.41 110.23 90.76 109.49 91.11 107.56 91.46 108.01 91.81 103.41 92.16 106.08 92.51 103.41 92.86 102.53 93.2 102.23 93.55 105.49 93.9 104.3 94.25 104.9 94.6 105.04 94.95 101.79 95.3 102.08 95.65 104.6 96 104.9 96.35 103.56 96.7 101.34 97.05 102.23 97.39 102.82 97.74 102.82 98.09 102.08 98.44 99.86 98.79 99.27 99.14 97.49 99.49 97.49 99.84 102.53 100.19 105.04 100.54 105.04 100.89 103.56 101.23 102.82 101.58 101.49 101.93 100.01 102.28 97.19 102.63 100.16 102.98 97.79 103.33 101.34 103.68 102.67 104.03 102.53 104.38 105.64 104.73 102.53 105.08 102.23 105.42 103.41 105.77 102.53 106.12 102.82 106.47 103.86 106.82 104.6 107.17 101.79 107.52 99.27 107.87 100.75 108.22 100.6 108.57 101.64 108.92 100.45 109.26 101.49 109.61 103.27 109.96 101.34 110.31 100.6 110.66 100.16 111.01 98.97 111.36 99.12 111.71 100.01 112.06 99.56 112.41 98.53 112.76 97.05 113.11 95.27 113.45 92.45 113.8 93.19 114.15 91.42 114.5 90.68 114.85 91.12 115.2 89.34 115.55 88.9 115.9 87.12 116.25 90.68 116.6 90.68 116.95 90.82 117.3 91.71 117.64 93.64 117.99 97.19 118.34 97.19 118.69 94.97 119.04 97.64 119.39 100.9 119.74 102.82 120.09 101.93 120.44 104.6 120.79 105.64 121.14 104.9 121.48 105.34 121.83 102.53 122.18 102.38 122.53 102.97 122.88 102.23 123.23 102.53 123.58 102.53 123.93 103.12 124.28 102.82 124.63 103.41 124.98 100.3 125.33 98.82 125.67 99.86 126.02 100.45 126.37 102.82 126.72 104.01 127.07 103.86 127.42 103.27 127.77 102.08 128.12 101.04 128.47 102.38 128.82 102.23 129.17 102.23 129.51 103.56 129.86 105.93 130.21 102.23 130.56 104.01 130.91 102.53 131.26 99.56 131.61 99.12 131.96 100.3 132.31 99.56 132.66 101.04 133.01 103.12 133.36 101.34 133.7 102.38 134.05 102.08 134.4 105.19 134.75 106.53 135.1 105.78 135.45 106.67 135.8 107.71 136.15 107.86 136.5 106.82 136.85 106.08 137.2 107.41 137.55 105.34 137.89 107.71 138.24 108.6 138.59 108.15 138.94 109.49 139.29 107.27 139.64 108.45 139.99 110.23 140.34 109.04 140.69 109.93 141.04 113.04 141.39 114.08 141.73 114.52 142.08 113.04 142.43 113.78 142.78 115.86 143.13 115.71 143.48 115.27 143.83 114.97 144.18 115.12 144.53 115.27 144.88 114.08 145.23 112.6 145.58 112.45 145.92 112.15 146.27 109.04 146.62 106.67 146.97 108.9 147.32 106.67 147.67 104.45 148.02 103.56 148.37 103.86 148.72 106.82 149.07 106.82 149.42 106.23 149.76 104.3 150.11 106.08 150.46 108.3 150.81 107.27 151.16 107.12 151.51 106.53 151.86 109.34 152.21 110.38 152.56 110.82 152.91 110.38 153.26 110.97 153.61 110.97 153.95 110.53 154.3 110.82 154.65 108.45 155 106.38 155.35 105.34 155.7 104.3 156.05 104.16 156.4 107.27 156.75 106.08 157.1 107.12 157.45 106.67 157.79 108.45 158.14 109.34 158.49 108.75 158.84 109.04 159.19 108.75 159.54 107.41 159.89 107.27 160.24 108.01 160.59 108.9 160.94 111.41 161.29 115.56 161.64 115.12 161.98 115.27 162.33 113.49 162.68 112.75 163.03 113.04 163.38 113.04 163.73 113.49 164.08 114.38 164.43 112.75 164.78 111.27 165.13 111.12 165.48 110.38 165.83 108.9 166.17 109.19 166.52 107.71 166.87 108.15 167.22 108.9 167.57 108.6 167.92 109.64 168.27 109.49 168.62 110.38 168.97 108.9 169.32 108.6 169.67 108.01 170.01 110.23 170.36 109.78 170.71 111.27 171.06 110.53 171.41 109.64 171.76 110.97 172.11 115.41 172.46 116.6 172.81 114.38 173.16 115.27 173.51 115.86 173.86 114.67 174.2 114.67 174.55 116.01 174.9 115.41 175.25 114.82 175.6 114.82 175.95 117.19 176.3 117.49 176.65 117.78 177 117.34 177.35 116.75 177.7 119.86 178.04 119.41 178.39 120.75 178.74 119.41 179.09 118.97 179.44 120.6 179.79 121.19 180.14 120.3 180.49 121.93 180.84 121.78 181.19 121.63 181.54 121.19 181.89 121.04 182.23 121.78 182.58 122.23 182.93 121.63 183.28 120.89 183.63 120.45 183.98 120.89 184.33 120.6 184.68 121.04 185.03 119.71 185.38 118.38 185.73 115.71 186.08 116.45 186.42 119.56 186.77 120.3 187.12 118.67 187.47 118.23 187.82 120.75 188.17 121.49 188.52 120.45 188.87 120.3 189.22 121.49 189.57 121.49 189.92 122.38 190.26 121.19 190.61 121.63 190.96 120.75 191.31 122.23 191.66 121.04 192.01 121.19 192.36 121.34 192.71 122.38 193.06 123.71 193.41 122.97 193.76 121.63 194.11 122.23 194.45 122.97 194.8 123.56 195.15 122.97 195.5 121.34 195.85 121.78 196.2 121.78"/>
      </g>
      <g stroke-width="0.3" fill="#000000" fill-opacity="0.000" class="geometry" stroke-dasharray="none" stroke="#FEE08B" id="img-6db52877-15">
        <path fill="none" d="M21.98,79.27 L 22.33 77.2 22.68 75.57 23.03 75.42 23.38 74.97 23.73 76.01 24.08 75.42 24.42 72.46 24.77 73.79 25.12 74.09 25.47 73.34 25.82 72.01 26.17 70.53 26.52 68.75 26.87 70.38 27.22 72.6 27.57 72.75 27.92 69.94 28.27 69.49 28.61 67.72 28.96 64.46 29.31 64.31 29.66 63.42 30.01 63.12 30.36 65.05 30.71 67.57 31.06 69.2 31.41 72.01 31.76 72.9 32.11 74.38 32.45 73.49 32.8 70.68 33.15 73.64 33.5 73.94 33.85 71.86 34.2 79.12 34.55 82.23 34.9 84.6 35.25 83.57 35.6 85.94 35.95 82.68 36.3 83.12 36.64 88.16 36.99 83.42 37.34 86.23 37.69 82.68 38.04 84.16 38.39 83.71 38.74 83.57 39.09 80.01 39.44 77.94 39.79 80.16 40.14 81.2 40.49 78.97 40.83 82.68 41.18 81.34 41.53 82.53 41.88 86.23 42.23 83.12 42.58 85.34 42.93 83.27 43.28 81.94 43.63 79.57 43.98 80.9 44.33 84.16 44.67 83.57 45.02 85.19 45.37 88.01 45.72 86.23 46.07 83.71 46.42 81.05 46.77 79.27 47.12 78.68 47.47 74.38 47.82 73.2 48.17 74.68 48.52 70.97 48.86 71.57 49.21 72.16 49.56 71.42 49.91 70.53 50.26 70.38 50.61 74.09 50.96 77.05 51.31 76.9 51.66 80.31 52.01 80.16 52.36 80.75 52.7 78.08 53.05 76.16 53.4 73.94 53.75 72.16 54.1 70.68 54.45 69.35 54.8 70.23 55.15 73.49 55.5 70.97 55.85 74.09 56.2 70.83 56.55 72.01 56.89 72.6 57.24 74.38 57.59 75.57 57.94 74.83 58.29 72.16 58.64 73.64 58.99 74.97 59.34 74.83 59.69 77.2 60.04 79.27 60.39 80.75 60.73 83.27 61.08 82.08 61.43 82.08 61.78 81.34 62.13 82.82 62.48 82.53 62.83 82.68 63.18 81.64 63.53 84.31 63.88 86.82 64.23 88.16 64.58 87.42 64.92 89.19 65.27 90.08 65.62 88.01 65.97 86.82 66.32 84.31 66.67 83.42 67.02 79.71 67.37 77.49 67.72 80.75 68.07 82.08 68.42 81.34 68.77 82.38 69.11 84.16 69.46 81.34 69.81 82.38 70.16 81.79 70.51 79.86 70.86 80.16 71.21 77.05 71.56 77.94 71.91 76.31 72.26 75.42 72.61 74.53 72.95 72.6 73.3 70.68 73.65 70.23 74 73.79 74.35 74.68 74.7 73.79 75.05 74.83 75.4 78.97 75.75 80.45 76.1 82.08 76.45 79.86 76.8 84.01 77.14 83.12 77.49 85.05 77.84 85.79 78.19 85.34 78.54 84.6 78.89 85.79 79.24 87.42 79.59 88.6 79.94 85.34 80.29 90.23 80.64 89.05 80.98 86.23 81.33 84.75 81.68 86.38 82.03 85.94 82.38 81.2 82.73 83.12 83.08 81.34 83.43 82.23 83.78 83.12 84.13 78.08 84.48 74.68 84.83 70.97 85.17 70.68 85.52 71.27 85.87 71.72 86.22 72.75 86.57 71.86 86.92 71.12 87.27 71.72 87.62 68.75 87.97 72.01 88.32 71.57 88.67 73.05 89.02 71.86 89.36 71.57 89.71 69.35 90.06 70.83 90.41 73.34 90.76 74.68 91.11 71.12 91.46 68.9 91.81 69.35 92.16 68.31 92.51 66.23 92.86 65.2 93.2 67.72 93.55 71.86 93.9 72.16 94.25 73.2 94.6 73.2 94.95 74.83 95.3 73.79 95.65 71.57 96 69.2 96.35 67.72 96.7 64.16 97.05 63.27 97.39 63.72 97.74 63.72 98.09 62.68 98.44 60.31 98.79 61.05 99.14 59.42 99.49 58.98 99.84 61.64 100.19 61.49 100.54 60.9 100.89 60.16 101.23 58.83 101.58 58.83 101.93 58.83 102.28 54.24 102.63 54.38 102.98 53.05 103.33 52.46 103.68 53.2 104.03 55.12 104.38 52.75 104.73 52.46 105.08 50.98 105.42 51.13 105.77 51.87 106.12 53.2 106.47 55.27 106.82 56.16 107.17 57.2 107.52 57.64 107.87 54.24 108.22 55.12 108.57 54.98 108.92 53.2 109.26 52.9 109.61 52.16 109.96 50.83 110.31 49.64 110.66 47.42 111.01 48.31 111.36 49.94 111.71 50.53 112.06 49.64 112.41 52.9 112.76 56.31 113.11 55.57 113.45 55.27 113.8 56.31 114.15 57.05 114.5 59.72 114.85 58.09 115.2 58.24 115.55 59.86 115.9 59.27 116.25 57.79 116.6 57.94 116.95 57.79 117.3 59.42 117.64 61.05 117.99 60.46 118.34 59.12 118.69 60.01 119.04 58.38 119.39 56.75 119.74 58.53 120.09 58.24 120.44 57.2 120.79 56.9 121.14 56.46 121.48 54.53 121.83 52.9 122.18 51.13 122.53 49.64 122.88 51.57 123.23 51.72 123.58 48.61 123.93 51.42 124.28 50.83 124.63 51.13 124.98 52.46 125.33 52.75 125.67 52.31 126.02 49.64 126.37 49.05 126.72 45.2 127.07 45.94 127.42 45.5 127.77 45.64 128.12 46.98 128.47 47.42 128.82 47.72 129.17 45.2 129.51 44.16 129.86 44.02 130.21 43.72 130.56 45.35 130.91 45.79 131.26 45.64 131.61 44.31 131.96 42.09 132.31 42.68 132.66 44.02 133.01 41.64 133.36 42.98 133.7 40.9 134.05 38.98 134.4 40.16 134.75 41.35 135.1 41.35 135.45 42.09 135.8 41.35 136.15 42.39 136.5 42.09 136.85 39.87 137.2 40.76 137.55 38.98 137.89 40.16 138.24 39.27 138.59 37.65 138.94 38.09 139.29 37.5 139.64 35.13 139.99 36.46 140.34 35.87 140.69 35.72 141.04 36.02 141.39 35.42 141.73 37.5 142.08 36.16 142.43 36.31 142.78 37.05 143.13 38.83 143.48 37.79 143.83 38.09 144.18 39.57 144.53 40.76 144.88 41.05 145.23 40.02 145.58 39.27 145.92 39.27 146.27 38.98 146.62 38.39 146.97 37.94 147.32 39.42 147.67 41.5 148.02 40.76 148.37 41.5 148.72 41.35 149.07 43.57 149.42 43.42 149.76 45.5 150.11 45.5 150.46 46.68 150.81 49.64 151.16 48.76 151.51 51.87 151.86 54.38 152.21 55.12 152.56 54.83 152.91 58.38 153.26 61.49 153.61 63.72 153.95 65.2 154.3 64.16 154.65 62.38 155 64.16 155.35 61.05 155.7 61.94 156.05 62.83 156.4 61.35 156.75 63.27 157.1 60.75 157.45 61.64 157.79 62.09 158.14 60.16 158.49 62.38 158.84 59.86 159.19 57.05 159.54 56.75 159.89 54.98 160.24 51.13 160.59 50.68 160.94 50.83 161.29 52.01 161.64 51.57 161.98 52.61 162.33 52.31 162.68 52.9 163.03 52.75 163.38 53.94 163.73 55.42 164.08 55.87 164.43 55.12 164.78 53.35 165.13 52.61 165.48 50.24 165.83 48.61 166.17 49.35 166.52 49.64 166.87 51.42 167.22 50.24 167.57 46.98 167.92 47.13 168.27 45.5 168.62 44.61 168.97 43.87 169.32 42.24 169.67 43.57 170.01 43.42 170.36 43.13 170.71 44.46 171.06 42.24 171.41 41.94 171.76 42.09 172.11 42.68 172.46 42.83 172.81 43.57 173.16 40.76 173.51 40.61 173.86 38.98 174.2 36.61 174.55 36.61 174.9 38.24 175.25 38.68 175.6 37.5 175.95 36.76 176.3 37.79 176.65 38.39 177 37.94 177.35 39.57 177.7 36.61 178.04 37.35 178.39 39.42 178.74 38.09 179.09 37.2 179.44 36.46 179.79 36.16 180.14 36.02 180.49 37.35 180.84 37.79 181.19 37.5 181.54 35.57 181.89 34.24 182.23 34.09 182.58 34.24 182.93 33.79 183.28 33.05 183.63 34.68 183.98 33.35 184.33 33.5 184.68 33.05 185.03 32.46 185.38 31.72 185.73 30.98 186.08 31.13 186.42 31.57 186.77 32.16 187.12 32.16 187.47 32.76 187.82 33.05 188.17 33.35 188.52 33.2 188.87 32.46 189.22 31.87 189.57 33.05 189.92 32.61 190.26 30.68 190.61 29.79 190.96 29.79 191.31 28.91 191.66 28.61 192.01 28.61 192.36 28.91 192.71 29.05 193.06 29.05 193.41 28.76 193.76 28.31 194.11 27.72 194.45 27.87 194.8 27.87 195.15 27.42"/>
      </g>
      <g stroke-width="0.3" fill="#000000" fill-opacity="0.000" class="geometry" stroke-dasharray="none" stroke="#FDAE61" id="img-6db52877-16">
        <path fill="none" d="M21.98,79.27 L 22.33 80.6 22.68 81.34 23.03 80.45 23.38 85.05 23.73 82.68 24.08 82.68 24.42 80.01 24.77 78.83 25.12 79.12 25.47 75.86 25.82 75.71 26.17 74.38 26.52 78.38 26.87 78.53 27.22 81.34 27.57 78.68 27.92 80.75 28.27 81.05 28.61 82.08 28.96 82.53 29.31 84.16 29.66 86.38 30.01 86.97 30.36 87.27 30.71 86.08 31.06 83.27 31.41 83.27 31.76 87.57 32.11 89.05 32.45 89.34 32.8 88.31 33.15 89.79 33.5 90.82 33.85 90.82 34.2 88.31 34.55 88.31 34.9 89.34 35.25 87.27 35.6 88.16 35.95 89.05 36.3 86.08 36.64 85.94 36.99 84.31 37.34 86.23 37.69 86.08 38.04 84.45 38.39 84.45 38.74 87.42 39.09 85.19 39.44 87.57 39.79 85.49 40.14 88.9 40.49 86.38 40.83 87.71 41.18 85.34 41.53 84.6 41.88 88.6 42.23 89.19 42.58 88.9 42.93 91.12 43.28 90.53 43.63 89.49 43.98 89.05 44.33 86.68 44.67 84.01 45.02 86.53 45.37 86.97 45.72 86.38 46.07 84.45 46.42 85.05 46.77 86.38 47.12 85.34 47.47 82.97 47.82 85.05 48.17 86.08 48.52 84.6 48.86 87.57 49.21 84.6 49.56 84.31 49.91 85.64 50.26 82.97 50.61 82.23 50.96 82.08 51.31 82.68 51.66 84.01 52.01 84.31 52.36 86.53 52.7 86.82 53.05 88.31 53.4 86.82 53.75 88.16 54.1 87.71 54.45 87.71 54.8 88.16 55.15 86.82 55.5 89.64 55.85 91.42 56.2 92.16 56.55 92.31 56.89 93.19 57.24 94.53 57.59 96.3 57.94 97.49 58.29 99.56 58.64 100.45 58.99 99.86 59.34 99.12 59.69 101.64 60.04 102.23 60.39 102.82 60.73 104.6 61.08 104.6 61.43 104.45 61.78 106.97 62.13 109.78 62.48 111.86 62.83 114.67 63.18 117.34 63.53 119.12 63.88 119.41 64.23 120.3 64.58 118.82 64.92 115.56 65.27 113.04 65.62 113.19 65.97 115.56 66.32 115.27 66.67 118.23 67.02 117.34 67.37 118.23 67.72 117.34 68.07 116.3 68.42 116.6 68.77 116.01 69.11 113.64 69.46 114.52 69.81 113.49 70.16 116.3 70.51 113.64 70.86 114.67 71.21 117.19 71.56 114.23 71.91 116.3 72.26 117.93 72.61 117.93 72.95 117.04 73.3 116.01 73.65 117.34 74 116.75 74.35 115.71 74.7 117.04 75.05 117.34 75.4 117.93 75.75 118.38 76.1 117.34 76.45 116.89 76.8 115.71 77.14 116.45 77.49 118.08 77.84 116.3 78.19 117.49 78.54 115.12 78.89 115.12 79.24 114.23 79.59 114.08 79.94 114.08 80.29 116.01 80.64 116.3 80.98 116.45 81.33 115.71 81.68 113.19 82.03 113.04 82.38 115.71 82.73 115.41 83.08 116.01 83.43 115.12 83.78 114.38 84.13 113.19 84.48 111.41 84.83 113.34 85.17 112.3 85.52 111.12 85.87 110.08 86.22 109.78 86.57 111.56 86.92 111.71 87.27 112.75 87.62 112.45 87.97 114.23 88.32 114.82 88.67 112.6 89.02 114.08 89.36 113.19 89.71 114.23 90.06 112.9 90.41 114.52 90.76 117.49 91.11 120.15 91.46 119.12 91.81 120.3 92.16 119.86 92.51 120.3 92.86 118.67 93.2 117.93 93.55 116.75 93.9 117.93 94.25 119.12 94.6 119.12 94.95 121.04 95.3 121.78 95.65 119.12 96 119.41 96.35 120.75 96.7 120.75 97.05 121.63 97.39 121.93 97.74 122.82 98.09 122.97 98.44 122.67 98.79 120.01 99.14 121.93 99.49 122.52 99.84 119.86 100.19 120.15 100.54 121.04 100.89 120.6 101.23 122.08 101.58 120.89 101.93 122.08 102.28 122.82 102.63 124 102.98 122.67 103.33 121.34 103.68 120.15 104.03 119.26 104.38 119.71 104.73 118.97 105.08 116.6 105.42 117.34 105.77 119.56 106.12 119.71 106.47 120.01 106.82 121.93 107.17 122.67 107.52 123.41 107.87 122.38 108.22 122.23 108.57 121.93 108.92 123.26 109.26 123.26 109.61 124.45 109.96 125.63 110.31 127.26 110.66 127.26 111.01 127.56 111.36 126.37 111.71 125.49 112.06 125.78 112.41 125.04 112.76 124.3 113.11 123.71 113.45 121.93 113.8 122.67 114.15 121.49 114.5 121.93 114.85 122.38 115.2 121.63 115.55 122.82 115.9 122.67 116.25 121.78 116.6 122.97 116.95 123.71 117.3 122.23 117.64 122.67 117.99 121.78 118.34 118.97 118.69 118.52 119.04 119.26 119.39 119.56 119.74 120.89 120.09 121.63 120.44 119.71 120.79 119.12 121.14 117.04 121.48 118.38 121.83 120.6 122.18 121.04 122.53 118.97 122.88 119.71 123.23 118.82 123.58 120.45 123.93 121.49 124.28 121.49 124.63 121.63 124.98 121.49 125.33 123.26 125.67 124.89 126.02 124 126.37 124.89 126.72 125.78 127.07 126.23 127.42 125.78 127.77 126.67 128.12 127.41 128.47 126.97 128.82 126.52 129.17 125.78 129.51 124.45 129.86 125.19 130.21 125.63 130.56 126.82 130.91 126.67 131.26 126.23 131.61 126.23 131.96 126.23 132.31 127.26 132.66 127.56 133.01 126.37 133.36 126.97 133.7 126.52 134.05 125.19 134.4 125.34 134.75 125.49 135.1 126.08 135.45 125.49 135.8 125.04 136.15 124.89 136.5 124 136.85 124.45 137.2 125.19 137.55 125.78 137.89 126.08 138.24 124.3 138.59 122.67 138.94 122.67 139.29 120.89 139.64 122.82 139.99 122.67 140.34 122.38 140.69 123.41 141.04 121.19 141.39 120.45 141.73 121.78 142.08 123.26 142.43 122.97 142.78 121.93 143.13 122.67 143.48 121.63 143.83 121.19 144.18 120.3 144.53 122.23 144.88 122.82 145.23 122.08 145.58 122.67 145.92 124.15 146.27 122.52 146.62 123.56 146.97 123.12 147.32 119.86 147.67 121.19 148.02 122.52 148.37 120.45 148.72 119.56 149.07 118.82 149.42 118.23 149.76 118.82 150.11 116.45 150.46 113.34 150.81 112.6 151.16 109.93 151.51 108.9 151.86 109.64 152.21 107.71 152.56 106.53 152.91 105.04 153.26 106.97 153.61 108.6 153.95 109.93 154.3 108.3 154.65 109.19 155 108.6 155.35 105.64 155.7 105.64 156.05 105.78 156.4 104.01 156.75 103.71 157.1 104.75 157.45 108.6 157.79 107.86 158.14 112.45 158.49 113.78 158.84 115.41 159.19 116.15 159.54 112.75 159.89 111.86 160.24 111.41 160.59 115.12 160.94 115.56 161.29 117.93 161.64 119.71 161.98 118.08 162.33 117.04 162.68 117.64 163.03 118.52 163.38 119.86 163.73 122.82 164.08 121.78 164.43 122.23 164.78 122.67 165.13 124.89 165.48 126.23 165.83 126.82 166.17 125.49 166.52 125.19 166.87 124.6 167.22 124.3 167.57 123.26 167.92 123.56 168.27 124.89 168.62 125.34 168.97 124.15 169.32 124.15 169.67 125.04 170.01 125.63 170.36 126.52 170.71 124.75 171.06 125.63 171.41 126.37 171.76 125.49 172.11 125.19 172.46 124.89 172.81 124 173.16 122.38 173.51 122.52 173.86 124 174.2 122.67 174.55 122.38 174.9 121.19 175.25 122.08 175.6 121.93 175.95 121.04 176.3 119.86 176.65 121.04 177 119.12 177.35 120.89 177.7 118.52 178.04 118.97 178.39 119.12 178.74 118.67 179.09 118.97 179.44 118.67 179.79 118.08 180.14 117.93 180.49 117.78 180.84 119.26 181.19 117.19 181.54 117.78 181.89 117.78 182.23 117.49 182.58 119.12 182.93 120.15 183.28 118.08 183.63 117.64 183.98 120.45 184.33 118.67 184.68 119.86 185.03 119.26 185.38 117.64 185.73 117.78 186.08 116.45 186.42 115.41 186.77 116.75 187.12 117.04 187.47 117.34 187.82 117.49 188.17 117.93 188.52 118.08 188.87 117.19 189.22 119.56 189.57 116.6 189.92 115.41 190.26 117.04 190.61 117.04 190.96 119.12 191.31 120.75 191.66 121.63 192.01 120.6 192.36 119.26 192.71 120.01 193.06 119.56 193.41 119.86 193.76 118.82 194.11 120.75 194.45 123.41 194.8 122.23 195.15 120.15 195.5 120.01 195.85 122.38 196.2 122.38"/>
      </g>
      <g stroke-width="0.3" fill="#000000" fill-opacity="0.000" class="geometry" stroke-dasharray="none" stroke="#F46D43" id="img-6db52877-17">
        <path fill="none" d="M21.98,79.27 L 22.33 76.46 22.68 72.9 23.03 72.01 23.38 70.38 23.73 75.12 24.08 74.83 24.42 73.2 24.77 73.2 25.12 74.38 25.47 73.34 25.82 72.01 26.17 73.49 26.52 73.34 26.87 73.2 27.22 67.42 27.57 67.72 27.92 66.53 28.27 65.49 28.61 64.16 28.96 66.09 29.31 68.16 29.66 68.16 30.01 67.86 30.36 69.2 30.71 71.12 31.06 70.09 31.41 70.68 31.76 70.68 32.11 69.94 32.45 67.72 32.8 68.31 33.15 67.27 33.5 66.98 33.85 65.79 34.2 65.05 34.55 65.05 34.9 64.75 35.25 66.09 35.6 67.27 35.95 68.31 36.3 68.46 36.64 71.27 36.99 71.86 37.34 72.46 37.69 74.38 38.04 77.05 38.39 77.94 38.74 82.08 39.09 81.49 39.44 79.86 39.79 81.64 40.14 78.53 40.49 77.34 40.83 75.57 41.18 77.64 41.53 78.38 41.88 75.57 42.23 75.57 42.58 78.23 42.93 75.42 43.28 76.75 43.63 76.6 43.98 78.08 44.33 78.38 44.67 78.83 45.02 81.2 45.37 83.86 45.72 83.86 46.07 84.9 46.42 87.42 46.77 85.79 47.12 87.42 47.47 92.16 47.82 91.86 48.17 90.68 48.52 91.12 48.86 89.49 49.21 89.05 49.56 88.31 49.91 91.27 50.26 93.93 50.61 92.9 50.96 93.05 51.31 93.05 51.66 90.68 52.01 89.49 52.36 89.79 52.7 91.42 53.05 91.71 53.4 92.31 53.75 90.82 54.1 90.38 54.45 90.23 54.8 88.01 55.15 87.57 55.5 87.42 55.85 89.79 56.2 87.27 56.55 87.71 56.89 86.38 57.24 87.42 57.59 88.16 57.94 89.05 58.29 90.08 58.64 88.16 58.99 86.97 59.34 87.57 59.69 87.86 60.04 90.08 60.39 92.9 60.73 90.68 61.08 89.19 61.43 86.97 61.78 87.27 62.13 86.97 62.48 84.75 62.83 82.82 63.18 82.38 63.53 84.75 63.88 86.68 64.23 87.42 64.58 87.42 64.92 88.45 65.27 92.16 65.62 90.97 65.97 92.6 66.32 89.94 66.67 91.27 67.02 90.23 67.37 92.6 67.72 94.68 68.07 95.86 68.42 92.31 68.77 90.08 69.11 91.71 69.46 94.08 69.81 93.34 70.16 92.45 70.51 89.05 70.86 86.82 71.21 86.97 71.56 89.49 71.91 86.97 72.26 89.94 72.61 86.23 72.95 89.34 73.3 89.94 73.65 91.12 74 91.56 74.35 94.53 74.7 95.12 75.05 98.53 75.4 100.16 75.75 101.79 76.1 100.75 76.45 101.64 76.8 102.82 77.14 101.49 77.49 103.27 77.84 103.12 78.19 102.38 78.54 101.79 78.89 102.08 79.24 102.53 79.59 100.01 79.94 96.45 80.29 95.86 80.64 100.75 80.98 97.49 81.33 98.82 81.68 98.82 82.03 101.04 82.38 101.64 82.73 100.01 83.08 102.08 83.43 100.01 83.78 98.97 84.13 97.79 84.48 97.79 84.83 95.12 85.17 93.05 85.52 89.94 85.87 90.53 86.22 91.27 86.57 92.75 86.92 93.34 87.27 93.05 87.62 91.12 87.97 89.79 88.32 92.6 88.67 89.64 89.02 87.86 89.36 87.86 89.71 87.71 90.06 86.08 90.41 83.71 90.76 83.12 91.11 82.23 91.46 80.16 91.81 79.12 92.16 80.75 92.51 80.6 92.86 80.75 93.2 80.9 93.55 80.31 93.9 80.31 94.25 79.27 94.6 76.16 94.95 77.79 95.3 78.38 95.65 78.38 96 76.31 96.35 75.42 96.7 72.75 97.05 71.27 97.39 72.01 97.74 71.42 98.09 71.86 98.44 73.64 98.79 74.38 99.14 76.46 99.49 78.08 99.84 80.45 100.19 81.05 100.54 81.94 100.89 81.34 101.23 84.16 101.58 85.19 101.93 87.42 102.28 84.75 102.63 84.01 102.98 86.97 103.33 85.34 103.68 85.34 104.03 87.12 104.38 87.12 104.73 88.45 105.08 89.49 105.42 92.01 105.77 92.6 106.12 92.31 106.47 90.68 106.82 92.75 107.17 93.34 107.52 92.45 107.87 91.56 108.22 87.12 108.57 84.16 108.92 84.75 109.26 85.19 109.61 89.49 109.96 88.31 110.31 89.19 110.66 86.97 111.01 89.34 111.36 89.34 111.71 86.53 112.06 84.75 112.41 85.19 112.76 84.31 113.11 83.71 113.45 87.57 113.8 84.9 114.15 85.19 114.5 84.9 114.85 88.75 115.2 89.34 115.55 90.97 115.9 91.12 116.25 93.64 116.6 90.82 116.95 91.42 117.3 90.68 117.64 88.75 117.99 88.75 118.34 90.97 118.69 91.86 119.04 93.49 119.39 93.34 119.74 92.31 120.09 92.16 120.44 90.08 120.79 91.27 121.14 90.08 121.48 87.86 121.83 90.38 122.18 90.82 122.53 92.9 122.88 95.56 123.23 96.16 123.58 96.9 123.93 96.01 124.28 95.42 124.63 92.6 124.98 94.08 125.33 97.64 125.67 98.38 126.02 100.9 126.37 100.3 126.72 98.53 127.07 99.12 127.42 98.08 127.77 100.01 128.12 100.3 128.47 97.93 128.82 98.23 129.17 98.23 129.51 96.9 129.86 95.56 130.21 95.71 130.56 94.23 130.91 94.68 131.26 94.82 131.61 95.12 131.96 94.23 132.31 91.56 132.66 91.71 133.01 93.19 133.36 95.12 133.7 97.34 134.05 98.08 134.4 97.93 134.75 98.97 135.1 99.42 135.45 98.08 135.8 98.82 136.15 97.34 136.5 100.01 136.85 99.86 137.2 99.56 137.55 101.04 137.89 102.08 138.24 103.27 138.59 101.19 138.94 102.38 139.29 104.9 139.64 106.97 139.99 106.53 140.34 108.75 140.69 108.45 141.04 110.82 141.39 113.93 141.73 112.15 142.08 113.93 142.43 113.49 142.78 111.86 143.13 110.97 143.48 109.04 143.83 109.34 144.18 110.67 144.53 109.64 144.88 107.12 145.23 106.97 145.58 108.9 145.92 110.38 146.27 106.82 146.62 111.12 146.97 111.86 147.32 109.04 147.67 108.75 148.02 109.19 148.37 106.97 148.72 108.45 149.07 105.34 149.42 106.97 149.76 105.78 150.11 106.67 150.46 105.19 150.81 103.12 151.16 102.23 151.51 103.12 151.86 102.53 152.21 102.23 152.56 104.16 152.91 102.97 153.26 102.38 153.61 103.12 153.95 104.75 154.3 107.41 154.65 106.82 155 107.27 155.35 108.75 155.7 109.34 156.05 109.78 156.4 106.82 156.75 110.97 157.1 112.6 157.45 112.3 157.79 108.6 158.14 108.45 158.49 108.3 158.84 108.45 159.19 106.67 159.54 106.67 159.89 107.41 160.24 110.53 160.59 109.34 160.94 108.45 161.29 109.19 161.64 109.64 161.98 109.34 162.33 110.23 162.68 108.9 163.03 109.49 163.38 110.82 163.73 108.6 164.08 106.82 164.43 106.53 164.78 103.56 165.13 103.86 165.48 104.75 165.83 104.3 166.17 105.34 166.52 104.9 166.87 105.04 167.22 106.23 167.57 104.9 167.92 106.23 168.27 104.45 168.62 102.08 168.97 102.38 169.32 102.67 169.67 101.79 170.01 102.97 170.36 102.53 170.71 99.56 171.06 100.75 171.41 103.56 171.76 104.01 172.11 107.86 172.46 108.15 172.81 107.27 173.16 108.75 173.51 110.53 173.86 109.34 174.2 112.3 174.55 110.97 174.9 112.15 175.25 110.97 175.6 110.38 175.95 108.3 176.3 105.64 176.65 104.16 177 105.78 177.35 108.15 177.7 109.64 178.04 111.12 178.39 111.27 178.74 114.08 179.09 114.82 179.44 114.97 179.79 114.38 180.14 115.41 180.49 116.15 180.84 115.56 181.19 114.23 181.54 112.45 181.89 111.86 182.23 110.82 182.58 111.71 182.93 111.27 183.28 110.67 183.63 109.49 183.98 112.3 184.33 113.93 184.68 114.97 185.03 116.3 185.38 117.34 185.73 119.56 186.08 119.41 186.42 120.01 186.77 120.6 187.12 120.15 187.47 120.3 187.82 121.93 188.17 122.23 188.52 121.04 188.87 120.75 189.22 120.89 189.57 121.04 189.92 121.04 190.26 120.75 190.61 120.75 190.96 118.52 191.31 119.71 191.66 121.63 192.01 120.89 192.36 120.01 192.71 119.41 193.06 117.04 193.41 115.41 193.76 115.56 194.11 114.52 194.45 114.38 194.8 116.45 195.15 115.12 195.5 115.41 195.85 115.86 196.2 114.82"/>
      </g>
      <g stroke-width="0.3" fill="#000000" fill-opacity="0.000" class="geometry" stroke-dasharray="none" stroke="#D53E4F" id="img-6db52877-18">
        <path fill="none" d="M21.98,79.27 L 22.33 76.75 22.68 79.42 23.03 81.2 23.38 80.16 23.73 82.53 24.08 84.31 24.42 81.94 24.77 81.49 25.12 79.27 25.47 79.86 25.82 76.9 26.17 75.71 26.52 74.97 26.87 73.79 27.22 77.2 27.57 74.68 27.92 75.42 28.27 76.75 28.61 76.01 28.96 77.49 29.31 77.05 29.66 77.2 30.01 74.97 30.36 76.16 30.71 77.49 31.06 74.53 31.41 77.34 31.76 74.53 32.11 73.64 32.45 74.97 32.8 78.38 33.15 81.94 33.5 81.79 33.85 83.42 34.2 84.31 34.55 85.19 34.9 86.82 35.25 88.6 35.6 87.12 35.95 86.08 36.3 83.12 36.64 80.01 36.99 78.38 37.34 81.64 37.69 79.27 38.04 79.12 38.39 77.64 38.74 74.53 39.09 74.68 39.44 74.09 39.79 74.38 40.14 76.6 40.49 76.31 40.83 77.2 41.18 77.2 41.53 76.75 41.88 75.71 42.23 73.49 42.58 75.42 42.93 76.01 43.28 77.49 43.63 74.83 43.98 76.31 44.33 75.86 44.67 74.53 45.02 74.09 45.37 76.6 45.72 70.23 46.07 65.35 46.42 66.83 46.77 67.72 47.12 67.27 47.47 69.49 47.82 70.09 48.17 69.94 48.52 67.27 48.86 67.27 49.21 65.49 49.56 62.53 49.91 61.79 50.26 62.53 50.61 61.49 50.96 57.64 51.31 57.79 51.66 54.83 52.01 57.05 52.36 58.53 52.7 60.01 53.05 61.35 53.4 61.64 53.75 61.79 54.1 62.83 54.45 63.57 54.8 63.86 55.15 64.31 55.5 66.38 55.85 69.94 56.2 74.68 56.55 75.57 56.89 74.38 57.24 74.23 57.59 74.68 57.94 76.01 58.29 78.08 58.64 78.08 58.99 79.42 59.34 80.16 59.69 78.53 60.04 78.68 60.39 79.57 60.73 78.68 61.08 79.86 61.43 80.01 61.78 82.23 62.13 85.64 62.48 86.53 62.83 87.71 63.18 89.19 63.53 88.31 63.88 85.94 64.23 83.86 64.58 84.31 64.92 83.71 65.27 81.64 65.62 83.27 65.97 82.53 66.32 85.19 66.67 86.23 67.02 89.64 67.37 90.68 67.72 87.42 68.07 88.31 68.42 82.53 68.77 82.53 69.11 82.08 69.46 79.57 69.81 76.75 70.16 76.01 70.51 76.46 70.86 76.75 71.21 76.31 71.56 76.75 71.91 76.6 72.26 75.86 72.61 73.94 72.95 74.23 73.3 70.97 73.65 69.05 74 67.27 74.35 72.46 74.7 74.68 75.05 76.01 75.4 75.86 75.75 75.86 76.1 75.86 76.45 75.71 76.8 77.64 77.14 80.6 77.49 78.97 77.84 80.9 78.19 78.97 78.54 83.71 78.89 81.05 79.24 80.01 79.59 79.86 79.94 81.34 80.29 84.45 80.64 83.12 80.98 83.57 81.33 82.82 81.68 81.05 82.03 78.53 82.38 77.49 82.73 78.68 83.08 75.12 83.43 71.57 83.78 73.79 84.13 73.64 84.48 73.94 84.83 73.2 85.17 70.09 85.52 69.94 85.87 70.97 86.22 69.94 86.57 65.79 86.92 63.42 87.27 59.72 87.62 60.31 87.97 63.86 88.32 63.42 88.67 60.01 89.02 56.46 89.36 57.35 89.71 56.9 90.06 59.72 90.41 58.68 90.76 57.64 91.11 58.24 91.46 58.83 91.81 58.83 92.16 61.05 92.51 59.57 92.86 61.05 93.2 58.68 93.55 59.72 93.9 59.72 94.25 60.9 94.6 61.35 94.95 60.16 95.3 61.79 95.65 60.16 96 57.2 96.35 55.57 96.7 57.2 97.05 58.53 97.39 56.31 97.74 58.38 98.09 60.16 98.44 64.16 98.79 62.68 99.14 65.94 99.49 66.09 99.84 67.57 100.19 66.38 100.54 65.94 100.89 67.12 101.23 67.72 101.58 67.72 101.93 69.05 102.28 71.86 102.63 75.12 102.98 73.64 103.33 73.05 103.68 74.97 104.03 73.2 104.38 73.49 104.73 74.09 105.08 71.42 105.42 75.71 105.77 72.16 106.12 73.79 106.47 74.53 106.82 74.53 107.17 70.97 107.52 68.46 107.87 72.75 108.22 72.46 108.57 71.86 108.92 73.94 109.26 70.83 109.61 71.72 109.96 73.34 110.31 69.64 110.66 72.9 111.01 70.68 111.36 67.57 111.71 68.01 112.06 68.9 112.41 69.64 112.76 71.12 113.11 70.68 113.45 72.9 113.8 74.83 114.15 70.97 114.5 72.75 114.85 71.72 115.2 69.79 115.55 70.38 115.9 70.09 116.25 69.05 116.6 68.75 116.95 65.79 117.3 64.16 117.64 65.2 117.99 65.49 118.34 65.64 118.69 66.53 119.04 66.38 119.39 65.49 119.74 65.64 120.09 67.12 120.44 70.83 120.79 71.86 121.14 72.01 121.48 71.42 121.83 72.9 122.18 70.23 122.53 71.12 122.88 71.42 123.23 69.79 123.58 68.31 123.93 68.16 124.28 71.57 124.63 71.57 124.98 71.42 125.33 72.75 125.67 74.38 126.02 71.86 126.37 72.16 126.72 69.2 127.07 69.79 127.42 71.42 127.77 75.71 128.12 76.9 128.47 76.16 128.82 73.05 129.17 73.2 129.51 70.53 129.86 72.31 130.21 73.34 130.56 71.12 130.91 72.9 131.26 68.01 131.61 68.01 131.96 67.12 132.31 66.83 132.66 68.16 133.01 66.68 133.36 65.79 133.7 68.46 134.05 69.35 134.4 66.38 134.75 68.01 135.1 67.12 135.45 66.68 135.8 68.46 136.15 67.42 136.5 72.16 136.85 71.57 137.2 69.64 137.55 73.05 137.89 70.97 138.24 71.12 138.59 69.79 138.94 68.16 139.29 68.16 139.64 66.09 139.99 66.83 140.34 68.31 140.69 69.2 141.04 68.75 141.39 68.16 141.73 66.38 142.08 68.01 142.43 65.64 142.78 66.68 143.13 67.12 143.48 68.16 143.83 66.38 144.18 65.35 144.53 63.27 144.88 63.12 145.23 65.35 145.58 64.31 145.92 62.23 146.27 62.09 146.62 64.31 146.97 68.01 147.32 67.86 147.67 66.98 148.02 63.57 148.37 63.86 148.72 67.42 149.07 68.46 149.42 66.98 149.76 68.46 150.11 68.31 150.46 69.05 150.81 65.49 151.16 68.16 151.51 67.86 151.86 64.75 152.21 62.09 152.56 64.31 152.91 64.46 153.26 68.46 153.61 68.75 153.95 68.75 154.3 67.27 154.65 70.09 155 70.23 155.35 70.23 155.7 70.38 156.05 69.64 156.4 66.23 156.75 66.09 157.1 64.9 157.45 64.16 157.79 64.9 158.14 70.09 158.49 69.2 158.84 68.31 159.19 67.12 159.54 66.53 159.89 65.2 160.24 67.42 160.59 68.9 160.94 65.2 161.29 65.94 161.64 68.31 161.98 68.6 162.33 65.94 162.68 65.94 163.03 64.01 163.38 65.64 163.73 68.01 164.08 65.79 164.43 64.46 164.78 66.98 165.13 66.68 165.48 66.83 165.83 68.75 166.17 66.23 166.52 72.01 166.87 71.86 167.22 73.79 167.57 74.23 167.92 73.49 168.27 74.23 168.62 74.83 168.97 74.09 169.32 76.6 169.67 75.86 170.01 74.83 170.36 76.75 170.71 78.97 171.06 77.49 171.41 77.2 171.76 79.12 172.11 75.12 172.46 71.86 172.81 72.01 173.16 72.6 173.51 73.05 173.86 72.9 174.2 72.9 174.55 73.64 174.9 74.68 175.25 73.2 175.6 74.23 175.95 71.57 176.3 67.86 176.65 66.53 177 65.94 177.35 63.86 177.7 64.46 178.04 65.64 178.39 66.23 178.74 69.35 179.09 68.16 179.44 68.6 179.79 66.98 180.14 63.42 180.49 63.27 180.84 63.86 181.19 65.49 181.54 66.09 181.89 64.9 182.23 66.53 182.58 64.31 182.93 65.64 183.28 64.61 183.63 62.98 183.98 63.27 184.33 65.05 184.68 63.12 185.03 65.05 185.38 67.57 185.73 65.49 186.08 66.68 186.42 65.49 186.77 64.46 187.12 66.98 187.47 67.72 187.82 65.2 188.17 61.64 188.52 62.09 188.87 63.42 189.22 64.46 189.57 63.12 189.92 66.98 190.26 68.46 190.61 67.12 190.96 65.2 191.31 65.35 191.66 67.27 192.01 70.53 192.36 68.6 192.71 70.53 193.06 68.46 193.41 70.09 193.76 71.27 194.11 70.97 194.45 71.72 194.8 69.79 195.15 71.42 195.5 70.23 195.85 70.68 196.2 70.83"/>
      </g>
      <g stroke-width="0.3" fill="#000000" fill-opacity="0.000" class="geometry" stroke-dasharray="none" stroke="#9E0142" id="img-6db52877-19">
        <path fill="none" d="M21.98,79.27 L 22.33 78.08 22.68 77.34 23.03 81.64 23.38 80.6 23.73 83.57 24.08 83.86 24.42 80.6 24.77 80.6 25.12 77.34 25.47 76.31 25.82 76.75 26.17 74.38 26.52 70.09 26.87 70.97 27.22 68.46 27.57 66.68 27.92 69.35 28.27 68.01 28.61 68.16 28.96 67.42 29.31 70.09 29.66 70.09 30.01 69.64 30.36 69.2 30.71 69.94 31.06 69.94 31.41 70.09 31.76 69.2 32.11 69.79 32.45 70.09 32.8 68.01 33.15 67.72 33.5 67.57 33.85 68.46 34.2 68.46 34.55 66.68 34.9 69.49 35.25 70.53 35.6 70.38 35.95 69.2 36.3 66.98 36.64 66.38 36.99 65.64 37.34 67.57 37.69 73.49 38.04 69.35 38.39 67.72 38.74 65.35 39.09 67.72 39.44 66.68 39.79 68.6 40.14 65.49 40.49 68.6 40.83 67.86 41.18 73.05 41.53 74.38 41.88 73.05 42.23 72.6 42.58 72.01 42.93 72.31 43.28 71.12 43.63 69.05 43.98 66.38 44.33 68.46 44.67 69.35 45.02 69.64 45.37 70.38 45.72 71.12 46.07 72.16 46.42 72.9 46.77 69.79 47.12 67.72 47.47 70.09 47.82 70.23 48.17 72.6 48.52 73.05 48.86 72.01 49.21 74.09 49.56 72.6 49.91 73.79 50.26 73.64 50.61 72.01 50.96 71.12 51.31 71.86 51.66 69.79 52.01 67.42 52.36 66.98 52.7 68.46 53.05 68.01 53.4 69.94 53.75 69.05 54.1 70.53 54.45 71.72 54.8 68.75 55.15 71.72 55.5 70.53 55.85 68.16 56.2 67.72 56.55 70.68 56.89 72.16 57.24 71.57 57.59 71.86 57.94 73.94 58.29 72.9 58.64 72.75 58.99 69.94 59.34 67.86 59.69 68.75 60.04 69.35 60.39 70.09 60.73 70.09 61.08 71.27 61.43 71.12 61.78 68.31 62.13 67.72 62.48 68.9 62.83 72.16 63.18 70.38 63.53 71.57 63.88 73.79 64.23 73.05 64.58 72.16 64.92 74.53 65.27 74.68 65.62 75.27 65.97 75.86 66.32 73.2 66.67 75.71 67.02 73.94 67.37 75.12 67.72 73.79 68.07 72.6 68.42 69.49 68.77 70.38 69.11 70.38 69.46 69.64 69.81 72.16 70.16 75.42 70.51 76.75 70.86 75.71 71.21 75.57 71.56 76.6 71.91 79.12 72.26 80.31 72.61 82.23 72.95 85.19 73.3 83.27 73.65 82.23 74 82.68 74.35 80.31 74.7 76.9 75.05 74.53 75.4 74.23 75.75 70.09 76.1 69.49 76.45 67.27 76.8 67.86 77.14 66.38 77.49 69.2 77.84 66.68 78.19 69.2 78.54 69.05 78.89 70.68 79.24 69.49 79.59 67.42 79.94 64.31 80.29 65.05 80.64 64.9 80.98 67.86 81.33 67.57 81.68 63.72 82.03 61.94 82.38 62.38 82.73 61.64 83.08 61.64 83.43 60.31 83.78 59.12 84.13 64.61 84.48 64.61 84.83 65.79 85.17 66.53 85.52 66.53 85.87 63.57 86.22 63.86 86.57 65.2 86.92 65.79 87.27 68.46 87.62 65.2 87.97 65.79 88.32 64.61 88.67 65.94 89.02 65.64 89.36 64.9 89.71 63.86 90.06 63.42 90.41 61.94 90.76 61.05 91.11 59.86 91.46 58.24 91.81 58.38 92.16 58.98 92.51 58.68 92.86 58.38 93.2 57.35 93.55 59.57 93.9 60.01 94.25 62.38 94.6 60.75 94.95 58.09 95.3 55.57 95.65 53.05 96 52.31 96.35 51.42 96.7 52.31 97.05 51.87 97.39 54.83 97.74 53.79 98.09 55.57 98.44 55.42 98.79 50.53 99.14 52.46 99.49 52.75 99.84 53.05 100.19 55.42 100.54 54.38 100.89 49.5 101.23 47.87 101.58 48.16 101.93 45.2 102.28 45.2 102.63 43.87 102.98 44.46 103.33 44.16 103.68 42.98 104.03 42.68 104.38 42.09 104.73 42.53 105.08 42.68 105.42 41.64 105.77 42.53 106.12 46.83 106.47 47.13 106.82 47.13 107.17 47.72 107.52 50.24 107.87 49.35 108.22 49.35 108.57 48.61 108.92 48.61 109.26 48.61 109.61 49.94 109.96 50.98 110.31 50.09 110.66 47.13 111.01 48.46 111.36 50.53 111.71 52.9 112.06 52.9 112.41 53.05 112.76 53.05 113.11 54.38 113.45 54.53 113.8 54.83 114.15 55.57 114.5 55.27 114.85 57.05 115.2 56.9 115.55 55.12 115.9 57.35 116.25 57.49 116.6 55.87 116.95 52.16 117.3 52.46 117.64 50.98 117.99 54.24 118.34 52.46 118.69 51.42 119.04 52.75 119.39 50.53 119.74 44.31 120.09 44.16 120.44 45.35 120.79 44.76 121.14 45.35 121.48 47.13 121.83 49.5 122.18 50.09 122.53 48.16 122.88 47.57 123.23 46.39 123.58 46.68 123.93 47.72 124.28 47.42 124.63 48.61 124.98 46.98 125.33 45.64 125.67 47.42 126.02 47.72 126.37 45.2 126.72 44.02 127.07 41.94 127.42 39.72 127.77 41.05 128.12 38.83 128.47 38.98 128.82 39.87 129.17 40.16 129.51 38.68 129.86 39.42 130.21 40.9 130.56 42.68 130.91 44.02 131.26 44.61 131.61 43.87 131.96 42.53 132.31 41.2 132.66 44.9 133.01 44.61 133.36 44.61 133.7 43.42 134.05 43.57 134.4 43.72 134.75 42.98 135.1 43.27 135.45 45.35 135.8 43.87 136.15 44.46 136.5 44.16 136.85 43.87 137.2 43.27 137.55 45.64 137.89 43.87 138.24 44.46 138.59 43.42 138.94 44.31 139.29 43.27 139.64 43.57 139.99 44.31 140.34 47.13 140.69 45.79 141.04 45.35 141.39 46.09 141.73 47.13 142.08 46.98 142.43 46.83 142.78 47.87 143.13 49.05 143.48 48.9 143.83 50.53 144.18 48.9 144.53 51.72 144.88 51.57 145.23 51.42 145.58 48.76 145.92 51.27 146.27 52.31 146.62 50.83 146.97 52.31 147.32 53.05 147.67 54.53 148.02 53.2 148.37 54.83 148.72 54.83 149.07 55.72 149.42 54.98 149.76 58.24 150.11 59.42 150.46 54.83 150.81 54.09 151.16 51.57 151.51 50.53 151.86 50.09 152.21 52.46 152.56 50.68 152.91 49.05 153.26 48.31 153.61 50.09 153.95 48.61 154.3 49.5 154.65 49.35 155 49.5 155.35 49.05 155.7 51.27 156.05 49.94 156.4 48.9 156.75 46.68 157.1 44.76 157.45 47.13 157.79 45.64 158.14 44.9 158.49 47.42 158.84 45.5 159.19 44.16 159.54 43.42 159.89 42.68 160.24 41.94 160.59 42.53 160.94 42.24 161.29 41.5 161.64 43.57 161.98 44.76 162.33 48.01 162.68 47.27 163.03 48.61 163.38 45.79 163.73 43.72 164.08 43.13 164.43 41.05 164.78 37.94 165.13 37.35 165.48 35.57 165.83 35.87 166.17 34.24 166.52 34.24 166.87 33.65 167.22 32.02 167.57 33.2 167.92 33.2 168.27 33.35 168.62 34.39 168.97 35.13 169.32 35.42 169.67 34.98 170.01 35.42 170.36 34.68 170.71 36.31 171.06 36.61 171.41 38.83 171.76 40.16 172.11 39.72 172.46 37.35 172.81 37.05 173.16 35.87 173.51 35.13 173.86 34.24 174.2 33.94 174.55 33.65 174.9 33.65 175.25 34.09 175.6 33.65 175.95 33.79 176.3 32.91 176.65 31.72 177 32.46 177.35 32.76 177.7 33.2 178.04 32.61 178.39 33.35 178.74 34.09 179.09 32.61 179.44 32.46 179.79 33.05 180.14 31.72 180.49 32.61 180.84 32.31 181.19 31.87 181.54 32.46 181.89 32.61 182.23 33.05 182.58 32.31 182.93 30.68 183.28 30.98 183.63 30.83 183.98 30.83 184.33 30.54 184.68 29.79 185.03 29.5 185.38 28.91 185.73 29.65 186.08 30.09 186.42 30.24 186.77 30.24 187.12 30.09 187.47 30.98 187.82 30.39 188.17 28.91 188.52 28.61 188.87 28.17 189.22 28.17 189.57 27.72 189.92 27.87 190.26 27.72 190.61 27.57 190.96 27.57 191.31 27.57 191.66 27.87 192.01 27.42"/>
      </g>
    </g>
  </g>
</g>
  <g class="guide ylabels" font-size="2.82" font-family="'PT Sans Caption','Helvetica Neue','Helvetica',sans-serif" fill="#000000" id="img-6db52877-20">
    <text x="18.63" y="131.11" text-anchor="end" dy="0.35em">0</text>
    <text x="18.63" y="101.49" text-anchor="end" dy="0.35em">200</text>
    <text x="18.63" y="71.86" text-anchor="end" dy="0.35em">400</text>
    <text x="18.63" y="42.24" text-anchor="end" dy="0.35em">600</text>
    <text x="18.63" y="12.61" text-anchor="end" dy="0.35em">800</text>
  </g>
  <g font-size="3.88" font-family="'PT Sans','Helvetica Neue','Helvetica',sans-serif" fill="#000000" stroke="#000000" stroke-opacity="0.000" id="img-6db52877-21">
    <text x="8.81" y="69.86" text-anchor="middle" dy="0.35em" transform="rotate(-90, 8.81, 71.86)">population number</text>
  </g>
  <g font-size="3.88" font-family="'PT Sans','Helvetica Neue','Helvetica',sans-serif" fill="#000000" stroke="#000000" stroke-opacity="0.000" id="img-6db52877-22">
    <text x="108.92" y="5" text-anchor="middle" dy="0.6em">genetic drift</text>
  </g>
</g>
<defs>
  <clipPath id="img-6db52877-4">
  <path d="M19.63,10.61 L 198.2 10.61 198.2 133.11 19.63 133.11" />
</clipPath>
</defs>
</svg>
