<?xml version="1.0" encoding="UTF-8"?>
<svg xmlns="http://www.w3.org/2000/svg"
     xmlns:xlink="http://www.w3.org/1999/xlink"
     xmlns:gadfly="http://www.gadflyjl.org/ns"
     version="1.2"
     width="203.2mm" height="152.4mm" viewBox="0 0 203.2 152.4"
     stroke="none"
     fill="#000000"
     stroke-width="0.3"
     font-size="3.88"
>
<g class="plotroot xscalable yscalable" id="img-0d93dbbf-1">
  <g font-size="3.88" font-family="'PT Sans','Helvetica Neue','Helvetica',sans-serif" fill="#000000" stroke="#000000" stroke-opacity="0.000" id="img-0d93dbbf-2">
    <text x="108.92" y="140.79" text-anchor="middle" dy="0.6em">generation number</text>
  </g>
  <g class="guide xlabels" font-size="2.82" font-family="'PT Sans Caption','Helvetica Neue','Helvetica',sans-serif" fill="#000000" id="img-0d93dbbf-3">
    <text x="21.63" y="134.11" text-anchor="middle" dy="0.6em">0</text>
    <text x="56.55" y="134.11" text-anchor="middle" dy="0.6em">100</text>
    <text x="91.46" y="134.11" text-anchor="middle" dy="0.6em">200</text>
    <text x="126.37" y="134.11" text-anchor="middle" dy="0.6em">300</text>
    <text x="161.29" y="134.11" text-anchor="middle" dy="0.6em">400</text>
    <text x="196.2" y="134.11" text-anchor="middle" dy="0.6em">500</text>
  </g>
<g clip-path="url(#img-0d93dbbf-4)">
  <g id="img-0d93dbbf-5">
    <g pointer-events="visible" opacity="1" fill="#FFFFFF" stroke="#000000" stroke-opacity="0.000" class="guide background" id="img-0d93dbbf-6">
      <rect x="19.63" y="10.61" width="178.57" height="122.5"/>
    </g>
    <g class="guide ygridlines xfixed" stroke-dasharray="0.5,0.5" stroke-width="0.2" stroke="#808080" id="img-0d93dbbf-7">
      <path fill="none" d="M19.63,131.11 L 198.2 131.11"/>
      <path fill="none" d="M19.63,101.49 L 198.2 101.49"/>
      <path fill="none" d="M19.63,71.86 L 198.2 71.86"/>
      <path fill="none" d="M19.63,42.24 L 198.2 42.24"/>
      <path fill="none" d="M19.63,12.61 L 198.2 12.61"/>
    </g>
    <g class="guide xgridlines yfixed" stroke-dasharray="0.5,0.5" stroke-width="0.2" stroke="#808080" id="img-0d93dbbf-8">
      <path fill="none" d="M21.63,10.61 L 21.63 133.11"/>
      <path fill="none" d="M56.55,10.61 L 56.55 133.11"/>
      <path fill="none" d="M91.46,10.61 L 91.46 133.11"/>
      <path fill="none" d="M126.37,10.61 L 126.37 133.11"/>
      <path fill="none" d="M161.29,10.61 L 161.29 133.11"/>
      <path fill="none" d="M196.2,10.61 L 196.2 133.11"/>
    </g>
    <g class="plotpanel" id="img-0d93dbbf-9">
      <g stroke-width="0.3" fill="#000000" fill-opacity="0.000" class="geometry" stroke-dasharray="none" stroke="#3288BD" id="img-0d93dbbf-10">
        <path fill="none" d="M21.98,71.86 L 22.33 72.75 22.68 71.86 23.03 76.6 23.38 74.83 23.73 71.27 24.08 73.64 24.42 74.83 24.77 75.42 25.12 78.97 25.47 79.86 25.82 78.68 26.17 81.05 26.52 78.08 26.87 79.86 27.22 81.64 27.57 83.71 27.92 80.75 28.27 82.23 28.61 84.01 28.96 86.08 29.31 84.31 29.66 85.19 30.01 82.82 30.36 80.16 30.71 83.12 31.06 85.79 31.41 87.27 31.76 87.27 32.11 90.82 32.45 91.71 32.8 89.64 33.15 88.16 33.5 84.31 33.85 90.82 34.2 93.19 34.55 101.19 34.9 101.19 35.25 96.45 35.6 101.79 35.95 100.3 36.3 101.79 36.64 101.49 36.99 106.23 37.34 108.6 37.69 109.19 38.04 107.41 38.39 108.01 38.74 106.82 39.09 104.75 39.44 104.75 39.79 104.45 40.14 100.3 40.49 99.12 40.83 102.08 41.18 101.19 41.53 100.01 41.88 101.19 42.23 97.05 42.58 97.34 42.93 99.12 43.28 101.19 43.63 100.9 43.98 101.79 44.33 98.82 44.67 97.05 45.02 101.19 45.37 98.53 45.72 96.45 46.07 96.45 46.42 95.27 46.77 98.53 47.12 101.49 47.47 104.75 47.82 105.34 48.17 107.41 48.52 108.3 48.86 107.71 49.21 105.93 49.56 105.64 49.91 104.45 50.26 105.04 50.61 107.71 50.96 108.9 51.31 108.01 51.66 106.82 52.01 108.01 52.36 109.78 52.7 110.97 53.05 108.01 53.4 108.01 53.75 109.78 54.1 111.56 54.45 112.45 54.8 111.56 55.15 113.64 55.5 112.15 55.85 112.15 56.2 111.86 56.55 113.04 56.89 114.23 57.24 117.19 57.59 117.19 57.94 118.08 58.29 116.3 58.64 114.23 58.99 117.19 59.34 118.97 59.69 114.23 60.04 113.04 60.39 113.34 60.73 114.23 61.08 113.93 61.43 113.64 61.78 116.3 62.13 118.08 62.48 120.45 62.83 118.08 63.18 115.41 63.53 116.01 63.88 118.67 64.23 117.19 64.58 115.41 64.92 114.52 65.27 118.08 65.62 120.45 65.97 118.38 66.32 118.97 66.67 117.78 67.02 116.3 67.37 114.82 67.72 118.38 68.07 116.89 68.42 112.45 68.77 111.56 69.11 112.45 69.46 108.3 69.81 110.38 70.16 111.56 70.51 111.86 70.86 110.97 71.21 110.08 71.56 110.38 71.91 109.19 72.26 111.27 72.61 109.49 72.95 112.15 73.3 113.93 73.65 111.56 74 116.01 74.35 120.15 74.7 123.12 75.05 121.34 75.4 118.67 75.75 120.15 76.1 122.23 76.45 121.34 76.8 120.45 77.14 118.38 77.49 115.12 77.84 113.64 78.19 116.01 78.54 116.6 78.89 115.71 79.24 116.6 79.59 114.52 79.94 111.86 80.29 115.41 80.64 115.41 80.98 116.89 81.33 116.01 81.68 115.12 82.03 116.01 82.38 120.45 82.73 122.23 83.08 125.49 83.43 124.89 83.78 124 84.13 124 84.48 124.89 84.83 126.37 85.17 124.3 85.52 124.3 85.87 124.3 86.22 124 86.57 123.41 86.92 123.71 87.27 126.37 87.62 125.19 87.97 126.08 88.32 126.37 88.67 127.26 89.02 127.56 89.36 126.37 89.71 127.56 90.06 127.56 90.41 126.97 90.76 125.19 91.11 126.08 91.46 125.78 91.81 124.3 92.16 122.82 92.51 121.93 92.86 121.04 93.2 121.93 93.55 122.52 93.9 122.52 94.25 122.82 94.6 127.26 94.95 126.67 95.3 127.56 95.65 128.15 96 128.45 96.35 128.74 96.7 129.93 97.05 130.52 97.39 129.93 97.74 129.93 98.09 130.52 98.44 130.82 98.79 131.11"/>
      </g>
      <g stroke-width="0.3" fill="#000000" fill-opacity="0.000" class="geometry" stroke-dasharray="none" stroke="#66C2A5" id="img-0d93dbbf-11">
        <path fill="none" d="M21.98,71.86 L 22.33 73.05 22.68 73.94 23.03 72.75 23.38 73.64 23.73 71.86 24.08 72.16 24.42 68.6 24.77 68.01 25.12 67.72 25.47 68.31 25.82 65.64 26.17 70.68 26.52 69.49 26.87 69.79 27.22 71.86 27.57 74.83 27.92 72.75 28.27 70.97 28.61 73.94 28.96 69.79 29.31 71.27 29.66 74.83 30.01 74.83 30.36 70.09 30.71 65.64 31.06 69.2 31.41 74.83 31.76 69.79 32.11 76.6 32.45 73.64 32.8 72.46 33.15 71.27 33.5 70.38 33.85 69.79 34.2 67.72 34.55 71.27 34.9 74.83 35.25 81.64 35.6 83.42 35.95 80.45 36.3 79.27 36.64 83.12 36.99 84.9 37.34 80.75 37.69 80.75 38.04 86.08 38.39 73.94 38.74 70.09 39.09 69.49 39.44 67.72 39.79 71.27 40.14 72.46 40.49 69.49 40.83 70.09 41.18 75.42 41.53 74.53 41.88 75.71 42.23 73.05 42.58 68.9 42.93 66.53 43.28 67.42 43.63 68.31 43.98 66.83 44.33 68.01 44.67 68.9 45.02 65.94 45.37 65.35 45.72 65.94 46.07 69.2 46.42 68.9 46.77 71.27 47.12 72.16 47.47 76.01 47.82 79.57 48.17 81.05 48.52 79.86 48.86 80.45 49.21 81.34 49.56 76.31 49.91 74.53 50.26 76.31 50.61 79.27 50.96 82.82 51.31 80.75 51.66 80.75 52.01 82.53 52.36 82.53 52.7 81.64 53.05 88.16 53.4 92.31 53.75 92.9 54.1 92.6 54.45 94.38 54.8 93.79 55.15 97.64 55.5 100.9 55.85 102.08 56.2 104.75 56.55 105.64 56.89 104.16 57.24 108.3 57.59 105.93 57.94 107.71 58.29 108.6 58.64 111.86 58.99 112.45 59.34 113.34 59.69 113.93 60.04 114.82 60.39 116.3 60.73 116.01 61.08 115.12 61.43 116.3 61.78 114.52 62.13 117.19 62.48 120.45 62.83 121.93 63.18 120.45 63.53 121.04 63.88 121.04 64.23 122.23 64.58 124 64.92 121.34 65.27 119.56 65.62 121.63 65.97 121.04 66.32 120.15 66.67 121.63 67.02 120.15 67.37 117.19 67.72 119.26 68.07 121.34 68.42 122.52 68.77 122.23 69.11 121.34 69.46 118.67 69.81 117.78 70.16 117.78 70.51 116.6 70.86 115.41 71.21 112.75 71.56 114.52 71.91 111.56 72.26 110.67 72.61 109.49 72.95 107.12 73.3 107.71 73.65 104.16 74 104.16 74.35 102.08 74.7 105.93 75.05 104.75 75.4 106.82 75.75 104.75 76.1 109.49 76.45 110.38 76.8 113.04 77.14 108.01 77.49 106.53 77.84 107.41 78.19 106.53 78.54 105.64 78.89 101.79 79.24 105.04 79.59 105.93 79.94 105.04 80.29 103.27 80.64 99.42 80.98 103.56 81.33 104.45 81.68 101.19 82.03 97.93 82.38 98.23 82.73 100.9 83.08 100.9 83.43 97.34 83.78 91.12 84.13 88.75 84.48 91.71 84.83 89.34 85.17 91.71 85.52 91.42 85.87 87.86 86.22 86.97 86.57 86.68 86.92 81.64 87.27 77.49 87.62 76.01 87.97 75.12 88.32 79.27 88.67 81.64 89.02 78.08 89.36 76.31 89.71 72.75 90.06 67.12 90.41 60.9 90.76 60.61 91.11 56.75 91.46 59.12 91.81 54.98 92.16 63.57 92.51 67.12 92.86 66.83 93.2 65.35 93.55 67.42 93.9 63.86 94.25 64.16 94.6 60.61 94.95 62.09 95.3 59.42 95.65 58.53 96 54.98 96.35 54.68 96.7 52.9 97.05 55.27 97.39 58.53 97.74 56.46 98.09 53.79 98.44 54.98 98.79 51.72 99.14 53.79 99.49 53.79 99.84 59.42 100.19 62.38 100.54 57.94 100.89 55.87 101.23 56.46 101.58 55.87 101.93 58.24 102.28 60.31 102.63 58.83 102.98 59.12 103.33 58.24 103.68 61.49 104.03 57.05 104.38 58.24 104.73 59.12 105.08 58.53 105.42 66.83 105.77 67.42 106.12 69.2 106.47 72.16 106.82 72.75 107.17 70.97 107.52 73.64 107.87 78.38 108.22 75.42 108.57 75.71 108.92 77.2 109.26 73.34 109.61 75.12 109.96 73.94 110.31 70.09 110.66 70.97 111.01 73.94 111.36 74.83 111.71 76.31 112.06 78.68 112.41 81.34 112.76 82.23 113.11 83.71 113.45 82.53 113.8 86.38 114.15 89.05 114.5 91.12 114.85 94.38 115.2 98.53 115.55 95.27 115.9 91.71 116.25 92.31 116.6 93.79 116.95 92.01 117.3 89.64 117.64 86.97 117.99 86.08 118.34 85.79 118.69 84.6 119.04 86.97 119.39 90.23 119.74 89.64 120.09 87.86 120.44 89.05 120.79 86.38 121.14 88.75 121.48 93.79 121.83 84.6 122.18 82.82 122.53 88.75 122.88 85.79 123.23 87.86 123.58 86.08 123.93 81.94 124.28 82.53 124.63 84.01 124.98 85.49 125.33 84.01 125.67 82.23 126.02 84.31 126.37 86.97 126.72 91.42 127.07 92.01 127.42 95.56 127.77 92.6 128.12 89.05 128.47 92.9 128.82 92.31 129.17 92.31 129.51 92.01 129.86 92.6 130.21 94.38 130.56 89.34 130.91 86.97 131.26 84.9 131.61 85.49 131.96 85.19 132.31 89.05 132.66 88.45 133.01 87.86 133.36 92.31 133.7 92.01 134.05 88.45 134.4 87.27 134.75 88.45 135.1 87.86 135.45 87.27 135.8 89.34 136.15 88.45 136.5 86.68 136.85 85.19 137.2 85.49 137.55 81.05 137.89 80.16 138.24 83.71 138.59 84.6 138.94 79.27 139.29 74.53 139.64 71.86 139.99 74.23 140.34 69.49 140.69 70.09 141.04 69.49 141.39 66.83 141.73 67.72 142.08 66.83 142.43 72.16 142.78 70.97 143.13 71.86 143.48 69.2 143.83 61.49 144.18 62.09 144.53 60.61 144.88 58.24 145.23 59.12 145.58 56.75 145.92 57.94 146.27 55.57 146.62 55.87 146.97 57.64 147.32 60.01 147.67 57.05 148.02 51.72 148.37 49.35 148.72 51.72 149.07 49.94 149.42 46.39 149.76 49.05 150.11 47.87 150.46 46.09 150.81 48.46 151.16 47.57 151.51 47.87 151.86 53.2 152.21 50.24 152.56 48.16 152.91 52.01 153.26 50.53 153.61 52.61 153.95 53.5 154.3 54.68 154.65 56.16 155 56.75 155.35 54.09 155.7 54.68 156.05 52.01 156.4 52.31 156.75 52.01 157.1 47.87 157.45 49.35 157.79 48.16 158.14 48.76 158.49 52.31 158.84 49.05 159.19 53.5 159.54 51.42 159.89 55.27 160.24 50.83 160.59 49.94 160.94 47.27 161.29 45.2 161.64 43.42 161.98 41.64 162.33 41.64 162.68 38.39 163.03 39.27 163.38 40.46 163.73 42.24 164.08 43.72 164.43 43.72 164.78 47.57 165.13 48.76 165.48 51.72 165.83 50.53 166.17 52.31 166.52 50.24 166.87 44.61 167.22 43.72 167.57 46.09 167.92 46.98 168.27 49.94 168.62 50.24 168.97 55.57 169.32 55.57 169.67 54.68 170.01 54.68 170.36 52.61 170.71 53.5 171.06 56.46 171.41 58.53 171.76 55.27 172.11 56.75 172.46 53.2 172.81 54.09 173.16 56.46 173.51 54.09 173.86 53.79 174.2 51.13 174.55 50.53 174.9 49.05 175.25 48.46 175.6 49.94 175.95 51.42 176.3 46.68 176.65 48.76 177 49.05 177.35 52.01 177.7 50.53 178.04 51.72 178.39 47.57 178.74 46.98 179.09 46.39 179.44 43.42 179.79 41.64 180.14 44.31 180.49 43.42 180.84 43.72 181.19 46.09 181.54 45.5 181.89 44.31 182.23 44.31 182.58 41.64 182.93 39.27 183.28 38.98 183.63 42.24 183.98 43.13 184.33 41.35 184.68 42.83 185.03 41.05 185.38 39.87 185.73 39.87 186.08 41.35 186.42 40.16 186.77 38.39 187.12 38.09 187.47 38.68 187.82 37.5 188.17 37.5 188.52 37.5 188.87 40.16 189.22 35.13 189.57 37.5 189.92 41.64 190.26 45.2 190.61 39.27 190.96 41.05 191.31 41.35 191.66 42.83 192.01 44.31 192.36 41.64 192.71 46.09 193.06 48.76 193.41 49.35 193.76 49.64 194.11 50.24 194.45 54.38 194.8 50.53 195.15 47.57 195.5 51.13 195.85 50.24 196.2 52.31"/>
      </g>
      <g stroke-width="0.3" fill="#000000" fill-opacity="0.000" class="geometry" stroke-dasharray="none" stroke="#ABDDA4" id="img-0d93dbbf-12">
        <path fill="none" d="M21.98,71.86 L 22.33 71.86 22.68 69.49 23.03 73.94 23.38 78.97 23.73 81.34 24.08 81.94 24.42 86.68 24.77 88.45 25.12 88.45 25.47 82.23 25.82 81.64 26.17 77.49 26.52 77.49 26.87 78.38 27.22 75.71 27.57 76.31 27.92 79.27 28.27 81.64 28.61 77.49 28.96 77.49 29.31 82.23 29.66 82.23 30.01 88.45 30.36 89.34 30.71 90.82 31.06 86.38 31.41 88.16 31.76 90.53 32.11 91.12 32.45 90.23 32.8 92.01 33.15 89.94 33.5 96.16 33.85 93.19 34.2 94.97 34.55 102.08 34.9 101.49 35.25 95.27 35.6 93.79 35.95 92.6 36.3 93.49 36.64 93.19 36.99 88.75 37.34 87.86 37.69 92.6 38.04 92.6 38.39 86.68 38.74 80.75 39.09 80.16 39.44 82.82 39.79 79.86 40.14 76.9 40.49 76.6 40.83 76.6 41.18 75.42 41.53 77.79 41.88 77.79 42.23 79.57 42.58 77.79 42.93 79.27 43.28 82.82 43.63 81.05 43.98 84.31 44.33 88.16 44.67 88.75 45.02 84.9 45.37 88.45 45.72 88.45 46.07 87.86 46.42 90.53 46.77 84.6 47.12 89.64 47.47 87.86 47.82 90.23 48.17 92.01 48.52 89.94 48.86 84.6 49.21 84.6 49.56 85.49 49.91 86.08 50.26 84.31 50.61 80.45 50.96 79.27 51.31 82.82 51.66 82.82 52.01 83.71 52.36 81.64 52.7 77.79 53.05 77.2 53.4 75.12 53.75 67.12 54.1 69.2 54.45 67.12 54.8 64.75 55.15 62.09 55.5 66.83 55.85 65.64 56.2 62.68 56.55 63.57 56.89 62.38 57.24 64.16 57.59 64.16 57.94 62.68 58.29 67.42 58.64 70.68 58.99 76.31 59.34 74.53 59.69 72.46 60.04 66.53 60.39 70.97 60.73 67.12 61.08 63.86 61.43 64.16 61.78 62.38 62.13 62.09 62.48 64.75 62.83 66.83 63.18 69.2 63.53 67.72 63.88 71.27 64.23 70.97 64.58 70.09 64.92 71.27 65.27 68.9 65.62 66.23 65.97 66.53 66.32 63.57 66.67 59.72 67.02 66.83 67.37 65.64 67.72 63.86 68.07 63.27 68.42 61.2 68.77 63.27 69.11 62.68 69.46 59.12 69.81 60.01 70.16 59.12 70.51 60.31 70.86 58.83 71.21 59.42 71.56 63.86 71.91 68.9 72.26 70.09 72.61 68.9 72.95 71.57 73.3 67.42 73.65 64.46 74 65.94 74.35 72.16 74.7 73.64 75.05 70.68 75.4 74.23 75.75 69.49 76.1 66.23 76.45 64.75 76.8 71.27 77.14 67.12 77.49 67.12 77.84 69.49 78.19 71.27 78.54 70.38 78.89 68.9 79.24 72.75 79.59 77.2 79.94 79.57 80.29 78.38 80.64 80.16 80.98 79.57 81.33 77.49 81.68 81.05 82.03 83.42 82.38 83.42 82.73 84.01 83.08 87.27 83.43 85.49 83.78 80.45 84.13 85.19 84.48 81.34 84.83 81.64 85.17 81.64 85.52 83.12 85.87 85.19 86.22 83.42 86.57 84.01 86.92 86.38 87.27 90.82 87.62 89.05 87.97 94.38 88.32 96.16 88.67 96.45 89.02 100.01 89.36 100.9 89.71 99.71 90.06 101.79 90.41 99.42 90.76 97.93 91.11 100.01 91.46 97.34 91.81 97.34 92.16 96.75 92.51 95.27 92.86 94.08 93.2 91.71 93.55 97.93 93.9 96.45 94.25 98.23 94.6 98.23 94.95 97.64 95.3 95.27 95.65 95.86 96 97.93 96.35 96.16 96.7 98.82 97.05 98.23 97.39 99.42 97.74 100.9 98.09 102.97 98.44 104.75 98.79 102.38 99.14 104.75 99.49 105.04 99.84 102.08 100.19 95.86 100.54 96.45 100.89 95.27 101.23 98.53 101.58 103.86 101.93 102.97 102.28 103.56 102.63 104.75 102.98 105.34 103.33 106.82 103.68 109.19 104.03 109.49 104.38 108.6 104.73 105.93 105.08 108.3 105.42 104.75 105.77 104.45 106.12 104.16 106.47 97.64 106.82 95.27 107.17 94.08 107.52 93.79 107.87 94.38 108.22 93.79 108.57 94.08 108.92 91.12 109.26 90.23 109.61 91.42 109.96 89.05 110.31 83.71 110.66 84.01 111.01 82.53 111.36 83.12 111.71 87.86 112.06 84.31 112.41 85.79 112.76 89.05 113.11 90.53 113.45 88.16 113.8 89.05 114.15 94.97 114.5 87.27 114.85 85.79 115.2 80.75 115.55 81.94 115.9 77.2 116.25 74.83 116.6 77.49 116.95 79.27 117.3 81.94 117.64 80.16 117.99 77.49 118.34 82.53 118.69 83.71 119.04 81.64 119.39 79.57 119.74 78.38 120.09 77.2 120.44 84.01 120.79 85.49 121.14 85.79 121.48 85.49 121.83 86.08 122.18 85.49 122.53 86.97 122.88 89.05 123.23 89.34 123.58 90.82 123.93 89.64 124.28 91.42 124.63 91.12 124.98 89.94 125.33 91.42 125.67 95.86 126.02 92.9 126.37 94.08 126.72 98.53 127.07 96.16 127.42 99.71 127.77 96.45 128.12 96.45 128.47 97.05 128.82 95.56 129.17 92.6 129.51 91.71 129.86 90.82 130.21 92.6 130.56 91.12 130.91 85.79 131.26 90.82 131.61 91.12 131.96 93.79 132.31 92.01 132.66 93.49 133.01 90.53 133.36 94.97 133.7 92.01 134.05 92.6 134.4 91.42 134.75 88.16 135.1 86.38 135.45 90.23 135.8 94.08 136.15 96.16 136.5 97.64 136.85 95.86 137.2 95.86 137.55 90.23 137.89 90.82 138.24 90.53 138.59 93.19 138.94 91.42 139.29 94.38 139.64 94.97 139.99 99.42 140.34 99.42 140.69 99.71 141.04 101.49 141.39 102.67 141.73 103.27 142.08 103.86 142.43 106.53 142.78 106.53 143.13 104.45 143.48 101.79 143.83 104.45 144.18 103.56 144.53 104.16 144.88 106.82 145.23 108.3 145.58 105.93 145.92 102.97 146.27 102.67 146.62 106.82 146.97 102.08 147.32 106.23 147.67 104.45 148.02 105.93 148.37 105.34 148.72 110.08 149.07 110.97 149.42 110.97 149.76 111.86 150.11 115.12 150.46 113.64 150.81 114.82 151.16 112.15 151.51 112.45 151.86 112.45 152.21 114.23 152.56 114.82 152.91 113.93 153.26 110.67 153.61 111.56 153.95 109.78 154.3 111.27 154.65 108.9 155 111.27 155.35 110.08 155.7 109.19 156.05 109.49 156.4 110.67 156.75 112.15 157.1 113.34 157.45 112.75 157.79 109.78 158.14 110.67 158.49 110.08 158.84 111.86 159.19 109.78 159.54 110.97 159.89 113.93 160.24 112.75 160.59 112.45 160.94 112.75 161.29 115.41 161.64 118.08 161.98 118.38 162.33 121.63 162.68 122.23 163.03 125.19 163.38 124.89 163.73 125.49 164.08 124.3 164.43 124.6 164.78 123.41 165.13 125.78 165.48 123.41 165.83 122.23 166.17 122.52 166.52 124.6 166.87 126.08 167.22 127.86 167.57 130.23 167.92 130.23 168.27 130.52 168.62 130.52 168.97 130.82 169.32 131.11"/>
      </g>
      <g stroke-width="0.3" fill="#000000" fill-opacity="0.000" class="geometry" stroke-dasharray="none" stroke="#E6F598" id="img-0d93dbbf-13">
        <path fill="none" d="M21.98,71.86 L 22.33 72.46 22.68 73.64 23.03 69.49 23.38 72.16 23.73 71.57 24.08 76.9 24.42 75.12 24.77 78.08 25.12 79.86 25.47 79.27 25.82 78.68 26.17 82.23 26.52 75.71 26.87 76.9 27.22 71.27 27.57 68.01 27.92 68.9 28.27 69.49 28.61 67.72 28.96 76.6 29.31 80.45 29.66 84.01 30.01 78.08 30.36 80.16 30.71 76.01 31.06 74.23 31.41 79.86 31.76 76.9 32.11 78.68 32.45 79.86 32.8 73.34 33.15 70.68 33.5 71.86 33.85 74.53 34.2 70.68 34.55 69.49 34.9 70.68 35.25 70.97 35.6 68.9 35.95 68.01 36.3 66.83 36.64 70.38 36.99 70.38 37.34 65.94 37.69 65.05 38.04 62.98 38.39 66.23 38.74 65.64 39.09 66.53 39.44 66.23 39.79 61.79 40.14 64.75 40.49 65.94 40.83 64.75 41.18 60.9 41.53 60.01 41.88 61.2 42.23 61.49 42.58 58.83 42.93 52.01 43.28 55.57 43.63 60.01 43.98 60.61 44.33 64.46 44.67 63.86 45.02 65.64 45.37 64.75 45.72 62.68 46.07 63.27 46.42 62.38 46.77 56.16 47.12 58.24 47.47 60.01 47.82 63.86 48.17 62.68 48.52 58.24 48.86 56.46 49.21 57.35 49.56 54.98 49.91 54.38 50.26 52.01 50.61 51.72 50.96 56.46 51.31 58.53 51.66 61.49 52.01 62.38 52.36 62.98 52.7 60.01 53.05 63.57 53.4 66.83 53.75 69.2 54.1 71.86 54.45 69.79 54.8 71.57 55.15 72.16 55.5 70.97 55.85 74.53 56.2 74.53 56.55 70.68 56.89 70.09 57.24 71.27 57.59 71.27 57.94 69.2 58.29 68.31 58.64 72.46 58.99 75.71 59.34 73.64 59.69 73.34 60.04 75.71 60.39 80.75 60.73 77.2 61.08 79.86 61.43 78.08 61.78 78.97 62.13 80.16 62.48 76.31 62.83 78.38 63.18 81.34 63.53 80.16 63.88 80.16 64.23 76.01 64.58 78.97 64.92 78.97 65.27 85.79 65.62 80.45 65.97 81.94 66.32 85.49 66.67 84.6 67.02 83.12 67.37 81.94 67.72 84.31 68.07 86.68 68.42 87.57 68.77 89.34 69.11 89.05 69.46 86.08 69.81 90.82 70.16 91.42 70.51 91.71 70.86 93.19 71.21 89.05 71.56 90.53 71.91 88.16 72.26 90.53 72.61 94.08 72.95 92.31 73.3 94.68 73.65 89.34 74 86.08 74.35 86.68 74.7 86.97 75.05 89.64 75.4 82.53 75.75 84.9 76.1 83.12 76.45 84.9 76.8 88.45 77.14 88.16 77.49 82.82 77.84 83.71 78.19 82.23 78.54 83.71 78.89 81.34 79.24 82.23 79.59 86.97 79.94 86.68 80.29 85.19 80.64 83.42 80.98 85.19 81.33 83.71 81.68 83.71 82.03 83.12 82.38 82.23 82.73 73.34 83.08 74.23 83.43 73.34 83.78 69.2 84.13 66.23 84.48 70.09 84.83 74.23 85.17 72.46 85.52 75.42 85.87 82.82 86.22 83.12 86.57 81.05 86.92 80.75 87.27 82.82 87.62 79.27 87.97 87.27 88.32 88.16 88.67 84.6 89.02 86.38 89.36 87.57 89.71 91.71 90.06 90.53 90.41 87.57 90.76 96.45 91.11 98.53 91.46 97.93 91.81 101.49 92.16 100.3 92.51 100.9 92.86 101.19 93.2 100.6 93.55 100.01 93.9 103.27 94.25 108.6 94.6 106.53 94.95 109.19 95.3 107.12 95.65 109.78 96 109.78 96.35 111.27 96.7 110.97 97.05 112.75 97.39 113.04 97.74 115.41 98.09 115.12 98.44 121.04 98.79 116.89 99.14 116.01 99.49 114.52 99.84 114.52 100.19 115.12 100.54 117.78 100.89 116.3 101.23 118.67 101.58 119.86 101.93 122.23 102.28 124 102.63 124 102.98 124 103.33 123.41 103.68 124.89 104.03 124.89 104.38 123.41 104.73 124 105.08 125.49 105.42 126.37 105.77 127.56 106.12 128.15 106.47 127.56 106.82 128.74 107.17 128.74 107.52 129.34 107.87 129.93 108.22 130.82 108.57 131.11"/>
      </g>
      <g stroke-width="0.3" fill="#000000" fill-opacity="0.000" class="geometry" stroke-dasharray="none" stroke="#FFFFBF" id="img-0d93dbbf-14">
        <path fill="none" d="M21.98,71.86 L 22.33 65.94 22.68 64.16 23.03 55.57 23.38 60.9 23.73 57.94 24.08 56.46 24.42 54.09 24.77 54.98 25.12 58.53 25.47 55.27 25.82 55.27 26.17 58.53 26.52 57.35 26.87 55.27 27.22 52.9 27.57 56.46 27.92 53.5 28.27 50.53 28.61 48.46 28.96 50.83 29.31 56.16 29.66 54.68 30.01 57.35 30.36 55.87 30.71 52.9 31.06 56.16 31.41 57.35 31.76 56.46 32.11 55.87 32.45 52.9 32.8 53.5 33.15 54.98 33.5 54.98 33.85 52.9 34.2 50.53 34.55 49.35 34.9 51.42 35.25 52.61 35.6 57.05 35.95 61.49 36.3 60.61 36.64 58.83 36.99 62.09 37.34 61.2 37.69 60.01 38.04 55.57 38.39 53.79 38.74 51.72 39.09 51.72 39.44 49.05 39.79 49.94 40.14 52.01 40.49 51.13 40.83 48.46 41.18 44.02 41.53 46.09 41.88 44.31 42.23 43.42 42.58 42.83 42.93 41.35 43.28 41.35 43.63 41.35 43.98 38.09 44.33 32.76 44.67 33.05 45.02 37.5 45.37 36.02 45.72 36.31 46.07 35.13 46.42 34.53 46.77 32.76 47.12 33.94 47.47 37.79 47.82 36.31 48.17 35.72 48.52 37.5 48.86 38.68 49.21 39.27 49.56 38.39 49.91 39.57 50.26 41.94 50.61 39.27 50.96 39.27 51.31 36.61 51.66 35.42 52.01 36.02 52.36 34.24 52.7 34.83 53.05 36.31 53.4 33.94 53.75 35.42 54.1 37.79 54.45 38.68 54.8 35.13 55.15 35.42 55.5 35.72 55.85 30.39 56.2 31.87 56.55 29.5 56.89 28.91 57.24 27.13 57.59 25.94 57.94 25.94 58.29 25.35 58.64 25.35 58.99 21.8 59.34 22.39 59.69 20.61 60.04 21.5 60.39 21.5 60.73 21.8 61.08 21.5 61.43 22.68 61.78 22.68 62.13 18.83 62.48 16.76 62.83 16.17 63.18 15.57 63.53 14.98 63.88 15.28 64.23 16.76 64.58 15.57 64.92 16.76 65.27 15.57 65.62 14.09 65.97 14.09 66.32 14.98 66.67 14.98 67.02 16.17 67.37 16.17 67.72 14.39 68.07 14.98 68.42 15.87 68.77 15.87 69.11 18.83 69.46 17.65 69.81 17.06 70.16 20.61 70.51 20.31 70.86 18.83 71.21 20.02 71.56 20.31 71.91 23.57 72.26 23.28 72.61 22.98 72.95 22.68 73.3 22.68 73.65 24.76 74 27.13 74.35 27.42 74.7 26.54 75.05 24.76 75.4 26.54 75.75 26.54 76.1 23.57 76.45 24.17 76.8 23.28 77.14 19.43 77.49 18.83 77.84 20.02 78.19 23.28 78.54 23.57 78.89 22.68 79.24 21.8 79.59 21.2 79.94 18.24 80.29 16.76 80.64 15.87 80.98 16.76 81.33 17.94 81.68 18.83 82.03 19.72 82.38 19.72 82.73 17.65 83.08 18.24 83.43 20.02 83.78 20.61 84.13 19.13 84.48 17.06 84.83 19.13 85.17 21.2 85.52 20.91 85.87 20.31 86.22 20.02 86.57 19.43 86.92 20.91 87.27 22.09 87.62 20.31 87.97 18.83 88.32 17.06 88.67 16.46 89.02 17.06 89.36 17.35 89.71 16.46 90.06 16.46 90.41 16.76 90.76 16.76 91.11 15.87 91.46 16.76 91.81 18.83 92.16 18.83 92.51 20.31 92.86 20.31 93.2 20.31 93.55 21.5 93.9 21.8 94.25 22.09 94.6 21.2 94.95 21.5 95.3 21.2 95.65 21.2 96 22.09 96.35 22.09 96.7 23.57 97.05 22.98 97.39 21.5 97.74 18.83 98.09 19.72 98.44 18.54 98.79 17.94 99.14 16.17 99.49 15.28 99.84 16.76 100.19 17.65 100.54 18.24 100.89 17.65 101.23 17.06 101.58 16.76 101.93 16.17 102.28 15.28 102.63 14.69 102.98 14.69 103.33 14.39 103.68 15.57 104.03 15.28 104.38 16.17 104.73 13.5 105.08 13.2 105.42 12.91 105.77 12.61"/>
      </g>
      <g stroke-width="0.3" fill="#000000" fill-opacity="0.000" class="geometry" stroke-dasharray="none" stroke="#FEE08B" id="img-0d93dbbf-15">
        <path fill="none" d="M21.98,71.86 L 22.33 75.12 22.68 76.01 23.03 78.68 23.38 78.97 23.73 74.83 24.08 71.57 24.42 72.46 24.77 73.64 25.12 74.23 25.47 77.49 25.82 76.01 26.17 79.27 26.52 84.6 26.87 83.71 27.22 82.23 27.57 80.45 27.92 77.49 28.27 81.05 28.61 85.49 28.96 86.68 29.31 89.64 29.66 87.57 30.01 93.19 30.36 92.31 30.71 90.23 31.06 90.23 31.41 90.82 31.76 93.19 32.11 94.08 32.45 96.75 32.8 98.82 33.15 100.6 33.5 98.82 33.85 98.82 34.2 101.19 34.55 95.56 34.9 94.08 35.25 94.68 35.6 93.79 35.95 95.86 36.3 100.6 36.64 99.42 36.99 100.9 37.34 95.56 37.69 95.86 38.04 91.12 38.39 91.71 38.74 94.68 39.09 93.49 39.44 93.49 39.79 91.12 40.14 85.19 40.49 86.38 40.83 90.53 41.18 84.31 41.53 81.05 41.88 78.68 42.23 81.94 42.58 84.01 42.93 77.2 43.28 78.97 43.63 80.75 43.98 84.6 44.33 87.86 44.67 79.27 45.02 82.23 45.37 89.64 45.72 88.45 46.07 84.31 46.42 85.19 46.77 82.82 47.12 83.12 47.47 89.94 47.82 92.01 48.17 92.01 48.52 95.27 48.86 94.08 49.21 97.93 49.56 101.19 49.91 101.19 50.26 103.27 50.61 105.04 50.96 104.75 51.31 105.04 51.66 106.23 52.01 105.04 52.36 103.27 52.7 101.49 53.05 101.49 53.4 101.49 53.75 101.49 54.1 99.71 54.45 96.16 54.8 97.34 55.15 94.97 55.5 99.12 55.85 98.53 56.2 97.93 56.55 94.38 56.89 92.31 57.24 92.31 57.59 86.38 57.94 82.23 58.29 81.34 58.64 81.64 58.99 80.45 59.34 76.9 59.69 76.9 60.04 75.12 60.39 68.01 60.73 74.83 61.08 73.34 61.43 72.46 61.78 68.6 62.13 70.68 62.48 73.64 62.83 71.86 63.18 71.57 63.53 70.38 63.88 72.16 64.23 71.27 64.58 69.79 64.92 70.97 65.27 68.31 65.62 69.49 65.97 72.75 66.32 75.71 66.67 79.86 67.02 78.08 67.37 76.01 67.72 73.94 68.07 74.83 68.42 72.75 68.77 70.97 69.11 67.72 69.46 67.12 69.81 67.72 70.16 69.49 70.51 69.2 70.86 74.83 71.21 77.79 71.56 77.79 71.91 79.86 72.26 79.86 72.61 82.53 72.95 82.23 73.3 79.57 73.65 80.45 74 85.79 74.35 87.27 74.7 89.64 75.05 96.16 75.4 94.38 75.75 96.16 76.1 95.56 76.45 96.45 76.8 97.64 77.14 95.27 77.49 89.94 77.84 88.16 78.19 83.12 78.54 81.34 78.89 78.38 79.24 80.45 79.59 83.42 79.94 83.71 80.29 82.23 80.64 86.38 80.98 82.53 81.33 81.94 81.68 83.12 82.03 82.23 82.38 82.53 82.73 81.05 83.08 84.9 83.43 92.6 83.78 94.97 84.13 94.97 84.48 92.6 84.83 91.71 85.17 92.9 85.52 96.16 85.87 98.53 86.22 106.82 86.57 105.34 86.92 105.64 87.27 109.78 87.62 108.3 87.97 110.67 88.32 107.71 88.67 107.12 89.02 106.82 89.36 108.3 89.71 106.23 90.06 107.71 90.41 108.3 90.76 111.86 91.11 109.49 91.46 108.01 91.81 107.71 92.16 108.9 92.51 111.56 92.86 113.04 93.2 110.38 93.55 109.78 93.9 109.78 94.25 113.04 94.6 113.34 94.95 112.75 95.3 112.15 95.65 113.93 96 114.82 96.35 114.82 96.7 114.52 97.05 115.71 97.39 117.78 97.74 117.78 98.09 118.67 98.44 117.78 98.79 119.56 99.14 121.63 99.49 123.12 99.84 121.63 100.19 120.45 100.54 119.56 100.89 120.45 101.23 122.23 101.58 126.08 101.93 124.6 102.28 125.19 102.63 124.89 102.98 124 103.33 121.63 103.68 121.34 104.03 122.23 104.38 123.41 104.73 125.19 105.08 125.49 105.42 124.6 105.77 125.19 106.12 125.78 106.47 124.6 106.82 126.08 107.17 126.67 107.52 127.26 107.87 126.97 108.22 127.26 108.57 127.26 108.92 127.86 109.26 129.34 109.61 129.63 109.96 129.63 110.31 129.93 110.66 129.93 111.01 129.34 111.36 129.34 111.71 128.15 112.06 128.15 112.41 129.04 112.76 129.34 113.11 129.04 113.45 128.45 113.8 128.15 114.15 129.04 114.5 128.74 114.85 130.23 115.2 130.23 115.55 130.82 115.9 131.11"/>
      </g>
      <g stroke-width="0.3" fill="#000000" fill-opacity="0.000" class="geometry" stroke-dasharray="none" stroke="#FDAE61" id="img-0d93dbbf-16">
        <path fill="none" d="M21.98,71.86 L 22.33 69.79 22.68 65.05 23.03 63.27 23.38 64.16 23.73 60.61 24.08 61.49 24.42 59.72 24.77 59.12 25.12 59.12 25.47 64.75 25.82 63.86 26.17 65.05 26.52 64.16 26.87 65.35 27.22 65.64 27.57 62.98 27.92 58.53 28.27 56.75 28.61 52.31 28.96 56.46 29.31 54.38 29.66 59.42 30.01 62.38 30.36 63.27 30.71 66.23 31.06 69.2 31.41 68.01 31.76 71.27 32.11 69.79 32.45 71.57 32.8 72.75 33.15 69.79 33.5 70.09 33.85 66.23 34.2 62.09 34.55 67.42 34.9 70.68 35.25 67.42 35.6 65.35 35.95 70.09 36.3 73.64 36.64 73.05 36.99 75.42 37.34 76.01 37.69 78.08 38.04 75.12 38.39 76.6 38.74 76.01 39.09 77.2 39.44 73.94 39.79 78.08 40.14 76.6 40.49 76.01 40.83 78.68 41.18 73.64 41.53 73.34 41.88 70.97 42.23 68.6 42.58 68.31 42.93 72.46 43.28 70.68 43.63 71.27 43.98 70.97 44.33 70.97 44.67 66.83 45.02 71.27 45.37 72.46 45.72 70.97 46.07 73.34 46.42 74.83 46.77 76.31 47.12 81.64 47.47 83.71 47.82 84.6 48.17 83.12 48.52 88.45 48.86 91.42 49.21 93.79 49.56 91.71 49.91 96.16 50.26 95.86 50.61 95.86 50.96 96.75 51.31 92.01 51.66 92.31 52.01 90.53 52.36 87.27 52.7 87.27 53.05 84.9 53.4 81.05 53.75 82.23 54.1 82.23 54.45 82.23 54.8 87.57 55.15 86.08 55.5 87.27 55.85 85.19 56.2 92.01 56.55 88.16 56.89 91.42 57.24 90.53 57.59 91.12 57.94 87.86 58.29 92.6 58.64 88.75 58.99 86.38 59.34 86.97 59.69 85.79 60.04 82.53 60.39 84.9 60.73 86.08 61.08 89.94 61.43 89.34 61.78 88.16 62.13 84.6 62.48 82.53 62.83 80.75 63.18 81.64 63.53 79.86 63.88 80.16 64.23 81.34 64.58 81.64 64.92 78.97 65.27 72.75 65.62 82.23 65.97 82.82 66.32 81.94 66.67 84.01 67.02 82.82 67.37 82.82 67.72 83.42 68.07 82.82 68.42 79.86 68.77 79.27 69.11 80.75 69.46 86.97 69.81 88.75 70.16 87.57 70.51 87.86 70.86 88.75 71.21 85.79 71.56 86.68 71.91 85.79 72.26 87.57 72.61 82.23 72.95 85.49 73.3 89.05 73.65 89.64 74 87.86 74.35 79.86 74.7 81.34 75.05 80.75 75.4 81.64 75.75 81.94 76.1 78.97 76.45 78.08 76.8 75.12 77.14 76.01 77.49 76.6 77.84 73.05 78.19 75.71 78.54 81.05 78.89 77.79 79.24 78.68 79.59 78.08 79.94 78.68 80.29 79.57 80.64 79.27 80.98 79.27 81.33 80.75 81.68 77.2 82.03 76.01 82.38 76.6 82.73 73.94 83.08 76.01 83.43 74.23 83.78 77.2 84.13 77.49 84.48 75.42 84.83 71.27 85.17 70.97 85.52 70.68 85.87 74.23 86.22 74.83 86.57 76.31 86.92 78.68 87.27 78.38 87.62 77.2 87.97 80.75 88.32 83.71 88.67 82.53 89.02 81.05 89.36 70.97 89.71 76.9 90.06 78.97 90.41 78.38 90.76 72.75 91.11 75.71 91.46 74.53 91.81 72.46 92.16 77.2 92.51 78.38 92.86 78.97 93.2 78.08 93.55 76.9 93.9 76.01 94.25 78.38 94.6 77.2 94.95 78.68 95.3 77.2 95.65 80.75 96 78.38 96.35 75.12 96.7 72.46 97.05 72.75 97.39 75.12 97.74 77.49 98.09 73.05 98.44 71.86 98.79 70.38 99.14 69.79 99.49 73.64 99.84 77.49 100.19 79.57 100.54 84.31 100.89 82.53 101.23 76.9 101.58 76.31 101.93 76.6 102.28 74.53 102.63 75.42 102.98 79.86 103.33 76.9 103.68 72.75 104.03 73.34 104.38 72.75 104.73 75.42 105.08 77.2 105.42 81.94 105.77 81.94 106.12 78.38 106.47 75.12 106.82 79.27 107.17 79.86 107.52 81.64 107.87 76.01 108.22 70.97 108.57 75.12 108.92 72.16 109.26 68.6 109.61 71.27 109.96 75.12 110.31 73.34 110.66 76.9 111.01 78.97 111.36 78.68 111.71 83.42 112.06 82.82 112.41 82.23 112.76 83.12 113.11 74.53 113.45 75.12 113.8 79.57 114.15 78.97 114.5 78.68 114.85 76.01 115.2 78.68 115.55 76.31 115.9 75.42 116.25 74.23 116.6 77.2 116.95 71.86 117.3 71.57 117.64 71.57 117.99 76.31 118.34 76.31 118.69 74.83 119.04 74.23 119.39 75.71 119.74 79.27 120.09 78.97 120.44 82.53 120.79 80.45 121.14 82.53 121.48 74.83 121.83 73.34 122.18 75.71 122.53 74.83 122.88 78.68 123.23 73.94 123.58 73.64 123.93 74.23 124.28 73.34 124.63 74.23 124.98 70.97 125.33 71.27 125.67 73.94 126.02 74.23 126.37 65.94 126.72 65.35 127.07 68.6 127.42 65.35 127.77 69.49 128.12 72.16 128.47 70.09 128.82 66.83 129.17 73.05 129.51 74.83 129.86 71.27 130.21 68.9 130.56 69.79 130.91 70.97 131.26 75.42 131.61 76.31 131.96 72.75 132.31 76.6 132.66 72.46 133.01 68.6 133.36 68.9 133.7 68.31 134.05 73.34 134.4 70.09 134.75 74.83 135.1 72.75 135.45 71.27 135.8 70.09 136.15 70.09 136.5 70.38 136.85 72.46 137.2 71.86 137.55 69.79 137.89 76.9 138.24 77.2 138.59 80.75 138.94 80.75 139.29 78.38 139.64 79.27 139.99 78.97 140.34 78.08 140.69 75.42 141.04 78.38 141.39 80.16 141.73 79.86 142.08 84.01 142.43 85.79 142.78 84.31 143.13 86.97 143.48 84.01 143.83 89.64 144.18 91.12 144.53 89.05 144.88 88.16 145.23 90.82 145.58 91.12 145.92 88.45 146.27 92.01 146.62 94.38 146.97 93.49 147.32 92.01 147.67 91.12 148.02 90.23 148.37 92.01 148.72 94.68 149.07 99.71 149.42 98.53 149.76 97.64 150.11 96.75 150.46 97.64 150.81 94.08 151.16 95.27 151.51 93.49 151.86 94.08 152.21 90.23 152.56 89.64 152.91 89.64 153.26 92.01 153.61 87.57 153.95 87.27 154.3 85.79 154.65 82.53 155 82.53 155.35 79.27 155.7 78.38 156.05 78.68 156.4 78.97 156.75 81.34 157.1 80.16 157.45 76.31 157.79 76.31 158.14 76.01 158.49 73.94 158.84 70.97 159.19 69.2 159.54 69.79 159.89 66.83 160.24 65.64 160.59 62.09 160.94 63.27 161.29 60.31 161.64 60.9 161.98 58.53 162.33 58.83 162.68 53.79 163.03 52.61 163.38 45.2 163.73 48.76 164.08 47.57 164.43 50.83 164.78 48.46 165.13 51.13 165.48 51.13 165.83 53.2 166.17 54.09 166.52 53.79 166.87 55.27 167.22 52.61 167.57 50.83 167.92 51.72 168.27 47.57 168.62 51.13 168.97 51.13 169.32 51.72 169.67 50.83 170.01 49.64 170.36 50.24 170.71 54.68 171.06 55.57 171.41 54.98 171.76 54.98 172.11 57.94 172.46 62.68 172.81 68.31 173.16 69.49 173.51 64.16 173.86 63.86 174.2 62.09 174.55 59.72 174.9 56.16 175.25 57.05 175.6 54.98 175.95 55.87 176.3 58.24 176.65 60.61 177 59.42 177.35 65.94 177.7 62.98 178.04 62.09 178.39 66.53 178.74 67.42 179.09 68.01 179.44 64.46 179.79 65.64 180.14 67.42 180.49 62.98 180.84 66.53 181.19 70.09 181.54 73.94 181.89 76.9 182.23 79.27 182.58 79.86 182.93 81.94 183.28 81.94 183.63 78.97 183.98 78.97 184.33 78.08 184.68 77.2 185.03 78.08 185.38 80.45 185.73 81.64 186.08 84.6 186.42 89.05 186.77 91.12 187.12 96.45 187.47 102.08 187.82 101.49 188.17 103.27 188.52 108.6 188.87 110.08 189.22 109.49 189.57 106.53 189.92 106.23 190.26 111.27 190.61 109.78 190.96 111.27 191.31 112.75 191.66 108.9 192.01 107.71 192.36 107.71 192.71 110.08 193.06 108.01 193.41 106.53 193.76 108.3 194.11 107.12 194.45 104.16 194.8 103.27 195.15 107.41 195.5 108.01 195.85 109.78 196.2 108.6"/>
      </g>
      <g stroke-width="0.3" fill="#000000" fill-opacity="0.000" class="geometry" stroke-dasharray="none" stroke="#F46D43" id="img-0d93dbbf-17">
        <path fill="none" d="M21.98,71.86 L 22.33 73.34 22.68 70.68 23.03 76.6 23.38 73.34 23.73 72.46 24.08 71.86 24.42 68.6 24.77 71.27 25.12 74.83 25.47 76.6 25.82 78.97 26.17 78.08 26.52 76.31 26.87 74.23 27.22 74.83 27.57 73.05 27.92 73.94 28.27 73.05 28.61 71.27 28.96 73.64 29.31 71.86 29.66 74.53 30.01 76.9 30.36 78.38 30.71 75.12 31.06 76.9 31.41 75.42 31.76 79.57 32.11 76.9 32.45 75.42 32.8 77.79 33.15 76.6 33.5 70.97 33.85 68.6 34.2 66.83 34.55 65.05 34.9 67.12 35.25 66.53 35.6 64.46 35.95 67.72 36.3 70.38 36.64 72.46 36.99 78.08 37.34 78.08 37.69 76.01 38.04 73.64 38.39 75.71 38.74 72.75 39.09 72.16 39.44 67.12 39.79 71.86 40.14 68.01 40.49 65.94 40.83 62.98 41.18 57.35 41.53 63.86 41.88 58.83 42.23 59.42 42.58 53.79 42.93 49.64 43.28 46.68 43.63 44.9 43.98 45.2 44.33 38.68 44.67 39.87 45.02 40.16 45.37 38.68 45.72 40.46 46.07 35.42 46.42 40.16 46.77 39.87 47.12 36.02 47.47 38.68 47.82 44.02 48.17 44.61 48.52 43.72 48.86 38.09 49.21 38.09 49.56 41.94 49.91 42.53 50.26 41.05 50.61 41.05 50.96 43.42 51.31 44.9 51.66 42.53 52.01 43.72 52.36 34.83 52.7 37.79 53.05 37.5 53.4 36.02 53.75 36.9 54.1 33.94 54.45 33.35 54.8 32.16 55.15 35.72 55.5 36.9 55.85 32.46 56.2 34.53 56.55 35.72 56.89 36.31 57.24 33.94 57.59 35.42 57.94 33.05 58.29 35.42 58.64 36.61 58.99 38.39 59.34 41.35 59.69 44.02 60.04 46.39 60.39 49.35 60.73 49.05 61.08 47.27 61.43 47.27 61.78 44.61 62.13 44.02 62.48 39.27 62.83 39.87 63.18 42.53 63.53 42.53 63.88 43.42 64.23 45.79 64.58 40.16 64.92 38.39 65.27 37.79 65.62 32.16 65.97 31.87 66.32 31.87 66.67 31.57 67.02 33.35 67.37 33.65 67.72 33.65 68.07 33.94 68.42 32.76 68.77 31.57 69.11 34.83 69.46 33.94 69.81 36.9 70.16 36.61 70.51 35.42 70.86 34.24 71.21 37.79 71.56 39.87 71.91 40.46 72.26 38.39 72.61 38.39 72.95 36.9 73.3 38.98 73.65 38.98 74 42.83 74.35 44.9 74.7 43.13 75.05 49.05 75.4 48.16 75.75 46.39 76.1 49.05 76.45 48.46 76.8 49.94 77.14 48.16 77.49 52.61 77.84 51.42 78.19 49.05 78.54 48.16 78.89 50.24 79.24 47.87 79.59 44.31 79.94 46.98 80.29 43.72 80.64 44.02 80.98 46.39 81.33 47.27 81.68 45.5 82.03 40.76 82.38 43.13 82.73 38.68 83.08 40.46 83.43 39.27 83.78 39.87 84.13 43.42 84.48 42.24 84.83 39.87 85.17 37.2 85.52 39.87 85.87 40.46 86.22 36.31 86.57 35.13 86.92 33.35 87.27 31.87 87.62 32.16 87.97 33.94 88.32 36.61 88.67 40.76 89.02 38.98 89.36 39.87 89.71 36.9 90.06 38.09 90.41 39.27 90.76 38.09 91.11 34.24 91.46 36.31 91.81 35.72 92.16 33.94 92.51 35.72 92.86 39.27 93.2 41.94 93.55 43.13 93.9 47.57 94.25 49.64 94.6 47.87 94.95 44.61 95.3 48.46 95.65 48.46 96 51.42 96.35 51.72 96.7 52.61 97.05 52.01 97.39 54.68 97.74 52.61 98.09 53.2 98.44 51.72 98.79 53.79 99.14 49.64 99.49 54.09 99.84 57.05 100.19 57.35 100.54 62.98 100.89 62.38 101.23 59.72 101.58 63.86 101.93 64.16 102.28 65.64 102.63 63.57 102.98 58.83 103.33 58.53 103.68 59.42 104.03 60.9 104.38 60.61 104.73 57.64 105.08 58.53 105.42 56.75 105.77 60.31 106.12 65.05 106.47 63.86 106.82 66.53 107.17 69.79 107.52 71.57 107.87 70.97 108.22 73.64 108.57 80.16 108.92 79.86 109.26 82.53 109.61 80.75 109.96 80.45 110.31 80.75 110.66 82.53 111.01 84.6 111.36 84.9 111.71 86.97 112.06 85.79 112.41 86.08 112.76 84.9 113.11 87.57 113.45 89.64 113.8 86.97 114.15 85.19 114.5 83.12 114.85 81.64 115.2 82.82 115.55 82.82 115.9 81.05 116.25 83.71 116.6 84.01 116.95 86.38 117.3 90.23 117.64 86.68 117.99 84.6 118.34 86.68 118.69 87.27 119.04 89.64 119.39 90.53 119.74 86.68 120.09 88.16 120.44 91.42 120.79 93.19 121.14 91.71 121.48 94.68 121.83 95.86 122.18 89.34 122.53 93.79 122.88 92.6 123.23 93.79 123.58 95.86 123.93 94.97 124.28 95.27 124.63 94.68 124.98 100.01 125.33 99.42 125.67 102.08 126.02 102.08 126.37 98.53 126.72 97.05 127.07 95.27 127.42 96.45 127.77 97.93 128.12 103.27 128.47 103.27 128.82 104.75 129.17 105.34 129.51 106.23 129.86 104.45 130.21 106.53 130.56 108.9 130.91 105.34 131.26 102.08 131.61 103.27 131.96 103.56 132.31 103.86 132.66 107.41 133.01 106.82 133.36 107.41 133.7 111.86 134.05 105.64 134.4 105.34 134.75 101.79 135.1 94.97 135.45 92.6 135.8 88.75 136.15 86.08 136.5 85.79 136.85 84.31 137.2 82.82 137.55 85.79 137.89 84.9 138.24 89.34 138.59 89.94 138.94 86.97 139.29 84.9 139.64 91.12 139.99 88.16 140.34 86.08 140.69 89.94 141.04 89.34 141.39 90.53 141.73 88.75 142.08 91.12 142.43 94.68 142.78 99.12 143.13 98.23 143.48 101.49 143.83 104.45 144.18 104.75 144.53 105.04 144.88 104.45 145.23 106.82 145.58 109.49 145.92 112.45 146.27 111.27 146.62 109.19 146.97 104.45 147.32 104.16 147.67 107.41 148.02 109.49 148.37 107.71 148.72 105.64 149.07 107.71 149.42 105.04 149.76 103.27 150.11 102.08 150.46 99.71 150.81 100.9 151.16 95.86 151.51 97.64 151.86 98.53 152.21 96.45 152.56 90.23 152.91 87.86 153.26 91.42 153.61 93.49 153.95 97.34 154.3 99.71 154.65 98.82 155 99.42 155.35 96.16 155.7 97.05 156.05 96.75 156.4 93.19 156.75 96.45 157.1 101.79 157.45 98.82 157.79 99.71 158.14 99.12 158.49 100.01 158.84 97.34 159.19 99.12 159.54 100.6 159.89 102.97 160.24 103.56 160.59 102.08 160.94 105.04 161.29 103.56 161.64 101.19 161.98 101.49 162.33 106.82 162.68 107.71 163.03 106.53 163.38 99.42 163.73 102.67 164.08 105.93 164.43 105.64 164.78 105.34 165.13 108.6 165.48 109.19 165.83 111.56 166.17 112.75 166.52 113.04 166.87 113.64 167.22 109.19 167.57 112.15 167.92 109.19 168.27 111.86 168.62 115.12 168.97 113.93 169.32 108.3 169.67 104.75 170.01 106.53 170.36 108.9 170.71 110.38 171.06 109.49 171.41 110.08 171.76 108.3 172.11 111.86 172.46 108.01 172.81 108.3 173.16 108.9 173.51 103.86 173.86 103.86 174.2 105.34 174.55 104.75 174.9 104.75 175.25 105.64 175.6 105.34 175.95 105.93 176.3 107.41 176.65 107.71 177 103.86 177.35 102.38 177.7 107.71 178.04 109.19 178.39 105.64 178.74 110.08 179.09 110.08 179.44 109.19 179.79 106.53 180.14 113.64 180.49 111.56 180.84 112.75 181.19 109.19 181.54 108.6 181.89 109.78 182.23 109.19 182.58 105.34 182.93 107.71 183.28 105.64 183.63 104.75 183.98 105.93 184.33 103.27 184.68 105.93 185.03 104.45 185.38 102.97 185.73 97.93 186.08 96.45 186.42 98.53 186.77 102.38 187.12 100.6 187.47 98.82 187.82 103.56 188.17 100.6 188.52 97.64 188.87 92.6 189.22 92.31 189.57 94.97 189.92 94.97 190.26 94.97 190.61 97.64 190.96 98.53 191.31 99.12 191.66 100.01 192.01 98.23 192.36 97.64 192.71 97.93 193.06 100.3 193.41 98.53 193.76 100.6 194.11 97.34 194.45 92.9 194.8 99.42 195.15 96.75 195.5 101.19 195.85 98.23 196.2 94.08"/>
      </g>
      <g stroke-width="0.3" fill="#000000" fill-opacity="0.000" class="geometry" stroke-dasharray="none" stroke="#D53E4F" id="img-0d93dbbf-18">
        <path fill="none" d="M21.98,71.86 L 22.33 68.6 22.68 69.79 23.03 72.46 23.38 70.97 23.73 67.72 24.08 70.68 24.42 69.79 24.77 68.01 25.12 73.34 25.47 73.64 25.82 75.71 26.17 72.46 26.52 68.9 26.87 69.49 27.22 68.9 27.57 69.49 27.92 68.9 28.27 67.72 28.61 63.27 28.96 64.46 29.31 68.9 29.66 67.12 30.01 65.94 30.36 67.12 30.71 67.72 31.06 70.97 31.41 72.75 31.76 74.83 32.11 68.01 32.45 66.83 32.8 70.09 33.15 66.23 33.5 65.94 33.85 63.27 34.2 67.42 34.55 65.05 34.9 65.94 35.25 67.12 35.6 65.35 35.95 64.16 36.3 68.01 36.64 68.31 36.99 68.31 37.34 69.49 37.69 70.68 38.04 70.97 38.39 71.57 38.74 65.35 39.09 69.2 39.44 67.12 39.79 68.31 40.14 72.16 40.49 74.53 40.83 77.2 41.18 80.75 41.53 85.19 41.88 83.71 42.23 82.53 42.58 88.45 42.93 86.08 43.28 86.68 43.63 85.79 43.98 83.42 44.33 79.86 44.67 78.97 45.02 79.27 45.37 81.05 45.72 82.82 46.07 84.01 46.42 85.19 46.77 85.79 47.12 88.16 47.47 89.05 47.82 87.86 48.17 88.16 48.52 88.45 48.86 90.53 49.21 86.97 49.56 87.27 49.91 88.45 50.26 89.64 50.61 89.05 50.96 89.05 51.31 89.64 51.66 90.82 52.01 95.27 52.36 94.08 52.7 95.56 53.05 95.86 53.4 94.08 53.75 100.01 54.1 100.3 54.45 96.75 54.8 98.23 55.15 101.79 55.5 104.16 55.85 102.08 56.2 105.64 56.55 108.9 56.89 107.41 57.24 107.41 57.59 108.01 57.94 103.86 58.29 99.12 58.64 98.23 58.99 95.27 59.34 94.08 59.69 92.6 60.04 96.16 60.39 96.16 60.73 91.71 61.08 92.01 61.43 94.38 61.78 97.05 62.13 99.42 62.48 97.64 62.83 92.31 63.18 88.16 63.53 88.75 63.88 81.94 64.23 81.94 64.58 81.94 64.92 81.05 65.27 76.6 65.62 83.12 65.97 81.94 66.32 81.34 66.67 79.27 67.02 79.27 67.37 77.79 67.72 80.16 68.07 80.75 68.42 82.53 68.77 84.31 69.11 81.94 69.46 81.94 69.81 84.9 70.16 84.01 70.51 86.68 70.86 87.27 71.21 85.49 71.56 87.27 71.91 87.57 72.26 90.82 72.61 86.68 72.95 89.05 73.3 89.05 73.65 83.71 74 85.49 74.35 88.16 74.7 89.05 75.05 89.94 75.4 90.82 75.75 93.19 76.1 92.9 76.45 89.05 76.8 96.75 77.14 93.49 77.49 88.16 77.84 91.71 78.19 93.19 78.54 88.75 78.89 89.05 79.24 92.9 79.59 93.79 79.94 96.45 80.29 92.31 80.64 88.45 80.98 88.75 81.33 85.49 81.68 88.75 82.03 86.68 82.38 88.75 82.73 93.19 83.08 92.01 83.43 85.79 83.78 84.6 84.13 89.05 84.48 84.6 84.83 83.71 85.17 86.68 85.52 85.49 85.87 87.86 86.22 91.12 86.57 88.45 86.92 89.64 87.27 87.57 87.62 92.31 87.97 86.68 88.32 83.42 88.67 82.82 89.02 83.12 89.36 81.64 89.71 81.64 90.06 82.82 90.41 83.71 90.76 80.45 91.11 80.16 91.46 81.05 91.81 82.53 92.16 82.82 92.51 84.01 92.86 86.68 93.2 88.16 93.55 88.16 93.9 89.94 94.25 86.68 94.6 84.31 94.95 84.9 95.3 87.57 95.65 91.12 96 91.12 96.35 91.12 96.7 93.19 97.05 94.38 97.39 100.3 97.74 102.38 98.09 103.86 98.44 105.04 98.79 107.12 99.14 108.3 99.49 110.08 99.84 109.49 100.19 109.19 100.54 109.78 100.89 108.3 101.23 108.01 101.58 108.3 101.93 105.64 102.28 104.45 102.63 102.38 102.98 108.01 103.33 108.3 103.68 110.08 104.03 113.34 104.38 116.01 104.73 114.82 105.08 116.6 105.42 117.78 105.77 116.3 106.12 116.01 106.47 116.3 106.82 116.3 107.17 114.23 107.52 115.12 107.87 109.78 108.22 109.49 108.57 111.27 108.92 108.01 109.26 110.38 109.61 109.78 109.96 113.04 110.31 110.67 110.66 115.71 111.01 115.41 111.36 115.71 111.71 117.19 112.06 115.71 112.41 119.26 112.76 118.97 113.11 119.56 113.45 118.67 113.8 119.26 114.15 120.45 114.5 124.6 114.85 124.3 115.2 122.82 115.55 122.23 115.9 122.52 116.25 121.04 116.6 121.93 116.95 118.97 117.3 116.01 117.64 115.71 117.99 112.15 118.34 113.04 118.69 111.27 119.04 114.82 119.39 113.34 119.74 118.67 120.09 116.01 120.44 119.56 120.79 116.89 121.14 118.38 121.48 119.86 121.83 117.19 122.18 113.93 122.53 115.41 122.88 115.12 123.23 116.01 123.58 115.12 123.93 113.64 124.28 116.3 124.63 119.56 124.98 120.15 125.33 119.26 125.67 117.49 126.02 115.41 126.37 112.45 126.72 111.86 127.07 109.49 127.42 108.9 127.77 108.6 128.12 107.41 128.47 104.16 128.82 105.34 129.17 106.23 129.51 104.75 129.86 102.97 130.21 104.75 130.56 104.75 130.91 102.67 131.26 98.82 131.61 99.42 131.96 99.71 132.31 95.56 132.66 97.05 133.01 97.05 133.36 92.6 133.7 93.79 134.05 99.42 134.4 101.19 134.75 104.45 135.1 101.79 135.45 100.9 135.8 97.93 136.15 100.3 136.5 100.01 136.85 102.08 137.2 103.86 137.55 104.16 137.89 102.97 138.24 101.49 138.59 99.71 138.94 98.53 139.29 95.56 139.64 90.82 139.99 88.16 140.34 87.27 140.69 86.97 141.04 86.97 141.39 88.75 141.73 89.64 142.08 88.75 142.43 86.68 142.78 89.94 143.13 88.16 143.48 86.08 143.83 84.9 144.18 83.42 144.53 79.27 144.88 78.97 145.23 77.2 145.58 77.49 145.92 77.49 146.27 74.53 146.62 76.31 146.97 77.79 147.32 83.42 147.67 79.57 148.02 73.05 148.37 70.68 148.72 67.42 149.07 63.27 149.42 60.61 149.76 58.83 150.11 59.12 150.46 59.12 150.81 62.98 151.16 57.64 151.51 56.16 151.86 50.24 152.21 52.9 152.56 54.68 152.91 54.98 153.26 53.5 153.61 57.35 153.95 58.24 154.3 60.31 154.65 62.98 155 65.05 155.35 70.68 155.7 71.57 156.05 73.34 156.4 70.38 156.75 72.75 157.1 72.75 157.45 69.49 157.79 68.31 158.14 65.05 158.49 57.35 158.84 53.79 159.19 57.05 159.54 59.12 159.89 62.38 160.24 58.53 160.59 54.09 160.94 49.94 161.29 54.38 161.64 56.75 161.98 56.16 162.33 55.27 162.68 57.94 163.03 59.12 163.38 59.42 163.73 55.87 164.08 56.75 164.43 59.12 164.78 57.05 165.13 58.24 165.48 52.31 165.83 51.42 166.17 51.42 166.52 49.94 166.87 53.2 167.22 48.46 167.57 49.05 167.92 50.83 168.27 43.72 168.62 41.94 168.97 43.13 169.32 40.76 169.67 39.57 170.01 41.94 170.36 36.9 170.71 35.42 171.06 36.31 171.41 35.42 171.76 38.68 172.11 39.87 172.46 41.35 172.81 41.94 173.16 41.05 173.51 36.02 173.86 37.2 174.2 35.72 174.55 36.61 174.9 36.02 175.25 38.39 175.6 39.87 175.95 39.57 176.3 40.16 176.65 36.61 177 36.61 177.35 37.2 177.7 37.2 178.04 33.65 178.39 31.28 178.74 32.76 179.09 31.28 179.44 30.09 179.79 29.79 180.14 28.02 180.49 28.31 180.84 25.94 181.19 25.35 181.54 24.17 181.89 24.76 182.23 25.65 182.58 26.83 182.93 27.13 183.28 27.42 183.63 25.65 183.98 26.24 184.33 24.46 184.68 23.57 185.03 24.17 185.38 22.09 185.73 22.09 186.08 21.8 186.42 19.72 186.77 18.24 187.12 20.02 187.47 18.83 187.82 18.24 188.17 19.72 188.52 20.31 188.87 20.02 189.22 20.31 189.57 19.43 189.92 21.2 190.26 21.2 190.61 22.39 190.96 23.28 191.31 26.54 191.66 27.72 192.01 29.2 192.36 29.5 192.71 29.2 193.06 31.28 193.41 28.91 193.76 27.72 194.11 27.72 194.45 31.57 194.8 31.87 195.15 35.42 195.5 32.46 195.85 33.05 196.2 34.53"/>
      </g>
      <g stroke-width="0.3" fill="#000000" fill-opacity="0.000" class="geometry" stroke-dasharray="none" stroke="#9E0142" id="img-0d93dbbf-19">
        <path fill="none" d="M21.98,71.86 L 22.33 68.01 22.68 70.68 23.03 66.83 23.38 70.09 23.73 74.23 24.08 72.75 24.42 70.38 24.77 73.64 25.12 71.86 25.47 76.6 25.82 79.27 26.17 79.57 26.52 74.23 26.87 81.34 27.22 81.94 27.57 81.94 27.92 85.79 28.27 86.08 28.61 87.57 28.96 87.27 29.31 89.05 29.66 84.6 30.01 84.9 30.36 83.12 30.71 85.49 31.06 88.75 31.41 86.68 31.76 81.64 32.11 83.71 32.45 79.86 32.8 78.97 33.15 78.08 33.5 78.38 33.85 79.57 34.2 78.38 34.55 79.27 34.9 76.31 35.25 74.53 35.6 73.94 35.95 70.68 36.3 69.49 36.64 69.79 36.99 69.2 37.34 70.09 37.69 69.2 38.04 70.09 38.39 72.46 38.74 68.01 39.09 67.12 39.44 66.23 39.79 59.72 40.14 58.24 40.49 59.42 40.83 59.42 41.18 58.53 41.53 57.35 41.88 57.35 42.23 60.61 42.58 59.42 42.93 63.86 43.28 63.57 43.63 68.31 43.98 70.09 44.33 67.72 44.67 66.23 45.02 71.27 45.37 72.46 45.72 72.16 46.07 76.01 46.42 76.31 46.77 78.38 47.12 76.6 47.47 73.05 47.82 66.53 48.17 65.94 48.52 64.46 48.86 65.64 49.21 63.86 49.56 62.98 49.91 69.79 50.26 72.16 50.61 75.12 50.96 79.86 51.31 76.9 51.66 73.64 52.01 76.01 52.36 74.83 52.7 76.01 53.05 72.16 53.4 75.12 53.75 76.6 54.1 76.9 54.45 75.12 54.8 76.31 55.15 80.45 55.5 83.42 55.85 85.49 56.2 85.79 56.55 85.19 56.89 86.38 57.24 82.23 57.59 85.19 57.94 87.57 58.29 86.68 58.64 87.27 58.99 84.9 59.34 87.27 59.69 86.97 60.04 92.6 60.39 85.79 60.73 83.42 61.08 83.42 61.43 85.79 61.78 86.68 62.13 87.86 62.48 86.97 62.83 88.16 63.18 87.27 63.53 90.53 63.88 94.38 64.23 92.9 64.58 93.79 64.92 90.23 65.27 89.64 65.62 89.05 65.97 89.64 66.32 90.23 66.67 90.53 67.02 88.75 67.37 89.64 67.72 93.79 68.07 92.6 68.42 94.08 68.77 98.53 69.11 95.56 69.46 92.01 69.81 91.12 70.16 86.97 70.51 84.9 70.86 84.6 71.21 83.71 71.56 82.82 71.91 81.94 72.26 79.86 72.61 77.2 72.95 73.64 73.3 75.12 73.65 72.75 74 66.53 74.35 63.57 74.7 66.23 75.05 71.57 75.4 75.42 75.75 70.38 76.1 67.12 76.45 71.57 76.8 68.9 77.14 67.12 77.49 67.42 77.84 60.31 78.19 59.12 78.54 61.49 78.89 64.16 79.24 60.9 79.59 58.53 79.94 56.16 80.29 55.57 80.64 58.53 80.98 62.09 81.33 62.68 81.68 69.79 82.03 71.57 82.38 75.42 82.73 76.6 83.08 74.53 83.43 68.31 83.78 68.6 84.13 64.16 84.48 62.98 84.83 65.64 85.17 61.79 85.52 57.94 85.87 56.16 86.22 55.57 86.57 57.05 86.92 57.64 87.27 57.35 87.62 56.46 87.97 57.94 88.32 57.94 88.67 59.72 89.02 58.83 89.36 56.75 89.71 54.68 90.06 54.09 90.41 54.68 90.76 48.16 91.11 46.09 91.46 47.87 91.81 49.35 92.16 52.61 92.51 41.05 92.86 46.39 93.2 45.79 93.55 42.83 93.9 42.53 94.25 37.5 94.6 37.2 94.95 37.5 95.3 36.02 95.65 33.05 96 30.39 96.35 30.09 96.7 32.16 97.05 38.09 97.39 38.39 97.74 38.68 98.09 38.09 98.44 35.13 98.79 37.5 99.14 40.16 99.49 41.05 99.84 37.5 100.19 37.79 100.54 34.53 100.89 31.87 101.23 31.57 101.58 30.39 101.93 25.94 102.28 27.13 102.63 28.02 102.98 28.61 103.33 27.42 103.68 26.83 104.03 23.57 104.38 22.39 104.73 22.09 105.08 20.61 105.42 21.2 105.77 20.91 106.12 21.2 106.47 22.09 106.82 21.5 107.17 21.2 107.52 21.5 107.87 20.91 108.22 19.43 108.57 18.24 108.92 19.43 109.26 19.13 109.61 21.5 109.96 21.5 110.31 23.57 110.66 26.54 111.01 29.79 111.36 28.02 111.71 28.31 112.06 24.17 112.41 25.35 112.76 24.17 113.11 22.39 113.45 22.98 113.8 24.46 114.15 24.76 114.5 22.98 114.85 22.39 115.2 20.61 115.55 18.54 115.9 18.83 116.25 18.83 116.6 19.72 116.95 19.72 117.3 24.46 117.64 27.42 117.99 28.61 118.34 30.09 118.69 29.2 119.04 34.24 119.39 33.94 119.74 37.2 120.09 39.27 120.44 44.9 120.79 44.61 121.14 44.61 121.48 47.27 121.83 49.05 122.18 44.9 122.53 42.24 122.88 38.98 123.23 42.83 123.58 46.09 123.93 48.76 124.28 48.16 124.63 49.05 124.98 47.57 125.33 50.24 125.67 49.05 126.02 52.31 126.37 50.24 126.72 49.35 127.07 52.61 127.42 50.83 127.77 43.13 128.12 39.27 128.47 38.98 128.82 37.5 129.17 37.2 129.51 37.2 129.86 32.76 130.21 33.05 130.56 32.46 130.91 30.68 131.26 32.16 131.61 33.94 131.96 30.39 132.31 33.94 132.66 36.31 133.01 39.27 133.36 41.35 133.7 39.57 134.05 36.31 134.4 41.94 134.75 43.72 135.1 41.94 135.45 43.13 135.8 38.68 136.15 37.5 136.5 39.87 136.85 42.83 137.2 40.76 137.55 39.87 137.89 45.5 138.24 45.5 138.59 43.42 138.94 44.02 139.29 45.79 139.64 43.42 139.99 43.72 140.34 44.9 140.69 45.79 141.04 49.94 141.39 53.5 141.73 52.31 142.08 49.94 142.43 46.98 142.78 46.39 143.13 45.5 143.48 49.05 143.83 46.98 144.18 47.87 144.53 47.57 144.88 49.35 145.23 45.5 145.58 47.87 145.92 44.61 146.27 48.16 146.62 49.35 146.97 45.79 147.32 48.16 147.67 43.72 148.02 42.53 148.37 38.68 148.72 36.9 149.07 36.31 149.42 37.5 149.76 35.13 150.11 34.53 150.46 32.16 150.81 31.57 151.16 32.16 151.51 36.31 151.86 34.83 152.21 38.09 152.56 39.57 152.91 38.68 153.26 40.16 153.61 40.76 153.95 44.9 154.3 44.02 154.65 49.05 155 53.5 155.35 59.42 155.7 60.01 156.05 58.83 156.4 59.42 156.75 63.57 157.1 61.49 157.45 59.72 157.79 59.72 158.14 51.13 158.49 52.9 158.84 54.98 159.19 54.98 159.54 51.72 159.89 51.42 160.24 49.94 160.59 48.16 160.94 46.98 161.29 49.64 161.64 48.46 161.98 49.94 162.33 49.05 162.68 48.76 163.03 45.5 163.38 42.53 163.73 41.35 164.08 43.13 164.43 45.5 164.78 43.72 165.13 43.72 165.48 45.5 165.83 48.46 166.17 46.68 166.52 53.79 166.87 56.75 167.22 60.9 167.57 58.83 167.92 61.79 168.27 63.86 168.62 68.31 168.97 68.01 169.32 71.86 169.67 68.31 170.01 69.2 170.36 73.05 170.71 68.6 171.06 63.57 171.41 63.27 171.76 63.57 172.11 66.83 172.46 69.79 172.81 71.57 173.16 70.97 173.51 73.64 173.86 74.83 174.2 74.23 174.55 73.05 174.9 71.86 175.25 69.79 175.6 66.53 175.95 63.27 176.3 68.01 176.65 64.16 177 65.94 177.35 69.49 177.7 69.79 178.04 75.12 178.39 76.01 178.74 76.9 179.09 73.05 179.44 77.49 179.79 82.82 180.14 78.38 180.49 75.42 180.84 74.83 181.19 76.9 181.54 74.83 181.89 76.6 182.23 75.42 182.58 78.08 182.93 81.05 183.28 77.2 183.63 78.38 183.98 81.94 184.33 81.05 184.68 79.27 185.03 77.2 185.38 76.31 185.73 74.83 186.08 73.64 186.42 72.75 186.77 75.42 187.12 77.79 187.47 78.08 187.82 78.38 188.17 75.42 188.52 76.6 188.87 75.71 189.22 77.79 189.57 79.27 189.92 74.83 190.26 76.31 190.61 81.94 190.96 80.75 191.31 81.64 191.66 84.6 192.01 78.38 192.36 74.83 192.71 76.6 193.06 75.71 193.41 77.2 193.76 75.42 194.11 72.46 194.45 68.9 194.8 61.79 195.15 66.83 195.5 64.16 195.85 65.35 196.2 64.75"/>
      </g>
    </g>
  </g>
</g>
  <g class="guide ylabels" font-size="2.82" font-family="'PT Sans Caption','Helvetica Neue','Helvetica',sans-serif" fill="#000000" id="img-0d93dbbf-20">
    <text x="18.63" y="131.11" text-anchor="end" dy="0.35em">0</text>
    <text x="18.63" y="101.49" text-anchor="end" dy="0.35em">100</text>
    <text x="18.63" y="71.86" text-anchor="end" dy="0.35em">200</text>
    <text x="18.63" y="42.24" text-anchor="end" dy="0.35em">300</text>
    <text x="18.63" y="12.61" text-anchor="end" dy="0.35em">400</text>
  </g>
  <g font-size="3.88" font-family="'PT Sans','Helvetica Neue','Helvetica',sans-serif" fill="#000000" stroke="#000000" stroke-opacity="0.000" id="img-0d93dbbf-21">
    <text x="8.81" y="69.86" text-anchor="middle" dy="0.35em" transform="rotate(-90, 8.81, 71.86)">population number</text>
  </g>
  <g font-size="3.88" font-family="'PT Sans','Helvetica Neue','Helvetica',sans-serif" fill="#000000" stroke="#000000" stroke-opacity="0.000" id="img-0d93dbbf-22">
    <text x="108.92" y="5" text-anchor="middle" dy="0.6em">genetic drift</text>
  </g>
</g>
<defs>
  <clipPath id="img-0d93dbbf-4">
  <path d="M19.63,10.61 L 198.2 10.61 198.2 133.11 19.63 133.11" />
</clipPath>
</defs>
</svg>
