<?xml version="1.0" encoding="UTF-8"?>
<svg xmlns="http://www.w3.org/2000/svg"
     xmlns:xlink="http://www.w3.org/1999/xlink"
     xmlns:gadfly="http://www.gadflyjl.org/ns"
     version="1.2"
     width="203.2mm" height="152.4mm" viewBox="0 0 203.2 152.4"
     stroke="none"
     fill="#000000"
     stroke-width="0.3"
     font-size="3.88"
>
<g class="plotroot xscalable yscalable" id="img-cb433b98-1">
  <g font-size="3.88" font-family="'PT Sans','Helvetica Neue','Helvetica',sans-serif" fill="#000000" stroke="#000000" stroke-opacity="0.000" id="img-cb433b98-2">
    <text x="108.92" y="140.79" text-anchor="middle" dy="0.6em">generation number</text>
  </g>
  <g class="guide xlabels" font-size="2.82" font-family="'PT Sans Caption','Helvetica Neue','Helvetica',sans-serif" fill="#000000" id="img-cb433b98-3">
    <text x="21.63" y="134.11" text-anchor="middle" dy="0.6em">0</text>
    <text x="56.55" y="134.11" text-anchor="middle" dy="0.6em">100</text>
    <text x="91.46" y="134.11" text-anchor="middle" dy="0.6em">200</text>
    <text x="126.37" y="134.11" text-anchor="middle" dy="0.6em">300</text>
    <text x="161.29" y="134.11" text-anchor="middle" dy="0.6em">400</text>
    <text x="196.2" y="134.11" text-anchor="middle" dy="0.6em">500</text>
  </g>
<g clip-path="url(#img-cb433b98-4)">
  <g id="img-cb433b98-5">
    <g pointer-events="visible" opacity="1" fill="#FFFFFF" stroke="#000000" stroke-opacity="0.000" class="guide background" id="img-cb433b98-6">
      <rect x="19.63" y="10.61" width="178.57" height="122.5"/>
    </g>
    <g class="guide ygridlines xfixed" stroke-dasharray="0.5,0.5" stroke-width="0.2" stroke="#808080" id="img-cb433b98-7">
      <path fill="none" d="M19.63,131.11 L 198.2 131.11"/>
      <path fill="none" d="M19.63,91.61 L 198.2 91.61"/>
      <path fill="none" d="M19.63,52.11 L 198.2 52.11"/>
      <path fill="none" d="M19.63,12.61 L 198.2 12.61"/>
    </g>
    <g class="guide xgridlines yfixed" stroke-dasharray="0.5,0.5" stroke-width="0.2" stroke="#808080" id="img-cb433b98-8">
      <path fill="none" d="M21.63,10.61 L 21.63 133.11"/>
      <path fill="none" d="M56.55,10.61 L 56.55 133.11"/>
      <path fill="none" d="M91.46,10.61 L 91.46 133.11"/>
      <path fill="none" d="M126.37,10.61 L 126.37 133.11"/>
      <path fill="none" d="M161.29,10.61 L 161.29 133.11"/>
      <path fill="none" d="M196.2,10.61 L 196.2 133.11"/>
    </g>
    <g class="plotpanel" id="img-cb433b98-9">
      <g stroke-width="0.3" fill="#000000" fill-opacity="0.000" class="geometry" stroke-dasharray="none" stroke="#3288BD" id="img-cb433b98-10">
        <path fill="none" d="M21.98,71.86 L 22.33 73.05 22.68 75.81 23.03 72.26 23.38 73.05 23.73 72.65 24.08 73.84 24.42 70.28 24.77 69.49 25.12 68.31 25.47 63.57 25.82 64.36 26.17 61.59 26.52 63.57 26.87 61.2 27.22 59.22 27.57 63.17 27.92 57.64 28.27 58.43 28.61 59.62 28.96 61.99 29.31 61.2 29.66 60.8 30.01 56.06 30.36 57.25 30.71 55.67 31.06 58.83 31.41 58.04 31.76 54.88 32.11 53.69 32.45 56.85 32.8 52.9 33.15 57.64 33.5 53.69 33.85 54.48 34.2 54.48 34.55 57.64 34.9 62.38 35.25 68.7 35.6 75.02 35.95 66.33 36.3 66.73 36.64 65.54 36.99 57.25 37.34 57.64 37.69 62.38 38.04 63.57 38.39 63.57 38.74 58.83 39.09 60.41 39.44 60.01 39.79 58.43 40.14 59.62 40.49 65.54 40.83 63.17 41.18 63.96 41.53 66.73 41.88 68.31 42.23 69.89 42.58 70.68 42.93 75.42 43.28 70.68 43.63 69.89 43.98 65.94 44.33 63.17 44.67 64.36 45.02 58.43 45.37 57.25 45.72 58.43 46.07 60.41 46.42 65.54 46.77 68.7 47.12 64.36 47.47 60.8 47.82 61.59 48.17 64.36 48.52 64.36 48.86 64.36 49.21 70.68 49.56 71.07 49.91 65.94 50.26 67.91 50.61 62.38 50.96 61.99 51.31 64.36 51.66 65.15 52.01 66.33 52.36 68.31 52.7 74.23 53.05 76.21 53.4 78.58 53.75 77.79 54.1 77.79 54.45 82.53 54.8 80.16 55.15 78.58 55.5 77 55.85 72.26 56.2 73.84 56.55 78.18 56.89 77.79 57.24 82.13 57.59 76.21 57.94 80.55 58.29 80.55 58.64 79.37 58.99 79.76 59.34 84.9 59.69 84.5 60.04 88.06 60.39 88.85 60.73 94.77 61.08 98.33 61.43 97.93 61.78 101.09 62.13 101.09 62.48 104.25 62.83 107.41 63.18 109.78 63.53 112.94 63.88 113.34 64.23 112.15 64.58 111.76 64.92 114.13 65.27 114.52 65.62 112.15 65.97 112.15 66.32 114.13 66.67 112.94 67.02 108.99 67.37 106.62 67.72 105.83 68.07 103.86 68.42 108.99 68.77 109.39 69.11 111.36 69.46 111.76 69.81 108.6 70.16 107.41 70.51 111.36 70.86 111.76 71.21 114.13 71.56 116.5 71.91 116.5 72.26 114.92 72.61 117.68 72.95 118.47 73.3 119.66 73.65 123.61 74 124 74.35 121.63 74.7 119.26 75.05 118.47 75.4 119.26 75.75 116.5 76.1 116.1 76.45 116.1 76.8 114.13 77.14 115.31 77.49 114.92 77.84 113.34 78.19 114.92 78.54 114.92 78.89 110.57 79.24 109.78 79.59 111.76 79.94 110.97 80.29 110.18 80.64 114.52 80.98 116.1 81.33 115.71 81.68 115.31 82.03 114.13 82.38 112.55 82.73 111.36 83.08 109.78 83.43 110.57 83.78 105.04 84.13 101.09 84.48 100.3 84.83 105.44 85.17 103.46 85.52 102.28 85.87 109.39 86.22 109.78 86.57 111.36 86.92 113.73 87.27 111.76 87.62 113.73 87.97 114.13 88.32 117.29 88.67 116.1 89.02 119.26 89.36 115.71 89.71 117.68 90.06 120.05 90.41 118.87 90.76 122.03 91.11 120.84 91.46 122.42 91.81 125.58 92.16 126.37 92.51 125.98 92.86 126.77 93.2 128.74 93.55 129.53 93.9 129.93 94.25 129.53 94.6 129.53 94.95 128.74 95.3 130.32 95.65 130.32 96 131.11"/>
      </g>
      <g stroke-width="0.3" fill="#000000" fill-opacity="0.000" class="geometry" stroke-dasharray="none" stroke="#66C2A5" id="img-cb433b98-11">
        <path fill="none" d="M21.98,71.86 L 22.33 74.63 22.68 80.95 23.03 83.71 23.38 88.06 23.73 86.48 24.08 86.48 24.42 88.06 24.77 86.48 25.12 92.8 25.47 95.56 25.82 98.72 26.17 101.49 26.52 98.33 26.87 100.7 27.22 102.67 27.57 104.65 27.92 105.44 28.27 101.49 28.61 98.33 28.96 97.14 29.31 96.75 29.66 91.61 30.01 92.4 30.36 92.8 30.71 88.06 31.06 86.08 31.41 81.74 31.76 83.71 32.11 80.16 32.45 79.37 32.8 82.13 33.15 78.97 33.5 77.79 33.85 80.16 34.2 79.76 34.55 78.58 34.9 79.76 35.25 78.58 35.6 82.13 35.95 79.37 36.3 79.76 36.64 83.71 36.99 84.5 37.34 86.08 37.69 80.55 38.04 82.53 38.39 81.34 38.74 85.29 39.09 85.69 39.44 82.53 39.79 84.9 40.14 84.11 40.49 81.34 40.83 77.39 41.18 81.74 41.53 81.34 41.88 84.5 42.23 84.5 42.58 88.06 42.93 92.01 43.28 87.27 43.63 93.19 43.98 89.64 44.33 86.87 44.67 86.08 45.02 88.45 45.37 88.85 45.72 92.01 46.07 97.54 46.42 96.35 46.77 97.54 47.12 102.67 47.47 103.86 47.82 105.83 48.17 104.65 48.52 108.6 48.86 110.18 49.21 110.57 49.56 109.39 49.91 108.99 50.26 107.41 50.61 103.86 50.96 107.81 51.31 110.57 51.66 114.13 52.01 112.55 52.36 115.31 52.7 117.68 53.05 117.68 53.4 119.66 53.75 120.05 54.1 120.45 54.45 118.87 54.8 118.87 55.15 117.29 55.5 113.34 55.85 112.15 56.2 111.36 56.55 110.97 56.89 110.97 57.24 112.55 57.59 112.94 57.94 113.73 58.29 115.71 58.64 114.13 58.99 116.5 59.34 118.47 59.69 121.24 60.04 118.08 60.39 116.5 60.73 118.08 61.08 117.68 61.43 117.29 61.78 113.34 62.13 110.57 62.48 107.41 62.83 104.25 63.18 105.44 63.53 103.46 63.88 105.44 64.23 96.75 64.58 98.72 64.92 95.56 65.27 93.59 65.62 84.9 65.97 86.08 66.32 82.53 66.67 82.92 67.02 76.21 67.37 78.18 67.72 78.97 68.07 77.39 68.42 80.55 68.77 83.71 69.11 79.76 69.46 78.18 69.81 80.95 70.16 80.95 70.51 84.11 70.86 82.53 71.21 85.69 71.56 84.9 71.91 86.08 72.26 91.22 72.61 92.01 72.95 92.01 73.3 92.4 73.65 95.17 74 95.56 74.35 93.98 74.7 94.38 75.05 97.14 75.4 97.54 75.75 93.98 76.1 92.01 76.45 87.27 76.8 90.43 77.14 90.82 77.49 89.24 77.84 89.64 78.19 88.85 78.54 89.64 78.89 90.03 79.24 91.61 79.59 91.61 79.94 91.22 80.29 85.29 80.64 84.11 80.98 89.64 81.33 91.22 81.68 93.19 82.03 93.59 82.38 93.59 82.73 97.54 83.08 94.77 83.43 93.19 83.78 96.75 84.13 95.56 84.48 94.77 84.83 97.14 85.17 98.33 85.52 97.93 85.87 101.09 86.22 96.35 86.57 92.4 86.92 92.4 87.27 91.61 87.62 97.54 87.97 95.96 88.32 92.4 88.67 85.69 89.02 87.66 89.36 89.24 89.71 83.71 90.06 86.48 90.41 81.34 90.76 80.55 91.11 80.95 91.46 72.65 91.81 79.37 92.16 79.76 92.51 75.81 92.86 72.65 93.2 73.05 93.55 73.44 93.9 76.6 94.25 78.97 94.6 75.81 94.95 74.63 95.3 73.84 95.65 67.52 96 63.96 96.35 70.28 96.7 70.68 97.05 68.31 97.39 68.31 97.74 69.49 98.09 63.17 98.44 63.17 98.79 64.75 99.14 61.59 99.49 57.64 99.84 58.04 100.19 61.59 100.54 58.43 100.89 54.88 101.23 55.67 101.58 54.09 101.93 52.9 102.28 50.53 102.63 49.35 102.98 47.37 103.33 50.14 103.68 50.14 104.03 49.35 104.38 47.77 104.73 52.11 105.08 57.25 105.42 50.14 105.77 55.27 106.12 52.51 106.47 56.06 106.82 59.22 107.17 54.48 107.52 51.32 107.87 55.67 108.22 50.14 108.57 50.53 108.92 54.88 109.26 54.48 109.61 50.53 109.96 56.46 110.31 58.04 110.66 63.17 111.01 65.15 111.36 66.73 111.71 69.49 112.06 69.49 112.41 71.47 112.76 70.28 113.11 73.44 113.45 78.18 113.8 88.06 114.15 88.06 114.5 88.45 114.85 91.22 115.2 92.01 115.55 85.29 115.9 87.66 116.25 88.06 116.6 90.82 116.95 90.03 117.3 89.64 117.64 92.4 117.99 91.61 118.34 98.33 118.69 99.91 119.04 95.56 119.39 101.88 119.74 100.7 120.09 102.28 120.44 104.25 120.79 108.99 121.14 107.41 121.48 112.94 121.83 116.5 122.18 118.47 122.53 116.5 122.88 117.68 123.23 117.68 123.58 118.08 123.93 116.89 124.28 114.92 124.63 118.47 124.98 114.92 125.33 113.34 125.67 112.55 126.02 112.15 126.37 111.76 126.72 113.34 127.07 113.34 127.42 116.89 127.77 115.31 128.12 118.47 128.47 120.45 128.82 122.82 129.17 120.45 129.51 121.24 129.86 119.26 130.21 118.08 130.56 118.47 130.91 120.84 131.26 121.63 131.61 124 131.96 124.79 132.31 122.42 132.66 124 133.01 125.58 133.36 127.16 133.7 126.37 134.05 126.77 134.4 126.37 134.75 126.77 135.1 126.77 135.45 125.98 135.8 124.4 136.15 125.58 136.5 126.37 136.85 125.58 137.2 125.98 137.55 127.56 137.89 128.35 138.24 126.77 138.59 124.4 138.94 124 139.29 124.4 139.64 122.82 139.99 125.58 140.34 124.4 140.69 124.4 141.04 124 141.39 122.03 141.73 124 142.08 124 142.43 124 142.78 121.63 143.13 120.84 143.48 124.4 143.83 125.19 144.18 127.95 144.53 128.74 144.88 128.74 145.23 129.14 145.58 129.93 145.92 129.53 146.27 128.35 146.62 128.35 146.97 128.74 147.32 128.74 147.67 130.32 148.02 130.72 148.37 131.11"/>
      </g>
      <g stroke-width="0.3" fill="#000000" fill-opacity="0.000" class="geometry" stroke-dasharray="none" stroke="#ABDDA4" id="img-cb433b98-12">
        <path fill="none" d="M21.98,71.86 L 22.33 70.28 22.68 66.73 23.03 67.91 23.38 71.07 23.73 68.7 24.08 72.65 24.42 72.65 24.77 70.28 25.12 67.52 25.47 65.94 25.82 64.36 26.17 66.73 26.52 61.59 26.87 52.9 27.22 53.3 27.57 58.04 27.92 61.2 28.27 61.99 28.61 63.17 28.96 63.17 29.31 59.22 29.66 58.04 30.01 58.83 30.36 54.88 30.71 55.27 31.06 55.67 31.41 59.22 31.76 54.09 32.11 53.3 32.45 52.11 32.8 52.51 33.15 56.46 33.5 49.74 33.85 56.46 34.2 56.46 34.55 54.48 34.9 52.51 35.25 57.25 35.6 56.85 35.95 53.3 36.3 56.46 36.64 60.41 36.99 67.52 37.34 60.8 37.69 60.41 38.04 52.9 38.39 61.59 38.74 59.22 39.09 66.73 39.44 68.31 39.79 69.89 40.14 70.28 40.49 68.31 40.83 68.31 41.18 69.89 41.53 71.07 41.88 69.89 42.23 71.86 42.58 71.86 42.93 73.84 43.28 80.95 43.63 75.02 43.98 78.18 44.33 80.16 44.67 81.74 45.02 87.27 45.37 88.06 45.72 86.08 46.07 86.08 46.42 86.08 46.77 84.5 47.12 84.5 47.47 81.34 47.82 80.55 48.17 83.71 48.52 74.63 48.86 67.12 49.21 74.63 49.56 79.76 49.91 78.18 50.26 75.42 50.61 81.74 50.96 78.18 51.31 80.95 51.66 75.42 52.01 71.47 52.36 71.07 52.7 69.49 53.05 69.1 53.4 69.49 53.75 62.78 54.1 56.06 54.45 59.22 54.8 54.09 55.15 52.11 55.5 54.09 55.85 53.3 56.2 49.74 56.55 51.72 56.89 50.53 57.24 47.37 57.59 47.37 57.94 50.93 58.29 54.88 58.64 55.67 58.99 51.72 59.34 48.56 59.69 48.95 60.04 46.58 60.39 39.08 60.73 39.47 61.08 44.61 61.43 44.61 61.78 47.37 62.13 45.79 62.48 47.77 62.83 53.3 63.18 51.32 63.53 46.19 63.88 44.61 64.23 44.61 64.58 41.84 64.92 38.29 65.27 45 65.62 45.4 65.97 50.53 66.32 48.95 66.67 52.51 67.02 53.3 67.37 54.88 67.72 56.06 68.07 58.43 68.42 56.06 68.77 50.53 69.11 53.69 69.46 50.14 69.81 51.32 70.16 53.3 70.51 51.72 70.86 53.69 71.21 56.85 71.56 54.09 71.91 51.72 72.26 52.51 72.61 48.16 72.95 55.67 73.3 54.48 73.65 58.83 74 58.43 74.35 60.01 74.7 64.36 75.05 62.38 75.4 61.2 75.75 58.04 76.1 57.64 76.45 59.62 76.8 59.22 77.14 60.41 77.49 57.64 77.84 58.43 78.19 63.57 78.54 67.91 78.89 70.68 79.24 75.81 79.59 74.23 79.94 74.23 80.29 80.55 80.64 77 80.98 79.37 81.33 78.58 81.68 79.37 82.03 82.92 82.38 88.45 82.73 88.45 83.08 85.69 83.43 83.32 83.78 83.32 84.13 78.97 84.48 80.95 84.83 87.27 85.17 85.29 85.52 84.5 85.87 82.92 86.22 86.87 86.57 91.61 86.92 92.4 87.27 95.56 87.62 95.17 87.97 98.72 88.32 95.17 88.67 96.35 89.02 92.01 89.36 94.38 89.71 100.3 90.06 100.7 90.41 103.86 90.76 105.44 91.11 108.2 91.46 111.36 91.81 110.97 92.16 117.68 92.51 121.24 92.86 123.61 93.2 124.79 93.55 122.82 93.9 126.37 94.25 128.35 94.6 126.77 94.95 126.77 95.3 127.16 95.65 127.16 96 125.58 96.35 125.98 96.7 125.19 97.05 126.37 97.39 127.16 97.74 127.56 98.09 125.58 98.44 123.21 98.79 121.63 99.14 122.03 99.49 122.82 99.84 120.84 100.19 122.03 100.54 121.24 100.89 120.84 101.23 121.24 101.58 121.63 101.93 121.24 102.28 120.84 102.63 118.87 102.98 117.68 103.33 117.68 103.68 119.26 104.03 121.63 104.38 122.42 104.73 123.61 105.08 125.58 105.42 125.58 105.77 124.4 106.12 125.98 106.47 126.37 106.82 127.95 107.17 127.56 107.52 127.56 107.87 125.58 108.22 125.19 108.57 127.16 108.92 127.95 109.26 127.16 109.61 125.58 109.96 124.4 110.31 119.26 110.66 123.21 111.01 124.4 111.36 125.98 111.71 124.4 112.06 125.98 112.41 124.79 112.76 125.58 113.11 125.19 113.45 123.61 113.8 123.61 114.15 124.4 114.5 123.21 114.85 122.82 115.2 121.63 115.55 123.21 115.9 122.42 116.25 120.45 116.6 116.89 116.95 114.92 117.3 116.1 117.64 119.26 117.99 119.26 118.34 118.87 118.69 116.1 119.04 118.47 119.39 118.87 119.74 115.31 120.09 116.5 120.44 114.52 120.79 115.31 121.14 115.31 121.48 114.13 121.83 112.15 122.18 114.92 122.53 111.76 122.88 110.18 123.23 107.81 123.58 105.83 123.93 106.23 124.28 107.81 124.63 104.65 124.98 102.67 125.33 106.23 125.67 104.65 126.02 107.81 126.37 109.39 126.72 110.97 127.07 107.41 127.42 106.23 127.77 113.73 128.12 115.71 128.47 116.5 128.82 118.08 129.17 114.92 129.51 113.73 129.86 115.71 130.21 118.47 130.56 113.34 130.91 116.1 131.26 118.47 131.61 119.26 131.96 118.47 132.31 118.87 132.66 122.82 133.01 123.21 133.36 122.42 133.7 120.84 134.05 122.82 134.4 122.03 134.75 119.66 135.1 123.61 135.45 121.24 135.8 119.66 136.15 120.45 136.5 120.45 136.85 120.45 137.2 122.03 137.55 120.45 137.89 120.05 138.24 122.42 138.59 120.45 138.94 120.45 139.29 120.45 139.64 119.66 139.99 116.1 140.34 115.71 140.69 114.92 141.04 112.94 141.39 112.55 141.73 113.34 142.08 114.92 142.43 113.73 142.78 113.73 143.13 116.5 143.48 120.05 143.83 120.84 144.18 120.45 144.53 119.26 144.88 118.87 145.23 121.24 145.58 122.42 145.92 121.24 146.27 123.21 146.62 124.4 146.97 125.58 147.32 124.79 147.67 127.56 148.02 127.95 148.37 127.56 148.72 129.14 149.07 129.53 149.42 129.93 149.76 129.93 150.11 129.93 150.46 130.72 150.81 131.11"/>
      </g>
      <g stroke-width="0.3" fill="#000000" fill-opacity="0.000" class="geometry" stroke-dasharray="none" stroke="#E6F598" id="img-cb433b98-13">
        <path fill="none" d="M21.98,71.86 L 22.33 68.31 22.68 68.31 23.03 69.1 23.38 69.1 23.73 71.07 24.08 71.07 24.42 67.52 24.77 72.26 25.12 73.84 25.47 74.23 25.82 75.42 26.17 80.55 26.52 82.53 26.87 81.74 27.22 80.16 27.57 81.74 27.92 84.11 28.27 86.48 28.61 84.9 28.96 85.29 29.31 80.95 29.66 84.5 30.01 83.71 30.36 80.16 30.71 80.16 31.06 82.13 31.41 75.42 31.76 75.81 32.11 77.39 32.45 79.76 32.8 77.39 33.15 75.42 33.5 75.42 33.85 74.23 34.2 70.68 34.55 75.42 34.9 73.44 35.25 71.47 35.6 70.68 35.95 71.86 36.3 76.21 36.64 77.79 36.99 79.37 37.34 78.58 37.69 80.16 38.04 74.63 38.39 82.53 38.74 79.76 39.09 78.97 39.44 79.76 39.79 82.53 40.14 81.34 40.49 78.18 40.83 79.76 41.18 76.21 41.53 77.39 41.88 77 42.23 78.18 42.58 80.55 42.93 75.81 43.28 75.02 43.63 71.07 43.98 78.58 44.33 80.55 44.67 78.58 45.02 76.6 45.37 81.34 45.72 84.9 46.07 85.29 46.42 82.53 46.77 83.32 47.12 87.27 47.47 88.06 47.82 88.06 48.17 92.01 48.52 93.59 48.86 97.93 49.21 97.54 49.56 99.91 49.91 98.33 50.26 102.28 50.61 105.83 50.96 104.25 51.31 99.91 51.66 100.7 52.01 91.22 52.36 93.59 52.7 99.12 53.05 95.56 53.4 91.61 53.75 91.61 54.1 85.29 54.45 84.11 54.8 89.24 55.15 83.32 55.5 80.16 55.85 76.6 56.2 74.23 56.55 71.07 56.89 71.86 57.24 69.89 57.59 74.23 57.94 79.37 58.29 83.71 58.64 83.71 58.99 88.45 59.34 82.53 59.69 81.34 60.04 82.13 60.39 80.16 60.73 84.11 61.08 76.6 61.43 83.71 61.78 84.5 62.13 86.08 62.48 90.82 62.83 92.01 63.18 86.48 63.53 88.45 63.88 84.9 64.23 86.87 64.58 81.74 64.92 83.32 65.27 77.39 65.62 75.02 65.97 69.89 66.32 72.65 66.67 78.18 67.02 79.37 67.37 77 67.72 74.63 68.07 83.32 68.42 79.37 68.77 79.76 69.11 78.58 69.46 84.5 69.81 85.29 70.16 82.92 70.51 83.71 70.86 83.71 71.21 77.39 71.56 80.55 71.91 78.18 72.26 84.9 72.61 84.9 72.95 81.34 73.3 82.92 73.65 78.97 74 78.18 74.35 82.92 74.7 82.13 75.05 80.55 75.4 80.95 75.75 82.13 76.1 88.85 76.45 90.03 76.8 87.66 77.14 80.95 77.49 80.16 77.84 77 78.19 77.39 78.54 75.42 78.89 69.1 79.24 66.33 79.59 65.54 79.94 67.52 80.29 63.57 80.64 68.7 80.98 64.36 81.33 69.1 81.68 65.54 82.03 57.25 82.38 63.57 82.73 61.2 83.08 63.17 83.43 63.57 83.78 60.8 84.13 61.59 84.48 67.91 84.83 64.75 85.17 68.31 85.52 66.73 85.87 73.44 86.22 73.44 86.57 73.05 86.92 78.97 87.27 75.42 87.62 77.39 87.97 83.71 88.32 87.66 88.67 90.82 89.02 81.34 89.36 81.34 89.71 79.76 90.06 78.97 90.41 75.42 90.76 72.65 91.11 67.91 91.46 72.26 91.81 71.86 92.16 69.89 92.51 68.7 92.86 70.28 93.2 73.84 93.55 78.18 93.9 73.84 94.25 67.91 94.6 61.99 94.95 67.12 95.3 80.55 95.65 86.08 96 87.27 96.35 87.27 96.7 88.06 97.05 92.01 97.39 93.59 97.74 94.38 98.09 94.38 98.44 99.91 98.79 103.86 99.14 103.86 99.49 104.65 99.84 99.91 100.19 98.33 100.54 96.75 100.89 97.93 101.23 97.54 101.58 97.93 101.93 95.17 102.28 100.3 102.63 103.07 102.98 106.62 103.33 105.83 103.68 105.04 104.03 107.02 104.38 105.83 104.73 104.65 105.08 105.04 105.42 107.41 105.77 105.83 106.12 106.62 106.47 105.44 106.82 106.62 107.17 107.02 107.52 107.81 107.87 108.6 108.22 108.6 108.57 108.6 108.92 108.99 109.26 106.62 109.61 110.18 109.96 111.76 110.31 112.55 110.66 110.97 111.01 112.55 111.36 107.02 111.71 106.23 112.06 97.93 112.41 99.91 112.76 97.93 113.11 96.75 113.45 97.14 113.8 96.75 114.15 98.33 114.5 97.14 114.85 96.75 115.2 98.72 115.55 93.98 115.9 93.98 116.25 91.61 116.6 90.03 116.95 89.64 117.3 89.24 117.64 93.19 117.99 97.14 118.34 96.75 118.69 99.51 119.04 99.12 119.39 94.77 119.74 91.61 120.09 94.77 120.44 88.06 120.79 82.13 121.14 82.53 121.48 83.32 121.83 78.97 122.18 81.34 122.53 77.39 122.88 76.6 123.23 74.63 123.58 71.47 123.93 69.89 124.28 73.05 124.63 73.84 124.98 75.42 125.33 75.81 125.67 72.65 126.02 68.31 126.37 66.73 126.72 62.78 127.07 63.96 127.42 66.73 127.77 71.47 128.12 73.44 128.47 66.33 128.82 66.33 129.17 66.73 129.51 69.49 129.86 72.26 130.21 66.73 130.56 67.91 130.91 63.96 131.26 66.33 131.61 69.89 131.96 67.12 132.31 68.31 132.66 59.62 133.01 61.99 133.36 59.62 133.7 60.01 134.05 58.43 134.4 54.09 134.75 54.09 135.1 50.53 135.45 46.98 135.8 52.51 136.15 53.69 136.5 50.93 136.85 50.93 137.2 50.53 137.55 51.32 137.89 48.95 138.24 53.3 138.59 53.3 138.94 53.69 139.29 58.43 139.64 58.04 139.99 67.12 140.34 72.26 140.69 67.91 141.04 65.94 141.39 61.59 141.73 63.96 142.08 66.33 142.43 64.75 142.78 68.7 143.13 69.89 143.48 71.86 143.83 74.23 144.18 73.84 144.53 66.73 144.88 71.86 145.23 73.84 145.58 74.23 145.92 72.26 146.27 78.58 146.62 77.79 146.97 71.86 147.32 74.23 147.67 73.05 148.02 75.81 148.37 75.02 148.72 70.28 149.07 73.44 149.42 74.23 149.76 80.55 150.11 83.32 150.46 86.08 150.81 89.64 151.16 89.24 151.51 83.32 151.86 85.69 152.21 83.32 152.56 83.32 152.91 80.95 153.26 76.6 153.61 79.37 153.95 83.32 154.3 83.32 154.65 80.95 155 76.21 155.35 75.81 155.7 78.58 156.05 82.53 156.4 77.79 156.75 74.23 157.1 76.6 157.45 80.16 157.79 74.63 158.14 74.63 158.49 78.18 158.84 77 159.19 79.37 159.54 77.79 159.89 76.6 160.24 80.55 160.59 77.39 160.94 72.26 161.29 68.7 161.64 71.07 161.98 73.05 162.33 73.05 162.68 72.26 163.03 72.65 163.38 75.02 163.73 77.39 164.08 78.58 164.43 75.02 164.78 72.65 165.13 77 165.48 75.81 165.83 75.42 166.17 77 166.52 83.71 166.87 78.58 167.22 76.21 167.57 71.86 167.92 71.07 168.27 73.84 168.62 71.86 168.97 74.23 169.32 77.39 169.67 82.53 170.01 82.13 170.36 82.53 170.71 85.69 171.06 81.34 171.41 83.32 171.76 85.29 172.11 89.64 172.46 83.71 172.81 82.53 173.16 80.16 173.51 78.97 173.86 80.16 174.2 86.87 174.55 82.53 174.9 82.53 175.25 81.34 175.6 78.97 175.95 79.76 176.3 82.53 176.65 87.66 177 86.48 177.35 86.08 177.7 87.66 178.04 83.32 178.39 80.16 178.74 83.32 179.09 80.55 179.44 84.11 179.79 82.92 180.14 81.34 180.49 79.76 180.84 85.29 181.19 90.03 181.54 88.45 181.89 90.82 182.23 89.64 182.58 90.82 182.93 91.22 183.28 87.27 183.63 89.64 183.98 93.59 184.33 92.4 184.68 88.06 185.03 94.38 185.38 94.77 185.73 90.43 186.08 93.59 186.42 92.8 186.77 89.24 187.12 83.32 187.47 82.53 187.82 86.87 188.17 84.5 188.52 79.37 188.87 80.95 189.22 74.63 189.57 75.02 189.92 77.39 190.26 71.47 190.61 74.63 190.96 77.79 191.31 76.21 191.66 73.84 192.01 75.42 192.36 73.05 192.71 74.23 193.06 73.05 193.41 71.07 193.76 71.07 194.11 67.91 194.45 73.84 194.8 67.52 195.15 65.94 195.5 65.54 195.85 59.62 196.2 59.22"/>
      </g>
      <g stroke-width="0.3" fill="#000000" fill-opacity="0.000" class="geometry" stroke-dasharray="none" stroke="#FFFFBF" id="img-cb433b98-14">
        <path fill="none" d="M21.98,71.86 L 22.33 75.02 22.68 72.26 23.03 77.39 23.38 78.18 23.73 70.28 24.08 71.07 24.42 65.54 24.77 61.2 25.12 63.96 25.47 61.99 25.82 61.99 26.17 60.41 26.52 65.54 26.87 65.94 27.22 69.49 27.57 67.12 27.92 60.8 28.27 58.83 28.61 63.17 28.96 65.54 29.31 67.12 29.66 65.94 30.01 68.7 30.36 68.7 30.71 68.7 31.06 64.36 31.41 68.31 31.76 67.91 32.11 66.73 32.45 61.2 32.8 58.43 33.15 60.41 33.5 61.99 33.85 63.57 34.2 68.31 34.55 66.33 34.9 71.47 35.25 73.44 35.6 76.21 35.95 77.39 36.3 73.84 36.64 76.21 36.99 78.18 37.34 80.16 37.69 83.32 38.04 82.92 38.39 82.13 38.74 84.11 39.09 89.24 39.44 91.22 39.79 92.4 40.14 92.8 40.49 94.77 40.83 97.54 41.18 99.12 41.53 98.72 41.88 92.8 42.23 90.03 42.58 88.45 42.93 81.74 43.28 79.37 43.63 82.13 43.98 82.92 44.33 86.87 44.67 90.43 45.02 90.82 45.37 89.24 45.72 85.69 46.07 86.08 46.42 90.03 46.77 89.24 47.12 90.03 47.47 88.45 47.82 89.64 48.17 88.06 48.52 84.11 48.86 81.74 49.21 81.34 49.56 79.76 49.91 75.02 50.26 67.52 50.61 71.86 50.96 71.86 51.31 66.33 51.66 67.52 52.01 67.12 52.36 61.59 52.7 58.43 53.05 57.25 53.4 58.43 53.75 58.43 54.1 62.78 54.45 64.75 54.8 63.57 55.15 60.01 55.5 59.62 55.85 65.94 56.2 65.15 56.55 62.38 56.89 63.96 57.24 58.83 57.59 59.22 57.94 58.04 58.29 58.04 58.64 54.09 58.99 58.83 59.34 61.59 59.69 58.83 60.04 58.04 60.39 60.8 60.73 59.62 61.08 56.06 61.43 57.64 61.78 57.25 62.13 59.22 62.48 58.83 62.83 62.78 63.18 64.36 63.53 61.99 63.88 61.59 64.23 64.75 64.58 63.57 64.92 58.83 65.27 57.64 65.62 54.09 65.97 51.72 66.32 51.72 66.67 54.09 67.02 55.27 67.37 54.09 67.72 53.69 68.07 59.62 68.42 63.17 68.77 62.78 69.11 62.78 69.46 67.52 69.81 65.54 70.16 60.01 70.51 56.46 70.86 57.25 71.21 56.46 71.56 53.69 71.91 54.09 72.26 56.85 72.61 54.88 72.95 54.48 73.3 54.48 73.65 55.67 74 57.64 74.35 54.48 74.7 57.25 75.05 61.59 75.4 63.57 75.75 60.41 76.1 53.69 76.45 50.53 76.8 52.51 77.14 52.51 77.49 50.93 77.84 50.14 78.19 49.35 78.54 52.11 78.89 53.69 79.24 57.64 79.59 53.3 79.94 55.27 80.29 63.96 80.64 64.75 80.98 64.36 81.33 64.36 81.68 63.57 82.03 58.43 82.38 60.41 82.73 67.52 83.08 62.38 83.43 59.22 83.78 56.85 84.13 59.22 84.48 60.8 84.83 65.15 85.17 64.75 85.52 65.15 85.87 69.1 86.22 69.1 86.57 69.1 86.92 67.91 87.27 68.7 87.62 69.89 87.97 61.59 88.32 61.2 88.67 60.8 89.02 63.96 89.36 65.15 89.71 62.38 90.06 62.78 90.41 65.54 90.76 70.28 91.11 72.26 91.46 72.65 91.81 73.05 92.16 71.47 92.51 66.33 92.86 63.96 93.2 64.36 93.55 65.15 93.9 64.75 94.25 58.83 94.6 58.43 94.95 59.62 95.3 61.59 95.65 58.83 96 61.59 96.35 56.46 96.7 55.27 97.05 56.85 97.39 56.46 97.74 58.04 98.09 61.99 98.44 63.17 98.79 66.73 99.14 62.78 99.49 57.64 99.84 52.51 100.19 55.67 100.54 54.09 100.89 55.27 101.23 53.3 101.58 50.93 101.93 50.93 102.28 48.16 102.63 50.14 102.98 54.48 103.33 56.46 103.68 51.32 104.03 42.24 104.38 41.84 104.73 44.21 105.08 48.56 105.42 46.58 105.77 42.24 106.12 39.87 106.47 39.87 106.82 40.66 107.17 40.26 107.52 45.79 107.87 47.77 108.22 50.93 108.57 48.16 108.92 50.53 109.26 52.9 109.61 48.16 109.96 54.09 110.31 50.14 110.66 46.98 111.01 48.56 111.36 48.16 111.71 51.32 112.06 50.93 112.41 54.09 112.76 58.43 113.11 61.59 113.45 66.73 113.8 67.91 114.15 65.54 114.5 61.59 114.85 59.22 115.2 59.62 115.55 58.04 115.9 60.8 116.25 56.46 116.6 58.83 116.95 60.01 117.3 58.04 117.64 61.59 117.99 65.54 118.34 66.33 118.69 66.73 119.04 71.86 119.39 69.89 119.74 67.52 120.09 68.7 120.44 65.15 120.79 64.36 121.14 63.17 121.48 54.09 121.83 60.41 122.18 63.17 122.53 61.99 122.88 65.54 123.23 64.36 123.58 69.49 123.93 73.05 124.28 73.05 124.63 72.65 124.98 72.26 125.33 69.89 125.67 69.89 126.02 76.6 126.37 78.58 126.72 80.55 127.07 79.37 127.42 84.11 127.77 85.69 128.12 83.71 128.47 84.9 128.82 83.32 129.17 84.11 129.51 83.71 129.86 88.45 130.21 83.71 130.56 82.92 130.91 84.11 131.26 78.97 131.61 75.81 131.96 81.74 132.31 82.13 132.66 83.71 133.01 90.03 133.36 86.08 133.7 83.71 134.05 86.48 134.4 84.11 134.75 82.92 135.1 78.18 135.45 80.16 135.8 80.95 136.15 77.79 136.5 78.58 136.85 75.02 137.2 75.02 137.55 73.05 137.89 69.1 138.24 63.57 138.59 57.64 138.94 58.04 139.29 53.69 139.64 49.74 139.99 48.95 140.34 49.74 140.69 49.35 141.04 50.14 141.39 47.37 141.73 46.98 142.08 46.58 142.43 47.77 142.78 49.35 143.13 46.58 143.48 44.21 143.83 44.21 144.18 43.03 144.53 45.4 144.88 47.37 145.23 41.84 145.58 42.24 145.92 40.66 146.27 42.63 146.62 43.42 146.97 43.03 147.32 46.19 147.67 47.77 148.02 48.95 148.37 55.27 148.72 56.06 149.07 58.04 149.42 60.8 149.76 61.59 150.11 65.15 150.46 66.73 150.81 67.12 151.16 67.52 151.51 68.7 151.86 69.49 152.21 68.31 152.56 68.31 152.91 68.31 153.26 64.75 153.61 66.33 153.95 63.96 154.3 65.54 154.65 57.64 155 56.06 155.35 57.64 155.7 61.99 156.05 56.85 156.4 53.3 156.75 55.27 157.1 57.64 157.45 65.15 157.79 65.94 158.14 68.31 158.49 65.54 158.84 65.54 159.19 60.8 159.54 58.83 159.89 57.64 160.24 59.62 160.59 58.43 160.94 53.69 161.29 50.53 161.64 51.32 161.98 56.46 162.33 56.06 162.68 57.25 163.03 55.67 163.38 52.11 163.73 54.88 164.08 62.78 164.43 65.94 164.78 63.96 165.13 71.07 165.48 74.63 165.83 72.65 166.17 70.68 166.52 73.05 166.87 67.52 167.22 75.42 167.57 74.23 167.92 71.47 168.27 69.1 168.62 72.65 168.97 75.42 169.32 72.26 169.67 69.49 170.01 69.1 170.36 60.41 170.71 65.15 171.06 67.12 171.41 64.36 171.76 65.94 172.11 66.73 172.46 68.7 172.81 65.54 173.16 63.96 173.51 71.07 173.86 69.49 174.2 71.47 174.55 69.89 174.9 66.73 175.25 67.52 175.6 69.49 175.95 65.54 176.3 63.17 176.65 62.78 177 63.57 177.35 64.75 177.7 65.54 178.04 61.2 178.39 59.22 178.74 61.2 179.09 55.67 179.44 55.27 179.79 56.06 180.14 54.48 180.49 50.93 180.84 47.77 181.19 43.82 181.54 40.26 181.89 36.31 182.23 35.13 182.58 36.71 182.93 36.71 183.28 41.84 183.63 42.24 183.98 43.42 184.33 43.03 184.68 43.42 185.03 39.87 185.38 36.31 185.73 34.34 186.08 37.5 186.42 39.87 186.77 41.45 187.12 44.21 187.47 45.4 187.82 48.16 188.17 47.37 188.52 49.35 188.87 52.9 189.22 53.69 189.57 51.32 189.92 48.16 190.26 45.79 190.61 41.84 190.96 41.45 191.31 39.47 191.66 34.73 192.01 30.78 192.36 34.73 192.71 35.52 193.06 31.57 193.41 31.18 193.76 24.46 194.11 26.04 194.45 25.25 194.8 28.41 195.15 26.04 195.5 26.44 195.85 21.7 196.2 24.86"/>
      </g>
      <g stroke-width="0.3" fill="#000000" fill-opacity="0.000" class="geometry" stroke-dasharray="none" stroke="#FEE08B" id="img-cb433b98-15">
        <path fill="none" d="M21.98,71.86 L 22.33 72.65 22.68 74.63 23.03 77.79 23.38 77.79 23.73 80.95 24.08 80.95 24.42 78.58 24.77 80.16 25.12 82.92 25.47 80.95 25.82 80.95 26.17 78.97 26.52 76.6 26.87 76.6 27.22 74.63 27.57 75.02 27.92 77.79 28.27 75.81 28.61 75.81 28.96 76.6 29.31 75.42 29.66 74.23 30.01 72.65 30.36 75.02 30.71 73.84 31.06 78.18 31.41 75.81 31.76 71.86 32.11 71.86 32.45 69.49 32.8 72.26 33.15 71.47 33.5 76.21 33.85 79.37 34.2 91.22 34.55 92.01 34.9 88.85 35.25 90.03 35.6 92.8 35.95 86.87 36.3 86.48 36.64 87.66 36.99 93.59 37.34 90.43 37.69 93.19 38.04 89.24 38.39 87.66 38.74 84.5 39.09 87.66 39.44 88.06 39.79 89.24 40.14 85.29 40.49 89.64 40.83 90.82 41.18 90.43 41.53 89.24 41.88 90.03 42.23 90.82 42.58 95.56 42.93 91.61 43.28 92.01 43.63 95.56 43.98 93.19 44.33 98.33 44.67 94.38 45.02 91.22 45.37 88.06 45.72 83.32 46.07 88.45 46.42 88.45 46.77 88.06 47.12 92.4 47.47 97.14 47.82 95.17 48.17 97.14 48.52 96.75 48.86 92.4 49.21 97.93 49.56 97.93 49.91 100.3 50.26 97.14 50.61 100.3 50.96 99.91 51.31 98.72 51.66 96.75 52.01 93.19 52.36 95.56 52.7 96.75 53.05 96.75 53.4 97.54 53.75 102.28 54.1 103.07 54.45 106.62 54.8 108.2 55.15 108.6 55.5 108.6 55.85 109.39 56.2 110.97 56.55 112.15 56.89 114.13 57.24 112.15 57.59 114.13 57.94 114.13 58.29 111.36 58.64 109.39 58.99 107.41 59.34 107.41 59.69 105.44 60.04 103.46 60.39 100.7 60.73 97.93 61.08 92.4 61.43 95.56 61.78 95.56 62.13 97.93 62.48 95.56 62.83 95.17 63.18 97.93 63.53 98.72 63.88 91.22 64.23 94.38 64.58 98.33 64.92 97.14 65.27 93.98 65.62 92.01 65.97 95.56 66.32 100.7 66.67 99.51 67.02 101.09 67.37 107.02 67.72 106.23 68.07 106.23 68.42 102.67 68.77 101.09 69.11 104.65 69.46 105.44 69.81 107.02 70.16 99.91 70.51 98.72 70.86 100.3 71.21 97.93 71.56 98.72 71.91 99.12 72.26 101.09 72.61 96.75 72.95 90.43 73.3 93.59 73.65 95.56 74 95.17 74.35 88.06 74.7 84.11 75.05 84.11 75.4 85.29 75.75 81.74 76.1 78.18 76.45 78.18 76.8 75.81 77.14 80.16 77.49 77.39 77.84 76.6 78.19 80.55 78.54 82.53 78.89 81.74 79.24 78.97 79.59 79.76 79.94 75.81 80.29 73.44 80.64 72.65 80.98 75.42 81.33 67.12 81.68 62.78 82.03 61.99 82.38 60.8 82.73 63.17 83.08 66.73 83.43 69.49 83.78 69.1 84.13 65.15 84.48 64.75 84.83 65.15 85.17 61.99 85.52 59.62 85.87 52.9 86.22 52.51 86.57 47.37 86.92 45.79 87.27 44.61 87.62 41.45 87.97 41.45 88.32 40.66 88.67 42.24 89.02 44.61 89.36 44.61 89.71 48.56 90.06 44.61 90.41 38.68 90.76 35.52 91.11 35.52 91.46 38.29 91.81 35.52 92.16 33.94 92.51 30.39 92.86 35.52 93.2 33.55 93.55 31.18 93.9 31.97 94.25 30.78 94.6 30.78 94.95 28.41 95.3 32.76 95.65 36.31 96 34.73 96.35 37.5 96.7 36.31 97.05 33.94 97.39 37.89 97.74 41.45 98.09 44.21 98.44 46.98 98.79 43.82 99.14 44.61 99.49 44.21 99.84 37.1 100.19 34.34 100.54 31.97 100.89 37.1 101.23 36.31 101.58 41.45 101.93 41.45 102.28 41.84 102.63 36.71 102.98 40.26 103.33 35.52 103.68 35.92 104.03 42.24 104.38 37.89 104.73 36.31 105.08 38.68 105.42 39.47 105.77 40.66 106.12 40.66 106.47 40.26 106.82 43.03 107.17 44.61 107.52 42.24 107.87 41.84 108.22 34.34 108.57 33.94 108.92 33.94 109.26 34.34 109.61 33.15 109.96 33.15 110.31 33.55 110.66 37.5 111.01 35.92 111.36 29.99 111.71 30.78 112.06 28.41 112.41 30.78 112.76 30.39 113.11 31.18 113.45 29.99 113.8 29.99 114.15 31.18 114.5 31.97 114.85 33.94 115.2 36.31 115.55 43.42 115.9 41.05 116.25 38.68 116.6 33.15 116.95 33.55 117.3 26.83 117.64 24.86 117.99 25.65 118.34 29.99 118.69 32.36 119.04 30.78 119.39 32.76 119.74 33.55 120.09 33.94 120.44 35.13 120.79 33.55 121.14 29.6 121.48 25.25 121.83 26.44 122.18 27.62 122.53 29.99 122.88 32.76 123.23 29.99 123.58 30.78 123.93 31.57 124.28 32.36 124.63 29.99 124.98 30.78 125.33 33.94 125.67 32.76 126.02 35.13 126.37 32.36 126.72 33.15 127.07 33.94 127.42 33.55 127.77 34.34 128.12 33.94 128.47 31.18 128.82 30.39 129.17 27.62 129.51 26.83 129.86 25.25 130.21 25.65 130.56 23.28 130.91 22.09 131.26 18.54 131.61 20.12 131.96 20.51 132.31 22.49 132.66 24.07 133.01 24.86 133.36 24.07 133.7 22.49 134.05 22.49 134.4 22.88 134.75 25.65 135.1 26.44 135.45 22.09 135.8 20.91 136.15 21.3 136.5 20.12 136.85 18.14 137.2 18.14 137.55 18.54 137.89 17.75 138.24 15.77 138.59 16.17 138.94 20.51 139.29 20.51 139.64 19.72 139.99 22.09 140.34 20.12 140.69 22.88 141.04 26.04 141.39 28.41 141.73 27.62 142.08 31.18 142.43 30.78 142.78 29.2 143.13 26.04 143.48 21.7 143.83 22.49 144.18 21.7 144.53 18.93 144.88 18.54 145.23 16.96 145.58 15.38 145.92 14.98 146.27 14.98 146.62 13.4 146.97 13.01 147.32 13.01 147.67 13.01 148.02 13.8 148.37 14.19 148.72 15.38 149.07 14.98 149.42 13.8 149.76 13.01 150.11 13.01 150.46 12.61"/>
      </g>
      <g stroke-width="0.3" fill="#000000" fill-opacity="0.000" class="geometry" stroke-dasharray="none" stroke="#FDAE61" id="img-cb433b98-16">
        <path fill="none" d="M21.98,71.86 L 22.33 79.37 22.68 79.37 23.03 78.97 23.38 78.97 23.73 81.34 24.08 85.69 24.42 86.48 24.77 85.69 25.12 89.24 25.47 87.27 25.82 90.82 26.17 84.5 26.52 86.48 26.87 84.9 27.22 82.92 27.57 82.53 27.92 84.11 28.27 81.74 28.61 89.24 28.96 89.24 29.31 92.01 29.66 94.38 30.01 92.01 30.36 88.06 30.71 92.01 31.06 88.06 31.41 86.87 31.76 90.03 32.11 92.01 32.45 92.8 32.8 87.66 33.15 86.48 33.5 88.45 33.85 91.22 34.2 88.06 34.55 80.16 34.9 81.34 35.25 80.55 35.6 81.74 35.95 79.37 36.3 79.76 36.64 80.95 36.99 74.63 37.34 71.07 37.69 72.26 38.04 76.21 38.39 73.05 38.74 64.75 39.09 73.05 39.44 73.44 39.79 72.65 40.14 69.49 40.49 67.52 40.83 67.91 41.18 71.07 41.53 73.05 41.88 72.65 42.23 71.07 42.58 71.07 42.93 70.28 43.28 71.86 43.63 71.86 43.98 69.89 44.33 68.31 44.67 72.65 45.02 69.89 45.37 64.75 45.72 69.49 46.07 70.68 46.42 66.33 46.77 64.75 47.12 58.04 47.47 58.83 47.82 59.22 48.17 56.06 48.52 54.88 48.86 54.88 49.21 49.74 49.56 52.11 49.91 52.11 50.26 51.72 50.61 54.48 50.96 55.27 51.31 57.25 51.66 55.27 52.01 54.09 52.36 52.51 52.7 51.72 53.05 54.88 53.4 52.9 53.75 54.88 54.1 54.48 54.45 49.74 54.8 51.72 55.15 52.9 55.5 52.9 55.85 54.88 56.2 56.85 56.55 61.99 56.89 64.75 57.24 62.38 57.59 62.78 57.94 61.99 58.29 69.49 58.64 71.07 58.99 78.18 59.34 76.21 59.69 77.39 60.04 76.21 60.39 75.81 60.73 74.63 61.08 71.07 61.43 62.78 61.78 62.78 62.13 64.75 62.48 68.7 62.83 67.52 63.18 69.1 63.53 65.94 63.88 65.54 64.23 56.06 64.58 51.32 64.92 52.11 65.27 50.53 65.62 50.14 65.97 48.56 66.32 46.19 66.67 43.82 67.02 47.77 67.37 45 67.72 43.03 68.07 39.47 68.42 39.08 68.77 44.21 69.11 45 69.46 46.58 69.81 50.53 70.16 49.74 70.51 48.95 70.86 46.58 71.21 50.53 71.56 52.9 71.91 52.51 72.26 54.09 72.61 50.53 72.95 51.32 73.3 57.64 73.65 52.51 74 48.56 74.35 43.42 74.7 43.03 75.05 44.21 75.4 41.45 75.75 43.42 76.1 45 76.45 43.03 76.8 49.74 77.14 48.56 77.49 46.98 77.84 48.95 78.19 50.14 78.54 47.77 78.89 49.74 79.24 53.69 79.59 50.93 79.94 49.74 80.29 50.53 80.64 48.95 80.98 46.98 81.33 42.63 81.68 37.89 82.03 42.63 82.38 42.24 82.73 42.63 83.08 47.37 83.43 48.16 83.78 47.77 84.13 45 84.48 42.63 84.83 40.26 85.17 41.45 85.52 40.26 85.87 38.29 86.22 37.5 86.57 31.97 86.92 31.57 87.27 32.36 87.62 35.13 87.97 37.1 88.32 33.15 88.67 31.97 89.02 33.15 89.36 31.57 89.71 29.99 90.06 25.65 90.41 24.46 90.76 22.88 91.11 20.51 91.46 18.93 91.81 19.33 92.16 18.54 92.51 18.54 92.86 16.56 93.2 15.77 93.55 15.77 93.9 16.17 94.25 16.17 94.6 15.77 94.95 15.38 95.3 13.8 95.65 13.8 96 13.8 96.35 14.19 96.7 13.4 97.05 13.4 97.39 14.19 97.74 14.19 98.09 13.8 98.44 13.4 98.79 13.01 99.14 13.4 99.49 12.61"/>
      </g>
      <g stroke-width="0.3" fill="#000000" fill-opacity="0.000" class="geometry" stroke-dasharray="none" stroke="#F46D43" id="img-cb433b98-17">
        <path fill="none" d="M21.98,71.86 L 22.33 72.26 22.68 72.65 23.03 71.86 23.38 63.96 23.73 62.38 24.08 59.22 24.42 57.64 24.77 60.41 25.12 56.46 25.47 50.93 25.82 51.72 26.17 47.77 26.52 48.95 26.87 48.56 27.22 50.53 27.57 47.37 27.92 49.35 28.27 47.77 28.61 48.95 28.96 45 29.31 45 29.66 38.29 30.01 38.29 30.36 43.03 30.71 41.84 31.06 41.84 31.41 43.82 31.76 46.19 32.11 45.79 32.45 45 32.8 46.19 33.15 49.35 33.5 48.56 33.85 47.37 34.2 44.21 34.55 43.03 34.9 42.24 35.25 46.98 35.6 51.32 35.95 56.85 36.3 58.04 36.64 57.64 36.99 60.01 37.34 58.43 37.69 56.46 38.04 58.83 38.39 55.67 38.74 55.27 39.09 55.67 39.44 51.32 39.79 55.27 40.14 57.64 40.49 57.64 40.83 63.96 41.18 65.15 41.53 66.73 41.88 71.07 42.23 69.49 42.58 69.89 42.93 63.57 43.28 61.59 43.63 59.62 43.98 56.85 44.33 54.48 44.67 51.32 45.02 50.14 45.37 49.35 45.72 47.77 46.07 52.9 46.42 50.53 46.77 52.9 47.12 52.11 47.47 58.04 47.82 50.93 48.17 50.14 48.52 47.37 48.86 48.56 49.21 49.35 49.56 51.72 49.91 52.51 50.26 50.53 50.61 56.06 50.96 56.46 51.31 59.62 51.66 54.09 52.01 55.67 52.36 52.11 52.7 53.69 53.05 50.53 53.4 53.69 53.75 53.3 54.1 51.32 54.45 52.51 54.8 52.51 55.15 43.03 55.5 41.05 55.85 42.24 56.2 43.82 56.55 44.61 56.89 51.72 57.24 46.98 57.59 46.58 57.94 39.08 58.29 41.45 58.64 39.47 58.99 45.4 59.34 43.03 59.69 43.42 60.04 43.82 60.39 43.82 60.73 45.79 61.08 43.82 61.43 46.19 61.78 46.98 62.13 46.98 62.48 51.72 62.83 54.48 63.18 46.19 63.53 41.84 63.88 41.05 64.23 42.24 64.58 39.47 64.92 41.84 65.27 43.42 65.62 39.47 65.97 40.66 66.32 40.26 66.67 45.79 67.02 45.4 67.37 49.35 67.72 48.95 68.07 52.9 68.42 58.04 68.77 63.17 69.11 61.2 69.46 56.06 69.81 60.01 70.16 60.41 70.51 56.85 70.86 55.27 71.21 57.25 71.56 46.98 71.91 48.56 72.26 47.77 72.61 44.61 72.95 43.82 73.3 43.03 73.65 38.29 74 35.92 74.35 34.34 74.7 32.36 75.05 33.94 75.4 33.94 75.75 39.08 76.1 35.92 76.45 33.15 76.8 34.34 77.14 37.89 77.49 40.66 77.84 38.68 78.19 39.08 78.54 37.5 78.89 39.47 79.24 37.5 79.59 39.47 79.94 39.47 80.29 37.1 80.64 33.15 80.98 33.15 81.33 31.97 81.68 36.71 82.03 33.55 82.38 34.34 82.73 30.78 83.08 31.97 83.43 34.73 83.78 41.45 84.13 39.47 84.48 37.1 84.83 35.13 85.17 37.5 85.52 35.92 85.87 35.92 86.22 37.1 86.57 33.94 86.92 35.92 87.27 30.78 87.62 32.36 87.97 32.36 88.32 31.57 88.67 31.57 89.02 27.62 89.36 22.88 89.71 22.09 90.06 22.88 90.41 20.91 90.76 22.09 91.11 22.88 91.46 23.67 91.81 22.09 92.16 24.46 92.51 21.7 92.86 22.09 93.2 20.91 93.55 22.09 93.9 21.7 94.25 19.72 94.6 20.91 94.95 20.12 95.3 18.14 95.65 20.12 96 20.12 96.35 18.93 96.7 17.35 97.05 15.38 97.39 16.56 97.74 14.59 98.09 14.59 98.44 16.17 98.79 16.56 99.14 16.56 99.49 17.35 99.84 18.93 100.19 20.12 100.54 18.54 100.89 16.96 101.23 14.59 101.58 15.77 101.93 16.56 102.28 17.35 102.63 17.35 102.98 19.33 103.33 18.93 103.68 19.33 104.03 16.56 104.38 15.38 104.73 13.8 105.08 14.19 105.42 13.4 105.77 13.01 106.12 13.4 106.47 13.01 106.82 13.01 107.17 13.01 107.52 13.4 107.87 13.4 108.22 14.19 108.57 14.98 108.92 15.77 109.26 15.77 109.61 17.35 109.96 17.75 110.31 16.56 110.66 17.35 111.01 18.93 111.36 18.93 111.71 20.12 112.06 19.72 112.41 21.3 112.76 20.91 113.11 19.72 113.45 16.96 113.8 15.77 114.15 17.35 114.5 20.91 114.85 21.7 115.2 20.12 115.55 23.67 115.9 20.51 116.25 20.91 116.6 22.49 116.95 21.7 117.3 24.86 117.64 22.09 117.99 22.88 118.34 23.67 118.69 22.49 119.04 20.12 119.39 18.54 119.74 15.77 120.09 16.56 120.44 16.96 120.79 18.14 121.14 19.33 121.48 20.91 121.83 21.3 122.18 18.93 122.53 18.14 122.88 19.33 123.23 21.3 123.58 24.07 123.93 20.91 124.28 19.72 124.63 16.96 124.98 14.98 125.33 13.4 125.67 12.61"/>
      </g>
      <g stroke-width="0.3" fill="#000000" fill-opacity="0.000" class="geometry" stroke-dasharray="none" stroke="#D53E4F" id="img-cb433b98-18">
        <path fill="none" d="M21.98,71.86 L 22.33 77 22.68 75.42 23.03 80.55 23.38 81.34 23.73 87.66 24.08 93.59 24.42 90.43 24.77 89.24 25.12 98.33 25.47 98.72 25.82 96.75 26.17 92.8 26.52 99.12 26.87 101.88 27.22 102.28 27.57 104.25 27.92 103.86 28.27 106.23 28.61 101.88 28.96 98.72 29.31 95.96 29.66 91.22 30.01 92.01 30.36 93.59 30.71 93.98 31.06 97.54 31.41 104.25 31.76 105.83 32.11 105.83 32.45 101.88 32.8 101.88 33.15 99.51 33.5 98.72 33.85 92.4 34.2 100.7 34.55 101.09 34.9 99.12 35.25 100.7 35.6 101.49 35.95 101.49 36.3 100.7 36.64 99.91 36.99 102.67 37.34 101.49 37.69 101.49 38.04 98.72 38.39 100.7 38.74 105.83 39.09 107.02 39.44 104.65 39.79 107.81 40.14 108.99 40.49 104.65 40.83 104.25 41.18 103.07 41.53 101.88 41.88 104.65 42.23 106.62 42.58 107.02 42.93 104.65 43.28 104.65 43.63 103.46 43.98 101.88 44.33 107.81 44.67 102.28 45.02 101.49 45.37 100.3 45.72 103.46 46.07 105.44 46.42 107.81 46.77 105.83 47.12 103.07 47.47 102.28 47.82 101.49 48.17 102.67 48.52 101.88 48.86 101.09 49.21 98.33 49.56 97.14 49.91 94.77 50.26 89.64 50.61 90.82 50.96 94.77 51.31 95.96 51.66 95.56 52.01 93.98 52.36 96.75 52.7 96.35 53.05 97.54 53.4 99.12 53.75 101.88 54.1 106.23 54.45 107.41 54.8 108.99 55.15 109.78 55.5 112.94 55.85 117.29 56.2 116.5 56.55 117.68 56.89 119.26 57.24 122.03 57.59 123.21 57.94 125.58 58.29 123.61 58.64 125.58 58.99 127.16 59.34 125.98 59.69 127.56 60.04 128.74 60.39 126.37 60.73 126.37 61.08 125.98 61.43 125.98 61.78 127.56 62.13 129.14 62.48 130.72 62.83 130.72 63.18 129.93 63.53 131.11"/>
      </g>
      <g stroke-width="0.3" fill="#000000" fill-opacity="0.000" class="geometry" stroke-dasharray="none" stroke="#9E0142" id="img-cb433b98-19">
        <path fill="none" d="M21.98,71.86 L 22.33 72.65 22.68 75.42 23.03 70.68 23.38 71.86 23.73 67.12 24.08 71.07 24.42 68.7 24.77 62.78 25.12 58.83 25.47 50.53 25.82 46.98 26.17 40.66 26.52 40.66 26.87 39.87 27.22 36.71 27.57 37.89 27.92 35.52 28.27 35.52 28.61 31.18 28.96 29.6 29.31 26.44 29.66 29.6 30.01 30.78 30.36 32.76 30.71 28.81 31.06 30.78 31.41 31.57 31.76 28.81 32.11 28.02 32.45 29.99 32.8 31.97 33.15 33.15 33.5 28.41 33.85 28.81 34.2 28.41 34.55 31.18 34.9 27.23 35.25 31.57 35.6 32.36 35.95 31.57 36.3 28.41 36.64 29.6 36.99 29.99 37.34 29.6 37.69 29.6 38.04 32.76 38.39 33.55 38.74 33.55 39.09 33.94 39.44 35.13 39.79 33.15 40.14 32.36 40.49 30.78 40.83 31.18 41.18 30.39 41.53 29.2 41.88 30.39 42.23 32.76 42.58 34.34 42.93 31.18 43.28 33.15 43.63 35.92 43.98 34.34 44.33 34.34 44.67 33.55 45.02 31.18 45.37 29.2 45.72 28.81 46.07 26.83 46.42 24.07 46.77 23.67 47.12 21.7 47.47 22.88 47.82 22.09 48.17 20.12 48.52 19.33 48.86 16.56 49.21 14.59 49.56 14.59 49.91 14.98 50.26 15.77 50.61 16.17 50.96 15.77 51.31 15.77 51.66 16.96 52.01 14.59 52.36 15.77 52.7 16.56 53.05 18.93 53.4 18.14 53.75 16.56 54.1 14.59 54.45 14.19 54.8 14.59 55.15 14.98 55.5 14.19 55.85 14.19 56.2 13.8 56.55 14.98 56.89 14.98 57.24 13.8 57.59 14.98 57.94 13.8 58.29 13.4 58.64 14.59 58.99 15.38 59.34 13.8 59.69 15.38 60.04 15.77 60.39 15.77 60.73 16.56 61.08 15.77 61.43 16.17 61.78 15.38 62.13 14.98 62.48 14.59 62.83 14.19 63.18 14.59 63.53 15.38 63.88 16.17 64.23 14.59 64.58 15.38 64.92 13.8 65.27 13.8 65.62 13.4 65.97 13.4 66.32 13.4 66.67 12.61"/>
      </g>
    </g>
  </g>
</g>
  <g class="guide ylabels" font-size="2.82" font-family="'PT Sans Caption','Helvetica Neue','Helvetica',sans-serif" fill="#000000" id="img-cb433b98-20">
    <text x="18.63" y="131.11" text-anchor="end" dy="0.35em">0</text>
    <text x="18.63" y="91.61" text-anchor="end" dy="0.35em">100</text>
    <text x="18.63" y="52.11" text-anchor="end" dy="0.35em">200</text>
    <text x="18.63" y="12.61" text-anchor="end" dy="0.35em">300</text>
  </g>
  <g font-size="3.88" font-family="'PT Sans','Helvetica Neue','Helvetica',sans-serif" fill="#000000" stroke="#000000" stroke-opacity="0.000" id="img-cb433b98-21">
    <text x="8.81" y="69.86" text-anchor="middle" dy="0.35em" transform="rotate(-90, 8.81, 71.86)">population number</text>
  </g>
  <g font-size="3.88" font-family="'PT Sans','Helvetica Neue','Helvetica',sans-serif" fill="#000000" stroke="#000000" stroke-opacity="0.000" id="img-cb433b98-22">
    <text x="108.92" y="5" text-anchor="middle" dy="0.6em">genetic drift</text>
  </g>
</g>
<defs>
  <clipPath id="img-cb433b98-4">
  <path d="M19.63,10.61 L 198.2 10.61 198.2 133.11 19.63 133.11" />
</clipPath>
</defs>
</svg>
