<?xml version="1.0" encoding="UTF-8"?>
<svg xmlns="http://www.w3.org/2000/svg"
     xmlns:xlink="http://www.w3.org/1999/xlink"
     xmlns:gadfly="http://www.gadflyjl.org/ns"
     version="1.2"
     width="203.2mm" height="152.4mm" viewBox="0 0 203.2 152.4"
     stroke="none"
     fill="#000000"
     stroke-width="0.3"
     font-size="3.88"
>
<g class="plotroot xscalable yscalable" id="img-c7dc8d70-1">
  <g font-size="3.88" font-family="'PT Sans','Helvetica Neue','Helvetica',sans-serif" fill="#000000" stroke="#000000" stroke-opacity="0.000" id="img-c7dc8d70-2">
    <text x="108.92" y="140.79" text-anchor="middle" dy="0.6em">generation number</text>
  </g>
  <g class="guide xlabels" font-size="2.82" font-family="'PT Sans Caption','Helvetica Neue','Helvetica',sans-serif" fill="#000000" id="img-c7dc8d70-3">
    <text x="21.63" y="134.11" text-anchor="middle" dy="0.6em">0</text>
    <text x="56.55" y="134.11" text-anchor="middle" dy="0.6em">100</text>
    <text x="91.46" y="134.11" text-anchor="middle" dy="0.6em">200</text>
    <text x="126.37" y="134.11" text-anchor="middle" dy="0.6em">300</text>
    <text x="161.29" y="134.11" text-anchor="middle" dy="0.6em">400</text>
    <text x="196.2" y="134.11" text-anchor="middle" dy="0.6em">500</text>
  </g>
<g clip-path="url(#img-c7dc8d70-4)">
  <g id="img-c7dc8d70-5">
    <g pointer-events="visible" opacity="1" fill="#FFFFFF" stroke="#000000" stroke-opacity="0.000" class="guide background" id="img-c7dc8d70-6">
      <rect x="19.63" y="10.61" width="178.57" height="122.5"/>
    </g>
    <g class="guide ygridlines xfixed" stroke-dasharray="0.5,0.5" stroke-width="0.2" stroke="#808080" id="img-c7dc8d70-7">
      <path fill="none" d="M19.63,131.11 L 198.2 131.11"/>
      <path fill="none" d="M19.63,111.36 L 198.2 111.36"/>
      <path fill="none" d="M19.63,91.61 L 198.2 91.61"/>
      <path fill="none" d="M19.63,71.86 L 198.2 71.86"/>
      <path fill="none" d="M19.63,52.11 L 198.2 52.11"/>
      <path fill="none" d="M19.63,32.36 L 198.2 32.36"/>
      <path fill="none" d="M19.63,12.61 L 198.2 12.61"/>
    </g>
    <g class="guide xgridlines yfixed" stroke-dasharray="0.5,0.5" stroke-width="0.2" stroke="#808080" id="img-c7dc8d70-8">
      <path fill="none" d="M21.63,10.61 L 21.63 133.11"/>
      <path fill="none" d="M56.55,10.61 L 56.55 133.11"/>
      <path fill="none" d="M91.46,10.61 L 91.46 133.11"/>
      <path fill="none" d="M126.37,10.61 L 126.37 133.11"/>
      <path fill="none" d="M161.29,10.61 L 161.29 133.11"/>
      <path fill="none" d="M196.2,10.61 L 196.2 133.11"/>
    </g>
    <g class="plotpanel" id="img-c7dc8d70-9">
      <g stroke-width="0.3" fill="#000000" fill-opacity="0.000" class="geometry" stroke-dasharray="none" stroke="#3288BD" id="img-c7dc8d70-10">
        <path fill="none" d="M21.98,71.86 L 22.33 69.69 22.68 68.7 23.03 70.28 23.38 72.06 23.73 71.27 24.08 72.65 24.42 73.44 24.77 73.25 25.12 76.8 25.47 77.2 25.82 76.8 26.17 75.62 26.52 77.39 26.87 74.43 27.22 76.6 27.57 77.2 27.92 78.97 28.27 82.13 28.61 83.12 28.96 83.52 29.31 83.12 29.66 86.48 30.01 87.86 30.36 87.47 30.71 87.27 31.06 88.65 31.41 84.5 31.76 88.45 32.11 86.08 32.45 86.48 32.8 84.7 33.15 81.54 33.5 81.94 33.85 82.73 34.2 78.97 34.55 79.17 34.9 77.39 35.25 77.39 35.6 75.22 35.95 72.65 36.3 74.23 36.64 73.84 36.99 73.05 37.34 72.65 37.69 73.64 38.04 72.06 38.39 70.88 38.74 69.49 39.09 67.12 39.44 64.75 39.79 68.31 40.14 69.49 40.49 74.23 40.83 71.67 41.18 74.63 41.53 75.81 41.88 78.38 42.23 79.17 42.58 79.76 42.93 82.73 43.28 85.1 43.63 86.68 43.98 85.29 44.33 83.71 44.67 80.55 45.02 78.18 45.37 76.41 45.72 76.8 46.07 77.2 46.42 83.12 46.77 86.48 47.12 87.07 47.47 90.03 47.82 89.44 48.17 84.31 48.52 86.08 48.86 87.66 49.21 89.84 49.56 85.1 49.91 87.47 50.26 89.44 50.61 87.27 50.96 87.66 51.31 85.89 51.66 87.86 52.01 88.26 52.36 87.86 52.7 86.87 53.05 84.5 53.4 80.95 53.75 75.02 54.1 78.18 54.45 77.39 54.8 77.99 55.15 79.37 55.5 80.36 55.85 80.95 56.2 78.18 56.55 75.22 56.89 77.99 57.24 76.6 57.59 74.83 57.94 74.83 58.29 77.79 58.64 79.17 58.99 79.57 59.34 87.07 59.69 91.02 60.04 91.81 60.39 90.03 60.73 90.82 61.08 91.81 61.43 92.8 61.78 89.64 62.13 90.03 62.48 85.49 62.83 88.06 63.18 90.63 63.53 92.6 63.88 90.82 64.23 84.11 64.58 80.36 64.92 77.2 65.27 78.18 65.62 79.37 65.97 78.38 66.32 76.21 66.67 73.44 67.02 73.25 67.37 73.84 67.72 68.51 68.07 67.91 68.42 63.57 68.77 63.77 69.11 62.78 69.46 61.4 69.81 63.17 70.16 66.73 70.51 65.94 70.86 65.35 71.21 67.72 71.56 64.95 71.91 67.91 72.26 73.25 72.61 76.41 72.95 79.17 73.3 77.99 73.65 74.43 74 73.64 74.35 77.2 74.7 73.44 75.05 74.63 75.4 73.84 75.75 75.42 76.1 70.88 76.45 72.46 76.8 72.85 77.14 67.32 77.49 68.9 77.84 69.69 78.19 69.49 78.54 70.88 78.89 63.17 79.24 61.99 79.59 63.57 79.94 65.54 80.29 68.31 80.64 65.15 80.98 64.56 81.33 65.35 81.68 67.52 82.03 66.14 82.38 64.75 82.73 65.35 83.08 69.1 83.43 69.1 83.78 69.89 84.13 70.68 84.48 72.06 84.83 67.12 85.17 66.93 85.52 69.69 85.87 65.15 86.22 66.14 86.57 67.52 86.92 63.96 87.27 62.19 87.62 61 87.97 57.45 88.32 57.45 88.67 60.21 89.02 59.82 89.36 58.04 89.71 56.46 90.06 57.64 90.41 56.06 90.76 60.01 91.11 59.42 91.46 58.24 91.81 60.21 92.16 56.26 92.51 56.85 92.86 56.26 93.2 56.85 93.55 59.42 93.9 58.43 94.25 59.42 94.6 63.37 94.95 59.82 95.3 61.99 95.65 64.16 96 61 96.35 61.79 96.7 62.19 97.05 62.78 97.39 60.41 97.74 53.1 98.09 57.84 98.44 65.74 98.79 68.51 99.14 68.51 99.49 69.89 99.84 66.93 100.19 66.93 100.54 67.52 100.89 67.91 101.23 70.09 101.58 69.3 101.93 71.27 102.28 72.46 102.63 74.04 102.98 72.06 103.33 73.05 103.68 72.06 104.03 75.42 104.38 76.6 104.73 76.01 105.08 74.23 105.42 70.48 105.77 72.06 106.12 70.28 106.47 72.65 106.82 72.65 107.17 73.64 107.52 70.48 107.87 67.52 108.22 69.1 108.57 69.1 108.92 65.35 109.26 64.95 109.61 66.33 109.96 65.35 110.31 64.16 110.66 59.82 111.01 65.54 111.36 60.61 111.71 59.22 112.06 61.59 112.41 65.54 112.76 61.99 113.11 65.94 113.45 61 113.8 60.61 114.15 60.41 114.5 61.99 114.85 66.14 115.2 63.57 115.55 62.78 115.9 60.61 116.25 59.82 116.6 57.84 116.95 54.29 117.3 55.47 117.64 56.06 117.99 56.46 118.34 55.27 118.69 54.09 119.04 54.88 119.39 52.31 119.74 54.29 120.09 53.1 120.44 55.27 120.79 56.46 121.14 58.24 121.48 58.24 121.83 60.61 122.18 62.38 122.53 61.2 122.88 61.99 123.23 60.41 123.58 61.99 123.93 61.99 124.28 58.63 124.63 55.67 124.98 54.88 125.33 53.69 125.67 56.26 126.02 55.87 126.37 58.04 126.72 59.03 127.07 55.47 127.42 52.31 127.77 53.3 128.12 57.05 128.47 62.78 128.82 64.56 129.17 66.33 129.51 65.15 129.86 65.35 130.21 64.75 130.56 63.57 130.91 62.38 131.26 63.17 131.61 65.35 131.96 67.12 132.31 67.91 132.66 69.49 133.01 69.69 133.36 69.49 133.7 66.53 134.05 64.16 134.4 61.59 134.75 63.96 135.1 64.16 135.45 67.12 135.8 63.77 136.15 65.15 136.5 62.78 136.85 61 137.2 62.98 137.55 61.79 137.89 60.61 138.24 59.22 138.59 58.63 138.94 59.22 139.29 57.84 139.64 57.25 139.99 56.85 140.34 55.67 140.69 55.27 141.04 54.68 141.39 57.45 141.73 56.66 142.08 60.01 142.43 60.41 142.78 65.54 143.13 68.11 143.48 65.94 143.83 64.56 144.18 63.37 144.53 61 144.88 60.01 145.23 58.83 145.58 62.78 145.92 64.16 146.27 62.98 146.62 62.58 146.97 64.36 147.32 64.56 147.67 63.57 148.02 61.59 148.37 61 148.72 62.19 149.07 65.94 149.42 63.37 149.76 62.78 150.11 58.83 150.46 59.62 150.81 59.22 151.16 61 151.51 60.21 151.86 63.96 152.21 63.96 152.56 66.14 152.91 65.54 153.26 63.37 153.61 61.79 153.95 61.4 154.3 61.79 154.65 60.61 155 62.58 155.35 64.36 155.7 65.15 156.05 65.54 156.4 64.95 156.75 62.58 157.1 61.59 157.45 62.98 157.79 63.96 158.14 64.56 158.49 60.01 158.84 59.22 159.19 61.2 159.54 59.03 159.89 58.83 160.24 60.41 160.59 55.27 160.94 56.26 161.29 56.46 161.64 59.62 161.98 61.79 162.33 57.64 162.68 56.06 163.03 58.24 163.38 58.24 163.73 55.87 164.08 60.01 164.43 61.2 164.78 64.16 165.13 68.9 165.48 65.15 165.83 69.69 166.17 69.89 166.52 69.1 166.87 68.31 167.22 66.33 167.57 66.93 167.92 71.67 168.27 72.06 168.62 70.68 168.97 70.48 169.32 71.07 169.67 69.69 170.01 67.32 170.36 63.57 170.71 60.61 171.06 61.99 171.41 58.63 171.76 58.43 172.11 56.85 172.46 55.08 172.81 56.85 173.16 54.88 173.51 54.48 173.86 53.89 174.2 55.67 174.55 60.61 174.9 61.59 175.25 60.8 175.6 63.37 175.95 64.16 176.3 61 176.65 60.61 177 61.79 177.35 61.59 177.7 61.2 178.04 57.45 178.39 58.63 178.74 54.48 179.09 53.89 179.44 50.93 179.79 47.77 180.14 49.94 180.49 47.97 180.84 50.14 181.19 50.34 181.54 50.34 181.89 50.73 182.23 50.14 182.58 49.74 182.93 51.32 183.28 51.32 183.63 48.56 183.98 51.52 184.33 55.67 184.68 56.06 185.03 52.9 185.38 53.5 185.73 52.71 186.08 51.13 186.42 53.89 186.77 56.06 187.12 55.08 187.47 55.08 187.82 57.25 188.17 56.06 188.52 57.64 188.87 55.67 189.22 58.83 189.57 60.21 189.92 56.66 190.26 51.92 190.61 55.27 190.96 56.85 191.31 53.5 191.66 53.69 192.01 51.92 192.36 53.5 192.71 54.29 193.06 56.26 193.41 59.62 193.76 58.83 194.11 55.87 194.45 57.45 194.8 56.46 195.15 57.25 195.5 61 195.85 59.22 196.2 60.41"/>
      </g>
      <g stroke-width="0.3" fill="#000000" fill-opacity="0.000" class="geometry" stroke-dasharray="none" stroke="#66C2A5" id="img-c7dc8d70-11">
        <path fill="none" d="M21.98,71.86 L 22.33 71.27 22.68 68.31 23.03 66.33 23.38 66.14 23.73 62.58 24.08 60.41 24.42 59.82 24.77 58.83 25.12 56.46 25.47 58.04 25.82 56.85 26.17 53.3 26.52 55.87 26.87 58.43 27.22 60.61 27.57 56.85 27.92 56.06 28.27 55.47 28.61 54.68 28.96 53.3 29.31 56.06 29.66 54.09 30.01 53.69 30.36 53.5 30.71 49.55 31.06 50.14 31.41 49.15 31.76 47.57 32.11 48.56 32.45 44.81 32.8 46.58 33.15 47.77 33.5 45 33.85 42.04 34.2 42.44 34.55 42.24 34.9 46.19 35.25 48.56 35.6 43.82 35.95 43.23 36.3 46.39 36.64 48.16 36.99 48.16 37.34 49.55 37.69 46.98 38.04 48.56 38.39 52.71 38.74 49.15 39.09 44.41 39.44 45.79 39.79 42.44 40.14 43.03 40.49 41.84 40.83 40.46 41.18 40.85 41.53 37.89 41.88 35.13 42.23 34.73 42.58 34.14 42.93 33.94 43.28 35.13 43.63 34.34 43.98 33.15 44.33 33.55 44.67 32.56 45.02 33.74 45.37 34.34 45.72 32.36 46.07 33.74 46.42 38.29 46.77 41.84 47.12 43.62 47.47 40.26 47.82 43.42 48.17 42.63 48.52 41.25 48.86 44.81 49.21 46.78 49.56 50.93 49.91 54.48 50.26 56.26 50.61 60.21 50.96 58.24 51.31 56.66 51.66 55.47 52.01 54.09 52.36 51.52 52.7 52.51 53.05 54.09 53.4 52.11 53.75 50.93 54.1 49.55 54.45 47.77 54.8 48.36 55.15 43.62 55.5 41.84 55.85 44.21 56.2 47.18 56.55 47.97 56.89 46.98 57.24 42.83 57.59 44.02 57.94 43.42 58.29 42.83 58.64 45.4 58.99 42.83 59.34 43.03 59.69 40.06 60.04 40.66 60.39 42.04 60.73 43.23 61.08 44.41 61.43 44.41 61.78 47.57 62.13 50.14 62.48 49.74 62.83 53.5 63.18 57.05 63.53 59.03 63.88 58.83 64.23 62.19 64.58 62.58 64.92 64.56 65.27 62.19 65.62 60.01 65.97 59.22 66.32 60.21 66.67 62.19 67.02 65.74 67.37 65.74 67.72 67.12 68.07 61.99 68.42 64.36 68.77 65.15 69.11 62.98 69.46 61.99 69.81 63.17 70.16 58.04 70.51 54.68 70.86 57.25 71.21 52.51 71.56 54.09 71.91 54.29 72.26 55.27 72.61 54.29 72.95 54.48 73.3 54.88 73.65 55.67 74 56.85 74.35 58.63 74.7 62.98 75.05 60.61 75.4 67.12 75.75 63.77 76.1 65.74 76.45 68.7 76.8 70.68 77.14 70.88 77.49 69.49 77.84 70.48 78.19 72.65 78.54 78.18 78.89 79.37 79.24 79.37 79.59 81.15 79.94 78.97 80.29 79.96 80.64 81.74 80.98 81.74 81.33 80.36 81.68 76.01 82.03 77.79 82.38 78.58 82.73 77.79 83.08 80.95 83.43 84.9 83.78 82.33 84.13 81.34 84.48 81.74 84.83 80.75 85.17 84.31 85.52 83.91 85.87 82.92 86.22 83.12 86.57 82.73 86.92 86.28 87.27 84.5 87.62 83.71 87.97 86.28 88.32 82.92 88.67 84.5 89.02 84.5 89.36 85.49 89.71 83.91 90.06 87.47 90.41 90.63 90.76 89.64 91.11 88.65 91.46 89.44 91.81 90.82 92.16 91.42 92.51 91.22 92.86 91.02 93.2 92.6 93.55 90.23 93.9 93 94.25 91.42 94.6 89.64 94.95 87.86 95.3 91.81 95.65 93.19 96 92.8 96.35 94.77 96.7 93.39 97.05 92.21 97.39 91.42 97.74 90.43 98.09 81.54 98.44 83.71 98.79 78.18 99.14 78.18 99.49 76.01 99.84 75.42 100.19 76.41 100.54 77.59 100.89 75.81 101.23 78.18 101.58 77.2 101.93 81.15 102.28 79.57 102.63 77 102.98 76.6 103.33 79.76 103.68 79.96 104.03 79.17 104.38 78.18 104.73 78.18 105.08 74.04 105.42 72.06 105.77 70.09 106.12 70.48 106.47 73.05 106.82 73.05 107.17 73.05 107.52 75.62 107.87 73.25 108.22 71.67 108.57 76.21 108.92 73.05 109.26 75.42 109.61 75.81 109.96 75.02 110.31 71.67 110.66 70.48 111.01 75.42 111.36 75.62 111.71 77.39 112.06 75.02 112.41 73.84 112.76 71.07 113.11 70.09 113.45 74.04 113.8 76.41 114.15 75.62 114.5 76.21 114.85 74.23 115.2 72.65 115.55 77.59 115.9 75.62 116.25 79.96 116.6 80.55 116.95 81.15 117.3 83.32 117.64 81.54 117.99 79.37 118.34 79.96 118.69 79.17 119.04 80.16 119.39 78.97 119.74 79.37 120.09 78.18 120.44 77.39 120.79 80.16 121.14 81.74 121.48 79.57 121.83 85.69 122.18 87.47 122.53 86.08 122.88 88.65 123.23 87.07 123.58 87.66 123.93 88.26 124.28 83.71 124.63 83.12 124.98 82.33 125.33 83.32 125.67 82.53 126.02 83.32 126.37 82.92 126.72 82.92 127.07 80.95 127.42 77.99 127.77 78.58 128.12 79.57 128.47 78.38 128.82 77.59 129.17 78.18 129.51 76.01 129.86 76.6 130.21 79.17 130.56 77 130.91 78.78 131.26 78.78 131.61 80.16 131.96 80.95 132.31 83.91 132.66 81.15 133.01 80.36 133.36 79.57 133.7 80.95 134.05 82.33 134.4 79.96 134.75 77 135.1 76.41 135.45 78.38 135.8 79.57 136.15 79.57 136.5 80.95 136.85 82.92 137.2 82.33 137.55 81.34 137.89 78.58 138.24 78.58 138.59 78.58 138.94 82.92 139.29 84.11 139.64 82.33 139.99 88.06 140.34 86.28 140.69 87.27 141.04 85.1 141.39 84.5 141.73 80.36 142.08 84.11 142.43 80.75 142.78 79.57 143.13 82.53 143.48 80.75 143.83 78.18 144.18 77.79 144.53 79.17 144.88 77.39 145.23 75.81 145.58 75.62 145.92 82.13 146.27 79.37 146.62 77.99 146.97 80.55 147.32 85.1 147.67 84.31 148.02 83.71 148.37 83.32 148.72 81.34 149.07 78.58 149.42 80.36 149.76 78.38 150.11 81.54 150.46 87.27 150.81 90.03 151.16 88.06 151.51 88.85 151.86 88.45 152.21 90.23 152.56 86.87 152.91 85.89 153.26 82.92 153.61 84.7 153.95 86.87 154.3 85.69 154.65 88.26 155 87.86 155.35 88.06 155.7 87.07 156.05 88.26 156.4 89.05 156.75 88.65 157.1 90.82 157.45 90.03 157.79 89.05 158.14 85.89 158.49 83.12 158.84 80.95 159.19 84.7 159.54 84.31 159.89 85.29 160.24 84.31 160.59 85.69 160.94 84.31 161.29 89.05 161.64 89.64 161.98 92.21 162.33 89.84 162.68 88.26 163.03 92.8 163.38 90.03 163.73 91.02 164.08 91.22 164.43 90.03 164.78 92.21 165.13 92.01 165.48 94.58 165.83 94.77 166.17 89.84 166.52 92.01 166.87 91.61 167.22 93.19 167.57 99.51 167.92 103.07 168.27 103.66 168.62 98.13 168.97 102.08 169.32 104.45 169.67 103.27 170.01 103.07 170.36 104.65 170.71 106.43 171.06 107.81 171.41 109.39 171.76 108.4 172.11 111.17 172.46 113.14 172.81 113.73 173.16 114.72 173.51 113.14 173.86 111.76 174.2 112.35 174.55 112.55 174.9 111.17 175.25 113.73 175.6 116.1 175.95 115.12 176.3 115.51 176.65 114.52 177 113.54 177.35 113.14 177.7 113.73 178.04 114.13 178.39 115.51 178.74 113.93 179.09 113.93 179.44 112.94 179.79 114.92 180.14 113.14 180.49 111.76 180.84 111.56 181.19 112.35 181.54 111.76 181.89 109.39 182.23 110.38 182.58 112.15 182.93 111.36 183.28 111.36 183.63 112.35 183.98 111.17 184.33 110.77 184.68 110.57 185.03 107.02 185.38 104.65 185.73 105.44 186.08 102.67 186.42 102.87 186.77 105.83 187.12 107.41 187.47 105.83 187.82 106.43 188.17 105.24 188.52 102.87 188.87 103.46 189.22 103.86 189.57 103.66 189.92 104.65 190.26 109.98 190.61 110.38 190.96 112.35 191.31 112.94 191.66 111.96 192.01 108.8 192.36 108.4 192.71 106.23 193.06 105.04 193.41 103.07 193.76 102.67 194.11 98.92 194.45 98.13 194.8 97.93 195.15 99.32 195.5 99.51 195.85 96.35 196.2 96.35"/>
      </g>
      <g stroke-width="0.3" fill="#000000" fill-opacity="0.000" class="geometry" stroke-dasharray="none" stroke="#ABDDA4" id="img-c7dc8d70-12">
        <path fill="none" d="M21.98,71.86 L 22.33 71.67 22.68 70.88 23.03 71.47 23.38 70.48 23.73 72.06 24.08 70.48 24.42 73.64 24.77 75.62 25.12 74.23 25.47 73.84 25.82 76.21 26.17 77.2 26.52 80.16 26.87 78.38 27.22 76.8 27.57 75.81 27.92 78.97 28.27 78.78 28.61 79.57 28.96 76.01 29.31 77 29.66 76.21 30.01 76.41 30.36 77.39 30.71 77 31.06 76.21 31.41 77.2 31.76 78.58 32.11 80.36 32.45 81.15 32.8 82.73 33.15 81.74 33.5 82.53 33.85 84.5 34.2 84.5 34.55 83.32 34.9 85.69 35.25 83.32 35.6 85.29 35.95 86.48 36.3 86.87 36.64 84.7 36.99 87.66 37.34 87.07 37.69 86.08 38.04 86.48 38.39 84.31 38.74 88.06 39.09 92.21 39.44 94.18 39.79 96.75 40.14 98.92 40.49 99.71 40.83 101.88 41.18 103.86 41.53 109.98 41.88 109.59 42.23 109.78 42.58 107.61 42.93 109.19 43.28 109.39 43.63 104.85 43.98 104.06 44.33 102.87 44.67 105.44 45.02 104.06 45.37 104.65 45.72 101.69 46.07 102.67 46.42 103.46 46.77 100.3 47.12 99.71 47.47 100.9 47.82 103.66 48.17 104.65 48.52 103.27 48.86 105.44 49.21 106.62 49.56 106.23 49.91 111.17 50.26 112.55 50.61 111.76 50.96 112.55 51.31 112.75 51.66 113.54 52.01 113.73 52.36 113.93 52.7 114.33 53.05 114.33 53.4 115.31 53.75 112.75 54.1 111.76 54.45 112.15 54.8 112.94 55.15 115.71 55.5 118.47 55.85 119.26 56.2 118.28 56.55 120.45 56.89 121.04 57.24 120.65 57.59 119.86 57.94 118.87 58.29 118.28 58.64 121.04 58.99 119.66 59.34 119.66 59.69 116.5 60.04 116.5 60.39 116.7 60.73 117.09 61.08 118.47 61.43 118.67 61.78 117.49 62.13 119.26 62.48 120.45 62.83 120.45 63.18 122.42 63.53 122.82 63.88 121.83 64.23 123.81 64.58 125.19 64.92 125.78 65.27 126.77 65.62 126.37 65.97 127.36 66.32 127.36 66.67 128.15 67.02 127.95 67.37 128.74 67.72 128.94 68.07 129.73 68.42 130.32 68.77 129.53 69.11 130.52 69.46 130.92 69.81 130.92 70.16 130.92 70.51 130.92 70.86 130.92 71.21 130.92 71.56 130.13 71.91 129.73 72.26 129.73 72.61 129.53 72.95 129.34 73.3 129.53 73.65 129.53 74 129.73 74.35 130.13 74.7 129.93 75.05 130.72 75.4 131.11"/>
      </g>
      <g stroke-width="0.3" fill="#000000" fill-opacity="0.000" class="geometry" stroke-dasharray="none" stroke="#E6F598" id="img-c7dc8d70-13">
        <path fill="none" d="M21.98,71.86 L 22.33 72.26 22.68 71.27 23.03 68.9 23.38 70.28 23.73 61.59 24.08 61.59 24.42 64.56 24.77 63.57 25.12 59.03 25.47 56.85 25.82 54.09 26.17 53.69 26.52 52.51 26.87 54.29 27.22 52.71 27.57 47.77 27.92 45.4 28.27 47.57 28.61 47.57 28.96 44.02 29.31 47.77 29.66 44.61 30.01 44.02 30.36 43.23 30.71 45.2 31.06 49.55 31.41 50.53 31.76 46.58 32.11 44.81 32.45 45.2 32.8 46.58 33.15 48.95 33.5 44.61 33.85 46.39 34.2 43.82 34.55 45.99 34.9 45.2 35.25 45.2 35.6 46.39 35.95 44.21 36.3 44.61 36.64 41.05 36.99 39.87 37.34 42.24 37.69 43.62 38.04 44.61 38.39 40.26 38.74 38.68 39.09 37.5 39.44 36.11 39.79 37.5 40.14 39.08 40.49 36.9 40.83 36.11 41.18 35.92 41.53 34.53 41.88 34.14 42.23 33.15 42.58 34.14 42.93 32.76 43.28 34.93 43.63 32.76 43.98 31.57 44.33 31.18 44.67 33.94 45.02 33.35 45.37 31.57 45.72 34.14 46.07 29.6 46.42 27.23 46.77 28.02 47.12 28.41 47.47 29 47.82 28.81 48.17 26.04 48.52 27.82 48.86 26.04 49.21 27.23 49.56 24.66 49.91 26.83 50.26 28.61 50.61 30.39 50.96 30.98 51.31 30.98 51.66 30.58 52.01 27.82 52.36 27.62 52.7 24.26 53.05 23.08 53.4 21.5 53.75 18.93 54.1 19.33 54.45 18.34 54.8 18.14 55.15 17.15 55.5 16.76 55.85 16.36 56.2 16.76 56.55 17.75 56.89 18.73 57.24 18.54 57.59 16.56 57.94 17.55 58.29 15.97 58.64 16.56 58.99 17.75 59.34 17.35 59.69 17.55 60.04 18.93 60.39 18.34 60.73 19.13 61.08 17.94 61.43 17.94 61.78 19.33 62.13 18.73 62.48 17.94 62.83 17.35 63.18 16.36 63.53 17.35 63.88 16.56 64.23 16.17 64.58 15.38 64.92 14.59 65.27 15.38 65.62 14.39 65.97 15.38 66.32 14.59 66.67 13.8 67.02 13.01 67.37 13.2 67.72 13.2 68.07 13.2 68.42 12.81 68.77 12.81 69.11 12.81 69.46 12.61"/>
      </g>
      <g stroke-width="0.3" fill="#000000" fill-opacity="0.000" class="geometry" stroke-dasharray="none" stroke="#FFFFBF" id="img-c7dc8d70-14">
        <path fill="none" d="M21.98,71.86 L 22.33 69.3 22.68 70.48 23.03 73.25 23.38 75.81 23.73 71.67 24.08 72.46 24.42 73.05 24.77 71.27 25.12 70.09 25.47 72.85 25.82 72.85 26.17 74.63 26.52 76.21 26.87 75.22 27.22 72.06 27.57 69.3 27.92 68.11 28.27 66.93 28.61 69.49 28.96 66.73 29.31 67.12 29.66 62.98 30.01 65.94 30.36 65.35 30.71 66.14 31.06 67.12 31.41 66.14 31.76 67.91 32.11 67.12 32.45 67.52 32.8 67.72 33.15 68.51 33.5 66.93 33.85 67.72 34.2 67.12 34.55 66.53 34.9 64.75 35.25 64.56 35.6 63.77 35.95 62.19 36.3 61.2 36.64 59.22 36.99 60.41 37.34 62.78 37.69 67.12 38.04 69.89 38.39 66.93 38.74 67.52 39.09 67.72 39.44 67.32 39.79 67.91 40.14 68.7 40.49 68.7 40.83 71.67 41.18 67.91 41.53 68.51 41.88 67.32 42.23 64.16 42.58 67.32 42.93 73.84 43.28 77.39 43.63 82.73 43.98 85.29 44.33 88.65 44.67 90.63 45.02 92.01 45.37 94.18 45.72 95.17 46.07 93.98 46.42 94.97 46.77 95.96 47.12 93.19 47.47 95.17 47.82 98.72 48.17 98.53 48.52 100.7 48.86 102.08 49.21 99.71 49.56 100.9 49.91 100.3 50.26 103.66 50.61 103.07 50.96 104.25 51.31 105.64 51.66 105.04 52.01 104.45 52.36 101.09 52.7 103.27 53.05 106.43 53.4 108.4 53.75 107.81 54.1 108.2 54.45 108.99 54.8 109.59 55.15 107.41 55.5 108.99 55.85 109.39 56.2 108.2 56.55 106.62 56.89 105.83 57.24 107.81 57.59 108.2 57.94 107.41 58.29 111.56 58.64 111.56 58.99 108.99 59.34 107.61 59.69 107.22 60.04 107.22 60.39 109.59 60.73 112.35 61.08 112.35 61.43 114.52 61.78 115.51 62.13 115.91 62.48 117.49 62.83 116.3 63.18 118.67 63.53 117.88 63.88 118.67 64.23 117.29 64.58 118.28 64.92 114.92 65.27 116.1 65.62 117.29 65.97 120.84 66.32 120.05 66.67 118.47 67.02 120.05 67.37 121.44 67.72 120.45 68.07 118.28 68.42 120.05 68.77 121.04 69.11 121.24 69.46 120.84 69.81 119.26 70.16 120.84 70.51 120.45 70.86 119.26 71.21 120.25 71.56 122.62 71.91 124.2 72.26 124.79 72.61 125.39 72.95 125.58 73.3 123.81 73.65 123.61 74 124.4 74.35 124.4 74.7 124.2 75.05 122.82 75.4 122.23 75.75 123.61 76.1 123.21 76.45 123.81 76.8 123.61 77.14 125.19 77.49 124.79 77.84 124 78.19 124.2 78.54 123.81 78.89 125.19 79.24 126.57 79.59 125.19 79.94 126.37 80.29 125.58 80.64 124.79 80.98 125.39 81.33 124.6 81.68 125.78 82.03 126.37 82.38 125.98 82.73 125.78 83.08 126.57 83.43 126.97 83.78 124.99 84.13 123.41 84.48 121.04 84.83 121.83 85.17 122.62 85.52 123.41 85.87 124.4 86.22 124.4 86.57 124 86.92 122.82 87.27 123.61 87.62 124.2 87.97 126.18 88.32 125.78 88.67 124.2 89.02 123.81 89.36 124 89.71 123.61 90.06 123.81 90.41 124.2 90.76 124.4 91.11 124 91.46 123.81 91.81 123.81 92.16 123.81 92.51 124.4 92.86 125.78 93.2 125.58 93.55 125.78 93.9 124.2 94.25 125.19 94.6 125.78 94.95 125.39 95.3 126.77 95.65 126.18 96 127.16 96.35 128.55 96.7 128.15 97.05 128.15 97.39 128.74 97.74 128.35 98.09 128.35 98.44 128.15 98.79 128.55 99.14 128.94 99.49 127.95 99.84 128.35 100.19 127.36 100.54 124.79 100.89 123.41 101.23 123.21 101.58 122.03 101.93 121.63 102.28 121.63 102.63 120.05 102.98 121.83 103.33 120.05 103.68 118.08 104.03 119.86 104.38 119.46 104.73 118.08 105.08 118.08 105.42 116.3 105.77 118.47 106.12 122.03 106.47 123.21 106.82 120.05 107.17 120.25 107.52 121.24 107.87 120.84 108.22 120.84 108.57 119.86 108.92 120.05 109.26 119.07 109.61 119.86 109.96 119.86 110.31 116.89 110.66 117.68 111.01 115.71 111.36 117.49 111.71 117.88 112.06 117.88 112.41 115.71 112.76 118.28 113.11 117.29 113.45 112.15 113.8 113.73 114.15 111.36 114.5 110.97 114.85 110.38 115.2 108.6 115.55 109.78 115.9 110.18 116.25 111.76 116.6 108.99 116.95 110.38 117.3 110.97 117.64 112.55 117.99 112.94 118.34 113.34 118.69 114.92 119.04 115.91 119.39 116.5 119.74 116.7 120.09 114.72 120.44 114.13 120.79 114.52 121.14 113.34 121.48 113.93 121.83 117.29 122.18 117.68 122.53 116.5 122.88 118.87 123.23 119.07 123.58 117.88 123.93 117.49 124.28 119.07 124.63 120.05 124.98 119.66 125.33 117.88 125.67 115.51 126.02 116.89 126.37 116.1 126.72 116.1 127.07 116.5 127.42 116.1 127.77 113.73 128.12 113.93 128.47 115.12 128.82 115.71 129.17 115.12 129.51 112.75 129.86 111.36 130.21 113.54 130.56 114.13 130.91 114.92 131.26 114.92 131.61 113.14 131.96 113.34 132.31 112.75 132.66 113.54 133.01 112.94 133.36 112.75 133.7 111.96 134.05 111.56 134.4 113.73 134.75 114.72 135.1 117.29 135.45 116.89 135.8 118.67 136.15 116.3 136.5 113.14 136.85 113.93 137.2 113.93 137.55 113.93 137.89 110.57 138.24 108.8 138.59 108.99 138.94 107.41 139.29 107.22 139.64 108.2 139.99 109.78 140.34 108.01 140.69 108.8 141.04 109.78 141.39 110.97 141.73 108.6 142.08 109.98 142.43 107.61 142.78 107.41 143.13 112.15 143.48 113.54 143.83 112.55 144.18 112.94 144.53 113.14 144.88 111.17 145.23 113.54 145.58 117.29 145.92 119.26 146.27 113.73 146.62 113.34 146.97 115.12 147.32 115.91 147.67 113.34 148.02 112.75 148.37 115.71 148.72 118.47 149.07 118.47 149.42 120.05 149.76 120.65 150.11 119.46 150.46 120.05 150.81 120.25 151.16 123.02 151.51 121.44 151.86 122.23 152.21 120.65 152.56 121.44 152.91 122.62 153.26 124.79 153.61 124 153.95 124.4 154.3 124.4 154.65 125.39 155 122.82 155.35 122.42 155.7 124 156.05 122.03 156.4 122.62 156.75 122.42 157.1 122.82 157.45 124.79 157.79 125.19 158.14 124.79 158.49 125.19 158.84 124.99 159.19 125.98 159.54 125.58 159.89 124.79 160.24 123.81 160.59 123.02 160.94 124 161.29 124.2 161.64 125.58 161.98 124 162.33 121.83 162.68 122.23 163.03 122.82 163.38 122.42 163.73 123.81 164.08 124.79 164.43 123.61 164.78 123.41 165.13 125.98 165.48 125.39 165.83 126.77 166.17 126.57 166.52 125.78 166.87 126.97 167.22 126.57 167.57 126.97 167.92 126.97 168.27 125.98 168.62 126.37 168.97 124.99 169.32 125.39 169.67 125.19 170.01 124.79 170.36 123.02 170.71 122.62 171.06 122.62 171.41 121.44 171.76 122.42 172.11 121.24 172.46 121.24 172.81 121.04 173.16 121.63 173.51 120.84 173.86 120.05 174.2 120.25 174.55 120.45 174.9 120.25 175.25 117.29 175.6 118.87 175.95 119.66 176.3 117.88 176.65 118.28 177 117.49 177.35 116.1 177.7 114.92 178.04 114.13 178.39 112.55 178.74 112.94 179.09 111.76 179.44 112.55 179.79 112.75 180.14 114.72 180.49 113.34 180.84 112.35 181.19 110.97 181.54 111.76 181.89 114.13 182.23 109.59 182.58 109.59 182.93 111.56 183.28 116.3 183.63 116.5 183.98 115.71 184.33 117.49 184.68 117.88 185.03 116.3 185.38 115.31 185.73 115.91 186.08 116.7 186.42 117.29 186.77 113.73 187.12 112.15 187.47 112.94 187.82 117.09 188.17 116.3 188.52 115.51 188.87 118.67 189.22 118.87 189.57 116.89 189.92 118.47 190.26 118.87 190.61 117.49 190.96 118.28 191.31 119.66 191.66 119.86 192.01 118.87 192.36 121.83 192.71 120.84 193.06 121.24 193.41 122.23 193.76 121.44 194.11 121.83 194.45 122.62 194.8 120.84 195.15 118.47 195.5 117.29 195.85 117.09 196.2 117.88"/>
      </g>
      <g stroke-width="0.3" fill="#000000" fill-opacity="0.000" class="geometry" stroke-dasharray="none" stroke="#FEE08B" id="img-c7dc8d70-15">
        <path fill="none" d="M21.98,71.86 L 22.33 73.25 22.68 75.42 23.03 77.79 23.38 77.79 23.73 77.39 24.08 79.17 24.42 81.15 24.77 86.08 25.12 86.48 25.47 87.47 25.82 84.9 26.17 84.31 26.52 81.34 26.87 81.74 27.22 80.36 27.57 82.13 27.92 84.5 28.27 85.89 28.61 86.28 28.96 85.1 29.31 82.13 29.66 80.36 30.01 79.57 30.36 78.18 30.71 81.94 31.06 78.78 31.41 78.18 31.76 76.01 32.11 77.59 32.45 73.05 32.8 72.26 33.15 67.91 33.5 66.33 33.85 66.53 34.2 67.52 34.55 71.47 34.9 71.27 35.25 74.23 35.6 78.38 35.95 76.8 36.3 77.59 36.64 76.41 36.99 74.04 37.34 73.84 37.69 69.49 38.04 72.46 38.39 71.47 38.74 69.49 39.09 65.74 39.44 64.75 39.79 67.32 40.14 65.94 40.49 67.32 40.83 66.73 41.18 69.69 41.53 68.31 41.88 65.74 42.23 67.12 42.58 67.12 42.93 65.35 43.28 65.15 43.63 61.4 43.98 61.79 44.33 58.63 44.67 57.05 45.02 55.67 45.37 53.1 45.72 49.55 46.07 47.97 46.42 45.6 46.77 45.79 47.12 45.6 47.47 41.64 47.82 42.44 48.17 44.02 48.52 45 48.86 45.4 49.21 43.82 49.56 42.24 49.91 40.26 50.26 43.03 50.61 39.27 50.96 39.47 51.31 36.11 51.66 36.11 52.01 36.31 52.36 36.9 52.7 37.5 53.05 35.72 53.4 34.93 53.75 33.35 54.1 33.94 54.45 29.6 54.8 27.82 55.15 25.45 55.5 26.24 55.85 26.63 56.2 23.87 56.55 22.09 56.89 22.09 57.24 21.3 57.59 22.29 57.94 22.49 58.29 25.25 58.64 27.23 58.99 26.63 59.34 26.44 59.69 25.84 60.04 25.25 60.39 24.66 60.73 23.87 61.08 23.28 61.43 22.49 61.78 20.71 62.13 20.12 62.48 20.71 62.83 20.91 63.18 20.51 63.53 22.29 63.88 21.3 64.23 19.13 64.58 20.71 64.92 20.91 65.27 20.71 65.62 21.89 65.97 20.31 66.32 20.12 66.67 20.51 67.02 22.68 67.37 22.88 67.72 22.49 68.07 21.89 68.42 24.46 68.77 22.68 69.11 19.92 69.46 19.33 69.81 17.75 70.16 17.15 70.51 16.17 70.86 16.17 71.21 17.15 71.56 18.34 71.91 21.1 72.26 21.1 72.61 20.91 72.95 20.12 73.3 20.12 73.65 21.3 74 23.08 74.35 23.87 74.7 24.86 75.05 24.26 75.4 25.65 75.75 24.66 76.1 23.67 76.45 21.1 76.8 23.08 77.14 23.08 77.49 21.3 77.84 20.91 78.19 20.51 78.54 19.13 78.89 18.73 79.24 19.13 79.59 18.14 79.94 17.55 80.29 15.97 80.64 15.38 80.98 15.97 81.33 15.57 81.68 15.77 82.03 15.57 82.38 16.56 82.73 16.96 83.08 16.56 83.43 15.97 83.78 16.56 84.13 16.36 84.48 15.77 84.83 16.17 85.17 16.36 85.52 16.56 85.87 15.18 86.22 14.78 86.57 13.6 86.92 13.4 87.27 13.4 87.62 13.8 87.97 13.4 88.32 13.4 88.67 13.01 89.02 13.2 89.36 12.81 89.71 12.81 90.06 13.01 90.41 13.01 90.76 13.01 91.11 13.2 91.46 12.81 91.81 12.81 92.16 12.61"/>
      </g>
      <g stroke-width="0.3" fill="#000000" fill-opacity="0.000" class="geometry" stroke-dasharray="none" stroke="#FDAE61" id="img-c7dc8d70-16">
        <path fill="none" d="M21.98,71.86 L 22.33 74.04 22.68 71.27 23.03 72.06 23.38 67.12 23.73 69.49 24.08 68.11 24.42 71.07 24.77 70.68 25.12 71.86 25.47 68.51 25.82 67.32 26.17 66.73 26.52 62.19 26.87 60.8 27.22 57.84 27.57 61.59 27.92 64.95 28.27 68.11 28.61 71.67 28.96 72.26 29.31 69.3 29.66 71.47 30.01 68.7 30.36 68.31 30.71 71.47 31.06 69.3 31.41 72.46 31.76 71.27 32.11 72.65 32.45 75.02 32.8 73.25 33.15 72.85 33.5 73.84 33.85 75.81 34.2 75.81 34.55 72.26 34.9 73.05 35.25 74.83 35.6 77.39 35.95 74.04 36.3 75.42 36.64 74.23 36.99 72.85 37.34 70.48 37.69 69.89 38.04 71.86 38.39 68.31 38.74 67.32 39.09 69.69 39.44 68.31 39.79 67.72 40.14 65.74 40.49 64.75 40.83 65.74 41.18 67.91 41.53 68.7 41.88 67.91 42.23 67.12 42.58 67.12 42.93 74.23 43.28 72.06 43.63 70.48 43.98 70.09 44.33 67.52 44.67 67.52 45.02 61.99 45.37 64.16 45.72 64.16 46.07 66.33 46.42 63.77 46.77 60.21 47.12 62.38 47.47 60.41 47.82 63.77 48.17 60.61 48.52 59.42 48.86 60.01 49.21 61.59 49.56 60.8 49.91 59.62 50.26 59.82 50.61 60.41 50.96 59.82 51.31 56.46 51.66 57.45 52.01 60.61 52.36 64.56 52.7 64.56 53.05 66.93 53.4 64.75 53.75 65.74 54.1 67.12 54.45 72.65 54.8 68.7 55.15 71.27 55.5 73.44 55.85 71.47 56.2 71.27 56.55 70.48 56.89 69.89 57.24 72.46 57.59 71.47 57.94 71.67 58.29 71.86 58.64 72.46 58.99 70.68 59.34 68.7 59.69 65.35 60.04 65.94 60.39 65.15 60.73 67.52 61.08 64.75 61.43 63.17 61.78 63.57 62.13 67.32 62.48 67.52 62.83 68.31 63.18 73.05 63.53 72.46 63.88 70.88 64.23 71.67 64.58 69.69 64.92 68.7 65.27 70.09 65.62 72.85 65.97 74.43 66.32 77 66.67 80.75 67.02 79.37 67.37 74.83 67.72 74.04 68.07 70.88 68.42 67.32 68.77 67.32 69.11 65.54 69.46 66.14 69.81 73.05 70.16 76.01 70.51 75.22 70.86 77.2 71.21 77.39 71.56 76.21 71.91 80.55 72.26 80.55 72.61 82.13 72.95 82.92 73.3 84.5 73.65 83.71 74 84.7 74.35 88.06 74.7 85.49 75.05 86.68 75.4 81.34 75.75 79.57 76.1 75.81 76.45 77.2 76.8 75.02 77.14 75.02 77.49 74.23 77.84 75.22 78.19 77.59 78.54 74.43 78.89 78.38 79.24 80.75 79.59 77.99 79.94 79.37 80.29 78.38 80.64 78.38 80.98 80.75 81.33 82.92 81.68 84.11 82.03 84.31 82.38 83.52 82.73 80.55 83.08 81.34 83.43 84.31 83.78 81.94 84.13 83.91 84.48 85.49 84.83 87.66 85.17 89.84 85.52 92.6 85.87 92.8 86.22 93.39 86.57 92.4 86.92 91.81 87.27 90.03 87.62 93.19 87.97 94.18 88.32 94.38 88.67 94.77 89.02 96.95 89.36 95.76 89.71 97.54 90.06 98.13 90.41 95.17 90.76 95.17 91.11 97.93 91.46 100.9 91.81 103.46 92.16 104.45 92.51 103.86 92.86 106.23 93.2 104.65 93.55 106.43 93.9 106.62 94.25 105.64 94.6 104.45 94.95 104.25 95.3 104.65 95.65 106.03 96 105.83 96.35 108.2 96.7 111.96 97.05 111.76 97.39 104.45 97.74 108.99 98.09 108.6 98.44 107.02 98.79 107.41 99.14 109.39 99.49 107.02 99.84 108.6 100.19 110.97 100.54 112.94 100.89 113.73 101.23 112.55 101.58 110.38 101.93 112.15 102.28 110.57 102.63 111.17 102.98 109.39 103.33 111.17 103.68 108.6 104.03 112.55 104.38 112.55 104.73 111.96 105.08 111.76 105.42 111.36 105.77 110.77 106.12 112.15 106.47 110.57 106.82 108.4 107.17 106.62 107.52 107.22 107.87 104.45 108.22 101.88 108.57 100.7 108.92 102.28 109.26 103.27 109.61 104.06 109.96 104.65 110.31 109.19 110.66 109.78 111.01 108.6 111.36 105.83 111.71 105.04 112.06 105.24 112.41 104.85 112.76 101.49 113.11 103.27 113.45 101.69 113.8 101.29 114.15 101.88 114.5 100.7 114.85 101.88 115.2 101.29 115.55 101.88 115.9 99.91 116.25 97.74 116.6 99.91 116.95 100.3 117.3 96.95 117.64 97.54 117.99 96.55 118.34 96.35 118.69 95.76 119.04 95.96 119.39 94.58 119.74 96.16 120.09 97.74 120.44 100.3 120.79 98.92 121.14 97.93 121.48 104.25 121.83 107.61 122.18 105.64 122.53 107.02 122.88 106.82 123.23 103.27 123.58 103.86 123.93 101.69 124.28 99.91 124.63 97.93 124.98 97.54 125.33 100.11 125.67 100.5 126.02 103.07 126.37 103.27 126.72 100.3 127.07 101.09 127.42 101.88 127.77 98.72 128.12 99.71 128.47 99.32 128.82 96.95 129.17 97.74 129.51 95.56 129.86 95.37 130.21 93.98 130.56 89.05 130.91 89.24 131.26 86.68 131.61 88.45 131.96 87.47 132.31 85.89 132.66 88.85 133.01 92.21 133.36 94.58 133.7 91.22 134.05 92.4 134.4 93.98 134.75 97.93 135.1 97.54 135.45 95.56 135.8 93.39 136.15 93.79 136.5 95.37 136.85 96.75 137.2 99.91 137.55 96.75 137.89 97.93 138.24 95.96 138.59 98.13 138.94 97.74 139.29 98.72 139.64 100.7 139.99 101.49 140.34 99.12 140.69 97.74 141.04 98.13 141.39 99.91 141.73 100.7 142.08 101.09 142.43 102.87 142.78 101.88 143.13 102.28 143.48 103.66 143.83 103.86 144.18 105.64 144.53 101.69 144.88 101.69 145.23 100.9 145.58 99.91 145.92 97.54 146.27 97.14 146.62 98.33 146.97 98.72 147.32 104.45 147.67 105.64 148.02 102.67 148.37 102.67 148.72 102.48 149.07 103.86 149.42 99.71 149.76 98.13 150.11 96.35 150.46 95.56 150.81 97.14 151.16 92.01 151.51 91.61 151.86 88.85 152.21 85.69 152.56 87.07 152.91 89.05 153.26 91.61 153.61 94.77 153.95 93 154.3 93.98 154.65 97.74 155 96.95 155.35 100.3 155.7 101.09 156.05 102.87 156.4 99.51 156.75 98.33 157.1 101.09 157.45 100.5 157.79 103.07 158.14 105.44 158.49 108.8 158.84 106.82 159.19 107.02 159.54 110.38 159.89 112.94 160.24 111.76 160.59 108.4 160.94 108.4 161.29 108.8 161.64 106.62 161.98 109.39 162.33 108.99 162.68 108.2 163.03 107.41 163.38 108.2 163.73 109.39 164.08 106.23 164.43 108.8 164.78 108.4 165.13 108.2 165.48 104.85 165.83 104.25 166.17 105.24 166.52 104.45 166.87 101.09 167.22 101.49 167.57 100.3 167.92 100.3 168.27 95.17 168.62 97.54 168.97 92.8 169.32 93.39 169.67 92.6 170.01 92.01 170.36 89.84 170.71 92.21 171.06 95.76 171.41 97.93 171.76 99.91 172.11 102.28 172.46 105.44 172.81 105.64 173.16 106.62 173.51 106.23 173.86 105.64 174.2 104.65 174.55 103.66 174.9 104.45 175.25 106.82 175.6 103.66 175.95 105.24 176.3 103.86 176.65 99.71 177 98.92 177.35 96.16 177.7 97.54 178.04 99.51 178.39 100.11 178.74 101.49 179.09 100.11 179.44 97.54 179.79 98.13 180.14 96.35 180.49 96.75 180.84 98.13 181.19 102.67 181.54 106.23 181.89 107.22 182.23 109.19 182.58 108.8 182.93 108.99 183.28 110.38 183.63 111.56 183.98 114.72 184.33 114.13 184.68 111.56 185.03 113.14 185.38 111.76 185.73 109.59 186.08 108.2 186.42 108.8 186.77 105.04 187.12 105.83 187.47 107.02 187.82 107.02 188.17 105.64 188.52 104.85 188.87 104.25 189.22 107.61 189.57 105.44 189.92 103.07 190.26 103.07 190.61 101.09 190.96 101.69 191.31 106.03 191.66 107.02 192.01 108.2 192.36 108.01 192.71 108.8 193.06 111.17 193.41 108.4 193.76 107.41 194.11 107.41 194.45 106.03 194.8 105.44 195.15 106.03 195.5 105.83 195.85 109.19 196.2 110.57"/>
      </g>
      <g stroke-width="0.3" fill="#000000" fill-opacity="0.000" class="geometry" stroke-dasharray="none" stroke="#F46D43" id="img-c7dc8d70-17">
        <path fill="none" d="M21.98,71.86 L 22.33 71.07 22.68 70.09 23.03 71.07 23.38 70.48 23.73 69.69 24.08 67.91 24.42 65.94 24.77 65.74 25.12 61.59 25.47 65.54 25.82 58.04 26.17 58.83 26.52 59.42 26.87 59.82 27.22 61.79 27.57 61.79 27.92 64.75 28.27 63.57 28.61 59.03 28.96 61.59 29.31 65.54 29.66 60.61 30.01 63.17 30.36 64.16 30.71 62.78 31.06 58.83 31.41 58.04 31.76 57.25 32.11 56.06 32.45 52.51 32.8 52.9 33.15 50.73 33.5 48.95 33.85 51.52 34.2 51.92 34.55 50.34 34.9 48.95 35.25 47.57 35.6 44.21 35.95 44.41 36.3 42.63 36.64 42.44 36.99 41.64 37.34 46.58 37.69 44.21 38.04 44.41 38.39 43.03 38.74 43.82 39.09 43.03 39.44 42.04 39.79 40.85 40.14 42.83 40.49 41.84 40.83 41.45 41.18 38.48 41.53 38.48 41.88 36.9 42.23 38.29 42.58 37.1 42.93 38.29 43.28 36.31 43.63 36.9 43.98 38.48 44.33 37.5 44.67 37.3 45.02 34.14 45.37 31.37 45.72 29.2 46.07 29 46.42 31.57 46.77 32.16 47.12 30.98 47.47 32.36 47.82 31.77 48.17 27.62 48.52 26.63 48.86 27.03 49.21 26.24 49.56 28.21 49.91 31.18 50.26 30.19 50.61 30.98 50.96 33.35 51.31 34.34 51.66 36.11 52.01 37.3 52.36 34.73 52.7 35.52 53.05 37.89 53.4 38.48 53.75 35.52 54.1 35.72 54.45 35.92 54.8 37.69 55.15 37.5 55.5 33.35 55.85 33.94 56.2 33.15 56.55 32.16 56.89 33.74 57.24 30.19 57.59 32.76 57.94 32.36 58.29 30.58 58.64 29.2 58.99 31.77 59.34 30.58 59.69 32.16 60.04 32.16 60.39 33.94 60.73 33.35 61.08 34.93 61.43 34.73 61.78 33.35 62.13 31.77 62.48 34.14 62.83 33.74 63.18 33.35 63.53 31.77 63.88 30.98 64.23 29.4 64.58 25.25 64.92 25.65 65.27 24.26 65.62 26.24 65.97 26.44 66.32 26.44 66.67 25.05 67.02 25.05 67.37 22.88 67.72 24.66 68.07 22.88 68.42 22.88 68.77 25.84 69.11 24.66 69.46 24.26 69.81 25.65 70.16 26.04 70.51 26.04 70.86 26.63 71.21 24.46 71.56 25.05 71.91 24.66 72.26 26.04 72.61 27.42 72.95 25.25 73.3 26.04 73.65 26.44 74 26.44 74.35 28.61 74.7 29.2 75.05 28.81 75.4 28.02 75.75 29.79 76.1 31.18 76.45 32.95 76.8 35.72 77.14 33.94 77.49 34.73 77.84 36.11 78.19 34.93 78.54 33.74 78.89 32.16 79.24 29.2 79.59 27.82 79.94 28.61 80.29 27.42 80.64 25.65 80.98 25.65 81.33 26.44 81.68 27.03 82.03 29.2 82.38 30.58 82.73 32.36 83.08 30.98 83.43 32.56 83.78 34.93 84.13 36.51 84.48 40.26 84.83 39.27 85.17 38.29 85.52 39.67 85.87 37.69 86.22 39.08 86.57 38.29 86.92 35.72 87.27 37.5 87.62 35.92 87.97 38.29 88.32 35.32 88.67 34.34 89.02 35.72 89.36 37.5 89.71 36.71 90.06 36.71 90.41 39.47 90.76 40.26 91.11 38.88 91.46 38.68 91.81 36.31 92.16 35.13 92.51 35.52 92.86 31.57 93.2 34.14 93.55 34.53 93.9 35.32 94.25 35.92 94.6 35.32 94.95 36.9 95.3 38.29 95.65 40.26 96 39.47 96.35 37.3 96.7 39.08 97.05 34.93 97.39 32.56 97.74 35.72 98.09 34.73 98.44 36.11 98.79 36.11 99.14 34.73 99.49 36.31 99.84 37.5 100.19 38.68 100.54 38.88 100.89 37.1 101.23 34.34 101.58 33.74 101.93 34.14 102.28 31.77 102.63 29.79 102.98 28.21 103.33 27.23 103.68 28.21 104.03 27.03 104.38 28.02 104.73 30.78 105.08 33.55 105.42 33.15 105.77 32.56 106.12 33.35 106.47 33.35 106.82 31.97 107.17 35.52 107.52 32.95 107.87 33.74 108.22 30.98 108.57 29.4 108.92 28.41 109.26 28.21 109.61 29.6 109.96 25.65 110.31 26.04 110.66 25.84 111.01 26.83 111.36 25.65 111.71 24.86 112.06 24.86 112.41 25.25 112.76 26.04 113.11 24.46 113.45 25.65 113.8 25.25 114.15 23.08 114.5 22.49 114.85 24.07 115.2 22.49 115.55 23.87 115.9 26.83 116.25 27.82 116.6 26.44 116.95 25.25 117.3 25.05 117.64 24.26 117.99 24.46 118.34 24.66 118.69 22.88 119.04 23.08 119.39 24.66 119.74 26.24 120.09 26.63 120.44 28.02 120.79 28.81 121.14 30.39 121.48 29.99 121.83 29.99 122.18 29.6 122.53 28.61 122.88 28.61 123.23 31.97 123.58 32.36 123.93 33.94 124.28 36.11 124.63 35.72 124.98 34.14 125.33 32.95 125.67 35.32 126.02 31.57 126.37 32.36 126.72 30.78 127.07 30.19 127.42 31.37 127.77 28.61 128.12 29.99 128.47 31.37 128.82 32.16 129.17 30.78 129.51 29.99 129.86 30.19 130.21 28.81 130.56 27.62 130.91 28.41 131.26 27.03 131.61 26.24 131.96 27.42 132.31 24.66 132.66 24.46 133.01 22.68 133.36 21.89 133.7 23.28 134.05 24.46 134.4 25.05 134.75 24.66 135.1 24.46 135.45 26.04 135.8 25.05 136.15 24.66 136.5 25.65 136.85 25.84 137.2 26.44 137.55 27.03 137.89 26.63 138.24 28.02 138.59 26.63 138.94 26.63 139.29 25.45 139.64 26.83 139.99 26.63 140.34 24.86 140.69 25.45 141.04 26.04 141.39 27.23 141.73 25.65 142.08 27.62 142.43 29.2 142.78 29.99 143.13 29.2 143.48 27.23 143.83 28.21 144.18 30.19 144.53 29.99 144.88 29.6 145.23 31.97 145.58 29.79 145.92 29.6 146.27 29.6 146.62 30.19 146.97 31.18 147.32 32.76 147.67 32.95 148.02 31.18 148.37 30.58 148.72 29.99 149.07 28.21 149.42 28.61 149.76 28.41 150.11 28.21 150.46 26.04 150.81 26.04 151.16 27.23 151.51 26.04 151.86 26.44 152.21 27.42 152.56 24.66 152.91 25.25 153.26 23.87 153.61 25.84 153.95 27.42 154.3 26.83 154.65 25.45 155 26.24 155.35 26.44 155.7 27.03 156.05 26.44 156.4 27.42 156.75 24.66 157.1 28.61 157.45 29.4 157.79 30.39 158.14 26.83 158.49 27.62 158.84 27.62 159.19 24.86 159.54 23.28 159.89 23.08 160.24 28.41 160.59 29.4 160.94 28.41 161.29 29.2 161.64 30.19 161.98 26.83 162.33 27.42 162.68 30.19 163.03 26.63 163.38 28.81 163.73 29 164.08 24.07 164.43 24.46 164.78 24.26 165.13 28.81 165.48 29.2 165.83 29.2 166.17 27.03 166.52 28.81 166.87 28.02 167.22 28.61 167.57 27.23 167.92 28.81 168.27 29.4 168.62 33.55 168.97 34.14 169.32 34.14 169.67 31.57 170.01 33.15 170.36 31.97 170.71 33.35 171.06 32.76 171.41 35.52 171.76 34.73 172.11 31.97 172.46 31.57 172.81 28.02 173.16 27.23 173.51 25.05 173.86 25.65 174.2 26.24 174.55 25.45 174.9 27.82 175.25 29.6 175.6 30.19 175.95 29.6 176.3 28.21 176.65 25.65 177 26.24 177.35 24.46 177.7 25.25 178.04 27.23 178.39 24.86 178.74 25.05 179.09 22.29 179.44 21.5 179.79 21.3 180.14 20.91 180.49 20.71 180.84 20.31 181.19 19.52 181.54 18.54 181.89 19.52 182.23 19.52 182.58 20.31 182.93 19.92 183.28 20.91 183.63 18.14 183.98 18.54 184.33 19.33 184.68 18.14 185.03 17.94 185.38 17.94 185.73 18.73 186.08 17.35 186.42 16.36 186.77 16.76 187.12 16.76 187.47 15.77 187.82 15.57 188.17 14.98 188.52 14.78 188.87 14.39 189.22 14.59 189.57 14.98 189.92 15.18 190.26 15.38 190.61 16.17 190.96 15.97 191.31 17.15 191.66 15.57 192.01 15.77 192.36 16.36 192.71 17.35 193.06 16.76 193.41 17.75 193.76 18.93 194.11 18.73 194.45 20.31 194.8 20.31 195.15 20.91 195.5 21.5 195.85 22.68 196.2 21.89"/>
      </g>
      <g stroke-width="0.3" fill="#000000" fill-opacity="0.000" class="geometry" stroke-dasharray="none" stroke="#D53E4F" id="img-c7dc8d70-18">
        <path fill="none" d="M21.98,71.86 L 22.33 68.31 22.68 68.11 23.03 67.32 23.38 66.53 23.73 65.15 24.08 69.49 24.42 64.16 24.77 65.54 25.12 64.36 25.47 66.73 25.82 69.69 26.17 70.88 26.52 71.67 26.87 70.28 27.22 71.07 27.57 67.52 27.92 68.9 28.27 65.74 28.61 68.11 28.96 69.69 29.31 70.48 29.66 75.22 30.01 73.25 30.36 71.07 30.71 70.68 31.06 73.64 31.41 73.25 31.76 76.01 32.11 75.62 32.45 76.8 32.8 77.59 33.15 77.39 33.5 78.58 33.85 83.12 34.2 81.34 34.55 81.54 34.9 81.74 35.25 80.55 35.6 80.55 35.95 81.74 36.3 85.29 36.64 87.47 36.99 93.98 37.34 91.22 37.69 91.81 38.04 90.82 38.39 90.03 38.74 88.65 39.09 88.85 39.44 88.85 39.79 89.24 40.14 91.42 40.49 88.65 40.83 88.06 41.18 92.4 41.53 90.43 41.88 89.64 42.23 90.82 42.58 90.03 42.93 88.06 43.28 89.24 43.63 87.66 43.98 90.43 44.33 90.82 44.67 88.85 45.02 90.82 45.37 91.22 45.72 94.77 46.07 90.43 46.42 89.84 46.77 88.06 47.12 89.64 47.47 85.69 47.82 85.89 48.17 84.7 48.52 87.27 48.86 85.49 49.21 82.92 49.56 84.9 49.91 86.48 50.26 86.08 50.61 86.28 50.96 86.08 51.31 82.33 51.66 78.97 52.01 80.16 52.36 81.74 52.7 80.95 53.05 79.17 53.4 78.18 53.75 76.21 54.1 78.18 54.45 83.32 54.8 81.34 55.15 83.32 55.5 83.32 55.85 81.34 56.2 79.37 56.55 76.41 56.89 76.8 57.24 70.48 57.59 69.49 57.94 68.11 58.29 69.3 58.64 70.48 58.99 73.44 59.34 68.7 59.69 68.51 60.04 70.28 60.39 69.1 60.73 68.31 61.08 69.3 61.43 64.95 61.78 65.54 62.13 65.35 62.48 65.74 62.83 63.77 63.18 62.78 63.53 60.21 63.88 61 64.23 56.66 64.58 53.3 64.92 51.52 65.27 52.9 65.62 55.87 65.97 56.26 66.32 58.63 66.67 59.42 67.02 58.83 67.37 56.46 67.72 54.29 68.07 52.9 68.42 55.08 68.77 55.47 69.11 59.22 69.46 60.8 69.81 58.04 70.16 59.82 70.51 61.4 70.86 62.58 71.21 65.74 71.56 63.57 71.91 58.43 72.26 56.26 72.61 58.43 72.95 58.83 73.3 59.03 73.65 56.06 74 56.85 74.35 59.22 74.7 56.66 75.05 59.03 75.4 54.09 75.75 55.87 76.1 54.09 76.45 55.67 76.8 49.15 77.14 51.92 77.49 50.93 77.84 51.72 78.19 54.48 78.54 51.72 78.89 52.51 79.24 52.11 79.59 48.95 79.94 51.32 80.29 51.52 80.64 53.1 80.98 51.52 81.33 50.73 81.68 55.08 82.03 51.72 82.38 53.5 82.73 52.71 83.08 53.5 83.43 54.09 83.78 54.48 84.13 54.88 84.48 55.67 84.83 56.85 85.17 58.83 85.52 58.24 85.87 52.71 86.22 51.13 86.57 51.13 86.92 49.55 87.27 47.97 87.62 45.79 87.97 45.79 88.32 48.16 88.67 50.34 89.02 47.57 89.36 46.39 89.71 45.79 90.06 47.97 90.41 46.39 90.76 45.99 91.11 43.42 91.46 45.4 91.81 48.76 92.16 47.57 92.51 48.76 92.86 51.72 93.2 45.6 93.55 44.61 93.9 42.04 94.25 41.64 94.6 43.23 94.95 44.61 95.3 43.03 95.65 45.2 96 48.56 96.35 44.81 96.7 43.82 97.05 41.25 97.39 38.09 97.74 39.47 98.09 40.06 98.44 42.63 98.79 39.27 99.14 40.85 99.49 44.02 99.84 44.21 100.19 44.61 100.54 42.04 100.89 44.41 101.23 44.21 101.58 43.82 101.93 47.18 102.28 50.53 102.63 51.92 102.98 50.34 103.33 48.76 103.68 50.53 104.03 51.72 104.38 54.48 104.73 55.08 105.08 55.47 105.42 55.08 105.77 52.9 106.12 57.05 106.47 56.46 106.82 54.68 107.17 56.46 107.52 56.85 107.87 57.05 108.22 58.43 108.57 57.64 108.92 58.43 109.26 56.26 109.61 59.82 109.96 56.26 110.31 55.08 110.66 54.48 111.01 54.29 111.36 54.09 111.71 57.25 112.06 57.84 112.41 55.87 112.76 52.31 113.11 51.52 113.45 49.74 113.8 49.55 114.15 51.52 114.5 52.11 114.85 51.13 115.2 48.95 115.55 53.1 115.9 49.74 116.25 49.15 116.6 53.5 116.95 52.11 117.3 51.92 117.64 55.67 117.99 60.01 118.34 61.79 118.69 60.8 119.04 57.64 119.39 59.82 119.74 59.22 120.09 60.61 120.44 64.56 120.79 64.16 121.14 61 121.48 58.83 121.83 61.99 122.18 61.2 122.53 65.94 122.88 64.95 123.23 67.12 123.58 67.32 123.93 68.7 124.28 64.16 124.63 61.59 124.98 64.95 125.33 66.14 125.67 66.93 126.02 67.91 126.37 70.28 126.72 70.48 127.07 68.51 127.42 68.31 127.77 67.12 128.12 68.7 128.47 69.49 128.82 70.88 129.17 72.06 129.51 69.89 129.86 70.68 130.21 69.89 130.56 65.35 130.91 63.77 131.26 64.56 131.61 62.98 131.96 65.15 132.31 64.56 132.66 66.93 133.01 65.15 133.36 61.99 133.7 60.8 134.05 61.59 134.4 62.38 134.75 60.41 135.1 57.45 135.45 56.26 135.8 56.85 136.15 54.48 136.5 48.36 136.85 48.36 137.2 49.15 137.55 50.14 137.89 50.53 138.24 56.46 138.59 57.45 138.94 58.04 139.29 58.63 139.64 59.42 139.99 60.21 140.34 61.4 140.69 65.35 141.04 63.96 141.39 61.2 141.73 59.22 142.08 57.84 142.43 59.82 142.78 56.46 143.13 54.88 143.48 52.31 143.83 53.5 144.18 53.3 144.53 54.09 144.88 53.3 145.23 56.85 145.58 53.89 145.92 53.1 146.27 52.51 146.62 51.72 146.97 51.52 147.32 50.93 147.67 49.94 148.02 45.4 148.37 42.63 148.72 46.78 149.07 49.74 149.42 49.94 149.76 51.52 150.11 48.76 150.46 53.3 150.81 52.31 151.16 56.46 151.51 54.88 151.86 55.27 152.21 57.84 152.56 61.59 152.91 60.01 153.26 57.45 153.61 60.21 153.95 61 154.3 58.63 154.65 58.83 155 59.62 155.35 57.25 155.7 55.67 156.05 60.21 156.4 56.66 156.75 54.88 157.1 57.64 157.45 56.66 157.79 53.3 158.14 55.08 158.49 58.04 158.84 57.45 159.19 60.41 159.54 62.38 159.89 60.01 160.24 59.03 160.59 55.67 160.94 51.72 161.29 51.13 161.64 53.1 161.98 49.55 162.33 49.74 162.68 47.57 163.03 46.19 163.38 45.4 163.73 42.83 164.08 41.25 164.43 42.24 164.78 43.42 165.13 40.26 165.48 38.29 165.83 36.9 166.17 32.16 166.52 31.97 166.87 29.6 167.22 30.58 167.57 31.18 167.92 35.32 168.27 35.32 168.62 34.14 168.97 36.9 169.32 39.08 169.67 39.08 170.01 37.1 170.36 40.06 170.71 44.21 171.06 44.61 171.41 45 171.76 47.97 172.11 49.35 172.46 48.16 172.81 48.16 173.16 49.55 173.51 50.34 173.86 47.18 174.2 44.41 174.55 43.23 174.9 41.45 175.25 44.41 175.6 38.48 175.95 38.29 176.3 36.9 176.65 35.92 177 34.34 177.35 32.36 177.7 29.99 178.04 31.57 178.39 28.81 178.74 28.81 179.09 30.19 179.44 31.18 179.79 34.14 180.14 35.52 180.49 37.69 180.84 36.9 181.19 35.72 181.54 36.31 181.89 36.51 182.23 37.69 182.58 42.24 182.93 41.64 183.28 43.42 183.63 40.46 183.98 38.88 184.33 36.9 184.68 37.69 185.03 35.13 185.38 31.18 185.73 31.57 186.08 32.16 186.42 32.16 186.77 31.77 187.12 30.58 187.47 29.6 187.82 29.79 188.17 32.36 188.52 31.18 188.87 29.79 189.22 29.79 189.57 27.42 189.92 29.4 190.26 30.58 190.61 31.97 190.96 34.73 191.31 31.57 191.66 29.99 192.01 31.37 192.36 31.57 192.71 33.15 193.06 34.53 193.41 29.99 193.76 29.99 194.11 29.4 194.45 26.63 194.8 26.44 195.15 26.44 195.5 25.65 195.85 26.83 196.2 27.23"/>
      </g>
      <g stroke-width="0.3" fill="#000000" fill-opacity="0.000" class="geometry" stroke-dasharray="none" stroke="#9E0142" id="img-c7dc8d70-19">
        <path fill="none" d="M21.98,71.86 L 22.33 71.27 22.68 70.09 23.03 68.31 23.38 69.3 23.73 70.48 24.08 69.69 24.42 67.52 24.77 67.52 25.12 63.17 25.47 59.62 25.82 60.41 26.17 58.24 26.52 60.21 26.87 60.61 27.22 60.41 27.57 58.63 27.92 60.21 28.27 63.77 28.61 61.79 28.96 61.59 29.31 60.41 29.66 65.15 30.01 64.16 30.36 69.3 30.71 69.49 31.06 71.27 31.41 72.26 31.76 71.47 32.11 70.28 32.45 70.28 32.8 75.02 33.15 76.6 33.5 77 33.85 74.83 34.2 75.42 34.55 76.21 34.9 76.01 35.25 77.99 35.6 81.94 35.95 83.52 36.3 88.26 36.64 88.65 36.99 92.01 37.34 92.8 37.69 92.8 38.04 93.19 38.39 94.58 38.74 94.97 39.09 92.01 39.44 91.22 39.79 90.23 40.14 95.17 40.49 98.33 40.83 98.92 41.18 100.7 41.53 97.74 41.88 98.72 42.23 98.72 42.58 96.35 42.93 93.98 43.28 96.35 43.63 95.76 43.98 95.96 44.33 94.97 44.67 95.76 45.02 97.34 45.37 99.91 45.72 99.91 46.07 96.55 46.42 98.53 46.77 99.12 47.12 98.53 47.47 97.14 47.82 93 48.17 93.39 48.52 94.77 48.86 94.77 49.21 98.92 49.56 98.53 49.91 96.75 50.26 90.82 50.61 90.03 50.96 90.82 51.31 97.14 51.66 96.55 52.01 97.34 52.36 96.55 52.7 98.33 53.05 95.37 53.4 93 53.75 91.02 54.1 89.64 54.45 89.64 54.8 89.24 55.15 88.65 55.5 86.08 55.85 83.32 56.2 86.48 56.55 83.32 56.89 83.71 57.24 87.27 57.59 89.24 57.94 86.68 58.29 86.48 58.64 87.66 58.99 88.85 59.34 93.98 59.69 96.35 60.04 97.14 60.39 93.79 60.73 94.18 61.08 94.18 61.43 89.05 61.78 90.43 62.13 88.65 62.48 89.64 62.83 88.65 63.18 92.21 63.53 92.21 63.88 95.37 64.23 93.59 64.58 93.39 64.92 97.54 65.27 98.92 65.62 99.32 65.97 102.28 66.32 102.28 66.67 104.25 67.02 103.86 67.37 104.25 67.72 104.65 68.07 103.07 68.42 103.46 68.77 106.03 69.11 105.24 69.46 105.44 69.81 106.23 70.16 104.85 70.51 104.06 70.86 105.64 71.21 106.23 71.56 107.61 71.91 107.41 72.26 106.43 72.61 104.85 72.95 104.25 73.3 102.48 73.65 101.88 74 103.27 74.35 103.86 74.7 103.66 75.05 105.83 75.4 108.01 75.75 106.62 76.1 105.83 76.45 107.41 76.8 106.03 77.14 107.41 77.49 106.82 77.84 105.24 78.19 103.27 78.54 101.69 78.89 104.45 79.24 104.06 79.59 104.25 79.94 106.82 80.29 105.24 80.64 105.64 80.98 103.66 81.33 103.27 81.68 100.7 82.03 100.7 82.38 102.67 82.73 105.24 83.08 102.87 83.43 103.27 83.78 103.66 84.13 105.64 84.48 108.01 84.83 107.41 85.17 105.83 85.52 107.22 85.87 106.03 86.22 103.46 86.57 103.27 86.92 103.86 87.27 104.65 87.62 104.65 87.97 108.01 88.32 107.41 88.67 110.18 89.02 108.2 89.36 107.61 89.71 103.07 90.06 101.88 90.41 100.5 90.76 100.5 91.11 100.9 91.46 100.5 91.81 102.08 92.16 101.29 92.51 101.09 92.86 102.08 93.2 101.69 93.55 97.34 93.9 97.54 94.25 99.12 94.6 103.07 94.95 103.46 95.3 104.65 95.65 106.23 96 106.82 96.35 108.8 96.7 106.62 97.05 109.78 97.39 110.18 97.74 114.33 98.09 115.12 98.44 118.47 98.79 115.51 99.14 113.93 99.49 111.56 99.84 109.98 100.19 108.4 100.54 111.96 100.89 112.55 101.23 113.93 101.58 115.91 101.93 115.91 102.28 113.73 102.63 112.94 102.98 110.18 103.33 107.81 103.68 109.19 104.03 105.83 104.38 101.88 104.73 101.69 105.08 103.86 105.42 102.87 105.77 103.07 106.12 103.66 106.47 103.27 106.82 102.87 107.17 102.67 107.52 102.67 107.87 103.46 108.22 105.44 108.57 108.6 108.92 108.8 109.26 106.62 109.61 105.83 109.96 106.62 110.31 103.07 110.66 105.04 111.01 104.25 111.36 100.7 111.71 100.9 112.06 99.91 112.41 97.54 112.76 100.7 113.11 102.48 113.45 100.9 113.8 103.46 114.15 101.49 114.5 103.86 114.85 101.09 115.2 99.51 115.55 101.29 115.9 102.08 116.25 103.46 116.6 103.27 116.95 104.25 117.3 101.88 117.64 102.08 117.99 103.27 118.34 105.64 118.69 105.44 119.04 106.03 119.39 105.24 119.74 104.65 120.09 106.82 120.44 106.03 120.79 107.61 121.14 110.57 121.48 108.99 121.83 110.97 122.18 111.96 122.53 113.14 122.88 112.55 123.23 114.33 123.58 113.73 123.93 113.14 124.28 114.13 124.63 117.88 124.98 118.87 125.33 119.26 125.67 119.07 126.02 118.28 126.37 117.09 126.72 118.08 127.07 119.07 127.42 121.04 127.77 122.23 128.12 123.61 128.47 122.82 128.82 123.61 129.17 124 129.51 124.79 129.86 123.81 130.21 120.84 130.56 122.42 130.91 124.6 131.26 124.99 131.61 124.4 131.96 124.99 132.31 125.39 132.66 125.39 133.01 125.58 133.36 124.4 133.7 124.4 134.05 124.79 134.4 125.58 134.75 125.98 135.1 127.36 135.45 127.76 135.8 127.16 136.15 125.98 136.5 124.79 136.85 124.79 137.2 126.18 137.55 125.39 137.89 125.39 138.24 126.18 138.59 125.98 138.94 125.98 139.29 123.61 139.64 124.99 139.99 125.19 140.34 125.58 140.69 125.19 141.04 124.6 141.39 123.21 141.73 122.82 142.08 119.66 142.43 119.07 142.78 116.5 143.13 118.08 143.48 116.1 143.83 119.46 144.18 121.63 144.53 121.24 144.88 119.26 145.23 119.46 145.58 120.45 145.92 119.07 146.27 123.21 146.62 123.61 146.97 125.58 147.32 125.19 147.67 124 148.02 123.81 148.37 122.42 148.72 121.24 149.07 120.05 149.42 117.49 149.76 117.88 150.11 118.28 150.46 116.5 150.81 116.89 151.16 117.49 151.51 120.25 151.86 121.04 152.21 119.86 152.56 121.44 152.91 122.42 153.26 123.02 153.61 123.41 153.95 121.44 154.3 121.44 154.65 120.05 155 118.67 155.35 119.46 155.7 121.04 156.05 120.05 156.4 120.84 156.75 121.63 157.1 120.25 157.45 121.24 157.79 123.81 158.14 123.61 158.49 122.82 158.84 119.86 159.19 119.46 159.54 121.24 159.89 122.42 160.24 122.23 160.59 121.24 160.94 121.24 161.29 120.84 161.64 121.24 161.98 119.07 162.33 119.66 162.68 122.03 163.03 122.42 163.38 122.42 163.73 122.62 164.08 124.99 164.43 123.41 164.78 122.62 165.13 122.03 165.48 122.82 165.83 123.61 166.17 122.23 166.52 121.04 166.87 122.03 167.22 122.62 167.57 124 167.92 124.6 168.27 125.19 168.62 124 168.97 124 169.32 122.42 169.67 120.65 170.01 120.84 170.36 120.84 170.71 118.87 171.06 118.87 171.41 116.7 171.76 117.29 172.11 118.67 172.46 116.7 172.81 117.49 173.16 120.84 173.51 122.03 173.86 121.04 174.2 119.46 174.55 117.68 174.9 117.29 175.25 117.88 175.6 117.49 175.95 116.7 176.3 115.12 176.65 115.12 177 117.88 177.35 119.86 177.7 122.82 178.04 121.83 178.39 124.2 178.74 125.19 179.09 125.58 179.44 125.78 179.79 124.79 180.14 126.97 180.49 127.56 180.84 128.94 181.19 129.73 181.54 129.34 181.89 128.35 182.23 128.15 182.58 128.15 182.93 126.97 183.28 125.78 183.63 123.81 183.98 124.4 184.33 123.02 184.68 125.19 185.03 125.39 185.38 124.99 185.73 123.61 186.08 123.41 186.42 122.23 186.77 119.07 187.12 119.66 187.47 120.45 187.82 120.84 188.17 121.24 188.52 120.05 188.87 121.04 189.22 121.63 189.57 120.45 189.92 118.08 190.26 118.08 190.61 115.91 190.96 115.12 191.31 115.71 191.66 116.5 192.01 117.29 192.36 118.47 192.71 118.08 193.06 118.28 193.41 120.05 193.76 119.46 194.11 120.25 194.45 118.47 194.8 118.67 195.15 116.5 195.5 116.1 195.85 116.3 196.2 116.3"/>
      </g>
    </g>
  </g>
</g>
  <g class="guide ylabels" font-size="2.82" font-family="'PT Sans Caption','Helvetica Neue','Helvetica',sans-serif" fill="#000000" id="img-c7dc8d70-20">
    <text x="18.63" y="131.11" text-anchor="end" dy="0.35em">0</text>
    <text x="18.63" y="111.36" text-anchor="end" dy="0.35em">100</text>
    <text x="18.63" y="91.61" text-anchor="end" dy="0.35em">200</text>
    <text x="18.63" y="71.86" text-anchor="end" dy="0.35em">300</text>
    <text x="18.63" y="52.11" text-anchor="end" dy="0.35em">400</text>
    <text x="18.63" y="32.36" text-anchor="end" dy="0.35em">500</text>
    <text x="18.63" y="12.61" text-anchor="end" dy="0.35em">600</text>
  </g>
  <g font-size="3.88" font-family="'PT Sans','Helvetica Neue','Helvetica',sans-serif" fill="#000000" stroke="#000000" stroke-opacity="0.000" id="img-c7dc8d70-21">
    <text x="8.81" y="69.86" text-anchor="middle" dy="0.35em" transform="rotate(-90, 8.81, 71.86)">population number</text>
  </g>
  <g font-size="3.88" font-family="'PT Sans','Helvetica Neue','Helvetica',sans-serif" fill="#000000" stroke="#000000" stroke-opacity="0.000" id="img-c7dc8d70-22">
    <text x="108.92" y="5" text-anchor="middle" dy="0.6em">genetic drift</text>
  </g>
</g>
<defs>
  <clipPath id="img-c7dc8d70-4">
  <path d="M19.63,10.61 L 198.2 10.61 198.2 133.11 19.63 133.11" />
</clipPath>
</defs>
</svg>
