<?xml version="1.0" encoding="UTF-8"?>
<svg xmlns="http://www.w3.org/2000/svg"
     xmlns:xlink="http://www.w3.org/1999/xlink"
     xmlns:gadfly="http://www.gadflyjl.org/ns"
     version="1.2"
     width="203.2mm" height="152.4mm" viewBox="0 0 203.2 152.4"
     stroke="none"
     fill="#000000"
     stroke-width="0.3"
     font-size="3.88"
>
<g class="plotroot xscalable yscalable" id="img-01e40421-1">
  <g font-size="3.88" font-family="'PT Sans','Helvetica Neue','Helvetica',sans-serif" fill="#000000" stroke="#000000" stroke-opacity="0.000" id="img-01e40421-2">
    <text x="108.92" y="140.79" text-anchor="middle" dy="0.6em">generation number</text>
  </g>
  <g class="guide xlabels" font-size="2.82" font-family="'PT Sans Caption','Helvetica Neue','Helvetica',sans-serif" fill="#000000" id="img-01e40421-3">
    <text x="21.63" y="134.11" text-anchor="middle" dy="0.6em">0</text>
    <text x="56.55" y="134.11" text-anchor="middle" dy="0.6em">100</text>
    <text x="91.46" y="134.11" text-anchor="middle" dy="0.6em">200</text>
    <text x="126.37" y="134.11" text-anchor="middle" dy="0.6em">300</text>
    <text x="161.29" y="134.11" text-anchor="middle" dy="0.6em">400</text>
    <text x="196.2" y="134.11" text-anchor="middle" dy="0.6em">500</text>
  </g>
<g clip-path="url(#img-01e40421-4)">
  <g id="img-01e40421-5">
    <g pointer-events="visible" opacity="1" fill="#FFFFFF" stroke="#000000" stroke-opacity="0.000" class="guide background" id="img-01e40421-6">
      <rect x="19.63" y="10.61" width="178.57" height="122.5"/>
    </g>
    <g class="guide ygridlines xfixed" stroke-dasharray="0.5,0.5" stroke-width="0.2" stroke="#808080" id="img-01e40421-7">
      <path fill="none" d="M19.63,131.11 L 198.2 131.11"/>
      <path fill="none" d="M19.63,91.61 L 198.2 91.61"/>
      <path fill="none" d="M19.63,52.11 L 198.2 52.11"/>
      <path fill="none" d="M19.63,12.61 L 198.2 12.61"/>
    </g>
    <g class="guide xgridlines yfixed" stroke-dasharray="0.5,0.5" stroke-width="0.2" stroke="#808080" id="img-01e40421-8">
      <path fill="none" d="M21.63,10.61 L 21.63 133.11"/>
      <path fill="none" d="M56.55,10.61 L 56.55 133.11"/>
      <path fill="none" d="M91.46,10.61 L 91.46 133.11"/>
      <path fill="none" d="M126.37,10.61 L 126.37 133.11"/>
      <path fill="none" d="M161.29,10.61 L 161.29 133.11"/>
      <path fill="none" d="M196.2,10.61 L 196.2 133.11"/>
    </g>
    <g class="plotpanel" id="img-01e40421-9">
      <g stroke-width="0.3" fill="#000000" fill-opacity="0.000" class="geometry" stroke-dasharray="none" stroke="#3288BD" id="img-01e40421-10">
        <path fill="none" d="M21.98,71.86 L 22.33 67.12 22.68 68.31 23.03 63.96 23.38 64.75 23.73 66.33 24.08 64.36 24.42 63.96 24.77 59.22 25.12 57.64 25.47 58.83 25.82 57.25 26.17 62.78 26.52 60.8 26.87 60.8 27.22 57.25 27.57 61.99 27.92 62.38 28.27 61.59 28.61 68.31 28.96 63.17 29.31 61.2 29.66 62.78 30.01 66.73 30.36 65.54 30.71 67.52 31.06 67.12 31.41 74.23 31.76 69.89 32.11 63.57 32.45 65.15 32.8 64.75 33.15 74.23 33.5 80.55 33.85 83.32 34.2 81.34 34.55 83.71 34.9 81.74 35.25 77.39 35.6 82.13 35.95 84.5 36.3 80.16 36.64 76.21 36.99 73.05 37.34 74.23 37.69 77.39 38.04 78.18 38.39 79.37 38.74 79.37 39.09 78.58 39.44 82.53 39.79 78.18 40.14 76.6 40.49 75.81 40.83 73.44 41.18 79.76 41.53 81.34 41.88 82.92 42.23 81.74 42.58 82.92 42.93 87.27 43.28 93.98 43.63 91.61 43.98 93.19 44.33 93.19 44.67 97.54 45.02 95.96 45.37 93.59 45.72 92.8 46.07 86.48 46.42 90.43 46.77 90.03 47.12 92.01 47.47 95.96 47.82 94.77 48.17 86.08 48.52 86.48 48.86 84.11 49.21 79.37 49.56 79.37 49.91 77.79 50.26 78.97 50.61 78.58 50.96 78.97 51.31 83.71 51.66 86.08 52.01 85.69 52.36 83.32 52.7 87.66 53.05 87.27 53.4 86.08 53.75 85.29 54.1 88.45 54.45 84.11 54.8 86.08 55.15 81.34 55.5 81.74 55.85 86.87 56.2 86.08 56.55 80.55 56.89 78.18 57.24 75.81 57.59 73.05 57.94 69.49 58.29 68.7 58.64 68.7 58.99 71.07 59.34 69.89 59.69 73.44 60.04 74.23 60.39 79.76 60.73 78.18 61.08 71.86 61.43 69.49 61.78 70.68 62.13 70.28 62.48 72.26 62.83 73.44 63.18 70.68 63.53 71.07 63.88 72.65 64.23 66.73 64.58 69.89 64.92 71.07 65.27 69.89 65.62 68.7 65.97 61.59 66.32 57.64 66.67 54.88 67.02 52.11 67.37 48.56 67.72 45.4 68.07 43.42 68.42 40.26 68.77 41.84 69.11 44.21 69.46 44.61 69.81 41.84 70.16 41.45 70.51 39.08 70.86 40.66 71.21 46.19 71.56 45.79 71.91 50.14 72.26 47.77 72.61 48.16 72.95 55.67 73.3 54.09 73.65 52.9 74 57.64 74.35 57.25 74.7 60.41 75.05 60.41 75.4 59.62 75.75 60.41 76.1 62.78 76.45 60.41 76.8 56.06 77.14 57.64 77.49 61.2 77.84 65.54 78.19 62.38 78.54 60.8 78.89 65.94 79.24 63.57 79.59 67.52 79.94 69.49 80.29 68.7 80.64 66.73 80.98 62.78 81.33 60.41 81.68 59.62 82.03 63.17 82.38 61.59 82.73 54.88 83.08 49.74 83.43 54.88 83.78 54.88 84.13 56.46 84.48 54.09 84.83 57.25 85.17 56.85 85.52 60.8 85.87 65.15 86.22 59.62 86.57 56.06 86.92 55.27 87.27 61.2 87.62 61.99 87.97 56.85 88.32 57.25 88.67 55.27 89.02 53.69 89.36 57.25 89.71 56.06 90.06 56.85 90.41 61.2 90.76 59.22 91.11 61.2 91.46 64.36 91.81 60.41 92.16 56.46 92.51 52.11 92.86 53.69 93.2 50.53 93.55 46.19 93.9 45 94.25 40.66 94.6 35.52 94.95 32.76 95.3 31.18 95.65 33.15 96 35.52 96.35 33.94 96.7 33.55 97.05 35.92 97.39 33.94 97.74 34.73 98.09 41.05 98.44 42.24 98.79 42.63 99.14 42.24 99.49 37.1 99.84 38.29 100.19 33.94 100.54 37.89 100.89 38.29 101.23 43.03 101.58 45.4 101.93 45.4 102.28 43.42 102.63 41.84 102.98 45 103.33 48.56 103.68 49.74 104.03 48.95 104.38 50.14 104.73 46.58 105.08 47.77 105.42 46.58 105.77 47.77 106.12 41.84 106.47 39.87 106.82 37.89 107.17 36.31 107.52 31.97 107.87 37.1 108.22 38.29 108.57 41.05 108.92 41.45 109.26 43.42 109.61 45 109.96 46.98 110.31 54.48 110.66 52.11 111.01 54.09 111.36 55.67 111.71 49.74 112.06 56.06 112.41 58.04 112.76 54.48 113.11 50.93 113.45 50.14 113.8 42.24 114.15 41.05 114.5 39.47 114.85 37.1 115.2 38.29 115.55 31.57 115.9 32.36 116.25 30.78 116.6 33.15 116.95 35.52 117.3 35.13 117.64 33.15 117.99 32.36 118.34 30.39 118.69 37.1 119.04 35.52 119.39 33.15 119.74 32.76 120.09 33.15 120.44 31.57 120.79 33.15 121.14 37.5 121.48 37.89 121.83 41.05 122.18 42.63 122.53 43.03 122.88 44.21 123.23 52.11 123.58 52.9 123.93 51.72 124.28 49.74 124.63 46.58 124.98 42.63 125.33 37.89 125.67 33.94 126.02 33.55 126.37 38.68 126.72 39.87 127.07 33.55 127.42 39.47 127.77 42.63 128.12 45 128.47 46.58 128.82 44.21 129.17 48.95 129.51 46.58 129.86 43.82 130.21 39.47 130.56 40.26 130.91 38.29 131.26 43.82 131.61 43.03 131.96 44.61 132.31 44.61 132.66 41.45 133.01 42.63 133.36 40.26 133.7 37.89 134.05 40.26 134.4 35.92 134.75 37.1 135.1 41.05 135.45 42.24 135.8 41.05 136.15 41.05 136.5 39.08 136.85 37.89 137.2 40.26 137.55 43.03 137.89 49.74 138.24 51.32 138.59 46.58 138.94 45.4 139.29 45.79 139.64 47.77 139.99 49.35 140.34 54.48 140.69 52.51 141.04 54.48 141.39 60.01 141.73 63.17 142.08 67.52 142.43 71.47 142.78 70.68 143.13 72.65 143.48 72.65 143.83 74.63 144.18 75.81 144.53 73.44 144.88 74.23 145.23 72.65 145.58 66.73 145.92 70.68 146.27 73.44 146.62 70.28 146.97 74.23 147.32 74.63 147.67 76.21 148.02 75.81 148.37 78.58 148.72 84.5 149.07 82.92 149.42 82.53 149.76 77.79 150.11 83.71 150.46 82.13 150.81 82.92 151.16 84.5 151.51 83.32 151.86 84.11 152.21 82.53 152.56 81.74 152.91 68.7 153.26 69.49 153.61 73.44 153.95 75.42 154.3 76.21 154.65 79.37 155 77.39 155.35 80.16 155.7 80.16 156.05 81.74 156.4 80.55 156.75 78.58 157.1 77.79 157.45 83.71 157.79 81.74 158.14 82.13 158.49 75.42 158.84 74.23 159.19 75.02 159.54 74.63 159.89 72.26 160.24 71.47 160.59 77 160.94 74.63 161.29 73.84 161.64 70.68 161.98 71.07 162.33 70.28 162.68 75.42 163.03 71.07 163.38 70.68 163.73 69.89 164.08 69.49 164.43 67.52 164.78 63.96 165.13 65.15 165.48 61.99 165.83 59.62 166.17 59.62 166.52 60.41 166.87 63.17 167.22 67.12 167.57 67.52 167.92 65.54 168.27 64.36 168.62 65.54 168.97 62.38 169.32 67.12 169.67 69.49 170.01 72.65 170.36 72.65 170.71 73.84 171.06 72.65 171.41 73.84 171.76 70.28 172.11 71.86 172.46 77.79 172.81 78.18 173.16 80.95 173.51 80.95 173.86 75.02 174.2 77 174.55 80.16 174.9 77.39 175.25 73.44 175.6 78.97 175.95 79.37 176.3 80.95 176.65 80.16 177 82.92 177.35 81.34 177.7 78.97 178.04 78.18 178.39 79.76 178.74 78.97 179.09 82.13 179.44 82.13 179.79 83.32 180.14 81.34 180.49 84.11 180.84 81.34 181.19 84.11 181.54 90.43 181.89 96.75 182.23 95.56 182.58 93.19 182.93 91.22 183.28 94.77 183.63 94.38 183.98 97.14 184.33 101.49 184.68 101.09 185.03 105.83 185.38 107.41 185.73 103.86 186.08 98.72 186.42 98.72 186.77 101.09 187.12 103.46 187.47 105.83 187.82 103.07 188.17 99.91 188.52 103.07 188.87 110.18 189.22 110.57 189.57 112.15 189.92 112.55 190.26 112.15 190.61 112.94 190.96 110.18 191.31 109.39 191.66 108.6 192.01 107.81 192.36 111.36 192.71 108.6 193.06 108.6 193.41 106.23 193.76 105.44 194.11 102.67 194.45 101.09 194.8 99.51 195.15 98.72 195.5 101.49 195.85 101.88 196.2 101.09"/>
      </g>
      <g stroke-width="0.3" fill="#000000" fill-opacity="0.000" class="geometry" stroke-dasharray="none" stroke="#66C2A5" id="img-01e40421-11">
        <path fill="none" d="M21.98,71.86 L 22.33 75.02 22.68 69.1 23.03 67.91 23.38 66.73 23.73 71.47 24.08 69.49 24.42 73.05 24.77 68.31 25.12 69.89 25.47 70.68 25.82 65.54 26.17 63.17 26.52 62.38 26.87 60.01 27.22 63.17 27.57 64.36 27.92 70.28 28.27 71.07 28.61 68.31 28.96 72.26 29.31 75.02 29.66 75.81 30.01 75.42 30.36 78.97 30.71 75.81 31.06 74.63 31.41 73.44 31.76 71.07 32.11 72.65 32.45 68.7 32.8 71.07 33.15 66.73 33.5 70.68 33.85 69.1 34.2 65.94 34.55 60.01 34.9 58.43 35.25 58.83 35.6 63.17 35.95 67.52 36.3 65.15 36.64 64.36 36.99 68.31 37.34 67.52 37.69 78.18 38.04 77 38.39 76.6 38.74 75.42 39.09 72.26 39.44 70.68 39.79 72.26 40.14 69.49 40.49 72.65 40.83 78.58 41.18 80.16 41.53 82.92 41.88 84.9 42.23 84.11 42.58 83.71 42.93 86.08 43.28 89.64 43.63 90.43 43.98 88.06 44.33 86.87 44.67 84.11 45.02 81.74 45.37 83.71 45.72 80.95 46.07 81.34 46.42 75.81 46.77 77.79 47.12 82.13 47.47 82.53 47.82 81.34 48.17 80.55 48.52 80.95 48.86 80.16 49.21 82.53 49.56 86.08 49.91 88.06 50.26 82.53 50.61 84.9 50.96 80.16 51.31 75.81 51.66 71.47 52.01 77 52.36 74.63 52.7 79.37 53.05 77.79 53.4 78.18 53.75 75.81 54.1 77.79 54.45 80.55 54.8 77.79 55.15 73.84 55.5 67.91 55.85 63.57 56.2 65.54 56.55 64.36 56.89 71.07 57.24 76.21 57.59 74.23 57.94 74.23 58.29 67.52 58.64 65.15 58.99 71.47 59.34 71.86 59.69 72.26 60.04 69.49 60.39 65.94 60.73 65.54 61.08 63.17 61.43 70.28 61.78 72.26 62.13 69.49 62.48 71.07 62.83 70.28 63.18 65.15 63.53 69.1 63.88 73.44 64.23 68.31 64.58 64.75 64.92 67.52 65.27 63.17 65.62 64.36 65.97 65.54 66.32 67.91 66.67 69.1 67.02 69.1 67.37 64.75 67.72 64.36 68.07 65.54 68.42 66.73 68.77 69.1 69.11 60.41 69.46 60.41 69.81 60.01 70.16 59.22 70.51 58.43 70.86 58.43 71.21 56.85 71.56 52.51 71.91 54.88 72.26 53.3 72.61 55.67 72.95 56.85 73.3 54.88 73.65 48.16 74 48.95 74.35 46.58 74.7 47.37 75.05 46.58 75.4 45 75.75 41.05 76.1 45 76.45 43.03 76.8 41.05 77.14 35.52 77.49 31.18 77.84 31.97 78.19 32.36 78.54 35.13 78.89 37.1 79.24 38.29 79.59 34.34 79.94 35.13 80.29 34.73 80.64 32.76 80.98 30.78 81.33 29.99 81.68 31.57 82.03 27.62 82.38 26.83 82.73 28.81 83.08 26.04 83.43 23.67 83.78 26.04 84.13 26.04 84.48 22.49 84.83 25.25 85.17 28.81 85.52 29.6 85.87 30.39 86.22 29.99 86.57 28.81 86.92 31.57 87.27 31.18 87.62 31.57 87.97 33.55 88.32 34.34 88.67 29.99 89.02 35.13 89.36 36.71 89.71 33.94 90.06 29.2 90.41 32.36 90.76 30.39 91.11 29.2 91.46 26.44 91.81 28.81 92.16 29.2 92.51 31.18 92.86 29.2 93.2 28.41 93.55 31.57 93.9 29.99 94.25 31.57 94.6 30.39 94.95 28.41 95.3 28.41 95.65 29.99 96 29.6 96.35 28.02 96.7 29.2 97.05 28.81 97.39 29.6 97.74 28.41 98.09 29.99 98.44 27.23 98.79 24.07 99.14 28.02 99.49 26.44 99.84 26.04 100.19 23.28 100.54 24.86 100.89 29.99 101.23 27.23 101.58 26.83 101.93 22.09 102.28 22.88 102.63 24.07 102.98 24.07 103.33 26.83 103.68 28.41 104.03 28.81 104.38 28.02 104.73 30.39 105.08 28.81 105.42 30.39 105.77 24.86 106.12 22.49 106.47 18.14 106.82 20.91 107.17 21.3 107.52 20.91 107.87 23.67 108.22 22.09 108.57 23.67 108.92 22.09 109.26 21.3 109.61 21.3 109.96 21.7 110.31 21.7 110.66 18.54 111.01 16.17 111.36 15.38 111.71 14.98 112.06 13.8 112.41 13.4 112.76 12.61"/>
      </g>
      <g stroke-width="0.3" fill="#000000" fill-opacity="0.000" class="geometry" stroke-dasharray="none" stroke="#ABDDA4" id="img-01e40421-12">
        <path fill="none" d="M21.98,71.86 L 22.33 78.18 22.68 77.39 23.03 77 23.38 67.52 23.73 71.86 24.08 73.44 24.42 76.21 24.77 78.58 25.12 77 25.47 75.81 25.82 73.84 26.17 73.84 26.52 73.44 26.87 78.18 27.22 77.39 27.57 77.39 27.92 78.97 28.27 82.13 28.61 80.16 28.96 81.34 29.31 81.74 29.66 82.53 30.01 82.92 30.36 84.5 30.71 85.69 31.06 82.53 31.41 85.69 31.76 84.9 32.11 93.19 32.45 95.96 32.8 98.72 33.15 97.54 33.5 99.91 33.85 103.86 34.2 107.81 34.55 105.83 34.9 109.39 35.25 107.41 35.6 110.97 35.95 112.94 36.3 113.73 36.64 113.34 36.99 116.5 37.34 114.92 37.69 114.52 38.04 116.5 38.39 116.1 38.74 112.94 39.09 118.08 39.44 120.05 39.79 120.05 40.14 122.82 40.49 122.82 40.83 121.63 41.18 119.66 41.53 118.47 41.88 117.29 42.23 118.08 42.58 118.47 42.93 120.05 43.28 122.42 43.63 121.63 43.98 119.66 44.33 120.45 44.67 121.24 45.02 119.26 45.37 119.26 45.72 117.29 46.07 113.73 46.42 114.13 46.77 116.89 47.12 117.68 47.47 117.29 47.82 115.71 48.17 111.76 48.52 114.52 48.86 112.15 49.21 109.39 49.56 111.36 49.91 106.62 50.26 110.97 50.61 108.2 50.96 110.57 51.31 110.57 51.66 107.41 52.01 110.97 52.36 110.97 52.7 113.73 53.05 107.81 53.4 105.04 53.75 103.46 54.1 101.49 54.45 102.28 54.8 102.28 55.15 102.67 55.5 106.23 55.85 109.78 56.2 107.81 56.55 104.65 56.89 103.86 57.24 106.62 57.59 103.86 57.94 108.2 58.29 109.39 58.64 106.23 58.99 104.65 59.34 103.86 59.69 104.25 60.04 108.2 60.39 111.36 60.73 112.55 61.08 108.99 61.43 101.88 61.78 103.07 62.13 96.75 62.48 96.35 62.83 93.19 63.18 86.48 63.53 86.08 63.88 81.74 64.23 82.53 64.58 88.06 64.92 84.5 65.27 84.9 65.62 84.11 65.97 80.95 66.32 78.18 66.67 67.91 67.02 69.49 67.37 72.26 67.72 72.65 68.07 73.84 68.42 72.65 68.77 68.7 69.11 65.54 69.46 64.36 69.81 65.15 70.16 67.12 70.51 70.28 70.86 72.26 71.21 72.26 71.56 71.47 71.91 72.65 72.26 69.1 72.61 70.68 72.95 67.12 73.3 65.54 73.65 64.75 74 63.96 74.35 64.36 74.7 64.75 75.05 58.83 75.4 60.01 75.75 55.27 76.1 58.83 76.45 52.11 76.8 57.64 77.14 55.67 77.49 57.25 77.84 55.27 78.19 56.85 78.54 55.67 78.89 51.72 79.24 52.11 79.59 53.3 79.94 52.9 80.29 47.77 80.64 46.58 80.98 45.79 81.33 45.4 81.68 47.37 82.03 51.32 82.38 51.72 82.73 50.53 83.08 56.85 83.43 59.22 83.78 58.04 84.13 56.46 84.48 53.3 84.83 51.72 85.17 51.32 85.52 52.11 85.87 56.46 86.22 58.04 86.57 54.09 86.92 56.06 87.27 54.48 87.62 53.3 87.97 54.88 88.32 54.88 88.67 53.69 89.02 56.06 89.36 56.06 89.71 57.25 90.06 57.25 90.41 55.27 90.76 56.46 91.11 62.38 91.46 63.96 91.81 61.59 92.16 62.78 92.51 63.17 92.86 63.57 93.2 64.36 93.55 59.62 93.9 66.33 94.25 65.15 94.6 61.99 94.95 60.8 95.3 63.17 95.65 60.8 96 53.69 96.35 50.93 96.7 50.14 97.05 50.14 97.39 51.72 97.74 52.51 98.09 51.32 98.44 45.4 98.79 48.16 99.14 54.48 99.49 58.43 99.84 59.22 100.19 58.83 100.54 61.59 100.89 64.36 101.23 65.54 101.58 61.59 101.93 67.91 102.28 67.91 102.63 68.7 102.98 71.07 103.33 69.1 103.68 67.12 104.03 68.31 104.38 66.73 104.73 64.75 105.08 65.94 105.42 65.94 105.77 62.38 106.12 66.73 106.47 60.01 106.82 63.17 107.17 67.91 107.52 64.75 107.87 65.54 108.22 65.94 108.57 71.07 108.92 70.68 109.26 74.23 109.61 76.6 109.96 80.16 110.31 79.76 110.66 82.92 111.01 80.16 111.36 78.18 111.71 77 112.06 75.81 112.41 69.49 112.76 68.7 113.11 75.81 113.45 67.91 113.8 69.49 114.15 66.73 114.5 68.7 114.85 67.12 115.2 70.28 115.55 71.47 115.9 71.07 116.25 71.07 116.6 73.44 116.95 77.39 117.3 80.16 117.64 78.18 117.99 78.18 118.34 80.16 118.69 78.18 119.04 75.81 119.39 73.84 119.74 73.44 120.09 72.26 120.44 73.84 120.79 71.47 121.14 75.02 121.48 74.23 121.83 76.21 122.18 73.05 122.53 66.33 122.88 63.96 123.23 65.94 123.58 64.75 123.93 67.12 124.28 64.36 124.63 60.8 124.98 63.57 125.33 59.62 125.67 53.3 126.02 60.41 126.37 59.62 126.72 60.01 127.07 54.48 127.42 54.09 127.77 54.09 128.12 53.3 128.47 55.67 128.82 55.67 129.17 58.43 129.51 59.22 129.86 58.04 130.21 63.17 130.56 64.75 130.91 62.78 131.26 62.78 131.61 64.75 131.96 58.04 132.31 58.04 132.66 63.57 133.01 68.7 133.36 66.73 133.7 60.8 134.05 59.62 134.4 58.83 134.75 52.51 135.1 54.48 135.45 52.51 135.8 56.85 136.15 60.41 136.5 61.59 136.85 68.31 137.2 67.91 137.55 64.36 137.89 64.75 138.24 63.96 138.59 70.68 138.94 72.26 139.29 71.07 139.64 66.33 139.99 69.1 140.34 75.81 140.69 78.18 141.04 78.58 141.39 77.79 141.73 78.18 142.08 77.39 142.43 79.37 142.78 82.13 143.13 82.92 143.48 87.66 143.83 83.32 144.18 83.71 144.53 82.13 144.88 83.71 145.23 83.32 145.58 83.32 145.92 84.11 146.27 78.58 146.62 78.97 146.97 77.39 147.32 82.13 147.67 82.92 148.02 79.76 148.37 80.16 148.72 80.95 149.07 77.79 149.42 82.13 149.76 79.37 150.11 82.92 150.46 81.34 150.81 80.95 151.16 78.97 151.51 71.07 151.86 71.07 152.21 67.12 152.56 68.31 152.91 70.28 153.26 71.07 153.61 73.05 153.95 74.63 154.3 73.84 154.65 75.02 155 76.6 155.35 73.84 155.7 71.07 156.05 78.58 156.4 83.71 156.75 88.85 157.1 90.82 157.45 93.59 157.79 95.96 158.14 100.7 158.49 103.86 158.84 99.51 159.19 101.09 159.54 103.07 159.89 101.49 160.24 99.51 160.59 105.44 160.94 104.25 161.29 105.44 161.64 99.51 161.98 101.49 162.33 102.67 162.68 99.51 163.03 97.93 163.38 95.96 163.73 100.3 164.08 97.54 164.43 94.38 164.78 93.98 165.13 95.96 165.48 97.93 165.83 97.54 166.17 95.96 166.52 93.59 166.87 93.19 167.22 91.61 167.57 91.61 167.92 95.96 168.27 96.75 168.62 100.3 168.97 97.93 169.32 101.88 169.67 105.44 170.01 106.62 170.36 109.78 170.71 112.15 171.06 110.97 171.41 108.6 171.76 108.6 172.11 107.81 172.46 106.62 172.81 105.83 173.16 105.83 173.51 107.81 173.86 107.41 174.2 107.41 174.55 113.34 174.9 113.34 175.25 114.52 175.6 117.29 175.95 117.29 176.3 118.08 176.65 120.84 177 119.26 177.35 119.26 177.7 117.29 178.04 118.47 178.39 120.05 178.74 118.87 179.09 120.05 179.44 123.61 179.79 123.61 180.14 124.4 180.49 126.77 180.84 127.95 181.19 127.95 181.54 128.35 181.89 129.14 182.23 129.14 182.58 130.32 182.93 130.32 183.28 130.72 183.63 131.11"/>
      </g>
      <g stroke-width="0.3" fill="#000000" fill-opacity="0.000" class="geometry" stroke-dasharray="none" stroke="#E6F598" id="img-01e40421-13">
        <path fill="none" d="M21.98,71.86 L 22.33 68.31 22.68 64.36 23.03 60.41 23.38 63.17 23.73 64.36 24.08 65.54 24.42 62.38 24.77 64.36 25.12 64.75 25.47 61.2 25.82 60.8 26.17 58.43 26.52 59.22 26.87 60.41 27.22 59.62 27.57 56.85 27.92 55.27 28.27 56.46 28.61 58.43 28.96 56.06 29.31 51.32 29.66 45.4 30.01 43.82 30.36 36.71 30.71 37.5 31.06 39.47 31.41 40.26 31.76 41.45 32.11 39.08 32.45 41.45 32.8 40.26 33.15 43.03 33.5 39.08 33.85 38.68 34.2 35.13 34.55 32.36 34.9 31.57 35.25 36.31 35.6 39.47 35.95 39.87 36.3 35.52 36.64 33.94 36.99 30.78 37.34 30.78 37.69 31.18 38.04 31.97 38.39 31.18 38.74 34.34 39.09 29.2 39.44 28.81 39.79 28.81 40.14 26.04 40.49 26.44 40.83 27.23 41.18 22.09 41.53 22.49 41.88 19.33 42.23 19.33 42.58 20.12 42.93 20.91 43.28 20.91 43.63 19.33 43.98 17.75 44.33 19.72 44.67 18.14 45.02 17.35 45.37 15.38 45.72 15.38 46.07 15.38 46.42 14.59 46.77 14.19 47.12 13.8 47.47 13.4 47.82 12.61"/>
      </g>
      <g stroke-width="0.3" fill="#000000" fill-opacity="0.000" class="geometry" stroke-dasharray="none" stroke="#FFFFBF" id="img-01e40421-14">
        <path fill="none" d="M21.98,71.86 L 22.33 76.21 22.68 78.97 23.03 78.97 23.38 75.02 23.73 77 24.08 79.37 24.42 78.18 24.77 78.97 25.12 79.76 25.47 83.32 25.82 90.82 26.17 88.45 26.52 90.03 26.87 85.69 27.22 86.48 27.57 88.06 27.92 86.87 28.27 89.24 28.61 91.22 28.96 93.19 29.31 94.77 29.66 97.14 30.01 94.38 30.36 89.64 30.71 96.35 31.06 100.3 31.41 98.33 31.76 93.19 32.11 89.24 32.45 89.24 32.8 85.69 33.15 86.87 33.5 88.85 33.85 85.69 34.2 84.9 34.55 79.37 34.9 83.71 35.25 87.66 35.6 84.11 35.95 84.9 36.3 88.45 36.64 85.69 36.99 90.82 37.34 80.55 37.69 72.26 38.04 77.39 38.39 77.79 38.74 72.65 39.09 75.02 39.44 82.92 39.79 83.71 40.14 84.9 40.49 86.48 40.83 86.48 41.18 81.74 41.53 77.79 41.88 78.97 42.23 78.97 42.58 79.76 42.93 81.34 43.28 77.79 43.63 73.84 43.98 73.84 44.33 70.28 44.67 73.44 45.02 71.47 45.37 71.86 45.72 75.42 46.07 74.63 46.42 80.95 46.77 80.95 47.12 79.76 47.47 75.42 47.82 74.63 48.17 74.23 48.52 82.92 48.86 82.92 49.21 80.95 49.56 82.53 49.91 79.37 50.26 84.11 50.61 77.79 50.96 80.55 51.31 79.37 51.66 82.53 52.01 77.39 52.36 76.21 52.7 79.37 53.05 77.79 53.4 73.44 53.75 78.18 54.1 80.95 54.45 81.74 54.8 82.92 55.15 83.71 55.5 85.69 55.85 83.71 56.2 80.95 56.55 81.74 56.89 78.97 57.24 79.37 57.59 80.16 57.94 86.48 58.29 86.48 58.64 87.27 58.99 92.4 59.34 90.43 59.69 87.27 60.04 82.13 60.39 81.34 60.73 78.18 61.08 77.79 61.43 77.79 61.78 78.97 62.13 76.21 62.48 78.18 62.83 77.39 63.18 81.34 63.53 79.37 63.88 77 64.23 80.95 64.58 77 64.92 78.58 65.27 78.58 65.62 78.97 65.97 71.07 66.32 68.7 66.67 71.47 67.02 70.28 67.37 71.86 67.72 69.1 68.07 73.44 68.42 73.84 68.77 77 69.11 78.58 69.46 80.95 69.81 79.37 70.16 78.97 70.51 77 70.86 83.32 71.21 85.29 71.56 82.53 71.91 85.69 72.26 83.32 72.61 82.13 72.95 80.16 73.3 86.08 73.65 84.11 74 87.66 74.35 87.66 74.7 86.87 75.05 85.69 75.4 86.87 75.75 86.08 76.1 85.29 76.45 88.45 76.8 84.9 77.14 87.27 77.49 87.27 77.84 87.66 78.19 86.08 78.54 88.45 78.89 86.08 79.24 87.66 79.59 90.03 79.94 90.03 80.29 90.43 80.64 88.45 80.98 93.59 81.33 90.43 81.68 95.17 82.03 96.35 82.38 101.88 82.73 103.07 83.08 101.88 83.43 99.12 83.78 99.12 84.13 101.88 84.48 101.88 84.83 103.86 85.17 101.88 85.52 102.28 85.87 102.67 86.22 104.25 86.57 106.23 86.92 108.2 87.27 108.6 87.62 108.99 87.97 116.5 88.32 114.92 88.67 115.31 89.02 114.13 89.36 108.99 89.71 113.73 90.06 115.71 90.41 115.71 90.76 121.24 91.11 121.24 91.46 123.21 91.81 123.21 92.16 124.79 92.51 124 92.86 125.98 93.2 128.35 93.55 128.35 93.9 129.53 94.25 129.93 94.6 129.93 94.95 130.32 95.3 130.32 95.65 130.32 96 129.53 96.35 129.93 96.7 129.14 97.05 129.53 97.39 129.14 97.74 129.93 98.09 129.53 98.44 129.93 98.79 130.32 99.14 130.32 99.49 129.93 99.84 129.93 100.19 130.32 100.54 131.11"/>
      </g>
      <g stroke-width="0.3" fill="#000000" fill-opacity="0.000" class="geometry" stroke-dasharray="none" stroke="#FEE08B" id="img-01e40421-15">
        <path fill="none" d="M21.98,71.86 L 22.33 69.89 22.68 70.28 23.03 74.23 23.38 72.26 23.73 69.1 24.08 68.31 24.42 69.49 24.77 65.15 25.12 62.38 25.47 62.38 25.82 61.99 26.17 58.43 26.52 56.06 26.87 52.9 27.22 50.14 27.57 48.95 27.92 46.58 28.27 49.35 28.61 51.32 28.96 58.83 29.31 57.64 29.66 60.01 30.01 56.06 30.36 61.2 30.71 65.15 31.06 67.91 31.41 62.38 31.76 62.78 32.11 61.99 32.45 58.83 32.8 56.06 33.15 54.48 33.5 64.36 33.85 62.38 34.2 61.2 34.55 60.01 34.9 58.83 35.25 63.17 35.6 61.2 35.95 61.2 36.3 60.41 36.64 65.15 36.99 63.17 37.34 59.22 37.69 62.78 38.04 67.52 38.39 69.89 38.74 69.1 39.09 63.57 39.44 66.73 39.79 68.7 40.14 63.96 40.49 66.33 40.83 59.62 41.18 61.99 41.53 60.01 41.88 61.2 42.23 62.78 42.58 64.75 42.93 64.36 43.28 61.2 43.63 65.54 43.98 65.94 44.33 64.75 44.67 63.17 45.02 63.57 45.37 63.96 45.72 67.52 46.07 64.75 46.42 71.47 46.77 76.21 47.12 75.02 47.47 75.02 47.82 71.47 48.17 66.33 48.52 66.33 48.86 66.33 49.21 64.75 49.56 65.15 49.91 69.49 50.26 71.07 50.61 73.44 50.96 69.49 51.31 64.75 51.66 65.94 52.01 64.75 52.36 60.41 52.7 59.22 53.05 56.85 53.4 61.59 53.75 63.57 54.1 66.73 54.45 66.33 54.8 62.78 55.15 55.67 55.5 54.88 55.85 56.06 56.2 62.78 56.55 66.33 56.89 64.36 57.24 62.38 57.59 58.43 57.94 57.25 58.29 56.85 58.64 57.64 58.99 55.27 59.34 62.78 59.69 63.17 60.04 59.22 60.39 59.62 60.73 57.64 61.08 59.22 61.43 58.83 61.78 58.43 62.13 60.8 62.48 59.62 62.83 62.38 63.18 65.54 63.53 64.75 63.88 65.94 64.23 62.78 64.58 64.75 64.92 67.52 65.27 65.15 65.62 61.2 65.97 61.99 66.32 55.27 66.67 56.85 67.02 54.88 67.37 56.85 67.72 54.09 68.07 50.14 68.42 53.3 68.77 59.62 69.11 55.67 69.46 51.72 69.81 50.53 70.16 50.14 70.51 43.82 70.86 51.32 71.21 58.83 71.56 64.36 71.91 63.96 72.26 58.04 72.61 58.83 72.95 66.33 73.3 70.68 73.65 69.1 74 65.94 74.35 63.57 74.7 68.31 75.05 62.78 75.4 69.49 75.75 69.1 76.1 67.52 76.45 64.75 76.8 66.73 77.14 64.36 77.49 69.49 77.84 62.38 78.19 65.54 78.54 63.57 78.89 73.05 79.24 73.44 79.59 69.89 79.94 69.1 80.29 68.7 80.64 68.31 80.98 68.7 81.33 67.91 81.68 67.12 82.03 68.7 82.38 70.28 82.73 69.89 83.08 71.07 83.43 69.1 83.78 63.17 84.13 58.04 84.48 57.64 84.83 59.62 85.17 57.25 85.52 61.2 85.87 64.36 86.22 57.64 86.57 52.51 86.92 55.67 87.27 60.8 87.62 62.38 87.97 61.2 88.32 59.62 88.67 60.01 89.02 62.38 89.36 59.22 89.71 64.75 90.06 66.73 90.41 66.73 90.76 67.91 91.11 65.54 91.46 64.75 91.81 63.57 92.16 57.25 92.51 58.83 92.86 56.85 93.2 52.51 93.55 54.48 93.9 52.51 94.25 60.01 94.6 57.25 94.95 60.8 95.3 64.36 95.65 64.36 96 69.1 96.35 69.89 96.7 65.54 97.05 65.15 97.39 67.12 97.74 69.89 98.09 73.44 98.44 75.81 98.79 77.79 99.14 80.55 99.49 80.95 99.84 76.21 100.19 78.58 100.54 81.34 100.89 77.79 101.23 77 101.58 84.11 101.93 84.9 102.28 84.11 102.63 88.85 102.98 85.69 103.33 85.29 103.68 88.85 104.03 90.03 104.38 95.17 104.73 97.93 105.08 95.17 105.42 90.82 105.77 94.38 106.12 89.24 106.47 83.32 106.82 82.92 107.17 77.79 107.52 66.33 107.87 64.36 108.22 65.15 108.57 63.96 108.92 62.78 109.26 64.36 109.61 61.99 109.96 62.78 110.31 62.78 110.66 62.78 111.01 56.46 111.36 50.14 111.71 46.58 112.06 45.4 112.41 39.47 112.76 35.13 113.11 40.26 113.45 39.87 113.8 44.21 114.15 46.58 114.5 47.37 114.85 48.56 115.2 45 115.55 45.4 115.9 48.16 116.25 53.3 116.6 52.51 116.95 55.67 117.3 59.62 117.64 58.43 117.99 55.67 118.34 54.09 118.69 53.69 119.04 56.85 119.39 61.99 119.74 51.32 120.09 49.35 120.44 49.74 120.79 50.93 121.14 46.58 121.48 45 121.83 36.71 122.18 35.52 122.53 36.71 122.88 31.18 123.23 29.99 123.58 30.39 123.93 33.15 124.28 32.76 124.63 34.34 124.98 35.92 125.33 38.29 125.67 42.24 126.02 39.87 126.37 41.45 126.72 44.21 127.07 45.79 127.42 46.98 127.77 45.4 128.12 40.66 128.47 40.26 128.82 38.68 129.17 32.76 129.51 26.44 129.86 29.6 130.21 29.2 130.56 25.65 130.91 27.62 131.26 24.46 131.61 25.25 131.96 27.62 132.31 25.65 132.66 24.46 133.01 23.67 133.36 19.72 133.7 18.54 134.05 17.75 134.4 20.12 134.75 18.93 135.1 18.14 135.45 17.75 135.8 14.98 136.15 14.59 136.5 14.98 136.85 14.59 137.2 14.98 137.55 16.17 137.89 15.77 138.24 15.38 138.59 16.17 138.94 15.77 139.29 16.17 139.64 15.77 139.99 15.77 140.34 16.17 140.69 15.77 141.04 15.77 141.39 17.35 141.73 16.96 142.08 16.17 142.43 16.96 142.78 18.14 143.13 18.93 143.48 21.3 143.83 18.14 144.18 17.75 144.53 16.56 144.88 18.14 145.23 18.14 145.58 21.3 145.92 22.09 146.27 24.86 146.62 27.23 146.97 29.2 147.32 31.57 147.67 29.6 148.02 29.2 148.37 33.94 148.72 32.76 149.07 37.1 149.42 39.87 149.76 38.29 150.11 37.5 150.46 40.26 150.81 43.82 151.16 43.82 151.51 42.24 151.86 42.63 152.21 45.4 152.56 43.42 152.91 46.19 153.26 48.16 153.61 43.82 153.95 48.16 154.3 51.72 154.65 54.09 155 50.14 155.35 48.56 155.7 46.19 156.05 40.26 156.4 35.92 156.75 33.94 157.1 34.34 157.45 35.52 157.79 34.34 158.14 33.94 158.49 35.92 158.84 35.52 159.19 34.73 159.54 35.52 159.89 35.92 160.24 35.13 160.59 33.15 160.94 30.39 161.29 32.76 161.64 35.13 161.98 35.13 162.33 33.15 162.68 34.34 163.03 31.97 163.38 35.13 163.73 35.52 164.08 34.73 164.43 32.36 164.78 32.36 165.13 32.36 165.48 30.39 165.83 37.1 166.17 31.57 166.52 28.02 166.87 29.2 167.22 29.99 167.57 28.41 167.92 30.78 168.27 32.76 168.62 29.6 168.97 29.2 169.32 24.46 169.67 22.09 170.01 22.09 170.36 25.25 170.71 27.23 171.06 24.86 171.41 22.88 171.76 27.23 172.11 24.86 172.46 26.44 172.81 26.44 173.16 26.83 173.51 29.6 173.86 26.44 174.2 25.65 174.55 25.25 174.9 24.86 175.25 22.49 175.6 23.28 175.95 24.07 176.3 22.88 176.65 22.49 177 22.88 177.35 22.09 177.7 22.88 178.04 23.67 178.39 22.49 178.74 22.88 179.09 24.86 179.44 27.23 179.79 28.41 180.14 27.62 180.49 26.44 180.84 26.04 181.19 26.44 181.54 27.23 181.89 28.41 182.23 27.62 182.58 28.41 182.93 30.39 183.28 30.39 183.63 31.18 183.98 26.44 184.33 25.65 184.68 26.04 185.03 26.83 185.38 25.65 185.73 24.86 186.08 24.46 186.42 21.7 186.77 21.3 187.12 20.51 187.47 20.51 187.82 18.93 188.17 17.35 188.52 17.75 188.87 17.35 189.22 14.19 189.57 14.98 189.92 14.59 190.26 14.19 190.61 15.77 190.96 13.8 191.31 13.8 191.66 13.4 192.01 14.19 192.36 14.59 192.71 14.98 193.06 14.19 193.41 13.4 193.76 13.01 194.11 13.01 194.45 13.01 194.8 13.8 195.15 13.4 195.5 13.01 195.85 12.61"/>
      </g>
      <g stroke-width="0.3" fill="#000000" fill-opacity="0.000" class="geometry" stroke-dasharray="none" stroke="#FDAE61" id="img-01e40421-16">
        <path fill="none" d="M21.98,71.86 L 22.33 71.07 22.68 71.07 23.03 73.05 23.38 68.31 23.73 71.47 24.08 69.49 24.42 69.49 24.77 71.86 25.12 74.23 25.47 78.18 25.82 67.91 26.17 73.44 26.52 67.91 26.87 70.28 27.22 71.86 27.57 77.79 27.92 77 28.27 75.02 28.61 75.42 28.96 75.42 29.31 74.63 29.66 78.97 30.01 75.42 30.36 81.34 30.71 78.58 31.06 75.02 31.41 76.21 31.76 77.79 32.11 80.16 32.45 76.21 32.8 76.6 33.15 63.96 33.5 60.01 33.85 59.62 34.2 58.83 34.55 63.57 34.9 64.36 35.25 68.31 35.6 71.07 35.95 64.75 36.3 58.43 36.64 54.09 36.99 47.77 37.34 45 37.69 43.03 38.04 43.42 38.39 44.61 38.74 48.95 39.09 53.69 39.44 50.14 39.79 60.41 40.14 60.8 40.49 59.62 40.83 62.78 41.18 69.49 41.53 64.36 41.88 65.94 42.23 63.17 42.58 58.43 42.93 58.43 43.28 57.25 43.63 57.25 43.98 54.88 44.33 55.27 44.67 54.88 45.02 47.37 45.37 49.35 45.72 46.19 46.07 50.14 46.42 48.56 46.77 50.53 47.12 52.51 47.47 52.51 47.82 60.41 48.17 60.41 48.52 59.62 48.86 61.2 49.21 60.41 49.56 64.75 49.91 60.8 50.26 67.52 50.61 62.78 50.96 60.8 51.31 68.7 51.66 67.12 52.01 64.75 52.36 62.78 52.7 63.57 53.05 69.49 53.4 70.28 53.75 71.47 54.1 74.63 54.45 80.16 54.8 75.42 55.15 78.18 55.5 79.76 55.85 81.74 56.2 84.11 56.55 78.18 56.89 75.42 57.24 80.55 57.59 77 57.94 82.13 58.29 80.95 58.64 84.5 58.99 84.5 59.34 88.06 59.69 84.5 60.04 79.37 60.39 80.16 60.73 77.39 61.08 75.42 61.43 69.49 61.78 71.86 62.13 70.28 62.48 70.68 62.83 71.47 63.18 70.28 63.53 71.47 63.88 69.1 64.23 68.31 64.58 68.31 64.92 69.1 65.27 73.84 65.62 75.02 65.97 73.84 66.32 70.28 66.67 71.86 67.02 72.26 67.37 75.81 67.72 71.07 68.07 71.47 68.42 76.6 68.77 78.18 69.11 80.95 69.46 84.5 69.81 78.97 70.16 84.5 70.51 84.11 70.86 78.58 71.21 81.34 71.56 80.55 71.91 82.53 72.26 86.87 72.61 85.69 72.95 87.66 73.3 86.87 73.65 86.08 74 85.29 74.35 91.61 74.7 93.59 75.05 94.38 75.4 94.38 75.75 90.82 76.1 89.24 76.45 86.87 76.8 85.29 77.14 86.87 77.49 85.29 77.84 89.24 78.19 92.01 78.54 92.4 78.89 89.24 79.24 86.48 79.59 83.71 79.94 78.18 80.29 74.63 80.64 74.23 80.98 71.86 81.33 63.57 81.68 68.31 82.03 65.15 82.38 68.31 82.73 65.15 83.08 62.38 83.43 61.2 83.78 59.62 84.13 64.75 84.48 66.33 84.83 74.63 85.17 71.07 85.52 72.65 85.87 69.1 86.22 71.07 86.57 71.07 86.92 70.28 87.27 65.54 87.62 63.17 87.97 63.17 88.32 59.62 88.67 56.46 89.02 48.56 89.36 46.98 89.71 42.63 90.06 45.4 90.41 44.21 90.76 42.63 91.11 44.21 91.46 48.56 91.81 49.35 92.16 50.93 92.51 53.3 92.86 49.74 93.2 52.51 93.55 47.77 93.9 44.61 94.25 49.74 94.6 50.93 94.95 56.85 95.3 58.83 95.65 58.04 96 61.59 96.35 60.41 96.7 59.22 97.05 61.2 97.39 58.43 97.74 60.41 98.09 56.85 98.44 52.9 98.79 49.35 99.14 51.72 99.49 50.53 99.84 48.16 100.19 49.74 100.54 46.98 100.89 46.19 101.23 45.79 101.58 45.79 101.93 43.03 102.28 41.45 102.63 46.19 102.98 46.19 103.33 46.98 103.68 48.56 104.03 49.74 104.38 51.32 104.73 49.74 105.08 47.77 105.42 48.56 105.77 50.14 106.12 48.16 106.47 50.93 106.82 54.48 107.17 54.09 107.52 54.09 107.87 48.56 108.22 45 108.57 48.95 108.92 52.51 109.26 56.46 109.61 56.06 109.96 62.38 110.31 66.73 110.66 71.47 111.01 70.68 111.36 71.07 111.71 71.47 112.06 75.02 112.41 73.84 112.76 74.23 113.11 76.6 113.45 70.28 113.8 74.63 114.15 72.26 114.5 74.23 114.85 70.68 115.2 74.23 115.55 73.44 115.9 71.47 116.25 67.91 116.6 69.89 116.95 70.68 117.3 70.68 117.64 71.07 117.99 69.89 118.34 68.31 118.69 62.78 119.04 63.17 119.39 63.17 119.74 59.22 120.09 62.78 120.44 64.75 120.79 61.99 121.14 61.99 121.48 63.57 121.83 62.78 122.18 61.2 122.53 60.41 122.88 60.01 123.23 60.41 123.58 57.64 123.93 58.04 124.28 58.04 124.63 58.83 124.98 61.2 125.33 65.15 125.67 65.15 126.02 67.12 126.37 69.49 126.72 71.47 127.07 67.91 127.42 69.49 127.77 67.91 128.12 66.73 128.47 67.12 128.82 66.73 129.17 69.1 129.51 68.31 129.86 71.07 130.21 71.86 130.56 72.65 130.91 73.44 131.26 73.05 131.61 71.47 131.96 70.28 132.31 71.47 132.66 75.81 133.01 75.02 133.36 72.65 133.7 74.23 134.05 76.21 134.4 78.18 134.75 82.13 135.1 79.76 135.45 73.44 135.8 74.23 136.15 71.47 136.5 71.86 136.85 78.97 137.2 79.37 137.55 80.95 137.89 79.37 138.24 80.95 138.59 86.87 138.94 92.01 139.29 95.56 139.64 98.33 139.99 98.72 140.34 98.72 140.69 99.12 141.04 100.3 141.39 96.75 141.73 97.93 142.08 99.12 142.43 97.14 142.78 97.54 143.13 95.96 143.48 99.12 143.83 94.77 144.18 92.8 144.53 96.35 144.88 98.33 145.23 100.7 145.58 98.72 145.92 97.14 146.27 96.75 146.62 92.4 146.97 94.77 147.32 93.19 147.67 92.01 148.02 90.82 148.37 85.29 148.72 84.9 149.07 84.5 149.42 82.92 149.76 77 150.11 75.42 150.46 76.6 150.81 82.13 151.16 84.11 151.51 87.27 151.86 82.53 152.21 78.18 152.56 75.42 152.91 75.42 153.26 77 153.61 79.76 153.95 77.79 154.3 80.55 154.65 79.37 155 78.97 155.35 81.74 155.7 85.29 156.05 89.24 156.4 94.77 156.75 92.01 157.1 88.45 157.45 89.64 157.79 90.82 158.14 90.03 158.49 92.01 158.84 93.19 159.19 93.59 159.54 91.61 159.89 97.54 160.24 97.54 160.59 99.51 160.94 103.07 161.29 103.86 161.64 100.7 161.98 105.04 162.33 106.23 162.68 98.72 163.03 99.51 163.38 95.56 163.73 93.19 164.08 94.38 164.43 91.61 164.78 90.43 165.13 88.06 165.48 88.85 165.83 88.06 166.17 88.06 166.52 90.03 166.87 90.03 167.22 89.24 167.57 88.85 167.92 94.38 168.27 90.43 168.62 93.19 168.97 88.85 169.32 86.87 169.67 89.24 170.01 89.24 170.36 88.45 170.71 91.22 171.06 88.45 171.41 85.69 171.76 93.59 172.11 95.56 172.46 90.03 172.81 83.71 173.16 84.5 173.51 82.53 173.86 83.71 174.2 86.48 174.55 86.08 174.9 85.29 175.25 84.5 175.6 86.87 175.95 84.5 176.3 88.45 176.65 87.66 177 88.06 177.35 84.5 177.7 86.87 178.04 86.48 178.39 89.64 178.74 90.03 179.09 91.61 179.44 92.4 179.79 91.22 180.14 92.4 180.49 93.98 180.84 103.46 181.19 105.04 181.54 105.04 181.89 105.04 182.23 109.39 182.58 110.57 182.93 109.78 183.28 111.36 183.63 108.6 183.98 105.44 184.33 104.65 184.68 103.07 185.03 103.46 185.38 103.46 185.73 99.12 186.08 101.88 186.42 99.91 186.77 105.83 187.12 108.6 187.47 105.83 187.82 106.62 188.17 109.78 188.52 108.99 188.87 110.57 189.22 111.76 189.57 110.18 189.92 113.73 190.26 114.13 190.61 114.52 190.96 116.1 191.31 113.73 191.66 112.94 192.01 108.2 192.36 108.6 192.71 108.2 193.06 110.18 193.41 115.71 193.76 114.92 194.11 118.08 194.45 122.03 194.8 122.42 195.15 123.21 195.5 120.84 195.85 122.42 196.2 120.84"/>
      </g>
      <g stroke-width="0.3" fill="#000000" fill-opacity="0.000" class="geometry" stroke-dasharray="none" stroke="#F46D43" id="img-01e40421-17">
        <path fill="none" d="M21.98,71.86 L 22.33 74.23 22.68 75.81 23.03 73.05 23.38 72.26 23.73 70.68 24.08 69.1 24.42 69.49 24.77 67.91 25.12 60.8 25.47 67.12 25.82 67.91 26.17 68.7 26.52 65.94 26.87 66.73 27.22 63.96 27.57 61.99 27.92 64.36 28.27 61.99 28.61 62.78 28.96 60.01 29.31 58.83 29.66 55.27 30.01 54.88 30.36 56.85 30.71 52.51 31.06 52.11 31.41 45.4 31.76 46.58 32.11 46.19 32.45 38.68 32.8 36.71 33.15 35.52 33.5 35.92 33.85 31.97 34.2 30.39 34.55 36.31 34.9 43.42 35.25 46.19 35.6 47.37 35.95 48.16 36.3 46.98 36.64 46.19 36.99 51.72 37.34 52.51 37.69 49.74 38.04 47.77 38.39 55.27 38.74 57.64 39.09 54.48 39.44 54.88 39.79 55.27 40.14 56.85 40.49 55.27 40.83 51.72 41.18 54.48 41.53 52.9 41.88 54.88 42.23 54.09 42.58 54.48 42.93 54.88 43.28 51.32 43.63 47.37 43.98 45 44.33 40.26 44.67 44.21 45.02 54.48 45.37 58.04 45.72 58.83 46.07 65.54 46.42 59.22 46.77 65.15 47.12 65.15 47.47 67.91 47.82 67.91 48.17 67.52 48.52 65.54 48.86 64.36 49.21 60.41 49.56 57.64 49.91 60.8 50.26 69.1 50.61 71.47 50.96 67.52 51.31 67.12 51.66 63.96 52.01 63.96 52.36 60.8 52.7 62.38 53.05 61.59 53.4 60.41 53.75 64.36 54.1 63.57 54.45 63.57 54.8 64.36 55.15 67.52 55.5 61.99 55.85 67.91 56.2 75.81 56.55 72.26 56.89 69.49 57.24 70.68 57.59 65.54 57.94 69.49 58.29 73.05 58.64 73.44 58.99 75.42 59.34 71.07 59.69 65.94 60.04 56.85 60.39 58.83 60.73 60.01 61.08 59.22 61.43 58.43 61.78 58.43 62.13 57.25 62.48 60.8 62.83 61.59 63.18 61.99 63.53 65.94 63.88 62.38 64.23 63.17 64.58 63.17 64.92 68.7 65.27 69.1 65.62 66.33 65.97 69.89 66.32 67.91 66.67 67.12 67.02 66.33 67.37 61.2 67.72 54.48 68.07 55.67 68.42 58.04 68.77 56.06 69.11 55.67 69.46 49.74 69.81 49.74 70.16 51.32 70.51 47.77 70.86 46.98 71.21 47.37 71.56 48.95 71.91 44.21 72.26 46.58 72.61 49.35 72.95 51.32 73.3 52.51 73.65 52.9 74 51.32 74.35 54.48 74.7 57.64 75.05 60.41 75.4 54.48 75.75 58.04 76.1 62.38 76.45 66.33 76.8 66.33 77.14 64.75 77.49 61.99 77.84 59.62 78.19 62.78 78.54 60.8 78.89 58.43 79.24 58.43 79.59 53.69 79.94 57.64 80.29 59.22 80.64 56.06 80.98 52.9 81.33 58.43 81.68 61.59 82.03 61.2 82.38 56.46 82.73 57.64 83.08 53.69 83.43 52.11 83.78 54.88 84.13 50.53 84.48 50.93 84.83 54.88 85.17 56.85 85.52 45 85.87 41.84 86.22 42.63 86.57 45 86.92 45 87.27 49.74 87.62 44.61 87.97 48.56 88.32 51.32 88.67 50.14 89.02 47.37 89.36 45.4 89.71 46.98 90.06 49.74 90.41 51.32 90.76 52.9 91.11 46.19 91.46 46.58 91.81 52.11 92.16 54.09 92.51 49.74 92.86 48.56 93.2 49.35 93.55 53.3 93.9 54.09 94.25 54.09 94.6 57.25 94.95 58.43 95.3 61.99 95.65 61.2 96 59.62 96.35 60.41 96.7 65.94 97.05 69.49 97.39 75.02 97.74 72.65 98.09 77.39 98.44 74.63 98.79 78.58 99.14 80.55 99.49 81.34 99.84 82.92 100.19 85.69 100.54 85.29 100.89 85.29 101.23 84.9 101.58 82.53 101.93 80.16 102.28 81.34 102.63 80.55 102.98 79.37 103.33 83.71 103.68 81.34 104.03 80.55 104.38 82.53 104.73 80.55 105.08 79.76 105.42 76.6 105.77 71.86 106.12 74.23 106.47 71.86 106.82 72.26 107.17 73.05 107.52 74.63 107.87 76.21 108.22 73.84 108.57 70.68 108.92 67.91 109.26 69.1 109.61 72.65 109.96 69.1 110.31 74.23 110.66 81.34 111.01 87.27 111.36 90.03 111.71 88.45 112.06 86.87 112.41 88.45 112.76 90.82 113.11 93.19 113.45 93.59 113.8 97.54 114.15 99.51 114.5 96.75 114.85 95.56 115.2 96.35 115.55 96.75 115.9 91.22 116.25 91.22 116.6 96.35 116.95 95.56 117.3 93.98 117.64 96.75 117.99 97.14 118.34 104.65 118.69 105.04 119.04 102.67 119.39 99.51 119.74 98.33 120.09 98.33 120.44 95.56 120.79 101.49 121.14 97.54 121.48 95.96 121.83 96.35 122.18 94.38 122.53 99.51 122.88 95.56 123.23 92.4 123.58 95.56 123.93 90.82 124.28 95.56 124.63 90.03 124.98 93.59 125.33 87.66 125.67 86.87 126.02 90.82 126.37 94.38 126.72 94.77 127.07 91.61 127.42 93.19 127.77 94.77 128.12 93.59 128.47 91.22 128.82 89.24 129.17 87.66 129.51 86.87 129.86 82.13 130.21 86.48 130.56 81.74 130.91 84.9 131.26 89.24 131.61 86.08 131.96 84.5 132.31 82.92 132.66 82.92 133.01 87.27 133.36 93.59 133.7 94.38 134.05 94.77 134.4 99.91 134.75 99.12 135.1 100.3 135.45 95.96 135.8 97.14 136.15 92.8 136.5 93.98 136.85 93.98 137.2 93.98 137.55 88.85 137.89 90.03 138.24 89.64 138.59 87.66 138.94 92.01 139.29 87.66 139.64 90.03 139.99 85.29 140.34 83.71 140.69 88.06 141.04 92.4 141.39 92.01 141.73 97.93 142.08 93.59 142.43 87.27 142.78 84.9 143.13 87.66 143.48 92.01 143.83 92.8 144.18 93.19 144.53 85.29 144.88 84.11 145.23 81.74 145.58 80.95 145.92 81.34 146.27 82.13 146.62 81.34 146.97 81.74 147.32 87.27 147.67 87.66 148.02 84.11 148.37 84.11 148.72 81.74 149.07 82.92 149.42 77.79 149.76 77.79 150.11 84.5 150.46 83.71 150.81 85.29 151.16 86.48 151.51 85.29 151.86 83.71 152.21 90.03 152.56 86.87 152.91 86.48 153.26 82.53 153.61 79.76 153.95 85.29 154.3 87.66 154.65 90.43 155 90.82 155.35 82.53 155.7 82.13 156.05 74.23 156.4 73.05 156.75 73.84 157.1 71.47 157.45 73.44 157.79 77 158.14 75.42 158.49 75.42 158.84 72.65 159.19 67.91 159.54 65.15 159.89 70.68 160.24 70.28 160.59 63.96 160.94 68.7 161.29 67.91 161.64 71.47 161.98 75.81 162.33 75.02 162.68 76.21 163.03 74.23 163.38 72.26 163.73 79.76 164.08 82.53 164.43 81.74 164.78 81.34 165.13 83.32 165.48 80.16 165.83 82.13 166.17 79.37 166.52 84.5 166.87 86.87 167.22 85.29 167.57 84.11 167.92 80.55 168.27 82.13 168.62 84.11 168.97 85.29 169.32 85.29 169.67 81.34 170.01 81.34 170.36 88.45 170.71 90.03 171.06 88.06 171.41 86.08 171.76 87.66 172.11 89.64 172.46 88.85 172.81 89.24 173.16 90.43 173.51 90.82 173.86 85.29 174.2 85.29 174.55 82.13 174.9 80.55 175.25 82.92 175.6 79.76 175.95 80.55 176.3 80.55 176.65 75.02 177 74.63 177.35 73.05 177.7 75.42 178.04 76.6 178.39 73.84 178.74 78.58 179.09 78.18 179.44 82.92 179.79 81.34 180.14 86.08 180.49 91.22 180.84 88.45 181.19 86.87 181.54 83.71 181.89 86.87 182.23 86.08 182.58 86.87 182.93 87.66 183.28 86.48 183.63 80.55 183.98 76.21 184.33 76.21 184.68 72.26 185.03 71.86 185.38 78.97 185.73 78.18 186.08 80.95 186.42 78.58 186.77 78.97 187.12 76.21 187.47 74.63 187.82 80.16 188.17 74.63 188.52 69.1 188.87 68.31 189.22 64.75 189.57 66.33 189.92 65.15 190.26 62.78 190.61 61.59 190.96 59.62 191.31 62.38 191.66 68.7 192.01 69.49 192.36 69.89 192.71 75.02 193.06 74.23 193.41 70.28 193.76 73.05 194.11 71.07 194.45 69.1 194.8 73.84 195.15 66.33 195.5 56.85 195.85 52.51 196.2 50.93"/>
      </g>
      <g stroke-width="0.3" fill="#000000" fill-opacity="0.000" class="geometry" stroke-dasharray="none" stroke="#D53E4F" id="img-01e40421-18">
        <path fill="none" d="M21.98,71.86 L 22.33 70.68 22.68 72.26 23.03 68.7 23.38 69.89 23.73 72.65 24.08 72.65 24.42 75.02 24.77 71.86 25.12 72.26 25.47 69.49 25.82 74.63 26.17 75.02 26.52 73.05 26.87 75.81 27.22 79.76 27.57 86.08 27.92 86.08 28.27 81.74 28.61 83.71 28.96 84.9 29.31 79.37 29.66 79.76 30.01 80.95 30.36 80.16 30.71 79.76 31.06 80.55 31.41 74.63 31.76 77 32.11 77.39 32.45 68.7 32.8 72.26 33.15 70.28 33.5 74.63 33.85 76.21 34.2 81.34 34.55 83.71 34.9 86.48 35.25 88.45 35.6 90.82 35.95 86.08 36.3 84.9 36.64 82.92 36.99 83.32 37.34 88.85 37.69 94.77 38.04 90.82 38.39 91.22 38.74 91.22 39.09 92.4 39.44 93.59 39.79 87.66 40.14 79.37 40.49 80.16 40.83 83.32 41.18 84.11 41.53 78.97 41.88 80.16 42.23 84.11 42.58 80.95 42.93 82.53 43.28 83.71 43.63 81.74 43.98 88.85 44.33 86.08 44.67 84.5 45.02 81.34 45.37 85.29 45.72 87.27 46.07 83.71 46.42 82.92 46.77 79.76 47.12 80.95 47.47 80.55 47.82 82.92 48.17 84.11 48.52 79.76 48.86 72.65 49.21 73.44 49.56 73.44 49.91 74.23 50.26 68.31 50.61 62.78 50.96 63.17 51.31 63.17 51.66 70.68 52.01 69.49 52.36 69.49 52.7 71.07 53.05 69.1 53.4 69.1 53.75 68.7 54.1 73.84 54.45 76.21 54.8 83.32 55.15 84.11 55.5 85.69 55.85 82.13 56.2 81.34 56.55 84.9 56.89 93.19 57.24 93.98 57.59 92.4 57.94 95.56 58.29 95.17 58.64 92.8 58.99 95.96 59.34 101.49 59.69 98.72 60.04 99.12 60.39 103.46 60.73 106.23 61.08 103.86 61.43 103.86 61.78 99.12 62.13 94.77 62.48 91.22 62.83 93.59 63.18 98.72 63.53 99.51 63.88 94.77 64.23 89.24 64.58 84.11 64.92 84.5 65.27 84.5 65.62 87.66 65.97 89.64 66.32 90.03 66.67 91.22 67.02 92.01 67.37 93.59 67.72 90.82 68.07 92.8 68.42 91.61 68.77 92.4 69.11 92.4 69.46 91.22 69.81 91.22 70.16 93.98 70.51 94.77 70.86 93.19 71.21 97.93 71.56 98.72 71.91 99.91 72.26 100.3 72.61 96.75 72.95 98.72 73.3 93.98 73.65 91.61 74 84.9 74.35 80.16 74.7 78.97 75.05 78.58 75.4 81.34 75.75 81.74 76.1 78.58 76.45 73.84 76.8 71.86 77.14 73.05 77.49 74.63 77.84 74.23 78.19 75.42 78.54 71.07 78.89 75.02 79.24 78.18 79.59 77.39 79.94 75.81 80.29 75.42 80.64 75.81 80.98 78.58 81.33 80.55 81.68 83.32 82.03 81.34 82.38 73.44 82.73 75.02 83.08 75.81 83.43 75.42 83.78 78.97 84.13 81.74 84.48 78.58 84.83 77.39 85.17 78.58 85.52 80.95 85.87 71.47 86.22 75.02 86.57 76.21 86.92 75.42 87.27 78.97 87.62 77.39 87.97 73.05 88.32 79.37 88.67 75.42 89.02 78.97 89.36 78.97 89.71 87.27 90.06 82.53 90.41 73.84 90.76 75.02 91.11 73.44 91.46 73.05 91.81 69.89 92.16 73.44 92.51 71.86 92.86 66.73 93.2 66.73 93.55 67.52 93.9 66.73 94.25 69.89 94.6 69.1 94.95 66.33 95.3 63.96 95.65 70.68 96 68.31 96.35 68.7 96.7 67.52 97.05 74.23 97.39 74.63 97.74 74.23 98.09 80.16 98.44 78.97 98.79 79.37 99.14 84.5 99.49 82.92 99.84 81.34 100.19 80.95 100.54 84.9 100.89 82.53 101.23 83.32 101.58 80.55 101.93 78.58 102.28 83.71 102.63 84.5 102.98 86.08 103.33 89.64 103.68 88.06 104.03 93.59 104.38 92.01 104.73 90.03 105.08 91.22 105.42 96.35 105.77 97.93 106.12 98.33 106.47 93.98 106.82 92.4 107.17 93.98 107.52 92.8 107.87 92.01 108.22 93.19 108.57 97.54 108.92 95.17 109.26 103.07 109.61 97.93 109.96 97.14 110.31 96.75 110.66 95.56 111.01 96.35 111.36 97.14 111.71 93.19 112.06 94.77 112.41 92.4 112.76 88.06 113.11 86.48 113.45 88.45 113.8 91.61 114.15 90.03 114.5 86.08 114.85 82.92 115.2 81.34 115.55 79.37 115.9 81.74 116.25 75.42 116.6 77 116.95 75.02 117.3 73.44 117.64 71.47 117.99 73.05 118.34 73.05 118.69 67.91 119.04 66.73 119.39 67.91 119.74 65.94 120.09 58.04 120.44 60.41 120.79 61.99 121.14 63.96 121.48 68.31 121.83 69.1 122.18 67.52 122.53 62.78 122.88 68.31 123.23 67.52 123.58 72.26 123.93 72.26 124.28 75.81 124.63 79.37 124.98 83.71 125.33 77 125.67 75.42 126.02 75.42 126.37 71.47 126.72 67.91 127.07 65.15 127.42 65.15 127.77 67.12 128.12 66.33 128.47 63.17 128.82 62.78 129.17 62.78 129.51 57.64 129.86 61.59 130.21 59.22 130.56 63.17 130.91 60.8 131.26 57.25 131.61 51.72 131.96 52.11 132.31 52.51 132.66 53.3 133.01 53.69 133.36 47.77 133.7 50.93 134.05 49.74 134.4 43.82 134.75 39.87 135.1 39.08 135.45 36.71 135.8 37.5 136.15 37.89 136.5 40.26 136.85 38.68 137.2 39.47 137.55 39.47 137.89 35.13 138.24 37.89 138.59 39.47 138.94 43.03 139.29 49.74 139.64 50.14 139.99 50.14 140.34 49.35 140.69 48.95 141.04 53.3 141.39 52.11 141.73 52.11 142.08 48.56 142.43 47.37 142.78 48.95 143.13 48.56 143.48 51.32 143.83 54.88 144.18 50.93 144.53 52.11 144.88 53.3 145.23 52.11 145.58 50.53 145.92 51.32 146.27 52.11 146.62 48.56 146.97 47.77 147.32 49.35 147.67 51.72 148.02 49.35 148.37 48.56 148.72 43.03 149.07 37.89 149.42 38.68 149.76 38.29 150.11 35.92 150.46 35.52 150.81 35.52 151.16 36.31 151.51 34.34 151.86 36.31 152.21 32.36 152.56 35.13 152.91 33.94 153.26 31.57 153.61 28.41 153.95 26.44 154.3 27.62 154.65 25.65 155 26.04 155.35 25.25 155.7 25.25 156.05 29.2 156.4 30.78 156.75 33.15 157.1 39.08 157.45 40.26 157.79 36.71 158.14 36.71 158.49 35.52 158.84 31.97 159.19 31.57 159.54 29.6 159.89 31.18 160.24 32.76 160.59 34.73 160.94 31.57 161.29 30.78 161.64 30.78 161.98 31.97 162.33 36.71 162.68 37.1 163.03 36.31 163.38 36.31 163.73 37.1 164.08 36.31 164.43 30.78 164.78 32.36 165.13 33.94 165.48 33.94 165.83 33.55 166.17 31.57 166.52 30.39 166.87 29.6 167.22 27.23 167.57 28.81 167.92 23.67 168.27 27.23 168.62 23.67 168.97 26.44 169.32 22.88 169.67 24.07 170.01 26.44 170.36 25.25 170.71 22.88 171.06 22.88 171.41 25.25 171.76 23.28 172.11 24.86 172.46 27.62 172.81 27.62 173.16 27.62 173.51 28.02 173.86 31.18 174.2 29.2 174.55 27.23 174.9 27.62 175.25 28.02 175.6 29.99 175.95 28.81 176.3 26.44 176.65 27.23 177 31.18 177.35 28.02 177.7 24.07 178.04 22.88 178.39 25.65 178.74 28.02 179.09 24.46 179.44 25.65 179.79 28.41 180.14 29.99 180.49 29.6 180.84 29.2 181.19 29.99 181.54 29.2 181.89 28.02 182.23 25.25 182.58 26.44 182.93 26.83 183.28 24.46 183.63 22.49 183.98 22.09 184.33 23.28 184.68 25.25 185.03 24.46 185.38 28.41 185.73 29.6 186.08 32.76 186.42 37.1 186.77 33.15 187.12 33.15 187.47 33.15 187.82 33.94 188.17 37.89 188.52 35.52 188.87 35.92 189.22 39.08 189.57 35.52 189.92 31.97 190.26 35.13 190.61 30.78 190.96 33.15 191.31 33.94 191.66 35.13 192.01 38.29 192.36 38.68 192.71 37.5 193.06 42.24 193.41 40.26 193.76 45.4 194.11 47.37 194.45 46.19 194.8 46.19 195.15 44.21 195.5 50.53 195.85 52.51 196.2 52.51"/>
      </g>
      <g stroke-width="0.3" fill="#000000" fill-opacity="0.000" class="geometry" stroke-dasharray="none" stroke="#9E0142" id="img-01e40421-19">
        <path fill="none" d="M21.98,71.86 L 22.33 76.21 22.68 77.79 23.03 77.79 23.38 79.76 23.73 78.97 24.08 77.79 24.42 78.58 24.77 80.16 25.12 84.11 25.47 89.24 25.82 91.22 26.17 92.4 26.52 93.59 26.87 97.93 27.22 102.67 27.57 104.25 27.92 103.46 28.27 107.02 28.61 107.81 28.96 105.04 29.31 103.07 29.66 99.91 30.01 100.7 30.36 103.46 30.71 103.07 31.06 105.83 31.41 101.88 31.76 97.93 32.11 101.88 32.45 103.07 32.8 98.72 33.15 94.38 33.5 94.77 33.85 96.35 34.2 97.14 34.55 91.61 34.9 94.77 35.25 95.56 35.6 96.35 35.95 98.33 36.3 95.56 36.64 94.77 36.99 95.17 37.34 93.19 37.69 95.56 38.04 98.72 38.39 95.56 38.74 94.38 39.09 94.38 39.44 95.96 39.79 98.33 40.14 96.75 40.49 92.4 40.83 94.77 41.18 91.22 41.53 89.64 41.88 90.03 42.23 90.03 42.58 95.17 42.93 97.93 43.28 98.33 43.63 97.54 43.98 100.3 44.33 100.3 44.67 99.91 45.02 101.09 45.37 103.46 45.72 102.67 46.07 103.07 46.42 103.86 46.77 99.12 47.12 97.54 47.47 98.33 47.82 97.14 48.17 97.54 48.52 95.17 48.86 95.56 49.21 95.96 49.56 94.77 49.91 95.56 50.26 97.14 50.61 102.67 50.96 101.09 51.31 99.91 51.66 95.56 52.01 97.14 52.36 101.09 52.7 104.65 53.05 99.12 53.4 95.56 53.75 92.4 54.1 93.19 54.45 93.98 54.8 99.51 55.15 93.19 55.5 95.17 55.85 94.77 56.2 93.59 56.55 98.72 56.89 101.49 57.24 103.86 57.59 107.41 57.94 105.83 58.29 108.99 58.64 101.88 58.99 104.25 59.34 99.12 59.69 99.91 60.04 94.77 60.39 93.59 60.73 93.98 61.08 95.96 61.43 97.93 61.78 100.7 62.13 101.09 62.48 102.67 62.83 100.3 63.18 98.33 63.53 98.72 63.88 102.67 64.23 108.2 64.58 108.99 64.92 108.99 65.27 109.78 65.62 110.18 65.97 110.97 66.32 112.55 66.67 115.31 67.02 116.1 67.37 116.89 67.72 114.13 68.07 108.99 68.42 106.62 68.77 105.83 69.11 105.04 69.46 107.02 69.81 108.2 70.16 106.62 70.51 107.02 70.86 108.2 71.21 110.18 71.56 112.94 71.91 115.71 72.26 114.13 72.61 116.1 72.95 117.68 73.3 119.26 73.65 121.24 74 120.84 74.35 122.03 74.7 124.79 75.05 125.58 75.4 125.19 75.75 124.79 76.1 126.77 76.45 127.16 76.8 126.37 77.14 124.79 77.49 123.61 77.84 124 78.19 126.37 78.54 125.58 78.89 125.98 79.24 126.77 79.59 127.95 79.94 128.35 80.29 126.77 80.64 126.37 80.98 124.79 81.33 123.61 81.68 124.4 82.03 124.79 82.38 125.98 82.73 126.37 83.08 127.16 83.43 125.58 83.78 126.37 84.13 125.98 84.48 126.37 84.83 127.95 85.17 129.53 85.52 130.32 85.87 130.32 86.22 130.72 86.57 129.53 86.92 130.32 87.27 130.72 87.62 129.93 87.97 130.72 88.32 130.72 88.67 130.72 89.02 130.72 89.36 131.11"/>
      </g>
    </g>
  </g>
</g>
  <g class="guide ylabels" font-size="2.82" font-family="'PT Sans Caption','Helvetica Neue','Helvetica',sans-serif" fill="#000000" id="img-01e40421-20">
    <text x="18.63" y="131.11" text-anchor="end" dy="0.35em">0</text>
    <text x="18.63" y="91.61" text-anchor="end" dy="0.35em">100</text>
    <text x="18.63" y="52.11" text-anchor="end" dy="0.35em">200</text>
    <text x="18.63" y="12.61" text-anchor="end" dy="0.35em">300</text>
  </g>
  <g font-size="3.88" font-family="'PT Sans','Helvetica Neue','Helvetica',sans-serif" fill="#000000" stroke="#000000" stroke-opacity="0.000" id="img-01e40421-21">
    <text x="8.81" y="69.86" text-anchor="middle" dy="0.35em" transform="rotate(-90, 8.81, 71.86)">population number</text>
  </g>
  <g font-size="3.88" font-family="'PT Sans','Helvetica Neue','Helvetica',sans-serif" fill="#000000" stroke="#000000" stroke-opacity="0.000" id="img-01e40421-22">
    <text x="108.92" y="5" text-anchor="middle" dy="0.6em">genetic drift</text>
  </g>
</g>
<defs>
  <clipPath id="img-01e40421-4">
  <path d="M19.63,10.61 L 198.2 10.61 198.2 133.11 19.63 133.11" />
</clipPath>
</defs>
</svg>
