<?xml version="1.0" encoding="UTF-8"?>
<svg xmlns="http://www.w3.org/2000/svg"
     xmlns:xlink="http://www.w3.org/1999/xlink"
     xmlns:gadfly="http://www.gadflyjl.org/ns"
     version="1.2"
     width="203.2mm" height="152.4mm" viewBox="0 0 203.2 152.4"
     stroke="none"
     fill="#000000"
     stroke-width="0.3"
     font-size="3.88"
>
<g class="plotroot xscalable yscalable" id="img-2962712c-1">
  <g font-size="3.88" font-family="'PT Sans','Helvetica Neue','Helvetica',sans-serif" fill="#000000" stroke="#000000" stroke-opacity="0.000" id="img-2962712c-2">
    <text x="109.75" y="140.79" text-anchor="middle" dy="0.6em">generation number</text>
  </g>
  <g class="guide xlabels" font-size="2.82" font-family="'PT Sans Caption','Helvetica Neue','Helvetica',sans-serif" fill="#000000" id="img-2962712c-3">
    <text x="23.31" y="134.11" text-anchor="middle" dy="0.6em">0</text>
    <text x="57.88" y="134.11" text-anchor="middle" dy="0.6em">100</text>
    <text x="92.46" y="134.11" text-anchor="middle" dy="0.6em">200</text>
    <text x="127.04" y="134.11" text-anchor="middle" dy="0.6em">300</text>
    <text x="161.62" y="134.11" text-anchor="middle" dy="0.6em">400</text>
    <text x="196.2" y="134.11" text-anchor="middle" dy="0.6em">500</text>
  </g>
<g clip-path="url(#img-2962712c-4)">
  <g id="img-2962712c-5">
    <g pointer-events="visible" opacity="1" fill="#FFFFFF" stroke="#000000" stroke-opacity="0.000" class="guide background" id="img-2962712c-6">
      <rect x="21.31" y="10.61" width="176.89" height="122.5"/>
    </g>
    <g class="guide ygridlines xfixed" stroke-dasharray="0.5,0.5" stroke-width="0.2" stroke="#808080" id="img-2962712c-7">
      <path fill="none" d="M21.31,131.11 L 198.2 131.11"/>
      <path fill="none" d="M21.31,101.49 L 198.2 101.49"/>
      <path fill="none" d="M21.31,71.86 L 198.2 71.86"/>
      <path fill="none" d="M21.31,42.24 L 198.2 42.24"/>
      <path fill="none" d="M21.31,12.61 L 198.2 12.61"/>
    </g>
    <g class="guide xgridlines yfixed" stroke-dasharray="0.5,0.5" stroke-width="0.2" stroke="#808080" id="img-2962712c-8">
      <path fill="none" d="M23.31,10.61 L 23.31 133.11"/>
      <path fill="none" d="M57.88,10.61 L 57.88 133.11"/>
      <path fill="none" d="M92.46,10.61 L 92.46 133.11"/>
      <path fill="none" d="M127.04,10.61 L 127.04 133.11"/>
      <path fill="none" d="M161.62,10.61 L 161.62 133.11"/>
      <path fill="none" d="M196.2,10.61 L 196.2 133.11"/>
    </g>
    <g class="plotpanel" id="img-2962712c-9">
      <g stroke-width="0.3" fill="#000000" fill-opacity="0.000" class="geometry" stroke-dasharray="none" stroke="#3288BD" id="img-2962712c-10">
        <path fill="none" d="M23.65,77.79 L 24 80.4 24.34 82.53 24.69 81.34 25.03 84.54 25.38 84.78 25.73 87.39 26.07 85.49 26.42 84.31 26.76 85.49 27.11 84.31 27.45 85.25 27.8 85.85 28.15 84.19 28.49 83.48 28.84 80.63 29.18 82.88 29.53 83.95 29.88 82.88 30.22 84.66 30.57 86.08 30.91 88.1 31.26 87.51 31.6 87.27 31.95 86.79 32.3 86.44 32.64 84.42 32.99 84.19 33.33 81.46 33.68 79.57 34.02 78.97 34.37 79.8 34.72 80.75 35.06 80.28 35.41 78.62 35.75 77.79 36.1 80.99 36.45 83.24 36.79 83.83 37.14 84.78 37.48 84.78 37.83 83.6 38.17 83.48 38.52 82.88 38.87 83.12 39.21 79.68 39.56 80.51 39.9 78.97 40.25 77.67 40.59 79.21 40.94 80.63 41.29 81.7 41.63 82.65 41.98 79.45 42.32 79.09 42.67 82.65 43.02 82.88 43.36 83.48 43.71 78.5 44.05 77.2 44.4 76.48 44.74 76.6 45.09 76.96 45.44 78.97 45.78 75.3 46.13 75.77 46.47 75.18 46.82 78.74 47.16 77.43 47.51 78.5 47.86 77.79 48.2 75.66 48.55 74.71 48.89 76.72 49.24 78.86 49.59 76.84 49.93 75.54 50.28 74.11 50.62 74.59 50.97 73.88 51.31 72.1 51.66 71.74 52.01 72.69 52.35 74.23 52.7 73.4 53.04 72.69 53.39 72.34 53.73 70.92 54.08 71.03 54.43 71.27 54.77 71.51 55.12 72.93 55.46 72.81 55.81 73.29 56.16 71.74 56.5 71.39 56.85 72.22 57.19 72.57 57.54 70.68 57.88 71.51 58.23 69.85 58.58 70.68 58.92 67.83 59.27 68.9 59.61 68.31 59.96 66.41 60.3 65.35 60.65 66.77 61 66.53 61.34 65.35 61.69 63.69 62.03 60.49 62.38 62.03 62.73 59.42 63.07 60.84 63.42 62.26 63.76 60.96 64.11 61.2 64.45 62.15 64.8 64.28 65.15 65.7 65.49 69.26 65.84 70.09 66.18 70.09 66.53 70.09 66.87 67.48 67.22 67.72 67.57 63.09 67.91 65.94 68.26 63.33 68.6 62.62 68.95 61.44 69.3 63.92 69.64 65.35 69.99 63.57 70.33 63.33 70.68 65.35 71.02 67.95 71.37 67.24 71.72 66.41 72.06 63.92 72.41 64.4 72.75 60.72 73.1 61.32 73.44 64.99 73.79 64.16 74.14 62.38 74.48 63.45 74.83 66.06 75.17 62.5 75.52 65.58 75.87 65.46 76.21 66.53 76.56 63.69 76.9 62.03 77.25 61.91 77.59 60.49 77.94 60.72 78.29 60.37 78.63 60.01 78.98 60.01 79.32 60.25 79.67 58.95 80.01 58.12 80.36 58.47 80.71 59.66 81.05 59.78 81.4 57.88 81.74 59.3 82.09 59.78 82.44 60.61 82.78 58.24 83.13 56.58 83.47 55.15 83.82 54.09 84.16 56.22 84.51 58.59 84.86 58.35 85.2 56.69 85.55 53.26 85.89 54.68 86.24 55.27 86.58 55.39 86.93 54.32 87.28 53.73 87.62 53.85 87.97 53.14 88.31 53.38 88.66 54.09 89.01 54.56 89.35 57.05 89.7 57.76 90.04 55.27 90.39 55.27 90.73 57.17 91.08 55.87 91.43 56.22 91.77 56.22 92.12 55.63 92.46 54.8 92.81 55.27 93.15 54.09 93.5 53.97 93.85 51.72 94.19 50.53 94.54 50.3 94.88 49.47 95.23 50.18 95.58 52.31 95.92 51.36 96.27 54.92 96.61 59.54 96.96 61.67 97.3 61.32 97.65 60.37 98 59.78 98.34 59.66 98.69 60.84 99.03 59.89 99.38 59.66 99.72 61.79 100.07 60.72 100.42 59.06 100.76 58.71 101.11 59.54 101.45 61.67 101.8 61.79 102.15 64.28 102.49 62.62 102.84 61.67 103.18 60.25 103.53 61.79 103.87 61.79 104.22 61.91 104.57 64.75 104.91 67.48 105.26 68.78 105.6 68.07 105.95 68.43 106.29 68.07 106.64 67.24 106.99 66.29 107.33 66.89 107.68 65.11 108.02 66.18 108.37 63.21 108.72 64.28 109.06 64.63 109.41 63.92 109.75 64.99 110.1 67.36 110.44 63.92 110.79 62.62 111.14 62.86 111.48 60.96 111.83 62.26 112.17 64.87 112.52 62.74 112.86 61.2 113.21 62.38 113.56 60.84 113.9 60.25 114.25 56.46 114.59 56.1 114.94 54.44 115.29 55.27 115.63 55.04 115.98 58.71 116.32 59.78 116.67 59.3 117.01 58.47 117.36 58.47 117.71 59.18 118.05 60.37 118.4 60.01 118.74 62.86 119.09 64.75 119.43 64.4 119.78 62.86 120.13 61.91 120.47 64.63 120.82 61.91 121.16 61.55 121.51 63.92 121.86 62.86 122.2 61.67 122.55 58.83 122.89 58.71 123.24 59.3 123.58 58.24 123.93 61.79 124.28 62.74 124.62 62.5 124.97 61.79 125.31 62.03 125.66 59.78 126 61.08 126.35 58.83 126.7 58.35 127.04 60.37 127.39 61.79 127.73 59.54 128.08 60.37 128.43 64.16 128.77 60.96 129.12 60.01 129.46 62.03 129.81 65.94 130.15 64.4 130.5 63.45 130.85 63.21 131.19 66.06 131.54 64.99 131.88 64.63 132.23 63.21 132.57 62.62 132.92 65.23 133.27 64.16 133.61 66.29 133.96 66.41 134.3 67.48 134.65 68.55 135 67.48 135.34 66.53 135.69 64.04 136.03 66.53 136.38 66.53 136.72 62.74 137.07 63.81 137.42 66.41 137.76 66.53 138.11 65.94 138.45 66.77 138.8 65.94 139.14 65.35 139.49 67.36 139.84 69.97 140.18 69.02 140.53 67.48 140.87 65.23 141.22 64.04 141.57 64.52 141.91 63.09 142.26 63.81 142.6 62.15 142.95 61.67 143.29 63.09 143.64 62.62 143.99 60.72 144.33 62.74 144.68 62.74 145.02 61.79 145.37 63.21 145.71 65.94 146.06 63.33 146.41 62.38 146.75 64.04 147.1 62.15 147.44 62.26 147.79 63.92 148.14 65.46 148.48 63.69 148.83 61.44 149.17 60.25 149.52 60.49 149.86 59.3 150.21 60.13 150.56 57.76 150.9 54.92 151.25 53.26 151.59 52.07 151.94 52.78 152.28 53.26 152.63 50.65 152.98 48.04 153.32 49.35 153.67 51.84 154.01 53.38 154.36 53.26 154.71 52.43 155.05 55.39 155.4 53.38 155.74 51.6 156.09 52.55 156.43 51.48 156.78 52.07 157.13 53.97 157.47 55.15 157.82 53.97 158.16 55.98 158.51 55.39 158.85 54.56 159.2 54.68 159.55 55.39 159.89 54.56 160.24 52.43 160.58 51.6 160.93 53.5 161.28 53.5 161.62 53.14 161.97 51.95 162.31 52.19 162.66 52.9 163 55.04 163.35 55.98 163.7 55.98 164.04 57.41 164.39 57.29 164.73 56.46 165.08 56.34 165.42 57.29 165.77 55.98 166.12 56.46 166.46 56.81 166.81 56.81 167.15 53.97 167.5 50.77 167.85 50.65 168.19 52.19 168.54 53.38 168.88 50.77 169.23 49.94 169.57 50.18 169.92 48.99 170.27 50.89 170.61 52.55 170.96 54.44 171.3 52.9 171.65 53.14 171.99 52.9 172.34 53.5 172.69 51.6 173.03 49.11 173.38 46.39 173.72 47.21 174.07 48.87 174.42 49.23 174.76 50.65 175.11 49.11 175.45 49.11 175.8 49.35 176.14 48.87 176.49 50.18 176.84 50.41 177.18 51.84 177.53 52.67 177.87 51.36 178.22 49.47 178.56 48.28 178.91 48.28 179.26 44.73 179.6 43.78 179.95 45.32 180.29 44.37 180.64 46.39 180.99 47.33 181.33 45.67 181.68 47.21 182.02 46.15 182.37 46.62 182.71 47.57 183.06 48.64 183.41 45.44 183.75 47.57 184.1 47.45 184.44 47.81 184.79 46.98 185.13 42.95 185.48 42 185.83 41.29 186.17 42.47 186.52 41.17 186.86 41.05 187.21 39.87 187.56 42.59 187.9 41.29 188.25 43.66 188.59 45.2 188.94 45.67 189.28 46.74 189.63 45.44 189.98 44.25 190.32 43.66 190.67 43.42 191.01 42.95 191.36 43.42 191.7 44.37 192.05 43.42 192.4 45.32 192.74 42.47 193.09 43.42 193.43 44.37 193.78 43.42 194.13 45.67 194.47 46.27 194.82 47.1 195.16 46.15 195.51 47.81 195.85 47.1 196.2 46.5"/>
      </g>
      <g stroke-width="0.3" fill="#000000" fill-opacity="0.000" class="geometry" stroke-dasharray="none" stroke="#66C2A5" id="img-2962712c-11">
        <path fill="none" d="M23.65,77.79 L 24 77.43 24.34 76.6 24.69 78.26 25.03 78.74 25.38 76.96 25.73 76.84 26.07 74.35 26.42 74.11 26.76 72.93 27.11 73.29 27.45 73.52 27.8 72.46 28.15 72.1 28.49 72.1 28.84 70.32 29.18 72.22 29.53 71.98 29.88 73.05 30.22 70.56 30.57 71.63 30.91 67 31.26 67.12 31.6 66.29 31.95 67.48 32.3 67.83 32.64 67.83 32.99 72.34 33.33 70.09 33.68 71.27 34.02 69.26 34.37 68.66 34.72 71.39 35.06 72.69 35.41 72.46 35.75 71.39 36.1 70.32 36.45 70.68 36.79 67.48 37.14 67.24 37.48 65.82 37.83 63.57 38.17 62.62 38.52 61.91 38.87 58.24 39.21 57.41 39.56 58 39.9 57.29 40.25 57.76 40.59 58.12 40.94 62.03 41.29 64.28 41.63 63.81 41.98 62.62 42.32 63.57 42.67 64.4 43.02 64.99 43.36 66.06 43.71 63.69 44.05 64.16 44.4 66.65 44.74 68.07 45.09 68.31 45.44 66.18 45.78 67.83 46.13 66.06 46.47 67.24 46.82 68.66 47.16 68.78 47.51 70.2 47.86 69.02 48.2 73.05 48.55 73.52 48.89 73.29 49.24 74 49.59 75.54 49.93 79.09 50.28 80.87 50.62 82.53 50.97 83.83 51.31 83.83 51.66 87.39 52.01 85.85 52.35 87.74 52.7 86.56 53.04 88.22 53.39 90.59 53.73 90.82 54.08 88.93 54.43 88.22 54.77 88.34 55.12 91.42 55.46 88.69 55.81 88.1 56.16 86.91 56.5 84.66 56.85 83.95 57.19 86.91 57.54 90.35 57.88 89.52 58.23 88.81 58.58 88.57 58.92 87.74 59.27 86.79 59.61 83.71 59.96 87.74 60.3 90.82 60.65 88.81 61 88.69 61.34 90.11 61.69 90.94 62.03 92.36 62.38 95.09 62.73 92.6 63.07 93.08 63.42 93.79 63.76 94.38 64.11 93.67 64.45 94.5 64.8 95.33 65.15 96.16 65.49 96.39 65.84 98.53 66.18 99.83 66.53 99.24 66.87 99.71 67.22 100.54 67.57 96.87 67.91 97.82 68.26 100.78 68.6 100.9 68.95 100.19 69.3 103.27 69.64 106.82 69.99 105.99 70.33 104.21 70.68 102.32 71.02 106.35 71.37 106.94 71.72 103.98 72.06 103.27 72.41 104.1 72.75 103.74 73.1 100.54 73.44 102.56 73.79 105.04 74.14 106.11 74.48 107.06 74.83 107.06 75.17 110.14 75.52 112.39 75.87 111.09 76.21 108.24 76.56 110.5 76.9 110.61 77.25 110.73 77.59 112.39 77.94 111.21 78.29 110.97 78.63 108.24 78.98 104.57 79.32 107.65 79.67 108.36 80.01 109.55 80.36 109.19 80.71 107.65 81.05 106.58 81.4 107.65 81.74 110.02 82.09 107.89 82.44 110.61 82.78 111.09 83.13 112.04 83.47 113.1 83.82 113.46 84.16 112.39 84.51 112.75 84.86 112.27 85.2 112.15 85.55 113.7 85.89 112.27 86.24 113.7 86.58 114.41 86.93 114.64 87.28 115.83 87.62 114.76 87.97 116.42 88.31 115.47 88.66 115.12 89.01 118.08 89.35 117.25 89.7 116.42 90.04 117.84 90.39 117.13 90.73 116.42 91.08 117.37 91.43 117.01 91.77 119.03 92.12 119.03 92.46 119.38 92.81 119.5 93.15 119.98 93.5 120.33 93.85 119.5 94.19 118.79 94.54 118.2 94.88 119.15 95.23 117.84 95.58 118.67 95.92 119.26 96.27 120.33 96.61 120.33 96.96 120.33 97.3 121.04 97.65 120.21 98 119.03 98.34 118.79 98.69 121.4 99.03 122.11 99.38 121.99 99.72 121.87 100.07 121.99 100.42 122.35 100.76 122.58 101.11 121.52 101.45 120.92 101.8 119.98 102.15 119.86 102.49 118.67 102.84 118.79 103.18 118.55 103.53 118.2 103.87 118.79 104.22 119.5 104.57 117.84 104.91 116.07 105.26 117.01 105.6 117.01 105.95 116.78 106.29 117.25 106.64 118.67 106.99 117.49 107.33 118.67 107.68 118.32 108.02 117.25 108.37 116.3 108.72 118.32 109.06 121.16 109.41 119.86 109.75 119.03 110.1 119.15 110.44 118.67 110.79 118.32 111.14 118.55 111.48 117.49 111.83 118.2 112.17 119.03 112.52 119.15 112.86 118.79 113.21 117.49 113.56 118.79 113.9 120.09 114.25 122.35 114.59 123.18 114.94 122.11 115.29 120.09 115.63 119.15 115.98 119.26 116.32 119.38 116.67 120.69 117.01 120.09 117.36 121.04 117.71 121.28 118.05 121.87 118.4 122.11 118.74 121.28 119.09 119.98 119.43 120.33 119.78 120.57 120.13 120.92 120.47 121.87 120.82 122.11 121.16 121.99 121.51 121.63 121.86 122.11 122.2 121.87 122.55 123.06 122.89 122.82 123.24 122.58 123.58 123.77 123.93 124.36 124.28 124.36 124.62 125.55 124.97 124 125.31 121.87 125.66 121.28 126 119.98 126.35 120.69 126.7 120.81 127.04 121.28 127.39 123.29 127.73 122.58 128.08 122.23 128.43 120.81 128.77 119.62 129.12 118.08 129.46 118.44 129.81 117.25 130.15 119.38 130.5 118.91 130.85 119.03 131.19 117.49 131.54 117.61 131.88 119.5 132.23 119.62 132.57 117.25 132.92 116.54 133.27 114.64 133.61 115.59 133.96 117.01 134.3 117.01 134.65 117.01 135 116.3 135.34 117.01 135.69 118.67 136.03 119.5 136.38 119.98 136.72 120.33 137.07 121.16 137.42 119.5 137.76 120.21 138.11 121.16 138.45 121.16 138.8 123.41 139.14 123.18 139.49 121.87 139.84 122.23 140.18 121.52 140.53 119.38 140.87 118.67 141.22 117.37 141.57 116.3 141.91 116.3 142.26 115.35 142.6 115.95 142.95 117.01 143.29 115.35 143.64 117.37 143.99 116.07 144.33 115.24 144.68 115.95 145.02 117.01 145.37 115.95 145.71 115.47 146.06 114.29 146.41 112.51 146.75 111.09 147.1 112.27 147.44 111.44 147.79 110.14 148.14 110.02 148.48 111.92 148.83 111.21 149.17 110.61 149.52 110.38 149.86 110.38 150.21 109.55 150.56 108.6 150.9 108.84 151.25 108.95 151.59 106.82 151.94 107.06 152.28 106.58 152.63 105.04 152.98 103.5 153.32 105.52 153.67 108.01 154.01 105.4 154.36 106.11 154.71 106.47 155.05 108.24 155.4 107.41 155.74 107.41 156.09 106.35 156.43 108.36 156.78 110.85 157.13 111.09 157.47 113.7 157.82 111.09 158.16 108.24 158.51 109.19 158.85 109.55 159.2 109.67 159.55 110.38 159.89 111.44 160.24 111.32 160.58 110.97 160.93 110.97 161.28 109.19 161.62 110.61 161.97 114.29 162.31 113.46 162.66 110.85 163 110.5 163.35 112.27 163.7 109.67 164.04 108.24 164.39 107.89 164.73 107.06 165.08 105.64 165.42 106.23 165.77 105.64 166.12 102.32 166.46 104.1 166.81 103.27 167.15 101.25 167.5 101.96 167.85 104.1 168.19 103.86 168.54 102.32 168.88 103.15 169.23 103.03 169.57 105.4 169.92 105.4 170.27 104.21 170.61 104.45 170.96 103.86 171.3 103.98 171.65 106.23 171.99 109.67 172.34 109.19 172.69 109.31 173.03 110.85 173.38 112.04 173.72 110.85 174.07 111.09 174.42 108.48 174.76 107.41 175.11 108.48 175.45 109.9 175.8 110.97 176.14 110.38 176.49 112.15 176.84 112.98 177.18 113.46 177.53 112.39 177.87 113.46 178.22 116.54 178.56 116.78 178.91 117.84 179.26 117.61 179.6 115.12 179.95 116.42 180.29 115.95 180.64 116.78 180.99 115.71 181.33 114.64 181.68 115.35 182.02 116.42 182.37 117.25 182.71 119.03 183.06 120.21 183.41 118.2 183.75 117.96 184.1 120.33 184.44 119.62 184.79 120.69 185.13 121.99 185.48 120.81 185.83 121.87 186.17 121.63 186.52 121.52 186.86 121.16 187.21 121.28 187.56 120.33 187.9 119.26 188.25 119.62 188.59 119.38 188.94 119.74 189.28 117.61 189.63 116.07 189.98 116.66 190.32 117.61 190.67 117.37 191.01 116.18 191.36 115.83 191.7 115 192.05 114.88 192.4 116.3 192.74 116.07 193.09 115.95 193.43 116.78 193.78 117.72 194.13 118.08 194.47 119.62 194.82 118.55 195.16 119.03 195.51 117.96 195.85 119.86 196.2 119.62"/>
      </g>
      <g stroke-width="0.3" fill="#000000" fill-opacity="0.000" class="geometry" stroke-dasharray="none" stroke="#ABDDA4" id="img-2962712c-12">
        <path fill="none" d="M23.65,77.79 L 24 77.79 24.34 79.21 24.69 80.16 25.03 81.34 25.38 84.07 25.73 84.9 26.07 84.9 26.42 83.95 26.76 84.42 27.11 81.11 27.45 81.82 27.8 81.11 28.15 79.45 28.49 81.34 28.84 84.31 29.18 85.49 29.53 84.66 29.88 86.44 30.22 84.31 30.57 85.02 30.91 87.51 31.26 89.52 31.6 92.96 31.95 94.38 32.3 93.9 32.64 95.68 32.99 95.92 33.33 95.33 33.68 96.04 34.02 95.33 34.37 95.09 34.72 96.63 35.06 96.04 35.41 98.65 35.75 102.79 36.1 101.02 36.45 100.42 36.79 100.3 37.14 100.19 37.48 101.37 37.83 99.59 38.17 98.17 38.52 99.59 38.87 98.17 39.21 99.12 39.56 99.12 39.9 100.42 40.25 103.15 40.59 102.79 40.94 102.91 41.29 104.21 41.63 106.35 41.98 105.16 42.32 104.45 42.67 103.39 43.02 103.74 43.36 102.2 43.71 102.2 44.05 101.84 44.4 103.27 44.74 100.78 45.09 101.37 45.44 100.07 45.78 100.07 46.13 101.49 46.47 103.15 46.82 105.28 47.16 106.94 47.51 107.3 47.86 107.89 48.2 107.3 48.55 106.23 48.89 106.82 49.24 104.57 49.59 105.04 49.93 104.57 50.28 104.57 50.62 105.16 50.97 104.57 51.31 103.74 51.66 106.58 52.01 106.7 52.35 108.6 52.7 109.43 53.04 111.21 53.39 110.02 53.73 110.02 54.08 109.19 54.43 110.85 54.77 110.02 55.12 108.95 55.46 109.31 55.81 110.61 56.16 109.67 56.5 108.13 56.85 107.3 57.19 106.23 57.54 107.77 57.88 108.6 58.23 110.14 58.58 108.48 58.92 108.24 59.27 107.06 59.61 105.52 59.96 105.28 60.3 105.76 60.65 106.11 61 105.99 61.34 104.1 61.69 104.81 62.03 107.41 62.38 105.28 62.73 107.06 63.07 109.43 63.42 108.95 63.76 109.43 64.11 108.84 64.45 108.72 64.8 108.6 65.15 107.3 65.49 105.87 65.84 106.82 66.18 108.95 66.53 109.07 66.87 108.6 67.22 110.26 67.57 106.7 67.91 106.47 68.26 106.47 68.6 106.11 68.95 107.77 69.3 105.52 69.64 105.04 69.99 108.13 70.33 106.35 70.68 108.24 71.02 111.8 71.37 113.93 71.72 112.87 72.06 113.1 72.41 114.52 72.75 112.04 73.1 111.32 73.44 110.61 73.79 110.85 74.14 109.67 74.48 110.26 74.83 109.9 75.17 110.5 75.52 110.38 75.87 108.24 76.21 107.53 76.56 109.07 76.9 109.19 77.25 108.36 77.59 108.72 77.94 110.85 78.29 111.68 78.63 110.14 78.98 110.26 79.32 110.97 79.67 110.73 80.01 112.04 80.36 111.8 80.71 110.61 81.05 111.8 81.4 110.61 81.74 112.27 82.09 111.32 82.44 112.51 82.78 110.26 83.13 110.14 83.47 108.95 83.82 110.02 84.16 109.07 84.51 110.26 84.86 108.01 85.2 108.24 85.55 108.24 85.89 108.01 86.24 108.24 86.58 106.11 86.93 106.94 87.28 108.36 87.62 107.77 87.97 108.36 88.31 108.36 88.66 105.52 89.01 105.4 89.35 108.01 89.7 106.82 90.04 106.94 90.39 106.94 90.73 109.19 91.08 107.89 91.43 108.36 91.77 106.35 92.12 105.52 92.46 105.52 92.81 102.79 93.15 101.73 93.5 102.08 93.85 100.78 94.19 99 94.54 96.75 94.88 99.24 95.23 99.59 95.58 103.74 95.92 106.58 96.27 108.01 96.61 108.36 96.96 107.41 97.3 108.6 97.65 109.31 98 110.73 98.34 111.09 98.69 110.85 99.03 110.26 99.38 108.13 99.72 106.94 100.07 107.41 100.42 106.47 100.76 107.53 101.11 109.07 101.45 109.67 101.8 108.24 102.15 108.13 102.49 108.13 102.84 109.55 103.18 110.61 103.53 110.97 103.87 111.09 104.22 110.5 104.57 109.78 104.91 108.6 105.26 106.7 105.6 106.35 105.95 106.23 106.29 106.94 106.64 103.74 106.99 101.73 107.33 99.83 107.68 98.53 108.02 98.05 108.37 96.28 108.72 97.1 109.06 96.16 109.41 97.7 109.75 97.58 110.1 95.8 110.44 96.51 110.79 94.38 111.14 95.56 111.48 96.04 111.83 94.62 112.17 96.75 112.52 95.33 112.86 94.38 113.21 94.14 113.56 96.39 113.9 96.04 114.25 95.8 114.59 92.96 114.94 93.55 115.29 93.43 115.63 94.62 115.98 93.67 116.32 96.16 116.67 95.92 117.01 95.8 117.36 98.65 117.71 100.42 118.05 101.84 118.4 101.73 118.74 101.96 119.09 101.49 119.43 99 119.78 99.12 120.13 99.12 120.47 99.24 120.82 98.88 121.16 98.76 121.51 101.02 121.86 99.36 122.2 97.34 122.55 97.22 122.89 97.46 123.24 101.73 123.58 101.84 123.93 99.95 124.28 100.78 124.62 101.13 124.97 99.12 125.31 96.75 125.66 98.65 126 100.66 126.35 100.66 126.7 100.66 127.04 99.36 127.39 97.82 127.73 98.76 128.08 96.16 128.43 95.09 128.77 98.41 129.12 96.16 129.46 96.87 129.81 96.51 130.15 97.46 130.5 98.65 130.85 99.83 131.19 100.42 131.54 99.47 131.88 97.1 132.23 95.68 132.57 96.63 132.92 95.56 133.27 92.13 133.61 91.89 133.96 89.52 134.3 87.86 134.65 89.76 135 90.82 135.34 92.72 135.69 91.77 136.03 92.25 136.38 92.36 136.72 89.99 137.07 92.48 137.42 92.01 137.76 93.19 138.11 92.25 138.45 93.08 138.8 94.38 139.14 98.65 139.49 99.71 139.84 100.07 140.18 98.76 140.53 101.25 140.87 100.19 141.22 100.66 141.57 100.42 141.91 101.49 142.26 98.65 142.6 97.46 142.95 98.17 143.29 100.19 143.64 99.71 143.99 98.29 144.33 98.76 144.68 99.71 145.02 100.42 145.37 102.08 145.71 103.5 146.06 102.67 146.41 107.3 146.75 109.9 147.1 108.72 147.44 106.23 147.79 106.94 148.14 108.13 148.48 109.19 148.83 108.6 149.17 109.19 149.52 109.07 149.86 111.56 150.21 111.8 150.56 112.51 150.9 110.14 151.25 109.55 151.59 107.18 151.94 107.65 152.28 106.47 152.63 104.93 152.98 104.21 153.32 103.74 153.67 102.67 154.01 102.56 154.36 102.44 154.71 102.44 155.05 101.02 155.4 102.44 155.74 103.98 156.09 104.81 156.43 103.15 156.78 105.4 157.13 106.7 157.47 106.35 157.82 105.99 158.16 103.86 158.51 103.98 158.85 103.74 159.2 103.39 159.55 103.98 159.89 102.56 160.24 103.62 160.58 105.04 160.93 106.58 161.28 105.87 161.62 105.28 161.97 105.28 162.31 104.69 162.66 105.64 163 107.65 163.35 108.13 163.7 107.3 164.04 108.24 164.39 107.06 164.73 105.4 165.08 106.35 165.42 107.77 165.77 105.28 166.12 106.94 166.46 110.14 166.81 111.44 167.15 110.97 167.5 110.73 167.85 109.55 168.19 109.78 168.54 107.3 168.88 108.48 169.23 109.43 169.57 110.26 169.92 111.68 170.27 109.9 170.61 113.1 170.96 114.64 171.3 111.68 171.65 111.44 171.99 110.5 172.34 110.5 172.69 108.24 173.03 112.39 173.38 113.7 173.72 115.83 174.07 118.32 174.42 118.91 174.76 119.38 175.11 120.69 175.45 120.45 175.8 118.08 176.14 117.25 176.49 119.5 176.84 117.72 177.18 116.78 177.53 117.61 177.87 117.84 178.22 118.79 178.56 120.81 178.91 121.28 179.26 121.63 179.6 121.4 179.95 122.11 180.29 121.04 180.64 120.57 180.99 122.82 181.33 124.36 181.68 124 182.02 123.89 182.37 124.24 182.71 124.6 183.06 125.66 183.41 125.07 183.75 125.19 184.1 125.78 184.44 126.37 184.79 126.26 185.13 125.31 185.48 127.09 185.83 127.8 186.17 126.02 186.52 124.83 186.86 123.77 187.21 123.89 187.56 123.77 187.9 123.89 188.25 125.55 188.59 125.78 188.94 124.83 189.28 125.19 189.63 124.48 189.98 123.18 190.32 122.11 190.67 122.58 191.01 123.65 191.36 124.48 191.7 125.07 192.05 125.31 192.4 126.26 192.74 125.19 193.09 124 193.43 124.48 193.78 123.65 194.13 124.95 194.47 125.66 194.82 125.66 195.16 126.02 195.51 125.43 195.85 125.19 196.2 125.78"/>
      </g>
      <g stroke-width="0.3" fill="#000000" fill-opacity="0.000" class="geometry" stroke-dasharray="none" stroke="#E6F598" id="img-2962712c-13">
        <path fill="none" d="M23.65,77.79 L 24 77.2 24.34 75.54 24.69 78.74 25.03 77.2 25.38 77.43 25.73 79.45 26.07 80.75 26.42 79.33 26.76 75.77 27.11 77.08 27.45 76.72 27.8 78.03 28.15 79.57 28.49 80.87 28.84 81.7 29.18 81.58 29.53 77.08 29.88 76.6 30.22 72.57 30.57 69.85 30.91 69.49 31.26 72.69 31.6 69.61 31.95 68.07 32.3 67.83 32.64 69.14 32.99 66.65 33.33 65.82 33.68 66.06 34.02 68.9 34.37 69.37 34.72 70.44 35.06 72.22 35.41 72.81 35.75 72.34 36.1 69.61 36.45 67.6 36.79 67.95 37.14 68.55 37.48 67.72 37.83 67.83 38.17 65.94 38.52 64.16 38.87 61.2 39.21 60.96 39.56 63.45 39.9 65.11 40.25 64.52 40.59 66.29 40.94 66.53 41.29 67 41.63 69.97 41.98 66.29 42.32 64.63 42.67 64.75 43.02 62.86 43.36 61.2 43.71 58.83 44.05 58.59 44.4 60.13 44.74 59.89 45.09 59.78 45.44 59.3 45.78 58.95 46.13 59.06 46.47 58.83 46.82 60.96 47.16 60.49 47.51 60.72 47.86 64.52 48.2 67.36 48.55 67.95 48.89 68.66 49.24 68.55 49.59 69.73 49.93 70.32 50.28 68.43 50.62 72.1 50.97 69.02 51.31 70.2 51.66 69.61 52.01 71.27 52.35 72.69 52.7 75.77 53.04 77.08 53.39 78.14 53.73 81.94 54.08 81.11 54.43 77.08 54.77 75.42 55.12 73.4 55.46 73.64 55.81 71.63 56.16 72.57 56.5 71.03 56.85 70.32 57.19 68.9 57.54 70.68 57.88 67.12 58.23 67 58.58 70.8 58.92 69.26 59.27 66.89 59.61 67.12 59.96 68.55 60.3 65.82 60.65 65.11 61 68.66 61.34 69.26 61.69 71.39 62.03 70.8 62.38 73.76 62.73 75.77 63.07 77.79 63.42 81.23 63.76 80.28 64.11 82.17 64.45 82.77 64.8 81.94 65.15 83.48 65.49 82.29 65.84 83 66.18 81.11 66.53 81.58 66.87 83.12 67.22 81.34 67.57 79.09 67.91 74.11 68.26 73.17 68.6 70.2 68.95 70.2 69.3 71.27 69.64 74.71 69.99 76.13 70.33 75.3 70.68 73.52 71.02 70.32 71.37 67.95 71.72 67.12 72.06 68.31 72.41 69.97 72.75 69.97 73.1 68.43 73.44 68.19 73.79 65.23 74.14 65.58 74.48 65.7 74.83 66.06 75.17 64.16 75.52 64.99 75.87 65.58 76.21 63.92 76.56 62.62 76.9 61.32 77.25 61.79 77.59 60.13 77.94 62.62 78.29 58.47 78.63 54.92 78.98 55.63 79.32 53.97 79.67 55.39 80.01 57.17 80.36 56.93 80.71 59.89 81.05 60.84 81.4 60.49 81.74 59.89 82.09 58 82.44 58.59 82.78 58 83.13 59.42 83.47 56.93 83.82 56.1 84.16 55.15 84.51 55.15 84.86 53.73 85.2 53.5 85.55 55.04 85.89 54.44 86.24 54.21 86.58 52.78 86.93 53.38 87.28 50.3 87.62 51.36 87.97 52.9 88.31 53.85 88.66 52.78 89.01 52.9 89.35 51.84 89.7 52.9 90.04 51.48 90.39 51.48 90.73 53.02 91.08 49.94 91.43 51.36 91.77 49.11 92.12 47.93 92.46 48.64 92.81 51.6 93.15 51.48 93.5 49.23 93.85 47.81 94.19 46.15 94.54 45.44 94.88 46.03 95.23 46.03 95.58 43.9 95.92 44.25 96.27 44.25 96.61 43.66 96.96 42.12 97.3 42 97.65 42.95 98 42 98.34 44.37 98.69 44.49 99.03 42 99.38 44.84 99.72 45.56 100.07 44.73 100.42 45.2 100.76 44.61 101.11 43.3 101.45 42.59 101.8 41.76 102.15 42.59 102.49 42 102.84 41.88 103.18 40.82 103.53 40.93 103.87 40.46 104.22 40.22 104.57 41.88 104.91 41.41 105.26 43.07 105.6 43.66 105.95 44.96 106.29 43.78 106.64 43.9 106.99 41.88 107.33 42.83 107.68 41.17 108.02 42.36 108.37 39.75 108.72 41.17 109.06 42.12 109.41 41.53 109.75 41.05 110.1 41.88 110.44 41.64 110.79 40.46 111.14 40.22 111.48 40.7 111.83 38.68 112.17 39.04 112.52 39.75 112.86 42.36 113.21 45.91 113.56 47.1 113.9 46.86 114.25 47.1 114.59 45.79 114.94 50.77 115.29 53.38 115.63 55.87 115.98 55.87 116.32 56.58 116.67 55.98 117.01 53.61 117.36 52.9 117.71 55.04 118.05 54.56 118.4 53.14 118.74 52.55 119.09 51.95 119.43 52.55 119.78 54.09 120.13 54.92 120.47 54.44 120.82 53.73 121.16 54.8 121.51 53.26 121.86 53.97 122.2 52.19 122.55 52.43 122.89 52.9 123.24 53.02 123.58 50.41 123.93 47.1 124.28 45.44 124.62 44.61 124.97 49.11 125.31 50.18 125.66 50.65 126 49.82 126.35 50.41 126.7 49.82 127.04 50.53 127.39 54.32 127.73 55.04 128.08 56.46 128.43 57.76 128.77 59.66 129.12 55.15 129.46 58.95 129.81 61.79 130.15 60.25 130.5 60.72 130.85 62.5 131.19 64.16 131.54 66.06 131.88 67 132.23 67.24 132.57 70.2 132.92 67.95 133.27 69.02 133.61 70.8 133.96 73.4 134.3 73.29 134.65 74.94 135 72.69 135.34 71.63 135.69 71.86 136.03 73.88 136.38 73.76 136.72 74.11 137.07 75.18 137.42 74.71 137.76 76.37 138.11 76.37 138.45 74.59 138.8 77.2 139.14 74.83 139.49 71.51 139.84 72.57 140.18 72.1 140.53 71.86 140.87 70.2 141.22 67.95 141.57 71.15 141.91 73.05 142.26 76.13 142.6 75.54 142.95 73.52 143.29 74.47 143.64 76.84 143.99 78.03 144.33 77.08 144.68 79.92 145.02 80.28 145.37 83.24 145.71 81.34 146.06 83.6 146.41 83.83 146.75 85.02 147.1 82.41 147.44 84.07 147.79 84.31 148.14 83.83 148.48 83 148.83 84.9 149.17 84.78 149.52 85.14 149.86 86.44 150.21 88.69 150.56 89.64 150.9 90.47 151.25 89.99 151.59 91.89 151.94 90.71 152.28 88.22 152.63 87.15 152.98 87.27 153.32 87.98 153.67 86.08 154.01 86.79 154.36 87.51 154.71 88.93 155.05 87.86 155.4 91.89 155.74 92.84 156.09 95.09 156.43 93.79 156.78 93.19 157.13 93.19 157.47 93.67 157.82 93.9 158.16 92.01 158.51 90.23 158.85 89.4 159.2 91.65 159.55 92.36 159.89 91.53 160.24 92.84 160.58 93.79 160.93 92.01 161.28 94.5 161.62 95.68 161.97 93.67 162.31 94.85 162.66 95.21 163 94.5 163.35 92.48 163.7 93.43 164.04 91.06 164.39 89.4 164.73 89.64 165.08 88.45 165.42 88.45 165.77 87.27 166.12 84.78 166.46 86.44 166.81 85.73 167.15 87.86 167.5 87.15 167.85 86.56 168.19 87.03 168.54 92.6 168.88 93.9 169.23 94.38 169.57 96.63 169.92 95.92 170.27 94.38 170.61 95.92 170.96 96.28 171.3 98.05 171.65 96.28 171.99 98.76 172.34 100.42 172.69 102.32 173.03 104.45 173.38 104.21 173.72 106.23 174.07 108.13 174.42 107.65 174.76 109.9 175.11 109.43 175.45 108.36 175.8 108.24 176.14 109.19 176.49 105.99 176.84 105.52 177.18 105.64 177.53 105.87 177.87 103.98 178.22 104.45 178.56 105.52 178.91 105.52 179.26 104.57 179.6 104.93 179.95 104.81 180.29 102.67 180.64 101.13 180.99 101.84 181.33 102.44 181.68 101.84 182.02 104.57 182.37 104.93 182.71 104.81 183.06 104.81 183.41 104.21 183.75 104.57 184.1 104.45 184.44 103.15 184.79 103.86 185.13 103.5 185.48 100.42 185.83 102.79 186.17 100.66 186.52 98.53 186.86 99.59 187.21 96.99 187.56 96.51 187.9 95.33 188.25 95.45 188.59 95.09 188.94 95.21 189.28 95.45 189.63 95.09 189.98 95.68 190.32 95.8 190.67 92.84 191.01 93.31 191.36 92.01 191.7 94.02 192.05 91.65 192.4 94.14 192.74 94.26 193.09 93.55 193.43 93.79 193.78 94.97 194.13 96.04 194.47 96.75 194.82 96.28 195.16 95.68 195.51 96.63 195.85 95.21 196.2 94.26"/>
      </g>
      <g stroke-width="0.3" fill="#000000" fill-opacity="0.000" class="geometry" stroke-dasharray="none" stroke="#FFFFBF" id="img-2962712c-14">
        <path fill="none" d="M23.65,77.79 L 24 76.96 24.34 76.84 24.69 76.48 25.03 78.62 25.38 76.96 25.73 76.96 26.07 77.2 26.42 77.08 26.76 78.38 27.11 76.48 27.45 78.62 27.8 77.67 28.15 75.77 28.49 74 28.84 74.47 29.18 73.17 29.53 71.27 29.88 69.37 30.22 72.1 30.57 71.98 30.91 71.98 31.26 73.29 31.6 71.98 31.95 75.06 32.3 75.77 32.64 73.05 32.99 73.76 33.33 73.17 33.68 74.83 34.02 74.35 34.37 73.17 34.72 69.37 35.06 72.34 35.41 69.37 35.75 68.43 36.1 66.77 36.45 64.52 36.79 64.63 37.14 63.69 37.48 63.57 37.83 61.32 38.17 63.33 38.52 63.69 38.87 63.21 39.21 64.75 39.56 67 39.9 67.72 40.25 64.16 40.59 64.52 40.94 63.81 41.29 60.37 41.63 58.24 41.98 55.15 42.32 54.68 42.67 54.44 43.02 53.97 43.36 53.73 43.71 51.01 44.05 50.89 44.4 51.6 44.74 50.89 45.09 49.58 45.44 51.6 45.78 50.3 46.13 51.13 46.47 51.6 46.82 50.41 47.16 49.11 47.51 47.33 47.86 44.13 48.2 42.12 48.55 42 48.89 41.53 49.24 43.3 49.59 43.07 49.93 44.96 50.28 47.57 50.62 48.4 50.97 47.21 51.31 46.27 51.66 46.86 52.01 46.39 52.35 45.79 52.7 46.98 53.04 49.47 53.39 49.35 53.73 49.35 54.08 47.1 54.43 46.15 54.77 48.28 55.12 49.11 55.46 50.06 55.81 48.4 56.16 49.23 56.5 47.21 56.85 46.5 57.19 47.93 57.54 46.98 57.88 46.74 58.23 46.39 58.58 43.9 58.92 42.71 59.27 46.5 59.61 47.93 59.96 45.08 60.3 45.91 60.65 46.15 61 43.54 61.34 44.02 61.69 44.02 62.03 45.56 62.38 44.73 62.73 43.9 63.07 43.9 63.42 45.79 63.76 45.08 64.11 45.56 64.45 46.98 64.8 49.7 65.15 50.06 65.49 50.89 65.84 52.31 66.18 49.47 66.53 49.7 66.87 48.4 67.22 48.99 67.57 49.35 67.91 48.64 68.26 45.91 68.6 46.15 68.95 43.54 69.3 43.54 69.64 44.96 69.99 44.02 70.33 43.54 70.68 41.64 71.02 42.71 71.37 42.95 71.72 42 72.06 43.42 72.41 43.66 72.75 41.76 73.1 42.83 73.44 43.66 73.79 44.49 74.14 42.36 74.48 41.64 74.83 42 75.17 40.1 75.52 40.22 75.87 40.46 76.21 44.25 76.56 43.54 76.9 46.5 77.25 45.32 77.59 46.62 77.94 48.16 78.29 48.28 78.63 47.93 78.98 48.4 79.32 49.58 79.67 49.11 80.01 49.47 80.36 51.24 80.71 50.18 81.05 52.07 81.4 50.89 81.74 48.99 82.09 50.89 82.44 52.07 82.78 52.07 83.13 52.19 83.47 54.8 83.82 53.73 84.16 54.09 84.51 54.56 84.86 51.6 85.2 54.56 85.55 54.21 85.89 53.02 86.24 55.27 86.58 55.15 86.93 54.44 87.28 54.09 87.62 52.9 87.97 49.82 88.31 49.58 88.66 46.39 89.01 48.76 89.35 50.77 89.7 48.64 90.04 49.7 90.39 49.23 90.73 50.41 91.08 51.84 91.43 52.55 91.77 49.47 92.12 50.3 92.46 51.13 92.81 49.82 93.15 49.82 93.5 49.35 93.85 47.21 94.19 47.57 94.54 47.45 94.88 47.93 95.23 48.04 95.58 47.1 95.92 45.2 96.27 44.96 96.61 46.03 96.96 47.45 97.3 47.93 97.65 49.11 98 49.94 98.34 51.72 98.69 52.19 99.03 51.6 99.38 51.95 99.72 53.02 100.07 50.89 100.42 52.9 100.76 53.38 101.11 51.6 101.45 53.02 101.8 55.27 102.15 56.81 102.49 55.27 102.84 55.87 103.18 56.58 103.53 55.27 103.87 54.32 104.22 54.92 104.57 50.41 104.91 51.72 105.26 49.7 105.6 47.33 105.95 47.21 106.29 47.69 106.64 45.67 106.99 45.44 107.33 45.44 107.68 43.78 108.02 42.95 108.37 42.59 108.72 42 109.06 42.71 109.41 42.83 109.75 44.49 110.1 43.54 110.44 44.49 110.79 46.86 111.14 46.15 111.48 45.2 111.83 45.08 112.17 46.39 112.52 48.28 112.86 48.52 113.21 49.94 113.56 49.23 113.9 50.53 114.25 50.77 114.59 49.82 114.94 48.64 115.29 49.94 115.63 53.14 115.98 52.67 116.32 48.76 116.67 47.33 117.01 47.1 117.36 48.4 117.71 48.28 118.05 47.21 118.4 44.25 118.74 43.19 119.09 43.3 119.43 45.56 119.78 46.15 120.13 46.5 120.47 47.45 120.82 44.61 121.16 44.49 121.51 46.98 121.86 46.98 122.2 45.67 122.55 45.44 122.89 48.16 123.24 46.86 123.58 44.02 123.93 43.78 124.28 42.71 124.62 41.76 124.97 41.53 125.31 39.75 125.66 37.97 126 38.33 126.35 40.58 126.7 40.58 127.04 38.92 127.39 38.68 127.73 39.99 128.08 38.33 128.43 37.26 128.77 38.45 129.12 39.87 129.46 39.75 129.81 39.16 130.15 40.22 130.5 40.7 130.85 40.46 131.19 38.33 131.54 36.79 131.88 36.9 132.23 36.79 132.57 36.55 132.92 35.25 133.27 34.06 133.61 35.01 133.96 34.18 134.3 32.16 134.65 31.45 135 31.81 135.34 33.11 135.69 32.76 136.03 32.28 136.38 31.57 136.72 32.88 137.07 31.93 137.42 31.1 137.76 31.1 138.11 31.69 138.45 31.1 138.8 31.1 139.14 29.79 139.49 30.15 139.84 31.81 140.18 32.4 140.53 32.99 140.87 32.4 141.22 33.35 141.57 33.11 141.91 33.11 142.26 32.52 142.6 31.81 142.95 31.45 143.29 32.4 143.64 32.16 143.99 32.52 144.33 33.23 144.68 32.88 145.02 33.23 145.37 32.4 145.71 32.52 146.06 33.94 146.41 33.59 146.75 31.93 147.1 32.28 147.44 31.93 147.79 31.69 148.14 32.16 148.48 30.98 148.83 29.2 149.17 28.61 149.52 29.32 149.86 28.49 150.21 28.97 150.56 29.91 150.9 31.1 151.25 30.62 151.59 30.74 151.94 29.56 152.28 29.32 152.63 28.25 152.98 28.49 153.32 27.66 153.67 26.95 154.01 27.9 154.36 28.49 154.71 27.78 155.05 29.32 155.4 29.91 155.74 29.79 156.09 29.68 156.43 29.91 156.78 30.03 157.13 29.2 157.47 29.32 157.82 29.68 158.16 29.91 158.51 31.81 158.85 31.69 159.2 32.05 159.55 32.28 159.89 33.11 160.24 33.35 160.58 33.35 160.93 32.16 161.28 31.93 161.62 32.88 161.97 31.69 162.31 31.22 162.66 32.88 163 34.53 163.35 33.71 163.7 35.13 164.04 36.67 164.39 35.96 164.73 35.96 165.08 34.3 165.42 33.35 165.77 32.88 166.12 32.4 166.46 33.59 166.81 33.35 167.15 31.22 167.5 30.39 167.85 31.1 168.19 31.22 168.54 29.91 168.88 29.56 169.23 29.44 169.57 29.44 169.92 30.03 170.27 30.74 170.61 31.34 170.96 31.45 171.3 30.98 171.65 32.05 171.99 32.16 172.34 33.35 172.69 32.88 173.03 34.06 173.38 33.94 173.72 34.53 174.07 35.36 174.42 34.42 174.76 32.99 175.11 33.71 175.45 33.94 175.8 35.25 176.14 34.18 176.49 31.81 176.84 30.86 177.18 29.68 177.53 28.49 177.87 27.66 178.22 27.54 178.56 27.54 178.91 27.78 179.26 26.83 179.6 27.07 179.95 27.54 180.29 27.19 180.64 27.9 180.99 28.14 181.33 28.37 181.68 28.61 182.02 28.25 182.37 28.97 182.71 29.2 183.06 28.61 183.41 28.85 183.75 28.61 184.1 29.32 184.44 28.14 184.79 28.49 185.13 28.61 185.48 27.9 185.83 28.49 186.17 27.9 186.52 28.25 186.86 27.78 187.21 27.54 187.56 27.9 187.9 27.78 188.25 28.49 188.59 28.97 188.94 29.2 189.28 29.79 189.63 30.15 189.98 29.91 190.32 29.44 190.67 28.85 191.01 29.08 191.36 28.97 191.7 28.61 192.05 28.49 192.4 29.32 192.74 28.49 193.09 28.61 193.43 28.37 193.78 28.37 194.13 28.37 194.47 28.02 194.82 28.61 195.16 27.66 195.51 27.07 195.85 27.42 196.2 28.61"/>
      </g>
      <g stroke-width="0.3" fill="#000000" fill-opacity="0.000" class="geometry" stroke-dasharray="none" stroke="#FEE08B" id="img-2962712c-15">
        <path fill="none" d="M23.65,77.79 L 24 78.38 24.34 77.91 24.69 78.38 25.03 76.25 25.38 78.74 25.73 80.28 26.07 83.24 26.42 85.97 26.76 85.02 27.11 87.39 27.45 85.49 27.8 84.31 28.15 88.1 28.49 87.74 28.84 87.15 29.18 86.56 29.53 88.34 29.88 89.52 30.22 91.42 30.57 91.18 30.91 91.89 31.26 89.05 31.6 89.05 31.95 92.25 32.3 92.72 32.64 94.14 32.99 93.31 33.33 92.36 33.68 93.55 34.02 93.55 34.37 93.19 34.72 93.31 35.06 93.79 35.41 92.6 35.75 91.42 36.1 90.94 36.45 88.45 36.79 87.62 37.14 86.32 37.48 87.98 37.83 90.35 38.17 90.94 38.52 89.16 38.87 87.51 39.21 89.76 39.56 90.94 39.9 91.18 40.25 89.99 40.59 92.13 40.94 92.48 41.29 93.31 41.63 95.09 41.98 96.99 42.32 95.8 42.67 93.67 43.02 92.48 43.36 92.72 43.71 94.26 44.05 93.79 44.4 92.96 44.74 90.47 45.09 91.18 45.44 92.36 45.78 91.53 46.13 94.26 46.47 94.38 46.82 91.06 47.16 92.6 47.51 95.56 47.86 94.38 48.2 93.31 48.55 93.67 48.89 94.97 49.24 94.14 49.59 94.02 49.93 95.68 50.28 97.22 50.62 95.92 50.97 97.46 51.31 98.88 51.66 96.39 52.01 97.93 52.35 99.24 52.7 100.9 53.04 101.96 53.39 100.19 53.73 100.78 54.08 101.49 54.43 102.2 54.77 101.73 55.12 103.98 55.46 102.2 55.81 103.03 56.16 104.33 56.5 106.23 56.85 104.33 57.19 100.07 57.54 99.95 57.88 99.71 58.23 98.53 58.58 97.7 58.92 95.21 59.27 96.28 59.61 95.8 59.96 96.51 60.3 95.56 60.65 95.09 61 95.92 61.34 96.63 61.69 98.53 62.03 101.61 62.38 102.2 62.73 102.56 63.07 104.21 63.42 105.87 63.76 104.93 64.11 102.79 64.45 103.98 64.8 104.45 65.15 103.27 65.49 100.42 65.84 100.78 66.18 100.9 66.53 101.25 66.87 102.2 67.22 101.84 67.57 101.02 67.91 102.32 68.26 102.2 68.6 102.91 68.95 104.81 69.3 105.4 69.64 105.04 69.99 105.04 70.33 102.32 70.68 99.12 71.02 99.71 71.37 99.24 71.72 98.05 72.06 96.39 72.41 96.99 72.75 97.34 73.1 96.16 73.44 94.85 73.79 95.45 74.14 93.55 74.48 92.36 74.83 95.09 75.17 90.11 75.52 90.23 75.87 94.02 76.21 91.06 76.56 92.36 76.9 90.71 77.25 88.34 77.59 88.34 77.94 89.64 78.29 91.53 78.63 91.65 78.98 92.6 79.32 92.84 79.67 96.63 80.01 95.92 80.36 95.21 80.71 94.73 81.05 95.33 81.4 92.84 81.74 91.89 82.09 90.23 82.44 90.59 82.78 91.65 83.13 92.84 83.47 91.53 83.82 94.14 84.16 93.9 84.51 94.14 84.86 95.09 85.2 92.84 85.55 92.6 85.89 93.31 86.24 91.77 86.58 91.18 86.93 90.35 87.28 88.22 87.62 89.4 87.97 90.82 88.31 90.82 88.66 93.55 89.01 94.62 89.35 95.09 89.7 92.6 90.04 91.18 90.39 88.93 90.73 89.88 91.08 89.64 91.43 90.11 91.77 89.4 92.12 91.77 92.46 91.42 92.81 93.67 93.15 95.56 93.5 96.87 93.85 95.8 94.19 95.8 94.54 98.17 94.88 98.29 95.23 99.47 95.58 100.42 95.92 101.02 96.27 101.49 96.61 101.49 96.96 102.79 97.3 106.35 97.65 104.33 98 103.98 98.34 105.16 98.69 106.58 99.03 102.67 99.38 102.08 99.72 103.15 100.07 104.45 100.42 109.9 100.76 111.92 101.11 109.31 101.45 107.41 101.8 109.78 102.15 109.07 102.49 110.02 102.84 111.44 103.18 108.95 103.53 110.26 103.87 110.26 104.22 110.38 104.57 112.39 104.91 114.29 105.26 114.52 105.6 114.64 105.95 115 106.29 116.18 106.64 116.07 106.99 116.07 107.33 116.18 107.68 114.76 108.02 115.47 108.37 114.29 108.72 114.17 109.06 111.8 109.41 112.04 109.75 112.39 110.1 113.34 110.44 114.88 110.79 114.64 111.14 114.41 111.48 114.76 111.83 115.35 112.17 116.66 112.52 119.15 112.86 120.92 113.21 121.63 113.56 120.92 113.9 120.45 114.25 120.69 114.59 120.09 114.94 118.91 115.29 118.08 115.63 116.18 115.98 118.55 116.32 118.91 116.67 116.78 117.01 117.25 117.36 116.89 117.71 117.72 118.05 116.54 118.4 117.72 118.74 117.72 119.09 116.18 119.43 115.35 119.78 114.52 120.13 115.35 120.47 113.93 120.82 111.92 121.16 111.68 121.51 111.8 121.86 113.46 122.2 115.12 122.55 115.59 122.89 114.52 123.24 111.21 123.58 111.56 123.93 113.34 124.28 114.29 124.62 113.93 124.97 114.64 125.31 112.98 125.66 112.39 126 112.87 126.35 111.68 126.7 111.8 127.04 110.97 127.39 114.41 127.73 112.51 128.08 112.04 128.43 111.09 128.77 109.43 129.12 110.02 129.46 109.78 129.81 108.95 130.15 110.85 130.5 111.44 130.85 113.93 131.19 112.39 131.54 112.75 131.88 112.75 132.23 112.98 132.57 114.29 132.92 113.46 133.27 112.51 133.61 110.26 133.96 111.09 134.3 111.09 134.65 110.5 135 107.89 135.34 109.67 135.69 110.26 136.03 112.15 136.38 114.41 136.72 112.87 137.07 111.56 137.42 112.39 137.76 112.27 138.11 110.61 138.45 109.07 138.8 106.7 139.14 109.31 139.49 109.55 139.84 113.22 140.18 114.29 140.53 113.46 140.87 113.81 141.22 114.29 141.57 115.95 141.91 116.54 142.26 117.13 142.6 116.66 142.95 116.54 143.29 116.3 143.64 116.54 143.99 117.84 144.33 116.66 144.68 116.66 145.02 115.47 145.37 113.58 145.71 113.93 146.06 113.93 146.41 115.35 146.75 115.12 147.1 114.05 147.44 112.63 147.79 116.54 148.14 116.89 148.48 116.66 148.83 117.37 149.17 118.67 149.52 118.32 149.86 119.03 150.21 118.91 150.56 120.45 150.9 121.16 151.25 121.16 151.59 121.16 151.94 120.21 152.28 121.16 152.63 121.28 152.98 122.11 153.32 123.41 153.67 124.95 154.01 124 154.36 124.6 154.71 125.19 155.05 124.24 155.4 125.9 155.74 126.37 156.09 125.9 156.43 126.14 156.78 125.9 157.13 125.19 157.47 126.14 157.82 126.14 158.16 125.66 158.51 125.55 158.85 123.89 159.2 125.19 159.55 124.95 159.89 122.7 160.24 122.23 160.58 122.35 160.93 122.7 161.28 123.77 161.62 123.29 161.97 122.94 162.31 123.65 162.66 123.41 163 122.7 163.35 123.29 163.7 123.41 164.04 122.11 164.39 121.87 164.73 121.52 165.08 120.33 165.42 118.67 165.77 119.26 166.12 118.44 166.46 117.49 166.81 119.03 167.15 119.5 167.5 119.38 167.85 119.98 168.19 119.15 168.54 120.69 168.88 120.21 169.23 120.09 169.57 120.45 169.92 122.82 170.27 124.6 170.61 125.78 170.96 125.19 171.3 125.43 171.65 126.02 171.99 125.9 172.34 125.9 172.69 125.07 173.03 125.43 173.38 124.72 173.72 124.6 174.07 125.19 174.42 125.19 174.76 125.9 175.11 125.31 175.45 126.49 175.8 125.9 176.14 125.55 176.49 125.43 176.84 125.66 177.18 124.24 177.53 122.46 177.87 121.63 178.22 120.69 178.56 119.86 178.91 119.86 179.26 120.57 179.6 119.74 179.95 119.62 180.29 120.69 180.64 119.62 180.99 119.38 181.33 119.5 181.68 120.69 182.02 121.4 182.37 120.92 182.71 121.16 183.06 121.52 183.41 120.92 183.75 120.81 184.1 122.11 184.44 120.69 184.79 119.62 185.13 120.81 185.48 121.16 185.83 121.99 186.17 122.46 186.52 122.23 186.86 122.7 187.21 121.75 187.56 122.94 187.9 123.06 188.25 122.11 188.59 123.06 188.94 124.12 189.28 125.07 189.63 125.07 189.98 125.55 190.32 125.43 190.67 125.55 191.01 125.07 191.36 124.12 191.7 123.65 192.05 124.36 192.4 124 192.74 123.18 193.09 124.12 193.43 124.48 193.78 124.12 194.13 123.53 194.47 125.19 194.82 126.49 195.16 125.66 195.51 125.78 195.85 124.72 196.2 124.6"/>
      </g>
      <g stroke-width="0.3" fill="#000000" fill-opacity="0.000" class="geometry" stroke-dasharray="none" stroke="#FDAE61" id="img-2962712c-16">
        <path fill="none" d="M23.65,77.79 L 24 78.03 24.34 77.91 24.69 79.21 25.03 78.03 25.38 77.31 25.73 78.5 26.07 75.3 26.42 77.08 26.76 78.62 27.11 78.14 27.45 81.34 27.8 80.16 28.15 78.26 28.49 79.33 28.84 78.14 29.18 76.6 29.53 79.45 29.88 80.4 30.22 82.05 30.57 82.77 30.91 83.48 31.26 83.95 31.6 87.39 31.95 83.36 32.3 82.17 32.64 78.38 32.99 77.43 33.33 79.33 33.68 80.4 34.02 78.86 34.37 75.77 34.72 76.37 35.06 76.6 35.41 80.99 35.75 78.26 36.1 76.13 36.45 78.86 36.79 79.21 37.14 78.14 37.48 78.97 37.83 81.23 38.17 80.04 38.52 80.16 38.87 81.23 39.21 82.29 39.56 80.51 39.9 82.65 40.25 82.29 40.59 80.63 40.94 79.21 41.29 76.01 41.63 74.35 41.98 74.35 42.32 74.59 42.67 76.6 43.02 77.43 43.36 76.37 43.71 73.88 44.05 74.47 44.4 74.83 44.74 75.89 45.09 77.08 45.44 79.33 45.78 80.99 46.13 82.05 46.47 78.14 46.82 81.58 47.16 80.99 47.51 81.7 47.86 80.28 48.2 81.82 48.55 82.05 48.89 80.99 49.24 82.41 49.59 82.77 49.93 86.68 50.28 85.14 50.62 87.15 50.97 89.05 51.31 89.28 51.66 91.53 52.01 89.05 52.35 90.82 52.7 89.88 53.04 90.82 53.39 91.3 53.73 89.64 54.08 91.06 54.43 91.65 54.77 93.19 55.12 93.43 55.46 95.8 55.81 96.16 56.16 94.38 56.5 97.34 56.85 98.41 57.19 98.41 57.54 97.46 57.88 93.67 58.23 93.19 58.58 92.72 58.92 93.19 59.27 92.72 59.61 94.38 59.96 92.36 60.3 95.8 60.65 97.46 61 97.93 61.34 97.82 61.69 96.87 62.03 95.8 62.38 98.65 62.73 99.95 63.07 96.16 63.42 96.87 63.76 96.63 64.11 97.22 64.45 98.53 64.8 97.1 65.15 96.39 65.49 95.33 65.84 93.9 66.18 95.21 66.53 93.31 66.87 93.55 67.22 96.04 67.57 92.84 67.91 88.81 68.26 87.62 68.6 87.03 68.95 85.37 69.3 83.95 69.64 82.65 69.99 84.66 70.33 85.25 70.68 84.66 71.02 87.27 71.37 85.49 71.72 81.23 72.06 79.8 72.41 79.45 72.75 81.46 73.1 80.28 73.44 82.77 73.79 82.17 74.14 81.23 74.48 80.4 74.83 76.13 75.17 75.3 75.52 74.83 75.87 75.66 76.21 77.31 76.56 76.96 76.9 74.23 77.25 72.69 77.59 71.51 77.94 72.93 78.29 72.34 78.63 70.92 78.98 70.56 79.32 69.14 79.67 66.29 80.01 65.7 80.36 66.77 80.71 64.75 81.05 63.92 81.4 62.74 81.74 64.87 82.09 64.87 82.44 63.45 82.78 62.74 83.13 61.32 83.47 60.72 83.82 61.91 84.16 60.61 84.51 59.78 84.86 61.2 85.2 59.06 85.55 61.44 85.89 60.49 86.24 62.38 86.58 60.96 86.93 58.83 87.28 57.76 87.62 58.24 87.97 58.71 88.31 57.29 88.66 52.43 89.01 52.43 89.35 51.13 89.7 51.24 90.04 52.19 90.39 51.36 90.73 54.68 91.08 52.78 91.43 50.41 91.77 53.38 92.12 53.26 92.46 51.36 92.81 52.55 93.15 53.73 93.5 52.07 93.85 57.17 94.19 59.54 94.54 59.18 94.88 61.67 95.23 61.44 95.58 61.79 95.92 63.09 96.27 63.81 96.61 66.53 96.96 68.43 97.3 68.9 97.65 66.18 98 67.48 98.34 69.49 98.69 69.02 99.03 67.95 99.38 68.19 99.72 67.72 100.07 65.58 100.42 63.57 100.76 68.9 101.11 68.55 101.45 66.53 101.8 66.06 102.15 64.87 102.49 63.69 102.84 62.98 103.18 62.15 103.53 61.79 103.87 61.2 104.22 60.72 104.57 59.89 104.91 60.72 105.26 61.08 105.6 62.38 105.95 62.62 106.29 61.79 106.64 62.5 106.99 62.74 107.33 66.65 107.68 67 108.02 66.18 108.37 66.06 108.72 68.55 109.06 70.56 109.41 73.05 109.75 69.49 110.1 71.03 110.44 71.39 110.79 70.32 111.14 71.39 111.48 69.61 111.83 67.48 112.17 68.55 112.52 70.44 112.86 72.22 113.21 72.22 113.56 71.27 113.9 72.81 114.25 72.34 114.59 70.44 114.94 69.61 115.29 70.2 115.63 71.98 115.98 70.92 116.32 72.22 116.67 72.46 117.01 74.11 117.36 74.83 117.71 75.66 118.05 75.42 118.4 75.18 118.74 72.57 119.09 75.66 119.43 77.43 119.78 76.37 120.13 77.31 120.47 77.91 120.82 76.72 121.16 74.59 121.51 74 121.86 73.29 122.2 72.34 122.55 72.46 122.89 71.86 123.24 72.46 123.58 72.22 123.93 70.2 124.28 68.55 124.62 68.9 124.97 68.66 125.31 71.27 125.66 70.8 126 74 126.35 72.93 126.7 75.3 127.04 74.11 127.39 74.71 127.73 76.25 128.08 76.01 128.43 75.3 128.77 70.2 129.12 66.65 129.46 66.18 129.81 64.16 130.15 64.04 130.5 61.67 130.85 63.21 131.19 60.01 131.54 61.44 131.88 60.72 132.23 63.45 132.57 64.16 132.92 65.35 133.27 70.2 133.61 69.49 133.96 69.37 134.3 67.24 134.65 68.19 135 65.35 135.34 63.45 135.69 61.91 136.03 61.08 136.38 59.3 136.72 58.24 137.07 56.69 137.42 57.52 137.76 55.51 138.11 55.04 138.45 52.43 138.8 53.61 139.14 54.32 139.49 55.75 139.84 57.41 140.18 57.88 140.53 59.18 140.87 59.3 141.22 60.13 141.57 62.62 141.91 65.94 142.26 68.07 142.6 67.6 142.95 67.95 143.29 69.49 143.64 69.14 143.99 68.78 144.33 70.92 144.68 72.22 145.02 72.81 145.37 69.85 145.71 68.07 146.06 66.77 146.41 66.06 146.75 65.23 147.1 66.77 147.44 67.95 147.79 69.85 148.14 71.39 148.48 71.51 148.83 71.51 149.17 74.35 149.52 75.66 149.86 74.83 150.21 75.66 150.56 72.34 150.9 73.29 151.25 74.47 151.59 74 151.94 76.84 152.28 79.45 152.63 80.28 152.98 81.7 153.32 82.65 153.67 84.66 154.01 84.9 154.36 81.46 154.71 81.94 155.05 82.77 155.4 81.46 155.74 80.87 156.09 81.11 156.43 80.63 156.78 81.46 157.13 81.7 157.47 80.87 157.82 78.38 158.16 80.4 158.51 82.17 158.85 81.34 159.2 80.16 159.55 78.5 159.89 80.16 160.24 80.16 160.58 81.94 160.93 83.36 161.28 82.65 161.62 84.19 161.97 84.42 162.31 82.17 162.66 85.25 163 85.85 163.35 87.03 163.7 83.71 164.04 83.95 164.39 81.34 164.73 78.74 165.08 77.2 165.42 78.14 165.77 79.57 166.12 79.45 166.46 78.14 166.81 75.3 167.15 74.35 167.5 75.66 167.85 77.43 168.19 78.5 168.54 74.94 168.88 73.4 169.23 71.98 169.57 71.98 169.92 69.61 170.27 70.8 170.61 72.46 170.96 73.88 171.3 75.54 171.65 77.55 171.99 77.55 172.34 78.38 172.69 78.26 173.03 76.84 173.38 77.43 173.72 78.14 174.07 77.55 174.42 79.21 174.76 82.17 175.11 80.51 175.45 77.67 175.8 76.25 176.14 74.35 176.49 76.96 176.84 80.51 177.18 80.63 177.53 81.23 177.87 79.8 178.22 79.57 178.56 80.99 178.91 79.92 179.26 81.7 179.6 83.12 179.95 83.95 180.29 80.4 180.64 82.17 180.99 83.36 181.33 83 181.68 83.24 182.02 83.6 182.37 82.65 182.71 80.75 183.06 81.58 183.41 83.71 183.75 86.08 184.1 83.12 184.44 81.82 184.79 81.58 185.13 83.24 185.48 85.73 185.83 85.02 186.17 83.83 186.52 85.97 186.86 84.07 187.21 83.12 187.56 84.31 187.9 85.37 188.25 86.91 188.59 84.31 188.94 81.58 189.28 80.4 189.63 80.4 189.98 79.8 190.32 78.5 190.67 77.91 191.01 78.03 191.36 76.6 191.7 77.08 192.05 79.21 192.4 76.37 192.74 74.83 193.09 73.52 193.43 74.11 193.78 73.17 194.13 75.18 194.47 73.29 194.82 74 195.16 75.18 195.51 73.64 195.85 75.66 196.2 76.37"/>
      </g>
      <g stroke-width="0.3" fill="#000000" fill-opacity="0.000" class="geometry" stroke-dasharray="none" stroke="#F46D43" id="img-2962712c-17">
        <path fill="none" d="M23.65,77.79 L 24 76.37 24.34 75.18 24.69 74.71 25.03 73.76 25.38 75.06 25.73 73.4 26.07 73.29 26.42 75.18 26.76 75.66 27.11 74.35 27.45 73.52 27.8 72.46 28.15 73.17 28.49 71.51 28.84 72.69 29.18 74.71 29.53 72.34 29.88 69.14 30.22 67.12 30.57 66.41 30.91 69.14 31.26 65.58 31.6 66.41 31.95 65.35 32.3 64.4 32.64 64.4 32.99 62.74 33.33 61.91 33.68 62.26 34.02 61.67 34.37 60.13 34.72 61.08 35.06 62.86 35.41 63.81 35.75 63.69 36.1 61.44 36.45 61.2 36.79 61.2 37.14 60.96 37.48 61.55 37.83 61.32 38.17 67.36 38.52 66.06 38.87 67.12 39.21 67 39.56 66.65 39.9 65.94 40.25 68.55 40.59 69.49 40.94 70.92 41.29 70.44 41.63 67.72 41.98 67.48 42.32 65.11 42.67 63.09 43.02 60.01 43.36 60.84 43.71 63.09 44.05 61.79 44.4 59.89 44.74 56.93 45.09 57.05 45.44 56.93 45.78 55.98 46.13 57.76 46.47 58.71 46.82 57.29 47.16 55.75 47.51 54.21 47.86 54.56 48.2 54.32 48.55 52.55 48.89 55.04 49.24 54.09 49.59 54.32 49.93 53.73 50.28 54.32 50.62 53.5 50.97 55.15 51.31 57.17 51.66 55.98 52.01 58.47 52.35 56.46 52.7 52.9 53.04 53.5 53.39 53.97 53.73 53.61 54.08 52.78 54.43 55.04 54.77 54.44 55.12 55.51 55.46 55.98 55.81 54.92 56.16 53.61 56.5 55.51 56.85 55.39 57.19 55.87 57.54 57.29 57.88 57.76 58.23 56.58 58.58 55.87 58.92 55.98 59.27 55.51 59.61 56.22 59.96 56.81 60.3 55.87 60.65 53.14 61 53.73 61.34 55.87 61.69 57.41 62.03 59.18 62.38 60.72 62.73 62.03 63.07 62.62 63.42 61.44 63.76 61.32 64.11 61.79 64.45 62.86 64.8 58.35 65.15 60.25 65.49 59.89 65.84 58.12 66.18 60.37 66.53 60.37 66.87 60.13 67.22 57.29 67.57 58.47 67.91 59.06 68.26 59.3 68.6 58.47 68.95 59.06 69.3 57.41 69.64 57.41 69.99 56.81 70.33 55.98 70.68 57.05 71.02 58.35 71.37 58 71.72 57.88 72.06 59.54 72.41 56.58 72.75 59.06 73.1 59.66 73.44 57.64 73.79 56.81 74.14 58.71 74.48 57.88 74.83 57.29 75.17 54.21 75.52 52.78 75.87 51.48 76.21 51.48 76.56 53.38 76.9 55.51 77.25 56.81 77.59 55.04 77.94 53.38 78.29 52.55 78.63 53.26 78.98 51.36 79.32 50.89 79.67 49.94 80.01 48.52 80.36 48.16 80.71 49.47 81.05 48.64 81.4 49.11 81.74 48.28 82.09 47.93 82.44 47.1 82.78 45.2 83.13 44.96 83.47 45.2 83.82 45.56 84.16 45.79 84.51 45.67 84.86 46.74 85.2 46.39 85.55 45.08 85.89 46.86 86.24 50.65 86.58 50.18 86.93 52.78 87.28 53.5 87.62 55.15 87.97 51.95 88.31 53.85 88.66 56.69 89.01 55.87 89.35 53.85 89.7 51.95 90.04 52.19 90.39 48.76 90.73 47.81 91.08 48.04 91.43 49.11 91.77 49.47 92.12 49.47 92.46 47.21 92.81 45.67 93.15 46.74 93.5 48.76 93.85 47.69 94.19 48.99 94.54 47.93 94.88 47.33 95.23 52.31 95.58 49.35 95.92 48.04 96.27 48.64 96.61 46.5 96.96 46.5 97.3 46.39 97.65 49.35 98 49.47 98.34 51.72 98.69 50.77 99.03 52.55 99.38 48.99 99.72 49.58 100.07 48.4 100.42 48.99 100.76 48.52 101.11 51.24 101.45 53.97 101.8 55.39 102.15 58.24 102.49 60.37 102.84 58.24 103.18 59.3 103.53 61.32 103.87 60.61 104.22 59.18 104.57 57.76 104.91 56.46 105.26 57.05 105.6 58.12 105.95 60.96 106.29 61.08 106.64 61.2 106.99 62.5 107.33 61.32 107.68 62.15 108.02 59.3 108.37 58.71 108.72 57.17 109.06 53.73 109.41 51.48 109.75 52.19 110.1 50.65 110.44 50.41 110.79 52.67 111.14 52.55 111.48 54.44 111.83 55.15 112.17 56.46 112.52 56.58 112.86 58.24 113.21 61.32 113.56 60.72 113.9 60.96 114.25 60.49 114.59 59.3 114.94 60.01 115.29 60.37 115.63 58.35 115.98 61.32 116.32 64.16 116.67 62.15 117.01 65.23 117.36 63.45 117.71 62.98 118.05 60.84 118.4 60.84 118.74 60.84 119.09 61.67 119.43 62.98 119.78 61.44 120.13 61.55 120.47 57.76 120.82 60.01 121.16 60.25 121.51 59.42 121.86 60.84 122.2 58.95 122.55 58 122.89 58.95 123.24 63.57 123.58 65.35 123.93 65.46 124.28 67.95 124.62 68.66 124.97 67 125.31 66.65 125.66 67.6 126 67.48 126.35 65.35 126.7 64.75 127.04 62.98 127.39 66.06 127.73 68.31 128.08 68.31 128.43 68.31 128.77 71.39 129.12 72.22 129.46 71.63 129.81 67.83 130.15 69.61 130.5 70.92 130.85 68.9 131.19 68.43 131.54 67.95 131.88 68.07 132.23 63.45 132.57 61.55 132.92 59.06 133.27 60.61 133.61 60.37 133.96 61.79 134.3 62.98 134.65 61.32 135 61.55 135.34 61.79 135.69 62.38 136.03 58.83 136.38 57.64 136.72 59.42 137.07 58.24 137.42 58.12 137.76 55.63 138.11 54.21 138.45 50.89 138.8 48.4 139.14 46.86 139.49 47.81 139.84 45.67 140.18 46.74 140.53 44.84 140.87 44.25 141.22 45.91 141.57 47.33 141.91 49.35 142.26 50.77 142.6 49.47 142.95 49.7 143.29 52.9 143.64 54.21 143.99 53.14 144.33 53.85 144.68 54.09 145.02 56.58 145.37 57.29 145.71 60.84 146.06 60.72 146.41 61.2 146.75 61.55 147.1 60.37 147.44 60.96 147.79 60.72 148.14 59.18 148.48 60.37 148.83 62.03 149.17 61.32 149.52 62.98 149.86 61.2 150.21 60.01 150.56 60.37 150.9 57.29 151.25 55.15 151.59 56.93 151.94 58.35 152.28 60.01 152.63 59.78 152.98 61.67 153.32 63.69 153.67 64.52 154.01 63.09 154.36 65.46 154.71 65.46 155.05 64.4 155.4 63.33 155.74 61.2 156.09 59.06 156.43 58.95 156.78 59.42 157.13 58.24 157.47 57.41 157.82 59.18 158.16 58.59 158.51 58.83 158.85 60.01 159.2 60.37 159.55 61.91 159.89 60.96 160.24 62.62 160.58 64.63 160.93 64.87 161.28 65.23 161.62 67 161.97 66.18 162.31 64.16 162.66 66.89 163 67.6 163.35 70.09 163.7 69.73 164.04 69.14 164.39 68.31 164.73 70.56 165.08 71.51 165.42 71.39 165.77 71.74 166.12 73.05 166.46 73.17 166.81 71.86 167.15 71.51 167.5 73.64 167.85 75.89 168.19 76.6 168.54 80.87 168.88 81.11 169.23 80.99 169.57 79.09 169.92 79.8 170.27 77.91 170.61 74.94 170.96 73.76 171.3 73.88 171.65 75.89 171.99 77.67 172.34 77.55 172.69 75.66 173.03 75.66 173.38 75.89 173.72 78.74 174.07 76.13 174.42 79.68 174.76 80.51 175.11 76.48 175.45 76.72 175.8 76.72 176.14 77.55 176.49 77.08 176.84 79.92 177.18 82.29 177.53 80.87 177.87 81.34 178.22 82.77 178.56 85.37 178.91 83.6 179.26 85.14 179.6 86.68 179.95 89.76 180.29 90.71 180.64 88.93 180.99 85.61 181.33 85.73 181.68 87.03 182.02 88.22 182.37 86.44 182.71 85.02 183.06 84.78 183.41 83.36 183.75 83.6 184.1 82.05 184.44 81.23 184.79 78.74 185.13 76.84 185.48 76.6 185.83 78.38 186.17 77.55 186.52 78.97 186.86 79.92 187.21 78.74 187.56 80.63 187.9 83.36 188.25 86.32 188.59 85.02 188.94 86.32 189.28 88.57 189.63 90.11 189.98 91.53 190.32 91.89 190.67 92.13 191.01 89.28 191.36 89.16 191.7 89.88 192.05 86.91 192.4 88.34 192.74 84.66 193.09 84.07 193.43 83.71 193.78 80.75 194.13 80.63 194.47 83.12 194.82 85.85 195.16 84.78 195.51 85.85 195.85 84.9 196.2 86.32"/>
      </g>
      <g stroke-width="0.3" fill="#000000" fill-opacity="0.000" class="geometry" stroke-dasharray="none" stroke="#D53E4F" id="img-2962712c-18">
        <path fill="none" d="M23.65,77.79 L 24 79.68 24.34 79.09 24.69 79.57 25.03 83.71 25.38 85.02 25.73 85.14 26.07 86.08 26.42 85.61 26.76 82.53 27.11 80.75 27.45 82.41 27.8 86.32 28.15 87.27 28.49 88.93 28.84 86.32 29.18 84.31 29.53 85.49 29.88 85.49 30.22 82.88 30.57 82.17 30.91 80.87 31.26 81.11 31.6 78.86 31.95 74.11 32.3 74.47 32.64 73.76 32.99 76.01 33.33 76.72 33.68 76.96 34.02 77.08 34.37 78.62 34.72 76.96 35.06 77.67 35.41 80.28 35.75 81.82 36.1 80.87 36.45 81.82 36.79 81.58 37.14 83 37.48 83.24 37.83 85.85 38.17 85.73 38.52 86.68 38.87 83.95 39.21 83.24 39.56 83.36 39.9 83.12 40.25 87.03 40.59 87.98 40.94 86.91 41.29 83.71 41.63 85.97 41.98 84.31 42.32 86.68 42.67 88.69 43.02 88.1 43.36 86.56 43.71 85.14 44.05 85.85 44.4 84.19 44.74 84.54 45.09 83.71 45.44 80.99 45.78 81.46 46.13 80.51 46.47 82.29 46.82 79.8 47.16 79.21 47.51 81.23 47.86 80.87 48.2 79.21 48.55 78.74 48.89 76.84 49.24 75.3 49.59 76.25 49.93 76.13 50.28 76.48 50.62 72.34 50.97 73.17 51.31 72.69 51.66 73.05 52.01 74.59 52.35 71.39 52.7 69.97 53.04 70.44 53.39 69.85 53.73 69.49 54.08 67.95 54.43 69.73 54.77 66.65 55.12 69.14 55.46 70.44 55.81 68.07 56.16 68.07 56.5 68.07 56.85 67.72 57.19 65.94 57.54 65.58 57.88 64.04 58.23 64.52 58.58 65.7 58.92 62.5 59.27 62.38 59.61 65.35 59.96 66.06 60.3 63.69 60.65 64.87 61 64.52 61.34 63.81 61.69 63.21 62.03 59.78 62.38 58.47 62.73 57.64 63.07 57.76 63.42 59.3 63.76 57.17 64.11 57.88 64.45 58.83 64.8 60.49 65.15 62.5 65.49 65.7 65.84 66.77 66.18 66.53 66.53 66.77 66.87 66.65 67.22 68.66 67.57 67.12 67.91 69.73 68.26 69.14 68.6 69.14 68.95 69.97 69.3 71.03 69.64 73.05 69.99 74.59 70.33 74.35 70.68 73.17 71.02 70.32 71.37 72.81 71.72 75.18 72.06 73.52 72.41 74.71 72.75 76.25 73.1 79.09 73.44 79.09 73.79 79.21 74.14 80.4 74.48 80.75 74.83 81.82 75.17 83.24 75.52 79.92 75.87 83.12 76.21 83.71 76.56 82.17 76.9 80.4 77.25 77.91 77.59 79.45 77.94 81.11 78.29 81.82 78.63 80.87 78.98 80.87 79.32 79.68 79.67 82.65 80.01 82.88 80.36 84.54 80.71 84.54 81.05 85.85 81.4 85.14 81.74 85.61 82.09 84.07 82.44 83 82.78 82.88 83.13 79.09 83.47 79.21 83.82 76.37 84.16 76.6 84.51 74.71 84.86 72.1 85.2 69.97 85.55 75.18 85.89 75.77 86.24 75.89 86.58 74.35 86.93 73.76 87.28 73.17 87.62 73.05 87.97 72.34 88.31 70.32 88.66 67.83 89.01 69.49 89.35 68.07 89.7 67.12 90.04 68.9 90.39 67.36 90.73 66.41 91.08 66.89 91.43 66.41 91.77 65.94 92.12 73.4 92.46 73.76 92.81 74.23 93.15 75.3 93.5 76.6 93.85 78.03 94.19 73.64 94.54 76.25 94.88 76.6 95.23 76.72 95.58 78.74 95.92 77.2 96.27 80.99 96.61 82.17 96.96 80.63 97.3 80.16 97.65 83.48 98 82.17 98.34 80.04 98.69 80.4 99.03 79.21 99.38 77.43 99.72 78.86 100.07 77.31 100.42 78.97 100.76 77.67 101.11 77.55 101.45 76.96 101.8 75.06 102.15 74.71 102.49 76.01 102.84 75.18 103.18 71.03 103.53 69.02 103.87 68.66 104.22 69.97 104.57 67.36 104.91 67.72 105.26 67.12 105.6 67.83 105.95 69.02 106.29 69.49 106.64 65.7 106.99 67.72 107.33 64.4 107.68 64.16 108.02 66.18 108.37 65.94 108.72 68.19 109.06 69.14 109.41 70.44 109.75 70.44 110.1 69.85 110.44 70.68 110.79 70.92 111.14 71.63 111.48 69.37 111.83 69.14 112.17 66.53 112.52 68.07 112.86 68.66 113.21 66.89 113.56 68.31 113.9 67.72 114.25 65.46 114.59 64.4 114.94 65.46 115.29 66.18 115.63 64.52 115.98 64.04 116.32 59.42 116.67 57.17 117.01 57.05 117.36 55.39 117.71 55.15 118.05 57.41 118.4 58.83 118.74 59.06 119.09 60.49 119.43 60.61 119.78 58.71 120.13 57.76 120.47 60.61 120.82 63.57 121.16 62.03 121.51 62.86 121.86 62.86 122.2 62.5 122.55 63.09 122.89 65.23 123.24 66.41 123.58 65.23 123.93 67.12 124.28 66.53 124.62 64.75 124.97 65.23 125.31 64.4 125.66 64.63 126 63.09 126.35 63.57 126.7 64.63 127.04 66.89 127.39 65.23 127.73 64.4 128.08 66.18 128.43 66.29 128.77 65.11 129.12 65.46 129.46 64.16 129.81 67.12 130.15 65.58 130.5 63.81 130.85 64.87 131.19 62.86 131.54 63.09 131.88 61.79 132.23 64.28 132.57 65.35 132.92 65.23 133.27 64.99 133.61 62.62 133.96 65.11 134.3 65.46 134.65 66.65 135 69.49 135.34 69.26 135.69 72.93 136.03 72.46 136.38 72.69 136.72 75.3 137.07 76.48 137.42 76.25 137.76 75.06 138.11 74.71 138.45 74.59 138.8 75.54 139.14 74.83 139.49 76.84 139.84 73.76 140.18 75.77 140.53 77.55 140.87 75.66 141.22 77.55 141.57 74.94 141.91 72.57 142.26 71.63 142.6 73.17 142.95 71.98 143.29 71.86 143.64 72.69 143.99 75.06 144.33 74.94 144.68 76.01 145.02 75.77 145.37 74.59 145.71 76.01 146.06 74.23 146.41 77.79 146.75 77.43 147.1 76.84 147.44 77.08 147.79 77.91 148.14 76.48 148.48 77.31 148.83 78.86 149.17 78.14 149.52 78.97 149.86 79.21 150.21 78.14 150.56 79.57 150.9 79.57 151.25 82.17 151.59 82.41 151.94 81.46 152.28 79.92 152.63 78.26 152.98 78.38 153.32 78.03 153.67 78.03 154.01 79.09 154.36 78.03 154.71 76.25 155.05 75.18 155.4 76.25 155.74 74.94 156.09 74.59 156.43 73.05 156.78 74.83 157.13 77.31 157.47 78.74 157.82 78.74 158.16 80.87 158.51 80.4 158.85 79.68 159.2 79.21 159.55 76.25 159.89 79.57 160.24 82.65 160.58 80.63 160.93 81.11 161.28 80.28 161.62 80.75 161.97 79.33 162.31 80.99 162.66 82.17 163 79.21 163.35 75.89 163.7 76.48 164.04 79.33 164.39 81.11 164.73 81.82 165.08 79.92 165.42 79.09 165.77 79.8 166.12 77.55 166.46 75.06 166.81 72.81 167.15 71.74 167.5 73.52 167.85 73.76 168.19 72.57 168.54 70.09 168.88 69.61 169.23 68.43 169.57 71.27 169.92 71.98 170.27 68.31 170.61 66.53 170.96 68.55 171.3 69.37 171.65 70.09 171.99 71.03 172.34 69.14 172.69 69.85 173.03 69.61 173.38 68.31 173.72 68.43 174.07 67.83 174.42 69.97 174.76 69.49 175.11 66.53 175.45 67.48 175.8 66.41 176.14 66.06 176.49 65.94 176.84 69.73 177.18 69.14 177.53 68.66 177.87 68.31 178.22 70.56 178.56 71.74 178.91 69.73 179.26 67.72 179.6 66.89 179.95 67.12 180.29 68.07 180.64 68.19 180.99 65.23 181.33 66.77 181.68 66.18 182.02 63.81 182.37 65.94 182.71 68.55 183.06 67.72 183.41 67.72 183.75 66.53 184.1 66.18 184.44 67.36 184.79 69.37 185.13 68.31 185.48 69.61 185.83 68.78 186.17 65.94 186.52 65.46 186.86 65.94 187.21 63.45 187.56 61.32 187.9 64.63 188.25 66.18 188.59 68.07 188.94 68.31 189.28 68.66 189.63 67.95 189.98 68.19 190.32 69.85 190.67 70.68 191.01 69.97 191.36 71.27 191.7 70.8 192.05 69.85 192.4 68.55 192.74 69.97 193.09 67.83 193.43 66.65 193.78 64.04 194.13 65.23 194.47 66.53 194.82 67 195.16 68.07 195.51 67 195.85 64.16 196.2 63.81"/>
      </g>
      <g stroke-width="0.3" fill="#000000" fill-opacity="0.000" class="geometry" stroke-dasharray="none" stroke="#9E0142" id="img-2962712c-19">
        <path fill="none" d="M23.65,77.79 L 24 79.45 24.34 76.96 24.69 79.33 25.03 81.11 25.38 79.45 25.73 81.82 26.07 81.23 26.42 81.46 26.76 83.48 27.11 82.41 27.45 81.58 27.8 80.16 28.15 76.37 28.49 76.6 28.84 75.42 29.18 74.35 29.53 75.89 29.88 75.42 30.22 73.4 30.57 72.22 30.91 70.32 31.26 73.88 31.6 73.64 31.95 70.92 32.3 73.76 32.64 73.64 32.99 76.37 33.33 76.72 33.68 72.57 34.02 76.13 34.37 76.37 34.72 74.94 35.06 75.18 35.41 76.13 35.75 76.01 36.1 76.6 36.45 78.26 36.79 77.43 37.14 78.38 37.48 79.33 37.83 78.97 38.17 80.04 38.52 79.33 38.87 81.94 39.21 84.07 39.56 80.87 39.9 79.57 40.25 80.16 40.59 81.23 40.94 79.45 41.29 79.09 41.63 78.62 41.98 78.38 42.32 76.25 42.67 77.91 43.02 76.72 43.36 79.57 43.71 79.21 44.05 77.67 44.4 79.33 44.74 78.14 45.09 76.25 45.44 77.55 45.78 78.97 46.13 79.09 46.47 80.75 46.82 83.83 47.16 84.42 47.51 81.94 47.86 81.58 48.2 78.26 48.55 77.08 48.89 75.89 49.24 77.79 49.59 79.45 49.93 80.75 50.28 77.2 50.62 78.14 50.97 79.57 51.31 78.38 51.66 78.5 52.01 76.13 52.35 76.37 52.7 76.13 53.04 75.54 53.39 76.01 53.73 78.86 54.08 81.11 54.43 80.87 54.77 78.14 55.12 77.67 55.46 79.09 55.81 81.46 56.16 81.58 56.5 81.11 56.85 81.94 57.19 85.61 57.54 86.79 57.88 84.31 58.23 84.07 58.58 82.53 58.92 85.37 59.27 84.31 59.61 85.49 59.96 85.02 60.3 85.85 60.65 84.54 61 84.54 61.34 85.25 61.69 85.02 62.03 84.78 62.38 81.82 62.73 83.95 63.07 83.48 63.42 83.24 63.76 82.29 64.11 81.7 64.45 80.4 64.8 82.41 65.15 82.41 65.49 84.31 65.84 83.24 66.18 86.08 66.53 82.77 66.87 81.58 67.22 84.19 67.57 83.36 67.91 83.6 68.26 82.77 68.6 82.41 68.95 80.28 69.3 82.77 69.64 83.12 69.99 85.49 70.33 84.42 70.68 83.6 71.02 83.12 71.37 83 71.72 84.42 72.06 87.27 72.41 86.08 72.75 86.79 73.1 86.79 73.44 86.2 73.79 83.24 74.14 85.73 74.48 87.74 74.83 87.27 75.17 85.73 75.52 84.07 75.87 83.36 76.21 83.95 76.56 85.14 76.9 83 77.25 81.7 77.59 82.41 77.94 81.11 78.29 82.05 78.63 81.58 78.98 80.75 79.32 81.23 79.67 82.53 80.01 83.95 80.36 86.32 80.71 87.27 81.05 89.64 81.4 89.16 81.74 90.94 82.09 89.88 82.44 87.15 82.78 84.78 83.13 83.71 83.47 82.65 83.82 83 84.16 86.56 84.51 85.37 84.86 86.68 85.2 86.44 85.55 87.27 85.89 87.98 86.24 90.11 86.58 88.69 86.93 86.56 87.28 85.14 87.62 85.14 87.97 86.91 88.31 87.74 88.66 89.16 89.01 89.16 89.35 88.22 89.7 87.15 90.04 89.4 90.39 87.86 90.73 87.74 91.08 85.14 91.43 85.49 91.77 84.31 92.12 84.19 92.46 84.9 92.81 86.08 93.15 87.62 93.5 85.85 93.85 86.44 94.19 83.36 94.54 83.6 94.88 83.12 95.23 84.54 95.58 85.73 95.92 82.17 96.27 84.54 96.61 83 96.96 82.77 97.3 86.2 97.65 86.32 98 86.56 98.34 87.27 98.69 87.51 99.03 86.32 99.38 89.16 99.72 88.69 100.07 88.57 100.42 89.76 100.76 88.81 101.11 86.91 101.45 83.24 101.8 82.29 102.15 82.65 102.49 83.48 102.84 82.41 103.18 84.54 103.53 85.02 103.87 84.66 104.22 85.97 104.57 88.81 104.91 90.47 105.26 89.4 105.6 89.4 105.95 88.93 106.29 91.18 106.64 92.36 106.99 90.71 107.33 90.82 107.68 92.36 108.02 91.06 108.37 90.82 108.72 92.13 109.06 92.36 109.41 94.26 109.75 92.13 110.1 94.73 110.44 92.48 110.79 94.26 111.14 94.5 111.48 92.13 111.83 90.71 112.17 89.16 112.52 90.94 112.86 93.79 113.21 90.71 113.56 89.28 113.9 92.01 114.25 92.48 114.59 94.26 114.94 96.04 115.29 92.6 115.63 92.6 115.98 93.43 116.32 94.5 116.67 94.85 117.01 90.59 117.36 93.08 117.71 95.45 118.05 91.65 118.4 93.31 118.74 93.31 119.09 91.77 119.43 93.19 119.78 94.26 120.13 96.04 120.47 95.45 120.82 97.1 121.16 96.28 121.51 94.62 121.86 95.33 122.2 95.33 122.55 96.63 122.89 96.75 123.24 97.34 123.58 97.93 123.93 98.76 124.28 99.36 124.62 97.7 124.97 97.58 125.31 97.82 125.66 99.36 126 100.19 126.35 99.47 126.7 98.65 127.04 98.65 127.39 98.88 127.73 98.65 128.08 97.7 128.43 98.05 128.77 99.59 129.12 97.46 129.46 98.05 129.81 100.42 130.15 98.29 130.5 97.1 130.85 96.75 131.19 94.85 131.54 94.62 131.88 94.38 132.23 93.31 132.57 92.13 132.92 92.72 133.27 95.09 133.61 92.01 133.96 92.48 134.3 92.84 134.65 92.84 135 93.31 135.34 92.01 135.69 92.84 136.03 90.94 136.38 92.48 136.72 90.47 137.07 85.85 137.42 86.91 137.76 89.76 138.11 87.03 138.45 89.28 138.8 87.15 139.14 86.08 139.49 86.91 139.84 85.85 140.18 83.48 140.53 83.24 140.87 82.41 141.22 83.83 141.57 81.46 141.91 84.19 142.26 85.49 142.6 88.1 142.95 86.68 143.29 87.62 143.64 87.15 143.99 88.45 144.33 88.69 144.68 90.23 145.02 92.48 145.37 92.96 145.71 93.43 146.06 90.71 146.41 94.14 146.75 95.45 147.1 91.77 147.44 87.86 147.79 86.68 148.14 87.39 148.48 86.91 148.83 88.81 149.17 85.85 149.52 86.68 149.86 83.71 150.21 82.65 150.56 81.94 150.9 83.36 151.25 80.63 151.59 81.23 151.94 83.71 152.28 85.25 152.63 83.71 152.98 82.53 153.32 82.41 153.67 84.31 154.01 86.44 154.36 83.71 154.71 81.58 155.05 81.82 155.4 84.54 155.74 83.48 156.09 82.77 156.43 81.34 156.78 82.29 157.13 79.45 157.47 80.99 157.82 80.51 158.16 79.92 158.51 79.8 158.85 79.68 159.2 77.31 159.55 74.83 159.89 72.57 160.24 71.27 160.58 72.1 160.93 74.11 161.28 76.84 161.62 74.83 161.97 72.69 162.31 74.71 162.66 73.88 163 74 163.35 74 163.7 73.05 164.04 75.18 164.39 73.76 164.73 70.92 165.08 70.92 165.42 72.93 165.77 73.05 166.12 70.2 166.46 71.74 166.81 74 167.15 75.18 167.5 74 167.85 77.55 168.19 81.11 168.54 81.23 168.88 80.04 169.23 81.58 169.57 80.04 169.92 83 170.27 81.94 170.61 83.48 170.96 80.75 171.3 77.43 171.65 77.79 171.99 81.58 172.34 80.04 172.69 80.63 173.03 79.8 173.38 79.8 173.72 77.31 174.07 75.54 174.42 78.62 174.76 77.55 175.11 75.89 175.45 77.67 175.8 75.66 176.14 74.83 176.49 75.42 176.84 74.59 177.18 73.76 177.53 77.55 177.87 76.96 178.22 78.62 178.56 79.57 178.91 77.43 179.26 79.68 179.6 79.09 179.95 79.8 180.29 80.63 180.64 80.16 180.99 80.28 181.33 80.28 181.68 77.55 182.02 78.97 182.37 80.16 182.71 79.21 183.06 80.16 183.41 78.26 183.75 78.62 184.1 78.86 184.44 78.5 184.79 76.84 185.13 76.25 185.48 75.3 185.83 80.16 186.17 76.96 186.52 76.37 186.86 78.74 187.21 76.72 187.56 76.48 187.9 76.84 188.25 78.14 188.59 79.8 188.94 79.57 189.28 80.51 189.63 77.79 189.98 76.72 190.32 77.91 190.67 76.96 191.01 76.96 191.36 78.38 191.7 79.68 192.05 79.92 192.4 81.34 192.74 81.82 193.09 80.75 193.43 83.24 193.78 83.24 194.13 81.82 194.47 81.82 194.82 79.92 195.16 81.34 195.51 82.17 195.85 81.11 196.2 82.65"/>
      </g>
    </g>
  </g>
</g>
  <g class="guide ylabels" font-size="2.82" font-family="'PT Sans Caption','Helvetica Neue','Helvetica',sans-serif" fill="#000000" id="img-2962712c-20">
    <text x="20.3" y="131.11" text-anchor="end" dy="0.35em">0</text>
    <text x="20.3" y="101.49" text-anchor="end" dy="0.35em">250</text>
    <text x="20.3" y="71.86" text-anchor="end" dy="0.35em">500</text>
    <text x="20.3" y="42.24" text-anchor="end" dy="0.35em">750</text>
    <text x="20.3" y="12.61" text-anchor="end" dy="0.35em">1000</text>
  </g>
  <g font-size="3.88" font-family="'PT Sans','Helvetica Neue','Helvetica',sans-serif" fill="#000000" stroke="#000000" stroke-opacity="0.000" id="img-2962712c-21">
    <text x="8.81" y="69.86" text-anchor="middle" dy="0.35em" transform="rotate(-90, 8.81, 71.86)">population number</text>
  </g>
  <g font-size="3.88" font-family="'PT Sans','Helvetica Neue','Helvetica',sans-serif" fill="#000000" stroke="#000000" stroke-opacity="0.000" id="img-2962712c-22">
    <text x="109.75" y="5" text-anchor="middle" dy="0.6em">genetic drift</text>
  </g>
</g>
<defs>
  <clipPath id="img-2962712c-4">
  <path d="M21.31,10.61 L 198.2 10.61 198.2 133.11 21.31 133.11" />
</clipPath>
</defs>
</svg>
