<?xml version="1.0" encoding="UTF-8"?>
<svg xmlns="http://www.w3.org/2000/svg"
     xmlns:xlink="http://www.w3.org/1999/xlink"
     xmlns:gadfly="http://www.gadflyjl.org/ns"
     version="1.2"
     width="203.2mm" height="152.4mm" viewBox="0 0 203.2 152.4"
     stroke="none"
     fill="#000000"
     stroke-width="0.3"
     font-size="3.88"
>
<g class="plotroot xscalable yscalable" id="img-d8e002c9-1">
  <g font-size="3.88" font-family="'PT Sans','Helvetica Neue','Helvetica',sans-serif" fill="#000000" stroke="#000000" stroke-opacity="0.000" id="img-d8e002c9-2">
    <text x="109.75" y="140.79" text-anchor="middle" dy="0.6em">generation number</text>
  </g>
  <g class="guide xlabels" font-size="2.82" font-family="'PT Sans Caption','Helvetica Neue','Helvetica',sans-serif" fill="#000000" id="img-d8e002c9-3">
    <text x="23.31" y="134.11" text-anchor="middle" dy="0.6em">0</text>
    <text x="57.88" y="134.11" text-anchor="middle" dy="0.6em">100</text>
    <text x="92.46" y="134.11" text-anchor="middle" dy="0.6em">200</text>
    <text x="127.04" y="134.11" text-anchor="middle" dy="0.6em">300</text>
    <text x="161.62" y="134.11" text-anchor="middle" dy="0.6em">400</text>
    <text x="196.2" y="134.11" text-anchor="middle" dy="0.6em">500</text>
  </g>
<g clip-path="url(#img-d8e002c9-4)">
  <g id="img-d8e002c9-5">
    <g pointer-events="visible" opacity="1" fill="#FFFFFF" stroke="#000000" stroke-opacity="0.000" class="guide background" id="img-d8e002c9-6">
      <rect x="21.31" y="10.61" width="176.89" height="122.5"/>
    </g>
    <g class="guide ygridlines xfixed" stroke-dasharray="0.5,0.5" stroke-width="0.2" stroke="#808080" id="img-d8e002c9-7">
      <path fill="none" d="M21.31,131.11 L 198.2 131.11"/>
      <path fill="none" d="M21.31,101.49 L 198.2 101.49"/>
      <path fill="none" d="M21.31,71.86 L 198.2 71.86"/>
      <path fill="none" d="M21.31,42.24 L 198.2 42.24"/>
      <path fill="none" d="M21.31,12.61 L 198.2 12.61"/>
    </g>
    <g class="guide xgridlines yfixed" stroke-dasharray="0.5,0.5" stroke-width="0.2" stroke="#808080" id="img-d8e002c9-8">
      <path fill="none" d="M23.31,10.61 L 23.31 133.11"/>
      <path fill="none" d="M57.88,10.61 L 57.88 133.11"/>
      <path fill="none" d="M92.46,10.61 L 92.46 133.11"/>
      <path fill="none" d="M127.04,10.61 L 127.04 133.11"/>
      <path fill="none" d="M161.62,10.61 L 161.62 133.11"/>
      <path fill="none" d="M196.2,10.61 L 196.2 133.11"/>
    </g>
    <g class="plotpanel" id="img-d8e002c9-9">
      <g stroke-width="0.3" fill="#000000" fill-opacity="0.000" class="geometry" stroke-dasharray="none" stroke="#3288BD" id="img-d8e002c9-10">
        <path fill="none" d="M23.65,77.79 L 24 80.51 24.34 79.92 24.69 77.79 25.03 78.86 25.38 79.21 25.73 79.09 26.07 82.41 26.42 83 26.76 84.66 27.11 85.49 27.45 87.39 27.8 85.25 28.15 85.97 28.49 80.51 28.84 81.94 29.18 81.46 29.53 82.88 29.88 83.95 30.22 84.31 30.57 87.86 30.91 82.29 31.26 82.65 31.6 79.57 31.95 76.96 32.3 77.67 32.64 77.67 32.99 77.31 33.33 76.37 33.68 77.91 34.02 78.14 34.37 79.8 34.72 78.38 35.06 81.58 35.41 80.16 35.75 80.4 36.1 79.45 36.45 77.43 36.79 74.35 37.14 73.29 37.48 73.52 37.83 75.18 38.17 75.42 38.52 74.71 38.87 76.96 39.21 81.34 39.56 80.28 39.9 79.45 40.25 78.5 40.59 77.43 40.94 74.47 41.29 74.11 41.63 71.86 41.98 72.22 42.32 70.09 42.67 70.09 43.02 71.74 43.36 71.86 43.71 71.03 44.05 72.57 44.4 73.64 44.74 72.22 45.09 70.44 45.44 68.55 45.78 72.22 46.13 72.93 46.47 71.15 46.82 74.71 47.16 74.11 47.51 71.15 47.86 66.65 48.2 65.46 48.55 67.72 48.89 68.66 49.24 67.6 49.59 66.41 49.93 66.77 50.28 68.66 50.62 67.24 50.97 66.77 51.31 68.43 51.66 66.06 52.01 66.41 52.35 64.28 52.7 64.52 53.04 64.04 53.39 61.67 53.73 63.09 54.08 63.09 54.43 61.79 54.77 62.15 55.12 63.45 55.46 59.42 55.81 59.42 56.16 60.01 56.5 60.49 56.85 60.37 57.19 60.25 57.54 58.24 57.88 59.66 58.23 60.13 58.58 61.08 58.92 60.84 59.27 62.38 59.61 61.55 59.96 63.33 60.3 65.7 60.65 67.24 61 65.58 61.34 69.49 61.69 68.9 62.03 66.41 62.38 69.85 62.73 68.9 63.07 68.9 63.42 66.53 63.76 67.12 64.11 66.29 64.45 67.12 64.8 67.36 65.15 67 65.49 67.12 65.84 65.11 66.18 65.35 66.53 62.03 66.87 59.06 67.22 58.95 67.57 58.95 67.91 56.22 68.26 57.76 68.6 57.05 68.95 57.29 69.3 55.63 69.64 54.32 69.99 52.55 70.33 52.19 70.68 53.14 71.02 55.39 71.37 56.58 71.72 55.51 72.06 54.44 72.41 53.61 72.75 55.04 73.1 55.39 73.44 56.69 73.79 58.35 74.14 58.95 74.48 56.46 74.83 54.44 75.17 52.67 75.52 52.07 75.87 53.85 76.21 55.75 76.56 57.52 76.9 55.15 77.25 54.21 77.59 52.67 77.94 53.5 78.29 53.73 78.63 54.21 78.98 54.32 79.32 54.44 79.67 54.8 80.01 55.98 80.36 56.81 80.71 56.93 81.05 57.05 81.4 58 81.74 56.58 82.09 54.68 82.44 52.78 82.78 53.61 83.13 51.36 83.47 50.06 83.82 53.5 84.16 55.27 84.51 53.38 84.86 54.68 85.2 54.68 85.55 53.14 85.89 53.5 86.24 54.92 86.58 57.29 86.93 58.12 87.28 55.15 87.62 57.76 87.97 57.76 88.31 58 88.66 60.25 89.01 60.37 89.35 61.44 89.7 61.08 90.04 63.81 90.39 61.55 90.73 61.91 91.08 64.4 91.43 66.65 91.77 66.77 92.12 67.48 92.46 68.55 92.81 71.15 93.15 71.03 93.5 67.95 93.85 69.61 94.19 69.73 94.54 68.07 94.88 65.94 95.23 67.24 95.58 65.35 95.92 65.94 96.27 67.12 96.61 68.31 96.96 68.66 97.3 69.14 97.65 70.56 98 71.15 98.34 68.78 98.69 71.39 99.03 71.86 99.38 73.29 99.72 72.46 100.07 70.8 100.42 71.74 100.76 70.92 101.11 70.56 101.45 74.83 101.8 78.03 102.15 77.43 102.49 75.89 102.84 76.01 103.18 71.63 103.53 72.46 103.87 72.46 104.22 73.76 104.57 74.23 104.91 71.15 105.26 73.29 105.6 72.69 105.95 72.69 106.29 74 106.64 71.51 106.99 71.27 107.33 72.46 107.68 70.68 108.02 70.68 108.37 68.31 108.72 72.22 109.06 71.03 109.41 71.27 109.75 72.69 110.1 69.85 110.44 70.44 110.79 73.4 111.14 76.13 111.48 74.71 111.83 73.17 112.17 73.17 112.52 75.3 112.86 73.76 113.21 72.69 113.56 70.2 113.9 70.09 114.25 68.55 114.59 68.43 114.94 67.12 115.29 67.83 115.63 69.37 115.98 66.18 116.32 64.87 116.67 65.94 117.01 66.18 117.36 69.61 117.71 69.97 118.05 69.73 118.4 71.98 118.74 72.81 119.09 69.02 119.43 69.26 119.78 68.78 120.13 65.94 120.47 66.18 120.82 67.24 121.16 65.82 121.51 65.35 121.86 69.61 122.2 68.07 122.55 69.85 122.89 68.19 123.24 68.19 123.58 68.07 123.93 68.55 124.28 68.19 124.62 66.65 124.97 69.85 125.31 69.61 125.66 71.63 126 73.29 126.35 72.69 126.7 70.8 127.04 71.74 127.39 73.64 127.73 70.92 128.08 68.78 128.43 68.19 128.77 68.55 129.12 70.2 129.46 69.49 129.81 67.6 130.15 67.95 130.5 68.19 130.85 66.53 131.19 64.52 131.54 64.63 131.88 63.69 132.23 63.09 132.57 59.3 132.92 60.84 133.27 62.15 133.61 64.28 133.96 62.5 134.3 60.72 134.65 60.01 135 62.38 135.34 64.4 135.69 64.28 136.03 64.4 136.38 64.63 136.72 62.74 137.07 63.69 137.42 65.46 137.76 68.43 138.11 67 138.45 70.2 138.8 72.22 139.14 75.18 139.49 73.88 139.84 71.15 140.18 73.52 140.53 73.05 140.87 73.64 141.22 69.14 141.57 66.53 141.91 66.53 142.26 67.72 142.6 65.82 142.95 70.09 143.29 71.86 143.64 71.03 143.99 72.22 144.33 69.26 144.68 68.9 145.02 68.43 145.37 68.78 145.71 67.6 146.06 68.07 146.41 69.14 146.75 69.37 147.1 66.41 147.44 65.11 147.79 66.06 148.14 68.19 148.48 68.55 148.83 69.26 149.17 70.2 149.52 71.27 149.86 68.9 150.21 70.32 150.56 69.26 150.9 68.31 151.25 72.69 151.59 73.17 151.94 74.35 152.28 77.91 152.63 77.43 152.98 78.26 153.32 78.62 153.67 76.25 154.01 71.98 154.36 71.86 154.71 74.94 155.05 74.23 155.4 75.54 155.74 72.69 156.09 71.86 156.43 73.29 156.78 74.94 157.13 75.42 157.47 74.94 157.82 78.97 158.16 78.26 158.51 78.74 158.85 80.87 159.2 81.82 159.55 82.65 159.89 83.71 160.24 81.34 160.58 81.46 160.93 78.5 161.28 77.55 161.62 79.21 161.97 74.47 162.31 74.11 162.66 74.35 163 76.13 163.35 77.91 163.7 75.42 164.04 70.8 164.39 70.8 164.73 70.2 165.08 71.86 165.42 73.76 165.77 74.59 166.12 75.54 166.46 73.76 166.81 72.81 167.15 73.76 167.5 72.34 167.85 72.93 168.19 71.98 168.54 69.61 168.88 65.94 169.23 63.81 169.57 63.69 169.92 64.28 170.27 63.57 170.61 65.35 170.96 66.65 171.3 67.36 171.65 64.52 171.99 64.52 172.34 64.87 172.69 63.21 173.03 64.04 173.38 63.09 173.72 61.79 174.07 59.89 174.42 59.06 174.76 58.95 175.11 62.62 175.45 63.92 175.8 62.5 176.14 61.67 176.49 58.95 176.84 59.42 177.18 59.06 177.53 57.05 177.87 56.69 178.22 56.81 178.56 55.98 178.91 55.04 179.26 55.98 179.6 55.51 179.95 56.22 180.29 57.52 180.64 55.75 180.99 53.85 181.33 51.24 181.68 51.24 182.02 55.27 182.37 53.02 182.71 53.85 183.06 56.1 183.41 56.22 183.75 57.64 184.1 54.8 184.44 54.92 184.79 53.97 185.13 55.75 185.48 55.15 185.83 53.26 186.17 55.75 186.52 58.95 186.86 61.2 187.21 61.91 187.56 60.96 187.9 61.55 188.25 62.15 188.59 62.74 188.94 62.15 189.28 61.44 189.63 62.5 189.98 62.5 190.32 60.72 190.67 60.49 191.01 58.95 191.36 60.13 191.7 62.15 192.05 61.08 192.4 60.72 192.74 60.25 193.09 58.83 193.43 60.01 193.78 59.78 194.13 62.15 194.47 63.21 194.82 63.09 195.16 64.4 195.51 63.21 195.85 61.67 196.2 61.67"/>
      </g>
      <g stroke-width="0.3" fill="#000000" fill-opacity="0.000" class="geometry" stroke-dasharray="none" stroke="#66C2A5" id="img-d8e002c9-11">
        <path fill="none" d="M23.65,77.79 L 24 76.96 24.34 75.18 24.69 74.83 25.03 73.29 25.38 73.88 25.73 76.25 26.07 76.25 26.42 73.05 26.76 73.29 27.11 72.46 27.45 73.52 27.8 75.54 28.15 74.11 28.49 74.59 28.84 70.56 29.18 72.69 29.53 67.83 29.88 65.94 30.22 67.48 30.57 67 30.91 68.66 31.26 73.76 31.6 74.83 31.95 74.59 32.3 73.64 32.64 74.83 32.99 73.4 33.33 75.18 33.68 71.86 34.02 69.85 34.37 69.26 34.72 65.94 35.06 66.41 35.41 66.41 35.75 67.48 36.1 66.29 36.45 64.4 36.79 64.63 37.14 67.24 37.48 63.81 37.83 63.69 38.17 65.7 38.52 65.94 38.87 64.75 39.21 64.99 39.56 67.36 39.9 66.18 40.25 65.7 40.59 65.11 40.94 67.12 41.29 70.56 41.63 69.61 41.98 71.15 42.32 72.34 42.67 72.93 43.02 73.88 43.36 74.23 43.71 72.69 44.05 74.11 44.4 74.59 44.74 71.03 45.09 71.63 45.44 70.56 45.78 68.55 46.13 68.66 46.47 69.49 46.82 69.61 47.16 69.61 47.51 72.34 47.86 71.15 48.2 74.83 48.55 76.48 48.89 80.4 49.24 77.91 49.59 78.38 49.93 79.45 50.28 82.77 50.62 82.77 50.97 83.12 51.31 82.77 51.66 84.42 52.01 84.19 52.35 84.54 52.7 85.02 53.04 88.57 53.39 86.68 53.73 84.78 54.08 85.25 54.43 86.2 54.77 84.78 55.12 84.78 55.46 85.49 55.81 86.68 56.16 89.16 56.5 91.06 56.85 92.01 57.19 93.19 57.54 93.31 57.88 94.62 58.23 96.16 58.58 95.09 58.92 96.16 59.27 96.99 59.61 98.29 59.96 99.36 60.3 99.83 60.65 100.66 61 101.13 61.34 98.76 61.69 99.95 62.03 102.44 62.38 101.13 62.73 98.76 63.07 97.58 63.42 99.71 63.76 101.37 64.11 101.49 64.45 100.54 64.8 101.96 65.15 102.44 65.49 105.52 65.84 106.11 66.18 106.47 66.53 106.7 66.87 106.58 67.22 106.11 67.57 108.36 67.91 109.31 68.26 108.24 68.6 106.94 68.95 106.23 69.3 104.69 69.64 106.23 69.99 106.82 70.33 107.3 70.68 106.94 71.02 106.7 71.37 105.87 71.72 105.64 72.06 105.04 72.41 106.47 72.75 105.28 73.1 106.58 73.44 104.81 73.79 102.91 74.14 102.32 74.48 101.02 74.83 100.54 75.17 102.2 75.52 104.45 75.87 103.27 76.21 102.44 76.56 101.84 76.9 100.78 77.25 99.95 77.59 102.08 77.94 101.25 78.29 102.2 78.63 104.21 78.98 103.86 79.32 105.28 79.67 105.4 80.01 105.52 80.36 102.79 80.71 103.86 81.05 106.47 81.4 104.93 81.74 103.03 82.09 103.5 82.44 105.4 82.78 105.04 83.13 104.69 83.47 103.5 83.82 104.69 84.16 106.58 84.51 107.06 84.86 107.18 85.2 106.47 85.55 105.4 85.89 106.35 86.24 106.47 86.58 107.3 86.93 106.35 87.28 106.58 87.62 107.18 87.97 105.52 88.31 108.01 88.66 106.35 89.01 105.04 89.35 106.11 89.7 105.76 90.04 104.57 90.39 104.45 90.73 107.65 91.08 106.94 91.43 107.53 91.77 108.13 92.12 109.07 92.46 110.38 92.81 110.61 93.15 109.67 93.5 109.78 93.85 107.65 94.19 107.3 94.54 107.53 94.88 105.99 95.23 105.16 95.58 104.45 95.92 104.33 96.27 103.98 96.61 104.33 96.96 105.64 97.3 106.58 97.65 106.82 98 105.4 98.34 104.1 98.69 105.04 99.03 103.62 99.38 102.67 99.72 103.86 100.07 105.4 100.42 105.99 100.76 106.23 101.11 103.86 101.45 105.87 101.8 103.74 102.15 101.61 102.49 102.79 102.84 103.27 103.18 103.03 103.53 102.32 103.87 100.19 104.22 100.07 104.57 99.71 104.91 97.46 105.26 94.85 105.6 93.43 105.95 94.73 106.29 94.62 106.64 92.36 106.99 91.77 107.33 90.23 107.68 89.28 108.02 87.86 108.37 91.18 108.72 89.64 109.06 86.56 109.41 87.74 109.75 86.56 110.1 86.32 110.44 85.85 110.79 87.27 111.14 86.79 111.48 85.37 111.83 85.97 112.17 86.32 112.52 83.6 112.86 85.14 113.21 86.2 113.56 82.88 113.9 81.94 114.25 80.63 114.59 81.23 114.94 80.28 115.29 83.83 115.63 84.31 115.98 79.33 116.32 79.92 116.67 79.09 117.01 79.8 117.36 76.72 117.71 77.2 118.05 76.01 118.4 74.47 118.74 73.64 119.09 72.22 119.43 71.74 119.78 71.63 120.13 67.6 120.47 69.37 120.82 68.43 121.16 68.78 121.51 69.49 121.86 67.95 122.2 70.32 122.55 69.85 122.89 70.2 123.24 67.24 123.58 67.83 123.93 68.19 124.28 68.43 124.62 68.43 124.97 69.26 125.31 71.51 125.66 72.93 126 74.94 126.35 75.66 126.7 73.4 127.04 73.76 127.39 74.35 127.73 76.13 128.08 73.4 128.43 76.6 128.77 74 129.12 78.86 129.46 75.77 129.81 76.13 130.15 77.55 130.5 80.51 130.85 82.29 131.19 80.75 131.54 79.92 131.88 80.04 132.23 78.38 132.57 78.97 132.92 80.87 133.27 79.8 133.61 79.45 133.96 76.6 134.3 76.96 134.65 76.48 135 77.08 135.34 76.72 135.69 77.67 136.03 77.91 136.38 77.43 136.72 77.43 137.07 78.62 137.42 78.26 137.76 79.92 138.11 78.97 138.45 79.33 138.8 76.13 139.14 74.59 139.49 77.08 139.84 77.08 140.18 76.48 140.53 72.81 140.87 71.51 141.22 70.92 141.57 69.49 141.91 70.32 142.26 68.66 142.6 67.24 142.95 67.72 143.29 65.46 143.64 65.11 143.99 64.99 144.33 64.04 144.68 62.62 145.02 63.09 145.37 62.38 145.71 61.44 146.06 62.26 146.41 62.15 146.75 60.01 147.1 60.25 147.44 61.91 147.79 60.37 148.14 58.71 148.48 59.66 148.83 60.72 149.17 59.66 149.52 62.62 149.86 63.81 150.21 62.5 150.56 63.45 150.9 60.13 151.25 59.89 151.59 57.17 151.94 55.15 152.28 54.44 152.63 54.21 152.98 52.55 153.32 53.73 153.67 51.72 154.01 49.82 154.36 50.18 154.71 50.65 155.05 51.6 155.4 49.7 155.74 50.41 156.09 50.89 156.43 49.94 156.78 50.53 157.13 49.11 157.47 50.3 157.82 48.99 158.16 48.4 158.51 48.28 158.85 48.52 159.2 45.79 159.55 46.27 159.89 48.4 160.24 46.98 160.58 47.33 160.93 48.16 161.28 48.87 161.62 48.64 161.97 48.76 162.31 46.86 162.66 45.91 163 48.4 163.35 46.98 163.7 44.13 164.04 46.5 164.39 45.32 164.73 44.61 165.08 45.56 165.42 48.04 165.77 49.94 166.12 49.58 166.46 53.14 166.81 54.09 167.15 54.8 167.5 55.75 167.85 55.51 168.19 55.51 168.54 53.85 168.88 52.9 169.23 50.77 169.57 49.82 169.92 47.81 170.27 47.93 170.61 48.52 170.96 50.06 171.3 50.65 171.65 50.41 171.99 50.06 172.34 48.16 172.69 46.03 173.03 44.96 173.38 46.15 173.72 48.87 174.07 49.47 174.42 48.87 174.76 47.69 175.11 49.23 175.45 52.78 175.8 51.36 176.14 53.38 176.49 55.75 176.84 58 177.18 60.37 177.53 60.49 177.87 56.93 178.22 57.05 178.56 53.97 178.91 53.5 179.26 57.05 179.6 56.81 179.95 59.78 180.29 59.3 180.64 57.88 180.99 59.66 181.33 57.88 181.68 57.88 182.02 55.27 182.37 54.21 182.71 51.36 183.06 52.55 183.41 54.09 183.75 53.38 184.1 54.21 184.44 53.02 184.79 53.38 185.13 50.41 185.48 51.36 185.83 52.43 186.17 52.31 186.52 52.31 186.86 53.14 187.21 50.53 187.56 51.13 187.9 51.72 188.25 49.58 188.59 49.58 188.94 48.4 189.28 50.06 189.63 51.48 189.98 49.58 190.32 47.69 190.67 45.44 191.01 46.39 191.36 45.67 191.7 45.2 192.05 43.3 192.4 43.66 192.74 43.66 193.09 44.13 193.43 42.95 193.78 43.19 194.13 43.07 194.47 44.73 194.82 44.49 195.16 47.81 195.51 50.18 195.85 50.53 196.2 47.33"/>
      </g>
      <g stroke-width="0.3" fill="#000000" fill-opacity="0.000" class="geometry" stroke-dasharray="none" stroke="#ABDDA4" id="img-d8e002c9-12">
        <path fill="none" d="M23.65,77.79 L 24 80.04 24.34 80.4 24.69 83.6 25.03 81.34 25.38 80.87 25.73 79.45 26.07 76.84 26.42 76.72 26.76 77.08 27.11 76.25 27.45 77.67 27.8 77.31 28.15 81.11 28.49 81.46 28.84 82.53 29.18 81.58 29.53 81.7 29.88 81.82 30.22 84.9 30.57 86.79 30.91 87.86 31.26 87.74 31.6 85.25 31.95 87.15 32.3 88.22 32.64 87.51 32.99 89.28 33.33 88.45 33.68 88.22 34.02 89.16 34.37 87.15 34.72 84.9 35.06 84.31 35.41 87.51 35.75 88.22 36.1 87.74 36.45 85.37 36.79 85.97 37.14 83.6 37.48 83.95 37.83 85.25 38.17 86.68 38.52 88.22 38.87 89.76 39.21 91.18 39.56 92.36 39.9 94.73 40.25 96.16 40.59 96.51 40.94 97.82 41.29 97.7 41.63 100.54 41.98 100.19 42.32 101.25 42.67 100.9 43.02 100.3 43.36 99.24 43.71 97.58 44.05 97.82 44.4 99.24 44.74 97.1 45.09 96.99 45.44 95.33 45.78 94.5 46.13 95.92 46.47 96.16 46.82 96.63 47.16 98.65 47.51 99.71 47.86 99.59 48.2 94.62 48.55 96.87 48.89 96.51 49.24 96.87 49.59 96.28 49.93 97.22 50.28 93.9 50.62 94.14 50.97 94.97 51.31 96.28 51.66 94.62 52.01 96.63 52.35 94.14 52.7 92.48 53.04 92.96 53.39 93.19 53.73 91.77 54.08 90.94 54.43 91.18 54.77 94.73 55.12 94.62 55.46 95.92 55.81 96.04 56.16 96.99 56.5 95.8 56.85 97.1 57.19 96.99 57.54 99.47 57.88 99.47 58.23 100.3 58.58 101.73 58.92 103.74 59.27 104.81 59.61 105.76 59.96 107.3 60.3 105.4 60.65 105.16 61 103.98 61.34 101.73 61.69 100.3 62.03 101.13 62.38 97.1 62.73 95.92 63.07 96.16 63.42 96.51 63.76 98.53 64.11 94.85 64.45 94.02 64.8 94.62 65.15 93.79 65.49 93.31 65.84 91.89 66.18 92.48 66.53 92.96 66.87 93.9 67.22 99.59 67.57 100.9 67.91 100.78 68.26 103.03 68.6 102.79 68.95 101.61 69.3 101.02 69.64 101.37 69.99 101.96 70.33 104.33 70.68 104.57 71.02 104.93 71.37 106.35 71.72 105.99 72.06 104.57 72.41 105.64 72.75 105.99 73.1 106.58 73.44 107.65 73.79 104.93 74.14 105.64 74.48 105.16 74.83 104.21 75.17 104.69 75.52 105.99 75.87 105.99 76.21 109.07 76.56 109.19 76.9 109.78 77.25 110.02 77.59 108.36 77.94 107.65 78.29 109.43 78.63 107.41 78.98 107.53 79.32 108.24 79.67 107.77 80.01 108.36 80.36 109.19 80.71 109.43 81.05 109.07 81.4 107.89 81.74 106.94 82.09 106.11 82.44 106.47 82.78 109.78 83.13 107.89 83.47 107.53 83.82 107.06 84.16 108.6 84.51 107.41 84.86 108.24 85.2 110.14 85.55 110.38 85.89 112.87 86.24 116.3 86.58 117.01 86.93 119.38 87.28 121.63 87.62 122.58 87.97 121.75 88.31 121.75 88.66 122.23 89.01 121.75 89.35 122.23 89.7 121.63 90.04 121.28 90.39 119.86 90.73 121.63 91.08 122.35 91.43 122.46 91.77 122.23 92.12 124.72 92.46 124.12 92.81 124.83 93.15 125.07 93.5 126.14 93.85 126.37 94.19 126.14 94.54 125.78 94.88 126.02 95.23 126.37 95.58 127.8 95.92 128.15 96.27 127.92 96.61 127.8 96.96 128.15 97.3 127.92 97.65 127.09 98 126.49 98.34 126.02 98.69 125.9 99.03 126.85 99.38 125.19 99.72 125.43 100.07 126.73 100.42 126.26 100.76 126.73 101.11 127.2 101.45 127.68 101.8 128.27 102.15 128.03 102.49 128.63 102.84 129.34 103.18 129.34 103.53 129.57 103.87 128.74 104.22 128.98 104.57 129.34 104.91 129.1 105.26 128.98 105.6 129.46 105.95 128.63 106.29 128.63 106.64 128.98 106.99 128.98 107.33 127.44 107.68 128.51 108.02 129.34 108.37 129.69 108.72 129.46 109.06 129.69 109.41 128.74 109.75 128.51 110.1 128.39 110.44 127.8 110.79 127.32 111.14 127.32 111.48 127.8 111.83 128.51 112.17 127.8 112.52 127.32 112.86 127.09 113.21 127.92 113.56 128.03 113.9 127.2 114.25 127.56 114.59 128.51 114.94 128.27 115.29 127.56 115.63 127.8 115.98 128.27 116.32 128.86 116.67 129.34 117.01 129.46 117.36 129.46 117.71 129.69 118.05 129.93 118.4 129.34 118.74 129.34 119.09 128.74 119.43 128.74 119.78 127.92 120.13 128.86 120.47 128.74 120.82 128.63 121.16 128.51 121.51 128.15 121.86 128.86 122.2 128.27 122.55 127.32 122.89 127.92 123.24 128.39 123.58 128.15 123.93 128.39 124.28 129.34 124.62 129.1 124.97 129.1 125.31 128.39 125.66 128.51 126 128.39 126.35 128.74 126.7 128.63 127.04 128.74 127.39 128.74 127.73 128.03 128.08 128.03 128.43 127.68 128.77 127.68 129.12 127.2 129.46 128.15 129.81 128.39 130.15 128.86 130.5 129.22 130.85 129.81 131.19 129.46 131.54 129.1 131.88 129.69 132.23 130.17 132.57 130.17 132.92 129.69 133.27 130.29 133.61 130.4 133.96 130.17 134.3 130.05 134.65 130.17 135 130.64 135.34 130.88 135.69 131.11"/>
      </g>
      <g stroke-width="0.3" fill="#000000" fill-opacity="0.000" class="geometry" stroke-dasharray="none" stroke="#E6F598" id="img-d8e002c9-13">
        <path fill="none" d="M23.65,77.79 L 24 76.6 24.34 74.35 24.69 73.17 25.03 74.23 25.38 69.73 25.73 73.29 26.07 71.39 26.42 69.37 26.76 69.61 27.11 70.92 27.45 66.89 27.8 67.24 28.15 66.65 28.49 64.52 28.84 62.98 29.18 63.81 29.53 65.46 29.88 66.53 30.22 68.43 30.57 68.55 30.91 64.52 31.26 64.75 31.6 62.74 31.95 65.7 32.3 65.11 32.64 65.35 32.99 63.33 33.33 65.23 33.68 62.74 34.02 63.21 34.37 62.15 34.72 62.5 35.06 65.58 35.41 65.46 35.75 64.87 36.1 63.92 36.45 62.62 36.79 63.69 37.14 64.75 37.48 64.52 37.83 63.81 38.17 62.74 38.52 64.75 38.87 67.12 39.21 68.55 39.56 67.48 39.9 66.89 40.25 71.86 40.59 72.22 40.94 71.63 41.29 72.22 41.63 74.11 41.98 75.18 42.32 77.55 42.67 76.48 43.02 75.54 43.36 74.71 43.71 72.46 44.05 70.44 44.4 70.2 44.74 69.14 45.09 70.2 45.44 70.32 45.78 69.49 46.13 69.14 46.47 69.73 46.82 72.57 47.16 71.27 47.51 69.14 47.86 67.72 48.2 69.85 48.55 70.44 48.89 70.32 49.24 68.9 49.59 68.31 49.93 69.85 50.28 69.49 50.62 73.64 50.97 73.52 51.31 71.15 51.66 69.49 52.01 68.9 52.35 70.68 52.7 73.17 53.04 74.83 53.39 77.43 53.73 78.38 54.08 76.72 54.43 76.48 54.77 77.31 55.12 77.79 55.46 78.38 55.81 76.96 56.16 76.13 56.5 78.14 56.85 81.46 57.19 79.21 57.54 82.41 57.88 82.65 58.23 83 58.58 83.6 58.92 84.54 59.27 84.07 59.61 87.03 59.96 88.22 60.3 87.74 60.65 89.05 61 87.27 61.34 90.82 61.69 90.71 62.03 88.1 62.38 84.42 62.73 84.07 63.07 83.24 63.42 82.41 63.76 82.77 64.11 78.62 64.45 79.09 64.8 78.14 65.15 75.18 65.49 76.96 65.84 75.18 66.18 76.6 66.53 77.91 66.87 77.67 67.22 76.72 67.57 77.79 67.91 77.55 68.26 76.48 68.6 74.59 68.95 75.54 69.3 75.3 69.64 73.64 69.99 76.13 70.33 75.18 70.68 75.66 71.02 76.72 71.37 74.94 71.72 75.42 72.06 73.88 72.41 74.59 72.75 71.74 73.1 72.93 73.44 71.74 73.79 70.2 74.14 68.9 74.48 70.56 74.83 68.9 75.17 71.15 75.52 68.9 75.87 69.37 76.21 69.85 76.56 69.37 76.9 71.98 77.25 75.3 77.59 75.06 77.94 72.57 78.29 72.1 78.63 74.23 78.98 72.93 79.32 73.88 79.67 73.64 80.01 74.11 80.36 73.64 80.71 74.35 81.05 72.81 81.4 76.48 81.74 77.43 82.09 78.5 82.44 80.16 82.78 80.16 83.13 80.51 83.47 78.5 83.82 78.14 84.16 76.72 84.51 76.37 84.86 75.89 85.2 76.37 85.55 75.3 85.89 73.4 86.24 74 86.58 76.96 86.93 76.6 87.28 76.72 87.62 76.72 87.97 74.35 88.31 74 88.66 71.39 89.01 73.88 89.35 74.23 89.7 75.3 90.04 72.93 90.39 71.86 90.73 69.14 91.08 68.07 91.43 67.6 91.77 67 92.12 67 92.46 64.75 92.81 64.99 93.15 65.46 93.5 66.77 93.85 70.32 94.19 71.15 94.54 69.85 94.88 69.97 95.23 67.72 95.58 66.41 95.92 67.83 96.27 68.55 96.61 70.8 96.96 70.09 97.3 68.66 97.65 70.44 98 69.97 98.34 70.92 98.69 70.8 99.03 71.15 99.38 70.44 99.72 66.77 100.07 67.72 100.42 70.68 100.76 67.83 101.11 67.6 101.45 67.72 101.8 68.07 102.15 68.31 102.49 65.58 102.84 65.82 103.18 65.94 103.53 65.94 103.87 62.38 104.22 62.26 104.57 63.09 104.91 64.04 105.26 63.33 105.6 65.58 105.95 68.66 106.29 67.72 106.64 66.77 106.99 63.33 107.33 64.04 107.68 65.7 108.02 66.18 108.37 67.48 108.72 65.11 109.06 63.21 109.41 64.75 109.75 66.65 110.1 63.81 110.44 66.65 110.79 67.83 111.14 66.89 111.48 66.29 111.83 64.52 112.17 60.72 112.52 61.67 112.86 62.26 113.21 61.08 113.56 58.35 113.9 60.13 114.25 58.95 114.59 60.01 114.94 61.2 115.29 61.67 115.63 61.2 115.98 59.54 116.32 59.54 116.67 58.71 117.01 57.64 117.36 59.89 117.71 63.45 118.05 63.81 118.4 65.23 118.74 64.63 119.09 62.62 119.43 62.26 119.78 65.23 120.13 64.16 120.47 64.4 120.82 65.94 121.16 67.83 121.51 67.36 121.86 68.43 122.2 70.56 122.55 72.46 122.89 74.94 123.24 74.59 123.58 71.63 123.93 68.31 124.28 66.89 124.62 67.83 124.97 66.65 125.31 68.78 125.66 69.02 126 67.95 126.35 64.04 126.7 65.94 127.04 66.77 127.39 68.66 127.73 66.89 128.08 65.23 128.43 64.28 128.77 64.04 129.12 65.11 129.46 65.23 129.81 67.12 130.15 65.82 130.5 68.43 130.85 68.9 131.19 70.8 131.54 68.31 131.88 68.9 132.23 67.72 132.57 69.37 132.92 70.56 133.27 72.46 133.61 73.29 133.96 77.55 134.3 77.79 134.65 76.37 135 76.13 135.34 74.59 135.69 72.93 136.03 77.43 136.38 79.21 136.72 78.5 137.07 76.48 137.42 77.31 137.76 76.13 138.11 74.23 138.45 75.54 138.8 75.06 139.14 75.89 139.49 77.67 139.84 74.11 140.18 74.35 140.53 74.47 140.87 74 141.22 71.63 141.57 70.56 141.91 71.15 142.26 71.03 142.6 71.74 142.95 70.56 143.29 68.19 143.64 67 143.99 64.52 144.33 64.75 144.68 65.11 145.02 61.91 145.37 63.33 145.71 62.74 146.06 61.91 146.41 59.3 146.75 59.18 147.1 60.84 147.44 60.84 147.79 63.81 148.14 63.21 148.48 64.75 148.83 62.74 149.17 66.18 149.52 68.19 149.86 69.73 150.21 72.81 150.56 74.47 150.9 72.93 151.25 70.68 151.59 71.51 151.94 71.63 152.28 75.06 152.63 73.88 152.98 74 153.32 74.83 153.67 74.23 154.01 73.76 154.36 74.94 154.71 74.35 155.05 72.46 155.4 77.31 155.74 78.74 156.09 78.38 156.43 79.57 156.78 79.09 157.13 77.31 157.47 73.64 157.82 73.17 158.16 74 158.51 74.83 158.85 75.54 159.2 74.94 159.55 74.83 159.89 78.38 160.24 77.79 160.58 78.5 160.93 81.58 161.28 82.65 161.62 83.36 161.97 83.6 162.31 86.32 162.66 82.77 163 80.51 163.35 80.28 163.7 79.8 164.04 78.74 164.39 77.79 164.73 78.62 165.08 80.4 165.42 77.31 165.77 76.96 166.12 78.14 166.46 79.33 166.81 79.68 167.15 80.99 167.5 84.31 167.85 85.14 168.19 84.54 168.54 83.6 168.88 84.42 169.23 84.66 169.57 82.53 169.92 83.83 170.27 84.9 170.61 84.78 170.96 88.34 171.3 85.61 171.65 86.91 171.99 86.2 172.34 87.27 172.69 83.83 173.03 83.95 173.38 85.25 173.72 85.73 174.07 86.08 174.42 86.2 174.76 89.05 175.11 89.4 175.45 85.02 175.8 86.56 176.14 81.23 176.49 81.7 176.84 81.46 177.18 80.87 177.53 77.67 177.87 77.79 178.22 76.48 178.56 78.86 178.91 78.26 179.26 80.04 179.6 83.12 179.95 82.88 180.29 78.62 180.64 80.04 180.99 77.91 181.33 78.14 181.68 74.59 182.02 73.29 182.37 74.23 182.71 75.77 183.06 75.18 183.41 75.18 183.75 72.22 184.1 71.51 184.44 70.68 184.79 68.31 185.13 64.63 185.48 66.65 185.83 67 186.17 70.09 186.52 71.39 186.86 70.2 187.21 70.92 187.56 72.57 187.9 72.34 188.25 71.51 188.59 70.8 188.94 71.03 189.28 69.97 189.63 69.37 189.98 69.97 190.32 68.78 190.67 68.9 191.01 70.56 191.36 70.44 191.7 68.66 192.05 71.03 192.4 72.57 192.74 70.09 193.09 69.73 193.43 68.55 193.78 69.26 194.13 69.85 194.47 69.85 194.82 70.2 195.16 68.78 195.51 65.94 195.85 66.77 196.2 67.83"/>
      </g>
      <g stroke-width="0.3" fill="#000000" fill-opacity="0.000" class="geometry" stroke-dasharray="none" stroke="#FFFFBF" id="img-d8e002c9-14">
        <path fill="none" d="M23.65,77.79 L 24 77.08 24.34 77.43 24.69 78.62 25.03 77.31 25.38 76.01 25.73 77.91 26.07 78.03 26.42 76.25 26.76 76.84 27.11 76.6 27.45 76.13 27.8 76.84 28.15 75.3 28.49 74.83 28.84 76.6 29.18 77.31 29.53 79.8 29.88 79.68 30.22 81.58 30.57 80.99 30.91 82.29 31.26 84.66 31.6 88.45 31.95 89.99 32.3 90.71 32.64 93.43 32.99 91.18 33.33 91.3 33.68 92.84 34.02 97.22 34.37 98.29 34.72 97.82 35.06 99.95 35.41 99.36 35.75 98.05 36.1 101.02 36.45 102.32 36.79 104.93 37.14 104.45 37.48 105.28 37.83 103.03 38.17 102.79 38.52 104.57 38.87 102.67 39.21 100.9 39.56 102.44 39.9 99.36 40.25 96.75 40.59 99.24 40.94 99.83 41.29 98.17 41.63 100.54 41.98 100.19 42.32 98.88 42.67 101.96 43.02 102.08 43.36 101.73 43.71 101.73 44.05 99.59 44.4 101.37 44.74 99.71 45.09 100.54 45.44 100.3 45.78 98.65 46.13 100.78 46.47 96.51 46.82 94.5 47.16 93.19 47.51 96.99 47.86 94.14 48.2 89.28 48.55 87.39 48.89 86.91 49.24 87.39 49.59 86.44 49.93 86.56 50.28 84.9 50.62 84.9 50.97 87.74 51.31 89.4 51.66 87.15 52.01 89.28 52.35 89.64 52.7 89.52 53.04 88.45 53.39 90.23 53.73 90.11 54.08 92.01 54.43 90.94 54.77 89.28 55.12 87.86 55.46 87.62 55.81 86.56 56.16 88.93 56.5 89.16 56.85 88.45 57.19 87.15 57.54 89.16 57.88 87.39 58.23 83.95 58.58 83.71 58.92 84.31 59.27 85.49 59.61 87.27 59.96 85.97 60.3 83.71 60.65 83 61 82.65 61.34 83.6 61.69 81.58 62.03 82.53 62.38 79.8 62.73 78.97 63.07 80.04 63.42 77.55 63.76 77.79 64.11 81.34 64.45 81.11 64.8 79.8 65.15 80.04 65.49 83.24 65.84 83.36 66.18 83.71 66.53 83.12 66.87 84.9 67.22 85.02 67.57 83.6 67.91 83.71 68.26 81.82 68.6 79.8 68.95 81.58 69.3 83 69.64 84.54 69.99 87.03 70.33 88.1 70.68 88.1 71.02 86.56 71.37 84.66 71.72 83 72.06 83 72.41 81.46 72.75 80.4 73.1 80.63 73.44 76.84 73.79 75.66 74.14 74.83 74.48 74.94 74.83 77.55 75.17 76.72 75.52 74.94 75.87 75.18 76.21 75.54 76.56 76.72 76.9 75.66 77.25 74.71 77.59 71.86 77.94 69.61 78.29 70.09 78.63 71.15 78.98 70.56 79.32 73.64 79.67 71.03 80.01 68.55 80.36 66.89 80.71 64.99 81.05 66.06 81.4 66.29 81.74 66.41 82.09 63.69 82.44 65.11 82.78 68.66 83.13 70.2 83.47 68.55 83.82 68.19 84.16 67.48 84.51 64.99 84.86 65.7 85.2 67.72 85.55 67.48 85.89 65.23 86.24 66.29 86.58 65.94 86.93 65.94 87.28 66.89 87.62 70.09 87.97 66.89 88.31 62.5 88.66 60.13 89.01 57.76 89.35 59.06 89.7 59.3 90.04 57.29 90.39 58.35 90.73 58.35 91.08 58.59 91.43 55.87 91.77 55.27 92.12 53.61 92.46 54.8 92.81 54.32 93.15 54.32 93.5 53.73 93.85 54.21 94.19 53.38 94.54 53.85 94.88 55.75 95.23 55.63 95.58 55.75 95.92 55.63 96.27 59.42 96.61 59.06 96.96 60.96 97.3 60.84 97.65 64.52 98 62.5 98.34 63.09 98.69 60.37 99.03 58.47 99.38 57.88 99.72 58.59 100.07 59.3 100.42 61.67 100.76 61.67 101.11 62.26 101.45 61.44 101.8 59.42 102.15 58 102.49 58.35 102.84 59.42 103.18 58.83 103.53 57.52 103.87 57.05 104.22 58 104.57 56.58 104.91 55.87 105.26 52.43 105.6 52.31 105.95 53.26 106.29 51.36 106.64 50.77 106.99 47.1 107.33 46.86 107.68 46.39 108.02 48.99 108.37 46.74 108.72 47.33 109.06 46.62 109.41 45.08 109.75 46.74 110.1 46.86 110.44 47.21 110.79 45.91 111.14 49.35 111.48 50.18 111.83 49.94 112.17 51.95 112.52 50.41 112.86 48.04 113.21 49.35 113.56 49.58 113.9 48.87 114.25 47.69 114.59 48.64 114.94 46.98 115.29 46.39 115.63 45.2 115.98 43.42 116.32 42.59 116.67 41.88 117.01 41.76 117.36 43.3 117.71 41.17 118.05 39.51 118.4 37.73 118.74 37.5 119.09 36.9 119.43 38.92 119.78 38.68 120.13 38.92 120.47 40.46 120.82 40.58 121.16 41.05 121.51 40.82 121.86 40.93 122.2 42.95 122.55 44.13 122.89 45.44 123.24 46.27 123.58 43.66 123.93 44.02 124.28 44.13 124.62 42.24 124.97 42.71 125.31 41.17 125.66 40.7 126 43.78 126.35 43.07 126.7 43.54 127.04 42.95 127.39 41.88 127.73 42.36 128.08 43.19 128.43 45.44 128.77 46.39 129.12 47.93 129.46 48.28 129.81 47.45 130.15 46.15 130.5 42.47 130.85 43.54 131.19 43.42 131.54 40.7 131.88 41.05 132.23 42.71 132.57 41.41 132.92 42.95 133.27 43.66 133.61 41.64 133.96 41.88 134.3 42.24 134.65 40.93 135 39.75 135.34 39.63 135.69 37.38 136.03 37.62 136.38 37.02 136.72 36.55 137.07 37.73 137.42 39.04 137.76 39.04 138.11 39.51 138.45 40.7 138.8 41.53 139.14 40.58 139.49 38.92 139.84 40.1 140.18 39.63 140.53 40.82 140.87 41.29 141.22 42 141.57 42.83 141.91 43.66 142.26 41.41 142.6 40.34 142.95 42 143.29 42.71 143.64 44.37 143.99 45.79 144.33 47.21 144.68 47.21 145.02 46.62 145.37 46.5 145.71 43.66 146.06 43.54 146.41 42.47 146.75 44.02 147.1 44.25 147.44 45.08 147.79 45.08 148.14 43.66 148.48 41.76 148.83 40.58 149.17 41.17 149.52 41.53 149.86 41.76 150.21 41.05 150.56 41.41 150.9 42.36 151.25 39.04 151.59 39.75 151.94 41.41 152.28 43.3 152.63 44.02 152.98 44.73 153.32 45.32 153.67 43.42 154.01 43.19 154.36 45.08 154.71 48.52 155.05 48.87 155.4 50.18 155.74 51.13 156.09 51.24 156.43 49.7 156.78 45.79 157.13 46.74 157.47 46.62 157.82 46.5 158.16 45.08 158.51 47.1 158.85 45.44 159.2 47.57 159.55 46.5 159.89 45.79 160.24 47.93 160.58 45.79 160.93 46.74 161.28 47.21 161.62 46.74 161.97 44.02 162.31 47.1 162.66 47.93 163 49.58 163.35 51.24 163.7 53.73 164.04 52.07 164.39 49.7 164.73 49.23 165.08 49.11 165.42 48.64 165.77 48.76 166.12 47.21 166.46 48.4 166.81 46.86 167.15 43.54 167.5 42.59 167.85 42.24 168.19 43.42 168.54 44.49 168.88 44.96 169.23 43.42 169.57 40.34 169.92 40.58 170.27 41.29 170.61 41.76 170.96 42.83 171.3 42.24 171.65 41.29 171.99 41.41 172.34 40.46 172.69 42.83 173.03 43.66 173.38 41.41 173.72 40.93 174.07 39.27 174.42 40.34 174.76 40.7 175.11 41.05 175.45 42 175.8 41.29 176.14 39.51 176.49 42.12 176.84 41.64 177.18 38.92 177.53 37.38 177.87 39.99 178.22 40.58 178.56 41.17 178.91 42.71 179.26 43.42 179.6 44.37 179.95 42.47 180.29 40.93 180.64 41.41 180.99 42.36 181.33 41.29 181.68 41.17 182.02 40.93 182.37 41.76 182.71 40.22 183.06 40.7 183.41 39.75 183.75 38.45 184.1 39.63 184.44 37.97 184.79 39.27 185.13 38.45 185.48 38.21 185.83 39.04 186.17 35.01 186.52 35.72 186.86 36.79 187.21 36.67 187.56 36.31 187.9 36.67 188.25 35.96 188.59 35.96 188.94 37.62 189.28 37.97 189.63 37.02 189.98 36.43 190.32 35.01 190.67 34.42 191.01 35.01 191.36 32.64 191.7 31.34 192.05 31.69 192.4 31.1 192.74 29.91 193.09 31.22 193.43 30.62 193.78 30.74 194.13 30.03 194.47 29.79 194.82 30.15 195.16 29.44 195.51 30.62 195.85 30.27 196.2 30.62"/>
      </g>
      <g stroke-width="0.3" fill="#000000" fill-opacity="0.000" class="geometry" stroke-dasharray="none" stroke="#FEE08B" id="img-d8e002c9-15">
        <path fill="none" d="M23.65,77.79 L 24 79.09 24.34 75.77 24.69 77.55 25.03 77.91 25.38 83.12 25.73 82.53 26.07 83 26.42 82.05 26.76 81.46 27.11 80.4 27.45 82.77 27.8 83 28.15 83.24 28.49 82.41 28.84 82.29 29.18 83.83 29.53 82.65 29.88 80.87 30.22 80.87 30.57 83.36 30.91 84.78 31.26 87.39 31.6 89.16 31.95 88.57 32.3 92.48 32.64 92.01 32.99 90.71 33.33 88.69 33.68 89.28 34.02 93.19 34.37 95.33 34.72 93.08 35.06 93.79 35.41 92.36 35.75 92.6 36.1 91.77 36.45 92.25 36.79 94.02 37.14 92.6 37.48 92.96 37.83 94.97 38.17 96.87 38.52 96.28 38.87 96.04 39.21 93.67 39.56 89.88 39.9 91.42 40.25 91.89 40.59 89.16 40.94 88.69 41.29 87.51 41.63 83.71 41.98 83.6 42.32 84.31 42.67 82.65 43.02 79.57 43.36 80.16 43.71 79.57 44.05 78.97 44.4 80.04 44.74 79.92 45.09 79.57 45.44 80.75 45.78 77.43 46.13 82.77 46.47 82.17 46.82 84.66 47.16 85.37 47.51 86.44 47.86 88.34 48.2 88.45 48.55 89.64 48.89 88.34 49.24 86.68 49.59 91.65 49.93 93.31 50.28 92.84 50.62 92.36 50.97 93.31 51.31 94.26 51.66 96.39 52.01 98.05 52.35 101.02 52.7 99.59 53.04 100.9 53.39 101.37 53.73 101.61 54.08 102.2 54.43 104.81 54.77 104.1 55.12 102.67 55.46 105.16 55.81 103.62 56.16 102.56 56.5 104.57 56.85 105.4 57.19 104.81 57.54 101.61 57.88 99.71 58.23 98.53 58.58 98.76 58.92 98.88 59.27 100.07 59.61 100.3 59.96 100.66 60.3 103.39 60.65 102.79 61 105.4 61.34 105.16 61.69 103.74 62.03 104.1 62.38 105.28 62.73 105.52 63.07 102.32 63.42 102.91 63.76 104.33 64.11 104.21 64.45 104.93 64.8 103.15 65.15 103.39 65.49 102.08 65.84 101.73 66.18 99.24 66.53 98.41 66.87 99.47 67.22 101.25 67.57 100.9 67.91 100.66 68.26 99.83 68.6 101.02 68.95 99.83 69.3 101.37 69.64 103.27 69.99 105.87 70.33 105.4 70.68 104.69 71.02 104.69 71.37 105.4 71.72 107.06 72.06 109.19 72.41 109.9 72.75 110.85 73.1 111.21 73.44 111.44 73.79 111.68 74.14 111.8 74.48 110.14 74.83 112.27 75.17 111.68 75.52 111.68 75.87 111.21 76.21 110.38 76.56 109.19 76.9 108.36 77.25 108.95 77.59 107.41 77.94 105.99 78.29 107.06 78.63 105.4 78.98 108.6 79.32 107.65 79.67 104.69 80.01 105.64 80.36 105.52 80.71 103.27 81.05 102.44 81.4 104.69 81.74 106.58 82.09 106.23 82.44 106.11 82.78 106.47 83.13 107.41 83.47 108.01 83.82 107.06 84.16 108.84 84.51 109.9 84.86 108.36 85.2 111.09 85.55 111.68 85.89 113.22 86.24 113.7 86.58 113.34 86.93 113.34 87.28 113.81 87.62 110.85 87.97 110.73 88.31 110.85 88.66 110.97 89.01 110.14 89.35 106.47 89.7 106.23 90.04 103.39 90.39 102.44 90.73 102.2 91.08 106.23 91.43 107.41 91.77 108.24 92.12 106.11 92.46 104.1 92.81 105.04 93.15 104.93 93.5 106.11 93.85 103.39 94.19 102.32 94.54 101.84 94.88 102.08 95.23 101.02 95.58 99.36 95.92 98.17 96.27 96.99 96.61 93.31 96.96 94.26 97.3 94.73 97.65 95.92 98 98.76 98.34 98.53 98.69 97.1 99.03 99.24 99.38 98.76 99.72 97.93 100.07 97.34 100.42 98.53 100.76 97.46 101.11 97.93 101.45 95.92 101.8 97.46 102.15 95.21 102.49 97.22 102.84 94.02 103.18 96.28 103.53 96.63 103.87 98.65 104.22 100.9 104.57 102.08 104.91 100.42 105.26 98.41 105.6 100.78 105.95 100.9 106.29 103.03 106.64 101.61 106.99 103.62 107.33 102.79 107.68 103.5 108.02 105.64 108.37 105.99 108.72 101.73 109.06 101.96 109.41 98.76 109.75 97.46 110.1 95.8 110.44 94.85 110.79 91.42 111.14 89.64 111.48 88.69 111.83 87.51 112.17 84.78 112.52 84.31 112.86 83.36 113.21 83.48 113.56 84.07 113.9 85.61 114.25 87.15 114.59 89.52 114.94 89.16 115.29 89.28 115.63 91.18 115.98 90.59 116.32 92.01 116.67 89.52 117.01 91.53 117.36 89.88 117.71 88.93 118.05 89.16 118.4 89.88 118.74 88.57 119.09 89.4 119.43 92.6 119.78 95.8 120.13 97.7 120.47 95.8 120.82 97.1 121.16 98.65 121.51 97.34 121.86 99.47 122.2 102.08 122.55 102.2 122.89 100.78 123.24 99.83 123.58 99.71 123.93 100.19 124.28 98.53 124.62 97.46 124.97 94.38 125.31 93.08 125.66 94.02 126 92.84 126.35 91.65 126.7 91.06 127.04 88.22 127.39 90.23 127.73 95.45 128.08 94.62 128.43 93.55 128.77 93.08 129.12 97.58 129.46 97.1 129.81 98.53 130.15 94.97 130.5 94.73 130.85 97.93 131.19 97.46 131.54 96.99 131.88 95.68 132.23 97.46 132.57 97.22 132.92 98.65 133.27 98.29 133.61 96.04 133.96 96.63 134.3 94.62 134.65 94.97 135 95.21 135.34 98.88 135.69 97.7 136.03 98.88 136.38 98.76 136.72 96.75 137.07 98.29 137.42 99.59 137.76 100.78 138.11 101.02 138.45 100.42 138.8 100.54 139.14 96.51 139.49 98.65 139.84 96.99 140.18 98.88 140.53 100.07 140.87 100.42 141.22 100.54 141.57 99.36 141.91 99.95 142.26 99.83 142.6 101.49 142.95 102.08 143.29 103.27 143.64 101.73 143.99 101.25 144.33 99.83 144.68 101.73 145.02 103.03 145.37 101.37 145.71 98.17 146.06 100.42 146.41 101.37 146.75 101.84 147.1 103.74 147.44 104.1 147.79 105.99 148.14 105.64 148.48 106.82 148.83 104.69 149.17 104.93 149.52 103.74 149.86 101.25 150.21 99.59 150.56 97.46 150.9 96.75 151.25 95.92 151.59 98.17 151.94 97.82 152.28 99.12 152.63 100.19 152.98 99.95 153.32 100.07 153.67 100.66 154.01 100.19 154.36 100.54 154.71 100.54 155.05 102.08 155.4 104.1 155.74 103.5 156.09 101.49 156.43 98.76 156.78 100.07 157.13 99.36 157.47 98.53 157.82 99.59 158.16 99.83 158.51 99.12 158.85 97.22 159.2 96.39 159.55 95.68 159.89 94.5 160.24 95.09 160.58 97.46 160.93 99.12 161.28 96.87 161.62 95.8 161.97 96.87 162.31 95.45 162.66 94.62 163 94.73 163.35 95.56 163.7 96.87 164.04 96.28 164.39 96.87 164.73 97.7 165.08 100.07 165.42 101.13 165.77 103.39 166.12 103.98 166.46 103.5 166.81 103.27 167.15 101.61 167.5 101.02 167.85 101.25 168.19 99 168.54 98.41 168.88 95.21 169.23 95.21 169.57 93.9 169.92 95.56 170.27 95.21 170.61 93.31 170.96 91.18 171.3 89.4 171.65 89.64 171.99 90.47 172.34 89.99 172.69 90.94 173.03 93.43 173.38 92.25 173.72 94.14 174.07 92.72 174.42 92.6 174.76 89.05 175.11 88.45 175.45 87.51 175.8 87.62 176.14 88.45 176.49 89.28 176.84 88.81 177.18 88.45 177.53 89.88 177.87 91.06 178.22 90.11 178.56 89.99 178.91 93.19 179.26 94.26 179.6 94.26 179.95 95.68 180.29 95.21 180.64 94.14 180.99 94.85 181.33 94.02 181.68 92.96 182.02 94.02 182.37 92.84 182.71 91.18 183.06 89.4 183.41 92.6 183.75 91.65 184.1 92.48 184.44 94.85 184.79 93.19 185.13 93.08 185.48 91.42 185.83 92.6 186.17 94.02 186.52 93.79 186.86 92.72 187.21 90.47 187.56 93.31 187.9 92.84 188.25 93.08 188.59 94.85 188.94 93.9 189.28 94.02 189.63 96.04 189.98 94.73 190.32 94.97 190.67 97.1 191.01 98.65 191.36 101.02 191.7 103.27 192.05 100.66 192.4 102.08 192.74 99.83 193.09 99.83 193.43 100.07 193.78 100.78 194.13 101.84 194.47 100.19 194.82 99.59 195.16 100.66 195.51 100.54 195.85 101.25 196.2 100.3"/>
      </g>
      <g stroke-width="0.3" fill="#000000" fill-opacity="0.000" class="geometry" stroke-dasharray="none" stroke="#FDAE61" id="img-d8e002c9-16">
        <path fill="none" d="M23.65,77.79 L 24 75.06 24.34 77.2 24.69 78.86 25.03 78.38 25.38 79.92 25.73 78.14 26.07 75.89 26.42 79.09 26.76 80.16 27.11 80.75 27.45 82.77 27.8 82.65 28.15 82.41 28.49 83.12 28.84 81.58 29.18 79.57 29.53 80.28 29.88 82.29 30.22 81.82 30.57 83.12 30.91 80.63 31.26 82.05 31.6 81.7 31.95 82.17 32.3 87.51 32.64 85.97 32.99 87.98 33.33 89.05 33.68 93.79 34.02 94.38 34.37 93.79 34.72 92.13 35.06 90.35 35.41 86.56 35.75 85.25 36.1 83.48 36.45 86.32 36.79 85.49 37.14 85.73 37.48 85.73 37.83 85.61 38.17 85.49 38.52 88.34 38.87 87.62 39.21 87.74 39.56 89.76 39.9 92.36 40.25 91.65 40.59 90.11 40.94 89.4 41.29 90.47 41.63 88.1 41.98 87.15 42.32 86.56 42.67 86.56 43.02 91.53 43.36 89.64 43.71 88.93 44.05 86.2 44.4 83.83 44.74 80.99 45.09 81.46 45.44 81.23 45.78 81.34 46.13 80.28 46.47 80.04 46.82 77.55 47.16 74.83 47.51 79.33 47.86 81.46 48.2 80.16 48.55 81.11 48.89 82.29 49.24 82.65 49.59 81.23 49.93 81.46 50.28 79.45 50.62 82.53 50.97 79.57 51.31 75.89 51.66 76.84 52.01 78.86 52.35 81.7 52.7 81.94 53.04 83.36 53.39 84.54 53.73 84.07 54.08 83.48 54.43 81.11 54.77 82.41 55.12 82.77 55.46 79.8 55.81 79.68 56.16 79.68 56.5 80.99 56.85 83 57.19 83.83 57.54 85.37 57.88 84.07 58.23 85.14 58.58 88.69 58.92 87.51 59.27 87.39 59.61 85.14 59.96 88.57 60.3 87.51 60.65 87.98 61 86.79 61.34 85.73 61.69 83.24 62.03 82.77 62.38 79.57 62.73 77.91 63.07 76.13 63.42 74.47 63.76 72.81 64.11 71.51 64.45 69.49 64.8 66.77 65.15 66.77 65.49 65.46 65.84 67 66.18 66.89 66.53 66.53 66.87 63.45 67.22 64.16 67.57 65.82 67.91 63.81 68.26 64.04 68.6 66.65 68.95 66.06 69.3 66.18 69.64 66.89 69.99 66.53 70.33 65.46 70.68 64.63 71.02 64.75 71.37 64.04 71.72 64.04 72.06 66.53 72.41 66.06 72.75 66.65 73.1 68.07 73.44 67.6 73.79 70.8 74.14 71.27 74.48 74.47 74.83 74 75.17 76.48 75.52 77.2 75.87 80.28 76.21 81.46 76.56 83.12 76.9 83 77.25 85.37 77.59 85.97 77.94 87.74 78.29 88.22 78.63 86.44 78.98 85.85 79.32 83.71 79.67 83.48 80.01 84.54 80.36 81.7 80.71 79.8 81.05 78.26 81.4 75.54 81.74 76.72 82.09 74 82.44 77.08 82.78 73.88 83.13 73.05 83.47 71.63 83.82 70.92 84.16 70.56 84.51 70.56 84.86 69.14 85.2 69.49 85.55 71.74 85.89 69.97 86.24 67.12 86.58 67.83 86.93 70.56 87.28 68.78 87.62 70.8 87.97 68.9 88.31 68.07 88.66 67.48 89.01 67.12 89.35 64.63 89.7 62.15 90.04 63.21 90.39 60.72 90.73 59.66 91.08 57.41 91.43 59.42 91.77 56.93 92.12 57.76 92.46 57.29 92.81 56.22 93.15 59.89 93.5 60.13 93.85 60.13 94.19 59.18 94.54 60.96 94.88 62.15 95.23 61.44 95.58 61.2 95.92 59.3 96.27 56.1 96.61 55.98 96.96 57.64 97.3 55.51 97.65 58.35 98 56.58 98.34 56.69 98.69 57.76 99.03 57.41 99.38 57.29 99.72 56.22 100.07 58.35 100.42 57.64 100.76 61.79 101.11 60.01 101.45 61.67 101.8 62.15 102.15 61.91 102.49 63.81 102.84 64.28 103.18 64.87 103.53 64.75 103.87 62.86 104.22 63.57 104.57 66.18 104.91 66.89 105.26 69.26 105.6 67.72 105.95 68.31 106.29 68.55 106.64 70.8 106.99 71.63 107.33 70.2 107.68 71.86 108.02 71.51 108.37 70.68 108.72 71.15 109.06 73.64 109.41 71.74 109.75 71.27 110.1 73.05 110.44 76.37 110.79 77.2 111.14 76.6 111.48 75.54 111.83 76.6 112.17 73.64 112.52 78.14 112.86 79.21 113.21 79.68 113.56 79.92 113.9 78.86 114.25 79.21 114.59 79.68 114.94 76.84 115.29 75.77 115.63 75.3 115.98 75.89 116.32 76.6 116.67 72.93 117.01 73.76 117.36 72.57 117.71 76.37 118.05 76.96 118.4 77.79 118.74 74.47 119.09 76.25 119.43 78.38 119.78 80.04 120.13 79.92 120.47 77.55 120.82 75.66 121.16 79.33 121.51 76.72 121.86 76.13 122.2 75.77 122.55 73.4 122.89 74.94 123.24 75.06 123.58 78.14 123.93 77.55 124.28 78.26 124.62 77.08 124.97 80.4 125.31 79.68 125.66 81.7 126 81.7 126.35 83.12 126.7 82.88 127.04 82.29 127.39 83 127.73 82.77 128.08 85.37 128.43 87.03 128.77 85.49 129.12 84.07 129.46 86.32 129.81 86.79 130.15 85.73 130.5 88.34 130.85 89.52 131.19 90.47 131.54 87.27 131.88 85.73 132.23 87.15 132.57 85.85 132.92 82.88 133.27 80.4 133.61 82.53 133.96 84.54 134.3 84.31 134.65 83.71 135 78.86 135.34 79.8 135.69 78.26 136.03 76.72 136.38 78.5 136.72 78.26 137.07 78.14 137.42 77.31 137.76 75.3 138.11 75.3 138.45 75.42 138.8 72.81 139.14 73.05 139.49 73.05 139.84 75.77 140.18 77.43 140.53 76.01 140.87 76.13 141.22 74.59 141.57 75.66 141.91 74.35 142.26 73.64 142.6 72.22 142.95 72.1 143.29 71.27 143.64 71.63 143.99 72.34 144.33 71.63 144.68 72.69 145.02 72.46 145.37 71.39 145.71 71.51 146.06 72.34 146.41 72.22 146.75 72.57 147.1 72.69 147.44 72.1 147.79 70.8 148.14 73.52 148.48 71.74 148.83 67.48 149.17 69.02 149.52 71.51 149.86 71.74 150.21 71.39 150.56 73.52 150.9 74.83 151.25 77.08 151.59 74.35 151.94 74.47 152.28 72.46 152.63 75.77 152.98 72.81 153.32 73.17 153.67 71.63 154.01 70.09 154.36 67.72 154.71 68.78 155.05 69.73 155.4 70.8 155.74 71.15 156.09 73.64 156.43 74.47 156.78 76.13 157.13 77.55 157.47 77.43 157.82 78.74 158.16 78.38 158.51 76.84 158.85 80.87 159.2 79.45 159.55 78.62 159.89 79.21 160.24 79.33 160.58 77.91 160.93 79.57 161.28 80.16 161.62 78.5 161.97 76.13 162.31 75.66 162.66 72.34 163 74.11 163.35 69.26 163.7 69.73 164.04 69.97 164.39 71.98 164.73 71.86 165.08 71.27 165.42 70.32 165.77 70.44 166.12 70.44 166.46 70.09 166.81 69.02 167.15 70.44 167.5 69.02 167.85 69.02 168.19 69.14 168.54 67.6 168.88 71.03 169.23 70.56 169.57 69.02 169.92 69.14 170.27 68.31 170.61 70.56 170.96 65.23 171.3 66.41 171.65 66.89 171.99 69.37 172.34 64.52 172.69 63.57 173.03 61.67 173.38 59.06 173.72 58.47 174.07 58.12 174.42 57.88 174.76 57.64 175.11 61.44 175.45 62.26 175.8 62.5 176.14 62.38 176.49 63.45 176.84 61.79 177.18 63.57 177.53 61.08 177.87 57.76 178.22 56.46 178.56 54.56 178.91 54.56 179.26 54.21 179.6 53.5 179.95 52.43 180.29 50.77 180.64 49.82 180.99 47.81 181.33 46.98 181.68 48.99 182.02 44.73 182.37 44.37 182.71 46.03 183.06 45.67 183.41 47.1 183.75 48.28 184.1 46.15 184.44 44.02 184.79 43.07 185.13 43.9 185.48 44.25 185.83 47.1 186.17 45.91 186.52 44.96 186.86 45.08 187.21 47.45 187.56 47.57 187.9 47.33 188.25 49.94 188.59 49.82 188.94 48.99 189.28 50.18 189.63 51.24 189.98 49.11 190.32 49.94 190.67 52.43 191.01 50.18 191.36 49.35 191.7 49.11 192.05 49.7 192.4 48.99 192.74 47.33 193.09 48.99 193.43 50.41 193.78 48.4 194.13 50.18 194.47 48.4 194.82 47.81 195.16 47.81 195.51 49.47 195.85 48.64 196.2 47.81"/>
      </g>
      <g stroke-width="0.3" fill="#000000" fill-opacity="0.000" class="geometry" stroke-dasharray="none" stroke="#F46D43" id="img-d8e002c9-17">
        <path fill="none" d="M23.65,77.79 L 24 79.8 24.34 80.51 24.69 80.04 25.03 82.05 25.38 83.24 25.73 80.87 26.07 84.07 26.42 86.91 26.76 84.54 27.11 84.78 27.45 87.62 27.8 86.91 28.15 83.6 28.49 84.07 28.84 84.31 29.18 86.32 29.53 88.45 29.88 91.77 30.22 90.71 30.57 92.72 30.91 93.79 31.26 94.62 31.6 95.92 31.95 95.92 32.3 97.82 32.64 96.16 32.99 94.5 33.33 92.48 33.68 92.96 34.02 92.36 34.37 92.13 34.72 91.77 35.06 92.72 35.41 90.47 35.75 90.23 36.1 90.59 36.45 91.42 36.79 91.77 37.14 90.23 37.48 87.51 37.83 88.22 38.17 89.4 38.52 89.99 38.87 90.35 39.21 90.47 39.56 90.71 39.9 93.55 40.25 94.62 40.59 96.75 40.94 99 41.29 98.17 41.63 101.37 41.98 100.07 42.32 97.93 42.67 97.34 43.02 97.58 43.36 97.46 43.71 99.95 44.05 97.7 44.4 97.58 44.74 97.58 45.09 96.87 45.44 96.16 45.78 94.5 46.13 94.85 46.47 93.31 46.82 94.26 47.16 92.36 47.51 96.51 47.86 93.31 48.2 94.5 48.55 92.72 48.89 96.16 49.24 97.46 49.59 98.17 49.93 95.92 50.28 92.96 50.62 93.19 50.97 91.06 51.31 90.71 51.66 91.3 52.01 92.25 52.35 92.48 52.7 94.14 53.04 94.73 53.39 95.21 53.73 92.36 54.08 90.94 54.43 91.42 54.77 92.48 55.12 92.01 55.46 92.01 55.81 90.94 56.16 90.71 56.5 92.25 56.85 92.01 57.19 92.25 57.54 94.14 57.88 92.96 58.23 94.02 58.58 92.48 58.92 91.89 59.27 91.06 59.61 88.81 59.96 89.64 60.3 91.06 60.65 92.72 61 93.9 61.34 94.5 61.69 94.85 62.03 94.73 62.38 93.31 62.73 93.43 63.07 91.18 63.42 91.89 63.76 93.08 64.11 90.11 64.45 89.05 64.8 88.57 65.15 85.85 65.49 87.03 65.84 86.91 66.18 84.9 66.53 87.27 66.87 87.27 67.22 88.22 67.57 87.03 67.91 87.74 68.26 87.74 68.6 87.51 68.95 85.49 69.3 85.25 69.64 86.56 69.99 83.48 70.33 80.99 70.68 78.26 71.02 79.92 71.37 79.8 71.72 82.77 72.06 82.41 72.41 82.88 72.75 83.83 73.1 82.65 73.44 85.25 73.79 84.07 74.14 83.36 74.48 83.36 74.83 83.24 75.17 83.12 75.52 82.05 75.87 85.02 76.21 85.37 76.56 87.74 76.9 87.27 77.25 87.51 77.59 85.97 77.94 87.62 78.29 87.98 78.63 86.56 78.98 89.76 79.32 92.01 79.67 91.06 80.01 90.35 80.36 86.79 80.71 87.98 81.05 86.56 81.4 85.02 81.74 87.27 82.09 85.02 82.44 85.14 82.78 86.08 83.13 88.45 83.47 87.27 83.82 86.2 84.16 87.74 84.51 83.83 84.86 81.94 85.2 79.09 85.55 79.68 85.89 77.91 86.24 78.5 86.58 80.99 86.93 82.29 87.28 83.24 87.62 84.19 87.97 84.31 88.31 84.54 88.66 86.56 89.01 87.62 89.35 89.16 89.7 88.45 90.04 87.86 90.39 87.98 90.73 89.4 91.08 91.18 91.43 91.89 91.77 90.71 92.12 92.01 92.46 92.13 92.81 94.26 93.15 97.1 93.5 96.75 93.85 98.88 94.19 101.13 94.54 100.66 94.88 99.83 95.23 98.17 95.58 97.7 95.92 99 96.27 100.42 96.61 98.88 96.96 98.05 97.3 97.22 97.65 96.16 98 96.39 98.34 95.8 98.69 96.16 99.03 96.04 99.38 94.38 99.72 94.62 100.07 95.33 100.42 93.55 100.76 93.31 101.11 91.06 101.45 91.06 101.8 92.96 102.15 92.36 102.49 92.96 102.84 93.43 103.18 93.31 103.53 95.56 103.87 94.62 104.22 98.29 104.57 101.25 104.91 99.36 105.26 100.9 105.6 100.3 105.95 99.47 106.29 101.13 106.64 100.54 106.99 100.66 107.33 100.19 107.68 102.56 108.02 102.67 108.37 103.98 108.72 106.47 109.06 110.61 109.41 105.76 109.75 104.33 110.1 104.81 110.44 107.18 110.79 106.23 111.14 108.6 111.48 111.56 111.83 113.81 112.17 114.64 112.52 115.83 112.86 115.12 113.21 114.88 113.56 114.88 113.9 115.59 114.25 117.25 114.59 117.37 114.94 116.42 115.29 116.66 115.63 116.18 115.98 116.3 116.32 118.32 116.67 119.5 117.01 119.38 117.36 118.91 117.71 118.91 118.05 119.98 118.4 121.75 118.74 121.28 119.09 120.45 119.43 121.75 119.78 122.23 120.13 122.82 120.47 122.46 120.82 121.75 121.16 120.81 121.51 121.52 121.86 121.75 122.2 122.58 122.55 123.65 122.89 124.48 123.24 123.06 123.58 123.06 123.93 121.63 124.28 123.18 124.62 122.11 124.97 122.46 125.31 122.7 125.66 122.58 126 123.65 126.35 124.83 126.7 125.78 127.04 127.09 127.39 126.97 127.73 126.61 128.08 126.85 128.43 127.09 128.77 126.73 129.12 127.09 129.46 125.78 129.81 124.24 130.15 124.12 130.5 123.65 130.85 122.35 131.19 121.99 131.54 123.18 131.88 125.07 132.23 123.89 132.57 123.89 132.92 123.65 133.27 124.72 133.61 124.83 133.96 124.48 134.3 126.14 134.65 126.37 135 126.85 135.34 127.2 135.69 128.03 136.03 128.27 136.38 128.98 136.72 129.22 137.07 129.69 137.42 130.05 137.76 129.69 138.11 129.1 138.45 128.74 138.8 128.03 139.14 127.92 139.49 127.32 139.84 128.51 140.18 127.92 140.53 127.8 140.87 127.56 141.22 127.68 141.57 127.32 141.91 128.98 142.26 129.57 142.6 129.34 142.95 128.74 143.29 128.39 143.64 127.68 143.99 126.61 144.33 126.26 144.68 127.32 145.02 126.14 145.37 126.73 145.71 126.61 146.06 126.73 146.41 128.03 146.75 129.22 147.1 128.86 147.44 129.46 147.79 128.86 148.14 128.74 148.48 128.98 148.83 129.1 149.17 128.86 149.52 128.98 149.86 129.69 150.21 129.69 150.56 130.4 150.9 129.93 151.25 129.69 151.59 130.17 151.94 130.4 152.28 130.64 152.63 130.88 152.98 131 153.32 130.88 153.67 131 154.01 131.11"/>
      </g>
      <g stroke-width="0.3" fill="#000000" fill-opacity="0.000" class="geometry" stroke-dasharray="none" stroke="#D53E4F" id="img-d8e002c9-18">
        <path fill="none" d="M23.65,77.79 L 24 77.55 24.34 81.34 24.69 84.19 25.03 80.75 25.38 78.26 25.73 78.74 26.07 79.45 26.42 83 26.76 83.48 27.11 82.65 27.45 80.4 27.8 80.4 28.15 81.11 28.49 81.58 28.84 81.46 29.18 82.05 29.53 84.19 29.88 83.24 30.22 84.19 30.57 87.62 30.91 89.88 31.26 86.56 31.6 85.25 31.95 82.53 32.3 86.56 32.64 82.17 32.99 82.88 33.33 83.36 33.68 82.77 34.02 81.7 34.37 82.65 34.72 81.82 35.06 80.87 35.41 78.97 35.75 80.51 36.1 82.05 36.45 82.29 36.79 83 37.14 81.46 37.48 81.58 37.83 80.28 38.17 80.16 38.52 80.87 38.87 83.12 39.21 81.82 39.56 80.99 39.9 82.41 40.25 81.94 40.59 80.99 40.94 80.16 41.29 80.28 41.63 77.31 41.98 78.38 42.32 81.7 42.67 85.02 43.02 83.6 43.36 85.25 43.71 84.78 44.05 85.14 44.4 84.66 44.74 85.97 45.09 85.97 45.44 83.95 45.78 86.91 46.13 85.61 46.47 87.98 46.82 87.62 47.16 88.69 47.51 88.69 47.86 87.15 48.2 85.97 48.55 84.31 48.89 85.02 49.24 87.98 49.59 90.23 49.93 90.35 50.28 91.42 50.62 90.23 50.97 88.93 51.31 88.69 51.66 86.91 52.01 87.86 52.35 89.4 52.7 88.57 53.04 89.16 53.39 89.28 53.73 86.68 54.08 85.73 54.43 87.27 54.77 91.3 55.12 87.98 55.46 86.08 55.81 86.91 56.16 87.27 56.5 85.61 56.85 84.54 57.19 80.4 57.54 81.7 57.88 81.94 58.23 85.49 58.58 84.54 58.92 85.97 59.27 88.93 59.61 86.32 59.96 88.22 60.3 88.34 60.65 87.27 61 84.54 61.34 85.25 61.69 85.25 62.03 85.61 62.38 84.9 62.73 84.9 63.07 85.02 63.42 84.07 63.76 83 64.11 81.7 64.45 81.7 64.8 84.07 65.15 83.48 65.49 78.86 65.84 80.4 66.18 82.17 66.53 82.88 66.87 81.94 67.22 83.83 67.57 84.66 67.91 86.44 68.26 83.83 68.6 84.66 68.95 80.51 69.3 82.77 69.64 83.24 69.99 84.78 70.33 84.31 70.68 83.83 71.02 79.45 71.37 80.04 71.72 79.09 72.06 77.79 72.41 79.57 72.75 76.37 73.1 76.72 73.44 76.96 73.79 79.68 74.14 83.6 74.48 84.78 74.83 84.07 75.17 84.9 75.52 82.17 75.87 82.29 76.21 79.92 76.56 80.4 76.9 78.97 77.25 77.55 77.59 75.77 77.94 74.11 78.29 76.01 78.63 79.68 78.98 79.68 79.32 79.68 79.67 81.58 80.01 80.75 80.36 79.68 80.71 81.46 81.05 80.51 81.4 80.28 81.74 80.51 82.09 74.59 82.44 74.35 82.78 76.01 83.13 75.42 83.47 75.66 83.82 75.42 84.16 77.67 84.51 78.14 84.86 77.2 85.2 73.05 85.55 72.93 85.89 77.55 86.24 79.21 86.58 78.38 86.93 78.03 87.28 77.67 87.62 79.57 87.97 78.62 88.31 80.75 88.66 81.7 89.01 80.51 89.35 79.8 89.7 83.71 90.04 84.9 90.39 80.75 90.73 80.87 91.08 79.57 91.43 79.57 91.77 76.96 92.12 76.84 92.46 75.42 92.81 75.3 93.15 74.59 93.5 76.13 93.85 79.45 94.19 81.46 94.54 83.36 94.88 85.61 95.23 85.85 95.58 82.41 95.92 80.04 96.27 82.53 96.61 80.75 96.96 80.63 97.3 77.91 97.65 80.04 98 80.63 98.34 81.94 98.69 81.94 99.03 82.05 99.38 83 99.72 84.9 100.07 84.54 100.42 83 100.76 83.95 101.11 83.95 101.45 83.24 101.8 87.51 102.15 86.32 102.49 87.98 102.84 89.64 103.18 90.82 103.53 89.99 103.87 90.35 104.22 90.71 104.57 89.28 104.91 88.57 105.26 88.22 105.6 89.52 105.95 90.94 106.29 89.76 106.64 90.94 106.99 92.36 107.33 93.43 107.68 91.53 108.02 90.23 108.37 87.86 108.72 90.35 109.06 91.18 109.41 92.48 109.75 93.43 110.1 92.13 110.44 91.89 110.79 93.79 111.14 93.9 111.48 93.43 111.83 93.19 112.17 96.28 112.52 96.04 112.86 97.58 113.21 96.63 113.56 95.09 113.9 92.96 114.25 91.06 114.59 91.18 114.94 93.55 115.29 92.01 115.63 88.57 115.98 89.64 116.32 89.28 116.67 85.73 117.01 86.32 117.36 84.78 117.71 89.88 118.05 87.39 118.4 89.88 118.74 91.3 119.09 93.08 119.43 91.65 119.78 92.6 120.13 92.84 120.47 93.31 120.82 89.76 121.16 87.62 121.51 85.85 121.86 88.1 122.2 85.25 122.55 85.37 122.89 85.49 123.24 85.37 123.58 87.27 123.93 90.82 124.28 91.77 124.62 94.85 124.97 93.79 125.31 96.63 125.66 99.71 126 97.46 126.35 97.82 126.7 97.1 127.04 96.63 127.39 97.22 127.73 97.58 128.08 94.38 128.43 96.51 128.77 97.7 129.12 96.28 129.46 95.56 129.81 93.43 130.15 93.43 130.5 92.72 130.85 90.23 131.19 86.56 131.54 85.49 131.88 86.91 132.23 85.73 132.57 85.25 132.92 83.6 133.27 86.68 133.61 88.1 133.96 89.64 134.3 91.65 134.65 93.43 135 91.89 135.34 90.94 135.69 89.99 136.03 91.06 136.38 88.57 136.72 90.82 137.07 89.64 137.42 96.04 137.76 96.39 138.11 97.34 138.45 97.93 138.8 99.59 139.14 100.78 139.49 99.59 139.84 98.88 140.18 97.34 140.53 96.75 140.87 95.56 141.22 95.09 141.57 95.56 141.91 95.21 142.26 94.38 142.6 92.25 142.95 90.47 143.29 87.62 143.64 91.06 143.99 92.96 144.33 93.9 144.68 92.48 145.02 95.45 145.37 96.39 145.71 94.26 146.06 94.62 146.41 93.19 146.75 92.48 147.1 91.89 147.44 91.06 147.79 90.94 148.14 87.51 148.48 88.22 148.83 87.39 149.17 88.81 149.52 89.05 149.86 90.23 150.21 89.16 150.56 92.6 150.9 90.35 151.25 92.48 151.59 90.71 151.94 91.06 152.28 90.23 152.63 87.62 152.98 86.44 153.32 85.37 153.67 88.93 154.01 88.1 154.36 86.68 154.71 91.42 155.05 92.96 155.4 94.14 155.74 92.6 156.09 92.72 156.43 94.26 156.78 95.56 157.13 96.04 157.47 99.95 157.82 97.22 158.16 96.87 158.51 97.82 158.85 98.05 159.2 97.82 159.55 97.93 159.89 96.75 160.24 96.75 160.58 99 160.93 97.22 161.28 101.61 161.62 104.69 161.97 103.74 162.31 107.53 162.66 106.47 163 106.82 163.35 103.86 163.7 105.4 164.04 105.76 164.39 105.76 164.73 107.53 165.08 108.48 165.42 109.67 165.77 110.85 166.12 109.9 166.46 109.19 166.81 111.09 167.15 113.22 167.5 113.34 167.85 113.81 168.19 112.39 168.54 112.04 168.88 112.63 169.23 111.21 169.57 113.58 169.92 113.22 170.27 111.68 170.61 112.63 170.96 111.8 171.3 111.56 171.65 111.92 171.99 110.97 172.34 111.32 172.69 110.97 173.03 110.38 173.38 110.14 173.72 110.97 174.07 114.52 174.42 114.05 174.76 116.42 175.11 116.18 175.45 115.12 175.8 115.35 176.14 113.34 176.49 113.1 176.84 113.7 177.18 114.17 177.53 114.88 177.87 115.47 178.22 115 178.56 114.17 178.91 116.3 179.26 116.54 179.6 116.66 179.95 116.66 180.29 119.5 180.64 119.5 180.99 118.91 181.33 116.3 181.68 116.89 182.02 114.29 182.37 114.29 182.71 114.52 183.06 114.17 183.41 113.7 183.75 113.81 184.1 115.95 184.44 115.83 184.79 115.24 185.13 116.78 185.48 115.71 185.83 115.47 186.17 115.83 186.52 114.88 186.86 114.88 187.21 114.76 187.56 113.81 187.9 111.68 188.25 112.27 188.59 110.85 188.94 111.92 189.28 111.8 189.63 112.27 189.98 110.97 190.32 110.02 190.67 109.55 191.01 109.43 191.36 107.53 191.7 111.56 192.05 112.63 192.4 113.58 192.74 115 193.09 112.63 193.43 114.17 193.78 114.41 194.13 114.29 194.47 113.81 194.82 113.93 195.16 114.05 195.51 115 195.85 115.12 196.2 113.22"/>
      </g>
      <g stroke-width="0.3" fill="#000000" fill-opacity="0.000" class="geometry" stroke-dasharray="none" stroke="#9E0142" id="img-d8e002c9-19">
        <path fill="none" d="M23.65,77.79 L 24 78.74 24.34 80.63 24.69 78.03 25.03 77.67 25.38 75.89 25.73 76.84 26.07 76.01 26.42 76.48 26.76 74.71 27.11 76.01 27.45 75.77 27.8 73.52 28.15 71.27 28.49 70.2 28.84 68.78 29.18 71.15 29.53 68.43 29.88 70.2 30.22 71.15 30.57 70.2 30.91 71.03 31.26 69.14 31.6 68.78 31.95 68.9 32.3 71.39 32.64 73.05 32.99 75.3 33.33 74.11 33.68 77.43 34.02 77.43 34.37 76.84 34.72 74.47 35.06 79.92 35.41 79.45 35.75 80.4 36.1 79.57 36.45 78.5 36.79 76.25 37.14 73.4 37.48 72.69 37.83 70.8 38.17 71.15 38.52 72.69 38.87 72.93 39.21 68.07 39.56 67.95 39.9 68.9 40.25 72.57 40.59 75.06 40.94 75.42 41.29 78.62 41.63 81.7 41.98 78.74 42.32 80.51 42.67 77.67 43.02 77.31 43.36 78.5 43.71 76.13 44.05 78.14 44.4 77.2 44.74 78.26 45.09 79.92 45.44 80.75 45.78 79.45 46.13 79.57 46.47 80.51 46.82 80.28 47.16 77.31 47.51 76.48 47.86 76.6 48.2 76.01 48.55 72.22 48.89 73.29 49.24 71.03 49.59 72.93 49.93 69.73 50.28 64.99 50.62 67.36 50.97 68.78 51.31 70.32 51.66 69.85 52.01 69.73 52.35 68.9 52.7 72.22 53.04 68.78 53.39 67.36 53.73 69.26 54.08 68.9 54.43 70.56 54.77 67.12 55.12 66.77 55.46 67 55.81 66.53 56.16 67.6 56.5 67.36 56.85 65.7 57.19 67.48 57.54 64.28 57.88 62.38 58.23 61.08 58.58 60.37 58.92 58.95 59.27 57.29 59.61 57.52 59.96 60.96 60.3 60.37 60.65 61.2 61 62.74 61.34 66.65 61.69 67 62.03 65.35 62.38 65.58 62.73 63.21 63.07 63.33 63.42 62.03 63.76 62.98 64.11 62.98 64.45 61.08 64.8 59.42 65.15 55.63 65.49 53.26 65.84 52.31 66.18 49.94 66.53 51.48 66.87 50.41 67.22 49.47 67.57 49.58 67.91 47.57 68.26 44.96 68.6 43.42 68.95 42.59 69.3 41.29 69.64 40.34 69.99 38.68 70.33 36.55 70.68 34.77 71.02 35.01 71.37 34.42 71.72 34.77 72.06 33.82 72.41 32.05 72.75 31.69 73.1 30.27 73.44 28.49 73.79 27.9 74.14 28.73 74.48 28.73 74.83 27.66 75.17 27.9 75.52 27.78 75.87 27.54 76.21 27.78 76.56 27.9 76.9 27.31 77.25 27.42 77.59 27.42 77.94 27.19 78.29 26.71 78.63 27.31 78.98 27.31 79.32 28.02 79.67 27.54 80.01 26.95 80.36 27.31 80.71 27.42 81.05 26.95 81.4 27.07 81.74 27.42 82.09 27.07 82.44 26.83 82.78 26.71 83.13 27.19 83.47 27.07 83.82 26.6 84.16 26.71 84.51 26.83 84.86 26.48 85.2 26.71 85.55 26.95 85.89 26.6 86.24 26.6 86.58 27.42 86.93 27.42 87.28 26.83 87.62 26.6 87.97 25.65 88.31 26.12 88.66 26.12 89.01 25.53 89.35 25.53 89.7 25.17 90.04 25.65 90.39 24.94 90.73 25.05 91.08 25.17 91.43 25.17 91.77 24.82 92.12 25.05 92.46 25.17 92.81 24.94 93.15 24.82 93.5 24.94 93.85 25.29 94.19 25.53 94.54 25.05 94.88 24.82 95.23 24.7 95.58 24.82 95.92 24.7 96.27 24.94 96.61 25.05 96.96 25.41 97.3 25.17 97.65 25.05 98 24.46"/>
      </g>
    </g>
  </g>
</g>
  <g class="guide ylabels" font-size="2.82" font-family="'PT Sans Caption','Helvetica Neue','Helvetica',sans-serif" fill="#000000" id="img-d8e002c9-20">
    <text x="20.3" y="131.11" text-anchor="end" dy="0.35em">0</text>
    <text x="20.3" y="101.49" text-anchor="end" dy="0.35em">250</text>
    <text x="20.3" y="71.86" text-anchor="end" dy="0.35em">500</text>
    <text x="20.3" y="42.24" text-anchor="end" dy="0.35em">750</text>
    <text x="20.3" y="12.61" text-anchor="end" dy="0.35em">1000</text>
  </g>
  <g font-size="3.88" font-family="'PT Sans','Helvetica Neue','Helvetica',sans-serif" fill="#000000" stroke="#000000" stroke-opacity="0.000" id="img-d8e002c9-21">
    <text x="8.81" y="69.86" text-anchor="middle" dy="0.35em" transform="rotate(-90, 8.81, 71.86)">population number</text>
  </g>
  <g font-size="3.88" font-family="'PT Sans','Helvetica Neue','Helvetica',sans-serif" fill="#000000" stroke="#000000" stroke-opacity="0.000" id="img-d8e002c9-22">
    <text x="109.75" y="5" text-anchor="middle" dy="0.6em">genetic drift</text>
  </g>
</g>
<defs>
  <clipPath id="img-d8e002c9-4">
  <path d="M21.31,10.61 L 198.2 10.61 198.2 133.11 21.31 133.11" />
</clipPath>
</defs>
</svg>
