<?xml version="1.0" encoding="UTF-8"?>
<svg xmlns="http://www.w3.org/2000/svg"
     xmlns:xlink="http://www.w3.org/1999/xlink"
     xmlns:gadfly="http://www.gadflyjl.org/ns"
     version="1.2"
     width="203.2mm" height="152.4mm" viewBox="0 0 203.2 152.4"
     stroke="none"
     fill="#000000"
     stroke-width="0.3"
     font-size="3.88"
>
<g class="plotroot xscalable yscalable" id="img-51fce121-1">
  <g font-size="3.88" font-family="'PT Sans','Helvetica Neue','Helvetica',sans-serif" fill="#000000" stroke="#000000" stroke-opacity="0.000" id="img-51fce121-2">
    <text x="109.75" y="140.79" text-anchor="middle" dy="0.6em">generation number</text>
  </g>
  <g class="guide xlabels" font-size="2.82" font-family="'PT Sans Caption','Helvetica Neue','Helvetica',sans-serif" fill="#000000" id="img-51fce121-3">
    <text x="23.31" y="134.11" text-anchor="middle" dy="0.6em">0</text>
    <text x="57.88" y="134.11" text-anchor="middle" dy="0.6em">100</text>
    <text x="92.46" y="134.11" text-anchor="middle" dy="0.6em">200</text>
    <text x="127.04" y="134.11" text-anchor="middle" dy="0.6em">300</text>
    <text x="161.62" y="134.11" text-anchor="middle" dy="0.6em">400</text>
    <text x="196.2" y="134.11" text-anchor="middle" dy="0.6em">500</text>
  </g>
<g clip-path="url(#img-51fce121-4)">
  <g id="img-51fce121-5">
    <g pointer-events="visible" opacity="1" fill="#FFFFFF" stroke="#000000" stroke-opacity="0.000" class="guide background" id="img-51fce121-6">
      <rect x="21.31" y="10.61" width="176.89" height="122.5"/>
    </g>
    <g class="guide ygridlines xfixed" stroke-dasharray="0.5,0.5" stroke-width="0.2" stroke="#808080" id="img-51fce121-7">
      <path fill="none" d="M21.31,131.11 L 198.2 131.11"/>
      <path fill="none" d="M21.31,101.49 L 198.2 101.49"/>
      <path fill="none" d="M21.31,71.86 L 198.2 71.86"/>
      <path fill="none" d="M21.31,42.24 L 198.2 42.24"/>
      <path fill="none" d="M21.31,12.61 L 198.2 12.61"/>
    </g>
    <g class="guide xgridlines yfixed" stroke-dasharray="0.5,0.5" stroke-width="0.2" stroke="#808080" id="img-51fce121-8">
      <path fill="none" d="M23.31,10.61 L 23.31 133.11"/>
      <path fill="none" d="M57.88,10.61 L 57.88 133.11"/>
      <path fill="none" d="M92.46,10.61 L 92.46 133.11"/>
      <path fill="none" d="M127.04,10.61 L 127.04 133.11"/>
      <path fill="none" d="M161.62,10.61 L 161.62 133.11"/>
      <path fill="none" d="M196.2,10.61 L 196.2 133.11"/>
    </g>
    <g class="plotpanel" id="img-51fce121-9">
      <g stroke-width="0.3" fill="#000000" fill-opacity="0.000" class="geometry" stroke-dasharray="none" stroke="#3288BD" id="img-51fce121-10">
        <path fill="none" d="M23.65,71.86 L 24 73.29 24.34 72.22 24.69 72.46 25.03 72.93 25.38 72.57 25.73 72.57 26.07 73.4 26.42 70.68 26.76 70.8 27.11 70.68 27.45 71.15 27.8 66.29 28.15 67 28.49 66.65 28.84 66.29 29.18 69.14 29.53 70.92 29.88 69.49 30.22 69.49 30.57 72.93 30.91 69.02 31.26 66.29 31.6 69.61 31.95 69.37 32.3 69.26 32.64 67.83 32.99 66.29 33.33 67.6 33.68 68.9 34.02 67.36 34.37 64.04 34.72 65.58 35.06 64.63 35.41 62.03 35.75 61.44 36.1 61.79 36.45 55.87 36.79 57.29 37.14 59.3 37.48 60.49 37.83 60.72 38.17 60.84 38.52 63.09 38.87 61.08 39.21 60.72 39.56 57.41 39.9 56.81 40.25 55.04 40.59 53.38 40.94 54.21 41.29 58.71 41.63 57.64 41.98 55.15 42.32 52.9 42.67 52.19 43.02 50.77 43.36 52.78 43.71 52.9 44.05 49.23 44.4 51.72 44.74 52.43 45.09 52.67 45.44 50.89 45.78 53.02 46.13 52.9 46.47 54.21 46.82 50.77 47.16 49.11 47.51 51.01 47.86 50.65 48.2 49.94 48.55 51.48 48.89 51.95 49.24 51.01 49.59 52.67 49.93 50.89 50.28 50.77 50.62 49.47 50.97 50.77 51.31 48.4 51.66 48.87 52.01 48.76 52.35 47.45 52.7 44.13 53.04 43.78 53.39 44.73 53.73 45.2 54.08 45.56 54.43 45.91 54.77 46.39 55.12 45.44 55.46 48.4 55.81 51.24 56.16 49.35 56.5 51.01 56.85 53.97 57.19 55.87 57.54 57.76 57.88 56.58 58.23 55.15 58.58 52.55 58.92 56.81 59.27 58.12 59.61 58.83 59.96 56.93 60.3 58.24 60.65 55.98 61 54.68 61.34 54.92 61.69 55.39 62.03 56.81 62.38 56.69 62.73 54.32 63.07 56.46 63.42 55.98 63.76 54.68 64.11 54.92 64.45 55.51 64.8 56.46 65.15 55.87 65.49 53.38 65.84 50.77 66.18 49.58 66.53 51.36 66.87 50.41 67.22 50.89 67.57 49.47 67.91 48.16 68.26 42.95 68.6 40.58 68.95 39.87 69.3 38.8 69.64 34.42 69.99 32.16 70.33 30.15 70.68 31.81 71.02 31.57 71.37 31.22 71.72 31.93 72.06 31.57 72.41 29.44 72.75 30.39 73.1 29.68 73.44 28.73 73.79 29.08 74.14 31.22 74.48 29.32 74.83 30.03 75.17 30.15 75.52 28.85 75.87 30.27 76.21 29.56 76.56 26.95 76.9 28.02 77.25 26.95 77.59 27.78 77.94 29.68 78.29 30.51 78.63 31.57 78.98 31.93 79.32 30.51 79.67 28.49 80.01 26.95 80.36 28.97 80.71 28.85 81.05 28.49 81.4 30.74 81.74 31.81 82.09 31.57 82.44 32.88 82.78 34.06 83.13 34.06 83.47 34.18 83.82 29.32 84.16 29.2 84.51 28.97 84.86 27.78 85.2 28.49 85.55 30.03 85.89 32.64 86.24 32.52 86.58 32.88 86.93 32.99 87.28 30.74 87.62 31.93 87.97 31.57 88.31 31.45 88.66 31.57 89.01 30.03 89.35 29.91 89.7 30.62 90.04 27.9 90.39 26.12 90.73 26.83 91.08 26.71 91.43 28.37 91.77 27.78 92.12 27.19 92.46 27.54 92.81 27.78 93.15 26.36 93.5 26.12 93.85 27.19 94.19 26.83 94.54 27.19 94.88 26 95.23 27.19 95.58 25.65 95.92 23.4 96.27 24.22 96.61 23.04 96.96 23.4 97.3 23.04 97.65 24.46 98 23.99 98.34 23.63 98.69 22.92 99.03 22.09 99.38 20.67 99.72 20.08 100.07 19.72 100.42 17.94 100.76 18.42 101.11 17.35 101.45 18.54 101.8 19.25 102.15 18.66 102.49 19.13 102.84 18.42 103.18 19.01 103.53 20.31 103.87 20.55 104.22 18.66 104.57 16.52 104.91 16.4 105.26 15.46 105.6 15.69 105.95 15.69 106.29 15.57 106.64 17.11 106.99 18.42 107.33 18.89 107.68 19.37 108.02 20.2 108.37 18.42 108.72 17.71 109.06 18.18 109.41 17.23 109.75 16.76 110.1 17.47 110.44 17 110.79 17.94 111.14 16.76 111.48 16.76 111.83 16.29 112.17 16.76 112.52 16.17 112.86 15.22 113.21 15.1 113.56 15.93 113.9 15.69 114.25 15.69 114.59 14.98 114.94 14.63 115.29 13.92 115.63 13.68 115.98 13.2 116.32 13.32 116.67 13.68 117.01 13.2 117.36 13.09 117.71 12.85 118.05 12.97 118.4 13.2 118.74 13.32 119.09 13.32 119.43 13.2 119.78 13.44 120.13 13.2 120.47 12.85 120.82 12.97 121.16 13.44 121.51 13.92 121.86 14.63 122.2 14.51 122.55 15.34 122.89 16.29 123.24 16.64 123.58 17.71 123.93 18.54 124.28 17.59 124.62 18.18 124.97 17.94 125.31 18.3 125.66 18.42 126 17.71 126.35 16.88 126.7 16.52 127.04 16.88 127.39 16.29 127.73 16.52 128.08 17.11 128.43 16.29 128.77 16.29 129.12 16.4 129.46 17.11 129.81 17 130.15 18.77 130.5 19.37 130.85 19.96 131.19 20.55 131.54 20.67 131.88 20.55 132.23 20.55 132.57 19.37 132.92 18.77 133.27 18.42 133.61 19.96 133.96 19.6 134.3 16.88 134.65 17.23 135 18.06 135.34 18.66 135.69 17.23 136.03 17.23 136.38 15.93 136.72 15.81 137.07 14.63 137.42 15.1 137.76 15.1 138.11 15.57 138.45 15.69 138.8 15.34 139.14 14.63 139.49 14.86 139.84 14.39 140.18 14.03 140.53 14.27 140.87 13.92 141.22 13.68 141.57 13.92 141.91 14.51 142.26 14.39 142.6 14.15 142.95 14.98 143.29 16.29 143.64 16.17 143.99 16.4 144.33 16.52 144.68 17.59 145.02 17.47 145.37 17.94 145.71 17.23 146.06 17 146.41 16.88 146.75 16.17 147.1 16.4 147.44 15.22 147.79 15.57 148.14 14.74 148.48 15.1 148.83 14.63 149.17 14.63 149.52 15.1 149.86 14.86 150.21 13.68 150.56 13.44 150.9 13.8 151.25 14.15 151.59 13.68 151.94 13.68 152.28 13.44 152.63 13.32 152.98 13.2 153.32 13.32 153.67 13.56 154.01 13.56 154.36 13.44 154.71 13.32 155.05 12.85 155.4 12.97 155.74 12.73 156.09 12.97 156.43 12.85 156.78 12.97 157.13 13.2 157.47 13.44 157.82 13.32 158.16 13.32 158.51 13.2 158.85 13.32 159.2 13.09 159.55 12.85 159.89 13.09 160.24 13.09 160.58 13.09 160.93 13.8 161.28 13.8 161.62 13.44 161.97 12.85 162.31 12.85 162.66 12.85 163 12.73 163.35 12.73 163.7 12.85 164.04 12.61"/>
      </g>
      <g stroke-width="0.3" fill="#000000" fill-opacity="0.000" class="geometry" stroke-dasharray="none" stroke="#66C2A5" id="img-51fce121-11">
        <path fill="none" d="M23.65,71.86 L 24 71.39 24.34 71.27 24.69 72.81 25.03 74.47 25.38 72.34 25.73 72.1 26.07 73.76 26.42 71.27 26.76 72.1 27.11 72.22 27.45 71.74 27.8 70.32 28.15 71.63 28.49 72.81 28.84 74.35 29.18 74.11 29.53 75.06 29.88 76.25 30.22 78.26 30.57 80.28 30.91 80.51 31.26 81.34 31.6 77.91 31.95 78.14 32.3 77.79 32.64 78.38 32.99 76.72 33.33 78.5 33.68 81.46 34.02 83.71 34.37 84.9 34.72 83.95 35.06 81.82 35.41 83.6 35.75 86.56 36.1 85.73 36.45 88.81 36.79 88.45 37.14 85.49 37.48 86.2 37.83 84.42 38.17 83.83 38.52 84.9 38.87 82.05 39.21 78.74 39.56 78.38 39.9 80.04 40.25 80.28 40.59 80.16 40.94 80.99 41.29 80.99 41.63 80.75 41.98 79.92 42.32 80.16 42.67 81.58 43.02 79.57 43.36 78.62 43.71 76.37 44.05 79.33 44.4 82.53 44.74 84.78 45.09 85.73 45.44 86.32 45.78 86.56 46.13 90.47 46.47 87.86 46.82 85.97 47.16 85.02 47.51 86.56 47.86 86.79 48.2 88.69 48.55 88.22 48.89 85.97 49.24 84.42 49.59 85.61 49.93 87.15 50.28 90.47 50.62 90.82 50.97 89.05 51.31 90.94 51.66 88.69 52.01 85.61 52.35 85.25 52.7 87.39 53.04 87.39 53.39 86.2 53.73 85.49 54.08 86.79 54.43 88.93 54.77 89.99 55.12 91.53 55.46 89.16 55.81 88.34 56.16 87.39 56.5 88.34 56.85 89.76 57.19 92.25 57.54 93.31 57.88 92.13 58.23 93.55 58.58 90.47 58.92 88.69 59.27 90.23 59.61 89.4 59.96 88.57 60.3 87.51 60.65 87.15 61 89.05 61.34 88.93 61.69 90.11 62.03 89.4 62.38 93.19 62.73 94.5 63.07 96.99 63.42 93.43 63.76 92.6 64.11 92.96 64.45 91.42 64.8 90.11 65.15 90.35 65.49 92.36 65.84 94.97 66.18 93.08 66.53 96.87 66.87 95.68 67.22 97.58 67.57 98.17 67.91 96.63 68.26 97.22 68.6 96.63 68.95 94.02 69.3 93.9 69.64 91.3 69.99 89.05 70.33 90.59 70.68 93.08 71.02 89.99 71.37 90.35 71.72 91.89 72.06 91.42 72.41 91.42 72.75 92.36 73.1 93.19 73.44 95.56 73.79 95.09 74.14 95.68 74.48 97.34 74.83 94.38 75.17 96.04 75.52 97.58 75.87 96.51 76.21 97.82 76.56 96.16 76.9 98.05 77.25 98.05 77.59 95.92 77.94 96.28 78.29 93.19 78.63 94.14 78.98 95.09 79.32 96.28 79.67 96.75 80.01 99 80.36 98.65 80.71 99.95 81.05 100.3 81.4 99.83 81.74 100.3 82.09 100.78 82.44 97.82 82.78 96.39 83.13 95.68 83.47 95.68 83.82 94.73 84.16 94.97 84.51 93.55 84.86 95.21 85.2 94.38 85.55 92.01 85.89 94.02 86.24 94.26 86.58 96.28 86.93 94.14 87.28 93.43 87.62 90.59 87.97 87.62 88.31 90.11 88.66 91.89 89.01 92.25 89.35 92.6 89.7 95.33 90.04 93.67 90.39 93.55 90.73 90.23 91.08 90.82 91.43 89.52 91.77 87.03 92.12 87.51 92.46 86.68 92.81 90.59 93.15 92.25 93.5 93.67 93.85 90.11 94.19 90.35 94.54 89.52 94.88 86.08 95.23 84.07 95.58 87.27 95.92 85.02 96.27 85.02 96.61 86.08 96.96 85.61 97.3 86.68 97.65 83.95 98 83.12 98.34 80.99 98.69 81.34 99.03 81.34 99.38 83.6 99.72 81.82 100.07 82.77 100.42 81.11 100.76 78.26 101.11 77.79 101.45 80.16 101.8 78.5 102.15 75.66 102.49 73.29 102.84 72.81 103.18 71.39 103.53 72.81 103.87 74.11 104.22 73.29 104.57 74 104.91 73.76 105.26 71.74 105.6 71.51 105.95 68.19 106.29 65.23 106.64 66.77 106.99 66.77 107.33 66.53 107.68 68.19 108.02 67.95 108.37 67.36 108.72 68.07 109.06 67.72 109.41 65.82 109.75 67.72 110.1 67.83 110.44 68.66 110.79 67.72 111.14 68.07 111.48 67.83 111.83 67.83 112.17 69.02 112.52 72.22 112.86 69.14 113.21 69.49 113.56 67.48 113.9 69.14 114.25 66.89 114.59 68.55 114.94 68.66 115.29 67.72 115.63 65.94 115.98 67.48 116.32 66.06 116.67 66.41 117.01 66.06 117.36 65.58 117.71 64.16 118.05 67.36 118.4 64.4 118.74 65.46 119.09 69.02 119.43 69.61 119.78 71.63 120.13 71.98 120.47 71.27 120.82 72.69 121.16 73.88 121.51 73.76 121.86 71.39 122.2 71.27 122.55 73.64 122.89 76.25 123.24 78.97 123.58 79.33 123.93 77.91 124.28 76.84 124.62 78.5 124.97 80.04 125.31 82.77 125.66 82.88 126 84.54 126.35 85.97 126.7 87.51 127.04 86.44 127.39 83.24 127.73 85.02 128.08 86.44 128.43 86.91 128.77 85.02 129.12 86.44 129.46 87.03 129.81 88.57 130.15 89.16 130.5 90.11 130.85 89.4 131.19 91.65 131.54 90.82 131.88 86.2 132.23 84.07 132.57 84.66 132.92 83.71 133.27 86.2 133.61 84.42 133.96 86.56 134.3 85.25 134.65 86.91 135 84.07 135.34 82.77 135.69 81.46 136.03 79.68 136.38 80.75 136.72 80.04 137.07 80.99 137.42 83.71 137.76 85.49 138.11 84.07 138.45 84.07 138.8 86.08 139.14 84.42 139.49 83.6 139.84 80.51 140.18 78.03 140.53 78.62 140.87 79.45 141.22 76.72 141.57 78.5 141.91 79.92 142.26 81.34 142.6 81.46 142.95 85.02 143.29 86.08 143.64 85.97 143.99 84.66 144.33 83.6 144.68 84.78 145.02 85.37 145.37 89.64 145.71 92.25 146.06 89.52 146.41 90.71 146.75 91.65 147.1 92.96 147.44 89.99 147.79 88.57 148.14 86.91 148.48 83.95 148.83 85.37 149.17 84.78 149.52 85.37 149.86 82.88 150.21 82.65 150.56 85.02 150.9 85.61 151.25 84.9 151.59 86.08 151.94 85.61 152.28 86.68 152.63 85.73 152.98 83.36 153.32 83.71 153.67 83.71 154.01 81.58 154.36 80.87 154.71 78.62 155.05 82.05 155.4 81.94 155.74 79.33 156.09 82.41 156.43 79.8 156.78 79.09 157.13 78.26 157.47 80.04 157.82 80.4 158.16 82.17 158.51 82.05 158.85 83.83 159.2 84.31 159.55 83.48 159.89 83 160.24 83.12 160.58 78.5 160.93 75.77 161.28 74.47 161.62 73.29 161.97 74.23 162.31 73.64 162.66 72.57 163 71.86 163.35 71.51 163.7 72.34 164.04 73.29 164.39 70.92 164.73 72.22 165.08 72.46 165.42 70.92 165.77 73.52 166.12 72.34 166.46 73.17 166.81 72.57 167.15 74.59 167.5 73.17 167.85 71.39 168.19 77.08 168.54 74.94 168.88 75.77 169.23 76.13 169.57 76.96 169.92 77.31 170.27 79.45 170.61 81.23 170.96 83.71 171.3 81.7 171.65 79.33 171.99 79.45 172.34 77.08 172.69 76.72 173.03 81.58 173.38 79.21 173.72 80.51 174.07 81.46 174.42 79.68 174.76 78.74 175.11 79.57 175.45 80.99 175.8 82.29 176.14 82.17 176.49 81.94 176.84 80.75 177.18 79.8 177.53 78.86 177.87 74.11 178.22 77.67 178.56 78.97 178.91 83.95 179.26 80.28 179.6 79.68 179.95 81.82 180.29 81.7 180.64 80.04 180.99 80.51 181.33 77.67 181.68 74.47 182.02 70.8 182.37 76.13 182.71 79.33 183.06 78.62 183.41 79.09 183.75 78.86 184.1 80.16 184.44 80.04 184.79 78.26 185.13 77.2 185.48 75.42 185.83 76.72 186.17 73.76 186.52 73.4 186.86 73.88 187.21 73.4 187.56 70.32 187.9 69.37 188.25 70.92 188.59 69.02 188.94 68.07 189.28 67.72 189.63 68.43 189.98 62.03 190.32 63.33 190.67 64.63 191.01 62.03 191.36 64.63 191.7 60.61 192.05 61.44 192.4 60.25 192.74 58.95 193.09 58.59 193.43 56.58 193.78 56.34 194.13 55.15 194.47 53.73 194.82 50.41 195.16 49.47 195.51 50.18 195.85 51.13 196.2 49.47"/>
      </g>
      <g stroke-width="0.3" fill="#000000" fill-opacity="0.000" class="geometry" stroke-dasharray="none" stroke="#ABDDA4" id="img-51fce121-12">
        <path fill="none" d="M23.65,71.86 L 24 75.3 24.34 74.94 24.69 77.43 25.03 78.97 25.38 77.79 25.73 78.38 26.07 78.97 26.42 76.72 26.76 73.29 27.11 75.3 27.45 75.54 27.8 74.47 28.15 77.91 28.49 77.31 28.84 77.08 29.18 79.57 29.53 79.68 29.88 80.04 30.22 76.48 30.57 79.09 30.91 82.41 31.26 83.95 31.6 86.08 31.95 83 32.3 83.71 32.64 85.61 32.99 84.31 33.33 84.42 33.68 83.36 34.02 81.23 34.37 78.97 34.72 75.18 35.06 74.35 35.41 72.46 35.75 72.22 36.1 70.32 36.45 71.51 36.79 72.57 37.14 74.59 37.48 73.52 37.83 74 38.17 73.17 38.52 73.29 38.87 72.93 39.21 69.61 39.56 69.97 39.9 70.09 40.25 68.07 40.59 67.36 40.94 68.55 41.29 69.73 41.63 71.86 41.98 68.9 42.32 68.07 42.67 68.66 43.02 69.37 43.36 69.26 43.71 66.89 44.05 67 44.4 70.8 44.74 68.43 45.09 67.12 45.44 71.39 45.78 71.27 46.13 70.2 46.47 70.44 46.82 72.69 47.16 73.4 47.51 75.77 47.86 72.57 48.2 74.71 48.55 79.21 48.89 78.97 49.24 77.2 49.59 78.38 49.93 80.75 50.28 80.4 50.62 82.88 50.97 78.5 51.31 80.28 51.66 81.7 52.01 75.54 52.35 78.97 52.7 78.5 53.04 80.87 53.39 80.4 53.73 78.62 54.08 79.57 54.43 79.92 54.77 77.91 55.12 75.77 55.46 74 55.81 71.39 56.16 67.72 56.5 71.15 56.85 70.2 57.19 68.31 57.54 67.24 57.88 68.66 58.23 65.46 58.58 67.95 58.92 67.24 59.27 66.06 59.61 66.41 59.96 67.95 60.3 68.07 60.65 69.26 61 68.19 61.34 65.23 61.69 65.7 62.03 64.87 62.38 63.21 62.73 62.5 63.07 61.2 63.42 59.54 63.76 60.96 64.11 61.44 64.45 61.67 64.8 59.66 65.15 61.55 65.49 61.79 65.84 61.08 66.18 62.03 66.53 60.84 66.87 60.84 67.22 61.91 67.57 62.86 67.91 61.79 68.26 64.04 68.6 62.98 68.95 61.2 69.3 61.55 69.64 61.55 69.99 60.01 70.33 61.08 70.68 65.82 71.02 63.92 71.37 65.35 71.72 65.11 72.06 66.53 72.41 66.29 72.75 64.99 73.1 66.65 73.44 64.87 73.79 67.6 74.14 67 74.48 64.99 74.83 63.69 75.17 60.61 75.52 58.95 75.87 60.96 76.21 59.66 76.56 61.32 76.9 61.2 77.25 62.03 77.59 63.09 77.94 61.55 78.29 60.84 78.63 61.44 78.98 60.72 79.32 64.28 79.67 67.36 80.01 65.46 80.36 62.86 80.71 62.26 81.05 63.45 81.4 63.21 81.74 63.45 82.09 64.52 82.44 63.57 82.78 63.57 83.13 64.04 83.47 66.29 83.82 66.18 84.16 68.19 84.51 68.07 84.86 67.48 85.2 65.23 85.55 62.98 85.89 68.43 86.24 69.85 86.58 73.29 86.93 72.22 87.28 72.57 87.62 70.8 87.97 70.44 88.31 68.78 88.66 66.89 89.01 67 89.35 65.94 89.7 68.43 90.04 68.31 90.39 70.68 90.73 68.19 91.08 67.6 91.43 67.72 91.77 68.43 92.12 70.44 92.46 69.37 92.81 70.2 93.15 73.4 93.5 72.69 93.85 74 94.19 78.74 94.54 78.62 94.88 79.09 95.23 80.4 95.58 80.99 95.92 82.88 96.27 81.23 96.61 79.68 96.96 81.82 97.3 83.36 97.65 80.51 98 81.23 98.34 78.97 98.69 74.83 99.03 77.55 99.38 80.04 99.72 77.55 100.07 79.09 100.42 79.92 100.76 78.62 101.11 75.54 101.45 71.63 101.8 72.46 102.15 70.56 102.49 68.07 102.84 68.55 103.18 64.87 103.53 64.63 103.87 63.69 104.22 62.03 104.57 65.46 104.91 64.4 105.26 67 105.6 69.26 105.95 71.15 106.29 70.56 106.64 69.73 106.99 71.27 107.33 68.9 107.68 68.19 108.02 67.72 108.37 67.36 108.72 69.61 109.06 68.43 109.41 67.36 109.75 66.77 110.1 67.6 110.44 67 110.79 65.58 111.14 66.53 111.48 66.77 111.83 69.37 112.17 68.43 112.52 69.73 112.86 71.63 113.21 71.03 113.56 70.92 113.9 73.64 114.25 72.1 114.59 71.15 114.94 70.92 115.29 69.61 115.63 72.1 115.98 71.86 116.32 71.03 116.67 70.32 117.01 71.15 117.36 68.43 117.71 67.95 118.05 66.18 118.4 65.46 118.74 65.23 119.09 67 119.43 68.07 119.78 68.9 120.13 69.49 120.47 70.92 120.82 66.65 121.16 65.46 121.51 66.89 121.86 67.48 122.2 67.72 122.55 68.66 122.89 66.53 123.24 65.23 123.58 63.45 123.93 62.86 124.28 62.15 124.62 60.72 124.97 59.66 125.31 60.01 125.66 58 126 59.42 126.35 58 126.7 59.54 127.04 59.66 127.39 58.83 127.73 61.44 128.08 60.96 128.43 62.86 128.77 58.59 129.12 57.29 129.46 58 129.81 57.41 130.15 58.35 130.5 60.13 130.85 60.84 131.19 59.06 131.54 60.37 131.88 58.47 132.23 57.41 132.57 58 132.92 58.59 133.27 58 133.61 58.59 133.96 61.67 134.3 63.21 134.65 62.5 135 61.79 135.34 60.84 135.69 61.79 136.03 63.69 136.38 60.01 136.72 60.72 137.07 59.89 137.42 58.59 137.76 60.37 138.11 64.16 138.45 67.48 138.8 65.94 139.14 66.18 139.49 63.69 139.84 69.02 140.18 70.68 140.53 73.88 140.87 69.14 141.22 65.46 141.57 64.75 141.91 63.81 142.26 66.06 142.6 62.86 142.95 63.45 143.29 63.81 143.64 65.58 143.99 67.36 144.33 64.99 144.68 63.21 145.02 64.4 145.37 62.62 145.71 63.57 146.06 64.75 146.41 62.98 146.75 63.92 147.1 60.25 147.44 60.72 147.79 63.92 148.14 63.81 148.48 62.86 148.83 59.42 149.17 59.54 149.52 58.83 149.86 60.61 150.21 58.83 150.56 58.12 150.9 57.41 151.25 55.51 151.59 54.92 151.94 55.39 152.28 59.66 152.63 62.03 152.98 61.67 153.32 61.79 153.67 63.45 154.01 60.49 154.36 57.88 154.71 58.59 155.05 61.2 155.4 62.03 155.74 65.94 156.09 66.29 156.43 64.04 156.78 64.75 157.13 66.41 157.47 62.98 157.82 62.98 158.16 60.37 158.51 59.42 158.85 64.87 159.2 64.63 159.55 67.48 159.89 67.95 160.24 67.48 160.58 69.61 160.93 70.32 161.28 69.97 161.62 70.92 161.97 71.03 162.31 69.97 162.66 69.26 163 69.14 163.35 69.37 163.7 71.63 164.04 69.73 164.39 68.9 164.73 67.95 165.08 66.89 165.42 63.21 165.77 62.86 166.12 63.21 166.46 63.92 166.81 63.09 167.15 62.98 167.5 60.49 167.85 60.84 168.19 57.76 168.54 60.49 168.88 60.37 169.23 62.38 169.57 65.58 169.92 60.96 170.27 62.26 170.61 58.12 170.96 58.59 171.3 59.54 171.65 56.93 171.99 57.29 172.34 60.13 172.69 58.12 173.03 60.61 173.38 59.66 173.72 62.03 174.07 61.32 174.42 59.66 174.76 58.35 175.11 54.56 175.45 55.15 175.8 52.67 176.14 52.43 176.49 49.94 176.84 52.67 177.18 50.65 177.53 51.01 177.87 50.18 178.22 50.77 178.56 50.77 178.91 52.78 179.26 50.3 179.6 51.24 179.95 52.55 180.29 53.85 180.64 48.4 180.99 50.53 181.33 49.58 181.68 49.47 182.02 51.13 182.37 51.95 182.71 50.89 183.06 49.35 183.41 50.3 183.75 45.79 184.1 46.5 184.44 48.76 184.79 48.99 185.13 50.18 185.48 50.41 185.83 49.7 186.17 49.11 186.52 50.18 186.86 47.1 187.21 46.39 187.56 48.16 187.9 46.27 188.25 44.84 188.59 44.49 188.94 47.69 189.28 48.16 189.63 50.65 189.98 52.07 190.32 53.38 190.67 51.84 191.01 48.16 191.36 48.76 191.7 49.58 192.05 51.6 192.4 49.47 192.74 49.82 193.09 49.94 193.43 51.01 193.78 49.7 194.13 47.93 194.47 44.84 194.82 47.93 195.16 46.5 195.51 45.44 195.85 44.37 196.2 43.9"/>
      </g>
      <g stroke-width="0.3" fill="#000000" fill-opacity="0.000" class="geometry" stroke-dasharray="none" stroke="#E6F598" id="img-51fce121-13">
        <path fill="none" d="M23.65,71.86 L 24 73.4 24.34 74.23 24.69 70.44 25.03 70.44 25.38 70.92 25.73 72.34 26.07 73.4 26.42 71.63 26.76 71.86 27.11 69.85 27.45 71.27 27.8 73.05 28.15 70.8 28.49 71.51 28.84 69.26 29.18 70.09 29.53 64.87 29.88 61.2 30.22 60.96 30.57 65.7 30.91 65.82 31.26 64.63 31.6 67 31.95 67.36 32.3 65.58 32.64 68.43 32.99 66.53 33.33 66.89 33.68 67.6 34.02 69.73 34.37 69.61 34.72 70.2 35.06 70.09 35.41 69.97 35.75 71.03 36.1 70.8 36.45 67.83 36.79 67.36 37.14 69.61 37.48 64.52 37.83 63.92 38.17 63.92 38.52 64.99 38.87 65.82 39.21 67.36 39.56 67.48 39.9 69.73 40.25 68.07 40.59 62.5 40.94 66.77 41.29 66.29 41.63 66.53 41.98 66.77 42.32 67.83 42.67 65.58 43.02 65.82 43.36 66.18 43.71 61.55 44.05 62.38 44.4 60.49 44.74 58.95 45.09 56.69 45.44 58.24 45.78 57.64 46.13 58.83 46.47 58.71 46.82 60.13 47.16 60.72 47.51 61.32 47.86 57.88 48.2 58.24 48.55 60.37 48.89 61.2 49.24 63.57 49.59 63.81 49.93 65.82 50.28 64.4 50.62 65.23 50.97 66.77 51.31 66.18 51.66 70.32 52.01 71.39 52.35 70.92 52.7 70.2 53.04 73.76 53.39 73.05 53.73 73.64 54.08 71.98 54.43 71.15 54.77 72.57 55.12 73.52 55.46 72.46 55.81 74.35 56.16 73.29 56.5 71.03 56.85 74.23 57.19 73.64 57.54 74.59 57.88 76.01 58.23 71.98 58.58 72.93 58.92 74.11 59.27 74.47 59.61 76.6 59.96 78.26 60.3 79.57 60.65 76.96 61 78.26 61.34 72.69 61.69 72.57 62.03 75.54 62.38 76.72 62.73 75.06 63.07 76.6 63.42 75.89 63.76 75.06 64.11 76.13 64.45 75.89 64.8 78.03 65.15 79.45 65.49 78.97 65.84 78.03 66.18 78.26 66.53 77.67 66.87 77.67 67.22 78.26 67.57 77.31 67.91 79.33 68.26 80.16 68.6 76.6 68.95 76.48 69.3 73.52 69.64 70.92 69.99 72.1 70.33 72.57 70.68 72.46 71.02 68.19 71.37 67.72 71.72 69.97 72.06 71.39 72.41 68.66 72.75 66.41 73.1 65.23 73.44 61.55 73.79 61.08 74.14 62.15 74.48 61.44 74.83 60.61 75.17 59.18 75.52 56.58 75.87 56.81 76.21 58 76.56 57.05 76.9 55.75 77.25 57.76 77.59 58.12 77.94 56.1 78.29 53.38 78.63 53.73 78.98 53.5 79.32 49.35 79.67 46.98 80.01 46.27 80.36 44.96 80.71 45.44 81.05 46.98 81.4 44.02 81.74 45.44 82.09 42.95 82.44 43.19 82.78 43.19 83.13 41.41 83.47 40.1 83.82 41.41 84.16 41.41 84.51 42.12 84.86 39.99 85.2 38.68 85.55 37.62 85.89 34.53 86.24 34.06 86.58 35.13 86.93 34.77 87.28 36.67 87.62 36.55 87.97 33.59 88.31 32.76 88.66 33.47 89.01 34.53 89.35 32.05 89.7 33.47 90.04 31.57 90.39 30.86 90.73 31.34 91.08 29.68 91.43 27.78 91.77 30.27 92.12 29.32 92.46 31.1 92.81 32.76 93.15 31.22 93.5 30.27 93.85 31.69 94.19 31.22 94.54 28.61 94.88 29.44 95.23 28.85 95.58 30.03 95.92 30.27 96.27 29.08 96.61 28.97 96.96 28.97 97.3 27.78 97.65 27.54 98 27.31 98.34 28.85 98.69 27.78 99.03 27.07 99.38 27.07 99.72 26.83 100.07 27.31 100.42 26.12 100.76 25.53 101.11 25.77 101.45 26.48 101.8 24.82 102.15 25.29 102.49 23.87 102.84 22.45 103.18 22.45 103.53 22.57 103.87 21.97 104.22 21.38 104.57 20.67 104.91 18.89 105.26 17 105.6 16.76 105.95 17.23 106.29 17.59 106.64 18.77 106.99 18.06 107.33 18.42 107.68 18.18 108.02 16.64 108.37 16.05 108.72 17.23 109.06 16.76 109.41 17.11 109.75 16.64 110.1 15.22 110.44 15.46 110.79 14.86 111.14 14.27 111.48 14.63 111.83 13.92 112.17 14.27 112.52 14.03 112.86 13.68 113.21 13.44 113.56 13.56 113.9 12.97 114.25 12.97 114.59 12.97 114.94 13.09 115.29 12.85 115.63 12.85 115.98 12.85 116.32 12.73 116.67 12.61"/>
      </g>
      <g stroke-width="0.3" fill="#000000" fill-opacity="0.000" class="geometry" stroke-dasharray="none" stroke="#FFFFBF" id="img-51fce121-14">
        <path fill="none" d="M23.65,71.86 L 24 72.1 24.34 70.32 24.69 71.86 25.03 72.93 25.38 76.6 25.73 78.38 26.07 80.63 26.42 81.23 26.76 77.91 27.11 77.31 27.45 74.11 27.8 76.72 28.15 77.67 28.49 78.86 28.84 78.14 29.18 76.25 29.53 73.88 29.88 70.32 30.22 67.12 30.57 64.99 30.91 65.11 31.26 65.46 31.6 64.87 31.95 64.75 32.3 63.21 32.64 65.23 32.99 67 33.33 67 33.68 65.82 34.02 67.6 34.37 68.19 34.72 67 35.06 67.83 35.41 65.94 35.75 66.06 36.1 63.09 36.45 59.78 36.79 58.47 37.14 57.17 37.48 59.18 37.83 56.34 38.17 56.22 38.52 55.63 38.87 53.14 39.21 53.38 39.56 55.98 39.9 56.58 40.25 54.92 40.59 57.52 40.94 55.98 41.29 52.9 41.63 52.55 41.98 53.02 42.32 51.72 42.67 50.65 43.02 51.72 43.36 50.53 43.71 51.48 44.05 50.53 44.4 48.64 44.74 49.47 45.09 51.84 45.44 53.61 45.78 53.02 46.13 49.11 46.47 49.7 46.82 50.65 47.16 51.13 47.51 50.53 47.86 50.89 48.2 49.58 48.55 48.76 48.89 50.06 49.24 48.4 49.59 49.7 49.93 47.21 50.28 46.15 50.62 44.37 50.97 46.39 51.31 45.56 51.66 43.66 52.01 45.32 52.35 43.54 52.7 42.71 53.04 43.19 53.39 43.3 53.73 42.59 54.08 40.58 54.43 38.09 54.77 37.97 55.12 37.85 55.46 41.05 55.81 39.99 56.16 41.64 56.5 45.44 56.85 45.2 57.19 42.71 57.54 43.9 57.88 45.32 58.23 45.44 58.58 47.21 58.92 46.86 59.27 44.73 59.61 41.76 59.96 43.3 60.3 43.07 60.65 43.78 61 45.91 61.34 43.3 61.69 40.82 62.03 39.27 62.38 41.05 62.73 42.12 63.07 41.64 63.42 42.71 63.76 45.32 64.11 44.96 64.45 44.37 64.8 44.25 65.15 45.44 65.49 43.3 65.84 45.91 66.18 42.59 66.53 40.22 66.87 39.51 67.22 36.55 67.57 38.8 67.91 40.22 68.26 40.58 68.6 42.95 68.95 42.36 69.3 43.42 69.64 43.78 69.99 40.93 70.33 40.82 70.68 41.41 71.02 40.82 71.37 43.9 71.72 41.88 72.06 40.22 72.41 42.12 72.75 41.41 73.1 37.62 73.44 38.8 73.79 40.34 74.14 40.22 74.48 40.34 74.83 40.22 75.17 39.99 75.52 38.09 75.87 37.73 76.21 36.79 76.56 33.82 76.9 34.06 77.25 34.77 77.59 35.48 77.94 34.65 78.29 32.52 78.63 31.22 78.98 30.03 79.32 28.25 79.67 28.49 80.01 30.51 80.36 30.03 80.71 30.98 81.05 29.2 81.4 27.54 81.74 27.31 82.09 27.31 82.44 26.48 82.78 26.48 83.13 24.82 83.47 24.46 83.82 24.11 84.16 25.88 84.51 26.95 84.86 27.19 85.2 26.6 85.55 25.77 85.89 26.36 86.24 26.12 86.58 26.12 86.93 26 87.28 26.48 87.62 25.77 87.97 24.82 88.31 22.57 88.66 22.09 89.01 23.87 89.35 22.45 89.7 21.97 90.04 22.33 90.39 23.51 90.73 21.97 91.08 22.57 91.43 20.67 91.77 19.96 92.12 20.67 92.46 18.77 92.81 18.77 93.15 18.18 93.5 18.66 93.85 19.01 94.19 18.66 94.54 17.83 94.88 17.83 95.23 18.89 95.58 19.37 95.92 19.01 96.27 21.14 96.61 22.09 96.96 24.22 97.3 26 97.65 26.83 98 25.05 98.34 23.99 98.69 24.58 99.03 25.29 99.38 25.29 99.72 25.53 100.07 24.7 100.42 22.45 100.76 22.45 101.11 21.97 101.45 21.85 101.8 22.45 102.15 22.92 102.49 21.97 102.84 24.94 103.18 26.83 103.53 26.48 103.87 25.88 104.22 26 104.57 26 104.91 28.14 105.26 28.61 105.6 27.42 105.95 27.42 106.29 28.02 106.64 27.54 106.99 27.19 107.33 28.02 107.68 27.78 108.02 28.02 108.37 28.61 108.72 29.44 109.06 28.73 109.41 27.42 109.75 29.44 110.1 27.19 110.44 27.66 110.79 30.62 111.14 29.08 111.48 32.52 111.83 32.76 112.17 32.16 112.52 30.51 112.86 30.15 113.21 30.62 113.56 32.64 113.9 32.99 114.25 32.05 114.59 30.03 114.94 30.03 115.29 27.19 115.63 26.36 115.98 26.95 116.32 25.17 116.67 24.7 117.01 24.7 117.36 23.87 117.71 23.4 118.05 22.33 118.4 20.55 118.74 19.01 119.09 19.25 119.43 19.84 119.78 18.3 120.13 18.54 120.47 18.66 120.82 17.83 121.16 17.59 121.51 17.11 121.86 17.83 122.2 17 122.55 17 122.89 17.47 123.24 16.4 123.58 16.52 123.93 16.17 124.28 16.4 124.62 16.17 124.97 15.1 125.31 15.1 125.66 14.03 126 14.51 126.35 14.39 126.7 13.8 127.04 14.15 127.39 14.63 127.73 13.92 128.08 13.68 128.43 13.2 128.77 13.2 129.12 13.32 129.46 13.92 129.81 13.8 130.15 13.2 130.5 13.09 130.85 13.32 131.19 13.09 131.54 13.32 131.88 13.32 132.23 13.09 132.57 13.32 132.92 13.09 133.27 13.2 133.61 13.09 133.96 12.73 134.3 12.85 134.65 12.97 135 12.97 135.34 13.09 135.69 13.44 136.03 12.97 136.38 13.09 136.72 13.09 137.07 13.2 137.42 13.2 137.76 13.32 138.11 13.32 138.45 12.85 138.8 12.73 139.14 12.61"/>
      </g>
      <g stroke-width="0.3" fill="#000000" fill-opacity="0.000" class="geometry" stroke-dasharray="none" stroke="#FEE08B" id="img-51fce121-15">
        <path fill="none" d="M23.65,71.86 L 24 69.85 24.34 68.55 24.69 69.97 25.03 69.85 25.38 70.44 25.73 72.1 26.07 74.94 26.42 74.11 26.76 74.59 27.11 76.25 27.45 76.25 27.8 77.31 28.15 80.87 28.49 82.29 28.84 82.53 29.18 82.88 29.53 84.66 29.88 83.24 30.22 82.53 30.57 81.46 30.91 79.8 31.26 80.28 31.6 79.68 31.95 80.87 32.3 78.5 32.64 78.97 32.99 80.51 33.33 81.7 33.68 80.87 34.02 78.26 34.37 76.25 34.72 74.59 35.06 75.77 35.41 74.83 35.75 76.72 36.1 78.86 36.45 77.08 36.79 76.13 37.14 78.86 37.48 76.37 37.83 76.96 38.17 77.79 38.52 76.96 38.87 75.77 39.21 76.25 39.56 76.96 39.9 77.91 40.25 79.57 40.59 80.16 40.94 83.24 41.29 82.17 41.63 81.23 41.98 83 42.32 86.91 42.67 86.44 43.02 85.61 43.36 85.14 43.71 83.36 44.05 83.95 44.4 83.36 44.74 82.05 45.09 83.48 45.44 84.07 45.78 81.23 46.13 78.86 46.47 80.16 46.82 79.92 47.16 82.41 47.51 86.32 47.86 86.08 48.2 87.03 48.55 89.4 48.89 87.86 49.24 89.16 49.59 89.64 49.93 88.81 50.28 87.15 50.62 89.88 50.97 87.62 51.31 87.51 51.66 89.4 52.01 90.47 52.35 91.18 52.7 92.6 53.04 92.96 53.39 94.38 53.73 98.29 54.08 95.45 54.43 93.55 54.77 89.52 55.12 88.93 55.46 88.57 55.81 89.99 56.16 91.65 56.5 93.55 56.85 92.01 57.19 92.48 57.54 93.31 57.88 93.9 58.23 93.08 58.58 93.55 58.92 91.77 59.27 92.13 59.61 93.31 59.96 94.14 60.3 93.31 60.65 94.62 61 93.43 61.34 92.72 61.69 91.3 62.03 90.59 62.38 92.01 62.73 92.72 63.07 92.84 63.42 92.72 63.76 94.97 64.11 93.31 64.45 94.5 64.8 93.31 65.15 91.77 65.49 92.01 65.84 91.89 66.18 92.84 66.53 91.18 66.87 91.89 67.22 89.28 67.57 88.1 67.91 88.57 68.26 91.18 68.6 91.77 68.95 92.84 69.3 89.16 69.64 87.03 69.99 87.51 70.33 90.11 70.68 90.94 71.02 89.99 71.37 89.52 71.72 88.69 72.06 85.97 72.41 88.81 72.75 88.45 73.1 90.59 73.44 91.53 73.79 89.76 74.14 89.4 74.48 89.4 74.83 91.18 75.17 92.01 75.52 92.13 75.87 90.82 76.21 89.88 76.56 89.4 76.9 89.28 77.25 91.53 77.59 91.06 77.94 87.62 78.29 89.05 78.63 84.78 78.98 83.6 79.32 82.88 79.67 81.11 80.01 81.46 80.36 83.24 80.71 82.17 81.05 83.83 81.4 84.78 81.74 85.37 82.09 83.95 82.44 83.12 82.78 82.77 83.13 81.7 83.47 83.36 83.82 87.39 84.16 85.49 84.51 83.36 84.86 83.95 85.2 83.6 85.55 85.85 85.89 82.17 86.24 82.41 86.58 84.19 86.93 83.95 87.28 81.58 87.62 84.9 87.97 83.71 88.31 81.34 88.66 82.17 89.01 81.46 89.35 83.36 89.7 85.49 90.04 86.32 90.39 86.79 90.73 85.97 91.08 87.15 91.43 89.64 91.77 90.94 92.12 89.64 92.46 92.72 92.81 91.77 93.15 93.19 93.5 94.14 93.85 97.1 94.19 95.45 94.54 93.31 94.88 94.38 95.23 92.25 95.58 88.69 95.92 88.1 96.27 88.1 96.61 86.08 96.96 89.16 97.3 88.69 97.65 89.05 98 86.32 98.34 88.69 98.69 89.52 99.03 88.81 99.38 90.82 99.72 92.84 100.07 96.28 100.42 97.34 100.76 95.56 101.11 95.33 101.45 96.28 101.8 96.16 102.15 95.92 102.49 96.75 102.84 97.93 103.18 97.58 103.53 94.5 103.87 94.5 104.22 94.38 104.57 95.56 104.91 96.16 105.26 98.65 105.6 97.1 105.95 96.04 106.29 96.87 106.64 98.88 106.99 97.93 107.33 97.82 107.68 97.34 108.02 94.85 108.37 96.63 108.72 96.28 109.06 95.21 109.41 92.84 109.75 95.21 110.1 95.56 110.44 93.79 110.79 92.96 111.14 94.26 111.48 97.7 111.83 98.41 112.17 98.41 112.52 98.17 112.86 96.63 113.21 98.41 113.56 98.76 113.9 99.59 114.25 98.17 114.59 99 114.94 96.75 115.29 100.9 115.63 100.78 115.98 101.37 116.32 100.3 116.67 100.07 117.01 97.82 117.36 98.17 117.71 98.53 118.05 96.63 118.4 96.28 118.74 97.7 119.09 95.68 119.43 93.31 119.78 92.96 120.13 93.9 120.47 93.43 120.82 94.73 121.16 95.8 121.51 94.62 121.86 94.5 122.2 91.89 122.55 91.77 122.89 89.28 123.24 86.91 123.58 87.86 123.93 90.23 124.28 90.23 124.62 91.89 124.97 89.76 125.31 90.94 125.66 88.69 126 85.14 126.35 85.25 126.7 86.44 127.04 86.56 127.39 86.32 127.73 83.83 128.08 83.48 128.43 85.49 128.77 84.42 129.12 87.86 129.46 87.98 129.81 86.44 130.15 86.08 130.5 82.05 130.85 83.48 131.19 85.61 131.54 87.27 131.88 87.98 132.23 86.56 132.57 85.85 132.92 83.83 133.27 81.58 133.61 81.46 133.96 82.29 134.3 83.24 134.65 89.16 135 91.3 135.34 91.65 135.69 89.88 136.03 91.18 136.38 91.77 136.72 93.43 137.07 94.38 137.42 93.79 137.76 93.31 138.11 92.13 138.45 90.94 138.8 91.89 139.14 92.13 139.49 90.23 139.84 90.11 140.18 89.76 140.53 91.42 140.87 89.4 141.22 86.44 141.57 85.25 141.91 86.2 142.26 87.51 142.6 90.11 142.95 89.16 143.29 89.99 143.64 90.82 143.99 90.71 144.33 90.11 144.68 88.57 145.02 88.57 145.37 90.23 145.71 89.99 146.06 90.71 146.41 91.06 146.75 92.96 147.1 92.25 147.44 91.89 147.79 91.89 148.14 93.67 148.48 93.79 148.83 94.38 149.17 93.67 149.52 94.02 149.86 94.02 150.21 95.56 150.56 95.68 150.9 96.39 151.25 98.29 151.59 99 151.94 98.05 152.28 98.88 152.63 99.71 152.98 100.54 153.32 102.2 153.67 102.44 154.01 103.39 154.36 100.54 154.71 99.59 155.05 100.3 155.4 102.32 155.74 100.9 156.09 99.47 156.43 99.95 156.78 98.88 157.13 102.67 157.47 103.27 157.82 103.39 158.16 104.1 158.51 103.74 158.85 104.69 159.2 107.53 159.55 107.53 159.89 108.84 160.24 109.67 160.58 109.9 160.93 109.55 161.28 107.53 161.62 105.99 161.97 107.06 162.31 108.72 162.66 108.6 163 109.31 163.35 109.67 163.7 109.55 164.04 108.72 164.39 108.95 164.73 107.65 165.08 107.77 165.42 105.04 165.77 105.4 166.12 104.93 166.46 103.98 166.81 103.98 167.15 105.28 167.5 105.99 167.85 104.69 168.19 106.47 168.54 106.94 168.88 106.47 169.23 108.24 169.57 106.23 169.92 104.1 170.27 105.16 170.61 103.15 170.96 102.44 171.3 101.96 171.65 99.95 171.99 97.93 172.34 99.71 172.69 100.42 173.03 101.96 173.38 105.16 173.72 107.18 174.07 109.07 174.42 110.38 174.76 110.85 175.11 110.73 175.45 111.8 175.8 112.39 176.14 111.09 176.49 109.43 176.84 109.67 177.18 109.9 177.53 110.73 177.87 108.72 178.22 108.13 178.56 107.18 178.91 108.48 179.26 108.01 179.6 108.01 179.95 108.13 180.29 107.77 180.64 108.48 180.99 107.53 181.33 103.03 181.68 102.08 182.02 102.79 182.37 102.91 182.71 102.56 183.06 101.73 183.41 103.15 183.75 102.56 184.1 103.39 184.44 100.66 184.79 101.02 185.13 98.88 185.48 101.84 185.83 102.91 186.17 101.37 186.52 100.66 186.86 99.12 187.21 95.8 187.56 94.38 187.9 93.31 188.25 92.6 188.59 89.05 188.94 90.35 189.28 91.06 189.63 91.06 189.98 88.1 190.32 87.15 190.67 84.19 191.01 84.19 191.36 82.77 191.7 83.48 192.05 83.36 192.4 84.19 192.74 82.65 193.09 82.65 193.43 82.17 193.78 81.46 194.13 81.34 194.47 79.21 194.82 81.34 195.16 83.36 195.51 83.36 195.85 83.24 196.2 82.41"/>
      </g>
      <g stroke-width="0.3" fill="#000000" fill-opacity="0.000" class="geometry" stroke-dasharray="none" stroke="#FDAE61" id="img-51fce121-16">
        <path fill="none" d="M23.65,71.86 L 24 73.05 24.34 72.34 24.69 72.46 25.03 72.22 25.38 75.54 25.73 72.81 26.07 73.29 26.42 74 26.76 71.03 27.11 70.56 27.45 69.37 27.8 70.09 28.15 67.83 28.49 65.94 28.84 66.77 29.18 69.85 29.53 71.03 29.88 72.22 30.22 73.64 30.57 73.64 30.91 77.67 31.26 75.54 31.6 77.79 31.95 80.04 32.3 79.21 32.64 79.68 32.99 77.91 33.33 79.68 33.68 80.63 34.02 80.04 34.37 80.04 34.72 83.48 35.06 85.02 35.41 86.56 35.75 81.82 36.1 83.83 36.45 85.49 36.79 86.56 37.14 87.15 37.48 87.51 37.83 90.47 38.17 88.93 38.52 88.93 38.87 89.16 39.21 89.28 39.56 90.11 39.9 91.42 40.25 93.08 40.59 92.48 40.94 93.43 41.29 95.68 41.63 95.33 41.98 92.01 42.32 92.96 42.67 91.65 43.02 91.89 43.36 89.4 43.71 90.94 44.05 92.48 44.4 92.48 44.74 94.85 45.09 94.14 45.44 93.43 45.78 94.38 46.13 92.84 46.47 91.77 46.82 89.99 47.16 92.6 47.51 90.59 47.86 89.16 48.2 92.6 48.55 93.43 48.89 95.45 49.24 95.33 49.59 94.5 49.93 95.21 50.28 97.1 50.62 92.72 50.97 92.25 51.31 92.48 51.66 94.97 52.01 95.45 52.35 95.09 52.7 95.92 53.04 97.22 53.39 96.28 53.73 93.9 54.08 94.26 54.43 89.88 54.77 91.77 55.12 92.6 55.46 93.79 55.81 97.1 56.16 95.92 56.5 93.9 56.85 94.73 57.19 94.26 57.54 92.72 57.88 95.92 58.23 94.5 58.58 96.75 58.92 101.73 59.27 104.33 59.61 104.57 59.96 105.76 60.3 102.67 60.65 102.56 61 100.19 61.34 95.68 61.69 95.8 62.03 96.16 62.38 94.02 62.73 90.47 63.07 91.18 63.42 91.3 63.76 93.43 64.11 92.6 64.45 91.18 64.8 91.77 65.15 89.16 65.49 87.39 65.84 87.74 66.18 90.59 66.53 92.48 66.87 94.26 67.22 94.97 67.57 95.09 67.91 94.73 68.26 94.73 68.6 96.63 68.95 99.12 69.3 96.28 69.64 94.85 69.99 97.34 70.33 94.62 70.68 92.72 71.02 94.62 71.37 95.09 71.72 98.65 72.06 98.88 72.41 98.41 72.75 100.19 73.1 99.12 73.44 102.32 73.79 101.49 74.14 103.39 74.48 104.57 74.83 106.94 75.17 105.64 75.52 106.58 75.87 107.3 76.21 108.72 76.56 110.97 76.9 110.02 77.25 111.68 77.59 112.27 77.94 113.22 78.29 113.7 78.63 115.95 78.98 116.18 79.32 115.47 79.67 115 80.01 114.88 80.36 116.66 80.71 116.07 81.05 113.93 81.4 113.46 81.74 112.63 82.09 111.32 82.44 112.63 82.78 112.98 83.13 113.34 83.47 113.58 83.82 113.58 84.16 114.05 84.51 115.83 84.86 114.29 85.2 112.75 85.55 113.22 85.89 113.58 86.24 115.24 86.58 114.76 86.93 115.35 87.28 115.35 87.62 115.71 87.97 114.88 88.31 115.47 88.66 114.52 89.01 115.83 89.35 113.46 89.7 115.83 90.04 113.81 90.39 113.58 90.73 111.56 91.08 110.26 91.43 110.61 91.77 110.14 92.12 109.67 92.46 106.47 92.81 104.93 93.15 104.33 93.5 101.84 93.85 103.15 94.19 105.99 94.54 105.4 94.88 108.36 95.23 108.72 95.58 108.36 95.92 108.72 96.27 108.01 96.61 107.06 96.96 106.11 97.3 104.57 97.65 104.69 98 102.2 98.34 102.67 98.69 102.79 99.03 101.37 99.38 103.98 99.72 103.15 100.07 102.44 100.42 102.56 100.76 100.9 101.11 99.95 101.45 98.53 101.8 98.29 102.15 95.8 102.49 93.9 102.84 96.04 103.18 94.5 103.53 96.16 103.87 94.02 104.22 91.18 104.57 90.11 104.91 88.22 105.26 89.16 105.6 89.05 105.95 87.98 106.29 87.39 106.64 87.62 106.99 89.88 107.33 89.28 107.68 86.91 108.02 83.83 108.37 83.83 108.72 86.32 109.06 88.1 109.41 90.35 109.75 90.94 110.1 90.35 110.44 91.3 110.79 93.08 111.14 92.96 111.48 93.55 111.83 93.55 112.17 94.38 112.52 95.21 112.86 96.63 113.21 96.28 113.56 97.93 113.9 97.82 114.25 98.76 114.59 100.42 114.94 97.58 115.29 99 115.63 96.51 115.98 100.78 116.32 101.61 116.67 103.03 117.01 103.03 117.36 102.79 117.71 102.91 118.05 106.94 118.4 107.3 118.74 107.53 119.09 106.47 119.43 103.86 119.78 101.37 120.13 101.49 120.47 101.49 120.82 104.57 121.16 108.24 121.51 108.95 121.86 109.67 122.2 111.32 122.55 111.44 122.89 112.04 123.24 110.85 123.58 109.78 123.93 111.32 124.28 112.75 124.62 113.93 124.97 114.64 125.31 113.58 125.66 113.46 126 112.27 126.35 112.04 126.7 114.29 127.04 114.41 127.39 114.29 127.73 111.92 128.08 111.32 128.43 111.56 128.77 112.63 129.12 112.27 129.46 111.09 129.81 112.04 130.15 111.92 130.5 111.8 130.85 112.15 131.19 112.04 131.54 110.5 131.88 110.97 132.23 111.92 132.57 113.34 132.92 113.46 133.27 115.83 133.61 114.88 133.96 114.41 134.3 114.17 134.65 113.22 135 114.29 135.34 113.93 135.69 111.44 136.03 112.27 136.38 111.8 136.72 109.43 137.07 108.36 137.42 104.93 137.76 107.53 138.11 107.18 138.45 107.41 138.8 103.15 139.14 104.21 139.49 100.9 139.84 99.47 140.18 100.54 140.53 102.2 140.87 103.15 141.22 104.81 141.57 103.98 141.91 107.3 142.26 106.11 142.6 103.74 142.95 103.39 143.29 104.1 143.64 104.69 143.99 103.86 144.33 104.1 144.68 103.86 145.02 105.16 145.37 106.35 145.71 104.33 146.06 103.62 146.41 101.73 146.75 101.02 147.1 104.1 147.44 102.56 147.79 104.93 148.14 105.04 148.48 107.3 148.83 107.41 149.17 105.99 149.52 104.69 149.86 106.23 150.21 106.94 150.56 108.48 150.9 109.19 151.25 108.13 151.59 107.53 151.94 109.67 152.28 109.31 152.63 107.41 152.98 108.13 153.32 107.41 153.67 108.72 154.01 108.24 154.36 110.26 154.71 109.9 155.05 109.9 155.4 111.09 155.74 111.21 156.09 111.21 156.43 111.56 156.78 111.44 157.13 110.26 157.47 110.38 157.82 111.8 158.16 112.75 158.51 112.27 158.85 112.63 159.2 111.68 159.55 113.34 159.89 114.88 160.24 113.46 160.58 113.34 160.93 113.81 161.28 113.46 161.62 114.17 161.97 115 162.31 114.88 162.66 116.66 163 117.49 163.35 116.54 163.7 115.47 164.04 116.42 164.39 115.47 164.73 115.35 165.08 114.17 165.42 114.05 165.77 112.98 166.12 113.1 166.46 112.63 166.81 110.5 167.15 110.5 167.5 112.27 167.85 112.87 168.19 114.88 168.54 114.88 168.88 116.18 169.23 115.12 169.57 115.71 169.92 115.59 170.27 114.29 170.61 113.7 170.96 114.17 171.3 115.35 171.65 114.64 171.99 113.81 172.34 113.46 172.69 112.15 173.03 112.04 173.38 112.51 173.72 114.05 174.07 113.46 174.42 112.39 174.76 112.63 175.11 112.04 175.45 112.98 175.8 113.58 176.14 112.98 176.49 112.51 176.84 111.21 177.18 112.87 177.53 113.1 177.87 113.58 178.22 113.34 178.56 111.44 178.91 111.68 179.26 111.32 179.6 114.76 179.95 115.47 180.29 114.88 180.64 112.63 180.99 112.75 181.33 111.21 181.68 112.63 182.02 111.09 182.37 109.9 182.71 110.73 183.06 111.56 183.41 112.87 183.75 114.17 184.1 112.87 184.44 112.98 184.79 113.7 185.13 115.95 185.48 115.71 185.83 114.17 186.17 113.81 186.52 112.39 186.86 112.39 187.21 111.09 187.56 111.09 187.9 111.8 188.25 112.39 188.59 111.56 188.94 111.21 189.28 112.63 189.63 113.34 189.98 113.1 190.32 112.98 190.67 112.75 191.01 111.92 191.36 110.73 191.7 110.85 192.05 109.55 192.4 109.31 192.74 108.01 193.09 108.01 193.43 107.53 193.78 105.4 194.13 102.2 194.47 102.91 194.82 102.67 195.16 103.74 195.51 105.52 195.85 106.11 196.2 104.69"/>
      </g>
      <g stroke-width="0.3" fill="#000000" fill-opacity="0.000" class="geometry" stroke-dasharray="none" stroke="#F46D43" id="img-51fce121-17">
        <path fill="none" d="M23.65,71.86 L 24 69.85 24.34 66.89 24.69 67.12 25.03 64.87 25.38 66.65 25.73 67.72 26.07 65.58 26.42 66.77 26.76 66.89 27.11 65.46 27.45 62.5 27.8 62.15 28.15 62.03 28.49 60.61 28.84 58.83 29.18 58.12 29.53 58.35 29.88 57.76 30.22 55.27 30.57 55.04 30.91 52.9 31.26 57.41 31.6 58.24 31.95 58.47 32.3 58.59 32.64 59.54 32.99 60.84 33.33 61.08 33.68 63.81 34.02 64.4 34.37 61.91 34.72 61.79 35.06 62.15 35.41 62.98 35.75 62.62 36.1 61.32 36.45 60.72 36.79 59.54 37.14 60.61 37.48 58.95 37.83 62.5 38.17 62.74 38.52 60.49 38.87 59.89 39.21 57.88 39.56 60.25 39.9 63.21 40.25 62.98 40.59 66.65 40.94 67.6 41.29 72.1 41.63 72.34 41.98 69.85 42.32 70.44 42.67 71.98 43.02 70.56 43.36 70.44 43.71 72.34 44.05 69.85 44.4 68.19 44.74 66.18 45.09 65.82 45.44 65.35 45.78 65.35 46.13 67.48 46.47 67.12 46.82 63.92 47.16 66.53 47.51 69.02 47.86 67.72 48.2 69.73 48.55 73.05 48.89 74.47 49.24 72.22 49.59 72.57 49.93 71.98 50.28 71.39 50.62 75.3 50.97 73.17 51.31 70.8 51.66 71.15 52.01 71.27 52.35 72.34 52.7 70.68 53.04 70.32 53.39 69.85 53.73 69.85 54.08 70.8 54.43 68.55 54.77 69.37 55.12 68.07 55.46 66.65 55.81 66.29 56.16 67 56.5 65.7 56.85 69.73 57.19 68.55 57.54 68.66 57.88 67.72 58.23 68.43 58.58 70.8 58.92 71.51 59.27 65.94 59.61 68.66 59.96 68.9 60.3 69.49 60.65 68.07 61 66.41 61.34 67 61.69 65.94 62.03 62.98 62.38 63.09 62.73 68.43 63.07 69.14 63.42 67.72 63.76 69.26 64.11 68.78 64.45 66.41 64.8 63.09 65.15 64.52 65.49 65.94 65.84 64.99 66.18 64.28 66.53 65.11 66.87 66.29 67.22 66.06 67.57 65.58 67.91 67.24 68.26 62.86 68.6 58.59 68.95 56.93 69.3 54.92 69.64 54.68 69.99 58 70.33 58 70.68 55.87 71.02 56.46 71.37 54.68 71.72 53.73 72.06 55.15 72.41 55.63 72.75 53.97 73.1 54.92 73.44 54.8 73.79 53.61 74.14 53.14 74.48 53.73 74.83 56.69 75.17 57.29 75.52 58 75.87 58.47 76.21 58.24 76.56 54.32 76.9 56.58 77.25 58.83 77.59 56.46 77.94 57.64 78.29 59.06 78.63 60.13 78.98 58.35 79.32 56.69 79.67 55.27 80.01 55.15 80.36 58.35 80.71 59.06 81.05 58.47 81.4 58.95 81.74 58.47 82.09 59.66 82.44 60.25 82.78 62.62 83.13 58.12 83.47 56.93 83.82 54.32 84.16 52.9 84.51 52.9 84.86 54.32 85.2 52.55 85.55 55.15 85.89 55.75 86.24 56.22 86.58 59.42 86.93 60.25 87.28 58.83 87.62 59.66 87.97 61.32 88.31 61.91 88.66 64.52 89.01 63.21 89.35 62.15 89.7 65.23 90.04 65.46 90.39 65.46 90.73 68.31 91.08 70.56 91.43 67 91.77 69.49 92.12 72.81 92.46 71.15 92.81 75.89 93.15 72.57 93.5 71.39 93.85 72.46 94.19 69.61 94.54 70.09 94.88 70.92 95.23 69.14 95.58 68.66 95.92 73.17 96.27 71.39 96.61 69.61 96.96 71.03 97.3 69.73 97.65 72.22 98 76.13 98.34 77.2 98.69 77.43 99.03 80.28 99.38 80.28 99.72 77.91 100.07 78.26 100.42 76.01 100.76 78.38 101.11 77.79 101.45 76.72 101.8 77.79 102.15 77.2 102.49 76.13 102.84 77.08 103.18 79.45 103.53 80.16 103.87 79.21 104.22 82.17 104.57 81.7 104.91 81.11 105.26 79.68 105.6 80.51 105.95 83.95 106.29 85.25 106.64 85.14 106.99 86.08 107.33 83.12 107.68 84.31 108.02 85.37 108.37 84.31 108.72 84.54 109.06 83.71 109.41 82.65 109.75 81.94 110.1 80.75 110.44 79.09 110.79 82.88 111.14 83.36 111.48 82.17 111.83 80.28 112.17 80.28 112.52 76.72 112.86 76.6 113.21 75.77 113.56 75.66 113.9 73.76 114.25 73.64 114.59 72.1 114.94 71.15 115.29 73.52 115.63 74 115.98 72.57 116.32 70.09 116.67 68.66 117.01 67.24 117.36 67.24 117.71 69.97 118.05 70.09 118.4 73.4 118.74 76.6 119.09 77.79 119.43 77.55 119.78 80.51 120.13 80.99 120.47 78.74 120.82 81.34 121.16 78.38 121.51 78.14 121.86 76.13 122.2 76.25 122.55 77.08 122.89 74.35 123.24 74.94 123.58 74.23 123.93 78.97 124.28 78.74 124.62 75.42 124.97 77.67 125.31 76.6 125.66 77.43 126 78.62 126.35 77.08 126.7 78.5 127.04 75.77 127.39 76.13 127.73 76.13 128.08 75.89 128.43 75.89 128.77 74.11 129.12 76.25 129.46 75.89 129.81 78.97 130.15 75.18 130.5 73.76 130.85 73.17 131.19 74.71 131.54 75.3 131.88 75.18 132.23 70.92 132.57 71.39 132.92 68.9 133.27 70.56 133.61 70.44 133.96 70.44 134.3 69.61 134.65 70.44 135 70.56 135.34 67.48 135.69 66.41 136.03 71.03 136.38 70.92 136.72 73.76 137.07 73.17 137.42 71.98 137.76 74.59 138.11 73.64 138.45 71.03 138.8 69.14 139.14 68.78 139.49 70.44 139.84 72.81 140.18 78.62 140.53 78.74 140.87 79.92 141.22 79.68 141.57 83 141.91 83.36 142.26 84.07 142.6 81.58 142.95 83.24 143.29 83.12 143.64 80.99 143.99 80.51 144.33 78.14 144.68 77.67 145.02 77.79 145.37 79.09 145.71 78.62 146.06 76.72 146.41 76.72 146.75 73.4 147.1 73.88 147.44 74.11 147.79 73.64 148.14 74 148.48 71.27 148.83 71.03 149.17 70.09 149.52 69.49 149.86 70.56 150.21 72.93 150.56 73.88 150.9 77.08 151.25 77.43 151.59 79.21 151.94 81.82 152.28 85.25 152.63 84.07 152.98 86.44 153.32 86.91 153.67 85.37 154.01 85.25 154.36 87.27 154.71 87.03 155.05 87.98 155.4 91.06 155.74 92.36 156.09 91.77 156.43 91.42 156.78 92.36 157.13 90.94 157.47 91.77 157.82 90.82 158.16 90.71 158.51 95.92 158.85 97.22 159.2 97.46 159.55 95.56 159.89 93.31 160.24 94.97 160.58 93.9 160.93 93.31 161.28 92.36 161.62 94.5 161.97 96.51 162.31 96.63 162.66 97.7 163 96.75 163.35 97.1 163.7 99.12 164.04 101.02 164.39 99.95 164.73 101.37 165.08 97.82 165.42 96.63 165.77 94.73 166.12 92.72 166.46 92.96 166.81 92.25 167.15 90.35 167.5 91.06 167.85 88.69 168.19 87.74 168.54 88.93 168.88 88.57 169.23 86.91 169.57 83.24 169.92 86.79 170.27 84.54 170.61 82.53 170.96 82.77 171.3 85.14 171.65 86.2 171.99 84.66 172.34 83.36 172.69 83.12 173.03 82.41 173.38 80.75 173.72 78.38 174.07 73.76 174.42 72.81 174.76 72.93 175.11 77.2 175.45 78.14 175.8 78.14 176.14 78.86 176.49 76.72 176.84 73.64 177.18 75.18 177.53 76.84 177.87 79.09 178.22 79.8 178.56 81.7 178.91 81.11 179.26 78.74 179.6 78.14 179.95 79.21 180.29 78.26 180.64 79.21 180.99 79.45 181.33 79.33 181.68 78.5 182.02 77.2 182.37 80.99 182.71 81.94 183.06 78.74 183.41 77.55 183.75 74.35 184.1 74.94 184.44 76.37 184.79 75.89 185.13 74 185.48 73.76 185.83 76.13 186.17 74.94 186.52 74.47 186.86 75.18 187.21 73.29 187.56 71.51 187.9 71.39 188.25 69.85 188.59 73.88 188.94 75.54 189.28 77.2 189.63 78.74 189.98 80.28 190.32 80.63 190.67 81.34 191.01 84.42 191.36 83.48 191.7 84.54 192.05 86.08 192.4 81.7 192.74 82.88 193.09 83.71 193.43 82.53 193.78 83.6 194.13 78.86 194.47 76.96 194.82 75.3 195.16 78.5 195.51 79.45 195.85 81.7 196.2 82.77"/>
      </g>
      <g stroke-width="0.3" fill="#000000" fill-opacity="0.000" class="geometry" stroke-dasharray="none" stroke="#D53E4F" id="img-51fce121-18">
        <path fill="none" d="M23.65,71.86 L 24 72.46 24.34 73.52 24.69 74.11 25.03 74.11 25.38 74.94 25.73 74.23 26.07 73.52 26.42 72.57 26.76 70.8 27.11 71.39 27.45 72.93 27.8 75.3 28.15 76.01 28.49 74.23 28.84 72.69 29.18 74 29.53 71.03 29.88 71.27 30.22 69.85 30.57 68.43 30.91 70.68 31.26 71.74 31.6 69.61 31.95 70.92 32.3 76.72 32.64 78.86 32.99 77.31 33.33 79.45 33.68 78.97 34.02 78.74 34.37 75.18 34.72 76.72 35.06 76.37 35.41 74.23 35.75 74.59 36.1 76.37 36.45 80.75 36.79 80.16 37.14 77.43 37.48 71.98 37.83 72.1 38.17 69.49 38.52 72.1 38.87 68.43 39.21 68.66 39.56 70.68 39.9 69.61 40.25 71.03 40.59 68.78 40.94 69.97 41.29 71.86 41.63 74.47 41.98 72.69 42.32 71.74 42.67 72.93 43.02 69.49 43.36 70.68 43.71 70.8 44.05 73.76 44.4 68.66 44.74 69.14 45.09 69.97 45.44 68.9 45.78 71.03 46.13 68.9 46.47 70.32 46.82 72.46 47.16 71.74 47.51 70.92 47.86 70.68 48.2 73.17 48.55 70.92 48.89 69.97 49.24 66.41 49.59 68.78 49.93 67.72 50.28 70.56 50.62 73.4 50.97 73.29 51.31 75.77 51.66 78.62 52.01 77.67 52.35 77.31 52.7 77.79 53.04 75.06 53.39 74.94 53.73 76.72 54.08 73.17 54.43 72.69 54.77 75.66 55.12 73.76 55.46 71.86 55.81 69.02 56.16 69.37 56.5 68.31 56.85 68.31 57.19 65.35 57.54 66.06 57.88 66.65 58.23 62.98 58.58 62.15 58.92 59.66 59.27 56.22 59.61 59.3 59.96 64.63 60.3 63.81 60.65 62.74 61 66.18 61.34 65.23 61.69 63.69 62.03 64.28 62.38 64.04 62.73 63.69 63.07 63.92 63.42 65.82 63.76 65.82 64.11 63.81 64.45 64.75 64.8 67.12 65.15 66.18 65.49 70.32 65.84 67.48 66.18 68.9 66.53 71.15 66.87 69.97 67.22 68.66 67.57 66.53 67.91 65.58 68.26 64.52 68.6 64.87 68.95 63.92 69.3 63.45 69.64 63.09 69.99 65.7 70.33 65.46 70.68 64.99 71.02 61.32 71.37 65.23 71.72 68.19 72.06 67.6 72.41 70.09 72.75 71.98 73.1 73.88 73.44 75.89 73.79 76.96 74.14 73.29 74.48 74.83 74.83 72.34 75.17 70.8 75.52 70.92 75.87 69.73 76.21 69.97 76.56 70.68 76.9 74.94 77.25 75.54 77.59 73.64 77.94 72.46 78.29 75.3 78.63 75.66 78.98 79.68 79.32 78.38 79.67 79.92 80.01 79.92 80.36 79.45 80.71 82.53 81.05 81.11 81.4 83.83 81.74 81.94 82.09 83 82.44 81.46 82.78 79.92 83.13 80.87 83.47 83.24 83.82 79.8 84.16 78.38 84.51 75.66 84.86 71.74 85.2 74.94 85.55 75.42 85.89 73.4 86.24 74 86.58 74.11 86.93 72.81 87.28 72.22 87.62 72.93 87.97 73.17 88.31 74.23 88.66 74.23 89.01 76.01 89.35 75.89 89.7 75.06 90.04 78.26 90.39 79.09 90.73 81.46 91.08 84.66 91.43 84.66 91.77 86.2 92.12 88.57 92.46 84.31 92.81 85.85 93.15 87.39 93.5 87.62 93.85 88.34 94.19 87.51 94.54 89.52 94.88 89.99 95.23 92.01 95.58 93.43 95.92 92.6 96.27 92.48 96.61 88.45 96.96 89.52 97.3 91.77 97.65 91.65 98 89.52 98.34 89.88 98.69 89.76 99.03 90.59 99.38 94.38 99.72 91.65 100.07 90.82 100.42 89.52 100.76 91.53 101.11 89.4 101.45 90.94 101.8 88.34 102.15 88.22 102.49 87.03 102.84 86.79 103.18 86.2 103.53 84.78 103.87 87.39 104.22 83.36 104.57 83.6 104.91 83.24 105.26 83.83 105.6 78.97 105.95 77.91 106.29 79.09 106.64 80.16 106.99 81.58 107.33 79.33 107.68 80.63 108.02 81.34 108.37 80.99 108.72 77.08 109.06 80.28 109.41 83.36 109.75 81.58 110.1 81.34 110.44 80.99 110.79 79.68 111.14 81.34 111.48 77.43 111.83 78.74 112.17 78.5 112.52 77.67 112.86 77.08 113.21 75.89 113.56 75.89 113.9 74.59 114.25 74.83 114.59 75.77 114.94 75.3 115.29 75.3 115.63 73.05 115.98 74.11 116.32 75.06 116.67 72.22 117.01 77.08 117.36 76.96 117.71 74.59 118.05 75.3 118.4 77.67 118.74 77.31 119.09 78.86 119.43 76.13 119.78 77.2 120.13 78.86 120.47 80.51 120.82 80.87 121.16 81.94 121.51 80.87 121.86 85.37 122.2 85.14 122.55 84.31 122.89 85.97 123.24 82.05 123.58 81.58 123.93 80.63 124.28 81.7 124.62 82.53 124.97 81.82 125.31 83.6 125.66 82.65 126 85.25 126.35 87.62 126.7 85.25 127.04 82.88 127.39 82.53 127.73 83.12 128.08 80.4 128.43 80.99 128.77 83.6 129.12 84.19 129.46 82.77 129.81 80.99 130.15 80.28 130.5 82.65 130.85 81.23 131.19 81.46 131.54 80.99 131.88 81.94 132.23 83.95 132.57 83.12 132.92 82.41 133.27 84.42 133.61 84.78 133.96 84.42 134.3 82.05 134.65 80.4 135 81.34 135.34 82.29 135.69 81.82 136.03 80.63 136.38 81.58 136.72 80.51 137.07 75.3 137.42 76.37 137.76 76.96 138.11 78.97 138.45 76.48 138.8 77.2 139.14 77.43 139.49 73.64 139.84 74.59 140.18 73.29 140.53 73.17 140.87 74.47 141.22 76.13 141.57 77.55 141.91 76.84 142.26 76.13 142.6 77.2 142.95 76.84 143.29 75.06 143.64 76.6 143.99 74.59 144.33 70.68 144.68 71.63 145.02 73.05 145.37 74 145.71 75.54 146.06 72.69 146.41 75.77 146.75 74.59 147.1 74.71 147.44 74.11 147.79 75.3 148.14 76.01 148.48 80.28 148.83 80.04 149.17 79.92 149.52 82.53 149.86 84.78 150.21 84.31 150.56 83.36 150.9 83.36 151.25 85.14 151.59 84.31 151.94 85.25 152.28 83.48 152.63 85.61 152.98 87.86 153.32 83 153.67 82.53 154.01 81.7 154.36 82.05 154.71 84.66 155.05 86.56 155.4 82.88 155.74 82.05 156.09 79.57 156.43 78.26 156.78 78.5 157.13 76.96 157.47 75.3 157.82 76.25 158.16 76.84 158.51 77.43 158.85 76.72 159.2 77.08 159.55 79.68 159.89 78.62 160.24 78.86 160.58 77.31 160.93 77.31 161.28 76.96 161.62 78.26 161.97 76.96 162.31 76.25 162.66 73.88 163 71.74 163.35 71.86 163.7 73.64 164.04 75.3 164.39 74.11 164.73 72.81 165.08 71.98 165.42 75.18 165.77 77.67 166.12 78.74 166.46 78.74 166.81 74.59 167.15 72.22 167.5 74.11 167.85 75.77 168.19 77.2 168.54 74.71 168.88 76.25 169.23 76.6 169.57 78.86 169.92 80.63 170.27 83 170.61 80.16 170.96 78.74 171.3 79.33 171.65 77.08 171.99 76.25 172.34 77.79 172.69 76.01 173.03 76.37 173.38 76.13 173.72 78.03 174.07 77.31 174.42 77.2 174.76 78.38 175.11 80.4 175.45 78.62 175.8 77.91 176.14 77.67 176.49 75.54 176.84 77.43 177.18 79.8 177.53 83.36 177.87 85.73 178.22 85.25 178.56 81.34 178.91 80.99 179.26 81.46 179.6 83.36 179.95 81.7 180.29 79.45 180.64 75.3 180.99 75.42 181.33 78.38 181.68 75.66 182.02 74.59 182.37 74.71 182.71 74.71 183.06 75.18 183.41 76.13 183.75 75.54 184.1 76.84 184.44 77.55 184.79 78.14 185.13 78.62 185.48 81.34 185.83 81.23 186.17 80.16 186.52 80.16 186.86 80.04 187.21 80.4 187.56 83 187.9 81.7 188.25 80.99 188.59 80.99 188.94 80.51 189.28 80.04 189.63 79.8 189.98 80.75 190.32 79.92 190.67 79.45 191.01 78.62 191.36 80.16 191.7 81.11 192.05 82.77 192.4 82.05 192.74 81.94 193.09 83 193.43 84.07 193.78 81.7 194.13 83.83 194.47 81.94 194.82 84.19 195.16 84.66 195.51 84.9 195.85 85.85 196.2 83.36"/>
      </g>
      <g stroke-width="0.3" fill="#000000" fill-opacity="0.000" class="geometry" stroke-dasharray="none" stroke="#9E0142" id="img-51fce121-19">
        <path fill="none" d="M23.65,71.86 L 24 71.03 24.34 73.4 24.69 75.77 25.03 75.54 25.38 77.2 25.73 75.42 26.07 74.94 26.42 78.38 26.76 79.45 27.11 79.8 27.45 80.99 27.8 78.97 28.15 81.23 28.49 82.88 28.84 83.71 29.18 84.54 29.53 82.65 29.88 82.53 30.22 84.9 30.57 85.25 30.91 85.14 31.26 86.91 31.6 86.56 31.95 87.39 32.3 88.57 32.64 89.16 32.99 89.88 33.33 92.48 33.68 92.01 34.02 93.43 34.37 91.18 34.72 92.25 35.06 90.94 35.41 87.98 35.75 88.1 36.1 87.15 36.45 87.15 36.79 86.79 37.14 87.86 37.48 86.2 37.83 87.62 38.17 85.73 38.52 83 38.87 83 39.21 79.92 39.56 79.21 39.9 78.74 40.25 77.08 40.59 74 40.94 72.46 41.29 74.59 41.63 76.96 41.98 76.48 42.32 76.37 42.67 77.31 43.02 78.74 43.36 79.09 43.71 78.97 44.05 80.16 44.4 79.33 44.74 76.72 45.09 79.57 45.44 80.28 45.78 78.5 46.13 79.09 46.47 77.79 46.82 79.45 47.16 78.14 47.51 76.84 47.86 79.09 48.2 76.25 48.55 76.72 48.89 76.37 49.24 75.77 49.59 71.51 49.93 72.57 50.28 78.14 50.62 78.03 50.97 77.67 51.31 77.08 51.66 77.2 52.01 74.47 52.35 74.35 52.7 76.6 53.04 75.06 53.39 75.77 53.73 73.17 54.08 74.47 54.43 76.01 54.77 78.62 55.12 78.5 55.46 81.46 55.81 84.31 56.16 86.68 56.5 91.65 56.85 92.48 57.19 92.25 57.54 89.64 57.88 89.4 58.23 93.19 58.58 91.42 58.92 87.86 59.27 89.76 59.61 90.11 59.96 90.59 60.3 88.34 60.65 91.77 61 92.84 61.34 97.1 61.69 95.92 62.03 95.21 62.38 94.5 62.73 94.62 63.07 92.72 63.42 95.56 63.76 94.97 64.11 95.09 64.45 95.09 64.8 93.67 65.15 96.28 65.49 95.56 65.84 95.45 66.18 93.31 66.53 93.67 66.87 92.25 67.22 92.6 67.57 90.82 67.91 89.99 68.26 92.25 68.6 92.72 68.95 92.96 69.3 95.09 69.64 92.6 69.99 91.89 70.33 90.94 70.68 93.55 71.02 94.38 71.37 97.22 71.72 96.75 72.06 97.22 72.41 98.29 72.75 98.29 73.1 96.63 73.44 93.43 73.79 96.75 74.14 95.68 74.48 97.46 74.83 97.93 75.17 99.71 75.52 97.22 75.87 97.22 76.21 94.85 76.56 92.96 76.9 91.3 77.25 87.15 77.59 87.98 77.94 86.56 78.29 85.85 78.63 86.44 78.98 86.91 79.32 88.1 79.67 90.47 80.01 89.05 80.36 87.39 80.71 85.97 81.05 84.19 81.4 84.78 81.74 87.98 82.09 89.99 82.44 90.35 82.78 91.3 83.13 94.73 83.47 93.79 83.82 95.21 84.16 96.87 84.51 94.62 84.86 93.19 85.2 96.16 85.55 97.46 85.89 100.07 86.24 99 86.58 96.99 86.93 95.8 87.28 96.39 87.62 94.97 87.97 93.67 88.31 91.53 88.66 90.94 89.01 92.6 89.35 91.77 89.7 91.3 90.04 91.53 90.39 91.18 90.73 90.71 91.08 92.25 91.43 92.6 91.77 93.31 92.12 91.65 92.46 94.02 92.81 93.08 93.15 95.68 93.5 96.99 93.85 96.39 94.19 95.92 94.54 97.22 94.88 96.28 95.23 95.8 95.58 95.09 95.92 95.21 96.27 97.1 96.61 96.63 96.96 96.87 97.3 96.28 97.65 93.79 98 93.19 98.34 92.96 98.69 94.5 99.03 94.02 99.38 94.85 99.72 92.72 100.07 92.13 100.42 91.18 100.76 92.36 101.11 92.25 101.45 92.84 101.8 95.09 102.15 94.26 102.49 93.9 102.84 93.79 103.18 94.02 103.53 94.26 103.87 96.39 104.22 92.48 104.57 91.06 104.91 89.28 105.26 90.11 105.6 87.39 105.95 86.2 106.29 87.98 106.64 88.1 106.99 89.64 107.33 88.57 107.68 83.95 108.02 86.91 108.37 86.68 108.72 84.9 109.06 87.15 109.41 90.59 109.75 92.01 110.1 92.48 110.44 90.94 110.79 90.47 111.14 89.16 111.48 87.03 111.83 87.86 112.17 84.54 112.52 83.6 112.86 82.53 113.21 84.07 113.56 85.25 113.9 84.54 114.25 82.41 114.59 82.17 114.94 80.87 115.29 79.21 115.63 84.54 115.98 84.31 116.32 86.32 116.67 88.93 117.01 88.69 117.36 88.22 117.71 86.79 118.05 87.62 118.4 86.08 118.74 85.97 119.09 82.65 119.43 83.24 119.78 80.63 120.13 82.88 120.47 80.99 120.82 80.51 121.16 81.7 121.51 84.66 121.86 85.73 122.2 86.79 122.55 85.61 122.89 86.91 123.24 88.45 123.58 91.18 123.93 90.59 124.28 93.55 124.62 92.6 124.97 94.14 125.31 92.25 125.66 91.18 126 92.84 126.35 94.38 126.7 94.73 127.04 94.14 127.39 94.62 127.73 95.33 128.08 94.62 128.43 93.55 128.77 93.9 129.12 94.97 129.46 95.45 129.81 94.85 130.15 97.22 130.5 97.46 130.85 94.5 131.19 95.56 131.54 97.1 131.88 95.21 132.23 94.73 132.57 93.31 132.92 94.73 133.27 97.7 133.61 99.47 133.96 101.84 134.3 102.91 134.65 102.67 135 101.96 135.34 104.45 135.69 105.99 136.03 104.93 136.38 107.18 136.72 108.48 137.07 110.26 137.42 112.98 137.76 112.39 138.11 111.44 138.45 109.67 138.8 109.78 139.14 111.56 139.49 112.39 139.84 114.76 140.18 113.93 140.53 112.63 140.87 113.22 141.22 113.34 141.57 114.64 141.91 112.87 142.26 114.29 142.6 113.81 142.95 114.76 143.29 113.58 143.64 112.27 143.99 112.51 144.33 112.04 144.68 111.68 145.02 113.81 145.37 113.7 145.71 114.29 146.06 113.46 146.41 112.39 146.75 112.98 147.1 112.87 147.44 112.04 147.79 111.21 148.14 112.39 148.48 112.98 148.83 113.93 149.17 111.56 149.52 111.44 149.86 109.78 150.21 110.61 150.56 110.02 150.9 107.77 151.25 108.13 151.59 106.35 151.94 105.64 152.28 105.28 152.63 104.57 152.98 104.21 153.32 102.79 153.67 102.79 154.01 102.2 154.36 105.64 154.71 106.23 155.05 104.1 155.4 106.23 155.74 105.87 156.09 108.95 156.43 108.01 156.78 107.89 157.13 108.01 157.47 104.93 157.82 105.28 158.16 106.11 158.51 106.58 158.85 106.82 159.2 106.94 159.55 106.82 159.89 104.33 160.24 103.03 160.58 102.2 160.93 101.25 161.28 100.78 161.62 99.95 161.97 99.12 162.31 101.84 162.66 99.95 163 101.61 163.35 101.25 163.7 100.42 164.04 99.59 164.39 97.93 164.73 99 165.08 101.84 165.42 103.03 165.77 105.4 166.12 106.94 166.46 105.64 166.81 106.11 167.15 105.16 167.5 105.76 167.85 104.1 168.19 104.45 168.54 103.39 168.88 102.91 169.23 103.39 169.57 105.52 169.92 104.69 170.27 103.03 170.61 104.81 170.96 104.81 171.3 103.86 171.65 104.1 171.99 106.35 172.34 107.3 172.69 107.89 173.03 110.26 173.38 111.68 173.72 112.15 174.07 110.26 174.42 110.73 174.76 110.5 175.11 112.51 175.45 114.05 175.8 113.1 176.14 112.39 176.49 112.39 176.84 112.04 177.18 111.92 177.53 111.32 177.87 110.26 178.22 109.9 178.56 110.26 178.91 109.67 179.26 106.94 179.6 105.87 179.95 105.76 180.29 107.41 180.64 107.53 180.99 105.04 181.33 106.47 181.68 108.48 182.02 109.31 182.37 107.53 182.71 106.7 183.06 106.94 183.41 107.06 183.75 108.36 184.1 109.9 184.44 110.38 184.79 111.92 185.13 111.44 185.48 110.14 185.83 108.13 186.17 108.36 186.52 106.94 186.86 107.3 187.21 106.23 187.56 106.23 187.9 108.36 188.25 106.94 188.59 106.23 188.94 106.94 189.28 107.18 189.63 106.23 189.98 106.58 190.32 106.82 190.67 104.69 191.01 104.45 191.36 105.64 191.7 105.4 192.05 104.93 192.4 104.81 192.74 108.95 193.09 110.5 193.43 111.8 193.78 114.64 194.13 112.75 194.47 114.29 194.82 113.46 195.16 113.7 195.51 110.26 195.85 111.21 196.2 111.56"/>
      </g>
    </g>
  </g>
</g>
  <g class="guide ylabels" font-size="2.82" font-family="'PT Sans Caption','Helvetica Neue','Helvetica',sans-serif" fill="#000000" id="img-51fce121-20">
    <text x="20.3" y="131.11" text-anchor="end" dy="0.35em">0</text>
    <text x="20.3" y="101.49" text-anchor="end" dy="0.35em">250</text>
    <text x="20.3" y="71.86" text-anchor="end" dy="0.35em">500</text>
    <text x="20.3" y="42.24" text-anchor="end" dy="0.35em">750</text>
    <text x="20.3" y="12.61" text-anchor="end" dy="0.35em">1000</text>
  </g>
  <g font-size="3.88" font-family="'PT Sans','Helvetica Neue','Helvetica',sans-serif" fill="#000000" stroke="#000000" stroke-opacity="0.000" id="img-51fce121-21">
    <text x="8.81" y="69.86" text-anchor="middle" dy="0.35em" transform="rotate(-90, 8.81, 71.86)">population number</text>
  </g>
  <g font-size="3.88" font-family="'PT Sans','Helvetica Neue','Helvetica',sans-serif" fill="#000000" stroke="#000000" stroke-opacity="0.000" id="img-51fce121-22">
    <text x="109.75" y="5" text-anchor="middle" dy="0.6em">genetic drift</text>
  </g>
</g>
<defs>
  <clipPath id="img-51fce121-4">
  <path d="M21.31,10.61 L 198.2 10.61 198.2 133.11 21.31 133.11" />
</clipPath>
</defs>
</svg>
