<?xml version="1.0" encoding="UTF-8"?>
<svg xmlns="http://www.w3.org/2000/svg"
     xmlns:xlink="http://www.w3.org/1999/xlink"
     xmlns:gadfly="http://www.gadflyjl.org/ns"
     version="1.2"
     width="203.2mm" height="152.4mm" viewBox="0 0 203.2 152.4"
     stroke="none"
     fill="#000000"
     stroke-width="0.3"
     font-size="3.88"
>
<g class="plotroot xscalable yscalable" id="img-5967abef-1">
  <g font-size="3.88" font-family="'PT Sans','Helvetica Neue','Helvetica',sans-serif" fill="#000000" stroke="#000000" stroke-opacity="0.000" id="img-5967abef-2">
    <text x="108.92" y="140.79" text-anchor="middle" dy="0.6em">generation number</text>
  </g>
  <g class="guide xlabels" font-size="2.82" font-family="'PT Sans Caption','Helvetica Neue','Helvetica',sans-serif" fill="#000000" id="img-5967abef-3">
    <text x="21.63" y="134.11" text-anchor="middle" dy="0.6em">0</text>
    <text x="56.55" y="134.11" text-anchor="middle" dy="0.6em">100</text>
    <text x="91.46" y="134.11" text-anchor="middle" dy="0.6em">200</text>
    <text x="126.37" y="134.11" text-anchor="middle" dy="0.6em">300</text>
    <text x="161.29" y="134.11" text-anchor="middle" dy="0.6em">400</text>
    <text x="196.2" y="134.11" text-anchor="middle" dy="0.6em">500</text>
  </g>
<g clip-path="url(#img-5967abef-4)">
  <g id="img-5967abef-5">
    <g pointer-events="visible" opacity="1" fill="#FFFFFF" stroke="#000000" stroke-opacity="0.000" class="guide background" id="img-5967abef-6">
      <rect x="19.63" y="10.61" width="178.57" height="122.5"/>
    </g>
    <g class="guide ygridlines xfixed" stroke-dasharray="0.5,0.5" stroke-width="0.2" stroke="#808080" id="img-5967abef-7">
      <path fill="none" d="M19.63,131.11 L 198.2 131.11"/>
      <path fill="none" d="M19.63,101.49 L 198.2 101.49"/>
      <path fill="none" d="M19.63,71.86 L 198.2 71.86"/>
      <path fill="none" d="M19.63,42.24 L 198.2 42.24"/>
      <path fill="none" d="M19.63,12.61 L 198.2 12.61"/>
    </g>
    <g class="guide xgridlines yfixed" stroke-dasharray="0.5,0.5" stroke-width="0.2" stroke="#808080" id="img-5967abef-8">
      <path fill="none" d="M21.63,10.61 L 21.63 133.11"/>
      <path fill="none" d="M56.55,10.61 L 56.55 133.11"/>
      <path fill="none" d="M91.46,10.61 L 91.46 133.11"/>
      <path fill="none" d="M126.37,10.61 L 126.37 133.11"/>
      <path fill="none" d="M161.29,10.61 L 161.29 133.11"/>
      <path fill="none" d="M196.2,10.61 L 196.2 133.11"/>
    </g>
    <g class="plotpanel" id="img-5967abef-9">
      <g stroke-width="0.3" fill="#000000" fill-opacity="0.000" class="geometry" stroke-dasharray="none" stroke="#3288BD" id="img-5967abef-10">
        <path fill="none" d="M21.98,79.27 L 22.33 78.23 22.68 76.46 23.03 75.57 23.38 71.86 23.73 72.9 24.08 76.75 24.42 77.64 24.77 76.31 25.12 74.38 25.47 73.79 25.82 75.42 26.17 75.57 26.52 75.71 26.87 72.6 27.22 73.64 27.57 74.83 27.92 75.27 28.27 78.08 28.61 75.86 28.96 74.23 29.31 76.9 29.66 79.12 30.01 81.94 30.36 80.6 30.71 81.94 31.06 82.08 31.41 83.12 31.76 80.31 32.11 77.49 32.45 75.42 32.8 75.86 33.15 75.27 33.5 74.53 33.85 76.16 34.2 75.27 34.55 74.23 34.9 73.49 35.25 72.9 35.6 77.05 35.95 76.46 36.3 76.6 36.64 77.2 36.99 81.94 37.34 80.75 37.69 82.08 38.04 82.38 38.39 83.42 38.74 83.86 39.09 86.23 39.44 85.94 39.79 85.34 40.14 89.49 40.49 92.31 40.83 92.16 41.18 93.93 41.53 93.05 41.88 92.9 42.23 93.93 42.58 92.01 42.93 91.42 43.28 89.79 43.63 93.79 43.98 94.82 44.33 97.19 44.67 97.05 45.02 96.01 45.37 98.97 45.72 102.82 46.07 101.93 46.42 101.34 46.77 101.93 47.12 101.93 47.47 100.16 47.82 104.01 48.17 106.38 48.52 104.3 48.86 105.49 49.21 108.3 49.56 109.93 49.91 110.82 50.26 112.75 50.61 113.78 50.96 116.15 51.31 114.67 51.66 114.52 52.01 116.01 52.36 116.89 52.7 118.38 53.05 118.52 53.4 119.12 53.75 116.6 54.1 117.19 54.45 119.12 54.8 120.15 55.15 120.15 55.5 118.82 55.85 118.97 56.2 120.01 56.55 120.6 56.89 118.08 57.24 118.08 57.59 117.64 57.94 116.45 58.29 116.75 58.64 115.71 58.99 113.04 59.34 112.45 59.69 111.71 60.04 109.93 60.39 112.15 60.73 112.3 61.08 112.3 61.43 111.56 61.78 110.23 62.13 111.41 62.48 110.97 62.83 112.6 63.18 111.41 63.53 114.23 63.88 114.52 64.23 112.45 64.58 112.6 64.92 113.93 65.27 113.93 65.62 113.64 65.97 114.08 66.32 111.86 66.67 110.38 67.02 112.15 67.37 112.15 67.72 112.3 68.07 112.01 68.42 112.75 68.77 112.15 69.11 111.27 69.46 112.3 69.81 110.08 70.16 109.04 70.51 107.71 70.86 107.71 71.21 109.34 71.56 111.12 71.91 111.12 72.26 110.38 72.61 112.01 72.95 111.12 73.3 110.53 73.65 107.27 74 110.08 74.35 108.9 74.7 109.04 75.05 107.56 75.4 109.34 75.75 109.34 76.1 108.01 76.45 109.04 76.8 109.93 77.14 110.67 77.49 109.34 77.84 107.41 78.19 108.6 78.54 109.64 78.89 107.56 79.24 109.34 79.59 108.01 79.94 106.67 80.29 106.08 80.64 103.71 80.98 101.93 81.33 101.79 81.68 101.79 82.03 101.34 82.38 101.19 82.73 98.82 83.08 100.01 83.43 100.45 83.78 100.9 84.13 100.9 84.48 101.64 84.83 100.6 85.17 100.9 85.52 102.38 85.87 102.08 86.22 102.97 86.57 100.16 86.92 100.3 87.27 100.6 87.62 103.27 87.97 98.97 88.32 99.12 88.67 100.6 89.02 99.27 89.36 100.75 89.71 103.71 90.06 98.82 90.41 97.34 90.76 95.86 91.11 97.19 91.46 97.79 91.81 95.12 92.16 96.01 92.51 97.05 92.86 96.16 93.2 96.9 93.55 97.05 93.9 93.64 94.25 92.9 94.6 95.56 94.95 97.19 95.3 97.79 95.65 96.6 96 96.6 96.35 95.86 96.7 95.86 97.05 95.86 97.39 99.56 97.74 101.04 98.09 102.82 98.44 102.82 98.79 104.01 99.14 105.64 99.49 106.67 99.84 104.3 100.19 103.27 100.54 105.64 100.89 106.82 101.23 106.53 101.58 106.38 101.93 106.67 102.28 108.6 102.63 105.49 102.98 102.97 103.33 101.93 103.68 102.38 104.03 101.93 104.38 99.56 104.73 98.82 105.08 99.27 105.42 97.79 105.77 99.56 106.12 102.23 106.47 102.53 106.82 99.71 107.17 101.19 107.52 100.9 107.87 100.45 108.22 103.71 108.57 104.01 108.92 104.6 109.26 105.04 109.61 100.45 109.96 101.79 110.31 98.23 110.66 95.71 111.01 97.93 111.36 96.9 111.71 98.82 112.06 95.86 112.41 94.97 112.76 96.3 113.11 98.38 113.45 96.16 113.8 98.23 114.15 99.27 114.5 99.12 114.85 97.93 115.2 98.23 115.55 100.16 115.9 101.93 116.25 105.19 116.6 104.16 116.95 106.08 117.3 107.27 117.64 108.15 117.99 111.27 118.34 112.3 118.69 111.71 119.04 112.6 119.39 110.82 119.74 110.38 120.09 111.86 120.44 111.56 120.79 112.75 121.14 110.67 121.48 111.41 121.83 110.82 122.18 112.01 122.53 111.27 122.88 110.38 123.23 113.93 123.58 112.9 123.93 111.27 124.28 112.3 124.63 113.93 124.98 113.93 125.33 113.78 125.67 115.12 126.02 113.93 126.37 113.64 126.72 112.9 127.07 113.78 127.42 114.97 127.77 114.82 128.12 117.78 128.47 116.3 128.82 116.45 129.17 116.45 129.51 115.12 129.86 117.34 130.21 118.08 130.56 120.15 130.91 121.04 131.26 120.3 131.61 121.04 131.96 121.04 132.31 121.04 132.66 119.56 133.01 117.93 133.36 118.97 133.7 117.49 134.05 114.97 134.4 115.71 134.75 116.15 135.1 114.97 135.45 115.86 135.8 115.86 136.15 112.75 136.5 113.78 136.85 111.27 137.2 110.08 137.55 108.75 137.89 108.15 138.24 107.56 138.59 107.41 138.94 110.38 139.29 111.12 139.64 109.78 139.99 109.49 140.34 107.56 140.69 105.49 141.04 107.27 141.39 108.9 141.73 110.38 142.08 109.64 142.43 108.6 142.78 108.45 143.13 107.41 143.48 108.15 143.83 107.86 144.18 108.6 144.53 106.67 144.88 103.56 145.23 104.16 145.58 104.6 145.92 105.64 146.27 104.3 146.62 104.75 146.97 107.27 147.32 105.19 147.67 107.41 148.02 108.45 148.37 105.19 148.72 107.12 149.07 106.97 149.42 108.45 149.76 109.93 150.11 106.53 150.46 106.97 150.81 109.04 151.16 107.71 151.51 109.04 151.86 110.23 152.21 109.19 152.56 109.19 152.91 106.53 153.26 104.3 153.61 104.16 153.95 104.45 154.3 104.01 154.65 103.41 155 106.23 155.35 106.23 155.7 105.49 156.05 107.27 156.4 110.38 156.75 109.04 157.1 111.12 157.45 109.49 157.79 110.23 158.14 111.12 158.49 108.9 158.84 110.82 159.19 113.19 159.54 112.01 159.89 111.41 160.24 112.6 160.59 114.08 160.94 114.08 161.29 112.9 161.64 114.23 161.98 114.23 162.33 114.82 162.68 113.93 163.03 113.93 163.38 112.9 163.73 111.86 164.08 111.86 164.43 113.93 164.78 112.75 165.13 112.01 165.48 111.41 165.83 113.34 166.17 113.49 166.52 112.6 166.87 112.15 167.22 112.6 167.57 112.75 167.92 112.3 168.27 111.86 168.62 112.75 168.97 113.34 169.32 113.64 169.67 113.19 170.01 114.23 170.36 115.71 170.71 117.64 171.06 115.56 171.41 116.15 171.76 116.75 172.11 115.56 172.46 116.89 172.81 116.15 173.16 112.6 173.51 110.67 173.86 112.75 174.2 112.45 174.55 113.78 174.9 114.23 175.25 113.04 175.6 113.64 175.95 112.9 176.3 114.38 176.65 113.64 177 114.67 177.35 114.67 177.7 114.52 178.04 115.41 178.39 116.45 178.74 116.75 179.09 118.97 179.44 117.78 179.79 114.97 180.14 113.49 180.49 112.6 180.84 108.6 181.19 107.71 181.54 105.64 181.89 104.01 182.23 104.3 182.58 102.82 182.93 103.71 183.28 105.78 183.63 104.16 183.98 106.23 184.33 106.38 184.68 105.34 185.03 103.71 185.38 103.86 185.73 102.67 186.08 103.86 186.42 104.6 186.77 107.12 187.12 108.01 187.47 108.3 187.82 108.45 188.17 108.3 188.52 106.53 188.87 103.86 189.22 102.53 189.57 101.49 189.92 101.79 190.26 101.79 190.61 101.49 190.96 102.53 191.31 102.82 191.66 105.49 192.01 105.78 192.36 108.9 192.71 107.86 193.06 105.64 193.41 104.9 193.76 105.19 194.11 103.86 194.45 102.82 194.8 101.19 195.15 101.49 195.5 101.64 195.85 99.86 196.2 98.82"/>
      </g>
      <g stroke-width="0.3" fill="#000000" fill-opacity="0.000" class="geometry" stroke-dasharray="none" stroke="#66C2A5" id="img-5967abef-11">
        <path fill="none" d="M21.98,79.27 L 22.33 78.53 22.68 79.27 23.03 77.94 23.38 75.86 23.73 74.68 24.08 74.68 24.42 71.86 24.77 72.16 25.12 72.6 25.47 73.2 25.82 72.01 26.17 71.27 26.52 74.23 26.87 74.68 27.22 74.23 27.57 75.42 27.92 74.97 28.27 73.94 28.61 74.38 28.96 70.97 29.31 70.38 29.66 73.05 30.01 72.6 30.36 73.49 30.71 73.94 31.06 75.42 31.41 74.83 31.76 78.08 32.11 79.86 32.45 82.68 32.8 81.34 33.15 81.94 33.5 82.08 33.85 81.94 34.2 84.9 34.55 83.27 34.9 85.64 35.25 88.16 35.6 88.45 35.95 88.6 36.3 84.9 36.64 84.16 36.99 87.71 37.34 88.9 37.69 88.45 38.04 89.94 38.39 91.12 38.74 89.79 39.09 91.71 39.44 91.42 39.79 87.42 40.14 87.27 40.49 82.82 40.83 83.71 41.18 83.12 41.53 82.53 41.88 81.2 42.23 82.97 42.58 84.01 42.93 84.01 43.28 82.97 43.63 84.31 43.98 86.38 44.33 83.27 44.67 85.34 45.02 81.2 45.37 84.16 45.72 80.75 46.07 78.53 46.42 78.23 46.77 75.57 47.12 77.05 47.47 78.08 47.82 79.71 48.17 81.2 48.52 81.2 48.86 80.01 49.21 81.49 49.56 80.16 49.91 81.2 50.26 81.94 50.61 82.53 50.96 78.53 51.31 79.86 51.66 80.75 52.01 81.34 52.36 80.6 52.7 78.97 53.05 80.01 53.4 79.42 53.75 80.31 54.1 81.49 54.45 80.16 54.8 82.53 55.15 81.34 55.5 82.68 55.85 82.53 56.2 83.57 56.55 82.38 56.89 80.9 57.24 75.86 57.59 72.6 57.94 72.16 58.29 71.57 58.64 70.09 58.99 67.27 59.34 69.05 59.69 68.46 60.04 67.12 60.39 67.57 60.73 66.38 61.08 69.35 61.43 69.05 61.78 69.94 62.13 70.68 62.48 71.57 62.83 71.12 63.18 71.12 63.53 71.27 63.88 71.42 64.23 70.68 64.58 72.01 64.92 72.01 65.27 75.71 65.62 76.46 65.97 78.08 66.32 76.16 66.67 78.53 67.02 74.23 67.37 75.86 67.72 77.64 68.07 76.6 68.42 76.75 68.77 73.79 69.11 76.46 69.46 76.31 69.81 73.94 70.16 72.31 70.51 71.12 70.86 70.97 71.21 69.64 71.56 68.9 71.91 71.27 72.26 71.12 72.61 69.79 72.95 69.64 73.3 70.09 73.65 71.42 74 70.23 74.35 71.72 74.7 71.27 75.05 68.6 75.4 68.31 75.75 69.2 76.1 71.86 76.45 70.38 76.8 68.16 77.14 67.12 77.49 67.42 77.84 72.6 78.19 73.79 78.54 76.16 78.89 73.79 79.24 74.53 79.59 73.49 79.94 73.05 80.29 76.6 80.64 78.08 80.98 78.38 81.33 80.75 81.68 80.45 82.03 81.05 82.38 83.12 82.73 81.49 83.08 81.64 83.43 86.38 83.78 86.23 84.13 84.9 84.48 87.42 84.83 84.31 85.17 85.49 85.52 86.23 85.87 84.16 86.22 85.49 86.57 87.57 86.92 85.79 87.27 83.86 87.62 82.38 87.97 83.57 88.32 83.42 88.67 82.68 89.02 84.16 89.36 83.12 89.71 83.12 90.06 84.6 90.41 85.94 90.76 85.34 91.11 82.68 91.46 83.71 91.81 82.82 92.16 86.53 92.51 89.49 92.86 89.49 93.2 86.97 93.55 88.45 93.9 89.19 94.25 91.71 94.6 90.23 94.95 90.53 95.3 89.49 95.65 90.38 96 94.53 96.35 93.34 96.7 92.01 97.05 89.05 97.39 86.38 97.74 82.68 98.09 81.64 98.44 80.9 98.79 79.71 99.14 79.71 99.49 78.08 99.84 74.38 100.19 74.53 100.54 75.12 100.89 74.53 101.23 76.6 101.58 78.08 101.93 75.27 102.28 74.97 102.63 77.2 102.98 77.49 103.33 79.57 103.68 77.79 104.03 77.79 104.38 78.83 104.73 79.86 105.08 78.83 105.42 81.05 105.77 81.64 106.12 82.38 106.47 84.01 106.82 85.49 107.17 84.45 107.52 85.49 107.87 87.12 108.22 85.79 108.57 84.31 108.92 81.34 109.26 82.38 109.61 86.82 109.96 85.05 110.31 82.23 110.66 84.6 111.01 83.71 111.36 86.53 111.71 85.79 112.06 85.34 112.41 87.42 112.76 84.31 113.11 85.19 113.45 81.34 113.8 83.71 114.15 83.86 114.5 86.08 114.85 83.71 115.2 81.2 115.55 79.42 115.9 81.49 116.25 79.71 116.6 79.42 116.95 75.71 117.3 73.49 117.64 68.75 117.99 69.2 118.34 70.53 118.69 71.72 119.04 70.38 119.39 69.64 119.74 68.46 120.09 69.64 120.44 72.31 120.79 71.57 121.14 68.75 121.48 66.83 121.83 63.86 122.18 65.79 122.53 64.16 122.88 65.2 123.23 63.57 123.58 64.46 123.93 61.64 124.28 62.09 124.63 61.79 124.98 62.68 125.33 62.68 125.67 60.31 126.02 58.83 126.37 55.12 126.72 56.16 127.07 53.94 127.42 55.42 127.77 51.57 128.12 50.83 128.47 51.42 128.82 50.98 129.17 52.31 129.51 52.61 129.86 53.79 130.21 52.9 130.56 54.83 130.91 54.09 131.26 53.5 131.61 53.05 131.96 55.87 132.31 54.38 132.66 54.68 133.01 54.09 133.36 54.53 133.7 56.01 134.05 54.83 134.4 57.2 134.75 57.05 135.1 58.83 135.45 58.53 135.8 54.09 136.15 54.68 136.5 53.5 136.85 55.72 137.2 55.72 137.55 58.09 137.89 57.64 138.24 58.09 138.59 58.09 138.94 60.46 139.29 58.24 139.64 61.05 139.99 64.01 140.34 62.53 140.69 64.75 141.04 64.31 141.39 65.35 141.73 68.31 142.08 66.38 142.43 66.38 142.78 68.46 143.13 70.97 143.48 73.64 143.83 72.31 144.18 71.42 144.53 67.42 144.88 68.31 145.23 67.12 145.58 65.35 145.92 64.75 146.27 65.64 146.62 61.94 146.97 61.05 147.32 61.94 147.67 62.38 148.02 64.16 148.37 66.23 148.72 65.35 149.07 64.61 149.42 67.72 149.76 68.16 150.11 67.72 150.46 66.68 150.81 66.09 151.16 63.12 151.51 60.46 151.86 61.35 152.21 63.12 152.56 62.09 152.91 62.38 153.26 62.09 153.61 61.79 153.95 60.61 154.3 58.53 154.65 58.09 155 61.35 155.35 64.01 155.7 62.09 156.05 64.46 156.4 62.38 156.75 61.49 157.1 62.68 157.45 66.23 157.79 64.61 158.14 64.01 158.49 63.86 158.84 61.49 159.19 61.35 159.54 65.05 159.89 65.35 160.24 68.16 160.59 69.35 160.94 71.42 161.29 72.01 161.64 73.2 161.98 72.75 162.33 72.46 162.68 74.38 163.03 75.42 163.38 76.46 163.73 75.27 164.08 71.57 164.43 69.64 164.78 73.05 165.13 74.38 165.48 78.53 165.83 78.08 166.17 77.49 166.52 80.45 166.87 80.6 167.22 84.9 167.57 83.42 167.92 80.9 168.27 82.82 168.62 84.16 168.97 84.9 169.32 86.68 169.67 86.82 170.01 87.27 170.36 86.82 170.71 86.68 171.06 86.97 171.41 86.53 171.76 90.23 172.11 91.12 172.46 90.08 172.81 88.16 173.16 89.49 173.51 88.75 173.86 89.94 174.2 90.97 174.55 93.19 174.9 94.97 175.25 93.34 175.6 91.42 175.95 94.68 176.3 90.82 176.65 85.19 177 85.94 177.35 84.6 177.7 82.97 178.04 87.57 178.39 89.05 178.74 90.82 179.09 92.45 179.44 93.19 179.79 96.01 180.14 96.75 180.49 96.9 180.84 98.38 181.19 98.82 181.54 97.05 181.89 97.19 182.23 99.12 182.58 101.79 182.93 98.97 183.28 97.93 183.63 97.79 183.98 96.75 184.33 97.19 184.68 97.49 185.03 99.56 185.38 100.16 185.73 97.64 186.08 97.49 186.42 98.67 186.77 100.01 187.12 102.53 187.47 101.04 187.82 103.27 188.17 103.27 188.52 103.27 188.87 99.56 189.22 102.97 189.57 101.04 189.92 99.71 190.26 100.75 190.61 99.71 190.96 100.01 191.31 101.04 191.66 101.49 192.01 101.04 192.36 100.01 192.71 100.6 193.06 101.79 193.41 101.79 193.76 104.75 194.11 105.04 194.45 104.9 194.8 102.97 195.15 105.34 195.5 105.64 195.85 103.86 196.2 105.49"/>
      </g>
      <g stroke-width="0.3" fill="#000000" fill-opacity="0.000" class="geometry" stroke-dasharray="none" stroke="#ABDDA4" id="img-5967abef-12">
        <path fill="none" d="M21.98,79.27 L 22.33 80.16 22.68 78.83 23.03 77.49 23.38 76.01 23.73 79.57 24.08 80.45 24.42 78.38 24.77 78.83 25.12 82.38 25.47 78.83 25.82 80.01 26.17 78.23 26.52 77.64 26.87 78.53 27.22 76.31 27.57 76.31 27.92 76.16 28.27 74.97 28.61 72.31 28.96 74.83 29.31 75.42 29.66 76.75 30.01 78.08 30.36 80.6 30.71 78.83 31.06 82.23 31.41 78.97 31.76 76.9 32.11 73.34 32.45 71.42 32.8 74.38 33.15 73.94 33.5 73.2 33.85 72.6 34.2 73.49 34.55 75.12 34.9 73.64 35.25 74.83 35.6 75.57 35.95 76.6 36.3 73.64 36.64 72.01 36.99 72.46 37.34 74.83 37.69 75.12 38.04 73.79 38.39 75.42 38.74 73.34 39.09 72.16 39.44 72.01 39.79 71.42 40.14 69.94 40.49 68.16 40.83 66.09 41.18 64.9 41.53 64.75 41.88 64.75 42.23 63.72 42.58 64.61 42.93 65.49 43.28 65.35 43.63 63.57 43.98 63.42 44.33 65.64 44.67 69.35 45.02 68.75 45.37 68.16 45.72 72.75 46.07 71.27 46.42 69.35 46.77 70.68 47.12 71.72 47.47 71.27 47.82 72.75 48.17 71.57 48.52 73.64 48.86 74.83 49.21 77.05 49.56 76.31 49.91 76.16 50.26 80.16 50.61 80.01 50.96 81.34 51.31 79.57 51.66 78.68 52.01 78.23 52.36 77.94 52.7 76.16 53.05 80.45 53.4 80.01 53.75 76.9 54.1 78.38 54.45 79.27 54.8 82.23 55.15 79.57 55.5 78.97 55.85 81.94 56.2 83.42 56.55 82.08 56.89 84.16 57.24 82.53 57.59 85.49 57.94 89.19 58.29 89.94 58.64 94.38 58.99 92.31 59.34 91.86 59.69 90.38 60.04 90.97 60.39 89.49 60.73 90.53 61.08 91.86 61.43 91.27 61.78 90.68 62.13 84.45 62.48 84.9 62.83 83.42 63.18 86.08 63.53 88.75 63.88 86.97 64.23 89.64 64.58 87.12 64.92 87.71 65.27 91.42 65.62 89.19 65.97 86.23 66.32 86.23 66.67 86.53 67.02 86.68 67.37 85.34 67.72 88.01 68.07 86.82 68.42 86.23 68.77 86.82 69.11 86.82 69.46 86.38 69.81 85.05 70.16 85.49 70.51 84.45 70.86 87.57 71.21 90.82 71.56 87.57 71.91 89.49 72.26 89.49 72.61 89.79 72.95 89.34 73.3 84.9 73.65 84.31 74 86.53 74.35 89.49 74.7 88.9 75.05 88.01 75.4 88.01 75.75 89.05 76.1 88.45 76.45 88.6 76.8 86.68 77.14 86.68 77.49 86.53 77.84 88.01 78.19 87.71 78.54 87.12 78.89 87.57 79.24 85.64 79.59 85.49 79.94 87.57 80.29 88.75 80.64 88.9 80.98 89.64 81.33 90.38 81.68 89.94 82.03 91.56 82.38 92.6 82.73 93.93 83.08 94.08 83.43 93.64 83.78 92.16 84.13 95.27 84.48 96.01 84.83 92.01 85.17 92.01 85.52 93.93 85.87 97.34 86.22 97.34 86.57 100.6 86.92 102.53 87.27 100.3 87.62 99.42 87.97 95.71 88.32 97.93 88.67 97.19 89.02 96.75 89.36 97.64 89.71 96.75 90.06 97.64 90.41 97.64 90.76 96.16 91.11 97.05 91.46 95.42 91.81 94.38 92.16 95.86 92.51 95.12 92.86 97.19 93.2 96.9 93.55 99.27 93.9 100.6 94.25 97.34 94.6 97.49 94.95 99.42 95.3 99.86 95.65 102.08 96 102.82 96.35 100.3 96.7 99.86 97.05 105.78 97.39 104.9 97.74 104.16 98.09 104.6 98.44 102.97 98.79 104.6 99.14 106.53 99.49 102.38 99.84 101.79 100.19 105.78 100.54 103.56 100.89 104.01 101.23 103.86 101.58 105.64 101.93 106.82 102.28 106.97 102.63 109.64 102.98 108.45 103.33 108.75 103.68 109.78 104.03 111.86 104.38 114.23 104.73 116.15 105.08 117.04 105.42 118.23 105.77 117.93 106.12 116.89 106.47 115.86 106.82 118.23 107.17 118.38 107.52 119.86 107.87 119.71 108.22 121.19 108.57 120.6 108.92 120.6 109.26 122.67 109.61 122.23 109.96 122.97 110.31 125.04 110.66 125.19 111.01 125.63 111.36 124.3 111.71 123.71 112.06 124.15 112.41 123.26 112.76 122.67 113.11 121.63 113.45 121.63 113.8 120.3 114.15 120.45 114.5 118.67 114.85 117.49 115.2 115.71 115.55 115.71 115.9 114.82 116.25 114.23 116.6 112.45 116.95 114.82 117.3 113.93 117.64 113.49 117.99 113.34 118.34 114.38 118.69 116.3 119.04 115.27 119.39 114.23 119.74 114.38 120.09 114.08 120.44 114.97 120.79 114.38 121.14 115.56 121.48 117.93 121.83 117.04 122.18 116.6 122.53 119.12 122.88 121.19 123.23 121.93 123.58 122.82 123.93 123.41 124.28 122.82 124.63 122.82 124.98 124.3 125.33 123.56 125.67 123.71 126.02 123.12 126.37 123.56 126.72 123.56 127.07 124.15 127.42 124.45 127.77 124.45 128.12 125.78 128.47 125.19 128.82 125.78 129.17 126.82 129.51 126.82 129.86 128 130.21 126.97 130.56 127.71 130.91 127.56 131.26 128.3 131.61 128.74 131.96 129.04 132.31 128.74 132.66 129.78 133.01 130.23 133.36 130.08 133.7 130.08 134.05 129.63 134.4 129.04 134.75 129.34 135.1 128.89 135.45 128.89 135.8 129.34 136.15 128.6 136.5 128 136.85 128 137.2 127.71 137.55 127.86 137.89 128.15 138.24 127.71 138.59 127.86 138.94 127.71 139.29 128.3 139.64 129.04 139.99 129.63 140.34 129.78 140.69 130.82 141.04 131.11"/>
      </g>
      <g stroke-width="0.3" fill="#000000" fill-opacity="0.000" class="geometry" stroke-dasharray="none" stroke="#E6F598" id="img-5967abef-13">
        <path fill="none" d="M21.98,79.27 L 22.33 77.94 22.68 76.75 23.03 74.68 23.38 75.27 23.73 77.2 24.08 77.64 24.42 78.53 24.77 76.9 25.12 76.01 25.47 77.64 25.82 80.45 26.17 80.01 26.52 79.71 26.87 79.86 27.22 79.12 27.57 75.71 27.92 76.31 28.27 77.79 28.61 75.27 28.96 77.2 29.31 77.2 29.66 74.23 30.01 75.42 30.36 73.49 30.71 73.79 31.06 76.75 31.41 73.94 31.76 75.27 32.11 75.86 32.45 79.42 32.8 77.79 33.15 77.49 33.5 76.16 33.85 75.71 34.2 74.53 34.55 75.12 34.9 76.6 35.25 78.83 35.6 75.27 35.95 75.57 36.3 73.49 36.64 69.2 36.99 67.86 37.34 66.68 37.69 66.23 38.04 66.98 38.39 68.9 38.74 67.42 39.09 68.46 39.44 68.16 39.79 68.31 40.14 66.98 40.49 67.57 40.83 63.72 41.18 60.61 41.53 59.12 41.88 61.05 42.23 63.27 42.58 64.9 42.93 64.9 43.28 64.16 43.63 63.27 43.98 65.94 44.33 65.64 44.67 64.61 45.02 63.86 45.37 63.86 45.72 65.2 46.07 65.79 46.42 65.64 46.77 69.79 47.12 73.49 47.47 73.34 47.82 76.16 48.17 72.75 48.52 72.01 48.86 71.86 49.21 71.86 49.56 74.23 49.91 72.75 50.26 71.72 50.61 70.83 50.96 70.09 51.31 69.35 51.66 71.86 52.01 70.38 52.36 71.57 52.7 71.57 53.05 71.72 53.4 70.53 53.75 69.05 54.1 70.68 54.45 71.12 54.8 71.57 55.15 69.05 55.5 69.05 55.85 69.2 56.2 67.86 56.55 63.27 56.89 65.35 57.24 65.2 57.59 64.75 57.94 67.42 58.29 66.38 58.64 63.57 58.99 61.94 59.34 64.46 59.69 64.01 60.04 65.49 60.39 63.42 60.73 61.64 61.08 61.79 61.43 61.79 61.78 65.79 62.13 64.9 62.48 66.23 62.83 69.79 63.18 70.23 63.53 71.42 63.88 70.68 64.23 71.27 64.58 73.34 64.92 74.09 65.27 74.83 65.62 75.86 65.97 72.75 66.32 74.68 66.67 72.9 67.02 75.71 67.37 72.31 67.72 72.6 68.07 79.27 68.42 80.6 68.77 78.97 69.11 80.6 69.46 81.79 69.81 82.08 70.16 83.27 70.51 82.68 70.86 81.79 71.21 80.9 71.56 81.05 71.91 84.45 72.26 82.53 72.61 81.05 72.95 80.75 73.3 79.12 73.65 75.86 74 73.34 74.35 72.75 74.7 74.23 75.05 71.57 75.4 70.09 75.75 66.98 76.1 67.12 76.45 66.09 76.8 66.83 77.14 69.64 77.49 69.2 77.84 65.64 78.19 64.01 78.54 68.31 78.89 68.75 79.24 67.42 79.59 63.42 79.94 62.09 80.29 61.79 80.64 65.49 80.98 62.83 81.33 61.35 81.68 64.75 82.03 62.38 82.38 63.42 82.73 62.68 83.08 61.35 83.43 62.83 83.78 62.09 84.13 64.31 84.48 64.75 84.83 65.35 85.17 62.09 85.52 60.61 85.87 62.09 86.22 63.27 86.57 67.12 86.92 68.6 87.27 72.6 87.62 72.6 87.97 74.23 88.32 72.75 88.67 73.34 89.02 73.05 89.36 74.97 89.71 74.83 90.06 76.46 90.41 72.75 90.76 75.12 91.11 74.83 91.46 73.2 91.81 71.42 92.16 70.97 92.51 73.49 92.86 73.34 93.2 73.94 93.55 73.64 93.9 76.01 94.25 73.05 94.6 75.42 94.95 79.27 95.3 79.86 95.65 81.34 96 82.53 96.35 81.49 96.7 81.05 97.05 78.53 97.39 78.53 97.74 76.46 98.09 73.34 98.44 71.12 98.79 71.42 99.14 70.38 99.49 69.2 99.84 69.35 100.19 68.01 100.54 65.49 100.89 66.68 101.23 66.23 101.58 64.61 101.93 65.64 102.28 63.42 102.63 64.16 102.98 60.31 103.33 62.23 103.68 61.94 104.03 60.9 104.38 55.57 104.73 51.13 105.08 54.68 105.42 50.68 105.77 52.01 106.12 51.57 106.47 49.2 106.82 46.39 107.17 50.38 107.52 48.16 107.87 48.76 108.22 48.31 108.57 48.9 108.92 45.35 109.26 45.05 109.61 49.5 109.96 48.31 110.31 47.57 110.66 48.31 111.01 48.76 111.36 49.2 111.71 48.76 112.06 52.01 112.41 51.42 112.76 52.16 113.11 50.98 113.45 53.35 113.8 52.01 114.15 52.61 114.5 52.16 114.85 47.57 115.2 48.9 115.55 47.87 115.9 47.27 116.25 46.98 116.6 46.68 116.95 48.31 117.3 50.83 117.64 50.68 117.99 50.09 118.34 47.13 118.69 44.61 119.04 43.13 119.39 42.53 119.74 43.13 120.09 43.87 120.44 44.46 120.79 45.5 121.14 43.27 121.48 41.2 121.83 39.42 122.18 39.57 122.53 38.24 122.88 38.83 123.23 40.02 123.58 37.94 123.93 37.65 124.28 39.42 124.63 39.72 124.98 38.39 125.33 39.87 125.67 38.98 126.02 38.53 126.37 39.57 126.72 38.39 127.07 39.87 127.42 40.31 127.77 38.24 128.12 38.68 128.47 37.94 128.82 36.46 129.17 39.27 129.51 39.42 129.86 38.53 130.21 37.65 130.56 37.05 130.91 36.02 131.26 36.76 131.61 34.98 131.96 35.42 132.31 34.24 132.66 32.46 133.01 31.13 133.36 29.94 133.7 29.79 134.05 29.5 134.4 30.39 134.75 29.65 135.1 29.5 135.45 30.09 135.8 30.83 136.15 30.09 136.5 28.91 136.85 28.61 137.2 28.17 137.55 28.02 137.89 27.57 138.24 27.57 138.59 27.87 138.94 27.57 139.29 27.42"/>
      </g>
      <g stroke-width="0.3" fill="#000000" fill-opacity="0.000" class="geometry" stroke-dasharray="none" stroke="#FFFFBF" id="img-5967abef-14">
        <path fill="none" d="M21.98,79.27 L 22.33 80.31 22.68 78.97 23.03 80.01 23.38 80.31 23.73 82.68 24.08 82.97 24.42 84.75 24.77 86.82 25.12 87.12 25.47 88.75 25.82 88.16 26.17 87.42 26.52 88.9 26.87 91.71 27.22 89.19 27.57 87.12 27.92 87.86 28.27 90.38 28.61 90.08 28.96 89.05 29.31 88.16 29.66 85.64 30.01 84.16 30.36 86.68 30.71 88.9 31.06 87.57 31.41 89.64 31.76 88.45 32.11 89.79 32.45 90.53 32.8 88.9 33.15 93.19 33.5 92.01 33.85 90.38 34.2 89.05 34.55 91.12 34.9 92.16 35.25 94.08 35.6 92.01 35.95 95.42 36.3 94.38 36.64 96.16 36.99 94.08 37.34 95.27 37.69 95.27 38.04 94.53 38.39 94.97 38.74 94.68 39.09 96.6 39.44 95.12 39.79 96.6 40.14 99.56 40.49 96.75 40.83 101.49 41.18 99.86 41.53 97.34 41.88 97.49 42.23 97.93 42.58 98.38 42.93 96.9 43.28 97.49 43.63 96.45 43.98 97.79 44.33 99.71 44.67 98.53 45.02 98.53 45.37 99.27 45.72 99.56 46.07 100.9 46.42 104.6 46.77 103.41 47.12 103.71 47.47 102.38 47.82 104.16 48.17 103.71 48.52 106.67 48.86 107.56 49.21 107.41 49.56 106.38 49.91 105.78 50.26 103.71 50.61 102.82 50.96 101.93 51.31 103.56 51.66 105.19 52.01 105.78 52.36 105.49 52.7 105.78 53.05 101.49 53.4 100.75 53.75 100.3 54.1 98.23 54.45 101.34 54.8 101.34 55.15 101.49 55.5 100.75 55.85 99.12 56.2 98.23 56.55 99.12 56.89 97.19 57.24 98.23 57.59 96.6 57.94 99.56 58.29 100.75 58.64 99.56 58.99 101.34 59.34 102.08 59.69 100.45 60.04 101.79 60.39 98.53 60.73 100.01 61.08 100.45 61.43 100.16 61.78 100.9 62.13 101.49 62.48 102.08 62.83 101.79 63.18 102.08 63.53 100.6 63.88 97.64 64.23 99.42 64.58 100.16 64.92 100.16 65.27 102.82 65.62 102.08 65.97 100.3 66.32 100.6 66.67 98.38 67.02 96.3 67.37 97.79 67.72 98.38 68.07 96.9 68.42 101.04 68.77 100.75 69.11 100.9 69.46 98.82 69.81 99.71 70.16 97.93 70.51 95.27 70.86 95.42 71.21 95.12 71.56 97.49 71.91 95.56 72.26 92.45 72.61 93.64 72.95 92.75 73.3 90.68 73.65 90.23 74 88.31 74.35 86.38 74.7 85.34 75.05 86.97 75.4 85.94 75.75 91.12 76.1 89.19 76.45 85.64 76.8 85.64 77.14 86.38 77.49 86.38 77.84 86.38 78.19 86.08 78.54 84.31 78.89 85.19 79.24 85.49 79.59 87.12 79.94 88.6 80.29 91.12 80.64 90.97 80.98 91.12 81.33 93.34 81.68 95.56 82.03 96.45 82.38 97.64 82.73 101.49 83.08 103.71 83.43 104.3 83.78 103.86 84.13 101.19 84.48 103.56 84.83 101.19 85.17 101.34 85.52 104.6 85.87 105.49 86.22 103.27 86.57 104.6 86.92 102.38 87.27 105.64 87.62 103.56 87.97 101.93 88.32 98.97 88.67 95.71 89.02 95.56 89.36 94.38 89.71 95.42 90.06 96.9 90.41 97.05 90.76 98.38 91.11 97.19 91.46 96.16 91.81 94.08 92.16 93.34 92.51 93.05 92.86 90.68 93.2 91.42 93.55 90.97 93.9 89.34 94.25 88.75 94.6 89.05 94.95 90.23 95.3 90.68 95.65 86.82 96 87.57 96.35 88.6 96.7 90.82 97.05 90.97 97.39 90.23 97.74 89.19 98.09 87.57 98.44 90.53 98.79 88.75 99.14 91.42 99.49 92.16 99.84 93.34 100.19 94.38 100.54 92.45 100.89 93.93 101.23 95.12 101.58 94.82 101.93 95.71 102.28 95.71 102.63 97.79 102.98 92.9 103.33 92.75 103.68 93.79 104.03 96.01 104.38 96.45 104.73 96.45 105.08 97.79 105.42 96.6 105.77 95.27 106.12 92.75 106.47 90.23 106.82 90.82 107.17 91.12 107.52 93.79 107.87 92.16 108.22 90.68 108.57 91.12 108.92 91.71 109.26 91.71 109.61 90.68 109.96 89.05 110.31 88.45 110.66 87.71 111.01 85.64 111.36 88.01 111.71 86.23 112.06 83.57 112.41 85.19 112.76 85.94 113.11 88.6 113.45 86.23 113.8 86.97 114.15 88.9 114.5 89.34 114.85 89.05 115.2 87.27 115.55 87.42 115.9 85.94 116.25 88.6 116.6 85.49 116.95 83.71 117.3 84.75 117.64 85.05 117.99 83.27 118.34 80.31 118.69 78.83 119.04 75.57 119.39 72.9 119.74 76.16 120.09 75.42 120.44 72.31 120.79 76.16 121.14 79.12 121.48 80.01 121.83 79.12 122.18 81.49 122.53 78.97 122.88 80.01 123.23 80.16 123.58 80.6 123.93 79.86 124.28 76.46 124.63 79.27 124.98 81.34 125.33 82.23 125.67 82.38 126.02 80.01 126.37 81.79 126.72 82.08 127.07 80.75 127.42 80.9 127.77 80.75 128.12 81.05 128.47 81.34 128.82 82.38 129.17 85.94 129.51 84.16 129.86 83.57 130.21 83.86 130.56 86.23 130.91 86.53 131.26 86.97 131.61 85.34 131.96 85.19 132.31 84.75 132.66 88.6 133.01 88.45 133.36 87.86 133.7 91.27 134.05 90.97 134.4 92.01 134.75 93.64 135.1 92.45 135.45 92.31 135.8 91.86 136.15 91.86 136.5 92.75 136.85 91.42 137.2 90.82 137.55 93.49 137.89 93.05 138.24 90.38 138.59 92.45 138.94 92.31 139.29 92.01 139.64 93.49 139.99 89.79 140.34 90.38 140.69 90.97 141.04 87.86 141.39 85.49 141.73 83.86 142.08 82.82 142.43 82.82 142.78 81.2 143.13 81.49 143.48 82.68 143.83 86.53 144.18 88.45 144.53 85.79 144.88 85.34 145.23 84.9 145.58 84.16 145.92 84.31 146.27 85.34 146.62 85.34 146.97 84.01 147.32 84.45 147.67 83.71 148.02 82.68 148.37 84.6 148.72 83.12 149.07 83.86 149.42 81.64 149.76 82.53 150.11 80.16 150.46 81.2 150.81 80.45 151.16 78.83 151.51 81.05 151.86 82.53 152.21 80.31 152.56 80.01 152.91 81.34 153.26 82.38 153.61 81.2 153.95 78.83 154.3 76.31 154.65 76.6 155 80.75 155.35 81.49 155.7 82.97 156.05 84.31 156.4 84.75 156.75 85.49 157.1 85.79 157.45 83.71 157.79 84.75 158.14 84.16 158.49 82.53 158.84 79.27 159.19 76.46 159.54 76.6 159.89 76.31 160.24 74.83 160.59 75.27 160.94 75.71 161.29 74.38 161.64 76.16 161.98 76.75 162.33 79.42 162.68 78.53 163.03 76.01 163.38 75.42 163.73 74.53 164.08 75.57 164.43 76.01 164.78 70.38 165.13 70.83 165.48 69.35 165.83 69.94 166.17 69.79 166.52 71.27 166.87 70.97 167.22 70.23 167.57 71.86 167.92 73.79 168.27 77.79 168.62 79.27 168.97 76.16 169.32 78.68 169.67 76.6 170.01 74.53 170.36 74.97 170.71 70.83 171.06 67.86 171.41 66.53 171.76 64.31 172.11 65.79 172.46 65.49 172.81 64.16 173.16 61.79 173.51 62.83 173.86 62.53 174.2 66.09 174.55 66.68 174.9 67.27 175.25 69.49 175.6 69.35 175.95 65.79 176.3 63.57 176.65 66.09 177 65.49 177.35 61.64 177.7 63.86 178.04 66.38 178.39 65.49 178.74 65.05 179.09 63.12 179.44 63.86 179.79 64.46 180.14 65.94 180.49 66.98 180.84 70.23 181.19 68.01 181.54 68.46 181.89 68.46 182.23 68.16 182.58 68.46 182.93 68.16 183.28 69.2 183.63 66.53 183.98 64.16 184.33 64.61 184.68 67.12 185.03 67.27 185.38 66.53 185.73 63.86 186.08 65.49 186.42 64.9 186.77 62.38 187.12 59.57 187.47 57.94 187.82 60.01 188.17 61.35 188.52 59.42 188.87 61.64 189.22 63.27 189.57 61.35 189.92 60.46 190.26 60.9 190.61 57.2 190.96 56.16 191.31 59.12 191.66 59.57 192.01 61.49 192.36 59.42 192.71 62.68 193.06 64.01 193.41 68.16 193.76 70.23 194.11 70.23 194.45 69.64 194.8 72.16 195.15 72.01 195.5 72.16 195.85 73.05 196.2 76.6"/>
      </g>
      <g stroke-width="0.3" fill="#000000" fill-opacity="0.000" class="geometry" stroke-dasharray="none" stroke="#FEE08B" id="img-5967abef-15">
        <path fill="none" d="M21.98,79.27 L 22.33 81.64 22.68 82.38 23.03 85.49 23.38 88.9 23.73 90.53 24.08 94.53 24.42 96.01 24.77 94.97 25.12 94.82 25.47 94.08 25.82 94.53 26.17 94.38 26.52 93.64 26.87 93.64 27.22 96.75 27.57 96.75 27.92 96.75 28.27 95.27 28.61 94.53 28.96 94.23 29.31 92.01 29.66 90.97 30.01 88.6 30.36 90.82 30.71 90.97 31.06 88.01 31.41 90.68 31.76 88.31 32.11 90.38 32.45 91.12 32.8 91.27 33.15 93.34 33.5 93.93 33.85 94.97 34.2 95.42 34.55 95.56 34.9 94.53 35.25 93.34 35.6 92.75 35.95 94.53 36.3 94.68 36.64 93.19 36.99 93.49 37.34 93.79 37.69 95.56 38.04 96.16 38.39 97.93 38.74 98.82 39.09 99.42 39.44 99.56 39.79 98.38 40.14 96.75 40.49 96.75 40.83 97.49 41.18 101.79 41.53 101.19 41.88 101.64 42.23 101.64 42.58 101.93 42.93 101.93 43.28 99.42 43.63 101.64 43.98 103.41 44.33 105.78 44.67 104.9 45.02 105.34 45.37 105.93 45.72 105.64 46.07 104.9 46.42 104.6 46.77 104.16 47.12 103.41 47.47 104.6 47.82 104.9 48.17 103.12 48.52 101.49 48.86 101.04 49.21 105.93 49.56 104.45 49.91 107.41 50.26 107.71 50.61 108.3 50.96 107.56 51.31 106.67 51.66 106.23 52.01 105.49 52.36 106.23 52.7 106.38 53.05 104.45 53.4 104.01 53.75 103.71 54.1 104.3 54.45 104.16 54.8 103.86 55.15 104.45 55.5 103.41 55.85 103.41 56.2 101.93 56.55 99.86 56.89 97.19 57.24 96.75 57.59 96.16 57.94 93.79 58.29 96.3 58.64 97.34 58.99 94.53 59.34 97.05 59.69 93.64 60.04 94.38 60.39 95.86 60.73 96.45 61.08 100.9 61.43 102.08 61.78 102.38 62.13 101.64 62.48 106.97 62.83 106.38 63.18 105.78 63.53 105.49 63.88 107.56 64.23 107.27 64.58 105.78 64.92 104.3 65.27 101.64 65.62 102.67 65.97 99.71 66.32 104.45 66.67 104.75 67.02 103.86 67.37 102.53 67.72 107.41 68.07 108.3 68.42 107.56 68.77 107.56 69.11 107.41 69.46 107.12 69.81 107.41 70.16 107.56 70.51 106.38 70.86 104.9 71.21 103.86 71.56 102.82 71.91 105.04 72.26 106.23 72.61 106.23 72.95 104.45 73.3 105.34 73.65 106.67 74 104.3 74.35 103.56 74.7 104.45 75.05 104.3 75.4 103.71 75.75 105.93 76.1 106.53 76.45 103.41 76.8 101.19 77.14 100.75 77.49 100.6 77.84 100.3 78.19 102.23 78.54 102.82 78.89 103.12 79.24 103.27 79.59 105.64 79.94 108.01 80.29 109.04 80.64 110.08 80.98 111.56 81.33 110.67 81.68 111.56 82.03 111.41 82.38 112.45 82.73 112.6 83.08 111.71 83.43 111.12 83.78 110.53 84.13 110.67 84.48 111.41 84.83 112.45 85.17 110.08 85.52 108.75 85.87 107.27 86.22 108.3 86.57 105.49 86.92 107.12 87.27 109.93 87.62 109.49 87.97 107.86 88.32 104.9 88.67 104.9 89.02 103.86 89.36 102.97 89.71 99.86 90.06 102.08 90.41 101.34 90.76 99.86 91.11 99.71 91.46 99.86 91.81 99.27 92.16 97.34 92.51 97.93 92.86 97.93 93.2 94.53 93.55 93.19 93.9 97.19 94.25 97.34 94.6 96.16 94.95 95.71 95.3 93.79 95.65 97.05 96 97.19 96.35 98.82 96.7 98.23 97.05 99.42 97.39 95.12 97.74 93.64 98.09 97.19 98.44 91.71 98.79 91.42 99.14 91.56 99.49 92.01 99.84 95.27 100.19 94.82 100.54 94.38 100.89 90.23 101.23 84.45 101.58 86.23 101.93 84.9 102.28 85.94 102.63 84.01 102.98 84.75 103.33 85.34 103.68 89.34 104.03 93.49 104.38 93.49 104.73 93.34 105.08 93.34 105.42 97.93 105.77 98.08 106.12 93.93 106.47 93.79 106.82 94.08 107.17 93.05 107.52 94.53 107.87 94.97 108.22 94.68 108.57 95.86 108.92 95.71 109.26 96.6 109.61 97.79 109.96 97.64 110.31 98.08 110.66 98.23 111.01 100.01 111.36 99.12 111.71 97.64 112.06 99.12 112.41 99.12 112.76 100.01 113.11 100.3 113.45 97.05 113.8 96.16 114.15 94.97 114.5 94.82 114.85 93.93 115.2 94.23 115.55 94.97 115.9 93.49 116.25 91.86 116.6 91.27 116.95 91.27 117.3 90.68 117.64 92.6 117.99 95.42 118.34 93.49 118.69 92.6 119.04 96.6 119.39 95.71 119.74 96.6 120.09 92.75 120.44 95.12 120.79 95.12 121.14 96.45 121.48 99.71 121.83 98.67 122.18 98.67 122.53 97.49 122.88 102.08 123.23 101.34 123.58 103.27 123.93 104.3 124.28 102.97 124.63 102.82 124.98 105.49 125.33 106.23 125.67 101.19 126.02 100.16 126.37 97.34 126.72 97.49 127.07 101.93 127.42 101.64 127.77 99.56 128.12 99.86 128.47 98.97 128.82 100.45 129.17 102.97 129.51 101.64 129.86 102.23 130.21 103.86 130.56 103.27 130.91 103.41 131.26 103.41 131.61 102.08 131.96 101.79 132.31 99.86 132.66 96.6 133.01 95.27 133.36 94.53 133.7 91.86 134.05 92.31 134.4 91.12 134.75 89.34 135.1 89.19 135.45 88.75 135.8 86.68 136.15 84.9 136.5 84.9 136.85 83.12 137.2 84.45 137.55 83.27 137.89 86.08 138.24 84.6 138.59 83.42 138.94 82.82 139.29 83.42 139.64 80.16 139.99 78.68 140.34 75.12 140.69 76.31 141.04 75.57 141.39 76.9 141.73 77.79 142.08 78.83 142.43 78.38 142.78 78.97 143.13 78.38 143.48 79.12 143.83 83.86 144.18 84.16 144.53 85.05 144.88 85.05 145.23 79.71 145.58 82.38 145.92 86.97 146.27 92.75 146.62 89.34 146.97 89.79 147.32 91.42 147.67 93.49 148.02 94.23 148.37 92.31 148.72 89.79 149.07 87.12 149.42 86.97 149.76 88.75 150.11 86.97 150.46 88.6 150.81 89.34 151.16 90.53 151.51 92.6 151.86 92.16 152.21 89.34 152.56 90.82 152.91 92.75 153.26 91.86 153.61 88.01 153.95 90.53 154.3 90.38 154.65 94.97 155 93.64 155.35 91.27 155.7 92.31 156.05 90.97 156.4 86.53 156.75 86.53 157.1 86.08 157.45 88.6 157.79 90.82 158.14 89.79 158.49 91.42 158.84 89.34 159.19 90.23 159.54 89.64 159.89 86.97 160.24 88.01 160.59 92.9 160.94 93.79 161.29 94.68 161.64 93.05 161.98 92.6 162.33 94.08 162.68 90.53 163.03 90.82 163.38 88.75 163.73 93.64 164.08 94.53 164.43 93.19 164.78 91.86 165.13 92.01 165.48 93.93 165.83 91.56 166.17 93.64 166.52 93.64 166.87 91.56 167.22 89.94 167.57 91.86 167.92 95.56 168.27 97.34 168.62 94.38 168.97 98.67 169.32 98.53 169.67 99.27 170.01 98.97 170.36 95.86 170.71 92.31 171.06 93.79 171.41 93.19 171.76 95.12 172.11 94.82 172.46 95.42 172.81 93.19 173.16 95.71 173.51 99.12 173.86 96.6 174.2 99.56 174.55 98.67 174.9 101.49 175.25 104.3 175.6 106.08 175.95 109.64 176.3 108.45 176.65 105.93 177 104.9 177.35 104.6 177.7 106.08 178.04 108.01 178.39 110.82 178.74 109.64 179.09 105.93 179.44 108.01 179.79 109.34 180.14 109.34 180.49 110.97 180.84 113.49 181.19 114.67 181.54 116.3 181.89 116.15 182.23 116.45 182.58 116.15 182.93 116.6 183.28 116.01 183.63 116.6 183.98 115.86 184.33 114.08 184.68 114.97 185.03 112.6 185.38 111.86 185.73 113.49 186.08 111.56 186.42 113.34 186.77 114.97 187.12 115.12 187.47 114.23 187.82 114.97 188.17 117.04 188.52 116.45 188.87 116.75 189.22 116.6 189.57 115.56 189.92 116.3 190.26 116.3 190.61 117.49 190.96 115.12 191.31 115.71 191.66 116.15 192.01 114.08 192.36 116.01 192.71 118.67 193.06 116.89 193.41 116.45 193.76 116.89 194.11 115.71 194.45 118.52 194.8 119.26 195.15 116.6 195.5 117.49 195.85 119.26 196.2 119.26"/>
      </g>
      <g stroke-width="0.3" fill="#000000" fill-opacity="0.000" class="geometry" stroke-dasharray="none" stroke="#FDAE61" id="img-5967abef-16">
        <path fill="none" d="M21.98,79.27 L 22.33 80.31 22.68 79.86 23.03 78.38 23.38 75.86 23.73 74.68 24.08 74.53 24.42 77.94 24.77 76.6 25.12 76.75 25.47 76.9 25.82 77.64 26.17 82.68 26.52 81.94 26.87 81.94 27.22 77.79 27.57 77.05 27.92 77.94 28.27 76.6 28.61 76.46 28.96 80.75 29.31 81.05 29.66 81.34 30.01 80.75 30.36 82.23 30.71 84.16 31.06 83.71 31.41 83.86 31.76 79.42 32.11 77.2 32.45 73.79 32.8 70.97 33.15 74.09 33.5 75.12 33.85 74.09 34.2 77.05 34.55 75.27 34.9 76.9 35.25 79.27 35.6 77.34 35.95 76.75 36.3 75.86 36.64 78.97 36.99 78.97 37.34 81.2 37.69 82.38 38.04 81.64 38.39 82.38 38.74 81.05 39.09 84.45 39.44 84.01 39.79 86.23 40.14 86.23 40.49 89.64 40.83 92.75 41.18 92.6 41.53 94.23 41.88 93.64 42.23 93.49 42.58 92.75 42.93 92.6 43.28 90.82 43.63 92.16 43.98 95.27 44.33 93.93 44.67 92.01 45.02 92.6 45.37 91.86 45.72 89.19 46.07 89.64 46.42 90.38 46.77 95.27 47.12 92.45 47.47 92.75 47.82 92.01 48.17 92.9 48.52 93.49 48.86 97.34 49.21 98.53 49.56 100.16 49.91 100.3 50.26 99.86 50.61 98.97 50.96 99.56 51.31 101.49 51.66 99.71 52.01 100.75 52.36 100.45 52.7 102.08 53.05 100.6 53.4 98.53 53.75 99.86 54.1 97.34 54.45 98.08 54.8 100.75 55.15 102.82 55.5 105.34 55.85 108.6 56.2 108.75 56.55 108.15 56.89 107.71 57.24 108.3 57.59 108.01 57.94 108.01 58.29 110.67 58.64 113.49 58.99 116.75 59.34 116.89 59.69 116.3 60.04 117.34 60.39 118.67 60.73 118.67 61.08 119.41 61.43 119.86 61.78 121.19 62.13 121.19 62.48 120.89 62.83 122.38 63.18 123.71 63.53 123.41 63.88 122.82 64.23 124.75 64.58 123.56 64.92 123.12 65.27 124.3 65.62 124.89 65.97 125.19 66.32 125.04 66.67 124.89 67.02 125.93 67.37 126.52 67.72 126.08 68.07 127.26 68.42 128.74 68.77 127.71 69.11 127.71 69.46 127.12 69.81 127.26 70.16 125.49 70.51 126.52 70.86 127.26 71.21 127.86 71.56 128.45 71.91 128.89 72.26 129.04 72.61 128.74 72.95 129.19 73.3 129.78 73.65 130.23 74 130.37 74.35 130.52 74.7 130.37 75.05 130.08 75.4 129.78 75.75 130.23 76.1 130.23 76.45 130.67 76.8 130.82 77.14 130.82 77.49 130.82 77.84 130.97 78.19 130.97 78.54 130.82 78.89 130.82 79.24 130.67 79.59 130.97 79.94 130.82 80.29 130.67 80.64 130.52 80.98 130.67 81.33 130.97 81.68 130.97 82.03 130.52 82.38 130.67 82.73 130.37 83.08 130.08 83.43 130.23 83.78 130.52 84.13 130.67 84.48 130.97 84.83 130.67 85.17 130.67 85.52 130.52 85.87 130.67 86.22 130.82 86.57 130.52 86.92 130.67 87.27 130.67 87.62 130.82 87.97 130.82 88.32 131.11"/>
      </g>
      <g stroke-width="0.3" fill="#000000" fill-opacity="0.000" class="geometry" stroke-dasharray="none" stroke="#F46D43" id="img-5967abef-17">
        <path fill="none" d="M21.98,79.27 L 22.33 81.79 22.68 81.34 23.03 77.79 23.38 77.05 23.73 76.01 24.08 73.49 24.42 74.09 24.77 73.49 25.12 71.12 25.47 72.6 25.82 73.34 26.17 72.01 26.52 70.53 26.87 69.2 27.22 68.01 27.57 67.42 27.92 72.16 28.27 69.64 28.61 69.2 28.96 69.49 29.31 70.09 29.66 70.09 30.01 73.64 30.36 70.83 30.71 70.38 31.06 69.35 31.41 73.94 31.76 75.12 32.11 73.49 32.45 73.94 32.8 72.16 33.15 70.97 33.5 72.16 33.85 77.2 34.2 77.49 34.55 76.01 34.9 73.05 35.25 70.09 35.6 70.53 35.95 69.05 36.3 68.9 36.64 68.01 36.99 69.94 37.34 70.83 37.69 73.94 38.04 76.9 38.39 76.01 38.74 74.53 39.09 70.97 39.44 71.72 39.79 72.6 40.14 71.57 40.49 73.05 40.83 71.86 41.18 71.27 41.53 69.35 41.88 69.94 42.23 68.01 42.58 63.57 42.93 65.49 43.28 66.53 43.63 67.72 43.98 68.75 44.33 68.31 44.67 66.68 45.02 65.49 45.37 65.94 45.72 66.98 46.07 68.31 46.42 70.23 46.77 70.38 47.12 69.05 47.47 68.6 47.82 67.86 48.17 65.2 48.52 62.53 48.86 65.79 49.21 64.61 49.56 65.79 49.91 66.83 50.26 63.42 50.61 63.72 50.96 64.9 51.31 64.46 51.66 66.23 52.01 63.72 52.36 63.57 52.7 62.38 53.05 61.49 53.4 63.42 53.75 63.12 54.1 62.68 54.45 62.53 54.8 61.79 55.15 62.23 55.5 60.31 55.85 61.94 56.2 63.57 56.55 63.42 56.89 64.01 57.24 63.27 57.59 60.46 57.94 60.9 58.29 60.9 58.64 62.68 58.99 60.31 59.34 60.9 59.69 61.05 60.04 60.31 60.39 61.05 60.73 60.75 61.08 61.35 61.43 63.57 61.78 62.09 62.13 58.68 62.48 54.98 62.83 56.9 63.18 55.42 63.53 53.79 63.88 51.87 64.23 52.31 64.58 51.87 64.92 54.09 65.27 53.2 65.62 53.05 65.97 53.35 66.32 54.83 66.67 55.42 67.02 56.01 67.37 58.38 67.72 58.09 68.07 58.98 68.42 58.38 68.77 55.27 69.11 52.61 69.46 53.05 69.81 52.9 70.16 53.2 70.51 52.46 70.86 54.24 71.21 54.83 71.56 54.83 71.91 55.72 72.26 56.46 72.61 56.61 72.95 53.35 73.3 51.72 73.65 48.9 74 48.61 74.35 50.24 74.7 52.01 75.05 49.5 75.4 49.05 75.75 49.64 76.1 52.75 76.45 51.87 76.8 53.2 77.14 53.79 77.49 54.68 77.84 55.42 78.19 56.16 78.54 59.12 78.89 58.68 79.24 54.98 79.59 54.68 79.94 54.24 80.29 53.79 80.64 52.75 80.98 48.01 81.33 44.9 81.68 45.79 82.03 47.27 82.38 47.57 82.73 47.13 83.08 50.38 83.43 50.53 83.78 52.01 84.13 48.16 84.48 49.35 84.83 48.16 85.17 47.72 85.52 47.42 85.87 46.39 86.22 42.53 86.57 45.2 86.92 46.68 87.27 47.27 87.62 45.35 87.97 46.09 88.32 48.76 88.67 47.87 89.02 45.05 89.36 46.98 89.71 46.09 90.06 47.13 90.41 45.2 90.76 46.53 91.11 47.87 91.46 46.24 91.81 45.94 92.16 48.46 92.51 48.9 92.86 47.57 93.2 46.68 93.55 44.16 93.9 44.16 94.25 42.68 94.6 44.31 94.95 44.02 95.3 44.16 95.65 45.94 96 46.68 96.35 46.24 96.7 46.39 97.05 46.39 97.39 47.27 97.74 45.35 98.09 43.27 98.44 45.2 98.79 44.31 99.14 43.87 99.49 44.16 99.84 43.42 100.19 42.39 100.54 41.2 100.89 40.76 101.23 41.5 101.58 42.09 101.93 43.72 102.28 45.5 102.63 45.64 102.98 46.98 103.33 46.39 103.68 43.57 104.03 44.02 104.38 41.64 104.73 41.64 105.08 40.31 105.42 38.53 105.77 38.83 106.12 39.42 106.47 39.13 106.82 39.87 107.17 39.57 107.52 38.53 107.87 38.39 108.22 38.53 108.57 38.39 108.92 38.83 109.26 40.76 109.61 38.09 109.96 37.05 110.31 36.61 110.66 38.24 111.01 39.72 111.36 40.46 111.71 41.79 112.06 39.87 112.41 40.61 112.76 40.02 113.11 41.79 113.45 41.79 113.8 42.39 114.15 42.98 114.5 45.5 114.85 44.31 115.2 44.16 115.55 43.57 115.9 43.13 116.25 44.31 116.6 48.01 116.95 50.53 117.3 51.57 117.64 52.01 117.99 53.79 118.34 55.12 118.69 54.98 119.04 55.87 119.39 52.75 119.74 50.24 120.09 51.72 120.44 51.27 120.79 52.9 121.14 53.94 121.48 55.72 121.83 53.05 122.18 54.09 122.53 54.24 122.88 53.79 123.23 51.13 123.58 52.31 123.93 53.5 124.28 55.42 124.63 53.64 124.98 51.87 125.33 51.57 125.67 49.79 126.02 50.53 126.37 50.53 126.72 49.79 127.07 48.9 127.42 48.46 127.77 50.38 128.12 46.68 128.47 45.79 128.82 44.9 129.17 46.24 129.51 49.2 129.86 49.5 130.21 51.13 130.56 52.16 130.91 51.27 131.26 50.24 131.61 48.9 131.96 49.64 132.31 50.38 132.66 45.94 133.01 44.9 133.36 45.64 133.7 45.94 134.05 47.72 134.4 46.98 134.75 44.61 135.1 44.76 135.45 44.61 135.8 41.2 136.15 40.31 136.5 40.02 136.85 41.2 137.2 42.53 137.55 41.79 137.89 41.05 138.24 40.76 138.59 38.98 138.94 40.76 139.29 41.94 139.64 41.05 139.99 38.83 140.34 36.61 140.69 35.42 141.04 34.39 141.39 35.28 141.73 36.31 142.08 37.5 142.43 38.53 142.78 39.13 143.13 43.27 143.48 44.16 143.83 46.68 144.18 44.9 144.53 46.24 144.88 48.76 145.23 48.61 145.58 48.76 145.92 48.31 146.27 48.76 146.62 48.01 146.97 47.27 147.32 42.39 147.67 41.79 148.02 42.53 148.37 42.39 148.72 37.79 149.07 37.79 149.42 39.42 149.76 39.27 150.11 38.39 150.46 40.02 150.81 39.72 151.16 42.53 151.51 44.61 151.86 45.35 152.21 45.79 152.56 45.2 152.91 45.35 153.26 45.5 153.61 45.5 153.95 44.02 154.3 41.94 154.65 42.98 155 41.05 155.35 41.64 155.7 39.87 156.05 40.16 156.4 40.31 156.75 41.35 157.1 41.05 157.45 42.53 157.79 42.24 158.14 42.98 158.49 40.9 158.84 39.27 159.19 38.39 159.54 38.83 159.89 39.87 160.24 40.02 160.59 38.98 160.94 40.31 161.29 42.39 161.64 43.13 161.98 44.46 162.33 42.68 162.68 43.57 163.03 43.72 163.38 42.39 163.73 45.64 164.08 43.57 164.43 43.72 164.78 47.57 165.13 45.05 165.48 44.61 165.83 46.68 166.17 47.72 166.52 48.31 166.87 52.01 167.22 49.64 167.57 47.87 167.92 48.46 168.27 49.2 168.62 49.05 168.97 46.09 169.32 43.57 169.67 44.46 170.01 44.16 170.36 44.31 170.71 43.72 171.06 43.72 171.41 41.94 171.76 42.09 172.11 40.31 172.46 40.9 172.81 41.64 173.16 43.57 173.51 42.98 173.86 41.64 174.2 42.39 174.55 44.46 174.9 44.46 175.25 42.53 175.6 43.57 175.95 44.9 176.3 43.57 176.65 41.94 177 43.72 177.35 43.27 177.7 45.2 178.04 47.27 178.39 48.61 178.74 46.98 179.09 45.79 179.44 46.24 179.79 50.53 180.14 50.68 180.49 47.57 180.84 48.61 181.19 50.24 181.54 51.27 181.89 49.05 182.23 49.35 182.58 48.61 182.93 48.9 183.28 49.5 183.63 50.24 183.98 53.64 184.33 53.5 184.68 53.79 185.03 54.68 185.38 56.61 185.73 53.79 186.08 54.98 186.42 59.27 186.77 58.09 187.12 58.98 187.47 58.83 187.82 56.75 188.17 58.24 188.52 61.2 188.87 61.94 189.22 62.83 189.57 61.49 189.92 62.68 190.26 61.49 190.61 57.49 190.96 56.31 191.31 58.09 191.66 56.61 192.01 56.16 192.36 58.53 192.71 56.16 193.06 57.79 193.41 58.24 193.76 57.49 194.11 58.24 194.45 58.09 194.8 57.64 195.15 56.16 195.5 58.53 195.85 59.12 196.2 59.27"/>
      </g>
      <g stroke-width="0.3" fill="#000000" fill-opacity="0.000" class="geometry" stroke-dasharray="none" stroke="#D53E4F" id="img-5967abef-18">
        <path fill="none" d="M21.98,79.27 L 22.33 79.71 22.68 77.79 23.03 78.83 23.38 79.42 23.73 79.86 24.08 80.16 24.42 81.64 24.77 81.05 25.12 80.9 25.47 79.71 25.82 78.23 26.17 80.31 26.52 81.2 26.87 80.75 27.22 80.9 27.57 77.94 27.92 76.16 28.27 76.6 28.61 77.64 28.96 76.9 29.31 72.46 29.66 73.94 30.01 78.23 30.36 76.6 30.71 76.46 31.06 76.75 31.41 77.79 31.76 76.6 32.11 71.72 32.45 70.23 32.8 72.01 33.15 73.05 33.5 73.05 33.85 73.64 34.2 75.27 34.55 75.57 34.9 77.49 35.25 78.38 35.6 80.01 35.95 81.05 36.3 80.01 36.64 79.27 36.99 80.75 37.34 82.23 37.69 83.27 38.04 78.97 38.39 79.71 38.74 81.34 39.09 77.34 39.44 78.23 39.79 78.38 40.14 81.34 40.49 82.38 40.83 80.75 41.18 81.49 41.53 81.34 41.88 82.68 42.23 79.86 42.58 82.23 42.93 84.31 43.28 84.6 43.63 83.27 43.98 81.34 44.33 82.53 44.67 79.57 45.02 83.12 45.37 83.86 45.72 82.53 46.07 80.9 46.42 81.05 46.77 80.6 47.12 82.38 47.47 82.08 47.82 81.79 48.17 83.57 48.52 81.94 48.86 81.34 49.21 81.79 49.56 83.86 49.91 83.42 50.26 87.71 50.61 88.31 50.96 88.6 51.31 89.79 51.66 91.12 52.01 92.75 52.36 91.42 52.7 89.34 53.05 90.38 53.4 87.57 53.75 86.53 54.1 86.82 54.45 86.23 54.8 87.12 55.15 87.27 55.5 86.82 55.85 86.23 56.2 85.64 56.55 83.12 56.89 83.42 57.24 83.27 57.59 84.45 57.94 85.34 58.29 86.38 58.64 87.57 58.99 89.34 59.34 92.75 59.69 89.49 60.04 92.31 60.39 91.56 60.73 89.49 61.08 89.94 61.43 89.05 61.78 90.08 62.13 86.38 62.48 85.94 62.83 85.05 63.18 86.23 63.53 85.49 63.88 84.6 64.23 87.71 64.58 89.19 64.92 90.38 65.27 90.38 65.62 92.01 65.97 88.75 66.32 90.23 66.67 87.12 67.02 87.27 67.37 88.31 67.72 88.45 68.07 89.64 68.42 87.27 68.77 89.34 69.11 90.08 69.46 92.16 69.81 90.82 70.16 91.42 70.51 90.08 70.86 90.08 71.21 86.82 71.56 87.12 71.91 89.79 72.26 89.94 72.61 89.79 72.95 90.53 73.3 89.34 73.65 84.31 74 80.9 74.35 80.75 74.7 81.2 75.05 78.08 75.4 80.45 75.75 83.57 76.1 82.38 76.45 80.75 76.8 84.01 77.14 80.31 77.49 80.45 77.84 78.53 78.19 79.86 78.54 82.97 78.89 85.05 79.24 84.9 79.59 84.75 79.94 83.42 80.29 82.23 80.64 83.27 80.98 80.9 81.33 78.97 81.68 80.45 82.03 79.42 82.38 77.05 82.73 75.86 83.08 76.75 83.43 75.57 83.78 76.46 84.13 75.57 84.48 73.79 84.83 74.09 85.17 73.49 85.52 75.27 85.87 74.38 86.22 77.64 86.57 75.12 86.92 76.01 87.27 77.05 87.62 77.34 87.97 81.64 88.32 79.71 88.67 77.2 89.02 79.57 89.36 80.9 89.71 80.45 90.06 83.27 90.41 83.27 90.76 82.53 91.11 81.2 91.46 84.75 91.81 84.16 92.16 80.9 92.51 78.53 92.86 76.31 93.2 75.42 93.55 75.86 93.9 73.94 94.25 74.23 94.6 76.01 94.95 77.79 95.3 74.68 95.65 70.68 96 69.79 96.35 66.83 96.7 66.38 97.05 65.49 97.39 67.27 97.74 68.01 98.09 70.53 98.44 68.6 98.79 69.64 99.14 69.79 99.49 71.86 99.84 70.53 100.19 70.53 100.54 69.2 100.89 71.57 101.23 73.2 101.58 73.2 101.93 74.23 102.28 72.16 102.63 70.83 102.98 71.12 103.33 69.05 103.68 69.2 104.03 71.27 104.38 68.9 104.73 68.9 105.08 68.6 105.42 66.68 105.77 63.27 106.12 64.16 106.47 65.05 106.82 66.68 107.17 68.16 107.52 66.09 107.87 65.94 108.22 65.64 108.57 66.09 108.92 68.46 109.26 71.57 109.61 72.6 109.96 72.75 110.31 76.16 110.66 76.6 111.01 80.6 111.36 80.31 111.71 80.9 112.06 80.75 112.41 82.82 112.76 84.45 113.11 85.64 113.45 84.9 113.8 89.34 114.15 88.45 114.5 89.19 114.85 90.97 115.2 89.64 115.55 91.56 115.9 92.16 116.25 92.9 116.6 90.08 116.95 88.45 117.3 88.45 117.64 85.19 117.99 86.08 118.34 86.08 118.69 86.82 119.04 87.57 119.39 91.86 119.74 92.31 120.09 93.93 120.44 95.42 120.79 95.86 121.14 93.34 121.48 94.23 121.83 97.64 122.18 96.9 122.53 96.01 122.88 93.79 123.23 96.75 123.58 99.71 123.93 101.04 124.28 98.82 124.63 100.75 124.98 102.67 125.33 102.82 125.67 102.97 126.02 100.9 126.37 96.3 126.72 95.56 127.07 92.75 127.42 89.49 127.77 92.01 128.12 92.16 128.47 89.79 128.82 88.6 129.17 91.27 129.51 93.19 129.86 93.05 130.21 93.49 130.56 93.93 130.91 89.34 131.26 90.68 131.61 89.79 131.96 88.45 132.31 85.64 132.66 86.97 133.01 84.75 133.36 83.57 133.7 81.05 134.05 84.75 134.4 87.42 134.75 87.27 135.1 89.05 135.45 87.12 135.8 89.94 136.15 88.9 136.5 93.05 136.85 94.53 137.2 94.68 137.55 91.12 137.89 89.34 138.24 88.45 138.59 89.19 138.94 88.45 139.29 89.05 139.64 91.42 139.99 91.42 140.34 93.64 140.69 96.3 141.04 95.42 141.39 96.75 141.73 96.45 142.08 97.93 142.43 98.82 142.78 100.3 143.13 97.34 143.48 98.08 143.83 101.34 144.18 102.67 144.53 100.75 144.88 98.53 145.23 101.64 145.58 103.12 145.92 105.34 146.27 104.75 146.62 103.71 146.97 102.67 147.32 102.82 147.67 104.01 148.02 103.56 148.37 100.75 148.72 99.27 149.07 99.71 149.42 99.12 149.76 98.38 150.11 98.82 150.46 97.05 150.81 95.86 151.16 97.49 151.51 99.42 151.86 102.23 152.21 101.79 152.56 103.71 152.91 102.82 153.26 101.64 153.61 99.86 153.95 100.75 154.3 98.08 154.65 95.86 155 94.38 155.35 96.3 155.7 97.34 156.05 95.42 156.4 93.93 156.75 94.82 157.1 95.12 157.45 94.82 157.79 92.31 158.14 93.93 158.49 92.01 158.84 92.01 159.19 93.34 159.54 93.34 159.89 94.38 160.24 92.9 160.59 94.23 160.94 91.71 161.29 91.42 161.64 90.68 161.98 89.64 162.33 86.97 162.68 88.45 163.03 88.31 163.38 90.23 163.73 92.45 164.08 94.97 164.43 92.6 164.78 95.27 165.13 95.12 165.48 97.79 165.83 96.75 166.17 96.45 166.52 98.08 166.87 97.79 167.22 101.64 167.57 104.6 167.92 101.64 168.27 100.75 168.62 97.93 168.97 96.75 169.32 100.75 169.67 101.34 170.01 100.6 170.36 100.16 170.71 98.67 171.06 97.34 171.41 99.71 171.76 103.27 172.11 103.86 172.46 102.82 172.81 102.23 173.16 99.42 173.51 99.71 173.86 97.49 174.2 97.79 174.55 101.19 174.9 98.82 175.25 97.93 175.6 99.42 175.95 99.71 176.3 98.23 176.65 95.12 177 94.97 177.35 93.49 177.7 94.08 178.04 92.6 178.39 91.12 178.74 88.16 179.09 87.42 179.44 89.49 179.79 87.57 180.14 89.19 180.49 89.34 180.84 89.34 181.19 90.23 181.54 91.42 181.89 92.9 182.23 95.71 182.58 97.49 182.93 97.05 183.28 98.53 183.63 100.6 183.98 101.79 184.33 102.08 184.68 102.82 185.03 101.49 185.38 102.38 185.73 101.19 186.08 98.97 186.42 101.93 186.77 98.97 187.12 102.67 187.47 100.75 187.82 103.12 188.17 102.82 188.52 100.45 188.87 103.12 189.22 103.27 189.57 103.56 189.92 102.82 190.26 102.23 190.61 102.08 190.96 104.16 191.31 106.23 191.66 104.9 192.01 104.45 192.36 104.75 192.71 105.49 193.06 105.78 193.41 108.45 193.76 109.34 194.11 111.71 194.45 113.19 194.8 113.93 195.15 112.45 195.5 109.64 195.85 108.01 196.2 109.04"/>
      </g>
      <g stroke-width="0.3" fill="#000000" fill-opacity="0.000" class="geometry" stroke-dasharray="none" stroke="#9E0142" id="img-5967abef-19">
        <path fill="none" d="M21.98,79.27 L 22.33 75.71 22.68 77.49 23.03 73.2 23.38 70.23 23.73 70.23 24.08 70.23 24.42 70.53 24.77 72.6 25.12 74.09 25.47 73.49 25.82 72.75 26.17 69.49 26.52 68.6 26.87 68.6 27.22 68.75 27.57 68.75 27.92 69.79 28.27 67.57 28.61 70.09 28.96 65.94 29.31 69.05 29.66 70.23 30.01 71.42 30.36 72.6 30.71 71.42 31.06 68.6 31.41 69.35 31.76 70.68 32.11 70.83 32.45 69.35 32.8 72.75 33.15 73.79 33.5 72.46 33.85 72.75 34.2 69.79 34.55 70.23 34.9 69.64 35.25 65.64 35.6 65.35 35.95 64.16 36.3 64.46 36.64 63.86 36.99 64.61 37.34 65.05 37.69 66.83 38.04 72.46 38.39 73.64 38.74 71.72 39.09 72.6 39.44 69.79 39.79 69.94 40.14 71.42 40.49 71.57 40.83 68.75 41.18 68.01 41.53 69.05 41.88 68.6 42.23 70.38 42.58 68.9 42.93 69.2 43.28 69.05 43.63 67.57 43.98 69.49 44.33 70.38 44.67 70.38 45.02 69.05 45.37 66.09 45.72 64.16 46.07 62.23 46.42 60.9 46.77 59.86 47.12 61.35 47.47 63.57 47.82 60.31 48.17 60.75 48.52 60.61 48.86 62.98 49.21 62.68 49.56 65.49 49.91 66.38 50.26 64.9 50.61 65.79 50.96 65.2 51.31 63.72 51.66 64.16 52.01 60.75 52.36 59.72 52.7 60.16 53.05 58.09 53.4 58.38 53.75 58.83 54.1 60.75 54.45 59.42 54.8 58.98 55.15 58.83 55.5 57.49 55.85 57.94 56.2 58.38 56.55 56.01 56.89 55.42 57.24 55.72 57.59 54.53 57.94 53.79 58.29 53.05 58.64 50.98 58.99 52.75 59.34 50.24 59.69 50.83 60.04 49.2 60.39 49.05 60.73 49.5 61.08 49.35 61.43 49.79 61.78 48.9 62.13 50.83 62.48 51.57 62.83 54.24 63.18 57.79 63.53 56.46 63.88 56.9 64.23 54.38 64.58 54.98 64.92 53.05 65.27 51.13 65.62 52.31 65.97 51.42 66.32 51.87 66.67 55.72 67.02 53.79 67.37 55.72 67.72 59.27 68.07 59.57 68.42 61.49 68.77 62.53 69.11 61.35 69.46 60.16 69.81 62.68 70.16 61.79 70.51 59.57 70.86 59.42 71.21 59.86 71.56 60.9 71.91 62.53 72.26 64.31 72.61 66.38 72.95 69.2 73.3 68.16 73.65 66.98 74 63.12 74.35 62.53 74.7 64.01 75.05 63.72 75.4 64.75 75.75 61.05 76.1 59.27 76.45 60.31 76.8 60.01 77.14 60.61 77.49 60.75 77.84 62.09 78.19 59.27 78.54 60.01 78.89 64.46 79.24 65.2 79.59 66.38 79.94 65.2 80.29 64.46 80.64 64.01 80.98 64.75 81.33 57.35 81.68 55.87 82.03 53.64 82.38 55.27 82.73 55.87 83.08 55.57 83.43 51.87 83.78 56.31 84.13 56.01 84.48 55.57 84.83 54.09 85.17 53.79 85.52 54.68 85.87 55.72 86.22 56.75 86.57 58.38 86.92 59.86 87.27 60.46 87.62 62.38 87.97 61.94 88.32 61.05 88.67 59.72 89.02 58.98 89.36 60.16 89.71 61.35 90.06 64.01 90.41 62.83 90.76 65.64 91.11 66.68 91.46 65.35 91.81 63.42 92.16 64.01 92.51 62.98 92.86 62.83 93.2 62.09 93.55 60.46 93.9 61.2 94.25 60.75 94.6 62.09 94.95 60.31 95.3 60.01 95.65 61.64 96 61.79 96.35 60.16 96.7 62.09 97.05 62.09 97.39 64.31 97.74 65.94 98.09 65.49 98.44 64.9 98.79 65.64 99.14 72.16 99.49 69.94 99.84 71.57 100.19 71.57 100.54 67.57 100.89 68.31 101.23 69.2 101.58 69.49 101.93 71.12 102.28 70.23 102.63 72.01 102.98 70.09 103.33 72.01 103.68 73.05 104.03 75.57 104.38 77.05 104.73 74.97 105.08 76.9 105.42 77.34 105.77 78.97 106.12 79.27 106.47 79.12 106.82 77.2 107.17 75.12 107.52 75.86 107.87 79.71 108.22 82.08 108.57 83.27 108.92 84.16 109.26 84.31 109.61 85.49 109.96 86.08 110.31 86.82 110.66 84.01 111.01 81.34 111.36 80.01 111.71 79.57 112.06 76.9 112.41 79.12 112.76 80.9 113.11 83.57 113.45 81.34 113.8 80.16 114.15 82.38 114.5 83.57 114.85 85.64 115.2 86.97 115.55 82.23 115.9 82.23 116.25 82.97 116.6 82.38 116.95 81.64 117.3 81.49 117.64 80.6 117.99 83.12 118.34 79.27 118.69 81.05 119.04 80.6 119.39 82.08 119.74 83.42 120.09 86.97 120.44 84.6 120.79 85.34 121.14 85.49 121.48 83.12 121.83 83.27 122.18 84.75 122.53 87.42 122.88 88.6 123.23 89.05 123.58 88.45 123.93 88.75 124.28 87.71 124.63 87.42 124.98 86.38 125.33 86.68 125.67 87.27 126.02 86.08 126.37 84.6 126.72 80.9 127.07 82.08 127.42 80.16 127.77 80.6 128.12 81.34 128.47 82.82 128.82 84.31 129.17 84.31 129.51 81.64 129.86 81.79 130.21 81.49 130.56 80.9 130.91 83.27 131.26 83.86 131.61 82.53 131.96 82.53 132.31 84.31 132.66 85.19 133.01 85.34 133.36 85.79 133.7 88.45 134.05 89.94 134.4 86.97 134.75 83.27 135.1 83.42 135.45 84.16 135.8 85.49 136.15 85.49 136.5 84.75 136.85 85.05 137.2 85.64 137.55 86.97 137.89 82.97 138.24 84.01 138.59 81.05 138.94 79.86 139.29 78.97 139.64 77.05 139.99 78.38 140.34 80.75 140.69 81.2 141.04 78.23 141.39 77.49 141.73 79.12 142.08 78.97 142.43 79.42 142.78 82.38 143.13 81.34 143.48 78.83 143.83 80.31 144.18 78.08 144.53 78.97 144.88 80.6 145.23 84.31 145.58 82.97 145.92 83.57 146.27 85.19 146.62 86.97 146.97 88.9 147.32 89.79 147.67 88.9 148.02 90.08 148.37 87.57 148.72 90.23 149.07 85.64 149.42 84.31 149.76 86.53 150.11 88.6 150.46 85.05 150.81 84.75 151.16 85.49 151.51 85.19 151.86 87.12 152.21 89.79 152.56 89.19 152.91 89.79 153.26 88.9 153.61 91.12 153.95 88.31 154.3 85.79 154.65 89.49 155 89.34 155.35 89.34 155.7 89.05 156.05 90.97 156.4 92.01 156.75 94.68 157.1 96.3 157.45 96.3 157.79 91.71 158.14 92.16 158.49 93.19 158.84 95.56 159.19 97.19 159.54 98.67 159.89 96.16 160.24 95.56 160.59 92.45 160.94 90.97 161.29 92.45 161.64 93.05 161.98 88.31 162.33 88.16 162.68 91.27 163.03 89.34 163.38 87.27 163.73 87.57 164.08 86.08 164.43 89.19 164.78 91.56 165.13 93.19 165.48 93.79 165.83 96.16 166.17 94.68 166.52 93.34 166.87 92.75 167.22 90.82 167.57 88.45 167.92 85.49 168.27 83.57 168.62 84.45 168.97 86.08 169.32 88.01 169.67 89.49 170.01 85.64 170.36 86.08 170.71 86.23 171.06 85.79 171.41 82.97 171.76 78.97 172.11 78.08 172.46 76.6 172.81 78.53 173.16 79.42 173.51 78.68 173.86 77.79 174.2 77.34 174.55 78.38 174.9 80.01 175.25 78.23 175.6 73.79 175.95 69.05 176.3 68.16 176.65 67.42 177 65.94 177.35 64.75 177.7 66.98 178.04 65.05 178.39 65.05 178.74 65.79 179.09 66.38 179.44 63.86 179.79 66.38 180.14 66.23 180.49 65.79 180.84 66.53 181.19 65.79 181.54 62.38 181.89 61.94 182.23 62.68 182.58 61.2 182.93 61.49 183.28 61.35 183.63 63.42 183.98 61.2 184.33 60.61 184.68 60.01 185.03 60.16 185.38 60.31 185.73 62.09 186.08 63.12 186.42 61.79 186.77 59.57 187.12 57.64 187.47 58.24 187.82 55.72 188.17 54.83 188.52 54.53 188.87 54.98 189.22 56.75 189.57 55.72 189.92 55.57 190.26 58.68 190.61 59.57 190.96 59.42 191.31 60.31 191.66 58.09 192.01 57.49 192.36 60.16 192.71 58.53 193.06 58.83 193.41 56.61 193.76 57.79 194.11 57.79 194.45 57.35 194.8 58.53 195.15 60.61 195.5 59.86 195.85 59.27 196.2 57.05"/>
      </g>
    </g>
  </g>
</g>
  <g class="guide ylabels" font-size="2.82" font-family="'PT Sans Caption','Helvetica Neue','Helvetica',sans-serif" fill="#000000" id="img-5967abef-20">
    <text x="18.63" y="131.11" text-anchor="end" dy="0.35em">0</text>
    <text x="18.63" y="101.49" text-anchor="end" dy="0.35em">200</text>
    <text x="18.63" y="71.86" text-anchor="end" dy="0.35em">400</text>
    <text x="18.63" y="42.24" text-anchor="end" dy="0.35em">600</text>
    <text x="18.63" y="12.61" text-anchor="end" dy="0.35em">800</text>
  </g>
  <g font-size="3.88" font-family="'PT Sans','Helvetica Neue','Helvetica',sans-serif" fill="#000000" stroke="#000000" stroke-opacity="0.000" id="img-5967abef-21">
    <text x="8.81" y="69.86" text-anchor="middle" dy="0.35em" transform="rotate(-90, 8.81, 71.86)">population number</text>
  </g>
  <g font-size="3.88" font-family="'PT Sans','Helvetica Neue','Helvetica',sans-serif" fill="#000000" stroke="#000000" stroke-opacity="0.000" id="img-5967abef-22">
    <text x="108.92" y="5" text-anchor="middle" dy="0.6em">genetic drift</text>
  </g>
</g>
<defs>
  <clipPath id="img-5967abef-4">
  <path d="M19.63,10.61 L 198.2 10.61 198.2 133.11 19.63 133.11" />
</clipPath>
</defs>
</svg>
