<?xml version="1.0" encoding="UTF-8"?>
<svg xmlns="http://www.w3.org/2000/svg"
     xmlns:xlink="http://www.w3.org/1999/xlink"
     xmlns:gadfly="http://www.gadflyjl.org/ns"
     version="1.2"
     width="203.2mm" height="152.4mm" viewBox="0 0 203.2 152.4"
     stroke="none"
     fill="#000000"
     stroke-width="0.3"
     font-size="3.88"
>
<g class="plotroot xscalable yscalable" id="img-0283555b-1">
  <g font-size="3.88" font-family="'PT Sans','Helvetica Neue','Helvetica',sans-serif" fill="#000000" stroke="#000000" stroke-opacity="0.000" id="img-0283555b-2">
    <text x="108.92" y="140.79" text-anchor="middle" dy="0.6em">generation number</text>
  </g>
  <g class="guide xlabels" font-size="2.82" font-family="'PT Sans Caption','Helvetica Neue','Helvetica',sans-serif" fill="#000000" id="img-0283555b-3">
    <text x="21.63" y="134.11" text-anchor="middle" dy="0.6em">0</text>
    <text x="56.55" y="134.11" text-anchor="middle" dy="0.6em">100</text>
    <text x="91.46" y="134.11" text-anchor="middle" dy="0.6em">200</text>
    <text x="126.37" y="134.11" text-anchor="middle" dy="0.6em">300</text>
    <text x="161.29" y="134.11" text-anchor="middle" dy="0.6em">400</text>
    <text x="196.2" y="134.11" text-anchor="middle" dy="0.6em">500</text>
  </g>
<g clip-path="url(#img-0283555b-4)">
  <g id="img-0283555b-5">
    <g pointer-events="visible" opacity="1" fill="#FFFFFF" stroke="#000000" stroke-opacity="0.000" class="guide background" id="img-0283555b-6">
      <rect x="19.63" y="10.61" width="178.57" height="122.5"/>
    </g>
    <g class="guide ygridlines xfixed" stroke-dasharray="0.5,0.5" stroke-width="0.2" stroke="#808080" id="img-0283555b-7">
      <path fill="none" d="M19.63,131.11 L 198.2 131.11"/>
      <path fill="none" d="M19.63,101.49 L 198.2 101.49"/>
      <path fill="none" d="M19.63,71.86 L 198.2 71.86"/>
      <path fill="none" d="M19.63,42.24 L 198.2 42.24"/>
      <path fill="none" d="M19.63,12.61 L 198.2 12.61"/>
    </g>
    <g class="guide xgridlines yfixed" stroke-dasharray="0.5,0.5" stroke-width="0.2" stroke="#808080" id="img-0283555b-8">
      <path fill="none" d="M21.63,10.61 L 21.63 133.11"/>
      <path fill="none" d="M56.55,10.61 L 56.55 133.11"/>
      <path fill="none" d="M91.46,10.61 L 91.46 133.11"/>
      <path fill="none" d="M126.37,10.61 L 126.37 133.11"/>
      <path fill="none" d="M161.29,10.61 L 161.29 133.11"/>
      <path fill="none" d="M196.2,10.61 L 196.2 133.11"/>
    </g>
    <g class="plotpanel" id="img-0283555b-9">
      <g stroke-width="0.3" fill="#000000" fill-opacity="0.000" class="geometry" stroke-dasharray="none" stroke="#3288BD" id="img-0283555b-10">
        <path fill="none" d="M21.98,79.27 L 22.33 79.86 22.68 78.68 23.03 78.68 23.38 80.16 23.73 81.2 24.08 80.6 24.42 80.6 24.77 78.53 25.12 76.46 25.47 75.12 25.82 75.42 26.17 73.49 26.52 74.09 26.87 74.09 27.22 74.53 27.57 77.34 27.92 78.83 28.27 80.75 28.61 79.12 28.96 80.31 29.31 78.23 29.66 80.31 30.01 79.27 30.36 79.42 30.71 80.75 31.06 79.71 31.41 79.57 31.76 81.2 32.11 79.71 32.45 80.45 32.8 82.68 33.15 80.16 33.5 81.2 33.85 83.42 34.2 84.45 34.55 85.49 34.9 84.75 35.25 80.6 35.6 77.64 35.95 77.79 36.3 75.71 36.64 76.9 36.99 75.71 37.34 74.68 37.69 72.9 38.04 74.83 38.39 76.16 38.74 77.2 39.09 75.86 39.44 75.12 39.79 74.09 40.14 72.16 40.49 75.12 40.83 75.71 41.18 73.34 41.53 73.79 41.88 74.53 42.23 72.31 42.58 73.79 42.93 78.53 43.28 76.75 43.63 73.05 43.98 74.09 44.33 70.83 44.67 69.2 45.02 71.12 45.37 71.27 45.72 71.42 46.07 73.79 46.42 75.71 46.77 75.57 47.12 75.12 47.47 77.2 47.82 76.46 48.17 78.68 48.52 76.16 48.86 77.05 49.21 77.79 49.56 78.23 49.91 80.16 50.26 79.27 50.61 82.68 50.96 84.01 51.31 85.64 51.66 84.75 52.01 86.82 52.36 84.9 52.7 83.27 53.05 85.79 53.4 83.57 53.75 83.71 54.1 81.94 54.45 82.08 54.8 85.19 55.15 86.38 55.5 89.34 55.85 89.05 56.2 89.79 56.55 89.64 56.89 88.45 57.24 88.9 57.59 92.75 57.94 91.27 58.29 94.38 58.64 94.82 58.99 94.53 59.34 93.19 59.69 90.38 60.04 92.9 60.39 90.97 60.73 92.16 61.08 92.9 61.43 91.42 61.78 92.9 62.13 89.64 62.48 87.27 62.83 85.05 63.18 90.53 63.53 91.12 63.88 89.34 64.23 91.12 64.58 91.56 64.92 92.31 65.27 92.31 65.62 92.31 65.97 93.49 66.32 95.86 66.67 95.86 67.02 99.12 67.37 100.45 67.72 101.64 68.07 103.71 68.42 104.16 68.77 103.71 69.11 107.12 69.46 108.9 69.81 107.71 70.16 107.56 70.51 104.16 70.86 102.38 71.21 100.01 71.56 99.56 71.91 98.38 72.26 95.42 72.61 98.97 72.95 100.9 73.3 98.08 73.65 98.53 74 99.71 74.35 99.56 74.7 99.56 75.05 100.9 75.4 104.45 75.75 105.93 76.1 104.75 76.45 105.04 76.8 102.67 77.14 104.6 77.49 105.34 77.84 104.75 78.19 105.93 78.54 105.19 78.89 106.08 79.24 105.78 79.59 105.93 79.94 108.75 80.29 110.23 80.64 110.97 80.98 112.3 81.33 115.12 81.68 113.04 82.03 113.78 82.38 114.97 82.73 117.04 83.08 117.04 83.43 118.52 83.78 116.89 84.13 117.34 84.48 116.89 84.83 115.71 85.17 117.04 85.52 116.6 85.87 115.56 86.22 116.3 86.57 116.6 86.92 115.12 87.27 117.93 87.62 117.19 87.97 118.52 88.32 119.12 88.67 119.41 89.02 117.93 89.36 117.93 89.71 117.19 90.06 117.64 90.41 117.64 90.76 117.19 91.11 114.38 91.46 113.93 91.81 113.49 92.16 111.86 92.51 112.15 92.86 112.45 93.2 112.01 93.55 114.52 93.9 117.19 94.25 116.15 94.6 114.97 94.95 113.64 95.3 111.86 95.65 115.56 96 112.75 96.35 111.41 96.7 112.75 97.05 111.86 97.39 111.27 97.74 111.12 98.09 109.93 98.44 111.27 98.79 109.49 99.14 107.71 99.49 106.82 99.84 110.08 100.19 110.67 100.54 110.08 100.89 109.34 101.23 110.23 101.58 110.97 101.93 110.67 102.28 109.64 102.63 109.78 102.98 107.27 103.33 108.3 103.68 108.01 104.03 111.12 104.38 109.19 104.73 110.82 105.08 113.04 105.42 112.9 105.77 112.75 106.12 111.41 106.47 113.34 106.82 112.3 107.17 113.04 107.52 112.01 107.87 112.75 108.22 111.71 108.57 111.71 108.92 113.93 109.26 114.08 109.61 116.89 109.96 115.86 110.31 116.3 110.66 116.45 111.01 116.15 111.36 117.04 111.71 117.49 112.06 116.01 112.41 114.97 112.76 114.52 113.11 115.27 113.45 113.04 113.8 112.45 114.15 115.71 114.5 115.56 114.85 114.82 115.2 113.93 115.55 113.34 115.9 114.52 116.25 115.12 116.6 112.3 116.95 115.27 117.3 118.97 117.64 119.12 117.99 118.23 118.34 118.52 118.69 117.04 119.04 118.38 119.39 118.38 119.74 119.71 120.09 120.3 120.44 122.08 120.79 121.93 121.14 121.04 121.48 121.63 121.83 119.86 122.18 119.86 122.53 119.71 122.88 117.34 123.23 118.38 123.58 117.49 123.93 118.23 124.28 118.08 124.63 118.82 124.98 119.26 125.33 118.38 125.67 118.38 126.02 116.15 126.37 116.3 126.72 118.67 127.07 118.52 127.42 119.12 127.77 119.12 128.12 119.86 128.47 119.12 128.82 117.64 129.17 116.15 129.51 115.86 129.86 115.41 130.21 116.75 130.56 119.56 130.91 119.56 131.26 118.08 131.61 119.71 131.96 120.6 132.31 121.49 132.66 120.3 133.01 120.15 133.36 120.15 133.7 119.12 134.05 121.19 134.4 121.93 134.75 122.52 135.1 123.41 135.45 124.75 135.8 123.12 136.15 124 136.5 123.71 136.85 124.45 137.2 123.26 137.55 123.26 137.89 122.23 138.24 120.75 138.59 120.01 138.94 123.12 139.29 123.41 139.64 122.97 139.99 122.08 140.34 123.71 140.69 124.15 141.04 124.89 141.39 125.78 141.73 125.49 142.08 127.26 142.43 127.71 142.78 126.67 143.13 126.37 143.48 126.67 143.83 127.56 144.18 129.04 144.53 128.6 144.88 128 145.23 128 145.58 128.6 145.92 127.86 146.27 128.45 146.62 128.3 146.97 128.74 147.32 129.34 147.67 129.04 148.02 129.63 148.37 129.93 148.72 128.6 149.07 128.6 149.42 127.41 149.76 127.56 150.11 126.97 150.46 126.52 150.81 128.3 151.16 128.15 151.51 129.19 151.86 129.49 152.21 129.34 152.56 129.49 152.91 129.49 153.26 129.93 153.61 129.63 153.95 129.78 154.3 130.08 154.65 130.08 155 129.49 155.35 129.78 155.7 129.34 156.05 129.49 156.4 129.78 156.75 129.78 157.1 130.67 157.45 130.82 157.79 131.11"/>
      </g>
      <g stroke-width="0.3" fill="#000000" fill-opacity="0.000" class="geometry" stroke-dasharray="none" stroke="#66C2A5" id="img-0283555b-11">
        <path fill="none" d="M21.98,79.27 L 22.33 78.38 22.68 76.31 23.03 75.12 23.38 75.71 23.73 78.97 24.08 81.49 24.42 81.49 24.77 79.42 25.12 78.53 25.47 80.31 25.82 82.53 26.17 85.49 26.52 87.71 26.87 84.9 27.22 85.64 27.57 88.16 27.92 88.45 28.27 88.01 28.61 85.05 28.96 84.9 29.31 82.53 29.66 79.27 30.01 78.68 30.36 79.42 30.71 83.71 31.06 85.79 31.41 86.97 31.76 86.53 32.11 86.97 32.45 89.94 32.8 91.27 33.15 92.16 33.5 92.75 33.85 95.71 34.2 94.53 34.55 95.42 34.9 95.86 35.25 96.6 35.6 96.3 35.95 94.38 36.3 95.27 36.64 95.12 36.99 96.9 37.34 96.9 37.69 95.27 38.04 93.93 38.39 92.45 38.74 91.56 39.09 93.19 39.44 92.45 39.79 94.38 40.14 95.86 40.49 98.23 40.83 95.71 41.18 96.9 41.53 99.71 41.88 100.9 42.23 103.86 42.58 102.53 42.93 101.93 43.28 103.41 43.63 102.08 43.98 105.19 44.33 106.38 44.67 106.23 45.02 105.64 45.37 106.08 45.72 106.08 46.07 108.3 46.42 109.04 46.77 108.6 47.12 107.71 47.47 105.04 47.82 106.82 48.17 108.01 48.52 108.3 48.86 108.45 49.21 108.01 49.56 106.82 49.91 106.38 50.26 106.38 50.61 106.08 50.96 103.56 51.31 102.23 51.66 99.42 52.01 98.97 52.36 101.34 52.7 102.38 53.05 102.23 53.4 101.64 53.75 100.6 54.1 101.19 54.45 101.04 54.8 98.23 55.15 96.45 55.5 96.16 55.85 96.01 56.2 97.19 56.55 97.79 56.89 101.64 57.24 97.93 57.59 99.71 57.94 100.3 58.29 100.16 58.64 99.86 58.99 102.08 59.34 104.45 59.69 102.53 60.04 102.38 60.39 105.78 60.73 104.45 61.08 103.12 61.43 103.86 61.78 105.04 62.13 105.64 62.48 106.08 62.83 103.27 63.18 104.6 63.53 102.08 63.88 101.19 64.23 99.27 64.58 99.56 64.92 99.71 65.27 97.19 65.62 98.53 65.97 95.71 66.32 96.45 66.67 96.45 67.02 96.9 67.37 96.75 67.72 94.82 68.07 96.6 68.42 97.05 68.77 98.23 69.11 100.9 69.46 101.79 69.81 101.04 70.16 99.27 70.51 95.86 70.86 97.34 71.21 94.68 71.56 93.05 71.91 92.9 72.26 92.9 72.61 92.9 72.95 92.01 73.3 93.34 73.65 96.3 74 96.75 74.35 95.42 74.7 97.79 75.05 96.3 75.4 97.79 75.75 99.56 76.1 97.79 76.45 96.01 76.8 93.19 77.14 91.56 77.49 93.19 77.84 95.56 78.19 94.82 78.54 92.31 78.89 96.3 79.24 94.97 79.59 95.42 79.94 95.86 80.29 96.75 80.64 96.6 80.98 95.27 81.33 96.9 81.68 98.97 82.03 101.19 82.38 101.19 82.73 102.08 83.08 103.41 83.43 104.45 83.78 104.6 84.13 107.86 84.48 106.67 84.83 101.79 85.17 100.3 85.52 101.49 85.87 102.97 86.22 103.56 86.57 101.64 86.92 101.49 87.27 101.93 87.62 101.49 87.97 98.08 88.32 98.38 88.67 99.12 89.02 101.34 89.36 101.19 89.71 101.34 90.06 102.67 90.41 100.16 90.76 100.16 91.11 101.19 91.46 101.49 91.81 102.67 92.16 103.12 92.51 100.75 92.86 100.3 93.2 102.82 93.55 101.79 93.9 99.56 94.25 99.12 94.6 95.86 94.95 96.01 95.3 97.93 95.65 97.64 96 96.3 96.35 96.6 96.7 97.49 97.05 102.53 97.39 105.19 97.74 106.23 98.09 104.9 98.44 105.64 98.79 106.38 99.14 102.67 99.49 99.27 99.84 96.3 100.19 93.93 100.54 93.64 100.89 90.23 101.23 89.64 101.58 89.64 101.93 90.82 102.28 88.31 102.63 88.75 102.98 87.86 103.33 89.05 103.68 87.57 104.03 85.64 104.38 86.68 104.73 84.45 105.08 82.23 105.42 83.42 105.77 85.94 106.12 88.45 106.47 85.79 106.82 87.42 107.17 87.57 107.52 86.23 107.87 90.38 108.22 89.94 108.57 92.31 108.92 92.01 109.26 96.3 109.61 94.53 109.96 93.64 110.31 91.71 110.66 93.34 111.01 91.71 111.36 93.05 111.71 94.38 112.06 90.38 112.41 89.49 112.76 89.19 113.11 90.08 113.45 92.75 113.8 93.19 114.15 92.75 114.5 96.01 114.85 94.38 115.2 96.75 115.55 96.75 115.9 94.53 116.25 95.27 116.6 96.01 116.95 90.97 117.3 91.71 117.64 92.45 117.99 95.27 118.34 94.68 118.69 92.01 119.04 92.01 119.39 90.82 119.74 91.86 120.09 90.23 120.44 90.68 120.79 89.79 121.14 90.08 121.48 90.97 121.83 91.27 122.18 91.71 122.53 90.82 122.88 91.86 123.23 89.94 123.58 89.64 123.93 90.68 124.28 90.38 124.63 93.93 124.98 93.49 125.33 91.86 125.67 92.6 126.02 94.23 126.37 91.42 126.72 90.38 127.07 91.12 127.42 91.71 127.77 89.64 128.12 89.64 128.47 90.08 128.82 89.64 129.17 88.75 129.51 91.56 129.86 93.79 130.21 94.53 130.56 93.05 130.91 91.42 131.26 88.9 131.61 87.86 131.96 87.42 132.31 90.08 132.66 87.42 133.01 84.45 133.36 83.86 133.7 82.68 134.05 85.34 134.4 85.49 134.75 87.57 135.1 90.53 135.45 90.82 135.8 90.53 136.15 87.42 136.5 87.12 136.85 89.05 137.2 88.01 137.55 89.05 137.89 88.75 138.24 87.12 138.59 82.53 138.94 80.31 139.29 78.38 139.64 76.31 139.99 76.46 140.34 76.6 140.69 79.12 141.04 76.16 141.39 76.75 141.73 73.49 142.08 74.53 142.43 72.46 142.78 69.35 143.13 67.86 143.48 68.9 143.83 65.64 144.18 68.31 144.53 69.35 144.88 70.09 145.23 71.12 145.58 73.49 145.92 74.53 146.27 74.97 146.62 75.57 146.97 77.49 147.32 77.2 147.67 74.23 148.02 72.46 148.37 72.9 148.72 75.12 149.07 74.09 149.42 73.34 149.76 73.05 150.11 72.75 150.46 71.72 150.81 69.94 151.16 67.42 151.51 68.6 151.86 69.2 152.21 70.97 152.56 71.12 152.91 73.79 153.26 74.68 153.61 74.09 153.95 72.01 154.3 72.16 154.65 74.83 155 72.75 155.35 72.9 155.7 70.53 156.05 70.53 156.4 71.57 156.75 69.2 157.1 72.16 157.45 70.09 157.79 69.05 158.14 70.09 158.49 71.27 158.84 70.68 159.19 68.6 159.54 68.75 159.89 67.72 160.24 68.01 160.59 65.94 160.94 66.09 161.29 64.75 161.64 61.79 161.98 62.98 162.33 64.61 162.68 64.46 163.03 67.72 163.38 64.16 163.73 65.05 164.08 68.01 164.43 68.31 164.78 66.38 165.13 67.86 165.48 69.94 165.83 68.46 166.17 69.2 166.52 69.94 166.87 71.57 167.22 70.53 167.57 69.64 167.92 68.31 168.27 67.57 168.62 66.53 168.97 68.31 169.32 68.01 169.67 70.23 170.01 70.83 170.36 70.53 170.71 67.57 171.06 68.9 171.41 71.42 171.76 69.2 172.11 69.05 172.46 68.75 172.81 65.05 173.16 64.31 173.51 62.38 173.86 62.09 174.2 65.05 174.55 67.86 174.9 71.72 175.25 71.42 175.6 71.42 175.95 69.2 176.3 70.09 176.65 68.6 177 71.86 177.35 67.86 177.7 70.68 178.04 67.27 178.39 68.46 178.74 72.01 179.09 70.83 179.44 72.01 179.79 72.75 180.14 76.01 180.49 74.09 180.84 73.94 181.19 74.09 181.54 73.79 181.89 74.68 182.23 76.46 182.58 79.57 182.93 80.31 183.28 82.68 183.63 81.64 183.98 78.83 184.33 76.16 184.68 76.9 185.03 76.6 185.38 74.09 185.73 72.9 186.08 75.12 186.42 73.64 186.77 71.27 187.12 69.35 187.47 68.46 187.82 64.75 188.17 64.9 188.52 65.05 188.87 65.64 189.22 66.09 189.57 63.72 189.92 58.09 190.26 57.49 190.61 56.16 190.96 57.64 191.31 59.72 191.66 57.2 192.01 58.38 192.36 58.68 192.71 58.68 193.06 57.94 193.41 58.38 193.76 56.75 194.11 57.2 194.45 60.01 194.8 60.31 195.15 59.57 195.5 60.9 195.85 60.31 196.2 62.23"/>
      </g>
      <g stroke-width="0.3" fill="#000000" fill-opacity="0.000" class="geometry" stroke-dasharray="none" stroke="#ABDDA4" id="img-0283555b-12">
        <path fill="none" d="M21.98,79.27 L 22.33 80.31 22.68 82.68 23.03 81.94 23.38 80.01 23.73 77.05 24.08 75.86 24.42 78.08 24.77 78.83 25.12 80.16 25.47 84.01 25.82 86.38 26.17 88.6 26.52 87.71 26.87 86.68 27.22 81.49 27.57 80.75 27.92 77.94 28.27 81.49 28.61 83.57 28.96 85.05 29.31 84.75 29.66 84.31 30.01 85.05 30.36 85.79 30.71 86.53 31.06 90.68 31.41 88.6 31.76 88.31 32.11 85.64 32.45 87.71 32.8 87.42 33.15 88.16 33.5 88.75 33.85 88.9 34.2 89.94 34.55 87.27 34.9 88.9 35.25 87.27 35.6 85.79 35.95 85.94 36.3 83.27 36.64 82.23 36.99 84.9 37.34 86.23 37.69 85.34 38.04 85.79 38.39 84.45 38.74 83.12 39.09 81.79 39.44 82.53 39.79 82.68 40.14 80.31 40.49 78.83 40.83 82.08 41.18 77.94 41.53 76.01 41.88 75.42 42.23 74.53 42.58 71.57 42.93 70.09 43.28 70.97 43.63 70.97 43.98 68.75 44.33 67.42 44.67 67.27 45.02 65.79 45.37 65.2 45.72 62.83 46.07 64.9 46.42 62.98 46.77 63.86 47.12 67.27 47.47 68.16 47.82 69.79 48.17 71.86 48.52 70.38 48.86 73.2 49.21 74.83 49.56 75.86 49.91 76.16 50.26 77.64 50.61 79.57 50.96 79.42 51.31 80.31 51.66 79.86 52.01 80.9 52.36 82.08 52.7 80.9 53.05 85.19 53.4 89.79 53.75 85.79 54.1 86.08 54.45 87.27 54.8 86.97 55.15 85.34 55.5 82.53 55.85 81.64 56.2 82.53 56.55 85.34 56.89 85.79 57.24 89.64 57.59 91.71 57.94 92.45 58.29 92.16 58.64 93.93 58.99 93.05 59.34 95.86 59.69 97.34 60.04 98.97 60.39 100.01 60.73 96.75 61.08 97.19 61.43 98.38 61.78 98.67 62.13 101.79 62.48 99.42 62.83 98.82 63.18 95.56 63.53 97.34 63.88 95.56 64.23 94.38 64.58 95.56 64.92 91.71 65.27 90.23 65.62 94.23 65.97 95.86 66.32 93.05 66.67 95.12 67.02 97.93 67.37 96.75 67.72 98.38 68.07 97.79 68.42 96.16 68.77 94.68 69.11 96.6 69.46 96.75 69.81 96.6 70.16 96.6 70.51 96.9 70.86 97.19 71.21 99.27 71.56 101.34 71.91 102.67 72.26 100.6 72.61 102.38 72.95 104.01 73.3 106.08 73.65 105.49 74 103.86 74.35 101.19 74.7 100.16 75.05 97.49 75.4 95.71 75.75 96.6 76.1 98.53 76.45 100.01 76.8 99.86 77.14 98.67 77.49 97.64 77.84 98.67 78.19 98.97 78.54 100.75 78.89 100.9 79.24 102.23 79.59 102.38 79.94 102.08 80.29 101.93 80.64 102.23 80.98 102.53 81.33 100.9 81.68 99.12 82.03 98.82 82.38 98.08 82.73 96.6 83.08 97.64 83.43 97.34 83.78 97.79 84.13 96.9 84.48 95.12 84.83 94.23 85.17 91.12 85.52 95.27 85.87 93.19 86.22 93.05 86.57 91.86 86.92 93.79 87.27 96.45 87.62 96.45 87.97 96.01 88.32 99.27 88.67 99.12 89.02 98.82 89.36 100.01 89.71 103.27 90.06 102.53 90.41 100.01 90.76 101.34 91.11 100.75 91.46 100.3 91.81 99.56 92.16 100.3 92.51 99.42 92.86 96.16 93.2 92.75 93.55 92.01 93.9 89.34 94.25 88.31 94.6 89.49 94.95 91.12 95.3 87.12 95.65 89.19 96 90.08 96.35 88.45 96.7 90.23 97.05 91.42 97.39 89.79 97.74 89.64 98.09 94.97 98.44 93.19 98.79 90.82 99.14 90.38 99.49 90.97 99.84 89.05 100.19 89.05 100.54 86.82 100.89 88.31 101.23 88.01 101.58 89.94 101.93 88.31 102.28 89.19 102.63 88.9 102.98 89.79 103.33 87.86 103.68 85.64 104.03 85.49 104.38 88.01 104.73 88.45 105.08 87.12 105.42 89.64 105.77 88.45 106.12 86.23 106.47 88.16 106.82 86.68 107.17 88.6 107.52 89.49 107.87 91.12 108.22 92.45 108.57 93.49 108.92 94.23 109.26 94.38 109.61 96.01 109.96 97.49 110.31 95.71 110.66 97.19 111.01 95.56 111.36 94.97 111.71 92.01 112.06 91.42 112.41 92.16 112.76 94.23 113.11 91.42 113.45 90.82 113.8 90.53 114.15 92.31 114.5 93.05 114.85 98.97 115.2 100.75 115.55 97.05 115.9 95.56 116.25 97.34 116.6 97.34 116.95 96.6 117.3 97.34 117.64 95.56 117.99 95.71 118.34 95.56 118.69 94.82 119.04 92.9 119.39 90.97 119.74 90.97 120.09 89.34 120.44 92.45 120.79 91.12 121.14 92.9 121.48 92.75 121.83 90.68 122.18 89.79 122.53 93.79 122.88 96.01 123.23 98.67 123.58 98.67 123.93 96.75 124.28 100.45 124.63 99.12 124.98 96.75 125.33 96.16 125.67 96.6 126.02 97.05 126.37 95.12 126.72 95.42 127.07 95.27 127.42 93.49 127.77 94.53 128.12 96.45 128.47 93.49 128.82 95.12 129.17 96.3 129.51 95.71 129.86 97.79 130.21 98.23 130.56 101.34 130.91 104.16 131.26 107.56 131.61 108.45 131.96 107.12 132.31 105.93 132.66 105.34 133.01 104.16 133.36 100.75 133.7 98.82 134.05 99.42 134.4 98.82 134.75 99.71 135.1 99.42 135.45 97.64 135.8 100.16 136.15 101.79 136.5 99.27 136.85 96.9 137.2 98.67 137.55 94.08 137.89 95.42 138.24 94.53 138.59 97.05 138.94 96.45 139.29 96.9 139.64 95.12 139.99 95.12 140.34 96.9 140.69 96.16 141.04 95.71 141.39 98.23 141.73 98.67 142.08 100.16 142.43 100.3 142.78 99.86 143.13 100.01 143.48 98.08 143.83 97.05 144.18 95.42 144.53 93.93 144.88 92.9 145.23 93.05 145.58 92.75 145.92 90.97 146.27 89.79 146.62 89.79 146.97 89.19 147.32 88.31 147.67 88.31 148.02 90.53 148.37 91.42 148.72 92.6 149.07 89.49 149.42 92.6 149.76 93.79 150.11 92.45 150.46 92.75 150.81 94.38 151.16 91.12 151.51 92.01 151.86 90.68 152.21 91.56 152.56 94.97 152.91 96.01 153.26 96.45 153.61 97.05 153.95 96.01 154.3 99.27 154.65 96.75 155 98.67 155.35 93.93 155.7 94.68 156.05 98.08 156.4 101.79 156.75 101.49 157.1 100.9 157.45 98.82 157.79 97.34 158.14 94.23 158.49 92.31 158.84 91.86 159.19 90.08 159.54 91.42 159.89 92.75 160.24 91.71 160.59 91.27 160.94 91.71 161.29 90.38 161.64 92.31 161.98 91.42 162.33 93.49 162.68 94.38 163.03 92.45 163.38 90.23 163.73 86.82 164.08 84.6 164.43 83.12 164.78 82.82 165.13 82.08 165.48 79.27 165.83 77.94 166.17 77.05 166.52 74.38 166.87 74.53 167.22 75.57 167.57 75.27 167.92 72.6 168.27 72.75 168.62 72.16 168.97 73.79 169.32 74.97 169.67 77.79 170.01 77.94 170.36 75.27 170.71 76.01 171.06 77.34 171.41 76.31 171.76 78.23 172.11 79.27 172.46 78.68 172.81 75.86 173.16 71.86 173.51 70.38 173.86 68.31 174.2 68.75 174.55 68.9 174.9 66.68 175.25 67.42 175.6 68.01 175.95 68.16 176.3 67.42 176.65 68.16 177 68.46 177.35 70.68 177.7 73.49 178.04 70.83 178.39 72.6 178.74 73.05 179.09 75.42 179.44 70.23 179.79 70.09 180.14 68.75 180.49 70.97 180.84 74.97 181.19 77.05 181.54 74.38 181.89 72.46 182.23 71.12 182.58 69.49 182.93 68.75 183.28 70.53 183.63 71.12 183.98 69.35 184.33 68.16 184.68 68.75 185.03 70.38 185.38 70.38 185.73 69.35 186.08 73.94 186.42 76.75 186.77 74.97 187.12 70.53 187.47 74.09 187.82 72.16 188.17 66.53 188.52 67.86 188.87 69.05 189.22 69.35 189.57 70.83 189.92 70.09 190.26 67.57 190.61 68.9 190.96 70.53 191.31 68.6 191.66 69.49 192.01 70.97 192.36 72.46 192.71 76.01 193.06 74.68 193.41 74.53 193.76 77.34 194.11 78.53 194.45 77.64 194.8 75.57 195.15 77.34 195.5 75.12 195.85 72.46 196.2 75.71"/>
      </g>
      <g stroke-width="0.3" fill="#000000" fill-opacity="0.000" class="geometry" stroke-dasharray="none" stroke="#E6F598" id="img-0283555b-13">
        <path fill="none" d="M21.98,79.27 L 22.33 78.97 22.68 79.12 23.03 78.08 23.38 78.53 23.73 79.27 24.08 81.2 24.42 82.53 24.77 80.6 25.12 82.23 25.47 80.6 25.82 76.6 26.17 75.57 26.52 76.46 26.87 78.08 27.22 76.9 27.57 76.16 27.92 75.71 28.27 74.38 28.61 73.05 28.96 74.38 29.31 76.9 29.66 78.23 30.01 78.23 30.36 80.45 30.71 79.71 31.06 79.57 31.41 77.79 31.76 77.34 32.11 80.9 32.45 82.38 32.8 85.64 33.15 86.68 33.5 85.94 33.85 87.12 34.2 85.64 34.55 86.68 34.9 86.38 35.25 86.53 35.6 84.45 35.95 87.57 36.3 87.71 36.64 90.82 36.99 90.08 37.34 88.75 37.69 88.16 38.04 90.23 38.39 90.68 38.74 92.45 39.09 90.08 39.44 87.71 39.79 82.38 40.14 81.64 40.49 83.57 40.83 81.49 41.18 81.05 41.53 81.34 41.88 82.38 42.23 79.57 42.58 82.68 42.93 79.27 43.28 78.97 43.63 77.49 43.98 79.12 44.33 80.45 44.67 83.71 45.02 82.53 45.37 80.9 45.72 78.68 46.07 76.01 46.42 79.42 46.77 79.86 47.12 80.01 47.47 85.94 47.82 86.23 48.17 84.75 48.52 84.6 48.86 82.53 49.21 81.64 49.56 80.45 49.91 77.34 50.26 81.05 50.61 77.64 50.96 78.53 51.31 80.6 51.66 78.53 52.01 76.16 52.36 75.42 52.7 75.12 53.05 76.6 53.4 76.9 53.75 76.46 54.1 73.49 54.45 74.23 54.8 75.86 55.15 78.53 55.5 78.23 55.85 76.9 56.2 81.64 56.55 83.27 56.89 83.42 57.24 86.68 57.59 87.86 57.94 86.08 58.29 87.27 58.64 87.12 58.99 88.6 59.34 88.75 59.69 87.57 60.04 86.82 60.39 86.08 60.73 83.71 61.08 85.34 61.43 87.12 61.78 85.49 62.13 84.45 62.48 85.64 62.83 85.64 63.18 85.79 63.53 82.97 63.88 84.31 64.23 82.08 64.58 81.49 64.92 82.68 65.27 80.31 65.62 77.64 65.97 77.64 66.32 77.64 66.67 78.68 67.02 80.6 67.37 78.68 67.72 76.6 68.07 77.64 68.42 76.9 68.77 75.42 69.11 74.53 69.46 75.12 69.81 74.53 70.16 76.75 70.51 77.34 70.86 75.12 71.21 76.46 71.56 78.23 71.91 78.08 72.26 77.34 72.61 77.34 72.95 76.46 73.3 76.31 73.65 77.49 74 78.23 74.35 78.53 74.7 75.42 75.05 71.27 75.4 72.16 75.75 75.71 76.1 75.71 76.45 74.68 76.8 73.64 77.14 75.12 77.49 70.97 77.84 72.01 78.19 70.53 78.54 69.94 78.89 71.42 79.24 71.27 79.59 68.75 79.94 69.05 80.29 67.42 80.64 65.49 80.98 65.2 81.33 64.9 81.68 62.23 82.03 64.46 82.38 65.94 82.73 67.72 83.08 69.49 83.43 74.68 83.78 76.01 84.13 75.57 84.48 73.94 84.83 70.23 85.17 67.42 85.52 68.16 85.87 70.68 86.22 70.97 86.57 69.05 86.92 68.31 87.27 74.23 87.62 72.46 87.97 70.97 88.32 72.46 88.67 71.12 89.02 69.2 89.36 71.57 89.71 71.86 90.06 67.12 90.41 69.05 90.76 66.38 91.11 64.75 91.46 62.68 91.81 63.57 92.16 63.12 92.51 64.01 92.86 62.83 93.2 61.94 93.55 64.46 93.9 64.46 94.25 66.38 94.6 67.57 94.95 62.98 95.3 61.35 95.65 61.2 96 58.24 96.35 62.23 96.7 64.31 97.05 64.31 97.39 63.72 97.74 62.83 98.09 65.2 98.44 66.98 98.79 68.9 99.14 69.79 99.49 72.46 99.84 71.42 100.19 69.2 100.54 67.57 100.89 67.86 101.23 67.27 101.58 66.23 101.93 66.38 102.28 64.75 102.63 61.49 102.98 60.75 103.33 63.72 103.68 64.9 104.03 64.01 104.38 63.27 104.73 65.49 105.08 66.98 105.42 65.79 105.77 65.35 106.12 66.68 106.47 64.9 106.82 65.05 107.17 65.05 107.52 64.61 107.87 63.27 108.22 64.16 108.57 61.49 108.92 59.86 109.26 61.49 109.61 62.09 109.96 62.23 110.31 63.27 110.66 65.2 111.01 64.9 111.36 64.9 111.71 67.12 112.06 67.27 112.41 71.27 112.76 71.27 113.11 69.2 113.45 71.57 113.8 70.53 114.15 69.79 114.5 68.01 114.85 65.2 115.2 65.64 115.55 62.53 115.9 62.23 116.25 62.23 116.6 62.09 116.95 60.61 117.3 60.46 117.64 60.31 117.99 63.57 118.34 61.64 118.69 62.98 119.04 62.09 119.39 59.57 119.74 57.79 120.09 60.16 120.44 59.12 120.79 57.35 121.14 61.2 121.48 59.72 121.83 55.72 122.18 55.87 122.53 55.42 122.88 56.9 123.23 59.57 123.58 58.38 123.93 59.42 124.28 58.53 124.63 58.38 124.98 57.49 125.33 58.53 125.67 60.9 126.02 59.27 126.37 59.27 126.72 61.49 127.07 61.94 127.42 61.64 127.77 58.24 128.12 60.01 128.47 59.86 128.82 59.72 129.17 57.94 129.51 58.09 129.86 57.94 130.21 59.72 130.56 63.12 130.91 61.05 131.26 59.72 131.61 56.31 131.96 53.05 132.31 52.01 132.66 49.94 133.01 48.61 133.36 47.27 133.7 49.05 134.05 47.72 134.4 48.46 134.75 48.9 135.1 47.27 135.45 47.27 135.8 47.72 136.15 47.27 136.5 44.76 136.85 45.5 137.2 47.27 137.55 46.83 137.89 46.24 138.24 45.2 138.59 47.42 138.94 47.87 139.29 46.09 139.64 42.98 139.99 45.35 140.34 47.13 140.69 46.09 141.04 46.53 141.39 45.2 141.73 45.5 142.08 44.76 142.43 45.35 142.78 45.79 143.13 44.9 143.48 45.64 143.83 43.42 144.18 43.42 144.53 40.9 144.88 42.24 145.23 41.94 145.58 41.05 145.92 39.72 146.27 37.94 146.62 37.94 146.97 38.24 147.32 38.68 147.67 39.87 148.02 41.05 148.37 42.83 148.72 42.98 149.07 42.53 149.42 41.64 149.76 40.61 150.11 42.98 150.46 43.57 150.81 45.05 151.16 43.72 151.51 44.16 151.86 45.2 152.21 47.13 152.56 44.61 152.91 45.05 153.26 47.42 153.61 44.46 153.95 43.72 154.3 42.98 154.65 42.39 155 42.39 155.35 40.76 155.7 42.24 156.05 42.24 156.4 43.42 156.75 43.42 157.1 41.35 157.45 40.16 157.79 41.05 158.14 40.9 158.49 43.72 158.84 41.35 159.19 41.79 159.54 42.09 159.89 44.16 160.24 46.53 160.59 46.53 160.94 46.53 161.29 47.27 161.64 48.01 161.98 46.53 162.33 47.72 162.68 46.98 163.03 45.64 163.38 44.02 163.73 44.46 164.08 43.87 164.43 44.61 164.78 44.76 165.13 45.79 165.48 46.09 165.83 47.13 166.17 45.94 166.52 47.87 166.87 49.64 167.22 49.64 167.57 50.38 167.92 52.31 168.27 52.75 168.62 56.16 168.97 55.87 169.32 54.24 169.67 54.83 170.01 54.83 170.36 51.42 170.71 50.53 171.06 50.68 171.41 49.05 171.76 53.79 172.11 54.09 172.46 56.46 172.81 59.72 173.16 56.75 173.51 57.64 173.86 56.16 174.2 54.24 174.55 56.31 174.9 55.87 175.25 53.64 175.6 52.61 175.95 52.16 176.3 52.46 176.65 51.87 177 53.2 177.35 52.01 177.7 51.42 178.04 50.98 178.39 50.98 178.74 50.98 179.09 49.79 179.44 47.87 179.79 47.87 180.14 44.9 180.49 40.76 180.84 39.72 181.19 39.72 181.54 39.42 181.89 37.35 182.23 39.42 182.58 38.39 182.93 35.87 183.28 35.28 183.63 34.09 183.98 34.09 184.33 34.83 184.68 36.02 185.03 37.65 185.38 37.94 185.73 39.72 186.08 40.61 186.42 41.2 186.77 41.2 187.12 39.13 187.47 37.94 187.82 37.79 188.17 37.35 188.52 37.05 188.87 37.35 189.22 34.83 189.57 35.13 189.92 33.05 190.26 33.5 190.61 33.05 190.96 33.2 191.31 31.87 191.66 32.76 192.01 33.94 192.36 34.39 192.71 34.09 193.06 33.5 193.41 33.5 193.76 32.76 194.11 32.61 194.45 32.31 194.8 31.87 195.15 33.05 195.5 32.46 195.85 33.65 196.2 32.16"/>
      </g>
      <g stroke-width="0.3" fill="#000000" fill-opacity="0.000" class="geometry" stroke-dasharray="none" stroke="#FFFFBF" id="img-0283555b-14">
        <path fill="none" d="M21.98,79.27 L 22.33 74.68 22.68 76.01 23.03 73.79 23.38 75.71 23.73 73.64 24.08 72.31 24.42 72.01 24.77 73.94 25.12 72.6 25.47 73.64 25.82 74.83 26.17 79.12 26.52 77.64 26.87 76.75 27.22 79.12 27.57 79.71 27.92 79.71 28.27 79.57 28.61 80.01 28.96 79.12 29.31 81.49 29.66 81.34 30.01 78.83 30.36 77.2 30.71 74.83 31.06 77.05 31.41 77.34 31.76 73.94 32.11 76.16 32.45 75.42 32.8 75.27 33.15 74.68 33.5 77.05 33.85 72.16 34.2 74.38 34.55 74.97 34.9 73.64 35.25 74.09 35.6 77.94 35.95 80.31 36.3 80.31 36.64 81.79 36.99 81.79 37.34 84.9 37.69 84.75 38.04 84.75 38.39 87.42 38.74 89.05 39.09 88.75 39.44 88.9 39.79 91.12 40.14 89.49 40.49 87.27 40.83 89.49 41.18 88.75 41.53 84.75 41.88 84.75 42.23 86.68 42.58 83.86 42.93 85.19 43.28 84.01 43.63 82.23 43.98 81.2 44.33 82.68 44.67 81.64 45.02 78.97 45.37 77.64 45.72 72.6 46.07 70.97 46.42 70.23 46.77 70.23 47.12 70.09 47.47 70.38 47.82 66.38 48.17 68.75 48.52 67.42 48.86 66.83 49.21 67.72 49.56 70.38 49.91 70.38 50.26 71.12 50.61 72.75 50.96 74.23 51.31 73.05 51.66 73.34 52.01 74.68 52.36 75.27 52.7 77.05 53.05 79.27 53.4 76.75 53.75 79.42 54.1 81.05 54.45 81.2 54.8 82.38 55.15 82.53 55.5 82.68 55.85 86.08 56.2 84.45 56.55 82.38 56.89 81.05 57.24 80.9 57.59 83.71 57.94 82.23 58.29 81.64 58.64 82.82 58.99 79.57 59.34 79.42 59.69 81.05 60.04 82.08 60.39 86.08 60.73 85.94 61.08 87.27 61.43 86.82 61.78 87.71 62.13 88.16 62.48 90.68 62.83 89.49 63.18 88.9 63.53 93.19 63.88 89.64 64.23 87.71 64.58 91.86 64.92 90.23 65.27 89.19 65.62 85.64 65.97 88.16 66.32 86.38 66.67 87.57 67.02 86.08 67.37 82.53 67.72 84.31 68.07 80.45 68.42 85.34 68.77 85.19 69.11 82.82 69.46 83.27 69.81 84.31 70.16 85.49 70.51 84.6 70.86 87.12 71.21 86.23 71.56 86.97 71.91 86.38 72.26 86.82 72.61 85.19 72.95 84.01 73.3 85.94 73.65 80.6 74 80.45 74.35 78.68 74.7 74.38 75.05 76.9 75.4 81.2 75.75 80.75 76.1 75.86 76.45 73.79 76.8 71.27 77.14 70.97 77.49 72.01 77.84 68.46 78.19 66.53 78.54 64.46 78.89 62.38 79.24 65.94 79.59 65.64 79.94 63.57 80.29 62.23 80.64 61.79 80.98 62.38 81.33 63.72 81.68 63.72 82.03 63.86 82.38 62.53 82.73 64.31 83.08 64.75 83.43 66.38 83.78 70.23 84.13 70.09 84.48 67.27 84.83 67.27 85.17 66.23 85.52 65.79 85.87 65.05 86.22 62.09 86.57 63.42 86.92 62.23 87.27 61.79 87.62 61.05 87.97 62.83 88.32 62.23 88.67 62.53 89.02 62.23 89.36 65.35 89.71 64.61 90.06 66.09 90.41 65.64 90.76 64.61 91.11 62.53 91.46 61.05 91.81 64.01 92.16 65.49 92.51 65.35 92.86 62.83 93.2 62.23 93.55 61.79 93.9 59.72 94.25 58.83 94.6 58.98 94.95 59.86 95.3 59.57 95.65 59.27 96 58.53 96.35 62.09 96.7 61.64 97.05 59.12 97.39 56.31 97.74 55.42 98.09 56.9 98.44 58.24 98.79 59.57 99.14 60.16 99.49 57.05 99.84 56.16 100.19 55.87 100.54 55.57 100.89 55.72 101.23 57.2 101.58 55.87 101.93 56.9 102.28 59.72 102.63 62.38 102.98 61.94 103.33 60.9 103.68 61.2 104.03 62.83 104.38 61.94 104.73 59.12 105.08 57.2 105.42 58.83 105.77 58.09 106.12 57.05 106.47 58.09 106.82 59.86 107.17 59.27 107.52 61.35 107.87 60.61 108.22 59.42 108.57 56.75 108.92 56.16 109.26 54.38 109.61 57.05 109.96 54.68 110.31 56.31 110.66 54.53 111.01 54.53 111.36 58.24 111.71 59.12 112.06 60.61 112.41 62.38 112.76 63.27 113.11 60.31 113.45 63.57 113.8 64.9 114.15 69.05 114.5 67.86 114.85 66.38 115.2 68.46 115.55 70.09 115.9 71.42 116.25 69.79 116.6 72.01 116.95 73.34 117.3 73.64 117.64 73.79 117.99 75.71 118.34 77.34 118.69 77.34 119.04 75.86 119.39 77.34 119.74 79.12 120.09 78.97 120.44 78.38 120.79 78.23 121.14 75.27 121.48 76.46 121.83 77.34 122.18 76.46 122.53 73.05 122.88 72.46 123.23 72.6 123.58 72.9 123.93 72.9 124.28 72.9 124.63 72.75 124.98 76.6 125.33 76.75 125.67 80.45 126.02 80.9 126.37 80.16 126.72 82.23 127.07 81.94 127.42 80.9 127.77 80.45 128.12 82.38 128.47 78.83 128.82 79.86 129.17 79.71 129.51 79.86 129.86 78.08 130.21 78.97 130.56 77.94 130.91 78.08 131.26 76.16 131.61 77.49 131.96 78.38 132.31 76.6 132.66 78.53 133.01 78.53 133.36 74.68 133.7 75.57 134.05 77.05 134.4 76.01 134.75 77.64 135.1 78.08 135.45 74.23 135.8 79.57 136.15 80.75 136.5 82.08 136.85 82.97 137.2 85.79 137.55 86.23 137.89 83.71 138.24 86.82 138.59 82.97 138.94 82.38 139.29 81.64 139.64 82.97 139.99 80.31 140.34 78.68 140.69 79.86 141.04 81.49 141.39 81.2 141.73 85.49 142.08 86.23 142.43 83.71 142.78 85.64 143.13 83.71 143.48 83.86 143.83 86.08 144.18 84.9 144.53 85.05 144.88 87.27 145.23 89.79 145.58 90.68 145.92 90.53 146.27 89.49 146.62 87.12 146.97 88.9 147.32 89.34 147.67 89.05 148.02 90.53 148.37 89.49 148.72 92.01 149.07 90.08 149.42 89.34 149.76 88.31 150.11 88.45 150.46 88.45 150.81 89.34 151.16 90.38 151.51 89.05 151.86 89.94 152.21 91.56 152.56 91.86 152.91 90.08 153.26 89.05 153.61 86.53 153.95 85.34 154.3 84.45 154.65 84.16 155 84.9 155.35 83.57 155.7 83.42 156.05 84.45 156.4 82.82 156.75 81.2 157.1 82.68 157.45 83.86 157.79 83.86 158.14 84.6 158.49 82.68 158.84 82.53 159.19 82.38 159.54 81.2 159.89 80.45 160.24 78.68 160.59 78.23 160.94 77.79 161.29 76.9 161.64 76.46 161.98 77.79 162.33 80.31 162.68 81.79 163.03 83.71 163.38 87.71 163.73 85.34 164.08 86.38 164.43 85.05 164.78 84.01 165.13 85.79 165.48 86.68 165.83 90.38 166.17 88.31 166.52 84.9 166.87 84.6 167.22 83.27 167.57 84.6 167.92 83.12 168.27 80.6 168.62 78.08 168.97 76.6 169.32 74.83 169.67 72.75 170.01 72.31 170.36 73.2 170.71 72.31 171.06 69.94 171.41 66.38 171.76 63.86 172.11 61.49 172.46 60.01 172.81 65.49 173.16 68.16 173.51 72.01 173.86 67.86 174.2 69.2 174.55 70.23 174.9 68.31 175.25 65.79 175.6 67.57 175.95 65.35 176.3 68.31 176.65 68.16 177 65.94 177.35 66.09 177.7 66.09 178.04 66.38 178.39 68.6 178.74 68.01 179.09 66.98 179.44 68.01 179.79 67.27 180.14 65.35 180.49 65.2 180.84 66.83 181.19 70.23 181.54 70.23 181.89 70.68 182.23 70.09 182.58 70.53 182.93 68.46 183.28 67.57 183.63 67.42 183.98 67.57 184.33 69.2 184.68 73.49 185.03 71.57 185.38 68.16 185.73 70.38 186.08 69.2 186.42 71.12 186.77 70.97 187.12 72.16 187.47 72.9 187.82 73.79 188.17 76.75 188.52 76.31 188.87 76.9 189.22 76.01 189.57 70.97 189.92 73.94 190.26 73.79 190.61 74.23 190.96 73.34 191.31 71.27 191.66 72.6 192.01 69.2 192.36 70.68 192.71 74.09 193.06 73.2 193.41 71.27 193.76 75.27 194.11 73.94 194.45 72.9 194.8 75.57 195.15 76.16 195.5 76.6 195.85 77.79 196.2 78.83"/>
      </g>
      <g stroke-width="0.3" fill="#000000" fill-opacity="0.000" class="geometry" stroke-dasharray="none" stroke="#FEE08B" id="img-0283555b-15">
        <path fill="none" d="M21.98,79.27 L 22.33 81.94 22.68 85.79 23.03 83.42 23.38 84.75 23.73 86.82 24.08 86.82 24.42 87.71 24.77 87.42 25.12 90.82 25.47 92.45 25.82 88.01 26.17 86.23 26.52 89.05 26.87 87.42 27.22 86.08 27.57 84.31 27.92 83.42 28.27 84.6 28.61 84.01 28.96 82.53 29.31 85.19 29.66 86.53 30.01 89.34 30.36 89.64 30.71 90.68 31.06 89.19 31.41 90.38 31.76 90.68 32.11 88.6 32.45 91.27 32.8 93.93 33.15 93.79 33.5 93.79 33.85 96.01 34.2 94.97 34.55 93.19 34.9 92.6 35.25 93.93 35.6 91.71 35.95 89.64 36.3 90.53 36.64 92.16 36.99 92.31 37.34 92.6 37.69 89.94 38.04 86.08 38.39 85.49 38.74 88.75 39.09 84.16 39.44 84.9 39.79 83.86 40.14 82.68 40.49 82.53 40.83 84.6 41.18 86.38 41.53 88.01 41.88 84.16 42.23 83.71 42.58 86.23 42.93 87.12 43.28 86.97 43.63 87.57 43.98 85.34 44.33 85.19 44.67 89.05 45.02 91.12 45.37 91.71 45.72 93.05 46.07 90.08 46.42 90.97 46.77 90.68 47.12 89.49 47.47 90.97 47.82 92.45 48.17 92.31 48.52 93.79 48.86 93.93 49.21 92.31 49.56 89.94 49.91 88.45 50.26 87.71 50.61 89.49 50.96 93.79 51.31 92.9 51.66 91.12 52.01 92.9 52.36 94.68 52.7 93.79 53.05 92.45 53.4 90.68 53.75 90.68 54.1 89.64 54.45 89.34 54.8 88.01 55.15 90.23 55.5 91.12 55.85 92.01 56.2 89.64 56.55 86.82 56.89 88.45 57.24 89.64 57.59 91.27 57.94 90.68 58.29 92.16 58.64 92.6 58.99 94.23 59.34 96.9 59.69 97.79 60.04 99.12 60.39 98.23 60.73 97.79 61.08 95.12 61.43 96.01 61.78 93.79 62.13 92.16 62.48 92.16 62.83 90.08 63.18 90.08 63.53 87.71 63.88 84.9 64.23 84.16 64.58 81.64 64.92 79.12 65.27 79.71 65.62 80.75 65.97 78.83 66.32 77.2 66.67 78.68 67.02 79.27 67.37 80.9 67.72 82.08 68.07 84.75 68.42 82.68 68.77 78.08 69.11 76.9 69.46 74.23 69.81 71.57 70.16 72.46 70.51 73.34 70.86 70.83 71.21 70.97 71.56 69.49 71.91 69.2 72.26 70.83 72.61 69.64 72.95 69.2 73.3 70.53 73.65 72.9 74 72.6 74.35 70.68 74.7 71.72 75.05 70.68 75.4 69.79 75.75 66.83 76.1 65.79 76.45 67.57 76.8 68.46 77.14 67.42 77.49 69.35 77.84 68.46 78.19 69.2 78.54 68.31 78.89 71.86 79.24 75.71 79.59 74.23 79.94 71.27 80.29 72.01 80.64 72.01 80.98 72.6 81.33 68.9 81.68 64.9 82.03 62.38 82.38 61.49 82.73 58.38 83.08 59.86 83.43 60.16 83.78 61.64 84.13 59.57 84.48 58.98 84.83 59.57 85.17 60.9 85.52 62.98 85.87 63.12 86.22 63.57 86.57 64.9 86.92 63.86 87.27 64.61 87.62 66.53 87.97 65.79 88.32 66.68 88.67 68.46 89.02 68.16 89.36 65.64 89.71 67.72 90.06 65.64 90.41 64.16 90.76 65.35 91.11 65.94 91.46 67.12 91.81 66.98 92.16 68.16 92.51 65.05 92.86 65.94 93.2 65.2 93.55 64.75 93.9 66.53 94.25 64.01 94.6 61.35 94.95 61.49 95.3 61.79 95.65 62.53 96 61.2 96.35 59.27 96.7 59.72 97.05 59.72 97.39 57.2 97.74 59.86 98.09 58.68 98.44 57.94 98.79 58.98 99.14 60.9 99.49 58.09 99.84 60.61 100.19 61.2 100.54 62.68 100.89 63.42 101.23 65.79 101.58 67.57 101.93 68.75 102.28 68.31 102.63 69.2 102.98 70.09 103.33 72.31 103.68 76.16 104.03 78.23 104.38 77.64 104.73 79.57 105.08 80.16 105.42 80.45 105.77 79.71 106.12 78.53 106.47 79.12 106.82 80.31 107.17 81.49 107.52 81.2 107.87 81.2 108.22 79.27 108.57 80.16 108.92 81.64 109.26 82.23 109.61 80.9 109.96 79.27 110.31 80.45 110.66 78.38 111.01 78.23 111.36 81.79 111.71 80.9 112.06 77.64 112.41 81.64 112.76 81.64 113.11 82.53 113.45 84.16 113.8 87.12 114.15 90.97 114.5 90.08 114.85 88.01 115.2 89.34 115.55 89.49 115.9 86.53 116.25 89.19 116.6 89.19 116.95 86.68 117.3 87.42 117.64 85.34 117.99 88.45 118.34 85.94 118.69 86.53 119.04 87.12 119.39 84.75 119.74 85.79 120.09 87.42 120.44 90.53 120.79 87.86 121.14 89.19 121.48 90.97 121.83 94.08 122.18 94.08 122.53 94.97 122.88 94.38 123.23 91.71 123.58 94.23 123.93 95.86 124.28 94.23 124.63 90.08 124.98 87.27 125.33 89.94 125.67 90.38 126.02 91.42 126.37 93.49 126.72 93.05 127.07 92.16 127.42 95.42 127.77 93.05 128.12 91.86 128.47 91.27 128.82 91.56 129.17 93.79 129.51 94.08 129.86 94.97 130.21 94.53 130.56 95.71 130.91 95.71 131.26 95.42 131.61 97.79 131.96 98.97 132.31 101.34 132.66 103.12 133.01 104.9 133.36 107.12 133.7 107.56 134.05 107.56 134.4 106.23 134.75 104.9 135.1 105.64 135.45 103.41 135.8 105.34 136.15 106.82 136.5 106.08 136.85 108.15 137.2 109.34 137.55 109.78 137.89 110.97 138.24 111.41 138.59 111.41 138.94 107.41 139.29 108.01 139.64 107.27 139.99 106.08 140.34 106.23 140.69 107.56 141.04 112.6 141.39 114.08 141.73 112.45 142.08 114.08 142.43 112.6 142.78 110.82 143.13 111.56 143.48 114.38 143.83 112.6 144.18 110.67 144.53 110.97 144.88 111.12 145.23 111.86 145.58 108.6 145.92 107.12 146.27 104.75 146.62 105.34 146.97 106.97 147.32 108.45 147.67 108.01 148.02 108.45 148.37 106.53 148.72 105.78 149.07 106.23 149.42 103.86 149.76 102.23 150.11 103.71 150.46 103.86 150.81 101.79 151.16 100.9 151.51 101.34 151.86 104.9 152.21 105.04 152.56 103.86 152.91 102.38 153.26 105.04 153.61 105.19 153.95 102.53 154.3 102.38 154.65 99.56 155 101.04 155.35 97.64 155.7 97.19 156.05 100.3 156.4 97.19 156.75 96.75 157.1 96.9 157.45 99.56 157.79 101.34 158.14 103.41 158.49 105.19 158.84 106.38 159.19 107.41 159.54 106.97 159.89 106.53 160.24 106.23 160.59 105.78 160.94 106.38 161.29 109.04 161.64 108.75 161.98 109.49 162.33 109.04 162.68 109.04 163.03 109.93 163.38 110.38 163.73 110.53 164.08 110.82 164.43 110.08 164.78 109.93 165.13 109.49 165.48 105.93 165.83 109.19 166.17 108.15 166.52 106.53 166.87 106.53 167.22 107.27 167.57 109.78 167.92 108.9 168.27 105.78 168.62 107.86 168.97 109.49 169.32 106.97 169.67 106.08 170.01 107.71 170.36 105.78 170.71 105.04 171.06 105.19 171.41 105.19 171.76 105.78 172.11 103.71 172.46 105.04 172.81 103.41 173.16 106.67 173.51 106.23 173.86 109.49 174.2 106.97 174.55 107.12 174.9 104.9 175.25 107.56 175.6 110.08 175.95 110.38 176.3 109.78 176.65 109.04 177 108.15 177.35 109.64 177.7 108.01 178.04 110.97 178.39 112.01 178.74 109.78 179.09 108.75 179.44 110.08 179.79 107.12 180.14 106.53 180.49 107.12 180.84 107.41 181.19 107.56 181.54 108.9 181.89 105.64 182.23 106.67 182.58 108.15 182.93 107.56 183.28 105.34 183.63 106.23 183.98 107.27 184.33 108.9 184.68 111.41 185.03 110.53 185.38 110.97 185.73 109.04 186.08 110.53 186.42 112.01 186.77 114.52 187.12 112.15 187.47 110.67 187.82 109.49 188.17 107.12 188.52 108.45 188.87 108.45 189.22 109.04 189.57 112.45 189.92 110.97 190.26 111.27 190.61 109.93 190.96 110.08 191.31 111.12 191.66 111.27 192.01 111.12 192.36 111.86 192.71 110.38 193.06 111.56 193.41 108.3 193.76 108.01 194.11 107.41 194.45 105.19 194.8 107.71 195.15 108.6 195.5 109.19 195.85 110.67 196.2 111.56"/>
      </g>
      <g stroke-width="0.3" fill="#000000" fill-opacity="0.000" class="geometry" stroke-dasharray="none" stroke="#FDAE61" id="img-0283555b-16">
        <path fill="none" d="M21.98,79.27 L 22.33 81.05 22.68 79.12 23.03 76.31 23.38 76.16 23.73 76.46 24.08 74.83 24.42 75.57 24.77 76.01 25.12 78.53 25.47 76.46 25.82 78.53 26.17 80.75 26.52 81.49 26.87 82.68 27.22 84.45 27.57 86.38 27.92 86.97 28.27 86.08 28.61 84.31 28.96 82.38 29.31 79.57 29.66 78.38 30.01 77.94 30.36 79.12 30.71 80.01 31.06 80.9 31.41 82.23 31.76 79.86 32.11 81.05 32.45 82.38 32.8 83.12 33.15 80.6 33.5 83.27 33.85 84.45 34.2 86.38 34.55 86.38 34.9 86.23 35.25 85.34 35.6 83.86 35.95 81.2 36.3 80.16 36.64 75.71 36.99 74.83 37.34 75.42 37.69 76.16 38.04 80.16 38.39 78.83 38.74 80.45 39.09 78.68 39.44 78.08 39.79 77.49 40.14 78.38 40.49 78.68 40.83 81.34 41.18 79.57 41.53 80.45 41.88 81.64 42.23 85.05 42.58 85.79 42.93 87.57 43.28 91.27 43.63 89.49 43.98 91.42 44.33 91.56 44.67 92.6 45.02 91.71 45.37 92.01 45.72 89.79 46.07 89.19 46.42 90.82 46.77 85.94 47.12 85.05 47.47 86.97 47.82 89.34 48.17 88.6 48.52 91.12 48.86 92.75 49.21 94.23 49.56 93.64 49.91 90.97 50.26 90.53 50.61 90.23 50.96 89.34 51.31 91.56 51.66 95.56 52.01 93.79 52.36 92.01 52.7 90.53 53.05 92.6 53.4 93.64 53.75 93.19 54.1 92.01 54.45 90.82 54.8 89.79 55.15 90.53 55.5 88.16 55.85 90.23 56.2 91.42 56.55 92.45 56.89 93.34 57.24 92.6 57.59 93.34 57.94 93.49 58.29 93.05 58.64 95.56 58.99 92.9 59.34 94.38 59.69 94.08 60.04 94.38 60.39 95.12 60.73 97.05 61.08 98.38 61.43 96.9 61.78 93.79 62.13 91.12 62.48 89.49 62.83 90.23 63.18 88.16 63.53 89.49 63.88 89.79 64.23 88.16 64.58 88.75 64.92 93.05 65.27 92.75 65.62 92.75 65.97 93.49 66.32 97.19 66.67 94.82 67.02 96.6 67.37 96.45 67.72 94.08 68.07 93.79 68.42 92.16 68.77 95.27 69.11 94.82 69.46 94.53 69.81 97.64 70.16 97.34 70.51 97.49 70.86 96.01 71.21 94.97 71.56 92.6 71.91 92.31 72.26 92.45 72.61 92.31 72.95 92.9 73.3 89.49 73.65 88.01 74 90.38 74.35 89.34 74.7 88.45 75.05 90.38 75.4 89.94 75.75 90.68 76.1 94.38 76.45 96.45 76.8 96.16 77.14 94.68 77.49 96.01 77.84 94.97 78.19 97.79 78.54 94.53 78.89 93.49 79.24 91.27 79.59 89.79 79.94 92.16 80.29 89.19 80.64 90.68 80.98 90.97 81.33 90.23 81.68 92.45 82.03 92.6 82.38 90.97 82.73 91.12 83.08 90.82 83.43 90.38 83.78 91.71 84.13 93.93 84.48 94.08 84.83 99.12 85.17 98.38 85.52 99.27 85.87 100.16 86.22 100.45 86.57 98.08 86.92 98.08 87.27 98.97 87.62 98.38 87.97 100.3 88.32 97.93 88.67 100.3 89.02 100.3 89.36 100.6 89.71 97.49 90.06 97.34 90.41 98.38 90.76 99.86 91.11 101.04 91.46 98.53 91.81 98.38 92.16 101.49 92.51 98.97 92.86 95.42 93.2 95.27 93.55 93.79 93.9 95.27 94.25 97.93 94.6 99.12 94.95 100.9 95.3 100.9 95.65 96.6 96 93.49 96.35 94.08 96.7 98.97 97.05 101.64 97.39 101.79 97.74 102.08 98.09 103.12 98.44 104.9 98.79 103.12 99.14 102.38 99.49 104.01 99.84 107.27 100.19 107.86 100.54 108.3 100.89 108.9 101.23 110.97 101.58 112.6 101.93 117.19 102.28 114.23 102.63 114.23 102.98 114.82 103.33 114.52 103.68 113.64 104.03 113.78 104.38 113.04 104.73 112.75 105.08 114.38 105.42 115.71 105.77 116.01 106.12 113.34 106.47 114.08 106.82 110.97 107.17 113.04 107.52 113.64 107.87 114.82 108.22 115.71 108.57 116.3 108.92 116.15 109.26 118.52 109.61 118.08 109.96 118.08 110.31 117.49 110.66 116.45 111.01 117.78 111.36 118.52 111.71 118.67 112.06 117.93 112.41 118.38 112.76 116.45 113.11 118.52 113.45 114.67 113.8 114.23 114.15 113.49 114.5 112.9 114.85 112.9 115.2 114.23 115.55 113.04 115.9 115.71 116.25 116.3 116.6 115.12 116.95 114.52 117.3 116.3 117.64 114.82 117.99 115.56 118.34 114.23 118.69 112.75 119.04 113.93 119.39 113.19 119.74 111.71 120.09 113.78 120.44 114.08 120.79 111.71 121.14 110.38 121.48 109.49 121.83 110.53 122.18 109.49 122.53 107.56 122.88 108.01 123.23 109.49 123.58 108.6 123.93 112.75 124.28 110.08 124.63 109.04 124.98 107.71 125.33 106.97 125.67 105.04 126.02 102.53 126.37 104.16 126.72 106.82 127.07 107.41 127.42 109.34 127.77 110.08 128.12 108.75 128.47 109.93 128.82 111.86 129.17 112.3 129.51 111.41 129.86 114.38 130.21 112.45 130.56 113.19 130.91 112.15 131.26 110.67 131.61 108.3 131.96 108.9 132.31 110.23 132.66 110.08 133.01 111.27 133.36 110.97 133.7 114.52 134.05 116.89 134.4 117.78 134.75 117.64 135.1 117.04 135.45 118.67 135.8 118.82 136.15 117.93 136.5 118.97 136.85 118.82 137.2 118.67 137.55 120.15 137.89 120.75 138.24 120.89 138.59 121.93 138.94 122.82 139.29 123.12 139.64 124.15 139.99 125.78 140.34 125.78 140.69 125.34 141.04 126.37 141.39 126.52 141.73 127.41 142.08 127.56 142.43 127.86 142.78 128.45 143.13 128.45 143.48 128.74 143.83 129.04 144.18 128.89 144.53 129.49 144.88 129.19 145.23 129.63 145.58 129.78 145.92 129.63 146.27 129.78 146.62 129.93 146.97 129.93 147.32 130.08 147.67 129.49 148.02 129.49 148.37 129.19 148.72 130.52 149.07 130.97 149.42 130.97 149.76 130.82 150.11 130.82 150.46 130.67 150.81 130.52 151.16 130.08 151.51 129.78 151.86 130.23 152.21 130.23 152.56 130.82 152.91 130.37 153.26 130.37 153.61 129.93 153.95 128.74 154.3 129.78 154.65 129.63 155 129.93 155.35 130.08 155.7 130.08 156.05 129.63 156.4 129.63 156.75 128.6 157.1 129.04 157.45 129.63 157.79 129.49 158.14 129.49 158.49 129.63 158.84 129.93 159.19 129.63 159.54 129.78 159.89 129.19 160.24 129.93 160.59 129.49 160.94 129.49 161.29 129.19 161.64 128.74 161.98 129.34 162.33 129.34 162.68 130.08 163.03 130.23 163.38 130.67 163.73 130.52 164.08 130.37 164.43 129.78 164.78 130.23 165.13 129.34 165.48 128.6 165.83 128.89 166.17 127.86 166.52 127.86 166.87 128.6 167.22 127.86 167.57 128 167.92 128 168.27 127.71 168.62 126.67 168.97 127.71 169.32 127.56 169.67 128 170.01 128.15 170.36 128.6 170.71 128.89 171.06 128.74 171.41 128.45 171.76 129.04 172.11 129.49 172.46 129.34 172.81 129.78 173.16 130.08 173.51 129.93 173.86 130.08 174.2 129.19 174.55 129.63 174.9 129.78 175.25 130.37 175.6 130.08 175.95 129.49 176.3 129.78 176.65 129.49 177 129.49 177.35 129.49 177.7 128.6 178.04 129.04 178.39 129.19 178.74 129.78 179.09 129.49 179.44 129.19 179.79 129.19 180.14 129.49 180.49 129.63 180.84 129.49 181.19 130.08 181.54 130.23 181.89 129.34 182.23 129.49 182.58 128.89 182.93 129.04 183.28 129.34 183.63 128.45 183.98 127.26 184.33 126.67 184.68 126.52 185.03 126.23 185.38 127.86 185.73 128.15 186.08 128.45 186.42 128.89 186.77 128.6 187.12 128.74 187.47 129.63 187.82 130.08 188.17 130.23 188.52 130.23 188.87 130.23 189.22 130.67 189.57 130.67 189.92 130.67 190.26 130.82 190.61 130.97 190.96 130.97 191.31 130.97 191.66 131.11"/>
      </g>
      <g stroke-width="0.3" fill="#000000" fill-opacity="0.000" class="geometry" stroke-dasharray="none" stroke="#F46D43" id="img-0283555b-17">
        <path fill="none" d="M21.98,79.27 L 22.33 79.86 22.68 76.16 23.03 78.38 23.38 79.71 23.73 76.9 24.08 80.01 24.42 80.9 24.77 80.9 25.12 81.64 25.47 85.34 25.82 84.9 26.17 84.75 26.52 83.42 26.87 85.49 27.22 83.86 27.57 86.08 27.92 88.16 28.27 87.27 28.61 89.64 28.96 89.05 29.31 90.97 29.66 89.94 30.01 92.16 30.36 91.56 30.71 90.97 31.06 87.27 31.41 86.97 31.76 87.57 32.11 85.64 32.45 86.82 32.8 87.27 33.15 88.75 33.5 85.49 33.85 85.34 34.2 84.45 34.55 84.45 34.9 84.6 35.25 88.01 35.6 86.53 35.95 84.45 36.3 85.79 36.64 86.82 36.99 85.19 37.34 83.57 37.69 84.9 38.04 84.75 38.39 81.94 38.74 81.64 39.09 81.05 39.44 79.86 39.79 77.2 40.14 79.71 40.49 80.9 40.83 81.64 41.18 81.05 41.53 82.53 41.88 82.23 42.23 80.6 42.58 81.64 42.93 81.94 43.28 80.9 43.63 80.9 43.98 79.57 44.33 80.6 44.67 81.2 45.02 79.42 45.37 79.42 45.72 79.57 46.07 81.94 46.42 80.6 46.77 80.01 47.12 77.2 47.47 75.86 47.82 78.68 48.17 76.6 48.52 77.2 48.86 77.64 49.21 82.82 49.56 83.57 49.91 82.68 50.26 83.71 50.61 80.45 50.96 79.27 51.31 84.01 51.66 84.16 52.01 82.38 52.36 86.97 52.7 86.38 53.05 83.12 53.4 82.38 53.75 86.23 54.1 84.9 54.45 83.86 54.8 84.31 55.15 82.38 55.5 82.38 55.85 80.9 56.2 78.53 56.55 75.57 56.89 75.27 57.24 74.38 57.59 76.31 57.94 76.16 58.29 77.49 58.64 78.68 58.99 77.64 59.34 76.16 59.69 77.79 60.04 78.23 60.39 77.49 60.73 79.71 61.08 83.57 61.43 82.82 61.78 82.23 62.13 79.86 62.48 76.9 62.83 76.16 63.18 75.42 63.53 73.79 63.88 75.27 64.23 69.49 64.58 71.57 64.92 69.05 65.27 70.83 65.62 70.68 65.97 76.75 66.32 74.53 66.67 75.42 67.02 76.46 67.37 75.27 67.72 76.01 68.07 72.31 68.42 73.79 68.77 73.34 69.11 76.75 69.46 77.79 69.81 78.53 70.16 74.97 70.51 74.97 70.86 73.34 71.21 76.6 71.56 77.64 71.91 79.12 72.26 78.38 72.61 78.23 72.95 74.38 73.3 70.38 73.65 71.42 74 69.79 74.35 69.64 74.7 66.68 75.05 65.05 75.4 63.86 75.75 63.27 76.1 63.86 76.45 64.9 76.8 65.05 77.14 68.01 77.49 71.57 77.84 70.53 78.19 70.38 78.54 68.31 78.89 69.05 79.24 67.86 79.59 69.05 79.94 70.38 80.29 69.2 80.64 68.31 80.98 68.9 81.33 69.64 81.68 71.27 82.03 70.97 82.38 68.75 82.73 68.9 83.08 68.9 83.43 66.83 83.78 66.83 84.13 65.64 84.48 65.35 84.83 68.16 85.17 68.01 85.52 65.49 85.87 66.23 86.22 70.09 86.57 76.01 86.92 74.97 87.27 74.53 87.62 76.31 87.97 71.86 88.32 68.9 88.67 66.53 89.02 65.05 89.36 64.61 89.71 64.75 90.06 64.46 90.41 64.46 90.76 62.68 91.11 59.72 91.46 56.9 91.81 57.05 92.16 55.72 92.51 56.01 92.86 57.79 93.2 56.75 93.55 54.38 93.9 54.38 94.25 53.5 94.6 53.79 94.95 55.87 95.3 56.16 95.65 56.46 96 51.87 96.35 48.46 96.7 46.53 97.05 45.64 97.39 44.61 97.74 46.39 98.09 46.24 98.44 45.64 98.79 45.64 99.14 44.61 99.49 43.57 99.84 44.31 100.19 42.98 100.54 44.02 100.89 44.46 101.23 42.39 101.58 40.31 101.93 40.31 102.28 41.5 102.63 42.53 102.98 40.9 103.33 40.61 103.68 40.16 104.03 39.13 104.38 36.9 104.73 35.42 105.08 33.2 105.42 33.94 105.77 33.35 106.12 32.31 106.47 33.05 106.82 33.35 107.17 34.39 107.52 32.76 107.87 31.72 108.22 31.72 108.57 31.28 108.92 32.46 109.26 33.5 109.61 33.65 109.96 33.5 110.31 32.61 110.66 32.46 111.01 33.5 111.36 33.65 111.71 34.83 112.06 35.28 112.41 35.28 112.76 34.39 113.11 32.61 113.45 33.94 113.8 34.39 114.15 34.53 114.5 35.57 114.85 35.13 115.2 35.42 115.55 35.13 115.9 34.98 116.25 33.05 116.6 31.13 116.95 29.5 117.3 29.5 117.64 29.79 117.99 29.94 118.34 29.05 118.69 28.61 119.04 28.61 119.39 28.91 119.74 28.61 120.09 28.46 120.44 28.46 120.79 28.91 121.14 28.17 121.48 28.17 121.83 27.57 122.18 27.57 122.53 27.42"/>
      </g>
      <g stroke-width="0.3" fill="#000000" fill-opacity="0.000" class="geometry" stroke-dasharray="none" stroke="#D53E4F" id="img-0283555b-18">
        <path fill="none" d="M21.98,79.27 L 22.33 80.16 22.68 80.16 23.03 79.12 23.38 78.68 23.73 78.08 24.08 77.2 24.42 79.86 24.77 81.94 25.12 83.27 25.47 83.42 25.82 83.86 26.17 82.68 26.52 81.64 26.87 84.01 27.22 87.27 27.57 88.01 27.92 85.94 28.27 85.94 28.61 86.08 28.96 83.12 29.31 86.82 29.66 86.38 30.01 85.79 30.36 84.16 30.71 84.16 31.06 82.53 31.41 81.49 31.76 81.2 32.11 79.71 32.45 78.97 32.8 82.82 33.15 85.64 33.5 88.45 33.85 87.57 34.2 90.97 34.55 94.68 34.9 97.34 35.25 98.82 35.6 97.64 35.95 96.9 36.3 98.82 36.64 101.49 36.99 103.86 37.34 103.12 37.69 104.9 38.04 105.04 38.39 106.23 38.74 104.45 39.09 102.97 39.44 101.04 39.79 97.64 40.14 93.34 40.49 98.08 40.83 100.9 41.18 101.49 41.53 100.45 41.88 100.9 42.23 104.3 42.58 105.64 42.93 105.19 43.28 107.71 43.63 107.27 43.98 107.41 44.33 107.56 44.67 105.49 45.02 103.86 45.37 102.38 45.72 103.56 46.07 100.9 46.42 101.34 46.77 99.42 47.12 97.79 47.47 93.34 47.82 94.23 48.17 95.12 48.52 96.16 48.86 96.6 49.21 99.42 49.56 98.67 49.91 100.01 50.26 97.64 50.61 95.56 50.96 96.01 51.31 97.93 51.66 95.56 52.01 95.27 52.36 97.64 52.7 96.9 53.05 97.05 53.4 96.01 53.75 97.19 54.1 98.38 54.45 102.53 54.8 103.27 55.15 105.49 55.5 104.75 55.85 102.08 56.2 99.71 56.55 100.3 56.89 99.71 57.24 97.93 57.59 99.71 57.94 96.6 58.29 96.01 58.64 96.45 58.99 96.3 59.34 98.23 59.69 95.86 60.04 93.79 60.39 90.38 60.73 89.34 61.08 84.31 61.43 82.82 61.78 83.12 62.13 81.05 62.48 78.83 62.83 80.9 63.18 79.42 63.53 75.57 63.88 74.68 64.23 72.75 64.58 71.72 64.92 74.38 65.27 77.05 65.62 77.94 65.97 74.97 66.32 76.31 66.67 76.31 67.02 77.79 67.37 80.01 67.72 78.08 68.07 74.68 68.42 73.34 68.77 73.49 69.11 74.09 69.46 75.27 69.81 73.49 70.16 71.72 70.51 70.38 70.86 68.6 71.21 71.72 71.56 70.68 71.91 68.75 72.26 68.16 72.61 73.64 72.95 72.46 73.3 74.38 73.65 73.64 74 74.09 74.35 72.46 74.7 73.34 75.05 69.64 75.4 72.01 75.75 75.42 76.1 79.12 76.45 82.38 76.8 82.68 77.14 87.27 77.49 88.16 77.84 89.34 78.19 90.68 78.54 88.16 78.89 86.23 79.24 87.86 79.59 88.01 79.94 89.64 80.29 88.45 80.64 90.68 80.98 89.94 81.33 90.68 81.68 90.08 82.03 87.42 82.38 85.19 82.73 88.16 83.08 89.49 83.43 91.42 83.78 90.68 84.13 90.23 84.48 94.38 84.83 91.71 85.17 92.75 85.52 93.93 85.87 94.68 86.22 93.34 86.57 98.23 86.92 99.12 87.27 96.6 87.62 97.93 87.97 97.93 88.32 101.04 88.67 100.6 89.02 100.9 89.36 101.19 89.71 102.67 90.06 101.93 90.41 99.56 90.76 100.6 91.11 101.19 91.46 98.67 91.81 97.49 92.16 98.38 92.51 96.3 92.86 92.9 93.2 92.45 93.55 95.71 93.9 97.64 94.25 97.34 94.6 100.16 94.95 97.64 95.3 97.79 95.65 95.56 96 95.56 96.35 98.08 96.7 98.23 97.05 98.53 97.39 97.64 97.74 96.45 98.09 97.64 98.44 97.64 98.79 96.45 99.14 93.49 99.49 95.42 99.84 97.93 100.19 97.05 100.54 96.9 100.89 94.53 101.23 89.05 101.58 90.38 101.93 88.16 102.28 85.79 102.63 86.53 102.98 81.79 103.33 79.57 103.68 82.68 104.03 82.23 104.38 85.05 104.73 85.19 105.08 89.05 105.42 87.71 105.77 84.45 106.12 84.16 106.47 83.12 106.82 84.31 107.17 86.97 107.52 89.94 107.87 90.08 108.22 91.12 108.57 96.9 108.92 97.64 109.26 100.75 109.61 100.9 109.96 97.93 110.31 101.79 110.66 102.08 111.01 102.82 111.36 101.19 111.71 99.56 112.06 98.82 112.41 96.45 112.76 94.53 113.11 98.97 113.45 98.38 113.8 96.01 114.15 98.08 114.5 97.34 114.85 95.42 115.2 94.38 115.55 96.45 115.9 98.97 116.25 101.19 116.6 100.3 116.95 99.86 117.3 100.01 117.64 96.45 117.99 97.05 118.34 96.75 118.69 96.45 119.04 99.42 119.39 97.79 119.74 96.45 120.09 94.38 120.44 93.05 120.79 90.08 121.14 91.12 121.48 89.64 121.83 90.53 122.18 92.75 122.53 92.6 122.88 94.08 123.23 89.79 123.58 90.38 123.93 92.31 124.28 93.49 124.63 95.42 124.98 94.97 125.33 90.23 125.67 90.97 126.02 93.05 126.37 93.93 126.72 93.34 127.07 92.45 127.42 91.27 127.77 91.42 128.12 94.53 128.47 97.93 128.82 93.93 129.17 95.12 129.51 95.71 129.86 94.23 130.21 94.82 130.56 96.16 130.91 93.34 131.26 95.42 131.61 94.23 131.96 94.08 132.31 94.53 132.66 96.3 133.01 97.79 133.36 94.38 133.7 92.16 134.05 90.23 134.4 91.56 134.75 92.01 135.1 90.97 135.45 90.82 135.8 92.01 136.15 94.97 136.5 96.45 136.85 96.01 137.2 95.12 137.55 94.53 137.89 97.64 138.24 97.05 138.59 95.71 138.94 97.49 139.29 95.56 139.64 93.79 139.99 94.68 140.34 97.64 140.69 97.49 141.04 99.71 141.39 96.75 141.73 97.64 142.08 96.6 142.43 93.93 142.78 94.23 143.13 96.3 143.48 97.64 143.83 97.34 144.18 94.68 144.53 95.42 144.88 96.16 145.23 96.6 145.58 93.19 145.92 95.27 146.27 94.23 146.62 92.6 146.97 89.64 147.32 88.6 147.67 88.6 148.02 89.05 148.37 90.97 148.72 96.3 149.07 95.27 149.42 92.01 149.76 90.38 150.11 91.71 150.46 93.64 150.81 92.9 151.16 92.45 151.51 93.05 151.86 93.64 152.21 90.68 152.56 88.9 152.91 90.08 153.26 91.42 153.61 94.38 153.95 95.42 154.3 94.23 154.65 95.56 155 94.97 155.35 95.71 155.7 95.86 156.05 97.49 156.4 93.93 156.75 92.75 157.1 89.64 157.45 87.71 157.79 86.53 158.14 87.57 158.49 86.97 158.84 87.12 159.19 88.16 159.54 87.42 159.89 86.82 160.24 85.05 160.59 86.08 160.94 85.64 161.29 87.86 161.64 85.79 161.98 83.71 162.33 82.82 162.68 84.6 163.03 84.45 163.38 84.31 163.73 88.45 164.08 92.9 164.43 94.53 164.78 93.79 165.13 93.93 165.48 90.38 165.83 91.42 166.17 93.49 166.52 93.79 166.87 92.9 167.22 92.6 167.57 93.79 167.92 92.45 168.27 91.12 168.62 90.08 168.97 90.68 169.32 92.45 169.67 92.75 170.01 90.97 170.36 90.53 170.71 89.19 171.06 89.19 171.41 88.6 171.76 89.64 172.11 86.38 172.46 88.6 172.81 89.05 173.16 87.71 173.51 87.42 173.86 89.94 174.2 85.79 174.55 85.49 174.9 85.64 175.25 85.34 175.6 84.31 175.95 83.12 176.3 83.71 176.65 80.31 177 80.16 177.35 80.16 177.7 80.75 178.04 80.9 178.39 83.86 178.74 83.27 179.09 80.9 179.44 82.82 179.79 82.08 180.14 81.34 180.49 81.49 180.84 77.64 181.19 77.94 181.54 72.75 181.89 71.72 182.23 69.49 182.58 67.72 182.93 70.38 183.28 70.53 183.63 70.53 183.98 70.38 184.33 68.9 184.68 68.16 185.03 68.31 185.38 65.49 185.73 64.75 186.08 66.09 186.42 66.83 186.77 65.79 187.12 64.31 187.47 64.61 187.82 67.57 188.17 70.97 188.52 68.46 188.87 69.49 189.22 67.12 189.57 65.35 189.92 63.86 190.26 59.86 190.61 60.46 190.96 61.94 191.31 62.83 191.66 60.75 192.01 61.79 192.36 61.05 192.71 61.94 193.06 62.23 193.41 59.57 193.76 59.27 194.11 61.49 194.45 64.61 194.8 61.35 195.15 61.2 195.5 62.09 195.85 63.27 196.2 64.01"/>
      </g>
      <g stroke-width="0.3" fill="#000000" fill-opacity="0.000" class="geometry" stroke-dasharray="none" stroke="#9E0142" id="img-0283555b-19">
        <path fill="none" d="M21.98,79.27 L 22.33 78.08 22.68 76.46 23.03 77.34 23.38 79.57 23.73 82.23 24.08 84.31 24.42 85.94 24.77 83.86 25.12 83.71 25.47 84.31 25.82 86.38 26.17 88.45 26.52 86.08 26.87 85.79 27.22 85.94 27.57 87.86 27.92 89.64 28.27 89.49 28.61 86.38 28.96 82.08 29.31 83.71 29.66 83.71 30.01 84.16 30.36 85.94 30.71 87.27 31.06 83.12 31.41 81.49 31.76 80.6 32.11 83.12 32.45 80.6 32.8 80.16 33.15 79.57 33.5 78.08 33.85 76.75 34.2 80.16 34.55 79.57 34.9 76.6 35.25 76.6 35.6 75.57 35.95 75.42 36.3 73.94 36.64 76.31 36.99 78.68 37.34 80.01 37.69 78.38 38.04 81.34 38.39 83.12 38.74 82.38 39.09 80.75 39.44 82.97 39.79 80.9 40.14 83.71 40.49 84.31 40.83 84.9 41.18 85.79 41.53 86.97 41.88 84.45 42.23 81.64 42.58 80.31 42.93 82.38 43.28 83.57 43.63 86.53 43.98 88.01 44.33 88.45 44.67 86.68 45.02 85.64 45.37 84.16 45.72 84.9 46.07 88.16 46.42 88.75 46.77 86.38 47.12 84.45 47.47 84.45 47.82 82.68 48.17 84.9 48.52 87.42 48.86 83.42 49.21 88.45 49.56 89.79 49.91 89.49 50.26 91.71 50.61 91.71 50.96 89.05 51.31 90.38 51.66 89.19 52.01 88.9 52.36 88.45 52.7 89.49 53.05 89.94 53.4 88.6 53.75 86.53 54.1 85.64 54.45 87.71 54.8 85.49 55.15 87.71 55.5 84.75 55.85 88.9 56.2 89.05 56.55 90.08 56.89 89.79 57.24 89.19 57.59 88.31 57.94 88.9 58.29 88.31 58.64 86.38 58.99 83.27 59.34 81.2 59.69 82.08 60.04 77.64 60.39 76.31 60.73 75.42 61.08 75.12 61.43 76.75 61.78 78.08 62.13 77.2 62.48 77.2 62.83 75.71 63.18 73.05 63.53 70.83 63.88 68.9 64.23 66.83 64.58 67.27 64.92 69.49 65.27 65.94 65.62 66.68 65.97 68.16 66.32 68.31 66.67 66.09 67.02 64.9 67.37 66.53 67.72 68.16 68.07 67.86 68.42 67.72 68.77 69.05 69.11 70.09 69.46 69.79 69.81 68.46 70.16 68.01 70.51 70.97 70.86 70.38 71.21 71.57 71.56 71.12 71.91 72.46 72.26 73.34 72.61 71.72 72.95 70.97 73.3 74.53 73.65 74.09 74 73.64 74.35 76.31 74.7 73.2 75.05 74.38 75.4 74.09 75.75 73.05 76.1 72.9 76.45 73.79 76.8 71.42 77.14 74.68 77.49 74.68 77.84 73.2 78.19 71.86 78.54 72.01 78.89 73.79 79.24 70.68 79.59 73.2 79.94 72.31 80.29 73.49 80.64 74.68 80.98 74.83 81.33 73.2 81.68 73.2 82.03 75.57 82.38 73.49 82.73 71.72 83.08 68.31 83.43 72.01 83.78 73.34 84.13 73.49 84.48 74.38 84.83 74.83 85.17 75.86 85.52 75.57 85.87 73.94 86.22 73.49 86.57 73.64 86.92 72.75 87.27 72.75 87.62 69.79 87.97 67.57 88.32 68.31 88.67 68.01 89.02 69.79 89.36 68.9 89.71 69.05 90.06 70.38 90.41 73.94 90.76 70.23 91.11 69.05 91.46 68.01 91.81 66.38 92.16 66.09 92.51 64.61 92.86 61.79 93.2 61.35 93.55 60.31 93.9 60.75 94.25 59.57 94.6 59.57 94.95 57.49 95.3 53.2 95.65 53.94 96 54.68 96.35 51.57 96.7 48.31 97.05 47.27 97.39 48.16 97.74 50.53 98.09 50.09 98.44 49.05 98.79 48.9 99.14 48.9 99.49 52.61 99.84 53.94 100.19 51.57 100.54 49.64 100.89 52.31 101.23 50.24 101.58 49.5 101.93 51.13 102.28 51.57 102.63 49.05 102.98 51.42 103.33 51.87 103.68 52.16 104.03 51.57 104.38 49.64 104.73 52.01 105.08 51.72 105.42 53.64 105.77 54.24 106.12 52.16 106.47 53.79 106.82 55.87 107.17 55.27 107.52 53.5 107.87 50.83 108.22 50.09 108.57 49.2 108.92 49.5 109.26 51.72 109.61 53.64 109.96 53.94 110.31 51.72 110.66 51.72 111.01 52.46 111.36 51.13 111.71 51.42 112.06 51.87 112.41 49.5 112.76 45.79 113.11 46.24 113.45 41.79 113.8 43.87 114.15 42.83 114.5 41.94 114.85 41.94 115.2 40.61 115.55 40.16 115.9 39.72 116.25 40.9 116.6 41.05 116.95 44.02 117.3 44.16 117.64 44.61 117.99 45.5 118.34 45.35 118.69 45.35 119.04 40.76 119.39 41.94 119.74 42.24 120.09 43.27 120.44 42.24 120.79 40.9 121.14 42.39 121.48 40.31 121.83 41.64 122.18 42.53 122.53 43.57 122.88 46.09 123.23 46.24 123.58 45.05 123.93 46.68 124.28 46.09 124.63 45.64 124.98 43.72 125.33 42.09 125.67 43.87 126.02 43.57 126.37 43.42 126.72 41.79 127.07 42.68 127.42 41.64 127.77 41.35 128.12 39.57 128.47 38.09 128.82 38.53 129.17 39.27 129.51 37.35 129.86 36.76 130.21 36.16 130.56 35.87 130.91 35.87 131.26 36.61 131.61 34.98 131.96 34.39 132.31 35.72 132.66 35.42 133.01 33.2 133.36 33.05 133.7 33.35 134.05 32.46 134.4 32.02 134.75 31.57 135.1 30.54 135.45 30.83 135.8 30.68 136.15 31.28 136.5 31.72 136.85 31.13 137.2 31.72 137.55 31.87 137.89 33.5 138.24 33.2 138.59 32.61 138.94 33.35 139.29 34.68 139.64 32.46 139.99 30.68 140.34 30.54 140.69 30.39 141.04 31.13 141.39 31.13 141.73 29.5 142.08 29.5 142.43 29.5 142.78 29.2 143.13 28.91 143.48 29.05 143.83 29.5 144.18 29.05 144.53 29.35 144.88 29.2 145.23 28.46 145.58 29.5 145.92 29.5 146.27 29.65 146.62 29.5 146.97 29.5 147.32 29.65 147.67 29.2 148.02 29.2 148.37 28.46 148.72 27.72 149.07 27.72 149.42 27.87 149.76 27.87 150.11 27.87 150.46 27.72 150.81 27.57 151.16 27.42"/>
      </g>
    </g>
  </g>
</g>
  <g class="guide ylabels" font-size="2.82" font-family="'PT Sans Caption','Helvetica Neue','Helvetica',sans-serif" fill="#000000" id="img-0283555b-20">
    <text x="18.63" y="131.11" text-anchor="end" dy="0.35em">0</text>
    <text x="18.63" y="101.49" text-anchor="end" dy="0.35em">200</text>
    <text x="18.63" y="71.86" text-anchor="end" dy="0.35em">400</text>
    <text x="18.63" y="42.24" text-anchor="end" dy="0.35em">600</text>
    <text x="18.63" y="12.61" text-anchor="end" dy="0.35em">800</text>
  </g>
  <g font-size="3.88" font-family="'PT Sans','Helvetica Neue','Helvetica',sans-serif" fill="#000000" stroke="#000000" stroke-opacity="0.000" id="img-0283555b-21">
    <text x="8.81" y="69.86" text-anchor="middle" dy="0.35em" transform="rotate(-90, 8.81, 71.86)">population number</text>
  </g>
  <g font-size="3.88" font-family="'PT Sans','Helvetica Neue','Helvetica',sans-serif" fill="#000000" stroke="#000000" stroke-opacity="0.000" id="img-0283555b-22">
    <text x="108.92" y="5" text-anchor="middle" dy="0.6em">genetic drift</text>
  </g>
</g>
<defs>
  <clipPath id="img-0283555b-4">
  <path d="M19.63,10.61 L 198.2 10.61 198.2 133.11 19.63 133.11" />
</clipPath>
</defs>
</svg>
