<?xml version="1.0" encoding="UTF-8"?>
<svg xmlns="http://www.w3.org/2000/svg"
     xmlns:xlink="http://www.w3.org/1999/xlink"
     xmlns:gadfly="http://www.gadflyjl.org/ns"
     version="1.2"
     width="203.2mm" height="152.4mm" viewBox="0 0 203.2 152.4"
     stroke="none"
     fill="#000000"
     stroke-width="0.3"
     font-size="3.88"
>
<g class="plotroot xscalable yscalable" id="img-843739b0-1">
  <g font-size="3.88" font-family="'PT Sans','Helvetica Neue','Helvetica',sans-serif" fill="#000000" stroke="#000000" stroke-opacity="0.000" id="img-843739b0-2">
    <text x="109.75" y="140.79" text-anchor="middle" dy="0.6em">generation number</text>
  </g>
  <g class="guide xlabels" font-size="2.82" font-family="'PT Sans Caption','Helvetica Neue','Helvetica',sans-serif" fill="#000000" id="img-843739b0-3">
    <text x="23.31" y="134.11" text-anchor="middle" dy="0.6em">0</text>
    <text x="57.88" y="134.11" text-anchor="middle" dy="0.6em">100</text>
    <text x="92.46" y="134.11" text-anchor="middle" dy="0.6em">200</text>
    <text x="127.04" y="134.11" text-anchor="middle" dy="0.6em">300</text>
    <text x="161.62" y="134.11" text-anchor="middle" dy="0.6em">400</text>
    <text x="196.2" y="134.11" text-anchor="middle" dy="0.6em">500</text>
  </g>
<g clip-path="url(#img-843739b0-4)">
  <g id="img-843739b0-5">
    <g pointer-events="visible" opacity="1" fill="#FFFFFF" stroke="#000000" stroke-opacity="0.000" class="guide background" id="img-843739b0-6">
      <rect x="21.31" y="10.61" width="176.89" height="122.5"/>
    </g>
    <g class="guide ygridlines xfixed" stroke-dasharray="0.5,0.5" stroke-width="0.2" stroke="#808080" id="img-843739b0-7">
      <path fill="none" d="M21.31,131.11 L 198.2 131.11"/>
      <path fill="none" d="M21.31,71.86 L 198.2 71.86"/>
      <path fill="none" d="M21.31,12.61 L 198.2 12.61"/>
    </g>
    <g class="guide xgridlines yfixed" stroke-dasharray="0.5,0.5" stroke-width="0.2" stroke="#808080" id="img-843739b0-8">
      <path fill="none" d="M23.31,10.61 L 23.31 133.11"/>
      <path fill="none" d="M57.88,10.61 L 57.88 133.11"/>
      <path fill="none" d="M92.46,10.61 L 92.46 133.11"/>
      <path fill="none" d="M127.04,10.61 L 127.04 133.11"/>
      <path fill="none" d="M161.62,10.61 L 161.62 133.11"/>
      <path fill="none" d="M196.2,10.61 L 196.2 133.11"/>
    </g>
    <g class="plotpanel" id="img-843739b0-9">
      <g stroke-width="0.3" fill="#000000" fill-opacity="0.000" class="geometry" stroke-dasharray="none" stroke="#3288BD" id="img-843739b0-10">
        <path fill="none" d="M23.65,77.79 L 24 80.04 24.34 79.33 24.69 81.58 25.03 80.75 25.38 80.28 25.73 80.51 26.07 82.17 26.42 80.04 26.76 78.62 27.11 76.37 27.45 79.09 27.8 77.08 28.15 79.21 28.49 82.29 28.84 82.77 29.18 80.99 29.53 80.99 29.88 82.53 30.22 81.82 30.57 79.33 30.91 79.57 31.26 78.97 31.6 74.11 31.95 74.23 32.3 75.89 32.64 74 32.99 74.71 33.33 75.18 33.68 76.37 34.02 79.57 34.37 80.4 34.72 79.09 35.06 77.91 35.41 80.04 35.75 80.4 36.1 82.88 36.45 83 36.79 84.42 37.14 82.77 37.48 83.48 37.83 81.46 38.17 83.36 38.52 84.54 38.87 85.37 39.21 85.25 39.56 86.32 39.9 86.68 40.25 87.98 40.59 85.97 40.94 84.78 41.29 85.61 41.63 85.37 41.98 87.03 42.32 86.79 42.67 85.85 43.02 87.27 43.36 86.32 43.71 85.37 44.05 88.1 44.4 90.59 44.74 90.47 45.09 88.93 45.44 90.71 45.78 88.93 46.13 87.03 46.47 83.12 46.82 82.17 47.16 83 47.51 82.65 47.86 83.83 48.2 84.19 48.55 82.65 48.89 82.41 49.24 81.23 49.59 81.58 49.93 81.46 50.28 85.73 50.62 86.91 50.97 84.9 51.31 85.61 51.66 85.49 52.01 83.12 52.35 81.82 52.7 78.62 53.04 81.23 53.39 81.23 53.73 83.48 54.08 83 54.43 81.7 54.77 82.65 55.12 82.29 55.46 84.54 55.81 81.23 56.16 78.03 56.5 82.77 56.85 82.41 57.19 83.83 57.54 83.83 57.88 82.65 58.23 81.94 58.58 84.19 58.92 86.2 59.27 88.57 59.61 88.93 59.96 87.98 60.3 88.69 60.65 89.4 61 89.88 61.34 88.57 61.69 88.93 62.03 88.45 62.38 89.64 62.73 88.34 63.07 85.61 63.42 84.9 63.76 89.16 64.11 88.69 64.45 87.03 64.8 89.88 65.15 89.05 65.49 86.2 65.84 87.27 66.18 88.69 66.53 86.68 66.87 89.52 67.22 88.57 67.57 87.86 67.91 87.15 68.26 86.91 68.6 85.73 68.95 83.95 69.3 84.42 69.64 85.73 69.99 83.95 70.33 84.9 70.68 84.31 71.02 84.9 71.37 85.02 71.72 83.6 72.06 78.86 72.41 78.97 72.75 80.4 73.1 81.11 73.44 79.45 73.79 78.86 74.14 77.55 74.48 76.6 74.83 75.66 75.17 77.79 75.52 79.45 75.87 80.63 76.21 81.34 76.56 77.67 76.9 78.62 77.25 77.79 77.59 77.67 77.94 78.74 78.29 78.86 78.63 76.01 78.98 73.52 79.32 73.64 79.67 73.76 80.01 73.29 80.36 73.29 80.71 73.05 81.05 75.66 81.4 74.59 81.74 72.46 82.09 71.86 82.44 72.81 82.78 73.76 83.13 73.52 83.47 74.35 83.82 74.71 84.16 75.42 84.51 77.55 84.86 78.38 85.2 78.74 85.55 79.92 85.89 83 86.24 84.19 86.58 86.2 86.93 85.73 87.28 91.3 87.62 89.4 87.97 90.23 88.31 88.34 88.66 89.28 89.01 87.51 89.35 86.08 89.7 86.32 90.04 89.52 90.39 89.52 90.73 89.88 91.08 90.47 91.43 91.89 91.77 88.1 92.12 88.22 92.46 88.45 92.81 89.99 93.15 90.47 93.5 90.71 93.85 91.06 94.19 92.6 94.54 90.71 94.88 92.96 95.23 93.79 95.58 91.65 95.92 95.45 96.27 95.09 96.61 93.67 96.96 93.19 97.3 92.6 97.65 91.42 98 91.18 98.34 92.36 98.69 93.08 99.03 89.16 99.38 87.74 99.72 85.61 100.07 86.79 100.42 85.61 100.76 87.03 101.11 89.16 101.45 90.71 101.8 88.93 102.15 86.2 102.49 86.68 102.84 85.61 103.18 88.81 103.53 87.03 103.87 85.49 104.22 88.22 104.57 89.88 104.91 93.08 105.26 93.79 105.6 95.21 105.95 92.36 106.29 89.76 106.64 89.4 106.99 89.05 107.33 88.57 107.68 85.25 108.02 85.37 108.37 87.39 108.72 86.79 109.06 86.56 109.41 85.02 109.75 83.83 110.1 82.65 110.44 84.54 110.79 86.08 111.14 85.97 111.48 84.54 111.83 84.19 112.17 83.6 112.52 87.27 112.86 85.85 113.21 86.79 113.56 86.56 113.9 87.39 114.25 91.3 114.59 90.59 114.94 90.59 115.29 92.6 115.63 90.71 115.98 93.43 116.32 91.65 116.67 92.84 117.01 93.31 117.36 94.26 117.71 95.33 118.05 95.92 118.4 96.51 118.74 96.16 119.09 96.39 119.43 93.9 119.78 94.26 120.13 93.43 120.47 90.23 120.82 91.53 121.16 92.6 121.51 93.43 121.86 91.06 122.2 90.59 122.55 89.4 122.89 89.16 123.24 90.47 123.58 90.35 123.93 93.55 124.28 94.97 124.62 94.14 124.97 95.68 125.31 95.21 125.66 93.31 126 93.79 126.35 95.45 126.7 93.9 127.04 94.26 127.39 94.5 127.73 95.56 128.08 96.63 128.43 99.24 128.77 100.9 129.12 98.88 129.46 95.68 129.81 94.97 130.15 93.67 130.5 93.55 130.85 94.73 131.19 95.56 131.54 96.51 131.88 97.93 132.23 98.53 132.57 95.8 132.92 91.77 133.27 96.16 133.61 97.34 133.96 96.99 134.3 98.41 134.65 97.22 135 95.45 135.34 97.82 135.69 97.22 136.03 96.87 136.38 95.68 136.72 95.56 137.07 95.56 137.42 96.87 137.76 94.97 138.11 92.36 138.45 91.18 138.8 90.82 139.14 89.99 139.49 89.05 139.84 89.52 140.18 89.28 140.53 91.3 140.87 90.82 141.22 93.67 141.57 95.56 141.91 94.62 142.26 93.31 142.6 91.65 142.95 90.71 143.29 88.57 143.64 87.86 143.99 86.79 144.33 84.78 144.68 83.71 145.02 84.54 145.37 85.02 145.71 84.66 146.06 84.42 146.41 81.11 146.75 85.61 147.1 85.25 147.44 86.08 147.79 86.2 148.14 88.22 148.48 86.08 148.83 87.62 149.17 90.23 149.52 90.82 149.86 90.11 150.21 90.94 150.56 88.81 150.9 87.74 151.25 84.42 151.59 84.19 151.94 82.77 152.28 80.28 152.63 80.4 152.98 80.51 153.32 79.92 153.67 78.14 154.01 78.74 154.36 77.79 154.71 80.87 155.05 79.45 155.4 80.04 155.74 79.21 156.09 78.74 156.43 83 156.78 82.17 157.13 81.94 157.47 77.91 157.82 77.55 158.16 79.8 158.51 81.46 158.85 80.87 159.2 80.63 159.55 82.65 159.89 78.86 160.24 80.4 160.58 79.92 160.93 79.92 161.28 78.5 161.62 79.92 161.97 80.28 162.31 79.09 162.66 80.75 163 82.53 163.35 79.45 163.7 79.92 164.04 78.38 164.39 78.97 164.73 77.2 165.08 79.92 165.42 80.04 165.77 77.67 166.12 77.2 166.46 75.77 166.81 73.17 167.15 72.22 167.5 70.56 167.85 68.31 168.19 66.41 168.54 68.19 168.88 68.07 169.23 67.24 169.57 68.31 169.92 69.85 170.27 69.37 170.61 68.43 170.96 68.07 171.3 67.24 171.65 68.66 171.99 66.06 172.34 66.53 172.69 66.53 173.03 63.33 173.38 62.86 173.72 63.69 174.07 61.08 174.42 62.26 174.76 62.15 175.11 63.21 175.45 63.09 175.8 62.74 176.14 65.23 176.49 69.26 176.84 69.97 177.18 72.57 177.53 70.44 177.87 72.46 178.22 72.81 178.56 75.18 178.91 73.88 179.26 72.22 179.6 72.93 179.95 72.22 180.29 73.05 180.64 74 180.99 74.47 181.33 78.26 181.68 76.84 182.02 76.37 182.37 76.72 182.71 77.2 183.06 76.37 183.41 75.66 183.75 76.6 184.1 74.83 184.44 72.69 184.79 71.27 185.13 71.27 185.48 73.17 185.83 73.52 186.17 73.17 186.52 69.61 186.86 69.97 187.21 71.39 187.56 69.97 187.9 67.36 188.25 65.94 188.59 62.62 188.94 61.67 189.28 61.55 189.63 60.96 189.98 60.25 190.32 57.17 190.67 57.29 191.01 57.76 191.36 58.47 191.7 58 192.05 56.58 192.4 58.95 192.74 58 193.09 58.47 193.43 57.64 193.78 58.47 194.13 60.01 194.47 57.41 194.82 60.61 195.16 62.62 195.51 64.16 195.85 66.89 196.2 68.43"/>
      </g>
      <g stroke-width="0.3" fill="#000000" fill-opacity="0.000" class="geometry" stroke-dasharray="none" stroke="#66C2A5" id="img-843739b0-11">
        <path fill="none" d="M23.65,77.79 L 24 78.86 24.34 78.38 24.69 79.09 25.03 77.2 25.38 75.42 25.73 75.77 26.07 74.83 26.42 75.77 26.76 74.23 27.11 70.68 27.45 70.68 27.8 71.86 28.15 72.93 28.49 74.23 28.84 77.43 29.18 78.62 29.53 77.79 29.88 80.28 30.22 78.97 30.57 78.5 30.91 77.67 31.26 74.83 31.6 73.64 31.95 72.22 32.3 72.93 32.64 69.61 32.99 71.27 33.33 68.9 33.68 67.72 34.02 69.02 34.37 66.77 34.72 64.4 35.06 64.28 35.41 66.89 35.75 67.24 36.1 68.66 36.45 68.66 36.79 68.78 37.14 70.44 37.48 68.55 37.83 68.07 38.17 68.66 38.52 69.14 38.87 65.46 39.21 67.24 39.56 69.14 39.9 67.72 40.25 67.48 40.59 67.48 40.94 64.99 41.29 66.18 41.63 65.11 41.98 64.52 42.32 65.11 42.67 66.41 43.02 66.18 43.36 70.09 43.71 70.92 44.05 69.02 44.4 67.95 44.74 69.73 45.09 68.78 45.44 70.92 45.78 70.8 46.13 69.49 46.47 69.02 46.82 70.44 47.16 71.03 47.51 70.68 47.86 70.09 48.2 69.49 48.55 66.53 48.89 66.29 49.24 64.63 49.59 63.92 49.93 65.35 50.28 63.45 50.62 62.26 50.97 62.86 51.31 62.38 51.66 64.16 52.01 64.4 52.35 63.69 52.7 62.74 53.04 62.74 53.39 62.98 53.73 64.16 54.08 62.62 54.43 61.91 54.77 63.45 55.12 64.75 55.46 66.53 55.81 66.77 56.16 65.58 56.5 66.29 56.85 66.65 57.19 67.36 57.54 64.87 57.88 68.43 58.23 68.66 58.58 67.24 58.92 66.89 59.27 66.53 59.61 66.41 59.96 66.77 60.3 69.97 60.65 70.56 61 72.22 61.34 72.81 61.69 74.35 62.03 73.64 62.38 74.59 62.73 74.11 63.07 71.74 63.42 70.09 63.76 70.8 64.11 71.27 64.45 71.39 64.8 73.88 65.15 71.27 65.49 72.1 65.84 73.52 66.18 74.23 66.53 72.46 66.87 70.44 67.22 70.2 67.57 70.68 67.91 70.56 68.26 73.17 68.6 71.39 68.95 68.66 69.3 67.48 69.64 64.63 69.99 63.92 70.33 66.18 70.68 67.24 71.02 72.34 71.37 70.68 71.72 71.03 72.06 72.1 72.41 73.05 72.75 72.69 73.1 74.11 73.44 76.01 73.79 77.2 74.14 75.3 74.48 76.13 74.83 74.59 75.17 73.88 75.52 71.03 75.87 72.34 76.21 70.68 76.56 68.78 76.9 71.98 77.25 71.74 77.59 69.85 77.94 69.85 78.29 69.97 78.63 70.56 78.98 69.02 79.32 69.02 79.67 69.73 80.01 73.17 80.36 72.69 80.71 73.17 81.05 73.4 81.4 73.4 81.74 69.37 82.09 68.07 82.44 68.07 82.78 68.55 83.13 66.53 83.47 64.04 83.82 63.21 84.16 63.69 84.51 62.86 84.86 61.79 85.2 61.2 85.55 60.37 85.89 60.25 86.24 61.2 86.58 61.32 86.93 62.74 87.28 61.67 87.62 59.78 87.97 59.42 88.31 59.54 88.66 58 89.01 60.61 89.35 57.64 89.7 57.64 90.04 56.93 90.39 59.42 90.73 56.69 91.08 58.12 91.43 57.05 91.77 57.52 92.12 55.98 92.46 57.29 92.81 54.68 93.15 55.63 93.5 57.05 93.85 57.05 94.19 60.01 94.54 58.47 94.88 58.59 95.23 59.42 95.58 60.72 95.92 62.5 96.27 62.86 96.61 64.52 96.96 61.67 97.3 63.92 97.65 64.04 98 64.04 98.34 65.82 98.69 63.33 99.03 58.35 99.38 58.95 99.72 58.12 100.07 56.93 100.42 59.54 100.76 58 101.11 57.76 101.45 61.08 101.8 58.83 102.15 57.88 102.49 58.12 102.84 61.79 103.18 59.89 103.53 58.95 103.87 57.76 104.22 59.3 104.57 58 104.91 56.1 105.26 52.19 105.6 52.07 105.95 51.01 106.29 51.95 106.64 53.26 106.99 50.77 107.33 50.77 107.68 50.41 108.02 51.48 108.37 53.85 108.72 53.97 109.06 52.43 109.41 52.07 109.75 49.23 110.1 49.23 110.44 47.93 110.79 47.57 111.14 47.33 111.48 46.5 111.83 46.74 112.17 46.15 112.52 47.69 112.86 48.99 113.21 48.4 113.56 47.93 113.9 46.62 114.25 48.28 114.59 47.45 114.94 48.28 115.29 47.33 115.63 46.27 115.98 44.84 116.32 45.56 116.67 48.99 117.01 45.79 117.36 45.91 117.71 45.91 118.05 45.44 118.4 46.15 118.74 46.86 119.09 46.62 119.43 46.15 119.78 43.66 120.13 42.12 120.47 43.66 120.82 44.49 121.16 46.98 121.51 46.5 121.86 44.13 122.2 43.78 122.55 42.83 122.89 44.49 123.24 46.27 123.58 45.2 123.93 44.84 124.28 44.25 124.62 47.45 124.97 45.56 125.31 46.39 125.66 48.4 126 48.4 126.35 50.53 126.7 51.24 127.04 49.35 127.39 51.36 127.73 49.94 128.08 47.57 128.43 47.21 128.77 48.04 129.12 47.45 129.46 48.16 129.81 47.33 130.15 46.98 130.5 48.4 130.85 46.39 131.19 48.64 131.54 47.57 131.88 47.81 132.23 45.79 132.57 46.03 132.92 44.73 133.27 42.71 133.61 42.83 133.96 42.47 134.3 41.41 134.65 41.05 135 41.53 135.34 42.24 135.69 41.64 136.03 40.46 136.38 39.75 136.72 39.75 137.07 38.56 137.42 39.87 137.76 41.76 138.11 42.83 138.45 42.95 138.8 42.95 139.14 40.82 139.49 41.17 139.84 41.64 140.18 43.66 140.53 41.41 140.87 43.19 141.22 43.54 141.57 43.19 141.91 41.53 142.26 41.76 142.6 44.13 142.95 42 143.29 43.3 143.64 44.25 143.99 43.9 144.33 43.9 144.68 45.08 145.02 44.96 145.37 46.98 145.71 47.33 146.06 46.98 146.41 46.27 146.75 46.5 147.1 46.98 147.44 46.03 147.79 44.02 148.14 44.96 148.48 43.3 148.83 44.25 149.17 47.33 149.52 48.28 149.86 46.74 150.21 45.56 150.56 44.73 150.9 45.44 151.25 46.74 151.59 44.37 151.94 44.49 152.28 42.59 152.63 42 152.98 41.76 153.32 42.47 153.67 42.59 154.01 42.59 154.36 44.84 154.71 46.27 155.05 45.2 155.4 44.96 155.74 42.71 156.09 41.41 156.43 41.76 156.78 44.02 157.13 43.9 157.47 46.98 157.82 48.52 158.16 50.65 158.51 50.3 158.85 48.52 159.2 46.86 159.55 44.61 159.89 42.95 160.24 41.76 160.58 42.83 160.93 41.05 161.28 40.7 161.62 37.97 161.97 38.8 162.31 38.68 162.66 37.85 163 36.79 163.35 34.65 163.7 34.65 164.04 33.47 164.39 33.35 164.73 35.72 165.08 38.45 165.42 36.19 165.77 36.67 166.12 38.92 166.46 40.1 166.81 40.46 167.15 44.02 167.5 46.03 167.85 49.7 168.19 48.52 168.54 50.06 168.88 54.09 169.23 54.68 169.57 53.73 169.92 53.97 170.27 54.09 170.61 55.04 170.96 56.93 171.3 56.81 171.65 57.05 171.99 56.58 172.34 55.63 172.69 56.69 173.03 54.8 173.38 53.26 173.72 52.19 174.07 52.67 174.42 51.95 174.76 52.55 175.11 53.02 175.45 54.09 175.8 52.78 176.14 53.5 176.49 52.07 176.84 52.07 177.18 50.65 177.53 54.68 177.87 53.38 178.22 53.26 178.56 53.26 178.91 54.32 179.26 56.58 179.6 58 179.95 60.01 180.29 60.01 180.64 60.84 180.99 61.08 181.33 61.32 181.68 60.72 182.02 62.15 182.37 61.08 182.71 61.08 183.06 60.37 183.41 60.49 183.75 57.41 184.1 57.76 184.44 56.81 184.79 56.93 185.13 55.87 185.48 55.15 185.83 56.69 186.17 53.26 186.52 54.68 186.86 55.75 187.21 57.17 187.56 59.06 187.9 60.37 188.25 60.72 188.59 60.84 188.94 60.61 189.28 61.44 189.63 63.92 189.98 63.09 190.32 63.45 190.67 64.52 191.01 62.26 191.36 61.55 191.7 62.03 192.05 63.09 192.4 66.06 192.74 61.55 193.09 59.66 193.43 62.5 193.78 62.98 194.13 64.4 194.47 65.7 194.82 66.18 195.16 68.19 195.51 69.73 195.85 71.74 196.2 74.83"/>
      </g>
      <g stroke-width="0.3" fill="#000000" fill-opacity="0.000" class="geometry" stroke-dasharray="none" stroke="#ABDDA4" id="img-843739b0-12">
        <path fill="none" d="M23.65,77.79 L 24 78.38 24.34 80.04 24.69 82.77 25.03 83.48 25.38 79.57 25.73 80.75 26.07 79.09 26.42 81.11 26.76 77.91 27.11 79.8 27.45 77.55 27.8 76.01 28.15 75.66 28.49 78.26 28.84 78.62 29.18 77.67 29.53 79.45 29.88 77.91 30.22 83 30.57 84.9 30.91 84.66 31.26 86.44 31.6 85.25 31.95 87.51 32.3 87.15 32.64 85.25 32.99 87.15 33.33 87.39 33.68 87.62 34.02 88.34 34.37 91.65 34.72 90.82 35.06 91.77 35.41 92.6 35.75 94.02 36.1 93.9 36.45 94.97 36.79 95.8 37.14 92.72 37.48 93.19 37.83 91.77 38.17 91.06 38.52 92.6 38.87 93.9 39.21 95.68 39.56 95.33 39.9 95.21 40.25 94.73 40.59 96.87 40.94 94.5 41.29 96.75 41.63 97.82 41.98 97.1 42.32 97.93 42.67 96.51 43.02 97.1 43.36 98.17 43.71 96.63 44.05 95.56 44.4 97.58 44.74 97.82 45.09 97.1 45.44 95.45 45.78 97.1 46.13 98.17 46.47 101.37 46.82 103.62 47.16 106.11 47.51 105.87 47.86 105.87 48.2 102.44 48.55 102.56 48.89 102.56 49.24 101.25 49.59 100.9 49.93 96.28 50.28 95.33 50.62 95.21 50.97 97.7 51.31 97.22 51.66 92.48 52.01 90.82 52.35 93.31 52.7 93.19 53.04 90.94 53.39 90.47 53.73 95.92 54.08 98.17 54.43 98.88 54.77 97.58 55.12 96.63 55.46 98.88 55.81 97.34 56.16 99.36 56.5 97.34 56.85 98.41 57.19 101.13 57.54 99 57.88 101.49 58.23 99.83 58.58 97.22 58.92 98.17 59.27 100.19 59.61 98.05 59.96 98.88 60.3 99.83 60.65 99 61 96.39 61.34 95.09 61.69 94.26 62.03 94.26 62.38 96.28 62.73 96.51 63.07 97.22 63.42 97.93 63.76 100.07 64.11 100.78 64.45 100.42 64.8 99.24 65.15 99.95 65.49 99.59 65.84 98.41 66.18 98.53 66.53 97.58 66.87 97.46 67.22 98.29 67.57 97.22 67.91 98.41 68.26 100.19 68.6 102.91 68.95 100.54 69.3 98.41 69.64 97.7 69.99 94.26 70.33 93.43 70.68 90.82 71.02 90.82 71.37 89.99 71.72 88.81 72.06 88.57 72.41 88.81 72.75 89.4 73.1 90.23 73.44 92.25 73.79 91.53 74.14 92.13 74.48 91.42 74.83 93.08 75.17 92.13 75.52 92.96 75.87 93.79 76.21 92.96 76.56 92.25 76.9 90.71 77.25 90.94 77.59 92.96 77.94 91.89 78.29 92.48 78.63 93.31 78.98 95.33 79.32 95.33 79.67 96.63 80.01 97.93 80.36 98.29 80.71 99.71 81.05 99.36 81.4 99.47 81.74 97.46 82.09 94.73 82.44 94.14 82.78 93.43 83.13 95.09 83.47 94.14 83.82 94.97 84.16 96.51 84.51 93.08 84.86 93.79 85.2 93.43 85.55 94.5 85.89 96.04 86.24 97.34 86.58 97.1 86.93 96.16 87.28 96.99 87.62 97.46 87.97 97.1 88.31 97.34 88.66 97.22 89.01 97.82 89.35 95.09 89.7 93.19 90.04 92.01 90.39 90.23 90.73 88.93 91.08 92.13 91.43 92.96 91.77 88.57 92.12 87.98 92.46 87.39 92.81 86.32 93.15 89.52 93.5 92.36 93.85 92.96 94.19 93.31 94.54 92.96 94.88 90.35 95.23 91.18 95.58 93.31 95.92 89.76 96.27 90.71 96.61 90.71 96.96 89.99 97.3 92.96 97.65 93.43 98 92.6 98.34 94.5 98.69 93.9 99.03 94.26 99.38 94.97 99.72 92.36 100.07 90.82 100.42 90.59 100.76 88.69 101.11 88.57 101.45 89.64 101.8 90.59 102.15 87.62 102.49 91.65 102.84 92.72 103.18 94.62 103.53 94.38 103.87 93.19 104.22 92.13 104.57 91.42 104.91 91.42 105.26 94.14 105.6 94.62 105.95 94.62 106.29 94.14 106.64 94.73 106.99 96.16 107.33 92.01 107.68 95.8 108.02 94.62 108.37 94.5 108.72 96.16 109.06 95.68 109.41 97.34 109.75 100.9 110.1 98.53 110.44 98.76 110.79 96.75 111.14 97.7 111.48 97.58 111.83 96.75 112.17 94.5 112.52 97.93 112.86 97.1 113.21 99 113.56 99.71 113.9 101.96 114.25 103.62 114.59 104.1 114.94 105.64 115.29 106.47 115.63 105.64 115.98 107.3 116.32 106.7 116.67 108.13 117.01 109.9 117.36 111.32 117.71 112.98 118.05 111.8 118.4 113.34 118.74 114.76 119.09 115.24 119.43 116.18 119.78 115.24 120.13 113.93 120.47 115.24 120.82 118.55 121.16 118.44 121.51 117.01 121.86 118.91 122.2 119.26 122.55 120.81 122.89 120.45 123.24 119.98 123.58 121.4 123.93 121.4 124.28 122.35 124.62 121.28 124.97 123.53 125.31 122.82 125.66 121.99 126 120.69 126.35 120.57 126.7 122.58 127.04 123.18 127.39 122.46 127.73 121.04 128.08 121.52 128.43 120.33 128.77 120.33 129.12 119.5 129.46 118.2 129.81 116.42 130.15 116.3 130.5 115.59 130.85 115.35 131.19 113.1 131.54 112.75 131.88 112.04 132.23 111.68 132.57 111.92 132.92 112.87 133.27 112.15 133.61 112.63 133.96 111.56 134.3 111.8 134.65 112.15 135 112.75 135.34 112.98 135.69 111.68 136.03 110.38 136.38 109.67 136.72 108.95 137.07 109.55 137.42 109.67 137.76 110.14 138.11 111.21 138.45 110.5 138.8 110.73 139.14 110.61 139.49 108.24 139.84 110.14 140.18 110.26 140.53 110.85 140.87 111.44 141.22 107.65 141.57 108.13 141.91 109.07 142.26 108.01 142.6 107.53 142.95 107.65 143.29 107.89 143.64 108.24 143.99 107.06 144.33 109.43 144.68 109.67 145.02 110.38 145.37 113.7 145.71 114.17 146.06 112.27 146.41 110.5 146.75 109.67 147.1 110.14 147.44 109.43 147.79 108.95 148.14 108.13 148.48 106.7 148.83 106.7 149.17 105.76 149.52 106.23 149.86 105.4 150.21 105.52 150.56 106.47 150.9 105.87 151.25 107.18 151.59 107.06 151.94 109.07 152.28 110.5 152.63 109.67 152.98 110.38 153.32 110.85 153.67 112.27 154.01 109.67 154.36 110.61 154.71 110.97 155.05 109.78 155.4 109.67 155.74 109.31 156.09 110.14 156.43 109.9 156.78 110.14 157.13 110.38 157.47 108.13 157.82 110.26 158.16 110.85 158.51 112.27 158.85 113.58 159.2 113.58 159.55 115 159.89 117.72 160.24 118.67 160.58 116.78 160.93 116.3 161.28 113.1 161.62 112.27 161.97 110.73 162.31 112.39 162.66 114.29 163 115.12 163.35 114.76 163.7 113.58 164.04 112.39 164.39 110.5 164.73 112.15 165.08 112.27 165.42 113.81 165.77 113.46 166.12 115.24 166.46 112.51 166.81 110.85 167.15 112.39 167.5 115.59 167.85 115.95 168.19 115.95 168.54 114.88 168.88 117.13 169.23 116.66 169.57 116.07 169.92 116.78 170.27 115.71 170.61 113.46 170.96 114.41 171.3 112.63 171.65 113.46 171.99 111.32 172.34 110.73 172.69 108.01 173.03 107.77 173.38 106.35 173.72 105.76 174.07 105.28 174.42 106.82 174.76 104.69 175.11 103.39 175.45 102.08 175.8 104.33 176.14 105.64 176.49 104.45 176.84 105.28 177.18 106.35 177.53 107.18 177.87 103.98 178.22 103.74 178.56 105.64 178.91 105.76 179.26 107.41 179.6 106.94 179.95 106.58 180.29 105.04 180.64 104.57 180.99 101.73 181.33 100.42 181.68 101.37 182.02 100.19 182.37 97.22 182.71 95.33 183.06 98.29 183.41 99.24 183.75 98.17 184.1 98.65 184.44 99.71 184.79 99 185.13 99.95 185.48 99.71 185.83 101.02 186.17 101.49 186.52 101.49 186.86 100.42 187.21 98.88 187.56 99.12 187.9 101.13 188.25 101.61 188.59 101.25 188.94 99.36 189.28 99.83 189.63 100.19 189.98 99.83 190.32 97.22 190.67 101.61 191.01 101.61 191.36 99.95 191.7 100.66 192.05 102.56 192.4 101.37 192.74 99.95 193.09 98.88 193.43 100.19 193.78 100.66 194.13 100.9 194.47 98.65 194.82 98.88 195.16 98.41 195.51 98.05 195.85 97.34 196.2 95.09"/>
      </g>
      <g stroke-width="0.3" fill="#000000" fill-opacity="0.000" class="geometry" stroke-dasharray="none" stroke="#E6F598" id="img-843739b0-13">
        <path fill="none" d="M23.65,77.79 L 24 76.01 24.34 75.89 24.69 74.59 25.03 78.5 25.38 76.48 25.73 78.97 26.07 80.87 26.42 80.87 26.76 81.58 27.11 80.16 27.45 80.51 27.8 79.68 28.15 79.33 28.49 80.51 28.84 78.62 29.18 80.75 29.53 79.09 29.88 79.09 30.22 83.24 30.57 82.77 30.91 80.51 31.26 81.7 31.6 80.28 31.95 78.74 32.3 79.33 32.64 79.57 32.99 79.45 33.33 83 33.68 83.36 34.02 83.48 34.37 82.05 34.72 81.23 35.06 82.17 35.41 81.7 35.75 79.45 36.1 81.34 36.45 80.87 36.79 81.23 37.14 83.12 37.48 80.63 37.83 76.25 38.17 75.18 38.52 77.31 38.87 77.08 39.21 77.91 39.56 79.09 39.9 79.09 40.25 79.33 40.59 82.29 40.94 79.33 41.29 81.58 41.63 83.24 41.98 81.46 42.32 84.42 42.67 83.6 43.02 80.87 43.36 82.77 43.71 81.7 44.05 80.75 44.4 76.96 44.74 77.2 45.09 78.5 45.44 74.11 45.78 73.4 46.13 71.51 46.47 71.39 46.82 72.69 47.16 71.39 47.51 69.73 47.86 70.56 48.2 71.39 48.55 72.1 48.89 74.94 49.24 73.52 49.59 71.74 49.93 70.32 50.28 70.68 50.62 72.57 50.97 73.29 51.31 76.13 51.66 74.83 52.01 75.77 52.35 76.84 52.7 76.84 53.04 77.79 53.39 79.8 53.73 80.51 54.08 78.62 54.43 77.67 54.77 78.62 55.12 77.55 55.46 77.2 55.81 72.22 56.16 71.74 56.5 69.73 56.85 69.73 57.19 70.68 57.54 70.8 57.88 69.49 58.23 70.44 58.58 72.22 58.92 72.57 59.27 71.98 59.61 71.27 59.96 71.74 60.3 73.05 60.65 71.39 61 70.68 61.34 69.14 61.69 69.26 62.03 68.31 62.38 67.83 62.73 66.53 63.07 64.28 63.42 65.7 63.76 68.66 64.11 66.29 64.45 63.33 64.8 65.11 65.15 61.79 65.49 60.84 65.84 60.61 66.18 57.64 66.53 57.29 66.87 55.04 67.22 58.35 67.57 59.42 67.91 60.61 68.26 57.41 68.6 56.81 68.95 57.52 69.3 58.12 69.64 57.76 69.99 59.66 70.33 61.2 70.68 61.79 71.02 62.98 71.37 63.57 71.72 60.61 72.06 61.79 72.41 61.79 72.75 64.4 73.1 67 73.44 64.99 73.79 61.79 74.14 60.72 74.48 61.32 74.83 64.75 75.17 67.83 75.52 68.31 75.87 66.41 76.21 64.4 76.56 64.28 76.9 63.57 77.25 66.65 77.59 69.37 77.94 68.43 78.29 67.48 78.63 68.55 78.98 66.89 79.32 67.72 79.67 64.4 80.01 61.79 80.36 61.08 80.71 58.12 81.05 56.69 81.4 56.34 81.74 54.8 82.09 53.73 82.44 53.73 82.78 54.92 83.13 55.51 83.47 57.05 83.82 57.29 84.16 60.13 84.51 60.37 84.86 60.37 85.2 61.67 85.55 63.81 85.89 65.11 86.24 65.82 86.58 65.11 86.93 66.41 87.28 66.06 87.62 64.28 87.97 67.6 88.31 64.63 88.66 67.48 89.01 67 89.35 64.63 89.7 63.45 90.04 64.52 90.39 63.45 90.73 65.46 91.08 64.52 91.43 63.21 91.77 65.94 92.12 66.65 92.46 67.6 92.81 65.35 93.15 65.46 93.5 64.16 93.85 65.46 94.19 63.69 94.54 66.65 94.88 67.36 95.23 67.72 95.58 70.32 95.92 70.32 96.27 70.68 96.61 70.2 96.96 71.63 97.3 74.71 97.65 73.29 98 73.52 98.34 73.17 98.69 72.69 99.03 70.56 99.38 72.93 99.72 73.29 100.07 74 100.42 76.25 100.76 78.86 101.11 78.97 101.45 79.21 101.8 78.26 102.15 79.45 102.49 83.12 102.84 84.31 103.18 82.65 103.53 82.29 103.87 80.75 104.22 79.45 104.57 76.6 104.91 79.57 105.26 78.38 105.6 78.74 105.95 78.5 106.29 81.82 106.64 82.65 106.99 85.25 107.33 85.02 107.68 87.74 108.02 91.53 108.37 89.99 108.72 91.06 109.06 91.3 109.41 93.19 109.75 92.84 110.1 92.25 110.44 89.99 110.79 91.65 111.14 90.35 111.48 89.76 111.83 91.18 112.17 89.05 112.52 89.28 112.86 89.76 113.21 89.4 113.56 89.76 113.9 90.82 114.25 91.53 114.59 92.48 114.94 93.31 115.29 94.5 115.63 96.04 115.98 98.29 116.32 100.78 116.67 98.65 117.01 98.29 117.36 97.82 117.71 98.17 118.05 97.58 118.4 97.34 118.74 93.9 119.09 95.09 119.43 96.28 119.78 95.8 120.13 92.36 120.47 93.08 120.82 93.31 121.16 93.79 121.51 96.39 121.86 98.65 122.2 98.88 122.55 97.93 122.89 95.33 123.24 97.46 123.58 95.09 123.93 95.09 124.28 93.19 124.62 93.67 124.97 95.33 125.31 95.33 125.66 95.33 126 95.92 126.35 94.5 126.7 95.56 127.04 96.75 127.39 96.39 127.73 96.99 128.08 96.87 128.43 96.39 128.77 96.75 129.12 96.39 129.46 96.39 129.81 97.82 130.15 97.58 130.5 101.73 130.85 101.73 131.19 101.73 131.54 104.57 131.88 102.32 132.23 103.62 132.57 104.33 132.92 105.52 133.27 104.33 133.61 103.86 133.96 102.32 134.3 104.45 134.65 105.4 135 105.99 135.34 107.77 135.69 105.87 136.03 105.76 136.38 107.41 136.72 107.65 137.07 109.67 137.42 109.78 137.76 109.43 138.11 110.02 138.45 111.09 138.8 111.92 139.14 109.67 139.49 110.02 139.84 108.6 140.18 108.01 140.53 108.13 140.87 103.86 141.22 103.74 141.57 103.15 141.91 104.21 142.26 104.33 142.6 104.57 142.95 105.64 143.29 108.24 143.64 109.78 143.99 111.32 144.33 112.98 144.68 113.7 145.02 114.17 145.37 113.22 145.71 113.1 146.06 113.93 146.41 114.05 146.75 114.29 147.1 115.59 147.44 117.96 147.79 118.44 148.14 117.01 148.48 116.66 148.83 116.18 149.17 117.61 149.52 117.01 149.86 117.84 150.21 117.72 150.56 117.61 150.9 114.41 151.25 115.24 151.59 115 151.94 113.1 152.28 113.58 152.63 116.66 152.98 117.37 153.32 117.37 153.67 117.13 154.01 117.84 154.36 117.84 154.71 117.37 155.05 117.01 155.4 115.24 155.74 112.04 156.09 113.93 156.43 114.64 156.78 114.05 157.13 113.93 157.47 112.63 157.82 112.15 158.16 112.15 158.51 110.26 158.85 111.09 159.2 110.38 159.55 109.67 159.89 112.39 160.24 113.7 160.58 115.12 160.93 113.34 161.28 114.29 161.62 114.76 161.97 115.95 162.31 114.41 162.66 114.41 163 113.93 163.35 113.46 163.7 113.58 164.04 113.22 164.39 112.87 164.73 111.56 165.08 112.63 165.42 113.34 165.77 114.52 166.12 116.18 166.46 117.49 166.81 116.66 167.15 115.59 167.5 113.22 167.85 113.81 168.19 113.1 168.54 114.64 168.88 114.41 169.23 113.58 169.57 112.15 169.92 112.63 170.27 111.8 170.61 111.56 170.96 110.61 171.3 110.5 171.65 111.92 171.99 111.09 172.34 110.26 172.69 110.26 173.03 108.95 173.38 108.24 173.72 107.53 174.07 108.95 174.42 108.24 174.76 107.65 175.11 106.35 175.45 103.98 175.8 106.11 176.14 104.57 176.49 104.93 176.84 104.21 177.18 105.04 177.53 107.53 177.87 106.82 178.22 106.23 178.56 106.11 178.91 107.65 179.26 106.7 179.6 106.94 179.95 107.53 180.29 109.43 180.64 108.72 180.99 109.19 181.33 108.48 181.68 106.58 182.02 106.23 182.37 105.99 182.71 105.87 183.06 109.67 183.41 112.39 183.75 111.09 184.1 113.58 184.44 114.05 184.79 113.7 185.13 112.27 185.48 111.21 185.83 109.67 186.17 109.31 186.52 108.48 186.86 107.89 187.21 108.24 187.56 107.53 187.9 105.28 188.25 104.57 188.59 104.45 188.94 107.3 189.28 105.04 189.63 105.4 189.98 106.23 190.32 105.4 190.67 105.76 191.01 104.21 191.36 102.56 191.7 103.86 192.05 104.57 192.4 102.08 192.74 101.96 193.09 103.27 193.43 102.67 193.78 104.69 194.13 103.98 194.47 104.93 194.82 105.4 195.16 105.04 195.51 106.11 195.85 109.07 196.2 108.24"/>
      </g>
      <g stroke-width="0.3" fill="#000000" fill-opacity="0.000" class="geometry" stroke-dasharray="none" stroke="#FFFFBF" id="img-843739b0-14">
        <path fill="none" d="M23.65,77.79 L 24 77.43 24.34 81.34 24.69 82.65 25.03 80.51 25.38 81.94 25.73 84.31 26.07 83.83 26.42 83 26.76 85.37 27.11 84.19 27.45 83.12 27.8 81.94 28.15 80.75 28.49 81.58 28.84 80.51 29.18 82.29 29.53 81.11 29.88 84.31 30.22 85.85 30.57 86.68 30.91 89.16 31.26 88.81 31.6 89.28 31.95 90.94 32.3 90.35 32.64 89.76 32.99 90.35 33.33 90.23 33.68 90.23 34.02 89.99 34.37 92.48 34.72 96.04 35.06 96.39 35.41 94.73 35.75 94.62 36.1 95.45 36.45 95.45 36.79 99.47 37.14 102.2 37.48 101.96 37.83 101.96 38.17 104.57 38.52 102.79 38.87 102.44 39.21 105.04 39.56 104.93 39.9 105.52 40.25 105.64 40.59 109.19 40.94 107.89 41.29 107.41 41.63 107.53 41.98 105.99 42.32 105.4 42.67 105.76 43.02 107.53 43.36 107.53 43.71 106.23 44.05 106.94 44.4 104.45 44.74 104.45 45.09 103.5 45.44 104.45 45.78 102.91 46.13 102.91 46.47 100.3 46.82 100.07 47.16 99.71 47.51 100.42 47.86 99.95 48.2 99.83 48.55 98.53 48.89 99.71 49.24 101.61 49.59 98.76 49.93 97.58 50.28 96.99 50.62 96.87 50.97 96.28 51.31 97.22 51.66 95.92 52.01 94.38 52.35 94.85 52.7 94.62 53.04 94.85 53.39 96.75 53.73 96.63 54.08 100.66 54.43 99.59 54.77 98.29 55.12 94.73 55.46 95.92 55.81 96.99 56.16 96.39 56.5 96.63 56.85 93.79 57.19 93.79 57.54 96.51 57.88 97.58 58.23 99.59 58.58 101.49 58.92 100.19 59.27 99.71 59.61 100.3 59.96 99.71 60.3 97.82 60.65 102.08 61 100.9 61.34 99.36 61.69 98.17 62.03 96.99 62.38 97.82 62.73 98.65 63.07 99.95 63.42 97.58 63.76 100.19 64.11 98.53 64.45 99.59 64.8 100.54 65.15 102.91 65.49 105.04 65.84 107.53 66.18 108.84 66.53 108.72 66.87 106.82 67.22 107.53 67.57 109.07 67.91 109.19 68.26 108.01 68.6 108.48 68.95 107.53 69.3 106.11 69.64 104.57 69.99 105.04 70.33 102.91 70.68 104.57 71.02 105.16 71.37 106.58 71.72 103.98 72.06 101.73 72.41 102.79 72.75 101.84 73.1 99.24 73.44 99.24 73.79 99.12 74.14 94.26 74.48 96.63 74.83 96.63 75.17 96.16 75.52 96.04 75.87 96.51 76.21 94.02 76.56 95.92 76.9 97.82 77.25 96.87 77.59 98.65 77.94 96.16 78.29 98.05 78.63 99.95 78.98 102.91 79.32 102.67 79.67 101.61 80.01 101.73 80.36 102.2 80.71 102.67 81.05 106.58 81.4 108.48 81.74 109.07 82.09 109.67 82.44 109.31 82.78 109.31 83.13 109.78 83.47 110.02 83.82 113.1 84.16 113.81 84.51 114.29 84.86 113.58 85.2 112.51 85.55 108.95 85.89 108.24 86.24 106.7 86.58 104.45 86.93 103.86 87.28 103.86 87.62 101.02 87.97 100.66 88.31 102.56 88.66 100.9 89.01 100.9 89.35 100.19 89.7 98.76 90.04 99 90.39 96.04 90.73 97.46 91.08 101.02 91.43 101.02 91.77 99.83 92.12 97.1 92.46 99.71 92.81 99.71 93.15 100.9 93.5 101.96 93.85 102.79 94.19 100.78 94.54 97.1 94.88 97.7 95.23 97.58 95.58 95.56 95.92 98.76 96.27 99.24 96.61 96.99 96.96 94.38 97.3 91.65 97.65 88.22 98 87.62 98.34 85.85 98.69 87.62 99.03 87.27 99.38 87.03 99.72 85.61 100.07 84.07 100.42 83.48 100.76 84.19 101.11 88.1 101.45 87.86 101.8 87.15 102.15 86.91 102.49 88.69 102.84 91.42 103.18 90.11 103.53 90.82 103.87 90.59 104.22 90.94 104.57 90.11 104.91 89.05 105.26 90.94 105.6 92.72 105.95 91.18 106.29 93.43 106.64 93.67 106.99 94.38 107.33 95.68 107.68 95.09 108.02 95.45 108.37 97.1 108.72 96.63 109.06 97.58 109.41 98.41 109.75 95.56 110.1 98.65 110.44 101.25 110.79 101.61 111.14 98.65 111.48 96.04 111.83 97.22 112.17 96.04 112.52 95.21 112.86 97.93 113.21 97.1 113.56 95.68 113.9 96.04 114.25 93.19 114.59 90.82 114.94 90.82 115.29 92.96 115.63 92.48 115.98 92.6 116.32 91.89 116.67 89.76 117.01 90.23 117.36 92.25 117.71 92.13 118.05 91.42 118.4 90.11 118.74 90.47 119.09 93.79 119.43 95.21 119.78 94.5 120.13 94.02 120.47 91.53 120.82 93.55 121.16 92.48 121.51 92.72 121.86 91.53 122.2 91.53 122.55 91.18 122.89 94.97 123.24 94.62 123.58 94.5 123.93 92.48 124.28 91.42 124.62 92.48 124.97 89.64 125.31 89.16 125.66 88.34 126 87.86 126.35 88.93 126.7 89.76 127.04 89.52 127.39 91.77 127.73 95.56 128.08 96.87 128.43 97.46 128.77 95.21 129.12 96.99 129.46 96.75 129.81 95.8 130.15 95.45 130.5 96.39 130.85 96.99 131.19 95.09 131.54 98.88 131.88 99 132.23 101.49 132.57 105.28 132.92 103.27 133.27 102.32 133.61 101.02 133.96 101.02 134.3 103.27 134.65 101.84 135 102.91 135.34 101.73 135.69 99.24 136.03 101.96 136.38 99.59 136.72 103.86 137.07 103.27 137.42 101.49 137.76 99.83 138.11 99.24 138.45 100.54 138.8 101.49 139.14 100.54 139.49 101.84 139.84 99.36 140.18 96.51 140.53 98.17 140.87 97.58 141.22 95.8 141.57 93.79 141.91 90.11 142.26 90.11 142.6 89.64 142.95 91.06 143.29 90.47 143.64 91.53 143.99 91.89 144.33 91.89 144.68 92.13 145.02 88.81 145.37 89.76 145.71 89.88 146.06 91.06 146.41 90.59 146.75 91.77 147.1 92.01 147.44 93.67 147.79 95.92 148.14 95.45 148.48 96.04 148.83 95.92 149.17 95.09 149.52 94.62 149.86 92.13 150.21 96.99 150.56 98.41 150.9 98.17 151.25 96.51 151.59 99.47 151.94 99.36 152.28 96.51 152.63 94.26 152.98 96.87 153.32 97.22 153.67 95.92 154.01 95.09 154.36 94.02 154.71 93.79 155.05 96.63 155.4 97.93 155.74 94.97 156.09 94.38 156.43 94.62 156.78 93.08 157.13 94.97 157.47 94.26 157.82 95.33 158.16 97.46 158.51 100.3 158.85 101.73 159.2 101.96 159.55 100.78 159.89 100.3 160.24 102.56 160.58 103.62 160.93 102.32 161.28 105.04 161.62 106.23 161.97 106.82 162.31 110.38 162.66 110.97 163 111.56 163.35 113.1 163.7 115.12 164.04 116.42 164.39 117.01 164.73 119.03 165.08 117.84 165.42 118.91 165.77 119.15 166.12 118.55 166.46 118.91 166.81 119.86 167.15 121.04 167.5 120.57 167.85 120.92 168.19 120.92 168.54 119.62 168.88 118.55 169.23 119.74 169.57 120.69 169.92 121.99 170.27 123.06 170.61 121.4 170.96 119.86 171.3 120.09 171.65 121.04 171.99 120.81 172.34 120.45 172.69 120.69 173.03 120.92 173.38 121.04 173.72 121.63 174.07 120.69 174.42 121.28 174.76 120.45 175.11 119.5 175.45 121.28 175.8 123.41 176.14 123.77 176.49 124.12 176.84 125.07 177.18 125.31 177.53 125.19 177.87 125.9 178.22 125.9 178.56 125.66 178.91 126.49 179.26 126.97 179.6 127.09 179.95 126.85 180.29 127.09 180.64 127.2 180.99 126.37 181.33 127.2 181.68 128.74 182.02 128.15 182.37 128.15 182.71 128.39 183.06 128.39 183.41 128.27 183.75 127.2 184.1 127.32 184.44 128.74 184.79 128.74 185.13 129.1 185.48 129.1 185.83 128.39 186.17 127.92 186.52 128.15 186.86 128.63 187.21 129.93 187.56 129.57 187.9 129.46 188.25 129.93 188.59 130.05 188.94 130.29 189.28 130.4 189.63 130.17 189.98 129.93 190.32 129.69 190.67 129.69 191.01 130.4 191.36 130.52 191.7 130.05 192.05 130.52 192.4 130.4 192.74 130.52 193.09 130.17 193.43 130.05 193.78 130.88 194.13 130.88 194.47 130.64 194.82 130.52 195.16 130.4 195.51 130.52 195.85 130.88 196.2 130.76"/>
      </g>
      <g stroke-width="0.3" fill="#000000" fill-opacity="0.000" class="geometry" stroke-dasharray="none" stroke="#FEE08B" id="img-843739b0-15">
        <path fill="none" d="M23.65,77.79 L 24 76.48 24.34 74 24.69 72.46 25.03 73.88 25.38 74.94 25.73 77.08 26.07 77.08 26.42 76.37 26.76 78.03 27.11 78.03 27.45 77.2 27.8 78.74 28.15 78.5 28.49 76.84 28.84 75.3 29.18 77.43 29.53 77.79 29.88 77.91 30.22 75.77 30.57 76.84 30.91 78.03 31.26 77.31 31.6 77.2 31.95 77.43 32.3 78.97 32.64 78.86 32.99 78.97 33.33 78.86 33.68 81.11 34.02 84.07 34.37 84.07 34.72 86.08 35.06 85.97 35.41 88.22 35.75 88.57 36.1 89.4 36.45 87.74 36.79 89.05 37.14 87.98 37.48 85.85 37.83 85.02 38.17 83.6 38.52 82.41 38.87 81.11 39.21 83 39.56 84.19 39.9 85.14 40.25 82.88 40.59 84.9 40.94 85.49 41.29 88.22 41.63 84.31 41.98 83 42.32 80.87 42.67 81.82 43.02 81.82 43.36 83 43.71 82.17 44.05 80.63 44.4 80.28 44.74 80.16 45.09 81.11 45.44 82.77 45.78 81.11 46.13 83.12 46.47 83 46.82 84.31 47.16 83.12 47.51 80.04 47.86 82.65 48.2 81.94 48.55 81.11 48.89 81.46 49.24 77.08 49.59 74.83 49.93 77.31 50.28 78.74 50.62 77.31 50.97 77.08 51.31 77.79 51.66 74.59 52.01 74.83 52.35 74 52.7 73.64 53.04 72.93 53.39 75.3 53.73 75.3 54.08 77.08 54.43 78.26 54.77 79.45 55.12 80.75 55.46 82.53 55.81 81.46 56.16 81.58 56.5 81.11 56.85 79.8 57.19 78.38 57.54 76.25 57.88 76.13 58.23 77.08 58.58 76.96 58.92 76.37 59.27 74.94 59.61 74.94 59.96 73.05 60.3 74 60.65 75.66 61 77.08 61.34 77.08 61.69 77.67 62.03 75.3 62.38 71.74 62.73 70.09 63.07 71.03 63.42 72.1 63.76 73.88 64.11 75.66 64.45 78.86 64.8 76.37 65.15 76.72 65.49 76.96 65.84 75.3 66.18 76.01 66.53 75.42 66.87 75.3 67.22 74.23 67.57 73.17 67.91 71.63 68.26 71.51 68.6 71.63 68.95 72.81 69.3 71.63 69.64 70.68 69.99 70.56 70.33 72.69 70.68 72.22 71.02 72.81 71.37 71.39 71.72 69.97 72.06 69.49 72.41 71.03 72.75 69.85 73.1 70.09 73.44 68.43 73.79 64.75 74.14 64.04 74.48 62.15 74.83 61.32 75.17 63.33 75.52 65.58 75.87 65.23 76.21 66.77 76.56 65.82 76.9 71.27 77.25 68.78 77.59 70.44 77.94 69.85 78.29 69.37 78.63 70.8 78.98 68.78 79.32 70.56 79.67 72.46 80.01 70.32 80.36 71.98 80.71 69.02 81.05 66.06 81.4 66.18 81.74 64.63 82.09 64.63 82.44 64.52 82.78 63.45 83.13 64.04 83.47 61.55 83.82 61.55 84.16 59.89 84.51 60.96 84.86 60.13 85.2 60.37 85.55 58.35 85.89 57.17 86.24 56.34 86.58 53.61 86.93 56.22 87.28 55.75 87.62 55.39 87.97 54.56 88.31 54.56 88.66 56.22 89.01 59.18 89.35 60.01 89.7 59.78 90.04 59.3 90.39 59.06 90.73 60.84 91.08 62.5 91.43 65.58 91.77 64.52 92.12 62.03 92.46 60.96 92.81 60.72 93.15 62.98 93.5 63.69 93.85 65.94 94.19 64.4 94.54 63.45 94.88 64.87 95.23 61.79 95.58 60.49 95.92 60.37 96.27 58.47 96.61 59.78 96.96 59.06 97.3 60.49 97.65 60.25 98 59.18 98.34 59.06 98.69 59.54 99.03 57.76 99.38 56.69 99.72 59.18 100.07 58.71 100.42 57.52 100.76 58.59 101.11 58 101.45 58.35 101.8 56.69 102.15 58.71 102.49 59.42 102.84 61.44 103.18 64.04 103.53 66.06 103.87 68.43 104.22 65.94 104.57 67 104.91 68.9 105.26 68.43 105.6 68.31 105.95 67.36 106.29 67.6 106.64 66.65 106.99 65.7 107.33 63.21 107.68 63.09 108.02 65.7 108.37 66.41 108.72 65.94 109.06 64.4 109.41 65.46 109.75 64.04 110.1 64.63 110.44 62.5 110.79 61.55 111.14 60.37 111.48 59.42 111.83 61.32 112.17 62.03 112.52 62.15 112.86 66.29 113.21 65.58 113.56 67.72 113.9 68.66 114.25 72.22 114.59 73.52 114.94 72.34 115.29 69.49 115.63 69.26 115.98 71.15 116.32 69.37 116.67 68.9 117.01 67.24 117.36 66.41 117.71 64.99 118.05 64.52 118.4 66.18 118.74 65.46 119.09 63.09 119.43 59.3 119.78 60.37 120.13 58.24 120.47 60.61 120.82 56.34 121.16 57.41 121.51 57.29 121.86 58.95 122.2 61.2 122.55 62.5 122.89 60.01 123.24 57.41 123.58 59.18 123.93 60.72 124.28 61.67 124.62 63.33 124.97 62.86 125.31 63.57 125.66 62.26 126 61.91 126.35 62.03 126.7 64.04 127.04 64.04 127.39 63.92 127.73 61.79 128.08 61.44 128.43 63.45 128.77 63.81 129.12 65.46 129.46 64.87 129.81 65.11 130.15 62.62 130.5 64.04 130.85 64.04 131.19 63.81 131.54 68.55 131.88 65.46 132.23 66.06 132.57 63.92 132.92 63.33 133.27 62.26 133.61 60.01 133.96 58.47 134.3 56.93 134.65 56.69 135 58 135.34 56.69 135.69 58 136.03 58.12 136.38 55.15 136.72 53.73 137.07 53.73 137.42 54.8 137.76 55.63 138.11 53.73 138.45 55.39 138.8 57.29 139.14 57.88 139.49 59.89 139.84 60.96 140.18 58.71 140.53 58.35 140.87 60.13 141.22 62.62 141.57 58.83 141.91 59.3 142.26 62.03 142.6 60.72 142.95 59.3 143.29 60.49 143.64 61.79 143.99 60.25 144.33 60.84 144.68 59.78 145.02 61.32 145.37 64.52 145.71 62.86 146.06 60.13 146.41 61.55 146.75 62.38 147.1 63.69 147.44 62.38 147.79 61.2 148.14 59.42 148.48 59.18 148.83 58.47 149.17 57.17 149.52 55.98 149.86 56.34 150.21 56.46 150.56 54.44 150.9 56.1 151.25 55.51 151.59 57.88 151.94 59.18 152.28 60.37 152.63 61.2 152.98 63.45 153.32 67 153.67 67.83 154.01 69.26 154.36 68.31 154.71 68.55 155.05 68.43 155.4 70.09 155.74 72.22 156.09 75.77 156.43 76.84 156.78 79.92 157.13 81.23 157.47 80.75 157.82 82.29 158.16 81.7 158.51 82.17 158.85 83.83 159.2 83.12 159.55 82.88 159.89 84.9 160.24 84.19 160.58 82.65 160.93 82.65 161.28 83.95 161.62 82.65 161.97 82.29 162.31 84.07 162.66 80.99 163 84.54 163.35 86.2 163.7 83.83 164.04 83.83 164.39 84.42 164.73 84.9 165.08 86.08 165.42 87.74 165.77 90.35 166.12 88.93 166.46 90.59 166.81 92.25 167.15 89.99 167.5 91.65 167.85 91.06 168.19 89.05 168.54 86.2 168.88 85.61 169.23 82.41 169.57 81.46 169.92 82.41 170.27 84.19 170.61 85.37 170.96 84.78 171.3 84.66 171.65 82.29 171.99 80.28 172.34 79.45 172.69 80.63 173.03 79.68 173.38 77.08 173.72 76.13 174.07 76.84 174.42 76.48 174.76 76.01 175.11 75.77 175.45 77.43 175.8 79.8 176.14 77.79 176.49 78.62 176.84 77.67 177.18 78.38 177.53 81.7 177.87 84.19 178.22 80.63 178.56 76.72 178.91 75.66 179.26 76.37 179.6 76.13 179.95 77.79 180.29 80.51 180.64 80.63 180.99 80.99 181.33 81.34 181.68 81.34 182.02 81.82 182.37 81.34 182.71 82.05 183.06 81.46 183.41 80.51 183.75 80.28 184.1 80.4 184.44 81.46 184.79 83.83 185.13 83.71 185.48 84.19 185.83 85.97 186.17 84.9 186.52 84.19 186.86 87.15 187.21 83.71 187.56 85.14 187.9 81.94 188.25 83.12 188.59 83.6 188.94 83.12 189.28 82.41 189.63 81.23 189.98 82.29 190.32 83.24 190.67 79.45 191.01 79.21 191.36 78.38 191.7 79.45 192.05 77.31 192.4 77.55 192.74 76.48 193.09 76.72 193.43 76.96 193.78 78.5 194.13 75.66 194.47 74.59 194.82 76.13 195.16 74.47 195.51 72.46 195.85 73.05 196.2 78.14"/>
      </g>
      <g stroke-width="0.3" fill="#000000" fill-opacity="0.000" class="geometry" stroke-dasharray="none" stroke="#FDAE61" id="img-843739b0-16">
        <path fill="none" d="M23.65,77.79 L 24 82.05 24.34 84.31 24.69 85.61 25.03 86.79 25.38 84.42 25.73 88.93 26.07 89.28 26.42 87.74 26.76 88.22 27.11 85.61 27.45 83 27.8 80.16 28.15 80.75 28.49 81.34 28.84 81.11 29.18 79.57 29.53 79.09 29.88 78.5 30.22 75.42 30.57 77.2 30.91 77.43 31.26 75.54 31.6 74.94 31.95 74.59 32.3 71.98 32.64 71.74 32.99 73.64 33.33 73.29 33.68 75.3 34.02 73.29 34.37 73.76 34.72 73.52 35.06 73.88 35.41 72.81 35.75 76.48 36.1 77.43 36.45 79.68 36.79 79.33 37.14 81.82 37.48 81.34 37.83 80.28 38.17 83.71 38.52 85.25 38.87 88.22 39.21 86.79 39.56 88.69 39.9 88.34 40.25 89.88 40.59 91.3 40.94 90.94 41.29 90.35 41.63 85.85 41.98 86.79 42.32 86.91 42.67 87.39 43.02 87.27 43.36 87.86 43.71 88.34 44.05 90.11 44.4 88.81 44.74 89.4 45.09 85.14 45.44 83.95 45.78 83.95 46.13 84.07 46.47 84.19 46.82 83.12 47.16 85.14 47.51 86.91 47.86 83.95 48.2 82.29 48.55 84.19 48.89 82.88 49.24 82.77 49.59 82.77 49.93 82.65 50.28 83.83 50.62 83.24 50.97 82.53 51.31 87.15 51.66 86.79 52.01 85.02 52.35 87.27 52.7 85.97 53.04 82.88 53.39 82.88 53.73 86.79 54.08 88.57 54.43 90.11 54.77 88.81 55.12 88.22 55.46 89.64 55.81 87.51 56.16 87.27 56.5 87.39 56.85 87.03 57.19 87.27 57.54 87.51 57.88 83.48 58.23 83.83 58.58 85.25 58.92 85.25 59.27 85.14 59.61 85.14 59.96 83.95 60.3 81.34 60.65 81.11 61 80.75 61.34 84.66 61.69 82.17 62.03 83.95 62.38 84.07 62.73 84.31 63.07 84.54 63.42 86.91 63.76 86.08 64.11 88.45 64.45 89.88 64.8 88.93 65.15 89.88 65.49 89.4 65.84 90.35 66.18 89.76 66.53 91.18 66.87 91.53 67.22 89.88 67.57 88.45 67.91 88.45 68.26 87.98 68.6 88.81 68.95 87.03 69.3 85.25 69.64 85.14 69.99 86.32 70.33 88.22 70.68 85.73 71.02 85.97 71.37 85.25 71.72 85.73 72.06 87.15 72.41 87.98 72.75 89.16 73.1 89.99 73.44 90.94 73.79 90.71 74.14 94.14 74.48 94.26 74.83 95.21 75.17 94.62 75.52 95.21 75.87 94.02 76.21 94.97 76.56 92.13 76.9 91.65 77.25 92.84 77.59 96.04 77.94 96.04 78.29 97.82 78.63 100.9 78.98 101.02 79.32 101.02 79.67 102.32 80.01 100.9 80.36 100.42 80.71 100.66 81.05 99.24 81.4 98.76 81.74 100.54 82.09 98.76 82.44 99.95 82.78 96.63 83.13 96.87 83.47 96.04 83.82 94.5 84.16 93.31 84.51 91.18 84.86 89.99 85.2 88.69 85.55 85.25 85.89 84.07 86.24 82.88 86.58 83.24 86.93 79.8 87.28 79.09 87.62 79.57 87.97 80.04 88.31 77.67 88.66 76.13 89.01 75.66 89.35 76.6 89.7 77.08 90.04 77.79 90.39 77.31 90.73 79.33 91.08 79.09 91.43 81.58 91.77 82.29 92.12 81.82 92.46 81.11 92.81 81.23 93.15 79.57 93.5 80.04 93.85 76.96 94.19 76.96 94.54 77.67 94.88 76.72 95.23 75.18 95.58 78.03 95.92 75.18 96.27 77.67 96.61 75.18 96.96 78.5 97.3 79.21 97.65 79.68 98 75.89 98.34 75.06 98.69 77.55 99.03 75.54 99.38 72.81 99.72 74.59 100.07 76.25 100.42 76.84 100.76 77.31 101.11 78.03 101.45 74.83 101.8 76.6 102.15 76.6 102.49 77.08 102.84 75.54 103.18 74.47 103.53 73.05 103.87 72.1 104.22 73.29 104.57 71.74 104.91 70.44 105.26 71.39 105.6 71.39 105.95 72.1 106.29 72.81 106.64 73.17 106.99 73.52 107.33 72.46 107.68 71.86 108.02 74.94 108.37 75.66 108.72 74.35 109.06 76.13 109.41 77.31 109.75 76.6 110.1 76.13 110.44 75.06 110.79 76.13 111.14 74.35 111.48 76.01 111.83 78.14 112.17 77.55 112.52 79.57 112.86 80.75 113.21 81.23 113.56 79.92 113.9 79.21 114.25 80.75 114.59 84.31 114.94 82.17 115.29 83.83 115.63 83.83 115.98 88.45 116.32 89.88 116.67 91.3 117.01 92.6 117.36 95.45 117.71 93.43 118.05 97.22 118.4 95.8 118.74 98.65 119.09 96.75 119.43 99.59 119.78 100.3 120.13 98.88 120.47 98.53 120.82 98.65 121.16 98.05 121.51 98.29 121.86 98.41 122.2 98.41 122.55 94.5 122.89 96.39 123.24 93.31 123.58 92.13 123.93 92.6 124.28 93.08 124.62 92.48 124.97 93.79 125.31 94.5 125.66 94.5 126 94.97 126.35 96.28 126.7 96.51 127.04 97.46 127.39 97.46 127.73 92.96 128.08 94.62 128.43 93.67 128.77 91.53 129.12 93.19 129.46 95.09 129.81 95.8 130.15 98.88 130.5 99.59 130.85 96.63 131.19 95.8 131.54 95.8 131.88 97.22 132.23 97.93 132.57 99.36 132.92 99.83 133.27 99.71 133.61 100.07 133.96 101.73 134.3 100.3 134.65 100.9 135 102.2 135.34 101.13 135.69 102.79 136.03 102.08 136.38 101.25 136.72 103.03 137.07 103.03 137.42 102.67 137.76 103.62 138.11 103.27 138.45 103.27 138.8 104.45 139.14 106.7 139.49 106.94 139.84 106.82 140.18 107.89 140.53 109.55 140.87 109.19 141.22 107.53 141.57 107.53 141.91 110.26 142.26 109.19 142.6 106.47 142.95 105.52 143.29 106.47 143.64 105.87 143.99 103.98 144.33 106.11 144.68 106.23 145.02 109.19 145.37 107.06 145.71 108.36 146.06 109.31 146.41 107.41 146.75 109.43 147.1 109.07 147.44 108.13 147.79 108.84 148.14 108.24 148.48 108.72 148.83 109.78 149.17 109.9 149.52 108.01 149.86 106.94 150.21 104.93 150.56 106.23 150.9 108.6 151.25 110.5 151.59 110.97 151.94 112.98 152.28 112.04 152.63 111.92 152.98 111.44 153.32 110.97 153.67 110.85 154.01 111.32 154.36 112.63 154.71 113.58 155.05 112.04 155.4 113.93 155.74 113.58 156.09 114.41 156.43 115.12 156.78 114.64 157.13 115.35 157.47 116.89 157.82 118.44 158.16 118.2 158.51 117.49 158.85 117.37 159.2 115.47 159.55 114.76 159.89 112.87 160.24 111.56 160.58 109.55 160.93 109.55 161.28 109.78 161.62 108.6 161.97 109.07 162.31 111.44 162.66 111.56 163 112.98 163.35 113.22 163.7 115.24 164.04 115.35 164.39 114.17 164.73 113.34 165.08 113.46 165.42 113.81 165.77 115.35 166.12 114.17 166.46 114.17 166.81 116.18 167.15 116.07 167.5 115.24 167.85 114.88 168.19 114.52 168.54 115 168.88 114.52 169.23 112.63 169.57 112.51 169.92 112.39 170.27 111.56 170.61 110.61 170.96 109.07 171.3 108.48 171.65 108.36 171.99 106.23 172.34 105.52 172.69 106.35 173.03 107.53 173.38 107.3 173.72 108.36 174.07 108.24 174.42 107.77 174.76 111.09 175.11 111.32 175.45 112.15 175.8 109.9 176.14 108.72 176.49 108.36 176.84 106.7 177.18 104.69 177.53 104.1 177.87 105.4 178.22 103.98 178.56 105.16 178.91 104.69 179.26 107.41 179.6 107.41 179.95 104.81 180.29 106.47 180.64 105.99 180.99 103.62 181.33 102.32 181.68 100.07 182.02 101.13 182.37 102.08 182.71 103.27 183.06 101.61 183.41 101.13 183.75 98.88 184.1 101.13 184.44 100.78 184.79 99.95 185.13 100.9 185.48 100.07 185.83 100.3 186.17 102.44 186.52 101.37 186.86 101.73 187.21 102.08 187.56 103.27 187.9 105.04 188.25 103.5 188.59 102.56 188.94 102.91 189.28 104.69 189.63 102.91 189.98 103.74 190.32 107.06 190.67 106.11 191.01 106.35 191.36 106.58 191.7 106.82 192.05 107.77 192.4 108.36 192.74 109.55 193.09 111.21 193.43 113.1 193.78 112.15 194.13 113.58 194.47 113.93 194.82 115.12 195.16 116.66 195.51 117.01 195.85 115.95 196.2 116.89"/>
      </g>
      <g stroke-width="0.3" fill="#000000" fill-opacity="0.000" class="geometry" stroke-dasharray="none" stroke="#F46D43" id="img-843739b0-17">
        <path fill="none" d="M23.65,77.79 L 24 78.26 24.34 75.06 24.69 75.66 25.03 75.3 25.38 77.67 25.73 76.72 26.07 75.3 26.42 76.72 26.76 76.72 27.11 74 27.45 76.13 27.8 74.94 28.15 76.84 28.49 78.97 28.84 77.43 29.18 78.86 29.53 76.48 29.88 79.09 30.22 79.21 30.57 74.94 30.91 75.89 31.26 73.05 31.6 73.29 31.95 74.83 32.3 75.18 32.64 77.79 32.99 75.54 33.33 74.35 33.68 73.76 34.02 71.03 34.37 68.55 34.72 73.29 35.06 73.17 35.41 72.57 35.75 72.1 36.1 74 36.45 72.34 36.79 72.81 37.14 73.88 37.48 74.23 37.83 74.59 38.17 73.88 38.52 75.77 38.87 75.66 39.21 78.62 39.56 76.13 39.9 70.68 40.25 72.81 40.59 72.22 40.94 71.74 41.29 74.11 41.63 76.25 41.98 78.74 42.32 80.99 42.67 80.63 43.02 80.87 43.36 81.23 43.71 83.48 44.05 82.77 44.4 85.61 44.74 85.97 45.09 83.95 45.44 81.11 45.78 78.74 46.13 79.57 46.47 77.55 46.82 77.67 47.16 78.97 47.51 78.38 47.86 80.51 48.2 79.57 48.55 80.87 48.89 82.41 49.24 84.19 49.59 87.98 49.93 86.56 50.28 85.49 50.62 86.32 50.97 88.45 51.31 88.57 51.66 89.64 52.01 91.18 52.35 90.82 52.7 87.15 53.04 86.79 53.39 83.12 53.73 82.53 54.08 82.77 54.43 83.71 54.77 84.07 55.12 81.82 55.46 81.23 55.81 83.95 56.16 83.83 56.5 83.12 56.85 84.66 57.19 83.48 57.54 85.25 57.88 88.22 58.23 89.4 58.58 90.23 58.92 91.06 59.27 91.06 59.61 96.87 59.96 95.09 60.3 96.51 60.65 96.04 61 96.87 61.34 98.76 61.69 98.76 62.03 98.41 62.38 96.16 62.73 92.6 63.07 93.19 63.42 90.82 63.76 88.57 64.11 88.34 64.45 90.11 64.8 90.47 65.15 92.01 65.49 92.96 65.84 91.77 66.18 88.22 66.53 91.18 66.87 90.82 67.22 92.6 67.57 92.6 67.91 93.55 68.26 92.13 68.6 92.72 68.95 91.18 69.3 91.18 69.64 90.35 69.99 89.88 70.33 91.89 70.68 90.71 71.02 94.73 71.37 95.92 71.72 96.39 72.06 97.34 72.41 96.51 72.75 99.71 73.1 100.42 73.44 100.54 73.79 99.59 74.14 101.61 74.48 101.61 74.83 103.15 75.17 106.7 75.52 105.16 75.87 107.41 76.21 107.3 76.56 108.48 76.9 108.13 77.25 108.13 77.59 107.53 77.94 107.41 78.29 106.7 78.63 107.89 78.98 109.07 79.32 107.65 79.67 106.94 80.01 110.38 80.36 108.84 80.71 109.78 81.05 107.89 81.4 106.35 81.74 107.18 82.09 108.01 82.44 107.65 82.78 107.65 83.13 108.24 83.47 108.24 83.82 108.95 84.16 109.31 84.51 110.02 84.86 111.56 85.2 112.75 85.55 110.85 85.89 111.68 86.24 113.1 86.58 110.85 86.93 112.39 87.28 112.98 87.62 113.93 87.97 116.78 88.31 117.49 88.66 118.08 89.01 118.08 89.35 116.07 89.7 116.54 90.04 114.52 90.39 114.41 90.73 113.93 91.08 114.41 91.43 115.12 91.77 114.76 92.12 115.24 92.46 114.88 92.81 116.89 93.15 114.29 93.5 112.75 93.85 111.32 94.19 111.21 94.54 111.68 94.88 110.14 95.23 110.5 95.58 110.14 95.92 108.95 96.27 106.23 96.61 107.65 96.96 108.24 97.3 108.24 97.65 108.24 98 107.18 98.34 108.36 98.69 110.02 99.03 112.75 99.38 114.76 99.72 116.42 100.07 116.18 100.42 118.08 100.76 117.72 101.11 118.2 101.45 117.37 101.8 117.37 102.15 117.37 102.49 116.07 102.84 115.71 103.18 115.35 103.53 116.42 103.87 117.37 104.22 116.42 104.57 118.67 104.91 119.5 105.26 121.87 105.6 122.82 105.95 123.29 106.29 124.36 106.64 123.89 106.99 125.66 107.33 125.78 107.68 125.66 108.02 124.95 108.37 125.31 108.72 124.83 109.06 123.18 109.41 123.41 109.75 123.18 110.1 124.6 110.44 125.07 110.79 126.26 111.14 126.37 111.48 125.55 111.83 125.9 112.17 127.44 112.52 126.14 112.86 126.85 113.21 127.09 113.56 127.09 113.9 127.56 114.25 128.27 114.59 129.1 114.94 129.57 115.29 129.81 115.63 130.17 115.98 130.4 116.32 130.76 116.67 131.11"/>
      </g>
      <g stroke-width="0.3" fill="#000000" fill-opacity="0.000" class="geometry" stroke-dasharray="none" stroke="#D53E4F" id="img-843739b0-18">
        <path fill="none" d="M23.65,77.79 L 24 77.2 24.34 80.75 24.69 80.51 25.03 81.46 25.38 83.71 25.73 82.05 26.07 80.51 26.42 81.7 26.76 82.05 27.11 81.82 27.45 81.58 27.8 81.23 28.15 83 28.49 82.41 28.84 81.7 29.18 81.7 29.53 81.7 29.88 79.57 30.22 80.28 30.57 80.51 30.91 78.26 31.26 75.42 31.6 74 31.95 75.77 32.3 74.35 32.64 72.81 32.99 72.81 33.33 74.11 33.68 73.76 34.02 74.35 34.37 73.52 34.72 70.68 35.06 69.49 35.41 69.97 35.75 69.14 36.1 69.61 36.45 72.69 36.79 73.88 37.14 71.86 37.48 72.22 37.83 72.81 38.17 72.81 38.52 74.59 38.87 75.77 39.21 78.74 39.56 76.48 39.9 75.77 40.25 74.94 40.59 76.84 40.94 75.77 41.29 74 41.63 75.06 41.98 74 42.32 71.63 42.67 71.39 43.02 71.51 43.36 69.14 43.71 68.9 44.05 66.77 44.4 66.29 44.74 69.14 45.09 66.65 45.44 65.35 45.78 65.82 46.13 66.89 46.47 66.89 46.82 65.7 47.16 65.35 47.51 63.33 47.86 62.62 48.2 63.57 48.55 64.99 48.89 61.79 49.24 61.08 49.59 65.94 49.93 65.23 50.28 65.23 50.62 62.62 50.97 60.49 51.31 62.38 51.66 60.37 52.01 57.52 52.35 54.68 52.7 57.76 53.04 57.05 53.39 57.64 53.73 56.81 54.08 56.69 54.43 55.75 54.77 56.93 55.12 57.17 55.46 58.35 55.81 60.49 56.16 60.84 56.5 60.61 56.85 61.67 57.19 63.57 57.54 63.81 57.88 64.52 58.23 66.29 58.58 67 58.92 64.99 59.27 65.7 59.61 64.99 59.96 62.62 60.3 63.57 60.65 67.6 61 70.8 61.34 72.1 61.69 72.57 62.03 74.83 62.38 72.46 62.73 69.37 63.07 71.27 63.42 72.34 63.76 73.4 64.11 73.4 64.45 75.42 64.8 73.29 65.15 74.35 65.49 75.54 65.84 71.98 66.18 71.86 66.53 70.92 66.87 65.46 67.22 65.94 67.57 69.14 67.91 67.72 68.26 69.02 68.6 67.83 68.95 63.69 69.3 66.41 69.64 66.41 69.99 67.24 70.33 68.43 70.68 69.97 71.02 71.27 71.37 68.78 71.72 69.85 72.06 68.31 72.41 67.48 72.75 68.55 73.1 67.83 73.44 67.83 73.79 70.09 74.14 70.09 74.48 72.1 74.83 70.56 75.17 71.74 75.52 72.34 75.87 70.92 76.21 70.56 76.56 74.47 76.9 75.66 77.25 74.83 77.59 76.96 77.94 77.08 78.29 74 78.63 72.34 78.98 71.27 79.32 72.69 79.67 72.46 80.01 76.37 80.36 74.83 80.71 76.37 81.05 76.96 81.4 77.67 81.74 78.86 82.09 78.62 82.44 77.67 82.78 77.79 83.13 78.62 83.47 75.3 83.82 74.35 84.16 74.47 84.51 78.38 84.86 77.67 85.2 77.91 85.55 76.96 85.89 80.51 86.24 80.99 86.58 79.45 86.93 80.99 87.28 78.62 87.62 78.14 87.97 77.67 88.31 79.57 88.66 76.84 89.01 76.72 89.35 73.64 89.7 71.74 90.04 69.61 90.39 67.24 90.73 67.6 91.08 70.92 91.43 69.26 91.77 70.2 92.12 67 92.46 68.43 92.81 70.32 93.15 70.68 93.5 70.44 93.85 72.81 94.19 72.1 94.54 72.93 94.88 74.71 95.23 74.59 95.58 75.3 95.92 75.18 96.27 73.05 96.61 76.72 96.96 74.71 97.3 74 97.65 73.29 98 74.94 98.34 73.64 98.69 72.1 99.03 71.39 99.38 73.29 99.72 71.51 100.07 69.61 100.42 70.09 100.76 67.83 101.11 68.07 101.45 67.83 101.8 66.29 102.15 68.19 102.49 68.55 102.84 68.66 103.18 68.43 103.53 67.6 103.87 71.39 104.22 69.49 104.57 70.32 104.91 69.85 105.26 68.66 105.6 71.51 105.95 70.32 106.29 71.03 106.64 72.1 106.99 69.73 107.33 70.92 107.68 71.74 108.02 72.57 108.37 71.03 108.72 69.73 109.06 71.15 109.41 72.22 109.75 75.18 110.1 74.59 110.44 73.17 110.79 73.76 111.14 72.1 111.48 77.2 111.83 77.31 112.17 79.33 112.52 81.34 112.86 81.82 113.21 79.8 113.56 76.01 113.9 76.13 114.25 78.14 114.59 76.6 114.94 76.48 115.29 75.3 115.63 78.86 115.98 78.26 116.32 80.4 116.67 78.5 117.01 78.62 117.36 78.38 117.71 76.01 118.05 76.72 118.4 77.55 118.74 76.37 119.09 74.71 119.43 70.8 119.78 69.85 120.13 66.89 120.47 62.98 120.82 65.35 121.16 63.92 121.51 64.75 121.86 69.02 122.2 69.37 122.55 66.29 122.89 67.24 123.24 69.73 123.58 70.56 123.93 67.6 124.28 64.87 124.62 66.29 124.97 70.44 125.31 68.66 125.66 71.39 126 73.76 126.35 71.86 126.7 72.22 127.04 73.88 127.39 73.64 127.73 74.59 128.08 74.47 128.43 72.34 128.77 74.23 129.12 76.84 129.46 75.54 129.81 77.79 130.15 77.08 130.5 77.2 130.85 73.05 131.19 76.96 131.54 79.68 131.88 79.09 132.23 80.28 132.57 78.62 132.92 81.46 133.27 83.6 133.61 83 133.96 83 134.3 83.24 134.65 83.12 135 83.48 135.34 86.44 135.69 83.24 136.03 82.29 136.38 83.83 136.72 83.12 137.07 81.82 137.42 80.4 137.76 82.41 138.11 81.94 138.45 84.07 138.8 83.48 139.14 82.65 139.49 81.82 139.84 84.31 140.18 82.88 140.53 85.14 140.87 86.44 141.22 85.61 141.57 84.19 141.91 84.19 142.26 84.42 142.6 83.95 142.95 82.05 143.29 81.23 143.64 84.19 143.99 84.66 144.33 83.36 144.68 86.08 145.02 85.97 145.37 82.17 145.71 81.94 146.06 82.53 146.41 79.8 146.75 79.8 147.1 77.91 147.44 79.45 147.79 79.33 148.14 77.67 148.48 78.14 148.83 79.92 149.17 81.82 149.52 76.37 149.86 79.45 150.21 77.67 150.56 75.3 150.9 76.6 151.25 79.8 151.59 80.87 151.94 81.58 152.28 80.63 152.63 79.33 152.98 80.16 153.32 77.08 153.67 76.84 154.01 78.74 154.36 80.4 154.71 81.82 155.05 81.46 155.4 83 155.74 86.08 156.09 85.14 156.43 85.73 156.78 84.78 157.13 85.61 157.47 87.74 157.82 87.27 158.16 87.27 158.51 85.02 158.85 86.56 159.2 87.86 159.55 83.95 159.89 84.31 160.24 81.23 160.58 83.36 160.93 83.83 161.28 83.12 161.62 85.73 161.97 84.31 162.31 82.88 162.66 82.77 163 83.48 163.35 84.42 163.7 83.95 164.04 84.31 164.39 85.14 164.73 86.2 165.08 85.14 165.42 84.9 165.77 87.15 166.12 89.99 166.46 90.71 166.81 90.47 167.15 91.77 167.5 92.01 167.85 92.96 168.19 91.89 168.54 94.14 168.88 93.19 169.23 92.48 169.57 93.19 169.92 90.82 170.27 93.43 170.61 92.6 170.96 93.9 171.3 96.16 171.65 98.05 171.99 99 172.34 98.05 172.69 97.93 173.03 95.33 173.38 94.97 173.72 94.38 174.07 98.88 174.42 99.59 174.76 102.56 175.11 99.24 175.45 99 175.8 99.24 176.14 101.96 176.49 101.73 176.84 97.7 177.18 96.99 177.53 97.46 177.87 101.25 178.22 104.81 178.56 103.03 178.91 101.02 179.26 101.37 179.6 101.02 179.95 103.39 180.29 101.02 180.64 100.66 180.99 102.32 181.33 103.03 181.68 100.78 182.02 99.12 182.37 102.44 182.71 106.82 183.06 106.11 183.41 106.94 183.75 108.13 184.1 108.6 184.44 106.23 184.79 108.48 185.13 107.18 185.48 106.47 185.83 107.77 186.17 108.01 186.52 106.47 186.86 104.21 187.21 104.69 187.56 105.28 187.9 102.32 188.25 102.2 188.59 101.61 188.94 101.61 189.28 100.42 189.63 102.2 189.98 100.19 190.32 97.93 190.67 96.51 191.01 97.58 191.36 95.21 191.7 94.14 192.05 98.53 192.4 99.12 192.74 97.7 193.09 96.75 193.43 99.12 193.78 99.36 194.13 98.17 194.47 99.12 194.82 99.59 195.16 102.08 195.51 101.84 195.85 104.93 196.2 105.87"/>
      </g>
      <g stroke-width="0.3" fill="#000000" fill-opacity="0.000" class="geometry" stroke-dasharray="none" stroke="#9E0142" id="img-843739b0-19">
        <path fill="none" d="M23.65,77.79 L 24 81.34 24.34 83.36 24.69 84.07 25.03 83.48 25.38 78.62 25.73 75.06 26.07 76.37 26.42 78.03 26.76 78.5 27.11 79.68 27.45 79.21 27.8 75.3 28.15 75.66 28.49 77.2 28.84 77.2 29.18 76.37 29.53 75.66 29.88 76.72 30.22 74 30.57 74.35 30.91 71.98 31.26 71.98 31.6 73.05 31.95 74.11 32.3 71.74 32.64 73.4 32.99 73.64 33.33 71.03 33.68 70.92 34.02 70.8 34.37 68.78 34.72 69.85 35.06 72.69 35.41 73.64 35.75 73.76 36.1 73.17 36.45 74.83 36.79 75.06 37.14 76.6 37.48 75.89 37.83 78.14 38.17 78.03 38.52 77.55 38.87 81.58 39.21 78.86 39.56 80.28 39.9 79.57 40.25 80.87 40.59 83.83 40.94 82.88 41.29 81.23 41.63 80.16 41.98 80.4 42.32 84.19 42.67 84.54 43.02 88.22 43.36 89.52 43.71 86.91 44.05 89.28 44.4 89.16 44.74 89.64 45.09 87.98 45.44 86.2 45.78 84.19 46.13 86.56 46.47 85.85 46.82 87.98 47.16 87.62 47.51 89.28 47.86 89.52 48.2 88.93 48.55 87.98 48.89 91.3 49.24 90.82 49.59 88.69 49.93 86.56 50.28 87.27 50.62 83.95 50.97 82.29 51.31 82.29 51.66 86.08 52.01 87.39 52.35 85.49 52.7 87.39 53.04 85.73 53.39 85.25 53.73 84.54 54.08 85.73 54.43 84.19 54.77 81.58 55.12 80.51 55.46 79.45 55.81 81.23 56.16 79.33 56.5 81.34 56.85 79.33 57.19 81.94 57.54 82.53 57.88 81.34 58.23 81.11 58.58 79.68 58.92 76.37 59.27 75.18 59.61 75.18 59.96 72.57 60.3 73.17 60.65 74.47 61 75.18 61.34 73.76 61.69 71.98 62.03 73.76 62.38 74.35 62.73 72.22 63.07 72.46 63.42 70.92 63.76 69.61 64.11 71.03 64.45 69.37 64.8 69.14 65.15 71.39 65.49 72.93 65.84 72.22 66.18 73.05 66.53 71.74 66.87 74.23 67.22 78.5 67.57 77.55 67.91 74.71 68.26 74 68.6 72.22 68.95 73.88 69.3 72.93 69.64 71.74 69.99 71.63 70.33 73.4 70.68 73.29 71.02 73.17 71.37 75.42 71.72 76.96 72.06 79.09 72.41 80.63 72.75 78.74 73.1 77.91 73.44 77.31 73.79 79.09 74.14 78.86 74.48 79.57 74.83 78.74 75.17 77.08 75.52 75.66 75.87 74.59 76.21 75.3 76.56 77.55 76.9 74.23 77.25 74.47 77.59 73.88 77.94 75.42 78.29 76.6 78.63 74.23 78.98 75.54 79.32 73.05 79.67 71.63 80.01 74.71 80.36 74.94 80.71 73.05 81.05 71.63 81.4 71.27 81.74 68.78 82.09 73.88 82.44 73.52 82.78 74.71 83.13 73.29 83.47 74.71 83.82 75.06 84.16 75.06 84.51 74.47 84.86 73.76 85.2 73.29 85.55 72.46 85.89 70.68 86.24 68.55 86.58 70.92 86.93 70.44 87.28 71.27 87.62 69.61 87.97 73.88 88.31 74.11 88.66 71.86 89.01 72.46 89.35 71.03 89.7 72.93 90.04 72.57 90.39 72.46 90.73 74.23 91.08 73.64 91.43 74.23 91.77 75.06 92.12 72.34 92.46 71.86 92.81 72.57 93.15 73.17 93.5 73.4 93.85 72.57 94.19 68.66 94.54 68.78 94.88 70.32 95.23 74.11 95.58 73.05 95.92 74.83 96.27 76.48 96.61 75.77 96.96 74.83 97.3 74.35 97.65 72.34 98 70.44 98.34 68.19 98.69 68.78 99.03 67.24 99.38 68.07 99.72 67.12 100.07 67.24 100.42 67.24 100.76 65.35 101.11 65.35 101.45 65.7 101.8 66.89 102.15 69.14 102.49 70.68 102.84 72.22 103.18 72.46 103.53 78.5 103.87 80.04 104.22 81.23 104.57 82.41 104.91 81.94 105.26 80.99 105.6 77.55 105.95 80.87 106.29 79.45 106.64 77.31 106.99 79.33 107.33 77.79 107.68 77.67 108.02 77.79 108.37 76.48 108.72 75.77 109.06 76.25 109.41 74.94 109.75 77.79 110.1 80.28 110.44 80.04 110.79 80.16 111.14 81.94 111.48 83.95 111.83 84.07 112.17 83.36 112.52 84.66 112.86 84.31 113.21 83.24 113.56 84.54 113.9 86.2 114.25 89.16 114.59 88.93 114.94 88.45 115.29 88.93 115.63 89.99 115.98 91.06 116.32 90.94 116.67 92.96 117.01 97.58 117.36 99.12 117.71 98.88 118.05 100.78 118.4 102.32 118.74 100.78 119.09 103.39 119.43 101.13 119.78 99.12 120.13 100.3 120.47 98.53 120.82 100.19 121.16 99.12 121.51 99.83 121.86 96.39 122.2 95.68 122.55 95.45 122.89 97.82 123.24 98.88 123.58 98.41 123.93 97.1 124.28 95.56 124.62 96.16 124.97 99.24 125.31 97.93 125.66 96.51 126 95.8 126.35 95.68 126.7 96.63 127.04 98.65 127.39 99.36 127.73 102.32 128.08 100.3 128.43 99.47 128.77 101.61 129.12 100.19 129.46 99.47 129.81 98.88 130.15 97.93 130.5 97.46 130.85 98.65 131.19 103.27 131.54 105.99 131.88 104.81 132.23 103.03 132.57 103.86 132.92 104.21 133.27 103.86 133.61 106.58 133.96 107.18 134.3 108.13 134.65 110.61 135 107.3 135.34 106.47 135.69 105.04 136.03 104.33 136.38 103.27 136.72 103.03 137.07 103.39 137.42 102.91 137.76 103.03 138.11 103.62 138.45 102.2 138.8 103.98 139.14 106.23 139.49 103.5 139.84 101.84 140.18 100.66 140.53 101.37 140.87 103.62 141.22 104.1 141.57 101.61 141.91 102.67 142.26 100.78 142.6 103.98 142.95 104.45 143.29 104.33 143.64 103.62 143.99 104.1 144.33 104.57 144.68 104.93 145.02 105.28 145.37 103.74 145.71 102.56 146.06 105.64 146.41 105.87 146.75 104.1 147.1 106.35 147.44 106.11 147.79 104.81 148.14 102.56 148.48 103.86 148.83 102.32 149.17 102.32 149.52 101.02 149.86 100.66 150.21 99.24 150.56 100.42 150.9 99.71 151.25 99.47 151.59 100.07 151.94 101.25 152.28 99.59 152.63 99.12 152.98 96.16 153.32 97.22 153.67 98.05 154.01 97.46 154.36 100.07 154.71 100.42 155.05 98.65 155.4 98.05 155.74 97.7 156.09 97.34 156.43 98.29 156.78 97.58 157.13 95.21 157.47 94.73 157.82 96.51 158.16 94.26 158.51 93.19 158.85 92.01 159.2 90.23 159.55 90.59 159.89 89.99 160.24 91.06 160.58 88.81 160.93 89.28 161.28 89.28 161.62 88.69 161.97 92.01 162.31 91.89 162.66 92.13 163 92.01 163.35 89.76 163.7 88.93 164.04 92.6 164.39 96.16 164.73 97.58 165.08 100.78 165.42 102.44 165.77 101.49 166.12 100.3 166.46 100.54 166.81 100.54 167.15 102.08 167.5 103.39 167.85 106.23 168.19 106.23 168.54 104.21 168.88 103.62 169.23 103.15 169.57 100.3 169.92 98.88 170.27 98.53 170.61 97.46 170.96 94.26 171.3 96.75 171.65 99.12 171.99 99.12 172.34 101.25 172.69 100.9 173.03 102.91 173.38 104.45 173.72 107.06 174.07 107.18 174.42 107.3 174.76 106.35 175.11 104.33 175.45 104.33 175.8 102.91 176.14 101.96 176.49 103.03 176.84 99.59 177.18 102.91 177.53 105.76 177.87 108.24 178.22 108.13 178.56 108.24 178.91 110.14 179.26 109.31 179.6 110.5 179.95 110.38 180.29 110.5 180.64 109.07 180.99 108.72 181.33 106.94 181.68 109.43 182.02 110.02 182.37 108.84 182.71 110.5 183.06 110.26 183.41 111.44 183.75 112.27 184.1 114.29 184.44 113.93 184.79 115 185.13 115.24 185.48 114.76 185.83 113.58 186.17 112.04 186.52 110.73 186.86 110.85 187.21 109.31 187.56 109.67 187.9 108.6 188.25 108.72 188.59 108.84 188.94 108.6 189.28 110.5 189.63 111.92 189.98 110.02 190.32 108.36 190.67 107.41 191.01 112.15 191.36 112.98 191.7 113.93 192.05 113.58 192.4 111.32 192.74 113.7 193.09 115 193.43 115.47 193.78 112.51 194.13 113.58 194.47 115.83 194.82 116.42 195.16 118.79 195.51 120.33 195.85 119.74 196.2 118.44"/>
      </g>
    </g>
  </g>
</g>
  <g class="guide ylabels" font-size="2.82" font-family="'PT Sans Caption','Helvetica Neue','Helvetica',sans-serif" fill="#000000" id="img-843739b0-20">
    <text x="20.3" y="131.11" text-anchor="end" dy="0.35em">0</text>
    <text x="20.3" y="71.86" text-anchor="end" dy="0.35em">500</text>
    <text x="20.3" y="12.61" text-anchor="end" dy="0.35em">1000</text>
  </g>
  <g font-size="3.88" font-family="'PT Sans','Helvetica Neue','Helvetica',sans-serif" fill="#000000" stroke="#000000" stroke-opacity="0.000" id="img-843739b0-21">
    <text x="8.81" y="69.86" text-anchor="middle" dy="0.35em" transform="rotate(-90, 8.81, 71.86)">population number</text>
  </g>
  <g font-size="3.88" font-family="'PT Sans','Helvetica Neue','Helvetica',sans-serif" fill="#000000" stroke="#000000" stroke-opacity="0.000" id="img-843739b0-22">
    <text x="109.75" y="5" text-anchor="middle" dy="0.6em">genetic drift</text>
  </g>
</g>
<defs>
  <clipPath id="img-843739b0-4">
  <path d="M21.31,10.61 L 198.2 10.61 198.2 133.11 21.31 133.11" />
</clipPath>
</defs>
</svg>
