<?xml version="1.0" encoding="UTF-8"?>
<svg xmlns="http://www.w3.org/2000/svg"
     xmlns:xlink="http://www.w3.org/1999/xlink"
     xmlns:gadfly="http://www.gadflyjl.org/ns"
     version="1.2"
     width="203.2mm" height="152.4mm" viewBox="0 0 203.2 152.4"
     stroke="none"
     fill="#000000"
     stroke-width="0.3"
     font-size="3.88"
>
<g class="plotroot xscalable yscalable" id="img-250b5d1e-1">
  <g font-size="3.88" font-family="'PT Sans','Helvetica Neue','Helvetica',sans-serif" fill="#000000" stroke="#000000" stroke-opacity="0.000" id="img-250b5d1e-2">
    <text x="108.92" y="140.79" text-anchor="middle" dy="0.6em">generation number</text>
  </g>
  <g class="guide xlabels" font-size="2.82" font-family="'PT Sans Caption','Helvetica Neue','Helvetica',sans-serif" fill="#000000" id="img-250b5d1e-3">
    <text x="21.63" y="134.11" text-anchor="middle" dy="0.6em">0</text>
    <text x="56.55" y="134.11" text-anchor="middle" dy="0.6em">100</text>
    <text x="91.46" y="134.11" text-anchor="middle" dy="0.6em">200</text>
    <text x="126.37" y="134.11" text-anchor="middle" dy="0.6em">300</text>
    <text x="161.29" y="134.11" text-anchor="middle" dy="0.6em">400</text>
    <text x="196.2" y="134.11" text-anchor="middle" dy="0.6em">500</text>
  </g>
<g clip-path="url(#img-250b5d1e-4)">
  <g id="img-250b5d1e-5">
    <g pointer-events="visible" opacity="1" fill="#FFFFFF" stroke="#000000" stroke-opacity="0.000" class="guide background" id="img-250b5d1e-6">
      <rect x="19.63" y="10.61" width="178.57" height="122.5"/>
    </g>
    <g class="guide ygridlines xfixed" stroke-dasharray="0.5,0.5" stroke-width="0.2" stroke="#808080" id="img-250b5d1e-7">
      <path fill="none" d="M19.63,131.11 L 198.2 131.11"/>
      <path fill="none" d="M19.63,91.61 L 198.2 91.61"/>
      <path fill="none" d="M19.63,52.11 L 198.2 52.11"/>
      <path fill="none" d="M19.63,12.61 L 198.2 12.61"/>
    </g>
    <g class="guide xgridlines yfixed" stroke-dasharray="0.5,0.5" stroke-width="0.2" stroke="#808080" id="img-250b5d1e-8">
      <path fill="none" d="M21.63,10.61 L 21.63 133.11"/>
      <path fill="none" d="M56.55,10.61 L 56.55 133.11"/>
      <path fill="none" d="M91.46,10.61 L 91.46 133.11"/>
      <path fill="none" d="M126.37,10.61 L 126.37 133.11"/>
      <path fill="none" d="M161.29,10.61 L 161.29 133.11"/>
      <path fill="none" d="M196.2,10.61 L 196.2 133.11"/>
    </g>
    <g class="plotpanel" id="img-250b5d1e-9">
      <g stroke-width="0.3" fill="#000000" fill-opacity="0.000" class="geometry" stroke-dasharray="none" stroke="#3288BD" id="img-250b5d1e-10">
        <path fill="none" d="M21.98,71.86 L 22.33 75.81 22.68 76.6 23.03 78.18 23.38 78.18 23.73 78.18 24.08 72.65 24.42 73.84 24.77 78.97 25.12 77.79 25.47 78.18 25.82 75.42 26.17 76.6 26.52 72.26 26.87 77.39 27.22 75.02 27.57 73.84 27.92 76.6 28.27 73.05 28.61 73.44 28.96 81.74 29.31 81.74 29.66 81.34 30.01 84.9 30.36 78.18 30.71 77.39 31.06 81.34 31.41 75.02 31.76 71.86 32.11 65.94 32.45 66.33 32.8 66.33 33.15 66.33 33.5 63.57 33.85 65.94 34.2 66.33 34.55 65.15 34.9 67.91 35.25 71.47 35.6 71.86 35.95 66.33 36.3 67.52 36.64 67.12 36.99 65.54 37.34 69.49 37.69 68.31 38.04 64.36 38.39 61.99 38.74 57.25 39.09 57.64 39.44 58.04 39.79 58.43 40.14 62.38 40.49 61.59 40.83 69.49 41.18 69.89 41.53 72.26 41.88 69.49 42.23 67.91 42.58 67.91 42.93 65.94 43.28 65.54 43.63 61.99 43.98 61.59 44.33 61.2 44.67 61.2 45.02 62.38 45.37 65.15 45.72 63.57 46.07 59.22 46.42 54.48 46.77 53.69 47.12 60.01 47.47 55.27 47.82 58.43 48.17 54.09 48.52 54.88 48.86 55.67 49.21 48.56 49.56 48.16 49.91 48.56 50.26 52.9 50.61 51.32 50.96 50.53 51.31 47.37 51.66 52.11 52.01 54.88 52.36 55.27 52.7 55.67 53.05 58.83 53.4 56.46 53.75 57.25 54.1 52.51 54.45 55.27 54.8 51.72 55.15 45.4 55.5 44.21 55.85 48.95 56.2 54.09 56.55 58.43 56.89 60.8 57.24 61.59 57.59 67.12 57.94 64.75 58.29 63.57 58.64 60.8 58.99 56.85 59.34 61.59 59.69 59.62 60.04 58.04 60.39 56.06 60.73 58.43 61.08 60.8 61.43 63.96 61.78 67.12 62.13 61.99 62.48 65.15 62.83 63.96 63.18 70.28 63.53 72.26 63.88 71.07 64.23 69.89 64.58 72.26 64.92 78.18 65.27 82.53 65.62 85.69 65.97 87.27 66.32 91.22 66.67 91.22 67.02 93.59 67.37 94.38 67.72 89.64 68.07 84.9 68.42 89.24 68.77 89.64 69.11 93.19 69.46 93.59 69.81 93.19 70.16 93.19 70.51 92.01 70.86 89.64 71.21 89.24 71.56 89.64 71.91 92.01 72.26 85.69 72.61 84.11 72.95 89.64 73.3 88.45 73.65 91.61 74 92.8 74.35 96.75 74.7 96.75 75.05 98.33 75.4 97.54 75.75 98.72 76.1 97.93 76.45 95.56 76.8 96.75 77.14 90.03 77.49 84.9 77.84 78.18 78.19 73.05 78.54 72.26 78.89 73.05 79.24 78.18 79.59 80.95 79.94 84.5 80.29 82.92 80.64 79.76 80.98 80.55 81.33 79.37 81.68 77.39 82.03 74.63 82.38 83.71 82.73 86.87 83.08 88.85 83.43 86.48 83.78 85.29 84.13 80.16 84.48 75.81 84.83 80.95 85.17 82.92 85.52 80.95 85.87 80.55 86.22 79.76 86.57 83.71 86.92 78.18 87.27 74.23 87.62 73.84 87.97 76.6 88.32 77.79 88.67 80.95 89.02 77.39 89.36 80.16 89.71 77 90.06 78.97 90.41 81.34 90.76 78.97 91.11 75.81 91.46 80.55 91.81 82.92 92.16 86.87 92.51 88.06 92.86 93.98 93.2 89.64 93.55 95.96 93.9 95.56 94.25 98.72 94.6 101.88 94.95 97.93 95.3 96.75 95.65 100.3 96 105.83 96.35 108.2 96.7 105.04 97.05 103.46 97.39 102.67 97.74 103.86 98.09 105.83 98.44 102.67 98.79 104.65 99.14 105.83 99.49 107.81 99.84 107.02 100.19 108.6 100.54 111.76 100.89 110.97 101.23 111.76 101.58 112.15 101.93 112.15 102.28 108.6 102.63 109.78 102.98 108.2 103.33 106.62 103.68 107.41 104.03 112.94 104.38 113.34 104.73 109.78 105.08 110.57 105.42 111.36 105.77 108.6 106.12 107.41 106.47 105.44 106.82 104.65 107.17 104.25 107.52 99.91 107.87 102.28 108.22 101.88 108.57 100.7 108.92 102.67 109.26 100.7 109.61 98.33 109.96 94.38 110.31 97.14 110.66 91.22 111.01 90.43 111.36 93.98 111.71 92.8 112.06 95.17 112.41 91.22 112.76 95.17 113.11 97.54 113.45 102.28 113.8 102.28 114.15 102.28 114.5 101.49 114.85 103.46 115.2 107.81 115.55 106.62 115.9 103.46 116.25 108.2 116.6 107.81 116.95 106.62 117.3 110.97 117.64 107.02 117.99 105.83 118.34 105.04 118.69 106.23 119.04 105.44 119.39 106.23 119.74 103.86 120.09 103.46 120.44 99.91 120.79 101.09 121.14 99.51 121.48 97.54 121.83 98.33 122.18 95.56 122.53 98.33 122.88 90.03 123.23 98.33 123.58 101.49 123.93 96.75 124.28 95.17 124.63 91.61 124.98 89.64 125.33 89.64 125.67 88.06 126.02 81.74 126.37 79.76 126.72 82.53 127.07 80.95 127.42 80.95 127.77 72.65 128.12 78.18 128.47 79.76 128.82 80.16 129.17 80.16 129.51 78.97 129.86 82.53 130.21 81.34 130.56 83.32 130.91 83.32 131.26 78.18 131.61 81.74 131.96 81.34 132.31 80.55 132.66 81.74 133.01 81.34 133.36 80.55 133.7 73.44 134.05 77.39 134.4 84.5 134.75 81.74 135.1 84.11 135.45 82.92 135.8 81.34 136.15 81.74 136.5 78.18 136.85 80.55 137.2 84.9 137.55 81.34 137.89 85.69 138.24 91.61 138.59 87.66 138.94 84.11 139.29 85.29 139.64 82.13 139.99 82.92 140.34 85.29 140.69 88.45 141.04 86.87 141.39 84.9 141.73 88.85 142.08 86.87 142.43 92.01 142.78 92.4 143.13 96.35 143.48 99.12 143.83 102.28 144.18 99.51 144.53 91.61 144.88 94.77 145.23 95.96 145.58 90.03 145.92 85.29 146.27 90.82 146.62 92.4 146.97 93.19 147.32 90.43 147.67 93.98 148.02 93.19 148.37 86.08 148.72 87.66 149.07 83.71 149.42 82.92 149.76 82.92 150.11 89.24 150.46 92.8 150.81 90.43 151.16 93.98 151.51 93.59 151.86 91.61 152.21 99.51 152.56 98.72 152.91 93.98 153.26 95.56 153.61 99.91 153.95 100.7 154.3 101.49 154.65 101.49 155 102.67 155.35 103.46 155.7 105.04 156.05 102.28 156.4 98.72 156.75 98.72 157.1 100.7 157.45 99.12 157.79 98.72 158.14 96.35 158.49 97.14 158.84 97.14 159.19 93.19 159.54 95.56 159.89 98.72 160.24 98.72 160.59 98.33 160.94 97.93 161.29 100.3 161.64 96.35 161.98 91.61 162.33 88.85 162.68 93.59 163.03 92.01 163.38 91.61 163.73 87.66 164.08 86.08 164.43 85.29 164.78 84.5 165.13 83.71 165.48 84.5 165.83 87.27 166.17 85.29 166.52 87.27 166.87 90.03 167.22 93.59 167.57 96.75 167.92 99.51 168.27 98.72 168.62 97.14 168.97 93.59 169.32 91.61 169.67 91.22 170.01 91.22 170.36 93.19 170.71 93.19 171.06 92.4 171.41 95.17 171.76 95.56 172.11 97.14 172.46 95.96 172.81 95.17 173.16 97.14 173.51 93.19 173.86 89.24 174.2 91.22 174.55 97.93 174.9 97.14 175.25 95.17 175.6 97.14 175.95 96.35 176.3 99.91 176.65 105.83 177 105.44 177.35 105.04 177.7 106.23 178.04 108.99 178.39 107.81 178.74 107.41 179.09 105.04 179.44 108.99 179.79 107.81 180.14 107.41 180.49 107.02 180.84 108.2 181.19 107.02 181.54 107.41 181.89 107.81 182.23 108.6 182.58 109.78 182.93 110.18 183.28 110.97 183.63 107.81 183.98 103.86 184.33 108.6 184.68 107.81 185.03 104.65 185.38 111.36 185.73 113.34 186.08 113.73 186.42 112.94 186.77 111.36 187.12 109.39 187.47 109.78 187.82 112.15 188.17 114.92 188.52 117.29 188.87 120.45 189.22 118.47 189.57 120.05 189.92 122.03 190.26 121.63 190.61 121.63 190.96 122.42 191.31 120.05 191.66 119.66 192.01 121.24 192.36 120.05 192.71 122.03 193.06 120.45 193.41 122.42 193.76 119.66 194.11 122.03 194.45 119.66 194.8 120.05 195.15 117.68 195.5 116.5 195.85 118.47 196.2 118.08"/>
      </g>
      <g stroke-width="0.3" fill="#000000" fill-opacity="0.000" class="geometry" stroke-dasharray="none" stroke="#66C2A5" id="img-250b5d1e-11">
        <path fill="none" d="M21.98,71.86 L 22.33 68.7 22.68 71.86 23.03 63.96 23.38 65.94 23.73 63.96 24.08 65.94 24.42 66.33 24.77 65.94 25.12 62.38 25.47 67.91 25.82 71.07 26.17 71.07 26.52 69.49 26.87 68.7 27.22 72.65 27.57 71.07 27.92 67.91 28.27 70.28 28.61 76.21 28.96 76.21 29.31 74.23 29.66 73.05 30.01 71.86 30.36 70.28 30.71 69.1 31.06 65.54 31.41 64.36 31.76 59.22 32.11 52.51 32.45 54.88 32.8 50.14 33.15 51.72 33.5 46.19 33.85 41.84 34.2 45 34.55 42.63 34.9 39.08 35.25 39.08 35.6 39.08 35.95 35.13 36.3 34.73 36.64 35.92 36.99 36.71 37.34 35.52 37.69 34.34 38.04 35.52 38.39 35.92 38.74 42.24 39.09 36.31 39.44 38.68 39.79 42.63 40.14 41.84 40.49 39.08 40.83 41.84 41.18 36.71 41.53 35.92 41.88 35.52 42.23 36.71 42.58 33.94 42.93 35.13 43.28 35.52 43.63 31.57 43.98 28.81 44.33 26.04 44.67 27.23 45.02 27.62 45.37 22.88 45.72 23.28 46.07 22.49 46.42 21.3 46.77 22.09 47.12 23.67 47.47 24.86 47.82 22.88 48.17 23.67 48.52 21.3 48.86 21.3 49.21 20.51 49.56 18.93 49.91 20.12 50.26 23.28 50.61 23.28 50.96 23.67 51.31 24.86 51.66 24.07 52.01 23.28 52.36 21.7 52.7 20.91 53.05 22.49 53.4 27.62 53.75 28.81 54.1 29.2 54.45 27.62 54.8 28.41 55.15 28.41 55.5 30.39 55.85 27.62 56.2 26.83 56.55 26.83 56.89 27.62 57.24 28.81 57.59 25.65 57.94 24.07 58.29 28.02 58.64 28.81 58.99 28.81 59.34 28.02 59.69 29.2 60.04 27.23 60.39 28.02 60.73 26.44 61.08 26.44 61.43 26.44 61.78 26.83 62.13 29.2 62.48 33.15 62.83 31.97 63.18 33.94 63.53 35.92 63.88 37.1 64.23 35.52 64.58 38.29 64.92 41.05 65.27 37.1 65.62 37.89 65.97 32.76 66.32 28.02 66.67 28.02 67.02 26.83 67.37 28.02 67.72 26.83 68.07 24.46 68.42 22.88 68.77 22.49 69.11 20.12 69.46 19.72 69.81 20.12 70.16 19.72 70.51 22.49 70.86 22.49 71.21 22.09 71.56 20.91 71.91 19.72 72.26 20.91 72.61 22.09 72.95 21.7 73.3 17.75 73.65 17.35 74 16.17 74.35 15.77 74.7 17.35 75.05 16.96 75.4 17.35 75.75 16.17 76.1 13.8 76.45 13.4 76.8 12.61"/>
      </g>
      <g stroke-width="0.3" fill="#000000" fill-opacity="0.000" class="geometry" stroke-dasharray="none" stroke="#ABDDA4" id="img-250b5d1e-12">
        <path fill="none" d="M21.98,71.86 L 22.33 65.15 22.68 59.22 23.03 63.96 23.38 61.59 23.73 64.36 24.08 62.78 24.42 60.8 24.77 60.01 25.12 59.62 25.47 54.88 25.82 56.85 26.17 57.64 26.52 60.8 26.87 57.25 27.22 54.88 27.57 57.25 27.92 47.77 28.27 45 28.61 48.16 28.96 46.58 29.31 49.74 29.66 53.3 30.01 53.69 30.36 46.98 30.71 45.79 31.06 47.37 31.41 40.66 31.76 43.03 32.11 42.24 32.45 38.29 32.8 40.26 33.15 38.29 33.5 41.45 33.85 38.29 34.2 37.89 34.55 38.29 34.9 43.42 35.25 46.58 35.6 48.95 35.95 45 36.3 43.82 36.64 47.77 36.99 53.69 37.34 57.64 37.69 56.06 38.04 56.46 38.39 58.83 38.74 53.69 39.09 54.09 39.44 56.06 39.79 48.56 40.14 51.72 40.49 54.48 40.83 52.51 41.18 50.93 41.53 53.3 41.88 55.67 42.23 57.25 42.58 58.43 42.93 57.64 43.28 51.32 43.63 54.48 43.98 48.95 44.33 44.21 44.67 43.82 45.02 43.82 45.37 47.77 45.72 46.58 46.07 49.74 46.42 49.35 46.77 51.72 47.12 50.53 47.47 48.16 47.82 45.79 48.17 46.58 48.52 44.61 48.86 44.61 49.21 46.98 49.56 52.51 49.91 56.06 50.26 59.62 50.61 62.78 50.96 63.57 51.31 67.12 51.66 74.63 52.01 74.63 52.36 75.02 52.7 73.44 53.05 72.26 53.4 76.6 53.75 75.81 54.1 73.44 54.45 74.23 54.8 76.6 55.15 76.6 55.5 78.58 55.85 84.11 56.2 84.5 56.55 77.79 56.89 81.34 57.24 77.39 57.59 77 57.94 78.97 58.29 83.32 58.64 78.18 58.99 76.21 59.34 75.42 59.69 72.65 60.04 70.68 60.39 67.52 60.73 63.17 61.08 63.17 61.43 58.43 61.78 58.43 62.13 58.43 62.48 61.2 62.83 61.99 63.18 66.33 63.53 68.7 63.88 66.33 64.23 63.17 64.58 59.62 64.92 60.01 65.27 58.43 65.62 57.25 65.97 60.41 66.32 61.59 66.67 60.8 67.02 64.36 67.37 64.75 67.72 57.25 68.07 59.22 68.42 60.8 68.77 63.17 69.11 65.94 69.46 63.96 69.81 53.3 70.16 51.32 70.51 51.32 70.86 51.32 71.21 55.67 71.56 55.67 71.91 57.64 72.26 52.51 72.61 57.25 72.95 58.43 73.3 60.01 73.65 60.41 74 63.17 74.35 60.41 74.7 63.96 75.05 62.38 75.4 63.57 75.75 70.68 76.1 69.49 76.45 67.52 76.8 62.78 77.14 59.62 77.49 60.41 77.84 59.22 78.19 61.59 78.54 61.99 78.89 64.75 79.24 64.75 79.59 71.86 79.94 67.12 80.29 67.91 80.64 73.05 80.98 68.7 81.33 67.12 81.68 70.68 82.03 73.05 82.38 76.6 82.73 77 83.08 76.21 83.43 78.58 83.78 77.79 84.13 79.37 84.48 74.63 84.83 73.44 85.17 71.07 85.52 65.94 85.87 65.15 86.22 64.75 86.57 61.99 86.92 60.01 87.27 60.41 87.62 63.96 87.97 65.54 88.32 68.31 88.67 65.54 89.02 65.54 89.36 68.7 89.71 67.12 90.06 67.12 90.41 65.94 90.76 62.78 91.11 60.8 91.46 57.64 91.81 59.22 92.16 60.01 92.51 59.62 92.86 62.38 93.2 62.38 93.55 61.99 93.9 56.46 94.25 54.09 94.6 53.69 94.95 60.01 95.3 58.04 95.65 53.69 96 48.95 96.35 50.14 96.7 54.09 97.05 53.3 97.39 52.51 97.74 46.19 98.09 48.16 98.44 45 98.79 41.45 99.14 38.29 99.49 36.31 99.84 34.73 100.19 36.71 100.54 36.31 100.89 34.73 101.23 35.13 101.58 35.52 101.93 31.97 102.28 28.02 102.63 29.6 102.98 27.62 103.33 30.39 103.68 31.18 104.03 30.78 104.38 32.36 104.73 34.34 105.08 35.52 105.42 33.94 105.77 37.1 106.12 36.71 106.47 34.34 106.82 33.15 107.17 33.55 107.52 31.97 107.87 34.73 108.22 39.87 108.57 38.29 108.92 36.71 109.26 36.71 109.61 37.5 109.96 42.63 110.31 43.03 110.66 45.79 111.01 46.19 111.36 48.16 111.71 48.95 112.06 45.4 112.41 41.05 112.76 42.63 113.11 49.74 113.45 46.19 113.8 45.79 114.15 44.61 114.5 45 114.85 50.14 115.2 48.16 115.55 47.37 115.9 48.56 116.25 45.79 116.6 46.19 116.95 48.95 117.3 51.72 117.64 53.69 117.99 49.74 118.34 50.14 118.69 51.32 119.04 53.3 119.39 52.51 119.74 59.22 120.09 56.85 120.44 54.48 120.79 52.11 121.14 46.58 121.48 46.19 121.83 46.19 122.18 43.03 122.53 45 122.88 48.16 123.23 45.4 123.58 46.98 123.93 45 124.28 46.19 124.63 51.32 124.98 50.93 125.33 48.95 125.67 51.72 126.02 49.74 126.37 51.72 126.72 54.88 127.07 53.3 127.42 55.27 127.77 53.3 128.12 55.27 128.47 58.43 128.82 62.78 129.17 63.57 129.51 67.12 129.86 65.54 130.21 64.75 130.56 67.12 130.91 61.99 131.26 65.15 131.61 67.12 131.96 66.33 132.31 69.1 132.66 71.47 133.01 71.47 133.36 75.81 133.7 78.58 134.05 84.5 134.4 85.69 134.75 90.03 135.1 92.01 135.45 92.4 135.8 92.01 136.15 89.24 136.5 93.98 136.85 95.56 137.2 97.14 137.55 100.3 137.89 95.96 138.24 97.93 138.59 99.91 138.94 103.07 139.29 103.86 139.64 106.62 139.99 103.07 140.34 99.51 140.69 96.75 141.04 91.61 141.39 93.19 141.73 93.98 142.08 95.56 142.43 95.17 142.78 100.7 143.13 99.91 143.48 100.3 143.83 105.04 144.18 108.2 144.53 105.44 144.88 102.28 145.23 105.83 145.58 108.99 145.92 108.2 146.27 105.83 146.62 103.07 146.97 103.07 147.32 104.25 147.67 104.65 148.02 110.57 148.37 110.97 148.72 113.34 149.07 111.36 149.42 113.73 149.76 112.15 150.11 109.39 150.46 109.78 150.81 105.44 151.16 109.39 151.51 106.62 151.86 105.44 152.21 104.25 152.56 96.35 152.91 92.01 153.26 94.38 153.61 94.38 153.95 88.85 154.3 86.08 154.65 83.71 155 76.21 155.35 79.37 155.7 83.71 156.05 79.76 156.4 82.13 156.75 79.37 157.1 76.6 157.45 76.6 157.79 76.21 158.14 80.16 158.49 82.13 158.84 84.5 159.19 83.32 159.54 84.9 159.89 86.87 160.24 87.27 160.59 92.4 160.94 96.75 161.29 93.59 161.64 95.96 161.98 95.17 162.33 96.35 162.68 92.4 163.03 91.61 163.38 95.56 163.73 94.38 164.08 90.03 164.43 88.85 164.78 93.98 165.13 91.22 165.48 93.59 165.83 92.8 166.17 92.4 166.52 97.54 166.87 97.14 167.22 95.96 167.57 96.75 167.92 96.35 168.27 93.19 168.62 94.77 168.97 95.56 169.32 92.4 169.67 99.12 170.01 95.17 170.36 94.77 170.71 95.96 171.06 99.12 171.41 97.54 171.76 98.33 172.11 100.3 172.46 104.25 172.81 102.28 173.16 100.7 173.51 101.88 173.86 101.88 174.2 101.88 174.55 106.23 174.9 105.44 175.25 104.25 175.6 103.46 175.95 106.62 176.3 107.81 176.65 105.04 177 104.65 177.35 105.44 177.7 102.67 178.04 99.91 178.39 99.91 178.74 98.33 179.09 96.75 179.44 94.38 179.79 93.59 180.14 96.75 180.49 93.98 180.84 91.22 181.19 95.17 181.54 96.35 181.89 97.14 182.23 97.14 182.58 101.49 182.93 102.28 183.28 100.3 183.63 101.88 183.98 97.93 184.33 97.93 184.68 98.72 185.03 103.86 185.38 104.65 185.73 105.44 186.08 107.41 186.42 105.44 186.77 102.67 187.12 105.44 187.47 104.65 187.82 106.23 188.17 108.6 188.52 110.57 188.87 104.25 189.22 105.44 189.57 103.07 189.92 105.44 190.26 106.23 190.61 103.86 190.96 106.23 191.31 105.44 191.66 103.07 192.01 106.62 192.36 110.57 192.71 107.02 193.06 101.88 193.41 103.46 193.76 100.3 194.11 101.88 194.45 97.14 194.8 95.56 195.15 96.35 195.5 95.96 195.85 94.38 196.2 95.96"/>
      </g>
      <g stroke-width="0.3" fill="#000000" fill-opacity="0.000" class="geometry" stroke-dasharray="none" stroke="#E6F598" id="img-250b5d1e-13">
        <path fill="none" d="M21.98,71.86 L 22.33 71.47 22.68 65.15 23.03 61.99 23.38 61.99 23.73 57.64 24.08 58.83 24.42 62.38 24.77 68.31 25.12 67.12 25.47 71.86 25.82 71.07 26.17 72.65 26.52 65.54 26.87 67.52 27.22 67.52 27.57 63.96 27.92 64.75 28.27 71.47 28.61 71.86 28.96 67.52 29.31 65.94 29.66 63.57 30.01 66.73 30.36 61.2 30.71 66.33 31.06 68.31 31.41 69.49 31.76 69.49 32.11 74.63 32.45 72.26 32.8 71.07 33.15 65.15 33.5 63.17 33.85 65.54 34.2 69.1 34.55 68.31 34.9 62.78 35.25 64.75 35.6 64.75 35.95 71.07 36.3 71.07 36.64 67.91 36.99 70.28 37.34 73.44 37.69 75.42 38.04 75.02 38.39 75.02 38.74 74.63 39.09 77 39.44 74.23 39.79 75.02 40.14 77 40.49 78.18 40.83 72.26 41.18 71.86 41.53 70.28 41.88 71.47 42.23 74.23 42.58 73.05 42.93 71.47 43.28 71.47 43.63 75.02 43.98 75.81 44.33 80.55 44.67 74.63 45.02 75.02 45.37 77.39 45.72 81.74 46.07 78.18 46.42 78.18 46.77 77 47.12 83.71 47.47 82.92 47.82 82.92 48.17 86.87 48.52 92.4 48.86 95.96 49.21 93.59 49.56 91.22 49.91 87.27 50.26 83.32 50.61 80.55 50.96 80.16 51.31 79.37 51.66 81.34 52.01 78.58 52.36 80.16 52.7 78.58 53.05 78.18 53.4 74.23 53.75 78.58 54.1 75.02 54.45 72.65 54.8 76.21 55.15 70.68 55.5 73.05 55.85 72.26 56.2 64.75 56.55 60.01 56.89 58.43 57.24 57.64 57.59 58.43 57.94 61.2 58.29 63.96 58.64 60.41 58.99 57.64 59.34 57.64 59.69 58.04 60.04 55.67 60.39 63.17 60.73 61.59 61.08 67.12 61.43 66.73 61.78 70.28 62.13 69.49 62.48 71.86 62.83 72.65 63.18 69.49 63.53 69.89 63.88 62.38 64.23 62.38 64.58 61.99 64.92 65.94 65.27 64.75 65.62 61.59 65.97 57.25 66.32 60.41 66.67 56.85 67.02 60.01 67.37 63.17 67.72 70.28 68.07 67.91 68.42 69.49 68.77 67.52 69.11 65.54 69.46 74.23 69.81 72.26 70.16 72.26 70.51 67.91 70.86 63.17 71.21 69.89 71.56 69.89 71.91 73.05 72.26 72.65 72.61 73.05 72.95 73.05 73.3 73.05 73.65 68.31 74 64.75 74.35 59.22 74.7 64.36 75.05 64.75 75.4 64.36 75.75 60.01 76.1 53.69 76.45 52.51 76.8 54.09 77.14 61.2 77.49 62.38 77.84 61.59 78.19 71.07 78.54 70.68 78.89 74.63 79.24 80.16 79.59 77 79.94 81.74 80.29 81.74 80.64 80.95 80.98 80.95 81.33 83.71 81.68 82.92 82.03 80.55 82.38 82.92 82.73 80.16 83.08 78.58 83.43 80.16 83.78 82.53 84.13 88.85 84.48 90.82 84.83 90.82 85.17 89.24 85.52 84.5 85.87 86.08 86.22 85.69 86.57 89.24 86.92 86.87 87.27 90.03 87.62 94.38 87.97 91.22 88.32 92.8 88.67 96.35 89.02 92.4 89.36 93.59 89.71 90.82 90.06 86.48 90.41 82.92 90.76 85.69 91.11 86.08 91.46 91.22 91.81 94.38 92.16 91.61 92.51 92.8 92.86 88.45 93.2 89.64 93.55 90.82 93.9 88.45 94.25 91.61 94.6 95.96 94.95 97.14 95.3 100.7 95.65 99.12 96 99.12 96.35 101.49 96.7 103.86 97.05 101.49 97.39 101.88 97.74 104.65 98.09 107.81 98.44 106.23 98.79 109.39 99.14 101.88 99.49 103.07 99.84 104.25 100.19 105.04 100.54 102.28 100.89 99.51 101.23 99.12 101.58 102.67 101.93 98.72 102.28 101.09 102.63 103.46 102.98 107.02 103.33 103.86 103.68 106.23 104.03 108.6 104.38 110.57 104.73 112.94 105.08 108.6 105.42 108.2 105.77 109.78 106.12 109.78 106.47 107.02 106.82 106.62 107.17 105.04 107.52 107.02 107.87 106.23 108.22 107.41 108.57 108.6 108.92 104.65 109.26 105.04 109.61 102.67 109.96 104.65 110.31 107.41 110.66 107.02 111.01 106.62 111.36 106.62 111.71 105.83 112.06 110.18 112.41 103.86 112.76 105.83 113.11 109.39 113.45 108.99 113.8 106.23 114.15 107.81 114.5 109.78 114.85 110.57 115.2 115.71 115.55 112.55 115.9 114.52 116.25 113.34 116.6 112.15 116.95 113.34 117.3 117.68 117.64 119.26 117.99 114.92 118.34 113.34 118.69 112.55 119.04 110.18 119.39 108.6 119.74 104.65 120.09 103.07 120.44 101.09 120.79 101.88 121.14 103.07 121.48 105.83 121.83 107.41 122.18 105.83 122.53 105.44 122.88 105.83 123.23 108.99 123.58 110.97 123.93 109.39 124.28 110.57 124.63 109.39 124.98 106.62 125.33 107.41 125.67 107.41 126.02 99.51 126.37 97.54 126.72 99.51 127.07 100.3 127.42 98.72 127.77 95.56 128.12 92.4 128.47 86.08 128.82 82.92 129.17 80.95 129.51 84.5 129.86 85.29 130.21 86.08 130.56 87.27 130.91 86.08 131.26 89.24 131.61 90.03 131.96 95.56 132.31 102.67 132.66 106.62 133.01 107.02 133.36 112.94 133.7 110.57 134.05 110.57 134.4 110.97 134.75 113.73 135.1 114.13 135.45 116.89 135.8 115.71 136.15 116.1 136.5 116.1 136.85 113.73 137.2 115.71 137.55 120.05 137.89 120.84 138.24 118.47 138.59 115.71 138.94 115.31 139.29 115.31 139.64 117.29 139.99 118.87 140.34 118.87 140.69 121.63 141.04 124 141.39 125.58 141.73 124.79 142.08 125.98 142.43 126.37 142.78 127.56 143.13 127.16 143.48 127.95 143.83 127.16 144.18 127.16 144.53 128.35 144.88 128.74 145.23 128.74 145.58 129.93 145.92 129.93 146.27 129.93 146.62 128.74 146.97 128.35 147.32 130.72 147.67 131.11"/>
      </g>
      <g stroke-width="0.3" fill="#000000" fill-opacity="0.000" class="geometry" stroke-dasharray="none" stroke="#FFFFBF" id="img-250b5d1e-14">
        <path fill="none" d="M21.98,71.86 L 22.33 69.49 22.68 70.28 23.03 67.91 23.38 73.05 23.73 73.05 24.08 78.58 24.42 77.39 24.77 80.55 25.12 82.53 25.47 77 25.82 77.39 26.17 72.26 26.52 68.7 26.87 67.91 27.22 67.52 27.57 68.31 27.92 70.28 28.27 65.94 28.61 67.91 28.96 65.15 29.31 61.2 29.66 61.2 30.01 59.62 30.36 56.85 30.71 54.48 31.06 58.43 31.41 61.99 31.76 63.57 32.11 65.54 32.45 69.49 32.8 69.1 33.15 72.65 33.5 73.05 33.85 70.68 34.2 67.91 34.55 74.23 34.9 78.58 35.25 74.23 35.6 76.21 35.95 75.81 36.3 74.23 36.64 74.63 36.99 69.49 37.34 67.52 37.69 70.28 38.04 70.28 38.39 77.79 38.74 77.79 39.09 77.79 39.44 80.55 39.79 82.13 40.14 83.71 40.49 80.95 40.83 83.32 41.18 88.06 41.53 90.43 41.88 94.77 42.23 89.24 42.58 85.29 42.93 82.13 43.28 85.69 43.63 80.16 43.98 86.48 44.33 85.69 44.67 87.66 45.02 86.08 45.37 87.66 45.72 81.74 46.07 80.95 46.42 84.9 46.77 89.64 47.12 90.43 47.47 92.8 47.82 90.03 48.17 88.85 48.52 83.32 48.86 85.69 49.21 81.74 49.56 82.92 49.91 78.97 50.26 78.18 50.61 84.11 50.96 89.24 51.31 92.4 51.66 91.22 52.01 93.98 52.36 98.33 52.7 98.33 53.05 97.54 53.4 99.51 53.75 91.22 54.1 89.64 54.45 91.22 54.8 94.38 55.15 91.61 55.5 92.01 55.85 90.82 56.2 91.61 56.55 93.98 56.89 92.4 57.24 88.85 57.59 90.03 57.94 90.82 58.29 91.22 58.64 93.59 58.99 94.38 59.34 90.82 59.69 88.45 60.04 90.03 60.39 94.38 60.73 89.24 61.08 92.4 61.43 90.43 61.78 91.61 62.13 93.98 62.48 92.4 62.83 89.24 63.18 86.87 63.53 86.87 63.88 88.45 64.23 88.06 64.58 90.03 64.92 90.82 65.27 91.61 65.62 93.98 65.97 90.82 66.32 88.06 66.67 91.22 67.02 95.96 67.37 97.14 67.72 92.8 68.07 92.8 68.42 90.43 68.77 98.33 69.11 91.22 69.46 95.96 69.81 95.96 70.16 91.61 70.51 87.66 70.86 93.19 71.21 89.24 71.56 90.82 71.91 88.85 72.26 92.01 72.61 87.66 72.95 91.22 73.3 95.17 73.65 91.22 74 90.03 74.35 91.61 74.7 88.85 75.05 87.27 75.4 84.9 75.75 90.03 76.1 93.98 76.45 96.75 76.8 94.77 77.14 99.51 77.49 96.75 77.84 96.75 78.19 93.59 78.54 96.75 78.89 92.01 79.24 94.38 79.59 93.59 79.94 95.96 80.29 96.75 80.64 95.17 80.98 89.64 81.33 95.17 81.68 90.43 82.03 92.4 82.38 96.35 82.73 97.54 83.08 99.12 83.43 100.7 83.78 98.33 84.13 98.33 84.48 93.59 84.83 99.51 85.17 97.93 85.52 96.35 85.87 95.17 86.22 95.17 86.57 94.38 86.92 96.75 87.27 93.59 87.62 91.22 87.97 93.59 88.32 97.93 88.67 101.09 89.02 102.28 89.36 103.07 89.71 101.09 90.06 97.14 90.41 92.8 90.76 97.54 91.11 101.09 91.46 98.72 91.81 100.3 92.16 99.51 92.51 105.04 92.86 106.62 93.2 112.15 93.55 108.6 93.9 104.65 94.25 101.88 94.6 105.44 94.95 106.23 95.3 107.02 95.65 108.2 96 110.97 96.35 112.55 96.7 107.81 97.05 113.34 97.39 114.52 97.74 112.55 98.09 110.57 98.44 105.44 98.79 103.46 99.14 104.65 99.49 101.88 99.84 104.65 100.19 107.81 100.54 107.41 100.89 108.2 101.23 110.18 101.58 115.31 101.93 115.71 102.28 116.1 102.63 118.87 102.98 120.84 103.33 118.08 103.68 118.87 104.03 116.1 104.38 115.71 104.73 112.94 105.08 113.73 105.42 114.52 105.77 110.57 106.12 108.99 106.47 103.07 106.82 95.96 107.17 94.77 107.52 97.93 107.87 100.3 108.22 103.07 108.57 104.65 108.92 105.04 109.26 106.23 109.61 108.6 109.96 105.04 110.31 107.81 110.66 110.18 111.01 108.2 111.36 106.23 111.71 104.65 112.06 102.28 112.41 103.86 112.76 107.02 113.11 105.83 113.45 102.28 113.8 106.62 114.15 106.62 114.5 105.04 114.85 106.23 115.2 106.23 115.55 109.39 115.9 107.02 116.25 104.65 116.6 105.83 116.95 104.25 117.3 104.65 117.64 106.62 117.99 106.23 118.34 105.04 118.69 109.39 119.04 105.83 119.39 108.99 119.74 107.81 120.09 111.36 120.44 109.39 120.79 104.65 121.14 110.57 121.48 110.57 121.83 114.92 122.18 111.36 122.53 114.52 122.88 110.18 123.23 114.13 123.58 111.36 123.93 112.15 124.28 117.29 124.63 121.63 124.98 122.82 125.33 120.05 125.67 119.66 126.02 119.66 126.37 121.24 126.72 120.45 127.07 120.45 127.42 118.87 127.77 120.05 128.12 117.68 128.47 116.5 128.82 112.15 129.17 108.6 129.51 108.6 129.86 108.2 130.21 109.39 130.56 107.02 130.91 105.04 131.26 109.78 131.61 110.18 131.96 115.31 132.31 117.68 132.66 114.92 133.01 116.5 133.36 116.5 133.7 115.71 134.05 114.13 134.4 113.34 134.75 109.78 135.1 107.81 135.45 106.23 135.8 104.65 136.15 107.81 136.5 105.44 136.85 101.09 137.2 105.44 137.55 101.09 137.89 99.12 138.24 102.28 138.59 101.88 138.94 97.54 139.29 91.22 139.64 91.61 139.99 95.17 140.34 99.51 140.69 99.12 141.04 98.72 141.39 97.14 141.73 97.93 142.08 97.54 142.43 98.33 142.78 98.33 143.13 100.7 143.48 94.38 143.83 90.43 144.18 90.82 144.53 93.98 144.88 98.72 145.23 97.54 145.58 95.96 145.92 99.51 146.27 99.12 146.62 97.54 146.97 98.33 147.32 97.93 147.67 97.14 148.02 97.93 148.37 102.67 148.72 109.39 149.07 105.83 149.42 110.18 149.76 112.94 150.11 109.39 150.46 111.76 150.81 113.34 151.16 113.73 151.51 109.39 151.86 106.62 152.21 105.04 152.56 102.28 152.91 99.91 153.26 103.46 153.61 105.83 153.95 107.81 154.3 108.2 154.65 107.02 155 105.83 155.35 104.25 155.7 105.83 156.05 105.04 156.4 107.81 156.75 105.44 157.1 104.25 157.45 105.44 157.79 104.25 158.14 108.6 158.49 114.92 158.84 115.31 159.19 114.92 159.54 113.34 159.89 117.68 160.24 120.45 160.59 123.61 160.94 126.37 161.29 123.61 161.64 123.61 161.98 126.37 162.33 128.74 162.68 130.72 163.03 130.72 163.38 130.72 163.73 131.11"/>
      </g>
      <g stroke-width="0.3" fill="#000000" fill-opacity="0.000" class="geometry" stroke-dasharray="none" stroke="#FEE08B" id="img-250b5d1e-15">
        <path fill="none" d="M21.98,71.86 L 22.33 70.28 22.68 65.54 23.03 65.94 23.38 62.78 23.73 59.22 24.08 58.43 24.42 54.48 24.77 56.46 25.12 53.3 25.47 56.85 25.82 64.75 26.17 59.62 26.52 65.54 26.87 68.31 27.22 65.94 27.57 70.68 27.92 73.44 28.27 67.91 28.61 64.75 28.96 63.57 29.31 64.36 29.66 58.43 30.01 59.62 30.36 63.57 30.71 63.57 31.06 62.38 31.41 54.88 31.76 52.9 32.11 52.51 32.45 57.64 32.8 55.27 33.15 57.25 33.5 58.83 33.85 65.54 34.2 63.96 34.55 68.31 34.9 65.15 35.25 65.15 35.6 65.15 35.95 68.31 36.3 70.68 36.64 79.37 36.99 78.58 37.34 77 37.69 71.86 38.04 71.07 38.39 69.1 38.74 72.65 39.09 70.28 39.44 71.47 39.79 67.12 40.14 69.89 40.49 71.07 40.83 74.63 41.18 81.74 41.53 77.39 41.88 74.63 42.23 71.07 42.58 71.47 42.93 69.49 43.28 65.15 43.63 69.49 43.98 69.1 44.33 66.73 44.67 62.78 45.02 64.75 45.37 64.36 45.72 65.15 46.07 61.59 46.42 66.73 46.77 71.86 47.12 78.58 47.47 76.21 47.82 74.23 48.17 72.26 48.52 73.84 48.86 73.84 49.21 72.26 49.56 71.07 49.91 68.31 50.26 72.65 50.61 71.47 50.96 74.63 51.31 75.02 51.66 77.39 52.01 82.53 52.36 86.08 52.7 82.13 53.05 82.53 53.4 83.32 53.75 85.69 54.1 87.66 54.45 83.32 54.8 86.08 55.15 78.18 55.5 80.16 55.85 77 56.2 77.79 56.55 77.79 56.89 78.58 57.24 78.97 57.59 73.84 57.94 76.6 58.29 75.42 58.64 69.49 58.99 69.89 59.34 69.1 59.69 72.65 60.04 73.84 60.39 77 60.73 73.44 61.08 78.18 61.43 76.6 61.78 77.79 62.13 77.79 62.48 80.16 62.83 80.16 63.18 82.13 63.53 81.34 63.88 84.9 64.23 85.29 64.58 81.74 64.92 81.74 65.27 80.16 65.62 84.11 65.97 84.11 66.32 87.27 66.67 83.32 67.02 85.69 67.37 86.48 67.72 86.08 68.07 82.13 68.42 80.55 68.77 83.32 69.11 87.27 69.46 86.87 69.81 89.64 70.16 90.82 70.51 95.96 70.86 93.19 71.21 88.45 71.56 80.95 71.91 80.95 72.26 86.87 72.61 87.27 72.95 86.48 73.3 89.24 73.65 91.61 74 97.54 74.35 99.12 74.7 97.93 75.05 100.3 75.4 99.12 75.75 100.3 76.1 90.82 76.45 93.98 76.8 93.98 77.14 88.85 77.49 86.48 77.84 85.69 78.19 88.45 78.54 91.22 78.89 94.77 79.24 89.64 79.59 88.85 79.94 93.98 80.29 90.82 80.64 88.45 80.98 84.9 81.33 85.69 81.68 86.48 82.03 84.11 82.38 77 82.73 77.79 83.08 82.53 83.43 87.66 83.78 90.82 84.13 87.66 84.48 89.64 84.83 92.4 85.17 95.96 85.52 99.12 85.87 97.54 86.22 97.54 86.57 99.91 86.92 94.38 87.27 93.19 87.62 96.35 87.97 90.82 88.32 86.87 88.67 87.27 89.02 89.24 89.36 85.69 89.71 86.48 90.06 84.11 90.41 85.29 90.76 82.53 91.11 80.16 91.46 77.39 91.81 80.95 92.16 80.55 92.51 82.92 92.86 84.11 93.2 83.71 93.55 78.18 93.9 80.55 94.25 77 94.6 71.47 94.95 72.65 95.3 78.18 95.65 77.79 96 80.55 96.35 82.13 96.7 79.37 97.05 78.58 97.39 84.11 97.74 84.5 98.09 89.64 98.44 93.59 98.79 93.98 99.14 99.51 99.49 99.91 99.84 107.41 100.19 107.02 100.54 101.88 100.89 104.65 101.23 103.86 101.58 103.46 101.93 104.65 102.28 107.02 102.63 105.83 102.98 102.28 103.33 97.93 103.68 103.86 104.03 103.46 104.38 105.04 104.73 104.25 105.08 103.07 105.42 107.02 105.77 106.62 106.12 103.86 106.47 104.65 106.82 100.3 107.17 104.65 107.52 101.88 107.87 101.09 108.22 98.33 108.57 94.77 108.92 91.22 109.26 90.03 109.61 89.24 109.96 89.24 110.31 88.06 110.66 86.48 111.01 89.24 111.36 85.69 111.71 82.53 112.06 83.32 112.41 85.29 112.76 84.9 113.11 90.03 113.45 90.43 113.8 88.06 114.15 86.48 114.5 90.43 114.85 89.24 115.2 95.56 115.55 92.01 115.9 93.19 116.25 92.4 116.6 93.59 116.95 92.01 117.3 91.22 117.64 86.08 117.99 84.9 118.34 88.06 118.69 91.22 119.04 86.08 119.39 84.9 119.74 85.29 120.09 88.06 120.44 86.48 120.79 83.32 121.14 85.69 121.48 82.13 121.83 71.47 122.18 77.39 122.53 77 122.88 80.16 123.23 79.76 123.58 86.87 123.93 90.82 124.28 84.5 124.63 84.11 124.98 86.87 125.33 81.74 125.67 80.16 126.02 84.5 126.37 86.08 126.72 82.13 127.07 78.58 127.42 86.87 127.77 89.64 128.12 87.27 128.47 88.85 128.82 91.22 129.17 90.43 129.51 86.08 129.86 84.9 130.21 90.03 130.56 89.24 130.91 90.82 131.26 92.4 131.61 85.69 131.96 83.71 132.31 74.63 132.66 71.86 133.01 73.05 133.36 68.31 133.7 69.89 134.05 69.89 134.4 66.73 134.75 69.49 135.1 70.68 135.45 73.44 135.8 71.47 136.15 73.44 136.5 75.02 136.85 75.81 137.2 69.89 137.55 69.49 137.89 63.57 138.24 59.22 138.59 58.83 138.94 58.04 139.29 52.51 139.64 50.53 139.99 55.67 140.34 61.59 140.69 62.78 141.04 59.62 141.39 59.62 141.73 60.01 142.08 61.2 142.43 59.22 142.78 61.59 143.13 61.99 143.48 65.94 143.83 65.15 144.18 66.73 144.53 63.17 144.88 64.75 145.23 64.75 145.58 65.54 145.92 68.7 146.27 70.28 146.62 66.33 146.97 63.17 147.32 58.43 147.67 53.69 148.02 60.01 148.37 55.67 148.72 58.43 149.07 50.53 149.42 51.32 149.76 52.11 150.11 53.69 150.46 55.27 150.81 56.06 151.16 51.72 151.51 53.3 151.86 59.22 152.21 60.41 152.56 62.38 152.91 60.8 153.26 60.01 153.61 60.41 153.95 61.99 154.3 66.33 154.65 67.12 155 69.49 155.35 71.86 155.7 74.63 156.05 82.13 156.4 82.53 156.75 81.34 157.1 80.95 157.45 78.97 157.79 69.89 158.14 67.52 158.49 59.22 158.84 60.41 159.19 62.78 159.54 67.12 159.89 66.33 160.24 67.12 160.59 65.15 160.94 61.59 161.29 63.57 161.64 62.38 161.98 60.41 162.33 60.41 162.68 63.96 163.03 62.38 163.38 62.78 163.73 60.41 164.08 63.57 164.43 61.2 164.78 63.57 165.13 64.75 165.48 62.38 165.83 63.17 166.17 62.38 166.52 63.17 166.87 62.78 167.22 66.33 167.57 68.31 167.92 72.65 168.27 67.91 168.62 68.7 168.97 67.52 169.32 69.1 169.67 70.28 170.01 64.75 170.36 65.54 170.71 63.57 171.06 63.96 171.41 59.62 171.76 59.22 172.11 58.83 172.46 56.06 172.81 54.09 173.16 48.56 173.51 52.51 173.86 49.35 174.2 48.56 174.55 53.69 174.9 54.88 175.25 51.72 175.6 52.9 175.95 49.35 176.3 48.16 176.65 45.79 177 51.72 177.35 50.53 177.7 48.95 178.04 46.58 178.39 49.74 178.74 51.32 179.09 48.56 179.44 41.05 179.79 45.79 180.14 43.03 180.49 37.1 180.84 38.29 181.19 38.29 181.54 42.63 181.89 46.98 182.23 48.16 182.58 48.56 182.93 43.03 183.28 44.61 183.63 47.77 183.98 44.21 184.33 40.66 184.68 45.4 185.03 50.14 185.38 48.56 185.73 48.95 186.08 48.95 186.42 54.09 186.77 53.3 187.12 54.88 187.47 58.83 187.82 59.22 188.17 60.8 188.52 60.41 188.87 58.83 189.22 60.41 189.57 57.25 189.92 54.48 190.26 53.69 190.61 52.51 190.96 56.85 191.31 62.38 191.66 64.36 192.01 64.36 192.36 67.52 192.71 65.15 193.06 57.25 193.41 52.51 193.76 51.72 194.11 55.67 194.45 58.04 194.8 56.85 195.15 59.22 195.5 55.27 195.85 56.46 196.2 63.96"/>
      </g>
      <g stroke-width="0.3" fill="#000000" fill-opacity="0.000" class="geometry" stroke-dasharray="none" stroke="#FDAE61" id="img-250b5d1e-16">
        <path fill="none" d="M21.98,71.86 L 22.33 70.68 22.68 67.91 23.03 69.89 23.38 65.94 23.73 68.31 24.08 62.38 24.42 59.62 24.77 62.38 25.12 64.36 25.47 58.04 25.82 56.06 26.17 54.48 26.52 54.48 26.87 52.9 27.22 54.09 27.57 47.77 27.92 46.58 28.27 43.82 28.61 50.53 28.96 47.77 29.31 45.79 29.66 43.42 30.01 46.98 30.36 49.35 30.71 47.77 31.06 51.72 31.41 50.14 31.76 52.51 32.11 50.53 32.45 54.88 32.8 56.85 33.15 52.9 33.5 49.35 33.85 50.53 34.2 54.88 34.55 58.04 34.9 54.88 35.25 53.3 35.6 57.64 35.95 61.59 36.3 63.96 36.64 64.75 36.99 68.31 37.34 68.31 37.69 68.7 38.04 67.12 38.39 70.28 38.74 73.44 39.09 70.68 39.44 72.65 39.79 73.05 40.14 73.05 40.49 75.81 40.83 78.18 41.18 77.39 41.53 78.97 41.88 85.29 42.23 84.5 42.58 86.48 42.93 84.5 43.28 87.27 43.63 86.87 43.98 87.66 44.33 93.19 44.67 98.33 45.02 99.91 45.37 101.09 45.72 100.3 46.07 103.46 46.42 105.83 46.77 109.39 47.12 107.81 47.47 110.18 47.82 109.78 48.17 111.36 48.52 111.36 48.86 110.18 49.21 111.76 49.56 112.94 49.91 111.76 50.26 112.94 50.61 116.1 50.96 112.94 51.31 112.94 51.66 111.36 52.01 113.73 52.36 114.13 52.7 115.31 53.05 119.26 53.4 115.31 53.75 117.68 54.1 120.84 54.45 121.24 54.8 121.24 55.15 122.42 55.5 122.82 55.85 122.03 56.2 122.03 56.55 120.45 56.89 120.45 57.24 122.82 57.59 121.63 57.94 120.84 58.29 120.84 58.64 124 58.99 124.79 59.34 125.19 59.69 126.37 60.04 125.98 60.39 125.98 60.73 127.16 61.08 122.03 61.43 121.63 61.78 122.82 62.13 123.21 62.48 124.79 62.83 124.79 63.18 124.4 63.53 123.21 63.88 122.42 64.23 121.24 64.58 118.47 64.92 122.03 65.27 122.42 65.62 120.05 65.97 124 66.32 127.16 66.67 128.35 67.02 128.74 67.37 129.14 67.72 129.14 68.07 129.14 68.42 130.32 68.77 130.72 69.11 130.72 69.46 130.72 69.81 131.11"/>
      </g>
      <g stroke-width="0.3" fill="#000000" fill-opacity="0.000" class="geometry" stroke-dasharray="none" stroke="#F46D43" id="img-250b5d1e-17">
        <path fill="none" d="M21.98,71.86 L 22.33 77.39 22.68 76.21 23.03 75.42 23.38 70.68 23.73 72.26 24.08 77.79 24.42 85.29 24.77 80.55 25.12 84.5 25.47 90.03 25.82 90.03 26.17 92.01 26.52 92.8 26.87 98.72 27.22 93.19 27.57 99.51 27.92 97.93 28.27 99.12 28.61 99.12 28.96 101.88 29.31 102.28 29.66 103.46 30.01 103.07 30.36 102.67 30.71 104.65 31.06 99.12 31.41 92.8 31.76 96.35 32.11 94.77 32.45 95.96 32.8 97.54 33.15 97.14 33.5 95.96 33.85 101.09 34.2 104.25 34.55 105.04 34.9 101.88 35.25 101.49 35.6 104.25 35.95 103.86 36.3 105.04 36.64 103.46 36.99 102.67 37.34 101.09 37.69 103.07 38.04 103.46 38.39 104.25 38.74 99.12 39.09 100.3 39.44 96.35 39.79 98.72 40.14 98.33 40.49 95.56 40.83 97.14 41.18 95.56 41.53 95.96 41.88 91.22 42.23 94.38 42.58 89.64 42.93 89.64 43.28 92.8 43.63 92.8 43.98 89.64 44.33 86.48 44.67 84.9 45.02 86.48 45.37 83.71 45.72 86.08 46.07 86.08 46.42 82.92 46.77 80.16 47.12 86.08 47.47 85.69 47.82 83.71 48.17 82.92 48.52 83.71 48.86 82.13 49.21 77 49.56 77.79 49.91 77.39 50.26 74.23 50.61 73.05 50.96 76.21 51.31 75.42 51.66 78.97 52.01 78.58 52.36 80.16 52.7 80.16 53.05 74.63 53.4 73.05 53.75 71.86 54.1 78.18 54.45 79.76 54.8 77 55.15 83.32 55.5 81.34 55.85 82.53 56.2 84.5 56.55 85.29 56.89 84.9 57.24 78.97 57.59 83.71 57.94 82.13 58.29 83.71 58.64 82.13 58.99 83.32 59.34 78.58 59.69 72.65 60.04 67.12 60.39 64.75 60.73 61.59 61.08 63.57 61.43 63.96 61.78 65.54 62.13 68.31 62.48 64.75 62.83 59.22 63.18 66.33 63.53 61.59 63.88 65.15 64.23 65.15 64.58 61.99 64.92 67.12 65.27 68.31 65.62 71.47 65.97 64.75 66.32 61.2 66.67 57.25 67.02 62.78 67.37 63.96 67.72 65.15 68.07 69.49 68.42 69.89 68.77 71.86 69.11 70.68 69.46 73.84 69.81 75.42 70.16 77 70.51 77 70.86 78.58 71.21 75.81 71.56 79.76 71.91 76.6 72.26 77.79 72.61 71.07 72.95 68.7 73.3 63.57 73.65 60.8 74 56.06 74.35 50.93 74.7 46.19 75.05 43.82 75.4 41.84 75.75 39.47 76.1 39.08 76.45 39.87 76.8 34.73 77.14 42.24 77.49 41.45 77.84 39.87 78.19 36.71 78.54 41.05 78.89 39.08 79.24 37.89 79.59 39.08 79.94 44.61 80.29 42.24 80.64 39.47 80.98 38.68 81.33 38.68 81.68 35.13 82.03 33.94 82.38 38.68 82.73 39.08 83.08 40.66 83.43 39.47 83.78 38.68 84.13 40.26 84.48 43.03 84.83 43.42 85.17 47.37 85.52 47.37 85.87 44.61 86.22 40.66 86.57 38.68 86.92 37.5 87.27 36.31 87.62 34.73 87.97 34.34 88.32 30.78 88.67 34.34 89.02 35.13 89.36 29.99 89.71 28.41 90.06 30.39 90.41 30.39 90.76 30.78 91.11 29.99 91.46 29.2 91.81 30.39 92.16 33.55 92.51 33.15 92.86 37.89 93.2 41.45 93.55 43.03 93.9 45.79 94.25 46.58 94.6 50.14 94.95 48.95 95.3 48.16 95.65 49.35 96 51.32 96.35 57.64 96.7 53.69 97.05 53.69 97.39 54.88 97.74 53.3 98.09 48.95 98.44 48.95 98.79 48.56 99.14 53.69 99.49 58.83 99.84 64.75 100.19 58.83 100.54 63.57 100.89 62.78 101.23 57.64 101.58 50.93 101.93 54.09 102.28 51.72 102.63 54.09 102.98 55.27 103.33 56.46 103.68 57.25 104.03 57.64 104.38 54.48 104.73 56.06 105.08 56.46 105.42 53.3 105.77 55.27 106.12 53.3 106.47 50.14 106.82 48.16 107.17 47.37 107.52 44.21 107.87 40.66 108.22 39.47 108.57 40.26 108.92 39.08 109.26 41.45 109.61 38.29 109.96 35.13 110.31 35.92 110.66 36.31 111.01 32.76 111.36 31.97 111.71 31.97 112.06 29.99 112.41 28.41 112.76 28.81 113.11 33.55 113.45 34.34 113.8 38.29 114.15 37.89 114.5 37.1 114.85 37.5 115.2 39.08 115.55 38.29 115.9 38.29 116.25 37.5 116.6 35.92 116.95 35.92 117.3 37.89 117.64 36.71 117.99 37.1 118.34 37.5 118.69 41.05 119.04 39.08 119.39 38.68 119.74 39.08 120.09 34.73 120.44 34.73 120.79 39.47 121.14 32.76 121.48 31.18 121.83 32.36 122.18 33.15 122.53 31.18 122.88 33.15 123.23 33.15 123.58 31.18 123.93 33.15 124.28 32.36 124.63 30.78 124.98 29.6 125.33 30.39 125.67 31.18 126.02 31.18 126.37 30.39 126.72 28.81 127.07 27.62 127.42 30.78 127.77 32.76 128.12 39.08 128.47 39.47 128.82 34.73 129.17 31.57 129.51 28.02 129.86 28.81 130.21 31.57 130.56 34.34 130.91 39.08 131.26 36.71 131.61 31.57 131.96 26.83 132.31 24.46 132.66 24.46 133.01 21.7 133.36 21.7 133.7 22.88 134.05 21.7 134.4 21.7 134.75 18.54 135.1 20.51 135.45 21.7 135.8 20.12 136.15 20.12 136.5 19.72 136.85 20.12 137.2 18.93 137.55 16.96 137.89 17.35 138.24 16.56 138.59 15.77 138.94 16.17 139.29 14.98 139.64 13.8 139.99 15.38 140.34 16.17 140.69 16.17 141.04 16.17 141.39 14.98 141.73 15.77 142.08 16.56 142.43 15.38 142.78 14.98 143.13 13.4 143.48 13.8 143.83 13.01 144.18 12.61"/>
      </g>
      <g stroke-width="0.3" fill="#000000" fill-opacity="0.000" class="geometry" stroke-dasharray="none" stroke="#D53E4F" id="img-250b5d1e-18">
        <path fill="none" d="M21.98,71.86 L 22.33 73.05 22.68 69.1 23.03 70.28 23.38 69.49 23.73 70.28 24.08 68.7 24.42 65.94 24.77 66.33 25.12 67.12 25.47 62.78 25.82 63.96 26.17 65.54 26.52 64.36 26.87 59.22 27.22 60.8 27.57 56.06 27.92 55.27 28.27 57.64 28.61 59.62 28.96 67.12 29.31 68.31 29.66 73.84 30.01 80.55 30.36 83.32 30.71 83.71 31.06 88.45 31.41 87.66 31.76 92.4 32.11 90.03 32.45 91.22 32.8 91.22 33.15 96.35 33.5 96.35 33.85 95.56 34.2 96.35 34.55 96.35 34.9 100.7 35.25 97.93 35.6 95.17 35.95 88.85 36.3 91.22 36.64 92.01 36.99 92.8 37.34 88.06 37.69 94.38 38.04 92.8 38.39 93.98 38.74 88.06 39.09 86.87 39.44 88.85 39.79 89.64 40.14 89.64 40.49 93.98 40.83 90.82 41.18 90.82 41.53 88.06 41.88 84.9 42.23 87.27 42.58 87.27 42.93 87.27 43.28 91.61 43.63 92.01 43.98 93.98 44.33 96.35 44.67 92.4 45.02 88.45 45.37 88.45 45.72 88.85 46.07 94.77 46.42 97.93 46.77 98.33 47.12 97.14 47.47 98.72 47.82 99.91 48.17 99.51 48.52 101.49 48.86 99.51 49.21 98.33 49.56 96.35 49.91 95.17 50.26 91.22 50.61 94.38 50.96 97.14 51.31 94.77 51.66 93.59 52.01 92.4 52.36 88.06 52.7 87.66 53.05 94.38 53.4 94.38 53.75 95.96 54.1 95.56 54.45 97.54 54.8 97.93 55.15 102.28 55.5 99.12 55.85 99.12 56.2 102.67 56.55 107.81 56.89 104.65 57.24 98.33 57.59 101.09 57.94 101.88 58.29 95.96 58.64 93.98 58.99 93.19 59.34 96.75 59.69 97.93 60.04 98.72 60.39 92.01 60.73 84.11 61.08 84.5 61.43 87.27 61.78 92.8 62.13 97.14 62.48 94.77 62.83 97.93 63.18 101.88 63.53 98.33 63.88 101.09 64.23 103.86 64.58 103.46 64.92 106.23 65.27 109.39 65.62 110.97 65.97 110.97 66.32 114.52 66.67 114.13 67.02 118.47 67.37 120.05 67.72 121.63 68.07 122.03 68.42 119.26 68.77 118.87 69.11 118.47 69.46 120.05 69.81 121.63 70.16 122.03 70.51 120.45 70.86 122.03 71.21 122.03 71.56 123.61 71.91 122.03 72.26 117.29 72.61 118.87 72.95 114.52 73.3 113.34 73.65 111.76 74 107.41 74.35 104.65 74.7 106.62 75.05 108.6 75.4 111.76 75.75 111.36 76.1 113.73 76.45 113.73 76.8 114.13 77.14 114.13 77.49 113.34 77.84 113.73 78.19 117.29 78.54 115.31 78.89 115.71 79.24 115.31 79.59 114.92 79.94 115.71 80.29 111.76 80.64 113.34 80.98 111.36 81.33 112.15 81.68 118.87 82.03 122.03 82.38 121.24 82.73 117.68 83.08 122.03 83.43 119.66 83.78 120.05 84.13 122.82 84.48 123.21 84.83 122.03 85.17 124.4 85.52 122.42 85.87 123.61 86.22 125.19 86.57 125.98 86.92 125.58 87.27 121.24 87.62 121.24 87.97 123.61 88.32 124.4 88.67 120.05 89.02 121.63 89.36 122.82 89.71 121.24 90.06 120.45 90.41 120.84 90.76 122.42 91.11 124 91.46 125.19 91.81 124.79 92.16 122.82 92.51 123.61 92.86 122.42 93.2 122.42 93.55 118.87 93.9 116.5 94.25 116.5 94.6 113.73 94.95 115.71 95.3 116.5 95.65 118.47 96 121.24 96.35 120.84 96.7 122.03 97.05 123.61 97.39 123.21 97.74 122.42 98.09 123.21 98.44 124.4 98.79 125.58 99.14 126.77 99.49 126.77 99.84 129.53 100.19 128.74 100.54 130.72 100.89 130.32 101.23 129.14 101.58 128.74 101.93 130.32 102.28 130.32 102.63 129.93 102.98 129.53 103.33 129.53 103.68 130.32 104.03 129.93 104.38 130.32 104.73 129.93 105.08 130.32 105.42 130.32 105.77 130.32 106.12 130.32 106.47 130.72 106.82 130.32 107.17 130.72 107.52 130.72 107.87 131.11"/>
      </g>
      <g stroke-width="0.3" fill="#000000" fill-opacity="0.000" class="geometry" stroke-dasharray="none" stroke="#9E0142" id="img-250b5d1e-19">
        <path fill="none" d="M21.98,71.86 L 22.33 73.05 22.68 74.63 23.03 69.49 23.38 69.1 23.73 71.07 24.08 71.47 24.42 68.31 24.77 71.86 25.12 68.7 25.47 67.12 25.82 68.7 26.17 65.54 26.52 63.17 26.87 62.78 27.22 62.78 27.57 61.99 27.92 61.99 28.27 58.83 28.61 61.99 28.96 61.2 29.31 57.64 29.66 64.36 30.01 67.12 30.36 72.26 30.71 68.7 31.06 66.33 31.41 63.17 31.76 60.8 32.11 64.75 32.45 63.17 32.8 65.15 33.15 61.99 33.5 62.38 33.85 67.52 34.2 71.07 34.55 69.1 34.9 67.91 35.25 67.12 35.6 68.7 35.95 69.1 36.3 69.89 36.64 73.05 36.99 72.65 37.34 73.84 37.69 72.65 38.04 69.89 38.39 70.68 38.74 65.54 39.09 61.59 39.44 57.64 39.79 60.8 40.14 68.7 40.49 70.68 40.83 75.81 41.18 77.79 41.53 79.76 41.88 83.71 42.23 88.06 42.58 92.01 42.93 97.14 43.28 99.12 43.63 100.3 43.98 99.51 44.33 98.72 44.67 101.88 45.02 105.44 45.37 102.67 45.72 104.25 46.07 106.23 46.42 107.02 46.77 105.83 47.12 105.44 47.47 107.81 47.82 107.41 48.17 105.44 48.52 101.09 48.86 99.51 49.21 101.09 49.56 99.51 49.91 96.75 50.26 101.49 50.61 102.28 50.96 101.88 51.31 101.88 51.66 105.44 52.01 106.62 52.36 112.15 52.7 107.81 53.05 101.88 53.4 103.46 53.75 103.07 54.1 97.14 54.45 92.8 54.8 91.22 55.15 90.82 55.5 92.8 55.85 90.82 56.2 91.61 56.55 87.66 56.89 91.22 57.24 91.22 57.59 92.8 57.94 88.85 58.29 84.11 58.64 81.34 58.99 82.92 59.34 79.37 59.69 79.37 60.04 80.16 60.39 85.29 60.73 92.01 61.08 93.59 61.43 95.96 61.78 99.91 62.13 99.12 62.48 96.35 62.83 95.96 63.18 88.06 63.53 97.14 63.88 95.17 64.23 93.19 64.58 93.98 64.92 95.96 65.27 94.77 65.62 100.3 65.97 100.3 66.32 96.35 66.67 95.56 67.02 93.98 67.37 92.8 67.72 94.77 68.07 91.61 68.42 92.8 68.77 91.61 69.11 91.22 69.46 91.61 69.81 87.66 70.16 86.48 70.51 90.03 70.86 83.71 71.21 81.74 71.56 78.97 71.91 81.34 72.26 80.16 72.61 79.37 72.95 76.21 73.3 78.58 73.65 75.42 74 75.42 74.35 70.68 74.7 72.26 75.05 69.89 75.4 73.05 75.75 67.52 76.1 66.33 76.45 63.17 76.8 61.2 77.14 67.52 77.49 71.86 77.84 67.12 78.19 71.47 78.54 70.68 78.89 71.47 79.24 77.79 79.59 77.79 79.94 77 80.29 75.42 80.64 73.84 80.98 74.63 81.33 78.18 81.68 74.63 82.03 77 82.38 76.21 82.73 77.79 83.08 73.05 83.43 73.05 83.78 69.1 84.13 68.31 84.48 69.89 84.83 72.26 85.17 73.44 85.52 75.81 85.87 80.16 86.22 79.76 86.57 82.13 86.92 80.95 87.27 78.97 87.62 78.97 87.97 80.95 88.32 80.95 88.67 82.13 89.02 86.48 89.36 84.5 89.71 85.29 90.06 83.71 90.41 86.48 90.76 82.92 91.11 78.58 91.46 81.74 91.81 82.92 92.16 82.13 92.51 84.11 92.86 86.87 93.2 89.64 93.55 90.43 93.9 89.24 94.25 87.66 94.6 86.87 94.95 87.66 95.3 92.01 95.65 93.59 96 96.35 96.35 95.17 96.7 96.35 97.05 99.91 97.39 104.25 97.74 105.04 98.09 103.46 98.44 107.02 98.79 108.2 99.14 107.41 99.49 103.46 99.84 103.46 100.19 103.86 100.54 100.3 100.89 104.25 101.23 104.65 101.58 109.39 101.93 107.02 102.28 107.02 102.63 108.6 102.98 104.65 103.33 105.04 103.68 103.86 104.03 105.04 104.38 103.46 104.73 103.07 105.08 103.46 105.42 103.86 105.77 104.65 106.12 104.65 106.47 104.25 106.82 107.02 107.17 108.99 107.52 109.78 107.87 109.39 108.22 112.94 108.57 112.94 108.92 114.52 109.26 115.71 109.61 114.92 109.96 116.89 110.31 119.66 110.66 118.08 111.01 116.5 111.36 114.52 111.71 115.71 112.06 116.5 112.41 119.66 112.76 120.84 113.11 122.03 113.45 120.45 113.8 118.87 114.15 120.05 114.5 121.63 114.85 120.84 115.2 120.05 115.55 118.08 115.9 113.34 116.25 113.73 116.6 118.47 116.95 118.87 117.3 120.45 117.64 124 117.99 122.42 118.34 124.79 118.69 123.21 119.04 125.19 119.39 125.19 119.74 124.4 120.09 125.19 120.44 125.58 120.79 122.42 121.14 122.03 121.48 123.21 121.83 125.19 122.18 124.79 122.53 124.79 122.88 124.79 123.23 123.61 123.58 123.21 123.93 123.21 124.28 122.82 124.63 122.82 124.98 120.84 125.33 122.42 125.67 124.4 126.02 124.4 126.37 128.35 126.72 127.56 127.07 126.77 127.42 128.74 127.77 127.16 128.12 125.98 128.47 127.16 128.82 127.95 129.17 127.95 129.51 127.56 129.86 125.58 130.21 127.16 130.56 127.16 130.91 125.98 131.26 125.58 131.61 125.19 131.96 124.4 132.31 124.79 132.66 122.42 133.01 123.21 133.36 124.79 133.7 125.19 134.05 125.98 134.4 126.77 134.75 129.14 135.1 130.72 135.45 129.93 135.8 130.32 136.15 129.93 136.5 129.93 136.85 129.14 137.2 129.14 137.55 129.14 137.89 128.35 138.24 126.37 138.59 124 138.94 126.77 139.29 127.56 139.64 128.35 139.99 126.77 140.34 129.93 140.69 128.74 141.04 127.56 141.39 126.37 141.73 127.16 142.08 128.35 142.43 129.93 142.78 129.93 143.13 129.53 143.48 129.53 143.83 129.53 144.18 129.93 144.53 129.93 144.88 129.53 145.23 128.74 145.58 129.93 145.92 129.53 146.27 129.93 146.62 129.93 146.97 130.32 147.32 130.32 147.67 129.93 148.02 130.32 148.37 130.72 148.72 131.11"/>
      </g>
    </g>
  </g>
</g>
  <g class="guide ylabels" font-size="2.82" font-family="'PT Sans Caption','Helvetica Neue','Helvetica',sans-serif" fill="#000000" id="img-250b5d1e-20">
    <text x="18.63" y="131.11" text-anchor="end" dy="0.35em">0</text>
    <text x="18.63" y="91.61" text-anchor="end" dy="0.35em">100</text>
    <text x="18.63" y="52.11" text-anchor="end" dy="0.35em">200</text>
    <text x="18.63" y="12.61" text-anchor="end" dy="0.35em">300</text>
  </g>
  <g font-size="3.88" font-family="'PT Sans','Helvetica Neue','Helvetica',sans-serif" fill="#000000" stroke="#000000" stroke-opacity="0.000" id="img-250b5d1e-21">
    <text x="8.81" y="69.86" text-anchor="middle" dy="0.35em" transform="rotate(-90, 8.81, 71.86)">population number</text>
  </g>
  <g font-size="3.88" font-family="'PT Sans','Helvetica Neue','Helvetica',sans-serif" fill="#000000" stroke="#000000" stroke-opacity="0.000" id="img-250b5d1e-22">
    <text x="108.92" y="5" text-anchor="middle" dy="0.6em">genetic drift</text>
  </g>
</g>
<defs>
  <clipPath id="img-250b5d1e-4">
  <path d="M19.63,10.61 L 198.2 10.61 198.2 133.11 19.63 133.11" />
</clipPath>
</defs>
</svg>
