<?xml version="1.0" encoding="UTF-8"?>
<svg xmlns="http://www.w3.org/2000/svg"
     xmlns:xlink="http://www.w3.org/1999/xlink"
     xmlns:gadfly="http://www.gadflyjl.org/ns"
     version="1.2"
     width="203.2mm" height="152.4mm" viewBox="0 0 203.2 152.4"
     stroke="none"
     fill="#000000"
     stroke-width="0.3"
     font-size="3.88"
>
<g class="plotroot xscalable yscalable" id="img-72c915b2-1">
  <g font-size="3.88" font-family="'PT Sans','Helvetica Neue','Helvetica',sans-serif" fill="#000000" stroke="#000000" stroke-opacity="0.000" id="img-72c915b2-2">
    <text x="108.92" y="140.79" text-anchor="middle" dy="0.6em">generation number</text>
  </g>
  <g class="guide xlabels" font-size="2.82" font-family="'PT Sans Caption','Helvetica Neue','Helvetica',sans-serif" fill="#000000" id="img-72c915b2-3">
    <text x="21.63" y="134.11" text-anchor="middle" dy="0.6em">0</text>
    <text x="56.55" y="134.11" text-anchor="middle" dy="0.6em">100</text>
    <text x="91.46" y="134.11" text-anchor="middle" dy="0.6em">200</text>
    <text x="126.37" y="134.11" text-anchor="middle" dy="0.6em">300</text>
    <text x="161.29" y="134.11" text-anchor="middle" dy="0.6em">400</text>
    <text x="196.2" y="134.11" text-anchor="middle" dy="0.6em">500</text>
  </g>
<g clip-path="url(#img-72c915b2-4)">
  <g id="img-72c915b2-5">
    <g pointer-events="visible" opacity="1" fill="#FFFFFF" stroke="#000000" stroke-opacity="0.000" class="guide background" id="img-72c915b2-6">
      <rect x="19.63" y="10.61" width="178.57" height="122.5"/>
    </g>
    <g class="guide ygridlines xfixed" stroke-dasharray="0.5,0.5" stroke-width="0.2" stroke="#808080" id="img-72c915b2-7">
      <path fill="none" d="M19.63,131.11 L 198.2 131.11"/>
      <path fill="none" d="M19.63,107.41 L 198.2 107.41"/>
      <path fill="none" d="M19.63,83.71 L 198.2 83.71"/>
      <path fill="none" d="M19.63,60.01 L 198.2 60.01"/>
      <path fill="none" d="M19.63,36.31 L 198.2 36.31"/>
      <path fill="none" d="M19.63,12.61 L 198.2 12.61"/>
    </g>
    <g class="guide xgridlines yfixed" stroke-dasharray="0.5,0.5" stroke-width="0.2" stroke="#808080" id="img-72c915b2-8">
      <path fill="none" d="M21.63,10.61 L 21.63 133.11"/>
      <path fill="none" d="M56.55,10.61 L 56.55 133.11"/>
      <path fill="none" d="M91.46,10.61 L 91.46 133.11"/>
      <path fill="none" d="M126.37,10.61 L 126.37 133.11"/>
      <path fill="none" d="M161.29,10.61 L 161.29 133.11"/>
      <path fill="none" d="M196.2,10.61 L 196.2 133.11"/>
    </g>
    <g class="plotpanel" id="img-72c915b2-9">
      <g stroke-width="0.3" fill="#000000" fill-opacity="0.000" class="geometry" stroke-dasharray="none" stroke="#3288BD" id="img-72c915b2-10">
        <path fill="none" d="M21.98,71.86 L 22.33 71.39 22.68 68.07 23.03 69.73 23.38 70.68 23.73 70.68 24.08 67.36 24.42 68.55 24.77 70.68 25.12 72.1 25.47 70.92 25.82 74 26.17 74 26.52 74.23 26.87 74.23 27.22 73.05 27.57 74.23 27.92 72.1 28.27 69.97 28.61 73.52 28.96 72.1 29.31 74.23 29.66 72.1 30.01 69.73 30.36 67.36 30.71 60.49 31.06 61.67 31.41 61.2 31.76 56.93 32.11 54.09 32.45 54.09 32.8 56.22 33.15 59.3 33.5 57.64 33.85 55.27 34.2 49.58 34.55 49.11 34.9 49.82 35.25 48.4 35.6 49.58 35.95 47.21 36.3 45.56 36.64 47.69 36.99 47.93 37.34 48.64 37.69 45.79 38.04 45.56 38.39 47.69 38.74 46.74 39.09 47.69 39.44 54.56 39.79 55.27 40.14 56.22 40.49 60.01 40.83 56.22 41.18 55.04 41.53 53.14 41.88 48.16 42.23 48.64 42.58 47.69 42.93 48.4 43.28 45.79 43.63 42.71 43.98 41.76 44.33 41.53 44.67 40.58 45.02 37.73 45.37 36.79 45.72 40.82 46.07 42 46.42 45.32 46.77 50.06 47.12 48.16 47.47 49.82 47.82 51.48 48.17 49.82 48.52 49.82 48.86 51.01 49.21 50.53 49.56 47.93 49.91 52.9 50.26 55.98 50.61 53.85 50.96 53.85 51.31 54.09 51.66 57.17 52.01 58.83 52.36 59.06 52.7 55.27 53.05 59.54 53.4 60.96 53.75 61.2 54.1 59.78 54.45 54.56 54.8 54.8 55.15 56.93 55.5 59.78 55.85 60.49 56.2 65.46 56.55 64.52 56.89 66.65 57.24 64.99 57.59 68.07 57.94 71.15 58.29 69.97 58.64 66.65 58.99 60.72 59.34 55.75 59.69 52.67 60.04 49.11 60.39 50.77 60.73 51.01 61.08 50.3 61.43 49.11 61.78 47.69 62.13 45.56 62.48 44.84 62.83 45.79 63.18 47.21 63.53 50.77 63.88 48.16 64.23 44.84 64.58 45.32 64.92 45.32 65.27 44.37 65.62 44.13 65.97 45.32 66.32 43.66 66.67 44.37 67.02 42.47 67.37 44.37 67.72 44.84 68.07 45.32 68.42 46.98 68.77 51.48 69.11 47.93 69.46 50.06 69.81 52.19 70.16 50.3 70.51 50.77 70.86 50.3 71.21 56.69 71.56 53.38 71.91 55.98 72.26 58.59 72.61 57.88 72.95 58.83 73.3 63.81 73.65 60.25 74 65.23 74.35 65.46 74.7 65.7 75.05 67.36 75.4 65.7 75.75 67.6 76.1 66.18 76.45 65.23 76.8 63.09 77.14 59.54 77.49 58.35 77.84 61.67 78.19 62.62 78.54 61.67 78.89 64.28 79.24 66.18 79.59 68.07 79.94 68.31 80.29 69.97 80.64 66.65 80.98 74.23 81.33 75.42 81.68 75.18 82.03 73.52 82.38 78.74 82.73 76.13 83.08 79.68 83.43 78.97 83.78 78.97 84.13 78.74 84.48 81.82 84.83 82.77 85.17 76.84 85.52 79.68 85.87 80.4 86.22 77.31 86.57 75.42 86.92 76.84 87.27 75.89 87.62 74 87.97 74.47 88.32 76.13 88.67 81.34 89.02 84.19 89.36 85.85 89.71 80.63 90.06 75.18 90.41 77.55 90.76 80.4 91.11 78.74 91.46 82.05 91.81 85.14 92.16 89.88 92.51 88.22 92.86 91.3 93.2 90.11 93.55 90.35 93.9 92.96 94.25 94.38 94.6 95.33 94.95 97.46 95.3 94.38 95.65 92.01 96 93.43 96.35 93.19 96.7 92.72 97.05 94.14 97.39 96.04 97.74 96.28 98.09 94.14 98.44 92.48 98.79 91.06 99.14 93.19 99.49 96.75 99.84 95.33 100.19 95.8 100.54 98.65 100.89 96.75 101.23 96.75 101.58 100.54 101.93 100.54 102.28 100.78 102.63 95.8 102.98 96.75 103.33 95.09 103.68 90.11 104.03 89.4 104.38 87.51 104.73 87.51 105.08 87.98 105.42 88.45 105.77 87.98 106.12 93.19 106.47 93.43 106.82 95.33 107.17 91.06 107.52 89.4 107.87 89.16 108.22 86.79 108.57 87.74 108.92 86.32 109.26 86.08 109.61 86.32 109.96 86.08 110.31 86.32 110.66 88.45 111.01 87.74 111.36 86.32 111.71 88.22 112.06 89.16 112.41 89.16 112.76 89.16 113.11 85.85 113.45 87.74 113.8 87.51 114.15 87.27 114.5 85.85 114.85 86.56 115.2 91.3 115.55 88.93 115.9 89.4 116.25 89.88 116.6 90.82 116.95 90.11 117.3 91.3 117.64 98.41 117.99 95.09 118.34 96.28 118.69 95.56 119.04 92.72 119.39 93.43 119.74 96.75 120.09 97.46 120.44 96.75 120.79 96.99 121.14 96.75 121.48 97.46 121.83 97.93 122.18 101.49 122.53 105.28 122.88 105.04 123.23 104.81 123.58 104.81 123.93 105.28 124.28 103.39 124.63 100.3 124.98 101.49 125.33 105.76 125.67 105.99 126.02 107.41 126.37 108.13 126.72 110.5 127.07 112.39 127.42 110.5 127.77 110.97 128.12 110.73 128.47 111.44 128.82 112.15 129.17 113.81 129.51 113.34 129.86 112.87 130.21 110.97 130.56 107.18 130.91 107.41 131.26 112.63 131.61 110.97 131.96 113.81 132.31 112.15 132.66 111.44 133.01 113.81 133.36 113.1 133.7 113.1 134.05 110.73 134.4 111.21 134.75 110.5 135.1 112.63 135.45 112.15 135.8 112.15 136.15 110.73 136.5 110.73 136.85 112.39 137.2 112.39 137.55 108.36 137.89 109.55 138.24 110.73 138.59 108.13 138.94 113.81 139.29 113.58 139.64 111.44 139.99 114.05 140.34 113.58 140.69 112.39 141.04 113.34 141.39 112.87 141.73 111.21 142.08 112.63 142.43 110.26 142.78 109.07 143.13 111.68 143.48 111.68 143.83 110.02 144.18 112.63 144.53 115.95 144.88 116.42 145.23 116.66 145.58 117.61 145.92 118.55 146.27 118.79 146.62 116.66 146.97 117.13 147.32 115.95 147.67 119.26 148.02 118.55 148.37 115.71 148.72 119.5 149.07 122.11 149.42 121.4 149.76 117.61 150.11 119.26 150.46 119.74 150.81 118.32 151.16 121.4 151.51 122.82 151.86 120.92 152.21 122.58 152.56 123.06 152.91 121.87 153.26 123.77 153.61 125.66 153.95 124.24 154.3 124.72 154.65 125.66 155 126.37 155.35 126.85 155.7 127.09 156.05 126.85 156.4 127.32 156.75 128.98 157.1 128.74 157.45 128.98 157.79 129.46 158.14 128.98 158.49 128.51 158.84 126.85 159.19 127.32 159.54 125.66 159.89 125.19 160.24 126.14 160.59 125.66 160.94 125.9 161.29 126.37 161.64 125.9 161.98 125.66 162.33 124.72 162.68 126.61 163.03 126.14 163.38 128.03 163.73 127.32 164.08 126.61 164.43 124.24 164.78 123.77 165.13 125.19 165.48 126.14 165.83 126.37 166.17 126.14 166.52 126.85 166.87 127.32 167.22 127.32 167.57 128.27 167.92 127.8 168.27 127.32 168.62 127.56 168.97 127.32 169.32 127.56 169.67 128.03 170.01 126.14 170.36 125.19 170.71 124 171.06 125.43 171.41 124.95 171.76 125.19 172.11 126.85 172.46 127.32 172.81 127.32 173.16 124.72 173.51 124.48 173.86 125.43 174.2 126.37 174.55 126.85 174.9 123.06 175.25 122.58 175.6 123.29 175.95 123.77 176.3 123.77 176.65 123.53 177 122.11 177.35 123.53 177.7 120.21 178.04 121.63 178.39 122.35 178.74 121.4 179.09 119.5 179.44 120.21 179.79 121.63 180.14 124.48 180.49 125.66 180.84 125.66 181.19 125.66 181.54 127.32 181.89 128.27 182.23 129.46 182.58 129.93 182.93 129.93 183.28 130.17 183.63 129.46 183.98 128.98 184.33 128.74 184.68 128.98 185.03 128.51 185.38 129.22 185.73 129.46 186.08 129.69 186.42 128.51 186.77 127.8 187.12 128.51 187.47 128.27 187.82 128.27 188.17 127.56 188.52 128.03 188.87 128.74 189.22 128.98 189.57 128.51 189.92 129.46 190.26 129.69 190.61 129.93 190.96 129.93 191.31 129.69 191.66 129.22 192.01 129.22 192.36 128.98 192.71 127.32 193.06 127.8 193.41 126.37 193.76 126.14 194.11 126.14 194.45 125.43 194.8 125.43 195.15 126.37 195.5 127.56 195.85 128.51 196.2 128.74"/>
      </g>
      <g stroke-width="0.3" fill="#000000" fill-opacity="0.000" class="geometry" stroke-dasharray="none" stroke="#66C2A5" id="img-72c915b2-11">
        <path fill="none" d="M21.98,71.86 L 22.33 70.68 22.68 77.31 23.03 77.08 23.38 75.89 23.73 78.5 24.08 75.42 24.42 74.47 24.77 73.52 25.12 70.92 25.47 65.94 25.82 65.7 26.17 62.38 26.52 60.25 26.87 61.91 27.22 65.46 27.57 66.41 27.92 62.38 28.27 65.94 28.61 65.23 28.96 64.52 29.31 64.04 29.66 64.75 30.01 63.81 30.36 66.89 30.71 66.89 31.06 67.12 31.41 69.26 31.76 68.78 32.11 70.2 32.45 71.15 32.8 72.1 33.15 71.86 33.5 69.73 33.85 72.1 34.2 70.92 34.55 69.49 34.9 68.78 35.25 67.6 35.6 71.39 35.95 68.31 36.3 70.2 36.64 72.1 36.99 74 37.34 74 37.69 73.52 38.04 72.1 38.39 73.29 38.74 74.47 39.09 74.94 39.44 71.86 39.79 74.71 40.14 78.97 40.49 73.29 40.83 75.89 41.18 75.89 41.53 77.31 41.88 75.66 42.23 77.08 42.58 75.18 42.93 74 43.28 77.79 43.63 80.4 43.98 81.34 44.33 86.79 44.67 87.74 45.02 86.08 45.37 87.74 45.72 91.53 46.07 92.96 46.42 95.33 46.77 93.19 47.12 92.72 47.47 87.74 47.82 93.9 48.17 89.4 48.52 90.11 48.86 90.35 49.21 88.69 49.56 87.27 49.91 90.82 50.26 91.77 50.61 92.96 50.96 94.62 51.31 96.04 51.66 93.67 52.01 90.11 52.36 90.35 52.7 90.59 53.05 93.19 53.4 90.35 53.75 91.77 54.1 92.01 54.45 89.88 54.8 92.25 55.15 87.74 55.5 88.69 55.85 87.03 56.2 91.06 56.55 96.75 56.89 95.8 57.24 96.75 57.59 98.65 57.94 100.3 58.29 100.07 58.64 99.36 58.99 97.93 59.34 97.46 59.69 95.8 60.04 93.67 60.39 96.28 60.73 98.65 61.08 103.62 61.43 102.67 61.78 102.2 62.13 103.39 62.48 104.1 62.83 103.39 63.18 105.04 63.53 108.13 63.88 109.78 64.23 111.68 64.58 109.07 64.92 108.36 65.27 106.94 65.62 104.57 65.97 105.28 66.32 107.89 66.67 102.2 67.02 101.96 67.37 101.02 67.72 99.83 68.07 101.96 68.42 102.2 68.77 100.07 69.11 103.39 69.46 101.02 69.81 105.04 70.16 104.81 70.51 106.47 70.86 106.47 71.21 108.6 71.56 108.6 71.91 110.26 72.26 110.5 72.61 111.68 72.95 109.78 73.3 111.92 73.65 107.89 74 105.99 74.35 104.33 74.7 101.49 75.05 101.73 75.4 99.12 75.75 97.22 76.1 99.36 76.45 101.25 76.8 105.76 77.14 109.07 77.49 110.97 77.84 111.21 78.19 109.55 78.54 112.39 78.89 109.07 79.24 112.39 79.59 111.21 79.94 110.02 80.29 108.84 80.64 107.18 80.98 104.33 81.33 103.86 81.68 107.18 82.03 104.81 82.38 101.25 82.73 100.78 83.08 101.25 83.43 96.51 83.78 95.8 84.13 96.99 84.48 100.54 84.83 101.49 85.17 101.49 85.52 101.02 85.87 102.91 86.22 99.83 86.57 94.38 86.92 94.14 87.27 97.7 87.62 99.83 87.97 97.93 88.32 96.04 88.67 96.75 89.02 93.43 89.36 90.82 89.71 88.45 90.06 83.24 90.41 84.9 90.76 81.82 91.11 78.26 91.46 76.84 91.81 72.34 92.16 68.07 92.51 64.75 92.86 68.31 93.2 69.49 93.55 72.34 93.9 70.44 94.25 70.68 94.6 71.63 94.95 71.15 95.3 73.05 95.65 78.5 96 74.71 96.35 73.05 96.7 76.13 97.05 77.55 97.39 72.81 97.74 69.02 98.09 73.52 98.44 75.18 98.79 76.84 99.14 78.03 99.49 80.16 99.84 82.05 100.19 85.37 100.54 89.16 100.89 87.98 101.23 91.3 101.58 96.75 101.93 100.3 102.28 97.93 102.63 97.7 102.98 103.62 103.33 106.47 103.68 109.07 104.03 109.78 104.38 111.21 104.73 110.73 105.08 107.89 105.42 107.18 105.77 106.23 106.12 105.52 106.47 102.44 106.82 101.73 107.17 105.28 107.52 103.39 107.87 103.86 108.22 106.47 108.57 108.6 108.92 110.02 109.26 111.21 109.61 112.15 109.96 112.63 110.31 110.02 110.66 110.02 111.01 110.26 111.36 110.26 111.71 113.58 112.06 117.61 112.41 118.32 112.76 116.18 113.11 116.89 113.45 116.89 113.8 114.05 114.15 115 114.5 117.84 114.85 116.89 115.2 116.66 115.55 117.61 115.9 119.26 116.25 115.71 116.6 115.24 116.95 111.21 117.3 110.26 117.64 111.68 117.99 112.87 118.34 113.81 118.69 112.63 119.04 115.95 119.39 115.47 119.74 116.89 120.09 115.95 120.44 117.13 120.79 117.61 121.14 118.55 121.48 120.69 121.83 117.13 122.18 117.37 122.53 116.18 122.88 114.29 123.23 114.52 123.58 118.08 123.93 117.61 124.28 117.37 124.63 118.08 124.98 119.74 125.33 119.03 125.67 119.98 126.02 119.03 126.37 118.79 126.72 119.74 127.07 118.08 127.42 118.32 127.77 116.66 128.12 116.89 128.47 115.95 128.82 113.58 129.17 112.15 129.51 110.5 129.86 112.87 130.21 111.21 130.56 108.36 130.91 108.36 131.26 104.81 131.61 105.99 131.96 104.33 132.31 104.57 132.66 104.33 133.01 107.18 133.36 106.47 133.7 104.81 134.05 104.1 134.4 107.18 134.75 110.97 135.1 110.26 135.45 105.28 135.8 109.07 136.15 107.41 136.5 110.26 136.85 112.63 137.2 111.44 137.55 113.81 137.89 114.76 138.24 115.95 138.59 117.37 138.94 117.37 139.29 117.13 139.64 114.76 139.99 115 140.34 113.58 140.69 109.31 141.04 107.41 141.39 108.13 141.73 109.07 142.08 105.28 142.43 105.76 142.78 103.62 143.13 106.47 143.48 107.89 143.83 106.7 144.18 102.91 144.53 104.1 144.88 108.84 145.23 106.7 145.58 106.23 145.92 105.99 146.27 107.65 146.62 108.13 146.97 107.89 147.32 105.76 147.67 105.99 148.02 109.07 148.37 110.26 148.72 112.87 149.07 114.29 149.42 112.15 149.76 114.76 150.11 112.87 150.46 112.63 150.81 111.92 151.16 112.15 151.51 113.1 151.86 112.87 152.21 117.13 152.56 114.29 152.91 114.29 153.26 112.15 153.61 111.68 153.95 115 154.3 113.58 154.65 116.89 155 116.89 155.35 120.21 155.7 121.87 156.05 121.4 156.4 123.06 156.75 121.16 157.1 123.53 157.45 120.92 157.79 120.69 158.14 119.03 158.49 118.32 158.84 116.18 159.19 117.13 159.54 115.24 159.89 115 160.24 117.13 160.59 116.66 160.94 117.61 161.29 117.13 161.64 117.61 161.98 116.89 162.33 114.76 162.68 116.18 163.03 113.81 163.38 115 163.73 115.95 164.08 113.1 164.43 115.47 164.78 115.71 165.13 118.08 165.48 118.55 165.83 120.45 166.17 118.55 166.52 120.92 166.87 120.92 167.22 120.21 167.57 121.16 167.92 120.45 168.27 119.5 168.62 115.95 168.97 118.08 169.32 118.08 169.67 119.5 170.01 118.32 170.36 115.24 170.71 115.47 171.06 115.95 171.41 114.76 171.76 116.18 172.11 116.89 172.46 115.95 172.81 116.89 173.16 118.79 173.51 115.71 173.86 116.18 174.2 118.32 174.55 117.61 174.9 118.55 175.25 116.18 175.6 117.13 175.95 114.29 176.3 111.92 176.65 111.44 177 114.29 177.35 112.87 177.7 116.18 178.04 115.47 178.39 115.71 178.74 116.42 179.09 117.84 179.44 120.21 179.79 119.03 180.14 119.5 180.49 117.84 180.84 118.79 181.19 118.32 181.54 117.84 181.89 119.03 182.23 118.55 182.58 117.13 182.93 116.66 183.28 116.42 183.63 114.29 183.98 110.02 184.33 111.92 184.68 110.5 185.03 109.07 185.38 110.73 185.73 111.68 186.08 111.68 186.42 111.92 186.77 112.63 187.12 110.02 187.47 108.84 187.82 112.39 188.17 112.15 188.52 112.15 188.87 112.39 189.22 112.15 189.57 110.97 189.92 108.84 190.26 111.21 190.61 110.97 190.96 108.84 191.31 105.52 191.66 108.6 192.01 107.65 192.36 105.52 192.71 105.99 193.06 108.6 193.41 108.36 193.76 107.89 194.11 110.73 194.45 109.78 194.8 108.6 195.15 106.47 195.5 107.41 195.85 109.55 196.2 109.31"/>
      </g>
      <g stroke-width="0.3" fill="#000000" fill-opacity="0.000" class="geometry" stroke-dasharray="none" stroke="#ABDDA4" id="img-72c915b2-12">
        <path fill="none" d="M21.98,71.86 L 22.33 69.02 22.68 67.6 23.03 65.46 23.38 72.34 23.73 74.94 24.08 76.37 24.42 82.77 24.77 81.82 25.12 83.24 25.47 81.58 25.82 81.82 26.17 80.63 26.52 84.9 26.87 92.48 27.22 94.14 27.57 97.22 27.92 100.54 28.27 97.93 28.61 96.51 28.96 92.96 29.31 91.06 29.66 89.16 30.01 83.24 30.36 84.66 30.71 84.9 31.06 85.14 31.41 88.69 31.76 92.01 32.11 93.43 32.45 89.88 32.8 87.51 33.15 82.29 33.5 83.71 33.85 86.08 34.2 85.85 34.55 87.98 34.9 88.22 35.25 87.03 35.6 89.88 35.95 95.33 36.3 91.06 36.64 91.77 36.99 92.48 37.34 92.96 37.69 86.79 38.04 84.19 38.39 83 38.74 84.66 39.09 82.77 39.44 83.95 39.79 87.03 40.14 86.32 40.49 81.11 40.83 83 41.18 82.53 41.53 82.05 41.88 83.24 42.23 87.74 42.58 87.74 42.93 88.69 43.28 86.56 43.63 84.66 43.98 83 44.33 82.29 44.67 81.11 45.02 80.63 45.37 80.16 45.72 79.68 46.07 73.76 46.42 70.44 46.77 70.2 47.12 73.29 47.47 77.31 47.82 80.16 48.17 80.87 48.52 78.03 48.86 77.08 49.21 75.89 49.56 73.29 49.91 72.1 50.26 67.36 50.61 67.36 50.96 69.26 51.31 72.81 51.66 77.79 52.01 77.79 52.36 72.81 52.7 71.86 53.05 72.1 53.4 73.29 53.75 73.52 54.1 76.6 54.45 78.03 54.8 78.5 55.15 75.66 55.5 73.76 55.85 70.92 56.2 69.02 56.55 70.68 56.89 65.94 57.24 69.97 57.59 74.71 57.94 74.23 58.29 69.02 58.64 69.26 58.99 68.07 59.34 66.65 59.69 64.75 60.04 63.33 60.39 64.04 60.73 66.65 61.08 66.65 61.43 71.86 61.78 72.1 62.13 69.97 62.48 66.89 62.83 69.97 63.18 62.86 63.53 60.49 63.88 62.15 64.23 59.78 64.58 60.25 64.92 65.46 65.27 67.36 65.62 74.71 65.97 74.47 66.32 74 66.67 70.44 67.02 72.57 67.37 69.26 67.72 67.83 68.07 64.52 68.42 66.65 68.77 69.26 69.11 72.34 69.46 71.63 69.81 70.92 70.16 72.1 70.51 71.39 70.86 73.52 71.21 74.71 71.56 72.34 71.91 73.29 72.26 72.34 72.61 72.81 72.95 69.73 73.3 71.63 73.65 69.02 74 63.09 74.35 63.09 74.7 64.04 75.05 68.07 75.4 68.55 75.75 64.99 76.1 63.57 76.45 60.25 76.8 60.01 77.14 54.56 77.49 53.61 77.84 54.32 78.19 54.56 78.54 58.35 78.89 58.12 79.24 59.78 79.59 56.93 79.94 60.49 80.29 60.25 80.64 66.41 80.98 69.26 81.33 66.41 81.68 67.12 82.03 64.04 82.38 60.01 82.73 63.09 83.08 64.04 83.43 64.52 83.78 63.57 84.13 66.89 84.48 71.86 84.83 73.76 85.17 72.57 85.52 71.15 85.87 64.04 86.22 68.07 86.57 69.49 86.92 70.92 87.27 69.02 87.62 69.73 87.97 69.26 88.32 73.05 88.67 70.92 89.02 69.97 89.36 70.2 89.71 66.89 90.06 70.68 90.41 68.78 90.76 66.89 91.11 70.2 91.46 66.89 91.81 64.28 92.16 65.46 92.51 70.44 92.86 70.92 93.2 75.66 93.55 75.42 93.9 76.37 94.25 76.13 94.6 74.47 94.95 79.21 95.3 76.84 95.65 78.74 96 75.89 96.35 76.84 96.7 79.92 97.05 80.4 97.39 80.87 97.74 79.68 98.09 76.84 98.44 69.97 98.79 64.52 99.14 62.38 99.49 63.09 99.84 65.23 100.19 67.83 100.54 71.39 100.89 69.49 101.23 73.76 101.58 74.94 101.93 73.05 102.28 76.6 102.63 76.6 102.98 76.13 103.33 77.79 103.68 76.84 104.03 82.53 104.38 84.19 104.73 80.87 105.08 79.68 105.42 79.45 105.77 79.21 106.12 80.16 106.47 77.08 106.82 76.37 107.17 76.37 107.52 77.08 107.87 75.66 108.22 72.34 108.57 75.42 108.92 74 109.26 72.57 109.61 72.1 109.96 70.92 110.31 70.92 110.66 70.2 111.01 69.26 111.36 68.31 111.71 67.6 112.06 69.73 112.41 66.65 112.76 66.41 113.11 62.86 113.45 69.02 113.8 67.6 114.15 69.26 114.5 66.18 114.85 65.46 115.2 67.36 115.55 65.7 115.9 67.83 116.25 68.55 116.6 67.83 116.95 66.89 117.3 69.26 117.64 66.18 117.99 65.46 118.34 65.94 118.69 69.02 119.04 71.39 119.39 70.68 119.74 73.05 120.09 73.76 120.44 74.23 120.79 74.71 121.14 74 121.48 71.15 121.83 73.05 122.18 75.66 122.53 73.52 122.88 72.34 123.23 69.97 123.58 72.57 123.93 78.03 124.28 77.55 124.63 81.11 124.98 80.87 125.33 83.48 125.67 80.87 126.02 83.95 126.37 85.37 126.72 82.77 127.07 82.05 127.42 79.68 127.77 79.68 128.12 80.87 128.47 81.58 128.82 82.05 129.17 80.87 129.51 75.18 129.86 81.11 130.21 84.9 130.56 87.74 130.91 90.35 131.26 87.03 131.61 87.27 131.96 86.08 132.31 87.74 132.66 87.27 133.01 88.93 133.36 88.93 133.7 92.25 134.05 92.25 134.4 92.48 134.75 91.06 135.1 91.3 135.45 91.53 135.8 92.01 136.15 91.53 136.5 94.14 136.85 96.51 137.2 99.12 137.55 104.1 137.89 105.04 138.24 103.39 138.59 102.2 138.94 107.41 139.29 109.31 139.64 110.02 139.99 109.31 140.34 108.36 140.69 107.65 141.04 107.41 141.39 106.23 141.73 105.28 142.08 104.57 142.43 102.44 142.78 105.04 143.13 101.96 143.48 101.02 143.83 100.78 144.18 100.3 144.53 100.78 144.88 104.33 145.23 100.3 145.58 102.44 145.92 101.02 146.27 101.25 146.62 105.04 146.97 100.07 147.32 98.41 147.67 97.46 148.02 94.14 148.37 96.51 148.72 96.99 149.07 92.25 149.42 94.85 149.76 92.25 150.11 90.11 150.46 88.45 150.81 91.77 151.16 94.38 151.51 92.01 151.86 93.19 152.21 95.09 152.56 97.22 152.91 98.65 153.26 99.83 153.61 101.73 153.95 101.02 154.3 99.12 154.65 101.25 155 102.44 155.35 101.96 155.7 102.44 156.05 102.67 156.4 102.44 156.75 101.96 157.1 101.49 157.45 102.67 157.79 103.62 158.14 106.94 158.49 104.57 158.84 104.1 159.19 104.81 159.54 103.62 159.89 107.41 160.24 105.99 160.59 106.7 160.94 106.47 161.29 104.33 161.64 108.84 161.98 109.31 162.33 110.26 162.68 107.41 163.03 105.99 163.38 103.39 163.73 105.04 164.08 103.62 164.43 105.76 164.78 105.99 165.13 106.47 165.48 105.04 165.83 101.49 166.17 103.15 166.52 99.83 166.87 100.07 167.22 97.46 167.57 99.83 167.92 100.54 168.27 103.39 168.62 102.91 168.97 101.25 169.32 94.14 169.67 88.69 170.01 86.56 170.36 86.08 170.71 83 171.06 84.9 171.41 84.42 171.76 80.16 172.11 76.37 172.46 78.26 172.81 75.89 173.16 73.52 173.51 74.23 173.86 74.71 174.2 78.03 174.55 75.89 174.9 72.81 175.25 71.15 175.6 72.81 175.95 75.18 176.3 75.66 176.65 74.23 177 74.71 177.35 77.79 177.7 78.97 178.04 78.74 178.39 78.03 178.74 74.94 179.09 76.84 179.44 72.81 179.79 72.1 180.14 71.86 180.49 66.89 180.84 64.52 181.19 66.65 181.54 65.23 181.89 69.02 182.23 70.2 182.58 69.97 182.93 76.13 183.28 77.55 183.63 76.84 183.98 79.68 184.33 85.37 184.68 86.08 185.03 88.22 185.38 86.79 185.73 85.14 186.08 84.19 186.42 84.42 186.77 82.77 187.12 83 187.47 87.98 187.82 89.16 188.17 88.45 188.52 87.27 188.87 84.42 189.22 85.37 189.57 80.16 189.92 80.16 190.26 79.21 190.61 74.71 190.96 79.68 191.31 79.45 191.66 82.05 192.01 84.9 192.36 86.56 192.71 89.64 193.06 83.71 193.41 86.08 193.76 84.66 194.11 81.11 194.45 77.31 194.8 74.47 195.15 72.57 195.5 70.68 195.85 70.92 196.2 72.1"/>
      </g>
      <g stroke-width="0.3" fill="#000000" fill-opacity="0.000" class="geometry" stroke-dasharray="none" stroke="#E6F598" id="img-72c915b2-13">
        <path fill="none" d="M21.98,71.86 L 22.33 69.97 22.68 64.28 23.03 59.54 23.38 63.09 23.73 67.6 24.08 64.04 24.42 65.23 24.77 63.09 25.12 62.86 25.47 70.68 25.82 74.94 26.17 72.81 26.52 65.7 26.87 67.36 27.22 65.7 27.57 68.78 27.92 71.15 28.27 72.57 28.61 75.66 28.96 79.68 29.31 78.97 29.66 71.63 30.01 69.73 30.36 70.2 30.71 68.07 31.06 67.12 31.41 71.39 31.76 69.26 32.11 73.29 32.45 70.68 32.8 68.31 33.15 75.42 33.5 75.66 33.85 79.68 34.2 82.77 34.55 85.14 34.9 83.48 35.25 85.85 35.6 89.88 35.95 92.96 36.3 93.67 36.64 94.14 36.99 91.06 37.34 96.04 37.69 99.83 38.04 101.49 38.39 105.04 38.74 102.44 39.09 101.02 39.44 102.67 39.79 102.91 40.14 101.02 40.49 103.86 40.83 103.62 41.18 102.67 41.53 104.81 41.88 105.52 42.23 104.33 42.58 106.7 42.93 109.07 43.28 109.78 43.63 111.21 43.98 110.02 44.33 110.73 44.67 112.63 45.02 111.92 45.37 110.26 45.72 110.97 46.07 110.02 46.42 109.55 46.77 107.89 47.12 106.7 47.47 108.84 47.82 106.7 48.17 108.6 48.52 108.84 48.86 108.13 49.21 106.94 49.56 109.31 49.91 108.84 50.26 110.5 50.61 109.78 50.96 110.97 51.31 109.31 51.66 108.6 52.01 108.36 52.36 109.78 52.7 107.89 53.05 106.47 53.4 107.41 53.75 108.36 54.1 110.26 54.45 114.29 54.8 113.1 55.15 110.73 55.5 111.44 55.85 113.1 56.2 113.58 56.55 114.29 56.89 113.81 57.24 112.39 57.59 110.26 57.94 114.52 58.29 111.21 58.64 110.26 58.99 105.99 59.34 105.99 59.69 102.44 60.04 100.3 60.39 104.1 60.73 104.33 61.08 102.44 61.43 104.81 61.78 103.86 62.13 105.52 62.48 105.76 62.83 105.76 63.18 106.23 63.53 105.28 63.88 105.04 64.23 102.91 64.58 101.49 64.92 102.91 65.27 105.76 65.62 107.41 65.97 104.81 66.32 108.36 66.67 108.6 67.02 110.26 67.37 110.26 67.72 107.18 68.07 104.57 68.42 105.76 68.77 103.62 69.11 106.7 69.46 107.18 69.81 109.07 70.16 107.89 70.51 109.07 70.86 110.26 71.21 113.81 71.56 112.87 71.91 114.29 72.26 113.58 72.61 112.87 72.95 113.81 73.3 111.44 73.65 112.15 74 109.55 74.35 109.78 74.7 108.6 75.05 108.13 75.4 108.36 75.75 110.73 76.1 110.26 76.45 110.73 76.8 112.87 77.14 113.81 77.49 116.42 77.84 115.24 78.19 115.95 78.54 118.55 78.89 121.16 79.24 119.26 79.59 119.74 79.94 119.03 80.29 119.03 80.64 118.79 80.98 121.16 81.33 118.79 81.68 120.21 82.03 119.03 82.38 118.79 82.73 117.37 83.08 118.55 83.43 118.08 83.78 118.32 84.13 120.69 84.48 120.92 84.83 119.74 85.17 117.84 85.52 118.79 85.87 120.45 86.22 119.74 86.57 120.92 86.92 121.16 87.27 119.5 87.62 119.98 87.97 119.98 88.32 120.45 88.67 117.84 89.02 117.13 89.36 117.61 89.71 120.45 90.06 119.26 90.41 117.37 90.76 116.42 91.11 118.55 91.46 116.66 91.81 116.66 92.16 114.29 92.51 116.66 92.86 116.42 93.2 114.76 93.55 110.73 93.9 110.5 94.25 108.84 94.6 107.65 94.95 107.41 95.3 106.7 95.65 104.57 96 106.23 96.35 104.33 96.7 104.57 97.05 104.81 97.39 106.94 97.74 108.6 98.09 110.73 98.44 112.15 98.79 110.73 99.14 108.6 99.49 108.36 99.84 107.89 100.19 111.68 100.54 112.39 100.89 113.58 101.23 116.89 101.58 119.74 101.93 118.32 102.28 120.45 102.63 117.37 102.98 118.55 103.33 117.61 103.68 120.45 104.03 120.45 104.38 119.26 104.73 121.4 105.08 123.29 105.42 123.77 105.77 124.24 106.12 122.82 106.47 122.82 106.82 120.92 107.17 120.92 107.52 123.53 107.87 123.06 108.22 122.35 108.57 119.5 108.92 120.69 109.26 120.92 109.61 122.11 109.96 121.87 110.31 122.11 110.66 123.06 111.01 123.77 111.36 123.06 111.71 122.11 112.06 122.58 112.41 124.24 112.76 124 113.11 123.53 113.45 124.48 113.8 125.19 114.15 124.24 114.5 122.11 114.85 121.16 115.2 117.37 115.55 115 115.9 115 116.25 116.66 116.6 116.66 116.95 119.03 117.3 119.74 117.64 122.58 117.99 121.87 118.34 121.16 118.69 119.5 119.04 119.03 119.39 121.4 119.74 120.92 120.09 121.63 120.44 119.03 120.79 117.61 121.14 113.58 121.48 114.76 121.83 115 122.18 114.52 122.53 113.58 122.88 112.39 123.23 111.68 123.58 111.44 123.93 112.87 124.28 113.1 124.63 114.52 124.98 114.29 125.33 116.66 125.67 115.95 126.02 116.66 126.37 117.13 126.72 115.24 127.07 113.1 127.42 114.05 127.77 115.71 128.12 116.66 128.47 120.69 128.82 119.74 129.17 119.26 129.51 117.61 129.86 115.71 130.21 117.84 130.56 119.5 130.91 118.55 131.26 117.84 131.61 117.13 131.96 116.89 132.31 117.37 132.66 117.37 133.01 116.42 133.36 116.42 133.7 116.42 134.05 115.95 134.4 113.58 134.75 110.26 135.1 110.02 135.45 111.21 135.8 113.81 136.15 115.24 136.5 116.18 136.85 119.26 137.2 117.61 137.55 118.79 137.89 121.4 138.24 120.45 138.59 120.45 138.94 120.69 139.29 119.74 139.64 120.45 139.99 120.92 140.34 119.5 140.69 122.35 141.04 122.58 141.39 121.4 141.73 123.53 142.08 125.43 142.43 125.66 142.78 124.24 143.13 125.43 143.48 126.85 143.83 127.09 144.18 126.85 144.53 126.61 144.88 128.51 145.23 129.46 145.58 130.17 145.92 129.69 146.27 130.64 146.62 130.88 146.97 130.88 147.32 131.11"/>
      </g>
      <g stroke-width="0.3" fill="#000000" fill-opacity="0.000" class="geometry" stroke-dasharray="none" stroke="#FFFFBF" id="img-72c915b2-14">
        <path fill="none" d="M21.98,71.86 L 22.33 68.31 22.68 71.15 23.03 71.86 23.38 68.55 23.73 71.15 24.08 69.26 24.42 74 24.77 77.08 25.12 69.97 25.47 71.39 25.82 67.36 26.17 66.65 26.52 65.94 26.87 61.44 27.22 56.46 27.57 58.35 27.92 55.75 28.27 55.04 28.61 57.17 28.96 54.32 29.31 55.75 29.66 54.09 30.01 54.8 30.36 55.27 30.71 51.95 31.06 52.19 31.41 47.45 31.76 42 32.11 45.08 32.45 46.74 32.8 45.79 33.15 47.45 33.5 48.87 33.85 46.98 34.2 48.4 34.55 45.56 34.9 47.69 35.25 50.3 35.6 51.24 35.95 51.48 36.3 52.43 36.64 51.24 36.99 52.43 37.34 51.01 37.69 51.48 38.04 55.98 38.39 56.22 38.74 64.04 39.09 64.75 39.44 67.6 39.79 71.15 40.14 71.39 40.49 68.31 40.83 69.73 41.18 71.63 41.53 71.63 41.88 76.84 42.23 70.44 42.58 65.46 42.93 66.18 43.28 66.18 43.63 64.52 43.98 64.28 44.33 67.12 44.67 66.41 45.02 61.91 45.37 62.86 45.72 65.7 46.07 64.28 46.42 65.94 46.77 65.94 47.12 64.99 47.47 61.91 47.82 63.33 48.17 64.99 48.52 59.78 48.86 62.38 49.21 68.55 49.56 69.73 49.91 70.68 50.26 73.76 50.61 78.03 50.96 83.95 51.31 87.98 51.66 88.93 52.01 87.51 52.36 87.74 52.7 88.69 53.05 82.53 53.4 80.63 53.75 78.5 54.1 80.87 54.45 77.79 54.8 78.74 55.15 79.21 55.5 76.6 55.85 74 56.2 77.55 56.55 79.92 56.89 83.48 57.24 84.42 57.59 86.08 57.94 84.19 58.29 83.24 58.64 85.61 58.99 83.71 59.34 81.34 59.69 83.48 60.04 86.32 60.39 87.98 60.73 87.74 61.08 85.85 61.43 86.08 61.78 85.37 62.13 84.66 62.48 85.61 62.83 82.77 63.18 84.9 63.53 83.95 63.88 89.16 64.23 88.45 64.58 92.48 64.92 93.67 65.27 95.09 65.62 95.8 65.97 94.38 66.32 92.25 66.67 98.17 67.02 95.8 67.37 93.43 67.72 94.62 68.07 92.01 68.42 91.06 68.77 87.98 69.11 86.08 69.46 86.56 69.81 85.14 70.16 84.66 70.51 82.53 70.86 83.71 71.21 87.51 71.56 83.24 71.91 85.37 72.26 84.66 72.61 74.94 72.95 74.71 73.3 71.86 73.65 67.6 74 69.73 74.35 69.73 74.7 73.29 75.05 73.52 75.4 72.34 75.75 71.86 76.1 66.65 76.45 66.65 76.8 62.86 77.14 61.2 77.49 60.49 77.84 55.27 78.19 57.64 78.54 60.01 78.89 58.59 79.24 55.04 79.59 54.56 79.94 56.22 80.29 55.27 80.64 54.32 80.98 53.14 81.33 51.48 81.68 54.09 82.03 54.09 82.38 54.56 82.73 58.12 83.08 55.75 83.43 58.59 83.78 55.27 84.13 52.67 84.48 49.11 84.83 46.98 85.17 49.11 85.52 48.64 85.87 46.03 86.22 47.69 86.57 46.98 86.92 47.21 87.27 48.16 87.62 51.24 87.97 48.64 88.32 45.08 88.67 42.95 89.02 41.29 89.36 42.24 89.71 43.9 90.06 42.95 90.41 38.92 90.76 37.02 91.11 38.45 91.46 39.16 91.81 38.21 92.16 37.73 92.51 38.45 92.86 35.84 93.2 36.08 93.55 33.71 93.9 35.6 94.25 38.68 94.6 41.05 94.95 42.71 95.3 43.42 95.65 46.98 96 48.16 96.35 46.5 96.7 42 97.05 40.1 97.39 38.21 97.74 35.6 98.09 34.65 98.44 32.99 98.79 37.26 99.14 39.16 99.49 39.16 99.84 40.82 100.19 42.71 100.54 41.76 100.89 37.73 101.23 33.94 101.58 33.23 101.93 37.97 102.28 38.21 102.63 39.16 102.98 39.16 103.33 41.05 103.68 39.63 104.03 40.34 104.38 41.53 104.73 42 105.08 44.37 105.42 41.53 105.77 40.34 106.12 40.34 106.47 40.34 106.82 41.05 107.17 40.34 107.52 39.16 107.87 40.1 108.22 39.39 108.57 39.63 108.92 38.45 109.26 38.68 109.61 35.36 109.96 35.36 110.31 35.6 110.66 32.52 111.01 28.73 111.36 28.02 111.71 28.97 112.06 25.88 112.41 28.73 112.76 28.73 113.11 27.07 113.45 28.97 113.8 26.83 114.15 25.41 114.5 23.28 114.85 23.28 115.2 21.85 115.55 21.85 115.9 22.33 116.25 23.99 116.6 23.04 116.95 23.28 117.3 25.17 117.64 24.94 117.99 26.6 118.34 24.94 118.69 24.94 119.04 24.94 119.39 25.88 119.74 24.7 120.09 25.65 120.44 25.17 120.79 24.22 121.14 26.6 121.48 25.41 121.83 28.49 122.18 28.97 122.53 29.68 122.88 32.28 123.23 34.42 123.58 35.6 123.93 33.94 124.28 34.89 124.63 36.31 124.98 37.26 125.33 36.55 125.67 34.42 126.02 34.18 126.37 34.89 126.72 37.73 127.07 35.84 127.42 36.08 127.77 34.65 128.12 34.42 128.47 34.89 128.82 35.36 129.17 36.79 129.51 34.42 129.86 36.79 130.21 37.5 130.56 37.73 130.91 36.08 131.26 37.73 131.61 35.6 131.96 36.31 132.31 37.02 132.66 37.73 133.01 37.5 133.36 35.84 133.7 33.94 134.05 34.89 134.4 36.31 134.75 32.52 135.1 32.05 135.45 32.76 135.8 29.91 136.15 31.1 136.5 33.71 136.85 36.08 137.2 34.65 137.55 37.02 137.89 35.84 138.24 34.65 138.59 35.6 138.94 33.94 139.29 36.08 139.64 33.94 139.99 34.65 140.34 33.94 140.69 34.89 141.04 33.71 141.39 32.52 141.73 31.57 142.08 31.34 142.43 31.34 142.78 31.34 143.13 34.89 143.48 29.44 143.83 32.28 144.18 34.18 144.53 30.62 144.88 29.91 145.23 27.07 145.58 26.83 145.92 25.41 146.27 30.39 146.62 28.25 146.97 28.02 147.32 25.41 147.67 23.28 148.02 24.7 148.37 25.17 148.72 26.12 149.07 23.51 149.42 21.85 149.76 24.22 150.11 23.99 150.46 22.09 150.81 24.22 151.16 25.17 151.51 28.02 151.86 25.65 152.21 24.22 152.56 22.09 152.91 22.09 153.26 21.62 153.61 22.8 153.95 23.51 154.3 24.7 154.65 24.22 155 25.17 155.35 27.07 155.7 25.41 156.05 29.68 156.4 29.91 156.75 28.97 157.1 27.78 157.45 27.54 157.79 31.1 158.14 31.57 158.49 28.49 158.84 27.07 159.19 26.6 159.54 23.51 159.89 25.41 160.24 24.22 160.59 23.28 160.94 22.57 161.29 23.99 161.64 23.51 161.98 23.99 162.33 23.04 162.68 20.91 163.03 20.43 163.38 20.67 163.73 20.67 164.08 21.85 164.43 24.46 164.78 25.41 165.13 27.54 165.48 28.73 165.83 28.73 166.17 29.68 166.52 30.86 166.87 32.99 167.22 32.52 167.57 30.15 167.92 30.39 168.27 30.39 168.62 31.57 168.97 32.05 169.32 30.15 169.67 30.15 170.01 31.1 170.36 32.28 170.71 30.86 171.06 34.42 171.41 34.65 171.76 34.89 172.11 34.89 172.46 38.92 172.81 38.92 173.16 36.55 173.51 39.16 173.86 39.63 174.2 39.39 174.55 39.63 174.9 36.31 175.25 33.47 175.6 31.81 175.95 32.52 176.3 34.42 176.65 35.6 177 37.5 177.35 36.79 177.7 35.6 178.04 37.73 178.39 35.36 178.74 35.36 179.09 35.84 179.44 38.21 179.79 38.21 180.14 36.08 180.49 37.02 180.84 38.21 181.19 38.21 181.54 35.84 181.89 40.58 182.23 37.97 182.58 41.05 182.93 43.66 183.28 42.47 183.63 44.13 183.98 44.37 184.33 47.45 184.68 47.93 185.03 40.1 185.38 44.61 185.73 42.24 186.08 44.61 186.42 45.08 186.77 41.29 187.12 41.76 187.47 44.84 187.82 44.13 188.17 42.95 188.52 42.24 188.87 38.45 189.22 38.21 189.57 39.16 189.92 35.84 190.26 35.36 190.61 35.84 190.96 35.36 191.31 37.26 191.66 40.1 192.01 37.97 192.36 39.63 192.71 42.71 193.06 42.24 193.41 39.63 193.76 39.87 194.11 38.68 194.45 39.39 194.8 38.92 195.15 42.24 195.5 41.76 195.85 42.47 196.2 42.47"/>
      </g>
      <g stroke-width="0.3" fill="#000000" fill-opacity="0.000" class="geometry" stroke-dasharray="none" stroke="#FEE08B" id="img-72c915b2-15">
        <path fill="none" d="M21.98,71.86 L 22.33 64.52 22.68 62.62 23.03 58.83 23.38 58.12 23.73 58.59 24.08 55.98 24.42 58.35 24.77 56.46 25.12 55.04 25.47 53.14 25.82 54.09 26.17 51.95 26.52 49.11 26.87 45.79 27.22 45.79 27.57 44.61 27.92 41.53 28.27 42 28.61 42.47 28.96 42 29.31 42.95 29.66 44.13 30.01 44.84 30.36 43.19 30.71 45.32 31.06 44.84 31.41 44.61 31.76 46.03 32.11 42.95 32.45 43.9 32.8 41.76 33.15 44.37 33.5 42.24 33.85 44.13 34.2 50.77 34.55 45.32 34.9 47.69 35.25 48.16 35.6 49.35 35.95 50.3 36.3 53.38 36.64 51.01 36.99 51.95 37.34 47.21 37.69 50.77 38.04 53.85 38.39 52.9 38.74 48.4 39.09 50.3 39.44 53.14 39.79 48.64 40.14 48.64 40.49 45.32 40.83 49.35 41.18 49.82 41.53 53.38 41.88 52.9 42.23 51.72 42.58 53.61 42.93 56.22 43.28 56.46 43.63 59.54 43.98 59.78 44.33 58.83 44.67 61.44 45.02 64.28 45.37 67.12 45.72 68.31 46.07 66.89 46.42 65.23 46.77 62.38 47.12 62.62 47.47 64.04 47.82 68.07 48.17 70.44 48.52 65.46 48.86 65.7 49.21 60.01 49.56 60.72 49.91 63.09 50.26 62.62 50.61 58.83 50.96 57.41 51.31 58.35 51.66 59.78 52.01 61.44 52.36 63.81 52.7 64.75 53.05 68.31 53.4 65.94 53.75 66.65 54.1 66.65 54.45 65.23 54.8 64.28 55.15 63.09 55.5 59.54 55.85 56.46 56.2 56.22 56.55 52.43 56.89 49.35 57.24 50.3 57.59 48.64 57.94 51.01 58.29 47.93 58.64 46.03 58.99 47.93 59.34 40.1 59.69 41.53 60.04 39.63 60.39 40.82 60.73 42 61.08 44.13 61.43 47.45 61.78 45.56 62.13 42.95 62.48 42.71 62.83 38.21 63.18 38.21 63.53 40.34 63.88 38.45 64.23 35.6 64.58 38.21 64.92 39.63 65.27 42.24 65.62 46.03 65.97 47.21 66.32 52.43 66.67 49.82 67.02 46.5 67.37 42.71 67.72 42 68.07 39.63 68.42 38.68 68.77 36.31 69.11 36.08 69.46 35.84 69.81 35.36 70.16 33.47 70.51 35.13 70.86 33.47 71.21 33.71 71.56 32.99 71.91 31.1 72.26 29.91 72.61 28.02 72.95 29.91 73.3 33.47 73.65 34.65 74 35.6 74.35 35.36 74.7 32.28 75.05 34.42 75.4 31.1 75.75 28.49 76.1 25.17 76.45 26.12 76.8 27.78 77.14 28.49 77.49 28.02 77.84 26.6 78.19 26.6 78.54 28.25 78.89 29.2 79.24 27.78 79.59 24.22 79.94 27.31 80.29 29.91 80.64 30.86 80.98 32.52 81.33 28.73 81.68 31.81 82.03 32.76 82.38 29.44 82.73 30.15 83.08 29.44 83.43 33.71 83.78 30.39 84.13 30.86 84.48 31.57 84.83 27.78 85.17 26.36 85.52 28.02 85.87 32.05 86.22 30.86 86.57 32.76 86.92 34.42 87.27 36.31 87.62 37.97 87.97 39.39 88.32 37.73 88.67 33.47 89.02 31.57 89.36 34.18 89.71 30.86 90.06 32.28 90.41 32.28 90.76 31.34 91.11 28.02 91.46 28.73 91.81 30.86 92.16 31.81 92.51 28.25 92.86 28.02 93.2 27.78 93.55 26.6 93.9 29.68 94.25 29.68 94.6 28.97 94.95 29.91 95.3 31.81 95.65 36.31 96 37.26 96.35 37.73 96.7 37.02 97.05 34.89 97.39 35.13 97.74 33.94 98.09 32.99 98.44 32.99 98.79 33.71 99.14 33.71 99.49 33.47 99.84 35.84 100.19 32.52 100.54 35.6 100.89 35.84 101.23 38.92 101.58 37.02 101.93 37.02 102.28 35.84 102.63 38.45 102.98 37.02 103.33 37.26 103.68 38.68 104.03 36.31 104.38 32.76 104.73 33.71 105.08 35.6 105.42 34.65 105.77 36.08 106.12 35.6 106.47 36.08 106.82 34.18 107.17 31.81 107.52 31.81 107.87 32.99 108.22 32.28 108.57 34.18 108.92 34.89 109.26 34.89 109.61 41.53 109.96 42.24 110.31 45.56 110.66 41.53 111.01 42 111.36 37.97 111.71 36.08 112.06 37.5 112.41 36.55 112.76 32.76 113.11 34.89 113.45 30.15 113.8 32.52 114.15 32.76 114.5 31.81 114.85 30.39 115.2 30.86 115.55 30.62 115.9 29.91 116.25 28.02 116.6 27.31 116.95 26.36 117.3 27.78 117.64 24.22 117.99 26.6 118.34 28.02 118.69 28.02 119.04 26.83 119.39 28.97 119.74 29.44 120.09 28.73 120.44 31.1 120.79 27.78 121.14 29.44 121.48 29.91 121.83 27.54 122.18 29.2 122.53 29.2 122.88 28.49 123.23 27.54 123.58 30.62 123.93 31.81 124.28 33.94 124.63 32.28 124.98 31.57 125.33 32.28 125.67 30.86 126.02 28.97 126.37 31.81 126.72 30.86 127.07 33.47 127.42 36.08 127.77 33.47 128.12 35.13 128.47 33.94 128.82 33.94 129.17 35.36 129.51 36.08 129.86 35.6 130.21 36.31 130.56 40.34 130.91 40.34 131.26 42.95 131.61 42.47 131.96 40.82 132.31 43.19 132.66 44.13 133.01 42.47 133.36 42 133.7 41.29 134.05 41.76 134.4 40.34 134.75 40.58 135.1 41.05 135.45 40.82 135.8 42.24 136.15 44.37 136.5 45.79 136.85 49.11 137.2 47.21 137.55 44.61 137.89 44.37 138.24 47.45 138.59 45.56 138.94 43.19 139.29 42.47 139.64 47.45 139.99 45.08 140.34 43.42 140.69 43.19 141.04 40.82 141.39 39.16 141.73 39.39 142.08 37.97 142.43 38.45 142.78 38.45 143.13 35.13 143.48 34.65 143.83 35.6 144.18 38.92 144.53 40.1 144.88 43.19 145.23 43.9 145.58 46.03 145.92 42 146.27 38.45 146.62 37.73 146.97 37.97 147.32 35.13 147.67 34.18 148.02 34.18 148.37 36.31 148.72 39.16 149.07 36.55 149.42 37.5 149.76 37.5 150.11 38.68 150.46 42.95 150.81 42.24 151.16 41.29 151.51 46.27 151.86 45.08 152.21 41.76 152.56 41.76 152.91 39.39 153.26 42.47 153.61 41.53 153.95 39.87 154.3 36.08 154.65 33.47 155 34.42 155.35 37.26 155.7 37.02 156.05 37.97 156.4 35.6 156.75 33.94 157.1 33.94 157.45 31.57 157.79 30.39 158.14 30.86 158.49 30.86 158.84 30.39 159.19 31.34 159.54 33.23 159.89 34.89 160.24 36.31 160.59 33.23 160.94 35.36 161.29 37.26 161.64 34.89 161.98 36.79 162.33 39.63 162.68 38.68 163.03 39.16 163.38 38.21 163.73 38.21 164.08 38.68 164.43 38.45 164.78 37.97 165.13 36.31 165.48 36.79 165.83 35.36 166.17 40.34 166.52 37.97 166.87 34.42 167.22 34.89 167.57 41.76 167.92 43.42 168.27 45.56 168.62 48.4 168.97 47.93 169.32 46.74 169.67 42.24 170.01 44.84 170.36 48.16 170.71 45.32 171.06 49.11 171.41 47.45 171.76 45.08 172.11 42.71 172.46 43.66 172.81 39.39 173.16 37.26 173.51 39.16 173.86 37.5 174.2 38.92 174.55 39.16 174.9 37.26 175.25 37.97 175.6 36.55 175.95 33.47 176.3 31.57 176.65 34.18 177 28.97 177.35 28.73 177.7 26.83 178.04 28.73 178.39 29.2 178.74 28.73 179.09 27.07 179.44 24.46 179.79 23.28 180.14 24.94 180.49 21.38 180.84 22.8 181.19 22.33 181.54 21.62 181.89 20.2 182.23 21.14 182.58 20.91 182.93 19.25 183.28 19.25 183.63 17.35 183.98 16.17 184.33 16.88 184.68 16.88 185.03 16.4 185.38 15.93 185.73 15.22 186.08 14.74 186.42 15.46 186.77 16.17 187.12 16.17 187.47 15.46 187.82 14.74 188.17 13.8 188.52 13.56 188.87 14.03 189.22 15.46 189.57 15.22 189.92 13.8 190.26 12.85 190.61 13.09 190.96 13.09 191.31 13.32 191.66 13.09 192.01 13.09 192.36 13.09 192.71 13.56 193.06 13.56 193.41 13.8 193.76 14.27 194.11 14.03 194.45 14.74 194.8 14.51 195.15 14.51 195.5 15.46 195.85 15.22 196.2 15.93"/>
      </g>
      <g stroke-width="0.3" fill="#000000" fill-opacity="0.000" class="geometry" stroke-dasharray="none" stroke="#FDAE61" id="img-72c915b2-16">
        <path fill="none" d="M21.98,71.86 L 22.33 74.71 22.68 75.18 23.03 76.6 23.38 77.55 23.73 78.97 24.08 78.74 24.42 82.05 24.77 82.05 25.12 84.66 25.47 84.19 25.82 82.05 26.17 84.66 26.52 85.14 26.87 86.79 27.22 87.27 27.57 87.98 27.92 87.27 28.27 86.32 28.61 88.22 28.96 94.38 29.31 97.46 29.66 98.88 30.01 95.33 30.36 95.09 30.71 95.8 31.06 96.04 31.41 96.28 31.76 99.12 32.11 97.93 32.45 97.93 32.8 98.17 33.15 101.49 33.5 101.49 33.85 101.02 34.2 100.3 34.55 99.36 34.9 99.12 35.25 104.81 35.6 107.41 35.95 106.7 36.3 105.28 36.64 107.18 36.99 108.6 37.34 108.6 37.69 108.13 38.04 111.68 38.39 110.5 38.74 108.6 39.09 110.5 39.44 111.92 39.79 113.34 40.14 113.34 40.49 111.44 40.83 110.73 41.18 110.73 41.53 109.78 41.88 109.31 42.23 109.07 42.58 108.36 42.93 106.94 43.28 104.81 43.63 104.33 43.98 104.33 44.33 103.86 44.67 105.99 45.02 106.47 45.37 111.21 45.72 112.15 46.07 111.68 46.42 111.44 46.77 112.15 47.12 115 47.47 115.47 47.82 116.89 48.17 118.08 48.52 118.08 48.86 118.08 49.21 116.42 49.56 116.66 49.91 116.66 50.26 115.95 50.61 119.26 50.96 119.26 51.31 115.95 51.66 116.18 52.01 114.52 52.36 112.63 52.7 115 53.05 115.95 53.4 116.66 53.75 118.55 54.1 116.66 54.45 117.84 54.8 114.52 55.15 116.42 55.5 117.84 55.85 120.69 56.2 120.92 56.55 120.69 56.89 120.45 57.24 118.32 57.59 120.45 57.94 121.4 58.29 121.63 58.64 122.58 58.99 123.06 59.34 123.06 59.69 123.77 60.04 124.48 60.39 124.24 60.73 122.58 61.08 121.16 61.43 118.55 61.78 116.18 62.13 119.03 62.48 121.63 62.83 120.45 63.18 119.26 63.53 121.4 63.88 120.21 64.23 121.16 64.58 122.35 64.92 122.58 65.27 121.87 65.62 119.5 65.97 117.13 66.32 118.55 66.67 119.26 67.02 119.03 67.37 118.79 67.72 118.79 68.07 120.45 68.42 120.21 68.77 122.35 69.11 121.16 69.46 124 69.81 123.29 70.16 122.58 70.51 120.69 70.86 121.63 71.21 121.63 71.56 119.74 71.91 120.69 72.26 121.16 72.61 122.58 72.95 123.06 73.3 124.24 73.65 122.58 74 122.35 74.35 121.87 74.7 121.16 75.05 120.45 75.4 118.08 75.75 121.16 76.1 119.5 76.45 119.5 76.8 119.5 77.14 116.42 77.49 115.95 77.84 118.08 78.19 116.66 78.54 115 78.89 114.29 79.24 113.34 79.59 113.81 79.94 115 80.29 115.24 80.64 115.47 80.98 115 81.33 114.76 81.68 114.05 82.03 114.05 82.38 116.42 82.73 116.42 83.08 117.84 83.43 120.69 83.78 118.79 84.13 121.16 84.48 121.16 84.83 120.21 85.17 121.87 85.52 125.19 85.87 124.95 86.22 125.19 86.57 126.37 86.92 126.37 87.27 128.27 87.62 128.51 87.97 129.46 88.32 129.69 88.67 129.93 89.02 128.74 89.36 129.93 89.71 130.64 90.06 130.64 90.41 130.88 90.76 130.88 91.11 131.11"/>
      </g>
      <g stroke-width="0.3" fill="#000000" fill-opacity="0.000" class="geometry" stroke-dasharray="none" stroke="#F46D43" id="img-72c915b2-17">
        <path fill="none" d="M21.98,71.86 L 22.33 68.07 22.68 65.46 23.03 63.81 23.38 65.46 23.73 62.62 24.08 62.38 24.42 61.44 24.77 59.3 25.12 58.83 25.47 57.41 25.82 55.51 26.17 54.8 26.52 51.72 26.87 48.64 27.22 45.56 27.57 45.32 27.92 44.37 28.27 40.58 28.61 36.08 28.96 40.58 29.31 36.08 29.66 37.97 30.01 39.39 30.36 36.55 30.71 40.58 31.06 38.45 31.41 37.26 31.76 37.26 32.11 35.36 32.45 38.92 32.8 39.63 33.15 42.24 33.5 44.37 33.85 48.87 34.2 44.61 34.55 46.74 34.9 45.08 35.25 43.66 35.6 44.84 35.95 45.56 36.3 44.37 36.64 45.56 36.99 44.84 37.34 48.87 37.69 51.95 38.04 47.93 38.39 49.82 38.74 49.35 39.09 51.01 39.44 56.69 39.79 54.56 40.14 51.24 40.49 50.3 40.83 48.16 41.18 49.82 41.53 48.16 41.88 45.32 42.23 49.58 42.58 49.11 42.93 51.24 43.28 49.58 43.63 47.69 43.98 46.27 44.33 47.93 44.67 47.93 45.02 47.93 45.37 49.35 45.72 49.82 46.07 46.5 46.42 50.06 46.77 48.87 47.12 46.5 47.47 45.08 47.82 44.37 48.17 44.37 48.52 43.9 48.86 48.4 49.21 46.27 49.56 44.61 49.91 42.71 50.26 44.13 50.61 44.37 50.96 41.05 51.31 39.16 51.66 39.63 52.01 38.21 52.36 39.87 52.7 35.13 53.05 33.47 53.4 32.99 53.75 31.34 54.1 31.1 54.45 28.25 54.8 26.12 55.15 25.17 55.5 24.7 55.85 26.36 56.2 26.6 56.55 23.99 56.89 24.94 57.24 22.8 57.59 23.04 57.94 22.8 58.29 20.43 58.64 18.54 58.99 17.83 59.34 17.11 59.69 17.59 60.04 18.06 60.39 20.2 60.73 23.28 61.08 22.8 61.43 23.51 61.78 23.75 62.13 26.12 62.48 23.28 62.83 20.43 63.18 20.2 63.53 19.72 63.88 17.83 64.23 18.3 64.58 17.59 64.92 17.35 65.27 16.64 65.62 14.98 65.97 14.98 66.32 15.46 66.67 15.93 67.02 16.4 67.37 17.35 67.72 16.88 68.07 15.93 68.42 15.22 68.77 14.74 69.11 16.4 69.46 15.93 69.81 15.46 70.16 15.22 70.51 15.22 70.86 15.22 71.21 14.98 71.56 14.03 71.91 13.8 72.26 13.56 72.61 14.03 72.95 14.51 73.3 14.03 73.65 14.27 74 15.46 74.35 15.22 74.7 16.17 75.05 16.4 75.4 16.17 75.75 13.56 76.1 14.03 76.45 14.27 76.8 14.98 77.14 15.46 77.49 14.98 77.84 14.03 78.19 14.74 78.54 14.03 78.89 14.03 79.24 13.8 79.59 13.32 79.94 13.32 80.29 12.85 80.64 12.85 80.98 12.85 81.33 12.61"/>
      </g>
      <g stroke-width="0.3" fill="#000000" fill-opacity="0.000" class="geometry" stroke-dasharray="none" stroke="#D53E4F" id="img-72c915b2-18">
        <path fill="none" d="M21.98,71.86 L 22.33 74.94 22.68 72.57 23.03 71.39 23.38 72.57 23.73 72.1 24.08 72.1 24.42 75.42 24.77 78.03 25.12 73.76 25.47 78.03 25.82 77.79 26.17 81.11 26.52 83 26.87 85.37 27.22 83.24 27.57 80.87 27.92 80.63 28.27 76.13 28.61 74.23 28.96 71.15 29.31 72.81 29.66 72.57 30.01 72.34 30.36 69.73 30.71 69.97 31.06 69.97 31.41 73.76 31.76 78.26 32.11 75.66 32.45 76.6 32.8 80.16 33.15 83.48 33.5 82.53 33.85 83.95 34.2 83.24 34.55 84.19 34.9 88.93 35.25 88.93 35.6 90.82 35.95 87.74 36.3 85.37 36.64 83.48 36.99 82.77 37.34 78.5 37.69 78.5 38.04 74.47 38.39 75.18 38.74 76.6 39.09 75.66 39.44 77.08 39.79 80.63 40.14 78.5 40.49 78.03 40.83 77.55 41.18 78.74 41.53 77.55 41.88 75.18 42.23 74.94 42.58 72.57 42.93 68.55 43.28 72.57 43.63 69.26 43.98 71.39 44.33 74.23 44.67 69.26 45.02 70.2 45.37 75.42 45.72 76.37 46.07 74.71 46.42 74.71 46.77 79.21 47.12 81.11 47.47 77.31 47.82 77.79 48.17 77.08 48.52 78.03 48.86 78.5 49.21 74.71 49.56 75.18 49.91 73.05 50.26 73.76 50.61 68.31 50.96 67.6 51.31 64.75 51.66 67.12 52.01 65.7 52.36 65.94 52.7 64.99 53.05 66.18 53.4 68.78 53.75 69.49 54.1 64.99 54.45 63.81 54.8 64.04 55.15 70.68 55.5 72.81 55.85 72.81 56.2 75.18 56.55 74.47 56.89 78.03 57.24 80.16 57.59 77.79 57.94 81.34 58.29 78.5 58.64 78.03 58.99 77.55 59.34 75.89 59.69 71.39 60.04 71.39 60.39 69.49 60.73 68.55 61.08 70.68 61.43 70.92 61.78 68.78 62.13 68.31 62.48 67.6 62.83 72.81 63.18 75.89 63.53 78.03 63.88 75.89 64.23 77.31 64.58 79.45 64.92 82.77 65.27 79.45 65.62 82.05 65.97 82.05 66.32 80.63 66.67 81.82 67.02 83.71 67.37 79.45 67.72 82.53 68.07 78.97 68.42 73.52 68.77 67.6 69.11 70.92 69.46 70.68 69.81 71.15 70.16 77.79 70.51 78.26 70.86 81.82 71.21 82.53 71.56 80.87 71.91 81.82 72.26 83.95 72.61 89.88 72.95 84.9 73.3 83 73.65 85.85 74 84.9 74.35 81.58 74.7 83.95 75.05 83.95 75.4 86.08 75.75 85.14 76.1 85.85 76.45 88.45 76.8 87.74 77.14 88.69 77.49 87.03 77.84 86.08 78.19 87.51 78.54 87.51 78.89 86.79 79.24 86.32 79.59 86.79 79.94 86.56 80.29 89.88 80.64 83 80.98 79.92 81.33 80.16 81.68 81.34 82.03 82.29 82.38 81.58 82.73 82.29 83.08 86.32 83.43 88.93 83.78 83.24 84.13 85.61 84.48 84.9 84.83 85.37 85.17 78.74 85.52 78.5 85.87 76.6 86.22 78.5 86.57 78.03 86.92 81.34 87.27 80.87 87.62 83 87.97 84.66 88.32 84.42 88.67 87.03 89.02 84.66 89.36 85.14 89.71 85.37 90.06 83.48 90.41 83.95 90.76 85.61 91.11 81.58 91.46 83 91.81 79.21 92.16 79.92 92.51 78.97 92.86 78.74 93.2 81.58 93.55 80.4 93.9 84.42 94.25 87.74 94.6 90.35 94.95 92.72 95.3 95.8 95.65 92.25 96 89.88 96.35 93.19 96.7 95.09 97.05 94.14 97.39 94.62 97.74 91.53 98.09 89.88 98.44 92.25 98.79 93.9 99.14 95.8 99.49 92.72 99.84 94.62 100.19 93.19 100.54 88.93 100.89 91.06 101.23 85.14 101.58 78.74 101.93 76.84 102.28 75.66 102.63 71.15 102.98 79.68 103.33 74.23 103.68 75.66 104.03 79.92 104.38 76.6 104.73 77.08 105.08 83 105.42 81.82 105.77 87.03 106.12 85.85 106.47 87.27 106.82 84.19 107.17 88.22 107.52 87.27 107.87 85.61 108.22 90.11 108.57 88.93 108.92 90.35 109.26 94.14 109.61 93.67 109.96 93.67 110.31 92.72 110.66 90.35 111.01 86.56 111.36 84.42 111.71 86.32 112.06 85.14 112.41 83 112.76 78.97 113.11 78.5 113.45 77.08 113.8 78.26 114.15 76.84 114.5 74.47 114.85 72.34 115.2 71.15 115.55 71.15 115.9 72.34 116.25 74.94 116.6 76.84 116.95 76.37 117.3 78.26 117.64 81.58 117.99 81.11 118.34 75.42 118.69 76.84 119.04 74.47 119.39 75.89 119.74 78.5 120.09 80.4 120.44 74.23 120.79 75.89 121.14 74 121.48 71.39 121.83 72.57 122.18 73.29 122.53 74.23 122.88 74 123.23 76.13 123.58 74.94 123.93 71.63 124.28 71.63 124.63 69.73 124.98 68.55 125.33 66.18 125.67 67.36 126.02 69.73 126.37 66.89 126.72 68.07 127.07 69.26 127.42 70.44 127.77 70.2 128.12 70.92 128.47 71.63 128.82 72.57 129.17 76.6 129.51 79.92 129.86 82.05 130.21 86.08 130.56 86.08 130.91 84.9 131.26 87.98 131.61 86.32 131.96 88.22 132.31 91.77 132.66 91.06 133.01 87.74 133.36 89.64 133.7 87.03 134.05 83.24 134.4 82.29 134.75 82.29 135.1 81.11 135.45 80.63 135.8 81.34 136.15 84.42 136.5 83.24 136.85 87.27 137.2 88.45 137.55 87.03 137.89 87.74 138.24 89.4 138.59 91.3 138.94 93.9 139.29 95.33 139.64 94.14 139.99 93.9 140.34 94.38 140.69 91.77 141.04 98.17 141.39 101.49 141.73 99.59 142.08 98.88 142.43 99.36 142.78 101.02 143.13 103.15 143.48 104.33 143.83 103.15 144.18 98.88 144.53 100.07 144.88 100.07 145.23 103.39 145.58 104.81 145.92 105.28 146.27 103.86 146.62 106.23 146.97 104.1 147.32 104.33 147.67 100.78 148.02 101.96 148.37 105.52 148.72 109.78 149.07 113.34 149.42 113.34 149.76 112.15 150.11 106.47 150.46 104.33 150.81 105.28 151.16 103.15 151.51 104.33 151.86 105.04 152.21 111.44 152.56 110.73 152.91 112.39 153.26 114.05 153.61 111.44 153.95 111.44 154.3 109.55 154.65 111.92 155 112.87 155.35 112.39 155.7 112.87 156.05 113.1 156.4 113.34 156.75 113.58 157.1 114.29 157.45 112.87 157.79 113.81 158.14 113.81 158.49 117.61 158.84 118.32 159.19 118.32 159.54 116.66 159.89 113.58 160.24 111.68 160.59 107.65 160.94 105.76 161.29 106.94 161.64 106.94 161.98 104.1 162.33 107.65 162.68 108.36 163.03 108.6 163.38 105.52 163.73 103.62 164.08 105.76 164.43 107.41 164.78 109.78 165.13 108.13 165.48 106.94 165.83 106.23 166.17 107.41 166.52 106.7 166.87 105.28 167.22 103.15 167.57 104.33 167.92 104.57 168.27 103.62 168.62 100.78 168.97 98.65 169.32 96.51 169.67 99.36 170.01 99.59 170.36 101.25 170.71 100.54 171.06 101.25 171.41 102.91 171.76 103.15 172.11 102.44 172.46 101.49 172.81 105.52 173.16 104.33 173.51 105.76 173.86 104.57 174.2 106.94 174.55 107.41 174.9 110.02 175.25 109.55 175.6 109.55 175.95 110.73 176.3 107.18 176.65 107.65 177 108.13 177.35 114.52 177.7 114.76 178.04 112.87 178.39 112.87 178.74 108.84 179.09 108.84 179.44 107.89 179.79 105.76 180.14 108.6 180.49 112.39 180.84 109.55 181.19 112.15 181.54 110.97 181.89 114.05 182.23 113.1 182.58 109.31 182.93 109.78 183.28 110.97 183.63 109.55 183.98 108.84 184.33 103.62 184.68 105.28 185.03 106.94 185.38 107.18 185.73 108.36 186.08 106.94 186.42 103.86 186.77 103.39 187.12 101.02 187.47 104.81 187.82 102.2 188.17 102.91 188.52 99.12 188.87 103.15 189.22 102.91 189.57 98.65 189.92 102.44 190.26 101.49 190.61 102.2 190.96 105.52 191.31 108.6 191.66 109.07 192.01 109.78 192.36 107.89 192.71 109.07 193.06 111.21 193.41 108.13 193.76 109.55 194.11 109.31 194.45 107.18 194.8 104.33 195.15 102.91 195.5 101.73 195.85 105.04 196.2 107.18"/>
      </g>
      <g stroke-width="0.3" fill="#000000" fill-opacity="0.000" class="geometry" stroke-dasharray="none" stroke="#9E0142" id="img-72c915b2-19">
        <path fill="none" d="M21.98,71.86 L 22.33 72.1 22.68 69.49 23.03 66.18 23.38 64.99 23.73 60.49 24.08 58.83 24.42 55.27 24.77 52.9 25.12 53.61 25.47 59.06 25.82 60.25 26.17 65.94 26.52 66.65 26.87 68.55 27.22 63.57 27.57 63.33 27.92 62.38 28.27 61.91 28.61 56.46 28.96 56.69 29.31 58.59 29.66 56.69 30.01 52.9 30.36 50.06 30.71 49.58 31.06 52.19 31.41 50.06 31.76 46.5 32.11 46.03 32.45 47.45 32.8 44.61 33.15 44.61 33.5 46.03 33.85 42.71 34.2 43.9 34.55 44.84 34.9 44.84 35.25 45.32 35.6 44.37 35.95 49.35 36.3 51.01 36.64 47.93 36.99 46.5 37.34 47.21 37.69 51.72 38.04 55.04 38.39 58.12 38.74 55.98 39.09 56.46 39.44 57.88 39.79 48.87 40.14 48.4 40.49 48.87 40.83 50.06 41.18 50.06 41.53 51.95 41.88 55.51 42.23 52.43 42.58 49.35 42.93 53.85 43.28 55.27 43.63 56.46 43.98 60.72 44.33 62.86 44.67 54.32 45.02 55.98 45.37 56.46 45.72 58.35 46.07 60.01 46.42 60.49 46.77 57.41 47.12 54.09 47.47 53.14 47.82 49.82 48.17 44.37 48.52 47.69 48.86 44.37 49.21 46.27 49.56 46.5 49.91 46.74 50.26 48.87 50.61 49.11 50.96 45.79 51.31 47.69 51.66 45.08 52.01 46.74 52.36 52.9 52.7 51.48 53.05 54.09 53.4 56.93 53.75 59.06 54.1 60.01 54.45 62.38 54.8 60.72 55.15 62.62 55.5 61.2 55.85 61.67 56.2 58.83 56.55 63.09 56.89 65.7 57.24 70.2 57.59 68.07 57.94 66.41 58.29 69.02 58.64 70.92 58.99 69.02 59.34 63.81 59.69 63.57 60.04 61.2 60.39 58.59 60.73 55.27 61.08 58.12 61.43 54.56 61.78 56.46 62.13 55.98 62.48 55.75 62.83 52.9 63.18 56.22 63.53 55.75 63.88 54.56 64.23 54.09 64.58 57.41 64.92 56.22 65.27 52.67 65.62 51.48 65.97 53.61 66.32 53.61 66.67 56.93 67.02 56.22 67.37 61.91 67.72 64.75 68.07 63.81 68.42 65.46 68.77 68.55 69.11 69.02 69.46 66.18 69.81 70.68 70.16 69.26 70.51 69.02 70.86 74.94 71.21 75.89 71.56 78.5 71.91 76.6 72.26 74.23 72.61 76.13 72.95 74.71 73.3 76.6 73.65 81.34 74 84.42 74.35 82.53 74.7 82.05 75.05 84.19 75.4 89.16 75.75 87.27 76.1 84.66 76.45 82.05 76.8 80.87 77.14 82.77 77.49 81.34 77.84 79.92 78.19 75.66 78.54 80.4 78.89 83 79.24 83.48 79.59 86.79 79.94 85.37 80.29 80.63 80.64 74.94 80.98 72.57 81.33 78.03 81.68 82.29 82.03 82.53 82.38 83 82.73 79.45 83.08 82.77 83.43 85.61 83.78 83 84.13 85.37 84.48 83.24 84.83 83.95 85.17 87.03 85.52 88.45 85.87 89.16 86.22 88.93 86.57 87.03 86.92 86.79 87.27 89.4 87.62 88.45 87.97 92.48 88.32 89.16 88.67 90.59 89.02 91.53 89.36 90.82 89.71 89.16 90.06 89.88 90.41 88.69 90.76 88.93 91.11 81.58 91.46 82.53 91.81 83.95 92.16 88.69 92.51 87.74 92.86 84.42 93.2 84.9 93.55 82.29 93.9 81.34 94.25 80.63 94.6 80.87 94.95 81.58 95.3 85.37 95.65 85.14 96 87.03 96.35 89.16 96.7 86.32 97.05 85.37 97.39 80.4 97.74 79.45 98.09 83 98.44 83.71 98.79 83.95 99.14 84.42 99.49 82.29 99.84 87.51 100.19 82.29 100.54 81.82 100.89 76.84 101.23 78.26 101.58 80.4 101.93 78.03 102.28 75.66 102.63 74.47 102.98 70.44 103.33 63.09 103.68 65.94 104.03 64.28 104.38 66.18 104.73 70.68 105.08 69.49 105.42 73.76 105.77 71.15 106.12 71.15 106.47 70.2 106.82 66.41 107.17 67.83 107.52 67.12 107.87 64.04 108.22 67.83 108.57 69.26 108.92 73.29 109.26 72.81 109.61 74 109.96 77.08 110.31 78.03 110.66 74 111.01 72.34 111.36 74.47 111.71 79.45 112.06 77.55 112.41 79.68 112.76 73.76 113.11 74.71 113.45 77.08 113.8 78.03 114.15 74.71 114.5 77.08 114.85 74.71 115.2 78.26 115.55 78.5 115.9 77.08 116.25 77.79 116.6 76.84 116.95 75.42 117.3 80.16 117.64 83.24 117.99 84.19 118.34 85.61 118.69 87.27 119.04 86.56 119.39 85.14 119.74 82.77 120.09 78.03 120.44 77.08 120.79 82.05 121.14 79.68 121.48 80.87 121.83 81.82 122.18 80.87 122.53 82.53 122.88 84.19 123.23 87.98 123.58 86.32 123.93 87.98 124.28 87.03 124.63 84.66 124.98 89.4 125.33 87.27 125.67 88.93 126.02 87.74 126.37 87.03 126.72 86.56 127.07 84.9 127.42 87.98 127.77 92.01 128.12 97.22 128.47 100.54 128.82 99.36 129.17 98.41 129.51 97.46 129.86 92.96 130.21 88.22 130.56 90.35 130.91 91.3 131.26 92.01 131.61 91.3 131.96 90.82 132.31 87.27 132.66 85.85 133.01 89.88 133.36 93.9 133.7 97.22 134.05 96.04 134.4 94.62 134.75 93.9 135.1 92.72 135.45 93.43 135.8 96.04 136.15 95.09 136.5 95.56 136.85 98.17 137.2 96.99 137.55 96.51 137.89 95.33 138.24 98.65 138.59 99.59 138.94 98.88 139.29 97.22 139.64 93.9 139.99 94.38 140.34 98.65 140.69 94.14 141.04 96.75 141.39 99.83 141.73 104.33 142.08 101.96 142.43 103.39 142.78 99.36 143.13 100.07 143.48 99.36 143.83 101.96 144.18 104.57 144.53 103.39 144.88 101.73 145.23 103.15 145.58 102.91 145.92 104.1 146.27 104.1 146.62 105.52 146.97 100.07 147.32 96.28 147.67 95.56 148.02 94.14 148.37 96.99 148.72 95.56 149.07 95.8 149.42 93.9 149.76 98.41 150.11 97.7 150.46 96.28 150.81 95.56 151.16 96.04 151.51 96.51 151.86 91.53 152.21 92.48 152.56 95.56 152.91 92.25 153.26 91.53 153.61 89.16 153.95 90.35 154.3 90.82 154.65 92.96 155 93.19 155.35 90.59 155.7 93.67 156.05 95.33 156.4 92.01 156.75 90.82 157.1 92.48 157.45 93.19 157.79 92.48 158.14 93.43 158.49 90.59 158.84 90.11 159.19 88.93 159.54 91.53 159.89 90.11 160.24 88.93 160.59 90.11 160.94 90.59 161.29 91.06 161.64 92.72 161.98 93.67 162.33 94.85 162.68 93.43 163.03 92.72 163.38 94.14 163.73 97.46 164.08 96.04 164.43 99.83 164.78 100.3 165.13 100.3 165.48 97.22 165.83 99.12 166.17 97.46 166.52 100.54 166.87 97.7 167.22 99.59 167.57 101.25 167.92 97.7 168.27 98.65 168.62 96.51 168.97 95.56 169.32 95.8 169.67 100.07 170.01 98.17 170.36 96.75 170.71 100.3 171.06 103.62 171.41 103.86 171.76 101.96 172.11 104.1 172.46 104.1 172.81 103.62 173.16 103.15 173.51 101.49 173.86 97.93 174.2 100.78 174.55 101.25 174.9 102.44 175.25 104.33 175.6 106.23 175.95 104.57 176.3 106.7 176.65 106.23 177 104.1 177.35 107.41 177.7 105.52 178.04 106.23 178.39 105.28 178.74 101.49 179.09 102.44 179.44 103.86 179.79 102.44 180.14 105.04 180.49 103.86 180.84 102.91 181.19 104.33 181.54 104.81 181.89 105.28 182.23 105.04 182.58 103.86 182.93 102.67 183.28 102.91 183.63 101.49 183.98 97.93 184.33 95.56 184.68 93.9 185.03 95.33 185.38 91.77 185.73 92.25 186.08 90.59 186.42 92.96 186.77 92.25 187.12 92.48 187.47 95.09 187.82 93.43 188.17 90.82 188.52 90.59 188.87 89.4 189.22 90.35 189.57 89.64 189.92 90.59 190.26 91.77 190.61 91.3 190.96 88.69 191.31 88.69 191.66 91.3 192.01 87.03 192.36 88.22 192.71 92.72 193.06 92.72 193.41 95.8 193.76 96.99 194.11 93.67 194.45 89.16 194.8 85.14 195.15 83.24 195.5 87.03 195.85 87.98 196.2 89.4"/>
      </g>
    </g>
  </g>
</g>
  <g class="guide ylabels" font-size="2.82" font-family="'PT Sans Caption','Helvetica Neue','Helvetica',sans-serif" fill="#000000" id="img-72c915b2-20">
    <text x="18.63" y="131.11" text-anchor="end" dy="0.35em">0</text>
    <text x="18.63" y="107.41" text-anchor="end" dy="0.35em">100</text>
    <text x="18.63" y="83.71" text-anchor="end" dy="0.35em">200</text>
    <text x="18.63" y="60.01" text-anchor="end" dy="0.35em">300</text>
    <text x="18.63" y="36.31" text-anchor="end" dy="0.35em">400</text>
    <text x="18.63" y="12.61" text-anchor="end" dy="0.35em">500</text>
  </g>
  <g font-size="3.88" font-family="'PT Sans','Helvetica Neue','Helvetica',sans-serif" fill="#000000" stroke="#000000" stroke-opacity="0.000" id="img-72c915b2-21">
    <text x="8.81" y="69.86" text-anchor="middle" dy="0.35em" transform="rotate(-90, 8.81, 71.86)">population number</text>
  </g>
  <g font-size="3.88" font-family="'PT Sans','Helvetica Neue','Helvetica',sans-serif" fill="#000000" stroke="#000000" stroke-opacity="0.000" id="img-72c915b2-22">
    <text x="108.92" y="5" text-anchor="middle" dy="0.6em">genetic drift</text>
  </g>
</g>
<defs>
  <clipPath id="img-72c915b2-4">
  <path d="M19.63,10.61 L 198.2 10.61 198.2 133.11 19.63 133.11" />
</clipPath>
</defs>
</svg>
