<?xml version="1.0" encoding="UTF-8"?>
<svg xmlns="http://www.w3.org/2000/svg"
     xmlns:xlink="http://www.w3.org/1999/xlink"
     xmlns:gadfly="http://www.gadflyjl.org/ns"
     version="1.2"
     width="203.2mm" height="152.4mm" viewBox="0 0 203.2 152.4"
     stroke="none"
     fill="#000000"
     stroke-width="0.3"
     font-size="3.88"
>
<g class="plotroot xscalable yscalable" id="img-6c8321df-1">
  <g font-size="3.88" font-family="'PT Sans','Helvetica Neue','Helvetica',sans-serif" fill="#000000" stroke="#000000" stroke-opacity="0.000" id="img-6c8321df-2">
    <text x="109.75" y="140.79" text-anchor="middle" dy="0.6em">generation number</text>
  </g>
  <g class="guide xlabels" font-size="2.82" font-family="'PT Sans Caption','Helvetica Neue','Helvetica',sans-serif" fill="#000000" id="img-6c8321df-3">
    <text x="23.31" y="134.11" text-anchor="middle" dy="0.6em">0</text>
    <text x="57.88" y="134.11" text-anchor="middle" dy="0.6em">100</text>
    <text x="92.46" y="134.11" text-anchor="middle" dy="0.6em">200</text>
    <text x="127.04" y="134.11" text-anchor="middle" dy="0.6em">300</text>
    <text x="161.62" y="134.11" text-anchor="middle" dy="0.6em">400</text>
    <text x="196.2" y="134.11" text-anchor="middle" dy="0.6em">500</text>
  </g>
<g clip-path="url(#img-6c8321df-4)">
  <g id="img-6c8321df-5">
    <g pointer-events="visible" opacity="1" fill="#FFFFFF" stroke="#000000" stroke-opacity="0.000" class="guide background" id="img-6c8321df-6">
      <rect x="21.31" y="10.61" width="176.89" height="122.5"/>
    </g>
    <g class="guide ygridlines xfixed" stroke-dasharray="0.5,0.5" stroke-width="0.2" stroke="#808080" id="img-6c8321df-7">
      <path fill="none" d="M21.31,131.11 L 198.2 131.11"/>
      <path fill="none" d="M21.31,71.86 L 198.2 71.86"/>
      <path fill="none" d="M21.31,12.61 L 198.2 12.61"/>
    </g>
    <g class="guide xgridlines yfixed" stroke-dasharray="0.5,0.5" stroke-width="0.2" stroke="#808080" id="img-6c8321df-8">
      <path fill="none" d="M23.31,10.61 L 23.31 133.11"/>
      <path fill="none" d="M57.88,10.61 L 57.88 133.11"/>
      <path fill="none" d="M92.46,10.61 L 92.46 133.11"/>
      <path fill="none" d="M127.04,10.61 L 127.04 133.11"/>
      <path fill="none" d="M161.62,10.61 L 161.62 133.11"/>
      <path fill="none" d="M196.2,10.61 L 196.2 133.11"/>
    </g>
    <g class="plotpanel" id="img-6c8321df-9">
      <g stroke-width="0.3" fill="#000000" fill-opacity="0.000" class="geometry" stroke-dasharray="none" stroke="#3288BD" id="img-6c8321df-10">
        <path fill="none" d="M23.65,71.86 L 24 67.95 24.34 63.81 24.69 63.81 25.03 64.04 25.38 62.03 25.73 58.83 26.07 62.5 26.42 64.63 26.76 67.72 27.11 64.99 27.45 62.62 27.8 61.67 28.15 62.15 28.49 62.74 28.84 60.96 29.18 63.21 29.53 66.65 29.88 68.19 30.22 69.14 30.57 69.26 30.91 68.31 31.26 67.48 31.6 68.31 31.95 69.14 32.3 68.31 32.64 65.58 32.99 70.92 33.33 70.68 33.68 73.88 34.02 72.34 34.37 74.11 34.72 74.47 35.06 74.94 35.41 72.69 35.75 71.03 36.1 69.02 36.45 72.1 36.79 68.66 37.14 71.63 37.48 71.39 37.83 71.74 38.17 72.57 38.52 70.56 38.87 73.4 39.21 76.01 39.56 77.31 39.9 78.14 40.25 77.79 40.59 77.31 40.94 77.91 41.29 81.34 41.63 77.91 41.98 77.08 42.32 77.31 42.67 77.2 43.02 81.23 43.36 81.23 43.71 83 44.05 86.32 44.4 85.97 44.74 82.88 45.09 84.07 45.44 86.79 45.78 87.98 46.13 85.61 46.47 82.65 46.82 83.83 47.16 86.91 47.51 85.25 47.86 83.83 48.2 84.78 48.55 88.34 48.89 87.39 49.24 89.28 49.59 90.11 49.93 91.18 50.28 89.28 50.62 88.81 50.97 91.42 51.31 89.99 51.66 91.53 52.01 94.97 52.35 95.45 52.7 96.99 53.04 95.8 53.39 93.55 53.73 94.26 54.08 95.92 54.43 99.71 54.77 100.19 55.12 100.66 55.46 97.1 55.81 97.7 56.16 98.76 56.5 94.26 56.85 95.56 57.19 97.82 57.54 100.3 57.88 101.84 58.23 104.33 58.58 103.39 58.92 103.03 59.27 102.91 59.61 103.03 59.96 101.25 60.3 98.65 60.65 100.54 61 97.58 61.34 94.02 61.69 92.72 62.03 93.79 62.38 92.84 62.73 91.53 63.07 90.94 63.42 89.4 63.76 89.99 64.11 91.89 64.45 90.82 64.8 92.6 65.15 91.18 65.49 86.32 65.84 88.45 66.18 88.1 66.53 87.39 66.87 85.85 67.22 86.91 67.57 85.25 67.91 81.34 68.26 79.45 68.6 74.59 68.95 74.71 69.3 75.89 69.64 75.18 69.99 78.5 70.33 81.23 70.68 83.83 71.02 85.49 71.37 84.66 71.72 81.94 72.06 84.66 72.41 86.2 72.75 86.79 73.1 88.69 73.44 84.42 73.79 85.85 74.14 83.71 74.48 84.54 74.83 78.14 75.17 77.91 75.52 76.25 75.87 77.2 76.21 72.93 76.56 71.74 76.9 73.88 77.25 75.77 77.59 72.81 77.94 68.43 78.29 67.36 78.63 67.24 78.98 69.97 79.32 70.2 79.67 69.97 80.01 66.29 80.36 65.58 80.71 65.82 81.05 68.19 81.4 68.66 81.74 72.57 82.09 70.8 82.44 68.43 82.78 70.56 83.13 69.14 83.47 68.31 83.82 69.14 84.16 67.24 84.51 67.12 84.86 62.74 85.2 60.84 85.55 62.03 85.89 60.96 86.24 61.67 86.58 62.03 86.93 60.13 87.28 57.76 87.62 56.69 87.97 56.34 88.31 53.97 88.66 53.14 89.01 53.26 89.35 55.15 89.7 55.87 90.04 56.81 90.39 54.8 90.73 54.32 91.08 51.72 91.43 51.48 91.77 52.31 92.12 53.85 92.46 54.56 92.81 53.73 93.15 50.65 93.5 51.13 93.85 49.47 94.19 48.04 94.54 50.3 94.88 50.3 95.23 52.19 95.58 52.19 95.92 49.11 96.27 53.14 96.61 53.14 96.96 50.89 97.3 51.84 97.65 53.5 98 52.9 98.34 50.89 98.69 51.13 99.03 52.19 99.38 50.77 99.72 53.02 100.07 50.65 100.42 48.28 100.76 48.64 101.11 49.7 101.45 49.94 101.8 48.4 102.15 48.28 102.49 51.95 102.84 51.48 103.18 51.72 103.53 53.14 103.87 54.68 104.22 54.44 104.57 57.52 104.91 58.24 105.26 58.12 105.6 56.58 105.95 57.52 106.29 58.95 106.64 56.46 106.99 57.05 107.33 59.06 107.68 57.88 108.02 63.57 108.37 62.03 108.72 62.5 109.06 64.16 109.41 64.16 109.75 64.4 110.1 68.07 110.44 66.29 110.79 67 111.14 69.97 111.48 67.24 111.83 67.72 112.17 67.36 112.52 68.43 112.86 65.58 113.21 63.92 113.56 64.87 113.9 67.36 114.25 69.02 114.59 71.86 114.94 72.57 115.29 75.06 115.63 75.54 115.98 74.11 116.32 73.64 116.67 75.18 117.01 73.17 117.36 72.46 117.71 74.35 118.05 74.83 118.4 72.81 118.74 71.51 119.09 71.63 119.43 70.2 119.78 67.6 120.13 69.37 120.47 71.27 120.82 73.88 121.16 72.69 121.51 73.4 121.86 71.98 122.2 71.86 122.55 70.92 122.89 68.07 123.24 69.02 123.58 66.65 123.93 66.53 124.28 65.11 124.62 63.81 124.97 62.86 125.31 64.04 125.66 66.06 126 65.94 126.35 67.12 126.7 67.24 127.04 65.35 127.39 63.81 127.73 64.99 128.08 65.94 128.43 65.23 128.77 64.04 129.12 62.5 129.46 66.18 129.81 65.11 130.15 64.63 130.5 63.33 130.85 60.25 131.19 59.18 131.54 59.42 131.88 61.32 132.23 60.72 132.57 62.38 132.92 62.15 133.27 57.64 133.61 55.51 133.96 56.1 134.3 55.51 134.65 52.9 135 52.67 135.34 51.95 135.69 54.68 136.03 55.51 136.38 57.29 136.72 57.52 137.07 58.71 137.42 57.41 137.76 60.37 138.11 60.25 138.45 59.18 138.8 62.86 139.14 61.55 139.49 62.98 139.84 66.29 140.18 65.23 140.53 63.92 140.87 62.98 141.22 61.91 141.57 63.81 141.91 66.29 142.26 64.99 142.6 64.52 142.95 64.4 143.29 62.62 143.64 64.52 143.99 65.7 144.33 63.45 144.68 59.3 145.02 60.25 145.37 58.47 145.71 60.61 146.06 62.26 146.41 61.55 146.75 62.62 147.1 60.37 147.44 59.89 147.79 58.59 148.14 61.79 148.48 59.54 148.83 59.06 149.17 58 149.52 59.3 149.86 58.35 150.21 56.34 150.56 55.04 150.9 55.98 151.25 58.71 151.59 62.03 151.94 62.26 152.28 65.82 152.63 66.65 152.98 68.19 153.32 66.18 153.67 63.57 154.01 63.33 154.36 64.75 154.71 64.16 155.05 63.69 155.4 66.18 155.74 63.45 156.09 64.28 156.43 64.16 156.78 67.12 157.13 69.14 157.47 67.6 157.82 64.4 158.16 64.87 158.51 67.83 158.85 68.9 159.2 67.95 159.55 65.58 159.89 65.23 160.24 66.41 160.58 66.53 160.93 67.95 161.28 67.36 161.62 67.48 161.97 67.24 162.31 69.14 162.66 67.95 163 65.7 163.35 67.48 163.7 69.97 164.04 72.46 164.39 73.29 164.73 72.57 165.08 69.73 165.42 69.97 165.77 66.77 166.12 65.23 166.46 63.57 166.81 64.28 167.15 62.74 167.5 60.61 167.85 64.4 168.19 64.99 168.54 67.72 168.88 68.43 169.23 64.87 169.57 67 169.92 65.58 170.27 68.31 170.61 69.37 170.96 66.29 171.3 67.6 171.65 68.66 171.99 67 172.34 69.02 172.69 71.03 173.03 68.9 173.38 70.09 173.72 68.78 174.07 67.95 174.42 68.78 174.76 72.34 175.11 74.59 175.45 73.52 175.8 68.55 176.14 69.85 176.49 68.43 176.84 68.43 177.18 66.53 177.53 70.32 177.87 70.2 178.22 71.51 178.56 72.46 178.91 75.77 179.26 76.6 179.6 79.92 179.95 79.92 180.29 80.4 180.64 78.62 180.99 76.96 181.33 76.13 181.68 76.48 182.02 78.03 182.37 78.38 182.71 80.04 183.06 80.63 183.41 80.99 183.75 82.17 184.1 80.4 184.44 78.86 184.79 79.21 185.13 77.31 185.48 77.91 185.83 78.38 186.17 79.57 186.52 76.6 186.86 74.83 187.21 74.11 187.56 72.69 187.9 72.46 188.25 75.06 188.59 77.2 188.94 80.63 189.28 81.11 189.63 78.86 189.98 83 190.32 82.53 190.67 82.41 191.01 84.42 191.36 84.9 191.7 85.73 192.05 87.39 192.4 87.86 192.74 89.64 193.09 89.88 193.43 88.57 193.78 85.49 194.13 85.61 194.47 85.14 194.82 83.6 195.16 80.51 195.51 76.25 195.85 76.72 196.2 78.5"/>
      </g>
      <g stroke-width="0.3" fill="#000000" fill-opacity="0.000" class="geometry" stroke-dasharray="none" stroke="#66C2A5" id="img-6c8321df-11">
        <path fill="none" d="M23.65,71.86 L 24 73.76 24.34 75.06 24.69 75.42 25.03 75.54 25.38 80.16 25.73 78.26 26.07 77.2 26.42 78.74 26.76 80.16 27.11 80.51 27.45 82.77 27.8 84.31 28.15 80.87 28.49 83.24 28.84 80.16 29.18 78.38 29.53 79.09 29.88 78.74 30.22 80.28 30.57 83.48 30.91 81.46 31.26 80.99 31.6 81.11 31.95 79.8 32.3 78.62 32.64 80.51 32.99 83 33.33 81.34 33.68 83.24 34.02 81.58 34.37 79.92 34.72 82.77 35.06 84.78 35.41 83.48 35.75 83 36.1 80.75 36.45 84.07 36.79 85.02 37.14 85.85 37.48 83.36 37.83 80.4 38.17 77.55 38.52 79.92 38.87 78.14 39.21 79.45 39.56 81.23 39.9 80.04 40.25 76.48 40.59 76.6 40.94 73.17 41.29 74.83 41.63 74.35 41.98 69.97 42.32 67.95 42.67 66.18 43.02 64.28 43.36 67.24 43.71 64.28 44.05 65.11 44.4 67.36 44.74 68.19 45.09 68.9 45.44 67.83 45.78 68.19 46.13 67.83 46.47 68.9 46.82 68.43 47.16 67.12 47.51 68.07 47.86 69.02 48.2 68.78 48.55 69.97 48.89 71.15 49.24 73.29 49.59 74.47 49.93 75.89 50.28 74.11 50.62 74.83 50.97 76.48 51.31 77.91 51.66 79.33 52.01 79.68 52.35 80.75 52.7 81.94 53.04 80.4 53.39 79.21 53.73 80.4 54.08 81.94 54.43 83.24 54.77 82.65 55.12 81.46 55.46 85.85 55.81 88.1 56.16 89.16 56.5 92.96 56.85 96.28 57.19 93.55 57.54 89.76 57.88 88.69 58.23 87.27 58.58 89.52 58.92 87.62 59.27 90.23 59.61 91.3 59.96 88.45 60.3 91.42 60.65 91.06 61 89.4 61.34 89.99 61.69 85.73 62.03 85.02 62.38 83.95 62.73 81.7 63.07 83.36 63.42 82.41 63.76 82.29 64.11 78.62 64.45 76.01 64.8 76.01 65.15 75.06 65.49 77.55 65.84 78.14 66.18 77.2 66.53 74.83 66.87 76.96 67.22 76.37 67.57 75.06 67.91 74.35 68.26 73.76 68.6 75.77 68.95 75.89 69.3 77.79 69.64 76.48 69.99 79.92 70.33 79.92 70.68 80.63 71.02 78.38 71.37 77.67 71.72 80.28 72.06 78.97 72.41 78.97 72.75 78.26 73.1 77.79 73.44 78.74 73.79 78.74 74.14 78.74 74.48 79.68 74.83 78.74 75.17 78.14 75.52 78.74 75.87 80.75 76.21 86.56 76.56 84.78 76.9 86.44 77.25 86.08 77.59 85.37 77.94 84.78 78.29 88.93 78.63 89.05 78.98 90.11 79.32 88.57 79.67 85.61 80.01 81.11 80.36 79.09 80.71 73.88 81.05 73.64 81.4 74.71 81.74 74.59 82.09 74.83 82.44 78.14 82.78 76.6 83.13 78.5 83.47 78.86 83.82 79.45 84.16 79.09 84.51 77.91 84.86 77.55 85.2 75.18 85.55 76.96 85.89 77.79 86.24 78.97 86.58 78.86 86.93 79.33 87.28 76.37 87.62 75.66 87.97 76.84 88.31 77.2 88.66 75.54 89.01 72.93 89.35 71.98 89.7 70.32 90.04 66.29 90.39 66.53 90.73 65.46 91.08 66.53 91.43 67 91.77 68.43 92.12 69.26 92.46 67.12 92.81 67.83 93.15 67 93.5 65.11 93.85 67.72 94.19 64.99 94.54 62.15 94.88 61.44 95.23 62.26 95.58 62.62 95.92 61.79 96.27 61.91 96.61 62.74 96.96 61.67 97.3 62.26 97.65 62.38 98 64.63 98.34 65.35 98.69 63.81 99.03 62.15 99.38 61.67 99.72 63.92 100.07 66.06 100.42 64.75 100.76 68.78 101.11 68.66 101.45 68.43 101.8 67.72 102.15 64.75 102.49 64.4 102.84 62.5 103.18 64.63 103.53 64.52 103.87 64.16 104.22 66.18 104.57 65.23 104.91 67.72 105.26 69.73 105.6 69.97 105.95 73.52 106.29 71.98 106.64 71.39 106.99 72.69 107.33 72.57 107.68 72.81 108.02 70.09 108.37 68.43 108.72 69.37 109.06 68.66 109.41 71.39 109.75 71.74 110.1 71.51 110.44 73.4 110.79 70.8 111.14 68.66 111.48 69.85 111.83 72.22 112.17 70.68 112.52 71.15 112.86 72.34 113.21 74.59 113.56 73.64 113.9 74.23 114.25 72.22 114.59 73.05 114.94 76.01 115.29 76.13 115.63 77.2 115.98 75.42 116.32 76.84 116.67 74.83 117.01 71.27 117.36 70.44 117.71 67.95 118.05 65.35 118.4 64.4 118.74 62.5 119.09 63.21 119.43 64.4 119.78 62.5 120.13 59.42 120.47 58.83 120.82 57.88 121.16 57.64 121.51 57.64 121.86 57.76 122.2 57.41 122.55 58.47 122.89 60.49 123.24 62.5 123.58 65.7 123.93 65.94 124.28 65.35 124.62 65.35 124.97 65.94 125.31 66.18 125.66 68.19 126 71.74 126.35 74.35 126.7 76.84 127.04 76.84 127.39 75.66 127.73 75.3 128.08 72.46 128.43 75.54 128.77 72.22 129.12 71.51 129.46 69.61 129.81 71.15 130.15 70.44 130.5 70.32 130.85 67.83 131.19 67.12 131.54 69.49 131.88 71.03 132.23 69.85 132.57 70.32 132.92 67.83 133.27 66.89 133.61 67.83 133.96 67.83 134.3 68.31 134.65 70.68 135 68.78 135.34 66.65 135.69 65.58 136.03 65.94 136.38 65.23 136.72 61.32 137.07 61.55 137.42 64.75 137.76 66.18 138.11 65.82 138.45 63.09 138.8 63.57 139.14 61.55 139.49 65.23 139.84 64.04 140.18 63.09 140.53 64.16 140.87 62.38 141.22 65.35 141.57 63.81 141.91 64.52 142.26 61.44 142.6 60.13 142.95 59.89 143.29 59.66 143.64 54.56 143.99 51.72 144.33 50.53 144.68 50.77 145.02 52.55 145.37 52.43 145.71 52.19 146.06 53.14 146.41 53.97 146.75 53.14 147.1 52.07 147.44 53.38 147.79 53.38 148.14 54.32 148.48 53.97 148.83 55.51 149.17 55.15 149.52 55.15 149.86 53.97 150.21 55.27 150.56 55.39 150.9 55.39 151.25 55.98 151.59 54.32 151.94 56.1 152.28 54.8 152.63 52.78 152.98 55.63 153.32 53.73 153.67 51.95 154.01 53.38 154.36 55.51 154.71 53.97 155.05 54.56 155.4 56.22 155.74 53.5 156.09 53.97 156.43 53.61 156.78 54.32 157.13 52.9 157.47 53.73 157.82 50.65 158.16 53.26 158.51 53.85 158.85 54.8 159.2 55.27 159.55 58.95 159.89 58 160.24 56.93 160.58 54.56 160.93 56.93 161.28 56.22 161.62 55.15 161.97 56.34 162.31 53.97 162.66 53.61 163 54.09 163.35 55.51 163.7 55.98 164.04 54.09 164.39 51.95 164.73 50.3 165.08 52.19 165.42 53.5 165.77 55.27 166.12 55.39 166.46 54.92 166.81 56.69 167.15 59.89 167.5 58 167.85 60.25 168.19 60.13 168.54 60.96 168.88 63.33 169.23 62.98 169.57 63.09 169.92 66.18 170.27 68.43 170.61 68.78 170.96 68.55 171.3 64.87 171.65 65.23 171.99 64.16 172.34 67.36 172.69 62.98 173.03 65.23 173.38 62.15 173.72 60.84 174.07 61.32 174.42 61.91 174.76 63.57 175.11 63.33 175.45 61.67 175.8 62.62 176.14 66.18 176.49 64.16 176.84 65.35 177.18 64.87 177.53 63.57 177.87 63.45 178.22 63.21 178.56 62.15 178.91 62.38 179.26 64.52 179.6 65.94 179.95 68.43 180.29 65.7 180.64 65.7 180.99 68.07 181.33 67.95 181.68 64.16 182.02 62.62 182.37 64.16 182.71 69.61 183.06 71.27 183.41 70.92 183.75 67.36 184.1 65.94 184.44 66.18 184.79 66.41 185.13 67.83 185.48 65.46 185.83 63.21 186.17 61.55 186.52 60.84 186.86 63.09 187.21 59.89 187.56 59.89 187.9 57.76 188.25 56.93 188.59 57.88 188.94 57.05 189.28 56.69 189.63 57.52 189.98 61.79 190.32 61.91 190.67 63.57 191.01 61.55 191.36 60.25 191.7 61.08 192.05 58.59 192.4 57.88 192.74 59.3 193.09 60.96 193.43 58.24 193.78 58.47 194.13 57.64 194.47 59.78 194.82 59.06 195.16 57.64 195.51 60.61 195.85 59.66 196.2 59.06"/>
      </g>
      <g stroke-width="0.3" fill="#000000" fill-opacity="0.000" class="geometry" stroke-dasharray="none" stroke="#ABDDA4" id="img-6c8321df-12">
        <path fill="none" d="M23.65,71.86 L 24 69.85 24.34 67.36 24.69 67 25.03 70.8 25.38 71.63 25.73 74.94 26.07 77.91 26.42 76.48 26.76 77.43 27.11 79.92 27.45 82.29 27.8 79.8 28.15 79.8 28.49 82.29 28.84 83.6 29.18 80.75 29.53 83.36 29.88 82.53 30.22 84.31 30.57 84.9 30.91 82.65 31.26 82.17 31.6 83.83 31.95 83.48 32.3 83.95 32.64 83.36 32.99 83.24 33.33 82.53 33.68 81.94 34.02 82.41 34.37 83 34.72 83.95 35.06 84.31 35.41 86.2 35.75 83.83 36.1 83.71 36.45 83.71 36.79 83 37.14 85.14 37.48 84.9 37.83 88.1 38.17 86.79 38.52 85.37 38.87 83.36 39.21 82.65 39.56 81.94 39.9 81.34 40.25 80.87 40.59 76.25 40.94 74 41.29 73.52 41.63 74.35 41.98 74.11 42.32 73.4 42.67 74 43.02 73.88 43.36 74.59 43.71 74.23 44.05 72.93 44.4 73.17 44.74 71.86 45.09 71.51 45.44 72.81 45.78 71.63 46.13 69.73 46.47 70.44 46.82 71.86 47.16 74.35 47.51 76.25 47.86 79.57 48.2 77.79 48.55 76.72 48.89 74.47 49.24 74.94 49.59 73.76 49.93 73.29 50.28 72.93 50.62 73.64 50.97 72.69 51.31 71.15 51.66 72.34 52.01 68.78 52.35 65.11 52.7 64.4 53.04 61.44 53.39 60.61 53.73 62.98 54.08 64.04 54.43 65.23 54.77 65.35 55.12 64.28 55.46 59.66 55.81 60.25 56.16 60.61 56.5 58.95 56.85 60.84 57.19 58.47 57.54 58.59 57.88 61.2 58.23 61.91 58.58 61.55 58.92 58.83 59.27 60.25 59.61 61.91 59.96 62.74 60.3 58.35 60.65 61.32 61 60.37 61.34 60.72 61.69 60.49 62.03 61.32 62.38 60.13 62.73 58.83 63.07 59.42 63.42 56.69 63.76 58.24 64.11 56.69 64.45 55.98 64.8 54.44 65.15 54.92 65.49 56.1 65.84 54.8 66.18 56.34 66.53 56.93 66.87 54.09 67.22 56.22 67.57 56.22 67.91 55.51 68.26 54.8 68.6 54.32 68.95 51.6 69.3 49.58 69.64 51.24 69.99 53.61 70.33 53.38 70.68 53.5 71.02 51.95 71.37 51.95 71.72 53.14 72.06 50.3 72.41 48.64 72.75 50.18 73.1 50.3 73.44 48.87 73.79 50.06 74.14 49.11 74.48 51.24 74.83 52.31 75.17 48.87 75.52 45.32 75.87 43.9 76.21 42.59 76.56 40.34 76.9 35.25 77.25 35.72 77.59 36.79 77.94 36.08 78.29 35.84 78.63 33.11 78.98 32.16 79.32 32.28 79.67 35.01 80.01 33.23 80.36 30.51 80.71 32.28 81.05 32.99 81.4 32.28 81.74 31.1 82.09 32.28 82.44 32.16 82.78 30.51 83.13 29.08 83.47 26.95 83.82 26.12 84.16 25.77 84.51 27.54 84.86 27.54 85.2 28.49 85.55 29.68 85.89 28.61 86.24 30.51 86.58 30.98 86.93 28.85 87.28 28.97 87.62 30.39 87.97 28.37 88.31 27.07 88.66 25.88 89.01 26.24 89.35 27.42 89.7 26.6 90.04 27.78 90.39 29.08 90.73 28.14 91.08 28.25 91.43 30.39 91.77 31.34 92.12 32.05 92.46 32.99 92.81 33.47 93.15 33.11 93.5 32.28 93.85 30.27 94.19 29.2 94.54 29.2 94.88 30.74 95.23 30.86 95.58 32.05 95.92 30.27 96.27 29.79 96.61 26.6 96.96 27.19 97.3 30.03 97.65 30.27 98 29.56 98.34 30.15 98.69 31.34 99.03 32.16 99.38 33.47 99.72 31.22 100.07 28.97 100.42 30.15 100.76 27.31 101.11 23.99 101.45 23.16 101.8 23.63 102.15 23.63 102.49 23.75 102.84 25.05 103.18 25.65 103.53 27.78 103.87 28.14 104.22 28.25 104.57 28.49 104.91 26.12 105.26 26.48 105.6 26.6 105.95 27.9 106.29 27.19 106.64 28.02 106.99 28.85 107.33 30.15 107.68 30.74 108.02 28.37 108.37 31.93 108.72 29.79 109.06 30.86 109.41 31.22 109.75 32.28 110.1 32.16 110.44 34.65 110.79 34.77 111.14 35.84 111.48 34.53 111.83 35.36 112.17 34.65 112.52 36.79 112.86 36.08 113.21 35.84 113.56 35.72 113.9 36.55 114.25 37.02 114.59 34.3 114.94 34.18 115.29 35.01 115.63 35.01 115.98 33.94 116.32 34.3 116.67 34.18 117.01 32.28 117.36 31.1 117.71 29.44 118.05 29.08 118.4 29.56 118.74 28.85 119.09 28.85 119.43 32.76 119.78 32.52 120.13 30.27 120.47 29.68 120.82 29.68 121.16 33.23 121.51 32.05 121.86 29.44 122.2 30.62 122.55 31.81 122.89 34.65 123.24 33.35 123.58 32.76 123.93 31.69 124.28 31.81 124.62 33.23 124.97 34.42 125.31 34.89 125.66 31.81 126 30.15 126.35 28.25 126.7 28.97 127.04 28.49 127.39 27.31 127.73 26.71 128.08 27.42 128.43 28.37 128.77 26.83 129.12 26.48 129.46 26.36 129.81 26.71 130.15 28.49 130.5 26.24 130.85 27.42 131.19 26.48 131.54 24.7 131.88 23.4 132.23 21.5 132.57 20.08 132.92 19.72 133.27 19.48 133.61 20.79 133.96 20.2 134.3 20.08 134.65 19.72 135 20.79 135.34 19.6 135.69 19.6 136.03 20.91 136.38 20.08 136.72 19.72 137.07 19.48 137.42 20.2 137.76 19.37 138.11 19.01 138.45 17.47 138.8 17.71 139.14 17 139.49 18.3 139.84 17.35 140.18 16.88 140.53 17 140.87 17.94 141.22 17.23 141.57 19.01 141.91 19.37 142.26 20.08 142.6 19.84 142.95 20.43 143.29 19.6 143.64 19.6 143.99 19.96 144.33 20.31 144.68 20.67 145.02 20.08 145.37 19.6 145.71 19.96 146.06 18.77 146.41 16.76 146.75 17.35 147.1 17.47 147.44 17.94 147.79 17.47 148.14 16.64 148.48 17.71 148.83 17.71 149.17 19.25 149.52 18.06 149.86 18.89 150.21 17.71 150.56 17.11 150.9 17 151.25 16.88 151.59 17 151.94 16.88 152.28 16.76 152.63 17.11 152.98 17.23 153.32 16.52 153.67 16.05 154.01 14.98 154.36 14.74 154.71 14.63 155.05 14.15 155.4 14.63 155.74 15.22 156.09 15.46 156.43 15.81 156.78 15.46 157.13 15.93 157.47 16.17 157.82 15.93 158.16 16.17 158.51 16.64 158.85 17 159.2 18.06 159.55 18.42 159.89 17.47 160.24 17.59 160.58 18.3 160.93 18.18 161.28 17.71 161.62 18.77 161.97 18.18 162.31 18.18 162.66 17.59 163 18.54 163.35 17.94 163.7 16.88 164.04 16.64 164.39 16.64 164.73 15.57 165.08 15.81 165.42 16.76 165.77 16.88 166.12 17 166.46 16.17 166.81 16.05 167.15 16.17 167.5 15.81 167.85 16.4 168.19 16.17 168.54 17.35 168.88 16.17 169.23 16.17 169.57 16.05 169.92 15.22 170.27 15.46 170.61 15.1 170.96 14.74 171.3 14.51 171.65 14.15 171.99 14.03 172.34 13.92 172.69 14.15 173.03 14.03 173.38 14.27 173.72 14.03 174.07 13.68 174.42 14.27 174.76 15.57 175.11 16.29 175.45 16.29 175.8 15.57 176.14 15.22 176.49 14.98 176.84 14.15 177.18 13.8 177.53 13.68 177.87 13.92 178.22 14.39 178.56 14.74 178.91 14.39 179.26 14.39 179.6 14.63 179.95 14.51 180.29 13.44 180.64 13.68 180.99 14.15 181.33 14.15 181.68 14.03 182.02 14.51 182.37 14.51 182.71 14.15 183.06 13.68 183.41 13.56 183.75 13.92 184.1 13.8 184.44 13.56 184.79 13.44 185.13 13.68 185.48 13.92 185.83 13.8 186.17 14.39 186.52 15.22 186.86 15.69 187.21 15.34 187.56 14.74 187.9 16.29 188.25 16.64 188.59 17.59 188.94 17 189.28 16.05 189.63 15.81 189.98 16.05 190.32 16.29 190.67 17.47 191.01 16.88 191.36 17.71 191.7 16.64 192.05 16.17 192.4 15.57 192.74 17.47 193.09 17.71 193.43 17.83 193.78 17.94 194.13 17.83 194.47 18.54 194.82 18.89 195.16 18.89 195.51 20.2 195.85 21.74 196.2 20.91"/>
      </g>
      <g stroke-width="0.3" fill="#000000" fill-opacity="0.000" class="geometry" stroke-dasharray="none" stroke="#E6F598" id="img-6c8321df-13">
        <path fill="none" d="M23.65,71.86 L 24 69.61 24.34 69.97 24.69 68.78 25.03 67.36 25.38 66.18 25.73 67.24 26.07 68.43 26.42 68.9 26.76 68.55 27.11 66.89 27.45 68.07 27.8 67.72 28.15 69.73 28.49 68.55 28.84 68.43 29.18 69.14 29.53 68.66 29.88 69.61 30.22 70.8 30.57 73.05 30.91 71.74 31.26 70.09 31.6 73.64 31.95 74.83 32.3 73.76 32.64 75.89 32.99 79.21 33.33 77.55 33.68 79.21 34.02 80.4 34.37 82.17 34.72 81.94 35.06 84.19 35.41 85.49 35.75 84.66 36.1 82.41 36.45 82.65 36.79 79.68 37.14 77.43 37.48 80.75 37.83 80.16 38.17 79.92 38.52 80.4 38.87 81.82 39.21 82.88 39.56 83 39.9 80.51 40.25 80.75 40.59 80.63 40.94 79.21 41.29 79.09 41.63 76.37 41.98 75.89 42.32 73.88 42.67 70.92 43.02 71.27 43.36 71.27 43.71 69.14 44.05 70.09 44.4 70.2 44.74 69.73 45.09 71.15 45.44 73.4 45.78 73.4 46.13 74.71 46.47 80.99 46.82 82.17 47.16 82.17 47.51 79.57 47.86 80.28 48.2 78.97 48.55 78.26 48.89 76.72 49.24 77.31 49.59 76.01 49.93 75.3 50.28 73.52 50.62 70.56 50.97 67.95 51.31 67.24 51.66 67.36 52.01 68.78 52.35 70.09 52.7 69.02 53.04 69.26 53.39 70.68 53.73 68.55 54.08 65.94 54.43 65.94 54.77 65.35 55.12 65.35 55.46 61.79 55.81 61.2 56.16 58.95 56.5 57.41 56.85 56.93 57.19 55.27 57.54 57.52 57.88 58.12 58.23 58.71 58.58 59.3 58.92 58.35 59.27 57.64 59.61 57.64 59.96 57.88 60.3 58.35 60.65 59.42 61 60.01 61.34 60.01 61.69 57.76 62.03 55.87 62.38 55.39 62.73 57.64 63.07 54.8 63.42 57.05 63.76 54.44 64.11 54.32 64.45 56.1 64.8 58 65.15 58.47 65.49 57.17 65.84 58.71 66.18 59.3 66.53 58.71 66.87 58 67.22 55.51 67.57 54.21 67.91 53.38 68.26 53.85 68.6 54.8 68.95 54.92 69.3 54.32 69.64 57.88 69.99 56.69 70.33 52.31 70.68 51.24 71.02 51.36 71.37 49.58 71.72 48.76 72.06 47.21 72.41 45.56 72.75 42.95 73.1 41.64 73.44 41.53 73.79 43.66 74.14 44.13 74.48 45.08 74.83 45.2 75.17 43.78 75.52 42.24 75.87 42.59 76.21 40.1 76.56 41.88 76.9 43.07 77.25 43.3 77.59 43.07 77.94 45.32 78.29 46.98 78.63 47.45 78.98 47.45 79.32 48.16 79.67 48.99 80.01 49.35 80.36 49.82 80.71 50.18 81.05 51.48 81.4 50.77 81.74 54.44 82.09 54.32 82.44 52.67 82.78 53.73 83.13 52.19 83.47 51.84 83.82 52.67 84.16 53.14 84.51 54.21 84.86 55.75 85.2 53.61 85.55 56.46 85.89 61.67 86.24 61.08 86.58 62.62 86.93 61.2 87.28 59.66 87.62 58.95 87.97 58.24 88.31 55.63 88.66 54.56 89.01 53.02 89.35 55.51 89.7 55.15 90.04 53.85 90.39 54.32 90.73 52.43 91.08 51.24 91.43 46.39 91.77 48.16 92.12 49.35 92.46 50.53 92.81 49.82 93.15 49.35 93.5 51.13 93.85 49.7 94.19 46.03 94.54 47.69 94.88 48.64 95.23 48.04 95.58 46.74 95.92 44.49 96.27 43.42 96.61 44.73 96.96 44.61 97.3 43.9 97.65 44.02 98 42.24 98.34 42.47 98.69 43.78 99.03 42.36 99.38 42.71 99.72 42 100.07 42.12 100.42 43.54 100.76 46.15 101.11 46.98 101.45 47.21 101.8 47.93 102.15 49.47 102.49 47.69 102.84 48.64 103.18 50.18 103.53 49.82 103.87 52.67 104.22 51.48 104.57 54.92 104.91 58.83 105.26 59.3 105.6 57.88 105.95 57.88 106.29 56.1 106.64 56.22 106.99 54.8 107.33 59.06 107.68 59.78 108.02 61.55 108.37 61.08 108.72 59.78 109.06 59.66 109.41 58.12 109.75 58.71 110.1 58.24 110.44 57.41 110.79 58 111.14 55.04 111.48 54.09 111.83 51.48 112.17 50.77 112.52 51.48 112.86 46.62 113.21 44.02 113.56 43.19 113.9 43.66 114.25 48.16 114.59 47.45 114.94 49.58 115.29 47.81 115.63 47.69 115.98 48.4 116.32 46.86 116.67 47.69 117.01 46.27 117.36 47.21 117.71 47.81 118.05 49.47 118.4 49.94 118.74 49.58 119.09 48.64 119.43 47.81 119.78 46.39 120.13 46.27 120.47 45.08 120.82 42.12 121.16 41.53 121.51 41.88 121.86 43.07 122.2 42 122.55 41.05 122.89 41.76 123.24 40.34 123.58 40.46 123.93 39.63 124.28 38.33 124.62 37.02 124.97 33.94 125.31 33.82 125.66 34.77 126 33.82 126.35 35.13 126.7 35.01 127.04 36.9 127.39 35.96 127.73 35.13 128.08 35.01 128.43 36.08 128.77 35.96 129.12 38.68 129.46 37.73 129.81 37.5 130.15 35.96 130.5 38.45 130.85 40.7 131.19 38.92 131.54 39.27 131.88 39.51 132.23 41.17 132.57 43.3 132.92 44.49 133.27 45.79 133.61 42.71 133.96 41.29 134.3 42.59 134.65 41.29 135 41.05 135.34 44.02 135.69 45.56 136.03 44.02 136.38 42.83 136.72 44.13 137.07 44.13 137.42 44.02 137.76 43.54 138.11 41.29 138.45 42.47 138.8 42.71 139.14 42.83 139.49 42.95 139.84 45.32 140.18 47.57 140.53 49.35 140.87 48.04 141.22 48.4 141.57 47.21 141.91 46.74 142.26 47.45 142.6 46.27 142.95 48.99 143.29 53.26 143.64 49.47 143.99 48.28 144.33 48.99 144.68 48.64 145.02 47.33 145.37 45.91 145.71 46.27 146.06 48.4 146.41 48.76 146.75 47.81 147.1 47.81 147.44 48.99 147.79 50.18 148.14 52.19 148.48 51.6 148.83 54.32 149.17 56.93 149.52 57.88 149.86 58 150.21 57.64 150.56 58.47 150.9 59.66 151.25 60.61 151.59 60.96 151.94 59.66 152.28 59.42 152.63 57.29 152.98 55.87 153.32 55.39 153.67 57.17 154.01 59.89 154.36 58.95 154.71 60.49 155.05 62.26 155.4 63.81 155.74 64.16 156.09 65.46 156.43 63.33 156.78 62.38 157.13 61.91 157.47 64.4 157.82 65.23 158.16 62.86 158.51 61.55 158.85 60.84 159.2 62.62 159.55 64.16 159.89 63.33 160.24 62.74 160.58 65.23 160.93 63.33 161.28 62.03 161.62 65.35 161.97 66.41 162.31 64.52 162.66 65.35 163 64.75 163.35 65.11 163.7 65.35 164.04 66.65 164.39 68.66 164.73 68.43 165.08 69.73 165.42 70.92 165.77 67.12 166.12 65.23 166.46 68.07 166.81 65.23 167.15 69.97 167.5 67.24 167.85 69.49 168.19 69.73 168.54 69.26 168.88 70.32 169.23 71.98 169.57 71.74 169.92 74.83 170.27 77.08 170.61 78.03 170.96 78.62 171.3 83.6 171.65 83 171.99 83.12 172.34 82.88 172.69 82.05 173.03 80.4 173.38 79.57 173.72 78.5 174.07 81.11 174.42 80.51 174.76 75.3 175.11 74 175.45 74 175.8 73.52 176.14 72.46 176.49 71.63 176.84 74.94 177.18 74.83 177.53 78.38 177.87 78.26 178.22 81.23 178.56 77.31 178.91 80.16 179.26 80.04 179.6 78.03 179.95 74.35 180.29 75.77 180.64 76.84 180.99 78.03 181.33 78.97 181.68 81.94 182.02 80.75 182.37 77.43 182.71 76.96 183.06 74.94 183.41 71.51 183.75 71.15 184.1 72.93 184.44 71.74 184.79 74 185.13 78.74 185.48 80.16 185.83 80.4 186.17 80.16 186.52 79.8 186.86 81.7 187.21 80.28 187.56 82.29 187.9 80.75 188.25 83.36 188.59 85.49 188.94 86.2 189.28 83.95 189.63 88.34 189.98 87.51 190.32 83.95 190.67 85.85 191.01 86.44 191.36 86.79 191.7 87.86 192.05 86.2 192.4 89.28 192.74 89.64 193.09 88.45 193.43 87.62 193.78 89.05 194.13 89.4 194.47 87.62 194.82 89.05 195.16 89.99 195.51 90.47 195.85 90.35 196.2 91.3"/>
      </g>
      <g stroke-width="0.3" fill="#000000" fill-opacity="0.000" class="geometry" stroke-dasharray="none" stroke="#FFFFBF" id="img-6c8321df-14">
        <path fill="none" d="M23.65,71.86 L 24 72.46 24.34 71.15 24.69 71.03 25.03 70.09 25.38 72.93 25.73 71.63 26.07 72.57 26.42 71.86 26.76 72.93 27.11 72.69 27.45 71.86 27.8 72.57 28.15 70.68 28.49 74.47 28.84 74.11 29.18 75.66 29.53 72.93 29.88 72.69 30.22 73.4 30.57 72.81 30.91 69.97 31.26 71.74 31.6 70.2 31.95 71.51 32.3 71.15 32.64 67.83 32.99 67.12 33.33 65.58 33.68 65.58 34.02 65.23 34.37 65.82 34.72 67 35.06 66.29 35.41 66.89 35.75 68.07 36.1 67.12 36.45 65.7 36.79 65.7 37.14 67.36 37.48 69.73 37.83 67.72 38.17 67.95 38.52 68.78 38.87 69.49 39.21 67.6 39.56 70.32 39.9 69.73 40.25 69.26 40.59 68.19 40.94 69.97 41.29 68.9 41.63 70.32 41.98 71.39 42.32 69.85 42.67 72.69 43.02 74 43.36 72.69 43.71 71.27 44.05 72.57 44.4 72.34 44.74 71.86 45.09 69.37 45.44 68.66 45.78 68.55 46.13 69.02 46.47 72.69 46.82 69.61 47.16 68.66 47.51 69.61 47.86 73.17 48.2 74.35 48.55 72.1 48.89 70.2 49.24 71.98 49.59 71.39 49.93 73.17 50.28 75.66 50.62 74.59 50.97 73.52 51.31 73.76 51.66 77.43 52.01 76.48 52.35 76.13 52.7 76.96 53.04 78.03 53.39 76.13 53.73 74.83 54.08 77.2 54.43 76.37 54.77 75.54 55.12 74.71 55.46 75.54 55.81 77.43 56.16 79.21 56.5 81.11 56.85 80.04 57.19 82.88 57.54 81.11 57.88 77.91 58.23 78.97 58.58 79.09 58.92 77.67 59.27 78.62 59.61 81.11 59.96 81.82 60.3 82.65 60.65 80.28 61 81.94 61.34 83.95 61.69 84.19 62.03 83.24 62.38 84.66 62.73 84.19 63.07 85.02 63.42 83.6 63.76 81.7 64.11 80.99 64.45 81.23 64.8 80.16 65.15 80.28 65.49 76.72 65.84 76.13 66.18 73.4 66.53 76.72 66.87 77.79 67.22 77.43 67.57 78.5 67.91 77.79 68.26 75.77 68.6 74.47 68.95 75.77 69.3 78.62 69.64 79.68 69.99 80.51 70.33 78.03 70.68 78.26 71.02 78.62 71.37 78.5 71.72 80.4 72.06 80.75 72.41 83.48 72.75 84.19 73.1 84.66 73.44 85.25 73.79 85.25 74.14 85.14 74.48 83.95 74.83 84.54 75.17 84.54 75.52 84.07 75.87 85.73 76.21 87.39 76.56 85.37 76.9 85.02 77.25 81.58 77.59 77.91 77.94 79.8 78.29 80.63 78.63 83.12 78.98 86.44 79.32 85.73 79.67 84.9 80.01 82.65 80.36 83 80.71 82.17 81.05 83.12 81.4 85.37 81.74 86.2 82.09 85.85 82.44 85.85 82.78 84.19 83.13 83 83.47 79.68 83.82 80.4 84.16 79.33 84.51 77.67 84.86 75.18 85.2 75.42 85.55 73.76 85.89 73.29 86.24 73.64 86.58 73.64 86.93 75.54 87.28 78.03 87.62 77.79 87.97 79.33 88.31 79.57 88.66 78.86 89.01 75.77 89.35 76.25 89.7 75.06 90.04 75.54 90.39 77.08 90.73 77.79 91.08 77.67 91.43 78.38 91.77 78.97 92.12 79.33 92.46 79.57 92.81 77.2 93.15 77.79 93.5 77.79 93.85 79.33 94.19 80.63 94.54 81.94 94.88 82.29 95.23 83.95 95.58 83.83 95.92 85.02 96.27 87.62 96.61 85.25 96.96 81.34 97.3 81.94 97.65 84.19 98 82.05 98.34 82.53 98.69 83.95 99.03 82.53 99.38 80.75 99.72 82.65 100.07 82.53 100.42 78.14 100.76 78.62 101.11 77.43 101.45 78.62 101.8 79.33 102.15 78.62 102.49 77.2 102.84 76.48 103.18 76.01 103.53 75.54 103.87 75.3 104.22 75.3 104.57 75.18 104.91 76.96 105.26 77.2 105.6 75.77 105.95 73.88 106.29 77.43 106.64 79.33 106.99 77.91 107.33 79.45 107.68 76.25 108.02 78.38 108.37 77.79 108.72 79.57 109.06 77.79 109.41 80.51 109.75 81.7 110.1 80.04 110.44 80.87 110.79 79.57 111.14 80.04 111.48 80.04 111.83 79.8 112.17 78.03 112.52 80.28 112.86 80.28 113.21 80.75 113.56 78.14 113.9 79.68 114.25 79.33 114.59 76.72 114.94 75.89 115.29 75.66 115.63 74 115.98 74.35 116.32 76.84 116.67 78.74 117.01 78.86 117.36 82.65 117.71 81.94 118.05 81.46 118.4 81.58 118.74 79.57 119.09 79.68 119.43 78.26 119.78 77.08 120.13 76.37 120.47 73.64 120.82 74.35 121.16 69.85 121.51 72.22 121.86 74.83 122.2 75.66 122.55 72.46 122.89 75.66 123.24 79.8 123.58 79.21 123.93 79.57 124.28 80.04 124.62 78.74 124.97 80.87 125.31 82.05 125.66 80.16 126 79.8 126.35 82.29 126.7 86.08 127.04 87.98 127.39 89.28 127.73 90.82 128.08 92.13 128.43 93.31 128.77 96.28 129.12 95.33 129.46 93.31 129.81 92.6 130.15 95.21 130.5 91.42 130.85 87.51 131.19 89.99 131.54 88.93 131.88 87.27 132.23 88.81 132.57 88.81 132.92 89.05 133.27 88.22 133.61 90.35 133.96 92.84 134.3 90.23 134.65 91.65 135 92.72 135.34 92.84 135.69 93.43 136.03 95.09 136.38 93.08 136.72 94.38 137.07 92.36 137.42 89.88 137.76 90.71 138.11 90.35 138.45 87.03 138.8 91.89 139.14 89.52 139.49 87.74 139.84 90.71 140.18 93.43 140.53 94.26 140.87 92.25 141.22 91.77 141.57 90.94 141.91 89.64 142.26 89.88 142.6 92.6 142.95 93.08 143.29 92.01 143.64 88.57 143.99 88.93 144.33 86.68 144.68 86.91 145.02 86.79 145.37 85.85 145.71 81.11 146.06 82.29 146.41 78.97 146.75 78.38 147.1 79.8 147.44 80.63 147.79 74.23 148.14 77.55 148.48 75.89 148.83 77.79 149.17 76.6 149.52 76.84 149.86 79.33 150.21 79.33 150.56 80.63 150.9 82.05 151.25 81.46 151.59 80.28 151.94 80.63 152.28 78.74 152.63 80.28 152.98 77.91 153.32 78.26 153.67 81.34 154.01 82.77 154.36 83.83 154.71 84.42 155.05 86.56 155.4 85.37 155.74 84.07 156.09 88.22 156.43 91.77 156.78 89.88 157.13 91.65 157.47 89.28 157.82 89.05 158.16 89.88 158.51 89.88 158.85 89.64 159.2 87.39 159.55 86.91 159.89 87.62 160.24 89.4 160.58 91.53 160.93 92.13 161.28 89.99 161.62 88.57 161.97 87.74 162.31 90.59 162.66 87.27 163 88.81 163.35 87.51 163.7 84.07 164.04 81.23 164.39 78.97 164.73 81.82 165.08 77.31 165.42 74.47 165.77 73.17 166.12 71.63 166.46 72.81 166.81 72.34 167.15 70.44 167.5 71.03 167.85 74.23 168.19 73.88 168.54 77.08 168.88 78.03 169.23 76.37 169.57 74.83 169.92 78.74 170.27 76.48 170.61 75.42 170.96 75.42 171.3 77.2 171.65 74.71 171.99 74.35 172.34 71.51 172.69 68.66 173.03 68.43 173.38 69.97 173.72 70.92 174.07 68.78 174.42 67.83 174.76 68.55 175.11 70.44 175.45 71.39 175.8 71.39 176.14 71.15 176.49 72.46 176.84 73.05 177.18 72.1 177.53 73.17 177.87 74 178.22 73.4 178.56 72.81 178.91 72.93 179.26 71.27 179.6 71.03 179.95 72.1 180.29 71.15 180.64 73.76 180.99 71.27 181.33 69.37 181.68 71.98 182.02 71.15 182.37 72.1 182.71 71.03 183.06 71.15 183.41 73.76 183.75 76.84 184.1 78.5 184.44 78.14 184.79 77.55 185.13 75.54 185.48 75.18 185.83 74.94 186.17 73.17 186.52 71.15 186.86 74 187.21 72.57 187.56 73.76 187.9 72.93 188.25 70.68 188.59 69.49 188.94 69.14 189.28 69.61 189.63 70.68 189.98 72.1 190.32 72.93 190.67 72.69 191.01 74.47 191.36 75.42 191.7 74.94 192.05 75.54 192.4 75.18 192.74 75.54 193.09 71.39 193.43 70.2 193.78 69.14 194.13 67 194.47 64.04 194.82 64.87 195.16 67.48 195.51 65.82 195.85 66.18 196.2 64.75"/>
      </g>
      <g stroke-width="0.3" fill="#000000" fill-opacity="0.000" class="geometry" stroke-dasharray="none" stroke="#FEE08B" id="img-6c8321df-15">
        <path fill="none" d="M23.65,71.86 L 24 72.1 24.34 70.56 24.69 68.78 25.03 65.46 25.38 64.28 25.73 63.92 26.07 65.23 26.42 68.07 26.76 66.89 27.11 64.99 27.45 66.06 27.8 65.82 28.15 61.44 28.49 59.3 28.84 57.05 29.18 55.75 29.53 55.27 29.88 59.18 30.22 59.78 30.57 60.13 30.91 59.54 31.26 56.93 31.6 56.93 31.95 58.12 32.3 59.54 32.64 57.88 32.99 56.1 33.33 56.93 33.68 57.29 34.02 58.35 34.37 58.95 34.72 60.72 35.06 60.61 35.41 59.66 35.75 60.49 36.1 59.66 36.45 60.25 36.79 57.88 37.14 58 37.48 58.83 37.83 60.49 38.17 60.01 38.52 57.64 38.87 55.87 39.21 56.46 39.56 57.05 39.9 53.02 40.25 56.81 40.59 57.17 40.94 57.41 41.29 55.15 41.63 53.61 41.98 55.39 42.32 53.14 42.67 51.84 43.02 52.19 43.36 50.41 43.71 49.47 44.05 48.76 44.4 45.2 44.74 46.15 45.09 48.99 45.44 50.41 45.78 50.3 46.13 48.76 46.47 50.65 46.82 52.9 47.16 50.89 47.51 49.47 47.86 49.11 48.2 50.65 48.55 47.81 48.89 48.76 49.24 49.94 49.59 46.5 49.93 48.28 50.28 45.56 50.62 46.62 50.97 44.84 51.31 44.37 51.66 46.5 52.01 46.27 52.35 50.89 52.7 53.14 53.04 53.97 53.39 52.78 53.73 51.36 54.08 46.86 54.43 48.87 54.77 48.64 55.12 48.64 55.46 45.79 55.81 45.2 56.16 45.08 56.5 44.37 56.85 47.1 57.19 47.33 57.54 45.08 57.88 41.17 58.23 42.59 58.58 42.95 58.92 41.29 59.27 41.53 59.61 42 59.96 41.76 60.3 44.25 60.65 46.27 61 46.39 61.34 47.81 61.69 49.47 62.03 47.81 62.38 47.1 62.73 46.98 63.07 47.21 63.42 48.16 63.76 47.81 64.11 45.44 64.45 46.5 64.8 46.39 65.15 42 65.49 39.99 65.84 40.46 66.18 39.99 66.53 41.29 66.87 40.58 67.22 39.63 67.57 38.21 67.91 38.45 68.26 38.8 68.6 38.92 68.95 41.29 69.3 42.71 69.64 42.12 69.99 42.83 70.33 43.3 70.68 42.59 71.02 40.34 71.37 41.64 71.72 42.83 72.06 45.32 72.41 46.62 72.75 45.44 73.1 47.33 73.44 48.4 73.79 51.01 74.14 51.36 74.48 54.44 74.83 52.31 75.17 49.94 75.52 48.99 75.87 48.52 76.21 46.62 76.56 49.11 76.9 49.23 77.25 51.13 77.59 51.6 77.94 50.41 78.29 50.18 78.63 50.53 78.98 49.82 79.32 49.58 79.67 50.3 80.01 50.65 80.36 50.3 80.71 52.19 81.05 54.32 81.4 52.67 81.74 55.04 82.09 56.58 82.44 55.75 82.78 54.8 83.13 53.85 83.47 54.8 83.82 55.39 84.16 55.15 84.51 56.46 84.86 59.06 85.2 59.06 85.55 58.24 85.89 59.89 86.24 61.2 86.58 57.64 86.93 53.73 87.28 53.14 87.62 54.21 87.97 56.34 88.31 55.87 88.66 59.3 89.01 62.74 89.35 62.5 89.7 64.75 90.04 63.33 90.39 64.87 90.73 63.33 91.08 65.58 91.43 69.02 91.77 66.29 92.12 66.29 92.46 66.18 92.81 66.65 93.15 64.04 93.5 63.92 93.85 62.38 94.19 60.96 94.54 60.61 94.88 63.45 95.23 65.35 95.58 64.4 95.92 66.65 96.27 65.94 96.61 69.37 96.96 68.9 97.3 69.85 97.65 70.92 98 69.61 98.34 71.39 98.69 74.11 99.03 77.67 99.38 78.74 99.72 78.62 100.07 81.7 100.42 80.04 100.76 80.16 101.11 79.45 101.45 82.41 101.8 81.58 102.15 81.23 102.49 80.51 102.84 79.57 103.18 77.43 103.53 77.31 103.87 76.96 104.22 75.42 104.57 76.13 104.91 74.59 105.26 77.08 105.6 78.5 105.95 78.86 106.29 78.97 106.64 78.03 106.99 76.96 107.33 77.67 107.68 77.67 108.02 76.72 108.37 75.18 108.72 71.39 109.06 71.98 109.41 73.52 109.75 75.42 110.1 76.25 110.44 77.55 110.79 75.66 111.14 76.72 111.48 75.54 111.83 76.13 112.17 78.26 112.52 78.86 112.86 81.7 113.21 83.83 113.56 86.68 113.9 86.08 114.25 85.49 114.59 85.97 114.94 88.45 115.29 88.34 115.63 86.68 115.98 86.44 116.32 86.08 116.67 85.73 117.01 89.28 117.36 88.57 117.71 87.74 118.05 83.6 118.4 80.87 118.74 80.99 119.09 79.45 119.43 82.17 119.78 83.48 120.13 85.14 120.47 84.31 120.82 84.07 121.16 85.49 121.51 84.78 121.86 82.65 122.2 82.88 122.55 85.14 122.89 86.32 123.24 85.02 123.58 84.42 123.93 86.08 124.28 86.32 124.62 86.68 124.97 86.68 125.31 87.51 125.66 83.12 126 82.65 126.35 82.05 126.7 81.46 127.04 80.4 127.39 86.68 127.73 87.03 128.08 85.97 128.43 85.02 128.77 85.37 129.12 85.14 129.46 86.44 129.81 85.97 130.15 83.71 130.5 82.41 130.85 81.11 131.19 81.23 131.54 82.77 131.88 85.37 132.23 85.97 132.57 82.77 132.92 81.94 133.27 80.99 133.61 84.66 133.96 85.61 134.3 84.9 134.65 85.37 135 84.19 135.34 84.54 135.69 85.02 136.03 79.33 136.38 79.57 136.72 79.57 137.07 81.34 137.42 82.77 137.76 83.12 138.11 79.09 138.45 77.55 138.8 80.16 139.14 80.99 139.49 81.58 139.84 80.63 140.18 78.86 140.53 78.62 140.87 79.09 141.22 75.3 141.57 76.96 141.91 75.06 142.26 76.48 142.6 76.13 142.95 75.42 143.29 76.25 143.64 72.1 143.99 70.92 144.33 70.8 144.68 69.49 145.02 69.73 145.37 69.61 145.71 73.64 146.06 74.83 146.41 73.52 146.75 75.54 147.1 72.93 147.44 70.8 147.79 72.1 148.14 70.8 148.48 70.8 148.83 68.19 149.17 70.32 149.52 68.55 149.86 68.31 150.21 69.37 150.56 68.66 150.9 68.19 151.25 69.02 151.59 68.43 151.94 69.97 152.28 71.74 152.63 73.64 152.98 72.93 153.32 69.14 153.67 67.12 154.01 63.69 154.36 63.09 154.71 62.98 155.05 63.81 155.4 62.38 155.74 61.32 156.09 62.38 156.43 64.04 156.78 64.52 157.13 64.16 157.47 64.99 157.82 68.43 158.16 70.68 158.51 70.68 158.85 69.85 159.2 70.44 159.55 68.07 159.89 70.32 160.24 68.78 160.58 63.81 160.93 64.87 161.28 64.28 161.62 62.98 161.97 61.91 162.31 62.62 162.66 65.7 163 65.11 163.35 66.77 163.7 69.37 164.04 67.83 164.39 67.83 164.73 67.72 165.08 67.24 165.42 64.04 165.77 64.04 166.12 64.16 166.46 65.58 166.81 64.75 167.15 63.69 167.5 65.46 167.85 65.46 168.19 61.32 168.54 56.69 168.88 61.44 169.23 62.62 169.57 60.13 169.92 61.08 170.27 62.03 170.61 61.08 170.96 58 171.3 59.42 171.65 60.61 171.99 64.28 172.34 64.87 172.69 68.07 173.03 70.56 173.38 70.56 173.72 69.73 174.07 70.2 174.42 71.15 174.76 71.39 175.11 71.03 175.45 67.36 175.8 65.58 176.14 63.33 176.49 64.99 176.84 65.46 177.18 63.81 177.53 62.86 177.87 63.57 178.22 65.35 178.56 65.11 178.91 65.11 179.26 66.89 179.6 67.24 179.95 68.43 180.29 68.19 180.64 69.49 180.99 70.44 181.33 70.2 181.68 70.09 182.02 68.9 182.37 69.37 182.71 68.78 183.06 65.11 183.41 63.21 183.75 64.75 184.1 64.04 184.44 65.82 184.79 71.98 185.13 70.92 185.48 70.92 185.83 71.98 186.17 72.46 186.52 74.94 186.86 75.77 187.21 73.76 187.56 72.22 187.9 65.94 188.25 64.52 188.59 61.91 188.94 62.03 189.28 59.66 189.63 58.95 189.98 56.69 190.32 56.46 190.67 54.92 191.01 55.98 191.36 58.47 191.7 58.83 192.05 58.12 192.4 57.52 192.74 56.46 193.09 59.3 193.43 58.95 193.78 56.93 194.13 54.92 194.47 55.27 194.82 53.85 195.16 54.44 195.51 51.84 195.85 54.09 196.2 55.04"/>
      </g>
      <g stroke-width="0.3" fill="#000000" fill-opacity="0.000" class="geometry" stroke-dasharray="none" stroke="#FDAE61" id="img-6c8321df-16">
        <path fill="none" d="M23.65,71.86 L 24 69.26 24.34 67.95 24.69 64.99 25.03 64.99 25.38 64.63 25.73 66.65 26.07 67.48 26.42 68.9 26.76 65.23 27.11 65.35 27.45 62.86 27.8 66.06 28.15 63.69 28.49 63.33 28.84 65.11 29.18 65.94 29.53 69.97 29.88 69.85 30.22 69.61 30.57 67.24 30.91 65.94 31.26 65.46 31.6 64.99 31.95 63.21 32.3 60.25 32.64 59.78 32.99 62.62 33.33 62.38 33.68 61.55 34.02 60.01 34.37 59.78 34.72 63.92 35.06 60.25 35.41 58.35 35.75 58.95 36.1 59.89 36.45 60.61 36.79 63.69 37.14 64.63 37.48 61.32 37.83 62.62 38.17 62.74 38.52 61.91 38.87 61.67 39.21 63.81 39.56 65.7 39.9 64.99 40.25 64.28 40.59 62.26 40.94 62.03 41.29 60.96 41.63 61.55 41.98 64.04 42.32 63.69 42.67 63.57 43.02 65.35 43.36 68.31 43.71 70.32 44.05 71.39 44.4 70.68 44.74 71.27 45.09 72.57 45.44 72.57 45.78 71.98 46.13 71.63 46.47 69.49 46.82 67.48 47.16 66.06 47.51 66.18 47.86 65.46 48.2 62.74 48.55 63.92 48.89 64.75 49.24 66.41 49.59 67.48 49.93 68.43 50.28 67.12 50.62 67.83 50.97 69.49 51.31 68.55 51.66 68.55 52.01 68.19 52.35 67.72 52.7 64.87 53.04 65.58 53.39 63.21 53.73 64.28 54.08 65.11 54.43 66.41 54.77 67 55.12 65.94 55.46 69.97 55.81 69.49 56.16 69.97 56.5 70.09 56.85 68.31 57.19 70.09 57.54 66.65 57.88 67.95 58.23 66.53 58.58 68.07 58.92 69.97 59.27 69.02 59.61 68.55 59.96 68.19 60.3 66.77 60.65 64.28 61 65.58 61.34 68.43 61.69 68.19 62.03 70.68 62.38 72.22 62.73 71.27 63.07 72.57 63.42 71.63 63.76 72.1 64.11 71.27 64.45 74.83 64.8 74.11 65.15 78.38 65.49 75.66 65.84 75.54 66.18 78.14 66.53 81.34 66.87 81.11 67.22 82.53 67.57 83.48 67.91 79.68 68.26 74.94 68.6 75.06 68.95 75.77 69.3 74.11 69.64 74 69.99 76.6 70.33 77.55 70.68 76.48 71.02 75.89 71.37 76.96 71.72 76.96 72.06 77.08 72.41 74.11 72.75 76.48 73.1 75.89 73.44 76.72 73.79 78.62 74.14 78.5 74.48 77.55 74.83 80.16 75.17 80.4 75.52 81.23 75.87 79.68 76.21 77.67 76.56 79.45 76.9 78.38 77.25 79.57 77.59 78.97 77.94 78.86 78.29 78.74 78.63 78.14 78.98 77.67 79.32 80.75 79.67 81.23 80.01 78.26 80.36 77.67 80.71 75.77 81.05 75.06 81.4 75.3 81.74 76.96 82.09 76.25 82.44 73.64 82.78 75.66 83.13 76.25 83.47 75.06 83.82 72.69 84.16 71.74 84.51 71.03 84.86 71.74 85.2 72.46 85.55 71.03 85.89 74.47 86.24 71.51 86.58 71.15 86.93 73.76 87.28 77.31 87.62 77.67 87.97 78.26 88.31 79.68 88.66 79.33 89.01 81.46 89.35 81.94 89.7 83.12 90.04 82.41 90.39 81.11 90.73 80.16 91.08 78.74 91.43 77.08 91.77 73.29 92.12 72.69 92.46 71.51 92.81 70.2 93.15 72.22 93.5 72.69 93.85 74 94.19 73.76 94.54 72.57 94.88 70.92 95.23 69.85 95.58 69.73 95.92 69.49 96.27 67.72 96.61 67 96.96 68.78 97.3 70.32 97.65 72.69 98 74.71 98.34 71.63 98.69 70.44 99.03 74 99.38 72.69 99.72 73.4 100.07 75.66 100.42 77.67 100.76 77.08 101.11 76.72 101.45 76.25 101.8 75.77 102.15 78.38 102.49 75.89 102.84 76.01 103.18 73.88 103.53 74.35 103.87 71.86 104.22 73.76 104.57 73.88 104.91 74.83 105.26 77.91 105.6 79.45 105.95 78.97 106.29 77.2 106.64 81.94 106.99 80.99 107.33 80.04 107.68 82.77 108.02 85.02 108.37 85.25 108.72 83.95 109.06 83.83 109.41 81.94 109.75 81.34 110.1 79.33 110.44 76.01 110.79 75.89 111.14 73.4 111.48 72.46 111.83 77.31 112.17 73.76 112.52 76.25 112.86 76.84 113.21 77.55 113.56 76.96 113.9 76.6 114.25 78.38 114.59 77.31 114.94 77.91 115.29 77.08 115.63 78.86 115.98 79.09 116.32 77.91 116.67 73.29 117.01 72.22 117.36 72.57 117.71 74.59 118.05 71.39 118.4 73.64 118.74 70.68 119.09 68.66 119.43 69.26 119.78 67.12 120.13 66.29 120.47 68.19 120.82 68.66 121.16 67.83 121.51 68.66 121.86 67.95 122.2 65.58 122.55 63.92 122.89 66.06 123.24 63.81 123.58 61.2 123.93 61.2 124.28 61.32 124.62 61.67 124.97 58 125.31 61.32 125.66 60.96 126 62.26 126.35 63.69 126.7 62.15 127.04 61.91 127.39 60.96 127.73 63.92 128.08 63.92 128.43 63.09 128.77 65.11 129.12 61.79 129.46 62.38 129.81 62.26 130.15 62.62 130.5 59.18 130.85 60.13 131.19 57.76 131.54 58 131.88 58.83 132.23 59.78 132.57 59.54 132.92 57.88 133.27 58.95 133.61 62.03 133.96 66.29 134.3 66.89 134.65 69.02 135 69.61 135.34 70.09 135.69 73.76 136.03 71.86 136.38 71.27 136.72 71.27 137.07 74.71 137.42 74.23 137.76 71.63 138.11 71.74 138.45 73.17 138.8 75.18 139.14 78.5 139.49 79.57 139.84 76.96 140.18 76.72 140.53 76.72 140.87 77.55 141.22 76.13 141.57 75.3 141.91 74.47 142.26 76.01 142.6 79.21 142.95 81.11 143.29 80.63 143.64 78.62 143.99 79.92 144.33 81.11 144.68 84.07 145.02 85.14 145.37 82.17 145.71 81.7 146.06 80.28 146.41 81.23 146.75 84.19 147.1 85.61 147.44 85.37 147.79 87.27 148.14 90.47 148.48 94.97 148.83 97.34 149.17 98.65 149.52 102.91 149.86 102.56 150.21 101.49 150.56 102.67 150.9 103.74 151.25 104.57 151.59 105.16 151.94 103.74 152.28 103.15 152.63 101.84 152.98 101.37 153.32 100.3 153.67 101.61 154.01 101.96 154.36 100.07 154.71 99.36 155.05 98.88 155.4 96.99 155.74 98.41 156.09 100.42 156.43 99.71 156.78 98.29 157.13 98.41 157.47 96.16 157.82 96.28 158.16 93.19 158.51 93.31 158.85 96.63 159.2 98.76 159.55 97.34 159.89 98.17 160.24 98.17 160.58 100.19 160.93 101.13 161.28 102.32 161.62 100.78 161.97 101.84 162.31 103.5 162.66 103.39 163 102.79 163.35 103.86 163.7 99.59 164.04 99.24 164.39 97.34 164.73 96.28 165.08 97.82 165.42 98.29 165.77 97.82 166.12 94.14 166.46 94.38 166.81 94.97 167.15 97.46 167.5 97.34 167.85 100.54 168.19 98.29 168.54 96.99 168.88 95.92 169.23 96.63 169.57 99.36 169.92 99.95 170.27 99.12 170.61 100.9 170.96 99.12 171.3 102.44 171.65 100.54 171.99 101.02 172.34 102.32 172.69 103.86 173.03 101.37 173.38 98.17 173.72 97.46 174.07 97.7 174.42 100.07 174.76 96.99 175.11 97.34 175.45 97.7 175.8 98.29 176.14 101.96 176.49 97.58 176.84 97.93 177.18 99.83 177.53 99.36 177.87 100.3 178.22 101.96 178.56 103.86 178.91 104.81 179.26 105.16 179.6 104.69 179.95 106.35 180.29 109.67 180.64 111.09 180.99 110.14 181.33 108.01 181.68 108.01 182.02 108.24 182.37 108.36 182.71 106.94 183.06 107.53 183.41 109.19 183.75 111.21 184.1 111.56 184.44 112.39 184.79 112.63 185.13 111.56 185.48 111.68 185.83 113.22 186.17 110.02 186.52 110.61 186.86 108.84 187.21 105.28 187.56 104.57 187.9 102.67 188.25 103.27 188.59 105.64 188.94 105.87 189.28 106.7 189.63 107.53 189.98 108.01 190.32 107.41 190.67 108.48 191.01 107.89 191.36 105.99 191.7 104.81 192.05 105.4 192.4 109.07 192.74 113.22 193.09 113.1 193.43 113.81 193.78 116.07 194.13 116.54 194.47 114.88 194.82 117.61 195.16 118.55 195.51 118.44 195.85 117.01 196.2 117.37"/>
      </g>
      <g stroke-width="0.3" fill="#000000" fill-opacity="0.000" class="geometry" stroke-dasharray="none" stroke="#F46D43" id="img-6c8321df-17">
        <path fill="none" d="M23.65,71.86 L 24 76.48 24.34 76.72 24.69 78.03 25.03 78.03 25.38 79.09 25.73 77.2 26.07 77.55 26.42 74.94 26.76 73.76 27.11 74.59 27.45 74.83 27.8 71.98 28.15 73.88 28.49 71.74 28.84 73.05 29.18 73.05 29.53 72.34 29.88 70.2 30.22 68.07 30.57 65.82 30.91 61.55 31.26 60.72 31.6 60.49 31.95 60.84 32.3 59.54 32.64 55.98 32.99 55.15 33.33 52.67 33.68 54.92 34.02 52.07 34.37 52.07 34.72 53.38 35.06 52.43 35.41 49.7 35.75 52.07 36.1 50.89 36.45 48.87 36.79 48.4 37.14 48.99 37.48 49.23 37.83 49.94 38.17 49.58 38.52 49.58 38.87 49.11 39.21 48.52 39.56 44.37 39.9 44.49 40.25 43.3 40.59 45.32 40.94 46.62 41.29 46.03 41.63 44.02 41.98 41.29 42.32 43.66 42.67 43.3 43.02 43.66 43.36 41.41 43.71 41.17 44.05 42.24 44.4 42.24 44.74 42.47 45.09 44.73 45.44 40.82 45.78 41.88 46.13 40.1 46.47 42.36 46.82 42.83 47.16 40.1 47.51 39.27 47.86 39.99 48.2 41.17 48.55 39.04 48.89 38.68 49.24 39.75 49.59 39.27 49.93 39.87 50.28 40.34 50.62 40.1 50.97 38.92 51.31 39.16 51.66 41.41 52.01 43.3 52.35 44.84 52.7 46.86 53.04 50.18 53.39 48.76 53.73 52.31 54.08 51.72 54.43 54.32 54.77 55.04 55.12 54.32 55.46 55.51 55.81 57.64 56.16 59.54 56.5 59.66 56.85 63.09 57.19 63.92 57.54 64.87 57.88 67.95 58.23 64.87 58.58 65.35 58.92 66.18 59.27 68.07 59.61 64.52 59.96 63.33 60.3 63.81 60.65 60.84 61 61.55 61.34 62.98 61.69 64.04 62.03 65.7 62.38 63.21 62.73 62.5 63.07 61.91 63.42 62.86 63.76 57.64 64.11 60.61 64.45 61.79 64.8 63.69 65.15 63.09 65.49 62.38 65.84 58.24 66.18 58.24 66.53 57.52 66.87 56.93 67.22 58.71 67.57 62.03 67.91 60.49 68.26 58.95 68.6 56.46 68.95 56.58 69.3 57.88 69.64 56.93 69.99 56.46 70.33 54.8 70.68 56.34 71.02 58.12 71.37 56.1 71.72 55.87 72.06 55.27 72.41 55.87 72.75 57.29 73.1 59.42 73.44 60.49 73.79 59.18 74.14 57.88 74.48 57.17 74.83 59.42 75.17 58.12 75.52 61.44 75.87 59.89 76.21 56.93 76.56 57.17 76.9 59.66 77.25 61.55 77.59 60.01 77.94 60.37 78.29 61.08 78.63 63.69 78.98 63.81 79.32 61.67 79.67 62.26 80.01 61.32 80.36 63.45 80.71 65.46 81.05 65.7 81.4 66.06 81.74 65.94 82.09 66.18 82.44 65.11 82.78 69.61 83.13 66.53 83.47 64.87 83.82 67.83 84.16 66.06 84.51 65.58 84.86 65.82 85.2 65.94 85.55 64.87 85.89 58.95 86.24 58.59 86.58 57.76 86.93 51.72 87.28 50.89 87.62 54.44 87.97 55.51 88.31 55.63 88.66 55.87 89.01 56.1 89.35 55.27 89.7 54.56 90.04 56.1 90.39 52.67 90.73 50.89 91.08 52.19 91.43 51.6 91.77 51.84 92.12 53.26 92.46 49.58 92.81 51.24 93.15 52.43 93.5 51.48 93.85 51.48 94.19 49.82 94.54 50.77 94.88 50.06 95.23 48.52 95.58 46.27 95.92 47.57 96.27 50.06 96.61 47.93 96.96 50.06 97.3 51.6 97.65 51.84 98 49.7 98.34 50.06 98.69 51.6 99.03 54.92 99.38 54.68 99.72 55.04 100.07 55.27 100.42 55.04 100.76 55.75 101.11 55.04 101.45 55.39 101.8 54.32 102.15 53.5 102.49 52.43 102.84 51.95 103.18 53.5 103.53 54.56 103.87 53.26 104.22 52.07 104.57 54.32 104.91 54.68 105.26 52.43 105.6 50.89 105.95 51.48 106.29 51.95 106.64 51.01 106.99 49.7 107.33 49.35 107.68 48.76 108.02 50.53 108.37 50.18 108.72 49.35 109.06 49.11 109.41 49.11 109.75 48.52 110.1 46.74 110.44 44.84 110.79 43.54 111.14 41.05 111.48 39.51 111.83 37.62 112.17 40.82 112.52 42.71 112.86 43.9 113.21 42.71 113.56 46.03 113.9 47.81 114.25 48.76 114.59 46.39 114.94 46.5 115.29 44.96 115.63 45.91 115.98 45.44 116.32 45.91 116.67 43.54 117.01 40.34 117.36 40.46 117.71 39.63 118.05 39.04 118.4 40.93 118.74 43.19 119.09 44.37 119.43 42.59 119.78 41.53 120.13 42.71 120.47 41.41 120.82 39.16 121.16 38.45 121.51 39.63 121.86 40.7 122.2 42.24 122.55 40.22 122.89 41.53 123.24 43.3 123.58 43.78 123.93 45.56 124.28 44.84 124.62 45.08 124.97 43.42 125.31 40.34 125.66 39.27 126 38.56 126.35 39.27 126.7 40.46 127.04 37.26 127.39 35.36 127.73 33.11 128.08 30.03 128.43 28.85 128.77 27.78 129.12 28.25 129.46 29.2 129.81 28.61 130.15 25.53 130.5 24.34 130.85 23.28 131.19 22.8 131.54 21.85 131.88 20.31 132.23 20.55 132.57 19.84 132.92 20.55 133.27 21.74 133.61 20.31 133.96 20.67 134.3 21.14 134.65 21.62 135 21.38 135.34 21.14 135.69 23.16 136.03 21.97 136.38 23.16 136.72 22.68 137.07 24.11 137.42 22.45 137.76 24.11 138.11 23.51 138.45 23.99 138.8 21.97 139.14 21.26 139.49 20.67 139.84 20.2 140.18 20.2 140.53 21.14 140.87 19.6 141.22 20.08 141.57 20.2 141.91 21.38 142.26 22.57 142.6 22.21 142.95 22.45 143.29 21.62 143.64 20.43 143.99 21.62 144.33 20.55 144.68 20.08 145.02 20.2 145.37 20.31 145.71 19.84 146.06 19.6 146.41 18.54 146.75 18.89 147.1 18.06 147.44 18.18 147.79 18.18 148.14 18.18 148.48 16.29 148.83 15.57 149.17 16.64 149.52 17.11 149.86 17.71 150.21 16.76 150.56 16.52 150.9 17.59 151.25 16.05 151.59 16.05 151.94 15.1 152.28 14.74 152.63 14.03 152.98 14.63 153.32 14.03 153.67 13.8 154.01 14.03 154.36 13.8 154.71 13.09 155.05 13.09 155.4 13.09 155.74 13.32 156.09 13.44 156.43 13.56 156.78 13.56 157.13 13.32 157.47 13.32 157.82 13.32 158.16 13.2 158.51 12.97 158.85 12.97 159.2 12.97 159.55 12.73 159.89 12.73 160.24 12.61"/>
      </g>
      <g stroke-width="0.3" fill="#000000" fill-opacity="0.000" class="geometry" stroke-dasharray="none" stroke="#D53E4F" id="img-6c8321df-18">
        <path fill="none" d="M23.65,71.86 L 24 70.68 24.34 66.41 24.69 66.65 25.03 65.94 25.38 63.92 25.73 64.04 26.07 63.92 26.42 63.21 26.76 65.82 27.11 67 27.45 66.89 27.8 66.89 28.15 69.73 28.49 70.56 28.84 71.51 29.18 72.34 29.53 72.69 29.88 74.59 30.22 74.47 30.57 78.74 30.91 76.6 31.26 76.6 31.6 76.37 31.95 78.74 32.3 78.86 32.64 81.11 32.99 79.68 33.33 76.37 33.68 77.2 34.02 82.77 34.37 81.34 34.72 80.04 35.06 76.6 35.41 76.48 35.75 77.67 36.1 74.83 36.45 78.86 36.79 79.33 37.14 78.86 37.48 77.31 37.83 74.47 38.17 71.39 38.52 71.39 38.87 72.34 39.21 73.64 39.56 74.94 39.9 72.22 40.25 74.35 40.59 71.39 40.94 68.9 41.29 69.85 41.63 72.22 41.98 71.98 42.32 74.71 42.67 76.72 43.02 74.71 43.36 73.52 43.71 75.3 44.05 75.66 44.4 75.66 44.74 78.86 45.09 76.96 45.44 76.6 45.78 73.4 46.13 76.6 46.47 76.6 46.82 76.84 47.16 76.84 47.51 74.11 47.86 74.71 48.2 73.05 48.55 70.44 48.89 75.18 49.24 74.59 49.59 74 49.93 73.4 50.28 75.54 50.62 75.77 50.97 73.4 51.31 72.1 51.66 70.92 52.01 73.52 52.35 75.18 52.7 73.52 53.04 77.08 53.39 77.2 53.73 75.18 54.08 78.26 54.43 81.7 54.77 81.94 55.12 84.78 55.46 84.66 55.81 82.17 56.16 81.46 56.5 79.92 56.85 79.21 57.19 80.87 57.54 81.23 57.88 82.29 58.23 80.87 58.58 80.28 58.92 79.09 59.27 79.21 59.61 81.23 59.96 79.21 60.3 79.92 60.65 77.91 61 74.71 61.34 72.57 61.69 72.57 62.03 69.26 62.38 65.94 62.73 64.75 63.07 62.5 63.42 61.55 63.76 61.32 64.11 62.86 64.45 64.28 64.8 63.69 65.15 66.77 65.49 69.61 65.84 70.56 66.18 72.34 66.53 74.59 66.87 75.54 67.22 75.06 67.57 77.55 67.91 75.66 68.26 74.23 68.6 77.91 68.95 78.86 69.3 82.65 69.64 85.37 69.99 85.49 70.33 85.14 70.68 82.88 71.02 83.6 71.37 81.46 71.72 80.99 72.06 79.92 72.41 77.31 72.75 76.01 73.1 79.33 73.44 83.24 73.79 84.66 74.14 87.27 74.48 88.1 74.83 87.15 75.17 86.44 75.52 85.14 75.87 86.08 76.21 84.9 76.56 84.66 76.9 85.85 77.25 83.48 77.59 85.25 77.94 83.6 78.29 84.78 78.63 83.95 78.98 84.9 79.32 83.83 79.67 84.9 80.01 83.95 80.36 85.85 80.71 85.25 81.05 85.37 81.4 85.85 81.74 83.12 82.09 81.46 82.44 80.63 82.78 84.31 83.13 83.12 83.47 82.53 83.82 81.23 84.16 83 84.51 84.31 84.86 87.39 85.2 84.78 85.55 83.95 85.89 83.48 86.24 80.75 86.58 79.21 86.93 79.21 87.28 80.04 87.62 79.21 87.97 79.8 88.31 80.16 88.66 79.33 89.01 79.09 89.35 77.08 89.7 76.25 90.04 73.29 90.39 76.01 90.73 74.35 91.08 74.59 91.43 76.25 91.77 75.54 92.12 75.66 92.46 80.04 92.81 78.38 93.15 77.55 93.5 76.84 93.85 76.6 94.19 75.3 94.54 73.05 94.88 74.71 95.23 76.37 95.58 77.55 95.92 76.72 96.27 76.84 96.61 72.34 96.96 69.73 97.3 70.92 97.65 66.77 98 67.95 98.34 68.66 98.69 69.26 99.03 71.39 99.38 70.44 99.72 69.97 100.07 71.63 100.42 72.1 100.76 74.47 101.11 75.18 101.45 74.94 101.8 75.89 102.15 76.96 102.49 76.01 102.84 74.59 103.18 72.69 103.53 73.64 103.87 71.27 104.22 68.07 104.57 67.95 104.91 67 105.26 64.16 105.6 62.62 105.95 62.98 106.29 60.61 106.64 60.96 106.99 61.55 107.33 60.01 107.68 58 108.02 58.24 108.37 59.78 108.72 60.84 109.06 60.13 109.41 59.78 109.75 60.01 110.1 62.5 110.44 62.74 110.79 66.29 111.14 65.94 111.48 66.41 111.83 65.35 112.17 64.63 112.52 64.87 112.86 63.45 113.21 64.52 113.56 65.82 113.9 67 114.25 67.12 114.59 68.07 114.94 67.12 115.29 69.26 115.63 70.8 115.98 68.43 116.32 66.06 116.67 63.69 117.01 64.52 117.36 60.25 117.71 62.38 118.05 64.04 118.4 62.26 118.74 65.58 119.09 66.18 119.43 66.65 119.78 66.18 120.13 68.19 120.47 67.95 120.82 66.06 121.16 64.16 121.51 66.41 121.86 65.58 122.2 67.12 122.55 66.53 122.89 67.6 123.24 68.07 123.58 69.37 123.93 70.8 124.28 68.07 124.62 68.78 124.97 68.66 125.31 66.77 125.66 66.41 126 67 126.35 67.36 126.7 69.73 127.04 68.43 127.39 66.77 127.73 67.48 128.08 68.66 128.43 67.83 128.77 64.52 129.12 68.31 129.46 67.48 129.81 66.89 130.15 64.52 130.5 65.58 130.85 64.16 131.19 63.69 131.54 66.53 131.88 68.07 132.23 67.24 132.57 67.6 132.92 67.24 133.27 65.35 133.61 62.86 133.96 63.45 134.3 63.09 134.65 63.09 135 56.46 135.34 57.64 135.69 57.05 136.03 59.18 136.38 56.81 136.72 53.38 137.07 53.38 137.42 54.32 137.76 54.09 138.11 52.07 138.45 52.78 138.8 55.87 139.14 55.04 139.49 56.58 139.84 54.8 140.18 54.8 140.53 56.58 140.87 56.1 141.22 56.69 141.57 55.98 141.91 55.39 142.26 54.44 142.6 53.5 142.95 51.6 143.29 51.36 143.64 50.65 143.99 50.3 144.33 51.13 144.68 49.58 145.02 51.95 145.37 53.73 145.71 56.1 146.06 56.46 146.41 54.68 146.75 56.34 147.1 57.29 147.44 58.35 147.79 58.83 148.14 60.96 148.48 56.93 148.83 55.27 149.17 53.61 149.52 54.32 149.86 56.46 150.21 57.52 150.56 57.52 150.9 57.17 151.25 57.64 151.59 56.69 151.94 55.98 152.28 56.93 152.63 58.95 152.98 60.61 153.32 59.78 153.67 61.32 154.01 60.25 154.36 60.25 154.71 61.32 155.05 60.84 155.4 61.67 155.74 62.5 156.09 62.86 156.43 61.2 156.78 62.15 157.13 63.92 157.47 64.87 157.82 67.72 158.16 69.37 158.51 68.66 158.85 69.85 159.2 68.31 159.55 67 159.89 65.82 160.24 67.72 160.58 66.06 160.93 67 161.28 65.94 161.62 64.99 161.97 63.69 162.31 62.74 162.66 61.55 163 60.13 163.35 60.84 163.7 58.35 164.04 57.05 164.39 55.63 164.73 57.41 165.08 54.32 165.42 52.67 165.77 53.73 166.12 56.58 166.46 55.15 166.81 54.44 167.15 54.32 167.5 53.61 167.85 54.44 168.19 52.43 168.54 51.01 168.88 51.01 169.23 50.65 169.57 52.31 169.92 53.02 170.27 52.43 170.61 51.84 170.96 53.02 171.3 51.01 171.65 53.26 171.99 53.73 172.34 52.31 172.69 50.3 173.03 49.7 173.38 50.3 173.72 53.14 174.07 53.14 174.42 52.67 174.76 51.36 175.11 51.36 175.45 51.24 175.8 47.69 176.14 47.81 176.49 46.15 176.84 45.67 177.18 46.62 177.53 48.4 177.87 45.2 178.22 43.07 178.56 42.71 178.91 40.58 179.26 41.29 179.6 44.25 179.95 46.03 180.29 46.15 180.64 45.91 180.99 45.08 181.33 45.08 181.68 44.73 182.02 42.83 182.37 40.1 182.71 41.29 183.06 42.71 183.41 42.95 183.75 44.73 184.1 42.59 184.44 42.95 184.79 45.2 185.13 46.39 185.48 44.61 185.83 42.59 186.17 41.76 186.52 42.59 186.86 42.59 187.21 40.1 187.56 41.64 187.9 40.46 188.25 40.22 188.59 45.44 188.94 44.25 189.28 43.07 189.63 41.17 189.98 38.45 190.32 37.97 190.67 38.33 191.01 37.62 191.36 41.53 191.7 41.64 192.05 42 192.4 41.17 192.74 39.51 193.09 39.16 193.43 37.5 193.78 37.26 194.13 38.92 194.47 40.58 194.82 44.37 195.16 46.03 195.51 47.21 195.85 46.74 196.2 45.79"/>
      </g>
      <g stroke-width="0.3" fill="#000000" fill-opacity="0.000" class="geometry" stroke-dasharray="none" stroke="#9E0142" id="img-6c8321df-19">
        <path fill="none" d="M23.65,71.86 L 24 69.37 24.34 67.95 24.69 68.9 25.03 67.6 25.38 64.52 25.73 63.57 26.07 64.63 26.42 64.87 26.76 65.7 27.11 66.29 27.45 66.65 27.8 65.23 28.15 63.69 28.49 63.33 28.84 62.15 29.18 62.03 29.53 65.46 29.88 60.61 30.22 61.2 30.57 64.28 30.91 63.92 31.26 63.33 31.6 63.69 31.95 66.29 32.3 66.18 32.64 65.35 32.99 68.43 33.33 68.55 33.68 70.68 34.02 67.72 34.37 66.53 34.72 67.6 35.06 66.41 35.41 66.65 35.75 64.75 36.1 65.35 36.45 65.82 36.79 64.4 37.14 59.89 37.48 60.13 37.83 61.44 38.17 62.86 38.52 60.49 38.87 59.3 39.21 60.13 39.56 56.69 39.9 54.8 40.25 59.3 40.59 57.29 40.94 55.87 41.29 53.97 41.63 55.63 41.98 55.15 42.32 52.19 42.67 51.95 43.02 50.53 43.36 51.13 43.71 47.57 44.05 46.5 44.4 43.9 44.74 40.58 45.09 42.12 45.44 41.76 45.78 44.49 46.13 42.59 46.47 41.17 46.82 36.08 47.16 38.56 47.51 39.51 47.86 42.95 48.2 44.61 48.55 42.71 48.89 39.39 49.24 39.27 49.59 36.9 49.93 37.5 50.28 38.92 50.62 38.45 50.97 35.96 51.31 34.65 51.66 35.01 52.01 35.25 52.35 35.84 52.7 37.85 53.04 36.9 53.39 38.92 53.73 34.89 54.08 33.59 54.43 31.45 54.77 31.93 55.12 32.05 55.46 34.89 55.81 36.79 56.16 36.31 56.5 35.72 56.85 33.47 57.19 33.23 57.54 33.11 57.88 30.86 58.23 29.68 58.58 29.44 58.92 28.25 59.27 30.15 59.61 31.93 59.96 35.48 60.3 36.08 60.65 34.53 61 37.02 61.34 35.36 61.69 35.13 62.03 35.6 62.38 36.43 62.73 38.21 63.07 39.51 63.42 40.22 63.76 38.8 64.11 40.22 64.45 39.63 64.8 40.46 65.15 38.68 65.49 40.22 65.84 40.34 66.18 43.66 66.53 39.51 66.87 42.12 67.22 41.05 67.57 40.7 67.91 41.29 68.26 44.37 68.6 44.13 68.95 42 69.3 41.64 69.64 43.07 69.99 42.83 70.33 43.78 70.68 44.96 71.02 46.62 71.37 46.86 71.72 47.1 72.06 44.73 72.41 46.03 72.75 47.69 73.1 49.23 73.44 51.01 73.79 47.57 74.14 48.28 74.48 48.04 74.83 49.11 75.17 49.82 75.52 53.38 75.87 50.65 76.21 48.64 76.56 51.13 76.9 51.84 77.25 51.48 77.59 50.53 77.94 51.72 78.29 54.44 78.63 56.22 78.98 58.24 79.32 56.46 79.67 55.04 80.01 55.04 80.36 54.09 80.71 53.02 81.05 54.8 81.4 54.8 81.74 51.24 82.09 50.06 82.44 49.35 82.78 51.13 83.13 50.89 83.47 49.23 83.82 48.64 84.16 46.62 84.51 47.93 84.86 49.94 85.2 45.67 85.55 45.67 85.89 44.37 86.24 45.2 86.58 46.27 86.93 46.98 87.28 44.96 87.62 45.2 87.97 45.32 88.31 46.62 88.66 46.86 89.01 45.2 89.35 44.49 89.7 45.44 90.04 45.79 90.39 46.74 90.73 46.39 91.08 49.82 91.43 48.4 91.77 46.03 92.12 47.33 92.46 48.28 92.81 48.52 93.15 50.65 93.5 53.26 93.85 50.77 94.19 53.14 94.54 50.06 94.88 48.87 95.23 51.01 95.58 48.28 95.92 47.21 96.27 48.4 96.61 50.41 96.96 51.48 97.3 52.67 97.65 54.68 98 54.44 98.34 53.61 98.69 54.44 99.03 53.61 99.38 54.68 99.72 55.63 100.07 57.29 100.42 58.35 100.76 56.34 101.11 56.81 101.45 55.27 101.8 56.69 102.15 58 102.49 56.93 102.84 58.59 103.18 54.21 103.53 55.39 103.87 54.56 104.22 54.09 104.57 54.92 104.91 53.85 105.26 49.94 105.6 47.93 105.95 46.15 106.29 49.47 106.64 49.7 106.99 47.93 107.33 45.79 107.68 48.76 108.02 50.18 108.37 50.06 108.72 51.48 109.06 50.06 109.41 49.94 109.75 49.47 110.1 49.47 110.44 49.82 110.79 47.93 111.14 48.52 111.48 50.41 111.83 50.89 112.17 52.55 112.52 54.32 112.86 55.63 113.21 56.22 113.56 58.24 113.9 57.52 114.25 55.04 114.59 54.8 114.94 58.95 115.29 60.25 115.63 58.47 115.98 56.81 116.32 54.21 116.67 55.39 117.01 55.51 117.36 57.41 117.71 55.63 118.05 56.93 118.4 56.81 118.74 54.56 119.09 53.97 119.43 53.85 119.78 56.22 120.13 57.29 120.47 55.63 120.82 56.58 121.16 53.61 121.51 51.95 121.86 48.52 122.2 50.3 122.55 50.89 122.89 51.84 123.24 54.09 123.58 54.21 123.93 52.55 124.28 53.85 124.62 54.09 124.97 52.9 125.31 55.04 125.66 56.34 126 57.41 126.35 58 126.7 56.22 127.04 57.17 127.39 53.85 127.73 53.02 128.08 49.94 128.43 48.87 128.77 49.23 129.12 48.76 129.46 45.56 129.81 44.73 130.15 44.02 130.5 43.07 130.85 39.99 131.19 37.73 131.54 38.68 131.88 39.87 132.23 40.34 132.57 39.63 132.92 40.93 133.27 40.7 133.61 42.12 133.96 40.82 134.3 40.46 134.65 40.34 135 41.41 135.34 41.64 135.69 41.17 136.03 38.92 136.38 38.33 136.72 38.09 137.07 36.9 137.42 36.08 137.76 38.56 138.11 40.7 138.45 40.93 138.8 45.32 139.14 47.57 139.49 43.42 139.84 45.91 140.18 43.78 140.53 42.24 140.87 43.54 141.22 42.95 141.57 43.19 141.91 42.95 142.26 42.59 142.6 42.71 142.95 44.49 143.29 45.32 143.64 44.96 143.99 42.59 144.33 40.34 144.68 42.24 145.02 42.71 145.37 43.66 145.71 45.44 146.06 43.54 146.41 42.36 146.75 42.71 147.1 45.91 147.44 45.08 147.79 46.15 148.14 43.66 148.48 43.19 148.83 42.71 149.17 45.67 149.52 45.91 149.86 46.27 150.21 45.67 150.56 46.5 150.9 48.64 151.25 51.13 151.59 51.95 151.94 51.01 152.28 52.55 152.63 57.88 152.98 55.15 153.32 51.84 153.67 54.09 154.01 52.67 154.36 51.72 154.71 50.65 155.05 52.07 155.4 52.07 155.74 51.01 156.09 49.47 156.43 49.47 156.78 48.16 157.13 48.16 157.47 45.67 157.82 43.9 158.16 47.81 158.51 46.86 158.85 47.21 159.2 47.93 159.55 48.28 159.89 48.52 160.24 49.47 160.58 48.52 160.93 47.57 161.28 47.33 161.62 49.47 161.97 51.84 162.31 49.94 162.66 48.28 163 47.21 163.35 49.23 163.7 47.57 164.04 45.2 164.39 45.2 164.73 43.19 165.08 42.71 165.42 41.41 165.77 38.92 166.12 40.34 166.46 40.7 166.81 39.99 167.15 39.75 167.5 37.73 167.85 35.96 168.19 36.55 168.54 36.79 168.88 36.67 169.23 36.19 169.57 35.6 169.92 37.26 170.27 37.5 170.61 37.14 170.96 37.02 171.3 35.72 171.65 34.77 171.99 35.13 172.34 35.84 172.69 36.31 173.03 39.51 173.38 41.64 173.72 38.92 174.07 40.1 174.42 40.34 174.76 42.36 175.11 44.02 175.45 42.36 175.8 43.19 176.14 42.95 176.49 41.53 176.84 40.82 177.18 44.25 177.53 42.71 177.87 43.42 178.22 42.59 178.56 43.19 178.91 42 179.26 43.54 179.6 44.49 179.95 47.57 180.29 48.87 180.64 46.5 180.99 45.67 181.33 47.57 181.68 49.23 182.02 49.23 182.37 48.99 182.71 50.65 183.06 52.78 183.41 51.01 183.75 52.9 184.1 56.34 184.44 54.68 184.79 56.1 185.13 55.51 185.48 59.89 185.83 60.01 186.17 61.2 186.52 60.25 186.86 60.84 187.21 59.89 187.56 60.84 187.9 62.38 188.25 59.3 188.59 63.21 188.94 61.08 189.28 62.5 189.63 58.95 189.98 59.42 190.32 61.2 190.67 63.33 191.01 64.63 191.36 65.46 191.7 65.11 192.05 66.06 192.4 67.36 192.74 67.95 193.09 64.63 193.43 62.74 193.78 61.2 194.13 61.67 194.47 60.49 194.82 62.5 195.16 63.69 195.51 62.86 195.85 59.78 196.2 60.01"/>
      </g>
    </g>
  </g>
</g>
  <g class="guide ylabels" font-size="2.82" font-family="'PT Sans Caption','Helvetica Neue','Helvetica',sans-serif" fill="#000000" id="img-6c8321df-20">
    <text x="20.3" y="131.11" text-anchor="end" dy="0.35em">0</text>
    <text x="20.3" y="71.86" text-anchor="end" dy="0.35em">500</text>
    <text x="20.3" y="12.61" text-anchor="end" dy="0.35em">1000</text>
  </g>
  <g font-size="3.88" font-family="'PT Sans','Helvetica Neue','Helvetica',sans-serif" fill="#000000" stroke="#000000" stroke-opacity="0.000" id="img-6c8321df-21">
    <text x="8.81" y="69.86" text-anchor="middle" dy="0.35em" transform="rotate(-90, 8.81, 71.86)">population number</text>
  </g>
  <g font-size="3.88" font-family="'PT Sans','Helvetica Neue','Helvetica',sans-serif" fill="#000000" stroke="#000000" stroke-opacity="0.000" id="img-6c8321df-22">
    <text x="109.75" y="5" text-anchor="middle" dy="0.6em">genetic drift</text>
  </g>
</g>
<defs>
  <clipPath id="img-6c8321df-4">
  <path d="M21.31,10.61 L 198.2 10.61 198.2 133.11 21.31 133.11" />
</clipPath>
</defs>
</svg>
