<?xml version="1.0" encoding="UTF-8"?>
<svg xmlns="http://www.w3.org/2000/svg"
     xmlns:xlink="http://www.w3.org/1999/xlink"
     xmlns:gadfly="http://www.gadflyjl.org/ns"
     version="1.2"
     width="203.2mm" height="152.4mm" viewBox="0 0 203.2 152.4"
     stroke="none"
     fill="#000000"
     stroke-width="0.3"
     font-size="3.88"
>
<g class="plotroot xscalable yscalable" id="img-b5eaf3ac-1">
  <g font-size="3.88" font-family="'PT Sans','Helvetica Neue','Helvetica',sans-serif" fill="#000000" stroke="#000000" stroke-opacity="0.000" id="img-b5eaf3ac-2">
    <text x="108.92" y="140.79" text-anchor="middle" dy="0.6em">generation number</text>
  </g>
  <g class="guide xlabels" font-size="2.82" font-family="'PT Sans Caption','Helvetica Neue','Helvetica',sans-serif" fill="#000000" id="img-b5eaf3ac-3">
    <text x="21.63" y="134.11" text-anchor="middle" dy="0.6em">0</text>
    <text x="56.55" y="134.11" text-anchor="middle" dy="0.6em">100</text>
    <text x="91.46" y="134.11" text-anchor="middle" dy="0.6em">200</text>
    <text x="126.37" y="134.11" text-anchor="middle" dy="0.6em">300</text>
    <text x="161.29" y="134.11" text-anchor="middle" dy="0.6em">400</text>
    <text x="196.2" y="134.11" text-anchor="middle" dy="0.6em">500</text>
  </g>
<g clip-path="url(#img-b5eaf3ac-4)">
  <g id="img-b5eaf3ac-5">
    <g pointer-events="visible" opacity="1" fill="#FFFFFF" stroke="#000000" stroke-opacity="0.000" class="guide background" id="img-b5eaf3ac-6">
      <rect x="19.63" y="10.61" width="178.57" height="122.5"/>
    </g>
    <g class="guide ygridlines xfixed" stroke-dasharray="0.5,0.5" stroke-width="0.2" stroke="#808080" id="img-b5eaf3ac-7">
      <path fill="none" d="M19.63,131.11 L 198.2 131.11"/>
      <path fill="none" d="M19.63,111.36 L 198.2 111.36"/>
      <path fill="none" d="M19.63,91.61 L 198.2 91.61"/>
      <path fill="none" d="M19.63,71.86 L 198.2 71.86"/>
      <path fill="none" d="M19.63,52.11 L 198.2 52.11"/>
      <path fill="none" d="M19.63,32.36 L 198.2 32.36"/>
      <path fill="none" d="M19.63,12.61 L 198.2 12.61"/>
    </g>
    <g class="guide xgridlines yfixed" stroke-dasharray="0.5,0.5" stroke-width="0.2" stroke="#808080" id="img-b5eaf3ac-8">
      <path fill="none" d="M21.63,10.61 L 21.63 133.11"/>
      <path fill="none" d="M56.55,10.61 L 56.55 133.11"/>
      <path fill="none" d="M91.46,10.61 L 91.46 133.11"/>
      <path fill="none" d="M126.37,10.61 L 126.37 133.11"/>
      <path fill="none" d="M161.29,10.61 L 161.29 133.11"/>
      <path fill="none" d="M196.2,10.61 L 196.2 133.11"/>
    </g>
    <g class="plotpanel" id="img-b5eaf3ac-9">
      <g stroke-width="0.3" fill="#000000" fill-opacity="0.000" class="geometry" stroke-dasharray="none" stroke="#3288BD" id="img-b5eaf3ac-10">
        <path fill="none" d="M21.98,71.86 L 22.33 72.85 22.68 77.99 23.03 78.18 23.38 77.99 23.73 72.65 24.08 69.3 24.42 68.11 24.77 66.73 25.12 66.73 25.47 64.95 25.82 64.95 26.17 68.51 26.52 63.96 26.87 62.78 27.22 63.17 27.57 65.54 27.92 62.19 28.27 61.59 28.61 56.26 28.96 56.46 29.31 59.42 29.66 58.83 30.01 56.26 30.36 54.29 30.71 50.14 31.06 49.94 31.41 46.98 31.76 42.63 32.11 45 32.45 43.23 32.8 42.44 33.15 39.27 33.5 37.89 33.85 34.73 34.2 31.97 34.55 32.95 34.9 29 35.25 29.6 35.6 29.79 35.95 30.19 36.3 30.98 36.64 29.79 36.99 33.35 37.34 32.36 37.69 35.92 38.04 35.92 38.39 35.92 38.74 37.3 39.09 38.09 39.44 40.66 39.79 40.85 40.14 40.66 40.49 40.26 40.83 42.83 41.18 42.63 41.53 45.4 41.88 47.57 42.23 48.76 42.58 51.32 42.93 47.77 43.28 47.18 43.63 46.39 43.98 49.15 44.33 50.73 44.67 54.48 45.02 53.5 45.37 56.06 45.72 55.67 46.07 57.05 46.42 59.03 46.77 59.03 47.12 56.85 47.47 55.87 47.82 57.25 48.17 55.08 48.52 54.48 48.86 52.11 49.21 50.53 49.56 50.53 49.91 53.3 50.26 53.69 50.61 52.71 50.96 56.85 51.31 57.25 51.66 56.46 52.01 60.21 52.36 57.25 52.7 56.46 53.05 57.25 53.4 57.64 53.75 59.03 54.1 61.99 54.45 61.99 54.8 65.15 55.15 65.94 55.5 62.58 55.85 61.59 56.2 61 56.55 57.45 56.89 58.24 57.24 55.47 57.59 55.67 57.94 52.11 58.29 47.97 58.64 48.16 58.99 46.39 59.34 48.56 59.69 47.37 60.04 49.15 60.39 44.81 60.73 44.61 61.08 43.42 61.43 45.4 61.78 47.37 62.13 51.92 62.48 51.13 62.83 54.68 63.18 54.48 63.53 50.73 63.88 50.53 64.23 51.32 64.58 54.88 64.92 53.69 65.27 52.11 65.62 54.68 65.97 56.66 66.32 59.22 66.67 57.05 67.02 56.85 67.37 54.48 67.72 55.87 68.07 57.05 68.42 55.67 68.77 56.06 69.11 54.68 69.46 58.63 69.81 58.43 70.16 58.83 70.51 56.06 70.86 56.06 71.21 56.06 71.56 56.66 71.91 59.62 72.26 58.63 72.61 60.01 72.95 57.84 73.3 58.63 73.65 58.04 74 59.62 74.35 57.84 74.7 59.22 75.05 64.36 75.4 61.99 75.75 59.03 76.1 58.63 76.45 61 76.8 63.17 77.14 66.33 77.49 66.73 77.84 64.95 78.19 66.73 78.54 67.72 78.89 67.91 79.24 68.51 79.59 71.07 79.94 72.46 80.29 76.21 80.64 69.69 80.98 69.3 81.33 73.64 81.68 75.22 82.03 75.62 82.38 74.63 82.73 71.27 83.08 70.68 83.43 70.88 83.78 74.04 84.13 72.26 84.48 70.48 84.83 66.33 85.17 68.51 85.52 72.06 85.87 70.48 86.22 69.69 86.57 65.35 86.92 64.75 87.27 63.96 87.62 63.17 87.97 66.33 88.32 66.14 88.67 67.52 89.02 65.15 89.36 60.41 89.71 59.42 90.06 60.41 90.41 61.4 90.76 64.95 91.11 59.22 91.46 59.62 91.81 61 92.16 60.8 92.51 63.37 92.86 65.94 93.2 67.12 93.55 66.73 93.9 68.9 94.25 71.27 94.6 71.47 94.95 72.06 95.3 67.32 95.65 69.69 96 65.94 96.35 66.93 96.7 64.16 97.05 62.78 97.39 62.19 97.74 62.78 98.09 62.38 98.44 62.38 98.79 61.4 99.14 61.4 99.49 60.21 99.84 62.98 100.19 64.95 100.54 65.54 100.89 63.37 101.23 63.96 101.58 61.79 101.93 57.45 102.28 54.09 102.63 50.73 102.98 49.94 103.33 48.16 103.68 47.97 104.03 47.18 104.38 46.19 104.73 49.55 105.08 46.39 105.42 45.2 105.77 49.74 106.12 47.77 106.47 47.97 106.82 49.55 107.17 51.32 107.52 55.27 107.87 52.31 108.22 53.69 108.57 55.47 108.92 56.26 109.26 51.52 109.61 50.34 109.96 47.77 110.31 46.39 110.66 46.78 111.01 42.04 111.36 45.4 111.71 49.35 112.06 52.11 112.41 52.11 112.76 54.48 113.11 54.68 113.45 55.08 113.8 54.88 114.15 54.29 114.5 54.09 114.85 58.43 115.2 54.88 115.55 53.5 115.9 49.74 116.25 48.95 116.6 46.98 116.95 44.41 117.3 42.83 117.64 40.26 117.99 38.88 118.34 38.68 118.69 35.32 119.04 32.36 119.39 35.32 119.74 36.51 120.09 34.93 120.44 34.73 120.79 33.35 121.14 32.36 121.48 31.57 121.83 26.63 122.18 29.4 122.53 28.02 122.88 31.18 123.23 28.21 123.58 28.21 123.93 28.81 124.28 30.98 124.63 30.98 124.98 33.74 125.33 31.57 125.67 33.55 126.02 31.57 126.37 33.55 126.72 35.32 127.07 38.88 127.42 34.73 127.77 39.27 128.12 40.66 128.47 39.67 128.82 40.66 129.17 42.63 129.51 38.48 129.86 37.69 130.21 38.88 130.56 40.46 130.91 36.9 131.26 33.15 131.61 33.74 131.96 30.39 132.31 29.99 132.66 29.99 133.01 32.36 133.36 34.14 133.7 35.52 134.05 33.15 134.4 31.37 134.75 30.58 135.1 32.95 135.45 33.74 135.8 33.74 136.15 34.73 136.5 33.74 136.85 33.94 137.2 32.76 137.55 33.35 137.89 34.93 138.24 32.95 138.59 33.74 138.94 33.55 139.29 33.55 139.64 31.57 139.99 32.76 140.34 34.93 140.69 29.6 141.04 27.82 141.39 28.21 141.73 26.63 142.08 26.24 142.43 27.03 142.78 25.45 143.13 27.23 143.48 29.4 143.83 29 144.18 28.41 144.53 29 144.88 29.2 145.23 28.02 145.58 26.04 145.92 26.04 146.27 25.65 146.62 27.03 146.97 27.42 147.32 29 147.67 30.19 148.02 31.77 148.37 29.99 148.72 31.77 149.07 32.76 149.42 35.32 149.76 32.95 150.11 33.35 150.46 32.76 150.81 31.18 151.16 34.93 151.51 36.51 151.86 37.5 152.21 36.9 152.56 34.93 152.91 29.79 153.26 28.21 153.61 27.23 153.95 28.81 154.3 27.42 154.65 29.99 155 26.44 155.35 27.82 155.7 26.83 156.05 25.84 156.4 26.83 156.75 28.81 157.1 29.6 157.45 30.98 157.79 30.58 158.14 29.2 158.49 30.19 158.84 29.4 159.19 31.18 159.54 30.98 159.89 30.19 160.24 27.62 160.59 27.23 160.94 26.63 161.29 25.65 161.64 23.87 161.98 24.46 162.33 25.65 162.68 24.66 163.03 25.05 163.38 23.67 163.73 23.28 164.08 23.08 164.43 22.68 164.78 20.71 165.13 21.1 165.48 22.09 165.83 18.54 166.17 18.93 166.52 17.94 166.87 17.35 167.22 18.73 167.57 19.72 167.92 18.93 168.27 18.14 168.62 18.14 168.97 17.35 169.32 18.73 169.67 18.54 170.01 19.13 170.36 19.33 170.71 18.14 171.06 19.13 171.41 17.75 171.76 17.55 172.11 17.35 172.46 16.96 172.81 16.36 173.16 17.35 173.51 16.76 173.86 15.97 174.2 15.38 174.55 14.98 174.9 15.97 175.25 16.17 175.6 15.18 175.95 14.39 176.3 14.59 176.65 13.8 177 13.99 177.35 13.01 177.7 12.81 178.04 12.81 178.39 12.81 178.74 12.61"/>
      </g>
      <g stroke-width="0.3" fill="#000000" fill-opacity="0.000" class="geometry" stroke-dasharray="none" stroke="#66C2A5" id="img-b5eaf3ac-11">
        <path fill="none" d="M21.98,71.86 L 22.33 77.39 22.68 82.92 23.03 82.53 23.38 84.31 23.73 82.73 24.08 84.5 24.42 84.11 24.77 83.71 25.12 84.9 25.47 83.52 25.82 82.73 26.17 81.94 26.52 81.34 26.87 80.16 27.22 77.59 27.57 71.67 27.92 74.83 28.27 73.05 28.61 73.44 28.96 75.02 29.31 78.58 29.66 79.57 30.01 78.58 30.36 79.76 30.71 79.96 31.06 76.01 31.41 74.63 31.76 73.84 32.11 71.67 32.45 73.25 32.8 70.88 33.15 68.7 33.5 70.68 33.85 70.68 34.2 69.49 34.55 71.27 34.9 70.48 35.25 67.32 35.6 68.51 35.95 66.53 36.3 68.51 36.64 68.9 36.99 68.11 37.34 68.11 37.69 70.88 38.04 73.64 38.39 73.44 38.74 72.26 39.09 72.26 39.44 68.9 39.79 64.75 40.14 65.94 40.49 65.74 40.83 69.49 41.18 64.75 41.53 64.75 41.88 65.94 42.23 65.15 42.58 62.38 42.93 62.78 43.28 61.4 43.63 59.62 43.98 58.04 44.33 61.4 44.67 67.12 45.02 63.77 45.37 63.17 45.72 66.14 46.07 67.32 46.42 66.93 46.77 69.49 47.12 72.06 47.47 69.89 47.82 72.06 48.17 74.23 48.52 76.6 48.86 76.6 49.21 73.64 49.56 72.46 49.91 71.67 50.26 70.68 50.61 71.67 50.96 72.65 51.31 71.47 51.66 69.69 52.01 69.69 52.36 70.88 52.7 71.67 53.05 70.68 53.4 69.1 53.75 68.11 54.1 67.52 54.45 65.35 54.8 67.12 55.15 66.14 55.5 67.52 55.85 65.54 56.2 65.54 56.55 62.78 56.89 66.14 57.24 62.38 57.59 59.62 57.94 61.2 58.29 54.68 58.64 57.05 58.99 58.43 59.34 60.61 59.69 56.06 60.04 57.64 60.39 62.38 60.73 62.38 61.08 66.73 61.43 68.7 61.78 67.32 62.13 70.68 62.48 69.3 62.83 69.49 63.18 66.53 63.53 63.37 63.88 64.95 64.23 62.19 64.58 62.98 64.92 66.73 65.27 65.54 65.62 63.17 65.97 67.91 66.32 69.89 66.67 68.7 67.02 69.1 67.37 67.91 67.72 72.26 68.07 70.48 68.42 69.1 68.77 67.91 69.11 64.95 69.46 65.35 69.81 61.59 70.16 61.2 70.51 63.57 70.86 63.37 71.21 63.37 71.56 60.61 71.91 58.83 72.26 59.03 72.61 62.19 72.95 63.17 73.3 59.82 73.65 59.62 74 61.99 74.35 60.8 74.7 63.17 75.05 61 75.4 63.96 75.75 63.57 76.1 63.17 76.45 62.19 76.8 63.77 77.14 64.56 77.49 64.56 77.84 66.53 78.19 67.12 78.54 70.48 78.89 70.88 79.24 68.9 79.59 68.7 79.94 71.86 80.29 69.89 80.64 73.44 80.98 75.02 81.33 75.02 81.68 75.81 82.03 75.62 82.38 76.41 82.73 75.02 83.08 76.01 83.43 78.58 83.78 80.95 84.13 81.15 84.48 83.52 84.83 81.54 85.17 83.12 85.52 84.31 85.87 85.49 86.22 88.85 86.57 86.68 86.92 84.7 87.27 85.49 87.62 85.69 87.97 85.89 88.32 83.52 88.67 86.28 89.02 84.5 89.36 80.16 89.71 81.15 90.06 81.34 90.41 80.16 90.76 82.13 91.11 86.28 91.46 85.69 91.81 89.84 92.16 91.02 92.51 93.39 92.86 93.19 93.2 91.42 93.55 90.03 93.9 89.64 94.25 87.66 94.6 87.07 94.95 86.28 95.3 87.27 95.65 90.63 96 91.22 96.35 91.02 96.7 91.42 97.05 88.45 97.39 87.27 97.74 86.87 98.09 86.28 98.44 82.53 98.79 79.76 99.14 78.78 99.49 78.38 99.84 79.37 100.19 79.57 100.54 80.16 100.89 83.71 101.23 85.89 101.58 88.26 101.93 87.66 102.28 91.81 102.63 89.84 102.98 83.91 103.33 83.12 103.68 80.75 104.03 80.16 104.38 78.78 104.73 80.95 105.08 79.37 105.42 80.95 105.77 82.13 106.12 82.13 106.47 80.16 106.82 80.95 107.17 84.31 107.52 85.29 107.87 82.73 108.22 78.97 108.57 77.2 108.92 77.99 109.26 75.22 109.61 76.21 109.96 74.63 110.31 75.42 110.66 77.2 111.01 76.8 111.36 79.17 111.71 81.15 112.06 77.99 112.41 78.38 112.76 77.79 113.11 77.59 113.45 78.38 113.8 76.8 114.15 77.79 114.5 76.6 114.85 74.04 115.2 78.58 115.55 81.54 115.9 83.91 116.25 82.53 116.6 80.16 116.95 76.41 117.3 77.39 117.64 81.15 117.99 82.53 118.34 83.32 118.69 81.54 119.04 79.37 119.39 82.13 119.74 83.32 120.09 85.1 120.44 87.66 120.79 87.07 121.14 90.63 121.48 94.38 121.83 93.98 122.18 95.76 122.53 94.77 122.88 93.39 123.23 92.01 123.58 91.42 123.93 93.79 124.28 90.23 124.63 89.64 124.98 89.64 125.33 88.06 125.67 86.68 126.02 83.32 126.37 83.71 126.72 85.69 127.07 84.11 127.42 86.08 127.77 84.5 128.12 79.37 128.47 79.37 128.82 77 129.17 80.75 129.51 83.71 129.86 86.68 130.21 88.85 130.56 91.42 130.91 89.05 131.26 90.43 131.61 89.44 131.96 89.64 132.31 86.48 132.66 87.47 133.01 90.03 133.36 92.4 133.7 94.77 134.05 94.77 134.4 100.9 134.75 102.48 135.1 99.91 135.45 100.11 135.8 98.92 136.15 94.38 136.5 95.37 136.85 95.76 137.2 96.16 137.55 97.34 137.89 98.13 138.24 96.35 138.59 98.92 138.94 96.75 139.29 98.53 139.64 97.14 139.99 93.98 140.34 95.17 140.69 97.14 141.04 95.17 141.39 96.16 141.73 98.92 142.08 99.32 142.43 98.92 142.78 96.16 143.13 97.93 143.48 101.49 143.83 101.88 144.18 102.87 144.53 104.06 144.88 102.67 145.23 100.11 145.58 103.46 145.92 102.48 146.27 103.07 146.62 99.91 146.97 98.33 147.32 95.76 147.67 96.35 148.02 94.38 148.37 94.38 148.72 94.97 149.07 93.19 149.42 92.6 149.76 92.4 150.11 92.6 150.46 92.4 150.81 93.79 151.16 91.61 151.51 95.56 151.86 91.42 152.21 86.68 152.56 86.28 152.91 88.85 153.26 90.23 153.61 92.6 153.95 95.17 154.3 92.01 154.65 88.85 155 89.05 155.35 89.24 155.7 88.65 156.05 85.69 156.4 89.05 156.75 85.49 157.1 84.9 157.45 84.11 157.79 85.69 158.14 86.87 158.49 80.16 158.84 81.15 159.19 77.39 159.54 78.97 159.89 77.39 160.24 78.38 160.59 83.12 160.94 83.32 161.29 79.96 161.64 81.74 161.98 84.5 162.33 81.74 162.68 80.36 163.03 79.57 163.38 80.36 163.73 78.58 164.08 80.75 164.43 84.9 164.78 85.29 165.13 85.29 165.48 89.05 165.83 87.27 166.17 90.82 166.52 91.81 166.87 90.23 167.22 95.17 167.57 98.72 167.92 98.33 168.27 98.92 168.62 102.48 168.97 101.09 169.32 103.27 169.67 99.32 170.01 97.93 170.36 96.35 170.71 93.98 171.06 94.77 171.41 93.19 171.76 92.4 172.11 95.17 172.46 94.97 172.81 95.96 173.16 98.53 173.51 97.34 173.86 96.55 174.2 97.93 174.55 100.5 174.9 100.7 175.25 103.66 175.6 105.04 175.95 105.04 176.3 102.67 176.65 105.83 177 107.22 177.35 108.6 177.7 108.2 178.04 111.36 178.39 111.56 178.74 109.78 179.09 109.19 179.44 108.6 179.79 108.99 180.14 111.56 180.49 110.18 180.84 111.17 181.19 110.77 181.54 110.18 181.89 111.36 182.23 109.19 182.58 106.03 182.93 107.22 183.28 108.6 183.63 109.19 183.98 105.64 184.33 105.44 184.68 103.66 185.03 102.08 185.38 101.69 185.73 103.46 186.08 106.23 186.42 107.22 186.77 106.43 187.12 106.82 187.47 109.19 187.82 107.22 188.17 106.62 188.52 108.6 188.87 107.61 189.22 108.99 189.57 109.98 189.92 111.76 190.26 113.14 190.61 113.93 190.96 112.55 191.31 113.54 191.66 113.14 192.01 111.96 192.36 110.38 192.71 110.38 193.06 109.98 193.41 108.8 193.76 112.75 194.11 113.14 194.45 113.54 194.8 112.15 195.15 112.55 195.5 113.54 195.85 114.33 196.2 115.71"/>
      </g>
      <g stroke-width="0.3" fill="#000000" fill-opacity="0.000" class="geometry" stroke-dasharray="none" stroke="#ABDDA4" id="img-b5eaf3ac-12">
        <path fill="none" d="M21.98,71.86 L 22.33 71.47 22.68 69.69 23.03 65.74 23.38 67.32 23.73 70.48 24.08 67.12 24.42 70.28 24.77 69.49 25.12 70.68 25.47 70.09 25.82 72.46 26.17 75.42 26.52 77.39 26.87 78.97 27.22 83.12 27.57 81.94 27.92 79.76 28.27 80.36 28.61 81.54 28.96 82.92 29.31 83.12 29.66 82.53 30.01 86.48 30.36 83.52 30.71 80.95 31.06 79.76 31.41 75.22 31.76 74.83 32.11 77.79 32.45 78.78 32.8 75.22 33.15 80.75 33.5 81.15 33.85 79.37 34.2 76.41 34.55 76.41 34.9 73.64 35.25 76.8 35.6 75.62 35.95 73.84 36.3 77.59 36.64 84.11 36.99 88.85 37.34 90.82 37.69 88.06 38.04 89.44 38.39 87.07 38.74 86.87 39.09 85.29 39.44 89.05 39.79 91.61 40.14 93.39 40.49 95.37 40.83 92.4 41.18 92.8 41.53 90.03 41.88 91.61 42.23 90.23 42.58 90.82 42.93 93 43.28 94.77 43.63 93 43.98 91.42 44.33 93.98 44.67 91.61 45.02 91.02 45.37 86.87 45.72 85.89 46.07 81.94 46.42 83.32 46.77 81.54 47.12 84.31 47.47 84.5 47.82 85.1 48.17 84.7 48.52 81.94 48.86 85.29 49.21 85.29 49.56 85.49 49.91 84.5 50.26 81.74 50.61 80.36 50.96 83.32 51.31 83.71 51.66 84.31 52.01 84.9 52.36 86.87 52.7 86.28 53.05 88.45 53.4 87.07 53.75 90.03 54.1 87.86 54.45 90.23 54.8 89.44 55.15 86.68 55.5 87.07 55.85 89.24 56.2 87.27 56.55 86.08 56.89 84.7 57.24 86.08 57.59 85.49 57.94 85.89 58.29 90.03 58.64 87.86 58.99 86.68 59.34 87.47 59.69 92.21 60.04 93.98 60.39 94.77 60.73 93.98 61.08 96.95 61.43 97.93 61.78 98.53 62.13 99.12 62.48 98.33 62.83 96.75 63.18 98.72 63.53 100.11 63.88 100.9 64.23 99.12 64.58 100.11 64.92 101.88 65.27 103.27 65.62 105.04 65.97 107.41 66.32 108.01 66.67 108.6 67.02 108.01 67.37 110.18 67.72 110.77 68.07 109.78 68.42 104.85 68.77 108.4 69.11 110.38 69.46 110.97 69.81 107.41 70.16 105.04 70.51 104.65 70.86 107.02 71.21 108.99 71.56 105.04 71.91 101.88 72.26 103.27 72.61 103.07 72.95 100.5 73.3 98.53 73.65 95.56 74 96.75 74.35 97.14 74.7 96.35 75.05 94.58 75.4 98.53 75.75 96.55 76.1 94.97 76.45 92.01 76.8 87.66 77.14 85.89 77.49 87.47 77.84 87.86 78.19 87.86 78.54 83.91 78.89 81.94 79.24 80.75 79.59 83.12 79.94 79.76 80.29 79.37 80.64 80.75 80.98 82.53 81.33 82.53 81.68 79.57 82.03 80.75 82.38 81.74 82.73 81.74 83.08 78.78 83.43 83.71 83.78 85.1 84.13 81.74 84.48 82.73 84.83 80.16 85.17 84.5 85.52 82.33 85.87 82.92 86.22 78.97 86.57 78.58 86.92 80.75 87.27 79.76 87.62 79.96 87.97 80.55 88.32 79.17 88.67 81.74 89.02 80.95 89.36 79.76 89.71 81.34 90.06 84.7 90.41 80.36 90.76 80.75 91.11 80.95 91.46 81.15 91.81 80.75 92.16 78.78 92.51 80.36 92.86 81.54 93.2 79.37 93.55 80.55 93.9 79.57 94.25 76.8 94.6 75.22 94.95 75.02 95.3 74.43 95.65 75.02 96 76.01 96.35 76.8 96.7 72.46 97.05 73.25 97.39 75.42 97.74 72.06 98.09 70.09 98.44 67.52 98.79 65.94 99.14 67.72 99.49 66.14 99.84 63.57 100.19 61.99 100.54 61.59 100.89 65.15 101.23 65.15 101.58 65.94 101.93 65.74 102.28 69.1 102.63 73.05 102.98 69.3 103.33 68.9 103.68 69.69 104.03 65.54 104.38 59.22 104.73 60.61 105.08 56.46 105.42 57.25 105.77 55.27 106.12 57.25 106.47 55.27 106.82 57.64 107.17 61 107.52 64.56 107.87 65.74 108.22 65.74 108.57 70.28 108.92 69.89 109.26 70.09 109.61 67.52 109.96 67.72 110.31 68.9 110.66 62.19 111.01 60.21 111.36 62.19 111.71 61.99 112.06 62.19 112.41 61.59 112.76 60.61 113.11 60.41 113.45 59.03 113.8 59.82 114.15 63.17 114.5 58.24 114.85 61.79 115.2 59.82 115.55 60.61 115.9 58.63 116.25 57.64 116.6 57.25 116.95 59.22 117.3 56.46 117.64 54.88 117.99 56.85 118.34 51.32 118.69 49.74 119.04 46.58 119.39 50.93 119.74 52.71 120.09 51.72 120.44 50.93 120.79 54.48 121.14 54.29 121.48 54.48 121.83 57.25 122.18 58.43 122.53 61.99 122.88 59.42 123.23 62.38 123.58 60.21 123.93 57.25 124.28 63.57 124.63 60.8 124.98 59.82 125.33 59.62 125.67 58.43 126.02 58.43 126.37 54.68 126.72 51.52 127.07 49.35 127.42 48.76 127.77 51.92 128.12 47.18 128.47 46.58 128.82 47.97 129.17 48.16 129.51 45.4 129.86 46.98 130.21 47.77 130.56 42.63 130.91 43.42 131.26 42.63 131.61 44.61 131.96 44.61 132.31 40.46 132.66 41.25 133.01 38.48 133.36 39.47 133.7 38.68 134.05 37.69 134.4 40.26 134.75 41.64 135.1 37.1 135.45 38.88 135.8 38.48 136.15 39.08 136.5 40.46 136.85 39.08 137.2 38.48 137.55 36.31 137.89 36.71 138.24 39.67 138.59 40.06 138.94 42.63 139.29 39.08 139.64 35.92 139.99 35.52 140.34 33.94 140.69 32.36 141.04 33.35 141.39 31.37 141.73 28.02 142.08 29.79 142.43 27.62 142.78 25.65 143.13 25.84 143.48 29 143.83 29.79 144.18 29.99 144.53 31.18 144.88 34.34 145.23 31.37 145.58 31.37 145.92 29 146.27 30.39 146.62 31.97 146.97 32.95 147.32 32.36 147.67 30.98 148.02 29.79 148.37 31.37 148.72 27.82 149.07 27.23 149.42 26.24 149.76 27.82 150.11 28.41 150.46 27.42 150.81 24.46 151.16 24.07 151.51 24.46 151.86 24.26 152.21 23.28 152.56 21.89 152.91 21.5 153.26 22.88 153.61 23.87 153.95 24.07 154.3 22.88 154.65 25.25 155 26.04 155.35 26.44 155.7 26.83 156.05 24.26 156.4 26.24 156.75 27.42 157.1 25.45 157.45 25.84 157.79 28.02 158.14 29.6 158.49 28.41 158.84 31.57 159.19 32.16 159.54 32.36 159.89 31.97 160.24 33.15 160.59 33.15 160.94 31.18 161.29 32.76 161.64 33.15 161.98 33.55 162.33 31.77 162.68 34.14 163.03 35.52 163.38 36.31 163.73 33.35 164.08 34.34 164.43 33.94 164.78 34.14 165.13 36.51 165.48 34.73 165.83 37.3 166.17 38.09 166.52 33.94 166.87 29.99 167.22 29.6 167.57 26.44 167.92 26.24 168.27 28.02 168.62 26.44 168.97 24.46 169.32 22.88 169.67 23.08 170.01 24.46 170.36 27.42 170.71 27.03 171.06 26.04 171.41 27.62 171.76 28.21 172.11 26.04 172.46 26.24 172.81 25.65 173.16 23.67 173.51 24.46 173.86 24.66 174.2 26.24 174.55 27.23 174.9 27.03 175.25 30.19 175.6 30.39 175.95 30.39 176.3 29.2 176.65 28.61 177 27.42 177.35 27.82 177.7 28.21 178.04 27.82 178.39 24.66 178.74 24.46 179.09 22.68 179.44 22.49 179.79 22.49 180.14 22.49 180.49 22.09 180.84 21.7 181.19 18.73 181.54 18.93 181.89 17.94 182.23 16.36 182.58 14.19 182.93 14.39 183.28 13.6 183.63 13.2 183.98 12.81 184.33 12.61"/>
      </g>
      <g stroke-width="0.3" fill="#000000" fill-opacity="0.000" class="geometry" stroke-dasharray="none" stroke="#E6F598" id="img-b5eaf3ac-13">
        <path fill="none" d="M21.98,71.86 L 22.33 71.27 22.68 71.67 23.03 73.25 23.38 79.57 23.73 79.57 24.08 81.34 24.42 82.73 24.77 83.52 25.12 79.57 25.47 77.59 25.82 76.41 26.17 76.6 26.52 78.78 26.87 77.59 27.22 78.97 27.57 80.55 27.92 83.12 28.27 80.16 28.61 82.73 28.96 79.76 29.31 77.59 29.66 76.21 30.01 79.96 30.36 81.15 30.71 80.16 31.06 82.13 31.41 84.11 31.76 84.31 32.11 88.06 32.45 87.27 32.8 88.65 33.15 90.03 33.5 88.06 33.85 94.38 34.2 95.96 34.55 100.3 34.9 99.91 35.25 98.72 35.6 95.37 35.95 91.61 36.3 90.82 36.64 87.66 36.99 89.05 37.34 92.6 37.69 88.26 38.04 88.06 38.39 88.26 38.74 88.65 39.09 91.61 39.44 91.22 39.79 92.4 40.14 89.84 40.49 87.07 40.83 84.11 41.18 85.29 41.53 85.89 41.88 83.71 42.23 83.32 42.58 85.89 42.93 85.1 43.28 87.47 43.63 88.26 43.98 87.66 44.33 88.85 44.67 89.44 45.02 83.32 45.37 82.73 45.72 78.97 46.07 80.95 46.42 81.54 46.77 84.31 47.12 84.7 47.47 86.87 47.82 85.1 48.17 81.94 48.52 80.16 48.86 78.78 49.21 78.78 49.56 76.41 49.91 77.39 50.26 74.23 50.61 70.09 50.96 71.07 51.31 73.44 51.66 73.44 52.01 68.7 52.36 65.74 52.7 65.35 53.05 63.96 53.4 61.59 53.75 60.21 54.1 62.38 54.45 60.8 54.8 58.83 55.15 65.35 55.5 62.38 55.85 61.59 56.2 58.63 56.55 57.84 56.89 58.24 57.24 60.21 57.59 59.03 57.94 53.3 58.29 53.1 58.64 54.68 58.99 55.67 59.34 53.3 59.69 56.26 60.04 54.29 60.39 57.45 60.73 54.29 61.08 51.92 61.43 53.1 61.78 51.92 62.13 51.72 62.48 53.89 62.83 57.05 63.18 55.67 63.53 55.67 63.88 53.3 64.23 52.31 64.58 50.53 64.92 44.21 65.27 45.4 65.62 44.21 65.97 44.61 66.32 46.98 66.67 45.4 67.02 44.41 67.37 47.77 67.72 46.78 68.07 47.37 68.42 47.97 68.77 48.95 69.11 46.19 69.46 48.16 69.81 49.55 70.16 46.98 70.51 48.56 70.86 49.15 71.21 51.13 71.56 49.94 71.91 51.52 72.26 52.51 72.61 53.89 72.95 54.29 73.3 56.26 73.65 61.2 74 63.57 74.35 61.2 74.7 64.95 75.05 63.37 75.4 59.82 75.75 58.83 76.1 58.83 76.45 55.47 76.8 54.29 77.14 55.08 77.49 56.26 77.84 52.51 78.19 53.69 78.54 56.06 78.89 55.87 79.24 58.24 79.59 63.77 79.94 62.78 80.29 63.96 80.64 61.4 80.98 63.57 81.33 63.17 81.68 63.77 82.03 61.4 82.38 62.58 82.73 62.19 83.08 61.2 83.43 61.2 83.78 60.41 84.13 63.77 84.48 65.54 84.83 65.15 85.17 66.53 85.52 64.36 85.87 61.99 86.22 65.94 86.57 64.95 86.92 63.57 87.27 65.74 87.62 66.53 87.97 72.65 88.32 74.04 88.67 75.62 89.02 77.79 89.36 82.53 89.71 84.11 90.06 88.06 90.41 85.69 90.76 84.31 91.11 82.53 91.46 83.12 91.81 83.52 92.16 84.5 92.51 78.97 92.86 76.21 93.2 75.62 93.55 72.85 93.9 80.16 94.25 82.13 94.6 85.69 94.95 87.27 95.3 84.7 95.65 83.71 96 82.33 96.35 82.33 96.7 85.1 97.05 88.26 97.39 84.7 97.74 82.33 98.09 85.1 98.44 85.29 98.79 87.47 99.14 85.1 99.49 82.13 99.84 84.31 100.19 84.31 100.54 80.36 100.89 78.58 101.23 73.84 101.58 73.44 101.93 74.63 102.28 72.65 102.63 72.26 102.98 70.48 103.33 70.48 103.68 69.49 104.03 73.84 104.38 75.62 104.73 77.79 105.08 80.16 105.42 84.11 105.77 80.75 106.12 79.37 106.47 79.76 106.82 75.22 107.17 77 107.52 75.42 107.87 70.28 108.22 69.1 108.57 67.32 108.92 65.74 109.26 63.57 109.61 63.37 109.96 62.38 110.31 61.99 110.66 62.78 111.01 60.01 111.36 58.43 111.71 55.08 112.06 56.26 112.41 55.87 112.76 54.68 113.11 50.73 113.45 51.32 113.8 51.72 114.15 49.35 114.5 48.36 114.85 47.18 115.2 45.6 115.55 48.16 115.9 49.55 116.25 46.39 116.6 44.41 116.95 44.81 117.3 47.97 117.64 46.19 117.99 42.24 118.34 41.84 118.69 43.82 119.04 45 119.39 42.24 119.74 41.84 120.09 41.45 120.44 42.24 120.79 44.61 121.14 44.41 121.48 44.41 121.83 44.21 122.18 45.2 122.53 43.62 122.88 50.53 123.23 47.57 123.58 45 123.93 41.25 124.28 41.84 124.63 47.18 124.98 41.45 125.33 39.87 125.67 41.45 126.02 41.84 126.37 43.23 126.72 41.64 127.07 39.87 127.42 39.87 127.77 40.46 128.12 41.64 128.47 40.06 128.82 41.64 129.17 41.64 129.51 40.26 129.86 38.48 130.21 41.05 130.56 40.06 130.91 41.25 131.26 41.84 131.61 40.85 131.96 39.08 132.31 35.72 132.66 36.9 133.01 37.69 133.36 34.93 133.7 33.94 134.05 36.9 134.4 38.48 134.75 40.06 135.1 40.06 135.45 40.66 135.8 44.02 136.15 41.05 136.5 45.6 136.85 46.39 137.2 46.78 137.55 49.15 137.89 49.35 138.24 49.15 138.59 50.14 138.94 52.31 139.29 54.68 139.64 54.29 139.99 53.5 140.34 54.09 140.69 57.45 141.04 56.46 141.39 57.05 141.73 60.41 142.08 61.4 142.43 61.99 142.78 62.98 143.13 59.03 143.48 58.83 143.83 58.24 144.18 58.24 144.53 58.43 144.88 57.45 145.23 59.82 145.58 60.21 145.92 57.84 146.27 57.84 146.62 58.83 146.97 56.66 147.32 53.89 147.67 56.06 148.02 55.67 148.37 57.05 148.72 57.64 149.07 55.47 149.42 58.24 149.76 56.66 150.11 56.26 150.46 52.71 150.81 50.53 151.16 49.15 151.51 50.34 151.86 45.2 152.21 44.41 152.56 44.21 152.91 43.03 153.26 47.57 153.61 49.74 153.95 53.1 154.3 54.29 154.65 53.89 155 52.71 155.35 55.27 155.7 57.05 156.05 56.46 156.4 57.64 156.75 54.29 157.1 55.27 157.45 51.72 157.79 49.15 158.14 48.76 158.49 52.31 158.84 53.89 159.19 54.29 159.54 55.67 159.89 52.31 160.24 54.88 160.59 57.64 160.94 61.79 161.29 59.42 161.64 63.77 161.98 59.82 162.33 58.04 162.68 57.45 163.03 55.27 163.38 56.06 163.73 57.05 164.08 60.01 164.43 57.64 164.78 58.24 165.13 58.43 165.48 63.96 165.83 65.94 166.17 66.14 166.52 67.72 166.87 72.65 167.22 71.07 167.57 73.44 167.92 70.28 168.27 67.12 168.62 63.96 168.97 62.78 169.32 58.83 169.67 60.41 170.01 59.62 170.36 61.79 170.71 63.96 171.06 65.54 171.41 65.15 171.76 62.38 172.11 62.98 172.46 57.84 172.81 56.46 173.16 56.66 173.51 56.46 173.86 55.67 174.2 55.47 174.55 59.82 174.9 62.58 175.25 61 175.6 59.62 175.95 59.82 176.3 61.4 176.65 58.63 177 59.22 177.35 57.45 177.7 57.05 178.04 54.09 178.39 55.67 178.74 53.69 179.09 53.5 179.44 52.51 179.79 50.53 180.14 49.35 180.49 45.6 180.84 44.21 181.19 45 181.54 43.23 181.89 37.89 182.23 37.69 182.58 39.87 182.93 39.87 183.28 36.11 183.63 35.92 183.98 32.56 184.33 32.76 184.68 35.72 185.03 36.9 185.38 36.11 185.73 35.92 186.08 33.74 186.42 37.1 186.77 37.89 187.12 32.95 187.47 30.78 187.82 32.16 188.17 29.6 188.52 31.97 188.87 32.76 189.22 33.94 189.57 32.76 189.92 31.18 190.26 31.97 190.61 34.34 190.96 33.55 191.31 35.13 191.66 38.29 192.01 37.3 192.36 37.5 192.71 35.92 193.06 35.92 193.41 36.9 193.76 36.11 194.11 35.13 194.45 32.95 194.8 35.32 195.15 34.34 195.5 35.13 195.85 32.16 196.2 30.98"/>
      </g>
      <g stroke-width="0.3" fill="#000000" fill-opacity="0.000" class="geometry" stroke-dasharray="none" stroke="#FFFFBF" id="img-b5eaf3ac-14">
        <path fill="none" d="M21.98,71.86 L 22.33 71.07 22.68 70.09 23.03 68.51 23.38 67.91 23.73 67.32 24.08 69.49 24.42 68.11 24.77 71.07 25.12 69.69 25.47 69.69 25.82 68.9 26.17 66.14 26.52 60.21 26.87 64.75 27.22 64.75 27.57 63.17 27.92 60.41 28.27 62.78 28.61 59.03 28.96 61 29.31 61.4 29.66 61 30.01 60.41 30.36 63.37 30.71 63.77 31.06 64.16 31.41 64.16 31.76 64.56 32.11 65.15 32.45 70.09 32.8 72.46 33.15 72.26 33.5 71.47 33.85 68.51 34.2 72.46 34.55 70.68 34.9 73.64 35.25 78.78 35.6 77 35.95 72.65 36.3 74.43 36.64 71.67 36.99 68.11 37.34 69.49 37.69 73.05 38.04 71.07 38.39 70.48 38.74 71.86 39.09 72.06 39.44 73.05 39.79 73.05 40.14 72.46 40.49 72.65 40.83 71.67 41.18 72.85 41.53 71.67 41.88 74.63 42.23 73.44 42.58 73.64 42.93 70.68 43.28 70.68 43.63 70.28 43.98 69.3 44.33 66.73 44.67 71.07 45.02 69.89 45.37 65.74 45.72 65.35 46.07 65.15 46.42 62.78 46.77 58.83 47.12 56.06 47.47 59.82 47.82 56.66 48.17 61.99 48.52 64.56 48.86 61.79 49.21 65.54 49.56 68.11 49.91 70.68 50.26 69.89 50.61 70.09 50.96 69.1 51.31 70.68 51.66 73.05 52.01 74.43 52.36 76.21 52.7 81.74 53.05 86.48 53.4 90.03 53.75 88.65 54.1 86.28 54.45 86.68 54.8 83.12 55.15 83.12 55.5 84.5 55.85 86.87 56.2 89.24 56.55 86.87 56.89 86.28 57.24 88.06 57.59 89.44 57.94 91.02 58.29 90.23 58.64 87.86 58.99 84.9 59.34 83.91 59.69 80.75 60.04 82.53 60.39 82.33 60.73 84.7 61.08 83.32 61.43 81.94 61.78 80.95 62.13 86.08 62.48 89.44 62.83 92.01 63.18 91.22 63.53 92.21 63.88 94.18 64.23 91.81 64.58 93.39 64.92 93.98 65.27 96.75 65.62 99.71 65.97 102.48 66.32 102.08 66.67 99.71 67.02 103.46 67.37 99.12 67.72 97.93 68.07 99.32 68.42 99.12 68.77 98.72 69.11 95.17 69.46 94.58 69.81 92.21 70.16 92.6 70.51 90.82 70.86 94.18 71.21 97.93 71.56 97.34 71.91 93.79 72.26 96.35 72.61 96.75 72.95 99.12 73.3 99.71 73.65 100.11 74 96.55 74.35 97.34 74.7 100.7 75.05 101.49 75.4 98.92 75.75 103.86 76.1 103.46 76.45 102.67 76.8 107.22 77.14 105.83 77.49 106.82 77.84 107.22 78.19 108.99 78.54 108.8 78.89 107.61 79.24 106.82 79.59 107.41 79.94 103.86 80.29 103.07 80.64 103.46 80.98 104.85 81.33 104.85 81.68 105.44 82.03 104.65 82.38 104.06 82.73 102.28 83.08 101.09 83.43 99.12 83.78 101.29 84.13 100.5 84.48 98.53 84.83 100.3 85.17 98.53 85.52 99.51 85.87 100.9 86.22 99.91 86.57 99.12 86.92 99.91 87.27 96.35 87.62 93.39 87.97 93.19 88.32 92.6 88.67 91.61 89.02 92.21 89.36 92.6 89.71 93.19 90.06 94.38 90.41 93 90.76 91.81 91.11 94.58 91.46 95.96 91.81 96.16 92.16 96.16 92.51 95.76 92.86 98.13 93.2 96.35 93.55 99.12 93.9 101.88 94.25 100.9 94.6 100.7 94.95 100.3 95.3 101.69 95.65 100.3 96 98.33 96.35 99.91 96.7 100.11 97.05 102.67 97.39 102.28 97.74 102.87 98.09 99.32 98.44 95.37 98.79 99.12 99.14 98.33 99.49 98.92 99.84 100.11 100.19 100.5 100.54 101.69 100.89 98.53 101.23 96.75 101.58 98.13 101.93 101.09 102.28 102.87 102.63 103.07 102.98 104.45 103.33 104.65 103.68 105.24 104.03 104.25 104.38 99.12 104.73 99.91 105.08 100.7 105.42 98.53 105.77 97.54 106.12 97.34 106.47 95.96 106.82 95.17 107.17 93.19 107.52 92.4 107.87 92.6 108.22 91.22 108.57 89.44 108.92 87.47 109.26 91.02 109.61 91.42 109.96 90.43 110.31 91.22 110.66 92.4 111.01 95.96 111.36 97.74 111.71 98.13 112.06 97.93 112.41 95.96 112.76 95.76 113.11 93.59 113.45 95.56 113.8 95.76 114.15 93.98 114.5 93.98 114.85 96.16 115.2 94.38 115.55 95.37 115.9 93.59 116.25 92.8 116.6 89.44 116.95 87.66 117.3 87.07 117.64 88.06 117.99 90.82 118.34 93.59 118.69 91.42 119.04 94.38 119.39 92.6 119.74 93.19 120.09 93 120.44 89.44 120.79 89.84 121.14 88.65 121.48 87.66 121.83 92.21 122.18 92.4 122.53 91.61 122.88 91.61 123.23 96.55 123.58 94.97 123.93 93.98 124.28 93 124.63 92.4 124.98 89.84 125.33 91.61 125.67 93.39 126.02 97.54 126.37 96.95 126.72 95.17 127.07 94.97 127.42 92.21 127.77 96.35 128.12 99.71 128.47 99.71 128.82 99.91 129.17 96.16 129.51 94.77 129.86 90.63 130.21 91.02 130.56 92.4 130.91 92.01 131.26 93.59 131.61 95.76 131.96 95.76 132.31 92.4 132.66 94.38 133.01 94.18 133.36 96.95 133.7 97.74 134.05 93.79 134.4 93.59 134.75 92.4 135.1 93.19 135.45 96.16 135.8 96.35 136.15 96.55 136.5 92.21 136.85 90.63 137.2 93 137.55 93.59 137.89 93.98 138.24 92.21 138.59 90.23 138.94 89.24 139.29 91.02 139.64 91.61 139.99 88.06 140.34 89.84 140.69 87.47 141.04 85.1 141.39 86.08 141.73 88.85 142.08 87.66 142.43 88.26 142.78 82.73 143.13 82.33 143.48 84.31 143.83 81.94 144.18 82.33 144.53 83.91 144.88 82.13 145.23 80.95 145.58 76.41 145.92 75.02 146.27 76.01 146.62 78.58 146.97 74.04 147.32 75.42 147.67 74.83 148.02 74.63 148.37 75.62 148.72 69.89 149.07 69.3 149.42 68.7 149.76 66.14 150.11 63.57 150.46 66.53 150.81 66.33 151.16 69.49 151.51 75.02 151.86 78.97 152.21 81.15 152.56 80.75 152.91 79.76 153.26 84.11 153.61 83.91 153.95 84.9 154.3 86.48 154.65 88.26 155 87.47 155.35 86.87 155.7 85.89 156.05 88.45 156.4 89.05 156.75 88.85 157.1 87.86 157.45 86.87 157.79 84.31 158.14 84.31 158.49 80.55 158.84 80.95 159.19 84.31 159.54 89.84 159.89 90.63 160.24 97.14 160.59 96.35 160.94 97.54 161.29 101.29 161.64 101.09 161.98 102.67 162.33 102.87 162.68 102.08 163.03 104.65 163.38 104.65 163.73 105.24 164.08 104.85 164.43 101.49 164.78 100.11 165.13 93.39 165.48 93 165.83 95.17 166.17 96.16 166.52 97.93 166.87 95.37 167.22 92.21 167.57 87.47 167.92 88.06 168.27 86.28 168.62 84.9 168.97 81.94 169.32 78.58 169.67 80.16 170.01 77.79 170.36 78.58 170.71 77.39 171.06 78.97 171.41 80.16 171.76 74.63 172.11 72.65 172.46 73.64 172.81 75.81 173.16 78.18 173.51 76.01 173.86 76.21 174.2 74.43 174.55 78.18 174.9 75.62 175.25 74.04 175.6 74.63 175.95 75.42 176.3 78.38 176.65 80.36 177 81.15 177.35 80.36 177.7 77.99 178.04 76.41 178.39 74.83 178.74 75.62 179.09 74.83 179.44 74.43 179.79 77.2 180.14 77.39 180.49 77.99 180.84 76.8 181.19 76.41 181.54 80.55 181.89 80.36 182.23 77.59 182.58 73.84 182.93 70.88 183.28 70.48 183.63 74.43 183.98 77.2 184.33 73.05 184.68 72.46 185.03 72.65 185.38 74.63 185.73 72.85 186.08 76.01 186.42 77.39 186.77 74.83 187.12 76.6 187.47 76.21 187.82 78.97 188.17 80.16 188.52 78.18 188.87 80.75 189.22 84.11 189.57 85.69 189.92 86.08 190.26 83.32 190.61 81.34 190.96 81.54 191.31 77.79 191.66 82.53 192.01 81.94 192.36 83.32 192.71 81.15 193.06 79.96 193.41 79.57 193.76 76.8 194.11 76.21 194.45 75.62 194.8 77.79 195.15 73.44 195.5 72.26 195.85 71.47 196.2 65.74"/>
      </g>
      <g stroke-width="0.3" fill="#000000" fill-opacity="0.000" class="geometry" stroke-dasharray="none" stroke="#FEE08B" id="img-b5eaf3ac-15">
        <path fill="none" d="M21.98,71.86 L 22.33 73.05 22.68 74.63 23.03 77 23.38 79.76 23.73 77.59 24.08 77.79 24.42 79.96 24.77 77.79 25.12 80.55 25.47 81.94 25.82 81.34 26.17 79.57 26.52 81.15 26.87 80.95 27.22 81.54 27.57 82.53 27.92 87.66 28.27 88.65 28.61 87.07 28.96 82.92 29.31 79.57 29.66 82.33 30.01 85.89 30.36 89.24 30.71 91.42 31.06 92.6 31.41 88.26 31.76 90.43 32.11 93.79 32.45 88.45 32.8 86.08 33.15 84.5 33.5 86.87 33.85 82.92 34.2 81.74 34.55 83.32 34.9 84.5 35.25 81.54 35.6 81.34 35.95 80.36 36.3 80.36 36.64 78.97 36.99 71.07 37.34 71.86 37.69 73.44 38.04 72.85 38.39 75.81 38.74 77.79 39.09 77.39 39.44 79.96 39.79 77.99 40.14 80.36 40.49 80.75 40.83 81.74 41.18 81.74 41.53 80.75 41.88 82.13 42.23 85.69 42.58 86.08 42.93 90.63 43.28 91.02 43.63 90.63 43.98 91.42 44.33 89.24 44.67 87.86 45.02 90.43 45.37 93.39 45.72 94.77 46.07 92.4 46.42 91.02 46.77 90.03 47.12 90.82 47.47 85.69 47.82 85.29 48.17 84.5 48.52 84.5 48.86 83.91 49.21 89.24 49.56 82.73 49.91 83.91 50.26 84.11 50.61 80.55 50.96 78.78 51.31 79.17 51.66 81.15 52.01 80.95 52.36 82.53 52.7 79.96 53.05 79.57 53.4 77.99 53.75 76.6 54.1 77 54.45 75.81 54.8 71.27 55.15 74.43 55.5 72.06 55.85 71.67 56.2 73.25 56.55 70.48 56.89 70.09 57.24 71.07 57.59 72.26 57.94 68.31 58.29 70.68 58.64 69.49 58.99 66.73 59.34 67.52 59.69 66.93 60.04 62.19 60.39 64.16 60.73 65.35 61.08 63.17 61.43 62.98 61.78 61.79 62.13 64.56 62.48 62.78 62.83 66.33 63.18 63.96 63.53 58.63 63.88 59.03 64.23 58.63 64.58 60.41 64.92 56.66 65.27 57.84 65.62 58.24 65.97 57.64 66.32 54.29 66.67 54.68 67.02 55.08 67.37 54.48 67.72 56.06 68.07 55.47 68.42 56.06 68.77 58.63 69.11 61.59 69.46 63.17 69.81 61 70.16 63.57 70.51 60.61 70.86 59.62 71.21 60.01 71.56 62.98 71.91 62.38 72.26 64.75 72.61 63.96 72.95 62.98 73.3 66.53 73.65 69.3 74 74.04 74.35 73.84 74.7 72.26 75.05 73.44 75.4 75.62 75.75 76.6 76.1 72.26 76.45 72.85 76.8 70.88 77.14 73.64 77.49 72.65 77.84 74.04 78.19 73.25 78.54 70.09 78.89 72.65 79.24 77.39 79.59 80.36 79.94 81.54 80.29 79.96 80.64 77.39 80.98 76.01 81.33 75.81 81.68 77.99 82.03 76.6 82.38 74.43 82.73 72.65 83.08 72.06 83.43 75.02 83.78 77.39 84.13 79.37 84.48 83.12 84.83 85.1 85.17 86.68 85.52 90.43 85.87 96.55 86.22 96.35 86.57 98.13 86.92 100.7 87.27 104.45 87.62 106.43 87.97 106.03 88.32 111.17 88.67 109.59 89.02 104.45 89.36 106.03 89.71 107.02 90.06 104.06 90.41 105.83 90.76 109.39 91.11 113.93 91.46 113.73 91.81 113.73 92.16 114.72 92.51 113.93 92.86 113.34 93.2 114.52 93.55 114.92 93.9 113.73 94.25 112.94 94.6 111.17 94.95 110.77 95.3 106.23 95.65 105.24 96 106.82 96.35 109.59 96.7 108.8 97.05 108.01 97.39 108.4 97.74 110.18 98.09 110.18 98.44 110.77 98.79 109.98 99.14 111.17 99.49 110.38 99.84 109.19 100.19 111.76 100.54 111.76 100.89 110.77 101.23 110.18 101.58 109.98 101.93 110.97 102.28 107.02 102.63 109.19 102.98 112.75 103.33 110.97 103.68 110.18 104.03 113.73 104.38 111.36 104.73 110.57 105.08 109.59 105.42 110.57 105.77 108.2 106.12 103.86 106.47 99.91 106.82 100.7 107.17 104.06 107.52 105.04 107.87 105.83 108.22 106.23 108.57 106.23 108.92 113.34 109.26 112.55 109.61 115.51 109.96 114.52 110.31 117.09 110.66 117.29 111.01 119.07 111.36 119.86 111.71 120.05 112.06 118.67 112.41 117.88 112.76 117.68 113.11 118.08 113.45 116.5 113.8 115.71 114.15 116.3 114.5 116.3 114.85 115.51 115.2 113.14 115.55 112.55 115.9 112.15 116.25 111.96 116.6 111.96 116.95 111.96 117.3 112.55 117.64 109.78 117.99 112.75 118.34 114.33 118.69 111.96 119.04 113.93 119.39 114.92 119.74 109.78 120.09 109.98 120.44 108.99 120.79 111.96 121.14 114.52 121.48 110.77 121.83 110.57 122.18 110.97 122.53 112.15 122.88 113.73 123.23 116.5 123.58 116.1 123.93 116.3 124.28 116.89 124.63 117.88 124.98 116.1 125.33 114.13 125.67 116.3 126.02 116.1 126.37 113.54 126.72 114.13 127.07 113.34 127.42 109.19 127.77 108.6 128.12 108.99 128.47 109.98 128.82 109.19 129.17 105.24 129.51 106.43 129.86 107.41 130.21 102.28 130.56 102.87 130.91 102.08 131.26 98.72 131.61 96.95 131.96 95.76 132.31 97.34 132.66 97.54 133.01 95.96 133.36 99.91 133.7 100.11 134.05 99.51 134.4 100.9 134.75 97.93 135.1 96.35 135.45 98.53 135.8 98.13 136.15 99.51 136.5 99.51 136.85 101.49 137.2 104.25 137.55 101.69 137.89 103.46 138.24 101.29 138.59 102.67 138.94 100.7 139.29 97.74 139.64 97.54 139.99 94.38 140.34 93.39 140.69 92.8 141.04 88.26 141.39 89.64 141.73 89.24 142.08 86.08 142.43 82.53 142.78 83.12 143.13 83.91 143.48 79.37 143.83 77.2 144.18 80.95 144.53 80.55 144.88 77.99 145.23 84.11 145.58 81.54 145.92 83.12 146.27 85.1 146.62 83.71 146.97 86.68 147.32 87.27 147.67 84.5 148.02 86.68 148.37 84.9 148.72 86.08 149.07 85.49 149.42 91.61 149.76 90.03 150.11 95.96 150.46 96.16 150.81 97.74 151.16 97.74 151.51 98.33 151.86 99.51 152.21 93.79 152.56 91.02 152.91 92.8 153.26 93.98 153.61 89.84 153.95 89.64 154.3 90.63 154.65 89.84 155 88.85 155.35 86.08 155.7 85.1 156.05 82.73 156.4 83.12 156.75 84.31 157.1 82.92 157.45 81.15 157.79 80.36 158.14 79.37 158.49 79.57 158.84 79.57 159.19 77.79 159.54 77.79 159.89 77 160.24 77.2 160.59 77.2 160.94 77.39 161.29 76.6 161.64 84.7 161.98 82.53 162.33 83.71 162.68 82.53 163.03 81.94 163.38 80.36 163.73 80.95 164.08 76.6 164.43 80.75 164.78 80.75 165.13 81.94 165.48 83.91 165.83 84.11 166.17 79.96 166.52 78.78 166.87 82.73 167.22 81.94 167.57 85.69 167.92 82.92 168.27 80.36 168.62 78.97 168.97 79.37 169.32 76.01 169.67 74.23 170.01 73.05 170.36 70.28 170.71 73.25 171.06 74.83 171.41 74.83 171.76 74.23 172.11 74.83 172.46 72.26 172.81 71.67 173.16 75.62 173.51 77 173.86 73.44 174.2 74.23 174.55 73.25 174.9 74.04 175.25 74.83 175.6 70.68 175.95 70.48 176.3 67.52 176.65 72.46 177 74.04 177.35 73.25 177.7 75.62 178.04 78.97 178.39 77.2 178.74 72.85 179.09 70.28 179.44 64.75 179.79 60.41 180.14 59.03 180.49 60.01 180.84 60.21 181.19 61.4 181.54 59.22 181.89 57.25 182.23 56.46 182.58 60.8 182.93 61.4 183.28 60.01 183.63 58.04 183.98 58.63 184.33 59.22 184.68 56.06 185.03 53.69 185.38 53.3 185.73 52.51 186.08 51.92 186.42 52.51 186.77 56.26 187.12 54.29 187.47 55.08 187.82 54.29 188.17 54.29 188.52 49.55 188.87 49.94 189.22 49.15 189.57 48.56 189.92 47.77 190.26 48.95 190.61 46.39 190.96 42.63 191.31 42.83 191.66 45.4 192.01 48.95 192.36 46.39 192.71 44.02 193.06 43.82 193.41 45.2 193.76 46.98 194.11 50.53 194.45 50.34 194.8 49.74 195.15 49.15 195.5 48.76 195.85 50.53 196.2 51.92"/>
      </g>
      <g stroke-width="0.3" fill="#000000" fill-opacity="0.000" class="geometry" stroke-dasharray="none" stroke="#FDAE61" id="img-b5eaf3ac-16">
        <path fill="none" d="M21.98,71.86 L 22.33 72.65 22.68 69.89 23.03 72.85 23.38 70.28 23.73 69.69 24.08 69.89 24.42 71.07 24.77 72.46 25.12 66.53 25.47 65.74 25.82 67.12 26.17 70.48 26.52 69.3 26.87 69.1 27.22 67.52 27.57 62.78 27.92 58.63 28.27 54.88 28.61 51.92 28.96 50.93 29.31 49.35 29.66 44.61 30.01 42.83 30.36 44.02 30.71 44.21 31.06 44.21 31.41 43.62 31.76 39.47 32.11 38.88 32.45 39.47 32.8 43.82 33.15 45.79 33.5 42.24 33.85 42.04 34.2 40.85 34.55 42.24 34.9 40.46 35.25 36.51 35.6 40.26 35.95 38.29 36.3 40.26 36.64 39.47 36.99 39.67 37.34 39.67 37.69 38.88 38.04 42.83 38.39 40.85 38.74 38.68 39.09 38.29 39.44 35.13 39.79 36.11 40.14 35.92 40.49 35.92 40.83 38.88 41.18 33.94 41.53 30.19 41.88 30.78 42.23 31.57 42.58 30.98 42.93 29.6 43.28 28.81 43.63 28.21 43.98 27.03 44.33 29.2 44.67 27.42 45.02 28.21 45.37 29.2 45.72 27.23 46.07 23.47 46.42 23.47 46.77 22.88 47.12 22.88 47.47 23.47 47.82 23.67 48.17 24.66 48.52 25.65 48.86 27.62 49.21 27.23 49.56 22.09 49.91 21.89 50.26 20.71 50.61 21.89 50.96 21.5 51.31 22.68 51.66 22.29 52.01 20.71 52.36 22.49 52.7 22.68 53.05 22.49 53.4 21.1 53.75 19.92 54.1 20.31 54.45 17.55 54.8 17.75 55.15 15.57 55.5 15.18 55.85 16.17 56.2 16.36 56.55 16.36 56.89 15.38 57.24 15.57 57.59 16.56 57.94 18.73 58.29 17.94 58.64 18.93 58.99 17.75 59.34 18.73 59.69 17.94 60.04 18.14 60.39 18.54 60.73 19.13 61.08 19.13 61.43 20.31 61.78 18.73 62.13 17.55 62.48 18.34 62.83 19.52 63.18 19.92 63.53 18.54 63.88 18.93 64.23 19.72 64.58 18.34 64.92 17.75 65.27 16.17 65.62 16.56 65.97 17.35 66.32 17.55 66.67 17.35 67.02 15.77 67.37 15.38 67.72 15.97 68.07 15.38 68.42 14.98 68.77 14.98 69.11 14.19 69.46 14.39 69.81 13.8 70.16 14.39 70.51 13.99 70.86 13.4 71.21 13.2 71.56 13.6 71.91 13.8 72.26 13.6 72.61 13.6 72.95 12.81 73.3 12.61"/>
      </g>
      <g stroke-width="0.3" fill="#000000" fill-opacity="0.000" class="geometry" stroke-dasharray="none" stroke="#F46D43" id="img-b5eaf3ac-17">
        <path fill="none" d="M21.98,71.86 L 22.33 72.85 22.68 74.04 23.03 72.85 23.38 74.83 23.73 71.67 24.08 72.85 24.42 73.05 24.77 69.89 25.12 69.3 25.47 71.07 25.82 67.32 26.17 63.77 26.52 62.78 26.87 58.83 27.22 55.47 27.57 54.88 27.92 57.25 28.27 56.85 28.61 54.29 28.96 56.06 29.31 55.08 29.66 53.89 30.01 54.48 30.36 53.5 30.71 57.25 31.06 56.66 31.41 56.46 31.76 58.04 32.11 57.45 32.45 60.01 32.8 62.19 33.15 64.75 33.5 65.54 33.85 64.56 34.2 67.91 34.55 65.94 34.9 67.52 35.25 72.06 35.6 74.04 35.95 78.18 36.3 81.34 36.64 81.15 36.99 83.32 37.34 88.85 37.69 89.44 38.04 91.42 38.39 94.38 38.74 88.45 39.09 91.22 39.44 89.84 39.79 90.23 40.14 88.65 40.49 92.01 40.83 84.7 41.18 85.89 41.53 87.47 41.88 91.42 42.23 91.22 42.58 88.06 42.93 88.26 43.28 83.91 43.63 85.29 43.98 86.48 44.33 85.89 44.67 88.65 45.02 86.68 45.37 87.47 45.72 86.28 46.07 83.71 46.42 82.33 46.77 81.74 47.12 81.94 47.47 81.34 47.82 83.12 48.17 83.32 48.52 84.31 48.86 84.9 49.21 84.7 49.56 83.32 49.91 79.76 50.26 79.57 50.61 77 50.96 73.05 51.31 75.22 51.66 72.06 52.01 71.86 52.36 70.09 52.7 71.07 53.05 71.86 53.4 73.05 53.75 71.67 54.1 72.06 54.45 67.91 54.8 69.89 55.15 74.04 55.5 77.2 55.85 80.16 56.2 82.73 56.55 79.96 56.89 79.37 57.24 80.75 57.59 81.74 57.94 81.94 58.29 83.12 58.64 82.73 58.99 83.91 59.34 81.34 59.69 84.7 60.04 85.1 60.39 86.87 60.73 83.32 61.08 85.89 61.43 89.64 61.78 91.02 62.13 92.21 62.48 88.85 62.83 87.47 63.18 90.63 63.53 92.8 63.88 90.82 64.23 88.85 64.58 88.26 64.92 91.81 65.27 92.01 65.62 91.42 65.97 89.64 66.32 88.85 66.67 87.27 67.02 89.24 67.37 86.08 67.72 88.06 68.07 89.84 68.42 90.63 68.77 91.22 69.11 89.64 69.46 93.39 69.81 92.6 70.16 93.19 70.51 98.33 70.86 102.28 71.21 103.66 71.56 105.64 71.91 101.88 72.26 100.9 72.61 100.9 72.95 100.5 73.3 104.06 73.65 104.06 74 103.66 74.35 104.45 74.7 105.04 75.05 108.6 75.4 108.8 75.75 113.73 76.1 113.73 76.45 113.54 76.8 114.13 77.14 114.33 77.49 115.71 77.84 114.13 78.19 113.14 78.54 117.29 78.89 118.67 79.24 119.66 79.59 119.86 79.94 118.08 80.29 117.29 80.64 117.88 80.98 118.08 81.33 118.87 81.68 117.49 82.03 117.68 82.38 117.68 82.73 119.26 83.08 122.03 83.43 121.44 83.78 121.63 84.13 120.25 84.48 120.84 84.83 121.44 85.17 122.82 85.52 123.61 85.87 123.21 86.22 122.42 86.57 121.24 86.92 120.25 87.27 119.26 87.62 114.92 87.97 114.72 88.32 112.55 88.67 111.76 89.02 111.17 89.36 113.54 89.71 115.51 90.06 116.89 90.41 113.34 90.76 112.75 91.11 112.35 91.46 113.34 91.81 114.92 92.16 115.12 92.51 115.71 92.86 114.92 93.2 113.34 93.55 114.13 93.9 114.33 94.25 115.31 94.6 115.91 94.95 116.7 95.3 118.67 95.65 116.89 96 120.25 96.35 121.04 96.7 122.42 97.05 124.6 97.39 124.99 97.74 125.98 98.09 127.76 98.44 127.95 98.79 127.56 99.14 126.97 99.49 126.57 99.84 127.76 100.19 127.95 100.54 127.36 100.89 127.16 101.23 126.97 101.58 127.16 101.93 127.56 102.28 126.18 102.63 126.18 102.98 125.39 103.33 125.58 103.68 125.98 104.03 125.19 104.38 126.97 104.73 127.56 105.08 127.16 105.42 126.37 105.77 127.36 106.12 127.36 106.47 128.94 106.82 129.34 107.17 129.53 107.52 129.34 107.87 129.73 108.22 130.13 108.57 130.92 108.92 130.92 109.26 130.92 109.61 130.92 109.96 131.11"/>
      </g>
      <g stroke-width="0.3" fill="#000000" fill-opacity="0.000" class="geometry" stroke-dasharray="none" stroke="#D53E4F" id="img-b5eaf3ac-18">
        <path fill="none" d="M21.98,71.86 L 22.33 73.25 22.68 73.64 23.03 71.47 23.38 67.91 23.73 69.49 24.08 71.47 24.42 69.49 24.77 70.48 25.12 69.69 25.47 71.67 25.82 72.85 26.17 74.04 26.52 71.47 26.87 69.89 27.22 67.52 27.57 66.93 27.92 65.74 28.27 61.79 28.61 61.4 28.96 59.22 29.31 62.78 29.66 68.31 30.01 70.28 30.36 72.06 30.71 71.86 31.06 74.63 31.41 77.2 31.76 78.38 32.11 78.58 32.45 81.15 32.8 81.34 33.15 81.54 33.5 80.16 33.85 80.16 34.2 77.59 34.55 78.97 34.9 78.38 35.25 73.64 35.6 71.67 35.95 68.11 36.3 64.36 36.64 65.74 36.99 62.58 37.34 61.79 37.69 57.64 38.04 56.26 38.39 57.25 38.74 54.88 39.09 52.31 39.44 49.35 39.79 50.93 40.14 51.92 40.49 51.13 40.83 51.32 41.18 52.11 41.53 51.72 41.88 53.69 42.23 53.89 42.58 52.31 42.93 50.14 43.28 51.32 43.63 50.93 43.98 48.95 44.33 48.76 44.67 48.76 45.02 49.74 45.37 49.15 45.72 49.94 46.07 45 46.42 48.16 46.77 48.16 47.12 51.32 47.47 47.77 47.82 47.57 48.17 48.36 48.52 46.39 48.86 50.34 49.21 48.76 49.56 46.98 49.91 49.15 50.26 51.32 50.61 49.15 50.96 48.36 51.31 45.6 51.66 43.23 52.01 45.79 52.36 44.21 52.7 47.18 53.05 46.39 53.4 46.19 53.75 45.2 54.1 47.57 54.45 45.2 54.8 46.19 55.15 47.18 55.5 48.16 55.85 50.14 56.2 48.36 56.55 49.74 56.89 46.39 57.24 43.23 57.59 44.41 57.94 44.21 58.29 42.24 58.64 44.02 58.99 41.45 59.34 38.29 59.69 34.14 60.04 31.97 60.39 32.56 60.73 35.32 61.08 36.51 61.43 37.89 61.78 38.88 62.13 38.29 62.48 38.09 62.83 35.92 63.18 32.56 63.53 36.31 63.88 34.53 64.23 34.53 64.58 33.94 64.92 31.37 65.27 31.37 65.62 27.23 65.97 27.42 66.32 27.03 66.67 25.65 67.02 23.08 67.37 21.7 67.72 20.12 68.07 20.31 68.42 18.93 68.77 17.75 69.11 17.55 69.46 17.15 69.81 19.72 70.16 21.3 70.51 21.89 70.86 23.28 71.21 22.29 71.56 21.5 71.91 20.91 72.26 21.5 72.61 20.71 72.95 22.88 73.3 22.09 73.65 20.31 74 21.3 74.35 21.5 74.7 20.12 75.05 18.93 75.4 18.14 75.75 17.15 76.1 18.54 76.45 17.94 76.8 17.75 77.14 17.94 77.49 18.93 77.84 20.91 78.19 20.31 78.54 18.34 78.89 19.33 79.24 18.14 79.59 17.35 79.94 17.55 80.29 16.76 80.64 16.96 80.98 17.35 81.33 15.38 81.68 15.77 82.03 15.38 82.38 14.98 82.73 14.98 83.08 15.77 83.43 14.78 83.78 14.19 84.13 14.59 84.48 14.59 84.83 15.38 85.17 16.76 85.52 15.77 85.87 15.97 86.22 16.96 86.57 16.56 86.92 16.76 87.27 15.77 87.62 16.36 87.97 18.54 88.32 19.33 88.67 17.75 89.02 17.55 89.36 18.14 89.71 18.73 90.06 18.54 90.41 20.51 90.76 21.3 91.11 22.49 91.46 24.66 91.81 24.66 92.16 24.86 92.51 24.66 92.86 25.25 93.2 25.25 93.55 24.86 93.9 25.05 94.25 25.25 94.6 23.47 94.95 25.25 95.3 24.07 95.65 24.26 96 23.47 96.35 23.08 96.7 25.05 97.05 27.42 97.39 29.99 97.74 28.41 98.09 27.42 98.44 27.62 98.79 27.03 99.14 29 99.49 29 99.84 30.78 100.19 30.19 100.54 30.98 100.89 29.79 101.23 30.98 101.58 29.99 101.93 29.79 102.28 28.61 102.63 28.21 102.98 28.21 103.33 28.21 103.68 28.81 104.03 29.2 104.38 28.41 104.73 29.6 105.08 31.37 105.42 30.39 105.77 31.18 106.12 32.16 106.47 29.99 106.82 29.2 107.17 30.58 107.52 29.79 107.87 29.4 108.22 30.19 108.57 25.05 108.92 25.45 109.26 23.47 109.61 23.47 109.96 22.49 110.31 22.09 110.66 22.49 111.01 23.87 111.36 23.67 111.71 22.29 112.06 19.72 112.41 21.5 112.76 22.09 113.11 20.91 113.45 18.34 113.8 18.73 114.15 17.35 114.5 16.96 114.85 16.36 115.2 16.36 115.55 15.57 115.9 15.57 116.25 15.97 116.6 15.77 116.95 15.97 117.3 14.39 117.64 14.19 117.99 14.98 118.34 14.39 118.69 14.98 119.04 15.77 119.39 16.76 119.74 17.94 120.09 17.94 120.44 19.33 120.79 21.1 121.14 20.51 121.48 21.7 121.83 21.5 122.18 21.5 122.53 22.49 122.88 22.49 123.23 21.89 123.58 19.13 123.93 17.15 124.28 16.17 124.63 16.96 124.98 17.15 125.33 17.55 125.67 16.36 126.02 16.56 126.37 15.38 126.72 14.98 127.07 14.78 127.42 14.39 127.77 14.98 128.12 13.99 128.47 14.39 128.82 13.4 129.17 13.6 129.51 12.81 129.86 12.81 130.21 12.61"/>
      </g>
      <g stroke-width="0.3" fill="#000000" fill-opacity="0.000" class="geometry" stroke-dasharray="none" stroke="#9E0142" id="img-b5eaf3ac-19">
        <path fill="none" d="M21.98,71.86 L 22.33 67.12 22.68 67.32 23.03 70.68 23.38 71.67 23.73 74.63 24.08 77.2 24.42 83.91 24.77 81.94 25.12 84.31 25.47 87.27 25.82 86.48 26.17 84.31 26.52 86.68 26.87 83.12 27.22 85.1 27.57 79.76 27.92 81.54 28.27 81.54 28.61 82.73 28.96 81.74 29.31 82.92 29.66 83.91 30.01 84.31 30.36 87.27 30.71 88.65 31.06 85.29 31.41 84.7 31.76 85.69 32.11 86.48 32.45 84.9 32.8 79.57 33.15 78.78 33.5 78.18 33.85 76.8 34.2 77.39 34.55 79.37 34.9 78.58 35.25 76.21 35.6 78.58 35.95 82.53 36.3 86.08 36.64 86.28 36.99 82.92 37.34 83.32 37.69 83.12 38.04 86.87 38.39 88.26 38.74 86.48 39.09 83.71 39.44 84.5 39.79 80.16 40.14 81.74 40.49 82.13 40.83 84.5 41.18 84.31 41.53 84.5 41.88 86.87 42.23 83.52 42.58 84.5 42.93 82.73 43.28 84.7 43.63 82.92 43.98 81.74 44.33 77.79 44.67 81.15 45.02 77.59 45.37 73.44 45.72 72.26 46.07 68.9 46.42 70.68 46.77 73.44 47.12 71.07 47.47 70.88 47.82 75.62 48.17 76.01 48.52 76.01 48.86 72.26 49.21 72.26 49.56 74.23 49.91 71.27 50.26 73.64 50.61 73.05 50.96 74.83 51.31 75.62 51.66 76.41 52.01 74.43 52.36 69.89 52.7 69.49 53.05 66.53 53.4 66.53 53.75 63.96 54.1 65.15 54.45 68.11 54.8 66.73 55.15 65.94 55.5 69.69 55.85 70.09 56.2 70.09 56.55 74.04 56.89 77 57.24 79.17 57.59 79.96 57.94 78.97 58.29 78.18 58.64 79.57 58.99 80.36 59.34 79.57 59.69 80.16 60.04 83.12 60.39 84.31 60.73 83.52 61.08 85.89 61.43 87.66 61.78 89.64 62.13 90.43 62.48 88.26 62.83 86.87 63.18 85.49 63.53 85.1 63.88 87.47 64.23 88.45 64.58 89.84 64.92 93.59 65.27 91.81 65.62 88.65 65.97 89.84 66.32 85.49 66.67 83.52 67.02 77.59 67.37 82.73 67.72 78.97 68.07 81.34 68.42 85.1 68.77 84.11 69.11 88.45 69.46 86.87 69.81 82.92 70.16 85.29 70.51 84.7 70.86 84.9 71.21 82.92 71.56 81.15 71.91 78.58 72.26 78.38 72.61 77.39 72.95 78.38 73.3 77.79 73.65 77.2 74 76.6 74.35 71.67 74.7 78.18 75.05 75.42 75.4 76.21 75.75 82.53 76.1 80.36 76.45 82.13 76.8 83.32 77.14 80.75 77.49 84.11 77.84 86.87 78.19 84.5 78.54 82.53 78.89 85.1 79.24 89.24 79.59 91.81 79.94 89.84 80.29 89.44 80.64 89.24 80.98 86.68 81.33 90.43 81.68 88.85 82.03 88.85 82.38 91.42 82.73 91.02 83.08 95.17 83.43 95.37 83.78 98.13 84.13 99.12 84.48 100.3 84.83 98.72 85.17 98.53 85.52 100.11 85.87 102.08 86.22 100.11 86.57 98.72 86.92 96.75 87.27 96.95 87.62 97.54 87.97 101.69 88.32 102.67 88.67 102.08 89.02 101.88 89.36 108.4 89.71 108.8 90.06 106.82 90.41 108.2 90.76 107.81 91.11 113.93 91.46 110.97 91.81 110.77 92.16 109.39 92.51 111.56 92.86 109.19 93.2 111.36 93.55 106.62 93.9 107.22 94.25 107.41 94.6 106.82 94.95 109.78 95.3 110.38 95.65 109.78 96 111.17 96.35 109.78 96.7 108.01 97.05 108.99 97.39 107.22 97.74 105.64 98.09 108.01 98.44 109.98 98.79 111.36 99.14 108.2 99.49 105.24 99.84 104.06 100.19 109.98 100.54 113.14 100.89 114.52 101.23 118.28 101.58 120.05 101.93 119.46 102.28 119.66 102.63 120.05 102.98 120.65 103.33 120.25 103.68 121.63 104.03 123.61 104.38 125.78 104.73 124.6 105.08 125.39 105.42 125.58 105.77 126.18 106.12 126.57 106.47 125.98 106.82 126.37 107.17 127.16 107.52 127.36 107.87 126.97 108.22 127.95 108.57 128.35 108.92 129.34 109.26 129.73 109.61 129.73 109.96 130.13 110.31 130.13 110.66 128.74 111.01 128.94 111.36 130.52 111.71 130.72 112.06 130.92 112.41 130.92 112.76 130.72 113.11 130.92 113.45 130.92 113.8 130.92 114.15 130.92 114.5 131.11"/>
      </g>
    </g>
  </g>
</g>
  <g class="guide ylabels" font-size="2.82" font-family="'PT Sans Caption','Helvetica Neue','Helvetica',sans-serif" fill="#000000" id="img-b5eaf3ac-20">
    <text x="18.63" y="131.11" text-anchor="end" dy="0.35em">0</text>
    <text x="18.63" y="111.36" text-anchor="end" dy="0.35em">100</text>
    <text x="18.63" y="91.61" text-anchor="end" dy="0.35em">200</text>
    <text x="18.63" y="71.86" text-anchor="end" dy="0.35em">300</text>
    <text x="18.63" y="52.11" text-anchor="end" dy="0.35em">400</text>
    <text x="18.63" y="32.36" text-anchor="end" dy="0.35em">500</text>
    <text x="18.63" y="12.61" text-anchor="end" dy="0.35em">600</text>
  </g>
  <g font-size="3.88" font-family="'PT Sans','Helvetica Neue','Helvetica',sans-serif" fill="#000000" stroke="#000000" stroke-opacity="0.000" id="img-b5eaf3ac-21">
    <text x="8.81" y="69.86" text-anchor="middle" dy="0.35em" transform="rotate(-90, 8.81, 71.86)">population number</text>
  </g>
  <g font-size="3.88" font-family="'PT Sans','Helvetica Neue','Helvetica',sans-serif" fill="#000000" stroke="#000000" stroke-opacity="0.000" id="img-b5eaf3ac-22">
    <text x="108.92" y="5" text-anchor="middle" dy="0.6em">genetic drift</text>
  </g>
</g>
<defs>
  <clipPath id="img-b5eaf3ac-4">
  <path d="M19.63,10.61 L 198.2 10.61 198.2 133.11 19.63 133.11" />
</clipPath>
</defs>
</svg>
