<?xml version="1.0" encoding="UTF-8"?>
<svg xmlns="http://www.w3.org/2000/svg"
     xmlns:xlink="http://www.w3.org/1999/xlink"
     xmlns:gadfly="http://www.gadflyjl.org/ns"
     version="1.2"
     width="203.2mm" height="152.4mm" viewBox="0 0 203.2 152.4"
     stroke="none"
     fill="#000000"
     stroke-width="0.3"
     font-size="3.88"
>
<g class="plotroot xscalable yscalable" id="img-610b94b9-1">
  <g font-size="3.88" font-family="'PT Sans','Helvetica Neue','Helvetica',sans-serif" fill="#000000" stroke="#000000" stroke-opacity="0.000" id="img-610b94b9-2">
    <text x="109.75" y="140.79" text-anchor="middle" dy="0.6em">generation number</text>
  </g>
  <g class="guide xlabels" font-size="2.82" font-family="'PT Sans Caption','Helvetica Neue','Helvetica',sans-serif" fill="#000000" id="img-610b94b9-3">
    <text x="23.31" y="134.11" text-anchor="middle" dy="0.6em">0</text>
    <text x="57.88" y="134.11" text-anchor="middle" dy="0.6em">100</text>
    <text x="92.46" y="134.11" text-anchor="middle" dy="0.6em">200</text>
    <text x="127.04" y="134.11" text-anchor="middle" dy="0.6em">300</text>
    <text x="161.62" y="134.11" text-anchor="middle" dy="0.6em">400</text>
    <text x="196.2" y="134.11" text-anchor="middle" dy="0.6em">500</text>
  </g>
<g clip-path="url(#img-610b94b9-4)">
  <g id="img-610b94b9-5">
    <g pointer-events="visible" opacity="1" fill="#FFFFFF" stroke="#000000" stroke-opacity="0.000" class="guide background" id="img-610b94b9-6">
      <rect x="21.31" y="10.61" width="176.89" height="122.5"/>
    </g>
    <g class="guide ygridlines xfixed" stroke-dasharray="0.5,0.5" stroke-width="0.2" stroke="#808080" id="img-610b94b9-7">
      <path fill="none" d="M21.31,131.11 L 198.2 131.11"/>
      <path fill="none" d="M21.31,71.86 L 198.2 71.86"/>
      <path fill="none" d="M21.31,12.61 L 198.2 12.61"/>
    </g>
    <g class="guide xgridlines yfixed" stroke-dasharray="0.5,0.5" stroke-width="0.2" stroke="#808080" id="img-610b94b9-8">
      <path fill="none" d="M23.31,10.61 L 23.31 133.11"/>
      <path fill="none" d="M57.88,10.61 L 57.88 133.11"/>
      <path fill="none" d="M92.46,10.61 L 92.46 133.11"/>
      <path fill="none" d="M127.04,10.61 L 127.04 133.11"/>
      <path fill="none" d="M161.62,10.61 L 161.62 133.11"/>
      <path fill="none" d="M196.2,10.61 L 196.2 133.11"/>
    </g>
    <g class="plotpanel" id="img-610b94b9-9">
      <g stroke-width="0.3" fill="#000000" fill-opacity="0.000" class="geometry" stroke-dasharray="none" stroke="#3288BD" id="img-610b94b9-10">
        <path fill="none" d="M23.65,71.86 L 24 72.93 24.34 73.4 24.69 74 25.03 74.83 25.38 75.06 25.73 74.47 26.07 73.4 26.42 75.3 26.76 74.59 27.11 74 27.45 74.71 27.8 74.71 28.15 74.83 28.49 76.48 28.84 77.31 29.18 75.89 29.53 72.22 29.88 74 30.22 69.26 30.57 66.18 30.91 66.06 31.26 67.6 31.6 65.82 31.95 61.79 32.3 61.91 32.64 63.21 32.99 61.44 33.33 63.21 33.68 63.69 34.02 64.04 34.37 64.63 34.72 67.24 35.06 67.72 35.41 71.27 35.75 71.63 36.1 71.15 36.45 70.32 36.79 70.2 37.14 71.03 37.48 71.15 37.83 73.64 38.17 72.57 38.52 71.86 38.87 72.22 39.21 73.64 39.56 72.93 39.9 73.29 40.25 74.71 40.59 70.8 40.94 69.49 41.29 71.98 41.63 73.88 41.98 71.86 42.32 71.15 42.67 66.41 43.02 63.69 43.36 64.87 43.71 62.98 44.05 61.67 44.4 60.25 44.74 63.57 45.09 62.74 45.44 62.86 45.78 62.86 46.13 64.28 46.47 64.52 46.82 63.09 47.16 61.2 47.51 59.42 47.86 58.12 48.2 56.58 48.55 57.05 48.89 58.12 49.24 60.49 49.59 62.38 49.93 64.99 50.28 67.95 50.62 69.49 50.97 67.72 51.31 64.4 51.66 64.28 52.01 65.82 52.35 63.33 52.7 64.63 53.04 62.98 53.39 62.03 53.73 63.57 54.08 62.98 54.43 62.5 54.77 63.21 55.12 65.58 55.46 68.19 55.81 67.72 56.16 70.56 56.5 71.63 56.85 69.37 57.19 68.9 57.54 72.57 57.88 70.09 58.23 66.77 58.58 69.61 58.92 67.95 59.27 68.78 59.61 69.02 59.96 69.37 60.3 69.49 60.65 68.19 61 64.63 61.34 63.69 61.69 64.52 62.03 65.94 62.38 63.81 62.73 61.91 63.07 61.55 63.42 63.45 63.76 62.03 64.11 64.52 64.45 66.18 64.8 63.09 65.15 64.28 65.49 64.63 65.84 64.04 66.18 63.81 66.53 66.29 66.87 69.37 67.22 72.22 67.57 72.57 67.91 73.64 68.26 75.18 68.6 77.43 68.95 76.25 69.3 73.88 69.64 76.96 69.99 76.96 70.33 75.77 70.68 75.42 71.02 76.25 71.37 72.69 71.72 74 72.06 70.68 72.41 72.46 72.75 74.11 73.1 74.35 73.44 73.88 73.79 74 74.14 75.66 74.48 74.71 74.83 76.37 75.17 76.25 75.52 75.89 75.87 78.74 76.21 78.38 76.56 81.58 76.9 83.12 77.25 84.42 77.59 85.14 77.94 86.08 78.29 85.73 78.63 85.85 78.98 86.08 79.32 84.31 79.67 83.6 80.01 83.95 80.36 85.14 80.71 85.02 81.05 81.58 81.4 79.92 81.74 76.25 82.09 76.72 82.44 77.55 82.78 75.77 83.13 74.23 83.47 74 83.82 74.94 84.16 78.74 84.51 77.79 84.86 75.54 85.2 73.4 85.55 74.59 85.89 77.67 86.24 77.91 86.58 79.8 86.93 79.21 87.28 79.57 87.62 78.14 87.97 75.89 88.31 73.17 88.66 75.66 89.01 78.5 89.35 77.79 89.7 78.38 90.04 79.68 90.39 77.43 90.73 74.83 91.08 75.77 91.43 76.37 91.77 78.03 92.12 79.45 92.46 79.68 92.81 78.74 93.15 79.45 93.5 73.88 93.85 75.42 94.19 75.54 94.54 74.11 94.88 74.35 95.23 74.83 95.58 72.1 95.92 72.46 96.27 70.68 96.61 73.29 96.96 75.18 97.3 72.69 97.65 73.88 98 75.66 98.34 76.01 98.69 74.71 99.03 76.72 99.38 76.48 99.72 72.81 100.07 71.98 100.42 69.73 100.76 69.97 101.11 71.51 101.45 70.56 101.8 73.52 102.15 72.93 102.49 76.13 102.84 76.13 103.18 78.14 103.53 79.68 103.87 78.86 104.22 80.4 104.57 81.11 104.91 78.86 105.26 78.14 105.6 79.21 105.95 77.79 106.29 78.03 106.64 75.54 106.99 73.05 107.33 74.71 107.68 75.18 108.02 75.77 108.37 76.84 108.72 73.88 109.06 73.17 109.41 75.06 109.75 74.83 110.1 73.4 110.44 71.86 110.79 73.4 111.14 73.88 111.48 75.54 111.83 73.52 112.17 73.17 112.52 72.34 112.86 72.22 113.21 69.26 113.56 67.48 113.9 67.24 114.25 65.94 114.59 63.33 114.94 63.45 115.29 57.41 115.63 55.27 115.98 56.22 116.32 56.93 116.67 60.01 117.01 58.83 117.36 59.18 117.71 59.42 118.05 60.49 118.4 60.84 118.74 60.49 119.09 60.49 119.43 60.25 119.78 58.12 120.13 61.08 120.47 57.05 120.82 56.93 121.16 57.88 121.51 59.18 121.86 60.37 122.2 60.49 122.55 60.72 122.89 60.72 123.24 61.91 123.58 59.54 123.93 60.72 124.28 60.01 124.62 59.18 124.97 61.2 125.31 61.44 125.66 63.92 126 67.12 126.35 63.69 126.7 65.23 127.04 67.6 127.39 69.26 127.73 66.29 128.08 69.97 128.43 69.73 128.77 71.51 129.12 73.52 129.46 72.93 129.81 73.17 130.15 71.03 130.5 70.8 130.85 77.79 131.19 73.64 131.54 72.22 131.88 74.59 132.23 74.71 132.57 76.25 132.92 76.25 133.27 77.91 133.61 78.03 133.96 77.67 134.3 81.11 134.65 80.99 135 81.23 135.34 81.58 135.69 81.23 136.03 82.65 136.38 80.04 136.72 78.14 137.07 80.04 137.42 77.79 137.76 78.38 138.11 77.43 138.45 78.74 138.8 78.74 139.14 76.48 139.49 78.74 139.84 77.2 140.18 78.62 140.53 78.03 140.87 78.03 141.22 79.45 141.57 77.2 141.91 75.42 142.26 75.54 142.6 74.11 142.95 71.74 143.29 71.39 143.64 71.98 143.99 76.25 144.33 78.97 144.68 78.03 145.02 79.09 145.37 79.21 145.71 78.14 146.06 78.26 146.41 75.42 146.75 78.97 147.1 79.33 147.44 79.92 147.79 81.7 148.14 83.36 148.48 78.14 148.83 79.33 149.17 76.01 149.52 78.86 149.86 74.83 150.21 77.31 150.56 76.13 150.9 77.08 151.25 78.14 151.59 78.62 151.94 77.91 152.28 79.45 152.63 79.45 152.98 76.48 153.32 77.55 153.67 75.54 154.01 76.13 154.36 74.83 154.71 73.17 155.05 72.81 155.4 74.35 155.74 77.67 156.09 76.01 156.43 80.99 156.78 79.8 157.13 82.05 157.47 82.17 157.82 86.44 158.16 87.15 158.51 85.14 158.85 83.36 159.2 83.48 159.55 81.58 159.89 82.17 160.24 82.41 160.58 82.41 160.93 81.82 161.28 82.65 161.62 86.08 161.97 87.03 162.31 87.39 162.66 91.06 163 87.86 163.35 88.57 163.7 90.23 164.04 88.69 164.39 88.34 164.73 90.11 165.08 91.18 165.42 89.76 165.77 91.77 166.12 92.01 166.46 91.42 166.81 89.76 167.15 92.72 167.5 92.13 167.85 90.59 168.19 89.76 168.54 91.77 168.88 92.48 169.23 92.01 169.57 90.35 169.92 91.77 170.27 90.82 170.61 90.71 170.96 90.11 171.3 90.23 171.65 90.23 171.99 91.3 172.34 90.82 172.69 89.88 173.03 91.42 173.38 90.94 173.72 91.06 174.07 91.65 174.42 90.47 174.76 88.22 175.11 88.81 175.45 84.54 175.8 85.85 176.14 82.77 176.49 80.51 176.84 78.5 177.18 76.48 177.53 77.55 177.87 77.67 178.22 78.74 178.56 76.13 178.91 75.77 179.26 78.26 179.6 79.33 179.95 81.7 180.29 84.42 180.64 83.6 180.99 81.58 181.33 83 181.68 84.54 182.02 86.91 182.37 86.32 182.71 86.68 183.06 83 183.41 83.83 183.75 85.85 184.1 85.37 184.44 83.95 184.79 84.31 185.13 84.19 185.48 87.15 185.83 88.57 186.17 86.08 186.52 86.08 186.86 86.08 187.21 84.07 187.56 83.95 187.9 88.34 188.25 86.79 188.59 83.71 188.94 85.73 189.28 85.25 189.63 86.08 189.98 88.93 190.32 87.03 190.67 85.37 191.01 86.08 191.36 85.73 191.7 85.49 192.05 86.2 192.4 86.91 192.74 84.66 193.09 88.81 193.43 87.27 193.78 85.14 194.13 83.36 194.47 83 194.82 80.28 195.16 81.23 195.51 81.7 195.85 81.34 196.2 83.12"/>
      </g>
      <g stroke-width="0.3" fill="#000000" fill-opacity="0.000" class="geometry" stroke-dasharray="none" stroke="#66C2A5" id="img-610b94b9-11">
        <path fill="none" d="M23.65,71.86 L 24 68.66 24.34 67.24 24.69 65.94 25.03 63.45 25.38 64.99 25.73 68.07 26.07 64.99 26.42 65.94 26.76 62.38 27.11 62.5 27.45 60.84 27.8 58.95 28.15 54.8 28.49 55.15 28.84 52.9 29.18 55.75 29.53 54.21 29.88 54.21 30.22 53.85 30.57 53.97 30.91 53.61 31.26 54.09 31.6 53.14 31.95 50.65 32.3 51.6 32.64 52.55 32.99 52.78 33.33 51.01 33.68 51.48 34.02 54.21 34.37 54.8 34.72 56.69 35.06 60.49 35.41 61.2 35.75 59.78 36.1 58.35 36.45 57.76 36.79 60.37 37.14 59.78 37.48 58.95 37.83 56.93 38.17 59.66 38.52 58.12 38.87 56.1 39.21 55.87 39.56 57.41 39.9 61.08 40.25 63.09 40.59 64.75 40.94 62.98 41.29 62.15 41.63 62.62 41.98 61.44 42.32 60.84 42.67 63.09 43.02 66.89 43.36 68.31 43.71 66.65 44.05 68.55 44.4 68.9 44.74 68.55 45.09 68.66 45.44 70.09 45.78 67.24 46.13 69.14 46.47 71.39 46.82 68.43 47.16 68.19 47.51 68.55 47.86 68.55 48.2 66.41 48.55 67.83 48.89 65.58 49.24 65.23 49.59 65.58 49.93 65.58 50.28 61.44 50.62 61.67 50.97 61.2 51.31 62.62 51.66 58.59 52.01 58.83 52.35 59.3 52.7 58.47 53.04 56.81 53.39 56.81 53.73 56.46 54.08 55.75 54.43 56.1 54.77 56.1 55.12 60.37 55.46 62.15 55.81 64.28 56.16 63.92 56.5 66.65 56.85 64.87 57.19 64.87 57.54 63.57 57.88 61.91 58.23 61.55 58.58 62.15 58.92 62.26 59.27 60.25 59.61 62.03 59.96 63.45 60.3 60.37 60.65 61.32 61 59.3 61.34 55.51 61.69 55.75 62.03 55.15 62.38 55.63 62.73 54.09 63.07 53.14 63.42 49.35 63.76 48.28 64.11 47.81 64.45 46.86 64.8 43.78 65.15 45.32 65.49 43.9 65.84 45.44 66.18 46.39 66.53 47.21 66.87 48.64 67.22 50.41 67.57 51.6 67.91 50.3 68.26 52.07 68.6 52.19 68.95 51.6 69.3 52.43 69.64 52.19 69.99 54.44 70.33 54.68 70.68 54.8 71.02 57.52 71.37 56.46 71.72 58.83 72.06 56.93 72.41 57.88 72.75 59.89 73.1 62.74 73.44 63.33 73.79 63.21 74.14 61.44 74.48 59.78 74.83 60.61 75.17 59.06 75.52 58.47 75.87 60.84 76.21 60.37 76.56 57.41 76.9 55.04 77.25 52.07 77.59 54.8 77.94 56.93 78.29 56.69 78.63 56.93 78.98 59.42 79.32 60.13 79.67 58.71 80.01 56.93 80.36 59.42 80.71 56.93 81.05 55.75 81.4 58.24 81.74 57.76 82.09 56.81 82.44 59.06 82.78 57.05 83.13 55.63 83.47 56.93 83.82 56.81 84.16 54.32 84.51 52.78 84.86 52.43 85.2 50.3 85.55 50.06 85.89 48.28 86.24 47.81 86.58 51.01 86.93 52.67 87.28 55.15 87.62 56.1 87.97 55.51 88.31 54.92 88.66 54.56 89.01 52.9 89.35 51.95 89.7 52.07 90.04 51.84 90.39 53.97 90.73 53.97 91.08 52.67 91.43 48.99 91.77 52.07 92.12 49.11 92.46 49.11 92.81 50.41 93.15 51.24 93.5 48.76 93.85 50.41 94.19 51.24 94.54 53.02 94.88 51.24 95.23 51.95 95.58 54.21 95.92 59.3 96.27 61.67 96.61 63.57 96.96 61.08 97.3 61.32 97.65 58.71 98 60.84 98.34 58.35 98.69 58.12 99.03 59.66 99.38 55.98 99.72 58.47 100.07 59.42 100.42 61.67 100.76 61.32 101.11 60.61 101.45 59.78 101.8 57.76 102.15 57.52 102.49 57.64 102.84 59.18 103.18 60.72 103.53 60.13 103.87 60.37 104.22 59.06 104.57 60.13 104.91 59.54 105.26 59.42 105.6 55.63 105.95 55.63 106.29 57.64 106.64 61.08 106.99 62.03 107.33 63.21 107.68 62.38 108.02 60.96 108.37 62.15 108.72 61.67 109.06 63.57 109.41 62.74 109.75 62.5 110.1 64.63 110.44 67.24 110.79 65.58 111.14 65.7 111.48 66.41 111.83 65.11 112.17 66.18 112.52 63.57 112.86 63.69 113.21 62.74 113.56 63.45 113.9 65.35 114.25 63.33 114.59 63.92 114.94 65.7 115.29 65.23 115.63 68.31 115.98 70.32 116.32 73.17 116.67 74.11 117.01 76.25 117.36 73.05 117.71 75.66 118.05 75.66 118.4 76.13 118.74 77.31 119.09 77.08 119.43 76.84 119.78 76.96 120.13 78.97 120.47 78.97 120.82 80.51 121.16 81.7 121.51 78.26 121.86 76.6 122.2 74.47 122.55 75.77 122.89 78.86 123.24 79.68 123.58 77.31 123.93 77.08 124.28 78.62 124.62 76.72 124.97 78.74 125.31 78.03 125.66 78.86 126 79.21 126.35 80.16 126.7 82.05 127.04 82.41 127.39 82.17 127.73 79.57 128.08 78.14 128.43 78.5 128.77 78.5 129.12 79.92 129.46 82.17 129.81 78.86 130.15 80.75 130.5 79.21 130.85 78.26 131.19 78.03 131.54 75.66 131.88 75.66 132.23 76.13 132.57 72.46 132.92 69.02 133.27 69.85 133.61 70.44 133.96 71.74 134.3 69.49 134.65 70.2 135 72.46 135.34 73.76 135.69 73.05 136.03 73.17 136.38 75.54 136.72 77.2 137.07 77.2 137.42 78.5 137.76 77.91 138.11 78.86 138.45 82.88 138.8 86.79 139.14 87.03 139.49 83 139.84 83.83 140.18 84.31 140.53 84.54 140.87 86.08 141.22 87.39 141.57 89.16 141.91 90.59 142.26 92.84 142.6 93.31 142.95 95.68 143.29 95.68 143.64 99.12 143.99 99.12 144.33 100.9 144.68 101.37 145.02 102.79 145.37 101.84 145.71 101.61 146.06 104.45 146.41 103.27 146.75 103.03 147.1 104.1 147.44 104.93 147.79 104.45 148.14 105.52 148.48 103.86 148.83 105.04 149.17 104.69 149.52 106.47 149.86 108.72 150.21 109.31 150.56 112.04 150.9 113.81 151.25 112.15 151.59 112.75 151.94 112.51 152.28 112.98 152.63 113.58 152.98 114.88 153.32 115 153.67 112.27 154.01 111.44 154.36 110.14 154.71 109.78 155.05 108.72 155.4 107.06 155.74 110.5 156.09 110.26 156.43 110.02 156.78 109.43 157.13 110.38 157.47 110.38 157.82 111.56 158.16 112.27 158.51 113.46 158.85 112.27 159.2 114.17 159.55 114.17 159.89 113.81 160.24 113.34 160.58 111.92 160.93 112.27 161.28 110.02 161.62 109.19 161.97 111.92 162.31 110.26 162.66 109.55 163 110.73 163.35 110.38 163.7 108.95 164.04 110.38 164.39 112.87 164.73 111.44 165.08 111.09 165.42 113.46 165.77 114.52 166.12 117.49 166.46 116.07 166.81 114.88 167.15 114.88 167.5 115 167.85 114.05 168.19 115.71 168.54 115.95 168.88 117.84 169.23 119.62 169.57 120.69 169.92 120.21 170.27 120.69 170.61 121.16 170.96 120.69 171.3 120.92 171.65 122.94 171.99 122.58 172.34 121.52 172.69 121.16 173.03 120.57 173.38 119.74 173.72 121.52 174.07 122.82 174.42 123.29 174.76 124.36 175.11 123.77 175.45 123.89 175.8 122.23 176.14 122.94 176.49 123.29 176.84 124.24 177.18 123.65 177.53 121.63 177.87 120.09 178.22 118.91 178.56 118.08 178.91 117.37 179.26 118.08 179.6 118.67 179.95 119.15 180.29 118.2 180.64 118.91 180.99 118.55 181.33 118.91 181.68 118.67 182.02 117.49 182.37 119.38 182.71 119.26 183.06 115.59 183.41 114.17 183.75 113.7 184.1 111.8 184.44 112.51 184.79 111.21 185.13 110.14 185.48 109.9 185.83 111.68 186.17 111.68 186.52 112.87 186.86 111.56 187.21 112.39 187.56 114.29 187.9 117.01 188.25 115.83 188.59 115.71 188.94 117.25 189.28 117.37 189.63 118.32 189.98 115.24 190.32 117.96 190.67 118.44 191.01 118.2 191.36 118.67 191.7 116.3 192.05 116.3 192.4 115.59 192.74 116.78 193.09 114.76 193.43 114.88 193.78 112.04 194.13 112.27 194.47 112.15 194.82 112.75 195.16 113.7 195.51 111.56 195.85 112.75 196.2 111.21"/>
      </g>
      <g stroke-width="0.3" fill="#000000" fill-opacity="0.000" class="geometry" stroke-dasharray="none" stroke="#ABDDA4" id="img-610b94b9-12">
        <path fill="none" d="M23.65,71.86 L 24 73.29 24.34 73.4 24.69 74.59 25.03 74.83 25.38 74.83 25.73 75.18 26.07 73.17 26.42 70.56 26.76 71.51 27.11 69.85 27.45 71.98 27.8 69.14 28.15 69.73 28.49 68.07 28.84 68.07 29.18 67.95 29.53 65.35 29.88 65.58 30.22 68.19 30.57 69.73 30.91 72.1 31.26 70.56 31.6 72.81 31.95 73.52 32.3 72.57 32.64 69.14 32.99 68.9 33.33 69.14 33.68 66.53 34.02 61.55 34.37 62.62 34.72 61.2 35.06 59.18 35.41 58.95 35.75 59.54 36.1 58.12 36.45 58 36.79 56.93 37.14 57.05 37.48 54.68 37.83 54.56 38.17 54.32 38.52 54.56 38.87 51.36 39.21 50.53 39.56 53.14 39.9 55.51 40.25 56.22 40.59 60.61 40.94 60.84 41.29 62.03 41.63 61.55 41.98 60.72 42.32 60.13 42.67 57.52 43.02 58.59 43.36 56.46 43.71 54.92 44.05 52.43 44.4 51.13 44.74 47.69 45.09 50.77 45.44 49.7 45.78 49.82 46.13 51.48 46.47 53.85 46.82 54.56 47.16 51.6 47.51 49.82 47.86 49.23 48.2 51.36 48.55 54.21 48.89 54.92 49.24 56.93 49.59 58.12 49.93 59.66 50.28 59.78 50.62 61.2 50.97 61.44 51.31 62.74 51.66 63.09 52.01 59.18 52.35 59.06 52.7 58.47 53.04 56.58 53.39 56.22 53.73 56.1 54.08 53.38 54.43 50.41 54.77 47.1 55.12 44.37 55.46 43.54 55.81 45.08 56.16 43.42 56.5 43.42 56.85 42.59 57.19 44.49 57.54 46.27 57.88 44.02 58.23 42 58.58 43.3 58.92 45.32 59.27 44.49 59.61 41.88 59.96 40.34 60.3 43.07 60.65 43.07 61 43.66 61.34 42.47 61.69 42.59 62.03 43.54 62.38 41.05 62.73 41.41 63.07 40.82 63.42 39.87 63.76 43.9 64.11 44.49 64.45 46.74 64.8 48.76 65.15 49.11 65.49 47.57 65.84 48.16 66.18 49.23 66.53 48.16 66.87 48.4 67.22 47.21 67.57 48.28 67.91 47.69 68.26 48.4 68.6 45.32 68.95 44.84 69.3 45.91 69.64 46.98 69.99 47.21 70.33 48.04 70.68 51.36 71.02 50.53 71.37 51.13 71.72 51.6 72.06 51.84 72.41 49.58 72.75 51.95 73.1 54.09 73.44 54.92 73.79 51.24 74.14 49.11 74.48 49.35 74.83 48.28 75.17 48.52 75.52 48.64 75.87 47.81 76.21 48.52 76.56 47.45 76.9 45.91 77.25 47.21 77.59 46.5 77.94 45.79 78.29 44.84 78.63 44.61 78.98 45.2 79.32 44.84 79.67 45.08 80.01 45.2 80.36 45.44 80.71 45.67 81.05 44.84 81.4 46.15 81.74 46.5 82.09 48.04 82.44 47.57 82.78 47.81 83.13 48.04 83.47 47.33 83.82 50.06 84.16 49.94 84.51 48.99 84.86 44.13 85.2 44.25 85.55 45.91 85.89 43.42 86.24 43.42 86.58 42.83 86.93 44.13 87.28 46.62 87.62 44.73 87.97 42.71 88.31 42.12 88.66 42.24 89.01 40.82 89.35 40.93 89.7 41.53 90.04 41.53 90.39 41.88 90.73 43.66 91.08 42.59 91.43 43.78 91.77 42.71 92.12 42.24 92.46 43.42 92.81 44.84 93.15 44.13 93.5 43.78 93.85 41.17 94.19 43.42 94.54 44.13 94.88 48.16 95.23 45.08 95.58 48.04 95.92 49.94 96.27 44.61 96.61 45.67 96.96 47.69 97.3 49.35 97.65 52.31 98 56.1 98.34 54.8 98.69 54.8 99.03 52.43 99.38 51.01 99.72 50.77 100.07 53.97 100.42 55.51 100.76 57.52 101.11 57.29 101.45 58.24 101.8 59.89 102.15 64.75 102.49 67.12 102.84 69.14 103.18 71.63 103.53 73.05 103.87 75.89 104.22 76.84 104.57 74.83 104.91 72.81 105.26 71.74 105.6 72.1 105.95 72.34 106.29 72.69 106.64 73.88 106.99 74.59 107.33 74.59 107.68 76.37 108.02 77.55 108.37 77.08 108.72 73.64 109.06 74.11 109.41 74.23 109.75 75.18 110.1 72.46 110.44 73.29 110.79 74.11 111.14 74.35 111.48 73.76 111.83 73.05 112.17 74.47 112.52 73.88 112.86 73.52 113.21 74 113.56 74.47 113.9 73.64 114.25 75.06 114.59 75.3 114.94 74.83 115.29 76.72 115.63 75.18 115.98 76.6 116.32 77.79 116.67 79.45 117.01 80.63 117.36 80.99 117.71 76.37 118.05 76.25 118.4 74.23 118.74 71.74 119.09 71.86 119.43 71.51 119.78 71.98 120.13 73.64 120.47 72.93 120.82 72.57 121.16 69.14 121.51 69.49 121.86 71.86 122.2 71.03 122.55 72.93 122.89 71.98 123.24 73.17 123.58 75.77 123.93 74.71 124.28 72.93 124.62 73.4 124.97 72.57 125.31 69.85 125.66 72.34 126 70.56 126.35 67.72 126.7 67 127.04 71.03 127.39 69.73 127.73 67.48 128.08 67.48 128.43 68.78 128.77 71.74 129.12 71.86 129.46 74.83 129.81 76.84 130.15 77.08 130.5 78.03 130.85 74.35 131.19 76.72 131.54 77.08 131.88 77.2 132.23 72.57 132.57 73.64 132.92 73.17 133.27 75.66 133.61 77.55 133.96 79.92 134.3 80.51 134.65 81.11 135 80.63 135.34 81.46 135.69 84.31 136.03 84.07 136.38 80.51 136.72 80.87 137.07 83.6 137.42 82.05 137.76 80.04 138.11 79.57 138.45 80.16 138.8 77.67 139.14 76.25 139.49 77.43 139.84 75.18 140.18 74 140.53 75.42 140.87 74.11 141.22 74.23 141.57 72.22 141.91 72.22 142.26 71.86 142.6 70.92 142.95 71.86 143.29 71.39 143.64 71.86 143.99 72.81 144.33 71.63 144.68 73.76 145.02 74.71 145.37 74.59 145.71 72.1 146.06 70.09 146.41 74.59 146.75 74.71 147.1 75.89 147.44 71.51 147.79 71.86 148.14 70.68 148.48 71.98 148.83 74.83 149.17 74.94 149.52 70.92 149.86 70.44 150.21 68.9 150.56 67.48 150.9 67.95 151.25 65.7 151.59 65.7 151.94 66.18 152.28 68.07 152.63 70.44 152.98 71.15 153.32 68.07 153.67 66.65 154.01 65.11 154.36 65.82 154.71 63.33 155.05 59.89 155.4 56.22 155.74 58.12 156.09 58.83 156.43 57.17 156.78 54.56 157.13 56.1 157.47 55.27 157.82 55.51 158.16 54.56 158.51 53.73 158.85 57.41 159.2 59.3 159.55 58.83 159.89 60.01 160.24 60.37 160.58 60.01 160.93 59.89 161.28 58.59 161.62 57.88 161.97 59.18 162.31 57.17 162.66 54.92 163 52.43 163.35 54.44 163.7 54.44 164.04 50.53 164.39 50.65 164.73 52.55 165.08 53.5 165.42 51.95 165.77 52.07 166.12 52.31 166.46 50.3 166.81 51.72 167.15 51.72 167.5 52.67 167.85 50.77 168.19 51.48 168.54 50.53 168.88 47.57 169.23 45.79 169.57 48.28 169.92 45.91 170.27 46.86 170.61 46.74 170.96 47.81 171.3 47.69 171.65 49.58 171.99 49.82 172.34 51.95 172.69 52.31 173.03 53.61 173.38 56.34 173.72 57.41 174.07 54.92 174.42 55.27 174.76 54.68 175.11 54.09 175.45 52.78 175.8 53.73 176.14 58 176.49 58.83 176.84 60.25 177.18 62.03 177.53 60.96 177.87 60.96 178.22 56.34 178.56 53.73 178.91 51.95 179.26 52.43 179.6 51.36 179.95 51.36 180.29 51.72 180.64 53.85 180.99 51.48 181.33 50.89 181.68 52.31 182.02 53.26 182.37 51.48 182.71 51.6 183.06 54.32 183.41 55.27 183.75 54.44 184.1 54.44 184.44 51.01 184.79 49.11 185.13 49.58 185.48 50.77 185.83 48.87 186.17 46.98 186.52 44.25 186.86 44.84 187.21 47.45 187.56 48.52 187.9 50.18 188.25 47.21 188.59 46.03 188.94 47.57 189.28 47.21 189.63 45.44 189.98 47.33 190.32 48.87 190.67 50.41 191.01 51.13 191.36 51.24 191.7 52.31 192.05 50.77 192.4 51.36 192.74 50.18 193.09 49.11 193.43 52.19 193.78 53.73 194.13 53.14 194.47 51.36 194.82 52.78 195.16 53.14 195.51 51.72 195.85 51.72 196.2 48.4"/>
      </g>
      <g stroke-width="0.3" fill="#000000" fill-opacity="0.000" class="geometry" stroke-dasharray="none" stroke="#E6F598" id="img-610b94b9-13">
        <path fill="none" d="M23.65,71.86 L 24 73.88 24.34 74 24.69 78.03 25.03 78.62 25.38 83.48 25.73 85.61 26.07 86.56 26.42 82.17 26.76 83.71 27.11 81.23 27.45 79.8 27.8 78.26 28.15 81.94 28.49 82.65 28.84 83.12 29.18 82.29 29.53 84.78 29.88 84.31 30.22 86.32 30.57 80.99 30.91 79.68 31.26 78.14 31.6 81.94 31.95 81.34 32.3 80.04 32.64 81.94 32.99 82.17 33.33 80.87 33.68 80.28 34.02 81.46 34.37 82.77 34.72 83.48 35.06 82.88 35.41 81.34 35.75 81.34 36.1 80.63 36.45 81.23 36.79 80.04 37.14 82.53 37.48 83.71 37.83 87.27 38.17 86.08 38.52 88.69 38.87 87.98 39.21 87.86 39.56 88.57 39.9 88.34 40.25 89.4 40.59 88.1 40.94 89.28 41.29 88.34 41.63 85.61 41.98 85.25 42.32 88.81 42.67 87.03 43.02 86.68 43.36 89.16 43.71 88.22 44.05 88.34 44.4 87.74 44.74 89.52 45.09 88.45 45.44 91.42 45.78 90.82 46.13 92.13 46.47 88.81 46.82 89.16 47.16 86.44 47.51 87.03 47.86 85.37 48.2 87.51 48.55 85.85 48.89 87.03 49.24 87.39 49.59 86.32 49.93 87.27 50.28 89.16 50.62 90.47 50.97 92.96 51.31 90.35 51.66 91.89 52.01 92.48 52.35 93.9 52.7 92.48 53.04 91.77 53.39 85.85 53.73 90.35 54.08 92.48 54.43 94.26 54.77 94.02 55.12 95.8 55.46 96.51 55.81 93.31 56.16 94.14 56.5 93.31 56.85 93.43 57.19 92.36 57.54 87.15 57.88 92.13 58.23 90.47 58.58 93.55 58.92 92.6 59.27 91.18 59.61 91.77 59.96 91.65 60.3 89.76 60.65 89.52 61 88.34 61.34 90.82 61.69 90.23 62.03 89.16 62.38 89.05 62.73 90.11 63.07 90.71 63.42 87.62 63.76 87.15 64.11 87.51 64.45 87.62 64.8 87.15 65.15 86.44 65.49 88.22 65.84 89.88 66.18 88.22 66.53 88.69 66.87 89.16 67.22 88.81 67.57 89.99 67.91 89.76 68.26 90.35 68.6 84.19 68.95 82.05 69.3 81.94 69.64 83.48 69.99 83.6 70.33 86.08 70.68 87.15 71.02 86.56 71.37 85.97 71.72 86.44 72.06 86.2 72.41 89.64 72.75 91.89 73.1 92.36 73.44 90.23 73.79 87.51 74.14 87.27 74.48 84.66 74.83 87.03 75.17 84.31 75.52 81.7 75.87 87.03 76.21 85.97 76.56 88.81 76.9 89.28 77.25 90.35 77.59 91.53 77.94 89.64 78.29 87.74 78.63 88.81 78.98 89.52 79.32 88.57 79.67 88.57 80.01 88.1 80.36 84.78 80.71 81.11 81.05 82.77 81.4 82.53 81.74 81.7 82.09 81.23 82.44 82.53 82.78 84.54 83.13 84.9 83.47 84.78 83.82 84.9 84.16 87.51 84.51 88.34 84.86 86.79 85.2 88.34 85.55 91.42 85.89 92.72 86.24 94.26 86.58 96.28 86.93 92.36 87.28 92.72 87.62 92.01 87.97 92.72 88.31 93.55 88.66 97.1 89.01 98.65 89.35 97.1 89.7 96.51 90.04 96.16 90.39 94.02 90.73 93.55 91.08 93.43 91.43 93.67 91.77 93.55 92.12 93.55 92.46 92.72 92.81 94.73 93.15 95.56 93.5 94.62 93.85 95.45 94.19 97.1 94.54 100.54 94.88 99.36 95.23 98.88 95.58 97.7 95.92 96.28 96.27 101.02 96.61 101.13 96.96 102.91 97.3 101.25 97.65 98.53 98 94.38 98.34 95.21 98.69 94.38 99.03 97.34 99.38 98.17 99.72 94.5 100.07 93.79 100.42 95.33 100.76 98.05 101.11 96.04 101.45 96.99 101.8 96.63 102.15 96.39 102.49 94.14 102.84 93.31 103.18 92.96 103.53 91.3 103.87 91.3 104.22 89.99 104.57 91.42 104.91 92.36 105.26 91.65 105.6 91.18 105.95 91.77 106.29 92.6 106.64 92.6 106.99 93.79 107.33 96.63 107.68 95.56 108.02 94.97 108.37 92.96 108.72 92.6 109.06 91.77 109.41 91.42 109.75 91.3 110.1 93.31 110.44 94.97 110.79 91.53 111.14 91.42 111.48 93.08 111.83 94.14 112.17 95.21 112.52 94.97 112.86 95.92 113.21 94.38 113.56 91.89 113.9 92.13 114.25 92.13 114.59 95.45 114.94 97.93 115.29 97.93 115.63 96.51 115.98 97.93 116.32 96.87 116.67 97.1 117.01 93.67 117.36 95.8 117.71 99.24 118.05 98.17 118.4 97.46 118.74 100.9 119.09 100.07 119.43 100.07 119.78 99.71 120.13 98.65 120.47 96.39 120.82 99 121.16 100.19 121.51 100.9 121.86 101.61 122.2 99.36 122.55 99.95 122.89 96.99 123.24 96.51 123.58 98.17 123.93 96.39 124.28 96.51 124.62 95.33 124.97 93.08 125.31 91.77 125.66 89.99 126 90.59 126.35 90.11 126.7 90.82 127.04 89.99 127.39 91.18 127.73 87.62 128.08 87.98 128.43 86.68 128.77 86.91 129.12 88.81 129.46 87.15 129.81 86.68 130.15 87.15 130.5 88.34 130.85 89.28 131.19 87.98 131.54 90.23 131.88 85.85 132.23 85.73 132.57 85.61 132.92 85.25 133.27 84.07 133.61 84.54 133.96 85.02 134.3 82.05 134.65 85.02 135 86.32 135.34 83.48 135.69 86.2 136.03 84.19 136.38 85.14 136.72 87.51 137.07 90.71 137.42 91.18 137.76 91.18 138.11 87.62 138.45 86.56 138.8 85.02 139.14 85.49 139.49 84.19 139.84 86.2 140.18 84.9 140.53 85.14 140.87 84.31 141.22 86.08 141.57 88.34 141.91 89.99 142.26 91.06 142.6 91.3 142.95 90.71 143.29 88.69 143.64 91.18 143.99 92.6 144.33 94.85 144.68 99.12 145.02 100.54 145.37 102.56 145.71 103.03 146.06 102.56 146.41 101.49 146.75 101.02 147.1 100.66 147.44 100.78 147.79 100.54 148.14 99.71 148.48 101.73 148.83 101.02 149.17 103.74 149.52 101.96 149.86 102.56 150.21 101.84 150.56 102.56 150.9 104.1 151.25 104.69 151.59 105.52 151.94 107.06 152.28 109.55 152.63 112.15 152.98 110.73 153.32 109.31 153.67 108.36 154.01 110.5 154.36 111.21 154.71 110.5 155.05 110.85 155.4 108.48 155.74 108.84 156.09 109.43 156.43 106.82 156.78 107.65 157.13 107.41 157.47 107.65 157.82 111.21 158.16 112.63 158.51 113.22 158.85 113.34 159.2 112.87 159.55 111.8 159.89 111.92 160.24 114.05 160.58 113.1 160.93 112.39 161.28 113.34 161.62 113.46 161.97 110.85 162.31 111.56 162.66 110.73 163 111.56 163.35 109.31 163.7 111.92 164.04 112.27 164.39 110.85 164.73 110.97 165.08 111.8 165.42 110.85 165.77 109.07 166.12 108.13 166.46 111.09 166.81 110.97 167.15 110.97 167.5 108.72 167.85 104.69 168.19 106.35 168.54 108.95 168.88 109.55 169.23 109.9 169.57 110.61 169.92 110.26 170.27 110.61 170.61 110.73 170.96 111.09 171.3 110.26 171.65 111.21 171.99 109.78 172.34 109.19 172.69 109.19 173.03 110.97 173.38 110.38 173.72 111.92 174.07 112.15 174.42 110.73 174.76 112.63 175.11 110.97 175.45 111.8 175.8 110.61 176.14 110.61 176.49 112.63 176.84 113.93 177.18 112.98 177.53 110.97 177.87 111.56 178.22 110.97 178.56 109.31 178.91 109.19 179.26 106.7 179.6 104.21 179.95 103.74 180.29 101.84 180.64 103.03 180.99 104.57 181.33 106.82 181.68 108.6 182.02 109.55 182.37 111.32 182.71 110.5 183.06 111.68 183.41 113.58 183.75 114.88 184.1 117.37 184.44 120.21 184.79 119.38 185.13 119.74 185.48 121.63 185.83 121.16 186.17 119.38 186.52 121.04 186.86 122.35 187.21 121.99 187.56 122.7 187.9 121.52 188.25 122.23 188.59 122.35 188.94 121.99 189.28 121.63 189.63 121.4 189.98 120.21 190.32 117.84 190.67 117.13 191.01 117.25 191.36 114.88 191.7 115 192.05 116.18 192.4 115.95 192.74 117.61 193.09 119.15 193.43 119.62 193.78 118.44 194.13 117.37 194.47 117.37 194.82 118.32 195.16 118.91 195.51 119.38 195.85 117.61 196.2 118.91"/>
      </g>
      <g stroke-width="0.3" fill="#000000" fill-opacity="0.000" class="geometry" stroke-dasharray="none" stroke="#FFFFBF" id="img-610b94b9-14">
        <path fill="none" d="M23.65,71.86 L 24 70.44 24.34 71.74 24.69 71.86 25.03 72.93 25.38 74.47 25.73 73.88 26.07 74.35 26.42 71.15 26.76 69.97 27.11 69.85 27.45 71.86 27.8 70.92 28.15 69.02 28.49 71.74 28.84 71.15 29.18 70.56 29.53 71.63 29.88 68.78 30.22 68.9 30.57 71.39 30.91 73.52 31.26 72.22 31.6 73.05 31.95 69.73 32.3 67.83 32.64 65.94 32.99 67.72 33.33 67.24 33.68 66.06 34.02 66.18 34.37 66.06 34.72 63.81 35.06 63.09 35.41 67.48 35.75 65.94 36.1 66.77 36.45 67.12 36.79 64.04 37.14 65.94 37.48 66.41 37.83 66.29 38.17 64.4 38.52 64.4 38.87 65.46 39.21 65.23 39.56 68.43 39.9 66.29 40.25 62.38 40.59 61.79 40.94 62.38 41.29 63.45 41.63 66.89 41.98 64.87 42.32 62.38 42.67 59.78 43.02 60.96 43.36 64.16 43.71 64.99 44.05 66.89 44.4 66.65 44.74 66.65 45.09 71.15 45.44 73.88 45.78 72.81 46.13 69.14 46.47 67.72 46.82 68.9 47.16 69.49 47.51 68.78 47.86 68.66 48.2 66.18 48.55 66.65 48.89 68.07 49.24 70.92 49.59 71.39 49.93 70.68 50.28 72.93 50.62 76.48 50.97 78.5 51.31 76.48 51.66 77.91 52.01 78.62 52.35 79.45 52.7 83.83 53.04 85.73 53.39 89.76 53.73 87.39 54.08 87.62 54.43 87.15 54.77 83.83 55.12 87.15 55.46 87.51 55.81 86.79 56.16 87.15 56.5 86.2 56.85 86.08 57.19 88.34 57.54 83.6 57.88 85.14 58.23 85.37 58.58 87.62 58.92 86.08 59.27 86.56 59.61 87.03 59.96 86.08 60.3 84.19 60.65 84.42 61 85.25 61.34 85.25 61.69 84.9 62.03 82.05 62.38 84.54 62.73 85.02 63.07 87.39 63.42 90.82 63.76 91.77 64.11 92.84 64.45 91.89 64.8 88.93 65.15 88.1 65.49 88.93 65.84 90.59 66.18 90.11 66.53 88.81 66.87 89.64 67.22 89.64 67.57 91.3 67.91 93.43 68.26 92.6 68.6 95.45 68.95 97.1 69.3 100.78 69.64 100.66 69.99 101.25 70.33 99.47 70.68 101.61 71.02 103.27 71.37 102.08 71.72 102.2 72.06 101.37 72.41 103.03 72.75 103.5 73.1 102.32 73.44 103.74 73.79 104.69 74.14 104.93 74.48 102.91 74.83 104.93 75.17 103.62 75.52 102.67 75.87 102.32 76.21 103.27 76.56 102.67 76.9 101.96 77.25 105.4 77.59 105.16 77.94 105.99 78.29 107.41 78.63 107.65 78.98 107.77 79.32 109.19 79.67 108.95 80.01 109.9 80.36 110.61 80.71 110.38 81.05 109.67 81.4 110.97 81.74 113.22 82.09 113.93 82.44 115.47 82.78 113.81 83.13 116.3 83.47 116.89 83.82 117.25 84.16 117.01 84.51 115.35 84.86 118.32 85.2 116.66 85.55 115.35 85.89 116.78 86.24 116.66 86.58 115.95 86.93 116.07 87.28 114.52 87.62 115.47 87.97 116.54 88.31 117.37 88.66 118.91 89.01 119.15 89.35 117.96 89.7 116.54 90.04 115.59 90.39 113.93 90.73 112.51 91.08 114.41 91.43 115.24 91.77 116.78 92.12 117.13 92.46 117.01 92.81 116.54 93.15 117.96 93.5 117.13 93.85 117.84 94.19 117.84 94.54 119.38 94.88 117.37 95.23 117.13 95.58 116.78 95.92 117.37 96.27 116.66 96.61 115.12 96.96 114.64 97.3 115.59 97.65 117.37 98 115.24 98.34 116.54 98.69 116.66 99.03 117.72 99.38 116.54 99.72 115.83 100.07 116.54 100.42 117.13 100.76 116.78 101.11 118.44 101.45 118.91 101.8 119.62 102.15 119.03 102.49 118.55 102.84 117.49 103.18 117.96 103.53 118.2 103.87 118.91 104.22 119.86 104.57 120.09 104.91 121.04 105.26 121.04 105.6 121.75 105.95 120.81 106.29 122.58 106.64 121.52 106.99 122.11 107.33 121.4 107.68 121.52 108.02 120.57 108.37 120.69 108.72 122.23 109.06 120.45 109.41 119.74 109.75 119.38 110.1 120.81 110.44 120.81 110.79 120.45 111.14 117.72 111.48 119.74 111.83 120.92 112.17 121.52 112.52 120.81 112.86 119.38 113.21 122.46 113.56 122.11 113.9 123.06 114.25 124 114.59 122.58 114.94 121.87 115.29 121.63 115.63 121.04 115.98 119.98 116.32 118.32 116.67 119.03 117.01 119.03 117.36 117.37 117.71 117.72 118.05 117.37 118.4 117.13 118.74 117.25 119.09 115.12 119.43 114.88 119.78 112.98 120.13 114.64 120.47 113.93 120.82 114.05 121.16 113.7 121.51 113.93 121.86 114.88 122.2 113.93 122.55 113.7 122.89 113.81 123.24 112.51 123.58 113.81 123.93 115.47 124.28 117.25 124.62 117.96 124.97 119.5 125.31 119.5 125.66 118.55 126 116.89 126.35 117.49 126.7 116.78 127.04 116.42 127.39 117.61 127.73 118.08 128.08 117.84 128.43 117.96 128.77 118.2 129.12 119.5 129.46 120.45 129.81 121.28 130.15 121.75 130.5 120.92 130.85 119.86 131.19 120.45 131.54 121.63 131.88 121.99 132.23 120.92 132.57 120.45 132.92 118.79 133.27 119.03 133.61 118.67 133.96 118.91 134.3 119.26 134.65 120.92 135 122.11 135.34 120.33 135.69 118.91 136.03 118.55 136.38 117.49 136.72 119.26 137.07 118.08 137.42 118.55 137.76 118.67 138.11 117.72 138.45 119.26 138.8 119.86 139.14 120.81 139.49 121.4 139.84 121.52 140.18 121.63 140.53 123.06 140.87 122.7 141.22 121.52 141.57 120.57 141.91 120.92 142.26 120.57 142.6 119.74 142.95 119.62 143.29 119.5 143.64 118.08 143.99 115.47 144.33 115.35 144.68 113.7 145.02 112.87 145.37 113.93 145.71 113.58 146.06 113.7 146.41 112.04 146.75 113.46 147.1 112.51 147.44 111.09 147.79 108.48 148.14 111.32 148.48 112.04 148.83 112.87 149.17 113.34 149.52 114.52 149.86 117.84 150.21 117.25 150.56 118.67 150.9 117.37 151.25 115 151.59 114.64 151.94 112.51 152.28 112.75 152.63 113.34 152.98 114.05 153.32 111.32 153.67 111.68 154.01 112.75 154.36 111.56 154.71 113.46 155.05 112.04 155.4 112.51 155.74 113.34 156.09 113.58 156.43 113.7 156.78 114.41 157.13 116.42 157.47 114.29 157.82 112.87 158.16 113.34 158.51 112.98 158.85 114.88 159.2 114.76 159.55 116.66 159.89 115 160.24 115.47 160.58 115.24 160.93 116.3 161.28 115 161.62 115.83 161.97 117.25 162.31 117.25 162.66 119.03 163 116.18 163.35 116.54 163.7 119.38 164.04 119.74 164.39 117.72 164.73 117.25 165.08 117.13 165.42 117.13 165.77 116.54 166.12 115.71 166.46 116.78 166.81 116.42 167.15 116.54 167.5 116.18 167.85 114.52 168.19 113.1 168.54 114.52 168.88 114.64 169.23 114.17 169.57 113.46 169.92 114.17 170.27 114.64 170.61 116.42 170.96 119.15 171.3 119.62 171.65 119.03 171.99 118.44 172.34 118.79 172.69 116.66 173.03 116.89 173.38 116.66 173.72 116.78 174.07 116.42 174.42 115.95 174.76 116.18 175.11 117.01 175.45 115.95 175.8 115.95 176.14 116.54 176.49 115.47 176.84 114.76 177.18 116.3 177.53 117.25 177.87 115.71 178.22 116.54 178.56 117.84 178.91 116.42 179.26 117.37 179.6 116.07 179.95 116.42 180.29 116.89 180.64 117.72 180.99 117.01 181.33 117.25 181.68 116.89 182.02 116.3 182.37 115.24 182.71 116.3 183.06 116.07 183.41 115.71 183.75 117.13 184.1 116.07 184.44 114.52 184.79 111.32 185.13 110.26 185.48 113.81 185.83 114.29 186.17 116.42 186.52 115.83 186.86 115.59 187.21 113.81 187.56 112.63 187.9 112.15 188.25 112.63 188.59 111.68 188.94 111.21 189.28 112.04 189.63 112.63 189.98 114.88 190.32 113.34 190.67 112.15 191.01 111.56 191.36 112.39 191.7 113.93 192.05 115.59 192.4 117.72 192.74 117.25 193.09 116.3 193.43 116.89 193.78 117.01 194.13 117.84 194.47 117.25 194.82 119.26 195.16 118.44 195.51 119.5 195.85 119.5 196.2 120.21"/>
      </g>
      <g stroke-width="0.3" fill="#000000" fill-opacity="0.000" class="geometry" stroke-dasharray="none" stroke="#FEE08B" id="img-610b94b9-15">
        <path fill="none" d="M23.65,71.86 L 24 71.39 24.34 70.09 24.69 70.8 25.03 73.29 25.38 72.22 25.73 74.35 26.07 76.6 26.42 78.62 26.76 80.16 27.11 83.24 27.45 85.02 27.8 86.2 28.15 87.39 28.49 85.73 28.84 82.77 29.18 82.65 29.53 81.82 29.88 83.12 30.22 83.95 30.57 83.83 30.91 82.41 31.26 84.07 31.6 82.65 31.95 82.53 32.3 82.29 32.64 82.77 32.99 84.9 33.33 84.07 33.68 85.02 34.02 86.79 34.37 87.51 34.72 86.91 35.06 86.32 35.41 85.73 35.75 88.22 36.1 85.02 36.45 87.15 36.79 86.08 37.14 86.56 37.48 84.07 37.83 86.68 38.17 85.85 38.52 89.16 38.87 89.76 39.21 91.18 39.56 91.77 39.9 91.3 40.25 88.69 40.59 87.62 40.94 84.42 41.29 84.07 41.63 86.79 41.98 86.79 42.32 84.07 42.67 80.16 43.02 79.8 43.36 78.38 43.71 78.5 44.05 77.55 44.4 77.43 44.74 76.72 45.09 75.54 45.44 77.67 45.78 78.62 46.13 77.91 46.47 78.97 46.82 78.74 47.16 77.31 47.51 75.66 47.86 78.86 48.2 79.92 48.55 80.28 48.89 78.14 49.24 74.11 49.59 73.17 49.93 74.47 50.28 75.18 50.62 75.42 50.97 75.54 51.31 77.79 51.66 76.72 52.01 78.03 52.35 77.55 52.7 74.47 53.04 75.42 53.39 76.6 53.73 73.76 54.08 71.39 54.43 76.6 54.77 77.91 55.12 74 55.46 75.3 55.81 74.35 56.16 71.98 56.5 70.2 56.85 70.92 57.19 71.74 57.54 67.36 57.88 67.48 58.23 66.41 58.58 67.24 58.92 63.21 59.27 64.63 59.61 67.12 59.96 70.56 60.3 69.49 60.65 67.95 61 67.72 61.34 67.36 61.69 65.23 62.03 64.04 62.38 65.11 62.73 63.33 63.07 62.74 63.42 65.7 63.76 66.53 64.11 61.32 64.45 58.47 64.8 58.12 65.15 57.17 65.49 55.15 65.84 60.25 66.18 63.21 66.53 62.38 66.87 65.11 67.22 64.04 67.57 62.86 67.91 63.45 68.26 63.69 68.6 63.81 68.95 63.92 69.3 63.21 69.64 66.29 69.99 66.06 70.33 64.52 70.68 64.75 71.02 68.07 71.37 67 71.72 67.72 72.06 71.15 72.41 72.81 72.75 73.29 73.1 74.83 73.44 77.55 73.79 80.75 74.14 79.92 74.48 80.16 74.83 78.86 75.17 76.72 75.52 77.55 75.87 76.48 76.21 80.28 76.56 78.38 76.9 78.86 77.25 76.72 77.59 77.67 77.94 74.35 78.29 73.88 78.63 73.4 78.98 76.72 79.32 79.68 79.67 78.74 80.01 73.52 80.36 74.11 80.71 73.17 81.05 71.39 81.4 70.32 81.74 68.31 82.09 67.24 82.44 68.43 82.78 67 83.13 65.23 83.47 63.45 83.82 64.99 84.16 63.92 84.51 62.5 84.86 64.63 85.2 64.63 85.55 63.09 85.89 61.91 86.24 60.96 86.58 64.16 86.93 63.69 87.28 63.45 87.62 60.37 87.97 57.88 88.31 56.22 88.66 57.52 89.01 55.87 89.35 59.54 89.7 61.55 90.04 62.62 90.39 62.98 90.73 62.5 91.08 61.67 91.43 61.2 91.77 61.08 92.12 59.78 92.46 59.78 92.81 57.76 93.15 58 93.5 60.49 93.85 56.93 94.19 58.83 94.54 60.72 94.88 59.54 95.23 57.17 95.58 56.93 95.92 55.63 96.27 55.87 96.61 56.58 96.96 56.81 97.3 58.59 97.65 59.54 98 61.44 98.34 63.45 98.69 62.03 99.03 59.89 99.38 60.96 99.72 58.95 100.07 58.83 100.42 61.2 100.76 61.67 101.11 62.26 101.45 65.7 101.8 68.19 102.15 69.97 102.49 69.61 102.84 70.44 103.18 71.98 103.53 70.44 103.87 65.11 104.22 67.48 104.57 70.2 104.91 66.77 105.26 67.72 105.6 63.45 105.95 64.99 106.29 66.53 106.64 68.07 106.99 69.02 107.33 66.77 107.68 66.65 108.02 68.78 108.37 69.26 108.72 68.55 109.06 70.68 109.41 67.6 109.75 64.87 110.1 67.6 110.44 67 110.79 68.55 111.14 74 111.48 76.25 111.83 75.06 112.17 73.64 112.52 73.29 112.86 74 113.21 74.59 113.56 76.84 113.9 76.72 114.25 73.05 114.59 74.23 114.94 74.59 115.29 75.54 115.63 75.66 115.98 76.72 116.32 77.79 116.67 78.86 117.01 78.97 117.36 79.92 117.71 80.4 118.05 78.5 118.4 76.84 118.74 75.42 119.09 74.71 119.43 74.35 119.78 76.84 120.13 75.42 120.47 75.66 120.82 73.52 121.16 72.46 121.51 72.22 121.86 71.03 122.2 70.68 122.55 68.07 122.89 65.23 123.24 65.58 123.58 66.65 123.93 66.06 124.28 68.66 124.62 71.03 124.97 73.88 125.31 73.76 125.66 73.05 126 74.83 126.35 73.4 126.7 73.88 127.04 72.81 127.39 72.69 127.73 75.3 128.08 76.13 128.43 77.55 128.77 76.96 129.12 74.47 129.46 75.3 129.81 73.76 130.15 75.06 130.5 76.96 130.85 77.67 131.19 75.42 131.54 76.96 131.88 75.77 132.23 78.03 132.57 78.74 132.92 76.84 133.27 78.86 133.61 79.57 133.96 79.45 134.3 81.11 134.65 79.68 135 80.28 135.34 77.91 135.69 77.67 136.03 81.58 136.38 82.41 136.72 83.48 137.07 83.24 137.42 84.19 137.76 84.07 138.11 83.95 138.45 84.19 138.8 84.07 139.14 84.9 139.49 84.78 139.84 81.23 140.18 80.87 140.53 79.92 140.87 80.63 141.22 82.05 141.57 83.36 141.91 78.03 142.26 79.57 142.6 78.97 142.95 82.05 143.29 80.16 143.64 79.45 143.99 77.43 144.33 78.26 144.68 74.11 145.02 72.57 145.37 68.43 145.71 66.18 146.06 67.6 146.41 70.8 146.75 69.73 147.1 68.19 147.44 67.83 147.79 70.44 148.14 68.43 148.48 70.32 148.83 69.14 149.17 65.35 149.52 67.72 149.86 66.53 150.21 65.46 150.56 65.7 150.9 65.23 151.25 68.43 151.59 69.61 151.94 67.48 152.28 69.85 152.63 68.66 152.98 64.99 153.32 63.33 153.67 66.06 154.01 67.72 154.36 63.69 154.71 61.91 155.05 63.33 155.4 58.71 155.74 58.35 156.09 60.84 156.43 63.33 156.78 62.86 157.13 61.08 157.47 60.49 157.82 58.47 158.16 56.58 158.51 54.09 158.85 52.78 159.2 49.58 159.55 51.36 159.89 53.5 160.24 55.75 160.58 58.47 160.93 58.71 161.28 61.55 161.62 64.4 161.97 65.35 162.31 66.18 162.66 64.63 163 64.87 163.35 66.65 163.7 64.87 164.04 66.65 164.39 68.9 164.73 66.53 165.08 67.48 165.42 70.92 165.77 70.44 166.12 70.8 166.46 73.17 166.81 78.5 167.15 80.51 167.5 78.03 167.85 78.14 168.19 77.31 168.54 73.88 168.88 73.76 169.23 70.92 169.57 71.63 169.92 73.76 170.27 71.86 170.61 73.05 170.96 71.86 171.3 73.17 171.65 74.35 171.99 73.64 172.34 73.17 172.69 72.93 173.03 77.43 173.38 76.84 173.72 77.67 174.07 77.91 174.42 79.33 174.76 77.79 175.11 80.28 175.45 78.97 175.8 79.21 176.14 85.49 176.49 85.97 176.84 84.9 177.18 85.49 177.53 86.68 177.87 87.98 178.22 87.27 178.56 87.03 178.91 85.25 179.26 82.88 179.6 82.53 179.95 82.05 180.29 81.11 180.64 80.51 180.99 80.28 181.33 79.09 181.68 78.86 182.02 80.28 182.37 81.34 182.71 83.6 183.06 87.86 183.41 85.61 183.75 88.93 184.1 86.91 184.44 86.44 184.79 83.71 185.13 84.19 185.48 81.46 185.83 81.82 186.17 82.05 186.52 81.7 186.86 79.45 187.21 81.34 187.56 83.12 187.9 84.9 188.25 82.88 188.59 85.97 188.94 84.19 189.28 86.79 189.63 84.42 189.98 88.34 190.32 92.48 190.67 94.02 191.01 93.79 191.36 90.47 191.7 93.43 192.05 92.96 192.4 93.19 192.74 94.02 193.09 90.82 193.43 90.59 193.78 96.28 194.13 94.62 194.47 91.42 194.82 91.77 195.16 93.19 195.51 93.67 195.85 92.84 196.2 93.79"/>
      </g>
      <g stroke-width="0.3" fill="#000000" fill-opacity="0.000" class="geometry" stroke-dasharray="none" stroke="#FDAE61" id="img-610b94b9-16">
        <path fill="none" d="M23.65,71.86 L 24 70.56 24.34 68.78 24.69 68.9 25.03 69.85 25.38 67.95 25.73 66.89 26.07 64.75 26.42 64.75 26.76 63.45 27.11 60.13 27.45 58.71 27.8 57.17 28.15 56.46 28.49 55.87 28.84 57.41 29.18 57.64 29.53 58.71 29.88 57.52 30.22 55.51 30.57 55.63 30.91 55.87 31.26 56.22 31.6 55.15 31.95 53.14 32.3 55.98 32.64 57.64 32.99 56.1 33.33 55.27 33.68 55.75 34.02 56.22 34.37 57.52 34.72 57.64 35.06 58 35.41 57.29 35.75 56.34 36.1 57.64 36.45 58.71 36.79 58 37.14 59.42 37.48 60.37 37.83 57.05 38.17 58.24 38.52 58.35 38.87 59.42 39.21 59.42 39.56 58.12 39.9 59.54 40.25 60.01 40.59 63.81 40.94 65.23 41.29 66.77 41.63 68.66 41.98 69.37 42.32 68.55 42.67 68.19 43.02 68.43 43.36 66.53 43.71 65.94 44.05 67.36 44.4 68.07 44.74 67.24 45.09 70.09 45.44 70.92 45.78 72.81 46.13 69.85 46.47 67.48 46.82 68.07 47.16 70.68 47.51 72.93 47.86 73.17 48.2 70.8 48.55 65.94 48.89 63.69 49.24 65.82 49.59 63.69 49.93 63.69 50.28 64.63 50.62 63.81 50.97 60.01 51.31 59.78 51.66 60.13 52.01 60.49 52.35 62.5 52.7 60.84 53.04 62.38 53.39 61.91 53.73 61.08 54.08 59.18 54.43 57.76 54.77 58 55.12 56.46 55.46 56.69 55.81 57.76 56.16 58.12 56.5 57.64 56.85 57.88 57.19 57.88 57.54 59.18 57.88 59.3 58.23 59.18 58.58 56.22 58.92 58.12 59.27 60.61 59.61 60.25 59.96 62.98 60.3 62.98 60.65 61.44 61 63.92 61.34 61.91 61.69 64.4 62.03 70.32 62.38 71.03 62.73 71.03 63.07 70.44 63.42 66.41 63.76 66.29 64.11 66.29 64.45 62.5 64.8 63.45 65.15 63.45 65.49 64.4 65.84 64.75 66.18 68.19 66.53 65.46 66.87 65.94 67.22 63.57 67.57 67.36 67.91 68.66 68.26 70.44 68.6 71.86 68.95 71.15 69.3 65.46 69.64 63.81 69.99 61.55 70.33 60.96 70.68 59.89 71.02 59.54 71.37 59.66 71.72 61.44 72.06 62.98 72.41 63.45 72.75 64.04 73.1 63.81 73.44 68.55 73.79 70.68 74.14 68.9 74.48 71.86 74.83 72.1 75.17 75.3 75.52 74.11 75.87 70.44 76.21 67.12 76.56 65.35 76.9 66.29 77.25 66.65 77.59 68.78 77.94 67.12 78.29 65.58 78.63 67.48 78.98 69.73 79.32 69.26 79.67 71.39 80.01 69.26 80.36 70.09 80.71 69.85 81.05 69.49 81.4 68.66 81.74 69.14 82.09 69.49 82.44 68.19 82.78 69.49 83.13 67.24 83.47 69.61 83.82 68.43 84.16 68.66 84.51 66.77 84.86 67 85.2 67.24 85.55 67.12 85.89 66.06 86.24 68.31 86.58 67.36 86.93 68.9 87.28 69.85 87.62 69.26 87.97 71.51 88.31 71.74 88.66 69.49 89.01 67.36 89.35 66.89 89.7 67.36 90.04 66.41 90.39 64.75 90.73 65.94 91.08 67.6 91.43 69.61 91.77 70.32 92.12 72.22 92.46 73.52 92.81 72.1 93.15 71.39 93.5 68.66 93.85 67.6 94.19 64.75 94.54 61.67 94.88 62.74 95.23 62.74 95.58 61.2 95.92 60.61 96.27 59.78 96.61 59.66 96.96 54.56 97.3 50.3 97.65 50.65 98 50.3 98.34 47.93 98.69 45.79 99.03 46.74 99.38 47.69 99.72 48.64 100.07 50.53 100.42 48.99 100.76 48.76 101.11 46.86 101.45 50.3 101.8 51.6 102.15 52.19 102.49 50.41 102.84 53.61 103.18 53.5 103.53 55.15 103.87 55.63 104.22 52.9 104.57 50.41 104.91 51.13 105.26 52.9 105.6 53.85 105.95 54.68 106.29 55.39 106.64 55.51 106.99 52.43 107.33 53.5 107.68 51.72 108.02 52.19 108.37 53.73 108.72 55.51 109.06 58.71 109.41 59.18 109.75 58.59 110.1 58.35 110.44 60.25 110.79 57.88 111.14 54.09 111.48 52.9 111.83 51.84 112.17 49.23 112.52 46.5 112.86 46.86 113.21 45.91 113.56 48.76 113.9 48.28 114.25 48.52 114.59 47.21 114.94 44.61 115.29 42.71 115.63 41.29 115.98 40.58 116.32 41.88 116.67 42 117.01 42.95 117.36 42.59 117.71 43.19 118.05 45.08 118.4 45.79 118.74 47.21 119.09 46.5 119.43 44.49 119.78 43.9 120.13 42.36 120.47 43.19 120.82 44.25 121.16 42.36 121.51 43.78 121.86 44.84 122.2 42.95 122.55 40.93 122.89 40.34 123.24 39.04 123.58 38.56 123.93 37.5 124.28 37.85 124.62 35.48 124.97 35.36 125.31 36.67 125.66 36.79 126 35.72 126.35 35.01 126.7 34.77 127.04 36.08 127.39 37.02 127.73 37.62 128.08 36.9 128.43 36.55 128.77 36.43 129.12 37.97 129.46 37.14 129.81 37.26 130.15 36.43 130.5 36.79 130.85 37.97 131.19 36.79 131.54 36.31 131.88 35.6 132.23 36.19 132.57 37.62 132.92 40.34 133.27 39.39 133.61 37.38 133.96 39.39 134.3 39.87 134.65 39.51 135 37.85 135.34 37.02 135.69 36.67 136.03 36.67 136.38 35.84 136.72 33.82 137.07 32.52 137.42 34.65 137.76 34.18 138.11 32.99 138.45 35.6 138.8 35.84 139.14 33.59 139.49 34.3 139.84 34.06 140.18 35.25 140.53 34.53 140.87 31.69 141.22 30.39 141.57 32.05 141.91 30.74 142.26 30.51 142.6 29.56 142.95 27.66 143.29 28.25 143.64 27.07 143.99 26 144.33 24.82 144.68 26.95 145.02 27.9 145.37 26.71 145.71 28.37 146.06 25.41 146.41 24.11 146.75 24.22 147.1 24.94 147.44 25.29 147.79 24.11 148.14 25.65 148.48 26.12 148.83 27.9 149.17 30.86 149.52 31.81 149.86 31.45 150.21 31.81 150.56 29.68 150.9 29.32 151.25 30.03 151.59 29.32 151.94 29.91 152.28 27.54 152.63 30.03 152.98 28.97 153.32 28.25 153.67 29.08 154.01 29.56 154.36 31.34 154.71 29.68 155.05 29.2 155.4 28.73 155.74 27.19 156.09 27.9 156.43 27.19 156.78 26.83 157.13 25.88 157.47 25.05 157.82 24.82 158.16 25.41 158.51 25.53 158.85 26.48 159.2 28.02 159.55 27.78 159.89 26.24 160.24 24.82 160.58 25.65 160.93 26.24 161.28 26.48 161.62 28.49 161.97 28.85 162.31 26.6 162.66 26.36 163 25.65 163.35 25.65 163.7 25.53 164.04 26.36 164.39 26.12 164.73 27.42 165.08 26 165.42 25.41 165.77 26.12 166.12 29.44 166.46 28.97 166.81 28.25 167.15 28.14 167.5 28.73 167.85 29.44 168.19 27.66 168.54 29.68 168.88 29.68 169.23 29.32 169.57 28.73 169.92 26.24 170.27 25.29 170.61 24.7 170.96 23.16 171.3 25.77 171.65 26.83 171.99 28.97 172.34 29.08 172.69 28.97 173.03 28.97 173.38 30.39 173.72 32.28 174.07 30.27 174.42 29.56 174.76 30.27 175.11 26.95 175.45 27.78 175.8 30.15 176.14 28.14 176.49 30.39 176.84 30.74 177.18 31.69 177.53 30.15 177.87 28.85 178.22 29.79 178.56 30.98 178.91 29.08 179.26 30.86 179.6 33.59 179.95 34.65 180.29 33.94 180.64 33.47 180.99 32.28 181.33 34.06 181.68 33.94 182.02 33.35 182.37 35.6 182.71 34.18 183.06 32.88 183.41 33.23 183.75 33.94 184.1 32.99 184.44 31.22 184.79 29.68 185.13 28.02 185.48 27.78 185.83 26.12 186.17 26.36 186.52 26.12 186.86 26.83 187.21 27.42 187.56 27.9 187.9 28.25 188.25 25.88 188.59 24.7 188.94 26 189.28 25.88 189.63 27.42 189.98 25.17 190.32 24.58 190.67 24.22 191.01 22.45 191.36 22.8 191.7 20.91 192.05 19.6 192.4 19.6 192.74 19.01 193.09 18.66 193.43 18.66 193.78 20.08 194.13 20.08 194.47 21.5 194.82 20.55 195.16 20.67 195.51 20.08 195.85 19.72 196.2 20.31"/>
      </g>
      <g stroke-width="0.3" fill="#000000" fill-opacity="0.000" class="geometry" stroke-dasharray="none" stroke="#F46D43" id="img-610b94b9-17">
        <path fill="none" d="M23.65,71.86 L 24 71.27 24.34 70.92 24.69 71.74 25.03 70.09 25.38 69.61 25.73 69.61 26.07 69.97 26.42 70.2 26.76 70.2 27.11 69.14 27.45 70.8 27.8 72.22 28.15 73.17 28.49 71.51 28.84 72.22 29.18 72.46 29.53 74.94 29.88 74.47 30.22 73.64 30.57 73.64 30.91 74.47 31.26 74.71 31.6 76.01 31.95 78.97 32.3 76.48 32.64 77.43 32.99 75.77 33.33 75.18 33.68 76.25 34.02 78.5 34.37 77.79 34.72 79.92 35.06 83.24 35.41 84.19 35.75 84.07 36.1 81.7 36.45 82.17 36.79 83 37.14 83.6 37.48 85.61 37.83 86.32 38.17 85.37 38.52 86.32 38.87 87.86 39.21 85.61 39.56 86.68 39.9 87.51 40.25 85.97 40.59 85.49 40.94 85.85 41.29 87.15 41.63 88.81 41.98 87.15 42.32 86.79 42.67 86.32 43.02 85.85 43.36 80.63 43.71 77.43 44.05 73.4 44.4 77.08 44.74 80.28 45.09 79.57 45.44 77.31 45.78 78.74 46.13 78.5 46.47 76.48 46.82 78.5 47.16 80.4 47.51 81.82 47.86 80.16 48.2 81.7 48.55 84.66 48.89 84.07 49.24 86.32 49.59 84.78 49.93 86.91 50.28 87.15 50.62 88.22 50.97 88.22 51.31 87.74 51.66 88.57 52.01 89.99 52.35 93.08 52.7 94.5 53.04 95.8 53.39 96.87 53.73 96.28 54.08 94.02 54.43 94.5 54.77 96.28 55.12 94.38 55.46 92.96 55.81 93.43 56.16 94.97 56.5 93.43 56.85 90.47 57.19 90.94 57.54 89.28 57.88 90.11 58.23 91.53 58.58 93.67 58.92 95.09 59.27 95.56 59.61 95.68 59.96 96.63 60.3 96.16 60.65 99.47 61 100.78 61.34 100.9 61.69 101.25 62.03 98.29 62.38 100.78 62.73 102.91 63.07 104.33 63.42 103.74 63.76 103.86 64.11 103.03 64.45 105.4 64.8 108.24 65.15 109.67 65.49 110.14 65.84 111.09 66.18 111.68 66.53 112.87 66.87 113.58 67.22 113.81 67.57 111.32 67.91 109.55 68.26 109.55 68.6 109.43 68.95 110.61 69.3 108.36 69.64 109.67 69.99 112.39 70.33 109.55 70.68 111.21 71.02 112.04 71.37 111.92 71.72 112.15 72.06 113.46 72.41 113.7 72.75 113.7 73.1 116.3 73.44 117.49 73.79 119.38 74.14 118.91 74.48 118.2 74.83 118.08 75.17 116.78 75.52 116.54 75.87 117.61 76.21 117.72 76.56 118.79 76.9 117.72 77.25 117.84 77.59 119.03 77.94 119.5 78.29 119.98 78.63 118.32 78.98 116.66 79.32 115.95 79.67 115.35 80.01 114.76 80.36 114.41 80.71 114.76 81.05 113.34 81.4 112.75 81.74 113.93 82.09 114.05 82.44 114.29 82.78 112.63 83.13 111.21 83.47 112.15 83.82 112.51 84.16 112.63 84.51 114.52 84.86 113.81 85.2 116.07 85.55 116.18 85.89 118.67 86.24 118.55 86.58 119.86 86.93 120.09 87.28 121.87 87.62 121.99 87.97 122.94 88.31 120.92 88.66 121.52 89.01 118.91 89.35 119.74 89.7 118.91 90.04 119.5 90.39 120.81 90.73 121.04 91.08 121.04 91.43 119.86 91.77 117.84 92.12 117.61 92.46 117.72 92.81 119.74 93.15 119.98 93.5 119.15 93.85 119.86 94.19 119.86 94.54 118.79 94.88 118.91 95.23 118.2 95.58 119.5 95.92 119.98 96.27 121.04 96.61 121.04 96.96 121.87 97.3 121.99 97.65 121.87 98 121.16 98.34 122.82 98.69 123.41 99.03 123.06 99.38 122.82 99.72 124.24 100.07 123.89 100.42 124.36 100.76 124 101.11 124.72 101.45 125.66 101.8 125.9 102.15 126.02 102.49 126.97 102.84 126.49 103.18 125.78 103.53 125.66 103.87 125.19 104.22 125.19 104.57 125.31 104.91 125.19 105.26 125.31 105.6 125.07 105.95 124.95 106.29 126.26 106.64 126.73 106.99 127.09 107.33 126.37 107.68 126.97 108.02 127.8 108.37 128.39 108.72 128.27 109.06 128.74 109.41 128.86 109.75 129.46 110.1 129.46 110.44 128.27 110.79 128.74 111.14 129.46 111.48 129.1 111.83 129.34 112.17 128.98 112.52 128.86 112.86 128.63 113.21 128.51 113.56 128.51 113.9 128.63 114.25 129.93 114.59 129.81 114.94 130.4 115.29 130.17 115.63 130.64 115.98 130.88 116.32 130.64 116.67 131 117.01 131 117.36 131.11"/>
      </g>
      <g stroke-width="0.3" fill="#000000" fill-opacity="0.000" class="geometry" stroke-dasharray="none" stroke="#D53E4F" id="img-610b94b9-18">
        <path fill="none" d="M23.65,71.86 L 24 71.63 24.34 72.1 24.69 70.92 25.03 67 25.38 70.68 25.73 71.86 26.07 73.52 26.42 72.22 26.76 71.74 27.11 73.05 27.45 69.26 27.8 68.43 28.15 69.85 28.49 73.4 28.84 73.4 29.18 72.46 29.53 74.83 29.88 76.01 30.22 75.06 30.57 77.55 30.91 77.55 31.26 79.57 31.6 79.45 31.95 79.45 32.3 80.28 32.64 82.05 32.99 80.28 33.33 82.88 33.68 83.24 34.02 80.4 34.37 78.62 34.72 76.25 35.06 71.51 35.41 73.17 35.75 72.22 36.1 68.66 36.45 67.24 36.79 68.19 37.14 64.52 37.48 65.58 37.83 65.11 38.17 64.52 38.52 62.15 38.87 61.32 39.21 64.4 39.56 65.23 39.9 63.81 40.25 66.06 40.59 68.43 40.94 71.39 41.29 73.29 41.63 74.71 41.98 76.01 42.32 74.35 42.67 74.35 43.02 79.45 43.36 79.21 43.71 77.67 44.05 77.79 44.4 77.55 44.74 78.86 45.09 77.31 45.44 77.91 45.78 80.16 46.13 78.14 46.47 80.4 46.82 79.09 47.16 79.09 47.51 74.23 47.86 76.25 48.2 75.3 48.55 74.59 48.89 72.34 49.24 68.78 49.59 69.49 49.93 70.92 50.28 70.92 50.62 67.6 50.97 69.37 51.31 71.03 51.66 67.83 52.01 67.95 52.35 68.9 52.7 71.27 53.04 71.39 53.39 74.94 53.73 75.54 54.08 77.91 54.43 76.25 54.77 80.28 55.12 79.68 55.46 79.45 55.81 79.68 56.16 79.92 56.5 80.04 56.85 78.03 57.19 81.58 57.54 82.88 57.88 81.94 58.23 82.65 58.58 85.37 58.92 84.42 59.27 87.15 59.61 86.32 59.96 84.9 60.3 89.16 60.65 91.89 61 90.94 61.34 91.65 61.69 92.01 62.03 93.67 62.38 94.97 62.73 96.39 63.07 96.87 63.42 98.17 63.76 99.12 64.11 97.58 64.45 97.82 64.8 94.38 65.15 93.79 65.49 94.26 65.84 95.21 66.18 93.55 66.53 91.42 66.87 91.77 67.22 92.84 67.57 92.25 67.91 93.67 68.26 95.45 68.6 94.14 68.95 92.13 69.3 91.89 69.64 91.77 69.99 91.3 70.33 93.9 70.68 95.45 71.02 95.92 71.37 94.85 71.72 92.84 72.06 93.08 72.41 93.31 72.75 95.09 73.1 100.66 73.44 99.47 73.79 99.47 74.14 96.39 74.48 94.26 74.83 97.22 75.17 99.36 75.52 99.47 75.87 99.12 76.21 99.12 76.56 98.65 76.9 101.96 77.25 100.66 77.59 101.96 77.94 101.73 78.29 105.76 78.63 105.16 78.98 101.96 79.32 100.19 79.67 100.42 80.01 99.24 80.36 97.7 80.71 96.63 81.05 96.51 81.4 94.5 81.74 93.67 82.09 93.31 82.44 90.71 82.78 90.47 83.13 88.93 83.47 89.05 83.82 87.39 84.16 86.44 84.51 88.57 84.86 93.19 85.2 93.79 85.55 94.26 85.89 96.16 86.24 94.02 86.58 92.84 86.93 91.18 87.28 93.19 87.62 93.9 87.97 91.3 88.31 93.08 88.66 93.67 89.01 93.19 89.35 93.67 89.7 90.23 90.04 88.93 90.39 88.1 90.73 90.35 91.08 89.52 91.43 89.05 91.77 86.2 92.12 87.62 92.46 88.69 92.81 89.4 93.15 90.82 93.5 90.94 93.85 94.26 94.19 92.72 94.54 94.02 94.88 95.68 95.23 96.16 95.58 98.29 95.92 97.1 96.27 100.19 96.61 98.17 96.96 99.24 97.3 101.25 97.65 102.56 98 103.74 98.34 103.74 98.69 105.76 99.03 104.81 99.38 106.35 99.72 104.33 100.07 104.33 100.42 105.4 100.76 105.28 101.11 105.87 101.45 108.01 101.8 108.01 102.15 107.77 102.49 108.13 102.84 109.07 103.18 109.07 103.53 108.84 103.87 109.43 104.22 111.21 104.57 110.02 104.91 111.8 105.26 114.05 105.6 113.46 105.95 112.27 106.29 109.55 106.64 112.39 106.99 111.44 107.33 110.14 107.68 111.09 108.02 112.04 108.37 111.68 108.72 113.46 109.06 114.76 109.41 115.83 109.75 115.35 110.1 115.95 110.44 115.71 110.79 115.35 111.14 115.12 111.48 116.07 111.83 117.13 112.17 117.01 112.52 115.83 112.86 117.37 113.21 117.61 113.56 117.37 113.9 119.03 114.25 118.2 114.59 118.55 114.94 117.84 115.29 118.79 115.63 119.26 115.98 121.4 116.32 122.35 116.67 122.11 117.01 123.06 117.36 120.81 117.71 121.52 118.05 121.28 118.4 119.26 118.74 117.72 119.09 118.2 119.43 117.96 119.78 117.61 120.13 117.72 120.47 117.84 120.82 119.62 121.16 118.08 121.51 119.74 121.86 120.69 122.2 121.87 122.55 121.87 122.89 118.67 123.24 117.25 123.58 119.03 123.93 120.09 124.28 121.16 124.62 123.29 124.97 122.82 125.31 124 125.66 124.6 126 123.18 126.35 123.77 126.7 125.9 127.04 125.66 127.39 125.9 127.73 125.19 128.08 125.31 128.43 126.61 128.77 127.09 129.12 127.2 129.46 127.44 129.81 128.15 130.15 128.03 130.5 128.74 130.85 128.27 131.19 127.92 131.54 127.8 131.88 128.51 132.23 127.56 132.57 127.68 132.92 127.92 133.27 126.37 133.61 126.49 133.96 126.14 134.3 126.14 134.65 125.55 135 124.6 135.34 124.36 135.69 124.95 136.03 124.83 136.38 126.73 136.72 127.32 137.07 127.56 137.42 127.8 137.76 128.15 138.11 128.15 138.45 128.63 138.8 127.32 139.14 128.39 139.49 128.15 139.84 128.63 140.18 128.74 140.53 128.27 140.87 128.39 141.22 128.15 141.57 127.09 141.91 127.68 142.26 125.66 142.6 126.97 142.95 128.15 143.29 127.92 143.64 127.44 143.99 128.39 144.33 129.1 144.68 129.22 145.02 129.1 145.37 129.1 145.71 128.98 146.06 128.74 146.41 128.03 146.75 128.27 147.1 128.03 147.44 128.63 147.79 128.98 148.14 128.98 148.48 129.57 148.83 129.69 149.17 130.29 149.52 130.88 149.86 130.88 150.21 131.11"/>
      </g>
      <g stroke-width="0.3" fill="#000000" fill-opacity="0.000" class="geometry" stroke-dasharray="none" stroke="#9E0142" id="img-610b94b9-19">
        <path fill="none" d="M23.65,71.86 L 24 69.97 24.34 67.24 24.69 61.67 25.03 65.58 25.38 68.43 25.73 68.07 26.07 64.99 26.42 62.03 26.76 63.69 27.11 63.09 27.45 61.67 27.8 61.55 28.15 61.08 28.49 62.26 28.84 62.38 29.18 61.2 29.53 62.62 29.88 62.74 30.22 63.81 30.57 62.98 30.91 63.21 31.26 62.15 31.6 60.61 31.95 62.03 32.3 60.49 32.64 59.18 32.99 59.54 33.33 60.25 33.68 58.83 34.02 58.95 34.37 60.01 34.72 62.15 35.06 62.15 35.41 61.79 35.75 61.67 36.1 60.13 36.45 60.13 36.79 58.71 37.14 58.35 37.48 57.41 37.83 59.42 38.17 55.98 38.52 57.29 38.87 59.18 39.21 56.46 39.56 55.15 39.9 54.92 40.25 54.21 40.59 53.61 40.94 53.26 41.29 55.75 41.63 57.76 41.98 55.15 42.32 51.72 42.67 49.82 43.02 50.77 43.36 50.89 43.71 51.36 44.05 53.5 44.4 51.36 44.74 55.98 45.09 58 45.44 60.01 45.78 59.42 46.13 60.49 46.47 60.49 46.82 60.49 47.16 62.15 47.51 62.98 47.86 63.69 48.2 62.62 48.55 64.52 48.89 66.18 49.24 66.06 49.59 64.87 49.93 65.82 50.28 66.41 50.62 65.82 50.97 67.36 51.31 64.75 51.66 62.03 52.01 61.79 52.35 61.44 52.7 59.06 53.04 60.72 53.39 60.96 53.73 63.21 54.08 63.81 54.43 66.41 54.77 65.23 55.12 67.83 55.46 67.24 55.81 69.26 56.16 68.78 56.5 67 56.85 68.19 57.19 71.98 57.54 72.34 57.88 71.63 58.23 69.97 58.58 67.36 58.92 67.72 59.27 67.24 59.61 65.7 59.96 64.63 60.3 64.63 60.65 61.44 61 59.54 61.34 62.03 61.69 64.04 62.03 65.7 62.38 69.61 62.73 66.53 63.07 65.11 63.42 63.57 63.76 62.38 64.11 62.5 64.45 63.21 64.8 65.11 65.15 64.52 65.49 65.35 65.84 66.18 66.18 66.53 66.53 66.29 66.87 66.77 67.22 64.63 67.57 61.08 67.91 60.13 68.26 60.96 68.6 63.33 68.95 61.79 69.3 59.89 69.64 60.01 69.99 57.05 70.33 55.04 70.68 55.51 71.02 56.1 71.37 58.35 71.72 57.05 72.06 56.93 72.41 55.04 72.75 55.87 73.1 55.04 73.44 55.75 73.79 55.04 74.14 54.92 74.48 56.1 74.83 58.83 75.17 58.47 75.52 58 75.87 58.47 76.21 59.78 76.56 58.12 76.9 57.88 77.25 56.93 77.59 56.69 77.94 58.83 78.29 57.29 78.63 56.46 78.98 56.1 79.32 56.93 79.67 59.89 80.01 62.98 80.36 60.13 80.71 61.91 81.05 62.5 81.4 59.42 81.74 58.71 82.09 56.93 82.44 54.92 82.78 57.17 83.13 57.29 83.47 56.22 83.82 55.27 84.16 52.67 84.51 51.48 84.86 49.82 85.2 51.48 85.55 52.9 85.89 53.97 86.24 54.8 86.58 55.98 86.93 57.88 87.28 58.71 87.62 57.64 87.97 55.39 88.31 59.89 88.66 58.95 89.01 59.3 89.35 59.89 89.7 64.99 90.04 63.09 90.39 62.15 90.73 59.78 91.08 57.52 91.43 59.18 91.77 58.95 92.12 59.3 92.46 60.61 92.81 60.13 93.15 61.44 93.5 62.03 93.85 63.33 94.19 63.33 94.54 63.33 94.88 61.32 95.23 61.32 95.58 59.3 95.92 56.46 96.27 54.09 96.61 51.72 96.96 50.06 97.3 47.33 97.65 45.2 98 44.13 98.34 43.66 98.69 46.27 99.03 43.07 99.38 42.95 99.72 42.59 100.07 43.9 100.42 44.73 100.76 43.3 101.11 43.3 101.45 44.73 101.8 47.21 102.15 47.81 102.49 50.53 102.84 50.18 103.18 51.6 103.53 51.01 103.87 50.65 104.22 47.57 104.57 46.74 104.91 48.99 105.26 48.64 105.6 48.52 105.95 52.19 106.29 52.78 106.64 52.67 106.99 51.95 107.33 51.01 107.68 51.95 108.02 50.65 108.37 53.02 108.72 53.02 109.06 55.04 109.41 55.75 109.75 53.97 110.1 54.56 110.44 54.09 110.79 54.8 111.14 55.04 111.48 58.24 111.83 55.75 112.17 55.75 112.52 55.98 112.86 55.75 113.21 58.47 113.56 57.17 113.9 56.81 114.25 56.58 114.59 55.51 114.94 55.04 115.29 54.68 115.63 52.78 115.98 53.5 116.32 53.02 116.67 52.31 117.01 51.36 117.36 49.94 117.71 47.69 118.05 48.16 118.4 46.98 118.74 44.84 119.09 46.27 119.43 48.28 119.78 51.36 120.13 50.18 120.47 50.3 120.82 49.94 121.16 53.26 121.51 52.19 121.86 51.95 122.2 56.34 122.55 57.41 122.89 57.88 123.24 58.83 123.58 58.12 123.93 59.89 124.28 61.32 124.62 61.67 124.97 60.25 125.31 62.26 125.66 59.66 126 61.91 126.35 61.79 126.7 60.72 127.04 59.78 127.39 58.12 127.73 59.3 128.08 60.72 128.43 60.61 128.77 60.37 129.12 62.62 129.46 64.87 129.81 64.28 130.15 65.94 130.5 64.4 130.85 65.7 131.19 66.65 131.54 66.53 131.88 64.99 132.23 66.41 132.57 65.23 132.92 66.53 133.27 66.06 133.61 67 133.96 66.65 134.3 64.87 134.65 66.29 135 63.33 135.34 62.38 135.69 65.94 136.03 67.12 136.38 68.55 136.72 69.97 137.07 68.9 137.42 69.61 137.76 68.78 138.11 68.66 138.45 69.37 138.8 70.56 139.14 70.92 139.49 69.02 139.84 71.74 140.18 69.49 140.53 70.56 140.87 69.37 141.22 67.48 141.57 65.46 141.91 67.6 142.26 68.78 142.6 71.15 142.95 69.61 143.29 71.86 143.64 69.73 143.99 70.56 144.33 69.97 144.68 73.17 145.02 73.52 145.37 73.52 145.71 72.1 146.06 70.2 146.41 67 146.75 64.04 147.1 64.4 147.44 69.26 147.79 67.6 148.14 68.66 148.48 67.6 148.83 69.26 149.17 67.36 149.52 66.06 149.86 66.65 150.21 68.43 150.56 71.74 150.9 71.51 151.25 71.51 151.59 69.02 151.94 69.61 152.28 70.09 152.63 70.92 152.98 69.14 153.32 72.1 153.67 72.1 154.01 71.98 154.36 70.56 154.71 67.6 155.05 68.31 155.4 68.07 155.74 69.49 156.09 70.92 156.43 74.47 156.78 76.01 157.13 75.06 157.47 75.42 157.82 75.18 158.16 74.11 158.51 72.22 158.85 73.52 159.2 74.47 159.55 72.57 159.89 73.4 160.24 77.2 160.58 77.31 160.93 76.96 161.28 78.14 161.62 78.74 161.97 79.09 162.31 79.57 162.66 78.5 163 77.08 163.35 74.71 163.7 75.42 164.04 75.18 164.39 76.6 164.73 72.22 165.08 72.93 165.42 71.27 165.77 72.57 166.12 69.85 166.46 69.61 166.81 68.19 167.15 67.6 167.5 63.57 167.85 62.03 168.19 60.96 168.54 61.79 168.88 62.5 169.23 61.67 169.57 62.86 169.92 63.69 170.27 66.53 170.61 66.29 170.96 69.85 171.3 73.17 171.65 74.23 171.99 73.64 172.34 72.57 172.69 71.15 173.03 73.76 173.38 76.6 173.72 79.68 174.07 78.97 174.42 78.26 174.76 79.92 175.11 81.11 175.45 80.87 175.8 80.75 176.14 80.28 176.49 79.33 176.84 79.33 177.18 80.4 177.53 78.97 177.87 79.09 178.22 83.71 178.56 85.73 178.91 84.19 179.26 85.85 179.6 87.86 179.95 85.14 180.29 85.02 180.64 81.82 180.99 83.36 181.33 82.77 181.68 83 182.02 82.41 182.37 80.99 182.71 83.12 183.06 82.65 183.41 81.11 183.75 78.03 184.1 77.31 184.44 79.8 184.79 76.25 185.13 74.47 185.48 80.51 185.83 80.87 186.17 81.46 186.52 85.97 186.86 85.61 187.21 84.9 187.56 84.9 187.9 84.07 188.25 82.88 188.59 86.91 188.94 90.94 189.28 90.47 189.63 90.11 189.98 92.01 190.32 91.42 190.67 90.47 191.01 93.31 191.36 97.22 191.7 98.29 192.05 97.82 192.4 99.47 192.74 98.76 193.09 98.53 193.43 99.71 193.78 101.84 194.13 101.25 194.47 102.67 194.82 103.98 195.16 107.41 195.51 107.65 195.85 106.35 196.2 105.04"/>
      </g>
    </g>
  </g>
</g>
  <g class="guide ylabels" font-size="2.82" font-family="'PT Sans Caption','Helvetica Neue','Helvetica',sans-serif" fill="#000000" id="img-610b94b9-20">
    <text x="20.3" y="131.11" text-anchor="end" dy="0.35em">0</text>
    <text x="20.3" y="71.86" text-anchor="end" dy="0.35em">500</text>
    <text x="20.3" y="12.61" text-anchor="end" dy="0.35em">1000</text>
  </g>
  <g font-size="3.88" font-family="'PT Sans','Helvetica Neue','Helvetica',sans-serif" fill="#000000" stroke="#000000" stroke-opacity="0.000" id="img-610b94b9-21">
    <text x="8.81" y="69.86" text-anchor="middle" dy="0.35em" transform="rotate(-90, 8.81, 71.86)">population number</text>
  </g>
  <g font-size="3.88" font-family="'PT Sans','Helvetica Neue','Helvetica',sans-serif" fill="#000000" stroke="#000000" stroke-opacity="0.000" id="img-610b94b9-22">
    <text x="109.75" y="5" text-anchor="middle" dy="0.6em">genetic drift</text>
  </g>
</g>
<defs>
  <clipPath id="img-610b94b9-4">
  <path d="M21.31,10.61 L 198.2 10.61 198.2 133.11 21.31 133.11" />
</clipPath>
</defs>
</svg>
