<?xml version="1.0" encoding="UTF-8"?>
<svg xmlns="http://www.w3.org/2000/svg"
     xmlns:xlink="http://www.w3.org/1999/xlink"
     xmlns:gadfly="http://www.gadflyjl.org/ns"
     version="1.2"
     width="203.2mm" height="152.4mm" viewBox="0 0 203.2 152.4"
     stroke="none"
     fill="#000000"
     stroke-width="0.3"
     font-size="3.88"
>
<g class="plotroot xscalable yscalable" id="img-f6fbd98f-1">
  <g font-size="3.88" font-family="'PT Sans','Helvetica Neue','Helvetica',sans-serif" fill="#000000" stroke="#000000" stroke-opacity="0.000" id="img-f6fbd98f-2">
    <text x="108.92" y="140.79" text-anchor="middle" dy="0.6em">generation number</text>
  </g>
  <g class="guide xlabels" font-size="2.82" font-family="'PT Sans Caption','Helvetica Neue','Helvetica',sans-serif" fill="#000000" id="img-f6fbd98f-3">
    <text x="21.63" y="134.11" text-anchor="middle" dy="0.6em">0</text>
    <text x="56.55" y="134.11" text-anchor="middle" dy="0.6em">100</text>
    <text x="91.46" y="134.11" text-anchor="middle" dy="0.6em">200</text>
    <text x="126.37" y="134.11" text-anchor="middle" dy="0.6em">300</text>
    <text x="161.29" y="134.11" text-anchor="middle" dy="0.6em">400</text>
    <text x="196.2" y="134.11" text-anchor="middle" dy="0.6em">500</text>
  </g>
<g clip-path="url(#img-f6fbd98f-4)">
  <g id="img-f6fbd98f-5">
    <g pointer-events="visible" opacity="1" fill="#FFFFFF" stroke="#000000" stroke-opacity="0.000" class="guide background" id="img-f6fbd98f-6">
      <rect x="19.63" y="10.61" width="178.57" height="122.5"/>
    </g>
    <g class="guide ygridlines xfixed" stroke-dasharray="0.5,0.5" stroke-width="0.2" stroke="#808080" id="img-f6fbd98f-7">
      <path fill="none" d="M19.63,131.11 L 198.2 131.11"/>
      <path fill="none" d="M19.63,71.86 L 198.2 71.86"/>
      <path fill="none" d="M19.63,12.61 L 198.2 12.61"/>
    </g>
    <g class="guide xgridlines yfixed" stroke-dasharray="0.5,0.5" stroke-width="0.2" stroke="#808080" id="img-f6fbd98f-8">
      <path fill="none" d="M21.63,10.61 L 21.63 133.11"/>
      <path fill="none" d="M56.55,10.61 L 56.55 133.11"/>
      <path fill="none" d="M91.46,10.61 L 91.46 133.11"/>
      <path fill="none" d="M126.37,10.61 L 126.37 133.11"/>
      <path fill="none" d="M161.29,10.61 L 161.29 133.11"/>
      <path fill="none" d="M196.2,10.61 L 196.2 133.11"/>
    </g>
    <g class="plotpanel" id="img-f6fbd98f-9">
      <g stroke-width="0.3" fill="#000000" fill-opacity="0.000" class="geometry" stroke-dasharray="none" stroke="#3288BD" id="img-f6fbd98f-10">
        <path fill="none" d="M21.98,71.86 L 22.33 67.12 22.68 80.16 23.03 81.34 23.38 87.27 23.73 77.79 24.08 76.6 24.42 77.79 24.77 83.71 25.12 82.53 25.47 86.08 25.82 81.34 26.17 90.82 26.52 80.16 26.87 77.79 27.22 63.57 27.57 69.49 27.92 69.49 28.27 75.42 28.61 76.6 28.96 82.53 29.31 77.79 29.66 75.42 30.01 74.23 30.36 78.97 30.71 76.6 31.06 87.27 31.41 89.64 31.76 92.01 32.11 92.01 32.45 97.93 32.8 95.56 33.15 101.49 33.5 109.78 33.85 113.34 34.2 109.78 34.55 113.34 34.9 118.08 35.25 119.26 35.6 118.08 35.95 113.34 36.3 110.97 36.64 114.52 36.99 105.04 37.34 108.6 37.69 108.6 38.04 113.34 38.39 118.08 38.74 122.82 39.09 119.26 39.44 122.82 39.79 124 40.14 122.82 40.49 124 40.83 125.19 41.18 120.45 41.53 124 41.88 125.19 42.23 128.74 42.58 126.37 42.93 125.19 43.28 121.63 43.63 120.45 43.98 120.45 44.33 126.37 44.67 120.45 45.02 121.63 45.37 116.89 45.72 118.08 46.07 118.08 46.42 114.52 46.77 116.89 47.12 108.6 47.47 107.41 47.82 110.97 48.17 110.97 48.52 114.52 48.86 120.45 49.21 124 49.56 118.08 49.91 110.97 50.26 103.86 50.61 101.49 50.96 101.49 51.31 101.49 51.66 101.49 52.01 109.78 52.36 109.78 52.7 113.34 53.05 108.6 53.4 106.23 53.75 105.04 54.1 112.15 54.45 120.45 54.8 121.63 55.15 125.19 55.5 125.19 55.85 128.74 56.2 131.11"/>
      </g>
      <g stroke-width="0.3" fill="#000000" fill-opacity="0.000" class="geometry" stroke-dasharray="none" stroke="#66C2A5" id="img-f6fbd98f-11">
        <path fill="none" d="M21.98,71.86 L 22.33 68.31 22.68 54.09 23.03 60.01 23.38 52.9 23.73 58.83 24.08 63.57 24.42 65.94 24.77 65.94 25.12 63.57 25.47 60.01 25.82 49.35 26.17 41.05 26.52 41.05 26.87 43.42 27.22 45.79 27.57 49.35 27.92 50.53 28.27 44.61 28.61 48.16 28.96 45.79 29.31 54.09 29.66 46.98 30.01 48.16 30.36 45.79 30.71 39.87 31.06 39.87 31.41 33.94 31.76 29.2 32.11 22.09 32.45 30.39 32.8 26.83 33.15 33.94 33.5 41.05 33.85 36.31 34.2 41.05 34.55 44.61 34.9 41.05 35.25 44.61 35.6 49.35 35.95 51.72 36.3 55.27 36.64 57.64 36.99 64.75 37.34 65.94 37.69 61.2 38.04 57.64 38.39 67.12 38.74 57.64 39.09 44.61 39.44 44.61 39.79 43.42 40.14 49.35 40.49 44.61 40.83 45.79 41.18 43.42 41.53 46.98 41.88 52.9 42.23 54.09 42.58 57.64 42.93 60.01 43.28 61.2 43.63 62.38 43.98 62.38 44.33 56.46 44.67 49.35 45.02 50.53 45.37 56.46 45.72 64.75 46.07 74.23 46.42 74.23 46.77 63.57 47.12 77.79 47.47 75.42 47.82 70.68 48.17 63.57 48.52 69.49 48.86 61.2 49.21 56.46 49.56 52.9 49.91 50.53 50.26 50.53 50.61 56.46 50.96 56.46 51.31 61.2 51.66 60.01 52.01 52.9 52.36 56.46 52.7 52.9 53.05 55.27 53.4 58.83 53.75 56.46 54.1 49.35 54.45 48.16 54.8 37.5 55.15 38.68 55.5 35.13 55.85 33.94 56.2 35.13 56.55 39.87 56.89 44.61 57.24 46.98 57.59 43.42 57.94 50.53 58.29 44.61 58.64 48.16 58.99 62.38 59.34 64.75 59.69 71.86 60.04 64.75 60.39 60.01 60.73 61.2 61.08 56.46 61.43 56.46 61.78 52.9 62.13 49.35 62.48 45.79 62.83 46.98 63.18 49.35 63.53 43.42 63.88 30.39 64.23 32.76 64.58 32.76 64.92 25.65 65.27 25.65 65.62 20.91 65.97 23.28 66.32 25.65 66.67 22.09 67.02 22.09 67.37 25.65 67.72 22.09 68.07 25.65 68.42 26.83 68.77 23.28 69.11 18.54 69.46 20.91 69.81 18.54 70.16 14.98 70.51 13.8 70.86 13.8 71.21 14.98 71.56 16.17 71.91 16.17 72.26 19.72 72.61 24.46 72.95 23.28 73.3 25.65 73.65 24.46 74 22.09 74.35 28.02 74.7 19.72 75.05 23.28 75.4 17.35 75.75 19.72 76.1 16.17 76.45 18.54 76.8 16.17 77.14 18.54 77.49 18.54 77.84 13.8 78.19 12.61"/>
      </g>
      <g stroke-width="0.3" fill="#000000" fill-opacity="0.000" class="geometry" stroke-dasharray="none" stroke="#ABDDA4" id="img-f6fbd98f-12">
        <path fill="none" d="M21.98,71.86 L 22.33 62.38 22.68 70.68 23.03 63.57 23.38 64.75 23.73 56.46 24.08 56.46 24.42 61.2 24.77 57.64 25.12 64.75 25.47 74.23 25.82 93.19 26.17 89.64 26.52 90.82 26.87 88.45 27.22 92.01 27.57 86.08 27.92 90.82 28.27 87.27 28.61 78.97 28.96 82.53 29.31 83.71 29.66 94.38 30.01 101.49 30.36 102.67 30.71 106.23 31.06 112.15 31.41 114.52 31.76 115.71 32.11 118.08 32.45 120.45 32.8 121.63 33.15 126.37 33.5 131.11"/>
      </g>
      <g stroke-width="0.3" fill="#000000" fill-opacity="0.000" class="geometry" stroke-dasharray="none" stroke="#E6F598" id="img-f6fbd98f-13">
        <path fill="none" d="M21.98,71.86 L 22.33 81.34 22.68 90.82 23.03 96.75 23.38 105.04 23.73 101.49 24.08 96.75 24.42 89.64 24.77 83.71 25.12 81.34 25.47 86.08 25.82 88.45 26.17 82.53 26.52 77.79 26.87 71.86 27.22 70.68 27.57 74.23 27.92 74.23 28.27 64.75 28.61 63.57 28.96 56.46 29.31 63.57 29.66 67.12 30.01 73.05 30.36 69.49 30.71 80.16 31.06 81.34 31.41 87.27 31.76 84.9 32.11 82.53 32.45 88.45 32.8 83.71 33.15 81.34 33.5 75.42 33.85 78.97 34.2 81.34 34.55 87.27 34.9 80.16 35.25 87.27 35.6 92.01 35.95 92.01 36.3 88.45 36.64 97.93 36.99 97.93 37.34 106.23 37.69 107.41 38.04 110.97 38.39 105.04 38.74 101.49 39.09 97.93 39.44 99.12 39.79 102.67 40.14 102.67 40.49 100.3 40.83 102.67 41.18 108.6 41.53 109.78 41.88 108.6 42.23 113.34 42.58 112.15 42.93 113.34 43.28 113.34 43.63 110.97 43.98 108.6 44.33 103.86 44.67 108.6 45.02 113.34 45.37 113.34 45.72 115.71 46.07 115.71 46.42 127.56 46.77 125.19 47.12 125.19 47.47 122.82 47.82 125.19 48.17 124 48.52 122.82 48.86 121.63 49.21 115.71 49.56 107.41 49.91 105.04 50.26 110.97 50.61 112.15 50.96 114.52 51.31 110.97 51.66 109.78 52.01 108.6 52.36 109.78 52.7 112.15 53.05 112.15 53.4 118.08 53.75 122.82 54.1 122.82 54.45 115.71 54.8 113.34 55.15 114.52 55.5 116.89 55.85 124 56.2 127.56 56.55 128.74 56.89 128.74 57.24 127.56 57.59 128.74 57.94 127.56 58.29 127.56 58.64 129.93 58.99 131.11"/>
      </g>
      <g stroke-width="0.3" fill="#000000" fill-opacity="0.000" class="geometry" stroke-dasharray="none" stroke="#FFFFBF" id="img-f6fbd98f-14">
        <path fill="none" d="M21.98,71.86 L 22.33 71.86 22.68 78.97 23.03 77.79 23.38 78.97 23.73 71.86 24.08 73.05 24.42 64.75 24.77 71.86 25.12 77.79 25.47 80.16 25.82 75.42 26.17 69.49 26.52 51.72 26.87 45.79 27.22 43.42 27.57 51.72 27.92 57.64 28.27 62.38 28.61 51.72 28.96 43.42 29.31 43.42 29.66 45.79 30.01 48.16 30.36 56.46 30.71 43.42 31.06 42.24 31.41 45.79 31.76 49.35 32.11 61.2 32.45 64.75 32.8 67.12 33.15 69.49 33.5 73.05 33.85 75.42 34.2 71.86 34.55 81.34 34.9 74.23 35.25 77.79 35.6 82.53 35.95 78.97 36.3 87.27 36.64 87.27 36.99 88.45 37.34 90.82 37.69 88.45 38.04 93.19 38.39 88.45 38.74 88.45 39.09 76.6 39.44 76.6 39.79 68.31 40.14 73.05 40.49 83.71 40.83 89.64 41.18 92.01 41.53 88.45 41.88 82.53 42.23 76.6 42.58 75.42 42.93 75.42 43.28 71.86 43.63 60.01 43.98 60.01 44.33 62.38 44.67 67.12 45.02 75.42 45.37 76.6 45.72 84.9 46.07 88.45 46.42 89.64 46.77 88.45 47.12 90.82 47.47 82.53 47.82 86.08 48.17 88.45 48.52 92.01 48.86 84.9 49.21 82.53 49.56 86.08 49.91 78.97 50.26 67.12 50.61 76.6 50.96 78.97 51.31 76.6 51.66 74.23 52.01 86.08 52.36 95.56 52.7 94.38 53.05 90.82 53.4 88.45 53.75 87.27 54.1 90.82 54.45 84.9 54.8 80.16 55.15 75.42 55.5 78.97 55.85 70.68 56.2 64.75 56.55 67.12 56.89 73.05 57.24 65.94 57.59 60.01 57.94 67.12 58.29 68.31 58.64 70.68 58.99 73.05 59.34 74.23 59.69 73.05 60.04 67.12 60.39 71.86 60.73 77.79 61.08 74.23 61.43 80.16 61.78 74.23 62.13 70.68 62.48 64.75 62.83 56.46 63.18 44.61 63.53 41.05 63.88 48.16 64.23 43.42 64.58 49.35 64.92 54.09 65.27 56.46 65.62 55.27 65.97 57.64 66.32 58.83 66.67 62.38 67.02 63.57 67.37 67.12 67.72 62.38 68.07 58.83 68.42 41.05 68.77 36.31 69.11 41.05 69.46 36.31 69.81 38.68 70.16 29.2 70.51 25.65 70.86 17.35 71.21 20.91 71.56 24.46 71.91 25.65 72.26 30.39 72.61 28.02 72.95 25.65 73.3 19.72 73.65 18.54 74 19.72 74.35 18.54 74.7 17.35 75.05 16.17 75.4 14.98 75.75 14.98 76.1 12.61"/>
      </g>
      <g stroke-width="0.3" fill="#000000" fill-opacity="0.000" class="geometry" stroke-dasharray="none" stroke="#FEE08B" id="img-f6fbd98f-15">
        <path fill="none" d="M21.98,71.86 L 22.33 71.86 22.68 68.31 23.03 68.31 23.38 73.05 23.73 77.79 24.08 70.68 24.42 71.86 24.77 70.68 25.12 64.75 25.47 62.38 25.82 57.64 26.17 58.83 26.52 54.09 26.87 55.27 27.22 56.46 27.57 60.01 27.92 56.46 28.27 63.57 28.61 65.94 28.96 68.31 29.31 63.57 29.66 63.57 30.01 74.23 30.36 81.34 30.71 86.08 31.06 80.16 31.41 82.53 31.76 81.34 32.11 74.23 32.45 71.86 32.8 77.79 33.15 78.97 33.5 81.34 33.85 75.42 34.2 64.75 34.55 68.31 34.9 61.2 35.25 61.2 35.6 56.46 35.95 58.83 36.3 65.94 36.64 65.94 36.99 51.72 37.34 56.46 37.69 57.64 38.04 56.46 38.39 70.68 38.74 63.57 39.09 65.94 39.44 67.12 39.79 65.94 40.14 67.12 40.49 54.09 40.83 55.27 41.18 44.61 41.53 49.35 41.88 42.24 42.23 49.35 42.58 45.79 42.93 46.98 43.28 44.61 43.63 48.16 43.98 45.79 44.33 38.68 44.67 41.05 45.02 44.61 45.37 45.79 45.72 45.79 46.07 48.16 46.42 50.53 46.77 45.79 47.12 49.35 47.47 37.5 47.82 45.79 48.17 42.24 48.52 43.42 48.86 46.98 49.21 48.16 49.56 57.64 49.91 62.38 50.26 60.01 50.61 65.94 50.96 71.86 51.31 74.23 51.66 68.31 52.01 82.53 52.36 88.45 52.7 77.79 53.05 86.08 53.4 81.34 53.75 84.9 54.1 77.79 54.45 74.23 54.8 82.53 55.15 74.23 55.5 69.49 55.85 69.49 56.2 70.68 56.55 77.79 56.89 75.42 57.24 71.86 57.59 75.42 57.94 80.16 58.29 73.05 58.64 74.23 58.99 76.6 59.34 78.97 59.69 76.6 60.04 75.42 60.39 80.16 60.73 77.79 61.08 71.86 61.43 80.16 61.78 87.27 62.13 96.75 62.48 99.12 62.83 97.93 63.18 89.64 63.53 83.71 63.88 70.68 64.23 74.23 64.58 76.6 64.92 78.97 65.27 76.6 65.62 77.79 65.97 83.71 66.32 84.9 66.67 84.9 67.02 88.45 67.37 97.93 67.72 101.49 68.07 97.93 68.42 107.41 68.77 102.67 69.11 96.75 69.46 97.93 69.81 99.12 70.16 100.3 70.51 95.56 70.86 89.64 71.21 87.27 71.56 94.38 71.91 94.38 72.26 89.64 72.61 86.08 72.95 80.16 73.3 84.9 73.65 83.71 74 80.16 74.35 73.05 74.7 64.75 75.05 58.83 75.4 58.83 75.75 54.09 76.1 54.09 76.45 46.98 76.8 43.42 77.14 39.87 77.49 46.98 77.84 51.72 78.19 55.27 78.54 45.79 78.89 49.35 79.24 43.42 79.59 45.79 79.94 44.61 80.29 43.42 80.64 44.61 80.98 58.83 81.33 54.09 81.68 42.24 82.03 33.94 82.38 31.57 82.73 32.76 83.08 32.76 83.43 39.87 83.78 41.05 84.13 46.98 84.48 46.98 84.83 50.53 85.17 49.35 85.52 52.9 85.87 54.09 86.22 45.79 86.57 50.53 86.92 46.98 87.27 42.24 87.62 42.24 87.97 49.35 88.32 46.98 88.67 37.5 89.02 37.5 89.36 31.57 89.71 30.39 90.06 24.46 90.41 26.83 90.76 29.2 91.11 30.39 91.46 29.2 91.81 28.02 92.16 29.2 92.51 31.57 92.86 32.76 93.2 26.83 93.55 32.76 93.9 30.39 94.25 33.94 94.6 45.79 94.95 35.13 95.3 43.42 95.65 36.31 96 37.5 96.35 33.94 96.7 25.65 97.05 32.76 97.39 33.94 97.74 35.13 98.09 45.79 98.44 44.61 98.79 39.87 99.14 28.02 99.49 28.02 99.84 36.31 100.19 42.24 100.54 43.42 100.89 48.16 101.23 45.79 101.58 39.87 101.93 43.42 102.28 48.16 102.63 51.72 102.98 45.79 103.33 33.94 103.68 32.76 104.03 29.2 104.38 30.39 104.73 37.5 105.08 39.87 105.42 49.35 105.77 51.72 106.12 52.9 106.47 51.72 106.82 45.79 107.17 52.9 107.52 56.46 107.87 43.42 108.22 45.79 108.57 48.16 108.92 42.24 109.26 33.94 109.61 33.94 109.96 31.57 110.31 32.76 110.66 31.57 111.01 31.57 111.36 43.42 111.71 43.42 112.06 52.9 112.41 42.24 112.76 44.61 113.11 38.68 113.45 38.68 113.8 43.42 114.15 36.31 114.5 35.13 114.85 30.39 115.2 29.2 115.55 23.28 115.9 29.2 116.25 26.83 116.6 28.02 116.95 32.76 117.3 39.87 117.64 33.94 117.99 32.76 118.34 36.31 118.69 38.68 119.04 36.31 119.39 37.5 119.74 36.31 120.09 44.61 120.44 48.16 120.79 42.24 121.14 42.24 121.48 45.79 121.83 43.42 122.18 42.24 122.53 48.16 122.88 52.9 123.23 50.53 123.58 48.16 123.93 51.72 124.28 45.79 124.63 51.72 124.98 58.83 125.33 50.53 125.67 43.42 126.02 48.16 126.37 48.16 126.72 33.94 127.07 32.76 127.42 33.94 127.77 33.94 128.12 32.76 128.47 36.31 128.82 38.68 129.17 43.42 129.51 49.35 129.86 35.13 130.21 28.02 130.56 22.09 130.91 20.91 131.26 16.17 131.61 12.61"/>
      </g>
      <g stroke-width="0.3" fill="#000000" fill-opacity="0.000" class="geometry" stroke-dasharray="none" stroke="#FDAE61" id="img-f6fbd98f-16">
        <path fill="none" d="M21.98,71.86 L 22.33 77.79 22.68 77.79 23.03 70.68 23.38 57.64 23.73 57.64 24.08 50.53 24.42 56.46 24.77 57.64 25.12 52.9 25.47 54.09 25.82 64.75 26.17 65.94 26.52 60.01 26.87 65.94 27.22 73.05 27.57 71.86 27.92 68.31 28.27 58.83 28.61 56.46 28.96 63.57 29.31 68.31 29.66 65.94 30.01 69.49 30.36 75.42 30.71 82.53 31.06 70.68 31.41 87.27 31.76 93.19 32.11 92.01 32.45 96.75 32.8 95.56 33.15 96.75 33.5 105.04 33.85 101.49 34.2 109.78 34.55 109.78 34.9 100.3 35.25 100.3 35.6 101.49 35.95 100.3 36.3 103.86 36.64 100.3 36.99 93.19 37.34 101.49 37.69 110.97 38.04 105.04 38.39 100.3 38.74 100.3 39.09 99.12 39.44 103.86 39.79 93.19 40.14 90.82 40.49 97.93 40.83 101.49 41.18 103.86 41.53 102.67 41.88 101.49 42.23 100.3 42.58 103.86 42.93 102.67 43.28 103.86 43.63 105.04 43.98 101.49 44.33 109.78 44.67 105.04 45.02 99.12 45.37 95.56 45.72 100.3 46.07 96.75 46.42 96.75 46.77 102.67 47.12 99.12 47.47 99.12 47.82 94.38 48.17 89.64 48.52 89.64 48.86 89.64 49.21 89.64 49.56 92.01 49.91 100.3 50.26 93.19 50.61 95.56 50.96 84.9 51.31 82.53 51.66 81.34 52.01 90.82 52.36 86.08 52.7 82.53 53.05 74.23 53.4 76.6 53.75 77.79 54.1 77.79 54.45 80.16 54.8 73.05 55.15 73.05 55.5 60.01 55.85 57.64 56.2 63.57 56.55 61.2 56.89 57.64 57.24 48.16 57.59 50.53 57.94 56.46 58.29 42.24 58.64 44.61 58.99 39.87 59.34 38.68 59.69 43.42 60.04 41.05 60.39 42.24 60.73 44.61 61.08 45.79 61.43 37.5 61.78 38.68 62.13 41.05 62.48 42.24 62.83 42.24 63.18 41.05 63.53 46.98 63.88 48.16 64.23 49.35 64.58 44.61 64.92 44.61 65.27 45.79 65.62 48.16 65.97 52.9 66.32 51.72 66.67 52.9 67.02 46.98 67.37 54.09 67.72 49.35 68.07 58.83 68.42 61.2 68.77 61.2 69.11 61.2 69.46 70.68 69.81 81.34 70.16 76.6 70.51 76.6 70.86 81.34 71.21 90.82 71.56 88.45 71.91 90.82 72.26 93.19 72.61 102.67 72.95 103.86 73.3 96.75 73.65 89.64 74 94.38 74.35 97.93 74.7 102.67 75.05 106.23 75.4 107.41 75.75 107.41 76.1 110.97 76.45 108.6 76.8 112.15 77.14 110.97 77.49 108.6 77.84 105.04 78.19 106.23 78.54 105.04 78.89 105.04 79.24 100.3 79.59 100.3 79.94 93.19 80.29 94.38 80.64 96.75 80.98 99.12 81.33 99.12 81.68 108.6 82.03 99.12 82.38 100.3 82.73 95.56 83.08 88.45 83.43 92.01 83.78 96.75 84.13 106.23 84.48 102.67 84.83 101.49 85.17 95.56 85.52 92.01 85.87 86.08 86.22 92.01 86.57 88.45 86.92 90.82 87.27 92.01 87.62 96.75 87.97 97.93 88.32 102.67 88.67 94.38 89.02 93.19 89.36 95.56 89.71 95.56 90.06 102.67 90.41 96.75 90.76 96.75 91.11 97.93 91.46 94.38 91.81 93.19 92.16 88.45 92.51 83.71 92.86 73.05 93.2 65.94 93.55 73.05 93.9 73.05 94.25 74.23 94.6 73.05 94.95 61.2 95.3 61.2 95.65 65.94 96 50.53 96.35 50.53 96.7 49.35 97.05 58.83 97.39 50.53 97.74 63.57 98.09 68.31 98.44 68.31 98.79 71.86 99.14 74.23 99.49 62.38 99.84 55.27 100.19 54.09 100.54 54.09 100.89 48.16 101.23 60.01 101.58 52.9 101.93 55.27 102.28 55.27 102.63 55.27 102.98 55.27 103.33 50.53 103.68 54.09 104.03 54.09 104.38 51.72 104.73 41.05 105.08 45.79 105.42 50.53 105.77 48.16 106.12 54.09 106.47 54.09 106.82 54.09 107.17 56.46 107.52 54.09 107.87 50.53 108.22 44.61 108.57 43.42 108.92 38.68 109.26 38.68 109.61 32.76 109.96 32.76 110.31 29.2 110.66 28.02 111.01 33.94 111.36 29.2 111.71 23.28 112.06 28.02 112.41 31.57 112.76 35.13 113.11 35.13 113.45 31.57 113.8 31.57 114.15 39.87 114.5 42.24 114.85 54.09 115.2 52.9 115.55 58.83 115.9 61.2 116.25 57.64 116.6 54.09 116.95 52.9 117.3 57.64 117.64 52.9 117.99 45.79 118.34 54.09 118.69 64.75 119.04 73.05 119.39 69.49 119.74 71.86 120.09 77.79 120.44 71.86 120.79 82.53 121.14 74.23 121.48 86.08 121.83 80.16 122.18 88.45 122.53 80.16 122.88 80.16 123.23 78.97 123.58 86.08 123.93 84.9 124.28 93.19 124.63 83.71 124.98 86.08 125.33 75.42 125.67 76.6 126.02 84.9 126.37 87.27 126.72 90.82 127.07 94.38 127.42 107.41 127.77 107.41 128.12 106.23 128.47 105.04 128.82 102.67 129.17 106.23 129.51 105.04 129.86 103.86 130.21 99.12 130.56 97.93 130.91 106.23 131.26 92.01 131.61 94.38 131.96 94.38 132.31 97.93 132.66 88.45 133.01 88.45 133.36 82.53 133.7 102.67 134.05 107.41 134.4 103.86 134.75 101.49 135.1 96.75 135.45 97.93 135.8 94.38 136.15 89.64 136.5 88.45 136.85 83.71 137.2 86.08 137.55 83.71 137.89 83.71 138.24 89.64 138.59 94.38 138.94 103.86 139.29 110.97 139.64 107.41 139.99 100.3 140.34 103.86 140.69 106.23 141.04 105.04 141.39 108.6 141.73 112.15 142.08 108.6 142.43 113.34 142.78 114.52 143.13 116.89 143.48 120.45 143.83 116.89 144.18 108.6 144.53 105.04 144.88 107.41 145.23 112.15 145.58 116.89 145.92 114.52 146.27 115.71 146.62 113.34 146.97 108.6 147.32 109.78 147.67 113.34 148.02 120.45 148.37 118.08 148.72 116.89 149.07 119.26 149.42 120.45 149.76 115.71 150.11 114.52 150.46 118.08 150.81 122.82 151.16 124 151.51 118.08 151.86 121.63 152.21 121.63 152.56 122.82 152.91 128.74 153.26 126.37 153.61 128.74 153.95 128.74 154.3 129.93 154.65 129.93 155 131.11"/>
      </g>
      <g stroke-width="0.3" fill="#000000" fill-opacity="0.000" class="geometry" stroke-dasharray="none" stroke="#F46D43" id="img-f6fbd98f-17">
        <path fill="none" d="M21.98,71.86 L 22.33 73.05 22.68 82.53 23.03 75.42 23.38 73.05 23.73 70.68 24.08 67.12 24.42 75.42 24.77 69.49 25.12 69.49 25.47 62.38 25.82 63.57 26.17 64.75 26.52 60.01 26.87 60.01 27.22 62.38 27.57 70.68 27.92 70.68 28.27 63.57 28.61 57.64 28.96 56.46 29.31 58.83 29.66 49.35 30.01 57.64 30.36 58.83 30.71 45.79 31.06 43.42 31.41 46.98 31.76 44.61 32.11 39.87 32.45 38.68 32.8 35.13 33.15 39.87 33.5 44.61 33.85 50.53 34.2 45.79 34.55 48.16 34.9 55.27 35.25 54.09 35.6 54.09 35.95 49.35 36.3 39.87 36.64 35.13 36.99 32.76 37.34 36.31 37.69 31.57 38.04 41.05 38.39 38.68 38.74 31.57 39.09 28.02 39.44 23.28 39.79 19.72 40.14 25.65 40.49 31.57 40.83 31.57 41.18 32.76 41.53 36.31 41.88 30.39 42.23 39.87 42.58 44.61 42.93 45.79 43.28 46.98 43.63 61.2 43.98 61.2 44.33 57.64 44.67 51.72 45.02 43.42 45.37 41.05 45.72 52.9 46.07 54.09 46.42 58.83 46.77 56.46 47.12 60.01 47.47 63.57 47.82 68.31 48.17 71.86 48.52 77.79 48.86 87.27 49.21 70.68 49.56 69.49 49.91 64.75 50.26 74.23 50.61 70.68 50.96 68.31 51.31 73.05 51.66 69.49 52.01 80.16 52.36 83.71 52.7 93.19 53.05 83.71 53.4 82.53 53.75 89.64 54.1 92.01 54.45 94.38 54.8 88.45 55.15 87.27 55.5 84.9 55.85 81.34 56.2 84.9 56.55 81.34 56.89 89.64 57.24 99.12 57.59 106.23 57.94 107.41 58.29 107.41 58.64 105.04 58.99 99.12 59.34 101.49 59.69 100.3 60.04 102.67 60.39 109.78 60.73 112.15 61.08 116.89 61.43 120.45 61.78 126.37 62.13 127.56 62.48 128.74 62.83 128.74 63.18 131.11"/>
      </g>
      <g stroke-width="0.3" fill="#000000" fill-opacity="0.000" class="geometry" stroke-dasharray="none" stroke="#D53E4F" id="img-f6fbd98f-18">
        <path fill="none" d="M21.98,71.86 L 22.33 74.23 22.68 81.34 23.03 83.71 23.38 84.9 23.73 88.45 24.08 89.64 24.42 90.82 24.77 94.38 25.12 92.01 25.47 86.08 25.82 90.82 26.17 94.38 26.52 96.75 26.87 90.82 27.22 90.82 27.57 88.45 27.92 87.27 28.27 82.53 28.61 73.05 28.96 77.79 29.31 86.08 29.66 81.34 30.01 77.79 30.36 69.49 30.71 71.86 31.06 75.42 31.41 74.23 31.76 80.16 32.11 71.86 32.45 80.16 32.8 69.49 33.15 76.6 33.5 71.86 33.85 74.23 34.2 67.12 34.55 58.83 34.9 57.64 35.25 65.94 35.6 69.49 35.95 69.49 36.3 63.57 36.64 67.12 36.99 76.6 37.34 74.23 37.69 67.12 38.04 52.9 38.39 49.35 38.74 48.16 39.09 44.61 39.44 41.05 39.79 48.16 40.14 46.98 40.49 45.79 40.83 42.24 41.18 49.35 41.53 43.42 41.88 39.87 42.23 30.39 42.58 23.28 42.93 22.09 43.28 19.72 43.63 16.17 43.98 13.8 44.33 13.8 44.67 12.61"/>
      </g>
      <g stroke-width="0.3" fill="#000000" fill-opacity="0.000" class="geometry" stroke-dasharray="none" stroke="#9E0142" id="img-f6fbd98f-19">
        <path fill="none" d="M21.98,71.86 L 22.33 67.12 22.68 70.68 23.03 69.49 23.38 77.79 23.73 73.05 24.08 80.16 24.42 80.16 24.77 78.97 25.12 73.05 25.47 71.86 25.82 71.86 26.17 64.75 26.52 57.64 26.87 50.53 27.22 49.35 27.57 41.05 27.92 45.79 28.27 43.42 28.61 43.42 28.96 31.57 29.31 26.83 29.66 26.83 30.01 25.65 30.36 26.83 30.71 20.91 31.06 19.72 31.41 19.72 31.76 17.35 32.11 14.98 32.45 17.35 32.8 17.35 33.15 18.54 33.5 17.35 33.85 14.98 34.2 14.98 34.55 16.17 34.9 16.17 35.25 13.8 35.6 14.98 35.95 19.72 36.3 18.54 36.64 17.35 36.99 16.17 37.34 17.35 37.69 14.98 38.04 18.54 38.39 22.09 38.74 22.09 39.09 28.02 39.44 30.39 39.79 26.83 40.14 31.57 40.49 32.76 40.83 31.57 41.18 32.76 41.53 28.02 41.88 35.13 42.23 33.94 42.58 32.76 42.93 33.94 43.28 29.2 43.63 31.57 43.98 32.76 44.33 31.57 44.67 18.54 45.02 16.17 45.37 18.54 45.72 19.72 46.07 19.72 46.42 16.17 46.77 18.54 47.12 14.98 47.47 12.61"/>
      </g>
    </g>
  </g>
</g>
  <g class="guide ylabels" font-size="2.82" font-family="'PT Sans Caption','Helvetica Neue','Helvetica',sans-serif" fill="#000000" id="img-f6fbd98f-20">
    <text x="18.63" y="131.11" text-anchor="end" dy="0.35em">0</text>
    <text x="18.63" y="71.86" text-anchor="end" dy="0.35em">50</text>
    <text x="18.63" y="12.61" text-anchor="end" dy="0.35em">100</text>
  </g>
  <g font-size="3.88" font-family="'PT Sans','Helvetica Neue','Helvetica',sans-serif" fill="#000000" stroke="#000000" stroke-opacity="0.000" id="img-f6fbd98f-21">
    <text x="8.81" y="69.86" text-anchor="middle" dy="0.35em" transform="rotate(-90, 8.81, 71.86)">population number</text>
  </g>
  <g font-size="3.88" font-family="'PT Sans','Helvetica Neue','Helvetica',sans-serif" fill="#000000" stroke="#000000" stroke-opacity="0.000" id="img-f6fbd98f-22">
    <text x="108.92" y="5" text-anchor="middle" dy="0.6em">genetic drift</text>
  </g>
</g>
<defs>
  <clipPath id="img-f6fbd98f-4">
  <path d="M19.63,10.61 L 198.2 10.61 198.2 133.11 19.63 133.11" />
</clipPath>
</defs>
</svg>
