<?xml version="1.0" encoding="UTF-8"?>
<svg xmlns="http://www.w3.org/2000/svg"
     xmlns:xlink="http://www.w3.org/1999/xlink"
     xmlns:gadfly="http://www.gadflyjl.org/ns"
     version="1.2"
     width="203.2mm" height="152.4mm" viewBox="0 0 203.2 152.4"
     stroke="none"
     fill="#000000"
     stroke-width="0.3"
     font-size="3.88"
>
<g class="plotroot xscalable yscalable" id="img-14ccb472-1">
  <g font-size="3.88" font-family="'PT Sans','Helvetica Neue','Helvetica',sans-serif" fill="#000000" stroke="#000000" stroke-opacity="0.000" id="img-14ccb472-2">
    <text x="108.92" y="140.79" text-anchor="middle" dy="0.6em">generation number</text>
  </g>
  <g class="guide xlabels" font-size="2.82" font-family="'PT Sans Caption','Helvetica Neue','Helvetica',sans-serif" fill="#000000" id="img-14ccb472-3">
    <text x="21.63" y="134.11" text-anchor="middle" dy="0.6em">0</text>
    <text x="56.55" y="134.11" text-anchor="middle" dy="0.6em">100</text>
    <text x="91.46" y="134.11" text-anchor="middle" dy="0.6em">200</text>
    <text x="126.37" y="134.11" text-anchor="middle" dy="0.6em">300</text>
    <text x="161.29" y="134.11" text-anchor="middle" dy="0.6em">400</text>
    <text x="196.2" y="134.11" text-anchor="middle" dy="0.6em">500</text>
  </g>
<g clip-path="url(#img-14ccb472-4)">
  <g id="img-14ccb472-5">
    <g pointer-events="visible" opacity="1" fill="#FFFFFF" stroke="#000000" stroke-opacity="0.000" class="guide background" id="img-14ccb472-6">
      <rect x="19.63" y="10.61" width="178.57" height="122.5"/>
    </g>
    <g class="guide ygridlines xfixed" stroke-dasharray="0.5,0.5" stroke-width="0.2" stroke="#808080" id="img-14ccb472-7">
      <path fill="none" d="M19.63,131.11 L 198.2 131.11"/>
      <path fill="none" d="M19.63,101.49 L 198.2 101.49"/>
      <path fill="none" d="M19.63,71.86 L 198.2 71.86"/>
      <path fill="none" d="M19.63,42.24 L 198.2 42.24"/>
      <path fill="none" d="M19.63,12.61 L 198.2 12.61"/>
    </g>
    <g class="guide xgridlines yfixed" stroke-dasharray="0.5,0.5" stroke-width="0.2" stroke="#808080" id="img-14ccb472-8">
      <path fill="none" d="M21.63,10.61 L 21.63 133.11"/>
      <path fill="none" d="M56.55,10.61 L 56.55 133.11"/>
      <path fill="none" d="M91.46,10.61 L 91.46 133.11"/>
      <path fill="none" d="M126.37,10.61 L 126.37 133.11"/>
      <path fill="none" d="M161.29,10.61 L 161.29 133.11"/>
      <path fill="none" d="M196.2,10.61 L 196.2 133.11"/>
    </g>
    <g class="plotpanel" id="img-14ccb472-9">
      <g stroke-width="0.3" fill="#000000" fill-opacity="0.000" class="geometry" stroke-dasharray="none" stroke="#3288BD" id="img-14ccb472-10">
        <path fill="none" d="M21.98,71.86 L 22.33 78.97 22.68 76.01 23.03 72.46 23.38 75.42 23.73 73.64 24.08 69.49 24.42 75.42 24.77 73.05 25.12 74.83 25.47 70.68 25.82 71.27 26.17 72.46 26.52 74.23 26.87 73.05 27.22 70.68 27.57 62.98 27.92 57.64 28.27 57.05 28.61 58.83 28.96 55.87 29.31 58.83 29.66 57.64 30.01 51.13 30.36 44.61 30.71 45.79 31.06 44.61 31.41 46.98 31.76 47.57 32.11 48.76 32.45 55.27 32.8 58.83 33.15 58.83 33.5 60.01 33.85 57.05 34.2 52.9 34.55 50.53 34.9 48.76 35.25 44.02 35.6 41.64 35.95 43.42 36.3 36.9 36.64 38.09 36.99 41.05 37.34 39.27 37.69 33.94 38.04 30.39 38.39 28.61 38.74 25.65 39.09 22.68 39.44 23.28 39.79 23.28 40.14 22.68 40.49 26.83 40.83 25.05 41.18 21.5 41.53 20.91 41.88 23.28 42.23 22.09 42.58 20.91 42.93 19.72 43.28 21.5 43.63 17.35 43.98 17.35 44.33 17.94 44.67 19.13 45.02 18.54 45.37 19.72 45.72 17.35 46.07 17.35 46.42 18.54 46.77 18.54 47.12 18.54 47.47 19.72 47.82 22.68 48.17 24.46 48.52 20.91 48.86 20.31 49.21 19.72 49.56 22.68 49.91 23.28 50.26 22.68 50.61 21.5 50.96 21.5 51.31 22.09 51.66 20.91 52.01 21.5 52.36 20.31 52.7 20.31 53.05 19.72 53.4 19.13 53.75 18.54 54.1 20.91 54.45 20.91 54.8 22.68 55.15 22.68 55.5 21.5 55.85 20.91 56.2 20.91 56.55 22.09 56.89 22.68 57.24 21.5 57.59 20.31 57.94 18.54 58.29 16.76 58.64 17.35 58.99 16.76 59.34 15.57 59.69 14.98 60.04 14.98 60.39 14.98 60.73 12.61"/>
      </g>
      <g stroke-width="0.3" fill="#000000" fill-opacity="0.000" class="geometry" stroke-dasharray="none" stroke="#66C2A5" id="img-14ccb472-11">
        <path fill="none" d="M21.98,71.86 L 22.33 75.42 22.68 71.27 23.03 68.31 23.38 78.97 23.73 80.75 24.08 84.9 24.42 77.2 24.77 76.01 25.12 76.6 25.47 81.94 25.82 85.49 26.17 83.71 26.52 81.94 26.87 77.2 27.22 74.83 27.57 68.31 27.92 66.53 28.27 61.79 28.61 67.12 28.96 73.64 29.31 69.49 29.66 71.27 30.01 68.9 30.36 68.9 30.71 67.12 31.06 70.68 31.41 74.83 31.76 73.64 32.11 76.01 32.45 83.12 32.8 86.08 33.15 83.12 33.5 74.23 33.85 75.42 34.2 81.34 34.55 87.86 34.9 91.42 35.25 88.45 35.6 94.38 35.95 91.42 36.3 90.82 36.64 90.23 36.99 92.01 37.34 92.6 37.69 96.75 38.04 98.53 38.39 102.67 38.74 98.53 39.09 99.71 39.44 101.49 39.79 100.3 40.14 99.71 40.49 90.82 40.83 83.71 41.18 93.19 41.53 94.97 41.88 96.16 42.23 94.97 42.58 95.56 42.93 97.34 43.28 90.82 43.63 93.79 43.98 100.9 44.33 99.12 44.67 94.97 45.02 94.97 45.37 92.01 45.72 96.16 46.07 98.53 46.42 97.93 46.77 93.79 47.12 95.56 47.47 93.19 47.82 96.75 48.17 97.93 48.52 98.53 48.86 103.27 49.21 102.67 49.56 104.45 49.91 108.6 50.26 105.64 50.61 101.49 50.96 105.04 51.31 110.38 51.66 109.78 52.01 113.93 52.36 112.75 52.7 112.75 53.05 112.75 53.4 112.15 53.75 106.82 54.1 106.82 54.45 106.82 54.8 107.41 55.15 106.23 55.5 98.53 55.85 96.75 56.2 89.64 56.55 96.16 56.89 92.01 57.24 88.45 57.59 90.23 57.94 92.6 58.29 93.79 58.64 97.93 58.99 91.42 59.34 81.94 59.69 80.16 60.04 81.94 60.39 82.53 60.73 89.05 61.08 95.56 61.43 93.79 61.78 91.42 62.13 96.75 62.48 102.08 62.83 105.64 63.18 103.27 63.53 100.3 63.88 103.86 64.23 104.45 64.58 96.75 64.92 97.93 65.27 95.56 65.62 92.6 65.97 96.75 66.32 99.71 66.67 98.53 67.02 96.75 67.37 97.34 67.72 95.56 68.07 97.34 68.42 93.19 68.77 90.82 69.11 90.23 69.46 83.12 69.81 78.38 70.16 75.42 70.51 76.01 70.86 80.16 71.21 76.6 71.56 87.86 71.91 88.45 72.26 88.45 72.61 92.01 72.95 93.19 73.3 90.23 73.65 98.53 74 93.79 74.35 97.93 74.7 88.45 75.05 88.45 75.4 83.12 75.75 84.9 76.1 78.97 76.45 81.34 76.8 73.64 77.14 71.86 77.49 68.9 77.84 68.9 78.19 59.42 78.54 60.01 78.89 62.38 79.24 57.05 79.59 60.61 79.94 65.35 80.29 58.83 80.64 54.09 80.98 57.05 81.33 57.05 81.68 54.68 82.03 61.2 82.38 60.01 82.73 55.27 83.08 57.05 83.43 53.5 83.78 53.5 84.13 55.87 84.48 53.5 84.83 57.05 85.17 59.42 85.52 63.57 85.87 62.38 86.22 59.42 86.57 57.64 86.92 58.24 87.27 61.2 87.62 57.64 87.97 57.05 88.32 64.75 88.67 69.49 89.02 66.53 89.36 64.75 89.71 68.9 90.06 73.05 90.41 76.6 90.76 70.68 91.11 67.12 91.46 70.68 91.81 73.64 92.16 73.64 92.51 66.53 92.86 70.68 93.2 70.68 93.55 74.83 93.9 74.23 94.25 67.72 94.6 69.49 94.95 73.05 95.3 70.68 95.65 74.23 96 71.86 96.35 74.83 96.7 74.23 97.05 71.86 97.39 76.6 97.74 80.16 98.09 80.75 98.44 70.09 98.79 74.23 99.14 81.94 99.49 84.9 99.84 86.08 100.19 85.49 100.54 81.34 100.89 81.94 101.23 89.64 101.58 83.71 101.93 81.94 102.28 81.34 102.63 78.97 102.98 81.94 103.33 83.71 103.68 87.27 104.03 90.82 104.38 84.31 104.73 90.23 105.08 83.12 105.42 78.97 105.77 73.05 106.12 80.75 106.47 84.31 106.82 81.94 107.17 76.01 107.52 74.23 107.87 74.23 108.22 74.83 108.57 81.34 108.92 84.9 109.26 89.05 109.61 85.49 109.96 85.49 110.31 78.38 110.66 87.86 111.01 89.64 111.36 85.49 111.71 89.05 112.06 84.9 112.41 83.12 112.76 85.49 113.11 89.05 113.45 86.08 113.8 81.94 114.15 83.12 114.5 86.08 114.85 87.27 115.2 89.64 115.55 90.82 115.9 100.3 116.25 109.78 116.6 109.78 116.95 106.82 117.3 106.23 117.64 105.64 117.99 105.04 118.34 111.56 118.69 109.78 119.04 109.78 119.39 110.97 119.74 108.01 120.09 108.6 120.44 112.75 120.79 117.49 121.14 119.86 121.48 115.12 121.83 114.52 122.18 115.71 122.53 117.49 122.88 115.71 123.23 110.97 123.58 112.15 123.93 110.38 124.28 112.15 124.63 109.19 124.98 103.27 125.33 102.67 125.67 102.08 126.02 106.23 126.37 106.23 126.72 108.6 127.07 107.41 127.42 106.82 127.77 102.67 128.12 105.64 128.47 110.38 128.82 105.04 129.17 99.71 129.51 98.53 129.86 96.16 130.21 97.34 130.56 98.53 130.91 97.93 131.26 101.49 131.61 97.34 131.96 96.16 132.31 97.34 132.66 103.86 133.01 105.64 133.36 108.6 133.7 113.93 134.05 111.56 134.4 114.52 134.75 116.3 135.1 114.52 135.45 118.08 135.8 118.08 136.15 116.3 136.5 111.56 136.85 110.38 137.2 106.82 137.55 100.3 137.89 91.42 138.24 90.23 138.59 82.53 138.94 90.23 139.29 92.01 139.64 91.42 139.99 90.23 140.34 92.6 140.69 92.6 141.04 90.23 141.39 95.56 141.73 93.79 142.08 94.38 142.43 84.31 142.78 81.94 143.13 87.86 143.48 87.86 143.83 92.01 144.18 97.34 144.53 95.56 144.88 103.27 145.23 108.01 145.58 111.56 145.92 111.56 146.27 111.56 146.62 107.41 146.97 105.64 147.32 109.78 147.67 108.6 148.02 112.15 148.37 108.6 148.72 107.41 149.07 107.41 149.42 107.41 149.76 109.78 150.11 114.52 150.46 109.78 150.81 110.97 151.16 109.19 151.51 109.78 151.86 111.56 152.21 113.34 152.56 116.89 152.91 115.71 153.26 118.67 153.61 116.89 153.95 115.71 154.3 116.89 154.65 120.45 155 113.93 155.35 116.3 155.7 118.67 156.05 120.45 156.4 122.23 156.75 126.37 157.1 125.78 157.45 125.19 157.79 121.04 158.14 116.89 158.49 118.67 158.84 117.49 159.19 117.49 159.54 119.26 159.89 117.49 160.24 118.08 160.59 119.26 160.94 114.52 161.29 114.52 161.64 117.49 161.98 119.26 162.33 119.86 162.68 116.3 163.03 112.75 163.38 111.56 163.73 108.01 164.08 107.41 164.43 106.23 164.78 107.41 165.13 109.78 165.48 108.01 165.83 105.64 166.17 108.6 166.52 110.38 166.87 106.23 167.22 116.3 167.57 115.12 167.92 112.75 168.27 113.34 168.62 116.89 168.97 114.52 169.32 112.75 169.67 113.34 170.01 111.56 170.36 109.78 170.71 105.04 171.06 102.08 171.41 106.82 171.76 110.38 172.11 112.75 172.46 103.86 172.81 102.08 173.16 99.12 173.51 99.71 173.86 100.3 174.2 99.71 174.55 103.27 174.9 101.49 175.25 107.41 175.6 114.52 175.95 112.75 176.3 118.67 176.65 113.93 177 115.71 177.35 118.67 177.7 122.23 178.04 121.63 178.39 122.23 178.74 119.86 179.09 118.08 179.44 119.26 179.79 118.67 180.14 120.45 180.49 123.41 180.84 121.63 181.19 120.45 181.54 121.04 181.89 123.41 182.23 125.19 182.58 123.41 182.93 127.56 183.28 125.19 183.63 125.78 183.98 125.19 184.33 125.78 184.68 122.82 185.03 119.86 185.38 123.41 185.73 121.63 186.08 119.26 186.42 116.89 186.77 119.86 187.12 118.67 187.47 122.82 187.82 122.82 188.17 121.04 188.52 118.67 188.87 121.63 189.22 120.45 189.57 118.08 189.92 116.89 190.26 117.49 190.61 115.12 190.96 117.49 191.31 115.12 191.66 118.08 192.01 119.86 192.36 120.45 192.71 118.08 193.06 115.12 193.41 121.04 193.76 122.82 194.11 122.23 194.45 123.41 194.8 123.41 195.15 125.19 195.5 126.97 195.85 127.56 196.2 128.74"/>
      </g>
      <g stroke-width="0.3" fill="#000000" fill-opacity="0.000" class="geometry" stroke-dasharray="none" stroke="#ABDDA4" id="img-14ccb472-12">
        <path fill="none" d="M21.98,71.86 L 22.33 73.05 22.68 73.64 23.03 66.53 23.38 60.61 23.73 57.64 24.08 54.68 24.42 49.35 24.77 45.2 25.12 46.39 25.47 44.02 25.82 45.2 26.17 48.16 26.52 50.53 26.87 47.57 27.22 52.31 27.57 53.5 27.92 58.83 28.27 58.24 28.61 63.57 28.96 65.35 29.31 67.72 29.66 64.75 30.01 69.49 30.36 73.05 30.71 80.16 31.06 77.2 31.41 72.46 31.76 76.6 32.11 80.75 32.45 75.42 32.8 74.23 33.15 72.46 33.5 77.79 33.85 74.23 34.2 76.01 34.55 74.83 34.9 71.27 35.25 73.64 35.6 76.01 35.95 73.64 36.3 68.31 36.64 68.31 36.99 68.31 37.34 62.38 37.69 63.57 38.04 71.27 38.39 73.64 38.74 71.86 39.09 69.49 39.44 72.46 39.79 80.16 40.14 77.2 40.49 72.46 40.83 64.75 41.18 65.35 41.53 67.72 41.88 72.46 42.23 70.68 42.58 71.27 42.93 74.83 43.28 78.38 43.63 82.53 43.98 80.16 44.33 78.97 44.67 78.38 45.02 77.79 45.37 76.6 45.72 77.2 46.07 73.05 46.42 74.23 46.77 79.57 47.12 81.34 47.47 81.34 47.82 74.83 48.17 78.97 48.52 78.38 48.86 78.97 49.21 74.23 49.56 78.97 49.91 83.12 50.26 83.12 50.61 84.31 50.96 86.68 51.31 87.27 51.66 85.49 52.01 82.53 52.36 86.68 52.7 84.9 53.05 84.31 53.4 82.53 53.75 81.34 54.1 81.94 54.45 86.68 54.8 84.31 55.15 91.42 55.5 89.64 55.85 92.6 56.2 97.93 56.55 93.19 56.89 90.82 57.24 86.68 57.59 89.05 57.94 94.38 58.29 95.56 58.64 92.6 58.99 95.56 59.34 96.16 59.69 95.56 60.04 91.42 60.39 83.12 60.73 85.49 61.08 88.45 61.43 84.9 61.78 84.31 62.13 84.31 62.48 89.05 62.83 87.27 63.18 92.6 63.53 95.56 63.88 94.97 64.23 92.6 64.58 100.3 64.92 98.53 65.27 97.34 65.62 101.49 65.97 100.9 66.32 95.56 66.67 103.86 67.02 105.04 67.37 105.04 67.72 108.01 68.07 107.41 68.42 107.41 68.77 108.6 69.11 109.19 69.46 108.01 69.81 106.82 70.16 107.41 70.51 107.41 70.86 112.15 71.21 113.93 71.56 108.6 71.91 110.38 72.26 112.75 72.61 110.97 72.95 103.86 73.3 103.27 73.65 108.01 74 104.45 74.35 108.6 74.7 107.41 75.05 103.86 75.4 106.23 75.75 102.08 76.1 100.9 76.45 104.45 76.8 109.19 77.14 106.82 77.49 109.78 77.84 110.97 78.19 108.01 78.54 105.04 78.89 103.27 79.24 99.71 79.59 103.86 79.94 100.3 80.29 97.34 80.64 101.49 80.98 99.12 81.33 104.45 81.68 102.67 82.03 104.45 82.38 103.86 82.73 108.01 83.08 103.86 83.43 102.08 83.78 103.86 84.13 109.19 84.48 112.75 84.83 110.97 85.17 109.19 85.52 112.15 85.87 115.71 86.22 116.3 86.57 113.93 86.92 110.38 87.27 114.52 87.62 112.75 87.97 110.38 88.32 106.82 88.67 108.01 89.02 106.82 89.36 112.15 89.71 113.93 90.06 111.56 90.41 107.41 90.76 106.82 91.11 103.86 91.46 96.75 91.81 91.42 92.16 90.23 92.51 84.9 92.86 83.12 93.2 89.64 93.55 85.49 93.9 84.31 94.25 83.12 94.6 81.34 94.95 80.75 95.3 75.42 95.65 76.01 96 80.16 96.35 77.79 96.7 79.57 97.05 80.75 97.39 84.31 97.74 86.08 98.09 81.94 98.44 80.16 98.79 73.05 99.14 73.05 99.49 74.23 99.84 70.68 100.19 67.12 100.54 65.35 100.89 70.09 101.23 68.31 101.58 68.31 101.93 72.46 102.28 74.23 102.63 68.9 102.98 68.31 103.33 61.2 103.68 68.9 104.03 62.38 104.38 67.72 104.73 60.01 105.08 64.16 105.42 63.57 105.77 61.79 106.12 61.79 106.47 60.61 106.82 63.57 107.17 60.61 107.52 61.2 107.87 59.42 108.22 54.68 108.57 57.05 108.92 54.09 109.26 53.5 109.61 51.13 109.96 53.5 110.31 56.46 110.66 54.68 111.01 51.13 111.36 57.64 111.71 54.09 112.06 49.35 112.41 51.72 112.76 57.64 113.11 58.83 113.45 67.12 113.8 61.79 114.15 63.57 114.5 70.68 114.85 71.27 115.2 73.05 115.55 77.79 115.9 72.46 116.25 74.83 116.6 73.05 116.95 65.35 117.3 60.61 117.64 54.68 117.99 51.72 118.34 50.53 118.69 44.02 119.04 46.39 119.39 36.9 119.74 37.5 120.09 46.98 120.44 46.39 120.79 44.02 121.14 39.87 121.48 45.79 121.83 45.2 122.18 42.83 122.53 41.64 122.88 45.2 123.23 45.2 123.58 46.98 123.93 41.05 124.28 44.02 124.63 39.27 124.98 33.35 125.33 30.39 125.67 36.31 126.02 41.64 126.37 38.68 126.72 37.5 127.07 41.05 127.42 39.87 127.77 32.76 128.12 31.57 128.47 30.39 128.82 35.72 129.17 40.46 129.51 35.13 129.86 36.9 130.21 39.27 130.56 36.31 130.91 38.09 131.26 38.68 131.61 34.53 131.96 38.09 132.31 42.24 132.66 40.46 133.01 37.5 133.36 38.09 133.7 41.64 134.05 39.87 134.4 44.61 134.75 46.39 135.1 46.39 135.45 42.83 135.8 39.87 136.15 32.76 136.5 31.57 136.85 34.53 137.2 32.76 137.55 34.53 137.89 33.35 138.24 38.09 138.59 35.13 138.94 35.13 139.29 35.72 139.64 36.31 139.99 34.53 140.34 36.9 140.69 33.35 141.04 26.83 141.39 25.65 141.73 20.91 142.08 20.91 142.43 20.31 142.78 20.31 143.13 20.91 143.48 22.09 143.83 22.68 144.18 25.65 144.53 25.65 144.88 29.79 145.23 26.83 145.58 30.98 145.92 30.39 146.27 27.42 146.62 26.83 146.97 28.02 147.32 25.65 147.67 25.05 148.02 28.61 148.37 24.46 148.72 25.05 149.07 23.28 149.42 25.05 149.76 28.02 150.11 30.39 150.46 31.57 150.81 35.13 151.16 36.31 151.51 38.09 151.86 43.42 152.21 45.79 152.56 44.61 152.91 48.16 153.26 44.61 153.61 37.5 153.95 36.31 154.3 42.24 154.65 42.24 155 42.24 155.35 40.46 155.7 35.72 156.05 32.76 156.4 26.24 156.75 29.79 157.1 29.79 157.45 28.02 157.79 29.2 158.14 30.39 158.49 30.98 158.84 32.76 159.19 36.9 159.54 35.13 159.89 33.94 160.24 33.94 160.59 29.2 160.94 23.28 161.29 21.5 161.64 20.31 161.98 19.72 162.33 20.91 162.68 19.72 163.03 15.57 163.38 15.57 163.73 12.61"/>
      </g>
      <g stroke-width="0.3" fill="#000000" fill-opacity="0.000" class="geometry" stroke-dasharray="none" stroke="#E6F598" id="img-14ccb472-13">
        <path fill="none" d="M21.98,71.86 L 22.33 73.05 22.68 76.6 23.03 85.49 23.38 89.05 23.73 90.23 24.08 91.42 24.42 99.71 24.77 103.86 25.12 100.3 25.47 96.75 25.82 102.67 26.17 105.04 26.52 107.41 26.87 105.04 27.22 100.9 27.57 94.38 27.92 98.53 28.27 96.16 28.61 101.49 28.96 96.16 29.31 92.01 29.66 89.05 30.01 92.6 30.36 100.3 30.71 103.86 31.06 108.01 31.41 108.01 31.76 109.78 32.11 109.78 32.45 109.19 32.8 108.6 33.15 110.97 33.5 105.04 33.85 101.49 34.2 101.49 34.55 102.08 34.9 97.93 35.25 96.16 35.6 97.93 35.95 93.19 36.3 95.56 36.64 87.86 36.99 83.71 37.34 84.31 37.69 90.82 38.04 87.27 38.39 81.34 38.74 78.38 39.09 77.79 39.44 76.6 39.79 79.57 40.14 73.05 40.49 70.68 40.83 75.42 41.18 76.6 41.53 68.31 41.88 73.05 42.23 74.23 42.58 73.05 42.93 67.72 43.28 70.68 43.63 71.27 43.98 60.61 44.33 65.35 44.67 69.49 45.02 67.12 45.37 60.01 45.72 54.09 46.07 56.46 46.42 56.46 46.77 50.53 47.12 51.13 47.47 48.16 47.82 44.02 48.17 45.2 48.52 44.61 48.86 38.68 49.21 43.42 49.56 41.05 49.91 38.68 50.26 36.31 50.61 38.09 50.96 38.68 51.31 36.9 51.66 33.94 52.01 34.53 52.36 36.9 52.7 40.46 53.05 35.72 53.4 39.87 53.75 39.87 54.1 42.24 54.45 42.24 54.8 38.09 55.15 41.05 55.5 39.87 55.85 39.87 56.2 46.98 56.55 48.16 56.89 43.42 57.24 44.02 57.59 39.27 57.94 44.61 58.29 48.16 58.64 50.53 58.99 57.05 59.34 51.72 59.69 53.5 60.04 45.2 60.39 42.83 60.73 41.64 61.08 41.05 61.43 42.24 61.78 42.24 62.13 38.09 62.48 32.76 62.83 31.57 63.18 31.57 63.53 31.57 63.88 37.5 64.23 33.35 64.58 30.39 64.92 29.79 65.27 28.61 65.62 26.83 65.97 29.2 66.32 29.2 66.67 23.87 67.02 23.87 67.37 26.83 67.72 23.87 68.07 28.02 68.42 22.09 68.77 20.91 69.11 18.54 69.46 23.28 69.81 22.68 70.16 20.91 70.51 18.54 70.86 19.13 71.21 20.31 71.56 19.72 71.91 17.35 72.26 16.76 72.61 18.54 72.95 20.91 73.3 20.31 73.65 20.91 74 18.54 74.35 22.09 74.7 22.09 75.05 21.5 75.4 18.54 75.75 16.17 76.1 16.76 76.45 17.94 76.8 19.13 77.14 17.94 77.49 16.17 77.84 15.57 78.19 13.2 78.54 12.61"/>
      </g>
      <g stroke-width="0.3" fill="#000000" fill-opacity="0.000" class="geometry" stroke-dasharray="none" stroke="#FFFFBF" id="img-14ccb472-14">
        <path fill="none" d="M21.98,71.86 L 22.33 73.64 22.68 69.49 23.03 73.05 23.38 71.86 23.73 71.86 24.08 67.72 24.42 67.12 24.77 67.12 25.12 67.72 25.47 62.38 25.82 50.53 26.17 42.83 26.52 34.53 26.87 42.24 27.22 42.24 27.57 46.98 27.92 48.76 28.27 47.57 28.61 44.02 28.96 47.57 29.31 55.27 29.66 52.31 30.01 55.87 30.36 56.46 30.71 58.24 31.06 53.5 31.41 49.35 31.76 48.76 32.11 45.79 32.45 43.42 32.8 44.61 33.15 42.83 33.5 44.61 33.85 46.39 34.2 40.46 34.55 34.53 34.9 35.13 35.25 35.72 35.6 29.2 35.95 27.42 36.3 23.87 36.64 21.5 36.99 19.72 37.34 24.46 37.69 24.46 38.04 21.5 38.39 21.5 38.74 20.91 39.09 21.5 39.44 22.09 39.79 20.91 40.14 18.54 40.49 16.17 40.83 16.76 41.18 16.76 41.53 19.13 41.88 20.31 42.23 20.91 42.58 19.72 42.93 20.91 43.28 22.68 43.63 22.09 43.98 22.09 44.33 19.72 44.67 14.98 45.02 13.8 45.37 13.2 45.72 13.8 46.07 14.39 46.42 13.2 46.77 14.39 47.12 14.39 47.47 13.8 47.82 13.8 48.17 12.61"/>
      </g>
      <g stroke-width="0.3" fill="#000000" fill-opacity="0.000" class="geometry" stroke-dasharray="none" stroke="#FEE08B" id="img-14ccb472-15">
        <path fill="none" d="M21.98,71.86 L 22.33 65.35 22.68 65.35 23.03 61.2 23.38 61.2 23.73 62.38 24.08 63.57 24.42 54.68 24.77 54.68 25.12 43.42 25.47 43.42 25.82 37.5 26.17 36.9 26.52 30.39 26.87 27.42 27.22 23.87 27.57 25.65 27.92 27.42 28.27 28.02 28.61 23.87 28.96 20.31 29.31 17.35 29.66 17.35 30.01 18.54 30.36 16.76 30.71 17.35 31.06 18.54 31.41 18.54 31.76 16.76 32.11 14.98 32.45 13.2 32.8 14.39 33.15 13.8 33.5 14.39 33.85 14.98 34.2 14.39 34.55 14.98 34.9 13.2 35.25 12.61"/>
      </g>
      <g stroke-width="0.3" fill="#000000" fill-opacity="0.000" class="geometry" stroke-dasharray="none" stroke="#FDAE61" id="img-14ccb472-16">
        <path fill="none" d="M21.98,71.86 L 22.33 77.2 22.68 78.38 23.03 76.6 23.38 71.86 23.73 78.38 24.08 77.2 24.42 83.71 24.77 82.53 25.12 78.97 25.47 78.97 25.82 78.38 26.17 84.9 26.52 83.71 26.87 81.34 27.22 78.97 27.57 76.01 27.92 71.86 28.27 70.68 28.61 68.9 28.96 63.57 29.31 62.98 29.66 59.42 30.01 56.46 30.36 51.13 30.71 48.76 31.06 52.31 31.41 51.13 31.76 51.72 32.11 54.09 32.45 47.57 32.8 45.79 33.15 44.02 33.5 44.02 33.85 41.64 34.2 44.02 34.55 43.42 34.9 39.27 35.25 38.68 35.6 42.24 35.95 40.46 36.3 39.87 36.64 40.46 36.99 40.46 37.34 44.02 37.69 45.2 38.04 39.87 38.39 38.68 38.74 36.31 39.09 36.31 39.44 34.53 39.79 41.05 40.14 41.64 40.49 48.16 40.83 46.98 41.18 54.68 41.53 60.01 41.88 62.98 42.23 58.24 42.58 55.27 42.93 52.9 43.28 53.5 43.63 57.05 43.98 52.31 44.33 51.72 44.67 46.39 45.02 42.83 45.37 39.87 45.72 41.05 46.07 38.68 46.42 33.94 46.77 37.5 47.12 41.64 47.47 41.64 47.82 45.2 48.17 44.02 48.52 46.98 48.86 50.53 49.21 48.76 49.56 40.46 49.91 42.83 50.26 41.64 50.61 34.53 50.96 41.05 51.31 38.68 51.66 42.83 52.01 38.68 52.36 35.13 52.7 38.09 53.05 36.9 53.4 36.9 53.75 36.31 54.1 38.09 54.45 41.05 54.8 38.68 55.15 42.83 55.5 47.57 55.85 51.13 56.2 58.24 56.55 54.09 56.89 54.09 57.24 57.64 57.59 54.09 57.94 59.42 58.29 60.61 58.64 55.87 58.99 54.09 59.34 56.46 59.69 52.9 60.04 50.53 60.39 47.57 60.73 48.76 61.08 52.31 61.43 54.68 61.78 58.24 62.13 60.61 62.48 67.12 62.83 62.98 63.18 71.27 63.53 74.23 63.88 72.46 64.23 71.86 64.58 78.38 64.92 85.49 65.27 91.42 65.62 85.49 65.97 87.27 66.32 86.08 66.67 83.71 67.02 81.34 67.37 76.6 67.72 76.6 68.07 79.57 68.42 81.94 68.77 79.57 69.11 72.46 69.46 68.9 69.81 71.27 70.16 64.16 70.51 65.35 70.86 65.94 71.21 64.75 71.56 65.94 71.91 68.9 72.26 69.49 72.61 72.46 72.95 67.72 73.3 70.68 73.65 70.09 74 74.23 74.35 70.68 74.7 65.94 75.05 57.64 75.4 60.61 75.75 49.35 76.1 53.5 76.45 52.31 76.8 53.5 77.14 44.02 77.49 44.02 77.84 48.76 78.19 53.5 78.54 53.5 78.89 48.16 79.24 45.2 79.59 46.98 79.94 41.64 80.29 45.2 80.64 44.02 80.98 45.2 81.33 51.72 81.68 52.31 82.03 57.64 82.38 56.46 82.73 60.01 83.08 65.94 83.43 62.98 83.78 62.38 84.13 65.94 84.48 72.46 84.83 75.42 85.17 71.86 85.52 74.23 85.87 76.6 86.22 76.6 86.57 76.6 86.92 78.97 87.27 67.72 87.62 65.35 87.97 68.31 88.32 67.72 88.67 64.75 89.02 66.53 89.36 74.83 89.71 76.01 90.06 75.42 90.41 76.6 90.76 75.42 91.11 75.42 91.46 84.9 91.81 90.23 92.16 89.64 92.51 87.86 92.86 92.01 93.2 90.82 93.55 83.12 93.9 80.75 94.25 78.38 94.6 77.2 94.95 83.71 95.3 84.31 95.65 83.71 96 87.27 96.35 83.71 96.7 79.57 97.05 78.38 97.39 72.46 97.74 78.97 98.09 78.97 98.44 79.57 98.79 77.79 99.14 80.16 99.49 81.34 99.84 80.75 100.19 82.53 100.54 81.94 100.89 78.97 101.23 78.38 101.58 82.53 101.93 74.83 102.28 80.16 102.63 87.86 102.98 81.94 103.33 85.49 103.68 80.75 104.03 88.45 104.38 90.82 104.73 89.64 105.08 91.42 105.42 90.82 105.77 88.45 106.12 93.19 106.47 89.64 106.82 81.34 107.17 80.16 107.52 86.08 107.87 79.57 108.22 81.94 108.57 77.2 108.92 77.2 109.26 80.16 109.61 86.08 109.96 86.68 110.31 88.45 110.66 90.23 111.01 90.23 111.36 92.6 111.71 92.6 112.06 96.75 112.41 97.93 112.76 101.49 113.11 102.67 113.45 103.86 113.8 97.93 114.15 97.93 114.5 97.34 114.85 99.71 115.2 102.08 115.55 103.86 115.9 108.01 116.25 108.01 116.6 103.27 116.95 101.49 117.3 103.27 117.64 101.49 117.99 96.16 118.34 93.79 118.69 96.16 119.04 97.93 119.39 86.68 119.74 83.71 120.09 83.12 120.44 81.34 120.79 84.9 121.14 84.31 121.48 75.42 121.83 72.46 122.18 73.64 122.53 73.05 122.88 80.75 123.23 75.42 123.58 77.2 123.93 79.57 124.28 83.71 124.63 83.12 124.98 87.86 125.33 93.79 125.67 100.3 126.02 97.93 126.37 96.75 126.72 92.01 127.07 86.68 127.42 80.16 127.77 76.6 128.12 75.42 128.47 78.38 128.82 81.34 129.17 77.2 129.51 76.01 129.86 78.38 130.21 81.94 130.56 85.49 130.91 85.49 131.26 73.64 131.61 67.72 131.96 76.01 132.31 79.57 132.66 81.94 133.01 81.94 133.36 75.42 133.7 76.6 134.05 73.64 134.4 80.16 134.75 79.57 135.1 79.57 135.45 76.6 135.8 80.16 136.15 77.2 136.5 77.79 136.85 86.08 137.2 84.31 137.55 89.64 137.89 83.12 138.24 86.08 138.59 86.68 138.94 90.23 139.29 92.6 139.64 97.93 139.99 99.12 140.34 100.9 140.69 99.71 141.04 97.93 141.39 95.56 141.73 97.34 142.08 101.49 142.43 107.41 142.78 111.56 143.13 113.93 143.48 112.75 143.83 112.15 144.18 116.3 144.53 121.63 144.88 125.19 145.23 126.97 145.58 128.74 145.92 128.15 146.27 128.15 146.62 126.37 146.97 125.78 147.32 125.78 147.67 127.56 148.02 128.15 148.37 129.34 148.72 128.74 149.07 126.97 149.42 127.56 149.76 127.56 150.11 126.97 150.46 125.19 150.81 126.97 151.16 125.78 151.51 125.19 151.86 125.19 152.21 123.41 152.56 122.82 152.91 119.26 153.26 117.49 153.61 119.86 153.95 120.45 154.3 121.63 154.65 124.6 155 126.97 155.35 126.97 155.7 127.56 156.05 126.97 156.4 128.74 156.75 127.56 157.1 129.34 157.45 129.34 157.79 124.6 158.14 124 158.49 121.04 158.84 121.63 159.19 126.37 159.54 125.78 159.89 125.78 160.24 123.41 160.59 121.63 160.94 119.86 161.29 121.04 161.64 122.82 161.98 121.04 162.33 118.08 162.68 120.45 163.03 119.86 163.38 115.12 163.73 119.26 164.08 120.45 164.43 121.63 164.78 121.63 165.13 122.82 165.48 125.19 165.83 124.6 166.17 125.78 166.52 126.37 166.87 126.37 167.22 126.37 167.57 129.34 167.92 129.93 168.27 127.56 168.62 129.34 168.97 129.34 169.32 128.74 169.67 129.34 170.01 131.11"/>
      </g>
      <g stroke-width="0.3" fill="#000000" fill-opacity="0.000" class="geometry" stroke-dasharray="none" stroke="#F46D43" id="img-14ccb472-17">
        <path fill="none" d="M21.98,71.86 L 22.33 77.79 22.68 81.34 23.03 76.6 23.38 73.05 23.73 74.83 24.08 70.68 24.42 83.71 24.77 86.08 25.12 84.9 25.47 83.12 25.82 85.49 26.17 90.23 26.52 90.23 26.87 94.38 27.22 95.56 27.57 96.75 27.92 99.71 28.27 100.3 28.61 97.93 28.96 84.31 29.31 85.49 29.66 83.12 30.01 83.71 30.36 85.49 30.71 86.68 31.06 84.9 31.41 82.53 31.76 82.53 32.11 88.45 32.45 86.08 32.8 83.71 33.15 82.53 33.5 78.97 33.85 77.2 34.2 77.2 34.55 76.6 34.9 80.16 35.25 85.49 35.6 89.64 35.95 92.6 36.3 93.79 36.64 96.75 36.99 97.93 37.34 96.75 37.69 106.82 38.04 103.86 38.39 112.15 38.74 108.01 39.09 101.49 39.44 103.27 39.79 101.49 40.14 102.67 40.49 105.64 40.83 109.78 41.18 109.78 41.53 110.97 41.88 104.45 42.23 111.56 42.58 108.6 42.93 113.93 43.28 116.89 43.63 117.49 43.98 117.49 44.33 117.49 44.67 120.45 45.02 118.67 45.37 121.63 45.72 125.19 46.07 125.78 46.42 122.23 46.77 114.52 47.12 118.08 47.47 113.93 47.82 112.75 48.17 114.52 48.52 114.52 48.86 112.15 49.21 112.75 49.56 116.3 49.91 116.89 50.26 114.52 50.61 119.86 50.96 121.04 51.31 116.89 51.66 120.45 52.01 116.89 52.36 119.26 52.7 116.89 53.05 119.86 53.4 117.49 53.75 114.52 54.1 117.49 54.45 118.67 54.8 119.26 55.15 123.41 55.5 124.6 55.85 124.6 56.2 122.82 56.55 124 56.89 123.41 57.24 123.41 57.59 122.82 57.94 122.23 58.29 125.78 58.64 124 58.99 119.86 59.34 119.26 59.69 121.04 60.04 122.82 60.39 121.63 60.73 122.23 61.08 124.6 61.43 118.67 61.78 116.89 62.13 114.52 62.48 117.49 62.83 114.52 63.18 114.52 63.53 117.49 63.88 113.34 64.23 111.56 64.58 113.93 64.92 111.56 65.27 113.34 65.62 107.41 65.97 99.12 66.32 105.64 66.67 109.78 67.02 114.52 67.37 116.3 67.72 120.45 68.07 116.89 68.42 119.86 68.77 121.04 69.11 118.67 69.46 116.89 69.81 119.86 70.16 122.82 70.51 123.41 70.86 126.97 71.21 128.15 71.56 126.97 71.91 127.56 72.26 127.56 72.61 126.97 72.95 128.74 73.3 129.93 73.65 129.93 74 129.93 74.35 131.11"/>
      </g>
      <g stroke-width="0.3" fill="#000000" fill-opacity="0.000" class="geometry" stroke-dasharray="none" stroke="#D53E4F" id="img-14ccb472-18">
        <path fill="none" d="M21.98,71.86 L 22.33 75.42 22.68 73.64 23.03 77.2 23.38 73.64 23.73 70.68 24.08 76.6 24.42 77.2 24.77 79.57 25.12 80.16 25.47 78.97 25.82 84.31 26.17 84.31 26.52 81.34 26.87 80.75 27.22 71.27 27.57 73.05 27.92 73.64 28.27 70.68 28.61 77.2 28.96 79.57 29.31 77.79 29.66 74.23 30.01 72.46 30.36 70.68 30.71 71.86 31.06 73.64 31.41 72.46 31.76 68.31 32.11 67.12 32.45 76.01 32.8 81.34 33.15 83.12 33.5 79.57 33.85 78.97 34.2 87.27 34.55 89.64 34.9 86.68 35.25 84.9 35.6 81.34 35.95 81.94 36.3 75.42 36.64 78.97 36.99 76.6 37.34 76.01 37.69 70.09 38.04 75.42 38.39 75.42 38.74 78.38 39.09 79.57 39.44 69.49 39.79 62.38 40.14 58.24 40.49 57.05 40.83 51.72 41.18 54.09 41.53 51.72 41.88 52.9 42.23 50.53 42.58 44.61 42.93 44.02 43.28 50.53 43.63 53.5 43.98 57.64 44.33 55.87 44.67 62.98 45.02 62.98 45.37 61.2 45.72 64.16 46.07 67.72 46.42 64.16 46.77 68.31 47.12 68.9 47.47 68.9 47.82 71.86 48.17 68.31 48.52 71.86 48.86 73.64 49.21 70.68 49.56 68.9 49.91 68.9 50.26 70.68 50.61 73.64 50.96 69.49 51.31 65.35 51.66 70.09 52.01 66.53 52.36 63.57 52.7 62.98 53.05 54.68 53.4 55.87 53.75 55.27 54.1 45.2 54.45 48.16 54.8 48.16 55.15 54.68 55.5 55.87 55.85 49.94 56.2 51.13 56.55 52.31 56.89 54.68 57.24 49.35 57.59 53.5 57.94 53.5 58.29 56.46 58.64 64.16 58.99 65.94 59.34 67.72 59.69 65.94 60.04 67.72 60.39 68.9 60.73 71.86 61.08 69.49 61.43 70.09 61.78 76.01 62.13 76.01 62.48 70.09 62.83 63.57 63.18 67.72 63.53 70.09 63.88 68.9 64.23 71.27 64.58 70.68 64.92 73.05 65.27 74.23 65.62 67.72 65.97 70.68 66.32 73.05 66.67 76.6 67.02 75.42 67.37 80.75 67.72 87.27 68.07 93.19 68.42 96.16 68.77 90.23 69.11 98.53 69.46 91.42 69.81 86.68 70.16 86.68 70.51 79.57 70.86 77.79 71.21 78.97 71.56 73.64 71.91 70.68 72.26 76.01 72.61 77.2 72.95 81.94 73.3 86.68 73.65 87.86 74 87.86 74.35 90.82 74.7 90.82 75.05 90.23 75.4 90.23 75.75 96.75 76.1 99.12 76.45 93.79 76.8 95.56 77.14 93.79 77.49 89.64 77.84 81.94 78.19 80.75 78.54 76.6 78.89 76.6 79.24 75.42 79.59 78.97 79.94 81.34 80.29 81.34 80.64 83.12 80.98 83.12 81.33 75.42 81.68 78.97 82.03 78.38 82.38 75.42 82.73 80.75 83.08 72.46 83.43 74.83 83.78 77.2 84.13 72.46 84.48 80.75 84.83 75.42 85.17 78.38 85.52 81.34 85.87 76.01 86.22 80.75 86.57 76.01 86.92 81.94 87.27 83.12 87.62 84.31 87.97 87.86 88.32 84.31 88.67 81.94 89.02 80.16 89.36 80.16 89.71 89.64 90.06 94.38 90.41 99.12 90.76 92.6 91.11 90.23 91.46 91.42 91.81 96.16 92.16 96.16 92.51 94.97 92.86 90.82 93.2 90.23 93.55 83.12 93.9 84.31 94.25 79.57 94.6 80.75 94.95 82.53 95.3 81.94 95.65 80.16 96 85.49 96.35 82.53 96.7 84.9 97.05 86.08 97.39 92.01 97.74 100.9 98.09 103.86 98.44 106.82 98.79 105.64 99.14 109.19 99.49 109.19 99.84 109.19 100.19 112.75 100.54 115.12 100.89 115.12 101.23 116.89 101.58 121.04 101.93 123.41 102.28 122.82 102.63 126.37 102.98 122.23 103.33 122.82 103.68 122.82 104.03 121.04 104.38 124.6 104.73 126.37 105.08 125.19 105.42 125.78 105.77 125.78 106.12 125.19 106.47 126.37 106.82 127.56 107.17 125.19 107.52 128.15 107.87 129.93 108.22 130.52 108.57 130.52 108.92 130.52 109.26 129.93 109.61 130.52 109.96 130.52 110.31 130.52 110.66 131.11"/>
      </g>
      <g stroke-width="0.3" fill="#000000" fill-opacity="0.000" class="geometry" stroke-dasharray="none" stroke="#9E0142" id="img-14ccb472-19">
        <path fill="none" d="M21.98,71.86 L 22.33 65.35 22.68 72.46 23.03 70.68 23.38 76.01 23.73 71.27 24.08 76.6 24.42 74.23 24.77 71.86 25.12 71.27 25.47 67.12 25.82 67.12 26.17 57.64 26.52 61.2 26.87 60.01 27.22 65.94 27.57 63.57 27.92 62.98 28.27 64.75 28.61 63.57 28.96 65.94 29.31 68.9 29.66 66.53 30.01 67.72 30.36 65.35 30.71 64.16 31.06 74.23 31.41 77.2 31.76 76.6 32.11 76.6 32.45 85.49 32.8 91.42 33.15 92.6 33.5 96.16 33.85 93.79 34.2 92.6 34.55 92.01 34.9 83.71 35.25 83.12 35.6 74.83 35.95 74.23 36.3 76.01 36.64 78.38 36.99 78.38 37.34 74.23 37.69 82.53 38.04 86.68 38.39 83.71 38.74 87.27 39.09 89.64 39.44 94.38 39.79 93.19 40.14 94.97 40.49 96.16 40.83 97.93 41.18 99.12 41.53 98.53 41.88 93.19 42.23 86.68 42.58 90.23 42.93 89.64 43.28 96.16 43.63 94.97 43.98 93.19 44.33 92.01 44.67 96.16 45.02 104.45 45.37 101.49 45.72 102.67 46.07 95.56 46.42 94.97 46.77 101.49 47.12 97.34 47.47 89.05 47.82 87.86 48.17 86.08 48.52 88.45 48.86 92.01 49.21 93.19 49.56 99.71 49.91 99.71 50.26 100.3 50.61 97.34 50.96 95.56 51.31 92.01 51.66 94.38 52.01 90.23 52.36 94.38 52.7 100.3 53.05 99.12 53.4 101.49 53.75 103.27 54.1 109.78 54.45 114.52 54.8 113.93 55.15 110.97 55.5 117.49 55.85 117.49 56.2 114.52 56.55 117.49 56.89 114.52 57.24 113.93 57.59 115.12 57.94 119.26 58.29 122.23 58.64 129.34 58.99 131.11"/>
      </g>
    </g>
  </g>
</g>
  <g class="guide ylabels" font-size="2.82" font-family="'PT Sans Caption','Helvetica Neue','Helvetica',sans-serif" fill="#000000" id="img-14ccb472-20">
    <text x="18.63" y="131.11" text-anchor="end" dy="0.35em">0</text>
    <text x="18.63" y="101.49" text-anchor="end" dy="0.35em">50</text>
    <text x="18.63" y="71.86" text-anchor="end" dy="0.35em">100</text>
    <text x="18.63" y="42.24" text-anchor="end" dy="0.35em">150</text>
    <text x="18.63" y="12.61" text-anchor="end" dy="0.35em">200</text>
  </g>
  <g font-size="3.88" font-family="'PT Sans','Helvetica Neue','Helvetica',sans-serif" fill="#000000" stroke="#000000" stroke-opacity="0.000" id="img-14ccb472-21">
    <text x="8.81" y="69.86" text-anchor="middle" dy="0.35em" transform="rotate(-90, 8.81, 71.86)">population number</text>
  </g>
  <g font-size="3.88" font-family="'PT Sans','Helvetica Neue','Helvetica',sans-serif" fill="#000000" stroke="#000000" stroke-opacity="0.000" id="img-14ccb472-22">
    <text x="108.92" y="5" text-anchor="middle" dy="0.6em">genetic drift</text>
  </g>
</g>
<defs>
  <clipPath id="img-14ccb472-4">
  <path d="M19.63,10.61 L 198.2 10.61 198.2 133.11 19.63 133.11" />
</clipPath>
</defs>
</svg>
