<?xml version="1.0" encoding="UTF-8"?>
<svg xmlns="http://www.w3.org/2000/svg"
     xmlns:xlink="http://www.w3.org/1999/xlink"
     xmlns:gadfly="http://www.gadflyjl.org/ns"
     version="1.2"
     width="203.2mm" height="152.4mm" viewBox="0 0 203.2 152.4"
     stroke="none"
     fill="#000000"
     stroke-width="0.3"
     font-size="3.88"
>
<g class="plotroot xscalable yscalable" id="img-0208a4ad-1">
  <g font-size="3.88" font-family="'PT Sans','Helvetica Neue','Helvetica',sans-serif" fill="#000000" stroke="#000000" stroke-opacity="0.000" id="img-0208a4ad-2">
    <text x="108.92" y="140.79" text-anchor="middle" dy="0.6em">generation number</text>
  </g>
  <g class="guide xlabels" font-size="2.82" font-family="'PT Sans Caption','Helvetica Neue','Helvetica',sans-serif" fill="#000000" id="img-0208a4ad-3">
    <text x="21.63" y="134.11" text-anchor="middle" dy="0.6em">0</text>
    <text x="56.55" y="134.11" text-anchor="middle" dy="0.6em">100</text>
    <text x="91.46" y="134.11" text-anchor="middle" dy="0.6em">200</text>
    <text x="126.37" y="134.11" text-anchor="middle" dy="0.6em">300</text>
    <text x="161.29" y="134.11" text-anchor="middle" dy="0.6em">400</text>
    <text x="196.2" y="134.11" text-anchor="middle" dy="0.6em">500</text>
  </g>
<g clip-path="url(#img-0208a4ad-4)">
  <g id="img-0208a4ad-5">
    <g pointer-events="visible" opacity="1" fill="#FFFFFF" stroke="#000000" stroke-opacity="0.000" class="guide background" id="img-0208a4ad-6">
      <rect x="19.63" y="10.61" width="178.57" height="122.5"/>
    </g>
    <g class="guide ygridlines xfixed" stroke-dasharray="0.5,0.5" stroke-width="0.2" stroke="#808080" id="img-0208a4ad-7">
      <path fill="none" d="M19.63,131.11 L 198.2 131.11"/>
      <path fill="none" d="M19.63,71.86 L 198.2 71.86"/>
      <path fill="none" d="M19.63,12.61 L 198.2 12.61"/>
    </g>
    <g class="guide xgridlines yfixed" stroke-dasharray="0.5,0.5" stroke-width="0.2" stroke="#808080" id="img-0208a4ad-8">
      <path fill="none" d="M21.63,10.61 L 21.63 133.11"/>
      <path fill="none" d="M56.55,10.61 L 56.55 133.11"/>
      <path fill="none" d="M91.46,10.61 L 91.46 133.11"/>
      <path fill="none" d="M126.37,10.61 L 126.37 133.11"/>
      <path fill="none" d="M161.29,10.61 L 161.29 133.11"/>
      <path fill="none" d="M196.2,10.61 L 196.2 133.11"/>
    </g>
    <g class="plotpanel" id="img-0208a4ad-9">
      <g stroke-width="0.3" fill="#000000" fill-opacity="0.000" class="geometry" stroke-dasharray="none" stroke="#3288BD" id="img-0208a4ad-10">
        <path fill="none" d="M21.98,71.86 L 22.33 68.31 22.68 73.05 23.03 76.6 23.38 80.16 23.73 74.23 24.08 67.12 24.42 67.12 24.77 65.94 25.12 70.68 25.47 80.16 25.82 68.31 26.17 68.31 26.52 73.05 26.87 62.38 27.22 63.57 27.57 60.01 27.92 62.38 28.27 62.38 28.61 67.12 28.96 62.38 29.31 64.75 29.66 57.64 30.01 61.2 30.36 65.94 30.71 58.83 31.06 52.9 31.41 52.9 31.76 60.01 32.11 58.83 32.45 60.01 32.8 51.72 33.15 52.9 33.5 51.72 33.85 49.35 34.2 48.16 34.55 46.98 34.9 42.24 35.25 39.87 35.6 38.68 35.95 43.42 36.3 43.42 36.64 44.61 36.99 46.98 37.34 51.72 37.69 55.27 38.04 54.09 38.39 57.64 38.74 55.27 39.09 67.12 39.44 64.75 39.79 58.83 40.14 49.35 40.49 45.79 40.83 41.05 41.18 39.87 41.53 43.42 41.88 45.79 42.23 50.53 42.58 49.35 42.93 62.38 43.28 64.75 43.63 64.75 43.98 68.31 44.33 74.23 44.67 70.68 45.02 68.31 45.37 52.9 45.72 56.46 46.07 54.09 46.42 65.94 46.77 70.68 47.12 62.38 47.47 63.57 47.82 67.12 48.17 62.38 48.52 67.12 48.86 76.6 49.21 76.6 49.56 75.42 49.91 84.9 50.26 83.71 50.61 88.45 50.96 87.27 51.31 81.34 51.66 74.23 52.01 74.23 52.36 57.64 52.7 52.9 53.05 50.53 53.4 42.24 53.75 43.42 54.1 46.98 54.45 36.31 54.8 26.83 55.15 22.09 55.5 28.02 55.85 29.2 56.2 23.28 56.55 29.2 56.89 37.5 57.24 29.2 57.59 31.57 57.94 35.13 58.29 36.31 58.64 45.79 58.99 45.79 59.34 55.27 59.69 49.35 60.04 46.98 60.39 36.31 60.73 36.31 61.08 35.13 61.43 38.68 61.78 45.79 62.13 42.24 62.48 38.68 62.83 36.31 63.18 38.68 63.53 38.68 63.88 36.31 64.23 29.2 64.58 28.02 64.92 29.2 65.27 30.39 65.62 32.76 65.97 31.57 66.32 35.13 66.67 28.02 67.02 29.2 67.37 38.68 67.72 36.31 68.07 35.13 68.42 42.24 68.77 39.87 69.11 43.42 69.46 52.9 69.81 54.09 70.16 50.53 70.51 49.35 70.86 50.53 71.21 49.35 71.56 50.53 71.91 48.16 72.26 44.61 72.61 57.64 72.95 54.09 73.3 51.72 73.65 55.27 74 48.16 74.35 50.53 74.7 54.09 75.05 42.24 75.4 39.87 75.75 48.16 76.1 51.72 76.45 46.98 76.8 49.35 77.14 54.09 77.49 56.46 77.84 71.86 78.19 67.12 78.54 70.68 78.89 63.57 79.24 51.72 79.59 49.35 79.94 48.16 80.29 46.98 80.64 54.09 80.98 56.46 81.33 50.53 81.68 51.72 82.03 67.12 82.38 65.94 82.73 68.31 83.08 65.94 83.43 63.57 83.78 65.94 84.13 63.57 84.48 69.49 84.83 77.79 85.17 70.68 85.52 64.75 85.87 64.75 86.22 57.64 86.57 68.31 86.92 64.75 87.27 63.57 87.62 63.57 87.97 68.31 88.32 67.12 88.67 77.79 89.02 77.79 89.36 71.86 89.71 77.79 90.06 81.34 90.41 73.05 90.76 75.42 91.11 82.53 91.46 78.97 91.81 82.53 92.16 83.71 92.51 75.42 92.86 75.42 93.2 76.6 93.55 60.01 93.9 60.01 94.25 68.31 94.6 73.05 94.95 61.2 95.3 64.75 95.65 57.64 96 54.09 96.35 52.9 96.7 52.9 97.05 61.2 97.39 68.31 97.74 68.31 98.09 71.86 98.44 78.97 98.79 71.86 99.14 71.86 99.49 68.31 99.84 74.23 100.19 83.71 100.54 80.16 100.89 77.79 101.23 78.97 101.58 81.34 101.93 76.6 102.28 69.49 102.63 80.16 102.98 92.01 103.33 96.75 103.68 86.08 104.03 87.27 104.38 89.64 104.73 88.45 105.08 99.12 105.42 96.75 105.77 90.82 106.12 88.45 106.47 95.56 106.82 93.19 107.17 86.08 107.52 86.08 107.87 81.34 108.22 73.05 108.57 78.97 108.92 71.86 109.26 76.6 109.61 84.9 109.96 93.19 110.31 99.12 110.66 94.38 111.01 100.3 111.36 94.38 111.71 92.01 112.06 99.12 112.41 100.3 112.76 97.93 113.11 96.75 113.45 86.08 113.8 83.71 114.15 80.16 114.5 78.97 114.85 74.23 115.2 69.49 115.55 67.12 115.9 61.2 116.25 58.83 116.6 58.83 116.95 61.2 117.3 58.83 117.64 51.72 117.99 52.9 118.34 50.53 118.69 48.16 119.04 51.72 119.39 52.9 119.74 42.24 120.09 37.5 120.44 38.68 120.79 43.42 121.14 33.94 121.48 33.94 121.83 41.05 122.18 41.05 122.53 41.05 122.88 39.87 123.23 32.76 123.58 36.31 123.93 37.5 124.28 28.02 124.63 19.72 124.98 22.09 125.33 22.09 125.67 24.46 126.02 25.65 126.37 24.46 126.72 19.72 127.07 19.72 127.42 20.91 127.77 19.72 128.12 18.54 128.47 19.72 128.82 18.54 129.17 14.98 129.51 13.8 129.86 13.8 130.21 13.8 130.56 12.61"/>
      </g>
      <g stroke-width="0.3" fill="#000000" fill-opacity="0.000" class="geometry" stroke-dasharray="none" stroke="#66C2A5" id="img-0208a4ad-11">
        <path fill="none" d="M21.98,71.86 L 22.33 74.23 22.68 80.16 23.03 89.64 23.38 82.53 23.73 89.64 24.08 83.71 24.42 84.9 24.77 76.6 25.12 73.05 25.47 77.79 25.82 77.79 26.17 74.23 26.52 81.34 26.87 87.27 27.22 83.71 27.57 81.34 27.92 83.71 28.27 90.82 28.61 84.9 28.96 78.97 29.31 77.79 29.66 70.68 30.01 74.23 30.36 81.34 30.71 81.34 31.06 78.97 31.41 78.97 31.76 74.23 32.11 76.6 32.45 78.97 32.8 76.6 33.15 83.71 33.5 77.79 33.85 68.31 34.2 60.01 34.55 51.72 34.9 51.72 35.25 50.53 35.6 41.05 35.95 36.31 36.3 38.68 36.64 39.87 36.99 43.42 37.34 49.35 37.69 55.27 38.04 61.2 38.39 63.57 38.74 64.75 39.09 56.46 39.44 52.9 39.79 51.72 40.14 55.27 40.49 48.16 40.83 42.24 41.18 45.79 41.53 41.05 41.88 38.68 42.23 37.5 42.58 33.94 42.93 32.76 43.28 25.65 43.63 28.02 43.98 26.83 44.33 25.65 44.67 26.83 45.02 25.65 45.37 24.46 45.72 25.65 46.07 22.09 46.42 23.28 46.77 24.46 47.12 22.09 47.47 23.28 47.82 18.54 48.17 20.91 48.52 23.28 48.86 26.83 49.21 18.54 49.56 17.35 49.91 18.54 50.26 18.54 50.61 16.17 50.96 16.17 51.31 12.61"/>
      </g>
      <g stroke-width="0.3" fill="#000000" fill-opacity="0.000" class="geometry" stroke-dasharray="none" stroke="#ABDDA4" id="img-0208a4ad-12">
        <path fill="none" d="M21.98,71.86 L 22.33 71.86 22.68 73.05 23.03 65.94 23.38 62.38 23.73 67.12 24.08 63.57 24.42 67.12 24.77 61.2 25.12 65.94 25.47 63.57 25.82 61.2 26.17 55.27 26.52 45.79 26.87 48.16 27.22 41.05 27.57 44.61 27.92 42.24 28.27 39.87 28.61 41.05 28.96 44.61 29.31 38.68 29.66 44.61 30.01 43.42 30.36 42.24 30.71 45.79 31.06 41.05 31.41 38.68 31.76 32.76 32.11 37.5 32.45 42.24 32.8 36.31 33.15 31.57 33.5 31.57 33.85 32.76 34.2 31.57 34.55 30.39 34.9 29.2 35.25 29.2 35.6 30.39 35.95 31.57 36.3 26.83 36.64 30.39 36.99 33.94 37.34 26.83 37.69 23.28 38.04 19.72 38.39 19.72 38.74 22.09 39.09 17.35 39.44 13.8 39.79 14.98 40.14 19.72 40.49 20.91 40.83 28.02 41.18 33.94 41.53 35.13 41.88 35.13 42.23 37.5 42.58 44.61 42.93 43.42 43.28 33.94 43.63 26.83 43.98 30.39 44.33 37.5 44.67 44.61 45.02 45.79 45.37 39.87 45.72 37.5 46.07 32.76 46.42 32.76 46.77 35.13 47.12 37.5 47.47 33.94 47.82 38.68 48.17 43.42 48.52 48.16 48.86 46.98 49.21 48.16 49.56 45.79 49.91 42.24 50.26 36.31 50.61 33.94 50.96 43.42 51.31 39.87 51.66 38.68 52.01 38.68 52.36 36.31 52.7 39.87 53.05 38.68 53.4 33.94 53.75 24.46 54.1 24.46 54.45 18.54 54.8 18.54 55.15 17.35 55.5 20.91 55.85 20.91 56.2 20.91 56.55 26.83 56.89 23.28 57.24 26.83 57.59 23.28 57.94 26.83 58.29 29.2 58.64 31.57 58.99 38.68 59.34 39.87 59.69 42.24 60.04 45.79 60.39 41.05 60.73 45.79 61.08 51.72 61.43 58.83 61.78 62.38 62.13 76.6 62.48 80.16 62.83 88.45 63.18 90.82 63.53 86.08 63.88 90.82 64.23 86.08 64.58 94.38 64.92 93.19 65.27 84.9 65.62 95.56 65.97 97.93 66.32 99.12 66.67 95.56 67.02 81.34 67.37 80.16 67.72 78.97 68.07 80.16 68.42 77.79 68.77 74.23 69.11 78.97 69.46 80.16 69.81 80.16 70.16 82.53 70.51 77.79 70.86 81.34 71.21 82.53 71.56 90.82 71.91 83.71 72.26 87.27 72.61 90.82 72.95 97.93 73.3 94.38 73.65 96.75 74 95.56 74.35 94.38 74.7 101.49 75.05 102.67 75.4 101.49 75.75 99.12 76.1 102.67 76.45 102.67 76.8 113.34 77.14 108.6 77.49 113.34 77.84 114.52 78.19 119.26 78.54 124 78.89 115.71 79.24 113.34 79.59 115.71 79.94 109.78 80.29 106.23 80.64 103.86 80.98 96.75 81.33 90.82 81.68 80.16 82.03 73.05 82.38 82.53 82.73 80.16 83.08 71.86 83.43 67.12 83.78 56.46 84.13 58.83 84.48 51.72 84.83 54.09 85.17 54.09 85.52 52.9 85.87 49.35 86.22 51.72 86.57 56.46 86.92 55.27 87.27 55.27 87.62 50.53 87.97 45.79 88.32 42.24 88.67 45.79 89.02 52.9 89.36 45.79 89.71 44.61 90.06 50.53 90.41 38.68 90.76 44.61 91.11 45.79 91.46 49.35 91.81 52.9 92.16 46.98 92.51 54.09 92.86 55.27 93.2 61.2 93.55 46.98 93.9 38.68 94.25 26.83 94.6 25.65 94.95 17.35 95.3 14.98 95.65 13.8 96 13.8 96.35 12.61"/>
      </g>
      <g stroke-width="0.3" fill="#000000" fill-opacity="0.000" class="geometry" stroke-dasharray="none" stroke="#E6F598" id="img-0208a4ad-13">
        <path fill="none" d="M21.98,71.86 L 22.33 76.6 22.68 75.42 23.03 67.12 23.38 65.94 23.73 65.94 24.08 70.68 24.42 69.49 24.77 75.42 25.12 81.34 25.47 68.31 25.82 63.57 26.17 46.98 26.52 58.83 26.87 62.38 27.22 52.9 27.57 51.72 27.92 49.35 28.27 48.16 28.61 62.38 28.96 48.16 29.31 50.53 29.66 50.53 30.01 58.83 30.36 58.83 30.71 62.38 31.06 63.57 31.41 57.64 31.76 46.98 32.11 49.35 32.45 43.42 32.8 43.42 33.15 44.61 33.5 52.9 33.85 48.16 34.2 54.09 34.55 44.61 34.9 46.98 35.25 58.83 35.6 70.68 35.95 77.79 36.3 84.9 36.64 83.71 36.99 90.82 37.34 89.64 37.69 87.27 38.04 78.97 38.39 81.34 38.74 74.23 39.09 81.34 39.44 71.86 39.79 71.86 40.14 70.68 40.49 70.68 40.83 76.6 41.18 88.45 41.53 87.27 41.88 90.82 42.23 90.82 42.58 97.93 42.93 84.9 43.28 81.34 43.63 74.23 43.98 73.05 44.33 75.42 44.67 71.86 45.02 73.05 45.37 68.31 45.72 70.68 46.07 70.68 46.42 69.49 46.77 76.6 47.12 86.08 47.47 78.97 47.82 74.23 48.17 68.31 48.52 55.27 48.86 51.72 49.21 45.79 49.56 39.87 49.91 39.87 50.26 35.13 50.61 31.57 50.96 37.5 51.31 38.68 51.66 43.42 52.01 43.42 52.36 42.24 52.7 35.13 53.05 38.68 53.4 36.31 53.75 48.16 54.1 48.16 54.45 39.87 54.8 37.5 55.15 35.13 55.5 38.68 55.85 38.68 56.2 39.87 56.55 37.5 56.89 35.13 57.24 44.61 57.59 42.24 57.94 38.68 58.29 38.68 58.64 37.5 58.99 33.94 59.34 30.39 59.69 26.83 60.04 24.46 60.39 28.02 60.73 29.2 61.08 29.2 61.43 33.94 61.78 33.94 62.13 31.57 62.48 31.57 62.83 33.94 63.18 33.94 63.53 32.76 63.88 23.28 64.23 22.09 64.58 32.76 64.92 37.5 65.27 43.42 65.62 35.13 65.97 31.57 66.32 30.39 66.67 23.28 67.02 24.46 67.37 24.46 67.72 24.46 68.07 20.91 68.42 19.72 68.77 23.28 69.11 20.91 69.46 20.91 69.81 18.54 70.16 14.98 70.51 14.98 70.86 14.98 71.21 14.98 71.56 17.35 71.91 18.54 72.26 18.54 72.61 19.72 72.95 14.98 73.3 13.8 73.65 14.98 74 13.8 74.35 12.61"/>
      </g>
      <g stroke-width="0.3" fill="#000000" fill-opacity="0.000" class="geometry" stroke-dasharray="none" stroke="#FFFFBF" id="img-0208a4ad-14">
        <path fill="none" d="M21.98,71.86 L 22.33 77.79 22.68 80.16 23.03 75.42 23.38 78.97 23.73 78.97 24.08 77.79 24.42 69.49 24.77 71.86 25.12 68.31 25.47 64.75 25.82 56.46 26.17 57.64 26.52 60.01 26.87 57.64 27.22 52.9 27.57 43.42 27.92 46.98 28.27 43.42 28.61 44.61 28.96 48.16 29.31 43.42 29.66 31.57 30.01 36.31 30.36 29.2 30.71 31.57 31.06 30.39 31.41 29.2 31.76 26.83 32.11 26.83 32.45 20.91 32.8 18.54 33.15 22.09 33.5 16.17 33.85 16.17 34.2 14.98 34.55 14.98 34.9 12.61"/>
      </g>
      <g stroke-width="0.3" fill="#000000" fill-opacity="0.000" class="geometry" stroke-dasharray="none" stroke="#FEE08B" id="img-0208a4ad-15">
        <path fill="none" d="M21.98,71.86 L 22.33 75.42 22.68 75.42 23.03 73.05 23.38 70.68 23.73 65.94 24.08 60.01 24.42 57.64 24.77 64.75 25.12 73.05 25.47 83.71 25.82 77.79 26.17 67.12 26.52 69.49 26.87 73.05 27.22 73.05 27.57 70.68 27.92 78.97 28.27 86.08 28.61 87.27 28.96 96.75 29.31 97.93 29.66 99.12 30.01 97.93 30.36 100.3 30.71 97.93 31.06 95.56 31.41 81.34 31.76 76.6 32.11 83.71 32.45 86.08 32.8 84.9 33.15 87.27 33.5 94.38 33.85 94.38 34.2 109.78 34.55 108.6 34.9 112.15 35.25 121.63 35.6 121.63 35.95 125.19 36.3 126.37 36.64 122.82 36.99 125.19 37.34 124 37.69 122.82 38.04 126.37 38.39 127.56 38.74 129.93 39.09 129.93 39.44 128.74 39.79 128.74 40.14 131.11"/>
      </g>
      <g stroke-width="0.3" fill="#000000" fill-opacity="0.000" class="geometry" stroke-dasharray="none" stroke="#FDAE61" id="img-0208a4ad-16">
        <path fill="none" d="M21.98,71.86 L 22.33 74.23 22.68 71.86 23.03 73.05 23.38 65.94 23.73 57.64 24.08 64.75 24.42 56.46 24.77 52.9 25.12 61.2 25.47 71.86 25.82 73.05 26.17 77.79 26.52 80.16 26.87 80.16 27.22 78.97 27.57 86.08 27.92 78.97 28.27 81.34 28.61 75.42 28.96 78.97 29.31 76.6 29.66 77.79 30.01 77.79 30.36 78.97 30.71 89.64 31.06 94.38 31.41 102.67 31.76 105.04 32.11 101.49 32.45 95.56 32.8 105.04 33.15 101.49 33.5 95.56 33.85 88.45 34.2 100.3 34.55 97.93 34.9 94.38 35.25 95.56 35.6 93.19 35.95 93.19 36.3 102.67 36.64 107.41 36.99 110.97 37.34 103.86 37.69 101.49 38.04 106.23 38.39 106.23 38.74 106.23 39.09 100.3 39.44 93.19 39.79 86.08 40.14 87.27 40.49 90.82 40.83 92.01 41.18 96.75 41.53 94.38 41.88 100.3 42.23 99.12 42.58 95.56 42.93 93.19 43.28 88.45 43.63 92.01 43.98 87.27 44.33 80.16 44.67 75.42 45.02 70.68 45.37 69.49 45.72 70.68 46.07 76.6 46.42 63.57 46.77 64.75 47.12 71.86 47.47 73.05 47.82 64.75 48.17 68.31 48.52 67.12 48.86 67.12 49.21 69.49 49.56 74.23 49.91 87.27 50.26 96.75 50.61 96.75 50.96 95.56 51.31 92.01 51.66 94.38 52.01 96.75 52.36 99.12 52.7 94.38 53.05 95.56 53.4 100.3 53.75 103.86 54.1 105.04 54.45 114.52 54.8 109.78 55.15 112.15 55.5 114.52 55.85 121.63 56.2 122.82 56.55 121.63 56.89 122.82 57.24 113.34 57.59 113.34 57.94 107.41 58.29 114.52 58.64 120.45 58.99 119.26 59.34 121.63 59.69 118.08 60.04 118.08 60.39 113.34 60.73 108.6 61.08 108.6 61.43 105.04 61.78 105.04 62.13 101.49 62.48 110.97 62.83 110.97 63.18 112.15 63.53 118.08 63.88 120.45 64.23 120.45 64.58 118.08 64.92 112.15 65.27 109.78 65.62 115.71 65.97 109.78 66.32 112.15 66.67 114.52 67.02 114.52 67.37 110.97 67.72 120.45 68.07 127.56 68.42 127.56 68.77 128.74 69.11 128.74 69.46 127.56 69.81 128.74 70.16 127.56 70.51 126.37 70.86 125.19 71.21 124 71.56 124 71.91 119.26 72.26 114.52 72.61 112.15 72.95 114.52 73.3 116.89 73.65 119.26 74 121.63 74.35 124 74.7 125.19 75.05 125.19 75.4 126.37 75.75 124 76.1 125.19 76.45 124 76.8 127.56 77.14 127.56 77.49 124 77.84 121.63 78.19 124 78.54 118.08 78.89 122.82 79.24 125.19 79.59 120.45 79.94 119.26 80.29 120.45 80.64 124 80.98 122.82 81.33 124 81.68 124 82.03 125.19 82.38 128.74 82.73 129.93 83.08 131.11"/>
      </g>
      <g stroke-width="0.3" fill="#000000" fill-opacity="0.000" class="geometry" stroke-dasharray="none" stroke="#F46D43" id="img-0208a4ad-17">
        <path fill="none" d="M21.98,71.86 L 22.33 74.23 22.68 70.68 23.03 68.31 23.38 70.68 23.73 78.97 24.08 83.71 24.42 82.53 24.77 88.45 25.12 90.82 25.47 88.45 25.82 80.16 26.17 82.53 26.52 78.97 26.87 82.53 27.22 90.82 27.57 93.19 27.92 93.19 28.27 84.9 28.61 80.16 28.96 76.6 29.31 86.08 29.66 83.71 30.01 96.75 30.36 90.82 30.71 95.56 31.06 101.49 31.41 94.38 31.76 89.64 32.11 99.12 32.45 87.27 32.8 100.3 33.15 95.56 33.5 89.64 33.85 88.45 34.2 95.56 34.55 100.3 34.9 101.49 35.25 105.04 35.6 105.04 35.95 92.01 36.3 86.08 36.64 75.42 36.99 71.86 37.34 68.31 37.69 63.57 38.04 57.64 38.39 56.46 38.74 51.72 39.09 51.72 39.44 55.27 39.79 61.2 40.14 51.72 40.49 54.09 40.83 49.35 41.18 44.61 41.53 41.05 41.88 44.61 42.23 50.53 42.58 58.83 42.93 65.94 43.28 73.05 43.63 74.23 43.98 69.49 44.33 65.94 44.67 70.68 45.02 73.05 45.37 74.23 45.72 73.05 46.07 80.16 46.42 78.97 46.77 80.16 47.12 87.27 47.47 88.45 47.82 84.9 48.17 75.42 48.52 75.42 48.86 73.05 49.21 83.71 49.56 83.71 49.91 90.82 50.26 87.27 50.61 93.19 50.96 100.3 51.31 96.75 51.66 96.75 52.01 95.56 52.36 99.12 52.7 95.56 53.05 100.3 53.4 95.56 53.75 99.12 54.1 96.75 54.45 96.75 54.8 100.3 55.15 99.12 55.5 95.56 55.85 101.49 56.2 103.86 56.55 106.23 56.89 105.04 57.24 102.67 57.59 103.86 57.94 106.23 58.29 102.67 58.64 103.86 58.99 108.6 59.34 108.6 59.69 99.12 60.04 90.82 60.39 89.64 60.73 94.38 61.08 97.93 61.43 89.64 61.78 82.53 62.13 76.6 62.48 76.6 62.83 78.97 63.18 78.97 63.53 93.19 63.88 90.82 64.23 82.53 64.58 78.97 64.92 70.68 65.27 67.12 65.62 56.46 65.97 57.64 66.32 48.16 66.67 39.87 67.02 38.68 67.37 44.61 67.72 51.72 68.07 44.61 68.42 45.79 68.77 41.05 69.11 36.31 69.46 39.87 69.81 45.79 70.16 52.9 70.51 45.79 70.86 43.42 71.21 43.42 71.56 48.16 71.91 45.79 72.26 45.79 72.61 43.42 72.95 56.46 73.3 54.09 73.65 50.53 74 51.72 74.35 48.16 74.7 48.16 75.05 35.13 75.4 37.5 75.75 38.68 76.1 44.61 76.45 36.31 76.8 35.13 77.14 33.94 77.49 29.2 77.84 26.83 78.19 26.83 78.54 26.83 78.89 23.28 79.24 18.54 79.59 23.28 79.94 28.02 80.29 25.65 80.64 31.57 80.98 29.2 81.33 29.2 81.68 29.2 82.03 28.02 82.38 26.83 82.73 26.83 83.08 30.39 83.43 36.31 83.78 41.05 84.13 45.79 84.48 50.53 84.83 55.27 85.17 54.09 85.52 58.83 85.87 55.27 86.22 54.09 86.57 48.16 86.92 57.64 87.27 67.12 87.62 73.05 87.97 69.49 88.32 73.05 88.67 67.12 89.02 65.94 89.36 63.57 89.71 61.2 90.06 67.12 90.41 60.01 90.76 57.64 91.11 55.27 91.46 41.05 91.81 33.94 92.16 30.39 92.51 29.2 92.86 33.94 93.2 31.57 93.55 36.31 93.9 37.5 94.25 35.13 94.6 33.94 94.95 30.39 95.3 39.87 95.65 48.16 96 46.98 96.35 48.16 96.7 42.24 97.05 43.42 97.39 38.68 97.74 36.31 98.09 36.31 98.44 30.39 98.79 31.57 99.14 25.65 99.49 18.54 99.84 18.54 100.19 17.35 100.54 17.35 100.89 18.54 101.23 14.98 101.58 13.8 101.93 12.61"/>
      </g>
      <g stroke-width="0.3" fill="#000000" fill-opacity="0.000" class="geometry" stroke-dasharray="none" stroke="#D53E4F" id="img-0208a4ad-18">
        <path fill="none" d="M21.98,71.86 L 22.33 69.49 22.68 55.27 23.03 60.01 23.38 64.75 23.73 57.64 24.08 63.57 24.42 64.75 24.77 70.68 25.12 62.38 25.47 61.2 25.82 57.64 26.17 58.83 26.52 61.2 26.87 63.57 27.22 67.12 27.57 75.42 27.92 67.12 28.27 63.57 28.61 71.86 28.96 73.05 29.31 71.86 29.66 64.75 30.01 65.94 30.36 75.42 30.71 80.16 31.06 84.9 31.41 83.71 31.76 83.71 32.11 86.08 32.45 93.19 32.8 97.93 33.15 108.6 33.5 106.23 33.85 99.12 34.2 90.82 34.55 86.08 34.9 89.64 35.25 90.82 35.6 84.9 35.95 76.6 36.3 84.9 36.64 84.9 36.99 92.01 37.34 93.19 37.69 90.82 38.04 92.01 38.39 92.01 38.74 93.19 39.09 89.64 39.44 86.08 39.79 87.27 40.14 86.08 40.49 81.34 40.83 77.79 41.18 81.34 41.53 78.97 41.88 73.05 42.23 78.97 42.58 77.79 42.93 63.57 43.28 70.68 43.63 61.2 43.98 60.01 44.33 56.46 44.67 62.38 45.02 70.68 45.37 75.42 45.72 76.6 46.07 75.42 46.42 75.42 46.77 69.49 47.12 82.53 47.47 86.08 47.82 92.01 48.17 82.53 48.52 83.71 48.86 90.82 49.21 88.45 49.56 96.75 49.91 93.19 50.26 92.01 50.61 105.04 50.96 105.04 51.31 106.23 51.66 107.41 52.01 100.3 52.36 100.3 52.7 96.75 53.05 95.56 53.4 93.19 53.75 92.01 54.1 94.38 54.45 97.93 54.8 99.12 55.15 88.45 55.5 95.56 55.85 92.01 56.2 86.08 56.55 78.97 56.89 73.05 57.24 73.05 57.59 68.31 57.94 60.01 58.29 58.83 58.64 56.46 58.99 56.46 59.34 57.64 59.69 61.2 60.04 56.46 60.39 55.27 60.73 54.09 61.08 52.9 61.43 62.38 61.78 60.01 62.13 52.9 62.48 54.09 62.83 51.72 63.18 48.16 63.53 39.87 63.88 35.13 64.23 39.87 64.58 39.87 64.92 35.13 65.27 37.5 65.62 43.42 65.97 42.24 66.32 43.42 66.67 33.94 67.02 35.13 67.37 26.83 67.72 22.09 68.07 20.91 68.42 20.91 68.77 16.17 69.11 17.35 69.46 16.17 69.81 14.98 70.16 17.35 70.51 19.72 70.86 17.35 71.21 14.98 71.56 13.8 71.91 13.8 72.26 12.61"/>
      </g>
      <g stroke-width="0.3" fill="#000000" fill-opacity="0.000" class="geometry" stroke-dasharray="none" stroke="#9E0142" id="img-0208a4ad-19">
        <path fill="none" d="M21.98,71.86 L 22.33 76.6 22.68 81.34 23.03 86.08 23.38 89.64 23.73 86.08 24.08 83.71 24.42 77.79 24.77 82.53 25.12 84.9 25.47 86.08 25.82 87.27 26.17 87.27 26.52 90.82 26.87 86.08 27.22 92.01 27.57 90.82 27.92 86.08 28.27 81.34 28.61 86.08 28.96 80.16 29.31 83.71 29.66 93.19 30.01 97.93 30.36 88.45 30.71 84.9 31.06 83.71 31.41 97.93 31.76 101.49 32.11 106.23 32.45 110.97 32.8 112.15 33.15 110.97 33.5 106.23 33.85 87.27 34.2 90.82 34.55 97.93 34.9 94.38 35.25 99.12 35.6 105.04 35.95 105.04 36.3 105.04 36.64 101.49 36.99 105.04 37.34 109.78 37.69 106.23 38.04 105.04 38.39 110.97 38.74 110.97 39.09 112.15 39.44 109.78 39.79 110.97 40.14 109.78 40.49 108.6 40.83 103.86 41.18 103.86 41.53 109.78 41.88 109.78 42.23 115.71 42.58 118.08 42.93 120.45 43.28 120.45 43.63 119.26 43.98 120.45 44.33 120.45 44.67 120.45 45.02 119.26 45.37 122.82 45.72 119.26 46.07 115.71 46.42 113.34 46.77 109.78 47.12 110.97 47.47 118.08 47.82 115.71 48.17 116.89 48.52 120.45 48.86 128.74 49.21 131.11"/>
      </g>
    </g>
  </g>
</g>
  <g class="guide ylabels" font-size="2.82" font-family="'PT Sans Caption','Helvetica Neue','Helvetica',sans-serif" fill="#000000" id="img-0208a4ad-20">
    <text x="18.63" y="131.11" text-anchor="end" dy="0.35em">0</text>
    <text x="18.63" y="71.86" text-anchor="end" dy="0.35em">50</text>
    <text x="18.63" y="12.61" text-anchor="end" dy="0.35em">100</text>
  </g>
  <g font-size="3.88" font-family="'PT Sans','Helvetica Neue','Helvetica',sans-serif" fill="#000000" stroke="#000000" stroke-opacity="0.000" id="img-0208a4ad-21">
    <text x="8.81" y="69.86" text-anchor="middle" dy="0.35em" transform="rotate(-90, 8.81, 71.86)">population number</text>
  </g>
  <g font-size="3.88" font-family="'PT Sans','Helvetica Neue','Helvetica',sans-serif" fill="#000000" stroke="#000000" stroke-opacity="0.000" id="img-0208a4ad-22">
    <text x="108.92" y="5" text-anchor="middle" dy="0.6em">genetic drift</text>
  </g>
</g>
<defs>
  <clipPath id="img-0208a4ad-4">
  <path d="M19.63,10.61 L 198.2 10.61 198.2 133.11 19.63 133.11" />
</clipPath>
</defs>
</svg>
