<?xml version="1.0" encoding="UTF-8"?>
<svg xmlns="http://www.w3.org/2000/svg"
     xmlns:xlink="http://www.w3.org/1999/xlink"
     xmlns:gadfly="http://www.gadflyjl.org/ns"
     version="1.2"
     width="203.2mm" height="152.4mm" viewBox="0 0 203.2 152.4"
     stroke="none"
     fill="#000000"
     stroke-width="0.3"
     font-size="3.88"
>
<g class="plotroot xscalable yscalable" id="img-c9faa38c-1">
  <g font-size="3.88" font-family="'PT Sans','Helvetica Neue','Helvetica',sans-serif" fill="#000000" stroke="#000000" stroke-opacity="0.000" id="img-c9faa38c-2">
    <text x="108.92" y="140.79" text-anchor="middle" dy="0.6em">generation number</text>
  </g>
  <g class="guide xlabels" font-size="2.82" font-family="'PT Sans Caption','Helvetica Neue','Helvetica',sans-serif" fill="#000000" id="img-c9faa38c-3">
    <text x="21.63" y="134.11" text-anchor="middle" dy="0.6em">0</text>
    <text x="56.55" y="134.11" text-anchor="middle" dy="0.6em">100</text>
    <text x="91.46" y="134.11" text-anchor="middle" dy="0.6em">200</text>
    <text x="126.37" y="134.11" text-anchor="middle" dy="0.6em">300</text>
    <text x="161.29" y="134.11" text-anchor="middle" dy="0.6em">400</text>
    <text x="196.2" y="134.11" text-anchor="middle" dy="0.6em">500</text>
  </g>
<g clip-path="url(#img-c9faa38c-4)">
  <g id="img-c9faa38c-5">
    <g pointer-events="visible" opacity="1" fill="#FFFFFF" stroke="#000000" stroke-opacity="0.000" class="guide background" id="img-c9faa38c-6">
      <rect x="19.63" y="10.61" width="178.57" height="122.5"/>
    </g>
    <g class="guide ygridlines xfixed" stroke-dasharray="0.5,0.5" stroke-width="0.2" stroke="#808080" id="img-c9faa38c-7">
      <path fill="none" d="M19.63,131.11 L 198.2 131.11"/>
      <path fill="none" d="M19.63,101.49 L 198.2 101.49"/>
      <path fill="none" d="M19.63,71.86 L 198.2 71.86"/>
      <path fill="none" d="M19.63,42.24 L 198.2 42.24"/>
      <path fill="none" d="M19.63,12.61 L 198.2 12.61"/>
    </g>
    <g class="guide xgridlines yfixed" stroke-dasharray="0.5,0.5" stroke-width="0.2" stroke="#808080" id="img-c9faa38c-8">
      <path fill="none" d="M21.63,10.61 L 21.63 133.11"/>
      <path fill="none" d="M56.55,10.61 L 56.55 133.11"/>
      <path fill="none" d="M91.46,10.61 L 91.46 133.11"/>
      <path fill="none" d="M126.37,10.61 L 126.37 133.11"/>
      <path fill="none" d="M161.29,10.61 L 161.29 133.11"/>
      <path fill="none" d="M196.2,10.61 L 196.2 133.11"/>
    </g>
    <g class="plotpanel" id="img-c9faa38c-9">
      <g stroke-width="0.3" fill="#000000" fill-opacity="0.000" class="geometry" stroke-dasharray="none" stroke="#3288BD" id="img-c9faa38c-10">
        <path fill="none" d="M21.98,71.86 L 22.33 72.16 22.68 74.23 23.03 71.86 23.38 68.9 23.73 70.68 24.08 73.34 24.42 69.2 24.77 68.9 25.12 67.42 25.47 64.75 25.82 61.79 26.17 60.31 26.52 62.68 26.87 63.27 27.22 62.38 27.57 60.01 27.92 63.57 28.27 62.09 28.61 55.87 28.96 48.16 29.31 47.87 29.66 47.87 30.01 43.13 30.36 44.61 30.71 42.83 31.06 41.05 31.41 40.76 31.76 37.79 32.11 33.65 32.45 30.98 32.8 32.46 33.15 29.5 33.5 28.31 33.85 29.5 34.2 31.28 34.55 29.79 34.9 27.13 35.25 29.2 35.6 25.35 35.95 27.13 36.3 25.94 36.64 27.13 36.99 27.72 37.34 28.91 37.69 27.72 38.04 27.13 38.39 28.91 38.74 26.83 39.09 27.13 39.44 26.83 39.79 25.94 40.14 22.39 40.49 21.5 40.83 22.68 41.18 22.98 41.53 20.61 41.88 20.91 42.23 18.83 42.58 20.31 42.93 22.98 43.28 23.87 43.63 20.91 43.98 19.72 44.33 20.02 44.67 20.31 45.02 20.61 45.37 20.31 45.72 20.31 46.07 23.87 46.42 22.68 46.77 23.28 47.12 24.76 47.47 26.24 47.82 25.94 48.17 26.24 48.52 29.2 48.86 29.5 49.21 27.72 49.56 30.39 49.91 30.09 50.26 29.5 50.61 33.35 50.96 29.79 51.31 32.16 51.66 31.87 52.01 33.94 52.36 36.02 52.7 35.72 53.05 33.05 53.4 33.94 53.75 38.09 54.1 37.79 54.45 37.5 54.8 33.94 55.15 35.72 55.5 34.83 55.85 36.9 56.2 38.39 56.55 34.83 56.89 33.65 57.24 32.16 57.59 33.05 57.94 28.91 58.29 25.65 58.64 28.02 58.99 27.42 59.34 21.2 59.69 22.68 60.04 23.57 60.39 22.68 60.73 23.57 61.08 24.46 61.43 24.17 61.78 23.57 62.13 25.35 62.48 22.68 62.83 28.31 63.18 31.57 63.53 30.68 63.88 29.79 64.23 28.91 64.58 31.28 64.92 33.65 65.27 36.9 65.62 36.02 65.97 34.24 66.32 33.94 66.67 34.53 67.02 37.5 67.37 34.24 67.72 36.31 68.07 39.87 68.42 42.53 68.77 38.39 69.11 40.46 69.46 38.09 69.81 35.42 70.16 36.9 70.51 37.2 70.86 36.02 71.21 37.79 71.56 32.46 71.91 30.39 72.26 30.09 72.61 28.02 72.95 27.13 73.3 24.76 73.65 24.76 74 25.05 74.35 23.57 74.7 25.65 75.05 23.28 75.4 22.68 75.75 25.35 76.1 22.68 76.45 22.39 76.8 20.31 77.14 18.83 77.49 19.43 77.84 22.39 78.19 19.43 78.54 19.72 78.89 18.24 79.24 17.06 79.59 17.06 79.94 16.76 80.29 15.87 80.64 15.87 80.98 17.06 81.33 16.76 81.68 17.35 82.03 17.65 82.38 16.46 82.73 15.28 83.08 14.69 83.43 14.39 83.78 14.98 84.13 15.87 84.48 16.76 84.83 16.17 85.17 16.46 85.52 15.57 85.87 16.46 86.22 17.35 86.57 14.98 86.92 15.28 87.27 15.57 87.62 14.69 87.97 15.87 88.32 14.39 88.67 14.39 89.02 14.09 89.36 13.8 89.71 13.2 90.06 13.8 90.41 14.09 90.76 13.8 91.11 13.8 91.46 13.5 91.81 12.61"/>
      </g>
      <g stroke-width="0.3" fill="#000000" fill-opacity="0.000" class="geometry" stroke-dasharray="none" stroke="#66C2A5" id="img-c9faa38c-11">
        <path fill="none" d="M21.98,71.86 L 22.33 75.12 22.68 73.34 23.03 76.9 23.38 76.6 23.73 76.01 24.08 74.83 24.42 73.64 24.77 75.12 25.12 72.16 25.47 68.9 25.82 74.23 26.17 73.05 26.52 75.71 26.87 76.31 27.22 70.68 27.57 73.94 27.92 76.31 28.27 71.27 28.61 71.27 28.96 77.79 29.31 78.38 29.66 83.42 30.01 78.97 30.36 81.94 30.71 82.53 31.06 81.64 31.41 77.79 31.76 74.23 32.11 75.12 32.45 72.75 32.8 72.75 33.15 70.38 33.5 71.86 33.85 69.2 34.2 72.75 34.55 67.72 34.9 70.97 35.25 71.57 35.6 72.46 35.95 72.16 36.3 72.46 36.64 70.09 36.99 73.64 37.34 70.68 37.69 72.46 38.04 73.94 38.39 70.97 38.74 73.05 39.09 73.05 39.44 73.94 39.79 74.23 40.14 77.49 40.49 76.9 40.83 73.64 41.18 80.16 41.53 81.05 41.88 83.71 42.23 81.64 42.58 83.42 42.93 82.53 43.28 79.57 43.63 80.45 43.98 84.9 44.33 88.75 44.67 86.68 45.02 86.08 45.37 85.79 45.72 85.79 46.07 84.01 46.42 86.97 46.77 87.27 47.12 89.05 47.47 95.86 47.82 94.68 48.17 94.38 48.52 89.64 48.86 92.31 49.21 91.42 49.56 92.9 49.91 91.42 50.26 94.97 50.61 93.49 50.96 96.16 51.31 93.19 51.66 93.19 52.01 94.38 52.36 92.6 52.7 92.31 53.05 94.38 53.4 94.68 53.75 92.01 54.1 97.64 54.45 90.23 54.8 88.16 55.15 89.94 55.5 91.42 55.85 91.42 56.2 89.05 56.55 86.08 56.89 89.34 57.24 89.34 57.59 88.75 57.94 90.82 58.29 90.53 58.64 88.45 58.99 84.31 59.34 85.79 59.69 86.38 60.04 86.08 60.39 84.31 60.73 80.75 61.08 83.42 61.43 81.64 61.78 84.01 62.13 81.05 62.48 77.79 62.83 74.23 63.18 69.2 63.53 70.09 63.88 72.16 64.23 78.97 64.58 82.53 64.92 87.86 65.27 86.97 65.62 89.34 65.97 89.34 66.32 83.71 66.67 84.9 67.02 85.79 67.37 86.08 67.72 87.27 68.07 89.05 68.42 86.68 68.77 87.86 69.11 89.64 69.46 86.97 69.81 86.97 70.16 83.12 70.51 79.57 70.86 73.94 71.21 69.79 71.56 71.27 71.91 71.57 72.26 71.27 72.61 68.6 72.95 68.01 73.3 68.31 73.65 68.01 74 70.38 74.35 70.09 74.7 73.64 75.05 76.9 75.4 81.34 75.75 82.82 76.1 81.94 76.45 81.05 76.8 80.75 77.14 81.64 77.49 86.08 77.84 88.45 78.19 82.82 78.54 86.38 78.89 86.68 79.24 86.97 79.59 83.42 79.94 76.9 80.29 73.64 80.64 72.46 80.98 78.68 81.33 80.45 81.68 81.34 82.03 77.49 82.38 75.42 82.73 71.86 83.08 72.46 83.43 71.86 83.78 73.34 84.13 73.34 84.48 74.53 84.83 71.86 85.17 68.01 85.52 69.2 85.87 68.01 86.22 69.49 86.57 64.46 86.92 68.9 87.27 71.86 87.62 69.49 87.97 70.09 88.32 71.86 88.67 77.49 89.02 81.64 89.36 80.16 89.71 84.9 90.06 85.79 90.41 83.71 90.76 84.01 91.11 85.19 91.46 82.82 91.81 85.79 92.16 86.08 92.51 85.79 92.86 88.45 93.2 92.31 93.55 90.82 93.9 92.31 94.25 95.27 94.6 97.34 94.95 98.23 95.3 97.93 95.65 99.71 96 97.93 96.35 102.67 96.7 105.04 97.05 108.9 97.39 112.15 97.74 110.97 98.09 110.97 98.44 113.04 98.79 115.41 99.14 114.23 99.49 114.23 99.84 113.04 100.19 111.27 100.54 111.86 100.89 107.41 101.23 107.71 101.58 110.97 101.93 111.86 102.28 111.86 102.63 110.08 102.98 112.75 103.33 108.6 103.68 109.19 104.03 108.9 104.38 109.49 104.73 111.86 105.08 120.45 105.42 119.26 105.77 122.52 106.12 124.6 106.47 125.78 106.82 126.97 107.17 125.78 107.52 126.67 107.87 126.37 108.22 125.19 108.57 124.6 108.92 126.08 109.26 127.56 109.61 128.15 109.96 128.45 110.31 129.34 110.66 129.63 111.01 130.23 111.36 129.93 111.71 129.93 112.06 129.34 112.41 129.34 112.76 129.63 113.11 130.52 113.45 130.82 113.8 130.52 114.15 130.52 114.5 130.23 114.85 129.93 115.2 129.63 115.55 129.34 115.9 129.04 116.25 129.34 116.6 130.52 116.95 130.82 117.3 130.52 117.64 130.52 117.99 130.23 118.34 130.52 118.69 129.93 119.04 129.34 119.39 130.23 119.74 129.34 120.09 130.23 120.44 130.23 120.79 130.52 121.14 131.11"/>
      </g>
      <g stroke-width="0.3" fill="#000000" fill-opacity="0.000" class="geometry" stroke-dasharray="none" stroke="#ABDDA4" id="img-c9faa38c-12">
        <path fill="none" d="M21.98,71.86 L 22.33 70.38 22.68 75.12 23.03 70.97 23.38 65.64 23.73 69.49 24.08 66.83 24.42 67.42 24.77 64.46 25.12 63.86 25.47 64.75 25.82 66.83 26.17 68.6 26.52 69.2 26.87 67.42 27.22 71.86 27.57 78.08 27.92 77.79 28.27 78.38 28.61 80.16 28.96 76.31 29.31 69.2 29.66 66.53 30.01 67.12 30.36 64.75 30.71 66.53 31.06 68.01 31.41 73.64 31.76 69.79 32.11 69.79 32.45 78.38 32.8 78.08 33.15 80.16 33.5 79.86 33.85 72.75 34.2 70.38 34.55 69.2 34.9 70.09 35.25 68.01 35.6 60.31 35.95 59.72 36.3 58.83 36.64 58.83 36.99 58.53 37.34 59.72 37.69 55.57 38.04 63.27 38.39 64.46 38.74 63.27 39.09 63.57 39.44 65.94 39.79 69.49 40.14 70.09 40.49 70.97 40.83 76.01 41.18 72.75 41.53 75.42 41.88 76.31 42.23 72.46 42.58 73.05 42.93 72.46 43.28 68.6 43.63 68.31 43.98 65.35 44.33 63.57 44.67 68.9 45.02 65.05 45.37 64.46 45.72 61.49 46.07 62.09 46.42 62.68 46.77 63.57 47.12 62.98 47.47 63.57 47.82 65.94 48.17 65.94 48.52 61.49 48.86 57.94 49.21 56.16 49.56 56.16 49.91 61.2 50.26 59.72 50.61 62.09 50.96 62.38 51.31 63.57 51.66 59.72 52.01 65.05 52.36 66.23 52.7 65.94 53.05 64.16 53.4 64.46 53.75 64.75 54.1 69.2 54.45 66.53 54.8 64.75 55.15 60.61 55.5 59.72 55.85 58.24 56.2 59.42 56.55 60.9 56.89 57.94 57.24 56.46 57.59 59.12 57.94 56.75 58.29 57.64 58.64 55.87 58.99 57.05 59.34 58.24 59.69 58.24 60.04 61.79 60.39 60.01 60.73 58.53 61.08 61.2 61.43 60.9 61.78 56.46 62.13 60.9 62.48 58.83 62.83 55.87 63.18 52.61 63.53 56.75 63.88 57.35 64.23 59.42 64.58 60.01 64.92 62.68 65.27 65.64 65.62 66.83 65.97 63.86 66.32 71.27 66.67 72.46 67.02 70.68 67.37 70.38 67.72 69.2 68.07 65.64 68.42 68.9 68.77 68.31 69.11 65.64 69.46 67.42 69.81 61.79 70.16 59.12 70.51 56.75 70.86 57.94 71.21 57.05 71.56 58.83 71.91 57.05 72.26 57.94 72.61 57.94 72.95 60.61 73.3 58.83 73.65 59.72 74 58.24 74.35 58.53 74.7 57.94 75.05 60.9 75.4 61.79 75.75 62.68 76.1 60.61 76.45 60.9 76.8 60.01 77.14 62.98 77.49 63.86 77.84 64.16 78.19 67.12 78.54 66.53 78.89 66.83 79.24 69.49 79.59 70.09 79.94 67.42 80.29 65.94 80.64 62.98 80.98 65.05 81.33 62.98 81.68 64.46 82.03 63.57 82.38 62.98 82.73 58.24 83.08 60.61 83.43 58.53 83.78 56.16 84.13 52.9 84.48 52.9 84.83 54.98 85.17 56.16 85.52 60.01 85.87 60.31 86.22 59.72 86.57 64.46 86.92 65.35 87.27 68.01 87.62 70.09 87.97 76.01 88.32 80.75 88.67 73.64 89.02 74.23 89.36 74.83 89.71 76.9 90.06 77.79 90.41 74.83 90.76 74.53 91.11 73.94 91.46 71.57 91.81 73.34 92.16 78.08 92.51 78.08 92.86 79.27 93.2 81.05 93.55 76.31 93.9 79.86 94.25 83.71 94.6 80.16 94.95 79.86 95.3 83.12 95.65 81.94 96 81.94 96.35 85.19 96.7 83.71 97.05 81.05 97.39 82.82 97.74 85.49 98.09 83.12 98.44 86.68 98.79 81.94 99.14 81.05 99.49 80.45 99.84 76.31 100.19 74.23 100.54 78.97 100.89 68.01 101.23 64.75 101.58 65.05 101.93 67.72 102.28 69.49 102.63 67.72 102.98 68.9 103.33 69.79 103.68 71.57 104.03 68.9 104.38 69.49 104.73 65.94 105.08 64.75 105.42 68.01 105.77 68.01 106.12 66.53 106.47 69.79 106.82 70.09 107.17 63.27 107.52 68.01 107.87 66.23 108.22 67.42 108.57 67.72 108.92 65.05 109.26 65.05 109.61 66.53 109.96 67.72 110.31 68.9 110.66 66.23 111.01 63.57 111.36 60.61 111.71 59.72 112.06 58.83 112.41 59.42 112.76 60.01 113.11 62.09 113.45 57.64 113.8 55.27 114.15 54.38 114.5 58.24 114.85 56.75 115.2 57.05 115.55 58.83 115.9 55.87 116.25 49.35 116.6 52.01 116.95 51.72 117.3 46.98 117.64 49.94 117.99 49.94 118.34 49.64 118.69 54.38 119.04 53.2 119.39 51.13 119.74 52.31 120.09 51.72 120.44 52.31 120.79 51.13 121.14 51.42 121.48 47.27 121.83 50.53 122.18 46.09 122.53 44.31 122.88 44.31 123.23 39.57 123.58 36.9 123.93 37.2 124.28 37.2 124.63 38.98 124.98 38.98 125.33 41.05 125.67 43.13 126.02 40.46 126.37 41.05 126.72 36.02 127.07 39.27 127.42 36.31 127.77 34.83 128.12 33.94 128.47 32.46 128.82 36.9 129.17 40.46 129.51 41.35 129.86 40.16 130.21 39.87 130.56 41.64 130.91 45.5 131.26 46.68 131.61 46.09 131.96 49.05 132.31 44.9 132.66 48.76 133.01 45.79 133.36 52.61 133.7 54.38 134.05 51.72 134.4 52.61 134.75 55.27 135.1 51.42 135.45 53.5 135.8 53.79 136.15 55.57 136.5 55.57 136.85 52.61 137.2 52.61 137.55 52.61 137.89 57.64 138.24 59.42 138.59 64.75 138.94 61.2 139.29 61.49 139.64 62.68 139.99 65.05 140.34 66.23 140.69 64.16 141.04 62.98 141.39 64.16 141.73 64.46 142.08 65.35 142.43 64.46 142.78 69.2 143.13 65.94 143.48 62.68 143.83 66.23 144.18 63.57 144.53 64.75 144.88 62.98 145.23 60.61 145.58 64.75 145.92 65.64 146.27 67.12 146.62 68.31 146.97 68.31 147.32 65.35 147.67 67.42 148.02 67.12 148.37 68.01 148.72 65.35 149.07 60.01 149.42 58.24 149.76 55.27 150.11 58.53 150.46 56.46 150.81 57.94 151.16 63.57 151.51 68.6 151.86 70.68 152.21 71.86 152.56 73.05 152.91 74.23 153.26 71.57 153.61 69.49 153.95 66.23 154.3 65.64 154.65 65.64 155 66.83 155.35 70.68 155.7 68.9 156.05 72.75 156.4 72.75 156.75 71.86 157.1 76.6 157.45 76.9 157.79 78.97 158.14 76.01 158.49 76.31 158.84 81.05 159.19 75.42 159.54 77.2 159.89 81.64 160.24 80.45 160.59 79.86 160.94 79.86 161.29 81.05 161.64 81.94 161.98 85.49 162.33 85.79 162.68 86.38 163.03 83.12 163.38 82.53 163.73 84.01 164.08 84.6 164.43 86.97 164.78 81.05 165.13 81.94 165.48 75.42 165.83 72.75 166.17 77.49 166.52 75.42 166.87 74.83 167.22 72.46 167.57 76.01 167.92 70.38 168.27 70.68 168.62 68.01 168.97 66.53 169.32 64.75 169.67 70.38 170.01 66.23 170.36 62.68 170.71 60.31 171.06 57.94 171.41 58.24 171.76 60.01 172.11 58.53 172.46 62.09 172.81 57.64 173.16 54.09 173.51 57.35 173.86 58.83 174.2 58.53 174.55 59.72 174.9 62.98 175.25 64.75 175.6 65.94 175.95 68.31 176.3 71.27 176.65 72.46 177 72.46 177.35 70.97 177.7 72.75 178.04 69.2 178.39 71.86 178.74 73.94 179.09 73.64 179.44 72.46 179.79 73.64 180.14 76.6 180.49 72.75 180.84 76.6 181.19 77.49 181.54 81.64 181.89 80.75 182.23 82.82 182.58 77.49 182.93 82.53 183.28 88.16 183.63 87.27 183.98 89.34 184.33 91.12 184.68 90.82 185.03 93.49 185.38 95.56 185.73 97.93 186.08 98.23 186.42 100.6 186.77 100.9 187.12 102.67 187.47 100.6 187.82 99.12 188.17 96.16 188.52 94.08 188.87 89.64 189.22 87.27 189.57 88.16 189.92 88.45 190.26 91.42 190.61 95.56 190.96 89.64 191.31 90.82 191.66 89.34 192.01 99.12 192.36 94.08 192.71 90.23 193.06 87.57 193.41 85.79 193.76 87.27 194.11 83.71 194.45 82.53 194.8 81.05 195.15 78.08 195.5 74.23 195.85 76.01 196.2 75.12"/>
      </g>
      <g stroke-width="0.3" fill="#000000" fill-opacity="0.000" class="geometry" stroke-dasharray="none" stroke="#E6F598" id="img-c9faa38c-13">
        <path fill="none" d="M21.98,71.86 L 22.33 68.9 22.68 70.68 23.03 76.01 23.38 71.27 23.73 66.23 24.08 67.72 24.42 64.16 24.77 66.23 25.12 68.6 25.47 74.83 25.82 71.27 26.17 74.83 26.52 77.79 26.87 74.53 27.22 72.75 27.57 70.97 27.92 71.86 28.27 76.6 28.61 83.71 28.96 89.64 29.31 85.79 29.66 86.38 30.01 86.68 30.36 87.86 30.71 87.86 31.06 86.97 31.41 86.08 31.76 84.6 32.11 87.86 32.45 87.86 32.8 85.49 33.15 87.27 33.5 86.68 33.85 90.53 34.2 92.6 34.55 93.19 34.9 94.38 35.25 93.49 35.6 100.01 35.95 101.49 36.3 100.9 36.64 104.16 36.99 105.04 37.34 107.71 37.69 102.67 38.04 103.27 38.39 102.97 38.74 102.67 39.09 108.01 39.44 105.93 39.79 107.71 40.14 111.56 40.49 109.49 40.83 108.6 41.18 108.6 41.53 109.78 41.88 110.08 42.23 111.56 42.58 115.12 42.93 115.12 43.28 115.41 43.63 113.04 43.98 110.67 44.33 106.82 44.67 111.86 45.02 111.86 45.37 111.56 45.72 112.15 46.07 105.93 46.42 106.53 46.77 108.3 47.12 108.6 47.47 107.41 47.82 111.27 48.17 109.49 48.52 110.08 48.86 112.15 49.21 111.56 49.56 107.41 49.91 108.6 50.26 107.12 50.61 106.82 50.96 105.64 51.31 107.71 51.66 106.53 52.01 103.86 52.36 108.6 52.7 108.01 53.05 107.12 53.4 103.86 53.75 106.53 54.1 108.6 54.45 108.3 54.8 108.01 55.15 110.97 55.5 112.15 55.85 112.45 56.2 114.23 56.55 114.23 56.89 115.41 57.24 113.64 57.59 115.41 57.94 116.01 58.29 117.19 58.64 114.23 58.99 112.15 59.34 110.38 59.69 110.08 60.04 108.01 60.39 107.12 60.73 108.3 61.08 108.3 61.43 107.71 61.78 106.82 62.13 108.6 62.48 108.3 62.83 103.56 63.18 104.16 63.53 106.53 63.88 107.41 64.23 108.3 64.58 110.38 64.92 110.97 65.27 113.64 65.62 113.34 65.97 108.01 66.32 110.97 66.67 113.04 67.02 108.3 67.37 108.3 67.72 102.97 68.07 97.05 68.42 96.75 68.77 94.68 69.11 96.16 69.46 92.6 69.81 90.23 70.16 89.05 70.51 89.34 70.86 89.34 71.21 88.75 71.56 89.34 71.91 86.68 72.26 85.79 72.61 82.53 72.95 79.57 73.3 82.82 73.65 77.49 74 81.05 74.35 80.45 74.7 79.27 75.05 78.38 75.4 76.9 75.75 77.49 76.1 76.6 76.45 75.42 76.8 78.38 77.14 78.38 77.49 78.08 77.84 72.16 78.19 67.42 78.54 60.9 78.89 55.87 79.24 64.16 79.59 61.2 79.94 65.35 80.29 65.94 80.64 66.83 80.98 64.75 81.33 65.35 81.68 65.94 82.03 66.23 82.38 67.12 82.73 70.38 83.08 75.42 83.43 77.2 83.78 76.6 84.13 73.64 84.48 80.16 84.83 76.6 85.17 75.42 85.52 73.64 85.87 73.94 86.22 73.05 86.57 70.38 86.92 72.75 87.27 73.05 87.62 73.34 87.97 70.09 88.32 71.57 88.67 69.79 89.02 74.23 89.36 71.27 89.71 70.97 90.06 73.64 90.41 72.46 90.76 65.35 91.11 66.53 91.46 71.27 91.81 69.79 92.16 66.23 92.51 66.23 92.86 67.42 93.2 65.64 93.55 61.49 93.9 60.9 94.25 58.53 94.6 58.83 94.95 59.12 95.3 60.31 95.65 61.79 96 57.35 96.35 54.09 96.7 51.42 97.05 49.05 97.39 52.9 97.74 52.9 98.09 51.42 98.44 50.83 98.79 54.09 99.14 57.05 99.49 62.68 99.84 63.27 100.19 64.46 100.54 63.57 100.89 62.09 101.23 60.61 101.58 58.83 101.93 56.46 102.28 55.87 102.63 57.05 102.98 52.31 103.33 51.72 103.68 53.5 104.03 56.75 104.38 54.68 104.73 50.53 105.08 51.13 105.42 47.27 105.77 44.9 106.12 43.42 106.47 47.57 106.82 45.79 107.17 47.87 107.52 52.01 107.87 45.79 108.22 49.05 108.57 46.09 108.92 46.39 109.26 44.61 109.61 43.42 109.96 39.27 110.31 38.98 110.66 40.16 111.01 44.61 111.36 46.68 111.71 41.94 112.06 42.24 112.41 42.83 112.76 43.72 113.11 41.64 113.45 38.09 113.8 38.39 114.15 36.31 114.5 37.79 114.85 36.02 115.2 34.24 115.55 33.94 115.9 34.24 116.25 33.05 116.6 34.83 116.95 34.83 117.3 34.53 117.64 31.57 117.99 33.05 118.34 31.57 118.69 30.39 119.04 32.46 119.39 30.68 119.74 28.31 120.09 27.42 120.44 25.05 120.79 25.94 121.14 27.72 121.48 30.98 121.83 32.16 122.18 30.98 122.53 32.46 122.88 30.68 123.23 32.76 123.58 36.61 123.93 30.98 124.28 28.02 124.63 24.46 124.98 25.94 125.33 25.35 125.67 25.65 126.02 26.24 126.37 26.83 126.72 26.24 127.07 29.5 127.42 30.09 127.77 27.42 128.12 26.24 128.47 25.65 128.82 28.31 129.17 29.2 129.51 28.91 129.86 29.5 130.21 28.61 130.56 25.05 130.91 28.61 131.26 26.24 131.61 28.02 131.96 28.02 132.31 25.05 132.66 22.09 133.01 22.68 133.36 23.87 133.7 26.54 134.05 26.54 134.4 27.13 134.75 26.83 135.1 31.57 135.45 33.65 135.8 33.94 136.15 33.94 136.5 38.09 136.85 39.87 137.2 43.42 137.55 45.2 137.89 46.68 138.24 45.2 138.59 47.87 138.94 42.53 139.29 40.76 139.64 41.64 139.99 37.5 140.34 38.68 140.69 38.98 141.04 38.09 141.39 36.9 141.73 33.94 142.08 30.98 142.43 35.72 142.78 35.13 143.13 35.42 143.48 34.24 143.83 32.16 144.18 31.28 144.53 31.57 144.88 30.98 145.23 29.2 145.58 26.83 145.92 24.76 146.27 25.65 146.62 27.13 146.97 30.09 147.32 28.91 147.67 28.31 148.02 28.91 148.37 26.24 148.72 25.35 149.07 25.35 149.42 23.57 149.76 24.76 150.11 28.31 150.46 32.16 150.81 32.16 151.16 30.98 151.51 30.68 151.86 28.61 152.21 29.2 152.56 30.39 152.91 30.39 153.26 29.5 153.61 31.87 153.95 31.57 154.3 32.16 154.65 33.05 155 32.76 155.35 32.76 155.7 33.35 156.05 36.31 156.4 37.79 156.75 40.46 157.1 41.35 157.45 38.09 157.79 39.87 158.14 36.61 158.49 38.68 158.84 39.27 159.19 41.05 159.54 37.2 159.89 39.87 160.24 40.76 160.59 41.94 160.94 41.64 161.29 43.13 161.64 44.31 161.98 40.16 162.33 41.64 162.68 43.13 163.03 39.87 163.38 41.64 163.73 39.27 164.08 37.2 164.43 38.39 164.78 36.9 165.13 37.79 165.48 33.94 165.83 31.87 166.17 31.57 166.52 31.57 166.87 30.98 167.22 31.28 167.57 31.57 167.92 31.57 168.27 31.28 168.62 33.94 168.97 37.2 169.32 36.31 169.67 36.31 170.01 35.13 170.36 36.02 170.71 33.05 171.06 33.05 171.41 34.24 171.76 32.76 172.11 30.68 172.46 29.79 172.81 30.98 173.16 29.79 173.51 33.65 173.86 33.05 174.2 31.87 174.55 33.65 174.9 35.72 175.25 36.02 175.6 36.31 175.95 30.98 176.3 31.28 176.65 29.2 177 31.57 177.35 36.02 177.7 38.09 178.04 41.35 178.39 41.35 178.74 36.9 179.09 33.05 179.44 33.35 179.79 35.13 180.14 34.83 180.49 38.98 180.84 36.61 181.19 32.16 181.54 33.35 181.89 30.68 182.23 30.09 182.58 28.31 182.93 30.98 183.28 30.68 183.63 28.61 183.98 28.31 184.33 29.79 184.68 30.09 185.03 28.02 185.38 29.79 185.73 29.5 186.08 30.68 186.42 30.09 186.77 26.83 187.12 26.54 187.47 29.5 187.82 30.98 188.17 32.16 188.52 33.94 188.87 34.53 189.22 35.13 189.57 33.65 189.92 30.98 190.26 30.68 190.61 32.16 190.96 35.13 191.31 34.24 191.66 35.13 192.01 35.13 192.36 36.31 192.71 35.72 193.06 36.61 193.41 35.72 193.76 35.13 194.11 36.9 194.45 35.72 194.8 33.94 195.15 32.76 195.5 35.13 195.85 32.76 196.2 36.02"/>
      </g>
      <g stroke-width="0.3" fill="#000000" fill-opacity="0.000" class="geometry" stroke-dasharray="none" stroke="#FFFFBF" id="img-c9faa38c-14">
        <path fill="none" d="M21.98,71.86 L 22.33 70.68 22.68 76.6 23.03 77.49 23.38 80.75 23.73 81.34 24.08 77.49 24.42 82.82 24.77 81.05 25.12 76.9 25.47 76.9 25.82 82.23 26.17 84.9 26.52 84.31 26.87 85.49 27.22 86.97 27.57 87.27 27.92 86.68 28.27 86.38 28.61 84.31 28.96 80.45 29.31 77.79 29.66 77.49 30.01 75.71 30.36 71.27 30.71 76.6 31.06 77.79 31.41 81.05 31.76 80.45 32.11 81.34 32.45 80.45 32.8 79.57 33.15 73.05 33.5 76.6 33.85 78.08 34.2 74.23 34.55 76.6 34.9 82.53 35.25 78.97 35.6 74.83 35.95 72.16 36.3 72.16 36.64 74.83 36.99 74.83 37.34 71.57 37.69 73.34 38.04 71.27 38.39 73.94 38.74 71.27 39.09 73.94 39.44 72.16 39.79 71.27 40.14 72.46 40.49 73.64 40.83 67.72 41.18 66.83 41.53 73.94 41.88 80.16 42.23 81.64 42.58 76.31 42.93 78.08 43.28 85.19 43.63 86.97 43.98 87.86 44.33 91.12 44.67 94.08 45.02 94.08 45.37 95.27 45.72 96.75 46.07 95.56 46.42 92.31 46.77 96.45 47.12 96.75 47.47 96.45 47.82 96.75 48.17 100.6 48.52 102.08 48.86 102.97 49.21 99.42 49.56 102.08 49.91 106.82 50.26 102.67 50.61 108.6 50.96 107.12 51.31 108.3 51.66 110.38 52.01 111.86 52.36 113.04 52.7 117.19 53.05 114.23 53.4 113.64 53.75 113.34 54.1 113.34 54.45 110.08 54.8 111.86 55.15 113.04 55.5 114.23 55.85 113.04 56.2 112.75 56.55 111.56 56.89 112.45 57.24 112.75 57.59 113.93 57.94 112.45 58.29 114.23 58.64 113.64 58.99 113.64 59.34 111.27 59.69 110.67 60.04 110.97 60.39 115.12 60.73 116.89 61.08 116.89 61.43 120.15 61.78 120.15 62.13 121.93 62.48 121.34 62.83 121.93 63.18 118.08 63.53 118.67 63.88 119.86 64.23 119.86 64.58 120.15 64.92 117.19 65.27 118.08 65.62 116.89 65.97 116.01 66.32 116.3 66.67 117.19 67.02 116.3 67.37 115.41 67.72 115.41 68.07 113.04 68.42 111.86 68.77 110.97 69.11 113.34 69.46 114.23 69.81 118.67 70.16 117.19 70.51 116.01 70.86 115.12 71.21 115.41 71.56 116.01 71.91 116.6 72.26 120.45 72.61 119.86 72.95 117.19 73.3 114.82 73.65 114.52 74 111.27 74.35 112.15 74.7 109.78 75.05 110.67 75.4 113.04 75.75 111.86 76.1 110.97 76.45 110.67 76.8 110.38 77.14 112.45 77.49 112.15 77.84 114.52 78.19 114.52 78.54 115.41 78.89 116.6 79.24 117.19 79.59 119.26 79.94 119.26 80.29 120.45 80.64 124 80.98 122.52 81.33 123.12 81.68 123.71 82.03 123.12 82.38 124 82.73 124.89 83.08 126.67 83.43 128.15 83.78 128.74 84.13 128.74 84.48 129.63 84.83 130.52 85.17 130.23 85.52 128.74 85.87 128.74 86.22 127.56 86.57 125.19 86.92 125.78 87.27 123.71 87.62 123.41 87.97 124 88.32 124.3 88.67 124.3 89.02 126.37 89.36 124.3 89.71 124.3 90.06 123.71 90.41 123.71 90.76 123.41 91.11 123.12 91.46 124.6 91.81 124.89 92.16 126.08 92.51 127.26 92.86 126.67 93.2 127.26 93.55 126.97 93.9 125.49 94.25 125.78 94.6 125.19 94.95 126.37 95.3 126.37 95.65 128.45 96 127.26 96.35 128.15 96.7 129.34 97.05 127.56 97.39 127.86 97.74 126.97 98.09 128.45 98.44 128.45 98.79 128.74 99.14 127.86 99.49 129.63 99.84 130.52 100.19 131.11"/>
      </g>
      <g stroke-width="0.3" fill="#000000" fill-opacity="0.000" class="geometry" stroke-dasharray="none" stroke="#FEE08B" id="img-c9faa38c-15">
        <path fill="none" d="M21.98,71.86 L 22.33 70.97 22.68 74.83 23.03 78.38 23.38 77.2 23.73 76.6 24.08 80.16 24.42 80.75 24.77 81.94 25.12 85.79 25.47 83.42 25.82 83.12 26.17 86.68 26.52 81.64 26.87 87.27 27.22 85.49 27.57 88.45 27.92 87.27 28.27 82.53 28.61 78.38 28.96 76.9 29.31 83.42 29.66 86.08 30.01 84.9 30.36 81.64 30.71 81.94 31.06 79.86 31.41 85.49 31.76 89.05 32.11 90.23 32.45 90.53 32.8 89.94 33.15 91.42 33.5 94.68 33.85 92.31 34.2 90.82 34.55 93.79 34.9 90.82 35.25 91.12 35.6 95.27 35.95 95.56 36.3 100.6 36.64 102.67 36.99 105.93 37.34 106.23 37.69 110.67 38.04 113.34 38.39 110.38 38.74 109.78 39.09 108.6 39.44 108.9 39.79 108.9 40.14 108.01 40.49 105.64 40.83 108.6 41.18 108.9 41.53 107.41 41.88 110.38 42.23 111.27 42.58 111.56 42.93 111.27 43.28 106.82 43.63 106.53 43.98 110.38 44.33 103.86 44.67 99.71 45.02 97.93 45.37 99.12 45.72 100.6 46.07 102.38 46.42 102.97 46.77 98.53 47.12 101.49 47.47 103.27 47.82 108.3 48.17 105.93 48.52 106.82 48.86 107.41 49.21 110.08 49.56 109.78 49.91 113.04 50.26 114.82 50.61 112.45 50.96 112.75 51.31 112.75 51.66 110.97 52.01 111.56 52.36 107.41 52.7 106.53 53.05 103.27 53.4 105.64 53.75 106.23 54.1 107.71 54.45 109.19 54.8 108.3 55.15 107.41 55.5 109.49 55.85 109.49 56.2 111.27 56.55 111.56 56.89 111.86 57.24 110.67 57.59 109.19 57.94 108.3 58.29 109.49 58.64 108.6 58.99 108.01 59.34 108.01 59.69 110.97 60.04 111.56 60.39 111.86 60.73 111.56 61.08 111.56 61.43 115.12 61.78 116.01 62.13 116.6 62.48 116.6 62.83 113.93 63.18 116.3 63.53 116.01 63.88 115.71 64.23 113.64 64.58 115.12 64.92 116.01 65.27 120.45 65.62 119.26 65.97 121.04 66.32 122.52 66.67 122.23 67.02 121.04 67.37 121.34 67.72 123.41 68.07 123.71 68.42 123.71 68.77 124 69.11 123.71 69.46 123.12 69.81 122.82 70.16 123.41 70.51 124.3 70.86 122.23 71.21 120.75 71.56 122.23 71.91 120.45 72.26 121.34 72.61 119.86 72.95 121.93 73.3 121.34 73.65 117.78 74 119.86 74.35 118.67 74.7 120.45 75.05 123.41 75.4 121.93 75.75 121.34 76.1 121.34 76.45 122.23 76.8 121.63 77.14 120.45 77.49 120.75 77.84 119.86 78.19 117.78 78.54 117.49 78.89 119.26 79.24 119.26 79.59 117.78 79.94 114.82 80.29 114.52 80.64 114.82 80.98 117.49 81.33 119.26 81.68 121.63 82.03 123.12 82.38 121.93 82.73 121.63 83.08 123.71 83.43 123.12 83.78 123.71 84.13 124 84.48 124.89 84.83 125.49 85.17 125.19 85.52 126.37 85.87 126.67 86.22 126.97 86.57 126.97 86.92 126.37 87.27 127.56 87.62 128.74 87.97 129.93 88.32 131.11"/>
      </g>
      <g stroke-width="0.3" fill="#000000" fill-opacity="0.000" class="geometry" stroke-dasharray="none" stroke="#FDAE61" id="img-c9faa38c-16">
        <path fill="none" d="M21.98,71.86 L 22.33 74.53 22.68 75.12 23.03 78.68 23.38 80.75 23.73 78.68 24.08 77.2 24.42 76.31 24.77 71.57 25.12 74.23 25.47 74.83 25.82 73.05 26.17 77.2 26.52 76.31 26.87 81.05 27.22 80.75 27.57 82.53 27.92 82.53 28.27 78.08 28.61 77.49 28.96 78.68 29.31 76.9 29.66 77.49 30.01 75.12 30.36 77.2 30.71 81.94 31.06 81.64 31.41 80.16 31.76 79.57 32.11 80.45 32.45 81.05 32.8 78.97 33.15 78.38 33.5 75.12 33.85 71.86 34.2 75.71 34.55 79.57 34.9 75.71 35.25 74.53 35.6 75.71 35.95 71.86 36.3 71.86 36.64 67.72 36.99 68.31 37.34 66.23 37.69 68.6 38.04 65.64 38.39 67.12 38.74 64.16 39.09 63.57 39.44 59.12 39.79 57.35 40.14 60.31 40.49 58.24 40.83 58.53 41.18 57.05 41.53 57.94 41.88 61.49 42.23 67.72 42.58 66.23 42.93 64.75 43.28 58.24 43.63 50.83 43.98 49.35 44.33 48.46 44.67 49.05 45.02 50.53 45.37 49.64 45.72 49.35 46.07 47.87 46.42 48.16 46.77 48.76 47.12 52.9 47.47 53.79 47.82 51.42 48.17 53.79 48.52 52.9 48.86 50.53 49.21 52.9 49.56 57.35 49.91 57.35 50.26 54.68 50.61 58.83 50.96 58.83 51.31 57.05 51.66 51.13 52.01 50.83 52.36 54.38 52.7 62.38 53.05 64.16 53.4 67.72 53.75 67.72 54.1 66.83 54.45 68.6 54.8 68.9 55.15 72.16 55.5 76.6 55.85 77.79 56.2 76.01 56.55 75.42 56.89 76.31 57.24 74.23 57.59 74.23 57.94 78.08 58.29 79.86 58.64 84.6 58.99 81.64 59.34 74.83 59.69 73.05 60.04 76.9 60.39 82.82 60.73 80.45 61.08 82.23 61.43 81.34 61.78 81.34 62.13 86.38 62.48 87.86 62.83 85.79 63.18 83.12 63.53 81.05 63.88 86.38 64.23 86.97 64.58 87.57 64.92 89.05 65.27 88.16 65.62 88.75 65.97 89.05 66.32 86.38 66.67 88.16 67.02 84.31 67.37 85.49 67.72 86.38 68.07 84.01 68.42 82.53 68.77 78.68 69.11 76.6 69.46 72.75 69.81 78.38 70.16 81.94 70.51 79.27 70.86 77.49 71.21 84.6 71.56 83.12 71.91 84.31 72.26 85.19 72.61 86.08 72.95 91.12 73.3 91.42 73.65 87.27 74 84.01 74.35 89.64 74.7 89.94 75.05 89.05 75.4 89.64 75.75 91.71 76.1 84.9 76.45 84.31 76.8 86.38 77.14 86.38 77.49 79.86 77.84 78.97 78.19 83.42 78.54 79.57 78.89 80.45 79.24 83.12 79.59 81.05 79.94 84.9 80.29 85.19 80.64 87.27 80.98 86.68 81.33 86.08 81.68 89.05 82.03 85.79 82.38 85.49 82.73 78.68 83.08 78.38 83.43 80.45 83.78 83.71 84.13 81.94 84.48 83.42 84.83 85.19 85.17 86.08 85.52 87.27 85.87 87.57 86.22 90.82 86.57 91.71 86.92 91.71 87.27 92.01 87.62 86.38 87.97 88.16 88.32 82.23 88.67 80.45 89.02 83.42 89.36 78.97 89.71 79.27 90.06 79.57 90.41 84.31 90.76 89.64 91.11 89.64 91.46 92.01 91.81 92.9 92.16 93.19 92.51 95.27 92.86 91.12 93.2 91.12 93.55 86.08 93.9 85.49 94.25 90.53 94.6 94.08 94.95 100.6 95.3 102.97 95.65 106.23 96 105.34 96.35 103.27 96.7 105.04 97.05 105.04 97.39 106.53 97.74 106.23 98.09 102.97 98.44 101.49 98.79 100.6 99.14 100.9 99.49 96.45 99.84 94.97 100.19 96.45 100.54 94.97 100.89 93.49 101.23 94.38 101.58 93.19 101.93 93.79 102.28 93.19 102.63 94.08 102.98 96.16 103.33 96.75 103.68 95.27 104.03 98.53 104.38 96.75 104.73 101.49 105.08 99.71 105.42 103.27 105.77 105.34 106.12 106.82 106.47 105.64 106.82 108.3 107.17 110.08 107.52 111.27 107.87 112.45 108.22 113.04 108.57 110.38 108.92 108.01 109.26 108.3 109.61 108.6 109.96 108.01 110.31 102.67 110.66 99.71 111.01 103.86 111.36 101.79 111.71 101.49 112.06 103.56 112.41 104.16 112.76 101.79 113.11 102.38 113.45 105.04 113.8 103.56 114.15 102.08 114.5 103.56 114.85 100.3 115.2 103.27 115.55 100.3 115.9 103.27 116.25 100.9 116.6 101.49 116.95 100.3 117.3 94.68 117.64 96.45 117.99 99.12 118.34 102.38 118.69 103.86 119.04 105.04 119.39 102.38 119.74 102.38 120.09 100.9 120.44 98.53 120.79 96.75 121.14 98.53 121.48 100.3 121.83 102.97 122.18 105.64 122.53 103.27 122.88 109.49 123.23 109.78 123.58 109.19 123.93 105.34 124.28 103.86 124.63 102.38 124.98 107.71 125.33 107.71 125.67 109.78 126.02 109.78 126.37 110.08 126.72 106.53 127.07 105.34 127.42 108.3 127.77 111.86 128.12 114.82 128.47 114.52 128.82 113.93 129.17 113.93 129.51 113.04 129.86 115.71 130.21 110.38 130.56 109.19 130.91 111.27 131.26 111.27 131.61 110.38 131.96 108.9 132.31 107.71 132.66 104.75 133.01 102.67 133.36 105.04 133.7 104.16 134.05 104.16 134.4 100.9 134.75 103.27 135.1 104.75 135.45 105.93 135.8 108.01 136.15 109.19 136.5 103.56 136.85 105.93 137.2 105.04 137.55 110.67 137.89 109.49 138.24 110.67 138.59 111.56 138.94 115.71 139.29 113.04 139.64 114.82 139.99 114.23 140.34 114.82 140.69 116.3 141.04 116.3 141.39 117.19 141.73 116.6 142.08 117.78 142.43 115.41 142.78 113.93 143.13 113.93 143.48 113.04 143.83 110.67 144.18 109.78 144.53 110.97 144.88 111.56 145.23 110.67 145.58 110.67 145.92 112.15 146.27 113.34 146.62 115.12 146.97 115.71 147.32 113.04 147.67 115.41 148.02 116.3 148.37 115.71 148.72 116.3 149.07 119.86 149.42 119.86 149.76 117.78 150.11 121.34 150.46 116.89 150.81 117.19 151.16 118.08 151.51 117.49 151.86 121.04 152.21 119.86 152.56 120.45 152.91 120.45 153.26 119.86 153.61 117.19 153.95 116.01 154.3 118.97 154.65 118.67 155 118.38 155.35 118.67 155.7 119.86 156.05 118.38 156.4 123.12 156.75 124.3 157.1 126.08 157.45 126.97 157.79 125.78 158.14 124.6 158.49 123.71 158.84 124.89 159.19 125.78 159.54 125.49 159.89 126.67 160.24 128.15 160.59 129.63 160.94 129.93 161.29 130.82 161.64 131.11"/>
      </g>
      <g stroke-width="0.3" fill="#000000" fill-opacity="0.000" class="geometry" stroke-dasharray="none" stroke="#F46D43" id="img-c9faa38c-17">
        <path fill="none" d="M21.98,71.86 L 22.33 68.31 22.68 67.12 23.03 74.23 23.38 78.68 23.73 75.71 24.08 72.75 24.42 73.34 24.77 76.01 25.12 81.34 25.47 84.31 25.82 82.82 26.17 78.97 26.52 76.01 26.87 78.08 27.22 76.9 27.57 76.9 27.92 75.12 28.27 72.46 28.61 69.79 28.96 70.09 29.31 71.57 29.66 74.83 30.01 76.31 30.36 78.68 30.71 75.12 31.06 76.01 31.41 75.42 31.76 76.9 32.11 74.53 32.45 76.01 32.8 75.42 33.15 67.72 33.5 68.01 33.85 62.98 34.2 61.2 34.55 62.38 34.9 62.38 35.25 65.64 35.6 68.9 35.95 69.2 36.3 69.79 36.64 72.46 36.99 70.68 37.34 69.79 37.69 68.31 38.04 68.31 38.39 65.64 38.74 68.01 39.09 66.23 39.44 62.09 39.79 64.16 40.14 66.53 40.49 64.16 40.83 61.2 41.18 62.68 41.53 61.79 41.88 67.72 42.23 67.72 42.58 71.27 42.93 68.01 43.28 70.38 43.63 70.97 43.98 75.12 44.33 78.97 44.67 76.01 45.02 78.08 45.37 75.42 45.72 80.16 46.07 76.9 46.42 76.01 46.77 77.79 47.12 83.12 47.47 85.19 47.82 83.12 48.17 88.45 48.52 82.53 48.86 84.6 49.21 83.42 49.56 82.82 49.91 82.23 50.26 80.16 50.61 81.94 50.96 84.31 51.31 86.08 51.66 85.79 52.01 87.27 52.36 88.16 52.7 92.9 53.05 94.97 53.4 100.3 53.75 102.67 54.1 101.49 54.45 99.71 54.8 97.34 55.15 99.12 55.5 102.97 55.85 101.49 56.2 103.86 56.55 104.75 56.89 106.53 57.24 107.41 57.59 108.9 57.94 110.97 58.29 114.23 58.64 116.3 58.99 114.82 59.34 115.71 59.69 120.15 60.04 120.75 60.39 119.26 60.73 121.93 61.08 121.93 61.43 121.93 61.78 119.86 62.13 119.56 62.48 115.71 62.83 115.41 63.18 113.34 63.53 110.38 63.88 112.75 64.23 112.45 64.58 110.67 64.92 108.3 65.27 108.3 65.62 102.97 65.97 103.86 66.32 105.34 66.67 104.16 67.02 105.04 67.37 107.71 67.72 108.6 68.07 102.97 68.42 105.04 68.77 107.71 69.11 108.6 69.46 108.3 69.81 107.71 70.16 109.49 70.51 109.19 70.86 108.3 71.21 109.19 71.56 111.86 71.91 112.75 72.26 111.27 72.61 111.86 72.95 113.64 73.3 113.93 73.65 115.12 74 116.6 74.35 117.78 74.7 121.34 75.05 121.63 75.4 121.93 75.75 122.52 76.1 120.45 76.45 119.86 76.8 117.49 77.14 113.64 77.49 114.23 77.84 115.41 78.19 114.23 78.54 114.52 78.89 114.82 79.24 114.82 79.59 117.19 79.94 119.86 80.29 118.38 80.64 118.08 80.98 120.75 81.33 121.63 81.68 120.45 82.03 121.63 82.38 123.71 82.73 123.71 83.08 123.12 83.43 123.71 83.78 124.3 84.13 123.41 84.48 124.3 84.83 124.6 85.17 119.86 85.52 121.34 85.87 119.26 86.22 119.86 86.57 121.63 86.92 122.52 87.27 123.71 87.62 124.6 87.97 123.71 88.32 123.71 88.67 121.34 89.02 120.15 89.36 116.6 89.71 114.52 90.06 116.89 90.41 118.08 90.76 116.01 91.11 116.01 91.46 115.41 91.81 112.45 92.16 111.56 92.51 109.49 92.86 105.93 93.2 106.23 93.55 111.56 93.9 110.97 94.25 108.9 94.6 112.45 94.95 110.08 95.3 108.6 95.65 108.01 96 102.38 96.35 97.64 96.7 99.12 97.05 102.67 97.39 100.01 97.74 97.34 98.09 95.56 98.44 97.34 98.79 96.75 99.14 97.93 99.49 98.82 99.84 98.82 100.19 97.05 100.54 98.53 100.89 99.71 101.23 100.9 101.58 100.01 101.93 102.08 102.28 102.38 102.63 103.86 102.98 107.41 103.33 109.49 103.68 108.01 104.03 107.71 104.38 107.41 104.73 103.56 105.08 104.16 105.42 105.04 105.77 106.53 106.12 106.53 106.47 105.93 106.82 107.71 107.17 108.9 107.52 107.71 107.87 105.64 108.22 107.12 108.57 107.12 108.92 104.45 109.26 106.23 109.61 106.23 109.96 107.41 110.31 107.12 110.66 106.53 111.01 101.19 111.36 100.9 111.71 99.42 112.06 99.42 112.41 101.79 112.76 102.08 113.11 108.01 113.45 108.3 113.8 103.27 114.15 99.42 114.5 103.86 114.85 104.75 115.2 105.04 115.55 107.41 115.9 110.97 116.25 108.01 116.6 104.45 116.95 108.01 117.3 107.71 117.64 106.23 117.99 104.75 118.34 106.82 118.69 107.71 119.04 106.53 119.39 106.82 119.74 107.71 120.09 109.19 120.44 110.08 120.79 112.75 121.14 113.34 121.48 113.93 121.83 116.3 122.18 115.71 122.53 114.23 122.88 114.52 123.23 115.71 123.58 117.49 123.93 115.41 124.28 119.26 124.63 119.26 124.98 117.19 125.33 114.52 125.67 114.23 126.02 114.52 126.37 115.71 126.72 115.12 127.07 116.6 127.42 117.49 127.77 119.56 128.12 121.63 128.47 121.04 128.82 122.23 129.17 119.26 129.51 118.08 129.86 119.56 130.21 117.19 130.56 118.67 130.91 114.82 131.26 114.82 131.61 113.34 131.96 110.38 132.31 110.38 132.66 113.04 133.01 113.04 133.36 112.75 133.7 114.23 134.05 111.56 134.4 112.45 134.75 111.56 135.1 110.38 135.45 116.01 135.8 116.01 136.15 115.12 136.5 113.64 136.85 114.23 137.2 116.89 137.55 115.41 137.89 112.15 138.24 113.93 138.59 116.01 138.94 115.12 139.29 116.3 139.64 117.19 139.99 118.08 140.34 118.08 140.69 115.71 141.04 114.82 141.39 112.75 141.73 110.08 142.08 109.78 142.43 110.38 142.78 108.6 143.13 105.04 143.48 104.75 143.83 105.64 144.18 102.67 144.53 106.53 144.88 107.12 145.23 107.41 145.58 107.41 145.92 108.01 146.27 101.19 146.62 100.3 146.97 98.82 147.32 99.42 147.67 99.42 148.02 97.64 148.37 93.19 148.72 92.01 149.07 93.49 149.42 88.75 149.76 91.12 150.11 89.05 150.46 83.12 150.81 83.12 151.16 83.71 151.51 86.68 151.86 83.12 152.21 85.49 152.56 82.53 152.91 82.23 153.26 79.86 153.61 82.53 153.95 84.6 154.3 79.86 154.65 80.75 155 77.49 155.35 81.34 155.7 78.38 156.05 81.64 156.4 82.53 156.75 85.79 157.1 86.97 157.45 88.16 157.79 91.42 158.14 95.56 158.49 95.56 158.84 99.42 159.19 101.49 159.54 99.12 159.89 99.42 160.24 97.93 160.59 96.75 160.94 94.38 161.29 93.19 161.64 96.45 161.98 94.38 162.33 95.56 162.68 94.97 163.03 97.05 163.38 97.64 163.73 97.05 164.08 95.86 164.43 94.97 164.78 95.56 165.13 94.38 165.48 97.34 165.83 98.82 166.17 95.56 166.52 94.38 166.87 94.38 167.22 90.23 167.57 91.71 167.92 94.68 168.27 97.34 168.62 96.16 168.97 99.12 169.32 100.3 169.67 102.67 170.01 102.38 170.36 106.82 170.71 105.93 171.06 104.16 171.41 105.04 171.76 103.56 172.11 106.23 172.46 108.6 172.81 105.04 173.16 102.38 173.51 106.23 173.86 102.38 174.2 103.86 174.55 100.3 174.9 97.93 175.25 96.75 175.6 97.34 175.95 97.05 176.3 98.82 176.65 100.6 177 97.64 177.35 98.82 177.7 102.97 178.04 101.49 178.39 100.3 178.74 96.16 179.09 96.75 179.44 97.64 179.79 95.86 180.14 97.64 180.49 96.16 180.84 94.38 181.19 98.53 181.54 94.68 181.89 91.71 182.23 95.27 182.58 101.49 182.93 102.67 183.28 102.38 183.63 103.27 183.98 104.75 184.33 102.38 184.68 101.49 185.03 99.42 185.38 101.49 185.73 101.19 186.08 99.71 186.42 103.86 186.77 105.34 187.12 108.01 187.47 111.56 187.82 113.64 188.17 112.45 188.52 110.67 188.87 110.67 189.22 112.45 189.57 111.56 189.92 112.75 190.26 114.23 190.61 115.41 190.96 116.6 191.31 121.04 191.66 119.86 192.01 120.75 192.36 120.45 192.71 117.49 193.06 115.12 193.41 114.82 193.76 113.34 194.11 115.12 194.45 116.89 194.8 119.86 195.15 117.19 195.5 117.49 195.85 116.3 196.2 116.01"/>
      </g>
      <g stroke-width="0.3" fill="#000000" fill-opacity="0.000" class="geometry" stroke-dasharray="none" stroke="#D53E4F" id="img-c9faa38c-18">
        <path fill="none" d="M21.98,71.86 L 22.33 70.68 22.68 67.42 23.03 64.16 23.38 67.12 23.73 73.34 24.08 73.64 24.42 71.86 24.77 66.83 25.12 69.49 25.47 70.97 25.82 72.16 26.17 72.75 26.52 72.46 26.87 73.64 27.22 71.57 27.57 75.42 27.92 81.34 28.27 76.6 28.61 76.6 28.96 73.64 29.31 76.6 29.66 76.6 30.01 78.97 30.36 76.01 30.71 78.38 31.06 75.42 31.41 78.68 31.76 76.9 32.11 72.75 32.45 70.68 32.8 71.57 33.15 73.34 33.5 71.86 33.85 73.05 34.2 73.34 34.55 75.71 34.9 72.75 35.25 72.16 35.6 73.05 35.95 72.16 36.3 71.86 36.64 73.64 36.99 72.46 37.34 78.97 37.69 75.12 38.04 73.34 38.39 73.94 38.74 70.68 39.09 73.64 39.44 71.57 39.79 69.49 40.14 68.6 40.49 69.49 40.83 65.64 41.18 66.53 41.53 64.46 41.88 60.9 42.23 63.27 42.58 66.23 42.93 68.6 43.28 66.83 43.63 69.2 43.98 68.31 44.33 68.31 44.67 68.6 45.02 70.97 45.37 72.46 45.72 72.75 46.07 72.46 46.42 73.64 46.77 81.34 47.12 79.86 47.47 77.2 47.82 78.68 48.17 81.34 48.52 75.42 48.86 74.23 49.21 75.42 49.56 77.49 49.91 77.79 50.26 79.27 50.61 78.97 50.96 84.31 51.31 88.45 51.66 85.79 52.01 86.08 52.36 87.27 52.7 90.53 53.05 88.75 53.4 87.57 53.75 84.9 54.1 83.71 54.45 85.19 54.8 88.45 55.15 90.23 55.5 95.27 55.85 92.31 56.2 95.56 56.55 88.75 56.89 87.27 57.24 86.97 57.59 85.79 57.94 84.01 58.29 85.19 58.64 88.16 58.99 85.49 59.34 82.53 59.69 83.12 60.04 85.49 60.39 83.71 60.73 84.9 61.08 84.31 61.43 84.31 61.78 80.75 62.13 79.57 62.48 78.08 62.83 76.6 63.18 73.34 63.53 75.42 63.88 72.46 64.23 74.23 64.58 72.46 64.92 68.01 65.27 72.16 65.62 73.94 65.97 72.75 66.32 76.6 66.67 79.27 67.02 77.49 67.37 80.16 67.72 81.64 68.07 84.31 68.42 84.31 68.77 87.57 69.11 89.94 69.46 90.23 69.81 94.97 70.16 97.34 70.51 96.16 70.86 99.42 71.21 96.16 71.56 101.19 71.91 104.16 72.26 106.82 72.61 110.38 72.95 113.04 73.3 114.23 73.65 113.93 74 117.78 74.35 119.56 74.7 121.04 75.05 120.45 75.4 119.26 75.75 122.52 76.1 124 76.45 121.04 76.8 119.26 77.14 117.78 77.49 117.19 77.84 116.3 78.19 119.56 78.54 119.56 78.89 120.45 79.24 122.82 79.59 122.82 79.94 122.52 80.29 123.41 80.64 121.04 80.98 121.04 81.33 120.15 81.68 120.15 82.03 121.04 82.38 123.71 82.73 126.08 83.08 126.37 83.43 125.19 83.78 124.89 84.13 124.89 84.48 123.41 84.83 125.49 85.17 126.08 85.52 127.26 85.87 128.74 86.22 129.93 86.57 130.23 86.92 130.23 87.27 128.45 87.62 129.34 87.97 130.82 88.32 130.82 88.67 130.82 89.02 131.11"/>
      </g>
      <g stroke-width="0.3" fill="#000000" fill-opacity="0.000" class="geometry" stroke-dasharray="none" stroke="#9E0142" id="img-c9faa38c-19">
        <path fill="none" d="M21.98,71.86 L 22.33 72.75 22.68 72.46 23.03 74.23 23.38 77.2 23.73 79.57 24.08 79.57 24.42 78.97 24.77 77.79 25.12 78.38 25.47 80.16 25.82 81.34 26.17 80.45 26.52 73.94 26.87 72.46 27.22 71.27 27.57 76.6 27.92 78.08 28.27 76.9 28.61 78.08 28.96 72.16 29.31 70.97 29.66 72.16 30.01 71.86 30.36 74.83 30.71 73.05 31.06 70.97 31.41 71.57 31.76 70.97 32.11 73.94 32.45 73.64 32.8 70.97 33.15 68.9 33.5 74.53 33.85 67.12 34.2 67.72 34.55 68.9 34.9 67.42 35.25 58.83 35.6 64.75 35.95 69.49 36.3 73.05 36.64 70.97 36.99 67.12 37.34 66.23 37.69 68.31 38.04 66.23 38.39 66.83 38.74 65.64 39.09 63.86 39.44 64.16 39.79 69.79 40.14 67.12 40.49 65.35 40.83 72.46 41.18 72.46 41.53 78.38 41.88 79.27 42.23 82.82 42.58 81.64 42.93 83.12 43.28 81.34 43.63 81.94 43.98 77.49 44.33 81.94 44.67 81.94 45.02 80.16 45.37 76.9 45.72 78.38 46.07 76.9 46.42 75.12 46.77 77.49 47.12 73.34 47.47 74.23 47.82 76.31 48.17 77.79 48.52 78.08 48.86 78.68 49.21 78.97 49.56 78.38 49.91 78.97 50.26 81.05 50.61 82.53 50.96 86.08 51.31 88.16 51.66 86.97 52.01 85.19 52.36 84.01 52.7 84.6 53.05 82.82 53.4 81.64 53.75 87.57 54.1 89.94 54.45 88.75 54.8 89.34 55.15 82.53 55.5 81.34 55.85 82.82 56.2 89.94 56.55 91.71 56.89 93.19 57.24 92.31 57.59 92.6 57.94 91.71 58.29 88.45 58.64 88.16 58.99 88.16 59.34 84.01 59.69 82.23 60.04 78.68 60.39 77.2 60.73 79.86 61.08 78.97 61.43 81.64 61.78 82.23 62.13 85.49 62.48 84.6 62.83 89.64 63.18 89.64 63.53 90.53 63.88 86.08 64.23 81.05 64.58 80.45 64.92 82.53 65.27 85.49 65.62 81.64 65.97 78.68 66.32 75.42 66.67 75.42 67.02 75.42 67.37 75.71 67.72 75.42 68.07 75.12 68.42 76.6 68.77 75.42 69.11 76.31 69.46 72.75 69.81 75.42 70.16 75.71 70.51 73.34 70.86 73.64 71.21 77.79 71.56 76.9 71.91 80.16 72.26 76.6 72.61 77.79 72.95 81.05 73.3 81.34 73.65 80.16 74 78.97 74.35 76.01 74.7 73.64 75.05 74.53 75.4 72.46 75.75 71.27 76.1 69.49 76.45 65.94 76.8 64.75 77.14 68.01 77.49 65.35 77.84 61.79 78.19 69.49 78.54 66.23 78.89 64.46 79.24 63.27 79.59 67.12 79.94 68.9 80.29 68.9 80.64 71.27 80.98 69.79 81.33 67.72 81.68 63.86 82.03 62.38 82.38 58.83 82.73 53.79 83.08 52.61 83.43 51.72 83.78 52.9 84.13 52.01 84.48 51.72 84.83 51.42 85.17 55.27 85.52 57.94 85.87 56.75 86.22 52.9 86.57 53.79 86.92 53.2 87.27 58.53 87.62 60.61 87.97 63.57 88.32 61.79 88.67 59.42 89.02 58.24 89.36 62.09 89.71 64.46 90.06 63.57 90.41 66.83 90.76 69.2 91.11 73.05 91.46 77.2 91.81 74.23 92.16 72.46 92.51 73.05 92.86 70.97 93.2 71.27 93.55 77.49 93.9 75.12 94.25 83.71 94.6 88.16 94.95 90.23 95.3 84.6 95.65 85.49 96 87.57 96.35 86.68 96.7 86.97 97.05 85.49 97.39 84.31 97.74 86.97 98.09 92.9 98.44 93.79 98.79 96.16 99.14 94.38 99.49 91.71 99.84 89.94 100.19 91.42 100.54 92.9 100.89 90.23 101.23 93.49 101.58 89.05 101.93 88.45 102.28 94.97 102.63 93.49 102.98 95.86 103.33 96.75 103.68 95.56 104.03 97.93 104.38 98.53 104.73 96.45 105.08 101.49 105.42 105.04 105.77 102.67 106.12 105.64 106.47 108.9 106.82 105.64 107.17 108.01 107.52 113.93 107.87 111.56 108.22 112.45 108.57 116.89 108.92 115.41 109.26 115.12 109.61 113.64 109.96 113.93 110.31 113.93 110.66 113.04 111.01 111.86 111.36 115.41 111.71 114.52 112.06 115.12 112.41 118.97 112.76 119.26 113.11 118.08 113.45 118.08 113.8 120.15 114.15 121.34 114.5 122.23 114.85 122.23 115.2 121.63 115.55 123.12 115.9 123.71 116.25 125.78 116.6 127.86 116.95 127.86 117.3 126.08 117.64 125.49 117.99 124.3 118.34 124.3 118.69 123.12 119.04 123.12 119.39 122.52 119.74 121.93 120.09 119.56 120.44 120.15 120.79 119.86 121.14 118.67 121.48 119.26 121.83 114.82 122.18 117.19 122.53 113.34 122.88 115.71 123.23 115.41 123.58 117.78 123.93 117.49 124.28 115.71 124.63 116.01 124.98 117.78 125.33 119.86 125.67 118.38 126.02 117.78 126.37 117.49 126.72 114.52 127.07 111.27 127.42 110.38 127.77 107.41 128.12 109.78 128.47 111.86 128.82 110.97 129.17 112.75 129.51 113.34 129.86 112.15 130.21 113.34 130.56 112.75 130.91 110.38 131.26 112.15 131.61 112.15 131.96 113.93 132.31 117.49 132.66 122.52 133.01 125.19 133.36 124.89 133.7 124.3 134.05 124 134.4 125.78 134.75 125.78 135.1 126.37 135.45 127.26 135.8 125.78 136.15 127.56 136.5 126.37 136.85 128.15 137.2 126.67 137.55 125.78 137.89 125.49 138.24 126.08 138.59 126.97 138.94 127.86 139.29 126.67 139.64 126.67 139.99 127.26 140.34 126.97 140.69 125.19 141.04 125.78 141.39 124.89 141.73 124.89 142.08 125.78 142.43 126.08 142.78 125.78 143.13 125.19 143.48 124.6 143.83 123.12 144.18 124.3 144.53 124.6 144.88 125.78 145.23 124.3 145.58 124.6 145.92 127.26 146.27 126.97 146.62 125.78 146.97 125.19 147.32 124.89 147.67 124.89 148.02 124.3 148.37 125.19 148.72 124.3 149.07 124 149.42 124.6 149.76 125.19 150.11 125.19 150.46 124.3 150.81 123.71 151.16 124.6 151.51 124.6 151.86 126.67 152.21 125.19 152.56 122.52 152.91 122.82 153.26 124.3 153.61 122.52 153.95 121.04 154.3 124 154.65 123.12 155 123.71 155.35 124.3 155.7 123.12 156.05 123.41 156.4 123.41 156.75 121.63 157.1 123.41 157.45 122.82 157.79 122.52 158.14 122.82 158.49 120.75 158.84 125.49 159.19 122.82 159.54 123.71 159.89 125.19 160.24 126.97 160.59 125.19 160.94 124 161.29 124.89 161.64 124.89 161.98 124 162.33 120.45 162.68 118.97 163.03 116.01 163.38 119.26 163.73 119.56 164.08 118.67 164.43 120.45 164.78 119.26 165.13 119.86 165.48 121.34 165.83 120.15 166.17 120.45 166.52 122.23 166.87 120.15 167.22 120.75 167.57 119.26 167.92 116.6 168.27 117.49 168.62 116.6 168.97 115.71 169.32 116.01 169.67 115.12 170.01 117.49 170.36 117.19 170.71 118.97 171.06 120.15 171.41 118.97 171.76 121.04 172.11 120.15 172.46 119.86 172.81 123.12 173.16 122.82 173.51 123.12 173.86 121.04 174.2 121.93 174.55 124.3 174.9 122.82 175.25 121.63 175.6 122.82 175.95 122.82 176.3 124.89 176.65 127.56 177 128.45 177.35 129.63 177.7 129.93 178.04 129.34 178.39 129.63 178.74 129.04 179.09 129.34 179.44 129.04 179.79 129.34 180.14 128.74 180.49 128.15 180.84 127.56 181.19 128.74 181.54 127.86 181.89 127.86 182.23 126.97 182.58 127.86 182.93 129.34 183.28 129.93 183.63 130.82 183.98 130.82 184.33 131.11"/>
      </g>
    </g>
  </g>
</g>
  <g class="guide ylabels" font-size="2.82" font-family="'PT Sans Caption','Helvetica Neue','Helvetica',sans-serif" fill="#000000" id="img-c9faa38c-20">
    <text x="18.63" y="131.11" text-anchor="end" dy="0.35em">0</text>
    <text x="18.63" y="101.49" text-anchor="end" dy="0.35em">100</text>
    <text x="18.63" y="71.86" text-anchor="end" dy="0.35em">200</text>
    <text x="18.63" y="42.24" text-anchor="end" dy="0.35em">300</text>
    <text x="18.63" y="12.61" text-anchor="end" dy="0.35em">400</text>
  </g>
  <g font-size="3.88" font-family="'PT Sans','Helvetica Neue','Helvetica',sans-serif" fill="#000000" stroke="#000000" stroke-opacity="0.000" id="img-c9faa38c-21">
    <text x="8.81" y="69.86" text-anchor="middle" dy="0.35em" transform="rotate(-90, 8.81, 71.86)">population number</text>
  </g>
  <g font-size="3.88" font-family="'PT Sans','Helvetica Neue','Helvetica',sans-serif" fill="#000000" stroke="#000000" stroke-opacity="0.000" id="img-c9faa38c-22">
    <text x="108.92" y="5" text-anchor="middle" dy="0.6em">genetic drift</text>
  </g>
</g>
<defs>
  <clipPath id="img-c9faa38c-4">
  <path d="M19.63,10.61 L 198.2 10.61 198.2 133.11 19.63 133.11" />
</clipPath>
</defs>
</svg>
