<?xml version="1.0" encoding="UTF-8"?>
<svg xmlns="http://www.w3.org/2000/svg"
     xmlns:xlink="http://www.w3.org/1999/xlink"
     xmlns:gadfly="http://www.gadflyjl.org/ns"
     version="1.2"
     width="203.2mm" height="152.4mm" viewBox="0 0 203.2 152.4"
     stroke="none"
     fill="#000000"
     stroke-width="0.3"
     font-size="3.88"
>
<g class="plotroot xscalable yscalable" id="img-3ca8fe4a-1">
  <g font-size="3.88" font-family="'PT Sans','Helvetica Neue','Helvetica',sans-serif" fill="#000000" stroke="#000000" stroke-opacity="0.000" id="img-3ca8fe4a-2">
    <text x="108.92" y="140.79" text-anchor="middle" dy="0.6em">generation number</text>
  </g>
  <g class="guide xlabels" font-size="2.82" font-family="'PT Sans Caption','Helvetica Neue','Helvetica',sans-serif" fill="#000000" id="img-3ca8fe4a-3">
    <text x="21.63" y="134.11" text-anchor="middle" dy="0.6em">0</text>
    <text x="56.55" y="134.11" text-anchor="middle" dy="0.6em">100</text>
    <text x="91.46" y="134.11" text-anchor="middle" dy="0.6em">200</text>
    <text x="126.37" y="134.11" text-anchor="middle" dy="0.6em">300</text>
    <text x="161.29" y="134.11" text-anchor="middle" dy="0.6em">400</text>
    <text x="196.2" y="134.11" text-anchor="middle" dy="0.6em">500</text>
  </g>
<g clip-path="url(#img-3ca8fe4a-4)">
  <g id="img-3ca8fe4a-5">
    <g pointer-events="visible" opacity="1" fill="#FFFFFF" stroke="#000000" stroke-opacity="0.000" class="guide background" id="img-3ca8fe4a-6">
      <rect x="19.63" y="10.61" width="178.57" height="122.5"/>
    </g>
    <g class="guide ygridlines xfixed" stroke-dasharray="0.5,0.5" stroke-width="0.2" stroke="#808080" id="img-3ca8fe4a-7">
      <path fill="none" d="M19.63,131.11 L 198.2 131.11"/>
      <path fill="none" d="M19.63,107.41 L 198.2 107.41"/>
      <path fill="none" d="M19.63,83.71 L 198.2 83.71"/>
      <path fill="none" d="M19.63,60.01 L 198.2 60.01"/>
      <path fill="none" d="M19.63,36.31 L 198.2 36.31"/>
      <path fill="none" d="M19.63,12.61 L 198.2 12.61"/>
    </g>
    <g class="guide xgridlines yfixed" stroke-dasharray="0.5,0.5" stroke-width="0.2" stroke="#808080" id="img-3ca8fe4a-8">
      <path fill="none" d="M21.63,10.61 L 21.63 133.11"/>
      <path fill="none" d="M56.55,10.61 L 56.55 133.11"/>
      <path fill="none" d="M91.46,10.61 L 91.46 133.11"/>
      <path fill="none" d="M126.37,10.61 L 126.37 133.11"/>
      <path fill="none" d="M161.29,10.61 L 161.29 133.11"/>
      <path fill="none" d="M196.2,10.61 L 196.2 133.11"/>
    </g>
    <g class="plotpanel" id="img-3ca8fe4a-9">
      <g stroke-width="0.3" fill="#000000" fill-opacity="0.000" class="geometry" stroke-dasharray="none" stroke="#3288BD" id="img-3ca8fe4a-10">
        <path fill="none" d="M21.98,71.86 L 22.33 71.86 22.68 68.55 23.03 65.7 23.38 64.04 23.73 63.81 24.08 66.41 24.42 67.83 24.77 67.36 25.12 64.04 25.47 60.96 25.82 62.86 26.17 56.46 26.52 55.51 26.87 56.93 27.22 51.24 27.57 47.93 27.92 46.27 28.27 49.35 28.61 55.51 28.96 57.17 29.31 60.49 29.66 57.64 30.01 54.09 30.36 53.61 30.71 54.8 31.06 55.27 31.41 54.32 31.76 51.48 32.11 51.01 32.45 54.09 32.8 53.85 33.15 52.19 33.5 51.48 33.85 48.87 34.2 54.56 34.55 57.41 34.9 57.64 35.25 59.06 35.6 58.35 35.95 59.3 36.3 54.8 36.64 58.83 36.99 58.12 37.34 56.46 37.69 58.35 38.04 59.3 38.39 58.83 38.74 57.64 39.09 56.69 39.44 60.96 39.79 62.38 40.14 62.86 40.49 59.54 40.83 60.96 41.18 62.15 41.53 64.99 41.88 69.49 42.23 67.36 42.58 69.02 42.93 67.36 43.28 68.78 43.63 68.31 43.98 65.46 44.33 66.41 44.67 70.92 45.02 70.2 45.37 74.71 45.72 73.05 46.07 72.57 46.42 74.47 46.77 72.1 47.12 68.31 47.47 69.49 47.82 73.05 48.17 72.34 48.52 75.18 48.86 78.5 49.21 78.97 49.56 75.18 49.91 74.94 50.26 76.13 50.61 73.05 50.96 70.68 51.31 78.5 51.66 79.45 52.01 77.55 52.36 75.66 52.7 74.47 53.05 74.47 53.4 75.66 53.75 69.49 54.1 62.38 54.45 57.17 54.8 57.64 55.15 54.8 55.5 52.67 55.85 53.61 56.2 49.58 56.55 46.74 56.89 43.9 57.24 42.71 57.59 42.47 57.94 42.71 58.29 44.37 58.64 48.16 58.99 51.48 59.34 51.95 59.69 52.9 60.04 49.11 60.39 45.79 60.73 49.58 61.08 47.45 61.43 42 61.78 42 62.13 39.39 62.48 43.19 62.83 42 63.18 41.53 63.53 42.47 63.88 43.19 64.23 38.92 64.58 39.63 64.92 37.73 65.27 37.5 65.62 38.45 65.97 37.5 66.32 41.53 66.67 40.1 67.02 43.42 67.37 42 67.72 43.42 68.07 44.13 68.42 46.74 68.77 45.32 69.11 49.82 69.46 48.64 69.81 47.45 70.16 44.37 70.51 47.69 70.86 47.69 71.21 50.3 71.56 50.3 71.91 49.35 72.26 53.85 72.61 58.59 72.95 56.69 73.3 55.51 73.65 55.98 74 51.95 74.35 49.58 74.7 50.06 75.05 53.85 75.4 54.09 75.75 57.64 76.1 57.64 76.45 58.59 76.8 58.35 77.14 58.12 77.49 56.22 77.84 57.64 78.19 61.91 78.54 66.18 78.89 66.41 79.24 64.75 79.59 69.26 79.94 69.49 80.29 70.92 80.64 71.39 80.98 74.47 81.33 70.92 81.68 70.44 82.03 68.31 82.38 65.94 82.73 66.65 83.08 64.52 83.43 64.99 83.78 65.46 84.13 67.6 84.48 63.57 84.83 59.54 85.17 61.91 85.52 63.33 85.87 66.41 86.22 65.46 86.57 65.94 86.92 63.57 87.27 63.33 87.62 63.33 87.97 66.18 88.32 69.26 88.67 68.31 89.02 69.49 89.36 67.83 89.71 66.89 90.06 62.15 90.41 60.96 90.76 57.17 91.11 61.44 91.46 63.33 91.81 62.62 92.16 59.54 92.51 61.91 92.86 60.96 93.2 58.12 93.55 56.69 93.9 53.85 94.25 54.09 94.6 55.98 94.95 57.17 95.3 57.17 95.65 57.88 96 58.83 96.35 56.69 96.7 54.32 97.05 52.19 97.39 55.04 97.74 60.72 98.09 59.78 98.44 59.54 98.79 64.75 99.14 64.99 99.49 61.44 99.84 56.69 100.19 55.75 100.54 58.35 100.89 52.43 101.23 45.79 101.58 44.13 101.93 38.45 102.28 37.26 102.63 40.34 102.98 39.39 103.33 34.42 103.68 29.68 104.03 29.2 104.38 31.34 104.73 27.54 105.08 28.73 105.42 28.02 105.77 27.07 106.12 24.7 106.47 25.88 106.82 24.46 107.17 24.94 107.52 27.07 107.87 23.99 108.22 23.28 108.57 23.28 108.92 22.8 109.26 22.09 109.61 20.43 109.96 21.14 110.31 20.91 110.66 23.75 111.01 24.22 111.36 23.51 111.71 23.28 112.06 25.65 112.41 26.83 112.76 28.97 113.11 27.31 113.45 28.02 113.8 28.73 114.15 25.65 114.5 24.7 114.85 23.75 115.2 22.8 115.55 22.09 115.9 21.62 116.25 22.8 116.6 22.57 116.95 24.46 117.3 24.22 117.64 26.36 117.99 26.12 118.34 22.8 118.69 23.51 119.04 23.28 119.39 23.28 119.74 24.46 120.09 28.25 120.44 26.12 120.79 27.31 121.14 30.39 121.48 29.2 121.83 28.25 122.18 30.39 122.53 29.91 122.88 26.83 123.23 26.6 123.58 24.46 123.93 25.17 124.28 25.17 124.63 26.36 124.98 24.7 125.33 24.7 125.67 24.46 126.02 22.57 126.37 21.14 126.72 21.14 127.07 23.04 127.42 23.28 127.77 22.09 128.12 22.8 128.47 22.57 128.82 22.09 129.17 22.57 129.51 22.57 129.86 20.2 130.21 18.06 130.56 18.77 130.91 18.3 131.26 17.35 131.61 19.96 131.96 20.43 132.31 19.72 132.66 20.43 133.01 18.77 133.36 20.67 133.7 19.72 134.05 19.96 134.4 20.67 134.75 19.96 135.1 19.01 135.45 20.2 135.8 22.8 136.15 23.99 136.5 22.09 136.85 23.28 137.2 20.67 137.55 20.67 137.89 19.25 138.24 19.72 138.59 19.72 138.94 19.96 139.29 17.59 139.64 14.74 139.99 14.51 140.34 14.27 140.69 14.27 141.04 13.56 141.39 13.8 141.73 13.8 142.08 13.56 142.43 13.09 142.78 12.85 143.13 12.85 143.48 12.61"/>
      </g>
      <g stroke-width="0.3" fill="#000000" fill-opacity="0.000" class="geometry" stroke-dasharray="none" stroke="#66C2A5" id="img-3ca8fe4a-11">
        <path fill="none" d="M21.98,71.86 L 22.33 71.86 22.68 77.31 23.03 80.63 23.38 76.6 23.73 76.84 24.08 80.16 24.42 78.26 24.77 73.52 25.12 74.94 25.47 76.84 25.82 73.76 26.17 73.76 26.52 74.23 26.87 73.29 27.22 75.42 27.57 74.71 27.92 78.5 28.27 86.08 28.61 83.24 28.96 83.71 29.31 91.3 29.66 92.72 30.01 98.17 30.36 101.25 30.71 99.83 31.06 99.59 31.41 100.54 31.76 104.57 32.11 101.96 32.45 101.96 32.8 107.89 33.15 107.89 33.5 111.92 33.85 114.05 34.2 110.73 34.55 111.68 34.9 115.95 35.25 114.29 35.6 117.13 35.95 116.89 36.3 118.55 36.64 119.5 36.99 119.26 37.34 118.55 37.69 119.5 38.04 120.69 38.39 120.69 38.74 119.74 39.09 120.69 39.44 120.45 39.79 122.11 40.14 121.87 40.49 123.06 40.83 122.82 41.18 122.82 41.53 124 41.88 125.66 42.23 125.19 42.58 125.43 42.93 123.77 43.28 124.72 43.63 123.77 43.98 122.82 44.33 123.77 44.67 125.43 45.02 125.9 45.37 126.37 45.72 125.43 46.07 125.19 46.42 121.87 46.77 121.16 47.12 121.63 47.47 121.87 47.82 120.45 48.17 118.79 48.52 119.74 48.86 119.03 49.21 120.92 49.56 120.21 49.91 121.4 50.26 119.03 50.61 118.55 50.96 116.89 51.31 115.95 51.66 115 52.01 115 52.36 115.95 52.7 115 53.05 114.76 53.4 113.58 53.75 116.18 54.1 113.34 54.45 116.18 54.8 116.18 55.15 114.76 55.5 114.76 55.85 113.58 56.2 112.87 56.55 114.29 56.89 114.52 57.24 111.92 57.59 111.92 57.94 113.1 58.29 112.39 58.64 116.66 58.99 119.03 59.34 123.53 59.69 123.53 60.04 121.63 60.39 121.16 60.73 120.69 61.08 119.98 61.43 118.32 61.78 120.69 62.13 119.26 62.48 119.74 62.83 119.98 63.18 122.35 63.53 122.82 63.88 124.48 64.23 125.43 64.58 123.29 64.92 123.53 65.27 122.35 65.62 122.35 65.97 120.69 66.32 122.11 66.67 119.5 67.02 120.92 67.37 122.82 67.72 123.06 68.07 122.82 68.42 124 68.77 124.24 69.11 126.61 69.46 125.9 69.81 129.22 70.16 129.93 70.51 130.17 70.86 129.69 71.21 128.51 71.56 128.51 71.91 128.27 72.26 127.8 72.61 128.74 72.95 129.22 73.3 128.98 73.65 128.51 74 128.03 74.35 128.03 74.7 128.74 75.05 127.8 75.4 126.85 75.75 125.9 76.1 125.66 76.45 125.43 76.8 124.95 77.14 122.11 77.49 123.77 77.84 124.95 78.19 126.85 78.54 126.37 78.89 126.85 79.24 127.09 79.59 126.37 79.94 124.72 80.29 125.19 80.64 124.48 80.98 126.61 81.33 126.14 81.68 127.56 82.03 127.8 82.38 128.03 82.73 128.51 83.08 128.03 83.43 127.56 83.78 128.27 84.13 128.74 84.48 128.51 84.83 127.8 85.17 128.51 85.52 128.03 85.87 128.27 86.22 127.8 86.57 127.32 86.92 127.56 87.27 126.61 87.62 125.19 87.97 126.61 88.32 127.09 88.67 125.66 89.02 124.72 89.36 125.66 89.71 125.9 90.06 125.19 90.41 125.9 90.76 124.95 91.11 126.14 91.46 125.43 91.81 124.24 92.16 122.35 92.51 121.16 92.86 121.16 93.2 118.08 93.55 119.5 93.9 119.98 94.25 121.87 94.6 122.35 94.95 124 95.3 125.19 95.65 125.43 96 126.37 96.35 127.09 96.7 127.09 97.05 125.9 97.39 124.95 97.74 123.53 98.09 123.77 98.44 124 98.79 124.24 99.14 126.61 99.49 128.51 99.84 129.22 100.19 129.93 100.54 128.98 100.89 127.56 101.23 128.03 101.58 128.03 101.93 128.51 102.28 128.51 102.63 127.09 102.98 128.51 103.33 128.27 103.68 128.74 104.03 128.51 104.38 128.74 104.73 128.98 105.08 128.27 105.42 128.27 105.77 128.74 106.12 128.03 106.47 127.56 106.82 128.03 107.17 128.03 107.52 127.09 107.87 124.72 108.22 123.77 108.57 123.06 108.92 123.53 109.26 120.69 109.61 123.06 109.96 122.58 110.31 122.58 110.66 122.11 111.01 121.87 111.36 124 111.71 124.24 112.06 124 112.41 124 112.76 122.82 113.11 123.06 113.45 125.43 113.8 126.37 114.15 124.95 114.5 125.43 114.85 124.95 115.2 123.53 115.55 123.53 115.9 123.06 116.25 123.77 116.6 124 116.95 124 117.3 124.48 117.64 126.14 117.99 126.61 118.34 127.09 118.69 126.37 119.04 124.95 119.39 125.9 119.74 125.66 120.09 125.9 120.44 125.19 120.79 124.95 121.14 127.09 121.48 128.03 121.83 127.32 122.18 126.61 122.53 126.37 122.88 127.56 123.23 127.56 123.58 128.27 123.93 129.46 124.28 128.98 124.63 129.69 124.98 130.17 125.33 130.17 125.67 130.64 126.02 130.4 126.37 129.69 126.72 130.17 127.07 129.93 127.42 130.17 127.77 129.46 128.12 129.93 128.47 129.69 128.82 129.93 129.17 129.46 129.51 128.74 129.86 129.22 130.21 128.98 130.56 127.56 130.91 127.32 131.26 128.98 131.61 129.22 131.96 128.74 132.31 128.74 132.66 128.74 133.01 129.46 133.36 128.74 133.7 127.32 134.05 128.27 134.4 127.8 134.75 127.8 135.1 126.14 135.45 127.56 135.8 127.09 136.15 125.43 136.5 124.72 136.85 125.19 137.2 125.19 137.55 125.66 137.89 126.61 138.24 125.66 138.59 125.9 138.94 126.14 139.29 126.37 139.64 126.14 139.99 125.43 140.34 125.66 140.69 125.66 141.04 123.53 141.39 121.16 141.73 123.06 142.08 119.74 142.43 117.84 142.78 118.32 143.13 119.03 143.48 118.08 143.83 116.66 144.18 115.24 144.53 116.18 144.88 118.55 145.23 119.26 145.58 120.21 145.92 118.55 146.27 117.84 146.62 117.84 146.97 118.08 147.32 115.95 147.67 115.71 148.02 115.95 148.37 115 148.72 114.29 149.07 112.39 149.42 113.34 149.76 113.34 150.11 113.1 150.46 113.81 150.81 115.95 151.16 116.42 151.51 117.37 151.86 116.89 152.21 116.42 152.56 114.52 152.91 109.55 153.26 107.41 153.61 104.81 153.95 104.81 154.3 103.62 154.65 109.07 155 110.5 155.35 111.68 155.7 111.92 156.05 113.81 156.4 112.39 156.75 111.21 157.1 111.68 157.45 108.84 157.79 103.62 158.14 107.41 158.49 107.41 158.84 107.18 159.19 108.84 159.54 109.31 159.89 105.52 160.24 108.13 160.59 107.65 160.94 109.07 161.29 105.52 161.64 107.89 161.98 108.84 162.33 110.73 162.68 113.81 163.03 114.76 163.38 116.18 163.73 115.47 164.08 113.34 164.43 113.34 164.78 109.55 165.13 110.97 165.48 114.29 165.83 115.95 166.17 116.89 166.52 115.47 166.87 116.18 167.22 116.89 167.57 117.13 167.92 118.79 168.27 117.61 168.62 119.5 168.97 120.69 169.32 119.74 169.67 119.03 170.01 120.45 170.36 118.08 170.71 118.55 171.06 115.24 171.41 112.63 171.76 113.34 172.11 114.52 172.46 112.63 172.81 109.55 173.16 108.36 173.51 107.65 173.86 104.33 174.2 101.02 174.55 96.51 174.9 96.04 175.25 92.96 175.6 93.43 175.95 94.62 176.3 93.43 176.65 91.06 177 91.3 177.35 93.19 177.7 94.62 178.04 94.14 178.39 93.9 178.74 92.25 179.09 94.62 179.44 97.7 179.79 96.51 180.14 97.93 180.49 102.91 180.84 103.86 181.19 104.33 181.54 104.81 181.89 102.2 182.23 104.33 182.58 98.65 182.93 103.86 183.28 104.81 183.63 105.99 183.98 105.28 184.33 101.96 184.68 100.78 185.03 102.44 185.38 98.65 185.73 98.41 186.08 104.33 186.42 108.36 186.77 111.21 187.12 108.84 187.47 108.13 187.82 108.36 188.17 111.21 188.52 111.21 188.87 109.31 189.22 108.36 189.57 108.13 189.92 108.36 190.26 112.15 190.61 114.76 190.96 111.92 191.31 113.1 191.66 113.1 192.01 113.1 192.36 109.07 192.71 108.36 193.06 111.92 193.41 111.21 193.76 110.26 194.11 110.97 194.45 111.68 194.8 111.68 195.15 115 195.5 118.32 195.85 115.71 196.2 114.76"/>
      </g>
      <g stroke-width="0.3" fill="#000000" fill-opacity="0.000" class="geometry" stroke-dasharray="none" stroke="#ABDDA4" id="img-3ca8fe4a-12">
        <path fill="none" d="M21.98,71.86 L 22.33 71.39 22.68 69.97 23.03 68.78 23.38 70.2 23.73 68.78 24.08 67.6 24.42 66.65 24.77 68.07 25.12 69.26 25.47 68.07 25.82 63.81 26.17 64.28 26.52 61.44 26.87 56.22 27.22 59.54 27.57 60.01 27.92 60.72 28.27 62.86 28.61 63.81 28.96 60.25 29.31 59.3 29.66 60.25 30.01 58.83 30.36 57.17 30.71 54.56 31.06 54.8 31.41 57.17 31.76 61.67 32.11 61.44 32.45 61.2 32.8 61.2 33.15 60.96 33.5 63.09 33.85 56.69 34.2 55.75 34.55 60.49 34.9 55.98 35.25 58.83 35.6 60.72 35.95 59.3 36.3 62.38 36.64 64.52 36.99 68.55 37.34 68.78 37.69 69.97 38.04 67.83 38.39 67.12 38.74 64.99 39.09 63.33 39.44 63.33 39.79 59.06 40.14 58.12 40.49 56.93 40.83 59.3 41.18 64.04 41.53 66.41 41.88 64.04 42.23 64.99 42.58 59.54 42.93 61.2 43.28 66.18 43.63 65.46 43.98 64.28 44.33 63.09 44.67 60.25 45.02 62.38 45.37 64.28 45.72 64.52 46.07 65.7 46.42 60.96 46.77 62.15 47.12 63.09 47.47 57.64 47.82 55.75 48.17 51.01 48.52 52.19 48.86 51.95 49.21 51.72 49.56 49.82 49.91 46.74 50.26 47.45 50.61 48.87 50.96 52.43 51.31 50.77 51.66 49.11 52.01 50.53 52.36 50.53 52.7 54.32 53.05 52.19 53.4 54.09 53.75 51.95 54.1 51.72 54.45 54.09 54.8 53.61 55.15 54.56 55.5 57.41 55.85 56.46 56.2 55.75 56.55 56.46 56.89 59.06 57.24 58.35 57.59 55.51 57.94 53.61 58.29 48.64 58.64 48.64 58.99 53.61 59.34 57.88 59.69 57.64 60.04 55.75 60.39 54.32 60.73 53.38 61.08 56.22 61.43 56.69 61.78 58.83 62.13 57.88 62.48 56.93 62.83 58.35 63.18 55.98 63.53 57.17 63.88 53.61 64.23 58.83 64.58 60.49 64.92 61.44 65.27 66.41 65.62 67.12 65.97 65.94 66.32 63.09 66.67 64.75 67.02 65.23 67.37 66.18 67.72 66.41 68.07 65.7 68.42 65.46 68.77 61.44 69.11 53.14 69.46 51.48 69.81 46.5 70.16 50.3 70.51 51.48 70.86 53.85 71.21 54.56 71.56 54.56 71.91 52.9 72.26 54.32 72.61 57.41 72.95 57.64 73.3 58.12 73.65 58.59 74 60.96 74.35 59.06 74.7 60.25 75.05 59.78 75.4 60.96 75.75 65.23 76.1 67.12 76.45 64.75 76.8 67.36 77.14 66.89 77.49 63.57 77.84 61.91 78.19 60.25 78.54 69.02 78.89 67.6 79.24 66.41 79.59 69.26 79.94 65.94 80.29 64.28 80.64 61.44 80.98 60.25 81.33 60.96 81.68 64.75 82.03 62.38 82.38 68.07 82.73 70.92 83.08 69.02 83.43 71.86 83.78 73.76 84.13 75.89 84.48 75.18 84.83 75.18 85.17 77.31 85.52 70.2 85.87 72.57 86.22 68.78 86.57 69.97 86.92 71.86 87.27 70.92 87.62 74.23 87.97 76.6 88.32 74.71 88.67 74.94 89.02 77.31 89.36 76.6 89.71 74.71 90.06 73.29 90.41 76.37 90.76 76.37 91.11 77.08 91.46 78.5 91.81 76.13 92.16 75.89 92.51 78.5 92.86 78.03 93.2 74.94 93.55 78.26 93.9 78.74 94.25 75.18 94.6 73.05 94.95 70.92 95.3 72.81 95.65 72.57 96 72.34 96.35 64.04 96.7 68.31 97.05 69.97 97.39 64.28 97.74 64.52 98.09 59.78 98.44 53.61 98.79 52.67 99.14 48.87 99.49 50.77 99.84 53.38 100.19 55.98 100.54 58.59 100.89 52.9 101.23 56.69 101.58 54.8 101.93 60.96 102.28 60.72 102.63 63.09 102.98 61.44 103.33 61.2 103.68 63.57 104.03 62.62 104.38 62.86 104.73 65.23 105.08 65.7 105.42 63.81 105.77 64.04 106.12 63.57 106.47 61.2 106.82 64.28 107.17 62.15 107.52 64.75 107.87 61.91 108.22 60.96 108.57 61.2 108.92 59.78 109.26 58.59 109.61 58.35 109.96 58.35 110.31 58.12 110.66 58.35 111.01 56.69 111.36 55.98 111.71 54.56 112.06 53.61 112.41 53.14 112.76 56.22 113.11 63.09 113.45 58.83 113.8 64.04 114.15 64.04 114.5 64.04 114.85 68.55 115.2 69.49 115.55 65.7 115.9 65.23 116.25 63.09 116.6 64.75 116.95 61.67 117.3 66.89 117.64 67.36 117.99 66.65 118.34 64.04 118.69 62.38 119.04 64.04 119.39 65.23 119.74 66.18 120.09 64.99 120.44 65.23 120.79 68.07 121.14 65.46 121.48 68.55 121.83 67.6 122.18 71.63 122.53 70.92 122.88 72.1 123.23 73.05 123.58 70.44 123.93 79.68 124.28 73.76 124.63 74.71 124.98 75.66 125.33 76.6 125.67 74.47 126.02 76.84 126.37 78.97 126.72 79.68 127.07 79.45 127.42 84.66 127.77 87.74 128.12 93.19 128.47 95.09 128.82 95.8 129.17 96.04 129.51 95.56 129.86 90.11 130.21 88.69 130.56 91.06 130.91 94.38 131.26 95.56 131.61 96.75 131.96 92.01 132.31 93.9 132.66 93.43 133.01 96.04 133.36 95.09 133.7 96.04 134.05 92.48 134.4 91.06 134.75 91.06 135.1 91.53 135.45 89.4 135.8 91.53 136.15 88.69 136.5 90.59 136.85 93.9 137.2 92.96 137.55 91.3 137.89 92.25 138.24 94.14 138.59 96.28 138.94 96.99 139.29 95.09 139.64 96.51 139.99 95.8 140.34 91.3 140.69 90.35 141.04 91.77 141.39 91.77 141.73 90.11 142.08 89.64 142.43 92.25 142.78 93.19 143.13 94.14 143.48 94.38 143.83 88.45 144.18 87.03 144.53 85.85 144.88 83.48 145.23 80.4 145.58 79.68 145.92 78.5 146.27 75.89 146.62 73.29 146.97 71.86 147.32 71.39 147.67 75.42 148.02 78.74 148.37 75.18 148.72 81.82 149.07 82.05 149.42 79.21 149.76 75.89 150.11 80.87 150.46 82.77 150.81 80.63 151.16 80.87 151.51 78.5 151.86 76.6 152.21 77.08 152.56 77.55 152.91 78.97 153.26 78.26 153.61 82.53 153.95 81.58 154.3 74.71 154.65 78.26 155 74 155.35 74.71 155.7 76.13 156.05 74.23 156.4 69.97 156.75 67.83 157.1 68.31 157.45 67.36 157.79 66.41 158.14 72.1 158.49 72.34 158.84 71.63 159.19 73.52 159.54 72.1 159.89 69.49 160.24 68.55 160.59 70.2 160.94 68.78 161.29 68.55 161.64 70.2 161.98 69.73 162.33 75.66 162.68 71.39 163.03 71.86 163.38 76.37 163.73 74.47 164.08 76.37 164.43 80.87 164.78 79.68 165.13 80.63 165.48 74.94 165.83 75.89 166.17 74.94 166.52 76.37 166.87 77.79 167.22 75.66 167.57 76.6 167.92 72.81 168.27 68.31 168.62 64.52 168.97 62.62 169.32 65.23 169.67 63.57 170.01 60.96 170.36 61.44 170.71 61.2 171.06 55.98 171.41 50.3 171.76 50.53 172.11 53.38 172.46 55.98 172.81 56.46 173.16 56.69 173.51 56.69 173.86 59.06 174.2 60.49 174.55 61.44 174.9 58.59 175.25 60.72 175.6 58.83 175.95 57.88 176.3 57.88 176.65 55.75 177 50.77 177.35 45.32 177.7 43.19 178.04 46.74 178.39 42.47 178.74 44.84 179.09 43.42 179.44 42.24 179.79 42.24 180.14 47.69 180.49 50.53 180.84 51.48 181.19 54.32 181.54 55.27 181.89 55.04 182.23 55.75 182.58 55.27 182.93 55.27 183.28 56.69 183.63 56.46 183.98 54.32 184.33 55.51 184.68 59.06 185.03 55.98 185.38 52.19 185.73 48.64 186.08 50.3 186.42 50.77 186.77 43.66 187.12 46.74 187.47 49.58 187.82 53.38 188.17 54.09 188.52 51.24 188.87 53.61 189.22 55.51 189.57 53.14 189.92 53.38 190.26 53.85 190.61 49.11 190.96 49.58 191.31 52.19 191.66 55.04 192.01 56.22 192.36 55.51 192.71 51.95 193.06 52.19 193.41 54.8 193.76 53.61 194.11 51.01 194.45 50.06 194.8 47.93 195.15 50.53 195.5 51.01 195.85 50.77 196.2 48.87"/>
      </g>
      <g stroke-width="0.3" fill="#000000" fill-opacity="0.000" class="geometry" stroke-dasharray="none" stroke="#E6F598" id="img-3ca8fe4a-13">
        <path fill="none" d="M21.98,71.86 L 22.33 72.81 22.68 73.05 23.03 73.05 23.38 72.34 23.73 75.89 24.08 77.31 24.42 75.42 24.77 75.66 25.12 74.94 25.47 73.29 25.82 77.55 26.17 79.92 26.52 84.66 26.87 85.85 27.22 90.82 27.57 88.93 27.92 86.08 28.27 85.37 28.61 84.19 28.96 87.74 29.31 90.82 29.66 88.93 30.01 87.98 30.36 86.08 30.71 88.69 31.06 92.96 31.41 92.96 31.76 90.35 32.11 89.16 32.45 89.64 32.8 92.48 33.15 90.59 33.5 89.64 33.85 93.19 34.2 93.43 34.55 94.62 34.9 95.56 35.25 96.99 35.6 97.46 35.95 97.46 36.3 96.28 36.64 94.38 36.99 98.41 37.34 96.75 37.69 98.88 38.04 100.3 38.39 100.54 38.74 100.07 39.09 98.88 39.44 95.8 39.79 94.14 40.14 97.46 40.49 101.02 40.83 103.86 41.18 105.28 41.53 107.18 41.88 106.94 42.23 107.41 42.58 111.92 42.93 112.15 43.28 110.5 43.63 110.97 43.98 111.92 44.33 114.76 44.67 115 45.02 118.32 45.37 118.08 45.72 115.24 46.07 111.92 46.42 113.1 46.77 114.05 47.12 114.76 47.47 112.87 47.82 113.81 48.17 111.44 48.52 109.78 48.86 109.55 49.21 108.13 49.56 109.78 49.91 106.94 50.26 106.7 50.61 106.47 50.96 107.41 51.31 105.76 51.66 105.04 52.01 105.28 52.36 103.86 52.7 103.39 53.05 100.3 53.4 98.41 53.75 97.93 54.1 94.62 54.45 94.14 54.8 95.09 55.15 93.43 55.5 94.14 55.85 93.19 56.2 90.82 56.55 89.64 56.89 94.14 57.24 95.09 57.59 98.17 57.94 98.41 58.29 99.83 58.64 101.02 58.99 102.91 59.34 107.41 59.69 109.31 60.04 112.39 60.39 114.05 60.73 115.47 61.08 117.61 61.43 114.76 61.78 114.05 62.13 115.47 62.48 118.08 62.83 117.13 63.18 116.89 63.53 116.66 63.88 116.42 64.23 116.66 64.58 119.26 64.92 118.79 65.27 117.37 65.62 113.34 65.97 113.81 66.32 113.81 66.67 110.02 67.02 110.02 67.37 106.23 67.72 105.04 68.07 103.15 68.42 101.96 68.77 99.12 69.11 99.59 69.46 98.65 69.81 96.75 70.16 97.7 70.51 96.28 70.86 99.12 71.21 101.02 71.56 101.02 71.91 96.99 72.26 96.04 72.61 97.22 72.95 98.65 73.3 97.93 73.65 98.65 74 101.96 74.35 98.65 74.7 95.8 75.05 93.67 75.4 92.96 75.75 93.19 76.1 94.14 76.45 94.14 76.8 95.56 77.14 93.9 77.49 90.35 77.84 90.11 78.19 89.16 78.54 89.64 78.89 86.08 79.24 87.27 79.59 89.88 79.94 90.11 80.29 91.77 80.64 92.96 80.98 92.01 81.33 91.3 81.68 91.06 82.03 95.33 82.38 91.77 82.73 94.14 83.08 95.33 83.43 97.7 83.78 100.78 84.13 97.46 84.48 95.09 84.83 96.04 85.17 93.67 85.52 95.33 85.87 97.46 86.22 96.75 86.57 101.49 86.92 100.54 87.27 99.59 87.62 101.49 87.97 104.1 88.32 106.7 88.67 109.31 89.02 111.44 89.36 110.5 89.71 111.21 90.06 111.68 90.41 115.95 90.76 117.61 91.11 115.47 91.46 113.1 91.81 112.63 92.16 114.05 92.51 112.39 92.86 113.81 93.2 117.37 93.55 114.76 93.9 116.18 94.25 117.13 94.6 117.13 94.95 117.61 95.3 118.08 95.65 117.84 96 115.95 96.35 116.18 96.7 115 97.05 116.18 97.39 117.13 97.74 119.03 98.09 118.08 98.44 116.42 98.79 117.37 99.14 117.37 99.49 119.98 99.84 119.03 100.19 118.08 100.54 121.4 100.89 121.63 101.23 120.45 101.58 120.21 101.93 121.4 102.28 119.74 102.63 117.61 102.98 118.55 103.33 119.26 103.68 116.18 104.03 117.37 104.38 115.71 104.73 118.32 105.08 117.84 105.42 117.37 105.77 120.92 106.12 118.79 106.47 119.98 106.82 118.55 107.17 119.03 107.52 119.26 107.87 118.32 108.22 119.74 108.57 120.21 108.92 119.74 109.26 119.5 109.61 119.5 109.96 118.55 110.31 117.84 110.66 115.47 111.01 119.26 111.36 118.32 111.71 117.37 112.06 118.08 112.41 118.32 112.76 118.08 113.11 115.95 113.45 116.18 113.8 114.05 114.15 115.71 114.5 115.24 114.85 114.29 115.2 116.89 115.55 115.71 115.9 114.05 116.25 115.24 116.6 116.18 116.95 114.29 117.3 112.87 117.64 112.39 117.99 113.1 118.34 109.55 118.69 110.97 119.04 111.44 119.39 111.44 119.74 117.13 120.09 117.61 120.44 115.71 120.79 112.39 121.14 115.47 121.48 114.29 121.83 114.76 122.18 112.15 122.53 113.58 122.88 114.29 123.23 112.39 123.58 114.29 123.93 115.47 124.28 116.89 124.63 117.37 124.98 120.45 125.33 122.58 125.67 120.21 126.02 120.45 126.37 118.32 126.72 120.45 127.07 120.45 127.42 119.03 127.77 117.13 128.12 119.98 128.47 118.08 128.82 120.45 129.17 119.98 129.51 124 129.86 126.14 130.21 126.37 130.56 124.72 130.91 124.72 131.26 122.82 131.61 121.4 131.96 122.58 132.31 123.53 132.66 124 133.01 124.72 133.36 123.77 133.7 122.11 134.05 121.63 134.4 118.32 134.75 118.79 135.1 118.08 135.45 117.61 135.8 117.61 136.15 114.52 136.5 116.42 136.85 115.24 137.2 116.42 137.55 113.81 137.89 112.63 138.24 113.81 138.59 115 138.94 114.29 139.29 114.05 139.64 115.24 139.99 112.15 140.34 110.97 140.69 109.07 141.04 110.5 141.39 112.39 141.73 113.58 142.08 112.39 142.43 113.81 142.78 114.05 143.13 115 143.48 114.52 143.83 116.42 144.18 114.52 144.53 117.13 144.88 116.66 145.23 117.13 145.58 115 145.92 114.05 146.27 111.44 146.62 112.87 146.97 113.1 147.32 110.73 147.67 113.34 148.02 114.76 148.37 115.71 148.72 115.95 149.07 117.37 149.42 115.95 149.76 117.37 150.11 117.61 150.46 114.76 150.81 114.76 151.16 116.18 151.51 115.47 151.86 111.68 152.21 111.68 152.56 109.07 152.91 106.7 153.26 105.52 153.61 105.52 153.95 104.33 154.3 107.41 154.65 107.41 155 110.02 155.35 106.7 155.7 105.76 156.05 108.13 156.4 110.97 156.75 111.44 157.1 110.5 157.45 110.02 157.79 108.36 158.14 112.15 158.49 112.39 158.84 108.84 159.19 106.47 159.54 109.07 159.89 107.18 160.24 108.36 160.59 108.36 160.94 107.65 161.29 108.13 161.64 107.41 161.98 104.1 162.33 101.02 162.68 107.89 163.03 106.7 163.38 105.76 163.73 105.04 164.08 101.96 164.43 101.25 164.78 101.96 165.13 101.25 165.48 99.59 165.83 100.54 166.17 99.83 166.52 98.41 166.87 97.22 167.22 97.7 167.57 98.41 167.92 94.14 168.27 95.09 168.62 96.99 168.97 96.04 169.32 95.56 169.67 93.43 170.01 92.25 170.36 91.3 170.71 91.77 171.06 93.43 171.41 94.62 171.76 96.04 172.11 95.09 172.46 92.01 172.81 88.69 173.16 89.4 173.51 90.59 173.86 91.77 174.2 90.35 174.55 88.93 174.9 90.82 175.25 92.01 175.6 89.64 175.95 90.35 176.3 92.72 176.65 86.32 177 87.27 177.35 84.9 177.7 84.42 178.04 87.51 178.39 88.22 178.74 87.51 179.09 88.69 179.44 84.66 179.79 84.42 180.14 85.37 180.49 86.56 180.84 85.61 181.19 84.42 181.54 88.45 181.89 88.69 182.23 89.88 182.58 92.96 182.93 92.01 183.28 92.25 183.63 91.77 183.98 92.01 184.33 91.06 184.68 88.69 185.03 88.93 185.38 89.88 185.73 88.93 186.08 93.9 186.42 96.28 186.77 90.35 187.12 88.22 187.47 87.74 187.82 90.11 188.17 90.82 188.52 88.93 188.87 90.11 189.22 91.53 189.57 92.01 189.92 96.51 190.26 102.67 190.61 107.18 190.96 108.84 191.31 107.18 191.66 107.65 192.01 106.7 192.36 103.62 192.71 103.62 193.06 102.67 193.41 100.07 193.76 101.73 194.11 104.33 194.45 103.86 194.8 101.25 195.15 95.8 195.5 97.22 195.85 95.8 196.2 97.7"/>
      </g>
      <g stroke-width="0.3" fill="#000000" fill-opacity="0.000" class="geometry" stroke-dasharray="none" stroke="#FFFFBF" id="img-3ca8fe4a-14">
        <path fill="none" d="M21.98,71.86 L 22.33 69.49 22.68 71.15 23.03 68.31 23.38 70.44 23.73 66.18 24.08 64.75 24.42 64.99 24.77 64.52 25.12 63.57 25.47 61.44 25.82 60.96 26.17 60.49 26.52 65.23 26.87 63.33 27.22 65.94 27.57 63.57 27.92 64.75 28.27 66.41 28.61 72.1 28.96 70.68 29.31 73.52 29.66 73.29 30.01 73.29 30.36 73.76 30.71 73.29 31.06 72.34 31.41 67.6 31.76 66.41 32.11 69.73 32.45 72.1 32.8 71.86 33.15 71.63 33.5 67.12 33.85 61.2 34.2 60.96 34.55 56.46 34.9 55.51 35.25 55.04 35.6 56.22 35.95 53.61 36.3 52.67 36.64 57.88 36.99 60.49 37.34 59.54 37.69 59.3 38.04 58.35 38.39 58.35 38.74 63.33 39.09 63.33 39.44 64.04 39.79 65.23 40.14 64.52 40.49 60.72 40.83 56.69 41.18 58.83 41.53 61.91 41.88 60.96 42.23 61.2 42.58 61.2 42.93 57.64 43.28 56.69 43.63 54.8 43.98 59.78 44.33 60.96 44.67 65.46 45.02 65.46 45.37 60.25 45.72 60.49 46.07 59.78 46.42 60.01 46.77 54.32 47.12 57.17 47.47 59.06 47.82 55.04 48.17 56.22 48.52 56.22 48.86 59.3 49.21 55.98 49.56 53.14 49.91 52.67 50.26 53.61 50.61 51.24 50.96 52.67 51.31 53.85 51.66 55.51 52.01 53.61 52.36 51.72 52.7 55.04 53.05 52.9 53.4 51.95 53.75 47.69 54.1 49.82 54.45 48.87 54.8 52.67 55.15 52.19 55.5 59.54 55.85 63.81 56.2 62.62 56.55 65.23 56.89 63.81 57.24 60.72 57.59 61.91 57.94 62.86 58.29 63.09 58.64 58.12 58.99 54.8 59.34 50.06 59.69 55.04 60.04 53.85 60.39 48.64 60.73 51.72 61.08 49.11 61.43 50.53 61.78 52.9 62.13 54.8 62.48 55.98 62.83 60.25 63.18 58.59 63.53 56.22 63.88 57.17 64.23 56.46 64.58 55.27 64.92 51.95 65.27 57.17 65.62 56.93 65.97 58.12 66.32 59.78 66.67 56.22 67.02 56.69 67.37 60.25 67.72 61.91 68.07 62.86 68.42 66.89 68.77 66.65 69.11 66.18 69.46 69.26 69.81 70.68 70.16 74 70.51 76.37 70.86 79.21 71.21 83.71 71.56 81.58 71.91 81.34 72.26 79.68 72.61 77.55 72.95 79.21 73.3 79.45 73.65 79.45 74 74.23 74.35 74 74.7 74 75.05 76.13 75.4 74.94 75.75 75.89 76.1 79.45 76.45 79.92 76.8 80.4 77.14 77.79 77.49 78.03 77.84 74.71 78.19 75.66 78.54 72.1 78.89 72.57 79.24 72.57 79.59 66.41 79.94 67.12 80.29 66.41 80.64 66.18 80.98 67.36 81.33 66.18 81.68 65.94 82.03 65.94 82.38 70.92 82.73 72.1 83.08 73.76 83.43 78.26 83.78 81.34 84.13 80.63 84.48 78.26 84.83 76.6 85.17 76.6 85.52 74.47 85.87 74.23 86.22 71.63 86.57 72.57 86.92 73.05 87.27 71.39 87.62 75.18 87.97 73.05 88.32 74.47 88.67 72.34 89.02 74.71 89.36 75.42 89.71 78.03 90.06 75.42 90.41 76.6 90.76 74.94 91.11 69.49 91.46 71.39 91.81 73.76 92.16 74.71 92.51 74.47 92.86 75.42 93.2 75.66 93.55 75.66 93.9 75.66 94.25 71.15 94.6 71.39 94.95 71.86 95.3 75.42 95.65 74.71 96 73.76 96.35 78.74 96.7 78.5 97.05 78.03 97.39 77.31 97.74 75.18 98.09 74 98.44 77.08 98.79 78.26 99.14 77.31 99.49 78.03 99.84 78.74 100.19 78.5 100.54 76.37 100.89 73.29 101.23 74.71 101.58 75.89 101.93 76.84 102.28 75.66 102.63 75.89 102.98 78.26 103.33 78.26 103.68 78.26 104.03 79.68 104.38 76.13 104.73 76.84 105.08 72.57 105.42 68.31 105.77 68.78 106.12 65.94 106.47 69.97 106.82 67.83 107.17 64.52 107.52 65.46 107.87 66.18 108.22 68.78 108.57 67.12 108.92 71.15 109.26 73.05 109.61 72.57 109.96 76.6 110.31 77.79 110.66 76.84 111.01 80.63 111.36 82.77 111.71 82.05 112.06 83.71 112.41 86.79 112.76 85.61 113.11 89.16 113.45 91.06 113.8 91.3 114.15 90.11 114.5 92.25 114.85 92.01 115.2 96.04 115.55 96.99 115.9 95.33 116.25 96.04 116.6 95.33 116.95 97.22 117.3 99.59 117.64 100.07 117.99 102.91 118.34 104.81 118.69 105.04 119.04 105.99 119.39 103.62 119.74 104.57 120.09 107.65 120.44 106.47 120.79 107.41 121.14 105.76 121.48 105.04 121.83 102.91 122.18 102.91 122.53 101.25 122.88 102.2 123.23 103.15 123.58 102.44 123.93 104.1 124.28 101.73 124.63 101.25 124.98 99.12 125.33 103.86 125.67 106.47 126.02 106.47 126.37 108.13 126.72 104.57 127.07 105.99 127.42 109.31 127.77 110.26 128.12 109.07 128.47 110.73 128.82 112.15 129.17 112.39 129.51 111.44 129.86 112.39 130.21 109.78 130.56 110.02 130.91 111.92 131.26 110.97 131.61 110.26 131.96 111.92 132.31 111.21 132.66 113.58 133.01 112.63 133.36 112.39 133.7 115.47 134.05 114.05 134.4 117.13 134.75 119.26 135.1 120.45 135.45 120.69 135.8 121.16 136.15 120.69 136.5 122.11 136.85 122.58 137.2 124.72 137.55 125.43 137.89 124 138.24 124.95 138.59 124.72 138.94 125.43 139.29 124.48 139.64 123.77 139.99 123.06 140.34 123.53 140.69 123.77 141.04 124.95 141.39 125.43 141.73 125.66 142.08 126.14 142.43 126.14 142.78 125.66 143.13 126.14 143.48 127.09 143.83 128.03 144.18 128.27 144.53 128.74 144.88 128.51 145.23 128.03 145.58 127.8 145.92 127.32 146.27 127.09 146.62 125.66 146.97 124 147.32 122.58 147.67 122.35 148.02 121.16 148.37 121.4 148.72 122.58 149.07 125.43 149.42 127.09 149.76 125.43 150.11 125.43 150.46 124.24 150.81 123.29 151.16 124.24 151.51 124.24 151.86 124.72 152.21 124.95 152.56 124.95 152.91 126.37 153.26 124.48 153.61 124 153.95 124 154.3 122.11 154.65 120.21 155 119.26 155.35 121.63 155.7 121.87 156.05 124.48 156.4 125.43 156.75 125.43 157.1 127.09 157.45 126.85 157.79 126.61 158.14 126.61 158.49 126.85 158.84 126.61 159.19 125.43 159.54 126.37 159.89 125.43 160.24 125.9 160.59 125.19 160.94 124.95 161.29 125.19 161.64 125.66 161.98 125.9 162.33 123.06 162.68 123.53 163.03 122.35 163.38 121.63 163.73 118.79 164.08 118.55 164.43 118.55 164.78 118.79 165.13 121.4 165.48 120.45 165.83 120.92 166.17 121.87 166.52 124 166.87 125.9 167.22 126.14 167.57 125.66 167.92 127.09 168.27 127.32 168.62 126.61 168.97 127.09 169.32 125.19 169.67 125.9 170.01 126.14 170.36 125.66 170.71 125.9 171.06 127.56 171.41 129.22 171.76 129.22 172.11 129.93 172.46 129.22 172.81 128.98 173.16 129.46 173.51 129.22 173.86 130.4 174.2 130.64 174.55 130.17 174.9 130.4 175.25 130.88 175.6 130.88 175.95 131.11"/>
      </g>
      <g stroke-width="0.3" fill="#000000" fill-opacity="0.000" class="geometry" stroke-dasharray="none" stroke="#FEE08B" id="img-3ca8fe4a-15">
        <path fill="none" d="M21.98,71.86 L 22.33 74.23 22.68 72.81 23.03 76.13 23.38 79.68 23.73 78.74 24.08 83 24.42 85.14 24.77 85.61 25.12 85.37 25.47 86.32 25.82 83 26.17 79.68 26.52 86.56 26.87 90.35 27.22 83.95 27.57 80.87 27.92 81.11 28.27 81.58 28.61 80.63 28.96 87.74 29.31 89.64 29.66 88.69 30.01 86.79 30.36 85.14 30.71 86.32 31.06 90.35 31.41 86.08 31.76 85.37 32.11 86.08 32.45 89.88 32.8 91.77 33.15 89.88 33.5 93.43 33.85 92.48 34.2 92.25 34.55 89.88 34.9 92.72 35.25 93.9 35.6 95.56 35.95 97.7 36.3 100.78 36.64 102.44 36.99 103.86 37.34 101.96 37.69 104.33 38.04 103.62 38.39 107.18 38.74 108.13 39.09 106.94 39.44 102.2 39.79 106.7 40.14 105.76 40.49 105.76 40.83 104.57 41.18 104.33 41.53 102.91 41.88 99.83 42.23 101.73 42.58 97.93 42.93 101.73 43.28 103.62 43.63 101.96 43.98 103.62 44.33 104.1 44.67 104.57 45.02 108.84 45.37 111.21 45.72 114.76 46.07 116.89 46.42 116.18 46.77 119.03 47.12 121.4 47.47 123.29 47.82 123.77 48.17 124 48.52 125.66 48.86 124.95 49.21 125.43 49.56 125.66 49.91 125.9 50.26 126.85 50.61 127.8 50.96 127.56 51.31 127.56 51.66 128.51 52.01 129.22 52.36 128.74 52.7 128.51 53.05 128.27 53.4 128.03 53.75 125.66 54.1 127.32 54.45 128.51 54.8 129.22 55.15 129.93 55.5 129.69 55.85 129.46 56.2 129.46 56.55 129.46 56.89 129.69 57.24 129.93 57.59 129.69 57.94 129.69 58.29 129.69 58.64 129.93 58.99 129.93 59.34 129.69 59.69 129.93 60.04 130.17 60.39 129.93 60.73 129.22 61.08 129.22 61.43 129.69 61.78 130.4 62.13 130.88 62.48 130.64 62.83 130.88 63.18 130.17 63.53 129.46 63.88 130.17 64.23 130.17 64.58 130.4 64.92 130.4 65.27 130.64 65.62 130.64 65.97 130.17 66.32 129.46 66.67 128.98 67.02 130.4 67.37 130.88 67.72 130.88 68.07 131.11"/>
      </g>
      <g stroke-width="0.3" fill="#000000" fill-opacity="0.000" class="geometry" stroke-dasharray="none" stroke="#FDAE61" id="img-3ca8fe4a-16">
        <path fill="none" d="M21.98,71.86 L 22.33 69.73 22.68 67.12 23.03 67.6 23.38 63.57 23.73 62.86 24.08 64.04 24.42 63.57 24.77 69.02 25.12 67.83 25.47 64.75 25.82 64.28 26.17 63.33 26.52 64.28 26.87 66.65 27.22 66.89 27.57 68.78 27.92 64.75 28.27 62.15 28.61 58.12 28.96 57.64 29.31 56.69 29.66 57.64 30.01 56.46 30.36 54.8 30.71 54.8 31.06 50.06 31.41 46.5 31.76 46.98 32.11 46.74 32.45 43.9 32.8 45.56 33.15 43.9 33.5 40.58 33.85 38.21 34.2 36.08 34.55 35.13 34.9 34.42 35.25 33.71 35.6 35.6 35.95 34.18 36.3 32.52 36.64 31.57 36.99 32.52 37.34 32.52 37.69 34.18 38.04 34.18 38.39 33.71 38.74 33.94 39.09 37.02 39.44 40.34 39.79 39.16 40.14 39.87 40.49 41.76 40.83 41.53 41.18 38.92 41.53 38.92 41.88 42.24 42.23 38.21 42.58 36.55 42.93 35.84 43.28 38.21 43.63 39.16 43.98 40.1 44.33 36.79 44.67 37.02 45.02 39.39 45.37 42.71 45.72 46.5 46.07 42.71 46.42 42.24 46.77 41.05 47.12 43.66 47.47 43.19 47.82 40.58 48.17 44.84 48.52 48.4 48.86 50.06 49.21 50.3 49.56 53.61 49.91 51.24 50.26 49.58 50.61 45.56 50.96 42.24 51.31 42.47 51.66 40.82 52.01 39.87 52.36 42.95 52.7 41.05 53.05 39.87 53.4 41.29 53.75 41.29 54.1 42.47 54.45 45.08 54.8 43.9 55.15 44.84 55.5 43.66 55.85 44.37 56.2 41.76 56.55 41.53 56.89 41.53 57.24 41.05 57.59 39.87 57.94 44.84 58.29 47.69 58.64 44.61 58.99 47.69 59.34 42.24 59.69 42.71 60.04 40.58 60.39 39.63 60.73 38.45 61.08 40.58 61.43 38.45 61.78 37.5 62.13 37.5 62.48 34.42 62.83 32.05 63.18 33.94 63.53 30.86 63.88 32.52 64.23 32.76 64.58 32.76 64.92 29.91 65.27 31.57 65.62 32.05 65.97 31.57 66.32 33.47 66.67 34.42 67.02 29.2 67.37 28.25 67.72 26.36 68.07 26.6 68.42 29.91 68.77 29.68 69.11 28.02 69.46 27.31 69.81 23.51 70.16 24.94 70.51 22.57 70.86 23.51 71.21 26.36 71.56 27.07 71.91 26.83 72.26 25.88 72.61 27.54 72.95 26.83 73.3 26.12 73.65 27.54 74 26.6 74.35 24.7 74.7 22.33 75.05 22.09 75.4 20.91 75.75 22.8 76.1 24.94 76.45 23.04 76.8 24.46 77.14 23.75 77.49 23.04 77.84 23.51 78.19 22.57 78.54 24.22 78.89 24.94 79.24 27.54 79.59 31.1 79.94 30.39 80.29 32.28 80.64 31.57 80.98 30.39 81.33 27.78 81.68 27.07 82.03 27.07 82.38 26.12 82.73 27.07 83.08 25.41 83.43 25.88 83.78 28.25 84.13 25.65 84.48 21.62 84.83 21.85 85.17 19.96 85.52 19.48 85.87 20.43 86.22 20.2 86.57 20.43 86.92 20.2 87.27 19.72 87.62 20.2 87.97 19.96 88.32 19.48 88.67 19.48 89.02 19.25 89.36 19.48 89.71 18.06 90.06 18.3 90.41 17.83 90.76 17.11 91.11 16.17 91.46 14.74 91.81 14.98 92.16 14.51 92.51 14.51 92.86 14.03 93.2 14.03 93.55 13.56 93.9 13.8 94.25 13.56 94.6 14.03 94.95 13.8 95.3 13.32 95.65 13.09 96 12.85 96.35 12.61"/>
      </g>
      <g stroke-width="0.3" fill="#000000" fill-opacity="0.000" class="geometry" stroke-dasharray="none" stroke="#F46D43" id="img-3ca8fe4a-17">
        <path fill="none" d="M21.98,71.86 L 22.33 73.29 22.68 69.02 23.03 66.41 23.38 68.07 23.73 67.83 24.08 71.63 24.42 70.68 24.77 68.31 25.12 64.99 25.47 64.99 25.82 65.46 26.17 64.52 26.52 64.99 26.87 67.36 27.22 69.49 27.57 70.92 27.92 69.97 28.27 69.49 28.61 66.89 28.96 70.68 29.31 68.55 29.66 65.7 30.01 69.49 30.36 69.49 30.71 67.83 31.06 68.78 31.41 67.83 31.76 67.83 32.11 70.68 32.45 68.55 32.8 64.99 33.15 67.83 33.5 71.15 33.85 69.26 34.2 66.41 34.55 67.36 34.9 73.29 35.25 77.55 35.6 75.66 35.95 76.37 36.3 81.82 36.64 82.29 36.99 83.24 37.34 84.66 37.69 81.11 38.04 80.4 38.39 79.45 38.74 77.08 39.09 75.18 39.44 78.26 39.79 83.48 40.14 83.95 40.49 86.56 40.83 89.64 41.18 89.16 41.53 86.32 41.88 88.45 42.23 87.98 42.58 87.74 42.93 92.01 43.28 93.9 43.63 94.14 43.98 91.06 44.33 92.01 44.67 94.38 45.02 92.48 45.37 91.77 45.72 88.45 46.07 90.82 46.42 91.53 46.77 87.03 47.12 89.64 47.47 89.64 47.82 89.64 48.17 82.77 48.52 81.82 48.86 85.14 49.21 83.71 49.56 83.95 49.91 84.19 50.26 84.42 50.61 79.92 50.96 78.74 51.31 78.03 51.66 81.58 52.01 84.19 52.36 88.69 52.7 88.45 53.05 85.85 53.4 87.74 53.75 88.22 54.1 85.14 54.45 85.37 54.8 81.11 55.15 79.21 55.5 82.05 55.85 83.95 56.2 84.66 56.55 81.58 56.89 83 57.24 81.82 57.59 86.08 57.94 91.06 58.29 93.9 58.64 94.38 58.99 94.85 59.34 97.22 59.69 97.93 60.04 97.7 60.39 99.12 60.73 99.36 61.08 98.17 61.43 96.99 61.78 97.22 62.13 97.46 62.48 95.8 62.83 97.46 63.18 96.51 63.53 97.93 63.88 100.07 64.23 98.41 64.58 99.36 64.92 96.99 65.27 97.7 65.62 96.51 65.97 97.22 66.32 96.28 66.67 98.88 67.02 102.91 67.37 99.36 67.72 98.17 68.07 99.83 68.42 103.39 68.77 102.91 69.11 104.33 69.46 103.86 69.81 108.6 70.16 110.02 70.51 110.73 70.86 111.44 71.21 108.84 71.56 109.78 71.91 106.94 72.26 109.31 72.61 110.97 72.95 110.73 73.3 113.58 73.65 113.81 74 114.29 74.35 112.87 74.7 112.63 75.05 110.02 75.4 113.81 75.75 115.24 76.1 114.05 76.45 114.29 76.8 117.13 77.14 118.55 77.49 117.84 77.84 116.42 78.19 114.05 78.54 113.1 78.89 114.52 79.24 112.39 79.59 113.34 79.94 115.47 80.29 115.47 80.64 113.34 80.98 112.87 81.33 114.76 81.68 115.47 82.03 116.89 82.38 117.84 82.73 117.84 83.08 119.74 83.43 119.74 83.78 120.69 84.13 119.03 84.48 115.95 84.83 117.84 85.17 117.84 85.52 119.74 85.87 122.58 86.22 123.53 86.57 124.24 86.92 124 87.27 123.06 87.62 122.82 87.97 124.95 88.32 124 88.67 122.58 89.02 120.45 89.36 120.92 89.71 120.69 90.06 121.4 90.41 119.74 90.76 118.32 91.11 117.61 91.46 117.37 91.81 118.32 92.16 118.32 92.51 120.69 92.86 120.92 93.2 120.69 93.55 118.08 93.9 115.47 94.25 114.29 94.6 113.1 94.95 110.5 95.3 111.44 95.65 110.26 96 112.63 96.35 112.63 96.7 113.34 97.05 113.81 97.39 116.89 97.74 118.55 98.09 119.74 98.44 120.69 98.79 120.45 99.14 122.11 99.49 120.92 99.84 120.92 100.19 121.4 100.54 121.87 100.89 122.35 101.23 122.82 101.58 120.92 101.93 123.29 102.28 126.37 102.63 127.8 102.98 128.27 103.33 128.51 103.68 127.32 104.03 128.03 104.38 128.51 104.73 129.22 105.08 129.46 105.42 129.69 105.77 129.69 106.12 130.17 106.47 129.46 106.82 129.22 107.17 130.17 107.52 130.17 107.87 130.17 108.22 130.17 108.57 129.93 108.92 129.22 109.26 128.74 109.61 128.74 109.96 129.46 110.31 128.98 110.66 129.22 111.01 129.22 111.36 128.98 111.71 129.22 112.06 129.22 112.41 129.69 112.76 129.46 113.11 129.22 113.45 129.22 113.8 129.22 114.15 130.4 114.5 130.88 114.85 130.4 115.2 130.17 115.55 130.64 115.9 130.64 116.25 130.4 116.6 130.17 116.95 129.46 117.3 128.98 117.64 129.22 117.99 129.46 118.34 129.22 118.69 129.69 119.04 129.93 119.39 130.64 119.74 129.69 120.09 130.88 120.44 130.17 120.79 129.46 121.14 128.51 121.48 128.27 121.83 128.03 122.18 128.27 122.53 126.61 122.88 125.19 123.23 123.06 123.58 125.9 123.93 126.37 124.28 126.61 124.63 126.85 124.98 128.03 125.33 128.51 125.67 129.22 126.02 129.69 126.37 129.46 126.72 129.93 127.07 129.69 127.42 128.74 127.77 128.27 128.12 127.56 128.47 126.61 128.82 127.09 129.17 128.98 129.51 128.74 129.86 127.56 130.21 127.56 130.56 126.61 130.91 126.61 131.26 126.14 131.61 126.14 131.96 125.19 132.31 125.43 132.66 125.66 133.01 124.72 133.36 125.19 133.7 123.53 134.05 123.53 134.4 123.06 134.75 122.82 135.1 123.77 135.45 124.24 135.8 127.56 136.15 127.32 136.5 126.85 136.85 125.43 137.2 125.43 137.55 125.66 137.89 125.9 138.24 125.9 138.59 127.56 138.94 128.03 139.29 127.32 139.64 126.61 139.99 126.37 140.34 125.19 140.69 124.72 141.04 124.72 141.39 123.06 141.73 123.77 142.08 126.14 142.43 125.66 142.78 125.66 143.13 124.24 143.48 126.14 143.83 124.24 144.18 124 144.53 124.72 144.88 123.29 145.23 122.82 145.58 122.58 145.92 122.82 146.27 124 146.62 124.72 146.97 123.29 147.32 121.63 147.67 121.16 148.02 123.06 148.37 122.58 148.72 124 149.07 124.24 149.42 125.19 149.76 125.43 150.11 125.19 150.46 123.06 150.81 122.35 151.16 124.72 151.51 124.24 151.86 124.48 152.21 125.9 152.56 124.72 152.91 125.19 153.26 124.95 153.61 124.24 153.95 123.77 154.3 124.95 154.65 125.43 155 126.37 155.35 127.56 155.7 128.03 156.05 127.56 156.4 126.85 156.75 127.56 157.1 128.27 157.45 128.03 157.79 126.61 158.14 125.66 158.49 126.14 158.84 126.14 159.19 125.43 159.54 124.95 159.89 124.95 160.24 125.19 160.59 125.43 160.94 125.66 161.29 125.66 161.64 125.66 161.98 125.19 162.33 123.53 162.68 123.06 163.03 123.77 163.38 122.82 163.73 124.24 164.08 124.24 164.43 124.72 164.78 124.48 165.13 124.48 165.48 126.61 165.83 125.9 166.17 127.32 166.52 128.03 166.87 127.32 167.22 128.27 167.57 127.56 167.92 128.74 168.27 128.03 168.62 128.27 168.97 128.03 169.32 128.51 169.67 130.17 170.01 130.64 170.36 130.4 170.71 130.17 171.06 129.69 171.41 130.64 171.76 130.17 172.11 130.17 172.46 130.17 172.81 129.69 173.16 128.98 173.51 128.74 173.86 128.51 174.2 128.51 174.55 128.98 174.9 128.27 175.25 128.74 175.6 128.74 175.95 129.69 176.3 129.22 176.65 129.22 177 129.69 177.35 129.69 177.7 129.93 178.04 130.17 178.39 131.11"/>
      </g>
      <g stroke-width="0.3" fill="#000000" fill-opacity="0.000" class="geometry" stroke-dasharray="none" stroke="#D53E4F" id="img-3ca8fe4a-18">
        <path fill="none" d="M21.98,71.86 L 22.33 71.86 22.68 69.49 23.03 67.83 23.38 69.02 23.73 63.09 24.08 61.67 24.42 58.83 24.77 61.2 25.12 60.01 25.47 59.06 25.82 57.64 26.17 57.88 26.52 60.01 26.87 62.38 27.22 64.04 27.57 63.33 27.92 62.38 28.27 60.96 28.61 58.12 28.96 60.72 29.31 61.44 29.66 64.04 30.01 68.31 30.36 66.65 30.71 73.05 31.06 69.97 31.41 73.76 31.76 78.26 32.11 78.97 32.45 85.61 32.8 86.56 33.15 84.9 33.5 82.29 33.85 80.63 34.2 81.58 34.55 79.45 34.9 76.37 35.25 78.03 35.6 76.6 35.95 74.23 36.3 74.23 36.64 69.49 36.99 71.39 37.34 67.6 37.69 64.04 38.04 67.36 38.39 72.81 38.74 79.92 39.09 78.5 39.44 78.26 39.79 75.42 40.14 75.42 40.49 70.68 40.83 73.52 41.18 67.83 41.53 68.31 41.88 68.55 42.23 65.46 42.58 64.04 42.93 65.7 43.28 64.28 43.63 63.33 43.98 63.09 44.33 64.75 44.67 62.15 45.02 61.91 45.37 61.67 45.72 57.64 46.07 57.88 46.42 54.56 46.77 57.64 47.12 55.98 47.47 54.56 47.82 56.69 48.17 55.75 48.52 54.09 48.86 54.09 49.21 55.51 49.56 57.64 49.91 54.32 50.26 58.35 50.61 59.06 50.96 55.04 51.31 50.77 51.66 52.19 52.01 51.95 52.36 52.9 52.7 49.11 53.05 49.58 53.4 50.3 53.75 50.77 54.1 46.03 54.45 45.32 54.8 49.82 55.15 51.95 55.5 49.35 55.85 47.93 56.2 46.98 56.55 48.64 56.89 48.64 57.24 49.11 57.59 49.82 57.94 46.98 58.29 45.56 58.64 46.98 58.99 40.82 59.34 39.63 59.69 43.19 60.04 45.56 60.39 43.42 60.73 43.19 61.08 42.71 61.43 44.37 61.78 42.95 62.13 39.87 62.48 40.34 62.83 40.82 63.18 43.9 63.53 44.37 63.88 44.13 64.23 45.56 64.58 43.42 64.92 43.42 65.27 42.95 65.62 42 65.97 37.02 66.32 40.58 66.67 39.39 67.02 36.31 67.37 33.94 67.72 32.52 68.07 34.18 68.42 38.45 68.77 40.34 69.11 37.02 69.46 35.36 69.81 33.94 70.16 34.42 70.51 31.81 70.86 30.86 71.21 32.99 71.56 33.23 71.91 36.79 72.26 40.58 72.61 40.34 72.95 41.53 73.3 38.21 73.65 36.55 74 37.02 74.35 39.63 74.7 36.79 75.05 34.18 75.4 33.71 75.75 30.62 76.1 26.36 76.45 26.12 76.8 28.02 77.14 33.94 77.49 32.28 77.84 32.76 78.19 35.36 78.54 32.99 78.89 32.05 79.24 34.42 79.59 32.05 79.94 31.34 80.29 33.23 80.64 34.42 80.98 35.36 81.33 33.23 81.68 32.99 82.03 35.84 82.38 34.65 82.73 34.42 83.08 35.13 83.43 36.08 83.78 34.65 84.13 36.55 84.48 40.82 84.83 38.68 85.17 38.68 85.52 33.71 85.87 31.57 86.22 30.86 86.57 32.05 86.92 33.71 87.27 30.86 87.62 27.07 87.97 25.88 88.32 25.17 88.67 24.46 89.02 24.22 89.36 23.28 89.71 19.96 90.06 18.54 90.41 18.77 90.76 18.54 91.11 17.83 91.46 16.88 91.81 15.69 92.16 15.46 92.51 14.03 92.86 15.22 93.2 16.17 93.55 15.69 93.9 17.11 94.25 16.64 94.6 16.4 94.95 17.83 95.3 17.35 95.65 18.77 96 16.88 96.35 15.69 96.7 16.17 97.05 16.64 97.39 15.93 97.74 16.64 98.09 17.59 98.44 18.06 98.79 17.11 99.14 16.4 99.49 16.17 99.84 16.17 100.19 16.17 100.54 17.11 100.89 16.88 101.23 16.64 101.58 17.11 101.93 16.64 102.28 18.06 102.63 19.72 102.98 21.14 103.33 19.25 103.68 19.96 104.03 19.96 104.38 19.01 104.73 19.96 105.08 18.54 105.42 18.3 105.77 19.48 106.12 19.48 106.47 20.43 106.82 20.67 107.17 18.54 107.52 19.01 107.87 20.67 108.22 22.09 108.57 22.57 108.92 23.04 109.26 21.62 109.61 21.62 109.96 19.25 110.31 19.01 110.66 19.72 111.01 22.8 111.36 23.75 111.71 25.17 112.06 28.02 112.41 28.49 112.76 29.2 113.11 26.12 113.45 25.88 113.8 26.6 114.15 27.54 114.5 25.88 114.85 25.41 115.2 25.65 115.55 24.46 115.9 21.85 116.25 21.62 116.6 22.09 116.95 22.57 117.3 23.75 117.64 23.51 117.99 22.57 118.34 24.46 118.69 23.51 119.04 23.51 119.39 20.67 119.74 20.67 120.09 21.38 120.44 20.43 120.79 19.48 121.14 19.96 121.48 21.85 121.83 20.43 122.18 19.25 122.53 20.67 122.88 20.2 123.23 23.04 123.58 23.75 123.93 23.28 124.28 24.7 124.63 23.51 124.98 22.57 125.33 20.67 125.67 19.48 126.02 19.25 126.37 17.35 126.72 16.4 127.07 17.35 127.42 18.3 127.77 19.25 128.12 20.2 128.47 20.67 128.82 19.25 129.17 20.67 129.51 19.72 129.86 19.01 130.21 18.77 130.56 20.2 130.91 18.3 131.26 17.83 131.61 17.59 131.96 18.77 132.31 19.01 132.66 18.54 133.01 20.2 133.36 20.2 133.7 21.38 134.05 22.33 134.4 23.99 134.75 23.51 135.1 26.36 135.45 28.02 135.8 28.49 136.15 32.05 136.5 29.44 136.85 30.15 137.2 30.39 137.55 28.73 137.89 31.1 138.24 32.05 138.59 35.36 138.94 36.55 139.29 39.16 139.64 39.39 139.99 40.34 140.34 42.71 140.69 44.61 141.04 46.27 141.39 46.03 141.73 48.64 142.08 46.98 142.43 46.27 142.78 45.08 143.13 47.69 143.48 44.61 143.83 46.03 144.18 44.84 144.53 43.66 144.88 46.03 145.23 48.4 145.58 47.69 145.92 46.74 146.27 42.95 146.62 47.21 146.97 46.27 147.32 46.03 147.67 48.16 148.02 47.69 148.37 48.16 148.72 46.98 149.07 51.95 149.42 50.77 149.76 52.9 150.11 52.67 150.46 52.43 150.81 49.35 151.16 47.93 151.51 50.06 151.86 49.11 152.21 44.84 152.56 46.74 152.91 45.56 153.26 50.77 153.61 48.16 153.95 48.87 154.3 52.9 154.65 55.98 155 53.61 155.35 51.01 155.7 51.24 156.05 53.61 156.4 55.98 156.75 53.38 157.1 49.58 157.45 51.01 157.79 54.56 158.14 54.56 158.49 53.61 158.84 55.51 159.19 50.06 159.54 51.48 159.89 50.53 160.24 52.19 160.59 52.19 160.94 51.72 161.29 51.95 161.64 52.43 161.98 55.51 162.33 55.75 162.68 54.56 163.03 55.04 163.38 57.88 163.73 53.61 164.08 51.72 164.43 53.61 164.78 55.75 165.13 59.78 165.48 61.2 165.83 57.41 166.17 58.59 166.52 61.44 166.87 58.12 167.22 54.8 167.57 59.78 167.92 58.83 168.27 57.41 168.62 60.49 168.97 56.69 169.32 56.69 169.67 54.56 170.01 50.3 170.36 51.24 170.71 51.72 171.06 48.4 171.41 54.09 171.76 50.53 172.11 48.16 172.46 46.74 172.81 47.45 173.16 47.69 173.51 49.11 173.86 44.37 174.2 44.84 174.55 46.03 174.9 46.27 175.25 46.03 175.6 46.98 175.95 44.61 176.3 44.13 176.65 45.79 177 48.16 177.35 51.72 177.7 49.35 178.04 51.72 178.39 47.21 178.74 48.16 179.09 46.27 179.44 46.5 179.79 44.84 180.14 44.37 180.49 41.29 180.84 41.29 181.19 41.76 181.54 39.39 181.89 39.16 182.23 34.65 182.58 34.89 182.93 34.42 183.28 36.08 183.63 33.94 183.98 37.26 184.33 37.26 184.68 35.6 185.03 31.34 185.38 31.81 185.73 28.97 186.08 29.91 186.42 32.28 186.77 29.91 187.12 28.97 187.47 34.18 187.82 36.08 188.17 37.73 188.52 36.31 188.87 35.84 189.22 35.36 189.57 35.13 189.92 34.65 190.26 32.99 190.61 36.08 190.96 38.45 191.31 37.02 191.66 37.26 192.01 38.68 192.36 41.76 192.71 43.66 193.06 39.87 193.41 37.26 193.76 36.31 194.11 37.97 194.45 38.21 194.8 37.02 195.15 38.68 195.5 38.45 195.85 40.1 196.2 42.24"/>
      </g>
      <g stroke-width="0.3" fill="#000000" fill-opacity="0.000" class="geometry" stroke-dasharray="none" stroke="#9E0142" id="img-3ca8fe4a-19">
        <path fill="none" d="M21.98,71.86 L 22.33 71.15 22.68 69.26 23.03 72.34 23.38 70.68 23.73 66.89 24.08 68.31 24.42 68.55 24.77 65.23 25.12 64.04 25.47 65.7 25.82 71.39 26.17 69.73 26.52 69.73 26.87 71.63 27.22 70.2 27.57 69.73 27.92 64.52 28.27 62.15 28.61 59.54 28.96 59.06 29.31 60.96 29.66 65.94 30.01 65.7 30.36 64.52 30.71 67.83 31.06 67.6 31.41 66.41 31.76 61.44 32.11 65.23 32.45 62.38 32.8 62.86 33.15 60.01 33.5 60.25 33.85 57.17 34.2 59.06 34.55 55.51 34.9 59.54 35.25 58.12 35.6 56.93 35.95 57.41 36.3 60.72 36.64 57.88 36.99 59.3 37.34 62.86 37.69 65.46 38.04 64.04 38.39 64.75 38.74 65.23 39.09 62.86 39.44 63.81 39.79 62.62 40.14 61.91 40.49 62.38 40.83 64.28 41.18 63.57 41.53 62.86 41.88 68.07 42.23 68.31 42.58 71.63 42.93 74.94 43.28 76.37 43.63 72.81 43.98 68.07 44.33 67.12 44.67 68.31 45.02 70.44 45.37 67.83 45.72 67.36 46.07 68.78 46.42 67.83 46.77 68.07 47.12 66.65 47.47 71.86 47.82 74.94 48.17 70.2 48.52 69.73 48.86 72.1 49.21 72.57 49.56 74.23 49.91 76.13 50.26 74 50.61 75.89 50.96 71.39 51.31 71.15 51.66 70.92 52.01 67.83 52.36 66.41 52.7 66.18 53.05 62.38 53.4 60.72 53.75 59.54 54.1 58.83 54.45 54.56 54.8 54.56 55.15 55.75 55.5 56.46 55.85 58.83 56.2 59.78 56.55 58.83 56.89 61.91 57.24 59.06 57.59 57.41 57.94 53.61 58.29 53.61 58.64 53.61 58.99 56.93 59.34 51.95 59.69 52.9 60.04 53.61 60.39 55.04 60.73 53.38 61.08 53.38 61.43 54.32 61.78 54.56 62.13 52.67 62.48 55.27 62.83 56.93 63.18 57.64 63.53 55.51 63.88 53.38 64.23 50.06 64.58 51.48 64.92 53.61 65.27 53.38 65.62 53.14 65.97 51.72 66.32 51.72 66.67 56.46 67.02 60.01 67.37 60.25 67.72 58.35 68.07 62.62 68.42 63.09 68.77 63.33 69.11 62.38 69.46 62.15 69.81 67.12 70.16 66.89 70.51 64.99 70.86 64.99 71.21 64.75 71.56 64.28 71.91 64.28 72.26 64.52 72.61 63.57 72.95 67.36 73.3 68.78 73.65 67.83 74 63.81 74.35 68.07 74.7 67.12 75.05 70.68 75.4 74.71 75.75 71.15 76.1 70.92 76.45 74.47 76.8 74.71 77.14 74.47 77.49 73.52 77.84 77.79 78.19 76.13 78.54 76.6 78.89 76.13 79.24 73.52 79.59 69.26 79.94 70.92 80.29 76.13 80.64 81.58 80.98 84.19 81.33 89.4 81.68 89.4 82.03 90.11 82.38 87.74 82.73 87.98 83.08 88.45 83.43 88.93 83.78 83 84.13 85.61 84.48 84.66 84.83 87.51 85.17 87.03 85.52 84.19 85.87 82.05 86.22 78.97 86.57 74.71 86.92 74.71 87.27 75.89 87.62 80.16 87.97 78.97 88.32 77.31 88.67 76.13 89.02 78.26 89.36 74 89.71 73.76 90.06 78.97 90.41 81.11 90.76 78.03 91.11 76.6 91.46 76.84 91.81 77.55 92.16 79.21 92.51 77.31 92.86 82.05 93.2 84.66 93.55 82.53 93.9 85.14 94.25 84.42 94.6 85.61 94.95 85.37 95.3 79.21 95.65 73.05 96 72.34 96.35 75.89 96.7 73.76 97.05 70.2 97.39 68.78 97.74 68.31 98.09 68.07 98.44 72.34 98.79 74 99.14 74 99.49 76.84 99.84 74.71 100.19 73.29 100.54 71.86 100.89 72.57 101.23 75.18 101.58 75.42 101.93 75.89 102.28 74 102.63 72.57 102.98 74.71 103.33 75.42 103.68 73.76 104.03 73.05 104.38 71.63 104.73 71.63 105.08 75.89 105.42 77.31 105.77 79.92 106.12 82.29 106.47 85.14 106.82 88.45 107.17 91.3 107.52 91.06 107.87 87.74 108.22 88.22 108.57 89.16 108.92 88.45 109.26 87.74 109.61 87.27 109.96 87.27 110.31 90.35 110.66 90.35 111.01 91.77 111.36 92.25 111.71 90.59 112.06 90.11 112.41 94.14 112.76 91.06 113.11 92.48 113.45 96.04 113.8 99.36 114.15 99.83 114.5 97.93 114.85 100.54 115.2 101.02 115.55 102.44 115.9 99.36 116.25 103.39 116.6 103.39 116.95 99.12 117.3 97.7 117.64 96.04 117.99 95.09 118.34 94.62 118.69 98.17 119.04 102.67 119.39 104.81 119.74 103.39 120.09 105.99 120.44 104.81 120.79 103.15 121.14 105.52 121.48 107.18 121.83 107.65 122.18 110.02 122.53 111.21 122.88 106.94 123.23 107.18 123.58 105.52 123.93 102.67 124.28 105.99 124.63 102.44 124.98 104.57 125.33 102.44 125.67 104.1 126.02 105.28 126.37 104.57 126.72 101.96 127.07 102.91 127.42 104.57 127.77 104.1 128.12 101.73 128.47 102.44 128.82 101.73 129.17 95.8 129.51 99.12 129.86 100.78 130.21 101.96 130.56 105.04 130.91 108.13 131.26 107.89 131.61 108.6 131.96 110.73 132.31 111.68 132.66 112.15 133.01 110.5 133.36 112.39 133.7 114.52 134.05 113.34 134.4 110.73 134.75 110.02 135.1 112.39 135.45 112.15 135.8 113.81 136.15 112.39 136.5 115.71 136.85 115.71 137.2 116.66 137.55 115.24 137.89 111.92 138.24 112.15 138.59 110.26 138.94 112.87 139.29 113.1 139.64 115.95 139.99 117.61 140.34 117.37 140.69 119.03 141.04 117.84 141.39 117.37 141.73 118.08 142.08 119.03 142.43 120.45 142.78 121.63 143.13 124 143.48 123.29 143.83 125.19 144.18 125.9 144.53 124.95 144.88 126.61 145.23 125.43 145.58 126.85 145.92 126.37 146.27 127.8 146.62 128.27 146.97 128.74 147.32 128.74 147.67 128.27 148.02 128.27 148.37 129.22 148.72 129.93 149.07 130.64 149.42 130.64 149.76 129.46 150.11 129.22 150.46 129.46 150.81 129.69 151.16 128.98 151.51 128.51 151.86 129.22 152.21 129.22 152.56 128.98 152.91 127.56 153.26 127.8 153.61 127.8 153.95 127.8 154.3 127.56 154.65 128.03 155 127.09 155.35 127.09 155.7 127.09 156.05 127.56 156.4 127.56 156.75 127.8 157.1 128.51 157.45 128.03 157.79 128.03 158.14 127.8 158.49 128.74 158.84 128.98 159.19 128.98 159.54 128.51 159.89 127.56 160.24 128.51 160.59 128.51 160.94 129.22 161.29 129.22 161.64 130.4 161.98 130.64 162.33 130.17 162.68 130.17 163.03 129.46 163.38 130.17 163.73 129.46 164.08 130.4 164.43 130.64 164.78 131.11"/>
      </g>
    </g>
  </g>
</g>
  <g class="guide ylabels" font-size="2.82" font-family="'PT Sans Caption','Helvetica Neue','Helvetica',sans-serif" fill="#000000" id="img-3ca8fe4a-20">
    <text x="18.63" y="131.11" text-anchor="end" dy="0.35em">0</text>
    <text x="18.63" y="107.41" text-anchor="end" dy="0.35em">100</text>
    <text x="18.63" y="83.71" text-anchor="end" dy="0.35em">200</text>
    <text x="18.63" y="60.01" text-anchor="end" dy="0.35em">300</text>
    <text x="18.63" y="36.31" text-anchor="end" dy="0.35em">400</text>
    <text x="18.63" y="12.61" text-anchor="end" dy="0.35em">500</text>
  </g>
  <g font-size="3.88" font-family="'PT Sans','Helvetica Neue','Helvetica',sans-serif" fill="#000000" stroke="#000000" stroke-opacity="0.000" id="img-3ca8fe4a-21">
    <text x="8.81" y="69.86" text-anchor="middle" dy="0.35em" transform="rotate(-90, 8.81, 71.86)">population number</text>
  </g>
  <g font-size="3.88" font-family="'PT Sans','Helvetica Neue','Helvetica',sans-serif" fill="#000000" stroke="#000000" stroke-opacity="0.000" id="img-3ca8fe4a-22">
    <text x="108.92" y="5" text-anchor="middle" dy="0.6em">genetic drift</text>
  </g>
</g>
<defs>
  <clipPath id="img-3ca8fe4a-4">
  <path d="M19.63,10.61 L 198.2 10.61 198.2 133.11 19.63 133.11" />
</clipPath>
</defs>
</svg>
