<?xml version="1.0" encoding="UTF-8"?>
<svg xmlns="http://www.w3.org/2000/svg"
     xmlns:xlink="http://www.w3.org/1999/xlink"
     xmlns:gadfly="http://www.gadflyjl.org/ns"
     version="1.2"
     width="203.2mm" height="152.4mm" viewBox="0 0 203.2 152.4"
     stroke="none"
     fill="#000000"
     stroke-width="0.3"
     font-size="3.88"
>
<g class="plotroot xscalable yscalable" id="img-9e220567-1">
  <g font-size="3.88" font-family="'PT Sans','Helvetica Neue','Helvetica',sans-serif" fill="#000000" stroke="#000000" stroke-opacity="0.000" id="img-9e220567-2">
    <text x="108.92" y="140.79" text-anchor="middle" dy="0.6em">generation number</text>
  </g>
  <g class="guide xlabels" font-size="2.82" font-family="'PT Sans Caption','Helvetica Neue','Helvetica',sans-serif" fill="#000000" id="img-9e220567-3">
    <text x="21.63" y="134.11" text-anchor="middle" dy="0.6em">0</text>
    <text x="56.55" y="134.11" text-anchor="middle" dy="0.6em">100</text>
    <text x="91.46" y="134.11" text-anchor="middle" dy="0.6em">200</text>
    <text x="126.37" y="134.11" text-anchor="middle" dy="0.6em">300</text>
    <text x="161.29" y="134.11" text-anchor="middle" dy="0.6em">400</text>
    <text x="196.2" y="134.11" text-anchor="middle" dy="0.6em">500</text>
  </g>
<g clip-path="url(#img-9e220567-4)">
  <g id="img-9e220567-5">
    <g pointer-events="visible" opacity="1" fill="#FFFFFF" stroke="#000000" stroke-opacity="0.000" class="guide background" id="img-9e220567-6">
      <rect x="19.63" y="10.61" width="178.57" height="122.5"/>
    </g>
    <g class="guide ygridlines xfixed" stroke-dasharray="0.5,0.5" stroke-width="0.2" stroke="#808080" id="img-9e220567-7">
      <path fill="none" d="M19.63,131.11 L 198.2 131.11"/>
      <path fill="none" d="M19.63,101.49 L 198.2 101.49"/>
      <path fill="none" d="M19.63,71.86 L 198.2 71.86"/>
      <path fill="none" d="M19.63,42.24 L 198.2 42.24"/>
      <path fill="none" d="M19.63,12.61 L 198.2 12.61"/>
    </g>
    <g class="guide xgridlines yfixed" stroke-dasharray="0.5,0.5" stroke-width="0.2" stroke="#808080" id="img-9e220567-8">
      <path fill="none" d="M21.63,10.61 L 21.63 133.11"/>
      <path fill="none" d="M56.55,10.61 L 56.55 133.11"/>
      <path fill="none" d="M91.46,10.61 L 91.46 133.11"/>
      <path fill="none" d="M126.37,10.61 L 126.37 133.11"/>
      <path fill="none" d="M161.29,10.61 L 161.29 133.11"/>
      <path fill="none" d="M196.2,10.61 L 196.2 133.11"/>
    </g>
    <g class="plotpanel" id="img-9e220567-9">
      <g stroke-width="0.3" fill="#000000" fill-opacity="0.000" class="geometry" stroke-dasharray="none" stroke="#3288BD" id="img-9e220567-10">
        <path fill="none" d="M21.98,71.86 L 22.33 71.42 22.68 69.35 23.03 67.42 23.38 70.38 23.73 69.2 24.08 67.12 24.42 64.46 24.77 60.9 25.12 59.12 25.47 58.09 25.82 58.38 26.17 56.75 26.52 56.31 26.87 56.61 27.22 57.05 27.57 58.68 27.92 56.9 28.27 54.38 28.61 54.24 28.96 56.16 29.31 55.57 29.66 53.94 30.01 51.72 30.36 53.79 30.71 54.24 31.06 54.24 31.41 55.12 31.76 53.35 32.11 51.27 32.45 53.79 32.8 50.98 33.15 50.24 33.5 49.79 33.85 51.27 34.2 50.83 34.55 56.31 34.9 53.5 35.25 51.27 35.6 51.57 35.95 46.83 36.3 46.24 36.64 46.09 36.99 44.46 37.34 47.42 37.69 47.42 38.04 47.87 38.39 48.61 38.74 50.09 39.09 50.09 39.44 47.42 39.79 46.24 40.14 45.05 40.49 43.27 40.83 41.94 41.18 44.9 41.53 44.31 41.88 43.57 42.23 46.83 42.58 45.64 42.93 48.16 43.28 45.35 43.63 45.79 43.98 45.5 44.33 45.2 44.67 47.27 45.02 48.31 45.37 48.01 45.72 50.24 46.07 52.01 46.42 51.72 46.77 48.9 47.12 47.57 47.47 48.9 47.82 50.09 48.17 49.94 48.52 48.46 48.86 46.53 49.21 45.94 49.56 46.39 49.91 48.61 50.26 52.01 50.61 49.2 50.96 47.72 51.31 47.42 51.66 46.53 52.01 46.09 52.36 45.35 52.7 44.02 53.05 42.83 53.4 44.76 53.75 46.83 54.1 45.64 54.45 45.2 54.8 46.24 55.15 43.57 55.5 46.39 55.85 45.35 56.2 46.09 56.55 48.61 56.89 49.05 57.24 48.9 57.59 48.31 57.94 49.35 58.29 50.98 58.64 53.2 58.99 49.35 59.34 45.35 59.69 45.05 60.04 44.9 60.39 45.35 60.73 43.87 61.08 41.64 61.43 45.79 61.78 44.31 62.13 44.9 62.48 42.83 62.83 40.02 63.18 41.64 63.53 42.53 63.88 44.31 64.23 46.39 64.58 44.31 64.92 46.68 65.27 46.39 65.62 46.53 65.97 45.35 66.32 46.68 66.67 44.46 67.02 42.68 67.37 40.46 67.72 40.16 68.07 39.57 68.42 39.87 68.77 39.27 69.11 39.13 69.46 40.02 69.81 43.13 70.16 43.72 70.51 45.94 70.86 45.05 71.21 42.83 71.56 40.61 71.91 38.53 72.26 38.39 72.61 37.5 72.95 36.46 73.3 40.16 73.65 40.76 74 40.9 74.35 39.27 74.7 40.31 75.05 40.31 75.4 41.05 75.75 40.02 76.1 38.98 76.45 41.79 76.8 46.09 77.14 48.61 77.49 48.01 77.84 53.05 78.19 52.01 78.54 54.98 78.89 51.27 79.24 48.31 79.59 52.31 79.94 51.42 80.29 50.24 80.64 50.98 80.98 51.72 81.33 48.16 81.68 46.09 82.03 47.42 82.38 51.72 82.73 52.31 83.08 54.68 83.43 53.2 83.78 53.35 84.13 53.05 84.48 52.16 84.83 51.13 85.17 49.2 85.52 47.72 85.87 50.98 86.22 54.09 86.57 52.46 86.92 53.35 87.27 53.64 87.62 52.46 87.97 50.09 88.32 49.5 88.67 52.31 89.02 53.05 89.36 51.57 89.71 50.09 90.06 49.35 90.41 52.46 90.76 54.38 91.11 56.9 91.46 57.05 91.81 56.31 92.16 56.61 92.51 55.87 92.86 56.46 93.2 52.61 93.55 52.61 93.9 51.87 94.25 54.53 94.6 51.27 94.95 52.46 95.3 52.46 95.65 50.24 96 52.01 96.35 53.64 96.7 54.09 97.05 55.12 97.39 54.83 97.74 56.9 98.09 58.24 98.44 58.68 98.79 57.79 99.14 56.75 99.49 59.86 99.84 60.16 100.19 60.61 100.54 57.64 100.89 54.38 101.23 53.35 101.58 50.38 101.93 49.5 102.28 49.64 102.63 48.16 102.98 48.46 103.33 49.94 103.68 48.61 104.03 51.87 104.38 47.87 104.73 46.09 105.08 46.53 105.42 48.9 105.77 48.9 106.12 46.98 106.47 47.42 106.82 48.01 107.17 48.76 107.52 49.2 107.87 47.72 108.22 45.35 108.57 43.87 108.92 44.46 109.26 46.24 109.61 45.94 109.96 45.5 110.31 45.64 110.66 44.61 111.01 48.31 111.36 45.05 111.71 44.9 112.06 43.57 112.41 42.98 112.76 44.02 113.11 46.68 113.45 47.13 113.8 49.94 114.15 47.13 114.5 48.01 114.85 48.16 115.2 51.57 115.55 50.09 115.9 47.57 116.25 47.27 116.6 48.16 116.95 48.01 117.3 47.72 117.64 48.9 117.99 46.53 118.34 49.05 118.69 49.94 119.04 49.2 119.39 48.61 119.74 51.57 120.09 45.79 120.44 42.68 120.79 41.5 121.14 39.42 121.48 38.98 121.83 37.94 122.18 38.39 122.53 35.13 122.88 35.87 123.23 39.72 123.58 39.87 123.93 40.31 124.28 40.9 124.63 42.83 124.98 42.83 125.33 45.05 125.67 44.31 126.02 44.02 126.37 44.31 126.72 45.05 127.07 44.46 127.42 43.42 127.77 44.16 128.12 42.68 128.47 40.16 128.82 40.31 129.17 41.94 129.51 42.39 129.86 39.13 130.21 42.83 130.56 44.16 130.91 42.68 131.26 42.83 131.61 42.98 131.96 42.98 132.31 45.2 132.66 45.05 133.01 46.98 133.36 46.24 133.7 48.01 134.05 43.87 134.4 43.42 134.75 42.83 135.1 44.31 135.45 42.68 135.8 43.27 136.15 43.27 136.5 42.83 136.85 41.79 137.2 42.09 137.55 43.42 137.89 41.35 138.24 41.64 138.59 39.27 138.94 38.09 139.29 40.9 139.64 38.39 139.99 38.98 140.34 39.13 140.69 39.42 141.04 35.87 141.39 37.35 141.73 40.61 142.08 39.87 142.43 37.35 142.78 37.05 143.13 38.98 143.48 42.98 143.83 45.94 144.18 45.05 144.53 42.68 144.88 41.5 145.23 42.24 145.58 41.94 145.92 39.87 146.27 40.16 146.62 38.68 146.97 41.79 147.32 40.9 147.67 42.53 148.02 44.61 148.37 47.27 148.72 47.13 149.07 49.05 149.42 50.24 149.76 48.31 150.11 51.13 150.46 49.64 150.81 49.35 151.16 52.75 151.51 50.98 151.86 51.57 152.21 51.87 152.56 52.61 152.91 48.46 153.26 49.64 153.61 50.68 153.95 53.05 154.3 54.24 154.65 54.53 155 61.79 155.35 60.16 155.7 63.42 156.05 63.27 156.4 62.68 156.75 66.38 157.1 68.6 157.45 72.01 157.79 69.94 158.14 69.64 158.49 69.49 158.84 71.72 159.19 73.94 159.54 74.83 159.89 73.49 160.24 74.97 160.59 79.42 160.94 82.08 161.29 79.12 161.64 81.64 161.98 84.6 162.33 84.16 162.68 84.75 163.03 85.64 163.38 82.38 163.73 83.71 164.08 83.71 164.43 85.64 164.78 83.86 165.13 83.12 165.48 81.64 165.83 81.34 166.17 84.31 166.52 83.42 166.87 85.05 167.22 83.57 167.57 81.2 167.92 81.49 168.27 77.64 168.62 77.2 168.97 77.49 169.32 77.79 169.67 78.83 170.01 81.94 170.36 81.2 170.71 81.2 171.06 82.38 171.41 81.94 171.76 79.27 172.11 80.9 172.46 83.86 172.81 85.34 173.16 88.01 173.51 87.71 173.86 87.71 174.2 86.82 174.55 86.53 174.9 84.45 175.25 85.19 175.6 85.49 175.95 86.38 176.3 84.75 176.65 82.23 177 82.53 177.35 83.57 177.7 84.9 178.04 85.34 178.39 83.42 178.74 83.57 179.09 81.79 179.44 80.16 179.79 80.31 180.14 79.12 180.49 80.16 180.84 81.94 181.19 84.01 181.54 86.23 181.89 86.23 182.23 87.57 182.58 88.75 182.93 92.45 183.28 92.45 183.63 90.38 183.98 89.49 184.33 87.86 184.68 88.75 185.03 88.6 185.38 91.86 185.73 92.31 186.08 94.08 186.42 96.9 186.77 97.05 187.12 96.75 187.47 94.68 187.82 95.71 188.17 99.27 188.52 100.16 188.87 100.01 189.22 100.3 189.57 97.34 189.92 98.38 190.26 96.9 190.61 97.34 190.96 96.16 191.31 94.23 191.66 93.79 192.01 92.45 192.36 92.9 192.71 91.86 193.06 89.64 193.41 88.31 193.76 92.31 194.11 90.97 194.45 92.01 194.8 92.01 195.15 93.05 195.5 91.12 195.85 89.05 196.2 90.53"/>
      </g>
      <g stroke-width="0.3" fill="#000000" fill-opacity="0.000" class="geometry" stroke-dasharray="none" stroke="#66C2A5" id="img-9e220567-11">
        <path fill="none" d="M21.98,71.86 L 22.33 68.9 22.68 65.79 23.03 61.49 23.38 61.79 23.73 59.72 24.08 60.01 24.42 58.09 24.77 59.86 25.12 63.72 25.47 62.68 25.82 63.72 26.17 62.98 26.52 61.64 26.87 63.57 27.22 61.64 27.57 63.86 27.92 61.79 28.27 57.64 28.61 57.94 28.96 53.64 29.31 51.42 29.66 53.5 30.01 54.98 30.36 50.53 30.71 52.9 31.06 51.72 31.41 47.87 31.76 46.39 32.11 49.05 32.45 51.27 32.8 52.75 33.15 50.68 33.5 50.98 33.85 49.94 34.2 51.27 34.55 53.64 34.9 56.16 35.25 56.16 35.6 54.38 35.95 49.94 36.3 51.72 36.64 51.87 36.99 52.01 37.34 52.61 37.69 52.46 38.04 46.09 38.39 46.53 38.74 46.83 39.09 45.64 39.44 45.79 39.79 42.68 40.14 44.16 40.49 43.72 40.83 44.61 41.18 46.39 41.53 44.61 41.88 42.39 42.23 41.35 42.58 40.76 42.93 41.5 43.28 42.53 43.63 42.39 43.98 44.02 44.33 46.09 44.67 49.35 45.02 51.27 45.37 52.46 45.72 50.53 46.07 52.9 46.42 51.57 46.77 49.64 47.12 50.38 47.47 53.2 47.82 51.87 48.17 48.46 48.52 48.01 48.86 48.76 49.21 51.72 49.56 52.9 49.91 48.01 50.26 48.76 50.61 49.79 50.96 50.09 51.31 51.27 51.66 49.2 52.01 49.94 52.36 48.9 52.7 51.27 53.05 50.24 53.4 51.72 53.75 52.9 54.1 51.87 54.45 52.01 54.8 53.35 55.15 55.72 55.5 51.72 55.85 53.94 56.2 53.5 56.55 55.12 56.89 54.24 57.24 53.2 57.59 56.75 57.94 51.27 58.29 51.27 58.64 53.35 58.99 55.42 59.34 60.16 59.69 59.42 60.04 58.24 60.39 60.31 60.73 60.9 61.08 63.42 61.43 60.46 61.78 61.49 62.13 58.09 62.48 57.94 62.83 60.16 63.18 55.57 63.53 52.31 63.88 51.42 64.23 51.13 64.58 51.57 64.92 51.87 65.27 50.83 65.62 50.98 65.97 54.53 66.32 54.68 66.67 51.72 67.02 52.75 67.37 53.5 67.72 56.01 68.07 58.98 68.42 59.57 68.77 58.83 69.11 55.12 69.46 53.35 69.81 52.61 70.16 52.31 70.51 52.61 70.86 52.61 71.21 52.9 71.56 50.83 71.91 51.87 72.26 50.09 72.61 50.68 72.95 49.79 73.3 47.27 73.65 44.16 74 41.79 74.35 41.05 74.7 41.2 75.05 41.64 75.4 39.42 75.75 38.53 76.1 35.72 76.45 33.35 76.8 32.31 77.14 29.65 77.49 28.17 77.84 26.83 78.19 26.54 78.54 25.94 78.89 27.42 79.24 26.39 79.59 26.24 79.94 23.57 80.29 23.28 80.64 22.24 80.98 22.09 81.33 22.54 81.68 23.13 82.03 25.94 82.38 25.5 82.73 27.13 83.08 28.17 83.43 29.5 83.78 28.46 84.13 30.98 84.48 30.98 84.83 30.54 85.17 29.2 85.52 28.02 85.87 27.13 86.22 26.24 86.57 25.8 86.92 22.39 87.27 22.54 87.62 21.94 87.97 21.8 88.32 20.17 88.67 20.31 89.02 21.5 89.36 20.61 89.71 21.06 90.06 20.31 90.41 19.43 90.76 20.02 91.11 21.8 91.46 21.65 91.81 20.46 92.16 20.61 92.51 19.13 92.86 18.09 93.2 18.24 93.55 17.65 93.9 18.68 94.25 17.94 94.6 17.8 94.95 16.76 95.3 16.46 95.65 16.17 96 16.02 96.35 15.28 96.7 15.13 97.05 15.43 97.39 15.72 97.74 16.61 98.09 16.46 98.44 15.87 98.79 15.87 99.14 15.43 99.49 14.24 99.84 14.24 100.19 14.24 100.54 14.69 100.89 15.72 101.23 16.61 101.58 17.2 101.93 16.31 102.28 15.87 102.63 16.61 102.98 16.17 103.33 16.46 103.68 16.76 104.03 16.02 104.38 17.35 104.73 17.5 105.08 16.91 105.42 16.61 105.77 14.98 106.12 14.98 106.47 15.28 106.82 15.28 107.17 14.98 107.52 15.28 107.87 15.43 108.22 15.72 108.57 15.13 108.92 14.69 109.26 14.24 109.61 14.69 109.96 15.43 110.31 15.13 110.66 15.57 111.01 15.72 111.36 14.83 111.71 15.43 112.06 14.69 112.41 14.24 112.76 14.09 113.11 14.09 113.45 14.54 113.8 14.09 114.15 14.09 114.5 13.65 114.85 13.65 115.2 14.24 115.55 14.24 115.9 14.98 116.25 14.83 116.6 14.24 116.95 14.98 117.3 14.69 117.64 14.54 117.99 14.83 118.34 15.43 118.69 14.69 119.04 14.54 119.39 13.65 119.74 12.91 120.09 12.76 120.44 12.76 120.79 12.76 121.14 12.91 121.48 12.76 121.83 13.06 122.18 13.06 122.53 13.2 122.88 13.2 123.23 13.35 123.58 13.35 123.93 13.2 124.28 13.65 124.63 13.5 124.98 13.35 125.33 13.06 125.67 12.76 126.02 12.61"/>
      </g>
      <g stroke-width="0.3" fill="#000000" fill-opacity="0.000" class="geometry" stroke-dasharray="none" stroke="#ABDDA4" id="img-9e220567-12">
        <path fill="none" d="M21.98,71.86 L 22.33 70.38 22.68 67.57 23.03 68.9 23.38 67.12 23.73 69.05 24.08 68.6 24.42 68.46 24.77 66.98 25.12 67.27 25.47 68.9 25.82 69.79 26.17 72.16 26.52 70.68 26.87 69.64 27.22 69.2 27.57 70.53 27.92 69.49 28.27 68.9 28.61 66.68 28.96 66.09 29.31 64.46 29.66 63.42 30.01 61.64 30.36 64.75 30.71 65.79 31.06 62.38 31.41 63.42 31.76 62.98 32.11 65.35 32.45 63.86 32.8 58.68 33.15 56.01 33.5 58.09 33.85 56.31 34.2 52.9 34.55 50.98 34.9 49.94 35.25 53.94 35.6 51.27 35.95 49.5 36.3 50.83 36.64 48.46 36.99 51.27 37.34 52.9 37.69 56.01 38.04 55.87 38.39 55.57 38.74 54.53 39.09 53.5 39.44 53.79 39.79 56.16 40.14 53.94 40.49 50.68 40.83 51.13 41.18 49.79 41.53 50.53 41.88 47.13 42.23 53.5 42.58 52.9 42.93 54.98 43.28 54.24 43.63 57.35 43.98 59.12 44.33 59.27 44.67 62.38 45.02 61.05 45.37 61.35 45.72 60.9 46.07 60.75 46.42 63.57 46.77 65.05 47.12 67.27 47.47 63.57 47.82 59.27 48.17 62.09 48.52 61.35 48.86 60.01 49.21 58.83 49.56 60.16 49.91 60.01 50.26 60.75 50.61 61.64 50.96 62.09 51.31 57.49 51.66 58.38 52.01 59.27 52.36 58.98 52.7 60.31 53.05 60.9 53.4 62.23 53.75 58.83 54.1 60.46 54.45 61.94 54.8 61.05 55.15 63.72 55.5 67.57 55.85 63.57 56.2 63.12 56.55 63.12 56.89 61.2 57.24 58.83 57.59 58.38 57.94 54.98 58.29 50.98 58.64 51.87 58.99 51.13 59.34 48.9 59.69 49.35 60.04 50.68 60.39 48.46 60.73 47.57 61.08 47.57 61.43 46.83 61.78 46.53 62.13 44.9 62.48 47.27 62.83 45.64 63.18 45.35 63.53 47.57 63.88 44.76 64.23 45.35 64.58 45.05 64.92 45.05 65.27 42.68 65.62 40.61 65.97 39.57 66.32 37.94 66.67 36.76 67.02 37.5 67.37 37.05 67.72 36.02 68.07 37.2 68.42 36.46 68.77 34.53 69.11 36.31 69.46 36.61 69.81 39.13 70.16 41.35 70.51 42.68 70.86 43.27 71.21 46.98 71.56 43.13 71.91 43.72 72.26 42.68 72.61 42.09 72.95 41.64 73.3 41.5 73.65 40.02 74 41.5 74.35 42.83 74.7 42.09 75.05 39.13 75.4 36.16 75.75 37.05 76.1 38.09 76.45 40.61 76.8 37.2 77.14 40.02 77.49 41.2 77.84 42.53 78.19 42.98 78.54 42.98 78.89 44.31 79.24 45.35 79.59 44.02 79.94 40.61 80.29 43.27 80.64 46.09 80.98 48.01 81.33 46.83 81.68 47.13 82.03 47.27 82.38 45.05 82.73 45.79 83.08 41.5 83.43 40.31 83.78 39.27 84.13 41.35 84.48 44.31 84.83 44.61 85.17 46.24 85.52 41.64 85.87 41.94 86.22 40.61 86.57 39.87 86.92 43.27 87.27 40.16 87.62 42.09 87.97 41.64 88.32 42.09 88.67 40.31 89.02 38.68 89.36 37.5 89.71 34.53 90.06 33.2 90.41 31.42 90.76 30.98 91.11 29.79 91.46 27.13 91.81 25.8 92.16 27.13 92.51 29.2 92.86 27.87 93.2 27.87 93.55 27.87 93.9 30.09 94.25 29.5 94.6 30.83 94.95 34.24 95.3 36.76 95.65 35.28 96 33.94 96.35 34.83 96.7 32.46 97.05 32.91 97.39 33.35 97.74 37.05 98.09 36.61 98.44 35.28 98.79 36.16 99.14 35.87 99.49 34.68 99.84 37.2 100.19 36.61 100.54 39.57 100.89 42.83 101.23 42.68 101.58 42.98 101.93 40.9 102.28 39.57 102.63 38.39 102.98 39.72 103.33 43.13 103.68 42.24 104.03 40.46 104.38 38.68 104.73 36.46 105.08 37.05 105.42 38.68 105.77 37.2 106.12 39.13 106.47 41.35 106.82 41.35 107.17 41.64 107.52 40.31 107.87 39.13 108.22 37.2 108.57 37.35 108.92 32.61 109.26 32.16 109.61 30.68 109.96 28.76 110.31 29.05 110.66 29.2 111.01 32.02 111.36 31.72 111.71 33.5 112.06 33.94 112.41 38.53 112.76 37.05 113.11 38.24 113.45 39.42 113.8 39.27 114.15 40.61 114.5 39.57 114.85 42.98 115.2 39.87 115.55 39.42 115.9 40.9 116.25 40.9 116.6 40.76 116.95 41.64 117.3 38.83 117.64 39.27 117.99 38.39 118.34 40.02 118.69 38.98 119.04 38.39 119.39 38.24 119.74 36.61 120.09 35.87 120.44 37.65 120.79 39.87 121.14 38.68 121.48 40.16 121.83 38.68 122.18 38.98 122.53 37.2 122.88 37.79 123.23 36.02 123.58 36.16 123.93 37.35 124.28 37.79 124.63 40.02 124.98 42.68 125.33 46.24 125.67 46.98 126.02 44.16 126.37 42.09 126.72 42.24 127.07 40.31 127.42 39.42 127.77 39.42 128.12 42.53 128.47 43.27 128.82 43.27 129.17 41.2 129.51 40.31 129.86 40.9 130.21 42.98 130.56 41.94 130.91 42.83 131.26 37.2 131.61 36.31 131.96 36.02 132.31 37.05 132.66 36.31 133.01 38.09 133.36 38.24 133.7 39.27 134.05 38.68 134.4 38.98 134.75 37.35 135.1 39.42 135.45 38.39 135.8 36.16 136.15 36.02 136.5 33.94 136.85 33.5 137.2 36.02 137.55 33.79 137.89 34.83 138.24 38.24 138.59 41.94 138.94 46.68 139.29 46.09 139.64 51.13 139.99 50.98 140.34 49.35 140.69 49.64 141.04 51.42 141.39 50.53 141.73 49.79 142.08 50.38 142.43 53.2 142.78 51.87 143.13 52.46 143.48 50.98 143.83 52.61 144.18 52.16 144.53 54.24 144.88 51.87 145.23 54.83 145.58 54.24 145.92 52.16 146.27 50.98 146.62 53.64 146.97 54.68 147.32 55.87 147.67 59.72 148.02 60.75 148.37 60.61 148.72 60.9 149.07 59.72 149.42 61.05 149.76 60.46 150.11 60.01 150.46 58.83 150.81 58.53 151.16 57.64 151.51 56.75 151.86 58.68 152.21 60.01 152.56 57.79 152.91 60.75 153.26 62.23 153.61 61.64 153.95 63.86 154.3 64.61 154.65 61.94 155 60.61 155.35 60.01 155.7 61.94 156.05 63.57 156.4 65.49 156.75 64.16 157.1 63.72 157.45 63.12 157.79 64.16 158.14 62.98 158.49 64.16 158.84 65.2 159.19 68.31 159.54 68.16 159.89 69.64 160.24 74.23 160.59 78.97 160.94 80.75 161.29 81.34 161.64 79.71 161.98 81.64 162.33 81.49 162.68 80.9 163.03 81.64 163.38 81.64 163.73 81.64 164.08 82.38 164.43 83.27 164.78 86.38 165.13 83.27 165.48 78.97 165.83 81.05 166.17 79.42 166.52 78.83 166.87 77.05 167.22 73.79 167.57 74.53 167.92 76.9 168.27 72.01 168.62 73.79 168.97 72.46 169.32 72.6 169.67 73.34 170.01 74.23 170.36 69.64 170.71 68.9 171.06 70.53 171.41 70.53 171.76 72.6 172.11 71.72 172.46 73.2 172.81 75.12 173.16 74.53 173.51 76.9 173.86 74.38 174.2 75.42 174.55 76.31 174.9 77.64 175.25 76.6 175.6 72.16 175.95 71.12 176.3 74.68 176.65 72.75 177 72.9 177.35 73.49 177.7 69.2 178.04 67.86 178.39 65.49 178.74 63.12 179.09 62.68 179.44 64.75 179.79 67.12 180.14 71.57 180.49 72.31 180.84 71.86 181.19 73.79 181.54 74.83 181.89 74.23 182.23 72.9 182.58 73.2 182.93 72.6 183.28 74.97 183.63 71.72 183.98 69.94 184.33 68.46 184.68 70.23 185.03 70.23 185.38 68.46 185.73 67.86 186.08 69.2 186.42 70.53 186.77 70.68 187.12 70.83 187.47 73.05 187.82 74.83 188.17 74.23 188.52 74.38 188.87 75.42 189.22 73.2 189.57 71.86 189.92 69.2 190.26 67.42 190.61 69.2 190.96 69.94 191.31 68.9 191.66 68.31 192.01 66.53 192.36 66.09 192.71 66.38 193.06 65.79 193.41 64.61 193.76 68.16 194.11 67.12 194.45 66.23 194.8 64.75 195.15 63.86 195.5 63.42 195.85 63.42 196.2 68.16"/>
      </g>
      <g stroke-width="0.3" fill="#000000" fill-opacity="0.000" class="geometry" stroke-dasharray="none" stroke="#E6F598" id="img-9e220567-13">
        <path fill="none" d="M21.98,71.86 L 22.33 71.86 22.68 73.05 23.03 69.2 23.38 72.75 23.73 74.97 24.08 71.42 24.42 70.97 24.77 73.2 25.12 75.12 25.47 75.42 25.82 75.42 26.17 71.86 26.52 75.27 26.87 75.27 27.22 73.05 27.57 74.53 27.92 75.12 28.27 74.68 28.61 71.12 28.96 71.27 29.31 71.27 29.66 69.35 30.01 68.01 30.36 66.23 30.71 67.86 31.06 69.2 31.41 71.12 31.76 69.64 32.11 73.2 32.45 74.23 32.8 73.79 33.15 72.46 33.5 73.2 33.85 74.38 34.2 74.97 34.55 77.49 34.9 74.83 35.25 76.6 35.6 76.75 35.95 81.49 36.3 82.82 36.64 87.42 36.99 87.12 37.34 85.19 37.69 83.57 38.04 84.45 38.39 85.05 38.74 85.49 39.09 84.9 39.44 87.42 39.79 86.82 40.14 85.64 40.49 85.64 40.83 80.9 41.18 82.97 41.53 80.01 41.88 75.86 42.23 76.46 42.58 76.01 42.93 74.68 43.28 74.68 43.63 74.23 43.98 74.68 44.33 73.49 44.67 76.31 45.02 83.27 45.37 83.27 45.72 86.53 46.07 88.75 46.42 87.86 46.77 87.71 47.12 86.38 47.47 85.94 47.82 89.64 48.17 89.34 48.52 90.97 48.86 88.01 49.21 87.42 49.56 90.97 49.91 93.34 50.26 92.01 50.61 92.31 50.96 89.94 51.31 87.42 51.66 86.23 52.01 87.57 52.36 90.82 52.7 91.42 53.05 94.38 53.4 93.05 53.75 94.68 54.1 95.71 54.45 95.56 54.8 97.34 55.15 99.12 55.5 99.86 55.85 103.27 56.2 100.16 56.55 103.56 56.89 102.67 57.24 103.41 57.59 102.97 57.94 105.34 58.29 103.41 58.64 102.08 58.99 103.56 59.34 103.41 59.69 105.04 60.04 105.34 60.39 103.56 60.73 104.45 61.08 106.23 61.43 107.27 61.78 107.86 62.13 108.45 62.48 108.45 62.83 110.08 63.18 109.19 63.53 109.78 63.88 109.49 64.23 108.75 64.58 109.93 64.92 111.56 65.27 113.93 65.62 112.6 65.97 114.38 66.32 112.45 66.67 112.3 67.02 114.38 67.37 114.52 67.72 113.64 68.07 114.67 68.42 115.71 68.77 116.15 69.11 117.64 69.46 117.78 69.81 116.01 70.16 117.93 70.51 118.52 70.86 120.89 71.21 120.15 71.56 118.23 71.91 118.08 72.26 118.23 72.61 119.71 72.95 120.45 73.3 119.41 73.65 118.08 74 117.78 74.35 117.19 74.7 117.93 75.05 116.15 75.4 115.12 75.75 114.82 76.1 113.93 76.45 115.56 76.8 117.04 77.14 117.34 77.49 117.34 77.84 119.56 78.19 119.12 78.54 117.49 78.89 116.45 79.24 116.3 79.59 117.04 79.94 117.64 80.29 116.45 80.64 117.64 80.98 118.67 81.33 121.34 81.68 120.15 82.03 119.12 82.38 117.49 82.73 117.49 83.08 118.38 83.43 119.12 83.78 120.15 84.13 121.78 84.48 123.26 84.83 123.86 85.17 123.56 85.52 125.63 85.87 124 86.22 123.71 86.57 124 86.92 125.63 87.27 125.49 87.62 125.93 87.97 126.52 88.32 128.15 88.67 129.04 89.02 129.04 89.36 128.6 89.71 128.74 90.06 129.04 90.41 129.34 90.76 128.89 91.11 128.3 91.46 129.93 91.81 129.93 92.16 129.63 92.51 129.04 92.86 129.04 93.2 129.19 93.55 129.34 93.9 128.6 94.25 128.45 94.6 128.45 94.95 127.41 95.3 126.37 95.65 125.93 96 126.52 96.35 127.12 96.7 126.97 97.05 127.12 97.39 127.12 97.74 127.12 98.09 127.12 98.44 127.71 98.79 126.82 99.14 125.19 99.49 124.89 99.84 123.71 100.19 126.23 100.54 124.75 100.89 123.41 101.23 121.78 101.58 121.49 101.93 121.49 102.28 120.45 102.63 120.75 102.98 121.49 103.33 120.01 103.68 120.01 104.03 119.26 104.38 121.04 104.73 120.75 105.08 121.34 105.42 120.45 105.77 119.26 106.12 119.56 106.47 118.82 106.82 121.49 107.17 121.04 107.52 120.6 107.87 122.67 108.22 123.26 108.57 123.12 108.92 123.41 109.26 125.19 109.61 125.63 109.96 125.49 110.31 125.49 110.66 125.34 111.01 125.19 111.36 125.34 111.71 125.49 112.06 126.08 112.41 126.08 112.76 127.12 113.11 126.97 113.45 126.82 113.8 126.82 114.15 127.71 114.5 127.56 114.85 127.86 115.2 128.3 115.55 126.97 115.9 126.97 116.25 127.86 116.6 128.45 116.95 128.3 117.3 128.15 117.64 128.74 117.99 129.49 118.34 128.89 118.69 129.04 119.04 129.63 119.39 129.19 119.74 129.04 120.09 129.49 120.44 129.49 120.79 129.63 121.14 130.37 121.48 130.23 121.83 129.93 122.18 130.82 122.53 130.67 122.88 130.37 123.23 130.82 123.58 130.82 123.93 130.97 124.28 131.11"/>
      </g>
      <g stroke-width="0.3" fill="#000000" fill-opacity="0.000" class="geometry" stroke-dasharray="none" stroke="#FFFFBF" id="img-9e220567-14">
        <path fill="none" d="M21.98,71.86 L 22.33 70.23 22.68 68.31 23.03 68.46 23.38 68.31 23.73 69.05 24.08 67.12 24.42 68.31 24.77 70.23 25.12 70.53 25.47 70.83 25.82 74.23 26.17 72.6 26.52 71.72 26.87 67.42 27.22 62.83 27.57 63.42 27.92 62.98 28.27 59.86 28.61 60.16 28.96 61.64 29.31 61.64 29.66 63.57 30.01 67.27 30.36 67.42 30.71 68.46 31.06 66.53 31.41 66.53 31.76 62.68 32.11 60.75 32.45 60.16 32.8 62.09 33.15 59.27 33.5 60.46 33.85 60.01 34.2 59.12 34.55 58.83 34.9 61.49 35.25 60.9 35.6 61.64 35.95 60.61 36.3 61.94 36.64 59.57 36.99 57.94 37.34 57.64 37.69 55.57 38.04 58.98 38.39 59.42 38.74 61.05 39.09 62.23 39.44 61.2 39.79 59.72 40.14 59.12 40.49 57.35 40.83 57.2 41.18 56.31 41.53 56.46 41.88 57.49 42.23 58.09 42.58 52.9 42.93 53.35 43.28 53.35 43.63 51.72 43.98 49.2 44.33 46.53 44.67 46.24 45.02 44.31 45.37 48.46 45.72 48.16 46.07 45.94 46.42 46.83 46.77 46.39 47.12 44.9 47.47 48.16 47.82 47.72 48.17 50.98 48.52 46.09 48.86 43.72 49.21 42.53 49.56 43.72 49.91 41.5 50.26 42.39 50.61 39.42 50.96 37.79 51.31 37.35 51.66 36.9 52.01 38.24 52.36 38.09 52.7 35.28 53.05 35.13 53.4 34.39 53.75 34.39 54.1 36.02 54.45 34.98 54.8 35.87 55.15 36.76 55.5 40.02 55.85 36.61 56.2 38.98 56.55 38.39 56.89 34.83 57.24 31.13 57.59 32.61 57.94 31.72 58.29 28.31 58.64 27.87 58.99 28.61 59.34 28.61 59.69 28.02 60.04 24.91 60.39 23.13 60.73 22.83 61.08 20.61 61.43 21.06 61.78 22.54 62.13 22.98 62.48 21.35 62.83 21.65 63.18 21.8 63.53 20.31 63.88 21.2 64.23 20.17 64.58 20.61 64.92 22.68 65.27 22.09 65.62 23.57 65.97 24.17 66.32 25.8 66.67 26.68 67.02 24.91 67.37 24.61 67.72 22.54 68.07 22.83 68.42 20.46 68.77 18.39 69.11 18.09 69.46 16.76 69.81 17.06 70.16 16.46 70.51 16.76 70.86 17.2 71.21 17.2 71.56 18.83 71.91 17.94 72.26 17.5 72.61 18.24 72.95 19.13 73.3 18.68 73.65 19.72 74 19.87 74.35 19.43 74.7 19.57 75.05 19.57 75.4 19.87 75.75 20.31 76.1 18.98 76.45 19.28 76.8 18.83 77.14 19.28 77.49 19.72 77.84 18.83 78.19 17.94 78.54 17.06 78.89 16.61 79.24 15.57 79.59 16.17 79.94 16.61 80.29 14.83 80.64 14.24 80.98 13.65 81.33 13.94 81.68 14.54 82.03 14.54 82.38 14.39 82.73 14.39 83.08 14.83 83.43 14.39 83.78 15.28 84.13 15.43 84.48 15.28 84.83 14.98 85.17 14.83 85.52 14.98 85.87 14.69 86.22 14.98 86.57 15.28 86.92 15.28 87.27 15.87 87.62 16.46 87.97 16.46 88.32 16.61 88.67 15.72 89.02 16.46 89.36 17.2 89.71 18.68 90.06 17.65 90.41 18.54 90.76 18.24 91.11 18.09 91.46 18.54 91.81 18.09 92.16 16.76 92.51 16.91 92.86 17.06 93.2 16.61 93.55 16.31 93.9 16.17 94.25 17.5 94.6 18.39 94.95 18.98 95.3 18.98 95.65 18.98 96 18.09 96.35 17.5 96.7 17.2 97.05 17.06 97.39 16.31 97.74 15.43 98.09 16.02 98.44 15.13 98.79 15.28 99.14 14.39 99.49 14.69 99.84 14.24 100.19 13.65 100.54 13.8 100.89 13.06 101.23 13.35 101.58 13.65 101.93 13.06 102.28 12.91 102.63 13.2 102.98 13.8 103.33 14.39 103.68 13.94 104.03 13.2 104.38 12.76 104.73 12.76 105.08 12.76 105.42 12.61"/>
      </g>
      <g stroke-width="0.3" fill="#000000" fill-opacity="0.000" class="geometry" stroke-dasharray="none" stroke="#FEE08B" id="img-9e220567-15">
        <path fill="none" d="M21.98,71.86 L 22.33 71.42 22.68 72.16 23.03 71.42 23.38 68.75 23.73 70.38 24.08 69.49 24.42 71.12 24.77 72.16 25.12 70.83 25.47 72.6 25.82 72.31 26.17 70.23 26.52 70.38 26.87 70.09 27.22 71.86 27.57 73.64 27.92 77.34 28.27 78.38 28.61 79.71 28.96 79.12 29.31 79.86 29.66 82.68 30.01 80.6 30.36 81.34 30.71 80.16 31.06 81.94 31.41 79.42 31.76 79.86 32.11 77.64 32.45 76.9 32.8 75.12 33.15 75.57 33.5 75.71 33.85 72.9 34.2 72.31 34.55 72.6 34.9 75.27 35.25 75.86 35.6 74.68 35.95 78.38 36.3 80.45 36.64 79.27 36.99 78.08 37.34 76.46 37.69 72.01 38.04 70.68 38.39 68.9 38.74 68.6 39.09 68.9 39.44 68.31 39.79 68.9 40.14 70.09 40.49 70.83 40.83 69.94 41.18 72.46 41.53 68.6 41.88 66.68 42.23 66.98 42.58 66.68 42.93 69.49 43.28 70.23 43.63 73.49 43.98 71.12 44.33 71.27 44.67 74.38 45.02 71.86 45.37 71.42 45.72 73.49 46.07 74.83 46.42 75.42 46.77 70.23 47.12 68.01 47.47 68.01 47.82 66.83 48.17 69.35 48.52 70.38 48.86 71.27 49.21 69.49 49.56 66.68 49.91 66.68 50.26 68.01 50.61 65.79 50.96 65.35 51.31 63.57 51.66 64.46 52.01 64.61 52.36 61.2 52.7 61.2 53.05 60.46 53.4 58.24 53.75 57.64 54.1 60.16 54.45 61.64 54.8 60.75 55.15 61.05 55.5 60.46 55.85 56.9 56.2 61.2 56.55 60.75 56.89 60.9 57.24 61.2 57.59 66.53 57.94 67.42 58.29 64.61 58.64 65.64 58.99 64.01 59.34 64.9 59.69 62.98 60.04 66.38 60.39 69.79 60.73 66.83 61.08 63.86 61.43 66.23 61.78 67.72 62.13 70.09 62.48 70.83 62.83 70.38 63.18 72.6 63.53 73.64 63.88 75.42 64.23 74.68 64.58 73.34 64.92 69.94 65.27 69.79 65.62 71.12 65.97 68.16 66.32 72.01 66.67 72.31 67.02 75.12 67.37 74.38 67.72 77.34 68.07 75.71 68.42 75.86 68.77 73.64 69.11 74.23 69.46 76.16 69.81 79.57 70.16 79.12 70.51 77.2 70.86 72.46 71.21 74.09 71.56 73.79 71.91 74.97 72.26 76.01 72.61 77.05 72.95 76.6 73.3 72.31 73.65 71.27 74 72.46 74.35 72.46 74.7 70.09 75.05 69.79 75.4 69.35 75.75 69.35 76.1 70.38 76.45 72.16 76.8 72.16 77.14 70.83 77.49 74.23 77.84 70.83 78.19 71.57 78.54 72.16 78.89 72.01 79.24 68.46 79.59 66.38 79.94 63.27 80.29 67.27 80.64 70.38 80.98 69.2 81.33 66.23 81.68 66.68 82.03 66.38 82.38 65.49 82.73 65.2 83.08 66.68 83.43 67.27 83.78 69.49 84.13 68.6 84.48 68.9 84.83 67.12 85.17 63.12 85.52 65.2 85.87 64.61 86.22 64.31 86.57 67.42 86.92 67.27 87.27 70.97 87.62 73.64 87.97 75.42 88.32 77.94 88.67 76.75 89.02 76.31 89.36 74.23 89.71 73.2 90.06 72.9 90.41 69.35 90.76 68.9 91.11 67.42 91.46 67.27 91.81 66.98 92.16 66.68 92.51 67.42 92.86 67.57 93.2 69.35 93.55 70.83 93.9 70.97 94.25 69.94 94.6 69.79 94.95 73.2 95.3 75.27 95.65 72.46 96 67.86 96.35 69.05 96.7 69.05 97.05 69.2 97.39 70.23 97.74 68.16 98.09 65.2 98.44 69.64 98.79 69.79 99.14 68.01 99.49 69.94 99.84 67.12 100.19 66.98 100.54 68.16 100.89 68.01 101.23 68.16 101.58 66.23 101.93 63.57 102.28 66.23 102.63 68.31 102.98 70.09 103.33 70.38 103.68 69.94 104.03 70.09 104.38 71.12 104.73 72.01 105.08 69.49 105.42 69.35 105.77 69.35 106.12 65.05 106.47 67.72 106.82 63.42 107.17 67.42 107.52 67.72 107.87 66.09 108.22 66.83 108.57 63.42 108.92 63.42 109.26 59.27 109.61 60.16 109.96 57.79 110.31 59.57 110.66 58.68 111.01 60.46 111.36 61.94 111.71 61.35 112.06 58.53 112.41 62.38 112.76 61.94 113.11 64.16 113.45 67.42 113.8 67.42 114.15 64.46 114.5 65.94 114.85 69.79 115.2 70.38 115.55 66.98 115.9 67.86 116.25 65.94 116.6 64.46 116.95 65.2 117.3 63.86 117.64 64.9 117.99 66.38 118.34 65.35 118.69 63.57 119.04 64.31 119.39 63.12 119.74 62.68 120.09 62.83 120.44 63.72 120.79 63.57 121.14 61.49 121.48 61.2 121.83 64.01 122.18 63.86 122.53 65.2 122.88 65.94 123.23 67.12 123.58 64.61 123.93 67.72 124.28 70.23 124.63 67.86 124.98 66.68 125.33 68.16 125.67 71.27 126.02 68.46 126.37 67.86 126.72 67.72 127.07 67.42 127.42 68.31 127.77 68.01 128.12 66.38 128.47 69.49 128.82 70.83 129.17 73.05 129.51 72.46 129.86 72.16 130.21 72.01 130.56 72.6 130.91 70.53 131.26 67.86 131.61 67.72 131.96 67.27 132.31 67.86 132.66 68.01 133.01 66.98 133.36 67.42 133.7 65.64 134.05 64.16 134.4 61.79 134.75 60.75 135.1 58.53 135.45 58.38 135.8 60.46 136.15 60.61 136.5 60.31 136.85 58.53 137.2 59.12 137.55 58.24 137.89 54.53 138.24 52.9 138.59 53.2 138.94 52.75 139.29 52.61 139.64 52.16 139.99 49.05 140.34 52.16 140.69 49.2 141.04 50.68 141.39 51.72 141.73 49.05 142.08 47.72 142.43 43.42 142.78 41.35 143.13 43.13 143.48 46.68 143.83 44.9 144.18 45.2 144.53 44.16 144.88 44.9 145.23 46.39 145.58 47.27 145.92 44.02 146.27 45.5 146.62 46.39 146.97 47.42 147.32 46.53 147.67 43.72 148.02 42.83 148.37 41.2 148.72 38.39 149.07 37.5 149.42 36.61 149.76 35.87 150.11 38.53 150.46 33.94 150.81 33.05 151.16 34.98 151.51 34.53 151.86 34.53 152.21 34.09 152.56 35.28 152.91 37.05 153.26 37.5 153.61 38.39 153.95 39.13 154.3 42.53 154.65 42.39 155 38.98 155.35 37.79 155.7 39.42 156.05 38.24 156.4 38.53 156.75 37.35 157.1 35.42 157.45 34.09 157.79 33.2 158.14 33.2 158.49 36.9 158.84 39.42 159.19 40.46 159.54 41.35 159.89 44.46 160.24 46.09 160.59 46.09 160.94 43.72 161.29 42.83 161.64 42.39 161.98 39.87 162.33 38.24 162.68 39.87 163.03 37.79 163.38 37.94 163.73 34.09 164.08 36.02 164.43 36.02 164.78 34.39 165.13 33.94 165.48 34.09 165.83 35.28 166.17 34.68 166.52 35.57 166.87 35.13 167.22 35.57 167.57 36.02 167.92 37.79 168.27 38.09 168.62 40.16 168.97 42.24 169.32 41.5 169.67 42.68 170.01 44.76 170.36 49.2 170.71 47.87 171.06 49.5 171.41 52.31 171.76 51.72 172.11 51.13 172.46 50.24 172.81 48.16 173.16 49.2 173.51 45.79 173.86 47.13 174.2 48.9 174.55 47.42 174.9 45.35 175.25 47.87 175.6 47.27 175.95 47.42 176.3 47.87 176.65 46.68 177 47.13 177.35 48.9 177.7 48.76 178.04 47.13 178.39 48.31 178.74 46.98 179.09 49.35 179.44 44.02 179.79 44.46 180.14 41.64 180.49 39.72 180.84 40.16 181.19 42.09 181.54 43.87 181.89 44.02 182.23 44.76 182.58 45.79 182.93 46.68 183.28 45.94 183.63 45.35 183.98 42.09 184.33 43.57 184.68 43.57 185.03 43.57 185.38 45.64 185.73 43.42 186.08 41.94 186.42 40.16 186.77 41.2 187.12 38.09 187.47 37.2 187.82 36.02 188.17 38.68 188.52 40.46 188.87 42.83 189.22 44.76 189.57 42.24 189.92 42.83 190.26 42.53 190.61 45.35 190.96 45.2 191.31 44.02 191.66 45.35 192.01 44.61 192.36 43.57 192.71 42.53 193.06 43.57 193.41 42.09 193.76 42.24 194.11 42.98 194.45 44.02 194.8 45.64 195.15 43.27 195.5 42.39 195.85 42.98 196.2 39.57"/>
      </g>
      <g stroke-width="0.3" fill="#000000" fill-opacity="0.000" class="geometry" stroke-dasharray="none" stroke="#FDAE61" id="img-9e220567-16">
        <path fill="none" d="M21.98,71.86 L 22.33 71.27 22.68 70.09 23.03 68.46 23.38 66.23 23.73 70.09 24.08 68.16 24.42 67.72 24.77 69.05 25.12 74.38 25.47 75.86 25.82 76.46 26.17 76.31 26.52 77.49 26.87 77.49 27.22 77.05 27.57 77.2 27.92 81.49 28.27 80.6 28.61 81.2 28.96 79.86 29.31 79.12 29.66 80.31 30.01 83.42 30.36 83.86 30.71 81.34 31.06 81.79 31.41 83.57 31.76 83.86 32.11 82.68 32.45 80.45 32.8 79.12 33.15 78.97 33.5 76.75 33.85 80.6 34.2 78.83 34.55 79.57 34.9 80.9 35.25 79.71 35.6 80.45 35.95 81.05 36.3 80.9 36.64 80.01 36.99 79.27 37.34 79.42 37.69 80.31 38.04 76.01 38.39 78.53 38.74 80.31 39.09 77.79 39.44 77.64 39.79 78.53 40.14 80.45 40.49 78.97 40.83 77.79 41.18 77.49 41.53 80.01 41.88 82.82 42.23 84.16 42.58 87.86 42.93 89.49 43.28 89.19 43.63 89.19 43.98 88.31 44.33 91.86 44.67 89.19 45.02 87.42 45.37 88.9 45.72 92.16 46.07 89.64 46.42 93.64 46.77 93.19 47.12 94.08 47.47 91.86 47.82 89.79 48.17 89.79 48.52 85.34 48.86 88.45 49.21 87.71 49.56 83.86 49.91 86.53 50.26 88.16 50.61 90.38 50.96 89.64 51.31 94.23 51.66 94.08 52.01 97.05 52.36 100.45 52.7 99.86 53.05 102.38 53.4 108.15 53.75 108.9 54.1 107.71 54.45 109.04 54.8 109.93 55.15 108.45 55.5 106.97 55.85 108.45 56.2 112.15 56.55 113.49 56.89 111.86 57.24 109.78 57.59 108.01 57.94 109.93 58.29 115.12 58.64 115.71 58.99 115.41 59.34 114.23 59.69 112.75 60.04 114.38 60.39 113.64 60.73 113.34 61.08 115.86 61.43 116.6 61.78 117.49 62.13 119.71 62.48 120.01 62.83 120.75 63.18 120.75 63.53 121.19 63.88 120.6 64.23 122.52 64.58 121.93 64.92 122.38 65.27 123.12 65.62 121.04 65.97 121.19 66.32 122.38 66.67 123.12 67.02 121.93 67.37 120.45 67.72 121.49 68.07 123.71 68.42 121.93 68.77 121.63 69.11 122.38 69.46 121.78 69.81 123.41 70.16 123.71 70.51 123.26 70.86 124.89 71.21 124 71.56 123.71 71.91 124.6 72.26 125.34 72.61 125.93 72.95 125.78 73.3 126.08 73.65 126.67 74 127.12 74.35 127.26 74.7 125.93 75.05 125.49 75.4 125.04 75.75 124.3 76.1 123.56 76.45 121.93 76.8 122.38 77.14 123.12 77.49 121.34 77.84 122.23 78.19 121.63 78.54 122.23 78.89 122.67 79.24 120.01 79.59 118.97 79.94 118.23 80.29 116.45 80.64 114.38 80.98 115.71 81.33 117.49 81.68 118.67 82.03 119.12 82.38 119.56 82.73 119.26 83.08 119.26 83.43 118.97 83.78 119.26 84.13 119.12 84.48 120.75 84.83 121.04 85.17 120.75 85.52 119.86 85.87 117.19 86.22 118.97 86.57 118.82 86.92 121.19 87.27 120.75 87.62 121.49 87.97 121.49 88.32 119.71 88.67 118.08 89.02 118.08 89.36 116.75 89.71 118.08 90.06 117.78 90.41 118.67 90.76 119.71 91.11 118.97 91.46 119.26 91.81 121.04 92.16 119.56 92.51 119.56 92.86 119.26 93.2 118.82 93.55 120.3 93.9 121.34 94.25 122.23 94.6 122.52 94.95 122.23 95.3 122.52 95.65 122.52 96 122.52 96.35 123.56 96.7 122.97 97.05 122.97 97.39 123.26 97.74 123.56 98.09 122.52 98.44 124 98.79 122.82 99.14 122.67 99.49 123.71 99.84 123.12 100.19 122.97 100.54 121.63 100.89 121.49 101.23 120.75 101.58 122.08 101.93 120.75 102.28 122.38 102.63 122.23 102.98 122.67 103.33 124.3 103.68 125.34 104.03 126.52 104.38 127.41 104.73 128.3 105.08 127.26 105.42 126.08 105.77 126.23 106.12 126.23 106.47 126.97 106.82 128 107.17 127.86 107.52 128.3 107.87 128.89 108.22 129.93 108.57 130.08 108.92 130.52 109.26 130.52 109.61 130.67 109.96 130.82 110.31 130.52 110.66 130.67 111.01 129.93 111.36 130.08 111.71 130.37 112.06 130.82 112.41 130.67 112.76 130.52 113.11 130.52 113.45 130.37 113.8 130.82 114.15 130.08 114.5 129.63 114.85 129.49 115.2 129.19 115.55 128.6 115.9 129.04 116.25 128.45 116.6 129.63 116.95 130.08 117.3 129.34 117.64 130.08 117.99 130.23 118.34 130.37 118.69 130.37 119.04 130.23 119.39 130.52 119.74 130.67 120.09 130.23 120.44 130.52 120.79 130.37 121.14 130.23 121.48 130.08 121.83 130.08 122.18 130.08 122.53 130.23 122.88 130.08 123.23 130.52 123.58 130.67 123.93 130.97 124.28 131.11"/>
      </g>
      <g stroke-width="0.3" fill="#000000" fill-opacity="0.000" class="geometry" stroke-dasharray="none" stroke="#F46D43" id="img-9e220567-17">
        <path fill="none" d="M21.98,71.86 L 22.33 70.23 22.68 69.64 23.03 70.83 23.38 72.01 23.73 73.49 24.08 71.27 24.42 73.34 24.77 70.23 25.12 72.46 25.47 68.9 25.82 70.53 26.17 73.34 26.52 72.75 26.87 75.12 27.22 75.27 27.57 77.05 27.92 76.6 28.27 73.34 28.61 71.42 28.96 71.57 29.31 73.79 29.66 73.49 30.01 74.09 30.36 72.75 30.71 76.01 31.06 76.9 31.41 76.31 31.76 70.53 32.11 66.38 32.45 64.16 32.8 65.94 33.15 64.16 33.5 64.16 33.85 62.09 34.2 60.75 34.55 61.35 34.9 57.94 35.25 57.35 35.6 59.57 35.95 58.83 36.3 57.49 36.64 56.61 36.99 55.27 37.34 56.16 37.69 56.01 38.04 56.61 38.39 55.72 38.74 55.12 39.09 54.09 39.44 56.16 39.79 53.5 40.14 55.12 40.49 56.61 40.83 55.87 41.18 56.46 41.53 54.83 41.88 55.12 42.23 54.09 42.58 53.5 42.93 54.53 43.28 55.27 43.63 53.64 43.98 52.01 44.33 51.57 44.67 54.09 45.02 53.2 45.37 53.5 45.72 50.68 46.07 50.83 46.42 54.68 46.77 56.75 47.12 58.68 47.47 60.16 47.82 60.46 48.17 61.05 48.52 63.86 48.86 61.05 49.21 60.31 49.56 59.86 49.91 55.72 50.26 56.01 50.61 56.31 50.96 53.35 51.31 53.94 51.66 55.72 52.01 56.01 52.36 56.75 52.7 55.57 53.05 55.12 53.4 50.09 53.75 53.94 54.1 56.01 54.45 51.87 54.8 51.42 55.15 50.83 55.5 53.79 55.85 55.57 56.2 55.27 56.55 56.16 56.89 58.98 57.24 57.64 57.59 58.68 57.94 58.98 58.29 57.05 58.64 56.75 58.99 56.46 59.34 55.57 59.69 56.31 60.04 58.24 60.39 57.2 60.73 54.38 61.08 54.09 61.43 52.46 61.78 56.9 62.13 54.53 62.48 52.75 62.83 50.09 63.18 50.38 63.53 49.35 63.88 48.9 64.23 51.42 64.58 50.83 64.92 50.98 65.27 48.9 65.62 50.24 65.97 49.05 66.32 50.68 66.67 52.16 67.02 50.24 67.37 49.2 67.72 47.42 68.07 47.42 68.42 50.09 68.77 50.53 69.11 51.27 69.46 52.16 69.81 53.05 70.16 54.24 70.51 51.72 70.86 52.9 71.21 52.75 71.56 51.72 71.91 53.35 72.26 55.12 72.61 53.94 72.95 55.42 73.3 57.94 73.65 57.05 74 57.2 74.35 56.46 74.7 55.57 75.05 55.57 75.4 55.12 75.75 53.05 76.1 51.72 76.45 51.72 76.8 52.61 77.14 53.94 77.49 54.68 77.84 55.12 78.19 55.12 78.54 52.31 78.89 51.87 79.24 52.46 79.59 50.38 79.94 50.38 80.29 49.94 80.64 53.5 80.98 54.38 81.33 53.64 81.68 53.79 82.03 49.05 82.38 49.79 82.73 49.35 83.08 46.83 83.43 46.68 83.78 45.79 84.13 45.35 84.48 43.72 84.83 48.76 85.17 45.35 85.52 48.76 85.87 48.61 86.22 48.76 86.57 46.53 86.92 45.2 87.27 43.27 87.62 44.16 87.97 44.02 88.32 43.87 88.67 47.57 89.02 49.64 89.36 49.94 89.71 49.79 90.06 50.09 90.41 49.2 90.76 49.05 91.11 48.76 91.46 50.98 91.81 51.72 92.16 52.31 92.51 51.42 92.86 49.64 93.2 46.53 93.55 46.24 93.9 46.24 94.25 47.42 94.6 46.83 94.95 49.5 95.3 52.46 95.65 51.72 96 50.68 96.35 52.16 96.7 52.16 97.05 53.2 97.39 52.9 97.74 49.64 98.09 51.87 98.44 51.87 98.79 52.46 99.14 50.24 99.49 52.46 99.84 50.83 100.19 49.79 100.54 50.98 100.89 50.09 101.23 50.09 101.58 51.13 101.93 48.9 102.28 50.24 102.63 53.5 102.98 50.83 103.33 52.9 103.68 53.5 104.03 54.24 104.38 55.57 104.73 52.75 105.08 52.75 105.42 52.46 105.77 50.24 106.12 54.83 106.47 56.46 106.82 55.27 107.17 55.42 107.52 55.12 107.87 54.09 108.22 54.24 108.57 54.09 108.92 55.42 109.26 54.83 109.61 55.42 109.96 54.38 110.31 53.2 110.66 52.46 111.01 53.64 111.36 52.01 111.71 50.38 112.06 47.57 112.41 47.57 112.76 47.57 113.11 47.27 113.45 48.9 113.8 48.76 114.15 50.68 114.5 50.68 114.85 49.94 115.2 49.79 115.55 51.27 115.9 51.42 116.25 55.12 116.6 57.64 116.95 59.42 117.3 58.53 117.64 58.83 117.99 60.16 118.34 64.31 118.69 65.79 119.04 62.98 119.39 66.53 119.74 64.16 120.09 61.79 120.44 60.16 120.79 58.68 121.14 57.79 121.48 61.94 121.83 63.27 122.18 64.9 122.53 67.57 122.88 70.97 123.23 69.94 123.58 73.05 123.93 73.94 124.28 71.42 124.63 70.68 124.98 69.64 125.33 66.53 125.67 68.31 126.02 70.38 126.37 71.57 126.72 70.53 127.07 67.72 127.42 66.68 127.77 67.42 128.12 68.01 128.47 68.31 128.82 70.83 129.17 70.53 129.51 70.68 129.86 68.46 130.21 68.6 130.56 68.01 130.91 66.98 131.26 69.35 131.61 69.05 131.96 65.79 132.31 69.49 132.66 67.12 133.01 68.9 133.36 65.49 133.7 64.31 134.05 63.72 134.4 67.72 134.75 68.16 135.1 65.35 135.45 64.9 135.8 64.61 136.15 65.64 136.5 66.38 136.85 68.01 137.2 70.23 137.55 70.68 137.89 73.64 138.24 70.68 138.59 74.97 138.94 76.6 139.29 75.71 139.64 73.2 139.99 71.86 140.34 72.46 140.69 72.46 141.04 75.27 141.39 74.68 141.73 74.38 142.08 70.23 142.43 68.75 142.78 71.27 143.13 75.86 143.48 79.71 143.83 79.42 144.18 77.64 144.53 76.16 144.88 75.42 145.23 77.05 145.58 79.71 145.92 81.49 146.27 80.01 146.62 77.64 146.97 76.9 147.32 71.72 147.67 72.31 148.02 70.83 148.37 70.53 148.72 72.46 149.07 69.94 149.42 70.09 149.76 68.75 150.11 68.9 150.46 65.35 150.81 64.31 151.16 64.9 151.51 65.05 151.86 63.86 152.21 64.01 152.56 59.72 152.91 60.01 153.26 62.38 153.61 63.42 153.95 65.49 154.3 65.94 154.65 62.23 155 62.38 155.35 61.64 155.7 60.75 156.05 59.27 156.4 56.61 156.75 59.42 157.1 60.31 157.45 62.68 157.79 61.05 158.14 59.72 158.49 60.75 158.84 61.79 159.19 63.42 159.54 65.94 159.89 65.79 160.24 65.49 160.59 66.53 160.94 68.16 161.29 70.97 161.64 68.01 161.98 68.31 162.33 64.16 162.68 62.09 163.03 64.01 163.38 66.68 163.73 68.16 164.08 70.68 164.43 70.68 164.78 68.16 165.13 68.9 165.48 64.75 165.83 66.98 166.17 66.68 166.52 66.53 166.87 64.46 167.22 65.79 167.57 65.94 167.92 65.64 168.27 64.61 168.62 64.9 168.97 65.64 169.32 66.23 169.67 65.49 170.01 62.23 170.36 64.16 170.71 62.83 171.06 64.01 171.41 65.49 171.76 66.83 172.11 64.75 172.46 64.01 172.81 64.46 173.16 65.05 173.51 65.35 173.86 68.16 174.2 66.53 174.55 63.12 174.9 64.9 175.25 65.35 175.6 65.64 175.95 67.27 176.3 68.46 176.65 68.6 177 71.12 177.35 71.42 177.7 74.83 178.04 72.75 178.39 70.83 178.74 68.16 179.09 64.46 179.44 61.94 179.79 65.49 180.14 59.86 180.49 64.31 180.84 68.9 181.19 71.86 181.54 72.9 181.89 70.83 182.23 69.35 182.58 66.83 182.93 67.72 183.28 68.16 183.63 66.68 183.98 66.09 184.33 68.01 184.68 70.38 185.03 66.68 185.38 67.86 185.73 66.53 186.08 64.9 186.42 63.42 186.77 65.05 187.12 62.23 187.47 62.83 187.82 60.16 188.17 56.75 188.52 58.38 188.87 58.38 189.22 57.94 189.57 59.57 189.92 60.75 190.26 58.24 190.61 60.46 190.96 59.12 191.31 62.23 191.66 61.79 192.01 58.53 192.36 59.12 192.71 60.75 193.06 62.68 193.41 63.27 193.76 65.05 194.11 65.49 194.45 65.94 194.8 68.46 195.15 65.64 195.5 64.16 195.85 67.57 196.2 67.57"/>
      </g>
      <g stroke-width="0.3" fill="#000000" fill-opacity="0.000" class="geometry" stroke-dasharray="none" stroke="#D53E4F" id="img-9e220567-18">
        <path fill="none" d="M21.98,71.86 L 22.33 69.05 22.68 68.31 23.03 67.86 23.38 66.38 23.73 68.6 24.08 68.01 24.42 67.42 24.77 68.46 25.12 64.61 25.47 65.05 25.82 65.05 26.17 65.05 26.52 62.09 26.87 57.2 27.22 56.01 27.57 52.9 27.92 52.9 28.27 50.09 28.61 52.01 28.96 52.9 29.31 50.68 29.66 49.94 30.01 51.57 30.36 48.76 30.71 47.27 31.06 45.79 31.41 45.94 31.76 45.05 32.11 44.61 32.45 45.05 32.8 46.39 33.15 47.42 33.5 47.13 33.85 47.13 34.2 46.53 34.55 45.64 34.9 45.64 35.25 44.46 35.6 46.24 35.95 46.68 36.3 47.42 36.64 45.79 36.99 46.98 37.34 49.05 37.69 51.13 38.04 51.13 38.39 51.72 38.74 51.27 39.09 50.68 39.44 53.64 39.79 54.98 40.14 49.2 40.49 49.64 40.83 46.98 41.18 46.09 41.53 47.87 41.88 47.57 42.23 49.94 42.58 48.46 42.93 47.13 43.28 49.05 43.63 51.72 43.98 50.09 44.33 46.09 44.67 43.87 45.02 46.24 45.37 45.64 45.72 44.46 46.07 44.9 46.42 43.27 46.77 45.2 47.12 45.35 47.47 43.27 47.82 47.87 48.17 49.94 48.52 51.42 48.86 49.94 49.21 48.16 49.56 46.09 49.91 47.72 50.26 50.83 50.61 48.31 50.96 46.98 51.31 45.35 51.66 44.02 52.01 45.79 52.36 44.61 52.7 44.16 53.05 41.2 53.4 41.2 53.75 41.05 54.1 45.5 54.45 48.01 54.8 47.42 55.15 44.46 55.5 45.64 55.85 43.57 56.2 46.53 56.55 44.02 56.89 39.72 57.24 38.83 57.59 37.5 57.94 39.27 58.29 36.31 58.64 38.68 58.99 36.9 59.34 37.2 59.69 39.13 60.04 38.39 60.39 37.79 60.73 42.09 61.08 40.16 61.43 39.27 61.78 42.68 62.13 40.9 62.48 41.94 62.83 44.16 63.18 44.16 63.53 44.16 63.88 44.02 64.23 43.72 64.58 42.98 64.92 44.61 65.27 43.42 65.62 42.83 65.97 41.05 66.32 41.2 66.67 38.83 67.02 42.09 67.37 42.98 67.72 42.83 68.07 45.05 68.42 41.35 68.77 42.83 69.11 41.2 69.46 40.9 69.81 41.79 70.16 40.31 70.51 40.61 70.86 39.72 71.21 39.57 71.56 39.42 71.91 38.98 72.26 38.09 72.61 38.39 72.95 37.79 73.3 36.76 73.65 36.31 74 35.42 74.35 32.31 74.7 31.57 75.05 31.28 75.4 32.16 75.75 34.98 76.1 34.24 76.45 33.05 76.8 33.2 77.14 33.65 77.49 34.98 77.84 35.87 78.19 35.72 78.54 36.9 78.89 37.35 79.24 38.39 79.59 38.83 79.94 36.9 80.29 38.24 80.64 39.13 80.98 37.94 81.33 39.13 81.68 39.42 82.03 36.76 82.38 38.68 82.73 42.68 83.08 42.53 83.43 44.31 83.78 44.9 84.13 45.35 84.48 46.09 84.83 43.27 85.17 45.64 85.52 45.94 85.87 45.5 86.22 43.13 86.57 45.35 86.92 42.68 87.27 42.53 87.62 41.5 87.97 41.64 88.32 40.76 88.67 41.2 89.02 45.79 89.36 44.46 89.71 46.24 90.06 45.64 90.41 46.83 90.76 47.27 91.11 45.35 91.46 44.46 91.81 45.64 92.16 47.13 92.51 49.05 92.86 47.57 93.2 48.61 93.55 45.79 93.9 46.98 94.25 48.9 94.6 47.72 94.95 49.2 95.3 50.98 95.65 48.61 96 48.61 96.35 52.16 96.7 50.38 97.05 47.57 97.39 48.61 97.74 50.98 98.09 52.01 98.44 50.53 98.79 49.94 99.14 47.42 99.49 46.39 99.84 48.01 100.19 47.27 100.54 47.42 100.89 44.76 101.23 43.57 101.58 44.02 101.93 46.24 102.28 45.79 102.63 47.72 102.98 50.24 103.33 48.9 103.68 50.09 104.03 50.68 104.38 48.9 104.73 48.46 105.08 46.09 105.42 48.76 105.77 50.53 106.12 48.9 106.47 48.9 106.82 49.05 107.17 49.05 107.52 48.46 107.87 45.94 108.22 44.9 108.57 45.2 108.92 43.57 109.26 42.39 109.61 41.05 109.96 40.9 110.31 39.87 110.66 38.53 111.01 41.5 111.36 43.87 111.71 45.5 112.06 44.46 112.41 46.39 112.76 48.9 113.11 47.87 113.45 50.83 113.8 51.13 114.15 50.09 114.5 50.38 114.85 50.09 115.2 51.57 115.55 49.64 115.9 49.5 116.25 48.9 116.6 47.42 116.95 49.94 117.3 51.87 117.64 53.05 117.99 51.13 118.34 49.64 118.69 49.35 119.04 49.5 119.39 46.24 119.74 46.39 120.09 47.27 120.44 45.35 120.79 43.13 121.14 40.9 121.48 42.39 121.83 44.46 122.18 45.94 122.53 45.2 122.88 48.01 123.23 46.53 123.58 46.53 123.93 44.31 124.28 41.2 124.63 42.68 124.98 39.27 125.33 40.76 125.67 39.57 126.02 36.76 126.37 35.57 126.72 35.42 127.07 35.87 127.42 34.53 127.77 36.02 128.12 34.24 128.47 33.2 128.82 34.39 129.17 33.35 129.51 33.35 129.86 33.79 130.21 34.53 130.56 34.24 130.91 32.31 131.26 34.68 131.61 35.72 131.96 37.65 132.31 36.16 132.66 34.68 133.01 34.68 133.36 34.09 133.7 34.68 134.05 35.42 134.4 33.79 134.75 33.5 135.1 33.94 135.45 35.57 135.8 37.65 136.15 37.79 136.5 37.2 136.85 39.42 137.2 40.76 137.55 41.94 137.89 40.31 138.24 37.79 138.59 36.46 138.94 36.9 139.29 34.39 139.64 31.57 139.99 30.54 140.34 30.98 140.69 31.87 141.04 31.87 141.39 33.79 141.73 31.13 142.08 32.02 142.43 32.61 142.78 31.72 143.13 31.42 143.48 29.94 143.83 28.76 144.18 28.76 144.53 29.5 144.88 29.5 145.23 28.31 145.58 27.57 145.92 29.65 146.27 29.2 146.62 28.17 146.97 28.02 147.32 26.39 147.67 24.31 148.02 23.87 148.37 24.02 148.72 24.61 149.07 25.94 149.42 25.2 149.76 25.8 150.11 24.31 150.46 25.94 150.81 26.54 151.16 26.09 151.51 23.72 151.86 23.43 152.21 24.02 152.56 23.57 152.91 24.91 153.26 24.02 153.61 22.09 153.95 19.72 154.3 20.76 154.65 19.43 155 20.02 155.35 21.06 155.7 22.98 156.05 20.91 156.4 19.28 156.75 18.68 157.1 17.8 157.45 17.35 157.79 18.09 158.14 18.83 158.49 18.68 158.84 18.83 159.19 18.39 159.54 17.35 159.89 18.09 160.24 17.8 160.59 19.43 160.94 19.87 161.29 19.13 161.64 19.72 161.98 18.98 162.33 18.54 162.68 17.8 163.03 17.06 163.38 17.2 163.73 17.5 164.08 17.8 164.43 17.94 164.78 17.8 165.13 17.35 165.48 17.2 165.83 18.39 166.17 16.46 166.52 15.28 166.87 14.98 167.22 15.28 167.57 16.02 167.92 16.46 168.27 16.91 168.62 17.35 168.97 18.09 169.32 17.65 169.67 18.83 170.01 18.54 170.36 18.98 170.71 20.76 171.06 20.31 171.41 20.91 171.76 21.65 172.11 20.31 172.46 18.98 172.81 18.98 173.16 18.68 173.51 17.35 173.86 16.91 174.2 17.65 174.55 17.65 174.9 17.5 175.25 16.76 175.6 16.76 175.95 16.61 176.3 16.02 176.65 17.35 177 16.76 177.35 16.91 177.7 17.06 178.04 18.54 178.39 19.28 178.74 18.83 179.09 17.8 179.44 17.2 179.79 16.31 180.14 16.17 180.49 16.02 180.84 16.46 181.19 17.35 181.54 17.06 181.89 16.17 182.23 14.98 182.58 14.83 182.93 14.98 183.28 14.54 183.63 14.24 183.98 13.65 184.33 13.2 184.68 13.06 185.03 12.76 185.38 12.91 185.73 12.91 186.08 13.06 186.42 13.2 186.77 12.91 187.12 13.06 187.47 13.06 187.82 13.06 188.17 12.76 188.52 12.61"/>
      </g>
      <g stroke-width="0.3" fill="#000000" fill-opacity="0.000" class="geometry" stroke-dasharray="none" stroke="#9E0142" id="img-9e220567-19">
        <path fill="none" d="M21.98,71.86 L 22.33 71.86 22.68 73.49 23.03 72.31 23.38 72.16 23.73 74.53 24.08 74.68 24.42 77.05 24.77 78.83 25.12 80.45 25.47 80.75 25.82 83.86 26.17 84.75 26.52 85.05 26.87 84.6 27.22 83.71 27.57 83.27 27.92 79.42 28.27 78.38 28.61 77.34 28.96 77.2 29.31 76.16 29.66 77.34 30.01 77.94 30.36 75.27 30.71 68.46 31.06 68.75 31.41 69.79 31.76 69.49 32.11 68.46 32.45 65.79 32.8 62.23 33.15 58.09 33.5 57.49 33.85 55.27 34.2 57.05 34.55 54.98 34.9 50.53 35.25 50.53 35.6 51.42 35.95 52.46 36.3 53.5 36.64 55.12 36.99 53.35 37.34 55.12 37.69 56.9 38.04 54.09 38.39 53.79 38.74 54.53 39.09 54.68 39.44 57.35 39.79 56.16 40.14 55.57 40.49 56.01 40.83 58.98 41.18 58.38 41.53 59.12 41.88 61.35 42.23 61.2 42.58 60.01 42.93 58.98 43.28 61.2 43.63 60.9 43.98 60.31 44.33 59.57 44.67 62.09 45.02 65.49 45.37 64.16 45.72 64.9 46.07 65.2 46.42 66.23 46.77 66.23 47.12 67.86 47.47 69.64 47.82 72.01 48.17 68.6 48.52 66.38 48.86 64.61 49.21 63.12 49.56 64.46 49.91 66.38 50.26 67.57 50.61 65.49 50.96 66.23 51.31 66.38 51.66 65.35 52.01 68.46 52.36 71.86 52.7 69.2 53.05 65.2 53.4 67.12 53.75 68.01 54.1 71.27 54.45 73.94 54.8 75.42 55.15 73.05 55.5 73.2 55.85 73.49 56.2 75.86 56.55 75.57 56.89 76.6 57.24 76.6 57.59 78.53 57.94 80.31 58.29 83.57 58.64 81.64 58.99 84.16 59.34 87.27 59.69 88.31 60.04 88.01 60.39 86.68 60.73 86.23 61.08 85.19 61.43 80.6 61.78 79.42 62.13 83.27 62.48 81.64 62.83 83.27 63.18 83.86 63.53 82.23 63.88 84.45 64.23 82.68 64.58 82.97 64.92 85.94 65.27 82.97 65.62 80.9 65.97 78.53 66.32 75.42 66.67 74.97 67.02 76.31 67.37 77.05 67.72 78.08 68.07 79.42 68.42 78.08 68.77 78.08 69.11 80.75 69.46 82.23 69.81 80.45 70.16 79.71 70.51 80.45 70.86 77.94 71.21 81.49 71.56 81.79 71.91 77.79 72.26 81.64 72.61 82.97 72.95 81.79 73.3 80.75 73.65 80.75 74 81.2 74.35 85.19 74.7 83.12 75.05 83.86 75.4 82.68 75.75 85.49 76.1 86.08 76.45 86.38 76.8 86.08 77.14 88.9 77.49 86.82 77.84 89.19 78.19 93.79 78.54 94.82 78.89 94.08 79.24 96.75 79.59 95.86 79.94 90.53 80.29 90.23 80.64 92.31 80.98 93.79 81.33 93.93 81.68 94.68 82.03 94.38 82.38 94.53 82.73 95.71 83.08 97.19 83.43 94.53 83.78 93.64 84.13 97.19 84.48 97.93 84.83 97.34 85.17 99.42 85.52 96.01 85.87 97.49 86.22 97.64 86.57 98.23 86.92 95.12 87.27 95.86 87.62 94.82 87.97 97.64 88.32 97.05 88.67 95.86 89.02 94.97 89.36 93.64 89.71 92.6 90.06 93.19 90.41 90.23 90.76 88.45 91.11 88.9 91.46 89.79 91.81 88.75 92.16 90.23 92.51 90.97 92.86 90.23 93.2 91.12 93.55 90.53 93.9 89.94 94.25 94.68 94.6 95.71 94.95 98.23 95.3 95.71 95.65 97.19 96 96.01 96.35 97.64 96.7 98.53 97.05 101.04 97.39 100.9 97.74 100.3 98.09 104.16 98.44 105.93 98.79 105.34 99.14 105.78 99.49 107.27 99.84 109.34 100.19 108.75 100.54 107.56 100.89 108.45 101.23 108.01 101.58 108.15 101.93 110.23 102.28 111.86 102.63 111.56 102.98 113.93 103.33 112.6 103.68 110.53 104.03 110.08 104.38 112.3 104.73 112.3 105.08 109.93 105.42 110.23 105.77 109.93 106.12 109.64 106.47 111.56 106.82 112.75 107.17 111.41 107.52 113.04 107.87 112.9 108.22 111.56 108.57 113.64 108.92 113.93 109.26 114.23 109.61 114.67 109.96 114.08 110.31 115.71 110.66 115.86 111.01 114.52 111.36 114.67 111.71 116.89 112.06 115.27 112.41 114.82 112.76 113.19 113.11 115.27 113.45 117.78 113.8 116.15 114.15 116.75 114.5 119.12 114.85 118.23 115.2 118.38 115.55 118.82 115.9 119.86 116.25 121.04 116.6 121.49 116.95 121.49 117.3 120.15 117.64 120.75 117.99 120.45 118.34 119.26 118.69 120.6 119.04 119.12 119.39 118.38 119.74 119.86 120.09 120.45 120.44 120.6 120.79 122.08 121.14 123.12 121.48 121.78 121.83 121.49 122.18 121.93 122.53 122.67 122.88 123.12 123.23 120.6 123.58 122.52 123.93 121.49 124.28 121.19 124.63 120.75 124.98 119.86 125.33 117.93 125.67 116.45 126.02 116.45 126.37 118.97 126.72 118.08 127.07 118.82 127.42 119.41 127.77 120.3 128.12 121.63 128.47 119.71 128.82 118.52 129.17 118.52 129.51 115.86 129.86 118.23 130.21 117.19 130.56 119.86 130.91 119.41 131.26 119.12 131.61 120.01 131.96 119.26 132.31 119.12 132.66 122.82 133.01 120.6 133.36 120.75 133.7 119.86 134.05 118.52 134.4 118.08 134.75 116.01 135.1 118.08 135.45 116.75 135.8 115.12 136.15 114.82 136.5 116.75 136.85 115.86 137.2 115.12 137.55 117.93 137.89 117.64 138.24 117.93 138.59 115.71 138.94 113.93 139.29 114.23 139.64 115.12 139.99 115.41 140.34 115.41 140.69 113.93 141.04 112.9 141.39 113.19 141.73 114.08 142.08 114.38 142.43 114.97 142.78 116.89 143.13 116.45 143.48 117.04 143.83 113.93 144.18 114.23 144.53 116.01 144.88 117.93 145.23 115.86 145.58 116.45 145.92 118.08 146.27 120.3 146.62 118.97 146.97 118.97 147.32 121.04 147.67 122.97 148.02 123.12 148.37 123.12 148.72 124.75 149.07 125.34 149.42 124.75 149.76 124.3 150.11 125.04 150.46 125.49 150.81 125.63 151.16 124.75 151.51 125.49 151.86 125.93 152.21 124.15 152.56 123.41 152.91 124.15 153.26 126.82 153.61 128 153.95 127.86 154.3 128 154.65 128 155 128.45 155.35 128.45 155.7 129.49 156.05 130.08 156.4 129.93 156.75 130.37 157.1 130.37 157.45 130.67 157.79 130.67 158.14 130.52 158.49 130.82 158.84 130.97 159.19 131.11"/>
      </g>
    </g>
  </g>
</g>
  <g class="guide ylabels" font-size="2.82" font-family="'PT Sans Caption','Helvetica Neue','Helvetica',sans-serif" fill="#000000" id="img-9e220567-20">
    <text x="18.63" y="131.11" text-anchor="end" dy="0.35em">0</text>
    <text x="18.63" y="101.49" text-anchor="end" dy="0.35em">200</text>
    <text x="18.63" y="71.86" text-anchor="end" dy="0.35em">400</text>
    <text x="18.63" y="42.24" text-anchor="end" dy="0.35em">600</text>
    <text x="18.63" y="12.61" text-anchor="end" dy="0.35em">800</text>
  </g>
  <g font-size="3.88" font-family="'PT Sans','Helvetica Neue','Helvetica',sans-serif" fill="#000000" stroke="#000000" stroke-opacity="0.000" id="img-9e220567-21">
    <text x="8.81" y="69.86" text-anchor="middle" dy="0.35em" transform="rotate(-90, 8.81, 71.86)">population number</text>
  </g>
  <g font-size="3.88" font-family="'PT Sans','Helvetica Neue','Helvetica',sans-serif" fill="#000000" stroke="#000000" stroke-opacity="0.000" id="img-9e220567-22">
    <text x="108.92" y="5" text-anchor="middle" dy="0.6em">genetic drift</text>
  </g>
</g>
<defs>
  <clipPath id="img-9e220567-4">
  <path d="M19.63,10.61 L 198.2 10.61 198.2 133.11 19.63 133.11" />
</clipPath>
</defs>
</svg>
