<?xml version="1.0" encoding="UTF-8"?>
<svg xmlns="http://www.w3.org/2000/svg"
     xmlns:xlink="http://www.w3.org/1999/xlink"
     xmlns:gadfly="http://www.gadflyjl.org/ns"
     version="1.2"
     width="203.2mm" height="152.4mm" viewBox="0 0 203.2 152.4"
     stroke="none"
     fill="#000000"
     stroke-width="0.3"
     font-size="3.88"
>
<g class="plotroot xscalable yscalable" id="img-302b83d0-1">
  <g font-size="3.88" font-family="'PT Sans','Helvetica Neue','Helvetica',sans-serif" fill="#000000" stroke="#000000" stroke-opacity="0.000" id="img-302b83d0-2">
    <text x="108.92" y="140.79" text-anchor="middle" dy="0.6em">generation number</text>
  </g>
  <g class="guide xlabels" font-size="2.82" font-family="'PT Sans Caption','Helvetica Neue','Helvetica',sans-serif" fill="#000000" id="img-302b83d0-3">
    <text x="21.63" y="134.11" text-anchor="middle" dy="0.6em">0</text>
    <text x="56.55" y="134.11" text-anchor="middle" dy="0.6em">100</text>
    <text x="91.46" y="134.11" text-anchor="middle" dy="0.6em">200</text>
    <text x="126.37" y="134.11" text-anchor="middle" dy="0.6em">300</text>
    <text x="161.29" y="134.11" text-anchor="middle" dy="0.6em">400</text>
    <text x="196.2" y="134.11" text-anchor="middle" dy="0.6em">500</text>
  </g>
<g clip-path="url(#img-302b83d0-4)">
  <g id="img-302b83d0-5">
    <g pointer-events="visible" opacity="1" fill="#FFFFFF" stroke="#000000" stroke-opacity="0.000" class="guide background" id="img-302b83d0-6">
      <rect x="19.63" y="10.61" width="178.57" height="122.5"/>
    </g>
    <g class="guide ygridlines xfixed" stroke-dasharray="0.5,0.5" stroke-width="0.2" stroke="#808080" id="img-302b83d0-7">
      <path fill="none" d="M19.63,131.11 L 198.2 131.11"/>
      <path fill="none" d="M19.63,101.49 L 198.2 101.49"/>
      <path fill="none" d="M19.63,71.86 L 198.2 71.86"/>
      <path fill="none" d="M19.63,42.24 L 198.2 42.24"/>
      <path fill="none" d="M19.63,12.61 L 198.2 12.61"/>
    </g>
    <g class="guide xgridlines yfixed" stroke-dasharray="0.5,0.5" stroke-width="0.2" stroke="#808080" id="img-302b83d0-8">
      <path fill="none" d="M21.63,10.61 L 21.63 133.11"/>
      <path fill="none" d="M56.55,10.61 L 56.55 133.11"/>
      <path fill="none" d="M91.46,10.61 L 91.46 133.11"/>
      <path fill="none" d="M126.37,10.61 L 126.37 133.11"/>
      <path fill="none" d="M161.29,10.61 L 161.29 133.11"/>
      <path fill="none" d="M196.2,10.61 L 196.2 133.11"/>
    </g>
    <g class="plotpanel" id="img-302b83d0-9">
      <g stroke-width="0.3" fill="#000000" fill-opacity="0.000" class="geometry" stroke-dasharray="none" stroke="#3288BD" id="img-302b83d0-10">
        <path fill="none" d="M21.98,71.86 L 22.33 69.49 22.68 68.31 23.03 64.16 23.38 66.53 23.73 64.75 24.08 62.98 24.42 59.42 24.77 58.83 25.12 57.05 25.47 52.9 25.82 60.01 26.17 64.75 26.52 62.98 26.87 70.68 27.22 71.27 27.57 76.01 27.92 68.9 28.27 68.9 28.61 66.53 28.96 61.2 29.31 60.01 29.66 65.35 30.01 59.42 30.36 55.87 30.71 57.64 31.06 50.53 31.41 48.76 31.76 48.76 32.11 49.35 32.45 49.94 32.8 50.53 33.15 44.02 33.5 42.24 33.85 42.24 34.2 44.61 34.55 41.05 34.9 38.68 35.25 32.16 35.6 33.94 35.95 29.2 36.3 23.28 36.64 21.5 36.99 22.09 37.34 20.91 37.69 20.31 38.04 18.54 38.39 17.35 38.74 15.57 39.09 18.54 39.44 20.91 39.79 20.91 40.14 24.46 40.49 26.83 40.83 22.68 41.18 23.87 41.53 25.65 41.88 29.79 42.23 27.42 42.58 28.61 42.93 25.65 43.28 28.61 43.63 32.76 43.98 33.94 44.33 30.39 44.67 32.76 45.02 43.42 45.37 44.61 45.72 46.39 46.07 44.02 46.42 45.2 46.77 42.24 47.12 45.2 47.47 49.35 47.82 54.09 48.17 52.9 48.52 49.94 48.86 45.79 49.21 40.46 49.56 39.27 49.91 39.27 50.26 44.02 50.61 42.83 50.96 47.57 51.31 46.39 51.66 45.2 52.01 48.16 52.36 48.76 52.7 41.05 53.05 38.68 53.4 38.68 53.75 38.09 54.1 36.31 54.45 37.5 54.8 33.35 55.15 30.39 55.5 30.98 55.85 29.79 56.2 29.79 56.55 32.76 56.89 30.39 57.24 29.79 57.59 30.98 57.94 34.53 58.29 42.24 58.64 36.31 58.99 39.87 59.34 48.16 59.69 57.64 60.04 58.24 60.39 55.27 60.73 57.05 61.08 57.64 61.43 60.01 61.78 56.46 62.13 56.46 62.48 55.27 62.83 52.9 63.18 54.68 63.53 64.16 63.88 61.79 64.23 64.75 64.58 57.64 64.92 58.24 65.27 58.24 65.62 50.53 65.97 50.53 66.32 50.53 66.67 45.79 67.02 42.24 67.37 42.24 67.72 39.27 68.07 36.31 68.42 36.9 68.77 35.72 69.11 39.87 69.46 42.83 69.81 44.02 70.16 49.35 70.51 49.94 70.86 45.2 71.21 44.02 71.56 51.72 71.91 51.72 72.26 54.68 72.61 57.05 72.95 57.64 73.3 55.27 73.65 57.64 74 55.27 74.35 53.5 74.7 52.31 75.05 52.9 75.4 55.27 75.75 54.68 76.1 54.09 76.45 56.46 76.8 59.42 77.14 60.01 77.49 58.83 77.84 59.42 78.19 57.05 78.54 47.57 78.89 45.79 79.24 48.16 79.59 41.64 79.94 38.09 80.29 36.31 80.64 37.5 80.98 33.94 81.33 33.35 81.68 33.35 82.03 37.5 82.38 37.5 82.73 34.53 83.08 36.31 83.43 39.27 83.78 44.02 84.13 47.57 84.48 55.87 84.83 59.42 85.17 58.24 85.52 55.27 85.87 54.68 86.22 52.31 86.57 51.13 86.92 49.94 87.27 50.53 87.62 47.57 87.97 46.98 88.32 49.94 88.67 60.61 89.02 63.57 89.36 69.49 89.71 73.64 90.06 69.49 90.41 71.86 90.76 73.64 91.11 75.42 91.46 74.23 91.81 73.05 92.16 76.01 92.51 71.86 92.86 77.2 93.2 74.23 93.55 73.64 93.9 67.72 94.25 71.86 94.6 75.42 94.95 76.6 95.3 80.16 95.65 78.97 96 77.79 96.35 77.2 96.7 74.83 97.05 78.38 97.39 77.79 97.74 73.05 98.09 74.23 98.44 76.01 98.79 76.01 99.14 77.79 99.49 73.05 99.84 74.83 100.19 74.23 100.54 73.05 100.89 74.23 101.23 73.05 101.58 76.6 101.93 71.27 102.28 74.83 102.63 73.05 102.98 74.83 103.33 70.68 103.68 70.09 104.03 72.46 104.38 70.68 104.73 70.09 105.08 69.49 105.42 71.86 105.77 74.23 106.12 74.23 106.47 75.42 106.82 65.94 107.17 67.72 107.52 64.75 107.87 68.31 108.22 77.79 108.57 74.23 108.92 73.05 109.26 71.27 109.61 81.34 109.96 81.94 110.31 86.68 110.66 78.97 111.01 73.05 111.36 70.68 111.71 73.05 112.06 78.97 112.41 71.86 112.76 81.34 113.11 75.42 113.45 77.2 113.8 81.34 114.15 73.05 114.5 73.05 114.85 78.97 115.2 76.01 115.55 75.42 115.9 73.05 116.25 68.31 116.6 71.27 116.95 70.68 117.3 69.49 117.64 70.68 117.99 74.23 118.34 80.16 118.69 82.53 119.04 79.57 119.39 81.94 119.74 85.49 120.09 82.53 120.44 89.05 120.79 87.27 121.14 88.45 121.48 86.08 121.83 89.64 122.18 84.31 122.53 87.27 122.88 91.42 123.23 94.38 123.58 94.97 123.93 96.75 124.28 95.56 124.63 96.75 124.98 94.97 125.33 98.53 125.67 102.67 126.02 97.34 126.37 97.93 126.72 95.56 127.07 94.38 127.42 86.68 127.77 90.23 128.12 99.12 128.47 98.53 128.82 96.16 129.17 104.45 129.51 102.08 129.86 108.6 130.21 113.93 130.56 114.52 130.91 113.93 131.26 109.78 131.61 109.19 131.96 111.56 132.31 113.93 132.66 115.71 133.01 114.52 133.36 109.78 133.7 108.01 134.05 107.41 134.4 105.64 134.75 103.27 135.1 109.78 135.45 110.38 135.8 114.52 136.15 114.52 136.5 119.86 136.85 118.67 137.2 121.63 137.55 116.3 137.89 116.89 138.24 116.89 138.59 119.26 138.94 118.08 139.29 119.86 139.64 118.08 139.99 118.08 140.34 115.12 140.69 117.49 141.04 124 141.39 125.19 141.73 124 142.08 125.19 142.43 128.15 142.78 125.78 143.13 124 143.48 125.19 143.83 124 144.18 119.86 144.53 121.04 144.88 120.45 145.23 115.71 145.58 113.93 145.92 119.26 146.27 116.89 146.62 119.26 146.97 118.08 147.32 115.12 147.67 113.93 148.02 114.52 148.37 118.67 148.72 118.08 149.07 116.3 149.42 119.86 149.76 119.86 150.11 121.04 150.46 122.82 150.81 125.78 151.16 126.37 151.51 127.56 151.86 128.15 152.21 126.37 152.56 128.15 152.91 128.74 153.26 128.15 153.61 129.34 153.95 130.52 154.3 131.11"/>
      </g>
      <g stroke-width="0.3" fill="#000000" fill-opacity="0.000" class="geometry" stroke-dasharray="none" stroke="#66C2A5" id="img-302b83d0-11">
        <path fill="none" d="M21.98,71.86 L 22.33 64.75 22.68 65.94 23.03 57.05 23.38 65.35 23.73 67.12 24.08 65.35 24.42 60.61 24.77 55.27 25.12 52.9 25.47 56.46 25.82 61.2 26.17 67.72 26.52 65.35 26.87 61.2 27.22 62.38 27.57 61.79 27.92 64.75 28.27 61.2 28.61 61.79 28.96 57.64 29.31 59.42 29.66 60.01 30.01 65.35 30.36 65.35 30.71 60.01 31.06 64.75 31.41 60.01 31.76 54.09 32.11 52.31 32.45 54.68 32.8 64.16 33.15 62.98 33.5 60.01 33.85 62.38 34.2 59.42 34.55 63.57 34.9 64.16 35.25 60.61 35.6 63.57 35.95 62.38 36.3 65.94 36.64 65.94 36.99 70.09 37.34 60.01 37.69 54.09 38.04 52.9 38.39 49.94 38.74 51.13 39.09 52.9 39.44 48.16 39.79 46.39 40.14 46.98 40.49 50.53 40.83 55.27 41.18 53.5 41.53 57.05 41.88 54.68 42.23 55.27 42.58 53.5 42.93 55.87 43.28 52.31 43.63 51.13 43.98 60.01 44.33 61.2 44.67 63.57 45.02 68.9 45.37 71.86 45.72 68.9 46.07 77.79 46.42 80.16 46.77 83.71 47.12 91.42 47.47 91.42 47.82 87.27 48.17 92.6 48.52 96.16 48.86 95.56 49.21 94.97 49.56 88.45 49.91 93.79 50.26 89.64 50.61 97.34 50.96 95.56 51.31 89.64 51.66 89.64 52.01 89.05 52.36 88.45 52.7 86.08 53.05 99.71 53.4 97.34 53.75 97.34 54.1 94.38 54.45 94.97 54.8 95.56 55.15 93.19 55.5 96.75 55.85 97.34 56.2 99.71 56.55 93.79 56.89 93.79 57.24 96.75 57.59 94.97 57.94 92.6 58.29 97.34 58.64 96.16 58.99 96.16 59.34 96.16 59.69 92.01 60.04 92.01 60.39 94.38 60.73 99.71 61.08 100.3 61.43 98.53 61.78 102.67 62.13 100.3 62.48 102.67 62.83 109.19 63.18 104.45 63.53 97.93 63.88 100.9 64.23 98.53 64.58 103.86 64.92 101.49 65.27 106.82 65.62 112.75 65.97 117.49 66.32 115.71 66.67 113.93 67.02 109.19 67.37 115.12 67.72 116.89 68.07 119.26 68.42 115.12 68.77 118.67 69.11 112.75 69.46 109.19 69.81 109.19 70.16 114.52 70.51 110.97 70.86 110.97 71.21 106.82 71.56 101.49 71.91 100.9 72.26 104.45 72.61 100.9 72.95 100.9 73.3 105.04 73.65 112.15 74 110.97 74.35 116.89 74.7 117.49 75.05 118.08 75.4 120.45 75.75 117.49 76.1 119.86 76.45 121.04 76.8 119.86 77.14 122.23 77.49 119.26 77.84 119.26 78.19 117.49 78.54 120.45 78.89 118.67 79.24 116.89 79.59 121.63 79.94 119.86 80.29 121.63 80.64 124.6 80.98 126.97 81.33 127.56 81.68 124.6 82.03 125.19 82.38 124.6 82.73 124.6 83.08 126.37 83.43 126.97 83.78 126.37 84.13 125.78 84.48 126.97 84.83 127.56 85.17 126.97 85.52 126.97 85.87 125.19 86.22 124.6 86.57 123.41 86.92 122.82 87.27 122.23 87.62 121.04 87.97 120.45 88.32 117.49 88.67 115.71 89.02 121.63 89.36 121.04 89.71 122.82 90.06 122.82 90.41 122.82 90.76 122.23 91.11 120.45 91.46 116.3 91.81 116.3 92.16 119.26 92.51 119.26 92.86 114.52 93.2 111.56 93.55 110.97 93.9 110.97 94.25 106.82 94.6 105.04 94.95 105.64 95.3 111.56 95.65 112.75 96 109.19 96.35 108.6 96.7 108.01 97.05 110.38 97.39 108.6 97.74 110.38 98.09 108.6 98.44 113.34 98.79 114.52 99.14 112.75 99.49 112.15 99.84 107.41 100.19 109.78 100.54 108.6 100.89 104.45 101.23 108.01 101.58 109.19 101.93 110.97 102.28 111.56 102.63 109.19 102.98 110.38 103.33 109.19 103.68 109.78 104.03 104.45 104.38 108.01 104.73 106.23 105.08 108.01 105.42 102.67 105.77 102.08 106.12 106.82 106.47 103.27 106.82 103.27 107.17 102.67 107.52 99.71 107.87 96.16 108.22 99.12 108.57 105.64 108.92 108.6 109.26 110.97 109.61 112.15 109.96 115.71 110.31 112.75 110.66 114.52 111.01 121.04 111.36 119.26 111.71 125.19 112.06 122.82 112.41 121.63 112.76 121.04 113.11 121.04 113.45 126.37 113.8 127.56 114.15 127.56 114.5 125.19 114.85 122.23 115.2 127.56 115.55 127.56 115.9 127.56 116.25 126.97 116.6 126.97 116.95 128.74 117.3 129.34 117.64 128.15 117.99 127.56 118.34 129.93 118.69 128.15 119.04 127.56 119.39 128.15 119.74 126.37 120.09 127.56 120.44 122.82 120.79 119.86 121.14 119.86 121.48 118.08 121.83 113.93 122.18 114.52 122.53 114.52 122.88 116.89 123.23 113.93 123.58 107.41 123.93 107.41 124.28 107.41 124.63 110.97 124.98 110.97 125.33 114.52 125.67 118.08 126.02 116.3 126.37 113.93 126.72 111.56 127.07 100.9 127.42 103.27 127.77 100.9 128.12 97.34 128.47 99.71 128.82 103.27 129.17 104.45 129.51 104.45 129.86 98.53 130.21 106.23 130.56 103.86 130.91 105.64 131.26 105.04 131.61 103.27 131.96 102.08 132.31 103.86 132.66 106.82 133.01 102.08 133.36 103.27 133.7 105.64 134.05 110.38 134.4 112.15 134.75 114.52 135.1 110.97 135.45 110.97 135.8 115.71 136.15 108.6 136.5 102.08 136.85 100.3 137.2 99.12 137.55 99.71 137.89 102.67 138.24 101.49 138.59 102.08 138.94 106.82 139.29 103.27 139.64 105.64 139.99 102.67 140.34 97.34 140.69 91.42 141.04 90.82 141.39 86.08 141.73 83.71 142.08 88.45 142.43 86.68 142.78 78.38 143.13 76.6 143.48 76.6 143.83 76.01 144.18 76.01 144.53 71.86 144.88 70.09 145.23 77.2 145.58 78.38 145.92 77.2 146.27 79.57 146.62 78.97 146.97 78.38 147.32 79.57 147.67 81.94 148.02 81.94 148.37 88.45 148.72 87.27 149.07 87.86 149.42 93.79 149.76 99.12 150.11 92.01 150.46 88.45 150.81 84.31 151.16 86.08 151.51 80.16 151.86 86.68 152.21 90.23 152.56 85.49 152.91 84.9 153.26 86.68 153.61 85.49 153.95 76.01 154.3 71.27 154.65 73.05 155 71.27 155.35 64.16 155.7 69.49 156.05 71.86 156.4 70.68 156.75 71.86 157.1 71.27 157.45 71.27 157.79 73.05 158.14 71.27 158.49 69.49 158.84 65.35 159.19 67.12 159.54 62.38 159.89 60.01 160.24 61.2 160.59 59.42 160.94 57.05 161.29 61.79 161.64 59.42 161.98 65.35 162.33 67.12 162.68 70.09 163.03 73.05 163.38 78.97 163.73 81.34 164.08 78.38 164.43 77.2 164.78 83.71 165.13 82.53 165.48 79.57 165.83 77.2 166.17 73.64 166.52 77.79 166.87 77.79 167.22 71.86 167.57 70.68 167.92 70.09 168.27 68.9 168.62 71.27 168.97 72.46 169.32 71.86 169.67 75.42 170.01 68.31 170.36 65.35 170.71 63.57 171.06 69.49 171.41 76.6 171.76 78.38 172.11 79.57 172.46 80.75 172.81 76.01 173.16 77.79 173.51 70.68 173.86 71.86 174.2 66.53 174.55 59.42 174.9 61.2 175.25 61.79 175.6 60.61 175.95 55.87 176.3 53.5 176.65 60.01 177 54.09 177.35 55.27 177.7 50.53 178.04 53.5 178.39 56.46 178.74 57.05 179.09 57.05 179.44 48.76 179.79 41.64 180.14 42.83 180.49 46.39 180.84 51.72 181.19 51.13 181.54 53.5 181.89 58.24 182.23 61.2 182.58 58.24 182.93 60.61 183.28 64.16 183.63 55.87 183.98 54.68 184.33 58.24 184.68 64.16 185.03 66.53 185.38 59.42 185.73 61.2 186.08 62.98 186.42 63.57 186.77 67.12 187.12 67.12 187.47 68.9 187.82 60.01 188.17 60.01 188.52 57.64 188.87 59.42 189.22 66.53 189.57 70.68 189.92 74.23 190.26 71.86 190.61 74.83 190.96 76.6 191.31 76.6 191.66 79.57 192.01 83.12 192.36 80.16 192.71 80.75 193.06 77.2 193.41 76.01 193.76 76.01 194.11 77.79 194.45 77.79 194.8 84.9 195.15 84.31 195.5 86.68 195.85 83.71 196.2 81.94"/>
      </g>
      <g stroke-width="0.3" fill="#000000" fill-opacity="0.000" class="geometry" stroke-dasharray="none" stroke="#ABDDA4" id="img-302b83d0-12">
        <path fill="none" d="M21.98,71.86 L 22.33 65.94 22.68 70.09 23.03 68.9 23.38 71.86 23.73 77.2 24.08 82.53 24.42 82.53 24.77 77.2 25.12 82.53 25.47 83.12 25.82 83.71 26.17 90.23 26.52 80.75 26.87 77.2 27.22 75.42 27.57 72.46 27.92 75.42 28.27 74.23 28.61 72.46 28.96 71.27 29.31 62.98 29.66 58.24 30.01 49.35 30.36 41.05 30.71 46.39 31.06 50.53 31.41 46.98 31.76 42.83 32.11 50.53 32.45 57.64 32.8 52.9 33.15 54.68 33.5 51.72 33.85 48.76 34.2 51.13 34.55 54.09 34.9 50.53 35.25 55.27 35.6 49.94 35.95 55.27 36.3 50.53 36.64 52.31 36.99 46.98 37.34 51.13 37.69 52.9 38.04 54.68 38.39 49.94 38.74 51.72 39.09 55.87 39.44 50.53 39.79 46.98 40.14 47.57 40.49 48.76 40.83 50.53 41.18 46.98 41.53 49.94 41.88 42.24 42.23 47.57 42.58 49.94 42.93 48.76 43.28 46.98 43.63 48.76 43.98 53.5 44.33 46.98 44.67 46.39 45.02 49.94 45.37 52.9 45.72 46.98 46.07 40.46 46.42 37.5 46.77 38.68 47.12 39.27 47.47 36.31 47.82 34.53 48.17 33.35 48.52 32.16 48.86 32.76 49.21 29.79 49.56 32.16 49.91 32.76 50.26 32.76 50.61 32.76 50.96 39.87 51.31 37.5 51.66 39.27 52.01 46.98 52.36 49.35 52.7 48.16 53.05 44.61 53.4 37.5 53.75 38.09 54.1 38.68 54.45 38.09 54.8 42.24 55.15 45.2 55.5 44.02 55.85 39.87 56.2 35.72 56.55 35.13 56.89 36.9 57.24 41.64 57.59 42.24 57.94 44.02 58.29 39.87 58.64 39.87 58.99 39.27 59.34 32.76 59.69 32.76 60.04 29.2 60.39 27.42 60.73 26.83 61.08 30.39 61.43 28.61 61.78 31.57 62.13 33.94 62.48 31.57 62.83 38.68 63.18 36.31 63.53 43.42 63.88 46.98 64.23 49.35 64.58 49.94 64.92 46.98 65.27 43.42 65.62 44.02 65.97 44.02 66.32 40.46 66.67 42.83 67.02 50.53 67.37 55.87 67.72 52.31 68.07 50.53 68.42 52.9 68.77 60.61 69.11 59.42 69.46 65.94 69.81 64.16 70.16 57.64 70.51 60.01 70.86 63.57 71.21 64.75 71.56 58.24 71.91 57.05 72.26 53.5 72.61 52.31 72.95 52.9 73.3 57.05 73.65 53.5 74 57.64 74.35 60.01 74.7 58.24 75.05 56.46 75.4 52.31 75.75 55.27 76.1 51.13 76.45 46.98 76.8 45.2 77.14 43.42 77.49 42.83 77.84 41.05 78.19 46.39 78.54 46.98 78.89 51.72 79.24 51.13 79.59 56.46 79.94 59.42 80.29 56.46 80.64 50.53 80.98 48.76 81.33 57.05 81.68 58.24 82.03 55.87 82.38 60.61 82.73 62.98 83.08 59.42 83.43 65.35 83.78 64.75 84.13 64.16 84.48 52.31 84.83 48.76 85.17 49.94 85.52 52.31 85.87 56.46 86.22 58.83 86.57 66.53 86.92 69.49 87.27 70.68 87.62 68.31 87.97 65.94 88.32 68.9 88.67 76.01 89.02 77.79 89.36 80.75 89.71 81.34 90.06 84.31 90.41 85.49 90.76 78.97 91.11 82.53 91.46 76.01 91.81 68.9 92.16 67.72 92.51 70.68 92.86 70.68 93.2 73.05 93.55 74.23 93.9 74.83 94.25 80.75 94.6 81.34 94.95 81.34 95.3 75.42 95.65 73.64 96 70.68 96.35 74.23 96.7 75.42 97.05 82.53 97.39 80.75 97.74 85.49 98.09 85.49 98.44 87.27 98.79 82.53 99.14 78.97 99.49 81.34 99.84 84.31 100.19 74.83 100.54 74.83 100.89 74.23 101.23 70.68 101.58 73.64 101.93 69.49 102.28 67.72 102.63 62.98 102.98 68.9 103.33 74.83 103.68 73.64 104.03 73.05 104.38 70.68 104.73 74.83 105.08 66.53 105.42 68.31 105.77 73.64 106.12 77.79 106.47 72.46 106.82 76.6 107.17 83.12 107.52 84.31 107.87 78.97 108.22 82.53 108.57 80.16 108.92 86.68 109.26 84.31 109.61 86.08 109.96 83.12 110.31 81.34 110.66 84.31 111.01 89.64 111.36 85.49 111.71 86.08 112.06 81.94 112.41 84.9 112.76 84.9 113.11 76.6 113.45 73.64 113.8 68.31 114.15 70.68 114.5 72.46 114.85 71.86 115.2 73.64 115.55 73.64 115.9 81.34 116.25 73.05 116.6 65.35 116.95 72.46 117.3 74.23 117.64 68.9 117.99 73.64 118.34 72.46 118.69 67.72 119.04 65.94 119.39 58.83 119.74 64.75 120.09 71.27 120.44 70.09 120.79 68.9 121.14 70.09 121.48 73.64 121.83 70.68 122.18 71.86 122.53 70.68 122.88 70.09 123.23 68.9 123.58 71.86 123.93 72.46 124.28 77.2 124.63 84.31 124.98 87.86 125.33 89.05 125.67 90.82 126.02 89.05 126.37 90.23 126.72 82.53 127.07 77.79 127.42 74.83 127.77 74.23 128.12 76.01 128.47 76.01 128.82 78.38 129.17 74.23 129.51 68.9 129.86 64.16 130.21 58.24 130.56 58.83 130.91 55.27 131.26 52.9 131.61 49.35 131.96 48.16 132.31 58.24 132.66 58.83 133.01 54.68 133.36 51.13 133.7 54.09 134.05 45.79 134.4 44.02 134.75 43.42 135.1 44.61 135.45 44.02 135.8 42.24 136.15 36.31 136.5 35.13 136.85 34.53 137.2 34.53 137.55 30.39 137.89 30.39 138.24 30.98 138.59 28.02 138.94 31.57 139.29 28.61 139.64 30.98 139.99 33.94 140.34 29.2 140.69 28.02 141.04 29.79 141.39 28.61 141.73 25.65 142.08 28.61 142.43 28.61 142.78 29.79 143.13 32.16 143.48 28.02 143.83 26.24 144.18 27.42 144.53 22.68 144.88 23.87 145.23 26.83 145.58 31.57 145.92 32.76 146.27 29.2 146.62 28.02 146.97 22.68 147.32 22.68 147.67 19.72 148.02 21.5 148.37 20.91 148.72 22.09 149.07 25.05 149.42 22.09 149.76 19.13 150.11 17.94 150.46 20.91 150.81 22.09 151.16 20.91 151.51 20.31 151.86 16.17 152.21 15.57 152.56 14.39 152.91 14.39 153.26 17.35 153.61 15.57 153.95 15.57 154.3 16.76 154.65 13.8 155 13.8 155.35 13.8 155.7 13.8 156.05 14.39 156.4 13.8 156.75 14.39 157.1 13.8 157.45 13.2 157.79 14.39 158.14 13.8 158.49 12.61"/>
      </g>
      <g stroke-width="0.3" fill="#000000" fill-opacity="0.000" class="geometry" stroke-dasharray="none" stroke="#E6F598" id="img-302b83d0-13">
        <path fill="none" d="M21.98,71.86 L 22.33 70.09 22.68 71.27 23.03 70.68 23.38 66.53 23.73 67.12 24.08 65.94 24.42 70.68 24.77 76.6 25.12 70.09 25.47 85.49 25.82 86.08 26.17 89.64 26.52 93.79 26.87 94.97 27.22 99.71 27.57 106.82 27.92 99.12 28.27 97.93 28.61 98.53 28.96 100.9 29.31 105.04 29.66 108.01 30.01 110.38 30.36 113.34 30.71 116.3 31.06 117.49 31.41 116.3 31.76 116.89 32.11 115.71 32.45 108.6 32.8 112.15 33.15 116.3 33.5 115.12 33.85 111.56 34.2 108.01 34.55 106.82 34.9 106.23 35.25 109.19 35.6 108.01 35.95 108.01 36.3 107.41 36.64 108.6 36.99 108.6 37.34 105.64 37.69 104.45 38.04 105.64 38.39 111.56 38.74 119.86 39.09 121.63 39.44 125.78 39.79 126.37 40.14 124.6 40.49 125.19 40.83 124 41.18 126.37 41.53 126.37 41.88 124 42.23 124 42.58 125.19 42.93 122.23 43.28 125.78 43.63 127.56 43.98 129.34 44.33 129.93 44.67 128.74 45.02 129.34 45.37 129.93 45.72 129.93 46.07 129.93 46.42 130.52 46.77 131.11"/>
      </g>
      <g stroke-width="0.3" fill="#000000" fill-opacity="0.000" class="geometry" stroke-dasharray="none" stroke="#FFFFBF" id="img-302b83d0-14">
        <path fill="none" d="M21.98,71.86 L 22.33 68.31 22.68 70.68 23.03 71.27 23.38 74.83 23.73 74.23 24.08 73.64 24.42 67.72 24.77 62.98 25.12 65.35 25.47 67.12 25.82 72.46 26.17 65.94 26.52 71.27 26.87 66.53 27.22 60.01 27.57 58.24 27.92 55.87 28.27 52.31 28.61 56.46 28.96 58.24 29.31 58.83 29.66 55.27 30.01 59.42 30.36 57.64 30.71 62.98 31.06 62.38 31.41 62.98 31.76 60.61 32.11 67.72 32.45 71.27 32.8 71.27 33.15 68.31 33.5 67.72 33.85 64.16 34.2 60.01 34.55 65.94 34.9 62.38 35.25 62.38 35.6 66.53 35.95 69.49 36.3 66.53 36.64 67.12 36.99 65.35 37.34 62.98 37.69 67.12 38.04 70.09 38.39 71.27 38.74 70.09 39.09 76.01 39.44 71.86 39.79 74.23 40.14 71.86 40.49 73.64 40.83 67.12 41.18 67.72 41.53 67.72 41.88 71.27 42.23 64.16 42.58 71.86 42.93 64.75 43.28 67.12 43.63 69.49 43.98 76.6 44.33 80.75 44.67 78.38 45.02 80.16 45.37 73.05 45.72 68.9 46.07 68.31 46.42 74.23 46.77 78.97 47.12 78.38 47.47 76.6 47.82 74.83 48.17 78.38 48.52 81.34 48.86 81.34 49.21 82.53 49.56 82.53 49.91 87.27 50.26 93.79 50.61 97.93 50.96 98.53 51.31 100.3 51.66 96.75 52.01 100.9 52.36 103.27 52.7 106.82 53.05 102.67 53.4 108.01 53.75 113.93 54.1 116.3 54.45 116.89 54.8 118.08 55.15 116.89 55.5 116.3 55.85 121.04 56.2 122.23 56.55 120.45 56.89 118.67 57.24 119.86 57.59 124.6 57.94 126.37 58.29 125.78 58.64 129.34 58.99 130.52 59.34 130.52 59.69 131.11"/>
      </g>
      <g stroke-width="0.3" fill="#000000" fill-opacity="0.000" class="geometry" stroke-dasharray="none" stroke="#FEE08B" id="img-302b83d0-15">
        <path fill="none" d="M21.98,71.86 L 22.33 74.83 22.68 76.6 23.03 76.6 23.38 80.75 23.73 82.53 24.08 81.34 24.42 81.94 24.77 81.94 25.12 89.64 25.47 93.19 25.82 92.6 26.17 92.6 26.52 90.23 26.87 92.6 27.22 90.23 27.57 87.86 27.92 85.49 28.27 81.94 28.61 78.97 28.96 82.53 29.31 76.01 29.66 72.46 30.01 70.09 30.36 65.35 30.71 64.75 31.06 68.9 31.41 70.09 31.76 74.83 32.11 73.64 32.45 72.46 32.8 69.49 33.15 74.83 33.5 73.64 33.85 68.31 34.2 70.09 34.55 68.9 34.9 65.35 35.25 68.31 35.6 59.42 35.95 61.79 36.3 62.98 36.64 56.46 36.99 55.27 37.34 55.27 37.69 51.13 38.04 53.5 38.39 51.72 38.74 47.57 39.09 43.42 39.44 42.83 39.79 41.05 40.14 35.72 40.49 35.72 40.83 36.31 41.18 30.98 41.53 32.76 41.88 31.57 42.23 37.5 42.58 42.24 42.93 42.83 43.28 39.27 43.63 41.05 43.98 41.64 44.33 39.87 44.67 43.42 45.02 40.46 45.37 44.02 45.72 44.02 46.07 36.9 46.42 39.87 46.77 39.27 47.12 36.31 47.47 32.76 47.82 32.76 48.17 35.13 48.52 30.39 48.86 26.83 49.21 26.24 49.56 24.46 49.91 23.87 50.26 22.09 50.61 17.35 50.96 17.94 51.31 17.35 51.66 22.09 52.01 20.31 52.36 17.94 52.7 16.17 53.05 16.17 53.4 15.57 53.75 14.98 54.1 13.8 54.45 13.2 54.8 12.61"/>
      </g>
      <g stroke-width="0.3" fill="#000000" fill-opacity="0.000" class="geometry" stroke-dasharray="none" stroke="#FDAE61" id="img-302b83d0-16">
        <path fill="none" d="M21.98,71.86 L 22.33 72.46 22.68 71.86 23.03 64.75 23.38 67.72 23.73 67.72 24.08 67.72 24.42 69.49 24.77 73.64 25.12 80.75 25.47 76.6 25.82 77.79 26.17 81.94 26.52 87.27 26.87 80.75 27.22 80.16 27.57 84.31 27.92 88.45 28.27 90.82 28.61 93.79 28.96 95.56 29.31 99.71 29.66 100.3 30.01 93.19 30.36 92.6 30.71 91.42 31.06 91.42 31.41 90.23 31.76 87.27 32.11 85.49 32.45 86.08 32.8 83.71 33.15 85.49 33.5 89.64 33.85 89.05 34.2 89.05 34.55 84.31 34.9 90.82 35.25 94.38 35.6 90.82 35.95 92.6 36.3 91.42 36.64 86.08 36.99 84.31 37.34 85.49 37.69 84.31 38.04 80.16 38.39 77.2 38.74 74.23 39.09 70.68 39.44 62.98 39.79 69.49 40.14 64.16 40.49 55.27 40.83 55.87 41.18 49.94 41.53 54.09 41.88 50.53 42.23 51.72 42.58 47.57 42.93 48.16 43.28 46.98 43.63 48.76 43.98 42.83 44.33 43.42 44.67 41.64 45.02 40.46 45.37 35.72 45.72 38.09 46.07 36.9 46.42 38.09 46.77 37.5 47.12 35.13 47.47 30.98 47.82 29.79 48.17 30.98 48.52 26.24 48.86 26.83 49.21 31.57 49.56 33.35 49.91 30.98 50.26 33.35 50.61 26.83 50.96 28.02 51.31 28.61 51.66 30.98 52.01 31.57 52.36 32.76 52.7 38.09 53.05 33.94 53.4 29.79 53.75 33.35 54.1 26.83 54.45 30.98 54.8 30.98 55.15 28.02 55.5 28.02 55.85 30.39 56.2 25.05 56.55 28.61 56.89 32.76 57.24 29.2 57.59 29.79 57.94 34.53 58.29 29.79 58.64 33.35 58.99 32.16 59.34 36.9 59.69 30.98 60.04 35.13 60.39 36.31 60.73 34.53 61.08 33.94 61.43 34.53 61.78 33.94 62.13 35.72 62.48 27.42 62.83 26.24 63.18 22.68 63.53 23.28 63.88 23.28 64.23 20.31 64.58 25.65 64.92 25.65 65.27 25.65 65.62 22.09 65.97 25.05 66.32 29.2 66.67 24.46 67.02 23.87 67.37 24.46 67.72 20.31 68.07 23.28 68.42 28.02 68.77 30.39 69.11 30.39 69.46 29.2 69.81 30.98 70.16 28.61 70.51 31.57 70.86 29.79 71.21 28.02 71.56 30.98 71.91 26.24 72.26 25.05 72.61 24.46 72.95 26.24 73.3 23.28 73.65 22.68 74 20.31 74.35 16.76 74.7 19.13 75.05 18.54 75.4 19.13 75.75 17.94 76.1 19.13 76.45 22.68 76.8 16.17 77.14 14.98 77.49 14.98 77.84 14.98 78.19 16.17 78.54 17.94 78.89 18.54 79.24 16.76 79.59 14.39 79.94 14.98 80.29 14.98 80.64 14.39 80.98 13.8 81.33 15.57 81.68 18.54 82.03 16.17 82.38 17.94 82.73 16.76 83.08 16.17 83.43 16.76 83.78 16.17 84.13 16.76 84.48 17.94 84.83 17.94 85.17 16.17 85.52 15.57 85.87 15.57 86.22 18.54 86.57 17.35 86.92 19.72 87.27 17.94 87.62 16.17 87.97 17.35 88.32 18.54 88.67 17.94 89.02 17.94 89.36 16.17 89.71 15.57 90.06 15.57 90.41 15.57 90.76 17.35 91.11 17.35 91.46 16.17 91.81 16.76 92.16 14.98 92.51 13.8 92.86 13.2 93.2 14.39 93.55 12.61"/>
      </g>
      <g stroke-width="0.3" fill="#000000" fill-opacity="0.000" class="geometry" stroke-dasharray="none" stroke="#F46D43" id="img-302b83d0-17">
        <path fill="none" d="M21.98,71.86 L 22.33 70.09 22.68 76.6 23.03 71.27 23.38 65.35 23.73 67.12 24.08 65.94 24.42 68.31 24.77 65.94 25.12 66.53 25.47 75.42 25.82 73.64 26.17 70.68 26.52 85.49 26.87 84.9 27.22 86.08 27.57 89.05 27.92 88.45 28.27 81.34 28.61 79.57 28.96 80.75 29.31 81.34 29.66 89.05 30.01 82.53 30.36 86.68 30.71 86.08 31.06 90.82 31.41 95.56 31.76 93.79 32.11 90.23 32.45 90.82 32.8 95.56 33.15 93.19 33.5 86.08 33.85 86.08 34.2 90.82 34.55 84.31 34.9 81.94 35.25 77.79 35.6 74.83 35.95 74.83 36.3 71.27 36.64 73.05 36.99 74.83 37.34 76.6 37.69 78.97 38.04 77.2 38.39 79.57 38.74 80.75 39.09 78.38 39.44 77.79 39.79 76.01 40.14 83.71 40.49 89.05 40.83 84.31 41.18 83.71 41.53 78.97 41.88 77.79 42.23 80.16 42.58 80.16 42.93 76.01 43.28 70.68 43.63 72.46 43.98 73.05 44.33 77.79 44.67 74.23 45.02 73.64 45.37 71.86 45.72 68.31 46.07 70.09 46.42 72.46 46.77 75.42 47.12 77.79 47.47 74.23 47.82 77.2 48.17 77.2 48.52 86.08 48.86 88.45 49.21 87.27 49.56 95.56 49.91 94.38 50.26 93.79 50.61 96.75 50.96 100.3 51.31 97.34 51.66 100.9 52.01 103.27 52.36 98.53 52.7 102.08 53.05 100.3 53.4 97.93 53.75 96.16 54.1 93.79 54.45 92.01 54.8 92.6 55.15 90.82 55.5 100.9 55.85 101.49 56.2 103.86 56.55 102.67 56.89 105.64 57.24 102.08 57.59 107.41 57.94 102.67 58.29 102.08 58.64 102.08 58.99 103.27 59.34 105.04 59.69 102.08 60.04 102.08 60.39 96.75 60.73 97.34 61.08 100.9 61.43 100.9 61.78 100.9 62.13 94.97 62.48 86.68 62.83 90.82 63.18 88.45 63.53 84.31 63.88 85.49 64.23 91.42 64.58 93.79 64.92 88.45 65.27 86.08 65.62 83.71 65.97 83.12 66.32 86.08 66.67 83.12 67.02 76.6 67.37 74.23 67.72 73.05 68.07 65.35 68.42 62.38 68.77 62.38 69.11 52.9 69.46 52.31 69.81 46.39 70.16 46.98 70.51 42.83 70.86 42.24 71.21 48.76 71.56 43.42 71.91 43.42 72.26 45.79 72.61 41.05 72.95 35.13 73.3 36.9 73.65 33.94 74 36.31 74.35 37.5 74.7 36.31 75.05 41.64 75.4 41.05 75.75 43.42 76.1 39.87 76.45 40.46 76.8 41.05 77.14 41.64 77.49 37.5 77.84 35.72 78.19 37.5 78.54 39.27 78.89 40.46 79.24 40.46 79.59 45.79 79.94 49.35 80.29 52.9 80.64 51.72 80.98 48.16 81.33 46.98 81.68 51.72 82.03 57.05 82.38 49.94 82.73 52.31 83.08 53.5 83.43 54.68 83.78 56.46 84.13 60.61 84.48 60.01 84.83 61.2 85.17 60.01 85.52 57.64 85.87 54.09 86.22 51.72 86.57 45.2 86.92 45.2 87.27 45.2 87.62 48.16 87.97 51.13 88.32 50.53 88.67 52.9 89.02 55.27 89.36 57.05 89.71 56.46 90.06 54.68 90.41 61.2 90.76 59.42 91.11 58.24 91.46 54.68 91.81 57.64 92.16 55.87 92.51 51.72 92.86 52.9 93.2 56.46 93.55 58.83 93.9 49.94 94.25 48.76 94.6 44.61 94.95 44.02 95.3 46.98 95.65 51.72 96 52.31 96.35 54.68 96.7 58.83 97.05 56.46 97.39 53.5 97.74 53.5 98.09 52.31 98.44 60.61 98.79 60.01 99.14 61.79 99.49 58.83 99.84 54.68 100.19 55.27 100.54 50.53 100.89 55.87 101.23 46.39 101.58 47.57 101.93 49.35 102.28 48.76 102.63 46.98 102.98 42.83 103.33 39.87 103.68 42.83 104.03 46.39 104.38 45.2 104.73 42.24 105.08 41.64 105.42 39.27 105.77 39.27 106.12 42.24 106.47 40.46 106.82 40.46 107.17 42.24 107.52 39.27 107.87 40.46 108.22 38.09 108.57 38.09 108.92 35.13 109.26 35.72 109.61 36.31 109.96 32.76 110.31 34.53 110.66 32.76 111.01 33.94 111.36 33.94 111.71 28.61 112.06 30.39 112.41 33.35 112.76 28.02 113.11 29.2 113.45 30.98 113.8 30.39 114.15 32.76 114.5 30.39 114.85 30.98 115.2 29.2 115.55 32.16 115.9 33.35 116.25 36.31 116.6 38.09 116.95 37.5 117.3 34.53 117.64 40.46 117.99 36.9 118.34 36.31 118.69 29.79 119.04 29.2 119.39 28.02 119.74 23.87 120.09 25.05 120.44 26.24 120.79 23.87 121.14 26.24 121.48 28.61 121.83 27.42 122.18 26.83 122.53 22.68 122.88 23.87 123.23 28.02 123.58 29.79 123.93 31.57 124.28 29.2 124.63 25.65 124.98 25.05 125.33 22.68 125.67 29.2 126.02 28.02 126.37 26.24 126.72 25.05 127.07 23.87 127.42 23.87 127.77 26.24 128.12 29.2 128.47 33.35 128.82 34.53 129.17 32.76 129.51 30.98 129.86 24.46 130.21 19.72 130.56 19.72 130.91 16.76 131.26 14.98 131.61 14.39 131.96 13.2 132.31 13.2 132.66 14.39 133.01 15.57 133.36 14.98 133.7 14.39 134.05 13.8 134.4 13.2 134.75 13.8 135.1 13.8 135.45 13.8 135.8 13.2 136.15 13.2 136.5 13.2 136.85 14.39 137.2 17.94 137.55 17.94 137.89 16.76 138.24 14.98 138.59 16.17 138.94 16.17 139.29 15.57 139.64 13.8 139.99 13.8 140.34 13.8 140.69 13.8 141.04 13.2 141.39 12.61"/>
      </g>
      <g stroke-width="0.3" fill="#000000" fill-opacity="0.000" class="geometry" stroke-dasharray="none" stroke="#D53E4F" id="img-302b83d0-18">
        <path fill="none" d="M21.98,71.86 L 22.33 74.83 22.68 86.68 23.03 87.86 23.38 86.68 23.73 78.97 24.08 81.94 24.42 81.34 24.77 88.45 25.12 91.42 25.47 83.71 25.82 87.86 26.17 90.82 26.52 97.34 26.87 90.82 27.22 95.56 27.57 100.3 27.92 96.75 28.27 94.97 28.61 94.97 28.96 97.34 29.31 97.34 29.66 92.6 30.01 101.49 30.36 105.64 30.71 105.64 31.06 106.82 31.41 105.04 31.76 102.67 32.11 103.27 32.45 108.6 32.8 110.38 33.15 113.34 33.5 112.75 33.85 112.15 34.2 113.34 34.55 117.49 34.9 116.89 35.25 116.3 35.6 116.89 35.95 116.3 36.3 110.97 36.64 108.01 36.99 106.82 37.34 101.49 37.69 99.12 38.04 97.93 38.39 96.75 38.74 97.93 39.09 101.49 39.44 99.12 39.79 97.34 40.14 94.38 40.49 95.56 40.83 101.49 41.18 104.45 41.53 108.6 41.88 102.67 42.23 104.45 42.58 102.08 42.93 97.93 43.28 96.75 43.63 96.75 43.98 92.6 44.33 91.42 44.67 96.75 45.02 99.71 45.37 98.53 45.72 97.93 46.07 101.49 46.42 96.75 46.77 93.79 47.12 97.93 47.47 99.12 47.82 98.53 48.17 105.64 48.52 102.08 48.86 102.08 49.21 99.12 49.56 102.08 49.91 106.23 50.26 108.6 50.61 109.78 50.96 108.6 51.31 111.56 51.66 112.15 52.01 111.56 52.36 110.38 52.7 106.82 53.05 109.78 53.4 106.82 53.75 113.34 54.1 108.01 54.45 108.01 54.8 109.78 55.15 108.01 55.5 109.78 55.85 111.56 56.2 111.56 56.55 109.78 56.89 113.93 57.24 111.56 57.59 107.41 57.94 102.08 58.29 98.53 58.64 98.53 58.99 106.23 59.34 109.19 59.69 109.19 60.04 113.34 60.39 114.52 60.73 112.75 61.08 116.89 61.43 116.3 61.78 112.15 62.13 111.56 62.48 113.93 62.83 118.08 63.18 118.67 63.53 118.08 63.88 118.67 64.23 115.71 64.58 113.34 64.92 110.38 65.27 112.75 65.62 114.52 65.97 115.12 66.32 116.3 66.67 113.93 67.02 111.56 67.37 111.56 67.72 108.6 68.07 104.45 68.42 108.01 68.77 109.78 69.11 111.56 69.46 115.12 69.81 110.38 70.16 107.41 70.51 109.78 70.86 106.82 71.21 103.86 71.56 109.78 71.91 112.15 72.26 115.12 72.61 114.52 72.95 116.3 73.3 117.49 73.65 119.86 74 121.04 74.35 119.86 74.7 119.86 75.05 121.04 75.4 124 75.75 124 76.1 123.41 76.45 124 76.8 124 77.14 122.23 77.49 117.49 77.84 116.3 78.19 117.49 78.54 114.52 78.89 112.75 79.24 113.34 79.59 112.75 79.94 108.6 80.29 115.12 80.64 115.12 80.98 115.12 81.33 110.97 81.68 109.19 82.03 110.38 82.38 113.93 82.73 110.97 83.08 112.15 83.43 110.38 83.78 114.52 84.13 110.38 84.48 109.19 84.83 108.01 85.17 107.41 85.52 105.64 85.87 106.82 86.22 105.64 86.57 108.6 86.92 108.01 87.27 102.67 87.62 108.6 87.97 105.64 88.32 109.78 88.67 112.15 89.02 113.34 89.36 121.04 89.71 118.67 90.06 117.49 90.41 116.89 90.76 111.56 91.11 108.6 91.46 112.75 91.81 112.75 92.16 112.75 92.51 116.3 92.86 108.6 93.2 107.41 93.55 109.19 93.9 114.52 94.25 115.71 94.6 115.71 94.95 113.34 95.3 112.75 95.65 110.97 96 118.08 96.35 118.08 96.7 117.49 97.05 116.3 97.39 118.67 97.74 116.89 98.09 113.93 98.44 117.49 98.79 116.89 99.14 116.3 99.49 113.93 99.84 113.34 100.19 115.71 100.54 117.49 100.89 116.89 101.23 112.15 101.58 112.15 101.93 109.78 102.28 112.75 102.63 116.3 102.98 117.49 103.33 116.89 103.68 117.49 104.03 109.78 104.38 106.82 104.73 103.86 105.08 103.86 105.42 100.9 105.77 94.97 106.12 95.56 106.47 96.16 106.82 94.97 107.17 93.19 107.52 100.3 107.87 93.19 108.22 92.6 108.57 90.82 108.92 88.45 109.26 86.08 109.61 85.49 109.96 87.27 110.31 88.45 110.66 89.64 111.01 92.6 111.36 94.38 111.71 99.12 112.06 94.38 112.41 95.56 112.76 92.01 113.11 97.34 113.45 97.34 113.8 96.75 114.15 99.71 114.5 102.08 114.85 103.86 115.2 110.38 115.55 111.56 115.9 117.49 116.25 119.26 116.6 119.26 116.95 117.49 117.3 113.34 117.64 112.15 117.99 116.3 118.34 117.49 118.69 118.08 119.04 118.08 119.39 118.08 119.74 113.34 120.09 110.97 120.44 113.93 120.79 121.04 121.14 121.04 121.48 119.86 121.83 118.67 122.18 119.86 122.53 124.6 122.88 124.6 123.23 125.19 123.58 127.56 123.93 128.15 124.28 129.34 124.63 130.52 124.98 129.93 125.33 129.93 125.67 130.52 126.02 131.11"/>
      </g>
      <g stroke-width="0.3" fill="#000000" fill-opacity="0.000" class="geometry" stroke-dasharray="none" stroke="#9E0142" id="img-302b83d0-19">
        <path fill="none" d="M21.98,71.86 L 22.33 78.38 22.68 74.23 23.03 75.42 23.38 72.46 23.73 78.38 24.08 87.27 24.42 85.49 24.77 81.94 25.12 87.27 25.47 84.31 25.82 82.53 26.17 81.94 26.52 81.34 26.87 84.31 27.22 84.9 27.57 85.49 27.92 84.31 28.27 86.08 28.61 90.82 28.96 92.6 29.31 93.79 29.66 89.64 30.01 86.08 30.36 90.82 30.71 83.71 31.06 81.94 31.41 78.97 31.76 80.75 32.11 74.23 32.45 73.05 32.8 74.23 33.15 69.49 33.5 70.68 33.85 67.72 34.2 68.31 34.55 75.42 34.9 76.01 35.25 81.34 35.6 77.79 35.95 73.64 36.3 70.09 36.64 64.16 36.99 58.83 37.34 50.53 37.69 46.39 38.04 39.87 38.39 37.5 38.74 31.57 39.09 33.35 39.44 33.94 39.79 33.35 40.14 32.76 40.49 31.57 40.83 28.61 41.18 29.2 41.53 32.76 41.88 29.2 42.23 30.98 42.58 32.76 42.93 38.68 43.28 36.9 43.63 40.46 43.98 41.64 44.33 36.9 44.67 37.5 45.02 41.64 45.37 40.46 45.72 41.64 46.07 39.27 46.42 36.9 46.77 35.72 47.12 37.5 47.47 41.64 47.82 39.87 48.17 39.27 48.52 45.79 48.86 46.39 49.21 53.5 49.56 58.24 49.91 58.24 50.26 59.42 50.61 60.61 50.96 62.38 51.31 65.94 51.66 62.38 52.01 57.05 52.36 56.46 52.7 58.83 53.05 61.2 53.4 60.61 53.75 54.68 54.1 58.83 54.45 53.5 54.8 57.64 55.15 61.79 55.5 58.83 55.85 55.27 56.2 55.87 56.55 57.05 56.89 53.5 57.24 48.76 57.59 48.16 57.94 45.2 58.29 42.83 58.64 44.02 58.99 42.24 59.34 38.68 59.69 37.5 60.04 36.9 60.39 32.16 60.73 33.94 61.08 28.61 61.43 23.87 61.78 25.05 62.13 25.65 62.48 26.83 62.83 24.46 63.18 28.02 63.53 27.42 63.88 26.24 64.23 24.46 64.58 22.09 64.92 20.31 65.27 22.09 65.62 25.05 65.97 21.5 66.32 19.13 66.67 17.35 67.02 18.54 67.37 17.35 67.72 18.54 68.07 17.35 68.42 14.39 68.77 14.39 69.11 13.2 69.46 13.8 69.81 13.2 70.16 13.2 70.51 12.61"/>
      </g>
    </g>
  </g>
</g>
  <g class="guide ylabels" font-size="2.82" font-family="'PT Sans Caption','Helvetica Neue','Helvetica',sans-serif" fill="#000000" id="img-302b83d0-20">
    <text x="18.63" y="131.11" text-anchor="end" dy="0.35em">0</text>
    <text x="18.63" y="101.49" text-anchor="end" dy="0.35em">50</text>
    <text x="18.63" y="71.86" text-anchor="end" dy="0.35em">100</text>
    <text x="18.63" y="42.24" text-anchor="end" dy="0.35em">150</text>
    <text x="18.63" y="12.61" text-anchor="end" dy="0.35em">200</text>
  </g>
  <g font-size="3.88" font-family="'PT Sans','Helvetica Neue','Helvetica',sans-serif" fill="#000000" stroke="#000000" stroke-opacity="0.000" id="img-302b83d0-21">
    <text x="8.81" y="69.86" text-anchor="middle" dy="0.35em" transform="rotate(-90, 8.81, 71.86)">population number</text>
  </g>
  <g font-size="3.88" font-family="'PT Sans','Helvetica Neue','Helvetica',sans-serif" fill="#000000" stroke="#000000" stroke-opacity="0.000" id="img-302b83d0-22">
    <text x="108.92" y="5" text-anchor="middle" dy="0.6em">genetic drift</text>
  </g>
</g>
<defs>
  <clipPath id="img-302b83d0-4">
  <path d="M19.63,10.61 L 198.2 10.61 198.2 133.11 19.63 133.11" />
</clipPath>
</defs>
</svg>
