<?xml version="1.0" encoding="UTF-8"?>
<svg xmlns="http://www.w3.org/2000/svg"
     xmlns:xlink="http://www.w3.org/1999/xlink"
     xmlns:gadfly="http://www.gadflyjl.org/ns"
     version="1.2"
     width="203.2mm" height="152.4mm" viewBox="0 0 203.2 152.4"
     stroke="none"
     fill="#000000"
     stroke-width="0.3"
     font-size="3.88"
>
<g class="plotroot xscalable yscalable" id="img-62492009-1">
  <g font-size="3.88" font-family="'PT Sans','Helvetica Neue','Helvetica',sans-serif" fill="#000000" stroke="#000000" stroke-opacity="0.000" id="img-62492009-2">
    <text x="108.92" y="140.79" text-anchor="middle" dy="0.6em">generation number</text>
  </g>
  <g class="guide xlabels" font-size="2.82" font-family="'PT Sans Caption','Helvetica Neue','Helvetica',sans-serif" fill="#000000" id="img-62492009-3">
    <text x="21.63" y="134.11" text-anchor="middle" dy="0.6em">0</text>
    <text x="56.55" y="134.11" text-anchor="middle" dy="0.6em">100</text>
    <text x="91.46" y="134.11" text-anchor="middle" dy="0.6em">200</text>
    <text x="126.37" y="134.11" text-anchor="middle" dy="0.6em">300</text>
    <text x="161.29" y="134.11" text-anchor="middle" dy="0.6em">400</text>
    <text x="196.2" y="134.11" text-anchor="middle" dy="0.6em">500</text>
  </g>
<g clip-path="url(#img-62492009-4)">
  <g id="img-62492009-5">
    <g pointer-events="visible" opacity="1" fill="#FFFFFF" stroke="#000000" stroke-opacity="0.000" class="guide background" id="img-62492009-6">
      <rect x="19.63" y="10.61" width="178.57" height="122.5"/>
    </g>
    <g class="guide ygridlines xfixed" stroke-dasharray="0.5,0.5" stroke-width="0.2" stroke="#808080" id="img-62492009-7">
      <path fill="none" d="M19.63,131.11 L 198.2 131.11"/>
      <path fill="none" d="M19.63,101.49 L 198.2 101.49"/>
      <path fill="none" d="M19.63,71.86 L 198.2 71.86"/>
      <path fill="none" d="M19.63,42.24 L 198.2 42.24"/>
      <path fill="none" d="M19.63,12.61 L 198.2 12.61"/>
    </g>
    <g class="guide xgridlines yfixed" stroke-dasharray="0.5,0.5" stroke-width="0.2" stroke="#808080" id="img-62492009-8">
      <path fill="none" d="M21.63,10.61 L 21.63 133.11"/>
      <path fill="none" d="M56.55,10.61 L 56.55 133.11"/>
      <path fill="none" d="M91.46,10.61 L 91.46 133.11"/>
      <path fill="none" d="M126.37,10.61 L 126.37 133.11"/>
      <path fill="none" d="M161.29,10.61 L 161.29 133.11"/>
      <path fill="none" d="M196.2,10.61 L 196.2 133.11"/>
    </g>
    <g class="plotpanel" id="img-62492009-9">
      <g stroke-width="0.3" fill="#000000" fill-opacity="0.000" class="geometry" stroke-dasharray="none" stroke="#3288BD" id="img-62492009-10">
        <path fill="none" d="M21.98,71.86 L 22.33 72.46 22.68 71.27 23.03 68.01 23.38 70.09 23.73 67.72 24.08 64.46 24.42 66.23 24.77 71.27 25.12 69.49 25.47 76.6 25.82 77.49 26.17 72.75 26.52 74.53 26.87 75.42 27.22 77.49 27.57 72.75 27.92 67.42 28.27 63.57 28.61 63.57 28.96 62.68 29.31 65.35 29.66 69.49 30.01 73.34 30.36 71.57 30.71 70.97 31.06 71.27 31.41 72.46 31.76 68.6 32.11 70.68 32.45 70.97 32.8 72.75 33.15 77.49 33.5 83.42 33.85 86.68 34.2 82.23 34.55 83.42 34.9 80.75 35.25 80.75 35.6 78.68 35.95 81.05 36.3 76.31 36.64 77.2 36.99 81.64 37.34 83.71 37.69 81.05 38.04 76.31 38.39 79.27 38.74 77.79 39.09 77.49 39.44 77.2 39.79 73.94 40.14 72.75 40.49 72.46 40.83 76.31 41.18 76.6 41.53 76.6 41.88 73.64 42.23 74.83 42.58 73.64 42.93 68.9 43.28 74.83 43.63 74.83 43.98 75.71 44.33 80.45 44.67 83.12 45.02 79.86 45.37 79.27 45.72 74.23 46.07 73.94 46.42 74.23 46.77 73.34 47.12 73.94 47.47 77.2 47.82 77.49 48.17 78.68 48.52 77.2 48.86 78.38 49.21 77.79 49.56 79.86 49.91 82.82 50.26 80.75 50.61 83.42 50.96 82.23 51.31 80.75 51.66 78.68 52.01 78.97 52.36 81.64 52.7 83.12 53.05 83.12 53.4 82.82 53.75 81.05 54.1 80.45 54.45 81.64 54.8 81.34 55.15 76.6 55.5 76.01 55.85 75.12 56.2 73.94 56.55 75.12 56.89 76.31 57.24 79.57 57.59 82.53 57.94 86.97 58.29 84.01 58.64 88.16 58.99 89.64 59.34 93.49 59.69 95.27 60.04 90.53 60.39 89.94 60.73 86.08 61.08 82.23 61.43 84.01 61.78 83.12 62.13 82.53 62.48 75.71 62.83 73.05 63.18 71.86 63.53 74.53 63.88 71.27 64.23 72.16 64.58 68.31 64.92 71.86 65.27 73.94 65.62 75.12 65.97 79.86 66.32 74.53 66.67 78.08 67.02 79.86 67.37 83.12 67.72 83.12 68.07 85.19 68.42 85.19 68.77 86.38 69.11 84.01 69.46 83.71 69.81 82.23 70.16 74.23 70.51 70.68 70.86 74.53 71.21 71.27 71.56 67.72 71.91 66.23 72.26 70.38 72.61 69.79 72.95 68.6 73.3 69.49 73.65 71.27 74 72.46 74.35 70.09 74.7 69.79 75.05 70.09 75.4 70.68 75.75 73.64 76.1 73.64 76.45 74.53 76.8 76.6 77.14 83.42 77.49 85.79 77.84 88.45 78.19 92.31 78.54 89.34 78.89 84.31 79.24 82.82 79.59 77.79 79.94 81.05 80.29 81.64 80.64 87.86 80.98 88.45 81.33 90.82 81.68 90.82 82.03 95.27 82.38 92.01 82.73 91.42 83.08 93.79 83.43 96.16 83.78 92.6 84.13 96.45 84.48 95.27 84.83 95.56 85.17 95.86 85.52 92.9 85.87 93.19 86.22 88.75 86.57 90.82 86.92 87.27 87.27 89.34 87.62 87.57 87.97 83.12 88.32 88.75 88.67 88.45 89.02 89.34 89.36 89.64 89.71 89.34 90.06 85.49 90.41 85.19 90.76 89.34 91.11 89.05 91.46 89.64 91.81 88.75 92.16 86.97 92.51 90.23 92.86 91.71 93.2 90.82 93.55 89.34 93.9 88.16 94.25 85.79 94.6 84.01 94.95 84.01 95.3 78.97 95.65 80.45 96 83.12 96.35 81.34 96.7 77.79 97.05 77.79 97.39 78.08 97.74 79.57 98.09 81.34 98.44 86.97 98.79 85.49 99.14 84.9 99.49 90.23 99.84 94.68 100.19 95.27 100.54 92.31 100.89 92.01 101.23 91.42 101.58 90.53 101.93 90.53 102.28 93.19 102.63 88.16 102.98 85.49 103.33 81.64 103.68 85.49 104.03 80.45 104.38 82.53 104.73 80.45 105.08 79.86 105.42 83.42 105.77 80.75 106.12 82.53 106.47 79.86 106.82 81.64 107.17 73.34 107.52 73.94 107.87 70.09 108.22 70.97 108.57 75.42 108.92 70.09 109.26 65.94 109.61 60.9 109.96 62.09 110.31 68.31 110.66 70.97 111.01 67.42 111.36 68.01 111.71 66.23 112.06 69.79 112.41 72.16 112.76 72.75 113.11 75.12 113.45 73.64 113.8 74.83 114.15 80.75 114.5 79.27 114.85 85.19 115.2 89.05 115.55 89.64 115.9 84.9 116.25 84.9 116.6 84.6 116.95 81.94 117.3 85.19 117.64 86.08 117.99 86.97 118.34 83.71 118.69 78.68 119.04 77.2 119.39 72.75 119.74 72.75 120.09 76.01 120.44 75.12 120.79 72.46 121.14 73.64 121.48 73.94 121.83 71.57 122.18 74.83 122.53 72.16 122.88 72.16 123.23 68.31 123.58 68.31 123.93 69.79 124.28 72.16 124.63 76.01 124.98 74.53 125.33 72.75 125.67 75.12 126.02 73.64 126.37 71.86 126.72 69.49 127.07 70.97 127.42 68.31 127.77 67.72 128.12 65.64 128.47 68.31 128.82 67.72 129.17 69.49 129.51 69.2 129.86 72.46 130.21 68.31 130.56 67.72 130.91 70.38 131.26 65.94 131.61 67.12 131.96 67.72 132.31 68.01 132.66 63.86 133.01 61.2 133.36 58.83 133.7 54.68 134.05 51.72 134.4 55.57 134.75 53.2 135.1 51.72 135.45 49.94 135.8 53.79 136.15 52.01 136.5 55.27 136.85 52.9 137.2 54.38 137.55 55.57 137.89 50.83 138.24 48.46 138.59 49.94 138.94 48.76 139.29 54.68 139.64 54.68 139.99 54.68 140.34 55.87 140.69 61.2 141.04 59.12 141.39 63.27 141.73 68.31 142.08 63.86 142.43 65.05 142.78 63.27 143.13 61.2 143.48 62.38 143.83 61.79 144.18 64.16 144.53 62.98 144.88 73.64 145.23 73.64 145.58 72.46 145.92 68.01 146.27 71.27 146.62 71.27 146.97 73.34 147.32 73.05 147.67 72.75 148.02 76.9 148.37 77.79 148.72 75.42 149.07 73.34 149.42 70.68 149.76 65.94 150.11 62.09 150.46 64.16 150.81 65.35 151.16 64.46 151.51 63.27 151.86 60.01 152.21 55.57 152.56 56.75 152.91 57.35 153.26 56.46 153.61 57.35 153.95 57.94 154.3 60.9 154.65 61.49 155 62.38 155.35 64.75 155.7 61.79 156.05 65.05 156.4 61.79 156.75 64.46 157.1 67.42 157.45 66.23 157.79 66.23 158.14 63.27 158.49 61.79 158.84 59.42 159.19 60.31 159.54 60.61 159.89 62.09 160.24 62.38 160.59 65.35 160.94 66.53 161.29 61.2 161.64 64.16 161.98 65.64 162.33 63.27 162.68 64.75 163.03 63.27 163.38 64.16 163.73 63.57 164.08 63.27 164.43 64.16 164.78 63.27 165.13 63.27 165.48 62.38 165.83 62.98 166.17 69.2 166.52 68.9 166.87 68.31 167.22 66.83 167.57 58.53 167.92 57.64 168.27 58.83 168.62 59.42 168.97 60.61 169.32 57.94 169.67 64.75 170.01 64.75 170.36 61.79 170.71 56.75 171.06 60.31 171.41 62.09 171.76 63.86 172.11 65.64 172.46 61.79 172.81 60.01 173.16 59.72 173.51 58.53 173.86 59.42 174.2 63.57 174.55 65.94 174.9 63.86 175.25 68.01 175.6 68.31 175.95 70.38 176.3 74.23 176.65 74.53 177 74.23 177.35 73.05 177.7 74.23 178.04 77.49 178.39 76.6 178.74 70.09 179.09 68.31 179.44 67.42 179.79 67.12 180.14 68.01 180.49 62.38 180.84 58.24 181.19 60.9 181.54 59.72 181.89 62.38 182.23 64.46 182.58 63.86 182.93 70.38 183.28 70.97 183.63 76.6 183.98 76.9 184.33 73.64 184.68 76.9 185.03 75.42 185.38 72.16 185.73 72.75 186.08 69.79 186.42 73.34 186.77 73.94 187.12 71.57 187.47 72.75 187.82 73.64 188.17 71.86 188.52 73.34 188.87 73.34 189.22 72.16 189.57 73.34 189.92 78.08 190.26 78.38 190.61 74.53 190.96 79.27 191.31 81.64 191.66 83.71 192.01 80.45 192.36 79.86 192.71 80.45 193.06 84.01 193.41 87.57 193.76 87.86 194.11 94.68 194.45 89.64 194.8 92.31 195.15 88.16 195.5 87.57 195.85 88.16 196.2 88.75"/>
      </g>
      <g stroke-width="0.3" fill="#000000" fill-opacity="0.000" class="geometry" stroke-dasharray="none" stroke="#66C2A5" id="img-62492009-11">
        <path fill="none" d="M21.98,71.86 L 22.33 73.34 22.68 70.38 23.03 68.31 23.38 72.16 23.73 73.05 24.08 68.6 24.42 66.23 24.77 71.27 25.12 73.34 25.47 69.79 25.82 65.35 26.17 64.46 26.52 65.64 26.87 66.23 27.22 66.83 27.57 69.2 27.92 71.57 28.27 70.38 28.61 69.49 28.96 74.83 29.31 75.71 29.66 76.6 30.01 73.05 30.36 71.57 30.71 73.64 31.06 67.12 31.41 64.46 31.76 65.05 32.11 62.68 32.45 62.38 32.8 62.68 33.15 61.49 33.5 57.64 33.85 58.83 34.2 57.05 34.55 54.38 34.9 60.31 35.25 60.31 35.6 63.27 35.95 62.98 36.3 58.53 36.64 51.72 36.99 57.94 37.34 60.31 37.69 61.2 38.04 62.98 38.39 60.01 38.74 60.31 39.09 64.16 39.44 65.94 39.79 68.6 40.14 68.9 40.49 67.72 40.83 70.38 41.18 70.09 41.53 70.38 41.88 67.12 42.23 64.16 42.58 62.68 42.93 62.38 43.28 64.16 43.63 58.83 43.98 59.12 44.33 56.16 44.67 54.09 45.02 54.09 45.37 58.83 45.72 57.94 46.07 56.46 46.42 54.38 46.77 55.87 47.12 58.24 47.47 54.38 47.82 51.72 48.17 49.05 48.52 47.87 48.86 53.2 49.21 55.87 49.56 56.75 49.91 58.24 50.26 58.53 50.61 57.64 50.96 54.98 51.31 53.2 51.66 55.27 52.01 55.57 52.36 57.35 52.7 58.83 53.05 54.98 53.4 57.35 53.75 56.75 54.1 54.98 54.45 58.53 54.8 51.42 55.15 49.05 55.5 49.64 55.85 50.83 56.2 49.35 56.55 52.31 56.89 55.27 57.24 58.53 57.59 62.98 57.94 60.61 58.29 57.94 58.64 55.87 58.99 57.05 59.34 54.68 59.69 57.35 60.04 58.83 60.39 58.24 60.73 64.46 61.08 61.49 61.43 63.57 61.78 62.68 62.13 62.68 62.48 66.83 62.83 67.42 63.18 64.46 63.53 69.2 63.88 71.86 64.23 71.86 64.58 69.49 64.92 69.49 65.27 72.46 65.62 72.46 65.97 73.64 66.32 79.86 66.67 76.01 67.02 79.27 67.37 78.38 67.72 78.08 68.07 77.49 68.42 76.01 68.77 75.71 69.11 77.79 69.46 75.12 69.81 74.53 70.16 75.71 70.51 80.45 70.86 83.42 71.21 83.42 71.56 85.19 71.91 84.6 72.26 84.9 72.61 88.45 72.95 86.68 73.3 87.27 73.65 86.97 74 87.86 74.35 84.6 74.7 83.42 75.05 80.45 75.4 76.6 75.75 84.6 76.1 86.97 76.45 85.79 76.8 82.53 77.14 82.82 77.49 76.9 77.84 78.97 78.19 82.82 78.54 78.38 78.89 81.94 79.24 88.16 79.59 84.31 79.94 86.68 80.29 84.9 80.64 83.42 80.98 79.27 81.33 78.97 81.68 80.75 82.03 79.86 82.38 82.82 82.73 79.57 83.08 81.05 83.43 81.34 83.78 79.57 84.13 81.34 84.48 78.38 84.83 78.38 85.17 75.71 85.52 72.75 85.87 73.34 86.22 73.34 86.57 69.49 86.92 69.49 87.27 66.53 87.62 62.38 87.97 59.12 88.32 60.9 88.67 60.61 89.02 58.83 89.36 58.53 89.71 61.2 90.06 58.53 90.41 62.09 90.76 62.09 91.11 59.72 91.46 64.16 91.81 64.16 92.16 62.68 92.51 58.53 92.86 57.05 93.2 56.16 93.55 55.27 93.9 56.46 94.25 55.87 94.6 56.16 94.95 55.27 95.3 57.64 95.65 56.75 96 57.35 96.35 59.12 96.7 57.64 97.05 56.75 97.39 60.01 97.74 57.05 98.09 57.94 98.44 56.16 98.79 54.98 99.14 54.09 99.49 52.9 99.84 57.94 100.19 56.16 100.54 56.75 100.89 54.98 101.23 53.2 101.58 58.83 101.93 61.2 102.28 63.86 102.63 63.86 102.98 65.64 103.33 65.35 103.68 64.46 104.03 66.23 104.38 68.6 104.73 70.97 105.08 69.2 105.42 66.23 105.77 70.68 106.12 72.75 106.47 70.38 106.82 73.64 107.17 73.64 107.52 70.97 107.87 68.6 108.22 71.27 108.57 71.27 108.92 70.38 109.26 70.97 109.61 73.05 109.96 71.27 110.31 74.83 110.66 75.42 111.01 79.57 111.36 78.97 111.71 81.94 112.06 80.45 112.41 78.08 112.76 77.79 113.11 83.71 113.45 82.82 113.8 79.86 114.15 84.01 114.5 85.79 114.85 89.64 115.2 93.79 115.55 94.97 115.9 95.56 116.25 95.56 116.6 94.38 116.95 94.38 117.3 96.16 117.64 95.56 117.99 99.71 118.34 101.19 118.69 102.97 119.04 102.67 119.39 102.97 119.74 99.42 120.09 101.79 120.44 102.08 120.79 102.97 121.14 101.19 121.48 100.01 121.83 97.64 122.18 97.05 122.53 100.6 122.88 98.23 123.23 105.34 123.58 107.71 123.93 102.97 124.28 100.9 124.63 100.01 124.98 100.6 125.33 99.42 125.67 99.71 126.02 102.38 126.37 102.08 126.72 104.16 127.07 106.23 127.42 103.86 127.77 100.3 128.12 100.9 128.47 103.27 128.82 100.01 129.17 102.67 129.51 103.56 129.86 101.79 130.21 103.56 130.56 103.56 130.91 96.16 131.26 95.86 131.61 100.6 131.96 101.19 132.31 100.01 132.66 103.27 133.01 105.04 133.36 106.23 133.7 105.34 134.05 102.97 134.4 100.3 134.75 98.53 135.1 97.34 135.45 101.49 135.8 102.67 136.15 102.08 136.5 103.86 136.85 105.93 137.2 106.53 137.55 104.16 137.89 101.49 138.24 101.19 138.59 101.19 138.94 96.45 139.29 93.79 139.64 93.19 139.99 96.16 140.34 98.23 140.69 96.45 141.04 93.49 141.39 89.64 141.73 94.97 142.08 97.05 142.43 95.56 142.78 95.27 143.13 100.9 143.48 102.08 143.83 100.01 144.18 101.49 144.53 98.23 144.88 101.49 145.23 102.67 145.58 101.49 145.92 104.45 146.27 102.67 146.62 100.9 146.97 101.49 147.32 100.01 147.67 94.97 148.02 93.49 148.37 96.16 148.72 100.01 149.07 94.38 149.42 93.19 149.76 92.01 150.11 92.6 150.46 92.01 150.81 99.42 151.16 100.01 151.51 98.23 151.86 102.67 152.21 99.42 152.56 97.34 152.91 93.19 153.26 95.27 153.61 93.79 153.95 92.01 154.3 91.42 154.65 86.97 155 85.49 155.35 82.53 155.7 84.31 156.05 85.19 156.4 82.82 156.75 82.82 157.1 87.27 157.45 85.49 157.79 86.97 158.14 86.68 158.49 84.6 158.84 86.97 159.19 88.45 159.54 89.05 159.89 85.79 160.24 80.16 160.59 76.01 160.94 75.12 161.29 73.64 161.64 72.46 161.98 70.68 162.33 67.72 162.68 68.6 163.03 65.05 163.38 64.16 163.73 62.38 164.08 68.01 164.43 74.23 164.78 77.79 165.13 78.97 165.48 79.86 165.83 81.34 166.17 78.68 166.52 70.97 166.87 73.64 167.22 77.49 167.57 76.01 167.92 77.79 168.27 79.57 168.62 77.2 168.97 76.31 169.32 77.2 169.67 79.27 170.01 79.86 170.36 87.57 170.71 90.82 171.06 89.94 171.41 94.38 171.76 96.45 172.11 94.97 172.46 97.64 172.81 97.93 173.16 92.31 173.51 89.34 173.86 92.31 174.2 90.82 174.55 91.71 174.9 91.42 175.25 90.53 175.6 92.31 175.95 90.53 176.3 89.05 176.65 87.86 177 90.23 177.35 94.38 177.7 94.97 178.04 96.16 178.39 100.6 178.74 95.86 179.09 97.93 179.44 97.64 179.79 96.45 180.14 94.97 180.49 89.05 180.84 86.38 181.19 86.08 181.54 87.86 181.89 88.45 182.23 87.86 182.58 91.42 182.93 89.34 183.28 86.08 183.63 88.16 183.98 88.45 184.33 89.64 184.68 89.94 185.03 89.64 185.38 88.16 185.73 87.86 186.08 90.53 186.42 89.94 186.77 89.94 187.12 94.38 187.47 92.6 187.82 88.16 188.17 87.86 188.52 88.16 188.87 87.27 189.22 87.57 189.57 86.68 189.92 86.08 190.26 86.08 190.61 78.08 190.96 75.42 191.31 70.09 191.66 69.79 192.01 75.42 192.36 72.75 192.71 76.31 193.06 76.9 193.41 76.31 193.76 76.31 194.11 76.9 194.45 78.97 194.8 74.83 195.15 75.42 195.5 81.94 195.85 80.45 196.2 81.05"/>
      </g>
      <g stroke-width="0.3" fill="#000000" fill-opacity="0.000" class="geometry" stroke-dasharray="none" stroke="#ABDDA4" id="img-62492009-12">
        <path fill="none" d="M21.98,71.86 L 22.33 70.09 22.68 69.2 23.03 68.31 23.38 67.12 23.73 70.38 24.08 74.23 24.42 68.6 24.77 72.16 25.12 76.01 25.47 80.75 25.82 80.45 26.17 79.86 26.52 82.23 26.87 89.94 27.22 88.75 27.57 88.45 27.92 87.57 28.27 90.53 28.61 90.23 28.96 91.42 29.31 96.16 29.66 91.12 30.01 87.27 30.36 87.27 30.71 86.38 31.06 87.86 31.41 91.42 31.76 88.75 32.11 90.23 32.45 87.27 32.8 86.68 33.15 86.97 33.5 85.19 33.85 83.12 34.2 81.64 34.55 78.68 34.9 77.79 35.25 80.75 35.6 77.49 35.95 77.2 36.3 77.79 36.64 73.34 36.99 73.94 37.34 75.42 37.69 73.05 38.04 76.9 38.39 75.71 38.74 78.08 39.09 77.79 39.44 81.94 39.79 81.94 40.14 78.97 40.49 81.94 40.83 84.01 41.18 87.27 41.53 87.57 41.88 90.82 42.23 91.71 42.58 92.6 42.93 90.53 43.28 86.68 43.63 86.38 43.98 86.97 44.33 85.79 44.67 81.05 45.02 80.16 45.37 79.86 45.72 82.82 46.07 82.82 46.42 85.19 46.77 90.82 47.12 88.75 47.47 90.23 47.82 89.34 48.17 92.01 48.52 97.34 48.86 106.53 49.21 105.34 49.56 108.9 49.91 107.71 50.26 110.97 50.61 112.15 50.96 109.78 51.31 110.97 51.66 108.6 52.01 106.23 52.36 106.53 52.7 108.6 53.05 107.41 53.4 112.45 53.75 110.08 54.1 113.04 54.45 110.97 54.8 112.45 55.15 113.04 55.5 110.67 55.85 111.86 56.2 114.23 56.55 116.01 56.89 115.71 57.24 118.97 57.59 120.75 57.94 118.08 58.29 118.97 58.64 118.38 58.99 118.08 59.34 117.19 59.69 116.01 60.04 114.52 60.39 115.12 60.73 111.56 61.08 109.49 61.43 110.67 61.78 108.9 62.13 113.34 62.48 113.04 62.83 113.93 63.18 114.82 63.53 115.12 63.88 115.12 64.23 119.86 64.58 118.08 64.92 115.41 65.27 114.52 65.62 113.04 65.97 112.45 66.32 108.3 66.67 110.08 67.02 109.19 67.37 107.41 67.72 107.12 68.07 113.04 68.42 113.04 68.77 113.34 69.11 112.75 69.46 108.3 69.81 109.49 70.16 107.41 70.51 107.41 70.86 104.45 71.21 102.08 71.56 101.19 71.91 105.34 72.26 105.34 72.61 103.86 72.95 107.12 73.3 100.3 73.65 97.93 74 100.3 74.35 95.56 74.7 93.49 75.05 90.82 75.4 95.27 75.75 95.56 76.1 95.56 76.45 94.68 76.8 96.75 77.14 94.08 77.49 96.75 77.84 95.86 78.19 96.45 78.54 94.08 78.89 91.42 79.24 93.19 79.59 99.12 79.94 95.56 80.29 95.86 80.64 94.68 80.98 91.42 81.33 85.79 81.68 87.57 82.03 87.57 82.38 86.68 82.73 84.6 83.08 80.45 83.43 80.16 83.78 74.23 84.13 76.31 84.48 78.38 84.83 79.57 85.17 81.64 85.52 87.27 85.87 86.68 86.22 92.31 86.57 89.05 86.92 97.64 87.27 97.05 87.62 98.53 87.97 95.27 88.32 97.64 88.67 92.01 89.02 95.56 89.36 95.86 89.71 94.97 90.06 94.68 90.41 102.08 90.76 105.34 91.11 104.16 91.46 108.6 91.81 110.97 92.16 114.82 92.51 116.3 92.86 118.38 93.2 119.26 93.55 118.97 93.9 119.56 94.25 117.78 94.6 117.78 94.95 116.01 95.3 114.52 95.65 113.34 96 114.52 96.35 112.45 96.7 110.08 97.05 112.75 97.39 112.75 97.74 113.93 98.09 112.45 98.44 114.52 98.79 113.34 99.14 114.52 99.49 112.75 99.84 114.23 100.19 111.56 100.54 109.19 100.89 107.12 101.23 108.01 101.58 111.56 101.93 110.97 102.28 111.56 102.63 110.97 102.98 110.67 103.33 112.15 103.68 112.15 104.03 113.04 104.38 113.64 104.73 113.64 105.08 115.12 105.42 117.19 105.77 118.97 106.12 116.6 106.47 117.19 106.82 117.19 107.17 116.89 107.52 115.41 107.87 112.45 108.22 116.6 108.57 113.64 108.92 113.04 109.26 114.23 109.61 114.23 109.96 112.45 110.31 112.15 110.66 113.64 111.01 113.04 111.36 113.34 111.71 109.49 112.06 108.6 112.41 109.19 112.76 110.08 113.11 110.08 113.45 113.04 113.8 113.93 114.15 114.23 114.5 115.41 114.85 114.52 115.2 111.86 115.55 114.82 115.9 114.52 116.25 114.52 116.6 116.3 116.95 117.19 117.3 115.41 117.64 115.41 117.99 116.6 118.34 115.71 118.69 116.89 119.04 116.6 119.39 118.08 119.74 117.78 120.09 117.78 120.44 113.93 120.79 116.89 121.14 116.89 121.48 116.01 121.83 117.78 122.18 118.97 122.53 117.19 122.88 114.82 123.23 110.67 123.58 112.45 123.93 113.64 124.28 112.75 124.63 114.23 124.98 114.82 125.33 116.3 125.67 113.04 126.02 113.64 126.37 113.04 126.72 111.86 127.07 113.93 127.42 114.82 127.77 113.64 128.12 110.67 128.47 110.08 128.82 110.08 129.17 115.41 129.51 114.82 129.86 116.3 130.21 115.12 130.56 116.01 130.91 115.71 131.26 116.6 131.61 114.23 131.96 115.71 132.31 117.78 132.66 116.6 133.01 116.6 133.36 118.38 133.7 116.01 134.05 118.97 134.4 117.78 134.75 116.01 135.1 118.38 135.45 118.08 135.8 118.08 136.15 121.04 136.5 119.26 136.85 119.56 137.2 120.45 137.55 122.52 137.89 124.89 138.24 123.71 138.59 127.26 138.94 125.78 139.29 125.19 139.64 126.67 139.99 125.78 140.34 123.12 140.69 122.52 141.04 121.63 141.39 119.86 141.73 119.26 142.08 122.82 142.43 122.52 142.78 121.93 143.13 123.41 143.48 123.71 143.83 124 144.18 122.82 144.53 119.86 144.88 121.63 145.23 121.63 145.58 121.63 145.92 121.34 146.27 121.93 146.62 121.63 146.97 119.26 147.32 117.19 147.67 118.67 148.02 120.45 148.37 124.6 148.72 122.52 149.07 124 149.42 125.19 149.76 126.97 150.11 127.86 150.46 128.15 150.81 127.56 151.16 126.67 151.51 126.37 151.86 125.49 152.21 124 152.56 121.63 152.91 122.23 153.26 121.34 153.61 120.15 153.95 123.41 154.3 123.71 154.65 127.26 155 127.56 155.35 126.97 155.7 127.26 156.05 125.78 156.4 124.3 156.75 124.3 157.1 124.6 157.45 124.89 157.79 124.3 158.14 125.78 158.49 126.37 158.84 127.86 159.19 128.45 159.54 128.15 159.89 127.26 160.24 127.86 160.59 128.45 160.94 129.63 161.29 130.23 161.64 129.93 161.98 129.63 162.33 129.63 162.68 129.34 163.03 130.23 163.38 131.11"/>
      </g>
      <g stroke-width="0.3" fill="#000000" fill-opacity="0.000" class="geometry" stroke-dasharray="none" stroke="#E6F598" id="img-62492009-13">
        <path fill="none" d="M21.98,71.86 L 22.33 73.05 22.68 73.05 23.03 65.35 23.38 60.9 23.73 59.72 24.08 60.01 24.42 60.31 24.77 59.12 25.12 65.64 25.47 63.57 25.82 64.16 26.17 58.24 26.52 53.79 26.87 51.13 27.22 49.94 27.57 49.94 27.92 48.46 28.27 46.98 28.61 51.72 28.96 51.72 29.31 53.5 29.66 48.16 30.01 47.87 30.36 46.68 30.71 48.16 31.06 46.68 31.41 48.16 31.76 43.13 32.11 41.05 32.45 33.65 32.8 32.46 33.15 31.57 33.5 29.5 33.85 28.02 34.2 24.76 34.55 24.76 34.9 24.76 35.25 25.65 35.6 25.35 35.95 26.54 36.3 25.65 36.64 29.5 36.99 29.79 37.34 29.5 37.69 28.61 38.04 30.68 38.39 29.5 38.74 28.31 39.09 26.54 39.44 25.94 39.79 25.94 40.14 26.24 40.49 27.72 40.83 31.28 41.18 29.2 41.53 25.05 41.88 27.13 42.23 26.83 42.58 28.31 42.93 27.72 43.28 28.31 43.63 29.79 43.98 30.09 44.33 28.91 44.67 28.91 45.02 29.5 45.37 29.79 45.72 28.31 46.07 30.09 46.42 28.91 46.77 31.28 47.12 31.57 47.47 30.68 47.82 32.16 48.17 30.09 48.52 32.76 48.86 33.05 49.21 34.83 49.56 36.31 49.91 37.79 50.26 38.39 50.61 38.39 50.96 40.16 51.31 37.79 51.66 39.57 52.01 40.16 52.36 36.9 52.7 38.68 53.05 38.39 53.4 36.61 53.75 36.61 54.1 38.68 54.45 38.39 54.8 37.2 55.15 36.31 55.5 33.94 55.85 30.68 56.2 33.05 56.55 34.24 56.89 33.35 57.24 32.76 57.59 35.13 57.94 33.35 58.29 34.24 58.64 30.98 58.99 29.5 59.34 29.5 59.69 35.42 60.04 35.13 60.39 34.83 60.73 36.31 61.08 33.65 61.43 33.65 61.78 29.79 62.13 33.65 62.48 30.68 62.83 28.02 63.18 26.24 63.53 26.54 63.88 22.98 64.23 22.39 64.58 22.98 64.92 22.39 65.27 20.91 65.62 21.8 65.97 21.2 66.32 18.24 66.67 18.54 67.02 18.54 67.37 19.43 67.72 20.61 68.07 20.61 68.42 22.09 68.77 20.02 69.11 19.43 69.46 20.31 69.81 21.2 70.16 21.8 70.51 20.61 70.86 21.8 71.21 18.24 71.56 18.83 71.91 18.54 72.26 17.35 72.61 17.65 72.95 16.46 73.3 15.57 73.65 17.65 74 18.83 74.35 20.61 74.7 20.31 75.05 22.09 75.4 22.09 75.75 22.68 76.1 23.57 76.45 23.57 76.8 22.39 77.14 25.94 77.49 26.24 77.84 26.24 78.19 28.02 78.54 25.94 78.89 24.17 79.24 23.57 79.59 23.28 79.94 21.5 80.29 22.39 80.64 20.02 80.98 20.91 81.33 19.72 81.68 17.65 82.03 20.02 82.38 20.61 82.73 21.5 83.08 19.43 83.43 23.57 83.78 24.76 84.13 23.57 84.48 22.68 84.83 22.68 85.17 24.76 85.52 23.87 85.87 22.68 86.22 20.91 86.57 21.8 86.92 19.43 87.27 21.2 87.62 22.68 87.97 20.91 88.32 20.61 88.67 18.54 89.02 19.43 89.36 18.54 89.71 15.28 90.06 15.57 90.41 14.09 90.76 14.69 91.11 16.76 91.46 15.57 91.81 14.98 92.16 14.69 92.51 14.09 92.86 14.09 93.2 14.69 93.55 14.69 93.9 14.98 94.25 15.87 94.6 16.17 94.95 15.87 95.3 16.76 95.65 16.46 96 17.06 96.35 18.24 96.7 16.76 97.05 16.76 97.39 16.17 97.74 18.24 98.09 18.24 98.44 18.83 98.79 19.72 99.14 19.72 99.49 18.54 99.84 18.54 100.19 19.72 100.54 18.54 100.89 16.76 101.23 16.76 101.58 18.54 101.93 18.83 102.28 19.72 102.63 19.43 102.98 20.61 103.33 20.61 103.68 19.72 104.03 19.13 104.38 20.91 104.73 21.8 105.08 21.5 105.42 20.02 105.77 22.68 106.12 24.46 106.47 26.24 106.82 26.54 107.17 25.94 107.52 27.42 107.87 29.2 108.22 28.02 108.57 26.83 108.92 27.13 109.26 31.28 109.61 30.98 109.96 32.16 110.31 32.76 110.66 35.72 111.01 30.68 111.36 33.05 111.71 32.16 112.06 29.2 112.41 28.31 112.76 22.39 113.11 20.31 113.45 22.09 113.8 23.57 114.15 20.31 114.5 20.91 114.85 20.31 115.2 21.5 115.55 24.76 115.9 25.65 116.25 26.54 116.6 25.65 116.95 26.83 117.3 24.46 117.64 22.68 117.99 20.02 118.34 16.76 118.69 14.69 119.04 14.09 119.39 14.39 119.74 14.69 120.09 15.57 120.44 14.09 120.79 14.09 121.14 14.98 121.48 14.69 121.83 14.98 122.18 15.57 122.53 14.98 122.88 14.69 123.23 13.5 123.58 13.5 123.93 12.91 124.28 12.61"/>
      </g>
      <g stroke-width="0.3" fill="#000000" fill-opacity="0.000" class="geometry" stroke-dasharray="none" stroke="#FFFFBF" id="img-62492009-14">
        <path fill="none" d="M21.98,71.86 L 22.33 73.94 22.68 77.49 23.03 77.2 23.38 75.42 23.73 76.01 24.08 71.57 24.42 66.83 24.77 72.75 25.12 69.2 25.47 66.53 25.82 62.38 26.17 59.72 26.52 61.49 26.87 62.38 27.22 58.83 27.57 57.35 27.92 52.9 28.27 57.35 28.61 55.87 28.96 53.5 29.31 56.16 29.66 59.12 30.01 60.31 30.36 57.94 30.71 60.31 31.06 63.27 31.41 64.16 31.76 65.05 32.11 59.42 32.45 64.46 32.8 68.31 33.15 71.86 33.5 69.2 33.85 72.16 34.2 71.27 34.55 72.16 34.9 69.49 35.25 72.75 35.6 71.57 35.95 73.34 36.3 73.34 36.64 73.34 36.99 71.57 37.34 73.94 37.69 75.12 38.04 77.2 38.39 73.64 38.74 77.79 39.09 83.42 39.44 80.16 39.79 79.57 40.14 85.79 40.49 81.94 40.83 87.27 41.18 89.94 41.53 92.6 41.88 92.31 42.23 96.45 42.58 96.75 42.93 96.75 43.28 94.68 43.63 89.94 43.98 88.75 44.33 89.94 44.67 92.6 45.02 94.97 45.37 93.79 45.72 93.19 46.07 87.57 46.42 90.23 46.77 86.68 47.12 92.9 47.47 93.49 47.82 90.53 48.17 91.71 48.52 95.86 48.86 94.68 49.21 92.6 49.56 91.42 49.91 94.68 50.26 97.93 50.61 96.75 50.96 96.75 51.31 99.12 51.66 98.82 52.01 97.93 52.36 95.56 52.7 93.79 53.05 92.31 53.4 88.16 53.75 85.19 54.1 86.97 54.45 87.86 54.8 89.05 55.15 87.86 55.5 82.23 55.85 84.6 56.2 82.53 56.55 77.49 56.89 76.31 57.24 76.9 57.59 74.83 57.94 74.53 58.29 73.64 58.64 71.86 58.99 75.12 59.34 77.2 59.69 82.82 60.04 84.31 60.39 80.75 60.73 76.6 61.08 77.49 61.43 84.9 61.78 81.34 62.13 82.82 62.48 82.82 62.83 82.23 63.18 83.12 63.53 80.75 63.88 80.16 64.23 76.9 64.58 78.38 64.92 78.68 65.27 76.31 65.62 78.68 65.97 80.45 66.32 79.86 66.67 81.64 67.02 82.53 67.37 86.68 67.72 91.12 68.07 89.05 68.42 94.08 68.77 95.56 69.11 96.45 69.46 96.75 69.81 102.97 70.16 108.3 70.51 110.97 70.86 115.12 71.21 115.41 71.56 115.12 71.91 114.23 72.26 112.15 72.61 111.86 72.95 108.01 73.3 108.01 73.65 108.3 74 111.56 74.35 110.38 74.7 110.08 75.05 109.78 75.4 110.67 75.75 108.01 76.1 109.78 76.45 115.12 76.8 113.04 77.14 115.71 77.49 112.15 77.84 112.75 78.19 114.52 78.54 116.01 78.89 117.78 79.24 120.15 79.59 121.63 79.94 120.75 80.29 120.15 80.64 121.63 80.98 124 81.33 124.89 81.68 127.86 82.03 126.67 82.38 125.78 82.73 126.08 83.08 126.67 83.43 125.19 83.78 125.19 84.13 126.37 84.48 126.37 84.83 126.67 85.17 126.08 85.52 126.97 85.87 126.37 86.22 125.78 86.57 125.78 86.92 124 87.27 124.6 87.62 124.89 87.97 122.52 88.32 123.71 88.67 122.82 89.02 118.08 89.36 114.23 89.71 114.52 90.06 117.19 90.41 117.49 90.76 118.08 91.11 115.41 91.46 116.89 91.81 120.45 92.16 118.08 92.51 119.86 92.86 119.26 93.2 121.04 93.55 118.38 93.9 121.93 94.25 119.86 94.6 120.45 94.95 120.15 95.3 120.45 95.65 119.86 96 117.19 96.35 116.3 96.7 116.6 97.05 117.78 97.39 114.82 97.74 113.34 98.09 112.45 98.44 112.75 98.79 113.93 99.14 115.12 99.49 114.23 99.84 115.71 100.19 118.67 100.54 121.04 100.89 122.52 101.23 122.52 101.58 119.56 101.93 119.26 102.28 120.45 102.63 120.15 102.98 119.86 103.33 119.56 103.68 121.34 104.03 121.04 104.38 119.86 104.73 117.49 105.08 120.75 105.42 121.04 105.77 119.56 106.12 120.45 106.47 119.86 106.82 119.86 107.17 122.82 107.52 124.3 107.87 123.12 108.22 124.3 108.57 126.08 108.92 126.37 109.26 127.26 109.61 129.04 109.96 129.04 110.31 130.52 110.66 130.52 111.01 130.52 111.36 131.11"/>
      </g>
      <g stroke-width="0.3" fill="#000000" fill-opacity="0.000" class="geometry" stroke-dasharray="none" stroke="#FEE08B" id="img-62492009-15">
        <path fill="none" d="M21.98,71.86 L 22.33 70.38 22.68 66.83 23.03 69.49 23.38 67.42 23.73 64.75 24.08 65.94 24.42 72.75 24.77 77.79 25.12 78.97 25.47 77.2 25.82 81.05 26.17 84.01 26.52 77.2 26.87 80.16 27.22 84.31 27.57 81.94 27.92 82.23 28.27 81.34 28.61 76.6 28.96 74.53 29.31 74.53 29.66 76.6 30.01 78.08 30.36 78.68 30.71 76.01 31.06 74.83 31.41 75.12 31.76 73.94 32.11 74.83 32.45 79.57 32.8 82.23 33.15 83.71 33.5 87.27 33.85 91.71 34.2 90.23 34.55 87.27 34.9 89.64 35.25 91.42 35.6 91.71 35.95 89.94 36.3 86.68 36.64 88.16 36.99 89.64 37.34 86.38 37.69 86.38 38.04 87.27 38.39 87.57 38.74 87.27 39.09 88.16 39.44 84.9 39.79 83.12 40.14 84.6 40.49 81.34 40.83 78.08 41.18 79.86 41.53 80.45 41.88 80.16 42.23 78.97 42.58 75.71 42.93 76.01 43.28 72.75 43.63 70.97 43.98 73.64 44.33 76.01 44.67 76.6 45.02 75.42 45.37 71.86 45.72 68.6 46.07 74.53 46.42 74.23 46.77 73.64 47.12 76.01 47.47 79.86 47.82 78.97 48.17 76.31 48.52 73.34 48.86 72.16 49.21 74.23 49.56 75.12 49.91 72.16 50.26 71.27 50.61 68.01 50.96 73.34 51.31 72.46 51.66 70.09 52.01 66.83 52.36 67.12 52.7 66.53 53.05 61.2 53.4 66.83 53.75 64.75 54.1 67.72 54.45 67.42 54.8 69.79 55.15 70.38 55.5 62.68 55.85 62.68 56.2 65.05 56.55 65.35 56.89 66.23 57.24 64.16 57.59 60.61 57.94 63.86 58.29 62.09 58.64 62.09 58.99 61.2 59.34 64.16 59.69 59.72 60.04 57.64 60.39 54.09 60.73 55.57 61.08 55.57 61.43 52.01 61.78 54.09 62.13 60.31 62.48 60.31 62.83 60.01 63.18 60.31 63.53 62.09 63.88 59.12 64.23 57.05 64.58 58.83 64.92 57.64 65.27 55.57 65.62 52.9 65.97 51.13 66.32 48.76 66.67 49.94 67.02 48.76 67.37 49.35 67.72 50.24 68.07 54.68 68.42 53.5 68.77 54.68 69.11 52.61 69.46 55.87 69.81 54.98 70.16 52.31 70.51 49.05 70.86 49.64 71.21 46.09 71.56 51.72 71.91 48.46 72.26 44.02 72.61 38.39 72.95 40.76 73.3 38.68 73.65 41.05 74 41.05 74.35 40.16 74.7 42.83 75.05 42.83 75.4 45.5 75.75 48.46 76.1 51.13 76.45 48.16 76.8 46.68 77.14 44.31 77.49 45.5 77.84 48.46 78.19 52.9 78.54 54.09 78.89 57.35 79.24 53.5 79.59 56.75 79.94 62.98 80.29 62.68 80.64 61.49 80.98 60.31 81.33 61.2 81.68 61.79 82.03 59.72 82.38 60.61 82.73 60.01 83.08 63.27 83.43 59.72 83.78 59.42 84.13 62.98 84.48 63.86 84.83 65.35 85.17 65.64 85.52 64.46 85.87 64.46 86.22 66.83 86.57 62.38 86.92 61.49 87.27 61.79 87.62 60.9 87.97 67.12 88.32 70.97 88.67 68.31 89.02 69.79 89.36 65.64 89.71 68.01 90.06 63.27 90.41 67.72 90.76 64.75 91.11 66.83 91.46 63.27 91.81 68.9 92.16 66.83 92.51 66.53 92.86 67.42 93.2 67.12 93.55 67.42 93.9 69.49 94.25 64.46 94.6 63.86 94.95 69.2 95.3 72.16 95.65 71.27 96 69.79 96.35 69.49 96.7 74.83 97.05 76.01 97.39 75.42 97.74 75.12 98.09 76.31 98.44 81.34 98.79 80.75 99.14 79.27 99.49 82.23 99.84 80.16 100.19 78.68 100.54 83.12 100.89 82.53 101.23 81.64 101.58 80.45 101.93 80.16 102.28 85.79 102.63 86.68 102.98 82.82 103.33 78.38 103.68 78.38 104.03 75.12 104.38 69.79 104.73 68.31 105.08 65.35 105.42 65.05 105.77 68.31 106.12 70.38 106.47 71.86 106.82 72.16 107.17 75.42 107.52 76.9 107.87 77.49 108.22 79.86 108.57 78.97 108.92 80.45 109.26 83.42 109.61 84.9 109.96 83.42 110.31 90.23 110.66 91.71 111.01 89.64 111.36 85.19 111.71 81.34 112.06 86.38 112.41 86.38 112.76 86.97 113.11 87.86 113.45 87.57 113.8 89.05 114.15 89.34 114.5 90.23 114.85 86.68 115.2 87.27 115.55 86.97 115.9 82.82 116.25 81.05 116.6 80.75 116.95 84.6 117.3 85.19 117.64 82.53 117.99 84.6 118.34 82.53 118.69 86.68 119.04 87.86 119.39 84.9 119.74 84.31 120.09 84.9 120.44 84.9 120.79 85.79 121.14 89.94 121.48 87.27 121.83 85.79 122.18 86.68 122.53 86.08 122.88 92.31 123.23 92.6 123.58 87.27 123.93 90.82 124.28 93.49 124.63 94.38 124.98 95.56 125.33 99.42 125.67 98.23 126.02 100.01 126.37 95.86 126.72 93.19 127.07 92.31 127.42 92.01 127.77 87.57 128.12 89.94 128.47 92.01 128.82 91.42 129.17 90.82 129.51 93.79 129.86 95.86 130.21 94.08 130.56 89.05 130.91 89.05 131.26 88.45 131.61 90.82 131.96 89.64 132.31 89.94 132.66 88.16 133.01 89.05 133.36 88.16 133.7 85.19 134.05 83.42 134.4 83.71 134.75 84.6 135.1 83.12 135.45 85.49 135.8 84.6 136.15 84.31 136.5 82.53 136.85 83.71 137.2 81.34 137.55 84.9 137.89 83.42 138.24 83.42 138.59 79.57 138.94 79.57 139.29 82.23 139.64 75.12 139.99 75.42 140.34 76.9 140.69 74.83 141.04 78.08 141.39 81.94 141.73 86.08 142.08 86.08 142.43 84.9 142.78 87.86 143.13 84.01 143.48 86.68 143.83 87.86 144.18 90.53 144.53 85.19 144.88 84.9 145.23 84.6 145.58 88.45 145.92 89.34 146.27 90.53 146.62 91.12 146.97 92.6 147.32 92.9 147.67 91.71 148.02 93.19 148.37 97.05 148.72 95.56 149.07 95.56 149.42 97.34 149.76 96.75 150.11 98.23 150.46 97.93 150.81 100.01 151.16 97.93 151.51 99.12 151.86 99.71 152.21 99.12 152.56 100.01 152.91 99.42 153.26 103.86 153.61 108.01 153.95 104.75 154.3 100.01 154.65 100.3 155 98.23 155.35 92.9 155.7 96.16 156.05 95.27 156.4 95.27 156.75 93.49 157.1 95.56 157.45 91.42 157.79 92.01 158.14 94.97 158.49 96.45 158.84 101.19 159.19 102.38 159.54 101.79 159.89 105.04 160.24 104.16 160.59 102.97 160.94 99.71 161.29 103.56 161.64 107.41 161.98 105.93 162.33 108.6 162.68 106.53 163.03 112.15 163.38 110.67 163.73 112.75 164.08 115.71 164.43 115.41 164.78 115.71 165.13 115.12 165.48 113.93 165.83 117.19 166.17 115.41 166.52 115.41 166.87 119.86 167.22 120.45 167.57 120.45 167.92 118.67 168.27 118.67 168.62 117.78 168.97 116.6 169.32 116.3 169.67 118.38 170.01 121.34 170.36 117.19 170.71 121.04 171.06 121.63 171.41 122.52 171.76 123.41 172.11 123.41 172.46 120.75 172.81 116.89 173.16 116.3 173.51 113.04 173.86 113.93 174.2 112.75 174.55 111.27 174.9 110.08 175.25 110.97 175.6 109.78 175.95 106.53 176.3 109.19 176.65 112.45 177 110.67 177.35 109.78 177.7 113.34 178.04 112.75 178.39 113.64 178.74 115.71 179.09 114.52 179.44 116.89 179.79 116.89 180.14 118.38 180.49 119.56 180.84 118.08 181.19 118.08 181.54 117.19 181.89 117.49 182.23 116.3 182.58 117.49 182.93 119.26 183.28 118.97 183.63 123.12 183.98 126.67 184.33 126.67 184.68 127.56 185.03 128.45 185.38 128.45 185.73 127.56 186.08 128.15 186.42 127.26 186.77 127.86 187.12 130.23 187.47 129.93 187.82 130.23 188.17 130.52 188.52 130.82 188.87 131.11"/>
      </g>
      <g stroke-width="0.3" fill="#000000" fill-opacity="0.000" class="geometry" stroke-dasharray="none" stroke="#FDAE61" id="img-62492009-16">
        <path fill="none" d="M21.98,71.86 L 22.33 71.57 22.68 72.16 23.03 75.12 23.38 78.97 23.73 74.83 24.08 76.6 24.42 78.68 24.77 82.53 25.12 86.38 25.47 82.82 25.82 86.38 26.17 87.27 26.52 89.64 26.87 94.08 27.22 95.86 27.57 98.53 27.92 96.16 28.27 96.75 28.61 92.31 28.96 90.82 29.31 92.31 29.66 92.9 30.01 90.53 30.36 88.16 30.71 86.38 31.06 81.34 31.41 79.27 31.76 81.05 32.11 81.05 32.45 77.2 32.8 80.16 33.15 82.23 33.5 84.6 33.85 84.01 34.2 86.68 34.55 86.68 34.9 87.27 35.25 87.57 35.6 86.08 35.95 90.53 36.3 89.64 36.64 97.05 36.99 94.08 37.34 93.19 37.69 96.75 38.04 98.53 38.39 101.79 38.74 102.67 39.09 96.75 39.44 96.45 39.79 96.75 40.14 98.23 40.49 100.3 40.83 98.23 41.18 98.53 41.53 97.05 41.88 92.6 42.23 95.86 42.58 94.38 42.93 91.12 43.28 91.71 43.63 91.12 43.98 89.94 44.33 89.05 44.67 88.16 45.02 88.16 45.37 92.01 45.72 88.75 46.07 81.94 46.42 85.19 46.77 91.71 47.12 92.9 47.47 94.08 47.82 98.53 48.17 99.71 48.52 98.23 48.86 96.16 49.21 97.34 49.56 95.86 49.91 97.34 50.26 96.45 50.61 91.71 50.96 92.31 51.31 97.05 51.66 95.86 52.01 99.42 52.36 100.3 52.7 98.23 53.05 97.93 53.4 99.42 53.75 98.23 54.1 98.82 54.45 98.23 54.8 95.27 55.15 97.93 55.5 91.71 55.85 88.75 56.2 87.86 56.55 89.05 56.89 88.16 57.24 86.08 57.59 83.71 57.94 87.27 58.29 86.68 58.64 92.01 58.99 93.79 59.34 94.38 59.69 91.12 60.04 92.6 60.39 90.82 60.73 89.64 61.08 92.6 61.43 95.86 61.78 92.9 62.13 95.27 62.48 97.93 62.83 102.97 63.18 104.75 63.53 104.75 63.88 112.15 64.23 113.04 64.58 115.12 64.92 117.49 65.27 116.89 65.62 114.82 65.97 117.49 66.32 114.52 66.67 115.71 67.02 116.3 67.37 117.78 67.72 118.38 68.07 119.26 68.42 118.38 68.77 117.49 69.11 117.78 69.46 116.01 69.81 116.6 70.16 117.49 70.51 116.3 70.86 113.93 71.21 110.97 71.56 110.67 71.91 115.12 72.26 116.89 72.61 115.12 72.95 112.15 73.3 110.08 73.65 113.34 74 112.45 74.35 115.41 74.7 118.38 75.05 119.86 75.4 122.23 75.75 121.04 76.1 122.23 76.45 121.34 76.8 119.86 77.14 118.38 77.49 121.34 77.84 122.52 78.19 122.52 78.54 121.63 78.89 120.75 79.24 120.75 79.59 119.86 79.94 118.38 80.29 117.19 80.64 117.49 80.98 121.34 81.33 125.49 81.68 124 82.03 124.6 82.38 122.23 82.73 123.12 83.08 122.23 83.43 121.04 83.78 121.63 84.13 122.82 84.48 121.34 84.83 120.75 85.17 118.67 85.52 121.04 85.87 120.45 86.22 122.52 86.57 123.12 86.92 121.04 87.27 122.23 87.62 121.34 87.97 123.12 88.32 121.93 88.67 120.45 89.02 120.45 89.36 121.63 89.71 120.75 90.06 119.86 90.41 120.15 90.76 122.23 91.11 121.63 91.46 121.63 91.81 123.12 92.16 124 92.51 122.52 92.86 122.82 93.2 123.41 93.55 122.52 93.9 123.71 94.25 126.08 94.6 127.56 94.95 127.26 95.3 126.97 95.65 126.67 96 127.86 96.35 128.15 96.7 128.74 97.05 129.34 97.39 129.04 97.74 130.23 98.09 129.34 98.44 129.04 98.79 128.74 99.14 128.15 99.49 130.52 99.84 130.82 100.19 130.52 100.54 130.52 100.89 130.52 101.23 130.82 101.58 131.11"/>
      </g>
      <g stroke-width="0.3" fill="#000000" fill-opacity="0.000" class="geometry" stroke-dasharray="none" stroke="#F46D43" id="img-62492009-17">
        <path fill="none" d="M21.98,71.86 L 22.33 73.94 22.68 78.38 23.03 80.16 23.38 79.57 23.73 73.34 24.08 74.23 24.42 75.42 24.77 76.9 25.12 75.71 25.47 76.01 25.82 72.46 26.17 65.05 26.52 65.64 26.87 68.31 27.22 65.94 27.57 64.75 27.92 68.9 28.27 69.2 28.61 65.94 28.96 64.75 29.31 62.98 29.66 65.35 30.01 64.75 30.36 66.83 30.71 66.53 31.06 69.79 31.41 72.46 31.76 74.83 32.11 75.71 32.45 73.05 32.8 71.86 33.15 64.75 33.5 63.57 33.85 63.27 34.2 67.12 34.55 69.79 34.9 68.31 35.25 70.68 35.6 73.05 35.95 70.97 36.3 70.68 36.64 74.53 36.99 73.05 37.34 71.57 37.69 75.42 38.04 75.71 38.39 76.9 38.74 77.2 39.09 77.79 39.44 76.6 39.79 76.31 40.14 72.46 40.49 74.53 40.83 78.08 41.18 78.38 41.53 73.05 41.88 75.12 42.23 74.53 42.58 75.42 42.93 77.79 43.28 75.71 43.63 75.71 43.98 74.83 44.33 75.42 44.67 70.09 45.02 75.71 45.37 80.45 45.72 82.53 46.07 85.19 46.42 83.42 46.77 81.34 47.12 81.94 47.47 81.34 47.82 77.2 48.17 79.86 48.52 76.9 48.86 73.05 49.21 68.01 49.56 72.75 49.91 70.38 50.26 68.6 50.61 66.83 50.96 68.6 51.31 67.12 51.66 63.57 52.01 65.35 52.36 68.31 52.7 67.42 53.05 68.31 53.4 63.27 53.75 65.64 54.1 67.12 54.45 64.75 54.8 61.2 55.15 62.68 55.5 62.09 55.85 64.75 56.2 67.72 56.55 60.9 56.89 61.79 57.24 60.9 57.59 60.9 57.94 58.53 58.29 55.87 58.64 55.27 58.99 54.98 59.34 60.01 59.69 61.79 60.04 59.72 60.39 58.24 60.73 58.83 61.08 55.57 61.43 55.87 61.78 58.83 62.13 54.98 62.48 55.27 62.83 55.57 63.18 54.38 63.53 54.09 63.88 52.31 64.23 56.46 64.58 56.75 64.92 56.16 65.27 54.09 65.62 53.2 65.97 56.16 66.32 55.57 66.67 53.5 67.02 54.68 67.37 57.64 67.72 57.05 68.07 55.87 68.42 55.57 68.77 56.16 69.11 59.72 69.46 57.35 69.81 54.68 70.16 55.57 70.51 54.98 70.86 51.72 71.21 51.13 71.56 55.27 71.91 56.46 72.26 57.35 72.61 52.9 72.95 54.09 73.3 53.2 73.65 52.9 74 55.27 74.35 52.01 74.7 52.31 75.05 53.2 75.4 49.35 75.75 49.05 76.1 41.94 76.45 42.83 76.8 45.79 77.14 46.09 77.49 47.27 77.84 46.39 78.19 48.46 78.54 47.27 78.89 45.5 79.24 44.9 79.59 45.5 79.94 46.68 80.29 46.39 80.64 45.79 80.98 45.79 81.33 46.98 81.68 52.01 82.03 51.72 82.38 55.87 82.73 55.87 83.08 53.79 83.43 54.38 83.78 52.31 84.13 52.31 84.48 59.42 84.83 55.57 85.17 54.38 85.52 55.27 85.87 55.27 86.22 57.35 86.57 56.46 86.92 53.79 87.27 51.13 87.62 53.2 87.97 54.38 88.32 57.05 88.67 56.46 89.02 61.49 89.36 63.27 89.71 65.05 90.06 63.86 90.41 61.2 90.76 70.09 91.11 70.97 91.46 68.6 91.81 70.09 92.16 73.34 92.51 68.6 92.86 69.2 93.2 66.53 93.55 66.83 93.9 63.27 94.25 64.16 94.6 56.75 94.95 55.87 95.3 56.75 95.65 61.49 96 62.68 96.35 62.98 96.7 60.61 97.05 59.42 97.39 58.24 97.74 57.94 98.09 60.31 98.44 66.53 98.79 70.68 99.14 70.38 99.49 70.97 99.84 70.09 100.19 62.68 100.54 60.9 100.89 60.31 101.23 56.46 101.58 57.35 101.93 59.42 102.28 60.9 102.63 59.12 102.98 61.2 103.33 63.57 103.68 62.38 104.03 66.23 104.38 68.31 104.73 61.49 105.08 62.38 105.42 60.01 105.77 63.57 106.12 65.94 106.47 65.05 106.82 62.38 107.17 59.42 107.52 58.24 107.87 59.12 108.22 62.68 108.57 65.64 108.92 64.46 109.26 64.75 109.61 67.12 109.96 68.6 110.31 69.49 110.66 69.79 111.01 72.16 111.36 70.09 111.71 73.34 112.06 73.34 112.41 73.64 112.76 76.01 113.11 72.75 113.45 72.46 113.8 75.42 114.15 76.6 114.5 79.57 114.85 79.27 115.2 75.42 115.55 74.83 115.9 74.83 116.25 75.42 116.6 72.75 116.95 70.97 117.3 76.9 117.64 77.79 117.99 78.08 118.34 74.83 118.69 73.64 119.04 74.23 119.39 77.2 119.74 75.42 120.09 67.72 120.44 71.86 120.79 73.94 121.14 69.79 121.48 73.64 121.83 70.97 122.18 76.6 122.53 78.68 122.88 75.71 123.23 78.38 123.58 76.01 123.93 73.94 124.28 74.53 124.63 74.83 124.98 78.08 125.33 76.6 125.67 76.6 126.02 72.16 126.37 75.42 126.72 75.12 127.07 70.68 127.42 69.49 127.77 66.23 128.12 64.46 128.47 70.68 128.82 72.16 129.17 68.01 129.51 66.53 129.86 63.57 130.21 59.72 130.56 54.98 130.91 52.9 131.26 53.2 131.61 53.2 131.96 54.68 132.31 60.9 132.66 59.12 133.01 62.38 133.36 65.64 133.7 66.83 134.05 66.83 134.4 62.38 134.75 63.27 135.1 59.42 135.45 58.24 135.8 56.46 136.15 59.12 136.5 50.83 136.85 52.31 137.2 46.68 137.55 48.46 137.89 43.42 138.24 42.24 138.59 45.79 138.94 45.2 139.29 42.83 139.64 47.27 139.99 43.42 140.34 43.72 140.69 44.02 141.04 49.35 141.39 50.83 141.73 50.83 142.08 54.38 142.43 57.35 142.78 60.9 143.13 58.53 143.48 62.09 143.83 59.12 144.18 57.35 144.53 54.09 144.88 53.79 145.23 49.35 145.58 48.76 145.92 42.53 146.27 44.61 146.62 44.9 146.97 47.87 147.32 47.57 147.67 47.27 148.02 47.87 148.37 49.35 148.72 44.31 149.07 42.83 149.42 46.98 149.76 45.79 150.11 49.05 150.46 47.57 150.81 49.64 151.16 41.35 151.51 41.64 151.86 41.35 152.21 37.79 152.56 38.09 152.91 36.31 153.26 38.98 153.61 36.02 153.95 34.53 154.3 34.53 154.65 30.68 155 30.39 155.35 32.46 155.7 31.57 156.05 30.68 156.4 28.61 156.75 26.54 157.1 26.54 157.45 29.2 157.79 33.65 158.14 36.31 158.49 37.2 158.84 36.61 159.19 36.02 159.54 36.9 159.89 35.42 160.24 35.42 160.59 31.87 160.94 33.94 161.29 36.61 161.64 38.98 161.98 38.98 162.33 36.9 162.68 35.13 163.03 31.87 163.38 32.46 163.73 32.46 164.08 32.16 164.43 31.87 164.78 29.5 165.13 33.65 165.48 36.02 165.83 41.35 166.17 37.2 166.52 36.31 166.87 34.24 167.22 36.31 167.57 36.02 167.92 38.98 168.27 37.5 168.62 34.83 168.97 30.68 169.32 32.46 169.67 31.28 170.01 32.16 170.36 30.39 170.71 29.2 171.06 31.87 171.41 30.09 171.76 30.68 172.11 30.09 172.46 35.13 172.81 33.94 173.16 35.42 173.51 35.13 173.86 32.76 174.2 36.31 174.55 42.24 174.9 38.39 175.25 35.42 175.6 35.13 175.95 31.87 176.3 31.57 176.65 28.91 177 29.2 177.35 30.39 177.7 32.46 178.04 29.79 178.39 32.16 178.74 35.42 179.09 38.98 179.44 40.46 179.79 42.53 180.14 44.9 180.49 48.46 180.84 48.16 181.19 46.09 181.54 44.61 181.89 44.02 182.23 46.98 182.58 45.5 182.93 44.02 183.28 43.72 183.63 40.76 183.98 39.87 184.33 42.24 184.68 42.53 185.03 40.16 185.38 38.98 185.73 41.94 186.08 43.13 186.42 42.24 186.77 43.72 187.12 44.61 187.47 42.24 187.82 40.46 188.17 44.31 188.52 44.02 188.87 41.05 189.22 40.16 189.57 39.87 189.92 41.64 190.26 39.87 190.61 41.64 190.96 37.5 191.31 35.42 191.66 35.72 192.01 36.9 192.36 36.9 192.71 33.05 193.06 28.31 193.41 32.46 193.76 32.76 194.11 36.02 194.45 37.5 194.8 36.9 195.15 35.13 195.5 35.13 195.85 38.39 196.2 35.72"/>
      </g>
      <g stroke-width="0.3" fill="#000000" fill-opacity="0.000" class="geometry" stroke-dasharray="none" stroke="#D53E4F" id="img-62492009-18">
        <path fill="none" d="M21.98,71.86 L 22.33 76.01 22.68 81.94 23.03 86.97 23.38 86.68 23.73 85.79 24.08 90.82 24.42 93.19 24.77 91.42 25.12 89.34 25.47 87.57 25.82 82.23 26.17 80.16 26.52 86.08 26.87 86.97 27.22 89.94 27.57 91.42 27.92 95.56 28.27 98.23 28.61 94.68 28.96 96.45 29.31 94.97 29.66 98.53 30.01 100.3 30.36 101.49 30.71 102.38 31.06 100.01 31.41 103.86 31.76 103.86 32.11 105.04 32.45 101.19 32.8 97.93 33.15 101.19 33.5 95.86 33.85 97.93 34.2 96.16 34.55 97.64 34.9 92.01 35.25 98.53 35.6 102.97 35.95 104.75 36.3 104.45 36.64 103.86 36.99 103.86 37.34 106.53 37.69 106.82 38.04 104.75 38.39 106.53 38.74 105.34 39.09 104.45 39.44 104.45 39.79 103.27 40.14 106.53 40.49 103.86 40.83 102.38 41.18 101.49 41.53 99.71 41.88 94.08 42.23 94.68 42.58 94.68 42.93 92.31 43.28 96.45 43.63 97.05 43.98 95.56 44.33 99.71 44.67 98.82 45.02 99.71 45.37 99.42 45.72 98.82 46.07 93.79 46.42 91.71 46.77 92.9 47.12 89.64 47.47 88.45 47.82 91.12 48.17 91.71 48.52 91.71 48.86 90.82 49.21 94.68 49.56 96.75 49.91 98.23 50.26 94.38 50.61 97.93 50.96 99.71 51.31 100.6 51.66 99.12 52.01 98.82 52.36 96.45 52.7 100.6 53.05 102.97 53.4 105.04 53.75 105.93 54.1 110.38 54.45 108.3 54.8 109.78 55.15 111.86 55.5 113.34 55.85 118.08 56.2 117.49 56.55 119.56 56.89 118.67 57.24 118.67 57.59 119.56 57.94 119.26 58.29 116.89 58.64 114.52 58.99 116.6 59.34 115.41 59.69 113.04 60.04 113.04 60.39 116.01 60.73 115.12 61.08 114.52 61.43 113.64 61.78 113.04 62.13 114.52 62.48 113.34 62.83 115.71 63.18 115.71 63.53 117.78 63.88 118.97 64.23 116.89 64.58 116.89 64.92 118.97 65.27 115.12 65.62 113.34 65.97 113.93 66.32 111.86 66.67 115.12 67.02 114.52 67.37 116.01 67.72 116.3 68.07 117.78 68.42 120.15 68.77 120.75 69.11 120.75 69.46 121.63 69.81 122.23 70.16 121.63 70.51 123.71 70.86 123.71 71.21 122.23 71.56 123.12 71.91 122.82 72.26 121.63 72.61 124 72.95 124.89 73.3 125.49 73.65 125.78 74 127.56 74.35 127.86 74.7 128.74 75.05 128.45 75.4 128.45 75.75 128.74 76.1 128.74 76.45 130.23 76.8 130.23 77.14 129.93 77.49 130.52 77.84 130.52 78.19 130.52 78.54 131.11"/>
      </g>
      <g stroke-width="0.3" fill="#000000" fill-opacity="0.000" class="geometry" stroke-dasharray="none" stroke="#9E0142" id="img-62492009-19">
        <path fill="none" d="M21.98,71.86 L 22.33 70.68 22.68 72.46 23.03 68.01 23.38 68.9 23.73 69.49 24.08 67.72 24.42 67.72 24.77 70.09 25.12 71.86 25.47 77.79 25.82 76.9 26.17 76.31 26.52 76.9 26.87 81.64 27.22 84.01 27.57 86.97 27.92 83.71 28.27 83.12 28.61 80.45 28.96 81.94 29.31 85.49 29.66 87.86 30.01 83.71 30.36 82.82 30.71 82.23 31.06 84.9 31.41 86.97 31.76 84.6 32.11 84.6 32.45 85.19 32.8 81.34 33.15 81.34 33.5 81.34 33.85 82.82 34.2 84.6 34.55 83.71 34.9 87.57 35.25 84.6 35.6 80.16 35.95 80.75 36.3 76.01 36.64 76.6 36.99 77.2 37.34 80.45 37.69 81.34 38.04 80.75 38.39 83.12 38.74 80.75 39.09 78.97 39.44 76.6 39.79 80.45 40.14 79.57 40.49 76.6 40.83 79.57 41.18 77.79 41.53 74.53 41.88 76.6 42.23 77.79 42.58 78.08 42.93 79.57 43.28 80.75 43.63 81.94 43.98 85.49 44.33 83.71 44.67 80.75 45.02 81.64 45.37 81.05 45.72 85.49 46.07 81.94 46.42 86.68 46.77 90.82 47.12 89.05 47.47 84.31 47.82 79.57 48.17 81.64 48.52 81.64 48.86 84.31 49.21 84.6 49.56 79.57 49.91 73.94 50.26 76.9 50.61 77.79 50.96 76.9 51.31 78.08 51.66 81.64 52.01 81.64 52.36 78.08 52.7 78.97 53.05 76.6 53.4 75.71 53.75 77.49 54.1 78.68 54.45 76.9 54.8 72.46 55.15 73.05 55.5 70.68 55.85 70.09 56.2 67.42 56.55 68.6 56.89 70.97 57.24 70.09 57.59 71.27 57.94 73.05 58.29 70.68 58.64 69.2 58.99 66.83 59.34 65.94 59.69 65.94 60.04 64.16 60.39 65.05 60.73 60.61 61.08 54.68 61.43 53.2 61.78 54.98 62.13 52.9 62.48 57.64 62.83 58.24 63.18 57.05 63.53 58.83 63.88 61.49 64.23 62.68 64.58 65.94 64.92 69.2 65.27 69.2 65.62 66.53 65.97 63.86 66.32 63.57 66.67 63.57 67.02 54.98 67.37 53.5 67.72 47.27 68.07 48.76 68.42 52.61 68.77 52.61 69.11 52.61 69.46 51.13 69.81 49.94 70.16 51.13 70.51 49.35 70.86 52.61 71.21 53.79 71.56 58.53 71.91 60.61 72.26 58.83 72.61 58.24 72.95 56.16 73.3 53.5 73.65 53.79 74 56.46 74.35 62.09 74.7 60.9 75.05 61.49 75.4 65.64 75.75 70.97 76.1 73.34 76.45 72.46 76.8 74.23 77.14 77.79 77.49 77.79 77.84 78.38 78.19 77.49 78.54 76.6 78.89 71.86 79.24 73.34 79.59 74.83 79.94 72.16 80.29 72.75 80.64 73.34 80.98 76.31 81.33 78.97 81.68 83.12 82.03 81.64 82.38 77.79 82.73 82.23 83.08 82.82 83.43 75.42 83.78 73.64 84.13 72.75 84.48 72.16 84.83 65.35 85.17 66.23 85.52 67.72 85.87 67.42 86.22 70.68 86.57 70.97 86.92 68.9 87.27 70.09 87.62 72.46 87.97 77.79 88.32 81.05 88.67 82.82 89.02 86.68 89.36 89.05 89.71 89.64 90.06 88.16 90.41 91.12 90.76 96.45 91.11 101.79 91.46 101.19 91.81 102.97 92.16 102.08 92.51 101.19 92.86 101.79 93.2 102.67 93.55 104.75 93.9 103.86 94.25 105.64 94.6 107.41 94.95 108.6 95.3 106.53 95.65 102.67 96 102.38 96.35 101.79 96.7 102.38 97.05 100.9 97.39 98.82 97.74 100.9 98.09 102.67 98.44 100.6 98.79 100.01 99.14 92.6 99.49 94.97 99.84 93.19 100.19 91.12 100.54 95.27 100.89 93.19 101.23 92.31 101.58 94.97 101.93 101.19 102.28 97.34 102.63 98.82 102.98 92.31 103.33 92.6 103.68 99.42 104.03 98.53 104.38 98.53 104.73 98.82 105.08 99.12 105.42 98.82 105.77 102.38 106.12 102.97 106.47 105.93 106.82 108.6 107.17 107.71 107.52 100.6 107.87 96.75 108.22 96.75 108.57 95.86 108.92 90.53 109.26 96.75 109.61 101.49 109.96 102.97 110.31 102.08 110.66 104.16 111.01 102.67 111.36 106.53 111.71 104.16 112.06 102.97 112.41 102.08 112.76 103.27 113.11 102.38 113.45 101.19 113.8 102.38 114.15 98.82 114.5 107.12 114.85 104.16 115.2 102.08 115.55 100.3 115.9 97.05 116.25 96.45 116.6 97.64 116.95 99.12 117.3 99.42 117.64 100.01 117.99 100.6 118.34 100.9 118.69 101.79 119.04 103.86 119.39 105.93 119.74 105.34 120.09 99.71 120.44 97.05 120.79 97.34 121.14 93.49 121.48 87.86 121.83 88.16 122.18 89.94 122.53 86.38 122.88 82.23 123.23 76.31 123.58 77.79 123.93 76.9 124.28 76.6 124.63 81.05 124.98 78.68 125.33 72.16 125.67 76.6 126.02 74.83 126.37 69.49 126.72 67.72 127.07 66.23 127.42 63.27 127.77 65.35 128.12 62.98 128.47 68.01 128.82 67.42 129.17 67.72 129.51 73.34 129.86 66.83 130.21 67.42 130.56 68.6 130.91 67.12 131.26 68.6 131.61 74.23 131.96 71.57 132.31 66.83 132.66 68.6 133.01 70.97 133.36 73.34 133.7 73.05 134.05 75.42 134.4 71.86 134.75 70.97 135.1 72.75 135.45 73.05 135.8 78.08 136.15 82.23 136.5 82.82 136.85 82.82 137.2 81.05 137.55 83.71 137.89 81.34 138.24 70.09 138.59 71.57 138.94 79.86 139.29 81.94 139.64 83.12 139.99 84.31 140.34 85.79 140.69 86.38 141.04 85.49 141.39 88.16 141.73 88.16 142.08 83.42 142.43 79.86 142.78 84.01 143.13 86.08 143.48 84.6 143.83 85.49 144.18 86.08 144.53 85.19 144.88 86.68 145.23 82.53 145.58 83.12 145.92 84.9 146.27 88.16 146.62 89.94 146.97 90.23 147.32 86.08 147.67 86.38 148.02 87.57 148.37 87.27 148.72 83.71 149.07 83.71 149.42 86.68 149.76 88.45 150.11 93.19 150.46 96.45 150.81 95.56 151.16 100.9 151.51 98.53 151.86 100.3 152.21 103.27 152.56 98.23 152.91 99.42 153.26 94.97 153.61 92.31 153.95 92.6 154.3 89.94 154.65 87.57 155 86.08 155.35 87.57 155.7 86.97 156.05 85.19 156.4 86.08 156.75 85.79 157.1 88.16 157.45 85.79 157.79 88.45 158.14 85.19 158.49 84.9 158.84 82.82 159.19 83.71 159.54 81.64 159.89 82.23 160.24 80.75 160.59 79.86 160.94 84.6 161.29 83.71 161.64 84.01 161.98 83.71 162.33 85.79 162.68 85.79 163.03 78.08 163.38 78.08 163.73 76.01 164.08 75.71 164.43 70.68 164.78 71.86 165.13 72.75 165.48 71.86 165.83 73.64 166.17 71.57 166.52 72.46 166.87 70.09 167.22 72.75 167.57 70.38 167.92 69.79 168.27 72.16 168.62 73.64 168.97 72.75 169.32 78.97 169.67 80.16 170.01 73.05 170.36 69.2 170.71 62.68 171.06 65.05 171.41 68.6 171.76 67.12 172.11 65.35 172.46 63.57 172.81 63.27 173.16 65.64 173.51 68.6 173.86 62.98 174.2 65.94 174.55 68.31 174.9 69.2 175.25 70.38 175.6 71.57 175.95 76.6 176.3 78.97 176.65 76.9 177 72.16 177.35 72.16 177.7 71.27 178.04 73.34 178.39 76.9 178.74 76.01 179.09 80.45 179.44 80.75 179.79 74.53 180.14 72.16 180.49 73.94 180.84 77.49 181.19 74.23 181.54 66.53 181.89 66.53 182.23 70.09 182.58 69.49 182.93 68.31 183.28 70.68 183.63 71.86 183.98 78.08 184.33 75.71 184.68 76.01 185.03 77.79 185.38 76.6 185.73 74.53 186.08 74.53 186.42 73.94 186.77 68.6 187.12 66.83 187.47 67.12 187.82 66.23 188.17 68.6 188.52 70.97 188.87 72.46 189.22 73.34 189.57 71.86 189.92 70.38 190.26 65.94 190.61 68.01 190.96 65.35 191.31 60.31 191.66 59.72 192.01 59.42 192.36 57.64 192.71 58.53 193.06 54.38 193.41 54.38 193.76 50.83 194.11 53.5 194.45 60.31 194.8 58.83 195.15 56.46 195.5 53.79 195.85 53.5 196.2 51.13"/>
      </g>
    </g>
  </g>
</g>
  <g class="guide ylabels" font-size="2.82" font-family="'PT Sans Caption','Helvetica Neue','Helvetica',sans-serif" fill="#000000" id="img-62492009-20">
    <text x="18.63" y="131.11" text-anchor="end" dy="0.35em">0</text>
    <text x="18.63" y="101.49" text-anchor="end" dy="0.35em">100</text>
    <text x="18.63" y="71.86" text-anchor="end" dy="0.35em">200</text>
    <text x="18.63" y="42.24" text-anchor="end" dy="0.35em">300</text>
    <text x="18.63" y="12.61" text-anchor="end" dy="0.35em">400</text>
  </g>
  <g font-size="3.88" font-family="'PT Sans','Helvetica Neue','Helvetica',sans-serif" fill="#000000" stroke="#000000" stroke-opacity="0.000" id="img-62492009-21">
    <text x="8.81" y="69.86" text-anchor="middle" dy="0.35em" transform="rotate(-90, 8.81, 71.86)">population number</text>
  </g>
  <g font-size="3.88" font-family="'PT Sans','Helvetica Neue','Helvetica',sans-serif" fill="#000000" stroke="#000000" stroke-opacity="0.000" id="img-62492009-22">
    <text x="108.92" y="5" text-anchor="middle" dy="0.6em">genetic drift</text>
  </g>
</g>
<defs>
  <clipPath id="img-62492009-4">
  <path d="M19.63,10.61 L 198.2 10.61 198.2 133.11 19.63 133.11" />
</clipPath>
</defs>
</svg>
