<?xml version="1.0" encoding="UTF-8"?>
<svg xmlns="http://www.w3.org/2000/svg"
     xmlns:xlink="http://www.w3.org/1999/xlink"
     xmlns:gadfly="http://www.gadflyjl.org/ns"
     version="1.2"
     width="203.2mm" height="152.4mm" viewBox="0 0 203.2 152.4"
     stroke="none"
     fill="#000000"
     stroke-width="0.3"
     font-size="3.88"
>
<g class="plotroot xscalable yscalable" id="img-f9f2a08a-1">
  <g font-size="3.88" font-family="'PT Sans','Helvetica Neue','Helvetica',sans-serif" fill="#000000" stroke="#000000" stroke-opacity="0.000" id="img-f9f2a08a-2">
    <text x="108.92" y="140.79" text-anchor="middle" dy="0.6em">generation number</text>
  </g>
  <g class="guide xlabels" font-size="2.82" font-family="'PT Sans Caption','Helvetica Neue','Helvetica',sans-serif" fill="#000000" id="img-f9f2a08a-3">
    <text x="21.63" y="134.11" text-anchor="middle" dy="0.6em">0</text>
    <text x="56.55" y="134.11" text-anchor="middle" dy="0.6em">100</text>
    <text x="91.46" y="134.11" text-anchor="middle" dy="0.6em">200</text>
    <text x="126.37" y="134.11" text-anchor="middle" dy="0.6em">300</text>
    <text x="161.29" y="134.11" text-anchor="middle" dy="0.6em">400</text>
    <text x="196.2" y="134.11" text-anchor="middle" dy="0.6em">500</text>
  </g>
<g clip-path="url(#img-f9f2a08a-4)">
  <g id="img-f9f2a08a-5">
    <g pointer-events="visible" opacity="1" fill="#FFFFFF" stroke="#000000" stroke-opacity="0.000" class="guide background" id="img-f9f2a08a-6">
      <rect x="19.63" y="10.61" width="178.57" height="122.5"/>
    </g>
    <g class="guide ygridlines xfixed" stroke-dasharray="0.5,0.5" stroke-width="0.2" stroke="#808080" id="img-f9f2a08a-7">
      <path fill="none" d="M19.63,131.11 L 198.2 131.11"/>
      <path fill="none" d="M19.63,71.86 L 198.2 71.86"/>
      <path fill="none" d="M19.63,12.61 L 198.2 12.61"/>
    </g>
    <g class="guide xgridlines yfixed" stroke-dasharray="0.5,0.5" stroke-width="0.2" stroke="#808080" id="img-f9f2a08a-8">
      <path fill="none" d="M21.63,10.61 L 21.63 133.11"/>
      <path fill="none" d="M56.55,10.61 L 56.55 133.11"/>
      <path fill="none" d="M91.46,10.61 L 91.46 133.11"/>
      <path fill="none" d="M126.37,10.61 L 126.37 133.11"/>
      <path fill="none" d="M161.29,10.61 L 161.29 133.11"/>
      <path fill="none" d="M196.2,10.61 L 196.2 133.11"/>
    </g>
    <g class="plotpanel" id="img-f9f2a08a-9">
      <g stroke-width="0.3" fill="#000000" fill-opacity="0.000" class="geometry" stroke-dasharray="none" stroke="#3288BD" id="img-f9f2a08a-10">
        <path fill="none" d="M21.98,71.86 L 22.33 61.2 22.68 64.75 23.03 65.94 23.38 62.38 23.73 68.31 24.08 68.31 24.42 70.68 24.77 70.68 25.12 67.12 25.47 63.57 25.82 55.27 26.17 52.9 26.52 57.64 26.87 51.72 27.22 51.72 27.57 56.46 27.92 49.35 28.27 46.98 28.61 41.05 28.96 41.05 29.31 37.5 29.66 30.39 30.01 29.2 30.36 28.02 30.71 24.46 31.06 23.28 31.41 20.91 31.76 20.91 32.11 18.54 32.45 18.54 32.8 20.91 33.15 17.35 33.5 16.17 33.85 12.61"/>
      </g>
      <g stroke-width="0.3" fill="#000000" fill-opacity="0.000" class="geometry" stroke-dasharray="none" stroke="#66C2A5" id="img-f9f2a08a-11">
        <path fill="none" d="M21.98,71.86 L 22.33 70.68 22.68 69.49 23.03 67.12 23.38 75.42 23.73 82.53 24.08 93.19 24.42 93.19 24.77 93.19 25.12 88.45 25.47 81.34 25.82 88.45 26.17 84.9 26.52 83.71 26.87 78.97 27.22 76.6 27.57 77.79 27.92 86.08 28.27 87.27 28.61 84.9 28.96 88.45 29.31 88.45 29.66 77.79 30.01 77.79 30.36 73.05 30.71 71.86 31.06 70.68 31.41 75.42 31.76 70.68 32.11 74.23 32.45 76.6 32.8 69.49 33.15 62.38 33.5 60.01 33.85 65.94 34.2 62.38 34.55 60.01 34.9 64.75 35.25 70.68 35.6 69.49 35.95 77.79 36.3 86.08 36.64 84.9 36.99 87.27 37.34 96.75 37.69 97.93 38.04 90.82 38.39 89.64 38.74 95.56 39.09 102.67 39.44 101.49 39.79 94.38 40.14 90.82 40.49 97.93 40.83 108.6 41.18 108.6 41.53 107.41 41.88 101.49 42.23 95.56 42.58 106.23 42.93 109.78 43.28 112.15 43.63 114.52 43.98 107.41 44.33 113.34 44.67 109.78 45.02 112.15 45.37 112.15 45.72 110.97 46.07 113.34 46.42 114.52 46.77 115.71 47.12 119.26 47.47 115.71 47.82 114.52 48.17 114.52 48.52 120.45 48.86 118.08 49.21 116.89 49.56 106.23 49.91 112.15 50.26 110.97 50.61 110.97 50.96 120.45 51.31 116.89 51.66 110.97 52.01 107.41 52.36 106.23 52.7 105.04 53.05 100.3 53.4 96.75 53.75 95.56 54.1 105.04 54.45 109.78 54.8 112.15 55.15 115.71 55.5 112.15 55.85 115.71 56.2 119.26 56.55 118.08 56.89 113.34 57.24 113.34 57.59 113.34 57.94 119.26 58.29 120.45 58.64 119.26 58.99 121.63 59.34 127.56 59.69 128.74 60.04 128.74 60.39 131.11"/>
      </g>
      <g stroke-width="0.3" fill="#000000" fill-opacity="0.000" class="geometry" stroke-dasharray="none" stroke="#ABDDA4" id="img-f9f2a08a-12">
        <path fill="none" d="M21.98,71.86 L 22.33 71.86 22.68 80.16 23.03 90.82 23.38 93.19 23.73 87.27 24.08 83.71 24.42 80.16 24.77 74.23 25.12 75.42 25.47 78.97 25.82 70.68 26.17 64.75 26.52 64.75 26.87 69.49 27.22 61.2 27.57 52.9 27.92 50.53 28.27 62.38 28.61 56.46 28.96 57.64 29.31 56.46 29.66 45.79 30.01 41.05 30.36 52.9 30.71 54.09 31.06 58.83 31.41 58.83 31.76 64.75 32.11 55.27 32.45 60.01 32.8 63.57 33.15 55.27 33.5 67.12 33.85 76.6 34.2 76.6 34.55 76.6 34.9 82.53 35.25 80.16 35.6 86.08 35.95 83.71 36.3 80.16 36.64 73.05 36.99 74.23 37.34 74.23 37.69 67.12 38.04 69.49 38.39 77.79 38.74 73.05 39.09 78.97 39.44 74.23 39.79 74.23 40.14 77.79 40.49 93.19 40.83 97.93 41.18 96.75 41.53 86.08 41.88 77.79 42.23 73.05 42.58 71.86 42.93 71.86 43.28 77.79 43.63 74.23 43.98 82.53 44.33 88.45 44.67 86.08 45.02 82.53 45.37 95.56 45.72 100.3 46.07 95.56 46.42 96.75 46.77 90.82 47.12 82.53 47.47 84.9 47.82 87.27 48.17 95.56 48.52 93.19 48.86 93.19 49.21 94.38 49.56 97.93 49.91 101.49 50.26 110.97 50.61 118.08 50.96 114.52 51.31 118.08 51.66 120.45 52.01 127.56 52.36 126.37 52.7 126.37 53.05 126.37 53.4 124 53.75 127.56 54.1 129.93 54.45 129.93 54.8 128.74 55.15 128.74 55.5 129.93 55.85 131.11"/>
      </g>
      <g stroke-width="0.3" fill="#000000" fill-opacity="0.000" class="geometry" stroke-dasharray="none" stroke="#E6F598" id="img-f9f2a08a-13">
        <path fill="none" d="M21.98,71.86 L 22.33 68.31 22.68 60.01 23.03 61.2 23.38 70.68 23.73 70.68 24.08 75.42 24.42 80.16 24.77 76.6 25.12 76.6 25.47 73.05 25.82 70.68 26.17 69.49 26.52 69.49 26.87 63.57 27.22 64.75 27.57 63.57 27.92 65.94 28.27 62.38 28.61 65.94 28.96 58.83 29.31 54.09 29.66 58.83 30.01 54.09 30.36 56.46 30.71 64.75 31.06 69.49 31.41 63.57 31.76 61.2 32.11 51.72 32.45 61.2 32.8 62.38 33.15 60.01 33.5 55.27 33.85 57.64 34.2 54.09 34.55 57.64 34.9 52.9 35.25 39.87 35.6 36.31 35.95 29.2 36.3 23.28 36.64 23.28 36.99 20.91 37.34 19.72 37.69 19.72 38.04 19.72 38.39 16.17 38.74 17.35 39.09 17.35 39.44 16.17 39.79 16.17 40.14 14.98 40.49 12.61"/>
      </g>
      <g stroke-width="0.3" fill="#000000" fill-opacity="0.000" class="geometry" stroke-dasharray="none" stroke="#FFFFBF" id="img-f9f2a08a-14">
        <path fill="none" d="M21.98,71.86 L 22.33 63.57 22.68 68.31 23.03 67.12 23.38 67.12 23.73 70.68 24.08 68.31 24.42 67.12 24.77 57.64 25.12 51.72 25.47 58.83 25.82 62.38 26.17 57.64 26.52 57.64 26.87 58.83 27.22 65.94 27.57 71.86 27.92 75.42 28.27 71.86 28.61 69.49 28.96 64.75 29.31 62.38 29.66 57.64 30.01 62.38 30.36 57.64 30.71 61.2 31.06 64.75 31.41 56.46 31.76 58.83 32.11 46.98 32.45 46.98 32.8 50.53 33.15 51.72 33.5 58.83 33.85 60.01 34.2 76.6 34.55 84.9 34.9 82.53 35.25 81.34 35.6 94.38 35.95 97.93 36.3 108.6 36.64 108.6 36.99 103.86 37.34 106.23 37.69 95.56 38.04 100.3 38.39 87.27 38.74 95.56 39.09 92.01 39.44 99.12 39.79 101.49 40.14 106.23 40.49 106.23 40.83 99.12 41.18 105.04 41.53 97.93 41.88 86.08 42.23 90.82 42.58 83.71 42.93 87.27 43.28 82.53 43.63 92.01 43.98 81.34 44.33 82.53 44.67 77.79 45.02 78.97 45.37 83.71 45.72 87.27 46.07 88.45 46.42 97.93 46.77 86.08 47.12 82.53 47.47 81.34 47.82 77.79 48.17 70.68 48.52 70.68 48.86 75.42 49.21 89.64 49.56 82.53 49.91 80.16 50.26 75.42 50.61 67.12 50.96 67.12 51.31 61.2 51.66 69.49 52.01 65.94 52.36 60.01 52.7 56.46 53.05 57.64 53.4 56.46 53.75 56.46 54.1 55.27 54.45 51.72 54.8 50.53 55.15 50.53 55.5 46.98 55.85 44.61 56.2 45.79 56.55 46.98 56.89 54.09 57.24 57.64 57.59 48.16 57.94 52.9 58.29 51.72 58.64 54.09 58.99 60.01 59.34 65.94 59.69 68.31 60.04 70.68 60.39 69.49 60.73 63.57 61.08 60.01 61.43 67.12 61.78 69.49 62.13 69.49 62.48 67.12 62.83 67.12 63.18 58.83 63.53 63.57 63.88 57.64 64.23 55.27 64.58 51.72 64.92 56.46 65.27 55.27 65.62 49.35 65.97 56.46 66.32 56.46 66.67 56.46 67.02 56.46 67.37 52.9 67.72 52.9 68.07 46.98 68.42 44.61 68.77 45.79 69.11 52.9 69.46 60.01 69.81 60.01 70.16 62.38 70.51 58.83 70.86 58.83 71.21 68.31 71.56 67.12 71.91 74.23 72.26 77.79 72.61 78.97 72.95 80.16 73.3 84.9 73.65 83.71 74 78.97 74.35 78.97 74.7 80.16 75.05 81.34 75.4 78.97 75.75 83.71 76.1 87.27 76.45 83.71 76.8 83.71 77.14 88.45 77.49 87.27 77.84 89.64 78.19 90.82 78.54 89.64 78.89 92.01 79.24 96.75 79.59 96.75 79.94 82.53 80.29 82.53 80.64 89.64 80.98 95.56 81.33 94.38 81.68 84.9 82.03 86.08 82.38 89.64 82.73 100.3 83.08 101.49 83.43 101.49 83.78 93.19 84.13 92.01 84.48 88.45 84.83 94.38 85.17 106.23 85.52 107.41 85.87 112.15 86.22 113.34 86.57 113.34 86.92 119.26 87.27 119.26 87.62 122.82 87.97 124 88.32 122.82 88.67 124 89.02 122.82 89.36 125.19 89.71 126.37 90.06 125.19 90.41 126.37 90.76 129.93 91.11 131.11"/>
      </g>
      <g stroke-width="0.3" fill="#000000" fill-opacity="0.000" class="geometry" stroke-dasharray="none" stroke="#FEE08B" id="img-f9f2a08a-15">
        <path fill="none" d="M21.98,71.86 L 22.33 73.05 22.68 76.6 23.03 80.16 23.38 78.97 23.73 83.71 24.08 87.27 24.42 93.19 24.77 95.56 25.12 95.56 25.47 97.93 25.82 102.67 26.17 103.86 26.52 101.49 26.87 100.3 27.22 99.12 27.57 103.86 27.92 108.6 28.27 105.04 28.61 106.23 28.96 108.6 29.31 114.52 29.66 107.41 30.01 103.86 30.36 108.6 30.71 110.97 31.06 116.89 31.41 116.89 31.76 119.26 32.11 121.63 32.45 122.82 32.8 122.82 33.15 120.45 33.5 120.45 33.85 124 34.2 127.56 34.55 128.74 34.9 131.11"/>
      </g>
      <g stroke-width="0.3" fill="#000000" fill-opacity="0.000" class="geometry" stroke-dasharray="none" stroke="#FDAE61" id="img-f9f2a08a-16">
        <path fill="none" d="M21.98,71.86 L 22.33 69.49 22.68 62.38 23.03 58.83 23.38 69.49 23.73 65.94 24.08 69.49 24.42 69.49 24.77 71.86 25.12 76.6 25.47 82.53 25.82 92.01 26.17 88.45 26.52 81.34 26.87 80.16 27.22 75.42 27.57 80.16 27.92 80.16 28.27 81.34 28.61 76.6 28.96 73.05 29.31 70.68 29.66 75.42 30.01 69.49 30.36 74.23 30.71 69.49 31.06 70.68 31.41 73.05 31.76 75.42 32.11 68.31 32.45 74.23 32.8 81.34 33.15 69.49 33.5 75.42 33.85 69.49 34.2 68.31 34.55 67.12 34.9 60.01 35.25 69.49 35.6 74.23 35.95 74.23 36.3 83.71 36.64 78.97 36.99 87.27 37.34 87.27 37.69 90.82 38.04 94.38 38.39 96.75 38.74 101.49 39.09 103.86 39.44 107.41 39.79 109.78 40.14 100.3 40.49 108.6 40.83 108.6 41.18 110.97 41.53 108.6 41.88 116.89 42.23 120.45 42.58 120.45 42.93 114.52 43.28 112.15 43.63 108.6 43.98 110.97 44.33 112.15 44.67 114.52 45.02 115.71 45.37 114.52 45.72 115.71 46.07 116.89 46.42 118.08 46.77 116.89 47.12 115.71 47.47 109.78 47.82 105.04 48.17 107.41 48.52 107.41 48.86 101.49 49.21 101.49 49.56 97.93 49.91 101.49 50.26 100.3 50.61 99.12 50.96 101.49 51.31 101.49 51.66 101.49 52.01 103.86 52.36 100.3 52.7 103.86 53.05 106.23 53.4 108.6 53.75 110.97 54.1 119.26 54.45 124 54.8 127.56 55.15 129.93 55.5 129.93 55.85 128.74 56.2 127.56 56.55 128.74 56.89 128.74 57.24 126.37 57.59 128.74 57.94 129.93 58.29 129.93 58.64 131.11"/>
      </g>
      <g stroke-width="0.3" fill="#000000" fill-opacity="0.000" class="geometry" stroke-dasharray="none" stroke="#F46D43" id="img-f9f2a08a-17">
        <path fill="none" d="M21.98,71.86 L 22.33 58.83 22.68 64.75 23.03 68.31 23.38 65.94 23.73 64.75 24.08 71.86 24.42 70.68 24.77 61.2 25.12 54.09 25.47 55.27 25.82 48.16 26.17 48.16 26.52 46.98 26.87 33.94 27.22 26.83 27.57 25.65 27.92 24.46 28.27 28.02 28.61 25.65 28.96 28.02 29.31 29.2 29.66 31.57 30.01 26.83 30.36 29.2 30.71 28.02 31.06 28.02 31.41 35.13 31.76 29.2 32.11 33.94 32.45 26.83 32.8 30.39 33.15 41.05 33.5 50.53 33.85 43.42 34.2 41.05 34.55 45.79 34.9 50.53 35.25 50.53 35.6 44.61 35.95 38.68 36.3 33.94 36.64 28.02 36.99 31.57 37.34 25.65 37.69 24.46 38.04 25.65 38.39 29.2 38.74 31.57 39.09 28.02 39.44 22.09 39.79 24.46 40.14 23.28 40.49 26.83 40.83 29.2 41.18 31.57 41.53 30.39 41.88 35.13 42.23 33.94 42.58 31.57 42.93 26.83 43.28 20.91 43.63 18.54 43.98 25.65 44.33 30.39 44.67 30.39 45.02 31.57 45.37 31.57 45.72 25.65 46.07 26.83 46.42 33.94 46.77 32.76 47.12 30.39 47.47 31.57 47.82 30.39 48.17 30.39 48.52 24.46 48.86 23.28 49.21 22.09 49.56 24.46 49.91 24.46 50.26 29.2 50.61 24.46 50.96 23.28 51.31 19.72 51.66 20.91 52.01 19.72 52.36 22.09 52.7 26.83 53.05 33.94 53.4 32.76 53.75 29.2 54.1 25.65 54.45 26.83 54.8 20.91 55.15 23.28 55.5 23.28 55.85 23.28 56.2 28.02 56.55 29.2 56.89 26.83 57.24 30.39 57.59 30.39 57.94 29.2 58.29 31.57 58.64 29.2 58.99 28.02 59.34 25.65 59.69 24.46 60.04 25.65 60.39 25.65 60.73 26.83 61.08 25.65 61.43 26.83 61.78 28.02 62.13 28.02 62.48 24.46 62.83 26.83 63.18 26.83 63.53 23.28 63.88 24.46 64.23 24.46 64.58 25.65 64.92 23.28 65.27 19.72 65.62 20.91 65.97 22.09 66.32 25.65 66.67 20.91 67.02 19.72 67.37 20.91 67.72 20.91 68.07 18.54 68.42 16.17 68.77 18.54 69.11 17.35 69.46 17.35 69.81 20.91 70.16 22.09 70.51 20.91 70.86 19.72 71.21 19.72 71.56 16.17 71.91 16.17 72.26 17.35 72.61 18.54 72.95 18.54 73.3 17.35 73.65 14.98 74 16.17 74.35 14.98 74.7 14.98 75.05 14.98 75.4 16.17 75.75 13.8 76.1 13.8 76.45 13.8 76.8 14.98 77.14 14.98 77.49 14.98 77.84 12.61"/>
      </g>
      <g stroke-width="0.3" fill="#000000" fill-opacity="0.000" class="geometry" stroke-dasharray="none" stroke="#D53E4F" id="img-f9f2a08a-18">
        <path fill="none" d="M21.98,71.86 L 22.33 70.68 22.68 76.6 23.03 73.05 23.38 75.42 23.73 78.97 24.08 77.79 24.42 84.9 24.77 83.71 25.12 90.82 25.47 89.64 25.82 93.19 26.17 95.56 26.52 105.04 26.87 105.04 27.22 101.49 27.57 106.23 27.92 101.49 28.27 99.12 28.61 99.12 28.96 102.67 29.31 107.41 29.66 100.3 30.01 107.41 30.36 106.23 30.71 110.97 31.06 110.97 31.41 113.34 31.76 110.97 32.11 115.71 32.45 110.97 32.8 107.41 33.15 115.71 33.5 113.34 33.85 114.52 34.2 112.15 34.55 110.97 34.9 109.78 35.25 110.97 35.6 113.34 35.95 115.71 36.3 122.82 36.64 124 36.99 126.37 37.34 127.56 37.69 128.74 38.04 127.56 38.39 126.37 38.74 127.56 39.09 126.37 39.44 128.74 39.79 124 40.14 120.45 40.49 116.89 40.83 118.08 41.18 116.89 41.53 120.45 41.88 124 42.23 122.82 42.58 113.34 42.93 109.78 43.28 109.78 43.63 116.89 43.98 120.45 44.33 124 44.67 128.74 45.02 128.74 45.37 127.56 45.72 129.93 46.07 131.11"/>
      </g>
      <g stroke-width="0.3" fill="#000000" fill-opacity="0.000" class="geometry" stroke-dasharray="none" stroke="#9E0142" id="img-f9f2a08a-19">
        <path fill="none" d="M21.98,71.86 L 22.33 63.57 22.68 67.12 23.03 58.83 23.38 54.09 23.73 54.09 24.08 55.27 24.42 58.83 24.77 49.35 25.12 55.27 25.47 52.9 25.82 55.27 26.17 51.72 26.52 58.83 26.87 51.72 27.22 48.16 27.57 54.09 27.92 54.09 28.27 48.16 28.61 46.98 28.96 48.16 29.31 49.35 29.66 58.83 30.01 54.09 30.36 64.75 30.71 62.38 31.06 52.9 31.41 52.9 31.76 61.2 32.11 60.01 32.45 62.38 32.8 64.75 33.15 71.86 33.5 76.6 33.85 83.71 34.2 87.27 34.55 83.71 34.9 87.27 35.25 89.64 35.6 86.08 35.95 86.08 36.3 82.53 36.64 82.53 36.99 78.97 37.34 83.71 37.69 81.34 38.04 84.9 38.39 87.27 38.74 81.34 39.09 73.05 39.44 67.12 39.79 69.49 40.14 68.31 40.49 73.05 40.83 74.23 41.18 75.42 41.53 74.23 41.88 69.49 42.23 70.68 42.58 65.94 42.93 57.64 43.28 46.98 43.63 36.31 43.98 39.87 44.33 51.72 44.67 50.53 45.02 48.16 45.37 56.46 45.72 61.2 46.07 62.38 46.42 57.64 46.77 48.16 47.12 51.72 47.47 52.9 47.82 58.83 48.17 62.38 48.52 65.94 48.86 73.05 49.21 74.23 49.56 70.68 49.91 87.27 50.26 94.38 50.61 88.45 50.96 89.64 51.31 86.08 51.66 86.08 52.01 90.82 52.36 96.75 52.7 101.49 53.05 107.41 53.4 106.23 53.75 100.3 54.1 110.97 54.45 113.34 54.8 110.97 55.15 112.15 55.5 101.49 55.85 99.12 56.2 96.75 56.55 89.64 56.89 87.27 57.24 80.16 57.59 74.23 57.94 75.42 58.29 83.71 58.64 83.71 58.99 86.08 59.34 90.82 59.69 89.64 60.04 99.12 60.39 93.19 60.73 96.75 61.08 101.49 61.43 99.12 61.78 99.12 62.13 99.12 62.48 101.49 62.83 102.67 63.18 102.67 63.53 100.3 63.88 103.86 64.23 102.67 64.58 105.04 64.92 107.41 65.27 106.23 65.62 106.23 65.97 108.6 66.32 103.86 66.67 106.23 67.02 106.23 67.37 107.41 67.72 112.15 68.07 116.89 68.42 119.26 68.77 113.34 69.11 108.6 69.46 118.08 69.81 116.89 70.16 118.08 70.51 119.26 70.86 122.82 71.21 124 71.56 122.82 71.91 114.52 72.26 115.71 72.61 116.89 72.95 114.52 73.3 116.89 73.65 109.78 74 110.97 74.35 107.41 74.7 109.78 75.05 109.78 75.4 109.78 75.75 105.04 76.1 102.67 76.45 95.56 76.8 95.56 77.14 96.75 77.49 96.75 77.84 102.67 78.19 99.12 78.54 101.49 78.89 95.56 79.24 86.08 79.59 75.42 79.94 58.83 80.29 69.49 80.64 77.79 80.98 71.86 81.33 73.05 81.68 77.79 82.03 78.97 82.38 76.6 82.73 67.12 83.08 62.38 83.43 61.2 83.78 54.09 84.13 56.46 84.48 46.98 84.83 49.35 85.17 54.09 85.52 55.27 85.87 56.46 86.22 57.64 86.57 60.01 86.92 62.38 87.27 56.46 87.62 50.53 87.97 54.09 88.32 55.27 88.67 43.42 89.02 43.42 89.36 43.42 89.71 45.79 90.06 51.72 90.41 50.53 90.76 50.53 91.11 50.53 91.46 45.79 91.81 39.87 92.16 41.05 92.51 39.87 92.86 32.76 93.2 30.39 93.55 36.31 93.9 37.5 94.25 39.87 94.6 38.68 94.95 39.87 95.3 37.5 95.65 39.87 96 39.87 96.35 35.13 96.7 35.13 97.05 29.2 97.39 32.76 97.74 38.68 98.09 41.05 98.44 45.79 98.79 49.35 99.14 50.53 99.49 56.46 99.84 46.98 100.19 52.9 100.54 56.46 100.89 54.09 101.23 51.72 101.58 50.53 101.93 50.53 102.28 49.35 102.63 41.05 102.98 49.35 103.33 51.72 103.68 50.53 104.03 49.35 104.38 57.64 104.73 60.01 105.08 69.49 105.42 65.94 105.77 56.46 106.12 75.42 106.47 78.97 106.82 86.08 107.17 87.27 107.52 83.71 107.87 75.42 108.22 81.34 108.57 75.42 108.92 65.94 109.26 69.49 109.61 63.57 109.96 62.38 110.31 64.75 110.66 62.38 111.01 60.01 111.36 60.01 111.71 60.01 112.06 58.83 112.41 52.9 112.76 56.46 113.11 61.2 113.45 60.01 113.8 58.83 114.15 58.83 114.5 64.75 114.85 71.86 115.2 84.9 115.55 81.34 115.9 82.53 116.25 87.27 116.6 87.27 116.95 92.01 117.3 83.71 117.64 74.23 117.99 64.75 118.34 61.2 118.69 68.31 119.04 60.01 119.39 57.64 119.74 61.2 120.09 62.38 120.44 63.57 120.79 64.75 121.14 75.42 121.48 67.12 121.83 74.23 122.18 83.71 122.53 92.01 122.88 92.01 123.23 87.27 123.58 80.16 123.93 94.38 124.28 93.19 124.63 92.01 124.98 86.08 125.33 92.01 125.67 93.19 126.02 84.9 126.37 88.45 126.72 78.97 127.07 77.79 127.42 73.05 127.77 63.57 128.12 61.2 128.47 56.46 128.82 54.09 129.17 56.46 129.51 60.01 129.86 61.2 130.21 56.46 130.56 52.9 130.91 56.46 131.26 62.38 131.61 50.53 131.96 42.24 132.31 37.5 132.66 39.87 133.01 31.57 133.36 24.46 133.7 23.28 134.05 23.28 134.4 24.46 134.75 26.83 135.1 26.83 135.45 25.65 135.8 23.28 136.15 22.09 136.5 23.28 136.85 20.91 137.2 22.09 137.55 20.91 137.89 18.54 138.24 17.35 138.59 18.54 138.94 20.91 139.29 20.91 139.64 22.09 139.99 22.09 140.34 19.72 140.69 18.54 141.04 24.46 141.39 26.83 141.73 31.57 142.08 32.76 142.43 36.31 142.78 29.2 143.13 25.65 143.48 24.46 143.83 19.72 144.18 18.54 144.53 17.35 144.88 13.8 145.23 12.61"/>
      </g>
    </g>
  </g>
</g>
  <g class="guide ylabels" font-size="2.82" font-family="'PT Sans Caption','Helvetica Neue','Helvetica',sans-serif" fill="#000000" id="img-f9f2a08a-20">
    <text x="18.63" y="131.11" text-anchor="end" dy="0.35em">0</text>
    <text x="18.63" y="71.86" text-anchor="end" dy="0.35em">50</text>
    <text x="18.63" y="12.61" text-anchor="end" dy="0.35em">100</text>
  </g>
  <g font-size="3.88" font-family="'PT Sans','Helvetica Neue','Helvetica',sans-serif" fill="#000000" stroke="#000000" stroke-opacity="0.000" id="img-f9f2a08a-21">
    <text x="8.81" y="69.86" text-anchor="middle" dy="0.35em" transform="rotate(-90, 8.81, 71.86)">population number</text>
  </g>
  <g font-size="3.88" font-family="'PT Sans','Helvetica Neue','Helvetica',sans-serif" fill="#000000" stroke="#000000" stroke-opacity="0.000" id="img-f9f2a08a-22">
    <text x="108.92" y="5" text-anchor="middle" dy="0.6em">genetic drift</text>
  </g>
</g>
<defs>
  <clipPath id="img-f9f2a08a-4">
  <path d="M19.63,10.61 L 198.2 10.61 198.2 133.11 19.63 133.11" />
</clipPath>
</defs>
</svg>
