<?xml version="1.0" encoding="UTF-8"?>
<svg xmlns="http://www.w3.org/2000/svg"
     xmlns:xlink="http://www.w3.org/1999/xlink"
     xmlns:gadfly="http://www.gadflyjl.org/ns"
     version="1.2"
     width="203.2mm" height="152.4mm" viewBox="0 0 203.2 152.4"
     stroke="none"
     fill="#000000"
     stroke-width="0.3"
     font-size="3.88"
>
<g class="plotroot xscalable yscalable" id="img-74d4dfd5-1">
  <g font-size="3.88" font-family="'PT Sans','Helvetica Neue','Helvetica',sans-serif" fill="#000000" stroke="#000000" stroke-opacity="0.000" id="img-74d4dfd5-2">
    <text x="109.75" y="140.79" text-anchor="middle" dy="0.6em">generation number</text>
  </g>
  <g class="guide xlabels" font-size="2.82" font-family="'PT Sans Caption','Helvetica Neue','Helvetica',sans-serif" fill="#000000" id="img-74d4dfd5-3">
    <text x="23.31" y="134.11" text-anchor="middle" dy="0.6em">0</text>
    <text x="57.88" y="134.11" text-anchor="middle" dy="0.6em">100</text>
    <text x="92.46" y="134.11" text-anchor="middle" dy="0.6em">200</text>
    <text x="127.04" y="134.11" text-anchor="middle" dy="0.6em">300</text>
    <text x="161.62" y="134.11" text-anchor="middle" dy="0.6em">400</text>
    <text x="196.2" y="134.11" text-anchor="middle" dy="0.6em">500</text>
  </g>
<g clip-path="url(#img-74d4dfd5-4)">
  <g id="img-74d4dfd5-5">
    <g pointer-events="visible" opacity="1" fill="#FFFFFF" stroke="#000000" stroke-opacity="0.000" class="guide background" id="img-74d4dfd5-6">
      <rect x="21.31" y="10.61" width="176.89" height="122.5"/>
    </g>
    <g class="guide ygridlines xfixed" stroke-dasharray="0.5,0.5" stroke-width="0.2" stroke="#808080" id="img-74d4dfd5-7">
      <path fill="none" d="M21.31,131.11 L 198.2 131.11"/>
      <path fill="none" d="M21.31,101.49 L 198.2 101.49"/>
      <path fill="none" d="M21.31,71.86 L 198.2 71.86"/>
      <path fill="none" d="M21.31,42.24 L 198.2 42.24"/>
      <path fill="none" d="M21.31,12.61 L 198.2 12.61"/>
    </g>
    <g class="guide xgridlines yfixed" stroke-dasharray="0.5,0.5" stroke-width="0.2" stroke="#808080" id="img-74d4dfd5-8">
      <path fill="none" d="M23.31,10.61 L 23.31 133.11"/>
      <path fill="none" d="M57.88,10.61 L 57.88 133.11"/>
      <path fill="none" d="M92.46,10.61 L 92.46 133.11"/>
      <path fill="none" d="M127.04,10.61 L 127.04 133.11"/>
      <path fill="none" d="M161.62,10.61 L 161.62 133.11"/>
      <path fill="none" d="M196.2,10.61 L 196.2 133.11"/>
    </g>
    <g class="plotpanel" id="img-74d4dfd5-9">
      <g stroke-width="0.3" fill="#000000" fill-opacity="0.000" class="geometry" stroke-dasharray="none" stroke="#3288BD" id="img-74d4dfd5-10">
        <path fill="none" d="M23.65,77.79 L 24 78.26 24.34 77.91 24.69 76.96 25.03 77.31 25.38 78.38 25.73 77.67 26.07 78.03 26.42 80.16 26.76 77.43 27.11 77.43 27.45 78.38 27.8 77.55 28.15 74.83 28.49 74.23 28.84 74.59 29.18 77.55 29.53 76.48 29.88 77.2 30.22 77.55 30.57 76.84 30.91 75.77 31.26 69.49 31.6 70.8 31.95 68.55 32.3 68.07 32.64 66.65 32.99 69.49 33.33 68.66 33.68 65.23 34.02 65.94 34.37 66.53 34.72 67.48 35.06 69.97 35.41 67.95 35.75 68.19 36.1 68.66 36.45 69.97 36.79 70.09 37.14 69.61 37.48 67.48 37.83 66.89 38.17 69.14 38.52 70.2 38.87 69.97 39.21 69.61 39.56 69.14 39.9 72.34 40.25 71.74 40.59 71.39 40.94 73.52 41.29 76.25 41.63 76.01 41.98 76.6 42.32 73.52 42.67 71.51 43.02 72.57 43.36 73.17 43.71 71.51 44.05 72.93 44.4 74.71 44.74 73.29 45.09 75.54 45.44 76.48 45.78 76.72 46.13 77.55 46.47 80.28 46.82 80.16 47.16 81.23 47.51 83.48 47.86 84.19 48.2 83.71 48.55 84.42 48.89 84.42 49.24 83.95 49.59 86.68 49.93 86.91 50.28 84.78 50.62 85.97 50.97 85.73 51.31 85.25 51.66 84.42 52.01 80.4 52.35 84.31 52.7 85.97 53.04 86.44 53.39 86.32 53.73 85.97 54.08 86.2 54.43 86.79 54.77 87.86 55.12 87.74 55.46 86.08 55.81 86.08 56.16 89.16 56.5 90.35 56.85 91.06 57.19 93.19 57.54 98.76 57.88 98.17 58.23 98.65 58.58 98.88 58.92 99.12 59.27 98.65 59.61 98.41 59.96 98.05 60.3 99.24 60.65 99.95 61 101.13 61.34 100.19 61.69 100.78 62.03 100.07 62.38 101.25 62.73 102.91 63.07 102.08 63.42 104.1 63.76 103.5 64.11 105.28 64.45 104.81 64.8 105.76 65.15 104.93 65.49 105.52 65.84 105.52 66.18 109.07 66.53 109.31 66.87 107.41 67.22 107.18 67.57 107.89 67.91 109.55 68.26 108.95 68.6 108.36 68.95 108.36 69.3 108.48 69.64 109.31 69.99 109.78 70.33 109.19 70.68 110.26 71.02 108.72 71.37 106.82 71.72 108.01 72.06 108.01 72.41 110.02 72.75 108.72 73.1 107.3 73.44 107.06 73.79 107.3 74.14 108.36 74.48 108.6 74.83 110.14 75.17 110.5 75.52 110.97 75.87 113.81 76.21 115.24 76.56 115.47 76.9 115.47 77.25 112.39 77.59 111.8 77.94 112.04 78.29 112.04 78.63 112.98 78.98 112.15 79.32 110.5 79.67 111.21 80.01 110.38 80.36 111.56 80.71 110.73 81.05 112.87 81.4 112.51 81.74 110.38 82.09 110.73 82.44 111.32 82.78 112.27 83.13 113.81 83.47 113.93 83.82 112.51 84.16 111.09 84.51 110.73 84.86 112.87 85.2 112.04 85.55 108.84 85.89 108.6 86.24 110.73 86.58 110.97 86.93 112.98 87.28 112.39 87.62 109.9 87.97 110.97 88.31 112.39 88.66 113.22 89.01 115.47 89.35 114.76 89.7 113.81 90.04 111.44 90.39 109.07 90.73 109.43 91.08 109.78 91.43 108.01 91.77 109.31 92.12 106.58 92.46 103.86 92.81 102.32 93.15 101.37 93.5 104.1 93.85 103.98 94.19 103.39 94.54 103.27 94.88 102.32 95.23 104.57 95.58 103.15 95.92 102.91 96.27 102.08 96.61 101.96 96.96 100.54 97.3 99.83 97.65 96.16 98 97.7 98.34 98.17 98.69 101.61 99.03 102.08 99.38 104.69 99.72 103.27 100.07 99 100.42 98.17 100.76 96.75 101.11 93.19 101.45 92.25 101.8 91.65 102.15 88.69 102.49 91.3 102.84 92.01 103.18 91.77 103.53 93.67 103.87 94.62 104.22 93.55 104.57 93.43 104.91 90.35 105.26 91.77 105.6 91.06 105.95 96.16 106.29 95.56 106.64 92.72 106.99 94.73 107.33 93.43 107.68 93.08 108.02 90.82 108.37 92.48 108.72 91.77 109.06 90.82 109.41 89.76 109.75 89.88 110.1 92.48 110.44 93.31 110.79 92.96 111.14 93.55 111.48 94.97 111.83 94.73 112.17 96.63 112.52 96.75 112.86 99.71 113.21 97.58 113.56 95.68 113.9 93.43 114.25 93.43 114.59 94.14 114.94 97.1 115.29 96.28 115.63 96.39 115.98 95.68 116.32 94.62 116.67 95.09 117.01 93.55 117.36 94.26 117.71 92.72 118.05 93.9 118.4 90.82 118.74 92.13 119.09 89.64 119.43 88.93 119.78 87.74 120.13 86.68 120.47 90.71 120.82 89.76 121.16 89.64 121.51 90.23 121.86 90.71 122.2 89.52 122.55 90.35 122.89 92.13 123.24 90.35 123.58 88.57 123.93 86.68 124.28 84.19 124.62 81.94 124.97 82.29 125.31 80.04 125.66 81.23 126 82.29 126.35 82.88 126.7 82.05 127.04 82.77 127.39 82.65 127.73 84.19 128.08 83.24 128.43 85.61 128.77 85.73 129.12 88.45 129.46 87.15 129.81 90.23 130.15 89.88 130.5 95.09 130.85 94.62 131.19 94.26 131.54 94.73 131.88 92.84 132.23 91.06 132.57 91.89 132.92 89.16 133.27 88.45 133.61 89.05 133.96 89.28 134.3 88.69 134.65 87.15 135 89.16 135.34 87.27 135.69 87.39 136.03 84.54 136.38 86.79 136.72 87.03 137.07 89.05 137.42 88.34 137.76 86.56 138.11 86.44 138.45 86.08 138.8 83.12 139.14 82.77 139.49 85.25 139.84 84.42 140.18 81.7 140.53 83.36 140.87 82.41 141.22 82.17 141.57 84.19 141.91 84.78 142.26 84.9 142.6 84.19 142.95 82.29 143.29 81.58 143.64 82.17 143.99 82.65 144.33 81.46 144.68 79.92 145.02 82.53 145.37 83.36 145.71 82.53 146.06 82.77 146.41 85.49 146.75 83.83 147.1 83.6 147.44 83.48 147.79 80.75 148.14 82.65 148.48 81.82 148.83 83.71 149.17 85.14 149.52 86.68 149.86 87.15 150.21 89.05 150.56 90.94 150.9 90.82 151.25 91.06 151.59 90.35 151.94 89.16 152.28 85.61 152.63 83.24 152.98 83.24 153.32 83.95 153.67 85.37 154.01 84.9 154.36 86.56 154.71 85.73 155.05 85.73 155.4 86.2 155.74 84.19 156.09 82.05 156.43 82.29 156.78 85.02 157.13 86.79 157.47 88.81 157.82 89.76 158.16 90.35 158.51 92.6 158.85 90.35 159.2 89.76 159.55 89.76 159.89 88.34 160.24 89.28 160.58 91.77 160.93 92.36 161.28 94.85 161.62 94.26 161.97 94.14 162.31 92.72 162.66 90.82 163 90.94 163.35 89.4 163.7 88.69 164.04 90.35 164.39 89.16 164.73 90.23 165.08 93.08 165.42 94.14 165.77 93.9 166.12 96.63 166.46 93.08 166.81 93.31 167.15 90.47 167.5 90.47 167.85 91.3 168.19 90.71 168.54 91.89 168.88 93.08 169.23 95.09 169.57 95.92 169.92 95.45 170.27 94.73 170.61 94.97 170.96 96.28 171.3 93.55 171.65 92.84 171.99 92.84 172.34 93.43 172.69 93.67 173.03 95.09 173.38 98.53 173.72 95.09 174.07 94.38 174.42 91.65 174.76 93.08 175.11 92.96 175.45 96.63 175.8 96.99 176.14 97.34 176.49 98.17 176.84 93.43 177.18 93.9 177.53 93.43 177.87 93.43 178.22 91.06 178.56 91.89 178.91 91.3 179.26 94.73 179.6 89.99 179.95 91.42 180.29 91.53 180.64 92.25 180.99 92.01 181.33 92.96 181.68 90.94 182.02 88.81 182.37 86.79 182.71 84.42 183.06 84.54 183.41 83.83 183.75 82.41 184.1 80.51 184.44 79.33 184.79 79.21 185.13 78.14 185.48 78.62 185.83 78.38 186.17 77.08 186.52 79.33 186.86 77.79 187.21 78.74 187.56 79.09 187.9 79.57 188.25 77.91 188.59 77.31 188.94 75.54 189.28 78.62 189.63 75.42 189.98 73.17 190.32 71.86 190.67 73.29 191.01 73.05 191.36 75.54 191.7 74.71 192.05 71.74 192.4 74.35 192.74 71.74 193.09 68.19 193.43 67.6 193.78 68.55 194.13 67.83 194.47 67.95 194.82 68.43 195.16 69.37 195.51 67.95 195.85 68.07 196.2 71.27"/>
      </g>
      <g stroke-width="0.3" fill="#000000" fill-opacity="0.000" class="geometry" stroke-dasharray="none" stroke="#66C2A5" id="img-74d4dfd5-11">
        <path fill="none" d="M23.65,77.79 L 24 78.03 24.34 78.62 24.69 78.5 25.03 78.86 25.38 82.05 25.73 79.68 26.07 76.6 26.42 79.68 26.76 82.77 27.11 80.51 27.45 78.38 27.8 80.16 28.15 81.34 28.49 81.7 28.84 82.53 29.18 80.04 29.53 81.7 29.88 85.25 30.22 85.61 30.57 84.42 30.91 82.65 31.26 83.36 31.6 80.04 31.95 83.36 32.3 84.54 32.64 85.49 32.99 86.91 33.33 86.91 33.68 87.03 34.02 87.27 34.37 86.44 34.72 87.74 35.06 87.27 35.41 85.97 35.75 83.83 36.1 82.17 36.45 81.82 36.79 77.55 37.14 76.84 37.48 78.14 37.83 77.08 38.17 78.14 38.52 75.18 38.87 72.93 39.21 73.17 39.56 70.09 39.9 67.6 40.25 66.29 40.59 66.29 40.94 67 41.29 67.24 41.63 66.29 41.98 65.82 42.32 68.9 42.67 69.49 43.02 65.82 43.36 65.94 43.71 63.33 44.05 64.04 44.4 64.4 44.74 64.63 45.09 62.15 45.44 61.67 45.78 62.03 46.13 63.69 46.47 63.33 46.82 67.72 47.16 69.14 47.51 68.07 47.86 68.78 48.2 70.09 48.55 69.85 48.89 71.27 49.24 71.98 49.59 74.23 49.93 74.83 50.28 75.06 50.62 78.5 50.97 77.08 51.31 77.08 51.66 77.2 52.01 76.84 52.35 78.62 52.7 77.79 53.04 79.45 53.39 78.62 53.73 76.6 54.08 79.21 54.43 79.57 54.77 79.68 55.12 79.68 55.46 80.16 55.81 80.4 56.16 77.79 56.5 78.03 56.85 78.38 57.19 76.84 57.54 75.89 57.88 75.42 58.23 77.2 58.58 78.03 58.92 80.87 59.27 82.05 59.61 81.94 59.96 80.99 60.3 86.56 60.65 87.62 61 87.86 61.34 87.51 61.69 89.4 62.03 92.96 62.38 92.48 62.73 89.16 63.07 88.57 63.42 88.1 63.76 88.1 64.11 90.47 64.45 89.88 64.8 88.57 65.15 89.99 65.49 87.62 65.84 88.93 66.18 89.88 66.53 86.32 66.87 85.97 67.22 83.95 67.57 86.2 67.91 86.79 68.26 89.4 68.6 88.93 68.95 89.64 69.3 89.88 69.64 92.25 69.99 95.45 70.33 95.56 70.68 98.41 71.02 101.49 71.37 101.02 71.72 105.28 72.06 104.69 72.41 106.11 72.75 104.33 73.1 106.23 73.44 106.82 73.79 106.23 74.14 108.84 74.48 109.67 74.83 106.82 75.17 106.11 75.52 103.5 75.87 106.58 76.21 106.23 76.56 106.94 76.9 105.99 77.25 102.79 77.59 103.03 77.94 103.74 78.29 103.74 78.63 102.91 78.98 102.2 79.32 101.61 79.67 101.37 80.01 105.4 80.36 105.64 80.71 101.13 81.05 104.1 81.4 105.99 81.74 105.64 82.09 107.41 82.44 109.31 82.78 109.43 83.13 110.61 83.47 110.02 83.82 109.31 84.16 108.95 84.51 111.92 84.86 110.14 85.2 110.38 85.55 110.61 85.89 109.43 86.24 108.84 86.58 106.94 86.93 108.84 87.28 110.14 87.62 110.02 87.97 109.9 88.31 107.65 88.66 107.41 89.01 107.53 89.35 105.28 89.7 105.76 90.04 106.11 90.39 107.77 90.73 108.6 91.08 110.73 91.43 112.51 91.77 113.7 92.12 114.17 92.46 113.46 92.81 113.34 93.15 112.27 93.5 111.44 93.85 111.56 94.19 114.05 94.54 114.29 94.88 111.8 95.23 111.21 95.58 112.04 95.92 113.93 96.27 110.97 96.61 108.13 96.96 105.87 97.3 107.06 97.65 105.28 98 103.03 98.34 99.95 98.69 99.71 99.03 98.65 99.38 101.37 99.72 102.08 100.07 105.28 100.42 104.21 100.76 105.52 101.11 105.52 101.45 108.01 101.8 105.28 102.15 105.16 102.49 106.35 102.84 107.41 103.18 102.67 103.53 101.02 103.87 103.15 104.22 103.74 104.57 104.93 104.91 104.93 105.26 103.39 105.6 103.39 105.95 104.93 106.29 105.28 106.64 107.41 106.99 106.82 107.33 105.52 107.68 106.82 108.02 105.52 108.37 106.82 108.72 104.33 109.06 104.93 109.41 107.41 109.75 109.55 110.1 110.02 110.44 108.95 110.79 109.9 111.14 110.5 111.48 111.09 111.83 110.61 112.17 109.31 112.52 109.67 112.86 111.56 113.21 114.17 113.56 112.27 113.9 112.39 114.25 113.46 114.59 115.83 114.94 117.25 115.29 118.55 115.63 118.32 115.98 119.86 116.32 119.62 116.67 118.67 117.01 120.69 117.36 120.81 117.71 121.04 118.05 120.69 118.4 119.98 118.74 122.11 119.09 122.35 119.43 122.82 119.78 122.82 120.13 121.75 120.47 120.45 120.82 119.98 121.16 120.69 121.51 119.26 121.86 117.84 122.2 117.61 122.55 116.07 122.89 117.13 123.24 117.01 123.58 116.07 123.93 115.83 124.28 115.47 124.62 115 124.97 116.42 125.31 115.71 125.66 113.81 126 112.15 126.35 110.85 126.7 113.22 127.04 113.46 127.39 113.58 127.73 112.98 128.08 113.93 128.43 114.76 128.77 112.87 129.12 112.87 129.46 115.24 129.81 115.12 130.15 112.87 130.5 113.1 130.85 112.87 131.19 113.46 131.54 111.56 131.88 111.68 132.23 109.67 132.57 108.6 132.92 111.8 133.27 113.7 133.61 113.58 133.96 112.27 134.3 113.7 134.65 112.98 135 113.34 135.34 113.81 135.69 113.34 136.03 114.41 136.38 114.88 136.72 116.78 137.07 115.35 137.42 112.39 137.76 114.29 138.11 112.39 138.45 113.22 138.8 112.98 139.14 113.34 139.49 113.93 139.84 113.7 140.18 111.68 140.53 111.92 140.87 111.21 141.22 109.43 141.57 110.97 141.91 112.15 142.26 110.14 142.6 111.68 142.95 110.26 143.29 111.09 143.64 111.8 143.99 113.7 144.33 113.93 144.68 110.97 145.02 111.09 145.37 111.8 145.71 115.12 146.06 116.89 146.41 114.76 146.75 114.76 147.1 113.1 147.44 112.51 147.79 114.29 148.14 116.07 148.48 117.25 148.83 119.26 149.17 118.2 149.52 118.91 149.86 117.84 150.21 116.18 150.56 115.71 150.9 115.12 151.25 115.83 151.59 115.95 151.94 114.52 152.28 113.81 152.63 111.8 152.98 112.63 153.32 112.75 153.67 112.39 154.01 112.04 154.36 112.63 154.71 113.22 155.05 113.22 155.4 111.09 155.74 111.32 156.09 110.85 156.43 111.92 156.78 113.46 157.13 110.61 157.47 111.32 157.82 110.97 158.16 111.21 158.51 110.97 158.85 110.26 159.2 108.95 159.55 109.9 159.89 110.02 160.24 109.67 160.58 108.72 160.93 106.7 161.28 110.38 161.62 109.43 161.97 108.36 162.31 106.35 162.66 105.64 163 105.64 163.35 105.64 163.7 105.04 164.04 106.23 164.39 107.18 164.73 107.3 165.08 106.58 165.42 104.81 165.77 103.98 166.12 107.65 166.46 107.89 166.81 106.94 167.15 105.4 167.5 103.03 167.85 105.28 168.19 107.65 168.54 108.72 168.88 107.3 169.23 108.24 169.57 107.41 169.92 106.35 170.27 104.69 170.61 105.52 170.96 106.35 171.3 105.28 171.65 108.01 171.99 109.67 172.34 108.24 172.69 107.89 173.03 110.14 173.38 110.26 173.72 111.09 174.07 111.56 174.42 114.52 174.76 115.59 175.11 116.54 175.45 115.95 175.8 114.41 176.14 113.7 176.49 114.29 176.84 111.92 177.18 110.14 177.53 110.97 177.87 109.78 178.22 109.43 178.56 112.04 178.91 110.97 179.26 112.39 179.6 111.44 179.95 112.04 180.29 112.51 180.64 112.04 180.99 111.92 181.33 111.32 181.68 110.02 182.02 109.78 182.37 107.65 182.71 105.52 183.06 103.98 183.41 105.99 183.75 107.41 184.1 108.13 184.44 109.55 184.79 109.9 185.13 108.13 185.48 108.6 185.83 106.82 186.17 106.94 186.52 105.04 186.86 104.69 187.21 103.03 187.56 102.67 187.9 99.36 188.25 102.91 188.59 101.25 188.94 101.84 189.28 101.73 189.63 101.73 189.98 101.84 190.32 101.25 190.67 99.95 191.01 100.19 191.36 98.65 191.7 99.83 192.05 100.54 192.4 101.84 192.74 101.49 193.09 102.2 193.43 101.25 193.78 99.47 194.13 97.1 194.47 98.53 194.82 99.12 195.16 96.87 195.51 97.1 195.85 98.41 196.2 97.58"/>
      </g>
      <g stroke-width="0.3" fill="#000000" fill-opacity="0.000" class="geometry" stroke-dasharray="none" stroke="#ABDDA4" id="img-74d4dfd5-12">
        <path fill="none" d="M23.65,77.79 L 24 75.42 24.34 75.77 24.69 78.38 25.03 78.14 25.38 78.38 25.73 74.71 26.07 76.96 26.42 77.43 26.76 75.3 27.11 75.06 27.45 76.48 27.8 76.6 28.15 76.48 28.49 77.2 28.84 77.08 29.18 74.11 29.53 74.35 29.88 74.11 30.22 73.88 30.57 75.3 30.91 75.42 31.26 76.84 31.6 77.91 31.95 80.04 32.3 79.92 32.64 81.46 32.99 82.53 33.33 84.07 33.68 83.83 34.02 86.56 34.37 85.25 34.72 85.73 35.06 85.02 35.41 82.88 35.75 80.28 36.1 78.97 36.45 77.08 36.79 75.06 37.14 75.3 37.48 74.35 37.83 72.46 38.17 72.81 38.52 74.23 38.87 74.47 39.21 74.59 39.56 78.62 39.9 80.04 40.25 80.99 40.59 80.51 40.94 82.05 41.29 83.48 41.63 81.34 41.98 82.53 42.32 84.19 42.67 85.61 43.02 85.14 43.36 83.95 43.71 83.24 44.05 84.42 44.4 84.31 44.74 84.07 45.09 84.54 45.44 83.95 45.78 83.48 46.13 82.41 46.47 82.17 46.82 79.8 47.16 78.03 47.51 78.97 47.86 79.68 48.2 80.28 48.55 78.86 48.89 76.84 49.24 73.4 49.59 72.22 49.93 72.93 50.28 71.86 50.62 70.32 50.97 71.63 51.31 71.63 51.66 72.34 52.01 72.81 52.35 71.86 52.7 72.1 53.04 75.66 53.39 73.64 53.73 74.71 54.08 74.11 54.43 74.83 54.77 70.44 55.12 68.31 55.46 68.07 55.81 68.66 56.16 71.98 56.5 71.51 56.85 72.34 57.19 68.31 57.54 68.55 57.88 69.02 58.23 69.02 58.58 68.55 58.92 68.66 59.27 71.74 59.61 72.34 59.96 72.69 60.3 72.22 60.65 71.39 61 68.07 61.34 67 61.69 67.95 62.03 65.35 62.38 66.65 62.73 69.85 63.07 68.9 63.42 66.06 63.76 63.69 64.11 64.04 64.45 65.7 64.8 65.35 65.15 64.63 65.49 66.65 65.84 65.94 66.18 68.31 66.53 69.26 66.87 70.68 67.22 70.44 67.57 70.92 67.91 72.1 68.26 69.97 68.6 69.02 68.95 69.37 69.3 66.77 69.64 65.94 69.99 65.11 70.33 65.23 70.68 66.53 71.02 69.49 71.37 69.61 71.72 64.04 72.06 62.26 72.41 61.08 72.75 63.09 73.1 65.11 73.44 64.75 73.79 65.23 74.14 62.98 74.48 60.84 74.83 61.79 75.17 62.98 75.52 62.86 75.87 63.09 76.21 64.75 76.56 65.82 76.9 68.31 77.25 69.73 77.59 67.12 77.94 64.75 78.29 64.4 78.63 65.11 78.98 66.89 79.32 68.9 79.67 68.9 80.01 68.07 80.36 67.83 80.71 68.66 81.05 69.14 81.4 72.57 81.74 74.94 82.09 74.59 82.44 77.08 82.78 75.54 83.13 75.66 83.47 76.84 83.82 74.94 84.16 76.96 84.51 77.55 84.86 79.45 85.2 79.92 85.55 80.4 85.89 81.82 86.24 80.63 86.58 79.92 86.93 77.31 87.28 75.89 87.62 74.83 87.97 74.23 88.31 76.84 88.66 78.62 89.01 78.5 89.35 76.6 89.7 77.08 90.04 80.04 90.39 79.33 90.73 75.54 91.08 78.26 91.43 79.21 91.77 77.91 92.12 76.25 92.46 77.67 92.81 77.67 93.15 80.87 93.5 80.4 93.85 80.99 94.19 78.38 94.54 78.74 94.88 79.8 95.23 82.17 95.58 84.19 95.92 83.48 96.27 81.58 96.61 80.63 96.96 82.88 97.3 81.58 97.65 81.58 98 80.75 98.34 82.05 98.69 79.68 99.03 77.55 99.38 79.21 99.72 78.86 100.07 76.01 100.42 71.74 100.76 72.57 101.11 72.57 101.45 73.4 101.8 74 102.15 73.76 102.49 72.1 102.84 72.81 103.18 73.17 103.53 73.17 103.87 72.46 104.22 76.01 104.57 77.67 104.91 77.79 105.26 78.38 105.6 81.7 105.95 81.11 106.29 77.79 106.64 77.79 106.99 74.47 107.33 73.52 107.68 74.47 108.02 70.44 108.37 71.03 108.72 71.39 109.06 74.94 109.41 76.72 109.75 78.5 110.1 81.82 110.44 81.82 110.79 82.77 111.14 82.29 111.48 83.12 111.83 89.05 112.17 90.23 112.52 91.65 112.86 92.01 113.21 94.62 113.56 94.62 113.9 95.92 114.25 96.51 114.59 94.97 114.94 96.99 115.29 95.09 115.63 94.5 115.98 95.09 116.32 95.68 116.67 94.85 117.01 94.73 117.36 92.84 117.71 94.5 118.05 95.09 118.4 95.92 118.74 97.46 119.09 97.93 119.43 97.46 119.78 96.04 120.13 96.39 120.47 97.1 120.82 97.1 121.16 97.7 121.51 98.65 121.86 94.62 122.2 95.56 122.55 94.26 122.89 92.36 123.24 92.36 123.58 92.25 123.93 91.65 124.28 92.36 124.62 92.25 124.97 93.31 125.31 93.43 125.66 92.36 126 93.08 126.35 87.39 126.7 86.91 127.04 84.78 127.39 85.49 127.73 84.78 128.08 85.49 128.43 87.03 128.77 84.66 129.12 86.2 129.46 87.51 129.81 86.2 130.15 85.73 130.5 84.42 130.85 86.32 131.19 85.85 131.54 86.08 131.88 87.51 132.23 89.76 132.57 90.82 132.92 92.48 133.27 90.82 133.61 93.67 133.96 93.31 134.3 93.55 134.65 91.53 135 92.84 135.34 90.59 135.69 90.94 136.03 89.64 136.38 90.94 136.72 89.64 137.07 88.45 137.42 90.35 137.76 89.28 138.11 87.27 138.45 89.16 138.8 90.94 139.14 91.18 139.49 89.99 139.84 89.76 140.18 90.71 140.53 88.22 140.87 87.62 141.22 84.66 141.57 86.44 141.91 86.56 142.26 84.78 142.6 84.66 142.95 86.91 143.29 83.71 143.64 81.34 143.99 80.51 144.33 78.97 144.68 85.37 145.02 84.78 145.37 85.85 145.71 88.81 146.06 92.13 146.41 92.13 146.75 91.3 147.1 90.82 147.44 89.64 147.79 88.45 148.14 90.35 148.48 87.86 148.83 83.6 149.17 83.83 149.52 84.54 149.86 85.37 150.21 85.25 150.56 86.44 150.9 85.73 151.25 86.08 151.59 90.23 151.94 89.16 152.28 86.79 152.63 89.28 152.98 90.82 153.32 91.42 153.67 93.08 154.01 93.31 154.36 93.55 154.71 93.19 155.05 90.35 155.4 87.86 155.74 84.66 156.09 85.37 156.43 85.37 156.78 83.95 157.13 84.78 157.47 86.44 157.82 84.54 158.16 84.66 158.51 86.44 158.85 86.68 159.2 83.6 159.55 82.65 159.89 83.6 160.24 85.49 160.58 84.66 160.93 85.97 161.28 85.14 161.62 85.49 161.97 87.27 162.31 86.44 162.66 85.25 163 85.37 163.35 83.24 163.7 83.71 164.04 83 164.39 84.07 164.73 86.32 165.08 86.2 165.42 89.4 165.77 89.52 166.12 88.57 166.46 86.2 166.81 87.51 167.15 86.44 167.5 84.19 167.85 82.53 168.19 80.28 168.54 82.05 168.88 80.28 169.23 78.62 169.57 80.75 169.92 80.87 170.27 80.87 170.61 78.26 170.96 76.72 171.3 76.72 171.65 73.4 171.99 75.18 172.34 76.25 172.69 78.14 173.03 73.76 173.38 74.94 173.72 78.26 174.07 79.57 174.42 80.28 174.76 77.43 175.11 79.33 175.45 76.72 175.8 78.26 176.14 77.67 176.49 75.77 176.84 73.29 177.18 72.69 177.53 73.05 177.87 72.93 178.22 76.6 178.56 77.31 178.91 76.13 179.26 77.79 179.6 75.3 179.95 71.74 180.29 71.03 180.64 73.52 180.99 76.01 181.33 76.01 181.68 74.11 182.02 76.01 182.37 77.55 182.71 80.16 183.06 83.48 183.41 82.65 183.75 83.12 184.1 81.94 184.44 84.07 184.79 84.19 185.13 82.88 185.48 82.53 185.83 82.41 186.17 82.05 186.52 82.53 186.86 83.6 187.21 83.12 187.56 83.95 187.9 84.54 188.25 84.78 188.59 84.78 188.94 85.73 189.28 86.91 189.63 88.22 189.98 86.79 190.32 84.78 190.67 87.86 191.01 89.99 191.36 89.4 191.7 87.39 192.05 88.45 192.4 87.15 192.74 87.15 193.09 86.91 193.43 84.19 193.78 85.14 194.13 86.2 194.47 88.1 194.82 87.74 195.16 89.52 195.51 86.32 195.85 85.25 196.2 88.34"/>
      </g>
      <g stroke-width="0.3" fill="#000000" fill-opacity="0.000" class="geometry" stroke-dasharray="none" stroke="#E6F598" id="img-74d4dfd5-13">
        <path fill="none" d="M23.65,77.79 L 24 77.67 24.34 75.89 24.69 75.42 25.03 76.48 25.38 76.25 25.73 79.09 26.07 76.48 26.42 74.47 26.76 74.47 27.11 72.93 27.45 73.05 27.8 73.52 28.15 71.27 28.49 72.22 28.84 71.74 29.18 70.2 29.53 70.8 29.88 70.09 30.22 72.57 30.57 76.25 30.91 77.67 31.26 74.83 31.6 73.4 31.95 72.69 32.3 72.93 32.64 75.77 32.99 76.72 33.33 74.83 33.68 72.93 34.02 73.29 34.37 69.02 34.72 68.55 35.06 67.83 35.41 67.72 35.75 67.36 36.1 68.55 36.45 67.48 36.79 66.18 37.14 67.83 37.48 68.19 37.83 69.37 38.17 67 38.52 65.35 38.87 65.35 39.21 65.35 39.56 66.06 39.9 66.89 40.25 66.06 40.59 66.18 40.94 65.23 41.29 64.87 41.63 64.63 41.98 63.09 42.32 60.61 42.67 61.08 43.02 62.38 43.36 59.54 43.71 64.63 44.05 64.75 44.4 62.98 44.74 62.38 45.09 59.78 45.44 59.42 45.78 58.12 46.13 57.05 46.47 58.59 46.82 57.52 47.16 58.35 47.51 56.81 47.86 57.05 48.2 57.05 48.55 56.81 48.89 53.97 49.24 56.22 49.59 56.93 49.93 58.71 50.28 58.12 50.62 57.52 50.97 58.24 51.31 58.83 51.66 58.83 52.01 60.25 52.35 58 52.7 54.92 53.04 55.39 53.39 54.92 53.73 53.97 54.08 55.75 54.43 57.05 54.77 57.17 55.12 60.49 55.46 61.2 55.81 62.98 56.16 63.45 56.5 63.45 56.85 62.38 57.19 61.91 57.54 63.09 57.88 63.92 58.23 65.46 58.58 66.29 58.92 68.66 59.27 69.61 59.61 73.4 59.96 76.13 60.3 78.26 60.65 77.79 61 76.37 61.34 74.11 61.69 75.3 62.03 75.66 62.38 75.77 62.73 74.83 63.07 74.35 63.42 73.88 63.76 75.89 64.11 75.3 64.45 76.84 64.8 78.03 65.15 79.21 65.49 76.72 65.84 77.67 66.18 75.89 66.53 75.3 66.87 77.08 67.22 78.5 67.57 78.74 67.91 80.28 68.26 79.68 68.6 80.28 68.95 80.75 69.3 81.7 69.64 81.7 69.99 80.4 70.33 79.21 70.68 80.16 71.02 80.4 71.37 79.92 71.72 78.38 72.06 82.77 72.41 87.03 72.75 85.02 73.1 84.07 73.44 84.42 73.79 86.91 74.14 89.52 74.48 88.45 74.83 87.39 75.17 87.15 75.52 87.03 75.87 84.78 76.21 84.31 76.56 86.91 76.9 91.53 77.25 93.43 77.59 91.53 77.94 92.01 78.29 92.36 78.63 91.89 78.98 92.6 79.32 91.65 79.67 90.71 80.01 89.28 80.36 90.11 80.71 88.69 81.05 91.18 81.4 94.38 81.74 94.02 82.09 92.96 82.44 92.01 82.78 91.53 83.13 90.11 83.47 89.76 83.82 91.06 84.16 87.15 84.51 85.02 84.86 85.49 85.2 86.08 85.55 84.66 85.89 85.25 86.24 83.48 86.58 83.12 86.93 83.6 87.28 80.87 87.62 83.71 87.97 83 88.31 82.17 88.66 81.11 89.01 77.67 89.35 78.62 89.7 74.11 90.04 76.6 90.39 75.42 90.73 74.11 91.08 69.14 91.43 71.51 91.77 71.74 92.12 71.03 92.46 72.1 92.81 72.57 93.15 74.23 93.5 76.6 93.85 75.54 94.19 75.42 94.54 75.06 94.88 74.59 95.23 73.88 95.58 74.47 95.92 74.23 96.27 73.88 96.61 72.81 96.96 73.52 97.3 73.64 97.65 73.64 98 72.93 98.34 71.27 98.69 68.31 99.03 67.6 99.38 70.8 99.72 71.15 100.07 71.74 100.42 71.51 100.76 71.74 101.11 71.98 101.45 71.15 101.8 73.52 102.15 72.34 102.49 76.72 102.84 76.13 103.18 78.26 103.53 79.21 103.87 77.55 104.22 78.97 104.57 75.54 104.91 75.89 105.26 72.46 105.6 73.88 105.95 77.2 106.29 78.14 106.64 78.86 106.99 74.59 107.33 76.6 107.68 78.62 108.02 79.09 108.37 79.92 108.72 81.7 109.06 83.12 109.41 80.87 109.75 81.46 110.1 79.45 110.44 75.42 110.79 75.66 111.14 75.77 111.48 72.69 111.83 74.94 112.17 74.23 112.52 73.88 112.86 69.37 113.21 67.24 113.56 64.28 113.9 66.77 114.25 65.94 114.59 67.24 114.94 67.72 115.29 69.02 115.63 69.61 115.98 69.73 116.32 72.69 116.67 73.4 117.01 72.22 117.36 71.74 117.71 71.39 118.05 71.51 118.4 69.02 118.74 67 119.09 65.94 119.43 66.53 119.78 64.63 120.13 63.45 120.47 66.29 120.82 65.46 121.16 64.4 121.51 63.69 121.86 62.74 122.2 57.52 122.55 58.83 122.89 58.95 123.24 59.18 123.58 56.58 123.93 57.88 124.28 59.06 124.62 59.89 124.97 60.72 125.31 61.2 125.66 62.74 126 61.91 126.35 64.52 126.7 67.24 127.04 65.58 127.39 65.58 127.73 63.09 128.08 61.2 128.43 64.16 128.77 65.82 129.12 66.29 129.46 67.48 129.81 67.24 130.15 64.4 130.5 63.33 130.85 62.74 131.19 64.4 131.54 63.69 131.88 60.84 132.23 59.18 132.57 62.86 132.92 61.79 133.27 60.96 133.61 60.13 133.96 58.59 134.3 56.58 134.65 55.51 135 57.76 135.34 58.47 135.69 61.32 136.03 62.86 136.38 62.15 136.72 62.98 137.07 64.99 137.42 64.52 137.76 63.57 138.11 62.26 138.45 63.21 138.8 64.4 139.14 66.77 139.49 69.49 139.84 68.55 140.18 69.61 140.53 71.98 140.87 73.29 141.22 73.76 141.57 75.66 141.91 76.84 142.26 78.5 142.6 77.91 142.95 77.43 143.29 78.26 143.64 77.08 143.99 74.71 144.33 74.11 144.68 74.35 145.02 74.35 145.37 75.89 145.71 77.08 146.06 76.13 146.41 73.88 146.75 72.81 147.1 75.3 147.44 74.35 147.79 76.6 148.14 75.18 148.48 71.86 148.83 71.15 149.17 70.2 149.52 71.51 149.86 69.61 150.21 69.26 150.56 71.98 150.9 71.74 151.25 71.63 151.59 71.74 151.94 69.61 152.28 68.9 152.63 67.83 152.98 68.19 153.32 66.77 153.67 66.18 154.01 64.75 154.36 64.28 154.71 65.7 155.05 64.52 155.4 64.16 155.74 65.58 156.09 68.07 156.43 68.19 156.78 70.32 157.13 69.37 157.47 68.43 157.82 68.9 158.16 69.61 158.51 68.9 158.85 70.8 159.2 73.05 159.55 73.52 159.89 74.35 160.24 75.18 160.58 77.67 160.93 77.43 161.28 77.31 161.62 75.54 161.97 74.83 162.31 71.86 162.66 69.26 163 68.43 163.35 70.2 163.7 69.97 164.04 70.68 164.39 72.93 164.73 76.48 165.08 76.96 165.42 72.93 165.77 69.49 166.12 67 166.46 63.21 166.81 60.49 167.15 60.01 167.5 59.66 167.85 61.55 168.19 59.78 168.54 59.3 168.88 60.37 169.23 58.47 169.57 58.35 169.92 59.78 170.27 58.47 170.61 57.05 170.96 57.88 171.3 59.42 171.65 58.95 171.99 59.3 172.34 59.06 172.69 59.06 173.03 60.13 173.38 61.91 173.72 63.09 174.07 60.61 174.42 62.86 174.76 64.04 175.11 65.23 175.45 67.12 175.8 63.09 176.14 60.96 176.49 59.06 176.84 56.58 177.18 60.37 177.53 62.98 177.87 60.96 178.22 62.62 178.56 61.44 178.91 63.33 179.26 61.67 179.6 61.32 179.95 62.26 180.29 62.86 180.64 62.15 180.99 61.08 181.33 59.3 181.68 60.13 182.02 62.15 182.37 62.26 182.71 62.26 183.06 62.38 183.41 64.04 183.75 62.38 184.1 61.2 184.44 57.17 184.79 55.75 185.13 55.75 185.48 57.29 185.83 56.69 186.17 57.05 186.52 58.12 186.86 58.47 187.21 59.18 187.56 60.61 187.9 60.72 188.25 61.44 188.59 64.16 188.94 64.75 189.28 63.69 189.63 63.57 189.98 63.92 190.32 64.28 190.67 62.86 191.01 64.16 191.36 62.74 191.7 62.86 192.05 62.03 192.4 63.57 192.74 62.98 193.09 61.32 193.43 61.32 193.78 62.5 194.13 60.37 194.47 62.26 194.82 63.33 195.16 64.99 195.51 65.46 195.85 67.36 196.2 67.36"/>
      </g>
      <g stroke-width="0.3" fill="#000000" fill-opacity="0.000" class="geometry" stroke-dasharray="none" stroke="#FFFFBF" id="img-74d4dfd5-14">
        <path fill="none" d="M23.65,77.79 L 24 77.31 24.34 76.25 24.69 74.83 25.03 76.37 25.38 73.05 25.73 73.17 26.07 76.48 26.42 72.93 26.76 76.13 27.11 78.62 27.45 78.62 27.8 78.74 28.15 77.91 28.49 80.28 28.84 82.41 29.18 80.75 29.53 84.54 29.88 82.05 30.22 81.7 30.57 79.92 30.91 81.58 31.26 83.71 31.6 83 31.95 82.41 32.3 84.54 32.64 85.25 32.99 87.62 33.33 86.2 33.68 86.44 34.02 87.74 34.37 87.03 34.72 84.07 35.06 83.83 35.41 83.6 35.75 82.88 36.1 80.87 36.45 82.05 36.79 83.12 37.14 83.24 37.48 82.17 37.83 82.65 38.17 80.75 38.52 79.33 38.87 78.5 39.21 75.3 39.56 76.96 39.9 78.86 40.25 79.68 40.59 80.04 40.94 78.86 41.29 77.67 41.63 77.2 41.98 75.06 42.32 74.23 42.67 74.11 43.02 75.42 43.36 75.54 43.71 73.4 44.05 75.06 44.4 75.18 44.74 72.57 45.09 73.88 45.44 75.3 45.78 76.13 46.13 75.06 46.47 73.64 46.82 70.09 47.16 70.8 47.51 72.46 47.86 75.3 48.2 72.69 48.55 76.01 48.89 77.91 49.24 76.84 49.59 77.91 49.93 79.8 50.28 79.57 50.62 77.43 50.97 80.4 51.31 77.2 51.66 80.51 52.01 79.45 52.35 82.17 52.7 85.02 53.04 81.7 53.39 82.77 53.73 82.65 54.08 81.94 54.43 82.29 54.77 83.83 55.12 81.46 55.46 79.21 55.81 80.87 56.16 80.75 56.5 83.71 56.85 84.9 57.19 84.54 57.54 84.66 57.88 84.19 58.23 83.36 58.58 85.25 58.92 87.15 59.27 86.79 59.61 87.51 59.96 87.15 60.3 87.62 60.65 87.03 61 87.98 61.34 89.76 61.69 89.16 62.03 89.16 62.38 89.76 62.73 90.94 63.07 88.1 63.42 87.03 63.76 88.81 64.11 88.57 64.45 88.45 64.8 89.05 65.15 87.51 65.49 87.39 65.84 89.16 66.18 89.76 66.53 89.99 66.87 89.16 67.22 90.82 67.57 92.13 67.91 92.84 68.26 91.53 68.6 91.89 68.95 89.76 69.3 91.42 69.64 88.93 69.99 90.59 70.33 92.01 70.68 94.26 71.02 92.48 71.37 93.31 71.72 91.18 72.06 91.18 72.41 90.94 72.75 89.99 73.1 89.52 73.44 88.81 73.79 86.32 74.14 84.54 74.48 82.29 74.83 82.29 75.17 79.57 75.52 82.17 75.87 82.77 76.21 80.51 76.56 80.75 76.9 83.83 77.25 86.44 77.59 86.08 77.94 87.03 78.29 86.68 78.63 84.19 78.98 85.85 79.32 85.85 79.67 87.39 80.01 86.91 80.36 88.45 80.71 88.1 81.05 85.73 81.4 84.9 81.74 86.44 82.09 85.61 82.44 84.78 82.78 86.68 83.13 88.81 83.47 89.28 83.82 88.45 84.16 91.3 84.51 91.65 84.86 89.76 85.2 90.23 85.55 92.36 85.89 90.47 86.24 88.45 86.58 88.1 86.93 86.79 87.28 86.08 87.62 86.08 87.97 87.15 88.31 87.98 88.66 88.34 89.01 89.64 89.35 87.51 89.7 87.27 90.04 87.51 90.39 87.39 90.73 85.14 91.08 82.53 91.43 82.53 91.77 81.7 92.12 82.65 92.46 80.75 92.81 80.4 93.15 80.04 93.5 82.29 93.85 80.51 94.19 79.68 94.54 78.62 94.88 79.68 95.23 79.92 95.58 76.6 95.92 75.06 96.27 71.74 96.61 71.63 96.96 70.32 97.3 70.8 97.65 69.37 98 70.09 98.34 68.66 98.69 70.68 99.03 67.48 99.38 69.14 99.72 67 100.07 67.95 100.42 64.63 100.76 64.04 101.11 63.09 101.45 63.21 101.8 63.33 102.15 64.16 102.49 65.7 102.84 69.26 103.18 70.32 103.53 69.26 103.87 69.02 104.22 67.48 104.57 66.89 104.91 69.85 105.26 68.9 105.6 71.27 105.95 73.4 106.29 75.06 106.64 75.42 106.99 73.64 107.33 73.64 107.68 74.47 108.02 73.4 108.37 73.17 108.72 75.3 109.06 75.77 109.41 75.89 109.75 75.06 110.1 72.81 110.44 72.22 110.79 72.81 111.14 73.76 111.48 74 111.83 75.3 112.17 74 112.52 76.48 112.86 76.96 113.21 78.14 113.56 79.45 113.9 79.68 114.25 79.45 114.59 79.21 114.94 79.45 115.29 77.08 115.63 77.67 115.98 77.31 116.32 80.04 116.67 80.63 117.01 78.62 117.36 79.8 117.71 77.67 118.05 77.2 118.4 80.04 118.74 81.94 119.09 86.08 119.43 87.03 119.78 87.15 120.13 89.88 120.47 88.81 120.82 90.94 121.16 89.99 121.51 87.74 121.86 87.27 122.2 85.14 122.55 84.66 122.89 85.14 123.24 85.02 123.58 84.31 123.93 85.02 124.28 86.91 124.62 89.52 124.97 89.99 125.31 89.52 125.66 89.76 126 90.35 126.35 90.59 126.7 89.76 127.04 87.15 127.39 88.81 127.73 89.05 128.08 89.64 128.43 85.49 128.77 87.03 129.12 86.2 129.46 84.19 129.81 81.7 130.15 84.31 130.5 82.29 130.85 85.85 131.19 83.83 131.54 85.97 131.88 85.97 132.23 85.97 132.57 84.19 132.92 80.04 133.27 77.31 133.61 77.08 133.96 76.13 134.3 74.23 134.65 71.86 135 73.29 135.34 72.57 135.69 72.57 136.03 72.69 136.38 73.17 136.72 73.29 137.07 75.66 137.42 77.43 137.76 76.84 138.11 75.54 138.45 76.25 138.8 74.83 139.14 75.66 139.49 74 139.84 74.94 140.18 72.1 140.53 71.74 140.87 72.1 141.22 74 141.57 73.52 141.91 76.25 142.26 75.77 142.6 76.48 142.95 77.67 143.29 79.57 143.64 80.63 143.99 82.29 144.33 80.99 144.68 78.38 145.02 77.43 145.37 81.7 145.71 82.53 146.06 83.36 146.41 81.94 146.75 83 147.1 78.62 147.44 74.83 147.79 73.05 148.14 73.17 148.48 73.4 148.83 75.54 149.17 75.66 149.52 75.18 149.86 74.59 150.21 76.37 150.56 76.72 150.9 78.03 151.25 80.87 151.59 85.73 151.94 85.49 152.28 88.57 152.63 89.4 152.98 88.81 153.32 87.03 153.67 85.61 154.01 89.64 154.36 93.31 154.71 91.89 155.05 94.26 155.4 94.97 155.74 95.56 156.09 94.73 156.43 97.82 156.78 98.88 157.13 96.39 157.47 98.05 157.82 97.58 158.16 100.66 158.51 102.91 158.85 103.74 159.2 103.74 159.55 104.33 159.89 102.67 160.24 101.49 160.58 100.66 160.93 99.59 161.28 98.88 161.62 97.82 161.97 99.83 162.31 100.9 162.66 100.78 163 100.42 163.35 99.47 163.7 98.29 164.04 96.75 164.39 97.22 164.73 95.45 165.08 94.97 165.42 93.79 165.77 94.14 166.12 95.09 166.46 95.8 166.81 96.99 167.15 99.59 167.5 97.7 167.85 97.22 168.19 99.36 168.54 99 168.88 101.25 169.23 100.66 169.57 102.56 169.92 104.1 170.27 103.5 170.61 105.04 170.96 105.64 171.3 105.04 171.65 103.15 171.99 105.28 172.34 106.58 172.69 107.53 173.03 106.23 173.38 107.41 173.72 108.36 174.07 106.94 174.42 107.41 174.76 105.64 175.11 105.04 175.45 103.5 175.8 104.1 176.14 105.52 176.49 109.07 176.84 110.73 177.18 111.44 177.53 112.04 177.87 110.26 178.22 110.61 178.56 111.09 178.91 108.6 179.26 109.78 179.6 110.14 179.95 109.07 180.29 109.55 180.64 109.43 180.99 110.14 181.33 109.78 181.68 109.07 182.02 108.6 182.37 107.41 182.71 107.06 183.06 105.87 183.41 105.64 183.75 105.04 184.1 105.76 184.44 107.18 184.79 108.24 185.13 107.89 185.48 109.9 185.83 108.72 186.17 110.73 186.52 109.67 186.86 110.26 187.21 109.07 187.56 107.06 187.9 109.07 188.25 109.19 188.59 109.78 188.94 113.1 189.28 112.63 189.63 112.27 189.98 110.85 190.32 109.78 190.67 109.31 191.01 109.9 191.36 109.07 191.7 109.55 192.05 110.61 192.4 111.92 192.74 113.81 193.09 111.92 193.43 112.98 193.78 112.27 194.13 110.61 194.47 111.32 194.82 111.44 195.16 111.32 195.51 109.67 195.85 111.44 196.2 110.02"/>
      </g>
      <g stroke-width="0.3" fill="#000000" fill-opacity="0.000" class="geometry" stroke-dasharray="none" stroke="#FEE08B" id="img-74d4dfd5-15">
        <path fill="none" d="M23.65,77.79 L 24 76.72 24.34 75.77 24.69 78.62 25.03 76.13 25.38 78.03 25.73 79.8 26.07 80.16 26.42 80.87 26.76 79.45 27.11 79.09 27.45 80.63 27.8 79.57 28.15 75.77 28.49 75.77 28.84 77.08 29.18 78.86 29.53 77.43 29.88 75.42 30.22 73.4 30.57 69.49 30.91 68.19 31.26 67.12 31.6 69.49 31.95 69.26 32.3 67 32.64 66.89 32.99 66.41 33.33 64.4 33.68 67.48 34.02 68.55 34.37 69.97 34.72 69.73 35.06 68.43 35.41 68.78 35.75 65.58 36.1 65.46 36.45 66.89 36.79 67.6 37.14 71.63 37.48 74.35 37.83 73.64 38.17 70.8 38.52 71.63 38.87 70.44 39.21 67.95 39.56 66.77 39.9 69.61 40.25 68.9 40.59 68.66 40.94 68.9 41.29 67.48 41.63 69.85 41.98 70.68 42.32 70.56 42.67 70.8 43.02 68.9 43.36 68.31 43.71 69.26 44.05 67.95 44.4 69.02 44.74 67.72 45.09 64.04 45.44 66.29 45.78 66.29 46.13 65.82 46.47 67.83 46.82 71.86 47.16 74.47 47.51 72.22 47.86 71.27 48.2 71.03 48.55 72.93 48.89 74.11 49.24 74.71 49.59 77.55 49.93 78.74 50.28 78.03 50.62 79.33 50.97 77.2 51.31 79.57 51.66 78.74 52.01 81.34 52.35 83.71 52.7 85.14 53.04 83.71 53.39 84.31 53.73 81.94 54.08 80.28 54.43 77.2 54.77 76.96 55.12 79.57 55.46 84.54 55.81 84.78 56.16 84.78 56.5 83.83 56.85 83.71 57.19 82.65 57.54 81.94 57.88 81.82 58.23 80.28 58.58 83.6 58.92 85.14 59.27 84.42 59.61 83.24 59.96 82.17 60.3 80.28 60.65 80.4 61 81.7 61.34 83.83 61.69 86.68 62.03 89.64 62.38 92.72 62.73 93.31 63.07 93.55 63.42 93.55 63.76 92.84 64.11 94.5 64.45 97.1 64.8 99.12 65.15 99.59 65.49 97.93 65.84 96.39 66.18 96.63 66.53 94.26 66.87 94.26 67.22 92.13 67.57 91.53 67.91 96.75 68.26 98.41 68.6 98.29 68.95 97.22 69.3 96.99 69.64 94.97 69.99 94.14 70.33 92.25 70.68 92.01 71.02 93.67 71.37 94.02 71.72 94.02 72.06 92.48 72.41 93.31 72.75 93.55 73.1 92.36 73.44 91.42 73.79 89.88 74.14 90.23 74.48 90.47 74.83 90.11 75.17 89.88 75.52 88.93 75.87 87.27 76.21 86.08 76.56 89.88 76.9 90.23 77.25 89.76 77.59 87.27 77.94 85.02 78.29 83 78.63 84.42 78.98 87.62 79.32 86.32 79.67 87.39 80.01 88.34 80.36 89.4 80.71 93.9 81.05 94.26 81.4 97.46 81.74 97.1 82.09 97.93 82.44 96.39 82.78 99.12 83.13 103.62 83.47 103.62 83.82 104.93 84.16 105.52 84.51 104.81 84.86 104.81 85.2 103.03 85.55 101.37 85.89 101.02 86.24 101.37 86.58 102.08 86.93 99.59 87.28 98.88 87.62 97.7 87.97 98.17 88.31 97.93 88.66 98.29 89.01 93.9 89.35 95.68 89.7 96.99 90.04 99.83 90.39 101.02 90.73 102.44 91.08 102.08 91.43 100.3 91.77 100.07 92.12 100.78 92.46 100.42 92.81 101.73 93.15 102.08 93.5 103.62 93.85 104.93 94.19 103.03 94.54 104.1 94.88 104.93 95.23 103.27 95.58 104.69 95.92 105.76 96.27 105.76 96.61 105.87 96.96 105.64 97.3 107.41 97.65 105.64 98 106.47 98.34 103.98 98.69 105.99 99.03 103.98 99.38 102.2 99.72 102.2 100.07 99.47 100.42 101.61 100.76 99 101.11 100.66 101.45 100.78 101.8 98.53 102.15 98.41 102.49 102.32 102.84 101.13 103.18 102.79 103.53 102.2 103.87 101.84 104.22 105.52 104.57 106.11 104.91 105.04 105.26 108.13 105.6 110.73 105.95 108.72 106.29 107.3 106.64 106.58 106.99 105.4 107.33 107.06 107.68 108.84 108.02 109.07 108.37 106.7 108.72 106.47 109.06 107.06 109.41 107.18 109.75 108.24 110.1 106.82 110.44 106.82 110.79 103.98 111.14 105.16 111.48 104.33 111.83 108.36 112.17 106.7 112.52 105.99 112.86 102.67 113.21 102.08 113.56 99.59 113.9 100.66 114.25 102.44 114.59 102.08 114.94 102.91 115.29 101.25 115.63 101.73 115.98 102.91 116.32 102.44 116.67 102.32 117.01 101.49 117.36 101.73 117.71 103.39 118.05 103.15 118.4 106.58 118.74 109.07 119.09 107.89 119.43 107.65 119.78 105.28 120.13 106.23 120.47 107.89 120.82 108.01 121.16 108.36 121.51 107.65 121.86 109.43 122.2 108.95 122.55 110.38 122.89 112.51 123.24 112.98 123.58 113.7 123.93 115 124.28 115.95 124.62 117.25 124.97 118.2 125.31 119.26 125.66 119.62 126 118.32 126.35 119.5 126.7 119.26 127.04 118.67 127.39 119.74 127.73 119.98 128.08 121.52 128.43 121.75 128.77 121.63 129.12 123.77 129.46 123.89 129.81 123.53 130.15 122.94 130.5 123.65 130.85 122.11 131.19 122.35 131.54 123.41 131.88 123.53 132.23 123.77 132.57 124.36 132.92 124.48 133.27 124.83 133.61 124.83 133.96 125.55 134.3 125.55 134.65 126.85 135 127.2 135.34 127.68 135.69 127.68 136.03 127.56 136.38 128.51 136.72 128.03 137.07 128.27 137.42 128.51 137.76 128.74 138.11 128.27 138.45 127.8 138.8 126.85 139.14 126.85 139.49 124.48 139.84 125.07 140.18 125.31 140.53 124.83 140.87 124.95 141.22 123.29 141.57 124.12 141.91 122.82 142.26 123.53 142.6 121.99 142.95 120.92 143.29 119.86 143.64 119.15 143.99 119.38 144.33 118.55 144.68 119.5 145.02 118.32 145.37 118.08 145.71 118.44 146.06 118.44 146.41 121.04 146.75 121.99 147.1 122.94 147.44 123.18 147.79 124.72 148.14 123.89 148.48 123.29 148.83 123.89 149.17 124.12 149.52 124.12 149.86 122.7 150.21 122.58 150.56 123.18 150.9 123.06 151.25 123.41 151.59 124 151.94 124.95 152.28 125.43 152.63 126.26 152.98 126.37 153.32 126.14 153.67 125.9 154.01 125.78 154.36 124.72 154.71 123.89 155.05 122.82 155.4 123.65 155.74 124.6 156.09 124.83 156.43 124.6 156.78 125.78 157.13 125.66 157.47 125.9 157.82 124 158.16 122.35 158.51 120.69 158.85 121.28 159.2 121.28 159.55 120.45 159.89 119.62 160.24 119.5 160.58 119.38 160.93 117.37 161.28 117.01 161.62 117.49 161.97 118.67 162.31 115.95 162.66 115.95 163 115.47 163.35 115.71 163.7 115.95 164.04 114.88 164.39 113.22 164.73 112.98 165.08 112.75 165.42 113.22 165.77 111.09 166.12 113.34 166.46 112.51 166.81 113.7 167.15 115 167.5 116.18 167.85 117.01 168.19 115.47 168.54 115 168.88 116.78 169.23 116.78 169.57 114.52 169.92 115.24 170.27 113.7 170.61 113.81 170.96 113.46 171.3 112.51 171.65 112.39 171.99 113.58 172.34 114.52 172.69 116.07 173.03 117.96 173.38 118.32 173.72 120.33 174.07 121.4 174.42 123.06 174.76 124.6 175.11 125.78 175.45 125.31 175.8 125.78 176.14 126.73 176.49 126.14 176.84 126.26 177.18 125.78 177.53 124.95 177.87 124.36 178.22 124.6 178.56 126.02 178.91 126.26 179.26 125.9 179.6 126.14 179.95 124.83 180.29 124.72 180.64 124.95 180.99 125.31 181.33 126.14 181.68 123.89 182.02 124.24 182.37 124.12 182.71 123.77 183.06 126.14 183.41 127.09 183.75 127.09 184.1 127.09 184.44 127.32 184.79 126.14 185.13 126.85 185.48 128.15 185.83 128.03 186.17 127.8 186.52 128.86 186.86 128.63 187.21 127.56 187.56 127.8 187.9 126.73 188.25 125.9 188.59 125.43 188.94 125.19 189.28 126.26 189.63 125.9 189.98 126.73 190.32 126.26 190.67 127.09 191.01 126.73 191.36 128.15 191.7 127.56 192.05 127.32 192.4 126.97 192.74 126.37 193.09 125.78 193.43 124.83 193.78 125.55 194.13 125.07 194.47 125.55 194.82 125.9 195.16 126.49 195.51 125.55 195.85 125.9 196.2 126.37"/>
      </g>
      <g stroke-width="0.3" fill="#000000" fill-opacity="0.000" class="geometry" stroke-dasharray="none" stroke="#FDAE61" id="img-74d4dfd5-16">
        <path fill="none" d="M23.65,77.79 L 24 75.54 24.34 70.92 24.69 70.2 25.03 69.85 25.38 69.49 25.73 69.37 26.07 66.77 26.42 65.82 26.76 64.63 27.11 67.6 27.45 68.55 27.8 68.9 28.15 68.19 28.49 68.43 28.84 70.92 29.18 70.44 29.53 71.27 29.88 71.15 30.22 70.44 30.57 71.03 30.91 70.92 31.26 70.8 31.6 70.44 31.95 69.85 32.3 69.26 32.64 69.02 32.99 68.78 33.33 69.14 33.68 71.39 34.02 69.97 34.37 70.32 34.72 72.46 35.06 73.17 35.41 72.22 35.75 73.88 36.1 74.83 36.45 77.31 36.79 75.3 37.14 72.81 37.48 71.27 37.83 70.56 38.17 69.02 38.52 69.37 38.87 68.19 39.21 67.48 39.56 68.9 39.9 68.78 40.25 69.85 40.59 70.92 40.94 67.36 41.29 69.02 41.63 68.31 41.98 68.66 42.32 68.31 42.67 69.02 43.02 70.44 43.36 72.34 43.71 73.76 44.05 72.34 44.4 67.83 44.74 66.89 45.09 67.24 45.44 66.77 45.78 64.99 46.13 62.74 46.47 61.91 46.82 63.33 47.16 60.72 47.51 61.2 47.86 60.72 48.2 60.01 48.55 61.44 48.89 62.03 49.24 64.28 49.59 65.11 49.93 65.11 50.28 65.94 50.62 66.29 50.97 66.77 51.31 66.65 51.66 64.52 52.01 63.92 52.35 60.49 52.7 61.08 53.04 65.7 53.39 62.62 53.73 60.84 54.08 62.98 54.43 64.75 54.77 68.43 55.12 67.95 55.46 70.56 55.81 71.03 56.16 69.02 56.5 70.09 56.85 68.66 57.19 66.18 57.54 64.99 57.88 64.63 58.23 62.98 58.58 66.18 58.92 66.65 59.27 66.53 59.61 66.89 59.96 64.28 60.3 64.28 60.65 65.11 61 66.29 61.34 64.16 61.69 68.07 62.03 70.09 62.38 68.55 62.73 70.68 63.07 68.07 63.42 66.89 63.76 66.18 64.11 65.23 64.45 66.29 64.8 67 65.15 65.82 65.49 64.16 65.84 65.35 66.18 64.87 66.53 63.33 66.87 63.33 67.22 61.79 67.57 63.69 67.91 66.53 68.26 64.75 68.6 61.79 68.95 59.06 69.3 58.35 69.64 57.41 69.99 61.2 70.33 60.25 70.68 60.37 71.02 59.78 71.37 56.46 71.72 56.1 72.06 56.69 72.41 57.29 72.75 58.47 73.1 59.06 73.44 60.49 73.79 59.18 74.14 58 74.48 56.34 74.83 57.05 75.17 56.93 75.52 55.15 75.87 52.9 76.21 53.61 76.56 53.5 76.9 51.84 77.25 51.84 77.59 51.13 77.94 50.77 78.29 51.13 78.63 52.78 78.98 55.04 79.32 52.78 79.67 53.14 80.01 51.01 80.36 49.82 80.71 48.76 81.05 50.18 81.4 51.24 81.74 51.72 82.09 49.11 82.44 50.06 82.78 51.72 83.13 50.89 83.47 50.41 83.82 50.41 84.16 52.07 84.51 51.01 84.86 50.65 85.2 53.14 85.55 52.67 85.89 53.97 86.24 55.51 86.58 56.46 86.93 56.69 87.28 57.64 87.62 56.69 87.97 59.66 88.31 62.15 88.66 63.81 89.01 67.12 89.35 65.11 89.7 67.36 90.04 68.07 90.39 67.72 90.73 67.12 91.08 64.52 91.43 63.69 91.77 67.24 92.12 67.83 92.46 67.72 92.81 67.12 93.15 66.41 93.5 65.58 93.85 62.86 94.19 64.16 94.54 61.67 94.88 60.13 95.23 58.12 95.58 57.52 95.92 55.51 96.27 55.87 96.61 53.97 96.96 55.39 97.3 52.78 97.65 51.48 98 51.72 98.34 49.35 98.69 50.3 99.03 49.7 99.38 50.06 99.72 50.89 100.07 48.76 100.42 48.28 100.76 49.47 101.11 48.4 101.45 44.25 101.8 44.61 102.15 44.25 102.49 43.9 102.84 44.13 103.18 42.83 103.53 43.78 103.87 44.02 104.22 42.83 104.57 44.13 104.91 42.83 105.26 40.46 105.6 40.46 105.95 40.46 106.29 40.1 106.64 40.82 106.99 41.29 107.33 40.93 107.68 43.07 108.02 44.84 108.37 45.44 108.72 46.74 109.06 46.03 109.41 47.1 109.75 46.62 110.1 45.32 110.44 44.02 110.79 42.95 111.14 42.12 111.48 41.41 111.83 42 112.17 41.88 112.52 42.59 112.86 45.32 113.21 45.08 113.56 44.49 113.9 43.9 114.25 41.76 114.59 42.24 114.94 39.99 115.29 41.53 115.63 42.12 115.98 41.64 116.32 42.24 116.67 41.53 117.01 40.46 117.36 39.04 117.71 38.45 118.05 37.26 118.4 36.31 118.74 36.43 119.09 37.02 119.43 39.39 119.78 39.39 120.13 38.56 120.47 39.27 120.82 39.27 121.16 40.58 121.51 40.58 121.86 40.22 122.2 39.04 122.55 38.8 122.89 38.68 123.24 38.68 123.58 37.5 123.93 37.62 124.28 37.62 124.62 38.45 124.97 35.72 125.31 36.31 125.66 35.96 126 36.08 126.35 36.08 126.7 36.31 127.04 38.92 127.39 39.99 127.73 37.73 128.08 37.5 128.43 39.04 128.77 37.85 129.12 37.38 129.46 36.31 129.81 36.55 130.15 37.5 130.5 35.72 130.85 35.72 131.19 36.79 131.54 35.25 131.88 35.25 132.23 35.96 132.57 35.96 132.92 35.48 133.27 35.25 133.61 36.31 133.96 35.6 134.3 33.94 134.65 33.11 135 32.4 135.34 31.69 135.69 33.23 136.03 34.3 136.38 33.71 136.72 32.76 137.07 33.11 137.42 32.28 137.76 32.88 138.11 33.11 138.45 32.4 138.8 32.64 139.14 32.52 139.49 32.05 139.84 31.22 140.18 29.68 140.53 30.27 140.87 29.91 141.22 30.39 141.57 28.73 141.91 29.2 142.26 29.68 142.6 29.44 142.95 30.51 143.29 30.39 143.64 29.91 143.99 29.56 144.33 29.2 144.68 28.85 145.02 29.2 145.37 29.68 145.71 28.61 146.06 28.97 146.41 29.32 146.75 31.22 147.1 30.98 147.44 30.39 147.79 30.62 148.14 30.03 148.48 29.68 148.83 29.32 149.17 28.25 149.52 27.54 149.86 27.9 150.21 29.2 150.56 27.78 150.9 28.61 151.25 27.78 151.59 28.37 151.94 28.85 152.28 28.25 152.63 27.42 152.98 27.07 153.32 26.6 153.67 27.66 154.01 28.14 154.36 27.42 154.71 27.66 155.05 27.07 155.4 26.48 155.74 26.48 156.09 26.24 156.43 25.65 156.78 26.12 157.13 26.6 157.47 27.19 157.82 26.24 158.16 25.88 158.51 26 158.85 26.36 159.2 26.12 159.55 25.53 159.89 24.94 160.24 25.17 160.58 25.53 160.93 25.41 161.28 24.82 161.62 24.46"/>
      </g>
      <g stroke-width="0.3" fill="#000000" fill-opacity="0.000" class="geometry" stroke-dasharray="none" stroke="#F46D43" id="img-74d4dfd5-17">
        <path fill="none" d="M23.65,77.79 L 24 78.03 24.34 79.09 24.69 80.51 25.03 83.6 25.38 86.44 25.73 84.78 26.07 86.68 26.42 89.4 26.76 91.18 27.11 91.18 27.45 94.97 27.8 97.34 28.15 97.1 28.49 96.04 28.84 96.04 29.18 93.31 29.53 91.3 29.88 90.94 30.22 93.19 30.57 92.25 30.91 94.26 31.26 93.08 31.6 93.19 31.95 95.21 32.3 93.43 32.64 92.36 32.99 90.71 33.33 90.82 33.68 87.86 34.02 85.49 34.37 86.08 34.72 87.62 35.06 90.23 35.41 90.82 35.75 90.82 36.1 90.59 36.45 91.77 36.79 92.01 37.14 89.64 37.48 87.27 37.83 85.49 38.17 84.31 38.52 83.12 38.87 84.66 39.21 86.56 39.56 83.6 39.9 84.07 40.25 84.42 40.59 85.85 40.94 86.56 41.29 89.99 41.63 87.86 41.98 87.74 42.32 87.51 42.67 89.16 43.02 89.88 43.36 87.62 43.71 85.61 44.05 85.85 44.4 83.71 44.74 80.4 45.09 82.65 45.44 81.23 45.78 82.29 46.13 80.16 46.47 80.51 46.82 76.37 47.16 78.74 47.51 79.8 47.86 80.51 48.2 82.77 48.55 82.77 48.89 79.8 49.24 79.33 49.59 81.11 49.93 83.12 50.28 86.08 50.62 81.94 50.97 83.24 51.31 82.77 51.66 84.66 52.01 83.95 52.35 80.04 52.7 75.77 53.04 74.59 53.39 73.76 53.73 76.72 54.08 78.03 54.43 81.58 54.77 81.7 55.12 80.4 55.46 78.86 55.81 80.99 56.16 82.65 56.5 83.71 56.85 83.24 57.19 84.9 57.54 86.44 57.88 84.07 58.23 86.32 58.58 86.08 58.92 83.12 59.27 82.53 59.61 82.88 59.96 84.54 60.3 83.6 60.65 84.31 61 84.07 61.34 84.07 61.69 83 62.03 84.42 62.38 83.12 62.73 85.14 63.07 82.77 63.42 84.42 63.76 84.66 64.11 86.79 64.45 87.03 64.8 86.32 65.15 85.85 65.49 86.68 65.84 85.73 66.18 86.32 66.53 85.73 66.87 86.68 67.22 84.9 67.57 83.12 67.91 85.02 68.26 81.82 68.6 84.07 68.95 83.95 69.3 82.29 69.64 79.09 69.99 81.11 70.33 79.8 70.68 80.63 71.02 81.23 71.37 83.12 71.72 81.7 72.06 77.79 72.41 72.34 72.75 71.74 73.1 69.85 73.44 68.43 73.79 70.09 74.14 71.15 74.48 70.2 74.83 72.1 75.17 72.93 75.52 74.23 75.87 74.35 76.21 73.4 76.56 72.34 76.9 73.64 77.25 70.44 77.59 69.97 77.94 69.49 78.29 67.72 78.63 69.37 78.98 70.2 79.32 69.49 79.67 72.22 80.01 70.44 80.36 68.66 80.71 70.09 81.05 67.36 81.4 65.11 81.74 65.58 82.09 67.12 82.44 67.72 82.78 64.52 83.13 64.4 83.47 63.33 83.82 64.87 84.16 64.75 84.51 62.74 84.86 62.15 85.2 61.79 85.55 61.2 85.89 62.74 86.24 61.91 86.58 62.98 86.93 64.63 87.28 64.63 87.62 64.75 87.97 63.57 88.31 65.11 88.66 64.75 89.01 66.77 89.35 67.83 89.7 71.39 90.04 72.1 90.39 68.55 90.73 66.53 91.08 69.97 91.43 68.19 91.77 67.95 92.12 70.56 92.46 69.49 92.81 68.43 93.15 69.37 93.5 68.9 93.85 68.19 94.19 67.24 94.54 67.95 94.88 69.85 95.23 69.37 95.58 70.8 95.92 71.15 96.27 69.49 96.61 69.37 96.96 69.49 97.3 70.92 97.65 69.26 98 64.63 98.34 67.83 98.69 68.31 99.03 68.43 99.38 68.19 99.72 67 100.07 68.19 100.42 69.97 100.76 71.51 101.11 74 101.45 72.81 101.8 73.05 102.15 72.81 102.49 74.71 102.84 75.54 103.18 77.79 103.53 78.38 103.87 78.5 104.22 78.26 104.57 74.59 104.91 72.93 105.26 73.52 105.6 72.22 105.95 72.93 106.29 72.1 106.64 71.74 106.99 68.78 107.33 70.56 107.68 68.66 108.02 72.1 108.37 73.29 108.72 73.17 109.06 76.72 109.41 76.72 109.75 77.08 110.1 74.35 110.44 74.47 110.79 73.52 111.14 73.88 111.48 71.03 111.83 69.61 112.17 68.43 112.52 69.02 112.86 70.2 113.21 71.15 113.56 71.74 113.9 71.03 114.25 72.34 114.59 73.29 114.94 75.3 115.29 71.98 115.63 73.05 115.98 77.55 116.32 75.77 116.67 78.62 117.01 79.8 117.36 78.86 117.71 78.38 118.05 78.03 118.4 79.45 118.74 79.45 119.09 78.14 119.43 78.38 119.78 76.25 120.13 79.33 120.47 79.21 120.82 80.28 121.16 80.4 121.51 84.78 121.86 87.03 122.2 87.74 122.55 90.71 122.89 90.59 123.24 90.23 123.58 89.99 123.93 88.45 124.28 88.93 124.62 92.01 124.97 91.3 125.31 92.6 125.66 91.42 126 88.34 126.35 90.23 126.7 88.81 127.04 88.34 127.39 88.93 127.73 88.69 128.08 88.69 128.43 88.93 128.77 90.35 129.12 87.74 129.46 86.44 129.81 87.39 130.15 89.99 130.5 89.64 130.85 88.45 131.19 87.51 131.54 86.91 131.88 88.22 132.23 85.37 132.57 86.32 132.92 86.08 133.27 86.91 133.61 83.36 133.96 80.51 134.3 79.8 134.65 83.6 135 83.12 135.34 82.29 135.69 81.23 136.03 84.9 136.38 85.14 136.72 85.25 137.07 84.66 137.42 85.73 137.76 88.1 138.11 88.81 138.45 87.39 138.8 87.51 139.14 87.03 139.49 88.22 139.84 87.15 140.18 87.62 140.53 87.39 140.87 91.89 141.22 92.01 141.57 95.21 141.91 95.92 142.26 95.92 142.6 95.33 142.95 93.79 143.29 93.9 143.64 94.97 143.99 93.43 144.33 91.42 144.68 90.35 145.02 92.72 145.37 93.9 145.71 96.28 146.06 96.16 146.41 94.5 146.75 94.62 147.1 92.6 147.44 90.94 147.79 90.82 148.14 90.47 148.48 92.25 148.83 92.48 149.17 92.25 149.52 92.13 149.86 91.65 150.21 89.16 150.56 89.88 150.9 90.71 151.25 91.77 151.59 90.11 151.94 88.57 152.28 89.4 152.63 88.81 152.98 89.4 153.32 92.48 153.67 93.43 154.01 91.3 154.36 91.77 154.71 93.19 155.05 95.33 155.4 97.1 155.74 97.7 156.09 96.87 156.43 94.73 156.78 94.85 157.13 93.31 157.47 95.33 157.82 96.28 158.16 96.16 158.51 97.93 158.85 98.05 159.2 98.17 159.55 98.29 159.89 98.76 160.24 100.42 160.58 101.37 160.93 98.76 161.28 97.1 161.62 94.73 161.97 96.87 162.31 96.39 162.66 95.45 163 95.56 163.35 95.21 163.7 96.28 164.04 99 164.39 99 164.73 97.22 165.08 95.92 165.42 94.97 165.77 94.5 166.12 93.31 166.46 93.43 166.81 89.99 167.15 88.93 167.5 88.34 167.85 84.07 168.19 82.88 168.54 80.75 168.88 80.4 169.23 83.36 169.57 82.77 169.92 84.66 170.27 84.31 170.61 89.52 170.96 89.52 171.3 88.93 171.65 90.71 171.99 86.32 172.34 86.68 172.69 82.88 173.03 82.88 173.38 85.37 173.72 86.91 174.07 85.14 174.42 89.28 174.76 87.51 175.11 86.79 175.45 85.49 175.8 89.05 176.14 88.69 176.49 88.81 176.84 89.16 177.18 89.52 177.53 89.76 177.87 89.88 178.22 89.76 178.56 88.69 178.91 86.79 179.26 87.51 179.6 85.85 179.95 87.74 180.29 89.05 180.64 88.69 180.99 90.11 181.33 90.82 181.68 90.82 182.02 92.13 182.37 90.59 182.71 91.77 183.06 86.91 183.41 88.34 183.75 86.2 184.1 87.74 184.44 90.11 184.79 91.3 185.13 92.6 185.48 93.9 185.83 92.72 186.17 91.89 186.52 91.18 186.86 92.13 187.21 93.67 187.56 94.85 187.9 95.45 188.25 94.73 188.59 96.39 188.94 95.45 189.28 96.51 189.63 94.14 189.98 90.71 190.32 87.98 190.67 84.78 191.01 84.31 191.36 85.97 191.7 85.85 192.05 87.27 192.4 88.69 192.74 85.37 193.09 86.79 193.43 84.54 193.78 86.44 194.13 86.2 194.47 83.12 194.82 81.82 195.16 81.58 195.51 80.87 195.85 79.92 196.2 80.04"/>
      </g>
      <g stroke-width="0.3" fill="#000000" fill-opacity="0.000" class="geometry" stroke-dasharray="none" stroke="#D53E4F" id="img-74d4dfd5-18">
        <path fill="none" d="M23.65,77.79 L 24 75.89 24.34 77.55 24.69 76.48 25.03 73.64 25.38 73.76 25.73 77.08 26.07 77.2 26.42 75.06 26.76 75.3 27.11 73.64 27.45 74 27.8 73.64 28.15 72.81 28.49 72.69 28.84 70.56 29.18 71.86 29.53 75.18 29.88 75.42 30.22 74 30.57 75.18 30.91 74.59 31.26 76.48 31.6 73.29 31.95 69.97 32.3 74.35 32.64 75.06 32.99 74 33.33 74.71 33.68 69.85 34.02 71.03 34.37 74.71 34.72 70.2 35.06 67.6 35.41 67.12 35.75 64.99 36.1 62.38 36.45 62.98 36.79 60.72 37.14 59.42 37.48 58.24 37.83 56.93 38.17 58.24 38.52 56.69 38.87 54.68 39.21 53.61 39.56 55.87 39.9 55.27 40.25 53.97 40.59 55.27 40.94 55.51 41.29 53.97 41.63 55.51 41.98 56.81 42.32 54.8 42.67 53.97 43.02 53.14 43.36 53.73 43.71 55.63 44.05 56.69 44.4 59.42 44.74 60.72 45.09 62.38 45.44 63.33 45.78 64.75 46.13 65.46 46.47 64.87 46.82 64.87 47.16 64.99 47.51 62.38 47.86 63.33 48.2 61.08 48.55 61.32 48.89 60.25 49.24 60.72 49.59 60.25 49.93 61.44 50.28 58.95 50.62 60.13 50.97 58.24 51.31 60.49 51.66 62.15 52.01 58.95 52.35 58.95 52.7 60.49 53.04 61.55 53.39 64.4 53.73 63.69 54.08 63.57 54.43 62.62 54.77 65.7 55.12 63.92 55.46 67.24 55.81 68.78 56.16 67.36 56.5 66.53 56.85 67 57.19 67.12 57.54 64.52 57.88 62.26 58.23 58.35 58.58 60.61 58.92 58.83 59.27 56.93 59.61 56.1 59.96 55.27 60.3 55.63 60.65 57.29 61 58.59 61.34 59.18 61.69 60.84 62.03 60.49 62.38 59.54 62.73 59.54 63.07 58.71 63.42 56.93 63.76 56.58 64.11 56.93 64.45 59.89 64.8 59.18 65.15 57.88 65.49 57.17 65.84 58 66.18 56.81 66.53 58.12 66.87 58.83 67.22 58.24 67.57 57.76 67.91 57.17 68.26 57.05 68.6 55.27 68.95 55.27 69.3 54.09 69.64 51.36 69.99 52.31 70.33 50.89 70.68 52.9 71.02 52.9 71.37 52.43 71.72 50.65 72.06 49.7 72.41 47.93 72.75 48.76 73.1 49.23 73.44 49.82 73.79 51.95 74.14 51.95 74.48 50.89 74.83 52.9 75.17 53.14 75.52 52.19 75.87 52.31 76.21 50.06 76.56 49.11 76.9 51.36 77.25 50.41 77.59 48.52 77.94 48.76 78.29 47.21 78.63 45.67 78.98 44.96 79.32 42.12 79.67 40.93 80.01 39.75 80.36 39.16 80.71 40.34 81.05 40.82 81.4 42.12 81.74 44.37 82.09 45.44 82.44 46.74 82.78 49.11 83.13 47.81 83.47 46.98 83.82 46.5 84.16 49.82 84.51 48.04 84.86 47.1 85.2 45.44 85.55 45.56 85.89 46.39 86.24 47.93 86.58 46.62 86.93 46.74 87.28 47.33 87.62 48.04 87.97 47.57 88.31 46.98 88.66 45.67 89.01 45.44 89.35 46.5 89.7 48.76 90.04 48.99 90.39 49.35 90.73 48.4 91.08 47.33 91.43 46.74 91.77 46.62 92.12 47.57 92.46 47.1 92.81 47.81 93.15 45.91 93.5 44.84 93.85 45.32 94.19 44.61 94.54 47.33 94.88 47.57 95.23 48.87 95.58 48.99 95.92 48.16 96.27 48.76 96.61 51.01 96.96 50.06 97.3 49.94 97.65 50.06 98 51.84 98.34 51.84 98.69 50.3 99.03 51.95 99.38 53.14 99.72 56.58 100.07 55.15 100.42 51.24 100.76 49.82 101.11 47.81 101.45 49.7 101.8 50.41 102.15 50.89 102.49 50.53 102.84 48.87 103.18 48.04 103.53 46.03 103.87 44.73 104.22 42 104.57 43.66 104.91 45.79 105.26 46.39 105.6 48.4 105.95 49.47 106.29 49.35 106.64 49.7 106.99 47.57 107.33 47.93 107.68 47.69 108.02 48.64 108.37 46.5 108.72 47.1 109.06 49.47 109.41 47.69 109.75 48.76 110.1 48.99 110.44 48.16 110.79 47.81 111.14 49.35 111.48 49.82 111.83 46.86 112.17 47.1 112.52 48.16 112.86 47.93 113.21 50.06 113.56 48.4 113.9 46.15 114.25 46.27 114.59 45.08 114.94 46.62 115.29 47.69 115.63 47.45 115.98 47.45 116.32 45.32 116.67 45.79 117.01 46.62 117.36 45.67 117.71 44.02 118.05 45.44 118.4 45.91 118.74 44.61 119.09 44.96 119.43 45.32 119.78 44.61 120.13 43.9 120.47 44.13 120.82 45.44 121.16 41.29 121.51 41.05 121.86 41.53 122.2 41.29 122.55 41.29 122.89 40.7 123.24 38.33 123.58 38.8 123.93 36.19 124.28 37.02 124.62 36.31 124.97 35.48 125.31 35.72 125.66 35.72 126 35.13 126.35 36.08 126.7 36.79 127.04 36.19 127.39 34.42 127.73 34.53 128.08 33.71 128.43 35.72 128.77 35.6 129.12 33.59 129.46 32.4 129.81 31.1 130.15 31.34 130.5 29.68 130.85 30.03 131.19 30.15 131.54 29.2 131.88 29.91 132.23 28.73 132.57 28.85 132.92 29.79 133.27 28.37 133.61 27.42 133.96 26.48 134.3 26.24 134.65 25.77 135 26 135.34 26.6 135.69 25.88 136.03 26.71 136.38 26.83 136.72 26 137.07 25.88 137.42 26 137.76 25.53 138.11 26 138.45 25.53 138.8 25.29 139.14 25.41 139.49 25.29 139.84 25.17 140.18 25.17 140.53 25.41 140.87 25.65 141.22 25.17 141.57 25.05 141.91 24.94 142.26 24.82 142.6 24.58 142.95 24.7 143.29 24.46"/>
      </g>
      <g stroke-width="0.3" fill="#000000" fill-opacity="0.000" class="geometry" stroke-dasharray="none" stroke="#9E0142" id="img-74d4dfd5-19">
        <path fill="none" d="M23.65,77.79 L 24 76.48 24.34 76.48 24.69 75.18 25.03 74.59 25.38 76.37 25.73 76.72 26.07 74.35 26.42 75.54 26.76 76.13 27.11 75.66 27.45 73.88 27.8 73.76 28.15 73.76 28.49 70.32 28.84 71.98 29.18 73.05 29.53 73.17 29.88 72.22 30.22 70.44 30.57 70.8 30.91 69.49 31.26 66.53 31.6 66.77 31.95 67.48 32.3 66.65 32.64 66.29 32.99 69.26 33.33 67.83 33.68 67.95 34.02 67.24 34.37 68.78 34.72 69.61 35.06 67.72 35.41 67.83 35.75 69.49 36.1 69.02 36.45 67.95 36.79 72.93 37.14 72.34 37.48 69.97 37.83 70.56 38.17 69.37 38.52 69.26 38.87 66.18 39.21 66.41 39.56 67.12 39.9 66.89 40.25 67.24 40.59 67.24 40.94 66.65 41.29 66.77 41.63 67 41.98 66.18 42.32 66.53 42.67 67.6 43.02 72.22 43.36 72.93 43.71 70.68 44.05 69.97 44.4 72.93 44.74 75.06 45.09 76.13 45.44 76.37 45.78 78.62 46.13 77.31 46.47 75.77 46.82 76.96 47.16 78.86 47.51 78.03 47.86 77.79 48.2 78.38 48.55 75.66 48.89 76.96 49.24 74.47 49.59 76.72 49.93 76.84 50.28 76.72 50.62 76.6 50.97 76.25 51.31 77.2 51.66 76.13 52.01 77.79 52.35 75.77 52.7 77.67 53.04 75.89 53.39 77.08 53.73 76.96 54.08 76.84 54.43 79.57 54.77 79.92 55.12 80.16 55.46 80.04 55.81 80.16 56.16 78.86 56.5 78.5 56.85 78.26 57.19 78.74 57.54 77.67 57.88 80.16 58.23 79.09 58.58 82.29 58.92 79.45 59.27 78.26 59.61 77.2 59.96 76.13 60.3 78.14 60.65 79.33 61 80.87 61.34 81.11 61.69 79.45 62.03 79.09 62.38 78.14 62.73 80.51 63.07 78.38 63.42 79.57 63.76 82.41 64.11 83.24 64.45 83.95 64.8 82.88 65.15 83.83 65.49 81.58 65.84 82.65 66.18 83.95 66.53 81.94 66.87 79.09 67.22 78.5 67.57 79.33 67.91 77.31 68.26 75.3 68.6 78.74 68.95 81.11 69.3 78.26 69.64 79.68 69.99 84.31 70.33 81.23 70.68 81.82 71.02 81.94 71.37 79.8 71.72 79.92 72.06 76.6 72.41 78.38 72.75 77.91 73.1 78.97 73.44 80.99 73.79 82.29 74.14 85.25 74.48 86.91 74.83 85.02 75.17 87.27 75.52 87.86 75.87 87.39 76.21 84.31 76.56 86.2 76.9 87.62 77.25 86.91 77.59 85.02 77.94 84.42 78.29 84.9 78.63 85.14 78.98 84.9 79.32 84.78 79.67 85.37 80.01 82.41 80.36 83.83 80.71 82.41 81.05 82.77 81.4 83.6 81.74 82.17 82.09 81.7 82.44 80.87 82.78 77.31 83.13 77.08 83.47 81.7 83.82 78.03 84.16 78.97 84.51 76.48 84.86 72.93 85.2 73.17 85.55 74.94 85.89 73.17 86.24 73.29 86.58 77.43 86.93 76.6 87.28 76.37 87.62 75.77 87.97 74.83 88.31 71.15 88.66 70.68 89.01 71.15 89.35 70.09 89.7 70.56 90.04 69.37 90.39 69.37 90.73 69.97 91.08 71.39 91.43 73.05 91.77 70.44 92.12 68.43 92.46 66.06 92.81 65.58 93.15 67.72 93.5 67.36 93.85 63.92 94.19 63.57 94.54 63.21 94.88 59.18 95.23 60.72 95.58 59.78 95.92 60.49 96.27 62.15 96.61 61.79 96.96 62.86 97.3 62.15 97.65 62.86 98 63.57 98.34 65.82 98.69 65.7 99.03 65.46 99.38 64.87 99.72 63.69 100.07 61.32 100.42 60.49 100.76 61.08 101.11 60.84 101.45 58.95 101.8 61.55 102.15 60.61 102.49 59.42 102.84 60.84 103.18 61.32 103.53 61.55 103.87 60.61 104.22 61.2 104.57 64.4 104.91 68.19 105.26 69.49 105.6 73.05 105.95 72.81 106.29 73.64 106.64 74.35 106.99 75.06 107.33 76.13 107.68 78.26 108.02 80.16 108.37 80.51 108.72 83.71 109.06 85.49 109.41 87.03 109.75 84.54 110.1 83.83 110.44 83.83 110.79 85.02 111.14 86.08 111.48 86.68 111.83 87.62 112.17 86.32 112.52 86.08 112.86 83.83 113.21 84.9 113.56 85.37 113.9 82.41 114.25 80.28 114.59 82.88 114.94 83.24 115.29 81.7 115.63 83.12 115.98 80.51 116.32 78.14 116.67 79.21 117.01 80.51 117.36 84.07 117.71 81.34 118.05 81.34 118.4 80.63 118.74 80.63 119.09 82.29 119.43 84.54 119.78 81.82 120.13 79.09 120.47 75.89 120.82 76.96 121.16 81.7 121.51 82.41 121.86 80.75 122.2 83 122.55 82.65 122.89 85.14 123.24 83.95 123.58 84.66 123.93 85.37 124.28 84.66 124.62 86.44 124.97 88.57 125.31 86.91 125.66 87.39 126 86.08 126.35 89.05 126.7 87.51 127.04 87.27 127.39 86.91 127.73 84.19 128.08 85.14 128.43 84.19 128.77 81.7 129.12 81.46 129.46 80.99 129.81 80.51 130.15 84.07 130.5 85.49 130.85 85.61 131.19 84.66 131.54 86.32 131.88 85.61 132.23 87.27 132.57 90.59 132.92 90.71 133.27 89.16 133.61 88.45 133.96 85.25 134.3 86.91 134.65 85.49 135 84.78 135.34 87.39 135.69 89.16 136.03 84.66 136.38 84.9 136.72 82.77 137.07 79.45 137.42 76.37 137.76 73.17 138.11 74.71 138.45 75.42 138.8 74.94 139.14 77.31 139.49 76.84 139.84 76.25 140.18 77.91 140.53 78.26 140.87 78.74 141.22 82.77 141.57 79.45 141.91 80.75 142.26 78.86 142.6 76.72 142.95 78.38 143.29 78.97 143.64 77.43 143.99 77.31 144.33 77.91 144.68 76.25 145.02 76.13 145.37 76.6 145.71 75.42 146.06 75.18 146.41 75.77 146.75 77.08 147.1 80.63 147.44 80.28 147.79 80.63 148.14 80.04 148.48 78.26 148.83 75.42 149.17 77.55 149.52 80.04 149.86 79.68 150.21 78.86 150.56 78.74 150.9 75.89 151.25 76.6 151.59 76.25 151.94 76.01 152.28 76.48 152.63 78.03 152.98 77.43 153.32 75.3 153.67 74.94 154.01 77.79 154.36 75.42 154.71 74.11 155.05 73.4 155.4 74.94 155.74 74 156.09 73.29 156.43 72.69 156.78 70.8 157.13 73.29 157.47 73.4 157.82 71.39 158.16 70.56 158.51 70.92 158.85 73.17 159.2 69.49 159.55 69.14 159.89 71.74 160.24 72.34 160.58 70.8 160.93 71.98 161.28 74.47 161.62 75.54 161.97 75.66 162.31 77.79 162.66 80.04 163 80.87 163.35 80.87 163.7 80.04 164.04 81.46 164.39 81.46 164.73 83.12 165.08 83.24 165.42 83.24 165.77 85.61 166.12 84.31 166.46 85.37 166.81 83.12 167.15 83.48 167.5 83.83 167.85 87.39 168.19 89.52 168.54 87.51 168.88 86.08 169.23 86.56 169.57 85.61 169.92 85.97 170.27 87.15 170.61 88.1 170.96 89.16 171.3 86.44 171.65 86.2 171.99 85.37 172.34 83 172.69 83.71 173.03 82.17 173.38 83 173.72 85.37 174.07 86.32 174.42 87.27 174.76 87.39 175.11 87.27 175.45 87.15 175.8 88.1 176.14 90.11 176.49 87.74 176.84 87.15 177.18 85.73 177.53 86.56 177.87 88.34 178.22 85.61 178.56 84.54 178.91 85.14 179.26 87.15 179.6 85.73 179.95 87.51 180.29 89.64 180.64 91.77 180.99 92.01 181.33 93.31 181.68 92.48 182.02 92.13 182.37 92.6 182.71 92.6 183.06 90.71 183.41 92.72 183.75 93.31 184.1 94.97 184.44 93.9 184.79 95.21 185.13 99.24 185.48 102.44 185.83 105.87 186.17 106.23 186.52 108.13 186.86 105.99 187.21 106.11 187.56 105.87 187.9 108.95 188.25 106.58 188.59 105.87 188.94 105.64 189.28 104.45 189.63 102.79 189.98 100.3 190.32 100.78 190.67 101.73 191.01 100.19 191.36 99.71 191.7 97.1 192.05 97.34 192.4 99.12 192.74 101.25 193.09 98.41 193.43 96.99 193.78 97.82 194.13 93.19 194.47 94.26 194.82 95.92 195.16 96.63 195.51 95.45 195.85 95.56 196.2 95.21"/>
      </g>
    </g>
  </g>
</g>
  <g class="guide ylabels" font-size="2.82" font-family="'PT Sans Caption','Helvetica Neue','Helvetica',sans-serif" fill="#000000" id="img-74d4dfd5-20">
    <text x="20.3" y="131.11" text-anchor="end" dy="0.35em">0</text>
    <text x="20.3" y="101.49" text-anchor="end" dy="0.35em">250</text>
    <text x="20.3" y="71.86" text-anchor="end" dy="0.35em">500</text>
    <text x="20.3" y="42.24" text-anchor="end" dy="0.35em">750</text>
    <text x="20.3" y="12.61" text-anchor="end" dy="0.35em">1000</text>
  </g>
  <g font-size="3.88" font-family="'PT Sans','Helvetica Neue','Helvetica',sans-serif" fill="#000000" stroke="#000000" stroke-opacity="0.000" id="img-74d4dfd5-21">
    <text x="8.81" y="69.86" text-anchor="middle" dy="0.35em" transform="rotate(-90, 8.81, 71.86)">population number</text>
  </g>
  <g font-size="3.88" font-family="'PT Sans','Helvetica Neue','Helvetica',sans-serif" fill="#000000" stroke="#000000" stroke-opacity="0.000" id="img-74d4dfd5-22">
    <text x="109.75" y="5" text-anchor="middle" dy="0.6em">genetic drift</text>
  </g>
</g>
<defs>
  <clipPath id="img-74d4dfd5-4">
  <path d="M21.31,10.61 L 198.2 10.61 198.2 133.11 21.31 133.11" />
</clipPath>
</defs>
</svg>
