<?xml version="1.0" encoding="UTF-8"?>
<svg xmlns="http://www.w3.org/2000/svg"
     xmlns:xlink="http://www.w3.org/1999/xlink"
     xmlns:gadfly="http://www.gadflyjl.org/ns"
     version="1.2"
     width="203.2mm" height="152.4mm" viewBox="0 0 203.2 152.4"
     stroke="none"
     fill="#000000"
     stroke-width="0.3"
     font-size="3.88"
>
<g class="plotroot xscalable yscalable" id="img-61217438-1">
  <g font-size="3.88" font-family="'PT Sans','Helvetica Neue','Helvetica',sans-serif" fill="#000000" stroke="#000000" stroke-opacity="0.000" id="img-61217438-2">
    <text x="108.92" y="140.79" text-anchor="middle" dy="0.6em">generation number</text>
  </g>
  <g class="guide xlabels" font-size="2.82" font-family="'PT Sans Caption','Helvetica Neue','Helvetica',sans-serif" fill="#000000" id="img-61217438-3">
    <text x="21.63" y="134.11" text-anchor="middle" dy="0.6em">0</text>
    <text x="56.55" y="134.11" text-anchor="middle" dy="0.6em">100</text>
    <text x="91.46" y="134.11" text-anchor="middle" dy="0.6em">200</text>
    <text x="126.37" y="134.11" text-anchor="middle" dy="0.6em">300</text>
    <text x="161.29" y="134.11" text-anchor="middle" dy="0.6em">400</text>
    <text x="196.2" y="134.11" text-anchor="middle" dy="0.6em">500</text>
  </g>
<g clip-path="url(#img-61217438-4)">
  <g id="img-61217438-5">
    <g pointer-events="visible" opacity="1" fill="#FFFFFF" stroke="#000000" stroke-opacity="0.000" class="guide background" id="img-61217438-6">
      <rect x="19.63" y="10.61" width="178.57" height="122.5"/>
    </g>
    <g class="guide ygridlines xfixed" stroke-dasharray="0.5,0.5" stroke-width="0.2" stroke="#808080" id="img-61217438-7">
      <path fill="none" d="M19.63,131.11 L 198.2 131.11"/>
      <path fill="none" d="M19.63,101.49 L 198.2 101.49"/>
      <path fill="none" d="M19.63,71.86 L 198.2 71.86"/>
      <path fill="none" d="M19.63,42.24 L 198.2 42.24"/>
      <path fill="none" d="M19.63,12.61 L 198.2 12.61"/>
    </g>
    <g class="guide xgridlines yfixed" stroke-dasharray="0.5,0.5" stroke-width="0.2" stroke="#808080" id="img-61217438-8">
      <path fill="none" d="M21.63,10.61 L 21.63 133.11"/>
      <path fill="none" d="M56.55,10.61 L 56.55 133.11"/>
      <path fill="none" d="M91.46,10.61 L 91.46 133.11"/>
      <path fill="none" d="M126.37,10.61 L 126.37 133.11"/>
      <path fill="none" d="M161.29,10.61 L 161.29 133.11"/>
      <path fill="none" d="M196.2,10.61 L 196.2 133.11"/>
    </g>
    <g class="plotpanel" id="img-61217438-9">
      <g stroke-width="0.3" fill="#000000" fill-opacity="0.000" class="geometry" stroke-dasharray="none" stroke="#3288BD" id="img-61217438-10">
        <path fill="none" d="M21.98,71.86 L 22.33 74.23 22.68 72.46 23.03 77.2 23.38 83.71 23.73 89.64 24.08 86.08 24.42 86.08 24.77 77.79 25.12 76.6 25.47 68.9 25.82 64.75 26.17 61.2 26.52 55.87 26.87 54.09 27.22 58.24 27.57 61.79 27.92 62.38 28.27 58.83 28.61 52.9 28.96 52.31 29.31 54.68 29.66 56.46 30.01 61.79 30.36 62.98 30.71 60.61 31.06 67.12 31.41 65.35 31.76 67.72 32.11 64.75 32.45 68.9 32.8 69.49 33.15 69.49 33.5 64.75 33.85 64.75 34.2 58.24 34.55 49.94 34.9 58.83 35.25 63.57 35.6 68.31 35.95 63.57 36.3 67.72 36.64 70.68 36.99 73.05 37.34 75.42 37.69 71.86 38.04 65.35 38.39 74.23 38.74 80.16 39.09 77.2 39.44 83.71 39.79 87.86 40.14 83.71 40.49 86.68 40.83 83.12 41.18 85.49 41.53 87.86 41.88 96.16 42.23 96.16 42.58 97.93 42.93 103.86 43.28 103.27 43.63 95.56 43.98 99.71 44.33 102.67 44.67 101.49 45.02 105.64 45.37 110.97 45.72 114.52 46.07 108.6 46.42 112.15 46.77 114.52 47.12 116.3 47.47 121.04 47.82 125.19 48.17 122.23 48.52 122.23 48.86 125.78 49.21 126.37 49.56 124 49.91 125.78 50.26 123.41 50.61 119.26 50.96 118.08 51.31 114.52 51.66 113.34 52.01 114.52 52.36 107.41 52.7 108.6 53.05 106.82 53.4 103.86 53.75 101.49 54.1 101.49 54.45 105.04 54.8 111.56 55.15 110.38 55.5 108.01 55.85 107.41 56.2 112.15 56.55 110.38 56.89 104.45 57.24 105.64 57.59 109.78 57.94 111.56 58.29 115.71 58.64 114.52 58.99 113.93 59.34 112.75 59.69 108.01 60.04 109.19 60.39 105.04 60.73 103.27 61.08 100.9 61.43 94.38 61.78 93.79 62.13 92.01 62.48 96.75 62.83 93.79 63.18 92.6 63.53 90.23 63.88 84.9 64.23 87.86 64.58 83.71 64.92 84.31 65.27 90.23 65.62 86.68 65.97 91.42 66.32 92.6 66.67 102.08 67.02 108.6 67.37 103.86 67.72 104.45 68.07 104.45 68.42 107.41 68.77 102.67 69.11 99.71 69.46 101.49 69.81 95.56 70.16 95.56 70.51 96.16 70.86 96.16 71.21 97.34 71.56 100.3 71.91 100.3 72.26 97.93 72.61 100.3 72.95 99.71 73.3 100.3 73.65 97.93 74 92.6 74.35 84.9 74.7 77.79 75.05 76.6 75.4 80.75 75.75 83.71 76.1 79.57 76.45 80.16 76.8 68.31 77.14 71.86 77.49 71.27 77.84 70.68 78.19 73.05 78.54 73.05 78.89 74.23 79.24 72.46 79.59 71.86 79.94 61.79 80.29 56.46 80.64 54.09 80.98 48.76 81.33 45.79 81.68 47.57 82.03 46.39 82.38 49.94 82.73 49.35 83.08 44.61 83.43 48.76 83.78 52.31 84.13 47.57 84.48 40.46 84.83 35.72 85.17 37.5 85.52 46.39 85.87 44.61 86.22 41.64 86.57 45.2 86.92 46.39 87.27 45.79 87.62 42.83 87.97 41.05 88.32 41.64 88.67 41.05 89.02 38.68 89.36 41.64 89.71 42.83 90.06 39.87 90.41 41.05 90.76 44.61 91.11 44.02 91.46 38.68 91.81 44.61 92.16 46.98 92.51 48.16 92.86 46.39 93.2 44.02 93.55 44.02 93.9 44.61 94.25 45.79 94.6 45.79 94.95 42.24 95.3 41.05 95.65 42.24 96 39.27 96.35 40.46 96.7 39.27 97.05 39.27 97.39 41.05 97.74 37.5 98.09 33.94 98.44 32.16 98.79 32.16 99.14 35.13 99.49 33.35 99.84 33.35 100.19 34.53 100.54 31.57 100.89 29.79 101.23 28.02 101.58 32.76 101.93 33.94 102.28 36.9 102.63 32.76 102.98 32.76 103.33 30.98 103.68 29.2 104.03 28.61 104.38 28.61 104.73 27.42 105.08 28.61 105.42 28.61 105.77 27.42 106.12 23.87 106.47 21.5 106.82 22.68 107.17 22.09 107.52 20.31 107.87 17.94 108.22 16.76 108.57 18.54 108.92 19.72 109.26 17.94 109.61 18.54 109.96 19.13 110.31 20.31 110.66 23.87 111.01 26.24 111.36 25.05 111.71 28.02 112.06 26.24 112.41 28.02 112.76 30.98 113.11 28.61 113.45 30.98 113.8 26.24 114.15 24.46 114.5 23.87 114.85 20.31 115.2 20.91 115.55 20.91 115.9 21.5 116.25 20.31 116.6 23.87 116.95 20.31 117.3 19.72 117.64 17.35 117.99 17.94 118.34 18.54 118.69 17.35 119.04 17.35 119.39 15.57 119.74 13.2 120.09 13.2 120.44 12.61"/>
      </g>
      <g stroke-width="0.3" fill="#000000" fill-opacity="0.000" class="geometry" stroke-dasharray="none" stroke="#66C2A5" id="img-61217438-11">
        <path fill="none" d="M21.98,71.86 L 22.33 77.2 22.68 81.34 23.03 74.83 23.38 76.6 23.73 77.79 24.08 81.94 24.42 84.31 24.77 89.05 25.12 78.38 25.47 73.05 25.82 73.05 26.17 74.83 26.52 67.12 26.87 70.68 27.22 76.01 27.57 77.79 27.92 84.31 28.27 90.23 28.61 92.01 28.96 85.49 29.31 83.71 29.66 87.86 30.01 90.23 30.36 93.19 30.71 90.23 31.06 93.19 31.41 96.75 31.76 99.71 32.11 105.64 32.45 113.34 32.8 115.12 33.15 116.89 33.5 112.75 33.85 113.93 34.2 113.34 34.55 112.75 34.9 108.6 35.25 108.6 35.6 112.15 35.95 112.15 36.3 106.23 36.64 109.19 36.99 101.49 37.34 102.08 37.69 97.34 38.04 94.38 38.39 95.56 38.74 96.16 39.09 94.38 39.44 92.01 39.79 96.16 40.14 90.82 40.49 86.68 40.83 83.71 41.18 89.64 41.53 92.6 41.88 91.42 42.23 92.6 42.58 88.45 42.93 80.75 43.28 77.2 43.63 68.31 43.98 68.31 44.33 59.42 44.67 60.61 45.02 59.42 45.37 61.79 45.72 61.79 46.07 64.75 46.42 61.79 46.77 62.98 47.12 61.2 47.47 67.72 47.82 70.09 48.17 69.49 48.52 64.75 48.86 66.53 49.21 60.61 49.56 60.01 49.91 65.35 50.26 64.16 50.61 65.94 50.96 66.53 51.31 65.35 51.66 62.98 52.01 67.72 52.36 70.09 52.7 78.38 53.05 78.38 53.4 82.53 53.75 77.79 54.1 71.27 54.45 68.9 54.8 65.35 55.15 69.49 55.5 71.27 55.85 71.86 56.2 68.9 56.55 68.9 56.89 74.83 57.24 68.31 57.59 72.46 57.94 78.38 58.29 71.27 58.64 71.27 58.99 66.53 59.34 69.49 59.69 70.09 60.04 73.05 60.39 69.49 60.73 69.49 61.08 71.27 61.43 71.27 61.78 73.05 62.13 76.01 62.48 71.27 62.83 76.6 63.18 82.53 63.53 76.01 63.88 76.01 64.23 66.53 64.58 60.61 64.92 61.79 65.27 59.42 65.62 61.79 65.97 58.83 66.32 62.98 66.67 57.05 67.02 65.94 67.37 71.86 67.72 67.72 68.07 72.46 68.42 74.23 68.77 72.46 69.11 76.01 69.46 71.86 69.81 71.86 70.16 74.83 70.51 70.68 70.86 60.61 71.21 61.2 71.56 59.42 71.91 64.16 72.26 60.01 72.61 64.75 72.95 68.9 73.3 68.31 73.65 68.9 74 65.35 74.35 60.61 74.7 61.79 75.05 58.83 75.4 56.46 75.75 54.68 76.1 60.01 76.45 50.53 76.8 45.79 77.14 44.02 77.49 38.09 77.84 32.16 78.19 32.16 78.54 30.39 78.89 27.42 79.24 27.42 79.59 27.42 79.94 26.83 80.29 27.42 80.64 26.83 80.98 26.83 81.33 32.76 81.68 35.72 82.03 34.53 82.38 32.16 82.73 29.2 83.08 29.2 83.43 31.57 83.78 35.13 84.13 37.5 84.48 38.09 84.83 37.5 85.17 41.05 85.52 44.02 85.87 44.61 86.22 43.42 86.57 41.05 86.92 41.64 87.27 40.46 87.62 38.68 87.97 41.05 88.32 42.83 88.67 48.76 89.02 52.31 89.36 48.76 89.71 45.79 90.06 45.79 90.41 44.61 90.76 48.76 91.11 45.79 91.46 47.57 91.81 44.02 92.16 44.02 92.51 42.24 92.86 38.68 93.2 36.9 93.55 37.5 93.9 36.9 94.25 39.87 94.6 41.05 94.95 44.02 95.3 49.35 95.65 51.72 96 49.94 96.35 49.94 96.7 48.16 97.05 49.94 97.39 51.13 97.74 46.39 98.09 46.39 98.44 44.02 98.79 45.79 99.14 41.64 99.49 41.05 99.84 42.24 100.19 43.42 100.54 47.57 100.89 39.87 101.23 41.64 101.58 39.87 101.93 39.87 102.28 36.31 102.63 40.46 102.98 46.39 103.33 46.98 103.68 52.31 104.03 57.64 104.38 50.53 104.73 51.72 105.08 51.13 105.42 53.5 105.77 57.64 106.12 58.83 106.47 54.09 106.82 54.68 107.17 54.68 107.52 55.27 107.87 60.61 108.22 64.16 108.57 62.98 108.92 57.64 109.26 56.46 109.61 55.87 109.96 54.09 110.31 60.01 110.66 55.27 111.01 53.5 111.36 55.87 111.71 55.27 112.06 51.13 112.41 54.09 112.76 54.09 113.11 46.39 113.45 45.2 113.8 45.79 114.15 44.61 114.5 50.53 114.85 51.72 115.2 46.98 115.55 44.61 115.9 35.13 116.25 33.94 116.6 36.31 116.95 37.5 117.3 37.5 117.64 35.72 117.99 34.53 118.34 28.02 118.69 20.91 119.04 23.28 119.39 19.72 119.74 19.13 120.09 19.13 120.44 17.35 120.79 15.57 121.14 14.39 121.48 14.98 121.83 13.8 122.18 13.8 122.53 13.8 122.88 13.8 123.23 14.98 123.58 14.98 123.93 14.39 124.28 13.2 124.63 12.61"/>
      </g>
      <g stroke-width="0.3" fill="#000000" fill-opacity="0.000" class="geometry" stroke-dasharray="none" stroke="#ABDDA4" id="img-61217438-12">
        <path fill="none" d="M21.98,71.86 L 22.33 68.9 22.68 70.68 23.03 76.6 23.38 78.97 23.73 77.2 24.08 71.86 24.42 74.83 24.77 84.9 25.12 81.34 25.47 83.71 25.82 81.94 26.17 80.16 26.52 77.79 26.87 78.38 27.22 77.2 27.57 73.64 27.92 68.31 28.27 70.68 28.61 71.86 28.96 69.49 29.31 74.83 29.66 72.46 30.01 72.46 30.36 76.01 30.71 73.05 31.06 69.49 31.41 66.53 31.76 71.27 32.11 78.97 32.45 70.68 32.8 67.72 33.15 70.68 33.5 62.38 33.85 64.16 34.2 64.75 34.55 68.31 34.9 70.68 35.25 72.46 35.6 67.72 35.95 67.12 36.3 67.12 36.64 73.05 36.99 66.53 37.34 65.35 37.69 62.38 38.04 66.53 38.39 66.53 38.74 61.79 39.09 61.2 39.44 63.57 39.79 64.75 40.14 64.75 40.49 65.35 40.83 65.94 41.18 66.53 41.53 65.94 41.88 64.16 42.23 64.16 42.58 63.57 42.93 60.61 43.28 60.61 43.63 60.01 43.98 65.35 44.33 61.2 44.67 60.01 45.02 62.38 45.37 58.24 45.72 52.9 46.07 43.42 46.42 45.79 46.77 49.35 47.12 41.64 47.47 43.42 47.82 36.9 48.17 41.64 48.52 45.79 48.86 42.24 49.21 41.64 49.56 38.68 49.91 41.05 50.26 45.79 50.61 42.24 50.96 42.83 51.31 42.24 51.66 45.79 52.01 38.68 52.36 32.76 52.7 32.16 53.05 32.16 53.4 29.2 53.75 25.05 54.1 22.68 54.45 19.72 54.8 18.54 55.15 19.13 55.5 14.39 55.85 13.2 56.2 13.2 56.55 12.61"/>
      </g>
      <g stroke-width="0.3" fill="#000000" fill-opacity="0.000" class="geometry" stroke-dasharray="none" stroke="#E6F598" id="img-61217438-13">
        <path fill="none" d="M21.98,71.86 L 22.33 73.05 22.68 67.72 23.03 61.2 23.38 61.2 23.73 58.83 24.08 67.72 24.42 70.09 24.77 67.12 25.12 70.09 25.47 66.53 25.82 62.38 26.17 64.75 26.52 69.49 26.87 67.72 27.22 68.31 27.57 60.01 27.92 64.75 28.27 57.64 28.61 63.57 28.96 60.01 29.31 60.01 29.66 54.09 30.01 51.72 30.36 49.94 30.71 49.94 31.06 48.16 31.41 49.35 31.76 46.39 32.11 48.76 32.45 43.42 32.8 36.9 33.15 41.05 33.5 41.05 33.85 41.05 34.2 44.02 34.55 45.2 34.9 40.46 35.25 44.61 35.6 38.68 35.95 41.64 36.3 42.24 36.64 42.24 36.99 38.09 37.34 39.27 37.69 43.42 38.04 39.27 38.39 39.87 38.74 45.79 39.09 45.79 39.44 43.42 39.79 42.83 40.14 49.94 40.49 44.02 40.83 39.87 41.18 40.46 41.53 45.2 41.88 39.87 42.23 42.83 42.58 38.09 42.93 39.27 43.28 43.42 43.63 42.83 43.98 40.46 44.33 39.27 44.67 43.42 45.02 47.57 45.37 51.13 45.72 57.05 46.07 65.94 46.42 62.98 46.77 65.94 47.12 57.05 47.47 56.46 47.82 49.35 48.17 48.16 48.52 45.79 48.86 42.83 49.21 45.79 49.56 44.61 49.91 46.39 50.26 45.79 50.61 46.39 50.96 44.02 51.31 49.94 51.66 49.94 52.01 49.94 52.36 42.83 52.7 45.2 53.05 46.39 53.4 44.02 53.75 47.57 54.1 47.57 54.45 48.16 54.8 43.42 55.15 36.9 55.5 40.46 55.85 39.87 56.2 35.13 56.55 40.46 56.89 37.5 57.24 35.13 57.59 38.09 57.94 38.09 58.29 40.46 58.64 41.05 58.99 45.2 59.34 40.46 59.69 42.83 60.04 41.05 60.39 33.94 60.73 35.13 61.08 36.9 61.43 38.68 61.78 46.39 62.13 48.76 62.48 50.53 62.83 54.09 63.18 58.24 63.53 57.64 63.88 54.68 64.23 58.83 64.58 57.05 64.92 62.38 65.27 60.01 65.62 57.64 65.97 56.46 66.32 56.46 66.67 55.27 67.02 50.53 67.37 48.16 67.72 54.09 68.07 52.31 68.42 49.35 68.77 48.76 69.11 44.61 69.46 38.09 69.81 40.46 70.16 33.94 70.51 30.98 70.86 28.61 71.21 32.76 71.56 35.72 71.91 38.09 72.26 35.13 72.61 30.98 72.95 29.2 73.3 29.79 73.65 28.02 74 32.16 74.35 32.16 74.7 32.16 75.05 34.53 75.4 28.61 75.75 28.61 76.1 27.42 76.45 24.46 76.8 24.46 77.14 21.5 77.49 19.72 77.84 19.72 78.19 19.72 78.54 20.91 78.89 20.31 79.24 20.91 79.59 19.13 79.94 18.54 80.29 19.13 80.64 20.31 80.98 18.54 81.33 19.72 81.68 19.72 82.03 23.87 82.38 20.31 82.73 21.5 83.08 20.31 83.43 22.09 83.78 23.28 84.13 24.46 84.48 20.91 84.83 24.46 85.17 26.83 85.52 27.42 85.87 23.28 86.22 24.46 86.57 25.65 86.92 26.83 87.27 24.46 87.62 25.05 87.97 24.46 88.32 22.68 88.67 22.09 89.02 19.13 89.36 16.17 89.71 14.39 90.06 13.2 90.41 13.2 90.76 12.61"/>
      </g>
      <g stroke-width="0.3" fill="#000000" fill-opacity="0.000" class="geometry" stroke-dasharray="none" stroke="#FFFFBF" id="img-61217438-14">
        <path fill="none" d="M21.98,71.86 L 22.33 73.05 22.68 72.46 23.03 71.86 23.38 66.53 23.73 67.12 24.08 70.09 24.42 62.38 24.77 56.46 25.12 57.05 25.47 56.46 25.82 54.09 26.17 57.05 26.52 51.72 26.87 52.9 27.22 50.53 27.57 58.24 27.92 60.01 28.27 57.64 28.61 57.05 28.96 54.09 29.31 56.46 29.66 52.31 30.01 51.13 30.36 49.35 30.71 51.72 31.06 55.27 31.41 50.53 31.76 52.31 32.11 49.94 32.45 49.35 32.8 52.9 33.15 55.27 33.5 49.94 33.85 50.53 34.2 55.27 34.55 54.68 34.9 51.72 35.25 48.76 35.6 42.24 35.95 33.94 36.3 31.57 36.64 36.9 36.99 36.31 37.34 28.02 37.69 32.76 38.04 32.16 38.39 31.57 38.74 30.39 39.09 32.16 39.44 38.68 39.79 36.9 40.14 33.35 40.49 36.31 40.83 30.98 41.18 22.68 41.53 28.02 41.88 29.2 42.23 29.79 42.58 29.2 42.93 30.39 43.28 28.61 43.63 30.98 43.98 28.02 44.33 27.42 44.67 23.87 45.02 21.5 45.37 22.09 45.72 18.54 46.07 22.68 46.42 25.65 46.77 26.24 47.12 30.39 47.47 30.39 47.82 31.57 48.17 30.98 48.52 33.94 48.86 39.27 49.21 38.09 49.56 42.24 49.91 46.98 50.26 47.57 50.61 46.39 50.96 45.2 51.31 47.57 51.66 55.27 52.01 61.2 52.36 65.94 52.7 65.35 53.05 58.24 53.4 50.53 53.75 43.42 54.1 43.42 54.45 41.05 54.8 36.31 55.15 31.57 55.5 32.76 55.85 28.02 56.2 29.2 56.55 32.16 56.89 36.9 57.24 38.68 57.59 42.24 57.94 39.27 58.29 36.9 58.64 29.79 58.99 29.2 59.34 26.83 59.69 26.83 60.04 26.83 60.39 26.83 60.73 25.05 61.08 24.46 61.43 23.87 61.78 25.05 62.13 23.28 62.48 22.09 62.83 26.24 63.18 29.2 63.53 28.02 63.88 31.57 64.23 30.39 64.58 33.94 64.92 30.39 65.27 27.42 65.62 26.24 65.97 28.61 66.32 31.57 66.67 33.35 67.02 38.09 67.37 38.09 67.72 44.61 68.07 43.42 68.42 45.79 68.77 51.72 69.11 52.31 69.46 52.9 69.81 54.68 70.16 55.27 70.51 59.42 70.86 57.64 71.21 61.2 71.56 61.79 71.91 71.27 72.26 66.53 72.61 61.2 72.95 62.98 73.3 58.83 73.65 59.42 74 54.09 74.35 48.16 74.7 52.31 75.05 51.72 75.4 46.98 75.75 50.53 76.1 46.39 76.45 46.39 76.8 41.64 77.14 42.83 77.49 44.61 77.84 46.98 78.19 51.72 78.54 47.57 78.89 48.16 79.24 54.09 79.59 60.61 79.94 63.57 80.29 64.16 80.64 67.12 80.98 76.6 81.33 81.34 81.68 77.79 82.03 78.97 82.38 84.31 82.73 82.53 83.08 83.71 83.43 81.94 83.78 77.2 84.13 77.2 84.48 78.38 84.83 70.09 85.17 72.46 85.52 72.46 85.87 74.23 86.22 70.68 86.57 70.68 86.92 70.09 87.27 58.83 87.62 54.68 87.97 60.61 88.32 61.79 88.67 62.98 89.02 62.38 89.36 61.2 89.71 66.53 90.06 74.23 90.41 74.23 90.76 70.68 91.11 76.01 91.46 76.01 91.81 81.34 92.16 85.49 92.51 86.68 92.86 79.57 93.2 78.38 93.55 77.79 93.9 82.53 94.25 80.16 94.6 80.16 94.95 84.9 95.3 87.27 95.65 87.86 96 90.23 96.35 94.38 96.7 91.42 97.05 92.6 97.39 92.6 97.74 94.97 98.09 97.34 98.44 93.19 98.79 95.56 99.14 90.82 99.49 95.56 99.84 97.34 100.19 103.86 100.54 101.49 100.89 102.08 101.23 104.45 101.58 100.9 101.93 104.45 102.28 112.15 102.63 116.89 102.98 114.52 103.33 115.12 103.68 120.45 104.03 119.26 104.38 119.26 104.73 120.45 105.08 119.26 105.42 122.23 105.77 121.04 106.12 121.63 106.47 119.26 106.82 118.67 107.17 116.3 107.52 118.08 107.87 119.26 108.22 116.89 108.57 112.75 108.92 116.3 109.26 118.08 109.61 118.67 109.96 119.26 110.31 122.23 110.66 124.6 111.01 124.6 111.36 123.41 111.71 121.63 112.06 120.45 112.41 121.63 112.76 123.41 113.11 126.97 113.45 127.56 113.8 128.15 114.15 126.97 114.5 125.19 114.85 125.19 115.2 128.15 115.55 128.15 115.9 129.93 116.25 131.11"/>
      </g>
      <g stroke-width="0.3" fill="#000000" fill-opacity="0.000" class="geometry" stroke-dasharray="none" stroke="#FEE08B" id="img-61217438-15">
        <path fill="none" d="M21.98,71.86 L 22.33 70.09 22.68 72.46 23.03 73.05 23.38 68.31 23.73 71.86 24.08 64.75 24.42 68.9 24.77 66.53 25.12 67.12 25.47 62.98 25.82 61.2 26.17 60.61 26.52 65.94 26.87 64.75 27.22 57.64 27.57 60.61 27.92 62.98 28.27 68.31 28.61 68.9 28.96 64.16 29.31 57.05 29.66 60.61 30.01 57.05 30.36 57.64 30.71 57.64 31.06 62.38 31.41 73.05 31.76 71.86 32.11 78.38 32.45 72.46 32.8 75.42 33.15 77.79 33.5 73.64 33.85 68.31 34.2 62.38 34.55 56.46 34.9 51.72 35.25 58.83 35.6 60.61 35.95 53.5 36.3 52.31 36.64 54.09 36.99 50.53 37.34 51.13 37.69 47.57 38.04 45.79 38.39 45.2 38.74 42.83 39.09 42.24 39.44 41.64 39.79 35.13 40.14 35.13 40.49 37.5 40.83 39.27 41.18 44.02 41.53 46.98 41.88 48.16 42.23 45.2 42.58 45.79 42.93 44.02 43.28 41.64 43.63 39.87 43.98 40.46 44.33 39.87 44.67 38.09 45.02 37.5 45.37 30.98 45.72 28.61 46.07 25.05 46.42 24.46 46.77 22.68 47.12 22.68 47.47 22.09 47.82 19.72 48.17 20.91 48.52 19.13 48.86 22.09 49.21 23.28 49.56 19.72 49.91 17.35 50.26 17.35 50.61 17.94 50.96 18.54 51.31 20.31 51.66 17.94 52.01 17.35 52.36 16.76 52.7 15.57 53.05 14.39 53.4 14.98 53.75 17.35 54.1 17.94 54.45 15.57 54.8 17.35 55.15 15.57 55.5 14.39 55.85 13.2 56.2 13.8 56.55 15.57 56.89 15.57 57.24 15.57 57.59 16.17 57.94 16.17 58.29 18.54 58.64 16.17 58.99 14.98 59.34 14.98 59.69 14.98 60.04 16.17 60.39 13.2 60.73 12.61"/>
      </g>
      <g stroke-width="0.3" fill="#000000" fill-opacity="0.000" class="geometry" stroke-dasharray="none" stroke="#FDAE61" id="img-61217438-16">
        <path fill="none" d="M21.98,71.86 L 22.33 71.27 22.68 76.01 23.03 76.6 23.38 73.05 23.73 68.9 24.08 60.61 24.42 61.79 24.77 65.94 25.12 71.86 25.47 70.68 25.82 65.35 26.17 59.42 26.52 61.2 26.87 57.05 27.22 61.79 27.57 62.98 27.92 61.2 28.27 61.2 28.61 55.87 28.96 61.2 29.31 65.35 29.66 65.94 30.01 61.2 30.36 57.05 30.71 63.57 31.06 61.2 31.41 52.31 31.76 51.72 32.11 48.16 32.45 49.94 32.8 51.72 33.15 60.61 33.5 58.83 33.85 64.16 34.2 62.38 34.55 60.61 34.9 67.12 35.25 62.98 35.6 73.05 35.95 70.68 36.3 64.75 36.64 70.68 36.99 75.42 37.34 78.97 37.69 76.6 38.04 76.6 38.39 78.97 38.74 77.79 39.09 79.57 39.44 73.64 39.79 62.98 40.14 66.53 40.49 65.35 40.83 69.49 41.18 71.27 41.53 79.57 41.88 80.16 42.23 84.9 42.58 84.31 42.93 91.42 43.28 93.79 43.63 93.79 43.98 96.16 44.33 97.93 44.67 96.16 45.02 97.34 45.37 96.16 45.72 94.97 46.07 94.97 46.42 100.3 46.77 102.08 47.12 102.67 47.47 96.16 47.82 94.38 48.17 96.16 48.52 102.08 48.86 102.08 49.21 102.67 49.56 102.08 49.91 100.3 50.26 104.45 50.61 103.86 50.96 111.56 51.31 113.93 51.66 114.52 52.01 110.97 52.36 114.52 52.7 113.34 53.05 104.45 53.4 102.67 53.75 96.75 54.1 99.71 54.45 94.38 54.8 102.67 55.15 107.41 55.5 111.56 55.85 115.12 56.2 110.97 56.55 108.01 56.89 107.41 57.24 100.3 57.59 106.23 57.94 106.23 58.29 109.19 58.64 109.19 58.99 109.19 59.34 112.75 59.69 114.52 60.04 119.86 60.39 116.89 60.73 119.86 61.08 118.67 61.43 118.67 61.78 123.41 62.13 128.15 62.48 128.74 62.83 129.34 63.18 129.93 63.53 129.93 63.88 128.74 64.23 128.15 64.58 128.15 64.92 129.93 65.27 129.93 65.62 129.34 65.97 128.74 66.32 129.93 66.67 130.52 67.02 129.93 67.37 129.93 67.72 130.52 68.07 129.93 68.42 131.11"/>
      </g>
      <g stroke-width="0.3" fill="#000000" fill-opacity="0.000" class="geometry" stroke-dasharray="none" stroke="#F46D43" id="img-61217438-17">
        <path fill="none" d="M21.98,71.86 L 22.33 65.94 22.68 57.64 23.03 60.01 23.38 64.75 23.73 68.31 24.08 62.98 24.42 64.16 24.77 61.2 25.12 61.79 25.47 64.75 25.82 68.9 26.17 65.94 26.52 65.94 26.87 65.94 27.22 60.01 27.57 60.01 27.92 62.38 28.27 64.16 28.61 67.12 28.96 71.27 29.31 68.9 29.66 62.98 30.01 70.09 30.36 71.27 30.71 71.86 31.06 70.09 31.41 73.05 31.76 70.09 32.11 77.2 32.45 80.75 32.8 78.97 33.15 81.94 33.5 87.27 33.85 81.34 34.2 76.6 34.55 80.16 34.9 77.2 35.25 70.09 35.6 72.46 35.95 81.94 36.3 82.53 36.64 85.49 36.99 83.12 37.34 77.2 37.69 77.2 38.04 77.2 38.39 84.31 38.74 88.45 39.09 88.45 39.44 87.86 39.79 89.05 40.14 87.27 40.49 90.82 40.83 93.79 41.18 92.01 41.53 84.31 41.88 83.71 42.23 86.08 42.58 87.86 42.93 83.71 43.28 88.45 43.63 89.64 43.98 90.23 44.33 90.23 44.67 94.97 45.02 95.56 45.37 94.38 45.72 98.53 46.07 100.3 46.42 100.9 46.77 100.3 47.12 98.53 47.47 104.45 47.82 108.01 48.17 109.19 48.52 109.78 48.86 108.01 49.21 105.04 49.56 99.12 49.91 100.3 50.26 89.64 50.61 83.71 50.96 83.71 51.31 74.83 51.66 71.27 52.01 70.68 52.36 65.94 52.7 65.35 53.05 57.64 53.4 57.05 53.75 55.27 54.1 56.46 54.45 54.09 54.8 56.46 55.15 64.16 55.5 65.94 55.85 66.53 56.2 64.16 56.55 67.72 56.89 65.35 57.24 65.94 57.59 65.94 57.94 64.16 58.29 64.16 58.64 64.75 58.99 62.38 59.34 56.46 59.69 65.94 60.04 65.94 60.39 67.12 60.73 68.9 61.08 66.53 61.43 58.24 61.78 54.68 62.13 59.42 62.48 51.72 62.83 51.72 63.18 58.24 63.53 62.98 63.88 58.83 64.23 61.2 64.58 62.38 64.92 53.5 65.27 51.13 65.62 56.46 65.97 60.61 66.32 58.24 66.67 60.01 67.02 67.72 67.37 61.79 67.72 58.83 68.07 62.98 68.42 66.53 68.77 61.2 69.11 62.98 69.46 69.49 69.81 74.23 70.16 73.64 70.51 70.68 70.86 73.64 71.21 74.23 71.56 70.68 71.91 77.2 72.26 71.27 72.61 67.12 72.95 67.12 73.3 71.27 73.65 70.09 74 67.72 74.35 69.49 74.7 74.23 75.05 68.31 75.4 62.98 75.75 67.72 76.1 68.9 76.45 76.01 76.8 78.97 77.14 76.6 77.49 78.97 77.84 76.01 78.19 78.38 78.54 76.01 78.89 77.2 79.24 83.12 79.59 75.42 79.94 71.27 80.29 74.83 80.64 80.16 80.98 82.53 81.33 79.57 81.68 77.79 82.03 77.79 82.38 78.38 82.73 66.53 83.08 64.75 83.43 67.12 83.78 71.86 84.13 70.09 84.48 75.42 84.83 67.72 85.17 64.75 85.52 64.75 85.87 64.16 86.22 66.53 86.57 61.79 86.92 58.24 87.27 54.68 87.62 58.24 87.97 57.64 88.32 54.09 88.67 57.64 89.02 61.2 89.36 55.27 89.71 51.72 90.06 51.72 90.41 48.76 90.76 48.16 91.11 45.79 91.46 48.16 91.81 51.72 92.16 50.53 92.51 43.42 92.86 52.9 93.2 56.46 93.55 46.98 93.9 48.76 94.25 47.57 94.6 41.64 94.95 42.24 95.3 38.09 95.65 41.05 96 45.79 96.35 51.72 96.7 51.72 97.05 55.27 97.39 52.9 97.74 54.09 98.09 47.57 98.44 48.16 98.79 54.09 99.14 58.24 99.49 51.72 99.84 51.13 100.19 54.09 100.54 55.87 100.89 54.09 101.23 55.87 101.58 57.05 101.93 52.9 102.28 54.09 102.63 58.24 102.98 62.98 103.33 60.01 103.68 60.61 104.03 59.42 104.38 60.61 104.73 62.98 105.08 71.27 105.42 69.49 105.77 64.16 106.12 60.01 106.47 53.5 106.82 53.5 107.17 53.5 107.52 57.05 107.87 57.64 108.22 58.83 108.57 56.46 108.92 55.27 109.26 63.57 109.61 61.2 109.96 60.61 110.31 61.79 110.66 61.2 111.01 65.94 111.36 68.31 111.71 65.94 112.06 61.79 112.41 64.75 112.76 63.57 113.11 58.83 113.45 60.01 113.8 64.16 114.15 71.86 114.5 71.27 114.85 75.42 115.2 76.6 115.55 79.57 115.9 84.31 116.25 91.42 116.6 95.56 116.95 100.9 117.3 104.45 117.64 103.27 117.99 94.97 118.34 101.49 118.69 103.86 119.04 100.3 119.39 106.23 119.74 106.82 120.09 103.27 120.44 110.38 120.79 105.64 121.14 100.3 121.48 102.08 121.83 100.9 122.18 100.3 122.53 100.9 122.88 98.53 123.23 98.53 123.58 100.9 123.93 105.04 124.28 106.23 124.63 111.56 124.98 110.97 125.33 114.52 125.67 110.38 126.02 105.64 126.37 107.41 126.72 106.82 127.07 103.27 127.42 103.27 127.77 102.08 128.12 105.64 128.47 108.01 128.82 108.01 129.17 105.64 129.51 102.67 129.86 103.27 130.21 96.75 130.56 100.9 130.91 97.34 131.26 91.42 131.61 85.49 131.96 79.57 132.31 80.16 132.66 79.57 133.01 78.97 133.36 75.42 133.7 70.09 134.05 71.86 134.4 65.94 134.75 65.35 135.1 67.12 135.45 72.46 135.8 75.42 136.15 75.42 136.5 69.49 136.85 76.6 137.2 79.57 137.55 80.16 137.89 78.97 138.24 78.38 138.59 72.46 138.94 68.31 139.29 65.35 139.64 65.35 139.99 64.16 140.34 65.35 140.69 62.38 141.04 70.09 141.39 76.01 141.73 71.27 142.08 69.49 142.43 71.86 142.78 62.98 143.13 68.31 143.48 66.53 143.83 64.16 144.18 66.53 144.53 64.75 144.88 64.16 145.23 62.98 145.58 58.24 145.92 52.31 146.27 55.87 146.62 53.5 146.97 50.53 147.32 50.53 147.67 52.9 148.02 52.9 148.37 58.83 148.72 60.61 149.07 58.83 149.42 60.01 149.76 61.79 150.11 62.98 150.46 65.35 150.81 56.46 151.16 60.61 151.51 65.35 151.86 60.61 152.21 60.01 152.56 67.12 152.91 61.2 153.26 61.2 153.61 61.79 153.95 55.87 154.3 56.46 154.65 55.87 155 46.98 155.35 48.76 155.7 44.02 156.05 45.79 156.4 45.79 156.75 44.02 157.1 51.72 157.45 44.02 157.79 46.98 158.14 42.83 158.49 41.05 158.84 37.5 159.19 38.68 159.54 33.94 159.89 34.53 160.24 31.57 160.59 35.13 160.94 38.09 161.29 44.02 161.64 45.2 161.98 42.24 162.33 42.24 162.68 36.31 163.03 36.31 163.38 35.72 163.73 39.27 164.08 40.46 164.43 46.98 164.78 42.83 165.13 37.5 165.48 39.87 165.83 41.64 166.17 46.39 166.52 44.02 166.87 39.87 167.22 42.24 167.57 34.53 167.92 33.35 168.27 36.31 168.62 36.31 168.97 36.31 169.32 34.53 169.67 33.94 170.01 35.13 170.36 36.9 170.71 40.46 171.06 38.09 171.41 38.09 171.76 40.46 172.11 42.24 172.46 42.24 172.81 32.16 173.16 29.79 173.51 27.42 173.86 25.05 174.2 22.68 174.55 17.35 174.9 20.31 175.25 20.31 175.6 20.91 175.95 24.46 176.3 24.46 176.65 22.68 177 26.83 177.35 26.83 177.7 28.02 178.04 31.57 178.39 29.2 178.74 28.02 179.09 32.76 179.44 32.76 179.79 30.98 180.14 30.98 180.49 35.72 180.84 35.72 181.19 37.5 181.54 32.76 181.89 29.2 182.23 29.2 182.58 29.79 182.93 33.94 183.28 30.98 183.63 30.39 183.98 30.39 184.33 29.79 184.68 28.61 185.03 29.79 185.38 28.02 185.73 32.16 186.08 33.35 186.42 31.57 186.77 28.02 187.12 26.83 187.47 25.65 187.82 23.28 188.17 19.72 188.52 20.31 188.87 21.5 189.22 18.54 189.57 18.54 189.92 19.13 190.26 20.91 190.61 19.72 190.96 20.31 191.31 20.31 191.66 20.31 192.01 22.09 192.36 21.5 192.71 20.91 193.06 21.5 193.41 20.91 193.76 21.5 194.11 22.09 194.45 18.54 194.8 17.35 195.15 17.94 195.5 14.39 195.85 13.8 196.2 13.8"/>
      </g>
      <g stroke-width="0.3" fill="#000000" fill-opacity="0.000" class="geometry" stroke-dasharray="none" stroke="#D53E4F" id="img-61217438-18">
        <path fill="none" d="M21.98,71.86 L 22.33 78.38 22.68 74.83 23.03 76.01 23.38 76.01 23.73 74.23 24.08 78.97 24.42 81.34 24.77 78.97 25.12 81.94 25.47 82.53 25.82 81.94 26.17 81.34 26.52 74.83 26.87 77.2 27.22 80.75 27.57 84.9 27.92 83.71 28.27 83.12 28.61 86.08 28.96 90.82 29.31 88.45 29.66 87.86 30.01 84.9 30.36 89.64 30.71 87.86 31.06 88.45 31.41 89.64 31.76 88.45 32.11 87.86 32.45 93.79 32.8 89.05 33.15 89.64 33.5 92.01 33.85 100.3 34.2 95.56 34.55 94.97 34.9 97.93 35.25 94.38 35.6 93.79 35.95 95.56 36.3 96.75 36.64 100.9 36.99 98.53 37.34 100.9 37.69 94.97 38.04 95.56 38.39 90.82 38.74 92.6 39.09 97.93 39.44 100.9 39.79 99.12 40.14 104.45 40.49 105.04 40.83 100.3 41.18 104.45 41.53 102.08 41.88 103.86 42.23 100.9 42.58 94.38 42.93 93.19 43.28 88.45 43.63 88.45 43.98 84.31 44.33 83.71 44.67 88.45 45.02 93.79 45.37 103.27 45.72 103.86 46.07 96.16 46.42 103.86 46.77 108.6 47.12 108.01 47.47 110.97 47.82 113.93 48.17 113.34 48.52 113.34 48.86 113.34 49.21 113.93 49.56 116.89 49.91 121.63 50.26 120.45 50.61 122.23 50.96 125.78 51.31 125.19 51.66 128.74 52.01 129.93 52.36 129.93 52.7 130.52 53.05 130.52 53.4 130.52 53.75 131.11"/>
      </g>
      <g stroke-width="0.3" fill="#000000" fill-opacity="0.000" class="geometry" stroke-dasharray="none" stroke="#9E0142" id="img-61217438-19">
        <path fill="none" d="M21.98,71.86 L 22.33 65.94 22.68 62.98 23.03 57.64 23.38 59.42 23.73 65.94 24.08 58.83 24.42 63.57 24.77 68.9 25.12 58.83 25.47 57.64 25.82 52.9 26.17 57.05 26.52 60.01 26.87 55.87 27.22 58.24 27.57 54.68 27.92 51.13 28.27 48.16 28.61 48.16 28.96 54.09 29.31 58.83 29.66 61.2 30.01 63.57 30.36 62.98 30.71 68.31 31.06 67.12 31.41 76.6 31.76 68.9 32.11 68.31 32.45 74.23 32.8 70.68 33.15 73.05 33.5 75.42 33.85 77.2 34.2 78.97 34.55 77.79 34.9 74.23 35.25 75.42 35.6 67.72 35.95 63.57 36.3 68.9 36.64 71.27 36.99 71.86 37.34 74.83 37.69 75.42 38.04 73.64 38.39 74.23 38.74 68.9 39.09 76.01 39.44 77.79 39.79 80.16 40.14 81.94 40.49 80.75 40.83 75.42 41.18 78.38 41.53 76.6 41.88 71.86 42.23 74.23 42.58 70.68 42.93 78.38 43.28 79.57 43.63 85.49 43.98 87.27 44.33 80.75 44.67 83.71 45.02 94.38 45.37 89.05 45.72 80.16 46.07 88.45 46.42 87.86 46.77 93.79 47.12 92.6 47.47 84.9 47.82 77.79 48.17 72.46 48.52 71.27 48.86 75.42 49.21 74.83 49.56 81.34 49.91 78.97 50.26 78.38 50.61 83.12 50.96 84.9 51.31 81.94 51.66 79.57 52.01 78.97 52.36 78.97 52.7 78.38 53.05 74.23 53.4 82.53 53.75 86.08 54.1 81.34 54.45 83.71 54.8 89.05 55.15 86.68 55.5 83.71 55.85 79.57 56.2 74.83 56.55 77.2 56.89 80.75 57.24 86.68 57.59 87.27 57.94 92.01 58.29 89.05 58.64 84.9 58.99 85.49 59.34 84.31 59.69 73.05 60.04 74.23 60.39 74.23 60.73 69.49 61.08 71.27 61.43 72.46 61.78 74.23 62.13 78.38 62.48 77.79 62.83 73.64 63.18 70.09 63.53 73.05 63.88 70.09 64.23 68.31 64.58 71.86 64.92 73.64 65.27 76.6 65.62 76.6 65.97 85.49 66.32 85.49 66.67 88.45 67.02 83.12 67.37 80.16 67.72 78.97 68.07 80.16 68.42 84.9 68.77 86.68 69.11 92.01 69.46 97.93 69.81 97.93 70.16 99.71 70.51 94.97 70.86 93.19 71.21 94.38 71.56 98.53 71.91 96.75 72.26 92.6 72.61 86.08 72.95 83.12 73.3 84.31 73.65 77.2 74 83.12 74.35 85.49 74.7 87.86 75.05 90.82 75.4 93.19 75.75 96.16 76.1 99.71 76.45 95.56 76.8 103.27 77.14 107.41 77.49 104.45 77.84 103.27 78.19 95.56 78.54 96.16 78.89 96.75 79.24 94.38 79.59 94.97 79.94 94.38 80.29 100.3 80.64 100.9 80.98 96.75 81.33 98.53 81.68 93.19 82.03 99.12 82.38 93.79 82.73 90.82 83.08 92.01 83.43 84.9 83.78 80.75 84.13 78.38 84.48 80.16 84.83 89.64 85.17 82.53 85.52 85.49 85.87 85.49 86.22 76.01 86.57 77.2 86.92 78.38 87.27 74.83 87.62 74.23 87.97 72.46 88.32 76.6 88.67 72.46 89.02 66.53 89.36 68.9 89.71 71.27 90.06 67.12 90.41 77.2 90.76 79.57 91.11 78.97 91.46 82.53 91.81 91.42 92.16 89.05 92.51 92.01 92.86 90.82 93.2 85.49 93.55 92.01 93.9 92.01 94.25 88.45 94.6 85.49 94.95 92.6 95.3 86.08 95.65 89.05 96 90.82 96.35 86.68 96.7 85.49 97.05 93.79 97.39 89.64 97.74 88.45 98.09 91.42 98.44 87.86 98.79 83.12 99.14 84.9 99.49 87.27 99.84 86.68 100.19 80.16 100.54 71.86 100.89 72.46 101.23 70.68 101.58 72.46 101.93 68.9 102.28 58.24 102.63 54.68 102.98 52.9 103.33 54.68 103.68 52.31 104.03 49.94 104.38 49.94 104.73 54.09 105.08 61.79 105.42 65.94 105.77 77.2 106.12 77.79 106.47 78.97 106.82 80.16 107.17 78.38 107.52 76.6 107.87 81.94 108.22 81.34 108.57 77.79 108.92 79.57 109.26 77.2 109.61 77.2 109.96 69.49 110.31 71.27 110.66 83.12 111.01 80.75 111.36 81.34 111.71 96.16 112.06 99.12 112.41 93.79 112.76 93.19 113.11 97.34 113.45 103.27 113.8 99.12 114.15 99.12 114.5 99.12 114.85 98.53 115.2 94.97 115.55 90.82 115.9 88.45 116.25 84.31 116.6 84.31 116.95 81.94 117.3 89.05 117.64 83.71 117.99 90.23 118.34 92.6 118.69 91.42 119.04 98.53 119.39 92.6 119.74 92.01 120.09 91.42 120.44 91.42 120.79 96.16 121.14 105.04 121.48 102.08 121.83 106.23 122.18 108.01 122.53 111.56 122.88 108.6 123.23 105.64 123.58 112.75 123.93 113.34 124.28 111.56 124.63 111.56 124.98 110.38 125.33 110.38 125.67 110.97 126.02 112.15 126.37 112.75 126.72 109.19 127.07 112.75 127.42 112.15 127.77 108.01 128.12 105.04 128.47 102.67 128.82 103.27 129.17 101.49 129.51 101.49 129.86 100.3 130.21 101.49 130.56 91.42 130.91 91.42 131.26 92.6 131.61 94.38 131.96 95.56 132.31 93.19 132.66 96.16 133.01 93.79 133.36 95.56 133.7 97.34 134.05 100.9 134.4 102.08 134.75 108.01 135.1 107.41 135.45 110.38 135.8 109.19 136.15 113.93 136.5 113.34 136.85 116.3 137.2 115.71 137.55 121.04 137.89 118.08 138.24 117.49 138.59 113.93 138.94 110.38 139.29 107.41 139.64 106.23 139.99 105.04 140.34 99.12 140.69 102.08 141.04 100.9 141.39 99.71 141.73 90.82 142.08 87.86 142.43 93.79 142.78 86.68 143.13 85.49 143.48 89.05 143.83 87.86 144.18 84.9 144.53 90.23 144.88 90.23 145.23 94.97 145.58 95.56 145.92 96.75 146.27 91.42 146.62 96.16 146.97 97.34 147.32 98.53 147.67 100.3 148.02 95.56 148.37 90.82 148.72 90.82 149.07 92.01 149.42 89.05 149.76 90.23 150.11 94.97 150.46 93.19 150.81 89.64 151.16 85.49 151.51 80.16 151.86 85.49 152.21 81.94 152.56 82.53 152.91 79.57 153.26 78.97 153.61 77.79 153.95 81.34 154.3 88.45 154.65 77.2 155 76.6 155.35 77.2 155.7 75.42 156.05 77.2 156.4 75.42 156.75 77.79 157.1 76.01 157.45 76.01 157.79 83.12 158.14 77.79 158.49 73.64 158.84 73.05 159.19 73.64 159.54 75.42 159.89 74.23 160.24 77.79 160.59 77.2 160.94 78.38 161.29 76.6 161.64 77.2 161.98 79.57 162.33 76.01 162.68 74.23 163.03 70.68 163.38 69.49 163.73 62.38 164.08 70.68 164.43 77.2 164.78 68.31 165.13 66.53 165.48 70.68 165.83 77.2 166.17 70.09 166.52 64.16 166.87 64.75 167.22 61.2 167.57 61.79 167.92 58.83 168.27 60.01 168.62 55.27 168.97 52.31 169.32 49.94 169.67 54.09 170.01 54.09 170.36 52.31 170.71 48.16 171.06 42.24 171.41 42.83 171.76 44.02 172.11 41.64 172.46 38.68 172.81 39.27 173.16 38.68 173.51 39.27 173.86 44.02 174.2 37.5 174.55 37.5 174.9 38.68 175.25 35.13 175.6 32.16 175.95 37.5 176.3 35.72 176.65 32.76 177 26.83 177.35 28.02 177.7 25.05 178.04 25.05 178.39 25.65 178.74 23.87 179.09 24.46 179.44 20.91 179.79 20.31 180.14 19.72 180.49 17.35 180.84 18.54 181.19 18.54 181.54 23.87 181.89 25.65 182.23 25.65 182.58 25.65 182.93 30.39 183.28 33.35 183.63 39.27 183.98 34.53 184.33 38.68 184.68 36.31 185.03 34.53 185.38 33.35 185.73 38.09 186.08 40.46 186.42 44.61 186.77 46.98 187.12 45.79 187.47 39.27 187.82 33.94 188.17 37.5 188.52 37.5 188.87 39.27 189.22 36.9 189.57 42.83 189.92 47.57 190.26 49.94 190.61 50.53 190.96 46.39 191.31 50.53 191.66 48.76 192.01 50.53 192.36 52.9 192.71 45.79 193.06 40.46 193.41 46.39 193.76 48.16 194.11 52.31 194.45 55.87 194.8 55.87 195.15 53.5 195.5 50.53 195.85 51.13 196.2 48.76"/>
      </g>
    </g>
  </g>
</g>
  <g class="guide ylabels" font-size="2.82" font-family="'PT Sans Caption','Helvetica Neue','Helvetica',sans-serif" fill="#000000" id="img-61217438-20">
    <text x="18.63" y="131.11" text-anchor="end" dy="0.35em">0</text>
    <text x="18.63" y="101.49" text-anchor="end" dy="0.35em">50</text>
    <text x="18.63" y="71.86" text-anchor="end" dy="0.35em">100</text>
    <text x="18.63" y="42.24" text-anchor="end" dy="0.35em">150</text>
    <text x="18.63" y="12.61" text-anchor="end" dy="0.35em">200</text>
  </g>
  <g font-size="3.88" font-family="'PT Sans','Helvetica Neue','Helvetica',sans-serif" fill="#000000" stroke="#000000" stroke-opacity="0.000" id="img-61217438-21">
    <text x="8.81" y="69.86" text-anchor="middle" dy="0.35em" transform="rotate(-90, 8.81, 71.86)">population number</text>
  </g>
  <g font-size="3.88" font-family="'PT Sans','Helvetica Neue','Helvetica',sans-serif" fill="#000000" stroke="#000000" stroke-opacity="0.000" id="img-61217438-22">
    <text x="108.92" y="5" text-anchor="middle" dy="0.6em">genetic drift</text>
  </g>
</g>
<defs>
  <clipPath id="img-61217438-4">
  <path d="M19.63,10.61 L 198.2 10.61 198.2 133.11 19.63 133.11" />
</clipPath>
</defs>
</svg>
