<?xml version="1.0" encoding="UTF-8"?>
<svg xmlns="http://www.w3.org/2000/svg"
     xmlns:xlink="http://www.w3.org/1999/xlink"
     xmlns:gadfly="http://www.gadflyjl.org/ns"
     version="1.2"
     width="203.2mm" height="152.4mm" viewBox="0 0 203.2 152.4"
     stroke="none"
     fill="#000000"
     stroke-width="0.3"
     font-size="3.88"
>
<g class="plotroot xscalable yscalable" id="img-0d02c02c-1">
  <g font-size="3.88" font-family="'PT Sans','Helvetica Neue','Helvetica',sans-serif" fill="#000000" stroke="#000000" stroke-opacity="0.000" id="img-0d02c02c-2">
    <text x="108.92" y="140.79" text-anchor="middle" dy="0.6em">generation number</text>
  </g>
  <g class="guide xlabels" font-size="2.82" font-family="'PT Sans Caption','Helvetica Neue','Helvetica',sans-serif" fill="#000000" id="img-0d02c02c-3">
    <text x="21.63" y="134.11" text-anchor="middle" dy="0.6em">0</text>
    <text x="56.55" y="134.11" text-anchor="middle" dy="0.6em">100</text>
    <text x="91.46" y="134.11" text-anchor="middle" dy="0.6em">200</text>
    <text x="126.37" y="134.11" text-anchor="middle" dy="0.6em">300</text>
    <text x="161.29" y="134.11" text-anchor="middle" dy="0.6em">400</text>
    <text x="196.2" y="134.11" text-anchor="middle" dy="0.6em">500</text>
  </g>
<g clip-path="url(#img-0d02c02c-4)">
  <g id="img-0d02c02c-5">
    <g pointer-events="visible" opacity="1" fill="#FFFFFF" stroke="#000000" stroke-opacity="0.000" class="guide background" id="img-0d02c02c-6">
      <rect x="19.63" y="10.61" width="178.57" height="122.5"/>
    </g>
    <g class="guide ygridlines xfixed" stroke-dasharray="0.5,0.5" stroke-width="0.2" stroke="#808080" id="img-0d02c02c-7">
      <path fill="none" d="M19.63,131.11 L 198.2 131.11"/>
      <path fill="none" d="M19.63,101.49 L 198.2 101.49"/>
      <path fill="none" d="M19.63,71.86 L 198.2 71.86"/>
      <path fill="none" d="M19.63,42.24 L 198.2 42.24"/>
      <path fill="none" d="M19.63,12.61 L 198.2 12.61"/>
    </g>
    <g class="guide xgridlines yfixed" stroke-dasharray="0.5,0.5" stroke-width="0.2" stroke="#808080" id="img-0d02c02c-8">
      <path fill="none" d="M21.63,10.61 L 21.63 133.11"/>
      <path fill="none" d="M56.55,10.61 L 56.55 133.11"/>
      <path fill="none" d="M91.46,10.61 L 91.46 133.11"/>
      <path fill="none" d="M126.37,10.61 L 126.37 133.11"/>
      <path fill="none" d="M161.29,10.61 L 161.29 133.11"/>
      <path fill="none" d="M196.2,10.61 L 196.2 133.11"/>
    </g>
    <g class="plotpanel" id="img-0d02c02c-9">
      <g stroke-width="0.3" fill="#000000" fill-opacity="0.000" class="geometry" stroke-dasharray="none" stroke="#3288BD" id="img-0d02c02c-10">
        <path fill="none" d="M21.98,71.86 L 22.33 70.38 22.68 70.23 23.03 73.49 23.38 75.12 23.73 78.23 24.08 79.12 24.42 81.94 24.77 84.45 25.12 84.6 25.47 88.31 25.82 87.42 26.17 88.16 26.52 86.53 26.87 89.64 27.22 89.34 27.57 86.38 27.92 86.23 28.27 91.71 28.61 91.27 28.96 88.6 29.31 88.9 29.66 86.23 30.01 85.64 30.36 83.57 30.71 82.38 31.06 80.6 31.41 79.42 31.76 81.64 32.11 78.53 32.45 78.97 32.8 74.38 33.15 72.75 33.5 70.09 33.85 72.16 34.2 73.94 34.55 74.53 34.9 72.6 35.25 73.79 35.6 75.57 35.95 79.57 36.3 76.01 36.64 76.31 36.99 77.05 37.34 78.97 37.69 76.6 38.04 76.46 38.39 77.49 38.74 77.64 39.09 77.05 39.44 81.64 39.79 84.75 40.14 86.23 40.49 88.31 40.83 83.12 41.18 81.05 41.53 82.08 41.88 78.97 42.23 76.31 42.58 74.23 42.93 75.57 43.28 74.09 43.63 72.75 43.98 74.83 44.33 75.42 44.67 74.68 45.02 72.31 45.37 75.71 45.72 79.42 46.07 74.38 46.42 72.75 46.77 73.49 47.12 74.38 47.47 73.64 47.82 71.42 48.17 70.53 48.52 68.16 48.86 68.9 49.21 69.2 49.56 65.79 49.91 65.79 50.26 68.9 50.61 66.98 50.96 64.46 51.31 62.98 51.66 61.49 52.01 57.94 52.36 58.09 52.7 52.61 53.05 58.98 53.4 60.75 53.75 61.2 54.1 59.86 54.45 59.72 54.8 58.53 55.15 57.49 55.5 57.64 55.85 53.79 56.2 55.72 56.55 54.98 56.89 56.16 57.24 53.79 57.59 52.46 57.94 51.87 58.29 50.38 58.64 55.72 58.99 51.13 59.34 51.57 59.69 50.98 60.04 50.38 60.39 52.16 60.73 51.57 61.08 54.53 61.43 57.49 61.78 56.46 62.13 56.01 62.48 51.42 62.83 51.13 63.18 48.61 63.53 45.5 63.88 47.57 64.23 45.35 64.58 48.9 64.92 48.61 65.27 48.01 65.62 48.31 65.97 46.68 66.32 48.46 66.67 50.83 67.02 50.83 67.37 50.38 67.72 49.5 68.07 53.5 68.42 53.94 68.77 54.09 69.11 53.64 69.46 53.64 69.81 54.09 70.16 54.38 70.51 51.72 70.86 50.24 71.21 50.83 71.56 48.01 71.91 43.42 72.26 40.16 72.61 42.83 72.95 39.27 73.3 40.9 73.65 43.42 74 45.5 74.35 47.42 74.7 47.87 75.05 49.35 75.4 48.61 75.75 46.53 76.1 43.42 76.45 42.24 76.8 41.05 77.14 40.9 77.49 42.09 77.84 43.27 78.19 41.5 78.54 40.9 78.89 40.31 79.24 39.42 79.59 39.87 79.94 40.76 80.29 39.57 80.64 40.76 80.98 42.53 81.33 39.27 81.68 39.57 82.03 38.53 82.38 41.05 82.73 42.83 83.08 45.94 83.43 40.31 83.78 42.24 84.13 46.09 84.48 45.35 84.83 48.31 85.17 48.16 85.52 44.61 85.87 45.05 86.22 43.27 86.57 45.79 86.92 48.76 87.27 45.05 87.62 46.53 87.97 45.5 88.32 48.46 88.67 50.53 89.02 48.31 89.36 47.87 89.71 49.94 90.06 47.57 90.41 46.98 90.76 46.68 91.11 48.31 91.46 51.42 91.81 51.13 92.16 51.87 92.51 50.38 92.86 53.35 93.2 49.79 93.55 53.64 93.9 54.68 94.25 52.75 94.6 53.79 94.95 53.94 95.3 52.46 95.65 53.64 96 55.87 96.35 56.31 96.7 53.64 97.05 55.12 97.39 57.05 97.74 55.72 98.09 56.16 98.44 56.31 98.79 57.35 99.14 54.98 99.49 53.94 99.84 54.09 100.19 53.2 100.54 49.79 100.89 49.64 101.23 49.64 101.58 51.57 101.93 52.9 102.28 51.72 102.63 51.72 102.98 51.13 103.33 51.27 103.68 51.57 104.03 51.72 104.38 51.13 104.73 52.61 105.08 54.09 105.42 51.27 105.77 45.5 106.12 46.83 106.47 49.79 106.82 47.13 107.17 45.94 107.52 46.24 107.87 45.79 108.22 46.83 108.57 44.46 108.92 45.05 109.26 46.39 109.61 46.39 109.96 44.02 110.31 41.35 110.66 42.68 111.01 42.24 111.36 40.76 111.71 40.61 112.06 41.35 112.41 41.35 112.76 40.76 113.11 41.05 113.45 39.27 113.8 40.31 114.15 40.31 114.5 41.2 114.85 41.79 115.2 43.27 115.55 42.68 115.9 42.09 116.25 40.61 116.6 40.76 116.95 41.05 117.3 41.2 117.64 40.61 117.99 41.79 118.34 42.98 118.69 45.05 119.04 43.27 119.39 38.09 119.74 38.39 120.09 36.02 120.44 38.39 120.79 38.83 121.14 39.13 121.48 39.87 121.83 39.13 122.18 37.94 122.53 37.05 122.88 35.57 123.23 40.31 123.58 37.2 123.93 37.35 124.28 38.83 124.63 39.42 124.98 34.68 125.33 32.76 125.67 32.16 126.02 28.91 126.37 26.68 126.72 25.35 127.07 23.87 127.42 26.39 127.77 26.24 128.12 26.68 128.47 26.39 128.82 29.2 129.17 26.68 129.51 28.02 129.86 28.31 130.21 27.28 130.56 26.24 130.91 25.05 131.26 21.65 131.61 19.72 131.96 19.87 132.31 19.72 132.66 20.02 133.01 20.76 133.36 21.2 133.7 22.54 134.05 22.54 134.4 21.5 134.75 21.35 135.1 21.2 135.45 22.39 135.8 23.43 136.15 24.76 136.5 25.5 136.85 24.61 137.2 24.91 137.55 26.98 137.89 27.57 138.24 27.42 138.59 26.54 138.94 28.91 139.29 30.09 139.64 32.46 139.99 31.42 140.34 31.87 140.69 32.31 141.04 32.31 141.39 31.72 141.73 31.42 142.08 35.28 142.43 35.28 142.78 38.09 143.13 40.46 143.48 39.72 143.83 40.46 144.18 37.94 144.53 38.53 144.88 39.57 145.23 40.02 145.58 40.02 145.92 39.27 146.27 41.2 146.62 41.2 146.97 45.35 147.32 48.01 147.67 47.13 148.02 45.79 148.37 45.35 148.72 45.2 149.07 45.2 149.42 44.16 149.76 44.76 150.11 47.42 150.46 43.42 150.81 43.42 151.16 44.61 151.51 46.68 151.86 43.13 152.21 43.87 152.56 40.9 152.91 42.24 153.26 45.5 153.61 48.46 153.95 47.57 154.3 48.01 154.65 46.24 155 41.2 155.35 41.2 155.7 41.64 156.05 40.61 156.4 42.24 156.75 42.09 157.1 41.5 157.45 41.5 157.79 43.13 158.14 40.16 158.49 38.24 158.84 38.68 159.19 40.46 159.54 41.5 159.89 40.16 160.24 42.53 160.59 40.9 160.94 41.5 161.29 38.09 161.64 40.16 161.98 38.53 162.33 38.53 162.68 37.65 163.03 36.31 163.38 34.53 163.73 38.24 164.08 38.53 164.43 39.72 164.78 39.87 165.13 39.72 165.48 40.02 165.83 44.16 166.17 40.61 166.52 41.5 166.87 40.9 167.22 37.79 167.57 39.72 167.92 36.9 168.27 37.5 168.62 38.39 168.97 38.09 169.32 37.94 169.67 38.09 170.01 37.94 170.36 42.53 170.71 41.2 171.06 39.72 171.41 38.68 171.76 38.83 172.11 37.65 172.46 36.16 172.81 37.2 173.16 35.42 173.51 35.87 173.86 33.35 174.2 33.94 174.55 38.39 174.9 37.79 175.25 36.76 175.6 36.76 175.95 39.57 176.3 39.87 176.65 39.27 177 36.76 177.35 37.05 177.7 36.61 178.04 36.02 178.39 36.16 178.74 37.2 179.09 38.68 179.44 41.2 179.79 41.64 180.14 41.35 180.49 41.5 180.84 44.46 181.19 46.39 181.54 48.01 181.89 50.09 182.23 47.72 182.58 48.61 182.93 46.39 183.28 46.83 183.63 47.57 183.98 47.72 184.33 48.76 184.68 49.2 185.03 46.39 185.38 43.57 185.73 44.46 186.08 45.05 186.42 43.72 186.77 43.87 187.12 43.72 187.47 44.31 187.82 42.83 188.17 38.24 188.52 39.27 188.87 38.98 189.22 38.83 189.57 37.35 189.92 34.68 190.26 36.61 190.61 36.46 190.96 37.05 191.31 36.16 191.66 35.13 192.01 34.83 192.36 36.02 192.71 37.65 193.06 37.5 193.41 37.65 193.76 34.53 194.11 34.98 194.45 32.91 194.8 33.5 195.15 36.61 195.5 34.68 195.85 36.9 196.2 36.16"/>
      </g>
      <g stroke-width="0.3" fill="#000000" fill-opacity="0.000" class="geometry" stroke-dasharray="none" stroke="#66C2A5" id="img-0d02c02c-11">
        <path fill="none" d="M21.98,71.86 L 22.33 71.57 22.68 69.64 23.03 73.05 23.38 71.42 23.73 71.72 24.08 69.2 24.42 72.46 24.77 71.86 25.12 73.94 25.47 70.68 25.82 69.49 26.17 71.86 26.52 72.6 26.87 71.72 27.22 73.79 27.57 74.68 27.92 73.2 28.27 72.75 28.61 74.68 28.96 73.64 29.31 71.27 29.66 71.12 30.01 73.2 30.36 70.09 30.71 72.16 31.06 72.01 31.41 69.94 31.76 69.64 32.11 68.75 32.45 69.35 32.8 73.34 33.15 70.09 33.5 69.35 33.85 72.16 34.2 72.6 34.55 76.31 34.9 77.79 35.25 78.38 35.6 77.64 35.95 77.34 36.3 75.27 36.64 71.27 36.99 73.2 37.34 70.83 37.69 69.94 38.04 69.79 38.39 69.94 38.74 68.16 39.09 69.49 39.44 70.97 39.79 68.31 40.14 66.38 40.49 65.79 40.83 61.79 41.18 61.94 41.53 64.9 41.88 66.68 42.23 68.9 42.58 68.31 42.93 68.16 43.28 68.46 43.63 66.83 43.98 64.31 44.33 68.31 44.67 68.9 45.02 71.27 45.37 70.09 45.72 71.57 46.07 65.94 46.42 67.42 46.77 67.86 47.12 67.27 47.47 68.75 47.82 66.83 48.17 68.9 48.52 68.9 48.86 67.27 49.21 68.31 49.56 70.23 49.91 68.6 50.26 68.46 50.61 71.72 50.96 71.86 51.31 72.46 51.66 72.9 52.01 72.6 52.36 70.68 52.7 69.79 53.05 69.35 53.4 67.57 53.75 67.72 54.1 65.94 54.45 66.83 54.8 66.09 55.15 68.16 55.5 65.79 55.85 65.35 56.2 70.23 56.55 73.49 56.89 70.68 57.24 72.75 57.59 68.16 57.94 69.35 58.29 68.75 58.64 69.05 58.99 69.49 59.34 69.64 59.69 69.94 60.04 68.46 60.39 70.68 60.73 72.31 61.08 71.42 61.43 69.79 61.78 71.57 62.13 69.05 62.48 70.53 62.83 71.27 63.18 69.64 63.53 68.9 63.88 71.86 64.23 74.38 64.58 75.57 64.92 74.53 65.27 78.38 65.62 78.53 65.97 79.42 66.32 79.27 66.67 77.94 67.02 75.57 67.37 74.09 67.72 69.79 68.07 70.83 68.42 69.2 68.77 69.94 69.11 69.35 69.46 69.49 69.81 70.53 70.16 68.75 70.51 68.75 70.86 71.86 71.21 71.72 71.56 69.49 71.91 72.6 72.26 71.86 72.61 70.68 72.95 70.23 73.3 70.38 73.65 69.35 74 69.64 74.35 67.42 74.7 67.42 75.05 67.57 75.4 66.38 75.75 68.31 76.1 69.2 76.45 66.53 76.8 66.83 77.14 67.12 77.49 69.49 77.84 64.01 78.19 69.64 78.54 72.75 78.89 72.75 79.24 72.01 79.59 68.46 79.94 66.23 80.29 65.79 80.64 63.42 80.98 63.42 81.33 63.27 81.68 66.38 82.03 65.05 82.38 66.38 82.73 67.12 83.08 68.6 83.43 69.05 83.78 73.49 84.13 77.2 84.48 74.68 84.83 71.42 85.17 71.12 85.52 72.31 85.87 71.27 86.22 71.12 86.57 67.72 86.92 63.27 87.27 63.86 87.62 59.72 87.97 61.35 88.32 63.72 88.67 61.35 89.02 63.57 89.36 64.75 89.71 64.01 90.06 66.98 90.41 65.64 90.76 64.16 91.11 64.9 91.46 63.57 91.81 65.64 92.16 61.94 92.51 65.49 92.86 63.42 93.2 66.53 93.55 66.09 93.9 65.05 94.25 66.23 94.6 67.57 94.95 66.23 95.3 67.42 95.65 71.86 96 73.2 96.35 75.12 96.7 73.94 97.05 73.34 97.39 73.2 97.74 71.72 98.09 72.9 98.44 74.53 98.79 73.05 99.14 74.23 99.49 72.75 99.84 74.83 100.19 74.23 100.54 73.49 100.89 75.27 101.23 71.86 101.58 68.16 101.93 72.01 102.28 70.97 102.63 70.53 102.98 67.12 103.33 65.79 103.68 66.23 104.03 70.23 104.38 74.68 104.73 73.49 105.08 70.83 105.42 67.72 105.77 67.86 106.12 65.94 106.47 65.05 106.82 66.68 107.17 66.38 107.52 65.49 107.87 63.42 108.22 65.05 108.57 64.9 108.92 66.98 109.26 64.61 109.61 64.46 109.96 64.75 110.31 66.53 110.66 67.86 111.01 65.05 111.36 64.46 111.71 64.01 112.06 64.16 112.41 61.64 112.76 64.01 113.11 63.42 113.45 59.57 113.8 60.01 114.15 65.05 114.5 65.79 114.85 69.35 115.2 65.2 115.55 64.9 115.9 63.27 116.25 66.68 116.6 64.9 116.95 64.31 117.3 64.61 117.64 63.72 117.99 62.53 118.34 59.27 118.69 59.86 119.04 60.9 119.39 61.64 119.74 59.12 120.09 59.27 120.44 61.49 120.79 60.75 121.14 60.46 121.48 59.72 121.83 61.49 122.18 59.57 122.53 60.46 122.88 58.68 123.23 58.83 123.58 60.75 123.93 61.35 124.28 65.05 124.63 64.31 124.98 63.12 125.33 62.38 125.67 59.57 126.02 56.61 126.37 59.27 126.72 60.31 127.07 61.79 127.42 60.9 127.77 60.9 128.12 59.57 128.47 55.57 128.82 54.68 129.17 55.87 129.51 57.79 129.86 61.2 130.21 64.46 130.56 59.42 130.91 58.83 131.26 57.94 131.61 58.38 131.96 58.53 132.31 58.38 132.66 58.53 133.01 56.16 133.36 56.9 133.7 58.68 134.05 59.27 134.4 60.61 134.75 58.98 135.1 57.79 135.45 58.83 135.8 58.68 136.15 58.53 136.5 57.2 136.85 59.57 137.2 60.46 137.55 58.38 137.89 59.57 138.24 58.83 138.59 60.31 138.94 58.68 139.29 62.83 139.64 61.79 139.99 62.09 140.34 61.64 140.69 61.49 141.04 61.79 141.39 64.9 141.73 64.9 142.08 66.09 142.43 63.72 142.78 60.75 143.13 62.53 143.48 62.09 143.83 63.57 144.18 63.27 144.53 68.01 144.88 67.86 145.23 71.27 145.58 73.34 145.92 70.97 146.27 72.75 146.62 73.49 146.97 72.9 147.32 71.72 147.67 72.01 148.02 74.38 148.37 73.34 148.72 73.2 149.07 75.42 149.42 75.86 149.76 74.83 150.11 75.12 150.46 75.86 150.81 73.79 151.16 69.79 151.51 69.2 151.86 73.05 152.21 72.46 152.56 73.79 152.91 76.16 153.26 75.27 153.61 74.97 153.95 72.75 154.3 71.86 154.65 70.23 155 71.42 155.35 73.64 155.7 71.42 156.05 73.64 156.4 72.46 156.75 71.57 157.1 72.9 157.45 72.6 157.79 69.94 158.14 70.09 158.49 68.16 158.84 67.72 159.19 64.16 159.54 64.75 159.89 66.38 160.24 67.42 160.59 67.27 160.94 66.83 161.29 69.64 161.64 66.38 161.98 66.83 162.33 69.94 162.68 72.6 163.03 75.12 163.38 75.12 163.73 76.01 164.08 73.34 164.43 74.23 164.78 75.71 165.13 72.75 165.48 73.49 165.83 73.34 166.17 71.72 166.52 77.49 166.87 76.75 167.22 74.68 167.57 73.49 167.92 76.9 168.27 78.97 168.62 80.16 168.97 79.12 169.32 76.9 169.67 74.38 170.01 72.6 170.36 71.57 170.71 74.97 171.06 73.2 171.41 71.12 171.76 71.86 172.11 67.42 172.46 65.2 172.81 63.57 173.16 63.42 173.51 63.27 173.86 63.57 174.2 65.49 174.55 66.38 174.9 65.35 175.25 66.09 175.6 65.79 175.95 67.42 176.3 66.98 176.65 69.94 177 72.31 177.35 74.38 177.7 76.75 178.04 77.64 178.39 76.46 178.74 76.6 179.09 76.46 179.44 74.83 179.79 73.49 180.14 73.64 180.49 74.83 180.84 73.34 181.19 72.31 181.54 72.31 181.89 71.57 182.23 73.94 182.58 74.53 182.93 70.38 183.28 69.64 183.63 67.57 183.98 70.23 184.33 72.01 184.68 73.79 185.03 71.86 185.38 69.05 185.73 69.64 186.08 72.9 186.42 69.94 186.77 72.01 187.12 71.12 187.47 70.97 187.82 72.16 188.17 75.12 188.52 77.64 188.87 78.08 189.22 77.34 189.57 78.53 189.92 78.23 190.26 76.01 190.61 77.2 190.96 76.9 191.31 78.83 191.66 80.16 192.01 80.31 192.36 81.34 192.71 80.75 193.06 77.2 193.41 81.64 193.76 83.57 194.11 82.53 194.45 83.42 194.8 82.08 195.15 80.16 195.5 79.57 195.85 77.34 196.2 74.53"/>
      </g>
      <g stroke-width="0.3" fill="#000000" fill-opacity="0.000" class="geometry" stroke-dasharray="none" stroke="#ABDDA4" id="img-0d02c02c-12">
        <path fill="none" d="M21.98,71.86 L 22.33 69.49 22.68 71.57 23.03 71.12 23.38 69.35 23.73 72.6 24.08 75.57 24.42 74.09 24.77 75.42 25.12 73.34 25.47 73.79 25.82 73.05 26.17 68.75 26.52 67.12 26.87 64.75 27.22 63.42 27.57 65.64 27.92 64.61 28.27 64.31 28.61 61.35 28.96 62.83 29.31 61.35 29.66 61.35 30.01 59.42 30.36 57.64 30.71 58.24 31.06 55.72 31.41 54.83 31.76 53.35 32.11 54.38 32.45 55.42 32.8 57.49 33.15 56.46 33.5 56.75 33.85 56.01 34.2 55.27 34.55 55.12 34.9 55.12 35.25 54.83 35.6 53.2 35.95 53.35 36.3 53.79 36.64 50.98 36.99 51.72 37.34 52.01 37.69 51.27 38.04 50.83 38.39 51.42 38.74 50.09 39.09 48.31 39.44 48.01 39.79 44.31 40.14 45.2 40.49 42.53 40.83 41.79 41.18 41.05 41.53 39.27 41.88 36.61 42.23 34.83 42.58 35.57 42.93 36.61 43.28 36.16 43.63 37.65 43.98 37.2 44.33 36.31 44.67 35.87 45.02 34.98 45.37 36.61 45.72 37.5 46.07 35.87 46.42 34.39 46.77 34.24 47.12 34.83 47.47 33.65 47.82 33.5 48.17 33.94 48.52 36.76 48.86 36.16 49.21 36.02 49.56 35.28 49.91 35.28 50.26 32.61 50.61 31.72 50.96 32.16 51.31 33.94 51.66 31.28 52.01 30.68 52.36 32.02 52.7 31.28 53.05 31.13 53.4 33.05 53.75 34.98 54.1 34.68 54.45 33.05 54.8 32.16 55.15 29.79 55.5 28.91 55.85 28.17 56.2 27.87 56.55 28.46 56.89 26.24 57.24 25.5 57.59 23.13 57.94 21.94 58.29 22.09 58.64 22.39 58.99 23.13 59.34 22.98 59.69 23.13 60.04 24.61 60.39 24.02 60.73 22.24 61.08 22.39 61.43 22.98 61.78 24.46 62.13 24.91 62.48 26.24 62.83 26.24 63.18 26.39 63.53 27.57 63.88 27.42 64.23 25.5 64.58 26.68 64.92 25.94 65.27 26.39 65.62 26.98 65.97 27.57 66.32 27.13 66.67 29.79 67.02 27.57 67.37 29.65 67.72 29.5 68.07 28.91 68.42 28.31 68.77 29.79 69.11 26.54 69.46 26.09 69.81 27.42 70.16 27.72 70.51 26.68 70.86 28.46 71.21 28.91 71.56 29.5 71.91 29.94 72.26 26.83 72.61 24.31 72.95 24.61 73.3 24.76 73.65 24.76 74 24.91 74.35 24.31 74.7 23.57 75.05 22.83 75.4 21.94 75.75 20.76 76.1 18.98 76.45 18.09 76.8 20.61 77.14 20.02 77.49 18.98 77.84 18.09 78.19 17.65 78.54 18.09 78.89 18.68 79.24 17.8 79.59 17.35 79.94 17.35 80.29 17.35 80.64 16.91 80.98 16.46 81.33 15.87 81.68 15.13 82.03 15.13 82.38 14.69 82.73 14.69 83.08 15.28 83.43 14.39 83.78 15.13 84.13 15.28 84.48 14.98 84.83 14.39 85.17 15.13 85.52 14.98 85.87 14.83 86.22 14.83 86.57 14.24 86.92 14.69 87.27 14.98 87.62 14.98 87.97 15.13 88.32 15.13 88.67 15.43 89.02 13.65 89.36 13.5 89.71 14.24 90.06 13.8 90.41 13.8 90.76 13.5 91.11 13.35 91.46 13.94 91.81 14.54 92.16 13.5 92.51 13.94 92.86 13.5 93.2 12.61"/>
      </g>
      <g stroke-width="0.3" fill="#000000" fill-opacity="0.000" class="geometry" stroke-dasharray="none" stroke="#E6F598" id="img-0d02c02c-13">
        <path fill="none" d="M21.98,71.86 L 22.33 70.83 22.68 70.09 23.03 66.68 23.38 68.75 23.73 71.57 24.08 68.46 24.42 70.97 24.77 73.94 25.12 75.27 25.47 74.68 25.82 76.01 26.17 75.27 26.52 73.49 26.87 73.94 27.22 72.46 27.57 74.68 27.92 74.23 28.27 76.6 28.61 78.68 28.96 79.12 29.31 76.6 29.66 74.97 30.01 75.27 30.36 74.97 30.71 75.57 31.06 74.23 31.41 72.75 31.76 75.12 32.11 75.71 32.45 73.34 32.8 74.09 33.15 75.86 33.5 79.27 33.85 78.97 34.2 78.08 34.55 78.23 34.9 78.38 35.25 77.79 35.6 78.97 35.95 80.01 36.3 77.94 36.64 76.31 36.99 78.53 37.34 80.31 37.69 81.05 38.04 86.38 38.39 86.38 38.74 87.71 39.09 86.68 39.44 84.31 39.79 84.9 40.14 83.86 40.49 85.34 40.83 83.42 41.18 83.12 41.53 81.79 41.88 80.45 42.23 78.38 42.58 81.49 42.93 82.68 43.28 82.53 43.63 83.27 43.98 82.53 44.33 82.23 44.67 78.83 45.02 76.31 45.37 78.08 45.72 76.9 46.07 78.53 46.42 81.79 46.77 78.38 47.12 78.68 47.47 82.38 47.82 82.68 48.17 81.05 48.52 82.08 48.86 81.49 49.21 83.12 49.56 83.57 49.91 84.01 50.26 82.97 50.61 84.6 50.96 82.82 51.31 80.6 51.66 81.49 52.01 80.75 52.36 82.53 52.7 81.79 53.05 82.97 53.4 78.38 53.75 78.38 54.1 76.9 54.45 79.71 54.8 80.01 55.15 81.05 55.5 82.23 55.85 81.2 56.2 84.75 56.55 82.23 56.89 79.57 57.24 76.46 57.59 74.83 57.94 76.75 58.29 74.97 58.64 76.6 58.99 77.05 59.34 77.2 59.69 76.31 60.04 73.2 60.39 72.01 60.73 71.72 61.08 72.6 61.43 75.27 61.78 75.71 62.13 72.31 62.48 69.64 62.83 69.05 63.18 72.01 63.53 67.72 63.88 69.64 64.23 68.46 64.58 69.79 64.92 71.57 65.27 73.05 65.62 69.94 65.97 67.42 66.32 66.53 66.67 66.98 67.02 66.68 67.37 68.16 67.72 68.31 68.07 68.46 68.42 66.23 68.77 63.86 69.11 65.79 69.46 61.35 69.81 62.09 70.16 64.01 70.51 64.31 70.86 62.68 71.21 58.24 71.56 56.01 71.91 51.42 72.26 50.38 72.61 52.16 72.95 55.57 73.3 57.05 73.65 62.53 74 62.98 74.35 65.2 74.7 61.79 75.05 60.16 75.4 61.79 75.75 62.38 76.1 65.49 76.45 61.64 76.8 59.86 77.14 60.46 77.49 58.83 77.84 61.64 78.19 60.9 78.54 57.79 78.89 53.05 79.24 53.2 79.59 53.2 79.94 54.53 80.29 52.46 80.64 53.5 80.98 54.24 81.33 56.01 81.68 56.61 82.03 59.86 82.38 60.31 82.73 58.53 83.08 55.42 83.43 57.2 83.78 56.01 84.13 55.72 84.48 57.05 84.83 54.53 85.17 54.09 85.52 50.83 85.87 49.05 86.22 51.13 86.57 52.9 86.92 50.09 87.27 56.01 87.62 58.24 87.97 55.12 88.32 54.24 88.67 51.27 89.02 52.31 89.36 54.53 89.71 54.53 90.06 55.42 90.41 55.42 90.76 55.27 91.11 56.31 91.46 55.27 91.81 57.64 92.16 56.31 92.51 55.72 92.86 54.53 93.2 55.72 93.55 57.49 93.9 55.57 94.25 56.46 94.6 56.75 94.95 59.42 95.3 62.68 95.65 63.72 96 62.83 96.35 61.94 96.7 62.68 97.05 61.94 97.39 62.53 97.74 61.94 98.09 60.61 98.44 58.83 98.79 56.61 99.14 58.38 99.49 56.01 99.84 55.57 100.19 60.16 100.54 57.79 100.89 58.83 101.23 62.23 101.58 63.12 101.93 65.35 102.28 66.09 102.63 67.86 102.98 69.79 103.33 70.97 103.68 68.6 104.03 66.09 104.38 68.75 104.73 63.72 105.08 64.01 105.42 67.42 105.77 67.57 106.12 68.01 106.47 66.09 106.82 62.38 107.17 62.09 107.52 58.53 107.87 60.01 108.22 61.49 108.57 59.42 108.92 58.09 109.26 61.49 109.61 65.49 109.96 66.23 110.31 68.16 110.66 68.16 111.01 69.2 111.36 68.16 111.71 69.05 112.06 73.49 112.41 74.09 112.76 69.79 113.11 72.6 113.45 72.6 113.8 75.71 114.15 77.79 114.5 77.34 114.85 74.38 115.2 72.31 115.55 69.79 115.9 70.68 116.25 66.83 116.6 67.72 116.95 66.68 117.3 65.35 117.64 64.75 117.99 65.64 118.34 62.38 118.69 61.2 119.04 57.35 119.39 57.94 119.74 56.46 120.09 52.31 120.44 50.68 120.79 49.35 121.14 50.68 121.48 50.38 121.83 50.09 122.18 53.5 122.53 52.16 122.88 52.01 123.23 50.24 123.58 53.64 123.93 53.94 124.28 50.98 124.63 53.94 124.98 53.5 125.33 55.42 125.67 54.38 126.02 52.31 126.37 51.72 126.72 50.83 127.07 52.31 127.42 53.35 127.77 53.5 128.12 56.16 128.47 56.75 128.82 55.42 129.17 60.31 129.51 57.94 129.86 58.24 130.21 61.2 130.56 59.57 130.91 61.35 131.26 60.31 131.61 59.72 131.96 61.49 132.31 61.2 132.66 61.2 133.01 59.42 133.36 58.24 133.7 55.12 134.05 58.68 134.4 61.2 134.75 64.31 135.1 66.68 135.45 65.05 135.8 62.98 136.15 62.38 136.5 64.16 136.85 62.09 137.2 62.68 137.55 64.01 137.89 64.16 138.24 65.79 138.59 68.31 138.94 65.05 139.29 64.9 139.64 66.68 139.99 69.05 140.34 71.57 140.69 72.16 141.04 73.94 141.39 73.2 141.73 71.42 142.08 69.79 142.43 66.09 142.78 67.86 143.13 66.09 143.48 67.86 143.83 68.75 144.18 72.16 144.53 69.35 144.88 64.9 145.23 66.23 145.58 66.98 145.92 66.23 146.27 67.86 146.62 66.68 146.97 64.75 147.32 64.46 147.67 62.68 148.02 66.68 148.37 68.31 148.72 68.31 149.07 67.12 149.42 69.64 149.76 72.6 150.11 71.72 150.46 72.01 150.81 69.35 151.16 70.53 151.51 68.75 151.86 71.72 152.21 69.94 152.56 72.46 152.91 74.23 153.26 77.2 153.61 75.12 153.95 71.72 154.3 74.23 154.65 74.97 155 73.94 155.35 70.68 155.7 72.9 156.05 75.27 156.4 78.23 156.75 79.57 157.1 79.42 157.45 77.94 157.79 78.08 158.14 78.08 158.49 75.71 158.84 77.94 159.19 78.53 159.54 75.86 159.89 79.42 160.24 76.31 160.59 82.38 160.94 87.86 161.29 89.79 161.64 87.71 161.98 89.64 162.33 90.23 162.68 91.56 163.03 91.42 163.38 92.16 163.73 89.49 164.08 88.6 164.43 92.16 164.78 92.16 165.13 92.45 165.48 89.64 165.83 89.64 166.17 88.31 166.52 88.16 166.87 90.23 167.22 90.82 167.57 93.34 167.92 94.97 168.27 94.97 168.62 94.82 168.97 95.56 169.32 96.45 169.67 96.16 170.01 96.6 170.36 97.19 170.71 98.23 171.06 96.6 171.41 96.16 171.76 91.12 172.11 89.05 172.46 88.75 172.81 90.97 173.16 91.12 173.51 90.53 173.86 89.05 174.2 88.31 174.55 88.45 174.9 90.68 175.25 92.16 175.6 94.08 175.95 97.64 176.3 98.53 176.65 97.05 177 99.27 177.35 99.56 177.7 99.27 178.04 98.67 178.39 100.16 178.74 99.27 179.09 100.01 179.44 97.34 179.79 96.45 180.14 96.45 180.49 96.75 180.84 93.64 181.19 92.01 181.54 93.93 181.89 92.01 182.23 92.16 182.58 93.19 182.93 95.12 183.28 95.71 183.63 94.97 183.98 96.6 184.33 97.93 184.68 98.23 185.03 95.56 185.38 93.19 185.73 96.75 186.08 100.6 186.42 101.04 186.77 100.3 187.12 98.53 187.47 98.53 187.82 98.82 188.17 98.23 188.52 97.93 188.87 96.45 189.22 96.16 189.57 97.49 189.92 98.82 190.26 98.97 190.61 99.56 190.96 98.67 191.31 98.53 191.66 96.9 192.01 95.86 192.36 94.53 192.71 97.64 193.06 98.53 193.41 97.19 193.76 96.6 194.11 95.86 194.45 95.12 194.8 92.16 195.15 86.68 195.5 82.82 195.85 81.34 196.2 78.83"/>
      </g>
      <g stroke-width="0.3" fill="#000000" fill-opacity="0.000" class="geometry" stroke-dasharray="none" stroke="#FFFFBF" id="img-0d02c02c-14">
        <path fill="none" d="M21.98,71.86 L 22.33 71.12 22.68 73.79 23.03 75.86 23.38 74.53 23.73 77.49 24.08 79.42 24.42 81.34 24.77 84.45 25.12 82.08 25.47 78.23 25.82 82.97 26.17 85.34 26.52 87.12 26.87 89.49 27.22 86.23 27.57 88.6 27.92 86.68 28.27 88.6 28.61 89.94 28.96 91.71 29.31 92.01 29.66 90.23 30.01 89.79 30.36 89.94 30.71 89.64 31.06 89.34 31.41 89.19 31.76 89.49 32.11 88.16 32.45 86.38 32.8 87.86 33.15 89.19 33.5 86.53 33.85 86.08 34.2 84.6 34.55 84.45 34.9 85.34 35.25 87.57 35.6 87.27 35.95 87.12 36.3 86.38 36.64 85.64 36.99 86.53 37.34 83.42 37.69 87.71 38.04 84.16 38.39 86.08 38.74 87.57 39.09 86.82 39.44 91.12 39.79 92.16 40.14 91.86 40.49 95.12 40.83 92.75 41.18 92.9 41.53 93.05 41.88 91.27 42.23 92.6 42.58 95.27 42.93 95.12 43.28 95.27 43.63 96.01 43.98 93.05 44.33 92.75 44.67 91.42 45.02 91.56 45.37 89.19 45.72 91.27 46.07 92.6 46.42 89.49 46.77 89.79 47.12 87.71 47.47 90.82 47.82 90.23 48.17 88.31 48.52 87.42 48.86 87.71 49.21 86.68 49.56 82.82 49.91 81.05 50.26 78.08 50.61 77.2 50.96 77.05 51.31 77.64 51.66 78.23 52.01 77.34 52.36 75.27 52.7 74.53 53.05 75.86 53.4 76.16 53.75 77.79 54.1 75.12 54.45 75.27 54.8 72.6 55.15 74.68 55.5 74.23 55.85 76.16 56.2 76.75 56.55 74.38 56.89 72.9 57.24 72.46 57.59 69.2 57.94 66.68 58.29 66.83 58.64 66.98 58.99 67.27 59.34 67.72 59.69 66.38 60.04 64.16 60.39 61.79 60.73 63.12 61.08 63.86 61.43 62.98 61.78 60.31 62.13 62.53 62.48 61.05 62.83 57.94 63.18 58.24 63.53 58.98 63.88 59.86 64.23 61.49 64.58 63.27 64.92 65.2 65.27 66.23 65.62 69.2 65.97 69.35 66.32 71.86 66.67 74.68 67.02 78.08 67.37 79.12 67.72 80.16 68.07 78.23 68.42 78.68 68.77 80.16 69.11 79.86 69.46 78.53 69.81 75.86 70.16 76.75 70.51 76.31 70.86 72.46 71.21 73.79 71.56 70.53 71.91 68.16 72.26 71.72 72.61 74.83 72.95 77.2 73.3 79.27 73.65 79.57 74 79.71 74.35 80.6 74.7 79.57 75.05 78.53 75.4 81.34 75.75 85.64 76.1 81.94 76.45 79.42 76.8 81.79 77.14 84.31 77.49 84.6 77.84 88.31 78.19 93.19 78.54 94.23 78.89 93.05 79.24 94.08 79.59 96.3 79.94 92.01 80.29 93.05 80.64 94.38 80.98 92.75 81.33 94.23 81.68 95.42 82.03 94.53 82.38 92.16 82.73 93.49 83.08 91.71 83.43 91.86 83.78 93.34 84.13 90.82 84.48 89.49 84.83 85.64 85.17 83.27 85.52 85.34 85.87 85.19 86.22 86.53 86.57 87.42 86.92 86.68 87.27 85.64 87.62 90.38 87.97 90.38 88.32 90.53 88.67 87.12 89.02 88.16 89.36 88.01 89.71 90.23 90.06 91.42 90.41 91.12 90.76 92.16 91.11 92.31 91.46 90.08 91.81 92.16 92.16 96.75 92.51 93.93 92.86 93.93 93.2 91.27 93.55 90.53 93.9 92.16 94.25 95.56 94.6 95.86 94.95 94.82 95.3 94.23 95.65 94.68 96 97.34 96.35 99.12 96.7 100.9 97.05 101.64 97.39 101.79 97.74 101.04 98.09 99.42 98.44 99.56 98.79 98.82 99.14 98.23 99.49 97.34 99.84 95.27 100.19 97.64 100.54 100.9 100.89 98.82 101.23 96.75 101.58 94.82 101.93 92.45 102.28 94.08 102.63 96.75 102.98 94.53 103.33 94.82 103.68 97.05 104.03 100.9 104.38 99.56 104.73 98.97 105.08 98.38 105.42 99.12 105.77 102.82 106.12 101.79 106.47 103.12 106.82 102.38 107.17 105.34 107.52 106.08 107.87 107.12 108.22 107.12 108.57 109.19 108.92 110.23 109.26 112.01 109.61 109.78 109.96 108.75 110.31 109.64 110.66 109.19 111.01 108.75 111.36 110.97 111.71 114.38 112.06 114.97 112.41 112.9 112.76 114.23 113.11 112.9 113.45 112.01 113.8 112.6 114.15 113.78 114.5 112.75 114.85 112.6 115.2 109.19 115.55 106.38 115.9 106.97 116.25 108.9 116.6 109.93 116.95 110.53 117.3 111.27 117.64 110.23 117.99 111.71 118.34 111.41 118.69 112.01 119.04 111.56 119.39 110.82 119.74 109.34 120.09 106.08 120.44 106.38 120.79 106.38 121.14 109.04 121.48 109.19 121.83 108.01 122.18 107.86 122.53 108.9 122.88 107.71 123.23 106.82 123.58 106.67 123.93 108.6 124.28 106.97 124.63 103.12 124.98 102.53 125.33 101.34 125.67 101.34 126.02 98.97 126.37 100.3 126.72 100.45 127.07 101.93 127.42 101.34 127.77 102.53 128.12 101.64 128.47 99.42 128.82 100.01 129.17 95.42 129.51 93.05 129.86 92.6 130.21 96.45 130.56 98.53 130.91 100.16 131.26 100.75 131.61 100.45 131.96 100.3 132.31 98.23 132.66 97.49 133.01 97.79 133.36 97.34 133.7 96.75 134.05 96.45 134.4 97.93 134.75 98.67 135.1 96.3 135.45 97.34 135.8 98.67 136.15 100.6 136.5 101.79 136.85 102.08 137.2 102.08 137.55 100.75 137.89 99.86 138.24 98.38 138.59 100.45 138.94 102.08 139.29 102.82 139.64 103.41 139.99 99.71 140.34 101.34 140.69 98.82 141.04 102.08 141.39 99.42 141.73 100.75 142.08 101.34 142.43 101.19 142.78 101.04 143.13 100.75 143.48 100.75 143.83 98.97 144.18 92.75 144.53 93.93 144.88 91.27 145.23 93.64 145.58 92.6 145.92 93.19 146.27 92.6 146.62 90.38 146.97 91.56 147.32 90.23 147.67 91.71 148.02 91.86 148.37 90.97 148.72 94.53 149.07 95.42 149.42 98.53 149.76 98.67 150.11 99.12 150.46 98.82 150.81 98.97 151.16 100.16 151.51 100.9 151.86 100.75 152.21 101.93 152.56 100.75 152.91 104.75 153.26 105.34 153.61 105.19 153.95 104.3 154.3 104.16 154.65 101.93 155 104.9 155.35 107.56 155.7 106.97 156.05 103.56 156.4 100.16 156.75 101.04 157.1 101.04 157.45 100.45 157.79 100.01 158.14 99.42 158.49 100.75 158.84 97.19 159.19 97.93 159.54 96.9 159.89 96.16 160.24 95.86 160.59 95.56 160.94 98.67 161.29 101.19 161.64 97.64 161.98 99.71 162.33 100.3 162.68 100.75 163.03 101.93 163.38 102.53 163.73 101.34 164.08 102.53 164.43 102.38 164.78 101.04 165.13 103.27 165.48 106.53 165.83 104.9 166.17 106.67 166.52 109.64 166.87 108.45 167.22 107.56 167.57 106.53 167.92 106.08 168.27 106.67 168.62 109.34 168.97 110.23 169.32 110.23 169.67 110.67 170.01 110.97 170.36 111.86 170.71 113.19 171.06 113.34 171.41 112.15 171.76 109.64 172.11 110.08 172.46 107.12 172.81 105.78 173.16 105.19 173.51 105.78 173.86 106.08 174.2 109.49 174.55 110.53 174.9 111.41 175.25 111.27 175.6 112.3 175.95 112.6 176.3 114.08 176.65 113.78 177 112.9 177.35 110.97 177.7 112.45 178.04 112.6 178.39 111.27 178.74 113.34 179.09 113.64 179.44 113.04 179.79 113.93 180.14 113.49 180.49 109.64 180.84 111.86 181.19 111.71 181.54 111.27 181.89 112.45 182.23 111.27 182.58 110.67 182.93 113.04 183.28 115.41 183.63 115.71 183.98 115.12 184.33 117.78 184.68 118.82 185.03 120.3 185.38 119.41 185.73 119.12 186.08 120.75 186.42 122.52 186.77 122.67 187.12 119.56 187.47 118.52 187.82 119.71 188.17 118.67 188.52 117.49 188.87 118.38 189.22 116.45 189.57 116.89 189.92 115.41 190.26 117.04 190.61 115.71 190.96 112.75 191.31 116.01 191.66 118.38 192.01 120.89 192.36 120.89 192.71 119.41 193.06 120.01 193.41 120.15 193.76 119.56 194.11 120.3 194.45 120.6 194.8 121.78 195.15 122.52 195.5 123.71 195.85 122.23 196.2 120.01"/>
      </g>
      <g stroke-width="0.3" fill="#000000" fill-opacity="0.000" class="geometry" stroke-dasharray="none" stroke="#FEE08B" id="img-0d02c02c-15">
        <path fill="none" d="M21.98,71.86 L 22.33 71.42 22.68 74.09 23.03 75.71 23.38 76.01 23.73 73.49 24.08 76.46 24.42 77.2 24.77 77.49 25.12 78.53 25.47 77.64 25.82 78.38 26.17 80.16 26.52 81.64 26.87 83.12 27.22 87.71 27.57 87.42 27.92 89.19 28.27 89.94 28.61 86.53 28.96 84.75 29.31 80.75 29.66 79.42 30.01 80.01 30.36 79.71 30.71 79.12 31.06 80.31 31.41 82.97 31.76 82.38 32.11 84.31 32.45 85.64 32.8 82.68 33.15 86.38 33.5 86.08 33.85 88.75 34.2 88.9 34.55 90.82 34.9 90.82 35.25 90.38 35.6 93.64 35.95 93.93 36.3 93.19 36.64 85.94 36.99 86.08 37.34 86.68 37.69 89.94 38.04 91.12 38.39 91.86 38.74 92.9 39.09 90.23 39.44 91.56 39.79 91.42 40.14 89.19 40.49 88.6 40.83 91.71 41.18 92.16 41.53 90.53 41.88 89.19 42.23 88.9 42.58 85.79 42.93 84.16 43.28 86.97 43.63 86.68 43.98 87.42 44.33 87.27 44.67 84.75 45.02 83.42 45.37 84.16 45.72 85.49 46.07 84.45 46.42 81.34 46.77 84.75 47.12 83.71 47.47 86.53 47.82 88.01 48.17 84.75 48.52 83.57 48.86 83.86 49.21 82.68 49.56 79.27 49.91 78.08 50.26 75.57 50.61 79.42 50.96 80.01 51.31 78.23 51.66 80.45 52.01 79.86 52.36 82.38 52.7 81.05 53.05 79.86 53.4 80.9 53.75 76.9 54.1 78.97 54.45 83.57 54.8 81.79 55.15 82.68 55.5 87.71 55.85 88.45 56.2 87.12 56.55 86.97 56.89 89.34 57.24 92.31 57.59 94.23 57.94 96.16 58.29 94.53 58.64 93.79 58.99 92.75 59.34 91.86 59.69 92.01 60.04 93.64 60.39 96.16 60.73 96.3 61.08 94.08 61.43 95.42 61.78 99.12 62.13 93.93 62.48 96.16 62.83 94.82 63.18 96.75 63.53 97.05 63.88 96.9 64.23 98.53 64.58 99.71 64.92 96.16 65.27 98.23 65.62 96.75 65.97 95.56 66.32 94.68 66.67 97.93 67.02 96.9 67.37 97.64 67.72 96.3 68.07 96.16 68.42 94.82 68.77 92.45 69.11 92.9 69.46 93.93 69.81 94.23 70.16 94.53 70.51 96.01 70.86 97.93 71.21 96.9 71.56 101.34 71.91 99.12 72.26 99.56 72.61 100.01 72.95 101.64 73.3 100.9 73.65 104.45 74 103.41 74.35 104.9 74.7 104.9 75.05 104.01 75.4 105.34 75.75 105.34 76.1 104.75 76.45 104.45 76.8 103.27 77.14 100.01 77.49 100.01 77.84 102.38 78.19 103.86 78.54 104.6 78.89 102.23 79.24 100.3 79.59 99.86 79.94 97.79 80.29 97.79 80.64 96.3 80.98 98.97 81.33 97.64 81.68 97.34 82.03 94.97 82.38 94.53 82.73 94.08 83.08 94.38 83.43 92.6 83.78 89.49 84.13 88.45 84.48 86.38 84.83 84.9 85.17 84.9 85.52 87.86 85.87 86.23 86.22 86.53 86.57 82.23 86.92 81.79 87.27 82.08 87.62 80.6 87.97 79.86 88.32 78.53 88.67 76.9 89.02 77.05 89.36 76.31 89.71 77.64 90.06 76.75 90.41 74.68 90.76 73.49 91.11 72.16 91.46 75.12 91.81 73.49 92.16 75.12 92.51 74.23 92.86 69.79 93.2 70.23 93.55 71.86 93.9 72.16 94.25 72.6 94.6 72.9 94.95 73.49 95.3 71.27 95.65 74.53 96 71.42 96.35 68.16 96.7 71.72 97.05 70.09 97.39 71.27 97.74 73.05 98.09 72.75 98.44 75.86 98.79 77.2 99.14 73.94 99.49 74.83 99.84 77.05 100.19 76.01 100.54 76.31 100.89 72.16 101.23 71.72 101.58 73.64 101.93 71.12 102.28 69.49 102.63 72.01 102.98 72.6 103.33 72.75 103.68 71.12 104.03 70.23 104.38 69.64 104.73 67.42 105.08 69.05 105.42 69.49 105.77 72.01 106.12 76.46 106.47 78.83 106.82 78.68 107.17 80.16 107.52 81.79 107.87 78.83 108.22 77.79 108.57 77.34 108.92 78.38 109.26 79.71 109.61 76.9 109.96 74.53 110.31 74.38 110.66 76.6 111.01 78.08 111.36 77.94 111.71 72.16 112.06 70.68 112.41 71.86 112.76 71.86 113.11 73.2 113.45 68.75 113.8 71.12 114.15 71.42 114.5 70.68 114.85 71.86 115.2 74.09 115.55 72.9 115.9 73.49 116.25 74.83 116.6 73.64 116.95 76.46 117.3 77.2 117.64 77.49 117.99 77.94 118.34 74.68 118.69 72.46 119.04 73.34 119.39 69.64 119.74 71.72 120.09 70.83 120.44 68.46 120.79 70.97 121.14 70.68 121.48 73.79 121.83 75.27 122.18 75.57 122.53 76.31 122.88 75.86 123.23 73.49 123.58 73.05 123.93 70.23 124.28 68.01 124.63 68.16 124.98 65.64 125.33 65.35 125.67 64.01 126.02 63.72 126.37 62.09 126.72 64.31 127.07 62.83 127.42 61.64 127.77 64.31 128.12 66.68 128.47 67.12 128.82 65.49 129.17 64.46 129.51 62.23 129.86 59.72 130.21 62.23 130.56 65.49 130.91 62.53 131.26 62.23 131.61 64.31 131.96 66.09 132.31 65.05 132.66 67.27 133.01 65.35 133.36 61.49 133.7 65.2 134.05 62.09 134.4 60.16 134.75 59.86 135.1 61.05 135.45 58.09 135.8 54.98 136.15 57.05 136.5 59.12 136.85 57.49 137.2 57.49 137.55 58.53 137.89 56.46 138.24 56.75 138.59 55.72 138.94 57.79 139.29 57.49 139.64 56.31 139.99 56.31 140.34 55.12 140.69 53.2 141.04 51.57 141.39 52.31 141.73 52.16 142.08 50.68 142.43 49.94 142.78 49.05 143.13 45.79 143.48 49.2 143.83 52.9 144.18 52.46 144.53 53.05 144.88 51.87 145.23 52.16 145.58 52.01 145.92 53.05 146.27 55.57 146.62 54.83 146.97 54.09 147.32 56.46 147.67 56.61 148.02 56.9 148.37 55.42 148.72 54.09 149.07 52.16 149.42 48.61 149.76 51.42 150.11 47.72 150.46 44.76 150.81 42.24 151.16 43.13 151.51 40.16 151.86 37.79 152.21 37.35 152.56 38.98 152.91 40.02 153.26 38.68 153.61 38.83 153.95 40.76 154.3 40.31 154.65 40.31 155 41.5 155.35 42.39 155.7 42.09 156.05 38.53 156.4 36.02 156.75 38.39 157.1 36.02 157.45 36.02 157.79 37.79 158.14 38.39 158.49 41.2 158.84 42.68 159.19 42.24 159.54 41.2 159.89 42.09 160.24 43.42 160.59 42.24 160.94 42.83 161.29 42.24 161.64 41.79 161.98 40.16 162.33 40.02 162.68 39.87 163.03 42.39 163.38 38.98 163.73 41.35 164.08 43.87 164.43 43.72 164.78 44.16 165.13 47.42 165.48 46.09 165.83 48.76 166.17 46.53 166.52 49.79 166.87 50.68 167.22 52.46 167.57 55.57 167.92 58.24 168.27 54.68 168.62 56.31 168.97 57.2 169.32 56.31 169.67 57.79 170.01 58.24 170.36 58.68 170.71 59.42 171.06 58.24 171.41 61.2 171.76 64.31 172.11 61.94 172.46 59.42 172.81 60.46 173.16 58.68 173.51 58.53 173.86 58.68 174.2 58.68 174.55 60.61 174.9 61.05 175.25 60.9 175.6 61.05 175.95 62.68 176.3 64.16 176.65 64.01 177 61.94 177.35 62.38 177.7 60.31 178.04 56.75 178.39 56.75 178.74 58.53 179.09 58.83 179.44 54.68 179.79 53.94 180.14 51.13 180.49 51.87 180.84 50.24 181.19 50.09 181.54 50.53 181.89 49.5 182.23 49.2 182.58 50.38 182.93 50.09 183.28 51.42 183.63 54.68 183.98 55.57 184.33 57.64 184.68 58.24 185.03 54.98 185.38 53.64 185.73 52.75 186.08 55.87 186.42 55.27 186.77 55.12 187.12 53.05 187.47 53.64 187.82 48.31 188.17 46.53 188.52 48.46 188.87 47.27 189.22 46.24 189.57 43.87 189.92 44.16 190.26 46.24 190.61 45.35 190.96 46.83 191.31 48.16 191.66 46.98 192.01 47.87 192.36 49.05 192.71 49.79 193.06 49.5 193.41 50.24 193.76 51.27 194.11 51.27 194.45 51.13 194.8 51.57 195.15 50.38 195.5 48.46 195.85 50.38 196.2 48.46"/>
      </g>
      <g stroke-width="0.3" fill="#000000" fill-opacity="0.000" class="geometry" stroke-dasharray="none" stroke="#FDAE61" id="img-0d02c02c-16">
        <path fill="none" d="M21.98,71.86 L 22.33 71.86 22.68 71.27 23.03 69.79 23.38 73.79 23.73 76.01 24.08 76.01 24.42 76.31 24.77 80.16 25.12 80.9 25.47 80.45 25.82 77.49 26.17 75.27 26.52 72.31 26.87 69.64 27.22 71.42 27.57 71.27 27.92 69.2 28.27 66.98 28.61 65.05 28.96 67.42 29.31 64.31 29.66 63.42 30.01 67.27 30.36 68.31 30.71 68.16 31.06 68.9 31.41 69.79 31.76 68.9 32.11 68.01 32.45 69.05 32.8 70.09 33.15 72.31 33.5 71.57 33.85 69.64 34.2 69.2 34.55 69.94 34.9 68.01 35.25 69.79 35.6 68.75 35.95 70.97 36.3 69.79 36.64 73.2 36.99 73.49 37.34 70.23 37.69 70.23 38.04 68.9 38.39 65.94 38.74 66.38 39.09 67.42 39.44 65.94 39.79 66.83 40.14 63.42 40.49 62.68 40.83 60.61 41.18 64.9 41.53 65.35 41.88 64.46 42.23 65.49 42.58 63.57 42.93 62.09 43.28 64.75 43.63 67.72 43.98 66.83 44.33 68.01 44.67 67.57 45.02 66.23 45.37 66.09 45.72 67.27 46.07 65.35 46.42 65.05 46.77 63.72 47.12 61.49 47.47 63.42 47.82 60.31 48.17 61.94 48.52 60.46 48.86 59.42 49.21 57.94 49.56 56.46 49.91 56.9 50.26 56.75 50.61 52.75 50.96 52.31 51.31 55.72 51.66 57.49 52.01 58.68 52.36 59.27 52.7 60.75 53.05 57.94 53.4 55.42 53.75 58.24 54.1 58.38 54.45 61.35 54.8 59.72 55.15 58.83 55.5 59.86 55.85 57.49 56.2 57.64 56.55 58.24 56.89 58.68 57.24 60.46 57.59 56.46 57.94 53.64 58.29 55.57 58.64 53.05 58.99 53.64 59.34 57.2 59.69 60.01 60.04 59.72 60.39 58.98 60.73 60.16 61.08 65.94 61.43 66.83 61.78 68.16 62.13 67.57 62.48 68.46 62.83 68.46 63.18 70.09 63.53 68.75 63.88 67.57 64.23 70.38 64.58 64.16 64.92 66.09 65.27 69.64 65.62 71.12 65.97 68.01 66.32 66.98 66.67 66.83 67.02 67.12 67.37 68.16 67.72 69.35 68.07 65.2 68.42 67.12 68.77 70.09 69.11 74.68 69.46 74.09 69.81 70.23 70.16 70.83 70.51 67.27 70.86 68.9 71.21 70.23 71.56 69.94 71.91 70.83 72.26 68.46 72.61 69.64 72.95 66.68 73.3 67.72 73.65 64.31 74 61.2 74.35 64.9 74.7 62.53 75.05 59.86 75.4 61.05 75.75 62.53 76.1 62.09 76.45 62.83 76.8 62.83 77.14 64.01 77.49 64.16 77.84 59.86 78.19 61.05 78.54 61.2 78.89 57.2 79.24 58.38 79.59 56.9 79.94 56.75 80.29 55.27 80.64 53.79 80.98 54.83 81.33 53.35 81.68 50.83 82.03 52.61 82.38 54.53 82.73 54.24 83.08 56.16 83.43 54.24 83.78 51.57 84.13 51.13 84.48 49.94 84.83 48.01 85.17 47.72 85.52 48.9 85.87 46.98 86.22 44.02 86.57 46.09 86.92 46.09 87.27 46.53 87.62 46.39 87.97 44.16 88.32 43.42 88.67 44.61 89.02 44.31 89.36 45.2 89.71 43.42 90.06 41.94 90.41 42.09 90.76 41.2 91.11 43.27 91.46 42.98 91.81 44.02 92.16 44.61 92.51 42.98 92.86 42.24 93.2 40.46 93.55 40.31 93.9 39.27 94.25 38.98 94.6 39.57 94.95 41.79 95.3 42.83 95.65 42.09 96 41.94 96.35 44.76 96.7 44.16 97.05 45.79 97.39 42.53 97.74 44.9 98.09 45.05 98.44 45.05 98.79 43.87 99.14 43.42 99.49 42.98 99.84 42.09 100.19 38.24 100.54 39.72 100.89 39.57 101.23 37.79 101.58 40.61 101.93 39.57 102.28 37.35 102.63 39.72 102.98 39.57 103.33 39.27 103.68 40.9 104.03 43.42 104.38 41.79 104.73 41.5 105.08 41.94 105.42 40.46 105.77 40.16 106.12 41.94 106.47 40.61 106.82 37.94 107.17 39.87 107.52 40.16 107.87 40.02 108.22 39.27 108.57 38.39 108.92 40.31 109.26 42.53 109.61 39.87 109.96 38.68 110.31 37.79 110.66 39.42 111.01 41.64 111.36 45.2 111.71 44.76 112.06 43.13 112.41 42.68 112.76 42.39 113.11 42.98 113.45 44.31 113.8 40.16 114.15 39.42 114.5 41.2 114.85 38.98 115.2 41.05 115.55 44.46 115.9 43.72 116.25 39.57 116.6 39.42 116.95 35.87 117.3 38.53 117.64 39.57 117.99 39.42 118.34 41.79 118.69 42.98 119.04 46.53 119.39 49.2 119.74 51.42 120.09 49.94 120.44 48.16 120.79 49.79 121.14 47.72 121.48 46.09 121.83 46.68 122.18 48.01 122.53 46.53 122.88 46.09 123.23 46.68 123.58 47.27 123.93 47.72 124.28 45.94 124.63 48.9 124.98 47.72 125.33 45.79 125.67 49.94 126.02 51.42 126.37 52.31 126.72 48.9 127.07 50.83 127.42 49.79 127.77 54.53 128.12 58.53 128.47 56.31 128.82 56.01 129.17 54.53 129.51 51.87 129.86 52.75 130.21 49.79 130.56 52.9 130.91 52.75 131.26 54.38 131.61 53.05 131.96 53.64 132.31 53.94 132.66 52.75 133.01 51.87 133.36 47.42 133.7 46.09 134.05 48.9 134.4 51.13 134.75 52.01 135.1 55.42 135.45 52.46 135.8 49.35 136.15 49.64 136.5 50.83 136.85 50.83 137.2 50.38 137.55 51.27 137.89 51.13 138.24 51.72 138.59 48.16 138.94 49.94 139.29 50.98 139.64 49.05 139.99 46.39 140.34 45.79 140.69 46.09 141.04 47.27 141.39 49.05 141.73 50.09 142.08 47.42 142.43 46.83 142.78 45.64 143.13 44.16 143.48 47.13 143.83 43.87 144.18 42.98 144.53 41.64 144.88 40.31 145.23 42.09 145.58 42.09 145.92 42.24 146.27 44.02 146.62 42.09 146.97 43.72 147.32 46.83 147.67 46.39 148.02 45.05 148.37 42.39 148.72 37.79 149.07 39.27 149.42 37.94 149.76 37.94 150.11 39.72 150.46 38.68 150.81 36.9 151.16 37.79 151.51 37.5 151.86 37.35 152.21 36.9 152.56 35.42 152.91 35.57 153.26 34.09 153.61 31.57 153.95 30.98 154.3 30.39 154.65 33.65 155 34.53 155.35 32.31 155.7 33.05 156.05 34.09 156.4 35.13 156.75 37.05 157.1 37.65 157.45 38.83 157.79 35.57 158.14 38.53 158.49 39.27 158.84 40.31 159.19 40.16 159.54 41.94 159.89 41.05 160.24 44.9 160.59 45.5 160.94 46.24 161.29 44.46 161.64 46.83 161.98 44.9 162.33 47.42 162.68 50.53 163.03 46.68 163.38 45.64 163.73 47.27 164.08 49.64 164.43 47.27 164.78 47.87 165.13 49.2 165.48 47.72 165.83 50.98 166.17 53.5 166.52 54.09 166.87 56.61 167.22 54.38 167.57 56.61 167.92 56.16 168.27 53.5 168.62 54.98 168.97 56.9 169.32 59.86 169.67 61.2 170.01 60.16 170.36 61.64 170.71 60.61 171.06 59.42 171.41 56.75 171.76 61.2 172.11 61.49 172.46 62.23 172.81 65.05 173.16 64.16 173.51 62.09 173.86 60.9 174.2 59.27 174.55 57.94 174.9 60.46 175.25 60.01 175.6 63.42 175.95 63.27 176.3 60.9 176.65 62.38 177 63.72 177.35 66.53 177.7 68.31 178.04 68.46 178.39 66.09 178.74 66.68 179.09 65.64 179.44 64.01 179.79 66.68 180.14 64.9 180.49 68.31 180.84 68.6 181.19 67.12 181.54 65.35 181.89 62.09 182.23 63.42 182.58 64.75 182.93 65.35 183.28 63.86 183.63 63.57 183.98 59.86 184.33 60.61 184.68 64.01 185.03 66.68 185.38 65.49 185.73 67.42 186.08 66.68 186.42 69.94 186.77 67.57 187.12 66.38 187.47 65.79 187.82 67.12 188.17 66.83 188.52 64.61 188.87 64.75 189.22 61.05 189.57 63.86 189.92 69.05 190.26 65.79 190.61 64.9 190.96 66.68 191.31 69.35 191.66 70.38 192.01 69.49 192.36 69.79 192.71 68.01 193.06 70.38 193.41 66.09 193.76 65.35 194.11 63.27 194.45 60.61 194.8 64.31 195.15 60.9 195.5 67.27 195.85 66.98 196.2 69.2"/>
      </g>
      <g stroke-width="0.3" fill="#000000" fill-opacity="0.000" class="geometry" stroke-dasharray="none" stroke="#F46D43" id="img-0d02c02c-17">
        <path fill="none" d="M21.98,71.86 L 22.33 73.94 22.68 76.6 23.03 78.68 23.38 78.53 23.73 82.38 24.08 84.9 24.42 83.27 24.77 84.16 25.12 86.68 25.47 87.86 25.82 92.6 26.17 93.34 26.52 94.97 26.87 96.9 27.22 100.16 27.57 102.82 27.92 101.19 28.27 100.6 28.61 100.9 28.96 101.79 29.31 102.67 29.66 102.38 30.01 103.12 30.36 99.71 30.71 99.71 31.06 103.12 31.41 105.04 31.76 104.3 32.11 101.93 32.45 103.27 32.8 103.27 33.15 102.82 33.5 103.56 33.85 106.38 34.2 109.49 34.55 110.38 34.9 112.45 35.25 113.34 35.6 113.78 35.95 114.08 36.3 113.78 36.64 115.56 36.99 114.23 37.34 114.52 37.69 115.12 38.04 114.38 38.39 116.75 38.74 117.04 39.09 117.78 39.44 118.67 39.79 117.49 40.14 119.26 40.49 118.08 40.83 118.23 41.18 116.75 41.53 116.89 41.88 116.89 42.23 114.82 42.58 116.45 42.93 116.89 43.28 116.75 43.63 118.38 43.98 118.52 44.33 117.78 44.67 116.45 45.02 119.26 45.37 119.26 45.72 117.34 46.07 119.56 46.42 119.26 46.77 118.23 47.12 119.56 47.47 119.26 47.82 119.12 48.17 119.86 48.52 119.86 48.86 121.04 49.21 121.63 49.56 121.49 49.91 119.86 50.26 120.3 50.61 121.78 50.96 120.45 51.31 122.23 51.66 123.71 52.01 122.38 52.36 122.38 52.7 123.26 53.05 123.12 53.4 122.08 53.75 122.67 54.1 124.3 54.45 122.67 54.8 122.97 55.15 122.23 55.5 121.63 55.85 121.04 56.2 120.89 56.55 121.34 56.89 122.67 57.24 121.49 57.59 121.49 57.94 120.01 58.29 120.89 58.64 121.04 58.99 120.75 59.34 122.38 59.69 120.15 60.04 121.19 60.39 118.97 60.73 119.71 61.08 118.38 61.43 117.04 61.78 114.67 62.13 115.56 62.48 118.67 62.83 118.38 63.18 119.86 63.53 119.86 63.88 120.75 64.23 120.3 64.58 120.15 64.92 120.6 65.27 122.97 65.62 123.41 65.97 122.67 66.32 120.45 66.67 120.15 67.02 120.01 67.37 118.82 67.72 118.97 68.07 117.04 68.42 114.67 68.77 114.67 69.11 115.71 69.46 118.08 69.81 119.26 70.16 119.56 70.51 118.23 70.86 116.75 71.21 116.6 71.56 114.97 71.91 114.97 72.26 114.08 72.61 112.01 72.95 113.49 73.3 115.12 73.65 113.78 74 115.12 74.35 114.23 74.7 115.12 75.05 118.82 75.4 119.12 75.75 118.97 76.1 118.82 76.45 117.64 76.8 116.3 77.14 117.78 77.49 117.64 77.84 118.08 78.19 118.08 78.54 119.86 78.89 121.34 79.24 122.08 79.59 121.04 79.94 122.23 80.29 123.26 80.64 122.82 80.98 123.26 81.33 125.49 81.68 126.08 82.03 125.34 82.38 126.52 82.73 126.82 83.08 125.34 83.43 124.89 83.78 125.63 84.13 125.49 84.48 126.67 84.83 127.26 85.17 126.97 85.52 126.97 85.87 127.41 86.22 126.82 86.57 127.71 86.92 128.6 87.27 128.15 87.62 128.45 87.97 128.74 88.32 129.19 88.67 129.34 89.02 129.49 89.36 129.34 89.71 130.08 90.06 130.52 90.41 129.34 90.76 129.78 91.11 129.19 91.46 128.15 91.81 128 92.16 128.3 92.51 128.74 92.86 128 93.2 128.6 93.55 129.49 93.9 129.34 94.25 128.89 94.6 127.56 94.95 128.6 95.3 129.19 95.65 129.49 96 129.78 96.35 128.89 96.7 129.49 97.05 129.63 97.39 128.89 97.74 128.3 98.09 129.04 98.44 129.34 98.79 129.34 99.14 129.34 99.49 130.08 99.84 129.93 100.19 128.3 100.54 127.86 100.89 128.45 101.23 128.3 101.58 128.6 101.93 128.89 102.28 129.04 102.63 129.78 102.98 129.04 103.33 128.74 103.68 129.04 104.03 130.08 104.38 130.37 104.73 130.67 105.08 130.37 105.42 130.23 105.77 129.63 106.12 129.93 106.47 130.23 106.82 130.23 107.17 130.37 107.52 130.52 107.87 130.37 108.22 130.08 108.57 130.52 108.92 130.52 109.26 130.52 109.61 130.37 109.96 130.82 110.31 130.82 110.66 130.97 111.01 131.11"/>
      </g>
      <g stroke-width="0.3" fill="#000000" fill-opacity="0.000" class="geometry" stroke-dasharray="none" stroke="#D53E4F" id="img-0d02c02c-18">
        <path fill="none" d="M21.98,71.86 L 22.33 68.6 22.68 68.01 23.03 67.27 23.38 64.01 23.73 68.75 24.08 70.23 24.42 70.09 24.77 71.86 25.12 70.68 25.47 67.27 25.82 63.57 26.17 68.75 26.52 69.49 26.87 66.83 27.22 68.16 27.57 65.79 27.92 65.49 28.27 64.75 28.61 64.75 28.96 68.16 29.31 64.75 29.66 63.57 30.01 65.05 30.36 64.75 30.71 61.79 31.06 62.23 31.41 61.94 31.76 62.68 32.11 63.42 32.45 62.38 32.8 62.23 33.15 60.31 33.5 60.16 33.85 61.49 34.2 60.9 34.55 60.31 34.9 63.72 35.25 65.94 35.6 69.49 35.95 69.05 36.3 61.94 36.64 62.23 36.99 63.12 37.34 62.09 37.69 58.53 38.04 56.16 38.39 54.83 38.74 57.49 39.09 57.79 39.44 61.35 39.79 60.61 40.14 58.83 40.49 57.35 40.83 57.64 41.18 56.75 41.53 55.12 41.88 53.05 42.23 55.87 42.58 52.9 42.93 50.83 43.28 51.27 43.63 49.35 43.98 52.16 44.33 51.87 44.67 50.98 45.02 48.76 45.37 49.64 45.72 49.94 46.07 49.64 46.42 48.9 46.77 50.09 47.12 53.5 47.47 50.98 47.82 46.24 48.17 45.2 48.52 43.87 48.86 42.68 49.21 42.83 49.56 42.39 49.91 41.2 50.26 40.9 50.61 43.13 50.96 42.39 51.31 40.31 51.66 36.61 52.01 33.79 52.36 32.91 52.7 32.02 53.05 33.35 53.4 35.87 53.75 38.68 54.1 38.39 54.45 38.24 54.8 39.13 55.15 40.02 55.5 40.9 55.85 44.02 56.2 43.87 56.55 43.57 56.89 44.02 57.24 46.83 57.59 46.24 57.94 43.13 58.29 42.98 58.64 45.05 58.99 48.46 59.34 48.01 59.69 50.09 60.04 57.2 60.39 57.49 60.73 55.27 61.08 54.53 61.43 53.64 61.78 56.16 62.13 52.01 62.48 50.53 62.83 52.16 63.18 54.09 63.53 53.5 63.88 48.9 64.23 50.68 64.58 50.53 64.92 50.09 65.27 52.46 65.62 51.87 65.97 52.46 66.32 56.46 66.67 57.05 67.02 60.9 67.37 65.49 67.72 66.23 68.07 64.46 68.42 65.2 68.77 62.68 69.11 60.46 69.46 63.12 69.81 61.79 70.16 64.61 70.51 60.01 70.86 59.27 71.21 58.68 71.56 60.46 71.91 59.57 72.26 60.61 72.61 55.57 72.95 52.61 73.3 52.31 73.65 51.27 74 48.61 74.35 51.72 74.7 53.2 75.05 55.42 75.4 53.79 75.75 54.24 76.1 54.68 76.45 53.2 76.8 55.57 77.14 52.61 77.49 48.61 77.84 46.39 78.19 45.94 78.54 47.27 78.89 45.35 79.24 43.13 79.59 40.46 79.94 42.98 80.29 45.94 80.64 48.31 80.98 49.5 81.33 50.68 81.68 47.87 82.03 46.83 82.38 46.39 82.73 49.2 83.08 51.72 83.43 48.9 83.78 48.9 84.13 52.75 84.48 50.53 84.83 49.94 85.17 49.05 85.52 47.27 85.87 47.57 86.22 47.72 86.57 48.46 86.92 49.64 87.27 47.87 87.62 47.87 87.97 43.57 88.32 46.24 88.67 46.83 89.02 45.94 89.36 47.13 89.71 46.24 90.06 42.09 90.41 38.24 90.76 38.39 91.11 36.9 91.46 38.68 91.81 37.05 92.16 37.94 92.51 37.5 92.86 36.76 93.2 37.05 93.55 36.76 93.9 33.5 94.25 34.24 94.6 34.24 94.95 31.72 95.3 32.02 95.65 32.02 96 30.68 96.35 31.57 96.7 32.61 97.05 33.5 97.39 31.13 97.74 32.02 98.09 32.91 98.44 34.83 98.79 35.28 99.14 29.94 99.49 28.76 99.84 28.76 100.19 32.31 100.54 31.57 100.89 35.28 101.23 33.5 101.58 34.24 101.93 34.39 102.28 30.39 102.63 34.24 102.98 31.72 103.33 30.54 103.68 28.02 104.03 28.61 104.38 28.02 104.73 29.79 105.08 29.79 105.42 28.91 105.77 28.76 106.12 26.54 106.47 30.39 106.82 32.76 107.17 34.09 107.52 33.35 107.87 34.98 108.22 35.72 108.57 34.83 108.92 36.46 109.26 35.72 109.61 34.24 109.96 36.31 110.31 34.68 110.66 35.42 111.01 34.83 111.36 34.68 111.71 36.9 112.06 36.31 112.41 33.94 112.76 33.79 113.11 34.53 113.45 32.91 113.8 30.83 114.15 29.5 114.5 31.42 114.85 33.79 115.2 33.5 115.55 32.02 115.9 31.72 116.25 31.13 116.6 32.46 116.95 29.35 117.3 29.2 117.64 30.09 117.99 29.5 118.34 29.35 118.69 29.94 119.04 30.54 119.39 29.94 119.74 27.87 120.09 28.02 120.44 26.54 120.79 28.17 121.14 29.5 121.48 30.54 121.83 31.87 122.18 35.13 122.53 34.24 122.88 37.05 123.23 36.76 123.58 33.79 123.93 34.09 124.28 32.46 124.63 33.79 124.98 34.09 125.33 33.05 125.67 34.39 126.02 36.31 126.37 34.24 126.72 33.05 127.07 32.61 127.42 32.31 127.77 34.68 128.12 34.98 128.47 36.46 128.82 35.57 129.17 33.79 129.51 33.5 129.86 31.72 130.21 31.57 130.56 32.76 130.91 31.42 131.26 32.46 131.61 30.39 131.96 34.09 132.31 31.28 132.66 29.79 133.01 31.57 133.36 28.61 133.7 28.31 134.05 28.61 134.4 27.72 134.75 29.2 135.1 29.35 135.45 29.05 135.8 28.76 136.15 27.87 136.5 28.46 136.85 29.2 137.2 30.54 137.55 31.13 137.89 28.46 138.24 28.91 138.59 27.57 138.94 25.35 139.29 24.61 139.64 24.46 139.99 22.98 140.34 22.54 140.69 21.35 141.04 21.94 141.39 21.65 141.73 23.43 142.08 25.65 142.43 25.8 142.78 23.43 143.13 23.57 143.48 23.43 143.83 23.43 144.18 25.05 144.53 25.65 144.88 22.83 145.23 22.68 145.58 20.02 145.92 19.13 146.27 20.46 146.62 20.61 146.97 22.09 147.32 23.43 147.67 22.68 148.02 22.83 148.37 25.2 148.72 25.5 149.07 27.42 149.42 28.31 149.76 27.57 150.11 27.87 150.46 25.35 150.81 25.35 151.16 26.68 151.51 25.65 151.86 26.09 152.21 26.98 152.56 25.94 152.91 26.09 153.26 27.87 153.61 28.76 153.95 29.05 154.3 27.72 154.65 27.28 155 26.09 155.35 26.83 155.7 30.24 156.05 29.5 156.4 29.2 156.75 26.98 157.1 26.68 157.45 25.5 157.79 23.87 158.14 24.61 158.49 25.2 158.84 25.8 159.19 27.13 159.54 27.13 159.89 27.87 160.24 30.98 160.59 31.87 160.94 30.54 161.29 30.98 161.64 30.54 161.98 28.46 162.33 30.39 162.68 29.94 163.03 28.02 163.38 27.72 163.73 27.28 164.08 25.2 164.43 24.76 164.78 22.68 165.13 20.46 165.48 19.72 165.83 18.54 166.17 18.68 166.52 18.24 166.87 17.94 167.22 18.24 167.57 17.2 167.92 15.72 168.27 15.57 168.62 15.87 168.97 16.76 169.32 15.28 169.67 14.69 170.01 15.28 170.36 14.98 170.71 15.72 171.06 15.72 171.41 15.13 171.76 15.28 172.11 15.87 172.46 14.83 172.81 14.24 173.16 14.54 173.51 13.94 173.86 14.09 174.2 14.54 174.55 14.39 174.9 14.24 175.25 13.94 175.6 14.54 175.95 15.57 176.3 14.98 176.65 15.13 177 15.13 177.35 15.13 177.7 15.43 178.04 15.28 178.39 16.46 178.74 15.87 179.09 16.17 179.44 17.06 179.79 18.39 180.14 18.83 180.49 17.8 180.84 16.46 181.19 16.17 181.54 16.17 181.89 15.87 182.23 16.02 182.58 16.31 182.93 16.02 183.28 16.02 183.63 17.65 183.98 17.8 184.33 17.06 184.68 16.02 185.03 17.5 185.38 17.8 185.73 16.31 186.08 17.65 186.42 16.46 186.77 16.91 187.12 15.87 187.47 15.28 187.82 15.72 188.17 16.46 188.52 16.31 188.87 16.76 189.22 16.02 189.57 17.35 189.92 16.76 190.26 15.57 190.61 15.87 190.96 16.02 191.31 14.69 191.66 14.09 192.01 14.24 192.36 13.65 192.71 13.94 193.06 14.24 193.41 14.69 193.76 14.39 194.11 15.43 194.45 16.02 194.8 15.28 195.15 16.46 195.5 17.2 195.85 18.09 196.2 18.39"/>
      </g>
      <g stroke-width="0.3" fill="#000000" fill-opacity="0.000" class="geometry" stroke-dasharray="none" stroke="#9E0142" id="img-0d02c02c-19">
        <path fill="none" d="M21.98,71.86 L 22.33 70.23 22.68 72.16 23.03 76.6 23.38 73.64 23.73 71.72 24.08 76.01 24.42 72.46 24.77 75.27 25.12 73.64 25.47 75.42 25.82 77.64 26.17 80.31 26.52 78.08 26.87 76.46 27.22 78.23 27.57 74.83 27.92 75.86 28.27 74.09 28.61 78.68 28.96 82.53 29.31 82.23 29.66 78.97 30.01 77.94 30.36 80.16 30.71 84.9 31.06 81.05 31.41 77.34 31.76 75.86 32.11 77.64 32.45 73.34 32.8 75.12 33.15 74.68 33.5 73.79 33.85 72.75 34.2 72.01 34.55 72.46 34.9 73.64 35.25 76.31 35.6 74.38 35.95 76.31 36.3 75.86 36.64 79.27 36.99 81.94 37.34 79.27 37.69 78.23 38.04 78.23 38.39 78.08 38.74 81.49 39.09 82.97 39.44 84.6 39.79 83.27 40.14 85.34 40.49 84.9 40.83 84.9 41.18 81.05 41.53 79.86 41.88 82.68 42.23 82.97 42.58 78.83 42.93 77.49 43.28 79.12 43.63 81.79 43.98 83.42 44.33 84.45 44.67 86.38 45.02 86.82 45.37 85.79 45.72 86.97 46.07 85.94 46.42 84.6 46.77 86.82 47.12 87.27 47.47 92.16 47.82 90.38 48.17 93.79 48.52 94.08 48.86 92.6 49.21 94.38 49.56 96.01 49.91 94.97 50.26 93.93 50.61 93.05 50.96 90.23 51.31 87.71 51.66 86.23 52.01 86.08 52.36 85.19 52.7 87.27 53.05 87.57 53.4 88.45 53.75 88.01 54.1 82.23 54.45 83.86 54.8 84.16 55.15 84.45 55.5 84.16 55.85 84.01 56.2 81.34 56.55 81.34 56.89 82.82 57.24 84.45 57.59 83.86 57.94 83.12 58.29 84.9 58.64 82.68 58.99 82.82 59.34 85.79 59.69 86.97 60.04 85.94 60.39 85.34 60.73 85.34 61.08 84.16 61.43 85.64 61.78 88.01 62.13 86.23 62.48 81.79 62.83 80.31 63.18 79.71 63.53 76.75 63.88 74.97 64.23 75.57 64.58 76.31 64.92 77.79 65.27 78.97 65.62 79.86 65.97 76.75 66.32 77.79 66.67 78.08 67.02 76.9 67.37 78.23 67.72 75.42 68.07 74.09 68.42 75.12 68.77 76.75 69.11 74.83 69.46 73.94 69.81 75.86 70.16 75.12 70.51 73.49 70.86 74.23 71.21 77.49 71.56 73.94 71.91 75.42 72.26 75.57 72.61 75.42 72.95 73.64 73.3 72.75 73.65 76.01 74 71.86 74.35 69.2 74.7 69.64 75.05 69.35 75.4 69.79 75.75 69.05 76.1 68.01 76.45 67.86 76.8 64.61 77.14 63.57 77.49 65.05 77.84 67.27 78.19 72.31 78.54 73.34 78.89 71.27 79.24 72.9 79.59 70.97 79.94 69.79 80.29 70.09 80.64 75.71 80.98 75.27 81.33 75.71 81.68 78.53 82.03 78.68 82.38 77.79 82.73 76.01 83.08 75.12 83.43 75.12 83.78 74.83 84.13 72.75 84.48 76.46 84.83 72.9 85.17 72.16 85.52 74.83 85.87 76.6 86.22 75.42 86.57 77.05 86.92 77.64 87.27 78.38 87.62 80.75 87.97 83.27 88.32 80.6 88.67 81.05 89.02 82.97 89.36 83.27 89.71 79.12 90.06 79.71 90.41 77.64 90.76 76.75 91.11 78.97 91.46 78.53 91.81 78.08 92.16 77.05 92.51 75.57 92.86 73.49 93.2 73.05 93.55 73.79 93.9 72.31 94.25 70.38 94.6 70.83 94.95 72.46 95.3 73.94 95.65 73.34 96 71.42 96.35 71.57 96.7 72.46 97.05 75.57 97.39 72.16 97.74 72.6 98.09 74.53 98.44 73.05 98.79 75.42 99.14 77.49 99.49 74.68 99.84 77.05 100.19 76.16 100.54 74.83 100.89 71.57 101.23 74.68 101.58 75.27 101.93 76.01 102.28 81.2 102.63 79.42 102.98 76.9 103.33 75.86 103.68 76.6 104.03 77.64 104.38 80.01 104.73 74.68 105.08 76.46 105.42 77.94 105.77 77.2 106.12 77.49 106.47 80.16 106.82 82.23 107.17 81.2 107.52 82.68 107.87 82.82 108.22 82.23 108.57 86.68 108.92 88.31 109.26 89.05 109.61 89.49 109.96 88.45 110.31 87.42 110.66 85.34 111.01 85.64 111.36 83.86 111.71 83.27 112.06 84.16 112.41 81.49 112.76 77.49 113.11 76.46 113.45 74.38 113.8 74.68 114.15 73.64 114.5 71.86 114.85 71.86 115.2 69.2 115.55 68.31 115.9 72.31 116.25 68.6 116.6 70.53 116.95 68.31 117.3 66.98 117.64 66.83 117.99 65.64 118.34 67.57 118.69 65.94 119.04 63.27 119.39 62.98 119.74 64.46 120.09 66.53 120.44 66.09 120.79 68.16 121.14 65.35 121.48 64.75 121.83 66.68 122.18 67.72 122.53 64.75 122.88 65.79 123.23 62.68 123.58 61.64 123.93 61.64 124.28 59.72 124.63 59.86 124.98 61.49 125.33 65.05 125.67 65.2 126.02 63.12 126.37 62.09 126.72 62.09 127.07 60.61 127.42 56.16 127.77 53.94 128.12 53.5 128.47 55.27 128.82 56.16 129.17 58.38 129.51 56.9 129.86 58.24 130.21 61.2 130.56 60.75 130.91 62.53 131.26 59.27 131.61 58.24 131.96 57.2 132.31 56.75 132.66 56.01 133.01 56.46 133.36 56.61 133.7 56.9 134.05 57.49 134.4 59.86 134.75 61.2 135.1 61.94 135.45 54.98 135.8 52.75 136.15 48.31 136.5 44.16 136.85 45.5 137.2 45.64 137.55 44.76 137.89 45.64 138.24 46.09 138.59 45.5 138.94 41.2 139.29 41.05 139.64 41.79 139.99 43.13 140.34 44.31 140.69 41.94 141.04 37.35 141.39 40.31 141.73 42.98 142.08 41.05 142.43 43.42 142.78 43.27 143.13 41.35 143.48 38.53 143.83 40.31 144.18 42.09 144.53 43.87 144.88 40.76 145.23 39.87 145.58 39.87 145.92 38.09 146.27 38.09 146.62 38.53 146.97 40.46 147.32 40.02 147.67 39.72 148.02 40.16 148.37 39.13 148.72 41.2 149.07 41.64 149.42 38.98 149.76 37.2 150.11 37.05 150.46 36.31 150.81 38.83 151.16 39.87 151.51 38.83 151.86 38.68 152.21 35.72 152.56 34.39 152.91 35.72 153.26 37.35 153.61 37.2 153.95 34.24 154.3 34.09 154.65 35.87 155 33.5 155.35 33.79 155.7 31.87 156.05 32.16 156.4 34.39 156.75 31.13 157.1 32.91 157.45 33.05 157.79 32.46 158.14 33.05 158.49 34.09 158.84 33.2 159.19 32.46 159.54 31.42 159.89 29.94 160.24 30.39 160.59 28.91 160.94 30.39 161.29 29.65 161.64 27.57 161.98 28.02 162.33 30.54 162.68 32.16 163.03 31.87 163.38 30.54 163.73 32.61 164.08 33.5 164.43 32.02 164.78 32.76 165.13 35.57 165.48 36.31 165.83 36.46 166.17 39.87 166.52 43.27 166.87 41.2 167.22 42.09 167.57 42.39 167.92 43.42 168.27 40.31 168.62 43.42 168.97 44.31 169.32 44.9 169.67 43.42 170.01 43.42 170.36 43.72 170.71 42.24 171.06 43.57 171.41 44.76 171.76 44.76 172.11 42.68 172.46 42.98 172.81 42.39 173.16 40.46 173.51 41.5 173.86 37.35 174.2 37.35 174.55 37.65 174.9 39.57 175.25 36.16 175.6 35.72 175.95 37.2 176.3 37.35 176.65 36.61 177 38.53 177.35 37.05 177.7 36.76 178.04 33.94 178.39 32.31 178.74 34.53 179.09 34.39 179.44 39.72 179.79 40.02 180.14 40.31 180.49 40.31 180.84 40.46 181.19 44.76 181.54 42.68 181.89 41.79 182.23 41.79 182.58 38.83 182.93 39.13 183.28 39.87 183.63 40.61 183.98 37.35 184.33 37.79 184.68 37.05 185.03 40.61 185.38 40.16 185.73 38.83 186.08 41.94 186.42 40.31 186.77 40.9 187.12 40.46 187.47 38.09 187.82 36.46 188.17 35.42 188.52 36.76 188.87 38.68 189.22 36.61 189.57 38.98 189.92 40.16 190.26 41.2 190.61 42.68 190.96 44.16 191.31 46.24 191.66 49.05 192.01 51.42 192.36 51.42 192.71 52.75 193.06 51.57 193.41 54.09 193.76 55.12 194.11 54.24 194.45 54.98 194.8 53.35 195.15 53.05 195.5 52.9 195.85 56.01 196.2 60.75"/>
      </g>
    </g>
  </g>
</g>
  <g class="guide ylabels" font-size="2.82" font-family="'PT Sans Caption','Helvetica Neue','Helvetica',sans-serif" fill="#000000" id="img-0d02c02c-20">
    <text x="18.63" y="131.11" text-anchor="end" dy="0.35em">0</text>
    <text x="18.63" y="101.49" text-anchor="end" dy="0.35em">200</text>
    <text x="18.63" y="71.86" text-anchor="end" dy="0.35em">400</text>
    <text x="18.63" y="42.24" text-anchor="end" dy="0.35em">600</text>
    <text x="18.63" y="12.61" text-anchor="end" dy="0.35em">800</text>
  </g>
  <g font-size="3.88" font-family="'PT Sans','Helvetica Neue','Helvetica',sans-serif" fill="#000000" stroke="#000000" stroke-opacity="0.000" id="img-0d02c02c-21">
    <text x="8.81" y="69.86" text-anchor="middle" dy="0.35em" transform="rotate(-90, 8.81, 71.86)">population number</text>
  </g>
  <g font-size="3.88" font-family="'PT Sans','Helvetica Neue','Helvetica',sans-serif" fill="#000000" stroke="#000000" stroke-opacity="0.000" id="img-0d02c02c-22">
    <text x="108.92" y="5" text-anchor="middle" dy="0.6em">genetic drift</text>
  </g>
</g>
<defs>
  <clipPath id="img-0d02c02c-4">
  <path d="M19.63,10.61 L 198.2 10.61 198.2 133.11 19.63 133.11" />
</clipPath>
</defs>
</svg>
