<?xml version="1.0" encoding="UTF-8"?>
<svg xmlns="http://www.w3.org/2000/svg"
     xmlns:xlink="http://www.w3.org/1999/xlink"
     xmlns:gadfly="http://www.gadflyjl.org/ns"
     version="1.2"
     width="203.2mm" height="152.4mm" viewBox="0 0 203.2 152.4"
     stroke="none"
     fill="#000000"
     stroke-width="0.3"
     font-size="3.88"
>
<g class="plotroot xscalable yscalable" id="img-199bb76c-1">
  <g font-size="3.88" font-family="'PT Sans','Helvetica Neue','Helvetica',sans-serif" fill="#000000" stroke="#000000" stroke-opacity="0.000" id="img-199bb76c-2">
    <text x="108.92" y="140.79" text-anchor="middle" dy="0.6em">generation number</text>
  </g>
  <g class="guide xlabels" font-size="2.82" font-family="'PT Sans Caption','Helvetica Neue','Helvetica',sans-serif" fill="#000000" id="img-199bb76c-3">
    <text x="21.63" y="134.11" text-anchor="middle" dy="0.6em">0</text>
    <text x="56.55" y="134.11" text-anchor="middle" dy="0.6em">100</text>
    <text x="91.46" y="134.11" text-anchor="middle" dy="0.6em">200</text>
    <text x="126.37" y="134.11" text-anchor="middle" dy="0.6em">300</text>
    <text x="161.29" y="134.11" text-anchor="middle" dy="0.6em">400</text>
    <text x="196.2" y="134.11" text-anchor="middle" dy="0.6em">500</text>
  </g>
<g clip-path="url(#img-199bb76c-4)">
  <g id="img-199bb76c-5">
    <g pointer-events="visible" opacity="1" fill="#FFFFFF" stroke="#000000" stroke-opacity="0.000" class="guide background" id="img-199bb76c-6">
      <rect x="19.63" y="10.61" width="178.57" height="122.5"/>
    </g>
    <g class="guide ygridlines xfixed" stroke-dasharray="0.5,0.5" stroke-width="0.2" stroke="#808080" id="img-199bb76c-7">
      <path fill="none" d="M19.63,131.11 L 198.2 131.11"/>
      <path fill="none" d="M19.63,71.86 L 198.2 71.86"/>
      <path fill="none" d="M19.63,12.61 L 198.2 12.61"/>
    </g>
    <g class="guide xgridlines yfixed" stroke-dasharray="0.5,0.5" stroke-width="0.2" stroke="#808080" id="img-199bb76c-8">
      <path fill="none" d="M21.63,10.61 L 21.63 133.11"/>
      <path fill="none" d="M56.55,10.61 L 56.55 133.11"/>
      <path fill="none" d="M91.46,10.61 L 91.46 133.11"/>
      <path fill="none" d="M126.37,10.61 L 126.37 133.11"/>
      <path fill="none" d="M161.29,10.61 L 161.29 133.11"/>
      <path fill="none" d="M196.2,10.61 L 196.2 133.11"/>
    </g>
    <g class="plotpanel" id="img-199bb76c-9">
      <g stroke-width="0.3" fill="#000000" fill-opacity="0.000" class="geometry" stroke-dasharray="none" stroke="#3288BD" id="img-199bb76c-10">
        <path fill="none" d="M21.98,71.86 L 22.33 77.79 22.68 84.9 23.03 96.75 23.38 95.56 23.73 99.12 24.08 105.04 24.42 109.78 24.77 110.97 25.12 114.52 25.47 119.26 25.82 114.52 26.17 119.26 26.52 127.56 26.87 127.56 27.22 127.56 27.57 125.19 27.92 125.19 28.27 122.82 28.61 121.63 28.96 118.08 29.31 115.71 29.66 116.89 30.01 115.71 30.36 108.6 30.71 100.3 31.06 97.93 31.41 93.19 31.76 89.64 32.11 83.71 32.45 87.27 32.8 95.56 33.15 103.86 33.5 107.41 33.85 116.89 34.2 120.45 34.55 115.71 34.9 121.63 35.25 124 35.6 116.89 35.95 115.71 36.3 115.71 36.64 119.26 36.99 113.34 37.34 108.6 37.69 112.15 38.04 120.45 38.39 122.82 38.74 122.82 39.09 120.45 39.44 122.82 39.79 125.19 40.14 122.82 40.49 122.82 40.83 122.82 41.18 125.19 41.53 122.82 41.88 121.63 42.23 122.82 42.58 125.19 42.93 121.63 43.28 124 43.63 126.37 43.98 125.19 44.33 127.56 44.67 127.56 45.02 128.74 45.37 127.56 45.72 127.56 46.07 129.93 46.42 128.74 46.77 129.93 47.12 129.93 47.47 129.93 47.82 129.93 48.17 131.11"/>
      </g>
      <g stroke-width="0.3" fill="#000000" fill-opacity="0.000" class="geometry" stroke-dasharray="none" stroke="#66C2A5" id="img-199bb76c-11">
        <path fill="none" d="M21.98,71.86 L 22.33 58.83 22.68 52.9 23.03 51.72 23.38 50.53 23.73 52.9 24.08 46.98 24.42 57.64 24.77 60.01 25.12 67.12 25.47 73.05 25.82 70.68 26.17 70.68 26.52 71.86 26.87 80.16 27.22 86.08 27.57 80.16 27.92 81.34 28.27 81.34 28.61 82.53 28.96 88.45 29.31 80.16 29.66 84.9 30.01 84.9 30.36 95.56 30.71 92.01 31.06 93.19 31.41 81.34 31.76 84.9 32.11 83.71 32.45 82.53 32.8 84.9 33.15 82.53 33.5 81.34 33.85 75.42 34.2 81.34 34.55 76.6 34.9 75.42 35.25 77.79 35.6 74.23 35.95 73.05 36.3 70.68 36.64 70.68 36.99 76.6 37.34 80.16 37.69 78.97 38.04 77.79 38.39 78.97 38.74 75.42 39.09 67.12 39.44 62.38 39.79 70.68 40.14 74.23 40.49 74.23 40.83 71.86 41.18 67.12 41.53 63.57 41.88 55.27 42.23 57.64 42.58 57.64 42.93 65.94 43.28 61.2 43.63 58.83 43.98 55.27 44.33 46.98 44.67 61.2 45.02 67.12 45.37 62.38 45.72 61.2 46.07 65.94 46.42 67.12 46.77 68.31 47.12 71.86 47.47 69.49 47.82 71.86 48.17 80.16 48.52 81.34 48.86 80.16 49.21 86.08 49.56 86.08 49.91 75.42 50.26 78.97 50.61 83.71 50.96 83.71 51.31 92.01 51.66 94.38 52.01 92.01 52.36 99.12 52.7 107.41 53.05 107.41 53.4 113.34 53.75 112.15 54.1 119.26 54.45 112.15 54.8 109.78 55.15 114.52 55.5 120.45 55.85 120.45 56.2 118.08 56.55 124 56.89 126.37 57.24 127.56 57.59 127.56 57.94 131.11"/>
      </g>
      <g stroke-width="0.3" fill="#000000" fill-opacity="0.000" class="geometry" stroke-dasharray="none" stroke="#ABDDA4" id="img-199bb76c-12">
        <path fill="none" d="M21.98,71.86 L 22.33 69.49 22.68 74.23 23.03 74.23 23.38 64.75 23.73 70.68 24.08 64.75 24.42 65.94 24.77 60.01 25.12 56.46 25.47 49.35 25.82 52.9 26.17 41.05 26.52 46.98 26.87 42.24 27.22 33.94 27.57 35.13 27.92 42.24 28.27 46.98 28.61 46.98 28.96 42.24 29.31 33.94 29.66 37.5 30.01 35.13 30.36 35.13 30.71 36.31 31.06 38.68 31.41 36.31 31.76 48.16 32.11 42.24 32.45 45.79 32.8 48.16 33.15 45.79 33.5 39.87 33.85 43.42 34.2 38.68 34.55 39.87 34.9 39.87 35.25 29.2 35.6 25.65 35.95 26.83 36.3 19.72 36.64 22.09 36.99 23.28 37.34 29.2 37.69 24.46 38.04 22.09 38.39 19.72 38.74 22.09 39.09 23.28 39.44 25.65 39.79 29.2 40.14 33.94 40.49 33.94 40.83 42.24 41.18 30.39 41.53 30.39 41.88 28.02 42.23 33.94 42.58 35.13 42.93 44.61 43.28 50.53 43.63 49.35 43.98 44.61 44.33 50.53 44.67 46.98 45.02 48.16 45.37 32.76 45.72 30.39 46.07 36.31 46.42 30.39 46.77 33.94 47.12 35.13 47.47 32.76 47.82 39.87 48.17 54.09 48.52 57.64 48.86 48.16 49.21 45.79 49.56 42.24 49.91 42.24 50.26 43.42 50.61 51.72 50.96 55.27 51.31 57.64 51.66 56.46 52.01 45.79 52.36 46.98 52.7 41.05 53.05 39.87 53.4 32.76 53.75 32.76 54.1 26.83 54.45 28.02 54.8 30.39 55.15 30.39 55.5 36.31 55.85 33.94 56.2 31.57 56.55 30.39 56.89 24.46 57.24 28.02 57.59 26.83 57.94 29.2 58.29 24.46 58.64 25.65 58.99 28.02 59.34 28.02 59.69 28.02 60.04 26.83 60.39 24.46 60.73 25.65 61.08 24.46 61.43 28.02 61.78 26.83 62.13 26.83 62.48 26.83 62.83 26.83 63.18 28.02 63.53 33.94 63.88 28.02 64.23 19.72 64.58 18.54 64.92 19.72 65.27 17.35 65.62 17.35 65.97 14.98 66.32 13.8 66.67 12.61"/>
      </g>
      <g stroke-width="0.3" fill="#000000" fill-opacity="0.000" class="geometry" stroke-dasharray="none" stroke="#E6F598" id="img-199bb76c-13">
        <path fill="none" d="M21.98,71.86 L 22.33 58.83 22.68 69.49 23.03 70.68 23.38 82.53 23.73 83.71 24.08 89.64 24.42 81.34 24.77 90.82 25.12 101.49 25.47 106.23 25.82 107.41 26.17 101.49 26.52 112.15 26.87 115.71 27.22 113.34 27.57 106.23 27.92 103.86 28.27 97.93 28.61 93.19 28.96 100.3 29.31 101.49 29.66 93.19 30.01 99.12 30.36 99.12 30.71 97.93 31.06 95.56 31.41 92.01 31.76 97.93 32.11 100.3 32.45 102.67 32.8 106.23 33.15 106.23 33.5 108.6 33.85 105.04 34.2 108.6 34.55 112.15 34.9 112.15 35.25 114.52 35.6 113.34 35.95 105.04 36.3 114.52 36.64 115.71 36.99 105.04 37.34 109.78 37.69 108.6 38.04 107.41 38.39 110.97 38.74 113.34 39.09 112.15 39.44 107.41 39.79 113.34 40.14 110.97 40.49 120.45 40.83 121.63 41.18 121.63 41.53 122.82 41.88 119.26 42.23 118.08 42.58 114.52 42.93 113.34 43.28 108.6 43.63 106.23 43.98 100.3 44.33 100.3 44.67 100.3 45.02 96.75 45.37 100.3 45.72 100.3 46.07 105.04 46.42 107.41 46.77 102.67 47.12 101.49 47.47 97.93 47.82 96.75 48.17 95.56 48.52 95.56 48.86 90.82 49.21 90.82 49.56 86.08 49.91 84.9 50.26 76.6 50.61 82.53 50.96 78.97 51.31 69.49 51.66 71.86 52.01 67.12 52.36 60.01 52.7 51.72 53.05 49.35 53.4 51.72 53.75 48.16 54.1 46.98 54.45 56.46 54.8 56.46 55.15 50.53 55.5 54.09 55.85 55.27 56.2 58.83 56.55 63.57 56.89 55.27 57.24 57.64 57.59 51.72 57.94 52.9 58.29 55.27 58.64 60.01 58.99 58.83 59.34 56.46 59.69 55.27 60.04 49.35 60.39 51.72 60.73 48.16 61.08 41.05 61.43 37.5 61.78 26.83 62.13 23.28 62.48 25.65 62.83 24.46 63.18 29.2 63.53 25.65 63.88 26.83 64.23 22.09 64.58 22.09 64.92 25.65 65.27 25.65 65.62 25.65 65.97 24.46 66.32 29.2 66.67 29.2 67.02 31.57 67.37 25.65 67.72 23.28 68.07 30.39 68.42 25.65 68.77 24.46 69.11 26.83 69.46 22.09 69.81 19.72 70.16 17.35 70.51 22.09 70.86 23.28 71.21 20.91 71.56 24.46 71.91 19.72 72.26 17.35 72.61 14.98 72.95 16.17 73.3 14.98 73.65 12.61"/>
      </g>
      <g stroke-width="0.3" fill="#000000" fill-opacity="0.000" class="geometry" stroke-dasharray="none" stroke="#FFFFBF" id="img-199bb76c-14">
        <path fill="none" d="M21.98,71.86 L 22.33 80.16 22.68 88.45 23.03 87.27 23.38 89.64 23.73 94.38 24.08 94.38 24.42 93.19 24.77 89.64 25.12 92.01 25.47 95.56 25.82 93.19 26.17 89.64 26.52 77.79 26.87 74.23 27.22 76.6 27.57 77.79 27.92 77.79 28.27 74.23 28.61 70.68 28.96 74.23 29.31 86.08 29.66 95.56 30.01 89.64 30.36 99.12 30.71 89.64 31.06 81.34 31.41 86.08 31.76 83.71 32.11 86.08 32.45 83.71 32.8 94.38 33.15 94.38 33.5 100.3 33.85 102.67 34.2 96.75 34.55 106.23 34.9 103.86 35.25 108.6 35.6 107.41 35.95 108.6 36.3 109.78 36.64 105.04 36.99 101.49 37.34 107.41 37.69 109.78 38.04 101.49 38.39 99.12 38.74 89.64 39.09 92.01 39.44 92.01 39.79 89.64 40.14 94.38 40.49 101.49 40.83 97.93 41.18 90.82 41.53 87.27 41.88 84.9 42.23 86.08 42.58 84.9 42.93 80.16 43.28 75.42 43.63 74.23 43.98 68.31 44.33 65.94 44.67 63.57 45.02 69.49 45.37 71.86 45.72 83.71 46.07 80.16 46.42 70.68 46.77 61.2 47.12 57.64 47.47 55.27 47.82 62.38 48.17 60.01 48.52 60.01 48.86 58.83 49.21 63.57 49.56 60.01 49.91 60.01 50.26 61.2 50.61 65.94 50.96 62.38 51.31 68.31 51.66 70.68 52.01 68.31 52.36 73.05 52.7 69.49 53.05 74.23 53.4 83.71 53.75 89.64 54.1 97.93 54.45 97.93 54.8 97.93 55.15 94.38 55.5 97.93 55.85 101.49 56.2 103.86 56.55 113.34 56.89 109.78 57.24 103.86 57.59 102.67 57.94 97.93 58.29 99.12 58.64 102.67 58.99 113.34 59.34 109.78 59.69 112.15 60.04 105.04 60.39 102.67 60.73 101.49 61.08 99.12 61.43 97.93 61.78 102.67 62.13 101.49 62.48 107.41 62.83 116.89 63.18 119.26 63.53 115.71 63.88 119.26 64.23 125.19 64.58 126.37 64.92 122.82 65.27 125.19 65.62 122.82 65.97 113.34 66.32 107.41 66.67 103.86 67.02 100.3 67.37 105.04 67.72 107.41 68.07 110.97 68.42 99.12 68.77 94.38 69.11 93.19 69.46 88.45 69.81 90.82 70.16 94.38 70.51 88.45 70.86 86.08 71.21 81.34 71.56 73.05 71.91 69.49 72.26 55.27 72.61 41.05 72.95 31.57 73.3 29.2 73.65 29.2 74 29.2 74.35 29.2 74.7 30.39 75.05 26.83 75.4 29.2 75.75 33.94 76.1 26.83 76.45 31.57 76.8 28.02 77.14 22.09 77.49 22.09 77.84 23.28 78.19 28.02 78.54 24.46 78.89 17.35 79.24 13.8 79.59 13.8 79.94 13.8 80.29 12.61"/>
      </g>
      <g stroke-width="0.3" fill="#000000" fill-opacity="0.000" class="geometry" stroke-dasharray="none" stroke="#FEE08B" id="img-199bb76c-15">
        <path fill="none" d="M21.98,71.86 L 22.33 62.38 22.68 68.31 23.03 75.42 23.38 81.34 23.73 93.19 24.08 94.38 24.42 92.01 24.77 97.93 25.12 102.67 25.47 107.41 25.82 105.04 26.17 107.41 26.52 107.41 26.87 105.04 27.22 100.3 27.57 107.41 27.92 109.78 28.27 109.78 28.61 108.6 28.96 112.15 29.31 108.6 29.66 101.49 30.01 93.19 30.36 81.34 30.71 87.27 31.06 83.71 31.41 78.97 31.76 83.71 32.11 84.9 32.45 81.34 32.8 78.97 33.15 84.9 33.5 88.45 33.85 87.27 34.2 81.34 34.55 93.19 34.9 89.64 35.25 82.53 35.6 88.45 35.95 95.56 36.3 96.75 36.64 97.93 36.99 95.56 37.34 102.67 37.69 102.67 38.04 109.78 38.39 109.78 38.74 108.6 39.09 107.41 39.44 114.52 39.79 115.71 40.14 114.52 40.49 116.89 40.83 116.89 41.18 120.45 41.53 118.08 41.88 120.45 42.23 116.89 42.58 121.63 42.93 119.26 43.28 108.6 43.63 106.23 43.98 106.23 44.33 105.04 44.67 100.3 45.02 93.19 45.37 95.56 45.72 110.97 46.07 112.15 46.42 108.6 46.77 109.78 47.12 105.04 47.47 106.23 47.82 108.6 48.17 109.78 48.52 100.3 48.86 99.12 49.21 89.64 49.56 87.27 49.91 86.08 50.26 93.19 50.61 95.56 50.96 96.75 51.31 92.01 51.66 99.12 52.01 96.75 52.36 102.67 52.7 107.41 53.05 112.15 53.4 109.78 53.75 109.78 54.1 105.04 54.45 106.23 54.8 106.23 55.15 109.78 55.5 103.86 55.85 113.34 56.2 116.89 56.55 114.52 56.89 119.26 57.24 119.26 57.59 119.26 57.94 112.15 58.29 119.26 58.64 113.34 58.99 108.6 59.34 93.19 59.69 86.08 60.04 81.34 60.39 84.9 60.73 77.79 61.08 76.6 61.43 76.6 61.78 78.97 62.13 80.16 62.48 84.9 62.83 78.97 63.18 76.6 63.53 76.6 63.88 77.79 64.23 83.71 64.58 81.34 64.92 92.01 65.27 87.27 65.62 89.64 65.97 92.01 66.32 93.19 66.67 93.19 67.02 93.19 67.37 103.86 67.72 108.6 68.07 106.23 68.42 105.04 68.77 106.23 69.11 108.6 69.46 105.04 69.81 99.12 70.16 103.86 70.51 101.49 70.86 99.12 71.21 94.38 71.56 83.71 71.91 84.9 72.26 83.71 72.61 89.64 72.95 89.64 73.3 99.12 73.65 88.45 74 92.01 74.35 90.82 74.7 93.19 75.05 90.82 75.4 94.38 75.75 100.3 76.1 96.75 76.45 93.19 76.8 93.19 77.14 96.75 77.49 103.86 77.84 114.52 78.19 113.34 78.54 114.52 78.89 114.52 79.24 115.71 79.59 121.63 79.94 118.08 80.29 120.45 80.64 125.19 80.98 124 81.33 125.19 81.68 124 82.03 126.37 82.38 120.45 82.73 122.82 83.08 125.19 83.43 119.26 83.78 118.08 84.13 110.97 84.48 113.34 84.83 116.89 85.17 126.37 85.52 129.93 85.87 131.11"/>
      </g>
      <g stroke-width="0.3" fill="#000000" fill-opacity="0.000" class="geometry" stroke-dasharray="none" stroke="#FDAE61" id="img-199bb76c-16">
        <path fill="none" d="M21.98,71.86 L 22.33 67.12 22.68 74.23 23.03 73.05 23.38 65.94 23.73 65.94 24.08 58.83 24.42 52.9 24.77 62.38 25.12 60.01 25.47 62.38 25.82 52.9 26.17 48.16 26.52 60.01 26.87 64.75 27.22 73.05 27.57 77.79 27.92 81.34 28.27 80.16 28.61 86.08 28.96 93.19 29.31 94.38 29.66 96.75 30.01 100.3 30.36 95.56 30.71 99.12 31.06 94.38 31.41 92.01 31.76 96.75 32.11 92.01 32.45 94.38 32.8 86.08 33.15 88.45 33.5 92.01 33.85 95.56 34.2 99.12 34.55 99.12 34.9 96.75 35.25 101.49 35.6 101.49 35.95 99.12 36.3 99.12 36.64 90.82 36.99 100.3 37.34 99.12 37.69 101.49 38.04 94.38 38.39 93.19 38.74 100.3 39.09 88.45 39.44 81.34 39.79 81.34 40.14 87.27 40.49 78.97 40.83 78.97 41.18 78.97 41.53 80.16 41.88 73.05 42.23 61.2 42.58 68.31 42.93 69.49 43.28 78.97 43.63 75.42 43.98 75.42 44.33 88.45 44.67 76.6 45.02 75.42 45.37 75.42 45.72 75.42 46.07 81.34 46.42 75.42 46.77 76.6 47.12 71.86 47.47 75.42 47.82 77.79 48.17 83.71 48.52 87.27 48.86 84.9 49.21 77.79 49.56 81.34 49.91 77.79 50.26 74.23 50.61 81.34 50.96 80.16 51.31 76.6 51.66 76.6 52.01 78.97 52.36 75.42 52.7 82.53 53.05 82.53 53.4 92.01 53.75 87.27 54.1 83.71 54.45 83.71 54.8 77.79 55.15 67.12 55.5 74.23 55.85 74.23 56.2 74.23 56.55 71.86 56.89 69.49 57.24 75.42 57.59 75.42 57.94 71.86 58.29 70.68 58.64 75.42 58.99 76.6 59.34 69.49 59.69 74.23 60.04 82.53 60.39 76.6 60.73 75.42 61.08 77.79 61.43 78.97 61.78 70.68 62.13 62.38 62.48 76.6 62.83 77.79 63.18 81.34 63.53 83.71 63.88 87.27 64.23 89.64 64.58 89.64 64.92 84.9 65.27 83.71 65.62 87.27 65.97 76.6 66.32 70.68 66.67 73.05 67.02 78.97 67.37 76.6 67.72 67.12 68.07 76.6 68.42 77.79 68.77 78.97 69.11 73.05 69.46 68.31 69.81 67.12 70.16 58.83 70.51 51.72 70.86 49.35 71.21 41.05 71.56 42.24 71.91 38.68 72.26 36.31 72.61 28.02 72.95 24.46 73.3 24.46 73.65 20.91 74 22.09 74.35 24.46 74.7 28.02 75.05 37.5 75.4 49.35 75.75 45.79 76.1 52.9 76.45 46.98 76.8 48.16 77.14 50.53 77.49 56.46 77.84 52.9 78.19 55.27 78.54 61.2 78.89 61.2 79.24 73.05 79.59 74.23 79.94 68.31 80.29 75.42 80.64 81.34 80.98 87.27 81.33 83.71 81.68 90.82 82.03 89.64 82.38 86.08 82.73 97.93 83.08 105.04 83.43 97.93 83.78 94.38 84.13 107.41 84.48 108.6 84.83 97.93 85.17 103.86 85.52 106.23 85.87 105.04 86.22 107.41 86.57 109.78 86.92 110.97 87.27 103.86 87.62 100.3 87.97 96.75 88.32 97.93 88.67 102.67 89.02 107.41 89.36 113.34 89.71 113.34 90.06 108.6 90.41 102.67 90.76 102.67 91.11 103.86 91.46 105.04 91.81 108.6 92.16 109.78 92.51 105.04 92.86 100.3 93.2 99.12 93.55 109.78 93.9 113.34 94.25 110.97 94.6 108.6 94.95 109.78 95.3 103.86 95.65 99.12 96 99.12 96.35 107.41 96.7 110.97 97.05 103.86 97.39 102.67 97.74 107.41 98.09 107.41 98.44 112.15 98.79 114.52 99.14 116.89 99.49 120.45 99.84 121.63 100.19 126.37 100.54 127.56 100.89 128.74 101.23 131.11"/>
      </g>
      <g stroke-width="0.3" fill="#000000" fill-opacity="0.000" class="geometry" stroke-dasharray="none" stroke="#F46D43" id="img-199bb76c-17">
        <path fill="none" d="M21.98,71.86 L 22.33 81.34 22.68 78.97 23.03 75.42 23.38 69.49 23.73 77.79 24.08 69.49 24.42 76.6 24.77 67.12 25.12 57.64 25.47 51.72 25.82 48.16 26.17 52.9 26.52 50.53 26.87 52.9 27.22 52.9 27.57 55.27 27.92 57.64 28.27 56.46 28.61 49.35 28.96 49.35 29.31 48.16 29.66 45.79 30.01 51.72 30.36 55.27 30.71 52.9 31.06 51.72 31.41 56.46 31.76 60.01 32.11 60.01 32.45 56.46 32.8 63.57 33.15 62.38 33.5 58.83 33.85 62.38 34.2 65.94 34.55 56.46 34.9 55.27 35.25 51.72 35.6 58.83 35.95 62.38 36.3 63.57 36.64 56.46 36.99 51.72 37.34 54.09 37.69 57.64 38.04 60.01 38.39 65.94 38.74 61.2 39.09 52.9 39.44 50.53 39.79 38.68 40.14 37.5 40.49 41.05 40.83 32.76 41.18 20.91 41.53 19.72 41.88 16.17 42.23 16.17 42.58 14.98 42.93 12.61"/>
      </g>
      <g stroke-width="0.3" fill="#000000" fill-opacity="0.000" class="geometry" stroke-dasharray="none" stroke="#D53E4F" id="img-199bb76c-18">
        <path fill="none" d="M21.98,71.86 L 22.33 83.71 22.68 87.27 23.03 93.19 23.38 96.75 23.73 101.49 24.08 99.12 24.42 95.56 24.77 83.71 25.12 78.97 25.47 83.71 25.82 87.27 26.17 94.38 26.52 97.93 26.87 110.97 27.22 106.23 27.57 102.67 27.92 100.3 28.27 92.01 28.61 88.45 28.96 95.56 29.31 101.49 29.66 103.86 30.01 106.23 30.36 112.15 30.71 109.78 31.06 114.52 31.41 114.52 31.76 106.23 32.11 101.49 32.45 106.23 32.8 107.41 33.15 105.04 33.5 100.3 33.85 97.93 34.2 97.93 34.55 99.12 34.9 101.49 35.25 108.6 35.6 113.34 35.95 115.71 36.3 113.34 36.64 114.52 36.99 113.34 37.34 119.26 37.69 120.45 38.04 125.19 38.39 116.89 38.74 118.08 39.09 125.19 39.44 122.82 39.79 124 40.14 124 40.49 124 40.83 127.56 41.18 128.74 41.53 129.93 41.88 129.93 42.23 131.11"/>
      </g>
      <g stroke-width="0.3" fill="#000000" fill-opacity="0.000" class="geometry" stroke-dasharray="none" stroke="#9E0142" id="img-199bb76c-19">
        <path fill="none" d="M21.98,71.86 L 22.33 75.42 22.68 93.19 23.03 94.38 23.38 101.49 23.73 103.86 24.08 108.6 24.42 109.78 24.77 108.6 25.12 106.23 25.47 107.41 25.82 108.6 26.17 114.52 26.52 110.97 26.87 118.08 27.22 116.89 27.57 122.82 27.92 125.19 28.27 126.37 28.61 126.37 28.96 127.56 29.31 128.74 29.66 129.93 30.01 131.11"/>
      </g>
    </g>
  </g>
</g>
  <g class="guide ylabels" font-size="2.82" font-family="'PT Sans Caption','Helvetica Neue','Helvetica',sans-serif" fill="#000000" id="img-199bb76c-20">
    <text x="18.63" y="131.11" text-anchor="end" dy="0.35em">0</text>
    <text x="18.63" y="71.86" text-anchor="end" dy="0.35em">50</text>
    <text x="18.63" y="12.61" text-anchor="end" dy="0.35em">100</text>
  </g>
  <g font-size="3.88" font-family="'PT Sans','Helvetica Neue','Helvetica',sans-serif" fill="#000000" stroke="#000000" stroke-opacity="0.000" id="img-199bb76c-21">
    <text x="8.81" y="69.86" text-anchor="middle" dy="0.35em" transform="rotate(-90, 8.81, 71.86)">population number</text>
  </g>
  <g font-size="3.88" font-family="'PT Sans','Helvetica Neue','Helvetica',sans-serif" fill="#000000" stroke="#000000" stroke-opacity="0.000" id="img-199bb76c-22">
    <text x="108.92" y="5" text-anchor="middle" dy="0.6em">genetic drift</text>
  </g>
</g>
<defs>
  <clipPath id="img-199bb76c-4">
  <path d="M19.63,10.61 L 198.2 10.61 198.2 133.11 19.63 133.11" />
</clipPath>
</defs>
</svg>
