<?xml version="1.0" encoding="UTF-8"?>
<svg xmlns="http://www.w3.org/2000/svg"
     xmlns:xlink="http://www.w3.org/1999/xlink"
     xmlns:gadfly="http://www.gadflyjl.org/ns"
     version="1.2"
     width="203.2mm" height="152.4mm" viewBox="0 0 203.2 152.4"
     stroke="none"
     fill="#000000"
     stroke-width="0.3"
     font-size="3.88"
>
<g class="plotroot xscalable yscalable" id="img-8531a47a-1">
  <g font-size="3.88" font-family="'PT Sans','Helvetica Neue','Helvetica',sans-serif" fill="#000000" stroke="#000000" stroke-opacity="0.000" id="img-8531a47a-2">
    <text x="108.92" y="140.79" text-anchor="middle" dy="0.6em">generation number</text>
  </g>
  <g class="guide xlabels" font-size="2.82" font-family="'PT Sans Caption','Helvetica Neue','Helvetica',sans-serif" fill="#000000" id="img-8531a47a-3">
    <text x="21.63" y="134.11" text-anchor="middle" dy="0.6em">0</text>
    <text x="56.55" y="134.11" text-anchor="middle" dy="0.6em">100</text>
    <text x="91.46" y="134.11" text-anchor="middle" dy="0.6em">200</text>
    <text x="126.37" y="134.11" text-anchor="middle" dy="0.6em">300</text>
    <text x="161.29" y="134.11" text-anchor="middle" dy="0.6em">400</text>
    <text x="196.2" y="134.11" text-anchor="middle" dy="0.6em">500</text>
  </g>
<g clip-path="url(#img-8531a47a-4)">
  <g id="img-8531a47a-5">
    <g pointer-events="visible" opacity="1" fill="#FFFFFF" stroke="#000000" stroke-opacity="0.000" class="guide background" id="img-8531a47a-6">
      <rect x="19.63" y="10.61" width="178.57" height="122.5"/>
    </g>
    <g class="guide ygridlines xfixed" stroke-dasharray="0.5,0.5" stroke-width="0.2" stroke="#808080" id="img-8531a47a-7">
      <path fill="none" d="M19.63,131.11 L 198.2 131.11"/>
      <path fill="none" d="M19.63,101.49 L 198.2 101.49"/>
      <path fill="none" d="M19.63,71.86 L 198.2 71.86"/>
      <path fill="none" d="M19.63,42.24 L 198.2 42.24"/>
      <path fill="none" d="M19.63,12.61 L 198.2 12.61"/>
    </g>
    <g class="guide xgridlines yfixed" stroke-dasharray="0.5,0.5" stroke-width="0.2" stroke="#808080" id="img-8531a47a-8">
      <path fill="none" d="M21.63,10.61 L 21.63 133.11"/>
      <path fill="none" d="M56.55,10.61 L 56.55 133.11"/>
      <path fill="none" d="M91.46,10.61 L 91.46 133.11"/>
      <path fill="none" d="M126.37,10.61 L 126.37 133.11"/>
      <path fill="none" d="M161.29,10.61 L 161.29 133.11"/>
      <path fill="none" d="M196.2,10.61 L 196.2 133.11"/>
    </g>
    <g class="plotpanel" id="img-8531a47a-9">
      <g stroke-width="0.3" fill="#000000" fill-opacity="0.000" class="geometry" stroke-dasharray="none" stroke="#3288BD" id="img-8531a47a-10">
        <path fill="none" d="M21.98,71.86 L 22.33 73.05 22.68 72.46 23.03 69.49 23.38 76.6 23.73 76.01 24.08 78.38 24.42 79.57 24.77 78.97 25.12 81.34 25.47 76.01 25.82 77.2 26.17 80.16 26.52 84.31 26.87 90.82 27.22 87.27 27.57 90.23 27.92 82.53 28.27 85.49 28.61 90.82 28.96 92.6 29.31 96.75 29.66 97.34 30.01 89.64 30.36 86.08 30.71 93.79 31.06 88.45 31.41 85.49 31.76 86.08 32.11 86.68 32.45 86.68 32.8 86.08 33.15 91.42 33.5 83.12 33.85 83.12 34.2 80.75 34.55 78.97 34.9 78.97 35.25 74.23 35.6 73.05 35.95 70.68 36.3 67.12 36.64 58.83 36.99 62.98 37.34 62.98 37.69 67.72 38.04 70.09 38.39 64.75 38.74 57.64 39.09 60.61 39.44 57.05 39.79 60.01 40.14 58.24 40.49 57.05 40.83 55.87 41.18 55.87 41.53 53.5 41.88 53.5 42.23 56.46 42.58 57.64 42.93 58.24 43.28 62.38 43.63 61.79 43.98 64.16 44.33 68.9 44.67 71.27 45.02 67.72 45.37 57.64 45.72 65.35 46.07 64.16 46.42 60.01 46.77 57.05 47.12 54.09 47.47 48.76 47.82 50.53 48.17 49.35 48.52 44.02 48.86 36.9 49.21 32.16 49.56 33.94 49.91 33.35 50.26 28.61 50.61 22.09 50.96 18.54 51.31 20.31 51.66 20.31 52.01 20.31 52.36 19.13 52.7 18.54 53.05 19.13 53.4 20.91 53.75 17.94 54.1 14.98 54.45 14.98 54.8 15.57 55.15 16.17 55.5 16.76 55.85 15.57 56.2 16.76 56.55 14.98 56.89 13.8 57.24 12.61"/>
      </g>
      <g stroke-width="0.3" fill="#000000" fill-opacity="0.000" class="geometry" stroke-dasharray="none" stroke="#66C2A5" id="img-8531a47a-11">
        <path fill="none" d="M21.98,71.86 L 22.33 70.68 22.68 68.31 23.03 66.53 23.38 73.05 23.73 71.27 24.08 75.42 24.42 81.34 24.77 81.34 25.12 87.27 25.47 83.71 25.82 85.49 26.17 80.75 26.52 74.83 26.87 73.64 27.22 76.6 27.57 76.6 27.92 70.09 28.27 71.27 28.61 64.75 28.96 71.27 29.31 76.6 29.66 74.23 30.01 80.16 30.36 82.53 30.71 80.75 31.06 85.49 31.41 89.64 31.76 96.75 32.11 93.19 32.45 87.86 32.8 86.68 33.15 90.23 33.5 88.45 33.85 89.64 34.2 93.79 34.55 96.75 34.9 90.82 35.25 90.82 35.6 87.86 35.95 87.86 36.3 87.86 36.64 86.08 36.99 83.71 37.34 80.75 37.69 74.83 38.04 74.23 38.39 75.42 38.74 74.83 39.09 68.9 39.44 68.31 39.79 70.09 40.14 70.68 40.49 63.57 40.83 67.72 41.18 67.72 41.53 71.86 41.88 68.9 42.23 68.9 42.58 74.23 42.93 77.79 43.28 71.27 43.63 64.75 43.98 65.35 44.33 74.83 44.67 80.16 45.02 81.34 45.37 86.08 45.72 88.45 46.07 89.05 46.42 81.94 46.77 80.75 47.12 84.31 47.47 85.49 47.82 87.27 48.17 84.31 48.52 80.16 48.86 82.53 49.21 83.71 49.56 94.97 49.91 95.56 50.26 96.16 50.61 92.01 50.96 90.82 51.31 86.68 51.66 93.19 52.01 96.75 52.36 92.01 52.7 97.34 53.05 98.53 53.4 98.53 53.75 98.53 54.1 97.34 54.45 100.3 54.8 100.9 55.15 101.49 55.5 108.6 55.85 100.9 56.2 95.56 56.55 93.19 56.89 83.12 57.24 89.64 57.59 87.27 57.94 85.49 58.29 86.68 58.64 89.05 58.99 90.82 59.34 89.05 59.69 88.45 60.04 90.82 60.39 93.79 60.73 89.64 61.08 96.16 61.43 93.19 61.78 96.16 62.13 95.56 62.48 95.56 62.83 92.01 63.18 90.82 63.53 87.86 63.88 84.31 64.23 85.49 64.58 91.42 64.92 86.08 65.27 73.64 65.62 70.09 65.97 70.09 66.32 63.57 66.67 65.94 67.02 65.94 67.37 65.35 67.72 70.68 68.07 66.53 68.42 62.38 68.77 62.38 69.11 70.09 69.46 68.31 69.81 67.12 70.16 63.57 70.51 65.35 70.86 67.12 71.21 68.31 71.56 65.94 71.91 66.53 72.26 68.31 72.61 66.53 72.95 66.53 73.3 65.94 73.65 61.2 74 59.42 74.35 55.87 74.7 57.64 75.05 48.16 75.4 44.02 75.75 37.5 76.1 39.27 76.45 36.31 76.8 36.31 77.14 37.5 77.49 40.46 77.84 36.9 78.19 38.68 78.54 41.05 78.89 42.83 79.24 39.87 79.59 40.46 79.94 38.09 80.29 35.13 80.64 33.94 80.98 32.16 81.33 30.39 81.68 33.94 82.03 33.94 82.38 39.87 82.73 39.87 83.08 42.83 83.43 41.05 83.78 39.27 84.13 44.02 84.48 44.61 84.83 41.05 85.17 39.27 85.52 38.68 85.87 38.09 86.22 39.87 86.57 42.24 86.92 41.64 87.27 41.64 87.62 38.68 87.97 47.57 88.32 46.39 88.67 42.24 89.02 44.02 89.36 40.46 89.71 42.83 90.06 47.57 90.41 46.39 90.76 48.16 91.11 52.9 91.46 51.72 91.81 52.31 92.16 54.68 92.51 54.09 92.86 51.13 93.2 46.98 93.55 41.64 93.9 39.87 94.25 41.64 94.6 42.24 94.95 41.05 95.3 43.42 95.65 39.27 96 35.72 96.35 40.46 96.7 41.64 97.05 44.61 97.39 44.61 97.74 47.57 98.09 49.94 98.44 41.64 98.79 38.09 99.14 36.9 99.49 41.64 99.84 37.5 100.19 35.72 100.54 32.16 100.89 36.9 101.23 33.94 101.58 31.57 101.93 33.94 102.28 35.72 102.63 33.94 102.98 36.31 103.33 37.5 103.68 39.87 104.03 42.24 104.38 37.5 104.73 34.53 105.08 36.9 105.42 36.31 105.77 38.68 106.12 48.76 106.47 57.64 106.82 50.53 107.17 51.72 107.52 44.02 107.87 42.24 108.22 36.9 108.57 36.9 108.92 37.5 109.26 39.87 109.61 35.13 109.96 31.57 110.31 30.98 110.66 29.2 111.01 33.94 111.36 31.57 111.71 30.39 112.06 28.61 112.41 31.57 112.76 32.76 113.11 28.61 113.45 24.46 113.8 26.83 114.15 27.42 114.5 24.46 114.85 25.65 115.2 22.68 115.55 22.09 115.9 22.68 116.25 21.5 116.6 24.46 116.95 27.42 117.3 28.02 117.64 30.39 117.99 33.94 118.34 32.76 118.69 31.57 119.04 33.35 119.39 32.16 119.74 27.42 120.09 25.05 120.44 23.87 120.79 26.24 121.14 26.24 121.48 28.61 121.83 30.98 122.18 31.57 122.53 36.31 122.88 29.2 123.23 32.76 123.58 28.02 123.93 28.02 124.28 26.83 124.63 32.76 124.98 33.94 125.33 30.98 125.67 28.02 126.02 22.68 126.37 20.91 126.72 23.28 127.07 25.05 127.42 25.05 127.77 23.28 128.12 22.68 128.47 23.28 128.82 20.91 129.17 23.87 129.51 26.83 129.86 25.65 130.21 22.09 130.56 25.05 130.91 26.83 131.26 25.65 131.61 26.83 131.96 32.76 132.31 28.61 132.66 23.87 133.01 22.09 133.36 19.72 133.7 18.54 134.05 19.13 134.4 19.13 134.75 19.72 135.1 22.09 135.45 25.65 135.8 22.09 136.15 20.31 136.5 20.91 136.85 18.54 137.2 20.31 137.55 21.5 137.89 22.09 138.24 23.28 138.59 18.54 138.94 19.13 139.29 18.54 139.64 20.31 139.99 19.72 140.34 16.17 140.69 18.54 141.04 19.13 141.39 16.17 141.73 17.35 142.08 17.35 142.43 15.57 142.78 14.98 143.13 16.76 143.48 16.76 143.83 17.35 144.18 17.35 144.53 15.57 144.88 14.98 145.23 14.98 145.58 14.98 145.92 16.17 146.27 16.76 146.62 16.76 146.97 18.54 147.32 20.31 147.67 19.13 148.02 17.94 148.37 18.54 148.72 18.54 149.07 18.54 149.42 18.54 149.76 16.17 150.11 14.98 150.46 15.57 150.81 14.98 151.16 14.39 151.51 13.2 151.86 13.2 152.21 12.61"/>
      </g>
      <g stroke-width="0.3" fill="#000000" fill-opacity="0.000" class="geometry" stroke-dasharray="none" stroke="#ABDDA4" id="img-8531a47a-12">
        <path fill="none" d="M21.98,71.86 L 22.33 73.05 22.68 71.27 23.03 70.09 23.38 57.05 23.73 47.57 24.08 46.98 24.42 49.35 24.77 53.5 25.12 49.94 25.47 53.5 25.82 54.68 26.17 59.42 26.52 61.2 26.87 64.75 27.22 69.49 27.57 64.16 27.92 72.46 28.27 76.6 28.61 72.46 28.96 67.12 29.31 70.68 29.66 69.49 30.01 74.83 30.36 70.68 30.71 65.94 31.06 66.53 31.41 59.42 31.76 58.24 32.11 58.83 32.45 66.53 32.8 62.38 33.15 54.09 33.5 54.09 33.85 51.13 34.2 46.39 34.55 38.09 34.9 42.24 35.25 40.46 35.6 35.13 35.95 36.9 36.3 33.35 36.64 34.53 36.99 32.16 37.34 32.16 37.69 28.02 38.04 23.28 38.39 23.28 38.74 26.24 39.09 35.13 39.44 36.31 39.79 35.72 40.14 36.31 40.49 35.13 40.83 38.68 41.18 29.79 41.53 25.65 41.88 27.42 42.23 22.68 42.58 20.91 42.93 21.5 43.28 21.5 43.63 19.72 43.98 17.94 44.33 17.35 44.67 15.57 45.02 14.39 45.37 13.8 45.72 13.8 46.07 13.2 46.42 13.8 46.77 12.61"/>
      </g>
      <g stroke-width="0.3" fill="#000000" fill-opacity="0.000" class="geometry" stroke-dasharray="none" stroke="#E6F598" id="img-8531a47a-13">
        <path fill="none" d="M21.98,71.86 L 22.33 68.31 22.68 65.94 23.03 68.9 23.38 67.72 23.73 62.98 24.08 62.38 24.42 55.87 24.77 61.2 25.12 60.61 25.47 55.87 25.82 47.57 26.17 46.98 26.52 51.13 26.87 49.35 27.22 49.35 27.57 54.09 27.92 55.27 28.27 59.42 28.61 57.05 28.96 55.27 29.31 57.05 29.66 58.83 30.01 57.05 30.36 61.79 30.71 66.53 31.06 58.24 31.41 57.05 31.76 55.27 32.11 59.42 32.45 52.31 32.8 50.53 33.15 54.09 33.5 53.5 33.85 51.72 34.2 58.24 34.55 51.13 34.9 57.05 35.25 57.64 35.6 56.46 35.95 62.98 36.3 64.16 36.64 61.79 36.99 61.79 37.34 64.75 37.69 64.16 38.04 67.72 38.39 76.01 38.74 81.34 39.09 83.71 39.44 77.79 39.79 81.34 40.14 71.86 40.49 68.9 40.83 64.75 41.18 62.98 41.53 66.53 41.88 60.01 42.23 60.01 42.58 61.2 42.93 61.79 43.28 60.01 43.63 65.94 43.98 61.2 44.33 57.05 44.67 66.53 45.02 62.98 45.37 64.75 45.72 62.38 46.07 64.16 46.42 71.86 46.77 76.01 47.12 70.09 47.47 67.72 47.82 76.6 48.17 71.27 48.52 70.68 48.86 73.05 49.21 64.75 49.56 60.01 49.91 58.24 50.26 55.27 50.61 56.46 50.96 64.16 51.31 62.38 51.66 62.38 52.01 61.2 52.36 58.24 52.7 52.9 53.05 56.46 53.4 53.5 53.75 54.68 54.1 60.61 54.45 64.16 54.8 65.94 55.15 63.57 55.5 64.16 55.85 67.72 56.2 67.12 56.55 77.2 56.89 83.12 57.24 79.57 57.59 89.05 57.94 83.71 58.29 88.45 58.64 85.49 58.99 88.45 59.34 86.68 59.69 83.71 60.04 84.9 60.39 83.12 60.73 81.34 61.08 87.27 61.43 86.68 61.78 84.9 62.13 84.31 62.48 84.9 62.83 89.64 63.18 88.45 63.53 89.05 63.88 84.9 64.23 91.42 64.58 89.64 64.92 91.42 65.27 89.05 65.62 84.9 65.97 86.68 66.32 83.12 66.67 78.97 67.02 80.75 67.37 81.34 67.72 81.94 68.07 87.86 68.42 90.82 68.77 81.34 69.11 83.71 69.46 79.57 69.81 78.38 70.16 77.79 70.51 86.08 70.86 88.45 71.21 93.79 71.56 93.79 71.91 97.34 72.26 93.79 72.61 94.38 72.95 89.05 73.3 88.45 73.65 89.05 74 93.79 74.35 92.6 74.7 96.75 75.05 90.23 75.4 82.53 75.75 82.53 76.1 86.68 76.45 73.05 76.8 72.46 77.14 75.42 77.49 74.23 77.84 78.38 78.19 80.16 78.54 70.68 78.89 74.83 79.24 74.23 79.59 80.75 79.94 80.75 80.29 78.38 80.64 87.27 80.98 90.23 81.33 89.05 81.68 98.53 82.03 96.16 82.38 99.71 82.73 96.75 83.08 93.79 83.43 96.75 83.78 97.34 84.13 101.49 84.48 103.86 84.83 102.67 85.17 102.67 85.52 103.86 85.87 103.27 86.22 111.56 86.57 112.15 86.92 116.3 87.27 117.49 87.62 122.23 87.97 122.23 88.32 123.41 88.67 122.23 89.02 127.56 89.36 128.15 89.71 124.6 90.06 128.74 90.41 127.56 90.76 126.97 91.11 128.74 91.46 126.97 91.81 128.15 92.16 128.15 92.51 129.34 92.86 129.34 93.2 129.34 93.55 128.15 93.9 126.37 94.25 124.6 94.6 124.6 94.95 124 95.3 122.23 95.65 124 96 127.56 96.35 126.97 96.7 123.41 97.05 124 97.39 128.15 97.74 126.37 98.09 127.56 98.44 130.52 98.79 130.52 99.14 131.11"/>
      </g>
      <g stroke-width="0.3" fill="#000000" fill-opacity="0.000" class="geometry" stroke-dasharray="none" stroke="#FFFFBF" id="img-8531a47a-14">
        <path fill="none" d="M21.98,71.86 L 22.33 70.09 22.68 70.68 23.03 64.16 23.38 65.35 23.73 64.75 24.08 70.68 24.42 71.86 24.77 67.12 25.12 62.98 25.47 65.35 25.82 66.53 26.17 65.94 26.52 66.53 26.87 69.49 27.22 67.12 27.57 61.79 27.92 65.94 28.27 62.38 28.61 63.57 28.96 61.2 29.31 65.94 29.66 61.79 30.01 62.98 30.36 61.79 30.71 58.83 31.06 61.79 31.41 60.01 31.76 57.05 32.11 56.46 32.45 51.72 32.8 53.5 33.15 57.05 33.5 55.87 33.85 57.05 34.2 57.05 34.55 58.83 34.9 47.57 35.25 49.94 35.6 49.35 35.95 54.68 36.3 56.46 36.64 58.83 36.99 48.16 37.34 45.79 37.69 46.39 38.04 42.83 38.39 41.64 38.74 43.42 39.09 46.98 39.44 45.2 39.79 38.68 40.14 38.68 40.49 32.76 40.83 30.39 41.18 28.02 41.53 30.98 41.88 34.53 42.23 32.16 42.58 29.79 42.93 32.16 43.28 30.39 43.63 26.24 43.98 24.46 44.33 25.05 44.67 29.2 45.02 33.35 45.37 32.16 45.72 25.65 46.07 24.46 46.42 26.83 46.77 20.31 47.12 19.13 47.47 19.13 47.82 20.91 48.17 20.91 48.52 22.68 48.86 21.5 49.21 23.28 49.56 23.28 49.91 23.87 50.26 22.68 50.61 24.46 50.96 26.83 51.31 25.65 51.66 30.98 52.01 32.76 52.36 35.13 52.7 36.9 53.05 39.27 53.4 37.5 53.75 37.5 54.1 36.9 54.45 35.72 54.8 38.09 55.15 39.27 55.5 32.76 55.85 35.13 56.2 30.39 56.55 31.57 56.89 26.24 57.24 25.65 57.59 27.42 57.94 25.05 58.29 32.16 58.64 32.76 58.99 35.13 59.34 29.79 59.69 26.83 60.04 29.2 60.39 26.83 60.73 26.83 61.08 29.79 61.43 33.35 61.78 35.13 62.13 30.98 62.48 27.42 62.83 26.83 63.18 32.76 63.53 35.72 63.88 28.61 64.23 28.61 64.58 33.94 64.92 38.09 65.27 39.27 65.62 42.24 65.97 41.64 66.32 38.09 66.67 39.27 67.02 37.5 67.37 34.53 67.72 32.16 68.07 29.2 68.42 30.39 68.77 34.53 69.11 36.9 69.46 34.53 69.81 33.35 70.16 36.9 70.51 33.94 70.86 36.31 71.21 40.46 71.56 41.05 71.91 37.5 72.26 35.72 72.61 31.57 72.95 33.35 73.3 33.94 73.65 33.35 74 35.72 74.35 42.24 74.7 45.2 75.05 46.39 75.4 43.42 75.75 39.27 76.1 40.46 76.45 41.64 76.8 45.2 77.14 46.39 77.49 50.53 77.84 47.57 78.19 48.76 78.54 46.98 78.89 52.9 79.24 49.35 79.59 46.98 79.94 42.83 80.29 44.02 80.64 47.57 80.98 48.16 81.33 45.2 81.68 45.2 82.03 43.42 82.38 35.72 82.73 37.5 83.08 38.68 83.43 39.87 83.78 36.31 84.13 36.31 84.48 44.61 84.83 43.42 85.17 48.76 85.52 44.61 85.87 47.57 86.22 44.02 86.57 44.61 86.92 39.87 87.27 36.9 87.62 39.87 87.97 38.68 88.32 36.9 88.67 40.46 89.02 38.68 89.36 40.46 89.71 43.42 90.06 44.02 90.41 40.46 90.76 39.87 91.11 39.27 91.46 31.57 91.81 32.16 92.16 31.57 92.51 35.13 92.86 38.09 93.2 40.46 93.55 41.05 93.9 44.61 94.25 45.2 94.6 46.39 94.95 50.53 95.3 51.72 95.65 50.53 96 55.27 96.35 55.27 96.7 51.72 97.05 57.64 97.39 49.94 97.74 45.79 98.09 48.16 98.44 48.76 98.79 49.35 99.14 49.94 99.49 46.39 99.84 42.24 100.19 41.64 100.54 42.83 100.89 36.9 101.23 38.68 101.58 39.87 101.93 43.42 102.28 44.61 102.63 46.39 102.98 48.76 103.33 51.13 103.68 46.39 104.03 44.02 104.38 46.39 104.73 51.72 105.08 55.87 105.42 54.09 105.77 46.98 106.12 41.05 106.47 37.5 106.82 35.13 107.17 33.35 107.52 33.94 107.87 35.72 108.22 39.27 108.57 42.24 108.92 43.42 109.26 44.02 109.61 46.39 109.96 44.61 110.31 45.2 110.66 41.05 111.01 43.42 111.36 47.57 111.71 48.76 112.06 46.98 112.41 54.09 112.76 48.76 113.11 42.83 113.45 42.83 113.8 39.27 114.15 42.83 114.5 40.46 114.85 42.83 115.2 42.83 115.55 44.02 115.9 39.27 116.25 41.64 116.6 49.35 116.95 41.05 117.3 47.57 117.64 51.72 117.99 54.68 118.34 54.68 118.69 59.42 119.04 64.16 119.39 72.46 119.74 67.72 120.09 59.42 120.44 58.83 120.79 58.24 121.14 60.01 121.48 59.42 121.83 55.27 122.18 55.27 122.53 47.57 122.88 49.94 123.23 46.98 123.58 55.27 123.93 61.2 124.28 60.61 124.63 60.61 124.98 61.2 125.33 55.27 125.67 53.5 126.02 52.9 126.37 51.13 126.72 48.76 127.07 49.94 127.42 48.76 127.77 50.53 128.12 50.53 128.47 47.57 128.82 45.79 129.17 47.57 129.51 49.35 129.86 51.72 130.21 49.35 130.56 44.02 130.91 43.42 131.26 40.46 131.61 41.05 131.96 36.9 132.31 38.68 132.66 39.87 133.01 39.87 133.36 36.9 133.7 36.9 134.05 32.76 134.4 29.79 134.75 30.39 135.1 31.57 135.45 29.2 135.8 31.57 136.15 26.83 136.5 26.24 136.85 30.98 137.2 30.39 137.55 33.94 137.89 33.94 138.24 29.2 138.59 28.02 138.94 28.02 139.29 29.2 139.64 26.83 139.99 25.65 140.34 26.24 140.69 23.87 141.04 26.83 141.39 28.02 141.73 29.2 142.08 29.79 142.43 34.53 142.78 39.27 143.13 41.64 143.48 44.02 143.83 36.9 144.18 36.31 144.53 39.27 144.88 33.94 145.23 30.98 145.58 32.16 145.92 33.94 146.27 39.27 146.62 40.46 146.97 32.16 147.32 33.94 147.67 32.76 148.02 33.94 148.37 38.09 148.72 33.35 149.07 38.09 149.42 33.35 149.76 29.2 150.11 29.79 150.46 28.02 150.81 29.79 151.16 33.35 151.51 31.57 151.86 32.76 152.21 32.16 152.56 33.35 152.91 30.39 153.26 32.76 153.61 38.68 153.95 43.42 154.3 46.39 154.65 46.39 155 46.98 155.35 51.13 155.7 57.05 156.05 49.35 156.4 53.5 156.75 51.72 157.1 50.53 157.45 46.39 157.79 45.79 158.14 48.76 158.49 42.83 158.84 46.39 159.19 42.83 159.54 38.09 159.89 42.24 160.24 39.87 160.59 42.24 160.94 46.98 161.29 47.57 161.64 49.94 161.98 51.72 162.33 48.76 162.68 36.31 163.03 36.31 163.38 37.5 163.73 35.13 164.08 33.94 164.43 34.53 164.78 33.94 165.13 32.16 165.48 29.2 165.83 31.57 166.17 33.94 166.52 36.9 166.87 38.68 167.22 46.98 167.57 44.61 167.92 46.98 168.27 41.64 168.62 42.83 168.97 41.05 169.32 44.61 169.67 52.9 170.01 48.76 170.36 45.79 170.71 51.72 171.06 52.9 171.41 62.38 171.76 64.75 172.11 65.94 172.46 74.23 172.81 76.6 173.16 72.46 173.51 68.9 173.86 71.86 174.2 83.12 174.55 88.45 174.9 88.45 175.25 87.27 175.6 86.68 175.95 90.82 176.3 90.23 176.65 86.68 177 89.64 177.35 88.45 177.7 84.31 178.04 83.71 178.39 84.31 178.74 81.34 179.09 81.94 179.44 87.86 179.79 90.82 180.14 86.08 180.49 89.05 180.84 91.42 181.19 87.27 181.54 89.05 181.89 89.05 182.23 92.01 182.58 91.42 182.93 84.9 183.28 87.27 183.63 87.27 183.98 82.53 184.33 85.49 184.68 81.34 185.03 83.12 185.38 80.75 185.73 80.16 186.08 84.9 186.42 88.45 186.77 94.38 187.12 91.42 187.47 93.19 187.82 92.6 188.17 96.75 188.52 103.86 188.87 98.53 189.22 100.9 189.57 105.04 189.92 103.86 190.26 102.67 190.61 105.64 190.96 106.82 191.31 116.89 191.66 118.08 192.01 115.12 192.36 109.19 192.71 109.19 193.06 114.52 193.41 116.89 193.76 118.08 194.11 116.89 194.45 114.52 194.8 114.52 195.15 114.52 195.5 114.52 195.85 111.56 196.2 112.75"/>
      </g>
      <g stroke-width="0.3" fill="#000000" fill-opacity="0.000" class="geometry" stroke-dasharray="none" stroke="#FEE08B" id="img-8531a47a-15">
        <path fill="none" d="M21.98,71.86 L 22.33 73.05 22.68 72.46 23.03 77.2 23.38 81.34 23.73 79.57 24.08 76.6 24.42 75.42 24.77 78.97 25.12 74.83 25.47 78.38 25.82 76.01 26.17 75.42 26.52 79.57 26.87 82.53 27.22 80.75 27.57 76.01 27.92 75.42 28.27 84.31 28.61 87.86 28.96 86.68 29.31 78.97 29.66 78.38 30.01 75.42 30.36 77.2 30.71 73.64 31.06 73.64 31.41 70.09 31.76 68.9 32.11 67.12 32.45 75.42 32.8 69.49 33.15 64.16 33.5 59.42 33.85 67.12 34.2 70.09 34.55 73.64 34.9 66.53 35.25 67.72 35.6 65.94 35.95 68.31 36.3 61.2 36.64 65.94 36.99 61.2 37.34 62.38 37.69 57.64 38.04 55.27 38.39 60.61 38.74 57.05 39.09 64.16 39.44 69.49 39.79 73.64 40.14 70.68 40.49 64.16 40.83 67.72 41.18 68.31 41.53 73.64 41.88 78.38 42.23 84.31 42.58 86.08 42.93 88.45 43.28 76.01 43.63 81.34 43.98 81.94 44.33 78.38 44.67 83.12 45.02 87.27 45.37 85.49 45.72 92.01 46.07 93.79 46.42 100.3 46.77 99.12 47.12 106.23 47.47 106.82 47.82 109.19 48.17 108.01 48.52 110.97 48.86 113.93 49.21 113.93 49.56 116.89 49.91 117.49 50.26 119.86 50.61 120.45 50.96 119.26 51.31 117.49 51.66 118.08 52.01 118.67 52.36 120.45 52.7 120.45 53.05 122.82 53.4 123.41 53.75 119.86 54.1 118.08 54.45 118.67 54.8 119.26 55.15 120.45 55.5 118.67 55.85 118.67 56.2 117.49 56.55 119.26 56.89 115.71 57.24 114.52 57.59 119.26 57.94 118.67 58.29 121.63 58.64 120.45 58.99 121.04 59.34 118.67 59.69 116.3 60.04 112.15 60.39 110.97 60.73 107.41 61.08 113.34 61.43 112.75 61.78 113.34 62.13 118.08 62.48 119.26 62.83 119.26 63.18 121.63 63.53 121.63 63.88 122.23 64.23 120.45 64.58 119.86 64.92 117.49 65.27 117.49 65.62 118.08 65.97 118.67 66.32 118.67 66.67 119.26 67.02 119.86 67.37 125.78 67.72 124.6 68.07 126.97 68.42 128.15 68.77 126.37 69.11 125.78 69.46 127.56 69.81 128.74 70.16 128.15 70.51 128.15 70.86 129.93 71.21 129.93 71.56 129.34 71.91 129.34 72.26 130.52 72.61 130.52 72.95 129.93 73.3 128.74 73.65 129.34 74 130.52 74.35 130.52 74.7 130.52 75.05 129.93 75.4 129.34 75.75 129.34 76.1 127.56 76.45 129.93 76.8 130.52 77.14 130.52 77.49 130.52 77.84 129.93 78.19 130.52 78.54 131.11"/>
      </g>
      <g stroke-width="0.3" fill="#000000" fill-opacity="0.000" class="geometry" stroke-dasharray="none" stroke="#FDAE61" id="img-8531a47a-16">
        <path fill="none" d="M21.98,71.86 L 22.33 64.75 22.68 61.2 23.03 64.75 23.38 68.31 23.73 63.57 24.08 60.01 24.42 61.2 24.77 61.79 25.12 58.83 25.47 64.16 25.82 67.72 26.17 65.35 26.52 62.98 26.87 66.53 27.22 64.16 27.57 62.98 27.92 55.87 28.27 57.05 28.61 52.31 28.96 52.31 29.31 54.68 29.66 56.46 30.01 54.09 30.36 57.05 30.71 56.46 31.06 53.5 31.41 49.94 31.76 52.9 32.11 49.94 32.45 46.98 32.8 53.5 33.15 61.79 33.5 56.46 33.85 58.83 34.2 55.87 34.55 51.72 34.9 47.57 35.25 45.79 35.6 45.79 35.95 54.09 36.3 52.31 36.64 49.35 36.99 47.57 37.34 56.46 37.69 60.61 38.04 61.79 38.39 64.75 38.74 70.68 39.09 75.42 39.44 77.79 39.79 80.16 40.14 86.68 40.49 89.05 40.83 88.45 41.18 83.12 41.53 73.64 41.88 73.05 42.23 68.31 42.58 68.9 42.93 72.46 43.28 77.79 43.63 77.2 43.98 75.42 44.33 73.64 44.67 74.83 45.02 80.16 45.37 79.57 45.72 84.31 46.07 78.38 46.42 80.16 46.77 77.79 47.12 76.6 47.47 76.01 47.82 76.01 48.17 77.79 48.52 74.83 48.86 65.94 49.21 61.79 49.56 60.61 49.91 63.57 50.26 69.49 50.61 77.79 50.96 76.01 51.31 70.09 51.66 73.05 52.01 71.27 52.36 69.49 52.7 75.42 53.05 83.71 53.4 87.27 53.75 87.27 54.1 91.42 54.45 87.27 54.8 83.71 55.15 83.71 55.5 86.68 55.85 89.05 56.2 93.19 56.55 89.64 56.89 92.6 57.24 92.6 57.59 95.56 57.94 99.71 58.29 102.67 58.64 100.3 58.99 103.27 59.34 101.49 59.69 102.67 60.04 103.86 60.39 105.04 60.73 105.64 61.08 104.45 61.43 102.67 61.78 103.86 62.13 106.23 62.48 110.97 62.83 107.41 63.18 104.45 63.53 103.86 63.88 98.53 64.23 103.27 64.58 100.9 64.92 97.34 65.27 90.82 65.62 93.19 65.97 96.16 66.32 99.12 66.67 100.3 67.02 96.16 67.37 97.34 67.72 93.79 68.07 89.05 68.42 90.23 68.77 89.64 69.11 91.42 69.46 89.05 69.81 83.71 70.16 79.57 70.51 77.2 70.86 75.42 71.21 81.34 71.56 77.2 71.91 74.23 72.26 77.79 72.61 78.38 72.95 83.71 73.3 90.23 73.65 83.71 74 81.34 74.35 81.34 74.7 82.53 75.05 87.27 75.4 90.23 75.75 87.86 76.1 92.6 76.45 89.05 76.8 88.45 77.14 89.05 77.49 88.45 77.84 85.49 78.19 84.9 78.54 96.75 78.89 98.53 79.24 96.16 79.59 89.64 79.94 90.82 80.29 87.86 80.64 81.34 80.98 92.01 81.33 86.68 81.68 84.31 82.03 77.2 82.38 78.38 82.73 79.57 83.08 78.38 83.43 84.31 83.78 89.64 84.13 89.64 84.48 90.23 84.83 87.27 85.17 78.97 85.52 81.94 85.87 77.79 86.22 77.2 86.57 76.01 86.92 79.57 87.27 78.38 87.62 73.64 87.97 74.23 88.32 70.68 88.67 64.75 89.02 63.57 89.36 64.16 89.71 63.57 90.06 56.46 90.41 60.01 90.76 62.98 91.11 62.38 91.46 61.79 91.81 59.42 92.16 70.09 92.51 77.2 92.86 73.05 93.2 69.49 93.55 70.68 93.9 66.53 94.25 64.75 94.6 58.83 94.95 60.01 95.3 67.72 95.65 68.31 96 61.2 96.35 67.12 96.7 58.24 97.05 55.87 97.39 55.87 97.74 55.27 98.09 54.09 98.44 57.05 98.79 68.9 99.14 69.49 99.49 68.9 99.84 65.94 100.19 60.61 100.54 61.2 100.89 67.12 101.23 65.35 101.58 71.86 101.93 69.49 102.28 67.72 102.63 66.53 102.98 68.9 103.33 65.35 103.68 62.98 104.03 66.53 104.38 67.72 104.73 62.38 105.08 59.42 105.42 59.42 105.77 61.2 106.12 64.75 106.47 58.83 106.82 52.9 107.17 50.53 107.52 49.94 107.87 55.27 108.22 60.01 108.57 54.68 108.92 51.72 109.26 52.31 109.61 54.09 109.96 57.05 110.31 58.83 110.66 56.46 111.01 57.05 111.36 59.42 111.71 58.83 112.06 60.01 112.41 57.64 112.76 62.98 113.11 60.61 113.45 61.79 113.8 58.83 114.15 57.05 114.5 56.46 114.85 58.83 115.2 57.64 115.55 52.9 115.9 51.72 116.25 48.16 116.6 46.39 116.95 44.61 117.3 44.61 117.64 47.57 117.99 41.64 118.34 40.46 118.69 46.39 119.04 50.53 119.39 53.5 119.74 54.68 120.09 55.87 120.44 64.16 120.79 71.27 121.14 65.94 121.48 58.24 121.83 58.83 122.18 56.46 122.53 52.9 122.88 52.9 123.23 56.46 123.58 51.13 123.93 54.09 124.28 48.16 124.63 45.79 124.98 49.35 125.33 48.16 125.67 52.31 126.02 53.5 126.37 50.53 126.72 55.27 127.07 53.5 127.42 63.57 127.77 65.35 128.12 63.57 128.47 63.57 128.82 63.57 129.17 69.49 129.51 65.35 129.86 65.35 130.21 60.01 130.56 63.57 130.91 61.79 131.26 61.2 131.61 60.61 131.96 64.16 132.31 66.53 132.66 71.27 133.01 67.12 133.36 65.35 133.7 65.35 134.05 61.2 134.4 57.64 134.75 55.87 135.1 54.09 135.45 58.24 135.8 57.64 136.15 61.2 136.5 62.98 136.85 58.24 137.2 60.01 137.55 58.24 137.89 51.72 138.24 51.13 138.59 54.09 138.94 53.5 139.29 60.01 139.64 60.01 139.99 64.75 140.34 58.24 140.69 52.9 141.04 49.94 141.39 50.53 141.73 53.5 142.08 54.68 142.43 49.94 142.78 48.16 143.13 50.53 143.48 47.57 143.83 45.79 144.18 47.57 144.53 49.94 144.88 52.31 145.23 55.87 145.58 54.68 145.92 52.31 146.27 51.72 146.62 52.31 146.97 48.76 147.32 48.76 147.67 55.87 148.02 54.09 148.37 52.31 148.72 55.87 149.07 59.42 149.42 54.09 149.76 49.94 150.11 47.57 150.46 50.53 150.81 52.31 151.16 54.09 151.51 57.64 151.86 62.98 152.21 68.31 152.56 65.35 152.91 64.16 153.26 77.2 153.61 76.6 153.95 78.97 154.3 76.6 154.65 80.75 155 82.53 155.35 83.71 155.7 86.08 156.05 80.75 156.4 77.2 156.75 70.68 157.1 73.64 157.45 67.72 157.79 67.12 158.14 71.27 158.49 72.46 158.84 71.27 159.19 78.38 159.54 76.01 159.89 78.38 160.24 78.97 160.59 81.34 160.94 83.12 161.29 81.34 161.64 86.68 161.98 84.31 162.33 85.49 162.68 90.82 163.03 92.6 163.38 87.27 163.73 82.53 164.08 88.45 164.43 88.45 164.78 87.27 165.13 87.27 165.48 93.19 165.83 91.42 166.17 87.27 166.52 81.94 166.87 85.49 167.22 85.49 167.57 90.82 167.92 90.82 168.27 89.64 168.62 94.38 168.97 90.23 169.32 90.23 169.67 96.16 170.01 100.9 170.36 101.49 170.71 102.67 171.06 100.9 171.41 102.67 171.76 105.04 172.11 101.49 172.46 96.16 172.81 99.12 173.16 97.34 173.51 106.82 173.86 105.04 174.2 106.23 174.55 102.67 174.9 103.86 175.25 102.67 175.6 97.93 175.95 100.9 176.3 108.01 176.65 107.41 177 105.64 177.35 107.41 177.7 109.19 178.04 113.34 178.39 113.93 178.74 116.3 179.09 115.12 179.44 109.19 179.79 110.97 180.14 109.78 180.49 111.56 180.84 111.56 181.19 109.78 181.54 111.56 181.89 116.89 182.23 113.93 182.58 117.49 182.93 115.12 183.28 115.71 183.63 116.89 183.98 112.75 184.33 116.89 184.68 119.26 185.03 117.49 185.38 118.08 185.73 116.89 186.08 113.34 186.42 112.75 186.77 115.12 187.12 112.15 187.47 114.52 187.82 116.89 188.17 119.86 188.52 119.86 188.87 119.86 189.22 119.26 189.57 117.49 189.92 121.04 190.26 118.67 190.61 116.89 190.96 115.71 191.31 119.86 191.66 121.63 192.01 123.41 192.36 127.56 192.71 127.56 193.06 126.97 193.41 128.74 193.76 128.74 194.11 128.74 194.45 128.74 194.8 128.74 195.15 128.74 195.5 129.93 195.85 128.74 196.2 126.37"/>
      </g>
      <g stroke-width="0.3" fill="#000000" fill-opacity="0.000" class="geometry" stroke-dasharray="none" stroke="#F46D43" id="img-8531a47a-17">
        <path fill="none" d="M21.98,71.86 L 22.33 70.09 22.68 64.16 23.03 65.35 23.38 66.53 23.73 59.42 24.08 62.38 24.42 60.01 24.77 59.42 25.12 65.35 25.47 65.94 25.82 65.35 26.17 64.75 26.52 63.57 26.87 59.42 27.22 61.79 27.57 61.79 27.92 61.79 28.27 61.2 28.61 67.12 28.96 74.83 29.31 68.31 29.66 68.31 30.01 71.86 30.36 77.79 30.71 76.01 31.06 73.64 31.41 67.72 31.76 64.75 32.11 65.94 32.45 66.53 32.8 70.09 33.15 68.9 33.5 65.35 33.85 61.2 34.2 71.86 34.55 74.23 34.9 72.46 35.25 71.27 35.6 74.83 35.95 76.6 36.3 75.42 36.64 74.83 36.99 73.05 37.34 76.6 37.69 71.86 38.04 67.12 38.39 66.53 38.74 71.27 39.09 74.23 39.44 74.23 39.79 78.38 40.14 77.79 40.49 75.42 40.83 80.16 41.18 78.38 41.53 78.97 41.88 75.42 42.23 73.64 42.58 71.86 42.93 77.79 43.28 76.6 43.63 78.97 43.98 79.57 44.33 84.9 44.67 81.34 45.02 83.71 45.37 84.9 45.72 87.86 46.07 86.68 46.42 87.86 46.77 84.31 47.12 78.97 47.47 72.46 47.82 68.31 48.17 68.9 48.52 64.16 48.86 65.35 49.21 62.98 49.56 62.98 49.91 64.16 50.26 59.42 50.61 61.2 50.96 65.35 51.31 71.86 51.66 74.83 52.01 76.6 52.36 81.94 52.7 86.08 53.05 85.49 53.4 81.34 53.75 86.08 54.1 84.31 54.45 78.97 54.8 78.97 55.15 81.94 55.5 84.9 55.85 86.08 56.2 87.27 56.55 86.68 56.89 88.45 57.24 86.68 57.59 90.23 57.94 88.45 58.29 83.12 58.64 85.49 58.99 89.05 59.34 81.94 59.69 81.94 60.04 80.75 60.39 83.12 60.73 81.94 61.08 78.38 61.43 78.97 61.78 73.64 62.13 77.79 62.48 81.94 62.83 77.79 63.18 68.9 63.53 76.6 63.88 81.94 64.23 84.31 64.58 91.42 64.92 86.68 65.27 84.31 65.62 81.94 65.97 82.53 66.32 82.53 66.67 81.34 67.02 80.75 67.37 86.68 67.72 87.86 68.07 84.31 68.42 84.9 68.77 82.53 69.11 87.86 69.46 86.68 69.81 90.23 70.16 93.19 70.51 92.01 70.86 90.23 71.21 93.19 71.56 94.38 71.91 93.79 72.26 94.97 72.61 97.34 72.95 94.38 73.3 98.53 73.65 99.12 74 95.56 74.35 99.71 74.7 105.04 75.05 100.9 75.4 98.53 75.75 96.75 76.1 96.16 76.45 94.97 76.8 91.42 77.14 92.01 77.49 97.93 77.84 102.67 78.19 99.71 78.54 96.75 78.89 96.75 79.24 92.6 79.59 92.6 79.94 92.6 80.29 84.9 80.64 85.49 80.98 84.9 81.33 89.05 81.68 94.97 82.03 92.01 82.38 87.86 82.73 83.71 83.08 83.12 83.43 80.16 83.78 81.94 84.13 71.27 84.48 73.05 84.83 74.83 85.17 84.31 85.52 79.57 85.87 80.16 86.22 78.97 86.57 86.08 86.92 86.68 87.27 84.9 87.62 83.12 87.97 85.49 88.32 81.94 88.67 75.42 89.02 73.64 89.36 73.64 89.71 77.79 90.06 82.53 90.41 84.9 90.76 84.9 91.11 81.94 91.46 83.71 91.81 80.16 92.16 76.6 92.51 78.97 92.86 75.42 93.2 76.6 93.55 68.9 93.9 71.27 94.25 68.31 94.6 65.94 94.95 62.98 95.3 70.68 95.65 71.27 96 69.49 96.35 67.12 96.7 74.83 97.05 78.97 97.39 82.53 97.74 83.12 98.09 89.05 98.44 88.45 98.79 86.08 99.14 87.27 99.49 84.31 99.84 84.9 100.19 78.97 100.54 83.12 100.89 84.9 101.23 81.34 101.58 77.2 101.93 77.79 102.28 72.46 102.63 70.68 102.98 67.72 103.33 65.35 103.68 67.72 104.03 68.9 104.38 73.05 104.73 71.27 105.08 66.53 105.42 64.16 105.77 61.79 106.12 55.27 106.47 56.46 106.82 54.09 107.17 52.9 107.52 55.87 107.87 56.46 108.22 52.9 108.57 51.13 108.92 50.53 109.26 48.16 109.61 49.35 109.96 48.76 110.31 48.76 110.66 47.57 111.01 39.27 111.36 39.27 111.71 42.24 112.06 39.27 112.41 41.64 112.76 43.42 113.11 44.02 113.45 47.57 113.8 46.39 114.15 46.98 114.5 41.05 114.85 44.61 115.2 42.83 115.55 41.64 115.9 39.27 116.25 43.42 116.6 46.39 116.95 42.83 117.3 44.61 117.64 39.87 117.99 38.09 118.34 39.27 118.69 38.09 119.04 38.68 119.39 38.09 119.74 39.87 120.09 45.2 120.44 42.24 120.79 44.02 121.14 45.79 121.48 51.72 121.83 52.31 122.18 53.5 122.53 49.94 122.88 52.31 123.23 51.72 123.58 48.16 123.93 49.94 124.28 51.72 124.63 49.35 124.98 49.94 125.33 50.53 125.67 54.09 126.02 44.02 126.37 44.02 126.72 42.83 127.07 41.05 127.42 36.31 127.77 36.9 128.12 35.13 128.47 33.94 128.82 31.57 129.17 37.5 129.51 41.05 129.86 38.09 130.21 33.94 130.56 37.5 130.91 39.27 131.26 32.76 131.61 33.35 131.96 35.13 132.31 38.68 132.66 39.27 133.01 39.27 133.36 32.16 133.7 35.13 134.05 35.72 134.4 38.09 134.75 42.24 135.1 44.02 135.45 42.24 135.8 44.61 136.15 55.87 136.5 62.98 136.85 66.53 137.2 77.2 137.55 68.31 137.89 68.31 138.24 70.68 138.59 73.05 138.94 71.27 139.29 67.72 139.64 73.05 139.99 74.83 140.34 80.16 140.69 77.2 141.04 76.6 141.39 77.2 141.73 81.34 142.08 80.16 142.43 77.79 142.78 70.68 143.13 73.05 143.48 78.38 143.83 79.57 144.18 80.75 144.53 76.6 144.88 73.64 145.23 73.64 145.58 65.94 145.92 66.53 146.27 63.57 146.62 61.79 146.97 65.35 147.32 73.64 147.67 73.05 148.02 76.01 148.37 78.97 148.72 75.42 149.07 78.38 149.42 80.16 149.76 79.57 150.11 81.34 150.46 80.75 150.81 78.38 151.16 80.75 151.51 83.71 151.86 83.12 152.21 82.53 152.56 81.94 152.91 80.16 153.26 82.53 153.61 81.34 153.95 81.34 154.3 76.01 154.65 74.83 155 84.31 155.35 82.53 155.7 87.27 156.05 87.86 156.4 93.19 156.75 91.42 157.1 91.42 157.45 93.19 157.79 92.6 158.14 96.16 158.49 101.49 158.84 102.67 159.19 99.71 159.54 95.56 159.89 99.71 160.24 94.97 160.59 96.75 160.94 102.67 161.29 103.27 161.64 102.08 161.98 97.34 162.33 97.34 162.68 92.6 163.03 81.94 163.38 87.86 163.73 89.05 164.08 84.9 164.43 83.71 164.78 89.64 165.13 92.01 165.48 93.19 165.83 95.56 166.17 96.75 166.52 95.56 166.87 91.42 167.22 90.82 167.57 87.27 167.92 88.45 168.27 90.82 168.62 91.42 168.97 87.86 169.32 86.68 169.67 92.01 170.01 92.01 170.36 90.23 170.71 90.23 171.06 88.45 171.41 87.27 171.76 84.9 172.11 76.01 172.46 79.57 172.81 78.97 173.16 79.57 173.51 78.38 173.86 74.23 174.2 67.12 174.55 68.31 174.9 61.79 175.25 55.27 175.6 53.5 175.95 61.2 176.3 62.38 176.65 65.94 177 68.31 177.35 70.09 177.7 70.68 178.04 67.72 178.39 68.9 178.74 72.46 179.09 61.2 179.44 51.72 179.79 51.13 180.14 46.98 180.49 49.35 180.84 52.31 181.19 49.94 181.54 52.9 181.89 52.31 182.23 50.53 182.58 52.31 182.93 52.9 183.28 53.5 183.63 55.87 183.98 51.13 184.33 41.05 184.68 41.05 185.03 32.16 185.38 30.39 185.73 31.57 186.08 29.2 186.42 32.76 186.77 29.2 187.12 25.65 187.47 23.87 187.82 19.72 188.17 19.72 188.52 22.68 188.87 23.28 189.22 20.31 189.57 17.94 189.92 16.76 190.26 16.17 190.61 15.57 190.96 17.94 191.31 17.94 191.66 18.54 192.01 17.94 192.36 17.94 192.71 20.91 193.06 23.87 193.41 27.42 193.76 26.24 194.11 32.16 194.45 33.94 194.8 29.79 195.15 23.87 195.5 22.68 195.85 18.54 196.2 19.72"/>
      </g>
      <g stroke-width="0.3" fill="#000000" fill-opacity="0.000" class="geometry" stroke-dasharray="none" stroke="#D53E4F" id="img-8531a47a-18">
        <path fill="none" d="M21.98,71.86 L 22.33 67.12 22.68 69.49 23.03 65.94 23.38 61.2 23.73 55.27 24.08 53.5 24.42 52.9 24.77 44.61 25.12 47.57 25.47 45.79 25.82 39.87 26.17 43.42 26.52 43.42 26.87 49.35 27.22 52.31 27.57 58.24 27.92 54.68 28.27 57.64 28.61 61.2 28.96 62.98 29.31 61.2 29.66 60.01 30.01 54.68 30.36 56.46 30.71 64.75 31.06 67.72 31.41 74.83 31.76 75.42 32.11 76.6 32.45 73.05 32.8 76.01 33.15 64.16 33.5 68.31 33.85 68.31 34.2 67.12 34.55 62.38 34.9 60.61 35.25 55.87 35.6 51.72 35.95 47.57 36.3 51.72 36.64 57.64 36.99 53.5 37.34 54.68 37.69 50.53 38.04 51.13 38.39 52.9 38.74 43.42 39.09 41.64 39.44 44.61 39.79 45.79 40.14 49.35 40.49 50.53 40.83 46.39 41.18 46.39 41.53 40.46 41.88 44.02 42.23 48.16 42.58 46.39 42.93 49.35 43.28 48.16 43.63 48.76 43.98 51.72 44.33 57.05 44.67 55.87 45.02 65.35 45.37 69.49 45.72 72.46 46.07 72.46 46.42 67.12 46.77 68.9 47.12 67.12 47.47 70.68 47.82 64.16 48.17 60.01 48.52 61.79 48.86 62.38 49.21 57.64 49.56 53.5 49.91 49.94 50.26 45.79 50.61 52.9 50.96 62.38 51.31 62.98 51.66 60.61 52.01 58.83 52.36 54.09 52.7 55.27 53.05 49.94 53.4 51.72 53.75 49.94 54.1 48.76 54.45 44.61 54.8 45.79 55.15 38.09 55.5 39.27 55.85 46.39 56.2 48.16 56.55 46.98 56.89 39.87 57.24 40.46 57.59 38.68 57.94 36.31 58.29 30.98 58.64 35.72 58.99 36.31 59.34 36.31 59.69 37.5 60.04 39.27 60.39 42.24 60.73 34.53 61.08 33.35 61.43 30.39 61.78 29.2 62.13 24.46 62.48 25.65 62.83 23.87 63.18 22.09 63.53 21.5 63.88 20.31 64.23 23.87 64.58 24.46 64.92 24.46 65.27 29.2 65.62 28.61 65.97 28.61 66.32 30.98 66.67 34.53 67.02 30.39 67.37 34.53 67.72 39.27 68.07 43.42 68.42 46.98 68.77 43.42 69.11 42.24 69.46 41.64 69.81 42.24 70.16 48.16 70.51 48.16 70.86 44.61 71.21 45.79 71.56 46.98 71.91 45.79 72.26 48.76 72.61 49.35 72.95 56.46 73.3 64.16 73.65 64.16 74 61.2 74.35 49.94 74.7 54.68 75.05 58.24 75.4 55.87 75.75 54.09 76.1 54.09 76.45 54.68 76.8 49.35 77.14 51.13 77.49 51.72 77.84 50.53 78.19 52.31 78.54 53.5 78.89 56.46 79.24 59.42 79.59 57.64 79.94 55.87 80.29 60.61 80.64 54.09 80.98 51.13 81.33 51.13 81.68 48.76 82.03 48.76 82.38 46.98 82.73 41.05 83.08 46.39 83.43 44.02 83.78 45.79 84.13 40.46 84.48 41.64 84.83 45.2 85.17 52.31 85.52 55.87 85.87 54.09 86.22 57.05 86.57 60.61 86.92 59.42 87.27 60.01 87.62 63.57 87.97 66.53 88.32 62.38 88.67 65.94 89.02 71.27 89.36 69.49 89.71 68.31 90.06 65.35 90.41 64.16 90.76 59.42 91.11 57.05 91.46 58.24 91.81 58.83 92.16 60.01 92.51 54.68 92.86 57.64 93.2 61.2 93.55 57.64 93.9 51.72 94.25 52.9 94.6 50.53 94.95 50.53 95.3 58.24 95.65 57.05 96 54.68 96.35 45.2 96.7 46.39 97.05 46.98 97.39 45.79 97.74 47.57 98.09 46.39 98.44 36.31 98.79 38.09 99.14 42.24 99.49 46.39 99.84 51.72 100.19 55.27 100.54 55.27 100.89 52.9 101.23 57.64 101.58 52.31 101.93 48.76 102.28 46.98 102.63 47.57 102.98 48.16 103.33 48.16 103.68 49.35 104.03 49.94 104.38 46.39 104.73 44.61 105.08 51.13 105.42 54.09 105.77 48.76 106.12 51.72 106.47 46.39 106.82 42.83 107.17 44.61 107.52 42.24 107.87 46.39 108.22 49.35 108.57 55.87 108.92 51.72 109.26 49.94 109.61 50.53 109.96 49.35 110.31 51.13 110.66 47.57 111.01 47.57 111.36 54.09 111.71 61.79 112.06 67.72 112.41 64.75 112.76 68.31 113.11 73.64 113.45 76.6 113.8 78.38 114.15 86.68 114.5 85.49 114.85 87.86 115.2 81.94 115.55 88.45 115.9 89.05 116.25 96.75 116.6 99.12 116.95 87.86 117.3 93.19 117.64 93.19 117.99 99.12 118.34 91.42 118.69 96.75 119.04 98.53 119.39 98.53 119.74 100.3 120.09 102.08 120.44 103.27 120.79 110.38 121.14 113.93 121.48 117.49 121.83 121.63 122.18 120.45 122.53 119.26 122.88 118.08 123.23 118.08 123.58 116.3 123.93 115.71 124.28 113.93 124.63 115.12 124.98 115.71 125.33 117.49 125.67 118.08 126.02 118.08 126.37 117.49 126.72 119.26 127.07 121.04 127.42 121.63 127.77 119.26 128.12 121.04 128.47 117.49 128.82 118.08 129.17 116.3 129.51 113.34 129.86 114.52 130.21 112.75 130.56 113.34 130.91 110.97 131.26 108.6 131.61 109.19 131.96 106.82 132.31 104.45 132.66 105.04 133.01 94.97 133.36 93.19 133.7 95.56 134.05 97.34 134.4 105.04 134.75 101.49 135.1 109.78 135.45 106.23 135.8 112.15 136.15 111.56 136.5 115.71 136.85 114.52 137.2 113.93 137.55 113.93 137.89 115.71 138.24 115.12 138.59 112.75 138.94 112.75 139.29 114.52 139.64 112.15 139.99 112.15 140.34 115.12 140.69 118.08 141.04 113.93 141.39 113.34 141.73 119.26 142.08 114.52 142.43 107.41 142.78 110.97 143.13 116.3 143.48 116.89 143.83 119.26 144.18 118.67 144.53 115.71 144.88 115.71 145.23 115.12 145.58 116.89 145.92 119.86 146.27 121.04 146.62 119.86 146.97 119.86 147.32 112.75 147.67 115.12 148.02 113.93 148.37 109.19 148.72 112.15 149.07 114.52 149.42 111.56 149.76 110.38 150.11 110.97 150.46 111.56 150.81 112.75 151.16 115.12 151.51 114.52 151.86 113.34 152.21 103.86 152.56 103.27 152.91 100.9 153.26 102.08 153.61 103.86 153.95 95.56 154.3 96.75 154.65 99.71 155 100.3 155.35 96.16 155.7 95.56 156.05 95.56 156.4 100.9 156.75 100.9 157.1 98.53 157.45 98.53 157.79 99.71 158.14 100.3 158.49 96.75 158.84 102.08 159.19 109.78 159.54 111.56 159.89 116.89 160.24 118.67 160.59 118.08 160.94 118.67 161.29 118.67 161.64 119.26 161.98 115.12 162.33 115.12 162.68 111.56 163.03 112.15 163.38 108.01 163.73 113.34 164.08 115.71 164.43 112.75 164.78 119.26 165.13 121.63 165.48 121.04 165.83 124 166.17 122.23 166.52 119.86 166.87 119.86 167.22 120.45 167.57 121.63 167.92 121.04 168.27 119.26 168.62 121.63 168.97 121.04 169.32 120.45 169.67 118.67 170.01 118.08 170.36 120.45 170.71 116.3 171.06 116.89 171.41 113.93 171.76 116.3 172.11 116.89 172.46 122.82 172.81 125.19 173.16 123.41 173.51 121.04 173.86 121.04 174.2 121.04 174.55 121.63 174.9 124 175.25 124 175.6 124.6 175.95 122.82 176.3 122.23 176.65 124.6 177 126.37 177.35 126.97 177.7 125.19 178.04 128.15 178.39 128.15 178.74 126.97 179.09 126.37 179.44 125.19 179.79 128.15 180.14 128.74 180.49 130.52 180.84 129.93 181.19 129.34 181.54 130.52 181.89 131.11"/>
      </g>
      <g stroke-width="0.3" fill="#000000" fill-opacity="0.000" class="geometry" stroke-dasharray="none" stroke="#9E0142" id="img-8531a47a-19">
        <path fill="none" d="M21.98,71.86 L 22.33 77.2 22.68 71.86 23.03 77.79 23.38 73.05 23.73 76.6 24.08 80.75 24.42 81.94 24.77 83.71 25.12 90.82 25.47 93.19 25.82 99.12 26.17 96.16 26.52 92.6 26.87 93.19 27.22 97.34 27.57 97.34 27.92 91.42 28.27 86.68 28.61 86.68 28.96 92.01 29.31 90.23 29.66 93.19 30.01 95.56 30.36 97.93 30.71 95.56 31.06 94.38 31.41 86.68 31.76 84.9 32.11 79.57 32.45 81.94 32.8 87.27 33.15 93.19 33.5 95.56 33.85 96.75 34.2 95.56 34.55 102.08 34.9 105.64 35.25 106.23 35.6 96.75 35.95 90.82 36.3 93.79 36.64 92.01 36.99 93.79 37.34 93.19 37.69 84.9 38.04 87.27 38.39 81.34 38.74 83.71 39.09 85.49 39.44 91.42 39.79 92.6 40.14 89.05 40.49 92.01 40.83 85.49 41.18 83.71 41.53 81.34 41.88 79.57 42.23 87.86 42.58 86.08 42.93 86.08 43.28 88.45 43.63 81.34 43.98 81.94 44.33 75.42 44.67 73.05 45.02 80.16 45.37 79.57 45.72 81.94 46.07 75.42 46.42 74.83 46.77 77.79 47.12 71.86 47.47 70.09 47.82 68.9 48.17 61.79 48.52 65.94 48.86 70.68 49.21 77.79 49.56 76.6 49.91 69.49 50.26 66.53 50.61 65.94 50.96 65.35 51.31 65.35 51.66 70.68 52.01 77.2 52.36 81.34 52.7 84.9 53.05 86.68 53.4 85.49 53.75 89.64 54.1 94.97 54.45 98.53 54.8 103.27 55.15 99.71 55.5 101.49 55.85 101.49 56.2 107.41 56.55 105.64 56.89 104.45 57.24 106.82 57.59 105.64 57.94 106.82 58.29 102.67 58.64 103.86 58.99 105.64 59.34 107.41 59.69 108.6 60.04 110.97 60.39 111.56 60.73 112.75 61.08 110.97 61.43 110.38 61.78 106.82 62.13 108.01 62.48 108.6 62.83 108.6 63.18 112.15 63.53 113.34 63.88 113.93 64.23 115.12 64.58 113.93 64.92 113.34 65.27 111.56 65.62 109.19 65.97 103.86 66.32 109.19 66.67 106.82 67.02 104.45 67.37 107.41 67.72 110.38 68.07 108.01 68.42 111.56 68.77 109.19 69.11 106.82 69.46 110.38 69.81 112.75 70.16 109.78 70.51 109.78 70.86 111.56 71.21 114.52 71.56 112.15 71.91 113.93 72.26 115.12 72.61 115.71 72.95 113.93 73.3 110.38 73.65 105.64 74 104.45 74.35 109.19 74.7 110.38 75.05 108.6 75.4 109.19 75.75 116.89 76.1 119.26 76.45 121.04 76.8 124.6 77.14 121.04 77.49 124 77.84 122.82 78.19 124.6 78.54 128.15 78.89 126.97 79.24 128.15 79.59 128.15 79.94 126.37 80.29 127.56 80.64 126.37 80.98 126.97 81.33 126.37 81.68 126.37 82.03 125.19 82.38 125.19 82.73 121.63 83.08 119.26 83.43 119.86 83.78 119.26 84.13 118.67 84.48 118.08 84.83 116.3 85.17 116.3 85.52 111.56 85.87 108.6 86.22 115.12 86.57 110.97 86.92 113.93 87.27 110.97 87.62 112.75 87.97 115.12 88.32 115.71 88.67 110.38 89.02 107.41 89.36 111.56 89.71 110.97 90.06 105.64 90.41 104.45 90.76 101.49 91.11 99.12 91.46 96.16 91.81 96.16 92.16 96.16 92.51 96.75 92.86 100.9 93.2 103.86 93.55 106.82 93.9 108.01 94.25 106.23 94.6 103.27 94.95 103.27 95.3 106.82 95.65 105.04 96 102.67 96.35 102.67 96.7 102.67 97.05 102.08 97.39 105.04 97.74 105.64 98.09 109.19 98.44 105.04 98.79 99.12 99.14 101.49 99.49 94.38 99.84 92.01 100.19 90.82 100.54 90.82 100.89 94.38 101.23 103.27 101.58 100.3 101.93 96.75 102.28 98.53 102.63 102.67 102.98 99.12 103.33 94.97 103.68 93.79 104.03 96.75 104.38 92.01 104.73 99.12 105.08 103.86 105.42 105.04 105.77 106.82 106.12 113.34 106.47 113.93 106.82 111.56 107.17 107.41 107.52 108.01 107.87 112.75 108.22 109.78 108.57 107.41 108.92 106.82 109.26 112.75 109.61 118.08 109.96 117.49 110.31 117.49 110.66 119.86 111.01 123.41 111.36 126.37 111.71 124 112.06 122.82 112.41 124 112.76 122.82 113.11 123.41 113.45 121.63 113.8 119.86 114.15 120.45 114.5 118.67 114.85 120.45 115.2 118.67 115.55 121.04 115.9 124.6 116.25 123.41 116.6 121.04 116.95 121.04 117.3 122.82 117.64 122.23 117.99 122.23 118.34 123.41 118.69 124.6 119.04 125.78 119.39 125.19 119.74 126.37 120.09 124.6 120.44 123.41 120.79 122.82 121.14 122.23 121.48 120.45 121.83 119.86 122.18 116.89 122.53 116.3 122.88 112.15 123.23 115.71 123.58 109.19 123.93 109.19 124.28 104.45 124.63 101.49 124.98 96.75 125.33 93.19 125.67 90.82 126.02 86.08 126.37 80.75 126.72 77.2 127.07 84.9 127.42 84.9 127.77 91.42 128.12 96.16 128.47 100.3 128.82 93.79 129.17 92.01 129.51 91.42 129.86 89.05 130.21 88.45 130.56 80.75 130.91 79.57 131.26 85.49 131.61 93.79 131.96 96.75 132.31 96.75 132.66 93.79 133.01 94.38 133.36 97.93 133.7 97.93 134.05 97.93 134.4 102.67 134.75 103.86 135.1 97.34 135.45 92.6 135.8 92.6 136.15 96.16 136.5 97.93 136.85 100.9 137.2 101.49 137.55 102.67 137.89 103.27 138.24 102.08 138.59 109.78 138.94 109.19 139.29 115.71 139.64 118.67 139.99 120.45 140.34 121.04 140.69 124.6 141.04 124.6 141.39 124 141.73 125.19 142.08 124.6 142.43 119.86 142.78 118.08 143.13 120.45 143.48 120.45 143.83 121.04 144.18 121.63 144.53 123.41 144.88 121.63 145.23 124 145.58 120.45 145.92 117.49 146.27 117.49 146.62 116.3 146.97 110.38 147.32 108.6 147.67 104.45 148.02 106.82 148.37 105.64 148.72 110.38 149.07 116.3 149.42 112.15 149.76 111.56 150.11 112.75 150.46 109.78 150.81 105.64 151.16 105.04 151.51 107.41 151.86 102.08 152.21 101.49 152.56 102.08 152.91 107.41 153.26 108.01 153.61 101.49 153.95 96.75 154.3 99.71 154.65 101.49 155 103.27 155.35 101.49 155.7 100.9 156.05 99.12 156.4 95.56 156.75 90.82 157.1 90.82 157.45 93.19 157.79 92.6 158.14 92.01 158.49 87.86 158.84 89.05 159.19 89.64 159.54 85.49 159.89 84.9 160.24 80.75 160.59 79.57 160.94 76.6 161.29 76.6 161.64 70.68 161.98 73.64 162.33 73.64 162.68 71.27 163.03 63.57 163.38 61.79 163.73 67.12 164.08 68.9 164.43 61.79 164.78 55.27 165.13 57.64 165.48 61.2 165.83 59.42 166.17 63.57 166.52 62.38 166.87 62.38 167.22 60.61 167.57 60.61 167.92 61.2 168.27 57.05 168.62 71.86 168.97 76.6 169.32 82.53 169.67 78.97 170.01 82.53 170.36 88.45 170.71 92.6 171.06 97.93 171.41 96.75 171.76 92.6 172.11 94.97 172.46 98.53 172.81 100.3 173.16 96.16 173.51 96.16 173.86 97.34 174.2 95.56 174.55 97.34 174.9 90.23 175.25 93.79 175.6 89.05 175.95 86.68 176.3 86.68 176.65 86.68 177 87.27 177.35 94.38 177.7 98.53 178.04 99.71 178.39 97.93 178.74 96.75 179.09 102.08 179.44 99.12 179.79 102.08 180.14 103.27 180.49 98.53 180.84 105.04 181.19 105.04 181.54 105.04 181.89 106.23 182.23 107.41 182.58 109.19 182.93 104.45 183.28 99.71 183.63 95.56 183.98 92.01 184.33 91.42 184.68 87.27 185.03 92.01 185.38 93.19 185.73 98.53 186.08 100.3 186.42 99.12 186.77 99.71 187.12 96.75 187.47 96.16 187.82 96.16 188.17 94.38 188.52 92.6 188.87 87.86 189.22 90.82 189.57 88.45 189.92 90.23 190.26 93.19 190.61 87.27 190.96 84.31 191.31 82.53 191.66 80.75 192.01 81.34 192.36 80.75 192.71 68.9 193.06 72.46 193.41 73.64 193.76 73.05 194.11 71.86 194.45 72.46 194.8 77.2 195.15 77.2 195.5 86.68 195.85 90.82 196.2 89.05"/>
      </g>
    </g>
  </g>
</g>
  <g class="guide ylabels" font-size="2.82" font-family="'PT Sans Caption','Helvetica Neue','Helvetica',sans-serif" fill="#000000" id="img-8531a47a-20">
    <text x="18.63" y="131.11" text-anchor="end" dy="0.35em">0</text>
    <text x="18.63" y="101.49" text-anchor="end" dy="0.35em">50</text>
    <text x="18.63" y="71.86" text-anchor="end" dy="0.35em">100</text>
    <text x="18.63" y="42.24" text-anchor="end" dy="0.35em">150</text>
    <text x="18.63" y="12.61" text-anchor="end" dy="0.35em">200</text>
  </g>
  <g font-size="3.88" font-family="'PT Sans','Helvetica Neue','Helvetica',sans-serif" fill="#000000" stroke="#000000" stroke-opacity="0.000" id="img-8531a47a-21">
    <text x="8.81" y="69.86" text-anchor="middle" dy="0.35em" transform="rotate(-90, 8.81, 71.86)">population number</text>
  </g>
  <g font-size="3.88" font-family="'PT Sans','Helvetica Neue','Helvetica',sans-serif" fill="#000000" stroke="#000000" stroke-opacity="0.000" id="img-8531a47a-22">
    <text x="108.92" y="5" text-anchor="middle" dy="0.6em">genetic drift</text>
  </g>
</g>
<defs>
  <clipPath id="img-8531a47a-4">
  <path d="M19.63,10.61 L 198.2 10.61 198.2 133.11 19.63 133.11" />
</clipPath>
</defs>
</svg>
