<?xml version="1.0" encoding="UTF-8"?>
<svg xmlns="http://www.w3.org/2000/svg"
     xmlns:xlink="http://www.w3.org/1999/xlink"
     xmlns:gadfly="http://www.gadflyjl.org/ns"
     version="1.2"
     width="203.2mm" height="152.4mm" viewBox="0 0 203.2 152.4"
     stroke="none"
     fill="#000000"
     stroke-width="0.3"
     font-size="3.88"
>
<g class="plotroot xscalable yscalable" id="img-910b72c2-1">
  <g font-size="3.88" font-family="'PT Sans','Helvetica Neue','Helvetica',sans-serif" fill="#000000" stroke="#000000" stroke-opacity="0.000" id="img-910b72c2-2">
    <text x="108.92" y="140.79" text-anchor="middle" dy="0.6em">generation number</text>
  </g>
  <g class="guide xlabels" font-size="2.82" font-family="'PT Sans Caption','Helvetica Neue','Helvetica',sans-serif" fill="#000000" id="img-910b72c2-3">
    <text x="21.63" y="134.11" text-anchor="middle" dy="0.6em">0</text>
    <text x="56.55" y="134.11" text-anchor="middle" dy="0.6em">100</text>
    <text x="91.46" y="134.11" text-anchor="middle" dy="0.6em">200</text>
    <text x="126.37" y="134.11" text-anchor="middle" dy="0.6em">300</text>
    <text x="161.29" y="134.11" text-anchor="middle" dy="0.6em">400</text>
    <text x="196.2" y="134.11" text-anchor="middle" dy="0.6em">500</text>
  </g>
<g clip-path="url(#img-910b72c2-4)">
  <g id="img-910b72c2-5">
    <g pointer-events="visible" opacity="1" fill="#FFFFFF" stroke="#000000" stroke-opacity="0.000" class="guide background" id="img-910b72c2-6">
      <rect x="19.63" y="10.61" width="178.57" height="122.5"/>
    </g>
    <g class="guide ygridlines xfixed" stroke-dasharray="0.5,0.5" stroke-width="0.2" stroke="#808080" id="img-910b72c2-7">
      <path fill="none" d="M19.63,131.11 L 198.2 131.11"/>
      <path fill="none" d="M19.63,101.49 L 198.2 101.49"/>
      <path fill="none" d="M19.63,71.86 L 198.2 71.86"/>
      <path fill="none" d="M19.63,42.24 L 198.2 42.24"/>
      <path fill="none" d="M19.63,12.61 L 198.2 12.61"/>
    </g>
    <g class="guide xgridlines yfixed" stroke-dasharray="0.5,0.5" stroke-width="0.2" stroke="#808080" id="img-910b72c2-8">
      <path fill="none" d="M21.63,10.61 L 21.63 133.11"/>
      <path fill="none" d="M56.55,10.61 L 56.55 133.11"/>
      <path fill="none" d="M91.46,10.61 L 91.46 133.11"/>
      <path fill="none" d="M126.37,10.61 L 126.37 133.11"/>
      <path fill="none" d="M161.29,10.61 L 161.29 133.11"/>
      <path fill="none" d="M196.2,10.61 L 196.2 133.11"/>
    </g>
    <g class="plotpanel" id="img-910b72c2-9">
      <g stroke-width="0.3" fill="#000000" fill-opacity="0.000" class="geometry" stroke-dasharray="none" stroke="#3288BD" id="img-910b72c2-10">
        <path fill="none" d="M21.98,79.27 L 22.33 81.64 22.68 80.31 23.03 82.68 23.38 78.97 23.73 79.57 24.08 78.38 24.42 78.97 24.77 76.75 25.12 78.23 25.47 76.6 25.82 75.57 26.17 73.49 26.52 72.9 26.87 72.9 27.22 73.2 27.57 72.16 27.92 70.83 28.27 70.23 28.61 69.79 28.96 65.64 29.31 68.01 29.66 61.79 30.01 61.49 30.36 59.57 30.71 61.2 31.06 60.75 31.41 60.9 31.76 60.16 32.11 61.49 32.45 59.42 32.8 57.49 33.15 53.94 33.5 54.53 33.85 56.9 34.2 56.61 34.55 56.31 34.9 55.27 35.25 57.64 35.6 55.57 35.95 58.38 36.3 55.87 36.64 58.24 36.99 59.27 37.34 56.9 37.69 55.27 38.04 55.27 38.39 55.72 38.74 53.35 39.09 55.57 39.44 52.16 39.79 54.24 40.14 51.72 40.49 51.27 40.83 50.68 41.18 50.24 41.53 50.68 41.88 51.27 42.23 54.68 42.58 53.79 42.93 51.72 43.28 51.87 43.63 52.61 43.98 54.09 44.33 56.61 44.67 57.2 45.02 56.16 45.37 58.09 45.72 61.35 46.07 58.38 46.42 58.68 46.77 56.61 47.12 53.5 47.47 52.31 47.82 52.31 48.17 52.46 48.52 50.98 48.86 49.5 49.21 49.2 49.56 48.76 49.91 52.16 50.26 52.01 50.61 52.9 50.96 54.24 51.31 53.94 51.66 53.2 52.01 55.57 52.36 55.27 52.7 55.27 53.05 57.79 53.4 58.09 53.75 59.27 54.1 56.31 54.45 56.01 54.8 54.53 55.15 55.27 55.5 51.72 55.85 50.09 56.2 48.61 56.55 49.79 56.89 50.24 57.24 50.98 57.59 50.09 57.94 49.79 58.29 51.27 58.64 51.72 58.99 52.16 59.34 55.42 59.69 55.42 60.04 55.12 60.39 57.05 60.73 53.2 61.08 53.35 61.43 54.38 61.78 54.09 62.13 53.79 62.48 54.09 62.83 53.35 63.18 53.2 63.53 52.9 63.88 51.27 64.23 47.87 64.58 46.53 64.92 46.24 65.27 45.35 65.62 42.98 65.97 42.98 66.32 44.76 66.67 44.16 67.02 43.72 67.37 42.39 67.72 43.87 68.07 44.16 68.42 43.57 68.77 42.83 69.11 40.76 69.46 39.87 69.81 41.35 70.16 38.68 70.51 38.39 70.86 38.24 71.21 38.83 71.56 39.13 71.91 36.9 72.26 37.5 72.61 36.46 72.95 36.31 73.3 36.61 73.65 35.72 74 36.31 74.35 37.65 74.7 36.61 75.05 35.72 75.4 35.42 75.75 34.83 76.1 36.46 76.45 35.57 76.8 34.68 77.14 33.65 77.49 32.91 77.84 32.46 78.19 32.91 78.54 33.5 78.89 32.76 79.24 32.31 79.59 33.2 79.94 33.5 80.29 33.65 80.64 32.61 80.98 33.35 81.33 33.5 81.68 32.91 82.03 32.02 82.38 33.79 82.73 32.76 83.08 32.61 83.43 32.91 83.78 33.05 84.13 32.16 84.48 32.91 84.83 32.31 85.17 30.68 85.52 30.24 85.87 30.09 86.22 29.05 86.57 29.65 86.92 28.76 87.27 28.91 87.62 28.76 87.97 28.46 88.32 28.46 88.67 27.87 89.02 28.46 89.36 28.31 89.71 28.17 90.06 28.02 90.41 27.72 90.76 27.57 91.11 27.42"/>
      </g>
      <g stroke-width="0.3" fill="#000000" fill-opacity="0.000" class="geometry" stroke-dasharray="none" stroke="#66C2A5" id="img-910b72c2-11">
        <path fill="none" d="M21.98,79.27 L 22.33 80.45 22.68 78.68 23.03 77.05 23.38 77.94 23.73 76.46 24.08 77.05 24.42 77.2 24.77 77.64 25.12 74.97 25.47 77.34 25.82 75.57 26.17 73.94 26.52 70.09 26.87 72.01 27.22 70.38 27.57 67.72 27.92 64.16 28.27 64.31 28.61 63.12 28.96 63.57 29.31 65.64 29.66 65.05 30.01 64.75 30.36 63.42 30.71 61.94 31.06 65.2 31.41 66.98 31.76 67.72 32.11 69.49 32.45 65.79 32.8 66.53 33.15 69.05 33.5 70.09 33.85 68.75 34.2 69.2 34.55 70.38 34.9 71.27 35.25 72.6 35.6 72.46 35.95 72.9 36.3 74.23 36.64 72.31 36.99 71.12 37.34 70.97 37.69 69.49 38.04 72.31 38.39 69.94 38.74 68.9 39.09 68.75 39.44 70.83 39.79 69.05 40.14 70.38 40.49 68.6 40.83 68.16 41.18 67.86 41.53 65.49 41.88 65.2 42.23 65.49 42.58 66.98 42.93 67.12 43.28 62.09 43.63 60.75 43.98 59.12 44.33 59.72 44.67 58.83 45.02 62.98 45.37 63.27 45.72 60.9 46.07 58.83 46.42 59.86 46.77 65.79 47.12 68.31 47.47 69.94 47.82 69.49 48.17 71.27 48.52 71.12 48.86 69.2 49.21 69.2 49.56 70.68 49.91 71.86 50.26 73.79 50.61 70.68 50.96 69.79 51.31 71.12 51.66 70.83 52.01 71.86 52.36 76.31 52.7 76.6 53.05 74.09 53.4 70.97 53.75 71.72 54.1 68.9 54.45 71.42 54.8 70.83 55.15 72.9 55.5 72.01 55.85 76.46 56.2 76.31 56.55 76.6 56.89 74.53 57.24 74.38 57.59 72.16 57.94 75.57 58.29 75.57 58.64 73.49 58.99 70.83 59.34 70.09 59.69 68.31 60.04 68.31 60.39 66.83 60.73 65.49 61.08 67.42 61.43 64.31 61.78 62.83 62.13 59.86 62.48 58.38 62.83 56.46 63.18 56.46 63.53 54.09 63.88 54.38 64.23 56.9 64.58 57.05 64.92 58.83 65.27 58.83 65.62 60.31 65.97 60.31 66.32 60.75 66.67 63.12 67.02 64.46 67.37 65.79 67.72 65.05 68.07 67.12 68.42 65.49 68.77 66.53 69.11 65.64 69.46 66.09 69.81 64.31 70.16 64.9 70.51 62.09 70.86 62.53 71.21 61.94 71.56 64.31 71.91 65.2 72.26 64.9 72.61 65.2 72.95 64.9 73.3 66.83 73.65 67.12 74 65.79 74.35 67.86 74.7 67.27 75.05 70.97 75.4 70.09 75.75 70.23 76.1 71.72 76.45 72.6 76.8 72.6 77.14 70.53 77.49 68.75 77.84 70.83 78.19 72.31 78.54 75.71 78.89 76.6 79.24 73.49 79.59 68.75 79.94 69.35 80.29 68.31 80.64 65.79 80.98 63.72 81.33 60.61 81.68 60.01 82.03 59.72 82.38 57.94 82.73 58.24 83.08 60.75 83.43 60.16 83.78 57.2 84.13 57.35 84.48 56.16 84.83 54.09 85.17 54.09 85.52 55.57 85.87 54.68 86.22 57.49 86.57 58.68 86.92 59.72 87.27 62.53 87.62 59.57 87.97 62.68 88.32 61.79 88.67 63.27 89.02 63.86 89.36 64.01 89.71 64.31 90.06 65.79 90.41 65.79 90.76 62.83 91.11 64.75 91.46 67.27 91.81 68.16 92.16 68.31 92.51 70.09 92.86 71.12 93.2 72.16 93.55 73.64 93.9 76.01 94.25 77.49 94.6 74.68 94.95 72.9 95.3 72.46 95.65 75.57 96 78.38 96.35 76.9 96.7 76.9 97.05 77.79 97.39 72.46 97.74 71.42 98.09 71.72 98.44 74.09 98.79 77.34 99.14 77.49 99.49 76.01 99.84 75.86 100.19 77.34 100.54 76.16 100.89 77.94 101.23 75.42 101.58 76.6 101.93 77.94 102.28 79.27 102.63 75.71 102.98 76.9 103.33 76.6 103.68 81.05 104.03 83.27 104.38 83.42 104.73 81.79 105.08 82.68 105.42 84.31 105.77 81.49 106.12 83.57 106.47 80.6 106.82 76.6 107.17 77.34 107.52 77.49 107.87 76.75 108.22 74.68 108.57 73.49 108.92 70.68 109.26 69.49 109.61 64.61 109.96 63.12 110.31 62.38 110.66 64.9 111.01 67.57 111.36 65.35 111.71 67.42 112.06 66.98 112.41 64.16 112.76 65.94 113.11 69.2 113.45 65.64 113.8 62.98 114.15 62.68 114.5 64.75 114.85 66.38 115.2 66.83 115.55 63.42 115.9 64.61 116.25 64.46 116.6 65.94 116.95 64.61 117.3 63.72 117.64 64.46 117.99 62.23 118.34 60.31 118.69 59.12 119.04 59.72 119.39 55.87 119.74 57.35 120.09 57.94 120.44 57.64 120.79 58.09 121.14 58.83 121.48 59.12 121.83 62.23 122.18 62.23 122.53 59.12 122.88 59.72 123.23 61.64 123.58 62.53 123.93 61.05 124.28 62.38 124.63 62.38 124.98 62.83 125.33 64.31 125.67 66.68 126.02 67.86 126.37 71.42 126.72 71.72 127.07 71.57 127.42 68.6 127.77 71.42 128.12 72.9 128.47 69.2 128.82 71.57 129.17 70.23 129.51 67.86 129.86 64.61 130.21 67.86 130.56 68.31 130.91 70.09 131.26 69.94 131.61 71.86 131.96 72.01 132.31 69.94 132.66 73.2 133.01 73.79 133.36 74.53 133.7 72.75 134.05 74.68 134.4 77.94 134.75 77.79 135.1 77.49 135.45 78.23 135.8 77.2 136.15 78.23 136.5 76.75 136.85 78.68 137.2 77.2 137.55 75.12 137.89 71.72 138.24 70.09 138.59 70.23 138.94 71.27 139.29 74.83 139.64 76.9 139.99 75.42 140.34 74.97 140.69 73.64 141.04 73.05 141.39 69.64 141.73 69.94 142.08 71.86 142.43 70.23 142.78 71.12 143.13 72.01 143.48 68.75 143.83 66.23 144.18 60.31 144.53 59.57 144.88 56.31 145.23 56.9 145.58 55.12 145.92 53.64 146.27 54.24 146.62 55.12 146.97 54.98 147.32 54.24 147.67 53.2 148.02 54.38 148.37 59.42 148.72 58.09 149.07 56.01 149.42 56.75 149.76 58.68 150.11 58.38 150.46 58.98 150.81 59.42 151.16 59.72 151.51 61.64 151.86 63.42 152.21 64.61 152.56 64.16 152.91 66.83 153.26 63.86 153.61 65.64 153.95 63.86 154.3 62.38 154.65 59.86 155 57.94 155.35 58.53 155.7 58.38 156.05 60.75 156.4 61.94 156.75 64.01 157.1 61.64 157.45 60.75 157.79 58.24 158.14 56.31 158.49 59.12 158.84 57.64 159.19 57.49 159.54 58.98 159.89 58.68 160.24 59.86 160.59 58.83 160.94 59.42 161.29 60.9 161.64 65.35 161.98 65.64 162.33 64.9 162.68 63.86 163.03 66.09 163.38 67.27 163.73 69.49 164.08 71.72 164.43 72.75 164.78 72.6 165.13 71.86 165.48 71.12 165.83 75.12 166.17 75.27 166.52 74.68 166.87 73.94 167.22 73.94 167.57 75.71 167.92 79.42 168.27 81.34 168.62 84.45 168.97 83.71 169.32 82.53 169.67 83.86 170.01 85.79 170.36 87.57 170.71 85.49 171.06 83.57 171.41 83.42 171.76 83.12 172.11 83.71 172.46 84.75 172.81 85.79 173.16 87.42 173.51 87.12 173.86 90.82 174.2 88.6 174.55 89.34 174.9 87.42 175.25 87.57 175.6 86.68 175.95 86.97 176.3 89.49 176.65 90.97 177 93.64 177.35 90.08 177.7 91.27 178.04 90.38 178.39 91.56 178.74 89.79 179.09 88.75 179.44 90.68 179.79 90.38 180.14 95.12 180.49 95.12 180.84 93.49 181.19 94.68 181.54 94.82 181.89 93.79 182.23 92.16 182.58 89.49 182.93 90.38 183.28 87.42 183.63 85.49 183.98 83.71 184.33 83.57 184.68 84.75 185.03 82.53 185.38 81.2 185.73 82.97 186.08 82.23 186.42 84.45 186.77 85.05 187.12 83.86 187.47 82.68 187.82 85.79 188.17 86.08 188.52 86.23 188.87 84.01 189.22 81.05 189.57 81.05 189.92 80.31 190.26 82.23 190.61 81.49 190.96 79.12 191.31 79.57 191.66 76.16 192.01 81.2 192.36 76.6 192.71 75.27 193.06 72.01 193.41 72.6 193.76 73.05 194.11 74.23 194.45 75.57 194.8 75.71 195.15 77.64 195.5 79.27 195.85 78.68 196.2 74.68"/>
      </g>
      <g stroke-width="0.3" fill="#000000" fill-opacity="0.000" class="geometry" stroke-dasharray="none" stroke="#ABDDA4" id="img-910b72c2-12">
        <path fill="none" d="M21.98,79.27 L 22.33 78.53 22.68 76.9 23.03 78.68 23.38 80.75 23.73 83.12 24.08 81.34 24.42 82.68 24.77 80.9 25.12 79.86 25.47 77.79 25.82 75.57 26.17 76.16 26.52 78.83 26.87 78.23 27.22 81.2 27.57 80.16 27.92 82.68 28.27 82.82 28.61 83.57 28.96 82.97 29.31 84.6 29.66 85.34 30.01 83.12 30.36 81.94 30.71 84.9 31.06 83.57 31.41 83.12 31.76 85.34 32.11 86.68 32.45 84.75 32.8 84.6 33.15 83.71 33.5 83.27 33.85 81.79 34.2 81.94 34.55 83.12 34.9 79.71 35.25 77.49 35.6 79.71 35.95 79.42 36.3 79.27 36.64 80.9 36.99 83.12 37.34 83.12 37.69 83.86 38.04 85.34 38.39 84.45 38.74 80.16 39.09 83.86 39.44 80.75 39.79 80.01 40.14 79.86 40.49 78.53 40.83 82.23 41.18 82.97 41.53 83.86 41.88 83.12 42.23 82.68 42.58 83.86 42.93 83.27 43.28 83.42 43.63 83.42 43.98 81.64 44.33 82.68 44.67 83.12 45.02 83.12 45.37 82.82 45.72 84.9 46.07 84.45 46.42 82.68 46.77 82.97 47.12 81.49 47.47 82.97 47.82 80.31 48.17 77.79 48.52 77.05 48.86 79.27 49.21 79.12 49.56 80.45 49.91 82.97 50.26 81.2 50.61 79.71 50.96 81.64 51.31 82.53 51.66 79.57 52.01 78.68 52.36 77.05 52.7 73.49 53.05 72.01 53.4 75.12 53.75 73.05 54.1 72.01 54.45 74.09 54.8 73.49 55.15 75.42 55.5 76.16 55.85 74.38 56.2 71.72 56.55 70.83 56.89 68.9 57.24 69.79 57.59 69.79 57.94 69.94 58.29 67.72 58.64 65.79 58.99 69.2 59.34 72.01 59.69 70.38 60.04 70.53 60.39 70.23 60.73 70.38 61.08 72.46 61.43 77.79 61.78 76.9 62.13 73.64 62.48 72.75 62.83 77.34 63.18 78.53 63.53 78.53 63.88 81.05 64.23 81.94 64.58 80.45 64.92 78.08 65.27 79.86 65.62 79.12 65.97 76.6 66.32 74.38 66.67 75.27 67.02 74.23 67.37 76.01 67.72 73.79 68.07 74.38 68.42 76.01 68.77 77.2 69.11 73.79 69.46 72.6 69.81 75.27 70.16 74.68 70.51 70.38 70.86 71.12 71.21 71.86 71.56 69.49 71.91 69.64 72.26 66.53 72.61 66.98 72.95 66.68 73.3 63.42 73.65 63.27 74 63.12 74.35 63.12 74.7 66.83 75.05 70.97 75.4 73.2 75.75 72.01 76.1 73.94 76.45 73.05 76.8 75.42 77.14 77.05 77.49 75.57 77.84 80.9 78.19 78.68 78.54 80.6 78.89 81.79 79.24 80.01 79.59 80.16 79.94 81.05 80.29 81.05 80.64 82.08 80.98 81.79 81.33 81.94 81.68 83.86 82.03 83.42 82.38 87.27 82.73 88.31 83.08 88.31 83.43 87.27 83.78 90.08 84.13 89.19 84.48 89.79 84.83 91.86 85.17 91.56 85.52 90.08 85.87 88.75 86.22 83.86 86.57 84.01 86.92 82.82 87.27 81.64 87.62 81.34 87.97 82.68 88.32 82.38 88.67 83.57 89.02 81.05 89.36 78.68 89.71 76.9 90.06 78.38 90.41 79.86 90.76 79.27 91.11 82.97 91.46 82.08 91.81 82.53 92.16 83.12 92.51 77.64 92.86 73.64 93.2 74.83 93.55 74.83 93.9 71.42 94.25 69.64 94.6 71.86 94.95 68.75 95.3 69.64 95.65 70.53 96 69.35 96.35 70.68 96.7 71.42 97.05 74.53 97.39 75.27 97.74 73.64 98.09 76.46 98.44 73.34 98.79 71.72 99.14 73.49 99.49 73.49 99.84 72.75 100.19 72.75 100.54 74.97 100.89 71.72 101.23 69.94 101.58 71.86 101.93 73.2 102.28 73.2 102.63 75.71 102.98 75.86 103.33 78.23 103.68 78.68 104.03 76.6 104.38 76.01 104.73 72.75 105.08 72.01 105.42 76.6 105.77 78.53 106.12 78.83 106.47 77.94 106.82 75.71 107.17 75.27 107.52 74.38 107.87 73.79 108.22 76.46 108.57 76.31 108.92 76.31 109.26 74.97 109.61 74.83 109.96 75.86 110.31 73.79 110.66 73.49 111.01 72.9 111.36 73.34 111.71 72.01 112.06 69.94 112.41 67.72 112.76 70.09 113.11 66.09 113.45 65.79 113.8 65.35 114.15 68.6 114.5 64.9 114.85 69.2 115.2 68.16 115.55 66.98 115.9 66.53 116.25 65.05 116.6 66.38 116.95 66.98 117.3 67.27 117.64 62.98 117.99 60.61 118.34 61.05 118.69 60.01 119.04 58.83 119.39 59.72 119.74 59.57 120.09 60.46 120.44 59.12 120.79 58.53 121.14 58.53 121.48 58.38 121.83 57.79 122.18 57.35 122.53 58.98 122.88 57.64 123.23 58.09 123.58 58.53 123.93 58.09 124.28 57.79 124.63 59.27 124.98 57.35 125.33 61.2 125.67 58.98 126.02 57.79 126.37 54.24 126.72 51.27 127.07 53.64 127.42 54.68 127.77 51.87 128.12 51.42 128.47 50.98 128.82 49.35 129.17 47.42 129.51 49.2 129.86 50.09 130.21 50.68 130.56 49.5 130.91 48.76 131.26 48.31 131.61 48.01 131.96 46.39 132.31 46.53 132.66 46.83 133.01 47.13 133.36 49.94 133.7 53.2 134.05 53.2 134.4 55.57 134.75 57.2 135.1 55.42 135.45 56.9 135.8 58.38 136.15 55.42 136.5 55.87 136.85 53.64 137.2 52.31 137.55 52.75 137.89 54.24 138.24 54.24 138.59 56.31 138.94 57.05 139.29 56.9 139.64 56.16 139.99 58.24 140.34 59.72 140.69 57.05 141.04 54.83 141.39 53.64 141.73 55.72 142.08 55.27 142.43 53.94 142.78 55.42 143.13 55.72 143.48 54.09 143.83 55.87 144.18 56.46 144.53 57.49 144.88 57.49 145.23 57.79 145.58 57.35 145.92 55.87 146.27 54.83 146.62 56.16 146.97 57.05 147.32 58.24 147.67 58.98 148.02 59.86 148.37 60.9 148.72 60.61 149.07 62.83 149.42 63.42 149.76 65.35 150.11 63.86 150.46 65.79 150.81 63.27 151.16 64.31 151.51 66.68 151.86 66.09 152.21 62.98 152.56 64.31 152.91 65.2 153.26 63.12 153.61 62.83 153.95 61.35 154.3 57.79 154.65 60.46 155 60.01 155.35 61.94 155.7 61.05 156.05 59.12 156.4 57.49 156.75 59.72 157.1 57.35 157.45 57.35 157.79 58.98 158.14 60.75 158.49 62.68 158.84 62.09 159.19 61.05 159.54 63.12 159.89 60.61 160.24 61.79 160.59 61.94 160.94 61.2 161.29 60.75 161.64 59.57 161.98 60.01 162.33 57.2 162.68 59.42 163.03 58.98 163.38 57.2 163.73 57.49 164.08 58.09 164.43 58.24 164.78 57.05 165.13 58.09 165.48 58.68 165.83 58.53 166.17 56.46 166.52 59.27 166.87 59.57 167.22 56.46 167.57 54.53 167.92 52.16 168.27 52.75 168.62 49.5 168.97 48.01 169.32 49.5 169.67 48.01 170.01 49.35 170.36 51.42 170.71 49.94 171.06 49.94 171.41 49.5 171.76 45.5 172.11 44.61 172.46 46.24 172.81 44.16 173.16 41.2 173.51 40.9 173.86 42.24 174.2 42.68 174.55 44.61 174.9 48.16 175.25 47.42 175.6 45.5 175.95 43.87 176.3 42.24 176.65 42.53 177 42.68 177.35 41.35 177.7 41.79 178.04 41.2 178.39 40.46 178.74 39.87 179.09 38.39 179.44 38.83 179.79 38.53 180.14 38.53 180.49 36.02 180.84 35.87 181.19 35.42 181.54 37.05 181.89 37.2 182.23 36.61 182.58 36.46 182.93 35.72 183.28 36.9 183.63 36.31 183.98 35.28 184.33 35.28 184.68 35.13 185.03 36.61 185.38 36.31 185.73 35.87 186.08 35.13 186.42 34.83 186.77 35.72 187.12 35.42 187.47 36.9 187.82 35.42 188.17 32.76 188.52 32.02 188.87 32.76 189.22 31.57 189.57 31.72 189.92 31.28 190.26 30.68 190.61 30.83 190.96 30.39 191.31 30.83 191.66 30.24 192.01 29.65 192.36 29.65 192.71 30.24 193.06 30.83 193.41 31.42 193.76 32.02 194.11 31.72 194.45 32.46 194.8 32.61 195.15 31.87 195.5 30.09 195.85 30.39 196.2 30.09"/>
      </g>
      <g stroke-width="0.3" fill="#000000" fill-opacity="0.000" class="geometry" stroke-dasharray="none" stroke="#E6F598" id="img-910b72c2-13">
        <path fill="none" d="M21.98,79.27 L 22.33 77.05 22.68 77.79 23.03 75.86 23.38 76.46 23.73 77.34 24.08 79.12 24.42 81.2 24.77 82.68 25.12 82.68 25.47 79.27 25.82 81.64 26.17 81.2 26.52 77.34 26.87 77.79 27.22 76.6 27.57 76.01 27.92 74.38 28.27 75.27 28.61 74.38 28.96 73.94 29.31 78.08 29.66 77.64 30.01 77.49 30.36 80.16 30.71 82.68 31.06 83.42 31.41 81.94 31.76 81.79 32.11 85.34 32.45 86.82 32.8 86.08 33.15 84.75 33.5 81.05 33.85 84.45 34.2 84.45 34.55 84.75 34.9 84.6 35.25 86.97 35.6 85.34 35.95 83.12 36.3 85.05 36.64 87.12 36.99 88.01 37.34 88.9 37.69 89.49 38.04 88.9 38.39 91.12 38.74 93.05 39.09 94.23 39.44 95.27 39.79 97.05 40.14 97.34 40.49 97.19 40.83 99.42 41.18 100.16 41.53 100.01 41.88 96.75 42.23 98.38 42.58 98.82 42.93 98.97 43.28 97.79 43.63 94.08 43.98 93.34 44.33 93.34 44.67 93.64 45.02 96.9 45.37 96.45 45.72 96.01 46.07 97.34 46.42 94.82 46.77 95.27 47.12 94.97 47.47 95.27 47.82 97.19 48.17 97.79 48.52 101.93 48.86 100.16 49.21 100.16 49.56 96.75 49.91 97.64 50.26 95.12 50.61 95.71 50.96 95.27 51.31 96.45 51.66 94.08 52.01 91.12 52.36 88.6 52.7 87.71 53.05 88.6 53.4 91.27 53.75 91.12 54.1 90.68 54.45 89.19 54.8 88.45 55.15 89.19 55.5 88.6 55.85 88.01 56.2 85.19 56.55 86.82 56.89 86.23 57.24 85.64 57.59 85.94 57.94 84.9 58.29 85.64 58.64 85.34 58.99 86.53 59.34 86.97 59.69 87.86 60.04 88.31 60.39 89.34 60.73 90.08 61.08 93.64 61.43 94.82 61.78 91.71 62.13 92.9 62.48 93.64 62.83 98.97 63.18 98.82 63.53 96.6 63.88 99.42 64.23 98.38 64.58 99.12 64.92 100.6 65.27 100.3 65.62 100.3 65.97 102.23 66.32 101.04 66.67 98.67 67.02 99.56 67.37 102.38 67.72 98.82 68.07 100.6 68.42 99.42 68.77 98.53 69.11 101.49 69.46 102.97 69.81 103.56 70.16 103.86 70.51 104.75 70.86 106.97 71.21 106.53 71.56 107.86 71.91 109.64 72.26 111.27 72.61 114.82 72.95 114.82 73.3 116.6 73.65 115.27 74 115.86 74.35 116.01 74.7 115.71 75.05 116.45 75.4 114.52 75.75 113.78 76.1 114.52 76.45 114.82 76.8 114.23 77.14 114.82 77.49 114.23 77.84 111.56 78.19 112.75 78.54 112.01 78.89 113.78 79.24 113.04 79.59 116.3 79.94 118.23 80.29 120.89 80.64 120.6 80.98 120.89 81.33 122.82 81.68 123.86 82.03 121.93 82.38 123.12 82.73 122.67 83.08 121.78 83.43 122.52 83.78 120.3 84.13 117.19 84.48 116.45 84.83 116.75 85.17 116.45 85.52 117.93 85.87 116.45 86.22 115.71 86.57 112.15 86.92 111.86 87.27 109.78 87.62 108.6 87.97 107.71 88.32 111.27 88.67 110.82 89.02 112.15 89.36 112.9 89.71 113.04 90.06 112.15 90.41 113.64 90.76 113.64 91.11 113.78 91.46 111.71 91.81 112.9 92.16 113.19 92.51 115.71 92.86 115.71 93.2 116.75 93.55 116.75 93.9 117.19 94.25 118.82 94.6 118.23 94.95 119.71 95.3 118.23 95.65 118.97 96 121.49 96.35 120.6 96.7 121.49 97.05 124.15 97.39 122.38 97.74 123.71 98.09 122.97 98.44 124 98.79 124 99.14 125.04 99.49 125.34 99.84 124.3 100.19 123.86 100.54 122.52 100.89 122.82 101.23 122.97 101.58 123.86 101.93 124.45 102.28 123.86 102.63 124.45 102.98 125.93 103.33 125.93 103.68 125.78 104.03 125.78 104.38 126.52 104.73 127.56 105.08 126.23 105.42 125.04 105.77 125.34 106.12 123.86 106.47 125.19 106.82 125.34 107.17 125.93 107.52 125.34 107.87 125.63 108.22 125.93 108.57 126.67 108.92 127.41 109.26 127.56 109.61 128 109.96 127.86 110.31 127.71 110.66 126.97 111.01 126.08 111.36 126.67 111.71 126.97 112.06 126.82 112.41 126.52 112.76 126.97 113.11 126.37 113.45 126.23 113.8 126.37 114.15 126.08 114.5 124.75 114.85 126.52 115.2 127.12 115.55 127.41 115.9 127.56 116.25 126.67 116.6 127.71 116.95 127.71 117.3 128 117.64 127.12 117.99 127.41 118.34 127.71 118.69 128 119.04 128 119.39 128.3 119.74 129.04 120.09 129.34 120.44 128.6 120.79 128.3 121.14 128.45 121.48 128.15 121.83 127.71 122.18 127.86 122.53 128.74 122.88 128.6 123.23 128.89 123.58 128.6 123.93 128.74 124.28 129.63 124.63 128.3 124.98 128.89 125.33 128.3 125.67 129.19 126.02 129.93 126.37 130.37 126.72 130.08 127.07 130.37 127.42 130.67 127.77 130.82 128.12 130.82 128.47 130.97 128.82 131.11"/>
      </g>
      <g stroke-width="0.3" fill="#000000" fill-opacity="0.000" class="geometry" stroke-dasharray="none" stroke="#FFFFBF" id="img-910b72c2-14">
        <path fill="none" d="M21.98,79.27 L 22.33 80.31 22.68 78.23 23.03 75.12 23.38 72.9 23.73 72.75 24.08 72.16 24.42 74.83 24.77 75.57 25.12 76.16 25.47 74.83 25.82 74.53 26.17 74.23 26.52 71.72 26.87 68.46 27.22 68.75 27.57 67.12 27.92 69.64 28.27 64.75 28.61 62.38 28.96 64.16 29.31 64.61 29.66 64.31 30.01 61.94 30.36 59.72 30.71 58.98 31.06 60.16 31.41 62.38 31.76 59.12 32.11 61.35 32.45 61.2 32.8 58.68 33.15 59.12 33.5 56.75 33.85 54.68 34.2 54.09 34.55 52.31 34.9 54.24 35.25 51.72 35.6 54.53 35.95 54.09 36.3 52.31 36.64 51.87 36.99 48.61 37.34 52.61 37.69 55.27 38.04 52.75 38.39 51.13 38.74 50.68 39.09 51.87 39.44 54.98 39.79 52.16 40.14 53.64 40.49 50.24 40.83 48.9 41.18 49.2 41.53 46.83 41.88 46.09 42.23 48.9 42.58 49.79 42.93 51.42 43.28 53.2 43.63 51.87 43.98 52.31 44.33 51.27 44.67 49.5 45.02 48.76 45.37 50.68 45.72 50.68 46.07 50.83 46.42 50.38 46.77 51.42 47.12 53.05 47.47 56.01 47.82 55.87 48.17 55.27 48.52 53.64 48.86 52.61 49.21 53.94 49.56 53.64 49.91 53.05 50.26 54.98 50.61 54.53 50.96 53.64 51.31 51.42 51.66 54.68 52.01 55.12 52.36 57.64 52.7 57.49 53.05 56.31 53.4 54.83 53.75 51.72 54.1 51.72 54.45 50.83 54.8 50.24 55.15 48.46 55.5 49.35 55.85 51.57 56.2 52.16 56.55 51.87 56.89 52.16 57.24 53.2 57.59 53.64 57.94 55.87 58.29 54.53 58.64 55.12 58.99 54.24 59.34 51.13 59.69 51.87 60.04 51.72 60.39 53.05 60.73 53.05 61.08 53.35 61.43 52.9 61.78 51.13 62.13 49.79 62.48 50.83 62.83 51.72 63.18 50.38 63.53 48.9 63.88 48.16 64.23 50.09 64.58 49.05 64.92 47.87 65.27 47.57 65.62 48.16 65.97 48.16 66.32 46.39 66.67 46.39 67.02 48.16 67.37 49.79 67.72 49.64 68.07 51.27 68.42 51.57 68.77 50.83 69.11 50.38 69.46 52.01 69.81 51.72 70.16 49.94 70.51 53.79 70.86 53.5 71.21 53.2 71.56 53.35 71.91 54.24 72.26 53.79 72.61 53.05 72.95 50.68 73.3 49.2 73.65 49.35 74 50.68 74.35 49.2 74.7 52.01 75.05 53.5 75.4 50.53 75.75 53.2 76.1 54.38 76.45 54.24 76.8 53.05 77.14 53.79 77.49 53.2 77.84 50.68 78.19 51.27 78.54 50.83 78.89 48.9 79.24 48.16 79.59 46.98 79.94 46.83 80.29 46.83 80.64 45.05 80.98 43.13 81.33 45.35 81.68 43.72 82.03 44.61 82.38 43.72 82.73 41.94 83.08 43.13 83.43 46.24 83.78 45.5 84.13 47.87 84.48 47.13 84.83 47.72 85.17 48.46 85.52 47.72 85.87 46.24 86.22 46.39 86.57 40.9 86.92 40.9 87.27 41.94 87.62 43.57 87.97 43.72 88.32 41.94 88.67 42.39 89.02 39.87 89.36 38.53 89.71 37.94 90.06 37.35 90.41 35.87 90.76 36.46 91.11 36.16 91.46 34.83 91.81 34.83 92.16 35.72 92.51 35.13 92.86 35.42 93.2 35.42 93.55 36.02 93.9 37.35 94.25 38.39 94.6 40.16 94.95 40.16 95.3 41.5 95.65 41.35 96 40.61 96.35 40.31 96.7 41.64 97.05 39.87 97.39 42.09 97.74 43.87 98.09 42.24 98.44 40.76 98.79 39.72 99.14 41.35 99.49 40.76 99.84 42.39 100.19 41.64 100.54 41.35 100.89 41.05 101.23 41.2 101.58 40.31 101.93 39.42 102.28 38.83 102.63 37.5 102.98 37.2 103.33 36.9 103.68 37.2 104.03 37.5 104.38 37.35 104.73 36.76 105.08 35.87 105.42 34.68 105.77 36.16 106.12 34.98 106.47 34.53 106.82 34.09 107.17 33.35 107.52 33.94 107.87 34.98 108.22 35.72 108.57 35.42 108.92 36.61 109.26 37.5 109.61 35.57 109.96 33.94 110.31 34.53 110.66 32.76 111.01 32.02 111.36 32.31 111.71 30.98 112.06 31.72 112.41 33.79 112.76 33.5 113.11 35.28 113.45 35.42 113.8 34.53 114.15 32.91 114.5 33.2 114.85 33.35 115.2 33.05 115.55 34.83 115.9 35.42 116.25 39.42 116.6 39.72 116.95 40.76 117.3 40.16 117.64 39.42 117.99 38.98 118.34 39.87 118.69 41.35 119.04 40.46 119.39 39.72 119.74 39.87 120.09 40.02 120.44 37.94 120.79 38.83 121.14 40.16 121.48 40.46 121.83 41.05 122.18 42.53 122.53 44.61 122.88 44.61 123.23 45.35 123.58 46.53 123.93 45.79 124.28 44.9 124.63 45.94 124.98 45.35 125.33 45.79 125.67 44.9 126.02 44.02 126.37 45.5 126.72 45.05 127.07 44.46 127.42 45.79 127.77 46.68 128.12 45.5 128.47 45.94 128.82 46.39 129.17 47.87 129.51 46.98 129.86 47.87 130.21 47.13 130.56 45.2 130.91 44.46 131.26 44.9 131.61 44.16 131.96 44.31 132.31 43.57 132.66 44.31 133.01 43.57 133.36 43.42 133.7 42.09 134.05 42.53 134.4 42.53 134.75 42.24 135.1 41.35 135.45 40.16 135.8 42.24 136.15 43.13 136.5 43.72 136.85 44.02 137.2 40.61 137.55 40.16 137.89 41.35 138.24 41.05 138.59 39.87 138.94 39.13 139.29 37.79 139.64 38.68 139.99 40.46 140.34 38.83 140.69 38.68 141.04 38.09 141.39 39.27 141.73 39.27 142.08 37.65 142.43 37.79 142.78 38.98 143.13 42.09 143.48 41.2 143.83 40.61 144.18 38.83 144.53 39.87 144.88 41.2 145.23 39.13 145.58 39.13 145.92 39.42 146.27 40.16 146.62 39.27 146.97 39.87 147.32 38.09 147.67 36.31 148.02 34.83 148.37 33.79 148.72 31.57 149.07 30.98 149.42 30.39 149.76 29.79 150.11 30.09 150.46 30.39 150.81 30.24 151.16 29.79 151.51 29.5 151.86 29.79 152.21 29.05 152.56 28.31 152.91 28.91 153.26 29.2 153.61 29.2 153.95 30.09 154.3 30.24 154.65 29.79 155 29.5 155.35 29.65 155.7 29.2 156.05 29.79 156.4 30.09 156.75 29.35 157.1 29.65 157.45 29.79 157.79 28.76 158.14 28.61 158.49 28.02 158.84 27.87 159.19 27.87 159.54 27.57 159.89 27.72 160.24 27.87 160.59 27.57 160.94 27.42"/>
      </g>
      <g stroke-width="0.3" fill="#000000" fill-opacity="0.000" class="geometry" stroke-dasharray="none" stroke="#FEE08B" id="img-910b72c2-15">
        <path fill="none" d="M21.98,79.27 L 22.33 77.79 22.68 78.38 23.03 75.27 23.38 76.6 23.73 78.68 24.08 79.27 24.42 77.94 24.77 80.75 25.12 81.79 25.47 82.38 25.82 85.19 26.17 86.82 26.52 85.34 26.87 86.38 27.22 85.79 27.57 88.01 27.92 89.79 28.27 92.31 28.61 91.12 28.96 90.68 29.31 92.6 29.66 91.42 30.01 90.97 30.36 92.75 30.71 94.08 31.06 93.34 31.41 91.42 31.76 91.27 32.11 88.45 32.45 90.82 32.8 90.68 33.15 93.64 33.5 94.53 33.85 92.6 34.2 88.45 34.55 88.9 34.9 88.16 35.25 91.12 35.6 89.34 35.95 89.79 36.3 89.19 36.64 88.31 36.99 88.01 37.34 86.82 37.69 88.01 38.04 87.86 38.39 88.31 38.74 87.57 39.09 86.97 39.44 84.75 39.79 84.6 40.14 86.38 40.49 89.49 40.83 89.49 41.18 89.79 41.53 90.53 41.88 90.38 42.23 86.53 42.58 88.31 42.93 91.71 43.28 89.94 43.63 93.79 43.98 96.3 44.33 98.67 44.67 94.82 45.02 96.45 45.37 95.56 45.72 94.97 46.07 94.68 46.42 96.45 46.77 96.3 47.12 96.45 47.47 95.71 47.82 95.86 48.17 97.34 48.52 97.34 48.86 97.79 49.21 95.56 49.56 96.3 49.91 96.6 50.26 98.38 50.61 98.97 50.96 97.93 51.31 98.08 51.66 97.93 52.01 96.3 52.36 98.08 52.7 99.42 53.05 97.64 53.4 99.27 53.75 98.38 54.1 98.67 54.45 99.27 54.8 98.67 55.15 99.71 55.5 99.71 55.85 100.01 56.2 99.27 56.55 96.75 56.89 95.86 57.24 99.71 57.59 97.93 57.94 98.08 58.29 98.53 58.64 96.9 58.99 94.53 59.34 96.6 59.69 96.75 60.04 98.97 60.39 100.01 60.73 99.12 61.08 98.08 61.43 98.08 61.78 97.19 62.13 99.12 62.48 101.64 62.83 99.42 63.18 99.71 63.53 99.27 63.88 97.64 64.23 96.9 64.58 100.45 64.92 99.71 65.27 97.49 65.62 98.23 65.97 99.71 66.32 101.64 66.67 100.75 67.02 96.75 67.37 97.19 67.72 97.05 68.07 96.3 68.42 97.93 68.77 98.08 69.11 98.97 69.46 102.38 69.81 104.01 70.16 102.97 70.51 102.38 70.86 99.56 71.21 100.45 71.56 101.93 71.91 100.75 72.26 100.6 72.61 100.3 72.95 98.82 73.3 99.56 73.65 100.16 74 99.86 74.35 99.12 74.7 100.16 75.05 100.75 75.4 102.82 75.75 101.19 76.1 101.93 76.45 101.19 76.8 99.71 77.14 99.71 77.49 97.79 77.84 97.93 78.19 99.71 78.54 99.56 78.89 99.56 79.24 101.04 79.59 99.12 79.94 99.12 80.29 101.93 80.64 104.01 80.98 101.79 81.33 101.19 81.68 101.64 82.03 101.93 82.38 101.79 82.73 98.67 83.08 101.34 83.43 102.53 83.78 99.86 84.13 101.93 84.48 102.53 84.83 102.53 85.17 102.23 85.52 99.12 85.87 101.19 86.22 101.19 86.57 98.53 86.92 97.34 87.27 98.38 87.62 96.45 87.97 100.45 88.32 100.6 88.67 99.86 89.02 98.38 89.36 96.01 89.71 95.27 90.06 93.34 90.41 89.19 90.76 90.23 91.11 89.79 91.46 90.97 91.81 89.34 92.16 90.53 92.51 89.64 92.86 88.31 93.2 91.12 93.55 92.16 93.9 94.38 94.25 94.08 94.6 94.38 94.95 93.19 95.3 94.82 95.65 96.75 96 98.53 96.35 97.34 96.7 97.34 97.05 97.64 97.39 99.12 97.74 98.38 98.09 97.64 98.44 99.12 98.79 99.12 99.14 100.45 99.49 98.97 99.84 96.16 100.19 98.38 100.54 99.27 100.89 99.27 101.23 97.64 101.58 94.08 101.93 94.23 102.28 93.05 102.63 92.16 102.98 93.05 103.33 94.23 103.68 95.12 104.03 96.16 104.38 95.27 104.73 90.97 105.08 90.97 105.42 91.42 105.77 94.38 106.12 96.3 106.47 92.9 106.82 92.75 107.17 93.93 107.52 92.45 107.87 94.38 108.22 91.56 108.57 89.49 108.92 87.57 109.26 91.42 109.61 88.75 109.96 90.23 110.31 93.34 110.66 90.38 111.01 92.31 111.36 90.68 111.71 91.42 112.06 89.34 112.41 88.45 112.76 89.64 113.11 88.9 113.45 88.16 113.8 87.42 114.15 89.94 114.5 91.71 114.85 90.23 115.2 89.05 115.55 91.12 115.9 90.82 116.25 90.82 116.6 89.05 116.95 89.19 117.3 88.75 117.64 90.82 117.99 92.01 118.34 92.01 118.69 90.97 119.04 94.08 119.39 96.75 119.74 95.86 120.09 94.68 120.44 94.68 120.79 94.82 121.14 99.71 121.48 98.53 121.83 97.64 122.18 97.34 122.53 100.6 122.88 101.04 123.23 98.97 123.58 98.23 123.93 96.01 124.28 93.93 124.63 92.45 124.98 90.23 125.33 88.01 125.67 90.53 126.02 91.42 126.37 93.79 126.72 93.64 127.07 92.31 127.42 92.16 127.77 91.56 128.12 91.71 128.47 90.53 128.82 91.27 129.17 86.68 129.51 85.19 129.86 84.16 130.21 82.23 130.56 79.71 130.91 82.97 131.26 79.71 131.61 78.83 131.96 80.31 132.31 78.38 132.66 81.79 133.01 88.01 133.36 90.68 133.7 89.05 134.05 90.23 134.4 86.53 134.75 87.12 135.1 87.86 135.45 92.16 135.8 93.19 136.15 93.64 136.5 92.6 136.85 92.16 137.2 93.49 137.55 93.34 137.89 93.19 138.24 91.71 138.59 92.16 138.94 92.45 139.29 92.9 139.64 92.31 139.99 91.71 140.34 92.01 140.69 92.16 141.04 96.75 141.39 95.56 141.73 94.68 142.08 94.08 142.43 93.49 142.78 93.64 143.13 93.19 143.48 92.16 143.83 93.79 144.18 95.86 144.53 96.9 144.88 97.64 145.23 99.86 145.58 99.71 145.92 99.71 146.27 99.27 146.62 100.01 146.97 98.67 147.32 97.64 147.67 97.49 148.02 95.56 148.37 95.71 148.72 96.45 149.07 99.71 149.42 99.71 149.76 98.38 150.11 98.53 150.46 102.97 150.81 103.12 151.16 100.3 151.51 102.38 151.86 104.16 152.21 105.19 152.56 109.78 152.91 108.6 153.26 108.45 153.61 105.93 153.95 101.79 154.3 103.56 154.65 106.23 155 108.01 155.35 108.01 155.7 108.45 156.05 106.08 156.4 104.3 156.75 104.3 157.1 105.64 157.45 107.41 157.79 108.15 158.14 110.08 158.49 110.08 158.84 110.38 159.19 111.41 159.54 113.04 159.89 114.38 160.24 114.67 160.59 113.04 160.94 112.01 161.29 110.23 161.64 108.15 161.98 107.86 162.33 105.78 162.68 106.08 163.03 107.56 163.38 107.41 163.73 107.86 164.08 106.23 164.43 107.27 164.78 109.78 165.13 110.53 165.48 109.04 165.83 110.82 166.17 112.45 166.52 110.97 166.87 109.34 167.22 109.64 167.57 109.78 167.92 109.64 168.27 109.04 168.62 108.75 168.97 108.01 169.32 105.04 169.67 105.04 170.01 105.64 170.36 108.01 170.71 106.67 171.06 106.23 171.41 108.3 171.76 108.75 172.11 108.3 172.46 108.9 172.81 106.67 173.16 110.53 173.51 109.34 173.86 110.53 174.2 111.27 174.55 112.45 174.9 112.3 175.25 110.67 175.6 111.86 175.95 110.97 176.3 113.78 176.65 115.71 177 115.71 177.35 115.12 177.7 115.86 178.04 119.71 178.39 117.93 178.74 117.49 179.09 118.23 179.44 116.3 179.79 117.49 180.14 117.34 180.49 117.64 180.84 117.64 181.19 116.6 181.54 117.19 181.89 116.6 182.23 115.27 182.58 117.64 182.93 117.49 183.28 118.82 183.63 120.01 183.98 118.38 184.33 118.08 184.68 119.86 185.03 119.86 185.38 119.26 185.73 119.56 186.08 119.71 186.42 120.75 186.77 120.89 187.12 120.01 187.47 120.3 187.82 121.78 188.17 122.38 188.52 122.23 188.87 123.56 189.22 124.89 189.57 125.19 189.92 124 190.26 123.56 190.61 122.82 190.96 122.67 191.31 123.86 191.66 122.97 192.01 123.41 192.36 123.41 192.71 123.12 193.06 123.26 193.41 124.45 193.76 123.56 194.11 124.45 194.45 124.15 194.8 124.15 195.15 123.86 195.5 124 195.85 124.45 196.2 124.75"/>
      </g>
      <g stroke-width="0.3" fill="#000000" fill-opacity="0.000" class="geometry" stroke-dasharray="none" stroke="#FDAE61" id="img-910b72c2-16">
        <path fill="none" d="M21.98,79.27 L 22.33 80.6 22.68 76.75 23.03 77.94 23.38 76.9 23.73 79.27 24.08 80.6 24.42 79.27 24.77 79.57 25.12 78.97 25.47 79.86 25.82 74.53 26.17 74.83 26.52 72.9 26.87 73.94 27.22 68.75 27.57 69.64 27.92 70.83 28.27 72.01 28.61 71.42 28.96 70.68 29.31 73.94 29.66 73.2 30.01 73.64 30.36 76.75 30.71 75.86 31.06 76.75 31.41 81.2 31.76 85.05 32.11 82.08 32.45 81.49 32.8 80.9 33.15 79.86 33.5 81.34 33.85 79.57 34.2 78.97 34.55 78.53 34.9 78.97 35.25 82.53 35.6 82.23 35.95 81.79 36.3 81.2 36.64 80.9 36.99 81.94 37.34 77.94 37.69 74.68 38.04 76.01 38.39 76.46 38.74 73.2 39.09 73.94 39.44 73.05 39.79 73.2 40.14 70.53 40.49 71.57 40.83 71.72 41.18 73.34 41.53 79.86 41.88 79.42 42.23 80.9 42.58 82.97 42.93 87.42 43.28 86.08 43.63 87.71 43.98 85.79 44.33 87.27 44.67 92.45 45.02 89.05 45.37 92.31 45.72 94.82 46.07 97.05 46.42 94.38 46.77 97.49 47.12 99.71 47.47 97.05 47.82 98.38 48.17 99.86 48.52 100.6 48.86 98.23 49.21 95.71 49.56 96.75 49.91 100.6 50.26 98.97 50.61 100.45 50.96 98.53 51.31 99.56 51.66 101.93 52.01 103.12 52.36 101.64 52.7 100.45 53.05 100.16 53.4 101.49 53.75 102.67 54.1 100.16 54.45 101.34 54.8 104.3 55.15 104.3 55.5 105.34 55.85 108.75 56.2 109.04 56.55 107.27 56.89 105.04 57.24 105.78 57.59 104.9 57.94 104.45 58.29 105.34 58.64 107.12 58.99 105.93 59.34 103.71 59.69 103.41 60.04 103.56 60.39 104.6 60.73 106.53 61.08 109.34 61.43 111.12 61.78 107.56 62.13 105.93 62.48 107.71 62.83 107.56 63.18 106.82 63.53 107.56 63.88 107.12 64.23 106.82 64.58 108.3 64.92 110.53 65.27 109.64 65.62 109.04 65.97 109.34 66.32 108.45 66.67 107.41 67.02 106.53 67.37 105.93 67.72 104.01 68.07 106.08 68.42 104.6 68.77 105.49 69.11 105.64 69.46 101.93 69.81 101.79 70.16 102.08 70.51 99.42 70.86 97.19 71.21 98.67 71.56 99.12 71.91 97.64 72.26 102.97 72.61 103.86 72.95 104.45 73.3 105.78 73.65 104.45 74 103.12 74.35 103.27 74.7 100.01 75.05 103.27 75.4 100.45 75.75 101.04 76.1 101.64 76.45 99.86 76.8 98.97 77.14 97.19 77.49 98.08 77.84 101.04 78.19 98.82 78.54 99.12 78.89 98.53 79.24 96.75 79.59 95.42 79.94 94.38 80.29 94.97 80.64 94.23 80.98 92.9 81.33 91.71 81.68 93.05 82.03 95.86 82.38 96.75 82.73 95.86 83.08 90.23 83.43 88.01 83.78 85.34 84.13 82.68 84.48 86.08 84.83 87.71 85.17 88.9 85.52 87.12 85.87 89.05 86.22 86.82 86.57 88.45 86.92 91.27 87.27 89.79 87.62 88.9 87.97 87.57 88.32 87.12 88.67 87.12 89.02 88.01 89.36 87.71 89.71 83.71 90.06 84.45 90.41 81.79 90.76 82.68 91.11 82.08 91.46 81.79 91.81 81.49 92.16 82.08 92.51 81.05 92.86 83.57 93.2 84.01 93.55 86.82 93.9 83.42 94.25 83.71 94.6 83.27 94.95 83.27 95.3 82.82 95.65 79.42 96 78.23 96.35 74.68 96.7 75.42 97.05 77.49 97.39 77.79 97.74 73.94 98.09 76.01 98.44 75.27 98.79 75.42 99.14 73.79 99.49 71.86 99.84 73.05 100.19 69.94 100.54 69.35 100.89 68.31 101.23 65.49 101.58 62.38 101.93 63.86 102.28 65.35 102.63 64.46 102.98 66.83 103.33 65.79 103.68 63.57 104.03 64.46 104.38 61.2 104.73 61.64 105.08 59.27 105.42 60.16 105.77 60.75 106.12 62.09 106.47 62.68 106.82 58.83 107.17 59.57 107.52 58.98 107.87 60.61 108.22 60.16 108.57 60.16 108.92 61.49 109.26 62.38 109.61 62.23 109.96 59.42 110.31 60.9 110.66 59.12 111.01 56.16 111.36 56.46 111.71 53.94 112.06 55.72 112.41 57.79 112.76 56.31 113.11 58.24 113.45 58.53 113.8 62.38 114.15 62.98 114.5 64.75 114.85 65.94 115.2 63.86 115.55 62.53 115.9 61.79 116.25 60.16 116.6 63.27 116.95 61.64 117.3 60.75 117.64 63.27 117.99 60.75 118.34 60.61 118.69 62.83 119.04 64.46 119.39 62.68 119.74 62.09 120.09 59.27 120.44 59.72 120.79 60.75 121.14 61.35 121.48 59.86 121.83 58.53 122.18 58.09 122.53 55.12 122.88 51.13 123.23 51.27 123.58 52.16 123.93 55.72 124.28 51.42 124.63 51.72 124.98 48.61 125.33 48.46 125.67 49.64 126.02 50.53 126.37 50.83 126.72 51.72 127.07 50.83 127.42 50.83 127.77 47.13 128.12 44.76 128.47 43.87 128.82 43.72 129.17 44.76 129.51 43.87 129.86 41.79 130.21 41.5 130.56 41.64 130.91 41.94 131.26 44.46 131.61 45.35 131.96 44.46 132.31 46.53 132.66 47.42 133.01 46.83 133.36 47.72 133.7 46.83 134.05 44.46 134.4 44.02 134.75 43.87 135.1 44.46 135.45 44.9 135.8 47.13 136.15 47.13 136.5 46.53 136.85 46.39 137.2 43.57 137.55 44.76 137.89 47.57 138.24 46.68 138.59 48.61 138.94 47.72 139.29 46.68 139.64 47.57 139.99 50.38 140.34 49.79 140.69 51.72 141.04 48.9 141.39 47.13 141.73 45.2 142.08 44.31 142.43 43.57 142.78 43.42 143.13 44.61 143.48 43.13 143.83 40.76 144.18 41.2 144.53 39.72 144.88 40.61 145.23 38.09 145.58 38.39 145.92 37.35 146.27 37.2 146.62 37.05 146.97 37.94 147.32 39.42 147.67 37.5 148.02 37.65 148.37 36.16 148.72 36.61 149.07 37.35 149.42 38.39 149.76 40.76 150.11 40.46 150.46 40.16 150.81 38.98 151.16 38.68 151.51 37.5 151.86 37.35 152.21 37.65 152.56 37.94 152.91 35.57 153.26 35.72 153.61 35.28 153.95 36.76 154.3 36.9 154.65 35.72 155 36.61 155.35 37.5 155.7 37.35 156.05 37.5 156.4 37.94 156.75 36.61 157.1 34.98 157.45 37.05 157.79 36.9 158.14 38.24 158.49 37.65 158.84 36.9 159.19 36.31 159.54 35.13 159.89 35.72 160.24 36.61 160.59 35.28 160.94 35.13 161.29 34.98 161.64 33.35 161.98 32.31 162.33 32.46 162.68 33.2 163.03 33.65 163.38 31.42 163.73 30.24 164.08 30.68 164.43 30.68 164.78 30.39 165.13 30.83 165.48 30.83 165.83 30.68 166.17 30.39 166.52 30.09 166.87 28.91 167.22 29.35 167.57 29.94 167.92 29.79 168.27 28.61 168.62 29.05 168.97 28.76 169.32 29.2 169.67 28.76 170.01 29.2 170.36 29.65 170.71 30.39 171.06 30.09 171.41 29.2 171.76 29.79 172.11 30.39 172.46 31.87 172.81 32.16 173.16 31.72 173.51 32.91 173.86 32.31 174.2 33.05 174.55 33.35 174.9 32.91 175.25 31.87 175.6 30.83 175.95 30.24 176.3 29.94 176.65 29.65 177 29.79 177.35 29.35 177.7 28.91 178.04 28.02 178.39 27.87 178.74 27.87 179.09 27.87 179.44 27.87 179.79 27.72 180.14 27.57 180.49 27.72 180.84 27.42"/>
      </g>
      <g stroke-width="0.3" fill="#000000" fill-opacity="0.000" class="geometry" stroke-dasharray="none" stroke="#F46D43" id="img-910b72c2-17">
        <path fill="none" d="M21.98,79.27 L 22.33 80.16 22.68 80.31 23.03 80.75 23.38 80.01 23.73 81.64 24.08 82.97 24.42 81.94 24.77 81.34 25.12 82.53 25.47 76.75 25.82 77.64 26.17 77.49 26.52 81.05 26.87 81.34 27.22 80.16 27.57 80.45 27.92 77.64 28.27 77.49 28.61 80.16 28.96 80.01 29.31 77.34 29.66 77.94 30.01 80.31 30.36 84.01 30.71 86.08 31.06 87.12 31.41 88.16 31.76 87.57 32.11 90.68 32.45 91.12 32.8 93.49 33.15 89.79 33.5 87.86 33.85 84.6 34.2 86.82 34.55 89.64 34.9 86.68 35.25 85.05 35.6 86.68 35.95 84.45 36.3 81.49 36.64 79.71 36.99 78.23 37.34 77.2 37.69 77.94 38.04 77.79 38.39 75.86 38.74 79.71 39.09 80.45 39.44 81.79 39.79 81.49 40.14 82.08 40.49 84.01 40.83 86.82 41.18 87.42 41.53 87.27 41.88 85.34 42.23 87.12 42.58 90.82 42.93 91.27 43.28 93.49 43.63 93.64 43.98 94.23 44.33 94.82 44.67 93.64 45.02 91.56 45.37 92.31 45.72 95.12 46.07 94.82 46.42 96.3 46.77 92.75 47.12 93.64 47.47 97.49 47.82 96.75 48.17 93.34 48.52 92.6 48.86 92.75 49.21 89.05 49.56 91.86 49.91 92.9 50.26 92.16 50.61 94.38 50.96 92.01 51.31 93.19 51.66 94.68 52.01 92.9 52.36 92.01 52.7 94.68 53.05 95.56 53.4 96.3 53.75 96.6 54.1 94.82 54.45 98.82 54.8 100.45 55.15 100.3 55.5 98.67 55.85 101.19 56.2 105.19 56.55 105.49 56.89 103.86 57.24 104.3 57.59 105.64 57.94 107.27 58.29 106.23 58.64 108.9 58.99 110.38 59.34 111.71 59.69 113.34 60.04 114.23 60.39 116.15 60.73 117.19 61.08 117.19 61.43 118.08 61.78 120.6 62.13 121.04 62.48 121.04 62.83 120.89 63.18 119.71 63.53 118.52 63.88 116.6 64.23 117.78 64.58 119.71 64.92 121.19 65.27 121.19 65.62 122.23 65.97 123.41 66.32 124.15 66.67 123.71 67.02 122.82 67.37 124.3 67.72 124.15 68.07 125.78 68.42 125.04 68.77 125.93 69.11 125.04 69.46 125.93 69.81 125.49 70.16 124.75 70.51 126.08 70.86 126.08 71.21 127.26 71.56 127.41 71.91 127.86 72.26 127.56 72.61 127.41 72.95 128.45 73.3 128 73.65 128 74 128.6 74.35 127.71 74.7 128.3 75.05 129.04 75.4 129.34 75.75 129.49 76.1 129.49 76.45 130.37 76.8 129.93 77.14 129.93 77.49 130.08 77.84 129.93 78.19 130.08 78.54 130.67 78.89 130.82 79.24 130.67 79.59 131.11"/>
      </g>
      <g stroke-width="0.3" fill="#000000" fill-opacity="0.000" class="geometry" stroke-dasharray="none" stroke="#D53E4F" id="img-910b72c2-18">
        <path fill="none" d="M21.98,79.27 L 22.33 79.12 22.68 82.08 23.03 81.49 23.38 82.08 23.73 84.45 24.08 84.31 24.42 85.34 24.77 85.05 25.12 84.75 25.47 80.45 25.82 81.49 26.17 82.23 26.52 84.75 26.87 85.19 27.22 86.53 27.57 83.57 27.92 89.05 28.27 91.27 28.61 90.38 28.96 91.56 29.31 90.38 29.66 89.79 30.01 87.57 30.36 85.19 30.71 81.79 31.06 80.75 31.41 79.71 31.76 77.79 32.11 79.71 32.45 81.49 32.8 82.08 33.15 85.64 33.5 83.86 33.85 84.31 34.2 85.05 34.55 87.12 34.9 89.49 35.25 90.53 35.6 91.56 35.95 93.79 36.3 94.97 36.64 93.79 36.99 93.93 37.34 93.79 37.69 96.75 38.04 98.08 38.39 96.45 38.74 95.27 39.09 96.16 39.44 97.34 39.79 99.71 40.14 97.64 40.49 98.67 40.83 99.56 41.18 100.9 41.53 99.12 41.88 99.86 42.23 99.27 42.58 97.64 42.93 97.34 43.28 94.23 43.63 94.82 43.98 96.6 44.33 102.82 44.67 103.56 45.02 101.79 45.37 101.79 45.72 102.38 46.07 100.9 46.42 99.86 46.77 101.19 47.12 100.9 47.47 102.97 47.82 101.04 48.17 98.67 48.52 100.16 48.86 101.64 49.21 102.08 49.56 101.79 49.91 103.56 50.26 103.27 50.61 106.38 50.96 105.93 51.31 103.86 51.66 105.64 52.01 107.41 52.36 107.56 52.7 108.9 53.05 109.78 53.4 108.75 53.75 110.23 54.1 112.75 54.45 114.52 54.8 115.12 55.15 115.27 55.5 115.27 55.85 116.3 56.2 114.08 56.55 112.15 56.89 112.6 57.24 113.34 57.59 112.01 57.94 109.04 58.29 107.41 58.64 105.78 58.99 104.9 59.34 104.75 59.69 104.01 60.04 106.53 60.39 103.86 60.73 98.38 61.08 98.53 61.43 96.16 61.78 96.3 62.13 92.75 62.48 92.16 62.83 90.23 63.18 89.19 63.53 89.94 63.88 90.97 64.23 92.31 64.58 89.64 64.92 90.08 65.27 92.01 65.62 90.53 65.97 91.86 66.32 92.45 66.67 90.08 67.02 89.19 67.37 85.19 67.72 83.71 68.07 89.05 68.42 88.75 68.77 91.42 69.11 90.53 69.46 91.12 69.81 91.12 70.16 92.75 70.51 90.08 70.86 90.97 71.21 92.6 71.56 93.64 71.91 95.42 72.26 93.05 72.61 93.49 72.95 93.05 73.3 91.27 73.65 92.6 74 93.64 74.35 91.42 74.7 93.34 75.05 88.31 75.4 89.19 75.75 85.64 76.1 87.71 76.45 88.75 76.8 87.27 77.14 87.57 77.49 91.86 77.84 90.68 78.19 92.01 78.54 89.79 78.89 88.9 79.24 88.75 79.59 87.42 79.94 85.64 80.29 82.68 80.64 81.94 80.98 80.01 81.33 79.42 81.68 80.01 82.03 77.94 82.38 76.16 82.73 76.46 83.08 74.83 83.43 75.57 83.78 75.42 84.13 75.71 84.48 71.12 84.83 69.49 85.17 72.75 85.52 72.46 85.87 71.57 86.22 68.46 86.57 69.05 86.92 63.42 87.27 62.38 87.62 60.75 87.97 58.38 88.32 58.83 88.67 59.12 89.02 59.57 89.36 57.05 89.71 58.09 90.06 57.64 90.41 57.94 90.76 57.79 91.11 54.83 91.46 51.57 91.81 50.68 92.16 51.87 92.51 52.01 92.86 54.53 93.2 53.35 93.55 54.38 93.9 54.98 94.25 54.83 94.6 54.98 94.95 53.64 95.3 56.01 95.65 55.12 96 54.53 96.35 53.35 96.7 51.72 97.05 50.24 97.39 51.72 97.74 53.05 98.09 52.01 98.44 50.09 98.79 49.94 99.14 52.75 99.49 53.5 99.84 53.79 100.19 54.24 100.54 54.83 100.89 56.46 101.23 56.16 101.58 56.61 101.93 55.57 102.28 54.24 102.63 53.5 102.98 53.64 103.33 52.31 103.68 51.27 104.03 53.2 104.38 51.72 104.73 49.94 105.08 49.94 105.42 47.72 105.77 46.53 106.12 44.76 106.47 47.27 106.82 48.31 107.17 46.68 107.52 46.39 107.87 44.02 108.22 42.24 108.57 44.02 108.92 46.39 109.26 46.24 109.61 46.98 109.96 46.39 110.31 44.9 110.66 41.79 111.01 40.76 111.36 41.2 111.71 43.42 112.06 42.98 112.41 42.68 112.76 40.9 113.11 40.9 113.45 41.79 113.8 41.05 114.15 41.64 114.5 40.16 114.85 39.57 115.2 38.24 115.55 40.46 115.9 40.16 116.25 41.94 116.6 41.35 116.95 41.79 117.3 42.24 117.64 41.05 117.99 40.9 118.34 42.68 118.69 43.13 119.04 44.16 119.39 43.42 119.74 48.46 120.09 49.2 120.44 48.01 120.79 48.9 121.14 48.01 121.48 45.79 121.83 46.39 122.18 45.94 122.53 44.9 122.88 44.76 123.23 43.72 123.58 44.16 123.93 46.39 124.28 45.35 124.63 43.27 124.98 43.13 125.33 42.39 125.67 40.31 126.02 39.27 126.37 37.79 126.72 35.72 127.07 35.87 127.42 36.76 127.77 36.31 128.12 35.57 128.47 35.28 128.82 36.9 129.17 36.46 129.51 36.76 129.86 36.31 130.21 36.9 130.56 36.76 130.91 38.09 131.26 36.31 131.61 36.31 131.96 35.42 132.31 35.13 132.66 33.94 133.01 33.94 133.36 33.79 133.7 32.91 134.05 32.61 134.4 32.31 134.75 31.42 135.1 31.87 135.45 32.16 135.8 32.16 136.15 32.61 136.5 34.09 136.85 34.98 137.2 34.83 137.55 34.39 137.89 32.91 138.24 34.09 138.59 34.53 138.94 33.2 139.29 33.65 139.64 33.79 139.99 35.57 140.34 36.61 140.69 34.53 141.04 36.02 141.39 34.83 141.73 34.53 142.08 33.94 142.43 34.53 142.78 33.2 143.13 31.72 143.48 31.42 143.83 31.13 144.18 31.57 144.53 32.02 144.88 30.83 145.23 31.57 145.58 30.98 145.92 31.13 146.27 30.98 146.62 30.24 146.97 30.83 147.32 32.02 147.67 32.46 148.02 32.91 148.37 34.09 148.72 33.05 149.07 33.79 149.42 34.68 149.76 34.09 150.11 33.2 150.46 31.72 150.81 30.54 151.16 30.09 151.51 29.35 151.86 29.5 152.21 29.35 152.56 28.76 152.91 29.65 153.26 30.09 153.61 31.42 153.95 32.46 154.3 32.91 154.65 32.91 155 32.02 155.35 32.31 155.7 31.87 156.05 31.42 156.4 31.28 156.75 29.5 157.1 30.24 157.45 29.79 157.79 29.79 158.14 28.91 158.49 28.76 158.84 28.46 159.19 28.17 159.54 28.76 159.89 28.61 160.24 28.91 160.59 29.2 160.94 30.68 161.29 30.68 161.64 32.02 161.98 30.83 162.33 31.87 162.68 32.02 163.03 31.57 163.38 32.02 163.73 31.72 164.08 32.02 164.43 32.61 164.78 33.2 165.13 34.83 165.48 33.65 165.83 31.72 166.17 31.72 166.52 30.39 166.87 29.65 167.22 29.65 167.57 30.39 167.92 30.83 168.27 30.83 168.62 30.54 168.97 29.94 169.32 29.2 169.67 29.2 170.01 29.35 170.36 29.35 170.71 28.91 171.06 28.91 171.41 28.46 171.76 28.17 172.11 28.31 172.46 28.17 172.81 27.72 173.16 27.72 173.51 27.72 173.86 27.57 174.2 27.57 174.55 27.57 174.9 27.57 175.25 27.57 175.6 27.42"/>
      </g>
      <g stroke-width="0.3" fill="#000000" fill-opacity="0.000" class="geometry" stroke-dasharray="none" stroke="#9E0142" id="img-910b72c2-19">
        <path fill="none" d="M21.98,79.27 L 22.33 77.49 22.68 81.34 23.03 82.97 23.38 84.01 23.73 84.01 24.08 82.53 24.42 87.71 24.77 88.01 25.12 85.49 25.47 85.05 25.82 86.38 26.17 84.45 26.52 83.12 26.87 87.71 27.22 87.86 27.57 88.16 27.92 86.82 28.27 85.49 28.61 87.86 28.96 89.49 29.31 93.79 29.66 97.34 30.01 93.79 30.36 93.93 30.71 94.38 31.06 92.75 31.41 90.97 31.76 88.6 32.11 86.97 32.45 87.57 32.8 90.38 33.15 90.38 33.5 92.01 33.85 90.82 34.2 92.01 34.55 95.71 34.9 96.16 35.25 95.56 35.6 97.49 35.95 94.53 36.3 97.05 36.64 94.82 36.99 97.49 37.34 96.45 37.69 93.34 38.04 94.82 38.39 96.6 38.74 100.9 39.09 100.01 39.44 98.82 39.79 98.67 40.14 99.56 40.49 99.12 40.83 95.86 41.18 93.93 41.53 94.68 41.88 94.97 42.23 95.56 42.58 96.45 42.93 95.12 43.28 91.42 43.63 93.93 43.98 95.71 44.33 94.38 44.67 91.27 45.02 89.05 45.37 89.19 45.72 86.08 46.07 88.45 46.42 89.05 46.77 91.12 47.12 91.27 47.47 90.82 47.82 91.56 48.17 92.16 48.52 91.71 48.86 90.68 49.21 90.97 49.56 85.94 49.91 85.34 50.26 85.19 50.61 83.86 50.96 80.6 51.31 80.9 51.66 83.27 52.01 84.16 52.36 84.31 52.7 80.01 53.05 81.49 53.4 84.6 53.75 85.34 54.1 87.42 54.45 86.68 54.8 87.12 55.15 87.42 55.5 87.12 55.85 88.6 56.2 86.23 56.55 83.71 56.89 82.97 57.24 85.34 57.59 88.01 57.94 91.27 58.29 91.86 58.64 92.16 58.99 91.27 59.34 92.6 59.69 89.79 60.04 86.23 60.39 84.6 60.73 83.57 61.08 82.38 61.43 81.79 61.78 83.71 62.13 85.64 62.48 84.75 62.83 85.49 63.18 83.57 63.53 82.97 63.88 79.71 64.23 80.45 64.58 80.45 64.92 79.12 65.27 80.31 65.62 80.9 65.97 79.57 66.32 75.42 66.67 73.05 67.02 70.68 67.37 70.83 67.72 72.01 68.07 69.05 68.42 69.49 68.77 70.53 69.11 70.83 69.46 70.09 69.81 68.31 70.16 69.94 70.51 67.86 70.86 69.35 71.21 70.97 71.56 70.97 71.91 69.05 72.26 74.38 72.61 77.79 72.95 76.01 73.3 77.79 73.65 80.9 74 83.12 74.35 83.42 74.7 83.57 75.05 83.71 75.4 85.34 75.75 85.79 76.1 88.6 76.45 91.27 76.8 89.94 77.14 88.9 77.49 87.42 77.84 88.9 78.19 85.64 78.54 85.34 78.89 81.94 79.24 83.71 79.59 80.9 79.94 83.12 80.29 84.75 80.64 84.9 80.98 81.2 81.33 81.94 81.68 81.79 82.03 82.23 82.38 80.6 82.73 81.34 83.08 82.82 83.43 83.12 83.78 78.23 84.13 77.79 84.48 80.6 84.83 81.94 85.17 82.23 85.52 83.57 85.87 80.31 86.22 80.45 86.57 79.12 86.92 81.94 87.27 81.94 87.62 82.38 87.97 83.86 88.32 84.31 88.67 85.79 89.02 87.27 89.36 89.79 89.71 88.45 90.06 91.71 90.41 92.01 90.76 93.34 91.11 93.19 91.46 96.9 91.81 95.56 92.16 94.23 92.51 96.6 92.86 95.27 93.2 94.97 93.55 94.08 93.9 93.79 94.25 89.79 94.6 91.71 94.95 89.79 95.3 90.08 95.65 87.57 96 88.31 96.35 87.71 96.7 89.19 97.05 86.38 97.39 86.38 97.74 88.16 98.09 86.68 98.44 89.05 98.79 87.86 99.14 85.64 99.49 85.05 99.84 81.79 100.19 81.79 100.54 81.64 100.89 81.79 101.23 80.9 101.58 83.12 101.93 83.71 102.28 83.42 102.63 81.34 102.98 83.71 103.33 83.57 103.68 88.31 104.03 85.34 104.38 86.08 104.73 83.27 105.08 82.53 105.42 80.6 105.77 85.79 106.12 81.34 106.47 82.82 106.82 84.45 107.17 87.42 107.52 88.6 107.87 86.68 108.22 87.71 108.57 87.12 108.92 86.68 109.26 86.82 109.61 85.19 109.96 86.23 110.31 85.79 110.66 88.6 111.01 90.53 111.36 95.86 111.71 98.53 112.06 100.9 112.41 98.67 112.76 98.08 113.11 97.19 113.45 95.42 113.8 94.23 114.15 94.08 114.5 96.01 114.85 97.05 115.2 98.53 115.55 97.79 115.9 96.75 116.25 96.75 116.6 96.16 116.95 99.86 117.3 100.6 117.64 103.56 117.99 103.41 118.34 101.19 118.69 103.12 119.04 104.3 119.39 104.01 119.74 102.67 120.09 102.23 120.44 104.16 120.79 104.75 121.14 106.38 121.48 106.08 121.83 108.15 122.18 106.67 122.53 110.08 122.88 111.86 123.23 110.38 123.58 111.12 123.93 113.93 124.28 112.6 124.63 111.12 124.98 109.93 125.33 108.45 125.67 110.67 126.02 110.82 126.37 111.12 126.72 109.93 127.07 110.38 127.42 109.49 127.77 109.78 128.12 110.23 128.47 108.3 128.82 106.38 129.17 108.15 129.51 107.41 129.86 104.3 130.21 102.67 130.56 103.41 130.91 102.97 131.26 103.86 131.61 104.01 131.96 103.27 132.31 103.27 132.66 108.15 133.01 107.41 133.36 109.19 133.7 109.04 134.05 110.08 134.4 107.71 134.75 109.19 135.1 108.9 135.45 107.27 135.8 108.75 136.15 109.04 136.5 110.23 136.85 110.08 137.2 110.08 137.55 106.97 137.89 108.6 138.24 111.27 138.59 113.34 138.94 115.41 139.29 114.23 139.64 113.19 139.99 113.19 140.34 110.97 140.69 110.82 141.04 109.34 141.39 110.53 141.73 112.45 142.08 111.71 142.43 109.78 142.78 109.49 143.13 109.93 143.48 107.27 143.83 108.9 144.18 111.12 144.53 111.41 144.88 109.64 145.23 107.41 145.58 107.27 145.92 106.08 146.27 107.41 146.62 106.38 146.97 106.53 147.32 104.6 147.67 104.01 148.02 102.67 148.37 99.71 148.72 101.79 149.07 99.86 149.42 97.93 149.76 101.79 150.11 103.56 150.46 105.49 150.81 102.97 151.16 102.23 151.51 102.82 151.86 102.82 152.21 100.6 152.56 101.64 152.91 103.41 153.26 104.16 153.61 107.86 153.95 111.71 154.3 111.27 154.65 111.56 155 110.08 155.35 111.71 155.7 112.9 156.05 112.9 156.4 111.27 156.75 110.23 157.1 111.12 157.45 110.97 157.79 110.82 158.14 109.78 158.49 109.78 158.84 111.12 159.19 113.78 159.54 114.97 159.89 115.27 160.24 115.41 160.59 115.71 160.94 117.19 161.29 115.27 161.64 115.27 161.98 115.56 162.33 116.75 162.68 113.64 163.03 113.64 163.38 112.6 163.73 113.34 164.08 111.12 164.43 114.08 164.78 113.93 165.13 113.49 165.48 112.45 165.83 114.52 166.17 114.08 166.52 112.9 166.87 111.86 167.22 111.27 167.57 109.49 167.92 108.15 168.27 107.56 168.62 107.71 168.97 108.6 169.32 107.86 169.67 106.08 170.01 101.64 170.36 100.6 170.71 99.86 171.06 98.67 171.41 97.49 171.76 100.75 172.11 93.05 172.46 91.56 172.81 89.49 173.16 89.94 173.51 91.42 173.86 92.16 174.2 95.56 174.55 94.68 174.9 94.23 175.25 95.71 175.6 90.97 175.95 89.79 176.3 92.75 176.65 95.86 177 96.6 177.35 98.97 177.7 99.56 178.04 101.34 178.39 100.75 178.74 100.75 179.09 102.08 179.44 106.82 179.79 105.34 180.14 104.16 180.49 106.53 180.84 104.45 181.19 107.86 181.54 109.34 181.89 105.64 182.23 106.82 182.58 102.97 182.93 103.12 183.28 102.67 183.63 98.82 183.98 99.12 184.33 101.34 184.68 100.45 185.03 103.12 185.38 100.6 185.73 101.04 186.08 99.86 186.42 101.34 186.77 100.6 187.12 98.67 187.47 100.45 187.82 102.08 188.17 99.42 188.52 98.38 188.87 98.82 189.22 100.6 189.57 101.34 189.92 100.9 190.26 102.82 190.61 102.82 190.96 101.19 191.31 100.75 191.66 103.41 192.01 104.45 192.36 103.86 192.71 104.45 193.06 105.49 193.41 101.93 193.76 101.04 194.11 102.53 194.45 104.6 194.8 103.86 195.15 104.3 195.5 105.34 195.85 104.75 196.2 102.97"/>
      </g>
    </g>
  </g>
</g>
  <g class="guide ylabels" font-size="2.82" font-family="'PT Sans Caption','Helvetica Neue','Helvetica',sans-serif" fill="#000000" id="img-910b72c2-20">
    <text x="18.63" y="131.11" text-anchor="end" dy="0.35em">0</text>
    <text x="18.63" y="101.49" text-anchor="end" dy="0.35em">200</text>
    <text x="18.63" y="71.86" text-anchor="end" dy="0.35em">400</text>
    <text x="18.63" y="42.24" text-anchor="end" dy="0.35em">600</text>
    <text x="18.63" y="12.61" text-anchor="end" dy="0.35em">800</text>
  </g>
  <g font-size="3.88" font-family="'PT Sans','Helvetica Neue','Helvetica',sans-serif" fill="#000000" stroke="#000000" stroke-opacity="0.000" id="img-910b72c2-21">
    <text x="8.81" y="69.86" text-anchor="middle" dy="0.35em" transform="rotate(-90, 8.81, 71.86)">population number</text>
  </g>
  <g font-size="3.88" font-family="'PT Sans','Helvetica Neue','Helvetica',sans-serif" fill="#000000" stroke="#000000" stroke-opacity="0.000" id="img-910b72c2-22">
    <text x="108.92" y="5" text-anchor="middle" dy="0.6em">genetic drift</text>
  </g>
</g>
<defs>
  <clipPath id="img-910b72c2-4">
  <path d="M19.63,10.61 L 198.2 10.61 198.2 133.11 19.63 133.11" />
</clipPath>
</defs>
</svg>
