<?xml version="1.0" encoding="UTF-8"?>
<svg xmlns="http://www.w3.org/2000/svg"
     xmlns:xlink="http://www.w3.org/1999/xlink"
     xmlns:gadfly="http://www.gadflyjl.org/ns"
     version="1.2"
     width="203.2mm" height="152.4mm" viewBox="0 0 203.2 152.4"
     stroke="none"
     fill="#000000"
     stroke-width="0.3"
     font-size="3.88"
>
<g class="plotroot xscalable yscalable" id="img-15cf769f-1">
  <g font-size="3.88" font-family="'PT Sans','Helvetica Neue','Helvetica',sans-serif" fill="#000000" stroke="#000000" stroke-opacity="0.000" id="img-15cf769f-2">
    <text x="108.92" y="140.79" text-anchor="middle" dy="0.6em">generation number</text>
  </g>
  <g class="guide xlabels" font-size="2.82" font-family="'PT Sans Caption','Helvetica Neue','Helvetica',sans-serif" fill="#000000" id="img-15cf769f-3">
    <text x="21.63" y="134.11" text-anchor="middle" dy="0.6em">0</text>
    <text x="56.55" y="134.11" text-anchor="middle" dy="0.6em">100</text>
    <text x="91.46" y="134.11" text-anchor="middle" dy="0.6em">200</text>
    <text x="126.37" y="134.11" text-anchor="middle" dy="0.6em">300</text>
    <text x="161.29" y="134.11" text-anchor="middle" dy="0.6em">400</text>
    <text x="196.2" y="134.11" text-anchor="middle" dy="0.6em">500</text>
  </g>
<g clip-path="url(#img-15cf769f-4)">
  <g id="img-15cf769f-5">
    <g pointer-events="visible" opacity="1" fill="#FFFFFF" stroke="#000000" stroke-opacity="0.000" class="guide background" id="img-15cf769f-6">
      <rect x="19.63" y="10.61" width="178.57" height="122.5"/>
    </g>
    <g class="guide ygridlines xfixed" stroke-dasharray="0.5,0.5" stroke-width="0.2" stroke="#808080" id="img-15cf769f-7">
      <path fill="none" d="M19.63,131.11 L 198.2 131.11"/>
      <path fill="none" d="M19.63,91.61 L 198.2 91.61"/>
      <path fill="none" d="M19.63,52.11 L 198.2 52.11"/>
      <path fill="none" d="M19.63,12.61 L 198.2 12.61"/>
    </g>
    <g class="guide xgridlines yfixed" stroke-dasharray="0.5,0.5" stroke-width="0.2" stroke="#808080" id="img-15cf769f-8">
      <path fill="none" d="M21.63,10.61 L 21.63 133.11"/>
      <path fill="none" d="M56.55,10.61 L 56.55 133.11"/>
      <path fill="none" d="M91.46,10.61 L 91.46 133.11"/>
      <path fill="none" d="M126.37,10.61 L 126.37 133.11"/>
      <path fill="none" d="M161.29,10.61 L 161.29 133.11"/>
      <path fill="none" d="M196.2,10.61 L 196.2 133.11"/>
    </g>
    <g class="plotpanel" id="img-15cf769f-9">
      <g stroke-width="0.3" fill="#000000" fill-opacity="0.000" class="geometry" stroke-dasharray="none" stroke="#3288BD" id="img-15cf769f-10">
        <path fill="none" d="M21.98,71.86 L 22.33 75.81 22.68 71.47 23.03 69.89 23.38 73.44 23.73 63.17 24.08 63.57 24.42 64.75 24.77 69.49 25.12 65.94 25.47 71.47 25.82 68.31 26.17 66.73 26.52 66.73 26.87 66.33 27.22 60.01 27.57 56.85 27.92 54.88 28.27 55.67 28.61 53.3 28.96 54.88 29.31 57.64 29.66 54.48 30.01 56.46 30.36 57.25 30.71 62.78 31.06 61.59 31.41 61.59 31.76 60.41 32.11 59.62 32.45 65.54 32.8 67.52 33.15 64.75 33.5 67.91 33.85 73.44 34.2 74.23 34.55 76.6 34.9 75.02 35.25 79.37 35.6 78.97 35.95 75.42 36.3 71.07 36.64 75.81 36.99 66.73 37.34 66.73 37.69 70.68 38.04 69.49 38.39 70.28 38.74 69.89 39.09 64.36 39.44 61.59 39.79 57.25 40.14 52.51 40.49 51.32 40.83 49.74 41.18 54.09 41.53 57.25 41.88 56.06 42.23 51.32 42.58 54.88 42.93 55.27 43.28 56.85 43.63 55.67 43.98 54.09 44.33 55.67 44.67 62.78 45.02 56.06 45.37 52.11 45.72 56.06 46.07 48.56 46.42 48.56 46.77 46.98 47.12 46.19 47.47 43.42 47.82 40.66 48.17 44.21 48.52 43.82 48.86 36.71 49.21 34.34 49.56 37.5 49.91 39.08 50.26 38.68 50.61 37.1 50.96 39.47 51.31 42.63 51.66 43.42 52.01 51.72 52.36 47.77 52.7 47.37 53.05 51.32 53.4 51.72 53.75 55.27 54.1 53.69 54.45 49.74 54.8 52.51 55.15 52.9 55.5 50.93 55.85 52.9 56.2 47.37 56.55 51.72 56.89 52.9 57.24 51.32 57.59 54.09 57.94 51.72 58.29 51.32 58.64 46.19 58.99 45 59.34 42.24 59.69 40.66 60.04 41.84 60.39 39.08 60.73 41.45 61.08 43.82 61.43 40.26 61.78 41.84 62.13 44.21 62.48 45 62.83 42.63 63.18 39.47 63.53 37.89 63.88 41.84 64.23 42.63 64.58 45.4 64.92 43.82 65.27 46.19 65.62 47.37 65.97 51.32 66.32 50.53 66.67 46.19 67.02 40.26 67.37 46.19 67.72 35.92 68.07 36.71 68.42 36.31 68.77 38.29 69.11 38.29 69.46 35.13 69.81 33.94 70.16 30.78 70.51 30.78 70.86 38.29 71.21 30.78 71.56 30.78 71.91 32.76 72.26 32.36 72.61 30.78 72.95 29.99 73.3 25.65 73.65 21.3 74 19.33 74.35 18.54 74.7 19.72 75.05 17.75 75.4 17.75 75.75 17.75 76.1 15.77 76.45 14.19 76.8 14.19 77.14 15.38 77.49 15.38 77.84 17.75 78.19 20.12 78.54 20.12 78.89 19.33 79.24 18.93 79.59 18.14 79.94 17.35 80.29 16.56 80.64 14.59 80.98 17.35 81.33 16.56 81.68 15.77 82.03 15.38 82.38 15.77 82.73 18.14 83.08 17.35 83.43 14.59 83.78 15.38 84.13 14.98 84.48 14.19 84.83 15.38 85.17 14.98 85.52 15.38 85.87 16.17 86.22 14.98 86.57 14.98 86.92 14.19 87.27 14.19 87.62 14.19 87.97 13.4 88.32 14.19 88.67 13.4 89.02 13.4 89.36 13.01 89.71 13.01 90.06 12.61"/>
      </g>
      <g stroke-width="0.3" fill="#000000" fill-opacity="0.000" class="geometry" stroke-dasharray="none" stroke="#66C2A5" id="img-15cf769f-11">
        <path fill="none" d="M21.98,71.86 L 22.33 70.28 22.68 69.49 23.03 65.94 23.38 68.31 23.73 73.05 24.08 74.63 24.42 77.39 24.77 77.79 25.12 80.55 25.47 79.37 25.82 78.97 26.17 80.95 26.52 77 26.87 72.65 27.22 69.1 27.57 69.1 27.92 72.26 28.27 64.75 28.61 65.54 28.96 64.75 29.31 67.12 29.66 69.89 30.01 67.52 30.36 64.75 30.71 65.15 31.06 67.12 31.41 64.36 31.76 69.89 32.11 65.15 32.45 65.15 32.8 64.36 33.15 61.59 33.5 65.94 33.85 61.99 34.2 67.12 34.55 63.96 34.9 63.17 35.25 66.33 35.6 67.12 35.95 62.38 36.3 59.22 36.64 61.59 36.99 58.04 37.34 54.88 37.69 52.51 38.04 49.74 38.39 51.72 38.74 53.3 39.09 56.85 39.44 52.51 39.79 55.27 40.14 57.64 40.49 59.62 40.83 56.46 41.18 54.88 41.53 54.88 41.88 56.85 42.23 53.3 42.58 54.48 42.93 51.32 43.28 51.32 43.63 49.74 43.98 48.95 44.33 45.79 44.67 46.98 45.02 41.84 45.37 38.68 45.72 39.08 46.07 37.5 46.42 40.26 46.77 40.26 47.12 36.71 47.47 34.34 47.82 33.15 48.17 29.99 48.52 27.23 48.86 31.97 49.21 33.55 49.56 35.13 49.91 34.73 50.26 38.29 50.61 39.47 50.96 42.63 51.31 47.37 51.66 41.84 52.01 37.89 52.36 39.08 52.7 40.26 53.05 39.87 53.4 37.5 53.75 35.52 54.1 39.08 54.45 35.92 54.8 36.31 55.15 39.87 55.5 40.66 55.85 38.68 56.2 38.29 56.55 35.52 56.89 37.5 57.24 41.84 57.59 44.21 57.94 46.98 58.29 43.82 58.64 41.05 58.99 38.68 59.34 40.26 59.69 41.05 60.04 43.42 60.39 42.63 60.73 43.03 61.08 40.26 61.43 39.08 61.78 35.13 62.13 31.57 62.48 30.39 62.83 26.04 63.18 26.44 63.53 30.78 63.88 28.81 64.23 30.78 64.58 31.18 64.92 36.31 65.27 34.73 65.62 36.71 65.97 34.34 66.32 35.13 66.67 35.52 67.02 32.36 67.37 28.41 67.72 29.99 68.07 33.94 68.42 33.94 68.77 32.76 69.11 33.15 69.46 33.55 69.81 33.94 70.16 33.15 70.51 33.55 70.86 37.5 71.21 34.34 71.56 32.36 71.91 33.55 72.26 32.36 72.61 32.36 72.95 31.18 73.3 30.78 73.65 30.78 74 30.39 74.35 30.39 74.7 31.97 75.05 35.92 75.4 37.1 75.75 37.5 76.1 37.1 76.45 37.5 76.8 38.29 77.14 39.47 77.49 37.1 77.84 35.52 78.19 34.73 78.54 33.94 78.89 34.34 79.24 31.18 79.59 32.36 79.94 33.55 80.29 33.15 80.64 31.57 80.98 35.13 81.33 36.31 81.68 31.57 82.03 29.6 82.38 26.44 82.73 26.44 83.08 26.83 83.43 29.2 83.78 30.78 84.13 30.39 84.48 32.76 84.83 36.31 85.17 36.71 85.52 39.47 85.87 42.63 86.22 38.29 86.57 41.84 86.92 41.84 87.27 42.24 87.62 38.68 87.97 39.08 88.32 39.87 88.67 34.73 89.02 34.73 89.36 34.34 89.71 35.13 90.06 35.52 90.41 36.31 90.76 35.13 91.11 35.13 91.46 37.5 91.81 36.71 92.16 39.08 92.51 41.05 92.86 37.5 93.2 38.29 93.55 35.92 93.9 35.92 94.25 41.05 94.6 43.42 94.95 43.82 95.3 46.98 95.65 45 96 40.66 96.35 42.24 96.7 39.08 97.05 40.26 97.39 42.24 97.74 43.03 98.09 45 98.44 41.84 98.79 41.05 99.14 35.92 99.49 43.42 99.84 43.03 100.19 44.61 100.54 45 100.89 44.21 101.23 43.82 101.58 37.5 101.93 38.29 102.28 33.94 102.63 36.31 102.98 38.29 103.33 36.31 103.68 35.52 104.03 37.89 104.38 39.08 104.73 36.71 105.08 35.13 105.42 30.39 105.77 28.02 106.12 29.99 106.47 28.81 106.82 26.04 107.17 23.28 107.52 23.28 107.87 22.09 108.22 21.3 108.57 20.91 108.92 20.91 109.26 22.49 109.61 23.67 109.96 22.88 110.31 25.25 110.66 24.46 111.01 24.46 111.36 28.02 111.71 29.2 112.06 28.81 112.41 30.78 112.76 31.18 113.11 31.18 113.45 28.41 113.8 26.04 114.15 27.62 114.5 29.2 114.85 32.76 115.2 33.94 115.55 36.71 115.9 37.89 116.25 38.29 116.6 37.1 116.95 38.29 117.3 41.84 117.64 41.05 117.99 46.98 118.34 48.16 118.69 45.4 119.04 48.95 119.39 53.69 119.74 50.93 120.09 46.98 120.44 43.82 120.79 41.05 121.14 44.61 121.48 43.03 121.83 37.5 122.18 39.08 122.53 43.82 122.88 41.45 123.23 40.66 123.58 38.68 123.93 39.87 124.28 45.4 124.63 46.19 124.98 39.08 125.33 39.47 125.67 38.29 126.02 44.61 126.37 43.82 126.72 39.08 127.07 41.45 127.42 42.63 127.77 43.82 128.12 44.21 128.47 46.19 128.82 42.24 129.17 47.37 129.51 54.88 129.86 51.32 130.21 49.35 130.56 48.95 130.91 56.06 131.26 59.22 131.61 59.22 131.96 56.85 132.31 58.83 132.66 59.62 133.01 57.25 133.36 55.67 133.7 51.32 134.05 45 134.4 39.87 134.75 40.66 135.1 43.03 135.45 43.82 135.8 45 136.15 47.37 136.5 47.77 136.85 44.61 137.2 42.63 137.55 40.26 137.89 41.05 138.24 40.66 138.59 42.63 138.94 43.82 139.29 46.58 139.64 43.03 139.99 48.56 140.34 48.16 140.69 48.56 141.04 48.16 141.39 45 141.73 41.84 142.08 45.79 142.43 44.21 142.78 46.98 143.13 44.61 143.48 46.98 143.83 43.42 144.18 37.1 144.53 37.1 144.88 36.71 145.23 37.5 145.58 33.15 145.92 33.55 146.27 29.99 146.62 35.13 146.97 36.71 147.32 35.13 147.67 38.29 148.02 40.26 148.37 37.89 148.72 35.92 149.07 33.94 149.42 26.04 149.76 27.62 150.11 28.02 150.46 30.78 150.81 29.6 151.16 26.44 151.51 27.23 151.86 26.44 152.21 32.36 152.56 29.99 152.91 29.2 153.26 29.2 153.61 33.55 153.95 30.39 154.3 32.76 154.65 34.34 155 36.71 155.35 38.29 155.7 35.13 156.05 32.76 156.4 29.2 156.75 31.18 157.1 32.36 157.45 32.76 157.79 32.76 158.14 31.97 158.49 32.76 158.84 26.83 159.19 24.86 159.54 25.25 159.89 20.12 160.24 19.72 160.59 18.14 160.94 16.56 161.29 14.59 161.64 15.38 161.98 15.77 162.33 16.96 162.68 14.98 163.03 13.8 163.38 13.01 163.73 13.4 164.08 15.38 164.43 17.75 164.78 19.33 165.13 20.91 165.48 19.33 165.83 19.72 166.17 17.35 166.52 19.33 166.87 21.3 167.22 20.91 167.57 22.49 167.92 23.67 168.27 20.12 168.62 19.33 168.97 14.59 169.32 14.98 169.67 14.98 170.01 15.77 170.36 17.35 170.71 19.72 171.06 17.75 171.41 15.77 171.76 14.98 172.11 16.96 172.46 17.75 172.81 17.75 173.16 18.14 173.51 18.54 173.86 18.14 174.2 18.14 174.55 18.14 174.9 16.17 175.25 15.77 175.6 15.38 175.95 14.19 176.3 13.01 176.65 13.01 177 13.01 177.35 12.61"/>
      </g>
      <g stroke-width="0.3" fill="#000000" fill-opacity="0.000" class="geometry" stroke-dasharray="none" stroke="#ABDDA4" id="img-15cf769f-12">
        <path fill="none" d="M21.98,71.86 L 22.33 73.05 22.68 74.23 23.03 68.31 23.38 67.52 23.73 71.07 24.08 74.23 24.42 71.07 24.77 73.44 25.12 71.86 25.47 68.7 25.82 66.33 26.17 62.78 26.52 62.78 26.87 66.73 27.22 68.7 27.57 69.1 27.92 66.33 28.27 63.17 28.61 61.2 28.96 54.48 29.31 55.27 29.66 58.83 30.01 58.43 30.36 58.83 30.71 58.04 31.06 63.17 31.41 61.99 31.76 63.57 32.11 63.96 32.45 67.91 32.8 67.91 33.15 63.57 33.5 66.73 33.85 64.75 34.2 68.31 34.55 68.31 34.9 72.65 35.25 73.84 35.6 73.44 35.95 67.12 36.3 68.31 36.64 69.49 36.99 70.68 37.34 68.7 37.69 67.91 38.04 74.63 38.39 72.65 38.74 73.05 39.09 74.23 39.44 68.7 39.79 71.47 40.14 65.54 40.49 64.75 40.83 64.75 41.18 66.33 41.53 60.41 41.88 61.99 42.23 60.41 42.58 60.41 42.93 62.38 43.28 59.22 43.63 59.62 43.98 55.27 44.33 53.3 44.67 54.88 45.02 55.27 45.37 48.95 45.72 52.11 46.07 46.98 46.42 50.53 46.77 47.37 47.12 46.98 47.47 50.53 47.82 52.9 48.17 52.9 48.52 56.06 48.86 57.64 49.21 58.43 49.56 58.43 49.91 58.43 50.26 55.27 50.61 60.41 50.96 63.17 51.31 60.8 51.66 61.99 52.01 63.57 52.36 61.99 52.7 64.36 53.05 64.36 53.4 64.36 53.75 65.15 54.1 60.41 54.45 54.09 54.8 57.25 55.15 59.62 55.5 63.17 55.85 61.99 56.2 62.78 56.55 56.46 56.89 55.67 57.24 60.41 57.59 54.48 57.94 49.74 58.29 52.9 58.64 50.93 58.99 46.19 59.34 40.26 59.69 41.45 60.04 42.24 60.39 44.21 60.73 46.58 61.08 49.74 61.43 52.51 61.78 54.48 62.13 59.62 62.48 60.01 62.83 52.11 63.18 48.16 63.53 46.98 63.88 49.35 64.23 48.56 64.58 48.16 64.92 45 65.27 44.61 65.62 41.45 65.97 48.16 66.32 46.98 66.67 51.32 67.02 52.51 67.37 56.06 67.72 54.09 68.07 55.27 68.42 57.25 68.77 59.62 69.11 58.43 69.46 62.78 69.81 67.52 70.16 69.49 70.51 68.7 70.86 66.73 71.21 61.59 71.56 61.99 71.91 59.22 72.26 60.8 72.61 60.8 72.95 61.99 73.3 63.17 73.65 64.75 74 60.8 74.35 57.64 74.7 52.51 75.05 60.01 75.4 60.8 75.75 55.67 76.1 62.78 76.45 64.75 76.8 66.73 77.14 59.22 77.49 60.41 77.84 61.59 78.19 63.17 78.54 61.59 78.89 67.52 79.24 70.28 79.59 69.1 79.94 69.89 80.29 69.1 80.64 67.52 80.98 64.75 81.33 62.38 81.68 62.78 82.03 63.96 82.38 67.52 82.73 67.52 83.08 64.36 83.43 60.8 83.78 63.57 84.13 64.75 84.48 69.89 84.83 68.31 85.17 66.33 85.52 70.68 85.87 75.42 86.22 80.55 86.57 75.02 86.92 75.02 87.27 70.68 87.62 75.42 87.97 73.84 88.32 71.47 88.67 71.07 89.02 73.44 89.36 70.28 89.71 68.7 90.06 66.33 90.41 66.73 90.76 65.94 91.11 63.57 91.46 58.83 91.81 55.67 92.16 56.46 92.51 61.2 92.86 63.57 93.2 63.17 93.55 70.68 93.9 67.52 94.25 65.15 94.6 66.33 94.95 61.99 95.3 61.99 95.65 61.59 96 55.67 96.35 52.11 96.7 53.3 97.05 51.32 97.39 46.98 97.74 47.37 98.09 43.03 98.44 43.82 98.79 49.35 99.14 46.98 99.49 47.37 99.84 52.9 100.19 48.56 100.54 45 100.89 45.79 101.23 46.98 101.58 50.53 101.93 49.35 102.28 48.56 102.63 47.77 102.98 44.21 103.33 39.87 103.68 41.05 104.03 39.47 104.38 46.19 104.73 46.19 105.08 46.98 105.42 48.16 105.77 42.24 106.12 47.77 106.47 44.61 106.82 43.42 107.17 43.82 107.52 45.4 107.87 47.37 108.22 49.35 108.57 49.74 108.92 55.67 109.26 64.36 109.61 62.38 109.96 62.78 110.31 65.94 110.66 67.91 111.01 67.12 111.36 63.17 111.71 66.33 112.06 68.31 112.41 71.07 112.76 72.26 113.11 68.31 113.45 67.91 113.8 67.12 114.15 73.84 114.5 78.58 114.85 75.42 115.2 75.42 115.55 73.44 115.9 79.76 116.25 78.18 116.6 78.97 116.95 84.9 117.3 82.53 117.64 78.58 117.99 76.21 118.34 75.42 118.69 74.63 119.04 78.58 119.39 73.05 119.74 68.7 120.09 77.39 120.44 78.97 120.79 81.74 121.14 80.16 121.48 77.79 121.83 75.81 122.18 71.07 122.53 68.31 122.88 73.44 123.23 75.81 123.58 76.6 123.93 78.18 124.28 76.21 124.63 74.63 124.98 69.89 125.33 70.28 125.67 70.68 126.02 68.7 126.37 70.28 126.72 69.89 127.07 66.73 127.42 65.54 127.77 65.54 128.12 63.17 128.47 64.36 128.82 68.7 129.17 71.86 129.51 69.89 129.86 70.68 130.21 72.26 130.56 74.23 130.91 74.63 131.26 69.1 131.61 65.54 131.96 60.8 132.31 66.33 132.66 67.91 133.01 68.7 133.36 66.73 133.7 65.94 134.05 69.89 134.4 71.86 134.75 71.47 135.1 70.28 135.45 74.63 135.8 71.47 136.15 68.31 136.5 68.7 136.85 67.91 137.2 68.31 137.55 67.52 137.89 64.36 138.24 68.31 138.59 72.26 138.94 71.07 139.29 74.23 139.64 67.12 139.99 63.96 140.34 63.96 140.69 62.78 141.04 63.17 141.39 64.36 141.73 65.94 142.08 64.36 142.43 65.54 142.78 65.15 143.13 58.43 143.48 54.48 143.83 49.35 144.18 49.35 144.53 51.32 144.88 50.14 145.23 52.11 145.58 54.88 145.92 56.46 146.27 63.17 146.62 63.17 146.97 64.75 147.32 71.07 147.67 70.28 148.02 69.49 148.37 69.89 148.72 66.73 149.07 66.33 149.42 63.57 149.76 64.36 150.11 61.2 150.46 65.54 150.81 63.57 151.16 63.96 151.51 60.01 151.86 59.62 152.21 61.59 152.56 63.96 152.91 63.96 153.26 62.38 153.61 60.8 153.95 58.83 154.3 55.67 154.65 61.2 155 59.22 155.35 67.52 155.7 66.33 156.05 69.89 156.4 63.17 156.75 60.41 157.1 61.99 157.45 66.33 157.79 69.89 158.14 71.07 158.49 70.28 158.84 63.57 159.19 61.99 159.54 61.59 159.89 61.2 160.24 66.33 160.59 65.15 160.94 65.15 161.29 68.7 161.64 69.1 161.98 71.47 162.33 73.44 162.68 75.02 163.03 78.18 163.38 71.07 163.73 74.23 164.08 77 164.43 81.34 164.78 81.74 165.13 82.92 165.48 83.71 165.83 80.55 166.17 76.6 166.52 75.81 166.87 77.39 167.22 79.76 167.57 76.21 167.92 77 168.27 82.53 168.62 81.74 168.97 88.85 169.32 88.45 169.67 84.11 170.01 82.53 170.36 84.9 170.71 89.64 171.06 86.48 171.41 85.29 171.76 86.08 172.11 88.45 172.46 85.29 172.81 86.87 173.16 85.29 173.51 86.87 173.86 86.48 174.2 89.24 174.55 89.64 174.9 91.22 175.25 93.59 175.6 97.54 175.95 95.56 176.3 96.75 176.65 91.22 177 89.64 177.35 90.03 177.7 87.66 178.04 88.45 178.39 88.85 178.74 93.59 179.09 91.22 179.44 88.85 179.79 88.85 180.14 82.13 180.49 81.34 180.84 86.08 181.19 84.11 181.54 86.08 181.89 88.85 182.23 82.13 182.58 90.43 182.93 92.01 183.28 92.8 183.63 90.82 183.98 89.64 184.33 91.22 184.68 88.45 185.03 86.87 185.38 87.27 185.73 85.69 186.08 86.08 186.42 81.74 186.77 84.5 187.12 78.18 187.47 78.58 187.82 76.6 188.17 78.97 188.52 75.42 188.87 83.32 189.22 76.6 189.57 78.18 189.92 78.18 190.26 77.79 190.61 83.71 190.96 86.87 191.31 77.39 191.66 74.63 192.01 73.05 192.36 68.7 192.71 64.75 193.06 59.62 193.41 62.78 193.76 60.01 194.11 64.75 194.45 58.04 194.8 60.8 195.15 63.17 195.5 63.57 195.85 67.12 196.2 65.94"/>
      </g>
      <g stroke-width="0.3" fill="#000000" fill-opacity="0.000" class="geometry" stroke-dasharray="none" stroke="#E6F598" id="img-15cf769f-13">
        <path fill="none" d="M21.98,71.86 L 22.33 71.47 22.68 73.44 23.03 65.15 23.38 68.31 23.73 72.65 24.08 73.84 24.42 72.26 24.77 67.52 25.12 71.47 25.47 71.86 25.82 73.05 26.17 74.63 26.52 77 26.87 75.42 27.22 75.02 27.57 76.6 27.92 74.23 28.27 72.65 28.61 75.42 28.96 70.28 29.31 73.44 29.66 71.07 30.01 67.52 30.36 72.26 30.71 71.47 31.06 73.05 31.41 69.49 31.76 68.7 32.11 68.31 32.45 74.23 32.8 72.65 33.15 68.7 33.5 66.73 33.85 64.36 34.2 67.12 34.55 69.1 34.9 59.22 35.25 59.22 35.6 61.2 35.95 61.2 36.3 63.57 36.64 68.7 36.99 67.52 37.34 73.05 37.69 71.86 38.04 68.7 38.39 65.94 38.74 65.15 39.09 64.75 39.44 65.15 39.79 69.1 40.14 66.33 40.49 63.57 40.83 61.2 41.18 60.8 41.53 63.17 41.88 60.01 42.23 61.99 42.58 66.73 42.93 73.05 43.28 74.23 43.63 76.6 43.98 78.97 44.33 75.42 44.67 80.16 45.02 82.53 45.37 84.5 45.72 87.66 46.07 85.29 46.42 81.74 46.77 86.08 47.12 80.95 47.47 84.5 47.82 81.34 48.17 80.95 48.52 85.29 48.86 86.48 49.21 81.74 49.56 80.55 49.91 79.76 50.26 82.92 50.61 85.69 50.96 87.66 51.31 82.53 51.66 81.34 52.01 75.02 52.36 68.7 52.7 72.26 53.05 72.26 53.4 76.21 53.75 79.37 54.1 80.55 54.45 78.18 54.8 76.21 55.15 76.6 55.5 73.84 55.85 74.23 56.2 75.02 56.55 75.42 56.89 80.95 57.24 82.13 57.59 82.13 57.94 76.6 58.29 73.84 58.64 71.47 58.99 72.65 59.34 71.07 59.69 76.21 60.04 78.97 60.39 76.21 60.73 78.18 61.08 85.29 61.43 84.11 61.78 84.11 62.13 84.11 62.48 86.87 62.83 82.13 63.18 76.21 63.53 79.37 63.88 77 64.23 76.6 64.58 75.81 64.92 77.39 65.27 81.74 65.62 83.32 65.97 86.08 66.32 85.29 66.67 87.66 67.02 84.11 67.37 82.13 67.72 82.53 68.07 72.26 68.42 71.86 68.77 70.28 69.11 69.89 69.46 76.6 69.81 73.84 70.16 72.65 70.51 71.47 70.86 71.86 71.21 70.68 71.56 67.52 71.91 63.17 72.26 59.62 72.61 62.78 72.95 58.43 73.3 56.85 73.65 54.88 74 58.04 74.35 58.04 74.7 60.8 75.05 60.8 75.4 65.94 75.75 76.21 76.1 75.81 76.45 75.42 76.8 73.84 77.14 73.05 77.49 73.05 77.84 74.23 78.19 76.6 78.54 75.81 78.89 70.68 79.24 71.07 79.59 65.15 79.94 61.2 80.29 62.78 80.64 61.59 80.98 60.8 81.33 61.2 81.68 61.2 82.03 60.8 82.38 66.73 82.73 69.89 83.08 71.86 83.43 71.47 83.78 69.89 84.13 78.58 84.48 78.97 84.83 80.55 85.17 73.44 85.52 80.95 85.87 87.27 86.22 90.03 86.57 93.19 86.92 91.22 87.27 93.59 87.62 90.43 87.97 85.29 88.32 90.82 88.67 90.82 89.02 95.96 89.36 93.59 89.71 93.19 90.06 92.4 90.41 88.45 90.76 86.87 91.11 86.48 91.46 81.74 91.81 84.5 92.16 82.13 92.51 76.6 92.86 80.55 93.2 83.32 93.55 77 93.9 77.39 94.25 77.39 94.6 88.06 94.95 92.4 95.3 90.43 95.65 89.64 96 89.64 96.35 87.27 96.7 88.06 97.05 87.66 97.39 85.29 97.74 82.53 98.09 80.95 98.44 74.63 98.79 73.05 99.14 79.37 99.49 80.16 99.84 77.39 100.19 73.05 100.54 79.76 100.89 74.63 101.23 75.42 101.58 72.26 101.93 65.54 102.28 66.33 102.63 66.73 102.98 66.33 103.33 71.07 103.68 68.7 104.03 67.52 104.38 64.36 104.73 65.15 105.08 59.62 105.42 63.96 105.77 61.99 106.12 57.25 106.47 52.51 106.82 50.93 107.17 48.56 107.52 51.72 107.87 54.09 108.22 53.69 108.57 50.14 108.92 46.98 109.26 47.37 109.61 45.79 109.96 44.61 110.31 43.03 110.66 48.16 111.01 48.95 111.36 50.93 111.71 47.37 112.06 46.98 112.41 49.35 112.76 50.93 113.11 46.98 113.45 46.98 113.8 49.35 114.15 51.32 114.5 50.14 114.85 53.3 115.2 52.51 115.55 55.27 115.9 52.51 116.25 48.56 116.6 47.37 116.95 43.42 117.3 37.89 117.64 33.55 117.99 33.15 118.34 31.57 118.69 28.41 119.04 27.23 119.39 24.07 119.74 22.09 120.09 21.3 120.44 22.49 120.79 20.51 121.14 18.54 121.48 20.51 121.83 20.91 122.18 21.7 122.53 23.67 122.88 24.46 123.23 25.65 123.58 29.2 123.93 25.25 124.28 26.83 124.63 29.6 124.98 29.6 125.33 29.6 125.67 31.18 126.02 28.81 126.37 28.81 126.72 30.39 127.07 29.6 127.42 30.78 127.77 31.18 128.12 35.92 128.47 31.18 128.82 34.34 129.17 33.15 129.51 35.52 129.86 35.13 130.21 37.5 130.56 41.84 130.91 42.63 131.26 41.05 131.61 37.1 131.96 40.66 132.31 43.82 132.66 45 133.01 37.5 133.36 38.68 133.7 34.73 134.05 34.34 134.4 37.89 134.75 38.68 135.1 35.52 135.45 38.68 135.8 44.21 136.15 43.42 136.5 41.45 136.85 39.47 137.2 43.03 137.55 41.05 137.89 48.95 138.24 45.79 138.59 47.77 138.94 52.9 139.29 54.48 139.64 51.32 139.99 52.11 140.34 48.16 140.69 52.9 141.04 52.51 141.39 51.72 141.73 54.09 142.08 53.3 142.43 53.3 142.78 51.72 143.13 54.09 143.48 50.93 143.83 48.95 144.18 50.14 144.53 50.14 144.88 52.51 145.23 50.14 145.58 47.37 145.92 46.58 146.27 52.11 146.62 48.56 146.97 48.56 147.32 47.37 147.67 46.98 148.02 46.58 148.37 50.14 148.72 54.09 149.07 55.67 149.42 54.88 149.76 52.51 150.11 44.21 150.46 43.03 150.81 44.61 151.16 46.98 151.51 48.56 151.86 46.58 152.21 44.21 152.56 40.66 152.91 38.68 153.26 40.26 153.61 45.4 153.95 44.21 154.3 47.77 154.65 43.03 155 44.61 155.35 43.42 155.7 46.19 156.05 43.82 156.4 42.63 156.75 40.26 157.1 41.84 157.45 39.08 157.79 34.34 158.14 35.52 158.49 33.15 158.84 31.57 159.19 30.39 159.54 30.39 159.89 32.76 160.24 31.18 160.59 28.02 160.94 27.62 161.29 26.44 161.64 26.44 161.98 22.88 162.33 21.7 162.68 20.12 163.03 18.93 163.38 21.7 163.73 19.33 164.08 18.93 164.43 15.38 164.78 14.59 165.13 14.98 165.48 14.59 165.83 13.8 166.17 14.59 166.52 14.98 166.87 15.77 167.22 15.38 167.57 16.96 167.92 18.14 168.27 18.54 168.62 16.56 168.97 16.56 169.32 16.56 169.67 15.77 170.01 13.8 170.36 13.4 170.71 13.01 171.06 12.61"/>
      </g>
      <g stroke-width="0.3" fill="#000000" fill-opacity="0.000" class="geometry" stroke-dasharray="none" stroke="#FFFFBF" id="img-15cf769f-14">
        <path fill="none" d="M21.98,71.86 L 22.33 76.6 22.68 79.37 23.03 82.13 23.38 86.48 23.73 89.64 24.08 90.43 24.42 87.66 24.77 84.11 25.12 87.27 25.47 87.27 25.82 88.85 26.17 89.64 26.52 85.29 26.87 88.06 27.22 87.27 27.57 85.29 27.92 90.82 28.27 83.71 28.61 82.53 28.96 83.32 29.31 77 29.66 78.97 30.01 79.37 30.36 85.69 30.71 82.13 31.06 84.11 31.41 90.82 31.76 91.22 32.11 89.24 32.45 95.96 32.8 100.7 33.15 99.12 33.5 92.4 33.85 93.19 34.2 97.54 34.55 100.7 34.9 101.09 35.25 104.25 35.6 103.07 35.95 103.07 36.3 108.2 36.64 105.44 36.99 109.39 37.34 108.6 37.69 108.2 38.04 108.6 38.39 110.57 38.74 113.34 39.09 113.73 39.44 113.34 39.79 112.15 40.14 111.76 40.49 112.55 40.83 114.13 41.18 114.13 41.53 116.1 41.88 115.71 42.23 111.36 42.58 116.5 42.93 115.31 43.28 114.13 43.63 113.34 43.98 118.87 44.33 115.71 44.67 116.5 45.02 113.34 45.37 113.73 45.72 109.39 46.07 109.39 46.42 106.62 46.77 106.23 47.12 106.23 47.47 103.46 47.82 102.28 48.17 104.65 48.52 100.3 48.86 100.3 49.21 101.88 49.56 100.7 49.91 99.12 50.26 95.96 50.61 92.4 50.96 95.96 51.31 93.59 51.66 96.75 52.01 95.56 52.36 92.4 52.7 92.4 53.05 98.33 53.4 99.91 53.75 102.28 54.1 101.88 54.45 106.62 54.8 111.76 55.15 108.6 55.5 107.02 55.85 110.18 56.2 109.78 56.55 110.97 56.89 110.18 57.24 109.39 57.59 106.62 57.94 106.23 58.29 107.81 58.64 105.04 58.99 103.86 59.34 102.28 59.69 107.41 60.04 112.15 60.39 111.76 60.73 112.15 61.08 115.31 61.43 116.1 61.78 116.5 62.13 114.52 62.48 114.92 62.83 116.5 63.18 118.47 63.53 117.68 63.88 116.1 64.23 114.52 64.58 114.52 64.92 114.52 65.27 114.52 65.62 112.15 65.97 113.73 66.32 115.31 66.67 119.66 67.02 118.87 67.37 119.26 67.72 115.31 68.07 113.34 68.42 113.73 68.77 114.52 69.11 118.87 69.46 116.1 69.81 121.24 70.16 123.21 70.51 122.82 70.86 126.37 71.21 126.77 71.56 129.14 71.91 130.32 72.26 129.14 72.61 127.95 72.95 129.14 73.3 127.16 73.65 127.95 74 126.77 74.35 128.35 74.7 128.35 75.05 129.14 75.4 129.14 75.75 127.95 76.1 127.56 76.45 125.58 76.8 126.77 77.14 127.56 77.49 125.19 77.84 124.79 78.19 125.98 78.54 125.98 78.89 124.79 79.24 124.79 79.59 125.58 79.94 127.95 80.29 129.14 80.64 128.74 80.98 128.35 81.33 126.77 81.68 124.79 82.03 122.82 82.38 122.82 82.73 119.66 83.08 122.03 83.43 120.45 83.78 120.84 84.13 124.79 84.48 125.19 84.83 125.98 85.17 127.16 85.52 127.56 85.87 127.56 86.22 126.37 86.57 124.79 86.92 121.63 87.27 120.45 87.62 119.66 87.97 118.08 88.32 114.92 88.67 113.73 89.02 116.1 89.36 117.29 89.71 116.89 90.06 116.89 90.41 114.52 90.76 112.15 91.11 107.41 91.46 105.04 91.81 104.65 92.16 103.46 92.51 103.46 92.86 109.78 93.2 114.13 93.55 117.29 93.9 117.68 94.25 117.29 94.6 120.05 94.95 118.87 95.3 120.05 95.65 121.63 96 121.63 96.35 122.03 96.7 120.45 97.05 120.05 97.39 118.47 97.74 116.5 98.09 116.89 98.44 115.71 98.79 114.52 99.14 114.13 99.49 112.94 99.84 113.34 100.19 115.31 100.54 115.71 100.89 115.31 101.23 114.92 101.58 117.68 101.93 117.68 102.28 119.66 102.63 120.84 102.98 124.79 103.33 126.37 103.68 127.16 104.03 127.16 104.38 127.95 104.73 127.16 105.08 127.95 105.42 129.14 105.77 130.32 106.12 130.32 106.47 129.93 106.82 130.72 107.17 130.72 107.52 131.11"/>
      </g>
      <g stroke-width="0.3" fill="#000000" fill-opacity="0.000" class="geometry" stroke-dasharray="none" stroke="#FEE08B" id="img-15cf769f-15">
        <path fill="none" d="M21.98,71.86 L 22.33 72.26 22.68 72.26 23.03 71.07 23.38 69.89 23.73 65.94 24.08 66.33 24.42 69.1 24.77 66.73 25.12 68.31 25.47 62.38 25.82 63.96 26.17 66.33 26.52 63.57 26.87 61.59 27.22 63.17 27.57 57.64 27.92 60.41 28.27 58.04 28.61 58.83 28.96 58.83 29.31 53.3 29.66 55.67 30.01 58.83 30.36 60.41 30.71 55.67 31.06 54.48 31.41 56.85 31.76 56.06 32.11 53.69 32.45 56.85 32.8 52.9 33.15 48.16 33.5 44.21 33.85 45.79 34.2 43.03 34.55 45 34.9 45 35.25 43.82 35.6 45.4 35.95 46.58 36.3 50.14 36.64 51.72 36.99 50.14 37.34 46.98 37.69 47.37 38.04 51.72 38.39 49.35 38.74 47.37 39.09 46.58 39.44 47.77 39.79 44.21 40.14 48.95 40.49 38.29 40.83 36.31 41.18 38.68 41.53 34.34 41.88 29.6 42.23 28.02 42.58 28.02 42.93 26.44 43.28 26.04 43.63 28.81 43.98 27.62 44.33 24.86 44.67 26.04 45.02 27.62 45.37 24.46 45.72 20.51 46.07 19.33 46.42 17.75 46.77 19.72 47.12 18.54 47.47 18.14 47.82 19.72 48.17 20.51 48.52 21.3 48.86 19.33 49.21 20.12 49.56 18.14 49.91 18.14 50.26 16.17 50.61 15.38 50.96 16.17 51.31 15.77 51.66 13.4 52.01 13.4 52.36 13.4 52.7 13.8 53.05 13.8 53.4 13.8 53.75 13.8 54.1 13.8 54.45 13.4 54.8 14.59 55.15 14.59 55.5 14.59 55.85 16.17 56.2 16.17 56.55 13.4 56.89 13.01 57.24 12.61"/>
      </g>
      <g stroke-width="0.3" fill="#000000" fill-opacity="0.000" class="geometry" stroke-dasharray="none" stroke="#FDAE61" id="img-15cf769f-16">
        <path fill="none" d="M21.98,71.86 L 22.33 71.47 22.68 67.52 23.03 69.1 23.38 65.15 23.73 73.44 24.08 71.47 24.42 63.57 24.77 65.94 25.12 64.75 25.47 63.96 25.82 67.91 26.17 67.52 26.52 68.31 26.87 67.91 27.22 61.59 27.57 64.75 27.92 69.89 28.27 78.58 28.61 77.79 28.96 80.55 29.31 80.95 29.66 83.32 30.01 81.74 30.36 80.95 30.71 81.34 31.06 77 31.41 73.84 31.76 83.71 32.11 82.92 32.45 87.66 32.8 90.03 33.15 93.59 33.5 97.14 33.85 102.67 34.2 107.02 34.55 107.02 34.9 111.76 35.25 111.76 35.6 108.99 35.95 110.97 36.3 107.02 36.64 107.02 36.99 108.99 37.34 108.6 37.69 108.2 38.04 108.99 38.39 109.78 38.74 105.83 39.09 107.02 39.44 107.81 39.79 104.65 40.14 105.04 40.49 106.23 40.83 111.76 41.18 114.92 41.53 114.13 41.88 110.18 42.23 109.39 42.58 106.62 42.93 110.57 43.28 116.5 43.63 117.68 43.98 117.68 44.33 114.52 44.67 117.68 45.02 120.45 45.37 118.87 45.72 116.1 46.07 117.68 46.42 114.92 46.77 117.29 47.12 118.87 47.47 120.05 47.82 120.05 48.17 120.84 48.52 120.05 48.86 120.45 49.21 121.24 49.56 122.82 49.91 126.77 50.26 127.95 50.61 126.37 50.96 127.16 51.31 127.95 51.66 129.53 52.01 129.53 52.36 129.53 52.7 130.32 53.05 130.32 53.4 129.93 53.75 130.32 54.1 130.72 54.45 131.11"/>
      </g>
      <g stroke-width="0.3" fill="#000000" fill-opacity="0.000" class="geometry" stroke-dasharray="none" stroke="#F46D43" id="img-15cf769f-17">
        <path fill="none" d="M21.98,71.86 L 22.33 69.1 22.68 75.02 23.03 74.63 23.38 74.23 23.73 69.89 24.08 69.89 24.42 71.47 24.77 73.05 25.12 70.68 25.47 65.94 25.82 64.75 26.17 68.31 26.52 69.1 26.87 71.47 27.22 67.52 27.57 69.1 27.92 75.42 28.27 78.97 28.61 73.44 28.96 75.81 29.31 74.63 29.66 75.02 30.01 69.49 30.36 66.33 30.71 71.47 31.06 70.28 31.41 70.68 31.76 71.47 32.11 69.49 32.45 69.1 32.8 72.65 33.15 76.21 33.5 71.47 33.85 75.81 34.2 80.16 34.55 78.58 34.9 85.29 35.25 87.66 35.6 83.32 35.95 88.85 36.3 95.56 36.64 89.64 36.99 90.82 37.34 88.45 37.69 95.17 38.04 94.38 38.39 90.43 38.74 88.85 39.09 91.22 39.44 88.45 39.79 89.24 40.14 91.22 40.49 86.08 40.83 86.08 41.18 90.03 41.53 89.24 41.88 88.45 42.23 88.45 42.58 93.98 42.93 95.56 43.28 93.59 43.63 91.61 43.98 91.22 44.33 85.69 44.67 83.71 45.02 83.32 45.37 85.69 45.72 87.27 46.07 79.76 46.42 82.53 46.77 80.55 47.12 83.71 47.47 83.32 47.82 85.69 48.17 80.95 48.52 77.39 48.86 77.39 49.21 81.34 49.56 85.29 49.91 88.06 50.26 89.24 50.61 90.82 50.96 89.64 51.31 86.48 51.66 83.71 52.01 82.53 52.36 84.5 52.7 82.53 53.05 84.9 53.4 81.34 53.75 82.92 54.1 87.27 54.45 83.71 54.8 82.92 55.15 83.32 55.5 86.48 55.85 87.66 56.2 85.69 56.55 83.71 56.89 82.92 57.24 88.06 57.59 90.82 57.94 88.85 58.29 93.98 58.64 97.14 58.99 90.03 59.34 88.45 59.69 86.08 60.04 82.53 60.39 89.24 60.73 90.03 61.08 92.4 61.43 95.17 61.78 88.45 62.13 87.66 62.48 87.27 62.83 84.9 63.18 77.79 63.53 79.37 63.88 75.42 64.23 78.18 64.58 80.55 64.92 76.6 65.27 80.55 65.62 84.9 65.97 82.53 66.32 86.87 66.67 89.24 67.02 86.48 67.37 84.11 67.72 84.9 68.07 86.87 68.42 81.74 68.77 81.74 69.11 77.39 69.46 80.16 69.81 77.39 70.16 73.84 70.51 71.47 70.86 70.68 71.21 73.05 71.56 73.84 71.91 75.42 72.26 69.1 72.61 67.12 72.95 69.89 73.3 70.68 73.65 69.89 74 76.6 74.35 81.74 74.7 78.97 75.05 77 75.4 69.89 75.75 76.21 76.1 80.16 76.45 77.79 76.8 75.02 77.14 74.63 77.49 75.02 77.84 72.65 78.19 76.21 78.54 77 78.89 77.39 79.24 82.53 79.59 83.32 79.94 82.92 80.29 79.37 80.64 73.84 80.98 75.42 81.33 80.16 81.68 78.97 82.03 76.6 82.38 80.55 82.73 78.97 83.08 75.42 83.43 76.6 83.78 84.11 84.13 88.45 84.48 88.45 84.83 82.13 85.17 85.29 85.52 87.27 85.87 83.71 86.22 78.58 86.57 77.39 86.92 78.97 87.27 73.84 87.62 73.05 87.97 81.74 88.32 85.29 88.67 90.03 89.02 86.48 89.36 81.74 89.71 80.55 90.06 81.34 90.41 80.16 90.76 82.53 91.11 80.16 91.46 78.58 91.81 78.97 92.16 78.18 92.51 82.92 92.86 81.34 93.2 78.18 93.55 78.58 93.9 84.11 94.25 86.08 94.6 83.71 94.95 86.08 95.3 86.87 95.65 84.9 96 93.59 96.35 97.93 96.7 91.61 97.05 93.98 97.39 97.93 97.74 100.3 98.09 100.3 98.44 104.65 98.79 103.07 99.14 103.07 99.49 102.28 99.84 105.83 100.19 105.83 100.54 105.83 100.89 108.2 101.23 108.99 101.58 107.81 101.93 108.2 102.28 108.6 102.63 113.73 102.98 114.13 103.33 115.31 103.68 116.5 104.03 114.52 104.38 110.97 104.73 111.36 105.08 112.15 105.42 108.99 105.77 110.18 106.12 107.02 106.47 103.46 106.82 106.62 107.17 110.97 107.52 110.97 107.87 108.6 108.22 110.97 108.57 114.52 108.92 115.71 109.26 116.89 109.61 122.42 109.96 122.82 110.31 124.4 110.66 122.42 111.01 122.82 111.36 122.03 111.71 123.61 112.06 122.03 112.41 123.21 112.76 120.45 113.11 120.45 113.45 121.63 113.8 121.63 114.15 119.26 114.5 118.08 114.85 118.08 115.2 119.66 115.55 120.45 115.9 119.66 116.25 116.5 116.6 118.47 116.95 117.68 117.3 116.1 117.64 118.87 117.99 119.26 118.34 120.05 118.69 115.71 119.04 116.89 119.39 118.47 119.74 115.71 120.09 115.31 120.44 118.47 120.79 114.92 121.14 116.89 121.48 117.68 121.83 116.5 122.18 115.31 122.53 116.5 122.88 117.29 123.23 117.68 123.58 116.1 123.93 115.31 124.28 110.18 124.63 110.97 124.98 114.13 125.33 114.92 125.67 112.94 126.02 112.94 126.37 113.34 126.72 108.99 127.07 105.04 127.42 102.67 127.77 102.67 128.12 103.07 128.47 104.65 128.82 103.86 129.17 105.04 129.51 105.83 129.86 103.46 130.21 103.07 130.56 103.07 130.91 99.51 131.26 106.62 131.61 108.2 131.96 105.83 132.31 104.25 132.66 102.67 133.01 107.81 133.36 110.97 133.7 107.41 134.05 106.62 134.4 101.49 134.75 101.49 135.1 103.86 135.45 101.88 135.8 99.91 136.15 97.14 136.5 97.14 136.85 101.88 137.2 104.65 137.55 101.09 137.89 101.09 138.24 98.33 138.59 99.12 138.94 102.28 139.29 104.65 139.64 102.67 139.99 107.41 140.34 108.6 140.69 109.78 141.04 111.36 141.39 110.57 141.73 114.13 142.08 116.89 142.43 115.71 142.78 115.71 143.13 113.73 143.48 112.55 143.83 116.5 144.18 116.5 144.53 117.29 144.88 118.08 145.23 118.08 145.58 119.26 145.92 117.68 146.27 119.26 146.62 120.05 146.97 115.31 147.32 114.52 147.67 112.55 148.02 111.76 148.37 112.55 148.72 115.71 149.07 118.87 149.42 117.68 149.76 117.68 150.11 124 150.46 126.77 150.81 126.77 151.16 126.37 151.51 127.56 151.86 128.74 152.21 127.16 152.56 125.98 152.91 127.16 153.26 127.16 153.61 128.35 153.95 127.95 154.3 129.53 154.65 129.93 155 129.93 155.35 129.93 155.7 130.72 156.05 130.72 156.4 131.11"/>
      </g>
      <g stroke-width="0.3" fill="#000000" fill-opacity="0.000" class="geometry" stroke-dasharray="none" stroke="#D53E4F" id="img-15cf769f-18">
        <path fill="none" d="M21.98,71.86 L 22.33 74.63 22.68 80.16 23.03 73.44 23.38 73.44 23.73 77 24.08 77.39 24.42 80.95 24.77 77.39 25.12 70.68 25.47 67.52 25.82 69.1 26.17 67.12 26.52 71.86 26.87 74.63 27.22 65.94 27.57 63.17 27.92 64.36 28.27 61.59 28.61 64.36 28.96 63.17 29.31 67.12 29.66 65.15 30.01 64.75 30.36 64.36 30.71 73.44 31.06 75.81 31.41 74.63 31.76 74.63 32.11 76.21 32.45 75.81 32.8 73.84 33.15 80.55 33.5 81.34 33.85 82.53 34.2 81.34 34.55 79.76 34.9 82.53 35.25 86.87 35.6 84.9 35.95 81.74 36.3 83.71 36.64 84.11 36.99 87.66 37.34 92.01 37.69 94.38 38.04 96.35 38.39 97.54 38.74 98.72 39.09 100.3 39.44 98.72 39.79 97.93 40.14 97.14 40.49 103.86 40.83 101.09 41.18 99.51 41.53 98.33 41.88 96.35 42.23 102.67 42.58 97.54 42.93 96.35 43.28 93.19 43.63 96.35 43.98 97.93 44.33 98.72 44.67 101.49 45.02 96.35 45.37 97.14 45.72 101.49 46.07 101.49 46.42 98.72 46.77 99.12 47.12 102.28 47.47 97.14 47.82 95.96 48.17 93.19 48.52 91.61 48.86 93.98 49.21 102.67 49.56 102.67 49.91 101.88 50.26 109.39 50.61 107.81 50.96 105.04 51.31 100.3 51.66 97.54 52.01 101.88 52.36 96.35 52.7 96.75 53.05 94.77 53.4 99.12 53.75 98.33 54.1 99.91 54.45 95.17 54.8 93.59 55.15 91.61 55.5 92.4 55.85 95.17 56.2 95.96 56.55 95.96 56.89 94.38 57.24 100.7 57.59 96.75 57.94 89.64 58.29 98.72 58.64 99.91 58.99 99.91 59.34 97.54 59.69 93.59 60.04 97.14 60.39 93.98 60.73 97.54 61.08 102.67 61.43 103.86 61.78 106.62 62.13 108.6 62.48 107.81 62.83 110.97 63.18 111.36 63.53 108.99 63.88 111.76 64.23 108.6 64.58 108.2 64.92 104.65 65.27 105.04 65.62 106.23 65.97 107.81 66.32 111.36 66.67 111.36 67.02 112.15 67.37 110.18 67.72 110.18 68.07 109.39 68.42 109.78 68.77 111.76 69.11 108.99 69.46 108.2 69.81 105.04 70.16 107.81 70.51 104.65 70.86 103.46 71.21 104.25 71.56 108.2 71.91 101.49 72.26 98.33 72.61 94.77 72.95 95.17 73.3 94.77 73.65 95.56 74 97.93 74.35 94.38 74.7 88.06 75.05 90.82 75.4 89.24 75.75 93.59 76.1 95.96 76.45 89.24 76.8 90.82 77.14 78.58 77.49 80.16 77.84 85.29 78.19 83.71 78.54 82.53 78.89 85.69 79.24 88.45 79.59 90.03 79.94 84.9 80.29 86.48 80.64 86.48 80.98 83.32 81.33 81.74 81.68 79.37 82.03 80.95 82.38 74.23 82.73 79.76 83.08 75.42 83.43 75.02 83.78 71.47 84.13 65.94 84.48 66.73 84.83 67.12 85.17 69.89 85.52 68.31 85.87 73.05 86.22 66.33 86.57 68.7 86.92 71.47 87.27 75.42 87.62 80.95 87.97 79.37 88.32 76.21 88.67 69.89 89.02 72.26 89.36 76.21 89.71 73.44 90.06 68.31 90.41 63.17 90.76 65.94 91.11 65.94 91.46 68.7 91.81 69.49 92.16 75.42 92.51 78.58 92.86 76.6 93.2 76.6 93.55 77.79 93.9 78.97 94.25 81.34 94.6 80.95 94.95 85.29 95.3 82.13 95.65 81.34 96 82.13 96.35 80.55 96.7 81.74 97.05 79.76 97.39 82.13 97.74 74.63 98.09 73.44 98.44 76.6 98.79 79.76 99.14 79.76 99.49 82.13 99.84 78.97 100.19 73.05 100.54 70.28 100.89 71.86 101.23 68.7 101.58 65.54 101.93 62.78 102.28 61.99 102.63 64.36 102.98 63.57 103.33 63.57 103.68 64.36 104.03 66.73 104.38 65.94 104.73 61.99 105.08 63.57 105.42 61.99 105.77 60.41 106.12 62.38 106.47 61.99 106.82 63.57 107.17 63.17 107.52 57.64 107.87 57.64 108.22 61.2 108.57 62.78 108.92 56.85 109.26 54.48 109.61 55.67 109.96 52.11 110.31 53.3 110.66 52.11 111.01 52.9 111.36 45.79 111.71 43.42 112.06 46.19 112.41 41.84 112.76 48.16 113.11 47.37 113.45 50.93 113.8 54.48 114.15 53.3 114.5 56.85 114.85 52.11 115.2 52.11 115.55 53.69 115.9 56.85 116.25 55.27 116.6 59.62 116.95 58.43 117.3 55.27 117.64 59.22 117.99 67.52 118.34 74.23 118.69 75.02 119.04 70.68 119.39 75.42 119.74 74.63 120.09 77.39 120.44 72.26 120.79 71.07 121.14 77 121.48 74.23 121.83 72.65 122.18 78.97 122.53 78.18 122.88 83.32 123.23 79.76 123.58 80.55 123.93 75.42 124.28 78.18 124.63 81.74 124.98 90.82 125.33 88.45 125.67 87.66 126.02 88.06 126.37 87.27 126.72 91.61 127.07 91.22 127.42 91.22 127.77 92.01 128.12 97.93 128.47 97.14 128.82 98.33 129.17 100.7 129.51 102.28 129.86 100.7 130.21 97.54 130.56 95.17 130.91 88.85 131.26 89.64 131.61 93.59 131.96 94.77 132.31 91.22 132.66 88.45 133.01 84.11 133.36 84.11 133.7 86.08 134.05 80.16 134.4 78.58 134.75 88.85 135.1 87.27 135.45 88.45 135.8 86.08 136.15 84.11 136.5 84.5 136.85 83.32 137.2 77.79 137.55 77 137.89 76.6 138.24 79.37 138.59 82.13 138.94 82.53 139.29 83.32 139.64 86.08 139.99 84.9 140.34 86.87 140.69 85.29 141.04 84.11 141.39 82.92 141.73 83.71 142.08 82.92 142.43 79.37 142.78 74.23 143.13 73.44 143.48 71.07 143.83 60.41 144.18 57.64 144.53 58.43 144.88 61.2 145.23 58.83 145.58 60.01 145.92 60.01 146.27 58.04 146.62 60.01 146.97 58.04 147.32 53.69 147.67 54.88 148.02 51.72 148.37 50.53 148.72 49.35 149.07 46.19 149.42 46.98 149.76 53.3 150.11 53.3 150.46 52.51 150.81 51.32 151.16 52.9 151.51 49.74 151.86 51.72 152.21 48.95 152.56 51.32 152.91 50.14 153.26 52.11 153.61 42.63 153.95 43.82 154.3 44.21 154.65 41.45 155 45 155.35 47.37 155.7 45.4 156.05 42.63 156.4 42.24 156.75 46.19 157.1 46.58 157.45 46.58 157.79 49.74 158.14 53.69 158.49 53.3 158.84 55.27 159.19 52.11 159.54 54.88 159.89 57.64 160.24 54.48 160.59 54.48 160.94 54.09 161.29 58.04 161.64 60.41 161.98 65.15 162.33 63.17 162.68 67.12 163.03 67.91 163.38 69.49 163.73 67.12 164.08 70.68 164.43 63.96 164.78 66.73 165.13 67.12 165.48 61.59 165.83 57.25 166.17 56.46 166.52 56.06 166.87 55.67 167.22 50.14 167.57 52.11 167.92 57.25 168.27 61.99 168.62 61.99 168.97 57.25 169.32 55.27 169.67 53.3 170.01 55.27 170.36 55.67 170.71 54.88 171.06 53.69 171.41 50.93 171.76 54.09 172.11 54.09 172.46 57.25 172.81 61.99 173.16 65.54 173.51 65.94 173.86 66.33 174.2 71.86 174.55 71.07 174.9 67.52 175.25 65.15 175.6 60.8 175.95 67.12 176.3 62.38 176.65 62.38 177 67.91 177.35 67.12 177.7 73.05 178.04 79.37 178.39 81.34 178.74 84.9 179.09 86.48 179.44 94.77 179.79 97.93 180.14 89.24 180.49 86.87 180.84 84.5 181.19 87.27 181.54 85.69 181.89 82.92 182.23 82.53 182.58 84.9 182.93 84.5 183.28 85.69 183.63 86.08 183.98 86.48 184.33 92.4 184.68 92.4 185.03 88.85 185.38 87.66 185.73 79.37 186.08 79.76 186.42 79.76 186.77 84.5 187.12 83.71 187.47 86.48 187.82 86.48 188.17 82.53 188.52 80.95 188.87 75.42 189.22 77.79 189.57 75.02 189.92 69.89 190.26 67.91 190.61 68.7 190.96 66.33 191.31 62.78 191.66 61.2 192.01 65.15 192.36 65.94 192.71 66.73 193.06 71.47 193.41 71.86 193.76 74.63 194.11 75.42 194.45 76.6 194.8 74.63 195.15 75.42 195.5 71.47 195.85 73.44 196.2 74.23"/>
      </g>
      <g stroke-width="0.3" fill="#000000" fill-opacity="0.000" class="geometry" stroke-dasharray="none" stroke="#9E0142" id="img-15cf769f-19">
        <path fill="none" d="M21.98,71.86 L 22.33 65.15 22.68 66.33 23.03 65.54 23.38 66.33 23.73 60.41 24.08 56.06 24.42 53.3 24.77 50.53 25.12 50.53 25.47 47.37 25.82 46.98 26.17 48.56 26.52 46.98 26.87 48.16 27.22 45 27.57 46.19 27.92 45 28.27 39.87 28.61 37.89 28.96 38.68 29.31 43.42 29.66 43.03 30.01 43.82 30.36 46.98 30.71 46.58 31.06 45.4 31.41 44.21 31.76 41.05 32.11 39.08 32.45 39.08 32.8 40.26 33.15 43.42 33.5 43.82 33.85 46.58 34.2 45 34.55 42.24 34.9 39.47 35.25 44.61 35.6 46.19 35.95 42.24 36.3 43.82 36.64 41.84 36.99 39.47 37.34 37.89 37.69 38.68 38.04 35.52 38.39 41.45 38.74 45.79 39.09 46.58 39.44 42.63 39.79 42.24 40.14 42.24 40.49 39.47 40.83 37.1 41.18 39.47 41.53 39.08 41.88 41.05 42.23 37.89 42.58 39.87 42.93 39.47 43.28 40.26 43.63 40.26 43.98 43.03 44.33 45 44.67 46.58 45.02 47.37 45.37 52.51 45.72 49.74 46.07 52.9 46.42 52.51 46.77 52.51 47.12 50.14 47.47 56.06 47.82 57.64 48.17 52.11 48.52 48.95 48.86 42.24 49.21 43.82 49.56 41.45 49.91 47.77 50.26 48.16 50.61 48.95 50.96 47.77 51.31 46.19 51.66 39.87 52.01 37.5 52.36 39.08 52.7 38.29 53.05 42.63 53.4 43.03 53.75 42.24 54.1 36.71 54.45 36.71 54.8 36.71 55.15 38.29 55.5 35.13 55.85 37.89 56.2 37.5 56.55 36.71 56.89 35.13 57.24 30.39 57.59 30.78 57.94 33.55 58.29 38.29 58.64 36.71 58.99 38.68 59.34 36.31 59.69 35.13 60.04 38.29 60.39 37.5 60.73 35.52 61.08 34.73 61.43 29.99 61.78 31.97 62.13 27.62 62.48 29.2 62.83 26.04 63.18 27.23 63.53 26.04 63.88 22.88 64.23 20.12 64.58 22.09 64.92 21.7 65.27 23.28 65.62 24.07 65.97 25.25 66.32 27.62 66.67 24.46 67.02 23.67 67.37 25.25 67.72 25.25 68.07 24.46 68.42 23.28 68.77 23.28 69.11 24.86 69.46 22.88 69.81 24.07 70.16 25.25 70.51 24.46 70.86 26.04 71.21 25.65 71.56 22.09 71.91 22.49 72.26 21.7 72.61 19.33 72.95 20.91 73.3 20.51 73.65 18.93 74 16.96 74.35 16.17 74.7 16.17 75.05 16.17 75.4 16.17 75.75 17.75 76.1 16.56 76.45 17.35 76.8 18.54 77.14 21.3 77.49 21.7 77.84 22.09 78.19 19.72 78.54 24.07 78.89 22.49 79.24 22.09 79.59 20.91 79.94 21.3 80.29 20.12 80.64 17.75 80.98 18.54 81.33 16.96 81.68 15.77 82.03 15.38 82.38 16.56 82.73 14.98 83.08 16.17 83.43 16.56 83.78 16.96 84.13 18.54 84.48 18.54 84.83 21.7 85.17 20.51 85.52 20.12 85.87 20.91 86.22 22.88 86.57 25.65 86.92 28.41 87.27 28.41 87.62 26.44 87.97 27.62 88.32 30.39 88.67 31.57 89.02 31.97 89.36 33.55 89.71 33.15 90.06 29.99 90.41 31.97 90.76 33.15 91.11 32.76 91.46 35.52 91.81 33.94 92.16 31.57 92.51 29.2 92.86 27.62 93.2 31.57 93.55 30.78 93.9 29.2 94.25 29.6 94.6 33.55 94.95 37.89 95.3 35.13 95.65 35.92 96 37.5 96.35 34.73 96.7 34.34 97.05 39.47 97.39 39.08 97.74 37.5 98.09 39.87 98.44 41.84 98.79 41.05 99.14 41.05 99.49 41.45 99.84 38.29 100.19 39.47 100.54 38.68 100.89 39.87 101.23 35.92 101.58 33.15 101.93 36.71 102.28 34.34 102.63 34.34 102.98 36.71 103.33 37.89 103.68 35.52 104.03 38.29 104.38 35.92 104.73 43.03 105.08 37.1 105.42 34.73 105.77 35.13 106.12 32.76 106.47 29.99 106.82 30.78 107.17 34.34 107.52 37.89 107.87 35.52 108.22 38.68 108.57 44.21 108.92 43.42 109.26 42.63 109.61 41.45 109.96 46.19 110.31 43.03 110.66 41.45 111.01 43.42 111.36 46.98 111.71 49.74 112.06 43.42 112.41 40.26 112.76 34.73 113.11 35.92 113.45 38.29 113.8 35.52 114.15 33.94 114.5 34.73 114.85 35.13 115.2 31.57 115.55 33.55 115.9 35.92 116.25 34.73 116.6 36.71 116.95 38.68 117.3 33.15 117.64 32.76 117.99 31.18 118.34 31.57 118.69 32.36 119.04 29.6 119.39 29.2 119.74 27.62 120.09 26.44 120.44 24.46 120.79 26.83 121.14 26.04 121.48 23.28 121.83 22.49 122.18 18.93 122.53 16.56 122.88 14.59 123.23 14.19 123.58 13.4 123.93 14.19 124.28 14.19 124.63 13.8 124.98 13.01 125.33 13.4 125.67 13.8 126.02 15.38 126.37 16.56 126.72 16.56 127.07 14.59 127.42 13.8 127.77 14.98 128.12 14.19 128.47 14.59 128.82 13.8 129.17 14.98 129.51 15.38 129.86 14.98 130.21 14.98 130.56 15.38 130.91 15.38 131.26 14.59 131.61 13.4 131.96 13.4 132.31 12.61"/>
      </g>
    </g>
  </g>
</g>
  <g class="guide ylabels" font-size="2.82" font-family="'PT Sans Caption','Helvetica Neue','Helvetica',sans-serif" fill="#000000" id="img-15cf769f-20">
    <text x="18.63" y="131.11" text-anchor="end" dy="0.35em">0</text>
    <text x="18.63" y="91.61" text-anchor="end" dy="0.35em">100</text>
    <text x="18.63" y="52.11" text-anchor="end" dy="0.35em">200</text>
    <text x="18.63" y="12.61" text-anchor="end" dy="0.35em">300</text>
  </g>
  <g font-size="3.88" font-family="'PT Sans','Helvetica Neue','Helvetica',sans-serif" fill="#000000" stroke="#000000" stroke-opacity="0.000" id="img-15cf769f-21">
    <text x="8.81" y="69.86" text-anchor="middle" dy="0.35em" transform="rotate(-90, 8.81, 71.86)">population number</text>
  </g>
  <g font-size="3.88" font-family="'PT Sans','Helvetica Neue','Helvetica',sans-serif" fill="#000000" stroke="#000000" stroke-opacity="0.000" id="img-15cf769f-22">
    <text x="108.92" y="5" text-anchor="middle" dy="0.6em">genetic drift</text>
  </g>
</g>
<defs>
  <clipPath id="img-15cf769f-4">
  <path d="M19.63,10.61 L 198.2 10.61 198.2 133.11 19.63 133.11" />
</clipPath>
</defs>
</svg>
