<?xml version="1.0" encoding="UTF-8"?>
<svg xmlns="http://www.w3.org/2000/svg"
     xmlns:xlink="http://www.w3.org/1999/xlink"
     xmlns:gadfly="http://www.gadflyjl.org/ns"
     version="1.2"
     width="203.2mm" height="152.4mm" viewBox="0 0 203.2 152.4"
     stroke="none"
     fill="#000000"
     stroke-width="0.3"
     font-size="3.88"
>
<g class="plotroot xscalable yscalable" id="img-e5ba6d20-1">
  <g font-size="3.88" font-family="'PT Sans','Helvetica Neue','Helvetica',sans-serif" fill="#000000" stroke="#000000" stroke-opacity="0.000" id="img-e5ba6d20-2">
    <text x="108.92" y="140.79" text-anchor="middle" dy="0.6em">generation number</text>
  </g>
  <g class="guide xlabels" font-size="2.82" font-family="'PT Sans Caption','Helvetica Neue','Helvetica',sans-serif" fill="#000000" id="img-e5ba6d20-3">
    <text x="21.63" y="134.11" text-anchor="middle" dy="0.6em">0</text>
    <text x="56.55" y="134.11" text-anchor="middle" dy="0.6em">100</text>
    <text x="91.46" y="134.11" text-anchor="middle" dy="0.6em">200</text>
    <text x="126.37" y="134.11" text-anchor="middle" dy="0.6em">300</text>
    <text x="161.29" y="134.11" text-anchor="middle" dy="0.6em">400</text>
    <text x="196.2" y="134.11" text-anchor="middle" dy="0.6em">500</text>
  </g>
<g clip-path="url(#img-e5ba6d20-4)">
  <g id="img-e5ba6d20-5">
    <g pointer-events="visible" opacity="1" fill="#FFFFFF" stroke="#000000" stroke-opacity="0.000" class="guide background" id="img-e5ba6d20-6">
      <rect x="19.63" y="10.61" width="178.57" height="122.5"/>
    </g>
    <g class="guide ygridlines xfixed" stroke-dasharray="0.5,0.5" stroke-width="0.2" stroke="#808080" id="img-e5ba6d20-7">
      <path fill="none" d="M19.63,131.11 L 198.2 131.11"/>
      <path fill="none" d="M19.63,107.41 L 198.2 107.41"/>
      <path fill="none" d="M19.63,83.71 L 198.2 83.71"/>
      <path fill="none" d="M19.63,60.01 L 198.2 60.01"/>
      <path fill="none" d="M19.63,36.31 L 198.2 36.31"/>
      <path fill="none" d="M19.63,12.61 L 198.2 12.61"/>
    </g>
    <g class="guide xgridlines yfixed" stroke-dasharray="0.5,0.5" stroke-width="0.2" stroke="#808080" id="img-e5ba6d20-8">
      <path fill="none" d="M21.63,10.61 L 21.63 133.11"/>
      <path fill="none" d="M56.55,10.61 L 56.55 133.11"/>
      <path fill="none" d="M91.46,10.61 L 91.46 133.11"/>
      <path fill="none" d="M126.37,10.61 L 126.37 133.11"/>
      <path fill="none" d="M161.29,10.61 L 161.29 133.11"/>
      <path fill="none" d="M196.2,10.61 L 196.2 133.11"/>
    </g>
    <g class="plotpanel" id="img-e5ba6d20-9">
      <g stroke-width="0.3" fill="#000000" fill-opacity="0.000" class="geometry" stroke-dasharray="none" stroke="#3288BD" id="img-e5ba6d20-10">
        <path fill="none" d="M21.98,71.86 L 22.33 68.78 22.68 67.83 23.03 67.12 23.38 66.18 23.73 66.65 24.08 64.04 24.42 65.23 24.77 64.28 25.12 67.83 25.47 65.46 25.82 66.89 26.17 68.55 26.52 68.78 26.87 67.36 27.22 70.2 27.57 71.86 27.92 72.57 28.27 71.15 28.61 69.73 28.96 67.6 29.31 66.89 29.66 67.12 30.01 67.12 30.36 67.6 30.71 69.26 31.06 67.6 31.41 63.09 31.76 60.01 32.11 56.69 32.45 58.83 32.8 58.59 33.15 60.96 33.5 61.2 33.85 59.06 34.2 59.3 34.55 60.01 34.9 61.2 35.25 61.67 35.6 62.62 35.95 60.72 36.3 59.54 36.64 56.69 36.99 60.72 37.34 60.01 37.69 55.98 38.04 54.09 38.39 55.98 38.74 54.8 39.09 52.19 39.44 56.93 39.79 53.61 40.14 52.43 40.49 55.75 40.83 54.32 41.18 52.43 41.53 50.53 41.88 50.06 42.23 49.11 42.58 47.69 42.93 51.01 43.28 50.06 43.63 48.87 43.98 43.19 44.33 39.16 44.67 38.68 45.02 37.97 45.37 37.5 45.72 38.21 46.07 40.82 46.42 39.16 46.77 40.82 47.12 40.34 47.47 39.63 47.82 40.34 48.17 42 48.52 40.34 48.86 39.63 49.21 39.87 49.56 38.21 49.91 39.63 50.26 38.21 50.61 36.79 50.96 33.47 51.31 32.05 51.66 28.49 52.01 26.6 52.36 26.36 52.7 27.31 53.05 30.62 53.4 31.81 53.75 33.23 54.1 29.91 54.45 28.02 54.8 30.62 55.15 27.78 55.5 28.25 55.85 25.65 56.2 26.83 56.55 25.41 56.89 25.88 57.24 26.6 57.59 23.28 57.94 23.04 58.29 23.28 58.64 21.38 58.99 21.38 59.34 19.25 59.69 16.88 60.04 17.59 60.39 16.17 60.73 14.98 61.08 15.69 61.43 16.17 61.78 15.93 62.13 15.22 62.48 16.4 62.83 18.54 63.18 18.54 63.53 18.3 63.88 19.96 64.23 20.2 64.58 21.38 64.92 20.91 65.27 21.14 65.62 21.14 65.97 21.14 66.32 20.67 66.67 18.77 67.02 18.3 67.37 17.83 67.72 17.83 68.07 18.3 68.42 17.83 68.77 16.64 69.11 15.46 69.46 14.98 69.81 15.22 70.16 15.22 70.51 13.8 70.86 13.8 71.21 13.8 71.56 14.03 71.91 13.56 72.26 13.09 72.61 12.61"/>
      </g>
      <g stroke-width="0.3" fill="#000000" fill-opacity="0.000" class="geometry" stroke-dasharray="none" stroke="#66C2A5" id="img-e5ba6d20-11">
        <path fill="none" d="M21.98,71.86 L 22.33 72.57 22.68 73.52 23.03 74.71 23.38 80.16 23.73 78.74 24.08 80.87 24.42 79.21 24.77 79.92 25.12 77.08 25.47 75.42 25.82 77.55 26.17 78.97 26.52 77.55 26.87 74.71 27.22 75.66 27.57 74.94 27.92 76.6 28.27 81.34 28.61 80.87 28.96 79.45 29.31 81.11 29.66 81.82 30.01 83.24 30.36 88.22 30.71 89.4 31.06 89.88 31.41 86.56 31.76 84.9 32.11 85.61 32.45 85.85 32.8 85.85 33.15 85.14 33.5 80.16 33.85 82.05 34.2 81.82 34.55 80.16 34.9 82.29 35.25 79.68 35.6 80.87 35.95 83.24 36.3 85.85 36.64 86.56 36.99 86.32 37.34 88.22 37.69 87.51 38.04 88.93 38.39 91.3 38.74 91.53 39.09 95.56 39.44 95.8 39.79 96.51 40.14 96.51 40.49 91.53 40.83 90.82 41.18 87.98 41.53 87.03 41.88 84.9 42.23 83.71 42.58 85.61 42.93 84.42 43.28 87.27 43.63 83.48 43.98 85.37 44.33 90.35 44.67 89.88 45.02 92.72 45.37 93.9 45.72 93.43 46.07 96.04 46.42 93.67 46.77 91.77 47.12 94.38 47.47 93.43 47.82 92.01 48.17 94.62 48.52 92.96 48.86 89.64 49.21 90.82 49.56 89.4 49.91 91.06 50.26 92.96 50.61 92.96 50.96 94.62 51.31 93.9 51.66 91.06 52.01 87.98 52.36 89.16 52.7 87.27 53.05 93.43 53.4 95.56 53.75 94.62 54.1 91.53 54.45 92.25 54.8 92.72 55.15 95.33 55.5 94.14 55.85 94.85 56.2 95.33 56.55 96.75 56.89 96.99 57.24 96.75 57.59 97.7 57.94 102.2 58.29 99.36 58.64 103.15 58.99 104.1 59.34 99.83 59.69 102.44 60.04 101.49 60.39 101.25 60.73 102.91 61.08 101.73 61.43 98.17 61.78 97.7 62.13 99.36 62.48 96.28 62.83 96.28 63.18 96.04 63.53 96.28 63.88 95.56 64.23 98.17 64.58 101.25 64.92 102.67 65.27 101.73 65.62 103.39 65.97 101.73 66.32 103.62 66.67 102.2 67.02 104.33 67.37 107.41 67.72 107.18 68.07 109.07 68.42 109.07 68.77 109.07 69.11 103.39 69.46 105.28 69.81 103.39 70.16 100.78 70.51 102.44 70.86 101.02 71.21 99.36 71.56 99.59 71.91 98.88 72.26 96.28 72.61 92.96 72.95 92.01 73.3 84.19 73.65 89.4 74 90.82 74.35 92.48 74.7 91.77 75.05 90.11 75.4 87.98 75.75 90.35 76.1 90.35 76.45 89.64 76.8 87.74 77.14 86.08 77.49 85.14 77.84 87.74 78.19 89.64 78.54 86.32 78.89 89.64 79.24 88.45 79.59 92.48 79.94 95.09 80.29 97.7 80.64 94.62 80.98 93.9 81.33 94.38 81.68 95.09 82.03 92.25 82.38 94.38 82.73 91.3 83.08 89.4 83.43 92.48 83.78 94.38 84.13 94.85 84.48 90.59 84.83 91.3 85.17 91.77 85.52 91.53 85.87 91.77 86.22 92.01 86.57 93.19 86.92 97.93 87.27 98.17 87.62 96.28 87.97 94.85 88.32 95.09 88.67 95.56 89.02 98.41 89.36 96.28 89.71 97.22 90.06 98.65 90.41 98.88 90.76 98.17 91.11 95.8 91.46 94.85 91.81 92.72 92.16 92.96 92.51 91.53 92.86 96.28 93.2 94.14 93.55 92.72 93.9 91.3 94.25 92.72 94.6 95.09 94.95 93.19 95.3 91.3 95.65 94.85 96 97.46 96.35 94.85 96.7 94.38 97.05 90.82 97.39 88.45 97.74 89.88 98.09 87.27 98.44 85.61 98.79 82.05 99.14 84.19 99.49 82.53 99.84 81.58 100.19 82.05 100.54 85.37 100.89 85.61 101.23 92.25 101.58 93.19 101.93 94.38 102.28 96.04 102.63 98.41 102.98 96.51 103.33 96.75 103.68 99.59 104.03 104.57 104.38 105.76 104.73 106.23 105.08 107.89 105.42 105.04 105.77 108.36 106.12 106.23 106.47 106.23 106.82 108.84 107.17 107.89 107.52 112.15 107.87 114.29 108.22 113.81 108.57 115.95 108.92 116.18 109.26 114.05 109.61 112.87 109.96 116.66 110.31 119.26 110.66 116.42 111.01 118.55 111.36 115.24 111.71 115.47 112.06 116.42 112.41 113.34 112.76 115.24 113.11 115.95 113.45 117.61 113.8 118.79 114.15 120.21 114.5 117.37 114.85 115.95 115.2 115.24 115.55 113.34 115.9 110.97 116.25 109.78 116.6 109.31 116.95 110.97 117.3 108.6 117.64 111.68 117.99 109.31 118.34 111.21 118.69 110.5 119.04 110.26 119.39 110.02 119.74 111.44 120.09 114.52 120.44 117.84 120.79 118.55 121.14 118.08 121.48 116.66 121.83 113.81 122.18 113.34 122.53 114.52 122.88 114.76 123.23 115.71 123.58 117.13 123.93 119.5 124.28 115.24 124.63 112.15 124.98 116.42 125.33 117.13 125.67 116.18 126.02 114.05 126.37 113.81 126.72 112.15 127.07 114.52 127.42 113.58 127.77 115.71 128.12 117.13 128.47 120.21 128.82 119.74 129.17 120.92 129.51 118.79 129.86 119.03 130.21 119.5 130.56 116.89 130.91 115.95 131.26 119.5 131.61 122.35 131.96 122.11 132.31 124.95 132.66 125.66 133.01 124.95 133.36 124.48 133.7 126.37 134.05 127.8 134.4 127.56 134.75 126.37 135.1 126.85 135.45 128.03 135.8 127.8 136.15 127.09 136.5 127.8 136.85 128.03 137.2 127.56 137.55 128.51 137.89 128.51 138.24 127.56 138.59 127.09 138.94 126.37 139.29 126.61 139.64 128.03 139.99 129.46 140.34 129.93 140.69 129.93 141.04 130.17 141.39 130.64 141.73 130.64 142.08 130.64 142.43 129.93 142.78 129.69 143.13 130.17 143.48 130.4 143.83 130.4 144.18 130.64 144.53 130.4 144.88 130.4 145.23 130.64 145.58 130.88 145.92 131.11"/>
      </g>
      <g stroke-width="0.3" fill="#000000" fill-opacity="0.000" class="geometry" stroke-dasharray="none" stroke="#ABDDA4" id="img-e5ba6d20-12">
        <path fill="none" d="M21.98,71.86 L 22.33 69.02 22.68 66.89 23.03 70.68 23.38 68.31 23.73 65.23 24.08 66.89 24.42 68.55 24.77 69.97 25.12 66.65 25.47 67.83 25.82 67.6 26.17 63.33 26.52 59.3 26.87 62.15 27.22 63.09 27.57 66.41 27.92 72.1 28.27 73.52 28.61 73.52 28.96 75.66 29.31 78.26 29.66 74.47 30.01 71.15 30.36 73.76 30.71 77.31 31.06 79.68 31.41 79.92 31.76 80.16 32.11 78.26 32.45 76.13 32.8 77.79 33.15 76.37 33.5 72.81 33.85 68.31 34.2 63.57 34.55 65.23 34.9 67.36 35.25 70.2 35.6 72.57 35.95 74.23 36.3 70.92 36.64 71.15 36.99 67.36 37.34 68.31 37.69 64.52 38.04 66.41 38.39 64.28 38.74 55.75 39.09 54.09 39.44 54.56 39.79 52.43 40.14 51.72 40.49 51.48 40.83 52.67 41.18 49.11 41.53 47.93 41.88 44.84 42.23 43.66 42.58 44.37 42.93 45.32 43.28 47.93 43.63 51.48 43.98 51.72 44.33 50.06 44.67 49.35 45.02 46.74 45.37 42.24 45.72 38.21 46.07 40.1 46.42 38.45 46.77 40.1 47.12 41.53 47.47 43.9 47.82 43.42 48.17 40.58 48.52 35.6 48.86 39.63 49.21 38.21 49.56 39.87 49.91 40.1 50.26 40.58 50.61 38.68 50.96 37.5 51.31 34.42 51.66 34.42 52.01 39.63 52.36 38.21 52.7 35.13 53.05 31.81 53.4 33.23 53.75 33.23 54.1 33.94 54.45 36.55 54.8 37.5 55.15 35.6 55.5 34.65 55.85 37.26 56.2 36.55 56.55 36.79 56.89 35.6 57.24 33.94 57.59 31.57 57.94 32.05 58.29 33.23 58.64 36.31 58.99 36.08 59.34 37.26 59.69 37.26 60.04 33.23 60.39 34.18 60.73 34.65 61.08 35.13 61.43 33.94 61.78 32.76 62.13 33.23 62.48 35.13 62.83 34.18 63.18 32.76 63.53 33.71 63.88 32.76 64.23 32.99 64.58 32.76 64.92 30.62 65.27 30.15 65.62 30.15 65.97 32.52 66.32 34.89 66.67 33.71 67.02 33.47 67.37 33.23 67.72 32.52 68.07 32.99 68.42 34.42 68.77 35.13 69.11 37.26 69.46 43.66 69.81 42.24 70.16 41.05 70.51 41.29 70.86 38.21 71.21 35.84 71.56 35.84 71.91 39.16 72.26 39.63 72.61 38.21 72.95 38.68 73.3 39.63 73.65 40.58 74 42 74.35 45.08 74.7 43.9 75.05 42.71 75.4 43.19 75.75 44.37 76.1 42 76.45 39.39 76.8 35.13 77.14 35.36 77.49 34.42 77.84 36.31 78.19 41.29 78.54 46.98 78.89 52.67 79.24 51.24 79.59 51.72 79.94 54.09 80.29 55.98 80.64 53.14 80.98 51.48 81.33 50.3 81.68 51.48 82.03 52.19 82.38 56.46 82.73 55.27 83.08 55.51 83.43 54.8 83.78 56.22 84.13 56.46 84.48 57.88 84.83 57.41 85.17 56.22 85.52 57.17 85.87 57.41 86.22 54.09 86.57 54.09 86.92 55.51 87.27 53.61 87.62 55.27 87.97 56.22 88.32 52.43 88.67 49.35 89.02 49.11 89.36 49.35 89.71 51.01 90.06 49.82 90.41 53.61 90.76 55.04 91.11 58.35 91.46 58.12 91.81 60.25 92.16 63.33 92.51 60.96 92.86 55.75 93.2 59.54 93.55 61.67 93.9 63.09 94.25 61.67 94.6 60.01 94.95 61.67 95.3 60.49 95.65 58.83 96 56.46 96.35 58.35 96.7 56.22 97.05 51.24 97.39 48.87 97.74 49.35 98.09 49.11 98.44 50.77 98.79 48.4 99.14 49.82 99.49 47.21 99.84 44.84 100.19 46.5 100.54 49.11 100.89 51.24 101.23 49.11 101.58 49.11 101.93 49.82 102.28 54.56 102.63 54.09 102.98 51.72 103.33 49.35 103.68 49.11 104.03 52.67 104.38 50.77 104.73 51.24 105.08 50.53 105.42 48.87 105.77 50.06 106.12 51.24 106.47 47.93 106.82 47.21 107.17 46.03 107.52 43.66 107.87 45.79 108.22 45.08 108.57 48.87 108.92 46.98 109.26 44.61 109.61 43.19 109.96 42.71 110.31 38.21 110.66 41.53 111.01 42.24 111.36 42.95 111.71 42.47 112.06 41.76 112.41 38.68 112.76 35.84 113.11 39.39 113.45 39.39 113.8 40.34 114.15 43.42 114.5 43.19 114.85 42.47 115.2 40.34 115.55 42.71 115.9 41.76 116.25 42.24 116.6 47.45 116.95 46.98 117.3 42.47 117.64 45.79 117.99 47.21 118.34 48.16 118.69 48.4 119.04 45.56 119.39 48.87 119.74 50.77 120.09 49.35 120.44 46.98 120.79 47.21 121.14 46.74 121.48 44.13 121.83 46.98 122.18 44.84 122.53 48.64 122.88 51.24 123.23 48.64 123.58 46.03 123.93 43.9 124.28 39.87 124.63 37.73 124.98 38.92 125.33 42 125.67 42.47 126.02 42.71 126.37 40.34 126.72 41.76 127.07 46.27 127.42 50.53 127.77 48.87 128.12 52.67 128.47 53.85 128.82 58.35 129.17 60.49 129.51 58.12 129.86 59.54 130.21 53.61 130.56 57.17 130.91 54.09 131.26 50.06 131.61 54.09 131.96 57.17 132.31 56.22 132.66 63.81 133.01 67.6 133.36 65.46 133.7 64.75 134.05 64.04 134.4 67.6 134.75 72.57 135.1 71.86 135.45 67.12 135.8 70.92 136.15 65.7 136.5 66.18 136.85 67.36 137.2 70.44 137.55 68.07 137.89 70.2 138.24 66.65 138.59 64.99 138.94 64.99 139.29 64.75 139.64 62.38 139.99 61.2 140.34 58.59 140.69 57.17 141.04 54.56 141.39 52.67 141.73 52.67 142.08 48.87 142.43 51.24 142.78 50.77 143.13 48.64 143.48 48.16 143.83 47.93 144.18 45.79 144.53 41.29 144.88 43.66 145.23 39.87 145.58 40.34 145.92 40.58 146.27 41.29 146.62 42 146.97 40.34 147.32 37.02 147.67 39.16 148.02 37.02 148.37 34.89 148.72 39.63 149.07 37.26 149.42 36.08 149.76 37.73 150.11 34.18 150.46 32.76 150.81 30.86 151.16 31.34 151.51 31.1 151.86 30.62 152.21 29.2 152.56 33.23 152.91 34.89 153.26 33.94 153.61 34.18 153.95 32.52 154.3 33.94 154.65 37.02 155 40.58 155.35 38.45 155.7 37.02 156.05 37.26 156.4 35.6 156.75 34.65 157.1 34.18 157.45 39.39 157.79 38.92 158.14 37.97 158.49 40.82 158.84 38.21 159.19 37.02 159.54 40.34 159.89 44.84 160.24 42.71 160.59 42.24 160.94 41.53 161.29 42 161.64 41.05 161.98 37.97 162.33 39.87 162.68 42.71 163.03 43.19 163.38 42 163.73 42.24 164.08 39.63 164.43 37.26 164.78 37.26 165.13 34.65 165.48 33.71 165.83 35.13 166.17 37.5 166.52 37.97 166.87 39.16 167.22 41.76 167.57 44.84 167.92 42.71 168.27 45.56 168.62 42.71 168.97 40.34 169.32 39.63 169.67 42 170.01 40.82 170.36 39.16 170.71 36.08 171.06 35.6 171.41 32.99 171.76 32.52 172.11 32.76 172.46 31.34 172.81 31.57 173.16 30.62 173.51 31.57 173.86 34.65 174.2 33.71 174.55 34.18 174.9 36.79 175.25 37.26 175.6 34.89 175.95 34.65 176.3 32.76 176.65 35.84 177 37.97 177.35 40.1 177.7 37.5 178.04 35.6 178.39 35.84 178.74 34.42 179.09 32.76 179.44 31.57 179.79 31.34 180.14 28.73 180.49 29.68 180.84 28.02 181.19 28.97 181.54 30.39 181.89 25.41 182.23 25.17 182.58 25.65 182.93 27.31 183.28 25.88 183.63 23.75 183.98 22.57 184.33 20.91 184.68 20.43 185.03 21.14 185.38 21.85 185.73 23.51 186.08 24.94 186.42 26.36 186.77 25.17 187.12 25.88 187.47 26.83 187.82 26.83 188.17 25.41 188.52 26.36 188.87 27.07 189.22 30.62 189.57 28.73 189.92 32.76 190.26 31.57 190.61 25.17 190.96 24.7 191.31 26.36 191.66 28.97 192.01 29.2 192.36 27.54 192.71 26.83 193.06 25.17 193.41 24.94 193.76 25.88 194.11 28.73 194.45 25.65 194.8 25.65 195.15 26.6 195.5 27.54 195.85 28.02 196.2 28.73"/>
      </g>
      <g stroke-width="0.3" fill="#000000" fill-opacity="0.000" class="geometry" stroke-dasharray="none" stroke="#E6F598" id="img-e5ba6d20-13">
        <path fill="none" d="M21.98,71.86 L 22.33 70.68 22.68 69.26 23.03 68.78 23.38 69.97 23.73 72.81 24.08 73.52 24.42 74.94 24.77 74 25.12 70.92 25.47 69.02 25.82 73.29 26.17 73.29 26.52 75.42 26.87 79.92 27.22 75.66 27.57 73.05 27.92 72.57 28.27 73.05 28.61 71.39 28.96 68.55 29.31 71.15 29.66 71.86 30.01 71.86 30.36 69.02 30.71 69.73 31.06 71.86 31.41 72.34 31.76 68.07 32.11 69.02 32.45 68.31 32.8 69.97 33.15 72.1 33.5 73.76 33.85 73.05 34.2 74.23 34.55 72.57 34.9 74.23 35.25 71.63 35.6 73.05 35.95 78.03 36.3 78.26 36.64 77.55 36.99 78.74 37.34 81.82 37.69 82.53 38.04 81.58 38.39 81.11 38.74 79.45 39.09 79.92 39.44 82.29 39.79 81.58 40.14 85.85 40.49 88.45 40.83 87.51 41.18 89.16 41.53 87.74 41.88 91.06 42.23 91.06 42.58 94.38 42.93 92.48 43.28 87.27 43.63 89.88 43.98 85.61 44.33 82.77 44.67 77.79 45.02 78.26 45.37 80.63 45.72 79.68 46.07 79.21 46.42 82.53 46.77 82.05 47.12 87.74 47.47 90.59 47.82 85.85 48.17 88.69 48.52 88.69 48.86 92.96 49.21 94.85 49.56 97.93 49.91 96.51 50.26 96.75 50.61 101.25 50.96 99.12 51.31 97.22 51.66 96.04 52.01 93.43 52.36 93.9 52.7 93.9 53.05 90.35 53.4 86.79 53.75 83.71 54.1 85.85 54.45 86.56 54.8 79.68 55.15 76.84 55.5 77.79 55.85 76.84 56.2 79.68 56.55 77.31 56.89 74 57.24 74.23 57.59 74.94 57.94 73.52 58.29 72.81 58.64 73.76 58.99 71.86 59.34 71.63 59.69 69.97 60.04 74.71 60.39 74.94 60.73 82.53 61.08 80.87 61.43 80.87 61.78 80.4 62.13 77.55 62.48 77.79 62.83 78.26 63.18 73.52 63.53 69.97 63.88 67.83 64.23 67.12 64.58 64.28 64.92 64.04 65.27 68.31 65.62 74 65.97 76.37 66.32 73.76 66.67 74.71 67.02 71.39 67.37 69.26 67.72 69.73 68.07 62.62 68.42 62.62 68.77 62.38 69.11 62.62 69.46 61.67 69.81 60.72 70.16 59.06 70.51 59.78 70.86 56.46 71.21 57.88 71.56 58.59 71.91 55.51 72.26 55.98 72.61 56.69 72.95 55.98 73.3 55.51 73.65 58.59 74 58.83 74.35 59.3 74.7 62.86 75.05 57.88 75.4 56.69 75.75 58.83 76.1 59.54 76.45 58.59 76.8 59.78 77.14 56.69 77.49 56.22 77.84 55.27 78.19 53.14 78.54 56.69 78.89 58.59 79.24 58.83 79.59 59.54 79.94 60.72 80.29 61.2 80.64 67.12 80.98 69.02 81.33 63.81 81.68 63.81 82.03 70.92 82.38 71.86 82.73 71.63 83.08 72.81 83.43 70.92 83.78 73.29 84.13 76.13 84.48 76.6 84.83 75.42 85.17 77.55 85.52 79.68 85.87 76.6 86.22 75.18 86.57 76.84 86.92 78.74 87.27 80.63 87.62 74.23 87.97 72.57 88.32 68.55 88.67 71.63 89.02 71.39 89.36 76.13 89.71 75.42 90.06 75.18 90.41 75.18 90.76 77.55 91.11 79.21 91.46 79.45 91.81 78.74 92.16 76.84 92.51 77.79 92.86 80.16 93.2 84.9 93.55 86.79 93.9 86.32 94.25 81.34 94.6 83.24 94.95 83.24 95.3 79.92 95.65 84.9 96 83.24 96.35 82.53 96.7 80.4 97.05 81.82 97.39 79.21 97.74 80.87 98.09 81.34 98.44 83.95 98.79 87.74 99.14 87.51 99.49 87.03 99.84 89.16 100.19 86.56 100.54 85.85 100.89 87.51 101.23 88.45 101.58 87.27 101.93 89.4 102.28 90.59 102.63 90.59 102.98 92.01 103.33 96.75 103.68 97.22 104.03 96.75 104.38 97.22 104.73 90.35 105.08 96.75 105.42 91.3 105.77 92.25 106.12 93.67 106.47 91.77 106.82 93.9 107.17 93.19 107.52 92.25 107.87 91.3 108.22 89.4 108.57 92.48 108.92 93.67 109.26 95.09 109.61 94.62 109.96 93.9 110.31 92.01 110.66 94.38 111.01 91.77 111.36 90.59 111.71 89.4 112.06 87.27 112.41 91.77 112.76 92.96 113.11 94.85 113.45 91.53 113.8 94.14 114.15 88.69 114.5 86.32 114.85 88.45 115.2 82.53 115.55 84.66 115.9 84.19 116.25 90.82 116.6 91.06 116.95 87.74 117.3 80.16 117.64 83.24 117.99 83.24 118.34 82.77 118.69 87.27 119.04 87.27 119.39 92.25 119.74 91.53 120.09 91.06 120.44 92.01 120.79 89.88 121.14 90.82 121.48 95.09 121.83 100.54 122.18 99.83 122.53 96.75 122.88 92.48 123.23 92.96 123.58 94.62 123.93 100.07 124.28 101.96 124.63 100.54 124.98 101.73 125.33 103.15 125.67 102.2 126.02 102.2 126.37 101.02 126.72 100.54 127.07 101.25 127.42 101.02 127.77 97.93 128.12 96.51 128.47 99.12 128.82 100.78 129.17 99.59 129.51 100.54 129.86 103.86 130.21 100.07 130.56 105.04 130.91 105.04 131.26 105.52 131.61 109.07 131.96 112.39 132.31 113.34 132.66 115 133.01 113.81 133.36 113.58 133.7 115.71 134.05 112.87 134.4 110.97 134.75 112.87 135.1 111.44 135.45 113.1 135.8 114.05 136.15 116.18 136.5 117.37 136.85 116.66 137.2 118.32 137.55 118.79 137.89 118.55 138.24 118.08 138.59 118.79 138.94 119.26 139.29 118.79 139.64 120.21 139.99 119.03 140.34 116.89 140.69 118.79 141.04 116.18 141.39 116.89 141.73 117.84 142.08 119.03 142.43 122.82 142.78 124.24 143.13 124 143.48 124.24 143.83 123.53 144.18 124 144.53 123.53 144.88 126.61 145.23 127.8 145.58 129.22 145.92 128.27 146.27 126.85 146.62 126.85 146.97 126.37 147.32 127.56 147.67 127.32 148.02 128.03 148.37 128.27 148.72 128.51 149.07 128.98 149.42 127.56 149.76 128.03 150.11 128.03 150.46 126.61 150.81 126.61 151.16 127.09 151.51 127.32 151.86 128.27 152.21 127.56 152.56 128.27 152.91 128.51 153.26 129.22 153.61 129.22 153.95 128.98 154.3 129.69 154.65 129.69 155 130.17 155.35 129.93 155.7 129.93 156.05 130.4 156.4 130.88 156.75 130.4 157.1 130.64 157.45 130.64 157.79 130.64 158.14 130.4 158.49 130.64 158.84 131.11"/>
      </g>
      <g stroke-width="0.3" fill="#000000" fill-opacity="0.000" class="geometry" stroke-dasharray="none" stroke="#FFFFBF" id="img-e5ba6d20-14">
        <path fill="none" d="M21.98,71.86 L 22.33 71.15 22.68 72.1 23.03 69.49 23.38 74.71 23.73 77.08 24.08 82.29 24.42 86.56 24.77 81.34 25.12 80.87 25.47 83 25.82 82.05 26.17 76.6 26.52 79.45 26.87 81.34 27.22 79.45 27.57 79.45 27.92 80.87 28.27 80.16 28.61 78.97 28.96 80.87 29.31 78.03 29.66 80.63 30.01 78.97 30.36 81.11 30.71 80.87 31.06 78.97 31.41 81.34 31.76 81.34 32.11 82.29 32.45 81.34 32.8 77.31 33.15 75.42 33.5 76.6 33.85 74.23 34.2 71.15 34.55 69.73 34.9 67.12 35.25 68.31 35.6 71.15 35.95 71.15 36.3 73.76 36.64 73.29 36.99 69.97 37.34 65.23 37.69 66.41 38.04 73.29 38.39 73.76 38.74 71.63 39.09 70.68 39.44 71.63 39.79 70.44 40.14 70.92 40.49 70.92 40.83 70.2 41.18 64.52 41.53 64.52 41.88 66.18 42.23 64.99 42.58 64.99 42.93 66.89 43.28 69.97 43.63 70.68 43.98 69.73 44.33 68.31 44.67 67.6 45.02 65.46 45.37 64.52 45.72 62.86 46.07 58.59 46.42 60.49 46.77 60.49 47.12 62.86 47.47 61.44 47.82 58.59 48.17 60.72 48.52 60.49 48.86 57.64 49.21 58.59 49.56 55.04 49.91 52.19 50.26 54.09 50.61 55.98 50.96 54.32 51.31 55.04 51.66 54.09 52.01 54.56 52.36 55.27 52.7 54.09 53.05 51.95 53.4 50.3 53.75 57.17 54.1 55.04 54.45 52.67 54.8 53.14 55.15 50.53 55.5 49.35 55.85 46.98 56.2 43.42 56.55 43.9 56.89 42.71 57.24 43.66 57.59 45.08 57.94 46.03 58.29 49.11 58.64 47.69 58.99 44.84 59.34 48.16 59.69 47.45 60.04 45.79 60.39 45.79 60.73 45.56 61.08 48.87 61.43 47.93 61.78 52.67 62.13 50.3 62.48 53.61 62.83 53.61 63.18 55.04 63.53 54.56 63.88 54.32 64.23 53.38 64.58 51.95 64.92 52.67 65.27 53.38 65.62 52.67 65.97 51.24 66.32 51.72 66.67 47.21 67.02 46.27 67.37 48.4 67.72 46.27 68.07 48.87 68.42 48.87 68.77 44.84 69.11 48.4 69.46 50.77 69.81 57.64 70.16 55.51 70.51 53.38 70.86 53.14 71.21 56.69 71.56 59.54 71.91 59.3 72.26 61.2 72.61 55.75 72.95 55.75 73.3 55.98 73.65 54.56 74 55.51 74.35 54.32 74.7 52.9 75.05 54.09 75.4 58.35 75.75 55.51 76.1 52.9 76.45 48.87 76.8 52.9 77.14 53.85 77.49 46.74 77.84 51.95 78.19 50.77 78.54 47.93 78.89 50.53 79.24 51.95 79.59 56.93 79.94 56.22 80.29 52.9 80.64 51.01 80.98 49.82 81.33 51.01 81.68 51.01 82.03 45.32 82.38 47.21 82.73 46.27 83.08 48.16 83.43 46.5 83.78 51.72 84.13 48.64 84.48 51.24 84.83 54.09 85.17 50.53 85.52 49.82 85.87 46.98 86.22 51.24 86.57 54.32 86.92 62.15 87.27 57.41 87.62 55.75 87.97 56.46 88.32 61.91 88.67 60.96 89.02 62.15 89.36 62.38 89.71 68.31 90.06 65.46 90.41 67.12 90.76 69.73 91.11 74.94 91.46 78.03 91.81 78.97 92.16 81.82 92.51 77.55 92.86 76.13 93.2 76.6 93.55 78.03 93.9 74.94 94.25 72.81 94.6 72.57 94.95 68.78 95.3 67.36 95.65 64.04 96 61.67 96.35 60.96 96.7 57.41 97.05 58.12 97.39 59.3 97.74 60.96 98.09 58.59 98.44 55.04 98.79 53.85 99.14 54.56 99.49 57.64 99.84 52.43 100.19 55.04 100.54 53.61 100.89 53.14 101.23 51.72 101.58 53.14 101.93 55.75 102.28 51.72 102.63 52.9 102.98 54.32 103.33 57.41 103.68 60.01 104.03 61.44 104.38 58.35 104.73 57.17 105.08 58.83 105.42 60.72 105.77 57.64 106.12 59.3 106.47 58.83 106.82 56.93 107.17 57.41 107.52 64.75 107.87 69.97 108.22 73.05 108.57 73.29 108.92 73.29 109.26 73.29 109.61 74.94 109.96 75.18 110.31 72.57 110.66 72.57 111.01 73.76 111.36 76.6 111.71 74.71 112.06 75.89 112.41 74 112.76 73.29 113.11 74 113.45 75.42 113.8 76.84 114.15 76.13 114.5 73.29 114.85 71.39 115.2 68.07 115.55 66.89 115.9 69.73 116.25 66.89 116.6 67.83 116.95 64.99 117.3 62.15 117.64 55.98 117.99 55.04 118.34 51.24 118.69 51.01 119.04 50.3 119.39 50.3 119.74 46.27 120.09 44.13 120.44 45.32 120.79 52.19 121.14 52.43 121.48 47.93 121.83 50.53 122.18 50.77 122.53 52.43 122.88 51.72 123.23 47.45 123.58 48.64 123.93 52.19 124.28 48.4 124.63 47.21 124.98 48.16 125.33 50.53 125.67 52.67 126.02 52.9 126.37 52.67 126.72 51.95 127.07 54.32 127.42 54.32 127.77 52.43 128.12 60.96 128.47 59.3 128.82 61.2 129.17 60.01 129.51 59.3 129.86 58.35 130.21 58.35 130.56 53.85 130.91 51.95 131.26 55.27 131.61 51.24 131.96 54.32 132.31 55.51 132.66 51.72 133.01 54.32 133.36 54.32 133.7 50.53 134.05 50.06 134.4 52.9 134.75 52.19 135.1 47.69 135.45 46.03 135.8 48.4 136.15 46.03 136.5 47.69 136.85 48.87 137.2 49.35 137.55 50.53 137.89 51.72 138.24 48.16 138.59 50.53 138.94 48.4 139.29 47.45 139.64 47.21 139.99 43.42 140.34 40.82 140.69 38.45 141.04 41.05 141.39 40.82 141.73 40.1 142.08 42.71 142.43 42.47 142.78 43.66 143.13 44.37 143.48 46.27 143.83 46.5 144.18 47.69 144.53 52.19 144.88 50.77 145.23 51.01 145.58 52.67 145.92 51.48 146.27 50.3 146.62 47.93 146.97 50.77 147.32 52.19 147.67 47.69 148.02 46.98 148.37 46.5 148.72 46.27 149.07 49.58 149.42 50.06 149.76 46.74 150.11 49.35 150.46 50.3 150.81 48.87 151.16 49.11 151.51 46.74 151.86 50.06 152.21 51.72 152.56 47.93 152.91 49.11 153.26 49.82 153.61 50.3 153.95 50.3 154.3 49.35 154.65 48.4 155 52.43 155.35 54.09 155.7 53.61 156.05 56.22 156.4 54.32 156.75 54.32 157.1 54.8 157.45 57.88 157.79 59.54 158.14 57.41 158.49 57.17 158.84 53.85 159.19 53.14 159.54 51.95 159.89 48.4 160.24 52.67 160.59 46.5 160.94 50.77 161.29 51.72 161.64 50.77 161.98 49.58 162.33 44.37 162.68 41.53 163.03 42.47 163.38 44.84 163.73 46.98 164.08 44.61 164.43 45.79 164.78 43.42 165.13 43.66 165.48 41.76 165.83 38.45 166.17 37.5 166.52 37.5 166.87 37.02 167.22 39.63 167.57 41.53 167.92 40.34 168.27 36.31 168.62 34.65 168.97 29.91 169.32 29.68 169.67 33.23 170.01 35.13 170.36 36.08 170.71 37.02 171.06 36.55 171.41 33.23 171.76 34.18 172.11 35.36 172.46 34.89 172.81 33.94 173.16 33.47 173.51 36.08 173.86 34.89 174.2 36.79 174.55 36.31 174.9 34.89 175.25 32.76 175.6 31.57 175.95 32.28 176.3 31.34 176.65 34.65 177 33.47 177.35 37.5 177.7 33.71 178.04 33.23 178.39 32.99 178.74 31.81 179.09 28.97 179.44 28.02 179.79 30.62 180.14 29.2 180.49 28.49 180.84 29.2 181.19 33.94 181.54 32.76 181.89 33.71 182.23 35.13 182.58 35.6 182.93 37.97 183.28 36.79 183.63 35.13 183.98 32.52 184.33 34.89 184.68 34.18 185.03 32.52 185.38 33.71 185.73 33.71 186.08 31.57 186.42 30.86 186.77 30.39 187.12 31.81 187.47 31.34 187.82 32.76 188.17 30.62 188.52 34.42 188.87 34.18 189.22 30.62 189.57 25.88 189.92 25.17 190.26 23.28 190.61 23.75 190.96 20.67 191.31 21.14 191.66 22.33 192.01 24.22 192.36 25.17 192.71 26.6 193.06 28.25 193.41 27.07 193.76 26.6 194.11 26.6 194.45 24.7 194.8 26.12 195.15 24.94 195.5 24.46 195.85 24.94 196.2 25.17"/>
      </g>
      <g stroke-width="0.3" fill="#000000" fill-opacity="0.000" class="geometry" stroke-dasharray="none" stroke="#FEE08B" id="img-e5ba6d20-15">
        <path fill="none" d="M21.98,71.86 L 22.33 72.34 22.68 68.55 23.03 66.18 23.38 60.49 23.73 57.41 24.08 58.59 24.42 59.3 24.77 60.01 25.12 61.67 25.47 59.78 25.82 61.91 26.17 59.78 26.52 57.41 26.87 57.64 27.22 54.09 27.57 53.61 27.92 56.22 28.27 57.88 28.61 60.01 28.96 61.91 29.31 59.06 29.66 57.64 30.01 58.35 30.36 63.81 30.71 66.65 31.06 65.23 31.41 61.2 31.76 59.06 32.11 60.25 32.45 60.25 32.8 60.25 33.15 63.09 33.5 62.86 33.85 55.04 34.2 54.09 34.55 53.14 34.9 55.75 35.25 55.75 35.6 58.35 35.95 57.64 36.3 59.3 36.64 62.38 36.99 58.35 37.34 62.15 37.69 61.2 38.04 57.17 38.39 60.96 38.74 63.33 39.09 62.38 39.44 63.09 39.79 64.75 40.14 63.57 40.49 63.09 40.83 62.86 41.18 64.04 41.53 68.55 41.88 64.28 42.23 66.18 42.58 67.6 42.93 64.52 43.28 62.62 43.63 62.86 43.98 64.04 44.33 62.15 44.67 62.62 45.02 68.55 45.37 62.62 45.72 63.33 46.07 67.83 46.42 64.28 46.77 61.44 47.12 60.96 47.47 60.25 47.82 58.12 48.17 61.44 48.52 62.15 48.86 68.31 49.21 67.83 49.56 67.6 49.91 69.02 50.26 72.34 50.61 72.81 50.96 70.92 51.31 69.02 51.66 67.6 52.01 68.78 52.36 70.2 52.7 77.55 53.05 79.45 53.4 79.21 53.75 78.97 54.1 82.29 54.45 85.14 54.8 87.27 55.15 87.74 55.5 89.16 55.85 89.4 56.2 89.64 56.55 91.3 56.89 94.85 57.24 92.48 57.59 93.67 57.94 95.56 58.29 95.56 58.64 95.09 58.99 90.35 59.34 90.59 59.69 92.96 60.04 96.28 60.39 99.83 60.73 103.39 61.08 105.28 61.43 104.57 61.78 101.96 62.13 102.91 62.48 101.96 62.83 99.83 63.18 99.59 63.53 100.3 63.88 99.12 64.23 100.78 64.58 107.65 64.92 106.94 65.27 106.47 65.62 106.94 65.97 109.55 66.32 108.36 66.67 107.65 67.02 107.65 67.37 108.36 67.72 108.36 68.07 110.5 68.42 111.68 68.77 111.92 69.11 111.92 69.46 110.73 69.81 112.15 70.16 115.47 70.51 115.47 70.86 112.87 71.21 113.58 71.56 115 71.91 112.87 72.26 114.76 72.61 116.18 72.95 115 73.3 114.29 73.65 112.87 74 116.18 74.35 115.24 74.7 115.95 75.05 117.61 75.4 116.18 75.75 118.08 76.1 121.4 76.45 119.5 76.8 119.26 77.14 116.18 77.49 115 77.84 115.47 78.19 112.87 78.54 113.1 78.89 115 79.24 115 79.59 116.18 79.94 118.55 80.29 118.79 80.64 119.5 80.98 120.45 81.33 121.4 81.68 121.63 82.03 120.21 82.38 119.74 82.73 118.32 83.08 117.61 83.43 114.76 83.78 109.55 84.13 109.07 84.48 109.31 84.83 113.1 85.17 112.63 85.52 113.34 85.87 112.39 86.22 109.78 86.57 110.73 86.92 112.87 87.27 112.87 87.62 112.15 87.97 113.58 88.32 115.24 88.67 115.95 89.02 116.42 89.36 115.95 89.71 116.66 90.06 116.18 90.41 116.18 90.76 112.87 91.11 111.21 91.46 111.44 91.81 110.73 92.16 108.84 92.51 108.13 92.86 106.94 93.2 104.57 93.55 102.44 93.9 101.96 94.25 103.62 94.6 105.28 94.95 106.23 95.3 105.28 95.65 103.86 96 104.81 96.35 106.23 96.7 103.15 97.05 102.91 97.39 103.39 97.74 105.04 98.09 105.04 98.44 104.33 98.79 104.1 99.14 104.33 99.49 103.86 99.84 105.52 100.19 108.36 100.54 104.81 100.89 105.99 101.23 103.62 101.58 102.44 101.93 100.54 102.28 98.41 102.63 97.22 102.98 98.17 103.33 97.93 103.68 100.78 104.03 100.07 104.38 102.44 104.73 101.25 105.08 99.12 105.42 96.28 105.77 95.33 106.12 93.9 106.47 95.8 106.82 92.01 107.17 91.77 107.52 91.3 107.87 97.46 108.22 100.78 108.57 101.25 108.92 99.83 109.26 102.44 109.61 100.07 109.96 100.3 110.31 99.59 110.66 98.65 111.01 101.73 111.36 95.33 111.71 97.7 112.06 95.8 112.41 95.33 112.76 91.3 113.11 91.3 113.45 86.08 113.8 86.79 114.15 83 114.5 84.19 114.85 83.24 115.2 85.37 115.55 87.74 115.9 87.98 116.25 89.88 116.6 88.93 116.95 86.56 117.3 87.98 117.64 90.11 117.99 92.25 118.34 88.69 118.69 85.85 119.04 85.85 119.39 86.79 119.74 90.35 120.09 89.4 120.44 88.93 120.79 89.16 121.14 88.93 121.48 89.16 121.83 87.51 122.18 83.48 122.53 86.56 122.88 85.61 123.23 84.19 123.58 87.03 123.93 90.82 124.28 92.01 124.63 89.4 124.98 85.14 125.33 85.85 125.67 85.61 126.02 81.11 126.37 78.03 126.72 78.03 127.07 73.05 127.42 73.29 127.77 66.65 128.12 66.41 128.47 65.7 128.82 64.75 129.17 63.09 129.51 64.99 129.86 66.89 130.21 70.44 130.56 69.73 130.91 65.7 131.26 65.94 131.61 63.33 131.96 63.81 132.31 62.86 132.66 58.35 133.01 55.27 133.36 53.14 133.7 52.67 134.05 51.72 134.4 49.35 134.75 49.82 135.1 51.01 135.45 48.87 135.8 46.74 136.15 46.03 136.5 46.74 136.85 46.5 137.2 47.93 137.55 46.98 137.89 44.37 138.24 47.69 138.59 46.03 138.94 42.24 139.29 39.63 139.64 39.63 139.99 39.63 140.34 39.87 140.69 41.29 141.04 41.53 141.39 41.53 141.73 38.92 142.08 40.34 142.43 38.45 142.78 40.34 143.13 39.16 143.48 42.95 143.83 43.19 144.18 46.74 144.53 47.69 144.88 48.87 145.23 50.77 145.58 50.77 145.92 51.72 146.27 52.43 146.62 52.43 146.97 51.24 147.32 50.77 147.67 51.24 148.02 48.87 148.37 45.79 148.72 47.93 149.07 42.47 149.42 39.16 149.76 38.92 150.11 39.16 150.46 41.05 150.81 39.16 151.16 39.39 151.51 37.5 151.86 37.02 152.21 39.87 152.56 39.63 152.91 38.45 153.26 38.92 153.61 39.39 153.95 38.45 154.3 35.13 154.65 38.45 155 38.92 155.35 43.66 155.7 42 156.05 38.45 156.4 42.24 156.75 41.05 157.1 41.29 157.45 38.68 157.79 38.21 158.14 45.56 158.49 46.27 158.84 48.87 159.19 48.87 159.54 46.27 159.89 41.76 160.24 45.79 160.59 44.13 160.94 41.53 161.29 45.08 161.64 45.32 161.98 40.58 162.33 41.53 162.68 43.9 163.03 44.84 163.38 44.84 163.73 45.08 164.08 44.13 164.43 42.47 164.78 48.16 165.13 48.87 165.48 48.87 165.83 51.01 166.17 52.67 166.52 52.9 166.87 54.8 167.22 55.98 167.57 56.46 167.92 57.88 168.27 59.78 168.62 62.86 168.97 60.01 169.32 57.88 169.67 55.27 170.01 58.35 170.36 60.96 170.71 62.15 171.06 57.41 171.41 55.27 171.76 52.43 172.11 54.32 172.46 49.35 172.81 46.98 173.16 46.5 173.51 45.79 173.86 45.79 174.2 43.9 174.55 43.66 174.9 38.68 175.25 37.73 175.6 37.73 175.95 37.97 176.3 35.6 176.65 34.18 177 32.99 177.35 32.76 177.7 32.52 178.04 32.28 178.39 32.28 178.74 32.52 179.09 30.86 179.44 34.18 179.79 34.65 180.14 34.89 180.49 37.97 180.84 39.63 181.19 41.76 181.54 43.9 181.89 41.76 182.23 43.19 182.58 47.93 182.93 45.56 183.28 40.58 183.63 40.34 183.98 43.19 184.33 42.71 184.68 40.58 185.03 46.03 185.38 40.82 185.73 40.1 186.08 42.95 186.42 41.29 186.77 42 187.12 39.16 187.47 38.45 187.82 36.55 188.17 38.21 188.52 38.21 188.87 36.31 189.22 35.36 189.57 38.45 189.92 39.39 190.26 38.68 190.61 39.87 190.96 37.26 191.31 40.58 191.66 41.05 192.01 41.53 192.36 45.08 192.71 44.84 193.06 47.45 193.41 46.74 193.76 46.27 194.11 45.56 194.45 42.71 194.8 43.9 195.15 43.66 195.5 42.71 195.85 44.37 196.2 44.61"/>
      </g>
      <g stroke-width="0.3" fill="#000000" fill-opacity="0.000" class="geometry" stroke-dasharray="none" stroke="#FDAE61" id="img-e5ba6d20-16">
        <path fill="none" d="M21.98,71.86 L 22.33 69.26 22.68 72.81 23.03 77.31 23.38 72.81 23.73 70.92 24.08 67.6 24.42 69.97 24.77 68.78 25.12 69.02 25.47 71.86 25.82 71.63 26.17 72.34 26.52 70.92 26.87 71.63 27.22 70.68 27.57 77.08 27.92 76.84 28.27 76.6 28.61 79.68 28.96 76.13 29.31 84.9 29.66 85.85 30.01 85.37 30.36 82.29 30.71 80.87 31.06 79.68 31.41 77.79 31.76 73.76 32.11 74.71 32.45 76.13 32.8 74.47 33.15 73.76 33.5 73.29 33.85 72.57 34.2 72.57 34.55 72.57 34.9 70.68 35.25 71.86 35.6 72.1 35.95 72.1 36.3 71.86 36.64 74.23 36.99 73.52 37.34 74.71 37.69 74.23 38.04 75.18 38.39 74.47 38.74 74.23 39.09 71.63 39.44 69.26 39.79 69.26 40.14 70.2 40.49 74.94 40.83 74.71 41.18 77.08 41.53 75.18 41.88 73.05 42.23 74.94 42.58 73.05 42.93 78.26 43.28 81.58 43.63 83 43.98 77.31 44.33 77.79 44.67 80.87 45.02 79.92 45.37 83.71 45.72 80.4 46.07 74 46.42 72.1 46.77 70.2 47.12 70.44 47.47 67.83 47.82 70.44 48.17 68.55 48.52 69.49 48.86 69.97 49.21 67.83 49.56 65.7 49.91 66.65 50.26 68.31 50.61 70.68 50.96 67.36 51.31 68.55 51.66 70.44 52.01 75.89 52.36 79.21 52.7 75.18 53.05 73.05 53.4 75.18 53.75 73.29 54.1 71.63 54.45 71.86 54.8 75.89 55.15 73.52 55.5 74.94 55.85 77.08 56.2 77.08 56.55 80.87 56.89 75.66 57.24 70.92 57.59 68.78 57.94 72.81 58.29 67.36 58.64 67.36 58.99 69.97 59.34 69.02 59.69 70.2 60.04 64.04 60.39 63.81 60.73 65.7 61.08 66.65 61.43 67.12 61.78 63.81 62.13 66.41 62.48 70.2 62.83 72.1 63.18 68.07 63.53 68.31 63.88 64.99 64.23 67.6 64.58 65.94 64.92 65.46 65.27 63.33 65.62 63.33 65.97 66.89 66.32 68.31 66.67 65.94 67.02 59.06 67.37 58.59 67.72 60.25 68.07 60.96 68.42 60.25 68.77 60.72 69.11 60.72 69.46 61.44 69.81 64.28 70.16 61.91 70.51 59.3 70.86 58.12 71.21 61.91 71.56 63.09 71.91 61.44 72.26 60.49 72.61 58.12 72.95 57.17 73.3 58.35 73.65 63.57 74 61.44 74.35 59.06 74.7 61.91 75.05 62.38 75.4 59.3 75.75 60.96 76.1 62.62 76.45 61.2 76.8 63.33 77.14 60.25 77.49 62.86 77.84 62.62 78.19 62.62 78.54 61.2 78.89 62.62 79.24 63.33 79.59 61.2 79.94 65.46 80.29 67.12 80.64 69.49 80.98 65.94 81.33 69.49 81.68 69.49 82.03 71.15 82.38 76.84 82.73 78.74 83.08 75.42 83.43 76.13 83.78 77.31 84.13 76.84 84.48 80.4 84.83 80.16 85.17 76.6 85.52 78.03 85.87 78.03 86.22 75.18 86.57 74.94 86.92 75.89 87.27 78.97 87.62 76.37 87.97 74.47 88.32 74.23 88.67 75.18 89.02 72.81 89.36 74.23 89.71 76.37 90.06 77.31 90.41 74.71 90.76 79.92 91.11 77.55 91.46 77.55 91.81 78.26 92.16 76.37 92.51 77.08 92.86 82.05 93.2 81.11 93.55 77.08 93.9 76.13 94.25 76.37 94.6 82.05 94.95 81.34 95.3 82.05 95.65 85.37 96 83.48 96.35 84.9 96.7 88.45 97.05 88.69 97.39 90.11 97.74 93.9 98.09 92.72 98.44 93.67 98.79 93.43 99.14 92.01 99.49 95.33 99.84 97.46 100.19 96.99 100.54 98.41 100.89 97.7 101.23 97.93 101.58 96.99 101.93 95.8 102.28 95.09 102.63 96.75 102.98 95.8 103.33 96.51 103.68 97.22 104.03 98.41 104.38 101.49 104.73 102.2 105.08 101.25 105.42 98.41 105.77 98.65 106.12 99.36 106.47 102.67 106.82 104.1 107.17 102.44 107.52 103.39 107.87 99.12 108.22 100.78 108.57 103.15 108.92 104.33 109.26 101.96 109.61 97.46 109.96 98.88 110.31 100.07 110.66 99.36 111.01 101.73 111.36 102.44 111.71 107.65 112.06 110.26 112.41 110.5 112.76 111.44 113.11 114.76 113.45 116.42 113.8 118.32 114.15 121.87 114.5 121.87 114.85 119.74 115.2 119.03 115.55 117.37 115.9 117.37 116.25 116.89 116.6 118.55 116.95 120.92 117.3 122.11 117.64 119.74 117.99 119.98 118.34 122.11 118.69 122.82 119.04 120.69 119.39 120.92 119.74 119.26 120.09 118.08 120.44 119.26 120.79 121.87 121.14 123.06 121.48 122.35 121.83 122.82 122.18 123.53 122.53 121.4 122.88 119.03 123.23 121.4 123.58 121.87 123.93 120.69 124.28 122.35 124.63 124.48 124.98 121.63 125.33 121.4 125.67 122.58 126.02 121.87 126.37 120.21 126.72 121.4 127.07 120.45 127.42 119.26 127.77 117.61 128.12 116.89 128.47 119.03 128.82 118.08 129.17 114.76 129.51 113.81 129.86 113.81 130.21 114.76 130.56 113.81 130.91 115 131.26 114.52 131.61 116.42 131.96 118.32 132.31 120.21 132.66 121.4 133.01 121.63 133.36 121.4 133.7 120.21 134.05 120.45 134.4 120.21 134.75 120.45 135.1 118.55 135.45 117.84 135.8 120.21 136.15 119.98 136.5 120.45 136.85 119.03 137.2 118.55 137.55 115.47 137.89 116.89 138.24 115.47 138.59 117.61 138.94 116.66 139.29 116.18 139.64 116.66 139.99 114.05 140.34 114.29 140.69 114.52 141.04 109.07 141.39 108.6 141.73 106.23 142.08 106.47 142.43 103.86 142.78 102.91 143.13 102.91 143.48 104.1 143.83 103.62 144.18 103.86 144.53 101.73 144.88 99.59 145.23 95.33 145.58 98.65 145.92 98.65 146.27 98.65 146.62 100.07 146.97 98.17 147.32 97.93 147.67 97.93 148.02 98.88 148.37 99.59 148.72 97.46 149.07 102.67 149.42 100.78 149.76 100.07 150.11 100.07 150.46 98.88 150.81 101.49 151.16 101.49 151.51 99.59 151.86 98.65 152.21 96.75 152.56 99.59 152.91 99.59 153.26 102.91 153.61 106.94 153.95 106.94 154.3 105.04 154.65 111.68 155 110.26 155.35 109.31 155.7 111.68 156.05 110.02 156.4 112.15 156.75 113.1 157.1 112.63 157.45 109.07 157.79 110.02 158.14 110.97 158.49 112.15 158.84 112.63 159.19 112.87 159.54 116.18 159.89 114.76 160.24 114.76 160.59 113.58 160.94 112.63 161.29 111.21 161.64 112.39 161.98 112.87 162.33 111.92 162.68 110.97 163.03 112.39 163.38 114.52 163.73 112.87 164.08 113.58 164.43 114.05 164.78 115.24 165.13 116.18 165.48 117.61 165.83 116.42 166.17 117.84 166.52 119.26 166.87 122.35 167.22 122.82 167.57 125.43 167.92 124.95 168.27 124 168.62 122.11 168.97 122.11 169.32 121.87 169.67 119.98 170.01 120.92 170.36 121.4 170.71 119.98 171.06 122.11 171.41 122.11 171.76 122.35 172.11 124.95 172.46 126.61 172.81 126.37 173.16 125.66 173.51 126.61 173.86 125.9 174.2 124 174.55 121.4 174.9 121.4 175.25 120.69 175.6 119.5 175.95 118.55 176.3 116.89 176.65 115.71 177 114.76 177.35 116.18 177.7 117.37 178.04 117.13 178.39 114.05 178.74 113.81 179.09 113.81 179.44 113.1 179.79 113.58 180.14 116.18 180.49 116.42 180.84 115 181.19 114.52 181.54 113.58 181.89 116.42 182.23 117.84 182.58 116.89 182.93 118.55 183.28 118.55 183.63 119.74 183.98 116.66 184.33 118.08 184.68 116.66 185.03 117.13 185.38 115.95 185.73 114.76 186.08 115.24 186.42 114.52 186.77 110.97 187.12 110.5 187.47 112.63 187.82 112.87 188.17 112.39 188.52 114.52 188.87 116.42 189.22 116.42 189.57 118.32 189.92 118.79 190.26 118.32 190.61 115.95 190.96 119.03 191.31 119.26 191.66 119.03 192.01 120.21 192.36 119.26 192.71 119.98 193.06 119.5 193.41 119.5 193.76 119.03 194.11 117.61 194.45 118.55 194.8 120.45 195.15 121.4 195.5 122.35 195.85 121.63 196.2 122.11"/>
      </g>
      <g stroke-width="0.3" fill="#000000" fill-opacity="0.000" class="geometry" stroke-dasharray="none" stroke="#F46D43" id="img-e5ba6d20-17">
        <path fill="none" d="M21.98,71.86 L 22.33 74.23 22.68 72.81 23.03 74.23 23.38 74.94 23.73 73.29 24.08 73.52 24.42 74.47 24.77 74.71 25.12 75.18 25.47 77.08 25.82 76.13 26.17 76.6 26.52 82.29 26.87 84.19 27.22 82.77 27.57 79.92 27.92 74.71 28.27 78.26 28.61 79.45 28.96 81.11 29.31 84.66 29.66 86.79 30.01 83.95 30.36 84.42 30.71 82.29 31.06 77.55 31.41 77.79 31.76 82.29 32.11 81.82 32.45 79.45 32.8 82.05 33.15 83.95 33.5 82.53 33.85 81.58 34.2 81.58 34.55 84.19 34.9 73.52 35.25 72.57 35.6 70.68 35.95 69.49 36.3 68.31 36.64 70.44 36.99 73.29 37.34 76.13 37.69 76.37 38.04 75.42 38.39 74.94 38.74 72.34 39.09 67.6 39.44 66.65 39.79 65.7 40.14 63.81 40.49 59.78 40.83 55.51 41.18 53.38 41.53 53.85 41.88 52.19 42.23 54.56 42.58 54.09 42.93 51.72 43.28 56.93 43.63 56.22 43.98 57.41 44.33 57.41 44.67 61.67 45.02 60.96 45.37 58.12 45.72 63.09 46.07 63.09 46.42 57.88 46.77 59.06 47.12 58.83 47.47 60.25 47.82 58.83 48.17 59.06 48.52 58.35 48.86 60.49 49.21 61.44 49.56 60.49 49.91 62.15 50.26 60.96 50.61 58.59 50.96 61.2 51.31 61.67 51.66 60.96 52.01 63.81 52.36 67.83 52.7 66.65 53.05 63.09 53.4 63.09 53.75 59.78 54.1 58.12 54.45 56.22 54.8 55.27 55.15 54.09 55.5 57.64 55.85 55.98 56.2 59.06 56.55 59.54 56.89 61.91 57.24 59.78 57.59 61.67 57.94 67.12 58.29 69.49 58.64 68.55 58.99 63.33 59.34 63.57 59.69 66.65 60.04 74 60.39 74.23 60.73 73.52 61.08 73.29 61.43 69.26 61.78 65.7 62.13 66.89 62.48 67.83 62.83 65.23 63.18 64.04 63.53 62.86 63.88 65.94 64.23 62.86 64.58 63.57 64.92 61.44 65.27 65.7 65.62 63.57 65.97 63.81 66.32 60.25 66.67 59.78 67.02 60.01 67.37 61.67 67.72 60.96 68.07 62.62 68.42 65.23 68.77 63.57 69.11 64.75 69.46 66.41 69.81 66.41 70.16 67.6 70.51 66.41 70.86 66.41 71.21 69.26 71.56 71.39 71.91 72.81 72.26 75.18 72.61 75.66 72.95 74.47 73.3 71.39 73.65 74.23 74 70.44 74.35 68.55 74.7 66.89 75.05 68.78 75.4 64.28 75.75 70.68 76.1 72.81 76.45 69.97 76.8 66.65 77.14 68.31 77.49 67.6 77.84 64.52 78.19 61.2 78.54 64.99 78.89 65.23 79.24 68.07 79.59 62.38 79.94 65.7 80.29 57.41 80.64 59.06 80.98 58.59 81.33 60.25 81.68 59.54 82.03 64.52 82.38 68.78 82.73 70.2 83.08 67.36 83.43 71.86 83.78 69.26 84.13 69.26 84.48 68.31 84.83 63.09 85.17 64.52 85.52 64.52 85.87 65.23 86.22 65.7 86.57 66.41 86.92 68.55 87.27 68.55 87.62 69.26 87.97 68.07 88.32 67.36 88.67 62.86 89.02 62.15 89.36 60.49 89.71 59.54 90.06 58.59 90.41 58.83 90.76 54.8 91.11 57.64 91.46 61.67 91.81 62.38 92.16 63.57 92.51 66.41 92.86 63.09 93.2 64.99 93.55 63.09 93.9 64.75 94.25 65.7 94.6 64.28 94.95 62.86 95.3 64.75 95.65 65.7 96 64.28 96.35 66.18 96.7 72.34 97.05 73.29 97.39 71.15 97.74 73.29 98.09 75.89 98.44 72.1 98.79 72.34 99.14 71.86 99.49 71.15 99.84 67.6 100.19 63.57 100.54 61.67 100.89 61.44 101.23 59.78 101.58 56.46 101.93 55.75 102.28 54.8 102.63 57.17 102.98 56.93 103.33 54.56 103.68 56.46 104.03 57.64 104.38 59.54 104.73 58.35 105.08 58.59 105.42 59.3 105.77 56.46 106.12 51.48 106.47 55.04 106.82 54.09 107.17 59.3 107.52 60.01 107.87 59.54 108.22 56.69 108.57 55.04 108.92 55.27 109.26 53.85 109.61 55.98 109.96 56.69 110.31 57.88 110.66 60.49 111.01 59.54 111.36 58.12 111.71 57.88 112.06 60.49 112.41 57.41 112.76 57.41 113.11 58.12 113.45 60.01 113.8 61.44 114.15 66.65 114.5 64.99 114.85 67.12 115.2 68.31 115.55 64.28 115.9 61.67 116.25 64.99 116.6 69.26 116.95 74.47 117.3 71.63 117.64 71.15 117.99 71.39 118.34 74.47 118.69 75.66 119.04 73.52 119.39 73.76 119.74 67.12 120.09 67.6 120.44 70.68 120.79 69.02 121.14 72.1 121.48 75.42 121.83 78.03 122.18 72.57 122.53 70.44 122.88 71.63 123.23 76.13 123.58 71.63 123.93 69.73 124.28 68.07 124.63 69.02 124.98 69.49 125.33 68.78 125.67 72.57 126.02 68.07 126.37 64.75 126.72 62.86 127.07 63.57 127.42 65.23 127.77 64.04 128.12 61.91 128.47 64.52 128.82 63.81 129.17 68.78 129.51 67.6 129.86 64.75 130.21 65.94 130.56 64.99 130.91 62.86 131.26 63.57 131.61 62.62 131.96 58.12 132.31 56.69 132.66 55.98 133.01 53.85 133.36 50.53 133.7 52.43 134.05 50.77 134.4 52.43 134.75 55.27 135.1 55.51 135.45 55.27 135.8 53.14 136.15 52.19 136.5 50.3 136.85 47.69 137.2 48.87 137.55 48.4 137.89 47.93 138.24 47.21 138.59 49.82 138.94 51.72 139.29 56.22 139.64 54.09 139.99 54.8 140.34 56.22 140.69 58.12 141.04 59.06 141.39 60.25 141.73 51.48 142.08 52.43 142.43 60.01 142.78 60.01 143.13 63.57 143.48 54.09 143.83 52.67 144.18 55.04 144.53 54.09 144.88 53.61 145.23 56.46 145.58 56.22 145.92 57.41 146.27 56.93 146.62 61.67 146.97 61.91 147.32 61.67 147.67 61.67 148.02 62.62 148.37 61.44 148.72 60.72 149.07 59.78 149.42 60.49 149.76 57.41 150.11 55.75 150.46 56.22 150.81 58.83 151.16 55.27 151.51 53.61 151.86 53.14 152.21 51.72 152.56 48.64 152.91 48.64 153.26 47.93 153.61 50.3 153.95 47.21 154.3 49.35 154.65 52.67 155 55.51 155.35 54.09 155.7 54.09 156.05 56.22 156.4 53.61 156.75 58.35 157.1 59.06 157.45 60.01 157.79 60.72 158.14 61.2 158.49 63.09 158.84 62.38 159.19 63.81 159.54 62.62 159.89 61.44 160.24 68.55 160.59 66.65 160.94 69.49 161.29 69.97 161.64 67.6 161.98 69.02 162.33 67.12 162.68 67.83 163.03 68.55 163.38 68.31 163.73 71.39 164.08 69.26 164.43 66.65 164.78 74.23 165.13 70.92 165.48 74 165.83 76.13 166.17 74.23 166.52 71.39 166.87 71.63 167.22 69.26 167.57 73.29 167.92 70.92 168.27 70.92 168.62 72.81 168.97 74.71 169.32 74.71 169.67 75.66 170.01 79.45 170.36 81.82 170.71 83.95 171.06 86.08 171.41 86.32 171.76 89.4 172.11 84.42 172.46 77.08 172.81 76.84 173.16 75.66 173.51 77.79 173.86 79.45 174.2 77.55 174.55 75.42 174.9 77.55 175.25 81.58 175.6 82.05 175.95 82.53 176.3 80.63 176.65 85.14 177 85.14 177.35 81.34 177.7 87.03 178.04 83.24 178.39 84.66 178.74 83 179.09 80.87 179.44 82.05 179.79 84.42 180.14 86.32 180.49 87.74 180.84 87.98 181.19 87.98 181.54 85.61 181.89 83.48 182.23 83.24 182.58 84.66 182.93 87.03 183.28 89.4 183.63 86.79 183.98 85.61 184.33 84.42 184.68 83.71 185.03 83 185.38 81.58 185.73 78.26 186.08 79.45 186.42 76.6 186.77 78.5 187.12 73.05 187.47 74.47 187.82 73.05 188.17 71.39 188.52 71.39 188.87 71.86 189.22 75.42 189.57 74.71 189.92 79.45 190.26 80.63 190.61 79.21 190.96 81.11 191.31 78.97 191.66 84.9 192.01 83.24 192.36 87.51 192.71 90.82 193.06 92.72 193.41 90.11 193.76 91.06 194.11 92.01 194.45 93.67 194.8 91.06 195.15 88.93 195.5 87.74 195.85 87.98 196.2 84.66"/>
      </g>
      <g stroke-width="0.3" fill="#000000" fill-opacity="0.000" class="geometry" stroke-dasharray="none" stroke="#D53E4F" id="img-e5ba6d20-18">
        <path fill="none" d="M21.98,71.86 L 22.33 69.97 22.68 69.97 23.03 67.83 23.38 61.91 23.73 60.01 24.08 62.15 24.42 62.62 24.77 69.02 25.12 64.52 25.47 66.18 25.82 71.63 26.17 67.83 26.52 66.18 26.87 66.89 27.22 67.83 27.57 70.92 27.92 67.6 28.27 67.83 28.61 62.38 28.96 58.83 29.31 61.91 29.66 60.25 30.01 59.78 30.36 59.3 30.71 56.46 31.06 59.78 31.41 62.62 31.76 61.91 32.11 59.78 32.45 59.78 32.8 57.17 33.15 58.35 33.5 60.72 33.85 56.22 34.2 57.17 34.55 54.8 34.9 57.41 35.25 57.41 35.6 53.14 35.95 55.27 36.3 59.3 36.64 59.78 36.99 57.17 37.34 56.69 37.69 56.46 38.04 58.12 38.39 62.86 38.74 63.57 39.09 62.15 39.44 63.81 39.79 62.62 40.14 63.81 40.49 64.99 40.83 59.3 41.18 57.88 41.53 57.64 41.88 56.22 42.23 56.22 42.58 57.41 42.93 60.49 43.28 59.06 43.63 58.35 43.98 62.15 44.33 61.2 44.67 60.96 45.02 57.64 45.37 58.35 45.72 58.12 46.07 60.49 46.42 57.41 46.77 53.14 47.12 53.85 47.47 51.48 47.82 50.77 48.17 49.58 48.52 45.32 48.86 41.29 49.21 40.34 49.56 39.16 49.91 37.02 50.26 35.13 50.61 33.71 50.96 33.94 51.31 36.31 51.66 35.36 52.01 32.99 52.36 30.15 52.7 24.22 53.05 23.04 53.4 23.99 53.75 23.75 54.1 22.33 54.45 20.67 54.8 19.01 55.15 18.3 55.5 19.48 55.85 17.83 56.2 18.54 56.55 20.67 56.89 20.43 57.24 20.2 57.59 21.62 57.94 21.85 58.29 23.99 58.64 22.33 58.99 19.96 59.34 21.62 59.69 22.8 60.04 23.04 60.39 24.7 60.73 24.7 61.08 25.65 61.43 22.33 61.78 21.14 62.13 20.43 62.48 20.43 62.83 20.67 63.18 21.85 63.53 21.38 63.88 19.96 64.23 20.2 64.58 19.25 64.92 19.25 65.27 18.54 65.62 18.54 65.97 19.48 66.32 20.2 66.67 17.11 67.02 17.35 67.37 17.35 67.72 15.69 68.07 16.4 68.42 15.93 68.77 16.4 69.11 16.64 69.46 16.4 69.81 15.69 70.16 15.22 70.51 16.17 70.86 16.88 71.21 16.4 71.56 15.69 71.91 15.69 72.26 15.69 72.61 16.4 72.95 16.64 73.3 16.17 73.65 15.46 74 15.22 74.35 14.51 74.7 15.22 75.05 15.22 75.4 15.46 75.75 15.93 76.1 15.69 76.45 15.69 76.8 15.93 77.14 16.17 77.49 16.88 77.84 18.77 78.19 19.48 78.54 19.48 78.89 17.11 79.24 17.35 79.59 17.83 79.94 17.11 80.29 19.48 80.64 18.77 80.98 19.01 81.33 19.01 81.68 19.72 82.03 20.43 82.38 20.2 82.73 18.3 83.08 20.2 83.43 19.72 83.78 20.2 84.13 21.14 84.48 20.67 84.83 21.62 85.17 22.8 85.52 20.43 85.87 19.96 86.22 20.43 86.57 21.14 86.92 19.01 87.27 16.88 87.62 17.11 87.97 18.3 88.32 18.3 88.67 18.77 89.02 18.54 89.36 19.96 89.71 20.91 90.06 20.2 90.41 20.2 90.76 21.38 91.11 20.43 91.46 20.91 91.81 20.91 92.16 21.38 92.51 22.09 92.86 23.51 93.2 20.2 93.55 19.01 93.9 17.59 94.25 17.59 94.6 18.06 94.95 18.3 95.3 19.48 95.65 19.72 96 18.54 96.35 16.64 96.7 18.06 97.05 19.72 97.39 18.77 97.74 20.91 98.09 20.43 98.44 21.62 98.79 20.67 99.14 21.62 99.49 23.04 99.84 24.22 100.19 22.8 100.54 24.7 100.89 25.65 101.23 24.7 101.58 24.22 101.93 24.22 102.28 24.94 102.63 23.75 102.98 23.51 103.33 23.51 103.68 25.65 104.03 25.65 104.38 23.51 104.73 22.33 105.08 22.09 105.42 23.51 105.77 22.33 106.12 21.14 106.47 22.33 106.82 23.75 107.17 26.6 107.52 25.41 107.87 25.88 108.22 24.22 108.57 22.09 108.92 23.28 109.26 24.46 109.61 24.46 109.96 23.51 110.31 23.75 110.66 26.83 111.01 28.02 111.36 28.49 111.71 28.97 112.06 28.25 112.41 26.83 112.76 26.36 113.11 26.36 113.45 27.54 113.8 31.1 114.15 30.62 114.5 29.91 114.85 32.28 115.2 35.13 115.55 36.55 115.9 36.08 116.25 37.97 116.6 37.5 116.95 36.31 117.3 37.5 117.64 39.16 117.99 41.76 118.34 38.45 118.69 41.05 119.04 43.66 119.39 49.35 119.74 45.79 120.09 45.08 120.44 43.9 120.79 46.5 121.14 47.21 121.48 43.9 121.83 47.21 122.18 44.61 122.53 49.58 122.88 50.77 123.23 48.64 123.58 50.53 123.93 49.82 124.28 50.53 124.63 50.06 124.98 46.74 125.33 48.16 125.67 44.37 126.02 41.76 126.37 39.16 126.72 42.24 127.07 44.37 127.42 43.42 127.77 45.32 128.12 44.61 128.47 46.03 128.82 46.5 129.17 45.32 129.51 50.3 129.86 54.09 130.21 55.04 130.56 53.38 130.91 48.87 131.26 51.95 131.61 55.51 131.96 57.64 132.31 58.59 132.66 56.22 133.01 53.85 133.36 54.8 133.7 55.75 134.05 59.3 134.4 60.01 134.75 58.83 135.1 60.25 135.45 60.96 135.8 63.09 136.15 60.96 136.5 56.46 136.85 58.35 137.2 57.17 137.55 58.83 137.89 61.67 138.24 62.38 138.59 60.01 138.94 63.81 139.29 63.09 139.64 67.6 139.99 68.78 140.34 72.81 140.69 74.23 141.04 77.08 141.39 79.92 141.73 78.74 142.08 75.89 142.43 74.71 142.78 77.79 143.13 78.97 143.48 83.71 143.83 84.42 144.18 83.71 144.53 83.48 144.88 80.4 145.23 74.94 145.58 75.42 145.92 73.76 146.27 73.29 146.62 74.94 146.97 75.89 147.32 76.6 147.67 72.34 148.02 73.29 148.37 76.6 148.72 77.79 149.07 77.55 149.42 80.4 149.76 82.77 150.11 78.97 150.46 81.58 150.81 80.4 151.16 79.92 151.51 76.13 151.86 78.5 152.21 78.5 152.56 76.6 152.91 76.37 153.26 77.55 153.61 73.52 153.95 77.55 154.3 75.66 154.65 72.81 155 69.02 155.35 65.7 155.7 63.57 156.05 65.7 156.4 63.81 156.75 63.09 157.1 61.2 157.45 59.54 157.79 61.91 158.14 59.54 158.49 60.25 158.84 63.33 159.19 63.57 159.54 64.04 159.89 65.46 160.24 61.91 160.59 61.91 160.94 63.33 161.29 58.83 161.64 60.49 161.98 63.33 162.33 64.75 162.68 64.99 163.03 62.15 163.38 65.46 163.73 60.96 164.08 63.09 164.43 60.96 164.78 63.81 165.13 61.44 165.48 64.28 165.83 66.41 166.17 71.15 166.52 73.52 166.87 72.1 167.22 71.15 167.57 71.39 167.92 71.63 168.27 70.68 168.62 75.18 168.97 73.05 169.32 71.63 169.67 70.44 170.01 69.26 170.36 70.2 170.71 69.26 171.06 66.65 171.41 69.73 171.76 70.44 172.11 63.81 172.46 62.38 172.81 64.04 173.16 59.3 173.51 60.25 173.86 58.83 174.2 59.06 174.55 58.59 174.9 58.35 175.25 57.41 175.6 58.59 175.95 56.22 176.3 55.04 176.65 54.8 177 53.85 177.35 50.3 177.7 47.69 178.04 46.5 178.39 43.66 178.74 44.13 179.09 45.32 179.44 47.69 179.79 48.64 180.14 48.87 180.49 49.35 180.84 46.5 181.19 47.45 181.54 48.64 181.89 49.82 182.23 50.53 182.58 55.51 182.93 53.14 183.28 54.32 183.63 59.54 183.98 62.62 184.33 64.99 184.68 66.89 185.03 66.18 185.38 72.34 185.73 71.63 186.08 66.89 186.42 64.52 186.77 61.91 187.12 62.62 187.47 63.57 187.82 62.86 188.17 61.2 188.52 62.62 188.87 60.25 189.22 60.49 189.57 66.65 189.92 60.72 190.26 56.69 190.61 57.64 190.96 54.8 191.31 53.85 191.66 50.06 192.01 49.82 192.36 47.69 192.71 46.98 193.06 47.21 193.41 45.79 193.76 47.69 194.11 49.58 194.45 49.82 194.8 47.69 195.15 46.98 195.5 44.84 195.85 48.64 196.2 46.03"/>
      </g>
      <g stroke-width="0.3" fill="#000000" fill-opacity="0.000" class="geometry" stroke-dasharray="none" stroke="#9E0142" id="img-e5ba6d20-19">
        <path fill="none" d="M21.98,71.86 L 22.33 70.44 22.68 71.39 23.03 72.57 23.38 68.55 23.73 71.63 24.08 68.07 24.42 70.2 24.77 69.26 25.12 67.12 25.47 68.55 25.82 65.7 26.17 64.28 26.52 65.7 26.87 63.57 27.22 62.38 27.57 62.62 27.92 63.57 28.27 60.01 28.61 60.01 28.96 57.41 29.31 53.61 29.66 56.93 30.01 58.35 30.36 60.49 30.71 59.06 31.06 58.83 31.41 57.88 31.76 60.01 32.11 63.81 32.45 67.36 32.8 65.46 33.15 67.36 33.5 70.44 33.85 72.1 34.2 77.08 34.55 77.79 34.9 78.74 35.25 80.87 35.6 82.29 35.95 87.27 36.3 84.42 36.64 83.95 36.99 86.32 37.34 90.82 37.69 87.03 38.04 88.22 38.39 90.11 38.74 93.43 39.09 87.98 39.44 91.77 39.79 92.72 40.14 95.33 40.49 93.9 40.83 91.77 41.18 91.3 41.53 96.04 41.88 94.62 42.23 95.8 42.58 97.22 42.93 96.75 43.28 100.07 43.63 99.12 43.98 96.51 44.33 94.62 44.67 94.14 45.02 96.04 45.37 97.93 45.72 97.22 46.07 96.75 46.42 95.8 46.77 97.46 47.12 102.67 47.47 102.67 47.82 101.02 48.17 103.15 48.52 101.49 48.86 101.96 49.21 105.52 49.56 106.47 49.91 109.07 50.26 110.02 50.61 106.47 50.96 100.54 51.31 103.62 51.66 102.44 52.01 105.76 52.36 107.18 52.7 107.18 53.05 106.94 53.4 106.94 53.75 106.47 54.1 105.52 54.45 104.1 54.8 103.86 55.15 104.33 55.5 101.73 55.85 99.12 56.2 102.67 56.55 100.3 56.89 103.62 57.24 105.04 57.59 102.67 57.94 102.44 58.29 101.73 58.64 103.39 58.99 101.49 59.34 101.02 59.69 102.67 60.04 101.25 60.39 97.22 60.73 93.67 61.08 92.25 61.43 95.33 61.78 92.01 62.13 92.01 62.48 92.96 62.83 88.93 63.18 90.11 63.53 91.53 63.88 93.19 64.23 96.99 64.58 97.93 64.92 98.65 65.27 93.9 65.62 92.72 65.97 96.04 66.32 93.19 66.67 93.9 67.02 91.53 67.37 90.82 67.72 88.93 68.07 91.06 68.42 85.14 68.77 84.19 69.11 86.79 69.46 86.08 69.81 91.06 70.16 90.11 70.51 91.06 70.86 87.51 71.21 89.4 71.56 91.06 71.91 91.06 72.26 93.9 72.61 92.96 72.95 89.16 73.3 92.25 73.65 91.3 74 91.06 74.35 93.43 74.7 96.28 75.05 97.22 75.4 97.7 75.75 99.83 76.1 101.25 76.45 97.46 76.8 92.72 77.14 92.96 77.49 94.85 77.84 94.85 78.19 92.48 78.54 96.51 78.89 97.7 79.24 97.93 79.59 96.75 79.94 97.93 80.29 94.14 80.64 95.33 80.98 94.38 81.33 95.09 81.68 91.53 82.03 92.01 82.38 90.11 82.73 91.77 83.08 92.96 83.43 91.06 83.78 92.25 84.13 94.85 84.48 92.48 84.83 92.25 85.17 95.56 85.52 100.54 85.87 100.3 86.22 100.54 86.57 97.7 86.92 100.07 87.27 96.28 87.62 99.59 87.97 102.67 88.32 101.49 88.67 102.67 89.02 101.25 89.36 98.17 89.71 96.99 90.06 97.7 90.41 97.46 90.76 95.33 91.11 97.46 91.46 97.93 91.81 100.78 92.16 104.33 92.51 108.36 92.86 108.13 93.2 104.57 93.55 103.39 93.9 104.33 94.25 102.2 94.6 103.15 94.95 100.78 95.3 99.36 95.65 99.59 96 100.07 96.35 105.04 96.7 106.47 97.05 104.57 97.39 104.57 97.74 104.57 98.09 103.86 98.44 102.91 98.79 100.3 99.14 103.39 99.49 102.91 99.84 100.54 100.19 97.93 100.54 93.67 100.89 91.3 101.23 96.28 101.58 95.09 101.93 92.48 102.28 94.38 102.63 96.28 102.98 97.22 103.33 96.51 103.68 94.38 104.03 97.46 104.38 94.85 104.73 97.93 105.08 97.7 105.42 100.07 105.77 101.96 106.12 103.39 106.47 98.41 106.82 102.67 107.17 102.91 107.52 101.96 107.87 100.78 108.22 102.67 108.57 101.49 108.92 101.25 109.26 102.44 109.61 102.2 109.96 102.91 110.31 100.3 110.66 98.88 111.01 101.49 111.36 102.91 111.71 101.25 112.06 105.28 112.41 104.81 112.76 102.44 113.11 103.39 113.45 101.73 113.8 103.86 114.15 104.33 114.5 103.39 114.85 99.59 115.2 97.22 115.55 96.28 115.9 97.22 116.25 96.51 116.6 98.65 116.95 95.8 117.3 91.06 117.64 91.77 117.99 90.82 118.34 92.01 118.69 92.72 119.04 92.01 119.39 93.43 119.74 90.82 120.09 91.3 120.44 89.64 120.79 91.06 121.14 95.56 121.48 96.28 121.83 94.38 122.18 95.33 122.53 93.43 122.88 94.14 123.23 95.33 123.58 92.96 123.93 92.01 124.28 89.4 124.63 91.3 124.98 92.48 125.33 89.64 125.67 90.35 126.02 93.19 126.37 97.22 126.72 96.51 127.07 97.46 127.42 96.51 127.77 98.41 128.12 101.02 128.47 103.39 128.82 110.5 129.17 106.23 129.51 104.57 129.86 107.41 130.21 102.44 130.56 101.73 130.91 102.2 131.26 104.33 131.61 106.47 131.96 107.65 132.31 105.99 132.66 105.04 133.01 106.23 133.36 104.33 133.7 105.76 134.05 107.89 134.4 109.78 134.75 109.78 135.1 106.94 135.45 105.04 135.8 103.15 136.15 101.96 136.5 97.93 136.85 97.22 137.2 97.7 137.55 102.91 137.89 101.49 138.24 100.78 138.59 99.83 138.94 105.04 139.29 103.62 139.64 102.91 139.99 103.62 140.34 105.52 140.69 105.52 141.04 103.62 141.39 105.28 141.73 104.57 142.08 105.76 142.43 105.76 142.78 101.02 143.13 100.78 143.48 102.91 143.83 98.88 144.18 98.88 144.53 102.44 144.88 100.3 145.23 103.39 145.58 108.36 145.92 107.89 146.27 111.68 146.62 111.21 146.97 114.76 147.32 114.05 147.67 110.5 148.02 111.44 148.37 109.07 148.72 109.07 149.07 107.89 149.42 108.13 149.76 107.18 150.11 105.99 150.46 106.47 150.81 106.94 151.16 105.04 151.51 106.7 151.86 108.84 152.21 107.89 152.56 104.57 152.91 105.76 153.26 105.99 153.61 105.52 153.95 107.65 154.3 105.99 154.65 109.07 155 110.97 155.35 109.78 155.7 111.44 156.05 115 156.4 116.42 156.75 115.95 157.1 113.58 157.45 115 157.79 115.71 158.14 113.81 158.49 113.1 158.84 113.34 159.19 113.1 159.54 111.21 159.89 111.21 160.24 110.73 160.59 112.39 160.94 110.97 161.29 109.55 161.64 105.28 161.98 105.28 162.33 106.94 162.68 107.41 163.03 109.78 163.38 106.47 163.73 104.33 164.08 105.28 164.43 109.55 164.78 109.78 165.13 110.97 165.48 113.1 165.83 115.24 166.17 114.52 166.52 114.52 166.87 117.61 167.22 117.84 167.57 115.71 167.92 114.52 168.27 115.47 168.62 119.03 168.97 120.21 169.32 121.16 169.67 120.69 170.01 119.26 170.36 119.74 170.71 121.87 171.06 121.63 171.41 121.87 171.76 122.11 172.11 122.82 172.46 122.35 172.81 121.63 173.16 123.53 173.51 122.58 173.86 123.53 174.2 123.53 174.55 123.29 174.9 122.58 175.25 122.11 175.6 121.63 175.95 122.82 176.3 121.4 176.65 123.06 177 120.45 177.35 120.69 177.7 120.21 178.04 119.26 178.39 117.61 178.74 116.66 179.09 119.03 179.44 117.37 179.79 118.08 180.14 122.35 180.49 122.11 180.84 120.92 181.19 121.16 181.54 122.35 181.89 124.48 182.23 123.77 182.58 124.72 182.93 122.11 183.28 120.69 183.63 116.89 183.98 117.13 184.33 116.89 184.68 118.79 185.03 120.45 185.38 123.06 185.73 124 186.08 125.66 186.42 124.48 186.77 125.43 187.12 123.53 187.47 123.77 187.82 124.95 188.17 124.48 188.52 123.77 188.87 124.95 189.22 122.11 189.57 124.72 189.92 123.77 190.26 122.82 190.61 123.06 190.96 124.48 191.31 124 191.66 124 192.01 124.72 192.36 124.48 192.71 122.82 193.06 123.29 193.41 122.35 193.76 121.87 194.11 119.5 194.45 119.5 194.8 119.98 195.15 119.74 195.5 120.69 195.85 119.03 196.2 120.21"/>
      </g>
    </g>
  </g>
</g>
  <g class="guide ylabels" font-size="2.82" font-family="'PT Sans Caption','Helvetica Neue','Helvetica',sans-serif" fill="#000000" id="img-e5ba6d20-20">
    <text x="18.63" y="131.11" text-anchor="end" dy="0.35em">0</text>
    <text x="18.63" y="107.41" text-anchor="end" dy="0.35em">100</text>
    <text x="18.63" y="83.71" text-anchor="end" dy="0.35em">200</text>
    <text x="18.63" y="60.01" text-anchor="end" dy="0.35em">300</text>
    <text x="18.63" y="36.31" text-anchor="end" dy="0.35em">400</text>
    <text x="18.63" y="12.61" text-anchor="end" dy="0.35em">500</text>
  </g>
  <g font-size="3.88" font-family="'PT Sans','Helvetica Neue','Helvetica',sans-serif" fill="#000000" stroke="#000000" stroke-opacity="0.000" id="img-e5ba6d20-21">
    <text x="8.81" y="69.86" text-anchor="middle" dy="0.35em" transform="rotate(-90, 8.81, 71.86)">population number</text>
  </g>
  <g font-size="3.88" font-family="'PT Sans','Helvetica Neue','Helvetica',sans-serif" fill="#000000" stroke="#000000" stroke-opacity="0.000" id="img-e5ba6d20-22">
    <text x="108.92" y="5" text-anchor="middle" dy="0.6em">genetic drift</text>
  </g>
</g>
<defs>
  <clipPath id="img-e5ba6d20-4">
  <path d="M19.63,10.61 L 198.2 10.61 198.2 133.11 19.63 133.11" />
</clipPath>
</defs>
</svg>
