<?xml version="1.0" encoding="UTF-8"?>
<svg xmlns="http://www.w3.org/2000/svg"
     xmlns:xlink="http://www.w3.org/1999/xlink"
     xmlns:gadfly="http://www.gadflyjl.org/ns"
     version="1.2"
     width="203.2mm" height="152.4mm" viewBox="0 0 203.2 152.4"
     stroke="none"
     fill="#000000"
     stroke-width="0.3"
     font-size="3.88"
>
<g class="plotroot xscalable yscalable" id="img-5d9c60cc-1">
  <g font-size="3.88" font-family="'PT Sans','Helvetica Neue','Helvetica',sans-serif" fill="#000000" stroke="#000000" stroke-opacity="0.000" id="img-5d9c60cc-2">
    <text x="108.92" y="140.79" text-anchor="middle" dy="0.6em">generation number</text>
  </g>
  <g class="guide xlabels" font-size="2.82" font-family="'PT Sans Caption','Helvetica Neue','Helvetica',sans-serif" fill="#000000" id="img-5d9c60cc-3">
    <text x="21.63" y="134.11" text-anchor="middle" dy="0.6em">0</text>
    <text x="56.55" y="134.11" text-anchor="middle" dy="0.6em">100</text>
    <text x="91.46" y="134.11" text-anchor="middle" dy="0.6em">200</text>
    <text x="126.37" y="134.11" text-anchor="middle" dy="0.6em">300</text>
    <text x="161.29" y="134.11" text-anchor="middle" dy="0.6em">400</text>
    <text x="196.2" y="134.11" text-anchor="middle" dy="0.6em">500</text>
  </g>
<g clip-path="url(#img-5d9c60cc-4)">
  <g id="img-5d9c60cc-5">
    <g pointer-events="visible" opacity="1" fill="#FFFFFF" stroke="#000000" stroke-opacity="0.000" class="guide background" id="img-5d9c60cc-6">
      <rect x="19.63" y="10.61" width="178.57" height="122.5"/>
    </g>
    <g class="guide ygridlines xfixed" stroke-dasharray="0.5,0.5" stroke-width="0.2" stroke="#808080" id="img-5d9c60cc-7">
      <path fill="none" d="M19.63,131.11 L 198.2 131.11"/>
      <path fill="none" d="M19.63,71.86 L 198.2 71.86"/>
      <path fill="none" d="M19.63,12.61 L 198.2 12.61"/>
    </g>
    <g class="guide xgridlines yfixed" stroke-dasharray="0.5,0.5" stroke-width="0.2" stroke="#808080" id="img-5d9c60cc-8">
      <path fill="none" d="M21.63,10.61 L 21.63 133.11"/>
      <path fill="none" d="M56.55,10.61 L 56.55 133.11"/>
      <path fill="none" d="M91.46,10.61 L 91.46 133.11"/>
      <path fill="none" d="M126.37,10.61 L 126.37 133.11"/>
      <path fill="none" d="M161.29,10.61 L 161.29 133.11"/>
      <path fill="none" d="M196.2,10.61 L 196.2 133.11"/>
    </g>
    <g class="plotpanel" id="img-5d9c60cc-9">
      <g stroke-width="0.3" fill="#000000" fill-opacity="0.000" class="geometry" stroke-dasharray="none" stroke="#3288BD" id="img-5d9c60cc-10">
        <path fill="none" d="M21.98,71.86 L 22.33 74.23 22.68 84.9 23.03 89.64 23.38 89.64 23.73 94.38 24.08 100.3 24.42 103.86 24.77 103.86 25.12 106.23 25.47 105.04 25.82 102.67 26.17 101.49 26.52 100.3 26.87 108.6 27.22 101.49 27.57 107.41 27.92 114.52 28.27 116.89 28.61 113.34 28.96 110.97 29.31 109.78 29.66 118.08 30.01 113.34 30.36 115.71 30.71 124 31.06 128.74 31.41 128.74 31.76 127.56 32.11 125.19 32.45 127.56 32.8 131.11"/>
      </g>
      <g stroke-width="0.3" fill="#000000" fill-opacity="0.000" class="geometry" stroke-dasharray="none" stroke="#66C2A5" id="img-5d9c60cc-11">
        <path fill="none" d="M21.98,71.86 L 22.33 83.71 22.68 80.16 23.03 81.34 23.38 87.27 23.73 81.34 24.08 83.71 24.42 78.97 24.77 81.34 25.12 70.68 25.47 70.68 25.82 75.42 26.17 81.34 26.52 83.71 26.87 83.71 27.22 82.53 27.57 89.64 27.92 94.38 28.27 93.19 28.61 82.53 28.96 82.53 29.31 82.53 29.66 73.05 30.01 67.12 30.36 68.31 30.71 68.31 31.06 62.38 31.41 67.12 31.76 69.49 32.11 61.2 32.45 57.64 32.8 58.83 33.15 61.2 33.5 60.01 33.85 55.27 34.2 45.79 34.55 45.79 34.9 43.42 35.25 39.87 35.6 28.02 35.95 24.46 36.3 23.28 36.64 29.2 36.99 33.94 37.34 36.31 37.69 42.24 38.04 42.24 38.39 36.31 38.74 41.05 39.09 45.79 39.44 60.01 39.79 52.9 40.14 45.79 40.49 54.09 40.83 57.64 41.18 61.2 41.53 71.86 41.88 68.31 42.23 60.01 42.58 55.27 42.93 51.72 43.28 55.27 43.63 55.27 43.98 63.57 44.33 58.83 44.67 58.83 45.02 52.9 45.37 52.9 45.72 48.16 46.07 62.38 46.42 52.9 46.77 42.24 47.12 49.35 47.47 48.16 47.82 44.61 48.17 42.24 48.52 61.2 48.86 56.46 49.21 58.83 49.56 63.57 49.91 61.2 50.26 60.01 50.61 58.83 50.96 55.27 51.31 55.27 51.66 54.09 52.01 55.27 52.36 61.2 52.7 55.27 53.05 57.64 53.4 62.38 53.75 63.57 54.1 70.68 54.45 68.31 54.8 70.68 55.15 63.57 55.5 63.57 55.85 65.94 56.2 62.38 56.55 58.83 56.89 62.38 57.24 61.2 57.59 60.01 57.94 62.38 58.29 65.94 58.64 65.94 58.99 77.79 59.34 83.71 59.69 86.08 60.04 88.45 60.39 86.08 60.73 82.53 61.08 88.45 61.43 86.08 61.78 88.45 62.13 95.56 62.48 90.82 62.83 95.56 63.18 96.75 63.53 108.6 63.88 115.71 64.23 121.63 64.58 121.63 64.92 124 65.27 128.74 65.62 128.74 65.97 127.56 66.32 127.56 66.67 125.19 67.02 126.37 67.37 126.37 67.72 126.37 68.07 126.37 68.42 126.37 68.77 127.56 69.11 127.56 69.46 129.93 69.81 128.74 70.16 126.37 70.51 127.56 70.86 128.74 71.21 127.56 71.56 129.93 71.91 127.56 72.26 128.74 72.61 129.93 72.95 125.19 73.3 126.37 73.65 121.63 74 118.08 74.35 125.19 74.7 124 75.05 121.63 75.4 118.08 75.75 121.63 76.1 118.08 76.45 112.15 76.8 114.52 77.14 109.78 77.49 109.78 77.84 113.34 78.19 113.34 78.54 109.78 78.89 103.86 79.24 102.67 79.59 101.49 79.94 115.71 80.29 113.34 80.64 115.71 80.98 115.71 81.33 118.08 81.68 113.34 82.03 110.97 82.38 113.34 82.73 109.78 83.08 107.41 83.43 101.49 83.78 101.49 84.13 99.12 84.48 100.3 84.83 103.86 85.17 96.75 85.52 99.12 85.87 100.3 86.22 100.3 86.57 110.97 86.92 113.34 87.27 119.26 87.62 118.08 87.97 119.26 88.32 118.08 88.67 109.78 89.02 106.23 89.36 106.23 89.71 107.41 90.06 110.97 90.41 107.41 90.76 101.49 91.11 93.19 91.46 94.38 91.81 97.93 92.16 96.75 92.51 92.01 92.86 87.27 93.2 84.9 93.55 96.75 93.9 106.23 94.25 114.52 94.6 110.97 94.95 110.97 95.3 112.15 95.65 118.08 96 119.26 96.35 116.89 96.7 116.89 97.05 113.34 97.39 114.52 97.74 112.15 98.09 113.34 98.44 113.34 98.79 116.89 99.14 116.89 99.49 120.45 99.84 115.71 100.19 118.08 100.54 119.26 100.89 121.63 101.23 116.89 101.58 113.34 101.93 116.89 102.28 116.89 102.63 113.34 102.98 105.04 103.33 106.23 103.68 108.6 104.03 109.78 104.38 100.3 104.73 110.97 105.08 109.78 105.42 110.97 105.77 105.04 106.12 107.41 106.47 107.41 106.82 101.49 107.17 97.93 107.52 95.56 107.87 94.38 108.22 99.12 108.57 97.93 108.92 103.86 109.26 96.75 109.61 100.3 109.96 92.01 110.31 95.56 110.66 90.82 111.01 76.6 111.36 70.68 111.71 61.2 112.06 52.9 112.41 50.53 112.76 52.9 113.11 56.46 113.45 58.83 113.8 73.05 114.15 71.86 114.5 70.68 114.85 73.05 115.2 83.71 115.55 82.53 115.9 83.71 116.25 82.53 116.6 78.97 116.95 76.6 117.3 82.53 117.64 80.16 117.99 83.71 118.34 71.86 118.69 76.6 119.04 82.53 119.39 78.97 119.74 80.16 120.09 82.53 120.44 71.86 120.79 74.23 121.14 69.49 121.48 73.05 121.83 67.12 122.18 71.86 122.53 64.75 122.88 61.2 123.23 54.09 123.58 50.53 123.93 44.61 124.28 50.53 124.63 49.35 124.98 50.53 125.33 57.64 125.67 51.72 126.02 56.46 126.37 55.27 126.72 58.83 127.07 61.2 127.42 62.38 127.77 55.27 128.12 56.46 128.47 55.27 128.82 64.75 129.17 73.05 129.51 81.34 129.86 83.71 130.21 73.05 130.56 77.79 130.91 71.86 131.26 70.68 131.61 71.86 131.96 78.97 132.31 73.05 132.66 71.86 133.01 84.9 133.36 86.08 133.7 89.64 134.05 92.01 134.4 90.82 134.75 90.82 135.1 88.45 135.45 83.71 135.8 77.79 136.15 89.64 136.5 95.56 136.85 90.82 137.2 96.75 137.55 90.82 137.89 101.49 138.24 102.67 138.59 96.75 138.94 97.93 139.29 95.56 139.64 100.3 139.99 105.04 140.34 114.52 140.69 114.52 141.04 115.71 141.39 119.26 141.73 118.08 142.08 105.04 142.43 110.97 142.78 110.97 143.13 109.78 143.48 109.78 143.83 107.41 144.18 110.97 144.53 112.15 144.88 107.41 145.23 107.41 145.58 109.78 145.92 100.3 146.27 101.49 146.62 95.56 146.97 100.3 147.32 103.86 147.67 100.3 148.02 95.56 148.37 103.86 148.72 105.04 149.07 99.12 149.42 105.04 149.76 102.67 150.11 107.41 150.46 110.97 150.81 112.15 151.16 115.71 151.51 116.89 151.86 118.08 152.21 116.89 152.56 115.71 152.91 119.26 153.26 119.26 153.61 119.26 153.95 120.45 154.3 120.45 154.65 119.26 155 115.71 155.35 120.45 155.7 124 156.05 125.19 156.4 122.82 156.75 125.19 157.1 121.63 157.45 118.08 157.79 116.89 158.14 114.52 158.49 110.97 158.84 101.49 159.19 99.12 159.54 103.86 159.89 110.97 160.24 113.34 160.59 120.45 160.94 120.45 161.29 122.82 161.64 125.19 161.98 128.74 162.33 128.74 162.68 128.74 163.03 128.74 163.38 129.93 163.73 129.93 164.08 129.93 164.43 129.93 164.78 129.93 165.13 129.93 165.48 131.11"/>
      </g>
      <g stroke-width="0.3" fill="#000000" fill-opacity="0.000" class="geometry" stroke-dasharray="none" stroke="#ABDDA4" id="img-5d9c60cc-12">
        <path fill="none" d="M21.98,71.86 L 22.33 78.97 22.68 88.45 23.03 83.71 23.38 84.9 23.73 87.27 24.08 88.45 24.42 84.9 24.77 87.27 25.12 95.56 25.47 99.12 25.82 101.49 26.17 100.3 26.52 96.75 26.87 103.86 27.22 102.67 27.57 100.3 27.92 105.04 28.27 96.75 28.61 106.23 28.96 100.3 29.31 95.56 29.66 99.12 30.01 100.3 30.36 102.67 30.71 108.6 31.06 110.97 31.41 114.52 31.76 108.6 32.11 116.89 32.45 119.26 32.8 119.26 33.15 122.82 33.5 114.52 33.85 120.45 34.2 113.34 34.55 112.15 34.9 110.97 35.25 109.78 35.6 103.86 35.95 106.23 36.3 112.15 36.64 114.52 36.99 114.52 37.34 116.89 37.69 114.52 38.04 119.26 38.39 115.71 38.74 120.45 39.09 122.82 39.44 118.08 39.79 122.82 40.14 125.19 40.49 126.37 40.83 119.26 41.18 116.89 41.53 112.15 41.88 114.52 42.23 113.34 42.58 110.97 42.93 113.34 43.28 113.34 43.63 116.89 43.98 116.89 44.33 124 44.67 124 45.02 122.82 45.37 121.63 45.72 115.71 46.07 119.26 46.42 116.89 46.77 115.71 47.12 118.08 47.47 106.23 47.82 96.75 48.17 100.3 48.52 102.67 48.86 95.56 49.21 95.56 49.56 95.56 49.91 99.12 50.26 94.38 50.61 93.19 50.96 106.23 51.31 101.49 51.66 105.04 52.01 106.23 52.36 100.3 52.7 94.38 53.05 95.56 53.4 96.75 53.75 93.19 54.1 93.19 54.45 99.12 54.8 97.93 55.15 101.49 55.5 105.04 55.85 110.97 56.2 110.97 56.55 113.34 56.89 116.89 57.24 119.26 57.59 122.82 57.94 121.63 58.29 121.63 58.64 126.37 58.99 126.37 59.34 127.56 59.69 129.93 60.04 131.11"/>
      </g>
      <g stroke-width="0.3" fill="#000000" fill-opacity="0.000" class="geometry" stroke-dasharray="none" stroke="#E6F598" id="img-5d9c60cc-13">
        <path fill="none" d="M21.98,71.86 L 22.33 70.68 22.68 73.05 23.03 68.31 23.38 68.31 23.73 64.75 24.08 62.38 24.42 60.01 24.77 56.46 25.12 56.46 25.47 51.72 25.82 55.27 26.17 51.72 26.52 60.01 26.87 73.05 27.22 83.71 27.57 75.42 27.92 84.9 28.27 80.16 28.61 86.08 28.96 92.01 29.31 89.64 29.66 88.45 30.01 88.45 30.36 90.82 30.71 89.64 31.06 86.08 31.41 86.08 31.76 94.38 32.11 93.19 32.45 96.75 32.8 105.04 33.15 105.04 33.5 112.15 33.85 105.04 34.2 109.78 34.55 112.15 34.9 113.34 35.25 112.15 35.6 115.71 35.95 114.52 36.3 120.45 36.64 121.63 36.99 125.19 37.34 124 37.69 127.56 38.04 125.19 38.39 124 38.74 124 39.09 121.63 39.44 124 39.79 125.19 40.14 127.56 40.49 126.37 40.83 125.19 41.18 121.63 41.53 116.89 41.88 108.6 42.23 109.78 42.58 109.78 42.93 107.41 43.28 112.15 43.63 116.89 43.98 110.97 44.33 114.52 44.67 120.45 45.02 125.19 45.37 127.56 45.72 124 46.07 120.45 46.42 113.34 46.77 110.97 47.12 106.23 47.47 110.97 47.82 118.08 48.17 118.08 48.52 115.71 48.86 114.52 49.21 109.78 49.56 114.52 49.91 114.52 50.26 116.89 50.61 124 50.96 124 51.31 124 51.66 127.56 52.01 126.37 52.36 124 52.7 122.82 53.05 128.74 53.4 128.74 53.75 127.56 54.1 125.19 54.45 120.45 54.8 122.82 55.15 126.37 55.5 128.74 55.85 128.74 56.2 129.93 56.55 129.93 56.89 131.11"/>
      </g>
      <g stroke-width="0.3" fill="#000000" fill-opacity="0.000" class="geometry" stroke-dasharray="none" stroke="#FFFFBF" id="img-5d9c60cc-14">
        <path fill="none" d="M21.98,71.86 L 22.33 76.6 22.68 65.94 23.03 58.83 23.38 58.83 23.73 67.12 24.08 70.68 24.42 55.27 24.77 56.46 25.12 58.83 25.47 62.38 25.82 62.38 26.17 67.12 26.52 78.97 26.87 75.42 27.22 78.97 27.57 75.42 27.92 78.97 28.27 75.42 28.61 70.68 28.96 73.05 29.31 76.6 29.66 81.34 30.01 80.16 30.36 77.79 30.71 80.16 31.06 82.53 31.41 77.79 31.76 69.49 32.11 62.38 32.45 64.75 32.8 62.38 33.15 60.01 33.5 56.46 33.85 55.27 34.2 51.72 34.55 52.9 34.9 55.27 35.25 43.42 35.6 51.72 35.95 55.27 36.3 60.01 36.64 61.2 36.99 62.38 37.34 52.9 37.69 44.61 38.04 42.24 38.39 44.61 38.74 39.87 39.09 35.13 39.44 28.02 39.79 25.65 40.14 30.39 40.49 26.83 40.83 26.83 41.18 24.46 41.53 22.09 41.88 19.72 42.23 19.72 42.58 19.72 42.93 13.8 43.28 12.61"/>
      </g>
      <g stroke-width="0.3" fill="#000000" fill-opacity="0.000" class="geometry" stroke-dasharray="none" stroke="#FEE08B" id="img-5d9c60cc-15">
        <path fill="none" d="M21.98,71.86 L 22.33 64.75 22.68 74.23 23.03 76.6 23.38 80.16 23.73 81.34 24.08 74.23 24.42 69.49 24.77 77.79 25.12 74.23 25.47 77.79 25.82 77.79 26.17 76.6 26.52 86.08 26.87 89.64 27.22 93.19 27.57 94.38 27.92 92.01 28.27 94.38 28.61 86.08 28.96 86.08 29.31 89.64 29.66 90.82 30.01 92.01 30.36 86.08 30.71 88.45 31.06 95.56 31.41 94.38 31.76 102.67 32.11 96.75 32.45 96.75 32.8 96.75 33.15 93.19 33.5 94.38 33.85 89.64 34.2 86.08 34.55 77.79 34.9 82.53 35.25 78.97 35.6 75.42 35.95 77.79 36.3 80.16 36.64 87.27 36.99 87.27 37.34 90.82 37.69 90.82 38.04 89.64 38.39 83.71 38.74 89.64 39.09 95.56 39.44 95.56 39.79 96.75 40.14 90.82 40.49 81.34 40.83 78.97 41.18 74.23 41.53 71.86 41.88 82.53 42.23 73.05 42.58 76.6 42.93 80.16 43.28 80.16 43.63 83.71 43.98 80.16 44.33 76.6 44.67 83.71 45.02 83.71 45.37 95.56 45.72 87.27 46.07 92.01 46.42 88.45 46.77 87.27 47.12 86.08 47.47 80.16 47.82 80.16 48.17 76.6 48.52 70.68 48.86 70.68 49.21 65.94 49.56 57.64 49.91 57.64 50.26 58.83 50.61 68.31 50.96 70.68 51.31 74.23 51.66 74.23 52.01 73.05 52.36 74.23 52.7 70.68 53.05 77.79 53.4 80.16 53.75 86.08 54.1 90.82 54.45 100.3 54.8 103.86 55.15 101.49 55.5 113.34 55.85 112.15 56.2 115.71 56.55 109.78 56.89 109.78 57.24 103.86 57.59 101.49 57.94 103.86 58.29 107.41 58.64 99.12 58.99 90.82 59.34 100.3 59.69 94.38 60.04 95.56 60.39 90.82 60.73 86.08 61.08 88.45 61.43 86.08 61.78 82.53 62.13 76.6 62.48 80.16 62.83 75.42 63.18 74.23 63.53 78.97 63.88 80.16 64.23 69.49 64.58 77.79 64.92 84.9 65.27 84.9 65.62 90.82 65.97 96.75 66.32 89.64 66.67 93.19 67.02 90.82 67.37 86.08 67.72 90.82 68.07 94.38 68.42 95.56 68.77 100.3 69.11 100.3 69.46 90.82 69.81 87.27 70.16 80.16 70.51 75.42 70.86 70.68 71.21 77.79 71.56 78.97 71.91 74.23 72.26 71.86 72.61 63.57 72.95 61.2 73.3 56.46 73.65 65.94 74 69.49 74.35 74.23 74.7 67.12 75.05 65.94 75.4 73.05 75.75 73.05 76.1 74.23 76.45 75.42 76.8 80.16 77.14 81.34 77.49 87.27 77.84 94.38 78.19 90.82 78.54 100.3 78.89 110.97 79.24 110.97 79.59 108.6 79.94 106.23 80.29 105.04 80.64 103.86 80.98 108.6 81.33 106.23 81.68 112.15 82.03 114.52 82.38 113.34 82.73 114.52 83.08 112.15 83.43 109.78 83.78 108.6 84.13 109.78 84.48 109.78 84.83 108.6 85.17 112.15 85.52 116.89 85.87 113.34 86.22 118.08 86.57 113.34 86.92 107.41 87.27 107.41 87.62 109.78 87.97 112.15 88.32 113.34 88.67 115.71 89.02 114.52 89.36 115.71 89.71 120.45 90.06 122.82 90.41 122.82 90.76 127.56 91.11 126.37 91.46 128.74 91.81 129.93 92.16 131.11"/>
      </g>
      <g stroke-width="0.3" fill="#000000" fill-opacity="0.000" class="geometry" stroke-dasharray="none" stroke="#FDAE61" id="img-5d9c60cc-16">
        <path fill="none" d="M21.98,71.86 L 22.33 64.75 22.68 65.94 23.03 63.57 23.38 55.27 23.73 48.16 24.08 43.42 24.42 38.68 24.77 43.42 25.12 42.24 25.47 35.13 25.82 38.68 26.17 35.13 26.52 28.02 26.87 33.94 27.22 25.65 27.57 24.46 27.92 19.72 28.27 16.17 28.61 16.17 28.96 13.8 29.31 12.61"/>
      </g>
      <g stroke-width="0.3" fill="#000000" fill-opacity="0.000" class="geometry" stroke-dasharray="none" stroke="#F46D43" id="img-5d9c60cc-17">
        <path fill="none" d="M21.98,71.86 L 22.33 73.05 22.68 65.94 23.03 64.75 23.38 67.12 23.73 56.46 24.08 51.72 24.42 55.27 24.77 51.72 25.12 51.72 25.47 45.79 25.82 44.61 26.17 48.16 26.52 60.01 26.87 62.38 27.22 67.12 27.57 64.75 27.92 63.57 28.27 67.12 28.61 73.05 28.96 69.49 29.31 63.57 29.66 60.01 30.01 57.64 30.36 65.94 30.71 69.49 31.06 71.86 31.41 70.68 31.76 71.86 32.11 81.34 32.45 76.6 32.8 81.34 33.15 74.23 33.5 70.68 33.85 52.9 34.2 48.16 34.55 48.16 34.9 48.16 35.25 51.72 35.6 50.53 35.95 51.72 36.3 50.53 36.64 50.53 36.99 55.27 37.34 58.83 37.69 54.09 38.04 63.57 38.39 60.01 38.74 57.64 39.09 55.27 39.44 60.01 39.79 57.64 40.14 62.38 40.49 54.09 40.83 56.46 41.18 55.27 41.53 49.35 41.88 50.53 42.23 50.53 42.58 37.5 42.93 43.42 43.28 44.61 43.63 48.16 43.98 51.72 44.33 63.57 44.67 57.64 45.02 73.05 45.37 63.57 45.72 64.75 46.07 65.94 46.42 69.49 46.77 65.94 47.12 68.31 47.47 70.68 47.82 67.12 48.17 57.64 48.52 57.64 48.86 61.2 49.21 45.79 49.56 46.98 49.91 46.98 50.26 32.76 50.61 30.39 50.96 37.5 51.31 43.42 51.66 41.05 52.01 38.68 52.36 29.2 52.7 26.83 53.05 23.28 53.4 29.2 53.75 35.13 54.1 35.13 54.45 32.76 54.8 30.39 55.15 29.2 55.5 35.13 55.85 36.31 56.2 37.5 56.55 42.24 56.89 42.24 57.24 32.76 57.59 36.31 57.94 23.28 58.29 23.28 58.64 28.02 58.99 28.02 59.34 30.39 59.69 33.94 60.04 30.39 60.39 26.83 60.73 25.65 61.08 29.2 61.43 36.31 61.78 35.13 62.13 31.57 62.48 24.46 62.83 25.65 63.18 22.09 63.53 18.54 63.88 14.98 64.23 14.98 64.58 12.61"/>
      </g>
      <g stroke-width="0.3" fill="#000000" fill-opacity="0.000" class="geometry" stroke-dasharray="none" stroke="#D53E4F" id="img-5d9c60cc-18">
        <path fill="none" d="M21.98,71.86 L 22.33 70.68 22.68 69.49 23.03 67.12 23.38 63.57 23.73 70.68 24.08 73.05 24.42 76.6 24.77 75.42 25.12 68.31 25.47 76.6 25.82 69.49 26.17 73.05 26.52 56.46 26.87 54.09 27.22 62.38 27.57 62.38 27.92 57.64 28.27 54.09 28.61 62.38 28.96 60.01 29.31 51.72 29.66 56.46 30.01 42.24 30.36 43.42 30.71 51.72 31.06 45.79 31.41 50.53 31.76 41.05 32.11 32.76 32.45 37.5 32.8 36.31 33.15 44.61 33.5 57.64 33.85 60.01 34.2 50.53 34.55 48.16 34.9 56.46 35.25 58.83 35.6 69.49 35.95 76.6 36.3 88.45 36.64 86.08 36.99 84.9 37.34 76.6 37.69 80.16 38.04 81.34 38.39 71.86 38.74 52.9 39.09 49.35 39.44 45.79 39.79 45.79 40.14 42.24 40.49 42.24 40.83 33.94 41.18 36.31 41.53 29.2 41.88 26.83 42.23 23.28 42.58 25.65 42.93 19.72 43.28 14.98 43.63 14.98 43.98 19.72 44.33 20.91 44.67 23.28 45.02 26.83 45.37 28.02 45.72 29.2 46.07 25.65 46.42 26.83 46.77 22.09 47.12 25.65 47.47 24.46 47.82 24.46 48.17 30.39 48.52 28.02 48.86 33.94 49.21 25.65 49.56 29.2 49.91 32.76 50.26 30.39 50.61 29.2 50.96 26.83 51.31 29.2 51.66 25.65 52.01 31.57 52.36 30.39 52.7 23.28 53.05 24.46 53.4 26.83 53.75 23.28 54.1 23.28 54.45 30.39 54.8 31.57 55.15 36.31 55.5 30.39 55.85 25.65 56.2 19.72 56.55 16.17 56.89 16.17 57.24 16.17 57.59 14.98 57.94 12.61"/>
      </g>
      <g stroke-width="0.3" fill="#000000" fill-opacity="0.000" class="geometry" stroke-dasharray="none" stroke="#9E0142" id="img-5d9c60cc-19">
        <path fill="none" d="M21.98,71.86 L 22.33 80.16 22.68 81.34 23.03 77.79 23.38 65.94 23.73 57.64 24.08 62.38 24.42 61.2 24.77 56.46 25.12 50.53 25.47 55.27 25.82 46.98 26.17 44.61 26.52 49.35 26.87 50.53 27.22 52.9 27.57 42.24 27.92 37.5 28.27 32.76 28.61 30.39 28.96 28.02 29.31 31.57 29.66 25.65 30.01 23.28 30.36 22.09 30.71 22.09 31.06 20.91 31.41 16.17 31.76 16.17 32.11 16.17 32.45 12.61"/>
      </g>
    </g>
  </g>
</g>
  <g class="guide ylabels" font-size="2.82" font-family="'PT Sans Caption','Helvetica Neue','Helvetica',sans-serif" fill="#000000" id="img-5d9c60cc-20">
    <text x="18.63" y="131.11" text-anchor="end" dy="0.35em">0</text>
    <text x="18.63" y="71.86" text-anchor="end" dy="0.35em">50</text>
    <text x="18.63" y="12.61" text-anchor="end" dy="0.35em">100</text>
  </g>
  <g font-size="3.88" font-family="'PT Sans','Helvetica Neue','Helvetica',sans-serif" fill="#000000" stroke="#000000" stroke-opacity="0.000" id="img-5d9c60cc-21">
    <text x="8.81" y="69.86" text-anchor="middle" dy="0.35em" transform="rotate(-90, 8.81, 71.86)">population number</text>
  </g>
  <g font-size="3.88" font-family="'PT Sans','Helvetica Neue','Helvetica',sans-serif" fill="#000000" stroke="#000000" stroke-opacity="0.000" id="img-5d9c60cc-22">
    <text x="108.92" y="5" text-anchor="middle" dy="0.6em">genetic drift</text>
  </g>
</g>
<defs>
  <clipPath id="img-5d9c60cc-4">
  <path d="M19.63,10.61 L 198.2 10.61 198.2 133.11 19.63 133.11" />
</clipPath>
</defs>
</svg>
