<?xml version="1.0" encoding="UTF-8"?>
<svg xmlns="http://www.w3.org/2000/svg"
     xmlns:xlink="http://www.w3.org/1999/xlink"
     xmlns:gadfly="http://www.gadflyjl.org/ns"
     version="1.2"
     width="203.2mm" height="152.4mm" viewBox="0 0 203.2 152.4"
     stroke="none"
     fill="#000000"
     stroke-width="0.3"
     font-size="3.88"
>
<g class="plotroot xscalable yscalable" id="img-e8772d8c-1">
  <g font-size="3.88" font-family="'PT Sans','Helvetica Neue','Helvetica',sans-serif" fill="#000000" stroke="#000000" stroke-opacity="0.000" id="img-e8772d8c-2">
    <text x="108.92" y="140.79" text-anchor="middle" dy="0.6em">generation number</text>
  </g>
  <g class="guide xlabels" font-size="2.82" font-family="'PT Sans Caption','Helvetica Neue','Helvetica',sans-serif" fill="#000000" id="img-e8772d8c-3">
    <text x="21.63" y="134.11" text-anchor="middle" dy="0.6em">0</text>
    <text x="56.55" y="134.11" text-anchor="middle" dy="0.6em">100</text>
    <text x="91.46" y="134.11" text-anchor="middle" dy="0.6em">200</text>
    <text x="126.37" y="134.11" text-anchor="middle" dy="0.6em">300</text>
    <text x="161.29" y="134.11" text-anchor="middle" dy="0.6em">400</text>
    <text x="196.2" y="134.11" text-anchor="middle" dy="0.6em">500</text>
  </g>
<g clip-path="url(#img-e8772d8c-4)">
  <g id="img-e8772d8c-5">
    <g pointer-events="visible" opacity="1" fill="#FFFFFF" stroke="#000000" stroke-opacity="0.000" class="guide background" id="img-e8772d8c-6">
      <rect x="19.63" y="10.61" width="178.57" height="122.5"/>
    </g>
    <g class="guide ygridlines xfixed" stroke-dasharray="0.5,0.5" stroke-width="0.2" stroke="#808080" id="img-e8772d8c-7">
      <path fill="none" d="M19.63,131.11 L 198.2 131.11"/>
      <path fill="none" d="M19.63,101.49 L 198.2 101.49"/>
      <path fill="none" d="M19.63,71.86 L 198.2 71.86"/>
      <path fill="none" d="M19.63,42.24 L 198.2 42.24"/>
      <path fill="none" d="M19.63,12.61 L 198.2 12.61"/>
    </g>
    <g class="guide xgridlines yfixed" stroke-dasharray="0.5,0.5" stroke-width="0.2" stroke="#808080" id="img-e8772d8c-8">
      <path fill="none" d="M21.63,10.61 L 21.63 133.11"/>
      <path fill="none" d="M56.55,10.61 L 56.55 133.11"/>
      <path fill="none" d="M91.46,10.61 L 91.46 133.11"/>
      <path fill="none" d="M126.37,10.61 L 126.37 133.11"/>
      <path fill="none" d="M161.29,10.61 L 161.29 133.11"/>
      <path fill="none" d="M196.2,10.61 L 196.2 133.11"/>
    </g>
    <g class="plotpanel" id="img-e8772d8c-9">
      <g stroke-width="0.3" fill="#000000" fill-opacity="0.000" class="geometry" stroke-dasharray="none" stroke="#3288BD" id="img-e8772d8c-10">
        <path fill="none" d="M21.98,71.86 L 22.33 65.94 22.68 68.9 23.03 67.72 23.38 71.86 23.73 73.64 24.08 74.83 24.42 63.57 24.77 61.79 25.12 60.01 25.47 60.61 25.82 64.16 26.17 60.61 26.52 53.5 26.87 58.24 27.22 58.24 27.57 54.09 27.92 57.64 28.27 59.42 28.61 54.68 28.96 52.9 29.31 52.31 29.66 50.53 30.01 48.76 30.36 39.87 30.71 46.98 31.06 51.72 31.41 49.35 31.76 44.02 32.11 42.83 32.45 36.9 32.8 32.76 33.15 30.98 33.5 30.39 33.85 31.57 34.2 27.42 34.55 27.42 34.9 26.83 35.25 24.46 35.6 20.31 35.95 20.31 36.3 22.09 36.64 20.91 36.99 19.72 37.34 17.94 37.69 17.94 38.04 17.35 38.39 16.76 38.74 17.35 39.09 17.94 39.44 17.35 39.79 16.17 40.14 16.76 40.49 19.72 40.83 16.76 41.18 14.98 41.53 14.98 41.88 14.39 42.23 15.57 42.58 14.39 42.93 14.39 43.28 14.98 43.63 13.8 43.98 13.8 44.33 13.2 44.67 13.2 45.02 13.2 45.37 13.2 45.72 13.2 46.07 12.61"/>
      </g>
      <g stroke-width="0.3" fill="#000000" fill-opacity="0.000" class="geometry" stroke-dasharray="none" stroke="#66C2A5" id="img-e8772d8c-11">
        <path fill="none" d="M21.98,71.86 L 22.33 68.31 22.68 73.05 23.03 75.42 23.38 74.23 23.73 71.86 24.08 73.64 24.42 77.79 24.77 83.12 25.12 87.86 25.47 85.49 25.82 86.08 26.17 95.56 26.52 97.34 26.87 101.49 27.22 99.71 27.57 96.16 27.92 99.71 28.27 97.34 28.61 90.23 28.96 97.34 29.31 94.38 29.66 98.53 30.01 100.9 30.36 101.49 30.71 101.49 31.06 99.71 31.41 102.67 31.76 104.45 32.11 103.27 32.45 106.82 32.8 110.38 33.15 112.15 33.5 116.3 33.85 119.26 34.2 119.26 34.55 124 34.9 126.97 35.25 127.56 35.6 128.74 35.95 126.97 36.3 125.78 36.64 125.78 36.99 121.63 37.34 122.23 37.69 124 38.04 125.78 38.39 128.15 38.74 128.15 39.09 128.15 39.44 128.74 39.79 126.97 40.14 125.19 40.49 123.41 40.83 124.6 41.18 124 41.53 121.63 41.88 118.67 42.23 113.93 42.58 112.15 42.93 115.71 43.28 118.08 43.63 118.08 43.98 119.86 44.33 123.41 44.67 124.6 45.02 121.63 45.37 121.63 45.72 122.82 46.07 122.23 46.42 124 46.77 124 47.12 118.67 47.47 117.49 47.82 118.08 48.17 116.89 48.52 115.12 48.86 115.12 49.21 113.93 49.56 113.93 49.91 112.75 50.26 110.38 50.61 106.82 50.96 109.19 51.31 108.6 51.66 109.19 52.01 110.97 52.36 112.15 52.7 115.71 53.05 119.86 53.4 115.71 53.75 118.08 54.1 119.86 54.45 120.45 54.8 119.26 55.15 120.45 55.5 124 55.85 125.19 56.2 128.15 56.55 125.19 56.89 125.78 57.24 127.56 57.59 127.56 57.94 126.97 58.29 125.19 58.64 124 58.99 122.82 59.34 123.41 59.69 122.23 60.04 120.45 60.39 119.86 60.73 119.86 61.08 118.08 61.43 121.63 61.78 121.63 62.13 126.37 62.48 127.56 62.83 126.97 63.18 128.15 63.53 127.56 63.88 128.74 64.23 129.34 64.58 129.34 64.92 128.74 65.27 127.56 65.62 125.78 65.97 123.41 66.32 124 66.67 123.41 67.02 124.6 67.37 122.82 67.72 123.41 68.07 124 68.42 124 68.77 123.41 69.11 116.89 69.46 118.67 69.81 122.23 70.16 121.63 70.51 124 70.86 125.78 71.21 126.97 71.56 126.97 71.91 124.6 72.26 124 72.61 122.23 72.95 119.86 73.3 115.71 73.65 118.67 74 116.3 74.35 118.08 74.7 115.71 75.05 114.52 75.4 115.12 75.75 112.75 76.1 111.56 76.45 112.15 76.8 111.56 77.14 113.93 77.49 111.56 77.84 106.82 78.19 109.19 78.54 110.97 78.89 113.34 79.24 116.3 79.59 120.45 79.94 118.08 80.29 121.63 80.64 122.82 80.98 126.97 81.33 128.74 81.68 128.15 82.03 128.15 82.38 128.74 82.73 131.11"/>
      </g>
      <g stroke-width="0.3" fill="#000000" fill-opacity="0.000" class="geometry" stroke-dasharray="none" stroke="#ABDDA4" id="img-e8772d8c-12">
        <path fill="none" d="M21.98,71.86 L 22.33 71.86 22.68 71.27 23.03 77.79 23.38 76.6 23.73 71.86 24.08 77.2 24.42 77.2 24.77 85.49 25.12 92.6 25.47 86.08 25.82 90.23 26.17 93.19 26.52 92.01 26.87 99.12 27.22 98.53 27.57 92.6 27.92 92.01 28.27 87.86 28.61 87.27 28.96 85.49 29.31 84.9 29.66 90.23 30.01 87.86 30.36 86.08 30.71 84.31 31.06 83.12 31.41 84.31 31.76 79.57 32.11 82.53 32.45 82.53 32.8 77.2 33.15 76.6 33.5 76.01 33.85 76.6 34.2 77.2 34.55 73.05 34.9 77.2 35.25 80.75 35.6 77.79 35.95 76.01 36.3 74.83 36.64 74.23 36.99 79.57 37.34 85.49 37.69 93.79 38.04 92.01 38.39 92.6 38.74 89.05 39.09 90.82 39.44 91.42 39.79 90.82 40.14 92.01 40.49 99.71 40.83 102.67 41.18 103.86 41.53 105.64 41.88 109.19 42.23 106.82 42.58 108.6 42.93 104.45 43.28 109.19 43.63 110.38 43.98 115.12 44.33 114.52 44.67 118.08 45.02 119.86 45.37 119.26 45.72 122.82 46.07 123.41 46.42 121.04 46.77 120.45 47.12 124 47.47 116.89 47.82 117.49 48.17 115.12 48.52 115.71 48.86 116.89 49.21 118.08 49.56 111.56 49.91 112.15 50.26 112.15 50.61 109.19 50.96 110.38 51.31 111.56 51.66 110.38 52.01 110.97 52.36 114.52 52.7 115.71 53.05 119.86 53.4 121.04 53.75 119.86 54.1 123.41 54.45 123.41 54.8 124 55.15 124 55.5 126.37 55.85 125.78 56.2 125.78 56.55 125.78 56.89 124.6 57.24 125.19 57.59 126.37 57.94 129.34 58.29 129.34 58.64 129.93 58.99 130.52 59.34 130.52 59.69 130.52 60.04 131.11"/>
      </g>
      <g stroke-width="0.3" fill="#000000" fill-opacity="0.000" class="geometry" stroke-dasharray="none" stroke="#E6F598" id="img-e8772d8c-13">
        <path fill="none" d="M21.98,71.86 L 22.33 74.83 22.68 78.97 23.03 78.97 23.38 85.49 23.73 89.05 24.08 83.12 24.42 78.38 24.77 80.16 25.12 77.79 25.47 72.46 25.82 79.57 26.17 79.57 26.52 78.38 26.87 81.34 27.22 83.71 27.57 83.71 27.92 81.34 28.27 76.6 28.61 69.49 28.96 65.94 29.31 70.68 29.66 74.23 30.01 78.97 30.36 78.38 30.71 78.97 31.06 76.01 31.41 78.97 31.76 81.94 32.11 85.49 32.45 88.45 32.8 85.49 33.15 81.34 33.5 80.75 33.85 81.94 34.2 85.49 34.55 80.75 34.9 81.94 35.25 92.6 35.6 97.93 35.95 89.64 36.3 86.08 36.64 83.71 36.99 78.38 37.34 72.46 37.69 69.49 38.04 70.09 38.39 73.64 38.74 80.75 39.09 83.12 39.44 84.9 39.79 88.45 40.14 86.08 40.49 81.94 40.83 80.16 41.18 78.97 41.53 71.86 41.88 70.68 42.23 69.49 42.58 62.38 42.93 66.53 43.28 55.27 43.63 54.68 43.98 55.27 44.33 47.57 44.67 44.61 45.02 45.79 45.37 49.35 45.72 52.31 46.07 61.2 46.42 58.24 46.77 60.01 47.12 56.46 47.47 58.83 47.82 56.46 48.17 54.68 48.52 58.24 48.86 58.83 49.21 60.61 49.56 58.83 49.91 62.38 50.26 59.42 50.61 55.87 50.96 55.87 51.31 60.01 51.66 59.42 52.01 61.79 52.36 57.64 52.7 61.2 53.05 61.79 53.4 60.01 53.75 61.79 54.1 56.46 54.45 52.31 54.8 57.05 55.15 57.64 55.5 58.24 55.85 57.64 56.2 61.79 56.55 62.38 56.89 67.72 57.24 68.9 57.59 70.09 57.94 76.01 58.29 78.97 58.64 77.79 58.99 70.68 59.34 68.31 59.69 62.38 60.04 62.38 60.39 57.64 60.73 54.09 61.08 49.94 61.43 55.27 61.78 51.13 62.13 59.42 62.48 61.2 62.83 63.57 63.18 62.38 63.53 65.94 63.88 57.05 64.23 60.61 64.58 61.2 64.92 63.57 65.27 56.46 65.62 61.79 65.97 65.35 66.32 73.64 66.67 67.72 67.02 64.16 67.37 60.61 67.72 58.24 68.07 66.53 68.42 67.72 68.77 72.46 69.11 74.83 69.46 73.64 69.81 71.27 70.16 76.6 70.51 71.86 70.86 67.12 71.21 70.09 71.56 68.31 71.91 67.72 72.26 66.53 72.61 66.53 72.95 70.68 73.3 65.35 73.65 65.94 74 60.01 74.35 64.75 74.7 70.68 75.05 68.9 75.4 60.01 75.75 60.61 76.1 67.12 76.45 61.79 76.8 62.98 77.14 58.83 77.49 59.42 77.84 64.16 78.19 54.68 78.54 54.68 78.89 57.05 79.24 57.05 79.59 63.57 79.94 62.38 80.29 57.64 80.64 50.53 80.98 52.9 81.33 46.39 81.68 46.98 82.03 46.98 82.38 50.53 82.73 45.79 83.08 48.16 83.43 49.35 83.78 38.68 84.13 35.72 84.48 39.87 84.83 38.68 85.17 35.13 85.52 29.2 85.87 29.2 86.22 25.05 86.57 29.79 86.92 29.79 87.27 29.79 87.62 28.02 87.97 26.83 88.32 33.35 88.67 33.94 89.02 39.87 89.36 35.72 89.71 33.94 90.06 28.61 90.41 23.28 90.76 30.98 91.11 29.79 91.46 32.16 91.81 33.35 92.16 30.98 92.51 33.35 92.86 31.57 93.2 34.53 93.55 39.87 93.9 36.9 94.25 39.27 94.6 35.72 94.95 36.31 95.3 41.05 95.65 47.57 96 52.9 96.35 58.83 96.7 59.42 97.05 49.35 97.39 48.76 97.74 51.13 98.09 52.9 98.44 46.98 98.79 46.39 99.14 45.79 99.49 48.76 99.84 49.94 100.19 44.02 100.54 42.24 100.89 41.05 101.23 36.9 101.58 39.87 101.93 37.5 102.28 36.31 102.63 32.76 102.98 31.57 103.33 36.31 103.68 34.53 104.03 37.5 104.38 37.5 104.73 36.31 105.08 30.98 105.42 29.79 105.77 29.2 106.12 30.39 106.47 29.2 106.82 30.98 107.17 36.9 107.52 40.46 107.87 36.31 108.22 32.76 108.57 30.39 108.92 35.13 109.26 36.9 109.61 35.13 109.96 36.9 110.31 36.9 110.66 33.94 111.01 30.98 111.36 29.79 111.71 28.61 112.06 33.94 112.41 42.24 112.76 39.27 113.11 42.24 113.45 39.87 113.8 41.05 114.15 36.31 114.5 41.05 114.85 44.02 115.2 49.35 115.55 55.27 115.9 54.09 116.25 51.13 116.6 57.64 116.95 55.27 117.3 60.01 117.64 62.38 117.99 69.49 118.34 71.27 118.69 73.05 119.04 70.09 119.39 71.86 119.74 69.49 120.09 73.64 120.44 75.42 120.79 76.01 121.14 80.16 121.48 77.2 121.83 76.6 122.18 69.49 122.53 72.46 122.88 70.09 123.23 70.09 123.58 68.9 123.93 66.53 124.28 56.46 124.63 60.01 124.98 63.57 125.33 60.61 125.67 58.24 126.02 60.01 126.37 61.2 126.72 66.53 127.07 70.68 127.42 76.01 127.77 81.94 128.12 80.75 128.47 87.86 128.82 83.71 129.17 84.9 129.51 89.05 129.86 92.6 130.21 92.01 130.56 92.6 130.91 89.05 131.26 92.01 131.61 92.01 131.96 84.9 132.31 82.53 132.66 82.53 133.01 76.6 133.36 78.97 133.7 73.64 134.05 70.68 134.4 61.79 134.75 61.79 135.1 62.38 135.45 60.61 135.8 60.01 136.15 56.46 136.5 61.79 136.85 58.83 137.2 62.98 137.55 67.12 137.89 71.86 138.24 73.64 138.59 68.31 138.94 71.27 139.29 65.94 139.64 68.9 139.99 68.9 140.34 76.6 140.69 74.23 141.04 76.6 141.39 70.09 141.73 69.49 142.08 70.68 142.43 66.53 142.78 61.2 143.13 65.35 143.48 62.98 143.83 61.2 144.18 62.38 144.53 66.53 144.88 62.38 145.23 54.09 145.58 52.31 145.92 55.27 146.27 57.64 146.62 55.27 146.97 55.27 147.32 48.16 147.67 49.35 148.02 49.35 148.37 49.35 148.72 62.38 149.07 60.61 149.42 57.64 149.76 58.24 150.11 59.42 150.46 54.68 150.81 66.53 151.16 71.86 151.51 73.64 151.86 82.53 152.21 81.34 152.56 73.05 152.91 73.64 153.26 83.12 153.61 81.34 153.95 78.97 154.3 78.97 154.65 74.83 155 73.64 155.35 68.31 155.7 65.94 156.05 67.12 156.4 71.27 156.75 68.9 157.1 73.64 157.45 73.64 157.79 70.68 158.14 75.42 158.49 77.2 158.84 76.01 159.19 78.38 159.54 78.38 159.89 73.64 160.24 76.01 160.59 74.23 160.94 73.64 161.29 70.09 161.64 71.27 161.98 70.09 162.33 71.86 162.68 68.9 163.03 61.2 163.38 61.2 163.73 61.2 164.08 63.57 164.43 60.01 164.78 55.87 165.13 55.87 165.48 62.98 165.83 62.38 166.17 65.35 166.52 64.75 166.87 62.38 167.22 63.57 167.57 57.64 167.92 58.24 168.27 54.68 168.62 52.31 168.97 54.68 169.32 61.2 169.67 57.05 170.01 60.61 170.36 58.83 170.71 55.87 171.06 56.46 171.41 54.09 171.76 51.13 172.11 52.31 172.46 52.9 172.81 51.72 173.16 55.27 173.51 49.35 173.86 46.39 174.2 45.2 174.55 44.02 174.9 44.61 175.25 46.98 175.6 38.68 175.95 36.9 176.3 35.13 176.65 36.31 177 30.39 177.35 25.05 177.7 23.28 178.04 23.87 178.39 22.09 178.74 23.28 179.09 19.72 179.44 19.72 179.79 22.68 180.14 22.68 180.49 19.72 180.84 17.94 181.19 15.57 181.54 14.98 181.89 15.57 182.23 16.17 182.58 14.39 182.93 14.98 183.28 14.39 183.63 14.39 183.98 14.39 184.33 13.2 184.68 13.2 185.03 13.2 185.38 12.61"/>
      </g>
      <g stroke-width="0.3" fill="#000000" fill-opacity="0.000" class="geometry" stroke-dasharray="none" stroke="#FFFFBF" id="img-e8772d8c-14">
        <path fill="none" d="M21.98,71.86 L 22.33 74.83 22.68 81.94 23.03 87.27 23.38 81.94 23.73 68.31 24.08 65.35 24.42 67.72 24.77 67.72 25.12 68.9 25.47 67.12 25.82 66.53 26.17 77.79 26.52 83.71 26.87 80.16 27.22 90.23 27.57 93.19 27.92 94.97 28.27 97.93 28.61 97.93 28.96 91.42 29.31 92.6 29.66 90.23 30.01 93.19 30.36 92.6 30.71 92.6 31.06 96.75 31.41 104.45 31.76 102.67 32.11 105.04 32.45 103.27 32.8 104.45 33.15 106.23 33.5 103.86 33.85 108.6 34.2 116.89 34.55 121.63 34.9 125.19 35.25 125.78 35.6 125.78 35.95 124 36.3 125.78 36.64 127.56 36.99 125.78 37.34 126.37 37.69 129.34 38.04 128.74 38.39 127.56 38.74 127.56 39.09 127.56 39.44 127.56 39.79 126.97 40.14 124.6 40.49 124.6 40.83 124 41.18 123.41 41.53 125.78 41.88 124 42.23 123.41 42.58 124.6 42.93 125.19 43.28 126.37 43.63 126.37 43.98 126.97 44.33 124.6 44.67 123.41 45.02 121.63 45.37 124.6 45.72 128.15 46.07 129.34 46.42 129.93 46.77 129.93 47.12 129.93 47.47 128.74 47.82 126.37 48.17 126.97 48.52 126.97 48.86 126.97 49.21 126.37 49.56 126.97 49.91 126.97 50.26 125.19 50.61 125.19 50.96 124 51.31 124.6 51.66 123.41 52.01 118.08 52.36 120.45 52.7 119.86 53.05 121.04 53.4 115.71 53.75 110.38 54.1 108.01 54.45 104.45 54.8 103.86 55.15 108.6 55.5 111.56 55.85 108.01 56.2 106.23 56.55 100.9 56.89 106.23 57.24 107.41 57.59 109.19 57.94 108.01 58.29 109.19 58.64 103.86 58.99 101.49 59.34 107.41 59.69 105.04 60.04 106.82 60.39 102.67 60.73 101.49 61.08 99.71 61.43 101.49 61.78 102.67 62.13 110.97 62.48 106.23 62.83 106.23 63.18 106.23 63.53 99.12 63.88 102.08 64.23 108.01 64.58 107.41 64.92 108.01 65.27 111.56 65.62 112.75 65.97 114.52 66.32 116.3 66.67 111.56 67.02 108.01 67.37 110.38 67.72 109.19 68.07 110.38 68.42 113.34 68.77 115.12 69.11 113.34 69.46 115.12 69.81 113.93 70.16 113.93 70.51 115.71 70.86 113.93 71.21 113.93 71.56 112.15 71.91 118.08 72.26 115.71 72.61 113.34 72.95 109.19 73.3 111.56 73.65 113.93 74 111.56 74.35 110.38 74.7 110.38 75.05 107.41 75.4 110.38 75.75 112.15 76.1 112.15 76.45 108.6 76.8 106.23 77.14 105.64 77.49 100.3 77.84 100.9 78.19 94.97 78.54 103.86 78.89 99.71 79.24 99.71 79.59 98.53 79.94 97.34 80.29 87.86 80.64 83.71 80.98 79.57 81.33 71.86 81.68 72.46 82.03 74.23 82.38 71.27 82.73 76.01 83.08 76.01 83.43 78.38 83.78 78.38 84.13 78.97 84.48 77.2 84.83 78.38 85.17 78.97 85.52 74.83 85.87 74.23 86.22 71.27 86.57 73.05 86.92 65.35 87.27 61.2 87.62 57.05 87.97 58.24 88.32 56.46 88.67 60.61 89.02 57.05 89.36 58.83 89.71 52.31 90.06 52.31 90.41 57.64 90.76 58.24 91.11 52.31 91.46 55.87 91.81 54.68 92.16 53.5 92.51 51.72 92.86 52.31 93.2 57.64 93.55 50.53 93.9 45.2 94.25 47.57 94.6 45.2 94.95 44.61 95.3 47.57 95.65 46.98 96 46.39 96.35 47.57 96.7 46.39 97.05 44.61 97.39 45.79 97.74 49.94 98.09 49.94 98.44 45.2 98.79 46.39 99.14 45.2 99.49 44.61 99.84 38.09 100.19 39.87 100.54 46.98 100.89 45.2 101.23 42.83 101.58 44.61 101.93 37.5 102.28 36.31 102.63 29.79 102.98 30.39 103.33 29.79 103.68 32.16 104.03 31.57 104.38 30.98 104.73 29.2 105.08 30.98 105.42 29.2 105.77 28.02 106.12 30.98 106.47 31.57 106.82 33.94 107.17 32.16 107.52 28.02 107.87 30.98 108.22 28.61 108.57 34.53 108.92 38.68 109.26 39.87 109.61 44.02 109.96 42.24 110.31 42.24 110.66 39.27 111.01 38.68 111.36 33.35 111.71 32.76 112.06 37.5 112.41 35.72 112.76 35.13 113.11 36.31 113.45 41.64 113.8 39.27 114.15 39.27 114.5 42.83 114.85 45.79 115.2 51.72 115.55 50.53 115.9 52.9 116.25 51.72 116.6 51.13 116.95 55.87 117.3 53.5 117.64 51.72 117.99 44.02 118.34 43.42 118.69 43.42 119.04 44.02 119.39 42.83 119.74 45.79 120.09 44.02 120.44 44.02 120.79 37.5 121.14 42.24 121.48 44.61 121.83 41.05 122.18 40.46 122.53 30.39 122.88 31.57 123.23 33.35 123.58 32.16 123.93 30.98 124.28 35.72 124.63 38.09 124.98 39.27 125.33 44.02 125.67 40.46 126.02 42.24 126.37 38.68 126.72 42.24 127.07 36.31 127.42 35.13 127.77 39.27 128.12 42.83 128.47 43.42 128.82 44.61 129.17 45.2 129.51 46.39 129.86 44.61 130.21 48.76 130.56 45.79 130.91 41.05 131.26 39.87 131.61 42.24 131.96 41.64 132.31 35.72 132.66 39.27 133.01 39.87 133.36 41.05 133.7 35.72 134.05 36.31 134.4 38.68 134.75 42.83 135.1 41.64 135.45 40.46 135.8 38.68 136.15 39.87 136.5 42.83 136.85 40.46 137.2 38.68 137.55 38.09 137.89 33.35 138.24 30.39 138.59 29.79 138.94 29.79 139.29 30.98 139.64 34.53 139.99 33.35 140.34 32.16 140.69 35.13 141.04 35.13 141.39 38.09 141.73 39.87 142.08 41.05 142.43 41.64 142.78 51.72 143.13 47.57 143.48 57.05 143.83 48.76 144.18 41.64 144.53 36.31 144.88 36.9 145.23 35.72 145.58 33.94 145.92 34.53 146.27 35.72 146.62 37.5 146.97 36.9 147.32 36.9 147.67 36.31 148.02 34.53 148.37 32.76 148.72 29.2 149.07 32.16 149.42 32.16 149.76 32.16 150.11 33.35 150.46 38.68 150.81 37.5 151.16 42.24 151.51 46.39 151.86 49.94 152.21 51.13 152.56 53.5 152.91 57.64 153.26 53.5 153.61 54.68 153.95 51.13 154.3 43.42 154.65 42.83 155 36.31 155.35 35.72 155.7 40.46 156.05 39.27 156.4 42.24 156.75 42.83 157.1 42.83 157.45 40.46 157.79 35.72 158.14 39.87 158.49 39.87 158.84 41.05 159.19 44.02 159.54 41.05 159.89 36.31 160.24 37.5 160.59 36.9 160.94 37.5 161.29 38.68 161.64 37.5 161.98 39.27 162.33 35.72 162.68 39.87 163.03 36.9 163.38 38.68 163.73 38.68 164.08 35.13 164.43 31.57 164.78 35.13 165.13 31.57 165.48 36.9 165.83 35.72 166.17 45.79 166.52 42.83 166.87 43.42 167.22 44.61 167.57 38.09 167.92 35.72 168.27 33.35 168.62 30.39 168.97 29.79 169.32 28.61 169.67 30.39 170.01 32.76 170.36 31.57 170.71 36.9 171.06 38.09 171.41 42.24 171.76 44.02 172.11 43.42 172.46 46.98 172.81 45.79 173.16 39.87 173.51 36.31 173.86 42.24 174.2 39.87 174.55 39.87 174.9 39.27 175.25 39.87 175.6 34.53 175.95 34.53 176.3 32.76 176.65 33.35 177 36.9 177.35 31.57 177.7 29.2 178.04 30.39 178.39 30.39 178.74 29.79 179.09 26.24 179.44 28.02 179.79 30.39 180.14 28.02 180.49 23.87 180.84 28.02 181.19 25.65 181.54 25.05 181.89 23.28 182.23 20.91 182.58 19.13 182.93 19.13 183.28 21.5 183.63 17.94 183.98 21.5 184.33 21.5 184.68 23.28 185.03 22.09 185.38 22.68 185.73 23.87 186.08 26.83 186.42 23.28 186.77 26.83 187.12 26.24 187.47 30.39 187.82 23.87 188.17 23.87 188.52 23.28 188.87 23.28 189.22 26.24 189.57 29.2 189.92 32.16 190.26 33.94 190.61 34.53 190.96 32.76 191.31 35.13 191.66 33.35 192.01 31.57 192.36 32.76 192.71 38.68 193.06 42.83 193.41 36.9 193.76 37.5 194.11 36.9 194.45 35.72 194.8 38.09 195.15 36.31 195.5 43.42 195.85 42.83 196.2 48.16"/>
      </g>
      <g stroke-width="0.3" fill="#000000" fill-opacity="0.000" class="geometry" stroke-dasharray="none" stroke="#FEE08B" id="img-e8772d8c-15">
        <path fill="none" d="M21.98,71.86 L 22.33 72.46 22.68 77.79 23.03 78.38 23.38 76.01 23.73 79.57 24.08 80.16 24.42 84.9 24.77 84.9 25.12 91.42 25.47 88.45 25.82 87.86 26.17 84.9 26.52 86.08 26.87 77.79 27.22 75.42 27.57 69.49 27.92 72.46 28.27 73.64 28.61 78.38 28.96 78.97 29.31 72.46 29.66 64.75 30.01 62.98 30.36 57.64 30.71 58.83 31.06 59.42 31.41 56.46 31.76 46.98 32.11 42.83 32.45 36.9 32.8 40.46 33.15 38.09 33.5 35.72 33.85 35.13 34.2 33.35 34.55 32.16 34.9 32.16 35.25 31.57 35.6 34.53 35.95 33.94 36.3 32.76 36.64 31.57 36.99 32.16 37.34 33.94 37.69 38.09 38.04 32.16 38.39 28.61 38.74 28.02 39.09 29.79 39.44 31.57 39.79 32.16 40.14 32.76 40.49 36.31 40.83 33.35 41.18 30.98 41.53 36.31 41.88 35.13 42.23 31.57 42.58 29.2 42.93 30.98 43.28 31.57 43.63 31.57 43.98 32.16 44.33 28.61 44.67 30.39 45.02 32.76 45.37 35.13 45.72 32.76 46.07 27.42 46.42 26.83 46.77 25.05 47.12 27.42 47.47 25.65 47.82 26.83 48.17 26.83 48.52 22.68 48.86 20.31 49.21 17.94 49.56 15.57 49.91 16.17 50.26 16.76 50.61 16.17 50.96 18.54 51.31 17.94 51.66 19.72 52.01 23.87 52.36 27.42 52.7 24.46 53.05 23.28 53.4 24.46 53.75 25.65 54.1 23.28 54.45 21.5 54.8 22.68 55.15 21.5 55.5 19.72 55.85 20.91 56.2 20.91 56.55 20.91 56.89 21.5 57.24 23.87 57.59 18.54 57.94 19.13 58.29 19.72 58.64 18.54 58.99 16.17 59.34 16.76 59.69 17.35 60.04 13.2 60.39 13.8 60.73 13.8 61.08 12.61"/>
      </g>
      <g stroke-width="0.3" fill="#000000" fill-opacity="0.000" class="geometry" stroke-dasharray="none" stroke="#FDAE61" id="img-e8772d8c-16">
        <path fill="none" d="M21.98,71.86 L 22.33 67.12 22.68 71.27 23.03 70.68 23.38 76.01 23.73 76.6 24.08 67.12 24.42 64.16 24.77 65.35 25.12 70.09 25.47 74.23 25.82 70.09 26.17 68.31 26.52 64.75 26.87 67.72 27.22 63.57 27.57 60.61 27.92 61.2 28.27 60.61 28.61 60.01 28.96 56.46 29.31 65.94 29.66 62.98 30.01 70.68 30.36 71.27 30.71 72.46 31.06 69.49 31.41 71.27 31.76 65.35 32.11 64.16 32.45 65.35 32.8 61.2 33.15 56.46 33.5 48.16 33.85 47.57 34.2 37.5 34.55 41.64 34.9 39.87 35.25 42.83 35.6 36.31 35.95 36.9 36.3 40.46 36.64 40.46 36.99 42.24 37.34 38.68 37.69 38.68 38.04 37.5 38.39 40.46 38.74 38.09 39.09 31.57 39.44 29.79 39.79 26.83 40.14 28.61 40.49 31.57 40.83 36.9 41.18 37.5 41.53 41.64 41.88 36.31 42.23 38.68 42.58 35.72 42.93 37.5 43.28 35.13 43.63 39.27 43.98 42.83 44.33 39.87 44.67 41.64 45.02 33.94 45.37 27.42 45.72 29.2 46.07 30.98 46.42 25.05 46.77 26.83 47.12 28.61 47.47 29.79 47.82 29.79 48.17 27.42 48.52 25.05 48.86 26.83 49.21 28.02 49.56 31.57 49.91 30.39 50.26 26.24 50.61 19.72 50.96 15.57 51.31 15.57 51.66 15.57 52.01 15.57 52.36 15.57 52.7 17.94 53.05 17.35 53.4 19.72 53.75 23.28 54.1 23.28 54.45 26.24 54.8 27.42 55.15 29.79 55.5 29.2 55.85 30.39 56.2 29.2 56.55 30.39 56.89 28.02 57.24 32.16 57.59 33.35 57.94 30.98 58.29 32.16 58.64 29.79 58.99 33.35 59.34 26.83 59.69 33.35 60.04 35.13 60.39 30.98 60.73 31.57 61.08 31.57 61.43 35.72 61.78 38.09 62.13 39.27 62.48 38.09 62.83 33.94 63.18 32.16 63.53 33.94 63.88 36.9 64.23 33.94 64.58 40.46 64.92 41.05 65.27 39.87 65.62 38.09 65.97 36.31 66.32 36.31 66.67 37.5 67.02 40.46 67.37 40.46 67.72 41.05 68.07 36.31 68.42 35.72 68.77 32.76 69.11 30.39 69.46 28.02 69.81 29.2 70.16 27.42 70.51 27.42 70.86 34.53 71.21 34.53 71.56 39.27 71.91 38.68 72.26 41.64 72.61 39.27 72.95 41.64 73.3 36.9 73.65 39.27 74 35.13 74.35 35.13 74.7 33.35 75.05 36.31 75.4 36.31 75.75 33.35 76.1 34.53 76.45 35.13 76.8 34.53 77.14 34.53 77.49 31.57 77.84 31.57 78.19 30.98 78.54 35.13 78.89 35.72 79.24 38.09 79.59 38.09 79.94 34.53 80.29 31.57 80.64 30.39 80.98 32.76 81.33 32.16 81.68 26.83 82.03 22.68 82.38 21.5 82.73 22.68 83.08 22.68 83.43 21.5 83.78 19.72 84.13 20.91 84.48 17.94 84.83 19.13 85.17 17.35 85.52 17.35 85.87 16.76 86.22 16.17 86.57 14.98 86.92 15.57 87.27 16.76 87.62 16.17 87.97 16.76 88.32 17.94 88.67 20.91 89.02 19.13 89.36 19.13 89.71 21.5 90.06 28.02 90.41 26.24 90.76 25.65 91.11 26.83 91.46 24.46 91.81 23.87 92.16 23.28 92.51 22.09 92.86 22.09 93.2 25.05 93.55 28.02 93.9 28.61 94.25 29.2 94.6 32.16 94.95 28.61 95.3 26.83 95.65 29.79 96 29.2 96.35 33.35 96.7 35.72 97.05 42.24 97.39 41.64 97.74 45.79 98.09 42.24 98.44 39.27 98.79 47.57 99.14 44.02 99.49 45.2 99.84 51.72 100.19 46.98 100.54 43.42 100.89 40.46 101.23 39.87 101.58 43.42 101.93 47.57 102.28 42.83 102.63 44.61 102.98 48.16 103.33 47.57 103.68 45.79 104.03 44.61 104.38 44.61 104.73 52.31 105.08 51.72 105.42 54.09 105.77 55.87 106.12 56.46 106.47 58.83 106.82 61.79 107.17 58.83 107.52 55.27 107.87 46.98 108.22 49.94 108.57 52.9 108.92 57.05 109.26 58.83 109.61 52.31 109.96 53.5 110.31 48.16 110.66 49.94 111.01 58.24 111.36 58.24 111.71 58.24 112.06 67.12 112.41 62.98 112.76 60.61 113.11 60.01 113.45 60.01 113.8 61.79 114.15 63.57 114.5 63.57 114.85 64.16 115.2 64.16 115.55 57.05 115.9 56.46 116.25 60.01 116.6 60.01 116.95 62.38 117.3 61.79 117.64 67.72 117.99 69.49 118.34 64.16 118.69 61.79 119.04 59.42 119.39 58.83 119.74 62.38 120.09 55.27 120.44 52.9 120.79 57.05 121.14 57.05 121.48 56.46 121.83 52.9 122.18 50.53 122.53 49.94 122.88 54.68 123.23 61.2 123.58 55.27 123.93 59.42 124.28 59.42 124.63 61.2 124.98 58.24 125.33 60.61 125.67 65.35 126.02 62.38 126.37 66.53 126.72 64.16 127.07 57.05 127.42 63.57 127.77 68.31 128.12 64.16 128.47 69.49 128.82 61.79 129.17 58.83 129.51 47.57 129.86 50.53 130.21 61.79 130.56 67.12 130.91 71.27 131.26 77.2 131.61 79.57 131.96 79.57 132.31 83.71 132.66 83.12 133.01 80.16 133.36 77.79 133.7 86.68 134.05 87.27 134.4 87.86 134.75 93.79 135.1 92.6 135.45 84.9 135.8 83.71 136.15 81.94 136.5 78.38 136.85 78.97 137.2 70.09 137.55 71.86 137.89 68.9 138.24 67.12 138.59 70.68 138.94 70.09 139.29 76.01 139.64 70.68 139.99 74.83 140.34 80.75 140.69 84.31 141.04 83.12 141.39 80.16 141.73 83.71 142.08 92.6 142.43 93.19 142.78 89.64 143.13 87.27 143.48 89.05 143.83 86.08 144.18 89.05 144.53 90.23 144.88 94.38 145.23 90.23 145.58 90.82 145.92 92.01 146.27 87.86 146.62 86.68 146.97 89.64 147.32 93.19 147.67 85.49 148.02 85.49 148.37 86.08 148.72 84.31 149.07 80.16 149.42 71.86 149.76 74.83 150.11 68.31 150.46 71.27 150.81 63.57 151.16 61.79 151.51 60.61 151.86 62.98 152.21 60.61 152.56 63.57 152.91 61.2 153.26 64.16 153.61 62.98 153.95 63.57 154.3 55.87 154.65 55.27 155 49.35 155.35 54.09 155.7 51.72 156.05 48.76 156.4 52.31 156.75 50.53 157.1 49.94 157.45 45.2 157.79 43.42 158.14 44.02 158.49 42.83 158.84 40.46 159.19 39.87 159.54 38.68 159.89 36.9 160.24 33.35 160.59 38.09 160.94 30.98 161.29 29.79 161.64 32.16 161.98 35.13 162.33 32.16 162.68 32.76 163.03 31.57 163.38 31.57 163.73 29.79 164.08 30.98 164.43 33.35 164.78 36.9 165.13 38.09 165.48 38.09 165.83 42.83 166.17 41.05 166.52 39.87 166.87 42.83 167.22 45.2 167.57 46.39 167.92 45.79 168.27 45.2 168.62 42.24 168.97 40.46 169.32 40.46 169.67 38.68 170.01 36.9 170.36 33.35 170.71 35.13 171.06 35.72 171.41 33.35 171.76 35.13 172.11 42.24 172.46 40.46 172.81 36.9 173.16 39.27 173.51 45.2 173.86 50.53 174.2 57.05 174.55 58.83 174.9 56.46 175.25 60.61 175.6 61.2 175.95 52.31 176.3 54.09 176.65 61.2 177 62.98 177.35 68.31 177.7 68.31 178.04 68.31 178.39 76.01 178.74 76.01 179.09 77.2 179.44 74.83 179.79 71.86 180.14 70.68 180.49 68.9 180.84 71.27 181.19 72.46 181.54 64.75 181.89 59.42 182.23 56.46 182.58 62.98 182.93 70.09 183.28 68.31 183.63 73.64 183.98 73.05 184.33 70.68 184.68 68.9 185.03 82.53 185.38 83.12 185.73 80.16 186.08 78.38 186.42 77.79 186.77 76.01 187.12 72.46 187.47 71.86 187.82 70.68 188.17 80.16 188.52 77.79 188.87 80.75 189.22 84.31 189.57 78.38 189.92 76.6 190.26 77.2 190.61 75.42 190.96 67.12 191.31 74.23 191.66 74.83 192.01 71.86 192.36 71.27 192.71 71.86 193.06 68.9 193.41 62.98 193.76 65.35 194.11 64.16 194.45 62.38 194.8 52.9 195.15 56.46 195.5 52.9 195.85 49.94 196.2 48.76"/>
      </g>
      <g stroke-width="0.3" fill="#000000" fill-opacity="0.000" class="geometry" stroke-dasharray="none" stroke="#F46D43" id="img-e8772d8c-17">
        <path fill="none" d="M21.98,71.86 L 22.33 70.68 22.68 79.57 23.03 78.97 23.38 78.97 23.73 77.2 24.08 77.2 24.42 80.16 24.77 82.53 25.12 83.71 25.47 83.71 25.82 86.08 26.17 81.94 26.52 80.16 26.87 76.6 27.22 68.31 27.57 73.05 27.92 74.83 28.27 83.12 28.61 87.27 28.96 81.34 29.31 81.34 29.66 83.71 30.01 87.86 30.36 92.01 30.71 95.56 31.06 91.42 31.41 92.01 31.76 87.27 32.11 93.79 32.45 90.23 32.8 89.05 33.15 92.6 33.5 92.01 33.85 88.45 34.2 89.64 34.55 90.82 34.9 88.45 35.25 90.23 35.6 91.42 35.95 91.42 36.3 90.23 36.64 88.45 36.99 89.64 37.34 92.01 37.69 96.16 38.04 94.38 38.39 94.97 38.74 103.27 39.09 100.9 39.44 102.67 39.79 100.9 40.14 100.3 40.49 97.93 40.83 99.12 41.18 98.53 41.53 99.71 41.88 105.64 42.23 108.6 42.58 109.19 42.93 114.52 43.28 115.12 43.63 115.12 43.98 112.15 44.33 115.71 44.67 113.34 45.02 112.15 45.37 107.41 45.72 110.38 46.07 108.6 46.42 105.04 46.77 106.82 47.12 104.45 47.47 103.86 47.82 104.45 48.17 103.86 48.52 102.08 48.86 103.27 49.21 105.64 49.56 103.86 49.91 99.71 50.26 93.79 50.61 96.16 50.96 101.49 51.31 107.41 51.66 108.01 52.01 105.64 52.36 109.78 52.7 112.15 53.05 112.15 53.4 116.3 53.75 118.08 54.1 115.71 54.45 111.56 54.8 116.3 55.15 117.49 55.5 116.89 55.85 116.3 56.2 112.75 56.55 112.15 56.89 113.34 57.24 109.19 57.59 112.15 57.94 109.19 58.29 112.75 58.64 110.38 58.99 115.12 59.34 119.86 59.69 118.67 60.04 116.3 60.39 117.49 60.73 117.49 61.08 115.12 61.43 113.93 61.78 118.67 62.13 119.86 62.48 125.19 62.83 122.82 63.18 121.04 63.53 121.63 63.88 120.45 64.23 121.63 64.58 121.63 64.92 121.63 65.27 125.78 65.62 123.41 65.97 126.97 66.32 128.15 66.67 126.97 67.02 128.74 67.37 129.34 67.72 129.34 68.07 129.93 68.42 129.93 68.77 129.93 69.11 130.52 69.46 130.52 69.81 129.93 70.16 128.74 70.51 129.93 70.86 129.93 71.21 130.52 71.56 131.11"/>
      </g>
      <g stroke-width="0.3" fill="#000000" fill-opacity="0.000" class="geometry" stroke-dasharray="none" stroke="#D53E4F" id="img-e8772d8c-18">
        <path fill="none" d="M21.98,71.86 L 22.33 68.31 22.68 63.57 23.03 54.68 23.38 54.09 23.73 51.13 24.08 52.31 24.42 59.42 24.77 60.01 25.12 55.27 25.47 56.46 25.82 55.27 26.17 54.09 26.52 54.09 26.87 54.68 27.22 57.64 27.57 57.05 27.92 58.83 28.27 55.27 28.61 58.83 28.96 49.35 29.31 45.79 29.66 49.94 30.01 48.16 30.36 44.02 30.71 44.02 31.06 43.42 31.41 42.24 31.76 44.61 32.11 38.09 32.45 44.02 32.8 45.79 33.15 47.57 33.5 48.16 33.85 49.94 34.2 43.42 34.55 42.24 34.9 44.61 35.25 44.02 35.6 48.16 35.95 48.16 36.3 47.57 36.64 41.64 36.99 42.83 37.34 43.42 37.69 46.98 38.04 46.39 38.39 53.5 38.74 57.05 39.09 55.87 39.44 62.38 39.79 61.2 40.14 64.16 40.49 65.35 40.83 61.79 41.18 67.12 41.53 73.05 41.88 67.72 42.23 65.94 42.58 64.75 42.93 58.83 43.28 61.2 43.63 58.24 43.98 64.16 44.33 63.57 44.67 68.9 45.02 67.12 45.37 70.09 45.72 69.49 46.07 71.86 46.42 74.83 46.77 72.46 47.12 77.79 47.47 78.38 47.82 82.53 48.17 81.34 48.52 83.12 48.86 87.27 49.21 92.01 49.56 95.56 49.91 98.53 50.26 100.9 50.61 101.49 50.96 105.04 51.31 107.41 51.66 105.04 52.01 105.64 52.36 110.97 52.7 108.6 53.05 110.97 53.4 105.64 53.75 104.45 54.1 99.71 54.45 99.12 54.8 96.75 55.15 91.42 55.5 93.19 55.85 91.42 56.2 92.6 56.55 100.9 56.89 97.34 57.24 97.93 57.59 100.3 57.94 98.53 58.29 88.45 58.64 83.12 58.99 87.86 59.34 85.49 59.69 86.08 60.04 78.38 60.39 71.86 60.73 70.09 61.08 64.16 61.43 63.57 61.78 60.61 62.13 55.27 62.48 52.9 62.83 43.42 63.18 38.09 63.53 39.87 63.88 42.83 64.23 51.72 64.58 55.87 64.92 54.68 65.27 61.79 65.62 71.27 65.97 70.09 66.32 73.05 66.67 74.23 67.02 74.23 67.37 78.38 67.72 85.49 68.07 85.49 68.42 86.68 68.77 89.05 69.11 92.01 69.46 93.19 69.81 98.53 70.16 96.16 70.51 91.42 70.86 90.82 71.21 87.86 71.56 88.45 71.91 97.34 72.26 94.97 72.61 94.97 72.95 94.38 73.3 97.93 73.65 100.3 74 103.27 74.35 96.16 74.7 94.38 75.05 94.38 75.4 89.64 75.75 92.01 76.1 94.38 76.45 91.42 76.8 87.27 77.14 78.38 77.49 76.01 77.84 83.71 78.19 81.94 78.54 79.57 78.89 83.12 79.24 83.71 79.59 82.53 79.94 78.97 80.29 78.38 80.64 78.38 80.98 74.23 81.33 69.49 81.68 62.98 82.03 64.75 82.38 63.57 82.73 60.61 83.08 61.2 83.43 72.46 83.78 77.2 84.13 81.94 84.48 85.49 84.83 83.71 85.17 85.49 85.52 86.68 85.87 94.97 86.22 93.19 86.57 89.64 86.92 91.42 87.27 97.34 87.62 95.56 87.97 92.6 88.32 91.42 88.67 93.19 89.02 92.6 89.36 89.64 89.71 87.86 90.06 80.16 90.41 78.97 90.76 76.01 91.11 78.97 91.46 84.31 91.81 89.05 92.16 90.23 92.51 92.6 92.86 97.34 93.2 103.86 93.55 103.86 93.9 102.67 94.25 96.75 94.6 102.67 94.95 108.01 95.3 106.82 95.65 106.82 96 106.23 96.35 105.04 96.7 102.08 97.05 107.41 97.39 106.82 97.74 105.04 98.09 103.27 98.44 107.41 98.79 106.82 99.14 105.64 99.49 110.97 99.84 110.97 100.19 111.56 100.54 110.97 100.89 110.38 101.23 112.15 101.58 112.15 101.93 112.75 102.28 110.97 102.63 112.75 102.98 111.56 103.33 110.38 103.68 112.75 104.03 108.01 104.38 110.97 104.73 106.82 105.08 104.45 105.42 105.04 105.77 102.67 106.12 100.9 106.47 100.9 106.82 100.3 107.17 99.71 107.52 102.08 107.87 97.93 108.22 100.3 108.57 97.93 108.92 103.86 109.26 106.23 109.61 101.49 109.96 96.16 110.31 94.97 110.66 90.23 111.01 93.79 111.36 94.38 111.71 92.6 112.06 94.38 112.41 96.16 112.76 95.56 113.11 93.79 113.45 93.19 113.8 89.64 114.15 92.01 114.5 89.64 114.85 90.23 115.2 91.42 115.55 93.19 115.9 95.56 116.25 96.16 116.6 102.67 116.95 106.82 117.3 102.08 117.64 102.08 117.99 103.27 118.34 99.12 118.69 97.34 119.04 94.38 119.39 92.6 119.74 96.16 120.09 97.93 120.44 91.42 120.79 84.9 121.14 86.08 121.48 84.31 121.83 83.71 122.18 83.12 122.53 80.16 122.88 81.34 123.23 84.9 123.58 89.05 123.93 84.9 124.28 78.97 124.63 77.2 124.98 76.01 125.33 72.46 125.67 73.64 126.02 80.16 126.37 88.45 126.72 86.68 127.07 86.08 127.42 88.45 127.77 89.64 128.12 90.82 128.47 91.42 128.82 95.56 129.17 95.56 129.51 95.56 129.86 94.38 130.21 90.23 130.56 95.56 130.91 97.34 131.26 86.68 131.61 86.68 131.96 93.19 132.31 89.64 132.66 97.93 133.01 101.49 133.36 108.6 133.7 106.82 134.05 109.78 134.4 112.15 134.75 112.75 135.1 111.56 135.45 109.19 135.8 110.97 136.15 110.97 136.5 112.15 136.85 110.97 137.2 110.38 137.55 109.78 137.89 108.6 138.24 109.78 138.59 109.19 138.94 112.15 139.29 115.12 139.64 118.67 139.99 119.26 140.34 121.63 140.69 124 141.04 127.56 141.39 129.34 141.73 129.93 142.08 129.34 142.43 129.34 142.78 127.56 143.13 128.15 143.48 128.74 143.83 127.56 144.18 127.56 144.53 125.78 144.88 127.56 145.23 127.56 145.58 126.37 145.92 126.97 146.27 126.97 146.62 125.78 146.97 126.37 147.32 128.15 147.67 125.19 148.02 122.82 148.37 122.23 148.72 121.63 149.07 119.26 149.42 122.82 149.76 120.45 150.11 120.45 150.46 118.67 150.81 117.49 151.16 121.04 151.51 120.45 151.86 122.23 152.21 124.6 152.56 128.15 152.91 125.78 153.26 122.82 153.61 121.04 153.95 119.86 154.3 120.45 154.65 119.86 155 122.23 155.35 119.26 155.7 118.08 156.05 118.08 156.4 120.45 156.75 121.04 157.1 121.63 157.45 119.86 157.79 121.04 158.14 119.86 158.49 116.89 158.84 119.86 159.19 121.63 159.54 119.26 159.89 116.3 160.24 115.71 160.59 112.15 160.94 110.97 161.29 111.56 161.64 106.23 161.98 106.82 162.33 105.04 162.68 104.45 163.03 99.12 163.38 97.34 163.73 92.01 164.08 93.79 164.43 90.23 164.78 85.49 165.13 86.68 165.48 82.53 165.83 79.57 166.17 84.31 166.52 82.53 166.87 82.53 167.22 77.79 167.57 83.12 167.92 71.86 168.27 73.64 168.62 78.97 168.97 80.16 169.32 74.83 169.67 77.79 170.01 76.6 170.36 73.05 170.71 74.83 171.06 66.53 171.41 64.16 171.76 68.9 172.11 61.2 172.46 58.24 172.81 58.24 173.16 57.05 173.51 58.83 173.86 60.61 174.2 58.83 174.55 56.46 174.9 60.61 175.25 54.68 175.6 60.01 175.95 64.16 176.3 61.2 176.65 67.72 177 73.64 177.35 67.72 177.7 68.31 178.04 67.12 178.39 65.94 178.74 64.75 179.09 71.86 179.44 70.68 179.79 67.72 180.14 70.09 180.49 68.31 180.84 58.83 181.19 48.76 181.54 51.72 181.89 49.94 182.23 52.9 182.58 48.16 182.93 48.16 183.28 44.02 183.63 45.2 183.98 47.57 184.33 48.16 184.68 46.39 185.03 39.27 185.38 37.5 185.73 34.53 186.08 42.24 186.42 42.24 186.77 39.27 187.12 49.35 187.47 53.5 187.82 52.31 188.17 45.2 188.52 43.42 188.87 43.42 189.22 46.39 189.57 50.53 189.92 41.05 190.26 34.53 190.61 32.76 190.96 38.09 191.31 41.64 191.66 42.83 192.01 42.24 192.36 38.68 192.71 38.09 193.06 36.31 193.41 42.83 193.76 36.31 194.11 36.31 194.45 39.87 194.8 43.42 195.15 41.64 195.5 35.13 195.85 35.13 196.2 38.09"/>
      </g>
      <g stroke-width="0.3" fill="#000000" fill-opacity="0.000" class="geometry" stroke-dasharray="none" stroke="#9E0142" id="img-e8772d8c-19">
        <path fill="none" d="M21.98,71.86 L 22.33 67.12 22.68 64.16 23.03 61.2 23.38 61.79 23.73 64.75 24.08 62.98 24.42 65.94 24.77 70.09 25.12 64.75 25.47 58.24 25.82 58.83 26.17 60.01 26.52 55.27 26.87 54.68 27.22 54.68 27.57 52.9 27.92 47.57 28.27 50.53 28.61 54.68 28.96 54.09 29.31 61.2 29.66 67.12 30.01 67.12 30.36 67.12 30.71 70.09 31.06 67.72 31.41 59.42 31.76 55.27 32.11 52.9 32.45 51.72 32.8 54.68 33.15 52.9 33.5 54.68 33.85 54.09 34.2 55.27 34.55 58.83 34.9 54.68 35.25 62.38 35.6 60.01 35.95 59.42 36.3 55.87 36.64 59.42 36.99 54.68 37.34 50.53 37.69 52.9 38.04 52.9 38.39 52.9 38.74 51.13 39.09 46.39 39.44 46.98 39.79 46.39 40.14 41.05 40.49 48.76 40.83 54.68 41.18 49.35 41.53 46.98 41.88 45.79 42.23 44.61 42.58 46.39 42.93 49.35 43.28 51.72 43.63 57.05 43.98 61.2 44.33 58.83 44.67 61.2 45.02 58.83 45.37 62.38 45.72 62.98 46.07 69.49 46.42 69.49 46.77 74.83 47.12 77.79 47.47 79.57 47.82 81.34 48.17 77.2 48.52 82.53 48.86 73.05 49.21 76.6 49.56 79.57 49.91 80.16 50.26 88.45 50.61 90.23 50.96 94.38 51.31 87.27 51.66 93.19 52.01 97.93 52.36 98.53 52.7 95.56 53.05 103.27 53.4 106.23 53.75 107.41 54.1 109.19 54.45 112.15 54.8 110.97 55.15 110.38 55.5 116.89 55.85 118.08 56.2 115.12 56.55 119.26 56.89 118.67 57.24 125.78 57.59 124.6 57.94 122.82 58.29 124 58.64 126.97 58.99 127.56 59.34 128.74 59.69 128.15 60.04 129.34 60.39 130.52 60.73 130.52 61.08 130.52 61.43 130.52 61.78 130.52 62.13 131.11"/>
      </g>
    </g>
  </g>
</g>
  <g class="guide ylabels" font-size="2.82" font-family="'PT Sans Caption','Helvetica Neue','Helvetica',sans-serif" fill="#000000" id="img-e8772d8c-20">
    <text x="18.63" y="131.11" text-anchor="end" dy="0.35em">0</text>
    <text x="18.63" y="101.49" text-anchor="end" dy="0.35em">50</text>
    <text x="18.63" y="71.86" text-anchor="end" dy="0.35em">100</text>
    <text x="18.63" y="42.24" text-anchor="end" dy="0.35em">150</text>
    <text x="18.63" y="12.61" text-anchor="end" dy="0.35em">200</text>
  </g>
  <g font-size="3.88" font-family="'PT Sans','Helvetica Neue','Helvetica',sans-serif" fill="#000000" stroke="#000000" stroke-opacity="0.000" id="img-e8772d8c-21">
    <text x="8.81" y="69.86" text-anchor="middle" dy="0.35em" transform="rotate(-90, 8.81, 71.86)">population number</text>
  </g>
  <g font-size="3.88" font-family="'PT Sans','Helvetica Neue','Helvetica',sans-serif" fill="#000000" stroke="#000000" stroke-opacity="0.000" id="img-e8772d8c-22">
    <text x="108.92" y="5" text-anchor="middle" dy="0.6em">genetic drift</text>
  </g>
</g>
<defs>
  <clipPath id="img-e8772d8c-4">
  <path d="M19.63,10.61 L 198.2 10.61 198.2 133.11 19.63 133.11" />
</clipPath>
</defs>
</svg>
