<?xml version="1.0" encoding="UTF-8"?>
<svg xmlns="http://www.w3.org/2000/svg"
     xmlns:xlink="http://www.w3.org/1999/xlink"
     xmlns:gadfly="http://www.gadflyjl.org/ns"
     version="1.2"
     width="203.2mm" height="152.4mm" viewBox="0 0 203.2 152.4"
     stroke="none"
     fill="#000000"
     stroke-width="0.3"
     font-size="3.88"
>
<g class="plotroot xscalable yscalable" id="img-f7e8f564-1">
  <g font-size="3.88" font-family="'PT Sans','Helvetica Neue','Helvetica',sans-serif" fill="#000000" stroke="#000000" stroke-opacity="0.000" id="img-f7e8f564-2">
    <text x="108.92" y="140.79" text-anchor="middle" dy="0.6em">generation number</text>
  </g>
  <g class="guide xlabels" font-size="2.82" font-family="'PT Sans Caption','Helvetica Neue','Helvetica',sans-serif" fill="#000000" id="img-f7e8f564-3">
    <text x="21.63" y="134.11" text-anchor="middle" dy="0.6em">0</text>
    <text x="56.55" y="134.11" text-anchor="middle" dy="0.6em">100</text>
    <text x="91.46" y="134.11" text-anchor="middle" dy="0.6em">200</text>
    <text x="126.37" y="134.11" text-anchor="middle" dy="0.6em">300</text>
    <text x="161.29" y="134.11" text-anchor="middle" dy="0.6em">400</text>
    <text x="196.2" y="134.11" text-anchor="middle" dy="0.6em">500</text>
  </g>
<g clip-path="url(#img-f7e8f564-4)">
  <g id="img-f7e8f564-5">
    <g pointer-events="visible" opacity="1" fill="#FFFFFF" stroke="#000000" stroke-opacity="0.000" class="guide background" id="img-f7e8f564-6">
      <rect x="19.63" y="10.61" width="178.57" height="122.5"/>
    </g>
    <g class="guide ygridlines xfixed" stroke-dasharray="0.5,0.5" stroke-width="0.2" stroke="#808080" id="img-f7e8f564-7">
      <path fill="none" d="M19.63,131.11 L 198.2 131.11"/>
      <path fill="none" d="M19.63,101.49 L 198.2 101.49"/>
      <path fill="none" d="M19.63,71.86 L 198.2 71.86"/>
      <path fill="none" d="M19.63,42.24 L 198.2 42.24"/>
      <path fill="none" d="M19.63,12.61 L 198.2 12.61"/>
    </g>
    <g class="guide xgridlines yfixed" stroke-dasharray="0.5,0.5" stroke-width="0.2" stroke="#808080" id="img-f7e8f564-8">
      <path fill="none" d="M21.63,10.61 L 21.63 133.11"/>
      <path fill="none" d="M56.55,10.61 L 56.55 133.11"/>
      <path fill="none" d="M91.46,10.61 L 91.46 133.11"/>
      <path fill="none" d="M126.37,10.61 L 126.37 133.11"/>
      <path fill="none" d="M161.29,10.61 L 161.29 133.11"/>
      <path fill="none" d="M196.2,10.61 L 196.2 133.11"/>
    </g>
    <g class="plotpanel" id="img-f7e8f564-9">
      <g stroke-width="0.3" fill="#000000" fill-opacity="0.000" class="geometry" stroke-dasharray="none" stroke="#3288BD" id="img-f7e8f564-10">
        <path fill="none" d="M21.98,71.86 L 22.33 74.83 22.68 74.68 23.03 74.23 23.38 73.94 23.73 74.38 24.08 69.49 24.42 67.42 24.77 69.94 25.12 70.83 25.47 72.6 25.82 73.2 26.17 78.23 26.52 78.38 26.87 80.6 27.22 77.79 27.57 79.27 27.92 80.6 28.27 81.2 28.61 80.16 28.96 80.6 29.31 77.2 29.66 74.23 30.01 73.2 30.36 75.42 30.71 78.83 31.06 76.46 31.41 72.01 31.76 70.38 32.11 71.27 32.45 72.16 32.8 74.38 33.15 74.53 33.5 73.2 33.85 72.46 34.2 70.97 34.55 71.57 34.9 69.94 35.25 70.23 35.6 71.86 35.95 69.64 36.3 69.35 36.64 64.75 36.99 69.35 37.34 64.75 37.69 65.79 38.04 69.2 38.39 66.98 38.74 65.05 39.09 67.42 39.44 69.35 39.79 70.23 40.14 67.42 40.49 68.75 40.83 66.38 41.18 66.09 41.53 70.53 41.88 69.94 42.23 70.83 42.58 72.46 42.93 71.72 43.28 70.09 43.63 72.31 43.98 70.83 44.33 74.09 44.67 74.23 45.02 68.01 45.37 67.86 45.72 66.23 46.07 66.98 46.42 65.79 46.77 67.42 47.12 67.86 47.47 68.75 47.82 68.01 48.17 65.79 48.52 61.35 48.86 63.72 49.21 62.09 49.56 60.61 49.91 57.49 50.26 56.31 50.61 56.16 50.96 55.87 51.31 57.94 51.66 56.16 52.01 54.98 52.36 54.24 52.7 53.79 53.05 58.24 53.4 61.49 53.75 65.35 54.1 67.12 54.45 67.72 54.8 69.05 55.15 68.01 55.5 67.42 55.85 67.27 56.2 63.86 56.55 66.98 56.89 66.98 57.24 65.35 57.59 63.42 57.94 59.86 58.29 62.98 58.64 62.09 58.99 60.31 59.34 56.9 59.69 55.57 60.04 52.61 60.39 49.94 60.73 45.79 61.08 42.98 61.43 42.09 61.78 39.27 62.13 40.31 62.48 39.72 62.83 42.09 63.18 40.02 63.53 40.16 63.88 39.57 64.23 40.46 64.58 38.83 64.92 38.98 65.27 37.65 65.62 38.98 65.97 35.72 66.32 38.53 66.67 37.5 67.02 36.02 67.37 35.42 67.72 37.2 68.07 38.24 68.42 36.76 68.77 36.31 69.11 36.76 69.46 38.68 69.81 38.53 70.16 35.87 70.51 33.94 70.86 33.5 71.21 33.2 71.56 31.42 71.91 31.72 72.26 28.91 72.61 28.91 72.95 28.91 73.3 29.05 73.65 28.17 74 28.46 74.35 32.02 74.7 31.28 75.05 31.13 75.4 29.05 75.75 28.91 76.1 30.09 76.45 31.28 76.8 34.68 77.14 32.16 77.49 31.13 77.84 32.91 78.19 33.35 78.54 32.76 78.89 32.46 79.24 34.24 79.59 37.2 79.94 36.31 80.29 35.72 80.64 34.09 80.98 33.35 81.33 30.54 81.68 33.79 82.03 33.79 82.38 33.5 82.73 31.87 83.08 35.57 83.43 37.5 83.78 38.53 84.13 38.39 84.48 38.39 84.83 40.31 85.17 39.87 85.52 36.9 85.87 40.46 86.22 40.31 86.57 39.87 86.92 40.9 87.27 40.16 87.62 40.61 87.97 38.83 88.32 37.65 88.67 38.24 89.02 37.35 89.36 36.31 89.71 34.24 90.06 36.76 90.41 35.72 90.76 32.31 91.11 31.57 91.46 28.17 91.81 27.13 92.16 28.61 92.51 28.46 92.86 29.65 93.2 28.02 93.55 25.94 93.9 23.43 94.25 22.54 94.6 25.2 94.95 24.61 95.3 26.09 95.65 25.8 96 25.65 96.35 26.24 96.7 25.65 97.05 26.83 97.39 26.24 97.74 27.57 98.09 29.94 98.44 30.98 98.79 27.42 99.14 25.8 99.49 29.65 99.84 28.61 100.19 27.28 100.54 24.91 100.89 25.35 101.23 27.13 101.58 28.31 101.93 24.46 102.28 26.09 102.63 25.05 102.98 25.5 103.33 24.91 103.68 25.94 104.03 27.42 104.38 24.91 104.73 25.65 105.08 25.2 105.42 25.2 105.77 26.83 106.12 26.83 106.47 25.65 106.82 24.02 107.17 25.65 107.52 23.72 107.87 23.72 108.22 23.72 108.57 23.57 108.92 22.68 109.26 25.65 109.61 22.68 109.96 22.54 110.31 21.35 110.66 19.57 111.01 18.83 111.36 18.68 111.71 17.5 112.06 18.98 112.41 18.39 112.76 18.98 113.11 19.13 113.45 17.94 113.8 17.5 114.15 18.24 114.5 17.94 114.85 18.68 115.2 19.13 115.55 20.31 115.9 20.02 116.25 20.31 116.6 20.31 116.95 18.54 117.3 16.91 117.64 17.35 117.99 17.06 118.34 16.31 118.69 16.46 119.04 19.13 119.39 17.94 119.74 18.54 120.09 18.98 120.44 20.61 120.79 19.57 121.14 18.54 121.48 17.8 121.83 17.94 122.18 16.46 122.53 17.5 122.88 16.76 123.23 16.46 123.58 17.06 123.93 17.5 124.28 18.83 124.63 17.8 124.98 17.94 125.33 18.83 125.67 16.91 126.02 18.24 126.37 17.65 126.72 16.31 127.07 16.91 127.42 17.5 127.77 17.5 128.12 18.24 128.47 17.35 128.82 18.54 129.17 20.02 129.51 19.72 129.86 19.28 130.21 19.87 130.56 18.09 130.91 17.2 131.26 17.06 131.61 17.35 131.96 17.35 132.31 17.5 132.66 16.46 133.01 15.87 133.36 16.91 133.7 18.54 134.05 18.24 134.4 20.46 134.75 19.72 135.1 18.54 135.45 19.28 135.8 20.31 136.15 20.17 136.5 20.46 136.85 19.72 137.2 19.72 137.55 19.87 137.89 18.09 138.24 18.39 138.59 18.24 138.94 16.91 139.29 16.61 139.64 17.8 139.99 17.35 140.34 16.91 140.69 17.65 141.04 17.94 141.39 17.65 141.73 17.65 142.08 16.91 142.43 16.91 142.78 17.35 143.13 16.61 143.48 15.43 143.83 14.98 144.18 15.28 144.53 15.13 144.88 14.54 145.23 14.54 145.58 13.94 145.92 14.24 146.27 14.24 146.62 14.24 146.97 14.54 147.32 16.17 147.67 15.57 148.02 16.02 148.37 15.13 148.72 14.83 149.07 14.98 149.42 14.83 149.76 14.54 150.11 14.39 150.46 13.8 150.81 13.8 151.16 13.8 151.51 14.39 151.86 15.13 152.21 14.69 152.56 14.39 152.91 13.8 153.26 14.69 153.61 14.98 153.95 16.02 154.3 15.43 154.65 14.98 155 15.57 155.35 16.17 155.7 15.72 156.05 16.02 156.4 16.17 156.75 16.17 157.1 16.61 157.45 16.76 157.79 15.13 158.14 14.09 158.49 13.5 158.84 14.09 159.19 13.5 159.54 13.65 159.89 13.35 160.24 13.06 160.59 12.76 160.94 12.61"/>
      </g>
      <g stroke-width="0.3" fill="#000000" fill-opacity="0.000" class="geometry" stroke-dasharray="none" stroke="#66C2A5" id="img-f7e8f564-11">
        <path fill="none" d="M21.98,71.86 L 22.33 72.9 22.68 70.97 23.03 70.83 23.38 69.05 23.73 75.12 24.08 77.79 24.42 80.31 24.77 78.08 25.12 79.12 25.47 78.68 25.82 78.08 26.17 81.64 26.52 84.16 26.87 85.34 27.22 85.49 27.57 85.94 27.92 84.6 28.27 83.57 28.61 85.19 28.96 84.01 29.31 86.53 29.66 85.64 30.01 83.57 30.36 84.9 30.71 87.27 31.06 88.45 31.41 86.68 31.76 86.97 32.11 83.86 32.45 84.31 32.8 84.16 33.15 84.6 33.5 86.38 33.85 87.57 34.2 86.38 34.55 87.86 34.9 88.75 35.25 89.34 35.6 87.57 35.95 88.16 36.3 90.08 36.64 90.68 36.99 93.19 37.34 93.79 37.69 96.3 38.04 98.67 38.39 92.75 38.74 95.27 39.09 96.6 39.44 97.19 39.79 97.34 40.14 98.08 40.49 104.3 40.83 104.3 41.18 104.3 41.53 107.86 41.88 108.75 42.23 109.34 42.58 107.86 42.93 108.75 43.28 110.38 43.63 109.78 43.98 109.04 44.33 108.01 44.67 108.9 45.02 109.78 45.37 106.23 45.72 107.12 46.07 107.71 46.42 111.27 46.77 109.04 47.12 109.49 47.47 108.3 47.82 109.34 48.17 110.08 48.52 112.01 48.86 114.38 49.21 118.38 49.56 118.08 49.91 119.86 50.26 121.34 50.61 123.12 50.96 123.56 51.31 123.26 51.66 123.86 52.01 123.56 52.36 121.63 52.7 122.38 53.05 123.26 53.4 123.56 53.75 119.86 54.1 119.86 54.45 118.97 54.8 120.75 55.15 119.71 55.5 118.52 55.85 120.45 56.2 122.08 56.55 124 56.89 123.71 57.24 121.63 57.59 121.19 57.94 121.04 58.29 121.19 58.64 121.34 58.99 121.63 59.34 120.89 59.69 120.45 60.04 119.56 60.39 119.41 60.73 119.41 61.08 120.45 61.43 120.75 61.78 122.97 62.13 122.82 62.48 122.97 62.83 122.23 63.18 123.41 63.53 124.15 63.88 125.63 64.23 126.97 64.58 127.12 64.92 129.04 65.27 129.34 65.62 129.34 65.97 129.34 66.32 129.93 66.67 129.93 67.02 129.93 67.37 129.63 67.72 129.78 68.07 129.63 68.42 129.19 68.77 129.63 69.11 130.37 69.46 130.67 69.81 130.67 70.16 130.37 70.51 130.08 70.86 130.52 71.21 130.52 71.56 130.23 71.91 130.82 72.26 131.11"/>
      </g>
      <g stroke-width="0.3" fill="#000000" fill-opacity="0.000" class="geometry" stroke-dasharray="none" stroke="#ABDDA4" id="img-f7e8f564-12">
        <path fill="none" d="M21.98,71.86 L 22.33 69.64 22.68 70.83 23.03 71.42 23.38 74.53 23.73 74.53 24.08 73.79 24.42 75.57 24.77 74.23 25.12 76.75 25.47 82.68 25.82 79.42 26.17 81.94 26.52 78.97 26.87 79.86 27.22 80.01 27.57 80.9 27.92 81.64 28.27 82.53 28.61 83.86 28.96 82.68 29.31 81.05 29.66 80.75 30.01 81.2 30.36 80.6 30.71 79.42 31.06 81.49 31.41 81.79 31.76 82.08 32.11 83.86 32.45 81.05 32.8 84.31 33.15 83.86 33.5 81.64 33.85 74.53 34.2 74.83 34.55 74.23 34.9 71.57 35.25 69.2 35.6 67.72 35.95 70.23 36.3 72.75 36.64 76.46 36.99 74.09 37.34 73.2 37.69 74.68 38.04 76.16 38.39 78.97 38.74 76.31 39.09 76.6 39.44 76.9 39.79 74.83 40.14 76.75 40.49 75.86 40.83 74.68 41.18 73.94 41.53 74.68 41.88 76.46 42.23 74.09 42.58 75.27 42.93 73.05 43.28 71.57 43.63 72.16 43.98 73.94 44.33 78.08 44.67 77.05 45.02 75.27 45.37 75.71 45.72 75.57 46.07 72.31 46.42 72.16 46.77 74.09 47.12 75.71 47.47 74.97 47.82 75.27 48.17 76.6 48.52 79.86 48.86 78.97 49.21 79.12 49.56 80.45 49.91 81.2 50.26 80.31 50.61 81.2 50.96 82.23 51.31 83.27 51.66 83.71 52.01 80.75 52.36 81.05 52.7 82.97 53.05 84.6 53.4 83.12 53.75 84.6 54.1 82.97 54.45 85.94 54.8 88.6 55.15 90.82 55.5 94.68 55.85 94.38 56.2 96.75 56.55 95.27 56.89 93.49 57.24 93.64 57.59 93.79 57.94 92.6 58.29 92.01 58.64 90.68 58.99 90.82 59.34 88.31 59.69 89.94 60.04 90.23 60.39 90.08 60.73 91.56 61.08 89.64 61.43 90.08 61.78 93.19 62.13 95.71 62.48 94.97 62.83 98.08 63.18 95.56 63.53 94.82 63.88 95.56 64.23 94.38 64.58 91.42 64.92 91.12 65.27 91.12 65.62 90.53 65.97 93.93 66.32 94.53 66.67 98.97 67.02 98.67 67.37 100.3 67.72 97.79 68.07 95.56 68.42 92.75 68.77 94.38 69.11 97.93 69.46 97.05 69.81 96.01 70.16 97.93 70.51 97.49 70.86 95.86 71.21 97.19 71.56 98.82 71.91 97.49 72.26 99.71 72.61 100.9 72.95 102.23 73.3 103.12 73.65 103.71 74 102.38 74.35 100.75 74.7 100.9 75.05 98.82 75.4 94.53 75.75 93.64 76.1 95.56 76.45 95.12 76.8 93.93 77.14 91.27 77.49 95.12 77.84 95.71 78.19 95.86 78.54 96.9 78.89 97.19 79.24 94.08 79.59 91.56 79.94 95.71 80.29 96.45 80.64 97.05 80.98 96.6 81.33 95.27 81.68 95.12 82.03 94.23 82.38 92.6 82.73 88.45 83.08 87.42 83.43 86.97 83.78 85.19 84.13 81.79 84.48 80.6 84.83 79.86 85.17 77.79 85.52 75.27 85.87 70.97 86.22 69.79 86.57 70.23 86.92 68.01 87.27 67.27 87.62 68.16 87.97 70.97 88.32 70.68 88.67 71.57 89.02 73.94 89.36 73.79 89.71 71.72 90.06 71.27 90.41 69.05 90.76 69.49 91.11 72.9 91.46 71.12 91.81 69.79 92.16 71.72 92.51 73.64 92.86 70.53 93.2 70.68 93.55 69.2 93.9 66.38 94.25 60.9 94.6 58.38 94.95 56.75 95.3 55.12 95.65 54.83 96 58.53 96.35 57.35 96.7 56.46 97.05 58.68 97.39 56.9 97.74 60.9 98.09 63.86 98.44 61.79 98.79 57.64 99.14 56.31 99.49 57.64 99.84 56.31 100.19 56.16 100.54 56.61 100.89 55.27 101.23 53.5 101.58 51.87 101.93 52.61 102.28 53.94 102.63 53.2 102.98 53.35 103.33 52.01 103.68 52.9 104.03 56.16 104.38 55.27 104.73 54.09 105.08 56.75 105.42 57.35 105.77 56.01 106.12 57.49 106.47 57.35 106.82 56.46 107.17 59.27 107.52 61.35 107.87 62.23 108.22 66.98 108.57 63.57 108.92 63.72 109.26 63.42 109.61 63.12 109.96 61.2 110.31 58.98 110.66 58.38 111.01 52.75 111.36 54.68 111.71 55.27 112.06 52.46 112.41 55.57 112.76 52.31 113.11 51.87 113.45 52.31 113.8 56.31 114.15 56.31 114.5 55.57 114.85 55.87 115.2 56.01 115.55 59.72 115.9 56.9 116.25 56.61 116.6 54.98 116.95 55.27 117.3 58.83 117.64 59.27 117.99 59.57 118.34 58.98 118.69 60.46 119.04 61.94 119.39 60.75 119.74 60.9 120.09 60.61 120.44 60.01 120.79 58.98 121.14 57.79 121.48 53.79 121.83 51.72 122.18 52.75 122.53 53.05 122.88 48.61 123.23 50.38 123.58 50.98 123.93 51.13 124.28 49.2 124.63 52.01 124.98 49.79 125.33 49.05 125.67 50.83 126.02 50.68 126.37 51.87 126.72 52.9 127.07 50.09 127.42 51.27 127.77 48.01 128.12 49.35 128.47 48.16 128.82 50.98 129.17 49.79 129.51 52.9 129.86 53.35 130.21 52.16 130.56 52.01 130.91 51.72 131.26 49.79 131.61 51.87 131.96 53.2 132.31 52.16 132.66 51.87 133.01 54.24 133.36 53.2 133.7 57.94 134.05 59.27 134.4 57.79 134.75 56.9 135.1 59.72 135.45 59.27 135.8 60.61 136.15 62.98 136.5 66.68 136.85 68.46 137.2 64.75 137.55 67.57 137.89 68.16 138.24 69.79 138.59 68.6 138.94 69.2 139.29 67.27 139.64 68.46 139.99 65.94 140.34 63.42 140.69 61.49 141.04 59.57 141.39 61.2 141.73 61.2 142.08 62.23 142.43 66.98 142.78 69.94 143.13 68.75 143.48 67.27 143.83 68.46 144.18 69.35 144.53 71.27 144.88 72.6 145.23 69.05 145.58 69.64 145.92 69.94 146.27 69.79 146.62 66.53 146.97 69.35 147.32 69.79 147.67 68.16 148.02 66.38 148.37 68.46 148.72 71.42 149.07 74.09 149.42 75.71 149.76 75.86 150.11 75.57 150.46 76.6 150.81 79.57 151.16 76.9 151.51 77.94 151.86 77.64 152.21 76.31 152.56 73.49 152.91 70.53 153.26 71.72 153.61 67.57 153.95 66.38 154.3 70.23 154.65 70.23 155 71.12 155.35 65.94 155.7 66.83 156.05 65.94 156.4 64.61 156.75 64.9 157.1 66.98 157.45 64.16 157.79 57.79 158.14 58.83 158.49 62.83 158.84 61.2 159.19 60.31 159.54 58.53 159.89 59.27 160.24 60.01 160.59 57.2 160.94 58.53 161.29 61.49 161.64 61.35 161.98 61.79 162.33 64.16 162.68 63.72 163.03 66.09 163.38 64.31 163.73 67.42 164.08 68.31 164.43 68.46 164.78 68.46 165.13 67.86 165.48 65.49 165.83 65.49 166.17 65.05 166.52 63.12 166.87 61.94 167.22 59.12 167.57 56.01 167.92 59.12 168.27 58.38 168.62 56.9 168.97 59.86 169.32 57.35 169.67 57.79 170.01 61.35 170.36 60.61 170.71 60.75 171.06 62.38 171.41 62.38 171.76 59.57 172.11 60.61 172.46 58.98 172.81 60.61 173.16 60.31 173.51 56.16 173.86 54.53 174.2 55.57 174.55 52.16 174.9 50.98 175.25 50.98 175.6 52.46 175.95 53.64 176.3 51.42 176.65 51.57 177 53.05 177.35 54.38 177.7 53.64 178.04 54.24 178.39 52.75 178.74 54.98 179.09 54.24 179.44 55.42 179.79 56.16 180.14 58.24 180.49 59.42 180.84 61.05 181.19 61.94 181.54 62.68 181.89 59.72 182.23 57.05 182.58 56.31 182.93 54.83 183.28 56.75 183.63 54.09 183.98 51.27 184.33 52.01 184.68 51.27 185.03 51.87 185.38 50.83 185.73 47.42 186.08 47.27 186.42 47.13 186.77 49.05 187.12 50.83 187.47 50.53 187.82 55.12 188.17 55.27 188.52 56.01 188.87 57.79 189.22 55.87 189.57 53.94 189.92 55.12 190.26 57.49 190.61 61.49 190.96 58.68 191.31 56.61 191.66 60.46 192.01 56.01 192.36 54.53 192.71 53.05 193.06 53.64 193.41 56.16 193.76 53.2 194.11 53.5 194.45 50.83 194.8 50.38 195.15 48.61 195.5 50.53 195.85 50.98 196.2 52.75"/>
      </g>
      <g stroke-width="0.3" fill="#000000" fill-opacity="0.000" class="geometry" stroke-dasharray="none" stroke="#E6F598" id="img-f7e8f564-13">
        <path fill="none" d="M21.98,71.86 L 22.33 71.42 22.68 70.53 23.03 69.94 23.38 70.38 23.73 69.2 24.08 62.09 24.42 61.79 24.77 60.9 25.12 63.72 25.47 62.38 25.82 60.61 26.17 59.27 26.52 56.9 26.87 58.68 27.22 58.83 27.57 59.72 27.92 63.27 28.27 61.2 28.61 60.61 28.96 60.46 29.31 58.83 29.66 61.05 30.01 61.79 30.36 60.61 30.71 60.9 31.06 59.27 31.41 60.9 31.76 60.31 32.11 62.09 32.45 59.27 32.8 60.46 33.15 56.61 33.5 53.94 33.85 54.53 34.2 55.87 34.55 55.27 34.9 54.83 35.25 51.87 35.6 54.24 35.95 51.87 36.3 51.13 36.64 46.24 36.99 42.98 37.34 44.46 37.69 45.2 38.04 43.42 38.39 42.24 38.74 42.24 39.09 41.35 39.44 39.13 39.79 40.61 40.14 38.24 40.49 40.9 40.83 38.68 41.18 40.31 41.53 41.05 41.88 41.94 42.23 40.16 42.58 39.13 42.93 40.9 43.28 42.39 43.63 41.79 43.98 41.5 44.33 40.76 44.67 39.13 45.02 40.31 45.37 42.83 45.72 43.13 46.07 40.61 46.42 41.79 46.77 44.46 47.12 42.24 47.47 40.46 47.82 38.24 48.17 40.31 48.52 42.68 48.86 43.72 49.21 43.27 49.56 43.87 49.91 43.13 50.26 46.24 50.61 46.39 50.96 45.2 51.31 45.05 51.66 46.09 52.01 42.98 52.36 41.2 52.7 40.31 53.05 38.98 53.4 40.16 53.75 43.42 54.1 45.79 54.45 46.53 54.8 47.72 55.15 48.76 55.5 53.35 55.85 51.42 56.2 52.16 56.55 50.38 56.89 51.57 57.24 50.09 57.59 49.64 57.94 48.31 58.29 47.42 58.64 45.05 58.99 45.2 59.34 46.09 59.69 46.98 60.04 46.68 60.39 44.61 60.73 43.72 61.08 43.42 61.43 44.46 61.78 43.57 62.13 44.31 62.48 46.39 62.83 43.72 63.18 41.64 63.53 40.31 63.88 38.53 64.23 36.16 64.58 35.57 64.92 33.65 65.27 36.76 65.62 38.09 65.97 35.72 66.32 34.68 66.67 34.68 67.02 35.57 67.37 33.79 67.72 35.87 68.07 35.42 68.42 36.16 68.77 36.46 69.11 36.31 69.46 39.13 69.81 40.76 70.16 41.79 70.51 41.35 70.86 42.83 71.21 43.27 71.56 41.79 71.91 40.31 72.26 40.31 72.61 42.68 72.95 43.13 73.3 41.64 73.65 42.68 74 42.53 74.35 45.79 74.7 43.42 75.05 44.16 75.4 44.76 75.75 43.87 76.1 44.16 76.45 46.24 76.8 48.76 77.14 47.87 77.49 49.2 77.84 50.68 78.19 51.27 78.54 46.68 78.89 47.42 79.24 44.9 79.59 46.24 79.94 44.61 80.29 44.02 80.64 43.13 80.98 43.13 81.33 41.05 81.68 39.27 82.03 37.65 82.38 37.35 82.73 35.72 83.08 36.02 83.43 36.46 83.78 35.87 84.13 35.57 84.48 34.24 84.83 34.39 85.17 33.2 85.52 32.46 85.87 34.39 86.22 35.28 86.57 36.9 86.92 37.2 87.27 38.39 87.62 40.16 87.97 39.57 88.32 36.31 88.67 36.9 89.02 36.46 89.36 36.61 89.71 40.31 90.06 41.5 90.41 45.64 90.76 46.39 91.11 45.94 91.46 44.46 91.81 44.9 92.16 48.01 92.51 46.09 92.86 44.76 93.2 46.98 93.55 50.53 93.9 51.42 94.25 49.2 94.6 51.57 94.95 55.27 95.3 54.68 95.65 51.57 96 50.98 96.35 51.42 96.7 51.13 97.05 53.64 97.39 58.09 97.74 58.38 98.09 60.9 98.44 63.72 98.79 62.68 99.14 64.16 99.49 63.86 99.84 67.86 100.19 68.01 100.54 68.31 100.89 68.01 101.23 67.72 101.58 68.75 101.93 65.49 102.28 66.98 102.63 62.98 102.98 62.23 103.33 63.27 103.68 60.75 104.03 60.16 104.38 64.61 104.73 61.94 105.08 62.98 105.42 64.31 105.77 64.9 106.12 66.23 106.47 66.83 106.82 65.49 107.17 67.12 107.52 65.05 107.87 66.53 108.22 65.35 108.57 63.42 108.92 66.83 109.26 66.38 109.61 65.2 109.96 70.09 110.31 71.57 110.66 74.53 111.01 74.83 111.36 76.16 111.71 74.53 112.06 77.05 112.41 78.68 112.76 77.49 113.11 80.9 113.45 78.68 113.8 77.2 114.15 76.75 114.5 79.57 114.85 75.27 115.2 77.49 115.55 80.75 115.9 81.34 116.25 82.53 116.6 84.01 116.95 82.08 117.3 80.9 117.64 78.53 117.99 79.71 118.34 81.79 118.69 78.38 119.04 76.9 119.39 77.79 119.74 77.34 120.09 77.34 120.44 80.16 120.79 81.49 121.14 79.86 121.48 84.75 121.83 81.94 122.18 80.31 122.53 78.83 122.88 80.31 123.23 77.34 123.58 77.64 123.93 76.46 124.28 73.2 124.63 69.05 124.98 67.42 125.33 65.2 125.67 64.01 126.02 61.35 126.37 60.31 126.72 58.83 127.07 57.35 127.42 58.09 127.77 61.05 128.12 59.86 128.47 59.57 128.82 61.2 129.17 59.57 129.51 57.05 129.86 58.83 130.21 57.79 130.56 58.24 130.91 61.35 131.26 61.64 131.61 60.61 131.96 57.35 132.31 56.46 132.66 54.83 133.01 54.98 133.36 54.68 133.7 54.24 134.05 52.46 134.4 56.01 134.75 55.72 135.1 52.61 135.45 49.2 135.8 50.09 136.15 51.87 136.5 50.53 136.85 50.83 137.2 51.72 137.55 49.5 137.89 47.27 138.24 45.05 138.59 47.13 138.94 47.72 139.29 50.68 139.64 49.35 139.99 49.2 140.34 45.64 140.69 47.72 141.04 47.42 141.39 47.13 141.73 50.68 142.08 52.9 142.43 52.01 142.78 53.64 143.13 52.01 143.48 53.5 143.83 56.46 144.18 56.16 144.53 55.72 144.88 56.9 145.23 57.94 145.58 58.38 145.92 56.16 146.27 55.12 146.62 55.72 146.97 52.46 147.32 52.16 147.67 52.9 148.02 53.05 148.37 53.35 148.72 55.72 149.07 55.12 149.42 57.2 149.76 52.9 150.11 53.05 150.46 54.09 150.81 52.31 151.16 54.09 151.51 51.27 151.86 49.94 152.21 51.72 152.56 51.42 152.91 49.5 153.26 46.83 153.61 44.16 153.95 44.76 154.3 41.35 154.65 44.46 155 45.79 155.35 48.9 155.7 45.5 156.05 45.79 156.4 48.46 156.75 51.42 157.1 49.94 157.45 49.05 157.79 48.01 158.14 47.27 158.49 47.72 158.84 49.64 159.19 50.24 159.54 48.46 159.89 50.38 160.24 52.9 160.59 54.68 160.94 55.72 161.29 55.87 161.64 56.75 161.98 58.38 162.33 57.49 162.68 57.2 163.03 58.83 163.38 55.87 163.73 55.87 164.08 57.05 164.43 56.46 164.78 58.68 165.13 60.46 165.48 57.35 165.83 60.61 166.17 62.83 166.52 63.72 166.87 62.68 167.22 62.38 167.57 61.94 167.92 61.94 168.27 63.72 168.62 63.86 168.97 63.42 169.32 61.64 169.67 65.79 170.01 68.16 170.36 67.42 170.71 67.57 171.06 67.12 171.41 68.9 171.76 68.75 172.11 62.68 172.46 64.9 172.81 65.05 173.16 63.12 173.51 68.31 173.86 70.09 174.2 68.16 174.55 68.6 174.9 66.23 175.25 68.46 175.6 68.75 175.95 71.27 176.3 71.27 176.65 70.97 177 72.16 177.35 71.72 177.7 71.72 178.04 75.42 178.39 72.31 178.74 74.09 179.09 73.49 179.44 71.27 179.79 74.83 180.14 73.34 180.49 72.75 180.84 73.2 181.19 72.6 181.54 72.16 181.89 71.72 182.23 70.38 182.58 70.83 182.93 72.01 183.28 71.27 183.63 74.38 183.98 72.9 184.33 73.05 184.68 75.57 185.03 78.53 185.38 79.71 185.73 81.79 186.08 84.9 186.42 81.49 186.77 77.94 187.12 78.23 187.47 76.01 187.82 77.05 188.17 79.57 188.52 79.71 188.87 84.01 189.22 83.86 189.57 86.97 189.92 84.45 190.26 84.31 190.61 83.12 190.96 81.94 191.31 81.94 191.66 80.75 192.01 80.9 192.36 82.08 192.71 81.64 193.06 81.79 193.41 80.6 193.76 79.86 194.11 81.2 194.45 84.16 194.8 81.64 195.15 76.75 195.5 77.2 195.85 78.83 196.2 78.38"/>
      </g>
      <g stroke-width="0.3" fill="#000000" fill-opacity="0.000" class="geometry" stroke-dasharray="none" stroke="#FFFFBF" id="img-f7e8f564-14">
        <path fill="none" d="M21.98,71.86 L 22.33 69.94 22.68 73.2 23.03 74.97 23.38 73.2 23.73 70.38 24.08 72.75 24.42 71.42 24.77 70.83 25.12 67.12 25.47 69.05 25.82 70.23 26.17 71.27 26.52 67.12 26.87 65.49 27.22 65.05 27.57 63.12 27.92 60.46 28.27 63.27 28.61 61.79 28.96 64.75 29.31 66.98 29.66 66.23 30.01 65.49 30.36 61.94 30.71 61.79 31.06 63.42 31.41 63.42 31.76 64.31 32.11 66.68 32.45 65.79 32.8 62.98 33.15 63.57 33.5 65.2 33.85 67.57 34.2 67.12 34.55 69.64 34.9 67.57 35.25 69.79 35.6 68.6 35.95 67.86 36.3 72.6 36.64 68.9 36.99 67.57 37.34 64.9 37.69 65.35 38.04 62.68 38.39 62.83 38.74 65.35 39.09 68.6 39.44 66.68 39.79 66.23 40.14 66.98 40.49 65.94 40.83 69.05 41.18 71.12 41.53 72.31 41.88 72.16 42.23 70.83 42.58 70.97 42.93 71.42 43.28 73.05 43.63 70.53 43.98 66.68 44.33 62.23 44.67 61.35 45.02 61.35 45.37 58.53 45.72 55.57 46.07 54.38 46.42 52.46 46.77 50.83 47.12 53.5 47.47 52.16 47.82 51.87 48.17 53.79 48.52 49.64 48.86 46.53 49.21 47.72 49.56 46.24 49.91 47.27 50.26 46.24 50.61 43.72 50.96 41.64 51.31 41.79 51.66 40.46 52.01 39.27 52.36 40.61 52.7 39.13 53.05 38.39 53.4 35.28 53.75 33.05 54.1 32.16 54.45 32.02 54.8 31.87 55.15 32.46 55.5 33.94 55.85 38.98 56.2 38.68 56.55 39.27 56.89 37.65 57.24 37.5 57.59 37.94 57.94 36.61 58.29 37.5 58.64 37.5 58.99 38.24 59.34 40.16 59.69 42.09 60.04 41.94 60.39 43.13 60.73 45.35 61.08 48.76 61.43 44.76 61.78 45.79 62.13 47.72 62.48 42.83 62.83 40.31 63.18 38.83 63.53 39.27 63.88 38.83 64.23 36.16 64.58 36.61 64.92 37.05 65.27 36.02 65.62 37.65 65.97 36.02 66.32 33.79 66.67 31.72 67.02 32.76 67.37 32.76 67.72 30.54 68.07 29.79 68.42 29.05 68.77 30.09 69.11 32.76 69.46 32.61 69.81 31.28 70.16 31.28 70.51 32.16 70.86 31.57 71.21 31.72 71.56 33.35 71.91 34.53 72.26 33.79 72.61 31.13 72.95 31.87 73.3 30.98 73.65 32.61 74 32.61 74.35 35.57 74.7 34.98 75.05 30.83 75.4 32.46 75.75 35.13 76.1 35.13 76.45 34.98 76.8 34.98 77.14 36.46 77.49 36.76 77.84 37.5 78.19 38.53 78.54 39.27 78.89 40.46 79.24 42.98 79.59 43.27 79.94 41.94 80.29 47.13 80.64 46.98 80.98 48.16 81.33 47.27 81.68 47.72 82.03 49.05 82.38 48.16 82.73 47.13 83.08 48.16 83.43 48.61 83.78 48.16 84.13 46.09 84.48 45.94 84.83 48.01 85.17 46.98 85.52 45.05 85.87 46.98 86.22 49.2 86.57 47.27 86.92 46.98 87.27 42.98 87.62 42.83 87.97 42.09 88.32 42.09 88.67 43.57 89.02 40.61 89.36 40.16 89.71 44.16 90.06 44.76 90.41 49.79 90.76 47.27 91.11 47.72 91.46 51.72 91.81 54.24 92.16 56.31 92.51 59.86 92.86 62.83 93.2 63.27 93.55 60.31 93.9 61.49 94.25 65.05 94.6 63.42 94.95 65.35 95.3 69.35 95.65 71.86 96 68.31 96.35 64.31 96.7 62.53 97.05 60.16 97.39 58.83 97.74 57.49 98.09 53.94 98.44 54.38 98.79 57.2 99.14 56.61 99.49 51.57 99.84 50.53 100.19 49.64 100.54 47.13 100.89 45.2 101.23 50.38 101.58 48.61 101.93 49.2 102.28 50.98 102.63 49.05 102.98 44.02 103.33 45.94 103.68 46.68 104.03 48.31 104.38 50.09 104.73 52.01 105.08 50.98 105.42 48.16 105.77 45.94 106.12 49.64 106.47 51.57 106.82 50.09 107.17 47.13 107.52 47.87 107.87 47.27 108.22 48.76 108.57 47.13 108.92 47.57 109.26 46.98 109.61 46.24 109.96 42.98 110.31 41.94 110.66 42.53 111.01 42.68 111.36 42.68 111.71 42.39 112.06 41.5 112.41 41.64 112.76 43.13 113.11 42.83 113.45 46.53 113.8 49.64 114.15 48.31 114.5 49.94 114.85 47.72 115.2 51.57 115.55 53.64 115.9 53.64 116.25 52.9 116.6 55.57 116.95 54.09 117.3 52.16 117.64 53.35 117.99 56.75 118.34 56.16 118.69 56.75 119.04 54.83 119.39 53.05 119.74 52.75 120.09 49.2 120.44 46.68 120.79 44.61 121.14 44.46 121.48 43.27 121.83 40.76 122.18 39.72 122.53 39.42 122.88 38.68 123.23 37.35 123.58 38.53 123.93 38.53 124.28 38.24 124.63 37.2 124.98 37.2 125.33 34.24 125.67 36.76 126.02 37.05 126.37 37.2 126.72 36.31 127.07 39.27 127.42 40.02 127.77 36.76 128.12 39.87 128.47 42.98 128.82 42.24 129.17 42.09 129.51 41.5 129.86 41.35 130.21 38.83 130.56 40.31 130.91 40.02 131.26 41.5 131.61 42.24 131.96 45.94 132.31 46.98 132.66 45.05 133.01 43.72 133.36 43.13 133.7 43.57 134.05 42.53 134.4 42.09 134.75 41.94 135.1 44.46 135.45 44.76 135.8 44.9 136.15 45.94 136.5 46.39 136.85 48.46 137.2 45.2 137.55 44.46 137.89 44.46 138.24 44.46 138.59 43.57 138.94 42.68 139.29 44.16 139.64 45.64 139.99 43.72 140.34 43.13 140.69 43.87 141.04 42.39 141.39 41.35 141.73 42.24 142.08 41.35 142.43 40.9 142.78 38.68 143.13 38.53 143.48 40.02 143.83 43.87 144.18 44.16 144.53 43.57 144.88 40.61 145.23 38.53 145.58 36.16 145.92 35.13 146.27 34.68 146.62 33.05 146.97 34.98 147.32 36.9 147.67 37.94 148.02 39.87 148.37 37.65 148.72 37.65 149.07 37.05 149.42 32.91 149.76 33.2 150.11 33.94 150.46 30.83 150.81 31.87 151.16 32.46 151.51 33.35 151.86 32.76 152.21 35.57 152.56 35.57 152.91 35.28 153.26 32.31 153.61 33.94 153.95 34.24 154.3 38.83 154.65 37.79 155 38.24 155.35 36.76 155.7 38.24 156.05 34.39 156.4 33.65 156.75 31.28 157.1 32.02 157.45 31.87 157.79 30.83 158.14 30.24 158.49 32.02 158.84 32.02 159.19 31.42 159.54 29.5 159.89 31.87 160.24 33.35 160.59 34.68 160.94 34.68 161.29 36.16 161.64 38.24 161.98 37.05 162.33 40.46 162.68 44.16 163.03 43.42 163.38 43.72 163.73 44.02 164.08 39.87 164.43 41.05 164.78 40.46 165.13 40.61 165.48 41.5 165.83 40.16 166.17 36.16 166.52 38.83 166.87 39.42 167.22 39.57 167.57 38.09 167.92 36.9 168.27 37.65 168.62 38.09 168.97 36.9 169.32 40.02 169.67 42.83 170.01 39.57 170.36 40.31 170.71 37.5 171.06 37.2 171.41 37.05 171.76 38.39 172.11 40.61 172.46 40.31 172.81 40.9 173.16 37.94 173.51 36.76 173.86 39.72 174.2 38.98 174.55 35.87 174.9 36.9 175.25 35.57 175.6 37.65 175.95 37.94 176.3 34.98 176.65 34.39 177 34.24 177.35 31.87 177.7 33.2 178.04 34.98 178.39 34.83 178.74 32.76 179.09 35.28 179.44 32.61 179.79 33.5 180.14 32.02 180.49 27.57 180.84 27.57 181.19 24.31 181.54 23.72 181.89 25.2 182.23 26.24 182.58 28.02 182.93 29.2 183.28 26.98 183.63 25.2 183.98 24.76 184.33 25.05 184.68 24.61 185.03 24.17 185.38 21.94 185.73 21.94 186.08 22.24 186.42 22.68 186.77 22.24 187.12 20.02 187.47 19.72 187.82 21.06 188.17 21.2 188.52 20.31 188.87 20.61 189.22 19.72 189.57 18.83 189.92 19.57 190.26 20.17 190.61 20.46 190.96 21.2 191.31 22.54 191.66 20.91 192.01 23.57 192.36 22.54 192.71 22.24 193.06 22.98 193.41 24.61 193.76 24.17 194.11 23.57 194.45 25.65 194.8 26.54 195.15 28.46 195.5 27.57 195.85 26.68 196.2 26.39"/>
      </g>
      <g stroke-width="0.3" fill="#000000" fill-opacity="0.000" class="geometry" stroke-dasharray="none" stroke="#FEE08B" id="img-f7e8f564-15">
        <path fill="none" d="M21.98,71.86 L 22.33 73.34 22.68 72.9 23.03 71.57 23.38 71.42 23.73 71.12 24.08 68.6 24.42 66.68 24.77 64.46 25.12 65.35 25.47 64.16 25.82 66.83 26.17 65.94 26.52 66.09 26.87 62.83 27.22 62.23 27.57 63.12 27.92 60.75 28.27 59.72 28.61 63.27 28.96 66.09 29.31 63.86 29.66 62.83 30.01 60.61 30.36 60.61 30.71 60.31 31.06 58.09 31.41 61.64 31.76 62.38 32.11 64.61 32.45 64.16 32.8 65.94 33.15 67.86 33.5 69.64 33.85 70.83 34.2 70.38 34.55 69.64 34.9 68.16 35.25 71.72 35.6 69.94 35.95 72.16 36.3 74.23 36.64 77.05 36.99 77.49 37.34 79.27 37.69 80.45 38.04 77.79 38.39 79.42 38.74 80.6 39.09 80.01 39.44 81.79 39.79 82.38 40.14 84.16 40.49 83.57 40.83 84.16 41.18 83.57 41.53 85.64 41.88 85.79 42.23 85.49 42.58 86.38 42.93 86.38 43.28 89.79 43.63 87.42 43.98 86.38 44.33 82.82 44.67 83.42 45.02 82.68 45.37 84.6 45.72 84.31 46.07 85.64 46.42 86.08 46.77 87.86 47.12 89.34 47.47 87.71 47.82 89.64 48.17 91.27 48.52 89.64 48.86 88.75 49.21 89.94 49.56 92.16 49.91 94.23 50.26 96.6 50.61 94.38 50.96 94.68 51.31 94.38 51.66 92.6 52.01 88.75 52.36 87.57 52.7 85.19 53.05 84.9 53.4 84.75 53.75 82.53 54.1 80.16 54.45 82.38 54.8 81.94 55.15 86.23 55.5 88.31 55.85 87.42 56.2 86.97 56.55 85.19 56.89 85.79 57.24 86.82 57.59 87.42 57.94 88.31 58.29 88.01 58.64 87.71 58.99 87.12 59.34 86.68 59.69 89.64 60.04 88.45 60.39 88.9 60.73 89.19 61.08 90.23 61.43 90.97 61.78 90.38 62.13 88.9 62.48 87.12 62.83 85.19 63.18 85.94 63.53 89.05 63.88 89.49 64.23 92.31 64.58 89.34 64.92 86.68 65.27 85.64 65.62 87.12 65.97 88.6 66.32 86.68 66.67 85.79 67.02 86.08 67.37 88.6 67.72 89.34 68.07 88.75 68.42 91.12 68.77 90.68 69.11 93.05 69.46 96.16 69.81 92.16 70.16 90.97 70.51 91.71 70.86 90.38 71.21 89.94 71.56 92.31 71.91 93.49 72.26 94.97 72.61 97.05 72.95 95.42 73.3 94.08 73.65 97.19 74 96.6 74.35 96.01 74.7 93.49 75.05 90.23 75.4 91.56 75.75 90.97 76.1 91.42 76.45 94.08 76.8 92.31 77.14 89.94 77.49 92.45 77.84 89.19 78.19 88.45 78.54 85.79 78.89 84.75 79.24 82.68 79.59 85.49 79.94 87.42 80.29 86.38 80.64 87.71 80.98 87.71 81.33 86.23 81.68 87.71 82.03 87.42 82.38 90.38 82.73 91.27 83.08 91.56 83.43 92.9 83.78 91.56 84.13 90.38 84.48 90.68 84.83 90.23 85.17 90.23 85.52 88.9 85.87 90.82 86.22 93.93 86.57 92.6 86.92 95.56 87.27 96.01 87.62 96.9 87.97 96.16 88.32 93.49 88.67 89.94 89.02 90.82 89.36 91.71 89.71 90.38 90.06 90.08 90.41 88.16 90.76 89.94 91.11 92.01 91.46 91.56 91.81 93.19 92.16 92.16 92.51 93.93 92.86 92.6 93.2 92.45 93.55 93.49 93.9 90.23 94.25 88.9 94.6 93.19 94.95 96.6 95.3 96.16 95.65 94.97 96 94.38 96.35 97.34 96.7 95.86 97.05 94.23 97.39 93.93 97.74 96.45 98.09 95.71 98.44 91.86 98.79 92.9 99.14 90.23 99.49 87.86 99.84 86.23 100.19 86.38 100.54 79.57 100.89 77.94 101.23 77.94 101.58 75.86 101.93 77.49 102.28 75.57 102.63 74.68 102.98 72.16 103.33 73.34 103.68 69.79 104.03 69.05 104.38 72.31 104.73 71.57 105.08 73.49 105.42 72.01 105.77 69.49 106.12 68.75 106.47 68.01 106.82 67.42 107.17 65.35 107.52 65.64 107.87 62.38 108.22 61.94 108.57 64.9 108.92 65.94 109.26 66.38 109.61 64.9 109.96 64.75 110.31 65.94 110.66 66.98 111.01 65.49 111.36 68.16 111.71 63.42 112.06 65.05 112.41 64.75 112.76 64.01 113.11 64.01 113.45 62.83 113.8 66.09 114.15 67.57 114.5 65.64 114.85 66.38 115.2 64.46 115.55 65.35 115.9 67.57 116.25 66.53 116.6 64.31 116.95 65.35 117.3 63.42 117.64 61.94 117.99 62.68 118.34 62.98 118.69 61.79 119.04 59.27 119.39 54.98 119.74 54.98 120.09 54.68 120.44 56.75 120.79 56.75 121.14 56.01 121.48 56.46 121.83 56.46 122.18 56.31 122.53 56.9 122.88 58.38 123.23 58.53 123.58 60.61 123.93 58.68 124.28 60.9 124.63 61.64 124.98 60.01 125.33 62.09 125.67 61.79 126.02 64.16 126.37 59.42 126.72 58.38 127.07 58.98 127.42 59.86 127.77 58.83 128.12 58.98 128.47 62.38 128.82 65.35 129.17 66.38 129.51 65.79 129.86 66.83 130.21 65.49 130.56 65.94 130.91 64.75 131.26 62.38 131.61 62.68 131.96 65.94 132.31 65.79 132.66 64.46 133.01 66.38 133.36 66.38 133.7 65.94 134.05 69.05 134.4 67.72 134.75 66.53 135.1 67.57 135.45 64.01 135.8 65.05 136.15 66.09 136.5 65.05 136.85 64.9 137.2 65.49 137.55 62.53 137.89 63.12 138.24 60.9 138.59 59.86 138.94 59.12 139.29 61.79 139.64 62.68 139.99 62.53 140.34 63.27 140.69 61.49 141.04 64.16 141.39 64.9 141.73 66.68 142.08 66.98 142.43 67.27 142.78 67.72 143.13 70.09 143.48 70.23 143.83 70.68 144.18 68.16 144.53 69.05 144.88 64.75 145.23 63.27 145.58 64.75 145.92 66.68 146.27 67.86 146.62 65.49 146.97 61.05 147.32 63.57 147.67 63.57 148.02 59.57 148.37 61.05 148.72 62.38 149.07 63.12 149.42 59.86 149.76 59.57 150.11 59.57 150.46 61.94 150.81 61.35 151.16 57.64 151.51 51.72 151.86 52.61 152.21 53.64 152.56 52.75 152.91 50.83 153.26 48.9 153.61 48.61 153.95 48.31 154.3 47.42 154.65 47.42 155 46.68 155.35 42.98 155.7 40.16 156.05 40.16 156.4 41.35 156.75 43.27 157.1 44.76 157.45 46.24 157.79 45.35 158.14 44.16 158.49 45.2 158.84 43.72 159.19 44.31 159.54 45.64 159.89 49.79 160.24 48.61 160.59 45.5 160.94 44.16 161.29 45.5 161.64 44.61 161.98 42.83 162.33 43.72 162.68 40.31 163.03 40.31 163.38 40.02 163.73 40.31 164.08 40.31 164.43 39.13 164.78 38.09 165.13 40.31 165.48 39.72 165.83 39.57 166.17 40.46 166.52 41.05 166.87 43.27 167.22 43.42 167.57 42.68 167.92 43.13 168.27 42.39 168.62 41.64 168.97 44.16 169.32 43.42 169.67 46.68 170.01 48.01 170.36 49.35 170.71 48.01 171.06 50.24 171.41 53.35 171.76 48.31 172.11 45.94 172.46 45.35 172.81 46.09 173.16 45.79 173.51 43.13 173.86 45.94 174.2 46.24 174.55 45.5 174.9 42.83 175.25 42.53 175.6 41.05 175.95 40.31 176.3 41.94 176.65 44.76 177 45.2 177.35 44.76 177.7 43.42 178.04 42.53 178.39 38.83 178.74 39.42 179.09 40.76 179.44 39.42 179.79 39.13 180.14 41.5 180.49 43.72 180.84 43.57 181.19 44.31 181.54 47.27 181.89 46.98 182.23 48.31 182.58 48.76 182.93 48.9 183.28 50.38 183.63 48.46 183.98 47.87 184.33 49.5 184.68 50.98 185.03 49.2 185.38 51.87 185.73 49.94 186.08 47.87 186.42 49.05 186.77 50.09 187.12 50.98 187.47 51.87 187.82 53.94 188.17 56.01 188.52 53.35 188.87 52.16 189.22 52.61 189.57 48.31 189.92 46.98 190.26 45.64 190.61 44.31 190.96 43.57 191.31 45.5 191.66 45.79 192.01 43.27 192.36 44.16 192.71 45.79 193.06 43.87 193.41 45.5 193.76 46.09 194.11 46.98 194.45 45.94 194.8 45.35 195.15 43.57 195.5 45.05 195.85 46.98 196.2 49.35"/>
      </g>
      <g stroke-width="0.3" fill="#000000" fill-opacity="0.000" class="geometry" stroke-dasharray="none" stroke="#FDAE61" id="img-f7e8f564-16">
        <path fill="none" d="M21.98,71.86 L 22.33 70.68 22.68 70.38 23.03 67.86 23.38 69.05 23.73 68.6 24.08 68.9 24.42 66.53 24.77 65.64 25.12 67.12 25.47 68.75 25.82 70.09 26.17 69.79 26.52 70.83 26.87 70.09 27.22 69.64 27.57 70.68 27.92 69.64 28.27 69.49 28.61 67.86 28.96 66.98 29.31 64.01 29.66 61.49 30.01 61.35 30.36 62.09 30.71 62.09 31.06 60.31 31.41 64.01 31.76 65.05 32.11 61.64 32.45 61.79 32.8 60.31 33.15 60.75 33.5 61.64 33.85 59.57 34.2 56.9 34.55 60.16 34.9 58.98 35.25 60.16 35.6 58.53 35.95 60.46 36.3 58.38 36.64 58.98 36.99 61.79 37.34 60.31 37.69 63.57 38.04 62.38 38.39 64.01 38.74 62.23 39.09 65.2 39.44 67.27 39.79 67.57 40.14 65.05 40.49 61.05 40.83 59.86 41.18 59.27 41.53 60.9 41.88 61.79 42.23 61.2 42.58 62.98 42.93 65.49 43.28 67.12 43.63 68.46 43.98 69.94 44.33 71.12 44.67 70.53 45.02 70.68 45.37 71.86 45.72 66.83 46.07 68.46 46.42 68.75 46.77 68.9 47.12 70.83 47.47 67.86 47.82 68.01 48.17 65.79 48.52 64.75 48.86 64.46 49.21 68.01 49.56 71.12 49.91 68.31 50.26 64.16 50.61 66.23 50.96 64.46 51.31 63.12 51.66 59.86 52.01 60.46 52.36 60.31 52.7 57.05 53.05 58.98 53.4 58.53 53.75 58.83 54.1 59.12 54.45 61.35 54.8 59.27 55.15 60.01 55.5 58.09 55.85 53.35 56.2 50.83 56.55 50.09 56.89 49.64 57.24 52.75 57.59 51.27 57.94 48.76 58.29 48.16 58.64 48.01 58.99 47.57 59.34 45.94 59.69 46.24 60.04 45.94 60.39 45.94 60.73 43.13 61.08 46.39 61.43 46.09 61.78 43.57 62.13 43.72 62.48 38.09 62.83 36.46 63.18 35.87 63.53 36.76 63.88 38.83 64.23 38.83 64.58 39.87 64.92 40.31 65.27 42.24 65.62 42.68 65.97 43.27 66.32 43.27 66.67 42.09 67.02 43.13 67.37 44.31 67.72 45.5 68.07 44.31 68.42 43.13 68.77 45.35 69.11 44.9 69.46 44.46 69.81 46.53 70.16 45.5 70.51 43.42 70.86 42.24 71.21 37.94 71.56 38.68 71.91 38.68 72.26 39.27 72.61 41.35 72.95 41.05 73.3 39.13 73.65 39.57 74 38.68 74.35 39.42 74.7 42.09 75.05 42.83 75.4 43.13 75.75 40.46 76.1 36.46 76.45 37.35 76.8 35.72 77.14 35.57 77.49 37.65 77.84 35.72 78.19 35.42 78.54 36.16 78.89 38.24 79.24 38.53 79.59 36.61 79.94 37.79 80.29 41.2 80.64 39.87 80.98 39.42 81.33 40.46 81.68 43.42 82.03 44.16 82.38 44.46 82.73 44.61 83.08 42.83 83.43 38.68 83.78 39.27 84.13 40.61 84.48 38.53 84.83 36.16 85.17 36.46 85.52 35.42 85.87 34.68 86.22 36.61 86.57 38.83 86.92 39.72 87.27 41.05 87.62 37.2 87.97 36.31 88.32 38.24 88.67 37.35 89.02 37.5 89.36 38.24 89.71 38.83 90.06 37.5 90.41 39.27 90.76 40.61 91.11 40.76 91.46 39.57 91.81 38.98 92.16 37.79 92.51 35.87 92.86 36.61 93.2 38.39 93.55 37.94 93.9 37.65 94.25 39.72 94.6 36.9 94.95 38.39 95.3 37.5 95.65 36.9 96 39.27 96.35 39.13 96.7 38.39 97.05 39.27 97.39 37.94 97.74 38.68 98.09 40.76 98.44 38.98 98.79 40.61 99.14 39.57 99.49 41.2 99.84 41.35 100.19 40.16 100.54 40.61 100.89 41.64 101.23 40.9 101.58 40.9 101.93 44.02 102.28 46.24 102.63 43.72 102.98 47.27 103.33 46.98 103.68 46.09 104.03 45.79 104.38 45.35 104.73 44.02 105.08 43.57 105.42 41.5 105.77 39.57 106.12 41.2 106.47 39.57 106.82 38.83 107.17 36.9 107.52 35.57 107.87 35.28 108.22 36.02 108.57 38.98 108.92 41.79 109.26 42.39 109.61 40.02 109.96 37.2 110.31 37.65 110.66 37.5 111.01 38.53 111.36 39.72 111.71 38.53 112.06 40.02 112.41 36.02 112.76 36.9 113.11 34.24 113.45 32.61 113.8 31.28 114.15 31.13 114.5 29.5 114.85 29.65 115.2 28.17 115.55 28.46 115.9 26.09 116.25 24.31 116.6 24.02 116.95 24.02 117.3 24.76 117.64 24.17 117.99 25.05 118.34 26.24 118.69 25.94 119.04 25.35 119.39 26.98 119.74 28.76 120.09 33.2 120.44 33.65 120.79 34.39 121.14 36.02 121.48 35.57 121.83 36.76 122.18 35.87 122.53 36.02 122.88 34.53 123.23 32.16 123.58 30.83 123.93 31.28 124.28 27.28 124.63 25.35 124.98 27.87 125.33 24.91 125.67 22.98 126.02 23.72 126.37 24.46 126.72 24.31 127.07 23.43 127.42 22.09 127.77 20.46 128.12 18.83 128.47 20.76 128.82 20.76 129.17 22.39 129.51 22.09 129.86 22.98 130.21 23.13 130.56 22.98 130.91 21.94 131.26 20.46 131.61 21.06 131.96 21.5 132.31 20.76 132.66 21.2 133.01 21.65 133.36 19.87 133.7 20.02 134.05 20.17 134.4 19.57 134.75 17.8 135.1 18.09 135.45 18.39 135.8 17.5 136.15 17.35 136.5 15.72 136.85 15.87 137.2 16.61 137.55 16.61 137.89 18.09 138.24 18.68 138.59 18.83 138.94 17.35 139.29 17.5 139.64 16.31 139.99 16.61 140.34 16.61 140.69 16.91 141.04 17.06 141.39 17.06 141.73 16.61 142.08 16.31 142.43 16.17 142.78 16.91 143.13 17.35 143.48 15.87 143.83 16.17 144.18 16.46 144.53 16.31 144.88 15.43 145.23 16.02 145.58 16.17 145.92 18.24 146.27 18.83 146.62 17.8 146.97 19.13 147.32 18.39 147.67 18.39 148.02 18.83 148.37 17.06 148.72 18.39 149.07 18.98 149.42 19.43 149.76 20.46 150.11 17.35 150.46 15.87 150.81 16.17 151.16 16.31 151.51 16.91 151.86 17.06 152.21 17.94 152.56 17.2 152.91 17.5 153.26 16.76 153.61 17.06 153.95 17.65 154.3 17.65 154.65 16.91 155 17.2 155.35 17.65 155.7 17.06 156.05 18.09 156.4 18.39 156.75 18.54 157.1 18.09 157.45 18.98 157.79 18.83 158.14 19.43 158.49 18.39 158.84 19.57 159.19 19.28 159.54 20.91 159.89 21.2 160.24 20.76 160.59 22.09 160.94 21.06 161.29 21.2 161.64 21.8 161.98 21.35 162.33 20.91 162.68 20.31 163.03 20.31 163.38 20.76 163.73 21.06 164.08 23.13 164.43 22.98 164.78 23.87 165.13 25.35 165.48 22.98 165.83 22.09 166.17 22.39 166.52 22.24 166.87 23.43 167.22 24.61 167.57 25.2 167.92 26.24 168.27 27.72 168.62 28.17 168.97 26.98 169.32 26.98 169.67 25.65 170.01 24.17 170.36 23.13 170.71 24.31 171.06 21.65 171.41 21.5 171.76 20.76 172.11 23.28 172.46 22.09 172.81 22.98 173.16 22.98 173.51 23.57 173.86 23.57 174.2 23.87 174.55 23.43 174.9 23.43 175.25 22.39 175.6 21.94 175.95 23.13 176.3 22.83 176.65 23.72 177 22.68 177.35 21.94 177.7 20.91 178.04 21.35 178.39 21.94 178.74 23.87 179.09 23.13 179.44 25.05 179.79 24.46 180.14 25.65 180.49 28.02 180.84 28.61 181.19 27.28 181.54 26.39 181.89 25.2 182.23 25.35 182.58 22.83 182.93 21.5 183.28 21.94 183.63 22.24 183.98 23.28 184.33 23.72 184.68 21.94 185.03 22.98 185.38 23.13 185.73 22.39 186.08 24.31 186.42 25.05 186.77 24.91 187.12 24.02 187.47 24.91 187.82 26.54 188.17 25.05 188.52 24.31 188.87 26.54 189.22 23.43 189.57 25.2 189.92 26.24 190.26 24.46 190.61 23.43 190.96 24.17 191.31 22.54 191.66 20.91 192.01 19.13 192.36 19.13 192.71 20.61 193.06 19.57 193.41 20.17 193.76 20.61 194.11 20.31 194.45 19.72 194.8 20.76 195.15 21.2 195.5 21.06 195.85 20.91 196.2 21.2"/>
      </g>
      <g stroke-width="0.3" fill="#000000" fill-opacity="0.000" class="geometry" stroke-dasharray="none" stroke="#F46D43" id="img-f7e8f564-17">
        <path fill="none" d="M21.98,71.86 L 22.33 73.05 22.68 70.97 23.03 68.46 23.38 67.12 23.73 65.35 24.08 69.2 24.42 66.68 24.77 63.57 25.12 59.42 25.47 56.61 25.82 55.27 26.17 55.27 26.52 52.46 26.87 48.16 27.22 50.38 27.57 49.2 27.92 50.83 28.27 52.46 28.61 54.24 28.96 53.64 29.31 53.79 29.66 55.27 30.01 53.64 30.36 54.68 30.71 55.42 31.06 57.64 31.41 57.79 31.76 59.27 32.11 63.12 32.45 61.64 32.8 63.12 33.15 60.75 33.5 61.35 33.85 57.64 34.2 62.68 34.55 63.72 34.9 65.49 35.25 65.49 35.6 65.64 35.95 62.98 36.3 64.01 36.64 62.38 36.99 64.61 37.34 63.72 37.69 63.27 38.04 60.16 38.39 60.31 38.74 59.57 39.09 59.42 39.44 56.75 39.79 55.42 40.14 53.94 40.49 57.79 40.83 59.42 41.18 60.9 41.53 60.9 41.88 58.24 42.23 58.09 42.58 58.24 42.93 59.12 43.28 57.2 43.63 57.64 43.98 61.05 44.33 62.53 44.67 58.83 45.02 59.72 45.37 62.23 45.72 61.64 46.07 64.61 46.42 64.46 46.77 64.9 47.12 62.53 47.47 61.94 47.82 61.94 48.17 57.64 48.52 57.79 48.86 57.64 49.21 58.38 49.56 59.42 49.91 56.31 50.26 55.27 50.61 56.75 50.96 60.01 51.31 59.57 51.66 58.24 52.01 60.16 52.36 58.09 52.7 58.38 53.05 55.87 53.4 55.12 53.75 52.75 54.1 54.24 54.45 52.31 54.8 51.87 55.15 56.61 55.5 57.49 55.85 60.46 56.2 58.98 56.55 57.64 56.89 59.86 57.24 54.98 57.59 53.64 57.94 51.27 58.29 50.98 58.64 50.09 58.99 51.13 59.34 50.83 59.69 50.53 60.04 50.24 60.39 50.98 60.73 49.64 61.08 50.98 61.43 53.2 61.78 53.2 62.13 56.61 62.48 56.46 62.83 58.83 63.18 57.35 63.53 58.98 63.88 57.79 64.23 55.72 64.58 58.53 64.92 60.16 65.27 60.46 65.62 63.12 65.97 62.23 66.32 64.01 66.67 65.49 67.02 59.42 67.37 57.49 67.72 56.46 68.07 57.94 68.42 60.61 68.77 59.72 69.11 56.01 69.46 55.87 69.81 55.27 70.16 58.38 70.51 59.12 70.86 58.83 71.21 58.98 71.56 64.01 71.91 64.61 72.26 66.09 72.61 65.49 72.95 68.75 73.3 64.61 73.65 65.35 74 67.42 74.35 65.2 74.7 65.64 75.05 68.75 75.4 66.98 75.75 66.83 76.1 64.9 76.45 65.79 76.8 64.01 77.14 60.9 77.49 62.38 77.84 61.64 78.19 62.53 78.54 63.12 78.89 65.05 79.24 69.2 79.59 68.6 79.94 69.64 80.29 68.46 80.64 69.49 80.98 69.35 81.33 67.57 81.68 69.49 82.03 71.72 82.38 70.53 82.73 70.23 83.08 66.83 83.43 66.68 83.78 64.31 84.13 65.35 84.48 68.46 84.83 70.09 85.17 70.09 85.52 71.27 85.87 70.38 86.22 70.83 86.57 74.23 86.92 77.2 87.27 76.31 87.62 75.86 87.97 75.12 88.32 78.08 88.67 74.68 89.02 75.86 89.36 75.27 89.71 74.83 90.06 73.2 90.41 72.9 90.76 71.42 91.11 72.6 91.46 70.09 91.81 69.79 92.16 69.49 92.51 67.57 92.86 68.01 93.2 68.6 93.55 69.2 93.9 70.38 94.25 68.75 94.6 68.75 94.95 67.42 95.3 69.79 95.65 70.83 96 71.57 96.35 73.05 96.7 71.57 97.05 71.42 97.39 69.64 97.74 70.38 98.09 69.2 98.44 66.53 98.79 66.23 99.14 68.6 99.49 70.09 99.84 70.83 100.19 70.53 100.54 71.42 100.89 73.05 101.23 69.49 101.58 72.9 101.93 73.34 102.28 72.16 102.63 69.35 102.98 67.72 103.33 66.09 103.68 65.94 104.03 65.49 104.38 63.86 104.73 65.05 105.08 63.42 105.42 66.09 105.77 69.35 106.12 65.35 106.47 63.27 106.82 62.38 107.17 66.53 107.52 68.16 107.87 70.97 108.22 73.05 108.57 71.12 108.92 70.97 109.26 71.57 109.61 73.94 109.96 73.05 110.31 70.83 110.66 69.94 111.01 68.75 111.36 68.16 111.71 71.72 112.06 70.09 112.41 68.31 112.76 70.23 113.11 69.2 113.45 68.01 113.8 71.42 114.15 70.97 114.5 69.35 114.85 67.42 115.2 67.42 115.55 67.72 115.9 69.35 116.25 68.6 116.6 67.27 116.95 64.61 117.3 66.23 117.64 68.01 117.99 71.57 118.34 71.57 118.69 69.2 119.04 69.05 119.39 69.64 119.74 67.42 120.09 63.72 120.44 67.72 120.79 63.72 121.14 63.27 121.48 62.83 121.83 67.27 122.18 71.12 122.53 69.94 122.88 73.34 123.23 72.9 123.58 70.97 123.93 71.72 124.28 64.9 124.63 63.72 124.98 63.86 125.33 68.16 125.67 70.38 126.02 69.35 126.37 68.16 126.72 72.01 127.07 72.31 127.42 71.27 127.77 70.38 128.12 71.86 128.47 71.86 128.82 70.53 129.17 72.9 129.51 71.57 129.86 69.79 130.21 67.72 130.56 67.12 130.91 68.46 131.26 70.53 131.61 71.72 131.96 71.72 132.31 70.23 132.66 71.42 133.01 73.94 133.36 71.86 133.7 73.2 134.05 70.23 134.4 67.27 134.75 68.31 135.1 67.57 135.45 63.72 135.8 64.46 136.15 65.2 136.5 66.23 136.85 66.23 137.2 66.09 137.55 67.72 137.89 65.05 138.24 66.83 138.59 66.23 138.94 64.75 139.29 69.49 139.64 67.57 139.99 70.38 140.34 71.12 140.69 71.27 141.04 67.72 141.39 70.09 141.73 69.2 142.08 68.6 142.43 67.12 142.78 67.72 143.13 66.53 143.48 65.64 143.83 64.9 144.18 66.23 144.53 67.86 144.88 66.38 145.23 67.12 145.58 69.2 145.92 67.42 146.27 70.23 146.62 73.05 146.97 73.49 147.32 73.49 147.67 73.79 148.02 76.01 148.37 77.94 148.72 79.12 149.07 79.12 149.42 76.75 149.76 73.79 150.11 72.46 150.46 71.72 150.81 70.53 151.16 68.6 151.51 65.64 151.86 65.79 152.21 68.31 152.56 67.57 152.91 66.68 153.26 66.83 153.61 70.09 153.95 68.6 154.3 68.16 154.65 66.53 155 69.64 155.35 67.57 155.7 67.72 156.05 71.12 156.4 71.27 156.75 71.72 157.1 72.6 157.45 72.16 157.79 73.79 158.14 73.34 158.49 72.9 158.84 71.12 159.19 69.64 159.54 67.72 159.89 69.49 160.24 67.72 160.59 67.12 160.94 68.9 161.29 70.83 161.64 70.97 161.98 68.6 162.33 65.2 162.68 62.68 163.03 62.68 163.38 63.86 163.73 69.35 164.08 70.38 164.43 72.75 164.78 72.6 165.13 69.35 165.48 68.31 165.83 63.72 166.17 65.49 166.52 68.9 166.87 69.94 167.22 66.23 167.57 62.09 167.92 63.57 168.27 63.27 168.62 66.38 168.97 64.9 169.32 64.16 169.67 59.27 170.01 58.83 170.36 58.83 170.71 59.42 171.06 57.35 171.41 56.61 171.76 55.57 172.11 57.49 172.46 58.98 172.81 59.57 173.16 59.57 173.51 62.09 173.86 65.79 174.2 65.05 174.55 67.57 174.9 73.05 175.25 77.05 175.6 80.31 175.95 83.57 176.3 81.79 176.65 82.38 177 83.86 177.35 82.68 177.7 82.97 178.04 84.9 178.39 83.57 178.74 85.34 179.09 84.01 179.44 86.82 179.79 85.49 180.14 89.05 180.49 86.38 180.84 88.01 181.19 89.05 181.54 89.34 181.89 90.68 182.23 88.6 182.58 89.94 182.93 92.9 183.28 91.71 183.63 95.42 183.98 96.9 184.33 97.49 184.68 95.71 185.03 98.82 185.38 97.49 185.73 96.9 186.08 95.86 186.42 96.45 186.77 96.16 187.12 96.9 187.47 101.04 187.82 100.01 188.17 101.64 188.52 104.16 188.87 105.34 189.22 106.08 189.57 105.64 189.92 102.82 190.26 105.19 190.61 106.23 190.96 106.38 191.31 105.78 191.66 107.41 192.01 107.12 192.36 105.78 192.71 103.27 193.06 104.75 193.41 104.01 193.76 108.15 194.11 107.71 194.45 108.9 194.8 109.78 195.15 110.82 195.5 108.45 195.85 106.38 196.2 102.97"/>
      </g>
      <g stroke-width="0.3" fill="#000000" fill-opacity="0.000" class="geometry" stroke-dasharray="none" stroke="#D53E4F" id="img-f7e8f564-18">
        <path fill="none" d="M21.98,71.86 L 22.33 73.79 22.68 73.2 23.03 69.49 23.38 74.09 23.73 76.9 24.08 74.38 24.42 70.68 24.77 67.27 25.12 64.31 25.47 65.49 25.82 65.35 26.17 63.42 26.52 61.49 26.87 58.09 27.22 58.38 27.57 55.72 27.92 56.16 28.27 56.75 28.61 57.05 28.96 58.38 29.31 59.12 29.66 58.98 30.01 58.24 30.36 50.53 30.71 50.38 31.06 50.98 31.41 49.79 31.76 50.83 32.11 51.72 32.45 48.16 32.8 49.64 33.15 48.76 33.5 51.57 33.85 55.72 34.2 54.83 34.55 52.9 34.9 54.24 35.25 53.64 35.6 54.24 35.95 55.27 36.3 51.13 36.64 49.5 36.99 52.01 37.34 51.87 37.69 54.68 38.04 58.53 38.39 57.2 38.74 55.87 39.09 58.24 39.44 56.16 39.79 56.9 40.14 56.61 40.49 58.53 40.83 58.83 41.18 59.86 41.53 55.42 41.88 50.83 42.23 52.75 42.58 54.98 42.93 55.72 43.28 54.24 43.63 55.27 43.98 53.94 44.33 54.09 44.67 56.61 45.02 54.38 45.37 53.79 45.72 55.42 46.07 55.27 46.42 54.38 46.77 56.75 47.12 56.9 47.47 56.31 47.82 58.98 48.17 58.09 48.52 58.24 48.86 59.72 49.21 62.68 49.56 64.61 49.91 65.64 50.26 64.9 50.61 64.75 50.96 62.38 51.31 65.35 51.66 63.27 52.01 64.31 52.36 68.01 52.7 69.64 53.05 68.46 53.4 67.27 53.75 67.86 54.1 71.12 54.45 71.42 54.8 67.42 55.15 71.27 55.5 71.12 55.85 66.83 56.2 69.49 56.55 70.23 56.89 72.9 57.24 73.34 57.59 79.27 57.94 77.79 58.29 76.6 58.64 79.42 58.99 81.94 59.34 83.12 59.69 85.05 60.04 87.12 60.39 89.05 60.73 82.97 61.08 82.82 61.43 85.64 61.78 87.42 62.13 87.57 62.48 91.12 62.83 91.42 63.18 93.34 63.53 91.71 63.88 92.31 64.23 91.56 64.58 92.6 64.92 90.23 65.27 90.38 65.62 93.93 65.97 92.16 66.32 89.64 66.67 91.27 67.02 87.86 67.37 86.97 67.72 90.97 68.07 88.75 68.42 92.01 68.77 93.49 69.11 93.34 69.46 94.08 69.81 90.97 70.16 89.79 70.51 94.38 70.86 95.42 71.21 94.82 71.56 94.08 71.91 93.64 72.26 90.97 72.61 91.86 72.95 90.53 73.3 91.71 73.65 93.05 74 91.42 74.35 90.23 74.7 90.68 75.05 89.49 75.4 90.97 75.75 93.79 76.1 92.75 76.45 95.27 76.8 95.12 77.14 95.71 77.49 98.08 77.84 97.79 78.19 98.23 78.54 98.97 78.89 97.19 79.24 97.79 79.59 98.53 79.94 97.05 80.29 94.23 80.64 95.42 80.98 94.23 81.33 94.23 81.68 94.23 82.03 95.42 82.38 95.12 82.73 97.05 83.08 98.53 83.43 96.3 83.78 95.12 84.13 94.08 84.48 93.93 84.83 93.64 85.17 91.86 85.52 93.79 85.87 94.23 86.22 93.19 86.57 90.08 86.92 86.53 87.27 85.64 87.62 84.45 87.97 85.34 88.32 85.79 88.67 82.82 89.02 78.08 89.36 76.75 89.71 74.53 90.06 72.16 90.41 71.86 90.76 73.94 91.11 72.75 91.46 72.46 91.81 72.46 92.16 75.42 92.51 77.49 92.86 75.86 93.2 74.38 93.55 75.12 93.9 77.79 94.25 73.05 94.6 72.6 94.95 71.86 95.3 73.49 95.65 70.23 96 68.31 96.35 66.98 96.7 68.16 97.05 64.16 97.39 70.23 97.74 71.86 98.09 73.2 98.44 72.75 98.79 73.2 99.14 74.97 99.49 79.27 99.84 78.23 100.19 76.46 100.54 74.23 100.89 73.79 101.23 71.86 101.58 71.42 101.93 69.35 102.28 66.53 102.63 65.79 102.98 62.83 103.33 60.46 103.68 62.68 104.03 64.16 104.38 67.27 104.73 69.05 105.08 69.2 105.42 70.09 105.77 69.94 106.12 68.46 106.47 72.9 106.82 71.72 107.17 67.42 107.52 71.42 107.87 67.57 108.22 63.86 108.57 64.31 108.92 63.72 109.26 64.61 109.61 64.31 109.96 63.72 110.31 59.72 110.66 59.12 111.01 60.01 111.36 60.61 111.71 60.46 112.06 56.61 112.41 54.98 112.76 56.01 113.11 59.12 113.45 57.64 113.8 56.16 114.15 54.83 114.5 52.31 114.85 53.2 115.2 57.2 115.55 57.05 115.9 56.46 116.25 57.05 116.6 57.79 116.95 54.83 117.3 55.87 117.64 55.42 117.99 53.64 118.34 52.9 118.69 51.87 119.04 55.42 119.39 55.87 119.74 57.05 120.09 58.24 120.44 60.16 120.79 63.57 121.14 64.16 121.48 65.79 121.83 63.86 122.18 64.01 122.53 64.61 122.88 66.23 123.23 65.79 123.58 63.57 123.93 61.05 124.28 62.38 124.63 63.27 124.98 60.75 125.33 61.2 125.67 61.94 126.02 64.61 126.37 60.46 126.72 60.9 127.07 58.68 127.42 55.12 127.77 57.94 128.12 56.9 128.47 53.35 128.82 54.68 129.17 58.68 129.51 59.57 129.86 59.72 130.21 60.01 130.56 62.53 130.91 59.72 131.26 62.53 131.61 60.01 131.96 62.23 132.31 60.31 132.66 58.09 133.01 57.79 133.36 56.75 133.7 55.87 134.05 52.31 134.4 55.42 134.75 51.87 135.1 52.61 135.45 53.35 135.8 54.38 136.15 50.98 136.5 52.9 136.85 57.79 137.2 56.16 137.55 59.42 137.89 56.61 138.24 56.61 138.59 53.05 138.94 52.46 139.29 53.79 139.64 54.24 139.99 52.46 140.34 52.61 140.69 52.9 141.04 52.16 141.39 53.35 141.73 55.42 142.08 58.24 142.43 56.9 142.78 55.87 143.13 59.27 143.48 56.75 143.83 56.75 144.18 53.94 144.53 55.87 144.88 56.46 145.23 57.2 145.58 53.5 145.92 53.35 146.27 53.35 146.62 57.49 146.97 58.53 147.32 57.49 147.67 57.49 148.02 59.57 148.37 61.2 148.72 61.79 149.07 58.53 149.42 60.61 149.76 58.53 150.11 55.12 150.46 56.61 150.81 56.16 151.16 54.53 151.51 56.31 151.86 55.42 152.21 59.72 152.56 62.38 152.91 60.75 153.26 61.94 153.61 65.49 153.95 66.53 154.3 67.42 154.65 70.23 155 68.01 155.35 68.75 155.7 68.6 156.05 69.49 156.4 69.35 156.75 71.42 157.1 72.6 157.45 71.57 157.79 72.01 158.14 72.75 158.49 72.46 158.84 67.86 159.19 70.38 159.54 71.12 159.89 66.83 160.24 65.79 160.59 64.31 160.94 66.38 161.29 65.2 161.64 65.2 161.98 61.94 162.33 64.16 162.68 61.64 163.03 61.94 163.38 57.49 163.73 58.38 164.08 58.38 164.43 59.12 164.78 56.9 165.13 57.2 165.48 58.09 165.83 56.75 166.17 56.46 166.52 56.31 166.87 54.24 167.22 54.98 167.57 52.75 167.92 51.87 168.27 47.72 168.62 48.46 168.97 48.76 169.32 46.53 169.67 45.5 170.01 44.76 170.36 42.83 170.71 42.83 171.06 40.76 171.41 37.79 171.76 34.98 172.11 34.53 172.46 35.57 172.81 37.2 173.16 36.31 173.51 37.5 173.86 37.2 174.2 40.61 174.55 41.79 174.9 38.83 175.25 39.87 175.6 38.39 175.95 37.65 176.3 38.83 176.65 39.87 177 41.94 177.35 40.02 177.7 44.46 178.04 44.02 178.39 43.57 178.74 45.79 179.09 46.98 179.44 48.31 179.79 47.72 180.14 51.72 180.49 51.13 180.84 53.5 181.19 57.79 181.54 57.35 181.89 54.83 182.23 56.01 182.58 53.64 182.93 49.64 183.28 50.09 183.63 51.87 183.98 49.35 184.33 50.83 184.68 51.27 185.03 49.2 185.38 51.42 185.73 50.53 186.08 49.94 186.42 46.83 186.77 47.27 187.12 50.53 187.47 46.83 187.82 51.13 188.17 51.13 188.52 51.13 188.87 52.9 189.22 55.57 189.57 55.27 189.92 55.57 190.26 57.64 190.61 57.2 190.96 53.94 191.31 54.09 191.66 52.9 192.01 51.42 192.36 52.31 192.71 51.27 193.06 50.83 193.41 50.83 193.76 51.13 194.11 49.94 194.45 46.83 194.8 46.98 195.15 48.9 195.5 50.68 195.85 52.75 196.2 51.27"/>
      </g>
      <g stroke-width="0.3" fill="#000000" fill-opacity="0.000" class="geometry" stroke-dasharray="none" stroke="#9E0142" id="img-f7e8f564-19">
        <path fill="none" d="M21.98,71.86 L 22.33 71.72 22.68 73.79 23.03 71.12 23.38 69.79 23.73 70.97 24.08 70.23 24.42 68.01 24.77 66.38 25.12 65.79 25.47 64.01 25.82 69.49 26.17 71.57 26.52 70.97 26.87 70.38 27.22 69.94 27.57 70.68 27.92 69.79 28.27 68.6 28.61 70.38 28.96 68.75 29.31 65.35 29.66 65.35 30.01 65.2 30.36 61.79 30.71 60.01 31.06 59.86 31.41 58.09 31.76 58.68 32.11 58.09 32.45 57.79 32.8 58.24 33.15 59.57 33.5 59.12 33.85 61.35 34.2 59.72 34.55 59.42 34.9 58.68 35.25 57.05 35.6 60.16 35.95 60.9 36.3 62.09 36.64 61.35 36.99 58.24 37.34 58.98 37.69 59.12 38.04 58.24 38.39 56.46 38.74 57.79 39.09 55.87 39.44 55.42 39.79 55.72 40.14 55.42 40.49 54.68 40.83 53.05 41.18 52.9 41.53 52.75 41.88 53.05 42.23 54.09 42.58 52.9 42.93 53.94 43.28 52.61 43.63 54.09 43.98 52.61 44.33 50.38 44.67 48.46 45.02 49.05 45.37 49.5 45.72 45.79 46.07 44.61 46.42 41.35 46.77 39.42 47.12 40.76 47.47 42.39 47.82 42.39 48.17 41.94 48.52 40.02 48.86 41.5 49.21 41.94 49.56 45.2 49.91 46.39 50.26 46.39 50.61 45.64 50.96 45.5 51.31 48.31 51.66 51.87 52.01 50.53 52.36 53.2 52.7 54.09 53.05 52.9 53.4 55.57 53.75 55.87 54.1 56.75 54.45 56.61 54.8 58.68 55.15 53.94 55.5 56.31 55.85 54.09 56.2 50.53 56.55 47.87 56.89 44.31 57.24 43.27 57.59 41.5 57.94 41.94 58.29 44.61 58.64 44.9 58.99 46.98 59.34 45.5 59.69 42.98 60.04 44.61 60.39 44.46 60.73 46.24 61.08 46.24 61.43 45.2 61.78 48.46 62.13 48.9 62.48 50.24 62.83 52.01 63.18 53.5 63.53 50.53 63.88 52.01 64.23 52.9 64.58 51.72 64.92 55.87 65.27 56.46 65.62 60.9 65.97 59.42 66.32 57.49 66.67 55.72 67.02 52.61 67.37 54.24 67.72 55.42 68.07 56.46 68.42 53.05 68.77 52.31 69.11 49.35 69.46 53.64 69.81 51.72 70.16 47.57 70.51 46.24 70.86 48.01 71.21 47.42 71.56 46.83 71.91 45.79 72.26 47.57 72.61 49.05 72.95 48.01 73.3 50.38 73.65 49.64 74 51.42 74.35 53.35 74.7 50.98 75.05 48.16 75.4 49.2 75.75 49.5 76.1 47.13 76.45 48.76 76.8 49.5 77.14 48.01 77.49 47.72 77.84 50.98 78.19 50.53 78.54 50.68 78.89 49.2 79.24 49.05 79.59 47.42 79.94 44.76 80.29 47.87 80.64 46.98 80.98 48.01 81.33 48.16 81.68 45.35 82.03 48.16 82.38 46.09 82.73 47.13 83.08 46.24 83.43 45.05 83.78 44.31 84.13 44.61 84.48 40.61 84.83 40.16 85.17 41.94 85.52 42.24 85.87 40.46 86.22 43.42 86.57 43.27 86.92 42.68 87.27 40.61 87.62 38.98 87.97 38.09 88.32 37.79 88.67 37.5 89.02 36.02 89.36 36.61 89.71 37.65 90.06 39.13 90.41 39.42 90.76 38.24 91.11 37.79 91.46 43.27 91.81 45.94 92.16 45.64 92.51 48.61 92.86 49.5 93.2 51.27 93.55 48.76 93.9 48.9 94.25 50.09 94.6 47.57 94.95 46.68 95.3 44.02 95.65 41.94 96 42.24 96.35 39.13 96.7 39.87 97.05 43.27 97.39 43.42 97.74 45.2 98.09 44.02 98.44 42.98 98.79 41.79 99.14 43.87 99.49 42.83 99.84 41.2 100.19 38.39 100.54 38.53 100.89 38.98 101.23 40.46 101.58 37.65 101.93 34.53 102.28 34.68 102.63 34.98 102.98 35.42 103.33 33.94 103.68 34.83 104.03 37.65 104.38 37.94 104.73 36.61 105.08 35.42 105.42 32.61 105.77 33.05 106.12 33.65 106.47 32.31 106.82 35.87 107.17 36.46 107.52 38.68 107.87 38.39 108.22 37.94 108.57 39.27 108.92 41.05 109.26 42.24 109.61 41.94 109.96 44.16 110.31 46.39 110.66 51.42 111.01 51.72 111.36 51.27 111.71 51.13 112.06 52.01 112.41 52.16 112.76 50.38 113.11 49.64 113.45 48.61 113.8 49.64 114.15 50.68 114.5 50.09 114.85 48.9 115.2 47.87 115.55 48.9 115.9 47.57 116.25 48.01 116.6 45.5 116.95 41.5 117.3 42.53 117.64 40.61 117.99 39.87 118.34 40.02 118.69 38.09 119.04 39.57 119.39 41.2 119.74 40.46 120.09 42.53 120.44 41.5 120.79 42.83 121.14 42.09 121.48 42.98 121.83 42.24 122.18 41.94 122.53 43.87 122.88 44.16 123.23 46.24 123.58 45.05 123.93 45.64 124.28 44.16 124.63 43.27 124.98 42.83 125.33 44.46 125.67 45.2 126.02 45.35 126.37 47.72 126.72 49.35 127.07 46.83 127.42 45.35 127.77 40.76 128.12 40.46 128.47 39.87 128.82 40.9 129.17 41.79 129.51 37.35 129.86 36.76 130.21 34.98 130.56 33.2 130.91 33.35 131.26 32.31 131.61 32.91 131.96 34.68 132.31 34.98 132.66 33.65 133.01 33.2 133.36 32.16 133.7 34.24 134.05 32.16 134.4 31.72 134.75 33.2 135.1 33.2 135.45 32.91 135.8 34.39 136.15 35.42 136.5 33.05 136.85 34.24 137.2 32.91 137.55 32.46 137.89 32.16 138.24 30.54 138.59 30.39 138.94 29.65 139.29 29.79 139.64 27.72 139.99 26.83 140.34 27.13 140.69 29.2 141.04 30.83 141.39 31.28 141.73 33.5 142.08 31.13 142.43 29.5 142.78 29.65 143.13 30.09 143.48 31.42 143.83 32.76 144.18 31.42 144.53 32.91 144.88 33.35 145.23 29.79 145.58 30.98 145.92 31.87 146.27 34.98 146.62 37.94 146.97 38.98 147.32 39.27 147.67 39.72 148.02 38.53 148.37 38.53 148.72 37.65 149.07 34.39 149.42 35.28 149.76 37.5 150.11 35.87 150.46 34.98 150.81 34.98 151.16 33.65 151.51 32.46 151.86 31.28 152.21 31.28 152.56 32.61 152.91 33.35 153.26 33.94 153.61 34.53 153.95 32.31 154.3 30.68 154.65 33.05 155 34.68 155.35 33.35 155.7 35.87 156.05 35.72 156.4 35.57 156.75 33.79 157.1 34.83 157.45 35.72 157.79 37.2 158.14 38.09 158.49 37.79 158.84 36.02 159.19 34.53 159.54 35.13 159.89 36.61 160.24 39.27 160.59 38.68 160.94 37.79 161.29 36.9 161.64 40.16 161.98 39.27 162.33 39.27 162.68 37.2 163.03 36.9 163.38 35.87 163.73 34.09 164.08 32.76 164.43 36.76 164.78 36.16 165.13 36.76 165.48 37.05 165.83 37.94 166.17 36.31 166.52 36.76 166.87 34.83 167.22 36.76 167.57 37.35 167.92 36.9 168.27 36.9 168.62 38.39 168.97 39.13 169.32 39.57 169.67 37.94 170.01 35.57 170.36 31.87 170.71 33.2 171.06 34.83 171.41 33.79 171.76 34.68 172.11 33.79 172.46 33.94 172.81 33.79 173.16 32.76 173.51 30.09 173.86 28.91 174.2 29.65 174.55 28.46 174.9 26.09 175.25 25.5 175.6 27.13 175.95 24.61 176.3 23.28 176.65 24.91 177 26.39 177.35 24.76 177.7 25.8 178.04 24.61 178.39 25.35 178.74 26.54 179.09 24.91 179.44 26.54 179.79 26.68 180.14 24.76 180.49 23.87 180.84 22.54 181.19 20.91 181.54 22.39 181.89 22.68 182.23 23.28 182.58 24.31 182.93 25.5 183.28 24.17 183.63 24.46 183.98 25.8 184.33 25.8 184.68 24.91 185.03 25.94 185.38 23.72 185.73 24.17 186.08 22.98 186.42 22.24 186.77 22.24 187.12 24.02 187.47 24.61 187.82 23.72 188.17 24.31 188.52 24.61 188.87 24.46 189.22 23.13 189.57 21.94 189.92 21.94 190.26 22.39 190.61 22.24 190.96 22.24 191.31 20.91 191.66 20.02 192.01 20.46 192.36 20.61 192.71 20.17 193.06 21.65 193.41 21.94 193.76 21.94 194.11 21.8 194.45 21.2 194.8 20.31 195.15 19.28 195.5 18.98 195.85 19.43 196.2 19.43"/>
      </g>
    </g>
  </g>
</g>
  <g class="guide ylabels" font-size="2.82" font-family="'PT Sans Caption','Helvetica Neue','Helvetica',sans-serif" fill="#000000" id="img-f7e8f564-20">
    <text x="18.63" y="131.11" text-anchor="end" dy="0.35em">0</text>
    <text x="18.63" y="101.49" text-anchor="end" dy="0.35em">200</text>
    <text x="18.63" y="71.86" text-anchor="end" dy="0.35em">400</text>
    <text x="18.63" y="42.24" text-anchor="end" dy="0.35em">600</text>
    <text x="18.63" y="12.61" text-anchor="end" dy="0.35em">800</text>
  </g>
  <g font-size="3.88" font-family="'PT Sans','Helvetica Neue','Helvetica',sans-serif" fill="#000000" stroke="#000000" stroke-opacity="0.000" id="img-f7e8f564-21">
    <text x="8.81" y="69.86" text-anchor="middle" dy="0.35em" transform="rotate(-90, 8.81, 71.86)">population number</text>
  </g>
  <g font-size="3.88" font-family="'PT Sans','Helvetica Neue','Helvetica',sans-serif" fill="#000000" stroke="#000000" stroke-opacity="0.000" id="img-f7e8f564-22">
    <text x="108.92" y="5" text-anchor="middle" dy="0.6em">genetic drift</text>
  </g>
</g>
<defs>
  <clipPath id="img-f7e8f564-4">
  <path d="M19.63,10.61 L 198.2 10.61 198.2 133.11 19.63 133.11" />
</clipPath>
</defs>
</svg>
