<?xml version="1.0" encoding="UTF-8"?>
<svg xmlns="http://www.w3.org/2000/svg"
     xmlns:xlink="http://www.w3.org/1999/xlink"
     xmlns:gadfly="http://www.gadflyjl.org/ns"
     version="1.2"
     width="203.2mm" height="152.4mm" viewBox="0 0 203.2 152.4"
     stroke="none"
     fill="#000000"
     stroke-width="0.3"
     font-size="3.88"
>
<g class="plotroot xscalable yscalable" id="img-6f08e00c-1">
  <g font-size="3.88" font-family="'PT Sans','Helvetica Neue','Helvetica',sans-serif" fill="#000000" stroke="#000000" stroke-opacity="0.000" id="img-6f08e00c-2">
    <text x="108.92" y="140.79" text-anchor="middle" dy="0.6em">generation number</text>
  </g>
  <g class="guide xlabels" font-size="2.82" font-family="'PT Sans Caption','Helvetica Neue','Helvetica',sans-serif" fill="#000000" id="img-6f08e00c-3">
    <text x="21.63" y="134.11" text-anchor="middle" dy="0.6em">0</text>
    <text x="56.55" y="134.11" text-anchor="middle" dy="0.6em">100</text>
    <text x="91.46" y="134.11" text-anchor="middle" dy="0.6em">200</text>
    <text x="126.37" y="134.11" text-anchor="middle" dy="0.6em">300</text>
    <text x="161.29" y="134.11" text-anchor="middle" dy="0.6em">400</text>
    <text x="196.2" y="134.11" text-anchor="middle" dy="0.6em">500</text>
  </g>
<g clip-path="url(#img-6f08e00c-4)">
  <g id="img-6f08e00c-5">
    <g pointer-events="visible" opacity="1" fill="#FFFFFF" stroke="#000000" stroke-opacity="0.000" class="guide background" id="img-6f08e00c-6">
      <rect x="19.63" y="10.61" width="178.57" height="122.5"/>
    </g>
    <g class="guide ygridlines xfixed" stroke-dasharray="0.5,0.5" stroke-width="0.2" stroke="#808080" id="img-6f08e00c-7">
      <path fill="none" d="M19.63,131.11 L 198.2 131.11"/>
      <path fill="none" d="M19.63,111.36 L 198.2 111.36"/>
      <path fill="none" d="M19.63,91.61 L 198.2 91.61"/>
      <path fill="none" d="M19.63,71.86 L 198.2 71.86"/>
      <path fill="none" d="M19.63,52.11 L 198.2 52.11"/>
      <path fill="none" d="M19.63,32.36 L 198.2 32.36"/>
      <path fill="none" d="M19.63,12.61 L 198.2 12.61"/>
    </g>
    <g class="guide xgridlines yfixed" stroke-dasharray="0.5,0.5" stroke-width="0.2" stroke="#808080" id="img-6f08e00c-8">
      <path fill="none" d="M21.63,10.61 L 21.63 133.11"/>
      <path fill="none" d="M56.55,10.61 L 56.55 133.11"/>
      <path fill="none" d="M91.46,10.61 L 91.46 133.11"/>
      <path fill="none" d="M126.37,10.61 L 126.37 133.11"/>
      <path fill="none" d="M161.29,10.61 L 161.29 133.11"/>
      <path fill="none" d="M196.2,10.61 L 196.2 133.11"/>
    </g>
    <g class="plotpanel" id="img-6f08e00c-9">
      <g stroke-width="0.3" fill="#000000" fill-opacity="0.000" class="geometry" stroke-dasharray="none" stroke="#3288BD" id="img-6f08e00c-10">
        <path fill="none" d="M21.98,71.86 L 22.33 69.1 22.68 71.07 23.03 66.33 23.38 64.36 23.73 62.38 24.08 58.83 24.42 62.98 24.77 61.2 25.12 64.75 25.47 67.72 25.82 69.1 26.17 72.65 26.52 77.59 26.87 78.78 27.22 74.04 27.57 74.04 27.92 71.86 28.27 73.05 28.61 71.07 28.96 65.74 29.31 65.15 29.66 69.49 30.01 68.7 30.36 71.07 30.71 75.42 31.06 74.83 31.41 73.25 31.76 73.64 32.11 70.48 32.45 71.27 32.8 73.64 33.15 74.23 33.5 71.86 33.85 73.25 34.2 72.46 34.55 68.9 34.9 68.31 35.25 66.33 35.6 66.33 35.95 66.14 36.3 65.74 36.64 69.3 36.99 66.33 37.34 66.14 37.69 61.4 38.04 62.78 38.39 66.14 38.74 66.73 39.09 62.38 39.44 61.4 39.79 63.57 40.14 61.2 40.49 63.37 40.83 62.38 41.18 60.8 41.53 59.82 41.88 59.22 42.23 57.64 42.58 54.68 42.93 57.84 43.28 57.45 43.63 57.25 43.98 57.84 44.33 55.67 44.67 56.85 45.02 57.84 45.37 60.61 45.72 62.19 46.07 61.79 46.42 57.25 46.77 57.45 47.12 57.84 47.47 61 47.82 61.59 48.17 63.17 48.52 59.42 48.86 57.84 49.21 57.25 49.56 54.88 49.91 58.63 50.26 59.42 50.61 58.83 50.96 57.05 51.31 57.84 51.66 61.79 52.01 62.98 52.36 64.56 52.7 66.93 53.05 70.09 53.4 69.49 53.75 68.11 54.1 70.48 54.45 72.65 54.8 73.84 55.15 70.68 55.5 68.31 55.85 67.72 56.2 67.12 56.55 71.07 56.89 72.46 57.24 70.88 57.59 68.9 57.94 65.54 58.29 64.16 58.64 62.98 58.99 65.35 59.34 66.33 59.69 69.49 60.04 70.09 60.39 69.3 60.73 66.93 61.08 66.93 61.43 62.19 61.78 59.82 62.13 59.03 62.48 60.01 62.83 57.64 63.18 60.01 63.53 59.62 63.88 58.43 64.23 62.98 64.58 63.77 64.92 63.77 65.27 66.33 65.62 65.35 65.97 65.54 66.32 62.78 66.67 61.99 67.02 62.19 67.37 62.98 67.72 65.15 68.07 63.96 68.42 65.54 68.77 62.78 69.11 60.61 69.46 61.79 69.81 64.36 70.16 66.14 70.51 65.35 70.86 62.98 71.21 60.41 71.56 59.03 71.91 57.84 72.26 56.06 72.61 54.68 72.95 52.9 73.3 49.55 73.65 48.95 74 49.15 74.35 51.13 74.7 49.94 75.05 50.34 75.4 48.16 75.75 48.16 76.1 49.35 76.45 47.77 76.8 50.14 77.14 50.53 77.49 46.39 77.84 44.41 78.19 46.39 78.54 46.78 78.89 48.56 79.24 49.94 79.59 50.73 79.94 51.52 80.29 50.34 80.64 53.5 80.98 55.08 81.33 53.3 81.68 54.09 82.03 58.63 82.38 52.71 82.73 50.93 83.08 53.1 83.43 50.53 83.78 51.13 84.13 52.71 84.48 49.94 84.83 48.56 85.17 47.18 85.52 44.61 85.87 43.42 86.22 41.25 86.57 42.04 86.92 41.64 87.27 38.09 87.62 43.03 87.97 40.26 88.32 39.08 88.67 38.88 89.02 38.29 89.36 36.71 89.71 39.08 90.06 40.66 90.41 40.66 90.76 40.26 91.11 39.87 91.46 39.87 91.81 40.06 92.16 41.84 92.51 41.45 92.86 38.09 93.2 43.03 93.55 45.6 93.9 44.61 94.25 43.23 94.6 48.76 94.95 46.98 95.3 46.78 95.65 48.16 96 46.58 96.35 46.39 96.7 42.83 97.05 45.2 97.39 45.6 97.74 43.82 98.09 44.21 98.44 44.61 98.79 45.79 99.14 45.2 99.49 45 99.84 46.78 100.19 46.19 100.54 44.41 100.89 42.24 101.23 41.25 101.58 38.09 101.93 40.26 102.28 41.64 102.63 44.41 102.98 47.77 103.33 46.39 103.68 47.77 104.03 50.73 104.38 50.73 104.73 49.94 105.08 50.93 105.42 43.62 105.77 45.79 106.12 42.24 106.47 47.77 106.82 48.95 107.17 45.79 107.52 45.79 107.87 44.41 108.22 43.62 108.57 38.48 108.92 34.73 109.26 34.34 109.61 37.3 109.96 37.5 110.31 37.5 110.66 35.72 111.01 33.74 111.36 34.14 111.71 35.13 112.06 34.34 112.41 34.34 112.76 35.72 113.11 37.89 113.45 40.06 113.8 41.84 114.15 43.42 114.5 45.6 114.85 47.57 115.2 46.58 115.55 47.37 115.9 45 116.25 42.63 116.6 43.42 116.95 47.57 117.3 46.78 117.64 47.97 117.99 47.37 118.34 48.16 118.69 51.72 119.04 47.97 119.39 47.97 119.74 46.39 120.09 47.18 120.44 44.21 120.79 45.79 121.14 50.34 121.48 52.51 121.83 49.55 122.18 48.95 122.53 50.14 122.88 46.78 123.23 46.98 123.58 49.35 123.93 50.14 124.28 49.94 124.63 48.56 124.98 46.39 125.33 44.02 125.67 44.21 126.02 42.83 126.37 42.83 126.72 43.03 127.07 43.42 127.42 41.84 127.77 41.25 128.12 40.26 128.47 40.85 128.82 40.66 129.17 37.69 129.51 37.3 129.86 39.08 130.21 37.89 130.56 36.31 130.91 36.71 131.26 36.31 131.61 36.51 131.96 36.71 132.31 34.73 132.66 36.31 133.01 36.51 133.36 33.74 133.7 34.53 134.05 34.93 134.4 33.74 134.75 33.55 135.1 30.19 135.45 29.2 135.8 27.23 136.15 29.4 136.5 31.18 136.85 32.56 137.2 29.2 137.55 30.78 137.89 34.53 138.24 33.15 138.59 33.15 138.94 31.77 139.29 32.95 139.64 32.56 139.99 30.78 140.34 31.77 140.69 30.19 141.04 32.56 141.39 34.53 141.73 37.3 142.08 39.67 142.43 41.84 142.78 43.42 143.13 42.83 143.48 42.44 143.83 42.04 144.18 44.02 144.53 42.83 144.88 44.81 145.23 49.35 145.58 50.14 145.92 48.95 146.27 51.72 146.62 51.72 146.97 49.74 147.32 47.57 147.67 46.78 148.02 48.56 148.37 47.37 148.72 48.76 149.07 49.35 149.42 44.21 149.76 38.68 150.11 41.45 150.46 39.47 150.81 40.06 151.16 41.45 151.51 41.45 151.86 41.05 152.21 43.82 152.56 40.46 152.91 40.46 153.26 39.27 153.61 35.92 153.95 34.53 154.3 36.11 154.65 37.3 155 41.05 155.35 43.42 155.7 42.24 156.05 42.44 156.4 40.66 156.75 37.1 157.1 34.14 157.45 32.76 157.79 36.31 158.14 37.1 158.49 35.92 158.84 40.85 159.19 39.87 159.54 41.05 159.89 38.88 160.24 39.27 160.59 42.44 160.94 41.84 161.29 46.19 161.64 47.57 161.98 48.16 162.33 47.57 162.68 42.24 163.03 41.64 163.38 42.04 163.73 41.05 164.08 41.05 164.43 40.85 164.78 42.04 165.13 41.84 165.48 38.68 165.83 34.34 166.17 35.13 166.52 32.56 166.87 27.82 167.22 29.4 167.57 30.78 167.92 33.74 168.27 33.15 168.62 32.36 168.97 30.39 169.32 31.18 169.67 27.23 170.01 29.99 170.36 29.4 170.71 28.41 171.06 27.42 171.41 28.61 171.76 28.21 172.11 28.61 172.46 28.81 172.81 29.79 173.16 28.41 173.51 27.62 173.86 27.23 174.2 28.81 174.55 25.84 174.9 23.67 175.25 22.29 175.6 20.51 175.95 21.1 176.3 21.3 176.65 21.89 177 22.68 177.35 22.09 177.7 23.28 178.04 23.08 178.39 23.28 178.74 22.29 179.09 22.29 179.44 20.51 179.79 22.49 180.14 22.68 180.49 21.89 180.84 24.26 181.19 22.09 181.54 21.5 181.89 22.68 182.23 23.87 182.58 23.67 182.93 25.45 183.28 25.45 183.63 24.46 183.98 25.25 184.33 25.05 184.68 23.08 185.03 22.09 185.38 23.08 185.73 22.49 186.08 20.91 186.42 20.51 186.77 19.72 187.12 18.73 187.47 19.52 187.82 19.52 188.17 18.73 188.52 19.52 188.87 19.92 189.22 20.91 189.57 21.5 189.92 21.5 190.26 24.07 190.61 25.05 190.96 22.88 191.31 20.51 191.66 22.09 192.01 22.49 192.36 21.3 192.71 20.51 193.06 20.71 193.41 19.52 193.76 18.93 194.11 21.1 194.45 21.3 194.8 22.49 195.15 20.91 195.5 22.49 195.85 21.5 196.2 23.87"/>
      </g>
      <g stroke-width="0.3" fill="#000000" fill-opacity="0.000" class="geometry" stroke-dasharray="none" stroke="#66C2A5" id="img-6f08e00c-11">
        <path fill="none" d="M21.98,71.86 L 22.33 73.44 22.68 70.68 23.03 69.49 23.38 72.46 23.73 73.05 24.08 73.25 24.42 71.86 24.77 69.89 25.12 72.06 25.47 73.44 25.82 77.59 26.17 78.97 26.52 80.75 26.87 82.53 27.22 81.15 27.57 82.13 27.92 77.99 28.27 76.8 28.61 77.39 28.96 77.79 29.31 76.8 29.66 74.83 30.01 73.44 30.36 74.04 30.71 77.99 31.06 77.2 31.41 77.2 31.76 78.18 32.11 79.57 32.45 83.52 32.8 81.94 33.15 85.29 33.5 88.26 33.85 85.1 34.2 87.27 34.55 89.64 34.9 87.27 35.25 91.42 35.6 88.06 35.95 87.66 36.3 89.24 36.64 91.42 36.99 90.82 37.34 89.24 37.69 85.1 38.04 83.52 38.39 82.53 38.74 82.92 39.09 82.73 39.44 79.57 39.79 75.02 40.14 73.05 40.49 70.68 40.83 68.7 41.18 67.72 41.53 68.7 41.88 68.11 42.23 65.54 42.58 66.93 42.93 66.14 43.28 66.53 43.63 69.69 43.98 68.11 44.33 67.32 44.67 65.94 45.02 64.16 45.37 61.59 45.72 64.36 46.07 62.58 46.42 63.17 46.77 60.61 47.12 60.01 47.47 60.8 47.82 62.98 48.17 57.05 48.52 57.05 48.86 56.46 49.21 53.69 49.56 53.89 49.91 54.09 50.26 55.08 50.61 61.59 50.96 58.24 51.31 58.63 51.66 61.4 52.01 61.4 52.36 61.4 52.7 64.56 53.05 65.94 53.4 64.95 53.75 61.99 54.1 59.42 54.45 61.4 54.8 59.62 55.15 55.87 55.5 55.47 55.85 50.73 56.2 48.95 56.55 49.74 56.89 45.99 57.24 45 57.59 45 57.94 44.61 58.29 43.42 58.64 37.5 58.99 36.71 59.34 39.27 59.69 40.46 60.04 40.66 60.39 42.83 60.73 43.42 61.08 38.68 61.43 37.69 61.78 39.47 62.13 41.45 62.48 40.46 62.83 41.64 63.18 44.02 63.53 43.42 63.88 42.24 64.23 44.02 64.58 46.58 64.92 48.36 65.27 48.76 65.62 46.39 65.97 50.34 66.32 49.35 66.67 48.16 67.02 44.41 67.37 42.63 67.72 46.19 68.07 46.78 68.42 44.21 68.77 45.2 69.11 42.24 69.46 42.44 69.81 43.42 70.16 42.63 70.51 43.23 70.86 43.82 71.21 45.99 71.56 47.57 71.91 51.13 72.26 49.55 72.61 49.94 72.95 47.77 73.3 45 73.65 45.99 74 51.13 74.35 52.11 74.7 50.73 75.05 50.73 75.4 51.72 75.75 54.09 76.1 52.11 76.45 54.09 76.8 58.04 77.14 61 77.49 60.21 77.84 63.96 78.19 64.36 78.54 66.93 78.89 66.53 79.24 68.11 79.59 67.12 79.94 65.74 80.29 65.35 80.64 65.94 80.98 63.96 81.33 66.93 81.68 67.52 82.03 65.94 82.38 63.57 82.73 64.56 83.08 61.79 83.43 59.62 83.78 61.2 84.13 58.24 84.48 58.63 84.83 59.82 85.17 61.59 85.52 62.38 85.87 59.03 86.22 61.99 86.57 67.32 86.92 67.32 87.27 69.69 87.62 70.28 87.97 73.44 88.32 72.06 88.67 70.68 89.02 72.65 89.36 73.25 89.71 75.02 90.06 75.81 90.41 76.8 90.76 75.22 91.11 75.22 91.46 76.01 91.81 77.99 92.16 74.63 92.51 75.62 92.86 77.99 93.2 78.78 93.55 77.2 93.9 79.57 94.25 84.5 94.6 84.5 94.95 83.52 95.3 83.12 95.65 81.15 96 84.7 96.35 81.74 96.7 79.76 97.05 78.58 97.39 75.81 97.74 83.32 98.09 85.89 98.44 87.07 98.79 87.66 99.14 84.7 99.49 82.92 99.84 83.52 100.19 85.1 100.54 80.55 100.89 78.18 101.23 78.78 101.58 80.16 101.93 78.97 102.28 81.54 102.63 80.55 102.98 82.73 103.33 80.95 103.68 80.36 104.03 81.74 104.38 83.91 104.73 88.06 105.08 88.65 105.42 91.42 105.77 93.79 106.12 97.93 106.47 96.75 106.82 98.53 107.17 97.74 107.52 96.95 107.87 96.35 108.22 94.38 108.57 92.21 108.92 97.14 109.26 101.29 109.61 99.91 109.96 96.95 110.31 96.75 110.66 99.51 111.01 101.09 111.36 100.7 111.71 101.09 112.06 99.71 112.41 96.35 112.76 96.35 113.11 97.74 113.45 93 113.8 92.4 114.15 89.24 114.5 89.84 114.85 87.07 115.2 87.07 115.55 83.91 115.9 83.12 116.25 83.91 116.6 85.69 116.95 87.47 117.3 89.05 117.64 91.42 117.99 89.05 118.34 90.63 118.69 89.24 119.04 84.9 119.39 84.31 119.74 85.49 120.09 86.28 120.44 87.47 120.79 85.89 121.14 86.08 121.48 89.64 121.83 96.55 122.18 97.14 122.53 100.11 122.88 99.12 123.23 97.34 123.58 98.72 123.93 101.09 124.28 97.74 124.63 100.5 124.98 100.9 125.33 102.67 125.67 103.66 126.02 103.46 126.37 105.44 126.72 106.23 127.07 104.65 127.42 105.24 127.77 100.7 128.12 103.27 128.47 103.46 128.82 104.65 129.17 103.27 129.51 103.07 129.86 103.86 130.21 108.99 130.56 107.22 130.91 107.81 131.26 108.4 131.61 106.82 131.96 107.61 132.31 107.02 132.66 106.82 133.01 106.62 133.36 106.23 133.7 106.03 134.05 103.27 134.4 103.46 134.75 103.46 135.1 102.67 135.45 101.49 135.8 99.71 136.15 97.74 136.5 98.13 136.85 100.3 137.2 100.3 137.55 97.93 137.89 97.34 138.24 95.17 138.59 98.13 138.94 101.49 139.29 101.88 139.64 100.3 139.99 101.09 140.34 99.71 140.69 100.9 141.04 98.33 141.39 95.37 141.73 90.63 142.08 91.61 142.43 90.43 142.78 92.01 143.13 95.37 143.48 92.01 143.83 93 144.18 94.38 144.53 94.97 144.88 92.8 145.23 91.02 145.58 93.79 145.92 94.38 146.27 95.37 146.62 96.75 146.97 98.13 147.32 94.38 147.67 94.77 148.02 97.54 148.37 99.32 148.72 97.54 149.07 97.54 149.42 100.3 149.76 101.29 150.11 103.86 150.46 107.02 150.81 110.18 151.16 110.18 151.51 111.76 151.86 109.98 152.21 107.41 152.56 108.6 152.91 107.02 153.26 104.25 153.61 103.27 153.95 103.27 154.3 101.49 154.65 102.87 155 102.87 155.35 98.92 155.7 96.35 156.05 96.75 156.4 97.54 156.75 95.37 157.1 95.56 157.45 93 157.79 93.19 158.14 90.03 158.49 93.19 158.84 93.98 159.19 95.76 159.54 97.93 159.89 94.97 160.24 94.18 160.59 94.58 160.94 91.02 161.29 98.72 161.64 96.35 161.98 99.12 162.33 98.92 162.68 96.55 163.03 96.55 163.38 93.98 163.73 95.17 164.08 93.59 164.43 91.61 164.78 93 165.13 93.98 165.48 91.22 165.83 95.56 166.17 93.98 166.52 90.63 166.87 92.01 167.22 90.63 167.57 88.26 167.92 87.47 168.27 89.24 168.62 85.1 168.97 84.9 169.32 84.11 169.67 84.5 170.01 83.52 170.36 88.85 170.71 85.89 171.06 87.47 171.41 86.87 171.76 87.07 172.11 87.07 172.46 83.52 172.81 82.53 173.16 77.99 173.51 78.18 173.86 80.95 174.2 80.16 174.55 85.89 174.9 85.1 175.25 83.91 175.6 84.7 175.95 80.36 176.3 80.75 176.65 82.13 177 83.12 177.35 86.28 177.7 89.24 178.04 91.42 178.39 92.8 178.74 90.82 179.09 95.37 179.44 96.35 179.79 93.98 180.14 92.01 180.49 92.01 180.84 96.35 181.19 99.51 181.54 97.74 181.89 99.32 182.23 101.09 182.58 100.5 182.93 101.49 183.28 100.7 183.63 102.08 183.98 105.24 184.33 105.64 184.68 106.43 185.03 108.2 185.38 110.57 185.73 110.77 186.08 111.76 186.42 111.76 186.77 114.72 187.12 115.71 187.47 115.71 187.82 117.68 188.17 117.29 188.52 117.88 188.87 117.88 189.22 117.88 189.57 116.7 189.92 114.72 190.26 116.1 190.61 114.92 190.96 115.12 191.31 118.28 191.66 121.44 192.01 123.02 192.36 123.02 192.71 121.44 193.06 120.84 193.41 122.62 193.76 122.82 194.11 123.21 194.45 122.62 194.8 123.61 195.15 123.21 195.5 125.39 195.85 126.18 196.2 126.77"/>
      </g>
      <g stroke-width="0.3" fill="#000000" fill-opacity="0.000" class="geometry" stroke-dasharray="none" stroke="#ABDDA4" id="img-6f08e00c-12">
        <path fill="none" d="M21.98,71.86 L 22.33 70.09 22.68 69.89 23.03 73.44 23.38 73.44 23.73 70.28 24.08 64.36 24.42 66.53 24.77 62.98 25.12 63.17 25.47 62.38 25.82 59.62 26.17 58.63 26.52 57.64 26.87 56.85 27.22 58.24 27.57 55.67 27.92 58.04 28.27 61.4 28.61 59.22 28.96 53.89 29.31 56.85 29.66 56.06 30.01 55.87 30.36 56.46 30.71 57.64 31.06 55.67 31.41 56.66 31.76 54.88 32.11 56.26 32.45 55.87 32.8 56.06 33.15 61.2 33.5 63.77 33.85 63.96 34.2 64.56 34.55 68.51 34.9 68.31 35.25 68.31 35.6 69.69 35.95 73.05 36.3 68.7 36.64 73.84 36.99 73.44 37.34 73.05 37.69 73.84 38.04 75.62 38.39 77.39 38.74 78.78 39.09 79.76 39.44 82.33 39.79 82.53 40.14 81.34 40.49 84.11 40.83 83.91 41.18 82.33 41.53 83.71 41.88 83.91 42.23 85.29 42.58 81.94 42.93 80.95 43.28 80.16 43.63 80.16 43.98 83.52 44.33 83.91 44.67 86.68 45.02 84.7 45.37 81.94 45.72 80.55 46.07 76.8 46.42 74.63 46.77 75.81 47.12 77.79 47.47 78.78 47.82 78.58 48.17 80.36 48.52 77.59 48.86 73.05 49.21 68.7 49.56 67.52 49.91 66.73 50.26 70.28 50.61 70.48 50.96 70.28 51.31 73.25 51.66 68.7 52.01 68.9 52.36 72.06 52.7 71.86 53.05 73.44 53.4 75.42 53.75 73.25 54.1 73.25 54.45 72.26 54.8 73.25 55.15 72.26 55.5 76.8 55.85 72.26 56.2 69.89 56.55 71.86 56.89 69.69 57.24 73.84 57.59 70.09 57.94 71.67 58.29 69.69 58.64 69.3 58.99 73.44 59.34 71.07 59.69 74.83 60.04 74.04 60.39 71.86 60.73 71.27 61.08 68.7 61.43 65.54 61.78 64.36 62.13 67.12 62.48 68.9 62.83 70.28 63.18 70.28 63.53 70.28 63.88 69.3 64.23 69.49 64.58 66.33 64.92 64.16 65.27 65.15 65.62 68.11 65.97 71.47 66.32 70.09 66.67 67.72 67.02 68.31 67.37 67.72 67.72 64.75 68.07 63.77 68.42 67.72 68.77 66.73 69.11 70.09 69.46 69.89 69.81 76.6 70.16 78.78 70.51 75.62 70.86 75.62 71.21 79.17 71.56 76.8 71.91 78.97 72.26 80.95 72.61 77.59 72.95 74.83 73.3 73.64 73.65 73.84 74 70.09 74.35 68.9 74.7 72.26 75.05 71.67 75.4 70.09 75.75 73.64 76.1 75.42 76.45 76.01 76.8 74.63 77.14 77.39 77.49 78.97 77.84 77.99 78.19 77.79 78.54 75.62 78.89 69.49 79.24 70.28 79.59 73.44 79.94 71.67 80.29 69.69 80.64 69.49 80.98 65.35 81.33 67.52 81.68 65.94 82.03 70.28 82.38 66.93 82.73 66.33 83.08 63.96 83.43 66.33 83.78 65.35 84.13 69.1 84.48 68.9 84.83 74.04 85.17 74.83 85.52 72.85 85.87 73.44 86.22 73.44 86.57 72.85 86.92 73.64 87.27 71.27 87.62 70.48 87.97 68.51 88.32 66.53 88.67 64.75 89.02 59.82 89.36 55.47 89.71 56.06 90.06 56.26 90.41 53.3 90.76 50.14 91.11 46.19 91.46 47.57 91.81 46.19 92.16 44.61 92.51 44.41 92.86 47.77 93.2 48.36 93.55 49.15 93.9 48.56 94.25 48.36 94.6 50.93 94.95 50.53 95.3 51.52 95.65 52.9 96 52.51 96.35 53.3 96.7 52.31 97.05 51.92 97.39 52.71 97.74 59.22 98.09 56.66 98.44 60.21 98.79 60.21 99.14 61.59 99.49 62.58 99.84 60.21 100.19 60.61 100.54 63.37 100.89 62.19 101.23 60.61 101.58 59.42 101.93 65.35 102.28 65.15 102.63 67.91 102.98 68.31 103.33 65.94 103.68 64.75 104.03 61 104.38 61.99 104.73 58.63 105.08 61.2 105.42 57.45 105.77 54.68 106.12 52.51 106.47 51.52 106.82 52.51 107.17 52.71 107.52 53.3 107.87 56.85 108.22 59.22 108.57 60.21 108.92 62.98 109.26 63.57 109.61 64.95 109.96 64.36 110.31 66.53 110.66 62.38 111.01 65.94 111.36 63.77 111.71 63.37 112.06 64.75 112.41 64.16 112.76 68.9 113.11 68.51 113.45 66.14 113.8 65.54 114.15 69.49 114.5 70.48 114.85 70.88 115.2 74.43 115.55 71.47 115.9 73.44 116.25 75.62 116.6 71.07 116.95 71.67 117.3 68.7 117.64 72.06 117.99 66.73 118.34 68.7 118.69 69.3 119.04 69.1 119.39 70.48 119.74 68.9 120.09 66.73 120.44 65.15 120.79 63.37 121.14 63.57 121.48 66.14 121.83 66.53 122.18 64.16 122.53 68.7 122.88 71.67 123.23 71.67 123.58 77 123.93 76.21 124.28 77 124.63 73.05 124.98 74.04 125.33 80.16 125.67 80.75 126.02 83.91 126.37 84.5 126.72 82.53 127.07 82.33 127.42 83.32 127.77 84.7 128.12 84.11 128.47 85.89 128.82 86.08 129.17 88.85 129.51 88.26 129.86 88.65 130.21 86.28 130.56 85.49 130.91 86.28 131.26 82.92 131.61 81.94 131.96 81.94 132.31 80.95 132.66 77.59 133.01 80.75 133.36 82.73 133.7 82.53 134.05 82.33 134.4 82.33 134.75 84.31 135.1 84.11 135.45 81.74 135.8 81.54 136.15 79.76 136.5 80.36 136.85 80.16 137.2 74.43 137.55 74.04 137.89 69.89 138.24 68.9 138.59 69.89 138.94 70.68 139.29 70.88 139.64 72.46 139.99 70.68 140.34 64.95 140.69 66.73 141.04 68.51 141.39 70.28 141.73 70.68 142.08 69.49 142.43 66.73 142.78 67.91 143.13 68.51 143.48 66.33 143.83 67.52 144.18 66.53 144.53 63.37 144.88 66.14 145.23 69.3 145.58 65.74 145.92 63.57 146.27 63.96 146.62 66.33 146.97 66.73 147.32 68.31 147.67 65.15 148.02 68.51 148.37 66.73 148.72 65.74 149.07 66.33 149.42 70.09 149.76 68.11 150.11 67.52 150.46 70.09 150.81 71.27 151.16 70.09 151.51 70.28 151.86 71.27 152.21 68.31 152.56 64.75 152.91 67.52 153.26 70.48 153.61 68.31 153.95 68.7 154.3 68.9 154.65 70.09 155 65.94 155.35 68.9 155.7 67.32 156.05 67.32 156.4 66.14 156.75 67.12 157.1 66.33 157.45 64.16 157.79 63.77 158.14 64.95 158.49 66.53 158.84 67.72 159.19 69.49 159.54 67.91 159.89 66.14 160.24 63.57 160.59 66.53 160.94 66.33 161.29 65.94 161.64 66.73 161.98 67.72 162.33 67.32 162.68 66.33 163.03 63.37 163.38 60.8 163.73 61 164.08 65.54 164.43 64.75 164.78 62.19 165.13 61.2 165.48 59.62 165.83 61.79 166.17 64.95 166.52 67.32 166.87 64.56 167.22 65.15 167.57 67.91 167.92 69.49 168.27 66.53 168.62 65.15 168.97 63.17 169.32 70.09 169.67 67.91 170.01 70.68 170.36 71.47 170.71 72.46 171.06 69.1 171.41 71.67 171.76 70.28 172.11 68.11 172.46 68.51 172.81 65.94 173.16 66.73 173.51 66.93 173.86 66.73 174.2 72.26 174.55 75.22 174.9 75.62 175.25 73.64 175.6 72.65 175.95 75.22 176.3 77 176.65 73.64 177 73.25 177.35 75.42 177.7 77.79 178.04 74.63 178.39 74.23 178.74 68.7 179.09 60.8 179.44 59.62 179.79 62.78 180.14 61 180.49 62.98 180.84 61.4 181.19 59.42 181.54 61 181.89 59.22 182.23 57.45 182.58 59.42 182.93 62.78 183.28 59.22 183.63 61 183.98 56.06 184.33 56.06 184.68 53.5 185.03 54.29 185.38 53.5 185.73 50.14 186.08 51.52 186.42 50.93 186.77 48.56 187.12 46.39 187.47 46.98 187.82 50.93 188.17 50.53 188.52 48.95 188.87 47.57 189.22 48.76 189.57 47.77 189.92 47.57 190.26 49.74 190.61 48.16 190.96 48.76 191.31 45 191.66 43.23 192.01 41.45 192.36 39.27 192.71 38.88 193.06 41.64 193.41 43.23 193.76 49.35 194.11 47.97 194.45 46.98 194.8 45.79 195.15 45.79 195.5 46.39 195.85 52.11 196.2 51.92"/>
      </g>
      <g stroke-width="0.3" fill="#000000" fill-opacity="0.000" class="geometry" stroke-dasharray="none" stroke="#E6F598" id="img-6f08e00c-13">
        <path fill="none" d="M21.98,71.86 L 22.33 71.07 22.68 73.05 23.03 69.1 23.38 65.15 23.73 69.3 24.08 67.91 24.42 64.36 24.77 64.36 25.12 65.15 25.47 62.98 25.82 61.79 26.17 59.42 26.52 58.63 26.87 58.04 27.22 58.63 27.57 62.58 27.92 59.62 28.27 61.79 28.61 60.8 28.96 58.83 29.31 57.84 29.66 55.87 30.01 54.29 30.36 52.31 30.71 49.35 31.06 50.34 31.41 49.74 31.76 47.57 32.11 49.35 32.45 51.52 32.8 50.53 33.15 50.73 33.5 47.37 33.85 44.21 34.2 45 34.55 46.19 34.9 45.2 35.25 43.82 35.6 41.64 35.95 44.02 36.3 50.14 36.64 49.55 36.99 48.76 37.34 50.53 37.69 46.19 38.04 48.76 38.39 51.32 38.74 49.94 39.09 47.77 39.44 48.56 39.79 51.13 40.14 51.52 40.49 53.3 40.83 54.09 41.18 53.1 41.53 53.69 41.88 54.68 42.23 55.87 42.58 52.9 42.93 50.34 43.28 50.34 43.63 50.14 43.98 53.5 44.33 51.72 44.67 51.92 45.02 47.37 45.37 47.97 45.72 51.92 46.07 52.11 46.42 54.68 46.77 49.15 47.12 52.51 47.47 53.69 47.82 56.26 48.17 59.22 48.52 60.61 48.86 60.61 49.21 61.2 49.56 58.04 49.91 57.64 50.26 56.06 50.61 57.05 50.96 58.43 51.31 55.87 51.66 53.89 52.01 55.27 52.36 57.84 52.7 57.25 53.05 54.29 53.4 54.48 53.75 51.52 54.1 50.53 54.45 52.31 54.8 56.06 55.15 59.62 55.5 58.24 55.85 61.59 56.2 60.21 56.55 59.42 56.89 62.78 57.24 60.01 57.59 61 57.94 63.57 58.29 64.16 58.64 61.79 58.99 62.38 59.34 61.59 59.69 61.4 60.04 62.19 60.39 62.58 60.73 58.83 61.08 54.88 61.43 52.71 61.78 54.09 62.13 57.45 62.48 56.06 62.83 57.84 63.18 63.77 63.53 66.73 63.88 70.48 64.23 74.63 64.58 70.28 64.92 70.09 65.27 68.7 65.62 72.46 65.97 71.27 66.32 69.49 66.67 64.95 67.02 67.52 67.37 68.7 67.72 69.69 68.07 69.49 68.42 69.3 68.77 67.32 69.11 62.98 69.46 67.12 69.81 67.52 70.16 71.47 70.51 71.67 70.86 69.89 71.21 70.28 71.56 71.67 71.91 70.48 72.26 68.51 72.61 65.74 72.95 69.49 73.3 71.27 73.65 72.65 74 72.46 74.35 73.64 74.7 78.58 75.05 82.73 75.4 84.31 75.75 80.55 76.1 84.31 76.45 89.44 76.8 91.61 77.14 89.05 77.49 89.64 77.84 91.81 78.19 93 78.54 93.39 78.89 95.96 79.24 97.34 79.59 97.54 79.94 98.33 80.29 99.51 80.64 103.46 80.98 104.85 81.33 102.48 81.68 102.67 82.03 102.87 82.38 102.48 82.73 99.71 83.08 98.13 83.43 94.58 83.78 91.81 84.13 91.02 84.48 89.64 84.83 88.45 85.17 91.81 85.52 91.61 85.87 91.02 86.22 93.98 86.57 92.4 86.92 93 87.27 91.42 87.62 91.42 87.97 91.61 88.32 90.43 88.67 89.84 89.02 91.22 89.36 97.14 89.71 96.75 90.06 98.72 90.41 96.55 90.76 90.03 91.11 91.02 91.46 90.43 91.81 92.01 92.16 95.17 92.51 92.01 92.86 92.21 93.2 92.21 93.55 93.19 93.9 96.95 94.25 97.93 94.6 96.55 94.95 93.59 95.3 96.95 95.65 98.53 96 100.7 96.35 98.72 96.7 98.92 97.05 99.71 97.39 98.13 97.74 95.17 98.09 97.34 98.44 98.53 98.79 97.14 99.14 99.51 99.49 99.32 99.84 99.32 100.19 99.12 100.54 100.3 100.89 101.88 101.23 105.24 101.58 104.06 101.93 101.88 102.28 99.71 102.63 101.29 102.98 99.12 103.33 102.08 103.68 103.27 104.03 101.69 104.38 103.07 104.73 101.69 105.08 100.5 105.42 97.34 105.77 96.55 106.12 97.74 106.47 97.93 106.82 93.19 107.17 95.56 107.52 93.79 107.87 95.76 108.22 96.75 108.57 96.35 108.92 95.17 109.26 95.17 109.61 91.81 109.96 89.24 110.31 90.43 110.66 88.06 111.01 86.87 111.36 87.66 111.71 88.26 112.06 88.26 112.41 85.89 112.76 90.43 113.11 90.23 113.45 83.91 113.8 84.5 114.15 82.92 114.5 85.29 114.85 88.06 115.2 90.03 115.55 89.24 115.9 87.86 116.25 85.49 116.6 88.26 116.95 86.87 117.3 86.87 117.64 86.87 117.99 85.89 118.34 83.71 118.69 84.31 119.04 83.32 119.39 82.73 119.74 81.74 120.09 79.76 120.44 81.15 120.79 76.8 121.14 71.07 121.48 69.49 121.83 67.72 122.18 66.53 122.53 67.91 122.88 65.94 123.23 67.91 123.58 66.33 123.93 68.7 124.28 70.09 124.63 70.68 124.98 67.52 125.33 67.32 125.67 65.74 126.02 65.35 126.37 65.54 126.72 67.32 127.07 68.51 127.42 66.73 127.77 67.91 128.12 66.53 128.47 66.53 128.82 62.58 129.17 61 129.51 61 129.86 60.01 130.21 61.99 130.56 59.82 130.91 63.17 131.26 60.61 131.61 61.2 131.96 59.82 132.31 59.82 132.66 64.56 133.01 65.54 133.36 66.73 133.7 67.91 134.05 68.9 134.4 72.06 134.75 73.64 135.1 74.04 135.45 73.05 135.8 70.68 136.15 76.21 136.5 76.41 136.85 74.83 137.2 75.81 137.55 72.65 137.89 69.89 138.24 73.05 138.59 71.67 138.94 73.25 139.29 73.64 139.64 76.01 139.99 77.79 140.34 77.59 140.69 79.37 141.04 82.33 141.39 82.53 141.73 82.53 142.08 82.73 142.43 82.13 142.78 77.39 143.13 77.59 143.48 71.67 143.83 72.06 144.18 71.86 144.53 70.88 144.88 68.7 145.23 73.05 145.58 75.22 145.92 77.39 146.27 82.73 146.62 80.55 146.97 84.5 147.32 85.1 147.67 82.73 148.02 81.54 148.37 79.57 148.72 82.33 149.07 79.57 149.42 82.53 149.76 82.53 150.11 84.7 150.46 86.28 150.81 85.49 151.16 80.75 151.51 80.95 151.86 79.76 152.21 76.8 152.56 76.8 152.91 80.16 153.26 77.2 153.61 75.81 153.95 73.64 154.3 76.41 154.65 72.85 155 75.02 155.35 77.2 155.7 78.58 156.05 80.95 156.4 80.75 156.75 81.94 157.1 83.32 157.45 84.7 157.79 82.73 158.14 81.74 158.49 88.06 158.84 90.43 159.19 92.4 159.54 91.02 159.89 90.03 160.24 90.63 160.59 88.65 160.94 88.65 161.29 86.68 161.64 84.11 161.98 84.5 162.33 80.55 162.68 76.21 163.03 75.62 163.38 74.23 163.73 69.69 164.08 70.28 164.43 69.69 164.78 70.28 165.13 68.31 165.48 69.3 165.83 66.33 166.17 66.53 166.52 63.77 166.87 65.35 167.22 64.36 167.57 64.36 167.92 61.79 168.27 65.94 168.62 68.51 168.97 69.69 169.32 69.69 169.67 70.88 170.01 71.86 170.36 72.06 170.71 69.1 171.06 70.09 171.41 72.85 171.76 70.28 172.11 69.69 172.46 72.06 172.81 69.69 173.16 68.51 173.51 71.86 173.86 66.33 174.2 66.73 174.55 67.52 174.9 67.12 175.25 62.78 175.6 63.37 175.95 61 176.3 61.79 176.65 62.78 177 61.2 177.35 62.19 177.7 59.42 178.04 58.63 178.39 59.82 178.74 58.24 179.09 59.03 179.44 60.01 179.79 57.64 180.14 59.82 180.49 58.04 180.84 56.66 181.19 56.06 181.54 60.21 181.89 56.85 182.23 55.27 182.58 52.31 182.93 55.67 183.28 58.04 183.63 60.41 183.98 64.36 184.33 64.95 184.68 63.17 185.03 63.96 185.38 64.56 185.73 62.58 186.08 64.75 186.42 65.54 186.77 69.49 187.12 71.07 187.47 66.33 187.82 64.16 188.17 58.83 188.52 59.42 188.87 60.01 189.22 61.4 189.57 59.62 189.92 61.4 190.26 62.19 190.61 62.78 190.96 65.35 191.31 62.19 191.66 64.16 192.01 63.57 192.36 61.79 192.71 58.83 193.06 60.01 193.41 60.41 193.76 65.54 194.11 65.35 194.45 68.11 194.8 70.68 195.15 74.04 195.5 70.88 195.85 70.09 196.2 64.75"/>
      </g>
      <g stroke-width="0.3" fill="#000000" fill-opacity="0.000" class="geometry" stroke-dasharray="none" stroke="#FFFFBF" id="img-6f08e00c-14">
        <path fill="none" d="M21.98,71.86 L 22.33 67.72 22.68 65.54 23.03 66.33 23.38 66.53 23.73 61.99 24.08 60.01 24.42 57.84 24.77 58.83 25.12 60.41 25.47 55.27 25.82 54.29 26.17 56.06 26.52 56.06 26.87 56.66 27.22 57.45 27.57 56.06 27.92 55.67 28.27 59.42 28.61 56.66 28.96 57.45 29.31 56.46 29.66 55.87 30.01 53.89 30.36 57.25 30.71 55.47 31.06 55.08 31.41 57.45 31.76 60.41 32.11 62.58 32.45 65.54 32.8 64.75 33.15 63.96 33.5 64.56 33.85 67.91 34.2 70.28 34.55 66.93 34.9 64.36 35.25 62.98 35.6 59.42 35.95 57.84 36.3 58.04 36.64 60.41 36.99 60.61 37.34 61.99 37.69 68.51 38.04 67.32 38.39 64.95 38.74 66.73 39.09 63.77 39.44 68.9 39.79 69.1 40.14 66.14 40.49 67.32 40.83 69.1 41.18 70.09 41.53 70.68 41.88 70.68 42.23 73.25 42.58 70.68 42.93 68.11 43.28 66.73 43.63 68.51 43.98 71.86 44.33 74.83 44.67 71.27 45.02 72.06 45.37 72.26 45.72 72.85 46.07 68.51 46.42 66.93 46.77 66.33 47.12 62.19 47.47 61.79 47.82 61.2 48.17 61 48.52 62.98 48.86 63.57 49.21 67.52 49.56 69.49 49.91 71.86 50.26 75.02 50.61 74.43 50.96 72.65 51.31 66.73 51.66 63.57 52.01 61.99 52.36 60.61 52.7 62.38 53.05 61.4 53.4 61.4 53.75 62.78 54.1 63.77 54.45 63.77 54.8 59.03 55.15 59.82 55.5 61.4 55.85 65.35 56.2 62.19 56.55 59.22 56.89 57.05 57.24 55.47 57.59 59.82 57.94 60.61 58.29 60.61 58.64 57.84 58.99 56.85 59.34 56.66 59.69 56.46 60.04 56.06 60.39 57.45 60.73 59.22 61.08 56.85 61.43 56.66 61.78 56.06 62.13 53.3 62.48 51.92 62.83 53.69 63.18 51.92 63.53 53.5 63.88 51.92 64.23 49.55 64.58 48.76 64.92 48.95 65.27 52.31 65.62 50.53 65.97 48.95 66.32 52.51 66.67 54.48 67.02 56.66 67.37 54.68 67.72 55.27 68.07 56.46 68.42 58.83 68.77 64.36 69.11 64.56 69.46 64.56 69.81 62.38 70.16 61.79 70.51 61.99 70.86 59.82 71.21 57.25 71.56 61 71.91 60.01 72.26 63.57 72.61 64.75 72.95 67.12 73.3 69.3 73.65 71.86 74 70.09 74.35 69.69 74.7 73.84 75.05 74.04 75.4 73.44 75.75 73.64 76.1 75.81 76.45 76.01 76.8 72.06 77.14 72.65 77.49 72.26 77.84 75.22 78.19 76.21 78.54 75.81 78.89 77 79.24 77.39 79.59 80.16 79.94 79.96 80.29 84.9 80.64 83.52 80.98 85.29 81.33 86.68 81.68 85.89 82.03 84.31 82.38 85.69 82.73 86.68 83.08 85.89 83.43 86.08 83.78 90.23 84.13 90.03 84.48 93.59 84.83 96.75 85.17 101.49 85.52 103.07 85.87 100.5 86.22 100.7 86.57 101.69 86.92 101.88 87.27 98.92 87.62 100.9 87.97 100.11 88.32 102.87 88.67 99.32 89.02 97.14 89.36 99.91 89.71 99.91 90.06 99.32 90.41 100.11 90.76 99.12 91.11 97.93 91.46 96.35 91.81 95.96 92.16 96.16 92.51 94.77 92.86 95.37 93.2 97.54 93.55 95.56 93.9 94.77 94.25 92.21 94.6 89.84 94.95 89.84 95.3 88.85 95.65 85.89 96 84.5 96.35 84.7 96.7 81.15 97.05 77.2 97.39 79.57 97.74 82.33 98.09 84.31 98.44 82.33 98.79 77.39 99.14 77 99.49 75.02 99.84 76.6 100.19 72.06 100.54 76.8 100.89 78.38 101.23 77.59 101.58 75.02 101.93 74.23 102.28 77.79 102.63 78.38 102.98 82.13 103.33 82.53 103.68 86.48 104.03 88.06 104.38 86.87 104.73 89.84 105.08 89.84 105.42 88.65 105.77 87.66 106.12 85.49 106.47 85.29 106.82 86.08 107.17 91.02 107.52 94.18 107.87 95.17 108.22 95.96 108.57 97.54 108.92 96.75 109.26 98.33 109.61 98.53 109.96 101.69 110.31 102.67 110.66 102.08 111.01 101.09 111.36 99.91 111.71 100.9 112.06 100.9 112.41 101.09 112.76 103.46 113.11 104.25 113.45 108.2 113.8 108.99 114.15 111.76 114.5 111.36 114.85 110.97 115.2 112.94 115.55 113.34 115.9 111.56 116.25 112.35 116.6 113.73 116.95 115.12 117.3 116.3 117.64 116.5 117.99 118.47 118.34 117.29 118.69 113.14 119.04 113.73 119.39 112.15 119.74 110.77 120.09 113.54 120.44 111.56 120.79 109.39 121.14 110.57 121.48 114.33 121.83 115.91 122.18 115.71 122.53 117.68 122.88 117.49 123.23 115.71 123.58 113.93 123.93 114.92 124.28 113.93 124.63 115.51 124.98 114.13 125.33 112.75 125.67 114.13 126.02 116.89 126.37 117.88 126.72 118.28 127.07 115.31 127.42 112.55 127.77 113.14 128.12 112.75 128.47 111.36 128.82 111.56 129.17 109.39 129.51 111.56 129.86 110.97 130.21 111.17 130.56 109.19 130.91 110.57 131.26 111.56 131.61 109.59 131.96 110.38 132.31 112.35 132.66 112.94 133.01 113.73 133.36 112.75 133.7 112.35 134.05 111.36 134.4 110.18 134.75 109.39 135.1 110.97 135.45 110.97 135.8 112.75 136.15 115.31 136.5 118.28 136.85 119.26 137.2 120.84 137.55 119.26 137.89 119.46 138.24 117.49 138.59 116.89 138.94 117.49 139.29 118.08 139.64 117.68 139.99 116.5 140.34 115.31 140.69 117.09 141.04 117.88 141.39 118.28 141.73 116.89 142.08 118.87 142.43 117.29 142.78 117.68 143.13 117.88 143.48 115.31 143.83 114.52 144.18 114.13 144.53 113.14 144.88 117.49 145.23 116.1 145.58 116.5 145.92 115.91 146.27 115.71 146.62 117.68 146.97 116.7 147.32 117.29 147.67 115.51 148.02 115.91 148.37 116.89 148.72 119.46 149.07 118.67 149.42 119.66 149.76 118.47 150.11 119.07 150.46 121.63 150.81 123.41 151.16 122.42 151.51 122.82 151.86 123.41 152.21 121.63 152.56 121.63 152.91 121.63 153.26 122.23 153.61 120.45 153.95 119.66 154.3 119.66 154.65 117.88 155 119.26 155.35 119.07 155.7 121.83 156.05 120.65 156.4 118.67 156.75 119.26 157.1 117.49 157.45 117.29 157.79 115.12 158.14 114.92 158.49 116.3 158.84 115.12 159.19 115.91 159.54 113.34 159.89 113.54 160.24 112.94 160.59 113.93 160.94 115.51 161.29 114.13 161.64 115.31 161.98 112.35 162.33 112.75 162.68 112.35 163.03 110.97 163.38 112.55 163.73 114.13 164.08 113.54 164.43 115.51 164.78 113.54 165.13 114.92 165.48 115.31 165.83 113.14 166.17 111.96 166.52 112.55 166.87 111.96 167.22 113.34 167.57 112.75 167.92 113.14 168.27 111.56 168.62 112.55 168.97 112.15 169.32 110.97 169.67 108.6 170.01 108.4 170.36 106.43 170.71 105.64 171.06 101.49 171.41 101.09 171.76 96.95 172.11 94.38 172.46 97.54 172.81 99.12 173.16 100.5 173.51 97.93 173.86 101.69 174.2 99.32 174.55 101.49 174.9 102.28 175.25 101.88 175.6 101.09 175.95 100.11 176.3 103.07 176.65 105.04 177 106.82 177.35 105.64 177.7 103.27 178.04 99.51 178.39 101.09 178.74 101.88 179.09 100.7 179.44 98.72 179.79 99.12 180.14 95.37 180.49 95.96 180.84 96.16 181.19 95.76 181.54 97.74 181.89 97.93 182.23 96.95 182.58 96.35 182.93 95.76 183.28 96.95 183.63 97.34 183.98 97.34 184.33 97.34 184.68 99.71 185.03 100.7 185.38 102.08 185.73 103.07 186.08 104.85 186.42 103.66 186.77 107.41 187.12 108.2 187.47 110.18 187.82 113.73 188.17 117.49 188.52 117.29 188.87 117.29 189.22 116.89 189.57 118.28 189.92 119.66 190.26 120.45 190.61 120.65 190.96 120.25 191.31 118.47 191.66 117.29 192.01 118.28 192.36 114.52 192.71 113.54 193.06 115.71 193.41 112.35 193.76 112.15 194.11 110.97 194.45 113.14 194.8 114.72 195.15 115.12 195.5 116.1 195.85 115.12 196.2 116.5"/>
      </g>
      <g stroke-width="0.3" fill="#000000" fill-opacity="0.000" class="geometry" stroke-dasharray="none" stroke="#FEE08B" id="img-6f08e00c-15">
        <path fill="none" d="M21.98,71.86 L 22.33 73.05 22.68 71.67 23.03 68.11 23.38 66.73 23.73 64.75 24.08 61.59 24.42 58.63 24.77 62.58 25.12 63.77 25.47 65.54 25.82 67.32 26.17 70.88 26.52 69.49 26.87 70.48 27.22 72.26 27.57 72.85 27.92 79.17 28.27 77.59 28.61 77.39 28.96 78.58 29.31 82.92 29.66 84.31 30.01 84.9 30.36 85.29 30.71 84.5 31.06 85.29 31.41 83.71 31.76 81.15 32.11 81.94 32.45 78.18 32.8 77.99 33.15 81.94 33.5 78.18 33.85 77.39 34.2 76.01 34.55 77.59 34.9 77.99 35.25 79.57 35.6 77 35.95 77.39 36.3 76.41 36.64 75.62 36.99 77 37.34 74.04 37.69 74.63 38.04 75.02 38.39 73.64 38.74 73.84 39.09 70.48 39.44 74.23 39.79 73.64 40.14 74.83 40.49 76.01 40.83 74.83 41.18 74.83 41.53 74.23 41.88 75.42 42.23 75.62 42.58 77 42.93 76.21 43.28 77.2 43.63 76.21 43.98 77 44.33 72.65 44.67 74.04 45.02 75.81 45.37 80.16 45.72 79.37 46.07 80.55 46.42 80.95 46.77 77.39 47.12 74.04 47.47 70.28 47.82 67.52 48.17 64.16 48.52 66.33 48.86 64.16 49.21 63.57 49.56 63.96 49.91 62.19 50.26 58.43 50.61 61.79 50.96 59.03 51.31 57.84 51.66 59.03 52.01 58.04 52.36 60.01 52.7 56.66 53.05 52.11 53.4 54.29 53.75 53.69 54.1 55.08 54.45 55.47 54.8 54.68 55.15 52.11 55.5 52.11 55.85 50.34 56.2 51.72 56.55 58.63 56.89 61.79 57.24 58.63 57.59 57.05 57.94 54.68 58.29 54.09 58.64 53.3 58.99 55.67 59.34 59.22 59.69 59.62 60.04 59.42 60.39 57.45 60.73 54.68 61.08 55.08 61.43 52.9 61.78 55.08 62.13 58.04 62.48 56.26 62.83 58.24 63.18 61.2 63.53 65.94 63.88 65.94 64.23 61.79 64.58 59.22 64.92 57.45 65.27 55.67 65.62 57.64 65.97 58.83 66.32 58.04 66.67 55.47 67.02 49.35 67.37 48.76 67.72 46.58 68.07 48.16 68.42 47.37 68.77 45.79 69.11 45 69.46 45.6 69.81 43.82 70.16 47.97 70.51 51.13 70.86 51.52 71.21 50.93 71.56 52.11 71.91 50.14 72.26 50.53 72.61 55.47 72.95 54.09 73.3 53.5 73.65 52.51 74 50.93 74.35 50.93 74.7 50.14 75.05 51.32 75.4 47.57 75.75 51.13 76.1 54.68 76.45 55.67 76.8 54.29 77.14 55.27 77.49 55.87 77.84 56.06 78.19 53.1 78.54 53.3 78.89 53.1 79.24 51.52 79.59 50.93 79.94 50.34 80.29 50.93 80.64 52.31 80.98 57.25 81.33 56.46 81.68 56.85 82.03 57.05 82.38 53.1 82.73 53.1 83.08 56.46 83.43 57.64 83.78 57.25 84.13 57.05 84.48 59.22 84.83 58.43 85.17 59.03 85.52 59.42 85.87 58.83 86.22 58.63 86.57 60.61 86.92 58.83 87.27 53.89 87.62 52.11 87.97 49.74 88.32 52.71 88.67 53.3 89.02 51.72 89.36 49.74 89.71 47.97 90.06 48.76 90.41 47.57 90.76 46.58 91.11 48.76 91.46 49.35 91.81 50.73 92.16 51.32 92.51 53.5 92.86 50.34 93.2 46.78 93.55 46.78 93.9 45.79 94.25 43.42 94.6 44.41 94.95 41.45 95.3 41.64 95.65 41.64 96 42.44 96.35 43.23 96.7 42.63 97.05 41.25 97.39 37.89 97.74 34.73 98.09 34.73 98.44 37.1 98.79 38.48 99.14 41.84 99.49 40.46 99.84 41.45 100.19 38.29 100.54 35.72 100.89 33.94 101.23 32.16 101.58 31.18 101.93 34.34 102.28 31.18 102.63 31.18 102.98 30.39 103.33 31.97 103.68 29.99 104.03 31.18 104.38 31.97 104.73 32.76 105.08 31.77 105.42 33.74 105.77 35.52 106.12 33.74 106.47 34.73 106.82 38.09 107.17 35.92 107.52 35.32 107.87 37.3 108.22 35.92 108.57 35.13 108.92 37.1 109.26 38.48 109.61 36.51 109.96 39.27 110.31 37.1 110.66 36.11 111.01 34.53 111.36 33.94 111.71 33.74 112.06 33.55 112.41 34.93 112.76 31.77 113.11 29.99 113.45 29.99 113.8 31.18 114.15 31.37 114.5 30.39 114.85 33.15 115.2 35.32 115.55 35.52 115.9 35.72 116.25 34.53 116.6 34.53 116.95 34.93 117.3 34.34 117.64 31.97 117.99 33.55 118.34 31.37 118.69 32.36 119.04 31.37 119.39 33.74 119.74 36.9 120.09 37.5 120.44 35.32 120.79 36.11 121.14 34.14 121.48 34.73 121.83 35.32 122.18 37.69 122.53 40.26 122.88 40.85 123.23 41.05 123.58 41.25 123.93 41.25 124.28 39.08 124.63 38.88 124.98 37.69 125.33 36.71 125.67 37.89 126.02 39.47 126.37 39.27 126.72 38.68 127.07 38.88 127.42 37.5 127.77 38.48 128.12 40.26 128.47 40.66 128.82 43.82 129.17 46.58 129.51 46.98 129.86 49.15 130.21 53.69 130.56 53.3 130.91 52.31 131.26 51.72 131.61 50.73 131.96 45.6 132.31 44.21 132.66 42.63 133.01 44.21 133.36 45.99 133.7 44.02 134.05 43.03 134.4 39.27 134.75 37.3 135.1 37.5 135.45 38.09 135.8 38.48 136.15 37.5 136.5 37.69 136.85 38.88 137.2 34.93 137.55 35.52 137.89 38.48 138.24 38.48 138.59 42.63 138.94 42.04 139.29 40.26 139.64 35.92 139.99 35.92 140.34 34.53 140.69 34.34 141.04 30.98 141.39 28.02 141.73 27.82 142.08 27.42 142.43 26.63 142.78 27.42 143.13 25.45 143.48 28.41 143.83 28.02 144.18 28.81 144.53 31.77 144.88 32.76 145.23 34.93 145.58 33.74 145.92 33.74 146.27 32.36 146.62 35.92 146.97 37.69 147.32 37.5 147.67 35.32 148.02 34.73 148.37 34.73 148.72 34.34 149.07 33.94 149.42 34.93 149.76 37.3 150.11 37.3 150.46 37.3 150.81 39.27 151.16 39.27 151.51 39.27 151.86 42.24 152.21 42.83 152.56 41.45 152.91 40.66 153.26 43.62 153.61 44.21 153.95 43.82 154.3 43.62 154.65 41.64 155 41.84 155.35 44.61 155.7 46.39 156.05 47.57 156.4 46.98 156.75 53.5 157.1 50.73 157.45 50.73 157.79 52.31 158.14 46.78 158.49 47.37 158.84 48.16 159.19 46.78 159.54 46.98 159.89 44.61 160.24 40.26 160.59 37.69 160.94 39.27 161.29 36.9 161.64 38.68 161.98 38.48 162.33 37.3 162.68 35.72 163.03 37.89 163.38 36.71 163.73 34.14 164.08 32.16 164.43 31.18 164.78 29 165.13 28.61 165.48 28.02 165.83 28.81 166.17 28.61 166.52 29.99 166.87 29 167.22 31.57 167.57 33.94 167.92 33.74 168.27 38.88 168.62 38.88 168.97 35.72 169.32 37.69 169.67 37.3 170.01 36.9 170.36 33.15 170.71 35.13 171.06 31.37 171.41 33.94 171.76 32.16 172.11 31.18 172.46 30.98 172.81 31.18 173.16 29.79 173.51 29.99 173.86 29 174.2 32.95 174.55 30.78 174.9 30.78 175.25 33.35 175.6 35.72 175.95 41.25 176.3 40.26 176.65 36.11 177 37.1 177.35 38.88 177.7 39.27 178.04 39.27 178.39 38.88 178.74 42.63 179.09 42.04 179.44 43.23 179.79 45.79 180.14 50.93 180.49 48.16 180.84 50.53 181.19 50.93 181.54 50.93 181.89 52.11 182.23 48.76 182.58 46.58 182.93 45.79 183.28 47.57 183.63 47.77 183.98 45.2 184.33 47.18 184.68 49.15 185.03 45.4 185.38 43.82 185.73 42.44 186.08 42.44 186.42 45 186.77 43.42 187.12 44.21 187.47 42.63 187.82 41.25 188.17 39.47 188.52 35.92 188.87 36.9 189.22 37.3 189.57 38.68 189.92 43.23 190.26 42.83 190.61 43.62 190.96 43.03 191.31 46.39 191.66 46.98 192.01 43.42 192.36 43.42 192.71 43.62 193.06 43.42 193.41 44.41 193.76 44.21 194.11 41.84 194.45 40.66 194.8 40.26 195.15 39.67 195.5 38.68 195.85 38.48 196.2 35.52"/>
      </g>
      <g stroke-width="0.3" fill="#000000" fill-opacity="0.000" class="geometry" stroke-dasharray="none" stroke="#FDAE61" id="img-6f08e00c-16">
        <path fill="none" d="M21.98,71.86 L 22.33 70.68 22.68 66.14 23.03 69.1 23.38 67.91 23.73 70.68 24.08 73.05 24.42 72.26 24.77 71.07 25.12 75.81 25.47 73.84 25.82 76.6 26.17 78.18 26.52 78.38 26.87 74.63 27.22 76.41 27.57 78.78 27.92 80.95 28.27 82.33 28.61 79.17 28.96 80.16 29.31 81.34 29.66 81.74 30.01 81.34 30.36 79.76 30.71 78.97 31.06 81.74 31.41 84.11 31.76 84.9 32.11 81.34 32.45 85.1 32.8 84.11 33.15 82.33 33.5 83.32 33.85 79.76 34.2 77.99 34.55 79.96 34.9 78.97 35.25 74.63 35.6 77.99 35.95 76.6 36.3 77 36.64 80.55 36.99 80.55 37.34 79.76 37.69 80.75 38.04 82.92 38.39 82.13 38.74 81.94 39.09 80.75 39.44 81.34 39.79 85.29 40.14 83.12 40.49 83.91 40.83 84.31 41.18 87.66 41.53 89.64 41.88 87.27 42.23 82.53 42.58 83.12 42.93 81.54 43.28 78.97 43.63 77.39 43.98 78.97 44.33 77.99 44.67 78.78 45.02 77.59 45.37 78.18 45.72 77.99 46.07 76.21 46.42 73.25 46.77 73.25 47.12 71.07 47.47 66.33 47.82 64.56 48.17 62.98 48.52 63.96 48.86 68.51 49.21 66.73 49.56 61.99 49.91 63.17 50.26 63.17 50.61 66.33 50.96 70.88 51.31 71.86 51.66 68.7 52.01 73.84 52.36 68.9 52.7 68.51 53.05 69.1 53.4 72.46 53.75 70.28 54.1 70.68 54.45 68.11 54.8 66.73 55.15 68.51 55.5 66.33 55.85 65.94 56.2 68.51 56.55 72.85 56.89 70.68 57.24 71.86 57.59 75.42 57.94 79.57 58.29 81.94 58.64 81.94 58.99 80.16 59.34 81.94 59.69 81.74 60.04 82.53 60.39 79.96 60.73 81.54 61.08 83.52 61.43 83.32 61.78 85.49 62.13 88.06 62.48 85.29 62.83 87.07 63.18 88.06 63.53 87.66 63.88 86.87 64.23 84.5 64.58 88.06 64.92 91.81 65.27 92.01 65.62 93.59 65.97 93.19 66.32 91.02 66.67 93 67.02 91.81 67.37 92.4 67.72 91.42 68.07 93.39 68.42 93.59 68.77 94.97 69.11 94.58 69.46 99.12 69.81 99.32 70.16 95.56 70.51 96.35 70.86 99.32 71.21 97.93 71.56 99.12 71.91 101.29 72.26 98.92 72.61 98.72 72.95 91.22 73.3 90.63 73.65 89.05 74 87.07 74.35 89.05 74.7 93 75.05 95.37 75.4 95.17 75.75 94.58 76.1 92.21 76.45 91.22 76.8 89.64 77.14 88.26 77.49 86.08 77.84 87.27 78.19 87.66 78.54 90.43 78.89 88.65 79.24 90.23 79.59 91.22 79.94 87.27 80.29 84.7 80.64 83.12 80.98 81.74 81.33 81.15 81.68 83.12 82.03 83.91 82.38 89.64 82.73 90.63 83.08 91.61 83.43 93.19 83.78 90.63 84.13 87.47 84.48 84.9 84.83 88.26 85.17 89.84 85.52 88.65 85.87 91.81 86.22 93.59 86.57 92.6 86.92 94.18 87.27 94.77 87.62 99.12 87.97 103.07 88.32 103.86 88.67 104.45 89.02 103.66 89.36 101.69 89.71 101.69 90.06 101.09 90.41 102.67 90.76 104.06 91.11 103.66 91.46 105.04 91.81 108.4 92.16 109.19 92.51 113.34 92.86 114.52 93.2 111.17 93.55 112.15 93.9 112.35 94.25 111.17 94.6 117.29 94.95 115.91 95.3 115.51 95.65 120.25 96 121.83 96.35 122.03 96.7 119.86 97.05 118.28 97.39 121.83 97.74 119.46 98.09 117.49 98.44 117.88 98.79 117.68 99.14 119.46 99.49 120.45 99.84 121.04 100.19 121.83 100.54 122.42 100.89 123.61 101.23 123.41 101.58 121.44 101.93 121.63 102.28 122.42 102.63 120.05 102.98 119.86 103.33 119.46 103.68 118.67 104.03 119.66 104.38 118.08 104.73 118.47 105.08 118.87 105.42 118.87 105.77 118.28 106.12 118.08 106.47 118.08 106.82 116.7 107.17 118.87 107.52 119.46 107.87 118.47 108.22 118.08 108.57 116.89 108.92 118.67 109.26 119.46 109.61 120.45 109.96 120.25 110.31 117.49 110.66 113.54 111.01 113.73 111.36 113.14 111.71 107.61 112.06 108.01 112.41 104.45 112.76 107.81 113.11 107.41 113.45 110.38 113.8 108.8 114.15 111.56 114.5 109.39 114.85 109.59 115.2 109.39 115.55 108.01 115.9 106.82 116.25 103.27 116.6 106.23 116.95 103.86 117.3 106.62 117.64 107.61 117.99 108.2 118.34 106.23 118.69 106.82 119.04 107.81 119.39 106.03 119.74 101.29 120.09 101.69 120.44 105.24 120.79 105.44 121.14 107.81 121.48 106.62 121.83 106.82 122.18 107.41 122.53 107.61 122.88 108.2 123.23 108.6 123.58 111.96 123.93 111.76 124.28 111.96 124.63 111.96 124.98 109.39 125.33 108.01 125.67 109.19 126.02 109.59 126.37 109.59 126.72 109.39 127.07 109.19 127.42 109.78 127.77 112.15 128.12 112.35 128.47 111.76 128.82 110.77 129.17 110.18 129.51 105.24 129.86 104.85 130.21 105.04 130.56 105.44 130.91 107.81 131.26 107.81 131.61 107.41 131.96 105.44 132.31 104.85 132.66 106.62 133.01 107.61 133.36 106.03 133.7 106.43 134.05 106.23 134.4 108.2 134.75 106.82 135.1 107.22 135.45 108.6 135.8 107.81 136.15 110.18 136.5 107.22 136.85 107.81 137.2 108.6 137.55 107.02 137.89 104.25 138.24 104.85 138.59 104.85 138.94 104.45 139.29 104.65 139.64 102.28 139.99 101.09 140.34 99.91 140.69 100.5 141.04 100.9 141.39 101.69 141.73 106.82 142.08 106.82 142.43 106.43 142.78 105.44 143.13 103.07 143.48 104.45 143.83 104.65 144.18 103.27 144.53 105.24 144.88 102.87 145.23 100.11 145.58 96.16 145.92 94.58 146.27 98.33 146.62 99.71 146.97 100.7 147.32 102.28 147.67 97.93 148.02 96.55 148.37 91.02 148.72 89.44 149.07 87.86 149.42 84.31 149.76 81.54 150.11 85.1 150.46 85.29 150.81 85.1 151.16 85.89 151.51 88.26 151.86 89.05 152.21 89.44 152.56 89.24 152.91 89.44 153.26 90.82 153.61 91.61 153.95 94.97 154.3 94.18 154.65 95.76 155 92.6 155.35 94.18 155.7 93.98 156.05 97.93 156.4 96.16 156.75 92.01 157.1 94.97 157.45 91.81 157.79 95.96 158.14 98.13 158.49 101.88 158.84 99.71 159.19 97.14 159.54 97.34 159.89 97.54 160.24 99.12 160.59 98.13 160.94 99.12 161.29 96.35 161.64 94.58 161.98 94.38 162.33 94.18 162.68 98.13 163.03 98.53 163.38 96.35 163.73 92.8 164.08 92.4 164.43 91.61 164.78 90.23 165.13 93.39 165.48 91.61 165.83 89.84 166.17 90.23 166.52 89.44 166.87 89.24 167.22 85.49 167.57 82.33 167.92 83.71 168.27 83.32 168.62 85.69 168.97 86.48 169.32 82.73 169.67 79.17 170.01 80.16 170.36 85.29 170.71 84.7 171.06 80.95 171.41 82.33 171.76 84.11 172.11 86.87 172.46 87.07 172.81 88.26 173.16 89.84 173.51 89.44 173.86 91.42 174.2 90.23 174.55 92.8 174.9 90.23 175.25 90.82 175.6 89.64 175.95 90.23 176.3 89.84 176.65 91.81 177 89.24 177.35 86.08 177.7 86.87 178.04 86.68 178.39 85.69 178.74 83.52 179.09 80.75 179.44 81.74 179.79 81.15 180.14 79.57 180.49 77.79 180.84 70.28 181.19 68.51 181.54 68.11 181.89 70.88 182.23 71.67 182.58 72.46 182.93 70.48 183.28 70.68 183.63 70.68 183.98 71.86 184.33 71.07 184.68 72.26 185.03 77.2 185.38 76.01 185.73 76.21 186.08 79.96 186.42 78.78 186.77 80.55 187.12 82.33 187.47 83.71 187.82 83.52 188.17 85.89 188.52 88.65 188.87 89.05 189.22 91.02 189.57 93.59 189.92 92.4 190.26 94.77 190.61 96.75 190.96 95.17 191.31 98.92 191.66 97.74 192.01 96.55 192.36 95.96 192.71 95.56 193.06 92.21 193.41 90.03 193.76 91.22 194.11 92.21 194.45 92.01 194.8 96.35 195.15 98.33 195.5 99.32 195.85 98.92 196.2 100.11"/>
      </g>
      <g stroke-width="0.3" fill="#000000" fill-opacity="0.000" class="geometry" stroke-dasharray="none" stroke="#F46D43" id="img-6f08e00c-17">
        <path fill="none" d="M21.98,71.86 L 22.33 67.32 22.68 69.1 23.03 67.12 23.38 67.32 23.73 65.94 24.08 62.78 24.42 61.2 24.77 62.19 25.12 59.62 25.47 57.45 25.82 57.64 26.17 57.25 26.52 55.27 26.87 56.06 27.22 55.27 27.57 53.3 27.92 56.46 28.27 59.22 28.61 57.84 28.96 57.25 29.31 57.25 29.66 58.24 30.01 57.84 30.36 61.4 30.71 61 31.06 66.53 31.41 68.11 31.76 66.33 32.11 63.96 32.45 65.35 32.8 67.32 33.15 69.3 33.5 65.35 33.85 61.99 34.2 63.17 34.55 63.96 34.9 66.53 35.25 66.53 35.6 61 35.95 57.45 36.3 55.47 36.64 54.88 36.99 51.72 37.34 50.34 37.69 53.5 38.04 52.9 38.39 50.93 38.74 53.5 39.09 54.48 39.44 55.67 39.79 53.5 40.14 47.57 40.49 47.77 40.83 46.39 41.18 45.6 41.53 45 41.88 45.4 42.23 44.21 42.58 44.02 42.93 47.57 43.28 46.39 43.63 45.79 43.98 49.15 44.33 49.74 44.67 48.56 45.02 53.89 45.37 51.32 45.72 53.5 46.07 51.52 46.42 52.71 46.77 49.74 47.12 49.94 47.47 47.57 47.82 47.37 48.17 43.23 48.52 42.04 48.86 42.24 49.21 39.08 49.56 38.68 49.91 39.08 50.26 40.66 50.61 40.06 50.96 42.04 51.31 41.45 51.66 40.66 52.01 39.67 52.36 37.89 52.7 37.3 53.05 37.5 53.4 35.92 53.75 37.1 54.1 39.47 54.45 42.24 54.8 44.02 55.15 47.18 55.5 45.4 55.85 41.84 56.2 39.47 56.55 39.87 56.89 42.24 57.24 43.03 57.59 40.46 57.94 41.84 58.29 41.25 58.64 44.02 58.99 45.2 59.34 43.62 59.69 44.21 60.04 42.24 60.39 43.42 60.73 43.23 61.08 45 61.43 43.03 61.78 43.82 62.13 45.6 62.48 46.19 62.83 44.21 63.18 39.08 63.53 39.27 63.88 41.84 64.23 44.02 64.58 45.2 64.92 44.41 65.27 43.82 65.62 46.78 65.97 47.97 66.32 46.78 66.67 48.36 67.02 46.98 67.37 50.34 67.72 48.76 68.07 48.56 68.42 46.19 68.77 49.74 69.11 51.52 69.46 49.94 69.81 49.15 70.16 51.92 70.51 52.9 70.86 51.92 71.21 52.9 71.56 51.72 71.91 53.5 72.26 48.95 72.61 47.37 72.95 45.4 73.3 46.58 73.65 45.99 74 46.78 74.35 45 74.7 45.6 75.05 42.44 75.4 43.62 75.75 49.35 76.1 47.97 76.45 51.72 76.8 50.14 77.14 49.35 77.49 49.35 77.84 47.77 78.19 49.35 78.54 46.19 78.89 46.19 79.24 45.2 79.59 46.98 79.94 46.19 80.29 47.18 80.64 46.58 80.98 46.58 81.33 47.18 81.68 49.94 82.03 51.52 82.38 50.34 82.73 51.92 83.08 53.3 83.43 55.87 83.78 55.08 84.13 55.67 84.48 55.27 84.83 53.3 85.17 54.88 85.52 54.88 85.87 56.06 86.22 57.05 86.57 50.34 86.92 46.39 87.27 44.41 87.62 43.62 87.97 43.23 88.32 41.84 88.67 40.06 89.02 37.5 89.36 39.27 89.71 38.29 90.06 37.1 90.41 37.1 90.76 36.51 91.11 34.53 91.46 34.73 91.81 33.94 92.16 33.15 92.51 34.93 92.86 35.52 93.2 35.52 93.55 34.53 93.9 32.16 94.25 30.58 94.6 28.81 94.95 28.81 95.3 30.58 95.65 31.37 96 28.02 96.35 29 96.7 29.4 97.05 30.58 97.39 30.98 97.74 33.35 98.09 34.34 98.44 34.53 98.79 33.55 99.14 33.55 99.49 31.77 99.84 32.56 100.19 30.58 100.54 31.37 100.89 29.4 101.23 31.18 101.58 31.18 101.93 29.99 102.28 29 102.63 28.61 102.98 30.39 103.33 31.37 103.68 29 104.03 31.37 104.38 32.95 104.73 31.18 105.08 32.56 105.42 33.15 105.77 29.99 106.12 31.18 106.47 32.95 106.82 33.55 107.17 33.15 107.52 32.95 107.87 34.53 108.22 32.56 108.57 36.11 108.92 36.31 109.26 36.71 109.61 37.69 109.96 38.29 110.31 39.87 110.66 39.27 111.01 38.29 111.36 33.94 111.71 31.97 112.06 32.36 112.41 34.14 112.76 32.36 113.11 32.76 113.45 30.58 113.8 28.81 114.15 29.2 114.5 28.81 114.85 27.62 115.2 28.21 115.55 25.05 115.9 25.05 116.25 22.29 116.6 21.7 116.95 23.67 117.3 24.66 117.64 25.45 117.99 23.28 118.34 25.25 118.69 23.47 119.04 20.71 119.39 21.5 119.74 24.46 120.09 25.65 120.44 24.26 120.79 24.07 121.14 24.66 121.48 25.05 121.83 27.62 122.18 28.81 122.53 28.21 122.88 27.42 123.23 25.84 123.58 25.65 123.93 25.45 124.28 25.45 124.63 25.05 124.98 24.26 125.33 22.49 125.67 24.07 126.02 23.28 126.37 26.24 126.72 29.6 127.07 28.41 127.42 30.98 127.77 27.23 128.12 25.25 128.47 26.44 128.82 25.45 129.17 28.41 129.51 26.24 129.86 27.42 130.21 27.42 130.56 29.4 130.91 30.78 131.26 30.39 131.61 28.02 131.96 26.63 132.31 26.63 132.66 25.84 133.01 26.83 133.36 28.21 133.7 30.39 134.05 30.78 134.4 30.58 134.75 29.4 135.1 29 135.45 32.36 135.8 32.16 136.15 31.77 136.5 34.14 136.85 35.92 137.2 36.31 137.55 38.09 137.89 39.87 138.24 37.3 138.59 38.88 138.94 38.09 139.29 37.3 139.64 38.48 139.99 38.68 140.34 38.68 140.69 36.11 141.04 35.13 141.39 34.14 141.73 36.51 142.08 36.51 142.43 36.51 142.78 35.13 143.13 36.51 143.48 35.72 143.83 32.76 144.18 34.73 144.53 35.32 144.88 35.72 145.23 39.87 145.58 38.29 145.92 38.29 146.27 36.11 146.62 36.71 146.97 34.14 147.32 34.34 147.67 37.3 148.02 40.85 148.37 43.62 148.72 44.02 149.07 45.4 149.42 45 149.76 47.18 150.11 46.19 150.46 45.6 150.81 46.19 151.16 50.53 151.51 52.71 151.86 52.51 152.21 54.29 152.56 52.71 152.91 48.95 153.26 48.36 153.61 49.94 153.95 50.34 154.3 54.68 154.65 56.85 155 55.27 155.35 55.67 155.7 56.26 156.05 56.46 156.4 53.69 156.75 56.06 157.1 58.83 157.45 55.27 157.79 54.68 158.14 56.26 158.49 57.64 158.84 56.26 159.19 57.64 159.54 57.84 159.89 59.22 160.24 58.43 160.59 56.46 160.94 55.47 161.29 56.46 161.64 57.45 161.98 54.29 162.33 52.71 162.68 55.47 163.03 61.59 163.38 60.61 163.73 61 164.08 60.61 164.43 62.98 164.78 60.21 165.13 58.83 165.48 62.19 165.83 60.41 166.17 58.63 166.52 56.85 166.87 58.43 167.22 59.42 167.57 61.99 167.92 66.14 168.27 65.35 168.62 63.37 168.97 62.38 169.32 62.98 169.67 58.83 170.01 60.41 170.36 57.05 170.71 58.04 171.06 55.87 171.41 54.29 171.76 54.68 172.11 56.26 172.46 57.05 172.81 57.05 173.16 54.88 173.51 53.69 173.86 52.9 174.2 52.71 174.55 50.73 174.9 48.56 175.25 49.35 175.6 52.71 175.95 53.5 176.3 55.47 176.65 58.63 177 64.56 177.35 71.07 177.7 71.67 178.04 72.06 178.39 73.25 178.74 73.44 179.09 72.46 179.44 68.11 179.79 66.93 180.14 65.94 180.49 61.4 180.84 57.84 181.19 57.25 181.54 57.45 181.89 53.69 182.23 54.48 182.58 57.45 182.93 56.85 183.28 58.24 183.63 61 183.98 61 184.33 59.82 184.68 64.95 185.03 63.57 185.38 65.54 185.73 62.78 186.08 64.56 186.42 64.36 186.77 65.94 187.12 66.53 187.47 64.36 187.82 61.4 188.17 61.99 188.52 63.37 188.87 60.61 189.22 60.8 189.57 57.25 189.92 53.89 190.26 54.48 190.61 54.88 190.96 58.04 191.31 59.42 191.66 61.2 192.01 61 192.36 60.01 192.71 61 193.06 61.79 193.41 61.99 193.76 64.56 194.11 62.19 194.45 61.99 194.8 62.98 195.15 64.95 195.5 67.12 195.85 66.33 196.2 61"/>
      </g>
      <g stroke-width="0.3" fill="#000000" fill-opacity="0.000" class="geometry" stroke-dasharray="none" stroke="#D53E4F" id="img-6f08e00c-18">
        <path fill="none" d="M21.98,71.86 L 22.33 70.88 22.68 71.47 23.03 73.44 23.38 68.9 23.73 70.88 24.08 71.07 24.42 70.88 24.77 68.31 25.12 70.28 25.47 75.42 25.82 75.81 26.17 74.83 26.52 75.42 26.87 76.21 27.22 76.41 27.57 75.42 27.92 75.22 28.27 74.63 28.61 81.15 28.96 77.2 29.31 77.59 29.66 78.58 30.01 78.58 30.36 82.13 30.71 78.38 31.06 80.16 31.41 80.95 31.76 82.92 32.11 86.08 32.45 86.08 32.8 85.69 33.15 84.5 33.5 87.66 33.85 85.89 34.2 87.27 34.55 91.61 34.9 92.4 35.25 95.17 35.6 95.37 35.95 95.56 36.3 97.93 36.64 103.46 36.99 103.66 37.34 102.48 37.69 98.53 38.04 99.51 38.39 98.92 38.74 99.32 39.09 100.9 39.44 99.51 39.79 95.37 40.14 93.98 40.49 94.77 40.83 95.96 41.18 99.51 41.53 99.12 41.88 99.51 42.23 102.48 42.58 99.51 42.93 98.53 43.28 98.13 43.63 95.56 43.98 96.75 44.33 101.88 44.67 99.32 45.02 101.09 45.37 100.5 45.72 102.67 46.07 102.48 46.42 100.11 46.77 97.74 47.12 97.34 47.47 99.91 47.82 103.66 48.17 105.64 48.52 103.46 48.86 105.04 49.21 106.03 49.56 106.43 49.91 105.83 50.26 106.43 50.61 110.18 50.96 110.38 51.31 111.96 51.66 109.39 52.01 108.8 52.36 109.98 52.7 108.6 53.05 108.2 53.4 109.19 53.75 108.6 54.1 107.81 54.45 107.41 54.8 109.98 55.15 109.39 55.5 107.81 55.85 108.6 56.2 106.03 56.55 104.65 56.89 108.8 57.24 110.38 57.59 110.57 57.94 110.57 58.29 115.51 58.64 114.52 58.99 113.73 59.34 112.94 59.69 114.33 60.04 113.14 60.39 112.15 60.73 110.57 61.08 110.38 61.43 108.2 61.78 105.44 62.13 109.39 62.48 107.81 62.83 107.22 63.18 104.85 63.53 107.02 63.88 103.46 64.23 105.04 64.58 106.23 64.92 106.62 65.27 108.4 65.62 110.38 65.97 110.77 66.32 110.77 66.67 113.54 67.02 114.92 67.37 117.68 67.72 118.47 68.07 116.89 68.42 116.5 68.77 120.05 69.11 118.47 69.46 117.09 69.81 118.67 70.16 121.04 70.51 120.05 70.86 118.08 71.21 118.08 71.56 118.28 71.91 119.66 72.26 119.07 72.61 117.88 72.95 118.87 73.3 118.28 73.65 118.67 74 115.91 74.35 115.91 74.7 112.55 75.05 113.54 75.4 111.56 75.75 109.19 76.1 109.98 76.45 110.57 76.8 109.98 77.14 109.78 77.49 110.97 77.84 108.2 78.19 108.2 78.54 106.82 78.89 108.6 79.24 107.22 79.59 107.61 79.94 108.2 80.29 105.24 80.64 102.28 80.98 102.28 81.33 101.69 81.68 101.69 82.03 104.25 82.38 106.03 82.73 107.02 83.08 106.62 83.43 104.85 83.78 104.65 84.13 107.61 84.48 106.62 84.83 107.41 85.17 106.43 85.52 107.61 85.87 106.43 86.22 107.81 86.57 110.38 86.92 111.96 87.27 112.75 87.62 111.96 87.97 109.59 88.32 108.8 88.67 105.24 89.02 105.44 89.36 107.41 89.71 108.8 90.06 110.18 90.41 106.82 90.76 107.22 91.11 108.8 91.46 111.17 91.81 112.75 92.16 115.31 92.51 114.52 92.86 115.12 93.2 114.52 93.55 114.52 93.9 111.76 94.25 113.34 94.6 116.7 94.95 116.89 95.3 116.3 95.65 115.71 96 115.12 96.35 115.51 96.7 117.49 97.05 118.28 97.39 119.26 97.74 117.68 98.09 118.67 98.44 118.28 98.79 120.45 99.14 122.23 99.49 122.03 99.84 121.24 100.19 121.44 100.54 120.05 100.89 117.49 101.23 115.91 101.58 114.52 101.93 112.75 102.28 110.18 102.63 109.59 102.98 110.57 103.33 112.35 103.68 108.4 104.03 108.99 104.38 108.8 104.73 108.8 105.08 105.64 105.42 107.02 105.77 111.36 106.12 110.97 106.47 109.59 106.82 108.4 107.17 108.8 107.52 112.15 107.87 110.38 108.22 110.97 108.57 112.15 108.92 115.31 109.26 117.29 109.61 119.07 109.96 116.5 110.31 116.1 110.66 114.72 111.01 115.51 111.36 115.71 111.71 115.51 112.06 111.76 112.41 111.96 112.76 114.52 113.11 114.92 113.45 115.31 113.8 114.92 114.15 114.13 114.5 114.72 114.85 112.75 115.2 114.13 115.55 113.73 115.9 115.51 116.25 117.49 116.6 119.07 116.95 119.46 117.3 117.49 117.64 116.5 117.99 112.75 118.34 111.36 118.69 111.17 119.04 112.94 119.39 114.72 119.74 115.31 120.09 115.31 120.44 115.71 120.79 120.05 121.14 122.23 121.48 122.23 121.83 121.24 122.18 121.44 122.53 122.42 122.88 123.02 123.23 124 123.58 122.82 123.93 123.61 124.28 123.21 124.63 121.63 124.98 118.87 125.33 119.07 125.67 119.07 126.02 119.46 126.37 118.47 126.72 118.87 127.07 119.66 127.42 120.84 127.77 121.83 128.12 122.03 128.47 123.61 128.82 122.82 129.17 121.44 129.51 123.81 129.86 123.61 130.21 121.04 130.56 122.23 130.91 122.03 131.26 122.23 131.61 120.65 131.96 120.84 132.31 119.07 132.66 118.67 133.01 118.87 133.36 117.88 133.7 115.12 134.05 114.72 134.4 116.1 134.75 118.87 135.1 118.08 135.45 116.89 135.8 118.28 136.15 117.68 136.5 116.5 136.85 118.08 137.2 121.83 137.55 122.62 137.89 124 138.24 124.4 138.59 124.6 138.94 125.98 139.29 125.98 139.64 126.77 139.99 126.77 140.34 127.16 140.69 128.15 141.04 128.35 141.39 128.35 141.73 128.55 142.08 128.74 142.43 129.93 142.78 129.93 143.13 130.13 143.48 130.32 143.83 129.73 144.18 129.34 144.53 128.55 144.88 129.34 145.23 129.34 145.58 129.93 145.92 128.74 146.27 128.94 146.62 129.93 146.97 129.93 147.32 129.53 147.67 129.34 148.02 130.13 148.37 129.53 148.72 129.53 149.07 130.52 149.42 129.93 149.76 130.52 150.11 130.13 150.46 130.52 150.81 130.52 151.16 130.13 151.51 130.32 151.86 130.32 152.21 130.52 152.56 130.72 152.91 130.72 153.26 130.52 153.61 130.52 153.95 130.92 154.3 131.11"/>
      </g>
      <g stroke-width="0.3" fill="#000000" fill-opacity="0.000" class="geometry" stroke-dasharray="none" stroke="#9E0142" id="img-6f08e00c-19">
        <path fill="none" d="M21.98,71.86 L 22.33 71.07 22.68 68.9 23.03 68.7 23.38 66.73 23.73 69.49 24.08 66.53 24.42 66.53 24.77 62.38 25.12 59.62 25.47 55.47 25.82 54.68 26.17 54.68 26.52 52.71 26.87 56.46 27.22 56.06 27.57 52.31 27.92 46.39 28.27 47.18 28.61 49.35 28.96 48.76 29.31 50.34 29.66 50.34 30.01 49.55 30.36 51.32 30.71 52.71 31.06 51.92 31.41 54.29 31.76 54.29 32.11 53.5 32.45 58.04 32.8 58.24 33.15 56.85 33.5 58.24 33.85 59.03 34.2 60.61 34.55 60.21 34.9 58.83 35.25 60.61 35.6 57.64 35.95 57.84 36.3 59.03 36.64 57.25 36.99 58.04 37.34 57.25 37.69 60.41 38.04 60.01 38.39 62.58 38.74 61.99 39.09 63.77 39.44 64.56 39.79 63.96 40.14 68.11 40.49 67.52 40.83 68.7 41.18 70.28 41.53 72.26 41.88 70.09 42.23 71.47 42.58 71.47 42.93 70.68 43.28 71.86 43.63 70.68 43.98 71.47 44.33 75.42 44.67 74.23 45.02 73.05 45.37 74.23 45.72 70.28 46.07 70.09 46.42 68.11 46.77 70.68 47.12 72.65 47.47 69.3 47.82 67.32 48.17 65.35 48.52 64.95 48.86 68.51 49.21 65.35 49.56 69.3 49.91 73.25 50.26 69.49 50.61 69.1 50.96 69.69 51.31 69.49 51.66 68.7 52.01 67.91 52.36 68.9 52.7 63.37 53.05 60.21 53.4 55.67 53.75 61.2 54.1 61.79 54.45 60.01 54.8 61.4 55.15 59.42 55.5 64.95 55.85 64.95 56.2 65.15 56.55 68.31 56.89 70.28 57.24 70.28 57.59 69.69 57.94 68.9 58.29 69.3 58.64 73.05 58.99 72.06 59.34 74.23 59.69 76.6 60.04 75.02 60.39 77.59 60.73 81.74 61.08 79.96 61.43 81.34 61.78 79.96 62.13 78.38 62.48 79.37 62.83 78.58 63.18 78.58 63.53 83.32 63.88 83.91 64.23 83.52 64.58 84.11 64.92 81.74 65.27 81.94 65.62 84.11 65.97 86.08 66.32 83.32 66.67 84.7 67.02 89.05 67.37 88.65 67.72 86.68 68.07 89.84 68.42 90.43 68.77 93.39 69.11 93.59 69.46 92.8 69.81 95.76 70.16 93.79 70.51 92.6 70.86 93.19 71.21 93 71.56 93.98 71.91 93.59 72.26 93.59 72.61 95.37 72.95 93 73.3 92.6 73.65 95.17 74 93.19 74.35 91.81 74.7 91.42 75.05 89.64 75.4 93.79 75.75 96.35 76.1 97.14 76.45 94.18 76.8 93.79 77.14 92.6 77.49 94.97 77.84 98.72 78.19 100.7 78.54 99.12 78.89 101.29 79.24 100.7 79.59 99.91 79.94 97.93 80.29 98.92 80.64 98.33 80.98 100.11 81.33 103.07 81.68 99.91 82.03 101.49 82.38 99.71 82.73 101.29 83.08 97.34 83.43 100.3 83.78 105.04 84.13 104.25 84.48 104.06 84.83 107.61 85.17 108.4 85.52 107.41 85.87 110.57 86.22 109.19 86.57 108.99 86.92 110.38 87.27 111.36 87.62 111.36 87.97 110.97 88.32 113.93 88.67 112.15 89.02 113.34 89.36 114.33 89.71 114.52 90.06 116.3 90.41 114.13 90.76 112.75 91.11 113.14 91.46 114.92 91.81 114.72 92.16 114.72 92.51 116.7 92.86 116.1 93.2 116.5 93.55 116.1 93.9 115.71 94.25 116.7 94.6 115.71 94.95 117.09 95.3 117.68 95.65 118.87 96 119.26 96.35 119.26 96.7 122.03 97.05 122.42 97.39 122.42 97.74 122.42 98.09 120.65 98.44 118.08 98.79 116.89 99.14 117.29 99.49 117.49 99.84 115.91 100.19 113.73 100.54 115.12 100.89 114.52 101.23 116.1 101.58 116.7 101.93 115.91 102.28 117.88 102.63 118.67 102.98 119.86 103.33 117.49 103.68 118.67 104.03 119.66 104.38 122.23 104.73 122.42 105.08 122.42 105.42 122.23 105.77 121.24 106.12 120.65 106.47 119.66 106.82 119.86 107.17 118.67 107.52 119.46 107.87 120.25 108.22 120.45 108.57 121.24 108.92 119.86 109.26 120.65 109.61 122.62 109.96 121.83 110.31 122.82 110.66 122.23 111.01 124.6 111.36 124.6 111.71 124.6 112.06 124.2 112.41 124.79 112.76 126.37 113.11 126.77 113.45 127.95 113.8 127.56 114.15 127.95 114.5 125.98 114.85 125.98 115.2 124.99 115.55 125.98 115.9 125.78 116.25 127.16 116.6 127.36 116.95 128.15 117.3 128.74 117.64 129.73 117.99 129.53 118.34 129.14 118.69 129.93 119.04 129.93 119.39 130.32 119.74 130.92 120.09 130.32 120.44 130.92 120.79 131.11"/>
      </g>
    </g>
  </g>
</g>
  <g class="guide ylabels" font-size="2.82" font-family="'PT Sans Caption','Helvetica Neue','Helvetica',sans-serif" fill="#000000" id="img-6f08e00c-20">
    <text x="18.63" y="131.11" text-anchor="end" dy="0.35em">0</text>
    <text x="18.63" y="111.36" text-anchor="end" dy="0.35em">100</text>
    <text x="18.63" y="91.61" text-anchor="end" dy="0.35em">200</text>
    <text x="18.63" y="71.86" text-anchor="end" dy="0.35em">300</text>
    <text x="18.63" y="52.11" text-anchor="end" dy="0.35em">400</text>
    <text x="18.63" y="32.36" text-anchor="end" dy="0.35em">500</text>
    <text x="18.63" y="12.61" text-anchor="end" dy="0.35em">600</text>
  </g>
  <g font-size="3.88" font-family="'PT Sans','Helvetica Neue','Helvetica',sans-serif" fill="#000000" stroke="#000000" stroke-opacity="0.000" id="img-6f08e00c-21">
    <text x="8.81" y="69.86" text-anchor="middle" dy="0.35em" transform="rotate(-90, 8.81, 71.86)">population number</text>
  </g>
  <g font-size="3.88" font-family="'PT Sans','Helvetica Neue','Helvetica',sans-serif" fill="#000000" stroke="#000000" stroke-opacity="0.000" id="img-6f08e00c-22">
    <text x="108.92" y="5" text-anchor="middle" dy="0.6em">genetic drift</text>
  </g>
</g>
<defs>
  <clipPath id="img-6f08e00c-4">
  <path d="M19.63,10.61 L 198.2 10.61 198.2 133.11 19.63 133.11" />
</clipPath>
</defs>
</svg>
