<?xml version="1.0" encoding="UTF-8"?>
<svg xmlns="http://www.w3.org/2000/svg"
     xmlns:xlink="http://www.w3.org/1999/xlink"
     xmlns:gadfly="http://www.gadflyjl.org/ns"
     version="1.2"
     width="203.2mm" height="152.4mm" viewBox="0 0 203.2 152.4"
     stroke="none"
     fill="#000000"
     stroke-width="0.3"
     font-size="3.88"
>
<g class="plotroot xscalable yscalable" id="img-ffe74cf1-1">
  <g font-size="3.88" font-family="'PT Sans','Helvetica Neue','Helvetica',sans-serif" fill="#000000" stroke="#000000" stroke-opacity="0.000" id="img-ffe74cf1-2">
    <text x="108.92" y="140.79" text-anchor="middle" dy="0.6em">generation number</text>
  </g>
  <g class="guide xlabels" font-size="2.82" font-family="'PT Sans Caption','Helvetica Neue','Helvetica',sans-serif" fill="#000000" id="img-ffe74cf1-3">
    <text x="21.63" y="134.11" text-anchor="middle" dy="0.6em">0</text>
    <text x="56.55" y="134.11" text-anchor="middle" dy="0.6em">100</text>
    <text x="91.46" y="134.11" text-anchor="middle" dy="0.6em">200</text>
    <text x="126.37" y="134.11" text-anchor="middle" dy="0.6em">300</text>
    <text x="161.29" y="134.11" text-anchor="middle" dy="0.6em">400</text>
    <text x="196.2" y="134.11" text-anchor="middle" dy="0.6em">500</text>
  </g>
<g clip-path="url(#img-ffe74cf1-4)">
  <g id="img-ffe74cf1-5">
    <g pointer-events="visible" opacity="1" fill="#FFFFFF" stroke="#000000" stroke-opacity="0.000" class="guide background" id="img-ffe74cf1-6">
      <rect x="19.63" y="10.61" width="178.57" height="122.5"/>
    </g>
    <g class="guide ygridlines xfixed" stroke-dasharray="0.5,0.5" stroke-width="0.2" stroke="#808080" id="img-ffe74cf1-7">
      <path fill="none" d="M19.63,131.11 L 198.2 131.11"/>
      <path fill="none" d="M19.63,101.49 L 198.2 101.49"/>
      <path fill="none" d="M19.63,71.86 L 198.2 71.86"/>
      <path fill="none" d="M19.63,42.24 L 198.2 42.24"/>
      <path fill="none" d="M19.63,12.61 L 198.2 12.61"/>
    </g>
    <g class="guide xgridlines yfixed" stroke-dasharray="0.5,0.5" stroke-width="0.2" stroke="#808080" id="img-ffe74cf1-8">
      <path fill="none" d="M21.63,10.61 L 21.63 133.11"/>
      <path fill="none" d="M56.55,10.61 L 56.55 133.11"/>
      <path fill="none" d="M91.46,10.61 L 91.46 133.11"/>
      <path fill="none" d="M126.37,10.61 L 126.37 133.11"/>
      <path fill="none" d="M161.29,10.61 L 161.29 133.11"/>
      <path fill="none" d="M196.2,10.61 L 196.2 133.11"/>
    </g>
    <g class="plotpanel" id="img-ffe74cf1-9">
      <g stroke-width="0.3" fill="#000000" fill-opacity="0.000" class="geometry" stroke-dasharray="none" stroke="#3288BD" id="img-ffe74cf1-10">
        <path fill="none" d="M21.98,71.86 L 22.33 73.79 22.68 75.12 23.03 73.49 23.38 71.72 23.73 74.83 24.08 72.9 24.42 74.83 24.77 76.9 25.12 76.31 25.47 73.79 25.82 72.6 26.17 69.64 26.52 68.46 26.87 65.94 27.22 65.35 27.57 68.31 27.92 67.42 28.27 66.53 28.61 64.75 28.96 65.35 29.31 64.75 29.66 63.12 30.01 62.83 30.36 62.68 30.71 64.01 31.06 66.09 31.41 64.61 31.76 64.9 32.11 64.61 32.45 63.86 32.8 67.57 33.15 65.35 33.5 62.83 33.85 62.23 34.2 64.01 34.55 60.31 34.9 59.12 35.25 57.2 35.6 54.53 35.95 57.2 36.3 57.79 36.64 61.35 36.99 61.2 37.34 65.2 37.69 64.31 38.04 61.05 38.39 61.49 38.74 57.35 39.09 56.46 39.44 56.46 39.79 59.27 40.14 59.86 40.49 60.61 40.83 60.31 41.18 57.79 41.53 53.64 41.88 54.24 42.23 56.31 42.58 53.94 42.93 51.42 43.28 50.98 43.63 53.2 43.98 53.79 44.33 54.24 44.67 57.64 45.02 55.12 45.37 59.42 45.72 63.86 46.07 65.49 46.42 63.57 46.77 64.16 47.12 65.64 47.47 68.16 47.82 65.05 48.17 61.79 48.52 63.57 48.86 67.86 49.21 68.6 49.56 70.68 49.91 70.97 50.26 69.05 50.61 68.01 50.96 69.49 51.31 68.16 51.66 69.94 52.01 71.42 52.36 71.57 52.7 72.9 53.05 72.75 53.4 75.12 53.75 77.79 54.1 79.57 54.45 82.53 54.8 81.64 55.15 80.16 55.5 78.08 55.85 78.68 56.2 79.12 56.55 80.16 56.89 82.23 57.24 82.97 57.59 84.45 57.94 82.53 58.29 82.68 58.64 81.94 58.99 83.42 59.34 84.9 59.69 85.19 60.04 81.49 60.39 80.45 60.73 80.45 61.08 81.79 61.43 81.05 61.78 82.23 62.13 81.05 62.48 80.01 62.83 80.9 63.18 81.49 63.53 77.79 63.88 80.45 64.23 78.23 64.58 78.08 64.92 81.79 65.27 83.86 65.62 82.23 65.97 78.38 66.32 79.57 66.67 77.05 67.02 79.86 67.37 81.64 67.72 83.57 68.07 81.49 68.42 77.94 68.77 75.42 69.11 74.68 69.46 73.64 69.81 74.97 70.16 75.71 70.51 78.53 70.86 77.05 71.21 77.64 71.56 76.9 71.91 74.68 72.26 74.68 72.61 72.6 72.95 73.05 73.3 76.16 73.65 73.79 74 72.16 74.35 72.16 74.7 70.23 75.05 72.9 75.4 74.97 75.75 74.38 76.1 73.49 76.45 77.05 76.8 75.12 77.14 75.27 77.49 78.68 77.84 78.83 78.19 78.23 78.54 75.57 78.89 74.97 79.24 77.94 79.59 78.68 79.94 78.23 80.29 75.57 80.64 76.16 80.98 72.31 81.33 68.9 81.68 69.35 82.03 72.46 82.38 73.49 82.73 70.68 83.08 69.94 83.43 69.2 83.78 67.57 84.13 64.01 84.48 62.53 84.83 60.01 85.17 59.12 85.52 63.12 85.87 61.64 86.22 61.64 86.57 60.46 86.92 57.49 87.27 53.94 87.62 55.12 87.97 54.98 88.32 50.09 88.67 48.16 89.02 44.61 89.36 43.57 89.71 41.64 90.06 40.02 90.41 41.35 90.76 44.61 91.11 43.72 91.46 41.5 91.81 42.68 92.16 42.98 92.51 44.02 92.86 43.87 93.2 44.61 93.55 42.24 93.9 40.76 94.25 40.9 94.6 45.79 94.95 43.72 95.3 42.24 95.65 42.09 96 40.46 96.35 44.9 96.7 45.64 97.05 44.9 97.39 47.57 97.74 47.27 98.09 49.2 98.44 47.72 98.79 46.09 99.14 47.13 99.49 47.87 99.84 46.09 100.19 44.16 100.54 45.79 100.89 45.64 101.23 45.2 101.58 44.31 101.93 45.94 102.28 40.76 102.63 44.16 102.98 45.94 103.33 44.61 103.68 45.2 104.03 44.31 104.38 43.87 104.73 45.79 105.08 44.31 105.42 43.27 105.77 41.5 106.12 40.16 106.47 42.09 106.82 39.87 107.17 40.31 107.52 40.61 107.87 35.72 108.22 33.94 108.57 34.39 108.92 34.68 109.26 36.02 109.61 34.53 109.96 34.68 110.31 38.24 110.66 37.2 111.01 36.61 111.36 38.68 111.71 39.72 112.06 41.2 112.41 39.87 112.76 37.35 113.11 39.57 113.45 41.2 113.8 40.16 114.15 39.72 114.5 41.05 114.85 42.39 115.2 38.53 115.55 39.72 115.9 39.87 116.25 41.35 116.6 44.02 116.95 45.05 117.3 45.79 117.64 45.5 117.99 46.83 118.34 45.94 118.69 45.94 119.04 44.02 119.39 42.24 119.74 41.94 120.09 40.9 120.44 41.35 120.79 38.68 121.14 38.39 121.48 39.87 121.83 41.5 122.18 37.79 122.53 37.05 122.88 36.9 123.23 37.5 123.58 37.2 123.93 37.2 124.28 38.83 124.63 41.35 124.98 41.35 125.33 42.53 125.67 40.16 126.02 44.31 126.37 45.2 126.72 43.27 127.07 41.94 127.42 38.68 127.77 38.24 128.12 41.64 128.47 39.87 128.82 38.68 129.17 40.02 129.51 37.79 129.86 37.5 130.21 35.72 130.56 36.02 130.91 36.76 131.26 38.09 131.61 40.76 131.96 40.46 132.31 41.35 132.66 40.9 133.01 42.53 133.36 40.61 133.7 41.79 134.05 41.35 134.4 38.98 134.75 38.09 135.1 36.31 135.45 35.28 135.8 36.61 136.15 34.39 136.5 35.87 136.85 37.79 137.2 37.79 137.55 36.16 137.89 37.05 138.24 36.16 138.59 35.57 138.94 37.35 139.29 36.61 139.64 35.28 139.99 39.13 140.34 37.65 140.69 38.39 141.04 37.35 141.39 35.72 141.73 35.57 142.08 34.98 142.43 36.02 142.78 36.76 143.13 37.2 143.48 41.2 143.83 41.94 144.18 41.2 144.53 42.39 144.88 45.05 145.23 44.46 145.58 45.64 145.92 46.83 146.27 48.76 146.62 48.61 146.97 50.53 147.32 50.83 147.67 51.27 148.02 52.46 148.37 50.24 148.72 50.24 149.07 52.61 149.42 51.27 149.76 54.09 150.11 53.2 150.46 54.09 150.81 55.42 151.16 55.42 151.51 53.64 151.86 51.72 152.21 51.87 152.56 53.2 152.91 55.27 153.26 53.5 153.61 56.61 153.95 57.35 154.3 56.75 154.65 58.09 155 61.2 155.35 62.23 155.7 59.12 156.05 58.83 156.4 60.46 156.75 58.83 157.1 56.61 157.45 55.27 157.79 52.9 158.14 55.27 158.49 56.16 158.84 57.79 159.19 60.16 159.54 59.72 159.89 59.57 160.24 60.61 160.59 61.05 160.94 60.16 161.29 60.9 161.64 59.27 161.98 58.98 162.33 58.68 162.68 60.01 163.03 60.16 163.38 62.83 163.73 63.57 164.08 62.83 164.43 60.75 164.78 59.57 165.13 58.09 165.48 55.87 165.83 56.61 166.17 55.87 166.52 56.01 166.87 57.49 167.22 59.86 167.57 59.12 167.92 62.83 168.27 62.68 168.62 63.27 168.97 62.23 169.32 59.27 169.67 58.53 170.01 64.31 170.36 64.01 170.71 64.9 171.06 66.83 171.41 67.27 171.76 64.31 172.11 65.05 172.46 66.38 172.81 69.05 173.16 70.23 173.51 68.31 173.86 67.57 174.2 62.53 174.55 64.01 174.9 61.05 175.25 59.72 175.6 59.86 175.95 60.31 176.3 59.42 176.65 60.46 177 57.79 177.35 61.05 177.7 62.68 178.04 61.2 178.39 59.72 178.74 56.9 179.09 57.79 179.44 58.24 179.79 55.57 180.14 56.31 180.49 59.57 180.84 60.16 181.19 61.05 181.54 60.9 181.89 62.98 182.23 61.64 182.58 61.94 182.93 64.61 183.28 63.42 183.63 63.42 183.98 59.12 184.33 59.42 184.68 60.61 185.03 61.79 185.38 61.94 185.73 57.05 186.08 54.68 186.42 54.38 186.77 53.2 187.12 53.2 187.47 52.75 187.82 53.79 188.17 57.79 188.52 59.57 188.87 59.27 189.22 61.49 189.57 60.16 189.92 64.31 190.26 59.27 190.61 53.94 190.96 53.05 191.31 56.31 191.66 54.53 192.01 56.16 192.36 57.64 192.71 59.72 193.06 60.01 193.41 57.2 193.76 60.46 194.11 61.94 194.45 62.98 194.8 63.57 195.15 61.64 195.5 63.42 195.85 61.05 196.2 60.01"/>
      </g>
      <g stroke-width="0.3" fill="#000000" fill-opacity="0.000" class="geometry" stroke-dasharray="none" stroke="#66C2A5" id="img-ffe74cf1-11">
        <path fill="none" d="M21.98,71.86 L 22.33 69.94 22.68 71.27 23.03 76.75 23.38 78.38 23.73 79.71 24.08 82.53 24.42 81.79 24.77 84.16 25.12 86.23 25.47 84.45 25.82 82.68 26.17 84.6 26.52 86.97 26.87 85.94 27.22 86.23 27.57 83.42 27.92 86.23 28.27 86.38 28.61 87.27 28.96 86.82 29.31 87.42 29.66 87.12 30.01 88.6 30.36 88.31 30.71 90.82 31.06 87.86 31.41 86.53 31.76 85.94 32.11 84.9 32.45 87.86 32.8 86.53 33.15 85.64 33.5 85.49 33.85 84.01 34.2 86.38 34.55 83.42 34.9 85.64 35.25 85.19 35.6 85.34 35.95 84.9 36.3 83.57 36.64 83.57 36.99 82.82 37.34 81.94 37.69 81.2 38.04 76.46 38.39 77.05 38.74 79.27 39.09 78.08 39.44 80.6 39.79 81.2 40.14 78.53 40.49 77.2 40.83 79.42 41.18 84.31 41.53 86.68 41.88 83.42 42.23 82.82 42.58 81.49 42.93 81.94 43.28 83.42 43.63 79.86 43.98 83.71 44.33 85.49 44.67 83.71 45.02 81.2 45.37 79.42 45.72 79.12 46.07 81.79 46.42 83.71 46.77 85.34 47.12 81.34 47.47 83.12 47.82 85.19 48.17 82.68 48.52 80.75 48.86 77.79 49.21 76.9 49.56 77.64 49.91 80.6 50.26 83.12 50.61 83.57 50.96 81.79 51.31 81.79 51.66 81.49 52.01 79.86 52.36 81.94 52.7 80.16 53.05 74.09 53.4 73.64 53.75 72.16 54.1 73.49 54.45 75.27 54.8 75.27 55.15 76.16 55.5 80.01 55.85 80.16 56.2 76.01 56.55 74.38 56.89 77.05 57.24 76.6 57.59 78.08 57.94 80.16 58.29 82.53 58.64 85.49 58.99 82.97 59.34 85.49 59.69 84.31 60.04 80.75 60.39 80.45 60.73 81.05 61.08 79.86 61.43 83.57 61.78 81.79 62.13 81.79 62.48 84.9 62.83 86.53 63.18 88.45 63.53 91.42 63.88 91.12 64.23 91.27 64.58 89.49 64.92 87.42 65.27 88.45 65.62 91.71 65.97 92.9 66.32 92.01 66.67 89.19 67.02 89.05 67.37 88.9 67.72 91.71 68.07 93.34 68.42 96.16 68.77 93.05 69.11 91.42 69.46 92.16 69.81 93.93 70.16 92.75 70.51 91.71 70.86 90.38 71.21 88.9 71.56 90.08 71.91 90.68 72.26 92.9 72.61 92.45 72.95 94.53 73.3 98.82 73.65 97.79 74 96.9 74.35 97.93 74.7 97.19 75.05 96.3 75.4 94.38 75.75 92.75 76.1 89.94 76.45 87.27 76.8 88.01 77.14 87.42 77.49 87.12 77.84 83.71 78.19 84.01 78.54 82.38 78.89 79.27 79.24 82.08 79.59 79.86 79.94 81.49 80.29 80.9 80.64 83.86 80.98 82.97 81.33 86.08 81.68 86.08 82.03 83.57 82.38 80.9 82.73 84.6 83.08 80.75 83.43 77.79 83.78 78.23 84.13 75.86 84.48 75.57 84.83 78.08 85.17 76.31 85.52 76.31 85.87 76.75 86.22 75.27 86.57 77.34 86.92 77.64 87.27 76.75 87.62 77.94 87.97 79.12 88.32 76.9 88.67 79.86 89.02 80.01 89.36 80.45 89.71 81.2 90.06 81.34 90.41 81.49 90.76 81.79 91.11 83.42 91.46 81.49 91.81 81.94 92.16 85.05 92.51 78.23 92.86 78.23 93.2 79.42 93.55 81.05 93.9 81.94 94.25 81.79 94.6 80.16 94.95 81.64 95.3 82.38 95.65 83.71 96 82.82 96.35 82.68 96.7 78.38 97.05 81.34 97.39 78.83 97.74 80.16 98.09 80.6 98.44 81.49 98.79 78.97 99.14 78.68 99.49 79.27 99.84 78.68 100.19 72.31 100.54 74.97 100.89 77.34 101.23 75.42 101.58 74.97 101.93 75.12 102.28 76.6 102.63 78.53 102.98 79.27 103.33 80.31 103.68 78.68 104.03 76.9 104.38 76.75 104.73 75.27 105.08 77.05 105.42 78.53 105.77 78.53 106.12 80.75 106.47 81.49 106.82 84.16 107.17 83.12 107.52 81.2 107.87 82.53 108.22 80.16 108.57 82.82 108.92 83.12 109.26 85.19 109.61 86.68 109.96 85.79 110.31 84.31 110.66 82.82 111.01 85.19 111.36 85.94 111.71 84.9 112.06 88.31 112.41 86.82 112.76 86.68 113.11 86.53 113.45 87.86 113.8 88.45 114.15 87.71 114.5 87.12 114.85 85.49 115.2 85.49 115.55 86.68 115.9 87.86 116.25 88.75 116.6 87.57 116.95 87.27 117.3 83.27 117.64 86.53 117.99 85.05 118.34 84.45 118.69 86.97 119.04 84.6 119.39 85.05 119.74 83.42 120.09 86.68 120.44 87.42 120.79 88.16 121.14 85.94 121.48 86.97 121.83 88.45 122.18 90.08 122.53 89.49 122.88 90.08 123.23 89.49 123.58 91.27 123.93 92.6 124.28 93.64 124.63 93.19 124.98 92.16 125.33 92.45 125.67 93.05 126.02 93.64 126.37 94.68 126.72 95.71 127.07 94.82 127.42 94.23 127.77 96.16 128.12 96.01 128.47 94.53 128.82 92.45 129.17 93.05 129.51 91.42 129.86 89.49 130.21 91.12 130.56 92.31 130.91 93.64 131.26 91.71 131.61 89.34 131.96 84.75 132.31 87.57 132.66 89.64 133.01 89.05 133.36 91.42 133.7 88.75 134.05 89.79 134.4 92.01 134.75 94.97 135.1 93.34 135.45 93.49 135.8 93.49 136.15 92.31 136.5 95.27 136.85 95.86 137.2 94.38 137.55 97.49 137.89 94.38 138.24 93.05 138.59 92.16 138.94 92.45 139.29 91.12 139.64 91.56 139.99 90.08 140.34 92.6 140.69 90.08 141.04 91.42 141.39 89.05 141.73 87.86 142.08 87.27 142.43 87.71 142.78 90.08 143.13 91.12 143.48 89.34 143.83 92.16 144.18 90.68 144.53 88.31 144.88 87.57 145.23 85.94 145.58 89.19 145.92 90.97 146.27 89.49 146.62 89.05 146.97 88.75 147.32 91.86 147.67 91.56 148.02 95.56 148.37 96.16 148.72 95.56 149.07 97.34 149.42 97.93 149.76 98.38 150.11 94.97 150.46 95.27 150.81 95.12 151.16 96.3 151.51 97.34 151.86 96.16 152.21 92.6 152.56 92.75 152.91 96.45 153.26 95.12 153.61 98.38 153.95 98.82 154.3 100.3 154.65 102.82 155 105.93 155.35 106.67 155.7 108.3 156.05 107.41 156.4 106.53 156.75 110.38 157.1 110.23 157.45 112.01 157.79 115.41 158.14 116.45 158.49 120.3 158.84 120.6 159.19 120.6 159.54 121.78 159.89 121.34 160.24 120.3 160.59 121.34 160.94 120.01 161.29 121.34 161.64 121.04 161.98 123.41 162.33 122.67 162.68 122.08 163.03 122.82 163.38 124.89 163.73 124.45 164.08 125.93 164.43 125.19 164.78 124.75 165.13 123.71 165.48 125.04 165.83 125.63 166.17 125.63 166.52 125.34 166.87 125.49 167.22 125.49 167.57 124.3 167.92 122.52 168.27 120.3 168.62 118.67 168.97 116.3 169.32 117.64 169.67 118.23 170.01 120.01 170.36 119.56 170.71 116.89 171.06 118.08 171.41 118.52 171.76 117.49 172.11 118.08 172.46 118.23 172.81 117.64 173.16 118.67 173.51 118.82 173.86 118.67 174.2 117.49 174.55 117.04 174.9 115.86 175.25 114.52 175.6 113.19 175.95 113.34 176.3 110.82 176.65 107.71 177 106.97 177.35 108.3 177.7 109.93 178.04 109.34 178.39 107.27 178.74 108.3 179.09 109.04 179.44 110.53 179.79 107.56 180.14 107.41 180.49 108.45 180.84 108.3 181.19 108.01 181.54 106.53 181.89 103.56 182.23 101.64 182.58 102.38 182.93 100.01 183.28 101.34 183.63 102.97 183.98 103.41 184.33 104.16 184.68 102.97 185.03 105.34 185.38 105.34 185.73 105.64 186.08 106.97 186.42 105.64 186.77 107.41 187.12 106.53 187.47 108.6 187.82 111.12 188.17 112.3 188.52 113.64 188.87 114.23 189.22 112.3 189.57 112.3 189.92 113.78 190.26 114.52 190.61 113.19 190.96 112.6 191.31 111.41 191.66 111.12 192.01 112.01 192.36 112.75 192.71 114.08 193.06 115.56 193.41 115.41 193.76 114.23 194.11 113.78 194.45 115.56 194.8 116.6 195.15 117.34 195.5 117.34 195.85 118.08 196.2 116.89"/>
      </g>
      <g stroke-width="0.3" fill="#000000" fill-opacity="0.000" class="geometry" stroke-dasharray="none" stroke="#ABDDA4" id="img-ffe74cf1-12">
        <path fill="none" d="M21.98,71.86 L 22.33 71.57 22.68 70.09 23.03 71.12 23.38 71.72 23.73 69.35 24.08 67.57 24.42 66.68 24.77 67.57 25.12 62.98 25.47 63.86 25.82 66.23 26.17 65.49 26.52 66.83 26.87 67.27 27.22 64.9 27.57 63.86 27.92 65.49 28.27 64.31 28.61 64.75 28.96 68.46 29.31 67.27 29.66 68.9 30.01 68.01 30.36 68.01 30.71 68.6 31.06 72.01 31.41 73.64 31.76 73.79 32.11 75.42 32.45 76.31 32.8 74.97 33.15 77.64 33.5 73.05 33.85 75.86 34.2 76.75 34.55 79.27 34.9 77.2 35.25 77.05 35.6 76.31 35.95 79.42 36.3 73.05 36.64 71.57 36.99 66.83 37.34 68.6 37.69 68.01 38.04 71.42 38.39 68.6 38.74 69.94 39.09 69.05 39.44 71.57 39.79 69.94 40.14 74.38 40.49 77.05 40.83 76.31 41.18 72.9 41.53 74.68 41.88 70.23 42.23 72.75 42.58 74.09 42.93 75.42 43.28 76.6 43.63 76.75 43.98 77.2 44.33 81.34 44.67 80.6 45.02 73.94 45.37 74.38 45.72 73.79 46.07 73.64 46.42 73.94 46.77 71.72 47.12 71.27 47.47 73.2 47.82 73.34 48.17 73.94 48.52 77.49 48.86 81.2 49.21 82.08 49.56 84.31 49.91 88.01 50.26 87.71 50.61 88.01 50.96 88.9 51.31 86.53 51.66 86.08 52.01 86.38 52.36 89.05 52.7 89.34 53.05 85.05 53.4 86.82 53.75 89.64 54.1 91.12 54.45 90.23 54.8 90.53 55.15 90.38 55.5 90.68 55.85 91.42 56.2 90.82 56.55 91.56 56.89 91.56 57.24 91.27 57.59 93.79 57.94 93.93 58.29 93.93 58.64 90.97 58.99 90.38 59.34 91.27 59.69 86.68 60.04 85.79 60.39 84.16 60.73 83.27 61.08 85.19 61.43 86.97 61.78 86.53 62.13 87.42 62.48 90.38 62.83 89.19 63.18 92.01 63.53 92.16 63.88 92.01 64.23 90.23 64.58 88.45 64.92 86.23 65.27 83.27 65.62 83.71 65.97 84.9 66.32 81.34 66.67 77.79 67.02 77.49 67.37 77.79 67.72 75.86 68.07 76.31 68.42 79.86 68.77 81.2 69.11 80.9 69.46 79.12 69.81 78.38 70.16 77.79 70.51 75.42 70.86 74.38 71.21 74.23 71.56 77.49 71.91 76.46 72.26 76.6 72.61 78.08 72.95 77.94 73.3 75.12 73.65 75.57 74 74.83 74.35 73.64 74.7 75.57 75.05 72.01 75.4 70.83 75.75 68.75 76.1 68.16 76.45 69.35 76.8 67.12 77.14 68.01 77.49 70.83 77.84 69.79 78.19 75.27 78.54 72.31 78.89 68.01 79.24 67.57 79.59 65.2 79.94 65.2 80.29 66.38 80.64 68.46 80.98 69.05 81.33 69.2 81.68 68.9 82.03 69.79 82.38 68.46 82.73 69.64 83.08 68.01 83.43 70.38 83.78 70.23 84.13 71.12 84.48 74.09 84.83 75.71 85.17 74.23 85.52 77.05 85.87 76.6 86.22 79.42 86.57 80.45 86.92 82.38 87.27 87.42 87.62 87.42 87.97 82.82 88.32 83.42 88.67 87.27 89.02 84.31 89.36 80.31 89.71 77.05 90.06 76.9 90.41 79.27 90.76 78.23 91.11 76.6 91.46 77.05 91.81 76.6 92.16 76.46 92.51 77.94 92.86 79.71 93.2 77.94 93.55 77.2 93.9 76.01 94.25 76.75 94.6 75.86 94.95 73.34 95.3 71.86 95.65 67.72 96 61.2 96.35 63.27 96.7 62.68 97.05 60.75 97.39 59.86 97.74 60.75 98.09 60.75 98.44 59.12 98.79 60.31 99.14 57.79 99.49 57.94 99.84 59.72 100.19 59.42 100.54 58.83 100.89 58.53 101.23 59.57 101.58 57.35 101.93 57.2 102.28 57.35 102.63 61.35 102.98 60.75 103.33 64.31 103.68 62.98 104.03 62.38 104.38 62.68 104.73 63.57 105.08 63.57 105.42 62.68 105.77 65.35 106.12 62.38 106.47 69.05 106.82 68.46 107.17 71.27 107.52 71.72 107.87 69.35 108.22 69.35 108.57 69.94 108.92 67.27 109.26 65.05 109.61 64.01 109.96 64.16 110.31 64.16 110.66 66.09 111.01 63.72 111.36 63.72 111.71 64.46 112.06 66.98 112.41 67.57 112.76 69.94 113.11 68.75 113.45 70.23 113.8 69.79 114.15 65.79 114.5 69.49 114.85 69.05 115.2 70.09 115.55 73.94 115.9 76.46 116.25 75.27 116.6 76.46 116.95 79.12 117.3 76.31 117.64 73.2 117.99 74.68 118.34 74.53 118.69 74.23 119.04 74.97 119.39 73.49 119.74 72.01 120.09 72.6 120.44 70.83 120.79 75.86 121.14 77.94 121.48 77.49 121.83 77.49 122.18 77.94 122.53 80.16 122.88 79.86 123.23 80.01 123.58 81.2 123.93 79.27 124.28 81.64 124.63 82.38 124.98 82.68 125.33 82.82 125.67 85.79 126.02 84.16 126.37 86.23 126.72 90.38 127.07 90.97 127.42 94.08 127.77 94.68 128.12 95.71 128.47 93.93 128.82 96.01 129.17 95.56 129.51 94.38 129.86 91.56 130.21 91.12 130.56 92.6 130.91 92.6 131.26 93.34 131.61 93.93 131.96 92.16 132.31 89.05 132.66 87.42 133.01 85.49 133.36 85.94 133.7 86.68 134.05 88.75 134.4 89.49 134.75 86.97 135.1 88.16 135.45 86.08 135.8 84.16 136.15 85.79 136.5 86.82 136.85 86.23 137.2 85.19 137.55 80.75 137.89 79.42 138.24 78.68 138.59 79.71 138.94 84.75 139.29 89.05 139.64 90.08 139.99 91.42 140.34 91.27 140.69 91.12 141.04 88.01 141.39 84.9 141.73 84.01 142.08 83.12 142.43 82.68 142.78 82.38 143.13 80.31 143.48 81.05 143.83 82.38 144.18 83.71 144.53 86.82 144.88 86.68 145.23 88.01 145.58 86.23 145.92 87.71 146.27 88.01 146.62 89.64 146.97 89.94 147.32 91.12 147.67 90.08 148.02 92.6 148.37 97.64 148.72 95.56 149.07 94.23 149.42 93.64 149.76 95.42 150.11 94.08 150.46 91.12 150.81 90.08 151.16 91.71 151.51 92.75 151.86 95.12 152.21 94.23 152.56 92.75 152.91 91.71 153.26 91.56 153.61 87.12 153.95 84.01 154.3 84.9 154.65 85.49 155 88.45 155.35 87.12 155.7 88.75 156.05 84.75 156.4 85.05 156.75 86.82 157.1 85.49 157.45 84.01 157.79 85.64 158.14 86.08 158.49 88.45 158.84 88.75 159.19 86.82 159.54 89.49 159.89 87.27 160.24 87.57 160.59 82.38 160.94 84.6 161.29 88.16 161.64 86.38 161.98 88.31 162.33 90.38 162.68 92.45 163.03 93.93 163.38 90.97 163.73 93.64 164.08 92.75 164.43 94.38 164.78 95.86 165.13 97.19 165.48 96.9 165.83 98.82 166.17 98.38 166.52 98.23 166.87 96.9 167.22 97.05 167.57 98.53 167.92 97.05 168.27 92.01 168.62 92.31 168.97 90.97 169.32 88.45 169.67 91.12 170.01 94.23 170.36 94.08 170.71 97.49 171.06 96.3 171.41 94.68 171.76 97.49 172.11 95.56 172.46 95.27 172.81 94.08 173.16 96.9 173.51 98.08 173.86 100.01 174.2 96.9 174.55 99.71 174.9 101.34 175.25 101.34 175.6 105.93 175.95 107.41 176.3 108.3 176.65 107.56 177 107.56 177.35 108.15 177.7 107.12 178.04 109.93 178.39 112.9 178.74 113.64 179.09 112.75 179.44 110.53 179.79 110.08 180.14 106.67 180.49 107.71 180.84 106.67 181.19 105.34 181.54 104.16 181.89 104.9 182.23 103.71 182.58 102.67 182.93 102.38 183.28 102.97 183.63 104.9 183.98 105.78 184.33 103.56 184.68 105.49 185.03 104.45 185.38 106.23 185.73 105.78 186.08 103.71 186.42 102.97 186.77 106.82 187.12 110.08 187.47 109.49 187.82 110.53 188.17 111.41 188.52 111.56 188.87 112.45 189.22 110.97 189.57 113.49 189.92 114.38 190.26 113.34 190.61 112.6 190.96 110.38 191.31 108.15 191.66 107.56 192.01 107.41 192.36 108.6 192.71 107.56 193.06 107.27 193.41 110.08 193.76 108.75 194.11 109.93 194.45 109.93 194.8 105.19 195.15 102.08 195.5 101.19 195.85 99.71 196.2 97.79"/>
      </g>
      <g stroke-width="0.3" fill="#000000" fill-opacity="0.000" class="geometry" stroke-dasharray="none" stroke="#E6F598" id="img-ffe74cf1-13">
        <path fill="none" d="M21.98,71.86 L 22.33 72.16 22.68 71.72 23.03 74.09 23.38 78.08 23.73 77.05 24.08 79.42 24.42 78.23 24.77 81.49 25.12 82.97 25.47 81.64 25.82 79.86 26.17 80.16 26.52 83.42 26.87 85.19 27.22 84.75 27.57 88.75 27.92 90.68 28.27 88.9 28.61 89.79 28.96 89.79 29.31 89.94 29.66 88.01 30.01 90.97 30.36 88.75 30.71 89.34 31.06 89.34 31.41 88.31 31.76 93.49 32.11 94.38 32.45 94.68 32.8 96.01 33.15 97.05 33.5 96.6 33.85 99.12 34.2 97.93 34.55 95.56 34.9 94.82 35.25 93.49 35.6 92.9 35.95 92.6 36.3 89.79 36.64 88.9 36.99 88.16 37.34 91.71 37.69 92.16 38.04 89.49 38.39 88.75 38.74 91.42 39.09 91.12 39.44 89.05 39.79 90.53 40.14 90.68 40.49 89.49 40.83 89.19 41.18 88.6 41.53 86.08 41.88 89.64 42.23 88.31 42.58 87.27 42.93 88.75 43.28 89.94 43.63 95.27 43.98 97.64 44.33 99.56 44.67 95.86 45.02 98.23 45.37 100.6 45.72 104.01 46.07 102.38 46.42 102.82 46.77 103.27 47.12 104.9 47.47 105.34 47.82 106.53 48.17 107.71 48.52 108.75 48.86 108.3 49.21 107.86 49.56 108.45 49.91 110.82 50.26 111.56 50.61 112.15 50.96 112.3 51.31 110.53 51.66 107.56 52.01 108.01 52.36 109.19 52.7 107.86 53.05 104.45 53.4 104.16 53.75 108.15 54.1 108.9 54.45 111.41 54.8 110.23 55.15 110.53 55.5 108.15 55.85 108.01 56.2 109.19 56.55 109.93 56.89 109.19 57.24 108.15 57.59 108.6 57.94 108.15 58.29 109.93 58.64 112.6 58.99 113.04 59.34 113.04 59.69 112.75 60.04 114.97 60.39 114.82 60.73 115.86 61.08 116.01 61.43 115.71 61.78 115.12 62.13 116.45 62.48 115.41 62.83 114.52 63.18 114.08 63.53 111.86 63.88 114.23 64.23 112.75 64.58 112.9 64.92 113.34 65.27 112.3 65.62 108.75 65.97 108.9 66.32 108.15 66.67 108.3 67.02 108.75 67.37 107.56 67.72 109.19 68.07 110.67 68.42 111.41 68.77 112.45 69.11 114.82 69.46 114.97 69.81 113.64 70.16 114.23 70.51 114.97 70.86 115.27 71.21 117.78 71.56 115.56 71.91 116.3 72.26 117.34 72.61 118.52 72.95 118.08 73.3 118.82 73.65 118.23 74 120.45 74.35 119.86 74.7 118.08 75.05 117.19 75.4 116.89 75.75 119.12 76.1 118.67 76.45 118.52 76.8 118.97 77.14 118.52 77.49 118.67 77.84 117.34 78.19 116.45 78.54 116.89 78.89 117.64 79.24 116.3 79.59 118.38 79.94 119.12 80.29 118.38 80.64 116.75 80.98 117.64 81.33 118.67 81.68 117.78 82.03 116.89 82.38 118.97 82.73 117.78 83.08 117.64 83.43 118.97 83.78 119.86 84.13 121.19 84.48 119.56 84.83 118.97 85.17 120.01 85.52 121.34 85.87 121.93 86.22 121.49 86.57 121.63 86.92 123.41 87.27 123.12 87.62 124.3 87.97 123.71 88.32 120.89 88.67 121.49 89.02 124.6 89.36 125.78 89.71 124.89 90.06 125.49 90.41 126.37 90.76 126.08 91.11 126.97 91.46 127.56 91.81 127.12 92.16 127.71 92.51 127.86 92.86 126.82 93.2 127.41 93.55 126.82 93.9 126.23 94.25 126.37 94.6 126.67 94.95 126.37 95.3 127.41 95.65 128.89 96 128 96.35 126.97 96.7 126.37 97.05 126.97 97.39 126.82 97.74 126.37 98.09 126.37 98.44 127.12 98.79 127.41 99.14 127.12 99.49 127.26 99.84 127.41 100.19 127.71 100.54 128.15 100.89 126.97 101.23 127.56 101.58 128.74 101.93 128.45 102.28 127.26 102.63 126.08 102.98 126.37 103.33 125.63 103.68 127.41 104.03 126.82 104.38 126.67 104.73 127.26 105.08 126.52 105.42 126.37 105.77 125.63 106.12 125.49 106.47 127.12 106.82 127.56 107.17 126.23 107.52 126.52 107.87 127.56 108.22 127.71 108.57 126.97 108.92 127.41 109.26 127.12 109.61 128.3 109.96 128 110.31 128.6 110.66 128.89 111.01 127.56 111.36 127.41 111.71 126.82 112.06 126.67 112.41 126.08 112.76 126.52 113.11 127.12 113.45 128.74 113.8 128.15 114.15 126.67 114.5 125.78 114.85 125.78 115.2 124.89 115.55 124.89 115.9 123.12 116.25 122.97 116.6 123.26 116.95 122.38 117.3 122.08 117.64 122.52 117.99 120.45 118.34 120.45 118.69 119.86 119.04 119.26 119.39 118.08 119.74 118.97 120.09 116.15 120.44 116.6 120.79 115.41 121.14 113.93 121.48 112.3 121.83 110.23 122.18 109.93 122.53 110.38 122.88 110.97 123.23 110.67 123.58 112.9 123.93 112.45 124.28 109.78 124.63 112.45 124.98 115.41 125.33 117.19 125.67 115.86 126.02 116.01 126.37 117.04 126.72 118.82 127.07 118.97 127.42 117.78 127.77 119.12 128.12 119.56 128.47 119.26 128.82 119.86 129.17 118.97 129.51 117.49 129.86 118.23 130.21 115.71 130.56 113.04 130.91 115.41 131.26 117.78 131.61 117.93 131.96 119.26 132.31 115.71 132.66 113.93 133.01 115.71 133.36 115.56 133.7 115.86 134.05 117.04 134.4 116.15 134.75 116.01 135.1 114.23 135.45 115.71 135.8 115.86 136.15 114.67 136.5 113.19 136.85 116.6 137.2 115.71 137.55 116.75 137.89 115.41 138.24 113.04 138.59 109.93 138.94 110.97 139.29 109.78 139.64 110.53 139.99 111.12 140.34 109.93 140.69 110.08 141.04 111.12 141.39 112.3 141.73 111.27 142.08 109.34 142.43 108.75 142.78 108.75 143.13 110.23 143.48 112.01 143.83 112.9 144.18 114.52 144.53 115.56 144.88 116.3 145.23 113.49 145.58 113.64 145.92 114.08 146.27 113.19 146.62 113.49 146.97 111.56 147.32 113.93 147.67 112.6 148.02 112.15 148.37 111.71 148.72 110.53 149.07 109.93 149.42 110.38 149.76 110.23 150.11 109.93 150.46 108.01 150.81 109.93 151.16 105.04 151.51 106.08 151.86 105.04 152.21 104.6 152.56 103.56 152.91 104.9 153.26 106.08 153.61 102.97 153.95 105.93 154.3 107.86 154.65 110.23 155 109.49 155.35 107.12 155.7 108.01 156.05 109.19 156.4 110.08 156.75 109.93 157.1 108.75 157.45 109.64 157.79 110.08 158.14 110.23 158.49 108.9 158.84 111.56 159.19 110.53 159.54 112.75 159.89 116.45 160.24 114.82 160.59 114.23 160.94 115.71 161.29 114.08 161.64 112.6 161.98 110.38 162.33 111.71 162.68 111.71 163.03 109.64 163.38 107.27 163.73 109.49 164.08 109.93 164.43 109.34 164.78 107.71 165.13 105.49 165.48 105.19 165.83 104.75 166.17 104.3 166.52 106.08 166.87 106.08 167.22 104.9 167.57 106.82 167.92 105.64 168.27 106.23 168.62 105.34 168.97 107.27 169.32 107.41 169.67 105.78 170.01 102.97 170.36 100.9 170.71 102.38 171.06 104.45 171.41 104.16 171.76 107.12 172.11 106.08 172.46 105.64 172.81 105.04 173.16 106.08 173.51 106.08 173.86 110.82 174.2 110.97 174.55 108.75 174.9 110.38 175.25 112.3 175.6 110.82 175.95 110.23 176.3 112.9 176.65 110.97 177 112.01 177.35 113.78 177.7 113.93 178.04 114.08 178.39 114.52 178.74 112.45 179.09 112.45 179.44 114.08 179.79 115.27 180.14 112.9 180.49 113.49 180.84 112.15 181.19 110.23 181.54 109.64 181.89 108.15 182.23 107.86 182.58 105.64 182.93 106.97 183.28 106.82 183.63 105.49 183.98 102.53 184.33 103.27 184.68 102.67 185.03 103.12 185.38 102.53 185.73 101.79 186.08 97.49 186.42 96.9 186.77 95.56 187.12 95.56 187.47 94.82 187.82 97.49 188.17 98.23 188.52 98.23 188.87 98.67 189.22 98.97 189.57 97.93 189.92 99.42 190.26 100.45 190.61 101.64 190.96 97.64 191.31 97.49 191.66 99.56 192.01 96.16 192.36 96.9 192.71 94.53 193.06 94.68 193.41 92.01 193.76 93.49 194.11 92.45 194.45 95.12 194.8 93.19 195.15 92.75 195.5 90.97 195.85 92.75 196.2 92.31"/>
      </g>
      <g stroke-width="0.3" fill="#000000" fill-opacity="0.000" class="geometry" stroke-dasharray="none" stroke="#FFFFBF" id="img-ffe74cf1-14">
        <path fill="none" d="M21.98,71.86 L 22.33 72.6 22.68 69.2 23.03 68.9 23.38 70.23 23.73 71.12 24.08 72.16 24.42 77.05 24.77 77.79 25.12 79.12 25.47 78.68 25.82 79.42 26.17 77.79 26.52 78.08 26.87 76.46 27.22 73.79 27.57 76.75 27.92 74.97 28.27 74.23 28.61 75.57 28.96 77.79 29.31 80.75 29.66 81.34 30.01 79.57 30.36 78.08 30.71 76.46 31.06 77.49 31.41 77.49 31.76 78.38 32.11 79.86 32.45 78.53 32.8 78.68 33.15 78.68 33.5 79.42 33.85 82.82 34.2 81.49 34.55 79.42 34.9 80.6 35.25 79.27 35.6 78.68 35.95 80.31 36.3 78.23 36.64 76.75 36.99 77.05 37.34 80.01 37.69 78.68 38.04 81.49 38.39 79.42 38.74 75.86 39.09 79.12 39.44 76.6 39.79 77.34 40.14 74.83 40.49 78.08 40.83 77.79 41.18 77.94 41.53 77.49 41.88 77.94 42.23 75.86 42.58 72.46 42.93 75.12 43.28 77.05 43.63 75.57 43.98 79.71 44.33 79.12 44.67 81.94 45.02 80.45 45.37 80.45 45.72 81.34 46.07 80.45 46.42 81.2 46.77 82.82 47.12 84.16 47.47 86.08 47.82 84.45 48.17 83.86 48.52 86.68 48.86 85.64 49.21 84.01 49.56 82.97 49.91 83.86 50.26 82.82 50.61 82.08 50.96 78.97 51.31 78.23 51.66 79.57 52.01 78.53 52.36 77.34 52.7 76.9 53.05 76.9 53.4 74.23 53.75 74.09 54.1 77.05 54.45 77.2 54.8 73.64 55.15 73.49 55.5 70.38 55.85 71.42 56.2 70.38 56.55 71.57 56.89 72.6 57.24 80.16 57.59 77.49 57.94 75.27 58.29 71.72 58.64 74.53 58.99 72.01 59.34 74.09 59.69 73.79 60.04 73.49 60.39 74.53 60.73 73.2 61.08 75.27 61.43 76.16 61.78 73.49 62.13 74.83 62.48 75.86 62.83 73.64 63.18 72.9 63.53 73.34 63.88 71.27 64.23 68.6 64.58 72.6 64.92 75.12 65.27 75.12 65.62 75.86 65.97 77.49 66.32 79.12 66.67 77.05 67.02 77.49 67.37 78.53 67.72 77.2 68.07 78.53 68.42 80.31 68.77 78.23 69.11 77.79 69.46 76.6 69.81 75.27 70.16 76.6 70.51 77.05 70.86 77.79 71.21 78.38 71.56 79.12 71.91 80.9 72.26 75.27 72.61 72.6 72.95 74.83 73.3 75.12 73.65 71.12 74 74.97 74.35 74.97 74.7 75.86 75.05 73.49 75.4 70.68 75.75 73.34 76.1 70.38 76.45 69.35 76.8 65.94 77.14 68.6 77.49 70.68 77.84 69.64 78.19 72.46 78.54 72.75 78.89 68.46 79.24 66.23 79.59 63.12 79.94 57.94 80.29 55.27 80.64 52.01 80.98 52.46 81.33 53.2 81.68 53.94 82.03 50.98 82.38 51.13 82.73 51.72 83.08 51.87 83.43 51.72 83.78 48.76 84.13 51.72 84.48 49.94 84.83 49.05 85.17 44.46 85.52 43.27 85.87 41.05 86.22 41.64 86.57 43.27 86.92 43.27 87.27 41.5 87.62 41.64 87.97 42.39 88.32 41.94 88.67 42.98 89.02 42.68 89.36 43.13 89.71 43.13 90.06 41.79 90.41 40.16 90.76 40.16 91.11 37.2 91.46 37.65 91.81 35.87 92.16 38.39 92.51 39.72 92.86 40.31 93.2 39.72 93.55 39.13 93.9 38.39 94.25 42.53 94.6 41.2 94.95 41.5 95.3 39.57 95.65 41.2 96 43.57 96.35 44.16 96.7 44.02 97.05 46.39 97.39 44.9 97.74 46.68 98.09 47.57 98.44 48.61 98.79 48.01 99.14 49.2 99.49 49.94 99.84 49.35 100.19 49.5 100.54 51.57 100.89 51.13 101.23 52.16 101.58 53.64 101.93 53.79 102.28 57.35 102.63 55.42 102.98 52.75 103.33 49.5 103.68 50.38 104.03 49.5 104.38 49.79 104.73 48.46 105.08 54.53 105.42 53.94 105.77 54.38 106.12 55.72 106.47 53.05 106.82 55.72 107.17 53.5 107.52 52.9 107.87 50.53 108.22 46.83 108.57 44.46 108.92 43.57 109.26 45.2 109.61 44.16 109.96 45.5 110.31 42.98 110.66 43.57 111.01 46.83 111.36 50.24 111.71 47.27 112.06 46.68 112.41 46.39 112.76 46.68 113.11 43.72 113.45 46.98 113.8 46.53 114.15 49.05 114.5 49.35 114.85 50.98 115.2 50.09 115.55 49.64 115.9 50.24 116.25 54.98 116.6 55.72 116.95 56.9 117.3 58.53 117.64 62.53 117.99 61.64 118.34 60.9 118.69 58.09 119.04 57.79 119.39 55.42 119.74 57.79 120.09 55.57 120.44 58.38 120.79 57.49 121.14 62.83 121.48 65.49 121.83 65.05 122.18 65.2 122.53 64.9 122.88 65.79 123.23 66.23 123.58 67.57 123.93 68.16 124.28 69.05 124.63 69.2 124.98 68.75 125.33 68.75 125.67 68.31 126.02 70.68 126.37 70.97 126.72 73.79 127.07 77.05 127.42 78.38 127.77 74.83 128.12 72.16 128.47 71.86 128.82 76.75 129.17 78.23 129.51 79.57 129.86 79.71 130.21 79.12 130.56 79.27 130.91 78.23 131.26 76.9 131.61 79.27 131.96 79.27 132.31 77.05 132.66 80.31 133.01 79.86 133.36 79.12 133.7 82.08 134.05 80.45 134.4 82.53 134.75 79.86 135.1 79.57 135.45 80.01 135.8 76.31 136.15 76.6 136.5 72.75 136.85 73.05 137.2 71.12 137.55 71.12 137.89 70.38 138.24 69.79 138.59 69.2 138.94 71.27 139.29 73.49 139.64 74.09 139.99 70.53 140.34 70.97 140.69 74.38 141.04 74.68 141.39 76.75 141.73 79.42 142.08 74.68 142.43 76.9 142.78 77.34 143.13 75.12 143.48 74.23 143.83 72.31 144.18 73.64 144.53 80.6 144.88 79.27 145.23 81.2 145.58 78.83 145.92 77.94 146.27 76.6 146.62 74.68 146.97 74.97 147.32 74.83 147.67 73.2 148.02 71.42 148.37 67.72 148.72 65.49 149.07 65.2 149.42 67.57 149.76 69.94 150.11 72.16 150.46 69.49 150.81 74.23 151.16 73.2 151.51 74.97 151.86 75.27 152.21 73.49 152.56 75.57 152.91 74.68 153.26 73.05 153.61 78.08 153.95 78.68 154.3 76.46 154.65 71.27 155 74.09 155.35 75.12 155.7 72.6 156.05 76.75 156.4 74.68 156.75 72.75 157.1 71.12 157.45 71.42 157.79 71.42 158.14 71.12 158.49 72.31 158.84 69.05 159.19 67.27 159.54 70.38 159.89 70.68 160.24 69.94 160.59 69.49 160.94 73.34 161.29 72.01 161.64 70.83 161.98 74.38 162.33 74.68 162.68 75.42 163.03 74.53 163.38 77.49 163.73 76.6 164.08 78.68 164.43 79.57 164.78 77.34 165.13 75.12 165.48 74.68 165.83 74.83 166.17 77.79 166.52 77.64 166.87 72.46 167.22 72.9 167.57 74.68 167.92 76.31 168.27 74.23 168.62 77.49 168.97 80.6 169.32 80.45 169.67 81.64 170.01 80.6 170.36 82.82 170.71 83.42 171.06 79.86 171.41 80.45 171.76 81.94 172.11 83.27 172.46 82.38 172.81 81.94 173.16 79.12 173.51 79.27 173.86 77.05 174.2 71.72 174.55 75.12 174.9 76.6 175.25 77.34 175.6 75.57 175.95 75.71 176.3 76.46 176.65 69.94 177 67.42 177.35 65.64 177.7 67.27 178.04 71.72 178.39 71.72 178.74 73.49 179.09 72.01 179.44 72.6 179.79 75.71 180.14 76.6 180.49 77.49 180.84 75.27 181.19 72.75 181.54 72.01 181.89 70.83 182.23 71.27 182.58 72.75 182.93 70.53 183.28 64.61 183.63 63.57 183.98 63.27 184.33 60.61 184.68 60.01 185.03 61.35 185.38 62.09 185.73 61.94 186.08 61.35 186.42 59.86 186.77 60.61 187.12 62.23 187.47 61.2 187.82 63.12 188.17 63.86 188.52 65.2 188.87 68.31 189.22 68.46 189.57 70.53 189.92 69.94 190.26 68.6 190.61 71.57 190.96 72.31 191.31 74.09 191.66 76.6 192.01 76.75 192.36 75.71 192.71 75.27 193.06 76.9 193.41 75.42 193.76 73.64 194.11 71.27 194.45 68.75 194.8 67.57 195.15 66.38 195.5 69.79 195.85 68.01 196.2 72.01"/>
      </g>
      <g stroke-width="0.3" fill="#000000" fill-opacity="0.000" class="geometry" stroke-dasharray="none" stroke="#FEE08B" id="img-ffe74cf1-15">
        <path fill="none" d="M21.98,71.86 L 22.33 72.31 22.68 77.79 23.03 79.86 23.38 80.6 23.73 78.53 24.08 78.97 24.42 76.75 24.77 75.86 25.12 78.23 25.47 75.12 25.82 75.86 26.17 76.46 26.52 77.79 26.87 75.12 27.22 74.53 27.57 76.01 27.92 78.68 28.27 77.34 28.61 75.57 28.96 76.16 29.31 78.97 29.66 75.12 30.01 76.9 30.36 74.97 30.71 74.23 31.06 76.16 31.41 76.75 31.76 78.97 32.11 80.31 32.45 79.57 32.8 82.08 33.15 82.68 33.5 83.42 33.85 84.9 34.2 84.9 34.55 84.75 34.9 84.01 35.25 83.57 35.6 82.53 35.95 85.05 36.3 88.31 36.64 86.68 36.99 87.71 37.34 88.31 37.69 85.79 38.04 88.16 38.39 84.9 38.74 82.53 39.09 82.97 39.44 83.86 39.79 86.82 40.14 88.75 40.49 88.31 40.83 87.12 41.18 89.79 41.53 86.23 41.88 86.38 42.23 87.12 42.58 86.53 42.93 84.75 43.28 84.75 43.63 85.64 43.98 85.64 44.33 84.9 44.67 84.31 45.02 81.49 45.37 84.01 45.72 86.08 46.07 86.23 46.42 86.68 46.77 85.05 47.12 85.34 47.47 82.53 47.82 79.57 48.17 80.16 48.52 79.57 48.86 82.82 49.21 85.34 49.56 85.94 49.91 87.42 50.26 86.68 50.61 85.64 50.96 85.34 51.31 85.64 51.66 90.23 52.01 88.16 52.36 90.38 52.7 91.71 53.05 93.79 53.4 95.12 53.75 95.27 54.1 96.75 54.45 95.27 54.8 96.01 55.15 96.6 55.5 95.56 55.85 97.34 56.2 95.86 56.55 97.05 56.89 97.34 57.24 101.19 57.59 100.6 57.94 98.97 58.29 99.27 58.64 98.82 58.99 98.67 59.34 94.38 59.69 92.01 60.04 93.79 60.39 96.6 60.73 93.93 61.08 93.05 61.43 92.31 61.78 90.97 62.13 92.6 62.48 92.45 62.83 92.16 63.18 89.49 63.53 89.64 63.88 87.86 64.23 89.79 64.58 87.71 64.92 86.23 65.27 84.16 65.62 82.97 65.97 85.05 66.32 87.71 66.67 85.94 67.02 85.34 67.37 88.9 67.72 89.05 68.07 95.12 68.42 96.9 68.77 101.79 69.11 101.93 69.46 101.04 69.81 102.67 70.16 101.19 70.51 102.97 70.86 101.93 71.21 100.16 71.56 100.01 71.91 98.97 72.26 101.79 72.61 100.75 72.95 101.34 73.3 101.34 73.65 99.27 74 100.01 74.35 100.45 74.7 103.56 75.05 101.04 75.4 99.27 75.75 98.38 76.1 98.67 76.45 95.42 76.8 97.05 77.14 97.05 77.49 97.19 77.84 95.27 78.19 94.97 78.54 93.64 78.89 94.97 79.24 93.79 79.59 94.97 79.94 96.01 80.29 99.42 80.64 98.67 80.98 98.97 81.33 95.86 81.68 99.71 82.03 101.93 82.38 101.19 82.73 101.93 83.08 101.93 83.43 103.27 83.78 105.34 84.13 103.86 84.48 105.49 84.83 106.38 85.17 104.6 85.52 104.9 85.87 107.71 86.22 108.9 86.57 108.3 86.92 110.82 87.27 109.64 87.62 107.86 87.97 110.38 88.32 110.67 88.67 109.64 89.02 109.93 89.36 107.86 89.71 106.08 90.06 104.6 90.41 103.86 90.76 104.6 91.11 103.56 91.46 102.38 91.81 100.45 92.16 102.97 92.51 104.6 92.86 104.01 93.2 104.6 93.55 104.9 93.9 105.34 94.25 106.67 94.6 105.49 94.95 105.19 95.3 104.75 95.65 105.19 96 104.01 96.35 104.45 96.7 104.75 97.05 105.34 97.39 103.86 97.74 104.45 98.09 105.34 98.44 105.04 98.79 104.01 99.14 104.45 99.49 105.34 99.84 106.53 100.19 105.49 100.54 102.53 100.89 103.41 101.23 102.67 101.58 102.67 101.93 102.38 102.28 101.79 102.63 102.23 102.98 101.93 103.33 98.38 103.68 100.3 104.03 97.79 104.38 96.45 104.73 95.27 105.08 98.38 105.42 96.45 105.77 96.9 106.12 96.6 106.47 98.97 106.82 99.27 107.17 99.12 107.52 99.71 107.87 99.56 108.22 103.41 108.57 99.56 108.92 97.93 109.26 97.79 109.61 99.42 109.96 100.75 110.31 99.86 110.66 100.75 111.01 103.12 111.36 103.27 111.71 102.08 112.06 103.12 112.41 102.97 112.76 105.04 113.11 107.86 113.45 107.41 113.8 106.97 114.15 105.49 114.5 104.45 114.85 107.27 115.2 106.08 115.55 104.16 115.9 108.3 116.25 111.71 116.6 111.86 116.95 111.86 117.3 109.19 117.64 106.97 117.99 109.78 118.34 109.34 118.69 110.82 119.04 112.01 119.39 112.15 119.74 115.12 120.09 115.27 120.44 114.97 120.79 114.97 121.14 113.64 121.48 112.15 121.83 113.49 122.18 112.15 122.53 113.04 122.88 113.04 123.23 113.19 123.58 111.86 123.93 111.12 124.28 111.71 124.63 110.53 124.98 112.9 125.33 110.67 125.67 110.97 126.02 112.15 126.37 110.38 126.72 113.64 127.07 114.23 127.42 112.15 127.77 110.23 128.12 111.86 128.47 111.12 128.82 109.64 129.17 109.34 129.51 106.53 129.86 101.79 130.21 102.38 130.56 101.79 130.91 100.6 131.26 99.71 131.61 100.6 131.96 102.23 132.31 100.9 132.66 100.3 133.01 98.97 133.36 99.42 133.7 96.45 134.05 96.01 134.4 99.27 134.75 100.16 135.1 99.56 135.45 100.01 135.8 98.82 136.15 97.64 136.5 100.9 136.85 100.45 137.2 97.19 137.55 100.01 137.89 100.9 138.24 101.79 138.59 99.27 138.94 95.12 139.29 94.08 139.64 96.6 139.99 95.12 140.34 97.05 140.69 94.08 141.04 92.6 141.39 93.05 141.73 93.64 142.08 91.56 142.43 94.08 142.78 93.19 143.13 91.42 143.48 89.19 143.83 92.01 144.18 91.42 144.53 89.49 144.88 89.34 145.23 89.79 145.58 92.01 145.92 91.12 146.27 92.45 146.62 92.9 146.97 93.19 147.32 91.56 147.67 94.82 148.02 93.79 148.37 95.56 148.72 94.53 149.07 95.12 149.42 96.3 149.76 98.08 150.11 98.53 150.46 99.71 150.81 95.56 151.16 98.53 151.51 98.53 151.86 99.12 152.21 100.45 152.56 98.67 152.91 101.49 153.26 101.93 153.61 96.75 153.95 98.82 154.3 98.38 154.65 97.93 155 101.49 155.35 103.71 155.7 102.82 156.05 103.41 156.4 102.38 156.75 101.49 157.1 99.71 157.45 98.08 157.79 98.67 158.14 101.04 158.49 102.97 158.84 101.64 159.19 105.93 159.54 105.78 159.89 106.53 160.24 107.12 160.59 105.19 160.94 105.04 161.29 104.9 161.64 102.97 161.98 103.41 162.33 104.75 162.68 100.9 163.03 99.27 163.38 97.49 163.73 99.12 164.08 101.04 164.43 102.97 164.78 104.6 165.13 104.01 165.48 105.04 165.83 104.16 166.17 103.27 166.52 104.01 166.87 104.16 167.22 101.93 167.57 102.67 167.92 103.86 168.27 107.27 168.62 109.93 168.97 109.04 169.32 107.27 169.67 106.08 170.01 107.12 170.36 106.08 170.71 108.01 171.06 107.27 171.41 104.16 171.76 104.75 172.11 103.71 172.46 106.67 172.81 104.16 173.16 104.3 173.51 104.75 173.86 105.49 174.2 103.41 174.55 102.82 174.9 104.75 175.25 103.71 175.6 106.08 175.95 105.78 176.3 109.78 176.65 106.67 177 107.41 177.35 110.53 177.7 110.82 178.04 110.67 178.39 109.19 178.74 107.41 179.09 109.64 179.44 106.82 179.79 107.56 180.14 113.49 180.49 115.27 180.84 116.6 181.19 117.78 181.54 115.86 181.89 115.27 182.23 116.6 182.58 116.01 182.93 114.38 183.28 116.01 183.63 114.23 183.98 115.27 184.33 113.93 184.68 115.27 185.03 113.93 185.38 113.19 185.73 113.49 186.08 112.6 186.42 113.04 186.77 116.15 187.12 118.82 187.47 117.93 187.82 116.75 188.17 118.38 188.52 118.67 188.87 118.08 189.22 116.45 189.57 117.19 189.92 117.93 190.26 117.49 190.61 116.89 190.96 116.75 191.31 117.34 191.66 117.34 192.01 117.78 192.36 118.82 192.71 118.38 193.06 118.38 193.41 118.08 193.76 118.08 194.11 117.49 194.45 118.67 194.8 118.67 195.15 118.67 195.5 118.23 195.85 118.97 196.2 118.52"/>
      </g>
      <g stroke-width="0.3" fill="#000000" fill-opacity="0.000" class="geometry" stroke-dasharray="none" stroke="#FDAE61" id="img-ffe74cf1-16">
        <path fill="none" d="M21.98,71.86 L 22.33 70.23 22.68 73.2 23.03 69.49 23.38 69.2 23.73 72.16 24.08 75.12 24.42 75.12 24.77 73.94 25.12 77.49 25.47 78.53 25.82 81.49 26.17 81.34 26.52 80.45 26.87 78.83 27.22 79.86 27.57 84.9 27.92 84.16 28.27 81.64 28.61 84.31 28.96 82.38 29.31 84.16 29.66 85.94 30.01 88.31 30.36 89.34 30.71 89.34 31.06 89.94 31.41 87.86 31.76 84.9 32.11 86.97 32.45 85.64 32.8 88.75 33.15 89.19 33.5 85.49 33.85 88.6 34.2 89.94 34.55 92.6 34.9 93.05 35.25 94.23 35.6 92.6 35.95 91.71 36.3 94.82 36.64 92.31 36.99 93.34 37.34 96.16 37.69 97.64 38.04 97.34 38.39 97.34 38.74 96.16 39.09 93.79 39.44 93.79 39.79 95.71 40.14 97.19 40.49 98.23 40.83 96.75 41.18 98.97 41.53 97.05 41.88 97.34 42.23 100.6 42.58 101.34 42.93 99.71 43.28 98.67 43.63 101.34 43.98 101.93 44.33 104.6 44.67 106.08 45.02 106.97 45.37 106.38 45.72 108.75 46.07 109.64 46.42 108.01 46.77 108.6 47.12 108.45 47.47 108.9 47.82 107.12 48.17 107.71 48.52 105.34 48.86 106.23 49.21 104.01 49.56 106.23 49.91 105.64 50.26 105.34 50.61 106.23 50.96 107.27 51.31 105.49 51.66 104.6 52.01 103.86 52.36 104.6 52.7 102.38 53.05 106.08 53.4 106.97 53.75 109.78 54.1 110.97 54.45 112.9 54.8 112.6 55.15 110.53 55.5 109.78 55.85 108.75 56.2 105.34 56.55 107.27 56.89 104.75 57.24 103.56 57.59 102.67 57.94 104.75 58.29 101.79 58.64 101.49 58.99 102.53 59.34 102.08 59.69 103.56 60.04 104.3 60.39 103.86 60.73 106.08 61.08 104.75 61.43 107.41 61.78 107.41 62.13 107.12 62.48 106.97 62.83 109.78 63.18 107.56 63.53 110.38 63.88 111.12 64.23 110.08 64.58 108.6 64.92 108.01 65.27 104.3 65.62 105.34 65.97 107.56 66.32 107.71 66.67 108.15 67.02 109.19 67.37 110.38 67.72 111.27 68.07 108.6 68.42 107.86 68.77 109.49 69.11 107.71 69.46 107.86 69.81 107.27 70.16 105.49 70.51 107.41 70.86 109.19 71.21 111.12 71.56 112.9 71.91 114.23 72.26 113.04 72.61 113.64 72.95 112.9 73.3 113.78 73.65 114.67 74 115.41 74.35 115.71 74.7 115.41 75.05 114.67 75.4 112.75 75.75 111.71 76.1 111.27 76.45 109.49 76.8 111.27 77.14 113.34 77.49 114.08 77.84 115.86 78.19 116.01 78.54 114.97 78.89 114.23 79.24 115.56 79.59 115.41 79.94 114.38 80.29 115.12 80.64 116.15 80.98 117.34 81.33 116.75 81.68 119.56 82.03 117.19 82.38 117.93 82.73 116.3 83.08 115.71 83.43 118.38 83.78 114.97 84.13 114.08 84.48 114.08 84.83 113.49 85.17 113.64 85.52 114.08 85.87 113.93 86.22 113.78 86.57 114.23 86.92 112.45 87.27 116.45 87.62 116.3 87.97 117.49 88.32 117.34 88.67 118.67 89.02 120.3 89.36 118.82 89.71 118.38 90.06 119.26 90.41 119.12 90.76 118.38 91.11 120.01 91.46 120.89 91.81 120.6 92.16 121.63 92.51 119.56 92.86 121.34 93.2 120.6 93.55 120.75 93.9 121.49 94.25 121.78 94.6 122.97 94.95 121.63 95.3 121.93 95.65 121.49 96 121.93 96.35 122.67 96.7 122.38 97.05 124.15 97.39 123.41 97.74 122.23 98.09 121.19 98.44 120.45 98.79 122.67 99.14 122.97 99.49 122.67 99.84 121.93 100.19 121.19 100.54 120.75 100.89 120.75 101.23 120.3 101.58 121.63 101.93 120.89 102.28 118.97 102.63 119.71 102.98 122.08 103.33 121.04 103.68 120.89 104.03 119.26 104.38 119.56 104.73 118.97 105.08 118.67 105.42 120.3 105.77 120.45 106.12 120.3 106.47 120.01 106.82 119.41 107.17 120.15 107.52 121.93 107.87 123.41 108.22 125.19 108.57 124.6 108.92 123.71 109.26 123.12 109.61 122.08 109.96 122.38 110.31 123.26 110.66 121.19 111.01 120.89 111.36 120.6 111.71 120.01 112.06 119.86 112.41 120.89 112.76 121.19 113.11 122.23 113.45 123.41 113.8 122.67 114.15 122.67 114.5 123.56 114.85 122.52 115.2 122.67 115.55 123.41 115.9 120.15 116.25 120.3 116.6 120.75 116.95 120.6 117.3 122.23 117.64 120.15 117.99 119.86 118.34 120.6 118.69 119.71 119.04 119.86 119.39 120.15 119.74 121.04 120.09 121.19 120.44 120.45 120.79 119.56 121.14 117.64 121.48 117.64 121.83 118.23 122.18 118.23 122.53 117.64 122.88 117.49 123.23 115.56 123.58 115.27 123.93 116.75 124.28 115.27 124.63 114.82 124.98 116.45 125.33 117.34 125.67 115.71 126.02 116.01 126.37 116.3 126.72 116.01 127.07 114.82 127.42 113.64 127.77 112.45 128.12 115.41 128.47 116.45 128.82 115.27 129.17 114.97 129.51 115.27 129.86 113.34 130.21 115.56 130.56 116.01 130.91 115.71 131.26 116.89 131.61 118.97 131.96 119.41 132.31 120.75 132.66 121.19 133.01 122.38 133.36 122.08 133.7 122.38 134.05 122.52 134.4 124 134.75 123.71 135.1 123.12 135.45 123.26 135.8 122.38 136.15 122.97 136.5 122.67 136.85 121.04 137.2 121.19 137.55 120.15 137.89 118.67 138.24 119.12 138.59 117.19 138.94 117.19 139.29 117.34 139.64 116.45 139.99 114.67 140.34 115.12 140.69 114.52 141.04 111.12 141.39 112.3 141.73 110.38 142.08 111.86 142.43 113.64 142.78 114.67 143.13 114.38 143.48 112.45 143.83 113.93 144.18 113.19 144.53 113.93 144.88 112.9 145.23 113.78 145.58 114.52 145.92 116.01 146.27 117.93 146.62 117.04 146.97 116.89 147.32 116.45 147.67 117.78 148.02 117.64 148.37 117.34 148.72 117.64 149.07 117.64 149.42 113.78 149.76 114.52 150.11 114.52 150.46 114.52 150.81 113.19 151.16 112.45 151.51 111.12 151.86 112.15 152.21 112.6 152.56 111.86 152.91 110.82 153.26 111.56 153.61 112.01 153.95 109.78 154.3 110.53 154.65 110.38 155 109.93 155.35 107.56 155.7 107.27 156.05 107.56 156.4 106.82 156.75 106.23 157.1 106.82 157.45 104.75 157.79 106.38 158.14 107.41 158.49 106.82 158.84 107.56 159.19 103.56 159.54 105.34 159.89 104.6 160.24 102.38 160.59 100.75 160.94 98.23 161.29 98.08 161.64 98.38 161.98 95.86 162.33 98.23 162.68 96.45 163.03 93.64 163.38 95.71 163.73 94.23 164.08 96.3 164.43 97.64 164.78 93.49 165.13 95.27 165.48 96.9 165.83 98.82 166.17 95.56 166.52 96.01 166.87 92.16 167.22 93.34 167.57 90.38 167.92 91.12 168.27 90.97 168.62 92.9 168.97 93.93 169.32 93.93 169.67 93.05 170.01 96.16 170.36 95.27 170.71 91.71 171.06 95.42 171.41 96.01 171.76 97.93 172.11 100.3 172.46 101.64 172.81 102.97 173.16 103.86 173.51 102.53 173.86 101.93 174.2 99.71 174.55 102.97 174.9 102.82 175.25 102.53 175.6 101.19 175.95 103.41 176.3 102.67 176.65 100.45 177 101.64 177.35 100.9 177.7 102.67 178.04 100.3 178.39 101.93 178.74 102.53 179.09 104.45 179.44 103.71 179.79 104.3 180.14 108.15 180.49 108.01 180.84 105.19 181.19 104.75 181.54 108.01 181.89 108.15 182.23 109.49 182.58 108.6 182.93 107.71 183.28 109.34 183.63 109.64 183.98 110.53 184.33 109.49 184.68 110.67 185.03 110.38 185.38 112.75 185.73 112.15 186.08 110.53 186.42 110.67 186.77 109.04 187.12 109.93 187.47 110.23 187.82 109.04 188.17 109.04 188.52 111.12 188.87 109.04 189.22 110.08 189.57 109.19 189.92 112.9 190.26 113.04 190.61 112.9 190.96 113.64 191.31 116.3 191.66 116.89 192.01 115.86 192.36 115.71 192.71 116.45 193.06 116.45 193.41 115.71 193.76 113.78 194.11 113.34 194.45 113.04 194.8 113.64 195.15 114.38 195.5 113.04 195.85 113.93 196.2 113.49"/>
      </g>
      <g stroke-width="0.3" fill="#000000" fill-opacity="0.000" class="geometry" stroke-dasharray="none" stroke="#F46D43" id="img-ffe74cf1-17">
        <path fill="none" d="M21.98,71.86 L 22.33 71.27 22.68 69.05 23.03 64.46 23.38 64.31 23.73 65.2 24.08 70.38 24.42 64.16 24.77 62.98 25.12 60.16 25.47 63.57 25.82 66.38 26.17 66.53 26.52 63.57 26.87 65.94 27.22 64.75 27.57 63.57 27.92 61.49 28.27 58.68 28.61 56.31 28.96 55.87 29.31 54.83 29.66 53.5 30.01 49.79 30.36 51.27 30.71 54.83 31.06 51.57 31.41 49.5 31.76 51.42 32.11 54.68 32.45 55.42 32.8 53.79 33.15 58.24 33.5 57.79 33.85 56.16 34.2 56.61 34.55 57.79 34.9 56.16 35.25 55.87 35.6 57.2 35.95 56.16 36.3 56.61 36.64 53.94 36.99 53.79 37.34 55.72 37.69 55.57 38.04 54.09 38.39 50.38 38.74 47.13 39.09 47.13 39.44 49.05 39.79 51.13 40.14 53.05 40.49 52.61 40.83 50.38 41.18 50.09 41.53 46.98 41.88 47.27 42.23 46.68 42.58 47.72 42.93 47.72 43.28 46.39 43.63 47.42 43.98 48.76 44.33 48.61 44.67 49.64 45.02 50.68 45.37 50.98 45.72 52.75 46.07 50.38 46.42 50.68 46.77 49.5 47.12 49.94 47.47 51.42 47.82 54.38 48.17 52.61 48.52 56.01 48.86 54.83 49.21 56.9 49.56 55.57 49.91 54.53 50.26 57.94 50.61 58.24 50.96 56.31 51.31 55.42 51.66 54.09 52.01 52.9 52.36 52.31 52.7 51.87 53.05 49.94 53.4 50.24 53.75 49.94 54.1 48.46 54.45 49.64 54.8 49.2 55.15 46.09 55.5 43.72 55.85 44.31 56.2 44.31 56.55 44.46 56.89 43.27 57.24 42.53 57.59 44.31 57.94 47.42 58.29 48.01 58.64 49.05 58.99 48.61 59.34 47.13 59.69 46.39 60.04 47.57 60.39 49.05 60.73 49.64 61.08 48.16 61.43 46.53 61.78 46.83 62.13 47.13 62.48 49.5 62.83 50.09 63.18 46.53 63.53 44.76 63.88 45.5 64.23 44.76 64.58 46.68 64.92 43.72 65.27 44.61 65.62 44.76 65.97 44.16 66.32 45.5 66.67 44.31 67.02 42.09 67.37 41.2 67.72 41.94 68.07 39.57 68.42 40.61 68.77 39.42 69.11 38.68 69.46 39.57 69.81 37.65 70.16 39.13 70.51 39.13 70.86 39.27 71.21 40.46 71.56 38.83 71.91 38.98 72.26 38.39 72.61 37.94 72.95 34.24 73.3 34.53 73.65 35.28 74 35.28 74.35 34.83 74.7 33.79 75.05 34.24 75.4 33.2 75.75 32.61 76.1 33.35 76.45 33.2 76.8 32.16 77.14 31.87 77.49 34.09 77.84 30.09 78.19 30.98 78.54 30.83 78.89 32.31 79.24 33.94 79.59 32.91 79.94 34.53 80.29 33.2 80.64 32.02 80.98 32.46 81.33 29.65 81.68 30.09 82.03 30.54 82.38 29.5 82.73 27.87 83.08 25.8 83.43 25.94 83.78 24.17 84.13 23.87 84.48 22.39 84.83 22.09 85.17 21.2 85.52 20.76 85.87 20.17 86.22 19.72 86.57 19.28 86.92 21.06 87.27 23.43 87.62 22.39 87.97 22.83 88.32 23.43 88.67 22.24 89.02 21.06 89.36 18.24 89.71 16.76 90.06 16.17 90.41 15.87 90.76 15.87 91.11 16.02 91.46 15.87 91.81 15.13 92.16 14.24 92.51 14.39 92.86 14.09 93.2 13.65 93.55 13.94 93.9 14.09 94.25 13.94 94.6 15.43 94.95 16.46 95.3 16.91 95.65 16.76 96 16.46 96.35 15.87 96.7 16.31 97.05 17.35 97.39 16.46 97.74 16.61 98.09 16.76 98.44 16.46 98.79 17.5 99.14 18.09 99.49 19.13 99.84 20.17 100.19 20.91 100.54 21.2 100.89 19.57 101.23 20.91 101.58 20.17 101.93 19.28 102.28 19.57 102.63 19.87 102.98 19.87 103.33 19.28 103.68 19.87 104.03 18.68 104.38 20.76 104.73 19.28 105.08 19.43 105.42 19.87 105.77 21.2 106.12 22.09 106.47 24.31 106.82 24.31 107.17 24.76 107.52 24.17 107.87 22.98 108.22 22.39 108.57 22.09 108.92 21.5 109.26 20.02 109.61 19.43 109.96 19.57 110.31 19.13 110.66 18.39 111.01 18.09 111.36 17.94 111.71 18.39 112.06 17.2 112.41 18.09 112.76 18.24 113.11 16.76 113.45 16.61 113.8 16.02 114.15 16.17 114.5 14.54 114.85 14.39 115.2 14.54 115.55 13.8 115.9 14.24 116.25 15.28 116.6 15.57 116.95 15.43 117.3 14.69 117.64 13.65 117.99 13.8 118.34 13.65 118.69 13.94 119.04 14.24 119.39 14.54 119.74 14.09 120.09 13.65 120.44 13.65 120.79 13.06 121.14 13.06 121.48 13.2 121.83 13.35 122.18 13.35 122.53 13.35 122.88 13.8 123.23 13.65 123.58 14.09 123.93 14.39 124.28 15.13 124.63 14.39 124.98 14.24 125.33 14.24 125.67 13.94 126.02 13.5 126.37 13.2 126.72 13.65 127.07 13.5 127.42 13.65 127.77 13.65 128.12 13.5 128.47 13.5 128.82 13.65 129.17 14.24 129.51 14.09 129.86 13.2 130.21 13.35 130.56 13.35 130.91 13.65 131.26 13.8 131.61 13.65 131.96 13.5 132.31 13.65 132.66 14.24 133.01 13.94 133.36 14.09 133.7 14.83 134.05 16.17 134.4 16.02 134.75 17.06 135.1 16.91 135.45 16.61 135.8 16.76 136.15 16.02 136.5 16.76 136.85 16.46 137.2 17.8 137.55 18.09 137.89 16.46 138.24 17.8 138.59 18.68 138.94 18.24 139.29 18.83 139.64 18.68 139.99 19.87 140.34 20.02 140.69 19.28 141.04 19.57 141.39 20.31 141.73 19.87 142.08 19.87 142.43 18.68 142.78 18.68 143.13 20.02 143.48 18.83 143.83 18.68 144.18 17.5 144.53 17.65 144.88 17.5 145.23 16.61 145.58 16.46 145.92 15.72 146.27 14.83 146.62 14.69 146.97 14.98 147.32 14.98 147.67 15.43 148.02 14.83 148.37 14.39 148.72 13.94 149.07 14.83 149.42 14.54 149.76 13.5 150.11 14.24 150.46 13.94 150.81 14.39 151.16 14.98 151.51 14.98 151.86 14.09 152.21 14.24 152.56 14.83 152.91 14.54 153.26 13.94 153.61 13.8 153.95 13.2 154.3 13.65 154.65 13.35 155 13.8 155.35 13.65 155.7 13.65 156.05 13.35 156.4 13.5 156.75 13.65 157.1 12.91 157.45 12.61"/>
      </g>
      <g stroke-width="0.3" fill="#000000" fill-opacity="0.000" class="geometry" stroke-dasharray="none" stroke="#D53E4F" id="img-ffe74cf1-18">
        <path fill="none" d="M21.98,71.86 L 22.33 72.9 22.68 72.16 23.03 70.53 23.38 69.2 23.73 71.12 24.08 71.42 24.42 70.83 24.77 68.46 25.12 72.16 25.47 76.46 25.82 73.94 26.17 71.27 26.52 69.35 26.87 71.12 27.22 72.16 27.57 73.05 27.92 72.46 28.27 72.01 28.61 73.49 28.96 70.38 29.31 71.27 29.66 70.97 30.01 73.49 30.36 72.31 30.71 69.94 31.06 70.68 31.41 73.49 31.76 73.49 32.11 72.31 32.45 75.27 32.8 74.09 33.15 72.01 33.5 72.31 33.85 74.68 34.2 76.31 34.55 74.97 34.9 76.9 35.25 79.86 35.6 82.08 35.95 83.42 36.3 88.45 36.64 91.86 36.99 91.12 37.34 91.42 37.69 96.16 38.04 93.49 38.39 92.9 38.74 92.6 39.09 91.56 39.44 95.27 39.79 95.71 40.14 96.16 40.49 98.53 40.83 100.9 41.18 99.86 41.53 98.23 41.88 97.05 42.23 98.23 42.58 100.01 42.93 100.45 43.28 98.97 43.63 99.71 43.98 98.23 44.33 98.38 44.67 97.34 45.02 99.27 45.37 102.08 45.72 102.67 46.07 100.75 46.42 99.27 46.77 99.71 47.12 97.79 47.47 97.05 47.82 95.86 48.17 98.97 48.52 100.3 48.86 99.56 49.21 99.71 49.56 97.79 49.91 97.19 50.26 98.53 50.61 98.97 50.96 99.71 51.31 98.53 51.66 98.82 52.01 99.12 52.36 100.9 52.7 101.19 53.05 103.41 53.4 104.9 53.75 108.01 54.1 107.86 54.45 109.04 54.8 107.71 55.15 106.23 55.5 106.23 55.85 107.41 56.2 108.45 56.55 110.38 56.89 111.12 57.24 113.19 57.59 112.45 57.94 112.45 58.29 113.93 58.64 112.01 58.99 111.86 59.34 110.97 59.69 108.6 60.04 109.64 60.39 109.93 60.73 109.49 61.08 107.56 61.43 108.01 61.78 108.75 62.13 106.08 62.48 106.08 62.83 106.67 63.18 108.75 63.53 105.64 63.88 101.93 64.23 100.9 64.58 100.01 64.92 100.45 65.27 102.23 65.62 104.16 65.97 103.71 66.32 105.78 66.67 105.64 67.02 103.71 67.37 102.67 67.72 103.71 68.07 104.6 68.42 107.86 68.77 107.41 69.11 106.08 69.46 106.38 69.81 106.67 70.16 101.79 70.51 104.01 70.86 104.45 71.21 102.38 71.56 102.53 71.91 103.86 72.26 102.53 72.61 103.27 72.95 105.19 73.3 103.41 73.65 101.04 74 100.16 74.35 102.38 74.7 101.93 75.05 101.49 75.4 100.3 75.75 94.82 76.1 93.79 76.45 94.38 76.8 96.6 77.14 96.3 77.49 94.23 77.84 95.42 78.19 94.68 78.54 92.6 78.89 92.75 79.24 89.64 79.59 89.19 79.94 87.42 80.29 89.94 80.64 88.01 80.98 87.86 81.33 86.53 81.68 87.12 82.03 85.19 82.38 83.42 82.73 83.42 83.08 84.16 83.43 85.49 83.78 82.68 84.13 83.71 84.48 83.42 84.83 84.01 85.17 86.08 85.52 87.86 85.87 87.57 86.22 90.08 86.57 89.05 86.92 87.71 87.27 86.68 87.62 88.75 87.97 88.16 88.32 89.79 88.67 91.12 89.02 90.82 89.36 91.71 89.71 89.94 90.06 88.16 90.41 86.08 90.76 88.75 91.11 91.56 91.46 92.16 91.81 92.75 92.16 89.34 92.51 86.97 92.86 89.79 93.2 88.75 93.55 86.82 93.9 87.86 94.25 90.53 94.6 88.9 94.95 92.45 95.3 93.05 95.65 97.49 96 99.71 96.35 99.71 96.7 99.56 97.05 100.9 97.39 101.49 97.74 104.45 98.09 102.53 98.44 99.71 98.79 99.42 99.14 97.79 99.49 101.34 99.84 101.49 100.19 104.9 100.54 104.75 100.89 103.86 101.23 103.71 101.58 103.12 101.93 102.82 102.28 104.01 102.63 102.08 102.98 100.01 103.33 97.64 103.68 97.93 104.03 96.9 104.38 96.45 104.73 99.42 105.08 100.3 105.42 103.56 105.77 102.53 106.12 105.34 106.47 104.6 106.82 106.23 107.17 104.75 107.52 108.9 107.87 107.71 108.22 107.86 108.57 106.67 108.92 108.15 109.26 106.67 109.61 108.45 109.96 109.34 110.31 109.19 110.66 110.08 111.01 105.64 111.36 104.75 111.71 103.12 112.06 100.6 112.41 102.67 112.76 103.12 113.11 98.97 113.45 100.9 113.8 101.64 114.15 105.64 114.5 106.53 114.85 104.75 115.2 105.64 115.55 105.34 115.9 104.9 116.25 107.27 116.6 107.71 116.95 105.78 117.3 107.56 117.64 105.19 117.99 105.78 118.34 106.82 118.69 106.67 119.04 105.93 119.39 104.45 119.74 105.19 120.09 106.38 120.44 107.86 120.79 107.27 121.14 107.41 121.48 107.56 121.83 108.45 122.18 109.19 122.53 109.93 122.88 108.45 123.23 105.34 123.58 104.45 123.93 103.12 124.28 101.49 124.63 101.64 124.98 103.56 125.33 105.49 125.67 106.08 126.02 109.04 126.37 110.23 126.72 110.38 127.07 105.64 127.42 107.41 127.77 105.49 128.12 105.64 128.47 104.6 128.82 106.08 129.17 104.01 129.51 104.3 129.86 103.12 130.21 101.93 130.56 101.93 130.91 104.6 131.26 103.41 131.61 103.71 131.96 102.23 132.31 102.23 132.66 102.23 133.01 100.3 133.36 101.34 133.7 101.64 134.05 100.3 134.4 98.82 134.75 99.71 135.1 99.42 135.45 99.71 135.8 99.12 136.15 97.64 136.5 99.56 136.85 100.16 137.2 100.6 137.55 100.9 137.89 101.49 138.24 101.64 138.59 96.75 138.94 96.9 139.29 95.86 139.64 96.6 139.99 96.3 140.34 96.9 140.69 96.01 141.04 95.42 141.39 93.05 141.73 91.12 142.08 90.82 142.43 90.23 142.78 89.64 143.13 88.31 143.48 88.16 143.83 87.86 144.18 87.71 144.53 85.79 144.88 84.01 145.23 84.16 145.58 86.23 145.92 86.38 146.27 87.42 146.62 85.34 146.97 86.68 147.32 87.27 147.67 90.23 148.02 92.6 148.37 92.75 148.72 92.01 149.07 93.79 149.42 97.19 149.76 100.6 150.11 101.79 150.46 102.82 150.81 102.23 151.16 104.6 151.51 102.08 151.86 103.41 152.21 101.79 152.56 100.6 152.91 103.41 153.26 103.56 153.61 106.08 153.95 106.08 154.3 105.04 154.65 101.79 155 101.79 155.35 101.19 155.7 98.97 156.05 97.49 156.4 96.3 156.75 97.34 157.1 99.27 157.45 97.19 157.79 97.93 158.14 97.64 158.49 96.16 158.84 94.68 159.19 96.75 159.54 96.9 159.89 95.86 160.24 96.9 160.59 94.97 160.94 96.01 161.29 98.67 161.64 97.34 161.98 96.6 162.33 95.12 162.68 94.23 163.03 95.42 163.38 96.3 163.73 98.23 164.08 98.38 164.43 96.45 164.78 92.31 165.13 90.23 165.48 90.23 165.83 89.19 166.17 85.64 166.52 88.6 166.87 87.86 167.22 88.16 167.57 88.75 167.92 88.6 168.27 92.01 168.62 91.56 168.97 90.68 169.32 87.71 169.67 92.75 170.01 93.64 170.36 91.56 170.71 88.45 171.06 87.12 171.41 84.6 171.76 87.86 172.11 90.23 172.46 92.31 172.81 91.71 173.16 93.34 173.51 92.31 173.86 94.38 174.2 95.71 174.55 95.12 174.9 96.9 175.25 94.82 175.6 91.71 175.95 94.53 176.3 92.31 176.65 91.71 177 92.01 177.35 94.08 177.7 95.56 178.04 96.01 178.39 93.79 178.74 90.53 179.09 85.94 179.44 85.05 179.79 87.27 180.14 86.53 180.49 87.86 180.84 87.86 181.19 87.57 181.54 89.05 181.89 88.9 182.23 90.08 182.58 91.56 182.93 88.9 183.28 89.79 183.63 89.34 183.98 89.19 184.33 89.94 184.68 90.68 185.03 90.53 185.38 92.45 185.73 92.16 186.08 93.79 186.42 92.6 186.77 90.97 187.12 91.86 187.47 91.86 187.82 90.97 188.17 92.9 188.52 92.9 188.87 95.12 189.22 92.6 189.57 93.79 189.92 94.38 190.26 95.12 190.61 93.05 190.96 93.79 191.31 88.9 191.66 90.97 192.01 91.27 192.36 90.08 192.71 91.56 193.06 94.82 193.41 94.53 193.76 89.19 194.11 86.53 194.45 84.01 194.8 84.9 195.15 83.86 195.5 83.12 195.85 84.16 196.2 83.27"/>
      </g>
      <g stroke-width="0.3" fill="#000000" fill-opacity="0.000" class="geometry" stroke-dasharray="none" stroke="#9E0142" id="img-ffe74cf1-19">
        <path fill="none" d="M21.98,71.86 L 22.33 71.72 22.68 71.86 23.03 72.01 23.38 72.6 23.73 71.12 24.08 74.38 24.42 72.6 24.77 74.68 25.12 79.57 25.47 82.38 25.82 82.38 26.17 82.68 26.52 84.01 26.87 84.45 27.22 84.31 27.57 81.49 27.92 82.53 28.27 79.86 28.61 85.79 28.96 86.08 29.31 86.53 29.66 86.53 30.01 89.05 30.36 87.71 30.71 87.27 31.06 86.08 31.41 86.53 31.76 86.08 32.11 86.53 32.45 86.97 32.8 84.45 33.15 86.23 33.5 85.34 33.85 86.23 34.2 86.68 34.55 88.31 34.9 80.9 35.25 80.01 35.6 83.71 35.95 81.05 36.3 85.49 36.64 86.82 36.99 87.57 37.34 88.31 37.69 88.75 38.04 88.6 38.39 88.9 38.74 90.53 39.09 88.9 39.44 88.16 39.79 89.19 40.14 85.64 40.49 87.86 40.83 86.68 41.18 88.16 41.53 88.9 41.88 88.75 42.23 89.64 42.58 87.42 42.93 86.38 43.28 86.82 43.63 85.19 43.98 84.6 44.33 82.53 44.67 86.97 45.02 87.71 45.37 86.38 45.72 85.34 46.07 86.53 46.42 86.68 46.77 87.71 47.12 86.82 47.47 89.94 47.82 91.12 48.17 90.97 48.52 90.68 48.86 89.05 49.21 89.19 49.56 89.79 49.91 90.38 50.26 89.49 50.61 90.38 50.96 90.23 51.31 90.82 51.66 87.71 52.01 88.01 52.36 87.42 52.7 87.12 53.05 88.75 53.4 88.45 53.75 88.75 54.1 87.27 54.45 89.34 54.8 92.9 55.15 90.53 55.5 92.01 55.85 95.56 56.2 95.12 56.55 95.27 56.89 93.19 57.24 92.16 57.59 94.38 57.94 94.23 58.29 96.01 58.64 94.97 58.99 94.82 59.34 95.12 59.69 92.9 60.04 95.27 60.39 92.01 60.73 91.12 61.08 92.6 61.43 91.56 61.78 89.49 62.13 91.86 62.48 88.75 62.83 91.56 63.18 92.9 63.53 92.45 63.88 92.31 64.23 94.08 64.58 92.6 64.92 92.6 65.27 94.38 65.62 91.12 65.97 92.31 66.32 89.19 66.67 87.27 67.02 88.45 67.37 86.97 67.72 90.23 68.07 90.97 68.42 88.9 68.77 85.94 69.11 86.68 69.46 87.27 69.81 87.42 70.16 89.49 70.51 89.19 70.86 95.56 71.21 93.19 71.56 92.9 71.91 93.79 72.26 95.27 72.61 96.01 72.95 92.01 73.3 94.23 73.65 94.68 74 91.12 74.35 90.23 74.7 87.86 75.05 88.6 75.4 90.08 75.75 93.79 76.1 93.93 76.45 92.75 76.8 92.75 77.14 93.93 77.49 93.05 77.84 94.08 78.19 97.34 78.54 100.3 78.89 102.53 79.24 101.34 79.59 101.34 79.94 101.04 80.29 98.53 80.64 100.75 80.98 101.19 81.33 96.3 81.68 96.01 82.03 95.71 82.38 91.86 82.73 94.97 83.08 91.86 83.43 89.34 83.78 86.23 84.13 85.64 84.48 85.05 84.83 85.34 85.17 87.71 85.52 86.97 85.87 85.05 86.22 86.08 86.57 84.01 86.92 82.53 87.27 82.23 87.62 84.16 87.97 83.86 88.32 85.49 88.67 85.79 89.02 86.23 89.36 85.79 89.71 88.45 90.06 86.53 90.41 89.19 90.76 89.05 91.11 86.68 91.46 83.71 91.81 84.31 92.16 83.27 92.51 81.2 92.86 80.01 93.2 79.12 93.55 77.79 93.9 78.53 94.25 76.9 94.6 80.01 94.95 77.94 95.3 78.38 95.65 78.38 96 74.68 96.35 77.2 96.7 76.75 97.05 79.57 97.39 83.86 97.74 88.01 98.09 84.75 98.44 87.71 98.79 89.79 99.14 88.31 99.49 89.49 99.84 89.05 100.19 90.68 100.54 89.49 100.89 88.16 101.23 85.94 101.58 84.9 101.93 85.34 102.28 89.64 102.63 93.93 102.98 96.9 103.33 96.75 103.68 97.34 104.03 97.34 104.38 93.79 104.73 94.82 105.08 95.56 105.42 91.27 105.77 93.64 106.12 95.42 106.47 94.68 106.82 98.53 107.17 96.16 107.52 94.68 107.87 95.12 108.22 95.56 108.57 94.23 108.92 91.12 109.26 88.6 109.61 92.45 109.96 94.38 110.31 95.56 110.66 92.45 111.01 89.79 111.36 89.19 111.71 90.23 112.06 93.49 112.41 93.19 112.76 93.19 113.11 93.49 113.45 96.01 113.8 94.53 114.15 94.23 114.5 95.71 114.85 99.42 115.2 99.42 115.55 101.49 115.9 101.49 116.25 101.64 116.6 101.34 116.95 102.97 117.3 102.08 117.64 100.9 117.99 103.27 118.34 103.12 118.69 103.86 119.04 102.67 119.39 104.16 119.74 101.64 120.09 101.34 120.44 103.56 120.79 101.04 121.14 101.19 121.48 102.08 121.83 101.93 122.18 100.9 122.53 99.42 122.88 101.64 123.23 105.04 123.58 105.78 123.93 106.38 124.28 105.64 124.63 103.86 124.98 102.67 125.33 102.53 125.67 104.75 126.02 104.3 126.37 105.93 126.72 105.49 127.07 107.86 127.42 110.53 127.77 108.45 128.12 107.12 128.47 109.34 128.82 109.49 129.17 109.93 129.51 108.45 129.86 108.45 130.21 109.93 130.56 109.34 130.91 108.6 131.26 107.71 131.61 106.67 131.96 107.86 132.31 105.04 132.66 105.78 133.01 104.3 133.36 106.67 133.7 106.08 134.05 106.67 134.4 106.97 134.75 105.93 135.1 106.38 135.45 105.93 135.8 104.9 136.15 105.34 136.5 104.75 136.85 102.53 137.2 99.71 137.55 100.01 137.89 101.93 138.24 99.56 138.59 98.97 138.94 100.45 139.29 102.08 139.64 101.04 139.99 101.04 140.34 101.49 140.69 101.49 141.04 102.08 141.39 101.93 141.73 103.56 142.08 101.79 142.43 97.93 142.78 98.97 143.13 102.23 143.48 100.3 143.83 99.56 144.18 97.79 144.53 95.56 144.88 89.79 145.23 88.75 145.58 90.23 145.92 86.68 146.27 86.82 146.62 86.53 146.97 84.16 147.32 83.71 147.67 82.82 148.02 85.19 148.37 86.68 148.72 86.82 149.07 87.86 149.42 86.82 149.76 84.31 150.11 82.53 150.46 78.83 150.81 77.64 151.16 77.34 151.51 77.2 151.86 77.64 152.21 74.53 152.56 76.16 152.91 76.31 153.26 74.23 153.61 72.9 153.95 69.05 154.3 70.38 154.65 68.01 155 66.83 155.35 68.31 155.7 71.86 156.05 71.72 156.4 71.72 156.75 76.75 157.1 72.6 157.45 70.38 157.79 74.53 158.14 77.49 158.49 77.79 158.84 73.94 159.19 76.9 159.54 77.49 159.89 78.68 160.24 79.12 160.59 80.45 160.94 80.01 161.29 77.94 161.64 74.97 161.98 76.46 162.33 76.9 162.68 77.2 163.03 73.34 163.38 71.86 163.73 72.16 164.08 70.53 164.43 69.05 164.78 66.68 165.13 66.38 165.48 64.9 165.83 65.64 166.17 64.9 166.52 64.01 166.87 61.94 167.22 62.98 167.57 60.61 167.92 61.79 168.27 60.9 168.62 61.35 168.97 58.98 169.32 58.38 169.67 58.38 170.01 59.42 170.36 54.68 170.71 55.57 171.06 54.68 171.41 56.31 171.76 57.64 172.11 57.94 172.46 56.75 172.81 56.61 173.16 53.2 173.51 51.27 173.86 53.5 174.2 54.24 174.55 54.53 174.9 56.16 175.25 55.72 175.6 55.87 175.95 55.87 176.3 59.72 176.65 62.38 177 63.72 177.35 62.98 177.7 59.12 178.04 62.09 178.39 64.46 178.74 63.42 179.09 63.86 179.44 62.09 179.79 61.94 180.14 59.57 180.49 57.05 180.84 59.27 181.19 59.12 181.54 58.83 181.89 58.83 182.23 60.46 182.58 60.01 182.93 60.9 183.28 65.05 183.63 63.27 183.98 67.12 184.33 67.27 184.68 65.05 185.03 65.64 185.38 66.53 185.73 67.27 186.08 70.23 186.42 71.27 186.77 72.16 187.12 69.35 187.47 74.09 187.82 74.97 188.17 74.09 188.52 74.09 188.87 74.38 189.22 73.05 189.57 73.64 189.92 78.68 190.26 78.97 190.61 79.71 190.96 82.23 191.31 83.86 191.66 84.9 192.01 85.34 192.36 87.86 192.71 90.23 193.06 90.68 193.41 87.71 193.76 87.27 194.11 88.6 194.45 89.49 194.8 85.64 195.15 86.82 195.5 85.94 195.85 87.12 196.2 83.42"/>
      </g>
    </g>
  </g>
</g>
  <g class="guide ylabels" font-size="2.82" font-family="'PT Sans Caption','Helvetica Neue','Helvetica',sans-serif" fill="#000000" id="img-ffe74cf1-20">
    <text x="18.63" y="131.11" text-anchor="end" dy="0.35em">0</text>
    <text x="18.63" y="101.49" text-anchor="end" dy="0.35em">200</text>
    <text x="18.63" y="71.86" text-anchor="end" dy="0.35em">400</text>
    <text x="18.63" y="42.24" text-anchor="end" dy="0.35em">600</text>
    <text x="18.63" y="12.61" text-anchor="end" dy="0.35em">800</text>
  </g>
  <g font-size="3.88" font-family="'PT Sans','Helvetica Neue','Helvetica',sans-serif" fill="#000000" stroke="#000000" stroke-opacity="0.000" id="img-ffe74cf1-21">
    <text x="8.81" y="69.86" text-anchor="middle" dy="0.35em" transform="rotate(-90, 8.81, 71.86)">population number</text>
  </g>
  <g font-size="3.88" font-family="'PT Sans','Helvetica Neue','Helvetica',sans-serif" fill="#000000" stroke="#000000" stroke-opacity="0.000" id="img-ffe74cf1-22">
    <text x="108.92" y="5" text-anchor="middle" dy="0.6em">genetic drift</text>
  </g>
</g>
<defs>
  <clipPath id="img-ffe74cf1-4">
  <path d="M19.63,10.61 L 198.2 10.61 198.2 133.11 19.63 133.11" />
</clipPath>
</defs>
</svg>
